<svg id="Capa_1" enable-background="new 0 0 512 512" viewBox="0 0 512 512" xmlns="http://www.w3.org/2000/svg" fill="#052438"><g><g><path d="m256 94.528c37.717 0 73.737 6.039 107.06 17.949l7.404-20.717c-35.705-12.761-74.217-19.232-114.464-19.232-40.248 0-78.759 6.471-114.464 19.232l7.404 20.717c33.322-11.91 69.343-17.949 107.06-17.949z"/><path d="m22 256c0-43.629 25.035-84.58 70.492-115.307l-12.32-18.227c-24.862 16.806-44.468 36.647-58.273 58.973-14.531 23.499-21.899 48.584-21.899 74.561 0 25.976 7.368 51.062 21.898 74.561 13.805 22.326 33.411 42.167 58.273 58.973l12.32-18.227c-45.456-30.727-70.491-71.678-70.491-115.307z"/><path d="m256 439.472c40.248 0 78.76-6.471 114.465-19.232l-7.404-20.717c-33.322 11.91-69.343 17.949-107.061 17.949-37.717 0-73.738-6.039-107.06-17.949l-7.404 20.717c35.705 12.761 74.216 19.232 114.464 19.232z"/><path d="m490.102 181.439c-13.806-22.326-33.411-42.167-58.273-58.973l-12.32 18.227c45.457 30.727 70.491 71.678 70.491 115.307 0 43.631-25.035 84.582-70.495 115.31l12.32 18.227c24.862-16.806 44.47-36.647 58.275-58.974 14.532-23.5 21.9-48.586 21.9-74.563 0-25.976-7.367-51.062-21.898-74.561z"/><path d="m330.618 21.934c-23.514-14.555-48.62-21.934-74.618-21.934s-51.103 7.379-74.618 21.934c-22.341 13.828-42.191 33.463-58.999 58.361l18.234 12.31c30.736-45.531 71.713-70.605 115.383-70.605s84.647 25.074 115.383 70.604l18.234-12.31c-16.807-24.898-36.658-44.533-58.999-58.36z"/><path d="m112.433 149.062-20.72-7.395c-12.73 35.669-19.185 74.137-19.185 114.333 0 40.197 6.455 78.665 19.186 114.334l20.72-7.396c-11.881-33.289-17.906-69.268-17.906-106.938 0-37.669 6.024-73.648 17.905-106.938z"/><path d="m256 490c-43.67 0-84.647-25.074-115.382-70.604l-18.234 12.31c16.808 24.897 36.658 44.533 58.999 58.36 23.514 14.555 48.619 21.934 74.617 21.934s51.104-7.379 74.618-21.934c22.341-13.828 42.191-33.463 58.999-58.36l-18.234-12.31c-30.736 45.53-71.713 70.604-115.383 70.604z"/><path d="m420.286 370.334c12.73-35.67 19.186-74.138 19.186-114.334 0-40.195-6.455-78.662-19.185-114.333l-20.721 7.395c11.881 33.291 17.905 69.27 17.905 106.938 0 37.669-6.024 73.649-17.906 106.939z"/></g><g fill="#0496FF"><path d="m256 146.244c-60.52 0-109.756 49.236-109.756 109.756s49.236 109.756 109.756 109.756c60.521 0 109.757-49.236 109.757-109.756s-49.236-109.756-109.757-109.756zm-54.847 178.207c2.779-27.812 26.315-49.603 54.847-49.603 28.533 0 52.069 21.79 54.848 49.603-15.035 12.071-34.111 19.306-54.848 19.306-20.737-.001-39.813-7.235-54.847-19.306zm34.545-91.906c0-11.194 9.107-20.302 20.302-20.302s20.302 9.107 20.302 20.302-9.107 20.302-20.302 20.302-20.302-9.107-20.302-20.302zm93.192 72.272c-6.891-19.911-21.714-36.138-40.68-44.894 6.286-7.385 10.091-16.942 10.091-27.377 0-23.325-18.977-42.302-42.302-42.302s-42.302 18.977-42.302 42.302c0 10.435 3.806 19.993 10.092 27.377-18.966 8.756-33.788 24.984-40.68 44.895-9.384-13.966-14.867-30.763-14.867-48.817 0-48.389 39.367-87.756 87.756-87.756 48.39 0 87.757 39.367 87.757 87.756.002 18.053-5.481 34.85-14.865 48.816z"/><path d="m114.812 158.915c24.262 0 44-19.738 44-44s-19.738-44-44-44-44 19.738-44 44 19.738 44 44 44zm0-66c12.131 0 22 9.869 22 22s-9.869 22-22 22-22-9.869-22-22 9.869-22 22-22z"/><path d="m114.812 353.085c-24.262 0-44 19.738-44 44s19.738 44 44 44 44-19.738 44-44-19.738-44-44-44zm0 66c-12.131 0-22-9.869-22-22s9.869-22 22-22 22 9.869 22 22-9.869 22-22 22z"/><path d="m397.188 158.915c24.262 0 44-19.738 44-44s-19.738-44-44-44-44 19.738-44 44 19.739 44 44 44zm0-66c12.131 0 22 9.869 22 22s-9.869 22-22 22-22-9.869-22-22 9.87-22 22-22z"/><path d="m397.188 353.085c-24.262 0-44 19.738-44 44s19.738 44 44 44 44-19.738 44-44-19.738-44-44-44zm0 66c-12.131 0-22-9.869-22-22s9.869-22 22-22 22 9.869 22 22-9.869 22-22 22z"/></g></g><g/><g/><g/><g/><g/><g/><g/><g/><g/><g/><g/><g/><g/><g/><g/></svg>