<svg id="Capa_1" enable-background="new 0 0 512.061 512.061" viewBox="0 0 512.061 512.061" xmlns="http://www.w3.org/2000/svg" fill="#E6ECF2"><g><g fill="#0496FF"><path d="m345.029 280.912h22v150.393h-22z" transform="matrix(.707 -.707 .707 .707 -147.528 356.052)"/><path d="m390.31 294.222-40.105-40.105-15.557 15.557 43.327 43.326c2.063 2.063 4.861 3.222 7.778 3.222h32.769v-22z"/><path d="m269.594 334.726-15.557 15.557 40.105 40.105v28.212h22v-32.769c0-2.917-1.159-5.715-3.222-7.778z"/><path d="m151.572 87.454h22v150.393h-22z" transform="matrix(.707 -.707 .707 .707 -67.395 162.595)"/><path d="m224.458 128.371v-28.212h-22v32.769c0 2.917 1.159 5.715 3.222 7.778l43.327 43.327 15.557-15.557z"/><path d="m132.848 202.537h-32.769v22h28.212l40.106 40.105 15.557-15.557-43.328-43.327c-2.063-2.063-4.861-3.221-7.778-3.221z"/></g><g><path d="m429 390.079c-21.505 0-39 17.495-39 39s17.495 39 39 39 39-17.495 39-39-17.495-39-39-39zm0 56c-9.374 0-17-7.626-17-17s7.626-17 17-17 17 7.626 17 17-7.626 17-17 17z"/><path d="m447.286 266.222c-21.505 0-39 17.495-39 39s17.495 39 39 39 39-17.495 39-39-17.495-39-39-39zm0 56c-9.374 0-17-7.626-17-17s7.626-17 17-17 17 7.626 17 17-7.626 17-17 17z"/><path d="m305.143 408.364c-21.505 0-39 17.495-39 39s17.495 39 39 39 39-17.495 39-39-17.495-39-39-39zm0 56c-9.374 0-17-7.626-17-17s7.626-17 17-17 17 7.626 17 17-7.626 17-17 17z"/><path d="m89.602 50.68c-21.505 0-39 17.495-39 39s17.495 39 39 39 39-17.495 39-39-17.496-39-39-39zm0 56c-9.374 0-17-7.626-17-17s7.626-17 17-17 17 7.626 17 17-7.626 17-17 17z"/><path d="m213.458 110.394c21.505 0 39-17.495 39-39s-17.495-39-39-39-39 17.495-39 39 17.495 39 39 39zm0-56c9.374 0 17 7.626 17 17s-7.626 17-17 17-17-7.626-17-17 7.626-17 17-17z"/><path d="m71.315 174.537c-21.505 0-39 17.495-39 39s17.495 39 39 39 39-17.495 39-39-17.495-39-39-39zm0 56c-9.374 0-17-7.626-17-17s7.626-17 17-17 17 7.626 17 17-7.625 17-17 17z"/><path d="m504.136 14.544c-16.152-16.153-49.42-7.666-101.702 25.944-45.936 29.531-100.508 75.07-153.665 128.227-53.29 53.29-98.897 107.97-128.421 153.968l18.514 11.884c13.91-21.671 31.553-45.38 51.979-70.002l63.277 63.277c-24.994 20.735-49.041 38.595-70.982 52.603l11.838 18.543c46.216-29.504 101.259-75.344 154.991-129.077 53.157-53.157 98.695-107.73 128.227-153.665 33.611-52.282 42.097-85.549 25.944-101.702zm-169.728 239.811c-21.191 21.191-42.557 41.105-63.454 59.211l-65.839-65.839c18.113-20.906 38.031-42.276 59.21-63.455 52.079-52.08 105.353-96.57 150.006-125.277 20.92-13.449 39.33-22.919 53.241-27.385 13.455-4.321 19.535-2.981 21.007-1.508 1.473 1.472 2.812 7.553-1.508 21.007-4.467 13.911-13.937 32.321-27.386 53.242-28.706 44.651-73.197 97.925-125.277 150.004z"/></g><g><g><path d="m78.146 505.442c-25.216 0-50.546-6.856-72.97-20.852-2.847-1.777-4.728-4.756-5.105-8.091-.379-3.334.786-6.66 3.162-9.029 16.606-16.56 25.522-38.593 25.105-62.042-.422-23.684 8.568-45.949 25.313-62.694 33.678-33.678 88.508-33.71 122.225-.068 16.539 16.504 25.389 38.597 24.917 62.21-.483 24.226-11.053 47.602-28.999 64.134-26.115 24.059-59.778 36.432-93.648 36.432zm-49.851-33.228c42.299 20.156 93.532 12.913 128.593-19.384 13.56-12.491 21.545-30.13 21.91-48.393.351-17.562-6.206-33.969-18.461-46.198-25.14-25.083-66.019-25.061-91.129.051-12.485 12.485-19.187 29.086-18.874 46.746.439 24.626-7.309 48.008-22.039 67.178z" fill="#0496FF"/></g></g></g><g/><g/><g/><g/><g/><g/><g/><g/><g/><g/><g/><g/><g/><g/><g/></svg>