<svg id="Capa_1" enable-background="new 0 0 512 512" viewBox="0 0 512 512" xmlns="http://www.w3.org/2000/svg" fill="#052438"><g><g fill="#0496FF"><path d="m380 245h65v22h-65z"/><path d="m457 147v26h-77v22h88c6.075 0 11-4.925 11-11v-37z"/><path d="m468 317h-88v22h77v26h22v-37c0-6.075-4.925-11-11-11z"/><path d="m67 245h65v22h-65z"/><path d="m55 147h-22v37c0 6.075 4.925 11 11 11h88v-22h-77z"/><path d="m33 328v37h22v-26h77v-22h-88c-6.075 0-11 4.925-11 11z"/><path d="m245 380h22v65h-22z"/><path d="m339 380h-22v88c0 6.075 4.925 11 11 11h37v-22h-26z"/><path d="m173 457h-26v22h37c6.075 0 11-4.925 11-11v-88h-22z"/><path d="m245 67h22v65h-22z"/><path d="m317 44v88h22v-77h26v-22h-37c-6.075 0-11 4.925-11 11z"/><path d="m184 33h-37v22h26v77h22v-88c0-6.075-4.925-11-11-11z"/></g><g><path d="m253.868 219.92c-8.405 0-16.497 2.541-23.816 7.422-7.319-4.881-15.411-7.422-23.815-7.422-6.075 0-11 4.925-11 11s4.925 11 11 11c7.072 0 12.664 4.032 16.109 7.414 2.14 2.1 4.923 3.15 7.706 3.15s5.566-1.05 7.706-3.15c3.445-3.382 9.037-7.414 16.11-7.414 6.075 0 11-4.925 11-11s-4.925-11-11-11z"/><path d="m335.32 165.87c-8.404 0-16.497 2.542-23.815 7.422-7.319-4.881-15.412-7.422-23.816-7.422-6.075 0-11 4.925-11 11s4.925 11 11 11c7.072 0 12.664 4.032 16.11 7.415 2.14 2.101 4.923 3.15 7.706 3.15s5.567-1.05 7.706-3.15c3.445-3.382 9.037-7.415 16.109-7.415 6.075 0 11-4.925 11-11s-4.925-11-11-11z"/><path d="m391 348v-184c0-23.71-19.29-43-43-43h-183.873c-23.71 0-43 19.29-43 43v184c0 23.71 19.29 43 43 43h183.873c23.71 0 43-19.29 43-43zm-22 0c0 11.58-9.42 21-21 21h-183.873c-11.58 0-21-9.42-21-21v-43.836l17.113-17.113c8.764-8.764 23.023-8.764 31.788 0l18.963 18.963c4.439 4.439 10.285 6.717 16.174 6.716 4.587 0 9.202-1.383 13.195-4.203l58.587-41.332c16.522-11.657 38.873-9.722 53.146 4.603l16.907 16.967zm0-90.403-1.323-1.327c-21.863-21.942-56.103-24.907-81.412-7.051l-58.591 41.335c-.351.247-.823.206-1.126-.097l-18.963-18.963c-8.401-8.4-19.57-13.027-31.45-13.027s-23.049 4.626-31.45 13.027l-1.557 1.557v-109.051c0-11.58 9.42-21 21-21h183.872c11.58 0 21 9.42 21 21z"/><path d="m256 434c-21.505 0-39 17.495-39 39s17.495 39 39 39 39-17.495 39-39-17.495-39-39-39zm0 56c-9.374 0-17-7.626-17-17s7.626-17 17-17 17 7.626 17 17-7.626 17-17 17z"/><path d="m393 429c-21.505 0-39 17.495-39 39s17.495 39 39 39 39-17.495 39-39-17.495-39-39-39zm0 56c-9.374 0-17-7.626-17-17s7.626-17 17-17 17 7.626 17 17-7.626 17-17 17z"/><path d="m119 429c-21.505 0-39 17.495-39 39s17.495 39 39 39 39-17.495 39-39-17.495-39-39-39zm0 56c-9.374 0-17-7.626-17-17s7.626-17 17-17 17 7.626 17 17-7.626 17-17 17z"/><path d="m39 295c21.505 0 39-17.495 39-39s-17.495-39-39-39-39 17.495-39 39 17.495 39 39 39zm0-56c9.374 0 17 7.626 17 17s-7.626 17-17 17-17-7.626-17-17 7.626-17 17-17z"/><path d="m44 158c21.505 0 39-17.495 39-39s-17.495-39-39-39-39 17.495-39 39 17.495 39 39 39zm0-56c9.374 0 17 7.626 17 17s-7.626 17-17 17-17-7.626-17-17 7.626-17 17-17z"/><path d="m44 354c-21.505 0-39 17.495-39 39s17.495 39 39 39 39-17.495 39-39-17.495-39-39-39zm0 56c-9.374 0-17-7.626-17-17s7.626-17 17-17 17 7.626 17 17-7.626 17-17 17z"/><path d="m473 217c-21.505 0-39 17.495-39 39s17.495 39 39 39 39-17.495 39-39-17.495-39-39-39zm0 56c-9.374 0-17-7.626-17-17s7.626-17 17-17 17 7.626 17 17-7.626 17-17 17z"/><path d="m468 158c21.505 0 39-17.495 39-39s-17.495-39-39-39-39 17.495-39 39 17.495 39 39 39zm0-56c9.374 0 17 7.626 17 17s-7.626 17-17 17-17-7.626-17-17 7.626-17 17-17z"/><path d="m468 354c-21.505 0-39 17.495-39 39s17.495 39 39 39 39-17.495 39-39-17.495-39-39-39zm0 56c-9.374 0-17-7.626-17-17s7.626-17 17-17 17 7.626 17 17-7.626 17-17 17z"/><path d="m256 78c21.505 0 39-17.495 39-39s-17.495-39-39-39-39 17.495-39 39 17.495 39 39 39zm0-56c9.374 0 17 7.626 17 17s-7.626 17-17 17-17-7.626-17-17 7.626-17 17-17z"/><path d="m393 83c21.505 0 39-17.495 39-39s-17.495-39-39-39-39 17.495-39 39 17.495 39 39 39zm0-56c9.374 0 17 7.626 17 17s-7.626 17-17 17-17-7.626-17-17 7.626-17 17-17z"/><path d="m119 83c21.505 0 39-17.495 39-39s-17.495-39-39-39-39 17.495-39 39 17.495 39 39 39zm0-56c9.374 0 17 7.626 17 17s-7.626 17-17 17-17-7.626-17-17 7.626-17 17-17z"/></g></g><g/><g/><g/><g/><g/><g/><g/><g/><g/><g/><g/><g/><g/><g/><g/></svg>