<svg id="Capa_1" enable-background="new 0 0 512 512" viewBox="0 0 512 512" xmlns="http://www.w3.org/2000/svg" fill="#052438"><g><g fill="#0496FF"><path d="m230.663 67h22v65h-22z"/><path d="m351.491 78h33v-22h-44c-6.075 0-11 4.925-11 11v93.074h22z"/><path d="m131.835 160.074h22v-93.074c0-6.075-4.925-11-11-11h-44v22h33z"/><path d="m241.663 257.517c24.774 0 44.931-20.156 44.931-44.931s-20.156-44.931-44.931-44.931-44.931 20.156-44.931 44.931 20.157 44.931 44.931 44.931zm0-67.862c12.644 0 22.931 10.287 22.931 22.931s-10.287 22.931-22.931 22.931-22.931-10.287-22.931-22.931 10.288-22.931 22.931-22.931z"/><path d="m275.99 316.5c0-18.928-15.399-34.328-34.327-34.328-18.929 0-34.328 15.399-34.328 34.328s15.399 34.328 34.328 34.328c18.928 0 34.327-15.4 34.327-34.328zm-34.327 12.328c-6.798 0-12.328-5.53-12.328-12.328s5.53-12.328 12.328-12.328c6.797 0 12.327 5.53 12.327 12.328s-5.53 12.328-12.327 12.328z"/><path d="m174.607 316.16c8.486-8.486 13.16-19.77 13.159-31.771 0-24.775-20.156-44.931-44.931-44.931s-44.931 20.156-44.931 44.931 20.156 44.931 44.931 44.931c12.001 0 23.284-4.674 31.772-13.16zm-54.702-31.771c0-12.644 10.287-22.931 22.931-22.931s22.931 10.287 22.931 22.931c0 6.125-2.385 11.883-6.716 16.214s-10.09 6.716-16.215 6.716c-12.644.001-22.931-10.286-22.931-22.93z"/><path d="m180.584 355.637c-24.774 0-44.931 20.156-44.931 44.931s20.156 44.931 44.931 44.931 44.931-20.156 44.931-44.931-20.156-44.931-44.931-44.931zm0 67.862c-12.644 0-22.931-10.287-22.931-22.931s10.287-22.931 22.931-22.931 22.931 10.287 22.931 22.931-10.287 22.931-22.931 22.931z"/><path d="m340.491 239.458c-24.775 0-44.932 20.156-44.932 44.931s20.156 44.931 44.932 44.931c24.774 0 44.931-20.156 44.931-44.931s-20.156-44.931-44.931-44.931zm0 67.862c-12.645 0-22.932-10.287-22.932-22.931s10.287-22.931 22.932-22.931c12.644 0 22.931 10.287 22.931 22.931s-10.287 22.931-22.931 22.931z"/><path d="m302.742 355.637c-24.775 0-44.932 20.156-44.932 44.931s20.156 44.931 44.932 44.931c24.774 0 44.931-20.156 44.931-44.931s-20.156-44.931-44.931-44.931zm0 67.862c-12.645 0-22.932-10.287-22.932-22.931s10.287-22.931 22.932-22.931c12.644 0 22.931 10.287 22.931 22.931s-10.287 22.931-22.931 22.931z"/></g><g><path d="m474.923 435.128c-23.291-14.314-37.76-40.189-37.76-67.527v-51.101c0-107.799-87.701-195.5-195.5-195.5s-195.5 87.701-195.5 195.5 87.701 195.5 195.5 195.5c79.012 0 147.223-47.118 178.021-114.729 7.191 23.227 22.615 43.63 43.719 56.6 1.796 1.104 3.785 1.63 5.749 1.63 3.696 0 7.306-1.862 9.382-5.242 3.182-5.175 1.565-11.949-3.611-15.131zm-233.26 54.872c-95.668 0-173.5-77.832-173.5-173.5s77.832-173.5 173.5-173.5 173.5 77.832 173.5 173.5-77.832 173.5-173.5 173.5z"/><path d="m241.663 78c21.505 0 39-17.495 39-39s-17.495-39-39-39-39 17.495-39 39 17.495 39 39 39zm0-56c9.374 0 17 7.626 17 17s-7.626 17-17 17-17-7.626-17-17 7.626-17 17-17z"/><path d="m412.491 106c21.505 0 39-17.495 39-39s-17.495-39-39-39-39 17.495-39 39 17.496 39 39 39zm0-56c9.374 0 17 7.626 17 17s-7.626 17-17 17-17-7.626-17-17 7.626-17 17-17z"/><path d="m109.835 67c0-21.505-17.495-39-39-39s-39 17.495-39 39 17.495 39 39 39 39-17.495 39-39zm-56 0c0-9.374 7.626-17 17-17s17 7.626 17 17-7.626 17-17 17-17-7.626-17-17z"/></g></g><g/><g/><g/><g/><g/><g/><g/><g/><g/><g/><g/><g/><g/><g/><g/></svg>