<svg id="Capa_1" enable-background="new 0 0 512 512" viewBox="0 0 512 512" xmlns="http://www.w3.org/2000/svg" fill="#052438"><g><g fill="#0496FF"><path d="m358 128.51h87v22h-87z"/><path d="m416.829 185.51h-58.829v22h54.273l19.949 19.949 15.557-15.557-23.171-23.171c-2.064-2.062-4.861-3.221-7.779-3.221z"/><path d="m424.607 90.289 23.171-23.171-15.557-15.557-19.948 19.949h-58.909v22h63.465c2.918 0 5.715-1.158 7.778-3.221z"/><path d="m67 128.51h87v22h-87z"/><path d="m87.393 188.732-23.171 23.171 15.557 15.557 19.949-19.949h54.272v-22h-58.829c-2.918-.001-5.715 1.158-7.778 3.221z"/><path d="m79.778 51.561-15.556 15.557 23.171 23.171c2.063 2.063 4.861 3.222 7.778 3.222h63.465v-22h-58.909z"/><path d="m258.448 191.884c1.663 4.405 5.848 7.12 10.293 7.119 1.291 0 2.603-.229 3.882-.711 5.684-2.145 8.553-8.492 6.408-14.175l-32.744-86.764c-.038-.101-.078-.202-.119-.302-2.013-4.891-6.729-8.05-12.017-8.05-.004 0-.009 0-.013 0-5.293.005-10.009 3.174-12.014 8.074-.034.083-.067.167-.099.25l-33.043 86.761c-2.162 5.677.688 12.032 6.365 14.195 5.676 2.164 12.033-.687 14.195-6.365l2.938-7.713h43.07zm-37.591-29.682 13.255-34.803 13.134 34.803z"/><path d="m312.739 89c-6.075 0-11 4.925-11 11v88c0 6.075 4.925 11 11 11s11-4.925 11-11v-88c0-6.075-4.925-11-11-11z"/><path d="m256 328.563c-18.196 0-33 14.804-33 33s14.804 33 33 33 33-14.804 33-33-14.804-33-33-33zm0 44c-6.065 0-11-4.935-11-11s4.935-11 11-11 11 4.935 11 11-4.935 11-11 11z"/></g><g><path d="m473 100.51c-21.505 0-39 17.495-39 39s17.495 39 39 39 39-17.495 39-39-17.495-39-39-39zm0 56c-9.374 0-17-7.626-17-17s7.626-17 17-17 17 7.626 17 17-7.626 17-17 17z"/><path d="m460.339 201.02c-21.505 0-39 17.495-39 39s17.495 39 39 39 39-17.495 39-39-17.495-39-39-39zm0 56c-9.374 0-17-7.626-17-17s7.626-17 17-17 17 7.626 17 17-7.626 17-17 17z"/><path d="m460.339 78c21.505 0 39-17.495 39-39s-17.495-39-39-39-39 17.495-39 39 17.495 39 39 39zm0-56c9.374 0 17 7.626 17 17s-7.626 17-17 17-17-7.626-17-17 7.626-17 17-17z"/><path d="m78 139.51c0-21.505-17.495-39-39-39s-39 17.495-39 39 17.495 39 39 39 39-17.495 39-39zm-56 0c0-9.374 7.626-17 17-17s17 7.626 17 17-7.626 17-17 17-17-7.626-17-17z"/><path d="m51.661 201.02c-21.505 0-39 17.495-39 39s17.495 39 39 39 39-17.495 39-39-17.495-39-39-39zm0 56c-9.374 0-17-7.626-17-17s7.626-17 17-17 17 7.626 17 17-7.626 17-17 17z"/><path d="m51.661 0c-21.505 0-39 17.495-39 39s17.495 39 39 39 39-17.495 39-39-17.495-39-39-39zm0 56c-9.374 0-17-7.626-17-17s7.626-17 17-17 17 7.626 17 17-7.626 17-17 17z"/><path d="m369 235.278v-122.278c0-62.309-50.691-113-113-113s-113 50.691-113 113v122.278c-17.251 2.151-30.647 16.896-30.647 34.72s13.396 32.569 30.647 34.72v28.282c0 50.096 32.772 92.675 78 107.445v49.555h-57c-6.075 0-11 4.925-11 11s4.925 11 11 11h184c6.075 0 11-4.925 11-11s-4.925-11-11-11h-57v-49.555c45.228-14.769 78-57.348 78-107.445v-28.282c17.251-2.151 30.647-16.896 30.647-34.72s-13.396-32.569-30.647-34.72zm-113-213.278c50.178 0 91 40.822 91 91v121.998h-182v-121.998c0-50.178 40.822-91 91-91zm13 468h-26v-44.752c4.267.491 8.603.752 13 .752s8.733-.261 13-.752zm-13-66c-50.178 0-91-40.822-91-91v-28.002h182v28.002c0 50.178-40.822 91-91 91zm108.647-141.002h-217.294c-7.168 0-13-5.832-13-13s5.832-13 13-13h217.295c7.168 0 13 5.832 13 13s-5.832 13-13.001 13z"/></g></g><g/><g/><g/><g/><g/><g/><g/><g/><g/><g/><g/><g/><g/><g/><g/></svg>