<svg id="Capa_1" enable-background="new 0 0 512 512" viewBox="0 0 512 512" xmlns="http://www.w3.org/2000/svg" fill="#E6ECF2"><g><g fill="#0496FF"><path d="m245 67h22v57h-22z"/><path d="m245 388h22v57h-22z"/><path d="m388 245h57v22h-57z"/><path d="m67 245h57v22h-57z"/><path d="m340.99 131.509h57v22h-57z" transform="matrix(.707 -.707 .707 .707 7.452 303.01)"/><path d="m114.009 358.49h57v22h-57z" transform="matrix(.707 -.707 .707 .707 -219.529 208.991)"/><path d="m358.491 340.99h22v57h-22z" transform="matrix(.707 -.707 .707 .707 -153.048 369.494)"/><path d="m131.509 114.009h22v57h-22z" transform="matrix(.707 -.707 .707 .707 -59.029 142.511)"/><path d="m312.729 237.628-73.437-42.625c-6.248-3.626-13.711-3.637-19.97-.035-6.258 3.604-9.994 10.066-9.994 17.288v85.249c0 7.222 3.736 13.685 9.994 17.288 3.119 1.796 6.538 2.693 9.956 2.693 3.44 0 6.88-.91 10.013-2.728l73.438-42.625c6.221-3.61 9.936-10.06 9.936-17.253s-3.715-13.642-9.936-17.252zm-81.4 56.316v-78.125l67.301 39.062z"/></g><g><path d="m256 78c21.505 0 39-17.495 39-39s-17.495-39-39-39-39 17.495-39 39 17.495 39 39 39zm0-56c9.374 0 17 7.626 17 17s-7.626 17-17 17-17-7.626-17-17 7.626-17 17-17z"/><path d="m256 434c-21.505 0-39 17.495-39 39s17.495 39 39 39 39-17.495 39-39-17.495-39-39-39zm0 56c-9.374 0-17-7.626-17-17s7.626-17 17-17 17 7.626 17 17-7.626 17-17 17z"/><path d="m473 217c-21.505 0-39 17.495-39 39s17.495 39 39 39 39-17.495 39-39-17.495-39-39-39zm0 56c-9.374 0-17-7.626-17-17s7.626-17 17-17 17 7.626 17 17-7.626 17-17 17z"/><path d="m78 256c0-21.505-17.495-39-39-39s-39 17.495-39 39 17.495 39 39 39 39-17.495 39-39zm-39 17c-9.374 0-17-7.626-17-17s7.626-17 17-17 17 7.626 17 17-7.626 17-17 17z"/><path d="m409.442 141.558c10.417 0 20.211-4.057 27.577-11.423s11.423-17.16 11.423-27.577-4.057-20.211-11.423-27.578c-7.366-7.366-17.16-11.422-27.577-11.422s-20.211 4.057-27.576 11.422c-7.367 7.366-11.424 17.16-11.424 27.578 0 10.417 4.057 20.211 11.423 27.577s17.16 11.423 27.577 11.423zm-12.02-51.021c3.313-3.314 7.667-4.971 12.021-4.971s8.707 1.657 12.021 4.971c6.629 6.628 6.629 17.413 0 24.042-6.627 6.629-17.413 6.628-24.042 0-3.211-3.211-4.979-7.48-4.979-12.021-.001-4.541 1.767-8.81 4.979-12.021z"/><path d="m102.558 370.442c-10.417 0-20.211 4.057-27.577 11.423s-11.423 17.16-11.423 27.577 4.057 20.211 11.423 27.578c7.366 7.366 17.16 11.422 27.577 11.422s20.211-4.057 27.576-11.422c7.367-7.366 11.424-17.16 11.424-27.578 0-10.417-4.057-20.211-11.423-27.577s-17.16-11.423-27.577-11.423zm12.021 51.021c-.001 0-.001 0 0 0-6.628 6.629-17.415 6.629-24.042 0-6.629-6.628-6.629-17.413 0-24.042 3.313-3.314 7.667-4.971 12.021-4.971s8.707 1.657 12.021 4.971c3.211 3.211 4.979 7.48 4.979 12.021s-1.768 8.81-4.979 12.021z"/><path d="m409.442 370.442c-10.417 0-20.211 4.057-27.576 11.423-7.367 7.366-11.424 17.16-11.424 27.577 0 10.418 4.057 20.212 11.423 27.578s17.16 11.422 27.577 11.422 20.211-4.057 27.577-11.422c15.206-15.206 15.206-39.949 0-55.155-7.366-7.366-17.16-11.423-27.577-11.423zm12.021 51.021c-6.627 6.629-17.414 6.629-24.041 0 0 0 0 0-.001 0-3.211-3.211-4.979-7.48-4.979-12.021s1.768-8.81 4.979-12.021c3.313-3.314 7.667-4.971 12.021-4.971s8.707 1.657 12.021 4.971c6.629 6.629 6.629 17.413 0 24.042z"/><path d="m102.558 141.558c10.417 0 20.211-4.057 27.576-11.423 7.367-7.366 11.424-17.16 11.424-27.577 0-10.418-4.057-20.212-11.423-27.578s-17.16-11.422-27.577-11.422-20.211 4.057-27.578 11.422c-15.206 15.206-15.206 39.949 0 55.155 7.367 7.366 17.161 11.423 27.578 11.423zm-12.021-51.021c3.313-3.314 7.667-4.971 12.021-4.971s8.707 1.657 12.021 4.971c3.211 3.211 4.979 7.48 4.979 12.021s-1.768 8.81-4.979 12.021c-6.627 6.629-17.414 6.629-24.041 0-6.63-6.629-6.63-17.413-.001-24.042z"/><path d="m381.173 328.503c0-2.917-1.159-5.715-3.222-7.778l-6.68-6.679c2.876-5.679 5.32-11.555 7.316-17.582h9.413c6.075 0 11-4.925 11-11v-58.929c0-6.075-4.925-11-11-11h-9.412c-1.996-6.026-4.441-11.902-7.316-17.582l6.68-6.679c2.062-2.063 3.222-4.861 3.222-7.778s-1.159-5.715-3.222-7.778l-41.669-41.668c-4.297-4.296-11.26-4.296-15.557 0l-6.795 6.795c-5.645-2.828-11.48-5.232-17.467-7.195v-9.65c0-6.075-4.925-11-11-11h-58.928c-6.075 0-11 4.925-11 11v9.881c-5.906 1.974-11.665 4.379-17.232 7.197l-7.029-7.029c-4.296-4.295-11.261-4.295-15.557 0l-41.669 41.668c-2.062 2.063-3.222 4.861-3.222 7.778s1.159 5.715 3.222 7.778l7.145 7.144c-2.774 5.537-5.141 11.255-7.082 17.117h-10.112c-6.075 0-11 4.925-11 11v58.929c0 6.075 4.925 11 11 11h10.111c1.941 5.862 4.308 11.581 7.082 17.117l-7.145 7.144c-2.062 2.063-3.222 4.861-3.222 7.778s1.159 5.715 3.222 7.778l41.669 41.669c4.297 4.296 11.26 4.296 15.557 0l7.029-7.029c5.567 2.818 11.326 5.223 17.232 7.197v9.883c0 6.075 4.925 11 11 11h58.928c6.075 0 11-4.925 11-11v-9.649c5.986-1.962 11.823-4.367 17.467-7.195l6.795 6.795c4.297 4.296 11.26 4.296 15.557 0l41.669-41.669c2.063-2.063 3.222-4.861 3.222-7.779zm-21.462-45.784c-2.497 9.691-6.37 18.998-11.51 27.66-2.565 4.324-1.873 9.836 1.682 13.392l4.733 4.733-26.112 26.113-4.823-4.824c-3.543-3.542-9.032-4.245-13.351-1.706-8.637 5.075-17.915 8.895-27.578 11.353-4.875 1.24-8.288 5.63-8.288 10.66v6.9h-36.928v-7.081c0-5.005-3.379-9.38-8.223-10.644-9.584-2.501-18.783-6.345-27.342-11.424-4.327-2.567-9.838-1.873-13.393 1.681l-5.083 5.083-26.112-26.113 5.173-5.172c3.542-3.542 4.244-9.031 1.706-13.351-5.023-8.55-8.816-17.722-11.274-27.261-1.253-4.859-5.635-8.255-10.652-8.255h-7.336v-36.929h7.336c5.018 0 9.399-3.396 10.652-8.255 2.458-9.539 6.251-18.711 11.274-27.261 2.538-4.319 1.836-9.808-1.706-13.351l-5.173-5.173 26.112-26.112 5.083 5.083c3.555 3.555 9.067 4.247 13.393 1.681 8.559-5.079 17.758-8.923 27.342-11.424 4.844-1.264 8.223-5.638 8.223-10.644v-7.078h36.928v6.9c0 5.031 3.413 9.42 8.288 10.661 9.661 2.458 18.939 6.277 27.578 11.353 4.318 2.538 9.807 1.836 13.351-1.706l4.823-4.824 26.112 26.112-4.733 4.733c-3.555 3.555-4.247 9.068-1.682 13.392 5.14 8.662 9.013 17.968 11.51 27.66 1.253 4.859 5.635 8.255 10.652 8.255h6.637v36.929h-6.637c-5.017-.001-9.399 3.395-10.652 8.254z"/></g></g><g/><g/><g/><g/><g/><g/><g/><g/><g/><g/><g/><g/><g/><g/><g/></svg>