<svg id="Capa_1" enable-background="new 0 0 512 512" viewBox="0 0 512 512" xmlns="http://www.w3.org/2000/svg" fill="#E6ECF2"><g><path d="m501 398h-11.794v-225.923c0-29.818-24.259-54.077-54.077-54.077h-50.145v22h50.145c17.687 0 32.077 14.39 32.077 32.077v225.923h-422.476v-225.923c0-17.687 14.39-32.077 32.078-32.077h50.177v-22h-50.177c-29.818 0-54.077 24.259-54.077 54.077v225.923h-11.731c-6.075 0-11 4.925-11 11v48c0 30.327 24.673 55 55 55h402c30.327 0 55-24.673 55-55v-48c0-6.075-4.925-11-11-11zm-178.471 22c-4.541 12.803-16.768 22-31.108 22h-70.906c-14.34 0-26.567-9.197-31.108-22zm167.471 37c0 18.196-14.804 33-33 33h-402c-18.196 0-33-14.804-33-33v-37h144.622c5.11 25.074 27.332 44 53.893 44h70.906c26.561 0 48.783-18.926 53.893-44h144.686z"/><g fill="#0496FF"><path d="m311.551 121.829-71.769-41.656c-6.181-3.587-13.57-3.601-19.766-.034-6.194 3.567-9.893 9.964-9.893 17.112v83.312c0 7.148 3.698 13.545 9.893 17.112 3.087 1.778 6.47 2.666 9.854 2.666 3.405 0 6.811-.9 9.912-2.7l71.769-41.656c6.157-3.574 9.833-9.958 9.833-17.078s-3.676-13.504-9.833-17.078zm-79.427 54.819v-75.482l65.024 37.741z"/><path d="m384.984 100.206h-9.018c-1.925-5.784-4.272-11.426-7.026-16.884l6.4-6.399c2.063-2.063 3.222-4.861 3.222-7.778s-1.159-5.715-3.222-7.778l-40.722-40.722c-4.296-4.296-11.261-4.296-15.557 0l-6.513 6.513c-5.422-2.708-11.026-5.016-16.77-6.908v-9.25c0-6.075-4.925-11-11-11h-57.589c-6.075 0-11 4.925-11 11v9.477c-5.666 1.903-11.194 4.211-16.542 6.909l-6.741-6.742c-4.297-4.296-11.261-4.296-15.557 0l-40.722 40.722c-2.062 2.063-3.222 4.861-3.222 7.778s1.159 5.715 3.222 7.778l6.854 6.854c-2.655 5.316-4.926 10.806-6.797 16.429h-9.701c-6.075 0-11 4.925-11 11v57.589c0 6.075 4.925 11 11 11h9.701c1.871 5.623 4.142 11.113 6.797 16.429l-6.854 6.854c-2.063 2.063-3.222 4.861-3.222 7.778s1.159 5.715 3.222 7.778l40.722 40.722c4.296 4.296 11.261 4.296 15.557 0l6.741-6.742c5.348 2.697 10.875 5.006 16.542 6.909v9.478c0 6.075 4.925 11 11 11h57.589c6.075 0 11-4.925 11-11v-9.249c5.744-1.893 11.348-4.201 16.77-6.908l6.513 6.513c4.296 4.295 11.26 4.295 15.557 0l40.722-40.722c2.063-2.063 3.222-4.861 3.222-7.778s-1.159-5.715-3.222-7.778l-6.4-6.399c2.753-5.458 5.101-11.1 7.026-16.884h9.018c6.075 0 11-4.925 11-11v-57.589c0-6.076-4.924-11-11-11zm-11 57.588h-6.236c-5.018 0-9.4 3.396-10.652 8.255-2.435 9.449-6.21 18.521-11.221 26.965-2.566 4.324-1.874 9.837 1.681 13.392l4.45 4.449-25.166 25.166-4.537-4.537c-3.543-3.542-9.031-4.243-13.351-1.706-8.421 4.948-17.467 8.671-26.886 11.067-4.875 1.24-8.288 5.63-8.288 10.661v6.494h-35.589v-6.67c0-5.005-3.379-9.379-8.222-10.644-9.344-2.438-18.312-6.186-26.656-11.138-4.325-2.565-9.836-1.874-13.392 1.682l-4.791 4.791-25.166-25.166 4.879-4.878c3.542-3.542 4.244-9.031 1.706-13.351-4.897-8.334-8.595-17.276-10.992-26.577-1.252-4.859-5.634-8.255-10.652-8.255h-6.919v-35.589h6.919c5.018 0 9.4-3.396 10.652-8.255 2.397-9.301 6.095-18.243 10.992-26.577 2.538-4.319 1.837-9.809-1.706-13.351l-4.878-4.878 25.166-25.166 4.791 4.791c3.555 3.555 9.068 4.248 13.392 1.682 8.344-4.952 17.312-8.699 26.656-11.138 4.843-1.264 8.222-5.638 8.222-10.644v-6.669h35.589v6.493c0 5.031 3.413 9.42 8.288 10.661 9.418 2.396 18.464 6.12 26.886 11.067 4.319 2.538 9.808 1.837 13.351-1.706l4.537-4.537 25.166 25.166-4.45 4.449c-3.555 3.555-4.247 9.068-1.681 13.392 5.011 8.444 8.786 17.516 11.221 26.965 1.252 4.859 5.634 8.255 10.652 8.255h6.236v35.589z"/></g></g><g/><g/><g/><g/><g/><g/><g/><g/><g/><g/><g/><g/><g/><g/><g/></svg>