<svg id="Capa_1" enable-background="new 0 0 512 512" viewBox="0 0 512 512" xmlns="http://www.w3.org/2000/svg" fill="#E6ECF2"><g><path d="m412.99 147.539-4.6 21.514c16.533 3.535 28.533 18.391 28.533 35.325v249.492c0 19.923-16.209 36.131-36.132 36.131h-342.659c-19.923-.001-36.132-16.209-36.132-36.132v-249.492c0-19.923 16.209-36.131 36.132-36.131h226.505v-22h-226.505c-32.054 0-58.132 26.077-58.132 58.131v249.492c0 32.053 26.078 58.131 58.132 58.131h342.66c32.054 0 58.132-26.078 58.132-58.131v-249.492c0-27.244-19.318-51.148-45.934-56.838z"/><g fill="#0496FF"><path d="m305.312 305.691-108.5-62.975c-8.481-4.923-18.62-4.941-27.119-.047s-13.573 13.671-13.573 23.479v125.95c0 9.808 5.074 18.584 13.573 23.479 4.236 2.439 8.878 3.658 13.521 3.658 4.672 0 9.345-1.236 13.599-3.705l108.5-62.975c8.449-4.903 13.493-13.663 13.493-23.432-.001-9.769-5.045-18.529-13.494-23.432zm-11.043 27.836-108.5 62.975c-2.218 1.287-4.146.558-5.098.009-.953-.548-2.552-1.852-2.552-4.413v-125.95c0-2.562 1.599-3.865 2.552-4.414.561-.323 1.46-.708 2.557-.708.767 0 1.629.188 2.541.717l108.5 62.975c2.207 1.281 2.536 3.31 2.536 4.404 0 1.096-.329 3.125-2.536 4.405z"/><path d="m506.769 43.349c-15.434-9.504-28.613-22.685-38.116-38.116-2.003-3.253-5.548-5.233-9.367-5.233-3.818 0-7.364 1.98-9.366 5.232-9.505 15.433-22.685 28.613-38.116 38.115-3.252 2.002-5.232 5.548-5.232 9.367 0 3.818 1.98 7.364 5.232 9.366 15.432 9.503 28.612 22.684 38.116 38.117 2.002 3.251 5.548 5.232 9.366 5.232 3.819 0 7.364-1.98 9.366-5.232 9.503-15.432 22.683-28.612 38.115-38.115 3.252-2.002 5.232-5.548 5.232-9.367.001-3.819-1.979-7.364-5.23-9.366zm-47.483 31.955c-6.632-8.359-14.23-15.958-22.589-22.589 8.358-6.631 15.957-14.23 22.589-22.589 6.631 8.358 14.23 15.957 22.589 22.589-8.359 6.631-15.958 14.23-22.589 22.589z"/><path d="m418.107 147.88c-24.396-15.024-45.23-35.859-60.253-60.254-2.002-3.252-5.547-5.232-9.366-5.232-3.818 0-7.364 1.98-9.366 5.232-15.023 24.396-35.858 45.231-60.254 60.253-3.252 2.002-5.232 5.548-5.232 9.367 0 3.818 1.98 7.364 5.232 9.366 24.396 15.023 45.23 35.859 60.254 60.255 2.002 3.251 5.548 5.232 9.366 5.232 3.819 0 7.364-1.98 9.366-5.232 15.022-24.396 35.857-45.23 60.253-60.253 3.252-2.002 5.232-5.548 5.232-9.367.001-3.819-1.98-7.365-5.232-9.367zm-69.619 53.556c-12.386-16.841-27.35-31.805-44.19-44.191 16.841-12.385 31.805-27.349 44.19-44.19 12.385 16.841 27.349 31.805 44.189 44.191-16.84 12.385-31.804 27.349-44.189 44.19z"/></g></g><g/><g/><g/><g/><g/><g/><g/><g/><g/><g/><g/><g/><g/><g/><g/></svg>