<svg id="Capa_1" enable-background="new 0 0 512 512" viewBox="0 0 512 512" xmlns="http://www.w3.org/2000/svg" fill="#E6ECF2"><g><g><path d="m194.38 66h23.331c6.075 0 11-4.925 11-11s-4.925-11-11-11h-23.331c-6.075 0-11 4.925-11 11s4.925 11 11 11z"/><path d="m105.43 66h23.331c6.075 0 11-4.925 11-11s-4.925-11-11-11h-23.331c-6.075 0-11 4.925-11 11s4.924 11 11 11z"/><path d="m283.33 66h23.331c6.075 0 11-4.925 11-11s-4.925-11-11-11h-23.331c-6.075 0-11 4.925-11 11s4.925 11 11 11z"/><path d="m194.38 334c-6.075 0-11 4.925-11 11s4.925 11 11 11h23.331c6.075 0 11-4.925 11-11s-4.925-11-11-11z"/><path d="m105.43 334c-6.075 0-11 4.925-11 11s4.925 11 11 11h23.331c6.075 0 11-4.925 11-11s-4.925-11-11-11z"/><path d="m401.091 0h-390.091c-6.075 0-11 4.925-11 11v378c0 6.075 4.925 11 11 11h257.434v-22h-246.434v-22h17.811c6.075 0 11-4.925 11-11s-4.925-11-11-11h-17.811v-22h280.718v-22h-280.718v-180h368.091v159.504h22v-258.504c0-6.075-4.925-11-11-11zm-11 44h-17.811c-6.075 0-11 4.925-11 11s4.925 11 11 11h17.811v22h-368.091v-22h17.811c6.075 0 11-4.925 11-11s-4.925-11-11-11h-17.811v-22h368.091z"/></g><g fill="#0496FF"><path d="m269.27 200c0-7.477-3.861-14.182-10.328-17.936l-65.651-38.105c-6.493-3.768-14.252-3.781-20.759-.035-6.505 3.746-10.389 10.464-10.389 17.971v76.21c0 7.507 3.884 14.225 10.389 17.971 3.242 1.867 6.796 2.8 10.35 2.8 3.576 0 7.152-.945 10.409-2.835l65.651-38.105c6.466-3.754 10.328-10.459 10.328-17.936zm-85.127 35.913v-71.826l61.875 35.913z"/><path d="m384.673 257.345c-70.209 0-127.328 57.119-127.328 127.327s57.119 127.328 127.328 127.328c70.208 0 127.327-57.119 127.327-127.328s-57.119-127.327-127.327-127.327zm0 232.655c-58.078 0-105.328-47.25-105.328-105.328s47.25-105.327 105.328-105.327c58.077 0 105.327 47.25 105.327 105.327s-47.25 105.328-105.327 105.328z"/><path d="m375.806 338.024c-.039-.101-.078-.202-.119-.302-2.013-4.891-6.729-8.05-12.018-8.05-.005 0-.01 0-.015 0-5.295.006-10.01 3.177-12.014 8.078-.033.082-.065.164-.097.247l-33.044 86.76c-2.163 5.677.687 12.032 6.364 14.195 5.676 2.162 12.033-.687 14.194-6.365l4.65-12.208h39.662l4.595 12.176c1.663 4.405 5.849 7.12 10.294 7.119 1.29 0 2.604-.229 3.882-.711 5.684-2.145 8.553-8.492 6.408-14.175zm-23.719 60.356 11.543-30.307 11.437 30.307z"/><path d="m440.565 329.672c-6.075 0-11 4.925-11 11v88c0 6.075 4.925 11 11 11s11-4.925 11-11v-88c0-6.075-4.924-11-11-11z"/></g></g><g/><g/><g/><g/><g/><g/><g/><g/><g/><g/><g/><g/><g/><g/><g/></svg>