<svg id="Layer_1" enable-background="new 0 0 512 512" viewBox="0 0 512 512" xmlns="http://www.w3.org/2000/svg" fill="#052438"><g><g><path d="m283.192 212.02c10.351-15.392 22.859-33.706 37.178-54.436 22.219-32.167 19.625-55.779 13.535-69.922-8.661-20.115-29.896-34.164-58.261-38.542-25.728-3.973-47.172.784-62.015 13.75-13.941 12.179-21.084 30.83-20.658 53.935.561 30.342 11.988 66.461 30.568 96.618 2.079 3.374 5.684 5.231 9.375 5.231 1.968 0 3.961-.528 5.76-1.636 5.172-3.187 6.782-9.963 3.595-15.135-16.605-26.951-26.812-58.907-27.302-85.483-.303-16.408 4.24-29.189 13.136-36.961 9.798-8.56 25.077-11.526 44.184-8.577 20.717 3.199 35.811 12.493 41.411 25.5 5.582 12.965 1.629 29.811-11.43 48.718-14.371 20.805-26.931 39.196-37.332 54.662-3.39 5.042-2.052 11.876 2.989 15.267 5.043 3.391 11.878 2.052 15.267-2.989z"/><path d="m230.902 290.495c-5.346-2.886-12.02-.891-14.905 4.455-15.037 27.855-37.608 52.672-60.379 66.385-14.059 8.466-27.397 10.924-38.578 7.105-12.312-4.205-22.52-15.954-29.519-33.976-7.588-19.541-7.086-37.26 1.379-48.614 8.436-11.316 24.998-16.318 47.906-14.46 25.212 2.044 47.419 3.727 66.005 5 6.05.412 11.311-4.161 11.726-10.222.416-6.061-4.161-11.311-10.222-11.726-18.494-1.268-40.609-2.943-65.731-4.979-38.969-3.163-58.119 10.892-67.321 23.237-13.09 17.558-14.639 42.973-4.249 69.728 9.425 24.267 24.265 40.46 42.916 46.831 5.781 1.975 11.8 2.956 17.985 2.956 12.557 0 25.789-4.046 39.053-12.033 25.997-15.656 51.563-43.612 68.389-74.782 2.886-5.346.892-12.019-4.455-14.905z"/><path d="m444.44 315.872c-3.577-18.163-16.157-33.675-36.38-44.859-26.558-14.686-63.546-22.84-98.958-21.836-6.073.174-10.854 5.237-10.681 11.31.174 6.073 5.215 10.853 11.31 10.681 31.642-.899 64.42 6.235 87.682 19.097 14.361 7.942 23.159 18.267 25.441 29.857 2.514 12.766-2.557 27.479-14.665 42.552-13.128 16.343-28.73 24.771-42.79 23.113-14.019-1.648-26.632-13.494-36.476-34.257-10.819-22.823-20.466-42.896-28.673-59.663-2.671-5.457-9.259-7.717-14.716-5.044-5.457 2.67-7.715 9.259-5.044 14.716 8.166 16.684 17.773 36.674 28.554 59.415 16.748 35.326 38.494 44.884 53.787 46.682 2.018.237 4.042.355 6.072.354 19.861-.001 40.13-11.24 56.437-31.539 16.305-20.293 22.909-41.241 19.1-60.579z"/><path d="m256 0c-141.159 0-256 114.842-256 256s114.841 256 256 256 256-114.841 256-256-114.841-256-256-256zm0 490c-129.028 0-234-104.972-234-234s104.972-234 234-234 234 104.972 234 234-104.972 234-234 234z"/><path d="m256.003 245.001h-.007c-6.075 0-10.996 4.925-10.996 11s4.928 11 11.003 11 11-4.925 11-11-4.924-11-11-11z"/></g><g fill="#0496FF"><path d="m256 197.016c-32.524 0-58.984 26.46-58.984 58.984 0 32.523 26.46 58.983 58.984 58.983s58.984-26.46 58.984-58.983c0-32.524-26.46-58.984-58.984-58.984zm0 95.968c-20.393 0-36.984-16.591-36.984-36.983 0-20.393 16.591-36.984 36.984-36.984s36.984 16.591 36.984 36.984c0 20.392-16.591 36.983-36.984 36.983z"/><path d="m167.931 137.056c4.883-3.615 5.91-10.503 2.295-15.386s-10.503-5.911-15.386-2.295c-32.478 24.046-55.375 58.974-64.474 98.348-1.368 5.919 2.322 11.826 8.241 13.194.833.192 1.666.285 2.486.285 5.005 0 9.533-3.44 10.708-8.526 7.921-34.278 27.855-64.685 56.13-85.62z"/><path d="m182.358 174.891c-4.516-4.066-11.47-3.701-15.535.813-10.84 12.039-19.011 25.91-24.285 41.228-1.978 5.744 1.076 12.004 6.82 13.982 1.186.408 2.394.602 3.582.602 4.565 0 8.831-2.864 10.4-7.422 4.307-12.51 10.979-23.837 19.832-33.668 4.065-4.514 3.701-11.47-.814-15.535z"/><path d="m299.241 397.542c-33.648 10.278-69.947 8.22-102.215-5.799-5.572-2.423-12.052.133-14.472 5.706-2.421 5.572.134 12.051 5.706 14.472 21.528 9.353 44.612 14.071 67.759 14.071 16.707 0 33.449-2.459 49.65-7.409 5.81-1.775 9.081-7.924 7.306-13.734s-7.926-9.081-13.734-7.307z"/><path d="m255.988 376.013c7.648 0 15.302-.739 22.91-2.218 5.963-1.159 9.858-6.933 8.699-12.897-1.16-5.964-6.935-9.857-12.897-8.699-12.986 2.524-26.134 2.409-39.074-.341-5.944-1.26-11.784 2.531-13.047 8.473s2.53 11.784 8.473 13.047c8.265 1.757 16.597 2.635 24.936 2.635z"/><path d="m424.901 236.705c-4.586-40.15-23.386-77.443-52.935-105.01-4.442-4.145-11.403-3.903-15.547.54-4.144 4.442-3.902 11.403.54 15.547 25.725 23.999 42.091 56.465 46.084 91.42.641 5.612 5.398 9.752 10.915 9.752.417 0 .838-.023 1.262-.072 6.037-.689 10.371-6.141 9.681-12.177z"/><path d="m346.565 177.273c-3.986-4.585-10.933-5.071-15.519-1.085-4.585 3.986-5.071 10.934-1.085 15.519 8.68 9.985 15.154 21.427 19.242 34.009 1.511 4.649 5.823 7.604 10.459 7.604 1.126 0 2.272-.174 3.401-.541 5.778-1.877 8.94-8.083 7.063-13.861-5.005-15.407-12.932-29.418-23.561-41.645z"/></g></g><g/><g/><g/><g/><g/><g/><g/><g/><g/><g/><g/><g/><g/><g/><g/></svg>