<svg id="Layer_1" enable-background="new 0 0 512 512" viewBox="0 0 512 512" xmlns="http://www.w3.org/2000/svg" fill="#E6ECF2"><g><g fill="#0496FF"><path d="m86.278 110.722c-4.296-4.295-11.261-4.295-15.557 0-4.295 4.296-4.295 11.261 0 15.557l3.722 3.721h-63.443c-6.075 0-11 4.925-11 11s4.925 11 11 11h63.443l-3.722 3.722c-4.295 4.296-4.295 11.261 0 15.557 2.148 2.147 4.963 3.222 7.778 3.222s5.63-1.074 7.778-3.222l22.5-22.5c2.062-2.062 3.222-4.861 3.222-7.778s-1.159-5.716-3.222-7.778z"/><path d="m86.278 225.721c-4.296-4.295-11.261-4.295-15.557 0-4.295 4.296-4.295 11.261 0 15.557l3.722 3.722h-63.443c-6.075 0-11 4.925-11 11s4.925 11 11 11h63.443l-3.722 3.722c-4.295 4.296-4.295 11.261 0 15.557 2.148 2.147 4.963 3.222 7.778 3.222s5.63-1.074 7.778-3.222l22.5-22.5c2.062-2.062 3.222-4.861 3.222-7.778s-1.159-5.716-3.222-7.778z"/><path d="m86.278 340.721c-4.296-4.295-11.261-4.295-15.557 0-4.295 4.296-4.295 11.261 0 15.557l3.722 3.722h-63.443c-6.075 0-11 4.925-11 11s4.925 11 11 11h63.443l-3.722 3.722c-4.295 4.296-4.295 11.261 0 15.557 2.148 2.147 4.963 3.222 7.778 3.222s5.63-1.074 7.778-3.222l22.5-22.5c2.062-2.062 3.222-4.861 3.222-7.778s-1.159-5.716-3.222-7.778z"/><path d="m311.636 191.645h36.578c23.437 0 42.503-19.067 42.503-42.504s-19.067-42.503-42.503-42.503c-13.166 0-25.796 6.248-33.788 16.714-3.687 4.828-2.762 11.731 2.067 15.418 4.828 3.688 11.731 2.762 15.418-2.066 3.856-5.051 9.951-8.065 16.303-8.065 11.306 0 20.503 9.197 20.503 20.503s-9.198 20.504-20.503 20.504h-36.578c-6.075 0-11 4.925-11 11s4.925 10.999 11 10.999z"/><path d="m453.065 164.639c-26.627 0-50.036 17.963-56.927 43.683-1.573 5.868 1.91 11.899 7.778 13.472 5.868 1.575 11.9-1.909 13.472-7.778 4.319-16.118 18.99-27.376 35.677-27.376 20.366 0 36.935 16.569 36.935 36.936s-16.569 36.935-36.935 36.935h-141.429c-6.075 0-11 4.925-11 11s4.925 11 11 11h141.429c32.497 0 58.935-26.438 58.935-58.935s-26.438-58.937-58.935-58.937z"/><path d="m402.928 309.545h-91.292c-6.075 0-11 4.925-11 11s4.925 11 11 11h91.292c14.286 0 25.909 11.622 25.909 25.908s-11.623 25.908-25.909 25.908c-9.227 0-17.824-4.964-22.437-12.954-3.037-5.262-9.766-7.064-15.026-4.026-5.262 3.037-7.064 9.765-4.027 15.026 8.53 14.775 24.428 23.954 41.49 23.954 26.417 0 47.909-21.491 47.909-47.908s-21.492-47.908-47.909-47.908z"/></g><path d="m266.318 0h-120c-6.075 0-11 4.925-11 11v490c0 6.075 4.925 11 11 11h120c6.075 0 11-4.925 11-11v-490c0-6.075-4.924-11-11-11zm-109 22h28v468h-28zm98 468h-48v-468h48z"/></g><g/><g/><g/><g/><g/><g/><g/><g/><g/><g/><g/><g/><g/><g/><g/></svg>