<svg id="Layer_1" enable-background="new 0 0 512 512" viewBox="0 0 512 512" xmlns="http://www.w3.org/2000/svg" fill="#052438"><g><g fill="#0496FF"><path d="m264.293 424.112c-2.089-2.396-5.112-3.771-8.292-3.771-3.179 0-6.202 1.375-8.291 3.771-.72.824-1.49 1.699-2.299 2.617-10.576 12-26.559 30.135-26.559 47.601 0 20.483 16.665 37.147 37.148 37.147s37.147-16.664 37.147-37.147c0-17.464-15.98-35.598-26.555-47.598-.808-.919-1.579-1.794-2.299-2.62zm-8.292 65.366c-8.353 0-15.148-6.795-15.148-15.147 0-7.024 8.068-17.813 15.148-26.228 7.079 8.413 15.147 19.203 15.147 26.228 0 8.352-6.794 15.147-15.147 15.147z"/><path d="m324.71 287.838c-2.671-6.701-4.012-10.064-.536-16.536 2.875-5.353.866-12.021-4.485-14.896-5.353-2.875-12.022-.866-14.896 4.485-8.327 15.504-3.814 26.825-.52 35.092 2.682 6.729 4.028 10.105.52 16.638-2.875 5.353-.866 12.021 4.485 14.896 1.656.89 3.438 1.312 5.195 1.312 3.921 0 7.715-2.102 9.7-5.797 8.361-15.565 3.839-26.91.537-35.194z"/><path d="m246.299 302.621c-2.875 5.353-.866 12.021 4.485 14.896 1.656.89 3.438 1.312 5.195 1.312 3.921 0 7.715-2.102 9.7-5.797 8.36-15.564 3.838-26.909.536-35.193-2.672-6.701-4.012-10.064-.536-16.536 2.875-5.352.866-12.021-4.485-14.896-5.353-2.875-12.021-.865-14.896 4.485-8.328 15.504-3.814 26.825-.52 35.092 2.683 6.728 4.029 10.105.521 16.637z"/><path d="m207.186 271.302c2.875-5.353.866-12.021-4.485-14.896-5.353-2.875-12.022-.866-14.896 4.485-8.327 15.504-3.814 26.825-.52 35.092 2.682 6.729 4.028 10.105.52 16.638-2.875 5.353-.866 12.021 4.485 14.896 1.656.89 3.438 1.312 5.195 1.312 3.921 0 7.715-2.102 9.7-5.797 8.36-15.564 3.838-26.909.536-35.193-2.67-6.702-4.011-10.066-.535-16.537z"/></g><g><path d="m323.635 389.217c-6.039.602-12.584 2.228-18.779 4.596-11.479-22.531-27.512-41.364-43.355-50.513-3.402-1.965-7.598-1.965-11 0-15.843 9.147-31.875 27.981-43.355 50.513-6.195-2.368-12.739-3.994-18.778-4.596-5.656-.57-10.796 3.262-11.887 8.831-6.054 30.908 1.587 64.913 19.465 86.633 14.709 17.872 35.477 27.319 60.054 27.319s45.344-9.446 60.056-27.318c17.878-21.72 25.52-55.725 19.466-86.634-1.091-5.57-6.255-9.4-11.887-8.831zm-24.565 81.482c-10.542 12.808-25.033 19.301-43.07 19.301s-32.528-6.494-43.07-19.301c-11.807-14.344-17.789-35.942-16.32-57.297 3.629 1.19 7.192 2.754 10.286 4.559 2.728 1.59 6.007 1.932 9.002.938 2.997-.993 5.422-3.227 6.659-6.13 8.348-19.596 21.018-37.134 33.443-46.703 12.427 9.57 25.097 27.108 33.443 46.702 1.237 2.904 3.662 5.138 6.659 6.131 2.992.992 6.273.652 9.002-.938 3.094-1.805 6.657-3.368 10.287-4.56 1.469 21.356-4.514 42.955-16.321 57.298z"/><path d="m423.419 155.977-88.639-80.98v-63.997c0-6.075-4.925-11-11-11h-135.56c-6.075 0-11 4.925-11 11v63.997l-88.64 80.979c-2.28 2.085-3.58 5.032-3.58 8.122v45.999c0 6.075 4.925 11 11 11h320c6.075 0 11-4.925 11-11v-45.999c0-3.09-1.3-6.037-3.581-8.121zm-230.93-65.13h127.022l68.139 62.251h-263.301zm120.291-68.847v46.847h-113.56v-46.847zm-205.78 177.097v-23.999h298v23.999z"/></g></g><g/><g/><g/><g/><g/><g/><g/><g/><g/><g/><g/><g/><g/><g/><g/></svg>