<svg id="Layer_1" enable-background="new 0 0 512.003 512.003" viewBox="0 0 512.003 512.003" xmlns="http://www.w3.org/2000/svg" fill="#E6ECF2"><g><g><path d="m217.108 283.703c5.344-4.669 11.655-13.481 11.37-28.952-.265-14.368-5.529-31.383-14.105-45.649 5.604 3.802 11.873 8.098 18.691 12.808 9.925 6.855 18.454 9.105 25.374 9.105 4.766 0 8.77-1.067 11.939-2.432 11.011-4.741 18.643-15.991 20.939-30.865 2.614-16.935-2.697-27.198-7.614-32.825-4.669-5.345-13.461-11.672-28.952-11.37-14.368.265-31.383 5.529-45.649 14.105 3.79-5.585 8.086-11.854 12.808-18.691 11.577-16.76 10.019-29.542 6.673-37.312-4.741-11.011-15.991-18.643-30.865-20.939-16.936-2.615-27.198 2.698-32.825 7.614-5.344 4.669-11.655 13.481-11.37 28.952.266 14.368 5.529 31.383 14.104 45.648-5.607-3.805-11.876-8.1-18.69-12.807-16.76-11.577-29.542-10.019-37.312-6.673-11.011 4.741-18.643 15.991-20.939 30.865-2.615 16.935 2.697 27.198 7.613 32.825 4.566 5.227 13.097 11.379 27.944 11.379.333 0 .668-.003 1.007-.009 14.369-.266 31.384-5.53 45.649-14.105-3.786 5.579-8.081 11.849-12.808 18.691-11.577 16.76-10.019 29.542-6.673 37.312 4.741 11.011 15.991 18.644 30.866 20.94 3.088.477 5.955.69 8.612.69 11.912-.001 19.612-4.285 24.213-8.305zm2.888-96.954c11.025-6.73 24.498-11.033 35.161-11.23 3.867-.074 9.086.539 11.978 3.848 2.605 2.982 3.472 8.308 2.439 14.995-1.083 7.014-4.109 12.384-7.897 14.015-3.77 1.625-9.492.002-16.109-4.567-8.235-5.689-15.686-10.786-22.144-15.146-1.214-.82-2.533-1.365-3.883-1.65.152-.084.304-.173.455-.265zm-40.63-71.882c2.162-1.889 5.555-2.863 9.807-2.863 1.612 0 3.349.14 5.188.424 7.014 1.083 12.384 4.109 14.015 7.897 1.624 3.772.002 9.493-4.568 16.109-5.708 8.264-10.804 15.714-15.146 22.144-.82 1.214-1.365 2.533-1.65 3.883-.084-.153-.171-.305-.264-.456-6.729-11.024-11.033-24.498-11.23-35.161-.071-3.868.538-9.086 3.848-11.977zm-17.362 80.386c-11.024 6.729-24.498 11.033-35.161 11.23-3.871.062-9.087-.539-11.978-3.848-2.605-2.982-3.471-8.307-2.439-14.995 1.083-7.014 4.109-12.384 7.897-14.015.955-.411 2.034-.614 3.222-.614 3.503 0 7.946 1.769 12.887 5.182 8.23 5.685 15.68 10.781 22.143 15.146 1.214.82 2.533 1.365 3.884 1.65-.152.084-.305.172-.455.264zm11.844-4.873c2.558-3.787 2.441-8.594.084-12.191 1.106.362 2.267.549 3.437.549 1.954 0 3.932-.521 5.721-1.613 2.691-1.643 4.427-4.257 5.031-7.116.815 1.495 1.991 2.822 3.499 3.84 3.788 2.558 8.595 2.442 12.191.084-.967 2.954-.683 6.297 1.063 9.159 1.643 2.691 4.257 4.427 7.117 5.031-1.495.815-2.822 1.991-3.841 3.499-2.558 3.787-2.441 8.595-.084 12.191-2.955-.967-6.298-.684-9.159 1.063-2.691 1.643-4.427 4.257-5.031 7.116-.815-1.495-1.991-2.822-3.5-3.841-3.787-2.557-8.594-2.441-12.191-.084.967-2.954.683-6.297-1.063-9.159-1.643-2.692-4.257-4.427-7.116-5.031 1.496-.813 2.824-1.989 3.842-3.497zm-.224 71.297c-1.624-3.772-.002-9.493 4.567-16.108 5.715-8.272 10.811-15.722 15.147-22.144.82-1.214 1.365-2.533 1.649-3.883.084.153.171.305.264.456 6.73 11.025 11.033 24.498 11.23 35.161.071 3.868-.538 9.086-3.848 11.978-2.982 2.605-8.307 3.471-14.994 2.439-7.013-1.084-12.384-4.111-14.015-7.899z"/><path d="m382 191.001c0-105.317-85.682-191-191-191s-191 85.682-191 191c0 91.438 64.586 168.074 150.535 186.686l-11.824 57.315h-35.211c-3.299 0-6.424 1.481-8.514 4.034l-22.5 27.5c-1.608 1.965-2.486 4.427-2.486 6.966v27.5c0 6.075 4.925 11 11 11h220c6.075 0 11-4.925 11-11v-27.5c0-2.539-.878-5-2.486-6.966l-22.5-27.5c-2.089-2.553-5.214-4.034-8.514-4.034h-35.21l-11.824-57.315c85.947-18.612 150.534-95.248 150.534-186.686zm-360 0c0-93.187 75.813-169 169-169s169 75.813 169 169-75.813 169-169 169-169-75.813-169-169zm268 286.427v12.573h-198v-12.573l16.713-20.427h164.574zm-69.174-42.427h-59.653l11.122-53.91c6.155.601 12.395.909 18.705.909s12.55-.308 18.705-.909z"/></g><g fill="#0496FF"><path d="m191 155.581c-19.53 0-35.419 15.889-35.419 35.419s15.889 35.42 35.419 35.42 35.419-15.889 35.419-35.419-15.889-35.42-35.419-35.42zm0 48.839c-7.399 0-13.419-6.02-13.419-13.419s6.02-13.419 13.419-13.419 13.419 6.02 13.419 13.419-6.02 13.419-13.419 13.419z"/><path d="m191 45.001c-80.505 0-146 65.495-146 146s65.495 146 146 146 146-65.495 146-146-65.495-146-146-146zm0 270c-68.374 0-124-55.626-124-124s55.626-124 124-124 124 55.626 124 124-55.626 124-124 124z"/><path d="m411.514 111.06c9.239 4.126 17.377 5.59 24.651 5.59 10.009 0 18.38-2.774 25.711-5.204 11.386-3.773 20.379-6.754 34.638-.386 5.546 2.478 12.052-.011 14.529-5.559 2.477-5.547-.011-12.052-5.559-14.529-22.048-9.847-37.84-4.615-50.53-.409-11.348 3.762-20.312 6.732-34.47.409-5.549-2.478-12.052.011-14.53 5.558-2.475 5.548.013 12.053 5.56 14.53z"/><path d="m505.485 150.972c-22.049-9.847-37.841-4.614-50.53-.409-11.348 3.761-20.312 6.732-34.47.409-5.549-2.479-12.052.011-14.53 5.558-2.477 5.547.011 12.052 5.558 14.53 9.239 4.126 17.377 5.59 24.652 5.59 10.009 0 18.38-2.774 25.711-5.204 11.385-3.774 20.379-6.755 34.638-.387 5.546 2.478 12.052-.011 14.529-5.559 2.478-5.546-.01-12.05-5.558-14.528z"/><path d="m505.485 210.972c-22.048-9.847-37.84-4.614-50.53-.409-11.348 3.762-20.312 6.732-34.47.409-5.549-2.478-12.052.011-14.53 5.558-2.477 5.547.011 12.052 5.558 14.53 9.239 4.126 17.377 5.59 24.651 5.59 10.009 0 18.38-2.774 25.711-5.204 11.386-3.772 20.379-6.753 34.638-.386 5.546 2.478 12.052-.011 14.529-5.559 2.479-5.547-.009-12.051-5.557-14.529z"/><path d="m505.486 270.972c-22.05-9.848-37.842-4.614-50.53-.409-11.348 3.762-20.312 6.732-34.47.409-5.549-2.478-12.052.011-14.53 5.558-2.477 5.547.011 12.052 5.558 14.53 9.237 4.125 17.377 5.59 24.651 5.59 10.01 0 18.379-2.774 25.711-5.204 11.386-3.773 20.379-6.754 34.638-.386 5.548 2.479 12.052-.011 14.53-5.558 2.477-5.548-.011-12.052-5.558-14.53z"/></g></g><g/><g/><g/><g/><g/><g/><g/><g/><g/><g/><g/><g/><g/><g/><g/></svg>