<svg id="Layer_1" enable-background="new 0 0 512 512" viewBox="0 0 512 512" xmlns="http://www.w3.org/2000/svg" fill="#E6ECF2"><g><g><path d="m471 0h-430c-22.607 0-41 18.393-41 41v430c0 22.607 18.393 41 41 41h430c22.607 0 41-18.393 41-41v-430c0-22.607-18.393-41-41-41zm19 471c0 10.477-8.523 19-19 19h-430c-10.477 0-19-8.523-19-19v-430c0-10.477 8.523-19 19-19h430c10.477 0 19 8.523 19 19z"/><path d="m78.5 112c18.472 0 33.5-15.028 33.5-33.5s-15.028-33.5-33.5-33.5-33.5 15.028-33.5 33.5 15.028 33.5 33.5 33.5zm0-45c6.341 0 11.5 5.159 11.5 11.5s-5.159 11.5-11.5 11.5-11.5-5.159-11.5-11.5 5.159-11.5 11.5-11.5z"/><path d="m78.5 400c-18.472 0-33.5 15.028-33.5 33.5s15.028 33.5 33.5 33.5 33.5-15.028 33.5-33.5-15.028-33.5-33.5-33.5zm0 45c-6.341 0-11.5-5.159-11.5-11.5s5.159-11.5 11.5-11.5 11.5 5.159 11.5 11.5-5.159 11.5-11.5 11.5z"/><path d="m433.5 400.001c-18.472 0-33.5 15.028-33.5 33.5s15.028 33.5 33.5 33.5 33.5-15.028 33.5-33.5-15.028-33.5-33.5-33.5zm0 45c-6.341 0-11.5-5.159-11.5-11.5s5.159-11.5 11.5-11.5 11.5 5.159 11.5 11.5-5.159 11.5-11.5 11.5z"/><path d="m433.5 45.001c-18.472 0-33.5 15.028-33.5 33.5s15.028 33.5 33.5 33.5 33.5-15.028 33.5-33.5-15.028-33.5-33.5-33.5zm0 45c-6.341 0-11.5-5.159-11.5-11.5s5.159-11.5 11.5-11.5 11.5 5.159 11.5 11.5-5.159 11.5-11.5 11.5z"/><path d="m401.973 255.227c-1.86-26.393-18.419-47.041-44.294-55.233-8.715-2.759-17.745-3.893-26.576-3.539l28.135-28.135c2.158-2.158 3.322-5.115 3.215-8.165s-1.477-5.918-3.781-7.919c-19.978-17.348-46.286-20.24-70.377-7.735-8.113 4.211-15.3 9.794-21.294 16.289v-39.79c0-3.052-1.268-5.967-3.5-8.047-2.232-2.081-5.229-3.147-8.273-2.926-26.393 1.86-47.042 18.419-55.233 44.295-2.759 8.714-3.893 17.744-3.539 26.575l-28.135-28.135c-2.158-2.157-5.12-3.323-8.165-3.215-3.05.107-5.918 1.477-7.919 3.781-17.348 19.978-20.239 46.287-7.736 70.376 4.211 8.113 9.794 15.301 16.289 21.295h-39.79c-3.052 0-5.966 1.268-8.047 3.5s-3.141 5.229-2.926 8.273c1.86 26.394 18.419 47.042 44.295 55.234 7.685 2.433 15.61 3.602 23.433 3.602 1.05 0 2.097-.021 3.142-.063l-28.136 28.136c-2.158 2.158-3.322 5.115-3.215 8.165s1.477 5.918 3.781 7.919c11.763 10.215 25.717 15.417 40.125 15.416 10.062 0 20.346-2.539 30.252-7.681 8.113-4.211 15.3-9.794 21.294-16.289v39.789c0 3.052 1.268 5.967 3.5 8.047 2.043 1.904 4.726 2.953 7.499 2.953.257 0 .516-.009.774-.027 26.394-1.86 47.042-18.419 55.233-44.295 2.759-8.714 3.893-17.744 3.539-26.575l28.135 28.135c2.066 2.066 4.866 3.222 7.778 3.222.129 0 .258-.002.387-.007 3.05-.107 5.918-1.477 7.919-3.781 17.348-19.978 20.239-46.287 7.735-70.377-4.211-8.113-9.795-15.301-16.291-21.295h39.794c3.052 0 5.966-1.268 8.047-3.5s3.141-5.229 2.926-8.273zm-100.973-10.227c-4.327 0-8.07 2.499-9.866 6.132-2.143 2.247-3.328 5.383-2.987 8.714.617 6.044 6.022 10.435 12.061 9.825 18.067-1.862 38.159 10.248 47.767 28.759 3.975 7.657 8.601 21.307 1.801 35.789l-54.177-54.178c-3.059-3.059-7.472-3.938-11.311-2.641-3.105.073-6.161 1.453-8.276 4.05-3.837 4.71-3.129 11.639 1.581 15.476 14.083 11.473 19.735 34.229 13.441 54.111-2.604 8.225-8.984 21.148-24.033 26.581v-76.618c0-4.331-2.503-8.077-6.142-9.871-2.247-2.137-5.379-3.317-8.704-2.982-6.044.618-10.443 6.018-9.825 12.062 1.846 18.07-10.249 38.159-28.759 47.767-7.657 3.975-21.307 8.6-35.79 1.802l54.178-54.178c3.059-3.06 3.939-7.473 2.64-11.312-.073-3.105-1.453-6.159-4.049-8.275-4.71-3.837-11.638-3.129-15.476 1.581-11.472 14.084-34.229 19.737-54.111 13.441-8.225-2.604-21.148-8.985-26.582-24.034h76.619c4.326 0 8.069-2.498 9.865-6.13 2.144-2.247 3.329-5.383 2.988-8.715-.617-6.044-6.021-10.434-12.061-9.825-18.076 1.853-38.16-10.249-47.768-28.759-3.974-7.657-8.601-21.307-1.801-35.789l54.177 54.178c3.06 3.059 7.473 3.938 11.312 2.64 3.105-.073 6.159-1.453 8.274-4.049 3.837-4.71 3.129-11.639-1.581-15.476-14.083-11.473-19.735-34.229-13.44-54.111 2.604-8.225 8.984-21.148 24.033-26.581v76.616c0 4.331 2.503 8.076 6.14 9.87 2.247 2.139 5.38 3.32 8.705 2.984 6.044-.618 10.443-6.018 9.825-12.062-1.846-18.07 10.249-38.159 28.759-47.767 7.657-3.975 21.306-8.599 35.79-1.802l-54.178 54.178c-3.059 3.059-3.939 7.472-2.641 11.311.073 3.105 1.452 6.161 4.049 8.276 4.71 3.838 11.638 3.129 15.476-1.581 11.472-14.084 34.229-19.735 54.112-13.441 8.225 2.604 21.148 8.984 26.581 24.033h-76.616z"/></g><g fill="#0496FF"><path d="m256 65c-105.318 0-191 85.683-191 191s85.682 191 191 191 191-85.683 191-191-85.682-191-191-191zm0 360c-93.187 0-169-75.813-169-169s75.813-169 169-169 169 75.813 169 169-75.813 169-169 169z"/><path d="m256 205.001c-28.122 0-51 22.878-51 50.999s22.878 51 51 51 51-22.879 51-51-22.878-50.999-51-50.999zm0 79.999c-15.991 0-29-13.01-29-29s13.009-28.999 29-28.999 29 13.009 29 28.999-13.009 29-29 29z"/></g></g><g/><g/><g/><g/><g/><g/><g/><g/><g/><g/><g/><g/><g/><g/><g/></svg>