<svg id="Layer_1" enable-background="new 0 0 512 512" viewBox="0 0 512 512" xmlns="http://www.w3.org/2000/svg" fill="#052438"><g><g fill="#0496FF"><path d="m324 61.5h-13v-6.5c0-6.075-4.925-11-11-11s-11 4.925-11 11v6.5h-22v-6.5c0-6.075-4.925-11-11-11s-11 4.925-11 11v6.5h-22v-6.5c0-6.075-4.925-11-11-11s-11 4.925-11 11v6.5h-13c-17.094 0-31 13.907-31 31v109.5c0 17.093 13.906 31 31 31h136c17.094 0 31-13.907 31-31v-109.5c0-17.093-13.906-31-31-31zm9 140.5c0 4.962-4.037 9-9 9h-136c-4.963 0-9-4.038-9-9v-109.5c0-4.962 4.037-9 9-9h13v6.5c0 6.075 4.925 11 11 11s11-4.925 11-11v-6.5h22v6.5c0 6.075 4.925 11 11 11s11-4.925 11-11v-6.5h22v6.5c0 6.075 4.925 11 11 11s11-4.925 11-11v-6.5h13c4.963 0 9 4.038 9 9z"/><path d="m300 167h-88c-6.075 0-11 4.925-11 11s4.925 11 11 11h88c6.075 0 11-4.925 11-11s-4.925-11-11-11z"/><path d="m300 123h-88c-6.075 0-11 4.925-11 11s4.925 11 11 11h88c6.075 0 11-4.925 11-11s-4.925-11-11-11z"/></g><g><path d="m368 277c17.094 0 31-13.907 31-31v-215c0-17.093-13.906-31-31-31h-224c-17.094 0-31 13.907-31 31v215c0 17.093 13.906 31 31 31h86.33l17.892 17.891c2.148 2.148 4.963 3.222 7.778 3.222s5.63-1.074 7.778-3.222l17.892-17.891zm-98.665-18.778-13.335 13.335-13.335-13.335c-2.063-2.063-4.861-3.222-7.778-3.222h-90.887c-4.963 0-9-4.038-9-9v-215c0-4.962 4.037-9 9-9h224c4.963 0 9 4.038 9 9v215c0 4.962-4.037 9-9 9h-90.887c-2.917 0-5.715 1.159-7.778 3.222z"/><path d="m501 217.305h-12.007c-28.121 0-51 22.878-51 51v35.028c-8.882-6.875-19.725-10.601-31.141-10.601-.001 0 0 0-.001 0-13.621 0-26.43 5.305-36.062 14.937l-60.55 60.549c-19.076 19.077-29.582 44.44-29.582 71.417v61.365c0 6.075 4.925 11 11 11h96.545c6.075 0 11-4.925 11-11v-43.534l86.727-86.726c16.812-16.812 26.07-39.164 26.07-62.94v-79.496c.001-6.074-4.924-10.999-10.999-10.999zm-11 90.496c0 17.899-6.97 34.728-19.627 47.383l-89.948 89.948c-2.062 2.063-3.222 4.861-3.222 7.778v37.09h-74.545v-50.364c0-21.101 8.218-40.94 23.139-55.861l60.55-60.549c5.477-5.477 12.759-8.493 20.506-8.493 7.746 0 15.028 3.017 20.506 8.494l.712.712-47.112 47.112c-4.296 4.296-4.296 11.261 0 15.557 4.297 4.296 11.26 4.296 15.557 0l52.641-52.641c6.989-6.99 10.838-16.282 10.838-26.165v-39.496c0-15.991 13.01-29 29-29h1.005z"/><path d="m141.21 307.67c-9.632-9.633-22.439-14.938-36.062-14.938-11.416 0-22.258 3.725-31.141 10.601v-35.028c0-28.122-22.879-51-51-51h-12.007c-6.075 0-11 4.925-11 11v79.496c0 23.776 9.259 46.128 26.07 62.94l86.727 86.726v43.533c0 6.075 4.925 11 11 11h96.545c6.075 0 11-4.925 11-11v-61.364c0-26.978-10.506-52.341-29.582-71.418zm68.132 182.33h-74.545v-37.09c0-2.917-1.159-5.715-3.222-7.778l-89.948-89.948c-12.657-12.656-19.627-29.484-19.627-47.383v-68.496h1.007c15.99 0 29 13.009 29 29v39.496c0 9.883 3.849 19.175 10.838 26.166l52.641 52.641c4.297 4.296 11.26 4.296 15.557 0 4.296-4.296 4.296-11.261 0-15.557l-47.113-47.113.712-.712c5.478-5.478 12.76-8.494 20.506-8.494 7.747 0 15.029 3.016 20.506 8.494l60.55 60.548c14.921 14.922 23.139 34.761 23.139 55.862v50.364z"/></g></g><g/><g/><g/><g/><g/><g/><g/><g/><g/><g/><g/><g/><g/><g/><g/></svg>