<svg id="Layer_1" enable-background="new 0 0 512 512" viewBox="0 0 512 512" xmlns="http://www.w3.org/2000/svg" fill="#052438"><g><g fill="#0496FF"><path d="m324 61.5h-13v-6.5c0-6.075-4.925-11-11-11s-11 4.925-11 11v6.5h-22v-6.5c0-6.075-4.925-11-11-11s-11 4.925-11 11v6.5h-22v-6.5c0-6.075-4.925-11-11-11s-11 4.925-11 11v6.5h-13c-17.094 0-31 13.907-31 31v109.5c0 17.093 13.906 31 31 31h136c17.094 0 31-13.907 31-31v-109.5c0-17.093-13.906-31-31-31zm9 140.5c0 4.962-4.037 9-9 9h-136c-4.963 0-9-4.038-9-9v-109.5c0-4.962 4.037-9 9-9h13v6.5c0 6.075 4.925 11 11 11s11-4.925 11-11v-6.5h22v6.5c0 6.075 4.925 11 11 11s11-4.925 11-11v-6.5h22v6.5c0 6.075 4.925 11 11 11s11-4.925 11-11v-6.5h13c4.963 0 9 4.038 9 9z"/><path d="m300 167h-88c-6.075 0-11 4.925-11 11s4.925 11 11 11h88c6.075 0 11-4.925 11-11s-4.925-11-11-11z"/><path d="m300 123h-88c-6.075 0-11 4.925-11 11s4.925 11 11 11h88c6.075 0 11-4.925 11-11s-4.925-11-11-11z"/></g><g><path d="m144 277h86.33l17.892 17.891c2.148 2.148 4.963 3.222 7.778 3.222s5.63-1.074 7.778-3.222l17.892-17.891h86.33c17.094 0 31-13.907 31-31v-215c0-17.093-13.906-31-31-31h-224c-17.094 0-31 13.907-31 31v215c0 17.093 13.906 31 31 31zm-9-246c0-4.962 4.037-9 9-9h224c4.963 0 9 4.038 9 9v215c0 4.962-4.037 9-9 9h-90.887c-2.917 0-5.715 1.159-7.778 3.222l-13.335 13.335-13.335-13.335c-2.063-2.063-4.861-3.222-7.778-3.222h-90.887c-4.963 0-9-4.038-9-9z"/><path d="m501 446h-12.215c-.4-34.365-21.301-63.878-51.028-76.864 7.518-8.191 12.116-19.104 12.116-31.072 0-25.364-20.636-46-46-46s-46 20.636-46 46c0 11.968 4.598 22.881 12.116 31.072-29.726 12.986-50.627 42.5-51.027 76.864h-125.924c-.4-34.365-21.301-63.878-51.027-76.864 7.518-8.192 12.116-19.104 12.116-31.072 0-25.364-20.636-46-46-46s-46 20.636-46 46c0 11.968 4.598 22.881 12.116 31.072-29.727 12.986-50.628 42.5-51.028 76.864h-12.215c-6.075 0-11 4.925-11 11v44c0 6.075 4.925 11 11 11h490c6.075 0 11-4.925 11-11v-44c0-6.075-4.925-11-11-11zm-121.127-107.937c0-13.234 10.767-24 24-24s24 10.766 24 24-10.767 24-24 24-24-10.766-24-24zm24 46c34.369 0 62.393 27.693 62.93 61.937h-125.859c.537-34.243 28.56-61.937 62.929-61.937zm-319.746-46c0-13.234 10.767-24 24-24s24 10.766 24 24-10.767 24-24 24-24-10.766-24-24zm24 46c34.369 0 62.392 27.693 62.929 61.937h-125.859c.537-34.243 28.561-61.937 62.93-61.937zm381.873 105.937h-468v-22h468z"/></g></g><g/><g/><g/><g/><g/><g/><g/><g/><g/><g/><g/><g/><g/><g/><g/></svg>