<svg id="Layer_1" enable-background="new 0 0 512 512" viewBox="0 0 512 512" xmlns="http://www.w3.org/2000/svg" fill="#E6ECF2"><g><path d="m481 0h-450c-17.094 0-31 13.907-31 31v305.026c0 17.093 13.906 31 31 31h59.937v113.974c0 17.093 13.906 31 31 31h268.127c17.094 0 31-13.907 31-31v-113.974h59.936c17.094 0 31-13.907 31-31v-305.026c0-17.093-13.906-31-31-31zm-450 22h450c4.963 0 9 4.038 9 9v57h-468v-57c0-4.962 4.037-9 9-9zm114.937 257.026h44c6.075 0 11-4.925 11-11v-16.5h22v16.5c0 6.075 4.925 11 11 11h44c6.075 0 11-4.925 11-11v-16.5h22v16.5c0 6.075 4.925 11 11 11h44c6.075 0 11-4.925 11-11v-16.5h13.127c4.963 0 9 4.038 9 9v40.5h-286.127v-40.5c0-4.962 4.037-9 9-9h13v16.5c0 6.075 4.924 11 11 11zm11-22v-33h22v33zm88 0v-33h22v33zm88 0v-33h22v33zm57.126 232.974h-268.126c-4.963 0-9-4.038-9-9v-157.974h286.127v157.974c-.001 4.962-4.038 9-9.001 9zm90.937-144.974h-59.937v-84.5c0-17.093-13.906-31-31-31h-13.127v-16.5c0-6.075-4.925-11-11-11h-44c-6.075 0-11 4.925-11 11v16.5h-22v-16.5c0-6.075-4.925-11-11-11h-44c-6.075 0-11 4.925-11 11v16.5h-22v-16.5c0-6.075-4.925-11-11-11h-44c-6.075 0-11 4.925-11 11v16.5h-13c-17.094 0-31 13.907-31 31v84.5h-59.936c-4.963 0-9-4.038-9-9v-226.026h468v226.026c0 4.962-4.037 9-9 9z"/><g fill="#0496FF"><path d="m65.16 50.79c-2.683-7.079-12.728-9.082-17.94-3.57-6.892 6.799-1.908 18.855 7.78 18.78 7.589.222 13.269-8.282 10.16-15.21z"/><path d="m109.16 50.79c-2.754-7.14-12.679-9.059-17.94-3.57-6.894 6.8-1.91 18.854 7.78 18.78 7.584.211 13.272-8.275 10.16-15.21z"/><path d="m136.89 64.15c6.264 4.366 15.576.537 16.891-7 2.1-10.627-10.895-17.521-18.561-9.93-4.863 4.635-4.014 13.339 1.67 16.93z"/><path d="m457 44h-20c-6.075 0-11 4.925-11 11s4.925 11 11 11h20c6.075 0 11-4.925 11-11s-4.925-11-11-11z"/><path d="m393 44h-20c-6.075 0-11 4.925-11 11s4.925 11 11 11h20c6.075 0 11-4.925 11-11s-4.925-11-11-11z"/><path d="m277.937 395.513h-44c-6.075 0-11 4.925-11 11s4.925 11 11 11h44c6.075 0 11-4.925 11-11s-4.925-11-11-11z"/><path d="m277.937 446h-44c-6.075 0-11 4.925-11 11s4.925 11 11 11h44c6.075 0 11-4.925 11-11s-4.925-11-11-11z"/><path d="m277.937 345.026h-44c-6.075 0-11 4.925-11 11s4.925 11 11 11h44c6.075 0 11-4.925 11-11s-4.925-11-11-11z"/><path d="m365.937 395.513h-44c-6.075 0-11 4.925-11 11s4.925 11 11 11h44c6.075 0 11-4.925 11-11s-4.925-11-11-11z"/><path d="m365.937 345.026h-44c-6.075 0-11 4.925-11 11s4.925 11 11 11h44c6.075 0 11-4.925 11-11s-4.925-11-11-11z"/><path d="m189.937 395.513h-44c-6.075 0-11 4.925-11 11s4.925 11 11 11h44c6.075 0 11-4.925 11-11s-4.925-11-11-11z"/><path d="m189.937 446h-44c-6.075 0-11 4.925-11 11s4.925 11 11 11h44c6.075 0 11-4.925 11-11s-4.925-11-11-11z"/><path d="m189.937 345.026h-44c-6.075 0-11 4.925-11 11s4.925 11 11 11h44c6.075 0 11-4.925 11-11s-4.925-11-11-11z"/></g></g><g/><g/><g/><g/><g/><g/><g/><g/><g/><g/><g/><g/><g/><g/><g/></svg>