<svg id="Layer_1" enable-background="new 0 0 512.086 512.086" viewBox="0 0 512.086 512.086" xmlns="http://www.w3.org/2000/svg" fill="#E6ECF2"><g><g fill="#0496FF"><path d="m437.087 61.5h-13v-6.5c0-6.075-4.925-11-11-11s-11 4.925-11 11v6.5h-22v-6.5c0-6.075-4.925-11-11-11s-11 4.925-11 11v6.5h-22v-6.5c0-6.075-4.925-11-11-11s-11 4.925-11 11v6.5h-13c-17.094 0-31 13.907-31 31v109.5c0 17.093 13.906 31 31 31h136c17.094 0 31-13.907 31-31v-109.5c0-17.093-13.907-31-31-31zm9 140.5c0 4.962-4.037 9-9 9h-136c-4.963 0-9-4.038-9-9v-109.5c0-4.962 4.037-9 9-9h13v6.5c0 6.075 4.925 11 11 11s11-4.925 11-11v-6.5h22v6.5c0 6.075 4.925 11 11 11s11-4.925 11-11v-6.5h22v6.5c0 6.075 4.925 11 11 11s11-4.925 11-11v-6.5h13c4.963 0 9 4.038 9 9z"/><path d="m413.087 167h-88c-6.075 0-11 4.925-11 11s4.925 11 11 11h88c6.075 0 11-4.925 11-11s-4.925-11-11-11z"/><path d="m413.087 123h-88c-6.075 0-11 4.925-11 11s4.925 11 11 11h88c6.075 0 11-4.925 11-11s-4.925-11-11-11z"/></g><g><path d="m381.72 329.244c-2.063-2.063-4.861-3.222-7.778-3.222s-5.715 1.159-7.778 3.222l-76.195 76.196c-49.725 3.52-98.188-14.508-133.501-49.821-35.313-35.312-53.348-83.773-49.82-133.501l76.195-76.195c4.296-4.296 4.296-11.261 0-15.557l-94.221-94.221c-2.063-2.062-4.861-3.222-7.778-3.222s-5.715 1.159-7.778 3.222l-56.106 56.106c-1.271 1.271-2.211 2.834-2.738 4.552-34.962 113.953-4.377 237.046 79.819 321.243 61.169 61.169 142.866 94.041 226.676 94.041 31.55 0 63.401-4.659 94.567-14.221 1.718-.527 3.281-1.467 4.552-2.738l56.105-56.106c4.296-4.296 4.296-11.261 0-15.557zm-300.877-269.764 78.664 78.665-24.874 24.874-78.663-78.665zm28.754 343.009c-77.783-77.783-106.439-191.218-75.128-296.635l5.944-5.944 78.664 78.664-30.84 30.84c-1.812 1.813-2.936 4.202-3.174 6.754-5.39 57.628 14.966 114.125 55.848 155.007 36.558 36.557 85.598 56.702 136.771 56.7 6.054 0 12.141-.282 18.236-.852 2.552-.239 4.941-1.361 6.754-3.174l30.841-30.841 78.664 78.664-5.944 5.944c-105.417 31.315-218.853 2.656-296.636-75.127zm318.136 53.628-78.664-78.664 24.873-24.873 78.664 78.664z"/><path d="m481.087 0h-224c-17.094 0-31 13.907-31 31v215c0 17.093 13.906 31 31 31h86.33l17.892 17.891c2.148 2.148 4.963 3.222 7.778 3.222s5.63-1.074 7.778-3.222l17.891-17.891h86.33c17.094 0 31-13.907 31-31v-215c0-17.093-13.906-31-30.999-31zm9 246c0 4.962-4.037 9-9 9h-90.887c-2.917 0-5.715 1.159-7.778 3.222l-13.335 13.335-13.335-13.335c-2.063-2.063-4.861-3.222-7.778-3.222h-90.887c-4.963 0-9-4.038-9-9v-215c0-4.962 4.037-9 9-9h224c4.963 0 9 4.038 9 9z"/></g></g><g/><g/><g/><g/><g/><g/><g/><g/><g/><g/><g/><g/><g/><g/><g/></svg>