<svg id="Layer_1" enable-background="new 0 0 512 512" viewBox="0 0 512 512" xmlns="http://www.w3.org/2000/svg" fill="#052438"><g><path d="m407.654 279.78v-205.937c0-19.868-16.164-36.032-36.032-36.032h-24.732v-23.42c0-6.075-4.925-11-11-11h-44c-6.075 0-11 4.925-11 11v23.419h-44.142v-23.419c0-6.075-4.925-11-11-11h-44c-6.075 0-11 4.925-11 11v23.419h-44.142v-23.419c0-6.075-4.925-11-11-11h-44c-6.075 0-11 4.925-11 11v23.419h-24.574c-19.868.001-36.032 16.165-36.032 36.033v275.948c0 19.868 16.164 36.032 36.032 36.032h246.964c-.19 2.689-.292 5.401-.292 8.138 0 63.217 51.431 114.648 114.648 114.648s114.648-51.431 114.648-114.649c0-59.744-45.938-108.953-104.346-114.18zm-104.764-254.389h22v46.839h-22zm-110.142 0h22v46.839h-22zm-110.142 0h22v46.839h-22zm-46.574 34.42h24.574v23.419c0 6.075 4.925 11 11 11h44c6.075 0 11-4.925 11-11v-23.419h44.142v23.419c0 6.075 4.925 11 11 11h44c6.075 0 11-4.925 11-11v-23.419h44.142v23.419c0 6.075 4.925 11 11 11h44c6.075 0 11-4.925 11-11v-23.419h24.732c7.737 0 14.032 6.295 14.032 14.032v53.458h-363.654v-53.458c0-7.738 6.295-14.032 14.032-14.032zm0 304.012c-7.737 0-14.032-6.295-14.032-14.032v-200.49h363.654v130.604c-47.585 4.844-86.648 38.914-98.923 83.918zm361.32 122.786c-51.086 0-92.648-41.562-92.648-92.648s41.562-92.648 92.648-92.648 92.648 41.561 92.648 92.647-41.562 92.649-92.648 92.649z"/><g fill="#0496FF"><path d="m231.283 245.562h-55.071c-6.075 0-11 4.925-11 11s4.925 11 11 11h55.071c6.075 0 11-4.925 11-11s-4.925-11-11-11z"/><path d="m231.283 308.752h-55.071c-6.075 0-11 4.925-11 11s4.925 11 11 11h55.071c6.075 0 11-4.925 11-11s-4.925-11-11-11z"/><path d="m231.283 182.372h-55.071c-6.075 0-11 4.925-11 11s4.925 11 11 11h55.071c6.075 0 11-4.925 11-11s-4.925-11-11-11z"/><path d="m352.425 256.562c0-6.075-4.925-11-11-11h-55.071c-6.075 0-11 4.925-11 11s4.925 11 11 11h55.071c6.075 0 11-4.925 11-11z"/><path d="m286.354 204.372h55.071c6.075 0 11-4.925 11-11s-4.925-11-11-11h-55.071c-6.075 0-11 4.925-11 11s4.925 11 11 11z"/><path d="m121.142 245.562h-55.071c-6.075 0-11 4.925-11 11s4.925 11 11 11h55.071c6.075 0 11-4.925 11-11s-4.925-11-11-11z"/><path d="m121.142 308.752h-55.071c-6.075 0-11 4.925-11 11s4.925 11 11 11h55.071c6.075 0 11-4.925 11-11s-4.925-11-11-11z"/><path d="m121.142 182.372h-55.071c-6.075 0-11 4.925-11 11s4.925 11 11 11h55.071c6.075 0 11-4.925 11-11s-4.925-11-11-11z"/><path d="m443.651 422.609h-2.299v-37.297c0-20.465-14.044-37.711-33-42.608v-8.392c0-6.075-4.925-11-11-11s-11 4.925-11 11v8.392c-18.956 4.897-33 22.143-33 42.608v37.297h-2.299c-6.075 0-11 4.925-11 11s4.925 11 11 11h35.299v9c0 6.075 4.925 11 11 11s11-4.925 11-11v-9h35.299c6.075 0 11-4.925 11-11s-4.925-11-11-11zm-68.299-37.297c0-12.131 9.869-22 22-22s22 9.869 22 22v37.297h-44z"/></g></g><g/><g/><g/><g/><g/><g/><g/><g/><g/><g/><g/><g/><g/><g/><g/></svg>