<svg id="Layer_1" enable-background="new 0 0 512 512" viewBox="0 0 512 512" xmlns="http://www.w3.org/2000/svg" fill="#E6ECF2"><g><path d="m465.934 292.904c-4.62-12.467-16.16-20.715-29.38-21.012-6.064-.152-12.145 1.229-17.553 3.925-5.15-2.567-10.87-3.936-16.681-3.936-.292 0-.582.003-.853.01-13.24.298-24.78 8.546-29.4 21.013-4.666 12.59-1.247 26.509 8.709 35.46l30.87 27.756c2.091 1.88 4.723 2.82 7.354 2.82s5.264-.94 7.354-2.82l30.87-27.756c9.957-8.951 13.375-22.87 8.71-35.46zm-23.418 19.101-23.516 21.143-23.516-21.144c-4.896-4.402-3.373-9.881-2.789-11.456.566-1.527 2.907-6.52 9.286-6.664l.338-.003c3.586 0 6.945 1.198 9.714 3.464 4.053 3.316 9.881 3.316 13.934 0 2.769-2.267 6.128-3.464 9.714-3.464l.357.004c6.359.144 8.7 5.137 9.266 6.664.584 1.575 2.107 7.054-2.788 11.456z" fill="#0496FF"/><g><path d="m481 35.854h-45v-24.854c0-6.075-4.925-11-11-11h-44c-6.075 0-11 4.925-11 11v24.854h-32v-24.854c0-6.075-4.925-11-11-11h-44c-6.075 0-11 4.925-11 11v24.854h-32v-24.854c0-6.075-4.925-11-11-11h-44c-6.075 0-11 4.925-11 11v24.854h-32v-24.854c0-6.075-4.925-11-11-11h-44c-6.075 0-11 4.925-11 11v24.854h-45c-17.093 0-31 13.907-31 31v414.146c0 17.093 13.907 31 31 31h450c17.093 0 31-13.907 31-31v-414.146c0-17.094-13.907-31-31-31zm-89-13.854h22v49.708h-22zm-98 0h22v49.708h-22zm-98 0h22v49.708h-22zm-98 0h22v49.708h-22zm-67 35.854h45v24.854c0 6.075 4.925 11 11 11h44c6.075 0 11-4.925 11-11v-24.854h32v24.854c0 6.075 4.925 11 11 11h44c6.075 0 11-4.925 11-11v-24.854h32v24.854c0 6.075 4.925 11 11 11h44c6.075 0 11-4.925 11-11v-24.854h32v24.854c0 6.075 4.925 11 11 11h44c6.075 0 11-4.925 11-11v-24.854h45c4.962 0 9 4.038 9 9v51.969h-468v-51.969c0-4.963 4.038-9 9-9zm450 432.146h-450c-4.962 0-9-4.038-9-9v-340.177h468v340.177c0 4.962-4.038 9-9 9z"/><path d="m456.936 162.823h-75.936c-6.075 0-11 4.925-11 11v65.059c0 6.075 4.925 11 11 11h75.936c6.075 0 11-4.925 11-11v-65.059c0-6.075-4.925-11-11-11zm-11 65.059h-53.936v-43.059h53.936z"/><path d="m456.936 380.941h-75.936c-6.075 0-11 4.925-11 11v65.059c0 6.075 4.925 11 11 11h75.936c6.075 0 11-4.925 11-11v-65.059c0-6.075-4.925-11-11-11zm-11 65.059h-53.936v-43.059h53.936z"/><path d="m293.968 271.882h-75.936c-6.075 0-11 4.925-11 11v65.059c0 6.075 4.925 11 11 11h75.936c6.075 0 11-4.925 11-11v-65.059c0-6.075-4.925-11-11-11zm-11 65.059h-53.936v-43.059h53.936z"/><path d="m293.968 162.823h-75.936c-6.075 0-11 4.925-11 11v65.059c0 6.075 4.925 11 11 11h75.936c6.075 0 11-4.925 11-11v-65.059c0-6.075-4.925-11-11-11zm-11 65.059h-53.936v-43.059h53.936z"/><path d="m293.968 380.941h-75.936c-6.075 0-11 4.925-11 11v65.059c0 6.075 4.925 11 11 11h75.936c6.075 0 11-4.925 11-11v-65.059c0-6.075-4.925-11-11-11zm-11 65.059h-53.936v-43.059h53.936z"/><path d="m130.936 271.882h-75.936c-6.075 0-11 4.925-11 11v65.059c0 6.075 4.925 11 11 11h75.936c6.075 0 11-4.925 11-11v-65.059c0-6.075-4.925-11-11-11zm-11 65.059h-53.936v-43.059h53.936z"/><path d="m130.936 162.823h-75.936c-6.075 0-11 4.925-11 11v65.059c0 6.075 4.925 11 11 11h75.936c6.075 0 11-4.925 11-11v-65.059c0-6.075-4.925-11-11-11zm-11 65.059h-53.936v-43.059h53.936z"/><path d="m130.936 380.941h-75.936c-6.075 0-11 4.925-11 11v65.059c0 6.075 4.925 11 11 11h75.936c6.075 0 11-4.925 11-11v-65.059c0-6.075-4.925-11-11-11zm-11 65.059h-53.936v-43.059h53.936z"/></g></g><g/><g/><g/><g/><g/><g/><g/><g/><g/><g/><g/><g/><g/><g/><g/></svg>