<svg id="Layer_1" enable-background="new 0 0 512 512" viewBox="0 0 512 512" xmlns="http://www.w3.org/2000/svg" fill="#E6ECF2"><g><g fill="#0496FF"><path d="m299.536 127.448c0-70.275-57.174-127.448-127.449-127.448h-8.301c-70.275 0-127.448 57.173-127.448 127.448v28.383c-6.019 7.983-9.594 17.907-9.594 28.652 0 26.296 21.394 47.69 47.69 47.69h14.832v-22h-14.831c-14.166 0-25.69-11.525-25.69-25.69s11.525-25.69 25.69-25.69h14.832v-22h-14.832c-5.647 0-11.065.992-16.097 2.802v-12.147c0-58.144 47.304-105.448 105.448-105.448h8.301c58.145 0 105.449 47.304 105.449 105.448v12.147c-5.031-1.81-10.45-2.802-16.097-2.802h-14.833v22h14.833c14.166 0 25.69 11.524 25.69 25.69s-11.524 25.69-25.69 25.69h-14.833v22h14.833c26.296 0 47.69-21.394 47.69-47.69 0-10.745-3.575-20.669-9.593-28.651z"/><path d="m368.874 446h-44c-6.075 0-11 4.925-11 11s4.925 11 11 11h44c6.075 0 11-4.925 11-11s-4.925-11-11-11z"/><path d="m368.874 395.513h-44c-6.075 0-11 4.925-11 11s4.925 11 11 11h44c6.075 0 11-4.925 11-11s-4.925-11-11-11z"/><path d="m457 446h-44.126c-6.075 0-11 4.925-11 11s4.925 11 11 11h44.126c6.075 0 11-4.925 11-11s-4.925-11-11-11z"/><path d="m412.874 417.513h44.126c6.075 0 11-4.925 11-11s-4.925-11-11-11h-44.126c-6.075 0-11 4.925-11 11s4.924 11 11 11z"/></g><path d="m481 280.013h-13.126v-16.5c0-6.075-4.925-11-11-11h-44c-6.075 0-11 4.925-11 11v16.5h-22v-16.5c0-6.075-4.925-11-11-11h-44c-6.075 0-11 4.925-11 11v16.5h-13c-16.576 0-30.155 13.079-30.961 29.458-15.403-8.332-32.298-13.292-49.966-14.586v-11.778c22.781-16.276 37.66-42.935 37.66-73.005v-78.503c0-49.444-40.226-89.67-89.67-89.67s-89.67 40.226-89.67 89.67v78.503c0 30.07 14.879 56.729 37.66 73.005v11.785c-64.738 4.832-115.927 59.05-115.927 125.001v37.078c0 6.075 4.925 11 11 11h258.874v13.029c0 17.093 13.907 31 31 31h180.126c17.093 0 31-13.907 31-31v-169.987c0-17.094-13.907-31-31-31zm-57.126-5.5h22v33h-22zm-88 0h22v33h-22zm-35 27.5h13v16.5c0 6.075 4.925 11 11 11h44c6.075 0 11-4.925 11-11v-16.5h22v16.5c0 6.075 4.925 11 11 11h44c6.075 0 11-4.925 11-11v-16.5h13.126c4.962 0 9 4.038 9 9v40.5h-198.126v-40.5c0-4.963 4.037-9 9-9zm-132.937-238.084c37.313 0 67.67 30.356 67.67 67.67v8.532h-4.698c-21.52 0-42.676-3.756-62.877-11.164l-.201-.074c-17.603-6.455-36.035-9.727-54.785-9.727h-11.615c5.856-31.393 33.44-55.237 66.506-55.237zm-67.67 146.173v-68.936h12.779c16.158 0 32.042 2.82 47.208 8.381l.201.074c22.637 8.301 46.341 12.509 70.453 12.509h4.698v29.106c-.013.032-.029.061-.042.093-6.715 17.347-23.729 29.002-42.335 29.002h-20.437c-6.075 0-11 4.925-11 11s4.925 11 11 11h20.437c14.455 0 28.257-4.745 39.564-12.953-8.322 27.95-34.24 48.394-64.857 48.394-37.313 0-67.669-30.356-67.669-67.67zm67.67 89.67c10.521 0 20.623-1.827 30.01-5.171v6.91l-30.01 35.445-30.01-35.445v-6.91c9.387 3.344 19.488 5.171 30.01 5.171zm-88.758 146.199v-35.607c0-6.075-4.925-11-11-11s-11 4.925-11 11v35.607h-35.179v-26.078c0-55.826 44.494-101.449 99.881-103.286l37.66 44.48c2.09 2.469 5.161 3.892 8.395 3.892s6.305-1.423 8.395-3.892l37.655-44.475c20.249.656 39.405 7.062 55.887 18.674v110.685zm401.821 44.029h-180.126c-4.962 0-9-4.038-9-9v-107.487h198.126v107.487c0 4.962-4.038 9-9 9z"/></g><g/><g/><g/><g/><g/><g/><g/><g/><g/><g/><g/><g/><g/><g/><g/></svg>