<svg id="Layer_1" enable-background="new 0 0 512 512" viewBox="0 0 512 512" xmlns="http://www.w3.org/2000/svg" fill="#E6ECF2"><g><g fill="#0496FF"><path d="m231.283 245.562h-55.071c-6.075 0-11 4.925-11 11s4.925 11 11 11h55.071c6.075 0 11-4.925 11-11s-4.925-11-11-11z"/><path d="m231.283 308.752h-55.071c-6.075 0-11 4.925-11 11s4.925 11 11 11h55.071c6.075 0 11-4.925 11-11s-4.925-11-11-11z"/><path d="m231.283 182.372h-55.071c-6.075 0-11 4.925-11 11s4.925 11 11 11h55.071c6.075 0 11-4.925 11-11s-4.925-11-11-11z"/><path d="m341.425 267.562c6.075 0 11-4.925 11-11s-4.925-11-11-11h-55.071c-6.075 0-11 4.925-11 11s4.925 11 11 11z"/><path d="m286.354 204.372h55.071c6.075 0 11-4.925 11-11s-4.925-11-11-11h-55.071c-6.075 0-11 4.925-11 11s4.925 11 11 11z"/><path d="m121.142 245.562h-55.071c-6.075 0-11 4.925-11 11s4.925 11 11 11h55.071c6.075 0 11-4.925 11-11s-4.925-11-11-11z"/><path d="m121.142 308.752h-55.071c-6.075 0-11 4.925-11 11s4.925 11 11 11h55.071c6.075 0 11-4.925 11-11s-4.925-11-11-11z"/><path d="m121.142 182.372h-55.071c-6.075 0-11 4.925-11 11s4.925 11 11 11h55.071c6.075 0 11-4.925 11-11s-4.925-11-11-11z"/><path d="m397.352 329.427c6.075 0 11-4.925 11-11v-26.115c0-6.075-4.925-11-11-11s-11 4.925-11 11v26.115c0 6.075 4.924 11 11 11z"/><path d="m408.352 389.404v-26.977c0-6.075-4.925-11-11-11s-11 4.925-11 11v31.533c0 2.917 1.159 5.715 3.222 7.778l14.711 14.711c2.148 2.148 4.963 3.222 7.778 3.222s5.63-1.074 7.778-3.222c4.295-4.296 4.295-11.261 0-15.557z"/><path d="m397.352 458.494c-6.075 0-11 4.925-11 11v26.115c0 6.075 4.925 11 11 11s11-4.925 11-11v-26.115c0-6.076-4.925-11-11-11z"/><path d="m499 382.96h-26.115c-6.075 0-11 4.925-11 11s4.925 11 11 11h26.115c6.075 0 11-4.925 11-11s-4.925-11-11-11z"/><path d="m332.819 393.96c0-6.075-4.925-11-11-11h-26.115c-6.075 0-11 4.925-11 11s4.925 11 11 11h26.115c6.075 0 11-4.924 11-11z"/><path d="m450.762 351.551c2.815 0 5.63-1.074 7.778-3.222l18.466-18.466c4.295-4.296 4.295-11.261 0-15.557-4.296-4.296-11.261-4.296-15.557 0l-18.466 18.466c-4.295 4.296-4.295 11.261 0 15.557 2.148 2.148 4.964 3.222 7.779 3.222z"/><path d="m336.164 439.592-18.466 18.466c-4.296 4.296-4.296 11.261 0 15.556 2.148 2.148 4.963 3.222 7.778 3.222s5.63-1.074 7.778-3.222l18.466-18.466c4.296-4.296 4.296-11.261 0-15.556-4.296-4.296-11.261-4.296-15.556 0z"/><path d="m458.54 439.592c-4.295-4.296-11.26-4.295-15.556 0s-4.295 11.26 0 15.556l18.466 18.466c2.147 2.148 4.963 3.222 7.778 3.222s5.63-1.074 7.778-3.222c4.296-4.295 4.295-11.26 0-15.556z"/><path d="m333.254 314.306c-4.296-4.296-11.261-4.296-15.557 0-4.295 4.296-4.295 11.261 0 15.557l18.466 18.466c2.148 2.148 4.963 3.222 7.778 3.222s5.63-1.074 7.778-3.222c4.295-4.296 4.295-11.261 0-15.557z"/></g><path d="m407.654 279.78v-205.937c0-19.868-16.164-36.032-36.032-36.032h-24.732v-23.42c0-6.075-4.925-11-11-11h-44c-6.075 0-11 4.925-11 11v23.419h-44.142v-23.419c0-6.075-4.925-11-11-11h-44c-6.075 0-11 4.925-11 11v23.419h-44.142v-23.419c0-6.075-4.925-11-11-11h-44c-6.075 0-11 4.925-11 11v23.419h-24.574c-19.868.001-36.032 16.165-36.032 36.033v275.948c0 19.868 16.164 36.032 36.032 36.032h246.964c-.19 2.689-.292 5.401-.292 8.138 0 63.217 51.431 114.648 114.648 114.648s114.648-51.431 114.648-114.649c0-59.744-45.938-108.953-104.346-114.18zm-104.764-254.389h22v46.839h-22zm-110.142 0h22v46.839h-22zm-110.142 0h22v46.839h-22zm-46.574 34.42h24.574v23.419c0 6.075 4.925 11 11 11h44c6.075 0 11-4.925 11-11v-23.419h44.142v23.419c0 6.075 4.925 11 11 11h44c6.075 0 11-4.925 11-11v-23.419h44.142v23.419c0 6.075 4.925 11 11 11h44c6.075 0 11-4.925 11-11v-23.419h24.732c7.737 0 14.032 6.295 14.032 14.032v53.458h-363.654v-53.458c0-7.738 6.295-14.032 14.032-14.032zm0 304.012c-7.737 0-14.032-6.295-14.032-14.032v-200.49h363.654v130.604c-47.585 4.844-86.648 38.914-98.923 83.918zm361.32 122.786c-51.086 0-92.648-41.562-92.648-92.648s41.562-92.648 92.648-92.648 92.648 41.561 92.648 92.647-41.562 92.649-92.648 92.649z"/></g><g/><g/><g/><g/><g/><g/><g/><g/><g/><g/><g/><g/><g/><g/><g/></svg>