<svg id="Capa_1" enable-background="new 0 0 512 512" viewBox="0 0 512 512" xmlns="http://www.w3.org/2000/svg" fill="#E6ECF2"><g><path d="m428.183 145.572h-50.423v-134.572c0-6.075-4.925-11-11-11h-156.59v.006c-2.861.001-5.674 1.112-7.778 3.216l-64.89 64.891c-2.103 2.104-3.215 4.917-3.216 7.778h-.006v69.681h-50.463c-28.121 0-51 22.878-51 51v200.34c0 28.122 22.879 51 51 51h121.33l-13.885 42.088h-71.232c-6.075 0-11 4.925-11 11s4.925 11 11 11h271.941c6.075 0 11-4.925 11-11s-4.925-11-11-11h-71.232l-13.886-42.088h121.33c28.121 0 51-22.878 51-51v-200.34c0-28.122-22.879-51-51-51zm-218.013-58.681c6.075 0 11-4.925 11-11v-53.891h134.59v282.934h-199.48v-218.043zm-11-49.334v27.334h-27.334zm-115.353 130.015h50.463v148.362c0 6.075 4.925 11 11 11h221.48c6.075 0 11-4.925 11-11v-148.362h50.423c15.99 0 29 13.009 29 29v172.362h-402.366v-172.362c0-15.991 13.01-29 29-29zm213.755 322.428h-83.143l13.886-42.088h55.371zm130.611-64.088h-344.366c-15.99 0-29-13.009-29-29v-5.979h402.365v5.979c.001 15.991-13.009 29-28.999 29z"/><g fill="#0496FF"><path d="m209.882 138.829h92.275c6.075 0 11-4.925 11-11s-4.925-11-11-11h-92.275c-6.075 0-11 4.925-11 11s4.925 11 11 11z"/><path d="m302.157 225.084h-92.275c-6.075 0-11 4.925-11 11s4.925 11 11 11h92.275c6.075 0 11-4.925 11-11s-4.925-11-11-11z"/><path d="m324.64 170.957h-137.24c-6.075 0-11 4.925-11 11s4.925 11 11 11h137.24c6.075 0 11-4.925 11-11s-4.925-11-11-11z"/></g></g><g/><g/><g/><g/><g/><g/><g/><g/><g/><g/><g/><g/><g/><g/><g/></svg>