<svg id="Capa_1" enable-background="new 0 0 512 512" viewBox="0 0 512 512" xmlns="http://www.w3.org/2000/svg" fill="#E6ECF2"><g><path d="m501 58.664h-125.843v-11c0-6.075-4.925-11-11-11h-88c-6.075 0-11 4.925-11 11v11h-254.157c-6.075 0-11 4.925-11 11v344.672c0 22.607 18.393 41 41 41h224.157v9c0 6.075 4.925 11 11 11h88c6.075 0 11-4.925 11-11v-9h95.843c22.607 0 41-18.393 41-41v-344.672c0-6.075-4.925-11-11-11zm-11 22v22h-114.843v-22zm-224.843 22h-56.696l-27.074-22h83.77zm205.843 330.672h-95.843v-89.538h-22v109.538h-66v-109.538h-22v89.538h-224.157c-10.477 0-19-8.523-19-19v-333.672h124.502l51.117 41.537c1.96 1.593 4.41 2.463 6.937 2.463h60.602v43.538h22v-109.538h66v109.538h22v-43.538h114.842v289.672c0 10.477-8.523 19-19 19z"/><path d="m378.157 157.202h-116c-22.607 0-41 18.393-41 41v115.596c0 22.607 18.393 41 41 41h116c22.607 0 41-18.393 41-41v-115.596c0-22.607-18.392-41-41-41zm19 156.596c0 10.477-8.523 19-19 19h-47v-22h33c6.075 0 11-4.925 11-11v-87.596c0-6.075-4.925-11-11-11h-88c-6.075 0-11 4.925-11 11v87.596c0 6.075 4.925 11 11 11h33v22h-47c-10.477 0-19-8.523-19-19v-115.596c0-10.477 8.523-19 19-19h116c10.477 0 19 8.523 19 19zm-77-66.543c-6.075 0-11 4.925-11 11v30.543h-22v-65.596h66v65.596h-22v-30.543c0-6.075-4.925-11-11-11z" fill="#0496FF"/></g><g/><g/><g/><g/><g/><g/><g/><g/><g/><g/><g/><g/><g/><g/><g/></svg>