<svg id="Capa_1" enable-background="new 0 0 512 512" viewBox="0 0 512 512" xmlns="http://www.w3.org/2000/svg" fill="#052438"><g><path d="m501 157h-143v-129.534c0-6.075-4.925-11-11-11h-261.278v.005c-2.862 0-5.675 1.113-7.778 3.216l-74.722 74.723c-2.104 2.104-3.215 4.917-3.216 7.778h-.006v382.346c0 6.075 4.925 11 11 11h336c6.075 0 11-4.925 11-11v-129.534h143c6.075 0 11-4.925 11-11v-176c0-6.075-4.925-11-11-11zm-426.278-102.978v37.166h-37.166zm261.278 419.512h-314v-360.346h63.722c6.075 0 11-4.925 11-11v-63.722h239.278v118.534h-143c-6.075 0-11 4.925-11 11v176c0 6.075 4.925 11 11 11h143zm154-140.534h-286v-154h286z"/><g fill="#0496FF"><path d="m259 201h-22c-6.075 0-11 4.925-11 11v88c0 6.075 4.925 11 11 11s11-4.925 11-11v-33h11c18.196 0 33-14.804 33-33s-14.804-33-33-33zm0 44h-11v-22h11c6.065 0 11 4.935 11 11s-4.935 11-11 11z"/><path d="m329 201h-4c-6.075 0-11 4.925-11 11v88c0 6.075 4.925 11 11 11h4c28.121 0 51-22.878 51-51v-8c0-28.122-22.879-51-51-51zm29 59c0 13.578-9.38 25.006-22 28.146v-64.292c12.62 3.14 22 14.568 22 28.146z"/><path d="m457 223c6.075 0 11-4.925 11-11s-4.925-11-11-11h-44c-6.075 0-11 4.925-11 11v88c0 6.075 4.925 11 11 11s11-4.925 11-11v-33h23c6.075 0 11-4.925 11-11s-4.925-11-11-11h-23v-22z"/></g></g><g/><g/><g/><g/><g/><g/><g/><g/><g/><g/><g/><g/><g/><g/><g/></svg>