<svg id="Capa_1" enable-background="new 0 0 512.003 512.003" height="512" viewBox="0 0 512.003 512.003" width="512" xmlns="http://www.w3.org/2000/svg" fill="#E6ECF2"><g id="Split_1_"><path d="m501.001 512.002c-2.892 0-5.778-1.133-7.939-3.385l-231.793-241.615h-250.269c-6.075 0-11-4.925-11-11s4.925-11 11-11h254.959c2.996 0 5.863 1.223 7.938 3.385l235.041 245c4.206 4.384 4.062 11.348-.322 15.553-2.134 2.045-4.876 3.062-7.615 3.062z"/><g fill="#0496FF"><path d="m511.994 10.891c.056-5.868-5.133-10.983-10.994-10.889h-179.268c-6.075 0-11 4.925-11 11s4.925 11 11 11h153.473l-160.842 167.656c-4.206 4.384-4.062 11.348.322 15.553 4.379 4.202 11.342 4.066 15.553-.322l159.762-166.532v159.509c0 6.075 4.925 11 11 11s11-4.925 11-11c.005-.023.003-186.939-.006-186.975z"/><path d="m501 512.002h-179.269c-6.075 0-11-4.925-11-11s4.925-11 11-11h168.269v-175.864c0-6.075 4.925-11 11-11s11 4.925 11 11v186.864c0 6.075-4.925 11-11 11z"/></g></g></svg>