<svg id="Capa_1" enable-background="new 0 0 511.942 511.942" height="512" viewBox="0 0 511.942 511.942" width="512" xmlns="http://www.w3.org/2000/svg" fill="#E6ECF2"><g><path d="m462.345 118.386c20.325-28.258-.49-68.798-35.558-68.6-35.065-.199-55.884 40.349-35.556 68.601-18.932 7.457-32.372 25.914-32.372 47.461v33.194c0 6.075 4.925 11 11 11h113.858c6.075 0 11-4.925 11-11v-33.194c.001-21.549-13.44-40.005-32.372-47.462zm-35.557-46.601c11.872 0 21.531 9.659 21.531 21.531-1.183 28.564-41.884 28.556-43.063 0 .001-11.872 9.66-21.531 21.532-21.531zm45.93 116.257h-91.858v-22.194c0-15.99 13.01-29 29-29h33.858c15.99 0 29 13.01 29 29z"/><path d="m119.752 118.386c20.325-28.258-.49-68.798-35.557-68.601-35.064-.199-55.884 40.349-35.557 68.6-18.932 7.457-32.373 25.914-32.373 47.462v33.194c0 6.075 4.925 11 11 11h113.858c6.075 0 11-4.925 11-11v-33.194c.001-21.547-13.439-40.004-32.371-47.461zm-35.557-46.601c11.872 0 21.531 9.659 21.531 21.531-1.183 28.564-41.884 28.556-43.063 0 .001-11.872 9.66-21.531 21.532-21.531zm45.929 116.257h-91.858v-22.194c0-15.99 13.01-29 29-29h33.858c15.99 0 29 13.01 29 29z"/><path d="m291.552 370.5c20.334-28.255-.486-68.796-35.552-68.598-35.063-.199-55.888 40.35-35.551 68.598-18.935 7.456-32.378 25.914-32.378 47.464v33.194c0 6.075 4.925 11 11 11h113.859c6.075 0 11-4.925 11-11v-33.194c0-21.551-13.443-40.009-32.378-47.464zm-35.552-46.599c11.872 0 21.531 9.659 21.531 21.531-1.183 28.564-41.884 28.556-43.063 0 .001-11.872 9.66-21.531 21.532-21.531zm45.93 116.257h-91.86v-22.194c0-15.99 13.01-29 29-29h33.859c15.99 0 29 13.01 29 29v22.194z"/></g><g fill="#0496FF"><path d="m291.557 118.386c20.325-28.258-.49-68.798-35.558-68.6-35.064-.199-55.884 40.349-35.557 68.6-18.932 7.457-32.373 25.914-32.373 47.462v33.194c0 6.075 4.925 11 11 11h113.861c6.075 0 11-4.925 11-11v-33.194c0-21.549-13.441-40.005-32.373-47.462zm-35.557-46.601c11.872 0 21.531 9.659 21.531 21.531-1.183 28.564-41.884 28.556-43.063 0 .001-11.872 9.66-21.531 21.532-21.531zm45.93 116.257h-91.86v-22.194c0-15.99 13.01-29 29-29h33.859c15.99 0 29 13.01 29 29v22.194z"/><path d="m462.34 370.5c20.334-28.255-.486-68.796-35.552-68.598-35.063-.199-55.888 40.35-35.551 68.599-18.935 7.456-32.377 25.914-32.377 47.463v33.194c0 6.075 4.925 11 11 11h113.858c6.075 0 11-4.925 11-11v-33.194c0-21.551-13.443-40.009-32.378-47.464zm-35.552-46.599c11.872 0 21.531 9.659 21.531 21.531-1.183 28.564-41.884 28.556-43.063 0 .001-11.872 9.66-21.531 21.532-21.531zm45.93 116.257h-91.858v-22.194c0-15.99 13.01-29 29-29h33.858c15.99 0 29 13.01 29 29z"/><path d="m119.747 370.5c20.334-28.256-.486-68.796-35.552-68.599-35.063-.199-55.888 40.35-35.551 68.598-18.935 7.456-32.378 25.914-32.378 47.464v33.194c0 6.075 4.925 11 11 11h113.858c6.075 0 11-4.925 11-11v-33.194c0-21.549-13.443-40.007-32.377-47.463zm-35.552-46.599c11.872 0 21.531 9.659 21.531 21.531-1.183 28.564-41.884 28.556-43.063 0 .001-11.872 9.66-21.531 21.532-21.531zm45.929 116.257h-91.858v-22.194c0-15.99 13.01-29 29-29h33.858c15.99 0 29 13.01 29 29z"/></g><path d="m501 266.971h-490c-6.075 0-11-4.925-11-11s4.925-11 11-11h490c14.433.512 14.746 21.347 0 22z"/></svg>