<svg id="Capa_1" enable-background="new 0 0 512.001 512.001" height="512" viewBox="0 0 512.001 512.001" width="512" xmlns="http://www.w3.org/2000/svg" fill="#E6ECF2"><g id="Fast_Forward"><path d="m305.34 512c-2.407 0-4.831-.786-6.857-2.404-4.747-3.791-5.522-10.713-1.731-15.46l190.171-238.136-190.172-238.135c-3.791-4.747-3.016-11.669 1.731-15.46 4.747-3.79 11.668-3.016 15.46 1.731l195.653 245c3.206 4.015 3.206 9.714 0 13.729l-195.653 245c-2.172 2.719-5.372 4.135-8.602 4.135z" fill="#0496FF"/><path d="m156.894 512c-2.407 0-4.831-.786-6.857-2.404-4.747-3.791-5.522-10.713-1.731-15.46l190.173-238.136-190.174-238.135c-3.791-4.747-3.016-11.669 1.731-15.46 4.748-3.79 11.668-3.016 15.459 1.731l195.656 245c3.206 4.015 3.206 9.714 0 13.729l-195.656 245c-2.171 2.719-5.372 4.135-8.601 4.135z"/><path d="m10.994 512c-2.407 0-4.831-.786-6.857-2.404-4.747-3.791-5.522-10.713-1.731-15.46l190.173-238.136-190.174-238.135c-3.792-4.747-3.016-11.669 1.731-15.46 4.747-3.79 11.668-3.016 15.46 1.731l195.655 245c3.206 4.015 3.206 9.714 0 13.729l-195.655 245c-2.172 2.719-5.373 4.135-8.602 4.135z"/></g></svg>