<svg id="Capa_1" enable-background="new 0 0 512 512" height="512" viewBox="0 0 512 512" width="512" xmlns="http://www.w3.org/2000/svg" fill="#052438"><g id="Down_Arrow"><path d="m256 512c-6.075 0-11-4.925-11-11v-490c0-6.075 4.925-11 11-11s11 4.925 11 11v490c0 6.075-4.925 11-11 11z"/><path d="m256 512c-2.939 0-5.755-1.176-7.821-3.265l-120-121.335c-4.272-4.319-4.233-11.284.086-15.556 4.319-4.271 11.284-4.233 15.556.086l112.179 113.427 112.179-113.427c4.272-4.32 11.237-4.358 15.556-.086 4.32 4.272 4.358 11.237.086 15.556l-120 121.335c-2.066 2.089-4.882 3.265-7.821 3.265z" fill="#0496FF"/></g></svg>