<svg id="Capa_1" enable-background="new 0 0 512 512" height="512" viewBox="0 0 512 512" width="512" xmlns="http://www.w3.org/2000/svg" fill="#E6ECF2"><g id="Arrows_9_"><path d="m267 251.443v-240.443h-22v240.443l-241.778 241.778 15.556 15.557 237.222-237.222 237.222 237.222 15.556-15.557z"/><g fill="#0496FF"><path d="m135.576 512h-124.576c-6.075 0-11-4.925-11-11v-124.576c0-6.075 4.925-11 11-11s11 4.925 11 11v113.576h113.576c6.075 0 11 4.925 11 11s-4.925 11-11 11z"/><path d="m501 512h-124.576c-6.075 0-11-4.925-11-11s4.925-11 11-11h113.576v-113.576c0-6.075 4.925-11 11-11s11 4.925 11 11v124.576c0 6.075-4.925 11-11 11z"/><path d="m339.051 105.051c-2.815 0-5.63-1.074-7.778-3.222l-75.273-75.273-75.273 75.272c-4.297 4.295-11.26 4.295-15.557 0-4.296-4.296-4.296-11.261 0-15.557l83.051-83.051c4.297-4.295 11.26-4.295 15.557 0l83.051 83.051c4.296 4.296 4.296 11.261 0 15.557-2.148 2.148-4.963 3.223-7.778 3.223z"/></g></g></svg>