<svg id="Capa_1" enable-background="new 0 0 512 512" height="512" viewBox="0 0 512 512" width="512" xmlns="http://www.w3.org/2000/svg" fill="#E6ECF2"><g><path d="m389.74 93.344 22.95-61.2c1.267-3.378.796-7.163-1.259-10.128s-5.433-4.734-9.041-4.734h-167.909v22h152.036l-18.825 50.2c-.934 2.49-.934 5.234 0 7.725l18.825 50.2h-152.036v22h167.909c3.608 0 6.986-1.769 9.041-4.734s2.525-6.75 1.259-10.128z" fill="#0496FF"/></g><path d="m337.328 490h-16.184l-22.065-74.469c-1.384-4.671-5.675-7.875-10.547-7.875h-54.062v-396.656c0-6.075-4.925-11-11-11s-11 4.925-11 11v396.656h-54.062c-4.872 0-9.163 3.204-10.547 7.875l-22.066 74.469h-16.185c-6.075 0-11 4.925-11 11s4.925 11 11 11h227.718c6.075 0 11-4.925 11-11s-4.925-11-11-11zm-170.708-60.344h113.698l17.88 60.344h-149.458z"/></svg>