<svg id="Capa_1" enable-background="new 0 0 512 512" height="512" viewBox="0 0 512 512" width="512" xmlns="http://www.w3.org/2000/svg" fill="#E6ECF2"><g id="Arrows"><path d="m255.984 512c-6.075 0-11-4.925-11-11v-240.848c0-6.075 4.925-11 11-11s11 4.925 11 11v240.848c0 6.075-4.925 11-11 11z" fill="#0496FF"/><path d="m346.813 86.272-83.051-83.05c-.014-.014-.03-.026-.044-.04-.243-.241-.497-.471-.762-.688-.127-.104-.26-.194-.39-.292-.157-.118-.311-.239-.474-.349-.154-.103-.313-.192-.471-.286-.151-.09-.298-.185-.454-.268-.158-.084-.321-.156-.483-.232-.164-.078-.326-.159-.494-.229-.154-.064-.312-.115-.468-.171-.183-.066-.363-.136-.55-.192-.152-.046-.306-.079-.46-.118-.194-.049-.387-.103-.585-.143-.171-.034-.344-.053-.517-.079-.182-.027-.363-.061-.548-.079-.299-.029-.599-.041-.9-.045-.058-.003-.117-.011-.178-.011s-.119.008-.18.009c-.3.005-.601.016-.9.045-.185.018-.366.052-.548.079-.172.025-.345.045-.517.079-.198.039-.39.093-.585.143-.153.039-.308.072-.46.118-.187.057-.368.127-.551.193-.156.056-.313.107-.467.171-.169.07-.33.151-.495.23-.161.076-.324.147-.482.232-.155.084-.303.178-.454.268-.158.094-.317.183-.471.286-.163.109-.317.231-.475.349-.13.098-.264.188-.39.292-.265.217-.518.448-.762.688-.014.014-.03.026-.044.04l-83.051 83.051c-4.295 4.296-4.295 11.261 0 15.557 4.296 4.295 11.261 4.295 15.557 0l64.273-64.273v139.545c0 6.075 4.925 11 11 11s11-4.925 11-11v-139.545l64.272 64.273c2.148 2.147 4.963 3.222 7.778 3.222s5.63-1.074 7.778-3.222c4.299-4.297 4.299-11.262.003-15.558z" fill="#0496FF"/><path d="m511.982 260.197c.011-2.901-1.166-5.772-3.22-7.823l-83.051-83.051c-4.296-4.295-11.261-4.295-15.557 0-4.295 4.296-4.295 11.261 0 15.557l64.272 64.272h-436.886l64.273-64.272c4.295-4.296 4.295-11.261 0-15.557-4.296-4.295-11.261-4.295-15.557 0l-83.05 83.051c-4.251 4.1-4.25 11.457 0 15.557l83.051 83.051c2.148 2.147 4.963 3.222 7.778 3.222s5.63-1.074 7.778-3.222c4.295-4.296 4.295-11.261 0-15.557l-64.273-64.273h436.887l-64.272 64.272c-4.295 4.296-4.295 11.261 0 15.557 2.148 2.147 4.963 3.222 7.778 3.222s5.63-1.074 7.778-3.222l83.051-83.051c2.036-2.03 3.206-4.862 3.22-7.733z"/></g></svg>