<svg id="Capa_1" enable-background="new 0 0 512 512" height="512" viewBox="0 0 512 512" width="512" xmlns="http://www.w3.org/2000/svg" fill="#E6ECF2"><path d="m51.664 169.406c-28.487 0-51.664-23.176-51.664-51.663 2.838-68.539 100.5-68.519 103.328 0 0 28.487-23.177 51.663-51.664 51.663zm0-81.327c-16.356 0-29.664 13.308-29.664 29.664 1.63 39.352 57.705 39.341 59.328 0 0-16.356-13.307-29.664-29.664-29.664z"/><path d="m460.336 66.079h-269.398c-68.468 2.804-68.588 100.47 0 103.327h269.398c28.487 0 51.664-23.176 51.664-51.663s-23.177-51.664-51.664-51.664zm-299.063 51.664c0-16.356 13.308-29.664 29.664-29.664h148.424c16.356 0 29.663 13.308 29.663 29.664s-13.307 29.663-29.663 29.663h-148.423c-16.357 0-29.665-13.306-29.665-29.663zm299.063 29.663h-78.698c12.405-16.804 12.402-42.528-.007-59.327h78.706c39.349 1.628 39.343 57.703-.001 59.327z"/><path d="m51.664 307.664c-28.487 0-51.664-23.177-51.664-51.664 2.838-68.539 100.5-68.519 103.328 0 0 28.487-23.177 51.664-51.664 51.664zm0-81.328c-16.356 0-29.664 13.307-29.664 29.664 1.63 39.353 57.704 39.342 59.328 0 0-16.357-13.307-29.664-29.664-29.664z" fill="#0496FF"/><path d="m460.336 204.336h-269.398c-68.468 2.804-68.588 100.471 0 103.328h269.398c28.487 0 51.664-23.177 51.664-51.664s-23.177-51.664-51.664-51.664zm-299.063 51.664c0-16.356 13.308-29.664 29.664-29.664h208.403c16.356 0 29.664 13.308 29.664 29.664s-13.308 29.664-29.664 29.664h-208.402c-16.357 0-29.665-13.308-29.665-29.664zm299.063 29.664h-18.744c12.435-16.805 12.433-42.525 0-59.328h18.744c39.356 1.63 39.339 57.706 0 59.328z" fill="#0496FF"/><path d="m51.664 445.921c-28.487 0-51.664-23.177-51.664-51.664 2.838-68.538 100.501-68.518 103.328 0 0 28.487-23.177 51.664-51.664 51.664zm0-81.327c-16.356 0-29.664 13.306-29.664 29.663 1.63 39.353 57.704 39.342 59.328 0 0-16.357-13.307-29.663-29.664-29.663z"/><path d="m460.336 342.594h-269.398c-68.469 2.804-68.587 100.47 0 103.327h269.398c28.487 0 51.664-23.177 51.664-51.664s-23.177-51.663-51.664-51.663zm-299.063 51.663c0-16.356 13.308-29.663 29.664-29.663h97.594c16.356 0 29.664 13.307 29.664 29.663s-13.308 29.664-29.664 29.664h-97.594c-16.356 0-29.664-13.308-29.664-29.664zm299.063 29.664h-129.535c12.416-16.808 12.41-42.526-.013-59.327h129.548c16.356 0 29.664 13.307 29.664 29.663s-13.308 29.664-29.664 29.664z"/></svg>