<svg id="Capa_1" enable-background="new 0 0 512.001 512.001" height="512" viewBox="0 0 512.001 512.001" width="512" xmlns="http://www.w3.org/2000/svg" fill="#052438"><path d="m467.91 94.605-32.531-40.663c-2.087-2.61-5.248-4.129-8.589-4.129h-173.269c-38.931-23.323-90.295 6.025-89.847 51.665-.45 45.633 50.926 74.991 89.848 51.662h173.268c3.342 0 6.502-1.519 8.589-4.128l32.531-40.663c3.213-4.017 3.214-9.726 0-13.744zm-282.237 6.872c0-20.841 16.956-37.797 37.796-37.797 50.142 2.076 50.129 73.524 0 75.593-20.84 0-37.796-16.955-37.796-37.796zm235.829 29.663h-146.145c10.436-17.233 10.435-42.094 0-59.327h146.146l23.731 29.664z" fill="#0496FF"/><path d="m467.91 403.65-32.531-40.663c-2.087-2.609-5.248-4.128-8.589-4.128h-173.269c-38.931-23.323-90.295 6.024-89.848 51.664-.45 45.633 50.925 74.992 89.847 51.663h173.269c3.342 0 6.502-1.519 8.589-4.129l32.531-40.663c3.215-4.017 3.215-9.726.001-13.744zm-282.237 6.872c0-20.841 16.956-37.796 37.796-37.796 50.143 2.076 50.128 73.524 0 75.593-20.84 0-37.796-16.956-37.796-37.797zm235.829 29.664h-146.145c10.436-17.233 10.436-42.094 0-59.327h146.146l23.73 29.663z" fill="#0496FF"/><path d="m509.486 249-33.548-40.664c-2.09-2.533-5.202-4-8.485-4h-173.268c-35.15-21.079-81.867.862-88.817 40.664h-54.048c-1.948-13.385-7.399-25.641-15.384-35.827l54.946-57.598c-6.195-4.043-11.593-9.2-15.916-15.189l-54.946 57.599c-49.356-35.692-120.362.653-120.019 62.015-.345 61.358 70.675 97.711 120.019 62.015l54.946 57.599c4.322-5.989 9.721-11.146 15.916-15.189l-54.946-57.598c7.984-10.187 13.436-22.442 15.384-35.827h54.049c6.955 39.815 53.675 61.737 88.817 40.664h173.268c3.284 0 6.396-1.467 8.485-4l33.547-40.664c3.353-4.065 3.353-9.936 0-14zm-487.485 7c0-29.811 24.252-54.062 54.062-54.062 71.721 2.969 71.7 105.166 0 108.125-29.81-.001-54.062-24.253-54.062-54.063zm242.133 37.796c-20.841 0-37.797-16.956-37.797-37.797 2.077-50.143 73.525-50.128 75.594 0 0 20.841-16.956 37.797-37.797 37.797zm198.134-8.132h-146.247c10.436-17.234 10.436-42.095 0-59.328h146.247l24.473 29.664z"/></svg>