<svg id="Capa_1" enable-background="new 0 0 512.128 512.128" height="512" viewBox="0 0 512.128 512.128" width="512" xmlns="http://www.w3.org/2000/svg" fill="#052438"><path d="m418.49 197.436c20.781-100.5-59.605-198.574-162.427-197.426-102.804-1.152-183.226 96.934-162.424 197.426-55.33 26.817-93.575 83.55-93.575 149.051-.793 130.629 148.07 210.474 256 138.536 107.977 71.942 256.785-7.923 255.999-138.538.001-65.499-38.243-122.233-93.573-149.049zm-305.949-31.904c0-79.139 64.384-143.523 143.523-143.523 87.582-.836 156.667 80.887 141.586 167.04-45.976-15.737-102.397-7.772-141.586 18.901-39.182-26.672-95.617-34.639-141.586-18.901-1.266-7.655-1.937-15.509-1.937-23.517zm196.569 180.954c0 44.867-20.7 84.986-53.045 111.324-38.365-30.382-60.132-83.986-51.108-134.841 31.903 10.713 70.313 10.712 102.216 0 1.267 7.655 1.937 15.509 1.937 23.517zm-53.046-37.431c-16.02 0-31.434-2.64-45.833-7.505 8.693-26.303 24.797-49.259 45.833-66.388 21.035 17.129 37.14 40.085 45.833 66.388-14.399 4.865-29.813 7.505-45.833 7.505zm-66.131-16.174c-32.911-17.16-58.376-46.704-70.178-82.414 37.586-13.299 84.063-8.408 117.575 11.75-21.419 18.848-37.945 43.125-47.397 70.664zm84.866-70.663c33.508-20.158 79.994-25.05 117.575-11.75-11.802 35.709-37.267 65.253-70.178 82.414-9.452-27.54-25.978-51.817-47.397-70.664zm-109.212 267.791c-150.828-1.938-197.492-201.328-66.132-270.872 14.391 41.928 45.172 76.307 84.661 95.446-12.029 57.459 10.745 119.943 53.213 156.171-21.119 12.24-45.626 19.255-71.742 19.255zm180.954 0c-26.116 0-50.623-7.015-71.742-19.255 42.465-36.217 65.245-98.724 53.213-156.171 39.489-19.139 70.27-53.518 84.661-95.446 131.436 69.61 84.594 268.969-66.132 270.872z"/><g><path d="m434.986 356.47h-48.797c-14.578-.573-14.599-21.418 0-22h48.797c6.075 0 11 4.925 11 11s-4.925 11-11 11z" fill="#0496FF"/></g><g><path d="m418.72 405.266h-32.531c-6.075 0-11-4.925-11-11s4.925-11 11-11h32.531c14.583.575 14.595 21.42 0 22z" fill="#0496FF"/></g><g><path d="m125.94 356.47h-48.797c-14.578-.573-14.599-21.418 0-22h48.797c6.075 0 11 4.925 11 11s-4.925 11-11 11z" fill="#0496FF"/></g><g><path d="m125.94 405.266h-32.531c-6.075 0-11-4.925-11-11s4.925-11 11-11h32.531c14.583.575 14.595 21.42 0 22z" fill="#0496FF"/></g><g><path d="m280.463 96.221h-48.797c-14.579-.573-14.599-21.418 0-22h48.797c6.075 0 11 4.925 11 11s-4.925 11-11 11z" fill="#0496FF"/></g><g><path d="m272.33 145.017h-32.531c-6.075 0-11-4.925-11-11s4.925-11 11-11h32.531c14.583.575 14.595 21.42 0 22z" fill="#0496FF"/></g></svg>