<svg id="Capa_1" enable-background="new 0 0 512 512" height="512" viewBox="0 0 512 512" width="512" xmlns="http://www.w3.org/2000/svg" fill="#E6ECF2"><g id="Left_Arrow"><path d="m501 267h-490c-6.075 0-11-4.925-11-11s4.925-11 11-11h490c6.075 0 11 4.925 11 11s-4.925 11-11 11z"/><path d="m132.259 387c-2.796 0-5.593-1.059-7.737-3.181l-121.259-120c-2.088-2.067-3.263-4.881-3.263-7.819s1.175-5.752 3.263-7.819l121.259-120c4.318-4.273 11.283-4.237 15.556.082 4.273 4.318 4.237 11.283-.081 15.556l-113.359 112.181 113.358 112.181c4.318 4.273 4.355 11.238.081 15.556-2.15 2.174-4.984 3.263-7.818 3.263z" fill="#0496FF"/></g></svg>