<svg id="Capa_1" enable-background="new 0 0 512 512" height="512" viewBox="0 0 512 512" width="512" xmlns="http://www.w3.org/2000/svg" fill="#E6ECF2"><g id="Simplify"><path d="m218.627 427h-83.051c-28.962 0-52.525-22.878-52.525-51v-109h-72.051c-6.075 0-11-4.925-11-11s4.925-11 11-11h72.051v-109c0-28.122 23.563-51 52.525-51h166.102c28.962 0 52.525 22.878 52.525 51v80c0 28.122-23.563 51-52.525 51h-30.526v58h229.848c6.075 0 11 4.925 11 11s-4.925 11-11 11h-229.848v29c0 28.122-23.563 51-52.525 51zm-113.576-160v109c0 15.991 13.694 29 30.525 29h83.051c16.831 0 30.525-13.009 30.525-29v-29h-72.051c-6.075 0-11-4.925-11-11v-69zm83.051 58h61.051v-58h-61.051zm83.05-80h30.526c16.832 0 30.525-13.009 30.525-29v-80c0-15.991-13.694-29-30.525-29h-166.102c-16.832 0-30.525 13.009-30.525 29v109h61.051v-69c0-6.075 4.925-11 11-11h83.051c6.075 0 11 4.925 11 11v69zm-83.05 0h61.051v-58h-61.051z"/><path d="m417.951 427c-2.884 0-5.765-1.127-7.924-3.369-4.214-4.375-4.085-11.339.291-15.554l74.826-72.077-74.827-72.078c-4.375-4.215-4.505-11.178-.291-15.554 4.214-4.375 11.178-4.506 15.554-.291l83.051 80c2.152 2.074 3.369 4.934 3.369 7.922s-1.216 5.849-3.369 7.922l-83.051 80c-2.134 2.057-4.883 3.079-7.629 3.079z" fill="#0496FF"/></g></svg>