<svg id="Capa_1" enable-background="new 0 0 512.001 512.001" height="512" viewBox="0 0 512.001 512.001" width="512" xmlns="http://www.w3.org/2000/svg" fill="#E6ECF2"><g id="Swap_3_"><path d="m346.896 3.288c-4.261-4.33-11.223-4.391-15.557-.13l-309.338 304.182v-157.506c0-6.075-4.925-11-11-11s-11 4.925-11 11v183.75c-.1 5.903 5.093 11.109 11 11h186.864c6.075 0 11-4.925 11-11s-4.925-11-11-11h-159.988l308.888-303.74c4.331-4.259 4.39-11.224.131-15.556z"/><path d="m511.983 178.049c-.063-5.773-5.223-10.726-10.981-10.632h-186.865c-6.075 0-11 4.925-11 11s4.925 11 11 11h159.988l-308.887 303.74c-4.332 4.26-4.391 11.225-.131 15.557 2.153 2.189 4.997 3.287 7.844 3.287 2.784 0 5.57-1.051 7.712-3.157l309.338-304.182v157.506c0 6.075 4.925 11 11 11s11-4.925 11-11v-183.75c0-.124-.014-.245-.018-.369z" fill="#0496FF"/></g></svg>