<svg id="Capa_1" enable-background="new 0 0 512 512" height="512" viewBox="0 0 512 512" width="512" xmlns="http://www.w3.org/2000/svg" fill="#052438"><g id="Minimize"><path d="m384.729 512h-332.203c-28.963 0-52.526-23.563-52.526-52.525v-332.204c0-28.962 23.563-52.525 52.525-52.525h256.289c6.075 0 11 4.925 11 11s-4.925 11-11 11h-256.288c-16.832 0-30.526 13.693-30.526 30.525v332.204c0 16.831 13.694 30.525 30.526 30.525h332.204c16.832 0 30.525-13.694 30.525-30.525v-256.29c0-6.075 4.925-11 11-11s11 4.925 11 11v256.289c0 28.963-23.563 52.526-52.526 52.526z"/><path d="m508.778 3.222c-4.296-4.296-11.261-4.296-15.557 0l-388.17 388.171v-98.02c0-6.075-4.925-11-11-11s-11 4.925-11 11v124.576c-.107 5.904 5.096 11.108 11 11h124.576c6.075 0 11-4.925 11-11s-4.925-11-11-11h-98.02l388.171-388.17c4.296-4.296 4.296-11.261 0-15.557z" fill="#0496FF"/></g></svg>