<svg id="Capa_1" enable-background="new 0 0 512 512" height="512" viewBox="0 0 512 512" width="512" xmlns="http://www.w3.org/2000/svg" fill="#E6ECF2"><g id="Zigzag"><path d="m256 512c-6.075 0-11-4.925-11-11v-74.746c0-28.962 22.879-52.525 51-52.525h120c15.99 0 29-13.694 29-30.525 0-16.832-13.01-30.525-29-30.525h-320c-28.122 0-51-23.563-51-52.525 0-28.963 22.878-52.526 51-52.526h120c15.991 0 29-13.693 29-30.525v-166.103c0-6.075 4.925-11 11-11s11 4.925 11 11v166.102c0 28.962-22.878 52.525-51 52.525h-120c-15.991 0-29 13.693-29 30.525s13.009 30.526 29 30.526h320c28.121 0 51 23.562 51 52.525s-22.879 52.526-51 52.526h-120c-15.99 0-29 13.694-29 30.525v74.746c0 6.075-4.925 11-11 11z"/><path d="m336.001 105.051c-2.884 0-5.765-1.127-7.923-3.369l-72.078-74.827-72.078 74.827c-4.214 4.376-11.178 4.506-15.554.291s-4.506-11.178-.291-15.554l80-83.051c2.074-2.152 4.934-3.368 7.923-3.368 2.988 0 5.849 1.216 7.922 3.369l80 83.051c4.215 4.375 4.085 11.339-.291 15.554-2.134 2.055-4.884 3.077-7.63 3.077z" fill="#0496FF"/></g></svg>