<svg id="Capa_1" enable-background="new 0 0 511.992 511.992" height="512" viewBox="0 0 511.992 511.992" width="512" xmlns="http://www.w3.org/2000/svg" fill="#052438"><path d="m296.664 494.714h-81.328c-6.075 0-11-4.925-11-11v-371.241h-21.531c-9.695.039-14.693-11.918-7.778-18.778 0 0 73.195-73.195 73.195-73.195 4.296-4.296 11.261-4.296 15.557 0l73.195 73.195c3.146 3.146 4.087 7.877 2.384 11.988s-5.713 6.791-10.163 6.791h-21.531v371.241c0 6.074-4.924 10.999-11 10.999zm-70.328-22h59.328v-371.241c0-6.075 4.925-11 11-11h5.975l-46.639-46.639-46.639 46.639h5.975c6.075 0 11 4.925 11 11z" fill="#0496FF"/><path d="m508.724 174.97-74.211-73.195c-4.304-4.246-11.227-4.222-15.503.053l-73.195 73.195c-6.89 6.837-1.954 18.815 7.778 18.778h21.531v29.664c0 21.836-7.406 30.733-30.316 52.577-11.366 10.837-25.528 24.358-37.144 42.39v75.821c.003-96.06 90.323-99.818 89.462-170.788-.001-.001-.001-40.664-.001-40.664 0-6.075-4.925-11-11-11h-5.975l46.692-46.692 47.341 46.692h-6.73c-6.075 0-11 4.925-11 11v40.664c-.023 102.933-89.725 108.507-89.462 170.788.001.001.001 78.461.001 78.461h-59.328v11c0 6.075-4.925 11-11 11h81.328c6.075 0 11-4.925 11-11v-89.46c0-16.771 6.517-23.785 27.12-43.429 24.825-23.669 62.34-59.438 62.34-127.36v-29.664h22.548c9.76.033 14.696-12.002 7.724-18.831z"/><path d="m204.336 483.714v-11h-59.328v-78.46c.38-62.064-89.513-68.039-89.459-170.789-.001.001-.001-40.663-.001-40.663 0-6.075-4.925-11-11-11h-6.73l47.341-46.692 46.692 46.692h-5.975c-6.075 0-11 4.925-11 11v40.664c-.946 70.82 89.489 74.817 89.46 170.789v-75.809c-11.616-18.037-25.777-31.564-37.144-42.403-22.91-21.844-30.316-30.741-30.316-52.577v-29.664h21.531c4.449 0 8.46-2.68 10.163-6.791s.762-8.842-2.384-11.988l-73.196-73.196c-4.276-4.275-11.199-4.298-15.503-.053l-74.211 73.196c-3.178 3.134-4.146 7.877-2.453 12.006 1.694 4.129 5.714 6.826 10.177 6.826h22.548v29.664c0 67.921 37.516 103.69 62.34 127.36 20.603 19.644 27.12 26.658 27.12 43.429v89.46c0 6.075 4.925 11 11 11h81.328c-6.075-.001-11-4.926-11-11.001z"/></svg>