<svg id="Capa_1" enable-background="new 0 0 512.002 512.002" height="512" viewBox="0 0 512.002 512.002" width="512" xmlns="http://www.w3.org/2000/svg" fill="#052438"><g id="Arrows_2_"><path d="m346.832 331.274-83.039-83.038c-4.097-4.267-11.484-4.267-15.581 0l-83.039 83.038c-4.296 4.296-4.296 11.261 0 15.557 4.296 4.295 11.261 4.296 15.557 0l64.272-64.272v218.443c0 6.075 4.925 11 11 11s11-4.925 11-11v-218.444l64.272 64.272c2.148 2.148 4.963 3.222 7.778 3.222s5.63-1.074 7.778-3.222c4.298-4.295 4.298-11.26.002-15.556z" fill="#0496FF"/><path d="m205.054 189.498-167.496-167.496h98.02c6.075 0 11-4.925 11-11s-4.925-11-11-11h-124.571c-5.907-.112-11.117 5.099-11.005 11.005v124.57c0 6.075 4.925 11 11 11s11-4.925 11-11v-98.018l167.496 167.496c2.148 2.148 4.963 3.222 7.778 3.222s5.63-1.074 7.778-3.222c4.296-4.297 4.296-11.261 0-15.557z"/><path d="m511.947 9.914c-.459-5.488-5.443-10.001-10.95-9.913h-124.571c-6.075 0-11 4.925-11 11s4.925 11 11 11h98.02l-167.497 167.497c-4.296 4.296-4.296 11.261 0 15.557 2.148 2.148 4.963 3.222 7.778 3.222s5.63-1.074 7.778-3.222l167.497-167.497v98.02c0 6.075 4.925 11 11 11s11-4.925 11-11v-124.572c0-.364-.019-.729-.055-1.092z"/></g></svg>