<svg id="Capa_1" enable-background="new 0 0 512 512" height="512" viewBox="0 0 512 512" width="512" xmlns="http://www.w3.org/2000/svg" fill="#E6ECF2"><g id="Stairs"><path d="m135.576 467h-124.576c-6.075 0-11-4.925-11-11s4.925-11 11-11h113.576v-149c0-6.075 4.925-11 11-11h155.102v-149c0-6.075 4.925-11 11-11h199.322c6.075 0 11 4.925 11 11s-4.925 11-11 11h-188.322v149c0 6.075-4.925 11-11 11h-155.102v149c0 6.076-4.925 11-11 11z"/><path d="m417.951 227c-2.884 0-5.765-1.127-7.924-3.369-4.214-4.375-4.084-11.339.291-15.553l74.827-72.078-74.827-72.078c-4.375-4.214-4.505-11.178-.291-15.553 4.214-4.376 11.177-4.508 15.554-.291l83.051 80c2.152 2.073 3.369 4.934 3.369 7.922s-1.216 5.849-3.369 7.922l-83.051 80c-2.135 2.056-4.884 3.078-7.63 3.078z" fill="#0496FF"/></g></svg>