<svg id="Capa_1" enable-background="new 0 0 511.445 511.445" height="512" viewBox="0 0 511.445 511.445" width="512" xmlns="http://www.w3.org/2000/svg" fill="#052438"><path d="m461.907 44.226c-.056-9.731-11.885-14.595-18.776-7.733l-22.993 22.993c-86.884-75.192-224.826-79.756-316.186-9.949h40.886c84.407-46.882 197.71-33.132 268.388 33.132 2.105 1.919 4.76 2.872 7.412 2.872 2.821 0 5.637-1.079 7.78-3.222l11.492-11.492v92.568h-92.568l16.987-16.987c4.486-4.301 4.201-12.154-.597-16.111-48.012-42.233-120.803-52.15-178.336-24.415v24.727c47.499-27.425 110.672-23.709 154.649 8.969-.041.046-27.046 27.037-27.079 27.084-6.883 6.504-1.644 19.05 7.819 18.733h130.125c6.075 0 11-4.925 11-11 .003-.045-.001-130.128-.003-130.169z"/><path d="m451.96 420.138c75.192-86.884 79.756-224.826 9.949-316.186v40.875c46.883 84.408 33.134 197.719-33.132 268.399-3.961 4.344-3.807 11.034.349 15.192l11.492 11.492h-92.568v-92.568l16.987 16.987c4.302 4.484 12.154 4.201 16.111-.597 42.233-48.013 52.154-120.806 24.405-178.336h-24.746c27.454 47.494 23.743 110.667-8.941 154.649l-27.038-27.038c-6.821-6.879-18.818-1.967-18.778 7.778v130.124c0 6.075 4.925 11 11 11h130.125c9.725.033 14.675-11.928 7.778-18.778z" fill="#0496FF"/><path d="m255.723 489.723c-58.485 0-114.421-21.644-157.503-60.944-4.343-3.962-11.034-3.808-15.191.348l-11.492 11.492v-92.569h92.568l-16.987 16.987c-4.486 4.301-4.201 12.154.597 16.111 48.013 42.233 120.807 52.155 178.336 24.403v-24.716c-47.499 27.425-110.672 23.709-154.649-8.969l27.038-27.038c6.879-6.82 1.967-18.818-7.778-18.778h-130.124c-6.075 0-11 4.925-11 11v130.125c-.316 9.508 12.28 14.722 18.778 7.778l22.993-22.993c86.884 75.192 224.826 79.756 316.187 9.949h-40.901c-33.785 18.271-71.515 27.814-110.872 27.814z"/><path d="m21.723 255.723c0-58.485 21.644-114.421 60.944-157.503 3.962-4.343 3.809-11.034-.348-15.191l-11.492-11.493h92.568v92.568l-16.987-16.987c-4.297-4.483-12.156-4.202-16.111.597-42.232 48.012-52.15 120.803-24.417 178.336h24.753c-27.448-47.496-23.737-110.668 8.946-154.65l27.038 27.039c6.82 6.879 18.819 1.967 18.778-7.778v-130.124c0-6.075-4.925-11-11-11h-130.124c-9.507-.317-14.723 12.281-7.778 18.778l22.993 22.993c-75.192 86.884-79.756 224.826-9.949 316.185v-40.881c-18.277-33.788-27.814-71.526-27.814-110.889z" fill="#0496FF"/></svg>