<svg id="Capa_1" enable-background="new 0 0 511.927 511.927" height="512" viewBox="0 0 511.927 511.927" width="512" xmlns="http://www.w3.org/2000/svg" fill="#052438"><g id="Split_3_"><path d="m255.964 286.489c-6.075 0-11 4.925-11 11v20.763c0 28.28-21.981 51.288-49 51.288s-49-23.008-49-51.288v-280.014l61.078 63.407c2.159 2.241 5.04 3.369 7.924 3.369 2.746 0 5.496-1.022 7.63-3.078 4.376-4.215 4.506-11.178.291-15.554l-80-83.051c-4.075-4.443-11.77-4.443-15.845 0l-80 83.051c-4.215 4.376-4.084 11.339.291 15.554 4.376 4.215 11.34 4.084 15.554-.291l61.078-63.407v280.013c0 40.411 31.851 73.288 71 73.288s71-32.877 71-73.288v-20.763c-.001-6.074-4.926-10.999-11.001-10.999z" fill="#0496FF"/><path d="m463.595 409.99c-4.375-4.214-11.339-4.084-15.554.291l-61.078 63.407v-280.013c0-40.411-31.851-73.288-71-73.288s-71 32.877-71 73.288v20.763c0 6.075 4.925 11 11 11s11-4.925 11-11v-20.763c0-28.28 21.981-51.288 49-51.288s49 23.008 49 51.288v280.013l-61.078-63.407c-4.215-4.376-11.178-4.506-15.554-.291-4.375 4.215-4.506 11.178-.291 15.554l80 83.051c4.075 4.443 11.77 4.443 15.845 0l80-83.051c4.216-4.375 4.085-11.339-.29-15.554z"/></g></svg>