<svg id="Capa_1" enable-background="new 0 0 512 512" height="512" viewBox="0 0 512 512" width="512" xmlns="http://www.w3.org/2000/svg" fill="#E6ECF2"><g id="Turn_Left_2_"><path d="m361.569 467h-350.569c-6.075 0-11-4.925-11-11s4.925-11 11-11h350.569c70.817 0 128.431-57.869 128.431-129 0-71.13-57.614-128.999-128.431-128.999h-322.534c-6.075 0-11-4.925-11-11s4.925-11 11-11h322.535c82.947 0 150.43 67.738 150.43 150.999 0 83.262-67.483 151-150.431 151z"/><g id="Right_Arrow_4_"><path d="m157.423 307c-2.841 0-5.679-1.093-7.831-3.275l-118.367-120c-4.225-4.283-4.225-11.166 0-15.449l118.367-120c4.266-4.324 11.231-4.373 15.556-.106 4.325 4.266 4.373 11.23.106 15.556l-110.748 112.274 110.748 112.275c4.267 4.325 4.219 11.29-.106 15.556-2.144 2.114-4.935 3.169-7.725 3.169z" fill="#0496FF"/></g></g></svg>