<svg id="Capa_1" enable-background="new 0 0 512.053 512.053" height="512" viewBox="0 0 512.053 512.053" width="512" xmlns="http://www.w3.org/2000/svg" fill="#E6ECF2"><g id="Shuffle_4_"><path d="m92.742 512.026c-6.075 0-11-4.925-11-11v-12.523c0-67.723 28.905-132.791 79.304-178.518 4.499-4.083 11.456-3.744 15.538.755 4.082 4.5 3.744 11.456-.755 15.538-45.812 41.566-72.087 100.694-72.087 162.225v12.523c0 6.075-4.925 11-11 11z" fill="#0496FF"/><path d="m508.822 84.207c-.787-.707-81.659-81.125-82.453-81.697-2.644-2.163-6.311-3.017-9.623-2.146-1.918.455-3.673 1.483-5.082 2.851l-81.667 80.992c-4.314 4.278-4.343 11.243-.065 15.556 4.278 4.314 11.243 4.343 15.556.065l62.921-62.401c3.83 67.9-12.51 120.112-72.089 172.643-4.497 4.083-4.835 11.039-.753 15.539 4.092 4.509 11.052 4.828 15.538.755 64.467-56.938 83.372-114.543 79.304-188.937 4.477 2.52 65.089 69.367 70.665 65.592 9.429.331 14.807-12.289 7.748-18.812z" fill="#0496FF"/><path d="m383.019 345.219c-103.111-133.758-286.446-73.309-279.277-307.792l62.921 62.401c9.939 10.157 25.808-5.691 15.49-15.622.001.001-81.666-80.991-81.666-80.991-4.101-4.207-11.391-4.209-15.492 0 0 0-81.666 80.992-81.666 80.992-10.235 9.861 5.474 25.85 15.493 15.62-.001.001 62.92-62.4 62.92-62.4-18.059 300.465 332.402 173.102 326.668 463.599-.001 6.075 4.924 11 10.999 11 12.899-.247 11.117-14.539 10.999-23.523.001-51.915-16.386-101.462-47.389-143.284z"/></g></svg>