<svg id="Capa_1" enable-background="new 0 0 512 512" height="512" viewBox="0 0 512 512" width="512" xmlns="http://www.w3.org/2000/svg" fill="#052438"><path d="m256 265.983c-1.794 0-3.587-.438-5.215-1.315l-105.727-56.93c-3.563-1.918-5.785-5.638-5.785-9.685v-130.123c0-4.047 2.222-7.767 5.785-9.685l105.727-56.93c3.256-1.753 7.174-1.753 10.43 0l105.727 56.93c3.563 1.918 5.785 5.638 5.785 9.685v130.124c0 4.047-2.222 7.767-5.785 9.685l-105.727 56.93c-1.628.876-3.421 1.314-5.215 1.314zm-94.727-74.5 94.727 51.007 94.727-51.007v-116.983l-94.727-51.007-94.727 51.007z"/><path d="m116.727 512c-1.794 0-3.587-.438-5.215-1.315l-105.727-56.93c-3.563-1.918-5.785-5.638-5.785-9.685v-130.124c0-4.047 2.222-7.767 5.785-9.685l105.727-56.93c3.254-1.753 7.174-1.754 10.43 0l105.726 56.93c3.563 1.918 5.785 5.638 5.785 9.685v130.124c0 4.047-2.222 7.767-5.785 9.685l-105.726 56.93c-1.629.876-3.421 1.315-5.215 1.315zm-94.727-74.5 94.727 51.007 94.726-51.007v-116.984l-94.726-51.007-94.727 51.007z" fill="#0496FF"/><path d="m395.273 512c-1.794 0-3.587-.438-5.215-1.315l-105.726-56.93c-3.563-1.918-5.785-5.638-5.785-9.685v-130.124c0-4.047 2.222-7.767 5.785-9.685l105.726-56.93c3.256-1.753 7.174-1.753 10.43 0l105.727 56.93c3.563 1.918 5.785 5.638 5.785 9.685v130.124c0 4.047-2.222 7.767-5.785 9.685l-105.727 56.93c-1.627.876-3.421 1.315-5.215 1.315zm-94.725-74.5 94.726 51.007 94.726-51.007v-116.984l-94.727-51.007-94.726 51.007v116.984z" fill="#0496FF"/><path d="m288.531 119.593h-65.062c-14.574-.571-14.604-21.416 0-22h65.062c6.075 0 11 4.925 11 11s-4.925 11-11 11z"/><path d="m272.266 168.39h-32.531c-6.075 0-11-4.925-11-11s4.925-11 11-11h32.531c14.582.575 14.595 21.42 0 22z"/><path d="m149.257 365.61h-65.062c-14.574-.571-14.603-21.416 0-22h65.061c6.075 0 11 4.925 11 11s-4.924 11-10.999 11z"/><path d="m132.992 414.407h-32.531c-6.075 0-11-4.925-11-11s4.925-11 11-11h32.531c14.583.575 14.595 21.419 0 22z"/><path d="m427.805 365.61h-65.062c-14.574-.571-14.603-21.416 0-22h65.061c6.075 0 11 4.925 11 11s-4.924 11-10.999 11z"/><path d="m411.539 414.407h-32.531c-6.075 0-11-4.925-11-11s4.925-11 11-11h32.531c14.583.575 14.595 21.419 0 22z"/></svg>