<svg id="Capa_1" enable-background="new 0 0 511.942 511.942" height="512" viewBox="0 0 511.942 511.942" width="512" xmlns="http://www.w3.org/2000/svg" fill="#E6ECF2"><path d="m501 244.971h-95.743v-154.235c-6.601-3.543-15.399-3.542-22 0v154.234h-238.249v-154.234c-6.601-3.543-15.399-3.542-22 0v154.234h-101.008v-192.319c0-6.075-4.925-11-11-11s-11 4.925-11 11v406.639c0 6.075 4.925 11 11 11s11-4.925 11-11v-192.319h231.133v154.234c6.601 3.543 15.399 3.542 22 0v-154.234h225.867c14.573-.57 14.604-21.416 0-22z"/><g fill="#0496FF"><path d="m358.447 123.672c7.105-17.586 20.594-39.98 41.771-34.851 39.679 13.582 46.933 101.336 48.02 156.15h22.006c-1.527-71.94-11.797-175.702-75.986-178.922-64.227 3.293-74.424 106.843-75.987 178.922h22.006c.765-51.951 7.007-93.733 18.17-121.299z"/><path d="m98.198 123.672c5.102-12.599 13.195-27.066 24.81-32.936 6.429-3.34 14.323-3.579 20.903-.518 36.388 19.98 42.676 98.246 44.078 154.753h22.006c-1.527-71.94-11.797-175.702-75.986-178.922-64.234 3.294-74.415 106.844-75.978 178.922h22.003c.766-51.947 7.002-93.735 18.164-121.299z"/><path d="m299.943 388.27c-7.106 17.586-20.595 39.98-41.771 34.851-39.679-13.58-46.934-101.337-48.02-156.15h-22.006c1.528 71.939 11.797 175.702 75.986 178.922 64.229-3.293 74.424-106.845 75.988-178.922h-22.006c-.766 51.951-7.008 93.732-18.171 121.299z"/></g></svg>