<svg id="Capa_1" enable-background="new 0 0 512.001 512.001" height="512" viewBox="0 0 512.001 512.001" width="512" xmlns="http://www.w3.org/2000/svg" fill="#052438"><g id="Intersect_Up"><path d="m501.001 512.001c-2.838 0-5.675-1.092-7.827-3.271l-187.736-190.092c-4.268-4.322-4.225-11.287.097-15.556 4.323-4.27 11.288-4.226 15.556.097l187.736 190.093c4.269 4.322 4.225 11.287-.097 15.556-2.143 2.117-4.937 3.173-7.729 3.173z" fill="#0496FF"/><path d="m43.399 22.001h155.908c6.075 0 11-4.925 11-11s-4.925-11-11-11h-182.232c-5.907-.099-11.105 5.09-11 11v184.519c0 6.075 4.925 11 11 11s11-4.925 11-11v-157.726l162.835 164.879c2.152 2.179 4.989 3.271 7.827 3.271 2.792 0 5.585-1.057 7.729-3.174 4.322-4.269 4.366-11.233.097-15.556z" fill="#0496FF"/><path d="m505.925 10.969c.094-5.897-5.108-11.066-10.998-10.967h-182.232c-6.075 0-11 4.925-11 11s4.925 11 11 11h155.908l-465.429 471.27c-4.268 4.322-4.225 11.287.097 15.556 2.144 2.117 4.937 3.174 7.729 3.174 2.838 0 5.675-1.092 7.827-3.271l465.1-470.937v157.726c0 6.075 4.925 11 11 11s11-4.925 11-11v-184.519c0-.011-.002-.022-.002-.032z"/></g></svg>