<svg id="Capa_1" enable-background="new 0 0 511.99 511.99" height="512" viewBox="0 0 511.99 511.99" width="512" xmlns="http://www.w3.org/2000/svg" fill="#052438"><path d="m510.196 278.452c-2.032-3.107-5.494-4.979-9.206-4.979h-440.187c-4.37 0-8.326 2.587-10.078 6.591l-49.813 113.857c-1.987 4.418-.634 9.95 3.159 12.961 0 0 90.477 73.195 90.477 73.195 5.36 4.56 14.283 2.396 16.97-4.084 0 0 29.628-66.663 29.628-66.663h310.03c4.37 0 8.326-2.587 10.078-6.591l49.813-113.858c1.488-3.401 1.16-7.323-.871-10.429zm-412.958 175.504-55.162-44.625h74.995zm346.744-66.625c-77.099 0-344.038 0-416.173 0l40.188-91.858h416.173z"/><path d="m174.662 352.402h203.319c6.075 0 11-4.925 11-11s-4.925-11-11-11h-203.319c-14.534.551-14.642 21.4 0 22z"/><g fill="#0496FF"><path d="m510.196 34.468c-2.032-3.107-5.494-4.979-9.206-4.979h-440.187c-4.37 0-8.326 2.587-10.078 6.591l-49.813 113.858c-1.987 4.418-.634 9.95 3.159 12.961 0 0 90.477 73.195 90.477 73.195 5.36 4.56 14.283 2.396 16.97-4.084 0 0 29.628-66.663 29.628-66.663h310.03c4.37 0 8.326-2.587 10.078-6.591l49.813-113.858c1.488-3.401 1.16-7.323-.871-10.43zm-412.958 175.504-55.162-44.625h74.995zm346.744-66.625h-309.763c-.013 0-106.381 0-106.41 0l40.188-91.858h416.173z"/><path d="m174.662 108.418h203.319c6.075 0 11-4.925 11-11s-4.925-11-11-11h-203.319c-14.534.552-14.642 21.401 0 22z"/><circle cx="109.601" cy="97.399" r="10.996"/></g><circle cx="109.601" cy="341.401" r="10.996"/></svg>