<svg id="Capa_1" enable-background="new 0 0 512 512" height="512" viewBox="0 0 512 512" width="512" xmlns="http://www.w3.org/2000/svg" fill="#E6ECF2"><path d="m245 372.726h22v43.062h-22z" fill="#0496FF"/><g><g fill="none"><path d="m196.203 288.531v-65.062c0-6.075 4.925-11 11-11h37.797v-51.195h-148.789v51.195h37.797c6.075 0 11 4.925 11 11v65.062c0 6.075-4.925 11-11 11h-37.797v51.195h148.789v-51.195h-37.797c-6.075 0-11-4.925-11-11z"/><path d="m267 161.274v51.195h37.797c6.075 0 11 4.925 11 11v65.062c0 6.075-4.925 11-11 11h-37.797v51.195h148.788v-51.195h-37.796c-6.075 0-11-4.925-11-11v-65.062c0-6.075 4.925-11 11-11h37.796v-51.195z"/><path d="m201.938 22h108.125v52.211h-108.125z"/><path d="m218.203 234.469h75.594v43.062h-75.594z"/><path d="m201.938 437.789h108.125v52.211h-108.125z"/><path d="m388.992 234.469h75.593v43.062h-75.593z"/><path d="m47.415 234.469h75.593v43.062h-75.593z"/></g><path d="m96.211 161.274h148.789v51.195h22v-51.195h148.788v51.195h22v-62.195c0-6.075-4.925-11-11-11h-159.788v-43.063h-22v43.062h-159.789c-6.075 0-11 4.925-11 11v62.195h22z" fill="#0496FF"/><path d="m415.788 350.726h-148.788v-51.195h-22v51.195h-148.789v-51.195h-22v62.195c0 6.075 4.925 11 11 11h159.789v43.062h22v-43.062h159.788c6.075 0 11-4.925 11-11v-62.195h-22z" fill="#0496FF"/><path d="m321.062 96.211c6.075 0 11-4.925 11-11v-74.211c0-6.075-4.925-11-11-11h-130.124c-6.075 0-11 4.925-11 11v74.211c0 6.075 4.925 11 11 11h54.062 22zm-119.124-74.211h108.125v52.211h-108.125z"/><path d="m190.938 415.789c-6.075 0-11 4.925-11 11v74.211c0 6.075 4.925 11 11 11h130.125c6.075 0 11-4.925 11-11v-74.211c0-6.075-4.925-11-11-11h-54.063-22zm119.124 74.211h-108.124v-52.211h108.125v52.211z"/><path d="m475.585 212.469h-37.797-22-37.796c-6.075 0-11 4.925-11 11v65.062c0 6.075 4.925 11 11 11h37.796 22 37.797c6.075 0 11-4.925 11-11v-65.062c0-6.075-4.925-11-11-11zm-11 65.062h-75.593v-43.062h75.593z"/><path d="m315.797 288.531v-65.062c0-6.075-4.925-11-11-11h-37.797-22-37.797c-6.075 0-11 4.925-11 11v65.062c0 6.075 4.925 11 11 11h37.797 22 37.797c6.075 0 11-4.925 11-11zm-22-11h-75.594v-43.062h75.594z"/><path d="m134.008 299.531c6.075 0 11-4.925 11-11v-65.062c0-6.075-4.925-11-11-11h-37.797-22-37.796c-6.075 0-11 4.925-11 11v65.062c0 6.075 4.925 11 11 11h37.796 22zm-86.593-65.062h75.593v43.062h-75.593z"/></g></svg>