<svg id="Capa_1" enable-background="new 0 0 511.923 511.923" height="512" viewBox="0 0 511.923 511.923" width="512" xmlns="http://www.w3.org/2000/svg" fill="#052438"><g id="Resize_1_"><path d="m415.961 286.485h-320c-6.075 0-11 4.925-11 11s4.925 11 11 11h149v165.199l-61.078-63.407c-4.215-4.375-11.178-4.506-15.554-.291-4.375 4.215-4.506 11.178-.291 15.554l80 83.051c4.075 4.443 11.77 4.443 15.845 0l80-83.051c4.215-4.375 4.084-11.339-.291-15.554-4.375-4.214-11.339-4.084-15.554.291l-61.078 63.407v-165.199h149c6.075 0 11-4.925 11-11s-4.923-11-10.999-11z"/><path d="m415.961 203.434h-149v-165.198l61.078 63.406c2.159 2.241 5.04 3.369 7.924 3.369 2.746 0 5.496-1.022 7.63-3.078 4.375-4.215 4.505-11.178.291-15.554l-80-83.05c-4.035-4.439-11.81-4.439-15.845 0l-80 83.05c-4.214 4.376-4.084 11.339.291 15.554 4.375 4.214 11.339 4.083 15.554-.291l61.078-63.406v165.198h-149c-6.075 0-11 4.925-11 11s4.925 11 11 11h320c6.075 0 11-4.925 11-11s-4.925-11-11.001-11z" fill="#0496FF"/></g></svg>