<svg id="Capa_1" enable-background="new 0 0 504 504" viewBox="0 0 504 504" xmlns="http://www.w3.org/2000/svg" fill="#052438"><g id="Eye_1_"><g><path d="m132 504c-6.075 0-11-4.925-11-11v-31c0-2.918 1.159-5.715 3.222-7.778l26.778-26.778v-42.584c0-6.075 4.925-11 11-11s11 4.925 11 11v47.14c0 2.917-1.159 5.715-3.222 7.778l-26.778 26.778v26.444c0 6.075-4.925 11-11 11z"/></g><g><path d="m342 129.814c-6.075 0-11-4.925-11-11v-46.814c0-2.917 1.159-5.715 3.222-7.778l26.778-26.778v-26.444c0-6.075 4.925-11 11-11s11 4.925 11 11v31c0 2.917-1.159 5.715-3.222 7.778l-26.778 26.778v42.258c0 6.075-4.925 11-11 11z"/></g><path d="m252 151c-55.691 0-101 45.308-101 101s45.309 101 101 101 101-45.308 101-101-45.308-101-101-101zm11 179.217v-48.217h-22v48.217c-34.773-4.868-62.35-32.445-67.217-67.217h48.217v-22h-48.217c4.868-34.773 32.445-62.35 67.217-67.217v48.217h22v-48.217c34.773 4.868 62.35 32.445 67.217 67.217h-48.217v22h48.217c-4.867 34.773-32.444 62.35-67.217 67.217z"/><g><path d="m252 504c-6.075 0-11-4.925-11-11v-86.281c0-6.075 4.925-11 11-11s11 4.925 11 11v86.281c0 6.075-4.925 11-11 11z"/></g><g><path d="m252 109.362c-6.075 0-11-4.925-11-11v-87.362c0-6.075 4.925-11 11-11s11 4.925 11 11v87.362c0 6.075-4.925 11-11 11z"/></g><g><path d="m162 129.814c-6.075 0-11-4.925-11-11v-42.258l-26.778-26.778c-2.063-2.063-3.222-4.861-3.222-7.778v-31c0-6.075 4.925-11 11-11s11 4.925 11 11v26.444l26.778 26.778c2.063 2.063 3.222 4.861 3.222 7.778v46.814c0 6.075-4.925 11-11 11z"/></g><g><path d="m372 504c-6.075 0-11-4.925-11-11v-26.444l-26.778-26.778c-2.063-2.063-3.222-4.86-3.222-7.778v-46.14c0-6.075 4.925-11 11-11s11 4.925 11 11v41.584l26.778 26.778c2.062 2.063 3.222 4.861 3.222 7.778v31c0 6.075-4.925 11-11 11z"/></g><path d="m72 61c-6.075 0-11 4.925-11 11v49h-50c-6.075 0-11 4.925-11 11s4.925 11 11 11h50v39.834c0 6.075 4.925 11 11 11s11-4.925 11-11v-50.834-60c0-6.075-4.925-11-11-11z"/><path d="m493 121h-50v-49c0-6.075-4.925-11-11-11s-11 4.925-11 11v60 48.372c0 6.075 4.925 11 11 11s11-4.925 11-11v-37.372h50c6.075 0 11-4.925 11-11s-4.925-11-11-11z"/><path d="m72 313.523c-6.075 0-11 4.925-11 11v36.477h-50c-6.075 0-11 4.925-11 11s4.925 11 11 11h50v49c0 6.075 4.925 11 11 11s11-4.925 11-11v-60-47.477c0-6.075-4.925-11-11-11z"/><path d="m493 361h-50v-36.747c0-6.075-4.925-11-11-11s-11 4.925-11 11v47.747 60c0 6.075 4.925 11 11 11s11-4.925 11-11v-49h50c6.075 0 11-4.925 11-11s-4.925-11-11-11z"/><g><path d="m252 413c-31.92 0-65.027-8.261-98.4-24.553-26.329-12.852-52.898-30.718-78.971-53.101-44.16-37.911-71.405-75.327-72.543-76.901-2.795-3.866-2.78-9.092.037-12.941 1.99-2.72 49.562-67.133 120.072-112.148 44.028-28.105 87.7-42.356 129.805-42.356 31.92 0 65.027 8.261 98.4 24.552 26.329 12.852 52.898 30.718 78.971 53.101 44.16 37.912 71.405 75.327 72.543 76.901 2.771 3.832 2.782 9.007.028 12.851-51.086 71.316-147.199 154.595-249.942 154.595zm-227.117-160.966c9.623 12.182 32.68 39.725 64.447 66.938 38.36 32.859 97.72 72.028 162.67 72.028 91.342 0 178.196-73.337 227.258-138.855-9.536-12.089-32.662-39.77-64.588-67.117-38.359-32.859-97.72-72.028-162.67-72.028-37.843 0-77.532 13.088-117.967 38.9-54.435 34.749-95.398 82.889-109.15 100.134zm103.231-109.406h.01z" fill="#0496FF"/></g><g><path d="m252 293c-22.607 0-41-18.393-41-41s18.393-41 41-41 41 18.393 41 41-18.392 41-41 41zm0-60c-10.477 0-19 8.523-19 19s8.523 19 19 19 19-8.523 19-19-8.523-19-19-19z" fill="#0496FF"/></g></g><g/><g/><g/><g/><g/><g/><g/><g/><g/><g/><g/><g/><g/><g/><g/></svg>