<svg id="Capa_1" enable-background="new 0 0 504 504" viewBox="0 0 504 504" xmlns="http://www.w3.org/2000/svg" fill="#E6ECF2"><g><g><path d="m192 504c-18.862 0-34.791-12.803-39.55-30.176-1.82.117-3.638.176-5.45.176-22.972 0-44.746-9.123-61.312-25.689-16.565-16.565-25.688-38.339-25.688-61.311 0-2.66.136-5.332.412-8.046-35.575-11.013-60.412-43.925-60.412-81.954 0-20.23 7.344-39.793 20.471-55.259-12.987-13.18-20.471-31.028-20.471-49.741 0-24.001 11.991-45.872 31.811-58.949-1.182-5.831-1.811-11.683-1.811-17.051 0-47.421 38.58-86 86-86 3.541 0 7.382.263 11.211.751 9.371-18.727 28.339-30.751 49.789-30.751 30.878 0 56 25.121 56 56v136c0 6.075-4.925 11-11 11s-11-4.925-11-11v-136c0-18.748-15.252-34-34-34-15.002 0-28.012 9.765-32.373 24.298-1.67 5.567-7.385 8.873-13.041 7.55-4.947-1.157-10.774-1.848-15.586-1.848-35.29 0-64 28.71-64 64 0 5.844 1.101 12.868 3.021 19.271 1.539 5.134-.846 10.629-5.646 13.012-16.886 8.382-27.375 25.132-27.375 43.717 0 15.845 7.808 30.804 20.887 40.017 2.751 1.938 4.464 5.028 4.649 8.387.185 3.36-1.177 6.619-3.698 8.848-14.083 12.447-21.838 29.404-21.838 47.748 0 31.003 22.211 57.434 52.813 62.848 2.955.523 5.568 2.23 7.233 4.726 1.666 2.496 2.239 5.565 1.588 8.494-1.099 4.945-1.634 9.502-1.634 13.932 0 35.234 29.767 65 65 65 4.341 0 8.743-.457 13.085-1.358 3.345-.694 6.823.205 9.412 2.434s3.996 5.534 3.806 8.945c-.043.777-.155 1.468-.274 2.029.547 9.991 8.846 17.95 18.971 17.95 10.477 0 19-8.523 19-19v-151c0-6.075 4.925-11 11-11s11 4.925 11 11v151c0 22.607-18.393 41-41 41z" fill="#0496FF"/></g><g><path d="m312 504c-22.607 0-41-18.393-41-41v-151c0-6.075 4.925-11 11-11s11 4.925 11 11v151c0 10.477 8.523 19 19 19 10.125 0 18.426-7.961 18.972-17.952-.121-.563-.231-1.248-.274-2.017-.192-3.413 1.212-6.721 3.802-8.952 2.589-2.231 6.066-3.132 9.416-2.437 4.341.901 8.743 1.358 13.084 1.358 35.233 0 65-29.766 65-65 0-4.43-.535-8.987-1.635-13.932-.651-2.93-.078-5.998 1.588-8.494s4.279-4.204 7.233-4.726c30.603-5.414 52.814-31.845 52.814-62.848 0-18.344-7.755-35.301-21.837-47.748-2.521-2.228-3.883-5.488-3.698-8.848s1.898-6.45 4.649-8.387c13.078-9.213 20.886-24.172 20.886-40.017 0-18.585-10.489-35.335-27.375-43.716-4.8-2.383-7.185-7.879-5.646-13.012 1.92-6.404 3.021-13.428 3.021-19.272 0-35.29-29.159-64-65-64-4.499 0-9.27.604-14.585 1.848-5.659 1.324-11.371-1.983-13.042-7.55-4.361-14.533-17.371-24.298-32.373-24.298-18.748 0-34 15.252-34 34v136c0 6.075-4.925 11-11 11s-11-4.925-11-11v-136c0-30.879 25.122-56 56-56 21.427 0 40.379 12.001 49.761 30.694 3.509-.465 6.904-.694 10.239-.694 22.996 0 44.745 8.92 61.24 25.118 16.612 16.311 25.76 37.932 25.76 60.882 0 5.368-.629 11.22-1.811 17.051 19.82 13.077 31.811 34.948 31.811 58.949 0 18.713-7.484 36.561-20.471 49.741 13.127 15.466 20.471 35.029 20.471 55.259 0 38.029-24.837 70.941-60.412 81.954.276 2.714.412 5.386.412 8.046 0 22.972-9.123 44.746-25.689 61.311-16.565 16.566-38.339 25.689-61.311 25.689-1.812 0-3.63-.059-5.45-.176-4.76 17.373-20.688 30.176-39.55 30.176z" fill="#0496FF"/></g><g><path d="m253 262.31c-12.924.296-14.892-19.568-2.15-21.79 15.563-2.805 17.951 21.487 2.15 21.79z"/></g><path d="m331 323v79c0 6.075 4.925 11 11 11s11-4.925 11-11v-19h19c6.075 0 11-4.925 11-11s-4.925-11-11-11h-19v-38h80c6.075 0 11-4.925 11-11s-4.925-11-11-11h-110v-38h79c6.075 0 11-4.925 11-11s-4.925-11-11-11h-79v-38h110c6.075 0 11-4.925 11-11s-4.925-11-11-11h-20v-19c0-6.075-4.925-11-11-11s-11 4.925-11 11v19h-38v-69h49c6.075 0 11-4.925 11-11s-4.925-11-11-11h-60c-6.075 0-11 4.925-11 11v80h-158v-80c0-6.075-4.925-11-11-11h-61c-6.075 0-11 4.925-11 11s4.925 11 11 11h50v69h-39v-19c0-6.075-4.925-11-11-11s-11 4.925-11 11v19h-19c-6.075 0-11 4.925-11 11s4.925 11 11 11h110v38h-80c-6.075 0-11 4.925-11 11s4.925 11 11 11h80v38h-110c-6.075 0-11 4.925-11 11s4.925 11 11 11h80v38h-19c-6.075 0-11 4.925-11 11s4.925 11 11 11h19v19c0 6.075 4.925 11 11 11s11-4.925 11-11v-79zm-128-120h98v98h-98z"/></g><g/><g/><g/><g/><g/><g/><g/><g/><g/><g/><g/><g/><g/><g/><g/></svg>