<svg id="Capa_1" enable-background="new 0 0 511.896 511.896" viewBox="0 0 511.896 511.896" xmlns="http://www.w3.org/2000/svg" fill="#052438"><g><g><path d="m326.527 26.261h-12.666v-15.358c0-6.022-4.882-10.903-10.903-10.903-6.022 0-10.903 4.881-10.903 10.903v15.358h-28.797v-15.358c0-6.022-4.882-10.903-10.903-10.903-6.022 0-10.903 4.881-10.903 10.903v15.358h-28.809v-15.358c0-6.022-4.881-10.903-10.903-10.903s-10.903 4.881-10.903 10.903v15.358h-12.663c-12.619 0-22.885 10.266-22.885 22.886v136.423c0 12.619 10.266 22.885 22.885 22.885h12.663v15.354c0 6.022 4.881 10.903 10.903 10.903s10.903-4.881 10.903-10.903v-15.354h28.809v15.354c0 6.022 4.881 10.903 10.903 10.903s10.903-4.881 10.903-10.903v-15.354h28.797v15.354c0 6.022 4.881 10.903 10.903 10.903s10.903-4.881 10.903-10.903v-15.354h12.666c12.619 0 22.886-10.266 22.886-22.885v-136.423c0-12.619-10.267-22.886-22.886-22.886zm0 21.806c.595 0 1.08.484 1.08 1.08v136.423c0 .595-.485 1.08-1.08 1.08h-148.352c-.595 0-1.079-.484-1.079-1.08v-136.423c0-.595.484-1.08 1.079-1.08z"/><g><path d="m249.719 69.417h-32.997c-9.315 0-16.894 7.579-16.894 16.894v68.087c0 6.022 4.881 10.903 10.903 10.903s10.903-4.881 10.903-10.903v-22.28h23.174v22.28c0 6.022 4.881 10.903 10.903 10.903 6.021 0 10.903-4.881 10.903-10.903v-68.087c-.001-9.316-7.58-16.894-16.895-16.894zm-28.086 40.895v-19.09h23.174v19.09z"/><g><path d="m293.972 165.301c-6.022 0-10.903-4.881-10.903-10.903v-74.078c0-6.022 4.881-10.903 10.903-10.903 6.021 0 10.903 4.881 10.903 10.903v74.078c0 6.021-4.881 10.903-10.903 10.903z"/></g></g></g><path d="m487.2 289.629c-2.083-4.294-5.635-7.485-9.895-9.115v-18.446c5.56-3.397 9.291-9.505 9.291-16.483v-53.609c0-11.344-9.228-20.572-20.572-20.572h-6.294c-28.141 0-51.035 22.894-51.035 51.034v23.147c0 8.331 5.31 15.427 12.716 18.135v15.576h-.804c-6.468 0-12.523 2.872-16.617 7.882l-32.027 39.203c-3.859 4.723-5.116 11.031-3.364 16.873.297.99.68 1.939 1.128 2.849l-6.636 7.294-6.354-4.326c-6.93-4.719-15.029-7.214-23.423-7.214h-75.103c.029-.329.063-.656.082-.987.216-3.681-.198-7.302-1.194-10.742l15.86-14.097c1.946.693 3.988 1.063 6.039 1.063 4.233 0 8.481-1.489 11.886-4.516l27.048-24.051c16.188-14.394 17.648-39.275 3.254-55.463-14.392-16.187-39.273-17.648-55.464-3.254l-27.047 24.05c-3.575 3.178-5.697 7.557-5.977 12.331-.101 1.732.051 3.439.43 5.083l-16.174 14.381c-10.767-4.153-23.434-2.305-32.637 5.877l-22.968 20.423-22.762-.259c-.29-.003-.58-.005-.869-.005-32.982 0-63.049 20.456-75.145 51.16-16.758 8.284-28.315 25.553-28.315 45.477 0 8.907 2.316 17.28 6.367 24.562l-16.695 42.574c-3.197 8.137.825 17.359 8.974 20.561 0 0 37.774 14.806 37.794 14.814 7.904 3.098 17.365-.835 20.561-8.971l19.599-49.972c8.013-4.781 14.598-11.708 18.967-19.982h243.771c16.823 0 30.508-13.69 30.508-30.518v-6.879c0-.994-.062-1.98-.178-2.955l20.661-22.718c.902.116 1.807.185 2.709.185 6.475 0 12.796-2.932 16.919-8.163l40.89-51.884c4.385-5.563 5.188-12.979 2.095-19.353zm-56.698-67.191c0-16.117 13.112-29.229 29.229-29.229h5.059v49.893h-34.288zm12.716 42.47h12.281v14.388h-12.281zm-54.754 93.005 12.922 4.037-9.84 10.82-10.249-6.979zm-131.647-56.707-11.909 10.585-10.829-12.179 11.907-10.587zm23.398-55.1c7.202-6.403 18.274-5.754 24.678 1.448 6.405 7.203 5.755 18.273-1.448 24.678l-24.132 21.457-23.23-26.126zm-81.405 61.723c4.124-3.668 10.465-3.297 14.134.829l21.07 23.697c1.777 1.998 2.669 4.569 2.513 7.238-.136 2.324-1.055 4.48-2.609 6.172-.012.015-.027.028-.039.043-.219.236-.45.463-.694.68 0 0-26.208 23.303-26.237 23.329-10.392 9.24-27.329 8.19-36.516-2.142-9.477-10.659-8.517-27.04 2.142-36.517zm-125.678 180.543-26.73-10.477 10.684-27.244c7.921 5.235 17.387 8.31 27.557 8.374zm11.832-51.145c-15.934 0-28.898-12.964-28.898-28.898s12.964-28.898 28.898-28.898 28.898 12.963 28.898 28.898c0 15.934-12.964 28.898-28.898 28.898zm297.337-35.83c0 4.804-3.904 8.712-8.703 8.712h-237.976c.021-.592.045-1.184.045-1.781 0-26.259-20.066-47.916-45.669-50.452 11.068-15.178 29.068-24.565 48.348-24.376l6.861.078c-6.066 16.064-3.252 34.887 8.927 48.585 8.461 9.516 20.122 15.167 32.834 15.913.955.056 1.906.084 2.855.084 11.679 0 22.812-4.223 31.614-12.048l25.248-22.45h86.63c3.998 0 7.853 1.186 11.15 3.432 0 0 36.359 24.757 36.458 24.824 2.421 1.648 1.378 6.97 1.378 9.479zm9.795-65.194 28.677-35.102h42.782l-36.316 46.081z" fill="#0496FF"/></g><g/><g/><g/><g/><g/><g/><g/><g/><g/><g/><g/><g/><g/><g/><g/></svg>