<svg id="Capa_1" enable-background="new 0 0 504 504" viewBox="0 0 504 504" xmlns="http://www.w3.org/2000/svg" fill="#052438"><g id="Chat"><g><g><path d="m97.45 278h-86.45c-6.075 0-11-4.925-11-11s4.925-11 11-11h86.45c6.075 0 11 4.925 11 11s-4.925 11-11 11z"/></g><g><path d="m114.495 218h-73.495c-6.075 0-11-4.925-11-11v-90h22v79h62.495z"/></g><g><path d="m463 218h-70.848v-22h59.848v-79h22v90c0 6.075-4.925 11-11 11z"/></g><g><path d="m52 417h-22v-90c0-6.075 4.925-11 11-11h71.426v22h-60.426z"/></g><g><path d="m474 417h-22v-79h-59.848v-22h70.848c6.075 0 11 4.925 11 11z"/></g><g><path d="m493 278h-87.351c-6.075 0-11-4.925-11-11s4.925-11 11-11h87.351c6.075 0 11 4.925 11 11s-4.925 11-11 11z"/></g><g><path d="m41 128c-22.607 0-41-18.393-41-41s18.393-41 41-41 41 18.393 41 41-18.393 41-41 41zm0-60c-10.477 0-19 8.523-19 19s8.523 19 19 19 19-8.523 19-19-8.523-19-19-19z" fill="#0496FF"/></g><g><path d="m463 128c-22.607 0-41-18.393-41-41s18.393-41 41-41 41 18.393 41 41-18.393 41-41 41zm0-60c-10.477 0-19 8.523-19 19s8.523 19 19 19 19-8.523 19-19-8.523-19-19-19z" fill="#0496FF"/></g><g><path d="m463 488c-22.607 0-41-18.393-41-41s18.393-41 41-41 41 18.393 41 41-18.393 41-41 41zm0-60c-10.477 0-19 8.523-19 19s8.523 19 19 19 19-8.523 19-19-8.523-19-19-19z" fill="#0496FF"/></g><g><path d="m41 488c-22.607 0-41-18.393-41-41s18.393-41 41-41 41 18.393 41 41-18.393 41-41 41zm0-60c-10.477 0-19 8.523-19 19s8.523 19 19 19 19-8.523 19-19-8.523-19-19-19z" fill="#0496FF"/></g></g><g><g><path d="m192 278c-15.809-.289-13.405-24.606 2.151-21.78 12.742 2.207 10.772 22.093-2.151 21.78z"/></g><g><path d="m252 278c-12.921.318-14.895-19.581-2.15-21.78 15.561-2.826 17.955 21.496 2.15 21.78z"/></g><g><path d="m312 278c-15.809-.284-13.403-24.608 2.151-21.78 12.741 2.207 10.774 22.093-2.151 21.78z"/></g><g><path d="m252 123.757c-6.075 0-11-4.925-11-11v-85.757c0-6.075 4.925-11 11-11s11 4.925 11 11v85.757c0 6.075-4.925 11-11 11z"/></g><g><path d="m312 136.488c-6.075 0-11-4.925-11-11v-38.488c0-6.075 4.925-11 11-11s11 4.925 11 11v38.489c0 6.075-4.925 10.999-11 10.999z"/></g><g><path d="m192 136.488c-6.075 0-11-4.925-11-11v-38.488c0-6.075 4.925-11 11-11s11 4.925 11 11v38.489c0 6.075-4.925 10.999-11 10.999z"/></g><g><path d="m252 488c-3.545 0-6.872-1.708-8.939-4.589l-47.536-66.273c-62.665-23.573-104.525-83.466-104.525-150.138 0-88.776 72.224-161 161-161s161 72.224 161 161c0 66.672-41.86 126.565-104.526 150.139l-47.536 66.273c-2.066 2.88-5.393 4.588-8.938 4.588zm0-360c-76.645 0-139 62.355-139 139 0 58.519 37.427 110.998 93.132 130.589 2.128.748 3.974 2.133 5.289 3.966l40.579 56.572 40.579-56.573c1.315-1.833 3.161-3.217 5.289-3.966 55.705-19.59 93.132-72.069 93.132-130.588 0-76.645-62.355-139-139-139z" fill="#0496FF"/></g></g></g><g/><g/><g/><g/><g/><g/><g/><g/><g/><g/><g/><g/><g/><g/><g/></svg>