<svg id="Capa_1" enable-background="new 0 0 512.013 512.013" viewBox="0 0 512.013 512.013" xmlns="http://www.w3.org/2000/svg" fill="#052438"><g><g><path d="m76.14 391.727c-6.075 0-11-4.925-11-11v-339.721c0-6.075 4.925-11 11-11s11 4.925 11 11v339.721c0 6.075-4.925 11-11 11z" fill="#0496FF"/></g><g><path d="m340.999 131.996c6.075 0 11-4.925 11-11v-84.989c0-6.075-4.925-11-11-11l-284.859-.001c-30.955 0-56.14 25.185-56.14 56.14v349.721c0 30.955 25.185 56.14 56.14 56.14l284.859.001c2.917 0 5.715-1.159 7.778-3.222 2.062-2.063 3.222-4.861 3.222-7.778v-175.268c0-6.075-4.925-11-11-11s-11 4.925-11 11v73.988l-273.859-.001c-12.833 0-24.674 4.328-34.14 11.601v-305.182c0-18.824 15.315-34.14 34.14-34.14l273.859.001v73.989c0 6.076 4.925 11 11 11zm-284.859 264.731 273.859.001v23.139h-273.859c-6.075 0-11 4.925-11 11s4.925 11 11 11h273.859v23.141l-273.859-.002c-18.824 0-34.14-15.315-34.14-34.14s15.315-34.139 34.14-34.139z"/><path d="m226.069 182.867c6.075 0 11-4.925 11-11s-4.925-11-11-11h-102.064c-6.075 0-11 4.925-11 11v78c0 6.075 4.925 11 11 11h102.063c6.075 0 11-4.925 11-11s-4.925-11-11-11h-91.063v-56z"/></g><g fill="#0496FF"><path d="m389.741 274.052c13.92-17.312 22.259-39.293 22.259-63.184 0-55.691-45.309-100.999-101-100.999s-101 45.308-101 100.999 45.309 101 101 101c23.892 0 45.872-8.339 63.185-22.259l17.425 17.426c2.148 2.147 4.963 3.222 7.778 3.222 2.814 0 5.63-1.074 7.778-3.222 4.296-4.296 4.296-11.261 0-15.557zm-78.741 15.816c-43.561 0-79-35.439-79-79s35.439-78.999 79-78.999 79 35.438 79 78.999-35.439 79-79 79z"/><path d="m319.781 202.599-9.145-3.787c-2.956-1.225-4.418-4.756-3.193-7.712.804-1.941 2.351-2.822 3.201-3.175.85-.352 2.568-.822 4.508-.02l4.572 1.895c5.61 2.323 12.048-.339 14.373-5.951s-.339-12.048-5.951-14.373l-4.574-1.896c-.52-.215-1.044-.414-1.572-.597v-2.789c0-6.075-4.925-11-11-11s-11 4.925-11 11v4.441c-5.826 3.022-10.352 7.936-12.882 14.045-5.889 14.214.885 30.567 15.099 36.455l9.146 3.788c2.955 1.225 4.418 4.756 3.193 7.713-.804 1.94-2.351 2.821-3.201 3.174s-2.568.823-4.508.02l-4.572-1.895c-5.614-2.326-12.048.34-14.373 5.951-2.325 5.612.339 12.048 5.951 14.373l4.574 1.896c.521.216 1.046.414 1.572.596v2.789c0 6.075 4.925 11 11 11s11-4.925 11-11v-4.435c5.617-2.923 10.277-7.758 12.883-14.051 5.888-14.213-.886-30.566-15.101-36.455z"/></g><g><path d="m476.03 411.868c-.001 0 0 0 0 0-9.637 0-18.677-3.734-25.456-10.515l-74.246-74.244c-2.062-2.062-3.222-4.861-3.222-7.778s1.159-5.715 3.222-7.778l35.355-35.355c4.297-4.295 11.26-4.295 15.557 0l74.246 74.246c14.036 14.036 14.036 36.875 0 50.911-6.78 6.779-15.821 10.513-25.456 10.513zm-76.367-92.538 66.468 66.467c2.625 2.625 6.14 4.07 9.898 4.07 3.76 0 7.275-1.445 9.9-4.07s4.07-6.14 4.07-9.898c0-3.76-1.445-7.274-4.07-9.899l-66.468-66.468z"/></g></g><g/><g/><g/><g/><g/><g/><g/><g/><g/><g/><g/><g/><g/><g/><g/></svg>