<svg id="Capa_1" enable-background="new 0 0 512 512" viewBox="0 0 512 512" xmlns="http://www.w3.org/2000/svg" fill="#052438"><g><g><path d="m423.778 93.221-90-90c-2.063-2.062-4.861-3.221-7.778-3.221h-290c-6.075 0-11 4.925-11 11v460c0 6.075 4.925 11 11 11h280.674c6.075 0 11-4.925 11-11s-4.925-11-11-11h-269.674v-438h268v79c0 6.075 4.925 11 11 11h79v210.879c0 6.075 4.925 11 11 11s11-4.925 11-11v-221.879c0-2.918-1.159-5.716-3.222-7.779zm-86.778-55.665 52.444 52.444h-52.444z"/><path d="m120.202 246.202c6.075 0 11-4.925 11-11v-58.802c0-16.874-13.728-30.601-30.601-30.601s-30.601 13.728-30.601 30.601v58.801c0 6.075 4.925 11 11 11s11-4.925 11-11v-18.401h17.202v18.402c0 6.075 4.924 11 11 11zm-28.202-51.402v-18.4c0-4.743 3.858-8.601 8.601-8.601s8.601 3.858 8.601 8.601v18.4z"/><path d="m371 145.8h-34.301c-6.075 0-11 4.925-11 11s4.925 11 11 11h6.15v67.401c0 6.075 4.925 11 11 11s11-4.925 11-11v-67.401h6.151c6.075 0 11-4.925 11-11s-4.925-11-11-11z"/><path d="m250.278 246.202c16.873 0 30.6-13.728 30.6-30.601v-39.202c0-16.873-13.727-30.6-30.6-30.6h-19.601c-6.075 0-11 4.925-11 11v78.402c0 6.075 4.925 11 11 11h19.601zm-8.6-78.403h8.601c4.742 0 8.6 3.858 8.6 8.6v39.202c0 4.742-3.858 8.601-8.6 8.601h-8.601z"/><path d="m316.516 235.202v-78.402c0-6.075-4.925-11-11-11s-11 4.925-11 11v78.402c0 6.075 4.925 11 11 11s11-4.925 11-11z"/><path d="m155.839 145.799c-6.075 0-11 4.925-11 11v58.802c0 16.873 13.728 30.6 30.601 30.6s30.601-13.727 30.601-30.6v-58.802c0-6.075-4.925-11-11-11s-11 4.925-11 11v58.802c0 4.742-3.858 8.6-8.601 8.6s-8.601-3.858-8.601-8.6v-58.802c0-6.075-4.925-11-11-11z"/><path d="m371 280.001h-290c-6.075 0-11 4.925-11 11s4.925 11 11 11h290c6.075 0 11-4.925 11-11s-4.925-11-11-11z"/><path d="m333.75 325.001h-252.75c-6.075 0-11 4.925-11 11s4.925 11 11 11h252.75c6.075 0 11-4.925 11-11s-4.925-11-11-11z"/><path d="m81 370c-6.075 0-11 4.925-11 11s4.925 11 11 11h145c6.075 0 11-4.925 11-11s-4.925-11-11-11z"/></g><g fill="#0496FF"><path d="m230.678 45h-149.678c-6.075 0-11 4.925-11 11v45c0 6.075 4.925 11 11 11h149.677c6.075 0 11-4.925 11-11v-45c.001-6.075-4.924-11-10.999-11zm-11 45h-127.678v-23h127.677v23z"/><path d="m386 310c-55.692 0-101.001 45.309-101.001 101s45.309 101 101.001 101c55.691 0 101-45.309 101-101 0-55.692-45.309-101-101-101zm0 180c-43.562 0-79.001-35.439-79.001-79s35.439-79 79.001-79c43.561 0 79 35.439 79 79s-35.439 79-79 79z"/><path d="m416.278 380.722c-4.296-4.296-11.261-4.296-15.557 0l-14.721 14.721-14.722-14.722c-4.296-4.296-11.261-4.296-15.557 0-4.295 4.296-4.295 11.261 0 15.557l14.722 14.722-14.721 14.721c-4.295 4.296-4.295 11.261 0 15.557 2.148 2.148 4.963 3.222 7.778 3.222s5.63-1.074 7.778-3.222l14.722-14.721 14.721 14.721c2.148 2.148 4.963 3.222 7.778 3.222s5.63-1.074 7.778-3.222c4.295-4.296 4.295-11.261 0-15.557l-14.721-14.721 14.722-14.722c4.295-4.296 4.295-11.26 0-15.556z"/></g></g><g/><g/><g/><g/><g/><g/><g/><g/><g/><g/><g/><g/><g/><g/><g/></svg>