<svg id="Capa_1" enable-background="new 0 0 512 512" viewBox="0 0 512 512" xmlns="http://www.w3.org/2000/svg" fill="#E6ECF2"><g><g><path d="m326.5 228.334c6.075 0 11-4.925 11-11v-178.834c0-21.229-17.271-38.5-38.5-38.5h-260.499s0 0-.001 0c-21.228.002-38.5 17.272-38.5 38.5v84.682c0 6.075 4.925 11 11 11h44v348.317c0 3.222 1.413 6.282 3.865 8.372l21.708 18.501c4.111 3.504 10.159 3.504 14.27 0l14.573-12.42 14.573 12.42c4.111 3.504 10.159 3.504 14.27 0l14.574-12.42 14.573 12.42c4.111 3.504 10.159 3.504 14.27 0l14.574-12.42 14.573 12.42c4.111 3.504 10.159 3.504 14.271 0l14.573-12.42 14.573 12.42c4.112 3.504 10.159 3.504 14.27 0l14.574-12.42 14.573 12.42c2.056 1.752 4.596 2.628 7.135 2.628s5.079-.876 7.135-2.628l21.708-18.501c2.453-2.09 3.865-5.15 3.865-8.372v-77.833c0-6.075-4.925-11-11-11s-11 4.925-11 11v72.755l-10.708 9.126-14.573-12.42c-4.111-3.504-10.159-3.504-14.27 0l-14.574 12.42-14.574-12.42c-4.111-3.504-10.159-3.504-14.27 0l-14.573 12.42-14.573-12.42c-4.111-3.504-10.159-3.504-14.27 0l-14.574 12.42-14.573-12.42c-4.111-3.504-10.159-3.504-14.27 0l-14.574 12.42-14.573-12.42c-4.111-3.504-10.159-3.504-14.271 0l-14.573 12.42-10.708-9.126v-438.921c0-5.901-1.335-11.497-3.718-16.5h225.719c9.098 0 16.5 7.402 16.5 16.5v178.834c0 6.075 4.925 11 11 11zm-271.499-116.152h-33.001v-73.682c0-9.098 7.402-16.5 16.5-16.5s16.5 7.402 16.5 16.5v73.682z"/><path d="m265.001 239.346c0-6.075-4.925-11-11-11h-142.751c-6.075 0-11 4.925-11 11s4.925 11 11 11h142.75c6.076 0 11.001-4.925 11.001-11z"/><path d="m111.25 295.345h109.795c6.075 0 11-4.925 11-11s-4.925-11-11-11h-109.795c-6.075 0-11 4.925-11 11s4.925 11 11 11z"/><path d="m111.25 340.345h107.729c6.075 0 11-4.925 11-11s-4.925-11-11-11h-107.729c-6.075 0-11 4.925-11 11s4.925 11 11 11z"/><path d="m111.25 385.345h133.445c6.075 0 11-4.925 11-11s-4.925-11-11-11h-133.445c-6.075 0-11 4.925-11 11s4.925 11 11 11z"/></g><g fill="#0496FF"><path d="m389.741 374.185c13.92-17.313 22.259-39.293 22.259-63.185 0-55.691-45.308-101-101-101s-101 45.308-101 101 45.309 101 101 101c23.892 0 45.872-8.339 63.185-22.259l17.425 17.425c2.148 2.148 4.963 3.222 7.778 3.222s5.63-1.074 7.778-3.222c4.295-4.296 4.295-11.261 0-15.557zm-78.741 15.815c-43.561 0-79-35.439-79-79s35.439-79 79-79 79 35.439 79 79-35.439 79-79 79z"/><path d="m220.133 153.36c5.888-14.214-.886-30.567-15.099-36.455l-9.147-3.789c-2.956-1.224-4.418-4.755-3.193-7.711 1.224-2.956 4.756-4.416 7.71-3.194l4.573 1.895c5.613 2.324 12.047-.34 14.373-5.953s-.34-12.047-5.953-14.373l-4.575-1.895c-.521-.216-1.045-.414-1.571-.596v-2.789c0-6.075-4.925-11-11-11s-11 4.925-11 11v4.435c-5.617 2.923-10.276 7.758-12.883 14.052-5.887 14.214.887 30.568 15.101 36.456l9.146 3.788c2.955 1.224 4.417 4.755 3.192 7.712-.804 1.941-2.35 2.822-3.201 3.174-.851.353-2.568.824-4.51.019l-4.573-1.894c-5.613-2.324-12.047.342-14.372 5.954-2.324 5.613.341 12.047 5.954 14.372l4.573 1.894c.52.215 1.044.414 1.572.597v2.789c0 6.075 4.925 11 11 11s11-4.925 11-11v-4.44c5.826-3.024 10.353-7.938 12.883-14.048z"/><path d="m333.221 283.222-32.221 32.222-12.222-12.222c-4.295-4.296-11.26-4.295-15.556 0s-4.295 11.26 0 15.556l20 20c2.147 2.148 4.963 3.222 7.778 3.222s5.63-1.074 7.778-3.222l40-40c4.295-4.296 4.295-11.261 0-15.557-4.296-4.295-11.261-4.295-15.557.001z"/></g><g><path d="m476.03 512c-9.636 0-18.676-3.734-25.456-10.514l-74.246-74.245c-4.295-4.296-4.295-11.261 0-15.557l35.355-35.355c2.063-2.062 4.861-3.222 7.778-3.222s5.715 1.159 7.778 3.222l74.246 74.246c6.78 6.78 10.514 15.82 10.514 25.456 0 9.635-3.734 18.676-10.514 25.456-6.779 6.779-15.82 10.513-25.455 10.513zm-76.367-92.538 66.468 66.467c2.625 2.625 6.14 4.07 9.899 4.07s7.275-1.445 9.899-4.07c2.625-2.625 4.07-6.14 4.07-9.899s-1.445-7.274-4.07-9.899l-66.467-66.468z"/></g></g><g/><g/><g/><g/><g/><g/><g/><g/><g/><g/><g/><g/><g/><g/><g/></svg>