<svg id="Layer_1" enable-background="new 0 0 512 512" viewBox="0 0 512 512" xmlns="http://www.w3.org/2000/svg" fill="#E6ECF2"><g><path d="m391.52 285.662h-124.52v-23.541h91.734c48.802 0 88.505-39.639 88.505-88.362 0-48.313-39.039-87.694-87.275-88.354-16.978-50.709-64.686-85.405-118.969-85.405-32.923 0-64.03 12.638-87.592 35.584-21.57 21.007-34.651 48.523-37.337 78.201-13.381 4.661-25.372 13.045-34.355 24.145-10.931 13.504-16.95 30.52-16.95 47.913 0 42.06 34.271 76.278 76.397 76.278h103.842v23.541h-124.52c-22.305 0-40.45 18.146-40.45 40.451v43.268c0 11.597 4.906 22.068 12.75 29.451-7.844 7.383-12.75 17.856-12.75 29.454v43.26c0 22.307 18.145 40.454 40.447 40.454h271.045c22.303 0 40.447-18.147 40.447-40.454v-43.26c0-11.598-4.906-22.071-12.75-29.454 7.844-7.382 12.75-17.854 12.75-29.451v-43.268c.001-22.305-18.145-40.451-40.449-40.451zm-304.759-99.819c0-25.51 17.38-47.273 42.265-52.924 4.904-1.114 8.429-5.412 8.561-10.439 1.475-56.344 46.897-100.48 103.408-100.48 47.244 0 88.444 31.846 100.192 77.443 1.343 5.211 6.271 8.687 11.618 8.213 1.956-.172 3.95-.26 5.929-.26 36.671 0 66.505 29.77 66.505 66.362s-29.834 66.362-66.505 66.362h-217.576c-29.995.001-54.397-24.348-54.397-54.277zm15.269 140.27c0-10.174 8.276-18.451 18.45-18.451h271.04c10.174 0 18.45 8.277 18.45 18.451v43.268c0 10.174-8.276 18.451-18.45 18.451h-271.04c-10.174 0-18.45-8.277-18.45-18.451zm289.492 83.718c10.172 0 18.447 8.279 18.447 18.455v43.26c0 10.176-8.275 18.454-18.447 18.454h-271.044c-10.172 0-18.447-8.278-18.447-18.454v-43.26c0-10.176 8.275-18.455 18.447-18.455z"/><g fill="#0496FF"><path d="m222.028 438.916h-79.71c-6.075 0-11 4.925-11 11s4.925 11 11 11h79.71c6.075 0 11-4.925 11-11s-4.924-11-11-11z"/><path d="m300.92 445.71c-1.742-4.314-6.247-7.067-10.87-6.767-4.657.303-8.689 3.624-9.907 8.124-1.218 4.501.651 9.406 4.517 11.993 3.877 2.595 9.096 2.408 12.798-.42 3.89-2.971 5.383-8.409 3.462-12.93z"/><path d="m340.38 445.71c-1.647-4.078-5.775-6.77-10.148-6.789-4.67-.02-8.907 3.058-10.419 7.459-1.6 4.656.224 9.95 4.307 12.681 3.736 2.498 8.731 2.434 12.409-.136 4.148-2.898 5.839-8.535 3.851-13.215z"/><path d="m379.84 445.71c-1.772-4.236-6.098-7.014-10.699-6.783-4.582.231-8.653 3.398-9.979 7.794-1.304 4.324.217 9.174 3.825 11.919 3.714 2.826 8.914 3.013 12.803.42 4.323-2.882 6.008-8.557 4.05-13.35z"/><path d="m222.028 336.747h-79.71c-6.075 0-11 4.925-11 11s4.925 11 11 11h79.71c6.075 0 11-4.925 11-11s-4.924-11-11-11z"/><path d="m300.92 343.54c-1.767-4.312-6.234-7.07-10.876-6.767-4.657.304-8.683 3.631-9.9 8.128-1.218 4.501.652 9.402 4.517 11.988 3.878 2.596 9.095 2.408 12.798-.42 3.89-2.969 5.381-8.409 3.461-12.929z"/><path d="m328.069 336.96c-4.832.965-8.48 5.166-8.824 10.07-.335 4.778 2.649 9.317 7.106 11.004 4.245 1.606 9.142.364 12.141-3.034 3.009-3.409 3.55-8.477 1.408-12.468-2.251-4.194-7.157-6.512-11.831-5.572z"/><path d="m359.52 351.95c1.767 4.223 6.107 7.029 10.7 6.784 4.592-.245 8.644-3.387 9.979-7.794 1.312-4.333-.225-9.161-3.822-11.92-3.704-2.841-8.914-2.99-12.796-.42-4.334 2.868-6.018 8.561-4.061 13.35z"/></g></g><g/><g/><g/><g/><g/><g/><g/><g/><g/><g/><g/><g/><g/><g/><g/></svg>