<svg id="Layer_1" enable-background="new 0 0 512 512" viewBox="0 0 512 512" xmlns="http://www.w3.org/2000/svg" fill="#052438"><g><g><path d="m266 325h-20c-6.075 0-11 4.925-11 11 0 5.738 4.394 10.449 10 10.954v9.046c0 6.075 4.925 11 11 11s11-4.925 11-11v-9.045c5.606-.505 10-5.216 10-10.954 0-6.076-4.925-11.001-11-11.001z"/><path d="m481 207c6.075 0 11-4.925 11-11v-34h9c6.075 0 11-4.925 11-11v-50c0-4.612-2.878-8.735-7.207-10.325l-245-90c-2.449-.899-5.137-.899-7.586 0l-245 90c-4.329 1.591-7.207 5.713-7.207 10.325v50c0 6.075 4.925 11 11 11h9.001v34c0 6.075 4.925 11 11 11h9v188h-9c-6.075 0-11 4.925-11 11v34h-9.001c-6.075 0-11 4.925-11 11v50c0 6.075 4.925 11 11 11h490c6.075 0 11-4.925 11-11v-50c0-6.075-4.925-11-11-11h-9v-34c0-6.075-4.925-11-11-11h-9v-188zm-11-22h-63v-23h63zm-74 210c-6.075 0-11 4.925-11 11v34h-257.999v-34c0-6.075-4.925-11-11-11h-9v-188h9c6.075 0 11-4.925 11-11v-34h257.999v34c0 6.075 4.925 11 11 11h9v188zm-374-286.322 234-85.959 234 85.959v31.322h-468zm83.001 53.322v23h-63v-23zm-43 45h23v188h-23zm-20 210h63v23h-63zm447.999 73h-468v-28h468zm-83-50v-23h63v23zm43-45h-23v-188h23z"/></g><path d="m323.5 280h-6.5v-29c0-33.636-27.364-61-61-61s-61 27.364-61 61v29h-6.5c-6.075 0-11 4.925-11 11v110c0 6.075 4.925 11 11 11h135c6.075 0 11-4.925 11-11v-110c0-6.075-4.925-11-11-11zm-106.5-29c0-21.505 17.495-39 39-39s39 17.495 39 39v29h-78zm95.5 139h-113v-88h113z" fill="#0496FF"/></g><g/><g/><g/><g/><g/><g/><g/><g/><g/><g/><g/><g/><g/><g/><g/></svg>