<svg id="Capa_1" enable-background="new 0 0 512 512" viewBox="0 0 512 512" xmlns="http://www.w3.org/2000/svg" fill="#052438"><g><g><path d="m22.123 162.303h9.489c6.075 0 11-4.925 11-11s-4.925-11-11-11h-9.489c-6.075 0-11 4.925-11 11s4.925 11 11 11z"/><path d="m40.508 197.712-6.71 6.725c-4.291 4.3-4.283 11.265.018 15.556 2.147 2.143 4.958 3.213 7.77 3.213 2.819 0 5.639-1.077 7.787-3.23l6.71-6.725c4.291-4.3 4.283-11.265-.018-15.556s-11.266-4.283-15.557.017z"/><path d="m40.508 104.893c2.149 2.153 4.968 3.23 7.787 3.23 2.812 0 5.623-1.071 7.77-3.213 4.301-4.291 4.309-11.256.018-15.556l-6.71-6.725c-4.293-4.301-11.258-4.308-15.557-.017-4.301 4.291-4.309 11.256-.018 15.556z"/><path d="m489.877 349.197h-9.489c-6.075 0-11 4.925-11 11s4.925 11 11 11h9.489c6.075 0 11-4.925 11-11s-4.925-11-11-11z"/><path d="m463.705 317.018c2.819 0 5.639-1.077 7.787-3.23l6.71-6.725c4.291-4.3 4.283-11.265-.018-15.556s-11.266-4.284-15.557.017l-6.71 6.725c-4.291 4.3-4.283 11.265.018 15.556 2.148 2.142 4.959 3.213 7.77 3.213z"/><path d="m471.491 406.606c-4.291-4.301-11.257-4.307-15.556-.016-4.301 4.291-4.308 11.256-.017 15.556l6.71 6.724c2.148 2.153 4.967 3.23 7.786 3.23 2.812 0 5.623-1.071 7.77-3.213 4.301-4.292 4.308-11.256.017-15.557z"/><path d="m501 35.605h-416.715c-6.075 0-11 4.925-11 13.042v196.353h-62.285c-6.075 0-11 4.925-11 11v209.395c0 6.075 4.925 11 11 11h416.715c6.075 0 11-4.925 11-11v-198.395h62.285c6.075 0 11-4.925 11-11v-209.395c0-6.075-4.925-11-11-11zm-84.285 418.79h-394.715v-187.395h394.715zm73.285-209.395h-394.715v-187.395h394.715z"/></g><g fill="#0496FF"><path d="m363.691 145.417c3.229-4.937 5.108-10.832 5.108-17.157 0-17.339-14.118-31.446-31.473-31.446h-25.843c-6.075 0-11 4.925-11 11v88.858c0 2.926 1.166 5.731 3.239 7.795 2.062 2.053 4.853 3.205 7.761 3.205h.049c.237-.001 23.847-.105 30.308-.105 19.27 0 34.947-15.664 34.947-34.918 0-11-5.117-20.827-13.096-27.232zm-26.365-26.603c5.224 0 9.473 4.238 9.473 9.446s-4.249 9.446-9.473 9.446c-1.919 0-5.547.01-9.493.024h-5.35v-18.917h14.843zm4.514 66.752c-3.548 0-12.188.031-19.356.06v-25.875c1.773-.007 3.609-.014 5.381-.02h13.976c7.139 0 12.947 5.795 12.947 12.917-.001 7.123-5.809 12.918-12.948 12.918z"/><path d="m239.064 205.606h36.348c6.075 0 11-4.925 11-11s-4.925-11-11-11h-25.348v-21.225h22.668c6.075 0 11-4.925 11-11s-4.925-11-11-11h-22.668v-21.224h25.348c6.075 0 11-4.925 11-11s-4.925-11-11-11h-36.348c-6.075 0-11 4.925-11 11v86.449c0 6.075 4.925 11 11 11z"/><path d="m172.499 98.941h-23.928c-2.921 0-5.723 1.162-7.786 3.229-2.063 2.068-3.22 4.872-3.214 7.792l.171 84.665c.006 2.921 1.173 5.72 3.244 7.779 2.062 2.049 4.85 3.199 7.756 3.199h.042c.723-.003 17.787-.069 24.606-.188 25.626-.449 44.226-22.799 44.226-53.145 0-31.898-18.131-53.331-45.117-53.331zm.507 84.48c-3.061.054-8.394.097-13.286.128l-.126-62.608h12.905c22.003 0 23.117 26.1 23.117 31.332 0 15.307-6.991 30.874-22.61 31.148z"/><path d="m436.714 96.68h-48.079c-6.075 0-11 4.925-11 11s4.925 11 11 11h12.942v76.245c0 6.075 4.925 11 11 11s11-4.925 11-11v-76.245h13.137c6.075 0 11-4.925 11-11s-4.925-11-11-11z"/><path d="m123.551 328.714c6.075 0 11-4.925 11-11s-4.925-11-11-11h-35.028c-6.075 0-11 4.925-11 11v86.606c0 6.075 4.925 11 11 11s11-4.925 11-11v-33.123h21.244c6.075 0 11-4.925 11-11s-4.925-11-11-11h-21.244v-20.483z"/><path d="m277.833 328.871c6.075 0 11-4.925 11-11s-4.925-11-11-11h-36.349c-6.075 0-11 4.925-11 11v86.449c0 6.075 4.925 11 11 11h36.349c6.075 0 11-4.925 11-11s-4.925-11-11-11h-25.349v-21.224h22.668c6.075 0 11-4.925 11-11s-4.925-11-11-11h-22.668v-21.225z"/><path d="m350.191 328.871c6.075 0 11-4.925 11-11s-4.925-11-11-11h-36.348c-6.075 0-11 4.925-11 11v86.449c0 6.075 4.925 11 11 11h36.348c6.075 0 11-4.925 11-11s-4.925-11-11-11h-25.348v-21.224h22.668c6.075 0 11-4.925 11-11s-4.925-11-11-11h-22.668v-21.225z"/><path d="m215.765 339.749c0-18.568-15.659-33.674-34.906-33.674h-23.163c-6.075 0-11 4.925-11 11v87.245c0 6.075 4.925 11 11 11s11-4.925 11-11v-24.401l27.805 31.659c2.174 2.476 5.214 3.741 8.269 3.741 2.578 0 5.166-.9 7.255-2.735 4.564-4.009 5.015-10.959 1.006-15.524l-22.032-25.087c14.316-4.199 24.766-17.056 24.766-32.224zm-34.907 11.674c-2.977 0-7.822.021-12.163.045v-23.393h12.163c6.996 0 12.906 5.346 12.906 11.674.001 6.328-5.91 11.674-12.906 11.674z"/></g></g><g/><g/><g/><g/><g/><g/><g/><g/><g/><g/><g/><g/><g/><g/><g/></svg>