<svg id="Capa_1" enable-background="new 0 0 512 512" viewBox="0 0 512 512" xmlns="http://www.w3.org/2000/svg" fill="#052438"><g><g fill="#0496FF"><path d="m366.814 0c-60.548 0-109.808 49.149-109.808 109.562s49.26 109.562 109.808 109.562 109.808-49.149 109.808-109.562-49.26-109.562-109.808-109.562zm0 197.124c-48.417 0-87.808-39.28-87.808-87.562s39.391-87.562 87.808-87.562 87.808 39.28 87.808 87.562-39.391 87.562-87.808 87.562z"/><path d="m376.97 100.788c-9.452-3.333-14.275-5.305-15.634-5.943-2.651-1.248-2.556-2.542-2.504-3.238.121-1.638 1.319-3.403 2.564-3.777 7.924-2.383 11.955.39 12.528 1.204 3.494 4.968 10.355 6.165 15.325 2.668 4.97-3.495 6.164-10.356 2.669-15.326-3.155-4.486-8.466-8.348-15.297-10.241-1.058-4.97-5.469-8.7-10.755-8.7-5.511 0-10.063 4.058-10.863 9.346-9.877 2.998-17.322 12.527-18.111 23.201-.78 10.536 4.998 20.027 15.081 24.77 2.963 1.393 9.406 3.865 17.68 6.783 5.111 1.802 7.417 5.654 7.053 8.528-.42 3.314-4.776 4.184-7.337 4.407-5.1.444-12.057-1-14.925-4.551-3.814-4.726-10.74-5.464-15.469-1.647-4.727 3.817-5.464 10.743-1.646 15.469 4.697 5.816 11.246 9.291 17.888 11.124 1.209 4.761 5.512 8.289 10.649 8.289 4.868 0 8.99-3.165 10.439-7.547 12.244-2.734 20.77-11.281 22.227-22.776 1.745-13.776-7.122-26.952-21.562-32.043z"/></g><g><path d="m494.226 466.177-27.081-27.039c-4.299-4.292-11.264-4.288-15.557.012-4.292 4.299-4.287 11.264.012 15.556l8.268 8.255h-37.124v-69.397c0-6.075-4.925-11-11-11h-67.99v-70.302c0-6.075-4.925-11-11-11h-78.99c-6.075 0-11 4.925-11 11v14.449h-56.99v-119.873c0-6.075-4.925-11-11-11h-78.99c-6.075 0-11 4.925-11 11v256.123h-21.156v-345.923l8.309 8.296c4.298 4.292 11.264 4.288 15.556-.012 4.292-4.299 4.287-11.264-.012-15.556l-27.081-27.04c-4.294-4.287-11.249-4.288-15.544 0l-27.081 27.039c-4.299 4.292-4.305 11.257-.012 15.556 2.148 2.152 4.966 3.228 7.784 3.228 2.812 0 5.625-1.072 7.772-3.216l8.309-8.296v356.924c0 6.075 4.925 11 11 11h407.24l-8.268 8.255c-4.299 4.292-4.304 11.257-.012 15.556 2.148 2.152 4.966 3.228 7.784 3.228 2.812 0 5.625-1.072 7.772-3.216l27.081-27.039c2.066-2.063 3.228-4.864 3.228-7.784s-1.161-5.721-3.227-7.784zm-93.483-61.614v58.397h-56.99v-58.397zm-78.99-81.302v139.7h-56.99v-139.7zm-78.99 25.449v114.251h-56.99v-114.251zm-135.98-130.872h56.99v245.123h-56.99z"/><path d="m284.988 251.179c30.235 17.032 64.409 26.537 99.25 27.659l-5.187 5.179c-4.3 4.292-4.306 11.257-.013 15.556 2.148 2.152 4.966 3.228 7.784 3.228 2.812 0 5.625-1.072 7.771-3.216l23.889-23.851c2.067-2.063 3.229-4.864 3.229-7.784s-1.161-5.721-3.228-7.784l-23.889-23.851c-4.298-4.292-11.263-4.287-15.557.012-4.293 4.299-4.287 11.264.012 15.556l4.93 4.922c-64.392-2.344-122.851-35.854-157.449-90.673-3.243-5.137-10.036-6.673-15.173-3.431-5.137 3.243-6.674 10.036-3.431 15.173 19.153 30.347 45.801 55.695 77.062 73.305z"/></g></g><g/><g/><g/><g/><g/><g/><g/><g/><g/><g/><g/><g/><g/><g/><g/></svg>