<svg id="Layer_1" enable-background="new 0 0 512 512" viewBox="0 0 512 512" xmlns="http://www.w3.org/2000/svg" fill="#E6ECF2"><g><g><path d="m481 255.357c-6.075 0-11 4.925-11 11v198.643h-448v-258h305.293c6.075 0 11-4.925 11-11s-4.925-11-11-11h-316.293c-6.075 0-11 4.925-11 11v280c0 6.075 4.925 11 11 11h470c6.075 0 11-4.925 11-11v-209.643c0-6.075-4.925-11-11-11z"/><path d="m101 229.999c-6.075 0-11 4.925-11 11 0 18.748-15.252 34-34 34-6.075 0-11 4.925-11 11v100.001c0 6.075 4.925 11 11 11 18.748 0 34 15.252 34 34 0 6.075 4.925 11 11 11h290c6.075 0 11-4.925 11-11 0-18.748 15.252-34 34-34 6.075 0 11-4.925 11-11v-88.85c0-6.075-4.925-11-11-11s-11 4.925-11 11v78.935c-22.072 4.413-39.501 21.842-43.915 43.915h-270.17c-4.413-22.072-21.842-39.501-43.915-43.915v-80.171c22.072-4.413 39.501-21.842 43.915-43.915h221.59c6.075 0 11-4.925 11-11s-4.925-11-11-11z"/></g><g fill="#0496FF"><path d="m255.109 327.867-9.799-4.059c-3.559-1.474-5.319-5.726-3.846-9.285 1.474-3.56 5.726-5.32 9.285-3.846l4.899 2.029c5.612 2.324 12.048-.34 14.372-5.953 2.325-5.612-.34-12.047-5.953-14.372l-4.899-2.03c-.718-.297-1.441-.563-2.168-.799v-3.552c0-6.075-4.925-11-11-11s-11 4.925-11 11v5.231c-6.048 3.024-11.077 8.151-13.861 14.873-6.141 14.828.926 31.887 15.752 38.028l9.799 4.059c3.558 1.474 5.319 5.726 3.845 9.285s-5.725 5.318-9.284 3.846l-4.899-2.029c-5.612-2.326-12.048.34-14.372 5.953-2.325 5.612.34 12.047 5.953 14.372l4.9 2.03c.718.297 1.441.563 2.167.799v3.552c0 6.075 4.925 11 11 11s11-4.925 11-11v-5.231c6.048-3.024 11.077-8.151 13.861-14.874 6.14-14.827-.925-31.886-15.752-38.027z"/><path d="m504.815 171.516c-1.476-4.129-5.265-6.988-9.641-7.273-4.372-.287-8.504 2.055-10.505 5.957-4.619 9.007-12.006 8.596-14.967 8-4.511-.906-9.256-4.308-9.688-9.866-.563-7.254 2.049-10.94 6.004-16.52 8.669-12.231 15.088-25.352-1.362-51.204-5.831-9.164-12.472-15.447-18.331-20.99-11.181-10.579-19.261-18.224-19.261-43.62 0-3.42-1.59-6.645-4.304-8.727-2.713-2.082-6.24-2.783-9.543-1.898-31.979 8.569-45.778 39.73-35.152 79.386 3.499 13.057-3.874 20.304-19.535 34.176-17.109 15.154-38.402 34.015-38.402 70.011 0 25.334 10.508 50.333 28.831 68.585 18.151 18.082 41.858 28.027 66.707 28.027h.715c24.93-.001 48.639-9.946 66.789-28.027 18.322-18.253 28.83-43.252 28.83-68.586 0-11.503-2.417-24.096-7.185-37.431zm-88.751 111.419c-10.477 0-19-8.523-19-19 0-8.992 10.457-22.576 19-32.597 8.543 10.021 19 23.605 19 32.597 0 10.476-8.523 19-19 19zm51.579-20.989c-3.496 3.482-7.253 6.572-11.222 9.249.423-2.357.644-4.783.644-7.26 0-19.428-18.095-39.959-30.069-53.545-.929-1.055-1.814-2.059-2.64-3.005-2.089-2.396-5.113-3.771-8.292-3.771s-6.202 1.375-8.292 3.771c-.825.947-1.71 1.951-2.64 3.005-11.974 13.586-30.069 34.117-30.069 53.545 0 2.478.221 4.906.644 7.264-3.969-2.678-7.727-5.77-11.223-9.252-14.208-14.154-22.357-33.472-22.357-52.999 0-26.093 15.053-39.426 30.989-53.542 15.643-13.856 33.373-29.56 26.198-56.339-2.888-10.778-6.864-33.735 7.048-45.993 3.727 22.551 14.831 33.055 24.844 42.529 5.411 5.119 10.521 9.953 14.89 16.819 9.876 15.521 7.4 19.016 1.973 26.672-4.713 6.649-11.167 15.756-9.988 30.943 1.144 14.736 12.11 26.685 27.289 29.733 8.324 1.672 16.475.365 23.459-3.422.779 4.407 1.17 8.615 1.17 12.6.001 19.527-8.148 38.844-22.356 52.998z"/></g></g><g/><g/><g/><g/><g/><g/><g/><g/><g/><g/><g/><g/><g/><g/><g/></svg>