<svg id="Layer_1" enable-background="new 0 0 512 512" viewBox="0 0 512 512" xmlns="http://www.w3.org/2000/svg" fill="#052438"><g><g><path d="m366 0h-250c-2.917 0-5.715 1.159-7.778 3.222l-90 90c-2.063 2.063-3.222 4.861-3.222 7.778v360c0 6.075 4.925 11 11 11h307.801c6.075 0 11-4.925 11-11s-4.925-11-11-11h-296.801v-338h79c6.075 0 11-4.925 11-11v-79h228v144.201c0 6.075 4.925 11 11 11s11-4.925 11-11v-155.201c0-6.075-4.925-11-11-11zm-313.444 90 52.444-52.444v52.444z"/><path d="m75.001 401c0 6.075 4.925 11 11 11h159.999c6.075 0 11-4.925 11-11v-49c0-6.075-4.925-11-11-11h-159.999c-6.075 0-11 4.925-11 11zm22-38h137.999v27h-137.999z"/><path d="m86.001 312.8h80c6.075 0 11-4.925 11-11s-4.925-11-11-11h-80c-6.075 0-11 4.925-11 11s4.925 11 11 11z"/><path d="m86.001 262.6h80c6.075 0 11-4.925 11-11s-4.925-11-11-11h-80c-6.075 0-11 4.925-11 11s4.925 11 11 11z"/><path d="m86.001 212.4h80c6.075 0 11-4.925 11-11s-4.925-11-11-11h-80c-6.075 0-11 4.925-11 11s4.925 11 11 11z"/><path d="m86.001 162.2h80c6.075 0 11-4.925 11-11s-4.925-11-11-11h-80c-6.075 0-11 4.925-11 11s4.925 11 11 11z"/><path d="m317 71c0-6.075-4.925-11-11-11h-60c-6.075 0-11 4.925-11 11s4.925 11 11 11h60c6.075 0 11-4.924 11-11z"/></g><path d="m486 140.2h-45c-6.075 0-11 4.925-11 11v9h-128v-9c0-6.075-4.925-11-11-11h-45c-6.075 0-11 4.925-11 11v135c0 6.075 4.925 11 11 11h45c6.075 0 11-4.925 11-11v-9h30.232l-4.729 196.034c-.243 10.092 3.571 19.696 10.742 27.042 7.272 7.451 17.389 11.724 27.755 11.724 10.364 0 20.48-4.273 27.753-11.723 7.172-7.346 10.987-16.95 10.744-27.042l-4.728-196.035h30.231v9c0 6.075 4.925 11 11 11h45c6.075 0 11-4.925 11-11v-135c0-6.075-4.925-11-11-11zm-206 135h-23v-113h23zm102.503 198.565c.1 4.117-1.496 8.075-4.492 11.145-3.158 3.235-7.536 5.09-12.011 5.09-4.476 0-8.854-1.855-12.012-5.091-2.996-3.069-4.591-7.026-4.491-11.144l4.741-196.565h23.523zm-80.503-218.565v-73h128v73zm173 20h-23v-113h23z" fill="#0496FF"/></g><g/><g/><g/><g/><g/><g/><g/><g/><g/><g/><g/><g/><g/><g/><g/></svg>