<svg id="Layer_1" enable-background="new 0 0 512.002 512.002" viewBox="0 0 512.002 512.002" xmlns="http://www.w3.org/2000/svg" fill="#052438"><g><g fill="#0496FF"><path d="m206 258.002c6.075 0 11-4.925 11-11s-4.925-11-11-11h-38.5c-6.075 0-11 4.925-11 11v88c0 6.075 4.925 11 11 11h38.5c6.075 0 11-4.925 11-11s-4.925-11-11-11h-27.5v-22h16.087c6.075 0 11-4.925 11-11s-4.925-11-11-11h-16.087v-22z"/><path d="m358.5 236.003h-38.5c-6.075 0-11 4.925-11 11s4.925 11 11 11h8.251v76.999c0 6.075 4.925 11 11 11s11-4.925 11-11v-76.999h8.249c6.075 0 11-4.925 11-11s-4.924-11-11-11z"/><path d="m105.5 236.002h-22c-6.075 0-11 4.925-11 11v88c0 6.075 4.925 11 11 11h22c18.196 0 33-14.804 33-33v-44c0-18.196-14.803-33-33-33zm11 77c0 6.065-4.935 11-11 11h-11v-66h11c6.065 0 11 4.935 11 11z"/><path d="m263 236.003h-21.999c-6.075 0-11 4.925-11 11v87.999c0 6.075 4.925 11 11 11h21.999c18.196 0 33-14.804 33-33 0-8.444-3.188-16.157-8.423-22 5.235-5.842 8.423-13.556 8.423-22 0-18.195-14.803-32.999-33-32.999zm0 87.999h-10.999v-22h10.999c6.065 0 11 4.935 11 11s-4.934 11-11 11zm0-44h-10.999v-22h10.999c6.065 0 11 4.935 11 11 0 6.066-4.934 11-11 11z"/><path d="m477.523 34.48c-4.296-4.296-11.261-4.296-15.557 0l-14.143 14.142c-4.296 4.296-4.296 11.261 0 15.556 2.148 2.148 4.963 3.222 7.778 3.222 2.814 0 5.631-1.074 7.778-3.222l14.143-14.142c4.297-4.295 4.297-11.26.001-15.556z"/><path d="m510.525 77.505c-3.041-5.26-9.768-7.061-15.028-4.02l-17.314 10.006c-5.26 3.04-7.06 9.768-4.021 15.028 2.039 3.527 5.734 5.498 9.535 5.498 1.867 0 3.76-.477 5.493-1.478l17.314-10.006c5.26-3.039 7.06-9.767 4.021-15.028z"/><path d="m434.497 1.478c-5.263-3.042-11.989-1.239-15.028 4.02l-10.006 17.314c-3.039 5.26-1.239 11.988 4.021 15.028 1.733 1.002 3.626 1.478 5.493 1.478 3.801 0 7.497-1.971 9.535-5.498l10.006-17.314c3.039-5.26 1.239-11.988-4.021-15.028z"/></g><path d="m410.742 177.651 17.444-21.805c3.501-4.376 3.151-10.687-.812-14.65l-19.673-19.673c3.962-3.779 6.985-7.865 9.78-11.641 3.843-5.193 7.161-9.678 12.322-12.658 5.262-3.038 7.063-9.766 4.026-15.026s-9.765-7.065-15.026-4.026c-9.125 5.269-14.375 12.365-19.008 18.625-2.562 3.463-4.887 6.605-7.664 9.158l-21.326-21.326c-3.963-3.963-10.273-4.312-14.649-.812l-21.806 17.444c-34.194-20.474-73.213-31.259-113.35-31.259-59.031 0-114.529 22.988-156.271 64.729-41.74 41.742-64.729 97.24-64.729 156.271s22.989 114.53 64.73 156.271c41.741 41.742 97.239 64.729 156.271 64.729s114.529-22.988 156.271-64.729c41.74-41.741 64.728-97.239 64.728-156.271 0-40.132-10.785-79.151-31.258-113.351zm-189.742 312.351c-109.729 0-199-89.271-199-199s89.271-199 199-199c38.555 0 75.954 11.044 108.155 31.939 3.974 2.579 9.157 2.324 12.858-.638l20.198-16.158 42.645 42.645-16.158 20.197c-2.961 3.701-3.218 8.883-.638 12.859 20.895 32.206 31.94 69.605 31.94 108.156 0 109.729-89.271 199-199 199z"/></g><g/><g/><g/><g/><g/><g/><g/><g/><g/><g/><g/><g/><g/><g/><g/></svg>