<svg id="Layer_1" enable-background="new 0 0 512 512" viewBox="0 0 512 512" xmlns="http://www.w3.org/2000/svg" fill="#052438"><g><g><path d="m286.54 299.057-39.75-68.848 29.504-110.112c.886-3.303.184-6.831-1.898-9.543-2.081-2.713-5.307-4.304-8.727-4.304h-92.849c-6.075 0-11 4.925-11 11s4.925 11 11 11h78.514l-26.974 100.667c-.755 2.818-.36 5.821 1.099 8.347l39.75 68.848-29.176 108.888h-130.033c-7.702 0-14.972-3.028-20.472-8.528s-8.528-12.769-8.528-20.472v-228.75c0-6.075-4.925-11-11-11s-11 4.925-11 11v228.75c0 13.579 5.317 26.374 14.972 36.028s22.45 14.972 36.028 14.972h138.473c4.979 0 9.337-3.344 10.625-8.153l32.541-121.443c.755-2.818.36-5.821-1.099-8.347z"/><path d="m446 106.25h-130.33c-4.979 0-9.337 3.344-10.625 8.153l-30.684 114.514c-.755 2.818-.36 5.821 1.099 8.347l39.749 68.848-31.36 117.042c-.886 3.303-.184 6.831 1.898 9.543 2.081 2.713 5.307 4.304 8.727 4.304h151.526c28.121 0 51-22.878 51-51v-228.751c0-28.122-22.879-51-51-51zm29 198.75h-64c-18.748 0-34-15.252-34-34s15.252-34 34-34h64zm-29 110h-137.191l28.83-107.596c.755-2.818.36-5.821-1.099-8.347l-39.749-68.848 27.319-101.959h121.89c15.99 0 29 13.009 29 29v57.75h-64c-30.879 0-56 25.122-56 56s25.121 56 56 56h64v59c0 15.991-13.01 29-29 29z"/><path d="m410.993 260c-6.075 0-10.996 4.925-10.996 11s4.928 11 11.003 11 11-4.925 11-11-4.925-11-11-11z"/></g><g fill="#0496FF"><path d="m271 470c-6.075 0-11 4.925-11 11v20c0 6.075 4.925 11 11 11s11-4.925 11-11v-20c0-6.075-4.925-11-11-11z"/><path d="m228.025 464.342c-5.871-1.573-11.9 1.911-13.472 7.778l-5.176 19.318c-1.573 5.868 1.91 11.9 7.778 13.472.954.256 1.912.378 2.854.378 4.856 0 9.302-3.242 10.618-8.156l5.176-19.318c1.572-5.868-1.91-11.899-7.778-13.472z"/><path d="m332.624 491.438-5.177-19.318c-1.572-5.869-7.604-9.354-13.473-7.778-5.867 1.572-9.35 7.604-7.777 13.472l5.177 19.318c1.316 4.915 5.761 8.156 10.618 8.156.942 0 1.9-.122 2.854-.378 5.868-1.572 9.35-7.603 7.778-13.472z"/><path d="m101 45c-22.607 0-41 18.393-41 41s18.393 41 41 41 41-18.393 41-41-18.392-41-41-41zm0 60c-10.477 0-19-8.523-19-19s8.523-19 19-19 19 8.523 19 19-8.523 19-19 19z"/><path d="m101 0c-47.42 0-86 38.58-86 86s38.58 86 86 86 86-38.58 86-86-38.579-86-86-86zm0 150.001c-35.29 0-64-28.71-64-64s28.71-64 64-64 64 28.71 64 64-28.709 64-64 64z"/></g></g><g/><g/><g/><g/><g/><g/><g/><g/><g/><g/><g/><g/><g/><g/><g/></svg>