<svg id="Layer_1" enable-background="new 0 0 512 512" viewBox="0 0 512 512" xmlns="http://www.w3.org/2000/svg" fill="#052438"><g><g><path d="m256.001 225c-58.449 0-106.001 47.551-106.001 106s47.552 106 106.001 106c58.448 0 105.999-47.552 105.999-106s-47.551-106-105.999-106zm0 190c-46.318 0-84.001-37.683-84.001-84s37.683-84 84.001-84c46.317 0 83.999 37.682 83.999 84s-37.682 84-83.999 84z"/><path d="m501 45c-8.019 0-11.863-3.036-17.682-7.632-6.976-5.511-15.659-12.368-31.318-12.368s-24.342 6.857-31.318 12.368c-5.819 4.596-9.663 7.632-17.682 7.632s-11.863-3.036-17.682-7.632c-6.976-5.511-15.659-12.368-31.318-12.368s-24.342 6.857-31.318 12.368c-5.819 4.596-9.663 7.632-17.682 7.632s-11.863-3.036-17.682-7.632c-6.976-5.511-15.659-12.368-31.318-12.368s-24.342 6.857-31.318 12.368c-5.819 4.596-9.663 7.632-17.682 7.632s-11.862-3.036-17.682-7.632c-6.976-5.511-15.659-12.368-31.318-12.368s-24.342 6.857-31.318 12.368c-5.819 4.596-9.663 7.632-17.682 7.632s-11.863-3.036-17.682-7.632c-6.976-5.511-15.659-12.368-31.318-12.368s-24.342 6.857-31.318 12.368c-5.819 4.596-9.663 7.632-17.682 7.632-6.075 0-11 4.925-11 11v420c0 6.075 4.925 11 11 11h490c6.075 0 11-4.925 11-11v-420c0-6.075-4.925-11-11-11zm-11 420h-468v-399.273c9.106-2.24 15.176-7.034 20.318-11.095 5.819-4.596 9.663-7.632 17.682-7.632s11.863 3.036 17.682 7.632c6.976 5.511 15.659 12.368 31.318 12.368s24.342-6.857 31.318-12.368c5.819-4.596 9.663-7.632 17.682-7.632s11.863 3.036 17.683 7.632c6.976 5.511 15.659 12.368 31.317 12.368 15.659 0 24.342-6.857 31.318-12.368 5.819-4.596 9.663-7.632 17.682-7.632s11.863 3.036 17.682 7.632c6.976 5.511 15.659 12.368 31.318 12.368s24.342-6.857 31.318-12.368c5.819-4.596 9.663-7.632 17.682-7.632s11.863 3.036 17.682 7.632c6.976 5.511 15.659 12.368 31.318 12.368s24.342-6.857 31.318-12.368c5.819-4.596 9.663-7.632 17.682-7.632s11.863 3.036 17.682 7.632c5.143 4.061 11.212 8.855 20.318 11.095z"/></g><g fill="#0496FF"><path d="m265.108 322.866-9.798-4.059c-1.735-.719-3.094-2.087-3.825-3.854s-.739-3.695-.02-5.431c.719-1.735 2.087-3.094 3.854-3.825 1.766-.732 3.695-.739 5.431-.021l4.899 2.029c5.606 2.323 12.046-.34 14.372-5.953 2.324-5.613-.341-12.047-5.954-14.372l-4.899-2.029c-.716-.296-1.439-.563-2.168-.8v-3.551c0-6.075-4.925-11-11-11s-11 4.925-11 11v5.238c-6.28 3.132-11.159 8.346-13.859 14.865-2.969 7.165-2.961 15.073.02 22.269 2.98 7.196 8.567 12.793 15.731 15.76l9.798 4.059c3.559 1.474 5.32 5.727 3.846 9.286s-5.727 5.317-9.284 3.846l-4.898-2.029c-5.612-2.325-12.047.339-14.372 5.953-2.325 5.612.34 12.047 5.952 14.373l4.9 2.03c.718.297 1.44.563 2.167.799v3.551c0 6.075 4.925 11 11 11s11-4.925 11-11v-5.231c6.048-3.024 11.077-8.151 13.861-14.874 6.14-14.828-.926-31.887-15.754-38.029z"/><path d="m391.292 169.671c-21.229 0-38.501 17.271-38.501 38.5s17.271 38.5 38.501 38.5c21.229 0 38.5-17.271 38.5-38.5s-17.271-38.5-38.5-38.5zm0 55.001c-9.099 0-16.501-7.402-16.501-16.5s7.402-16.5 16.501-16.5c9.098 0 16.5 7.402 16.5 16.5s-7.402 16.5-16.5 16.5z"/><path d="m323.292 92.671c-18.473 0-33.501 15.028-33.501 33.5s15.028 33.5 33.501 33.5c18.472 0 33.5-15.028 33.5-33.5s-15.028-33.5-33.5-33.5zm0 45.001c-6.342 0-11.501-5.159-11.501-11.5s5.159-11.5 11.501-11.5c6.341 0 11.5 5.159 11.5 11.5s-5.159 11.5-11.5 11.5z"/></g></g><g/><g/><g/><g/><g/><g/><g/><g/><g/><g/><g/><g/><g/><g/><g/></svg>