<svg id="Capa_1" enable-background="new 0 0 512 512" viewBox="0 0 512 512" xmlns="http://www.w3.org/2000/svg" fill="#E6ECF2"><g><g><path d="m323.978 383.26-62.478-36.072c-3.404-1.965-7.596-1.965-11 0l-62.478 36.071c-3.403 1.965-5.5 5.596-5.5 9.526v72.143c0 3.93 2.097 7.562 5.5 9.526l62.478 36.071c1.702.982 3.601 1.474 5.5 1.474s3.798-.491 5.5-1.474l62.478-36.071c3.403-1.965 5.5-5.596 5.5-9.526v-72.143c0-3.929-2.097-7.56-5.5-9.525zm-67.978-13.843 40.477 23.37-40.477 23.369-40.477-23.37zm-51.478 42.422 40.478 23.369v46.739l-40.478-23.37zm62.478 70.108v-46.739l40.478-23.37v46.739z"/><path d="m506.5 383.26-62.478-36.071c-3.404-1.965-7.598-1.965-11 0l-62.477 36.071c-3.403 1.965-5.5 5.597-5.5 9.526v72.143c0 3.93 2.097 7.562 5.5 9.526l62.477 36.071c1.702.982 3.601 1.474 5.5 1.474 1.898 0 3.799-.491 5.5-1.474l62.478-36.071c3.403-1.965 5.5-5.596 5.5-9.526v-72.143c0-3.93-2.097-7.561-5.5-9.526zm-67.978-13.843 40.478 23.369-40.477 23.37-40.477-23.37zm-51.476 42.422 40.477 23.369v46.739l-40.477-23.369zm62.476 70.108v-46.739l40.478-23.369v46.739z"/><path d="m141.454 383.26-62.477-36.071c-3.403-1.964-7.597-1.965-11 0l-62.477 36.071c-3.403 1.965-5.5 5.596-5.5 9.526v72.143c0 3.93 2.097 7.562 5.5 9.526l62.478 36.071c1.702.982 3.601 1.474 5.5 1.474s3.799-.491 5.5-1.474l62.477-36.071c3.403-1.965 5.5-5.597 5.5-9.526v-72.143c-.001-3.93-2.098-7.561-5.501-9.526zm-67.976-13.843 40.477 23.37-40.477 23.37-40.478-23.371zm-51.478 42.422 40.478 23.37v46.739l-40.478-23.37zm62.478 70.108v-46.739l40.477-23.369v46.739z"/><path d="m136.017 209.4h77.104v-22h-77.104c-23.264 0-42.19-18.927-42.19-42.19 0-17.558 11.057-33.458 27.514-39.565 5.161-1.915 8.111-7.351 6.906-12.722-.485-2.161-.731-4.356-.731-6.525 0-16.328 13.283-29.611 29.611-29.611 5.764 0 11.354 1.664 16.168 4.811 2.797 1.829 6.273 2.287 9.451 1.244 3.175-1.042 5.704-3.473 6.874-6.604 7.645-20.479 27.472-34.238 49.338-34.238 21.601 0 41.344 13.536 49.127 33.682 2.062 5.336 7.868 8.205 13.358 6.59 5.11-1.5 10.422-2.26 15.786-2.26 26.636 0 49.716 18.931 54.881 45.013.995 5.026 5.328 8.7 10.45 8.858 19.97.618 35.613 16.757 35.613 36.742 0 20.278-16.497 36.775-36.775 36.775h-80.278v22h80.278c32.409 0 58.775-26.367 58.775-58.775 0-15.377-5.9-29.917-16.615-40.942-8.701-8.953-19.807-14.805-31.897-16.926-10.014-32.165-40.104-54.744-74.432-54.744-4.256 0-8.489.345-12.663 1.028-12.927-23.684-38.214-39.041-65.608-39.041-26.944 0-51.705 14.736-64.841 37.659-5.427-1.895-11.158-2.872-16.991-2.872-28.459 0-51.611 23.153-51.611 51.611 0 .766.018 1.534.052 2.301-20.488 11.081-33.74 32.802-33.74 56.511-.001 35.394 28.795 64.19 64.19 64.19z"/></g><path d="m330.589 245.617c-1.703-4.11-5.714-6.791-10.163-6.791h-9.426v-52.426c0-6.075-4.925-11-11-11h-33v-22h9.427c4.449 0 8.46-2.68 10.163-6.791 1.702-4.11.761-8.842-2.385-11.988l-42.427-42.426c-2.063-2.063-4.861-3.222-7.778-3.222s-5.715 1.159-7.778 3.222l-42.426 42.426c-3.146 3.146-4.087 7.877-2.385 11.988 1.703 4.11 5.714 6.791 10.163 6.791h9.426v52.426c0 6.075 4.925 11 11 11h33v22h-9.427c-4.449 0-8.46 2.68-10.163 6.791-1.702 4.11-.761 8.842 2.385 11.988l42.427 42.427c2.148 2.148 4.963 3.222 7.778 3.222s5.63-1.074 7.778-3.222l42.427-42.427c3.145-3.147 4.087-7.878 2.384-11.988zm-107.589-50.791v-52.426c0-4.293-2.459-8.012-6.046-9.824l17.046-17.046 17.046 17.046c-3.586 1.812-6.046 5.531-6.046 9.824v52.426zm55 81.871-17.046-17.046c3.586-1.812 6.046-5.531 6.046-9.824v-52.427h22v52.426c0 4.293 2.46 8.012 6.046 9.824z" fill="#0496FF"/></g><g/><g/><g/><g/><g/><g/><g/><g/><g/><g/><g/><g/><g/><g/><g/></svg>