<svg id="Capa_1" enable-background="new 0 0 512 512" viewBox="0 0 512 512" xmlns="http://www.w3.org/2000/svg" fill="#E6ECF2"><g><g fill="#0496FF"><path d="m378.5 187v69.625h-245v-69.625h-22v80.625c0 6.075 4.925 11 11 11h122.5v69.625h22v-69.625h122.5c6.075 0 11-4.925 11-11v-80.625z"/><path d="m65.16 50.79c-2.685-7.1-12.735-9.08-17.94-3.57-6.891 6.799-1.908 18.855 7.78 18.78 7.584.222 13.28-8.287 10.16-15.21z"/><path d="m109.16 50.79c-2.691-7.1-12.733-9.08-17.94-3.57-6.896 6.805-1.911 18.849 7.78 18.78 7.586.217 13.272-8.28 10.16-15.21z"/><path d="m311.84 59.21c2.762 7.138 12.647 9.074 17.94 3.57 6.185-5.999 2.865-17.026-5.631-18.56-8.462-1.808-15.739 7.064-12.309 14.99z"/><path d="m355.84 59.21c2.692 7.095 12.736 9.086 17.94 3.57 7.618-7.608.648-20.684-9.931-18.56-6.627 1.139-10.736 8.847-8.009 14.99z"/><path d="m65.16 138.79c-2.685-7.1-12.735-9.08-17.94-3.57-6.891 6.799-1.908 18.855 7.78 18.78 7.584.222 13.28-8.287 10.16-15.21z"/><path d="m109.16 138.79c-2.694-7.099-12.73-9.078-17.94-3.57-6.195 6.009-2.862 17.013 5.63 18.57 8.434 1.823 15.746-7.08 12.31-15z"/><path d="m311.84 147.21c2.691 7.103 12.731 9.082 17.94 3.57 6.184-5.998 2.865-17.03-5.631-18.56-8.433-1.844-15.747 7.076-12.309 14.99z"/><path d="m355.84 147.21c3.082 8.003 14.72 9.136 19.31 1.9 5.424-8.04-1.788-18.822-11.3-16.899-6.628 1.167-10.739 8.839-8.01 14.999z"/></g><g><path d="m501 0h-223c-6.075 0-11 4.925-11 11v176c0 6.075 4.925 11 11 11h223c6.075 0 11-4.925 11-11v-176c0-6.075-4.925-11-11-11zm-212 22h201v66h-201zm201 154h-201v-66h201z"/><path d="m245 187v-176c0-6.075-4.925-11-11-11h-223c-6.075 0-11 4.925-11 11v176c0 6.075 4.925 11 11 11h223c6.075 0 11-4.925 11-11zm-223-165h201v66h-201zm201 154h-201v-66h201z"/><path d="m367.5 337.25h-223c-6.075 0-11 4.925-11 11v152.75c0 6.075 4.925 11 11 11h223c6.075 0 11-4.925 11-11v-152.75c0-6.076-4.925-11-11-11zm-11 44h-106.687l-15-22h121.687zm-201 108.75v-130.75h52.687l26.725 39.197c2.049 3.005 5.451 4.803 9.088 4.803h112.5v86.75z"/></g></g><g/><g/><g/><g/><g/><g/><g/><g/><g/><g/><g/><g/><g/><g/><g/></svg>