<svg id="Capa_1" enable-background="new 0 0 512 512" viewBox="0 0 512 512" xmlns="http://www.w3.org/2000/svg" fill="#E6ECF2"><g><g fill="#0496FF"><path d="m446.218 333.518c-4.297-4.296-11.26-4.296-15.557 0l-8.926 8.926v-243.444h-22v243.443l-8.925-8.925c-4.297-4.296-11.262-4.296-15.557 0-4.296 4.296-4.296 11.261 0 15.556l27.703 27.704c2.062 2.063 4.86 3.222 7.778 3.222 2.917 0 5.715-1.159 7.778-3.222l27.704-27.704c4.298-4.296 4.298-11.261.002-15.556z"/><path d="m109.043 135.222c-2.062-2.063-4.86-3.222-7.778-3.222-2.917 0-5.715 1.159-7.778 3.222l-27.704 27.704c-4.296 4.296-4.296 11.261 0 15.557 4.297 4.296 11.26 4.296 15.557 0l8.926-8.926v243.443h22v-243.443l8.925 8.925c2.148 2.148 4.963 3.222 7.778 3.222 2.814 0 5.631-1.074 7.778-3.222 4.296-4.296 4.296-11.261 0-15.556z"/><path d="m55 66h20c6.075 0 11-4.925 11-11s-4.925-11-11-11h-20c-6.075 0-11 4.925-11 11s4.925 11 11 11z"/><path d="m364.472 66h20c6.075 0 11-4.925 11-11s-4.925-11-11-11h-20c-6.075 0-11 4.925-11 11s4.924 11 11 11z"/><path d="m240.989 74.926c-4.296 4.296-4.296 11.261 0 15.557 2.148 2.148 4.963 3.222 7.778 3.222s5.63-1.074 7.778-3.222l27.704-27.704c4.296-4.296 4.296-11.261 0-15.557l-27.704-27.704c-4.297-4.296-11.26-4.296-15.557 0-4.296 4.296-4.296 11.261 0 15.557l8.927 8.925h-58.387v22h58.387z"/><path d="m75 446h-20c-6.075 0-11 4.925-11 11s4.925 11 11 11h20c6.075 0 11-4.925 11-11s-4.925-11-11-11z"/><path d="m384.472 446h-20c-6.075 0-11 4.925-11 11s4.925 11 11 11h20c6.075 0 11-4.925 11-11s-4.925-11-11-11z"/><path d="m271.011 437.074c4.296-4.296 4.296-11.261 0-15.557-4.297-4.296-11.26-4.296-15.557 0l-27.704 27.704c-4.296 4.296-4.296 11.261 0 15.557l27.704 27.704c2.148 2.148 4.963 3.222 7.778 3.222s5.63-1.074 7.778-3.222c4.296-4.296 4.296-11.261 0-15.557l-8.925-8.925h58.387v-22h-58.387z"/></g><g><path d="m11 110h180.528c6.075 0 11-4.925 11-11v-88c0-6.075-4.925-11-11-11h-180.528c-6.075 0-11 4.925-11 11v88c0 6.075 4.925 11 11 11zm11-88h158.528v66h-158.528z"/><path d="m501 0h-180.528c-6.075 0-11 4.925-11 11v88c0 6.075 4.925 11 11 11h180.528c6.075 0 11-4.925 11-11v-88c0-6.075-4.925-11-11-11zm-11 88h-158.528v-66h158.528z"/><path d="m338.333 297.185v-82.369c0-3.93-2.097-7.562-5.5-9.526l-71.333-41.185c-3.404-1.965-7.596-1.965-11 0l-71.333 41.184c-3.403 1.965-5.5 5.597-5.5 9.526v82.369c0 3.93 2.097 7.562 5.5 9.526l71.333 41.184c1.702.982 3.601 1.474 5.5 1.474s3.798-.491 5.5-1.474l71.333-41.184c3.403-1.964 5.5-5.596 5.5-9.525zm-82.333-110.852 49.333 28.483-49.333 28.482-49.333-28.483zm-60.333 47.535 49.333 28.483v56.965l-49.333-28.483zm71.333 85.448v-56.965l49.333-28.483v56.965z"/><path d="m191.528 402h-180.528c-6.075 0-11 4.925-11 11v88c0 6.075 4.925 11 11 11h180.528c6.075 0 11-4.925 11-11v-88c0-6.075-4.924-11-11-11zm-11 88h-158.528v-66h158.528z"/><path d="m501 402h-180.528c-6.075 0-11 4.925-11 11v88c0 6.075 4.925 11 11 11h180.528c6.075 0 11-4.925 11-11v-88c0-6.075-4.925-11-11-11zm-11 88h-158.528v-66h158.528z"/></g></g><g/><g/><g/><g/><g/><g/><g/><g/><g/><g/><g/><g/><g/><g/><g/></svg>