<svg id="Capa_1" enable-background="new 0 0 512 512" viewBox="0 0 512 512" xmlns="http://www.w3.org/2000/svg" fill="#052438"><g><g fill="#0496FF"><path d="m145.832 197.824c-6.531-6.532-10.128-15.215-10.128-24.451v-7.896c0-15.112-5.885-29.32-16.571-40.006l-33.183-33.183-15.557 15.557 33.183 33.183c6.531 6.531 10.127 15.214 10.127 24.45v7.896c0 15.112 5.885 29.32 16.571 40.007l4.226 4.226c6.531 6.531 10.127 15.214 10.127 24.45s-3.597 17.919-10.127 24.45l-19.056 19.056c-10.686 10.687-16.571 24.894-16.571 40.006v8.954c0 9.236-3.597 17.919-10.127 24.45l-16.126 16.124 15.556 15.557 16.126-16.126c10.686-10.686 16.571-24.894 16.571-40.006v-8.954c0-9.236 3.597-17.919 10.128-24.45l19.056-19.056c10.686-10.686 16.571-24.894 16.571-40.006s-5.885-29.32-16.571-40.006z"/><path d="m227.612 265.646v-11.425c0-1.878.731-3.644 2.06-4.972l21.552-21.552c5.483-5.483 8.503-12.774 8.503-20.528v-9.683c0-1.878.731-3.644 2.06-4.972l5.695-5.695c11.318-11.319 11.318-29.737 0-41.057-5.484-5.483-12.774-8.502-20.528-8.502h-22.461c-3.877 0-7.031-3.154-7.031-7.031v-5.081c0-1.878.731-3.644 2.06-4.972l42.68-42.68-15.557-15.557-42.681 42.68c-5.483 5.484-8.502 12.774-8.502 20.528v5.081c0 16.008 13.023 29.031 29.031 29.031h22.461c1.878 0 3.644.731 4.972 2.059 2.741 2.742 2.741 7.203 0 9.944l-5.694 5.694c-5.483 5.483-8.503 12.773-8.503 20.529v9.683c0 1.878-.731 3.644-2.06 4.972l-21.553 21.552c-5.483 5.484-8.502 12.774-8.502 20.528v11.425c0 7.754 3.02 15.044 8.503 20.528l54.533 54.532 13.458-17.656-52.434-52.433c-1.331-1.326-2.062-3.092-2.062-4.97z"/><path d="m332.16 315.93c-2.695-7.107-12.732-9.095-17.94-3.57-6.896 6.785-1.899 18.862 7.781 18.77 7.575.235 13.274-8.281 10.159-15.2z"/><path d="m355.84 324.34c2.688 7.105 12.736 9.092 17.94 3.57 6.194-5.989 2.853-17.028-5.63-18.559-8.416-1.845-15.76 7.085-12.31 14.989z"/><path d="m332.16 403.93c-2.695-7.107-12.732-9.095-17.94-3.57-6.895 6.784-1.9 18.862 7.781 18.77 7.576.235 13.272-8.282 10.159-15.2z"/><path d="m376.16 403.93c-2.689-7.107-12.734-9.094-17.94-3.57-6.899 6.785-1.899 18.861 7.781 18.77 7.579.235 13.272-8.281 10.159-15.2z"/></g><path d="m501 265.134h-118.862c1.026-8.08 1.552-16.252 1.552-24.423 0-105.784-86.062-191.845-191.845-191.845s-191.845 86.061-191.845 191.845 86.062 191.845 191.845 191.845c25.862 0 51.519-5.255 75.155-15.3v34.878c0 6.075 4.925 11 11 11h223c6.075 0 11-4.925 11-11v-176c0-6.075-4.925-11-11-11zm-11 88h-201v-66h201zm-298.155 57.422c-93.653 0-169.845-76.192-169.845-169.845s76.192-169.845 169.845-169.845 169.845 76.192 169.845 169.845c0 8.183-.592 16.364-1.75 24.423h-81.94c-6.075 0-11 4.925-11 11v116.915c-23.225 11.461-49.065 17.507-75.155 17.507zm298.155 30.578h-201v-66h201z"/></g><g/><g/><g/><g/><g/><g/><g/><g/><g/><g/><g/><g/><g/><g/><g/></svg>