<svg id="Capa_1" enable-background="new 0 0 512.127 512.127" viewBox="0 0 512.127 512.127" xmlns="http://www.w3.org/2000/svg" fill="#E6ECF2"><g><g fill="#0496FF"><path d="m11 150.063c6.075 0 11-4.925 11-11v-117h117c6.075 0 11-4.925 11-11s-4.925-11-11-11h-128c-6.075 0-11 4.925-11 11v128c0 6.076 4.925 11 11 11z"/><path d="m501 .063h-128c-6.075 0-11 4.925-11 11s4.925 11 11 11h117v117c0 6.075 4.925 11 11 11s11-4.925 11-11v-128c0-6.075-4.925-11-11-11z"/><path d="m139 490.063h-117v-117c0-6.075-4.925-11-11-11s-11 4.925-11 11v128c0 6.075 4.925 11 11 11h128c6.075 0 11-4.925 11-11s-4.925-11-11-11z"/><path d="m501 362.063c-6.075 0-11 4.925-11 11v117h-117c-6.075 0-11 4.925-11 11s4.925 11 11 11h128c6.075 0 11-4.925 11-11v-128c0-6.075-4.925-11-11-11z"/><path d="m337.522 161.307-14.355 16.671c22.772 19.609 35.833 48.07 35.833 78.085 0 56.794-46.206 103-103 103s-103-46.206-103-103c0-30.016 13.061-58.477 35.833-78.085l-14.354-16.672c-27.632 23.792-43.479 58.33-43.479 94.757 0 68.925 56.075 125 125 125s125-56.075 125-125c0-36.427-15.847-70.964-43.478-94.756z"/></g><g><path d="m313.924 256.063c0-31.939-25.984-57.924-57.924-57.924s-57.924 25.984-57.924 57.924 25.984 57.924 57.924 57.924c3.939 0 7.846-.406 11.676-1.192 5.482 3.566 12.015 5.647 19.028 5.647 19.299 0 35-15.701 35-35 0-8.451-3.011-16.212-8.017-22.267.152-1.705.237-3.413.237-5.112zm-93.848 0c0-19.809 16.115-35.924 35.924-35.924 17.299 0 31.778 12.291 35.171 28.598-1.464-.187-2.952-.295-4.466-.295-19.299 0-35 15.701-35 35 0 2.892.359 5.7 1.023 8.389-18.28-1.659-32.652-17.063-32.652-35.768zm66.628 40.379c-7.168 0-13-5.832-13-13s5.832-13 13-13 13 5.832 13 13-5.831 13-13 13z"/><path d="m511.158 251.55c-21.744-48.322-56.76-89.332-101.263-118.597-45.652-30.021-98.825-45.889-153.768-45.889s-108.116 15.868-153.768 45.889c-44.503 29.265-79.519 70.274-101.263 118.597-1.292 2.871-1.292 6.157 0 9.027 21.744 48.322 56.76 89.332 101.263 118.597 45.652 30.021 98.825 45.889 153.768 45.889s108.116-15.868 153.768-45.889c44.503-29.265 79.519-70.275 101.263-118.597 1.292-2.871 1.292-6.157 0-9.027zm-396.711-100.216c42.053-27.654 91.045-42.271 141.68-42.271s99.627 14.617 141.68 42.271c25.479 16.755 47.574 37.69 65.463 61.814-61.172-40.315-133.016-62.085-207.27-62.085-74.046 0-145.708 21.654-206.773 61.758 17.846-23.985 39.856-44.808 65.22-61.487zm283.36 209.458c-42.053 27.654-91.045 42.271-141.68 42.271s-99.627-14.617-141.68-42.271c-38.741-25.476-69.668-60.607-89.855-101.94 64.372-55.382 146.222-85.789 231.408-85.789 85.274 0 167.188 30.461 231.587 85.942-20.187 41.267-51.087 76.343-89.78 101.787z"/></g></g><g/><g/><g/><g/><g/><g/><g/><g/><g/><g/><g/><g/><g/><g/><g/></svg>