<svg id="Capa_1" enable-background="new 0 0 512 512" viewBox="0 0 512 512" xmlns="http://www.w3.org/2000/svg" fill="#E6ECF2"><g><g fill="#0496FF"><path d="m245 258v-4c0-6.075-4.925-11-11-11s-11 4.925-11 11v4c0 6.075 4.925 11 11 11s11-4.925 11-11z"/><path d="m239.331 290.573c-5.997.971-10.071 6.62-9.1 12.617.875 5.401 5.544 9.243 10.845 9.243.584 0 1.176-.046 1.772-.143 26.742-4.332 46.152-27.164 46.152-54.29v-4c0-5.935-.942-11.778-2.801-17.368-1.917-5.765-8.144-8.883-13.909-6.967-5.765 1.917-8.884 8.145-6.967 13.909 1.113 3.347 1.677 6.855 1.677 10.426v4c0 16.277-11.636 29.976-27.669 32.573z"/><path d="m234 199c-30.327 0-55 24.673-55 55v4c0 12 3.798 23.405 10.983 32.981 2.161 2.88 5.463 4.399 8.807 4.399 2.297 0 4.614-.717 6.593-2.202 4.859-3.646 5.843-10.541 2.197-15.4-4.305-5.737-6.58-12.577-6.58-19.778v-4c0-18.196 14.804-33 33-33 6.075 0 11-4.925 11-11s-4.925-11-11-11z"/><path d="m234 155c-6.075 0-11 4.925-11 11s4.925 11 11 11c42.458 0 77 34.542 77 77v4c0 8.951-1.532 17.728-4.552 26.086-2.065 5.713.893 12.019 6.607 14.083 1.235.446 2.496.658 3.738.658 4.502 0 8.727-2.786 10.346-7.265 3.889-10.762 5.861-22.055 5.861-33.562v-4c0-54.589-44.411-99-99-99z"/><path d="m284.988 315.638c-14.095 12.486-32.203 19.362-50.988 19.362-21.683 0-42.495-9.26-57.1-25.405-4.076-4.505-11.031-4.854-15.537-.778-4.505 4.076-4.854 11.032-.778 15.537 18.768 20.747 45.526 32.646 73.415 32.646 24.164 0 47.453-8.84 65.575-24.893 4.548-4.028 4.969-10.98.941-15.528s-10.981-4.968-15.528-.941z"/><path d="m186.111 193.756c4.751-3.786 5.534-10.707 1.748-15.458-3.787-4.751-10.707-5.534-15.458-1.748-23.769 18.939-37.401 47.168-37.401 77.45v4c0 6.075 4.925 11 11 11s11-4.925 11-11v-4c0-23.545 10.611-45.503 29.111-60.244z"/></g><path d="m396.43 245c14.651 0 26.57-11.919 26.57-26.57v-12.86c0-14.651-11.919-26.57-26.57-26.57h-17.43v-21.302c0-26.141-19.89-47.721-45.33-50.411l-16.114-79.26c-3.302-16.24-17.726-28.027-34.298-28.027h-98.516c-16.572 0-30.996 11.787-34.298 28.027l-16.114 79.26c-25.44 2.69-45.33 24.27-45.33 50.411v196.604c0 26.141 19.89 47.721 45.33 50.411l16.114 79.26c3.302 16.24 17.726 28.027 34.298 28.027h98.516c16.572 0 30.996-11.787 34.298-28.027l16.114-79.26c25.44-2.69 45.33-24.27 45.33-50.411v-21.302h17.43c14.651 0 26.57-11.919 26.57-26.57v-12.86c0-14.651-11.919-26.57-26.57-26.57h-17.43v-22zm-17.43-44h17.43c2.52 0 4.57 2.05 4.57 4.57v12.859c0 2.52-2.05 4.57-4.57 4.57h-17.43zm-206.998-168.59c1.227-6.032 6.584-10.41 12.74-10.41h98.516c6.155 0 11.513 4.378 12.74 10.41l15.164 74.59h-154.324zm123.996 447.18c-1.227 6.032-6.584 10.41-12.74 10.41h-98.516c-6.155 0-11.513-4.378-12.74-10.41l-15.164-74.59h154.325zm61.002-125.288c0 15.824-12.874 28.698-28.698 28.698h-188.604c-15.824 0-28.698-12.874-28.698-28.698v-196.604c0-15.824 12.874-28.698 28.698-28.698h188.604c15.824 0 28.698 12.874 28.698 28.698zm39.43-65.302c2.52 0 4.57 2.05 4.57 4.57v12.859c0 2.52-2.05 4.57-4.57 4.57h-17.43v-22h17.43z"/></g><g/><g/><g/><g/><g/><g/><g/><g/><g/><g/><g/><g/><g/><g/><g/></svg>