<svg id="Capa_1" enable-background="new 0 0 512 512" viewBox="0 0 512 512" xmlns="http://www.w3.org/2000/svg" fill="#E6ECF2"><g><g><path d="m318.668 396.816h-296.668v-259.816h148.999c3.395 0 6.599-1.567 8.683-4.247l31.697-40.753h198.62v199.555c0 6.075 4.925 11 11 11s11-4.925 11-11v-255.555c0-6.075-4.925-11-11-11h-409.999c-6.075 0-11 4.925-11 11v371.816c0 6.075 4.925 11 11 11h307.668c6.075 0 11-4.925 11-11s-4.925-11-11-11zm91.331-349.816v23h-204c-3.395 0-6.599 1.567-8.683 4.247l-31.697 40.753h-143.619v-68z"/><path d="m56.007 91.999c6.075 0 11-4.925 11-11s-4.925-11-11-11h-.007c-6.075 0-10.996 4.925-10.996 11s4.928 11 11.003 11z"/><path d="m101.007 91.999c6.075 0 11-4.925 11-11s-4.925-11-11-11h-.007c-6.075 0-10.996 4.925-10.996 11s4.928 11 11.003 11z"/><path d="m146.006 91.999c6.075 0 11-4.925 11-11s-4.925-11-11-11h-.007c-6.075 0-10.997 4.925-10.997 11s4.929 11 11.004 11z"/><path d="m452.528 355.721c-4.296-4.296-11.261-4.296-15.557 0l-37.222 37.223-14.722-14.722c-4.296-4.296-11.261-4.296-15.557 0-4.295 4.296-4.295 11.261 0 15.557l22.5 22.5c2.148 2.148 4.963 3.222 7.778 3.222s5.63-1.074 7.778-3.222l45-45c4.297-4.298 4.297-11.262.002-15.558z"/><path d="m216 194.989c-46.987 0-90.801 25.458-114.345 66.44-1.949 3.393-1.949 7.566 0 10.959 23.544 40.982 67.358 66.44 114.345 66.44s90.801-25.458 114.345-66.44c1.949-3.393 1.949-7.566 0-10.959-23.544-40.982-67.359-66.44-114.345-66.44zm0 115.919c-24.262 0-44-19.738-44-44s19.738-44 44-44 44 19.738 44 44-19.739 44-44 44zm-91.906-44c9.214-14.074 21.403-25.67 35.435-34.133-6.046 9.965-9.529 21.65-9.529 34.133s3.483 24.167 9.529 34.132c-14.032-8.462-26.221-20.058-35.435-34.132zm148.377 34.132c6.046-9.965 9.529-21.649 9.529-34.132s-3.484-24.167-9.529-34.132c14.032 8.462 26.221 20.059 35.434 34.132-9.214 14.073-21.402 25.67-35.434 34.132z"/></g><g fill="#0496FF"><path d="m411 285c-55.691 0-101 45.309-101 101s45.309 101 101 101 101-45.309 101-101-45.309-101-101-101zm0 180c-43.561 0-79-35.439-79-79s35.439-79 79-79 79 35.439 79 79-35.44 79-79 79z"/><path d="m114.148 160h-40.617c-6.075 0-11 4.925-11 11v33.978c0 6.075 4.925 11 11 11s11-4.925 11-11v-22.978h29.617c6.075 0 11-4.925 11-11s-4.924-11-11-11z"/><path d="m114.148 351.816h-29.617v-22.977c0-6.075-4.925-11-11-11s-11 4.925-11 11v33.977c0 6.075 4.925 11 11 11h40.617c6.075 0 11-4.925 11-11s-4.924-11-11-11z"/><path d="m317.851 182h29.617v22.977c0 6.075 4.925 11 11 11s11-4.925 11-11v-33.977c0-6.075-4.925-11-11-11h-40.617c-6.075 0-11 4.925-11 11s4.924 11 11 11z"/><path d="m216.003 255.908h-.007c-6.075 0-10.997 4.925-10.997 11s4.928 11 11.003 11 11-4.925 11-11-4.924-11-10.999-11z"/></g></g><g/><g/><g/><g/><g/><g/><g/><g/><g/><g/><g/><g/><g/><g/><g/></svg>