<svg id="Capa_1" enable-background="new 0 0 512 512" viewBox="0 0 512 512" xmlns="http://www.w3.org/2000/svg" fill="#E6ECF2"><g><g><g><path d="m121 279.5c-6.075 0-11-4.925-11-11v-25c0-6.075 4.925-11 11-11s11 4.925 11 11v25c0 6.075-4.925 11-11 11z"/></g><g><path d="m166 322c-6.075 0-11-4.925-11-11v-110c0-6.075 4.925-11 11-11s11 4.925 11 11v110c0 6.075-4.925 11-11 11z"/></g><g><path d="m210.999 296c-6.075 0-11-4.925-11-11v-58c0-6.075 4.925-11 11-11s11 4.925 11 11v58c0 6.075-4.925 11-11 11z"/></g><g><path d="m255.999 279.5c-6.075 0-11-4.925-11-11v-25c0-6.075 4.925-11 11-11s11 4.925 11 11v25c0 6.075-4.925 11-11 11z"/></g><g><path d="m300.999 322c-6.075 0-11-4.925-11-11v-110c0-6.075 4.925-11 11-11s11 4.925 11 11v110c0 6.075-4.925 11-11 11z"/></g><g><path d="m345.998 296c-6.075 0-11-4.925-11-11v-58c0-6.075 4.925-11 11-11s11 4.925 11 11v58c0 6.075-4.925 11-11 11z"/></g><g><path d="m390.998 279.5c-6.075 0-11-4.925-11-11v-25c0-6.075 4.925-11 11-11s11 4.925 11 11v25c0 6.075-4.925 11-11 11z"/></g></g><g><g><g><path d="m11 102c-6.075 0-11-4.925-11-11v-55c0-6.075 4.925-11 11-11h61.25c6.075 0 11 4.925 11 11s-4.925 11-11 11h-50.25v44c0 6.075-4.924 11-11 11z" fill="#0496FF"/></g><g><path d="m72.25 487h-61.25c-6.075 0-11-4.925-11-11v-55c0-6.075 4.925-11 11-11s11 4.925 11 11v44h50.25c6.075 0 11 4.925 11 11s-4.925 11-11 11z" fill="#0496FF"/></g><g><path d="m501 487h-61.25c-6.075 0-11-4.925-11-11s4.925-11 11-11h50.25v-44c0-6.075 4.925-11 11-11s11 4.925 11 11v55c0 6.075-4.925 11-11 11z" fill="#0496FF"/></g><g><path d="m501 102c-6.075 0-11-4.925-11-11v-44h-50.25c-6.075 0-11-4.925-11-11s4.925-11 11-11h61.25c6.075 0 11 4.925 11 11v55c0 6.076-4.925 11-11 11z" fill="#0496FF"/></g></g><g><path d="m406 367h-300c-22.607 0-41-18.393-41-41v-140c0-22.607 18.393-41 41-41h300c22.607 0 41 18.393 41 41v140c0 22.607-18.393 41-41 41zm-300-200c-10.477 0-19 8.523-19 19v140c0 10.477 8.523 19 19 19h300c10.477 0 19-8.523 19-19v-140c0-10.477-8.523-19-19-19z" fill="#0496FF"/></g></g></g><g/><g/><g/><g/><g/><g/><g/><g/><g/><g/><g/><g/><g/><g/><g/></svg>