<svg id="Capa_1" enable-background="new 0 0 512 512" viewBox="0 0 512 512" xmlns="http://www.w3.org/2000/svg" fill="#E6ECF2"><g><g><path d="m478.5 295c-8.652 0-16.55 3.298-22.5 8.701-5.95-5.403-13.848-8.701-22.5-8.701-4.038 0-7.912.719-11.5 2.034v-251.034c0-6.075-4.925-11-11-11h-400c-6.075 0-11 4.925-11 11v324.999c0 6.075 4.925 11 11 11h299v4c0 50.178 40.822 91 91 91h20c50.178 0 91-40.822 91-91v-57.5c0-18.471-15.029-33.499-33.5-33.499zm-78.5-170h-113v-68h113zm-378-68h243v302.999h-243zm265 302.999v-212.999h113v150.034c-3.588-1.315-7.462-2.034-11.5-2.034s-7.912.718-11.5 2.034v-47.035c0-18.472-15.028-33.5-33.5-33.5s-33.5 15.028-33.5 33.5v110zm203 26.001c0 38.047-30.953 69-69 69h-20c-38.047 0-69-30.953-69-69v-136c0-6.341 5.159-11.5 11.5-11.5s11.5 5.159 11.5 11.5v78.5c0 6.075 4.925 11 11 11s11-4.925 11-11c0-6.341 5.159-11.5 11.5-11.5s11.5 5.159 11.5 11.5c0 6.075 4.925 11 11 11s11-4.925 11-11c0-6.341 5.159-11.5 11.5-11.5s11.5 5.159 11.5 11.5c0 6.075 4.925 11 11 11s11-4.925 11-11c0-6.341 5.159-11.5 11.5-11.5s11.5 5.159 11.5 11.5z"/><path d="m88.753 270h-10.506c-6.075 0-11 4.925-11 11s4.925 11 11 11h10.507c6.075 0 11-4.925 11-11s-4.925-11-11.001-11z"/><path d="m148.753 270h-10.507c-6.075 0-11 4.925-11 11s4.925 11 11 11h10.507c6.075 0 11-4.925 11-11s-4.924-11-11-11z"/><path d="m198.246 292h10.507c6.075 0 11-4.925 11-11s-4.925-11-11-11h-10.507c-6.075 0-11 4.925-11 11s4.925 11 11 11z"/><path d="m88.753 315h-10.506c-6.075 0-11 4.925-11 11s4.925 11 11 11h10.507c6.075 0 11-4.925 11-11s-4.925-11-11.001-11z"/><path d="m148.753 315h-10.507c-6.075 0-11 4.925-11 11s4.925 11 11 11h10.507c6.075 0 11-4.925 11-11s-4.924-11-11-11z"/><path d="m208.753 315h-10.507c-6.075 0-11 4.925-11 11s4.925 11 11 11h10.507c6.075 0 11-4.925 11-11s-4.924-11-11-11z"/></g><g fill="#0496FF"><path d="m231 80h-175c-6.075 0-11 4.925-11 11v145c0 6.075 4.925 11 11 11h175c6.075 0 11-4.925 11-11v-145c0-6.075-4.925-11-11-11zm-87.5 95c-7.72 0-14-6.28-14-14s6.28-14 14-14c7.719 0 14 6.28 14 14s-6.28 14-14 14zm0 22c16.261 0 29.714 12.246 31.624 28h-63.248c1.91-15.754 15.363-28 31.624-28zm76.5 28h-22.78c-1.257-17.673-11.078-33.017-25.328-41.892 4.765-6.106 7.607-13.781 7.607-22.109 0-19.851-16.149-36-36-36s-36 16.149-36 36c0 8.327 2.842 16.003 7.607 22.108-14.248 8.876-24.07 24.22-25.326 41.893h-22.78v-123h153z"/><path d="m366 80h-45c-6.075 0-11 4.925-11 11s4.925 11 11 11h45c6.075 0 11-4.925 11-11s-4.925-11-11-11z"/></g></g><g/><g/><g/><g/><g/><g/><g/><g/><g/><g/><g/><g/><g/><g/><g/></svg>