<svg id="Capa_1" enable-background="new 0 0 512 512" viewBox="0 0 512 512" xmlns="http://www.w3.org/2000/svg" fill="#052438"><g><g><path d="m475.104 109.552c-54.342 0-98.553-44.21-98.553-98.552 0-6.075-4.925-11-11-11h-219.103c-6.075 0-11 4.925-11 11 0 54.342-44.21 98.552-98.552 98.552-6.075 0-11 4.925-11 11 0 71.306 4.42 162.85 38.893 238.457 16.894 37.053 40.197 68.315 69.262 92.919 31.867 26.975 71.938 47.06 119.102 59.697.933.25 1.89.375 2.847.375s1.914-.125 2.847-.375c47.164-12.637 87.236-32.723 119.103-59.697 29.065-24.604 52.369-55.866 69.263-92.919 34.472-75.606 38.893-167.151 38.893-238.457-.002-6.075-4.927-11-11.002-11zm-208.104 376.822v-95.375c0-6.075-4.925-11-11-11s-11 4.925-11 11v95.375c-117.977-36.648-166.731-119.828-185.794-219.374h79.294c6.075 0 11-4.925 11-11s-4.925-11-11-11h-83.003c-5.378-36.617-7.286-75.068-7.565-113.949 57.696-5.26 103.774-51.35 109.018-109.051h88.05v99.001c0 6.075 4.925 11 11 11s11-4.925 11-11v-99.001h88.049c5.245 57.701 51.323 103.791 109.019 109.051-.278 38.881-2.186 77.332-7.564 113.949h-83.004c-6.075 0-11 4.925-11 11s4.925 11 11 11h79.294c-19.063 99.546-67.817 182.726-185.794 219.374z"/><path d="m256 182c6.075 0 11-4.925 11-11s-4.925-11-11-11c-43.285 0-78.5 35.215-78.5 78.5v35c0 6.075 4.925 11 11 11s11-4.925 11-11v-35c0-31.154 25.346-56.5 56.5-56.5z"/><path d="m297.184 184.006c-4.395 4.195-4.556 11.158-.36 15.552 10.108 10.589 15.676 24.418 15.676 38.942v35c0 31.154-25.346 56.5-56.5 56.5-11.765 0-23.064-3.628-32.675-10.491-4.945-3.53-11.814-2.384-15.344 2.559-3.531 4.944-2.385 11.814 2.559 15.344 13.364 9.543 29.083 14.588 45.46 14.588 43.285 0 78.5-35.215 78.5-78.5v-35c0-20.208-7.729-39.433-21.764-54.133-4.194-4.394-11.158-4.556-15.552-.361z"/><path d="m222.5 238.5v35c0 18.472 15.028 33.5 33.5 33.5 6.075 0 11-4.925 11-11s-4.926-11-11-11c-6.341 0-11.5-5.159-11.5-11.5v-35c0-6.341 5.159-11.5 11.5-11.5s11.5 5.159 11.5 11.5v10.5c0 6.075 4.925 11 11 11s11-4.925 11-11v-10.5c0-18.472-15.028-33.5-33.5-33.5s-33.5 15.028-33.5 33.5z"/></g><g><path d="m256 396.999c-68.098 0-123.499-55.402-123.499-123.5v-34.999c0-68.098 55.401-123.5 123.499-123.5s123.5 55.402 123.5 123.5v35c0 68.097-55.403 123.499-123.5 123.499zm0-259.998c-55.967 0-101.499 45.533-101.499 101.5v34.999c0 55.967 45.532 101.5 101.499 101.5 55.968 0 101.5-45.533 101.5-101.5v-35c0-55.966-45.532-101.499-101.5-101.499z" fill="#0496FF"/></g></g><g/><g/><g/><g/><g/><g/><g/><g/><g/><g/><g/><g/><g/><g/><g/></svg>