<svg id="Capa_1" enable-background="new 0 0 512 512" viewBox="0 0 512 512" xmlns="http://www.w3.org/2000/svg" fill="#052438"><g><g><path d="m120.579 306.962c2.815 0 5.631-1.074 7.778-3.222l24.748-24.749c22.029-22.028 57.875-22.029 79.902 0 4.297 4.295 11.26 4.295 15.557 0 4.296-4.296 4.296-11.261 0-15.557-30.606-30.604-80.407-30.606-111.016 0l-24.748 24.749c-4.296 4.296-4.296 11.261 0 15.557 2.15 2.148 4.964 3.222 7.779 3.222z"/><path d="m260.713 309.531c-.088-.002-.174-.003-.261-.003-5.956 0-10.854 4.758-10.992 10.744-.34 14.636-6.183 28.353-16.452 38.621l-24.748 24.748c-10.618 10.619-24.807 16.467-39.951 16.467s-29.333-5.848-39.952-16.467c-8.318-8.318-13.742-18.872-15.687-30.523-1-5.992-6.667-10.042-12.66-9.039-5.992.999-10.039 6.667-9.039 12.66 2.702 16.198 10.251 30.881 21.83 42.459 14.773 14.774 34.487 22.91 55.508 22.91s40.734-8.136 55.508-22.91l24.748-24.748c14.288-14.289 22.418-33.348 22.89-53.666.14-6.074-4.669-11.111-10.742-11.253z"/><path d="m193.764 334.499c-4.296 4.296-4.296 11.261 0 15.557 4.297 4.295 11.26 4.295 15.557 0l7.425-7.425c13.061-13.062 13.062-34.314 0-47.377-13.06-13.06-34.312-13.06-47.376 0l-24.749 24.749c-13.062 13.062-13.062 34.314 0 47.376 2.148 2.147 4.963 3.222 7.778 3.222s5.63-1.074 7.778-3.222c4.296-4.296 4.296-11.261 0-15.557-2.154-2.154-3.341-5.042-3.341-8.131 0-3.09 1.187-5.978 3.341-8.132l24.748-24.749c4.485-4.483 11.78-4.484 16.264-.001 4.483 4.485 4.484 11.781 0 16.265z"/><path d="m508.778 140.025-136.804-136.803c-2.063-2.063-4.861-3.222-7.778-3.222s-5.715 1.159-7.778 3.222l-89.2 89.201-13.977-13.977c-7.721-7.72-18.017-11.972-28.991-11.972s-21.271 4.252-28.991 11.972l-146.098 146.097c-31.702 31.702-49.161 74.017-49.161 119.147s17.459 87.445 49.161 119.148c31.703 31.703 74.017 49.162 119.148 49.162s87.445-17.46 119.148-49.162l146.096-146.097c7.721-7.72 11.973-18.016 11.973-28.991s-4.252-21.271-11.973-28.991l-13.976-13.976 89.2-89.201c4.297-4.296 4.297-11.261.001-15.557zm-90.782 161.16-146.095 146.096c-28.563 28.564-66.072 42.845-103.592 42.841-37.512-.003-75.034-14.283-103.591-42.84-57.12-57.121-57.12-150.062 0-207.183l146.097-146.096c3.564-3.565 8.336-5.528 13.435-5.528s9.87 1.963 13.435 5.528l180.312 180.312c3.565 3.565 5.529 8.337 5.529 13.435 0 5.099-1.964 9.869-5.53 13.435zm-13.975-71.958-121.247-121.248 81.422-81.423 121.247 121.247z"/></g><g><g><path d="m168.309 467.133c-31.625 0-63.251-12.038-87.327-36.114-23.238-23.238-36.036-54.252-36.036-87.327 0-33.076 12.798-64.09 36.036-87.328l24.748-24.748c48.152-48.154 126.501-48.152 174.655 0 48.152 48.152 48.152 126.502 0 174.654l-24.749 24.749c-24.076 24.076-55.702 36.114-87.327 36.114zm24.748-249.642c-25.992 0-51.983 9.894-71.771 29.681l-24.748 24.748c-19.083 19.083-29.593 44.571-29.593 71.771s10.51 52.688 29.593 71.771 44.571 29.593 71.771 29.593 52.688-10.51 71.771-29.593l24.749-24.749c19.083-19.083 29.592-44.571 29.592-71.771 0-27.197-10.511-52.688-29.592-71.771-19.788-19.786-45.78-29.68-71.772-29.68z" fill="#0496FF"/></g><g><path d="m351.198 122.304c-2.815 0-5.63-1.074-7.778-3.222-4.296-4.296-4.296-11.261 0-15.557l14.143-14.142c4.298-4.296 11.261-4.294 15.557 0 4.296 4.296 4.296 11.261 0 15.557l-14.143 14.142c-2.149 2.147-4.965 3.222-7.779 3.222z" fill="#0496FF"/></g><g><path d="m400.696 171.802c-2.815 0-5.63-1.074-7.778-3.222-4.296-4.296-4.296-11.261 0-15.557l14.143-14.143c4.297-4.295 11.26-4.295 15.557 0 4.296 4.296 4.296 11.261 0 15.557l-14.143 14.143c-2.149 2.148-4.964 3.222-7.779 3.222z" fill="#0496FF"/></g></g></g><g/><g/><g/><g/><g/><g/><g/><g/><g/><g/><g/><g/><g/><g/><g/></svg>