<svg id="Capa_1" enable-background="new 0 0 512 512" viewBox="0 0 512 512" xmlns="http://www.w3.org/2000/svg" fill="#E6ECF2"><g><g><path d="m191 445h-20c-6.075 0-11 4.925-11 11s4.925 11 11 11h20c6.075 0 11-4.925 11-11s-4.925-11-11-11z"/><path d="m334.112 204.501c-31.721 0-61.269 17.684-77.112 46.149-1.851 3.326-1.851 7.373 0 10.699 15.843 28.467 45.391 46.15 77.112 46.15s61.269-17.684 77.112-46.15c1.851-3.326 1.851-7.373 0-10.699-15.844-28.465-45.391-46.149-77.112-46.149zm0 80.999c-21.706 0-42.107-11.161-54.589-29.5 12.481-18.338 32.883-29.499 54.589-29.499s42.107 11.161 54.588 29.499c-12.481 18.339-32.883 29.5-54.588 29.5z"/><path d="m452.351 105.211h-115.351v-64.211c0-22.607-18.393-41-41-41h-230c-22.607 0-41 18.393-41 41v430c0 22.607 18.393 41 41 41h230c22.607 0 41-18.393 41-41v-64.21h115.352c19.105 0 34.648-15.543 34.648-34.648v-232.284c0-19.104-15.544-34.647-34.649-34.647zm-219.112-83.211-7.667 23.001h-89.144l-7.666-23.001zm81.761 449c0 10.477-8.523 19-19 19h-230c-10.477 0-19-8.523-19-19v-430c0-10.477 8.523-19 19-19h39.572l12.492 37.479c1.497 4.491 5.701 7.521 10.436 7.521h105c4.735 0 8.938-3.03 10.436-7.521l12.493-37.479h39.571c10.477 0 19 8.523 19 19v64.211h-99.128c-19.105 0-34.648 15.543-34.648 34.647v232.283c0 19.105 15.543 34.648 34.648 34.648h99.128zm150-98.858c0 6.975-5.674 12.648-12.648 12.648h-236.48c-6.975 0-12.648-5.674-12.648-12.648v-232.284c0-6.974 5.674-12.647 12.648-12.647h236.479c6.975 0 12.648 5.674 12.648 12.647v232.284z"/></g><g><g><path d="m334.115 267c-6.075 0-11.004-4.925-11.004-11s4.921-11 10.997-11h.007c6.075 0 11 4.925 11 11s-4.925 11-11 11z" fill="#0496FF"/></g><g><path d="m237.223 201.485c-6.075 0-11-4.925-11-11v-29.275c0-6.075 4.925-11 11-11h29.222c6.075 0 11 4.925 11 11s-4.925 11-11 11h-18.222v18.275c0 6.076-4.925 11-11 11z" fill="#0496FF"/></g><g><path d="m266.445 361.79h-29.222c-6.075 0-11-4.925-11-11v-29.275c0-6.075 4.925-11 11-11s11 4.925 11 11v18.275h18.222c6.075 0 11 4.925 11 11s-4.925 11-11 11z" fill="#0496FF"/></g><g><path d="m431 361.79h-29.222c-6.075 0-11-4.925-11-11s4.925-11 11-11h18.222v-18.275c0-6.075 4.925-11 11-11s11 4.925 11 11v29.275c0 6.075-4.925 11-11 11z" fill="#0496FF"/></g><g><path d="m431 201.485c-6.075 0-11-4.925-11-11v-18.275h-18.222c-6.075 0-11-4.925-11-11s4.925-11 11-11h29.222c6.075 0 11 4.925 11 11v29.275c0 6.076-4.925 11-11 11z" fill="#0496FF"/></g></g></g><g/><g/><g/><g/><g/><g/><g/><g/><g/><g/><g/><g/><g/><g/><g/></svg>