<svg id="Capa_1" enable-background="new 0 0 512 512" viewBox="0 0 512 512" xmlns="http://www.w3.org/2000/svg" fill="#E6ECF2"><g><path d="m356 418.718c54.585-33.669 91.047-94.011 91.047-162.718s-36.462-129.049-91.047-162.718v-43.282h73v-22h-84c-6.075 0-11 4.925-11 11v42.615c-20.661-9.277-43.257-14.982-67-16.337v-54.278c0-6.075-4.925-11-11-11s-11 4.925-11 11v54.278c-23.743 1.355-46.339 7.06-67 16.337v-42.615c0-6.075-4.925-11-11-11h-84v22h73v43.282c-54.585 33.669-91.047 94.012-91.047 162.718s36.462 129.049 91.047 162.718v43.282h-73v22h84c6.075 0 11-4.925 11-11v-42.615c20.661 9.277 43.257 14.982 67 16.337v54.278c0 6.075 4.925 11 11 11s11-4.925 11-11v-54.278c23.743-1.355 46.339-7.06 67-16.337v42.615c0 6.075 4.925 11 11 11h84v-22h-73zm-269.047-162.718c0-93.212 75.834-169.046 169.047-169.046s169.047 75.834 169.047 169.046-75.834 169.046-169.047 169.046-169.047-75.834-169.047-169.046z"/><g fill="#0496FF"><path d="m55 434c-21.505 0-39 17.495-39 39s17.495 39 39 39 39-17.495 39-39-17.495-39-39-39zm0 56c-9.374 0-17-7.626-17-17s7.626-17 17-17 17 7.626 17 17-7.626 17-17 17z"/><path d="m457 434c-21.505 0-39 17.495-39 39s17.495 39 39 39 39-17.495 39-39-17.495-39-39-39zm0 56c-9.374 0-17-7.626-17-17s7.626-17 17-17 17 7.626 17 17-7.626 17-17 17z"/><path d="m55 0c-21.505 0-39 17.495-39 39s17.495 39 39 39 39-17.495 39-39-17.495-39-39-39zm0 56c-9.374 0-17-7.626-17-17s7.626-17 17-17 17 7.626 17 17-7.626 17-17 17z"/><path d="m457 78c21.505 0 39-17.495 39-39s-17.495-39-39-39-39 17.495-39 39 17.495 39 39 39zm0-56c9.374 0 17 7.626 17 17s-7.626 17-17 17-17-7.626-17-17 7.626-17 17-17z"/><path d="m134.954 256c0-50.917 32.172-96.703 80.056-113.933 5.716-2.057 8.683-8.358 6.625-14.075-2.057-5.716-8.357-8.684-14.075-6.625-56.587 20.362-94.606 74.467-94.606 134.633 0 6.075 4.925 11 11 11s11-4.925 11-11z"/><path d="m256 112.954c-6.075 0-11 4.925-11 11s4.925 11 11 11c66.745 0 121.046 54.301 121.046 121.046 0 6.075 4.925 11 11 11s11-4.925 11-11c0-78.876-64.17-143.046-143.046-143.046z"/><path d="m306.458 301.989c3.029-9.609 4.565-19.628 4.565-29.796l-.023-16.271c-.042-30.284-24.715-54.922-55.078-54.922-14.691.021-28.495 5.761-38.868 16.164s-16.075 24.223-16.054 38.914c.009 6.07 4.932 10.984 11 10.984h.016c6.075-.008 10.993-4.94 10.984-11.016-.012-8.814 3.409-17.106 9.632-23.348 6.224-6.242 14.506-9.686 23.369-9.698 18.17 0 32.974 14.783 32.999 32.954l.023 16.255c0 7.905-1.193 15.699-3.547 23.166-1.826 5.794 1.39 11.972 7.184 13.798 1.101.347 2.214.512 3.31.512 4.673 0 9.008-3.002 10.488-7.696z"/><path d="m262.57 330.321c-14.03 12.25-31.998 18.997-50.593 18.997-12.196 0-23.863-2.778-34.678-8.257-5.42-2.748-12.038-.578-14.784 4.841s-.578 12.038 4.841 14.784c13.925 7.055 28.938 10.632 44.62 10.632 23.918 0 47.024-8.674 65.063-24.425 4.576-3.996 5.047-10.944 1.051-15.521s-10.945-5.047-15.52-1.051z"/><path d="m344.005 248.343c-.005 0-.011 0-.016 0-6.075.009-10.993 4.94-10.984 11.016l.018 12.788c0 30.38-11.324 59.458-31.887 81.875-4.106 4.477-3.806 11.436.671 15.542 2.112 1.937 4.776 2.894 7.433 2.894 2.975 0 5.94-1.199 8.109-3.564 24.294-26.486 37.674-60.845 37.674-96.762l-.018-12.804c-.009-6.07-4.932-10.985-11-10.985z"/><path d="m191.871 194.84c2.175 2.656 5.333 4.031 8.517 4.031 2.452 0 4.919-.816 6.963-2.49 13.653-11.182 30.911-17.354 48.597-17.38 28.111.003 54.002 15.32 67.571 39.974 2.003 3.64 5.766 5.698 9.646 5.698 1.793 0 3.612-.439 5.294-1.365 5.322-2.929 7.262-9.618 4.333-14.94-17.438-31.685-50.718-51.368-86.853-51.368-.005 0-.011 0-.016 0-22.745.032-44.945 7.973-62.512 22.36-4.7 3.849-5.39 10.78-1.54 15.48z"/><path d="m179.124 256.047c-.013-9.28 1.605-18.349 4.811-26.957 2.121-5.693-.776-12.027-6.469-14.147-5.694-2.122-12.027.776-14.147 6.469-4.128 11.083-6.212 22.747-6.195 34.666.03 21.413-8.526 41.31-24.092 56.027-4.415 4.174-4.61 11.136-.436 15.55 2.164 2.289 5.076 3.443 7.995 3.443 2.712 0 5.429-.997 7.555-3.007 19.725-18.65 31.016-44.909 30.978-72.044z"/><path d="m211.977 305.317c-6.075 0-11 4.925-11 11s4.925 11 11 11c30.353 0 55.046-24.694 55.046-55.062l-.023-16.271c-.009-6.07-4.932-10.984-11-10.984-.005 0-.011 0-.016 0-6.075.009-10.993 4.94-10.984 11.016l.023 16.255c0 18.222-14.825 33.046-33.046 33.046z"/></g></g><g/><g/><g/><g/><g/><g/><g/><g/><g/><g/><g/><g/><g/><g/><g/></svg>