<svg id="Capa_1" enable-background="new 0 0 512 512" viewBox="0 0 512 512" xmlns="http://www.w3.org/2000/svg" fill="#052438"><g><path d="m352.458 158.012v-39.553c0-53.188-43.27-96.459-96.458-96.459s-96.458 43.271-96.458 96.458v39.553c-35.532.252-64.362 29.226-64.362 64.815v180.346c0 35.746 29.081 64.827 64.827 64.827h191.986c35.746 0 64.827-29.082 64.827-64.827v-180.345c0-35.59-28.83-64.563-64.362-64.815zm-96.458-114.012c41.057 0 74.458 33.402 74.458 74.458v39.542h-22v-39.542c0-28.925-23.532-52.458-52.458-52.458s-52.458 23.533-52.458 52.458v39.542h-22v-39.542c0-41.056 33.401-74.458 74.458-74.458zm30.458 114h-60.916v-39.542c0-16.794 13.663-30.458 30.458-30.458s30.458 13.664 30.458 30.458zm108.362 245.173c0 23.615-19.212 42.827-42.827 42.827h-191.986c-23.615 0-42.827-19.212-42.827-42.827v-180.346c0-23.615 19.212-42.827 42.827-42.827h191.986c23.615 0 42.827 19.212 42.827 42.827z"/><g fill="#0496FF"><path d="m139 0h-128c-6.075 0-11 4.925-11 11v128c0 6.075 4.925 11 11 11s11-4.925 11-11v-117h117c6.075 0 11-4.925 11-11s-4.925-11-11-11z"/><path d="m501 0h-128c-6.075 0-11 4.925-11 11s4.925 11 11 11h117v117c0 6.075 4.925 11 11 11s11-4.925 11-11v-128c0-6.075-4.925-11-11-11z"/><path d="m139 490h-117v-117c0-6.075-4.925-11-11-11s-11 4.925-11 11v128c0 6.075 4.925 11 11 11h128c6.075 0 11-4.925 11-11s-4.925-11-11-11z"/><path d="m501 362c-6.075 0-11 4.925-11 11v117h-117c-6.075 0-11 4.925-11 11s4.925 11 11 11h128c6.075 0 11-4.925 11-11v-128c0-6.075-4.925-11-11-11z"/><path d="m267 321v-16c0-6.075-4.925-11-11-11s-11 4.925-11 11v16c0 6.075 4.925 11 11 11s11-4.925 11-11z"/><path d="m261.331 353.573c-5.997.971-10.071 6.62-9.1 12.617.875 5.401 5.544 9.243 10.845 9.243.585 0 1.177-.046 1.772-.143 26.743-4.332 46.152-27.164 46.152-54.29v-16c0-5.933-.942-11.776-2.801-17.367-1.917-5.765-8.146-8.885-13.908-6.968-5.766 1.917-8.885 8.144-6.969 13.909 1.114 3.348 1.678 6.856 1.678 10.426v16c0 16.277-11.637 29.976-27.669 32.573z"/><path d="m256 250c-30.327 0-55 24.673-55 55v16c0 12 3.798 23.405 10.982 32.981 2.161 2.88 5.464 4.399 8.808 4.399 2.297 0 4.614-.717 6.593-2.202 4.859-3.646 5.843-10.541 2.197-15.4-4.305-5.737-6.58-12.576-6.58-19.778v-16c0-18.196 14.804-33 33-33 6.075 0 11-4.925 11-11s-4.925-11-11-11z"/><path d="m256 206c-6.075 0-11 4.925-11 11s4.925 11 11 11c42.458 0 77 34.542 77 77v16c0 8.951-1.531 17.727-4.553 26.086-2.064 5.713.894 12.019 6.607 14.083 1.234.446 2.496.658 3.737.658 4.503 0 8.728-2.786 10.347-7.265 3.889-10.762 5.862-22.055 5.862-33.562v-16c0-54.589-44.411-99-99-99z"/><path d="m306.987 378.639c-14.094 12.485-32.203 19.361-50.987 19.361-21.683 0-42.495-9.26-57.101-25.405-4.075-4.506-11.032-4.854-15.536-.778-4.506 4.076-4.854 11.032-.778 15.537 18.768 20.747 45.526 32.646 73.415 32.646 24.164 0 47.453-8.841 65.575-24.894 4.548-4.028 4.969-10.98.94-15.528s-10.981-4.968-15.528-.939z"/><path d="m208.11 244.756c4.752-3.786 5.534-10.707 1.748-15.458-3.787-4.752-10.71-5.533-15.457-1.748-23.769 18.939-37.401 47.169-37.401 77.45v16c0 6.075 4.925 11 11 11s11-4.925 11-11v-16c0-23.545 10.61-45.503 29.11-60.244z"/></g></g><g/><g/><g/><g/><g/><g/><g/><g/><g/><g/><g/><g/><g/><g/><g/></svg>