<svg id="Capa_1" enable-background="new 0 0 512 512" viewBox="0 0 512 512" xmlns="http://www.w3.org/2000/svg" fill="#E6ECF2"><g><g fill="#0496FF"><path d="m207 229.362c-6.075 0-11 4.925-11 11s4.925 11 11 11c18.712 0 33.936-15.224 33.936-33.936v-20.852c0-18.712-15.224-33.936-33.936-33.936s-33.936 15.224-33.936 33.936v10.426c0 6.075 4.925 11 11 11s11-4.925 11-11v-10.426c0-6.582 5.354-11.936 11.936-11.936s11.936 5.354 11.936 11.936v20.852c0 6.581-5.354 11.936-11.936 11.936z"/><path d="m147.106 217.425v-20.851c0-13.678 4.752-27.063 13.382-37.689 3.83-4.716 3.112-11.644-1.604-15.473-4.717-3.831-11.644-3.111-15.473 1.604-11.804 14.534-18.305 32.845-18.305 51.558v20.851c0 6.075 4.925 11 11 11s11-4.925 11-11z"/><path d="m160.489 255.115c-3.829-4.716-10.756-5.434-15.473-1.604-4.716 3.83-5.434 10.757-1.604 15.473 15.657 19.279 38.834 30.335 63.588 30.335 6.075 0 11-4.925 11-11s-4.925-11-11-11c-18.098 0-35.05-8.093-46.511-22.204z"/><path d="m207 114.681c-6.075 0-11 4.925-11 11s4.925 11 11 11c33.025 0 59.894 26.868 59.894 59.894v20.851c0 13.678-4.753 27.063-13.383 37.688l17.077 13.87c11.805-14.535 18.306-32.845 18.306-51.559v-20.851c0-45.156-36.738-81.893-81.894-81.893z"/><path d="m334.766 196.575c0-70.451-57.315-127.766-127.766-127.766-36.607 0-71.535 15.796-95.827 43.338-4.019 4.556-3.583 11.507.973 15.526 4.557 4.019 11.508 3.582 15.526-.973 20.118-22.81 49.032-35.891 79.328-35.891 58.32 0 105.766 47.446 105.766 105.766 0 6.075 4.925 11 11 11s11-4.925 11-11z"/><path d="m101.234 217.425v-20.851c0-6.075-4.925-11-11-11s-11 4.925-11 11v20.851c0 22.826 6.122 45.246 17.703 64.837 2.053 3.473 5.717 5.404 9.479 5.404 1.903 0 3.831-.494 5.587-1.533 5.23-3.092 6.963-9.837 3.872-15.067-9.578-16.202-14.641-34.751-14.641-53.641z"/><path d="m207 323.191c-19.822 0-39.156-5.541-55.913-16.022-5.15-3.222-11.938-1.659-15.159 3.492-3.222 5.15-1.658 11.938 3.492 15.159 20.259 12.672 43.627 19.371 67.58 19.371 20.544 0 40.982-5.017 59.104-14.509l-10.208-19.488c-14.984 7.848-31.893 11.997-48.896 11.997z"/><path d="m442.175 324.777c-4.296-4.296-11.261-4.296-15.557 0l-52.85 52.85-26.982-26.983c-4.297-4.296-11.261-4.296-15.557 0-4.295 4.296-4.295 11.261 0 15.557l34.761 34.761c2.063 2.062 4.861 3.222 7.778 3.222s5.715-1.159 7.778-3.222l60.628-60.628c4.296-4.296 4.296-11.261.001-15.557z"/></g><path d="m501 247.061c-30.064 0-59.65-6.086-87-17.759v-172.429c0-31.36-25.513-56.873-56.872-56.873h-300.256c-31.359 0-56.872 25.513-56.872 56.873v300.255c0 31.359 25.513 56.872 56.872 56.872h203.133c6.193 16.386 15.157 31.731 26.634 45.28 23.627 27.891 56.497 46.561 92.552 52.57.599.1 1.204.15 1.809.15s1.21-.05 1.809-.15c36.056-6.009 68.925-24.679 92.552-52.57s36.639-63.382 36.639-99.936v-101.283c0-6.075-4.925-11-11-11zm-444.128 144.939c-19.228 0-34.872-15.644-34.872-34.873v-300.254c0-19.229 15.644-34.873 34.872-34.873h300.256c19.228 0 34.872 15.644 34.872 34.873v161.547c-1.784-1.01-3.558-2.038-5.315-3.099-3.496-2.11-7.873-2.11-11.369 0-34.398 20.764-73.927 31.74-114.315 31.74-6.075 0-11 4.925-11 11v101.283c0 11.043 1.196 21.987 3.505 32.656zm433.128-32.656c0 31.352-11.161 61.793-31.426 85.715-19.869 23.455-47.359 39.307-77.574 44.776-30.215-5.469-57.705-21.321-77.574-44.776-20.265-23.921-31.426-54.363-31.426-85.715v-90.53c38.351-1.726 75.708-12.454 109-31.332 33.292 18.877 70.649 29.606 109 31.332z"/></g><g/><g/><g/><g/><g/><g/><g/><g/><g/><g/><g/><g/><g/><g/><g/></svg>