<svg id="Capa_1" enable-background="new 0 0 512 512" viewBox="0 0 512 512" xmlns="http://www.w3.org/2000/svg" fill="#052438"><g><g><g><path d="m256 397c-68.098 0-123.5-55.402-123.5-123.5v-35c0-6.075 4.925-11 11-11s11 4.925 11 11v35c0 55.967 45.533 101.5 101.5 101.5 29.779 0 57.998-13.145 77.42-36.064 3.928-4.635 10.87-5.207 15.504-1.28 4.635 3.928 5.208 10.869 1.28 15.504-23.611 27.86-57.947 43.84-94.204 43.84zm112.5-112.5c-6.075 0-11-4.925-11-11v-35c0-55.967-45.533-101.5-101.5-101.5-27.771 0-53.746 11.123-73.138 31.318-4.208 4.381-11.172 4.522-15.553.316-4.382-4.208-4.523-11.171-.316-15.553 23.58-24.557 55.189-38.081 89.007-38.081 68.098 0 123.5 55.402 123.5 123.5v35c0 6.075-4.925 11-11 11z"/></g><g><path d="m256 352c-16.377 0-32.098-5.044-45.461-14.588-4.944-3.531-6.09-10.4-2.559-15.344s10.401-6.089 15.344-2.559c9.611 6.863 20.91 10.491 32.676 10.491 31.154 0 56.5-25.346 56.5-56.5v-35c0-14.523-5.567-28.353-15.676-38.941-4.195-4.395-4.033-11.357.361-15.552 4.394-4.196 11.356-4.034 15.552.361 14.034 14.701 21.763 33.925 21.763 54.133v35c0 43.284-35.215 78.499-78.5 78.499zm-67.499-67.5c-6.075 0-11-4.925-11-11v-35c0-43.285 35.215-78.5 78.5-78.5 6.075 0 11 4.925 11 11s-4.925 11-11 11c-31.154 0-56.5 25.346-56.5 56.5v35c0 6.075-4.925 11-11 11z"/></g><g><path d="m256 307c-18.472 0-33.5-15.028-33.5-33.5v-35c0-18.472 15.028-33.5 33.5-33.5s33.5 15.028 33.5 33.5v10.5c0 6.075-4.925 11-11 11s-11-4.925-11-11v-10.5c0-6.341-5.159-11.5-11.5-11.5s-11.5 5.159-11.5 11.5v35c0 6.341 5.159 11.5 11.5 11.5 6.075 0 11 4.925 11 11s-4.925 11-11 11z"/></g><g><path d="m210.306 92.884c-4.152 0-8.126-2.362-9.987-6.376l-19.123-41.258h-19.684c-6.075 0-11-4.925-11-11s4.925-11 11-11h26.709c4.284 0 8.179 2.487 9.98 6.374l22.077 47.632c2.555 5.512.158 12.051-5.354 14.605-1.496.695-3.07 1.023-4.618 1.023z"/></g><g><path d="m54.25 361.488c-6.075 0-11-4.925-11-11v-26.71c0-4.284 2.487-8.179 6.375-9.98l42.048-19.488c5.512-2.555 12.05-.158 14.605 5.354s.158 12.051-5.354 14.605l-35.674 16.535v19.684c0 6.075-4.925 11-11 11z"/></g><g><path d="m350.488 488.75h-26.71c-4.284 0-8.179-2.487-9.98-6.375l-22.077-47.632c-2.555-5.512-.158-12.051 5.354-14.605 5.512-2.555 12.051-.158 14.605 5.354l19.123 41.257h19.684c6.075 0 11 4.925 11 11s-4.924 11.001-10.999 11.001z"/></g><g><path d="m301.695 92.884c-1.549 0-3.122-.328-4.619-1.022-5.512-2.555-7.909-9.094-5.354-14.605l22.077-47.632c1.801-3.887 5.696-6.375 9.98-6.375h26.71c6.075 0 11 4.925 11 11s-4.925 11-11 11h-19.684l-19.123 41.257c-1.861 4.015-5.836 6.377-9.987 6.377z"/></g><g><path d="m95.887 218.526c-1.549 0-3.122-.328-4.619-1.022l-41.644-19.301c-3.887-1.801-6.375-5.696-6.375-9.98v-26.709c0-6.075 4.925-11 11-11s11 4.925 11 11v19.684l35.269 16.347c5.512 2.555 7.909 9.094 5.354 14.605-1.859 4.014-5.834 6.376-9.985 6.376z"/></g><g><path d="m188.222 488.75h-26.709c-6.075 0-11-4.925-11-11s4.925-11 11-11h19.684l19.123-41.258c2.554-5.512 9.095-7.909 14.606-5.354 5.512 2.555 7.909 9.094 5.354 14.605l-22.077 47.632c-1.802 3.888-5.697 6.375-9.981 6.375z"/></g><g><path d="m457.75 361.488c-6.075 0-11-4.925-11-11v-19.684l-35.673-16.534c-5.512-2.555-7.909-9.094-5.354-14.605 2.554-5.512 9.095-7.909 14.605-5.354l42.048 19.488c3.887 1.801 6.375 5.696 6.375 9.98v26.71c-.001 6.074-4.926 10.999-11.001 10.999z"/></g><g><path d="m416.114 218.526c-4.152 0-8.126-2.362-9.987-6.377-2.555-5.512-.158-12.051 5.354-14.605l35.269-16.347v-19.684c0-6.075 4.925-11 11-11s11 4.925 11 11v26.709c0 4.284-2.487 8.179-6.375 9.98l-41.644 19.301c-1.496.694-3.069 1.023-4.617 1.023z"/></g></g><g><g><path d="m256 441.999c-92.911 0-168.499-75.588-168.499-168.499v-35c0-92.91 75.589-168.499 168.499-168.499s168.499 75.589 168.499 168.499v35c0 92.911-75.588 168.499-168.499 168.499zm0-349.998c-80.78 0-146.499 65.719-146.499 146.499v35c0 80.78 65.719 146.499 146.499 146.499s146.499-65.719 146.499-146.499v-35c0-80.779-65.719-146.499-146.499-146.499z" fill="#0496FF"/></g><g><path d="m133.262 68.5c-18.886 0-34.25-15.364-34.25-34.25s15.365-34.25 34.25-34.25 34.25 15.364 34.25 34.25-15.364 34.25-34.25 34.25zm0-46.5c-6.755 0-12.25 5.495-12.25 12.25s5.495 12.25 12.25 12.25 12.25-5.495 12.25-12.25-5.495-12.25-12.25-12.25z" fill="#0496FF"/></g><g><path d="m54.25 412.988c-18.886 0-34.25-15.364-34.25-34.25s15.364-34.25 34.25-34.25 34.25 15.364 34.25 34.25-15.364 34.25-34.25 34.25zm0-46.5c-6.755 0-12.25 5.495-12.25 12.25s5.495 12.25 12.25 12.25 12.25-5.495 12.25-12.25-5.495-12.25-12.25-12.25z" fill="#0496FF"/></g><g><path d="m378.738 512c-18.886 0-34.25-15.364-34.25-34.25s15.364-34.25 34.25-34.25 34.25 15.364 34.25 34.25-15.364 34.25-34.25 34.25zm0-46.5c-6.755 0-12.25 5.495-12.25 12.25s5.495 12.25 12.25 12.25 12.25-5.495 12.25-12.25-5.495-12.25-12.25-12.25z" fill="#0496FF"/></g><g><path d="m378.738 68.5c-18.886 0-34.25-15.364-34.25-34.25s15.364-34.25 34.25-34.25 34.25 15.364 34.25 34.25-15.364 34.25-34.25 34.25zm0-46.5c-6.755 0-12.25 5.495-12.25 12.25s5.495 12.25 12.25 12.25 12.25-5.495 12.25-12.25-5.495-12.25-12.25-12.25z" fill="#0496FF"/></g><g><path d="m54.25 167.512c-18.886 0-34.25-15.364-34.25-34.25s15.364-34.25 34.25-34.25 34.25 15.364 34.25 34.25-15.364 34.25-34.25 34.25zm0-46.5c-6.755 0-12.25 5.495-12.25 12.25s5.495 12.25 12.25 12.25 12.25-5.495 12.25-12.25-5.495-12.25-12.25-12.25z" fill="#0496FF"/></g><g><path d="m133.262 512c-18.886 0-34.25-15.364-34.25-34.25s15.364-34.25 34.25-34.25 34.25 15.364 34.25 34.25-15.364 34.25-34.25 34.25zm0-46.5c-6.755 0-12.25 5.495-12.25 12.25s5.495 12.25 12.25 12.25 12.25-5.495 12.25-12.25-5.495-12.25-12.25-12.25z" fill="#0496FF"/></g><g><path d="m457.75 412.988c-18.886 0-34.25-15.364-34.25-34.25s15.364-34.25 34.25-34.25 34.25 15.365 34.25 34.25-15.364 34.25-34.25 34.25zm0-46.5c-6.755 0-12.25 5.495-12.25 12.25s5.495 12.25 12.25 12.25 12.25-5.495 12.25-12.25-5.495-12.25-12.25-12.25z" fill="#0496FF"/></g><g><path d="m457.75 167.512c-18.886 0-34.25-15.364-34.25-34.25s15.364-34.25 34.25-34.25 34.25 15.364 34.25 34.25-15.364 34.25-34.25 34.25zm0-46.5c-6.755 0-12.25 5.495-12.25 12.25s5.495 12.25 12.25 12.25 12.25-5.495 12.25-12.25-5.495-12.25-12.25-12.25z" fill="#0496FF"/></g></g></g><g/><g/><g/><g/><g/><g/><g/><g/><g/><g/><g/><g/><g/><g/><g/></svg>