<svg id="Capa_1" enable-background="new 0 0 512 512" viewBox="0 0 512 512" xmlns="http://www.w3.org/2000/svg" fill="#E6ECF2"><g><g fill="#0496FF"><path d="m235.995 345.752c-11.403 2.817-23.178 4.246-34.996 4.246-80.78 0-146.499-65.719-146.499-146.499v-34.999c0-80.78 65.719-146.5 146.499-146.5s146.5 65.72 146.5 146.5v10.113c0 6.075 4.925 11 11 11s11-4.925 11-11v-10.113c0-92.911-75.589-168.5-168.5-168.5s-168.499 75.589-168.499 168.5v34.999c0 92.911 75.588 168.499 168.499 168.499 13.596 0 27.146-1.645 40.273-4.889 5.897-1.457 9.497-7.42 8.04-13.317-1.457-5.898-7.426-9.496-13.317-8.04z"/><path d="m356 217.582c-43.285 0-78.501 35.215-78.501 78.5v48.751c0 24.813 20.187 45 45 45h67.001c24.813 0 45-20.187 45-45v-48.751c0-43.285-35.215-78.5-78.5-78.5zm-56.501 78.5c0-31.154 25.347-56.5 56.501-56.5s56.5 25.346 56.5 56.5v48.751c0 .69-.031 1.374-.091 2.049-14.662-15.134-35.034-24.049-56.409-24.049-21.387 0-41.752 8.912-56.411 24.045-.06-.674-.09-1.356-.09-2.045zm23 71.751c-3.614 0-7.037-.838-10.083-2.33 10.676-12.924 26.692-20.67 43.583-20.67 16.88 0 32.901 7.748 43.581 20.671-3.046 1.491-6.467 2.329-10.081 2.329z"/></g><g><path d="m200.999 90c-43.284 0-78.499 35.215-78.499 78.5v34.999c0 6.075 4.925 11 11 11s11-4.925 11-11v-34.999c0-31.154 25.346-56.5 56.499-56.5 6.075 0 11-4.925 11-11s-4.925-11-11-11z"/><path d="m223.499 190c6.075 0 11-4.925 11-11v-10.501c0-18.472-15.028-33.499-33.5-33.499s-33.5 15.027-33.5 33.499v35c0 18.472 15.028 33.5 33.5 33.5 6.075 0 11-4.925 11-11s-4.925-11-11-11c-6.341 0-11.5-5.159-11.5-11.5v-35c0-6.341 5.159-11.499 11.5-11.499s11.5 5.158 11.5 11.499v10.501c0 6.075 4.925 11 11 11z"/><path d="m356 172.582c-10.883 0-21.441 1.415-31.501 4.071v-8.153c0-68.098-55.402-123.5-123.5-123.5-33.816 0-65.426 13.523-89.007 38.08-4.207 4.382-4.066 11.346.315 15.554 4.381 4.207 11.345 4.067 15.554-.315 19.393-20.197 45.368-31.319 73.138-31.319 55.968 0 101.5 45.533 101.5 101.5v16.282c-8.21 3.963-15.918 8.808-23 14.412v-30.694c0-20.208-7.729-39.434-21.764-54.134-4.194-4.393-11.158-4.558-15.552-.36-4.395 4.194-4.556 11.157-.36 15.552 10.108 10.589 15.676 24.419 15.676 38.942v34.999c0 31.154-25.346 56.5-56.5 56.5-11.765 0-23.063-3.628-32.675-10.491-4.943-3.533-11.813-2.384-15.344 2.559s-2.386 11.813 2.559 15.344c13.363 9.544 29.084 14.589 45.46 14.589 11.93 0 23.246-2.675 33.382-7.457-1.236 6.997-1.881 14.194-1.881 21.54v3.881c-10.149 3.343-20.726 5.035-31.501 5.035-55.967 0-101.499-45.532-101.499-101.499v-35c0-6.075-4.925-11-11-11s-11 4.925-11 11v34.999c0 68.098 55.401 123.499 123.499 123.499 10.709 0 21.259-1.373 31.501-4.093v178.095c0 6.075 4.925 11 11 11h225c6.075 0 11-4.925 11-11v-204.918c0-68.099-55.402-123.5-123.5-123.5zm101.5 317.418h-203v-193.918c0-55.968 45.533-101.5 101.5-101.5s101.5 45.532 101.5 101.5z"/><path d="m390.938 417.833h-69.876c-6.075 0-11 4.925-11 11s4.925 11 11 11h69.876c6.075 0 11-4.925 11-11s-4.925-11-11-11z"/></g></g><g/><g/><g/><g/><g/><g/><g/><g/><g/><g/><g/><g/><g/><g/><g/></svg>