<svg id="Capa_1" enable-background="new 0 0 512 512" viewBox="0 0 512 512" xmlns="http://www.w3.org/2000/svg" fill="#052438"><g><g fill="#0496FF"><path d="m447.892 113.517c4.541 12.803 16.768 22 31.108 22 18.196 0 33-14.804 33-33s-14.804-33-33-33c-14.34 0-26.567 9.197-31.108 22h-25.78c-3.725 0-7.196 1.885-9.225 5.008l-25.328 38.992h-25.082v22h25.082l25.328 38.992c2.028 3.123 5.5 5.008 9.225 5.008h15.78c4.541 12.803 16.768 22 31.108 22 18.196 0 33-14.804 33-33s-14.804-33-33-33c-14.34 0-26.567 9.197-31.108 22h-9.808l-21.436-33 21.436-33zm31.108-22c6.065 0 11 4.935 11 11s-4.935 11-11 11-11-4.935-11-11 4.935-11 11-11zm-10 88c6.065 0 11 4.935 11 11s-4.935 11-11 11-11-4.935-11-11 4.935-11 11-11z"/><path d="m99.112 96.524c-2.029-3.123-5.5-5.008-9.225-5.008h-25.78c-4.541-12.803-16.768-22-31.108-22-18.196 0-33 14.804-33 33s14.804 33 33 33c14.34 0 26.567-9.197 31.108-22h19.808l21.435 33-21.435 33h-9.808c-4.541-12.803-16.768-22-31.108-22-18.196 0-33 14.804-33 33s14.804 33 33 33c14.34 0 26.567-9.197 31.108-22h15.78c3.725 0 7.196-1.885 9.225-5.008l25.328-38.992h25.083v-22h-25.083zm-66.112 16.993c-6.065 0-11-4.935-11-11s4.935-11 11-11 11 4.935 11 11-4.935 11-11 11zm10 88c-6.065 0-11-4.935-11-11s4.935-11 11-11 11 4.935 11 11-4.935 11-11 11z"/></g><g><path d="m261.5 218.329 53.941-31.143c3.403-1.965 5.5-5.596 5.5-9.526v-62.287c0-3.93-2.097-7.562-5.5-9.526l-53.941-31.143c-3.403-1.964-7.596-1.965-11 0l-53.941 31.143c-3.403 1.965-5.5 5.597-5.5 9.526v62.287c0 3.93 2.097 7.562 5.5 9.526l53.941 31.143c1.702.982 3.601 1.474 5.5 1.474s3.798-.491 5.5-1.474zm5.5-28.579v-36.883l31.941-18.442v36.883zm-11-92.818 31.941 18.442-31.941 18.441-31.941-18.442zm-42.941 37.494 31.941 18.441v36.883l-31.941-18.442z"/><path d="m373.478 146.517c0-64.777-52.7-117.478-117.478-117.478-64.777 0-117.477 52.7-117.477 117.478 0 61.067 46.839 111.393 106.477 116.958v22.52h-17.908c-6.075 0-11 4.925-11 11v146.059c0 22.005 17.902 39.908 39.908 39.908s39.908-17.902 39.908-39.908v-146.059c0-6.075-4.925-11-11-11h-17.908v-22.52c59.638-5.565 106.478-55.891 106.478-116.958zm-117.478 314.444c-9.875 0-17.908-8.033-17.908-17.908v-91.059h35.816v91.059c0 9.875-8.033 17.908-17.908 17.908zm17.908-130.966h-35.816v-22h35.816zm-113.385-183.478c0-52.646 42.831-95.478 95.477-95.478s95.478 42.831 95.478 95.478c0 52.646-42.831 95.477-95.478 95.477-52.646 0-95.477-42.831-95.477-95.477z"/></g></g><g/><g/><g/><g/><g/><g/><g/><g/><g/><g/><g/><g/><g/><g/><g/></svg>