<svg id="Capa_1" enable-background="new 0 0 512.001 512.001" viewBox="0 0 512.001 512.001" xmlns="http://www.w3.org/2000/svg" fill="#E6ECF2"><g><path d="m374.131 49.377c-30.84-31.236-71.978-48.766-115.837-49.361-44.428-.613-86.396 16.006-118.082 46.767-31.694 30.77-49.52 72.196-50.192 116.648-.688 45.472 16.674 88.169 48.889 120.227 14.766 14.694 23.234 35.086 23.234 55.947 0 14.223 9.223 26.325 22 30.661v27.725h-5.533c-6.075 0-11 4.925-11 11s4.925 11 11 11h5.533v37.01c0 6.075 4.925 11 11 11h.463l8.054 35.438c1.138 5.008 5.591 8.562 10.727 8.562h83.227c5.136 0 9.588-3.554 10.727-8.562l8.054-35.438h.463c6.075 0 11-4.925 11-11v-37.01h5.533c6.075 0 11-4.925 11-11s-4.925-11-11-11h-5.533v-27.725c12.777-4.336 22-16.437 22-30.661 0-21.114 8.327-41.059 23.446-56.158 31.402-31.36 48.696-73.07 48.696-117.446 0-43.941-17-85.358-47.869-116.624zm-85.298 440.624h-65.666l-5-22h75.666zm17.024-44h-99.714v-26.01h99.714zm-99.714-48.01v-26.009h99.714v26.009zm151.615-130.11c-19.282 19.256-29.9 44.728-29.9 71.725 0 5.721-4.655 10.376-10.376 10.376h-122.963c-5.721 0-10.376-4.655-10.376-10.377 0-26.671-10.831-52.747-29.716-71.54-27.946-27.809-43.008-64.85-42.411-104.3.584-38.579 16.04-74.518 43.52-101.196 26.995-26.208 62.586-40.567 100.427-40.567.675 0 1.356.004 2.032.014 38.042.516 73.727 15.723 100.48 42.819 26.778 27.12 41.525 63.049 41.525 101.166 0 38.493-15.002 74.676-42.242 101.88z"/><g fill="#0496FF"><path d="m332.834 115.29-71.334-41.184c-3.403-1.965-7.597-1.965-11 0l-71.333 41.184c-3.403 1.965-5.5 5.597-5.5 9.526v82.369c0 3.93 2.097 7.562 5.5 9.526l71.333 41.184c1.702.982 3.601 1.474 5.5 1.474s3.798-.491 5.5-1.474l71.333-41.184c3.403-1.965 5.5-5.597 5.5-9.526v-82.369c.001-3.929-2.096-7.561-5.499-9.526zm-76.834-18.956 49.333 28.483-49.333 28.482-49.333-28.483zm-60.333 47.535 49.333 28.483v56.965l-49.333-28.483zm71.333 85.448v-56.965l49.333-28.483v56.965z"/><path d="m501 155.001h-46c-6.075 0-11 4.925-11 11s4.925 11 11 11h46c6.075 0 11-4.925 11-11s-4.924-11-11-11z"/><path d="m449.878 132.187c.82 0 1.654-.092 2.487-.285l44.818-10.359c5.919-1.368 9.608-7.275 8.24-13.194-1.368-5.918-7.273-9.609-13.194-8.24l-44.818 10.359c-5.919 1.368-9.608 7.275-8.24 13.194 1.175 5.085 5.701 8.525 10.707 8.525z"/><path d="m497.183 210.459-44.818-10.359c-5.918-1.368-11.827 2.321-13.194 8.24-1.368 5.919 2.321 11.826 8.24 13.194l44.818 10.359c.833.193 1.667.285 2.487.285 5.006 0 9.532-3.439 10.708-8.525 1.368-5.918-2.321-11.826-8.241-13.194z"/><path d="m57 177.001c6.075 0 11-4.925 11-11s-4.925-11-11-11h-46c-6.075 0-11 4.925-11 11s4.925 11 11 11z"/><path d="m64.59 110.467-44.818-10.359c-5.921-1.372-11.827 2.321-13.194 8.24-1.368 5.919 2.321 11.826 8.24 13.194l44.818 10.359c.833.193 1.667.285 2.487.285 5.006 0 9.532-3.439 10.708-8.525 1.367-5.919-2.322-11.826-8.241-13.194z"/><path d="m59.636 200.1-44.818 10.359c-5.919 1.368-9.608 7.275-8.24 13.194 1.175 5.086 5.702 8.525 10.708 8.525.82 0 1.654-.092 2.487-.285l44.818-10.359c5.919-1.368 9.608-7.275 8.24-13.194-1.369-5.919-7.277-9.61-13.195-8.24z"/></g></g><g/><g/><g/><g/><g/><g/><g/><g/><g/><g/><g/><g/><g/><g/><g/></svg>