<svg id="Capa_1" enable-background="new 0 0 512 512" viewBox="0 0 512 512" xmlns="http://www.w3.org/2000/svg" fill="#052438"><g><path d="m311 440.788v-25.78c0-3.725-1.885-7.196-5.008-9.225l-38.992-25.327v-25.083h-22v25.083l-38.992 25.328c-3.123 2.029-5.008 5.5-5.008 9.225v15.78c-12.803 4.541-22 16.768-22 31.108 0 18.196 14.804 33 33 33s33-14.804 33-33c0-14.34-9.197-26.567-22-31.108v-9.808l33-21.435 33 21.435v19.808c-12.803 4.541-22 16.768-22 31.108 0 18.196 14.804 33 33 33s33-14.804 33-33c0-14.341-9.197-26.568-22-31.109zm-99 32.108c-6.065 0-11-4.935-11-11s4.935-11 11-11 11 4.935 11 11-4.935 11-11 11zm88 10c-6.065 0-11-4.935-11-11s4.935-11 11-11 11 4.935 11 11-4.935 11-11 11z" fill="#0496FF"/><path d="m489.784 160.896c-12.293-12.649-28.178-20.669-45.41-23.067-12.708-45.053-54.236-76.947-101.749-76.947-6.868 0-13.692.662-20.388 1.972-7.517-15.004-18.64-27.881-32.563-37.604-17-11.872-36.982-18.146-57.785-18.146-37.794 0-72.417 21.42-89.642 54.394-8.238-3.409-17.094-5.179-26.13-5.179-37.747 0-68.456 30.709-68.456 68.455 0 1.974.087 3.954.261 5.931-28.995 14.426-47.922 44.432-47.922 77.274 0 47.559 38.692 86.251 86.251 86.251h96.271v25.071c0 3.93 2.097 7.562 5.5 9.526l62.478 36.073c1.702.982 3.601 1.474 5.5 1.474s3.798-.491 5.5-1.474l62.477-36.071c3.403-1.965 5.5-5.597 5.5-9.526v-25.071h103.933c43.335 0 78.59-35.256 78.59-78.591 0-20.562-7.89-40.003-22.216-54.745zm-233.784 109.633-40.477-23.37 40.477-23.369 40.477 23.37zm-51.477-4.317 40.477 23.37v46.739l-40.477-23.37zm62.477 70.109v-46.739l40.477-23.37v46.739zm166.41-64.09h-103.933v-25.071c0-3.93-2.097-7.562-5.5-9.526l-62.477-36.072c-3.403-1.965-7.597-1.965-11 0l-62.477 36.071c-3.403 1.965-5.5 5.597-5.5 9.526v25.071h-96.272c-35.428.001-64.251-28.822-64.251-64.251 0-26.738 16.838-50.952 41.901-60.253 5.161-1.915 8.111-7.351 6.905-12.722-.76-3.384-1.145-6.826-1.145-10.23 0-25.615 20.84-46.455 46.456-46.455 9.043 0 17.817 2.61 25.371 7.549 2.797 1.829 6.276 2.286 9.451 1.244 3.176-1.042 5.705-3.472 6.874-6.604 11.479-30.747 41.249-51.405 74.077-51.405 16.275 0 31.901 4.905 45.189 14.184 13.001 9.079 22.881 21.661 28.57 36.386 2.062 5.335 7.871 8.201 13.358 6.59 7.646-2.244 15.593-3.382 23.618-3.382 39.854 0 74.39 28.328 82.117 67.358.995 5.026 5.329 8.7 10.45 8.858 14.738.456 28.522 6.54 38.814 17.13 10.314 10.614 15.994 24.61 15.994 39.413 0 31.204-25.386 56.591-56.59 56.591z"/></g><g/><g/><g/><g/><g/><g/><g/><g/><g/><g/><g/><g/><g/><g/><g/></svg>