<svg id="Capa_1" enable-background="new 0 0 512 512" viewBox="0 0 512 512" xmlns="http://www.w3.org/2000/svg" fill="#052438"><g><g fill="#0496FF"><path d="m439.24 128.225h22v255.55h-22z"/><path d="m112.52 58.612h286.961v22h-286.961z"/><path d="m112.52 431.388h286.961v22h-286.961z"/><path d="m50.76 128.225h22v255.55h-22z"/></g><g><path d="m391.765 151.348c-18.51-18.51-43.12-28.703-69.297-28.703-23.492 0-45.72 8.215-63.411 23.278-32.183-6.686-65.925 3.24-89.324 26.638l-49.498 49.498c-38.21 38.21-38.21 100.383 0 138.593 19.105 19.105 44.201 28.658 69.297 28.658 22.586 0 45.157-7.765 63.377-23.24 6.615 1.377 13.294 2.059 19.938 2.058 25.689 0 50.821-10.09 69.42-28.688l49.498-49.498c38.21-38.211 38.21-100.384 0-138.594zm-255.973 193.747c-29.632-29.632-29.632-77.848 0-107.48l49.498-49.498c14.304-14.304 33.596-22.111 53.351-22.239l-87.293 87.293c-21.054 21.055-21.054 55.313 0 76.368 10.199 10.199 23.76 15.816 38.184 15.816s27.984-5.617 38.184-15.816l49.498-49.498c18.137-18.138 20.635-46.067 7.523-66.92l15.104-15.104c.245-.245.498-.478.75-.714 9.607 13.227 14.693 29.16 14.43 45.769-.315 19.838-8.217 38.493-22.25 52.526l-49.498 49.498c-29.633 29.633-77.849 29.632-107.481-.001zm54.844-21.766c-.367.012-.735.027-1.104.027-8.548 0-16.583-3.329-22.627-9.373-12.477-12.477-12.477-32.778 0-45.254l8.577-8.577c-.282 2.787-.453 5.597-.498 8.427-.313 19.651 5.171 38.581 15.652 54.75zm59.707-75.814 18.142-18.142c4.919 11.647 2.648 25.635-6.829 35.112l-18.123 18.123c-4.87-11.657-2.578-25.704 6.81-35.093zm71.02-58.844c.368-.012.735-.027 1.105-.027 8.547 0 16.583 3.329 22.627 9.373 12.477 12.477 12.477 32.778 0 45.254l-8.577 8.577c.282-2.787.453-5.597.498-8.428.313-19.651-5.171-38.58-15.653-54.749zm5.347 135.211c-14.306 14.305-33.596 22.112-53.352 22.239l87.293-87.293c21.054-21.055 21.054-55.313 0-76.368-10.199-10.199-23.76-15.816-38.184-15.816s-27.984 5.617-38.184 15.816l-49.498 49.498c-10.044 10.045-15.66 23.398-15.813 37.601-.113 10.517 2.783 20.629 8.276 29.333l-15.091 15.091c-.245.245-.498.478-.75.714-9.608-13.227-14.693-29.161-14.429-45.77.315-19.838 8.217-38.492 22.25-52.525l49.498-49.498c29.632-29.633 77.849-29.632 107.48 0 29.632 29.632 29.632 77.848 0 107.48z"/><path d="m5.5 108.445 50.76 29.306c1.702.982 3.601 1.474 5.5 1.474s3.798-.491 5.5-1.474l50.76-29.306c3.403-1.965 5.5-5.596 5.5-9.526v-58.613c0-3.93-2.097-7.562-5.5-9.526l-50.76-29.306c-3.403-1.965-7.597-1.965-11 0l-50.76 29.306c-3.403 1.965-5.5 5.596-5.5 9.526v58.613c0 3.93 2.097 7.561 5.5 9.526zm16.5-49.086 28.76 16.604v33.209l-28.76-16.604zm50.76 49.813v-33.209l28.76-16.604v33.209zm-11-85.47 28.76 16.605-28.76 16.604-28.76-16.605z"/><path d="m506.5 30.78-50.76-29.306c-3.403-1.965-7.597-1.965-11 0l-50.76 29.306c-3.403 1.965-5.5 5.597-5.5 9.526v58.613c0 3.93 2.097 7.562 5.5 9.526l50.76 29.306c1.702.982 3.601 1.474 5.5 1.474s3.798-.491 5.5-1.474l50.76-29.306c3.403-1.965 5.5-5.596 5.5-9.526v-58.613c0-3.93-2.097-7.561-5.5-9.526zm-56.26-7.078 28.76 16.604-28.76 16.604-28.76-16.604zm-39.76 35.657 28.76 16.604v33.209l-28.76-16.605zm50.76 49.813v-33.209l28.76-16.604v33.209z"/><path d="m118.02 403.555-50.76-29.306c-3.403-1.965-7.597-1.965-11 0l-50.76 29.306c-3.403 1.965-5.5 5.596-5.5 9.526v58.613c0 3.93 2.097 7.562 5.5 9.526l50.76 29.306c1.702.982 3.601 1.474 5.5 1.474s3.798-.491 5.5-1.474l50.76-29.306c3.403-1.965 5.5-5.597 5.5-9.526v-58.613c0-3.93-2.097-7.561-5.5-9.526zm-56.26-7.078 28.76 16.605-28.76 16.605-28.76-16.606zm-39.76 35.657 28.76 16.605v33.209l-28.76-16.605zm50.76 49.813v-33.209l28.76-16.605v33.209z"/><path d="m506.5 403.555-50.76-29.306c-3.403-1.965-7.597-1.965-11 0l-50.76 29.306c-3.403 1.965-5.5 5.596-5.5 9.526v58.613c0 3.93 2.097 7.562 5.5 9.526l50.76 29.306c1.702.982 3.601 1.474 5.5 1.474s3.798-.491 5.5-1.474l50.76-29.306c3.403-1.965 5.5-5.597 5.5-9.526v-58.613c0-3.93-2.097-7.561-5.5-9.526zm-56.26-7.078 28.76 16.604-28.76 16.605-28.76-16.605zm-39.76 35.657 28.76 16.605v33.209l-28.76-16.605zm50.76 49.813v-33.209l28.76-16.604v33.209z"/></g></g><g/><g/><g/><g/><g/><g/><g/><g/><g/><g/><g/><g/><g/><g/><g/></svg>