<svg id="Capa_1" enable-background="new 0 0 512 512" viewBox="0 0 512 512" xmlns="http://www.w3.org/2000/svg" fill="#052438"><g><g fill="#0496FF"><path d="m143.112 250.008c-2.029-3.123-5.5-5.008-9.225-5.008h-25.78c-4.54-12.803-16.767-22-31.107-22-18.196 0-33 14.804-33 33s14.804 33 33 33c14.34 0 26.567-9.197 31.108-22h19.808l21.435 33-21.435 33h-9.808c-4.541-12.803-16.768-22-31.108-22-18.196 0-33 14.804-33 33s14.804 33 33 33c14.34 0 26.567-9.197 31.108-22h15.78c3.725 0 7.196-1.885 9.225-5.008l25.327-38.992h25.083v-22h-25.083zm-66.112 16.992c-6.065 0-11-4.935-11-11s4.935-11 11-11 11 4.935 11 11-4.935 11-11 11zm10 88c-6.065 0-11-4.935-11-11s4.935-11 11-11 11 4.935 11 11-4.935 11-11 11z"/><path d="m435 223c-14.34 0-26.567 9.197-31.108 22h-25.78c-3.725 0-7.196 1.885-9.225 5.008l-25.327 38.992h-25.083v22h25.083l25.328 38.992c2.029 3.123 5.5 5.008 9.225 5.008h15.78c4.541 12.803 16.768 22 31.108 22 18.196 0 33-14.804 33-33s-14.804-33-33-33c-14.34 0-26.567 9.197-31.108 22h-9.808l-21.435-33 21.435-33h19.808c4.541 12.803 16.768 22 31.108 22 18.196 0 33-14.804 33-33s-14.805-33-33.001-33zm-10 110c6.065 0 11 4.935 11 11s-4.935 11-11 11-11-4.935-11-11 4.935-11 11-11zm10-66c-6.065 0-11-4.935-11-11s4.935-11 11-11 11 4.935 11 11-4.935 11-11 11z"/><path d="m44.84 104.91c2.769 7.132 12.643 9.076 17.94 3.57 6.886-6.807 1.913-18.85-7.78-18.78-7.591-.22-13.269 8.278-10.16 15.21z"/><path d="m88.84 104.91c2.701 7.102 12.722 9.078 17.94 3.57 6.191-6.016 2.864-17.009-5.63-18.57-8.436-1.822-15.746 7.076-12.31 15z"/><path d="m132.84 104.91c2.701 7.102 12.722 9.078 17.94 3.57 6.186-6.011 2.863-17.016-5.63-18.57-8.436-1.825-15.746 7.078-12.31 15z"/><path d="m374.551 111.698h82.449c6.075 0 11-4.925 11-11s-4.925-11-11-11h-82.449c-6.075 0-11 4.925-11 11s4.925 11 11 11z"/></g><g><path d="m461 45.698h-410c-28.122 0-51 22.878-51 51v318.604c0 28.122 22.878 51 51 51h410c28.122 0 51-22.878 51-51v-318.604c0-28.121-22.878-51-51-51zm-410 22h410c15.991 0 29 13.009 29 29v37h-468v-37c0-15.99 13.009-29 29-29zm410 376.604h-410c-15.991 0-29-13.009-29-29v-259.604h468v259.604c0 15.99-13.009 29-29 29z"/><path d="m323.977 254.402-62.477-36.071c-3.403-1.965-7.597-1.965-11 0l-62.477 36.071c-3.403 1.965-5.5 5.597-5.5 9.526v72.143c0 3.93 2.097 7.562 5.5 9.526l62.477 36.071c1.702.982 3.601 1.474 5.5 1.474s3.798-.491 5.5-1.474l62.477-36.071c3.403-1.965 5.5-5.597 5.5-9.526v-72.143c0-3.929-2.097-7.561-5.5-9.526zm-67.977-13.843 40.477 23.37-40.477 23.369-40.477-23.37zm-51.477 42.422 40.477 23.37v46.739l-40.477-23.37zm62.477 70.109v-46.739l40.477-23.37v46.739z"/></g></g><g/><g/><g/><g/><g/><g/><g/><g/><g/><g/><g/><g/><g/><g/><g/></svg>