<svg id="Layer_1" enable-background="new 0 0 512 512" viewBox="0 0 512 512" xmlns="http://www.w3.org/2000/svg" fill="#052438"><g><g><g><path d="m103.667 336.979h-22v-88c0-6.075 4.925-11 11-11h63.302v22h-52.302z" fill="#0496FF"/></g><g><path d="m430.333 336.979h-22v-77h-52.302v-22h63.302c6.075 0 11 4.925 11 11z" fill="#0496FF"/></g><g><path d="m245 248.979h22v88h-22z" fill="#0496FF"/></g><g><path d="m455.52 415.693c9.847-9.496 15.991-22.809 15.991-37.537 0-28.771-23.407-52.177-52.177-52.177s-52.177 23.407-52.177 52.177c0 14.728 6.144 28.041 15.991 37.537-19.459 8.286-35.524 23.043-45.481 41.553-9.957-18.51-26.021-33.267-45.48-41.553 9.847-9.496 15.991-22.809 15.991-37.537 0-28.771-23.407-52.177-52.177-52.177s-52.177 23.407-52.177 52.177c0 14.728 6.144 28.041 15.991 37.537-19.459 8.286-35.523 23.043-45.48 41.553-9.957-18.51-26.021-33.267-45.481-41.553 9.847-9.496 15.991-22.809 15.991-37.537 0-28.771-23.407-52.177-52.177-52.177s-52.177 23.407-52.177 52.177c0 14.728 6.144 28.041 15.991 37.537-33.169 14.123-56.482 47.043-56.482 85.307 0 6.075 4.925 11 11 11h490c6.075 0 11-4.925 11-11 0-38.264-23.313-71.184-56.48-85.307zm-66.364-37.537c0-16.64 13.538-30.177 30.177-30.177s30.177 13.538 30.177 30.177-13.538 30.177-30.177 30.177-30.177-13.537-30.177-30.177zm-163.333 0c0-16.64 13.538-30.177 30.177-30.177s30.177 13.538 30.177 30.177-13.537 30.177-30.177 30.177-30.177-13.537-30.177-30.177zm-163.334 0c0-16.64 13.538-30.177 30.177-30.177s30.177 13.538 30.177 30.177-13.538 30.177-30.177 30.177-30.177-13.537-30.177-30.177zm-39.634 111.844c5.299-33.76 34.587-59.667 69.812-59.667s64.513 25.907 69.812 59.667zm163.333 0c5.299-33.76 34.587-59.667 69.812-59.667s64.513 25.907 69.812 59.667zm163.333 0c5.299-33.76 34.587-59.667 69.812-59.667s64.513 25.907 69.812 59.667z"/><path d="m155.969 259.979h200.063c6.075 0 11-4.925 11-11v-22.026c0-43.175-28.735-79.759-68.084-91.647 10.761-10.889 17.418-25.841 17.418-42.322v-81.984c0-6.075-4.925-11-11-11h-60.062c-27.259 0-49.436 22.177-49.436 49.437v43.546c0 16.455 6.637 31.384 17.367 42.268-39.442 11.83-68.266 48.46-68.266 91.702v22.026c0 6.075 4.925 11 11 11zm61.899-177.996h76.498v11c0 21.091-17.159 38.249-38.249 38.249s-38.249-17.158-38.249-38.249zm0-32.546c0-15.128 12.308-27.437 27.436-27.437h49.062v37.983h-76.498zm-50.899 177.516c0-40.65 33.071-73.721 73.721-73.721h4.31v20.748c0 6.075 4.925 11 11 11s11-4.925 11-11v-20.748h4.311c40.65 0 73.721 33.071 73.721 73.721v11.026h-178.063z"/></g></g></g><g/><g/><g/><g/><g/><g/><g/><g/><g/><g/><g/><g/><g/><g/><g/></svg>