<svg id="Layer_1" enable-background="new 0 0 512 512" viewBox="0 0 512 512" xmlns="http://www.w3.org/2000/svg" fill="#E6ECF2"><g><g><path d="m256 325.25c-6.075 0-11-4.925-11-11v-25.903c0-6.075 4.925-11 11-11s11 4.925 11 11v25.903c0 6.075-4.925 11-11 11z" fill="#0496FF"/></g><g><path d="m213.907 337.563c-3.491 0-6.924-1.658-9.059-4.747l-14.727-21.31c-3.454-4.998-2.202-11.85 2.795-15.303 4.998-3.455 11.85-2.203 15.303 2.795l14.727 21.31c3.454 4.998 2.202 11.85-2.795 15.303-1.908 1.319-4.087 1.952-6.244 1.952z" fill="#0496FF"/></g><g><path d="m298.093 337.563c-2.157 0-4.335-.633-6.244-1.952-4.998-3.454-6.25-10.305-2.795-15.303l14.727-21.31c3.454-4.997 10.306-6.248 15.303-2.795 4.998 3.454 6.25 10.305 2.795 15.303l-14.727 21.31c-2.135 3.088-5.569 4.747-9.059 4.747z" fill="#0496FF"/></g><g><path d="m148.603 167.423c-1.549 0-3.108-.327-4.572-.996-3.915-1.79-6.426-5.699-6.426-10.004v-21.247h-3.979c-16.964 0-30.765-13.801-30.765-30.765v-73.646c-.001-16.964 13.8-30.765 30.764-30.765h116.184c16.964 0 30.765 13.801 30.765 30.765v25.399h-22v-25.399c0-4.833-3.932-8.765-8.765-8.765h-116.184c-4.833 0-8.765 3.932-8.765 8.765v73.646c0 4.833 3.932 8.765 8.765 8.765h14.979c6.075 0 11 4.925 11 11v8.19l19.09-16.51c1.999-1.729 4.553-2.68 7.196-2.68h44.153v22h-40.057l-34.186 29.567c-2.038 1.763-4.604 2.68-7.197 2.68z" fill="#0496FF"/></g><g><path d="m449.438 302.603c13.339-10.942 21.865-27.544 21.865-46.103 0-32.873-26.744-59.616-59.616-59.616s-59.616 26.744-59.616 59.616c0 19.567 9.478 36.96 24.081 47.837-15.199 8.695-27.417 22.45-33.891 39.385l-13.42 35.108h-145.683l-13.42-35.108c-6.473-16.935-18.692-30.69-33.891-39.385 14.604-10.876 24.081-28.27 24.081-47.837 0-32.873-26.744-59.616-59.616-59.616s-59.616 26.743-59.616 59.616c0 18.559 8.527 35.161 21.865 46.103-24.933 12.801-42.043 38.764-42.043 68.666v129.731c0 6.075 4.925 11 11 11h103.513c6.075 0 11-4.925 11-11v-49.679c7.206 3.619 15.204 5.547 23.505 5.547h172.928c8.299 0 16.3-1.912 23.505-5.53v49.662c0 6.075 4.925 11 11 11h103.513c6.075 0 11-4.925 11-11v-129.731c-.001-29.902-17.111-55.865-42.044-68.666zm-37.75-83.719c20.742 0 37.616 16.875 37.616 37.616s-16.875 37.616-37.616 37.616-37.616-16.875-37.616-37.616 16.874-37.616 37.616-37.616zm-138.542 181.947v34.038h-17.146c-9.384 0-17.019-7.635-17.019-17.019s7.634-17.019 17.019-17.019zm-172.834-181.947c20.742 0 37.616 16.875 37.616 37.616s-16.875 37.616-37.616 37.616c-20.742 0-37.616-16.875-37.616-37.616s16.875-37.616 37.616-37.616zm47.655 207.033-14.948-14.99c-4.289-4.302-11.254-4.312-15.556-.022s-4.312 11.254-.022 15.556l6.59 6.609v56.93h-81.512v-118.731c0-30.411 24.741-55.152 55.152-55.152 22.707 0 43.41 14.25 51.517 35.46l16.123 42.181c1.628 4.259 5.715 7.073 10.275 7.073h45.309c-2.505 5.146-3.914 10.921-3.914 17.019s1.409 11.872 3.914 17.019h-51.359c-8.034-.001-15.896-3.264-21.569-8.952zm321.514 64.083h-81.513v-56.93l6.59-6.609c4.29-4.302 4.28-11.267-.022-15.556-4.302-4.29-11.267-4.28-15.556.022l-14.948 14.99c-5.673 5.689-13.535 8.952-21.569 8.952h-47.318v-34.038h41.269c4.56 0 8.647-2.813 10.275-7.073l16.123-42.181c8.107-21.21 28.81-35.46 51.517-35.46 30.411 0 55.152 24.741 55.152 55.152z"/><path d="m249.809 180.34h35.353l34.187 29.566c2.039 1.763 4.604 2.681 7.198 2.68 1.549 0 3.109-.327 4.572-.996 3.915-1.79 6.426-5.699 6.426-10.004v-21.246h28.449c16.964 0 30.765-13.801 30.765-30.765v-73.646c0-16.964-13.801-30.765-30.765-30.765h-116.185c-16.964 0-30.765 13.801-30.765 30.765v73.646c0 16.964 13.801 30.765 30.765 30.765zm-8.765-104.411c0-4.833 3.932-8.765 8.765-8.765h116.184c4.833 0 8.765 3.932 8.765 8.765v73.646c0 4.833-3.932 8.765-8.765 8.765h-39.449c-6.075 0-11 4.925-11 11v8.19l-19.09-16.51c-1.999-1.729-4.553-2.68-7.196-2.68h-39.449c-4.833 0-8.765-3.932-8.765-8.765z"/></g><g><path d="m302.395 137.057c-2.815 0-5.63-1.074-7.778-3.222l-14.879-14.879c-4.295-4.296-4.295-11.261 0-15.557 4.296-4.296 11.261-4.296 15.557 0l7.101 7.102 18.115-18.115c4.296-4.296 11.261-4.296 15.557 0 4.295 4.296 4.295 11.261 0 15.557l-25.893 25.893c-2.15 2.147-4.966 3.221-7.78 3.221z" fill="#0496FF"/></g></g><g/><g/><g/><g/><g/><g/><g/><g/><g/><g/><g/><g/><g/><g/><g/></svg>