<svg id="Capa_1" enable-background="new 0 0 512 512" viewBox="0 0 512 512" xmlns="http://www.w3.org/2000/svg" fill="#E6ECF2"><g><g><path d="m160.188 218.427c20.67 0 37.486-16.816 37.486-37.486 0-6.075-4.925-11-11-11s-11 4.925-11 11c0 8.539-6.947 15.486-15.486 15.486s-15.485-6.947-15.485-15.486c0-6.075-4.925-11-11-11s-11 4.925-11 11c-.001 20.67 16.815 37.486 37.485 37.486z"/><path d="m422.156 314h-129.541c-19.116-28.697-50.527-47.23-84.753-50.172v-17.422c19.385-14.068 32.352-36.467 33.582-61.898 12.854-4.513 22.096-16.772 22.096-31.149 0-14.341-9.195-26.575-22-31.115v-40.892c0-44.858-36.494-81.352-81.352-81.352s-81.352 36.494-81.352 81.352l-.001 40.892c-12.805 4.54-22 16.774-22 31.115 0 10.854 5.271 20.495 13.384 26.513l-.678.678c-14.374 14.375-22.29 33.486-22.29 53.814 0 16.806 5.424 32.771 15.421 45.925-32.278 19.978-53.829 55.704-53.829 96.374v31.906c0 6.075 4.925 11 11 11h153.312v11.431c0 44.664 36.337 81 81 81h168c44.663 0 81-36.336 81-81v-36c.001-44.664-36.336-81-80.999-81zm-157.569 0h-10.431c-17.49 0-33.69 5.591-46.944 15.054l8.346-41.976c18.72 3.646 35.918 13.107 49.029 26.922zm-130.073-56.292c8.077 2.694 16.703 4.174 25.674 4.174s17.598-1.48 25.675-4.174v12.661l-25.675 30.324-25.674-30.324zm25.674-235.708c28.208 0 51.865 19.785 57.866 46.202-6.707-3.801-14.446-5.983-22.689-5.983-10.317 0-20.076 3.329-28.223 9.626-19.989 15.452-42.802 24.153-66.306 25.382v-15.875c0-32.727 26.625-59.352 59.352-59.352zm-70.353 120.358c6.075 0 11-4.925 11-11v-12.088c28.403-1.232 55.866-11.547 79.762-30.019 4.259-3.292 9.365-5.032 14.768-5.032 13.33 0 24.176 10.845 24.176 24.176v22.963c0 6.075 4.925 11 11 11 6.065 0 11 4.935 11 11s-4.935 11-11 11c-6.075 0-11 4.925-11 11v5.172c0 32.727-26.625 59.352-59.353 59.352s-59.353-26.625-59.353-59.352v-5.172c0-6.075-4.925-11-11-11-6.065 0-11-4.935-11-11s4.935-11 11-11zm-20.584 92.005c0-12.534 4.239-24.414 12.03-34.013 4.72 18.786 15.992 34.995 31.233 46.056v17.405c-10.294.867-20.201 3.112-29.533 6.558-8.872-9.923-13.73-22.589-13.73-36.006zm-38.407 142.299c0-44.41 31.888-81.507 73.969-89.611l21.972 110.516h-41.941v-20.906c0-6.075-4.925-11-11-11s-11 4.925-11 11v20.906h-32zm118.372 20.906-19.691-99.042 22.267 26.299c2.091 2.468 5.161 3.892 8.396 3.892s6.305-1.423 8.396-3.892l22.267-26.3-15.267 76.79.004.001c-1.58 6.305-2.431 12.896-2.431 19.684v2.568zm331.94 33.432c0 32.533-26.467 59-59 59h-168c-32.533 0-59-26.467-59-59v-36c0-32.533 26.467-59 59-59h168c32.533 0 59 26.467 59 59z"/></g><g fill="#0496FF"><path d="m250.156 380c6.065 0 11 4.935 11 11 0 6.075 4.925 11 11 11s11-4.925 11-11c0-18.196-14.804-33-33-33s-33 14.804-33 33v44c0 18.196 14.804 33 33 33s33-14.804 33-33c0-6.075-4.925-11-11-11s-11 4.925-11 11c0 6.065-4.935 11-11 11s-11-4.935-11-11v-44c0-6.065 4.935-11 11-11z"/><path d="m360.156 380c6.075 0 11-4.925 11-11s-4.925-11-11-11h-44c-6.075 0-11 4.925-11 11v88c0 6.075 4.925 11 11 11h44c6.075 0 11-4.925 11-11s-4.925-11-11-11h-33v-22h23c6.075 0 11-4.925 11-11s-4.925-11-11-11h-23v-22z"/><path d="m426.156 358c-18.196 0-33 14.804-33 33v44c0 18.196 14.804 33 33 33s33-14.804 33-33v-44c0-18.196-14.803-33-33-33zm11 77c0 6.065-4.935 11-11 11s-11-4.935-11-11v-44c0-6.065 4.935-11 11-11s11 4.935 11 11z"/></g></g><g/><g/><g/><g/><g/><g/><g/><g/><g/><g/><g/><g/><g/><g/><g/></svg>