<svg id="Layer_1" enable-background="new 0 0 512 512" viewBox="0 0 512 512" xmlns="http://www.w3.org/2000/svg" fill="#E6ECF2"><g><g><g><path d="m501 317.127h-348v-22h337v-273.127h-374v45h-22v-56c0-6.075 4.925-11 11-11h396c6.075 0 11 4.925 11 11v295.127c0 6.075-4.925 11-11 11z"/></g><path d="m164 501v-293.846h99.183c18.748 0 34-15.252 34-34s-15.252-34-34-34h-115.452c6.188-8.623 9.846-19.177 9.846-30.577 0-28.991-23.586-52.577-52.577-52.577s-52.577 23.586-52.577 52.577c0 11.519 3.734 22.178 10.041 30.85-34.944 3.018-62.464 32.408-62.464 68.121v97.539c0 18.748 15.252 34 34 34 4.223 0 8.266-.78 12-2.193v164.106c0 6.075 4.925 11 11 11h96zm-59-423c16.86 0 30.577 13.717 30.577 30.577s-13.717 30.577-30.577 30.577-30.577-13.717-30.577-30.577 13.717-30.577 30.577-30.577zm11 412v-154.861c0-6.075-4.925-11-11-11s-11 4.925-11 11v154.861h-26v-203.27h74v203.27zm147.183-304.846h-110.183c-6.075 0-11 4.925-11 11v68.577h-74v-39.119c0-6.075-4.925-11-11-11s-11 4.925-11 11v79.476c0 6.617-5.383 12-12 12s-12-5.383-12-12v-97.539c0-25.582 20.813-46.395 46.395-46.395h25.605v16.031c0 6.075 4.925 11 11 11s11-4.925 11-11v-16.031h147.183c6.617 0 12 5.383 12 12s-5.383 12-12 12z" fill="#0496FF"/><path d="m474.933 439.863c6.994-7.678 11.264-17.879 11.264-29.059 0-23.818-19.378-43.196-43.196-43.196s-43.196 19.377-43.196 43.196c0 11.18 4.27 21.381 11.264 29.059-10.612 5.565-19.598 13.809-26.067 23.832-6.469-10.023-15.456-18.267-26.067-23.832 6.994-7.678 11.264-17.879 11.264-29.059 0-23.818-19.378-43.196-43.196-43.196s-43.196 19.377-43.196 43.196c0 11.18 4.27 21.381 11.264 29.059-10.612 5.565-19.598 13.809-26.067 23.832-6.469-10.023-15.456-18.267-26.067-23.832 6.994-7.678 11.264-17.879 11.264-29.059 0-23.818-19.378-43.196-43.196-43.196s-43.196 19.377-43.196 43.196c0 11.18 4.27 21.381 11.264 29.059-22.015 11.543-37.073 34.608-37.073 61.137 0 6.075 4.925 11 11 11h348c6.075 0 11-4.925 11-11 0-26.529-15.058-49.594-37.067-61.137zm-53.129-29.059c0-11.688 9.509-21.196 21.196-21.196s21.196 9.508 21.196 21.196-9.508 21.196-21.196 21.196-21.196-9.508-21.196-21.196zm-116 0c0-11.688 9.509-21.196 21.196-21.196s21.196 9.508 21.196 21.196-9.508 21.196-21.196 21.196-21.196-9.508-21.196-21.196zm-116 0c0-11.688 9.509-21.196 21.196-21.196s21.196 9.508 21.196 21.196-9.508 21.196-21.196 21.196-21.196-9.508-21.196-21.196zm-24.504 79.196c4.965-20.627 23.571-36 45.7-36s40.735 15.373 45.7 36zm116 0c4.965-20.627 23.571-36 45.7-36s40.735 15.373 45.7 36zm116 0c4.965-20.627 23.571-36 45.7-36s40.735 15.373 45.7 36z"/><path d="m457 148.001h-44c-6.075 0-11 4.925-11 11v16.497h-33c-6.075 0-11 4.925-11 11v12.628h-33c-6.075 0-11 4.925-11 11v46c0 6.075 4.925 11 11 11h132c6.075 0 11-4.925 11-11v-97.125c0-6.075-4.925-11-11-11zm-121 73.126h22v24h-22zm44-23.628h22v47.628h-22zm66 47.628h-22v-75.125h22z"/><g><path d="m457 72h-132c-6.075 0-11-4.925-11-11s4.925-11 11-11h132c6.075 0 11 4.925 11 11s-4.925 11-11 11z" fill="#0496FF"/></g><g><path d="m396.246 116h-71.246c-6.075 0-11-4.925-11-11s4.925-11 11-11h71.246c6.075 0 11 4.925 11 11s-4.925 11-11 11z" fill="#0496FF"/></g></g></g><g/><g/><g/><g/><g/><g/><g/><g/><g/><g/><g/><g/><g/><g/><g/></svg>