<svg id="Layer_1" enable-background="new 0 0 512 512" viewBox="0 0 512 512" xmlns="http://www.w3.org/2000/svg" fill="#052438"><g><g><g><path d="m161.328 125.378v-12.858h-.981c-14.782 0-26.808-12.026-26.808-26.808v-58.904c0-14.782 12.025-26.808 26.808-26.808h92.926c14.782 0 26.808 12.026 26.808 26.808v28.18h-22v-28.18c0-2.651-2.156-4.808-4.808-4.808h-92.926c-2.651 0-4.808 2.157-4.808 4.808v58.903c0 2.651 2.156 4.808 4.808 4.808h11.981c6.075 0 11 4.925 11 11v.552l10.983-9.043c1.97-1.622 4.441-2.508 6.992-2.508h37.606v22h-33.66l-25.93 21.35z"/></g><g><path d="m319.366 161.097c-2.505 0-4.985-.854-6.994-2.508l-21.048-17.331h-39.269c-13.313 0-24.146-10.832-24.146-24.145v-48.98c0-13.313 10.832-24.145 24.146-24.145h77.271c13.313 0 24.146 10.832 24.146 24.145v48.98c0 12.966-10.273 23.578-23.107 24.123v8.861c0 4.256-2.456 8.131-6.305 9.948-1.497.706-3.101 1.052-4.694 1.052zm-67.31-95.109c-1.183 0-2.146.962-2.146 2.145v48.98c0 1.183.963 2.145 2.146 2.145h43.214c2.551 0 5.022.887 6.992 2.508l6.546 5.39c1.339-4.564 5.559-7.898 10.557-7.898h9.962c1.183 0 2.146-.962 2.146-2.145v-48.98c0-1.183-.963-2.145-2.146-2.145z" fill="#0496FF"/></g><path d="m187.697 201.904c6.55-8.392 10.468-18.933 10.468-30.379 0-27.28-22.194-49.475-49.475-49.475s-49.475 22.194-49.475 49.475c0 11.446 3.918 21.987 10.468 30.379-26.003 8.136-44.926 32.448-44.926 61.098v26.361h22v-26.361c0-23.161 18.843-42.003 42.003-42.003h8.93v16.209c0 6.075 4.925 11 11 11s11-4.925 11-11v-16.208h8.931c23.16 0 42.002 18.842 42.002 42.003v26.361h22v-26.361c0-28.651-18.923-52.963-44.926-61.099zm-39.007-57.854c15.149 0 27.475 12.325 27.475 27.475s-12.325 27.475-27.475 27.475-27.475-12.325-27.475-27.475 12.326-27.475 27.475-27.475z" fill="#0496FF"/><g><path d="m467.961 443.775c24.283 0 44.039-19.756 44.039-44.039v-152.098c0-18.937-15.399-34.635-34.327-34.994-8.975-.188-17.44 3.1-24.08 9.219-3.508-4.853-7.785-9.11-12.654-12.597 10.716-9.082 17.536-22.627 17.536-37.741 0-27.28-22.194-49.475-49.475-49.475s-49.475 22.194-49.475 49.475c0 15.114 6.82 28.659 17.536 37.741-13.946 9.986-23.061 26.31-23.061 44.734v21.588l-15.229 7.473c-15.057 7.389-22.655 24.46-18.067 40.593 2.615 9.197 8.994 16.978 17.5 21.347.691.355 1.394.679 2.103.984-5.124 8.469-8.078 18.392-8.078 28.992v126c0 6.075 4.925 11 11 11l157.771.023c6.075 0 11-4.925 11-11s-4.925-11-11-11h-45v-46.225zm-3.961-195.597c0-3.65 1.515-7.23 4.156-9.822 2.508-2.461 5.745-3.786 9.1-3.716 7.027.133 12.744 5.964 12.744 12.998v152.098c0 12.152-9.887 22.039-22.039 22.039h-63.732v-25.976l48.771-.024c6.075 0 11-4.925 11-11zm-82.475-76.653c0-15.149 12.325-27.475 27.475-27.475s27.475 12.325 27.475 27.475-12.326 27.475-27.475 27.475-27.475-12.326-27.475-27.475zm-33.062 131.286 21.383-10.493c3.767-1.848 6.154-5.679 6.154-9.875v-28.443c0-18.196 14.804-33 33-33s33 14.804 33 33v64.799h-29.094c4.529-7.34 7.094-15.922 7.094-24.917v-33.484c0-6.075-4.925-11-11-11s-11 4.925-11 11v33.484c0 10.74-6.791 20.394-16.899 24.023l-22.785 8.181c-3.335 1.198-6.908.965-10.06-.654s-5.422-4.388-6.392-7.796c-1.675-5.892 1.101-12.127 6.599-14.825zm5.766 72.167c0-18.846 15.332-34.179 34.179-34.179h53.592v24.961c0 4.273-3.354 7.768-7.566 8.015h-41.206c-6.075 0-11 4.925-11 11v.024 105.18h-27.999zm79.771 115.022h-29.771v-46.225h29.771z"/><path d="m286.381 278.363h-275.381c-6.075 0-11 4.925-11 11v50c0 6.075 4.925 11 11 11h8.67v150.615c0 6.075 4.925 11 11 11h236.041c6.075 0 11-4.925 11-11v-150.615h8.67c6.075 0 11-4.925 11-11v-50c0-6.075-4.925-11-11-11zm-264.381 22h253.381v28h-253.381zm233.711 189.616h-214.041v-139.616h214.041z"/></g></g></g><g/><g/><g/><g/><g/><g/><g/><g/><g/><g/><g/><g/><g/><g/><g/></svg>