<svg id="Layer_1" enable-background="new 0 0 512 512" viewBox="0 0 512 512" xmlns="http://www.w3.org/2000/svg" fill="#052438"><g><g><g><path d="m405.494 512h95.506c6.075 0 11-4.925 11-11v-80.026c0-20.656-10.724-38.842-26.887-49.321.393-.368.789-.733 1.171-1.116 8.825-8.824 13.685-20.557 13.685-33.037 0-14.576-6.713-27.61-17.205-36.185-.24-20.374-10.898-38.277-26.888-48.635 9.142-8.534 14.874-20.678 14.874-34.141 0-25.762-20.959-46.721-46.722-46.721s-46.722 20.959-46.722 46.721c0 13.463 5.732 25.607 14.874 34.141-16.173 10.477-26.905 28.67-26.905 49.333v50.172h22v-50.172c0-20.266 16.487-36.753 36.753-36.753 16.491 0 30.479 10.918 35.118 25.904-1.934-.245-3.9-.385-5.899-.385-25.763 0-46.722 20.959-46.722 46.721 0 13.463 5.732 25.607 14.874 34.141-16.173 10.477-26.905 28.67-26.905 49.333v80.026zm-6.188-293.461c0-13.631 11.09-24.721 24.722-24.721 13.631 0 24.722 11.09 24.722 24.721s-11.09 24.721-24.722 24.721-24.722-11.09-24.722-24.721zm53.941 94.24c13.631 0 24.722 11.09 24.722 24.722 0 6.603-2.571 12.811-7.241 17.48s-10.877 7.241-17.481 7.241c-13.632 0-24.722-11.09-24.722-24.721s11.09-24.722 24.722-24.722zm36.753 177.221h-73.506v-69.026c0-20.265 16.487-36.752 36.753-36.752 20.265 0 36.752 16.487 36.752 36.752v69.026z"/><path d="m117.506 501v-80.026c0-20.663-10.732-38.855-26.905-49.333 9.143-8.534 14.874-20.678 14.874-34.141 0-25.762-20.959-46.721-46.722-46.721-1.999 0-3.965.141-5.899.385 4.639-14.987 18.627-25.904 35.118-25.904 20.265 0 36.752 16.487 36.752 36.752v50.162h22v-50.162c0-20.663-10.732-38.855-26.905-49.333 9.143-8.534 14.874-20.678 14.874-34.141 0-25.762-20.959-46.721-46.722-46.721-25.762 0-46.722 20.959-46.722 46.721 0 13.463 5.732 25.607 14.874 34.141-15.99 10.358-26.648 28.262-26.887 48.635-10.493 8.575-17.205 21.609-17.205 36.185 0 12.48 4.859 24.213 13.685 33.037.383.383.778.748 1.171 1.116-16.163 10.479-26.887 28.666-26.887 49.322v80.026c0 6.075 4.925 11 11 11h95.506zm-58.753-116.779c20.265 0 36.752 16.487 36.752 36.752v69.027h-73.505v-69.026c0-20.266 16.487-36.753 36.753-36.753zm24.722-46.721c0 13.631-11.09 24.721-24.722 24.721-6.604 0-12.812-2.571-17.481-7.241s-7.241-10.877-7.241-17.48c0-13.631 11.09-24.721 24.722-24.721s24.722 11.09 24.722 24.721zm4.497-143.682c13.632 0 24.722 11.09 24.722 24.721s-11.09 24.721-24.722 24.721c-13.631 0-24.722-11.09-24.722-24.721s11.09-24.721 24.722-24.721z"/></g><g><path d="m404.234 512h-296.47c-3.273 0-6.376-1.458-8.466-3.977s-2.949-5.838-2.345-9.055l51.193-272.482c.977-5.201 5.519-8.969 10.811-8.969h21.499v22h-12.373l-47.06 250.483h269.951l-47.059-250.482h-26.329v-22h35.455c5.292 0 9.834 3.768 10.811 8.969l51.192 272.482c.604 3.217-.255 6.536-2.345 9.055s-5.192 3.976-8.465 3.976z" fill="#0496FF"/></g><path d="m413.145 80.309h-115.176c5.772-8.28 9.17-18.333 9.17-29.169 0-28.199-22.942-51.14-51.141-51.14s-51.141 22.941-51.141 51.14c0 10.871 3.42 20.952 9.225 29.247-29.382 1.598-54.389 23.039-60.186 52.175l-11.554 58.075c-2.399 12.058.698 24.424 8.498 33.927 7.799 9.503 19.322 14.954 31.616 14.954h11.958v-22h-11.958c-5.681 0-11.006-2.519-14.61-6.91s-5.035-10.106-3.927-15.678l11.554-58.075c3.986-20.034 21.704-34.575 42.13-34.575h27.394v17.842c0 6.075 4.925 11 11 11s11-4.925 11-11v-17.813h146.147c7.136 0 12.941 5.806 12.941 12.941 0 6.787-5.304 12.458-12.076 12.912l-97.159 6.512c-5.777.387-10.265 5.186-10.265 10.976v41.249l22 2.214v-33.175l86.894-5.824c18.283-1.225 32.605-16.539 32.605-34.863.002-19.267-15.673-34.942-34.939-34.942zm-157.147-58.309c16.068 0 29.141 13.072 29.141 29.14s-13.073 29.14-29.141 29.14-29.141-13.072-29.141-29.14 13.072-29.14 29.141-29.14z"/><g><path d="m317.587 272h-123.174c-6.075 0-11-4.925-11-11v-70.888c0-15.428 12.552-27.98 27.98-27.98h89.214c15.428 0 27.98 12.552 27.98 27.98v70.888c0 6.075-4.925 11-11 11zm-112.174-22h101.174v-59.888c0-3.297-2.683-5.98-5.98-5.98h-89.214c-3.297 0-5.98 2.683-5.98 5.98z" fill="#0496FF"/></g></g></g><g/><g/><g/><g/><g/><g/><g/><g/><g/><g/><g/><g/><g/><g/><g/></svg>