<svg id="Capa_1" enable-background="new 0 0 512 512" viewBox="0 0 512 512" xmlns="http://www.w3.org/2000/svg" fill="#052438"><g><path d="m449.483 200.869h-14.345c-3.223-47.273-42.705-84.749-90.781-84.749h-77.357v-35.631c17.281-4.82 30-20.692 30-39.489 0-22.607-18.393-41-41-41s-41 18.393-41 41c0 18.797 12.719 34.669 30 39.489v35.631h-77.358c-48.076 0-87.558 37.476-90.781 84.749h-14.344c-34.472 0-62.517 28.045-62.517 62.516 0 23.658 13.211 44.287 32.642 54.903v74.037c0 50.178 40.822 91 91 91h88.819v-22h-88.819c-38.047 0-69-30.953-69-69v-66.937c2.582.326 5.206.513 7.875.513h14.125v33.749c0 28.122 22.878 51 51 51h256.715c28.121 0 51-22.878 51-51v-33.749h14.126c34.472 0 62.517-28.045 62.517-62.517s-28.045-62.515-62.517-62.515zm-212.483-159.869c0-10.477 8.523-19 19-19s19 8.523 19 19-8.523 19-19 19-19-8.523-19-19zm-174.483 262.902c-22.341 0-40.517-18.176-40.517-40.517s18.176-40.517 40.517-40.517h14.125v81.033h-14.125zm350.84 55.749c0 15.991-13.01 29-29 29h-256.715c-15.991 0-29-13.009-29-29v-152.531c0-38.047 30.953-69 69-69h176.715c38.047 0 69 30.953 69 69zm36.126-55.749h-14.126v-81.033h14.126c22.341 0 40.517 18.176 40.517 40.517s-18.176 40.516-40.517 40.516z"/><g fill="#0496FF"><path d="m326.542 297.256c-4.683-3.867-11.618-3.206-15.485 1.48-13.597 16.469-33.705 25.915-55.168 25.915-21.345 0-41.383-9.361-54.975-25.682-3.887-4.668-10.823-5.302-15.492-1.414-4.668 3.887-5.301 10.823-1.414 15.492 17.784 21.356 43.983 33.604 71.88 33.604 28.051 0 54.343-12.359 72.133-33.909 3.869-4.685 3.206-11.618-1.479-15.486z"/><path d="m223.461 221.869c0-19.851-16.149-36-36-36s-36 16.149-36 36 16.149 36 36 36 36-16.15 36-36zm-50 0c0-7.72 6.28-14 14-14s14 6.28 14 14-6.28 14-14 14-14-6.281-14-14z"/><path d="m324.539 185.869c-19.851 0-36 16.149-36 36s16.149 36 36 36 36-16.149 36-36-16.149-36-36-36zm0 50c-7.72 0-14-6.28-14-14s6.28-14 14-14 14 6.28 14 14-6.28 14-14 14z"/><path d="m270.864 432.651h-29.729c-21.876 0-39.674 17.798-39.674 39.675 0 21.876 17.798 39.674 39.674 39.674h29.729c21.877 0 39.675-17.798 39.675-39.675 0-21.876-17.798-39.674-39.675-39.674zm0 57.349h-29.729c-9.746 0-17.674-7.929-17.674-17.675s7.929-17.674 17.674-17.674h29.729c9.746 0 17.675 7.929 17.675 17.675 0 9.745-7.929 17.674-17.675 17.674z"/></g></g><g/><g/><g/><g/><g/><g/><g/><g/><g/><g/><g/><g/><g/><g/><g/></svg>