<svg id="Capa_1" enable-background="new 0 0 512 512" viewBox="0 0 512 512" xmlns="http://www.w3.org/2000/svg" fill="#E6ECF2"><g><g fill="#0496FF"><path d="m505.211 225.101-12.005-4.975c-1.971-6.386-4.538-12.575-7.671-18.491l4.969-11.994c1.703-4.11.763-8.841-2.383-11.988l-23.381-23.387c-3.146-3.146-7.877-4.089-11.987-2.386l-12.016 4.975c-5.918-3.131-12.106-5.695-18.494-7.663l-4.963-11.987c-1.702-4.11-5.712-6.791-10.162-6.792l-33.071-.004h-.001c-4.448 0-8.459 2.68-10.162 6.79l-4.975 12.005c-6.387 1.97-12.574 4.537-18.491 7.671l-11.994-4.969c-4.11-1.703-8.841-.762-11.988 2.383l-23.387 23.381c-3.147 3.146-4.088 7.877-2.386 11.988l4.976 12.017c-1.861 3.519-3.529 7.145-4.98 10.833l20.471 8.058c1.698-4.313 3.769-8.523 6.156-12.511 1.787-2.986 2.056-6.642.724-9.857l-4.209-10.165 12.992-12.988 10.147 4.204c3.216 1.333 6.875 1.064 9.863-.726 7.148-4.281 14.854-7.478 22.905-9.502 3.375-.848 6.148-3.243 7.48-6.458l4.207-10.152 18.371.002 4.198 10.138c1.332 3.217 4.108 5.613 7.486 6.461 8.052 2.021 15.76 5.214 22.908 9.491 2.985 1.786 6.64 2.055 9.856.724l10.165-4.208 12.988 12.992-4.204 10.147c-1.333 3.217-1.064 6.875.726 9.863 4.28 7.147 7.478 14.853 9.502 22.905.848 3.375 3.243 6.148 6.457 7.48l10.152 4.207-.003 18.371-10.138 4.198c-3.217 1.332-5.613 4.108-6.461 7.486-2.021 8.053-5.214 15.76-9.491 22.908-1.787 2.986-2.056 6.642-.724 9.857l4.209 10.165-12.992 12.988-10.147-4.204c-3.218-1.333-6.875-1.064-9.863.726-7.148 4.281-14.854 7.478-22.905 9.502-3.375.848-6.148 3.243-7.48 6.458l-4.207 10.152-18.371-.003-4.198-10.138c-1.332-3.217-4.108-5.613-7.485-6.46-5.485-1.377-10.854-3.314-15.959-5.758l-9.501 19.843c4.732 2.266 9.646 4.186 14.665 5.733l4.964 11.988c1.702 4.11 5.712 6.791 10.162 6.792l33.071.005h.001c4.448 0 8.459-2.68 10.162-6.79l4.975-12.005c6.387-1.97 12.574-4.537 18.491-7.671l11.994 4.969c4.11 1.703 8.841.762 11.988-2.383l23.387-23.381c3.147-3.146 4.088-7.877 2.386-11.988l-4.976-12.016c3.131-5.917 5.696-12.106 7.663-18.494l11.987-4.963c4.11-1.702 6.791-5.712 6.792-10.162l.004-33.073c0-4.45-2.679-8.461-6.789-10.164z"/><path d="m357.016 251.813c0-18.516 15.064-33.58 33.58-33.58s33.58 15.064 33.58 33.58-15.064 33.58-33.58 33.58c-3.766 0-7.458-.616-10.973-1.831l-7.185 20.794c5.832 2.015 11.941 3.037 18.158 3.037 30.647 0 55.58-24.933 55.58-55.58 0-30.646-24.933-55.58-55.58-55.58-30.646 0-55.58 24.933-55.58 55.58 0 5.39.772 10.723 2.296 15.852l21.089-6.265c-.919-3.093-1.385-6.319-1.385-9.587z"/><path d="m248.359 324.952c-4.686-3.868-11.619-3.205-15.486 1.48-9.62 11.652-23.849 18.335-39.039 18.335-15.106 0-29.286-6.623-38.903-18.171-3.888-4.669-10.824-5.301-15.492-1.414-4.668 3.888-5.301 10.824-1.414 15.492 13.809 16.583 34.15 26.093 55.808 26.093 21.778 0 42.191-9.597 56.005-26.33 3.869-4.684 3.206-11.617-1.479-15.485z"/><path d="m175.746 270.817c0-18.196-14.804-33-33-33s-33 14.804-33 33 14.804 33 33 33 33-14.803 33-33zm-44 0c0-6.065 4.935-11 11-11s11 4.935 11 11-4.935 11-11 11-11-4.934-11-11z"/><path d="m245.089 237.817c-18.196 0-33 14.804-33 33s14.804 33 33 33 33-14.804 33-33-14.803-33-33-33zm0 44c-6.065 0-11-4.935-11-11s4.935-11 11-11 11 4.935 11 11-4.934 11-11 11z"/></g><path d="m338.373 252.351h-8.187c-3.864-35.527-34.034-63.274-70.572-63.274h-54.696v-26.701c13.026-4.558 22.398-16.966 22.398-31.528 0-18.416-14.982-33.398-33.398-33.398s-33.398 14.982-33.398 33.398c0 14.562 9.372 26.97 22.398 31.528v26.701h-54.697c-36.538 0-66.708 27.747-70.572 63.274h-8.187c-27.273 0-49.462 22.189-49.462 49.463 0 27.273 22.189 49.462 49.462 49.462h7.759v22.274c0 22.607 18.393 41 41 41h191.393c22.607 0 41-18.393 41-41v-22.274h7.759c27.274 0 49.463-22.189 49.463-49.463 0-27.273-22.189-49.462-49.463-49.462zm-144.455-132.901c6.285 0 11.398 5.113 11.398 11.398s-5.113 11.398-11.398 11.398-11.398-5.113-11.398-11.398 5.113-11.398 11.398-11.398zm-144.456 209.826c-15.142 0-27.462-12.319-27.462-27.463 0-15.143 12.32-27.462 27.462-27.462h7.759v54.925zm259.152 44.274c0 10.477-8.523 19-19 19h-191.393c-10.477 0-19-8.523-19-19v-113.473c0-27.019 21.981-49 49-49h131.393c27.019 0 49 21.981 49 49zm29.759-44.274h-7.759v-54.925h7.759c15.143 0 27.463 12.32 27.463 27.463s-12.32 27.462-27.463 27.462z"/></g><g/><g/><g/><g/><g/><g/><g/><g/><g/><g/><g/><g/><g/><g/><g/></svg>