<svg id="Capa_1" enable-background="new 0 0 512 512" viewBox="0 0 512 512" xmlns="http://www.w3.org/2000/svg" fill="#052438"><g><g><path d="m421.646 96.052c10.859-10.137 17.667-24.561 17.667-40.553 0-30.602-24.897-55.499-55.499-55.499s-55.499 24.897-55.499 55.499c0 15.992 6.808 30.416 17.667 40.553-39.259 15.216-67.171 53.382-67.171 97.949v12.714c0 6.075 4.925 11 11 11h188.006c6.075 0 11-4.925 11-11v-12.714c0-44.567-27.912-82.733-67.171-97.949zm-71.331-40.553c0-18.471 15.028-33.499 33.499-33.499s33.499 15.028 33.499 33.499-15.028 33.499-33.499 33.499-33.499-15.028-33.499-33.499zm116.502 140.216h-166.006v-1.714c0-45.768 37.235-83.003 83.003-83.003s83.003 37.235 83.003 83.003z"/><path d="m253.968 134.526 17.891-17.891c4.295-4.296 4.295-11.261 0-15.557l-17.891-17.891v-42.187c0-22.607-18.393-41-41-41h-148.785c-22.607 0-41 18.393-41 41v135.715c0 22.607 18.393 41 41 41h148.785c22.607 0 41-18.393 41-41zm-18.779-12.334c-2.062 2.063-3.222 4.861-3.222 7.778v46.745c0 10.477-8.523 19-19 19h-148.784c-10.477 0-19-8.523-19-19v-135.715c0-10.477 8.523-19 19-19h148.785c10.477 0 19 8.523 19 19v46.745c0 2.917 1.159 5.715 3.222 7.778l13.335 13.334z"/><path d="m447.817 327.412h-134.426c-22.607 0-41 18.393-41 41v24.324l-17.891 17.89c-4.295 4.296-4.295 11.261 0 15.557l17.891 17.891v26.926c0 22.607 18.393 41 41 41h134.426c22.607 0 41-18.393 41-41v-102.588c0-22.608-18.393-41-41-41zm19 143.588c0 10.477-8.523 19-19 19h-134.426c-10.477 0-19-8.523-19-19v-31.482c0-2.917-1.159-5.715-3.222-7.778l-13.335-13.334 13.335-13.334c2.062-2.063 3.222-4.861 3.222-7.778v-28.88c0-10.477 8.523-19 19-19h134.426c10.477 0 19 8.523 19 19z"/><path d="m178.278 324.81h-41.048v-24.097c12.803-4.541 22-16.768 22-31.108 0-18.196-14.804-33-33-33s-33 14.804-33 33c0 14.34 9.197 26.567 22 31.108v24.097h-41.047c-28.122 0-51 22.878-51 51v85.19c0 28.122 22.878 51 51 51h104.095c28.122 0 51-22.878 51-51v-85.19c0-28.122-22.879-51-51-51zm-52.048-66.205c6.065 0 11 4.935 11 11s-4.935 11-11 11-11-4.935-11-11 4.935-11 11-11zm81.048 202.395c0 15.991-13.009 29-29 29h-104.095c-15.991 0-29-13.009-29-29v-85.19c0-15.991 13.009-29 29-29h104.095c15.991 0 29 13.009 29 29z"/></g><g fill="#0496FF"><path d="m138.575 44c-20.875 0-37.857 16.983-37.857 37.857 0 6.075 4.925 11 11 11s11-4.925 11-11c0-8.744 7.114-15.857 15.857-15.857s15.857 7.114 15.857 15.857-7.114 15.857-15.857 15.857c-6.075 0-11 4.925-11 11v20c0 6.075 4.925 11 11 11s11-4.925 11-11v-10.629c15.528-4.723 26.857-19.177 26.857-36.228.001-20.874-16.982-37.857-37.857-37.857z"/><path d="m129.43 168.82c4.013 6.437 14.278 6.438 18.29 0 5.445-7.994-1.82-18.871-11.29-16.89-7.484 1.255-11.399 10.711-7 16.89z"/><path d="m167.616 423.839c-4.686-3.868-11.619-3.205-15.486 1.48-6.395 7.747-15.857 12.189-25.96 12.189-10.047 0-19.476-4.403-25.869-12.08-3.888-4.669-10.824-5.3-15.492-1.414-4.668 3.888-5.301 10.824-1.414 15.492 10.585 12.711 26.176 20.001 42.774 20.001 16.69 0 32.336-7.356 42.926-20.184 3.868-4.683 3.206-11.616-1.479-15.484z"/><path d="m83.04 396.08c6.166 4.413 15.636.48 16.89-6.99 1.968-9.48-8.877-16.737-16.89-11.299-6.436 4.009-6.453 14.285 0 18.289z"/><path d="m173.48 382.73c-2.697-7.095-12.731-9.09-17.94-3.57-6.897 6.805-1.908 18.844 7.78 18.78 7.583.211 13.272-8.282 10.16-15.21z"/><path d="m390.742 414.169c-2.697-7.095-12.731-9.09-17.94-3.57-6.897 6.805-1.908 18.844 7.78 18.78 7.584.211 13.273-8.282 10.16-15.21z"/><path d="m346.742 414.169c-2.697-7.095-12.731-9.09-17.94-3.57-6.897 6.805-1.908 18.844 7.78 18.78 7.584.211 13.273-8.282 10.16-15.21z"/><path d="m434.742 414.169c-2.697-7.095-12.731-9.09-17.94-3.57-6.897 6.805-1.908 18.844 7.78 18.78 7.584.211 13.273-8.282 10.16-15.21z"/></g></g><g/><g/><g/><g/><g/><g/><g/><g/><g/><g/><g/><g/><g/><g/><g/></svg>