<svg id="Capa_1" enable-background="new 0 0 512 512" viewBox="0 0 512 512" xmlns="http://www.w3.org/2000/svg" fill="#E6ECF2"><g><g><path d="m400.456 349.801h-8.187c-3.864-35.527-34.034-63.274-70.572-63.274h-54.697v-26.702c13.026-4.558 22.398-16.966 22.398-31.528 0-18.416-14.982-33.398-33.398-33.398s-33.398 14.982-33.398 33.398c0 14.562 9.372 26.97 22.398 31.528v26.702h-54.696c-36.538 0-66.708 27.747-70.572 63.274h-8.187c-27.273 0-49.462 22.189-49.462 49.462s22.189 49.462 49.462 49.462h7.759v22.275c0 22.607 18.393 41 41 41h191.393c22.607 0 41-18.393 41-41v-22.274h7.759c27.273 0 49.462-22.189 49.462-49.462s-22.189-49.463-49.462-49.463zm-144.456-132.901c6.285 0 11.398 5.113 11.398 11.398s-5.113 11.398-11.398 11.398-11.398-5.113-11.398-11.398 5.113-11.398 11.398-11.398zm-144.456 209.826c-15.143 0-27.462-12.32-27.462-27.462s12.319-27.462 27.462-27.462h7.759v54.925h-7.759zm259.152 44.274c0 10.477-8.523 19-19 19h-191.392c-10.477 0-19-8.523-19-19v-113.473c0-27.019 21.981-49 49-49h131.393c27.019 0 49 21.981 49 49v113.473zm29.76-44.274h-7.759v-54.925h7.759c15.143 0 27.462 12.32 27.462 27.462s-12.319 27.463-27.462 27.463z"/><path d="m471 0h-93.785c-22.607 0-41 18.393-41 41v21.443l-14.437-14.437c-3.146-3.146-7.877-4.086-11.988-2.384-4.11 1.703-6.79 5.714-6.79 10.163v10.215h-61c-6.075 0-11 4.925-11 11v33h-22v-10.215c0-4.449-2.68-8.46-6.791-10.163-4.111-1.704-8.842-.761-11.988 2.384l-14.437 14.437v-21.443c0-22.607-18.393-41-41-41h-93.784c-22.607 0-41 18.393-41 41v116c0 22.607 18.393 41 41 41h21.224l17.891 17.891c2.148 2.148 4.963 3.222 7.778 3.222s5.63-1.074 7.778-3.222l17.891-17.891h21.224c22.607 0 41-18.393 41-41v-21.443l14.437 14.437c3.156 3.162 7.918 4.078 11.988 2.384 4.11-1.703 6.791-5.713 6.791-10.163v-10.215h61c6.075 0 11-4.925 11-11v-33h22v10.215c0 4.449 2.68 8.46 6.791 10.163 4.069 1.694 8.832.777 11.988-2.384l14.437-14.437v21.443c0 22.607 18.393 41 41 41h21.224l17.891 17.891c2.148 2.148 4.963 3.222 7.778 3.222s5.63-1.074 7.778-3.222l17.887-17.891h21.224c22.607 0 41-18.393 41-41v-116c0-22.607-18.393-41-41-41zm-317.215 201c0 10.477-8.523 19-19 19h-25.78c-2.917 0-5.715 1.159-7.778 3.222l-13.334 13.335-13.334-13.335c-2.064-2.063-4.862-3.222-7.779-3.222h-25.78c-10.477 0-19-8.523-19-19v-116c0-10.477 8.523-19 19-19h93.785c10.477 0 19 8.523 19 19v43.443l-6.778 6.778c-4.295 4.296-4.295 11.261 0 15.557l6.778 6.778zm105.215-47h-61c-4.504 0-8.375 2.707-10.077 6.582l-17.582-17.582 17.582-17.582c1.702 3.875 5.573 6.582 10.077 6.582h61zm55-44h-61v-22h61c4.504 0 8.375-2.707 10.077-6.582l17.582 17.582-17.582 17.582c-1.702-3.875-5.573-6.582-10.077-6.582zm176 47c0 10.477-8.523 19-19 19h-25.78c-2.917 0-5.715 1.159-7.778 3.222l-13.334 13.335-13.334-13.335c-2.063-2.063-4.861-3.222-7.778-3.222h-25.78c-10.477 0-19-8.523-19-19v-43.443l6.778-6.778c4.295-4.296 4.295-11.261 0-15.557l-6.778-6.778v-43.444c0-10.477 8.523-19 19-19h93.784c10.477 0 19 8.523 19 19z"/></g><g fill="#0496FF"><path d="m310.441 422.402c-4.686-3.868-11.618-3.205-15.486 1.48-9.62 11.652-23.849 18.335-39.039 18.335-15.106 0-29.286-6.623-38.902-18.17-3.888-4.669-10.824-5.301-15.492-1.414-4.668 3.888-5.301 10.824-1.414 15.492 13.809 16.582 34.15 26.092 55.808 26.092 21.778 0 42.191-9.597 56.005-26.33 3.868-4.684 3.205-11.617-1.48-15.485z"/><path d="m237.828 368.267c0-18.196-14.804-33-33-33s-33 14.804-33 33 14.804 33 33 33 33-14.804 33-33zm-44 0c0-6.065 4.935-11 11-11s11 4.935 11 11-4.935 11-11 11-11-4.934-11-11z"/><path d="m307.172 335.267c-18.196 0-33 14.804-33 33s14.804 33 33 33 33-14.804 33-33-14.804-33-33-33zm0 44c-6.065 0-11-4.935-11-11s4.935-11 11-11 11 4.935 11 11-4.935 11-11 11z"/><path d="m88.785 88c-18.196 0-33 14.804-33 33v66c0 6.075 4.925 11 11 11s11-4.925 11-11v-33h22v33c0 6.075 4.925 11 11 11s11-4.925 11-11v-66c0-18.196-14.804-33-33-33zm-11 44v-11c0-6.065 4.935-11 11-11s11 4.935 11 11v11z"/><path d="m459.263 127.655c-13.376-17.893-21.573-39.449-23.627-61.655h21.364c6.075 0 11-4.925 11-11s-4.925-11-11-11h-65.785c-6.075 0-11 4.925-11 11s4.925 11 11 11h21.364c-2.054 22.206-10.251 43.762-23.627 61.655l-6.547 8.759c-3.637 4.866-2.641 11.759 2.225 15.396 1.976 1.477 4.286 2.19 6.578 2.19 3.35 0 6.659-1.525 8.819-4.415l6.547-8.758c7.121-9.526 12.998-19.933 17.534-30.891 4.537 10.957 10.413 21.364 17.534 30.89l6.547 8.759c2.161 2.89 5.469 4.415 8.819 4.415 2.291 0 4.602-.713 6.578-2.19 4.866-3.637 5.862-10.531 2.225-15.396z"/></g></g><g/><g/><g/><g/><g/><g/><g/><g/><g/><g/><g/><g/><g/><g/><g/></svg>