<svg id="Capa_1" enable-background="new 0 0 512.225 512.225" viewBox="0 0 512.225 512.225" xmlns="http://www.w3.org/2000/svg" fill="#E6ECF2"><g><path d="m433.855 145.511h-92.832v22h92.832c7.61 0 13.802 6.191 13.802 13.801v176.886h-383.089v-176.886c0-7.61 6.191-13.801 13.801-13.801h92.833v-22h-92.833c-19.741 0-35.801 16.061-35.801 35.801v207.084c0 19.741 16.061 35.801 35.801 35.801h135.875l-4.613 22.027h-32.234c-22.607 0-41 18.393-41 41v14c0 6.075 4.925 11 11 11h217.432c6.075 0 11-4.925 11-11v-14c0-22.607-18.393-41-41-41h-32.234l-4.614-22.027h135.875c19.741 0 35.802-16.061 35.802-35.801v-207.084c-.001-19.741-16.061-35.801-35.803-35.801zm-80.027 341.714v3h-195.432v-3c0-10.477 8.523-19 19-19h157.432c10.477 0 19 8.524 19 19zm-121.72-41 4.608-22h38.793l4.607 22zm201.747-44.027h-355.486c-7.61 0-13.801-6.191-13.801-13.801v-8.199h383.089v8.199c0 7.609-6.191 13.801-13.802 13.801z"/><g fill="#0496FF"><path d="m281.988 178.486c-4.705-3.848-11.633-3.153-15.479 1.548-2.573 3.145-6.375 4.949-10.43 4.949-4.033 0-7.821-1.788-10.393-4.904-3.868-4.685-10.799-5.35-15.486-1.482-4.685 3.867-5.349 10.8-1.482 15.486 6.766 8.198 16.739 12.9 27.361 12.9 10.681 0 20.688-4.745 27.457-13.018 3.847-4.701 3.153-11.632-1.548-15.479z"/><path d="m234.352 149.105c5.434-8.017-1.806-18.836-11.3-16.89-7.478 1.255-11.389 10.712-7 16.89 4.037 6.443 14.264 6.444 18.3 0z"/><path d="m297.182 138.795c-2.697-7.102-12.731-9.094-17.94-3.57-6.9 6.803-1.9 18.838 7.781 18.779 7.574.211 13.274-8.285 10.159-15.209z"/><path d="m301.023 88h-33.911v-23.892c12.803-4.541 22-16.768 22-31.108 0-18.196-14.804-33-33-33s-33 14.804-33 33c0 14.34 9.197 26.567 22 31.108v23.892h-33.911c-28.122 0-51 22.878-51 51v60.983c0 28.122 22.878 51 51 51h19.242l17.891 17.891c2.148 2.148 4.963 3.222 7.778 3.222s5.63-1.074 7.778-3.222l17.891-17.891h19.242c28.121 0 51-22.878 51-51v-60.983c0-28.122-22.878-51-51-51zm-44.911-66c6.065 0 11 4.935 11 11s-4.935 11-11 11-11-4.935-11-11 4.935-11 11-11zm73.911 177.983c0 15.991-13.01 29-29 29h-23.799c-2.917 0-5.715 1.159-7.778 3.222l-13.334 13.334-13.334-13.334c-2.063-2.063-4.861-3.222-7.778-3.222h-23.798c-15.991 0-29-13.009-29-29v-60.983c0-15.991 13.009-29 29-29h89.822c15.99 0 29 13.009 29 29v60.983z"/></g></g><g/><g/><g/><g/><g/><g/><g/><g/><g/><g/><g/><g/><g/><g/><g/></svg>