<svg id="Capa_1" enable-background="new 0 0 512 512" viewBox="0 0 512 512" xmlns="http://www.w3.org/2000/svg" fill="#052438"><g><g fill="#0496FF"><path d="m248.359 368.213c-4.683-3.867-11.617-3.206-15.485 1.48-9.62 11.653-23.85 18.336-39.039 18.336-15.106 0-29.286-6.623-38.902-18.171-3.888-4.669-10.824-5.301-15.492-1.414-4.668 3.888-5.302 10.824-1.414 15.492 13.809 16.583 34.15 26.093 55.809 26.093 21.777 0 42.19-9.597 56.004-26.33 3.867-4.684 3.204-11.618-1.481-15.486z"/><path d="m175.746 314.079c0-18.196-14.804-33-33-33s-33 14.804-33 33 14.804 33 33 33 33-14.804 33-33zm-44 0c0-6.065 4.935-11 11-11s11 4.935 11 11-4.935 11-11 11-11-4.935-11-11z"/><path d="m245.09 281.079c-18.196 0-33 14.804-33 33s14.804 33 33 33 33-14.804 33-33-14.804-33-33-33zm0 44c-6.065 0-11-4.935-11-11s4.935-11 11-11 11 4.935 11 11-4.935 11-11 11z"/><path d="m391.799 49.289c-42.018 0-76.201 34.184-76.201 76.201s34.184 76.201 76.201 76.201 76.201-34.184 76.201-76.201-34.184-76.201-76.201-76.201zm0 130.402c-29.887 0-54.201-24.314-54.201-54.201s24.314-54.201 54.201-54.201 54.201 24.314 54.201 54.201-24.314 54.201-54.201 54.201z"/></g><path d="m512 125.49c0-66.28-53.922-120.201-120.201-120.201s-120.201 53.921-120.201 120.201c0 62.571 48.059 114.119 109.201 119.693v30.458h-14.975c-6.075 0-11 4.925-11 11v11.796c-5.15-1.822-10.685-2.824-16.451-2.824h-8.187c-3.864-35.527-34.034-63.274-70.572-63.274h-54.696v-26.701c13.026-4.558 22.398-16.966 22.398-31.528 0-18.416-14.982-33.398-33.398-33.398s-33.398 14.982-33.398 33.398c0 14.562 9.372 26.97 22.398 31.528v26.701h-54.696c-36.538 0-66.708 27.747-70.572 63.274h-8.187c-27.275 0-49.463 22.189-49.463 49.462 0 27.274 22.188 49.463 49.463 49.463h7.759v22.273c0 22.607 18.393 41 41 41h191.393c22.607 0 41-18.393 41-41v-22.273h7.759c5.766 0 11.301-1.002 16.451-2.824v79.212c0 19.732 16.053 35.785 35.785 35.785h2.379c19.732 0 35.785-16.053 35.785-35.785v-184.286c0-6.075-4.925-11-11-11h-14.975v-30.458c61.142-5.573 109.201-57.122 109.201-119.692zm-318.082 37.221c6.285 0 11.398 5.113 11.398 11.398s-5.113 11.398-11.398 11.398-11.398-5.113-11.398-11.398c0-6.284 5.113-11.398 11.398-11.398zm-144.455 209.827c-15.144 0-27.463-12.32-27.463-27.463s12.319-27.462 27.463-27.462h7.759v54.925zm259.151 44.274c0 10.477-8.523 19-19 19h-191.392c-10.477 0-19-8.523-19-19v-113.473c0-27.019 21.981-49 49-49h131.393c27.019 0 49 21.981 49 49v113.473zm22-44.274v-54.925h7.759c15.144 0 27.463 12.32 27.463 27.462 0 15.143-12.319 27.463-27.463 27.463zm76.159 98.388c0 7.601-6.184 13.785-13.785 13.785h-2.379c-7.602 0-13.785-6.184-13.785-13.785v-94.784c6.879-8.498 11.012-19.307 11.012-31.067s-4.132-22.568-11.012-31.066v-16.369h29.949zm-113.175-345.436c0-54.148 44.053-98.201 98.201-98.201s98.201 44.052 98.201 98.201-44.053 98.201-98.201 98.201-98.201-44.053-98.201-98.201z"/></g><g/><g/><g/><g/><g/><g/><g/><g/><g/><g/><g/><g/><g/><g/><g/></svg>