<svg id="Capa_1" enable-background="new 0 0 512 512" viewBox="0 0 512 512" xmlns="http://www.w3.org/2000/svg" fill="#E6ECF2"><g><g fill="#0496FF"><path d="m281.875 178.486c-4.702-3.847-11.631-3.154-15.479 1.548-2.573 3.145-6.375 4.949-10.43 4.949-4.033 0-7.821-1.788-10.393-4.904-3.868-4.685-10.8-5.35-15.486-1.482-4.685 3.867-5.349 10.8-1.482 15.486 6.766 8.198 16.739 12.9 27.361 12.9 10.681 0 20.688-4.745 27.457-13.018 3.848-4.701 3.155-11.632-1.548-15.479z"/><path d="m229.3 153.16c7.1-2.697 9.085-12.729 3.57-17.94-6.806-6.895-18.845-1.909-18.779 7.781-.217 7.585 8.28 13.271 15.209 10.159z"/><path d="m297.07 138.79c-2.691-7.1-12.733-9.081-17.94-3.57-6.889 6.804-1.909 18.854 7.78 18.78 7.581.225 13.28-8.287 10.16-15.21z"/><path d="m300.911 88h-33.911v-23.892c12.803-4.541 22-16.768 22-31.108 0-18.196-14.804-33-33-33s-33 14.804-33 33c0 14.34 9.197 26.567 22 31.108v23.892h-33.911c-28.122 0-51 22.878-51 51v60.983c0 28.122 22.878 51 51 51h19.242l17.891 17.891c2.148 2.148 4.963 3.222 7.778 3.222s5.63-1.074 7.778-3.222l17.891-17.891h19.242c28.122 0 51-22.878 51-51v-60.983c0-28.122-22.879-51-51-51zm-44.911-66c6.065 0 11 4.935 11 11s-4.935 11-11 11-11-4.935-11-11 4.935-11 11-11zm73.911 177.983c0 15.991-13.009 29-29 29h-23.798c-2.917 0-5.715 1.159-7.778 3.222l-13.335 13.335-13.334-13.334c-2.063-2.063-4.861-3.222-7.778-3.222h-23.798c-15.991 0-29-13.009-29-29v-60.984c0-15.991 13.009-29 29-29h89.821c15.991 0 29 13.009 29 29z"/></g><g><path d="m358.458 360.967-29.701-63.987c-1.803-3.884-5.696-6.369-9.978-6.369h-125.558c-4.282 0-8.175 2.485-9.978 6.369l-29.701 63.987c-18.8 3.725-33.019 20.338-33.019 40.214v55.879c0 6.075 4.925 11 11 11h2.168v12.94c0 17.093 13.907 31 31 31h7.94c17.093 0 31-13.907 31-31v-12.939h104.738v12.939c0 17.093 13.907 31 31 31h7.94c17.093 0 31-13.907 31-31v-12.939h2.168c6.075 0 11-4.925 11-11v-55.879c0-19.877-14.22-36.49-33.019-40.215zm-158.215-48.355h111.515l22.081 47.569h-155.677zm-57.72 88.57c0-10.477 8.523-19 19-19h188.954c10.477 0 19 8.523 19 19v44.879h-226.954zm39.108 79.818c0 4.962-4.038 9-9 9h-7.94c-4.962 0-9-4.038-9-9v-12.939h25.94zm174.678 0c0 4.962-4.038 9-9 9h-7.94c-4.962 0-9-4.038-9-9v-12.939h25.94z"/><path d="m230.195 425.121h53.113c6.075 0 11-4.925 11-11s-4.925-11-11-11h-53.113c-6.075 0-11 4.925-11 11s4.925 11 11 11z"/><path d="m175.37 418.33c2.674 7.098 12.732 9.088 17.93 3.57 6.198-5.994 2.864-17.028-5.63-18.56-8.357-1.893-15.797 7.165-12.3 14.99z"/><path d="m316.32 418.33c2.691 7.102 12.726 9.086 17.94 3.57 6.178-6.009 2.865-17.014-5.63-18.56-8.421-1.846-15.762 7.085-12.31 14.99z"/></g></g><g/><g/><g/><g/><g/><g/><g/><g/><g/><g/><g/><g/><g/><g/><g/></svg>