<svg id="Capa_1" enable-background="new 0 0 512 512" viewBox="0 0 512 512" xmlns="http://www.w3.org/2000/svg" fill="#E6ECF2"><g><g><path d="m44.84 91.16c2.694 7.101 12.731 9.089 17.94 3.57 6.186-6.007 2.86-17.018-5.63-18.56-8.422-1.842-15.75 7.08-12.31 14.99z"/><path d="m88.84 91.16c2.694 7.101 12.732 9.087 17.94 3.57 6.186-6.007 2.86-17.018-5.63-18.56-8.422-1.842-15.75 7.08-12.31 14.99z"/><path d="m132.84 91.16c2.691 7.101 12.733 9.088 17.94 3.57 6.194-5.993 2.859-17.031-5.63-18.56-8.425-1.845-15.749 7.08-12.31 14.99z"/><path d="m368.229 97.952h88.771c6.075 0 11-4.925 11-11s-4.925-11-11-11h-88.771c-6.075 0-11 4.925-11 11s4.925 11 11 11z"/><path d="m461 31.952h-410c-28.122 0-51 22.878-51 51v346.096c0 28.122 22.878 51 51 51h410c28.122 0 51-22.878 51-51v-346.096c0-28.121-22.878-51-51-51zm-410 22h410c15.991 0 29 13.009 29 29v37h-468v-37c0-15.991 13.009-29 29-29zm410 404.096h-410c-15.991 0-29-13.009-29-29v-287.096h468v287.096c0 15.991-13.009 29-29 29z"/></g><g fill="#0496FF"><path d="m281.875 342.438c-4.701-3.847-11.631-3.155-15.479 1.548-2.573 3.145-6.375 4.948-10.43 4.948-4.033 0-7.821-1.787-10.393-4.904-3.868-4.685-10.8-5.35-15.486-1.482-4.685 3.867-5.349 10.8-1.482 15.486 6.766 8.198 16.739 12.9 27.361 12.9 10.681 0 20.688-4.745 27.457-13.018 3.848-4.7 3.155-11.63-1.548-15.478z"/><path d="m229.3 317.11c7.101-2.69 9.078-12.73 3.57-17.94-6.807-6.885-18.848-1.908-18.779 7.78-.225 7.583 8.287 13.283 15.209 10.16z"/><path d="m297.07 302.75c-2.689-7.112-12.723-9.086-17.94-3.58-6.886 6.802-1.911 18.857 7.78 18.779 7.578.229 13.274-8.278 10.16-15.199z"/><path d="m300.911 251.952h-33.911v-23.892c12.803-4.541 22-16.768 22-31.108 0-18.196-14.804-33-33-33s-33 14.804-33 33c0 14.34 9.197 26.567 22 31.108v23.892h-33.911c-28.122 0-51 22.878-51 51v60.983c0 28.122 22.878 51 51 51h19.242l17.891 17.891c2.148 2.148 4.963 3.222 7.778 3.222s5.63-1.074 7.778-3.222l17.891-17.891h19.242c28.122 0 51-22.878 51-51v-60.983c0-28.121-22.879-51-51-51zm-44.911-66c6.065 0 11 4.935 11 11s-4.935 11-11 11-11-4.935-11-11 4.935-11 11-11zm73.911 177.984c0 15.991-13.009 29-29 29h-23.798c-2.917 0-5.715 1.159-7.778 3.222l-13.335 13.334-13.334-13.334c-2.063-2.063-4.861-3.222-7.778-3.222h-23.798c-15.991 0-29-13.009-29-29v-60.983c0-15.991 13.009-29 29-29h89.821c15.991 0 29 13.009 29 29z"/></g></g><g/><g/><g/><g/><g/><g/><g/><g/><g/><g/><g/><g/><g/><g/><g/></svg>