<svg id="Capa_1" enable-background="new 0 0 512 512" viewBox="0 0 512 512" xmlns="http://www.w3.org/2000/svg" fill="#052438"><g><g><path d="m502.729 201.567-28.618-4.556c-5-18.69-12.386-36.613-22.03-53.458l16.975-23.366c3.179-4.376 2.705-10.415-1.119-14.241l-61.727-61.77c-3.823-3.826-9.86-4.304-14.239-1.129l-23.223 16.843c-16.888-9.757-34.877-17.241-53.651-22.318l-4.477-28.259c-.847-5.342-5.451-9.276-10.86-9.279l-87.325-.034c-.001 0-.003 0-.004 0-5.407 0-10.013 3.93-10.863 9.271l-4.499 28.257c-18.775 5.062-36.773 12.534-53.669 22.278l-23.213-16.862c-4.376-3.181-10.415-2.704-14.24 1.119l-61.77 61.727c-3.826 3.823-4.305 9.861-1.129 14.239l16.956 23.377c-9.655 16.835-17.055 34.755-22.069 53.439l-28.62 4.534c-5.342.847-9.276 5.451-9.279 10.86l-.036 87.326c-.002 5.409 3.928 10.017 9.271 10.868l28.897 4.601c5.05 18.534 12.447 36.301 22.059 52.987l-17.284 23.792c-3.179 4.376-2.705 10.415 1.119 14.241l61.728 61.771c3.823 3.827 9.861 4.305 14.239 1.129l23.958-17.377c16.623 9.52 34.313 16.846 52.758 21.849l4.636 29.261c.847 5.342 5.451 9.277 10.86 9.279l87.324.034h.004c5.407 0 10.013-3.93 10.863-9.271l4.658-29.259c18.449-4.989 36.146-12.302 52.776-21.81l23.946 17.396c4.378 3.18 10.415 2.705 14.241-1.119l61.77-61.728c3.826-3.823 4.305-9.861 1.129-14.239l-17.265-23.803c9.624-16.678 17.033-34.439 22.098-52.97l28.899-4.579c5.342-.847 9.276-5.451 9.279-10.86l.037-87.323c.002-5.409-3.929-10.017-9.271-10.868zm-12.761 88.794-26.767 4.241c-4.401.697-7.947 3.98-8.979 8.315-5.058 21.232-13.484 41.427-25.044 60.023-2.361 3.797-2.188 8.646.438 12.266l16.015 22.081-48.484 48.452-22.203-16.13c-3.607-2.62-8.438-2.805-12.234-.466-18.564 11.435-38.704 19.757-59.86 24.734-4.346 1.022-7.642 4.569-8.344 8.978l-4.321 27.142-68.543-.028-4.3-27.145c-.699-4.409-3.993-7.959-8.338-8.985-21.151-4.992-41.285-13.329-59.839-24.778-3.794-2.341-8.626-2.161-12.235.457l-22.214 16.112-48.452-48.485 16.033-22.069c2.628-3.618 2.805-8.466.447-12.266-11.547-18.606-19.958-38.808-24.999-60.043-1.029-4.335-4.572-7.622-8.973-8.323l-26.765-4.262.028-68.543 26.524-4.203c4.42-.7 7.976-4.009 8.992-8.367 4.982-21.376 13.384-41.724 24.97-60.479 2.344-3.794 2.165-8.629-.454-12.24l-15.697-21.637 48.484-48.451 21.495 15.614c3.619 2.629 8.469 2.805 12.271.444 18.803-11.684 39.219-20.159 60.682-25.19 4.349-1.02 7.65-4.568 8.353-8.98l4.163-26.146 68.544.028 4.143 26.148c.699 4.413 3.997 7.963 8.346 8.986 21.461 5.049 41.871 13.539 60.663 25.235 3.798 2.364 8.649 2.193 12.271-.435l21.504-15.597 48.451 48.484-15.711 21.626c-2.622 3.609-2.805 8.443-.463 12.239 11.573 18.765 19.958 39.12 24.925 60.5 1.013 4.359 4.565 7.67 8.985 8.374l26.522 4.223z"/><path d="m366.998 193.603c-9.021-13.763-24.119-21.895-40.214-22.246-6.367-15.446-21.579-26.35-39.295-26.35-12.474 0-23.708 5.405-31.488 13.993-7.78-8.589-19.014-13.993-31.488-13.993-17.716 0-32.928 10.903-39.295 26.349-16.095.35-31.194 8.484-40.214 22.246-10.998 16.779-10.584 38.146.121 54.272-7.33 9.512-11.396 21.253-11.396 33.457 0 24.666 16.625 46.095 39.756 52.711 6.319 19.114 24.342 32.95 45.547 32.95 14.86 0 28.163-6.793 36.969-17.436 8.806 10.643 22.108 17.436 36.969 17.436 21.205 0 39.228-13.836 45.547-32.95 23.131-6.616 39.756-28.045 39.756-52.711 0-12.204-4.066-23.945-11.396-33.457 10.704-16.125 11.118-37.493.121-54.271zm-121.998 22.263c0 9.658-7.857 17.516-17.516 17.516-6.075 0-11 4.925-11 11s4.925 11 11 11c6.288 0 12.233-1.483 17.516-4.107v67.75c0 14.319-11.649 25.969-25.969 25.969-14.319 0-25.968-11.649-25.968-25.969 0-7.452 3.209-14.554 8.804-19.487 4.557-4.018 4.994-10.969.977-15.526-4.017-4.556-10.968-4.993-15.525-.976-7.951 7.01-13.278 16.4-15.317 26.628-9.784-5.747-16.273-16.405-16.273-28.331 0-9.481 4.102-18.498 11.253-24.738 2.329-2.033 3.696-4.951 3.765-8.042s-1.165-6.068-3.4-8.203c-9.508-9.079-11.167-23.667-3.943-34.687 4.382-6.685 11.374-10.955 19.066-12.036.967 6.709 3.514 13.063 7.522 18.64 3.545 4.934 10.418 6.061 15.352 2.515 4.934-3.545 6.06-10.418 2.515-15.352-2.507-3.489-3.832-7.616-3.832-11.935 0-11.297 9.191-20.488 20.488-20.488s20.485 9.191 20.485 20.488zm94.999 93.797c-2.038-10.228-7.365-19.618-15.317-26.628-4.557-4.018-11.508-3.581-15.525.976-4.018 4.557-3.581 11.508.977 15.526 5.595 4.933 8.804 12.036 8.804 19.487 0 14.319-11.649 25.969-25.968 25.969s-25.969-11.649-25.969-25.969v-67.75c5.283 2.624 11.228 4.107 17.516 4.107 6.075 0 11-4.925 11-11s-4.925-11-11-11c-9.658 0-17.516-7.857-17.516-17.516v-28.371c0-11.297 9.191-20.488 20.488-20.488s20.488 9.191 20.488 20.488c0 4.319-1.325 8.446-3.832 11.935-3.545 4.934-2.419 11.807 2.515 15.352 4.934 3.546 11.808 2.419 15.352-2.515 4.007-5.577 6.555-11.932 7.522-18.64 7.692 1.081 14.684 5.35 19.066 12.036 7.223 11.02 5.564 25.607-3.944 34.687-2.236 2.135-3.47 5.112-3.4 8.203.069 3.09 1.436 6.009 3.765 8.042 7.152 6.24 11.253 15.257 11.253 24.738-.002 11.926-6.491 22.583-16.275 28.331z"/></g><g><path d="m256 428.188c-94.945 0-172.188-77.243-172.188-172.188s77.243-172.188 172.188-172.188 172.188 77.243 172.188 172.188-77.243 172.188-172.188 172.188zm0-322.376c-82.814 0-150.188 67.374-150.188 150.188s67.374 150.188 150.188 150.188 150.188-67.374 150.188-150.188-67.374-150.188-150.188-150.188z" fill="#0496FF"/></g></g><g/><g/><g/><g/><g/><g/><g/><g/><g/><g/><g/><g/><g/><g/><g/></svg>