<svg id="Capa_1" enable-background="new 0 0 512 512" viewBox="0 0 512 512" xmlns="http://www.w3.org/2000/svg" fill="#052438"><g><path d="m501 245h-11.26c-2.683-58.373-26.684-112.869-68.278-154.463s-96.089-65.594-154.462-68.277v-11.26c0-6.075-4.925-11-11-11s-11 4.925-11 11v11.26c-58.373 2.683-112.868 26.684-154.463 68.278-41.594 41.593-65.594 96.089-68.277 154.462h-11.26c-6.075 0-11 4.925-11 11s4.925 11 11 11h11.26c2.683 58.373 26.684 112.869 68.278 154.463s96.09 65.594 154.463 68.278v11.259c0 6.075 4.925 11 11 11s11-4.925 11-11v-11.26c58.373-2.683 112.868-26.684 154.463-68.278 41.594-41.594 65.594-96.09 68.278-154.463h11.258c6.075 0 11-4.925 11-11s-4.925-10.999-11-10.999zm-234 222.717v-10.717c0-6.075-4.925-11-11-11s-11 4.925-11 11v10.717c-108.162-5.556-195.161-92.556-200.717-200.717h10.717c6.075 0 11-4.925 11-11s-4.925-11-11-11h-10.717c5.556-108.161 92.555-195.161 200.717-200.717v10.717c0 6.075 4.925 11 11 11s11-4.925 11-11v-10.717c108.162 5.556 195.161 92.556 200.717 200.717h-10.717c-6.075 0-11 4.925-11 11s4.925 11 11 11h10.717c-5.556 108.161-92.555 195.161-200.717 200.717z" fill="#0496FF"/><path d="m422.792 291.467c0-17.192-6.116-33.691-17.057-46.658 15.794-21.399 17.012-50.844 1.992-73.759-12.372-18.874-33.465-29.672-55.657-29.159-7.532-21.458-27.984-36.891-51.984-36.891-18.01 0-34.029 8.689-44.086 22.095-10.057-13.406-26.076-22.095-44.086-22.095-24 0-44.451 15.433-51.985 36.891-22.191-.513-43.286 10.285-55.657 29.16-15.02 22.916-13.802 52.36 1.992 73.759-10.94 12.967-17.057 29.465-17.057 46.658 0 33.357 23.04 62.218 54.743 70.167 7.564 26.167 31.72 45.365 60.29 45.365 21.464 0 40.438-10.836 51.76-27.319 11.322 16.483 30.296 27.319 51.76 27.319 28.571 0 52.727-19.198 60.289-45.366 31.703-7.949 54.743-36.81 54.743-70.167zm-218.552 93.533c-22.475 0-40.76-18.285-40.76-40.76 0-8.883 2.911-17.446 8.156-24.445 5.254 2.665 11.078 4.078 17.016 4.078 2.389 0 4.797-.227 7.191-.691 5.964-1.154 9.863-6.926 8.709-12.89-1.155-5.963-6.92-9.868-12.891-8.708-5.123.994-10.388-.614-14.072-4.298-3.99-3.991-5.527-9.854-4.009-15.301 1.63-5.852-1.792-11.918-7.644-13.549-5.854-1.63-11.919 1.791-13.55 7.644-2.686 9.641-1.373 19.822 3.338 28.354-7.787 9.494-12.637 21.096-13.906 33.355-18.112-7.751-30.612-25.817-30.612-46.32 0-14.546 6.292-28.379 17.264-37.952 2.329-2.033 3.695-4.951 3.765-8.042.069-3.091-1.165-6.068-3.4-8.203-14.848-14.178-17.439-36.956-6.163-54.161 7.697-11.743 20.535-18.747 34.291-19.214.695 10.219 4.177 19.938 10.189 28.306 3.547 4.935 10.42 6.058 15.353 2.515 4.934-3.545 6.06-10.418 2.515-15.352-4.052-5.639-6.193-12.305-6.193-19.278 0-18.244 14.843-33.086 33.087-33.086s33.086 14.84 33.086 33.084v46.392c0 15.949-12.976 28.925-28.925 28.925-6.075 0-11 4.925-11 11s4.925 11 11 11c10.737 0 20.703-3.349 28.925-9.045v95.882c0 22.475-18.285 40.76-40.76 40.76zm165.94-47.213c-1.269-12.259-6.119-23.861-13.906-33.355 4.711-8.532 6.024-18.714 3.338-28.354-1.632-5.851-7.695-9.277-13.55-7.644-5.852 1.63-9.273 7.697-7.644 13.549 1.519 5.447-.019 11.31-4.009 15.301-3.685 3.685-8.946 5.29-14.072 4.299-5.964-1.155-11.735 2.745-12.891 8.708-1.154 5.964 2.745 11.736 8.709 12.89 2.395.464 4.802.691 7.19.691 5.938 0 11.762-1.413 17.017-4.078 5.245 6.999 8.156 15.562 8.156 24.446 0 22.475-18.285 40.76-40.76 40.76s-40.758-18.285-40.758-40.76v-95.882c8.222 5.696 18.188 9.045 28.925 9.045 6.075 0 11-4.925 11-11s-4.925-11-11-11c-15.949 0-28.925-12.976-28.925-28.925v-46.392c0-18.244 14.842-33.086 33.086-33.086s33.087 14.842 33.087 33.086c0 6.973-2.142 13.639-6.193 19.278-3.545 4.934-2.419 11.807 2.515 15.352 4.933 3.544 11.806 2.42 15.353-2.515 6.011-8.368 9.494-18.085 10.189-28.304 13.757.469 26.594 7.469 34.291 19.213 11.276 17.205 8.685 39.983-6.163 54.161-2.235 2.135-3.47 5.112-3.4 8.203.069 3.09 1.436 6.009 3.765 8.042 10.972 9.573 17.264 23.406 17.264 37.952-.002 20.503-12.502 38.568-30.614 46.319z"/></g><g/><g/><g/><g/><g/><g/><g/><g/><g/><g/><g/><g/><g/><g/><g/></svg>