<svg id="Capa_1" enable-background="new 0 0 512 512" viewBox="0 0 512 512" xmlns="http://www.w3.org/2000/svg" fill="#052438"><g><path d="m433.204 284.786h-90.677c-6.075 0-11 4.925-11 11 0 11.606-9.442 21.048-21.049 21.048-11.605 0-21.048-9.442-21.048-21.048 0-6.075-4.925-11-11-11h-48.54l-.074-24.909c18.412-4.882 32.021-21.69 32.021-41.617 0-19.921-13.603-36.725-32.007-41.613l.205-46.718c.013-2.926-1.141-5.736-3.205-7.81s-4.869-3.239-7.795-3.239c-29.415 0-57.551 12.914-76.815 34.913-15.78-4.458-32.898-1.483-46.358 8.436-9.184 6.768-15.896 16.256-19.293 26.969-17.434-.702-34.449 5.834-47.058 18.441-16.93 16.929-22.705 41.34-15.533 63.728-9.052 13.095-13.978 28.769-13.978 44.79 0 30.092 17.335 57.475 43.915 70.609-.431 21.13 10.952 40.958 30.084 51.137 15.942 8.482 34.612 8.822 50.618 1.332 12.001 10.88 27.557 16.976 43.883 16.976h29.594c14.174 0 26.88 7.894 33.159 20.602l14.358 29.061c1.854 3.752 5.677 6.127 9.862 6.127h38.13c6.075 0 11-4.925 11-11v-26.818c2.413.225 4.823.335 7.223.335 30.725-.001 59.73-18.143 72.402-47.474 4.182-9.677 6.377-20.137 6.464-30.628 15.309-8.727 28.004-21.043 36.981-35.95 10.969-18.211 16.53-39.973 16.53-64.68.001-6.076-4.924-11-10.999-11zm-388.137-61.59c9.939-9.94 24.084-14.084 37.845-11.086 3.075.671 6.289-.008 8.831-1.865 2.541-1.856 4.165-4.711 4.463-7.844.849-8.949 5.479-17.136 12.706-22.461 9.353-6.891 21.702-8.095 32.226-3.143 4.748 2.233 10.409.804 13.529-3.414 12.829-17.355 32.22-28.747 53.316-31.725l-.195 44.505c-.013 2.926 1.141 5.736 3.205 7.81s4.869 3.239 7.795 3.239c11.606 0 21.049 9.442 21.049 21.048s-9.442 21.048-21.049 21.048c-2.923 0-5.726 1.164-7.79 3.233-2.063 2.07-3.219 4.876-3.21 7.799l.103 34.444h-38.897c-4.873-18.426-21.688-32.048-41.625-32.048s-36.751 13.622-41.624 32.048h-54.271c1.061-1.599 2.194-3.153 3.42-4.643 2.632-3.199 3.243-7.605 1.581-11.4-6.836-15.612-3.463-33.49 8.592-45.545zm123.433 211.015c-12.889 0-25.077-5.757-33.439-15.796-3.64-4.369-10.009-5.245-14.691-2.019-10.741 7.397-24.551 8.195-36.037 2.083-13.342-7.098-20.527-21.858-17.881-36.73.937-5.265-2.049-10.441-7.075-12.267-22.356-8.118-37.377-29.548-37.377-53.325 0-3.154.271-6.288.789-9.371h72.532c6.075 0 11-4.925 11-11 0-11.606 9.442-21.048 21.048-21.048s21.049 9.442 21.049 21.048c0 6.075 4.925 11 11 11h48.473l-.074 24.893c-18.44 4.863-32.076 21.685-32.076 41.632 0 19.937 13.622 36.751 32.048 41.625v20.068c-3.167-.518-6.404-.793-9.694-.793zm206.161-54.211c-4.12 1.987-6.582 6.317-6.181 10.874.821 9.321-.717 18.811-4.447 27.444-11.223 25.976-40.222 39.768-67.442 32.087-3.318-.936-6.88-.263-9.626 1.816-2.747 2.08-4.361 5.326-4.361 8.771v29.008h-20.296l-11.332-22.934c-4.909-9.934-12.284-18.018-21.188-23.684v-38.023c0-6.075-4.925-11-11-11-11.605 0-21.048-9.442-21.048-21.048s9.442-21.049 21.048-21.049c6.062 0 10.981-4.905 11-10.967l.103-34.509h38.963c4.873 18.426 21.688 32.048 41.624 32.048s36.752-13.622 41.625-32.048h69.646c-2.878 34.069-19.343 59.837-47.088 73.214z"/><g><path d="m378.275 219.953c-19.937 0-36.752-13.622-41.625-32.048h-49.93c-6.062 0-10.982-4.905-11-10.967l-.135-45.477c-.009-2.923 1.146-5.729 3.21-7.799s4.867-3.233 7.79-3.233c11.605 0 21.048-9.442 21.048-21.048s-9.382-21.048-20.913-21.048c-6.075 0-11-4.925-11-11v-56.333c0-6.075 4.925-11 11-11 28.943 0 55.769 11.758 74.987 32.571 18.17-8.756 39.417-8.291 57.493 1.719 19.537 10.82 31.684 31.341 32.314 53.215 15.762 3.923 30.043 13.811 40.99 28.578 12.572 16.957 19.496 38.557 19.496 60.822 0 6.075-4.925 11-11 11h-81.101c-4.873 18.426-21.687 32.048-41.624 32.048zm-80.587-54.048h48.539c6.075 0 11 4.925 11 11 0 11.606 9.442 21.048 21.049 21.048 11.605 0 21.048-9.442 21.048-21.048 0-6.075 4.925-11 11-11h78.964c-4.061-31.162-24.987-56.303-50.114-58.181-3.047-.228-5.862-1.712-7.771-4.098s-2.738-5.458-2.292-8.48c2.47-16.707-5.796-33.428-20.568-41.609-13.682-7.577-30.17-6.73-43.029 2.21-4.834 3.361-11.458 2.32-15.028-2.364-12.969-17.017-31.79-27.842-52.765-30.653v35.034c18.35 4.885 31.913 21.691 31.913 41.615 0 19.927-13.607 36.734-32.02 41.617z" fill="#0496FF"/></g></g><g/><g/><g/><g/><g/><g/><g/><g/><g/><g/><g/><g/><g/><g/><g/></svg>