<svg id="Capa_1" enable-background="new 0 0 512.003 512.003" viewBox="0 0 512.003 512.003" xmlns="http://www.w3.org/2000/svg" fill="#052438"><g><g><path d="m467.552 305.842c0-36.122-18.909-68.684-49.868-86.798 2.151-24.215-9.773-47.613-31.334-60.062-14.395-8.311-31.192-10.598-47.299-6.441l5.498 21.302c10.489-2.708 21.429-1.219 30.801 4.192 15.674 9.05 23.531 26.979 19.549 44.613-1.126 4.988 1.334 10.094 5.937 12.323 27.582 13.354 44.716 40.511 44.716 70.871 0 24.686-11.259 47.344-30.162 62.15-5.447-21.973-19.677-41.539-40.506-53.129.627-9.939-1.831-19.804-7.206-28.424-3.215-5.156-10-6.729-15.154-3.515-5.155 3.214-6.729 9.999-3.515 15.154 3.701 5.936 4.869 12.957 3.289 19.771s-5.719 12.604-11.654 16.305c-5.155 3.214-6.729 9.999-3.515 15.154 2.085 3.345 5.674 5.182 9.345 5.182 1.987 0 3.999-.538 5.81-1.667 6.644-4.143 12.056-9.715 15.937-16.262 24.458 16.199 34.618 48.131 22.584 75.984-12.21 28.261-43.758 43.268-73.38 34.912-3.315-.938-6.878-.264-9.625 1.815-2.747 2.08-4.361 5.326-4.361 8.771v31.958h-30.959l-9.224-40.452c-4.421-19.39-21.398-32.932-41.286-32.932h-59.075c-12.665 0-24.628-5.013-33.685-14.115-8.788-8.832-13.595-20.373-13.534-32.496.076-15.333 7.722-29.622 20.452-38.222 5.034-3.401 6.358-10.238 2.957-15.272-3.4-5.034-10.238-6.359-15.272-2.957-17.156 11.59-28.039 30.199-29.86 50.588h-25.58c-25.57 0-46.373-20.803-46.373-46.373 0-15.427 7.646-29.802 20.453-38.454 4.977-3.362 6.337-10.095 3.055-15.125-10.261-15.729-8.054-36.799 5.247-50.099 9.701-9.701 23.503-13.729 36.926-10.777 3.273.72 6.691-.09 9.292-2.2 2.601-2.109 4.1-5.289 4.071-8.637-.136-15.928 11.095-29.907 26.705-33.24 18.196-3.885 36.159 7.758 40.045 25.953 1.268 5.941 7.112 9.73 13.054 8.46 5.941-1.269 9.729-7.113 8.46-13.054-1.252-5.861-3.398-11.304-6.248-16.232 13.498-18.502 34.52-30.414 57.473-32.263l-1.766-21.929c-27.763 2.236-53.307 15.982-70.591 37.47-12.442-9.302-28.67-13.413-45.02-9.921-21.673 4.627-38.235 21.69-42.832 42.651-16.744-.365-33 6.037-45.124 18.161-18.188 18.188-22.985 45.759-12.936 68.751-14.09 12.865-22.264 31.112-22.264 50.487 0 37.701 30.672 68.373 68.373 68.373h27.219c2.904 11.884 9.053 22.86 18.024 31.876 13.025 13.09 30.987 20.598 49.28 20.598h59.075c9.555 0 17.712 6.506 19.836 15.822l11.175 49.006c1.141 5.005 5.592 8.555 10.725 8.555h50.732c6.075 0 11-4.925 11-11v-29.69c2.863.297 5.722.444 8.567.443 32.673-.001 63.519-19.293 76.995-50.485 3.991-9.237 6.18-18.806 6.729-28.314 30.895-18.13 49.822-50.919 49.822-87.114z"/><path d="m212.526 377.562c2.148 2.148 4.963 3.222 7.778 3.222s5.63-1.074 7.778-3.222c18.788-18.788 18.788-49.357 0-68.146-4.296-4.296-11.261-4.296-15.557 0-4.295 4.296-4.295 11.261 0 15.557 10.21 10.21 10.21 26.822 0 37.032-4.294 4.296-4.294 11.261.001 15.557z"/><path d="m162.051 238.493c-10.21 10.211-26.822 10.21-37.033 0-4.296-4.296-11.26-4.295-15.556 0s-4.295 11.26 0 15.556c9.394 9.394 21.733 14.09 34.073 14.09s24.679-4.697 34.073-14.09c4.295-4.296 4.295-11.261 0-15.557-4.296-4.295-11.261-4.295-15.557.001z"/></g><g fill="#0496FF"><path d="m383.128 106.271h-35.855l18.359-57.215c1.074-3.346.484-7.003-1.587-9.843-2.071-2.839-5.373-4.518-8.887-4.518h-91.713c-4.8 0-9.046 3.113-10.491 7.691l-35.321 111.98c-1.054 3.342-.453 6.987 1.62 9.813 2.072 2.826 5.367 4.496 8.871 4.496h35.986l-18.259 86.903c-1.022 4.868 1.349 9.816 5.784 12.069 1.583.804 3.288 1.193 4.978 1.193 3.045 0 6.04-1.264 8.18-3.642l126.512-140.569c2.906-3.229 3.64-7.865 1.872-11.833-1.767-3.968-5.704-6.525-10.049-6.525zm-107.341 113.826 12.64-60.159c.681-3.243-.136-6.621-2.225-9.194s-5.226-4.067-8.541-4.067h-34.533l28.381-89.98h68.567l-18.359 57.215c-1.074 3.346-.484 7.003 1.587 9.843s5.373 4.518 8.887 4.518h26.239z"/><path d="m164.383 42.62c-.791-3.547-3.282-6.475-6.657-7.823-3.375-1.347-7.198-.942-10.214 1.084l-22.634 15.205-9.465-42.476c-1.322-5.93-7.203-9.665-13.129-8.344-5.93 1.322-9.666 7.2-8.344 13.129l12.969 58.194c.791 3.547 3.282 6.475 6.657 7.823 3.375 1.349 7.199.942 10.214-1.084l22.634-15.205 9.466 42.476c1.142 5.124 5.687 8.61 10.727 8.61.792 0 1.597-.086 2.403-.266 5.93-1.322 9.666-7.2 8.344-13.129z"/><path d="m503.393.266c-5.925-1.319-11.808 2.414-13.129 8.344l-9.466 42.476-22.634-15.205c-3.016-2.026-6.838-2.432-10.214-1.084-3.375 1.348-5.866 4.275-6.657 7.823l-12.969 58.194c-1.321 5.93 2.415 11.808 8.344 13.129.806.179 1.61.266 2.403.266 5.04 0 9.584-3.486 10.727-8.61l9.466-42.476 22.634 15.205c3.016 2.027 6.839 2.433 10.214 1.084 3.375-1.348 5.866-4.275 6.657-7.823l12.969-58.194c1.32-5.93-2.416-11.808-8.345-13.129z"/></g></g><g/><g/><g/><g/><g/><g/><g/><g/><g/><g/><g/><g/><g/><g/><g/></svg>