<svg id="Capa_1" enable-background="new 0 0 512 512" viewBox="0 0 512 512" xmlns="http://www.w3.org/2000/svg" fill="#052438"><g><g><path d="m349.481 355.516c-13.707 34.589-18.062 72.661-12.594 110.098l3.564 24.386h-160.794v-33.17c0-6.075-4.925-11-11-11h-66.722c-19.468 0-35.307-15.838-35.307-35.307v-53.759c0-6.075-4.925-11-11-11h-22.926c-3.655 0-6.906-1.75-8.919-4.801-2.013-3.052-2.342-6.729-.902-10.089l33.969-79.331c.586-1.369.888-2.842.888-4.33 0-78.369 55.801-145.806 132.682-160.35l-4.09-21.616c-86.509 16.363-149.501 91.725-150.579 179.676l-33.095 77.29c-4.337 10.128-3.304 21.666 2.763 30.863 6.066 9.197 16.266 14.688 27.283 14.688h11.927v42.759c0 31.599 25.708 57.307 57.307 57.307h55.722v33.17c0 6.075 4.925 11 11 11h184.518c3.195 0 6.232-1.389 8.321-3.806 2.09-2.417 3.025-5.623 2.563-8.784l-5.402-36.976c-4.913-33.631-1.014-67.8 11.277-98.812z"/><path d="m453.384 181.327c-26.482-43.996-75.678-71.327-128.39-71.327-52.711 0-101.907 27.331-128.39 71.327-2.101 3.49-2.101 7.855 0 11.346 26.482 43.996 75.679 71.327 128.39 71.327 52.712 0 101.908-27.331 128.391-71.327 2.1-3.49 2.1-7.856-.001-11.346zm-73.39 5.673c0 30.327-24.673 55-55 55s-55-24.673-55-55 24.673-55 55-55 55 24.673 55 55zm-160.905 0c9.905-14.539 22.862-26.67 37.771-35.814-5.651 10.707-8.867 22.889-8.867 35.814s3.216 25.107 8.867 35.814c-14.909-9.145-27.865-21.275-37.771-35.814zm174.037 35.815c5.651-10.707 8.867-22.889 8.867-35.815 0-12.925-3.216-25.108-8.867-35.815 14.91 9.145 27.867 21.276 37.772 35.815-9.905 14.539-22.862 26.67-37.772 35.815z"/></g><g fill="#0496FF"><path d="m324.994 0c-103.112 0-186.999 83.888-186.999 187s83.888 187 186.999 187c103.112 0 187-83.888 187-187s-83.888-187-187-187zm0 352c-90.98 0-164.999-74.019-164.999-165s74.019-165 164.999-165c90.981 0 165 74.019 165 165s-74.019 165-165 165z"/><path d="m324.994 84.977c6.075 0 11-4.925 11-11v-16c0-6.075-4.925-11-11-11s-11 4.925-11 11v16c0 6.075 4.924 11 11 11z"/><path d="m276.98 66.739c-2.724-5.43-9.335-7.624-14.764-4.9-5.431 2.724-7.625 9.334-4.9 14.765l4.87 9.709c1.93 3.848 5.811 6.07 9.841 6.07 1.657 0 3.341-.376 4.923-1.17 5.431-2.724 7.625-9.334 4.9-14.765z"/><path d="m387.772 61.838c-5.431-2.725-12.04-.53-14.764 4.9l-4.87 9.709c-2.725 5.43-.53 12.041 4.9 14.765 1.583.794 3.265 1.17 4.923 1.17 4.03 0 7.911-2.223 9.841-6.07l4.87-9.709c2.725-5.43.531-12.041-4.9-14.765z"/><path d="m324.994 289.022c-6.075 0-11 4.925-11 11v16c0 6.075 4.925 11 11 11s11-4.925 11-11v-16c0-6.075-4.925-11-11-11z"/><path d="m276.95 282.787c-5.432-2.724-12.041-.53-14.764 4.9l-4.87 9.709c-2.725 5.43-.53 12.041 4.9 14.765 1.583.794 3.265 1.17 4.923 1.17 4.03 0 7.911-2.223 9.841-6.07l4.87-9.709c2.725-5.43.53-12.041-4.9-14.765z"/><path d="m387.802 287.688c-2.724-5.43-9.335-7.624-14.764-4.9-5.431 2.724-7.625 9.334-4.9 14.765l4.87 9.709c1.93 3.848 5.811 6.07 9.841 6.07 1.657 0 3.341-.376 4.923-1.17 5.431-2.724 7.625-9.334 4.9-14.765z"/><path d="m324.994 154c-18.196 0-33 14.804-33 33s14.804 33 33 33 33-14.804 33-33-14.804-33-33-33zm0 44c-6.065 0-11-4.935-11-11s4.935-11 11-11 11 4.935 11 11-4.935 11-11 11z"/></g></g><g/><g/><g/><g/><g/><g/><g/><g/><g/><g/><g/><g/><g/><g/><g/></svg>