<svg id="Layer_1" enable-background="new 0 0 512 512" viewBox="0 0 512 512" xmlns="http://www.w3.org/2000/svg" fill="#052438"><g><g><path d="m275.199 259.326h-7.863v-106.142c0-4.452-2.683-8.465-6.797-10.166s-8.848-.754-11.992 2.398l-23.831 23.897c-34.889 34.986-81.304 54.253-130.695 54.253h-45.631c-26.683 0-48.39 21.708-48.39 48.39v46.953c0 19.684 11.814 36.66 28.724 44.211v105.984c0 21.045 17.113 38.166 38.148 38.166s38.148-17.121 38.148-38.166v-55.943h8.304c14.799 0 26.838-12.04 26.838-26.838v-13.24c31.726 8.131 60.808 24.661 84.552 48.47l23.831 23.897c2.105 2.111 4.923 3.233 7.792 3.233 1.414 0 2.841-.273 4.2-.835 4.114-1.701 6.797-5.714 6.797-10.166v-106.14h7.863c19.905 0 36.1-16.194 36.1-36.117.001-19.905-16.193-36.099-36.098-36.099zm-253.199 12.631c0-14.552 11.838-26.39 26.39-26.39h34.63v99.733h-34.63c-14.552 0-26.39-11.839-26.39-26.39zm44.872 213.314c-8.904 0-16.148-7.252-16.148-16.166v-101.805h32.296v101.805c.001 8.914-7.244 16.166-16.148 16.166zm51.291-98.948c0 2.668-2.17 4.838-4.838 4.838h-8.304v-23.541c4.412.258 8.795.669 13.143 1.234v17.469zm-13.142-40.734v-100.312c23.465-1.236 46.351-6.431 68.18-15.493 9.141-3.795 17.933-8.2 26.348-13.194v157.686c-8.414-4.995-17.207-9.4-26.348-13.194-21.829-9.061-44.716-14.257-68.18-15.493zm140.314 65.485-5.042-5.056c-5.943-5.959-12.198-11.517-18.745-16.662v-187.846c6.547-5.145 12.802-10.703 18.745-16.662l5.042-5.056zm29.864-101.532h-7.863v-28.216h7.863c7.774 0 14.1 6.325 14.1 14.116-.001 7.774-6.326 14.1-14.1 14.1z"/><path d="m96.446 145.146c3.945 2.067 8.236 3.09 12.511 3.09 5.372 0 10.72-1.615 15.322-4.8l27.141-18.784c7.273-5.034 11.615-13.321 11.615-22.169 0-8.847-4.343-17.134-11.615-22.167l-27.14-18.785c-8.266-5.72-18.931-6.376-27.833-1.71-8.909 4.668-14.443 13.818-14.443 23.879v37.568c0 10.06 5.534 19.21 14.442 23.878zm7.558-61.446c0-2.612 1.663-3.873 2.654-4.393.533-.279 1.355-.597 2.334-.597.834 0 1.784.23 2.767.911l27.141 18.784c1.857 1.286 2.135 3.107 2.135 4.078s-.278 2.792-2.135 4.079l-27.141 18.784c-2.136 1.48-4.113.832-5.102.314-.991-.52-2.654-1.781-2.654-4.392v-37.568z"/><path d="m116.165 200.238c53.87 0 97.696-43.853 97.696-97.754s-43.826-97.755-97.696-97.755-97.696 43.853-97.696 97.754 43.826 97.755 97.696 97.755zm0-173.509c41.739 0 75.696 33.983 75.696 75.754s-33.957 75.754-75.696 75.754-75.696-33.983-75.696-75.754 33.957-75.754 75.696-75.754z"/></g><g fill="#0496FF"><path d="m479.165 47.125h-151.335c-18.105 0-32.835 14.736-32.835 32.85v112.226c0 18.114 14.729 32.85 32.835 32.85h.359l7.402 18.534c1.264 3.165 3.923 5.564 7.2 6.499.992.283 2.006.421 3.015.421 2.324 0 4.617-.737 6.53-2.147l31.598-23.306h95.23c18.105 0 32.835-14.736 32.835-32.85v-112.227c.001-18.114-14.729-32.85-32.834-32.85zm10.835 145.076c0 5.983-4.861 10.85-10.835 10.85h-98.848c-2.35 0-4.638.752-6.529 2.147l-23.048 17-4.883-12.227c-1.669-4.179-5.715-6.92-10.215-6.92h-7.811c-5.975 0-10.835-4.867-10.835-10.85v-112.226c0-5.983 4.86-10.85 10.835-10.85h151.334c5.975 0 10.835 4.867 10.835 10.85z"/><path d="m448.769 98.639h-90.542c-6.075 0-11 4.925-11 11s4.925 11 11 11h90.542c6.075 0 11-4.925 11-11s-4.925-11-11-11z"/><path d="m448.769 146.859h-90.542c-6.075 0-11 4.925-11 11s4.925 11 11 11h90.542c6.075 0 11-4.925 11-11s-4.925-11-11-11z"/></g></g><g/><g/><g/><g/><g/><g/><g/><g/><g/><g/><g/><g/><g/><g/><g/></svg>