<svg id="Layer_1" enable-background="new 0 0 512 512" viewBox="0 0 512 512" xmlns="http://www.w3.org/2000/svg" fill="#052438"><g><g fill="#0496FF"><path d="m457.902 276.454h-254.916c-6.075 0-11 4.925-11 11v61.825c0 6.075 4.925 11 11 11h254.916c6.075 0 11-4.925 11-11v-61.825c0-6.076-4.925-11-11-11zm-11 61.825h-232.916v-39.825h232.916z"/><path d="m201.128 253.901c.787.134 1.219.208 7.441.208 2.94 0 7.172-.017 13.345-.051 6.075-.034 10.972-4.986 10.938-11.062-.034-6.054-4.952-10.938-10.999-10.938h-.063c-2.595.015-5.298.026-7.806.035v-42.814c0-6.075-4.925-11-11-11s-11 4.925-11 11v53.78c.002 5.358 3.863 9.937 9.144 10.842z"/><path d="m352.178 254.104c20.17 0 34.257-15.59 34.257-37.913 0-6.075-4.925-11-11-11h-16.119c-6.075 0-11 4.925-11 11s4.925 11 11 11h2.35c-1.788 2.766-4.714 4.913-9.488 4.913-8.79 0-15.941-7.138-15.941-15.913s7.151-15.913 15.941-15.913c3.198 0 6.279.938 8.91 2.714 5.034 3.399 11.873 2.071 15.271-2.964s2.071-11.873-2.964-15.271c-6.28-4.238-13.616-6.479-21.216-6.479-20.921 0-37.941 17.007-37.941 37.913s17.019 37.913 37.94 37.913z"/><path d="m269.712 254.104c20.921 0 37.941-17.007 37.941-37.913s-17.02-37.913-37.941-37.913-37.941 17.007-37.941 37.913 17.02 37.913 37.941 37.913zm0-53.825c8.79 0 15.941 7.138 15.941 15.913s-7.151 15.913-15.941 15.913-15.941-7.138-15.941-15.913 7.151-15.913 15.941-15.913z"/><path d="m430.961 254.104c20.921 0 37.941-17.007 37.941-37.913s-17.02-37.913-37.941-37.913-37.941 17.007-37.941 37.913 17.02 37.913 37.941 37.913zm0-53.825c8.79 0 15.941 7.138 15.941 15.913s-7.151 15.913-15.941 15.913-15.941-7.138-15.941-15.913 7.151-15.913 15.941-15.913z"/></g><g><path d="m501 101.417h-82.688v-18.278h32.625c6.075 0 11-4.925 11-11v-28.266c0-15.913-12.946-28.859-28.859-28.859h-51.532c-15.913 0-28.859 12.946-28.859 28.859v28.266c0 6.075 4.925 11 11 11h32.625v18.278h-129.312v-18.278h32.625c6.075 0 11-4.925 11-11v-28.266c0-15.913-12.946-28.859-28.859-28.859h-51.532c-15.913 0-28.859 12.946-28.859 28.859v28.266c0 6.075 4.925 11 11 11h32.625v18.278h-129.313v-18.278h32.625c6.075 0 11-4.925 11-11v-28.266c0-15.913-12.946-28.859-28.859-28.859h-51.532c-15.913 0-28.859 12.946-28.859 28.859v28.266c0 6.075 4.925 11 11 11h32.625v18.278h-82.687c-6.075 0-11 4.925-11 11v279.608c0 6.075 4.925 11 11 11h54.34v71.961h-7.22c-6.075 0-11 4.925-11 11s4.925 11 11 11h82.576c6.075 0 11-4.925 11-11s-4.925-11-11-11h-7.221v-71.961h245.051v71.961h-7.221c-6.075 0-11 4.925-11 11s4.925 11 11 11h82.576c6.075 0 11-4.925 11-11s-4.925-11-11-11h-7.22v-71.961h54.339c6.075 0 11-4.925 11-11v-279.608c0-6.075-4.925-11-11-11zm-126.312-57.544c0-3.782 3.077-6.859 6.859-6.859h51.532c3.782 0 6.859 3.077 6.859 6.859v17.266h-65.25zm-151.313 0c0-3.782 3.077-6.859 6.859-6.859h51.532c3.782 0 6.859 3.077 6.859 6.859v17.266h-65.25zm-151.312 0c0-3.782 3.077-6.859 6.859-6.859h51.532c3.782 0 6.859 3.077 6.859 6.859v17.266h-65.25zm39.412 431.113h-24.135v-71.961h24.135zm313.185 0h-24.135v-71.961h24.135zm65.34-93.961h-468v-257.608h468z"/><path d="m53.716 360.279h109.819c6.075 0 11-4.925 11-11v-194.115c0-6.075-4.925-11-11-11h-109.819c-6.075 0-11 4.925-11 11v194.115c0 6.075 4.925 11 11 11zm11-194.115h87.819v172.115h-87.819z"/></g></g><g/><g/><g/><g/><g/><g/><g/><g/><g/><g/><g/><g/><g/><g/><g/></svg>