<svg id="Capa_1" enable-background="new 0 0 512 512" viewBox="0 0 512 512" xmlns="http://www.w3.org/2000/svg" fill="#E6ECF2"><g><g><path d="m256.821 360.9c-6.075 0-11-4.925-11-11v-75.755c0-6.075 4.925-11 11-11s11 4.925 11 11v75.755c0 6.075-4.924 11-11 11z" fill="#0496FF"/></g><g><path d="m307.651 308.792c-6.075 0-11-4.925-11-11v-23.647c.576-14.585 21.421-14.593 22 0v23.647c0 6.075-4.925 11-11 11z" fill="#0496FF"/></g><g><path d="m293.419 414.775h-92.758c-6.075 0-11-4.925-11-11s4.925-11 11-11h92.758c14.566.568 14.611 21.414 0 22z" fill="#0496FF"/></g><g><path d="m363.706 414.775h-19.229c-14.586-.577-14.592-21.421 0-22h19.229c14.587.577 14.592 21.421 0 22z" fill="#0496FF"/></g><g><path d="m418.462 356.272c-6.075 0-11-4.925-11-11v-92.757c0-6.075 4.925-11 11-11s11 4.925 11 11v92.757c0 6.075-4.925 11-11 11z" fill="#0496FF"/></g><g><path d="m418.462 212.455c-6.075 0-11-4.925-11-11v-19.228c.577-14.586 21.421-14.592 22 0v19.227c0 6.076-4.925 11.001-11 11.001z" fill="#0496FF"/></g><path d="m481.83 94.057h-353.655c-15.304-76.808-125.827-68.162-128.175 11.001 0-.001 0 301.54 0 301.54 0 35.602 28.964 64.565 64.565 64.565h417.265c16.636 0 30.17-13.534 30.17-30.17v-316.766c0-16.636-13.534-30.17-30.17-30.17zm-417.264-31.566c23.471 0 42.565 19.095 42.565 42.566v253.054c-23.24-21.279-61.897-21.274-85.132 0v-253.054c.001-23.47 19.096-42.566 42.567-42.566zm425.434 378.502c0 4.505-3.665 8.17-8.17 8.17h-417.265c-23.47 0-42.565-19.095-42.565-42.565 2.357-56.497 82.807-56.432 85.132 0 0 6.075 4.925 11 11 11s11-4.925 11-11v-290.541h352.698c4.505 0 8.17 3.665 8.17 8.17z"/><path d="m369.545 228.182-22.047-19.245v-48.441c0-6.075-4.925-11-11-11s-11 4.925-11 11v29.237l-33.404-29.159c-5.648-4.931-14.171-4.931-19.821.001l-77.452 67.609c-3.278 2.863-5.159 7.001-5.159 11.353v88.211c0 18.28 14.872 33.152 33.153 33.152h118.739c18.28 0 33.152-14.872 33.152-33.152v-88.211c0-4.353-1.881-8.491-5.161-11.355zm-16.839 99.565c0 6.149-5.003 11.152-11.152 11.152h-118.739c-6.15 0-11.153-5.003-11.153-11.152v-85.061l70.522-61.561 45.653 39.852c.858 1.097 1.919 2.024 3.128 2.73l21.741 18.978z"/></g><g/><g/><g/><g/><g/><g/><g/><g/><g/><g/><g/><g/><g/><g/><g/></svg>