<svg id="Capa_1" enable-background="new 0 0 512 512" viewBox="0 0 512 512" xmlns="http://www.w3.org/2000/svg" fill="#052438"><g><g><path d="m425.784 512h-337.926v-61.841c0-6.075 4.925-11 11-11s11 4.925 11 11v39.841h293.926v-39.841c0-6.075 4.925-11 11-11s11 4.925 11 11z" fill="#0496FF"/></g><g><path d="m36.415 512c-6.075 0-11-4.925-11-11v-50.841c0-6.075 4.925-11 11-11s11 4.925 11 11v50.841c0 6.075-4.925 11-11 11z" fill="#0496FF"/></g><g><path d="m475.585 512c-6.075 0-11-4.925-11-11v-50.841c0-6.075 4.925-11 11-11s11 4.925 11 11v50.841c0 6.075-4.925 11-11 11z" fill="#0496FF"/></g><g><path d="m501 512h-490c-6.075 0-11-4.925-11-11s4.925-11 11-11h490c14.433.512 14.746 21.346 0 22z"/></g><path d="m495.102 375.781h-69.318v-364.781c0-6.075-4.925-11-11-11s-11 4.925-11 11v81.616h-106.286v-34.59h56.594c6.075 0 11-4.925 11-11s-4.925-11-11-11h-56.594v-25.026c0-6.075-4.925-11-11-11s-11 4.925-11 11v25.026h-38.996v-25.026c-.577-14.586-21.421-14.592-22 0v81.616h-104.644v-34.59h51.037c6.075 0 11-4.925 11-11s-4.925-11-11-11h-51.037v-25.026c0-6.075-4.925-11-11-11s-11 4.925-11 11v364.781h-70.96c-9.317 0-16.898 7.581-16.898 16.899v51.581c0 9.317 7.581 16.898 16.898 16.898h478.203c9.318 0 16.898-7.581 16.898-16.898v-51.581c.001-9.318-7.58-16.899-16.897-16.899zm-91.318-261.165v42.777h-106.286v-42.777zm-167.282 42.777v-42.777h38.996v42.777zm0-99.367h38.996v34.589h-38.996zm-22 56.59v42.777h-104.644v-42.777zm-104.644 64.777h293.926v196.389h-293.926zm380.142 259.766h-468v-41.378h468z"/><g><path d="m151.259 344.653c-6.075 0-11-4.925-11-11v-31.079c0-6.075 4.925-11 11-11s11 4.925 11 11v31.079c0 6.075-4.925 11-11 11z"/></g><g><path d="m256.821 344.653c-6.075 0-11-4.925-11-11v-31.079c0-6.075 4.925-11 11-11s11 4.925 11 11v31.079c0 6.075-4.925 11-11 11z"/></g><g><path d="m204.04 344.907c-6.075 0-11-4.925-11-11v-31.079c0-6.075 4.925-11 11-11s11 4.925 11 11v31.079c0 6.075-4.925 11-11 11z" fill="#0496FF"/></g><g><path d="m307.733 344.399c-6.075 0-11-4.925-11-11v-31.079c0-6.075 4.925-11 11-11s11 4.925 11 11v31.079c0 6.076-4.925 11-11 11z" fill="#0496FF"/></g><g><path d="m360.514 344.653c-6.075 0-11-4.925-11-11v-31.079c0-6.075 4.925-11 11-11s11 4.925 11 11v31.079c0 6.075-4.925 11-11 11z"/></g><g><path d="m151.373 262.621c-6.075 0-11-4.926-11-11v-31.079c0-6.075 4.925-11 11-11s11 4.925 11 11v31.079c0 6.074-4.925 11-11 11z" fill="#0496FF"/></g><g><path d="m256.934 262.621c-6.075 0-11-4.926-11-11v-31.079c0-6.075 4.925-11 11-11s11 4.925 11 11v31.079c0 6.074-4.925 11-11 11z" fill="#0496FF"/></g><g><path d="m204.153 262.875c-6.075 0-11-4.926-11-11.001v-31.079c0-6.075 4.925-11 11-11s11 4.925 11 11v31.079c0 6.075-4.925 11.001-11 11.001z"/></g><g><path d="m307.847 262.366c-6.075 0-11-4.925-11-11v-31.079c0-6.075 4.925-11 11-11s11 4.925 11 11v31.079c0 6.075-4.925 11-11 11z"/></g><g><path d="m360.627 262.621c-6.075 0-11-4.926-11-11v-31.079c0-6.075 4.925-11 11-11s11 4.925 11 11v31.079c0 6.074-4.924 11-11 11z" fill="#0496FF"/></g></g><g/><g/><g/><g/><g/><g/><g/><g/><g/><g/><g/><g/><g/><g/><g/></svg>