<svg id="Capa_1" enable-background="new 0 0 512 512" viewBox="0 0 512 512" xmlns="http://www.w3.org/2000/svg" fill="#E6ECF2"><g><g><path d="m413 0h-314c-54.589 0-99 44.411-99 99v314c0 54.589 44.411 99 99 99h314c54.589 0 99-44.411 99-99v-314c0-54.589-44.411-99-99-99zm77 413c0 42.458-34.542 77-77 77h-314c-42.458 0-77-34.542-77-77v-314c0-42.458 34.542-77 77-77h314c42.458 0 77 34.542 77 77z"/><path d="m401 56h-290c-30.327 0-55 24.673-55 55v290c0 30.327 24.673 55 55 55h290c30.327 0 55-24.673 55-55v-290c0-30.327-24.673-55-55-55zm33 345c0 18.196-14.804 33-33 33h-290c-18.196 0-33-14.804-33-33v-290c0-18.196 14.804-33 33-33h290c18.196 0 33 14.804 33 33z"/></g><path d="m339 140h-166c-18.196 0-33 14.804-33 33v166c0 18.196 14.804 33 33 33h166c18.196 0 33-14.804 33-33v-166c0-18.196-14.804-33-33-33zm11 199c0 6.065-4.935 11-11 11h-166c-6.065 0-11-4.935-11-11v-166c0-6.065 4.935-11 11-11h166c6.065 0 11 4.935 11 11z" fill="#0496FF"/></g><g/><g/><g/><g/><g/><g/><g/><g/><g/><g/><g/><g/><g/><g/><g/></svg>