<svg id="Capa_1" enable-background="new 0 0 512 512" viewBox="0 0 512 512" xmlns="http://www.w3.org/2000/svg" fill="#E6ECF2"><g><g><path d="m457 0h-129c-30.327 0-55 24.673-55 55v129c0 30.327 24.673 55 55 55h129c30.327 0 55-24.673 55-55v-129c0-30.327-24.673-55-55-55zm33 184c0 18.196-14.804 33-33 33h-129c-18.196 0-33-14.804-33-33v-129c0-18.196 14.804-33 33-33h129c18.196 0 33 14.804 33 33z"/><path d="m184 273h-129c-30.327 0-55 24.673-55 55v129c0 30.327 24.673 55 55 55h129c30.327 0 55-24.673 55-55v-129c0-30.327-24.673-55-55-55zm33 184c0 18.196-14.804 33-33 33h-129c-18.196 0-33-14.804-33-33v-129c0-18.196 14.804-33 33-33h129c18.196 0 33 14.804 33 33z"/></g><g fill="#0496FF"><path d="m184 0h-129c-30.327 0-55 24.673-55 55v129c0 30.327 24.673 55 55 55h129c30.327 0 55-24.673 55-55v-129c0-30.327-24.673-55-55-55zm33 184c0 18.196-14.804 33-33 33h-129c-18.196 0-33-14.804-33-33v-129c0-18.196 14.804-33 33-33h129c18.196 0 33 14.804 33 33z"/><path d="m457 273h-129c-30.327 0-55 24.673-55 55v129c0 30.327 24.673 55 55 55h129c30.327 0 55-24.673 55-55v-129c0-30.327-24.673-55-55-55zm33 184c0 18.196-14.804 33-33 33h-129c-18.196 0-33-14.804-33-33v-129c0-18.196 14.804-33 33-33h129c18.196 0 33 14.804 33 33z"/></g></g><g/><g/><g/><g/><g/><g/><g/><g/><g/><g/><g/><g/><g/><g/><g/></svg>