<svg id="Capa_1" enable-background="new 0 0 512 512" viewBox="0 0 512 512" xmlns="http://www.w3.org/2000/svg" fill="#E6ECF2"><g><g><path d="m487.079 322.217-45.644-72.749c-3.646-5.812-5.301-12.774-4.659-19.604 1.642-17.493.578-35.064-3.162-52.226l-2.639-12.109c-9.482-46.094-34.804-88.055-71.306-118.166-37.016-30.536-83.872-47.357-131.935-47.363-.013 0-.018 0-.029 0-38.924 0-76.884 10.864-109.768 31.415-5.151 3.22-6.718 10.006-3.498 15.158 3.219 5.151 10.002 6.719 15.158 3.499 29.385-18.365 63.309-28.072 98.107-28.072h.026c42.969.006 84.854 15.04 117.939 42.334 32.656 26.938 55.303 64.472 63.769 105.686.009.043.019.085.027.128l2.652 12.175c3.258 14.946 4.185 30.25 2.754 45.484-1.091 11.621 1.725 23.466 7.927 33.353l45.645 72.75c.905 1.443 1.384 3.106 1.384 4.811 0 4.979-4.049 9.039-9.025 9.05l-31.465.073c-13.693.032-24.834 11.2-24.834 24.895v38.945c0 23.441-19.036 42.512-42.434 42.512h-55.86c-2.934 0-5.745 1.205-7.812 3.289-2.065 2.083-3.212 4.938-3.188 7.872.071 8.219.612 16.465 1.613 24.644h-183.851v-47.576c0-41.086-10.919-81.575-31.552-117.043l-16.151-28.067c-15.107-27.297-23.094-58.327-23.095-89.735-.001-36.913 10.822-72.577 31.3-103.135 3.382-5.047 2.032-11.88-3.015-15.262-5.045-3.381-11.878-2.033-15.261 3.015-22.914 34.194-35.025 74.092-35.024 115.382.001 35.16 8.955 69.903 25.895 100.475.029.052.059.104.088.155l16.221 28.189c18.707 32.158 28.595 68.821 28.595 106.025v58.576c0 6.075 4.925 11 11 11h207.661c3.267 0 6.364-1.452 8.454-3.962s2.956-5.82 2.363-9.033c-1.387-7.519-2.334-15.153-2.832-22.809h44.452c35.529 0 64.434-28.94 64.434-64.512v-38.945c0-1.593 1.295-2.891 2.886-2.895l31.464-.073c17.079-.039 30.975-13.968 30.975-31.05-.002-5.846-1.644-11.554-4.75-16.504z"/><path d="m332.104 204.07c0-58.03-47.212-105.242-105.243-105.242-58.03 0-105.241 47.211-105.241 105.242s47.211 105.242 105.241 105.242c58.032 0 105.243-47.211 105.243-105.242zm-188.484 0c0-45.899 37.342-83.242 83.241-83.242 45.9 0 83.243 37.342 83.243 83.242s-37.343 83.242-83.243 83.242c-45.899 0-83.241-37.342-83.241-83.242z"/></g><path d="m226.861 45.172c-29.544 0-57.8 7.979-82.635 23.205l-2.613-19.459c-.321-2.39-1.419-4.609-3.124-6.314l-38.834-38.835c-2.946-2.946-7.305-3.974-11.255-2.658-3.952 1.316-6.821 4.752-7.412 8.876l-5.902 41.205-41.205 5.903c-4.124.59-7.561 3.46-8.877 7.412s-.287 8.309 2.658 11.255l38.834 38.834c1.705 1.705 3.924 2.803 6.314 3.124l19.067 2.56c-15.691 25.097-23.914 53.744-23.914 83.789 0 87.617 71.281 158.898 158.897 158.898 87.617 0 158.898-71.282 158.898-158.898s-71.279-158.897-158.897-158.897zm-106.557 10.359 3.927 29.25-27.756-27.756 3.173-22.15zm-61.536 20.223 22.15-3.173 27.757 27.757-29.251-3.927zm168.093 265.214c-75.485 0-136.897-61.413-136.897-136.898 0-29.276 9.065-57.011 26.256-80.521l18.094 2.429 49.582 49.582c-5.442 8.173-8.621 17.975-8.621 28.509 0 28.445 23.142 51.586 51.587 51.586 28.444 0 51.586-23.142 51.586-51.586s-23.142-51.586-51.586-51.586c-9.964 0-19.272 2.848-27.168 7.76l-49.823-49.824-2.392-17.813c23.275-16.653 50.62-25.435 79.383-25.435 75.486 0 136.898 61.412 136.898 136.898s-61.412 136.899-136.899 136.899zm-6.676-129.12c2.148 2.148 4.963 3.222 7.778 3.222s5.63-1.074 7.778-3.222c4.296-4.296 4.296-11.261 0-15.557l-19.735-19.735c3.364-1.332 7.024-2.072 10.856-2.072 16.313 0 29.586 13.272 29.586 29.586s-13.272 29.586-29.586 29.586-29.587-13.272-29.587-29.586c0-4.426.984-8.624 2.733-12.398z" fill="#0496FF"/></g><g/><g/><g/><g/><g/><g/><g/><g/><g/><g/><g/><g/><g/><g/><g/></svg>