<svg id="Capa_1" enable-background="new 0 0 512 512" viewBox="0 0 512 512" xmlns="http://www.w3.org/2000/svg" fill="#052438"><g><g><g><path d="m256 121.234c-6.075 0-11-4.925-11-11v-45.021c0-6.075 4.925-11 11-11s11 4.925 11 11v45.021c0 6.075-4.925 11-11 11z" fill="#0496FF"/></g><g><path d="m151.484 162.484c-2.815 0-5.63-1.074-7.778-3.222l-30.392-30.391c-4.296-4.296-4.296-11.261 0-15.556 4.295-4.296 11.26-4.296 15.557 0l30.392 30.391c4.296 4.296 4.296 11.261 0 15.556-2.148 2.148-4.963 3.222-7.779 3.222z" fill="#0496FF"/></g><g><path d="m110.787 267h-45.574c-6.075 0-11-4.925-11-11s4.925-11 11-11h45.574c6.075 0 11 4.925 11 11s-4.925 11-11 11z" fill="#0496FF"/></g><g><path d="m121.093 401.907c-2.815 0-5.63-1.074-7.778-3.222-4.296-4.296-4.296-11.261 0-15.557l31.864-31.864c4.297-4.296 11.26-4.296 15.557 0 4.296 4.296 4.296 11.261 0 15.557l-31.864 31.864c-2.149 2.148-4.964 3.222-7.779 3.222z" fill="#0496FF"/></g><g><path d="m256 457.787c-6.075 0-11-4.925-11-11v-43.447c0-6.075 4.925-11 11-11s11 4.925 11 11v43.447c0 6.075-4.925 11-11 11z" fill="#0496FF"/></g><g><path d="m390.907 401.907c-2.815 0-5.63-1.074-7.778-3.222l-32.057-32.056c-4.296-4.296-4.296-11.261 0-15.556 4.295-4.296 11.26-4.296 15.557 0l32.057 32.056c4.296 4.296 4.296 11.261 0 15.556-2.148 2.148-4.963 3.222-7.779 3.222z" fill="#0496FF"/></g><g><path d="m446.787 267h-45.276c-6.075 0-11-4.925-11-11s4.925-11 11-11h45.276c6.075 0 11 4.925 11 11s-4.925 11-11 11z" fill="#0496FF"/></g><g><path d="m359.255 163.745c-2.815 0-5.63-1.074-7.778-3.222-4.296-4.295-4.296-11.26 0-15.556l31.652-31.651c4.296-4.296 11.261-4.295 15.557 0s4.296 11.26 0 15.556l-31.652 31.651c-2.148 2.147-4.965 3.222-7.779 3.222z" fill="#0496FF"/></g></g><g><path d="m256 74.425c20.52 0 37.213-16.693 37.213-37.212s-16.693-37.213-37.213-37.213-37.213 16.694-37.213 37.213 16.693 37.212 37.213 37.212zm0-52.425c8.389 0 15.213 6.825 15.213 15.213s-6.824 15.212-15.213 15.212-15.213-6.824-15.213-15.212 6.824-15.213 15.213-15.213z"/><path d="m101.298 138.507c20.52 0 37.213-16.693 37.213-37.212s-16.693-37.213-37.213-37.213-37.213 16.694-37.213 37.213 16.693 37.212 37.213 37.212zm0-52.426c8.389 0 15.213 6.825 15.213 15.213s-6.824 15.212-15.213 15.212-15.213-6.824-15.213-15.212 6.824-15.213 15.213-15.213z"/><path d="m37.213 218.787c-20.52 0-37.213 16.694-37.213 37.213s16.693 37.212 37.213 37.212 37.213-16.693 37.213-37.212-16.694-37.213-37.213-37.213zm0 52.426c-8.389 0-15.213-6.825-15.213-15.213s6.824-15.213 15.213-15.213 15.213 6.825 15.213 15.213-6.824 15.213-15.213 15.213z"/><path d="m101.298 373.493c-20.52 0-37.213 16.694-37.213 37.213s16.693 37.212 37.213 37.212 37.213-16.693 37.213-37.212-16.694-37.213-37.213-37.213zm0 52.426c-8.389 0-15.213-6.824-15.213-15.212s6.824-15.213 15.213-15.213 15.213 6.825 15.213 15.213-6.825 15.212-15.213 15.212z"/><path d="m410.702 138.507c20.52 0 37.213-16.693 37.213-37.212s-16.693-37.213-37.213-37.213-37.213 16.694-37.213 37.213 16.694 37.212 37.213 37.212zm0-52.426c8.389 0 15.213 6.825 15.213 15.213s-6.824 15.212-15.213 15.212-15.213-6.824-15.213-15.212 6.825-15.213 15.213-15.213z"/><path d="m474.787 218.787c-20.52 0-37.213 16.694-37.213 37.213s16.693 37.212 37.213 37.212 37.213-16.693 37.213-37.212-16.693-37.213-37.213-37.213zm0 52.426c-8.389 0-15.213-6.824-15.213-15.212s6.824-15.213 15.213-15.213 15.213 6.824 15.213 15.212-6.824 15.213-15.213 15.213z"/><path d="m410.702 373.493c-20.52 0-37.213 16.694-37.213 37.213s16.693 37.212 37.213 37.212 37.213-16.693 37.213-37.212-16.693-37.213-37.213-37.213zm0 52.426c-8.389 0-15.213-6.824-15.213-15.212s6.824-15.213 15.213-15.213 15.213 6.825 15.213 15.213-6.824 15.212-15.213 15.212z"/><path d="m256 437.575c-20.52 0-37.213 16.694-37.213 37.213s16.693 37.212 37.213 37.212 37.213-16.693 37.213-37.212-16.693-37.213-37.213-37.213zm0 52.425c-8.389 0-15.213-6.824-15.213-15.212s6.824-15.213 15.213-15.213 15.213 6.825 15.213 15.213-6.824 15.212-15.213 15.212z"/><path d="m386.278 328.376-10.312-10.312c3.515-6.782 6.441-13.844 8.753-21.122h14.578c6.075 0 11-4.925 11-11v-59.886c0-6.075-4.925-11-11-11h-14.577c-2.312-7.277-5.238-14.34-8.753-21.122l10.312-10.312c4.296-4.295 4.296-11.26 0-15.556l-42.346-42.345c-4.297-4.296-11.26-4.296-15.557 0l-10.312 10.312c-6.783-3.516-13.845-6.442-21.122-8.753v-14.578c0-6.075-4.925-11-11-11h-59.885c-6.075 0-11 4.925-11 11v14.578c-7.277 2.312-14.339 5.238-21.122 8.753l-10.312-10.312c-4.296-4.295-11.261-4.296-15.557 0l-42.346 42.345c-4.296 4.296-4.296 11.261 0 15.556l10.312 10.312c-3.515 6.782-6.441 13.844-8.753 21.122h-14.578c-6.075 0-11 4.925-11 11v59.886c0 6.075 4.925 11 11 11h14.578c2.312 7.277 5.238 14.34 8.753 21.122l-10.312 10.312c-4.296 4.295-4.296 11.26 0 15.556l42.346 42.345c4.297 4.296 11.26 4.296 15.557 0l10.312-10.312c6.783 3.516 13.845 6.442 21.122 8.753v14.578c0 6.075 4.925 11 11 11h59.885c6.075 0 11-4.925 11-11v-14.576c7.277-2.312 14.339-5.238 21.122-8.753l10.312 10.312c4.297 4.295 11.262 4.296 15.557 0l42.346-42.345c4.295-4.297 4.295-11.262-.001-15.558zm-20.552-45.08c-2.707 10.919-7.027 21.343-12.84 30.983-2.611 4.331-1.934 9.883 1.642 13.458l8.416 8.417-26.789 26.789-8.416-8.417c-3.574-3.574-9.126-4.252-13.458-1.642-9.644 5.814-20.068 10.135-30.984 12.84-4.907 1.216-8.354 5.621-8.354 10.677v11.896h-37.885v-11.896c0-5.056-3.446-9.46-8.354-10.677-10.916-2.706-21.341-7.026-30.984-12.84-4.331-2.61-9.883-1.932-13.458 1.642l-8.416 8.417-26.789-26.789 8.416-8.417c3.575-3.575 4.253-9.127 1.642-13.458-5.812-9.64-10.133-20.064-12.84-30.983-1.217-4.907-5.621-8.353-10.677-8.353h-11.896v-37.886h11.896c5.056 0 9.46-3.446 10.677-8.353 2.707-10.919 7.027-21.343 12.84-30.983 2.611-4.331 1.934-9.883-1.642-13.458l-8.416-8.417 26.789-26.789 8.416 8.417c3.575 3.575 9.127 4.253 13.458 1.642 9.644-5.814 20.068-10.135 30.984-12.84 4.907-1.216 8.354-5.621 8.354-10.677v-11.896h37.885v11.896c0 5.056 3.446 9.46 8.354 10.677 10.916 2.706 21.341 7.026 30.984 12.84 4.332 2.612 9.884 1.933 13.458-1.642l8.416-8.417 26.789 26.789-8.416 8.417c-3.575 3.575-4.253 9.127-1.642 13.458 5.812 9.64 10.133 20.064 12.84 30.983 1.217 4.907 5.621 8.353 10.677 8.353h11.896v37.886h-11.896c-5.056 0-9.461 3.446-10.677 8.353z"/><path d="m256 162.468c-51.574 0-93.532 41.958-93.532 93.532s41.958 93.532 93.532 93.532 93.532-41.958 93.532-93.532-41.958-93.532-93.532-93.532zm0 165.064c-12.104 0-23.51-3.033-33.514-8.362-.463-18.767 14.727-34.382 33.514-34.355 18.787-.027 33.977 15.589 33.514 34.355-10.004 5.329-21.41 8.362-33.514 8.362zm-19.606-83.393c0-10.298 8.412-18.677 18.753-18.677s18.754 8.378 18.754 18.677-8.413 18.676-18.754 18.676-18.753-8.378-18.753-18.676zm73.077 59.305c-3.752-13.461-12.455-24.872-24.021-32.141 6.492-7.208 10.451-16.732 10.451-27.164 0-22.429-18.282-40.677-40.754-40.677s-40.753 18.248-40.753 40.677c0 10.768 4.222 20.565 11.09 27.849-11.035 7.291-19.318 18.412-22.954 31.457-11.225-12.636-18.062-29.253-18.062-47.444 0-39.443 32.089-71.532 71.532-71.532s71.532 32.089 71.532 71.532c0 18.19-6.837 34.807-18.061 47.443z"/></g></g><g/><g/><g/><g/><g/><g/><g/><g/><g/><g/><g/><g/><g/><g/><g/></svg>