<svg id="Capa_1" enable-background="new 0 0 512 512" viewBox="0 0 512 512" xmlns="http://www.w3.org/2000/svg" fill="#E6ECF2"><g><g fill="#0496FF"><path d="m323 194.957h-90c-6.075 0-11 4.925-11 11v251.043h22v-240.043h68v240.043h22v-251.043c0-6.075-4.925-11-11-11z"/><path d="m457 231.77h-90c-6.075 0-11 4.925-11 11v214.23h22v-203.23h68v203.23h22v-214.23c0-6.076-4.925-11-11-11z"/><path d="m189 267.289h-90c-6.075 0-11 4.925-11 11v178.711h22v-167.711h68v167.711h22v-178.711c0-6.076-4.925-11-11-11z"/></g><path d="m501 80.257c6.075 0 11-4.925 11-11v-58.257c0-6.075-4.925-11-11-11h-58.257c-6.075 0-11 4.925-11 11s4.925 11 11 11h31.7l-108.56 108.561-57.414-57.415c-4.296-4.296-11.261-4.296-15.557 0l-104.974 104.976-34.145-34.145c-4.296-4.296-11.261-4.296-15.557 0l-72.236 72.236v-205.213c0-6.075-4.925-11-11-11h-44c-6.075 0-11 4.925-11 11v490c0 6.075 4.925 11 11 11h490c6.075 0 11-4.925 11-11v-44c0-6.075-4.925-11-11-11h-435v-198.674l80.015-80.015 34.145 34.145c4.296 4.296 11.261 4.296 15.557 0l104.973-104.975 57.414 57.415c4.296 4.296 11.261 4.296 15.557 0l116.339-116.339v31.7c0 6.075 4.925 11 11 11zm-11 387.743v22h-468v-468h22v435c0 6.075 4.925 11 11 11z"/></g><g/><g/><g/><g/><g/><g/><g/><g/><g/><g/><g/><g/><g/><g/><g/></svg>