<svg id="Layer_1" enable-background="new 0 0 512 512" viewBox="0 0 512 512" xmlns="http://www.w3.org/2000/svg" fill="#E6ECF2"><g><g><g><path d="m402.096 214.247h-121.096c-6.075 0-1-4.925-1-11s-5.075-11 1-11h121.096c6.075 0 11 4.925 11 11s-4.925 11-11 11z" fill="#0496FF"/></g><g><path d="m372.903 267.212h-105.253c-6.075 0-11-4.925-11-11s4.925-11 11-11h115.253c6.075 0 1 4.925 1 11s-4.924 11-11 11z" fill="#0496FF"/></g></g><g><g><g><path d="m168.5 473.71c-4.604 0-8.798-2.977-10.356-7.296-1.555-4.311-.176-9.307 3.373-12.21 3.513-2.874 8.542-3.264 12.472-1.017 4.04 2.31 6.206 7.115 5.29 11.673-1.018 5.069-5.598 8.85-10.779 8.85z" fill="#0496FF"/></g><g><path d="m168.5 437.16c-4.616 0-8.785-2.983-10.356-7.301-1.566-4.304-.167-9.309 3.373-12.206 3.503-2.867 8.549-3.286 12.472-1.023 4.034 2.326 6.208 7.113 5.29 11.68-1.017 5.066-5.601 8.85-10.779 8.85z" fill="#0496FF"/></g></g><g><path d="m490.956 319.794c0-23.624-10.329-44.881-26.707-59.49v-186.708c0-3.198-1.392-6.238-3.813-8.328l-72.541-62.596c-1.998-1.724-4.548-2.672-7.187-2.672h-161.224c-6.075 0-11 4.925-11 11v77.292c-4.046-.568-8.179-.862-12.379-.862h-55.221c-48.885 0-88.655 39.778-88.655 88.671v33.855c-6.179 6.318-9.641 14.736-9.641 23.76 0 14.424 9.015 26.868 21.829 31.801 1.845 39.562 26.585 69.482 68.841 83.443v1.461h-41.844c-38.802 0-70.37 31.573-70.37 70.381v80.198c0 6.075 4.925 11 11 11h272.902c6.075 0 11-4.925 11-11v-80.198c0-38.809-31.568-70.381-70.37-70.381h-41.845v-1.461c13.519-4.467 25.244-10.566 35.001-18.093h93.595c2.777 19.902 12.93 37.474 27.598 49.856v78.05c0 3.872 2.036 7.459 5.36 9.444s7.448 2.076 10.856.24l35.116-18.916 35.116 18.916c1.63.878 3.424 1.315 5.216 1.315 1.955 0 3.906-.52 5.641-1.556 3.324-1.985 5.36-5.572 5.36-9.444v-78.05c17.337-14.633 28.366-36.516 28.366-60.928zm-99.248-284.773 31.956 27.575h-31.956zm-161.224-13.021h139.224v51.596c0 6.075 4.925 11 11 11h61.541v161.76c-9.531-4.039-20.005-6.273-30.99-6.273-40.24 0-73.609 29.982-78.951 68.784h-73.172c8.078-12.541 12.68-27.136 13.437-43.351 12.813-4.934 21.829-17.377 21.829-31.801 0-8.953-3.473-17.419-9.641-23.75v-33.864c0-5.56-.514-11.002-1.498-16.281h57.468c6.075 0 11-4.925 11-11v-88.023c0-6.075-4.925-11-11-11h-78.43c-6.075 0-11 4.925-11 11v45.961c-6.299-5.026-13.294-9.212-20.816-12.389v-72.369zm45.584 115.823c-.864-1.799-1.788-3.565-2.767-5.294 0-.018.001-.037.001-.055v-60.677h56.43v66.023h-53.414c-.084 0-.167.002-.25.003zm-201.839 38.278c0-36.763 29.901-66.671 66.655-66.671h55.221c36.754 0 66.655 29.908 66.655 66.671v27.252l-1.12-.476c-19.393-8.235-36.359-21.471-49.067-38.278l-6.297-8.329c-1.858-2.458-4.663-4.024-7.73-4.316-.349-.033-.697-.05-1.045-.05-2.707 0-5.333.999-7.362 2.827l-9.447 8.51c-12.64 11.385-31.371 17.915-51.392 17.915-.033 0-.067 0-.1 0-20.951.191-41.138 9.525-54.972 17.809v-22.864zm74.248 196.32-24.198 21.901-9.334-21.901zm73.687 0-9.435 21.966-24.382-21.966zm71.782 48.381v69.198h-38.076v-44.963c0-6.075-4.925-11-11-11s-11 4.925-11 11v44.963h-130.75v-44.963c0-6.075-4.925-11-11-11s-11 4.925-11 11v44.963h-38.076v-69.198c0-26.551 21.493-48.173 47.989-48.379l19.062 44.728c1.395 3.272 4.286 5.668 7.76 6.432.783.172 1.574.256 2.359.256 2.7 0 5.338-.995 7.381-2.844l40.805-36.932 41.013 36.949c2.041 1.839 4.671 2.828 7.363 2.828.785 0 1.575-.084 2.356-.255 3.465-.76 6.351-3.144 7.75-6.403l19.223-44.755c26.429.283 47.841 21.875 47.841 48.375zm-104.069-90.655c-4.806 1.292-8.146 5.647-8.146 10.624v9.65h-26.473v-9.65c0-4.976-3.34-9.332-8.146-10.623-22.709-6.102-60.807-23.236-60.807-69.441v-3.965c0-5.83-4.549-10.647-10.369-10.982-6.363-.366-11.348-5.656-11.348-12.044 0-.983.116-1.946.341-2.873 1.951-.305 3.822-1.134 5.393-2.459 8.224-6.938 34.852-24.983 59.032-25.227 25.371-.012 49.445-8.6 66.062-23.568l.547-.493c14.917 19.289 34.623 34.497 57.079 44.033l16.419 6.972c.841.357 1.713.604 2.595.742.227.93.345 1.894.345 2.874 0 6.388-4.985 11.679-11.348 12.044-5.82.334-10.369 5.152-10.369 10.982v3.965c0 46.205-38.097 63.339-60.807 69.439zm163.685-10.353c0-31.822 25.883-57.711 57.697-57.711s57.697 25.889 57.697 57.711-25.883 57.711-57.697 57.711-57.697-25.889-57.697-57.711zm87.029 120.559-24.116-12.99c-3.256-1.754-7.177-1.754-10.433 0l-24.116 12.99v-46.441c9.083 3.609 18.98 5.593 29.333 5.593s20.25-1.985 29.333-5.593v46.441z"/><path d="m198.875 223.459c-6.075 0-11 4.925-11 11v13.329c0 6.075 4.925 11 11 11s11-4.925 11-11v-13.329c0-6.075-4.924-11-11-11z"/><path d="m149.114 247.788v-13.329c0-6.075-4.925-11-11-11s-11 4.925-11 11v13.329c0 6.075 4.925 11 11 11s11-4.925 11-11z"/><path d="m184.9 276.459c-4.382 4.383-10.208 6.796-16.405 6.796s-12.023-2.414-16.406-6.797c-4.296-4.296-11.261-4.297-15.557-.001-4.296 4.295-4.296 11.26-.001 15.557 8.538 8.539 19.889 13.241 31.963 13.241s23.425-4.703 31.963-13.242c4.295-4.296 4.295-11.261-.001-15.556-4.295-4.295-11.261-4.295-15.556.002z"/></g></g></g><g/><g/><g/><g/><g/><g/><g/><g/><g/><g/><g/><g/><g/><g/><g/></svg>