<svg id="Capa_1" enable-background="new 0 0 512.001 512.001" viewBox="0 0 512.001 512.001" xmlns="http://www.w3.org/2000/svg" fill="#052438"><g><path d="m452.934 195.378h-110.409v-66.245c0-6.075-4.925-11-11-11h-250.458v22h239.458v55.245h-239.458v22h360.867v55.245h-360.867v22h291.661v55.245h-291.661v22h302.661c6.075 0 11-4.925 11-11v-66.245h58.206c6.075 0 11-4.925 11-11v-77.245c0-6.076-4.925-11-11-11z" fill="#0496FF"/><path d="m508.779 445.156-48.066-48.067c-3.146-3.146-7.878-4.087-11.988-2.384s-6.79 5.713-6.79 10.163v15.067h-349.868v-349.868h15.066c4.449 0 8.46-2.68 10.163-6.791 1.702-4.11.761-8.842-2.385-11.988l-48.066-48.066c-4.297-4.296-11.26-4.296-15.557 0l-48.066 48.066c-3.146 3.146-4.087 7.877-2.385 11.988 1.703 4.11 5.714 6.791 10.163 6.791h15.066v404.867c0 6.075 4.925 11 11 11h404.867v15.066c0 4.449 2.68 8.46 6.79 10.163 1.361.564 2.79.838 4.208.838 2.862 0 5.676-1.118 7.78-3.222l48.066-48.066c4.298-4.297 4.298-11.262.002-15.557zm-44.855 29.298c-.251-5.853-5.075-10.521-10.99-10.521h-404.867v-404.866c0-5.915-4.667-10.739-10.521-10.99l21.521-21.521 21.521 21.521c-5.853.251-10.521 5.075-10.521 10.99v371.867c0 6.075 4.925 11 11 11h371.867c5.915 0 10.739-4.668 10.99-10.521l21.52 21.521z"/></g><g/><g/><g/><g/><g/><g/><g/><g/><g/><g/><g/><g/><g/><g/><g/></svg>