<svg id="Capa_1" enable-background="new 0 0 511.648 511.648" viewBox="0 0 511.648 511.648" xmlns="http://www.w3.org/2000/svg" fill="#052438"><g id="Line_Graph"><g><path d="m423.37 297.115h-121.991c-6.075 0-11-4.925-11-11s4.925-11 11-11h121.991c80.265-2.209 90.826-112.661 11.862-129.275-4.488-.826-8-4.338-8.826-8.827-5.663-30.764-32.332-53.139-63.52-53.381-4.482.808-9.332-1.279-11.61-5.323-20.28-34.968-56.928-56.691-95.643-56.691s-75.362 21.723-95.643 56.691c-2.26 4.041-7.15 6.135-11.61 5.323-31.273.245-58.965 23.112-64.537 53.381-.826 4.489-4.339 8.001-8.827 8.827-77.479 16.404-67.2 127.129 11.863 129.275-.001 0 123.007 0 123.007 0 6.075 0 11 4.925 11 11s-4.925 11-11 11h-123.008c-101.634-2.381-120.205-142.521-23.018-171.279 9.318-35.484 43.763-62.693 80.475-64.087 52.129-82.304 170.48-82.276 222.594-.001 37.601 1.951 69.628 27.93 79.477 64.095 37.079 9.539 65.801 45.602 65.226 84.028.996 46.923-41.463 88.258-88.262 87.244z" fill="#0496FF"/></g><g><path d="m469.122 489.617h-65.25v-142.51c0-6.07-4.92-11-11-11h-80.49v-99.99h19.5c9.218.05 14.418-10.959 8.45-18.04 0 0-76.25-91.49-76.25-91.49-2.09-2.51-5.19-3.96-8.45-3.96s-6.36 1.45-8.45 3.96c0 0-76.25 91.49-76.25 91.49-5.939 7.055-.812 18.088 8.45 18.04h19.5v160.99h-80.49c-6.08 0-11 4.92-11 11v81.51h-65.25c-6.07 0-11 4.92-11 11s4.93 11 11 11h426.98c14.434-.513 14.745-21.345 0-22zm-339.73-70.51h69.49v70.51h-69.49zm91.49-193.99c0-6.07-4.92-11-11-11h-7.01l52.76-63.31 52.76 63.31h-7.01c-6.08 0-11 4.93-11 11v264.5h-69.5zm91.5 132.99h69.49v131.51h-69.49z"/></g></g><g/><g/><g/><g/><g/><g/><g/><g/><g/><g/><g/><g/><g/><g/><g/></svg>