<svg id="Layer_1" enable-background="new 0 0 512 512" viewBox="0 0 512 512" xmlns="http://www.w3.org/2000/svg" fill="#052438"><g><g><path d="m223.788 311.167h-46.164c-6.075 0-11-4.925-11-11s4.925-11 11-11h46.164c6.075 0 11 4.925 11 11s-4.925 11-11 11z" fill="#0496FF"/></g><g><path d="m223.788 252.696h-46.164c-6.075 0-11-4.925-11-11s4.925-11 11-11h46.164c6.075 0 11 4.925 11 11s-4.925 11-11 11z" fill="#0496FF"/></g><g><path d="m312.761 158.499v-77.539c0-6.075-4.925-11-11-11h-124.137c-6.075 0-11 4.925-11 11v77.539c0 6.075 4.925 11 11 11h124.137c6.075 0 11-4.924 11-11zm-22-11h-102.137v-55.539h102.137z"/><path d="m509.741 415.356c-2.111-2.764-20.055-25.366-42.934-26.902 3.887-7.34 7.401-14.907 10.518-22.673 9.076-4.968 29.197-18.141 32.06-38.53 3.5-24.929-20.779-46.679-23.559-49.077-3.26-2.812-7.862-3.464-11.774-1.667-3.334 1.531-32.673 15.675-36.175 40.621-2.58 18.373 9.928 35.018 17.8 43.463-11.027 26.327-27.121 50.031-47.046 69.864-3.824-16.945-16.394-30.738-18.26-32.712-2.955-3.129-7.466-4.246-11.54-2.858-3.448 1.173-33.853 12.166-39.823 36.47-3.843 15.644 3.839 31.149 10.458 40.908-4.309 2.061-8.696 3.983-13.155 5.757-5.645 2.246-8.399 8.643-6.153 14.288 1.716 4.311 5.851 6.936 10.224 6.936 1.353 0 2.73-.251 4.064-.783 31.179-12.407 59.143-31.292 82.234-54.977 8.118 7.982 21.914 18.6 37.863 18.6 1.023 0 2.056-.043 3.096-.135 25.464-2.226 41.389-31.51 43.121-34.841 1.967-3.784 1.57-8.363-1.019-11.752zm-149.368 21.246c1.91-7.778 11.415-14.194 18.708-17.902 4.941 7.005 10.102 17.158 8.257 24.667-1.908 7.77-11.394 14.18-18.683 17.89-4.751-6.718-10.197-16.863-8.282-24.655zm99.289-116.415c1.131-8.058 10.078-15.519 17.043-20.003 5.473 6.263 12.026 15.939 10.894 24.008-1.131 8.058-10.078 15.519-17.043 20.003-5.473-6.263-12.027-15.939-10.894-24.008zm6.061 119.846c-8.421.731-18.081-6.782-24.15-12.816 5.179-7.312 13.514-16.085 21.615-16.793 8.406-.737 18.081 6.783 24.15 12.816-5.18 7.312-13.514 16.084-21.615 16.793z"/><path d="m402.242 324.657v-99.965c0-5.871-4.611-10.708-10.475-10.987-7.514-.359-14.907-1.377-22.139-3.044v-186.904c0-6.075-4.925-11-11-11h-237.87c-6.075 0-11 4.925-11 11v333.613c0 6.075 4.925 11 11 11h118.935c.183 0 .365-.005.546-.014 5.239 5.058 11.441 9.213 18.41 12.165l49.058 20.78c1.371.581 2.831.871 4.291.871s2.919-.291 4.291-.871l49.057-20.78c22.413-9.494 36.896-31.422 36.896-55.864zm-270.484-289.9h215.869v168.611c-1.789-.784-3.564-1.61-5.325-2.481l-25.431-12.572c-3.072-1.519-6.677-1.519-9.749 0l-25.431 12.572c-15.535 7.679-32.177 11.991-49.464 12.817-5.864.28-10.475 5.116-10.475 10.987v99.965c0 7.578 1.393 14.914 3.982 21.713h-93.976zm180.239 344.469-44.767-18.963c-14.262-6.041-23.478-20.017-23.478-35.606v-89.849c16.583-1.972 32.581-6.731 47.688-14.199l20.557-10.162 20.557 10.162c15.107 7.468 31.105 12.227 47.688 14.199v89.849c0 15.589-9.215 29.566-23.478 35.606z"/><path d="m175.689 478.02c-4.46-1.775-8.846-3.696-13.155-5.757 6.62-9.759 14.301-25.264 10.458-40.908-5.97-24.304-36.375-35.296-39.823-36.47-4.073-1.387-8.583-.271-11.54 2.858-1.866 1.974-14.436 15.767-18.26 32.712-19.924-19.833-36.019-43.537-47.046-69.864 7.872-8.445 20.38-25.091 17.8-43.463-3.502-24.946-32.841-39.09-36.175-40.621-3.913-1.797-8.515-1.145-11.774 1.667-2.78 2.398-27.059 24.148-23.559 49.078 2.863 20.388 22.984 33.561 32.06 38.53 3.116 7.767 6.631 15.333 10.518 22.674-22.887 1.536-40.824 24.138-42.934 26.902-2.589 3.388-2.985 7.968-1.019 11.751 1.732 3.332 17.657 32.616 43.121 34.841 1.042.091 2.071.135 3.096.135 15.948 0 29.745-10.618 37.863-18.601 23.091 23.685 51.055 42.57 82.234 54.977 1.334.531 2.71.783 4.064.783 4.373 0 8.509-2.625 10.224-6.936 2.247-5.646-.508-12.042-6.153-14.288zm-42.747-59.308c7.299 3.715 16.777 10.123 18.685 17.89 1.917 7.804-3.547 17.967-8.296 24.677-7.597-3.878-16.83-10.426-18.669-17.913-1.914-7.794 3.535-17.943 8.28-24.654zm-86.665 21.321c-8.427-.737-16.665-9.832-21.611-16.833 6.352-6.298 16.055-13.476 24.146-12.776 8.427.737 16.666 9.832 21.611 16.834-6.351 6.298-16.062 13.471-24.146 12.775zm-21.876-115.841c-1.135-8.082 5.44-17.774 10.91-24.03 7.262 4.687 15.937 12.262 17.027 20.024 1.134 8.073-5.425 17.752-10.891 24.008-6.974-4.488-15.914-11.946-17.046-20.002z"/></g><g><path d="m311.997 340.747c-6.075 0-11-4.925-11-11v-71.185c0-6.075 4.925-11 11-11s11 4.925 11 11v71.185c0 6.075-4.925 11-11 11z" fill="#0496FF"/></g></g><g/><g/><g/><g/><g/><g/><g/><g/><g/><g/><g/><g/><g/><g/><g/></svg>