<svg id="Capa_1" enable-background="new 0 0 512 512" viewBox="0 0 512 512" xmlns="http://www.w3.org/2000/svg" fill="#052438"><g><g><path d="m153.483 419.778c-5.087-3.319-11.904-1.885-15.223 3.203l-38.993 59.773c-2.959 4.538-7.96 7.246-13.377 7.246-5.957 0-11.207-3.127-14.044-8.365s-2.588-11.344.667-16.333l39.594-60.696c3.319-5.088 1.885-11.903-3.203-15.223-5.087-3.32-11.904-1.885-15.223 3.203l-39.594 60.695c-7.738 11.861-8.331 26.377-1.586 38.831 6.745 12.453 19.227 19.888 33.389 19.888 12.878 0 24.767-6.439 31.803-17.225l38.993-59.773c3.319-5.089 1.885-11.904-3.203-15.224z"/><path d="m420.184 453.282-39.594-60.695c-3.319-5.089-10.135-6.522-15.223-3.203-5.089 3.319-6.522 10.135-3.203 15.223l39.594 60.696c3.255 4.989 3.504 11.095.668 16.333-2.837 5.238-8.088 8.365-14.045 8.365-5.417 0-10.417-2.708-13.377-7.246l-38.972-59.741c-3.319-5.088-10.135-6.522-15.223-3.203-5.089 3.319-6.522 10.135-3.203 15.223l38.972 59.741c7.037 10.786 18.926 17.225 31.804 17.225 14.163 0 26.645-7.435 33.39-19.888 6.743-12.453 6.151-26.969-1.588-38.83z"/></g><g><g><path d="m237.135 458.967c-116.136 0-210.62-94.483-210.62-210.62 0-116.136 94.483-210.619 210.62-210.619s210.62 94.483 210.62 210.619c.001 116.137-94.483 210.62-210.62 210.62zm0-399.238c-104.005 0-188.62 84.614-188.62 188.619s84.614 188.62 188.62 188.62 188.62-84.614 188.62-188.62c.001-104.005-84.614-188.619-188.62-188.619z" fill="#0496FF"/></g><g><path d="m237.135 340.176c-50.634 0-91.828-41.194-91.828-91.829s41.194-91.828 91.828-91.828c50.635 0 91.829 41.194 91.829 91.828s-41.194 91.829-91.829 91.829zm0-161.656c-38.503 0-69.828 31.325-69.828 69.828s31.325 69.829 69.828 69.829c38.504 0 69.829-31.325 69.829-69.829s-31.325-69.828-69.829-69.828z" fill="#0496FF"/></g></g><path d="m474.484 37.729h-26.729v-26.729c0-6.075-4.925-11-11-11s-11 4.925-11 11v33.172l-14.823 14.823v-11.172c0-6.075-4.925-11-11-11s-11 4.925-11 11v33.172l-52.975 52.975c-26.523-22.947-61.08-36.846-98.822-36.846-83.385 0-151.224 67.839-151.224 151.224s67.838 151.224 151.224 151.224 151.225-67.839 151.225-151.224c0-37.742-13.899-72.298-36.846-98.821l52.976-52.976h33.171c6.075 0 11-4.925 11-11s-4.925-11-11-11h-11.171l14.822-14.822h33.172c6.075 0 11-4.925 11-11s-4.925-11-11-11zm-108.124 210.619c0 71.254-57.97 129.224-129.225 129.224-71.254 0-129.224-57.97-129.224-129.224s57.97-129.224 129.224-129.224c31.676 0 60.72 11.463 83.219 30.448l-83.219 83.219-1.04-1.04c-4.296-4.297-11.262-4.296-15.556 0-4.296 4.295-4.296 11.26 0 15.556l17.636 17.637c2.148 2.148 4.963 3.222 7.778 3.222 2.814 0 5.63-1.074 7.778-3.222 4.296-4.295 4.296-11.26 0-15.556l-1.04-1.04 83.219-83.219c18.987 22.499 30.45 51.543 30.45 83.219z"/></g><g/><g/><g/><g/><g/><g/><g/><g/><g/><g/><g/><g/><g/><g/><g/></svg>