<svg id="Layer_1" enable-background="new 0 0 519 519" viewBox="0 0 519 519" xmlns="http://www.w3.org/2000/svg" fill="#E6ECF2"><g><path d="m467.469 0h-415.938c-19.851 0-36 16.149-36 36v447c0 19.851 16.149 36 36 36h415.938c19.85 0 36-16.149 36-36v-447c0-19.851-16.15-36-36-36zm-415.938 22h415.938c7.72 0 14 6.28 14 14v72.719h-443.938v-72.719c0-7.72 6.28-14 14-14zm415.938 475h-415.938c-7.72 0-14-6.28-14-14v-352.281h443.938v352.281c0 7.72-6.281 14-14 14z"/><path d="m80.891 99.656c-18.911 0-34.297-15.386-34.297-34.297s15.386-34.297 34.297-34.297 34.297 15.386 34.297 34.297c-.001 18.912-15.386 34.297-34.297 34.297zm0-46.594c-6.781 0-12.297 5.516-12.297 12.297s5.516 12.297 12.297 12.297 12.297-5.516 12.297-12.297c-.001-6.78-5.517-12.297-12.297-12.297z" fill="#0496FF"/><path d="m158.547 99.656c-18.911 0-34.297-15.386-34.297-34.297s15.386-34.297 34.297-34.297 34.297 15.386 34.297 34.297c0 18.912-15.386 34.297-34.297 34.297zm0-46.594c-6.781 0-12.297 5.516-12.297 12.297s5.516 12.297 12.297 12.297 12.297-5.516 12.297-12.297c0-6.78-5.516-12.297-12.297-12.297z" fill="#0496FF"/><path d="m456.406 99.656h-129.781c-8.822 0-16-7.178-16-16v-36.594c0-8.822 7.178-16 16-16h129.781c8.822 0 16 7.178 16 16v36.594c0 8.823-7.178 16-16 16zm-123.781-22h117.781v-24.594h-117.781z"/><path d="m290.562 302.185c6.075 0 11-4.925 11-11v-2.547c0-17.411-13.818-31.649-31.062-32.34v-4.564c0-6.075-4.925-11-11-11s-11 4.925-11 11v4.564c-17.245.691-31.062 14.929-31.062 32.34 0 14.407 9.271 26.868 23.07 31.007l7.992 2.398v27.317c-5.102-.648-9.062-5.006-9.062-10.281v-2.546c0-6.075-4.925-11-11-11s-11 4.925-11 11v2.546c0 17.411 13.818 31.649 31.062 32.34v4.565c0 6.075 4.925 11 11 11s11-4.925 11-11v-4.565c17.245-.691 31.062-14.929 31.062-32.34 0-14.407-9.271-26.868-23.07-31.007l-7.992-2.398v-27.317c5.102.648 9.062 5.006 9.062 10.281v2.547c0 6.076 4.925 11 11 11zm-18.392 26.96c4.421 1.326 7.392 5.319 7.392 9.935 0 5.275-3.961 9.633-9.062 10.281v-20.717zm-25.34-30.571c-4.421-1.326-7.392-5.319-7.392-9.935 0-5.275 3.961-9.633 9.062-10.281v20.717z" fill="#0496FF"/><g><g><path d="m197.38 286.03c-7.639.181-13.258-8.226-10.16-15.21 3.667-8.984 16.644-8.983 20.31 0 3.096 6.979-2.516 15.385-10.15 15.21z" fill="#0496FF"/></g></g><g><g><path d="m181.84 317.09c-1.425.001-2.88-.278-4.2-.84-5.495-2.125-8.338-8.972-5.95-14.36 1.088-2.682 3.268-4.864 5.95-5.95 5.388-2.389 12.232.456 14.36 5.95 3.103 6.977-2.536 15.388-10.16 15.2z" fill="#0496FF"/></g></g><g><g><path d="m296.09 394.75c-7.628.172-13.257-8.233-10.15-15.21 2.392-6.275 10.776-8.796 16.26-4.94 6.455 4.104 6.453 14.197 0 18.3-1.794 1.183-3.951 1.861-6.11 1.85z" fill="#0496FF"/></g></g><g><g><path d="m321.63 332.63c-7.667.123-13.25-8.174-10.16-15.21 2.129-5.491 8.957-8.322 14.36-5.95 11.028 4.736 7.784 20.966-4.2 21.16z" fill="#0496FF"/></g></g><path d="m415.344 248.5h-1.209c-4.163-22.005-20.142-46.775-43.781-67.044-31.341-26.874-70.71-41.674-110.854-41.674-95.987 0-174.078 78.091-174.078 174.078s78.091 174.078 174.078 174.078c71.274 0 135.351-43.667 161.654-109.381 11.547-2.648 20.19-12.999 20.19-25.338v-78.719c0-14.336-11.664-26-26-26zm4 26v78.719c0 2.206-1.794 4-4 4h-35.956c4.913-13.542 7.597-28.142 7.597-43.359s-2.684-29.818-7.597-43.359h35.956c2.205-.001 4 1.793 4 3.999zm-54.36 39.359c0 58.164-47.32 105.484-105.484 105.484-50.942 0-105.484-42.386-105.484-105.484 0-58.164 47.32-105.484 105.484-105.484s105.484 47.32 105.484 105.484zm-105.484 152.079c-83.856 0-152.078-68.222-152.078-152.078s68.222-152.078 152.078-152.078c47.081 0 80.69 22.79 96.533 36.375 17.913 15.36 31.086 34.335 35.539 50.343h-22.658c-22.295-37.183-62.994-62.125-109.414-62.125-70.295 0-127.484 57.189-127.484 127.484 0 76.258 65.918 127.484 127.484 127.484 46.42 0 87.118-24.942 109.414-62.125h27.944c-24.979 52.452-78.342 86.72-137.358 86.72z"/></g><g/><g/><g/><g/><g/><g/><g/><g/><g/><g/><g/><g/><g/><g/><g/></svg>