<svg id="Capa_1" enable-background="new 0 0 512 512" viewBox="0 0 512 512" xmlns="http://www.w3.org/2000/svg" fill="#E6ECF2"><g><g fill="#0496FF"><path d="m385.466 315.651h-118.466v-43.479c0-6.075-4.925-11-11-11s-11 4.925-11 11v43.479h-120.641c-39.013 0-70.753 31.747-70.753 70.769v4.115c0 6.075 4.925 11 11 11s11-4.925 11-11v-4.115c0-26.891 21.871-48.769 48.753-48.769h120.641v50.452c0 6.075 4.925 11 11 11s11-4.925 11-11v-50.452h118.466c26.883 0 48.753 21.877 48.753 48.769 0 6.075 4.925 11 11 11s11-4.925 11-11c0-39.023-31.74-70.769-70.753-70.769z"/><path d="m59.663 208.158v-106.458l18.883 18.888c4.294 4.296 11.26 4.297 15.556.002s4.297-11.26.002-15.556l-37.662-37.673c-2.063-2.064-4.861-3.223-7.779-3.223s-5.716 1.159-7.779 3.223l-37.663 37.673c-4.295 4.296-4.294 11.261.002 15.557 2.148 2.147 4.962 3.221 7.777 3.221s5.631-1.074 7.779-3.223l18.884-18.889v106.458c0 6.075 4.925 11 11 11s11-4.925 11-11z"/><path d="m508.779 105.034-37.662-37.673c-2.062-2.064-4.861-3.223-7.779-3.223s-5.716 1.159-7.779 3.223l-37.663 37.673c-4.295 4.296-4.294 11.261.002 15.557 2.148 2.147 4.963 3.221 7.777 3.221 2.815 0 5.631-1.074 7.779-3.223l18.884-18.889v106.458c0 6.075 4.925 11 11 11s11-4.925 11-11v-106.458l18.883 18.888c4.296 4.297 11.261 4.297 15.557.002s4.296-11.259.001-15.556z"/></g><g><path d="m274.285 390.095c-3.816-6.611-10.651-10.558-18.284-10.559-7.633 0-14.469 3.947-18.285 10.558l-52.086 90.24c-3.815 6.61-3.814 14.501.001 21.11 3.816 6.609 10.651 10.555 18.283 10.555h104.172c7.632 0 14.466-3.946 18.282-10.555s3.817-14.5.003-21.111zm-68.833 99.905 50.548-87.575 50.548 87.575z"/><path d="m444.682 377.333c-37.119 0-67.318 30.206-67.318 67.334s30.198 67.333 67.318 67.333 67.318-30.206 67.318-67.333-30.199-67.334-67.318-67.334zm0 112.667c-24.988 0-45.318-20.336-45.318-45.333s20.33-45.334 45.318-45.334 45.318 20.336 45.318 45.334-20.33 45.333-45.318 45.333z"/><path d="m106.264 383.833h-84.389c-12.062 0-21.875 9.813-21.875 21.875v84.418c0 12.061 9.813 21.874 21.875 21.874h84.389c12.062 0 21.875-9.813 21.875-21.875v-84.418c-.001-12.061-9.814-21.874-21.875-21.874zm-.126 106.167h-84.138v-84.167h84.138z"/><path d="m256 0c-77.605 0-140.742 63.152-140.742 140.777s63.137 140.778 140.742 140.778 140.742-63.152 140.742-140.777-63.137-140.778-140.742-140.778zm0 259.555c-65.475 0-118.742-53.283-118.742-118.777s53.267-118.778 118.742-118.778 118.742 53.283 118.742 118.777-53.267 118.778-118.742 118.778z"/><path d="m261.513 127.688h-11.025c-10.702 0-19.409-7.619-19.409-16.983 0-11.395 10.502-20.666 23.41-20.666h3.023c8.569 0 16.454 4.146 20.577 10.821 3.192 5.168 9.97 6.771 15.139 3.578s6.771-9.971 3.578-15.14c-6.482-10.494-17.424-17.794-29.806-20.296v-11.673c0-6.075-4.925-11-11-11s-11 4.925-11 11v11.654c-20.499 4.112-35.921 21.253-35.921 41.721 0 21.496 18.576 38.983 41.409 38.983h11.025c10.702 0 19.409 7.619 19.409 16.983 0 11.395-10.502 20.666-23.41 20.666h-3.023c-9.354 0-17.799-4.915-21.516-12.522-2.668-5.458-9.255-7.722-14.713-5.054-5.458 2.667-7.721 9.254-5.054 14.713 6.035 12.349 17.969 21.122 31.794 23.912v11.25c0 6.075 4.925 11 11 11s11-4.925 11-11v-11.244c20.499-4.111 35.922-21.253 35.922-41.721 0-21.495-18.576-38.982-41.409-38.982z"/></g></g><g/><g/><g/><g/><g/><g/><g/><g/><g/><g/><g/><g/><g/><g/><g/></svg>