<svg id="Layer_1" enable-background="new 0 0 519 519" viewBox="0 0 519 519" xmlns="http://www.w3.org/2000/svg" fill="#052438"><g><g><g><path d="m442.641 188.083-111.723-111.724c-2.064-2.063-4.861-3.222-7.778-3.222s-5.715 1.159-7.778 3.222l-239.005 239.004c-2.062 2.063-3.222 4.861-3.222 7.778s1.159 5.715 3.222 7.778l111.724 111.723c2.148 2.148 4.963 3.222 7.778 3.222s5.63-1.074 7.778-3.222l239.003-239.003c4.296-4.296 4.296-11.261.001-15.556zm-246.782 231.225-96.167-96.166 223.448-223.448 96.166 96.167z"/><path d="m313.492 132.334c-4.323-2.553-9.823-1.855-13.372 1.693l-166.093 166.093c-3.549 3.549-4.245 9.05-1.693 13.372 3.515 5.951 3.515 13.344 0 19.295-2.552 4.322-1.855 9.823 1.693 13.372l38.814 38.814c3.549 3.549 9.051 4.246 13.372 1.693 5.951-3.515 13.344-3.515 19.295 0 1.74 1.028 3.672 1.529 5.59 1.529 2.846 0 5.662-1.103 7.782-3.222l166.093-166.093c3.549-3.549 4.245-9.05 1.693-13.372-3.515-5.951-3.515-13.344 0-19.295 2.552-4.322 1.856-9.823-1.693-13.372l-38.813-38.814c-3.549-3.549-9.053-4.246-13.372-1.693-5.952 3.515-13.345 3.515-19.296 0zm-54.06 159.112c-18.884 0-34.247-15.363-34.247-34.247 0-18.883 15.363-34.246 34.247-34.246s34.246 15.363 34.246 34.246c0 18.884-15.363 34.247-34.246 34.247zm-50.772 72.634c-4.154-1.366-8.478-2.049-12.8-2.049s-8.646.683-12.8 2.049l-28.14-28.14c2.731-8.309 2.731-17.291 0-25.6l48.473-48.473c2.379 28.793 26.523 51.506 55.903 51.575zm127.28-209.16 28.14 28.14c-2.731 8.309-2.731 17.291 0 25.6l-48.405 48.405c-.069-29.38-22.783-53.525-51.576-55.903l46.241-46.242c8.308 2.733 17.291 2.733 25.6 0z"/></g><path d="m323.56 207.47c-7.634.178-13.267-8.229-10.16-15.21 2.395-6.274 10.773-8.795 16.261-4.94 6.454 4.105 6.453 14.197 0 18.3-1.789 1.179-3.952 1.861-6.101 1.85z"/><path d="m196.53 334.5c-7.676.127-13.251-8.174-10.16-15.21 3.656-8.986 16.651-8.991 20.309 0 3.091 7.029-2.482 15.336-10.149 15.21z"/></g></g><path d="m442.994 76.006c-49.013-49.013-114.179-76.006-183.494-76.006-69.22 0-134.3 26.921-183.29 75.807-.009.009-.019.017-.028.026-.004.004-.008.01-.013.014-.054.054-.109.105-.163.159-49.014 49.013-76.006 114.179-76.006 183.494s26.992 134.481 76.006 183.494c49.013 49.013 114.179 76.006 183.494 76.006s134.481-26.993 183.494-76.006c49.014-49.013 76.006-114.179 76.006-183.494s-26.992-134.481-76.006-183.494zm54.006 183.494c0 60.52-22.766 115.815-60.168 157.8l-336.965-333.503c42.201-38.377 98.233-61.797 159.633-61.797 130.958 0 237.5 106.542 237.5 237.5zm-475 0c0-61.66 23.625-117.902 62.291-160.165l337.167 333.703c-42.458 39.652-99.418 63.962-161.958 63.962-130.958 0-237.5-106.542-237.5-237.5z" fill="#0496FF"/><g/><g/><g/><g/><g/><g/><g/><g/><g/><g/><g/><g/><g/><g/><g/></svg>