<svg id="Layer_1" enable-background="new 0 0 512 512" viewBox="0 0 512 512" xmlns="http://www.w3.org/2000/svg" fill="#E6ECF2"><g><g><g><g><path d="m256 275.755c-72.641 0-129.122-84.591-131.49-88.192-2.414-3.669-2.414-8.422 0-12.091 2.368-3.601 58.85-88.193 131.49-88.193s129.122 84.592 131.49 88.193c2.414 3.669 2.414 8.422 0 12.091-2.368 3.601-58.849 88.192-131.49 88.192zm-108.79-94.237c13.687 18.369 58.149 72.238 108.79 72.238 50.771 0 95.137-53.851 108.796-72.229-13.686-18.37-58.152-72.248-108.796-72.248-50.637 0-95.098 53.862-108.79 72.239z" fill="#0496FF"/></g></g></g><g><path d="m265.595 171.937c-8.596-3.033-12.963-4.819-14.188-5.396-1.831-.862-1.781-1.541-1.744-2.036.088-1.198.983-2.41 1.666-2.615 6.496-1.953 9.888.121 10.392.748 3.496 4.962 10.352 6.153 15.318 2.662 4.97-3.494 6.165-10.355 2.671-15.325-2.911-4.14-7.747-7.726-13.95-9.572-1.258-4.69-5.538-8.144-10.625-8.144-5.309 0-9.739 3.761-10.772 8.764-9.24 3.07-15.893 11.77-16.64 21.859-.742 10.029 4.742 19.059 14.315 23.565 2.733 1.287 8.651 3.56 16.236 6.236 4.688 1.654 6.045 4.964 5.813 6.786-.312 2.458-4.186 3.059-5.837 3.203-4.472.389-10.478-.929-12.802-3.809-3.815-4.728-10.738-5.468-15.468-1.653-4.729 3.815-5.469 10.74-1.653 15.468 4.3 5.329 10.237 8.579 16.293 10.34 1.384 4.492 5.568 7.757 10.514 7.757 4.675 0 8.668-2.917 10.261-7.029 11.307-2.706 19.154-10.751 20.518-21.51 1.652-13.035-6.703-25.494-20.318-30.299z"/><path d="m256 0c-102.615 0-186.099 83.499-186.099 186.132 0 41.408 13.307 80.604 38.48 113.352 22.657 29.473 54.079 51.759 89.153 63.396v5.644h-18.589c-6.075 0-11 4.925-11 11v54.494c0 6.075 4.925 11 11 11h18.589v35.295c0 6.075 4.925 11 11 11h36.466v9.687c0 6.075 4.925 11 11 11s11-4.925 11-11v-9.687h36.465c6.075 0 11-4.925 11-11v-35.295h18.589c6.075 0 11-4.925 11-11v-54.494c0-6.075-4.925-11-11-11h-18.589v-5.644c35.074-11.637 66.496-33.923 89.153-63.396 25.174-32.748 38.48-71.944 38.48-113.352.001-102.633-83.483-186.132-186.098-186.132zm36.465 469.313h-72.93v-24.295h72.93zm29.589-46.295h-132.108v-32.494h132.107v32.494zm-21.565-78.86c-4.746 1.333-8.024 5.661-8.024 10.59v13.776h-72.93v-13.776c0-4.929-3.278-9.256-8.023-10.59-70.425-19.792-119.61-84.774-119.61-158.026-.001-90.503 73.614-164.132 164.098-164.132s164.099 73.629 164.099 164.132c0 73.252-49.186 138.235-119.61 158.026z"/></g></g><g/><g/><g/><g/><g/><g/><g/><g/><g/><g/><g/><g/><g/><g/><g/></svg>