<svg id="Layer_1" enable-background="new 0 0 519 519" viewBox="0 0 519 519" xmlns="http://www.w3.org/2000/svg" fill="#E6ECF2"><g><g fill="#0496FF"><path d="m171.1 340.415c0-14.281-10.916-26.058-24.842-27.431l-40.341-80.682-19.678 9.839 35.353 70.707h-72.085l38.859-77.718-19.678-9.839-43.846 87.693c-13.926 1.373-24.842 13.15-24.842 27.431 0 12.286 8.08 22.717 19.205 26.266l6.941 20.823c6.017 18.05 22.842 30.177 41.869 30.177h35.071c19.026 0 35.852-12.127 41.869-30.177l6.941-20.823c11.123-3.55 19.204-13.98 19.204-26.266zm-149.1 0c0-3.069 2.497-5.567 5.567-5.567h115.966c3.07 0 5.567 2.498 5.567 5.567s-2.497 5.566-5.567 5.566h-115.966c-3.07 0-5.567-2.497-5.567-5.566zm102.083 40.132c-3.017 9.052-11.456 15.134-20.998 15.134h-35.07c-9.542 0-17.98-6.082-20.997-15.134l-4.188-12.566h85.443z"/><path d="m519 340.415c0-14.281-10.916-26.058-24.842-27.431l-43.86-87.718-19.678 9.839 38.872 77.743h-72.086l35.367-70.734-19.678-9.839-40.355 80.708c-13.926 1.373-24.842 13.15-24.842 27.431 0 12.286 8.08 22.716 19.205 26.266l6.941 20.823c6.017 18.05 22.842 30.177 41.868 30.177h35.071c19.025 0 35.852-12.127 41.869-30.177l6.941-20.823c11.127-3.549 19.207-13.979 19.207-26.265zm-149.1 0c0-3.069 2.497-5.567 5.566-5.567h115.967c3.069 0 5.566 2.498 5.566 5.567s-2.497 5.566-5.566 5.566h-115.966c-3.07 0-5.567-2.497-5.567-5.566zm102.083 40.132c-3.018 9.053-11.456 15.135-20.998 15.135h-35.071c-9.542 0-17.979-6.082-20.997-15.134l-4.189-12.566h85.443z"/></g><path d="m483.103 185.816c-3.684-8.839-10.589-15.715-19.443-19.361-8.823-3.633-18.528-3.627-27.342.019l-60.662 24.031-37.258-37.258c-14.593-14.594-33.996-22.632-54.636-22.632h-2.205c25.713-9.108 44.187-33.658 44.187-62.454 0-36.526-29.717-66.243-66.243-66.243-36.527 0-66.244 29.717-66.244 66.243 0 28.795 18.474 53.346 44.188 62.454h-2.206c-20.639 0-40.043 8.037-54.636 22.631l-37.26 37.26-60.743-24.037c-17.879-7.383-38.726.992-46.507 18.711-3.836 8.736-3.962 18.505-.355 27.508 3.647 9.101 10.902 16.472 19.905 20.223.05.021.1.041.15.061l82.32 32.886c4.368 1.807 8.977 2.724 13.7 2.724 9.578 0 18.583-3.729 25.355-10.501l5.067-5.067v227.658c0 9.753 4.014 19.284 11.012 26.151 6.923 6.792 16.005 10.448 25.528 10.252 19.387-.368 35.16-16.447 35.16-35.843v-146.384h11.133v145.824c0 9.753 4.014 19.284 11.012 26.151 6.759 6.631 15.56 10.258 24.85 10.258.226 0 .452-.002.679-.006 19.388-.368 35.16-16.447 35.16-35.843v-228.218l5.067 5.067c6.771 6.772 15.776 10.501 25.354 10.501 4.725 0 9.335-.917 13.705-2.726l82.759-33.099c.049-.02.098-.039.146-.06 18.245-7.603 26.905-28.633 19.303-46.881zm-267.847-117.655c0-24.396 19.848-44.243 44.244-44.243 24.395 0 44.243 19.847 44.243 44.243s-19.848 44.244-44.243 44.244c-24.396-.001-44.244-19.848-44.244-44.244zm240.141 144.204-82.741 33.091c-.049.02-.098.04-.146.06-1.698.707-3.488 1.066-5.321 1.066-3.702 0-7.183-1.441-9.799-4.057l-23.845-23.845c-3.146-3.146-7.878-4.086-11.988-2.384-4.11 1.703-6.79 5.713-6.79 10.163v254.773c0 7.493-6.091 13.705-13.578 13.847-3.572.075-7.03-1.338-9.702-3.96-2.809-2.756-4.42-6.564-4.42-10.447v-152.682c0-8.349-6.792-15.142-15.142-15.142h-24.85c-8.35 0-15.142 6.793-15.142 15.142v153.242c0 7.493-6.091 13.705-13.578 13.847-3.562.075-7.03-1.338-9.702-3.96-2.809-2.756-4.42-6.564-4.42-10.447v-254.214c0-4.449-2.68-8.46-6.791-10.163-4.11-1.703-8.841-.762-11.988 2.384l-23.845 23.844c-2.617 2.617-6.097 4.058-9.799 4.058-1.833 0-3.624-.358-5.321-1.066-.05-.021-.1-.041-.15-.061l-82.299-32.877c-3.556-1.502-6.427-4.44-7.883-8.073-1.392-3.474-1.365-7.196.077-10.479 3.01-6.855 11.085-10.089 18.005-7.206.061.025.122.05.183.074l65.015 25.727c5.618 2.221 12.006.897 16.277-3.374l40.444-40.445c10.439-10.438 24.317-16.188 39.08-16.188l48.523-.001c14.763 0 28.641 5.749 39.079 16.188l40.444 40.444c4.272 4.273 10.663 5.596 16.284 3.371l64.935-25.724c.061-.024.12-.048.181-.073 3.412-1.423 7.175-1.431 10.599-.022 3.421 1.409 6.089 4.066 7.512 7.48 2.929 7.031-.39 15.13-7.398 18.089z"/></g><g/><g/><g/><g/><g/><g/><g/><g/><g/><g/><g/><g/><g/><g/><g/></svg>