<svg id="Capa_1" enable-background="new 0 0 512 512" viewBox="0 0 512 512" xmlns="http://www.w3.org/2000/svg" fill="#E6ECF2"><g><g fill="#0496FF"><path d="m417.829 168.29c-4.529-4.049-11.483-3.66-15.532.868l-17.074 19.096v-55.425c0-20.613-16.77-37.383-37.382-37.383h-78.075c-6.075 0-11 4.925-11 11s4.925 11 11 11h78.075c8.481 0 15.382 6.901 15.382 15.383v55.425l-17.073-19.096c-4.049-4.53-11.003-4.919-15.532-.869-4.528 4.049-4.918 11.003-.868 15.532l36.273 40.57c2.087 2.334 5.069 3.668 8.2 3.668s6.113-1.334 8.2-3.668l36.274-40.57c4.049-4.528 3.66-11.482-.868-15.531z"/><path d="m261.426 444.009h-97.267c-8.482 0-15.382-6.901-15.382-15.383v-75.425l17.074 19.096c2.173 2.43 5.182 3.668 8.204 3.668 2.609 0 5.229-.923 7.328-2.8 4.529-4.049 4.917-11.003.868-15.532l-36.274-40.57c-2.087-2.334-5.069-3.668-8.2-3.668s-6.113 1.334-8.2 3.668l-36.274 40.57c-4.049 4.529-3.661 11.483.868 15.532 4.53 4.05 11.484 3.66 15.532-.868l17.074-19.096v75.425c0 20.613 16.77 37.383 37.382 37.383h97.267c6.075 0 11-4.925 11-11s-4.925-11-11-11z"/></g><g><path d="m258.909 236.431v-75.243c10.509-.965 18.769-9.819 18.769-20.576v-67.585c0-11.399-9.273-20.672-20.672-20.672h-51.439v-27.031c-.001-13.964-11.361-25.324-25.324-25.324h-82.808c-13.963 0-25.323 11.36-25.323 25.324v27.031h-51.44c-11.399 0-20.672 9.273-20.672 20.672v67.584c0 10.756 8.26 19.611 18.769 20.576v75.243c0 11.399 9.274 20.673 20.673 20.673h198.795c11.399.001 20.672-9.273 20.672-20.672zm-164.797-211.107c0-1.833 1.491-3.324 3.323-3.324h82.808c1.833 0 3.324 1.491 3.324 3.324v27.031h-89.455zm-72.112 49.031h233.678v64.929h-66.151v-4.023c0-11.399-9.273-20.672-20.672-20.672h-60.03c-11.399 0-20.672 9.273-20.672 20.672v4.023h-66.153zm145.526 62.233v27.392h-57.375v-27.392zm-126.757 98.516v-73.82h47.383v4.023c0 11.399 9.273 20.672 20.672 20.672h60.03c11.399 0 20.672-9.273 20.672-20.672v-4.023h47.383v73.82z"/><path d="m491.327 307.251h-51.438v-27.031c0-13.963-11.36-25.324-25.324-25.324h-82.808c-13.963 0-25.323 11.36-25.323 25.324v27.032h-51.439c-11.399 0-20.673 9.273-20.673 20.672v67.584c0 10.756 8.26 19.611 18.769 20.576v75.244c0 11.399 9.273 20.672 20.673 20.672h198.795c11.399 0 20.673-9.273 20.673-20.672v-75.244c10.509-.965 18.769-9.82 18.769-20.576v-67.584c-.001-11.399-9.274-20.673-20.674-20.673zm-162.893-27.031c0-1.833 1.491-3.324 3.323-3.324h82.808c1.833 0 3.324 1.491 3.324 3.324v27.032h-89.455zm-72.112 49.031h233.678v64.929h-66.151v-4.023c0-11.399-9.273-20.673-20.673-20.673h-60.029c-11.399 0-20.673 9.274-20.673 20.673v4.023h-66.152zm145.527 62.233v27.392h-57.375v-27.392zm-126.758 98.516v-73.82h47.383v4.023c0 11.399 9.273 20.672 20.673 20.672h60.029c11.399 0 20.673-9.273 20.673-20.672v-4.023h47.383v73.82z"/></g></g><g/><g/><g/><g/><g/><g/><g/><g/><g/><g/><g/><g/><g/><g/><g/></svg>