<svg id="Layer_1" enable-background="new 0 0 525.291 525.291" viewBox="0 0 525.291 525.291" xmlns="http://www.w3.org/2000/svg" fill="#052438"><g><g><path d="m455.879 417.73h-22v-26.407h-143.667v26.407h-22v-33.266c0-8.349 6.793-15.142 15.142-15.142h157.384c8.349 0 15.142 6.793 15.142 15.142v33.266z"/><path d="m257.078 417.73h-22v-26.407h-143.666v26.407h-22v-33.266c0-8.349 6.793-15.142 15.142-15.142h157.383c8.349 0 15.142 6.793 15.142 15.142v33.266z"/><path d="m58.279 417.73h-22v-53.974c0-15.2 12.367-27.566 27.567-27.566h171.233v-43.174h22v50.033c0 8.349-6.793 15.142-15.142 15.142h-178.092c-3.069 0-5.567 2.497-5.567 5.566v53.973z"/><path d="m489.012 417.73h-22v-53.974c0-3.069-2.497-5.566-5.567-5.566h-178.092c-8.349 0-15.142-6.793-15.142-15.142v-50.033h22v43.174h171.233c15.201 0 27.567 12.366 27.567 27.566v53.975z"/></g><g fill="#0496FF"><g><path d="m63.845 492.157c-15.2 0-27.567-12.367-27.567-27.567s12.367-27.566 27.567-27.566 27.566 12.366 27.566 27.566c.001 15.2-12.365 27.567-27.566 27.567zm0-33.133c-3.07 0-5.567 2.497-5.567 5.566 0 3.07 2.497 5.567 5.567 5.567 3.069 0 5.566-2.497 5.566-5.567.001-3.069-2.496-5.566-5.566-5.566z"/><path d="m63.845 525.291c-33.47 0-60.7-27.23-60.7-60.7s27.23-60.7 60.7-60.7 60.7 27.23 60.7 60.7c0 33.469-27.23 60.7-60.7 60.7zm0-99.4c-21.339 0-38.7 17.361-38.7 38.7s17.361 38.7 38.7 38.7 38.7-17.361 38.7-38.7c0-21.34-17.361-38.7-38.7-38.7z"/><path d="m262.645 492.157c-15.2 0-27.567-12.367-27.567-27.567s12.367-27.566 27.567-27.566 27.566 12.366 27.566 27.566c.001 15.2-12.366 27.567-27.566 27.567zm0-33.133c-3.07 0-5.567 2.497-5.567 5.566 0 3.07 2.497 5.567 5.567 5.567 3.069 0 5.566-2.497 5.566-5.567.001-3.069-2.496-5.566-5.566-5.566z"/><path d="m262.645 525.291c-33.47 0-60.7-27.23-60.7-60.7s27.23-60.7 60.7-60.7 60.7 27.23 60.7 60.7c0 33.469-27.23 60.7-60.7 60.7zm0-99.4c-21.339 0-38.7 17.361-38.7 38.7s17.361 38.7 38.7 38.7c21.34 0 38.7-17.361 38.7-38.7 0-21.34-17.36-38.7-38.7-38.7z"/><path d="m461.445 492.157c-15.2 0-27.566-12.367-27.566-27.567s12.366-27.566 27.566-27.566c15.201 0 27.567 12.366 27.567 27.566s-12.366 27.567-27.567 27.567zm0-33.133c-3.069 0-5.566 2.497-5.566 5.566 0 3.07 2.497 5.567 5.566 5.567 3.07 0 5.567-2.497 5.567-5.567 0-3.069-2.497-5.566-5.567-5.566z"/><path d="m461.445 525.291c-33.47 0-60.7-27.23-60.7-60.7s27.23-60.7 60.7-60.7 60.7 27.23 60.7 60.7c0 33.469-27.23 60.7-60.7 60.7zm0-99.4c-21.34 0-38.7 17.361-38.7 38.7s17.36 38.7 38.7 38.7 38.7-17.361 38.7-38.7c0-21.34-17.36-38.7-38.7-38.7z"/></g><g><path d="m262.645 160.824c-33.47 0-60.7-27.23-60.7-60.7s27.23-60.7 60.7-60.7 60.7 27.23 60.7 60.7-27.23 60.7-60.7 60.7zm0-99.4c-21.339 0-38.7 17.361-38.7 38.7s17.361 38.7 38.7 38.7c21.34 0 38.7-17.361 38.7-38.7s-17.36-38.7-38.7-38.7z"/><path d="m262.645 0c-82.613 0-149.824 67.21-149.824 149.824s67.211 149.824 149.824 149.824 149.824-67.211 149.824-149.824-67.21-149.824-149.824-149.824zm-63.623 260.66c.002-.02.007-.04.01-.06l3.479-32.11c2.133-19.686 18.673-34.532 38.475-34.532h43.32c19.802 0 36.342 14.846 38.476 34.532l3.479 32.112c.002.02.007.039.009.059-18.747 10.803-40.477 16.988-63.623 16.988-23.149-.001-44.878-6.186-63.625-16.989zm147.778-14.708-2.148-19.833c-3.345-30.877-29.288-54.162-60.347-54.162h-43.32c-31.058 0-57.002 23.285-60.347 54.163l-2.148 19.832c-26.749-23.447-43.669-57.846-43.669-96.128 0-70.483 57.342-127.824 127.824-127.824s127.824 57.341 127.824 127.824c0 38.281-16.919 72.681-43.669 96.128z"/></g></g></g><g/><g/><g/><g/><g/><g/><g/><g/><g/><g/><g/><g/><g/><g/><g/></svg>