<svg id="Layer_1" enable-background="new 0 0 512 512" viewBox="0 0 512 512" xmlns="http://www.w3.org/2000/svg" fill="#052438"><g><g fill="#0496FF"><path d="m100.5 67.5h22c6.075 0 11-4.925 11-11s-4.925-11-11-11h-22c-18.196 0-33 14.804-33 33s14.804 33 33 33c6.065 0 11 4.935 11 11s-4.935 11-11 11h-22c-6.075 0-11 4.925-11 11s4.925 11 11 11h22c18.196 0 33-14.804 33-33s-14.804-33-33-33c-6.065 0-11-4.935-11-11s4.935-11 11-11z"/><path d="m100.5 356.5c-18.196 0-33 14.804-33 33v44c0 18.196 14.804 33 33 33s33-14.804 33-33v-44c0-18.196-14.804-33-33-33zm11 77c0 6.065-4.935 11-11 11s-11-4.935-11-11v-44c0-6.065 4.935-11 11-11s11 4.935 11 11z"/><path d="m433.5 45.5c-6.075 0-11 4.925-11 11v63.134l-3.601-3.273c-4.195-3.814-10.604-3.814-14.799 0l-3.601 3.273v-63.134c0-6.075-4.925-11-11-11s-11 4.925-11 11v88c0 4.354 2.568 8.298 6.55 10.06s8.628 1.009 11.85-1.92l14.601-13.273 14.601 13.273c2.065 1.878 4.716 2.861 7.401 2.861 1.504 0 3.02-.308 4.448-.94 3.981-1.761 6.55-5.706 6.55-10.06v-88c0-6.076-4.925-11.001-11-11.001z"/><path d="m433.5 356.5h-44c-6.075 0-11 4.925-11 11s4.925 11 11 11h11v77c0 6.075 4.925 11 11 11s11-4.925 11-11v-77h11c6.075 0 11-4.925 11-11s-4.925-11-11-11z"/></g><g><path d="m100.5 311c-55.416 0-100.5 45.084-100.5 100.5s45.084 100.5 100.5 100.5 100.5-45.084 100.5-100.5-45.084-100.5-100.5-100.5zm0 179c-43.285 0-78.5-35.215-78.5-78.5s35.215-78.5 78.5-78.5 78.5 35.215 78.5 78.5-35.215 78.5-78.5 78.5z"/><path d="m411.5 311c-55.416 0-100.5 45.084-100.5 100.5s45.084 100.5 100.5 100.5 100.5-45.084 100.5-100.5-45.084-100.5-100.5-100.5zm0 179c-43.285 0-78.5-35.215-78.5-78.5s35.215-78.5 78.5-78.5 78.5 35.215 78.5 78.5-35.215 78.5-78.5 78.5z"/><path d="m100.5 201c55.416 0 100.5-45.084 100.5-100.5s-45.084-100.5-100.5-100.5-100.5 45.084-100.5 100.5 45.084 100.5 100.5 100.5zm0-179c43.285 0 78.5 35.215 78.5 78.5s-35.215 78.5-78.5 78.5-78.5-35.215-78.5-78.5 35.215-78.5 78.5-78.5z"/><path d="m411.5 201c55.416 0 100.5-45.084 100.5-100.5s-45.084-100.5-100.5-100.5-100.5 45.084-100.5 100.5 45.084 100.5 100.5 100.5zm0-179c43.285 0 78.5 35.215 78.5 78.5s-35.215 78.5-78.5 78.5-78.5-35.215-78.5-78.5 35.215-78.5 78.5-78.5z"/><path d="m278 348.091h-11v-21.244c18.371-2.335 36.137-10.52 50.214-24.596 16.351-16.351 25.355-38.09 25.355-61.213s-9.005-44.863-25.355-61.214c-33.754-33.753-88.674-33.753-122.428 0-16.351 16.351-25.355 38.09-25.355 61.214s9.005 44.863 25.355 61.213c14.081 14.08 31.841 22.263 50.214 24.597v21.244h-11c-6.075 0-11 4.925-11 11v119.908c0 18.196 14.804 33 33 33s33-14.804 33-33v-119.909c0-6.075-4.925-11-11-11zm-86.569-107.054c0-17.247 6.717-33.462 18.912-45.657 12.588-12.588 29.122-18.881 45.657-18.881s33.069 6.293 45.657 18.881c12.195 12.195 18.912 28.41 18.912 45.657s-6.717 33.461-18.912 45.657-28.41 18.912-45.657 18.912-33.462-6.716-45.657-18.912c-12.196-12.196-18.912-28.41-18.912-45.657zm75.569 129.054v28.221h-22v-28.221zm-11 119.909c-6.065 0-11-4.935-11-11v-58.688h22v58.688c0 6.065-4.935 11-11 11z"/></g></g><g/><g/><g/><g/><g/><g/><g/><g/><g/><g/><g/><g/><g/><g/><g/></svg>