<svg id="Capa_1" enable-background="new 0 0 512.003 512.003" viewBox="0 0 512.003 512.003" xmlns="http://www.w3.org/2000/svg" fill="#E6ECF2"><g id="XMLID_1465_"><g id="XMLID_1181_"><path d="" style="fill:none;stroke:#E6ECF2;stroke-width:22;stroke-linecap:round;stroke-linejoin:round;stroke-miterlimit:10"/></g><g id="XMLID_1180_"><path d="m326.44 313.135c-.06.25-.1.5-.13.76.03-.234.086-.519.13-.76z"/><path d="m327.14 310.955c-.03.05-.05.11-.07.17-.05.09-.09.18-.12.27.03-.09.07-.19.12-.29.02-.05.04-.1.07-.15z"/></g><g id="XMLID_2410_"><path d="m250.98 383.315c-.496-2.242-.254-4.804.81-6.98.51 2.4.2 4.85-.81 6.98z"/><path d="m393.24 352.455-3.11-2.89c1.24.76 2.29 1.75 3.11 2.89z"/></g><g id="XMLID_2409_"><path d="m250.98 383.315c-.496-2.242-.254-4.804.81-6.98.51 2.4.2 4.85-.81 6.98z"/><path d="m326.44 313.135c-.06.25-.1.5-.13.76.03-.234.086-.519.13-.76z"/><path d="m326.58 312.515c-.05.21-.1.41-.14.62l.06-.32z"/></g><g id="XMLID_1175_"><path d="m326.39 313.405c-.03.17-.06.33-.08.49.03-.26.07-.51.13-.76z"/><path d="m326.39 313.405c-.03.17-.06.33-.08.49.03-.26.07-.51.13-.76z"/><path d="m326.39 313.405c-.03.17-.06.33-.08.49.03-.26.07-.51.13-.76z"/><path d="m326.39 313.405c-.03.17-.06.33-.08.49.03-.26.07-.51.13-.76z"/><path d="m511.03 470.735c-27.98-108.338-9.642-78.83-83.33-163.37l2.11-11.73 5.84 8.4c4.67 6.73 11.68 11.23 19.74 12.68 26.696 4.832 46.101-25.302 30.6-47.65 0 0-51.2-73.69-51.2-73.69s-.2-.29-.2-.29c-.15-.22-.31-.43-.47-.63.02 0 .04 0 .06-.02 15.687-6.389 26.213-20.916 28.51-37.58 5.04-25.07-11.26-49.56-36.33-54.59-24.338-5.419-50.189 11.786-54.59 36.33-3.278 12.549-1.648 26.026 4.76 36.529-3.65 1.3-7.17 3.04-10.48 5.21-.825.398-100.002 69.505-100.822 70.001-22.511 15.6-15.282 50.842 11.642 55.629 8.059 1.45 16.2-.33 22.92-5l32.96-22.9-5.43 30.19-.13.69c-.01.02-.01.04-.01.05-.102.685-.141 1.408-.11 2.11.02-.05.04-.1.07-.15-.03.05-.05.11-.07.17-.05.09-.09.18-.12.27v.01c-.138.36-.259.737-.37 1.11-.05.21-.1.41-.14.62l.06-.32-21 72.24-40.05-14.38c-5.39-1.93-11.29.58-13.66 5.66.51 2.4.2 4.85-.81 6.98.76 3.6 3.32 6.73 7.03 8.06l51.07 18.34c2.84 1.027 6.01.826 8.71-.55 2.71-1.38 4.72-3.82 5.57-6.73 0 0 19.43-66.86 19.43-66.86l28.36 26.38-25.47 61.15c-5.59 13.39-21.08 19.87-34.53 14.44l-66.87-26.96c-5.51-2.22-8.36-8.18-6.62-13.87.93-3.03 4.3-6.53 7.68-7.97 2.59-1.1 4.53-3.07 5.64-5.43-.496-2.242-.254-4.804.81-6.98-1.361-6.672-8.808-10.585-15.06-7.83-27.989 11.929-29.115 50.726-.68 62.49 0 0 66.87 26.96 66.87 26.96 5.9 2.37 12 3.5 18.03 3.5 19.07 0 37.28-11.29 45.04-29.88 0 0 22.34-53.64 22.34-53.64l33.48 31.15s26.6 79.82 26.6 79.82c7.941 24.504 40.974 30.211 56.65 9.79 6.23-7.959 8.4-18.149 5.97-27.959zm-71.37-229.8s28.27 40.68 28.27 40.68c2.72 3.92 1.74 9.32-2.17 12.04-3.769 2.734-9.468 1.707-12.04-2.17 0 0-18.39-26.47-18.39-26.47zm-47.1-94.159s.77-3.85.77-3.85c2.038-11.124 12.595-19.743 23.85-19.58 15.162-.161 27.108 14.308 23.94 29.18 0 0-.77 3.85-.77 3.85-2.321 12.904-15.902 21.941-28.7 19.1-13.17-2.651-21.73-15.521-19.09-28.7zm-38.33 97.849c-3.75-2.4-8.57-2.31-12.22.23l-54.77 38.05c-1.9 1.31-4.19 1.81-6.47 1.4-7.737-1.376-9.547-11.403-2.99-15.9 0 0 99.5-69.13 99.5-69.13 12.304-8.956 30.801-5.363 38.77 7.62 0 0 0 0 .01.01 3.72 5.82 5.09 12.71 3.85 19.54l-13.17 73.18h-55.52l7.89-43.79c.79-4.38-1.14-8.799-4.88-11.21zm133.5 240.51c-5.078 6.64-15.887 4.789-18.45-3.18 0 0-27.49-82.49-27.49-82.49-.58-1.74-1.6-3.32-2.94-4.57l-45.61-42.44-3.11-2.89s-30.03-27.94-30.03-27.94h50.85l45.57 52.33c7.18 8.24 12.36 18.21 14.99 28.82l18.17 73.26c.79 3.19.08 6.51-1.95 9.1z"/><path d="m327.07 311.105c.02-.05.04-.1.07-.15-.03.05-.05.11-.07.17-.05.09-.09.18-.12.27v.01c-.138.36-.259.737-.37 1.11-.05.21-.1.41-.14.62l.06-.32.68-3.82c-.102.685-.141 1.408-.11 2.11z"/><path d="m434.79 195.375c-.207-.305-.442-.641-.67-.92.02 0 .04 0 .06-.02.21.31.42.62.61.94z"/></g><g id="XMLID_1182_"><path d="m253.406 400.99c-2.77 0-5.443-1.046-7.481-2.936l-81.869-75.957c-4.454-4.132-4.714-11.092-.583-15.545 0 0 56.8-61.222 56.8-61.222 3.937-4.405 11.283-4.692 15.545-.582 0 0 81.869 75.957 81.869 75.957 4.454 4.132 4.715 11.092.582 15.545l-56.8 61.222c-2.073 2.24-5.009 3.52-8.063 3.518zm-66.323-87.539 65.741 60.994 41.837-45.094-65.741-60.994z" fill="#0496FF"/></g><g id="XMLID_806_"><path d="m327.14 310.955c-.03.05-.05.11-.07.17 0-.01 0-.02 0-.02.02-.05.04-.1.07-.15z"/></g><g id="XMLID_2027_"><g id="XMLID_2029_"><path d="m99.048 181.781c-8.931.097-14.278-10.519-8.753-17.651 0 0 26.472-34.872 26.472-34.872l.091-72.38c.597-14.571 21.421-14.587 22 .028 0 0-.096 76.075-.096 76.075-.003 2.397-.789 4.728-2.238 6.637l-28.706 37.815c-2.164 2.849-5.448 4.348-8.77 4.348z" fill="#0496FF"/></g><g><path d="m124.768 249.75c-68.797 0-124.768-55.971-124.768-124.768 6.854-165.522 242.707-165.473 249.536.001 0 68.796-55.971 124.767-124.768 124.767zm0-227.536c-56.666 0-102.768 46.102-102.768 102.768 5.645 136.336 199.911 136.296 205.536-.001 0-56.665-46.102-102.767-102.768-102.767z"/></g></g></g><g/><g/><g/><g/><g/><g/><g/><g/><g/><g/><g/><g/><g/><g/><g/></svg>