<svg id="Layer_1" enable-background="new 0 0 512 512" viewBox="0 0 512 512" xmlns="http://www.w3.org/2000/svg" fill="#E6ECF2"><g><g><g><g><g><g><path d="m255.418 258.541c-2.807 0-5.613-1.067-7.761-3.204-4.305-4.286-4.321-11.25-.035-15.556l12.177-12.233c4.285-4.306 11.249-4.322 15.556-.036 4.306 4.286 4.322 11.25.036 15.556l-12.177 12.233c-2.149 2.159-4.972 3.24-7.796 3.24z" fill="#0496FF"/></g></g><g><g><path d="m246.163 198.666h-17.457c-6.075 0-11-4.925-11-11s4.925-11 11-11h17.457c6.075 0 11 4.925 11 11s-4.925 11-11 11z" fill="#0496FF"/></g></g><g><g><path d="m314.996 285.347c-6.075 0-11-4.925-11-11v-17.536c0-6.075 4.925-11 11-11s11 4.925 11 11v17.536c0 6.075-4.925 11-11 11z" fill="#0496FF"/></g></g></g></g></g><g><path d="m398.77 111.439c-10.386-3.671-16.412-6.079-18.418-7.026-3.813-1.798-4.102-4.077-3.985-5.634.199-2.695 2.131-5.42 4.306-6.075 9.453-2.848 15.297.198 16.646 2.119 3.488 4.973 10.349 6.177 15.322 2.686 4.973-3.49 6.176-10.35 2.686-15.323-3.636-5.182-9.891-9.606-17.978-11.571-.592-5.517-5.262-9.812-10.936-9.812-5.914 0-10.738 4.667-10.989 10.52-.364.101-.73.207-1.097.318-10.845 3.267-19.027 13.758-19.899 25.513-.868 11.712 5.315 21.865 16.539 27.158 3.401 1.605 10.863 4.474 20.471 7.871 6.897 2.438 9.978 7.881 9.454 11.997-.658 5.181-6.693 6.473-10.232 6.783-6.575.573-15.214-1.304-19-6.006-3.812-4.732-10.734-5.479-15.467-1.668-4.731 3.811-5.479 10.735-1.668 15.467 5.47 6.793 13.228 10.738 21.015 12.704.804 5.283 5.366 9.331 10.874 9.331 5.235 0 9.615-3.656 10.727-8.554 14.083-2.768 23.931-12.333 25.577-25.284 1.933-15.242-7.914-29.844-23.948-35.514z"/><path d="m387.519 0c-68.389 0-124.026 55.744-124.026 124.262s55.638 124.262 124.026 124.262 124.026-55.744 124.026-124.262-55.637-124.262-124.026-124.262zm0 226.524c-56.258 0-102.026-45.875-102.026-102.262s45.768-102.262 102.026-102.262 102.026 45.875 102.026 102.262-45.768 102.262-102.026 102.262z"/><path d="m303.772 303.718c-2.063-2.068-4.865-3.23-7.786-3.23s-5.723 1.162-7.786 3.23l-92.186 92.377c-10.646 10.667-24.823 16.542-39.924 16.542s-29.278-5.875-39.924-16.542c-22.032-22.078-22.032-58.001 0-80.079l92.185-92.377c4.285-4.294 4.285-11.246 0-15.54l-54.615-54.729c-2.063-2.068-4.865-3.23-7.786-3.23s-5.723 1.162-7.786 3.23l-92.185 92.377c-60.699 60.825-60.699 159.793 0 220.618 29.366 29.428 68.472 45.635 110.111 45.635s80.745-16.207 110.111-45.635l92.186-92.377c4.285-4.294 4.285-11.246 0-15.54zm-157.822-127.006 39.075 39.157-21.27 21.315-39.112-39.12zm-84.399 84.575 47.551-47.65 39.112 39.12-47.62 47.72c-28.31 28.369-30.414 73.207-6.312 104.024l-40.125 38.292c-44.624-52.601-42.159-131.85 7.394-181.506zm189.078 189.538c-25.21 25.262-58.784 39.175-94.539 39.175-32.023 0-62.297-11.16-86.379-31.64l40.417-38.57c13.277 9.643 29.213 14.847 45.962 14.847 20.985 0 40.694-8.169 55.496-23.002l47.694-47.793 39.113 39.119zm63.304-63.436-39.113-39.119 21.165-21.209 39.075 39.157z"/></g></g><g/><g/><g/><g/><g/><g/><g/><g/><g/><g/><g/><g/><g/><g/><g/></svg>