<svg id="Layer_1" enable-background="new 0 0 523.478 523.478" viewBox="0 0 523.478 523.478" xmlns="http://www.w3.org/2000/svg" fill="#052438"><g><g><g fill="#0496FF"><path d="m261.739 256.482c-33.47 0-60.7-27.23-60.7-60.7s27.23-60.7 60.7-60.7 60.7 27.23 60.7 60.7-27.23 60.7-60.7 60.7zm0-99.4c-21.34 0-38.7 17.361-38.7 38.7s17.36 38.7 38.7 38.7 38.7-17.361 38.7-38.7-17.36-38.7-38.7-38.7z"/><path d="m263.241 384.648c-10.696 0-21.517-1.02-32.373-3.072-29.177-5.517-48.39-16.519-49.193-16.985-3.765-2.181-5.89-6.377-5.421-10.702l3.479-32.111c3.345-30.877 29.288-54.162 60.347-54.162h43.32c31.059 0 57.002 23.285 60.347 54.162l3.479 32.112c.48 4.432-1.762 8.714-5.676 10.846-24.244 13.196-50.861 19.912-78.309 19.912zm-64.292-35.996c7.21 3.283 20.231 8.407 36.79 11.453 31.393 5.776 61.232 1.952 88.8-11.359l-2.664-24.598c-2.134-19.686-18.674-34.531-38.475-34.531h-43.32c-19.802 0-36.342 14.845-38.475 34.532z"/></g></g><path d="m498.897 158.499c-2.74-6.152-8.341-10.209-14.653-11.171-6.229-11.855-13.401-23.231-21.426-33.935 5.534-6.634 8.612-15.175 8.53-23.896-.092-9.698-3.928-18.683-10.801-25.301-13.327-12.832-34.44-13.222-48.26-1.326-10.101-7.571-20.792-14.379-31.897-20.344.748-8.053-3.605-15.824-11.171-19.272-33.857-15.43-70.019-23.254-107.48-23.254s-73.623 7.824-107.481 23.254c-7.569 3.449-11.923 11.227-11.169 19.285-11.135 5.979-21.836 12.787-31.935 20.359-6.548-5.462-14.952-8.531-23.554-8.531-.113 0-.229 0-.343.001-9.697.092-18.683 3.928-25.301 10.801-12.829 13.327-13.223 34.438-1.325 48.259-7.6 10.14-14.431 20.873-20.412 32.022-6.309.916-11.934 4.922-14.726 11.045-15.43 33.862-23.254 70.025-23.254 107.483 0 37.459 7.824 73.621 23.255 107.483 2.793 6.126 8.42 10.15 14.736 11.062 5.985 11.156 12.82 21.893 20.428 32.038-11.673 13.943-11.399 34.855 1.127 48.044 6.722 7.078 15.793 11.044 25.542 11.17 8.818.119 17.238-2.953 23.867-8.687 10.138 7.599 20.87 14.429 32.02 20.41.916 6.311 4.922 11.936 11.045 14.726 33.858 15.43 70.021 23.254 107.481 23.254s73.623-7.824 107.481-23.254c6.123-2.79 10.129-8.415 11.045-14.726 11.164-5.989 21.909-12.829 32.059-20.44 6.548 5.462 14.952 8.531 23.554 8.531.113 0 .229-.001.343-.001 9.697-.092 18.683-3.928 25.301-10.801 12.829-13.327 13.223-34.438 1.325-48.259 7.596-10.134 14.423-20.861 20.401-32.004 6.315-.912 11.943-4.937 14.736-11.064 15.43-33.861 23.254-70.023 23.254-107.481 0-36.709-7.517-72.198-22.342-105.48zm-75.39-75.875 2.39-2.389c5.298-5.298 13.995-5.386 19.393-.19 2.583 2.487 4.024 5.917 4.061 9.661.037 3.935-1.517 7.766-4.264 10.513l-1.988 1.989c-5.423 5.419-5.927 14.059-1.173 20.098 7.256 9.215 13.803 19.021 19.576 29.257l-40.63 10.446c-1.357.349-2.671.804-3.94 1.343-14.256-21.959-33.009-40.63-55.021-54.833 1.364-2.237 2.423-4.677 3.114-7.271l9.782-36.68c9.988 5.679 19.574 12.114 28.605 19.225 6.035 4.754 14.676 4.251 20.095-1.169zm-76.805 320.419c-6.512-2.07-13.573-1.656-19.849 1.261-20.463 9.516-42.37 14.341-65.113 14.341s-44.65-4.825-65.113-14.341c-6.275-2.918-13.337-3.331-19.849-1.261-22.052-13.5-40.602-32.049-54.102-54.102 2.07-6.514 1.657-13.575-1.261-19.849-9.517-20.464-14.342-42.372-14.342-65.113s4.825-44.649 14.341-65.113c2.918-6.274 3.332-13.335 1.262-19.848 14.651-23.936 35.219-43.708 59.78-57.416.872.084 1.746.133 2.62.133 3.941 0 7.881-.853 11.551-2.56 20.463-9.516 42.37-14.341 65.113-14.341s44.65 4.825 65.113 14.341c4.516 2.1 9.44 2.901 14.275 2.417.263.181.53.356.813.517 24.569 13.921 45.069 33.932 59.575 58.087-2.117 6.495-1.759 13.559 1.106 19.862 9.148 20.124 13.785 41.631 13.785 63.921 0 22.742-4.825 44.649-14.341 65.113-2.918 6.274-3.332 13.336-1.262 19.85-13.501 22.051-32.05 40.601-54.102 54.101zm-180.86-360.869c30.265-13.386 62.51-20.174 95.897-20.174 33.506 0 65.871 6.834 96.231 20.317l-14.204 53.262c-.585 2.196-2.156 3.217-3.04 3.631-.864.403-2.608.942-4.597.017-23.391-10.878-48.42-16.393-74.391-16.393s-51 5.515-74.391 16.393c-1.99.924-3.734.387-4.597-.017-.884-.413-2.455-1.435-3.04-3.632.002 0-12.008-40.326-13.868-53.404zm-88.038 38.255c5.375-5.584 14.819-5.152 20.173.201l1.993 1.994c5.421 5.421 14.061 5.922 20.097 1.169 9.018-7.102 18.606-13.521 28.61-19.206l9.776 36.659c.691 2.589 1.747 5.026 3.107 7.26-21.572 13.918-40.015 32.145-54.17 53.556-1.258-.546-2.559-1.01-3.905-1.368l-40.556-10.815c5.533-9.614 11.759-18.854 18.624-27.573 4.754-6.038 4.25-14.678-1.169-20.094l-2.389-2.389c-5.298-5.3-5.383-14-.191-19.394zm-53.565 183.549c0-33.506 6.834-65.87 20.316-96.231 0 0 53.252 14.2 53.262 14.203 1.541.411 2.956 1.594 3.632 3.042.403.862.941 2.606.016 4.597-10.877 23.391-16.393 48.419-16.393 74.39 0 25.97 5.516 50.999 16.394 74.39.925 1.99.387 3.734-.017 4.596-.073.157-.174.34-.289.531-.082.123-.167.245-.244.371-.578.812-1.538 1.724-3.099 2.14l-53.262 14.203c-13.483-30.364-20.316-62.726-20.316-96.232zm75.732 181.355s-2.385 2.385-2.39 2.389c-5.424 5.423-14.584 5.273-19.847-.267-4.945-5.208-4.639-14.42.657-19.716l1.988-1.989c5.423-5.419 5.927-14.059 1.173-20.098-6.865-8.719-13.092-17.959-18.625-27.573l40.556-10.815c1.347-.359 2.65-.823 3.909-1.37 13.77 20.822 31.608 38.661 52.43 52.43-.547 1.258-1.011 2.561-1.37 3.908l-10.815 40.557c-9.614-5.533-18.854-11.759-27.571-18.623-6.034-4.756-14.675-4.253-20.095 1.167zm161.768 56.145c-33.506 0-65.871-6.835-96.231-20.317l14.204-53.262c.585-2.196 2.156-3.218 3.04-3.631.862-.403 2.605-.943 4.597-.016 23.391 10.878 48.419 16.393 74.391 16.393s51-5.515 74.391-16.393c1.99-.927 3.732-.387 4.597.016.884.414 2.455 1.436 3.04 3.632l14.204 53.261c-30.364 13.484-62.724 20.317-96.233 20.317zm183.935-53.951c-2.487 2.583-5.918 4.025-9.661 4.061-.046.001-.092.001-.139.001-3.886 0-7.66-1.549-10.373-4.262l-1.993-1.994c-5.42-5.419-14.059-5.922-20.097-1.169-8.717 6.865-17.957 13.091-27.571 18.624l-10.815-40.556c-.359-1.347-.823-2.65-1.37-3.909 20.822-13.769 38.66-31.608 52.43-52.43 1.259.547 2.561 1.011 3.909 1.37l40.556 10.815c-5.533 9.614-11.76 18.854-18.625 27.573-4.754 6.038-4.25 14.678 1.169 20.094l2.389 2.389c5.298 5.299 5.383 13.999.191 19.393zm33.249-87.318s-53.243-14.198-53.262-14.203c-1.588-.423-2.936-1.552-3.632-3.042-.403-.862-.941-2.606-.016-4.597 10.877-23.391 16.393-48.419 16.393-74.39 0-25.453-5.302-50.022-15.757-73.024-.919-2.022-.362-3.775.052-4.64.073-.152.171-.328.284-.512.083-.123.169-.244.247-.37.582-.807 1.549-1.714 3.118-2.117l53.392-13.727c12.939 29.827 19.498 61.571 19.498 94.39-.001 33.507-6.835 65.871-20.317 96.232z"/><path d="m100.214 113.453c-2.815 0-5.63-1.074-7.778-3.222l-4.142-4.142c-4.296-4.296-4.296-11.261 0-15.557 4.297-4.296 11.26-4.296 15.557 0l4.142 4.142c4.296 4.296 4.296 11.261 0 15.557-2.15 2.148-4.964 3.222-7.779 3.222z"/><path d="m96.072 440.645c-2.815 0-5.63-1.074-7.778-3.222-4.296-4.296-4.296-11.261 0-15.557l4.142-4.142c4.297-4.296 11.26-4.296 15.557 0 4.296 4.296 4.296 11.261 0 15.557l-4.142 4.142c-2.149 2.148-4.964 3.222-7.779 3.222z"/><path d="m427.406 440.645c-2.815 0-5.63-1.074-7.778-3.222l-4.142-4.142c-4.296-4.296-4.296-11.261 0-15.557 4.297-4.296 11.26-4.296 15.557 0l4.142 4.142c4.296 4.296 4.296 11.261 0 15.557-2.149 2.148-4.964 3.222-7.779 3.222z"/><path d="m423.264 113.453c-2.815 0-5.63-1.074-7.778-3.222-4.296-4.296-4.296-11.261 0-15.557l4.142-4.142c4.297-4.296 11.26-4.296 15.557 0 4.296 4.296 4.296 11.261 0 15.557l-4.142 4.142c-2.149 2.148-4.963 3.222-7.779 3.222z"/></g><g/><g/><g/><g/><g/><g/><g/><g/><g/><g/><g/><g/><g/><g/><g/></svg>