<svg id="Capa_1" enable-background="new 0 0 512 512" viewBox="0 0 512 512" xmlns="http://www.w3.org/2000/svg" fill="#E6ECF2"><g><path d="m352.638 337.082c-4.297-4.296-11.26-4.296-15.557 0-21.657 21.658-50.452 33.585-81.081 33.585-27.661 0-53.066-9.845-72.895-26.215l34.004-34.004c2.063-2.063 3.222-4.861 3.222-7.778s-1.159-5.715-3.222-7.778c-10.388-10.389-16.109-24.201-16.109-38.892 0-30.327 24.673-55 55-55 6.075 0 11-4.925 11-11v-119.333h-22v49.111c-70.234 5.62-125.667 64.567-125.667 136.222 0 75.358 61.309 136.667 136.667 136.667 32.812 0 63.862-11.487 88.553-32.557l34.72 34.719 15.557-15.557zm-107.638-195.218v37.92c-37.266 5.354-66 37.493-66 76.217 0 16.854 5.377 32.881 15.322 46.121l-26.773 26.773c-16.37-19.829-26.215-45.233-26.215-72.895-.001-59.517 45.58-108.582 103.666-114.136z" fill="#0496FF"/><path d="m437.02 74.98c-2.062-2.062-4.861-3.222-7.778-3.222s-5.715 1.159-7.778 3.222l-42.19 42.191c-4.296 4.296-4.296 11.261 0 15.557 32.927 32.927 51.061 76.706 51.061 123.272 0 96.104-78.161 174.295-174.256 174.333-.021 0-.051 0-.077 0-96.128 0-174.333-78.206-174.333-174.333s78.203-174.333 174.331-174.333c6.075 0 11-4.925 11-11v-59.667c0-6.075-4.925-11-11-11-68.38 0-132.667 26.628-181.019 74.981-48.353 48.352-74.981 112.639-74.981 181.019s26.628 132.667 74.981 181.019c48.352 48.353 112.639 74.981 181.019 74.981s132.667-26.628 181.02-74.981c48.351-48.352 74.98-112.639 74.98-181.019 0-68.379-26.629-132.667-74.98-181.02zm-15.557 346.483c-44.197 44.197-102.959 68.537-165.463 68.537-62.503 0-121.266-24.34-165.463-68.537s-68.537-102.96-68.537-165.463 24.34-121.266 68.537-165.463c41.594-41.594 96.091-65.601 154.463-68.285v37.719c-103.158 5.729-185.333 91.464-185.333 196.029 0 108.259 88.075 196.333 196.333 196.333.032 0 .06-.001.09 0 52.41-.022 101.677-20.443 138.739-57.505l-.065-.065c35.551-35.551 57.569-84.634 57.569-138.763 0-48.758-17.655-94.805-49.938-130.837l26.668-26.669c39.377 43.173 60.937 98.684 60.937 157.506 0 62.503-24.34 121.266-68.537 165.463z"/></g><g/><g/><g/><g/><g/><g/><g/><g/><g/><g/><g/><g/><g/><g/><g/></svg>