<svg id="Layer_1" enable-background="new 0 0 512 512" viewBox="0 0 512 512" xmlns="http://www.w3.org/2000/svg" fill="#052438"><g><g><path d="m256 457.312c-64.072 0-116.199-52.119-116.199-116.183s52.127-116.183 116.199-116.183 116.199 52.12 116.199 116.184-52.127 116.182-116.199 116.182zm0-210.366c-51.941 0-94.199 42.251-94.199 94.184s42.257 94.183 94.199 94.183 94.199-42.25 94.199-94.183-42.258-94.184-94.199-94.184z" fill="#0496FF"/></g><g><path d="m296.279 303.361-12.153-.869-4.581-11.268c-3.911-9.621-13.153-15.838-23.545-15.838s-19.634 6.217-23.545 15.838l-4.581 11.268-12.154.869c-10.373.742-19.149 7.609-22.358 17.495-3.207 9.878-.141 20.58 7.81 27.267l9.31 7.829-2.922 11.794c-2.497 10.075 1.316 20.531 9.714 26.639 4.464 3.246 9.698 4.883 14.947 4.883 4.639 0 9.29-1.278 13.432-3.854l10.347-6.433 10.347 6.433c8.831 5.491 19.97 5.085 28.379-1.029 8.398-6.107 12.211-16.563 9.714-26.638l-2.923-11.795 9.31-7.829c7.951-6.687 11.017-17.389 7.81-27.267-3.208-9.885-11.984-16.752-22.358-17.495zm.389 27.924-14.556 12.241c-3.211 2.7-4.606 6.992-3.597 11.064l4.572 18.448c.453 1.826-.457 2.94-1.299 3.553-.851.619-2.206 1.145-3.825.139l-16.155-10.043c-3.556-2.211-8.06-2.211-11.615 0l-16.155 10.043c-1.617 1.007-2.974.481-3.825-.139-.842-.612-1.752-1.727-1.299-3.554l4.571-18.447c1.009-4.072-.386-8.364-3.597-11.064l-14.556-12.241c-1.444-1.215-1.365-2.647-1.044-3.636.323-.995 1.106-2.209 3.003-2.345l18.98-1.357c4.18-.299 7.827-2.946 9.405-6.829l7.159-17.608c.713-1.755 2.115-2.123 3.165-2.123s2.452.368 3.165 2.123l7.159 17.608c1.578 3.883 5.225 6.53 9.405 6.829l18.98 1.357c1.898.136 2.681 1.35 3.004 2.345.321.989.4 2.421-1.045 3.636z"/><path d="m455.968 62.46-59.246-59.238c-2.079-2.078-4.893-3.232-7.812-3.222-.011 0-.022 0-.033 0 0 0-265.832 0-265.839 0-.009 0-.069 0-.17 0-2.847 0-5.575 1.153-7.562 3.192-.021.022-.035.036-.039.04l-59.236 59.228c-3.845 3.845-4.304 9.922-1.08 14.301l95.672 129.937c-39.866 31.309-65.517 79.932-65.517 134.433 0 94.217 76.663 170.869 170.894 170.869s170.894-76.652 170.894-170.87c0-54.501-25.652-103.124-65.517-134.433l95.672-129.936c3.224-4.379 2.765-10.456-1.081-14.301zm-124.358 6.672h-151.184l-35.364-47.132h221.886zm-16.495 22-59.069 78.782-59.112-78.782zm-236.841-19.801 43.593-43.587 108.385 144.451c-22.169 3.364-42.952 11.001-61.482 22.043zm326.62 269.799c0 82.087-66.793 148.87-148.894 148.87s-148.894-66.783-148.894-148.87c0-82.088 66.793-148.871 148.894-148.871s148.894 66.783 148.894 148.871zm-61.665-146.892c-18.508-11.029-39.265-18.663-61.405-22.032l108.312-144.459 43.59 43.584z"/></g></g><g/><g/><g/><g/><g/><g/><g/><g/><g/><g/><g/><g/><g/><g/><g/></svg>