<svg id="Layer_1" enable-background="new 0 0 519 519" viewBox="0 0 519 519" xmlns="http://www.w3.org/2000/svg" fill="#052438"><g><path d="m253.934 102.137h-22v-22.154h-5.566c-10.634 0-19.284-8.65-19.284-19.283v-16.567c0-10.633 8.65-19.283 19.284-19.283h5.566v-5.567c0-10.633 8.65-19.283 19.283-19.283h16.566c10.633 0 19.283 8.65 19.283 19.283v5.567h5.566c10.634 0 19.284 8.65 19.284 19.283v16.567c0 10.633-8.65 19.283-19.284 19.283h-5.566v22.133h-22v-28.991c0-8.349 6.792-15.142 15.142-15.142h9.709v-11.133h-9.709c-8.35 0-15.142-6.793-15.142-15.142v-9.708h-11.133v9.708c0 8.349-6.792 15.142-15.142 15.142h-9.709v11.133h9.709c8.35 0 15.142 6.793 15.142 15.142v29.012z" fill="#0496FF"/><path d="m499.717 430.733h-113.25v-6.133c0-14.888-12.112-27-27-27h-.269c-3.414-13.264-12.6-23.795-24.471-29.185 6.722-10.827 11.184-23.053 12.987-35.67l.304-2.118c3.756-26.292-4.003-52.935-21.287-73.099-12.778-14.909-18.637-34.049-16.51-53.32 6.98-.252 13.507-3.083 18.473-8.048 5.207-5.207 8.074-12.13 8.073-19.492.001-7.363-2.866-14.287-8.073-19.494-.172-.172-.351-.335-.527-.502 11.316-11.711 14.726-28.935 8.662-44.095l-1.497-3.742c-6.318-15.795-21.393-26.001-38.404-26.001-11.049 0-21.436 4.302-29.248 12.115l-8.179 8.179-8.179-8.179c-7.812-7.812-18.199-12.115-29.248-12.115-17.012 0-32.086 10.206-38.405 26.002l-1.495 3.74c-6.065 15.162-2.655 32.386 8.661 44.097-.176.167-.354.329-.526.501-5.208 5.207-8.075 12.13-8.074 19.493 0 7.364 2.867 14.287 8.073 19.493 0 0 0 0 .001.001 4.966 4.965 11.492 7.797 18.472 8.049 2.127 19.272-3.732 38.412-16.51 53.32-17.284 20.164-25.043 46.808-21.287 73.101l.303 2.114c1.803 12.62 6.266 24.846 12.988 35.672-11.872 5.39-21.058 15.921-24.471 29.185h-.269c-14.888 0-27 12.112-27 27v6.133h-113.252c-10.633-.002-19.283 8.649-19.283 19.282v41.416c0 15.2 12.366 27.567 27.566 27.567h463.867c15.2 0 27.566-12.367 27.566-27.567v-41.416c.001-10.633-8.649-19.284-19.282-19.284zm-297.117-309.987 1.495-3.74c2.958-7.394 10.015-12.172 17.979-12.172 5.172 0 10.034 2.014 13.691 5.671l10.101 10.1c7.517 7.517 19.75 7.518 27.271-.001l10.1-10.1c3.657-3.657 8.52-5.671 13.691-5.671 7.964 0 15.021 4.778 17.978 12.171l1.497 3.742c2.88 7.201 1.197 15.398-4.286 20.882l-7.471 7.471-90.288.001-7.471-7.471c-5.486-5.484-7.168-13.681-4.287-20.883zm7.197 61.487c-3.04-.001-5.561-2.525-5.563-5.563-.002-3.042 2.533-5.568 5.572-5.569 0 0 99.385-.001 99.402 0 2.997.003 5.56 2.584 5.56 5.567 0 3.492-2.201 5.566-5.566 5.566-.002-.001-99.403-.001-99.405-.001zm-.824 89.613c16.248-18.956 23.978-43.122 21.915-67.613h57.224c-2.063 24.49 5.668 48.656 21.916 67.613 13.163 15.355 19.071 35.647 16.212 55.669-1.695 11.82-5.566 22.963-12.506 32.769l-2.961 4.185h-102.545s-2.962-4.186-2.962-4.186c-6.772-9.57-11.274-21.078-12.505-32.768-2.86-20.022 3.049-40.313 16.212-55.669zm-6.441 114.624c.005 0 .009.001.014.001.009 0 .017-.001.026-.001h113.856c.009 0 .017.001.026.001.005 0 .009-.001.014-.001 8.098.002 15.344 4.369 19.207 11.13h-152.351c3.864-6.76 11.11-11.128 19.208-11.13zm156.935 33.13c2.757 0 5 2.243 5 5v6.13h-209.934v-6.13c0-2.757 2.243-5 5-5zm137.533 71.833c0 3.07-2.497 5.567-5.566 5.567h-463.868c-3.069 0-5.566-2.497-5.566-5.567v-38.7h475z"/><g fill="#0496FF"><path d="m402.361 144.493c-3.876 0-7.753-1.475-10.704-4.425l-29.289-29.289c-2.859-2.86-4.435-6.662-4.435-10.706 0-4.045 1.575-7.847 4.435-10.707l49.817-49.817-3.936-3.936c-4.082-4.083-5.482-10.021-3.657-15.497 1.826-5.476 6.51-9.384 12.225-10.2l68.333-9.762c4.689-.669 9.497.932 12.849 4.284s4.952 8.155 4.282 12.848l-9.762 68.334c-.818 5.716-4.728 10.399-10.204 12.224-5.475 1.826-11.412.422-15.494-3.66l-3.935-3.935-49.817 49.818c-2.952 2.95-6.83 4.426-10.708 4.426zm4.85-19.984h.01zm-24.437-24.437 19.587 19.587 49.817-49.818c2.858-2.859 6.662-4.435 10.707-4.435 3.624 0 7.054 1.265 9.784 3.585l6.538-45.766-45.767 6.539c5.038 5.943 4.755 14.885-.849 20.49z"/><path d="m116.638 144.492c-3.878 0-7.755-1.476-10.706-4.427l-49.818-49.817-3.936 3.936c-4.08 4.081-10.018 5.484-15.493 3.659-5.477-1.825-9.386-6.508-10.203-12.222l-9.762-68.337c-.67-4.692.931-9.495 4.282-12.847 3.351-3.353 8.148-4.955 12.848-4.284l68.335 9.762c5.714.816 10.397 4.725 12.224 10.2 1.825 5.476.425 11.414-3.656 15.496l-3.938 3.937 49.817 49.817c2.859 2.86 4.435 6.662 4.435 10.707 0 4.044-1.575 7.847-4.435 10.706l-29.286 29.287c-2.953 2.952-6.831 4.427-10.708 4.427zm4.85-19.983h.01zm-65.374-59.102c4.045 0 7.849 1.576 10.708 4.437l49.816 49.816 19.587-19.587-49.817-49.818c-5.604-5.607-5.888-14.549-.85-20.492l-45.767-6.538 6.538 45.766c2.732-2.32 6.161-3.584 9.785-3.584z"/><path d="m31.735 336.764c-3.988 0-7.885-1.585-10.733-4.434-3.352-3.352-4.952-8.155-4.282-12.848l9.762-68.334c.818-5.716 4.729-10.399 10.204-12.224 5.477-1.824 11.413-.423 15.494 3.66l3.935 3.935 49.817-49.817c2.86-2.86 6.662-4.435 10.707-4.435 4.043 0 7.846 1.575 10.706 4.434l29.287 29.287c5.902 5.903 5.903 15.509.001 21.413l-49.818 49.818 3.937 3.937c4.081 4.081 5.482 10.019 3.657 15.495-1.825 5.477-6.51 9.385-12.225 10.201l-68.333 9.762c-.705.1-1.412.15-2.116.15zm14.595-68.988-6.538 45.766 45.767-6.539c-5.038-5.943-4.755-14.886.85-20.491l49.817-49.817-19.587-19.587-49.817 49.818c-2.86 2.859-6.662 4.435-10.707 4.435-3.625-.001-7.054-1.266-9.785-3.585zm67.38-63.296h.01z"/><path d="m487.266 336.764c-.704 0-1.41-.049-2.115-.15l-68.335-9.762c-5.714-.816-10.398-4.725-12.224-10.201-1.825-5.476-.424-11.414 3.657-15.495l3.936-3.937-49.817-49.817c-5.903-5.905-5.902-15.511 0-21.414l29.286-29.286c2.861-2.86 6.664-4.435 10.707-4.435 4.045 0 7.847 1.575 10.707 4.435l49.817 49.817 3.936-3.936c4.08-4.082 10.015-5.484 15.493-3.659 5.475 1.825 9.386 6.508 10.203 12.222l9.763 68.336c.67 4.692-.931 9.495-4.282 12.847-2.849 2.85-6.746 4.434-10.732 4.435zm-53.825-29.761 45.767 6.538-6.538-45.766c-2.731 2.32-6.16 3.584-9.784 3.584-4.045 0-7.847-1.575-10.707-4.435l-49.817-49.818-19.587 19.587 49.817 49.817c5.604 5.607 5.887 14.551.849 20.493z"/></g></g><g/><g/><g/><g/><g/><g/><g/><g/><g/><g/><g/><g/><g/><g/><g/></svg>