<svg id="Layer_1" enable-background="new 0 0 512 512" viewBox="0 0 512 512" xmlns="http://www.w3.org/2000/svg" fill="#E6ECF2"><g><g><g><g><path d="m244.085 318.41h-153.653c-6.075 0-11-4.925-11-11 0-11.369-9.253-20.618-20.627-20.618-6.075 0-11-4.925-11-11v-99.831c0-6.075 4.925-11 11-11 11.374 0 20.627-9.249 20.627-20.618 0-6.075 4.925-11 11-11h231.468c6.075 0 11 4.925 11 11 0 11.369 9.253 20.618 20.627 20.618 6.075 0 11 4.925 11 11v64.464c0 6.075-4.925 11-11 11s-11-4.925-11-11v-54.903c-14.68-3.923-26.263-15.503-30.188-30.179h-212.347c-3.925 14.676-15.507 26.256-30.188 30.179v80.708c14.68 3.923 26.263 15.503 30.188 30.18h144.093c6.075 0 11 4.925 11 11s-4.925 11-11 11z" fill="#0496FF"/></g></g></g><g><path d="m208.316 246.13c-4.264.373-9.991-.869-12.188-3.59-3.816-4.728-10.743-5.465-15.469-1.65-4.727 3.816-5.466 10.742-1.65 15.469 4.187 5.187 9.951 8.367 15.84 10.105 1.433 4.41 5.575 7.599 10.463 7.599 4.617 0 8.569-2.845 10.2-6.877 11.039-2.695 18.694-10.589 20.031-21.133 1.625-12.815-6.583-25.061-19.96-29.779-8.349-2.945-12.583-4.674-13.769-5.232-1.59-.749-1.55-1.284-1.521-1.675.08-1.079.907-2.121 1.404-2.27 6.054-1.819 9.281.045 9.78.622 3.499 4.95 10.348 6.137 15.31 2.647 4.969-3.495 6.165-10.356 2.67-15.325-2.841-4.039-7.54-7.542-13.565-9.371-1.313-4.606-5.552-7.978-10.58-7.978-5.247 0-9.635 3.673-10.734 8.588-9.015 3.071-15.494 11.592-16.225 21.462-.731 9.879 4.67 18.771 14.095 23.206 2.666 1.254 8.432 3.468 15.817 6.073 4.356 1.537 5.656 4.659 5.453 6.266-.283 2.226-4.206 2.739-5.402 2.843z"/><path d="m269.54 230.08c1.764 4.225 6.105 7.029 10.7 6.784 4.587-.245 8.646-3.389 9.979-7.794 1.311-4.329-.227-9.163-3.823-11.92-3.696-2.834-8.932-3.002-12.806-.42-4.322 2.88-6.009 8.56-4.05 13.35z"/><path d="m141.08 221.67c-1.741-4.256-6.12-6.998-10.7-6.775-4.592.223-8.638 3.396-9.978 7.79-1.319 4.325.234 9.168 3.829 11.915 3.704 2.83 8.918 3.011 12.799.42 4.29-2.865 6.073-8.578 4.05-13.35z"/><path d="m501 223.713h-64.516c-6.075 0-11 4.925-11 11v4.253h-13.152v-106.153c0-26.06-21.206-47.261-47.271-47.261h-317.79c-26.065-.001-47.271 21.2-47.271 47.261v186.127c0 26.06 21.206 47.261 47.271 47.261h62.131c-3.007 5.719-4.711 12.233-4.711 19.139 0 22.667 18.355 41.108 40.917 41.108h160.612c54.668 0 98.393-52.059 110.816-68.469h8.448v1.787c0 6.075 4.925 11 11 11h64.516c6.075 0 11-4.925 11-11v-125.053c0-6.075-4.925-11-11-11zm-479 95.227v-186.127c0-13.929 11.337-25.261 25.271-25.261h317.789c13.935 0 25.271 11.332 25.271 25.261v106.153h-58.744c-17.741 0-34.573 6.765-47.394 19.05l-59.159 56.685c-.176.168-.346.343-.511.523-7.429 8.132-10.772 18.689-10.121 29.008l-167.132-.03c-13.933 0-25.27-11.332-25.27-25.262zm389.439 17.04c-3.633 0-7.033 1.794-9.083 4.794-.435.637-44.107 63.674-96.137 63.674h-160.611c-10.431 0-18.917-8.572-18.917-19.108s8.486-19.108 18.917-19.108h77.208c1.091 1.372 2.286 2.683 3.586 3.923 15.262 14.559 39.024 14.408 54.098-.346l32.965-32.264c11.366-11.123 26.351-17.249 42.195-17.249 6.075 0 11-4.925 11-11s-4.925-11-11-11c-21.631 0-42.081 8.355-57.583 23.526l-32.965 32.264c-6.555 6.415-16.888 6.481-23.524.151-6.671-6.365-7.108-17.035-1.036-23.936l58.863-56.401c8.705-8.341 20.131-12.935 32.173-12.935h93.896v75.014h-14.045zm78.561 12.787h-42.516v-103.054h42.516z"/></g></g><g/><g/><g/><g/><g/><g/><g/><g/><g/><g/><g/><g/><g/><g/><g/></svg>