<svg id="Layer_1" enable-background="new 0 0 512 512" viewBox="0 0 512 512" xmlns="http://www.w3.org/2000/svg" fill="#052438"><g><path d="m220.574 266.986c-4.362 0-7.912-3.549-7.912-7.912s3.549-7.912 7.912-7.912h20c6.075 0 11-4.925 11-11s-4.925-11-11-11h-9v-3.661c0-6.075-4.925-11-11-11s-11 4.925-11 11v5.766c-11.064 4.393-18.912 15.197-18.912 27.807 0 16.493 13.418 29.912 29.912 29.912 4.362 0 7.912 3.549 7.912 7.912s-3.549 7.912-7.912 7.912h-20c-6.075 0-11 4.925-11 11s4.925 11 11 11h9v3.662c0 6.075 4.925 11 11 11s11-4.925 11-11v-5.766c11.064-4.393 18.912-15.197 18.912-27.807-.001-16.495-13.419-29.913-29.912-29.913z" fill="#0496FF"/><path d="m493.007 58.627-23.895-13.624 26.225-26.225c4.296-4.296 4.296-11.261 0-15.557-4.297-4.296-11.26-4.295-15.557 0l-26.225 26.225-13.623-23.894c-1.698-2.98-4.69-4.997-8.09-5.454-3.402-.458-6.818.698-9.244 3.124l-24.43 24.429c-1.667 1.667-2.755 3.827-3.102 6.159l-9.465 63.592-26.621 26.621c-36.711-33.035-85.249-53.17-138.406-53.17-114.213 0-207.133 92.919-207.133 207.133 0 56.839 23.018 108.398 60.215 145.862l-32.589 44.797c-3.574 4.913-2.488 11.792 2.424 15.367l35.581 25.884c1.892 1.376 4.161 2.105 6.471 2.105.57 0 1.144-.044 1.714-.134 2.881-.455 5.465-2.036 7.181-4.395l32.544-44.736c28.127 14.307 59.932 22.383 93.591 22.383s65.464-8.076 93.591-22.383l32.544 44.736c1.717 2.359 4.3 3.94 7.182 4.395.57.09 1.144.134 1.714.134 2.311 0 4.579-.729 6.471-2.105l35.581-25.884c2.359-1.716 3.94-4.3 4.395-7.181.455-2.882-.254-5.826-1.97-8.186l-32.589-44.797c37.197-37.464 60.215-89.023 60.215-145.862 0-53.157-20.135-101.695-53.17-138.406l26.621-26.622 63.591-9.465c2.333-.347 4.492-1.435 6.159-3.102l24.429-24.429c2.426-2.426 3.581-5.844 3.124-9.244s-2.474-6.392-5.454-8.091zm-76.715-17.987 11.668-11.668 9.467 16.603-25.693 25.694zm-333.173 444.994-17.791-12.942 24.73-33.993c5.684 4.625 11.615 8.954 17.773 12.965zm274.909 0-24.712-33.971c6.158-4.011 12.09-8.34 17.773-12.965l24.73 33.993zm47.679-207.648c0 102.083-83.051 185.133-185.133 185.133s-185.133-83.051-185.133-185.133 83.05-185.133 185.133-185.133c47.091 0 90.124 17.683 122.831 46.746l-23.824 23.824c-26.571-22.994-61.193-36.922-99.007-36.922-83.529 0-151.485 67.956-151.485 151.485s67.956 151.484 151.485 151.484 151.485-67.956 151.485-151.485c0-37.814-13.928-72.436-36.922-99.006l23.824-23.824c29.063 32.706 46.746 75.739 46.746 122.831zm-136.748-48.385c2.148 2.148 4.963 3.222 7.778 3.222s5.63-1.074 7.778-3.222l3.742-3.742c11.147 14.44 17.801 32.516 17.801 52.127 0 47.137-38.349 85.485-85.485 85.485-47.137 0-85.485-38.348-85.485-85.485s38.348-85.485 85.485-85.485c19.611 0 37.687 6.654 52.127 17.801l-3.742 3.742c-4.295 4.296-4.295 11.261.001 15.557zm19.405-34.961c-18.508-15.082-42.11-24.139-67.79-24.139-59.268 0-107.485 48.217-107.485 107.485s48.217 107.484 107.485 107.484c59.267 0 107.485-48.217 107.485-107.485 0-25.68-9.057-49.282-24.139-67.789l15.614-15.614c19.033 22.547 30.524 51.656 30.524 83.404 0 71.398-58.087 129.485-129.485 129.485s-129.484-58.088-129.484-129.485 58.087-129.485 129.485-129.485c31.747 0 60.857 11.492 83.404 30.525zm169.555-112.373-30.629 4.559 25.693-25.693 16.604 9.466z"/></g><g/><g/><g/><g/><g/><g/><g/><g/><g/><g/><g/><g/><g/><g/><g/></svg>