<svg id="Layer_1" enable-background="new 0 0 512 512" viewBox="0 0 512 512" xmlns="http://www.w3.org/2000/svg" fill="#052438"><g><g fill="#0496FF"><path d="m99 66h22c6.075 0 11-4.925 11-11s-4.925-11-11-11h-22c-18.196 0-33 14.804-33 33s14.804 33 33 33c6.065 0 11 4.935 11 11s-4.935 11-11 11h-22c-6.075 0-11 4.925-11 11s4.925 11 11 11h22c18.196 0 33-14.804 33-33s-14.804-33-33-33c-6.065 0-11-4.935-11-11s4.935-11 11-11z"/><path d="m99 358c-18.196 0-33 14.804-33 33v44c0 18.196 14.804 33 33 33s33-14.804 33-33v-44c0-18.196-14.804-33-33-33zm11 77c0 6.065-4.935 11-11 11s-11-4.935-11-11v-44c0-6.065 4.935-11 11-11s11 4.935 11 11z"/><path d="m435 44c-6.075 0-11 4.925-11 11v63.134l-3.601-3.273c-4.195-3.814-10.604-3.814-14.799 0l-3.6 3.273v-63.134c0-6.075-4.925-11-11-11s-11 4.925-11 11v88c0 4.354 2.568 8.298 6.55 10.06 3.981 1.761 8.628 1.009 11.85-1.92l14.6-13.274 14.601 13.273c2.065 1.878 4.716 2.861 7.401 2.861 1.504 0 3.019-.308 4.448-.94 3.981-1.761 6.55-5.706 6.55-10.06v-88c0-6.075-4.925-11-11-11z"/><path d="m435 358h-44c-6.075 0-11 4.925-11 11s4.925 11 11 11h11v77c0 6.075 4.925 11 11 11s11-4.925 11-11v-77h11c6.075 0 11-4.925 11-11s-4.925-11-11-11z"/></g><g><path d="m200.703 200.703c-30.491 30.491-30.491 80.104 0 110.595 15.246 15.246 35.271 22.868 55.297 22.868s40.052-7.623 55.297-22.868c30.491-30.491 30.491-80.104 0-110.595-30.491-30.492-80.103-30.492-110.594 0zm95.038 95.038c-21.913 21.913-57.568 21.913-79.481 0s-21.913-57.568 0-79.481c10.957-10.957 25.349-16.435 39.741-16.435s28.784 5.479 39.741 16.435c21.912 21.912 21.912 57.568-.001 79.481z"/><path d="m271.152 233.254-22.157 22.157-8.148-8.148c-4.296-4.296-11.261-4.296-15.557 0-4.295 4.296-4.295 11.261 0 15.557l15.926 15.926c2.063 2.063 4.861 3.222 7.778 3.222s5.715-1.159 7.778-3.222l29.935-29.936c4.295-4.296 4.295-11.261 0-15.557-4.294-4.295-11.259-4.295-15.555.001z"/><path d="m512 187v-176c0-6.075-4.925-11-11-11h-176c-6.075 0-11 4.925-11 11v131.736c-6.885-3.527-14.08-6.422-21.511-8.639l-6.4-15.458c-1.702-4.111-5.712-6.792-10.162-6.792l-39.887-.005h-.001c-4.448 0-8.459 2.68-10.162 6.789l-6.415 15.481c-7.414 2.215-14.592 5.104-21.462 8.624v-131.736c0-6.075-4.925-11-11-11h-176c-6.075 0-11 4.925-11 11v176c0 6.075 4.925 11 11 11h131.736c-3.528 6.886-6.422 14.081-8.639 21.511l-15.458 6.4c-4.111 1.702-6.792 5.712-6.792 10.162l-.005 39.887c0 4.449 2.679 8.46 6.789 10.164l15.481 6.415c2.215 7.414 5.104 14.592 8.624 21.462h-131.736c-6.075 0-11 4.925-11 11v176c0 6.075 4.925 11 11 11h176c6.075 0 11-4.925 11-11v-131.737c6.885 3.527 14.079 6.421 21.511 8.638l6.4 15.458c1.702 4.111 5.712 6.792 10.162 6.792l39.887.005h.001c4.448 0 8.459-2.68 10.162-6.789l6.415-15.481c7.414-2.215 14.592-5.104 21.462-8.624v131.737c0 6.075 4.925 11 11 11h176c6.075 0 11-4.925 11-11v-176c0-6.075-4.925-11-11-11h-131.736c3.527-6.886 6.422-14.08 8.639-21.511l15.458-6.401c4.11-1.702 6.791-5.712 6.792-10.162l.005-39.887c0-4.449-2.679-8.46-6.789-10.164l-15.481-6.415c-2.215-7.414-5.104-14.592-8.624-21.462h131.736c6.075.002 11-4.923 11-10.998zm-490-165h154v114.763c-2.883-.016-5.721 1.097-7.841 3.215l-28.208 28.2c-2.114 2.114-3.228 4.945-3.217 7.821h-114.734zm0 468v-154h114.763c-.016 2.883 1.097 5.722 3.216 7.841l28.2 28.208c2.114 2.115 4.944 3.228 7.821 3.217v114.734zm468 0h-154v-114.763c2.883.016 5.721-1.097 7.841-3.215l28.208-28.2c2.114-2.114 3.228-4.945 3.217-7.821h114.734zm-111.843-246.613-.003 25.187-13.639 5.647c-3.217 1.332-5.614 4.109-6.461 7.487-2.498 9.96-6.429 19.465-11.684 28.25-1.786 2.985-2.054 6.64-.723 9.855l5.65 13.645-17.812 17.807-13.625-5.646c-3.217-1.333-6.874-1.065-9.861.725-8.783 5.258-18.286 9.193-28.245 11.696-3.375.848-6.149 3.243-7.481 6.458l-5.659 13.658-25.187-.003-5.647-13.638c-1.332-3.218-4.109-5.614-7.487-6.461-9.962-2.499-19.467-6.43-28.25-11.684-2.986-1.786-6.64-2.055-9.855-.723l-13.645 5.65-17.807-17.812 5.646-13.625c1.333-3.216 1.064-6.874-.725-9.861-5.258-8.783-9.193-18.286-11.696-28.245-.848-3.375-3.243-6.149-6.458-7.481l-13.658-5.659.003-25.187 13.638-5.647c3.218-1.332 5.614-4.109 6.461-7.487 2.498-9.96 6.429-19.465 11.684-28.251 1.786-2.985 2.054-6.64.723-9.855l-5.65-13.645 17.812-17.807 13.625 5.646c3.216 1.333 6.874 1.064 9.861-.725 8.783-5.258 18.286-9.193 28.245-11.696 3.375-.848 6.149-3.243 7.481-6.458l5.659-13.658 25.187.003 5.647 13.638c1.332 3.218 4.109 5.614 7.487 6.461 9.961 2.499 19.466 6.429 28.25 11.684 2.985 1.786 6.641 2.055 9.855.723l13.645-5.65 17.807 17.812-5.646 13.625c-1.333 3.216-1.064 6.874.725 9.861 5.258 8.783 9.193 18.286 11.696 28.245.848 3.375 3.243 6.149 6.458 7.481zm111.843-67.387h-114.763c.016-2.883-1.097-5.722-3.216-7.841l-28.2-28.208c-2.114-2.115-4.944-3.228-7.821-3.217v-114.734h154z"/></g></g><g/><g/><g/><g/><g/><g/><g/><g/><g/><g/><g/><g/><g/><g/><g/></svg>