<svg id="Capa_1" enable-background="new 0 0 511.973 511.973" viewBox="0 0 511.973 511.973" xmlns="http://www.w3.org/2000/svg" fill="#052438"><g><g><path d="m204.126 81.875c-6.075 0-11-3.925-11-10v-30.498c0-10.751-8.747-19.498-19.497-19.498-10.751 0-19.498 8.747-19.498 19.498v30.498c0 6.075-4.925 10-11 10s-11-3.925-11-10v-30.498c2.276-55.047 80.722-55.042 82.996 0v30.498c-.001 6.075-4.926 10-11.001 10z"/></g><g><path d="m204.126 223.778c-6.075 0-11-4.756-11-10.623v-58.907c0-5.867 4.925-10.623 11-10.623s11 4.756 11 10.623v58.907c0 5.867-4.925 10.623-11 10.623z"/></g><g><path d="m143.131 223.778c-6.075 0-11-4.756-11-10.623v-58.907c0-5.867 4.925-10.623 11-10.623s11 4.756 11 10.623v58.907c0 5.867-4.925 10.623-11 10.623z"/></g><g><path d="m204.126 511.879h-60.996c-6.075 0-11-4.876-11-10.89v-203.3c.552-14.389 21.4-14.495 22 0v192.409h38.996v-192.408c.558-14.402 21.405-14.482 22 0v203.299c0 6.015-4.925 10.89-11 10.89z"/></g><g><path d="m439.977 440.717c-6.075 0-11-4.925-11-11v-30.498c0-6.075 4.925-11 11-11s11 4.925 11 11v30.498c0 6.075-4.925 11-11 11z" fill="#0496FF"/></g><g><path d="m358.65 440.717c-6.075 0-11-4.925-11-11v-30.498c0-6.075 4.925-11 11-11s11 4.925 11 11v30.498c0 6.075-4.925 11-11 11z" fill="#0496FF"/></g><g><path d="m295.62 164.203h-223.651c-6.075 0-11-4.925-11-11v-81.328c0-6.075 4.925-11 11-11h223.651c2.917 0 5.715 1.159 7.778 3.222l40.664 40.664c2.062 2.063 3.222 4.861 3.222 7.778s-1.159 5.715-3.222 7.778l-40.664 40.664c-2.063 2.063-4.861 3.222-7.778 3.222zm-212.651-22h208.095l29.664-29.664-29.664-29.664h-208.095z" fill="#0496FF"/></g><g><path d="m275.288 306.526h-223.651c-2.917 0-5.715-1.159-7.778-3.222 0 0-40.664-40.664-40.664-40.664-4.253-4.096-4.266-11.46 0-15.556 0 0 40.664-40.664 40.664-40.664 2.063-2.063 4.861-3.222 7.778-3.222h223.651c6.075 0 11 4.925 11 11v81.328c0 6.076-4.925 11-11 11zm-219.095-22h208.095v-59.328h-208.095l-29.664 29.664z" fill="#0496FF"/></g><g><path d="m480.643 327.219h-29.67v-29.66c0-17.28-14.05-31.33-31.33-31.33h-40.66c-17.28 0-31.33 14.05-31.33 31.33v29.66h-29.67c-17.27 0-31.33 14.06-31.33 31.34v121.99c0 17.27 14.06 31.33 31.33 31.33h162.66c17.27 0 31.33-14.06 31.33-31.33v-121.99c0-17.28-14.06-31.34-31.33-31.34zm-110.99-29.66c0-5.15 4.18-9.33 9.33-9.33h40.66c5.15 0 9.33 4.18 9.33 9.33v29.66h-59.32zm-51.67 51.66h162.66c5.14 0 9.33 4.19 9.33 9.34 0 16.35-13.31 29.66-29.66 29.66h-122c-16.35 0-29.66-13.31-29.66-29.66 0-5.15 4.19-9.34 9.33-9.34zm171.99 131.33c0 5.14-4.19 9.33-9.33 9.33h-162.66c-5.14 0-9.33-4.19-9.33-9.33v-79.72c8.4 5.91 18.63 9.39 29.66 9.39h122c11.03 0 21.26-3.48 29.66-9.39z"/></g></g><g/><g/><g/><g/><g/><g/><g/><g/><g/><g/><g/><g/><g/><g/><g/></svg>