<svg id="Capa_1" enable-background="new 0 0 512 512" viewBox="0 0 512 512" xmlns="http://www.w3.org/2000/svg" fill="#E6ECF2"><g><g fill="#0496FF"><path d="m331.276 81.617h60.181c6.617 0 12 5.383 12 12v36.085l-7.836-8.082c-4.229-4.363-11.193-4.469-15.555-.241-4.361 4.229-4.469 11.193-.24 15.555l26.733 27.575c2.071 2.137 4.921 3.343 7.897 3.343s5.826-1.206 7.897-3.343l26.733-27.575c4.229-4.362 4.121-11.326-.24-15.555-4.362-4.229-11.326-4.121-15.555.241l-7.836 8.082v-36.085c0-18.748-15.252-34-34-34h-60.181c-6.075 0-11 4.925-11 11s4.927 11 11.002 11z"/><path d="m182.292 245.792h-52.308c-18.748 0-34 15.252-34 34v36.085l-7.836-8.082c-4.229-4.363-11.193-4.469-15.555-.241s-4.469 11.192-.24 15.554l26.733 27.574c2.071 2.137 4.921 3.343 7.897 3.343s5.826-1.206 7.897-3.343l26.733-27.574c4.229-4.362 4.121-11.326-.24-15.554-4.361-4.229-11.326-4.121-15.555.241l-7.836 8.082v-36.085c0-6.617 5.383-12 12-12h52.308c6.075 0 11-4.925 11-11s-4.923-11-10.998-11z"/><path d="m473.657 433.485-27.574-26.733c-4.362-4.229-11.326-4.121-15.555.241s-4.121 11.326.24 15.554l8.083 7.836h-105.021c-6.075 0-11 4.925-11 11s4.925 11 11 11h105.021l-8.083 7.836c-4.361 4.229-4.469 11.192-.24 15.554 2.157 2.226 5.026 3.343 7.898 3.343 2.758 0 5.52-1.031 7.656-3.103l27.574-26.733c2.137-2.072 3.343-4.921 3.343-7.897s-1.205-5.826-3.342-7.898z"/></g><g><path d="m452 186.175h-252.809c-13.785 0-25 11.215-25 25v91.234c0 13.785 11.215 25 25 25h252.809c13.785 0 25-11.215 25-25v-91.234c0-13.785-11.215-25-25-25zm3 116.235c0 1.654-1.346 3-3 3h-252.809c-1.654 0-3-1.346-3-3v-91.234c0-1.654 1.346-3 3-3h252.809c1.654 0 3 1.346 3 3z"/><path d="m404.479 245.792h-161.553c-6.075 0-11 4.925-11 11s4.925 11 11 11h161.553c6.075 0 11-4.925 11-11s-4.925-11-11-11z"/><path d="m60 141.234h255.521c13.785 0 25-11.215 25-25v-91.234c0-13.785-11.215-25-25-25h-255.521c-13.785 0-25 11.215-25 25v91.234c0 13.785 11.215 25 25 25zm-3-116.234c0-1.654 1.346-3 3-3h255.521c1.654 0 3 1.346 3 3v91.234c0 1.654-1.346 3-3 3h-255.521c-1.654 0-3-1.346-3-3z"/><path d="m315.521 370.766h-255.521c-13.785 0-25 11.215-25 25v91.234c0 13.785 11.215 25 25 25h255.521c13.785 0 25-11.215 25-25v-91.234c0-13.785-11.215-25-25-25zm3 116.234c0 1.654-1.346 3-3 3h-255.521c-1.654 0-3-1.346-3-3v-91.234c0-1.654 1.346-3 3-3h255.521c1.654 0 3 1.346 3 3z"/><path d="m268.536 430.383h-161.552c-6.075 0-11 4.925-11 11s4.925 11 11 11h161.552c6.075 0 11-4.925 11-11s-4.925-11-11-11z"/><path d="m106.984 81.617h161.552c6.075 0 11-4.925 11-11s-4.925-11-11-11h-161.552c-6.075 0-11 4.925-11 11s4.925 11 11 11z"/></g></g><g/><g/><g/><g/><g/><g/><g/><g/><g/><g/><g/><g/><g/><g/><g/></svg>