<svg id="Layer_1" enable-background="new 0 0 512 512" viewBox="0 0 512 512" xmlns="http://www.w3.org/2000/svg" fill="#052438"><g><g><g><path d="m432.489 0h-352.978c-6.075 0-11 4.925-11 11v490c0 6.075 4.925 11 11 11h352.979c6.075 0 11-4.925 11-11v-490c-.001-6.075-4.926-11-11.001-11zm-11 490h-330.978v-468h330.979v468z"/><path d="m186.546 356.219h-49.572c-6.075 0-11 4.925-11 11v67.13c0 6.075 4.925 11 11 11h49.572c6.075 0 11-4.925 11-11v-67.13c0-6.075-4.925-11-11-11zm-11 67.13h-27.572v-45.13h27.572z"/><path d="m231.214 313.499c-6.075 0-11 4.925-11 11v109.85c0 6.075 4.925 11 11 11h49.572c6.075 0 11-4.925 11-11v-109.85c0-6.075-4.925-11-11-11zm38.572 109.85h-27.572v-87.85h27.572z"/><path d="m325.454 445.349h49.572c6.075 0 11-4.925 11-11v-149.687c0-6.075-4.925-11-11-11h-49.572c-6.075 0-11 4.925-11 11v149.687c0 6.075 4.925 11 11 11zm11-149.687h27.572v127.687h-27.572z"/><path d="m153.678 196.49v78.051c0 3.872 2.036 7.459 5.36 9.444 3.325 1.984 7.447 2.075 10.856.24l35.114-18.916 35.113 18.916c1.631.878 3.425 1.315 5.217 1.315 1.954 0 3.906-.521 5.64-1.556 3.324-1.985 5.36-5.572 5.36-9.444v-78.05c17.335-14.633 28.363-36.517 28.363-60.928 0-43.953-35.75-79.711-79.693-79.711s-79.694 35.758-79.694 79.711c0 24.412 11.029 46.295 28.364 60.928zm80.661 59.631-24.113-12.99c-3.258-1.754-7.178-1.755-10.434 0l-24.114 12.99v-46.442c9.082 3.608 18.979 5.593 29.331 5.593 10.351 0 20.248-1.984 29.33-5.593zm-29.33-178.269c31.812 0 57.693 25.889 57.693 57.711 0 31.821-25.881 57.71-57.693 57.71s-57.694-25.889-57.694-57.71c-.001-31.823 25.881-57.711 57.694-57.711z"/></g><g><g><path d="m375.026 159.771h-51.86c-6.075 0-11-4.925-11-11s4.925-11 11-11h51.86c6.075 0 11 4.925 11 11s-4.924 11-11 11z" fill="#0496FF"/></g><g><path d="m375.026 206.106h-51.86c-6.075 0-11-4.925-11-11s4.925-11 11-11h51.86c6.075 0 11 4.925 11 11s-4.924 11-11 11z" fill="#0496FF"/></g><g><path d="m375.026 113.711h-51.86c-6.075 0-11-4.925-11-11s4.925-11 11-11h51.86c6.075 0 11 4.925 11 11s-4.924 11-11 11z" fill="#0496FF"/></g></g></g><g><path d="m205.009 160.094c-6.075 0-11-4.925-11-11v-27.064c0-6.075 4.925-11 11-11s11 4.925 11 11v27.063c0 6.076-4.925 11.001-11 11.001z" fill="#0496FF"/></g></g><g/><g/><g/><g/><g/><g/><g/><g/><g/><g/><g/><g/><g/><g/><g/></svg>