<svg id="Layer_1" enable-background="new 0 0 512 512" viewBox="0 0 512 512" xmlns="http://www.w3.org/2000/svg" fill="#052438"><g><g><g><path d="m215.714 81.694c-6.075 0-11-4.925-11-11v-48.967c0-6.075 4.925-11 11-11s11 4.925 11 11v48.967c0 6.075-4.925 11-11 11z" fill="#0496FF"/></g><path d="m413.979 71.975-194.479-71.303c-2.443-.896-5.129-.896-7.572 0l-194.48 71.303c-4.333 1.589-7.214 5.713-7.214 10.328v54.335c0 6.075 4.925 11 11 11h12.083v208.312c0 6.075 4.925 11 11 11s11-4.925 11-11v-208.312h46.439v208.312c0 6.075 4.925 11 11 11s11-4.925 11-11v-208.312h46.737v208.312c0 6.075 4.925 11 11 11s11-4.925 11-11v-208.312h46.439v208.312c0 6.075 4.925 11 11 11s11-4.925 11-11v-208.312h46.736v158.472c0 6.075 4.925 11 11 11s11-4.925 11-11v-158.472h46.439v130.97c0 6.075 4.925 11 11 11s11-4.925 11-11v-130.97h12.083c6.075 0 11-4.925 11-11v-54.335c.003-4.615-2.878-8.739-7.211-10.328zm-14.786 53.663h-366.958v-35.652l183.479-67.27 183.479 67.27z"/><g><path d="m280.144 438.196h-268.445c-6.075 0-11-4.925-11-11v-64.618c0-6.075 4.925-11 11-11h266.868c6.075 0 11 4.925 11 11s-4.925 11-11 11h-255.868v42.618h257.444c6.075 0 11 4.925 11 11s-4.924 11-10.999 11z" fill="#0496FF"/></g><g><path d="m401.51 379.332c-9.425-3.298-15.765-5.766-17.867-6.747-3.445-1.609-3.763-3.503-3.654-4.974.179-2.427 1.941-4.884 3.931-5.477 9.061-2.703 14.609.119 15.879 1.909 3.512 4.956 10.38 6.127 15.335 2.614 4.956-3.512 6.127-10.378 2.614-15.335-3.537-4.992-9.594-9.262-17.415-11.198-.729-5.368-5.33-9.505-10.898-9.505-5.803 0-10.557 4.494-10.97 10.192-.277.078-.554.158-.832.241-10.684 3.187-18.736 13.443-19.584 24.942-.843 11.452 5.245 21.367 16.287 26.523 3.319 1.55 10.576 4.312 19.908 7.578 6.5 2.275 9.421 7.281 8.946 11.049-.614 4.881-6.951 5.95-9.648 6.184-6.326.549-14.616-1.223-18.228-5.662-3.831-4.711-10.759-5.425-15.475-1.592-4.713 3.833-5.426 10.762-1.592 15.475 5.312 6.531 12.816 10.348 20.362 12.271.926 5.138 5.42 9.037 10.825 9.037 5.133 0 9.445-3.516 10.658-8.271 13.745-2.744 23.336-12.074 24.925-24.693 1.869-14.851-7.797-29.062-23.507-34.561z"/><path d="m390.509 272.144c-66.604 0-120.792 53.8-120.792 119.928 0 66.129 54.188 119.929 120.792 119.929s120.792-53.8 120.792-119.929c0-66.128-54.187-119.928-120.792-119.928zm0 217.856c-54.474 0-98.792-43.931-98.792-97.929 0-53.997 44.318-97.928 98.792-97.928s98.792 43.931 98.792 97.928c0 53.999-44.318 97.929-98.792 97.929z"/></g></g></g><g/><g/><g/><g/><g/><g/><g/><g/><g/><g/><g/><g/><g/><g/><g/></svg>