<svg id="Layer_1" enable-background="new 0 0 512 512" viewBox="0 0 512 512" xmlns="http://www.w3.org/2000/svg" fill="#E6ECF2"><g><path d="m292.42 276.332c0-20.082-16.338-36.42-36.42-36.42s-36.42 16.338-36.42 36.42c0 16.249 10.699 30.044 25.42 34.719v65.263h22v-65.263c14.722-4.675 25.42-18.47 25.42-34.719zm-36.42 14.42c-7.952 0-14.42-6.469-14.42-14.42s6.469-14.42 14.42-14.42 14.42 6.469 14.42 14.42-6.468 14.42-14.42 14.42z" fill="#0496FF"/><g><path d="m505.211 235.797-32.568-13.495c-4.867-17.495-11.849-34.325-20.811-50.166l13.487-32.55c1.703-4.11.763-8.842-2.383-11.988l-51.886-51.9c-3.146-3.146-7.875-4.088-11.988-2.386l-32.596 13.497c-15.844-8.955-32.675-15.929-50.171-20.788l-13.471-32.533c-1.702-4.11-5.712-6.791-10.162-6.792l-73.388-.01h-.001c-4.449 0-8.459 2.679-10.162 6.789l-13.495 32.568c-17.496 4.867-34.326 11.848-50.166 20.81l-32.55-13.486c-4.11-1.704-8.841-.763-11.987 2.383l-51.901 51.886c-3.146 3.146-4.088 7.877-2.386 11.988l13.497 32.595c-8.955 15.845-15.929 32.677-20.788 50.172l-32.533 13.471c-4.11 1.702-6.791 5.712-6.792 10.162l-.01 73.388c0 4.449 2.679 8.46 6.789 10.164l32.568 13.495c5.364 19.282 13.297 37.758 23.622 54.995 1.987 3.318 5.571 5.349 9.439 5.348l88.099-.02c4.585-.001 8.689-2.846 10.298-7.14s.385-9.136-3.07-12.149c-2.399-2.093-4.691-4.229-6.812-6.351-52.42-52.42-52.42-137.714 0-190.134 52.42-52.421 137.714-52.421 190.134 0 52.42 52.42 52.42 137.714 0 190.134-2.103 2.103-4.38 4.227-6.768 6.312-3.454 3.016-4.675 7.858-3.064 12.151s5.716 7.136 10.301 7.135l88.098-.02c3.868-.001 7.451-2.033 9.437-5.352 10.315-17.238 18.24-35.714 23.595-54.998l32.533-13.471c4.11-1.702 6.791-5.712 6.792-10.162l.009-73.389c0-4.449-2.679-8.46-6.789-10.163zm-15.22 76.199-30.775 12.743c-3.217 1.332-5.613 4.108-6.461 7.485-4.304 17.151-10.845 33.643-19.47 49.107l-55.859.013c49.956-61.387 46.354-152.126-10.802-209.282-60.998-60.998-160.249-60.998-221.247 0-57.17 57.171-60.754 147.949-10.758 209.336l-55.861.012c-8.633-15.463-15.182-31.952-19.493-49.102-.848-3.374-3.243-6.148-6.457-7.48l-30.807-12.765.008-58.688 30.775-12.743c3.217-1.332 5.613-4.108 6.461-7.485 4.804-19.145 12.396-37.467 22.562-54.458 1.787-2.986 2.055-6.641.724-9.856l-12.768-30.835 41.505-41.493 30.794 12.759c3.217 1.333 6.875 1.064 9.863-.726 16.985-10.174 35.305-17.773 54.451-22.587 3.374-.848 6.148-3.243 7.48-6.457l12.765-30.807 58.688.008 12.743 30.775c1.332 3.217 4.108 5.613 7.485 6.46 19.146 4.805 37.469 12.396 54.458 22.562 2.986 1.787 6.64 2.056 9.857.724l30.835-12.768 41.493 41.504-12.76 30.794c-1.333 3.217-1.064 6.876.726 9.863 10.174 16.986 17.774 35.306 22.588 54.451.848 3.375 3.243 6.148 6.457 7.48l30.807 12.765z"/><path d="m256 177.494c-54.5 0-98.838 44.339-98.838 98.838 0 18.942 5.377 37.351 15.55 53.236 8.627 13.473 20.334 24.609 34.123 32.523v8.889c-10.832 6.702-18.066 18.687-18.066 32.334 0 16.763 10.915 31.015 26.008 36.05l8.497 37.388c1.138 5.008 5.591 8.562 10.727 8.562h44c5.136 0 9.588-3.554 10.727-8.562l8.497-37.388c15.092-5.034 26.008-19.287 26.008-36.05 0-13.647-7.234-25.631-18.066-32.334v-8.889c13.789-7.914 25.495-19.05 34.123-32.523 10.173-15.886 15.55-34.294 15.55-53.236-.002-54.499-44.34-98.838-98.84-98.838zm13.22 285.82h-26.44l-5-22h36.439zm16.011-44h-58.463c-8.822 0-16-7.178-16-16s7.178-16 16-16h58.463c8.822 0 16 7.178 16 16s-7.177 16-16 16zm4.149-73.752c-3.8 1.836-6.214 5.684-6.214 9.904v9.848h-54.331v-9.848c0-4.22-2.415-8.068-6.214-9.904-26.4-12.755-43.458-39.93-43.458-69.23 0-42.369 34.469-76.838 76.838-76.838s76.838 34.47 76.838 76.838c-.001 29.3-17.059 56.475-43.459 69.23z"/></g></g><g/><g/><g/><g/><g/><g/><g/><g/><g/><g/><g/><g/><g/><g/><g/></svg>