<svg id="Layer_1" enable-background="new 0 0 512 512" viewBox="0 0 512 512" xmlns="http://www.w3.org/2000/svg" fill="#052438"><g><g><path d="m305.797 316.356h98.513c6.075 0 11-4.925 11-11v-129.175c0-6.075-4.925-11-11-11h-98.513c-6.075 0-11 4.925-11 11v129.176c0 6.075 4.925 10.999 11 10.999zm11-129.175h76.513v107.176h-76.513z"/><path d="m206.203 297.558h-98.513c-6.075 0-11 4.925-11 11v84.425c0 6.075 4.925 11 11 11h98.513c6.075 0 11-4.925 11-11v-84.425c0-6.076-4.925-11-11-11zm-11 84.424h-76.513v-62.425h76.513z"/><path d="m470.41 139.695h-5.304v-13.303c0-6.075-4.925-11-11-11h-163.376c-.167 0-.333.001-.499.003v-11.097h16.249c4.08 0 7.824-2.258 9.728-5.865 1.904-3.608 1.655-7.974-.646-11.342l-50.48-73.857c-2.05-2.999-5.449-4.793-9.082-4.793s-7.032 1.794-9.082 4.793l-50.48 73.857c-2.302 3.368-2.551 7.733-.646 11.342 1.904 3.607 5.648 5.865 9.728 5.865h16.249v11.097c-.166-.002-.332-.003-.499-.003h-163.376c-6.075 0-11 4.925-11 11v13.303h-5.304c-22.933 0-41.59 18.656-41.59 41.585v280.694c0 22.93 18.657 41.584 41.59 41.584h428.82c22.933 0 41.59-18.654 41.59-41.584v-280.694c0-22.929-18.657-41.585-41.59-41.585zm-27.304-2.302v294.377h-176.106v-270.647c0-13.085 10.646-23.73 23.73-23.73zm-210.337-55.094h-6.406l29.637-43.363 29.638 43.363h-6.406c-6.075 0-11 4.925-11 11v28.022c-4.642 2.634-8.78 6.057-12.231 10.084-3.451-4.028-7.59-7.45-12.231-10.084v-28.022c-.001-6.075-4.926-11-11.001-11zm-163.875 55.094h152.376c13.085 0 23.73 10.646 23.73 23.73v270.647h-176.106zm421.106 324.582c0 10.799-8.788 19.584-19.59 19.584h-428.82c-10.802 0-19.59-8.785-19.59-19.584v-280.695c0-10.799 8.788-19.585 19.59-19.585h5.304v281.075c0 6.075 4.925 11 11 11h396.213c6.075 0 11-4.925 11-11v-281.075h5.304c10.802 0 19.59 8.786 19.59 19.585v280.695z"/></g><g><path d="m404.31 403.982h-98.513c-6.075 0-11-4.925-11-11s4.925-11 11-11h98.513c6.075 0 11 4.925 11 11s-4.925 11-11 11z" fill="#0496FF"/></g><g><path d="m404.31 362.015h-98.513c-6.075 0-11-4.925-11-11s4.925-11 11-11h98.513c6.075 0 11 4.925 11 11s-4.925 11-11 11z" fill="#0496FF"/></g><g><path d="m206.203 187.181h-98.513c-6.075 0-11-4.925-11-11s4.925-11 11-11h98.513c6.075 0 11 4.925 11 11s-4.925 11-11 11z" fill="#0496FF"/></g><g><path d="m206.203 229.148h-98.513c-6.075 0-11-4.925-11-11s4.925-11 11-11h98.513c6.075 0 11 4.925 11 11s-4.925 11-11 11z" fill="#0496FF"/></g><g><path d="m206.203 274.537h-98.513c-6.075 0-11-4.925-11-11s4.925-11 11-11h98.513c6.075 0 11 4.925 11 11s-4.925 11-11 11z" fill="#0496FF"/></g></g><g/><g/><g/><g/><g/><g/><g/><g/><g/><g/><g/><g/><g/><g/><g/></svg>