<svg id="Layer_1" enable-background="new 0 0 512 512" viewBox="0 0 512 512" xmlns="http://www.w3.org/2000/svg" fill="#052438"><g><path d="m425.429 265.641h-44c-6.075 0-11 4.925-11 11v29h-22v-19c0-6.075-4.925-11-11-11h-33v-39c0-6.075-4.925-11-11-11h-44c-6.075 0-11 4.925-11 11v123.473h198v-83.473c0-6.076-4.925-11-11-11zm-165-18h22v101.473h-22zm44 50h22v51.473h-22zm44 30h22v21.473h-22zm66 21.473h-22v-61.473h22z" fill="#0496FF"/><g><path d="m501 118.886h-205.113c1.221-3.443 1.892-7.144 1.892-11 0-18.196-14.804-33-33-33h-11v-57.136c0-3.562-1.724-6.902-4.627-8.966-2.902-2.063-6.624-2.593-9.988-1.423l-121.595 42.311h-62.569c-6.075 0-11 4.925-11 11v5.307h-2.093c-23.108 0-41.907 18.799-41.907 41.907s18.799 41.907 41.907 41.907h2.093v5.307c0 6.075 4.925 11 11 11h9.429v60.102c0 14.34 9.197 26.567 22 31.108v236.94c0 6.075 4.925 11 11 11h403.571c6.075 0 11-4.925 11-11v-364.364c0-6.075-4.925-11-11-11zm-11 46.136h-236.221v-24.136h236.221zm-381.571 92.289c12.803-4.541 22-16.768 22-31.108v-55.627l108.735 37.836c1.178.41 2.399.611 3.614.611 2.255 0 4.488-.693 6.374-2.034 2.903-2.063 4.627-5.404 4.627-8.966v-11h236.221v250.091h-381.571zm156.35-160.425c6.065 0 11 4.935 11 11s-4.935 11-11 11h-11v-22zm-33 85.662-101.35-35.267v-78.79l101.35-35.267zm-165.779-110.876h42.429v72.429h-42.429zm-24.093 56.121c-10.977 0-19.907-8.93-19.907-19.907s8.93-19.907 19.907-19.907h2.093v39.814zm66.522 38.308v60.102c0 6.065-4.935 11-11 11s-11-4.935-11-11v-60.102zm0 317.149v-24.136h381.571v24.136z"/><path d="m457 349.114h-240.571v-126.473c0-6.075-4.925-11-11-11h-44c-6.075 0-11 4.925-11 11v181.473c0 6.075 4.925 11 11 11h295.571c6.075 0 11-4.925 11-11v-44c0-6.075-4.925-11-11-11zm-11 44h-273.571v-159.473h22v126.473c0 6.075 4.925 11 11 11h240.571z"/></g></g><g/><g/><g/><g/><g/><g/><g/><g/><g/><g/><g/><g/><g/><g/><g/></svg>