<svg id="Capa_1" enable-background="new 0 0 512 512" viewBox="0 0 512 512" xmlns="http://www.w3.org/2000/svg" fill="#E6ECF2"><g><g><path d="m428.163 44.531h-67.465c-4.694-15.084-18.778-26.066-35.377-26.066h-35.1c-7.472-11.413-20.223-18.465-34.221-18.465s-26.749 7.052-34.221 18.464h-35.1c-16.599 0-30.683 10.982-35.377 26.066h-67.465c-17.099 0-31.009 13.911-31.009 31.009v405.451c0 17.099 13.911 31.009 31.009 31.009h344.325c17.099 0 31.009-13.911 31.009-31.009v-405.45c.001-17.099-13.91-31.009-31.008-31.009zm-310.252 22h33.391c4.694 15.084 18.778 26.066 35.377 26.066h138.642c16.599 0 30.683-10.982 35.377-26.066h33.58v379.429h-276.367zm68.768-26.067h41.672c4.444 0 8.452-2.674 10.157-6.778 2.951-7.099 9.817-11.686 17.492-11.686s14.541 4.587 17.492 11.687c1.706 4.104 5.713 6.778 10.157 6.778h41.672c8.294 0 15.042 6.759 15.042 15.066s-6.748 15.066-15.042 15.066h-138.642c-8.294 0-15.042-6.758-15.042-15.066s6.748-15.067 15.042-15.067zm250.493 440.527c0 4.968-4.042 9.009-9.009 9.009h-344.326c-4.968 0-9.009-4.042-9.009-9.009v-405.451c0-4.967 4.042-9.009 9.009-9.009h12.074v390.429c0 6.075 4.925 11 11 11h298.367c6.075 0 11-4.925 11-11v-390.429h11.885c4.968 0 9.009 4.042 9.009 9.009z"/><path d="m216.854 248.472h-38.917c-6.075 0-11 4.925-11 11v39.273c0 6.075 4.925 11 11 11s11-4.925 11-11v-28.273h27.917c6.075 0 11-4.925 11-11s-4.925-11-11-11z"/><path d="m333.818 248.472h-38.475c-6.075 0-11 4.925-11 11s4.925 11 11 11h27.475v28.273c0 6.075 4.925 11 11 11s11-4.925 11-11v-39.273c0-6.076-4.925-11-11-11z"/><path d="m256.098 287.752c-6.075 0-11 4.925-11 11v57.248c0 6.075 4.925 11 11 11s11-4.925 11-11v-57.249c0-6.074-4.925-10.999-11-10.999z"/><path d="m256.098 161.362c-6.075 0-11 4.925-11 11v47.829c0 6.075 4.925 11 11 11s11-4.925 11-11v-47.829c0-6.075-4.925-11-11-11z"/></g><g fill="#0496FF"><path d="m256.098 209.191c-2.919 0-5.719 1.16-7.782 3.226l-39.245 39.281c-4.291 4.295-4.291 11.254 0 15.549l39.245 39.28c2.063 2.065 4.863 3.226 7.782 3.226s5.718-1.16 7.782-3.226l39.245-39.28c4.291-4.295 4.291-11.254 0-15.549l-39.245-39.281c-2.063-2.066-4.863-3.226-7.782-3.226zm0 73.997-23.695-23.717 23.695-23.717 23.695 23.717z"/><path d="m256.098 349.79c-21.035 0-38.147 17.124-38.147 38.172s17.113 38.172 38.147 38.172 38.147-17.124 38.147-38.172-17.112-38.172-38.147-38.172zm0 54.345c-8.904 0-16.147-7.255-16.147-16.172s7.244-16.172 16.147-16.172 16.147 7.255 16.147 16.172-7.243 16.172-16.147 16.172z"/><path d="m177.936 290.862c-21.035 0-38.148 17.124-38.148 38.172s17.113 38.172 38.148 38.172 38.147-17.124 38.147-38.172-17.112-38.172-38.147-38.172zm0 54.345c-8.904 0-16.148-7.255-16.148-16.172s7.244-16.172 16.148-16.172 16.147 7.255 16.147 16.172-7.243 16.172-16.147 16.172z"/><path d="m333.818 290.862c-21.035 0-38.147 17.124-38.147 38.172s17.113 38.172 38.147 38.172 38.148-17.124 38.148-38.172-17.113-38.172-38.148-38.172zm0 54.345c-8.904 0-16.147-7.255-16.147-16.172s7.244-16.172 16.147-16.172 16.148 7.255 16.148 16.172-7.244 16.172-16.148 16.172z"/><path d="m200.716 180.161h110.765c18.382 0 33.337-14.955 33.337-33.358 0-18.382-14.955-33.337-33.337-33.337h-110.765c-18.382 0-33.337 14.955-33.337 33.357-.001 18.383 14.954 33.338 33.337 33.338zm0-44.695h110.765c6.251 0 11.337 5.086 11.337 11.357 0 6.251-5.086 11.337-11.337 11.337h-110.765c-6.251 0-11.337-5.086-11.337-11.358-.001-6.25 5.085-11.336 11.337-11.336z"/></g></g><g/><g/><g/><g/><g/><g/><g/><g/><g/><g/><g/><g/><g/><g/><g/></svg>