<svg id="Layer_1" enable-background="new 0 0 511.984 511.984" viewBox="0 0 511.984 511.984" xmlns="http://www.w3.org/2000/svg" fill="#052438"><g><path d="m413.225 48.057h-76.526l-23.555-42.399c-1.941-3.492-5.622-5.658-9.617-5.658h-95.07c-3.995 0-7.676 2.166-9.616 5.658l-23.555 42.399h-76.526c-6.075 0-11 4.925-11 11v196.943h22v-110.703h113.232v11c0 6.075 4.925 11 11 11h44c6.075 0 11-4.925 11-11v-11h113.232v110.703h22v-196.943c.001-6.075-4.924-11-10.999-11zm-198.295-26.057h82.125l14.476 26.057h-111.077zm52.062 123.297h-22v-22h22zm22-22v-11c0-6.075-4.925-11-11-11h-44c-6.075 0-11 4.925-11 11v11h-113.232v-53.24h292.465v53.24z" fill="#0496FF"/><path d="m423.91 305.127 18.194-18.194c4.296-4.296 4.296-11.261 0-15.557l-96.555-96.555c-2.063-2.063-4.861-3.222-7.778-3.222-2.918 0-5.716 1.159-7.778 3.222l-18.51 18.511-29.624 7.344c-9.089 2.253-17.75 5.737-25.851 10.343-8.079-4.593-16.782-8.087-25.884-10.343l-29.623-7.344-18.51-18.51c-2.062-2.063-4.86-3.222-7.778-3.222-2.917 0-5.715 1.159-7.778 3.222l-96.555 96.554c-4.296 4.296-4.296 11.261 0 15.557l18.194 18.194 3.354 19.737c1.877 11.039 5.492 21.523 10.759 31.282l-12.356 12.356c-13.165 13.166-13.165 34.587 0 47.752 3.213 3.213 6.92 5.636 10.877 7.281-7.619 12.942-5.879 29.912 5.222 41.014 6.584 6.583 15.229 9.875 23.876 9.874 5.934 0 11.87-1.552 17.137-4.653 1.645 3.957 4.068 7.663 7.281 10.876 6.378 6.378 14.857 9.891 23.877 9.891 3.75 0 7.404-.616 10.855-1.784 1.594 4.887 4.319 9.482 8.196 13.358 6.583 6.583 15.229 9.874 23.876 9.874s17.294-3.292 23.877-9.874l11.036-11.036 11.035 11.036c6.583 6.583 15.229 9.874 23.877 9.874 8.646 0 17.293-3.292 23.876-9.874 3.876-3.877 6.602-8.472 8.196-13.359 3.451 1.168 7.105 1.784 10.856 1.784 9.02 0 17.499-3.512 23.877-9.89 3.165-3.166 5.623-6.85 7.297-10.86 5.134 3.031 11.002 4.652 17.12 4.652 9.02 0 17.499-3.512 23.877-9.89 11.095-11.096 12.838-28.055 5.232-40.994 4.012-1.675 7.698-4.133 10.865-7.3 13.165-13.165 13.165-34.587 0-47.753l-12.288-12.288c5.287-9.778 8.914-20.286 10.795-31.349zm-249.697-106.971 12.895 12.895c1.415 1.415 3.189 2.417 5.132 2.899l32.591 8.08c14.136 3.504 27.051 10.8 37.349 21.098l47.249 47.249c-4.61 3.991-10.434 6.168-16.593 6.168-6.782 0-13.16-2.642-17.956-7.438l-12.853-12.852c-22.042-22.038-57.907-22.041-79.949 0l-63.452 63.452c-2.569-5.899-4.413-12.096-5.507-18.529l-3.942-23.192c-.383-2.249-1.454-4.322-3.066-5.935l-12.895-12.895zm124.959 288.398c-2.222 2.223-5.177 3.446-8.32 3.446s-6.098-1.224-8.319-3.446l-12.146-12.146c-4.588-4.587-4.588-12.052 0-16.64 2.294-2.294 5.307-3.44 8.319-3.44s6.023 1.146 8.318 3.438l.003.003 12.146 12.146c2.223 2.222 3.446 5.177 3.446 8.32s-1.224 6.097-3.447 8.319zm42.929-21.465c-2.223 2.223-5.178 3.447-8.32 3.447s-6.097-1.224-8.319-3.447l-22.878-22.878c-4.588-4.587-4.588-12.052 0-16.64 2.223-2.222 5.177-3.446 8.319-3.446 3.141 0 6.094 1.223 8.316 3.443.001.001.002.002.003.004l22.885 22.885c4.581 4.588 4.579 12.047-.006 16.632zm48.294-16.097c-2.222 2.223-5.177 3.446-8.32 3.446s-6.098-1.224-8.319-3.446l-38.977-38.976c-.001-.001-.002-.002-.003-.003-4.585-4.588-4.584-12.05.002-16.636 2.295-2.294 5.308-3.441 8.321-3.441s6.026 1.147 8.319 3.44l38.977 38.976c4.587 4.587 4.587 12.052 0 16.64zm16.097-48.295c-4.585 4.587-12.047 4.589-16.637.003l-22.881-22.881c-4.588-4.587-4.588-12.052 0-16.64 2.294-2.294 5.307-3.441 8.32-3.441s6.025 1.147 8.319 3.441l22.878 22.877c4.589 4.589 4.589 12.054.001 16.641zm-.617-108.648c-1.612 1.613-2.684 3.687-3.066 5.935l-3.942 23.192c-1.155 6.793-3.151 13.318-5.95 19.512-5.252-3.225-11.303-4.955-17.621-4.955-9.02 0-17.499 3.512-23.877 9.89-6.197 6.198-9.475 14.225-9.838 22.359-8.134.363-16.161 3.64-22.359 9.837-6.193 6.193-9.471 14.214-9.837 22.343-8.449.371-16.339 3.835-22.358 9.853-6.018 6.018-9.481 13.91-9.853 22.359-8.129.366-16.15 3.644-22.344 9.837-7.739 7.74-10.923 18.332-9.563 28.423l-15.919 15.919c-2.222 2.223-5.177 3.446-8.319 3.446-3.144 0-6.099-1.224-8.32-3.446-2.223-2.222-3.446-5.177-3.446-8.32 0-3.141 1.222-6.093 3.442-8.315l12.151-12.151c4.296-4.296 4.296-11.261 0-15.557-4.297-4.296-11.26-4.296-15.557 0l-22.879 22.88c-2.223 2.222-5.177 3.446-8.319 3.446-3.144 0-6.098-1.224-8.32-3.447-4.588-4.587-4.588-12.052 0-16.639l22.878-22.878c4.296-4.296 4.296-11.261 0-15.557-.293-.293-.6-.562-.916-.814-3.25-2.602-7.627-3.084-11.303-1.462-1.209.534-2.346 1.285-3.337 2.276l-38.977 38.976c-2.222 2.223-5.177 3.446-8.319 3.446s-6.098-1.224-8.319-3.446c-4.588-4.588-4.588-12.053 0-16.64l38.976-38.976c4.296-4.296 4.296-11.261 0-15.557-4.297-4.296-11.26-4.295-15.557 0l-22.878 22.878c-4.588 4.589-12.052 4.588-16.64 0-4.588-4.587-4.588-12.052 0-16.639l92.246-92.248c6.522-6.522 15.194-10.114 24.418-10.114s17.896 3.592 24.418 10.114l12.853 12.852c18.479 18.479 48.548 18.479 67.026 0l6.461-6.461c4.296-4.296 4.296-11.261 0-15.557l-55.074-55.074c-.616-.616-1.247-1.216-1.878-1.815 3.658-1.511 7.425-2.767 11.296-3.727l32.592-8.08c1.942-.481 3.717-1.483 5.132-2.899l12.895-12.895 80.998 80.999z"/></g><g/><g/><g/><g/><g/><g/><g/><g/><g/><g/><g/><g/><g/><g/><g/></svg>