<svg id="Capa_1" enable-background="new 0 0 512 512" viewBox="0 0 512 512" xmlns="http://www.w3.org/2000/svg" fill="#E6ECF2"><g><g fill="#0496FF"><path d="m385.472 242.479h-53.554c-1.062 7.708-3.138 15.089-6.11 22h59.664c57.636 0 104.528 46.891 104.528 104.529 0 57.637-46.892 104.529-104.529 104.529s-104.528-46.892-104.528-104.529v-59.643c-6.91 2.976-14.292 5.057-22 6.123v53.521c0 69.768 56.761 126.529 126.529 126.529s126.528-56.761 126.528-126.529c0-69.77-56.761-126.53-126.528-126.53z"/><path d="m134.14 16.463c-55.809 0-101.213 45.404-101.213 101.213s45.404 101.212 101.213 101.212h28.16c1.062-7.708 3.138-15.089 6.11-22h-34.27c-43.678 0-79.213-35.535-79.213-79.213s35.535-79.212 79.213-79.212 79.213 35.535 79.213 79.212v34.292c6.911-2.968 14.293-5.039 22-6.097v-28.194c0-55.809-45.405-101.213-101.213-101.213z"/></g><path d="m353.096 30.582c-51.916 0-94.153 42.237-94.153 94.153v10.037c-3.88-.476-7.828-.725-11.834-.725-53.286 0-96.637 43.351-96.637 96.637 0 3.993.248 7.928.721 11.795h-33.517c-64.887 0-117.676 52.789-117.676 117.675 0 64.887 52.789 117.676 117.677 117.676 64.887 0 117.676-52.789 117.676-117.676v-33.551c3.854.47 7.777.717 11.756.717 53.286 0 96.638-43.351 96.638-96.637 0-3.993-.248-7.928-.721-11.795h10.071c51.916 0 94.153-42.237 94.153-94.154s-42.238-94.152-94.154-94.152zm-139.743 329.573c0 52.756-42.921 95.676-95.677 95.676s-95.676-42.921-95.676-95.677 42.92-95.676 95.676-95.676h38.899c9.796 26.156 30.616 46.969 56.778 56.754zm33.755-54.835c-41.155 0-74.637-33.482-74.637-74.637s33.481-74.637 74.637-74.637 74.638 33.482 74.638 74.637-33.482 74.637-74.638 74.637zm105.988-108.431h-15.453c-9.786-26.13-30.575-46.927-56.701-56.724v-15.43c0-39.786 32.368-72.153 72.153-72.153s72.153 32.368 72.153 72.153-32.367 72.154-72.152 72.154z"/><g fill="#0496FF"><path d="m281.987 195.843c-4.297-4.296-11.26-4.296-15.557 0l-54.123 54.124c-4.296 4.296-4.296 11.261 0 15.557 2.148 2.148 4.963 3.222 7.778 3.222s5.63-1.074 7.778-3.222l54.123-54.124c4.297-4.296 4.297-11.261.001-15.557z"/><path d="m284.99 255.6c-1.252-7.489-10.709-11.403-16.89-7-8.096 5.304-5.549 18.123 3.96 19.929 7.377 1.719 14.657-5.544 12.93-12.929z"/><path d="m209.925 207.825c2.69 7.107 12.732 9.093 17.939 3.57 6.19-6.002 2.855-17.016-5.63-18.56-8.413-1.845-15.763 7.09-12.309 14.99z"/></g></g><g/><g/><g/><g/><g/><g/><g/><g/><g/><g/><g/><g/><g/><g/><g/></svg>