<svg id="Layer_1" enable-background="new 0 0 512 512" viewBox="0 0 512 512" xmlns="http://www.w3.org/2000/svg" fill="#052438"><g><g><g><path d="m161.02 452.5c-4.609 0-8.782-2.971-10.346-7.293-1.561-4.313-.176-9.3 3.373-12.204 3.509-2.872 8.543-3.29 12.472-1.023 4.036 2.329 6.198 7.099 5.291 11.67-1.01 5.086-5.607 8.85-10.79 8.85z" fill="#0496FF"/></g><g><path d="m161.02 412.16c-4.398 0-8.472-2.741-10.15-6.8-1.808-4.373-.564-9.553 3.063-12.607 3.211-2.704 7.804-3.336 11.626-1.612 4.368 1.971 6.993 6.705 6.368 11.454-.709 5.392-5.464 9.565-10.907 9.565z" fill="#0496FF"/></g></g><g><path d="m245.773 318.699h-169.498c-42.058 0-76.275 34.339-76.275 76.547v88.525c0 6.075 4.925 11 11 11h300.048c6.075 0 11-4.925 11-11v-88.525c0-42.208-34.217-76.547-76.275-76.547zm-24.265 22-11.452 26.412-29.751-26.412zm-79.765 0-29.773 26.431-11.519-26.431zm158.305 132.072h-44.051v-50.774c0-6.075-4.925-11-11-11s-11 4.925-11 11v50.774h-145.945v-50.774c0-6.075-4.925-11-11-11s-11 4.925-11 11v50.774h-44.052v-77.525c0-30.077 24.348-54.547 54.275-54.547h.177l21.405 49.113c1.408 3.229 4.276 5.589 7.717 6.347.786.173 1.579.258 2.367.258 2.664 0 5.27-.969 7.303-2.774l45.78-40.643 45.781 40.642c2.033 1.805 4.638 2.774 7.303 2.774.792 0 1.589-.085 2.377-.26 3.443-.762 6.312-3.129 7.715-6.364l21.287-49.094h.286c29.927 0 54.275 24.47 54.275 54.547z"/><path d="m29.099 192.309 9.119 2.703c2.625 9.056 6.228 17.78 10.763 26.06l-4.568 8.43c-2.316 4.273-1.553 9.56 1.877 13.004l32.432 32.56c3.452 3.465 8.776 4.236 13.067 1.891l8.342-4.557c8.23 4.539 16.902 8.147 25.903 10.778l2.698 9.173c1.376 4.682 5.673 7.897 10.553 7.897h45.865c4.88 0 9.176-3.215 10.553-7.896l2.698-9.174c9.002-2.631 17.673-6.24 25.903-10.778l8.342 4.557c4.292 2.346 9.618 1.575 13.067-1.891l32.433-32.561c3.43-3.444 4.193-8.731 1.877-13.004l-4.568-8.429c4.535-8.279 8.139-17.005 10.763-26.06l9.118-2.703c4.67-1.384 7.874-5.675 7.874-10.546v-46.048c0-4.871-3.204-9.162-7.874-10.546l-9.118-2.703c-2.624-9.055-6.228-17.781-10.763-26.06l4.568-8.429c2.316-4.273 1.553-9.561-1.877-13.004l-32.433-32.561c-3.452-3.465-8.776-4.235-13.067-1.891l-8.342 4.558c-8.23-4.539-16.903-8.147-25.903-10.778l-2.698-9.174c-1.377-4.682-5.673-7.896-10.553-7.896h-45.865c-4.88 0-9.177 3.215-10.553 7.897l-2.698 9.174c-9 2.63-17.673 6.239-25.903 10.778l-8.342-4.557c-4.291-2.344-9.617-1.574-13.067 1.891l-32.432 32.558c-3.43 3.444-4.194 8.73-1.877 13.004l4.568 8.43c-4.535 8.279-8.138 17.003-10.763 26.06l-9.119 2.703c-4.67 1.384-7.874 5.675-7.874 10.546v46.048c0 4.87 3.203 9.161 7.874 10.546zm14.126-48.382 7.179-2.128c3.78-1.12 6.672-4.179 7.579-8.016 2.626-11.112 6.994-21.691 12.981-31.441 2.057-3.349 2.17-7.542.297-10.997l-3.604-6.651 20.828-20.91 6.553 3.58c3.474 1.898 7.699 1.783 11.063-.3 9.705-6.007 20.232-10.388 31.29-13.022 3.837-.914 6.892-3.813 8.004-7.598l2.122-7.216h29.403l2.122 7.216c1.113 3.784 4.167 6.683 8.004 7.597 11.057 2.634 21.584 7.015 31.29 13.022 3.364 2.083 7.59 2.198 11.063.3l6.553-3.58 20.827 20.91-3.604 6.65c-1.873 3.456-1.76 7.648.297 10.998 5.988 9.751 10.355 20.329 12.981 31.44.906 3.837 3.799 6.896 7.579 8.017l7.179 2.128v29.622l-7.179 2.128c-3.78 1.121-6.673 4.179-7.579 8.017-2.626 11.111-6.993 21.689-12.981 31.44-2.057 3.35-2.17 7.542-.297 10.998l3.604 6.65-20.827 20.91-6.553-3.58c-3.474-1.896-7.698-1.782-11.063.3-9.703 6.006-20.23 10.387-31.289 13.022-3.837.915-6.891 3.813-8.004 7.597l-2.122 7.216h-29.403l-2.122-7.215c-1.113-3.785-4.167-6.683-8.004-7.598-11.059-2.635-21.586-7.016-31.29-13.022-3.365-2.083-7.588-2.198-11.063-.3l-6.553 3.58-20.828-20.91 3.604-6.651c1.873-3.456 1.76-7.648-.297-10.997-5.987-9.75-10.354-20.328-12.981-31.44-.907-3.837-3.799-6.896-7.579-8.016l-7.179-2.128v-29.622z"/><path d="m162.218 225.542c36.708 0 66.573-29.968 66.573-66.804s-29.864-66.804-66.573-66.804-66.573 29.968-66.573 66.804 29.864 66.804 66.573 66.804zm0-111.608c24.578 0 44.573 20.099 44.573 44.804s-19.995 44.804-44.573 44.804-44.573-20.099-44.573-44.804 19.995-44.804 44.573-44.804z"/><path d="m482.248 195.459c-19.079-18.629-44.26-28.542-70.91-27.908-25.654.61-49.743 11.184-67.83 29.773-18.07 18.572-28.039 42.977-28.071 68.719-.043 34.684 18.403 67.247 48.142 84.982 5.092 3.036 8.647 7.731 10.113 13.127-3.833 1.719-6.503 5.568-6.503 10.042 0 4.759 3.022 8.812 7.252 10.345v11.457c0 18.863 15.303 34.209 34.113 34.209h10.331c18.811 0 34.113-15.346 34.113-34.209v-10.821c5.769-.341 10.342-5.126 10.342-10.98 0-5.512-4.054-10.077-9.343-10.876 1.584-5.021 4.973-9.397 9.606-12.141 29.852-17.681 48.397-50.255 48.397-85.01 0-26.862-10.566-51.974-29.752-70.709zm-63.364 212.746h-10.331c-6.68 0-12.113-5.477-12.113-12.209v-10.801h34.558v10.801c-.001 6.732-5.435 12.209-12.114 12.209zm33.507-75.956c-11.285 6.683-18.914 18.168-20.887 30.946h-35.579c-1.998-12.749-9.696-24.276-21.078-31.064-23.109-13.782-37.443-39.095-37.41-66.06.051-41.221 33.438-75.55 74.425-76.525.623-.015 1.244-.022 1.865-.022 19.981 0 38.794 7.657 53.15 21.676 14.911 14.56 23.123 34.082 23.123 54.968 0 27.02-14.411 52.341-37.609 66.081z"/></g><g><g><path d="m413.718 274.368c-6.075 0-11-4.925-11-11v-17.59c0-6.075 4.925-11 11-11s11 4.925 11 11v17.59c0 6.075-4.925 11-11 11z" fill="#0496FF"/></g><g><path d="m413.72 312.45c-4.574 0-8.771-2.952-10.332-7.241-1.534-4.214-.297-9.071 3.079-12.032 3.612-3.167 8.976-3.577 13.054-1.068 3.869 2.38 5.899 7.124 4.967 11.566-1.056 5.03-5.61 8.775-10.768 8.775z" fill="#0496FF"/></g></g></g><g/><g/><g/><g/><g/><g/><g/><g/><g/><g/><g/><g/><g/><g/><g/></svg>