<svg id="Layer_1" enable-background="new 0 0 512 512" viewBox="0 0 512 512" xmlns="http://www.w3.org/2000/svg" fill="#052438"><g><g><g><g><g><path d="m423.574 31.393c-6.075 0-11-4.925-11-11v-9.393c0-6.075 4.925-11 11-11s11 4.925 11 11v9.393c0 6.075-4.925 11-11 11z" fill="#0496FF"/></g><g><path d="m423.574 94.811c-6.075 0-11-4.925-11-11v-9.393c0-6.075 4.925-11 11-11s11 4.925 11 11v9.393c0 6.075-4.925 11-11 11z" fill="#0496FF"/></g></g><g><g><path d="m460.162 58.405h-9.439c-6.075 0-11-4.925-11-11s4.925-11 11-11h9.439c6.075 0 11 4.925 11 11s-4.924 11-11 11z" fill="#0496FF"/></g><g><path d="m396.426 58.405h-9.439c-6.075 0-11-4.925-11-11s4.925-11 11-11h9.439c6.075 0 11 4.925 11 11s-4.925 11-11 11z" fill="#0496FF"/></g></g></g><g><g><g><path d="m59.934 104.203c-6.075 0-11-4.925-11-11v-9.393c0-6.075 4.925-11 11-11s11 4.925 11 11v9.393c0 6.075-4.925 11-11 11z" fill="#0496FF"/></g><g><path d="m59.934 167.621c-6.075 0-11-4.925-11-11v-9.393c0-6.075 4.925-11 11-11s11 4.925 11 11v9.393c0 6.075-4.925 11-11 11z" fill="#0496FF"/></g></g><g><g><path d="m96.522 131.216h-9.439c-6.075 0-11-4.925-11-11s4.925-11 11-11h9.439c6.075 0 11 4.925 11 11s-4.925 11-11 11z" fill="#0496FF"/></g><g><path d="m32.785 131.216h-9.439c-6.075 0-11-4.925-11-11s4.925-11 11-11h9.439c6.075 0 11 4.925 11 11s-4.925 11-11 11z" fill="#0496FF"/></g></g></g><g><path d="m499.164 374.083c-8.149-26.406-17.018-58.688-17.137-64.795-1.121-57.715-33.14-109.927-84.041-137.833v-37.412c0-4.877-3.212-9.172-7.89-10.551l-8.637-2.546c-2.521-8.59-5.958-16.87-10.269-24.733l4.3-7.89c2.337-4.286 1.568-9.601-1.887-13.049l-31.387-31.336c-3.446-3.438-8.744-4.203-13.022-1.881l-7.926 4.306c-7.885-4.311-16.185-7.746-24.797-10.264l-2.547-8.613c-1.382-4.674-5.674-7.881-10.548-7.881h-44.388c-4.874 0-9.167 3.207-10.548 7.881l-2.547 8.613c-8.612 2.518-16.913 5.954-24.798 10.265l-7.926-4.307c-4.279-2.324-9.577-1.559-13.022 1.881l-31.387 31.334c-3.455 3.449-4.223 8.763-1.887 13.049l4.301 7.892c-4.311 7.864-7.75 16.145-10.27 24.733l-8.637 2.546c-4.678 1.379-7.89 5.674-7.89 10.551v37.413c-22.85 12.546-42.403 30.396-56.976 52.111-17.112 25.498-26.471 55.14-27.065 85.72-.119 6.104-8.987 38.387-17.136 64.796-1.574 5.102.742 10.597 5.493 13.032l28.458 14.586v14.954c0 20.674 6.614 36.015 19.658 45.595 17.19 12.627 40.835 10.868 54.23 8.44l12.341 34.056c1.577 4.354 5.712 7.253 10.342 7.253h214.921c4.63 0 8.765-2.899 10.342-7.253l12.341-34.056c13.395 2.425 37.042 4.185 54.23-8.44 13.044-9.58 19.658-24.921 19.658-45.595v-14.954l28.458-14.586c4.75-2.434 7.067-7.929 5.492-13.032zm-346.11-233.782c3.783-1.114 6.68-4.17 7.592-8.007 2.531-10.646 6.74-20.782 12.509-30.124 2.075-3.361 2.189-7.576.299-11.044l-3.325-6.101 19.75-19.717 6.139 3.336c3.461 1.88 7.663 1.766 11.017-.298 9.363-5.763 19.52-9.966 30.188-12.493 3.837-.909 6.895-3.803 8.013-7.585l1.97-6.662h27.952l1.97 6.662c1.118 3.782 4.175 6.676 8.013 7.585 10.668 2.527 20.825 6.73 30.187 12.493 3.354 2.064 7.557 2.177 11.017.298l6.139-3.335 19.75 19.716-3.324 6.099c-1.891 3.468-1.776 7.684.299 11.044 5.77 9.343 9.978 19.479 12.509 30.126.912 3.837 3.809 6.893 7.592 8.007l6.678 1.969v27.862l-6.678 1.969c-3.783 1.114-6.68 4.17-7.592 8.007-2.531 10.647-6.74 20.783-12.509 30.126-2.075 3.36-2.189 7.576-.299 11.044l3.324 6.099-19.75 19.717-6.139-3.335c-3.461-1.88-7.663-1.766-11.016.298-9.363 5.763-19.52 9.966-30.188 12.492-3.837.909-6.895 3.803-8.013 7.585l-1.97 6.662h-27.952l-1.97-6.662c-1.118-3.782-4.175-6.676-8.013-7.585-10.67-2.527-20.827-6.73-30.187-12.492-3.355-2.065-7.556-2.179-11.018-.299l-6.139 3.336-19.75-19.717 3.325-6.101c1.89-3.468 1.776-7.683-.299-11.044-5.77-9.342-9.979-19.478-12.509-30.124-.912-3.837-3.809-6.893-7.592-8.007l-4.827-1.423c-.522-.85-1.147-1.607-1.85-2.265v-26.143zm8.38 349.699-13.036-35.975c-2-5.519-8.001-8.49-13.609-6.756-8.086 2.496-31.934 6.862-44.999-2.779-7.16-5.283-10.641-14.388-10.641-27.834v-21.677c0-4.127-2.31-7.906-5.982-9.789l-26.253-13.456c5.585-18.55 15.221-51.926 15.417-62.019.968-49.796 29.697-95.91 73.878-119.646l4.694 1.384c2.521 8.589 5.958 16.869 10.27 24.733l-4.301 7.892c-2.336 4.286-1.568 9.6 1.887 13.049l31.387 31.334c3.447 3.439 8.744 4.206 13.022 1.881l7.926-4.306c7.883 4.31 16.186 7.746 24.798 10.264l2.547 8.613c1.382 4.674 5.675 7.881 10.548 7.881h44.388c4.874 0 9.167-3.207 10.548-7.881l2.547-8.613c8.61-2.518 16.913-5.954 24.797-10.264l7.926 4.306c2.253 1.224 4.787 1.591 7.186 1.162 4.101 13.205 6.174 26.938 6.174 40.96 0 54.401-30.636 97.056-86.264 120.106-5.102 2.114-7.846 7.685-6.412 13.018l11.941 44.412zm287.762-104.81c-3.673 1.883-5.983 5.662-5.983 9.789v21.677c0 13.446-3.48 22.551-10.641 27.834-13.064 9.642-36.912 5.275-44.976 2.786-5.617-1.76-11.626 1.214-13.632 6.749l-13.036 35.975h-76.329l-11.027-41.02c57.97-27.268 90.982-76.552 90.982-136.516 0-19.347-3.411-38.23-10.142-56.179l19.191-19.158c3.455-3.45 4.224-8.764 1.887-13.05l-4.3-7.89c4.311-7.863 7.749-16.144 10.269-24.733l4.7-1.385c44.713 23.948 72.896 69.393 73.872 119.647.196 10.093 9.832 43.469 15.418 62.019z"/><path d="m261.181 220.903c35.721 0 64.782-29.025 64.782-64.702 0-35.678-29.061-64.703-64.782-64.703s-64.783 29.025-64.783 64.703c.001 35.677 29.062 64.702 64.783 64.702zm0-107.405c23.59 0 42.782 19.156 42.782 42.703 0 23.546-19.192 42.702-42.782 42.702s-42.783-19.156-42.783-42.702c.001-23.547 19.193-42.703 42.783-42.703z"/></g></g></g><g/><g/><g/><g/><g/><g/><g/><g/><g/><g/><g/><g/><g/><g/><g/></svg>