<svg id="Layer_1" enable-background="new 0 0 512 512" viewBox="0 0 512 512" xmlns="http://www.w3.org/2000/svg" fill="#E6ECF2"><g><g><g fill="#0496FF"><path d="m459.938 338.89-19.994-24.969c-2.087-2.607-5.246-4.125-8.586-4.125s-6.499 1.518-8.586 4.124l-19.995 24.969c-3.798 4.742-3.032 11.665 1.71 15.462 2.029 1.625 4.457 2.414 6.869 2.414 3.225 0 6.421-1.412 8.593-4.125l.409-.511v116.003c0 6.075 4.925 11 11 11s11-4.925 11-11v-116.001l.408.51c3.798 4.742 10.719 5.509 15.462 1.711 4.742-3.798 5.507-10.72 1.71-15.462z"/><path d="m264.586 369.75c-2.087-2.607-5.246-4.125-8.586-4.125s-6.499 1.518-8.586 4.125l-19.995 24.969c-3.797 4.742-3.031 11.665 1.711 15.462 4.741 3.796 11.665 3.032 15.462-1.711l.408-.51v59.186c0 6.075 4.925 11 11 11s11-4.925 11-11v-59.186l.408.51c2.172 2.713 5.367 4.125 8.593 4.125 2.411 0 4.84-.79 6.869-2.414 4.742-3.797 5.508-10.72 1.711-15.462z"/></g><g><path d="m140.326 371.22h-119.367c-6.075 0-11 4.925-11 11v93.918c0 6.075 4.925 11 11 11h119.367c6.075 0 11-4.925 11-11v-93.918c0-6.075-4.925-11-11-11zm-11 93.918h-97.367v-71.918h97.367z"/><path d="m80.629 184.18c-44.459 0-80.629 36.17-80.629 80.629 0 44.458 36.17 80.628 80.629 80.628h.028c44.459 0 80.629-36.17 80.629-80.629 0-44.458-36.17-80.628-80.657-80.628zm.028 139.257h-.028c-32.328 0-58.629-26.301-58.629-58.629s26.301-58.628 58.657-58.628c32.328 0 58.629 26.301 58.629 58.629 0 32.327-26.301 58.628-58.629 58.628z"/><path d="m56.85 255.48c3.973 2.693 9.382 2.37 13.083-.643 3.309-2.694 4.756-7.229 3.644-11.344-1.25-4.629-5.467-7.983-10.263-8.145-4.662-.157-9.004 2.762-10.648 7.118-1.787 4.733-.023 10.208 4.184 13.014z"/><path d="m88.17 250.55c1.821 4.288 6.203 7.08 10.88 6.766 4.429-.297 8.321-3.312 9.718-7.519 1.418-4.27.02-9.1-3.459-11.956-3.61-2.964-8.815-3.282-12.786-.842-4.555 2.799-6.336 8.641-4.353 13.551z"/><path d="m54.812 278.774c-4.296 4.295-4.297 11.26-.002 15.556 4.296 4.296 11.261 4.297 15.557.001 5.666-5.665 14.888-5.665 20.554 0 2.148 2.147 4.963 3.221 7.777 3.221 2.815 0 5.632-1.075 7.779-3.223 4.295-4.296 4.294-11.261-.002-15.556-14.245-14.24-37.421-14.239-51.663.001z"/><path d="m315.684 291.561h-119.368c-6.075 0-11 4.925-11 11v173.577c0 6.075 4.925 11 11 11h119.367c6.075 0 11-4.925 11-11v-173.577c.001-6.075-4.924-11-10.999-11zm-11 173.577h-97.367v-151.577h97.367z"/><path d="m255.985 104.521c-44.458 0-80.628 36.17-80.628 80.629 0 44.458 36.17 80.628 80.628 80.628h.029c44.458 0 80.628-36.17 80.628-80.629.001-44.458-36.169-80.628-80.657-80.628zm.03 139.257h-.029c-32.327 0-58.628-26.301-58.628-58.629s26.301-58.628 58.657-58.628c32.327 0 58.628 26.301 58.628 58.629s-26.301 58.628-58.628 58.628z"/><path d="m228.149 170.89c1.798 4.236 6.086 7 10.7 6.775 4.601-.224 8.634-3.396 9.984-7.79 1.328-4.322-.238-9.173-3.828-11.916-3.708-2.834-8.913-3.007-12.796-.419-4.326 2.884-6.022 8.546-4.06 13.35z"/><path d="m263.53 170.89c1.793 4.238 6.08 7 10.695 6.775 4.588-.223 8.657-3.395 9.983-7.794 1.302-4.32-.215-9.174-3.826-11.912-3.719-2.82-8.911-3.019-12.803-.419-4.339 2.899-5.992 8.536-4.049 13.35z"/><path d="m491.041 211.902h-119.367c-6.075 0-11 4.925-11 11v253.235c0 6.075 4.925 11 11 11h119.367c6.075 0 11-4.925 11-11v-253.235c0-6.075-4.925-11-11-11zm-11 253.236h-97.367v-231.236h97.367z"/><path d="m431.343 186.12h.028c44.459 0 80.629-36.17 80.629-80.629 0-44.458-36.17-80.628-80.657-80.628-44.459 0-80.629 36.17-80.629 80.629 0 44.458 36.17 80.628 80.629 80.628zm.028-139.258c32.328 0 58.629 26.301 58.629 58.629s-26.301 58.628-58.629 58.628h-.028c-32.328 0-58.629-26.301-58.629-58.629 0-32.327 26.301-58.628 58.657-58.628z"/><path d="m403.51 91.23c1.825 4.297 6.197 7.071 10.88 6.767 4.427-.288 8.316-3.317 9.715-7.515 1.415-4.248.031-9.129-3.457-11.959-3.626-2.943-8.807-3.302-12.784-.837-4.537 2.809-6.363 8.624-4.354 13.544z"/><path d="m438.89 91.23c1.863 4.544 6.722 7.339 11.587 6.697 4.875-.644 8.834-4.59 9.47-9.47.554-4.249-1.485-8.546-5.136-10.792-3.708-2.281-8.501-2.144-12.07.351-4.157 2.904-5.842 8.525-3.851 13.214z"/><path d="m431.357 141.711c9.354 0 18.71-3.56 25.831-10.68 4.296-4.295 4.297-11.26.002-15.556-4.296-4.296-11.261-4.297-15.557-.001-5.666 5.665-14.888 5.665-20.554 0-4.297-4.295-11.262-4.293-15.557.002-4.295 4.296-4.294 11.261.002 15.556 7.123 7.12 16.479 10.679 25.833 10.679z"/><path d="m274.127 195.967h-36.108c-6.075 0-11 4.925-11 11s4.925 11 11 11h36.108c6.075 0 11-4.925 11-11s-4.925-11-11-11z"/></g></g></g><g/><g/><g/><g/><g/><g/><g/><g/><g/><g/><g/><g/><g/><g/><g/></svg>