<svg id="Layer_1" enable-background="new 0 0 519.025 519.025" viewBox="0 0 519.025 519.025" xmlns="http://www.w3.org/2000/svg" fill="#E6ECF2"><g><g><g fill="#0496FF"><path d="m259.512 367.97c-86.794 0-122.61-78.058-124.092-81.381-2.985-6.691-1.175-14.292 4.505-18.912 5.696-4.632 13.529-4.858 19.49-.56 29.272 21.104 63.886 32.259 100.098 32.259s70.825-11.155 100.098-32.259c5.927-4.273 13.724-4.074 19.401.496 5.686 4.575 7.55 12.158 4.641 18.87-21.467 49.502-70.194 81.487-124.141 81.487zm-91.146-69.367c15.129 20.11 44.28 47.367 91.147 47.367 37.421 0 71.843-18.378 92.774-48.25-28.308 15.535-59.963 23.656-92.774 23.656-32.186 0-63.256-7.812-91.147-22.773z"/><path d="m124.969 205.901c-2.25.007-4.508-.443-6.613-1.375-5.833-2.584-9.611-8.372-9.625-14.745v-.147c0-17.632 6.915-34.161 19.471-46.542 12.554-12.379 29.163-19.045 46.826-18.812 34.749.49 63.024 28.058 64.371 62.763.288 7.372-2.449 14.314-9.582 17.477-5.892 2.613-12.794 1.508-17.583-2.815-10.474-9.455-24.02-14.662-38.144-14.662-14.126 0-27.674 5.208-38.147 14.664-3.029 2.736-6.988 4.181-10.974 4.194zm49.12-59.626c-11.474 0-22.262 4.419-30.441 12.483-5.179 5.106-8.911 11.276-10.994 18.024 12.371-7.636 26.675-11.738 41.436-11.738 14.758 0 29.064 4.103 41.433 11.737-5.413-17.522-21.622-30.232-40.805-30.502-.209-.003-.42-.004-.629-.004z"/><path d="m295.386 205.925c-2.238 0-4.491-.458-6.614-1.399-5.833-2.585-9.61-8.373-9.624-14.746v-.146c0-17.632 6.915-34.161 19.471-46.542 12.555-12.378 29.176-19.051 46.825-18.811 34.75.49 63.025 28.058 64.373 62.763.275 7.374-2.44 14.308-9.582 17.476-5.894 2.614-12.794 1.509-17.583-2.814-10.474-9.455-24.021-14.662-38.145-14.662-14.126 0-27.674 5.208-38.148 14.665-2.891 2.61-6.937 4.216-10.973 4.216zm49.121-40.881c14.76 0 29.065 4.103 41.436 11.738-5.408-17.52-21.62-30.233-40.809-30.503-11.688-.152-22.74 4.267-31.068 12.479-5.179 5.106-8.911 11.276-10.994 18.024 12.371-7.636 26.676-11.738 41.435-11.738z"/></g><path d="m424.89 432.847c24.179-13.705 43.292-29.995 56.812-48.418 14.452-19.694 21.779-40.816 21.779-62.78 0-28.874-13.011-56.665-37.209-80.496l5.517-179.297c.508-16.498-10.222-31.188-26.082-35.719l-.243-.07c-121.651-34.757-250.253-34.757-371.915.005l-.22.063c-15.812 4.518-26.522 19.115-26.098 35.539.016 29.688 4.685 157.373 5.503 179.497-24.186 23.827-37.19 51.611-37.19 80.479 0 29.893 13.856 58.685 40.071 83.265 24.066 22.565 57.564 40.671 96.991 52.457 19.18 17 40.73 31.673 64.32 43.468l30.814 15.407c3.686 1.843 7.729 2.764 11.773 2.764s8.087-.921 11.772-2.764l30.817-15.409c1.523-.762 3.039-1.536 4.546-2.321l-10.174-19.507c-1.397.729-2.804 1.447-4.213 2.152l-30.814 15.407c-1.213.605-2.657.605-3.869 0 0 0-30.814-15.407-30.814-15.407-54.332-27.16-99.251-72.794-125.424-127.866-15.296-32.186-24.215-67.299-26.196-102.877 5.13-4.443 10.744-8.728 16.846-12.819 5.046-3.383 6.395-10.216 3.012-15.262-3.382-5.046-10.216-6.395-15.262-3.012-1.926 1.291-3.798 2.607-5.644 3.935-1.522-42.195-4.865-137.586-4.865-161.743 0-.113-.002-.226-.005-.338-.197-6.416 3.976-12.128 10.159-13.895l.22-.063c117.697-33.628 242.119-33.628 359.804-.003l.243.07c6.172 1.764 10.345 7.476 10.146 13.892l-4.984 161.999c-1.809-1.3-3.643-2.588-5.529-3.853-5.046-3.382-11.879-2.035-15.262 3.012-3.383 5.046-2.034 11.879 3.012 15.262 6.102 4.091 11.716 8.376 16.847 12.819-2.806 50.581-19.418 99.19-48.266 140.981l18.105 12.498c27.259-39.492 44.404-84.622 50.297-131.882 11.432 15.654 17.463 32.517 17.463 49.634 0 34.715-23.95 67.408-67.439 92.058zm-387.346-111.197c0-17.118 6.032-33.982 17.465-49.636 6.834 54.867 28.71 105.984 62.345 148.207-18.2-8.886-33.989-19.445-46.691-31.355-21.667-20.316-33.119-43.559-33.119-67.216z"/></g><g><path d="m451.855 519.025h-144.875c-7.43 0-14.082-3.841-17.797-10.275s-3.715-14.116 0-20.549l72.438-125.465c3.715-6.434 10.367-10.275 17.797-10.275 7.429 0 14.081 3.841 17.796 10.275l72.437 125.464c3.715 6.433 3.715 14.115 0 20.549-3.714 6.434-10.367 10.276-17.796 10.276zm-142.363-22h139.851l-69.925-121.114z" fill="#0496FF"/><path d="m379.418 452.116c-6.075 0-11-4.925-11-11v-25.08c0-6.075 4.925-11 11-11s11 4.925 11 11v25.08c0 6.076-4.925 11-11 11z" fill="#0496FF"/><g><g><path d="m379.422 483.795c-10.819-.034-15.087-14.118-6.11-20.15 3.597-2.443 8.612-2.445 12.21 0 8.973 6.026 4.699 20.116-6.1 20.15z" fill="#0496FF"/></g></g></g></g><g/><g/><g/><g/><g/><g/><g/><g/><g/><g/><g/><g/><g/><g/><g/></svg>