<svg id="Layer_1" enable-background="new 0 0 512 512" viewBox="0 0 512 512" xmlns="http://www.w3.org/2000/svg" fill="#052438"><g><g><path d="m478.061 276.916h-59.258c-17.498 0-31.733-14.205-31.733-31.665 0-14.816 10.251-27.288 24.048-30.726 4.556-18.952 21.686-33.081 42.062-33.081 22.021 0 40.252 16.502 42.915 37.761 8.411 5.834 13.701 15.56 13.701 26.046-.001 17.46-14.237 31.665-31.735 31.665zm-59.258-41.33c-5.367 0-9.733 4.335-9.733 9.665s4.366 9.665 9.733 9.665h59.258c5.367 0 9.734-4.335 9.734-9.665 0-3.991-2.522-7.624-6.277-9.041-4.433-1.672-7.296-5.995-7.107-10.729.012-.297.019-.596.019-.896 0-11.658-9.532-21.142-21.25-21.142-11.717 0-21.249 9.484-21.249 21.142 0 6.075-4.925 11-11 11h-2.128z" fill="#0496FF"/></g><g><g><g><path d="m135.146 38.056c-6.075 0-11-4.925-11-11v-9.039c0-6.075 4.925-11 11-11s11 4.925 11 11v9.039c0 6.075-4.925 11-11 11z" fill="#0496FF"/></g><g><path d="m135.146 99.088c-6.075 0-11-4.925-11-11v-9.039c0-6.075 4.925-11 11-11s11 4.925 11 11v9.039c0 6.076-4.925 11-11 11z" fill="#0496FF"/></g></g><g><g><path d="m170.298 64.052h-9.069c-6.075 0-11-4.925-11-11s4.925-11 11-11h9.069c6.075 0 11 4.925 11 11s-4.924 11-11 11z" fill="#0496FF"/></g><g><path d="m109.062 64.052h-9.069c-6.075 0-11-4.925-11-11s4.925-11 11-11h9.069c6.075 0 11 4.925 11 11s-4.925 11-11 11z" fill="#0496FF"/></g></g></g><g><path d="m469.688 79.15c.123-1.728.185-3.454.185-5.172 0-40.792-33.297-73.978-74.225-73.978-20.439 0-39.449 8.126-53.38 22.564-6.538-2.483-13.511-3.773-20.556-3.773-31.845 0-57.753 25.826-57.753 57.57 0 1.733.08 3.47.238 5.203-3.28 2.374-6.19 5.176-8.667 8.306h-46.895c-6.075 0-11 4.925-11 11v28.859h-124.981v-28.859c0-6.075-4.925-11-11-11h-48.449c-6.075 0-11 4.925-11 11v400.13c0 6.075 4.925 11 11 11h48.449c6.075 0 11-4.925 11-11v-23.02h124.982v23.02c0 6.075 4.925 11 11 11h48.449c6.075 0 11-4.925 11-11v-346.221c6.419 3.687 13.859 5.797 21.784 5.797h157.826c24.144 0 43.785-19.584 43.785-43.657.001-15.854-8.466-30.088-21.792-37.769zm-397.034 187.804v-21.908h124.982v21.908zm124.983 22v29.004h-124.983v-29.004zm-124.983 51.004h124.982v21.908h-124.982zm124.983-116.912h-124.983v-27.409h124.982v27.409zm-124.983 160.82h124.982v28.206h-124.982zm124.983-232.137v21.908h-124.983v-21.908zm-146.983 338.271h-26.449v-378.13h26.449zm22-34.02v-21.908h124.982v21.908zm173.432 34.02h-26.449v-378.13h26.449zm201.61-351.424h-157.826c-12.012 0-21.784-9.715-21.784-21.657 0-8.44 4.995-16.171 12.726-19.694 4.79-2.183 7.362-7.454 6.136-12.573-.655-2.733-.987-5.522-.987-8.29 0-19.613 16.039-35.57 35.753-35.57 6.301 0 12.503 1.662 17.936 4.806 4.805 2.78 10.926 1.546 14.277-2.877 9.976-13.169 25.183-20.721 41.721-20.721 28.797 0 52.225 23.317 52.225 51.978 0 3.239-.315 6.531-.938 9.785-1.045 5.463 2.151 10.846 7.448 12.542 9.03 2.893 15.098 11.177 15.098 20.614 0 11.941-9.772 21.657-21.785 21.657z"/><path d="m367.342 267.403c-2.051-2.995-5.446-4.785-9.076-4.785s-7.025 1.791-9.076 4.785l-54.545 79.659c-2.306 3.368-2.558 7.735-.654 11.345 1.903 3.61 5.649 5.87 9.73 5.87h18.442v136.723c0 6.075 4.925 11 11 11h50.205c6.075 0 11-4.925 11-11v-136.723h18.442c4.081 0 7.827-2.26 9.73-5.87s1.651-7.978-.654-11.345zm16.026 74.874c-6.075 0-11 4.925-11 11v136.723h-28.205v-136.723c0-6.075-4.925-11-11-11h-8.579l33.682-49.189 33.682 49.189z"/></g></g><g/><g/><g/><g/><g/><g/><g/><g/><g/><g/><g/><g/><g/><g/><g/></svg>