<svg id="Layer_1" enable-background="new 0 0 512 512" viewBox="0 0 512 512" xmlns="http://www.w3.org/2000/svg" fill="#052438"><g><g fill="#0496FF"><path d="m501 0c-6.075 0-11 4.925-11 11v63.134l-3.601-3.273c-4.195-3.814-10.604-3.814-14.799 0l-3.6 3.273v-63.134c0-6.075-4.925-11-11-11s-11 4.925-11 11v88c0 4.354 2.568 8.298 6.55 10.06 3.983 1.762 8.628 1.009 11.85-1.92l14.6-13.274 14.601 13.273c2.065 1.878 4.716 2.861 7.401 2.861 1.504 0 3.02-.308 4.448-.94 3.981-1.761 6.55-5.706 6.55-10.06v-88c0-6.075-4.925-11-11-11z"/><path d="m33 402c-18.196 0-33 14.804-33 33v44c0 18.196 14.804 33 33 33s33-14.804 33-33v-44c0-18.196-14.804-33-33-33zm11 77c0 6.065-4.935 11-11 11s-11-4.935-11-11v-44c0-6.065 4.935-11 11-11s11 4.935 11 11z"/><path d="m33 22h22c6.075 0 11-4.925 11-11s-4.925-11-11-11h-22c-18.196 0-33 14.804-33 33s14.804 33 33 33c6.065 0 11 4.935 11 11s-4.935 11-11 11h-22c-6.075 0-11 4.925-11 11s4.925 11 11 11h22c18.196 0 33-14.804 33-33s-14.804-33-33-33c-6.065 0-11-4.935-11-11s4.935-11 11-11z"/><path d="m501 402h-44c-6.075 0-11 4.925-11 11s4.925 11 11 11h11v77c0 6.075 4.925 11 11 11s11-4.925 11-11v-77h11c6.075 0 11-4.925 11-11s-4.925-11-11-11z"/></g><g><path d="m436.645 219.389-22.094-9.155c-3.413-11.864-8.141-23.281-14.104-34.06l9.136-22.047c1.703-4.11.763-8.842-2.383-11.988l-37.365-37.375c-3.146-3.147-7.879-4.088-11.987-2.386l-22.079 9.142c-10.784-5.96-22.201-10.682-34.068-14.09l-9.136-22.063c-1.702-4.111-5.713-6.792-10.161-6.792l-52.851-.007c-.001 0-.002 0-.002 0-4.448 0-8.459 2.68-10.162 6.79l-9.154 22.093c-11.863 3.413-23.28 8.14-34.061 14.104l-22.047-9.135c-4.106-1.702-8.84-.763-11.988 2.383l-37.376 37.365c-3.146 3.146-4.088 7.877-2.386 11.988l9.143 22.079c-5.96 10.784-10.683 22.202-14.091 34.068l-22.063 9.136c-4.111 1.702-6.791 5.713-6.792 10.162l-.007 52.85c-.001 4.449 2.679 8.46 6.789 10.164l22.093 9.154c3.414 11.865 8.142 23.282 14.104 34.061l-9.135 22.047c-1.703 4.11-.763 8.842 2.383 11.988l37.365 37.375c3.146 3.147 7.879 4.088 11.987 2.386l22.079-9.142c10.784 5.96 22.201 10.682 34.068 14.09l9.136 22.063c1.702 4.111 5.713 6.792 10.161 6.792l52.851.007h.002c4.448 0 8.459-2.68 10.162-6.79l9.154-22.093c11.863-3.413 23.28-8.14 34.061-14.104l22.047 9.135c4.109 1.702 8.841.763 11.988-2.383l37.376-37.365c3.146-3.146 4.088-7.877 2.386-11.988l-9.143-22.079c5.96-10.784 10.683-22.202 14.091-34.068l22.063-9.136c4.111-1.702 6.791-5.713 6.792-10.162l.007-52.85c.001-4.449-2.679-8.461-6.789-10.164zm-15.217 55.661-20.277 8.396c-3.218 1.332-5.614 4.109-6.462 7.487-3.396 13.538-8.738 26.457-15.881 38.397-1.786 2.986-2.055 6.641-.724 9.855l8.4 20.287-26.979 26.972-20.26-8.395c-3.219-1.333-6.876-1.063-9.861.725-11.938 7.147-24.854 12.496-38.39 15.897-3.375.848-6.149 3.243-7.481 6.458l-8.412 20.303-38.15-.005-8.396-20.277c-1.332-3.218-4.109-5.615-7.487-6.461-13.538-3.395-26.457-8.738-38.397-15.881-2.984-1.786-6.641-2.056-9.854-.723l-20.287 8.4-26.973-26.98 8.395-20.26c1.333-3.216 1.064-6.874-.725-9.861-7.146-11.936-12.495-24.852-15.897-38.39-.848-3.375-3.242-6.149-6.457-7.481l-20.306-8.413.005-38.15 20.277-8.396c3.218-1.332 5.614-4.109 6.462-7.487 3.396-13.538 8.738-26.457 15.881-38.397 1.786-2.986 2.055-6.641.724-9.855l-8.4-20.287 26.979-26.972 20.26 8.395c3.219 1.333 6.874 1.063 9.861-.725 11.938-7.147 24.854-12.496 38.39-15.897 3.375-.848 6.149-3.243 7.481-6.458l8.412-20.303 38.15.005 8.396 20.277c1.332 3.218 4.109 5.615 7.487 6.461 13.538 3.395 26.457 8.738 38.397 15.881 2.984 1.785 6.64 2.055 9.854.723l20.287-8.4 26.973 26.979-8.396 20.26c-1.333 3.217-1.064 6.875.725 9.862 7.147 11.936 12.496 24.851 15.897 38.388.848 3.375 3.242 6.149 6.457 7.481l20.304 8.413z"/><path d="m185.259 185.259c-39.007 39.007-39.007 102.476 0 141.482 19.504 19.503 45.122 29.254 70.741 29.254s51.237-9.751 70.741-29.254c39.007-39.007 39.007-102.476 0-141.482-39.008-39.006-102.474-39.006-141.482 0zm125.926 125.926c-30.43 30.422-79.941 30.427-110.369 0-30.429-30.429-30.429-79.94 0-110.369 15.216-15.216 35.197-22.821 55.185-22.821 19.982 0 39.972 7.609 55.185 22.821 30.427 30.428 30.427 79.94-.001 110.369z"/><path d="m162.904 41.245c59.164-25.626 127.027-25.626 186.191 0 1.425.617 2.907.909 4.366.909 4.253 0 8.302-2.48 10.1-6.631 2.415-5.575-.147-12.051-5.722-14.466-64.721-28.033-138.959-28.033-203.68 0-5.574 2.415-8.137 8.891-5.722 14.466 2.416 5.574 8.889 8.136 14.467 5.722z"/><path d="m490.943 154.16c-2.414-5.574-8.891-8.135-14.466-5.722-5.574 2.415-8.137 8.891-5.722 14.466 25.626 59.164 25.626 127.028 0 186.191-2.415 5.575.147 12.051 5.722 14.466 1.425.617 2.907.909 4.366.909 4.253 0 8.302-2.48 10.1-6.631 28.034-64.72 28.034-138.958 0-203.679z"/><path d="m349.096 470.755c-59.164 25.626-127.027 25.626-186.191 0-5.577-2.416-12.051.148-14.466 5.722-2.415 5.575.147 12.051 5.722 14.466 32.36 14.017 67.101 21.025 101.84 21.025s69.479-7.008 101.84-21.025c5.574-2.415 8.137-8.891 5.722-14.466s-8.892-8.139-14.467-5.722z"/><path d="m35.522 148.438c-5.576-2.415-12.051.148-14.466 5.722-28.033 64.721-28.033 138.959 0 203.68 1.798 4.15 5.847 6.631 10.1 6.631 1.459 0 2.942-.292 4.366-.909 5.574-2.415 8.137-8.891 5.722-14.466-25.626-59.164-25.626-127.028 0-186.191 2.415-5.575-.147-12.052-5.722-14.467z"/></g></g><g/><g/><g/><g/><g/><g/><g/><g/><g/><g/><g/><g/><g/><g/><g/></svg>