<svg id="Capa_1" enable-background="new 0 0 512 512" viewBox="0 0 512 512" xmlns="http://www.w3.org/2000/svg" fill="#E6ECF2"><g><g><g><g><path d="m278.337 488.631h-44.674c-6.075 0-11-4.925-11-11v-70.051c0-6.075 4.925-11 11-11s11 4.925 11 11v59.051h22.674v-58.391c0-6.075 4.925-11 11-11s11 4.925 11 11v69.391c0 6.076-4.925 11-11 11z" fill="#0496FF"/></g><g><path d="m356.666 140.488c-6.075 0-11-4.925-11-11v-59.694h-179.332v59.694c0 6.075-4.925 11-11 11s-11-4.925-11-11v-70.694c0-6.075 4.925-11 11-11h201.332c6.075 0 11 4.925 11 11v70.694c0 6.075-4.925 11-11 11z" fill="#0496FF"/></g><g><path d="m206 140.488c-6.075 0-11-4.925-11-11v-27.303c0-6.075 4.925-11 11-11s11 4.925 11 11v27.303c0 6.075-4.925 11-11 11z" fill="#0496FF"/></g><g><path d="m306 140.488c-6.075 0-11-4.925-11-11v-27.303c0-6.075 4.925-11 11-11s11 4.925 11 11v27.303c0 6.075-4.925 11-11 11z" fill="#0496FF"/></g></g><g><g><path d="m314.542 259.717h-117.084c-6.075 0-11-4.925-11-11s4.925-11 11-11h117.083c6.075 0 11 4.925 11 11s-4.924 11-10.999 11z" fill="#0496FF"/></g><g><path d="m284.816 309.717h-57.633c-6.075 0-11-4.925-11-11s4.925-11 11-11h57.633c6.075 0 11 4.925 11 11s-4.924 11-11 11z" fill="#0496FF"/></g></g></g><path d="m501 120.937h-31.695v-30.767c0-15.61-10.195-28.875-24.274-33.508v-22.293c0-6.075-4.925-11-11-11s-11 4.925-11 11v22.293c-14.078 4.633-24.274 17.899-24.274 33.508v30.767h-285.514v-30.767c0-15.61-10.195-28.875-24.274-33.508v-22.293c0-6.075-4.925-11-11-11s-11 4.925-11 11v22.293c-14.079 4.633-24.274 17.898-24.274 33.508v30.767h-31.695c-6.075 0-11 4.925-11 11v64.525c0 6.075 4.925 11 11 11h15.786v75.929c0 6.075 4.925 11 11 11h6.076l9.278 82.528c.625 5.564 5.332 9.771 10.931 9.771h27.796c5.6 0 10.306-4.207 10.931-9.771l9.278-82.528h1.686l69.887 66.356v24.493c0 17.508 14.244 31.752 31.752 31.752h81.199c17.508 0 31.752-14.244 31.752-31.752v-24.493l69.887-66.356h1.686l9.278 82.528c.625 5.564 5.332 9.771 10.931 9.771h27.796c5.6 0 10.306-4.207 10.931-9.771l9.278-82.528h6.076c6.075 0 11-4.925 11-11v-75.929h15.785c6.075 0 11-4.925 11-11v-64.525c0-6.076-4.925-11-11-11zm-80.243-30.767c0-7.319 5.955-13.274 13.274-13.274s13.274 5.955 13.274 13.274v30.767h-26.548zm-356.062 0c0-7.319 5.955-13.274 13.274-13.274s13.274 5.955 13.274 13.274v30.767h-26.548zm17.339 274.52h-8.131l-7.903-70.299h23.937zm-33.248-92.299v-64.929h58.366v64.929zm260.991 75.655c-2.187 2.077-3.426 4.961-3.426 7.977v29.217c0 5.377-4.375 9.752-9.752 9.752h-81.199c-5.377 0-9.752-4.375-9.752-9.752v-29.217c0-3.016-1.239-5.9-3.426-7.977l-73.071-69.38v-71.204h253.696v71.206zm128.32 16.644h-8.131l-7.903-70.299h23.936zm25.117-92.299h-58.367v-64.929h58.367zm26.786-86.929h-468v-42.525h468z"/></g><g/><g/><g/><g/><g/><g/><g/><g/><g/><g/><g/><g/><g/><g/><g/></svg>