<svg id="Capa_1" enable-background="new 0 0 512 512" viewBox="0 0 512 512" xmlns="http://www.w3.org/2000/svg" fill="#052438"><g><g><g><path d="m221.542 117.486c-6.075 0-11-4.925-11-11v-70.963c0-7.457-6.066-13.523-13.523-13.523s-13.523 6.066-13.523 13.523v70.743c0 6.075-4.925 11-11 11s-11-4.925-11-11v-70.743c-.001-19.587 15.935-35.523 35.522-35.523 19.588 0 35.523 15.936 35.523 35.523v70.963c.001 6.076-4.924 11-10.999 11z" fill="#0496FF"/></g><g><path d="m339.505 117.486c-6.075 0-11-4.925-11-11v-70.963c0-7.457-6.066-13.523-13.523-13.523s-13.523 6.066-13.523 13.523v70.963c0 6.075-4.925 11-11 11s-11-4.925-11-11v-70.963c-.001-19.587 15.935-35.523 35.523-35.523 19.587 0 35.523 15.936 35.523 35.523v70.963c0 6.076-4.925 11-11 11z" fill="#0496FF"/></g><g><path d="m277.527 512h-43.055c-6.075 0-11-4.925-11-11v-47.945c0-6.075 4.925-11 11-11s11 4.925 11 11v36.945h21.055v-36.504c0-6.075 4.925-11 11-11s11 4.925 11 11v47.504c0 6.075-4.924 11-11 11z" fill="#0496FF"/></g></g><g><path d="m398.406 163.096h-12.892v-34.665c0-17.093-13.907-31-31-31h-197.028c-17.093 0-31 13.907-31 31v34.665h-12.892c-17.093 0-31 13.907-31 31v189.167c0 17.093 13.907 31 31 31h72.277v17.159c0 17.093 13.907 31 31 31h78.257c17.093 0 31-13.907 31-31v-17.159h72.277c17.093 0 31-13.907 31-31v-189.167c.001-17.093-13.906-31-30.999-31zm-249.92-34.665c0-4.962 4.038-9 9-9h197.028c4.962 0 9 4.038 9 9v34.665h-215.028zm155.642 302.991c0 4.962-4.038 9-9 9h-78.257c-4.962 0-9-4.038-9-9v-17.159h96.257zm103.278-48.159c0 4.962-4.038 9-9 9h-284.812c-4.962 0-9-4.038-9-9v-189.167c0-4.962 4.038-9 9-9h284.812c4.962 0 9 4.038 9 9z"/><path d="m348.406 233.096h-184.812c-6.075 0-11 4.925-11 11v89.167c0 6.075 4.925 11 11 11h184.812c6.075 0 11-4.925 11-11v-89.167c0-6.075-4.925-11-11-11zm-11 89.167h-162.812v-67.167h162.812z"/></g></g><g/><g/><g/><g/><g/><g/><g/><g/><g/><g/><g/><g/><g/><g/><g/></svg>