<svg id="Capa_1" enable-background="new 0 0 512 512" viewBox="0 0 512 512" xmlns="http://www.w3.org/2000/svg" fill="#052438"><g><g><g><path d="m143.703 448.823c-19.299 0-35-15.701-35-35s15.701-35 35-35 35 15.701 35 35-15.701 35-35 35zm0-48c-7.168 0-13 5.832-13 13s5.832 13 13 13 13-5.832 13-13-5.831-13-13-13z" fill="#0496FF"/></g></g><g><g><path d="m226.694 191.257c0 26.39-21.47 47.859-47.859 47.859h-34.747c-6.075 0-11-4.925-11-11s4.925-11 11-11h34.747c14.259 0 25.859-11.601 25.859-25.859z" fill="#0496FF"/></g><path d="m252.81 315.867c-11.071-23.734-29.447-43.041-52.33-55.252 9.457-8.888 16.841-19.953 21.325-32.399h9.455c23.231 0 42.131-18.9 42.131-42.131 0-22.534-17.782-40.99-40.05-42.079-.884-30.493-17.062-57.217-41.115-72.752 2.385-6.04 3.622-12.497 3.622-19.111-.001-28.751-23.392-52.143-52.145-52.143-28.752 0-52.143 23.392-52.143 52.144 0 6.613 1.237 13.071 3.621 19.111-24.053 15.536-40.231 42.26-41.115 72.752-22.268 1.089-40.05 19.545-40.05 42.079 0 23.231 18.9 42.131 42.131 42.131h9.455c4.484 12.446 11.868 23.51 21.325 32.399-22.883 12.211-41.259 31.519-52.331 55.252-19.418 2.065-34.596 18.541-34.596 38.498v146.634c0 6.075 4.925 11 11 11h265.407c6.075 0 11-4.925 11-11v-146.634c0-19.958-15.178-36.433-34.597-38.499zm-1.419-129.782c0 11.1-9.031 20.131-20.131 20.131h-4.566v-40.262h4.566c11.1 0 20.131 9.031 20.131 20.131zm-137.831-133.941c0-16.622 13.522-30.144 30.143-30.144 16.622 0 30.144 13.522 30.144 30.144 0 3.264-.534 6.457-1.544 9.494-8.986-3.031-18.604-4.677-28.6-4.677-9.996 0-19.614 1.645-28.6 4.677-1.009-3.037-1.543-6.23-1.543-9.494zm30.144 26.817c36.418 0 66.211 28.915 67.626 64.993h-45.07c1.265-3.511 1.958-7.293 1.958-11.234 0-6.075-4.925-11-11-11s-11 4.925-11 11c0 6.195-5.04 11.234-11.234 11.234h-58.907c1.415-36.078 31.208-64.993 67.627-64.993zm-82.991 127.255h-4.566c-11.1 0-20.131-9.031-20.131-20.131 0-11.101 9.031-20.131 20.131-20.131h4.566zm22-6.049v-34.213h121.981v34.213c0 33.63-27.36 60.99-60.991 60.99s-60.99-27.359-60.99-60.99zm25.334 74.926c10.809 5.165 22.9 8.064 35.657 8.064s24.847-2.9 35.656-8.064c20.3 7.882 37.239 22.158 48.418 40.552h-168.15c11.18-18.394 28.119-32.67 48.419-40.552zm157.36 214.907h-243.407v-135.634c0-9.22 7.501-16.721 16.721-16.721h209.964c9.22 0 16.721 7.501 16.721 16.721v135.634z"/><g fill="#0496FF"><path d="m420.884 158.074h-12.651v-59.012c0-6.075-4.925-11-11-11h-14.266c-6.075 0-11 4.925-11 11s4.925 11 11 11h3.266v48.013h-12.651c-6.075 0-11 4.925-11 11s4.925 11 11 11h47.302c6.075 0 11-4.925 11-11s-4.925-11.001-11-11.001z"/><circle cx="397.23" cy="54.952" r="11"/></g><g><path d="m300.468 231.77c-2.879 0-5.688-1.132-7.779-3.222-2.779-2.779-3.864-6.829-2.847-10.625l10.959-40.902c-12.013-18.553-18.336-39.963-18.336-62.252 0-63.285 51.485-114.769 114.768-114.769s114.767 51.484 114.767 114.768c0 63.283-51.484 114.767-114.767 114.767-16.77 0-32.873-3.518-47.931-10.463l-45.987 12.322c-.941.252-1.898.375-2.847.376zm49.937-35.382c1.714 0 3.418.4 4.971 1.187 13.046 6.609 27.129 9.959 41.857 9.959 51.152 0 92.767-41.615 92.767-92.767 0-51.152-41.615-92.767-92.767-92.767s-92.768 41.615-92.768 92.768c0 19.451 5.954 38.069 17.217 53.842 1.911 2.675 2.524 6.064 1.673 9.24l-7.332 27.363 31.535-8.45c.936-.251 1.893-.375 2.847-.375z" fill="#0496FF"/></g></g></g><g/><g/><g/><g/><g/><g/><g/><g/><g/><g/><g/><g/><g/><g/><g/></svg>