<svg id="Capa_1" enable-background="new 0 0 511.512 511.512" viewBox="0 0 511.512 511.512" xmlns="http://www.w3.org/2000/svg" fill="#052438"><g><g><path d="m255.756 394.264c-34.738 0-63-28.262-63-63s28.262-63 63-63 63 28.262 63 63-28.262 63-63 63zm0-104c-22.607 0-41 18.393-41 41s18.393 41 41 41 41-18.393 41-41-18.393-41-41-41z" fill="#0496FF"/></g><g><path d="m435.352 146.49c-50.9-29.655-111.317-44.693-179.57-44.698-.001 0-.001 0-.001 0h-.049l.001.336-.002-.336c-68.253.005-128.67 15.043-179.57 44.698-22.178 12.92-35.954 36.814-35.954 62.357v23.186c0 18.479 15.034 33.513 33.514 33.513h29.497l-22.899 118.528c-2.944 15.245 1.035 30.855 10.918 42.83 8.214 9.953 19.673 16.362 32.222 18.248v17.475c0 14.954 12.166 27.12 27.12 27.12h29.057c14.954 0 27.12-12.166 27.12-27.12v-16.88h98v16.88c0 14.954 12.166 27.12 27.12 27.12h29.057c14.954 0 27.12-12.166 27.12-27.12v-17.475c12.549-1.886 24.007-8.294 32.222-18.248 9.883-11.975 13.862-27.585 10.918-42.83l-22.898-118.528h29.497c18.479 0 33.514-15.034 33.514-33.513v-23.185c0-25.543-13.777-49.437-35.954-62.358zm-348.118 19.009c47.495-27.671 104.186-41.703 168.545-41.708 64.311.005 121.002 14.037 168.498 41.707 11.474 6.685 19.708 17.581 23.185 30.019h-100.788c-4.191-13.721-16.968-23.73-32.042-23.73h-117.755c-15.074 0-27.85 10.01-32.041 23.73h-100.787c3.477-12.438 11.712-23.333 23.185-30.018zm141.109 28.288h54.826c-1.315 3.587-2.033 7.46-2.033 11.498v11.498h-50.76v-11.498c0-4.038-.718-7.911-2.033-11.498zm-166.137 38.246v-14.516h101.175v14.516c0 6.348-5.164 11.513-11.513 11.513h-78.148c-6.349 0-11.514-5.165-11.514-11.513zm122.55 230.594c0 2.823-2.297 5.12-5.12 5.12h-29.057c-2.823 0-5.12-2.297-5.12-5.12v-16.88h39.297zm176.177 5.119h-29.057c-2.823 0-5.12-2.297-5.12-5.12v-16.88h39.297v16.88c0 2.823-2.297 5.12-5.12 5.12zm48.658-79.499c1.695 8.775-.595 17.761-6.283 24.654-5.689 6.893-14.077 10.846-23.015 10.846h-249.074c-8.937 0-17.325-3.953-23.014-10.846s-7.979-15.878-6.284-24.653l23.704-122.701h26.243c18.479 0 33.513-15.034 33.513-33.513v-26.749c0-6.339 5.157-11.497 11.497-11.497h.002c6.339.001 11.496 5.158 11.496 11.497v22.498c0 6.075 4.925 11 11 11h72.76c6.075 0 11-4.925 11-11v-22.498c0-6.339 5.158-11.497 11.498-11.497 6.339 0 11.497 5.158 11.497 11.498v26.748c0 18.479 15.034 33.513 33.513 33.513h26.243zm28.201-144.701h-78.148c-6.349 0-11.513-5.165-11.513-11.513v-14.515h101.175v14.515c0 6.348-5.165 11.513-11.514 11.513z"/><g><path d="m459.163 120.75c-4.493 0-8.712-2.774-10.338-7.241-7.376-20.267-29.863-30.752-50.136-23.379-5.709 2.078-12.021-.865-14.099-6.574s.866-12.021 6.575-14.099c31.664-11.526 66.806 4.859 78.333 36.527 2.077 5.708-.866 12.021-6.574 14.099-1.241.453-2.512.667-3.761.667z" fill="#0496FF"/></g><g><path d="m500.51 105.701c-4.493 0-8.712-2.773-10.338-7.241-15.675-43.067-63.47-65.349-106.53-49.676-5.709 2.079-12.021-.866-14.1-6.574-2.077-5.708.866-12.021 6.574-14.099 54.468-19.825 114.905 8.358 134.729 62.824 2.077 5.708-.866 12.021-6.574 14.099-1.242.452-2.512.667-3.761.667z" fill="#0496FF"/></g><g><path d="m52.349 120.75c-1.249 0-2.52-.214-3.762-.667-5.708-2.078-8.651-8.39-6.574-14.099 11.526-31.668 46.673-48.052 78.333-36.527 5.709 2.078 8.652 8.39 6.575 14.099-2.078 5.708-8.394 8.653-14.099 6.574-20.268-7.375-42.759 3.11-50.136 23.379-1.625 4.467-5.844 7.241-10.337 7.241z" fill="#0496FF"/></g><g><path d="m11.002 105.701c-1.249 0-2.52-.214-3.762-.667-5.708-2.078-8.651-8.39-6.574-14.099 19.824-54.465 80.264-82.648 134.73-62.824 5.708 2.078 8.651 8.39 6.574 14.099-2.078 5.708-8.39 8.652-14.1 6.574-43.061-15.672-90.855 6.609-106.53 49.676-1.626 4.467-5.845 7.241-10.338 7.241z" fill="#0496FF"/></g></g></g><g/><g/><g/><g/><g/><g/><g/><g/><g/><g/><g/><g/><g/><g/><g/></svg>