<svg id="Capa_1" enable-background="new 0 0 512 512" viewBox="0 0 512 512" xmlns="http://www.w3.org/2000/svg" fill="#052438"><g><g><g><g><g><path d="m256 189.646c-11.619 0-23.049-3.201-32.945-9.129-8.986 5.678-19.322 8.668-30.024 8.668-7.244 0-14.441-1.408-21.119-4.104-1.871-.756-.425-24.825 4.927-21.95 5.009 2.69 10.457 4.054 16.191 4.054 6.939 0 13.62-2.06 19.321-5.956 1.124-.768 2.215-1.613 3.245-2.514 4.015-3.51 9.968-3.635 14.126-.298 7.522 6.037 16.609 9.228 26.278 9.228s18.756-3.191 26.278-9.228c4.159-3.338 10.113-3.212 14.127.299 6.244 5.461 14.258 8.469 22.565 8.469 6.169 0 12.214-1.654 17.48-4.782 5.223-3.101 6.174 21.661 3.513 22.73-6.64 2.666-13.768 4.053-20.994 4.053-10.69 0-21.087-3.037-30.021-8.67-9.897 5.929-21.327 9.13-32.948 9.13z" fill="#0496FF"/></g></g></g><g><g><g><path d="m339.306 385.619c4.87-4.746 8.135-11.081 9.194-17.837.476-3.038 2.202-5.737 4.758-7.445 2.558-1.708 5.712-2.268 8.7-1.543 10.784 2.613 21.901-.514 29.736-8.368 7.83-7.848 10.958-18.99 8.369-29.805-.714-2.981-.151-6.125 1.553-8.674 1.704-2.548 4.394-4.271 7.422-4.751 10.943-1.736 20.006-8.889 24.244-19.136 4.25-10.277 2.88-21.79-3.667-30.796-1.804-2.482-2.49-5.606-1.89-8.616.599-3.01 2.428-5.632 5.046-7.234 9.482-5.803 15.143-15.908 15.143-27.031 0-11.101-5.644-21.195-15.097-27.002-2.61-1.604-4.433-4.223-5.03-7.228-.598-3.004.085-6.122 1.883-8.602 6.523-8.996 7.888-20.491 3.651-30.75-4.241-10.27-13.32-17.432-24.287-19.158-3.034-.478-5.73-2.202-7.436-4.755s-2.267-5.705-1.547-8.69c2.613-10.832-.511-21.994-8.357-29.858-7.819-7.837-18.914-10.97-29.684-8.38-2.984.718-6.132.157-8.684-1.549-2.552-1.705-4.275-4.399-4.753-7.431-1.734-10.981-8.871-20.071-19.092-24.318-10.232-4.251-21.695-2.879-30.665 3.67-2.484 1.815-5.614 2.505-8.634 1.905-3.018-.601-5.646-2.438-7.247-5.066-5.787-9.5-15.856-15.171-26.935-15.171-11.057 0-21.115 5.654-26.907 15.124-1.603 2.621-4.228 4.452-7.24 5.05-3.013.598-6.139-.089-8.621-1.898-8.958-6.526-20.405-7.892-30.619-3.655-10.245 4.25-17.39 13.357-19.113 24.361-.476 3.038-2.201 5.738-4.758 7.445s-5.71 2.269-8.7 1.543c-10.786-2.613-21.902.516-29.737 8.368-7.83 7.848-10.959 18.99-8.37 29.806.714 2.981.151 6.125-1.553 8.674s-4.394 4.271-7.422 4.751c-10.942 1.735-20.005 8.889-24.243 19.136-4.25 10.277-2.88 21.79 3.667 30.796 1.804 2.482 2.49 5.605 1.891 8.615-.6 3.01-2.429 5.633-5.046 7.235-9.482 5.803-15.143 15.909-15.143 27.031 0 11.1 5.644 21.195 15.097 27.002 2.61 1.604 4.433 4.223 5.031 7.228.597 3.005-.085 6.122-1.884 8.602-6.523 8.996-7.888 20.491-3.651 30.75 4.241 10.271 13.32 17.432 24.286 19.158 3.034.478 5.73 2.202 7.437 4.755 1.706 2.554 2.267 5.704 1.547 8.69-2.613 10.833.512 21.995 8.357 29.858 7.819 7.837 18.918 10.971 29.684 8.381 2.985-.719 6.133-.156 8.684 1.549 2.552 1.705 4.275 4.399 4.753 7.43 1.04 6.583 4.19 12.794 8.872 17.487 4.29 4.301-18.195 12.762-19.388 11.274-3.577-4.465-6.438-9.509-8.451-14.875-14.719.558-29.029-4.984-39.728-15.707-10.709-10.733-16.229-25.084-15.659-39.842-13.823-5.129-24.937-15.737-30.728-29.761-5.78-13.997-5.404-29.352.735-42.754-10.787-10.033-16.993-24.076-16.993-39.225 0-15.177 6.223-29.236 17.04-39.271-6.159-13.418-6.537-28.794-.738-42.815 5.788-13.995 16.886-24.588 30.683-29.72-.549-14.735 4.971-29.063 15.661-39.776 10.708-10.733 25.035-16.265 39.756-15.708 5.116-13.85 15.7-24.986 29.696-30.792 13.969-5.795 29.29-5.426 42.668.718 10.012-10.803 24.027-17.018 39.147-17.018 15.148 0 29.179 6.232 39.194 17.065 13.394-6.165 28.735-6.535 42.729-.721 13.966 5.803 24.537 16.923 29.655 30.748 14.708-.545 29.001 4.994 39.691 15.708 10.709 10.734 16.229 25.084 15.659 39.841 13.823 5.13 24.937 15.737 30.728 29.762 5.78 13.997 5.404 29.352-.735 42.754 10.788 10.033 16.993 24.076 16.993 39.225 0 15.178-6.222 29.236-17.04 39.271 6.159 13.418 6.537 28.793.738 42.814-5.788 13.995-16.886 24.589-30.683 29.721.549 14.735-4.971 29.062-15.66 39.776-10.718 10.743-25.056 16.274-39.792 15.706-1.873 5.006-4.484 9.727-7.729 13.967-1.554 2.031-24.793-5.779-20.442-10.018z" fill="#0496FF"/></g></g></g></g><g><path d="m338.116 449.389h-23.772c-6.075 0-11 4.925-11 11s4.925 11 11 11h23.772c6.075 0 11-4.925 11-11s-4.925-11-11-11z"/><path d="m292.887 234.414c6.075 0 11-4.925 11-11v-10.755c0-6.075-4.925-11-11-11s-11 4.925-11 11v10.755c0 6.075 4.925 11 11 11z"/><path d="m231.534 223.414v-10.755c0-6.075-4.925-11-11-11s-11 4.925-11 11v10.755c0 6.075 4.925 11 11 11s11-4.925 11-11z"/><path d="m307.623 377.356h-12.78v-29.183c26.945-11.105 48.006-33.61 57.1-61.45h15.694c23.765 0 43.098-19.284 43.098-42.986v-40.445c0-23.703-19.333-42.986-43.098-42.986h-12.921c-9.497-45.253-49.832-79.346-98.005-79.346s-88.509 34.093-98.005 79.346h-12.921c-23.764 0-43.098 19.284-43.098 42.986v40.445c0 23.703 19.333 42.986 43.098 42.986h15.695c9.094 27.841 30.155 50.345 57.1 61.45v29.183h-12.781c-60.663 0-110.015 49.362-110.015 110.037v13.607c0 6.075 4.925 11 11 11h299.856c6.075 0 11-4.925 11-11v-13.607c-.002-60.675-49.354-110.037-110.017-110.037zm-9.925 22-40.997 44.038-41.1-44.038zm91.037-196.065v40.445c0 11.572-9.465 20.986-21.098 20.986h-11.194c.258-2.913.389-5.861.389-8.839v-73.578h10.805c11.633 0 21.098 9.414 21.098 20.986zm-242.951 61.432c-11.633 0-21.098-9.415-21.098-20.986v-40.445c0-11.572 9.464-20.986 21.098-20.986h10.805v73.578c0 2.978.132 5.927.389 8.839zm32.805-8.84v-75.113c0-42.905 35.045-77.812 78.122-77.812s78.122 34.906 78.122 77.812v75.113c0 2.988-.17 5.938-.501 8.839h-45.342c-4.594-13.382-17.329-23.028-32.28-23.028-18.808 0-34.109 15.265-34.109 34.028s15.301 34.028 34.109 34.028c14.951 0 27.686-9.646 32.28-23.028h39.443c-12.012 27.609-39.64 46.972-71.723 46.972-43.076.001-78.121-34.905-78.121-77.811zm90.23 19.84c0 6.632-5.432 12.028-12.109 12.028s-12.109-5.396-12.109-12.028 5.432-12.028 12.109-12.028 12.109 5.395 12.109 12.028zm-28.241 78.677c5.253.852 10.642 1.295 16.132 1.295s10.879-.443 16.132-1.295v22.956h-32.265v-22.956zm155.06 135.6h-277.856v-2.607c0-42.209 29.851-77.575 69.546-86.087l61.341 65.726c2.081 2.229 4.993 3.495 8.042 3.495h.007c3.052-.002 5.965-1.271 8.044-3.505l61.203-65.743c39.758 8.463 69.673 43.86 69.673 86.114z"/></g></g><g/><g/><g/><g/><g/><g/><g/><g/><g/><g/><g/><g/><g/><g/><g/></svg>