<svg id="Capa_1" enable-background="new 0 0 512.027 512.027" viewBox="0 0 512.027 512.027" xmlns="http://www.w3.org/2000/svg" fill="#052438"><g><g><path d="m494.685 159.527c8.243-15.404 12.583-32.627 12.583-50.063 0-60.359-51.084-109.464-113.875-109.464-23.36 0-45.812 6.751-64.928 19.523-18.755 12.531-33.022 29.935-41.259 50.328-5.102 12.63-7.688 25.957-7.688 39.612 0 .939.012 1.876.037 2.81.163 6.073 21.963-2.068 21.963-2.81 0-10.818 2.048-21.374 6.086-31.373 13.552-33.549 48.028-56.09 85.789-56.09 50.66 0 91.875 39.236 91.875 87.463 0 14.867-3.986 29.546-11.528 42.451-1.274 2.18-1.76 4.733-1.374 7.229l3.233 20.945-30.552 2.992c-1.547.152-3.044.629-4.393 1.401-6.737 3.857-13.969 6.872-21.492 8.96-5.854 1.625 4.9 21.472 5.885 21.198 8.506-2.361 16.713-5.684 24.43-9.888l39.84-3.901c3.009-.295 5.764-1.815 7.617-4.204 1.854-2.388 2.643-5.435 2.182-8.422z"/><path d="m272.036 365.229c-6.055-11.647-16.27-20.222-28.765-24.146-12.461-3.914-25.697-2.726-37.269 3.341l-15.58 8.169-50.922-97.958 15.648-8.205c23.889-12.526 33.183-42.224 20.718-66.203l-28.906-55.607c-6.055-11.647-16.27-20.222-28.765-24.145-12.46-3.914-25.696-2.726-37.269 3.341l-28.096 14.733c-43.743 22.935-60.758 77.326-37.927 121.244l116.384 223.891c11.084 21.323 29.783 37.021 52.651 44.202 8.819 2.769 17.85 4.142 26.835 4.142 14.243 0 28.37-3.45 41.352-10.257l28.097-14.732c23.89-12.525 33.184-42.223 20.719-66.203zm-2.029 102.325-28.097 14.732c-15.957 8.366-34.204 10.003-51.381 4.609-17.248-5.416-31.355-17.263-39.722-33.359l-116.384-223.89c-17.255-33.193-4.415-74.29 28.623-91.612l28.097-14.732c3.897-2.043 8.137-3.079 12.412-3.079 2.696 0 5.406.412 8.051 1.243 6.874 2.159 12.498 6.883 15.835 13.303l28.906 55.607c6.889 13.253 1.769 29.659-11.414 36.571l-25.356 13.294c-5.367 2.814-7.447 9.439-4.652 14.816l61.069 117.48c1.349 2.594 3.675 4.545 6.465 5.421s5.814.605 8.403-.752l25.356-13.295c6.355-3.333 13.624-3.984 20.462-1.836 6.875 2.159 12.499 6.883 15.836 13.303l28.906 55.606c6.888 13.253 1.768 29.658-11.415 36.57z"/></g><g fill="#0496FF"><path d="m286.379 210.54c-1.742-4.251-6.121-6.999-10.7-6.776-4.596.224-8.636 3.401-9.978 7.794-1.317 4.313.227 9.177 3.825 11.912 3.716 2.825 8.913 3.016 12.803.419 4.302-2.871 6.051-8.566 4.05-13.349z"/><path d="m326.308 210.54c-1.809-4.43-6.477-7.202-11.229-6.738-4.643.453-8.566 3.915-9.634 8.448-1.008 4.277.737 8.883 4.307 11.435 3.803 2.718 9.003 2.707 12.807 0 4.095-2.914 5.722-8.503 3.749-13.145z"/><path d="m366.249 210.54c-1.741-4.25-6.122-6.999-10.7-6.776-4.593.224-8.638 3.398-9.977 7.79-1.314 4.31.221 9.186 3.824 11.916 3.724 2.822 8.906 3.018 12.804.419 4.288-2.86 6.075-8.579 4.049-13.349z"/><path d="m316.157 103.083c-62.791 0-113.874 49.105-113.874 109.463 0 17.437 4.339 34.66 12.583 50.063l-4.431 28.697c-.461 2.988.328 6.035 2.181 8.423 1.854 2.389 4.609 3.909 7.618 4.204l39.84 3.902c17.042 9.281 36.377 14.175 56.083 14.175 62.791 0 113.875-49.105 113.875-109.464s-51.084-109.463-113.875-109.463zm0 196.927c-16.695 0-33.038-4.304-47.262-12.446-1.349-.772-2.846-1.25-4.393-1.401l-30.551-2.992 3.234-20.946c.385-2.496-.1-5.048-1.375-7.229-7.542-12.903-11.528-27.583-11.528-42.45 0-48.228 41.215-87.463 91.874-87.463 50.66 0 91.875 39.236 91.875 87.463s-41.214 87.464-91.874 87.464z"/></g></g><g/><g/><g/><g/><g/><g/><g/><g/><g/><g/><g/><g/><g/><g/><g/></svg>