<svg id="Capa_1" enable-background="new 0 0 512 512" viewBox="0 0 512 512" xmlns="http://www.w3.org/2000/svg" fill="#052438"><g><g fill="#0496FF"><path d="m350.911 223.743-21.424-31.357c-10.583-15.49-31.833-19.514-47.371-8.973l-4.164 2.825-25.38-37.147 4.104-2.785c7.545-5.119 12.635-12.863 14.333-21.807 1.696-8.933-.197-17.989-5.33-25.501l-21.422-31.358c-10.583-15.49-31.833-19.516-47.37-8.974l-15.969 10.834c-13.015 8.831-21.796 22.189-24.725 37.613-2.924 15.401.34 31.018 9.19 43.972l78.789 115.319c11.379 16.655 29.904 25.629 48.741 25.629 11.399 0 22.914-3.287 33.025-10.148l15.968-10.834c7.544-5.119 12.635-12.863 14.333-21.806 1.697-8.932-.196-17.989-5.328-25.502zm-16.285 21.398c-.6 3.157-2.4 5.894-5.071 7.706l-15.968 10.834c-16.815 11.408-39.805 7.062-51.249-9.687l-78.789-115.319c-5.528-8.091-7.567-17.842-5.742-27.457 1.83-9.638 7.322-17.988 15.463-23.512l15.968-10.834c2.088-1.417 4.464-2.095 6.817-2.095 3.88 0 7.694 1.847 10.036 5.274l21.424 31.357c1.81 2.649 2.478 5.841 1.88 8.987-.599 3.157-2.4 5.894-5.071 7.706l-13.236 8.981c-2.419 1.642-4.085 4.178-4.631 7.051-.545 2.872.075 5.843 1.725 8.257l37.791 55.312c3.418 5.004 10.243 6.3 15.258 2.897l13.237-8.981c5.53-3.753 13.091-2.327 16.853 3.179l21.424 31.357c1.811 2.649 2.478 5.841 1.881 8.987z"/><path d="m293.14 437.74h-74.28c-6.075 0-11 4.925-11 11s4.925 11 11 11h74.28c6.075 0 11-4.925 11-11s-4.925-11-11-11z"/></g><path d="m478.781 226.164c.003-3.052-1.3-5.966-3.562-8.015-.001-.001-.002-.002-.003-.003l-41.055-37.741c-.04-.037-.081-.073-.122-.109v-143.354c.001-20.37-16.612-36.942-37.032-36.942h-282.014c-20.42 0-37.033 16.572-37.033 36.942v143.35s-41.194 37.87-41.197 37.873c-.011.01-.132.125-.324.308-2.072 1.972-3.238 4.723-3.219 7.583v.001c-.001.065-.002 246.527-.002 246.527 0 21.733 17.726 39.415 39.514 39.415h366.535c21.788 0 39.514-17.682 39.514-39.415v-246.331c0-.009 0-.04 0-.089zm-22 21.777v203.994l-145.245-97.642zm-6.302-22.652-16.439 12.037v-27.15zm-335.486-203.289h282.014c8.289 0 15.033 6.703 15.033 14.942v216.493l-119.917 87.807-29.985-20.158c-3.711-2.495-8.563-2.495-12.274 0l-29.985 20.158-119.919-87.806v-216.494c0-8.239 6.744-14.942 15.033-14.942zm-59.774 225.941 145.245 106.352-145.245 97.642zm22.741-10.614-16.439-12.037 16.439-15.113zm361.308 252.673h-366.536c-7.799 0-14.423-5.095-16.684-12.113l199.952-134.419 199.952 134.419c-2.261 7.018-8.886 12.113-16.684 12.113z"/></g><g/><g/><g/><g/><g/><g/><g/><g/><g/><g/><g/><g/><g/><g/><g/></svg>