<svg id="Capa_1" enable-background="new 0 0 512 512" viewBox="0 0 512 512" xmlns="http://www.w3.org/2000/svg" fill="#E6ECF2"><g><g><path d="m153.988 279.163c0-17.668-14.378-32.043-32.05-32.043s-32.048 14.375-32.048 32.043 14.377 32.042 32.049 32.042 32.049-14.373 32.049-32.042zm-42.098 0c0-5.538 4.508-10.043 10.049-10.043s10.05 4.505 10.05 10.043-4.509 10.042-10.05 10.042-10.049-4.504-10.049-10.042z"/><path d="m208.479 311.206c17.672 0 32.049-14.374 32.049-32.042s-14.377-32.043-32.049-32.043-32.05 14.375-32.05 32.043 14.378 32.042 32.05 32.042zm0-42.086c5.541 0 10.049 4.505 10.049 10.043s-4.508 10.042-10.049 10.042-10.05-4.505-10.05-10.042 4.509-10.043 10.05-10.043z"/><path d="m251.092 393.69c19.735 0 35.791-16.056 35.791-35.792v-31.066c3.374 1.177 6.997 1.817 10.768 1.817 18.067 0 32.767-14.696 32.767-32.76s-14.699-32.76-32.767-32.76c-3.77 0-7.394.64-10.768 1.817v-31.066c0-19.736-16.056-35.792-35.791-35.792h-38.556c-3.391-23.073-23.322-40.842-47.327-40.842s-43.936 17.769-47.326 40.842h-38.558c-19.735 0-35.791 16.056-35.791 35.792v31.066c-3.374-1.177-6.997-1.817-10.768-1.817-18.067 0-32.766 14.696-32.766 32.76s14.699 32.76 32.767 32.76c3.77 0 7.394-.64 10.768-1.817v31.066c0 19.735 16.056 35.792 35.791 35.792h43.07v18.232h-26.884c-37.49 0-67.99 30.5-67.99 67.991v20.511c0 6.075 4.925 11 11 11h253.374c6.075 0 11-4.925 11-11v-20.511c0-37.49-30.5-67.991-67.99-67.991h-26.884v-18.232zm46.558-108.561c5.937 0 10.767 4.827 10.767 10.76s-4.83 10.76-10.767 10.76c-5.938 0-10.768-4.827-10.768-10.76s4.831-10.76 10.768-10.76zm-132.442-105.883c11.826 0 21.823 7.984 24.877 18.842h-49.753c3.054-10.858 13.05-18.842 24.876-18.842zm-132.441 127.403c-5.937 0-10.767-4.827-10.767-10.76s4.83-10.76 10.767-10.76c5.938 0 10.768 4.827 10.768 10.76s-4.831 10.76-10.768 10.76zm32.767 51.249v-124.018c0-7.605 6.187-13.792 13.791-13.792h171.767c7.604 0 13.791 6.187 13.791 13.792v124.018c0 7.604-6.187 13.792-13.791 13.792h-171.767c-7.604 0-13.791-6.187-13.791-13.792zm215.362 122.015v9.511h-231.375v-9.511c0-25.359 20.631-45.991 45.99-45.991h139.394c25.36 0 45.991 20.632 45.991 45.991zm-94.875-67.991h-41.626v-18.232h41.626z"/><path d="m219.479 340.884c0-6.075-4.925-11-11-11h-86.54c-6.075 0-11 4.925-11 11s4.925 11 11 11h86.54c6.075 0 11-4.925 11-11z"/><path d="m133.453 54.32c6.075 0 11-4.925 11-11 0-.974.067-1.951.201-2.906 1.43-10.239 10.229-17.838 20.562-17.838.142 0 .283.001.425.004 10.819.218 19.733 8.837 20.293 19.622.299 5.759-1.716 11.225-5.672 15.392-3.963 4.173-9.31 6.472-15.055 6.472-6.075 0-11 4.925-11 11v17.265c0 6.075 4.925 11 11 11s11-4.925 11-11v-7.718c7.57-2.027 14.543-6.115 20.009-11.871 8.151-8.586 12.303-19.836 11.688-31.68-1.155-22.249-19.525-40.028-41.82-40.477-.292-.006-.582-.009-.873-.009-21.274 0-39.397 15.677-42.347 36.795-.273 1.958-.412 3.96-.412 5.949.001 6.076 4.926 11 11.001 11z"/><path d="m175.359 125.47c-1.733-4.241-6.121-7.003-10.69-6.772-4.606.232-8.629 3.393-9.984 7.791-1.334 4.331.249 9.161 3.827 11.919 3.694 2.848 8.921 2.988 12.796.422 4.318-2.858 6.047-8.59 4.051-13.36z"/></g><g fill="#0496FF"><path d="m395.92 9.536c-64.007 0-116.08 49.988-116.08 111.433 0 17.775 4.436 35.332 12.86 51.028l-4.537 29.339c-.462 2.989.327 6.036 2.181 8.425s4.61 3.91 7.62 4.204l40.745 3.985c17.381 9.462 37.107 14.453 57.211 14.453 64.007 0 116.08-49.989 116.08-111.433s-52.073-111.434-116.08-111.434zm0 200.866c-17.097 0-33.832-4.401-48.398-12.727-1.348-.771-2.844-1.247-4.389-1.398l-31.45-3.076 3.339-21.59c.386-2.5-.101-5.055-1.378-7.238-7.722-13.193-11.804-28.202-11.804-43.404 0-49.313 42.204-89.433 94.08-89.433s94.08 40.119 94.08 89.433-42.204 89.433-94.08 89.433z"/><path d="m365.28 119.11c-1.715-4.246-6.13-7.012-10.691-6.783-4.596.232-8.64 3.398-9.988 7.793-1.328 4.328.246 9.17 3.831 11.92 3.697 2.836 8.922 2.999 12.796.42 4.297-2.86 6.07-8.58 4.052-13.35z"/><path d="m402.03 114.17c-3.984-2.653-9.386-2.395-13.089.644-3.293 2.701-4.767 7.233-3.641 11.349 1.265 4.623 5.455 7.985 10.26 8.141 4.656.151 9.011-2.753 10.65-7.117 1.776-4.727.027-10.212-4.18-13.017z"/><path d="m446.87 119.11c-1.772-4.236-6.099-7.014-10.7-6.783-4.593.231-8.635 3.4-9.978 7.794-1.318 4.313.228 9.182 3.824 11.919 3.709 2.822 8.919 3.009 12.803.42 4.329-2.885 6.009-8.554 4.051-13.35z"/></g></g><g/><g/><g/><g/><g/><g/><g/><g/><g/><g/><g/><g/><g/><g/><g/></svg>