<svg id="Capa_1" enable-background="new 0 0 512 512" viewBox="0 0 512 512" xmlns="http://www.w3.org/2000/svg" fill="#052438"><g><g><g><g><path d="m288.343 463.251c-1.452 0-2.911-.287-4.29-.872l-28.053-11.884-28.053 11.885c-3.554 1.505-7.635 1.039-10.757-1.229s-4.827-6.006-4.493-9.851l2.634-30.352-19.971-23.008c-2.53-2.914-3.347-6.94-2.155-10.61s4.22-6.447 7.979-7.317l29.681-6.875 15.709-26.104c1.99-3.306 5.566-5.328 9.425-5.328s7.435 2.022 9.425 5.328l15.709 26.104 29.681 6.875c3.759.871 6.787 3.647 7.979 7.317 1.192 3.669.375 7.696-2.155 10.61l-19.972 23.007 2.634 30.352c.333 3.844-1.372 7.583-4.493 9.851-1.908 1.388-4.177 2.101-6.464 2.101zm-32.343-35.703c1.46 0 2.919.291 4.291.872l15.514 6.572-1.457-16.785c-.257-2.968.7-5.913 2.652-8.162l11.044-12.723-16.414-3.802c-2.902-.672-5.407-2.492-6.943-5.044l-8.687-14.436-8.688 14.436c-1.536 2.552-4.041 4.373-6.943 5.044l-16.414 3.802 11.045 12.723c1.953 2.25 2.91 5.194 2.652 8.162l-1.457 16.785 15.514-6.572c1.372-.581 2.831-.872 4.291-.872z" fill="#0496FF"/></g></g><g><g><path d="m139.676 463.251c-1.452 0-2.911-.287-4.29-.872l-28.053-11.885-28.053 11.885c-3.554 1.505-7.635 1.039-10.757-1.229s-4.827-6.006-4.493-9.851l2.634-30.352-19.971-23.007c-2.53-2.914-3.347-6.94-2.155-10.61s4.22-6.447 7.979-7.317l29.681-6.875 15.71-26.104c1.99-3.306 5.566-5.328 9.425-5.328 3.859 0 7.435 2.022 9.425 5.328l15.709 26.104 29.681 6.875c3.759.871 6.787 3.647 7.979 7.317s.375 7.696-2.155 10.61l-19.971 23.007 2.634 30.353c.333 3.844-1.372 7.583-4.493 9.851-1.909 1.387-4.178 2.1-6.466 2.1zm-32.343-35.703c1.46 0 2.92.291 4.291.872l15.514 6.572-1.457-16.785c-.257-2.968.7-5.913 2.652-8.162l11.044-12.723-16.414-3.802c-2.902-.672-5.407-2.492-6.943-5.044l-8.688-14.436-8.688 14.436c-1.536 2.552-4.041 4.373-6.943 5.044l-16.414 3.802 11.044 12.723c1.953 2.25 2.91 5.194 2.652 8.162l-1.457 16.785 15.514-6.572c1.374-.581 2.834-.872 4.293-.872z" fill="#0496FF"/></g></g><g><g><path d="m437.009 463.251c-1.452 0-2.911-.287-4.29-.872l-28.053-11.885-28.053 11.885c-3.554 1.505-7.635 1.039-10.757-1.229s-4.827-6.006-4.493-9.851l2.634-30.353-19.971-23.007c-2.53-2.914-3.347-6.94-2.155-10.61 1.192-3.669 4.22-6.446 7.979-7.317l29.681-6.875 15.709-26.104c1.99-3.306 5.566-5.328 9.425-5.328 3.858 0 7.435 2.022 9.425 5.328l15.71 26.104 29.681 6.875c3.759.871 6.787 3.647 7.979 7.317 1.192 3.669.375 7.696-2.155 10.61l-19.972 23.007 2.634 30.352c.333 3.844-1.372 7.583-4.493 9.851-1.908 1.389-4.178 2.102-6.465 2.102zm-64.387-65.929 11.044 12.723c1.953 2.25 2.91 5.194 2.652 8.162l-1.457 16.785 15.514-6.572c2.742-1.162 5.839-1.162 8.582 0l15.514 6.572-1.457-16.785c-.257-2.968.7-5.913 2.652-8.162l11.044-12.723-16.414-3.802c-2.902-.672-5.407-2.492-6.943-5.044l-8.688-14.436-8.688 14.436c-1.536 2.552-4.041 4.373-6.943 5.044z" fill="#0496FF"/></g></g></g><g><g><g><path d="m386.669 169.728h-22v-39.059c0-59.92-48.749-108.669-108.669-108.669s-108.669 48.749-108.669 108.669v39.059h-22v-39.059c0-72.051 58.618-130.669 130.669-130.669s130.669 58.618 130.669 130.669z" fill="#0496FF"/></g><path d="m317.586 174.943c0 14.427-11.737 26.165-26.165 26.165h-35.034c-6.075 0-11 4.925-11 11s4.925 11 11 11h35.034c26.558 0 48.165-21.606 48.165-48.165z" fill="#0496FF"/></g><g><path d="m167.719 212.117h9.599c11.593 32.259 42.482 55.396 78.682 55.396 36.201 0 67.089-23.137 78.682-55.396h9.598c23.373 0 42.389-19.016 42.389-42.389s-19.016-42.389-42.389-42.389h-4.779c-1.756-44.55-38.529-80.256-83.502-80.256s-81.745 35.706-83.501 80.256h-4.779c-23.373 0-42.389 19.016-42.389 42.389s19.016 42.389 42.389 42.389zm88.281 33.396c-33.958 0-61.586-27.627-61.586-61.586v-34.581h123.172v34.581c0 33.958-27.627 61.586-61.586 61.586zm108.669-75.785c0 11.242-9.146 20.389-20.389 20.389h-4.694v-40.777h4.694c11.243-.001 20.389 9.146 20.389 20.388zm-108.669-100.645c32.844 0 59.761 25.844 61.494 58.263h-122.988c1.733-32.419 28.651-58.263 61.494-58.263zm-88.281 80.256h4.694v40.777h-4.694c-11.242 0-20.389-9.146-20.389-20.389s9.147-20.388 20.389-20.388z"/><path d="m479 292.736h-446c-18.196 0-33 14.804-33 33v153.264c0 18.196 14.804 33 33 33h446c18.196 0 33-14.804 33-33v-153.264c0-18.196-14.804-33-33-33zm11 186.264c0 6.065-4.935 11-11 11h-446c-6.065 0-11-4.935-11-11v-153.264c0-6.065 4.935-11 11-11h446c6.065 0 11 4.935 11 11z"/></g></g></g><g/><g/><g/><g/><g/><g/><g/><g/><g/><g/><g/><g/><g/><g/><g/></svg>