<svg id="Capa_1" enable-background="new 0 0 512 512" viewBox="0 0 512 512" xmlns="http://www.w3.org/2000/svg" fill="#052438"><g><g><path d="m62.366 281.829c0 85.574 69.632 155.194 155.221 155.194s155.221-69.62 155.221-155.194c0-30.67-8.937-60.331-25.845-85.777-3.362-5.059-10.189-6.437-15.25-3.074-5.06 3.362-6.436 10.189-3.074 15.25 14.502 21.826 22.168 47.277 22.168 73.601 0 73.443-59.763 133.194-133.221 133.194s-133.22-59.751-133.22-133.194 59.763-133.193 133.221-133.193c31.118 0 61.394 10.952 85.251 30.838 4.666 3.889 11.602 3.26 15.493-1.407 3.89-4.667 3.26-11.603-1.407-15.493-27.803-23.175-63.082-35.938-99.337-35.938-85.589-.001-155.221 69.619-155.221 155.193z"/><path d="m426.561 233.304-14.832-3.298c-1.487-5.633-3.222-11.219-5.183-16.677-2.054-5.718-8.354-8.686-14.071-6.634-5.718 2.054-8.688 8.354-6.634 14.071 2.449 6.817 4.503 13.859 6.106 20.928.94 4.148 4.188 7.382 8.339 8.305l12.886 2.865v57.93l-12.886 2.865c-4.151.923-7.399 4.157-8.339 8.305-4.46 19.667-12.154 38.32-22.868 55.442-2.247 3.591-2.232 8.152.037 11.728l7.138 11.251-40.717 40.918-11.107-7.117c-3.596-2.304-8.2-2.319-11.811-.037-17.03 10.761-35.579 18.488-55.132 22.966-4.146.949-7.373 4.204-8.287 8.357l-2.855 12.969h-57.52l-2.855-12.969c-.915-4.153-4.141-7.408-8.287-8.357-19.555-4.479-38.105-12.207-55.133-22.967-3.611-2.281-8.214-2.267-11.811.037l-11.108 7.118-40.716-40.918 7.138-11.251c2.269-3.576 2.284-8.137.037-11.728-10.714-17.124-18.408-35.777-22.868-55.442-.94-4.148-4.188-7.382-8.339-8.305l-12.883-2.865v-57.93l12.885-2.865c4.151-.923 7.399-4.157 8.339-8.305 4.459-19.665 12.153-38.318 22.868-55.443 2.247-3.59 2.232-8.151-.037-11.728l-7.138-11.25 40.716-40.918 11.108 7.118c3.595 2.304 8.2 2.318 11.811.037 17.028-10.761 35.578-18.488 55.133-22.967 4.146-.949 7.372-4.204 8.287-8.357l2.855-12.969h57.52l2.855 12.969c.915 4.153 4.141 7.408 8.287 8.357 12.83 2.938 25.356 7.327 37.232 13.044 5.474 2.636 12.047.334 14.683-5.14 2.635-5.474.334-12.048-5.14-14.683-11.24-5.411-23-9.764-35.045-12.977l-3.289-14.937c-1.11-5.043-5.579-8.635-10.743-8.635h-75.203c-5.164 0-9.632 3.592-10.743 8.635l-3.289 14.935c-17.22 4.587-33.69 11.447-49.124 20.46l-12.802-8.203c-4.36-2.794-10.079-2.168-13.732 1.503l-53.175 53.44c-3.625 3.644-4.245 9.312-1.491 13.652l8.205 12.932c-8.989 15.531-15.828 32.107-20.396 49.437l-14.829 3.298c-5.028 1.119-8.608 5.583-8.608 10.738v75.574c0 5.155 3.58 9.619 8.612 10.738l14.829 3.298c4.568 17.329 11.407 33.906 20.396 49.436l-8.205 12.933c-2.754 4.34-2.135 10.008 1.491 13.652l53.175 53.439c3.653 3.671 9.372 4.297 13.732 1.503l12.802-8.203c15.433 9.013 31.904 15.873 49.124 20.46l3.289 14.935c1.11 5.043 5.579 8.635 10.743 8.635h75.203c5.164 0 9.632-3.592 10.743-8.635l3.288-14.935c17.218-4.586 33.689-11.446 49.122-20.459l12.801 8.202c4.361 2.793 10.08 2.168 13.732-1.503l53.176-53.439c3.625-3.644 4.245-9.312 1.491-13.652l-8.205-12.933c8.989-15.53 15.827-32.104 20.396-49.436l14.83-3.298c5.032-1.119 8.612-5.583 8.612-10.738v-75.574c-.004-5.155-3.584-9.619-8.616-10.738z"/><path d="m253.212 334.012h-35.626c-6.075 0-11 4.925-11 11s4.925 11 11 11h35.626c15.891 0 29.25-11.046 32.808-25.865h15.372c15.666 0 28.41-12.744 28.41-28.407v-30.066c0-15.664-12.745-28.407-28.41-28.407h-14.662c-2.833-35.676-32.762-63.84-69.144-63.84-36.381 0-66.31 28.163-69.143 63.84h-14.663c-15.666 0-28.411 12.744-28.411 28.407v30.066c0 15.664 12.745 28.407 28.411 28.407h17.715c1.987 1.961 4.715 3.172 7.728 3.172 6.075 0 11-4.925 11-11v-73.509c0-26.128 21.247-47.384 47.363-47.384s47.363 21.256 47.363 47.384v73.456c.001 6.477-5.264 11.746-11.737 11.746zm54.591-62.339v30.066c0 3.533-2.875 6.407-6.41 6.407h-14.443v-42.881h14.443c3.534.001 6.41 2.876 6.41 6.408zm-180.433 30.067v-30.066c0-3.533 2.876-6.407 6.411-6.407h14.443v42.881h-14.443c-3.535-.001-6.411-2.876-6.411-6.408z"/></g><g fill="#0496FF"><path d="m401.297 11.559c-61.042 0-110.704 47.712-110.704 106.359 0 16.906 4.201 33.604 12.181 48.547l-4.276 27.676c-.461 2.988.327 6.035 2.181 8.424s4.609 3.909 7.619 4.204l38.545 3.772c16.55 8.994 35.322 13.736 54.454 13.736 61.042 0 110.703-47.712 110.703-106.359s-49.661-106.359-110.703-106.359zm0 190.717c-16.123 0-31.905-4.152-45.64-12.009-1.348-.771-2.844-1.248-4.39-1.399l-29.25-2.863 3.078-19.921c.386-2.498-.1-5.052-1.376-7.233-7.278-12.444-11.125-26.599-11.125-40.934 0-46.516 39.792-84.359 88.704-84.359s88.702 37.844 88.702 84.359-39.792 84.359-88.703 84.359z"/><path d="m372.75 115.68c-.28-.66-.62-1.3-1.01-1.89-.4-.61-.86-1.17-1.37-1.68-.51-.5-1.07-.96-1.67-1.36s-1.24-.74-1.9-1.02c-.66-.27-1.36-.48-2.06-.62-1.42-.29-2.88-.29-4.3 0-.7.14-1.39.35-2.06.62-.66.28-1.3.62-1.89 1.02-.61.4-1.17.86-1.68 1.36-.5.51-.96 1.07-1.36 1.68-.4.59-.74 1.23-1.01 1.89-.28.67-.49 1.36-.63 2.06-.15.71-.22 1.44-.22 2.15 0 .72.07 1.44.22 2.15.14.7.35 1.4.63 2.06.27.66.61 1.3 1.01 1.9s.86 1.16 1.36 1.67c.51.51 1.07.97 1.68 1.37.59.39 1.23.73 1.89 1.01.67.27 1.36.49 2.06.63.71.14 1.43.21 2.15.21s1.44-.07 2.15-.21c.7-.14 1.4-.36 2.06-.63.66-.28 1.3-.62 1.9-1.01.6-.4 1.16-.86 1.67-1.37s.97-1.07 1.37-1.67c.39-.6.73-1.24 1.01-1.9.27-.66.49-1.36.63-2.06.14-.71.21-1.43.21-2.15 0-.71-.07-1.44-.21-2.15-.14-.7-.36-1.39-.63-2.06z"/><path d="m411.45 115.68c-.27-.66-.61-1.3-1.01-1.89-.4-.61-.86-1.17-1.37-1.68-.5-.5-1.06-.96-1.67-1.36-.59-.4-1.23-.74-1.9-1.01-.66-.28-1.35-.49-2.05-.63-1.42-.29-2.88-.29-4.3 0-.7.14-1.4.35-2.06.63-.66.27-1.3.61-1.9 1.01s-1.16.86-1.67 1.36c-.51.51-.97 1.07-1.37 1.68-.4.59-.74 1.23-1.01 1.89-.28.67-.49 1.36-.63 2.06-.14.71-.21 1.44-.21 2.15 0 2.9 1.17 5.73 3.22 7.78.51.51 1.07.97 1.67 1.37.6.39 1.24.73 1.9 1.01.66.27 1.36.48 2.06.63.71.14 1.43.21 2.15.21.71 0 1.44-.07 2.15-.21.7-.15 1.39-.36 2.05-.63.67-.28 1.31-.62 1.9-1.01.61-.4 1.17-.86 1.67-1.37 2.05-2.05 3.23-4.88 3.23-7.78 0-.71-.07-1.44-.22-2.15-.14-.7-.35-1.39-.63-2.06z"/><path d="m450.16 115.68c-.28-.66-.62-1.3-1.01-1.89-.4-.61-.86-1.17-1.37-1.68-.51-.5-1.07-.96-1.67-1.36s-1.24-.74-1.9-1.01c-.67-.28-1.36-.49-2.06-.63-1.42-.29-2.88-.29-4.3 0-.7.14-1.39.35-2.06.63-.66.27-1.3.61-1.89 1.01-.61.4-1.17.86-1.68 1.36-.5.51-.96 1.07-1.36 1.68-.4.59-.74 1.23-1.02 1.89-.27.67-.48 1.36-.62 2.06-.15.71-.22 1.44-.22 2.15 0 .72.07 1.44.22 2.15.14.7.35 1.4.62 2.06.28.66.62 1.3 1.02 1.9s.86 1.16 1.36 1.67c.51.51 1.07.97 1.68 1.37.59.39 1.23.73 1.89 1.01.67.27 1.36.49 2.06.63.71.14 1.43.21 2.15.21s1.44-.07 2.15-.21c.7-.14 1.39-.36 2.06-.63.66-.28 1.3-.62 1.9-1.01.6-.4 1.16-.86 1.67-1.37s.97-1.07 1.37-1.67c.39-.6.73-1.24 1.01-1.9.27-.66.48-1.36.63-2.06.14-.71.21-1.43.21-2.15 0-.71-.07-1.44-.21-2.15-.15-.7-.36-1.39-.63-2.06z"/></g></g><g/><g/><g/><g/><g/><g/><g/><g/><g/><g/><g/><g/><g/><g/><g/></svg>