<svg id="Capa_1" enable-background="new 0 0 512 512" viewBox="0 0 512 512" xmlns="http://www.w3.org/2000/svg" fill="#E6ECF2"><g><g><g fill="#0496FF"><path d="m402 368v65.833c0 17.737-14.43 32.167-32.167 32.167h-60.629c-4.623-13.925-17.763-24-33.219-24h-39.969c-19.299 0-35 15.701-35 35s15.701 35 35 35h39.969c15.456 0 28.596-10.075 33.219-24h60.629c29.868 0 54.167-24.299 54.167-54.167v-65.833zm-126.016 122h-39.969c-7.168 0-13-5.832-13-13s5.832-13 13-13h39.969c7.168 0 13 5.832 13 13s-5.832 13-13 13z"/><path d="m362.463 322.667h-60.901c.651-8.839.974-17.803.974-26.667s-.323-17.827-.974-26.667h60.557v-22h-62.92c-5.946-41.433-19.98-75.333-43.199-75.333s-37.253 33.9-43.2 75.333h-63.364v22h61.001c-.651 8.839-.974 17.803-.974 26.667s.323 17.827.974 26.667h-61.001v22h63.364c5.947 41.433 19.981 75.333 43.2 75.333s37.253-33.9 43.199-75.333h63.364zm-121.098-103.27c6.598-20.982 13.541-25.397 14.635-25.397s8.036 4.415 14.635 25.397c2.602 8.274 4.719 17.709 6.324 27.937h-41.918c1.605-10.228 3.722-19.663 6.324-27.937zm29.27 153.206c-6.599 20.982-13.541 25.397-14.635 25.397s-8.037-4.415-14.635-25.397c-2.602-8.274-4.719-17.709-6.324-27.937h41.918c-1.606 10.228-3.722 19.663-6.324 27.937zm8.882-49.936h-47.035c-.672-8.6-1.019-17.54-1.019-26.667s.347-18.066 1.019-26.667h47.035c.672 8.6 1.019 17.54 1.019 26.667s-.347 18.066-1.019 26.667z"/></g><path d="m468 213.131v-1.131c0-116.897-95.103-212-212-212s-212 95.103-212 212v1.131c-24.549 1.72-44 22.228-44 47.207v71.325c0 26.102 21.235 47.337 47.337 47.337h76.064c12.084 0 22.552-7.042 27.521-17.237 21.954 34.952 60.845 58.237 105.078 58.237s83.124-23.285 105.077-58.237c4.969 10.195 15.437 17.237 27.521 17.237h76.065c26.102 0 47.337-21.235 47.337-47.337v-71.325c0-24.98-19.451-45.488-44-47.207zm-212-191.131c104.767 0 190 85.234 190 190v1h-22v-1c0-92.636-75.364-168-168-168s-168 75.364-168 168v1h-22v-1c0-104.766 85.233-190 190-190zm105.077 208.237c-21.953-34.952-60.844-58.237-105.077-58.237s-83.124 23.285-105.077 58.237c-4.97-10.195-15.437-17.237-27.521-17.237h-13.402v-1c0-80.505 65.495-146 146-146s146 65.495 146 146v1h-13.402c-12.084 0-22.552 7.042-27.521 17.237zm-339.077 101.426v-71.325c0-13.972 11.366-25.338 25.337-25.338h40.663v122h-40.663c-13.971 0-25.337-11.366-25.337-25.337zm110 16.739c0 4.741-3.857 8.598-8.598 8.598h-13.402v-122h13.402c4.741 0 8.598 3.857 8.598 8.598zm124 49.598c-56.243 0-102-45.757-102-102s45.757-102 102-102 102 45.757 102 102-45.757 102-102 102zm124-49.598v-104.804c0-4.741 3.856-8.598 8.598-8.598h13.402v122h-13.402c-4.742 0-8.598-3.857-8.598-8.598zm110-16.739c0 13.971-11.366 25.337-25.337 25.337h-40.663v-122h40.663c13.971 0 25.337 11.366 25.337 25.337z"/></g></g><g/><g/><g/><g/><g/><g/><g/><g/><g/><g/><g/><g/><g/><g/><g/></svg>