<svg id="Layer_1" enable-background="new 0 0 512 512" viewBox="0 0 512 512" xmlns="http://www.w3.org/2000/svg" fill="#052438"><g><g><path d="m139.509 132.393c7.786-9.228 12.491-21.134 12.491-34.124 0-29.224-23.776-53-53-53s-53 23.776-53 53c0 12.99 4.705 24.896 12.491 34.124-33.727 9.66-58.491 40.752-58.491 77.54v74.875c0 18.196 14.804 33 33 33 2.402 0 4.742-.265 7-.754v161.943c0 6.075 4.925 11 11 11h96c6.075 0 11-4.925 11-11v-161.944c2.258.49 4.598.754 7 .754 18.196 0 33-14.804 33-33v-74.875c0-36.787-24.764-67.879-58.491-77.539zm-40.509-65.124c17.093 0 31 13.907 31 31s-13.907 31-31 31-31-13.907-31-31 13.907-31 31-31zm11 400.728v-148.8c0-6.075-4.925-11-11-11s-11 4.925-11 11v148.8h-26v-167.453c2.55-4.68 4-10.042 4-15.736v-14.583h66v14.583c0 5.694 1.45 11.056 4 15.736v167.453zm66-183.189c0 6.065-4.935 11-11 11s-11-4.935-11-11v-66.128c0-6.075-4.925-11-11-11s-11 4.925-11 11v29.544h-66v-29.544c0-6.075-4.925-11-11-11s-11 4.925-11 11v66.128c0 6.065-4.935 11-11 11s-11-4.935-11-11v-74.875c0-32.348 26.316-58.664 58.664-58.664h36.672c32.348 0 58.664 26.316 58.664 58.664z"/><path d="m478.041 240.256c-.001-6.074-4.926-10.998-11-10.998h-84c-2.917 0-5.716 1.159-7.779 3.223-2.063 2.063-3.222 4.861-3.221 7.779l.011 67.743h-72.973c-6.075 0-11 4.925-11 11v65h-73c-6.075 0-11 4.925-11 11v84c0 6.075 4.925 11 11 11h252c2.917 0 5.716-1.159 7.779-3.223 2.063-2.063 3.222-4.861 3.221-7.779zm-251.962 165.747h62v62h-62zm84-76h61.977l.022 138h-61.998v-138zm84 138-.036-216.745h62l.034 216.745z"/><path d="m501 66.894h-37.495v-33.897c0-6.075-4.925-11-11-11h-59.183c-6.075 0-11 4.925-11 11v33.897h-37.495c-6.075 0-11 4.925-11 11v43.491c0 4.559 2.799 8.541 6.88 10.189v64.684c0 6.075 4.925 11 11 11h142.413c6.075 0 11-4.925 11-11v-64.684c4.08-1.649 6.88-5.63 6.88-10.189v-43.491c0-6.076-4.925-11-11-11zm-96.678-22.897h37.183v22.897h-37.183zm-48.495 44.897h134.173v23.141l-67.423 11.005-66.75-10.992zm6.88 96.364v-49.781l58.075 9.563c.592.097 1.189.146 1.787.146.593 0 1.185-.048 1.772-.144l58.779-9.594v49.809h-120.413z" fill="#0496FF"/></g></g><g/><g/><g/><g/><g/><g/><g/><g/><g/><g/><g/><g/><g/><g/><g/></svg>