<svg id="Capa_1" enable-background="new 0 0 512 512" viewBox="0 0 512 512" xmlns="http://www.w3.org/2000/svg" fill="#E6ECF2"><g><path d="m508.778 3.222c-2.063-2.063-4.861-3.222-7.778-3.222h-266.243c-4.449 0-8.46 2.68-10.163 6.791s-.762 8.842 2.384 11.988l65.299 65.298-89.804 89.803 15.557 15.557 97.582-97.582c2.063-2.063 3.222-4.861 3.222-7.778s-1.159-5.715-3.222-7.778l-54.299-54.299h228.687v228.687l-54.298-54.298c-2.063-2.062-4.861-3.222-7.778-3.222s-5.715 1.159-7.778 3.222l-97.582 97.582 15.557 15.557 89.803-89.804 65.298 65.299c3.146 3.146 7.876 4.087 11.988 2.384 4.11-1.703 6.791-5.713 6.791-10.163v-266.244c-.001-2.917-1.16-5.715-3.223-7.778z"/><path d="m339.108 183.892c0-6.075-4.925-11-11-11h-184.466c-4.449 0-8.46 2.68-10.163 6.791s-.762 8.842 2.384 11.988l42.853 42.853-87.276 87.276 15.557 15.557 95.055-95.056c4.295-4.296 4.295-11.261 0-15.557l-31.853-31.853h146.91v146.91l-31.853-31.853c-4.297-4.296-11.261-4.295-15.557 0l-95.056 95.055 15.557 15.557 87.277-87.277 42.853 42.853c3.146 3.146 7.877 4.087 11.988 2.384 4.11-1.703 6.791-5.713 6.791-10.163z" fill="#0496FF"/><path d="m188.299 334.701c0-6.075-4.925-11-11-11h-120.158c-4.449 0-8.46 2.68-10.163 6.791s-.762 8.842 2.384 11.988l25.203 25.202-71.343 71.342c-4.295 4.296-4.295 11.261 0 15.557l54.198 54.198c2.148 2.148 4.963 3.222 7.778 3.222s5.63-1.074 7.778-3.222l71.343-71.343 25.202 25.203c3.146 3.146 7.877 4.086 11.988 2.384 4.11-1.703 6.791-5.713 6.791-10.163zm-36.202 79.4c-4.296-4.296-11.261-4.296-15.557 0l-71.343 71.343-38.642-38.642 71.345-71.343c4.295-4.296 4.295-11.261 0-15.557l-14.203-14.202h82.602v82.602z"/></g><g/><g/><g/><g/><g/><g/><g/><g/><g/><g/><g/><g/><g/><g/><g/></svg>