<svg id="Layer_1" enable-background="new 0 0 512 512" viewBox="0 0 512 512" xmlns="http://www.w3.org/2000/svg" fill="#052438"><g><path d="m472 92h-100.691v-59c0-18.196-14.804-33-33-33h-164.617c-18.196 0-33 14.804-33 33v59h-100.692c-6.075 0-11 4.925-11 11v108.407c0 5.177 3.61 9.653 8.669 10.75l7.331 1.59v189.253c0 6.075 4.925 11 11 11h149.838v-22h-138.838v-173.484l161.723 35.063 4.661-21.5-182.384-39.542v-88.537h410v88.52l-182.42 39.203 4.623 21.509 161.797-34.771v173.539h-138.838v22h149.838c6.075 0 11-4.925 11-11v-189.267l7.312-1.571c5.068-1.089 8.688-5.57 8.688-10.754v-108.408c0-6.075-4.925-11-11-11zm-309.308-59c0-6.065 4.935-11 11-11h164.617c6.065 0 11 4.935 11 11v59h-22v-37c0-6.075-4.925-11-11-11h-120.617c-6.075 0-11 4.925-11 11v37h-22zm142.617 59h-98.617v-26h98.617z"/><path d="m322.175 443.98-30.879-196.149 23.799-68.207c1.174-3.364.646-7.088-1.417-9.993s-5.406-4.631-8.969-4.631h-97.417c-3.563 0-6.905 1.726-8.968 4.631s-2.591 6.629-1.417 9.993l23.799 68.207-30.88 196.149c-.547 3.475.601 7.001 3.088 9.489l55.309 55.309c2.063 2.063 4.861 3.222 7.778 3.222s5.715-1.159 7.778-3.222l55.309-55.309c2.486-2.487 3.634-6.014 3.087-9.489zm-80.771-186.166h29.193l.37 2.352-35.526 35.526zm-11.777 74.805 45.572-45.572 5.455 34.649-58.519 58.52zm59.594-145.619-17.033 48.814h-32.375l-17.033-48.814zm-72.9 230.143 68.565-68.565 5.228 33.206-68.886 68.886-8.799-8.799zm39.679 68.301-19.217-19.217 57.561-57.561 5.228 33.206z" fill="#0496FF"/></g><g/><g/><g/><g/><g/><g/><g/><g/><g/><g/><g/><g/><g/><g/><g/></svg>