<svg id="Capa_1" enable-background="new 0 0 512 512" viewBox="0 0 512 512" xmlns="http://www.w3.org/2000/svg" fill="#052438"><g><g><path d="m173.672 178.818c20.67 0 37.486-16.816 37.486-37.486 0-6.075-4.925-11-11-11s-11 4.925-11 11c0 8.539-6.947 15.486-15.486 15.486s-15.486-6.947-15.486-15.486c0-6.075-4.925-11-11-11s-11 4.925-11 11c0 20.669 16.816 37.486 37.486 37.486z"/><path d="m221.347 224.194v-17.397c19.385-14.068 32.352-36.467 33.582-61.898 12.854-4.513 22.096-16.772 22.096-31.149 0-14.341-9.195-26.575-22-31.115v-.888-48.903c-.001-18.11-14.734-32.844-32.844-32.844h-5.036c-8.379 0-16.035 3.154-21.844 8.337-5.809-5.183-13.465-8.337-21.844-8.337h-30.34c-15.133 0-29.361 5.894-40.064 16.595-6.546 6.546-15.249 10.151-24.507 10.151h-9.227c-6.075 0-11 4.925-11 11 0 20.471 11.25 38.353 27.884 47.822-9.51 5.798-15.884 16.252-15.884 28.182 0 14.377 9.241 26.636 22.096 31.149 1.23 25.431 14.197 47.83 33.583 61.899v17.397c-57.982 4.882-103.67 53.635-103.67 112.859v51.906c0 6.075 4.925 11 11 11h207.853v-22h-142.852v-40.906c0-6.075-4.925-11-11-11s-11 4.925-11 11v40.906h-32.001v-40.906c0-49.269 39.246-89.538 88.116-91.202l33.382 33.967c2.068 2.104 4.896 3.29 7.846 3.29s5.777-1.185 7.846-3.29l33.386-33.97c29.74 1.013 56.981 16.328 73.347 41.412l18.426-12.021c-19.258-29.516-50.656-48.133-85.33-51.046zm-102.737-192.043c6.546-6.546 15.249-10.151 24.507-10.151h30.34c5.979 0 10.844 4.865 10.844 10.844 0 6.075 4.925 11 11 11s11-4.925 11-11c0-5.979 4.864-10.844 10.844-10.844h5.036c5.979 0 10.844 4.865 10.844 10.844v37.902h-119.706c-14.384 0-26.647-9.249-31.155-22.113 13.773-.862 26.602-6.637 36.446-16.482zm-4.291 108.77v-5.171c0-6.075-4.925-11-11-11-6.065 0-11-4.935-11-11s4.935-11 11-11c5.739 0 10.445-4.396 10.95-10.003h118.806c.504 5.607 5.211 10.003 10.95 10.003 6.065 0 11 4.935 11 11s-4.935 11-11 11c-6.075 0-11 4.925-11 11v5.171c0 32.727-26.625 59.353-59.353 59.353s-59.353-26.626-59.353-59.353zm59.353 115.494-25.674-26.124v-12.191c8.077 2.694 16.703 4.174 25.674 4.174s17.598-1.48 25.675-4.174v12.191z"/></g><g fill="#0496FF"><path d="m359.926 252.508c-71.542 0-129.745 58.204-129.745 129.746s58.203 129.746 129.745 129.746 129.746-58.204 129.746-129.746-58.204-129.746-129.746-129.746zm0 237.492c-59.411 0-107.745-48.334-107.745-107.746 0-59.411 48.334-107.746 107.745-107.746s107.746 48.334 107.746 107.746-48.335 107.746-107.746 107.746z"/><path d="m440.134 354.784c-3.36-10.344-12.56-17.028-23.436-17.028h-25.467l-7.869-24.221c-3.361-10.343-12.561-17.026-23.436-17.026-10.876 0-20.075 6.683-23.437 17.027l-7.869 24.221h-25.468c-10.876 0-20.074 6.684-23.435 17.027s.153 21.157 8.951 27.549l20.604 14.97-7.87 24.221c-3.36 10.343.152 21.157 8.951 27.55 8.797 6.393 20.168 6.393 28.969 0l20.603-14.969 20.604 14.97c4.399 3.196 9.442 4.794 14.484 4.794s10.085-1.599 14.484-4.795c8.799-6.393 12.312-17.207 8.951-27.55l-7.87-24.221 20.603-14.969c8.799-6.394 12.314-17.207 8.953-27.55zm-21.883 9.75-27.069 19.667c-3.855 2.801-5.469 7.767-3.996 12.299l10.34 31.822c.147.452.594 1.825-.959 2.953-1.555 1.131-2.722.28-3.105 0l-27.069-19.667c-1.928-1.4-4.197-2.101-6.466-2.101s-4.538.7-6.466 2.101l-27.068 19.667c-.383.28-1.55 1.131-3.105 0-1.553-1.128-1.106-2.501-.959-2.953l10.34-31.822c1.473-4.532-.141-9.498-3.996-12.299l-27.07-19.667c-.384-.279-1.552-1.128-.959-2.953s2.037-1.825 2.512-1.825h33.46c4.766 0 8.989-3.069 10.462-7.601l10.339-31.821c.146-.451.593-1.825 2.513-1.825 1.918 0 2.365 1.373 2.512 1.825l10.339 31.822c1.473 4.532 5.696 7.601 10.462 7.601h33.459c.475 0 1.92 0 2.513 1.826.589 1.823-.579 2.672-.964 2.951z"/></g></g><g/><g/><g/><g/><g/><g/><g/><g/><g/><g/><g/><g/><g/><g/><g/></svg>