<svg id="Capa_1" enable-background="new 0 0 512 512" viewBox="0 0 512 512" xmlns="http://www.w3.org/2000/svg" fill="#052438"><g><g><path d="m461 46.136h-410c-28.121 0-51 22.878-51 51v251.729c0 28.122 22.879 51 51 51h127.985l-20 44h-58.14c-6.075 0-11 4.925-11 11s4.925 11 11 11h310.311c6.075 0 11-4.925 11-11s-4.925-11-11-11h-58.14l-20-44h127.984c28.121 0 51-22.878 51-51v-251.729c0-28.122-22.879-51-51-51zm-410 22h410c15.99 0 29 13.009 29 29v209h-468v-209c0-15.991 13.01-29 29-29zm277.85 375.728h-145.7l20-44h105.7zm132.15-66h-410c-15.99 0-29-13.009-29-29v-20.729h468v20.729c0 15.991-13.01 29-29 29z"/><path d="m356 218.244v32.892c0 6.075 4.925 11 11 11h36.892c4.541 12.803 16.768 22 31.108 22 18.196 0 33-14.804 33-33s-14.804-33-33-33c-14.34 0-26.567 9.197-31.108 22h-25.892v-21.892c12.803-4.541 22-16.768 22-31.108s-9.197-26.567-22-31.108v-21.892h25.892c4.541 12.803 16.768 22 31.108 22 18.196 0 33-14.804 33-33s-14.804-33-33-33c-14.34 0-26.567 9.197-31.108 22h-36.892c-6.075 0-11 4.925-11 11v32.892c-9.36 3.32-16.788 10.748-20.108 20.108h-60.633v22h60.633c3.32 9.36 10.748 16.788 20.108 20.108zm79 21.892c6.065 0 11 4.935 11 11s-4.935 11-11 11-11-4.935-11-11 4.935-11 11-11zm0-128c6.065 0 11 4.935 11 11s-4.935 11-11 11-11-4.935-11-11 4.935-11 11-11zm-68 64c6.065 0 11 4.935 11 11s-4.935 11-11 11-11-4.935-11-11 4.935-11 11-11z"/><path d="m108.108 240.136c-4.541-12.803-16.768-22-31.108-22-18.196 0-33 14.804-33 33s14.804 33 33 33c14.34 0 26.567-9.197 31.108-22h36.892c6.075 0 11-4.925 11-11v-32.892c9.36-3.32 16.788-10.748 20.108-20.108h60.633v-22h-60.633c-3.32-9.36-10.748-16.788-20.108-20.108v-32.892c0-6.075-4.925-11-11-11h-36.892c-4.541-12.803-16.768-22-31.108-22-18.196 0-33 14.804-33 33s14.804 33 33 33c14.34 0 26.567-9.197 31.108-22h25.892v21.892c-12.803 4.541-22 16.768-22 31.108s9.197 26.567 22 31.108v21.892zm-31.108 22c-6.065 0-11-4.935-11-11s4.935-11 11-11 11 4.935 11 11-4.935 11-11 11zm0-128c-6.065 0-11-4.935-11-11s4.935-11 11-11 11 4.935 11 11-4.935 11-11 11zm68 42c6.065 0 11 4.935 11 11s-4.935 11-11 11-11-4.935-11-11 4.935-11 11-11z"/></g><path d="m285.021 182.221c4.999-6.311 7.995-14.278 7.995-22.935 0-20.41-16.605-37.015-37.016-37.015s-37.016 16.605-37.016 37.015c0 8.658 2.996 16.624 7.995 22.935-16.927 9.978-28.316 28.389-28.316 49.42v9.359c0 6.075 4.925 11 11 11h92.674c6.075 0 11-4.925 11-11v-9.359c0-21.03-11.389-39.441-28.316-49.42zm-29.021-37.95c8.279 0 15.016 6.736 15.016 15.015s-6.736 15.015-15.016 15.015-15.016-6.736-15.016-15.015 6.737-15.015 15.016-15.015zm-35.3 85.73c.859-18.727 16.364-33.696 35.3-33.696s34.44 14.969 35.3 33.696z" fill="#0496FF"/></g><g/><g/><g/><g/><g/><g/><g/><g/><g/><g/><g/><g/><g/><g/><g/></svg>