<svg id="Capa_1" enable-background="new 0 0 512.003 512.003" viewBox="0 0 512.003 512.003" xmlns="http://www.w3.org/2000/svg" fill="#E6ECF2"><g><g><path d="m266.161 128.55c-2.689-7.107-12.734-9.095-17.94-3.57-6.894 6.79-1.899 18.858 7.781 18.77 7.574.234 13.282-8.282 10.159-15.2z"/><path d="m382.533 450.896c29.589-17.327 43.041-54.18 30.112-87.071l-86.285-219.517c-.093-.237-.204-.462-.312-.688.547-3.543.833-7.171.833-10.865 0-23.84-11.843-44.952-29.941-57.807v-34.009c0-22.574-18.365-40.939-40.939-40.939s-40.939 18.365-40.939 40.939v34.008c-18.099 12.855-29.941 33.968-29.941 57.807 0 3.694.286 7.322.833 10.865-.107.227-.218.451-.311.688l-86.285 219.517c-12.929 32.891.523 69.745 30.112 87.071l-18.113 46.081c-2.223 5.654.559 12.039 6.213 14.261 1.321.52 2.682.766 4.021.766 4.39 0 8.538-2.646 10.24-6.979l118.562-301.632c1.852.146 3.718.242 5.607.242s3.755-.096 5.607-.242l118.562 301.632c1.703 4.333 5.85 6.979 10.24 6.979 1.338 0 2.7-.246 4.021-.766 5.654-2.222 8.436-8.607 6.213-14.261zm-145.471-409.957c0-10.443 8.496-18.939 18.939-18.939s18.939 8.496 18.939 18.939v23.524c-6.033-1.675-12.38-2.59-18.939-2.59s-12.906.915-18.939 2.59zm-99.401 389.118c-18.338-12.585-26.304-36.621-17.828-58.185l78.063-198.599c7.682 10.983 18.384 19.701 30.903 24.924zm69.46-297.303c0-26.953 21.928-48.88 48.88-48.88s48.88 21.928 48.88 48.88-21.928 48.88-48.88 48.88-48.88-21.927-48.88-48.88zm106.986 40.519 78.063 198.599c4.776 12.151 4.534 25.434-.68 37.403-3.717 8.532-9.645 15.668-17.144 20.793l-91.142-231.871c12.52-5.223 23.221-13.941 30.903-24.924z"/></g><path d="m421.409 265.458h-330.815c-6.075 0-11 4.925-11 11s4.925 11 11 11h330.815c6.075 0 11-4.925 11-11s-4.925-11-11-11z" fill="#0496FF"/></g><g/><g/><g/><g/><g/><g/><g/><g/><g/><g/><g/><g/><g/><g/><g/></svg>