<svg id="Layer_1" enable-background="new 0 0 512 512" viewBox="0 0 512 512" xmlns="http://www.w3.org/2000/svg" fill="#E6ECF2"><g><path d="m253.342 267.118c-1.354-14.198-8.886-26.953-20.664-34.996l-17.328-11.832v-1.997c0-6.075-4.925-11-11-11h-.467v-78.459c0-18.826-9.512-35.468-23.979-45.386 8.698-8.237 14.141-19.879 14.141-32.776 0-24.903-20.26-45.163-45.162-45.163-24.903 0-45.163 20.26-45.163 45.163 0 12.897 5.443 24.539 14.141 32.776-14.466 9.919-23.978 26.56-23.978 45.386v78.459h-5.533c-6.075 0-11 4.925-11 11v88c0 6.075 4.925 11 11 11h9.564l.086 95.717 22-.02-.086-95.697h26.146l-4.442 95.195 21.977 1.025 4.49-96.22h20.179l7.853 53.311 21.766-3.206-7.635-51.83c3.064-1.953 5.102-5.372 5.102-9.274v-59.364l4.922 3.361c6.366 4.348 10.438 11.242 11.17 18.917l9.621 100.838 21.9-2.09zm-153.992 2.771c4.757 2.179 10.038 3.404 15.604 3.404h62.792c5.566 0 10.847-1.225 15.604-3.404v25.404h-94zm26.37-219.218c0-12.772 10.391-23.163 23.163-23.163 12.771 0 23.162 10.391 23.162 23.163s-10.391 23.163-23.163 23.163c-12.772-.001-23.162-10.391-23.162-23.163zm-9.837 78.162c0-18.196 14.804-33 33-33s33 14.804 33 33v78.459h-22v-60.942c0-6.075-4.925-11-11-11s-11 4.925-11 11v60.943h-22zm-16.533 100.46h94v6.396c0 8.604-7 15.604-15.604 15.604h-62.792c-8.604 0-15.604-7-15.604-15.604z" fill="#0496FF"/><g><path d="m299.531 243.582c2.063 2.063 4.861 3.222 7.778 3.222s5.716-1.159 7.778-3.222l144.853-144.852 11.309 11.309c2.814 2.813 6.927 3.89 10.761 2.81 3.831-1.079 6.78-4.144 7.712-8.013l21.974-91.26c.896-3.724-.208-7.646-2.916-10.354-2.709-2.708-6.631-3.813-10.354-2.916l-91.26 21.974c-3.869.932-6.934 3.881-8.013 7.712s-.005 7.946 2.81 10.76l11.309 11.309-144.853 144.852c-4.296 4.296-4.296 11.261 0 15.557zm137.074-183.742c4.296-4.296 4.296-11.26 0-15.556l-5.209-5.209 54.702-13.171-13.171 54.701-5.209-5.209c-4.297-4.296-11.26-4.296-15.557 0l-144.851 144.851-15.556-15.556z"/><path d="m501 270.04h-98c-6.075 0-11 4.925-11 11v32.96h-87c-6.075 0-11 4.925-11 11v33h-87c-6.075 0-11 4.925-11 11v33h-87c-6.075 0-11 4.925-11 11v27.236h-87c-6.075 0-11 4.925-11 11v49.764c0 6.075 4.925 11 11 11h490c6.075 0 11-4.925 11-11v-219.96c0-6.075-4.925-11-11-11zm-479 192.197h76v27.763h-76zm98-38.237h76v66h-76zm98-44h76v110h-76zm98-44h76v154h-76zm174 154h-76v-197.96h76z"/></g></g><g/><g/><g/><g/><g/><g/><g/><g/><g/><g/><g/><g/><g/><g/><g/></svg>