<svg id="Capa_1" enable-background="new 0 0 512 512" viewBox="0 0 512 512" xmlns="http://www.w3.org/2000/svg" fill="#052438"><g><g><path d="m501 396.947h-33v-8.52c0-37.983-28.135-69.519-64.659-74.861v-14.144c1.621-1.277 3.187-2.641 4.678-4.112 5.753-5.679 10.082-12.401 12.836-19.741 7.35 3.694 15.534 5.688 23.921 5.688h12.57c6.075 0 11-4.925 11-11v-41.729c0-33.636-27.364-61-61-61h-51.757c-22.607 0-41 18.393-41 41v47.07c0 17.595 8.238 33.376 21.005 43.58v14.388c-36.524 5.343-64.659 36.878-64.659 74.861v8.52h-38.73c-11.09-20.795-31.598-35.841-55.798-39.381v-24.388c12.766-10.204 21.005-25.985 21.005-43.58v-21.032c7.475-8.036 11.675-18.603 11.675-29.715v-16.323c0-6.075-4.925-11-11-11h-66.765c-24.078 0-43.667 19.589-43.667 43.667v35.057c0 14.793 5.798 28.664 16.328 39.057 1.49 1.471 3.057 2.835 4.677 4.112v24.145c-24.201 3.54-44.708 18.586-55.798 39.381h-41.862c-6.075 0-11 4.925-11 11v44c0 6.075 4.925 11 11 11h490c6.075 0 11-4.925 11-11v-44c0-6.075-4.925-11-11-11zm-164.411-141.349v-19.305l32.879-7.493 32.878 7.493v19.959c0 8.863-3.475 17.174-9.782 23.401-6.307 6.225-14.673 9.601-23.536 9.475-17.887-.232-32.439-15.274-32.439-33.53zm109.757-27.07v30.729h-1.57c-7.533 0-14.785-2.741-20.43-7.612v-43.118c0-5.906-1.265-11.52-3.523-16.598 14.883 5.499 25.523 19.829 25.523 36.599zm-109.757-20c0-10.477 8.523-19 19-19h27.757c10.477 0 19 8.523 19 19v5.201l-30.434-6.936c-1.609-.366-3.279-.366-4.889 0l-30.435 6.936v-5.201zm32.153 102.598c.245.003.489.005.734.005 4.041 0 8.01-.449 11.864-1.295v9.444l-11.873 11.873-11.874-11.874v-9.473c3.6.814 7.328 1.27 11.149 1.32zm-75.807 77.301c0-28.095 21.709-51.201 49.232-53.461l19.523 19.523c2.063 2.063 4.861 3.222 7.778 3.222 2.918 0 5.716-1.159 7.778-3.222l19.522-19.522c27.523 2.26 49.232 25.366 49.232 53.461v8.52h-153.065zm-183.281-133.232c0-11.947 9.72-21.667 21.667-21.667h55.765v5.323c0 6.413-2.824 12.463-7.749 16.599-2.489 2.09-3.926 5.173-3.926 8.423v25.725c0 18.256-14.552 33.297-32.438 33.53-8.884.119-17.229-3.25-23.536-9.476-6.309-6.227-9.783-14.538-9.783-23.4zm32.87 89.936c.244 0 .489-.001.734-.005 3.821-.05 7.549-.506 11.148-1.319v18.891c-7.157 4.796-16.59 4.795-23.748 0v-18.862c3.855.846 7.825 1.295 11.866 1.295zm-120.524 73.816h23.211c-.79 4.376-1.211 8.879-1.211 13.48v8.52h-22zm44 22v-8.52c0-28.228 21.915-51.418 49.621-53.491 7.854 6.23 17.38 9.354 26.911 9.354s19.057-3.125 26.911-9.354c27.707 2.073 49.621 25.263 49.621 53.491v8.52zm424 0h-248.935v-8.52c0-4.601-.421-9.104-1.211-13.48h250.146z"/><path d="m204.001 115.053h64c6.075 0 11-4.925 11-11s-4.925-11-11-11h-64c-6.075 0-11 4.925-11 11s4.925 11 11 11z"/></g><g><path d="m280.004 188.38c-2.862 0-5.676-1.118-7.78-3.222l-26.105-26.105h-86.117c-6.075 0-11-4.925-11-11v-88c0-6.075 4.925-11 11-11h152c6.075 0 11 4.925 11 11v88c0 6.075-4.925 11-11 11h-21v18.327c0 4.449-2.68 8.46-6.79 10.163-1.361.563-2.791.837-4.208.837zm-109.003-51.327h79.673c2.917 0 5.715 1.159 7.778 3.222l10.55 10.549v-2.771c0-6.075 4.925-11 11-11h21v-66h-130v66z" fill="#0496FF"/></g></g><g/><g/><g/><g/><g/><g/><g/><g/><g/><g/><g/><g/><g/><g/><g/></svg>