<svg id="Capa_1" enable-background="new 0 0 512 512" viewBox="0 0 512 512" xmlns="http://www.w3.org/2000/svg" fill="#E6ECF2"><g><path d="m392.727 99.338c-4.868-14.983-18.193-24.665-33.948-24.665h-52.581l-16.248-50.007c-4.87-14.984-18.195-24.666-33.95-24.666s-29.08 9.682-33.949 24.666l-16.248 50.007h-52.581c-15.755 0-29.08 9.682-33.948 24.665-4.869 14.983.221 30.649 12.967 39.909l42.538 30.907-16.248 50.008c-4.868 14.984.222 30.649 12.968 39.909 6.373 4.63 13.677 6.945 20.981 6.945s14.608-2.315 20.981-6.945l42.539-30.907 42.539 30.906c12.747 9.261 29.218 9.261 41.963 0 12.746-9.26 17.836-24.925 12.968-39.909l-16.248-50.008 42.538-30.907c12.746-9.259 17.836-24.925 12.967-39.908zm-25.899 22.111-49.004 35.604c-3.855 2.801-5.469 7.766-3.996 12.298l18.718 57.608c2.854 8.782-3.087 13.941-4.976 15.313-1.888 1.372-8.631 5.427-16.1 0l-49.005-35.604c-1.928-1.4-4.197-2.101-6.466-2.101s-4.538.7-6.466 2.101l-49.005 35.604c-7.47 5.428-14.211 1.373-16.1 0s-7.829-6.531-4.976-15.313l18.718-57.608c1.473-4.532-.141-9.497-3.996-12.298l-49.004-35.604c-7.47-5.427-5.697-13.092-4.976-15.312s3.792-9.463 13.025-9.463h60.573c4.766 0 8.989-3.068 10.462-7.601l18.718-57.608c2.855-8.782 10.694-9.465 13.028-9.465s10.173.683 13.025 9.463l18.718 57.608c1.473 4.533 5.696 7.601 10.462 7.601h60.573c9.233 0 12.304 7.243 13.025 9.463s2.495 9.886-4.975 15.314z" fill="#0496FF"/><path d="m330.772 500.248-20-291.864c-.416-6.061-5.658-10.637-11.727-10.222-6.061.415-10.638 5.665-10.223 11.726l2.718 39.664h-71.08l2.718-39.664c.415-6.061-4.162-11.311-10.223-11.726-6.089-.416-11.311 4.162-11.727 10.222l-20 291.864c-.415 6.061 4.162 11.311 10.223 11.726.256.018.511.026.763.026 5.732 0 10.565-4.443 10.964-10.249l1.802-26.292h102.041l1.802 26.292c.398 5.805 5.23 10.249 10.964 10.249.252 0 .507-.009.763-.026 6.06-.415 10.637-5.665 10.222-11.726zm-32.245-148.743h-85.053l1.986-28.977h81.082zm1.507 22 1.986 28.977h-92.04l1.986-28.977zm-6.986-101.954 1.986 28.977h-78.067l1.986-28.977zm-86.561 181.908 1.986-28.977h95.055l1.986 28.977z"/></g><g/><g/><g/><g/><g/><g/><g/><g/><g/><g/><g/><g/><g/><g/><g/></svg>