<svg id="Layer_1" enable-background="new 0 0 512 512" viewBox="0 0 512 512" xmlns="http://www.w3.org/2000/svg" fill="#052438"><g><g fill="#0496FF"><path d="m295.389 443.121-15.557-15.557-12.831 12.831c-2.679 2.679-3.791 6.548-2.942 10.241l12.136 52.827 21.441-4.926-10.772-46.892z"/><path d="m232.167 427.564-15.557 15.557 8.525 8.525-10.772 46.892 21.441 4.926 12.136-52.827c.848-3.693-.264-7.562-2.942-10.241z"/><path d="m489.5 60.396-102.057-58.922c-3.403-1.965-7.597-1.965-11 0s-5.5 5.596-5.5 9.526v17.458c-22.851 1.515-45.335 7.721-65.618 18.175-18.598 9.586-35.43 22.762-49.314 38.511-4.123-4.682-8.52-9.161-13.186-13.403-28.227-25.666-64.012-40.817-101.768-43.288v-17.453c0-3.93-2.097-7.562-5.5-9.526s-7.597-1.965-11 0l-102.057 58.922c-3.403 1.965-5.5 5.596-5.5 9.526s2.097 7.562 5.5 9.526l102.058 58.923c3.403 1.965 7.597 1.965 11 0s5.5-5.597 5.5-9.526v-16.368c16.157 2.14 31.446 8.959 43.911 19.729 15.117 13.061 25.127 31.033 28.188 50.605l21.735-3.399c-3.865-24.713-16.487-47.39-35.541-63.853-19.261-16.642-43.871-25.807-69.294-25.807-6.075 0-11 4.925-11 11v9.04l-69.057-39.869 69.058-39.87v9.041c0 6.075 4.925 11 11 11 36.279 0 71.071 13.469 97.967 37.925 26.718 24.293 43.428 57.317 47.054 92.989l23.789 1.664c3.09-19.54 13.111-37.478 28.217-50.508 12.454-10.744 27.726-17.547 43.858-19.684v16.367c0 3.93 2.097 7.562 5.5 9.526s7.597 1.965 11 0l102.057-58.924c3.403-1.965 5.5-5.596 5.5-9.526s-2.097-7.562-5.5-9.527zm-96.557 49.397v-9.04c0-6.075-4.925-11-11-11-25.392 0-49.978 9.145-69.229 25.751-9.372 8.084-17.182 17.677-23.172 28.272-4.722-14.434-11.394-28.156-19.834-40.805 12.586-15.158 28.247-27.79 45.696-36.783 20.72-10.68 43.107-16.095 66.539-16.095 6.075 0 11-4.925 11-11v-9.041l69.057 39.871z"/></g><path d="m363.777 376.127-67.502-11.021v-18.768c21.717-13.474 36.217-37.525 36.217-64.908v-43.429c0-42.094-34.246-76.34-76.34-76.34s-76.34 34.246-76.34 76.34v43.429c0 27.254 14.366 51.204 35.914 64.713v18.963l-67.502 11.021c-26.205 4.279-45.224 26.655-45.224 53.206v71.667c0 6.075 4.925 11 11 11h284c6.075 0 11-4.925 11-11v-71.667c0-26.551-19.019-48.927-45.223-53.206zm-140.843 10.094 17.509 17.509-23.027 23.027-22.25-36.003zm66.132 0 27.767 4.533-22.25 36.003-23.027-23.027zm-87.254-148.22c0-29.963 24.377-54.34 54.34-54.34s54.34 24.377 54.34 54.34v3.241h-108.68zm0 43.429v-18.188h108.68v18.188c0 29.963-24.377 54.34-54.34 54.34s-54.34-24.377-54.34-54.34zm54.34 76.34c6.244 0 12.31-.771 18.123-2.192v14.322l-18.275 18.275-18.274-18.275v-14.392c5.904 1.469 12.073 2.262 18.426 2.262zm130.848 132.23h-262v-60.667c0-15.716 11.258-28.96 26.768-31.493l19.907-3.25 34.334 55.557c1.768 2.86 4.746 4.754 8.085 5.144.425.049.85.074 1.273.074 2.899 0 5.703-1.147 7.777-3.222l32.856-32.855 32.855 32.855c2.075 2.075 4.878 3.222 7.777 3.222.423 0 .848-.024 1.273-.074 3.339-.389 6.317-2.284 8.085-5.144l34.334-55.557 19.907 3.25c15.51 2.532 26.768 15.777 26.768 31.493v60.667z"/></g><g/><g/><g/><g/><g/><g/><g/><g/><g/><g/><g/><g/><g/><g/><g/></svg>