<svg id="Capa_1" enable-background="new 0 0 512 512" viewBox="0 0 512 512" xmlns="http://www.w3.org/2000/svg" fill="#E6ECF2"><g><g><g><path d="m256 149.303c-6.075 0-11-4.925-11-11v-44.918c0-6.075 4.925-11 11-11s11 4.925 11 11v44.917c0 6.076-4.925 11.001-11 11.001z" fill="#0496FF"/></g><g><path d="m154.061 208.153c-1.866 0-3.757-.476-5.489-1.476l-38.899-22.458c-5.261-3.038-7.063-9.765-4.026-15.026 3.037-5.263 9.767-7.063 15.026-4.026l38.899 22.458c5.261 3.038 7.063 9.765 4.026 15.026-2.037 3.529-5.736 5.502-9.537 5.502z" fill="#0496FF"/></g><g><path d="m115.182 348.309c-3.802 0-7.498-1.973-9.536-5.502-3.037-5.261-1.234-11.989 4.026-15.026l38.899-22.458c5.264-3.039 11.989-1.234 15.026 4.026 3.037 5.261 1.234 11.989-4.026 15.026l-38.899 22.458c-1.733 1-3.624 1.476-5.49 1.476z" fill="#0496FF"/></g><g><path d="m256 429.615c-6.075 0-11-4.925-11-11v-44.917c0-6.075 4.925-11 11-11s11 4.925 11 11v44.917c0 6.075-4.925 11-11 11z" fill="#0496FF"/></g><g><path d="m396.818 348.309c-1.867 0-3.758-.476-5.49-1.476l-38.899-22.458c-5.261-3.038-7.063-9.765-4.026-15.026s9.765-7.062 15.026-4.026l38.899 22.458c5.261 3.038 7.063 9.765 4.026 15.026-2.037 3.529-5.735 5.502-9.536 5.502z" fill="#0496FF"/></g><g><path d="m357.939 208.153c-3.803 0-7.5-1.973-9.537-5.502-3.037-5.261-1.234-11.989 4.026-15.026l38.899-22.458c5.261-3.038 11.988-1.236 15.026 4.026 3.037 5.261 1.234 11.989-4.026 15.026l-38.899 22.458c-1.732 1.001-3.623 1.476-5.489 1.476z" fill="#0496FF"/></g></g><g><path d="m256 132.131c-68.302 0-123.869 55.567-123.869 123.869s55.567 123.869 123.869 123.869 123.869-55.567 123.869-123.869-55.567-123.869-123.869-123.869zm0 225.738c-56.171 0-101.869-45.698-101.869-101.869s45.698-101.869 101.869-101.869 101.869 45.698 101.869 101.869-45.698 101.869-101.869 101.869z"/><path d="m256 100.422c27.687 0 50.211-22.524 50.211-50.211s-22.524-50.211-50.211-50.211-50.211 22.524-50.211 50.211 22.524 50.211 50.211 50.211zm0-78.422c15.556 0 28.211 12.655 28.211 28.211s-12.655 28.211-28.211 28.211-28.211-12.655-28.211-28.211 12.655-28.211 28.211-28.211z"/><path d="m77.79 203.055c27.687 0 50.211-22.524 50.211-50.211s-22.524-50.211-50.211-50.211-50.211 22.524-50.211 50.211 22.525 50.211 50.211 50.211zm0-78.422c15.556 0 28.211 12.655 28.211 28.211s-12.655 28.211-28.211 28.211-28.211-12.655-28.211-28.211 12.656-28.211 28.211-28.211z"/><path d="m77.798 308.692c-27.687 0-50.211 22.524-50.211 50.211s22.524 50.211 50.211 50.211 50.211-22.524 50.211-50.211-22.525-50.211-50.211-50.211zm0 78.422c-15.556 0-28.211-12.655-28.211-28.211s12.655-28.211 28.211-28.211 28.211 12.655 28.211 28.211-12.656 28.211-28.211 28.211z"/><path d="m256 411.578c-27.687 0-50.211 22.524-50.211 50.211s22.524 50.211 50.211 50.211 50.211-22.524 50.211-50.211-22.524-50.211-50.211-50.211zm0 78.422c-15.556 0-28.211-12.655-28.211-28.211s12.655-28.211 28.211-28.211 28.211 12.655 28.211 28.211-12.655 28.211-28.211 28.211z"/><path d="m434.202 308.692c-27.687 0-50.211 22.524-50.211 50.211s22.524 50.211 50.211 50.211 50.211-22.524 50.211-50.211-22.524-50.211-50.211-50.211zm0 78.422c-15.556 0-28.211-12.655-28.211-28.211s12.655-28.211 28.211-28.211 28.211 12.655 28.211 28.211-12.655 28.211-28.211 28.211z"/><path d="m434.21 203.308c27.687 0 50.211-22.524 50.211-50.211s-22.524-50.211-50.211-50.211-50.211 22.524-50.211 50.211 22.524 50.211 50.211 50.211zm0-78.422c15.556 0 28.211 12.655 28.211 28.211s-12.655 28.211-28.211 28.211-28.211-12.655-28.211-28.211 12.655-28.211 28.211-28.211z"/><path d="m314.688 245h-117.376c-6.075 0-11 4.925-11 11s4.925 11 11 11h117.377c6.075 0 11-4.925 11-11s-4.925-11-11.001-11z"/><path d="m226.294 223h59.412c6.075 0 11-4.925 11-11s-4.925-11-11-11h-59.412c-6.075 0-11 4.925-11 11s4.925 11 11 11z"/><path d="m285.706 289h-59.412c-6.075 0-11 4.925-11 11s4.925 11 11 11h59.412c6.075 0 11-4.925 11-11s-4.925-11-11-11z"/></g></g><g/><g/><g/><g/><g/><g/><g/><g/><g/><g/><g/><g/><g/><g/><g/></svg>