<svg id="Capa_1" enable-background="new 0 0 512 512" viewBox="0 0 512 512" xmlns="http://www.w3.org/2000/svg" fill="#052438"><g><g fill="#0496FF"><path d="m223 213.744h22v115.256h-22z"/><path d="m168 362c-18.196 0-33 14.804-33 33s14.804 33 33 33 33-14.804 33-33-14.804-33-33-33zm0 44c-6.065 0-11-4.935-11-11s4.935-11 11-11 11 4.935 11 11-4.935 11-11 11z"/><path d="m322 384h-44c-6.075 0-11 4.925-11 11s4.925 11 11 11h44c6.075 0 11-4.925 11-11s-4.925-11-11-11z"/><path d="m228.252 178.911c3.605 0 7.038-1.777 9.107-4.834l48.006-70.913c1.961-2.897 2.428-6.556 1.255-9.852-1.172-3.297-3.844-5.839-7.194-6.848l-18.586-5.594 5.83-21.108c.915-3.311.23-6.858-1.851-9.591-2.08-2.733-5.318-4.337-8.752-4.337h-46.939c-4.85 0-9.127 3.176-10.53 7.819l-17.385 57.549c-1.724 5.706 1.41 11.746 7.068 13.622l20.341 6.745 8.908 38.803c.98 4.267 4.397 7.547 8.701 8.352.675.125 1.351.187 2.021.187zm-6.832-66.277-16.05-5.322 11.926-39.479h24.321l-4.845 17.543c-1.591 5.762 1.709 11.739 7.433 13.462l14.557 4.381-25.447 37.588-4.636-20.194c-.86-3.744-3.612-6.769-7.259-7.979z"/></g><g><path d="m300 318h-132c-42.458 0-77 34.542-77 77v66c0 28.122 22.878 51 51 51h6c4.167 0 7.976-2.354 9.839-6.081l11.708-23.417c3.239-6.478 9.751-10.503 16.994-10.503h94.918c7.243 0 13.755 4.024 16.994 10.503l11.708 23.417c1.863 3.727 5.672 6.081 9.839 6.081h6c28.122 0 51-22.878 51-51v-66c0-42.458-34.542-77-77-77zm55 143c0 15.725-12.582 28.567-28.207 28.989l-8.663-17.325c-6.99-13.98-21.042-22.664-36.671-22.664h-94.918c-15.63 0-29.682 8.684-36.671 22.664l-8.662 17.325c-15.626-.422-28.208-13.264-28.208-28.989v-66c0-30.327 24.673-55 55-55h132c30.327 0 55 24.673 55 55z"/><path d="m450.377 59.077h-33v-38.077c0-11.58-9.42-21-21-21h-324.754c-11.58 0-21 9.42-21 21v182.744c0 11.58 9.42 21 21 21h324.754c11.58 0 21-9.42 21-21v-38.077h33c6.075 0 11-4.925 11-11v-84.59c0-6.075-4.925-11-11-11zm-55 143.667h-322.754v-180.744h322.754zm44-59.077h-22v-62.59h22z"/></g></g><g/><g/><g/><g/><g/><g/><g/><g/><g/><g/><g/><g/><g/><g/><g/></svg>