<svg id="Layer_1" enable-background="new 0 0 514 514" viewBox="0 0 514 514" xmlns="http://www.w3.org/2000/svg" fill="#052438"><g id="XMLID_25_"><g id="XMLID_229_"><path d="m262.021 383.469h-51.208c-3.834 0-7.393-1.997-9.39-5.27-1.998-3.273-2.146-7.351-.393-10.761l27.902-54.255h-32.177c-3.746 0-7.235-1.906-9.258-5.059s-2.303-7.119-.742-10.524l55.225-120.49c1.792-3.91 5.698-6.417 10-6.417h54.22c3.792 0 7.318 1.954 9.328 5.17s2.222 7.241.56 10.65l-31.447 64.506h32.604c3.812 0 7.353 1.974 9.357 5.217s2.186 7.292.481 10.703l-55.225 110.449c-1.862 3.727-5.671 6.081-9.837 6.081zm-33.183-22h26.384l44.225-88.449h-32.406c-3.792 0-7.318-1.954-9.328-5.17s-2.222-7.241-.56-10.65l31.447-64.506h-29.562l-45.141 98.49h33.062c3.834 0 7.393 1.997 9.39 5.27 1.998 3.273 2.146 7.351.393 10.761z" fill="#0496FF"/></g><g id="XMLID_231_"><path d="m362.55 40.16h-34.3v-9.08c0-17.14-13.95-31.08-31.09-31.08h-80.32c-17.14 0-31.09 13.94-31.09 31.08v9.08h-34.3c-22.61 0-41 18.4-41 41v391.84c0 22.61 18.39 41 41 41h211.1c22.61 0 41-18.39 41-41v-391.84c0-22.6-18.39-41-41-41zm-154.8-9.08c0-5.01 4.08-9.08 9.09-9.08h80.32c5.01 0 9.09 4.07 9.09 9.08v9.08h-98.5zm173.8 441.92c0 10.48-8.52 19-19 19h-211.1c-10.48 0-19-8.52-19-19v-391.84c0-10.47 8.52-19 19-19h211.1c10.48 0 19 8.53 19 19z"/></g></g><g/><g/><g/><g/><g/><g/><g/><g/><g/><g/><g/><g/><g/><g/><g/></svg>