<svg id="Capa_1" enable-background="new 0 0 512 512" viewBox="0 0 512 512" xmlns="http://www.w3.org/2000/svg" fill="#E6ECF2"><g><path d="m295.749 88h-114.744c-6.075 0-11 4.925-11 11v256.754c0 6.075 4.925 11 11 11h114.744c6.075 0 11-4.925 11-11v-256.754c0-6.075-4.925-11-11-11zm-11 22v63.584h-92.744v-63.584zm0 85.584v63.585h-92.744v-63.585zm-92.744 149.17v-63.584h92.744v63.584z" fill="#0496FF"/><path d="m382.773 391.976-32.024-32.024v-294.952c0-11.58-9.42-21-21-21h-38.077v-33c0-6.075-4.925-11-11-11h-84.59c-6.075 0-11 4.925-11 11v33h-38.077c-11.58 0-21 9.42-21 21v324.754c0 11.58 9.42 21 21 21h113.498 14.247v90.246c0 6.075 4.925 11 11 11h64c6.075 0 11-4.925 11-11v-90.246h14.246c4.449 0 8.46-2.68 10.163-6.791s.76-8.841-2.386-11.987zm-175.691-369.976h62.59v22h-62.59zm48.864 366.754h-107.941v-322.754h180.744v271.951l-3.222-3.222c-4.297-4.296-11.261-4.295-15.557 0zm82.803 11v90.246h-42v-90.246c0-5.656-4.268-10.314-9.759-10.931l30.759-30.759 30.759 30.759c-5.491.617-9.759 5.276-9.759 10.931z"/></g><g/><g/><g/><g/><g/><g/><g/><g/><g/><g/><g/><g/><g/><g/><g/></svg>