<svg id="Layer_1" enable-background="new 0 0 514 514" viewBox="0 0 514 514" xmlns="http://www.w3.org/2000/svg" fill="#052438"><g id="XMLID_00000176722000234041317040000007933516715428555915_"><g id="XMLID_00000122708162861713891710000000655843049502813371_"><path d="m251.98 463.796h-170.694c-6.075 0-11-4.925-11-11v-50.204c0-6.075 4.925-11 11-11h170.694c6.075 0 11 4.925 11 11v50.204c0 6.075-4.925 11-11 11zm-159.694-22h148.694v-28.204h-148.694z" fill="#0496FF"/></g><g id="XMLID_00000153666957974175031290000000769719599061895063_"><path d="m354.895 138.06c-14.53 0-28.54 2.24-41.71 6.39v-63.29c0-22.61-18.4-41-41-41h-34.31v-9.08c0-17.14-13.94-31.08-31.08-31.08h-80.33c-17.13 0-31.08 13.94-31.08 31.08v9.08h-34.3c-22.61 0-41 18.39-41 41v391.84c0 22.61 18.39 41 41 41h211.1c22.6 0 41-18.39 41-41v-63.29c13.17 4.15 27.18 6.39 41.71 6.39 76.66 0 139.02-62.36 139.02-139.02 0-76.65-62.36-139.02-139.02-139.02zm-237.51-106.98c0-5.01 4.08-9.08 9.08-9.08h80.33c5.01 0 9.08 4.07 9.08 9.08v9.08h-98.49zm173.8 441.92c0 10.48-8.53 19-19 19h-211.1c-10.48 0-19-8.52-19-19v-391.84c0-10.48 8.52-19 19-19h211.1c10.47 0 19 8.52 19 19v72.38c-44.69 23.14-75.31 69.84-75.31 123.54 0 53.71 30.62 100.4 75.31 123.54zm63.71-78.9c-64.52 0-117.02-52.49-117.02-117.02 0-64.52 52.5-117.02 117.02-117.02 64.53 0 117.02 52.5 117.02 117.02 0 64.53-52.49 117.02-117.02 117.02z"/></g><g id="XMLID_00000002358208529043817310000004249246947801712802_"><path d="m400.082 333.265h-25.102c-6.075 0-11-4.925-11-11s4.925-11 11-11h25.102c7.776 0 14.102-6.326 14.102-14.102s-6.326-14.102-14.102-14.102h-25.102c-6.075 0-11-4.925-11-11v-40.163c0-6.075 4.925-11 11-11h50.204c6.075 0 11 4.925 11 11s-4.925 11-11 11h-39.204v18.163h14.102c19.907 0 36.102 16.195 36.102 36.102s-16.195 36.102-36.102 36.102z"/></g><g id="XMLID_00000089565627318390645830000010624328794477394048_"><path d="m334.816 333.265h-50.204c-4.327 0-8.252-2.537-10.029-6.481-1.777-3.945-1.077-8.566 1.79-11.807 5.278-5.967 9.792-11.168 13.774-15.758 9.935-11.449 17.781-20.491 29.536-32.246 2.666-2.666 4.134-6.207 4.134-9.972 0-6.556-4.636-12.346-11.022-13.766-5.3-1.181-11.086 1.259-14.402 6.065l-4.727 6.849c-3.451 5-10.302 6.256-15.301 2.805-5-3.451-6.256-10.301-2.805-15.301l4.726-6.848c8.48-12.289 23.112-18.196 37.284-15.045 16.368 3.64 28.248 18.46 28.248 35.241 0 9.641-3.756 18.708-10.577 25.528-10.423 10.422-17.419 18.375-26.417 28.735h25.994c6.075 0 11 4.925 11 11s-4.926 11.001-11.002 11.001z"/></g></g><g/><g/><g/><g/><g/><g/><g/><g/><g/><g/><g/><g/><g/><g/><g/></svg>