<svg id="Capa_1" enable-background="new 0 0 512 512" viewBox="0 0 512 512" xmlns="http://www.w3.org/2000/svg" fill="#E6ECF2"><g><path d="m363.773 55.459h-43.463v-44.459c0-6.075-4.925-11-11-11h-106.621c-6.075 0-11 4.925-11 11v44.459h-43.463c-17.094 0-31 13.907-31 31v394.541c0 17.093 13.906 31 31 31h215.547c17.094 0 31-13.907 31-31v-394.541c0-17.093-13.906-31-31-31zm-150.084-33.459h84.621v33.459h-84.621zm159.084 459c0 4.962-4.037 9-9 9h-215.546c-4.963 0-9-4.038-9-9v-394.541c0-4.963 4.037-9 9-9h215.547c4.963 0 9 4.037 9 9v394.541z"/><g fill="#0496FF"><path d="m256 242.842c39.531 0 71.691-32.161 71.691-71.691s-32.16-71.691-71.691-71.691-71.691 32.161-71.691 71.691 32.16 71.691 71.691 71.691zm0-121.383c27.4 0 49.691 22.291 49.691 49.691s-22.291 49.692-49.691 49.692-49.691-22.292-49.691-49.691 22.291-49.692 49.691-49.692z"/><path d="m239.309 182.15h5.691v5.691c0 6.075 4.925 11 11 11s11-4.925 11-11v-5.691h5.691c6.075 0 11-4.925 11-11s-4.925-11-11-11h-5.691v-5.691c0-6.075-4.925-11-11-11s-11 4.925-11 11v5.691h-5.691c-6.075 0-11 4.925-11 11s4.924 11 11 11z"/><path d="m256 324.618c-39.531 0-71.691 32.161-71.691 71.691 0 39.531 32.16 71.691 71.691 71.691s71.691-32.161 71.691-71.691c0-39.531-32.16-71.691-71.691-71.691zm0 121.382c-27.4 0-49.691-22.292-49.691-49.691s22.291-49.691 49.691-49.691 49.691 22.291 49.691 49.691-22.291 49.691-49.691 49.691z"/><path d="m272.691 385.309h-33.383c-6.075 0-11 4.925-11 11s4.925 11 11 11h33.383c6.075 0 11-4.925 11-11s-4.924-11-11-11z"/></g></g><g/><g/><g/><g/><g/><g/><g/><g/><g/><g/><g/><g/><g/><g/><g/></svg>