<svg id="Capa_1" enable-background="new 0 0 512 512" viewBox="0 0 512 512" xmlns="http://www.w3.org/2000/svg" fill="#052438"><g><path d="m363.773 55.459h-43.463v-44.459c0-6.075-4.925-11-11-11h-106.62c-6.075 0-11 4.925-11 11v44.459h-43.463c-17.093 0-31 13.907-31 31v394.541c0 17.093 13.907 31 31 31h215.546c17.093 0 31-13.907 31-31v-394.541c0-17.093-13.907-31-31-31zm-150.083-33.459h84.62v33.459h-84.62zm159.083 459c0 4.962-4.038 9-9 9h-215.546c-4.962 0-9-4.038-9-9v-394.541c0-4.963 4.038-9 9-9h215.546c4.962 0 9 4.037 9 9z"/><path d="m339.773 359.82h-167.546c-6.075 0-11 4.925-11 11v86.18c0 6.075 4.925 11 11 11h167.546c6.075 0 11-4.925 11-11v-86.18c0-6.075-4.925-11-11-11zm-11 86.18h-145.546v-64.18h145.546z" fill="#0496FF"/></g><g/><g/><g/><g/><g/><g/><g/><g/><g/><g/><g/><g/><g/><g/><g/></svg>