<svg id="Layer_1" enable-background="new 0 0 514 514" viewBox="0 0 514 514" xmlns="http://www.w3.org/2000/svg" fill="#052438"><g id="XMLID_61_"><g id="XMLID_805_"><path d="m257 463.796c-53.125 0-96.347-43.221-96.347-96.347v-180.735c0-53.126 43.221-96.347 96.347-96.347s96.347 43.221 96.347 96.347v180.735c0 53.126-43.221 96.347-96.347 96.347zm0-351.429c-40.995 0-74.347 33.352-74.347 74.347v180.735c0 40.995 33.352 74.347 74.347 74.347s74.347-33.352 74.347-74.347v-180.735c0-40.995-33.352-74.347-74.347-74.347z"/></g><g id="XMLID_803_"><path d="m303.14 186.71c0 6.08-4.92 11-11 11h-24.14v24.15c0 6.07-4.92 11-11 11s-11-4.93-11-11v-24.15h-24.14c-6.08 0-11-4.92-11-11 0-6.07 4.92-11 11-11h24.14v-24.14c0-6.07 4.92-11 11-11s11 4.93 11 11v24.14h24.14c6.08 0 11 4.93 11 11z" fill="#0496FF"/></g><g id="XMLID_801_"><path d="m303.14 367.45c0 6.07-4.92 11-11 11h-24.14v24.14c0 6.08-4.92 11-11 11s-11-4.92-11-11v-24.14h-24.14c-6.08 0-11-4.93-11-11 0-6.08 4.92-11 11-11h24.14v-24.14c0-6.08 4.92-11 11-11s11 4.92 11 11v24.14h24.14c6.08 0 11 4.92 11 11z" fill="#0496FF"/></g><g id="XMLID_772_"><path d="m362.55 40.16h-34.3v-9.08c0-17.14-13.95-31.08-31.09-31.08h-80.32c-17.14 0-31.09 13.94-31.09 31.08v9.08h-34.3c-22.61 0-41 18.4-41 41v391.84c0 22.61 18.39 41 41 41h211.1c22.61 0 41-18.39 41-41v-391.84c0-22.6-18.39-41-41-41zm-154.8-9.08c0-5.01 4.08-9.08 9.09-9.08h80.32c5.01 0 9.09 4.07 9.09 9.08v9.08h-98.5zm173.8 441.92c0 10.48-8.52 19-19 19h-211.1c-10.48 0-19-8.52-19-19v-391.84c0-10.47 8.52-19 19-19h211.1c10.48 0 19 8.53 19 19z"/></g></g><g/><g/><g/><g/><g/><g/><g/><g/><g/><g/><g/><g/><g/><g/><g/></svg>