<svg id="Capa_1" enable-background="new 0 0 512 512" viewBox="0 0 512 512" xmlns="http://www.w3.org/2000/svg" fill="#E6ECF2"><g><g><path d="m461 0h-409.903c-28.122 0-51 22.878-51 51v270.119c-.058.455-.097.915-.097 1.386s.039.931.097 1.386v114.941c0 28.122 22.878 51 51 51h162.059l37.512 20.789c1.659.919 3.495 1.379 5.332 1.379s3.673-.459 5.332-1.379l37.512-20.789h162.156c28.122 0 51-22.878 51-51v-387.832c0-28.122-22.878-51-51-51zm-438.903 177.333h191.059l37.512 20.789c1.659.919 3.495 1.379 5.332 1.379s3.673-.459 5.332-1.379l37.512-20.789h191.156v134.172h-196.152c-1.865 0-3.7.475-5.332 1.379l-34.668 19.213-34.668-19.213c-1.632-.904-3.466-1.379-5.332-1.379h-191.751zm29-155.333h409.903c15.991 0 29 13.009 29 29v104.333h-194c-1.865 0-3.7.475-5.332 1.379l-34.668 19.212-34.668-19.213c-1.632-.904-3.466-1.379-5.332-1.379h-193.903v-104.332c0-15.991 13.009-29 29-29zm409.903 445.832h-165c-1.865 0-3.7.475-5.332 1.379l-34.668 19.213-34.668-19.213c-1.632-.904-3.466-1.379-5.332-1.379h-164.903c-15.991 0-29-13.009-29-29v-105.327h188.907l37.512 20.789c1.659.919 3.495 1.379 5.332 1.379s3.673-.459 5.332-1.379l37.512-20.789h193.308v105.327c0 15.991-13.009 29-29 29z"/><path d="m77.043 69.776h2.223v50.865c0 6.075 4.925 11 11 11s11-4.925 11-11v-61.865c0-6.075-4.925-11-11-11h-13.223c-6.075 0-11 4.925-11 11s4.925 11 11 11z"/><path d="m100.372 259.365h-9.799c.214-.312 9.411-13.333 9.613-13.642 4.347-6.55 9.757-14.702 8.264-25.874-1.703-12.741-12.979-22.349-26.231-22.349-12.669 0-23.635 9.015-26.075 21.435-1.171 5.961 2.712 11.743 8.674 12.914 5.958 1.169 11.743-2.713 12.914-8.674.418-2.129 2.305-3.675 4.487-3.675 2.274 0 4.176 1.403 4.425 3.263.292 2.185-.377 4.136-4.704 10.668l-21.572 30.595c-2.368 3.358-2.667 7.755-.776 11.402s5.657 5.937 9.766 5.937h31.015c6.075 0 11-4.925 11-11s-4.926-11-11.001-11z"/><path d="m83.655 357.851c-8.335 0-15.935 3.672-20.851 10.074-3.7 4.818-2.793 11.724 2.025 15.424 4.818 3.699 11.724 2.794 15.424-2.025.28-.364 1.131-1.473 3.401-1.473 2.463 0 4.466 2.003 4.466 4.466s-2.003 4.466-4.466 4.466c-6.075 0-11 4.925-11 11s4.925 11 11 11c2.463 0 4.466 2.003 4.466 4.466 0 2.462-2.003 4.466-4.522 4.466-1.954.047-3.33-1.308-3.925-2.44-2.826-5.378-9.479-7.446-14.854-4.619-5.377 2.826-7.446 9.477-4.619 14.854 4.61 8.772 13.558 14.206 23.32 14.206h.134c14.594 0 26.466-11.873 26.466-26.466 0-5.771-1.862-11.112-5.009-15.466 3.147-4.354 5.009-9.695 5.009-15.466.001-14.594-11.871-26.467-26.465-26.467z"/></g><g fill="#0496FF"><path d="m431.376 213.433h-271.488c-6.075 0-11 4.925-11 11s4.925 11 11 11h271.488c6.075 0 11-4.925 11-11s-4.925-11-11-11z"/><path d="m159.888 279.433h92.231c6.075 0 11-4.925 11-11s-4.925-11-11-11h-92.231c-6.075 0-11 4.925-11 11s4.925 11 11 11z"/><path d="m159.888 78.708h271.488c6.075 0 11-4.925 11-11s-4.925-11-11-11h-271.488c-6.075 0-11 4.925-11 11s4.925 11 11 11z"/><path d="m159.888 122.708h92.231c6.075 0 11-4.925 11-11s-4.925-11-11-11h-92.231c-6.075 0-11 4.925-11 11s4.925 11 11 11z"/><path d="m431.376 366.783h-271.488c-6.075 0-11 4.925-11 11s4.925 11 11 11h271.488c6.075 0 11-4.925 11-11s-4.925-11-11-11z"/><path d="m252.119 410.783h-92.231c-6.075 0-11 4.925-11 11s4.925 11 11 11h92.231c6.075 0 11-4.925 11-11s-4.925-11-11-11z"/></g></g><g/><g/><g/><g/><g/><g/><g/><g/><g/><g/><g/><g/><g/><g/><g/></svg>