<svg id="Capa_1" enable-background="new 0 0 512 512" viewBox="0 0 512 512" xmlns="http://www.w3.org/2000/svg" fill="#E6ECF2"><g><g fill="#0496FF"><path d="m126.096 0c-6.075 0-11 4.925-11 11v51.947c0 6.075 4.925 11 11 11s11-4.925 11-11v-51.947c0-6.075-4.925-11-11-11z"/><path d="m52.498 0c-6.075 0-11 4.925-11 11v51.947c0 6.075 4.925 11 11 11s11-4.925 11-11v-51.947c0-6.075-4.925-11-11-11z"/><path d="m480 447v43h-22v-43h-22v54c0 6.075 4.925 11 11 11h44c6.075 0 11-4.925 11-11v-54z"/></g><path d="m501 362h-21v-256.074c0-58.408-47.518-105.926-105.926-105.926s-105.926 47.518-105.926 105.926v300.148c0 46.277-37.649 83.926-83.926 83.926s-83.926-37.649-83.926-83.926v-66.466h16.193c6.075 0 11-4.925 11-11v-43.385h40.104c6.075 0 11-4.925 11-11v-152.911c0-6.075-4.925-11-11-11h-15.383v-43.386c0-6.075-4.925-11-11-11h-103.826c-6.075 0-11 4.925-11 11v43.385h-15.384c-6.075 0-11 4.925-11 11v152.912c0 6.075 4.925 11 11 11h40.104v43.385c0 6.075 4.925 11 11 11h16.192v66.466c.001 58.408 47.519 105.926 105.927 105.926s105.926-47.518 105.926-105.926v-300.148c0-46.277 37.649-83.926 83.926-83.926s83.925 37.649 83.925 83.926v256.074h-21c-6.075 0-11 4.925-11 11v74c0 6.075 4.925 11 11 11h64c6.075 0 11-4.925 11-11v-74c0-6.075-4.925-11-11-11zm-452.616-284.074h81.826v32.385h-81.826zm-26.384 54.386h134.594v130.912h-134.594zm51.104 152.911h32.385v32.385h-32.385zm416.896 150.777h-42v-52h42z"/></g><g/><g/><g/><g/><g/><g/><g/><g/><g/><g/><g/><g/><g/><g/><g/></svg>