<svg id="Capa_1" enable-background="new 0 0 512 512" viewBox="0 0 512 512" xmlns="http://www.w3.org/2000/svg" fill="#E6ECF2"><g><g fill="#0496FF"><path d="m138.908 83.67h50.202c6.075 0 11-4.925 11-11s-4.925-11-11-11h-50.202c-6.075 0-11 4.925-11 11s4.925 11 11 11z"/><path d="m458.629 61.67h-136.088c-6.075 0-11 4.925-11 11s4.925 11 11 11h125.088v161.33h-46.541l21.007-20.306c4.367-4.223 4.485-11.187.264-15.554-4.222-4.369-11.186-4.485-15.555-.264l-40.568 39.215c-4.424 4.12-4.423 11.698 0 15.818l40.568 39.215c2.136 2.064 4.892 3.091 7.645 3.091 2.878 0 5.752-1.123 7.91-3.355 4.222-4.368 4.104-11.332-.264-15.554l-21.007-20.306h57.541c6.075 0 11-4.925 11-11v-183.33c0-6.075-4.925-11-11-11z"/><path d="m189.458 245h-136.086c-6.075 0-11 4.925-11 11v183.33c0 6.075 4.925 11 11 11h57.54l-21.007 20.306c-4.368 4.222-4.486 11.186-.264 15.554 2.158 2.233 5.032 3.355 7.91 3.355 2.752 0 5.509-1.027 7.644-3.091l40.569-39.215c4.424-4.119 4.424-11.699 0-15.818l-40.569-39.215c-4.366-4.221-11.331-4.104-15.554.264-4.222 4.368-4.104 11.332.264 15.554l21.007 20.306h-46.54v-161.33h125.087c6.075 0 11-4.925 11-11s-4.925-11-11.001-11z"/><path d="m372.083 428.33h-49.542c-6.075 0-11 4.925-11 11s4.925 11 11 11h49.542c6.075 0 11-4.925 11-11s-4.925-11-11-11z"/></g><g><g><path d="m318.5 329.5h-125c-6.075 0-11-4.925-11-11v-125c0-6.075 4.925-11 11-11h125c6.075 0 11 4.925 11 11v125c0 6.075-4.925 11-11 11zm-114-22h103v-103h-103z"/></g><g><path d="m318.5 147h-125c-6.075 0-11-4.925-11-11v-125c0-6.075 4.925-11 11-11h125c6.075 0 11 4.925 11 11v125c0 6.075-4.925 11-11 11zm-114-22h103v-103h-103z"/></g><g><path d="m136 147h-125c-6.075 0-11-4.925-11-11v-125c0-6.075 4.925-11 11-11h125c6.075 0 11 4.925 11 11v125c0 6.075-4.925 11-11 11zm-114-22h103v-103h-103z"/></g><g><path d="m318.5 512h-125c-6.075 0-11-4.925-11-11v-125c0-6.075 4.925-11 11-11h125c6.075 0 11 4.925 11 11v125c0 6.075-4.925 11-11 11zm-114-22h103v-103h-103z"/></g><g><g><path d="m272.56 84.5h-33.12c-6.075 0-11-4.925-11-11s4.925-11 11-11h33.119c6.075 0 11 4.925 11 11s-4.924 11-10.999 11z"/></g><g><path d="m90.06 84.5h-33.12c-6.075 0-11-4.925-11-11s4.925-11 11-11h33.12c6.075 0 11 4.925 11 11s-4.925 11-11 11z"/></g><g><path d="m272.56 267h-33.12c-6.075 0-11-4.925-11-11s4.925-11 11-11h33.119c6.075 0 11 4.925 11 11s-4.924 11-10.999 11z"/></g><g><path d="m272.56 449.5h-33.12c-6.075 0-11-4.925-11-11s4.925-11 11-11h33.119c6.075 0 11 4.925 11 11s-4.924 11-10.999 11z"/></g><g><path d="m455.06 449.5h-33.12c-6.075 0-11-4.925-11-11s4.925-11 11-11h33.119c6.075 0 11 4.925 11 11s-4.924 11-10.999 11z"/></g></g><g><path d="m501 512h-125c-6.075 0-11-4.925-11-11v-125c0-6.075 4.925-11 11-11h125c6.075 0 11 4.925 11 11v125c0 6.075-4.925 11-11 11zm-114-22h103v-103h-103z"/></g></g></g><g/><g/><g/><g/><g/><g/><g/><g/><g/><g/><g/><g/><g/><g/><g/></svg>