<svg id="Layer_1" enable-background="new 0 0 514 514" viewBox="0 0 514 514" xmlns="http://www.w3.org/2000/svg" fill="#E6ECF2"><g id="XMLID_62_"><g id="XMLID_621_"><path d="m342.347 463.796h-170.694c-6.075 0-11-4.925-11-11v-40.163c0-6.075 4.925-11 11-11h170.693c6.075 0 11 4.925 11 11v40.163c.001 6.075-4.924 11-10.999 11zm-159.694-22h148.693v-18.163h-148.693z" fill="#0496FF"/></g><g id="XMLID_620_"><path d="m342.347 373.429h-170.694c-6.075 0-11-4.925-11-11v-40.164c0-6.075 4.925-11 11-11h170.693c6.075 0 11 4.925 11 11v40.164c.001 6.075-4.924 11-10.999 11zm-159.694-22h148.693v-18.164h-148.693z" fill="#0496FF"/></g><g id="XMLID_619_"><path d="m277.082 283.061h-40.163c-6.075 0-11-4.925-11-11v-34.184h-34.184c-6.075 0-11-4.925-11-11v-40.163c0-6.075 4.925-11 11-11h34.184v-34.184c0-6.075 4.925-11 11-11h40.163c6.075 0 11 4.925 11 11v34.184h34.184c6.075 0 11 4.925 11 11v40.163c0 6.075-4.925 11-11 11h-34.184v34.184c0 6.075-4.925 11-11 11zm-29.164-22h18.163v-34.184c0-6.075 4.925-11 11-11h34.184v-18.163h-34.184c-6.075 0-11-4.925-11-11v-34.184h-18.163v34.184c0 6.075-4.925 11-11 11h-34.184v18.163h34.184c6.075 0 11 4.925 11 11z" fill="#0496FF"/></g><g id="XMLID_623_"><path d="m362.55 40.16h-34.3v-9.08c0-17.14-13.95-31.08-31.09-31.08h-80.32c-17.14 0-31.09 13.94-31.09 31.08v9.08h-34.3c-22.61 0-41 18.4-41 41v391.84c0 22.61 18.39 41 41 41h211.1c22.61 0 41-18.39 41-41v-391.84c0-22.6-18.39-41-41-41zm-154.8-9.08c0-5.01 4.08-9.08 9.09-9.08h80.32c5.01 0 9.09 4.07 9.09 9.08v9.08h-98.5zm173.8 441.92c0 10.48-8.52 19-19 19h-211.1c-10.48 0-19-8.52-19-19v-391.84c0-10.47 8.52-19 19-19h211.1c10.48 0 19 8.53 19 19z"/></g></g><g/><g/><g/><g/><g/><g/><g/><g/><g/><g/><g/><g/><g/><g/><g/></svg>