<svg id="Capa_1" enable-background="new 0 0 512 512" viewBox="0 0 512 512" xmlns="http://www.w3.org/2000/svg" fill="#052438"><g><g fill="#0496FF"><path d="m263.603 88h-114.744c-6.075 0-11 4.925-11 11v256.754c0 6.075 4.925 11 11 11h70.266v-22h-59.266v-63.584h92.744v31.792h22v-213.962c0-6.075-4.925-11-11-11zm-11 22v63.584h-92.744v-63.584zm-92.744 149.169v-63.585h92.744v63.585z"/><path d="m307.603 334.923c-6.075 0-11 4.925-11 11v67.077c0 6.075 4.925 11 11 11s11-4.925 11-11v-67.077c0-6.075-4.925-11-11-11z"/><path d="m317.76 452.79c-2.687-7.102-12.734-9.073-17.94-3.57-6.882 6.817-1.914 18.837 7.78 18.78 7.584.219 13.283-8.284 10.16-15.21z"/></g><path d="m318.603 291.47v-226.47c0-11.58-9.42-21-21-21h-38.077v-33c0-6.075-4.925-11-11-11h-84.59c-6.075 0-11 4.925-11 11v33h-38.077c-11.58 0-21 9.42-21 21v324.754c0 11.58 9.42 21 21 21h82.6c4.735 56.618 52.323 101.246 110.144 101.246 60.951 0 110.539-49.587 110.539-110.539-.001-57.239-43.733-104.452-99.539-109.991zm-143.667-269.47h62.59v22h-62.59zm-59.077 44h180.744v225.47c-51.616 5.123-92.894 45.9-98.803 97.284h-81.94v-322.754zm191.744 424c-48.82 0-88.538-39.718-88.538-88.539s39.718-88.538 88.538-88.538 88.539 39.718 88.539 88.538-39.719 88.539-88.539 88.539z"/></g><g/><g/><g/><g/><g/><g/><g/><g/><g/><g/><g/><g/><g/><g/><g/></svg>