<svg id="Capa_1" enable-background="new 0 0 512 512" height="512" viewBox="0 0 512 512" width="512" xmlns="http://www.w3.org/2000/svg" fill="#E6ECF2"><g><g><g><path d="m490.382 477.204c-4.612 0-9.183-1.495-13.032-4.419l-52.708-40.045c-2.896-2.2-6.489-3.411-10.122-3.411h-352.941c-33.955 0-61.579-27.661-61.579-61.659v-271.215c0-33.998 27.624-61.658 61.579-61.658h388.842c33.955 0 61.579 27.66 61.579 61.658v359.117c0 8.27-4.6 15.689-12.003 19.362-3.064 1.52-6.35 2.27-9.615 2.27zm-428.803-420.408c-21.824 0-39.579 17.791-39.579 39.659v271.215c0 21.868 17.755 39.659 39.579 39.659h352.94c8.411 0 16.733 2.803 23.432 7.894l52.048 39.543.001-358.311c0-21.868-17.755-39.658-39.579-39.658h-388.842z"/></g></g><path d="m374.758 162.101h-32.134l4.492-40.258c.673-6.038-3.675-11.478-9.713-12.152-6.04-.678-11.478 3.675-12.152 9.712l-4.764 42.697h-113.838l4.492-40.258c.673-6.038-3.675-11.478-9.713-12.152-6.041-.678-11.479 3.675-12.152 9.712l-4.764 42.697h-45.228c-6.075 0-11 4.925-11 11s4.925 11 11 11h42.773l-10.557 94.617h-44.578c-6.075 0-11 4.925-11 11s4.925 11 11 11h42.123l-4.492 40.258c-.673 6.038 3.675 11.478 9.713 12.152.414.046.826.069 1.233.069 5.528 0 10.291-4.158 10.919-9.781l4.764-42.698h113.838l-4.492 40.258c-.673 6.038 3.675 11.478 9.713 12.152.414.046.826.069 1.233.069 5.528 0 10.291-4.158 10.919-9.781l4.764-42.698h35.239c6.075 0 11-4.925 11-11s-4.925-11-11-11h-32.784l10.557-94.617h34.588c6.075 0 11-4.925 11-11 .001-6.073-4.924-10.998-10.999-10.998zm-67.283 116.617h-113.838l10.557-94.617h113.838z" fill="#0496FF"/></g></svg>