<svg id="Capa_1" enable-background="new 0 0 512 512" height="512" viewBox="0 0 512 512" width="512" xmlns="http://www.w3.org/2000/svg" fill="#E6ECF2"><g><g><g fill="#0496FF"><path d="m444.896 204.723h-103.745c-6.075 0-11-4.925-11-11s4.925-11 11-11h103.744c6.075 0 11 4.925 11 11 .001 6.075-4.924 11-10.999 11z"/><path d="m444.896 255.553h-103.745c-6.075 0-11-4.925-11-11s4.925-11 11-11h103.744c6.075 0 11 4.925 11 11s-4.924 11-10.999 11z"/><path d="m237.257 387.063h-62.028c-6.075 0-11-4.925-11-11s4.925-11 11-11h62.028c6.075 0 11 4.925 11 11s-4.925 11-11 11z"/></g><g><g><path d="m492.722 479.274c-4.113 0-8.189-1.332-11.621-3.939l-41.078-31.208c-1.836-1.395-4.116-2.163-6.42-2.163h-275.06c-27.801 0-50.418-22.643-50.418-50.477v-96.777c0-6.075 4.925-11 11-11s11 4.925 11 11v96.777c0 15.702 12.748 28.477 28.418 28.477h275.06c7.082 0 14.089 2.36 19.729 6.646l36.668 27.857v-274.332c0-15.702-12.749-28.477-28.419-28.477h-120.43c-6.075 0-11-4.925-11-11s4.925-11 11-11h120.43c27.801 0 50.419 22.644 50.419 50.477v279.853c0 7.372-4.101 13.987-10.701 17.263-2.734 1.355-5.665 2.023-8.577 2.023z" fill="#0496FF"/></g></g><g><g><path d="m18.163 337.962c-2.745 0-5.508-.63-8.085-1.908-6.217-3.085-10.078-9.313-10.078-16.252v-241.947c0-24.885 20.223-45.13 45.079-45.13h261.992c24.857 0 45.08 20.245 45.08 45.13v184.908c0 23.681-19.266 42.946-42.946 42.946h-239.934c-1.67 0-3.322.557-4.653 1.567l-35.501 26.971c-3.235 2.459-7.078 3.715-10.954 3.715zm26.916-283.236c-12.725 0-23.079 10.376-23.079 23.129v234.171l29.311-22.268c5.137-3.901 11.515-6.049 17.961-6.049h239.934c11.55 0 20.946-9.397 20.946-20.946v-184.908c0-12.754-10.353-23.13-23.08-23.13h-261.993z"/></g></g></g><g fill="#0496FF"><path d="m174.609 192.855c-6.075 0-11-4.925-11-11v-10.567c0-8.559 6.143-16.05 14.605-17.812 8.398-1.749 14.255-9.265 13.928-17.873-.346-9.115-7.76-16.513-16.878-16.84-6.932-.259-13.35 3.594-16.405 9.786-2.691 5.449-9.286 7.684-14.732 4.996-5.448-2.689-7.685-9.285-4.996-14.732 6.884-13.944 21.378-22.574 36.923-22.036 20.569.739 37.293 17.427 38.073 37.992.697 18.366-11.145 34.532-28.518 39.524v7.562c0 6.076-4.924 11-11 11z"/><path d="m174.619 240.209c-6.075 0-11-4.925-11-11v-8.456c0-6.075 4.925-11 11-11s11 4.925 11 11v8.456c0 6.075-4.925 11-11 11z"/></g></g></svg>