<svg id="Capa_1" enable-background="new 0 0 511.96 511.96" height="512" viewBox="0 0 511.96 511.96" width="512" xmlns="http://www.w3.org/2000/svg" fill="#E6ECF2"><g><path d="m443.022 88.332c-44.477-44.807-103.618-69.483-166.528-69.483-62.911 0-122.052 24.676-166.529 69.483-44.455 44.785-68.938 104.323-68.938 167.648 0 37.184 8.768 74.1 25.342 107.06-7.855 31.521-29.969 57.787-59.786 70.73-6.685 2.705-8.789 11.993-3.923 17.311 19.471 22.389 47.579 35.229 77.117 35.229 26.954 0 52.551-10.612 71.626-29.398 37.456 23.709 80.498 36.198 125.091 36.198 62.91 0 122.052-24.676 166.528-69.483 44.455-44.785 68.938-104.323 68.938-167.648s-24.483-122.862-68.938-167.647zm-166.528 382.779c-43.303 0-84.992-12.991-120.561-37.569l-.002.003c-4.62-3.199-10.999-2.412-14.68 1.979-15.338 18.294-37.745 28.787-61.475 28.787-18.349 0-35.996-6.33-50.142-17.694 30.12-17.951 51.775-47.915 59.123-82.747.579-2.749.068-5.468-1.227-7.727-16.029-30.649-24.504-65.273-24.504-100.162 0-118.624 95.761-215.131 213.467-215.131 117.705 0 213.466 96.507 213.466 215.131s-95.76 215.13-213.465 215.13z"/><path d="m319.712 283.637 46.572-27.715h.001c6.915-4.115 10.791-11.653 10.115-19.671-.676-8.019-5.759-14.802-13.266-17.703l-158.227-61.128c-7.808-3.017-16.34-1.214-22.262 4.706-5.921 5.92-7.725 14.451-4.707 22.262l61.128 158.228c2.9 7.507 9.683 12.59 17.702 13.266.603.051 1.202.076 1.798.076 7.334 0 14.068-3.796 17.874-10.191l27.715-46.572 53.248 53.247c2.148 2.148 4.963 3.222 7.778 3.222s5.63-1.074 7.778-3.222c4.296-4.296 4.296-11.261 0-15.557zm-60.973 48.854-59.347-153.616 153.617 59.346-54.555 32.465c-1.452.865-2.79 1.907-3.988 3.092-.029.028-.061.052-.09.081-.028.028-.05.058-.078.086-1.187 1.2-2.231 2.541-3.097 3.995z" fill="#0496FF"/></g></svg>