<svg id="Capa_1" enable-background="new 0 0 511.959 511.959" height="512" viewBox="0 0 511.959 511.959" width="512" xmlns="http://www.w3.org/2000/svg" fill="#052438"><g><path d="m443.021 88.332c-44.477-44.807-103.618-69.483-166.528-69.483-62.911 0-122.051 24.676-166.528 69.483-44.455 44.784-68.938 104.323-68.938 167.648 0 37.185 8.767 74.1 25.342 107.061-7.856 31.521-29.969 57.787-59.787 70.73-6.685 2.708-8.786 11.987-3.923 17.31 19.471 22.389 47.579 35.23 77.118 35.23 26.954 0 52.551-10.612 71.626-29.398 37.456 23.71 80.499 36.199 125.091 36.199 62.911 0 122.052-24.676 166.528-69.483 44.456-44.785 68.938-104.323 68.938-167.648s-24.483-122.865-68.939-167.649zm-166.528 382.779c-43.302 0-84.991-12.991-120.56-37.569l-.002.003c-4.621-3.201-10.999-2.412-14.68 1.979-15.338 18.295-37.745 28.787-61.475 28.787-18.348 0-35.996-6.33-50.142-17.694 30.119-17.951 51.775-47.915 59.122-82.747.58-2.751.067-5.472-1.229-7.732-16.026-30.648-24.5-65.269-24.5-100.157 0-118.623 95.76-215.131 213.466-215.131s213.466 96.507 213.466 215.131-95.76 215.13-213.466 215.13z"/><g fill="#0496FF"><path d="m385.819 266.98h-25.306c-6.075 0-11-4.925-11-11s4.925-11 11-11h25.306c6.075 0 11 4.925 11 11s-4.925 11-11 11z"/><path d="m289.346 266.98h-25.307c-6.075 0-11-4.925-11-11s4.925-11 11-11h25.307c6.075 0 11 4.925 11 11s-4.925 11-11 11z"/><path d="m192.473 266.98h-25.306c-6.075 0-11-4.925-11-11s4.925-11 11-11h25.306c6.075 0 11 4.925 11 11s-4.924 11-11 11z"/></g></g></svg>