<svg id="Capa_1" enable-background="new 0 0 511.959 511.959" height="512" viewBox="0 0 511.959 511.959" width="512" xmlns="http://www.w3.org/2000/svg" fill="#052438"><g><path d="m443.021 88.332c-44.477-44.807-103.618-69.483-166.528-69.483s-122.051 24.676-166.528 69.483c-44.455 44.784-68.938 104.323-68.938 167.648 0 37.185 8.767 74.1 25.342 107.061-7.856 31.521-29.969 57.787-59.786 70.73-6.686 2.708-8.787 11.987-3.923 17.311 19.471 22.389 47.579 35.229 77.118 35.229 26.954 0 52.551-10.612 71.626-29.398 37.456 23.71 80.499 36.199 125.091 36.199 62.911 0 122.052-24.676 166.528-69.483 44.456-44.785 68.938-104.323 68.938-167.648s-24.484-122.865-68.94-167.649zm-166.528 382.779c-43.302 0-84.991-12.991-120.56-37.569l-.002.003c-4.621-3.201-11-2.412-14.68 1.979-15.338 18.295-37.745 28.787-61.475 28.787-18.348 0-35.996-6.33-50.142-17.694 30.119-17.951 51.775-47.915 59.122-82.747.58-2.751.067-5.472-1.229-7.732-16.026-30.648-24.5-65.269-24.5-100.157 0-118.623 95.76-215.131 213.466-215.131s213.466 96.507 213.466 215.131-95.761 215.13-213.466 215.13z"/><path d="m276.493 390.108c-73.958 0-134.128-60.17-134.128-134.128s60.169-134.128 134.128-134.128 134.128 60.17 134.128 134.128-60.17 134.128-134.128 134.128zm0-246.257c-61.828 0-112.128 50.301-112.128 112.128s50.3 112.128 112.128 112.128 112.128-50.301 112.128-112.128-50.301-112.128-112.128-112.128z" fill="#0496FF"/><path d="m261.526 305.151c-4.506 0-8.742-1.755-11.928-4.941l-32.49-32.49c-4.295-4.296-4.295-11.261 0-15.557 4.296-4.296 11.261-4.296 15.557 0l28.861 28.861 58.795-58.795c4.296-4.295 11.26-4.296 15.557 0 4.296 4.296 4.296 11.261 0 15.557l-62.424 62.424c-3.186 3.186-7.422 4.941-11.928 4.941z"/></g></svg>