<svg id="Capa_1" enable-background="new 0 0 511.96 511.96" height="512" viewBox="0 0 511.96 511.96" width="512" xmlns="http://www.w3.org/2000/svg" fill="#E6ECF2"><g><path d="m443.022 88.332c-44.477-44.807-103.618-69.483-166.528-69.483-62.911 0-122.052 24.676-166.529 69.483-44.455 44.785-68.938 104.323-68.938 167.648 0 37.184 8.768 74.1 25.342 107.06-7.855 31.521-29.969 57.787-59.786 70.73-6.685 2.705-8.789 11.993-3.923 17.311 19.471 22.389 47.579 35.229 77.117 35.229 26.954 0 52.551-10.612 71.626-29.398 37.456 23.709 80.498 36.198 125.091 36.198 62.91 0 122.052-24.676 166.528-69.483 44.455-44.785 68.938-104.323 68.938-167.648s-24.483-122.862-68.938-167.647zm-166.528 382.779c-43.303 0-84.992-12.991-120.561-37.569l-.002.003c-4.62-3.199-10.999-2.411-14.68 1.979-15.338 18.294-37.745 28.787-61.475 28.787-18.349 0-35.996-6.33-50.142-17.694 30.12-17.951 51.775-47.915 59.123-82.747.579-2.749.068-5.468-1.227-7.727-16.029-30.649-24.504-65.273-24.504-100.162 0-118.624 95.761-215.131 213.467-215.131 117.705 0 213.466 96.507 213.466 215.131s-95.76 215.13-213.465 215.13z"/><path d="m328.407 360.24c-4.681.001-9.362-1.455-13.373-4.369l-38.101-27.681c-.264-.191-.617-.191-.881 0l-38.099 27.681c-8.095 5.881-18.928 5.819-26.954-.155-7.965-5.928-11.147-16.171-7.963-25.555l13.714-44.209c.087-.247.036-.52-.124-.718l-45.736-32.098-.301-.244c-7.298-5.93-10.181-15.554-7.344-24.52 2.837-8.965 10.73-15.179 20.111-15.831l55.841-3.882c.299-.021.557-.217.655-.501l15.172-43.281c3.242-9.248 11.669-15.224 21.469-15.224s18.227 5.976 21.469 15.224l15.172 43.282c.099.282.357.479.655.499l55.84 3.882c9.381.652 17.275 6.867 20.112 15.832 2.836 8.965-.047 18.589-7.345 24.519l-.617.466-45.42 31.875c-.16.199-.211.471-.124.718l.126.382 13.587 43.826c3.186 9.383.004 19.628-7.961 25.556-4.049 3.016-8.814 4.525-13.58 4.526zm-90.818-67.23-13.714 44.208c-.114.324-.183.52.26.849.44.328.61.208.888.005l38.1-27.681c7.999-5.811 18.746-5.81 26.743 0l38.101 27.681c.276.202.442.324.888-.005.441-.329.373-.524.259-.849l-.126-.382-13.588-43.827c-3.041-8.972-.165-18.977 7.199-24.961l.617-.467 45.478-31.917c.121-.135.183-.31.073-.656-.153-.486-.39-.503-.662-.521l-55.841-3.882c-9.074-.631-16.881-6.585-19.891-15.169l-15.172-43.283c-.102-.291-.176-.501-.707-.501s-.605.21-.707.501l-15.172 43.282c-3.01 8.584-10.817 14.538-19.891 15.169l-55.842 3.882c-.272.019-.508.035-.662.521-.109.346-.048.522.073.656l45.795 32.139.301.244c7.366 5.987 10.241 15.991 7.2 24.964zm137.872-48.655h.01z" fill="#0496FF"/></g></svg>