<svg id="Capa_1" enable-background="new 0 0 512.008 512.008" viewBox="0 0 512.008 512.008" xmlns="http://www.w3.org/2000/svg" fill="#052438"><g><g fill="#0496FF"><path d="m272.554 138.177-24.451 24.451-8.648-8.649c-4.297-4.296-11.26-4.296-15.557 0-4.296 4.296-4.296 11.261 0 15.557l16.427 16.427c2.148 2.148 4.963 3.222 7.778 3.222 2.814 0 5.631-1.074 7.778-3.222l32.229-32.229c4.296-4.296 4.296-11.261 0-15.557-4.296-4.295-11.26-4.295-15.556 0z"/><path d="m256.004 78.357c-46.159 0-83.713 37.553-83.713 83.713s37.554 83.713 83.713 83.713 83.713-37.554 83.713-83.713-37.554-83.713-83.713-83.713zm0 145.426c-34.028 0-61.713-27.685-61.713-61.713s27.685-61.713 61.713-61.713 61.713 27.684 61.713 61.713-27.685 61.713-61.713 61.713z"/></g><path d="m352.469 292.271c11.128-8.514 19.363-20.85 22.544-35.477l1.551-7.131 6.303-3.679c26.79-15.636 37.578-48.839 25.095-77.233l-2.938-6.681 2.937-6.68c12.484-28.395 1.696-61.598-25.094-77.234l-6.303-3.678-1.551-7.131c-6.592-30.311-34.85-50.831-65.699-47.733l-7.261.729-5.445-4.857c-23.146-20.646-58.059-20.647-81.209 0l-5.445 4.857-7.261-.729c-30.854-3.101-59.107 17.423-65.699 47.732l-1.551 7.131-6.303 3.678c-26.79 15.636-37.578 48.839-25.095 77.233l2.938 6.681-2.937 6.68c-12.484 28.395-1.696 61.598 25.094 77.233l6.303 3.679 1.551 7.131c3.181 14.63 11.414 26.969 22.543 35.482l-56.202 180.254c-1.123 3.602-.322 7.528 2.123 10.402 2.444 2.874 6.19 4.29 9.927 3.763l41.231-5.865 30.591 28.258c2.058 1.901 4.731 2.92 7.465 2.92.947 0 1.903-.123 2.842-.374 3.645-.975 6.535-3.75 7.658-7.352l50.832-163.028 50.832 163.028c1.123 3.602 4.014 6.377 7.658 7.352.939.251 1.895.374 2.842.374 2.733 0 5.407-1.019 7.465-2.92l30.591-28.258 41.231 5.865c3.737.53 7.482-.89 9.927-3.763 2.445-2.874 3.246-6.8 2.123-10.402zm-196.556-52.01c-.655-3.011-2.543-5.608-5.204-7.162l-10.479-6.117c-17.128-9.996-24.025-31.225-16.044-49.379l4.883-11.107c1.239-2.821 1.239-6.033 0-8.854l-4.884-11.108c-7.98-18.154-1.083-39.382 16.045-49.378l10.479-6.116c2.661-1.553 4.549-4.151 5.204-7.163l2.579-11.857c4.213-19.379 22.276-32.496 42.004-30.518l12.072 1.212c3.07.312 6.121-.685 8.421-2.736l9.055-8.077c14.799-13.2 37.121-13.2 51.92 0l9.055 8.077c2.3 2.051 5.351 3.045 8.421 2.736l12.072-1.212c19.708-1.977 37.79 11.139 42.004 30.519l2.579 11.856c.655 3.011 2.543 5.609 5.204 7.163l10.479 6.116c17.128 9.996 24.025 31.225 16.044 49.379l-4.883 11.107c-1.239 2.821-1.239 6.033 0 8.854l4.884 11.108c7.98 18.154 1.083 39.382-16.045 49.379l-10.479 6.116c-2.661 1.553-4.549 4.151-5.204 7.162l-2.579 11.857c-4.214 19.378-22.274 32.497-42.004 30.518l-12.072-1.211c-3.07-.312-6.121.685-8.421 2.736l-9.055 8.076c-14.8 13.2-37.122 13.2-51.92 0l-9.055-8.076c-2.024-1.806-4.634-2.791-7.321-2.791-.365 0-.732.018-1.1.055l-12.072 1.211c-19.714 1.978-37.791-11.14-42.004-30.519zm33.437 240.856-21.646-19.995c-2.429-2.244-5.737-3.276-9.013-2.811l-29.175 4.15 49.917-160.094c5.465 1.603 11.211 2.467 17.107 2.466 2.034 0 4.089-.102 6.152-.309l7.261-.729 5.445 4.857c7.019 6.26 15.122 10.61 23.648 13.074zm163.965-22.805c-3.275-.466-6.584.566-9.013 2.811l-21.646 19.995-49.698-159.389c8.526-2.464 16.63-6.813 23.649-13.074l5.445-4.857 7.261.729c8.044.809 15.906-.001 23.259-2.159l49.917 160.095z"/></g><g/><g/><g/><g/><g/><g/><g/><g/><g/><g/><g/><g/><g/><g/><g/></svg>