<svg id="Capa_1" enable-background="new 0 0 512 512" viewBox="0 0 512 512" xmlns="http://www.w3.org/2000/svg" fill="#E6ECF2"><g><path d="m505.211 282.384-22.817-9.455c-3.515-12.239-8.408-24.036-14.599-35.193l9.447-22.802c1.703-4.11.763-8.841-2.383-11.988l-38.392-38.402c-3.146-3.146-7.879-4.087-11.987-2.386l-22.836 9.456c-11.159-6.186-22.957-11.074-35.198-14.583l-9.437-22.79c-1.702-4.11-5.713-6.791-10.162-6.792l-43.543-.006c-.969-3.03-3.223-5.555-6.263-6.815l-16.653-6.9c-2.644-8.909-6.213-17.513-10.657-25.692l6.895-16.639c1.703-4.11.763-8.841-2.383-11.988l-29.843-29.851c-3.145-3.147-7.877-4.088-11.987-2.386l-16.667 6.901c-8.181-4.441-16.786-8.006-25.694-10.646l-6.886-16.63c-1.702-4.11-5.712-6.791-10.162-6.792l-42.212-.005h-.001c-4.449 0-8.459 2.68-10.162 6.79l-6.9 16.652c-8.907 2.644-17.512 6.213-25.692 10.658l-16.639-6.894c-4.111-1.703-8.841-.763-11.987 2.383l-29.852 29.842c-3.147 3.146-4.088 7.877-2.386 11.988l6.901 16.666c-4.44 8.18-8.006 16.787-10.646 25.695l-16.63 6.886c-4.11 1.702-6.791 5.712-6.792 10.162l-.006 42.209c0 4.449 2.679 8.46 6.789 10.164l16.652 6.9c2.644 8.908 6.213 17.512 10.658 25.692l-6.894 16.638c-1.703 4.11-.763 8.842 2.383 11.988l29.843 29.852c3.145 3.146 7.877 4.088 11.988 2.386l16.667-6.901c8.181 4.44 16.786 8.006 25.694 10.646l6.886 16.63c1.255 3.031 3.767 5.28 6.782 6.255l-.006 43.608c0 4.449 2.679 8.46 6.789 10.164l22.817 9.455c3.515 12.239 8.408 24.036 14.599 35.193l-9.448 22.801c-1.703 4.11-.763 8.842 2.383 11.988l38.392 38.402c3.146 3.146 7.876 4.088 11.988 2.386l22.836-9.456c11.16 6.186 22.958 11.075 35.198 14.584l9.437 22.79c1.702 4.11 5.713 6.791 10.162 6.792l54.3.007h.002c4.448 0 8.459-2.679 10.162-6.789l9.455-22.817c12.238-3.514 24.035-8.408 35.193-14.6l22.801 9.448c4.109 1.702 8.841.763 11.988-2.383l38.402-38.391c3.146-3.146 4.088-7.877 2.386-11.988l-9.456-22.836c6.187-11.159 11.074-22.957 14.584-35.197l22.789-9.437c4.111-1.702 6.791-5.712 6.792-10.162l.007-54.302c.001-4.449-2.679-8.46-6.789-10.163zm-410.712-34.291c-2.986-1.787-6.641-2.055-9.856-.724l-14.85 6.149-19.45-19.456 6.144-14.827c1.333-3.217 1.064-6.876-.726-9.864-5.617-9.377-9.812-19.489-12.468-30.055-.848-3.375-3.243-6.148-6.457-7.48l-14.834-6.147.004-27.51 14.816-6.135c3.217-1.332 5.613-4.108 6.46-7.485 2.653-10.569 6.843-20.683 12.455-30.061 1.787-2.986 2.056-6.642.724-9.857l-6.149-14.85 19.455-19.45 14.828 6.144c3.216 1.333 6.875 1.064 9.863-.726 9.377-5.617 19.489-9.812 30.055-12.468 3.375-.848 6.149-3.243 7.48-6.458l6.146-14.834 27.51.004 6.135 14.816c1.332 3.217 4.108 5.613 7.485 6.46 10.568 2.652 20.681 6.843 30.06 12.455 2.986 1.787 6.641 2.055 9.856.724l14.851-6.149 19.45 19.456-6.144 14.827c-1.333 3.217-1.064 6.875.726 9.863 5.616 9.375 9.811 19.487 12.468 30.056.849 3.375 3.243 6.148 6.457 7.48l13.926 5.77-7.992 19.285c-12.237 3.514-24.035 8.408-35.193 14.6l-9.192-3.809c1.079-5.213 1.632-10.537 1.632-15.924 0-43.153-35.107-78.261-78.261-78.261s-78.261 35.107-78.261 78.261 35.107 78.261 78.261 78.261c5.369 0 10.676-.55 15.871-1.622l3.828 9.244c-6.186 11.16-11.074 22.957-14.583 35.197l-19.213 7.956-5.773-13.942c-1.332-3.217-4.108-5.613-7.485-6.46-10.566-2.651-20.68-6.842-30.059-12.454zm70.045-45.119c-1.238 1.237-2.128 2.721-2.657 4.315-3.272.585-6.604.887-9.972.887-31.022 0-56.261-25.238-56.261-56.261s25.238-56.261 56.261-56.261 56.261 25.238 56.261 56.261c0 3.38-.305 6.722-.893 10.005-1.602.527-3.094 1.42-4.336 2.663zm325.449 136.522-21.005 8.698c-3.218 1.332-5.613 4.108-6.461 7.486-3.487 13.896-8.996 27.192-16.374 39.521-1.787 2.986-2.056 6.642-.725 9.857l8.716 21.049-28.006 27.998-21.019-8.709c-3.22-1.333-6.878-1.063-9.863.726-12.328 7.385-25.623 12.9-39.516 16.393-3.375.848-6.148 3.243-7.48 6.457l-8.714 21.028-39.601-.005-8.698-21.005c-1.332-3.217-4.108-5.613-7.485-6.46-13.895-3.487-27.192-8.997-39.521-16.375-2.986-1.788-6.642-2.056-9.857-.724l-21.049 8.716-27.999-28.006 8.709-21.019c1.333-3.217 1.064-6.876-.726-9.864-7.385-12.328-12.9-25.623-16.393-39.516-.848-3.374-3.243-6.148-6.457-7.48l-21.029-8.713.006-39.601 21.005-8.698c3.217-1.332 5.614-4.108 6.461-7.485 3.487-13.895 8.996-27.192 16.374-39.521 1.787-2.986 2.056-6.642.724-9.857l-8.716-21.049 28.006-27.998 21.02 8.709c3.216 1.333 6.875 1.064 9.863-.726 12.329-7.385 25.624-12.9 39.516-16.393 3.375-.848 6.148-3.243 7.48-6.457l8.714-21.028 39.601.005 8.698 21.005c1.332 3.217 4.108 5.613 7.485 6.46 13.896 3.487 27.192 8.997 39.521 16.375 2.985 1.787 6.641 2.056 9.856.724l21.049-8.716 27.999 28.006-8.709 21.019c-1.333 3.217-1.064 6.875.726 9.863 7.384 12.328 12.899 25.623 16.393 39.517.849 3.374 3.243 6.148 6.457 7.479l21.028 8.713z"/><g fill="#0496FF"><path d="m336.271 295.828-24.451 24.451-8.648-8.649c-4.297-4.296-11.26-4.296-15.557 0-4.296 4.296-4.296 11.261 0 15.557l16.427 16.427c2.148 2.148 4.963 3.222 7.778 3.222 2.814 0 5.631-1.074 7.778-3.222l32.229-32.229c4.296-4.296 4.296-11.261 0-15.557-4.296-4.295-11.261-4.295-15.556 0z"/><path d="m319.721 236.008c-46.159 0-83.713 37.553-83.713 83.713s37.554 83.713 83.713 83.713 83.713-37.554 83.713-83.713-37.554-83.713-83.713-83.713zm0 145.426c-34.028 0-61.713-27.685-61.713-61.713s27.685-61.713 61.713-61.713 61.713 27.684 61.713 61.713-27.685 61.713-61.713 61.713z"/></g></g><g/><g/><g/><g/><g/><g/><g/><g/><g/><g/><g/><g/><g/><g/><g/></svg>