<svg id="Capa_1" enable-background="new 0 0 512 512" viewBox="0 0 512 512" xmlns="http://www.w3.org/2000/svg" fill="#052438"><g><g><path d="m154.864 225.695v7.273c0 6.075 4.925 11 11 11h107.559c6.075 0 11-4.925 11-11v-7.273c0-25.141-14.406-46.967-35.388-57.699 4.438-6.039 7.067-13.486 7.067-21.538 0-20.103-16.355-36.458-36.458-36.458s-36.458 16.355-36.458 36.458c0 8.052 2.629 15.499 7.067 21.538-20.983 10.732-35.389 32.558-35.389 57.699zm50.322-79.237c0-7.972 6.486-14.458 14.458-14.458s14.458 6.486 14.458 14.458-6.486 14.458-14.458 14.458-14.458-6.486-14.458-14.458zm14.458 36.458c22.333 0 40.724 17.203 42.618 39.053h-85.236c1.894-21.851 20.285-39.053 42.618-39.053z"/><path d="m361.931 22h-111.172c-4.54-12.805-16.773-22-31.115-22s-26.575 9.195-31.115 22h-111.173c-22.607 0-41 18.393-41 41v364.772c0 22.607 18.393 41 41 41h248.09v-22h-248.09c-10.477 0-19-8.523-19-19v-364.772c0-10.477 8.523-19 19-19h77.287v22h-63.287c-6.075 0-11 4.925-11 11v336.772c0 6.075 4.925 11 11 11h228.568v-22h-217.568v-314.772h234.574v281.772h22v-292.772c0-6.075-4.925-11-11-11h-63.287v-22h77.287c10.477 0 19 8.523 19 19v292.574h22v-292.574c.001-22.607-18.392-41-40.999-41zm-185.287 44v-22h21c6.075 0 11-4.925 11-11 0-6.065 4.935-11 11-11s11 4.935 11 11c0 6.075 4.925 11 11 11h21v22z"/><path d="m165.864 287.968h107.559c6.075 0 11-4.925 11-11s-4.925-11-11-11h-107.559c-6.075 0-11 4.925-11 11s4.925 11 11 11z"/><path d="m306.999 323.371c0-6.075-4.925-11-11-11h-152.711c-6.075 0-11 4.925-11 11s4.925 11 11 11h152.711c6.075 0 11-4.925 11-11z"/><path d="m165.864 358.772c-6.075 0-11 4.925-11 11s4.925 11 11 11h107.559c6.075 0 11-4.925 11-11s-4.925-11-11-11z"/></g><g fill="#0496FF"><path d="m408.479 404.394-24.45 24.451-8.648-8.648c-4.297-4.296-11.262-4.295-15.557 0-4.296 4.295-4.296 11.26 0 15.556l16.427 16.426c2.148 2.148 4.963 3.222 7.778 3.222s5.631-1.074 7.778-3.222l32.229-32.229c4.296-4.296 4.296-11.261 0-15.557-4.297-4.295-11.26-4.294-15.557.001z"/><path d="m391.931 344.574c-46.159 0-83.713 37.554-83.713 83.713s37.553 83.713 83.713 83.713 83.713-37.553 83.713-83.713-37.554-83.713-83.713-83.713zm0 145.426c-34.028 0-61.713-27.684-61.713-61.713s27.685-61.713 61.713-61.713 61.713 27.685 61.713 61.713-27.685 61.713-61.713 61.713z"/></g></g><g/><g/><g/><g/><g/><g/><g/><g/><g/><g/><g/><g/><g/><g/><g/></svg>