<svg id="Layer_1" enable-background="new 0 0 512 512" viewBox="0 0 512 512" xmlns="http://www.w3.org/2000/svg" fill="#052438"><g><g><path d="m400.764 189.471v35.67h-289.53v-35.67h-22v46.67c0 6.075 4.925 11 11 11h144.766v24.667h-8.318c-5.136 0-9.588 3.554-10.727 8.562l-2.538 11.167c-5.27 1.71-10.397 3.836-15.341 6.361l-9.697-6.106c-4.348-2.737-10.009-2.102-13.64 1.53l-27.32 27.321c-3.632 3.632-4.267 9.293-1.53 13.639l6.105 9.698c-2.525 4.944-4.651 10.071-6.361 15.341l-11.167 2.538c-5.009 1.138-8.563 5.591-8.563 10.727v38.638c0 5.136 3.554 9.588 8.563 10.727l11.167 2.538c1.71 5.269 3.836 10.397 6.361 15.34l-6.105 9.698c-2.736 4.346-2.102 10.007 1.53 13.639l27.32 27.321c3.632 3.632 9.293 4.268 13.64 1.531l9.697-6.106c4.943 2.525 10.071 4.652 15.341 6.362l2.538 11.167c1.139 5.008 5.591 8.562 10.727 8.562h38.637c5.136 0 9.588-3.554 10.727-8.562l2.538-11.167c5.27-1.71 10.397-3.837 15.341-6.362l9.697 6.106c4.347 2.736 10.008 2.101 13.64-1.531l27.32-27.321c3.632-3.631 4.267-9.292 1.53-13.639l-6.105-9.698c2.525-4.943 4.651-10.071 6.361-15.34l11.167-2.538c5.009-1.138 8.563-5.591 8.563-10.727v-38.638c0-5.136-3.554-9.588-8.563-10.727l-11.167-2.538c-1.71-5.27-3.836-10.396-6.361-15.341l6.105-9.698c2.736-4.346 2.102-10.007-1.53-13.639l-27.32-27.321c-3.631-3.63-9.291-4.268-13.64-1.53l-9.697 6.106c-4.943-2.525-10.071-4.651-15.341-6.361l-2.538-11.167c-1.139-5.008-5.591-8.562-10.727-8.562h-8.319v-24.667h144.764c6.075 0 11-4.925 11-11v-46.67zm-124.173 121.489c7.749 1.965 15.176 5.044 22.073 9.153 3.553 2.116 7.99 2.062 11.491-.142l7.758-4.885 14.903 14.903-4.885 7.758c-2.203 3.499-2.258 7.938-.142 11.49 4.11 6.9 7.189 14.326 9.152 22.073 1.016 4.008 4.193 7.108 8.226 8.024l8.929 2.029v21.076l-8.929 2.029c-4.032.917-7.21 4.016-8.226 8.024-1.963 7.747-5.043 15.173-9.152 22.072-2.116 3.552-2.062 7.991.142 11.491l4.885 7.758-14.903 14.903-7.758-4.885c-3.5-2.203-7.939-2.257-11.491-.142-6.897 4.109-14.324 7.189-22.073 9.154-4.008 1.016-7.106 4.193-8.023 8.225l-2.03 8.932h-21.076l-2.029-8.928c-.917-4.031-4.016-7.208-8.023-8.225-7.749-1.965-15.176-5.044-22.073-9.154-3.553-2.116-7.99-2.062-11.491.142l-7.758 4.885-14.903-14.903 4.885-7.758c2.203-3.5 2.258-7.938.142-11.491-4.109-6.899-7.189-14.325-9.152-22.072-1.016-4.008-4.193-7.108-8.226-8.024l-8.929-2.029v-21.076l8.929-2.029c4.032-.917 7.21-4.016 8.226-8.024 1.963-7.747 5.042-15.173 9.152-22.073 2.116-3.552 2.062-7.991-.142-11.49l-4.885-7.758 14.903-14.903 7.758 4.885c3.5 2.203 7.938 2.257 11.491.142 6.897-4.109 14.324-7.188 22.073-9.153 4.008-1.016 7.106-4.193 8.023-8.225l2.029-8.928h21.076l2.029 8.928c.917 4.028 4.016 7.205 8.024 8.221z"/><path d="m209.509 391.904c0 25.635 20.855 46.491 46.491 46.491s46.491-20.856 46.491-46.491c0-25.636-20.855-46.492-46.491-46.492s-46.491 20.856-46.491 46.492zm70.982 0c0 13.504-10.986 24.491-24.491 24.491s-24.491-10.987-24.491-24.491c0-13.505 10.986-24.492 24.491-24.492s24.491 10.987 24.491 24.492z"/></g><g fill="#0496FF"><path d="m411.765 0c-55.27 0-100.235 44.965-100.235 100.235s44.966 100.235 100.235 100.235 100.235-44.965 100.235-100.235-44.966-100.235-100.235-100.235zm0 178.471c-43.139 0-78.235-35.096-78.235-78.235s35.096-78.236 78.235-78.236 78.235 35.096 78.235 78.235-35.097 78.236-78.235 78.236z"/><path d="m448.447 63.553c-4.296-4.295-11.261-4.296-15.557 0l-21.126 21.126-21.126-21.126c-4.297-4.296-11.26-4.296-15.557 0-4.296 4.296-4.296 11.261 0 15.557l21.126 21.126-21.126 21.126c-4.296 4.296-4.296 11.261 0 15.557 2.148 2.148 4.963 3.222 7.778 3.222 2.814 0 5.631-1.074 7.778-3.222l21.126-21.126 21.126 21.126c2.148 2.148 4.963 3.222 7.778 3.222s5.63-1.074 7.778-3.222c4.296-4.296 4.296-11.261 0-15.557l-21.126-21.126 21.126-21.126c4.298-4.296 4.298-11.261.002-15.557z"/><path d="m100.235 0c-55.269 0-100.235 44.965-100.235 100.235s44.966 100.235 100.235 100.235 100.235-44.965 100.235-100.235-44.965-100.235-100.235-100.235zm0 178.471c-43.138 0-78.235-35.096-78.235-78.236s35.097-78.235 78.235-78.235 78.235 35.096 78.235 78.235-35.096 78.236-78.235 78.236z"/><path d="m128.076 70.681-35.774 35.774-19.907-19.907c-4.297-4.296-11.26-4.296-15.557 0-4.296 4.296-4.296 11.261 0 15.557l27.686 27.686c2.148 2.148 4.963 3.222 7.778 3.222 2.814 0 5.631-1.074 7.778-3.222l43.553-43.552c4.296-4.296 4.296-11.261 0-15.557s-11.261-4.296-15.557-.001z"/></g></g><g/><g/><g/><g/><g/><g/><g/><g/><g/><g/><g/><g/><g/><g/><g/></svg>