<svg id="Capa_1" enable-background="new 0 0 512 512" viewBox="0 0 512 512" xmlns="http://www.w3.org/2000/svg" fill="#E6ECF2"><g><g fill="#0496FF"><path d="m279.99 340.127v117.127h22v-106.127h27.178v-22h-38.178c-6.075 0-11 4.925-11 11z"/><path d="m290.99 183.127h38.178v-22h-27.178v-106.127h-22v117.127c0 6.075 4.925 11 11 11z"/><path d="m223 245h166v22h-166z"/><path d="m115 153c-6.075 0-11 4.925-11 11v28h22v-28c0-6.075-4.925-11-11-11z"/><path d="m203 153c-6.075 0-11 4.925-11 11v28h22v-28c0-6.075-4.925-11-11-11z"/><path d="m159 153c-6.075 0-11 4.925-11 11v28h22v-28c0-6.075-4.925-11-11-11z"/><path d="m104 348c0 6.075 4.925 11 11 11s11-4.925 11-11v-28h-22z"/><path d="m192 348c0 6.075 4.925 11 11 11s11-4.925 11-11v-28h-22z"/><path d="m148 348c0 6.075 4.925 11 11 11s11-4.925 11-11v-28h-22z"/><path d="m262 212c0-6.075-4.925-11-11-11h-28v22h28c6.075 0 11-4.925 11-11z"/><path d="m251 289h-28v22h28c6.075 0 11-4.925 11-11s-4.925-11-11-11z"/><path d="m56 212c0 6.075 4.925 11 11 11h28v-22h-28c-6.075 0-11 4.925-11 11z"/><path d="m56 300c0 6.075 4.925 11 11 11h28v-22h-28c-6.075 0-11 4.925-11 11z"/><path d="m56 256c0 6.075 4.925 11 11 11h28v-22h-28c-6.075 0-11 4.925-11 11z"/></g><g><path d="m222.873 181h-128c-6.075 0-11 4.925-11 11v128c0 6.075 4.925 11 11 11h128c6.075 0 11-4.925 11-11v-128c0-6.075-4.925-11-11-11zm-11 128h-106v-106h106z"/><path d="m357.168 301.127c-21.505 0-39 17.495-39 39s17.495 39 39 39 39-17.495 39-39-17.495-39-39-39zm0 56c-9.374 0-17-7.626-17-17s7.626-17 17-17 17 7.626 17 17-7.626 17-17 17z"/><path d="m417 217.127c-21.505 0-39 17.495-39 39s17.495 39 39 39 39-17.495 39-39-17.495-39-39-39zm0 56c-9.374 0-17-7.626-17-17s7.626-17 17-17 17 7.626 17 17-7.626 17-17 17z"/><path d="m357.168 211.127c21.505 0 39-17.495 39-39s-17.495-39-39-39-39 17.495-39 39 17.495 39 39 39zm0-56c9.374 0 17 7.626 17 17s-7.626 17-17 17-17-7.626-17-17 7.626-17 17-17z"/><path d="m457 44h-34.232c-6.075 0-11 4.925-11 11 0 12.021-9.779 21.8-21.8 21.8s-21.8-9.779-21.8-21.8c0-6.075-4.925-11-11-11h-302.168c-30.327 0-55 24.673-55 55v314c0 30.327 24.673 55 55 55h302.17c6.075 0 11-4.925 11-11 0-.057 0-.119-.001-.182.059-11.97 9.815-21.691 21.799-21.691 11.982 0 21.738 9.716 21.799 21.685-.05 2.944 1.082 5.785 3.143 7.889 2.069 2.11 4.9 3.3 7.855 3.3h34.235c30.327 0 55-24.673 55-55v-314.001c0-30.327-24.673-55-55-55zm33 369c0 18.196-14.804 33-33 33h-24.612c-4.866-18.882-22.039-32.873-42.42-32.873s-37.554 13.991-42.42 32.873h-292.548c-18.196 0-33-14.804-33-33v-314c0-18.196 14.804-33 33-33h292.566c4.892 18.845 22.047 32.8 42.401 32.8s37.51-13.955 42.401-32.8h24.632c18.196 0 33 14.804 33 33z"/></g></g><g/><g/><g/><g/><g/><g/><g/><g/><g/><g/><g/><g/><g/><g/><g/></svg>