<svg id="Capa_1" enable-background="new 0 0 512 512" viewBox="0 0 512 512" xmlns="http://www.w3.org/2000/svg" fill="#E6ECF2"><g><g fill="#0496FF"><path d="m462 111v46h-58v22h69c6.075 0 11-4.925 11-11v-57z"/><path d="m404 245h41v22h-41z"/><path d="m473 333h-69v22h58v46h22v-57c0-6.075-4.925-11-11-11z"/><path d="m67 245h41v22h-41z"/><path d="m28 344v57h22v-46h58v-22h-69c-6.075 0-11 4.925-11 11z"/><path d="m50 111h-22v57c0 6.075 4.925 11 11 11h69v-22h-58z"/><path d="m300 143h-88c-6.075 0-11 4.925-11 11v204c0 6.075 4.925 11 11 11h88c6.075 0 11-4.925 11-11v-204c0-6.075-4.925-11-11-11zm-11 204h-66v-182h66z"/></g><g><path d="m404 135h-37.461c-3.451-27.031-26.585-48-54.539-48h-112c-27.954 0-51.088 20.969-54.539 48h-37.461c-6.075 0-11 4.925-11 11v44c0 6.075 4.925 11 11 11h37v22h-37c-6.075 0-11 4.925-11 11v44c0 6.075 4.925 11 11 11h37v22h-37c-6.075 0-11 4.925-11 11v44c0 6.075 4.925 11 11 11h37.461c3.451 27.031 26.585 48 54.539 48h112c27.954 0 51.088-20.969 54.539-48h37.461c6.075 0 11-4.925 11-11v-44c0-6.075-4.925-11-11-11h-37v-22h37c6.075 0 11-4.925 11-11v-44c0-6.075-4.925-11-11-11h-37v-22h37c6.075 0 11-4.925 11-11v-44c0-6.075-4.925-11-11-11zm-285 44v-22h26v22zm0 88v-22h26v22zm0 66h26v22h-26zm226 37c0 18.196-14.804 33-33 33h-112c-18.196 0-33-14.804-33-33v-228c0-18.196 14.804-33 33-33h112c18.196 0 33 14.804 33 33zm48-37v22h-26v-22zm0-88v22h-26v-22zm0-66h-26v-22h26z"/><path d="m473 217c-21.505 0-39 17.495-39 39s17.495 39 39 39 39-17.495 39-39-17.495-39-39-39zm0 56c-9.374 0-17-7.626-17-17s7.626-17 17-17 17 7.626 17 17-7.626 17-17 17z"/><path d="m473 122c21.505 0 39-17.495 39-39s-17.495-39-39-39-39 17.495-39 39 17.495 39 39 39zm0-56c9.374 0 17 7.626 17 17s-7.626 17-17 17-17-7.626-17-17 7.626-17 17-17z"/><path d="m473 390c-21.505 0-39 17.495-39 39s17.495 39 39 39 39-17.495 39-39-17.495-39-39-39zm0 56c-9.374 0-17-7.626-17-17s7.626-17 17-17 17 7.626 17 17-7.626 17-17 17z"/><path d="m39 217c-21.505 0-39 17.495-39 39s17.495 39 39 39 39-17.495 39-39-17.495-39-39-39zm0 56c-9.374 0-17-7.626-17-17s7.626-17 17-17 17 7.626 17 17-7.626 17-17 17z"/><path d="m39 44c-21.505 0-39 17.495-39 39s17.495 39 39 39 39-17.495 39-39-17.495-39-39-39zm0 56c-9.374 0-17-7.626-17-17s7.626-17 17-17 17 7.626 17 17-7.626 17-17 17z"/><path d="m39 390c-21.505 0-39 17.495-39 39s17.495 39 39 39 39-17.495 39-39-17.495-39-39-39zm0 56c-9.374 0-17-7.626-17-17s7.626-17 17-17 17 7.626 17 17-7.626 17-17 17z"/></g></g><g/><g/><g/><g/><g/><g/><g/><g/><g/><g/><g/><g/><g/><g/><g/></svg>