<svg id="Capa_1" enable-background="new 0 0 512 512" viewBox="0 0 512 512" xmlns="http://www.w3.org/2000/svg" fill="#E6ECF2"><g><g><path d="m479 51h-101v22h90v108.204h22v-119.204c0-6.075-4.925-11-11-11z"/><path d="m55.5 402.45h11.841c6.075 0 11-4.925 11-11s-4.925-11-11-11h-45.682c-6.075 0-11 4.925-11 11s4.925 11 11 11h11.841v61.55c0 6.075 4.925 11 11 11h115.5v-22h-104.5z"/><path d="m468 453h-116v22h127c6.075 0 11-4.925 11-11v-96.923h-22z"/><path d="m139 182.157v-25.532c0-6.075-4.925-11-11-11h-72.5v-72.625h72.5v-22h-83.5c-6.075 0-11 4.925-11 11v274.45h-22.5c-6.075 0-11 4.925-11 11s4.925 11 11 11h67c6.075 0 11-4.925 11-11s-4.925-11-11-11h-22.5v-34.625h72.5c6.075 0 11-4.925 11-11v-25.532c18.398-4.873 32-21.659 32-41.568s-13.602-36.695-32-41.568zm-22 97.668h-61.5v-112.2h61.5v14.532c-18.398 4.873-32 21.659-32 41.568s13.602 36.695 32 41.568zm11-35.1c-11.58 0-21-9.42-21-21s9.42-21 21-21 21 9.42 21 21-9.42 21-21 21z"/></g><g fill="#0496FF"><path d="m479 236.204c18.196 0 33-14.804 33-33s-14.804-33-33-33-33 14.804-33 33 14.804 33 33 33zm0-44c6.065 0 11 4.935 11 11s-4.935 11-11 11-11-4.935-11-11 4.935-11 11-11z"/><path d="m479 312.077c-2.059 0-4.071.199-6.027.561l-33.512-58.045c-3.038-5.261-9.762-7.065-15.026-4.026-5.262 3.038-7.063 9.765-4.026 15.026l33.521 58.061c-4.938 5.77-7.93 13.251-7.93 21.423 0 18.196 14.804 33 33 33s33-14.804 33-33-14.804-33-33-33zm0 44c-6.065 0-11-4.935-11-11s4.935-11 11-11 11 4.935 11 11-4.935 11-11 11z"/><path d="m378 29h-33v-5c0-6.075-4.925-11-11-11h-200c-6.075 0-11 4.925-11 11v76c0 6.075 4.925 11 11 11h200c6.075 0 11-4.925 11-11v-5h33c6.075 0 11-4.925 11-11v-44c0-6.075-4.925-11-11-11zm-55 60h-178v-54h178zm44-16h-22v-22h22z"/><path d="m328 429c-9.284 0-17.729 3.64-24 9.56-6.271-5.92-14.716-9.56-24-9.56s-17.729 3.64-24 9.56c-6.271-5.92-14.716-9.56-24-9.56s-17.729 3.64-24 9.56c-6.271-5.92-14.716-9.56-24-9.56-19.299 0-35 15.701-35 35s15.701 35 35 35c9.284 0 17.729-3.64 24-9.56 6.271 5.92 14.716 9.56 24 9.56s17.729-3.64 24-9.56c6.271 5.92 14.716 9.56 24 9.56s17.729-3.64 24-9.56c6.271 5.92 14.716 9.56 24 9.56 19.299 0 35-15.701 35-35s-15.701-35-35-35zm-144 48c-7.168 0-13-5.832-13-13s5.832-13 13-13 13 5.832 13 13-5.832 13-13 13zm48 0c-7.168 0-13-5.832-13-13s5.832-13 13-13 13 5.832 13 13-5.832 13-13 13zm48 0c-7.168 0-13-5.832-13-13s5.832-13 13-13 13 5.832 13 13-5.832 13-13 13zm48 0c-7.168 0-13-5.832-13-13s5.832-13 13-13 13 5.832 13 13-5.832 13-13 13z"/></g></g><g/><g/><g/><g/><g/><g/><g/><g/><g/><g/><g/><g/><g/><g/><g/></svg>