<svg id="Capa_1" enable-background="new 0 0 512.003 512.003" viewBox="0 0 512.003 512.003" xmlns="http://www.w3.org/2000/svg" fill="#E6ECF2"><g><g><g><path d="m376.534 215.516c-5.357 0-10.051-3.919-10.866-9.378l-3.307-22.155c-.436-2.917.319-5.888 2.095-8.244l18.766-24.899-19.381-24.422c-1.834-2.311-2.663-5.262-2.3-8.19l3.833-30.944-28.979-11.401c-2.756-1.084-4.959-3.235-6.109-5.965l-12.106-28.724-30.771 4.606c-2.927.437-5.902-.32-8.261-2.104l-24.842-18.775-24.366 19.392c-2.314 1.842-5.268 2.673-8.206 2.309l-30.876-3.835-11.384 29.018c-1.082 2.758-3.23 4.962-5.958 6.115l-28.687 12.123 4.603 30.84c.436 2.918-.319 5.889-2.095 8.245l-18.766 24.899 19.381 24.422c1.834 2.311 2.663 5.262 2.3 8.19l-2.175 17.564c-.747 6.029-6.233 10.316-12.269 9.564-6.029-.747-10.311-6.239-9.564-12.269l1.608-12.987-21.802-27.474c-3.114-3.924-3.183-9.458-.168-13.458l21.11-28.01-5.181-34.714c-.741-4.965 1.973-9.802 6.598-11.756l32.277-13.64 12.811-32.659c1.835-4.679 6.612-7.519 11.596-6.899l34.765 4.318 27.424-21.825c3.929-3.127 9.476-3.197 13.482-.168l27.96 21.132 34.646-5.186c4.972-.746 9.813 1.976 11.765 6.607l13.623 32.327 32.606 12.828c4.672 1.838 7.506 6.606 6.889 11.588l-4.314 34.832 21.802 27.474c3.114 3.924 3.183 9.458.168 13.458l-21.11 28.01 2.626 17.594c.897 6.008-3.247 11.606-9.256 12.503-.548.083-1.095.123-1.635.123z"/></g><g><path d="m257.661 304.864c-2.333 0-4.667-.74-6.632-2.225l-27.96-21.132-18.764 2.809c-6.013.897-11.608-3.243-12.507-9.25-.899-6.008 3.243-11.608 9.25-12.507l23.336-3.493c2.926-.437 5.902.321 8.261 2.104l24.842 18.775 24.366-19.391c2.313-1.841 5.266-2.673 8.206-2.309l21.1 2.621c6.029.749 10.309 6.243 9.56 12.272-.749 6.028-6.24 10.313-12.272 9.56l-16.512-2.051-27.424 21.825c-2.003 1.593-4.425 2.392-6.85 2.392z"/></g></g><g><g><path d="m318.238 399.553c-24.474 0-44.384-19.961-44.384-44.497 0-16.564 9.085-31.654 23.71-39.382 5.368-2.838 12.026-.786 14.865 4.586 2.838 5.371.785 12.026-4.586 14.865-7.395 3.908-11.988 11.545-11.988 19.931 0 12.405 10.042 22.497 22.384 22.497 11.608 0 21.411-9.095 22.315-20.706.472-6.056 5.754-10.581 11.821-10.112 6.057.472 10.584 5.764 10.112 11.821-1.792 22.989-21.228 40.997-44.249 40.997z" fill="#0496FF"/></g><g><path d="m309.803 314.951c-6.075 0-11-4.925-11-11v-18.42c0-50.738 41.156-92.016 91.744-92.016h10.302c50.587 0 91.743 41.278 91.743 92.016v11.974c0 6.075-4.925 11-11 11s-11-4.925-11-11v-11.975c0-38.607-31.287-70.016-69.743-70.016h-10.302c-38.457 0-69.744 31.409-69.744 70.016v18.42c0 6.076-4.925 11.001-11 11.001z" fill="#0496FF"/></g><path d="m511.754 498.675-11.836-54.678c-3.173-14.658-14.75-25.853-29.495-28.52l-23.638-4.276c-5.628-1.018-10.232-5.251-11.744-10.84l-3.916-14.19c11.406-6.79 20.158-16.815 25.34-28.596h12.314c19.477 0 35.322-15.882 35.322-35.404v-1.224c0-19.521-15.846-35.404-35.322-35.404h-17.87c-.091 0-.18.011-.271.014-20.532-.052-39.904-10.083-51.846-26.859l-3.51-4.93c-2.064-2.899-5.402-4.62-8.961-4.62-22.862 0-42.19 15.406-48.234 36.404l-9.57-.008c-19.477 0-35.322 15.882-35.322 35.404v1.224c0 19.522 15.846 35.404 35.322 35.404h12.934c5.328 12.113 14.436 22.365 26.317 29.157l-3.776 13.683c-1.496 5.534-6.1 9.767-11.728 10.785l-23.638 4.276c-14.744 2.667-26.322 13.862-29.495 28.52l-11.836 54.678c-.704 3.25.101 6.645 2.189 9.234 2.088 2.588 5.235 4.093 8.562 4.093h202.958c3.326 0 6.473-1.505 8.562-4.093 2.087-2.589 2.892-5.984 2.188-9.234zm-126.54-92.461 3.331-12.071c3.445.575 6.928.873 10.413.873 3.849 0 7.696-.367 11.491-1.068l3.37 12.212c1.823 6.74 5.518 12.694 10.457 17.31-7.481 5.053-16.173 7.723-25.228 7.723-8.738 0-17.369-2.59-24.672-7.35 5.137-4.659 8.975-10.738 10.838-17.629zm96.888-85.267v1.224c0 7.391-5.977 13.404-13.322 13.404h-7.085c.064-1.175.106-28.032.106-28.032h6.979c7.346.001 13.322 6.013 13.322 13.404zm-153.584 14.628c-7.346 0-13.322-6.013-13.322-13.404v-1.224c0-7.391 5.977-13.404 13.313-13.404l7.608.007s.042 26.851.106 28.025zm29.598-36.089c0-13.802 9.871-25.331 22.894-27.833 13.945 19.475 35.367 32.147 58.791 35.195v25.187c0 15.643-8.656 29.703-22.59 36.693-11.372 5.67-25.078 5.757-36.504 0-13.933-6.991-22.59-21.052-22.59-36.693v-32.549zm-46.434 190.516 8.951-41.351c1.283-5.925 5.957-10.449 11.909-11.526l18.504-3.347 6.857 5.321c11.713 9.088 26.326 14.093 41.146 14.093 14.09 0 27.597-4.336 39.06-12.539l9.665-6.917 18.733 3.389c5.952 1.077 10.626 5.601 11.909 11.526l8.951 41.351z"/></g><g><g><path d="m196.323 304.763c-2.133 0-4.289-.619-6.185-1.911-5.021-3.421-6.317-10.264-2.896-15.284 2.258-3.313 3.451-7.199 3.451-11.236 0-8.75-5.835-16.612-14.189-19.121-5.108-1.534-8.38-6.511-7.763-11.809.097-.83.144-1.599.144-2.35 0-11.007-8.935-19.961-19.917-19.961-1.248 0-2.52.123-3.78.365-4.866.933-9.762-1.504-11.947-5.955-3.382-6.889-10.235-11.169-17.883-11.169s-14.501 4.28-17.883 11.169c-2.186 4.45-7.075 6.885-11.947 5.955-1.26-.242-2.532-.365-3.78-.365-10.982 0-19.917 8.955-19.917 19.961 0 .751.047 1.521.144 2.35.618 5.298-2.654 10.275-7.763 11.809-8.354 2.509-14.189 10.371-14.189 19.121 0 4.004 1.175 7.863 3.399 11.159 3.398 5.036 2.07 11.873-2.966 15.271-5.036 3.397-11.874 2.07-15.271-2.966-4.685-6.944-7.162-15.058-7.162-23.463 0-15.483 8.71-29.649 21.962-36.888 1.835-21.454 19.865-38.353 41.764-38.353h.077c7.823-10.492 20.092-16.759 33.533-16.759s25.71 6.267 33.533 16.759h.077c21.899 0 39.929 16.899 41.764 38.353 13.251 7.239 21.962 21.405 21.962 36.888 0 8.475-2.514 16.644-7.271 23.625-2.13 3.123-5.585 4.805-9.101 4.805z" fill="#0496FF"/></g><path d="m227.93 498.675-11.836-54.678c-3.173-14.658-14.75-25.853-29.495-28.52l-23.638-4.276c-5.628-1.018-10.232-5.252-11.744-10.84l-3.965-14.367c12.131-7.144 21.67-18.229 26.861-31.49h11.136c19.425 0 35.228-15.819 35.228-35.263v-1.217c0-19.444-15.803-35.263-35.228-35.263-5.471 0-20.547 0-25.794 0-20.424 0-40.852-4.883-59.075-14.122-4.617-2.34-10.242-1.145-13.508 2.87-5.816 7.15-14.418 11.251-23.603 11.251h-17.742c-19.425 0-35.228 15.819-35.228 35.263v1.217c0 19.444 15.803 35.263 35.228 35.263h11.136c5.267 13.456 15.012 24.669 27.399 31.8l-3.894 14.112c-1.496 5.534-6.1 9.767-11.729 10.785l-23.638 4.276c-14.744 2.667-26.322 13.862-29.495 28.52l-11.836 54.679c-.704 3.25.101 6.645 2.189 9.234 2.088 2.588 5.235 4.093 8.562 4.093h202.958c3.326 0 6.473-1.505 8.562-4.093 2.088-2.589 2.892-5.984 2.189-9.234zm-29.453-180.651v1.217c0 7.313-5.934 13.263-13.228 13.263h-6.826c.005-.32.024-27.742.024-27.742h6.801c7.295-.001 13.229 5.949 13.229 13.262zm-152.95 14.48c-7.294 0-13.228-5.95-13.228-13.263v-1.217c0-7.313 5.934-13.263 13.228-13.263h6.759s.062 27.422.067 27.742h-6.826zm28.757-28.904c8.719-1.864 16.805-5.927 23.532-11.843 18.435 8.122 38.497 12.57 58.631 12.974v26.815c0 22.681-18.419 41.133-41.059 41.133s-41.06-18.452-41.06-41.151zm41.104 91.08c3.81 0 7.535-.359 11.16-1.01l3.446 12.49c1.823 6.74 5.518 12.693 10.458 17.31-7.481 5.052-16.174 7.723-25.228 7.723-8.738 0-17.369-2.59-24.672-7.35 5.136-4.659 8.974-10.737 10.838-17.628l3.432-12.437c3.438.582 6.965.902 10.566.902zm-87.531 95.322 8.951-41.351c1.283-5.925 5.957-10.449 11.909-11.526l18.503-3.347 6.858 5.321c11.713 9.088 26.326 14.093 41.146 14.093 14.09 0 27.597-4.336 39.06-12.539l9.665-6.916 18.733 3.389c5.952 1.077 10.626 5.601 11.909 11.526l8.951 41.351h-175.685z"/></g><g><g><path d="m212.72 210.447c-5.625 0-10.643-3.571-12.486-8.886l-24.946-71.893c-1.992-5.739 1.047-12.006 6.786-13.998 5.739-1.991 12.007 1.046 13.998 6.786l16.457 47.426 15.667-47.28c1.911-5.767 8.134-8.892 13.902-6.982 5.767 1.911 8.893 8.135 6.982 13.902l-23.814 71.865c-1.797 5.42-6.839 9.06-12.546 9.06z"/></g></g><g><path d="m458.29 97.311c-4.141 0-8.105-2.348-9.974-6.347-2.571-5.504-.193-12.05 5.311-14.622l32.903-15.37c5.504-2.571 12.05-.194 14.622 5.311 2.571 5.504.193 12.05-5.311 14.622l-32.903 15.37c-1.506.703-3.09 1.036-4.648 1.036z" fill="#0496FF"/></g><g><path d="m426.662 65.996c-1.247 0-2.515-.213-3.755-.664-5.71-2.075-8.657-8.385-6.583-14.095l11.686-32.163c2.075-5.709 8.386-8.658 14.095-6.583 5.71 2.075 8.657 8.385 6.583 14.095l-11.686 32.163c-1.624 4.47-5.844 7.247-10.34 7.247z" fill="#0496FF"/></g><g><g><path d="m500.915 154.016c-1.25 0-2.521-.215-3.765-.667l-31.679-11.542c-5.708-2.08-8.649-8.393-6.57-14.101 2.08-5.708 8.394-8.647 14.101-6.57l31.679 11.542c5.708 2.08 8.649 8.393 6.57 14.101-1.627 4.465-5.845 7.237-10.336 7.237z" fill="#0496FF"/></g><g><path d="m46.376 97.374c-1.559 0-3.143-.333-4.648-1.036l-33.433-15.618c-5.504-2.571-7.882-9.118-5.311-14.622 2.572-5.504 9.118-7.88 14.622-5.311l33.433 15.618c5.504 2.571 7.882 9.118 5.311 14.622-1.869 3.999-5.834 6.347-9.974 6.347z" fill="#0496FF"/></g><g><path d="m78.512 65.554c-4.496 0-8.716-2.776-10.34-7.247l-11.873-32.68c-2.074-5.71.873-12.021 6.583-14.095 5.712-2.073 12.021.873 14.095 6.583l11.873 32.68c2.074 5.71-.873 12.021-6.583 14.095-1.24.45-2.509.664-3.755.664z" fill="#0496FF"/></g><g><path d="m11.004 154.016c-4.492 0-8.709-2.772-10.336-7.237-2.08-5.708.862-12.021 6.57-14.101l31.679-11.542c5.708-2.079 12.021.862 14.101 6.57s-.862 12.021-6.57 14.101l-31.679 11.542c-1.243.452-2.515.667-3.765.667z" fill="#0496FF"/></g></g><path d="m308.669 152.922-1.092-.372c-9.81-3.345-14.287-4.872-17.872-7.153-1.398-.89-1.42-2.379-1.309-3.188.134-.973.842-3.356 4.508-4.463 9.443-2.847 18.395 4.275 18.395 4.275l.003-.004c1.914 1.613 4.382 2.588 7.081 2.588 6.075 0 11-4.925 11-11 0-3.376-1.525-6.394-3.919-8.412l.003-.004c-1.662-1.347-18.355-14.658-38.917-8.507-10.842 3.271-18.485 11.901-19.949 22.523-1.372 9.96 2.955 19.443 11.292 24.75 5.807 3.695 11.413 5.607 22.583 9.416l1.089.372c2.525.862 8.322 3.331 7.607 7.639-.568 3.425-4.413 7.064-10.419 7.064-6.77 0-13.267-2.714-17.381-7.259-4.077-4.504-11.032-4.852-15.537-.774-4.504 4.076-4.851 11.033-.774 15.537 8.338 9.213 20.618 14.497 33.692 14.497 16.166 0 29.675-10.709 32.123-25.464 2.335-14.078-6.382-26.662-22.207-32.061z"/></g><g/><g/><g/><g/><g/><g/><g/><g/><g/><g/><g/><g/><g/><g/><g/></svg>