<svg id="Capa_1" enable-background="new 0 0 512 512" viewBox="0 0 512 512" xmlns="http://www.w3.org/2000/svg" fill="#052438"><g><g fill="#0496FF"><path d="m310.681 242h-40.506v-5.625c0-12.682-10.318-23-23-23h-39.506c-12.682 0-23 10.318-23 23v26.166h-40.506c-12.682 0-23 10.318-23 23v22.055c0 6.075 4.925 11 11 11s11-4.925 11-11v-22.055c0-.523.477-1 1-1h40.506v57.312c0 6.075 4.925 11 11 11s11-4.925 11-11v-105.477c0-.523.477-1 1-1h39.506c.523 0 1 .477 1 1v104.478c0 6.075 4.925 11 11 11s11-4.925 11-11v-76.854h40.506c.523 0 1 .477 1 1v44.063c0 6.075 4.925 11 11 11s11-4.925 11-11v-44.063c0-12.682-10.318-23-23-23z"/><path d="m193.107 162.324.79 20.159c.132 3.367 1.8 6.488 4.526 8.468 1.9 1.381 4.168 2.101 6.466 2.101.999 0 2.004-.136 2.986-.413l19.417-5.479 19.417 5.479c3.242.914 6.726.293 9.453-1.688 2.726-1.981 4.394-5.102 4.526-8.469l.79-20.159 11.21-16.773c1.873-2.802 2.357-6.307 1.316-9.512s-3.494-5.755-6.655-6.921l-18.928-6.981-12.488-15.845c-2.086-2.646-5.27-4.191-8.639-4.191s-6.553 1.544-8.639 4.191l-12.488 15.845-18.929 6.981c-3.162 1.166-5.614 3.716-6.655 6.921-1.042 3.205-.557 6.71 1.316 9.512zm23.582-20.619c1.904-.702 3.577-1.917 4.833-3.511l5.771-7.321 5.77 7.321c1.256 1.594 2.929 2.809 4.833 3.511l8.746 3.226-5.18 7.75c-1.127 1.688-1.767 3.654-1.846 5.682l-.365 9.314-8.972-2.531c-1.953-.551-4.02-.551-5.974 0l-8.972 2.531-.365-9.314c-.08-2.028-.719-3.994-1.846-5.682l-5.18-7.75z"/></g><g><path d="m487.079 322.217-45.644-72.749c-3.646-5.812-5.3-12.774-4.659-19.604 1.643-17.49.579-35.062-3.162-52.226l-2.639-12.11c-9.484-46.091-34.806-88.055-71.305-118.165-37.017-30.536-83.873-47.357-131.936-47.363-.01 0-.019 0-.029 0-55.397 0-107.502 21.598-146.715 60.815-39.22 39.224-60.819 91.346-60.817 146.765.001 35.159 8.955 69.902 25.895 100.474.029.052.058.104.087.155l16.222 28.189c18.706 32.157 28.594 68.82 28.594 106.025v58.577c0 6.075 4.925 11 11 11h207.662c3.267 0 6.364-1.452 8.454-3.962s2.956-5.82 2.364-9.032c-1.386-7.516-2.333-15.146-2.832-22.81h44.452c35.529 0 64.434-28.94 64.434-64.512v-38.945c0-1.593 1.294-2.891 2.885-2.895l31.464-.073c17.08-.039 30.975-13.968 30.975-31.05-.002-5.846-1.644-11.554-4.75-16.504zm-26.277 25.554-31.465.073c-13.693.032-24.834 11.2-24.834 24.895v38.945c0 23.441-19.036 42.512-42.434 42.512h-55.86c-2.934 0-5.746 1.205-7.811 3.288s-3.213 4.938-3.188 7.872c.07 8.216.611 16.464 1.613 24.644h-183.853v-47.576c0-41.087-10.919-81.575-31.551-117.043l-16.151-28.066c-15.109-27.299-23.094-58.326-23.095-89.736-.001-49.542 19.309-96.14 54.374-131.208 35.06-35.064 81.634-54.371 131.158-54.371h.026c42.968.006 84.853 15.041 117.939 42.334 32.656 26.938 55.302 64.472 63.768 105.686.009.043.018.086.027.129l2.653 12.173c3.258 14.949 4.184 30.252 2.754 45.485-1.091 11.621 1.724 23.466 7.927 33.353l45.644 72.75c.905 1.442 1.384 3.106 1.384 4.811 0 4.979-4.049 9.039-9.025 9.05z"/><path d="m227.292 53.22c-83.95 0-152.249 68.298-152.249 152.248s68.298 152.249 152.249 152.249c83.95 0 152.248-68.298 152.248-152.249.001-83.95-68.298-152.248-152.248-152.248zm0 282.496c-71.819 0-130.249-58.429-130.249-130.249 0-71.819 58.429-130.248 130.249-130.248 71.819 0 130.248 58.429 130.248 130.248.001 71.82-58.429 130.249-130.248 130.249z"/></g></g><g/><g/><g/><g/><g/><g/><g/><g/><g/><g/><g/><g/><g/><g/><g/></svg>