<svg id="Capa_1" enable-background="new 0 0 512 512" viewBox="0 0 512 512" xmlns="http://www.w3.org/2000/svg" fill="#052438"><g><g><path d="m455.322 12.17h-398.644c-31.252 0-56.678 25.426-56.678 56.678v261.61c0 31.252 25.426 56.678 56.678 56.678h140.89l-21.182 90.694h-35.206c-6.075 0-11 4.925-11 11s4.925 11 11 11h229.64c6.075 0 11-4.925 11-11s-4.925-11-11-11h-35.205l-21.182-90.694h140.89c31.252 0 56.678-25.426 56.678-56.678v-261.61c-.001-31.252-25.427-56.678-56.679-56.678zm-256.344 465.66 21.182-90.694h71.68l21.182 90.694zm291.022-147.372c0 19.122-15.556 34.678-34.678 34.678h-398.644c-19.122 0-34.678-15.556-34.678-34.678v-26.373h468zm0-48.373h-468v-213.237c0-19.121 15.556-34.678 34.678-34.678h398.645c19.121 0 34.677 15.557 34.677 34.678z"/><path d="m266.16 192.54c-2.148-5.507-8.96-8.309-14.37-5.95-8.031 3.158-9.142 14.639-1.9 19.31 3.616 2.446 8.604 2.447 12.22 0 4.291-2.788 6.079-8.656 4.05-13.36z"/><path d="m256 108.827c-6.075 0-11 4.925-11 11v30.559c0 6.075 4.925 11 11 11s11-4.925 11-11v-30.559c0-6.076-4.925-11-11-11z"/></g><g fill="#0496FF"><path d="m256 58.127c-55.14 0-100 44.86-100 100s44.86 100 100 100 100-44.86 100-100-44.86-100-100-100zm0 178c-43.009 0-78-34.991-78-78s34.991-78 78-78 78 34.991 78 78-34.991 78-78 78z"/><path d="m392.398 140.624c1.414 0 2.851-.274 4.236-.853l31.159-13.019c5.605-2.342 8.251-8.785 5.909-14.391-2.342-5.605-8.784-8.248-14.391-5.909l-31.159 13.019c-5.605 2.342-8.251 8.785-5.909 14.391 1.764 4.22 5.851 6.762 10.155 6.762z"/><path d="m427.794 189.503-31.159-13.019c-5.603-2.34-12.048.303-14.391 5.909-2.342 5.605.304 12.048 5.909 14.391l31.159 13.019c1.386.579 2.822.853 4.236.853 4.304 0 8.391-2.542 10.154-6.762 2.343-5.606-.303-12.049-5.908-14.391z"/><path d="m123.847 119.471-31.159-13.019c-5.602-2.34-12.048.303-14.391 5.909-2.342 5.605.304 12.048 5.909 14.391l31.159 13.019c1.386.579 2.822.853 4.236.853 4.304 0 8.391-2.542 10.154-6.762 2.343-5.606-.303-12.049-5.908-14.391z"/><path d="m115.365 176.484-31.159 13.019c-5.605 2.342-8.251 8.785-5.909 14.391 1.763 4.22 5.85 6.762 10.154 6.762 1.414 0 2.851-.274 4.236-.853l31.159-13.019c5.605-2.342 8.251-8.785 5.909-14.391-2.341-5.605-8.784-8.248-14.39-5.909z"/></g></g><g/><g/><g/><g/><g/><g/><g/><g/><g/><g/><g/><g/><g/><g/><g/></svg>