<svg id="Capa_1" enable-background="new 0 0 512 512" viewBox="0 0 512 512" xmlns="http://www.w3.org/2000/svg" fill="#052438"><g><g><path d="m210.026 511.19c-1.529 0-3.058-.318-4.485-.956l-128.712-57.472c-5.547-2.477-8.036-8.981-5.559-14.529 2.477-5.547 8.979-8.035 14.529-5.56l124.203 55.459 73.863-33.333c5.538-2.501 12.053-.035 14.551 5.502 2.499 5.537.036 12.052-5.502 14.551l-78.364 35.364c-1.437.649-2.981.974-4.524.974z" fill="#0496FF"/></g><g><path d="m209.823 448.168c-1.554 0-3.107-.329-4.555-.987l-93.715-42.634c-5.53-2.516-7.974-9.038-5.458-14.568s9.039-7.972 14.567-5.458l89.135 40.55 88.102-40.53c5.52-2.539 12.052-.124 14.591 5.396 2.539 5.519.123 12.051-5.396 14.59l-92.674 42.634c-1.458.672-3.028 1.007-4.597 1.007z" fill="#0496FF"/></g><g><path d="m341.849 134.357c-6.075 0-11-4.925-11-11v-12.608c0-48.937-39.812-88.749-88.749-88.749h-66.166c-48.937 0-88.749 39.812-88.749 88.749v12.608c0 6.075-4.925 11-11 11s-11-4.925-11-11v-12.608c0-61.067 49.682-110.749 110.749-110.749h66.166c61.067 0 110.749 49.682 110.749 110.749v12.608c0 6.075-4.925 11-11 11z" fill="#0496FF"/></g><g><path d="" style="fill:none;stroke:#052438;stroke-width:22;stroke-linecap:round;stroke-linejoin:round;stroke-miterlimit:10"/></g><g><path d="m209.302 293.593c-10.96 0-21.92-3.037-31.482-9.11-5.128-3.257-6.646-10.055-3.388-15.183 3.255-5.127 10.053-6.646 15.183-3.388 11.959 7.597 27.415 7.596 39.374 0 5.128-3.258 11.927-1.74 15.183 3.387 3.258 5.128 1.74 11.926-3.388 15.183-9.562 6.075-20.522 9.111-31.482 9.111z"/></g><path d="m507.507 447.981-42.897-72.133c-3.104-5.222-9.853-6.937-15.077-3.832-5.221 3.105-6.937 9.855-3.831 15.077l40.07 67.38-28.452-6.184c-7.467-1.619-14.982 2.853-17.115 10.18l-8.151 27.953-50.504-84.923c-3.104-5.222-9.855-6.938-15.077-3.832-5.221 3.105-6.937 9.855-3.831 15.077l17.567 29.539-26.249 44.138-8.15-27.952c-2.138-7.329-9.658-11.798-17.116-10.179l-28.452 6.184 36.858-61.979c3.105-5.222 1.39-11.972-3.831-15.077-5.225-3.105-11.973-1.389-15.077 3.832l-1.315 2.21-12.612-2.275c-16.023-2.891-29.127-14.9-33.403-30.671l-4.003-14.344c14.55-9.365 26.886-22.261 35.623-37.9 2.964-5.303 1.066-12.005-4.237-14.968-5.303-2.962-12.005-1.066-14.968 4.238-15.051 26.939-43.499 43.674-74.245 43.674-46.893 0-85.043-38.273-85.043-85.316l-.001-49.469h170.087v49.469c0 5.168-.463 10.342-1.375 15.377-1.084 5.978 2.884 11.702 8.861 12.786.664.12 1.323.178 1.975.178 5.216 0 9.848-3.726 10.811-9.04 1.147-6.326 1.729-12.82 1.729-19.301v-49.469h25.968c7.505 4.643 12.661 12.166 14.214 20.843.954 5.324 5.589 9.063 10.815 9.063.644 0 1.296-.057 1.951-.174 5.98-1.071 9.96-6.787 8.89-12.767-1.891-10.556-6.887-20.107-14.212-27.601 2.255-3.544 3.568-7.743 3.568-12.246v-37.362c0-12.618-10.266-22.883-22.883-22.883h-270.735c-12.617 0-22.883 10.265-22.883 22.883v37.362c0 4.664 1.405 9.003 3.811 12.625-9.292 9.741-14.716 22.829-14.716 36.6 0 29.215 23.791 52.983 53.034 52.983h13.308c7.248 25.051 23.376 46.352 44.729 60.238l-4.039 14.599c-4.256 15.693-17.358 27.702-33.382 30.593l-37.034 6.682c-32.924 5.94-58.451 30.951-65.035 63.719l-9.492 47.248c-.649 3.232.186 6.586 2.274 9.137s5.213 4.029 8.51 4.029c5.38.001 335.348 0 340.47-.001 6.847 0 13.272-3.59 16.834-9.58l22.965-38.616 22.966 38.617c3.563 5.989 9.988 9.579 16.835 9.579.821 0 1.649-.052 2.479-.157 7.741-.984 14.156-6.461 16.341-13.953l7.767-26.635 27.11 5.893c7.634 1.66 15.504-1.363 20.064-7.697 4.561-6.335 4.93-14.762.939-21.469zm-434.738-311.798c0-.487.396-.883.883-.883h270.731c.486 0 .883.396.883.883v37.362c0 .487-.396.883-.883.883h-270.731c-.486 0-.883-.396-.883-.883zm20.129 117.571c-17.112 0-31.034-13.899-31.034-30.983 0-10.711 5.622-20.708 14.718-26.342h25.405l.001 49.469c0 2.642.1 5.261.288 7.856zm24.523 149.081c24.338-4.392 44.242-22.639 50.693-46.431l2.827-10.217c11.84 4.535 24.679 7.027 38.089 7.027 13.118 0 25.899-2.425 37.806-6.94l2.812 10.076c6.466 23.847 26.37 42.094 50.709 46.486l4.512.814-26.365 44.332c-3.989 6.708-3.62 15.135.941 21.468s12.438 9.356 20.062 7.696l27.111-5.893 5.468 18.747h-241.305v-82.359zm-84.408 53.084c3.988-19.846 17.527-35.776 35.768-43.069v77.15h-42.614z"/><path d="m388.346 203.161c-59.265 0-107.48 48.215-107.48 107.48s48.216 107.48 107.48 107.48 107.479-48.215 107.479-107.48-48.214-107.48-107.479-107.48zm84.748 96.48h-31.775c1.143-7.552 3.465-14.956 6.977-21.905l8.921-17.652c8.372 11.374 13.983 24.889 15.877 39.557zm-44.433 53.828 12.346 24.43c-11.798 9.258-26.074 15.477-41.66 17.49v-73.748h19.785c1.269 10.975 4.445 21.768 9.529 31.828zm-125.063-31.828h30.846c-1.143 7.552-3.465 14.956-6.977 21.905l-8.534 16.888c-8.069-11.215-13.483-24.449-15.335-38.793zm15.334-60.793 8.534 16.888c3.512 6.949 5.834 14.354 6.977 21.905h-30.846c1.853-14.344 7.267-27.578 15.335-38.793zm100.199 38.793h-19.785v-73.748c15.586 2.013 29.862 8.232 41.66 17.49l-12.346 24.431c-5.083 10.06-8.259 20.852-9.529 31.827zm-41.785 0h-20.715c-1.27-10.975-4.446-21.768-9.53-31.828l-12.081-23.907c11.924-9.548 26.447-15.963 42.326-18.013zm-30.245 53.828c5.084-10.06 8.26-20.852 9.53-31.828h20.715v73.748c-15.879-2.051-30.402-8.466-42.326-18.013zm110.115 7.73-8.921-17.652c-3.512-6.949-5.834-14.353-6.977-21.905h31.775c-1.893 14.667-7.504 28.182-15.877 39.557z" fill="#0496FF"/></g><g/><g/><g/><g/><g/><g/><g/><g/><g/><g/><g/><g/><g/><g/><g/></svg>