<svg id="Capa_1" enable-background="new 0 0 512 512" viewBox="0 0 512 512" xmlns="http://www.w3.org/2000/svg" fill="#052438"><g><g><path d="m129.879 106h124.641v22h-124.641z"/><path d="m297.879 106h47.432v22h-47.432z"/><path d="m420.083 106v22c14.669 0 26.603 11.934 26.603 26.602v169.398h-381.372v-169.398c0-13.115 9.768-24.429 22.721-26.316l-3.172-21.77c-23.687 3.451-41.549 24.124-41.549 48.086v212.795c0 26.799 21.803 48.603 48.603 48.603h112.252l-17.283 74h-28.698c-6.075 0-11 4.925-11 11s4.925 11 11 11h195.623c6.075 0 11-4.925 11-11s-4.925-11-11-11h-28.698l-17.283-74h112.252c26.8 0 48.603-21.803 48.603-48.603v-212.795c.001-26.799-21.802-48.602-48.602-48.602zm-117.562 384h-93.043l17.283-74h58.478zm117.562-96h-328.166c-14.669 0-26.603-11.934-26.603-26.603v-21.397h381.371v21.397c.001 14.669-11.933 26.603-26.602 26.603z"/></g><g fill="#0496FF"><path d="m436.801 91.738c0-30.327-24.673-55-55-55s-55 24.673-55 55c0 26.561 18.926 48.783 44 53.893v89.727c0 23.683-19.268 42.95-42.95 42.95h-81.701c-20.11 0-37.03-13.896-41.679-32.588 26.456-2.748 51.01-14.359 70.185-33.424 22.276-22.148 34.544-51.602 34.544-82.936v-8.637c0-14.34-9.197-26.567-22-31.108v-39.615c0-11.458-7.177-21.264-17.269-25.178-4.017-14.302-17.164-24.822-32.732-24.822h-14c-11.028 0-20 8.972-20 20v28c0 11.028 8.972 20 20 20h14c11.603 0 21.862-5.846 28-14.743v36.358c-12.803 4.541-22 16.768-22 31.108v8.637c0 13.744-5.411 26.642-15.237 36.319-9.821 9.673-22.818 14.876-36.559 14.675-27.683-.423-50.204-23.721-50.204-51.935v-7.696c0-14.34-9.197-26.567-22-31.108v-36.358c6.138 8.897 16.397 14.743 28 14.743h14c11.028 0 20-8.972 20-20v-28c0-11.028-8.972-20-20-20h-14c-15.567 0-28.715 10.52-32.731 24.822-10.092 3.914-17.269 13.72-17.269 25.178v39.615c-12.803 4.541-22 16.768-22 31.108v7.471c0 61.575 47.135 112.504 106.871 117.721 5.059 30.809 31.861 54.394 64.079 54.394h81.701c35.813 0 64.95-29.137 64.95-64.95v-89.727c25.075-5.111 44.001-27.333 44.001-53.894zm-199.602-45.738h-12v-24h12c6.617 0 12 5.383 12 12s-5.383 12-12 12zm-90-24h12v24h-12c-6.617 0-12-5.383-12-12s5.383-12 12-12zm-50 106.194v-7.471c0-6.065 4.935-11 11-11s11 4.935 11 11v7.696c0 40.161 32.24 73.327 71.868 73.932.384.006.764.009 1.146.009 19.266 0 37.405-7.435 51.186-21.006 14.059-13.845 21.801-32.311 21.801-51.994v-8.637c0-6.065 4.935-11 11-11s11 4.935 11 11v8.637c0 25.434-9.964 49.347-28.056 67.335-18.089 17.985-42.05 27.833-67.501 27.663-52.077-.299-94.444-43.438-94.444-96.164zm284.602-3.456c-18.196 0-33-14.804-33-33s14.804-33 33-33 33 14.804 33 33-14.804 33-33 33z"/><path d="m391.96 87.53c-1.096-2.675-3.275-4.855-5.95-5.95-2.672-1.119-5.747-1.119-8.42 0-8.98 3.621-8.966 16.695 0 20.32 8.922 3.777 18.152-5.457 14.37-14.37z"/></g></g><g/><g/><g/><g/><g/><g/><g/><g/><g/><g/><g/><g/><g/><g/><g/></svg>