<svg id="Capa_1" enable-background="new 0 0 512.004 512.004" viewBox="0 0 512.004 512.004" xmlns="http://www.w3.org/2000/svg" fill="#052438"><g><g><g><path d="m452.322 191.401c-5.528 0-10.29-4.156-10.918-9.779l-3.447-30.826c-.675-6.037 3.672-11.479 9.709-12.154 6.027-.685 11.479 3.671 12.154 9.709l3.447 30.826c.675 6.037-3.672 11.479-9.71 12.154-.414.048-.827.07-1.235.07z" fill="#0496FF"/></g><g><path d="m226.712 62.173c-5.528 0-10.29-4.156-10.918-9.779l-3.447-30.827c-.675-6.038 3.672-11.479 9.709-12.154 6.025-.678 11.479 3.671 12.154 9.709l3.447 30.827c.675 6.038-3.672 11.479-9.71 12.154-.414.047-.827.07-1.235.07z" fill="#0496FF"/></g></g><g><g><path d="m55.472 362.899c-1.813 0-3.651-.449-5.348-1.395-5.306-2.959-7.208-9.659-4.249-14.965l22.067-39.566c2.959-5.306 9.659-7.208 14.965-4.249s7.208 9.659 4.249 14.965l-22.067 39.566c-2.013 3.609-5.757 5.644-9.617 5.644z" fill="#0496FF"/></g><g><path d="m350.057 317.097c-5.528 0-10.29-4.156-10.918-9.779l-3.447-30.827c-.675-6.038 3.672-11.479 9.71-12.154 6.03-.679 11.479 3.672 12.154 9.709l3.447 30.827c.675 6.038-3.672 11.479-9.709 12.154-.416.047-.829.07-1.237.07z" fill="#0496FF"/></g><g><path d="m124.447 187.868c-5.528 0-10.29-4.156-10.918-9.779l-3.447-30.826c-.675-6.037 3.672-11.479 9.709-12.154 6.028-.68 11.479 3.672 12.154 9.709l3.447 30.826c.675 6.037-3.672 11.479-9.71 12.154-.414.048-.827.07-1.235.07z" fill="#0496FF"/></g><path d="m511.612 409.353.181-68.685c.009-3.53-1.677-6.851-4.533-8.927s-6.536-2.655-9.89-1.556l-215.733 70.634c-5.773 1.891-8.921 8.104-7.031 13.877.605 1.846 1.655 3.42 2.987 4.65l-39.622 18.701c-5.494 2.593-7.846 9.149-5.253 14.643 1.877 3.978 5.831 6.308 9.955 6.308 1.573 0 3.171-.339 4.688-1.055l46.751-22.065c5.494-2.593 7.846-9.149 5.253-14.643-.444-.94-1.01-1.779-1.66-2.526l192.048-62.88-.125 47.526-180.345 59.047c-5.773 1.891-8.921 8.104-7.031 13.877 1.519 4.637 5.824 7.58 10.452 7.58 1.134 0 2.288-.177 3.425-.549l173.438-56.786-.167 63.48h-409.45l153.619-50.297c5.773-1.891 8.921-8.104 7.031-13.877-1.891-5.773-8.101-8.92-13.877-7.031l-219.144 71.751c-5.138 1.682-8.292 6.849-7.44 12.187.852 5.339 5.457 9.267 10.863 9.267h489.369c6.064 0 10.984-4.907 11-10.971l.231-87.723c.243-1.282.249-2.62.01-3.957z" fill="#0496FF"/><path d="m511.837 160.036c-.866-8.519-4.991-16.19-11.617-21.602-6.632-5.417-14.977-7.922-23.488-7.053l-45.36 4.629-34.905-28.51c5.325-1.592 10.404-4.075 15.044-7.424 10.89-7.859 18.066-19.488 20.205-32.746l1.166-7.223c4.412-27.338-14.239-53.183-41.576-57.613-13.255-2.148-26.555.998-37.445 8.856-10.89 7.859-18.066 19.488-20.205 32.746-.381 2.506-1.434 8.347-1.597 10.793l-58.356-47.667c-6.632-5.417-14.974-7.922-23.489-7.054l-58.564 5.977c-17.563 1.793-30.398 17.56-28.611 35.149.91 8.943 5.355 16.866 12.516 22.309 6.47 4.917 14.646 7.156 23.026 6.3l44.924-4.585 39.807 32.516-17.366 32.006c-5.071 1.598-9.912 4.004-14.349 7.206-10.89 7.858-18.066 19.488-20.205 32.746l-1.166 7.223c-.193 1.194-.326 2.384-.432 3.57l-58.356-47.667c-6.632-5.417-14.974-7.923-23.489-7.054l-58.565 5.977c-17.562 1.793-30.397 17.56-28.611 35.15.91 8.943 5.355 16.865 12.517 22.309 6.469 4.917 14.644 7.153 23.025 6.3l44.923-4.585 39.807 32.516-27.886 51.394-.385.183c-16.558 7.887-27.265 23.528-28.643 41.84-.093 1.235-.134 2.464-.14 3.686l-1.949 1.524-69.775-38.037c-8.19-4.56-17.666-5.659-26.687-3.094-9.034 2.568-16.531 8.505-21.111 16.715-9.452 16.946-3.377 38.427 13.561 47.896l95.153 52.932c5.653 3.16 11.942 4.735 18.23 4.735 6.658 0 13.313-1.767 19.202-5.288.842-.478 22.613-16.034 23.425-16.568l33.101 22.386 46.198 88.284c6.49 12.403 19.246 19.614 32.48 19.614 4.945 0 9.958-1.007 14.736-3.127 17.721-7.864 25.915-28.772 18.266-46.607-.058-.136-.119-.271-.183-.405l-42.275-88.525c-5.029-10.533-12.463-20-21.497-27.38l-20.476-16.725 32.617-35.217 31.9 26.057c6.621 5.428 15.062 7.928 23.488 7.054l11.878-1.212 21.77 41.603c6.491 12.402 19.246 19.613 32.48 19.613 4.946 0 9.959-1.007 14.736-3.127 17.721-7.864 25.916-28.771 18.266-46.607-.058-.136-.119-.271-.183-.404l-15.498-32.454c2.98-5.479 4.404-11.876 3.727-18.538-.866-8.518-4.992-16.189-11.617-21.602-4.27-3.488-9.251-5.761-14.528-6.711l-4.797-10.045c-5.03-10.534-12.464-20.001-21.497-27.38l-20.476-16.725 32.617-35.216 31.901 26.058c5.771 4.713 12.835 7.222 20.181 7.222 1.097 0 2.201-.056 3.307-.169l58.564-5.977c17.564-1.797 30.398-17.564 28.611-35.151zm-157.628-105.212 1.166-7.223c1.203-7.454 5.237-13.992 11.36-18.41s13.6-6.187 21.054-4.979c15.369 2.49 25.854 17.021 23.374 32.391l-1.166 7.223c-1.203 7.454-5.237 13.992-11.36 18.41-6.122 4.418-13.598 6.189-21.054 4.979-5.417-.881-10.123-3.206-14.064-6.627-7.078-6.208-10.916-15.807-9.31-25.764zm-102.265 125.695 1.166-7.223c1.203-7.454 5.237-13.992 11.36-18.411 6.123-4.418 13.598-6.187 21.054-4.979 15.369 2.49 25.854 17.021 23.375 32.391l-1.166 7.223c-1.203 7.454-5.237 13.992-11.36 18.411-6.124 4.418-13.601 6.186-21.054 4.979-5.415-.881-10.122-3.205-14.062-6.625-7.08-6.207-10.92-15.808-9.313-25.766zm-112.939 198.802c-4.661 2.636-10.407 2.662-15.106.034l-95.153-52.932c-6.339-3.544-8.609-11.603-5.061-17.965 1.718-3.081 4.529-5.308 7.914-6.27 3.378-.96 6.926-.546 9.989 1.166l.102.057 76.171 41.523c3.76 2.05 8.355 1.721 11.788-.81 3.797 7.285 9.395 13.654 16.561 18.5l8.365 5.657zm117.506 3.228 42.166 88.295c2.8 6.786-.331 14.673-7.043 17.652-6.989 3.101-15.247.212-18.801-6.578l-47.484-90.741c-.844-1.613-2.076-2.992-3.583-4.012l-63.231-42.764c-8.583-5.805-13.242-15.451-12.463-25.803.705-9.369 5.729-17.498 13.61-22.254l81.268 66.383c6.539 5.341 11.92 12.196 15.561 19.822zm-39.191-67.531-42.187-34.46 29.593-54.54c2.52-4.644 1.382-10.423-2.71-13.765l-50.395-41.164c-2.263-1.849-5.172-2.722-8.075-2.424l-49.463 5.048c-2.77.282-5.496-.42-7.48-1.928-2.256-1.715-3.656-4.208-3.942-7.02-.562-5.524 3.457-10.476 8.958-11.038l58.564-5.977c2.654-.271 5.265.511 7.338 2.205l89.646 73.226c8.776 6.374 14.733 15.813 15.373 26.786.677 9.733-2.598 19.031-9.219 26.18zm177.017 48.606c-6.989 3.102-15.246.212-18.8-6.578l-17.691-33.808 23.115-2.359c2.656-.271 5.202-.867 7.608-1.735l12.812 26.829c2.799 6.786-.332 14.672-7.044 17.651zm-15.61-64.632-58.563 5.978c-2.694.272-5.234-.487-7.338-2.205l-33.198-27.117c3.066-6.866 4.779-14.314 4.967-21.894l34.129 27.878c2.263 1.849 5.173 2.716 8.075 2.424l49.9-5.093c2.697-.275 5.236.488 7.338 2.205 2.109 1.723 3.371 4.071 3.647 6.788.562 5.524-3.456 10.475-8.957 11.036zm-19.951-42.139.831 1.74-30.501 3.113-34.904-28.51c5.325-1.592 10.404-4.076 15.044-7.424 3.546-2.559 6.69-5.523 9.402-8.807l24.566 20.066c6.539 5.341 11.92 12.195 15.562 19.822zm-27.54-80.111c-.475-22.927-16.689-43.128-39.629-48.067l15.384-28.352c2.52-4.644 1.382-10.423-2.71-13.765l-50.395-41.164c-2.263-1.849-5.171-2.719-8.075-2.424l-49.464 5.048c-2.766.286-5.495-.42-7.479-1.928-2.256-1.715-3.656-4.208-3.942-7.02-.562-5.524 3.458-10.476 8.958-11.038l58.564-5.977c2.653-.272 5.265.511 7.338 2.205l89.643 73.223c8.776 6.375 14.737 15.814 15.377 26.79.676 9.733-2.598 19.03-9.219 26.179zm149.756-3.445-58.564 5.978c-2.695.274-5.234-.488-7.337-2.205l-33.198-27.117c3.066-6.866 4.779-14.314 4.967-21.894l34.13 27.878c2.263 1.849 5.173 2.719 8.075 2.424l49.901-5.093c2.693-.278 5.234.486 7.337 2.205 2.109 1.724 3.371 4.07 3.647 6.789.561 5.523-3.458 10.474-8.958 11.035z"/></g></g><g/><g/><g/><g/><g/><g/><g/><g/><g/><g/><g/><g/><g/><g/><g/></svg>