<svg id="Capa_1" enable-background="new 0 0 512 512" viewBox="0 0 512 512" xmlns="http://www.w3.org/2000/svg" fill="#052438"><g><g><path d="m255.297 270.804c-74.603 0-135.296-60.741-135.296-135.402s60.694-135.402 135.296-135.402c74.603 0 135.297 60.741 135.297 135.402s-60.694 135.402-135.297 135.402zm0-248.804c-62.472 0-113.296 50.872-113.296 113.402s50.825 113.402 113.296 113.402c62.472 0 113.296-50.872 113.296-113.402.001-62.53-50.823-113.402-113.296-113.402z"/></g><g fill="#0496FF"><path d="m183.137 282.416c-17.221-15.408-37.597-26.565-54.708-41.237-28.623-24.292-50.681-61.558-52.435-97.911 3.517-7.045 14.543-32.168 5.256-54.032-10.694-25.178-43.202-33.95-44.58-34.312-4.847-1.269-9.938.896-12.385 5.267-.696 1.244-16.937 30.752-6.244 55.924 7.448 17.535 25.466 27.106 36.19 31.427.844 10.597 3.023 21.263 6.428 31.776-2.073-.509-4.202-.894-6.395-1.095-27.226-2.501-50.348 21.992-51.319 23.036-3.407 3.664-3.913 9.167-1.229 13.39.765 1.204 19.038 29.503 46.263 32.006 15.818 1.703 32.271-7.149 41.498-14.374 5.263 6.624 11.047 12.969 17.313 18.955-26.045 5.566-41.106 39.865-41.099 40.987-1.804 4.667-.23 9.965 3.83 12.89.964.695 20.228 14.362 41.799 14.362 4.296 0 8.684-.542 13.037-1.837 15.811-4.704 26.582-17.973 32.757-28.053 3.935 2.968 7.745 6.011 11.387 9.256 9.187 8.187 16.051 16.43 20.403 24.503 1.988 3.688 5.777 5.782 9.692 5.782 1.762 0 3.55-.424 5.21-1.319 5.348-2.883 7.346-9.555 4.463-14.902-5.571-10.336-14.027-20.593-25.132-30.489zm-133.144-57.669c-9.387-.863-18.223-8.258-23.997-14.619 6.841-5.207 16.866-10.86 26.253-9.999 9.386.863 18.222 8.258 23.996 14.619-6.842 5.207-16.875 10.857-26.252 9.999zm-11.703-117.232c-3.687-8.679-1.375-19.959 1.482-28.063 7.375 3.317 17.362 9.283 21.229 18.385 3.686 8.679 1.375 19.959-1.483 28.063-7.375-3.316-17.362-9.283-21.228-18.385zm79.795 189.035c-9.033 2.685-19.977-.893-27.696-4.652 4.421-7.379 11.637-16.359 20.671-19.046 9.026-2.685 19.962.889 27.682 4.645-4.124 6.963-11.178 16.234-20.657 19.053z"/><path d="m509.055 201.258c-.971-1.044-24.065-25.543-51.318-23.036-2.194.202-4.323.586-6.396 1.095 3.405-10.513 5.584-21.178 6.428-31.776 10.725-4.321 28.743-13.892 36.191-31.427 10.688-25.172-5.548-54.681-6.244-55.924-2.447-4.371-7.54-6.535-12.385-5.267-1.379.361-33.886 9.134-44.58 34.311-9.288 21.866 1.74 46.991 5.256 54.034-1.177 21.5-9.024 43.575-22.218 63.645-8.659 12.938-18.057 23.765-30.218 34.264-17.115 14.674-37.484 25.827-54.709 41.237-11.105 9.896-19.561 20.154-25.131 30.488-2.883 5.348-.885 12.02 4.463 14.902 1.66.895 3.447 1.319 5.21 1.319 3.914 0 7.705-2.095 9.692-5.782 4.352-8.072 11.216-16.316 20.402-24.502 3.642-3.245 7.451-6.288 11.386-9.256 6.174 10.081 16.945 23.35 32.758 28.052 4.354 1.294 8.741 1.837 13.037 1.837 21.569-.002 40.834-13.667 41.799-14.362 4.06-2.925 5.634-8.222 3.83-12.89.017-1.113-15.062-35.43-41.1-40.987 6.267-5.986 12.051-12.33 17.313-18.954 8.69 6.603 22.315 14.554 37.562 14.554 1.3 0 2.615-.058 3.936-.18 27.225-2.506 45.5-30.803 46.265-32.006 2.684-4.223 2.179-9.725-1.229-13.389zm-87.45 90.625c-7.252 3.577-18.216 7.485-27.689 4.667-9.037-2.688-16.255-11.673-20.672-19.044 7.728-3.763 18.664-7.341 27.697-4.654 9.031 2.686 16.246 11.663 20.664 19.031zm29.394-194.046c3.685-8.673 13.397-14.832 21.207-18.395 2.732 7.619 5.373 18.964 1.505 28.072h-.001c-3.686 8.679-13.408 14.839-21.221 18.401-2.863-8.113-5.176-19.397-1.49-28.078zm11.008 126.91c-9.399.858-19.419-4.795-26.252-9.996 5.779-6.368 14.612-13.758 23.995-14.621 9.397-.862 19.418 4.795 26.253 9.996-5.779 6.368-14.612 13.758-23.996 14.621z"/></g><g><path d="m464.659 374.41h-115.282v-37.686c0-14.096-11.453-25.564-25.531-25.564h-135.692c-14.078 0-25.532 11.468-25.532 25.564v70.725h-115.282c-14.078 0-25.531 11.468-25.531 25.565v65.986c0 6.075 4.925 11 11 11s11-4.925 11-11v-65.985c0-1.966 1.584-3.565 3.531-3.565h115.282v69.55c0 6.075 4.925 11 11 11s11-4.925 11-11v-162.275c0-1.965 1.584-3.564 3.532-3.564h135.691c1.947 0 3.531 1.599 3.531 3.564v162.275c0 6.075 4.925 11 11 11s11-4.925 11-11v-102.59h115.282c1.947 0 3.532 1.599 3.532 3.564v99.026c0 6.075 4.925 11 11 11s11-4.925 11-11v-99.025c.001-14.096-11.453-25.565-25.531-25.565z"/><g><path d="m501 512h-490c-6.075 0-11-4.925-11-11s4.925-11 11-11h490c6.075 0 11 4.925 11 11s-4.925 11-11 11z" fill="#0496FF"/></g></g><g><path d="m255.297 225.839c-49.83 0-90.369-40.57-90.369-90.437s40.54-90.437 90.369-90.437 90.37 40.57 90.37 90.437-40.54 90.437-90.37 90.437zm0-158.874c-37.699 0-68.369 30.701-68.369 68.437s30.67 68.437 68.369 68.437 68.37-30.701 68.37-68.437-30.671-68.437-68.37-68.437z"/></g><g><path d="m259.898 178.276c-6.075 0-11-4.925-11-11v-48.744h-6.203c-6.075 0-11-4.925-11-11s4.925-11 11-11h17.203c6.075 0 11 4.925 11 11v59.744c0 6.075-4.924 11-11 11z" fill="#0496FF"/></g></g><g/><g/><g/><g/><g/><g/><g/><g/><g/><g/><g/><g/><g/><g/><g/></svg>