<svg id="Capa_1" enable-background="new 0 0 512 512" viewBox="0 0 512 512" xmlns="http://www.w3.org/2000/svg" fill="#E6ECF2"><g><g><path d="m164.354 218.427c20.67 0 37.486-16.816 37.486-37.486 0-6.075-4.925-11-11-11s-11 4.925-11 11c0 8.539-6.947 15.486-15.486 15.486s-15.486-6.947-15.486-15.486c0-6.075-4.925-11-11-11s-11 4.925-11 11c0 20.67 16.816 37.486 37.486 37.486z"/><path d="m372.526 259.073c-35.126 0-66.948 14.4-89.887 37.601-18.929-19.033-43.793-30.631-70.61-32.872v-17.396c19.385-14.068 32.352-36.467 33.582-61.898 12.855-4.513 22.096-16.772 22.096-31.149 0-14.341-9.195-26.575-22-31.115l-.001-40.892c0-44.858-36.494-81.352-81.352-81.352s-81.351 36.494-81.351 81.352l-.001 40.892c-12.805 4.54-22 16.774-22 31.115 0 10.854 5.271 20.495 13.384 26.513l-.678.678c-14.374 14.375-22.29 33.486-22.29 53.814 0 16.806 5.424 32.771 15.421 45.925-32.278 19.978-53.829 55.704-53.829 96.374v51.906c0 6.075 4.925 11 11 11h234.194c20.299 42.777 63.91 72.431 114.322 72.431 69.732 0 126.464-56.731 126.464-126.463s-56.731-126.464-126.464-126.464zm-233.846-1.365c8.077 2.694 16.704 4.174 25.674 4.174s17.598-1.48 25.674-4.174v12.661l-25.674 30.324-25.674-30.323zm25.674-235.708c28.207 0 51.864 19.785 57.865 46.202-6.706-3.801-14.445-5.982-22.689-5.982-10.317 0-20.076 3.329-28.223 9.626-19.989 15.452-42.802 24.153-66.305 25.382v-15.876c.001-32.727 26.626-59.352 59.352-59.352zm-70.352 120.358c6.075 0 11-4.925 11-11v-12.088c28.403-1.232 55.866-11.547 79.761-30.019 4.258-3.292 9.365-5.032 14.768-5.032 13.331 0 24.176 10.845 24.176 24.176v22.963c0 6.075 4.925 11 11 11 6.065 0 11 4.935 11 11s-4.935 11-11 11c-6.075 0-11 4.925-11 11v5.172c0 32.727-26.625 59.352-59.353 59.352s-59.353-26.625-59.353-59.352v-5.172c0-6.075-4.925-11-11-11-6.065 0-11-4.935-11-11s4.935-11 11.001-11zm-20.585 92.005c0-12.534 4.239-24.414 12.03-34.014 4.72 18.786 15.992 34.996 31.233 46.056v17.406c-10.294.867-20.201 3.112-29.534 6.558-8.872-9.923-13.729-22.589-13.729-36.006zm15.593 183.205v-40.906c0-6.075-4.925-11-11-11s-11 4.925-11 11v40.906h-32v-40.906c0-49.107 38.989-89.272 87.637-91.183l33.313 39.345c2.09 2.469 5.161 3.892 8.395 3.892s6.305-1.423 8.395-3.892l33.312-39.345c23.862.93 46.079 11.014 62.444 28.224-14.142 20.416-22.442 45.171-22.442 71.832 0 11.063 1.433 21.797 4.114 32.031h-161.168zm283.516 72.432c-57.601 0-104.463-46.862-104.463-104.463s46.862-104.463 104.463-104.463c57.602 0 104.464 46.862 104.464 104.463s-46.862 104.463-104.464 104.463z"/></g><path d="m372.526 310.344c-41.461 0-75.192 33.731-75.192 75.193s33.731 75.193 75.192 75.193c41.462 0 75.193-33.731 75.193-75.193s-33.731-75.193-75.193-75.193zm53.193 75.193c0 7.678-1.648 14.975-4.589 21.573l-37.604-27.194v-46.422c24.07 5.082 42.193 26.483 42.193 52.043zm-64.193 52.042c-9.377-1.98-17.853-6.432-24.705-12.648l24.705-17.865zm22-30.513 24.705 17.865c-6.852 6.216-15.328 10.668-24.705 12.648zm-22-73.572v46.422l-37.604 27.193c-2.94-6.599-4.589-13.895-4.589-21.573.001-25.559 18.124-46.96 42.193-52.042z" fill="#0496FF"/></g><g/><g/><g/><g/><g/><g/><g/><g/><g/><g/><g/><g/><g/><g/><g/></svg>