<svg id="Capa_1" enable-background="new 0 0 512 512" viewBox="0 0 512 512" xmlns="http://www.w3.org/2000/svg" fill="#052438"><g><g><path d="m397.503 446h-90.332v-44.581h118.296c6.075 0 11-4.925 11-11v-96h-22v85h-107.296v-22h74.296c6.075 0 11-4.925 11-11v-52h-22v41h-63.877c-3.706-24.56-24.677-43.668-49.914-43.996-13.764-.16-26.807 5.058-36.623 14.748-8.094 7.99-13.18 18.185-14.72 29.248h-63.801v-41h-22v52c0 6.075 4.925 11 11 11h74.296v22h-107.295v-85h-22v96c0 6.075 4.925 11 11 11h118.296v44.581h-90.332c-22.607 0-41 18.393-41 41v14c0 6.075 4.925 11 11 11h343.006c6.075 0 11-4.925 11-11v-14c0-22.607-18.393-41-41-41zm-170.674-103.409c0-7.864 3.083-15.237 8.68-20.762 5.596-5.523 12.998-8.477 20.882-8.407 15.87.206 28.781 13.56 28.781 29.768v102.81h-58.343zm189.674 147.409h-321.006v-3c0-10.477 8.523-19 19-19h283.006c10.477 0 19 8.523 19 19z"/><path d="m100.754 186.961c2.063 2.063 4.861 3.222 7.778 3.222s5.715-1.159 7.778-3.222l19.522-19.523c27.522 2.26 49.231 25.366 49.231 53.461v19.52h22v-19.52c0-37.983-28.135-69.519-64.659-74.861v-14.388c12.766-10.204 21.005-25.985 21.005-43.58v-33.192c.002-30.26-24.616-54.878-54.876-54.878-29.09 0-52.954 22.755-54.757 51.398-25.837 8.441-43.776 32.559-43.776 60.456v15.346c0 6.075 4.925 11 11 11h53.659v7.838c-36.524 5.343-64.659 36.879-64.659 74.861v19.52h22v-19.52c0-28.095 21.709-51.201 49.232-53.461zm-25.1-115.971h65.757v17.08c0 18.256-14.552 33.297-32.438 33.53-8.884.106-17.229-3.25-23.536-9.476-6.309-6.227-9.783-14.538-9.783-23.4zm44.752 80.762-11.874 11.874-11.874-11.874v-9.444c3.854.846 7.824 1.295 11.865 1.295.244 0 .489-.001.734-.005 3.821-.05 7.549-.506 11.148-1.319v9.473zm-11.873-129.752c16.12 0 29.567 11.661 32.35 26.99h-64.701c2.783-15.329 16.231-26.99 32.351-26.99zm-76.533 89.854c0-15.613 8.591-29.414 21.654-36.538v13.407c0 9.816 2.567 19.219 7.361 27.476h-29.015z"/><path d="m437.341 146.038v-14.388c12.766-10.204 21.005-25.985 21.005-43.58v-47.07c0-22.607-18.393-41-41-41h-27.757c-22.607 0-41 18.393-41 41v47.724c0 14.793 5.798 28.664 16.328 39.057 1.49 1.471 3.057 2.835 4.677 4.112v14.145c-36.524 5.343-64.659 36.878-64.659 74.861v19.52h22v-19.52c0-28.095 21.709-51.201 49.231-53.461l19.522 19.523c2.063 2.062 4.861 3.222 7.778 3.222s5.715-1.159 7.778-3.222l19.523-19.523c27.522 2.26 49.232 25.366 49.232 53.461v19.52h22v-19.52c.001-37.982-28.134-69.518-64.658-74.861zm-56.969-33.913c-6.309-6.227-9.783-14.538-9.783-23.4v-17.735h65.757v17.08c0 18.256-14.552 33.297-32.438 33.53-8.887.109-17.23-3.25-23.536-9.475zm-9.783-71.125c0-10.477 8.523-19 19-19h27.757c10.477 0 19 8.523 19 19v7.99h-65.757zm32.878 122.626-11.874-11.874v-9.444c3.854.846 7.824 1.295 11.865 1.295.244 0 .489-.001.734-.005 3.821-.05 7.549-.506 11.148-1.319v9.473z"/></g><g fill="#0496FF"><path d="m206.065 229.419h-195.065c-6.075 0-11 4.925-11 11v24c0 22.607 18.393 41 41 41h135.065c22.607 0 41-18.393 41-41v-24c0-6.075-4.925-11-11-11zm-11 35c0 10.477-8.523 19-19 19h-135.065c-10.477 0-19-8.523-19-19v-13h173.065z"/><path d="m501 229.419h-195.065c-6.075 0-11 4.925-11 11v24c0 22.607 18.393 41 41 41h135.065c22.607 0 41-18.393 41-41v-24c0-6.075-4.925-11-11-11zm-11 35c0 10.477-8.523 19-19 19h-135.065c-10.477 0-19-8.523-19-19v-13h173.065z"/></g></g><g/><g/><g/><g/><g/><g/><g/><g/><g/><g/><g/><g/><g/><g/><g/></svg>