<svg id="Capa_1" enable-background="new 0 0 512 512" viewBox="0 0 512 512" xmlns="http://www.w3.org/2000/svg" fill="#E6ECF2"><g><g><path d="m289.874 406.619v-14.388c12.767-10.204 21.005-25.985 21.005-43.58v-47.07c0-22.607-18.393-41-41-41h-27.758c-22.607 0-41 18.393-41 41v47.724c0 14.793 5.798 28.664 16.328 39.057 1.491 1.471 3.057 2.835 4.678 4.112v14.144c-36.524 5.343-64.659 36.878-64.659 74.861v19.521c0 6.075 4.925 11 11 11h175.065c6.075 0 11-4.925 11-11v-19.52c0-37.983-28.136-69.519-64.659-74.861zm-56.97-33.914c-6.309-6.227-9.783-14.538-9.783-23.4v-17.734h65.758v17.08c0 18.256-14.552 33.297-32.439 33.53-8.885.131-17.23-3.25-23.536-9.476zm-9.783-71.124c0-10.477 8.523-19 19-19h27.758c10.477 0 19 8.523 19 19v7.99h-65.758zm32.87 102.603c.244 0 .489-.001.734-.005 3.821-.05 7.549-.506 11.148-1.319v9.473l-11.873 11.874-11.874-11.874v-9.444c3.855.846 7.824 1.295 11.865 1.295zm76.542 85.816h-153.066v-8.52c0-28.095 21.709-51.201 49.232-53.461l19.522 19.523c2.063 2.062 4.861 3.222 7.778 3.222s5.715-1.159 7.778-3.222l19.522-19.523c27.523 2.26 49.232 25.366 49.232 53.461v8.52z"/><path d="m256 176c48.523 0 88-39.477 88-88s-39.477-88-88-88-88 39.477-88 88 39.477 88 88 88zm0-154c36.393 0 66 29.607 66 66s-29.607 66-66 66-66-29.607-66-66 29.607-66 66-66z"/><path d="m88 134.599c-48.523 0-88 39.477-88 88s39.477 88 88 88 88-39.477 88-88-39.477-88-88-88zm0 154c-36.393 0-66-29.607-66-66s29.607-66 66-66 66 29.607 66 66-29.607 66-66 66z"/><path d="m424 134.599c-48.523 0-88 39.477-88 88s39.477 88 88 88 88-39.477 88-88-39.477-88-88-88zm0 154c-36.393 0-66-29.607-66-66s29.607-66 66-66 66 29.607 66 66-29.607 66-66 66z"/></g><g fill="#0496FF"><path d="m278 88c-6.075 0-11 4.925-11 11 0 6.065-4.935 11-11 11s-11-4.935-11-11c0-6.075-4.925-11-11-11s-11 4.925-11 11c0 18.196 14.804 33 33 33s33-14.804 33-33c0-6.075-4.925-11-11-11z"/><path d="m223.84 59.21c2.697 7.101 12.725 9.082 17.94 3.57 6.189-6.011 2.862-17.01-5.63-18.569-8.436-1.824-15.746 7.08-12.31 14.999z"/><path d="m288.16 50.79c-2.694-7.099-12.73-9.079-17.94-3.57-6.896 6.8-1.908 18.856 7.781 18.78 7.584.224 13.27-8.284 10.159-15.21z"/><path d="m88 222.599c-18.196 0-33 14.804-33 33 0 6.075 4.925 11 11 11s11-4.925 11-11c0-6.065 4.935-11 11-11s11 4.935 11 11c0 6.075 4.925 11 11 11s11-4.925 11-11c0-18.196-14.804-33-33-33z"/><path d="m55.84 193.81c2.696 7.099 12.729 9.08 17.94 3.57 6.193-6.011 2.862-17.011-5.63-18.569-8.434-1.825-15.746 7.079-12.31 14.999z"/><path d="m120.16 185.39c-2.686-7.099-12.736-9.079-17.94-3.57-6.892 6.804-1.908 18.847 7.781 18.779 7.585.215 13.272-8.28 10.159-15.209z"/><path d="m391.84 193.81c2.696 7.1 12.731 9.079 17.94 3.57 6.193-6.004 2.862-17.016-5.63-18.569-8.431-1.826-15.755 7.083-12.31 14.999z"/><path d="m439.89 198.74c7.089 4.922 17.255-.519 17.11-9.14.138-8.631-10.006-14.05-17.11-9.149-6.425 4.019-6.444 14.277 0 18.289z"/><path d="m446 233.599h-44c-6.075 0-11 4.925-11 11s4.925 11 11 11h44c6.075 0 11-4.925 11-11s-4.925-11-11-11z"/></g></g><g/><g/><g/><g/><g/><g/><g/><g/><g/><g/><g/><g/><g/><g/><g/></svg>