<svg id="Capa_1" enable-background="new 0 0 512 512" viewBox="0 0 512 512" xmlns="http://www.w3.org/2000/svg" fill="#E6ECF2"><g><path d="m501 226.157h-78.061v-140.157c0-6.075-4.925-11-11-11h-311.878c-6.075 0-11 4.925-11 11v140.157h-78.061c-6.075 0-11 4.925-11 11v157.73c0 6.075 4.925 11 11 11h70.271l27.89 27.891c2.063 2.062 4.861 3.222 7.778 3.222s5.715-1.159 7.778-3.222l27.891-27.891h70.271c6.075 0 11-4.925 11-11v-66.608l14.342 14.342c2.148 2.148 4.963 3.222 7.778 3.222s5.63-1.074 7.778-3.222l14.342-14.342v66.608c0 6.075 4.925 11 11 11h70.271l27.891 27.891c2.063 2.063 4.861 3.222 7.778 3.222s5.715-1.159 7.778-3.222l27.89-27.891h70.273c6.075 0 11-4.925 11-11v-157.73c0-6.075-4.925-11-11-11zm-352.948 157.73c-2.917 0-5.715 1.159-7.778 3.222l-23.334 23.334-23.334-23.334c-2.063-2.062-4.861-3.222-7.778-3.222h-63.828v-135.73h67.061v55.574c0 6.075 4.925 11 11 11h111.819v69.157h-63.828zm107.948-64.6-23.334-23.335c-2.063-2.062-4.861-3.222-7.778-3.222h-113.827v-195.73h289.879v195.73h-113.827c-2.917 0-5.715 1.159-7.778 3.222zm234 64.6h-63.827c-2.917 0-5.715 1.159-7.778 3.222l-23.334 23.334-23.334-23.334c-2.063-2.063-4.861-3.222-7.778-3.222h-63.827v-69.157h111.819c6.075 0 11-4.925 11-11v-55.574h67.059z"/><path d="m256 119.672c-41.461 0-75.193 33.731-75.193 75.193s33.731 75.193 75.193 75.193 75.193-33.731 75.193-75.193-33.732-75.193-75.193-75.193zm53.193 75.193c0 7.678-1.648 14.974-4.589 21.573l-37.604-27.193v-46.422c24.069 5.082 42.193 26.483 42.193 52.042zm-64.193 52.043c-9.377-1.98-17.853-6.432-24.705-12.648l24.705-17.865zm22-30.513 24.705 17.865c-6.852 6.216-15.328 10.668-24.705 12.648zm-22-73.572v46.422l-37.604 27.193c-2.94-6.599-4.589-13.895-4.589-21.573 0-25.559 18.124-46.96 42.193-52.042z" fill="#0496FF"/></g><g/><g/><g/><g/><g/><g/><g/><g/><g/><g/><g/><g/><g/><g/><g/></svg>