<svg id="Capa_1" enable-background="new 0 0 512 512" viewBox="0 0 512 512" xmlns="http://www.w3.org/2000/svg" fill="#E6ECF2"><g><g><path d="m132.406 406.619v-14.144c1.621-1.277 3.187-2.641 4.678-4.112 10.528-10.394 16.327-24.264 16.327-39.058v-47.724c0-22.607-18.393-41-41-41h-57.757c-6.075 0-11 4.925-11 11v77.07c0 17.595 8.238 33.376 21.005 43.58v14.388c-36.524 5.342-64.659 36.878-64.659 74.861v19.52c0 6.075 4.925 11 11 11h175.065c6.075 0 11-4.925 11-11v-19.52c0-37.983-28.134-69.519-64.659-74.861zm-66.752-124.038h46.757c10.477 0 19 8.523 19 19v7.99h-65.757zm0 48.99h65.757v17.734c0 8.863-3.475 17.173-9.782 23.4-6.308 6.226-14.67 9.592-23.536 9.476-17.887-.232-32.438-15.273-32.438-33.53v-17.08zm44.752 71.318v9.444l-11.874 11.874-11.873-11.873v-9.473c3.599.812 7.327 1.269 11.148 1.319.245.003.489.005.734.005 4.042-.002 8.011-.451 11.865-1.296zm64.659 87.111h-153.065v-8.52c0-28.095 21.709-51.201 49.232-53.461l19.522 19.522c2.062 2.063 4.86 3.222 7.778 3.222 2.917 0 5.716-1.159 7.778-3.222l19.523-19.523c27.523 2.26 49.232 25.366 49.232 53.461z"/><path d="m452.019 388.362c.296-.292.574-.597.863-.895 6.917 4.153 14.853 6.37 23.129 6.37h24.989c6.075 0 11-4.925 11-11v-36.613c0-26.729-19.292-49.022-44.681-53.725-4.145-18.25-20.488-31.919-39.974-31.919h-27.757c-22.607 0-41 18.393-41 41v47.07c0 17.595 8.238 33.376 21.005 43.58v14.388c-36.524 5.343-64.659 36.878-64.659 74.861v19.521c0 6.075 4.925 11 11 11h175.066c6.075 0 11-4.925 11-11v-19.52c0-37.983-28.135-69.519-64.659-74.861v-14.144c1.62-1.277 3.187-2.641 4.678-4.113zm16.327-39.057v-33.823c12.609 4.525 21.654 16.596 21.654 30.743v25.613h-13.989c-4.011 0-7.857-1.034-11.26-2.947 2.352-6.17 3.595-12.777 3.595-19.586zm-87.757-47.724c0-10.477 8.523-19 19-19h27.757c10.477 0 19 8.523 19 19v9.99h-2.792c-4.899 0-9.806-1.158-14.188-3.35l-10.979-5.489c-1.548-.774-3.233-1.161-4.919-1.161s-3.371.387-4.919 1.161l-10.979 5.489c-4.383 2.191-9.289 3.35-14.189 3.35h-2.792zm0 31.99h2.792c8.298 0 16.606-1.961 24.027-5.672l6.06-3.03 6.06 3.03c7.421 3.71 15.729 5.672 24.026 5.672h2.792v15.734c0 8.863-3.475 17.174-9.782 23.401-6.306 6.225-14.656 9.591-23.536 9.475-17.887-.232-32.438-15.273-32.438-33.53v-15.08zm44.752 69.318v9.444l-11.873 11.873-11.874-11.874v-9.473c3.6.812 7.327 1.269 11.148 1.319.245.003.489.005.734.005 4.041 0 8.011-.449 11.865-1.294zm64.659 78.591v8.52h-153.065v-8.52c0-28.095 21.709-51.201 49.232-53.461l19.523 19.523c2.063 2.063 4.861 3.222 7.778 3.222 2.918 0 5.716-1.159 7.778-3.222l19.521-19.522c27.524 2.259 49.233 25.365 49.233 53.46z"/><path d="m387 227.386v-216.386c0-6.075-4.925-11-11-11h-240c-6.075 0-11 4.925-11 11v216.386c0 6.075 4.925 11 11 11h93.017l19.205 19.205c2.148 2.148 4.963 3.222 7.778 3.222s5.63-1.074 7.778-3.222l19.205-19.205h93.017c6.075 0 11-4.925 11-11zm-22-11h-86.573c-2.917 0-5.715 1.159-7.778 3.222l-14.649 14.648-14.648-14.648c-2.063-2.063-4.861-3.222-7.778-3.222h-86.574v-194.386h218z"/></g><path d="m256 44c-41.462 0-75.193 33.731-75.193 75.193s33.731 75.193 75.193 75.193 75.193-33.731 75.193-75.193-33.731-75.193-75.193-75.193zm53.193 75.193c0 7.678-1.648 14.975-4.589 21.573l-37.604-27.194v-46.422c24.07 5.082 42.193 26.483 42.193 52.043zm-64.193 52.042c-9.377-1.98-17.853-6.432-24.705-12.648l24.705-17.865zm22-30.513 24.705 17.865c-6.852 6.216-15.328 10.668-24.705 12.648zm-22-73.572v46.422l-37.604 27.194c-2.941-6.599-4.589-13.895-4.589-21.573 0-25.56 18.123-46.961 42.193-52.043z" fill="#0496FF"/></g><g/><g/><g/><g/><g/><g/><g/><g/><g/><g/><g/><g/><g/><g/><g/></svg>