<svg id="Capa_1" enable-background="new 0 0 512 512" viewBox="0 0 512 512" xmlns="http://www.w3.org/2000/svg" fill="#052438"><g><g fill="#0496FF"><path d="m372.015 0h-232.03c-23.895 0-43.336 19.44-43.336 43.335v143.125c0 23.895 19.44 43.335 43.336 43.335h232.029c23.896 0 43.336-19.44 43.336-43.335v-143.125c.001-23.895-19.44-43.335-43.335-43.335zm21.336 186.46c0 11.765-9.571 21.335-21.336 21.335h-232.03c-11.765 0-21.336-9.571-21.336-21.335v-143.125c0-11.765 9.571-21.335 21.336-21.335h232.029c11.765 0 21.336 9.571 21.336 21.335v143.125z"/><path d="m315.829 105.235c-10.244-3.77-19.787-7.873-22.804-9.189-2.03-1.669-1.962-3.966-1.823-4.928.197-1.383 1.212-4.765 6.337-6.305 11.587-3.482 22.375 4.987 22.702 5.249 4.656 3.849 11.551 3.224 15.438-1.411 3.903-4.655 3.294-11.593-1.36-15.497-.803-.673-19.906-16.386-43.111-9.411-11.801 3.546-20.147 12.839-21.783 24.252-1.535 10.713 3.12 21.017 12.15 26.89.485.316.995.593 1.524.829.487.217 12.079 5.364 25.133 10.167 2.781 1.023 11.772 4.829 10.703 10.832-.799 4.483-6.33 9.121-14.205 9.121-8.225 0-16.134-3.301-21.156-8.829-4.085-4.497-11.041-4.83-15.538-.746-4.497 4.085-4.83 11.042-.745 15.539 9.258 10.191 22.904 16.036 37.439 16.036 17.967 0 33.05-11.465 35.864-27.262 2.12-11.897-3.274-27.428-24.765-35.337z"/><path d="m245.229 62.678c-5.764-1.921-11.993 1.197-13.912 6.961l-19 57.059-19.957-57.352c-1.996-5.737-8.263-8.771-14.004-6.774-5.737 1.997-8.771 8.266-6.773 14.004l28.771 82.691c1.829 5.135 6.704 8.568 12.15 8.568h.09c5.481-.038 10.352-3.549 12.144-8.808l27.451-82.436c1.919-5.765-1.197-11.993-6.96-13.913z"/></g><g><path d="m486.325 103.898h-23.118c-6.075 0-11 4.925-11 11s4.925 11 11 11h23.118c6.075 0 11-4.925 11-11s-4.925-11-11-11z"/><path d="m445.246 59.106c.312 0 .624-.014.934-.04.311.026.623.04.935.04 2.809 0 5.617-1.069 7.764-3.208l8.088-8.058c4.304-4.288 4.316-11.252.029-15.556-2.388-2.396-5.604-3.462-8.73-3.196-3.11-.263-6.311.792-8.695 3.167l-8.089 8.058c-4.304 4.288-4.316 11.252-.029 15.556 2.15 2.158 4.971 3.237 7.793 3.237z"/><path d="m445.571 197.541c2.147 2.139 4.955 3.207 7.764 3.207.312 0 .623-.014.934-.04.311.026.622.04.934.04 2.821 0 5.644-1.08 7.793-3.236 4.287-4.304 4.274-11.269-.029-15.556l-8.088-8.058c-2.385-2.376-5.587-3.431-8.698-3.167-3.125-.265-6.341.801-8.728 3.197-4.287 4.304-4.274 11.269.029 15.556z"/><path d="m57.121 55.898c2.146 2.139 4.955 3.208 7.764 3.208.312 0 .624-.014.934-.04.311.026.623.04.935.04 2.822 0 5.644-1.08 7.793-3.237 4.287-4.304 4.274-11.269-.029-15.556l-8.089-8.058c-2.386-2.376-5.587-3.43-8.697-3.167-3.125-.265-6.34.801-8.728 3.196-4.287 4.304-4.274 11.269.029 15.556z"/><path d="m59.793 114.898c0-6.075-4.925-11-11-11h-23.118c-6.075 0-11 4.925-11 11s4.925 11 11 11h23.118c6.075 0 11-4.925 11-11z"/><path d="m74.547 173.926c-2.386-2.396-5.603-3.462-8.728-3.197-3.111-.264-6.313.791-8.698 3.167l-8.088 8.058c-4.304 4.288-4.316 11.252-.029 15.556 2.149 2.157 4.971 3.236 7.793 3.236.312 0 .623-.014.934-.04.311.026.622.04.934.04 2.808 0 5.617-1.069 7.764-3.207l8.089-8.058c4.303-4.286 4.316-11.251.029-15.555z"/><path d="m200.264 410.779c-3.892-3.214-9.473-3.367-13.534-.37-14.417 10.636-31.517 16.258-49.451 16.258s-35.033-5.622-49.45-16.258c-4.062-2.997-9.643-2.844-13.534.37-22.826 18.85-35.918 46.61-35.918 76.163v14.058c0 6.075 4.925 11 11 11h175.805c6.075 0 11-4.925 11-11v-14.058c-.001-29.553-13.092-57.314-35.918-76.163zm13.917 79.221h-153.805v-3.058c0-20.254 7.918-39.429 21.96-53.728 16.52 10.136 35.337 15.453 54.942 15.453s38.424-5.316 54.943-15.453c14.042 14.298 21.959 33.473 21.959 53.728v3.058z"/><path d="m437.706 410.779c-3.892-3.214-9.473-3.367-13.534-.37-14.417 10.636-31.517 16.258-49.45 16.258-17.935 0-35.034-5.622-49.451-16.258-4.062-2.997-9.644-2.844-13.534.37-22.826 18.849-35.917 46.61-35.917 76.163v14.058c0 6.075 4.925 11 11 11h175.805c6.075 0 11-4.925 11-11 0-2.673-.953-5.123-2.538-7.029 1.585-1.906 2.538-4.356 2.538-7.029-.001-29.552-13.093-57.313-35.919-76.163zm-139.887 79.221v-3.058c0-20.254 7.917-39.429 21.959-53.728 16.52 10.136 35.338 15.453 54.943 15.453s38.423-5.316 54.942-15.453c14.042 14.299 21.96 33.474 21.96 53.728 0 1.061.15 2.087.431 3.058z"/><path d="m70.432 335.842c0 36.86 29.987 66.847 66.848 66.847 36.859 0 66.847-29.987 66.847-66.847v-23.428c0-36.86-29.987-66.847-66.848-66.847-36.859 0-66.847 29.987-66.847 66.847zm22-23.428c0-24.729 20.118-44.847 44.848-44.847 24.729 0 44.847 20.118 44.847 44.847v23.428c0 24.729-20.118 44.847-44.847 44.847h-.001c-24.729 0-44.847-20.118-44.847-44.847z"/><path d="m374.722 402.689c36.859 0 66.847-29.987 66.847-66.847v-23.428c0-36.86-29.987-66.847-66.847-66.847s-66.848 29.987-66.848 66.847v23.428c0 36.86 29.987 66.847 66.848 66.847zm-44.848-90.275c0-24.729 20.118-44.847 44.848-44.847 24.729 0 44.847 20.118 44.847 44.847v23.428c0 24.729-20.118 44.847-44.847 44.847s-44.848-20.118-44.848-44.847z"/></g></g><g/><g/><g/><g/><g/><g/><g/><g/><g/><g/><g/><g/><g/><g/><g/></svg>