<svg id="Capa_1" enable-background="new 0 0 512 512" viewBox="0 0 512 512" xmlns="http://www.w3.org/2000/svg" fill="#E6ECF2"><g><g><path d="m309.853 306.499c-4.145-18.25-20.488-31.919-39.974-31.919h-27.758c-22.607 0-41 18.393-41 41v47.07c0 17.595 8.239 33.376 21.005 43.58v14.388c-36.524 5.343-64.659 36.878-64.659 74.861v5.521c0 6.075 4.925 11 11 11h175.065c6.075 0 11-4.925 11-11v-5.52c0-37.983-28.135-69.519-64.659-74.861v-14.145c1.621-1.277 3.187-2.641 4.678-4.112.296-.292.574-.597.863-.894 6.917 4.153 14.853 6.37 23.13 6.37h24.989c6.075 0 11-4.925 11-11v-36.613c0-26.729-19.293-49.023-44.68-53.726zm-54.293 89.682c-17.887-.232-32.439-15.273-32.439-33.53v-15.08h2.792c8.297 0 16.606-1.961 24.027-5.672l6.059-3.03 6.059 3.03c7.421 3.71 15.73 5.672 24.027 5.672h2.792v15.734c0 8.863-3.474 17.173-9.783 23.4-6.304 6.226-14.633 9.596-23.534 9.476zm-32.439-80.6c0-10.477 8.523-19 19-19h27.758c10.477 0 19 8.523 19 19v9.99h-2.792c-4.9 0-9.806-1.158-14.188-3.35l-10.979-5.489c-1.548-.774-3.234-1.161-4.919-1.161s-3.371.387-4.919 1.161l-10.979 5.489c-4.382 2.191-9.289 3.35-14.188 3.35h-2.792v-9.99zm109.134 174.419h-152.51c2.605-25.569 23.24-45.872 48.95-47.985l19.526 19.527c2.063 2.062 4.861 3.222 7.778 3.222s5.715-1.159 7.778-3.222l19.526-19.527c25.712 2.113 46.347 22.416 48.952 47.985zm-64.381-63.667-11.874 11.874-11.874-11.874v-9.473c3.599.812 7.327 1.269 11.148 1.319.246.003.489.005.734.005 4.041 0 8.01-.449 11.864-1.295v9.444zm64.659-40.496h-13.989c-4.011 0-7.857-1.034-11.261-2.947 2.353-6.169 3.596-12.777 3.596-19.586v-33.822c12.609 4.525 21.654 16.596 21.654 30.742z"/><path d="m78.349 52.927c3.918-5.484 6.232-12.187 6.232-19.425 0-18.473-15.029-33.502-33.502-33.502s-33.502 15.029-33.502 33.502c0 7.238 2.315 13.942 6.232 19.425-14.294 9.064-23.809 25.016-23.809 43.158v11.257c0 6.075 4.925 11 11 11h80.158c6.075 0 11-4.925 11-11v-11.257c0-18.142-9.515-34.094-23.809-43.158zm-27.27-30.927c6.342 0 11.502 5.16 11.502 11.502s-5.16 11.502-11.502 11.502-11.502-5.16-11.502-11.502 5.16-11.502 11.502-11.502zm29.079 74.343h-58.158v-.257c0-16.034 13.045-29.079 29.079-29.079s29.079 13.045 29.079 29.079z"/><path d="m488.19 52.927c3.918-5.484 6.232-12.187 6.232-19.425.001-18.473-15.028-33.502-33.501-33.502s-33.502 15.029-33.502 33.502c0 7.238 2.315 13.942 6.232 19.425-14.294 9.064-23.81 25.016-23.81 43.158v11.257c0 6.075 4.925 11 11 11h80.159c6.075 0 11-4.925 11-11v-11.257c0-18.142-9.515-34.094-23.81-43.158zm-27.269-30.927c6.342 0 11.502 5.16 11.502 11.502s-5.16 11.502-11.502 11.502-11.502-5.16-11.502-11.502 5.16-11.502 11.502-11.502zm29.079 74.343h-58.158v-.257c0-16.034 13.045-29.079 29.079-29.079s29.079 13.044 29.079 29.078z"/><path d="m78.348 446.584c3.918-5.484 6.233-12.187 6.233-19.426 0-18.473-15.029-33.501-33.502-33.501s-33.502 15.029-33.502 33.501c0 7.238 2.315 13.942 6.233 19.426-14.294 9.064-23.81 25.016-23.81 43.159v11.257c0 6.075 4.925 11 11 11h80.158c6.075 0 11-4.925 11-11v-11.257c0-18.143-9.515-34.095-23.81-43.159zm-27.269-30.927c6.342 0 11.502 5.16 11.502 11.501 0 6.342-5.16 11.502-11.502 11.502s-11.502-5.16-11.502-11.502c0-6.341 5.16-11.501 11.502-11.501zm29.079 74.343h-58.158v-.257c0-16.034 13.045-29.079 29.079-29.079s29.079 13.045 29.079 29.079z"/><path d="m488.19 446.584c3.918-5.484 6.233-12.187 6.233-19.426 0-18.473-15.029-33.501-33.502-33.501s-33.502 15.029-33.502 33.501c0 7.238 2.315 13.942 6.233 19.426-14.294 9.064-23.81 25.016-23.81 43.158v11.258c0 6.075 4.925 11 11 11h80.158c6.075 0 11-4.925 11-11v-11.257c0-18.143-9.516-34.095-23.81-43.159zm-27.269-30.927c6.342 0 11.502 5.16 11.502 11.501 0 6.342-5.16 11.502-11.502 11.502s-11.502-5.16-11.502-11.502c0-6.341 5.16-11.501 11.502-11.501zm29.079 74.343h-58.158v-.257c0-16.034 13.045-29.079 29.079-29.079s29.079 13.044 29.079 29.079z"/><path d="m350.995 75.624h-189.991c-6.075 0-11 4.925-11 11v121.992c0 6.075 4.925 11 11 11h57.475l29.743 29.743c2.148 2.148 4.963 3.222 7.778 3.222s5.63-1.074 7.778-3.222l29.742-29.743h57.475c6.075 0 11-4.925 11-11v-121.992c0-6.075-4.925-11-11-11zm-11 121.992h-51.031c-2.917 0-5.715 1.159-7.778 3.222l-25.186 25.186-25.187-25.187c-2.063-2.063-4.861-3.222-7.778-3.222h-51.031v-99.991h167.991z"/></g><g fill="#0496FF"><path d="m215.16 143.42c-2.673-7.096-12.741-9.095-17.93-3.57-6.907 6.8-1.911 18.833 7.77 18.78 7.578.21 13.291-8.285 10.16-15.21z"/><path d="m266.16 143.42c-2.698-7.096-12.729-9.091-17.94-3.57-6.9 6.805-1.9 18.841 7.781 18.78 7.574.21 13.274-8.286 10.159-15.21z"/><path d="m317.15 143.42c-2.671-7.095-12.741-9.09-17.93-3.57-6.91 6.805-1.906 18.838 7.781 18.78 7.574.203 13.276-8.289 10.149-15.21z"/><path d="m148.126 416.159h-30.545c-6.075 0-11 4.925-11 11s4.925 11 11 11h30.545c6.075 0 11-4.925 11-11s-4.924-11-11-11z"/><path d="m394.419 416.159h-30.545c-6.075 0-11 4.925-11 11s4.925 11 11 11h30.545c6.075 0 11-4.925 11-11s-4.925-11-11-11z"/><path d="m51.079 140.343c-6.075 0-11 4.925-11 11v209.314c0 6.075 4.925 11 11 11s11-4.925 11-11v-209.314c0-6.075-4.925-11-11-11z"/><path d="m460.921 140.343c-6.075 0-11 4.925-11 11v209.314c0 6.075 4.925 11 11 11s11-4.925 11-11v-209.314c0-6.075-4.925-11-11-11z"/><path d="m394.419 22.502h-276.838c-6.075 0-11 4.925-11 11s4.925 11 11 11h276.838c6.075 0 11-4.925 11-11s-4.925-11-11-11z"/></g></g><g/><g/><g/><g/><g/><g/><g/><g/><g/><g/><g/><g/><g/><g/><g/></svg>