<svg id="Capa_1" enable-background="new 0 0 512 512" viewBox="0 0 512 512" xmlns="http://www.w3.org/2000/svg" fill="#E6ECF2"><g><g><path d="m501 0h-214.502c-6.075 0-11 4.925-11 11v45.421h-38.996v-45.421c0-6.075-4.925-11-11-11h-214.502c-6.075 0-11 4.925-11 11v117.417c0 6.075 4.925 11 11 11h25.941l29.743 29.743c2.063 2.062 4.861 3.222 7.778 3.222s5.715-1.159 7.778-3.222l29.743-29.743h31.025v49.996c0 6.075 4.925 11 11 11h64.47l29.743 29.743c2.148 2.148 4.963 3.222 7.778 3.222s5.63-1.074 7.778-3.222l29.742-29.743h64.471c6.075 0 11-4.925 11-11v-49.996h31.025l29.743 29.743c2.063 2.063 4.861 3.222 7.778 3.222s5.715-1.159 7.778-3.222l29.743-29.743h25.943c6.075 0 11-4.925 11-11v-117.417c0-6.075-4.925-11-11-11zm-357.991 67.421v49.996h-35.582c-2.917 0-5.715 1.159-7.778 3.222l-25.187 25.187-25.186-25.187c-2.063-2.063-4.861-3.222-7.778-3.222h-19.498v-95.417h192.502v34.421h-60.493c-6.075 0-11 4.925-11 11zm203.982 110.992h-58.027c-2.917 0-5.715 1.159-7.778 3.222l-25.186 25.186-25.187-25.187c-2.063-2.063-4.861-3.222-7.778-3.222h-58.026v-99.991h181.982zm143.009-60.996h-19.498c-2.917 0-5.715 1.159-7.778 3.222l-25.186 25.187-25.187-25.187c-2.063-2.063-4.861-3.222-7.778-3.222h-35.582v-49.996c0-6.075-4.925-11-11-11h-60.493v-34.421h192.502z"/><path d="m436.692 396.589c10.339-9.495 16.854-23.091 16.922-38.186 0-.036 0-.073 0-.109v-.127c0-.036 0-.073 0-.109-.128-28.662-23.485-51.94-52.176-51.94s-52.048 23.278-52.176 51.94v.109.127.109c.067 15.083 6.573 28.67 16.899 38.164-10.325 4.976-19.524 12.104-26.94 20.964-10.22-17.234-25.726-30.98-44.27-38.986 13.495-11.175 22.133-28.02 22.215-46.85 0-.039 0-.077 0-.115v-.155c0-.039 0-.077 0-.115-.147-33.602-27.529-60.895-61.165-60.895s-61.018 27.293-61.165 60.895v.115.155.115c.082 18.83 8.72 35.675 22.215 46.85-18.555 8.01-34.067 21.766-44.287 39.014-7.425-8.85-16.632-15.982-26.954-20.964 10.343-9.495 16.862-23.094 16.929-38.193 0-.036 0-.073 0-.109v-.127c0-.036 0-.073 0-.109-.128-28.662-23.485-51.94-52.176-51.94s-52.048 23.278-52.176 51.94v.109.127.109c.067 15.095 6.583 28.691 16.922 38.186-27.134 13.143-45.891 40.96-45.891 73.077v31.335c0 6.075 4.925 11 11 11h431.165c6.075 0 11-4.925 11-11v-31.333c0-32.118-18.757-59.934-45.891-73.078zm-35.254-68.471c16.618 0 30.142 13.503 30.176 30.113-.035 16.61-13.558 30.113-30.176 30.113s-30.142-13.503-30.177-30.113c.034-16.61 13.558-30.113 30.177-30.113zm-145.438-35.703c21.57 0 39.123 17.528 39.166 39.088-.043 21.56-17.596 39.088-39.166 39.088s-39.123-17.528-39.166-39.088c.043-21.56 17.596-39.088 39.166-39.088zm-145.438 35.703c16.618 0 30.142 13.503 30.177 30.113-.035 16.61-13.559 30.113-30.177 30.113s-30.142-13.503-30.176-30.113c.035-16.61 13.558-30.113 30.176-30.113zm-59.145 141.549c0-32.613 26.532-59.146 59.145-59.146 21.871 0 41.853 12.083 52.108 31.139-2.038 7.733-3.128 15.846-3.128 24.209v24.131h-108.125zm279.041 20.333h-148.916v-24.131c0-40.287 32.776-73.062 73.062-73.062h2.791c40.287 0 73.062 32.776 73.062 73.062v24.131zm130.125 0h-108.125v-24.131c0-8.362-1.09-16.473-3.127-24.204 10.246-19.083 30.138-31.144 52.106-31.144 32.613 0 59.145 26.533 59.145 59.146v20.333z"/></g><g fill="#0496FF"><path d="m215.16 124.22c-2.674-7.104-12.745-9.094-17.93-3.57-6.909 6.773-1.906 18.855 7.77 18.77 7.574.233 13.291-8.285 10.16-15.2z"/><path d="m266.16 124.22c-2.696-7.107-12.718-9.086-17.94-3.58-6.891 6.799-1.91 18.864 7.781 18.78 7.576.23 13.273-8.283 10.159-15.2z"/><path d="m317.78 126.27c-1.265-7.474-10.716-11.395-16.89-6.99-8.099 5.3-5.552 18.127 3.96 19.93 7.394 1.702 14.646-5.543 12.93-12.94z"/></g></g><g/><g/><g/><g/><g/><g/><g/><g/><g/><g/><g/><g/><g/><g/><g/></svg>