<svg id="Capa_1" enable-background="new 0 0 512 512" viewBox="0 0 512 512" xmlns="http://www.w3.org/2000/svg" fill="#052438"><g><g><path d="m423.052 227.501h-34.767c-6.075 0-11 4.925-11 11s4.925 11 11 11h23.767v9c0 6.075 4.925 11 11 11s11-4.925 11-11v-20c0-6.075-4.925-11-11-11z"/><path d="m512 108.643v-23.29c0-6.075-4.925-11-11-11h-216.934c-13.548 0-26.727 3.052-38.743 8.908-17.691-48.522-64.294-83.261-118.86-83.261-69.732 0-126.463 56.731-126.463 126.463s56.731 126.463 126.463 126.463c11.255 0 22.168-1.486 32.562-4.258.243 28.937 5.961 57.168 17.035 83.936 11.157 26.97 27.197 51.157 47.688 71.912l18.708 30.016v66.468c0 6.075 4.925 11 11 11h146.042c6.075 0 11-4.925 11-11v-46.254h30.892c12.103 0 23.481-4.713 32.04-13.271 9.253-9.253 14.052-22.047 13.167-35.103-.87-12.854-7.167-24.714-17.302-32.636l7.832-52.629c18.753-1.609 33.521-17.387 33.521-36.549 0-7.947-2.643-15.812-7.439-22.146l-31.744-41.917v-13.552c0-1.438-.282-2.863-.831-4.193l-11.985-29.063c12.774-2.516 24.519-8.748 33.931-18.161 12.524-12.524 19.42-29.173 19.42-46.883zm-490 17.82c0-57.601 46.862-104.463 104.463-104.463s104.463 46.862 104.463 104.463-46.862 104.463-104.463 104.463-104.463-46.862-104.463-104.463zm463.672 149.23c1.92 2.535 2.978 5.683 2.978 8.864 0 8.097-6.587 14.684-14.684 14.684h-6.342c-5.45 0-10.078 3.99-10.88 9.381l-4.562 30.651h-10.677c-11.546 0-22.4-4.496-30.564-12.661-4.297-4.296-11.26-4.296-15.557 0-4.296 4.296-4.296 11.261 0 15.557 12.319 12.319 28.699 19.104 46.121 19.104h7.403l-2.33 15.656c-.591 3.97 1.027 7.946 4.222 10.375l4.699 3.573c5.359 4.075 8.694 10.264 9.149 16.981.455 6.716-2.014 13.299-6.774 18.059-4.403 4.403-10.257 6.828-16.483 6.828h-76.764c-6.075 0-11 4.925-11 11s4.925 11 11 11h23.872v35.255h-124.042v-58.615c0-2.057-.576-4.073-1.664-5.818l-16.406-26.322 8.687-8.687c11.85-11.85 18.376-27.605 18.376-44.364v-26.924c2.042.273 4.121.428 6.236.428h19.37c6.075 0 11-4.925 11-11s-4.925-11-11-11h-19.37c-13.667 0-24.787-11.12-24.787-24.787s11.12-24.787 24.787-24.787h19.37c3.876 0 7.465-2.04 9.449-5.369l25.112-42.138c1.015-1.703 1.551-3.649 1.551-5.631v-20.042h100.203l14.094 34.177v15.068c0 2.397.783 4.729 2.23 6.641zm4.328-167.05c0 11.833-4.608 22.958-12.976 31.326-8.367 8.367-19.492 12.976-31.326 12.976h-121.529c-6.075 0-11 4.925-11 11v28.013l-20.362 34.167h-13.12c-25.798 0-46.787 20.989-46.787 46.787 0 15.199 7.289 28.723 18.55 37.275v36.007c0 10.883-4.238 21.113-11.933 28.808l-6.867 6.866c-15.28-17.045-27.46-36.397-36.261-57.673-10.21-24.68-15.387-50.736-15.387-77.445v-6.201c42.506-20.402 71.924-63.872 71.924-114.085 0-7.286-.628-14.428-1.817-21.38 10.029-5.722 21.309-8.731 32.956-8.731h205.935z"/></g><path d="m126.463 51.271c-41.461 0-75.193 33.731-75.193 75.193s33.731 75.193 75.193 75.193 75.193-33.731 75.193-75.193-33.731-75.193-75.193-75.193zm53.193 75.192c0 7.678-1.648 14.974-4.589 21.573l-37.604-27.193v-46.422c24.07 5.082 42.193 26.483 42.193 52.042zm-64.193 52.043c-9.377-1.98-17.853-6.432-24.705-12.648l24.705-17.865zm22-30.513 24.705 17.865c-6.852 6.216-15.328 10.668-24.705 12.648zm-22-73.572v46.422l-37.604 27.193c-2.94-6.599-4.589-13.895-4.589-21.573.001-25.559 18.124-46.96 42.193-52.042z" fill="#0496FF"/></g><g/><g/><g/><g/><g/><g/><g/><g/><g/><g/><g/><g/><g/><g/><g/></svg>