<svg id="Capa_1" enable-background="new 0 0 512 512" viewBox="0 0 512 512" xmlns="http://www.w3.org/2000/svg" fill="#052438"><g><path d="m501.982 100.953c-6.302-6.184-14.583-9.5-23.249-9.333-3.495.066-6.86.693-10.011 1.794v-1.625c0-8.875-3.651-17.547-10.017-23.794-6.302-6.184-14.532-9.495-23.248-9.334-6.66.126-12.852 2.29-17.98 5.884-4.963-5.873-11.899-9.998-19.807-11.189-9.285-1.4-18.718 1.337-25.884 7.504-5.485 4.721-9.233 11.016-10.797 17.919-3.385-1.286-7.033-2.021-10.834-2.093-8.668-.172-16.945 3.149-23.248 9.333-6.366 6.247-10.018 14.919-10.018 23.794v59.199c-5.768-3.064-12.342-4.801-19.315-4.801-13.213 0-23.962 10.774-23.962 24.018 0 0 .005 54.652.016 95.457.006 23.773 13.863 45.83 35.303 56.191l29.498 14.255v39.464c0 6.075 22 6.075 22 0v-46.366c0-4.22-2.414-8.068-6.213-9.904l-35.711-17.259c-13.893-6.713-22.872-20.997-22.875-36.388-.011-40.802-.016-95.453-.016-95.452 0-1.112.88-2.017 1.962-2.017 10.556 0 19.163 8.518 19.313 19.045l-.013 56.155c-.001 7.322 2.854 14.204 8.04 19.379 5.18 5.168 12.064 8.015 19.387 8.015 6.075 0 11-4.925 11-11s-4.925-11-11-11c-1.963 0-3.252-.995-3.847-1.588-.59-.589-1.581-1.866-1.58-3.801l.015-151.603c0-3.006 1.249-5.955 3.426-8.091 2.051-2.012 4.672-3.091 7.423-3.041 5.75.109 10.429 4.884 10.429 10.645v126.185c0 6.075 4.925 11 11 11s11-4.925 11-11v-149.384c0-3.289 1.447-6.421 3.97-8.592 1.355-1.166 4.229-3.031 8.256-2.424 5.162.777 9.054 5.578 9.054 11.166v149.234c0 6.075 4.925 11 11 11s11-4.925 11-11v-144.209c0-5.761 4.679-10.536 10.429-10.645 2.736-.073 5.371 1.028 7.422 3.041 2.177 2.136 3.426 5.085 3.426 8.091v143.722c0 6.075 4.925 11 11 11s11-4.925 11-11v-111.249c0-5.76 4.678-10.536 10.429-10.645 2.709-.052 5.371 1.027 7.423 3.041 2.177 2.136 3.426 5.085 3.426 8.091l-.001 161.332c0 14.492-7.845 27.957-20.475 35.138-20.296 11.542-26.196 14.775-27.904 15.677-1.496.546-2.871 1.415-4.018 2.564-2.063 2.068-3.22 4.871-3.214 7.792l.093 46.365c.012 6.068 22.012 6.031 22-.044l-.08-39.687c1.164-.646 2.474-1.376 3.896-2.174 4.898-2.745 11.661-6.57 20.101-11.37 19.491-11.084 31.6-31.876 31.6-54.262l-.002-161.331c0-8.875-3.651-17.549-10.018-23.795z" fill="#0496FF"/><g><path d="m237.002 49.859c-6.475-6.353-14.961-9.75-23.881-9.587-3.812.073-7.476.795-10.884 2.06v-2.337c0-9.12-3.752-18.032-10.294-24.451-6.474-6.352-14.954-9.741-23.879-9.588-6.989.133-13.475 2.448-18.809 6.284-5.115-6.201-12.347-10.567-20.611-11.813-9.532-1.436-19.226 1.373-26.586 7.709-5.772 4.968-9.672 11.632-11.208 18.927-3.615-1.439-7.53-2.263-11.618-2.34-8.919-.167-17.406 3.235-23.879 9.588-6.542 6.419-10.294 15.332-10.294 24.451v62.396c-6.099-3.381-13.11-5.307-20.563-5.307-13.507 0-24.496 11.014-24.496 24.554 0 0 .005 57.33.016 99.813.006 24.58 14.334 47.384 36.5 58.096l30.968 14.966v48.437h-9.061c-6.075 0-11 4.925-11 11v128.224c0 6.075 4.925 11 11 11h140.128c6.075 0 11-4.925 11-11v-128.224c0-6.075-4.925-11-11-11h-9.067l-.079-48.673c1.27-.704 2.713-1.509 4.292-2.394 5.095-2.855 12.136-6.837 20.927-11.836 20.152-11.46 32.671-32.958 32.671-56.103l.001-168.401c0-9.119-3.752-18.031-10.294-24.451zm-49.45 440.082h-118.128v-106.224h118.128zm37.743-247.229c0 15.251-8.256 29.42-21.546 36.979-20.976 11.929-27.235 15.367-29.087 16.342-1.509.545-2.896 1.418-4.051 2.575-2.063 2.067-3.22 4.87-3.215 7.79l.09 55.32h-78.002v-55.338c0-4.22-2.414-8.068-6.213-9.904l-37.182-17.969c-14.62-7.065-24.069-22.096-24.073-38.294-.011-42.482-.016-99.81-.016-99.809 0-1.408 1.12-2.553 2.496-2.553 11.24 0 20.404 9.072 20.561 20.281l-.013 58.896c-.001 7.502 2.924 14.554 8.238 19.856 5.307 5.295 12.362 8.212 19.865 8.212 6.075 0 11-4.925 11-11s-4.925-11-11-11c-1.635 0-3.171-.634-4.325-1.785-1.147-1.145-1.778-2.664-1.778-4.278l.016-158.271c0-3.25 1.35-6.439 3.703-8.748 2.223-2.181 5.077-3.357 8.054-3.295 6.232.118 11.302 5.292 11.302 11.535v130.953c0 6.075 4.925 11 11 11s11-4.925 11-11v-155.108c0-3.557 1.564-6.942 4.291-9.289 1.47-1.265 4.588-3.288 8.958-2.629 5.594.843 9.812 6.034 9.812 12.074v154.951c0 6.075 4.925 11 11 11s11-4.925 11-11v-149.757c.021-6.225 5.083-11.379 11.303-11.497 2.971-.074 5.831 1.114 8.053 3.295 2.353 2.309 3.703 5.498 3.703 8.748v149.211c0 6.075 4.925 11 11 11s11-4.925 11-11v-115.402c0-6.243 5.07-11.417 11.302-11.536 2.991-.064 5.832 1.114 8.055 3.295 2.353 2.309 3.702 5.497 3.702 8.748z"/><path d="m145.906 427.366h10.354c6.075 0 11-4.925 11-11s-4.925-11-11-11h-10.354c-6.075 0-11 4.925-11 11s4.925 11 11 11z"/><path d="m464.749 389.565h-134.588c-6.075 0-11 4.925-11 11v100.376c0 6.075 4.925 11 11 11h134.587c6.075 0 11-4.925 11-11v-100.376c.001-6.075-4.924-11-10.999-11zm-11 100.376h-112.588v-78.376h112.587v78.376z"/><path d="m412.806 455.254h9.945c6.075 0 11-4.925 11-11s-4.925-11-11-11h-9.945c-6.075 0-11 4.925-11 11s4.924 11 11 11z"/></g></g><g/><g/><g/><g/><g/><g/><g/><g/><g/><g/><g/><g/><g/><g/><g/></svg>