<svg id="Capa_1" enable-background="new 0 0 512 512" height="512" viewBox="0 0 512 512" width="512" xmlns="http://www.w3.org/2000/svg" fill="#E6ECF2"><g id="Caliper"><g fill="#0496FF"><path d="m164.506 204.987h-60.996c-6.075 0-11-4.925-11-11v-60.995c0-6.075 4.925-11 11-11h60.996c6.075 0 11 4.925 11 11s-4.925 11-11 11h-49.996v38.995h49.996c6.075 0 11 4.925 11 11s-4.925 11-11 11z"/><path d="m195.004 82.996h-91.494c-6.075 0-11-4.925-11-11v-60.996c0-6.075 4.925-11 11-11h91.494c6.075 0 11 4.925 11 11s-4.925 11-11 11h-80.494v38.996h80.494c6.075 0 11 4.925 11 11s-4.925 11-11 11z"/><path d="m316.996 204.987h-30.498c-6.075 0-11-4.925-11-11s4.925-11 11-11h29.587l65.112-10.852c9.44-1.573 16.292-9.662 16.292-19.232v-8.911h-110.991c-6.075 0-11-4.925-11-11s4.925-11 11-11h121.992c6.075 0 11 4.925 11 11v19.911c0 20.369-14.583 37.584-34.676 40.934l-66.01 11.001c-.597.1-1.202.149-1.808.149z"/><path d="m408.49 82.996h-152.49c-6.075 0-11-4.925-11-11s4.925-11 11-11h141.49v-8.911c0-9.571-6.852-17.66-16.292-19.232l-65.113-10.853h-60.085c-6.075 0-11-4.925-11-11s4.925-11 11-11h60.996c.606 0 1.211.05 1.809.149l66.009 11.002c20.092 3.348 34.676 20.562 34.676 40.934v19.911c0 6.075-4.925 11-11 11z"/><path d="m225.502 265.983c-6.075 0-11-4.925-11-11v-60.996c0-6.075 4.925-11 11-11s11 4.925 11 11v60.996c0 6.076-4.925 11-11 11z"/></g><path d="m286.498 121.992h-19.498v-110.992c0-6.075-4.925-11-11-11h-60.996c-6.075 0-11 4.925-11 11v110.992h-19.498c-6.075 0-11 4.925-11 11v182.987c0 6.075 4.925 11 11 11h19.498v174.021c0 6.075 4.925 11 11 11h60.996c6.075 0 11-4.925 11-11v-174.021h19.498c6.075 0 11-4.925 11-11v-182.987c0-6.075-4.925-11-11-11zm-80.494-99.992h38.996v99.992h-38.996zm38.996 468h-38.996v-163.021h38.996zm30.498-185.021h-99.992v-160.987h99.992z"/></g></svg>