<svg id="Capa_1" enable-background="new 0 0 512 512" height="512" viewBox="0 0 512 512" width="512" xmlns="http://www.w3.org/2000/svg" fill="#E6ECF2"><g><g fill="#0496FF"><path d="m169.06 49.813h156.556v22h-156.556z"/><path d="m154.076 147.407h156.556v22h-156.556z"/><path d="m139.091 245h156.556v22h-156.556z"/><path d="m124.106 342.593h156.556v22h-156.556z"/><path d="m109.122 440.186h156.556v22h-156.556z"/></g><path d="m101.477 512h-65.062c-3.209 0-6.258-1.401-8.348-3.836s-3.012-5.661-2.525-8.833l75.228-490c.825-5.368 5.442-9.331 10.873-9.331h65.062c3.209 0 6.258 1.401 8.348 3.836 2.089 2.435 3.012 5.661 2.525 8.833l-75.228 490c-.825 5.368-5.442 9.331-10.873 9.331zm-52.244-22h42.804l71.851-468h-42.805z"/><path d="m486.458 499.331-75.228-490c-.825-5.368-5.442-9.331-10.873-9.331h-2.033-63.029-2.033c-5.431 0-10.048 3.963-10.872 9.331l-75.228 490c-.487 3.172.435 6.398 2.525 8.833s5.139 3.836 8.348 3.836h65.062c5.431 0 10.048-3.963 10.873-9.331l32.841-213.911 32.841 213.911c.824 5.368 5.442 9.331 10.872 9.331h65.062c3.209 0 6.258-1.401 8.348-3.836 2.089-2.436 3.01-5.662 2.524-8.833zm-172.803-9.331h-42.804l71.85-468h42.805l-29.566 192.578c-.005.035-.011.069-.016.104zm106.308 0-42.025-273.729 21.402-139.405 63.427 413.134z"/></g></svg>