<svg id="Capa_1" enable-background="new 0 0 512 512" height="512" viewBox="0 0 512 512" width="512" xmlns="http://www.w3.org/2000/svg" fill="#052438"><g id="Wrecking_Ball"><path d="m103.51 267c-2.815 0-5.63-1.074-7.778-3.222l-30.498-30.498c-4.295-4.296-4.295-11.261 0-15.557 4.296-4.295 11.261-4.295 15.557 0l30.498 30.498c4.295 4.296 4.295 11.261 0 15.557-2.148 2.148-4.964 3.222-7.779 3.222z" fill="#0496FF"/><path d="m408.489 267c-2.815 0-5.63-1.074-7.778-3.222-4.296-4.296-4.296-11.261 0-15.557l30.498-30.498c4.297-4.295 11.26-4.295 15.557 0 4.296 4.296 4.296 11.261 0 15.557l-30.498 30.498c-2.149 2.148-4.963 3.222-7.779 3.222z" fill="#0496FF"/><path d="m501 305.996h-92.511c-4.477 0-8.507 2.713-10.191 6.859l-9.603 23.639h-23.094c-2.917 0-5.715 1.159-7.778 3.222l-30.498 30.498c-2.062 2.063-3.222 4.861-3.222 7.778v19.497h-148.597v-19.497c0-2.917-1.159-5.715-3.222-7.778l-30.498-30.498c-2.063-2.062-4.861-3.222-7.778-3.222h-23.094l-9.604-23.639c-1.684-4.146-5.714-6.859-10.191-6.859h-80.119c-6.075 0-11 4.925-11 11v184.004c0 6.075 4.925 11 11 11h490c6.075 0 11-4.925 11-11v-184.004c0-6.075-4.925-11-11-11zm-154.897 76.553 24.055-24.055h25.942c4.477 0 8.507-2.713 10.191-6.86l9.603-23.638h74.106v69.493h-143.897zm20.889 36.94v70.511h-221.984v-70.511zm-283.276-91.493 9.604 23.639c1.685 4.147 5.714 6.859 10.191 6.859h25.942l24.054 24.055v14.94h-131.507v-69.493zm-61.716 91.493h101.008v70.511h-101.008zm366.992 70.511v-70.511h101.008v70.511z"/><path d="m267 154.098v-143.098c0-6.075-4.925-11-11-11s-11 4.925-11 11v143.098c-51.361 5.505-91.494 49.103-91.494 101.902 0 56.516 45.979 102.494 102.494 102.494 56.516 0 102.494-45.979 102.494-102.494 0-52.799-40.132-96.397-91.494-101.902zm-11 182.396c-44.384 0-80.494-36.109-80.494-80.494s36.109-80.494 80.494-80.494 80.494 36.109 80.494 80.494-36.109 80.494-80.494 80.494z" fill="#0496FF"/></g></svg>