<svg id="Capa_1" enable-background="new 0 0 512 512" height="512" viewBox="0 0 512 512" width="512" xmlns="http://www.w3.org/2000/svg" fill="#E6ECF2"><g id="Tank_Truck"><path d="m316.996 245h172.018v22h-172.018z" fill="#0496FF"/><path d="m267 164.506c0-39.698-32.297-71.995-71.996-71.995h-123.008c-39.699 0-71.996 32.297-71.996 71.995 0 35.96 26.5 65.845 60.996 71.156v50.836h22v-49.996h101.008v49.996h22v-50.836c34.496-5.311 60.996-35.196 60.996-71.156zm-245 0c0-23.788 16.705-43.735 38.996-48.761v97.522c-22.291-5.026-38.996-24.973-38.996-48.761zm60.996 49.996v-99.991h101.008v99.991zm123.008-1.234v-97.522c22.291 5.025 38.996 24.972 38.996 48.76s-16.705 43.735-38.996 48.762z" fill="#0496FF"/><path d="m467.264 185.565c-13.383-20.075-35.777-32.059-59.904-32.059h-90.364c-6.075 0-11 4.925-11 11v110.992h-294.996c-6.075 0-11 4.925-11 11v91.494c0 6.075 4.925 11 11 11h51.487c4.834 17.559 20.933 30.497 40.006 30.497 19.074 0 35.173-12.938 40.007-30.497h174.496 52.504c4.834 17.559 20.933 30.497 40.007 30.497 19.073 0 35.172-12.938 40.006-30.497h51.487c6.075 0 11-4.925 11-11v-44.677c0-52.76-15.469-103.851-44.736-147.75zm-404.777 181.427h-40.487v-69.494h283.996v69.494h-163.496c-4.834-17.559-20.933-30.498-40.007-30.498-19.073 0-35.172 12.94-40.006 30.498zm40.007 30.497c-10.751 0-19.498-8.746-19.498-19.497s8.747-19.498 19.498-19.498 19.498 8.747 19.498 19.498-8.747 19.497-19.498 19.497zm307.012 0c-10.751 0-19.498-8.746-19.498-19.497s8.747-19.498 19.498-19.498 19.498 8.747 19.498 19.498-8.747 19.497-19.498 19.497zm80.494-30.497h-40.487c-4.834-17.559-20.933-30.498-40.006-30.498-19.074 0-35.173 12.939-40.007 30.498h-41.503v-191.486h79.364c16.754 0 32.305 8.322 41.599 22.263 21.761 32.641 35.204 69.616 39.519 108.227h-17.977c-6.075 0-11 4.925-11 11s4.925 11 11 11h19.435c.038 1.771.063 3.544.063 5.319z"/></g></svg>