<svg id="Capa_1" enable-background="new 0 0 512 512" height="512" viewBox="0 0 512 512" width="512" xmlns="http://www.w3.org/2000/svg" fill="#052438"><g id="Mixer_Truck"><path d="m316.997 275.498h172.018v22h-172.018z" fill="#0496FF"/><path d="m235.964 152.012c-14.935-14.936-31.692-28.021-49.806-38.893l-25.764-15.621c-1.243-1.214-2.702-2.069-4.251-2.577l-51.646-31.314c-4.344-2.632-9.924-1.95-13.504 1.651l-86.261 86.777c-3.55 3.571-4.222 9.097-1.631 13.414l49.005 81.674c3.146 5.245 6.38 10.294 9.689 15.151l-57.666 46.132c-4.744 3.795-5.513 10.718-1.718 15.462 2.172 2.716 5.369 4.128 8.596 4.128 2.41 0 4.837-.788 6.865-2.41l57.024-45.619c5.227 6.478 10.606 12.496 16.119 18.01 19.981 19.981 46.228 29.972 72.475 29.972s52.493-9.991 72.474-29.972c19.358-19.358 30.02-45.277 30.02-72.982 0-27.706-10.661-53.625-30.02-72.983zm-135.471-65.106 34.34 20.821-87.785 88.205-20.676-34.46zm119.915 195.514c-15.694 15.694-36.302 23.54-56.918 23.538-20.61-.002-41.227-7.848-56.918-23.538-12.663-12.663-24.641-28.347-35.602-46.615l-12.249-20.415 95.469-95.926 20.575 12.475c.015.009.029.018.044.026 16.585 9.95 31.926 21.929 45.599 35.603 31.665 31.665 31.665 83.187 0 114.852z" fill="#0496FF"/><path d="m467.265 216.064c-13.383-20.075-35.777-32.06-59.904-32.06h-90.364c-6.075 0-11 4.925-11 11v110.992h-294.997c-6.075 0-11 4.925-11 11v91.493c0 6.075 4.925 11 11 11h51.487c4.834 17.559 20.933 30.498 40.006 30.498 19.074 0 35.173-12.939 40.007-30.498h174.496 52.504c4.834 17.559 20.933 30.498 40.007 30.498s35.172-12.939 40.006-30.498h51.487c6.075 0 11-4.925 11-11v-44.676c0-52.76-15.469-103.851-44.735-147.749zm-445.265 111.932h283.996v69.493h-163.495c-4.834-17.559-20.933-30.497-40.007-30.497-19.073 0-35.172 12.938-40.006 30.497h-40.488zm80.494 99.991c-10.751 0-19.498-8.747-19.498-19.498s8.747-19.497 19.498-19.497 19.498 8.746 19.498 19.497-8.746 19.498-19.498 19.498zm307.013 0c-10.751 0-19.498-8.747-19.498-19.498s8.747-19.497 19.498-19.497 19.498 8.746 19.498 19.497c-.001 10.751-8.747 19.498-19.498 19.498zm80.493-30.498h-40.487c-4.834-17.559-20.933-30.497-40.006-30.497-19.074 0-35.173 12.938-40.007 30.497h-41.503v-191.485h79.364c16.754 0 32.305 8.322 41.599 22.263 21.761 32.641 35.204 69.616 39.519 108.228h-17.977c-6.075 0-11 4.925-11 11s4.925 11 11 11h19.435c.038 1.771.063 3.544.063 5.319z"/></g></svg>