<svg id="Capa_1" enable-background="new 0 0 512 512" viewBox="0 0 512 512" xmlns="http://www.w3.org/2000/svg" fill="#E6ECF2"><g><g><g><path d="m279.047 512h-46.094c-5.729 0-10.5-4.398-10.964-10.109l-1.45-17.836c-14.855-3.61-28.929-9.446-42.011-17.42l-13.652 11.599c-4.366 3.71-10.849 3.446-14.9-.604l-32.593-32.593c-4.052-4.051-4.315-10.534-.605-14.9l11.602-13.655c-7.975-13.086-13.81-27.159-17.417-42.008l-17.841-1.45c-5.711-.464-10.109-5.234-10.109-10.964v-46.094c0-5.729 4.398-10.5 10.108-10.964l17.837-1.45c4.106-16.891 11.099-32.792 20.845-47.373 3.376-5.05 10.208-6.407 15.258-3.033 5.051 3.376 6.409 10.207 3.033 15.258-9.654 14.444-16.138 30.405-19.271 47.439-.9 4.891-4.97 8.57-9.927 8.974l-15.883 1.292v25.81l15.888 1.292c4.958.403 9.028 4.083 9.928 8.975 3.243 17.64 10.07 34.107 20.291 48.943 2.821 4.095 2.544 9.573-.675 13.363l-10.333 12.162 18.25 18.25 12.16-10.331c3.79-3.221 9.27-3.497 13.364-.674 14.828 10.219 31.295 17.047 48.945 20.293 4.892.899 8.571 4.97 8.974 9.927l1.29 15.881h25.81l1.292-15.888c.403-4.958 4.083-9.028 8.975-9.928 17.64-3.243 34.107-10.069 48.944-20.291 4.094-2.821 9.573-2.544 13.362.676l12.162 10.333 18.25-18.25-10.332-12.16c-3.22-3.79-3.497-9.27-.674-13.365 10.219-14.826 17.046-31.293 20.293-48.944.899-4.892 4.97-8.571 9.927-8.974l15.884-1.292v-25.81l-15.885-1.292c-4.958-.403-9.028-4.083-9.928-8.975-3.155-17.162-9.71-33.231-19.484-47.761-3.391-5.041-2.054-11.876 2.987-15.267 5.042-3.39 11.877-2.053 15.267 2.987 9.878 14.685 16.955 30.712 21.096 47.75l17.839 1.451c5.711.464 10.109 5.234 10.109 10.964v46.094c0 5.729-4.398 10.5-10.108 10.964l-17.837 1.45c-3.61 14.855-9.445 28.93-17.42 42.011l11.6 13.652c3.71 4.367 3.447 10.85-.604 14.901l-32.594 32.593c-4.052 4.05-10.535 4.314-14.9.604l-13.655-11.602c-13.086 7.975-27.159 13.81-42.008 17.417l-1.45 17.841c-.466 5.713-5.236 10.111-10.966 10.111z" fill="#0496FF"/></g><g><path d="m256 428.511c-49.351 0-89.5-40.149-89.5-89.5 0-49.35 40.149-89.5 89.5-89.5s89.5 40.149 89.5 89.5-40.149 89.5-89.5 89.5zm0-156.999c-37.22 0-67.5 30.28-67.5 67.5s30.28 67.5 67.5 67.5 67.5-30.28 67.5-67.5-30.28-67.5-67.5-67.5z" fill="#0496FF"/></g></g><path d="m417 206.979v-22.479c0-70.586-46.663-133.282-114.002-153.953l-1.013-20.1c-.294-5.853-5.125-10.447-10.985-10.447h-70c-5.86 0-10.691 4.594-10.986 10.446l-1.013 20.101c-67.287 20.667-114.001 83.506-114.001 153.953v22.479c-17.944 10.631-30 30.195-30 52.521 0 6.075 4.925 11 11 11h360c6.075 0 11-4.925 11-11 0-22.326-12.056-41.889-30-52.521zm-22-22.479v14.662c-2.938-.436-5.943-.662-9-.662h-74.54l-7.272-144.33c54.014 20.085 90.812 72.099 90.812 130.33zm-114.46-162.5 8.892 176.5h-66.864l8.892-176.5zm-163.54 162.5c0-58.114 36.835-110.233 90.811-130.326l-7.271 144.326h-74.54c-3.057 0-6.062.226-9 .662zm-28.421 64c4.76-16.166 19.734-28 37.421-28h260c17.686 0 32.661 11.834 37.42 28z"/></g><g/><g/><g/><g/><g/><g/><g/><g/><g/><g/><g/><g/><g/><g/><g/></svg>