<svg id="Capa_1" enable-background="new 0 0 512 512" viewBox="0 0 512 512" xmlns="http://www.w3.org/2000/svg" fill="#E6ECF2"><g><g fill="#0496FF"><path d="m218 331.992h103c6.075 0 11-4.925 11-11s-4.925-11-11-11h-92v-93.8c0-6.075-4.925-11-11-11s-11 4.925-11 11v104.8c0 6.075 4.925 11 11 11z"/><path d="m76 444.993h-.008c-6.075 0-10.996 4.925-10.996 11s4.929 11 11.004 11 11-4.925 11-11-4.924-11-11-11z"/><path d="m335.627 444.993h-205.654c-6.075 0-11 4.925-11 11s4.925 11 11 11h205.654c6.075 0 11-4.925 11-11s-4.924-11-11-11z"/><path d="m386 444.993h-.008c-6.075 0-10.996 4.925-10.996 11s4.929 11 11.004 11 11-4.925 11-11-4.925-11-11-11z"/><path d="m511.241 255.426-29.092-74.199c-1.355-3.454-4.36-5.993-7.993-6.752-3.632-.76-7.403.365-10.027 2.989l-93.689 93.688c-2.779 2.779-3.864 6.829-2.847 10.625s3.982 6.762 7.778 7.778l81.463 21.828c.941.252 1.897.375 2.847.375 2.879 0 5.689-1.132 7.779-3.222l41.317-41.317c3.093-3.092 4.06-7.721 2.464-11.793zm-54.846 33.065-56.925-15.254 68.333-68.332 20.329 51.85z"/></g><path d="m479.687 142.198-132.395-132.395c-13.06-13.061-34.311-13.061-47.373 0l-130.548 130.548c-20.914 1.843-37.371 19.456-37.371 40.841v19h-4c-6.075 0-11 4.925-11 11v49h-106c-6.075 0-11 4.925-11 11v94.8c0 6.075 4.925 11 11 11h149.001v23.001h-84.001c-30.878 0-56 25.121-56 55.999 0 30.879 25.122 56.001 56 56.001h310c30.878 0 56-25.122 56-56.001 0-30.878-25.122-55.999-56-55.999h-84v-23.001h24c6.075 0 11-4.925 11-11v-109.2c0-2.917-1.159-5.715-3.222-7.778l-45.6-45.6c-2.063-2.062-4.861-3.222-7.778-3.222h-66.4v-9.723l109.605-109.605 108.708 108.707c6.327 6.327 14.739 9.812 23.687 9.812s17.36-3.484 23.686-9.812c6.327-6.326 9.812-14.738 9.812-23.687 0-8.947-3.485-17.359-9.811-23.686zm-147.952-116.838 99.622 99.622-16.26 16.26-83.714-83.713-24.038-24.039 8.13-8.13c4.483-4.482 11.777-4.484 16.26 0zm-137.209 120.95 97.263-97.263 16.26 16.261-98.107 98.107c-3.411-7.061-8.788-13-15.416-17.105zm225.474 309.682c0 18.748-15.252 34.001-34 34.001h-310c-18.748 0-34-15.253-34-34.001 0-18.747 15.252-33.999 34-33.999h310c18.748 0 34 15.252 34 33.999zm-140-55.999h-97.999v-23.001h97.999zm35-138.645v93.644h-293v-72.8h106c6.075 0 11-4.925 11-11v-49h136.844zm-161-61.156v-19c0-10.477 8.523-19 19-19s19 8.523 19 19v19zm310.13-26.178c-2.171 2.172-5.059 3.368-8.13 3.368s-5.959-1.196-8.13-3.368l-17.215-17.215 16.26-16.26 17.216 17.216c2.171 2.172 3.368 5.059 3.368 8.13s-1.197 5.958-3.369 8.129z"/></g><g/><g/><g/><g/><g/><g/><g/><g/><g/><g/><g/><g/><g/><g/><g/></svg>