<svg id="Capa_1" enable-background="new 0 0 512 512" height="512" viewBox="0 0 512 512" width="512" xmlns="http://www.w3.org/2000/svg" fill="#E6ECF2"><g id="Trowel"><path d="m360.495 241.581c-1.884 0-3.788-.122-5.706-.372-32.056-4.171-64.659-4.875-96.909-2.09-6.032.521-11.383-3.96-11.905-10.013-.523-6.052 3.96-11.383 10.013-11.905 33.824-2.922 68.019-2.184 101.642 2.192 9.946 1.296 19.147-4.378 21.881-13.487 1.664-5.547.843-11.283-2.312-16.153-3.201-4.941-8.417-8.216-14.31-8.985-5.186-.676-10.454-1.281-15.657-1.796-12.197-1.209-23.117-7.762-29.961-17.978-6.927-10.339-8.846-23.114-5.265-35.049 5.713-19.042 23.935-31.467 43.367-29.55 33.076 3.272 65.15 9.281 98.056 18.371 10.401 2.874 21.112-2.561 24.379-12.372 1.714-5.146 1.233-10.85-1.318-15.648-2.43-4.568-6.431-7.826-11.266-9.173-90.765-25.299-187.964-29.795-281.089-13.004-5.981 1.08-11.699-2.895-12.777-8.874s2.895-11.699 8.873-12.777c96.37-17.375 196.961-12.721 290.898 13.461 10.696 2.981 19.497 10.097 24.783 20.036 5.367 10.092 6.376 22.094 2.768 32.928-6.968 20.923-29.42 32.617-51.109 26.627-31.683-8.752-62.55-14.536-94.364-17.683-8.973-.892-17.434 4.992-20.129 13.978-1.685 5.617-.784 11.624 2.471 16.483 3.172 4.735 8.221 7.771 13.853 8.33 5.427.538 10.922 1.169 16.332 1.874 12.305 1.605 23.214 8.472 29.93 18.839 6.624 10.226 8.417 22.777 4.92 34.435-5.306 17.681-21.653 29.354-40.089 29.355z" fill="#0496FF"/><path d="m273.839 239.681-91.502-214.519c-6.551-15.285-21.528-25.162-38.156-25.162-16.627 0-31.604 9.877-38.162 25.179l-91.487 214.486c-2.218 5.176-3.342 10.672-3.342 16.335 0 22.882 18.616 41.498 41.498 41.498h80.493v49.996c0 6.075 4.925 11 11 11s11-4.925 11-11v-49.996h80.494c22.882 0 41.498-18.616 41.498-41.498 0-5.657-1.122-11.148-3.334-16.319zm-38.164 35.817h-80.494v-80.494c0-6.075-4.925-11-11-11s-11 4.925-11 11v80.494h-80.493c-10.751 0-19.498-8.746-19.498-19.498 0-2.668.526-5.249 1.571-7.688l91.486-214.485c3.08-7.184 10.12-11.827 17.934-11.827 7.815 0 14.855 4.643 17.927 11.811l91.494 214.502c.002.005.005.011.007.016 1.038 2.422 1.564 5.003 1.564 7.671 0 10.751-8.747 19.498-19.498 19.498z"/><path d="m144.181 512c-22.882 0-41.497-18.616-41.497-41.498v-123.008c0-6.075 4.925-11 11-11h60.995c6.075 0 11 4.925 11 11v123.008c0 22.882-18.616 41.498-41.498 41.498zm-19.497-153.506v112.008c0 10.751 8.746 19.498 19.497 19.498s19.498-8.747 19.498-19.498v-112.008z" fill="#0496FF"/></g></svg>