<svg id="Capa_1" enable-background="new 0 0 512 512" height="512" viewBox="0 0 512 512" width="512" xmlns="http://www.w3.org/2000/svg" fill="#052438"><g><path d="m204.891 379.353-40.406 40.412-83.942-17.305 73.725-73.718 5.077-18.478-9.245-8.464-146.877 146.863c-2.86 2.86-3.92 7.06-2.76 10.935 1.161 3.875 4.354 6.801 8.316 7.617l109.746 22.627c.738.152 1.482.227 2.221.227 2.888 0 5.695-1.139 7.779-3.223l103.311-103.326-12.09-15.351zm-87.731 87.744-83.95-17.308 28.708-28.705 83.946 17.306z" fill="#0496FF"/><path d="m263.035 396.494c-.825 0-1.655-.093-2.478-.282l-26.899-6.219c-4.459-1.026-8.935-2.336-13.295-3.89-34.146-12.15-60.701-38.699-72.848-72.838-1.53-4.293-2.839-8.77-3.887-13.301l-6.212-26.896c-.853-3.696.257-7.571 2.94-10.254l213.451-213.452c36.094-36.092 94.713-36.64 130.672-1.214 17.651 17.384 27.425 40.601 27.52 65.371.095 24.775-9.5 48.066-27.016 65.583l-214.17 214.17c-2.086 2.086-4.894 3.222-7.778 3.222zm-102.811-122.436 4.839 20.951c.858 3.709 1.927 7.368 3.177 10.875 9.923 27.886 31.611 49.568 59.505 59.494 3.565 1.271 7.216 2.339 10.856 3.177l20.968 4.848 209.857-209.857c13.339-13.339 20.645-31.075 20.573-49.942-.072-18.863-7.515-36.542-20.958-49.782-27.384-26.977-72.099-26.482-99.677 1.098z"/><g><path d="m230.709 313.917c-2.815 0-5.63-1.073-7.778-3.222-4.295-4.296-4.295-11.261 0-15.557l47.608-47.608c4.296-4.296 8.459-2.428 12.755 1.87 4.295 4.296 7.097 9.391 2.801 13.687l-47.608 47.607c-2.148 2.149-4.963 3.223-7.778 3.223z"/><path d="m321.399 223.221c-2.816 0-3.405-4.417-5.553-6.565-4.295-4.296-6.521-7.918-2.224-12.214l47.613-47.603c4.296-4.295 11.261-4.294 15.557.002 4.295 4.296 4.294 11.261-.002 15.557l-47.613 47.603c-2.148 2.146-4.963 3.22-7.778 3.22z"/></g><path d="m429.369 137.192c-8.438 0-16.875-3.212-23.298-9.635-12.847-12.848-12.847-33.75 0-46.598 12.847-12.847 33.75-12.845 46.596 0 12.847 12.848 12.847 33.75.001 46.598-6.424 6.423-14.862 9.635-23.299 9.635zm-7.743-40.676c-4.268 4.27-4.268 11.216 0 15.484 4.27 4.271 11.216 4.269 15.484 0 4.269-4.269 4.269-11.216 0-15.484-4.269-4.269-11.215-4.269-15.484 0z"/><path d="m298.064 286.056c-2.815 0-5.63-1.074-7.778-3.222l-39.495-39.494c-2.062-2.062-3.222-4.86-3.222-7.778 0-2.917 1.159-5.715 3.222-7.778l43.086-43.086c2.063-2.062 4.861-3.222 7.778-3.222s5.715 1.159 7.778 3.222l39.495 39.495c4.296 4.296 4.296 11.261 0 15.557l-43.085 43.085c-2.148 2.147-4.964 3.221-7.779 3.221zm-23.938-50.494 23.939 23.938 27.529-27.528-23.939-23.939z" fill="#0496FF"/></g></svg>