<svg id="Capa_1" enable-background="new 0 0 512.001 512.001" viewBox="0 0 512.001 512.001" xmlns="http://www.w3.org/2000/svg" fill="#E6ECF2"><g><path d="m501.001 138.792c6.075 0 11-4.925 11-11s-4.925-11-11-11h-8.92v-49.873h8.92c6.075 0 11-4.925 11-11s-4.925-11-11-11h-8.92v-8.919c0-6.075-4.925-11-11-11s-11 4.925-11 11v8.919h-49.873v-8.919c0-6.075-4.925-11-11-11s-11 4.925-11 11v8.919h-49.872v-8.919c0-6.075-4.925-11-11-11s-11 4.925-11 11v8.919h-49.873v-8.919c0-6.075-4.925-11-11-11s-11 4.925-11 11v8.919h-41.508c-6.075 0-11 4.925-11 11s4.925 11 11 11h41.508v49.873h-38.513c-6.075 0-11 4.925-11 11s4.925 11 11 11h38.513v49.872h-43.874c-6.075 0-11 4.925-11 11s4.925 11 11 11h43.874v49.205c0 6.075 4.925 11 11 11s11-4.925 11-11v-49.205h49.873v42.455c0 6.075 4.925 11 11 11s11-4.925 11-11v-42.455h49.872v60.205c0 6.075 4.925 11 11 11s11-4.925 11-11v-60.205h49.873v56.205c0 6.075 4.925 11 11 11s11-4.925 11-11v-56.205h8.92c6.075 0 11-4.925 11-11s-4.925-11-11-11h-8.92v-49.872zm-30.92-71.873v49.873h-49.873v-49.873zm-71.873 0v49.873h-49.872v-49.873zm-121.745 0h49.873v49.873h-49.873zm0 121.746v-49.872h49.873v49.872zm71.873 0v-49.872h49.872v49.872zm121.745 0h-49.873v-49.872h49.873z" fill="#0496FF"/><g><path d="m507.872 273.551c-48.525-38.816-78.641-22.691-100.63-10.916-18.603 9.962-27.942 14.966-46.969-5.093-18.908-19.934-50.421-14.282-80.899-8.814-22.543 4.044-45.856 8.225-56.314-.116-4.796-3.826-7.368-10.809-7.86-21.346-.72-15.405 2.329-25.369 5.556-35.918 5.021-16.41 10.213-33.38 1.365-66.402-8.687-32.421-5.191-46.408-.767-64.118 1.671-6.688 3.565-14.268 4.887-23.22.467-3.164-.465-6.374-2.555-8.795s-5.128-3.813-8.326-3.813h-204.36c-6.075 0-11 4.925-11 11v440c0 6.075 4.925 11 11 11h490.001c6.075 0 11-4.925 11-11v-193.859c0-3.342-1.52-6.503-4.129-8.59zm-17.871 191.449h-468.001v-418h180.071c-.667 2.92-1.369 5.728-2.06 8.494-4.783 19.143-9.3 37.224.86 75.145 7.215 26.928 3.338 39.6-1.152 54.272-3.465 11.325-7.394 24.163-6.495 43.382.794 16.997 6.217 29.62 16.118 37.517 18.25 14.559 46.549 9.482 73.917 4.572 24.734-4.437 50.312-9.023 61.054 2.301 30.575 32.232 54.274 19.545 73.315 9.346 19.453-10.416 37.863-20.281 72.373 5.507z"/><path d="m310.181 339.5c-18.472 0-33.5 15.028-33.5 33.5s15.028 33.5 33.5 33.5 33.5-15.028 33.5-33.5-15.029-33.5-33.5-33.5zm0 45c-6.341 0-11.5-5.159-11.5-11.5s5.159-11.5 11.5-11.5 11.5 5.159 11.5 11.5-5.16 11.5-11.5 11.5z"/><path d="m103.93 171c-20.264 0-36.75 16.486-36.75 36.75s16.486 36.75 36.75 36.75 36.75-16.486 36.75-36.75-16.486-36.75-36.75-36.75zm0 51.5c-8.133 0-14.75-6.617-14.75-14.75s6.617-14.75 14.75-14.75 14.75 6.617 14.75 14.75-6.617 14.75-14.75 14.75z"/><path d="m118.011 119.822c6.075 0 11-4.925 11-11s-4.925-11-11-11h-.007c-6.075 0-10.997 4.925-10.997 11s4.929 11 11.004 11z"/><path d="m80.003 296.821h-.008c-6.075 0-10.996 4.925-10.996 11s4.929 11 11.004 11 11-4.925 11-11-4.925-11-11-11z"/><path d="m126.002 382.821h-.007c-6.075 0-10.996 4.925-10.996 11s4.928 11 11.003 11 11-4.925 11-11-4.924-11-11-11z"/><path d="m211.002 315.82c0-6.075-4.925-11-11-11h-.007c-6.075 0-10.996 4.925-10.996 11s4.928 11 11.003 11 11-4.925 11-11z"/><path d="m210.002 402.82h-.007c-6.075 0-10.996 4.925-10.996 11s4.928 11 11.003 11 11-4.925 11-11-4.924-11-11-11z"/><path d="m408.003 398.82h-.008c-6.075 0-10.996 4.925-10.996 11s4.929 11 11.004 11 11-4.925 11-11-4.925-11-11-11z"/><path d="m445.995 312.82c-6.075 0-10.996 4.925-10.996 11s4.929 11 11.004 11 11-4.925 11-11-4.925-11-11-11z"/></g></g><g/><g/><g/><g/><g/><g/><g/><g/><g/><g/><g/><g/><g/><g/><g/></svg>