<svg id="Capa_1" enable-background="new 0 0 512 512" height="512" viewBox="0 0 512 512" width="512" xmlns="http://www.w3.org/2000/svg" fill="#E6ECF2"><g><g><path d="m242.65 328.039c-9.607 9.607-13.776 22.793-11.436 36.176 2.339 13.384 10.732 24.375 23.029 30.153l14.19 6.669c3.125 1.469 5.379 4.32 6.088 7.7.708 3.38-.212 6.896-2.485 9.496-.889 1.018-22.05 25.136-45.639 44.522-36.992 30.43-85.573 47.897-136.793 49.183-1.68.04-3.349.061-5.007.061-17.232 0-33.316-2.195-47.883-6.54-3.458-1.032-14.214-5.466-17.428-6.801-2.689-1.117-4.827-3.254-5.942-5.944-.272-.657-.566-1.351-.876-2.083-4.646-10.985-13.295-31.433-12.404-68.223 1.286-51.213 18.753-99.794 49.182-136.802 19.394-23.582 43.504-44.749 44.521-45.639 2.6-2.274 6.12-3.193 9.496-2.487 3.381.708 6.232 2.962 7.701 6.088l6.669 14.191c5.779 12.296 16.769 20.69 30.152 23.029 13.382 2.338 26.569-1.829 36.177-11.436l27.712 20.119 17.878 18.613zm-210.766 152.012c4.973 2.026 9.854 3.949 11.12 4.327 13.751 4.101 29.245 5.971 46.057 5.567 46.327-1.163 90.14-16.854 123.359-44.18.001-.001.003-.002.004-.003 12.723-10.455 24.933-22.645 33.078-31.192l-.617-.29c-18.871-8.869-31.754-25.736-35.344-46.277-2.946-16.855.832-33.505 10.431-47.084l-7.073-27.774-21.816-1.116c-13.58 9.599-30.229 13.377-47.085 10.431-20.54-3.59-37.406-16.472-46.274-35.343l-.288-.612c-8.555 8.156-20.754 20.377-31.196 33.075-27.327 33.235-43.018 77.049-44.182 123.371-.727 30.01 5.514 46.777 9.826 57.1z" fill="#0496FF"/></g><path d="m508.778 89.483-86.261-86.261c-2.063-2.063-4.861-3.222-7.778-3.222s-5.715 1.159-7.778 3.222l-21.565 21.565c-7.838 7.838-12.154 18.259-12.154 29.344 0 7.314 1.891 14.334 5.422 20.52l-194.7 194.701c-2.062 2.063-3.222 4.861-3.222 7.778s1.159 5.715 3.222 7.778l43.131 43.13c2.148 2.148 4.963 3.222 7.778 3.222s5.63-1.074 7.778-3.222l194.7-194.701c6.185 3.531 13.205 5.421 20.518 5.421 11.085 0 21.506-4.317 29.344-12.155l21.565-21.564c2.062-2.063 3.222-4.861 3.222-7.778-.001-2.917-1.16-5.715-3.222-7.778zm-273.906 215.222-27.574-27.574 185.874-185.878 27.574 27.575zm236.784-193.657c-3.683 3.683-8.579 5.711-13.787 5.711-5.207 0-10.103-2.028-13.786-5.711l-43.131-43.13c-7.603-7.602-7.603-19.972 0-27.574l13.787-13.788 70.704 70.705z"/></g></svg>