<svg id="Capa_1" enable-background="new 0 0 512 512" height="512" viewBox="0 0 512 512" width="512" xmlns="http://www.w3.org/2000/svg" fill="#E6ECF2"><g id="Blueprint"><path d="m470.502 0h-30.498c-6.075 0-11 4.925-11 11v49.996h-387.506c-22.882 0-41.498 18.616-41.498 41.497v368.009c0 22.882 18.616 41.498 41.498 41.498h30.498c6.075 0 11-4.925 11-11v-19.498h387.506c22.882 0 41.498-18.616 41.498-41.498v-398.506c0-22.882-18.616-41.498-41.498-41.498zm-19.498 22h19.498c10.751 0 19.498 8.747 19.498 19.498s-8.747 19.498-19.498 19.498h-19.498zm-390.008 468h-19.498c-10.751 0-19.498-8.747-19.498-19.498v-331.383c5.816 3.109 12.455 4.873 19.498 4.873h19.498zm409.506-30.498h-387.506v-326.51c0-6.075-4.925-11-11-11h-30.498c-10.751 0-19.498-8.747-19.498-19.498s8.747-19.497 19.498-19.497h398.506 30.498c7.044 0 13.681-1.77 19.498-4.879v361.887c0 10.75-8.747 19.497-19.498 19.497z"/><path d="m440.004 121.992h-307.012c-6.075 0-11 4.925-11 11v276.515c0 6.075 4.925 11 11 11h60.996c6.075 0 11-4.925 11-11s-4.925-11-11-11h-49.996v-131.507h19.498c6.075 0 11-4.925 11-11s-4.925-11-11-11h-19.498v-101.008h101.008l.001 101.008h-20.516c-6.075 0-11 4.925-11 11s4.925 11 11 11h81.511v19.498c0 6.075 4.925 11 11 11s11-4.925 11-11v-30.498c0-6.075-4.925-11-11-11h-49.995l-.001-101.008h162.004v101.008h-51.012c-6.075 0-11 4.925-11 11s4.925 11 11 11h51.012v131.506h-101.008v-51.013c0-6.075-4.925-11-11-11s-11 4.925-11 11v51.013h-49.996c-6.075 0-11 4.925-11 11s4.925 11 11 11h184.004c6.075 0 11-4.925 11-11v-276.514c0-6.076-4.925-11-11-11z" fill="#0496FF"/></g></svg>