<svg id="Capa_1" enable-background="new 0 0 512 512" height="512" viewBox="0 0 512 512" width="512" xmlns="http://www.w3.org/2000/svg" fill="#E6ECF2"><g><path d="m36.081 260.394-15.598-15.514 93.399-93.908c11.105-11.108 29.145-11.108 40.23-.021 2.508 2.508 6.588 2.508 9.096 0l40.664-40.664c11.086-11.086 29.123-11.086 40.209 0l133.585 134.602-15.615 15.498-133.555-134.573c-1.186-1.186-2.801-1.854-4.519-1.854s-3.333.669-4.548 1.884l-40.664 40.664c-5.37 5.37-12.51 8.327-20.104 8.327-.002 0-.002 0-.004 0-7.593-.001-14.732-2.958-20.102-8.327-1.215-1.215-2.83-1.884-4.548-1.884-1.719 0-3.334.669-4.549 1.884z" fill="#0496FF"/><path d="m511.963 251.918c-.007-.102-.006-.205-.015-.307-.04-.434-.105-.862-.195-1.281-.012-.055-.03-.109-.043-.165-.085-.37-.189-.731-.31-1.086-.035-.102-.073-.203-.111-.304-.124-.33-.263-.652-.417-.966-.028-.057-.046-.117-.075-.174l-49.814-97.594c-1.88-3.682-5.664-5.999-9.798-5.999h-81.327c-6.075 0-11 4.925-11 11v86.594h-330.576c-5.031 0-9.421 3.413-10.66 8.288l-17.282 67.952c-.899 3.535.013 7.287 2.436 10.016l33.548 37.776c2.087 2.351 5.081 3.695 8.225 3.695h30.855c5.056 23.219 25.761 40.664 50.473 40.664 16.495 0 31.198-7.78 40.663-19.853 9.466 12.073 24.169 19.853 40.664 19.853 24.712 0 45.417-17.445 50.473-40.664h86.108c5.057 23.219 25.76 40.664 50.473 40.664 24.712 0 45.417-17.445 50.473-40.664h30.855c2.84 0 5.569-1.098 7.617-3.064l25.416-24.397c2.16-2.074 3.382-4.94 3.382-7.936v-81.328c-.001-.243-.022-.481-.038-.72zm-131.104-85.874h63.592l38.584 75.594h-102.176zm-254.983 221.983c-16.357 0-29.664-13.308-29.664-29.664s13.308-29.663 29.664-29.663 29.663 13.307 29.663 29.663c0 16.357-13.307 29.664-29.663 29.664zm81.327 0c-16.356 0-29.664-13.308-29.664-29.664s13.308-29.663 29.664-29.663c16.357 0 29.664 13.307 29.664 29.663 0 16.357-13.308 29.664-29.664 29.664zm187.054 0c-16.356 0-29.663-13.308-29.663-29.664s13.307-29.663 29.663-29.663c16.357 0 29.664 13.307 29.664 29.663 0 16.357-13.308 29.664-29.664 29.664zm95.743-58.75-18.84 18.086h-26.43c-5.056-23.219-25.761-40.663-50.473-40.663s-45.416 17.444-50.473 40.663h-86.108c-5.056-23.219-25.761-40.663-50.473-40.663-16.495 0-31.198 7.78-40.664 19.853-9.465-12.073-24.168-19.853-40.663-19.853-24.712 0-45.417 17.444-50.473 40.663h-25.913l-26.392-29.719 13.736-54.007h333.024 120.142z"/></g></svg>