<svg id="Capa_1" enable-background="new 0 0 511.999 511.999" viewBox="0 0 511.999 511.999" xmlns="http://www.w3.org/2000/svg" fill="#052438"><g><g><g><path d="m49.891 132.176c-2.815 0-5.63-1.074-7.778-3.222-4.295-4.296-4.295-11.261 0-15.557l31.333-31.334c4.296-4.295 11.261-4.295 15.557 0 4.295 4.296 4.295 11.261 0 15.557l-31.333 31.334c-2.149 2.148-4.964 3.222-7.779 3.222z" fill="#0496FF"/></g><g><path d="m85.246 167.531c-2.815 0-5.63-1.074-7.778-3.222-4.296-4.296-4.295-11.261 0-15.557l15.667-15.666c4.294-4.296 11.26-4.295 15.556 0 4.296 4.296 4.295 11.261 0 15.557l-15.667 15.666c-2.148 2.148-4.963 3.222-7.778 3.222z" fill="#0496FF"/></g><g><path d="m120.601 202.886c-2.815 0-5.63-1.074-7.778-3.222-4.295-4.296-4.295-11.261 0-15.557l31.333-31.334c4.296-4.295 11.261-4.295 15.557 0 4.295 4.296 4.295 11.261 0 15.557l-31.333 31.334c-2.149 2.148-4.964 3.222-7.779 3.222z" fill="#0496FF"/></g><g><path d="m155.957 238.242c-2.815 0-5.63-1.074-7.778-3.222-4.296-4.296-4.296-11.261 0-15.557l15.667-15.667c4.296-4.295 11.261-4.295 15.556 0 4.296 4.296 4.296 11.261 0 15.557l-15.667 15.667c-2.148 2.148-4.964 3.222-7.778 3.222z" fill="#0496FF"/></g><g><path d="m382.205 464.49c-2.815 0-5.63-1.073-7.778-3.222-4.295-4.296-4.295-11.261 0-15.557l31.333-31.333c4.296-4.296 11.26-4.297 15.557 0 4.295 4.296 4.295 11.261 0 15.557l-31.333 31.333c-2.149 2.148-4.964 3.222-7.779 3.222z" fill="#0496FF"/></g><g><path d="m346.85 429.134c-2.815 0-5.63-1.074-7.778-3.222-4.296-4.296-4.295-11.261 0-15.557l15.667-15.666c4.295-4.296 11.26-4.295 15.556 0 4.296 4.296 4.295 11.261 0 15.557l-15.667 15.666c-2.148 2.148-4.963 3.222-7.778 3.222z" fill="#0496FF"/></g><g><path d="m311.495 393.78c-2.815 0-5.63-1.074-7.778-3.222-4.296-4.296-4.296-11.261 0-15.557l31.333-31.334c4.296-4.295 11.261-4.295 15.556 0 4.296 4.296 4.296 11.261 0 15.557l-31.333 31.334c-2.148 2.148-4.963 3.222-7.778 3.222z" fill="#0496FF"/></g><g><path d="m276.139 358.424c-2.815 0-5.63-1.074-7.778-3.222-4.296-4.296-4.295-11.261 0-15.557l15.667-15.666c4.295-4.296 11.26-4.295 15.556 0 4.296 4.296 4.295 11.261 0 15.557l-15.667 15.666c-2.147 2.148-4.963 3.222-7.778 3.222z" fill="#0496FF"/></g></g><path d="m491.541 414.865-171.848-171.848 61.893-63.368c4.245-4.346 4.163-11.31-.183-15.555-4.347-4.245-11.311-4.161-15.555.183l-96.17 98.462-29.036-29.036 98.462-96.171c4.346-4.245 4.428-11.209.183-15.556-4.244-4.345-11.209-4.428-15.555-.183l-63.368 61.893-171.848-171.845c-4.296-4.295-11.261-4.295-15.557 0l-69.737 69.737c-2.063 2.063-3.222 4.861-3.222 7.778s1.159 5.715 3.222 7.778l170.843 170.844-159.597 155.883c-.031.03-.062.061-.092.091-8.661 8.661-13.431 20.212-13.431 32.526s4.77 23.866 13.432 32.527c8.967 8.967 20.747 13.451 32.526 13.451s23.559-4.484 32.526-13.451c.031-.03.061-.062.091-.092l155.882-159.597 170.843 170.843c2.148 2.147 4.963 3.222 7.778 3.222s5.63-1.074 7.778-3.222l69.738-69.737c2.062-2.063 3.222-4.861 3.222-7.778s-1.158-5.716-3.22-7.779zm-464.984-325.508 27.09-27.09c.006-.006.013-.013.019-.019l27.072-27.071 163.886 163.886-54.819 53.543zm37.274 384.134c-9.361 9.315-24.555 9.3-33.899-.043-4.505-4.506-6.987-10.532-6.987-16.97 0-6.418 2.467-12.428 6.947-16.929l195.01-190.472 29.402 29.402zm350.193 3.333-163.248-163.248 53.543-54.819 163.886 163.886z"/><g><path d="m430.287 239.534c-2.917 0-5.715-1.159-7.778-3.222l-35.357-35.357c-1.536-1.536-2.582-3.491-3.008-5.621l-2.098-10.486-10.486-2.098c-2.129-.426-4.085-1.473-5.621-3.008l-42.3-42.3c-2.946-2.946-3.975-7.304-2.657-11.257l15.528-46.584-37.619-37.619c-2.063-2.063-3.222-4.861-3.222-7.778 0-2.918 1.159-5.716 3.222-7.778 11.483-11.482 26.802-17.807 43.134-17.807s31.652 6.325 43.134 17.807l67.048 67.047c1.536 1.536 2.582 3.491 3.008 5.621l2.097 10.486 10.486 2.098c2.129.426 4.085 1.473 5.621 3.008l35.357 35.357c4.295 4.296 4.295 11.261 0 15.557l-70.712 70.713c-2.062 2.062-4.859 3.221-7.777 3.221zm-25.224-51.78 25.224 25.224 55.156-55.156-25.224-25.225-14.412-2.882c-4.354-.87-7.758-4.274-8.629-8.629l-2.882-14.412-64.693-64.691c-7.327-7.328-17.121-11.363-27.578-11.363-6.649 0-13.031 1.632-18.681 4.705l33.529 33.528c2.946 2.946 3.975 7.305 2.657 11.257l-15.528 46.584 35.137 35.138 14.412 2.882c4.354.87 7.758 4.274 8.629 8.629z" fill="#0496FF"/></g></g><g/><g/><g/><g/><g/><g/><g/><g/><g/><g/><g/><g/><g/><g/><g/></svg>