<svg id="Capa_1" enable-background="new 0 0 512 512" viewBox="0 0 512 512" xmlns="http://www.w3.org/2000/svg" fill="#E6ECF2"><g><g fill="#0496FF"><path d="m266.16 327.8c-3.155-8.033-14.647-9.155-19.31-1.9-4.897 7.114.521 17.231 9.151 17.109 7.632.156 13.248-8.21 10.159-15.209z"/><path d="m156 277.003h200.001v22h-200.001z"/><path d="m22.001 206.733v61.277h22v-61.277c0-43.468 16.927-84.333 47.664-115.069l-15.557-15.557c-34.891 34.891-54.107 81.282-54.107 130.626z"/><path d="m435.893 76.107-15.557 15.557c30.736 30.736 47.663 71.602 47.663 115.069v61.277h22v-61.277c0-49.344-19.215-95.734-54.106-130.626z"/><path d="m198.989 110.003h114.021l18.691 135.5 21.794-3.006-20-144.997c-.751-5.443-5.403-9.497-10.897-9.497h-133.196c-5.494 0-10.146 4.054-10.897 9.497l-20.001 144.998 21.794 3.006z"/></g><g><path d="m344.456 416.278v-29.268h11.544c6.075 0 11-4.925 11-11v-132.01c0-6.075-4.925-11-11-11h-200c-6.075 0-11 4.925-11 11v132.009c0 6.075 4.925 11 11 11h11.544v29.268l-59.857 78.027c-2.549 3.323-2.99 7.805-1.138 11.561s5.677 6.134 9.865 6.134h55.456c3.42 0 6.646-1.591 8.728-4.305l42.402-55.272v48.578c0 6.075 4.925 11 11 11h44c6.075 0 11-4.925 11-11v-48.578l42.402 55.273c2.082 2.714 5.307 4.305 8.728 4.305h55.456c4.188 0 8.013-2.378 9.865-6.134 1.853-3.756 1.412-8.238-1.138-11.561zm-177.456-161.278h178v110.009h-178zm155.456 132.009v22.001h-132.912v-22.001zm-156.011 102.991h-27.729l45.253-58.989h27.729zm78.555 0v-58.989h22v58.989zm100.555 0-45.253-58.989h27.728l45.253 58.989z"/><path d="m453.337 245.64c-4.354-13.137-16.755-22.64-31.334-22.64-18.196 0-33 14.804-33 33v172.013c0 18.196 14.804 33 33 33 14.579 0 26.979-9.503 31.334-22.64 33.094-4.563 58.663-33.031 58.663-67.358v-58.017c0-34.328-25.569-62.795-58.663-67.358zm-20.334 182.373c0 6.065-4.935 11-11 11s-11-4.935-11-11v-172.013c0-6.065 4.935-11 11-11s11 4.935 11 11zm56.997-56.998c0 21.573-14.928 39.724-34.997 44.667v-147.351c20.069 4.943 34.997 23.094 34.997 44.667z"/><path d="m122.997 428.013v-172.013c0-18.196-14.804-33-33-33-14.579 0-26.979 9.503-31.334 22.64-33.094 4.563-58.663 33.03-58.663 67.358v58.017c0 34.328 25.569 62.795 58.663 67.358 4.354 13.137 16.755 22.64 31.334 22.64 18.196 0 33-14.804 33-33zm-100.997-56.998v-58.017c0-21.573 14.928-39.724 34.997-44.667v147.351c-20.069-4.943-34.997-23.095-34.997-44.667zm78.997 56.998c0 6.065-4.935 11-11 11s-11-4.935-11-11v-172.013c0-6.065 4.935-11 11-11s11 4.935 11 11z"/><path d="m91.603 107.16c2.063 2.062 4.861 3.222 7.778 3.222s5.715-1.159 7.778-3.222c26.543-26.542 61.833-41.16 99.369-41.16h98.944c37.536 0 72.826 14.618 99.368 41.16 2.063 2.063 4.861 3.222 7.778 3.222s5.715-1.159 7.778-3.222l29.804-29.804c4.296-4.295 4.295-11.26 0-15.556-39.854-39.852-92.841-61.8-149.2-61.8h-90c-56.36 0-109.347 21.948-149.2 61.8-4.295 4.296-4.295 11.261 0 15.556zm119.397-85.16h90c46.798 0 91.003 16.896 125.645 47.8l-14.283 14.283c-29.614-25.928-67.163-40.083-106.89-40.083h-98.944c-39.727 0-77.275 14.155-106.889 40.083l-14.283-14.283c34.641-30.903 78.846-47.8 125.644-47.8z"/></g></g><g/><g/><g/><g/><g/><g/><g/><g/><g/><g/><g/><g/><g/><g/><g/></svg>