<svg id="Capa_1" enable-background="new 0 0 512 512" viewBox="0 0 512 512" xmlns="http://www.w3.org/2000/svg" fill="#E6ECF2"><g><g><path d="m471 39.68h-430c-22.607 0-41 18.393-41 41v350.64c0 22.607 18.393 41 41 41h430c22.607 0 41-18.393 41-41v-350.64c0-22.608-18.393-41-41-41zm19 391.64c0 10.477-8.523 19-19 19h-430c-10.477 0-19-8.523-19-19v-350.64c0-10.477 8.523-19 19-19h430c10.477 0 19 8.523 19 19z"/><path d="m154.41 103.298h-84.56c-6.075 0-11 4.925-11 11s4.925 11 11 11h84.561c6.075 0 11-4.925 11-11s-4.926-11-11.001-11z"/><path d="m442.151 103.298h-236.731c-6.075 0-11 4.925-11 11s4.925 11 11 11h236.731c6.075 0 11-4.925 11-11s-4.924-11-11-11z"/></g><path d="m422.776 157.519h-333.008c-17.048 0-30.918 13.87-30.918 30.918v196.206c0 17.049 13.87 30.919 30.918 30.919h333.009c17.049 0 30.919-13.87 30.919-30.919v-196.206c-.001-17.048-13.871-30.918-30.92-30.918zm8.919 118.021h-257.792v-37.011h257.792zm-279.792 0h-71.053v-37.011h71.054v37.011zm-71.053 22h71.054v37.011h-71.054zm93.053 0h257.792v37.011h-257.792zm257.792-109.103v28.093h-257.792v-37.011h248.873c4.918 0 8.919 4.001 8.919 8.918zm-350.845 0c0-4.917 4.001-8.918 8.918-8.918h62.136v37.011h-71.054zm0 196.206v-28.092h71.054v37.011h-62.136c-4.917 0-8.918-4.001-8.918-8.919zm350.845 0c0 4.918-4.001 8.919-8.919 8.919h-248.873v-37.011h257.792z" fill="#0496FF"/></g><g/><g/><g/><g/><g/><g/><g/><g/><g/><g/><g/><g/><g/><g/><g/></svg>