<svg id="Capa_1" enable-background="new 0 0 512 512" viewBox="0 0 512 512" xmlns="http://www.w3.org/2000/svg" fill="#052438"><g><path d="m419 375.511v38.364c0 15.991-13.01 29-29 29h-82.035v-9.262c0-3.223-1.413-6.283-3.866-8.373l-11.589-9.873c-2.454-2.091-5.7-3-8.881-2.487l-50.561 8.135c-5.332.858-9.252 5.46-9.252 10.86v44c0 5.4 3.92 10.002 9.252 10.86l50.561 8.135c.582.094 1.166.14 1.747.14 2.596 0 5.129-.919 7.134-2.627l11.589-9.873c2.453-2.09 3.866-5.151 3.866-8.374v-9.262h82.035c28.121 0 51-22.878 51-51v-38.364h-22zm-133.035 93.548-3.856 3.285-36.292-5.84v-25.257l36.292-5.84 3.856 3.285z" fill="#0496FF"/><path d="m503.438 240.153-35.657-8.104v-3.169c0-116.836-95.054-211.89-211.89-211.89s-211.891 95.053-211.891 211.889v3.219l-35.438 8.054c-5.008 1.139-8.562 5.592-8.562 10.727v102.632c0 5.136 3.554 9.588 8.562 10.727l35.438 8.054v3.219c0 6.075 4.925 11 11 11h54c6.075 0 11-4.925 11-11v-1h13c17.093 0 31-13.907 31-31v-82.632c0-17.093-13.907-31-31-31h-17.443l-5.489-5.488c2.382-78.375 66.881-141.402 145.822-141.402 78.966 0 143.48 63.064 145.824 141.473l-5.298 5.417h-17.416c-17.094 0-31 13.907-31 31v82.632c0 17.093 13.906 31 31 31h13v1c0 6.075 4.925 11 11 11h53.78c6.075 0 11-4.925 11-11v-3.169l35.657-8.104c5.009-1.138 8.562-5.591 8.562-10.727v-102.632c.001-5.135-3.553-9.588-8.561-10.726zm-481.438 104.578v-85.071l22-5v95.071zm120-83.852v82.632c0 4.962-4.038 9-9 9h-13v-100.632h13c4.962 0 9 4.038 9 9zm-54-32c0 2.917 1.159 5.715 3.222 7.778l6.778 6.779v121.076h-32v-135.633c0-50.931 20.16-97.239 52.913-131.375l15.549 15.549c-28.771 30.15-46.462 70.961-46.462 115.826zm62.675-130.726-15.636-15.636c32.857-27.177 74.98-43.528 120.851-43.528 45.848 0 87.952 16.334 120.802 43.487l-15.637 15.637c-28.8-23.207-65.385-37.123-105.165-37.123-39.803-.001-76.408 13.931-105.215 37.163zm228.325 254.358c-4.963 0-9-4.038-9-9v-82.632c0-4.962 4.037-9 9-9h13v100.632zm66.78 12h-31.78v-121.147l6.645-6.793c2.01-2.056 3.136-4.816 3.136-7.691 0-44.889-17.709-85.718-46.507-115.872l15.549-15.549c32.779 34.141 52.958 80.467 52.958 131.421v135.631zm44.22-19.78-22.22 5.05v-95.171l22.22 5.05z"/></g><g/><g/><g/><g/><g/><g/><g/><g/><g/><g/><g/><g/><g/><g/><g/></svg>