<svg id="Capa_1" enable-background="new 0 0 512 512" viewBox="0 0 512 512" xmlns="http://www.w3.org/2000/svg" fill="#052438"><g><g fill="#0496FF"><path d="m256 0c-22.035 0-39.962 17.927-39.962 39.962v25.039h22v-25.039c0-9.904 8.058-17.962 17.962-17.962s17.962 8.058 17.962 17.962v25.039h22v-25.039c0-22.035-17.927-39.962-39.962-39.962z"/><path d="m273.961 490h-35.924v-62.573h-22v73.573c0 6.075 4.925 11 11 11h57.924c6.075 0 11-4.925 11-11v-73.573h-22z"/><path d="m451.5 196.005c-6.075 0-11 4.925-11 11v78.417c0 6.075 4.925 11 11 11s11-4.925 11-11v-78.417c0-6.075-4.925-11-11-11z"/><path d="m58.35 296.64c-7.533 1.318-11.37 10.626-7 16.89 5.306 8.089 18.132 5.557 19.93-3.96 1.684-7.465-5.457-14.576-12.93-12.93z"/><path d="m60.5 174.005c-6.075 0-11 4.925-11 11v78.417c0 6.075 4.925 11 11 11s11-4.925 11-11v-78.417c0-6.075-4.925-11-11-11z"/></g><path d="m471 98.001h-92.317v-33c0-6.075-4.925-11-11-11h-223.366c-6.075 0-11 4.925-11 11v33h-92.317c-22.607 0-41 18.393-41 41v214.424c0 22.607 18.393 41 41 41h92.317v33c0 6.075 4.925 11 11 11h223.365c6.075 0 11-4.925 11-11v-33h92.318c22.607 0 41-18.393 41-41v-214.424c0-22.607-18.393-41-41-41zm-315.683-22h201.365v22h-201.365zm201.366 340.424h-201.366v-22h201.365v22zm-155.347-134.322c-1.642-7.301.202-14.753 5.06-20.446l.594-.696c3.647 7.294 8.84 13.684 15.136 18.714v14.369c-3.744.548-7.4 1.371-10.947 2.448-4.985-3.325-8.496-8.401-9.843-14.389zm54.664-61.969c10.408 4.542 21.566 7.399 32.879 8.428v8.167c0 8.863-3.475 17.173-9.782 23.4-6.307 6.226-14.664 9.61-23.537 9.476-17.887-.232-32.438-15.274-32.438-33.53v-7.512c11.312-1.03 22.47-3.886 32.878-8.429zm-32.876-13.685c.233-17.93 14.892-32.444 32.876-32.444s32.643 14.514 32.876 32.444c-9.706-1.116-19.226-3.928-27.957-8.293-1.548-.774-3.233-1.161-4.919-1.161s-3.371.387-4.919 1.161c-8.731 4.365-18.251 7.177-27.957 8.293zm21.002 83.841c3.599.812 7.328 1.263 11.148 1.313.246.003.489.005.734.005 4.039 0 8.012-.434 11.865-1.279v9.428l-11.873 11.874-11.874-11.874zm-15.442 25.138 19.538 19.538c2.148 2.148 4.963 3.222 7.778 3.222s5.63-1.074 7.778-3.222l19.538-19.538c27.517 2.266 49.216 25.385 49.216 53.477v3.521h-153.064v-3.521c0-28.093 21.699-51.212 49.216-53.477zm261.316 37.997c0 10.477-8.523 19-19 19h-116.468v-3.521c0-37.983-28.135-69.518-64.658-74.861v-14.128c1.623-1.279 3.185-2.655 4.678-4.129 10.528-10.393 16.327-24.264 16.327-39.057v-29.846c0-30.26-24.618-54.878-54.879-54.878s-54.879 24.618-54.879 54.878v27.056l-11.463 13.438c-9.396 11.013-12.962 25.429-9.786 39.552 1.694 7.533 5.158 14.319 10.025 19.913-19.591 13.687-32.429 36.403-32.429 62.062v3.521h-116.468c-10.477 0-19-8.523-19-19v-214.424c0-10.477 8.523-19 19-19h430c10.477 0 19 8.523 19 19z"/></g><g/><g/><g/><g/><g/><g/><g/><g/><g/><g/><g/><g/><g/><g/><g/></svg>