<svg id="Capa_1" enable-background="new 0 0 512 512" viewBox="0 0 512 512" xmlns="http://www.w3.org/2000/svg" fill="#E6ECF2"><g><g fill="#0496FF"><path d="m263.778 3.222c-4.297-4.296-11.26-4.296-15.557 0l-49.697 49.698c-3.146 3.146-4.087 7.877-2.385 11.988 1.703 4.11 5.714 6.791 10.163 6.791h16.698v49.004h22v-60.005c0-6.075-4.925-11-11-11h-1.142l23.142-23.142 23.142 23.142h-1.142c-6.075 0-11 4.925-11 11v60.004h22v-49.004h16.698c4.449 0 8.46-2.68 10.163-6.791 1.702-4.11.761-8.842-2.385-11.988z"/><path d="m500.999 116.287h-26.41c-6.075 0-11 4.925-11 11s4.925 11 11 11h26.41c6.075 0 11-4.925 11-11s-4.925-11-11-11z"/><path d="m469.972 99.448c2.269 0 4.559-.7 6.524-2.15l19.185-14.162c4.888-3.608 5.925-10.495 2.316-15.383-3.605-4.888-10.493-5.925-15.383-2.317l-19.184 14.162c-4.888 3.608-5.925 10.495-2.316 15.383 2.156 2.922 5.485 4.467 8.858 4.467z"/><path d="m495.681 171.439-19.185-14.162c-4.888-3.608-11.776-2.57-15.383 2.317-3.608 4.888-2.571 11.775 2.316 15.383l19.185 14.162c1.966 1.451 4.255 2.15 6.524 2.15 3.373 0 6.702-1.546 8.858-4.468 3.61-4.887 2.572-11.774-2.315-15.382z"/><path d="m48.411 127.287c0-6.075-4.925-11-11-11h-26.41c-6.075 0-11 4.925-11 11s4.925 11 11 11h26.41c6.075 0 11-4.924 11-11z"/><path d="m48.57 79.598-19.184-14.162c-4.888-3.608-11.776-2.57-15.383 2.317-3.608 4.888-2.571 11.775 2.316 15.383l19.185 14.162c1.966 1.451 4.255 2.15 6.524 2.15 3.373 0 6.702-1.546 8.858-4.468 3.609-4.887 2.572-11.774-2.316-15.382z"/><path d="m35.504 157.277-19.185 14.162c-4.888 3.608-5.925 10.495-2.316 15.383 2.156 2.922 5.485 4.468 8.858 4.468 2.269 0 4.559-.7 6.524-2.15l19.185-14.162c4.888-3.608 5.925-10.495 2.316-15.383-3.606-4.888-10.493-5.926-15.382-2.318z"/></g><g><path d="m501 259.997h-10.45c-25.261 0-45.812 20.551-45.812 45.812v27.688c-7.519-5.109-16.386-7.855-25.676-7.855-12.236 0-23.741 4.765-32.395 13.418l-52.696 52.696c-16.872 16.873-26.164 39.305-26.164 63.165v46.079c0 6.075 4.925 11 11 11h84.024c6.075 0 11-4.925 11-11v-29.97l75.062-75.061c14.901-14.901 23.107-34.713 23.107-55.786v-69.187c0-6.074-4.925-10.999-11-10.999zm-11 80.186c0 15.197-5.918 29.484-16.664 40.229l-78.283 78.283c-2.062 2.063-3.222 4.861-3.222 7.778v23.527h-62.024v-35.079c0-17.984 7.004-34.892 19.721-47.608l52.696-52.696c4.498-4.498 10.478-6.975 16.838-6.975 6.177 0 11.995 2.336 16.445 6.59l-39.99 39.989c-4.296 4.296-4.296 11.261 0 15.557 4.297 4.295 11.262 4.295 15.557 0l45.814-45.814c6.352-6.352 9.85-14.797 9.85-23.781v-34.374c0-12.947 10.385-23.513 23.263-23.806v58.18z"/><path d="m125.333 339.06c-8.653-8.653-20.158-13.418-32.395-13.418-9.29 0-18.157 2.746-25.676 7.855v-27.688c0-25.261-20.552-45.812-45.812-45.812h-10.45c-6.075 0-11 4.925-11 11v69.187c0 21.073 8.206 40.885 23.107 55.786l75.062 75.061v29.969c0 6.075 4.925 11 11 11h84.024c6.075 0 11-4.925 11-11v-46.079c0-23.86-9.292-46.292-26.164-63.165zm56.86 150.94h-62.024v-23.526c0-2.917-1.159-5.715-3.222-7.778l-78.283-78.283c-10.746-10.746-16.664-25.033-16.664-40.23v-58.18c12.878.293 23.263 10.859 23.263 23.806v34.374c0 8.984 3.498 17.429 9.85 23.781l45.814 45.814c4.297 4.296 11.26 4.296 15.557 0 4.296-4.296 4.296-11.261 0-15.557l-39.99-39.989c4.45-4.254 10.269-6.59 16.445-6.59 6.36 0 12.34 2.477 16.838 6.975l52.696 52.696c12.717 12.717 19.721 29.625 19.721 47.608v35.079z"/><path d="m110.272 130.332v167.627c0 6.075 4.925 11 11 11h269.457c6.075 0 11-4.925 11-11v-167.627l52.571-87.672c3.125-5.21 1.434-11.966-3.776-15.091-5.21-3.124-11.968-1.433-15.091 3.777l-50.934 84.94h-256.998l-50.934-84.94c-3.123-5.209-9.879-6.901-15.091-3.777-5.21 3.125-6.901 9.881-3.776 15.091zm22 7.955h247.457v148.671h-247.457z"/></g></g><g/><g/><g/><g/><g/><g/><g/><g/><g/><g/><g/><g/><g/><g/><g/></svg>