<svg id="Capa_1" enable-background="new 0 0 512 512" viewBox="0 0 512 512" xmlns="http://www.w3.org/2000/svg" fill="#052438"><g><g><path d="m331.937 183.323h136.44c6.286 0 12.342-2.645 16.615-7.256 4.253-4.589 6.42-10.792 5.945-17.016-3.102-40.677-20.685-79.071-49.511-108.11-28.81-29.022-67.045-46.89-107.663-50.31-6.248-.528-12.49 1.612-17.119 5.868-4.654 4.279-7.324 10.358-7.324 16.679v137.531c.002 12.469 10.147 22.614 22.617 22.614zm-.615-160.146c0-.071 0-.287.213-.482.135-.125.251-.145.329-.145.021 0 .04.001.055.003 35.417 2.982 68.762 18.568 93.895 43.886 25.146 25.332 40.484 58.816 43.188 94.284.005.07.017.215-.146.39-.194.21-.408.21-.479.21h-136.44c-.339 0-.615-.276-.615-.615z"/><path d="m487.759 225.214c-2.398-2.416-5.592-3.746-8.994-3.746h-207.147v-208.823c0-6.969-5.662-12.641-12.644-12.645-62.094 0-120.472 24.181-164.379 68.088s-68.088 102.285-68.089 164.379c0 36.727 8.25 71.826 24.522 104.321.444.887 1 1.677 1.629 2.384 5.539-4.213 12.116-7.292 18.73-10.478-.18-.594-.4-1.183-.687-1.757-14.727-29.41-22.194-61.195-22.194-94.471 0-112.914 89.378-205.345 201.112-210.261v208.601c0 6.981 5.68 12.662 12.662 12.662h206.881c-2.68 52.346-24.449 101.167-61.888 138.346-39.691 39.415-92.358 61.122-148.299 61.122-11.533 0-23.098-.93-34.373-2.767l-3.536 21.714c12.441 2.026 25.196 3.053 37.91 3.053 61.788 0 119.96-23.977 163.8-67.512 43.818-43.513 68.202-101.47 68.66-163.196.026-3.399-1.28-6.6-3.676-9.014z"/><path d="m207.284 133.333c6.075 0 11-4.925 11-11s-4.925-11-11-11h-47.843c-6.075 0-11 4.925-11 11s4.925 11 11 11z"/><path d="m218.284 161.651c0-6.075-4.925-11-11-11h-68.154c-6.075 0-11 4.925-11 11s4.925 11 11 11h68.154c6.075 0 11-4.924 11-11z"/><path d="m305.377 301.86c4.068 6.468 14.217 6.451 18.29 0 4.383-6.257.521-15.559-7-16.889-9.478-1.946-16.751 8.89-11.29 16.889z"/><path d="m348.497 301.871c4.091 6.442 14.201 6.444 18.29 0 5.445-8.001-1.807-18.872-11.29-16.89-7.497 1.247-11.393 10.708-7 16.89z"/><path d="m391.617 301.86c4.019 6.445 14.279 6.445 18.3 0 5.439-8.006-1.827-18.865-11.3-16.879-7.524 1.303-11.38 10.633-7 16.879z"/></g><g fill="#0496FF"><path d="m144.795 391.308c-6.875-2.43-14.45-5.344-18.506-8.525-.233-.183-.679-1.389-.347-3.15.164-.867.912-3.762 3.688-4.598 5.339-1.609 9.123.067 11.004 1.313l1.056.815c4.806 3.715 11.715 2.83 15.43-1.978 3.714-4.807 2.829-11.715-1.978-15.43 0 0-1.618-1.245-1.772-1.352-1.854-1.287-5.164-3.248-9.62-4.583v-.759c0-6.075-4.925-11-11-11s-11 4.925-11 11v1.43c-8.962 3.308-15.575 11.237-17.428 21.066-1.818 9.649 1.396 19.05 8.39 24.535 6.542 5.131 15.762 8.779 24.751 11.957 4.201 1.485 5.981 4.315 5.292 8.412-.531 3.159-3.251 8.518-10.079 8.563-7.145.038-8.85-.217-14.074-3.635-5.083-3.326-11.901-1.901-15.228 3.183-3.326 5.084-1.9 11.901 3.184 15.227 5.714 3.738 10.25 5.607 15.191 6.496v.877c0 6.075 4.925 11 11 11s11-4.925 11-11v-2.121c10.634-3.894 18.731-13.222 20.702-24.944 2.454-14.594-5.446-27.776-19.656-32.799z"/><path d="m130.447 292.236c-60.589 0-109.882 49.293-109.882 109.882s49.292 109.882 109.882 109.882c60.589 0 109.882-49.293 109.882-109.882s-49.294-109.882-109.882-109.882zm0 197.764c-48.458 0-87.882-39.424-87.882-87.882s39.424-87.882 87.882-87.882 87.882 39.424 87.882 87.882-39.424 87.882-87.882 87.882z"/></g></g><g/><g/><g/><g/><g/><g/><g/><g/><g/><g/><g/><g/><g/><g/><g/></svg>