<svg id="Capa_1" enable-background="new 0 0 512 512" viewBox="0 0 512 512" xmlns="http://www.w3.org/2000/svg" fill="#E6ECF2"><g><g fill="#0496FF"><path d="m55.546 119.044h-44.546c-6.075 0-11 4.925-11 11v89.091c0 6.075 4.925 11 11 11s11-4.925 11-11v-34.088h23.545c6.075 0 11-4.925 11-11s-4.925-11-11-11h-23.545v-22.003h33.546c6.075 0 11-4.925 11-11s-4.925-11-11-11z"/><path d="m122.637 119.044h-.546c-18.196 0-33 14.804-33 33v45.091c0 18.196 14.804 33 33 33h.546c18.196 0 33-14.804 33-33v-45.091c0-18.196-14.804-33-33-33zm11 78.091c0 6.065-4.935 11-11 11h-.546c-6.065 0-11-4.935-11-11v-45.091c0-6.065 4.935-11 11-11h.546c6.065 0 11 4.935 11 11z"/><path d="m233.728 208.135h-33.546v-78.091c0-6.075-4.925-11-11-11s-11 4.925-11 11v89.091c0 6.075 4.925 11 11 11h44.546c6.075 0 11-4.925 11-11s-4.925-11-11-11z"/><path d="m322.818 208.135h-33.546v-78.091c0-6.075-4.925-11-11-11s-11 4.925-11 11v89.091c0 6.075 4.925 11 11 11h44.546c6.075 0 11-4.925 11-11s-4.924-11-11-11z"/><path d="m389.909 119.044h-.546c-18.196 0-33 14.804-33 33v45.091c0 18.196 14.804 33 33 33h.546c18.196 0 33-14.804 33-33v-45.091c0-18.196-14.804-33-33-33zm11 78.091c0 6.065-4.935 11-11 11h-.546c-6.065 0-11-4.935-11-11v-45.091c0-6.065 4.935-11 11-11h.546c6.065 0 11 4.935 11 11z"/><path d="m501 119.044c-6.075 0-11 4.925-11 11v55.819l-2.44-3.287c-2.075-2.795-5.351-4.443-8.832-4.443s-6.757 1.648-8.832 4.443l-2.441 3.289v-55.821c0-6.075-4.925-11-11-11s-11 4.925-11 11v89.091c0 4.745 3.042 8.955 7.547 10.444 1.136.375 2.3.557 3.451.557 3.416 0 6.719-1.594 8.834-4.443l13.441-18.105 13.44 18.104c2.828 3.811 7.78 5.376 12.285 3.887s7.547-5.7 7.547-10.444v-89.091c0-6.075-4.925-11-11-11z"/><path d="m256 0c-6.075 0-11 4.925-11 11v26.411c0 6.075 4.925 11 11 11s11-4.925 11-11v-26.411c0-6.075-4.925-11-11-11z"/><path d="m208.311 48.57c2.156 2.922 5.485 4.468 8.858 4.468 2.269 0 4.559-.7 6.524-2.15 4.888-3.608 5.925-10.495 2.316-15.383l-14.16-19.185c-3.606-4.888-10.494-5.925-15.383-2.317-4.888 3.608-5.925 10.495-2.316 15.383z"/><path d="m288.307 50.887c1.967 1.451 4.255 2.15 6.524 2.15 3.373 0 6.702-1.546 8.858-4.468l14.161-19.184c3.608-4.888 2.571-11.775-2.316-15.383-4.89-3.608-11.775-2.57-15.383 2.317l-14.161 19.185c-3.608 4.888-2.571 11.775 2.317 15.383z"/></g><g><path d="m11 97.04h490c6.075 0 11-4.925 11-11s-4.925-11-11-11h-490c-6.075 0-11 4.925-11 11s4.925 11 11 11z"/><path d="m501 252.135h-219.539c-.791-.954-1.641-1.871-2.547-2.746-6.501-6.274-15.064-9.547-24.106-9.232-9.774.348-18.387 4.924-24.177 11.978h-219.631c-6.075 0-11 4.925-11 11s4.925 11 11 11h212v74.86l-16.568 9.724c-3.365 1.975-5.433 5.585-5.433 9.487v49.101c0 10.913 3.593 21.74 10.115 30.488l19.213 25.764v27.441c0 6.075 4.925 11 11 11h112.053c6.075 0 11-4.925 11-11v-26.843l13.384-14.747c8.534-9.403 13.234-21.576 13.234-34.275v-69.312c0-18.213-14.575-33.252-32.489-33.525-6.28-.102-12.305 1.56-17.515 4.697-5.066-3.047-10.916-4.702-16.995-4.702-6.081 0-11.932 1.655-17 4.705-5.347-3.217-11.6-4.887-17.999-4.689v-48.174h212c6.075 0 11-4.925 11-11s-4.925-11-11-11zm-211.001 92.158c3.302 0 6.402 1.466 8.505 4.022 2.089 2.54 5.206 4.012 8.495 4.012s6.406-1.472 8.495-4.012c2.103-2.556 5.203-4.022 8.505-4.022s6.401 1.466 8.503 4.021c2.089 2.541 5.206 4.013 8.495 4.013h.001c3.289 0 6.405-1.472 8.495-4.012 2.108-2.563 5.201-4.022 8.509-4.022.057 0 .114 0 .172.001 5.969.091 10.824 5.262 10.824 11.528v69.312c0 7.221-2.673 14.143-7.525 19.49l-16.238 17.892c-1.837 2.024-2.854 4.659-2.854 7.393v20.091h-90.053v-20.091c0-2.37-.766-4.676-2.182-6.576l-21.395-28.69c-3.709-4.974-5.752-11.131-5.752-17.336v-42.802l16.568-9.725c3.365-1.975 5.433-5.585 5.433-9.487v-81.63c0-6.145 4.75-11.312 10.589-11.52 3.01-.11 5.881.984 8.048 3.076 2.169 2.093 3.363 4.905 3.363 7.917v63.716c0 4.037 2.211 7.749 5.76 9.672 3.551 1.923 7.867 1.747 11.248-.457 1.778-1.161 3.85-1.774 5.991-1.774z"/></g></g><g/><g/><g/><g/><g/><g/><g/><g/><g/><g/><g/><g/><g/><g/><g/></svg>