<svg id="Capa_1" enable-background="new 0 0 512 512" viewBox="0 0 512 512" xmlns="http://www.w3.org/2000/svg" fill="#E6ECF2"><g><g fill="#0496FF"><path d="m218.944 106.585h-5.686c-1.379-4.062-3.034-8.056-4.931-11.902l4.021-4.021c7.963-7.964 7.963-20.921 0-28.885l-16.068-16.069c-3.858-3.858-8.987-5.982-14.443-5.982s-10.584 2.125-14.442 5.982l-4.021 4.021c-3.847-1.897-7.841-3.552-11.902-4.931v-5.686c0-11.262-9.162-20.424-20.424-20.424h-22.725c-11.262 0-20.425 9.162-20.425 20.424v5.686c-4.061 1.379-8.054 3.033-11.901 4.931l-4.021-4.021c-7.964-7.963-20.921-7.962-28.885 0l-16.071 16.069c-7.963 7.964-7.963 20.921 0 28.885l4.021 4.021c-1.898 3.848-3.553 7.842-4.931 11.902h-5.687c-11.261 0-20.423 9.162-20.423 20.424v22.726c0 11.262 9.162 20.424 20.424 20.424h5.686c1.378 4.06 3.033 8.054 4.931 11.902l-4.021 4.021c-3.858 3.858-5.982 8.987-5.982 14.443s2.125 10.584 5.982 14.442l16.069 16.07c7.965 7.963 20.922 7.962 28.885 0l4.021-4.021c3.846 1.897 7.84 3.552 11.901 4.931v5.686c0 11.262 9.163 20.425 20.425 20.425h22.725c11.262 0 20.424-9.163 20.424-20.425v-5.686c4.062-1.379 8.056-3.034 11.902-4.931l4.022 4.022c7.965 7.964 20.922 7.962 28.884 0l16.07-16.07c7.963-7.964 7.962-20.922 0-28.884l-4.021-4.022c1.897-3.847 3.552-7.84 4.931-11.902h5.686c11.262 0 20.425-9.162 20.425-20.424v-22.726c0-11.263-9.163-20.425-20.425-20.425zm-1.575 41.574h-5.252c-8.86 0-16.66 5.659-19.409 14.083-1.215 3.723-2.73 7.381-4.503 10.873-4.017 7.909-2.505 17.432 3.76 23.695l3.715 3.715-13.841 13.841-3.714-3.715c-6.266-6.265-15.788-7.777-23.696-3.76-3.491 1.773-7.149 3.288-10.873 4.503-8.423 2.75-14.083 10.549-14.083 19.409v5.252h-19.574v-5.252c0-8.86-5.659-16.66-14.083-19.409-3.723-1.215-7.381-2.73-10.872-4.503-7.908-4.017-17.43-2.505-23.696 3.76l-3.714 3.715-13.844-13.841 3.715-3.714c6.265-6.265 7.776-15.788 3.76-23.696-1.774-3.493-3.289-7.151-4.503-10.872-2.749-8.424-10.549-14.083-19.41-14.083h-5.252v-19.574h5.252c8.86 0 16.66-5.659 19.41-14.083 1.214-3.721 2.729-7.378 4.503-10.871 4.017-7.908 2.505-17.431-3.76-23.696l-3.715-3.715 13.841-13.841 3.714 3.715c6.266 6.265 15.787 7.775 23.696 3.76 3.493-1.774 7.151-3.289 10.871-4.503 8.424-2.749 14.083-10.549 14.083-19.41v-5.252h19.574v5.252c0 8.861 5.66 16.661 14.083 19.409 3.721 1.215 7.379 2.73 10.873 4.504 7.908 4.017 17.431 2.505 23.696-3.76l3.714-3.715 13.841 13.841-3.715 3.714c-6.265 6.266-7.776 15.788-3.76 23.696 1.772 3.491 3.288 7.149 4.503 10.873 2.75 8.423 10.549 14.083 19.409 14.083h5.252v19.572z"/><path d="m119.684 88.088c-27.727 0-50.284 22.557-50.284 50.284s22.557 50.284 50.284 50.284 50.284-22.557 50.284-50.284-22.557-50.284-50.284-50.284zm0 78.568c-15.596 0-28.284-12.688-28.284-28.284s12.688-28.284 28.284-28.284 28.284 12.688 28.284 28.284-12.688 28.284-28.284 28.284z"/></g><g><path d="m371.369 181.963c6.161 4.03 11.013 5.981 16.376 6.871v1.477c0 6.075 4.925 11 11 11s11-4.925 11-11v-2.651c12.266-4.26 20.102-15.257 21.927-26.112 2.544-15.134-5.649-28.803-20.389-34.013-7.329-2.59-15.409-5.701-19.777-9.126-.475-.372-.995-1.889-.604-3.963.19-1.009 1.066-4.377 4.352-5.367 5.927-1.786 10.131.097 12.216 1.483l1.136.878c4.807 3.714 11.715 2.829 15.43-1.978s2.829-11.715-1.978-15.43c0 0-1.695-1.304-1.849-1.411-1.992-1.382-5.595-3.514-10.463-4.901v-1.286c0-6.075-4.925-11-11-11s-11 4.925-11 11v1.976c-9.488 3.329-16.515 11.628-18.463 21.961-1.88 9.978 1.433 19.691 8.646 25.349 6.854 5.375 16.558 9.212 26.022 12.558 5.963 2.108 6.568 6.396 6.025 9.623-.772 4.595-4.639 9.562-11.304 9.605-7.627.05-9.615-.261-15.259-3.953-5.083-3.326-11.901-1.9-15.227 3.183-3.326 5.084-1.901 11.901 3.183 15.227z"/><path d="m396.307 254.064c63.793 0 115.693-51.899 115.693-115.692s-51.899-115.693-115.693-115.693c-63.793 0-115.692 51.899-115.692 115.692s51.899 115.693 115.692 115.693zm0-209.385c51.663 0 93.693 42.03 93.693 93.692s-42.03 93.692-93.693 93.692c-51.662 0-93.692-42.03-93.692-93.692s42.03-93.692 93.692-93.692z"/><path d="m497.675 293.338h-483.351c-7.898 0-14.324 6.425-14.324 14.324 0 34.413 27.997 62.41 62.41 62.41h140.311l-38.218 66.196c-6.874 11.907-6.874 26.124 0 38.03s19.186 19.015 32.935 19.015h111.484c13.749 0 26.061-7.108 32.935-19.015s6.874-26.123 0-38.03l-38.218-66.196h145.951c34.413 0 62.41-27.997 62.41-62.41 0-7.899-6.426-14.324-14.325-14.324zm-174.871 153.93c2.897 5.019 2.897 11.011 0 16.03s-8.087 8.015-13.882 8.015h-111.484c-5.795 0-10.984-2.996-13.882-8.015-2.897-5.019-2.897-11.011 0-16.03l44.569-77.196h50.11zm126.786-99.196h-387.18c-19.659 0-36.083-14.109-39.679-32.734h466.537c-3.595 18.625-20.019 32.734-39.678 32.734z"/></g></g><g/><g/><g/><g/><g/><g/><g/><g/><g/><g/><g/><g/><g/><g/><g/></svg>