<svg id="Capa_1" enable-background="new 0 0 512 512" viewBox="0 0 512 512" xmlns="http://www.w3.org/2000/svg" fill="#E6ECF2"><g><g><path d="m357.75 389.066-28.746 28.746c-1.229 1.229-2.862 1.905-4.6 1.905s-3.371-.677-4.6-1.906l-8.97-8.969c-8.742-8.744-22.033-10.85-33.073-5.244-6.919 3.513-14.166 6.515-21.54 8.922-11.755 3.837-19.652 14.722-19.652 27.085v12.682c0 3.587-2.918 6.505-6.505 6.505h-42.211c-3.587 0-6.506-2.918-6.506-6.505v-12.682c0-12.364-7.897-23.249-19.652-27.085-7.374-2.407-14.621-5.409-21.539-8.921-11.037-5.607-24.331-3.5-33.074 5.243l-8.969 8.969c-1.229 1.229-2.862 1.906-4.601 1.906-1.737 0-3.371-.677-4.6-1.906l-29.848-29.848c-1.229-1.229-1.906-2.862-1.906-4.6 0-1.737.677-3.371 1.906-4.6l8.969-8.969c8.743-8.743 10.85-22.034 5.244-33.074-3.015-5.936-5.652-12.114-7.861-18.405h47.489c18.64 35.498 55.585 58.059 96.053 58.059 39.964 0 76.572-21.879 95.539-57.1l-19.369-10.431c-15.124 28.084-44.311 45.53-76.17 45.53-32.839 0-62.76-18.645-77.351-47.826l-92.426 11.278c2.016.623 3.608 2.185 4.259 4.182 2.757 8.448 6.196 16.75 10.221 24.675 1.283 2.527.807 5.563-1.185 7.556l-8.968 8.969c-5.384 5.384-8.35 12.542-8.35 20.156s2.965 14.772 8.349 20.157l29.848 29.848c5.384 5.384 12.542 8.35 20.156 8.35s14.772-2.965 20.157-8.35l8.969-8.969c1.993-1.993 5.029-2.467 7.556-1.184 7.926 4.024 16.228 7.463 24.675 10.22 2.679.875 4.479 3.354 4.479 6.171v12.682c0 15.718 12.788 28.505 28.506 28.505h42.211c15.718 0 28.505-12.788 28.505-28.505v-12.682c0-2.817 1.8-5.297 4.479-6.171 8.447-2.757 16.749-6.195 24.676-10.22 2.528-1.283 5.563-.807 7.555 1.185l8.97 8.969c5.384 5.384 12.542 8.35 20.156 8.35s14.772-2.965 20.156-8.349l33.042-33.042z" fill="#0496FF"/></g><g><path d="m414.276 283.652c-5.026-1.776-11.03-4.046-14.931-6.453-1.388-.856-2.054-2.565-1.495-4.097.005-.015.011-.029.016-.044.349-.933 1.061-2.134 2.475-2.56 4.509-1.359 7.688.024 9.277 1.07l.652.504c4.793 3.704 11.802 3.131 15.592-1.593 3.862-4.813 3.011-11.836-1.851-15.592 0 0-1.507-1.158-1.66-1.265-1.657-1.15-4.546-2.872-8.417-4.122v-.015c0-4.725-2.967-9.05-7.48-10.454-7.572-2.356-14.52 3.237-14.52 10.454v.679c-8.206 3.27-14.234 10.656-15.949 19.76-1.729 9.179 1.345 18.135 8.022 23.372 6.099 4.784 14.629 8.161 22.938 11.098 1.253.443 5.068 1.792 4.245 6.683-.438 2.61-2.687 7.038-8.329 7.075-6.302.042-7.734-.162-12.154-3.031-5.034-3.268-11.915-2.124-15.313 2.823-3.507 5.104-2.114 12.066 3.041 15.438 5.073 3.32 9.153 5.063 13.499 5.946v.037c0 4.725 2.967 9.05 7.48 10.454 7.572 2.356 14.52-3.237 14.52-10.454v-1.307c9.747-3.806 17.128-12.484 18.952-23.334 2.323-13.828-5.154-26.315-18.61-31.072z"/><path d="m400.545 182.972c-7.42 0-14.671.735-21.689 2.125v-122.972c0-17.049-13.87-30.919-30.919-30.919h-29.597c-17.049 0-30.919 13.87-30.919 30.919v234.19h-32.746v-173.53c0-17.048-13.87-30.918-30.918-30.918h-29.597c-17.049 0-30.919 13.87-30.919 30.918v173.53h-32.745v-134.007c0-17.049-13.87-30.919-30.919-30.919h-29.598c-17.048 0-30.918 13.87-30.918 30.919v134.008h-28.061c-6.075 0-11 4.925-11 11s4.925 11 11 11h280.677c10.966 50.014 55.61 87.565 108.868 87.565 61.456 0 111.454-49.999 111.454-111.455s-49.998-111.454-111.454-111.454zm-82.205-129.766h29.597c4.918 0 8.919 4.001 8.919 8.919v129.771c-19.153 8.193-35.562 21.6-47.435 38.428v-168.199c0-4.918 4.001-8.919 8.919-8.919zm-133.099 69.58c0-4.917 4.001-8.918 8.919-8.918h29.598c4.917 0 8.918 4.001 8.918 8.918v173.53h-47.435zm-124.18 39.522c0-4.918 4.001-8.919 8.918-8.919h29.598c4.918 0 8.919 4.001 8.919 8.919v134.008h-47.435zm339.484 221.573c-49.325 0-89.454-40.129-89.454-89.455s40.129-89.455 89.454-89.455 89.455 40.13 89.455 89.455-40.129 89.455-89.455 89.455z"/></g></g><g/><g/><g/><g/><g/><g/><g/><g/><g/><g/><g/><g/><g/><g/><g/></svg>