<svg id="Capa_1" enable-background="new 0 0 512 512" viewBox="0 0 512 512" xmlns="http://www.w3.org/2000/svg" fill="#052438"><g><g fill="#0496FF"><path d="m382.667 54.053h-253.334c-11.618 0-21.07 9.452-21.07 21.07v33.053c0 11.618 9.452 21.069 21.07 21.069h253.333c11.618 0 21.07-9.452 21.07-21.069v-33.053c.001-11.618-9.451-21.07-21.069-21.07zm-.93 53.192h-251.474v-31.192h251.473v31.192z"/><path d="m338.366 382.703c-7.877-2.785-16.569-6.133-21.314-9.854-.78-.612-1.365-2.553-.914-4.946.223-1.18 1.251-5.121 5.157-6.297 6.822-2.057 11.623.261 13.876 1.824.923.641 4.049 2.929 4.06 2.936 4.904 3.585 11.787 2.516 15.372-2.389 3.585-4.904 2.516-11.787-2.388-15.372-.57-.417-3.465-2.531-4.499-3.249-2.156-1.496-6.118-3.828-11.482-5.272v-1.937c0-6.075-4.925-11-11-11s-11 4.925-11 11v2.636c-10.126 3.346-17.652 12.099-19.714 23.045-1.956 10.375 1.477 20.465 8.956 26.331 7.229 5.669 17.517 9.736 27.559 13.286 7.207 2.547 7.424 8.04 6.912 11.087-.874 5.198-5.248 10.816-12.786 10.866-8.323.06-10.497-.287-16.692-4.339-5.084-3.325-11.9-1.9-15.227 3.184-3.326 5.084-1.9 11.901 3.184 15.227 6.772 4.43 11.917 6.461 17.809 7.334v2.19c0 6.075 4.925 11 11 11s11-4.925 11-11v-3.363c13.1-4.327 21.477-15.963 23.408-27.451 2.651-15.784-5.899-30.041-21.277-35.477z"/></g><g><path d="m415.323 0h-318.646c-22.607 0-41 18.393-41 41v430c0 22.607 18.393 41 41 41h318.645c22.607 0 41-18.393 41-41v-430c.001-22.607-18.392-41-40.999-41zm19 471c0 10.477-8.523 19-19 19h-318.646c-10.477 0-19-8.523-19-19v-430c0-10.477 8.523-19 19-19h318.645c10.477 0 19 8.523 19 19v430z"/><path d="m372.737 165.258h-230.163c-17.093 0-31 13.907-31 31v164.722c0 17.093 13.907 31 31 31h76.39c17.093 0 31-13.907 31-31v-55.278h122.772c17.093 0 31-13.907 31-31v-78.445c.001-17.092-13.906-30.999-30.999-30.999zm9 31v28.223h-131.773v-37.223h122.772c4.963 0 9.001 4.037 9.001 9zm-153.773 164.722c0 4.962-4.038 9-9 9h-76.39c-4.962 0-9-4.038-9-9v-164.722c0-4.962 4.038-9 9-9h85.39zm153.773-86.277c0 4.962-4.038 9-9 9h-122.773v-37.223h131.772v28.223z"/><path d="m234.674 418.318h-107.81c-6.075 0-11 4.925-11 11s4.925 11 11 11h107.81c6.075 0 11-4.925 11-11s-4.925-11-11-11z"/><path d="m180.769 222.814c-6.075 0-11 4.925-11 11v89.61c0 6.075 4.925 11 11 11s11-4.925 11-11v-89.61c0-6.075-4.925-11-11-11z"/></g></g><g/><g/><g/><g/><g/><g/><g/><g/><g/><g/><g/><g/><g/><g/><g/></svg>