<svg id="Capa_1" enable-background="new 0 0 512 512" viewBox="0 0 512 512" xmlns="http://www.w3.org/2000/svg" fill="#E6ECF2"><g><g><path d="m459.001 0h-406.002c-6.075 0-11 4.925-11 11v176c0 6.075 4.925 11 11 11h167.332l27.891 27.891c2.062 2.062 4.861 3.222 7.778 3.222s5.716-1.159 7.778-3.222l27.892-27.891h167.331c6.075 0 11-4.925 11-11v-176c0-6.075-4.925-11-11-11zm-11 176h-160.888c-2.917 0-5.715 1.159-7.778 3.222l-23.335 23.335-23.334-23.335c-2.063-2.063-4.861-3.222-7.778-3.222h-160.889v-154h384.002z"/><path d="m459.001 435.999h-11.002v-143.883c0-22.607-18.393-41-41-41h-301.998c-22.607 0-41 18.393-41 41v143.883h-11.002c-6.075 0-11 4.925-11 11v24.001c0 22.607 18.393 41 41 41h346.002c22.607 0 41-18.393 41-41v-24.001c0-6.075-4.925-11-11-11zm-373-143.883c0-10.477 8.523-19 19-19h301.998c10.477 0 19 8.523 19 19v143.883h-22.003v-129.883c0-6.075-4.925-11-11-11h-273.992c-6.075 0-11 4.925-11 11v129.883h-22.003zm295.995 143.883h-83.995c-2.917 0-5.715 1.159-7.777 3.221l-6.778 6.777h-54.891l-6.778-6.777c-2.062-2.062-4.86-3.221-7.777-3.221h-83.995v-118.883h251.992v118.883zm66.005 35.001c0 10.477-8.523 19-19 19h-346.002c-10.477 0-19-8.523-19-19v-13.001h145.444l6.778 6.777c2.062 2.062 4.86 3.221 7.777 3.221h64.002c2.917 0 5.715-1.159 7.777-3.221l6.778-6.777h145.444v13.001z"/></g><g fill="#0496FF"><path d="m184.999 154h44.001c6.075 0 11-4.925 11-11s-4.925-11-11-11h-33.001v-77c0-6.075-4.925-11-11-11s-11 4.925-11 11v88c0 6.076 4.925 11 11 11z"/><path d="m118.999 44h-22c-6.075 0-11 4.925-11 11v88c0 6.075 4.925 11 11 11h22c18.196 0 33-14.804 33-33 0-8.444-3.188-16.158-8.424-22 5.235-5.843 8.424-13.556 8.424-22 0-18.196-14.804-33-33-33zm0 88h-11v-22h11c6.065 0 11 4.935 11 11s-4.935 11-11 11zm0-44h-11v-22h11c6.065 0 11 4.935 11 11 0 6.066-4.935 11-11 11z"/><path d="m295 154c18.196 0 33-14.804 33-33v-44c0-18.196-14.804-33-33-33s-33 14.804-33 33v44c0 18.197 14.804 33 33 33zm-11-77c0-6.065 4.935-11 11-11s11 4.935 11 11v44c0 6.065-4.935 11-11 11s-11-4.935-11-11z"/><path d="m415.001 88h-13.998c-6.075 0-11 4.925-11 11s4.925 11 11 11h2.998v6c0 8.823-7.178 16-16.001 16-8.822 0-16-7.178-16-16v-34c0-8.823 7.178-16 16-16 4.273 0 8.292 1.665 11.315 4.687 4.297 4.296 11.262 4.295 15.557-.001s4.294-11.261-.002-15.556c-7.178-7.177-16.721-11.13-26.87-11.13-20.953 0-38 17.047-38 38v34c0 20.954 17.047 38 38 38 20.954 0 38.001-17.047 38.001-38v-17c0-6.075-4.925-11-11-11z"/><path d="m348.993 343.558h-185.986c-6.075 0-11 4.925-11 11v44c0 6.075 4.925 11 11 11h185.986c6.075 0 11-4.925 11-11v-44c0-6.076-4.925-11-11-11zm-11 44h-163.986v-22h163.986z"/></g></g><g/><g/><g/><g/><g/><g/><g/><g/><g/><g/><g/><g/><g/><g/><g/></svg>