<svg id="Capa_1" enable-background="new 0 0 512 512" viewBox="0 0 512 512" xmlns="http://www.w3.org/2000/svg" fill="#E6ECF2"><g><g fill="#0496FF"><path d="m169.417 187.006h22v44h-22z"/><path d="m216.604 139.013c1.8 1.154 3.864 1.739 5.937 1.739 1.562 0 3.129-.333 4.592-1.005l66.92-30.749c3.904-1.794 6.407-5.698 6.407-9.995s-2.503-8.201-6.407-9.995l-66.92-30.749c-3.405-1.566-7.373-1.289-10.529.734-3.155 2.023-5.063 5.513-5.063 9.261v61.497c-.001 3.749 1.907 7.239 5.063 9.262zm16.936-53.598 29.574 13.588-29.574 13.588z"/><path d="m297.088 291.743-19.482-7.361-13.021-16.253c-2.088-2.606-5.246-4.123-8.585-4.123s-6.497 1.517-8.584 4.122l-13.021 16.253-19.481 7.361c-3.124 1.181-5.542 3.715-6.573 6.891-1.032 3.175-.565 6.647 1.268 9.438l11.434 17.406.981 20.803c.157 3.335 1.821 6.419 4.522 8.381s6.146 2.592 9.368 1.71l20.086-5.493 20.087 5.496c.957.262 1.933.39 2.902.39 2.299 0 4.567-.721 6.467-2.101 2.701-1.962 4.364-5.046 4.521-8.381l.981-20.803 11.435-17.406c1.833-2.791 2.299-6.263 1.268-9.438-1.032-3.177-3.45-5.712-6.573-6.892zm-26.169 24.173c-1.081 1.646-1.7 3.553-1.793 5.521l-.477 10.094-9.746-2.667c-.95-.26-1.927-.39-2.903-.39s-1.953.13-2.903.39l-9.747 2.667-.476-10.094c-.093-1.968-.712-3.875-1.794-5.521l-5.548-8.446 9.453-3.572c1.843-.696 3.465-1.875 4.696-3.412l6.319-7.886 6.317 7.886c1.231 1.538 2.854 2.716 4.696 3.413l9.453 3.572z"/><path d="m422.062 298.634c-1.032-3.175-3.45-5.71-6.573-6.891l-19.482-7.361-13.021-16.253c-2.088-2.606-5.246-4.123-8.585-4.123s-6.497 1.517-8.585 4.123l-13.021 16.253-19.482 7.361c-3.123 1.18-5.541 3.715-6.573 6.891-1.031 3.176-.565 6.648 1.268 9.438l11.435 17.406.981 20.803c.157 3.335 1.82 6.419 4.521 8.381 2.7 1.962 6.146 2.593 9.369 1.71l20.087-5.496 20.087 5.496c.957.262 1.933.39 2.902.39 2.299 0 4.567-.721 6.467-2.101 2.701-1.962 4.364-5.046 4.521-8.381l.981-20.803 11.435-17.406c1.834-2.789 2.3-6.261 1.268-9.437zm-32.742 17.282c-1.081 1.646-1.7 3.553-1.793 5.521l-.477 10.094-9.746-2.667c-.95-.26-1.927-.39-2.903-.39s-1.953.13-2.903.39l-9.746 2.667-.477-10.094c-.093-1.968-.712-3.875-1.793-5.521l-5.548-8.446 9.453-3.572c1.843-.696 3.465-1.875 4.696-3.413l6.317-7.886 6.317 7.886c1.231 1.538 2.854 2.716 4.696 3.413l9.453 3.572z"/><path d="m178.686 291.743-19.481-7.361-13.021-16.253c-2.087-2.605-5.246-4.122-8.584-4.122-3.339 0-6.497 1.517-8.584 4.122l-13.021 16.253-19.481 7.361c-3.124 1.181-5.542 3.715-6.574 6.891-1.032 3.175-.565 6.647 1.268 9.438l11.434 17.406.981 20.803c.157 3.335 1.821 6.418 4.522 8.381 1.9 1.38 4.167 2.101 6.466 2.101.97 0 1.946-.128 2.902-.39l20.087-5.496 20.088 5.496c3.221.881 6.667.251 9.369-1.71 2.701-1.963 4.365-5.046 4.522-8.381l.981-20.803 11.434-17.406c1.833-2.791 2.299-6.263 1.268-9.438-1.034-3.177-3.452-5.711-6.576-6.892zm-26.168 24.173c-1.082 1.646-1.701 3.553-1.794 5.521l-.476 10.094-9.747-2.667c-.95-.26-1.926-.39-2.903-.39s-1.953.13-2.903.39l-9.746 2.667-.476-10.094c-.093-1.968-.712-3.875-1.794-5.521l-5.548-8.445 9.452-3.572c1.843-.696 3.465-1.875 4.696-3.412l6.318-7.886 6.318 7.886c1.231 1.537 2.854 2.716 4.696 3.412l9.453 3.572z"/></g><path d="m471 70.755h-63.682v-59.755c0-6.075-4.925-11-11-11h-280.636c-6.075 0-11 4.925-11 11v59.755h-63.682c-22.607 0-41 18.393-41 41v292.008c0 22.607 18.393 41 41 41h151.842c-2.942 15.8-12.16 29.851-25.885 38.874l-9.678 6.363h-49.408c-6.075 0-11 4.925-11 11s4.925 11 11 11h296.258c6.075 0 11-4.925 11-11s-4.925-11-11-11h-49.407l-9.678-6.363c-13.726-9.023-22.943-23.073-25.886-38.873h151.842c22.607 0 41-18.393 41-41v-292.009c0-22.607-18.393-41-41-41zm-344.318 127.251h258.636v22h-258.636zm0-176.006h258.636v154.006h-258.636zm-85.682 70.755h63.682v138.251c0 6.075 4.925 11 11 11h280.636c6.075 0 11-4.925 11-11v-138.251h63.682c10.477 0 19 8.523 19 19v267.008h-468v-267.008c0-10.476 8.523-19 19-19zm277.562 397.245h-125.124c11.772-12.377 19.381-28.164 21.681-45.236h81.762c2.3 17.072 9.91 32.858 21.681 45.236zm152.438-67.236h-430c-10.477 0-19-8.523-19-19v-3h468v3c0 10.476-8.523 19-19 19z"/></g><g/><g/><g/><g/><g/><g/><g/><g/><g/><g/><g/><g/><g/><g/><g/></svg>