<svg id="Capa_1" enable-background="new 0 0 512 512" viewBox="0 0 512 512" xmlns="http://www.w3.org/2000/svg" fill="#052438"><g><g><path d="m158.232 324.508c0 3.353.83 6.511 2.275 9.302-1.445 2.788-2.275 5.943-2.275 9.294v29.506c0 11.182 9.097 20.279 20.278 20.279h62.944c11.182 0 20.279-9.097 20.279-20.279v-29.506c0-3.35-.83-6.506-2.275-9.293 1.445-2.791 2.275-5.949 2.275-9.302v-29.43c0-11.203-9.114-20.317-20.317-20.317h-62.868c-11.202 0-20.316 9.114-20.316 20.317zm81.502 46.38h-59.502v-26.064h59.502zm-59.502-74.127h59.502v26.064h-59.502z"/><path d="m427.611 51.095h-75.643v-4.394c0-11.917-9.695-21.612-21.612-21.612h-17.117c-4.096-14.462-17.418-25.089-33.175-25.089h-49.22c-15.757 0-29.079 10.627-33.175 25.09h-16.026c-11.917 0-21.611 9.695-21.611 21.612v4.394h-75.643c-17.049 0-30.919 13.87-30.919 30.919v399.067c0 17.048 13.87 30.918 30.919 30.918h343.222c17.049 0 30.919-13.87 30.919-30.919v-399.067c0-17.048-13.87-30.919-30.919-30.919zm-245.579-4.005h23.723c6.958 0 12.618-5.661 12.618-12.618 0-6.877 5.595-12.472 12.472-12.472h49.22c6.877 0 12.472 5.595 12.472 12.472 0 6.958 5.66 12.618 12.618 12.618h24.814v32.396h-147.937zm-.389 54.396h148.713c11.917 0 21.612-9.695 21.612-21.612v-6.779h31.768v354.419c0 4.918-4.001 8.919-8.919 8.919h-237.635c-4.917 0-8.918-4.001-8.918-8.919v-354.419h31.768v6.779c0 11.917 9.694 21.612 21.611 21.612zm254.887 379.595c0 4.918-4.001 8.919-8.919 8.919h-343.222c-4.918 0-8.919-4.001-8.919-8.919v-399.067c0-4.918 4.001-8.919 8.919-8.919h21.875v354.419c0 17.049 13.87 30.919 30.918 30.919h237.635c17.049 0 30.919-13.87 30.919-30.919v-354.419h21.875c4.918 0 8.919 4.001 8.919 8.919z"/><path d="m292.535 377.64c6.213 4.064 11.103 6.023 16.516 6.913v1.548c0 6.075 4.925 11 11 11s11-4.925 11-11v-2.72c12.346-4.267 20.235-15.325 22.07-26.241 2.555-15.197-5.673-28.923-20.475-34.155-7.383-2.61-15.523-5.743-19.928-9.197-.491-.385-1.032-1.942-.634-4.059.193-1.026 1.084-4.45 4.432-5.458 5.932-1.787 10.164.062 12.294 1.461l2.619 2.094c4.745 3.793 11.667 3.022 15.461-1.723s3.022-11.667-1.723-15.461l-2.957-2.364c-.194-.155-.394-.304-.598-.445-2.008-1.394-5.645-3.545-10.562-4.938v-1.348c0-6.075-4.925-11-11-11s-11 4.925-11 11v2.04c-9.55 3.331-16.626 11.674-18.585 22.067-1.888 10.016 1.438 19.766 8.676 25.443 6.889 5.404 16.65 9.263 26.173 12.629 6.049 2.138 6.662 6.491 6.111 9.765-.782 4.654-4.698 9.683-11.448 9.728-7.68.05-9.7-.263-15.399-3.991-5.085-3.326-11.902-1.899-15.227 3.184-3.326 5.085-1.9 11.902 3.184 15.228z"/></g><path d="m342.768 211.077h-7.982v-20.865c0-6.075-4.925-11-11-11s-11 4.925-11 11v20.865h-23.19v-61.421c0-6.075-4.925-11-11-11s-11 4.925-11 11v61.421h-23.19v-83.437c0-6.075-4.925-11-11-11s-11 4.925-11 11v83.437h-23.19v-29.555c0-6.075-4.925-11-11-11s-11 4.925-11 11v29.555h-7.982c-6.075 0-11 4.925-11 11s4.925 11 11 11h173.536c6.075 0 11-4.925 11-11s-4.927-11-11.002-11z" fill="#0496FF"/></g><g/><g/><g/><g/><g/><g/><g/><g/><g/><g/><g/><g/><g/><g/><g/></svg>