<svg id="Capa_1" enable-background="new 0 0 512 512" viewBox="0 0 512 512" xmlns="http://www.w3.org/2000/svg" fill="#052438"><g><path d="m511.99 355.139c-.204-4.746-3.432-8.826-8.004-10.116l-103.148-29.097c31.428-21.357 51.163-57.322 51.163-96.497 0-64.27-52.287-116.557-116.556-116.557h-218.889c-64.269 0-116.556 52.287-116.556 116.557s52.287 116.557 116.556 116.557h212.081l40.569 143.817c1.29 4.572 5.369 7.8 10.116 8.003.158.007.316.01.474.01 4.56 0 8.669-2.822 10.289-7.119l31.438-83.359 83.358-31.436c4.446-1.675 7.312-6.016 7.109-10.763zm-395.434-41.153c-52.138 0-94.556-42.418-94.556-94.557s42.418-94.557 94.556-94.557h218.889c52.138 0 94.556 42.418 94.556 94.557 0 38.773-23.824 73.671-59.633 87.902l-35.213-9.933c-3.831-1.08-7.948-.006-10.765 2.809-2.815 2.815-3.89 6.933-2.809 10.765l.851 3.015h-205.876zm292.548 64.524c-2.959 1.116-5.295 3.452-6.41 6.411l-21.393 56.724-33.214-117.741 117.741 33.214z"/><g fill="#0496FF"><path d="m94 186.429h22c6.075 0 11-4.925 11-11s-4.925-11-11-11h-22c-18.196 0-33 14.804-33 33s14.804 33 33 33c6.065 0 11 4.935 11 11s-4.935 11-11 11h-22c-6.075 0-11 4.925-11 11s4.925 11 11 11h22c18.196 0 33-14.804 33-33s-14.804-33-33-33c-6.065 0-11-4.935-11-11s4.935-11 11-11z"/><path d="m358.001 208.429c-6.065 0-11-4.935-11-11s4.935-11 11-11h22c6.075 0 11-4.925 11-11s-4.925-11-11-11h-22c-18.196 0-33 14.804-33 33s14.804 33 33 33c6.065 0 11 4.935 11 11s-4.935 11-11 11h-22c-6.075 0-11 4.925-11 11s4.925 11 11 11h22c18.196 0 33-14.804 33-33s-14.804-33-33-33z"/><path d="m204 164.429c-6.075 0-11 4.925-11 11v66c0 6.065-4.935 11-11 11s-11-4.935-11-11v-66c0-6.075-4.925-11-11-11s-11 4.925-11 11v66c0 18.196 14.804 33 33 33s33-14.804 33-33v-66c0-6.075-4.924-11-11-11z"/><path d="m270.001 164.429h-22c-6.075 0-11 4.925-11 11v88c0 6.075 4.924 11 10.999 11l21.999.001h.003c8.814 0 17.102-3.433 23.334-9.665 6.233-6.233 9.666-14.521 9.666-23.336 0-8.444-3.188-16.157-8.424-22 5.236-5.843 8.424-13.556 8.424-22-.001-18.196-14.805-33-33.001-33zm7.778 84.78c-2.078 2.078-4.84 3.222-7.778 3.222-.001 0-.001 0-.001 0h-11v-22.001h11.001c6.065 0 11 4.935 11 11.001 0 2.938-1.145 5.7-3.222 7.778zm-7.778-40.78h-11.001v-22h11.001c6.065 0 11 4.935 11 11s-4.935 11-11 11z"/><path d="m237 35.184c0-6.075-4.925-11-11-11s-11 4.925-11 11v26.411c0 6.075 4.925 11 11 11s11-4.925 11-11z"/><path d="m178.311 72.753c2.157 2.922 5.486 4.468 8.859 4.468 2.269 0 4.559-.7 6.524-2.15 4.887-3.608 5.925-10.496 2.317-15.383l-14.162-19.184c-3.608-4.887-10.495-5.923-15.383-2.317-4.888 3.608-5.925 10.496-2.317 15.383z"/><path d="m258.308 75.07c1.967 1.451 4.255 2.15 6.524 2.15 3.373 0 6.702-1.546 8.858-4.468l14.161-19.184c3.608-4.888 2.571-11.775-2.316-15.383-4.891-3.608-11.775-2.57-15.383 2.317l-14.162 19.184c-3.607 4.889-2.57 11.777 2.318 15.384z"/></g></g><g/><g/><g/><g/><g/><g/><g/><g/><g/><g/><g/><g/><g/><g/><g/></svg>