<svg id="Capa_1" enable-background="new 0 0 512.15 512.15" viewBox="0 0 512.15 512.15" xmlns="http://www.w3.org/2000/svg" fill="#E6ECF2"><g><path d="m431.19 219.757h-15.729v-34.114c0-6.075-4.925-11-11-11s-11 4.925-11 11v34.114h-23.359v-94.052c0-6.075-4.925-11-11-11s-11 4.925-11 11v94.052h-23.359v-69.562c0-6.075-4.925-11-11-11s-11 4.925-11 11v69.562h-23.359v-24.447c0-6.075-4.925-11-11-11s-11 4.925-11 11v24.447h-15.73c-6.075 0-11 4.925-11 11s4.925 11 11 11h189.536c6.075 0 11-4.925 11-11s-4.924-11-11-11z" fill="#0496FF"/><g><path d="m487.055 290.449c-.285-1.062-.112-2.203.486-3.211 40.995-69.04 29.93-156.957-26.91-213.798-33.002-33.003-77.076-51.154-124.17-51.154-.21 0-.423 0-.634.001-47.342.164-91.55 18.643-124.48 52.032-30.145 30.565-47.745 70.259-50.249 112.763-43.646-2.718-85.785 13.03-116.622 43.867-49.068 49.068-58.621 124.964-23.23 184.563.289.486.376 1.022.246 1.508l-8.098 30.221c-2.233 8.334.076 16.953 6.177 23.055s14.718 8.412 23.055 6.178l30.223-8.098c.485-.132 1.016-.043 1.501.244 24.057 14.285 50.756 21.248 77.286 21.246 39.2-.003 78.018-15.212 107.281-44.476 20.994-20.995 35.112-47.078 41.147-75.85 11.973 2.536 24.184 3.829 36.432 3.829 30.724 0 61.669-8.068 89.527-24.611 1.005-.597 2.144-.768 3.205-.485l35.382 9.48c9.104 2.438 18.514-.083 25.177-6.745 6.664-6.663 9.187-16.075 6.748-25.18zm-243.695 139.383c-41.951 41.951-106.83 50.123-157.776 19.871-5.543-3.293-12.261-4.231-18.432-2.579l-30.221 8.098c-.693.182-1.299.021-1.805-.484-.506-.506-.669-1.113-.484-1.805l8.098-30.221c1.653-6.169.712-12.887-2.58-18.433-30.25-50.944-22.079-115.823 19.872-157.774 26.671-26.671 63.271-40.12 101.125-37.367 2.737 42.591 20.629 82.273 51.064 112.709 19.275 19.274 42.121 33.277 66.59 41.779-4.991 25.131-17.168 47.924-35.451 66.206zm230.871-94.381c-.62.62-1.951 1.583-3.927 1.052l-35.384-9.481c-6.74-1.802-14.076-.776-20.131 2.82-24.37 14.471-51.419 21.524-78.297 21.523-39.723-.003-79.059-15.417-108.716-45.074-28.888-28.887-44.869-67.293-45.003-108.144-.133-40.831 15.577-79.321 44.236-108.379 28.784-29.187 67.456-45.338 108.893-45.481.187-.001.368-.001.556-.001 41.215 0 79.771 15.866 108.615 44.711 49.723 49.723 59.406 126.624 23.551 187.009-3.598 6.058-4.626 13.396-2.821 20.136l9.481 35.381c.529 1.973-.432 3.308-1.053 3.928z"/><path d="m155.12 329.605c-6.788-2.399-14.267-5.275-18.261-8.408-.172-.156-.672-1.365-.246-3.242.179-.791.962-3.434 3.508-4.201 5.231-1.575 8.929.062 10.771 1.28l1.04.804c4.807 3.714 11.715 2.832 15.43-1.977 3.716-4.807 2.83-11.715-1.977-15.43 0 0-1.604-1.233-1.758-1.341-1.828-1.269-5.081-3.198-9.458-4.522v-.657c0-6.075-4.925-11-11-11s-11 4.925-11 11v1.325c-8.861 3.303-15.394 11.163-17.229 20.895-1.806 9.585 1.39 18.926 8.341 24.377 6.479 5.083 15.607 8.694 24.506 11.84 4.088 1.445 5.821 4.197 5.151 8.18-.519 3.085-3.175 8.317-9.843 8.361-7.054.046-8.711-.214-13.845-3.572-5.084-3.325-11.901-1.9-15.228 3.183-3.326 5.084-1.9 11.901 3.183 15.228 5.628 3.681 10.103 5.533 14.963 6.421v.764c0 6.075 4.925 11 11 11s11-4.925 11-11v-2.009c10.514-3.882 18.514-13.125 20.465-24.728 2.439-14.495-5.404-27.584-19.513-32.571z"/></g></g><g/><g/><g/><g/><g/><g/><g/><g/><g/><g/><g/><g/><g/><g/><g/></svg>