<svg id="Capa_1" enable-background="new 0 0 512 512" viewBox="0 0 512 512" xmlns="http://www.w3.org/2000/svg" fill="#E6ECF2"><g><path d="m329.082 271.854-116.977-53.749c-3.408-1.565-7.374-1.287-10.529.735-3.155 2.023-5.063 5.513-5.063 9.261v107.498c0 3.748 1.908 7.238 5.063 9.261 1.8 1.154 3.864 1.739 5.938 1.739 1.562 0 3.129-.333 4.592-1.005l116.977-53.749c3.904-1.794 6.407-5.698 6.407-9.995s-2.504-8.201-6.408-9.996zm-110.569 46.585v-73.178l79.631 36.589z" fill="#0496FF"/><path d="m477.947 233.764 30.824-30.775c4.3-4.292 4.306-11.257.013-15.557-4.293-4.299-11.259-4.305-15.556-.013l-30.652 30.603c-20.926-19.964-44.34-36.704-69.531-49.825l17.509-38.063c2.539-5.519.123-12.051-5.396-14.59-5.521-2.539-12.052-.122-14.59 5.397l-17.396 37.817c-33.286-14.335-69.171-22.6-106.172-23.971v-40.902c0-6.075-4.925-11-11-11s-11 4.925-11 11v40.903c-36.623 1.357-72.152 9.467-105.15 23.533l-17.252-37.869c-2.518-5.527-9.038-7.969-14.57-5.45-5.528 2.519-7.968 9.042-5.449 14.571l17.364 38.114c-25.566 13.196-49.319 30.112-70.518 50.336l-30.653-30.603c-4.298-4.292-11.262-4.287-15.556.013-4.293 4.299-4.287 11.264.013 15.557l30.824 30.775c-11.783 12.95-22.604 27.026-32.31 42.143-2.324 3.621-2.324 8.265 0 11.886 56.813 88.49 151.862 141.321 254.257 141.321s197.444-52.831 254.257-141.323c2.324-3.621 2.324-8.265 0-11.886-9.705-15.116-20.527-29.192-32.31-42.142zm-96.681 48.086c0 69.072-56.194 125.266-125.266 125.266s-125.266-56.194-125.266-125.266 56.195-125.266 125.266-125.266 125.266 56.194 125.266 125.266zm-357.094 0c32.576-48.18 77.565-84.372 128.836-105.163-27.306 26.747-44.273 64.011-44.273 105.163s16.967 78.416 44.273 105.163c-51.271-20.791-96.26-56.983-128.836-105.163zm334.82 105.163c27.306-26.747 44.273-64.011 44.273-105.163s-16.967-78.416-44.273-105.163c51.27 20.791 96.26 56.983 128.836 105.163-32.576 48.18-77.565 84.372-128.836 105.163z"/></g><g/><g/><g/><g/><g/><g/><g/><g/><g/><g/><g/><g/><g/><g/><g/></svg>