<svg id="Capa_1" enable-background="new 0 0 511.998 511.998" viewBox="0 0 511.998 511.998" xmlns="http://www.w3.org/2000/svg" fill="#E6ECF2"><g><g><path d="m511.947 334.366c-4.113-61.361-30.27-119.282-73.649-163.094-40.031-40.428-93.005-66.684-149.162-73.931l-2.816 21.819c47.718 6.158 92.921 27.348 128.455 60.002l-84.627 84.627c-17.209-15.155-39.076-25.137-63.148-27.488v-97.625h-22v97.625c-24.072 2.351-45.938 12.332-63.147 27.487l-84.627-84.626c35.53-32.652 80.73-53.842 128.444-60.001l-2.816-21.819c-56.154 7.25-109.124 33.505-149.151 73.93-43.383 43.813-69.539 101.734-73.651 163.094-.429 6.392 1.831 12.737 6.199 17.408 4.35 4.651 10.496 7.318 16.863 7.318 0 0 120.77-.026 121.089-.075 5.511 56.83 53.543 101.404 111.795 101.404 58.241 0 106.268-44.557 111.793-101.373.341.016.679.045 1.023.045h120.069c6.367 0 12.513-2.667 16.862-7.317 4.37-4.672 6.63-11.016 6.202-17.41zm-488.833 2.726c-.117 0-.472 0-.795-.345-.233-.25-.34-.556-.316-.91 3.512-52.408 24.627-102.073 59.741-141.042l85.079 85.079c-12.186 15.893-20.227 35.12-22.491 56.056-.013.031-.029.051-.036.099-.086.616-.553 1.062-1.111 1.062h-120.071zm232.885 101.328c-49.807 0-90.328-40.521-90.328-90.328s40.521-90.329 90.328-90.329 90.328 40.521 90.328 90.329-40.522 90.328-90.328 90.328zm233.68-101.673c-.323.346-.678.346-.795.346h-120.07c-.559 0-1.025-.447-1.111-1.062-.006-.041-.029-.088-.04-.131-2.269-20.924-10.308-40.14-22.488-56.024l85.08-85.08c35.113 38.969 56.228 88.634 59.741 141.041.023.353-.083.66-.317.91z"/><path d="m269.817 337.315c-5.083-1.797-11.158-4.094-15.101-6.531-1.415-.875-2.102-2.614-1.546-4.182.005-.015.011-.03.016-.046.356-.981 1.093-2.244 2.577-2.691 4.591-1.381 7.826.03 9.442 1.094l.662.512c4.793 3.704 11.802 3.131 15.592-1.593 3.862-4.813 3.011-11.836-1.851-15.592 0 0-1.518-1.166-1.672-1.273-1.676-1.163-4.603-2.908-8.53-4.166v-.032c0-5.013-3.338-9.511-8.205-10.71-7.284-1.794-13.795 3.67-13.795 10.656v.748c-8.279 3.274-14.362 10.714-16.091 19.887-1.737 9.224 1.35 18.222 8.058 23.482 6.141 4.816 14.736 8.219 23.11 11.179 1.283.454 5.188 1.834 4.346 6.847-.448 2.662-2.741 7.178-8.496 7.217-6.385.041-7.834-.166-12.321-3.079-5.032-3.267-11.909-2.117-15.306 2.828-3.507 5.104-2.114 12.067 3.041 15.439 5.135 3.359 9.258 5.115 13.66 5.998v.062c0 5.013 3.338 9.511 8.205 10.71 7.284 1.794 13.795-3.67 13.795-10.656v-1.382c9.832-3.815 17.281-12.556 19.118-23.489 2.338-13.903-5.18-26.456-18.708-31.237z"/></g><g><path d="m255.999 149.678c-11.306 0-21.431-5.845-27.083-15.636l-20.527-35.554c-2.826-4.896-4.239-10.266-4.239-15.637 0-5.37 1.413-10.741 4.239-15.636 5.653-9.791 15.777-15.636 27.083-15.636h41.055c11.307 0 21.431 5.846 27.084 15.637 2.826 4.896 4.239 10.266 4.239 15.636s-1.414 10.741-4.24 15.636l-20.527 35.554c-5.116 8.862-13.897 14.492-23.901 15.48-1.05.103-2.111.156-3.183.156zm-29.833-66.783c-.001 1.382.327 2.949 1.275 4.592l20.527 35.554c2.416 4.185 6.421 4.636 8.03 4.636s5.614-.452 8.03-4.636l20.527-35.554c.948-1.643 1.276-3.21 1.276-4.592-.001-2.138-.787-3.833-1.275-4.68-.805-1.394-3.199-4.637-8.031-4.637h-41.055c-4.832 0-7.226 3.242-8.03 4.636-.487.847-1.274 2.543-1.274 4.681z" fill="#0496FF"/></g></g><g/><g/><g/><g/><g/><g/><g/><g/><g/><g/><g/><g/><g/><g/><g/></svg>