<svg id="Capa_1" enable-background="new 0 0 512.024 512.024" viewBox="0 0 512.024 512.024" xmlns="http://www.w3.org/2000/svg" fill="#052438"><g><g fill="#0496FF"><path d="m245.383 144.807h-13.56c-17.094 0-31 13.907-31 31v75.235c0 17.093 13.906 31 31 31h13.56c17.094 0 31-13.907 31-31v-75.235c0-17.093-13.906-31-31-31zm9 106.235c0 4.962-4.037 9-9 9h-13.56c-4.963 0-9-4.038-9-9v-75.235c0-4.962 4.037-9 9-9h13.56c4.963 0 9 4.038 9 9z"/><path d="m238.604 303.83c-20.832 0-37.78 16.948-37.78 37.78s16.948 37.78 37.78 37.78 37.779-16.948 37.779-37.78-16.947-37.78-37.779-37.78zm0 53.56c-8.701 0-15.78-7.079-15.78-15.78s7.079-15.78 15.78-15.78 15.779 7.079 15.779 15.78-7.078 15.78-15.779 15.78z"/></g><g><path d="m418.098 367.067c-5.477-1.936-12.171-4.484-15.658-7.117-.138-.432-.182-1.499.291-2.621.442-1.051 1.114-1.719 1.997-1.985 4.13-1.244 7.03.006 8.487.96l.886.685c4.808 3.715 11.716 2.83 15.431-1.977s2.829-11.715-1.978-15.43l-1.156-.894c-.149-.115-.301-.227-.456-.334-1.567-1.088-4.269-2.7-7.88-3.906-.173-5.924-5.018-10.676-10.984-10.676-6.075 0-11 4.925-11 11v.344c-7.858 3.249-13.619 10.381-15.271 19.15-1.689 8.963 1.321 17.715 7.854 22.839 5.894 4.623 14.106 7.876 22.104 10.704 1.928.681 4.414 2.033 3.766 5.89-.396 2.358-2.428 6.357-7.526 6.392-6.104.037-7.278-.14-11.605-2.97-5.085-3.325-11.901-1.901-15.227 3.184-3.326 5.084-1.9 11.901 3.184 15.227 4.786 3.131 8.656 4.819 12.74 5.695.188 5.911 5.026 10.648 10.982 10.648 6.075 0 11-4.925 11-11v-.939c9.339-3.763 16.393-12.141 18.149-22.589 2.265-13.478-5.021-25.646-18.13-30.28z"/><path d="m421.584 271.909-120.636-208.948c-13.013-22.539-36.319-35.994-62.344-35.994s-49.332 13.456-62.345 35.994l-166.499 288.386c-13.013 22.539-13.014 49.45-.001 71.989s36.319 35.995 62.345 35.995h263.087c18.745 16.03 43.06 25.726 69.6 25.726 59.128 0 107.232-48.104 107.232-107.233.001-53.417-39.26-97.832-90.439-105.915zm-392.772 140.427c-9.036-15.651-9.035-34.338.001-49.989l166.499-288.386c9.036-15.651 25.22-24.994 43.292-24.994 18.071 0 34.255 9.343 43.291 24.994l113.752 197.023c-54.864 4.656-98.089 50.791-98.089 106.839 0 21.999 6.663 42.469 18.071 59.507h-243.525c-18.073 0-34.256-9.343-43.292-24.994zm375.979 50.721c-46.998 0-85.233-38.235-85.233-85.233s38.235-85.233 85.233-85.233c46.997 0 85.232 38.235 85.232 85.233.001 46.997-38.235 85.233-85.232 85.233z"/></g></g><g/><g/><g/><g/><g/><g/><g/><g/><g/><g/><g/><g/><g/><g/><g/></svg>