<svg id="Capa_1" enable-background="new 0 0 512 512" viewBox="0 0 512 512" xmlns="http://www.w3.org/2000/svg" fill="#052438"><g><path d="m407.078 56.068h-157.373c-7.191-6.222-16.553-10-26.787-10h-57.758c-5.738 0-10.444 4.394-10.95 10h-143.21c-6.075 0-11 4.925-11 11v260.724c0 6.075 4.925 11 11 11h129.609l-18.123 27.304h-62.182c-6.075 0-11 4.925-11 11s4.925 11 11 11h252.229c6.075 0 11-4.925 11-11s-4.925-11-11-11h-16.942l-18.123-27.304h41.738v-22h-297.206v-27.305h340.194v-22h-54.622v-4.52c0-37.983-28.135-69.519-64.659-74.861v-14.144c1.621-1.277 3.188-2.641 4.678-4.113 10.529-10.393 16.327-24.264 16.327-39.057v-43.724c0-3.092-.355-6.102-1.007-9h133.168v189.02h22v-200.02c-.001-6.075-4.926-11-11.001-11zm-137.891 310.028h-120.295l18.123-27.304h84.049zm-93.027-298.028h46.758c10.477 0 19 8.523 19 19v3.99h-65.758zm55.975 86.124c-6.307 6.226-14.686 9.6-23.536 9.476-17.887-.232-32.439-15.273-32.439-33.53v-17.08h65.758v17.734c0 8.863-3.474 17.173-9.783 23.4zm-210.135-76.124h132.16v52.07c0 17.595 8.239 33.376 21.005 43.581v14.387c-36.523 5.343-64.659 36.878-64.659 74.861v4.52h-88.506zm263.572 184.899v4.52h-153.066v-4.52c0-28.095 21.709-51.201 49.232-53.461l19.523 19.523c2.148 2.148 4.963 3.222 7.778 3.222s5.63-1.074 7.778-3.222l19.523-19.523c27.523 2.261 49.232 25.366 49.232 53.461zm-64.659-69.147-11.874 11.874-11.874-11.874v-9.473c3.599.812 7.327 1.269 11.148 1.318.246.003.489.005.734.005 4.041 0 8.01-.449 11.864-1.295v9.445z"/><g fill="#0496FF"><path d="m407.078 256.088c-57.854 0-104.922 47.068-104.922 104.922s47.068 104.922 104.922 104.922 104.922-47.068 104.922-104.922-47.068-104.922-104.922-104.922zm0 187.844c-45.723 0-82.922-37.199-82.922-82.922s37.199-82.922 82.922-82.922 82.922 37.199 82.922 82.922-37.199 82.922-82.922 82.922z"/><path d="m407.078 334.187h20c6.075 0 11-4.925 11-11s-4.925-11-11-11h-9v-3.661c0-6.075-4.925-11-11-11s-11 4.925-11 11v5.766c-11.064 4.393-18.912 15.197-18.912 27.807 0 16.493 13.418 29.912 29.912 29.912 4.362 0 7.912 3.549 7.912 7.912 0 4.362-3.549 7.912-7.912 7.912h-20c-6.075 0-11 4.925-11 11s4.925 11 11 11h9v3.661c0 6.075 4.925 11 11 11s11-4.925 11-11v-5.766c11.064-4.393 18.912-15.197 18.912-27.807 0-16.494-13.418-29.912-29.912-29.912-4.362 0-7.912-3.549-7.912-7.912s3.55-7.912 7.912-7.912z"/></g></g><g/><g/><g/><g/><g/><g/><g/><g/><g/><g/><g/><g/><g/><g/><g/></svg>