<svg id="Capa_1" enable-background="new 0 0 512 512" viewBox="0 0 512 512" xmlns="http://www.w3.org/2000/svg" fill="#E6ECF2"><g><g><g><path d="m153.609 212.302h-37.133c-6.075 0-11-4.925-11-11s4.925-11 11-11h37.133c6.601 0 11.97-5.369 11.97-11.969 0-18.729 15.237-33.969 33.968-33.971h11.65c12.308 0 22.32-10.014 22.32-22.322 0-12.309-10.013-22.322-22.32-22.322-17.323 0-31.416-14.093-31.416-31.416 0-5.192-4.225-9.417-9.417-9.417h-10.882c-6.075 0-11-4.925-11-11s4.925-11 11-11h10.883c17.323.002 31.416 14.096 31.416 31.417 0 5.192 4.224 9.416 9.416 9.416 24.438 0 44.32 19.883 44.32 44.322s-19.882 44.322-44.32 44.322h-11.649c-6.599.001-11.969 5.371-11.969 11.971 0 18.731-15.238 33.969-33.97 33.969z" fill="#0496FF"/></g><g><path d="m371.784 263.611h-77.273c-19.774 0-35.861-16.087-35.861-35.862s16.087-35.862 35.861-35.862h8.691c3.326 0 6.138-2.812 6.138-6.14 0-15.515 12.622-28.137 28.138-28.137h63.333c6.075 0 11 4.925 11 11s-4.925 11-11 11h-63.333c-3.327 0-6.138 2.811-6.138 6.137 0 15.514-12.622 28.137-28.136 28.14h-8.693c-7.644 0-13.861 6.218-13.861 13.862s6.218 13.862 13.861 13.862h77.273c6.075 0 11 4.925 11 11s-4.925 11-11 11z" fill="#0496FF"/></g></g><g><path d="m483.778 333.536c-23.765-23.764-57.233-24.792-79.581-2.446l-62.57 62.571c.354-1.978.539-4.014.539-6.092 0-19.025-15.478-34.502-34.502-34.502h-55.323c-17.676-9.981-36.389-14.478-54.319-13.019-21.268 1.73-40.261 11.48-56.526 29h-13.679v-15.939c0-6.075-4.925-11-11-11h-80.817c-6.075 0-11 4.925-11 11v147.891c0 6.075 4.925 11 11 11h80.816c6.075 0 11-4.925 11-11v-15.939l215.107-.003c9.569 0 18.569-3.795 24.691-10.413l116.459-125.86c4.014-4.337 3.884-11.071-.295-15.249zm-377.962 156.464h-58.816v-125.892h58.816zm245.651-30.295c-2.699 2.918-6.512 3.354-8.543 3.354l-215.107.003v-72.014h18.614c3.222 0 6.282-1.413 8.372-3.865 34.114-40.028 73.543-22.905 88.912-13.684 1.709 1.025 3.665 1.567 5.659 1.567h58.29c6.894 0 12.502 5.608 12.502 12.502s-5.608 12.503-12.502 12.503h-58.29c-6.075 0-11 4.925-11 11s4.925 11 11 11h90.399c2.917 0 5.715-1.159 7.778-3.222l72.202-72.203c11.372-11.374 26.648-12.679 40.206-4.194z"/><path d="m256 322c88.775 0 161-72.224 161-161 0-27.013-6.871-53.807-19.871-77.484-2.925-5.326-9.612-7.273-14.937-4.348-5.325 2.924-7.272 9.611-4.349 14.936 11.224 20.442 17.157 43.574 17.157 66.896 0 76.645-62.355 139-139 139s-139-62.355-139-139 62.355-139 139-139c14.775 0 29.384 2.34 43.419 6.956 5.776 1.898 11.988-1.242 13.886-7.014 1.898-5.771-1.242-11.988-7.013-13.886-16.258-5.346-33.178-8.056-50.292-8.056-88.775 0-161 72.224-161 161s72.225 161 161 161z"/></g><g><path d="m350.641 122.609c-.957 0-1.914-.125-2.847-.375-15.112-4.049-41.25-24.667-54.594-47.779-7.358-12.746-10.245-25.822-8.347-37.815 1.754-11.086 7.565-20.909 16.363-27.66 14.736-11.308 34.236-11.806 49.425-2.143 15.184-9.662 34.686-9.166 49.424 2.144 8.798 6.751 14.609 16.574 16.363 27.66 1.897 11.994-.989 25.07-8.348 37.815-13.345 23.113-39.482 43.731-54.594 47.78-.931.248-1.888.373-2.845.373zm-23.023-100.598c-4.906 0-9.529 1.752-13.009 4.422-7.95 6.101-12.744 19.029-2.356 37.021 10.094 17.482 28.793 32.113 38.388 36.466 9.595-4.354 28.294-18.984 38.388-36.466 10.388-17.992 5.595-30.921-2.355-37.021-7.099-5.447-18.968-7.078-28.254 2.21-2.062 2.062-4.861 3.222-7.778 3.222-2.918 0-5.716-1.159-7.778-3.222-4.736-4.734-10.143-6.632-15.246-6.632z" fill="#0496FF"/></g></g><g/><g/><g/><g/><g/><g/><g/><g/><g/><g/><g/><g/><g/><g/><g/></svg>