<svg id="Capa_1" enable-background="new 0 0 512 512" viewBox="0 0 512 512" xmlns="http://www.w3.org/2000/svg" fill="#052438"><g><g><path d="m483.779 333.537c-23.766-23.764-57.234-24.792-79.581-2.446l-62.57 62.57c.354-1.978.538-4.013.538-6.091 0-19.025-15.478-34.503-34.503-34.503h-55.322c-17.676-9.981-36.398-14.479-54.32-13.019-21.268 1.731-40.261 11.48-56.526 29h-20.189c-6.075 0-11 4.925-11 11s4.925 11 11 11h25.124c3.222 0 6.282-1.413 8.372-3.865 34.116-40.028 73.545-22.903 88.913-13.684 1.709 1.025 3.666 1.567 5.659 1.567h58.289c6.895 0 12.503 5.608 12.503 12.503s-5.608 12.503-12.503 12.503h-58.289c-6.075 0-11 4.925-11 11s4.925 11 11 11h90.398c2.917 0 5.715-1.159 7.778-3.222l72.203-72.203c6.616-6.615 14.665-9.924 23.297-9.598 5.723.224 11.5 2.106 16.882 5.435l-108.464 117.221c-1.973 2.131-5.087 3.354-8.544 3.354l-221.618.003c-6.075 0-11 4.925-11 11s4.925 11 11 11l221.618-.003c9.568 0 18.568-3.795 24.691-10.412l116.459-125.86c4.013-4.338 3.883-11.071-.295-15.25z"/><path d="m256 322.001c43.002 0 83.432-16.748 113.843-47.158 30.41-30.409 47.157-70.839 47.157-113.843 0-43.003-16.747-83.433-47.157-113.843s-70.84-47.157-113.843-47.157c-43.002 0-83.433 16.747-113.843 47.157s-47.157 70.841-47.157 113.843c0 43.003 16.748 83.434 47.157 113.843 30.411 30.41 70.841 47.158 113.843 47.158zm-98.286-259.287c26.254-26.255 61.159-40.714 98.286-40.714s72.032 14.459 98.287 40.714 40.713 61.16 40.713 98.286c0 37.127-14.459 72.032-40.714 98.286-26.255 26.256-61.161 40.715-98.287 40.715s-72.031-14.459-98.286-40.715c-26.254-26.254-40.713-61.159-40.713-98.286 0-37.126 14.459-72.031 40.714-98.286z"/><path d="m344.529 212.49c2.081 2.081 4.888 3.222 7.778 3.222.652 0 1.309-.058 1.963-.177 3.55-.644 6.559-2.987 8.051-6.271 6.912-15.205 10.416-31.443 10.416-48.264 0-31.184-12.143-60.499-34.189-82.547-16.001-16-36.101-26.938-58.126-31.628-3.242-.692-6.631.12-9.212 2.209-2.58 2.088-4.079 5.23-4.079 8.55v72.951c0 2.917 1.159 5.715 3.222 7.778zm-55.398-140.278c12.644 4.713 24.175 12.112 33.86 21.798 17.893 17.893 27.746 41.683 27.746 66.99 0 8.069-.991 15.97-2.958 23.627l-58.648-58.648z"/><path d="m271.21 272.967c1.977 1.6 4.424 2.45 6.921 2.45.763 0 1.531-.079 2.291-.241 19.345-4.119 37.474-13.213 52.428-26.298 2.291-2.005 3.648-4.87 3.75-7.912.101-3.043-1.063-5.991-3.216-8.145l-47.475-47.475c-3.146-3.146-7.877-4.086-11.988-2.385-4.11 1.703-6.79 5.714-6.79 10.163v71.292c0 3.32 1.499 6.462 4.079 8.551zm17.921-53.285 19.858 19.858c-6.199 4.187-12.873 7.627-19.858 10.238z"/><path d="m159.693 215.712c2.89 0 5.697-1.141 7.778-3.222l74.177-74.177c2.063-2.063 3.222-4.861 3.222-7.778v-72.951c0-3.319-1.499-6.461-4.079-8.55-2.581-2.089-5.968-2.901-9.212-2.209-22.026 4.69-42.125 15.628-58.125 31.628-22.048 22.047-34.19 51.362-34.19 82.547 0 16.82 3.504 33.059 10.416 48.264 1.493 3.284 4.501 5.628 8.052 6.271.651.119 1.308.177 1.961.177zm29.315-121.702c9.686-9.686 21.217-17.085 33.86-21.798v53.767l-58.648 58.648c-1.967-7.657-2.958-15.558-2.958-23.627 0-25.308 9.854-49.099 27.746-66.99z"/><path d="m238.078 182.962c-4.11-1.702-8.842-.762-11.988 2.385l-47.475 47.475c-2.152 2.153-3.317 5.102-3.216 8.145.102 3.042 1.459 5.907 3.75 7.912 14.953 13.085 33.083 22.179 52.428 26.298.76.162 1.528.241 2.291.241 2.497 0 4.945-.851 6.921-2.45 2.58-2.089 4.079-5.23 4.079-8.55v-71.292c.001-4.45-2.679-8.461-6.79-10.164zm-15.209 66.816c-6.985-2.611-13.66-6.052-19.859-10.238l19.859-19.858z"/></g><g><path d="m116.816 512h-80.816c-6.075 0-11-4.925-11-11v-147.892c0-6.075 4.925-11 11-11h80.816c6.075 0 11 4.925 11 11v147.892c0 6.075-4.925 11-11 11zm-69.816-22h58.816v-125.892h-58.816z" fill="#0496FF"/></g></g><g/><g/><g/><g/><g/><g/><g/><g/><g/><g/><g/><g/><g/><g/><g/></svg>