<svg id="Capa_1" enable-background="new 0 0 512 512" viewBox="0 0 512 512" xmlns="http://www.w3.org/2000/svg" fill="#E6ECF2"><g><g><path d="m400.124 78.399c6.075 0 11-4.925 11-11s-4.925-11-11-11h-.008c-6.075 0-10.996 4.925-10.996 11s4.929 11 11.004 11z"/><path d="m379.198 331.091-62.57 62.57c.354-1.978.538-4.013.538-6.091 0-19.025-15.478-34.503-34.503-34.503h-55.322c-17.676-9.981-36.397-14.477-54.32-13.019-21.268 1.731-40.261 11.48-56.526 29h-13.679v-15.939c0-6.075-4.925-11-11-11h-80.816c-6.075 0-11 4.925-11 11v147.891c0 6.075 4.925 11 11 11h80.816c6.075 0 11-4.925 11-11v-15.938l215.108-.003c9.567 0 18.566-3.795 24.691-10.412l116.459-125.86c4.013-4.337 3.883-11.07-.296-15.249-23.765-23.765-57.232-24.794-79.58-2.447zm-298.381 158.909h-58.817v-125.892h58.816v125.892zm245.652-30.296c-2.701 2.919-6.513 3.354-8.544 3.354l-215.108.003v-72.014h18.614c3.222 0 6.282-1.413 8.372-3.865 34.116-40.029 73.545-22.904 88.913-13.684 1.709 1.025 3.666 1.567 5.659 1.567h58.289c6.895 0 12.503 5.608 12.503 12.503s-5.608 12.503-12.503 12.503h-58.289c-6.075 0-11 4.925-11 11s4.925 11 11 11h90.398c2.917 0 5.715-1.159 7.778-3.222l72.203-72.203c6.616-6.615 14.671-9.935 23.297-9.598 5.723.224 11.5 2.106 16.882 5.435z"/><path d="m511.625 86.302c-4.624-17.262-25.979-42.54-58.976-44.696-6.068-.391-11.298 4.197-11.693 10.26-.396 6.062 4.197 11.297 10.26 11.693 15.39 1.006 26.986 9.847 33.514 18.167l-49.452 11.814c-5.909 1.412-9.555 7.347-8.144 13.255 1.207 5.05 5.716 8.447 10.69 8.447.846 0 1.706-.099 2.564-.304l63.166-15.091c2.889-.69 5.375-2.519 6.895-5.069s1.944-5.608 1.176-8.476z"/></g><path d="m454.579 39.057c-11.016-20.134-31.977-32.642-54.703-32.642-36.059 0-54.127 26.699-70.068 50.256-4.866 7.191-9.506 14.047-14.443 19.912l-141.439-75.293c-3.028-1.612-6.636-1.719-9.756-.288-3.119 1.431-5.391 4.235-6.145 7.583-12.141 53.945 4.333 110.393 41.971 143.807 9.213 8.179 19.28 14.558 29.914 19.082-29.119 27.591-73.811 45.523-106.305 56.979-5.554 1.958-8.581 7.942-6.867 13.576 8.793 28.9 28.624 50.222 57.349 61.659 15.333 6.105 32.6 9.176 51.109 9.175 13.001 0 26.615-1.515 40.6-4.556 4.303-.937 7.634-4.349 8.465-8.674 6.44-33.521 13.219-47.353 59.263-59.69 19.236-5.154 39.397-11.133 55.893-22.449 19.366-13.285 30.326-32.161 32.574-56.104 2.806-29.877 3.884-30.955 21.888-48.957 20.299-20.3 21.358-53.894 10.7-73.376zm-26.255 57.818c-21.273 21.271-24.93 27.25-28.236 62.457-3.562 37.944-34.831 49.333-72.256 59.36-51.189 13.716-65.536 32.974-73.666 69.479-42.427 7.416-93.378-.044-112.712-42.769 36.629-13.526 83.413-34.434 112.392-67.035 5.334.85 10.747 1.278 16.209 1.278 12.289 0 24.83-2.168 37.267-6.568 5.728-2.026 8.728-8.312 6.701-14.04s-8.312-8.725-14.04-6.7c-30.853 10.918-61.173 5.093-85.38-16.398-28.443-25.251-42.465-66.499-37.581-108.078l155.887 82.984c5.363 2.856 12.024.821 14.879-4.541s.821-12.024-4.541-14.879l-8.101-4.313c4.556-5.807 8.768-12.031 12.884-18.112 14.737-21.778 27.465-40.586 51.848-40.586 14.905 0 28.14 7.926 35.402 21.2 6.739 12.323 5.541 34.763-6.956 47.261z" fill="#0496FF"/></g><g/><g/><g/><g/><g/><g/><g/><g/><g/><g/><g/><g/><g/><g/><g/></svg>