<svg id="Capa_1" enable-background="new 0 0 512 512" viewBox="0 0 512 512" xmlns="http://www.w3.org/2000/svg" fill="#052438"><g><g fill="#0496FF"><path d="m288.05 375h-64.1c-6.075 0-11 4.925-11 11s4.925 11 11 11h64.1c6.075 0 11-4.925 11-11s-4.925-11-11-11z"/><path d="m288.05 55h-64.1c-6.075 0-11 4.925-11 11s4.925 11 11 11h64.1c6.075 0 11-4.925 11-11s-4.925-11-11-11z"/><path d="m503.847 103.74c-17.312-4.64-30.948-18.275-35.586-35.586-1.289-4.81-5.646-8.153-10.625-8.153-4.978 0-9.336 3.344-10.625 8.152-4.639 17.312-18.275 30.947-35.587 35.587-4.809 1.289-8.152 5.646-8.152 10.625s3.344 9.337 8.153 10.625c17.312 4.639 30.947 18.274 35.586 35.586 1.289 4.809 5.646 8.152 10.625 8.152s9.336-3.344 10.625-8.153c4.639-17.311 18.274-30.946 35.586-35.585 4.809-1.288 8.153-5.646 8.153-10.625s-3.344-9.336-8.153-10.625zm-46.211 28.404c-4.848-6.91-10.87-12.932-17.78-17.778 6.91-4.848 12.932-10.869 17.78-17.779 4.847 6.908 10.87 12.933 17.779 17.779-6.91 4.846-12.932 10.867-17.779 17.778z"/><path d="m100.575 387.011c-17.312-4.639-30.947-18.274-35.586-35.585-1.289-4.81-5.646-8.153-10.625-8.153-4.978 0-9.336 3.344-10.625 8.152-4.639 17.312-18.275 30.947-35.586 35.586-4.809 1.288-8.153 5.646-8.153 10.625s3.344 9.336 8.152 10.625c17.312 4.64 30.948 18.275 35.587 35.587 1.289 4.809 5.646 8.152 10.625 8.152s9.336-3.344 10.625-8.153c4.639-17.311 18.274-30.946 35.586-35.586 4.809-1.289 8.152-5.646 8.152-10.625s-3.343-9.337-8.152-10.625zm-46.21 28.404c-4.848-6.91-10.87-12.932-17.78-17.779 6.911-4.847 12.932-10.868 17.78-17.778 4.847 6.91 10.869 12.932 17.779 17.778-6.909 4.846-12.933 10.871-17.779 17.779z"/></g><path d="m421.315 283.42-20.204-11.151c1.226-10.832 1.23-21.727.011-32.542l20.193-11.146c4.904-2.707 6.991-8.666 4.847-13.841l-20.665-49.889c-2.143-5.175-7.835-7.909-13.214-6.358l-22.165 6.399c-6.784-8.508-14.488-16.207-23.015-23l6.403-22.177c1.554-5.381-1.184-11.07-6.359-13.214l-43.097-17.851v-57.65c0-17.094-13.907-31-31-31h-34.1c-17.093 0-31 13.906-31 31v57.651l-43.098 17.851c-5.175 2.144-7.913 7.833-6.359 13.214l6.397 22.158c-8.506 6.783-16.207 14.489-23.002 23.021l-22.172-6.401c-5.382-1.551-11.071 1.185-13.214 6.358l-20.664 49.888c-2.144 5.175-.057 11.134 4.847 13.841l20.204 11.151c-1.226 10.832-1.23 21.727-.011 32.542l-20.193 11.146c-4.904 2.707-6.991 8.666-4.847 13.841l20.665 49.889c2.144 5.175 7.835 7.911 13.214 6.358l22.157-6.397c6.783 8.507 14.49 16.207 23.021 23.002l-6.401 22.173c-1.554 5.381 1.184 11.07 6.359 13.214l45.788 18.966 35.276 80.931c1.747 4.009 5.707 6.603 10.083 6.603s8.335-2.594 10.083-6.604l35.276-80.931 45.789-18.966c5.175-2.144 7.913-7.833 6.359-13.214l-6.397-22.158c8.508-6.783 16.207-14.488 23.002-23.021l22.172 6.401c5.381 1.553 11.071-1.185 13.214-6.358l20.665-49.889c2.143-5.174.056-11.133-4.848-13.84zm-182.366-261.42h34.1c4.962 0 9 4.037 9 9v62.168l-9.781 17.721c-10.837-1.229-21.732-1.233-32.544-.012l-9.774-17.71v-62.167c0-4.963 4.037-9 8.999-9zm-30.999 290.242c-8.811-7.532-15.808-17.096-20.296-27.931-12.558-30.318-3.39-64.308 20.296-84.567zm48.05 161.229-26.05-59.764v-226.946c17.389-6.551 35.831-6.093 52.1.037v226.91zm48.05-273.709c8.62 7.341 15.675 16.77 20.297 27.928 12.604 30.43 3.796 64.283-20.297 84.639zm84.887 129.881-19.996-5.773c-4.485-1.293-9.302.384-12.011 4.187-7.989 11.216-17.702 20.937-28.87 28.893-3.803 2.709-5.481 7.524-4.186 12.01l5.768 19.979-25.592 10.6v-60.448c19.449-11.219 34.316-28.885 42.091-50.134 8.286-22.645 7.765-47.393-1.469-69.685-20.252-48.893-76.506-72.195-125.401-51.942-48.894 20.253-72.195 76.508-51.942 125.401 8.077 19.5 22.42 35.829 40.622 46.352v60.456l-25.592-10.6 5.773-19.997c1.295-4.486-.383-9.301-4.187-12.011-11.216-7.988-20.936-17.701-28.892-28.869-2.71-3.804-7.527-5.48-12.011-4.187l-19.979 5.769-13.136-31.714 18.208-10.05c4.087-2.257 6.306-6.848 5.533-11.452-2.271-13.532-2.267-27.274.013-40.843.774-4.605-1.444-9.197-5.532-11.453l-18.221-10.058 13.136-31.715 19.996 5.773c4.484 1.292 9.301-.384 12.011-4.187 7.989-11.217 17.703-20.937 28.87-28.892 3.803-2.709 5.482-7.523 4.187-12.01l-5.769-19.98 31.714-13.136 10.049 18.206c2.256 4.088 6.848 6.303 11.453 5.532 13.527-2.271 27.269-2.267 40.844.014 4.603.775 9.197-1.443 11.453-5.532l10.057-18.22 31.714 13.136-5.774 20c-1.295 4.485.383 9.301 4.186 12.01 11.209 7.985 20.928 17.698 28.888 28.87 2.709 3.803 7.524 5.479 12.01 4.186l19.986-5.771 13.136 31.714-18.208 10.05c-4.087 2.257-6.306 6.848-5.533 11.451 2.271 13.533 2.267 27.275-.013 40.844-.774 4.605 1.444 9.197 5.532 11.454l18.221 10.058z"/></g><g/><g/><g/><g/><g/><g/><g/><g/><g/><g/><g/><g/><g/><g/><g/></svg>