<svg id="Capa_1" enable-background="new 0 0 512 512" viewBox="0 0 512 512" xmlns="http://www.w3.org/2000/svg" fill="#052438"><g><g><g><path d="m221.78 402c-80.504 0-146-65.495-146-146 0-80.504 65.495-145.999 146-145.999s146 65.495 146 145.999c-.001 80.504-65.496 146-146 146zm0-269.999c-68.374 0-124 55.626-124 123.999 0 68.374 55.626 124 124 124s124-55.626 124-124c-.001-68.373-55.627-123.999-124-123.999z" fill="#0496FF"/></g><g><path d="m221.779 312c-30.878 0-56-25.121-56-56s25.122-56 56-56 56 25.121 56 56-25.121 56-56 56zm0-90c-18.748 0-34 15.252-34 34s15.252 34 34 34 34-15.252 34-34-15.252-34-34-34z" fill="#0496FF"/></g></g><path d="m507.696 160.727-19.6-15.039 3.225-24.493c.513-3.896-1.091-7.77-4.209-10.162-3.117-2.394-7.273-2.939-10.906-1.437l-50.863 21.067c-3.631 1.504-6.184 4.831-6.696 8.728l-3.225 24.493-21.698 8.988c-2.982-6.146-6.305-12.146-9.965-17.988l16.652-19.6c3.71-4.366 3.447-10.849-.604-14.9l-42.41-42.41c-4.052-4.051-10.534-4.314-14.9-.604l-19.602 16.653c-17.98-11.266-37.451-19.338-58.08-24.076l-2.083-25.616c-.464-5.71-5.234-10.108-10.964-10.108h-59.978c-5.729 0-10.5 4.398-10.964 10.108l-2.083 25.617c-20.62 4.737-40.092 12.811-58.076 24.078l-19.604-16.656c-4.367-3.709-10.849-3.445-14.901.604l-42.411 42.41c-4.051 4.052-4.314 10.534-.604 14.9l16.653 19.602c-11.268 17.979-19.341 37.45-24.082 58.08l-25.611 2.082c-5.709.464-10.107 5.234-10.107 10.963v59.978c0 5.729 4.398 10.5 10.109 10.964l25.617 2.082c4.738 20.621 12.81 40.09 24.078 58.076l-16.656 19.604c-3.71 4.366-3.447 10.849.604 14.9l42.411 42.411c4.052 4.051 10.535 4.312 14.901.604l19.601-16.654c17.979 11.269 37.45 19.342 58.08 24.083l2.082 25.61c.464 5.71 5.234 10.108 10.964 10.108h59.978c5.729 0 10.5-4.398 10.964-10.108l2.083-25.617c20.62-4.738 40.092-12.812 58.076-24.079l19.605 16.657c4.367 3.712 10.85 3.446 14.9-.604l42.41-42.411c4.051-4.052 4.314-10.534.604-14.9l-16.653-19.601c11.268-17.98 19.341-37.452 24.082-58.08l25.61-2.082c5.711-.464 10.109-5.234 10.109-10.964v-59.978c0-5.729-4.398-10.5-10.108-10.964l-25.612-2.082c-1.543-6.717-3.44-13.311-5.686-19.772l21.689-8.984 19.599 15.039c1.953 1.499 4.314 2.273 6.698 2.273 1.421 0 2.852-.275 4.208-.837l50.863-21.068c3.631-1.504 6.184-4.831 6.696-8.728.513-3.894-1.092-7.768-4.21-10.16zm-119.779 64.524c.899 4.892 4.97 8.571 9.927 8.975l23.714 1.928v39.693l-23.712 1.928c-4.958.403-9.028 4.082-9.927 8.974-4.309 23.428-13.372 45.286-26.937 64.969-2.822 4.095-2.546 9.574.674 13.364l15.421 18.15-28.067 28.068-18.153-15.424c-3.789-3.221-9.267-3.496-13.363-.676-19.691 13.565-41.548 22.628-64.965 26.934-4.892.899-8.571 4.97-8.975 9.927l-1.929 23.719h-39.693l-1.928-23.712c-.403-4.957-4.083-9.027-8.974-9.927-23.43-4.31-45.288-13.373-64.968-26.937-4.096-2.824-9.575-2.547-13.365.674l-18.15 15.421-28.067-28.068 15.423-18.153c3.22-3.789 3.497-9.268.676-13.362-13.566-19.693-22.628-41.551-26.932-64.965-.899-4.893-4.97-8.572-9.928-8.976l-23.719-1.928v-39.694l23.712-1.928c4.957-.403 9.027-4.082 9.927-8.974 4.309-23.429 13.372-45.287 26.936-64.968 2.822-4.095 2.546-9.574-.674-13.364l-15.421-18.151 28.067-28.067 18.153 15.424c3.79 3.221 9.27 3.495 13.363.676 19.691-13.566 41.548-22.628 64.965-26.934 4.892-.899 8.572-4.97 8.975-9.927l1.928-23.719h39.693l1.928 23.718c.403 4.957 4.083 9.027 8.975 9.927 23.427 4.308 45.286 13.368 64.969 26.931 4.095 2.821 9.573 2.544 13.363-.676l18.15-15.42 28.067 28.067-15.419 18.148c-3.22 3.79-3.497 9.269-.675 13.363 4.659 6.761 8.786 13.779 12.373 21.028l-63.045 26.114c-17.2-31.222-50.436-52.421-88.531-52.421-55.691 0-101 45.308-101 100.999s45.309 101 101 101 101-45.309 101-101c0-9.806-1.405-19.291-4.024-28.262l63.03-26.108c2.601 7.672 4.649 15.554 6.132 23.622zm-176.3 34.959c1.754 4.235 5.85 6.793 10.167 6.793 1.402 0 2.829-.271 4.205-.84l72.284-29.941c1.636 6.323 2.507 12.951 2.507 19.778 0 43.561-35.439 79-79 79s-79-35.439-79-79 35.439-78.999 79-78.999c28.936 0 54.288 15.637 68.05 38.905l-72.26 29.931c-5.613 2.325-8.278 8.759-5.953 14.373zm240.177-82.281-14.561-11.173 2.396-18.197 27.393-11.347-1.566 11.9c-.513 3.896 1.092 7.771 4.209 10.162l9.522 7.308z"/></g><g/><g/><g/><g/><g/><g/><g/><g/><g/><g/><g/><g/><g/><g/><g/></svg>