<svg id="Capa_1" enable-background="new 0 0 511.997 511.997" viewBox="0 0 511.997 511.997" xmlns="http://www.w3.org/2000/svg" fill="#052438"><g><path d="m483.776 333.533c-23.764-23.764-57.232-24.792-79.58-2.445l-62.57 62.571c.354-1.978.539-4.014.539-6.092 0-19.025-15.478-34.503-34.502-34.503h-55.323c-17.676-9.981-36.396-14.479-54.32-13.019-21.268 1.731-40.261 11.48-56.526 29h-13.679v-15.939c0-6.075-4.925-11-11-11h-80.817c-6.075 0-11 4.925-11 11v147.892c0 6.075 4.925 11 11 11h80.816c6.075 0 11-4.925 11-11v-15.938l215.107-.003c9.569 0 18.568-3.796 24.691-10.413l116.458-125.86c4.016-4.339 3.885-11.072-.294-15.251zm-377.961 156.464h-58.817v-125.892h58.816v125.892zm245.651-30.296c-2.7 2.919-6.512 3.354-8.543 3.354l-215.107.003v-72.014h18.614c3.222 0 6.282-1.413 8.372-3.865 34.116-40.028 73.545-22.903 88.913-13.684 1.709 1.025 3.666 1.567 5.659 1.567h58.29c6.894 0 12.502 5.608 12.502 12.503s-5.608 12.503-12.502 12.503h-58.29c-6.075 0-11 4.925-11 11s4.925 11 11 11h90.399c2.917 0 5.715-1.159 7.778-3.222l72.203-72.203c11.374-11.375 26.65-12.679 40.205-4.194z"/><g fill="#0496FF"><path d="m279.877 193.179c-3.038-5.262-9.765-7.064-15.026-4.026-6.684 3.858-15.265 1.562-19.125-5.124-1.87-3.238-2.366-7.011-1.398-10.623s3.284-6.631 6.523-8.501c2.526-1.459 4.37-3.861 5.125-6.68.755-2.817.36-5.82-1.099-8.347l-20-34.642c-1.458-2.526-3.861-4.37-6.679-5.125-2.82-.756-5.821-.36-8.347 1.099l-30.933 17.859c-11.279-10.217-28.32-12.518-42.189-4.51-8.328 4.808-14.284 12.571-16.773 21.859-1.508 5.627-1.633 11.406-.429 16.939l-30.919 17.852c-5.261 3.038-7.064 9.765-4.026 15.026l20 34.642c1.459 2.526 3.861 4.37 6.68 5.125 2.817.756 5.821.359 8.347-1.099 3.239-1.87 7.011-2.364 10.623-1.399 3.612.969 6.631 3.285 8.501 6.523s2.366 7.011 1.398 10.623-3.284 6.631-6.523 8.501c-2.526 1.459-4.37 3.861-5.125 6.68-.755 2.817-.36 5.82 1.099 8.347l20 34.642c1.458 2.526 3.861 4.37 6.679 5.125.937.251 1.894.375 2.847.375 1.915 0 3.814-.5 5.5-1.474l30.92-17.852c4.189 3.81 9.257 6.591 14.884 8.099 9.288 2.488 18.99 1.21 27.318-3.597 13.87-8.008 20.397-23.915 17.189-38.791l30.933-17.859c5.261-3.038 7.064-9.765 4.026-15.026zm-33.997 53.116c-5.261 3.038-7.064 9.765-4.026 15.026 3.86 6.686 1.561 15.265-5.125 19.124-3.237 1.871-7.01 2.365-10.623 1.399-3.612-.969-6.631-3.285-8.501-6.523-3.038-5.262-9.766-7.063-15.026-4.026l-29.445 17-9.852-17.063c3.81-4.189 6.591-9.258 8.099-14.885 2.489-9.288 1.211-18.99-3.596-27.317-4.809-8.328-12.571-14.284-21.859-16.773-5.628-1.508-11.407-1.635-16.94-.429l-9.852-17.063 29.445-17c2.526-1.459 4.37-3.861 5.125-6.68.755-2.817.36-5.82-1.099-8.347-1.87-3.238-2.367-7.011-1.399-10.623s3.285-6.632 6.523-8.501c6.685-3.859 15.265-1.561 19.125 5.124 3.038 5.262 9.766 7.062 15.026 4.026l29.445-17 9.852 17.063c-3.81 4.189-6.591 9.258-8.099 14.885-2.489 9.288-1.211 18.99 3.596 27.317 8.008 13.869 23.914 20.398 38.792 17.188l9.859 17.077z"/><path d="m472.789 48.621c-1.459-2.526-3.861-4.37-6.68-5.125l-34.486-9.24c-.269-5.656-1.886-11.207-4.798-16.252-4.808-8.328-12.571-14.285-21.86-16.773-15.468-4.144-31.334 2.487-39.584 15.275l-34.501-9.245c-5.869-1.574-11.899 1.909-13.472 7.778l-10.353 38.637c-.755 2.817-.36 5.82 1.099 8.347 1.459 2.526 3.862 4.37 6.68 5.125 3.612.968 6.631 3.284 8.5 6.523 1.87 3.238 2.367 7.012 1.398 10.624-.967 3.612-3.284 6.631-6.522 8.501-3.238 1.869-7.011 2.368-10.624 1.398-5.866-1.573-11.9 1.91-13.472 7.778l-10.353 38.637c-.755 2.817-.36 5.82 1.099 8.347 1.459 2.526 3.861 4.37 6.68 5.125l34.486 9.24c.269 5.656 1.885 11.207 4.798 16.252 4.808 8.328 12.571 14.285 21.86 16.773 3.109.833 6.232 1.231 9.309 1.23 12.229-.001 23.684-6.288 30.275-16.506l34.501 9.244c5.872 1.576 11.9-1.909 13.472-7.778l10.353-38.637c.755-2.817.36-5.82-1.099-8.347-1.459-2.526-3.861-4.37-6.68-5.125-3.612-.968-6.63-3.284-8.5-6.523-1.87-3.238-2.366-7.011-1.398-10.623s3.284-6.632 6.522-8.501c3.239-1.87 7.011-2.366 10.624-1.399 5.869 1.575 11.9-1.909 13.472-7.778l10.353-38.637c.755-2.816.36-5.819-1.099-8.345zm-28.098 32.309c-5.656.269-11.207 1.886-16.252 4.799-8.328 4.808-14.285 12.571-16.773 21.859-2.489 9.288-1.212 18.99 3.596 27.317 2.913 5.046 6.911 9.221 11.675 12.281l-5.1 19.032-32.841-8.8c-5.872-1.573-11.9 1.91-13.472 7.778-1.998 7.456-9.69 11.895-17.147 9.899-3.612-.968-6.631-3.284-8.5-6.523-1.87-3.238-2.367-7.012-1.399-10.624.755-2.817.36-5.82-1.099-8.347-1.459-2.526-3.861-4.37-6.68-5.125l-32.841-8.8 5.104-19.046c15.199-.753 28.877-11.175 33.021-26.644 2.489-9.288 1.212-18.989-3.596-27.317-2.913-5.046-6.911-9.221-11.675-12.282l5.1-19.031 32.841 8.8c5.871 1.575 11.9-1.909 13.472-7.778 1.998-7.455 9.688-11.894 17.147-9.899 3.612.968 6.631 3.284 8.5 6.523 1.87 3.238 2.367 7.012 1.399 10.624-.755 2.817-.36 5.82 1.099 8.347 1.459 2.526 3.861 4.37 6.68 5.125l32.841 8.8z"/></g></g><g/><g/><g/><g/><g/><g/><g/><g/><g/><g/><g/><g/><g/><g/><g/></svg>