<svg id="Capa_1" enable-background="new 0 0 512 512" viewBox="0 0 512 512" xmlns="http://www.w3.org/2000/svg" fill="#E6ECF2"><g><g><path d="m190.302 325.346-47.65-39.921c-6.771-6.164-15.556-9.365-24.754-9-9.304.361-17.893 4.307-24.185 11.109-1.521 1.646-2.854 3.398-3.997 5.234l-3.487-89.943c-.604-15.565-7.151-29.456-18.436-39.113-11.026-9.435-26.009-14.282-42.22-13.656-5.905.229-10.573 5.083-10.573 10.992v168.846c0 9.725 3.509 19.662 9.878 27.98l75.46 98.571v44.555c0 6.075 4.925 11 11 11h114.662c6.075 0 11-4.925 11-11v-80.021c0-56.509-20.607-73.775-46.698-95.633zm24.698 164.654h-92.662v-37.282c0-2.417-.796-4.768-2.266-6.687l-77.726-101.531c-3.398-4.437-5.346-9.761-5.346-14.606v-157.094c6.368 1.219 12.031 3.813 16.488 7.628 6.668 5.706 10.388 13.746 10.756 23.251l4.006 103.297c.113 2.915 1.379 5.665 3.52 7.646l23.722 21.959c.042.039.085.079.128.119l.073.067 43.223 40.011c4.461 4.128 11.418 3.858 15.545-.6s3.858-11.418-.6-15.545l-43.38-40.157c-5.096-4.802-5.381-12.854-.617-18.004 2.302-2.488 5.458-3.932 8.888-4.064 3.427-.137 6.688 1.061 9.175 3.362.134.123.27.243.408.359l47.839 40.079c25.035 20.977 38.826 32.53 38.826 78.771z"/><path d="m486.427 150.056c-16.203-.622-31.193 4.221-42.22 13.656-11.284 9.657-17.831 23.548-18.436 39.114l-3.487 89.941c-1.144-1.835-2.476-3.588-3.997-5.232-6.292-6.804-14.881-10.749-24.185-11.11-9.173-.364-17.982 2.837-24.754 9l-47.65 39.921c-26.091 21.858-46.698 39.124-46.698 95.633v80.021c0 6.075 4.925 11 11 11h114.662c6.075 0 11-4.925 11-11v-44.555l75.461-98.571c6.369-8.319 9.877-18.257 9.877-27.98v-168.846c0-5.909-4.668-10.763-10.573-10.992zm-11.427 179.838c0 4.846-1.948 10.17-5.346 14.607l-77.727 101.53c-1.47 1.919-2.266 4.27-2.266 6.687v37.282h-92.661v-69.021c0-46.241 13.791-57.795 38.827-78.771l47.839-40.079c.139-.116.274-.236.408-.359 2.486-2.302 5.737-3.502 9.175-3.362 3.43.133 6.586 1.576 8.888 4.065 4.764 5.149 4.479 13.201-.617 18.003l-43.38 40.157c-4.458 4.127-4.727 11.087-.6 15.545 4.128 4.458 11.088 4.728 15.545.6l43.223-40.011.073-.067c.043-.04.086-.08.128-.119l23.722-21.959c2.141-1.981 3.406-4.731 3.52-7.646l4.006-103.297c.368-9.505 4.088-17.545 10.756-23.251 4.457-3.814 10.119-6.409 16.488-7.628v157.094z"/></g><g fill="#0496FF"><path d="m337.177 97.844c-2.054-2.976-5.438-4.752-9.054-4.752h-144.246c-3.615 0-7 1.776-9.054 4.752l-44.574 64.59c-3.028 4.39-2.473 10.319 1.318 14.069l116.697 115.411c2.144 2.119 4.939 3.179 7.735 3.179s5.592-1.06 7.735-3.179l116.697-115.411c3.791-3.75 4.347-9.68 1.318-14.069zm-127.74 81.838 21.474 64.128-64.843-64.128zm61.678-64.59 9.734 42.59h-49.698l9.734-42.59zm8.248 64.59-23.363 69.767-23.363-69.768h46.726zm23.2 0h43.368l-64.843 64.128zm49.178-22h-48.325l-9.734-42.59h28.667zm-162.091-42.59h28.667l-9.734 42.59h-48.325z"/><path d="m478.847 43.739c-17.311-4.639-30.946-18.274-35.586-35.587-1.289-4.808-5.647-8.152-10.625-8.152s-9.337 3.344-10.625 8.153c-4.639 17.312-18.274 30.947-35.585 35.586-4.81 1.288-8.153 5.646-8.153 10.625s3.344 9.336 8.152 10.625c17.312 4.64 30.947 18.275 35.586 35.586 1.288 4.81 5.646 8.153 10.625 8.153s9.336-3.344 10.625-8.152c4.64-17.312 18.275-30.947 35.587-35.587 4.808-1.289 8.152-5.646 8.152-10.625s-3.344-9.337-8.153-10.625zm-46.211 28.406c-4.847-6.91-10.869-12.933-17.779-17.78 6.91-4.847 12.933-10.869 17.779-17.779 4.848 6.91 10.87 12.933 17.78 17.779-6.91 4.847-12.933 10.869-17.78 17.78z"/><path d="m133.728 54.364c0-4.979-3.344-9.337-8.153-10.625-17.311-4.639-30.946-18.274-35.585-35.586-1.289-4.809-5.647-8.153-10.626-8.153s-9.337 3.344-10.625 8.153c-4.639 17.312-18.274 30.947-35.586 35.586-4.809 1.288-8.153 5.647-8.153 10.625s3.344 9.336 8.152 10.625c17.312 4.64 30.948 18.275 35.587 35.586 1.288 4.81 5.646 8.153 10.625 8.153s9.337-3.344 10.625-8.153c4.639-17.311 18.274-30.946 35.586-35.586 4.809-1.289 8.153-5.646 8.153-10.625zm-54.364 17.78c-4.847-6.908-10.87-12.933-17.779-17.779 6.909-4.847 12.933-10.87 17.779-17.779 4.847 6.909 10.87 12.933 17.779 17.779-6.909 4.846-12.932 10.87-17.779 17.779z"/></g></g><g/><g/><g/><g/><g/><g/><g/><g/><g/><g/><g/><g/><g/><g/><g/></svg>