<svg id="Capa_1" enable-background="new 0 0 512 512" viewBox="0 0 512 512" xmlns="http://www.w3.org/2000/svg" fill="#E6ECF2"><g><g><path d="m508.779 133.222c-2.063-2.063-4.861-3.222-7.779-3.222h-157.286c-6.075 0-11 4.925-11 11s4.925 11 11 11h146.286v288h-185.244c-14.275 0-27.439 5.031-37.756 13.452v-137.451c0-6.075-4.925-11-11-11s-11 4.925-11 11v137.451c-10.318-8.421-23.481-13.452-37.756-13.452h-185.244v-288h146.287c6.075 0 11-4.925 11-11s-4.925-11-11-11h-157.287c-6.075 0-11 4.925-11 11v360c0 2.917 1.159 5.715 3.222 7.778s4.861 3.222 7.778 3.222h490c6.075 0 11-4.925 11-11v-360c0-2.917-1.158-5.715-3.221-7.778zm-486.779 356.778v-28h185.244c17.383 0 32.158 11.806 36.478 28zm468 0h-221.722c4.32-16.194 19.095-28 36.478-28h185.244z"/><path d="m245 186.807v60.748c0 6.075 4.925 11 11 11s11-4.925 11-11v-60.748l19.278-19.278c4.295-4.296 4.295-11.261 0-15.557-4.296-4.296-11.261-4.296-15.557 0l-14.721 14.723-14.722-14.722c-4.296-4.296-11.261-4.296-15.557 0-4.295 4.296-4.295 11.261 0 15.557z"/><path d="m47.5 266c0 6.075 4.925 11 11 11h152.825c6.075 0 11-4.925 11-11s-4.925-11-11-11h-152.825c-6.075 0-11 4.925-11 11z"/><path d="m58.5 337h75c6.075 0 11-4.925 11-11s-4.925-11-11-11h-75c-6.075 0-11 4.925-11 11s4.925 11 11 11z"/><path d="m58.5 396.999h150c6.075 0 11-4.925 11-11s-4.925-11-11-11h-150c-6.075 0-11 4.925-11 11s4.925 11 11 11z"/><path d="m58.5 217.001h109.575c6.075 0 11-4.925 11-11s-4.925-11-11-11h-109.575c-6.075 0-11 4.925-11 11s4.925 11 11 11z"/><path d="m300.675 277h152.825c6.075 0 11-4.925 11-11s-4.925-11-11-11h-152.825c-6.075 0-11 4.925-11 11s4.925 11 11 11z"/><path d="m453.5 315h-75c-6.075 0-11 4.925-11 11s4.925 11 11 11h75c6.075 0 11-4.925 11-11s-4.925-11-11-11z"/><path d="m453.5 374.999h-150c-6.075 0-11 4.925-11 11s4.925 11 11 11h150c6.075 0 11-4.925 11-11s-4.925-11-11-11z"/><path d="m453.5 217.001c6.075 0 11-4.925 11-11s-4.925-11-11-11h-109.575c-6.075 0-11 4.925-11 11s4.925 11 11 11z"/></g><g fill="#0496FF"><path d="m256 70.001c-55.691 0-101 45.309-101 101 0 36.656 20.153 70.563 51.901 88.272v36.729c0 2.917 1.159 5.715 3.222 7.778l15 15c2.063 2.063 4.861 3.222 7.778 3.222h46.2c2.917 0 5.715-1.159 7.778-3.222l15-15c2.063-2.062 3.222-4.86 3.222-7.778v-36.729c31.748-17.708 51.9-51.616 51.9-88.272-.001-55.692-45.31-101-101.001-101zm27.1 221.444-8.556 8.556h-37.086l-8.556-8.556v-27.89h54.198zm8.467-49.89h-71.134c-26.462-13.374-43.433-40.808-43.433-70.554 0-43.561 35.439-79 79-79s79 35.439 79 79c0 29.746-16.97 57.181-43.433 70.554z"/><path d="m256 47.001c6.075 0 11-4.925 11-11v-25.001c0-6.075-4.925-11-11-11s-11 4.925-11 11v25c0 6.076 4.925 11.001 11 11.001z"/><path d="m178.974 59.587c2.038 3.529 5.735 5.502 9.537 5.502 1.866 0 3.758-.476 5.49-1.476 5.261-3.038 7.064-9.765 4.026-15.026l-12.5-21.651c-3.038-5.262-9.766-7.064-15.026-4.026-5.261 3.038-7.064 9.765-4.026 15.026z"/><path d="m318 63.614c1.732 1 3.624 1.476 5.49 1.476 3.801 0 7.499-1.973 9.537-5.502l12.5-21.651c3.038-5.261 1.235-11.989-4.026-15.026s-11.988-1.234-15.026 4.026l-12.5 21.651c-3.039 5.26-1.236 11.988 4.025 15.026z"/></g></g><g/><g/><g/><g/><g/><g/><g/><g/><g/><g/><g/><g/><g/><g/><g/></svg>