<svg id="Capa_1" enable-background="new 0 0 512 512" viewBox="0 0 512 512" xmlns="http://www.w3.org/2000/svg" fill="#E6ECF2"><g><g><g><path d="m256 492c-130.131 0-236-105.869-236-236 0-130.132 105.869-236.001 236-236.001s236 105.869 236 236.001c0 130.131-105.869 236-236 236zm0-450.001c-118 0-214 96-214 214.001 0 118 96 214 214 214s214-96 214-214c0-118.001-96-214.001-214-214.001z"/></g><g><path d="m256 442c-102.561 0-186-83.439-186-186 0-102.562 83.439-186.001 186-186.001s186 83.439 186 186.001c0 102.561-83.439 186-186 186zm0-350.001c-90.43 0-164 73.57-164 164.001 0 90.43 73.57 164 164 164s164-73.57 164-164c0-90.431-73.57-164.001-164-164.001z"/></g></g><g fill="#0496FF"><path d="m273.222 148.516-6.222 6.221v-143.737c0-6.075-4.925-11-11-11s-11 4.925-11 11v143.737l-6.222-6.222c-4.296-4.295-11.261-4.295-15.557 0-4.295 4.296-4.295 11.261 0 15.557l25 25c2.148 2.147 4.963 3.222 7.778 3.222s5.63-1.074 7.778-3.222l25-25c4.295-4.296 4.295-11.261 0-15.557-4.295-4.294-11.259-4.294-15.555.001z"/><path d="m164.073 223.222c-4.296-4.295-11.261-4.295-15.557 0-4.295 4.296-4.295 11.261 0 15.557l6.222 6.222h-143.738c-6.075 0-11 4.925-11 11s4.925 11 11 11h143.738l-6.222 6.222c-4.295 4.296-4.295 11.261 0 15.557 2.148 2.147 4.963 3.222 7.778 3.222s5.63-1.074 7.778-3.222l25-25c4.295-4.296 4.295-11.261 0-15.557z"/><path d="m263.778 322.927c-4.296-4.295-11.261-4.295-15.557 0l-25 25c-4.295 4.296-4.295 11.261 0 15.557 4.296 4.295 11.261 4.295 15.557 0l6.222-6.222v143.738c0 6.075 4.925 11 11 11s11-4.925 11-11v-143.738l6.222 6.222c2.148 2.147 4.963 3.222 7.778 3.222s5.63-1.074 7.778-3.222c4.295-4.296 4.295-11.261 0-15.557z"/><path d="m501 245h-143.738l6.222-6.222c4.295-4.296 4.295-11.261 0-15.557-4.296-4.295-11.261-4.295-15.557 0l-25 25c-4.295 4.296-4.295 11.261 0 15.557l25 25c2.148 2.147 4.963 3.222 7.778 3.222s5.63-1.074 7.778-3.222c4.295-4.296 4.295-11.261 0-15.557l-6.221-6.221h143.738c6.075 0 11-4.925 11-11s-4.925-11-11-11z"/></g></g><g/><g/><g/><g/><g/><g/><g/><g/><g/><g/><g/><g/><g/><g/><g/></svg>