<svg id="Capa_1" enable-background="new 0 0 512.013 512.013" viewBox="0 0 512.013 512.013" xmlns="http://www.w3.org/2000/svg" fill="#052438"><g><g><path d="m232.999 343.692c-.957 0-1.914-.125-2.847-.375-21.078-5.648-51.426-24.225-81.181-49.693-32.749-28.032-60.697-60.638-78.695-91.812-20.729-35.903-28.94-72.227-23.748-105.045 4.637-29.301 19.964-55.24 43.16-73.039 21.335-16.372 47.752-24.755 74.358-23.612 25.377 1.092 49.021 10.552 68.96 27.491 16.649-14.099 36.129-23.136 56.894-26.314 22.518-3.446 45.424.024 66.243 10.036 21.084 10.139 38.279 26.152 49.727 46.31 12.32 21.695 17.257 47.301 14.274 74.049-.674 6.038-6.123 10.385-12.151 9.713-6.038-.673-10.387-6.113-9.714-12.151 5.716-51.256-22.943-84.279-51.67-98.093-28.288-13.603-70.945-15.707-105.831 19.178-4.297 4.296-11.26 4.296-15.557 0-39.992-39.993-91.349-32.779-122.14-9.152-32.014 24.564-54.823 78.492-13.752 149.63 36.732 63.624 109.079 119.189 143.674 130.41 2.826-.913 5.911-2.116 9.207-3.593 5.545-2.484 12.053-.004 14.537 5.54s.004 12.052-5.539 14.537c-5.507 2.468-10.676 4.356-15.361 5.612-.933.248-1.891.373-2.848.373z" fill="#0496FF"/></g><path d="m466.999 162.221c0-19.033-15.534-34.517-34.628-34.517-4.454 0-8.714.843-12.629 2.377-.168-18.89-15.635-34.207-34.625-34.207-4.455 0-8.719.845-12.636 2.381-.415-18.676-15.785-33.742-34.618-33.742s-34.203 15.065-34.619 33.741c-3.917-1.535-8.179-2.379-12.635-2.379-19.094 0-34.628 15.484-34.628 34.517v71.921c-3.212-.467-6.446-.701-9.653-.701-6.075 0-11 4.925-11 11v83.335c0 21.545 6.182 42.533 17.875 60.695 6.742 10.471 15.112 19.716 24.748 27.414l-.003 116.956c0 2.917 1.159 5.716 3.222 7.778 2.062 2.063 4.861 3.222 7.778 3.222h143.421c6.075 0 11-4.925 11-11l.003-126.752c15.119-19.543 23.627-43.684 23.627-68.797zm-22 143.244c0 29.435-14.567 57.235-38.969 74.366-4.973 3.491-6.173 10.351-2.683 15.323 2.141 3.05 5.55 4.681 9.013 4.681 2.183 0 4.389-.648 6.311-1.998.911-.64 1.812-1.292 2.701-1.956l-.002 94.132h-121.422l.002-92.175c1.385.584 2.83.862 4.255.862 4.083 0 8.005-2.283 9.905-6.203 2.651-5.467.368-12.047-5.099-14.697-31.397-15.223-51.685-47.353-51.685-81.853v-70.935c11.133 2.746 23.62 9.999 25.081 25.756l3.331 35.922c.524 5.657 5.271 9.984 10.953 9.984 18.949 0 39.845 11.036 43.812 35.691.966 5.999 6.616 10.079 12.607 9.113 5.998-.965 10.078-6.609 9.113-12.607-4.605-28.63-26.772-49.514-55.44-53.504l-2.47-26.63c-1.699-18.32-12.375-31.467-26.334-39.144v-79.201c0-6.902 5.665-12.517 12.628-12.517 6.962 0 12.626 5.615 12.626 12.517v72.387c0 6.075 4.925 11 11 11s11-4.925 11-11v-103.748c0-6.902 5.665-12.517 12.628-12.517s12.627 5.615 12.627 12.517v103.748c0 6.075 4.925 11 11 11s11-4.925 11-11v-72.404c.009-6.893 5.673-12.5 12.627-12.5 6.963 0 12.627 5.615 12.627 12.517v72.387c0 6.075 4.925 11 11 11s11-4.925 11-11v-40.561c.002-6.9 5.666-12.514 12.627-12.514 6.963 0 12.628 5.615 12.628 12.517v143.244z"/></g><g/><g/><g/><g/><g/><g/><g/><g/><g/><g/><g/><g/><g/><g/><g/></svg>