<svg id="Capa_1" enable-background="new 0 0 512 512" viewBox="0 0 512 512" xmlns="http://www.w3.org/2000/svg" fill="#E6ECF2"><g><g fill="#0496FF"><path d="m89 329.5h244.481v-22h-255.481c-6.075 0-11 4.925-11 11v96c0 6.075 4.925 11 11 11h212.91v-22h-201.91z"/><path d="m390 334c-36.944 0-67 30.056-67 67s30.056 67 67 67 67-30.056 67-67-30.056-67-67-67zm45 67c0 8.426-2.333 16.315-6.379 23.064l-61.685-61.686c6.749-4.045 14.638-6.378 23.064-6.378 24.813 0 45 20.187 45 45zm-90 0c0-8.426 2.333-16.315 6.379-23.064l61.685 61.686c-6.749 4.045-14.638 6.378-23.064 6.378-24.813 0-45-20.187-45-45z"/></g><g><path d="m316.013 206.22v-144.72c0-3.273-1.458-6.376-3.977-8.466s-5.833-2.949-9.055-2.345l-149.745 28.141c-5.201.977-8.968 5.519-8.968 10.811v109.541c-5.18-2.534-10.996-3.961-17.14-3.961-21.582 0-39.14 17.558-39.14 39.14s17.558 39.14 39.14 39.14 39.14-17.558 39.14-39.14v-83.335l127.745-24.006v44.022c-5.18-2.534-10.996-3.961-17.14-3.961-21.582 0-39.14 17.558-39.14 39.14s17.558 39.14 39.14 39.14 39.14-17.559 39.14-39.141zm-188.886 45.28c-9.451 0-17.14-7.689-17.14-17.14s7.689-17.14 17.14-17.14 17.14 7.689 17.14 17.14-7.688 17.14-17.14 17.14zm149.746-28.14c-9.451 0-17.14-7.689-17.14-17.14s7.689-17.14 17.14-17.14 17.14 7.689 17.14 17.14-7.689 17.14-17.14 17.14zm17.14-118.725-127.745 24.005v-29.874l127.745-24.006z"/><path d="m250.449 355.5h-96.897c-6.075 0-11 4.925-11 11s4.925 11 11 11h96.897c6.075 0 11-4.925 11-11s-4.925-11-11-11z"/><path d="m393 290.042v-279.042c0-6.075-4.925-11-11-11h-360c-6.075 0-11 4.925-11 11v454c0 6.075 4.925 11 11 11h286.247c20.304 22.114 49.436 36 81.753 36 61.206 0 111-49.794 111-111 0-60.202-48.176-109.363-108-110.958zm-360 163.958v-432h338v269.633c-52.185 9.039-92 54.638-92 109.367 0 19.182 4.892 37.241 13.492 53zm357 36c-49.075 0-89-39.925-89-89s39.925-89 89-89 89 39.925 89 89-39.925 89-89 89z"/></g></g><g/><g/><g/><g/><g/><g/><g/><g/><g/><g/><g/><g/><g/><g/><g/></svg>