<svg id="Capa_1" enable-background="new 0 0 512 512" viewBox="0 0 512 512" xmlns="http://www.w3.org/2000/svg" fill="#052438"><g><g><path d="m371 118h-96c-6.075 0-11-4.925-11-11v-96h22v85h85z" fill="#0496FF"/></g><g><path d="m382 214.75v-107.75c0-2.917-1.159-5.715-3.222-7.778l-96-96c-2.063-2.063-4.861-3.222-7.778-3.222h-264c-6.075 0-11 4.925-11 11v454c0 6.075 4.925 11 11 11h360c6.075 0 11-4.925 11-11v-65.581h-22v54.581h-338v-432h248.443l89.557 89.556v103.194z"/><path d="m238 115v-56c0-6.075-4.925-11-11-11h-168c-6.075 0-11 4.925-11 11v56c0 6.075 4.925 11 11 11h168c6.075 0 11-4.925 11-11zm-22-11h-146v-34h146z"/><path d="m233.452 171c0-6.075-4.925-11-11-11h-163.452c-6.075 0-11 4.925-11 11s4.925 11 11 11h163.452c6.075 0 11-4.925 11-11z"/><path d="m173.229 230c6.075 0 11-4.925 11-11s-4.925-11-11-11h-49.607c-6.075 0-11 4.925-11 11s4.925 11 11 11z"/><path d="m59 230h19.747c6.075 0 11-4.925 11-11s-4.925-11-11-11h-19.747c-6.075 0-11 4.925-11 11s4.925 11 11 11z"/><path d="m59 278h92.863c6.075 0 11-4.925 11-11s-4.925-11-11-11h-92.863c-6.075 0-11 4.925-11 11s4.925 11 11 11z"/><path d="m59 326h87.788c6.075 0 11-4.925 11-11s-4.925-11-11-11h-87.788c-6.075 0-11 4.925-11 11s4.925 11 11 11z"/><path d="m167.857 363c0-6.075-4.925-11-11-11h-97.857c-6.075 0-11 4.925-11 11s4.925 11 11 11h97.857c6.075 0 11-4.925 11-11z"/><path d="m168.389 422h16.75c6.075 0 11-4.925 11-11s-4.925-11-11-11h-16.75c-6.075 0-11 4.925-11 11s4.925 11 11 11z"/><path d="m59 400c-6.075 0-11 4.925-11 11s4.925 11 11 11h64.621c6.075 0 11-4.925 11-11s-4.925-11-11-11z"/></g><g fill="#0496FF"><path d="m511.961 464.882c-.522-12.604-6.344-24.506-15.972-32.657l-79.877-67.621c9.102-17.183 14.268-36.759 14.268-57.521 0-67.986-55.311-123.296-123.297-123.296s-123.296 55.31-123.296 123.296 55.31 123.296 123.296 123.296c20.762 0 40.337-5.166 57.52-14.268l67.622 79.877c8.15 9.627 20.054 15.449 32.656 15.972.621.026 1.24.039 1.859.039 11.95 0 23.527-4.771 32.007-13.251 8.921-8.919 13.736-21.263 13.214-33.866zm-306.173-157.798c0-55.854 45.441-101.296 101.296-101.296s101.297 45.441 101.297 101.296-45.441 101.296-101.297 101.296c-55.854 0-101.296-45.441-101.296-101.296zm277.403 176.108c-4.648 4.648-10.811 7.055-17.397 6.788-6.57-.272-12.528-3.187-16.777-8.206l-65.823-77.752c7.741-6.091 14.738-13.087 20.828-20.828l77.752 65.823c5.019 4.249 7.933 10.207 8.205 16.777s-2.137 12.748-6.788 17.398z"/><path d="m348.415 265.753c-4.297-4.296-11.26-4.296-15.557 0l-25.774 25.774-25.774-25.774c-4.297-4.295-11.262-4.296-15.557 0-4.296 4.296-4.296 11.261 0 15.557l25.774 25.774-25.774 25.774c-4.296 4.296-4.296 11.261 0 15.557 2.148 2.148 4.963 3.222 7.778 3.222s5.63-1.074 7.778-3.222l25.774-25.774 25.774 25.774c2.148 2.148 4.963 3.222 7.778 3.222 2.814 0 5.631-1.074 7.778-3.222 4.296-4.296 4.296-11.261 0-15.557l-25.774-25.774 25.774-25.774c4.298-4.296 4.298-11.261.002-15.557z"/></g></g><g/><g/><g/><g/><g/><g/><g/><g/><g/><g/><g/><g/><g/><g/><g/></svg>