<svg id="Capa_1" enable-background="new 0 0 512 512" viewBox="0 0 512 512" xmlns="http://www.w3.org/2000/svg" fill="#052438"><g><g fill="#0496FF"><path d="m374.9 159.1v-70.1h-22v81.1c0 6.075 4.925 11 11 11h81.1v-22z"/><path d="m293 217.43c-61.206 0-111 49.794-111 111s49.794 111 111 111 111-49.794 111-111-49.794-111-111-111zm0 200c-49.075 0-89-39.925-89-89s39.925-89 89-89 89 39.925 89 89-39.925 89-89 89z"/><path d="m328.778 292.652c-4.297-4.296-11.26-4.296-15.557 0l-20.221 20.222-20.222-20.222c-4.297-4.296-11.26-4.296-15.557 0-4.295 4.296-4.295 11.261 0 15.557l20.222 20.222-20.222 20.222c-4.295 4.296-4.295 11.261 0 15.557 2.148 2.148 4.963 3.222 7.778 3.222s5.63-1.074 7.778-3.222l20.223-20.223 20.222 20.222c2.148 2.148 4.963 3.222 7.778 3.222s5.63-1.074 7.778-3.222c4.296-4.296 4.296-11.261 0-15.557l-20.222-20.222 20.222-20.222c4.296-4.295 4.296-11.26 0-15.556z"/><path d="m193 150.57h98.532c6.075 0 11-4.925 11-11s-4.925-11-11-11h-98.532c-6.075 0-11 4.925-11 11s4.925 11 11 11z"/><path d="m193 194.57h49.266c6.075 0 11-4.925 11-11s-4.925-11-11-11h-49.266c-6.075 0-11 4.925-11 11s4.925 11 11 11z"/></g><g><path d="m51 78h-16c-19.299 0-35 15.701-35 35v297.065c0 1.6.349 3.181 1.022 4.632l32 68.934c1.804 3.884 5.696 6.369 9.978 6.369s8.174-2.485 9.978-6.369l32-68.934c.673-1.451 1.022-3.032 1.022-4.632v-297.065c0-19.299-15.701-35-35-35zm-8 374.875-14.766-31.81h29.533zm21-53.81h-42v-236.859l42 .252zm0-258.608-42-.251v-27.206c0-7.168 5.832-13 13-13h16c7.168 0 13 5.832 13 13z"/><path d="m501 22h-304c-6.075 0-11 4.925-11 11v45h-45c-6.075 0-11 4.925-11 11v390c0 6.075 4.925 11 11 11h304c6.075 0 11-4.925 11-11v-45h45c6.075 0 11-4.925 11-11v-390c0-6.075-4.925-11-11-11zm-67 446h-282v-368h207.344l74.656 74.656zm56-56h-34v-241.9c0-2.917-1.159-5.715-3.222-7.778l-81.1-81.1c-2.063-2.063-4.861-3.222-7.778-3.222h-155.9v-34h282z"/></g></g><g/><g/><g/><g/><g/><g/><g/><g/><g/><g/><g/><g/><g/><g/><g/></svg>