<svg id="Capa_1" enable-background="new 0 0 512 512" viewBox="0 0 512 512" xmlns="http://www.w3.org/2000/svg" fill="#052438"><g><g fill="#0496FF"><path d="m357.388 103.612v-92.612h-22v103.612c0 6.075 4.925 11 11 11h103.612v-22z"/><path d="m394 418h-276c-6.075 0-11 4.925-11 11s4.925 11 11 11h276c6.075 0 11-4.925 11-11s-4.925-11-11-11z"/><path d="m118 95.656h172.388c6.075 0 11-4.925 11-11s-4.925-11-11-11h-172.388c-6.075 0-11 4.925-11 11s4.925 11 11 11z"/><path d="m290.388 121.656h-105.59c-6.075 0-11 4.925-11 11s4.925 11 11 11h105.589c6.075 0 11-4.925 11-11s-4.924-11-10.999-11z"/><path d="m118 143.656h22.857c6.075 0 11-4.925 11-11s-4.925-11-11-11h-22.857c-6.075 0-11 4.925-11 11s4.925 11 11 11z"/></g><g><path d="m454.209 308.023c-4.111-1.704-8.842-.762-11.988 2.384l-29.915 29.916-31.334-33.744c-2.082-2.242-5.002-3.515-8.061-3.515-.005 0-.01 0-.015 0-3.063.004-5.987 1.286-8.066 3.536l-31.015 33.578-35.726-36.785c-3.968-4.085-10.397-4.467-14.819-.881l-48.799 39.567-79.563-62.958c-4.378-3.464-10.656-3.1-14.604.848l-86.083 86.083c-2.062 2.062-3.221 4.86-3.221 7.778v127.17c0 6.075 4.925 11 11 11h388c6.075 0 11-4.925 11-11v-182.814c0-4.449-2.68-8.46-6.791-10.163zm-15.209 181.977h-366v-111.614l75.937-75.936 78.793 62.35c4.037 3.195 9.752 3.162 13.753-.082l47.832-38.782 36.811 37.901c2.105 2.167 5.026 3.36 8.029 3.335 3.021-.038 5.893-1.316 7.943-3.535l30.836-33.384 31.019 33.405c2.033 2.19 4.87 3.458 7.857 3.513 2.972.053 5.869-1.107 7.982-3.22l19.208-19.208z"/><path d="m457.778 106.834-103.612-103.612c-2.063-2.063-4.861-3.222-7.778-3.222h-284.388c-6.075 0-11 4.925-11 11v263.738c0 4.449 2.68 8.46 6.791 10.163 1.361.564 2.79.838 4.207.838 2.863 0 5.676-1.118 7.781-3.222l61.501-61.502 78.794 62.35c4.037 3.195 9.753 3.162 13.753-.082l47.832-38.782 36.811 37.901c2.105 2.167 5 3.38 8.029 3.335 3.021-.038 5.893-1.316 7.943-3.535l30.836-33.384 31.019 33.405c2.033 2.19 4.87 3.458 7.857 3.513 2.991.077 5.869-1.106 7.982-3.22l55.644-55.644c2.063-2.063 3.222-4.861 3.222-7.778v-104.482c-.002-2.917-1.161-5.715-3.224-7.778zm-18.778 107.704-44.35 44.35-31.333-33.744c-2.082-2.242-5.002-3.515-8.061-3.515-.005 0-.01 0-.014 0-3.064.004-5.987 1.286-8.066 3.536l-31.016 33.578-35.727-36.786c-3.968-4.084-10.397-4.467-14.819-.88l-48.799 39.567-79.563-62.958c-2.01-1.591-4.421-2.374-6.823-2.374-2.829 0-5.646 1.087-7.781 3.222l-49.648 49.648v-226.182h268.832l97.168 97.168z"/></g></g><g/><g/><g/><g/><g/><g/><g/><g/><g/><g/><g/><g/><g/><g/><g/></svg>