<svg id="Capa_1" enable-background="new 0 0 512 512" viewBox="0 0 512 512" xmlns="http://www.w3.org/2000/svg" fill="#052438"><g><g><g><path d="m302.913 98.738c18.819 4.551 36.762 11.79 53.44 21.555l14.312-10.986c4.38-3.36 10.571-2.957 14.477.947l52.701 52.701c3.903 3.904 4.309 10.097.947 14.476l-10.985 14.312c9.148 15.622 16.069 32.327 20.646 49.831l17.882 2.351c5.474.72 9.566 5.386 9.566 10.906v74.535c0 5.521-4.093 10.187-9.566 10.906l-17.882 2.352c-4.577 17.503-11.498 34.208-20.646 49.831l10.985 14.312c3.361 4.379 2.956 10.572-.947 14.476l-52.701 52.7c-3.905 3.902-10.098 4.308-14.477.947l-14.311-10.985c-15.624 9.148-32.329 16.069-49.831 20.646l-2.352 17.882c-.72 5.474-5.386 9.566-10.906 9.566h-74.531c-5.521 0-10.187-4.093-10.906-9.566l-2.351-17.882c-17.503-4.577-34.208-11.498-49.832-20.646l-14.312 10.985c-4.379 3.361-10.57 2.958-14.476-.947l-52.701-52.7c-3.904-3.904-4.309-10.097-.948-14.477l10.986-14.312c-9.148-15.623-16.069-32.328-20.646-49.832l-17.882-2.351c-5.474-.72-9.566-5.386-9.566-10.906v-74.535c0-5.521 4.093-10.187 9.566-10.906l17.881-2.351c4.577-17.504 11.498-34.208 20.646-49.831l-10.986-14.312c-3.361-4.379-2.956-10.571.948-14.476l52.701-52.701c3.904-3.903 10.097-4.308 14.476-.947l14.312 10.986c16.419-9.612 34.066-16.779 52.567-21.341l5.267 21.359c-18.679 4.606-36.382 12.202-52.617 22.576-3.902 2.493-8.947 2.275-12.621-.544l-12.651-9.711-39.056 39.057 9.711 12.65c2.819 3.674 3.037 8.72.543 12.621-11.181 17.498-19.113 36.642-23.575 56.901-.996 4.522-4.718 7.937-9.309 8.54l-15.805 2.077v55.238l15.806 2.078c4.591.604 8.312 4.018 9.309 8.54 4.462 20.26 12.394 39.403 23.575 56.901 2.494 3.901 2.276 8.947-.543 12.621l-9.711 12.65 39.056 39.056 12.651-9.71c3.672-2.819 8.719-3.036 12.621-.544 17.498 11.182 36.642 19.113 56.901 23.575 4.522.996 7.936 4.717 8.54 9.309l2.08 15.809h55.234l2.078-15.806c.604-4.592 4.018-8.312 8.54-9.309 20.258-4.462 39.402-12.394 56.901-23.575 3.901-2.493 8.947-2.275 12.621.544l12.649 9.71 39.057-39.056-9.71-12.651c-2.819-3.673-3.037-8.719-.544-12.62 11.182-17.498 19.113-36.643 23.575-56.901.996-4.522 4.717-7.937 9.309-8.54l15.806-2.078v-55.238l-15.806-2.077c-4.591-.604-8.312-4.018-9.309-8.54-4.463-20.261-12.395-39.404-23.574-56.901-2.494-3.901-2.276-8.947.543-12.62l9.71-12.651-39.056-39.057-12.65 9.711c-3.672 2.82-8.72 3.036-12.621.544-16.464-10.521-34.428-18.18-53.394-22.765z" fill="#0496FF"/></g><path d="m311 198.838v-118.667c0-2.092-.596-4.14-1.719-5.904l-44-69.171c-2.019-3.174-5.52-5.096-9.281-5.096s-7.262 1.922-9.281 5.096l-44 69.171c-1.123 1.765-1.719 3.812-1.719 5.904v118.667c-32.877 19.43-53.265 55.063-53.265 93.264 0 59.698 48.567 108.266 108.265 108.266s108.266-48.567 108.266-108.271c-.001-38.196-20.389-73.83-53.266-93.259zm-88-104.641h22.127v283.46c-7.738-.978-15.163-2.97-22.127-5.865zm44.127 0h21.873v277.596c-6.888 2.863-14.226 4.843-21.873 5.833zm-11.127-62.702 25.891 40.702h-51.782zm-86.265 260.601c0-25.832 11.704-50.198 31.265-66.447v132.857c-19.087-15.837-31.265-39.726-31.265-66.41zm141.265 66.41v-132.858c19.562 16.25 31.266 40.617 31.266 66.454-.001 26.681-12.179 50.568-31.266 66.404z"/></g></g><g/><g/><g/><g/><g/><g/><g/><g/><g/><g/><g/><g/><g/><g/><g/></svg>