<svg id="Capa_1" enable-background="new 0 0 512 512" viewBox="0 0 512 512" xmlns="http://www.w3.org/2000/svg" fill="#052438"><g><g><path d="m426 358h-340v-175h86v-22h-97c-6.075 0-11 4.925-11 11v197c0 6.075 4.925 11 11 11h362c6.075 0 11-4.925 11-11v-197c0-6.075-4.925-11-11-11h-97v22h86z"/><path d="m501 402h-9v-234c0-28.122-22.878-51-51-51h-101v22h101c15.991 0 29 13.009 29 29v234h-428v-234c0-15.991 13.009-29 29-29h101v-22h-101c-28.122 0-51 22.878-51 51v234h-9c-6.075 0-11 4.925-11 11v44c0 30.327 24.673 55 55 55h402c30.327 0 55-24.673 55-55v-44c0-6.075-4.925-11-11-11zm-295.313 22h100.627v11c0 6.065-4.935 11-11 11h-78.627c-6.065 0-11-4.935-11-11zm284.313 33c0 18.196-14.804 33-33 33h-402c-18.196 0-33-14.804-33-33v-33h161.687v11c0 18.196 14.804 33 33 33h78.627c18.196 0 33-14.804 33-33v-11h161.686z"/></g><g fill="#0496FF"><path d="m256 172.2c21.505 0 39-17.495 39-39s-17.495-39-39-39-39 17.495-39 39 17.495 39 39 39zm0-56c9.374 0 17 7.626 17 17s-7.626 17-17 17-17-7.626-17-17 7.626-17 17-17z"/><path d="m397.974 189.078-46.974-23.831v-15.42c0-62.596-34.446-119.525-89.896-148.57-3.196-1.675-7.012-1.675-10.208 0-55.45 29.045-89.896 85.973-89.896 148.569v15.42l-46.974 23.831c-3.695 1.875-6.023 5.666-6.023 9.81v64.466c0 6.075 4.925 11 11 11h97.25c-.274 2.302-.426 4.625-.426 6.968 0 23.646 14.114 44.779 35.958 53.84 1.349.56 2.782.839 4.215.839s2.866-.28 4.215-.839c21.844-9.061 35.958-30.194 35.958-53.84 0-2.344-.153-4.667-.427-6.968h97.252c6.075 0 11-4.925 11-11v-64.466c-.001-4.143-2.329-7.935-6.024-9.809zm-141.974-165.531c45.175 25.981 73 73.842 73 126.279v54.527h-146v-54.527c0-52.437 27.825-100.297 73-126.279zm-125.997 182.094 30.997-15.725v62.438h-30.997zm144.17 75.68c0 13.137-7 25.03-18.173 31.446-11.172-6.416-18.172-18.308-18.172-31.446 0-2.36.23-4.688.673-6.968h35.002c.443 2.28.67 4.607.67 6.968zm-91.173-28.968v-26h146v26zm198.997 0h-30.997v-62.438l30.997 15.726z"/></g></g><g/><g/><g/><g/><g/><g/><g/><g/><g/><g/><g/><g/><g/><g/><g/></svg>