<svg id="Capa_1" enable-background="new 0 0 512 512" viewBox="0 0 512 512" xmlns="http://www.w3.org/2000/svg" fill="#052438"><g><g fill="#0496FF"><path d="m457 218.74h-64c-6.075 0-11 4.925-11 11v205.26c0 6.075 4.925 11 11 11h64c6.075 0 11-4.925 11-11v-205.26c0-6.075-4.925-11-11-11zm-11 205.26h-42v-183.26h42z"/><path d="m349 267.127h-64c-6.075 0-11 4.925-11 11v156.873c0 6.075 4.925 11 11 11h64c6.075 0 11-4.925 11-11v-156.873c0-6.075-4.925-11-11-11zm-11 156.873h-42v-134.873h42z"/><path d="m241 335.588h-64c-6.075 0-11 4.925-11 11v88.412c0 6.075 4.925 11 11 11h64c6.075 0 11-4.925 11-11v-88.412c0-6.075-4.925-11-11-11zm-11 88.412h-42v-66.412h42z"/><path d="m210.351 237.023c0-45.779-37.244-83.023-83.023-83.023s-83.023 37.244-83.023 83.023 37.244 83.023 83.023 83.023 83.023-37.243 83.023-83.023zm-23.013-11h-49.328v-49.068c24.992 4.434 44.766 24.12 49.328 49.068zm-60.011 72.024c-33.648 0-61.023-27.375-61.023-61.023 0-29.781 21.449-54.631 49.706-59.954v59.954c0 6.075 4.925 11 11 11h60.329c-5.197 28.413-30.12 50.023-60.012 50.023z"/></g><g><path d="m501 22h-490c-6.075 0-11 4.925-11 11v446c0 6.075 4.925 11 11 11h490c6.075 0 11-4.925 11-11v-446c0-6.075-4.925-11-11-11zm-11 22v66h-468v-66zm-468 424v-336h468v336z"/><path d="m67 88c3.612.014 7.153-1.874 9.149-4.891 5.962-9.011-3.359-20.383-13.359-16.27-11.011 4.687-7.755 21.032 4.21 21.161z"/><path d="m119 88c3.612.014 7.153-1.874 9.149-4.891 5.962-9.011-3.359-20.383-13.359-16.27-11.011 4.687-7.755 21.032 4.21 21.161z"/><path d="m171 88c7.593.217 13.268-8.283 10.16-15.21-3.626-8.979-16.69-8.975-20.32 0-3.087 6.993 2.526 15.375 10.16 15.21z"/><path d="m256 88h189c6.075 0 11-4.925 11-11s-4.925-11-11-11h-189c-6.075 0-11 4.925-11 11s4.925 11 11 11z"/><path d="m349 154.008h-92.873c-6.075 0-11 4.925-11 11s4.925 11 11 11h92.873c6.075 0 11-4.925 11-11s-4.925-11-11-11z"/><path d="m309.271 198.75h-53.144c-6.075 0-11 4.925-11 11s4.925 11 11 11h53.144c6.075 0 11-4.925 11-11s-4.925-11-11-11z"/></g></g><g/><g/><g/><g/><g/><g/><g/><g/><g/><g/><g/><g/><g/><g/><g/></svg>