<svg id="Capa_1" enable-background="new 0 0 512.003 512.003" viewBox="0 0 512.003 512.003" xmlns="http://www.w3.org/2000/svg" fill="#052438"><g><g><path d="m511.528 346.189-33.08-109.105c-.421-49.232-19.641-95.59-54.228-130.708-34.935-35.469-83.123-55.458-132.857-56.261-34.668 0-69.903 9.331-99.313 27.105-13.56 1.139-26.49 5.776-37.728 13.599-9.484 6.601-17.286 15.108-22.973 24.971-6.952-2.548-14.337-3.869-21.82-3.869-29.595 0-54.732 20.226-61.551 48.237-27.863 6.918-47.977 32.025-47.977 61.481 0 30.954 22.448 57.108 52.272 62.387 10.389 21.917 32.588 36.208 57.255 36.208h6.684c2.234 6.111 4.688 12.099 7.337 17.868 18.3 39.857 24.625 83.241 18.291 125.461l-5.371 35.808c-.476 3.167.453 6.383 2.543 8.81 2.09 2.426 5.133 3.822 8.335 3.822h179.533c6.075 0 11-4.925 11-11v-30.062h65.111c30.796 0 55.85-25.054 55.85-55.849v-54.712h42.161c3.482 0 6.76-1.649 8.835-4.447s2.702-6.411 1.691-9.744zm-401.999-47.954c-17.658 0-33.381-11.22-39.122-27.919-1.444-4.2-5.272-7.12-9.705-7.401-21.701-1.378-38.7-19.508-38.7-41.274 0-21.083 15.775-38.752 36.695-41.1 5.121-.575 9.156-4.627 9.71-9.75 2.27-21.018 19.948-36.868 41.122-36.868 7.524 0 14.892 2.041 21.303 5.902 2.777 1.674 6.153 2.036 9.224.989 3.069-1.046 5.521-3.394 6.699-6.416 8.4-21.542 28.771-35.461 51.895-35.461 22.45 0 42.596 13.367 51.325 34.054 1.19 2.822 3.504 5.02 6.384 6.064 2.877 1.044 6.062.842 8.786-.561 5.892-3.033 12.248-4.571 18.894-4.571 22.812 0 41.371 18.559 41.371 41.371 0 2.249-.194 4.556-.576 6.856-.77 4.623 1.476 9.226 5.592 11.466 17.953 9.773 29.105 28.526 29.105 48.942 0 30.701-24.978 55.678-55.679 55.678h-26.348c-6.075 0-11 4.925-11 11v32.594h-26.471l-19.682-37.686c-1.896-3.631-5.653-5.908-9.75-5.908h-101.072zm338.312 40.146c-6.075 0-11 4.925-11 11v65.712c0 18.664-15.185 33.849-33.85 33.849h-76.111c-6.075 0-11 4.925-11 11v30.062h-155.759l3.476-23.176c6.971-46.462.036-94.148-20.053-137.904-1.302-2.837-2.539-5.746-3.737-8.689h64.129l19.682 37.686c1.896 3.631 5.653 5.908 9.75 5.908h44.136c6.075 0 11-4.925 11-11v-32.594h15.348c42.832 0 77.679-34.846 77.679-77.678 0-25.967-12.93-50.004-34.188-64.373.045-.967.067-1.932.067-2.891 0-34.943-28.428-63.371-63.371-63.371-6.332 0-12.655.964-18.696 2.828-8.445-14.153-21.06-25.068-35.866-31.456 19.928-7.687 41.288-11.515 63.091-11.168 43.93.709 85.118 18.356 115.979 49.689 30.894 31.367 47.908 72.892 47.908 116.924 0 1.082.159 2.157.474 3.192l29.243 96.451h-38.331z"/><g><g><path d="m200.191 274.523c-4.349.042-8.542-2.741-10.149-6.79-5.08-13.673 14.238-21.669 20.31-8.41 2.391 5.39-.453 12.227-5.95 14.36-1.323.562-2.769.84-4.211.84z" fill="#0496FF"/></g><g><path d="m200.197 229.552c-6.075 0-11-4.925-11-11 0-11.61 7.095-21.897 18.073-26.207 7.855-3.084 12.781-10.838 12.257-19.296-.593-9.541-8.532-17.48-18.074-18.072-5.417-.341-10.582 1.513-14.516 5.211-3.939 3.702-6.108 8.716-6.108 14.118 0 6.075-4.925 11-11 11s-11-4.925-11-11c0-11.371 4.754-22.359 13.042-30.149 8.405-7.9 19.401-11.856 30.945-11.138 20.755 1.289 37.379 17.912 38.668 38.667 1.118 18.021-9.401 34.553-26.175 41.138-2.498.98-4.112 3.229-4.112 5.729 0 6.074-4.925 10.999-11 10.999z" fill="#0496FF"/></g></g><g><path d="m99.29 54.325c-4.478 0-8.686-2.754-10.323-7.202l-11.903-32.318c-2.1-5.701.82-12.024 6.521-14.124 5.7-2.1 12.024.819 14.124 6.521l11.902 32.319c2.1 5.701-.82 12.024-6.521 14.124-1.253.461-2.538.68-3.8.68z" fill="#0496FF"/></g><g><path d="m39.106 98.546c-2.343 0-4.703-.745-6.702-2.284l-20.996-16.164c-4.814-3.706-5.712-10.613-2.006-15.427 3.704-4.814 10.613-5.712 15.426-2.006l20.996 16.164c4.814 3.706 5.712 10.613 2.006 15.427-2.166 2.814-5.427 4.29-8.724 4.29z" fill="#0496FF"/></g><g><path d="m173.784 48.955c-.756 0-1.523-.079-2.293-.242-5.942-1.26-9.738-7.1-8.479-13.042l5.715-26.95c1.26-5.943 7.096-9.741 13.043-8.479 5.942 1.26 9.738 7.1 8.479 13.042l-5.715 26.95c-1.097 5.175-5.665 8.721-10.75 8.721z" fill="#0496FF"/></g></g></g><g/><g/><g/><g/><g/><g/><g/><g/><g/><g/><g/><g/><g/><g/><g/></svg>