<svg id="Capa_1" enable-background="new 0 0 512 512" viewBox="0 0 512 512" xmlns="http://www.w3.org/2000/svg" fill="#E6ECF2"><g><g><g><path d="m256 78c-21.505 0-39-17.495-39-39s17.495-39 39-39 39 17.495 39 39-17.495 39-39 39zm0-56c-9.374 0-17 7.626-17 17s7.626 17 17 17 17-7.626 17-17-7.626-17-17-17z" fill="#0496FF"/></g><g><path d="m256 512c-21.505 0-39-17.495-39-39s17.495-39 39-39 39 17.495 39 39-17.495 39-39 39zm0-56c-9.374 0-17 7.626-17 17s7.626 17 17 17 17-7.626 17-17-7.626-17-17-17z" fill="#0496FF"/></g><g><path d="m68.155 403.555c-13.489 0-26.625-6.994-33.841-19.491-5.209-9.022-6.593-19.532-3.896-29.594 2.696-10.062 9.15-18.473 18.172-23.681 9.021-5.208 19.53-6.591 29.594-3.896 10.062 2.696 18.473 9.149 23.681 18.171 5.209 9.021 6.593 19.531 3.896 29.593-2.696 10.062-9.149 18.472-18.171 23.681-6.126 3.537-12.823 5.217-19.435 5.217zm-.093-55.999c-2.945 0-5.853.772-8.472 2.285-3.933 2.271-6.746 5.937-7.921 10.322-1.176 4.386-.572 8.967 1.698 12.899 4.687 8.119 15.106 10.909 23.223 6.223 3.933-2.271 6.745-5.936 7.92-10.322 1.176-4.386.572-8.967-1.698-12.899-2.271-3.933-5.936-6.746-10.322-7.921-1.465-.393-2.952-.587-4.428-.587z" fill="#0496FF"/></g><g><path d="m444.228 186.453c-3.388 0-6.797-.445-10.157-1.346-10.062-2.696-18.473-9.149-23.681-18.171-5.209-9.021-6.593-19.531-3.896-29.593 2.696-10.062 9.149-18.472 18.171-23.681 18.624-10.752 42.522-4.348 53.275 14.274 5.209 9.022 6.593 19.532 3.896 29.594-2.696 10.062-9.15 18.473-18.172 23.681-6.009 3.47-12.679 5.242-19.436 5.242zm-8.564-53.739c-3.933 2.271-6.745 5.936-7.92 10.322-1.176 4.386-.572 8.967 1.698 12.899 2.271 3.933 5.936 6.746 10.322 7.921 4.383 1.175 8.967.573 12.899-1.698 3.933-2.271 6.746-5.937 7.921-10.322 1.176-4.386.572-8.967-1.698-12.899-4.686-8.118-15.104-10.908-23.222-6.223z" fill="#0496FF"/></g><g><path d="m444.099 403.556c-6.613 0-13.308-1.68-19.435-5.217-9.021-5.209-15.475-13.619-18.171-23.681s-1.312-20.572 3.896-29.594c5.208-9.021 13.618-15.474 23.681-18.17 10.063-2.697 20.573-1.312 29.594 3.896s15.476 13.619 18.172 23.681 1.312 20.572-3.896 29.594c-7.216 12.495-20.354 19.491-33.841 19.491zm-8.435-24.27c8.114 4.685 18.534 1.896 23.223-6.223 2.271-3.932 2.874-8.513 1.698-12.899-1.175-4.386-3.988-8.052-7.921-10.322-3.933-2.271-8.515-2.873-12.899-1.698-4.387 1.175-8.052 3.988-10.322 7.92-2.271 3.933-2.874 8.514-1.698 12.9 1.174 4.386 3.986 8.051 7.919 10.322z" fill="#0496FF"/></g><g><path d="m68.026 186.453c-6.759 0-13.427-1.772-19.437-5.242-9.021-5.208-15.476-13.619-18.172-23.681s-1.312-20.572 3.896-29.594c10.754-18.624 34.652-25.025 53.275-14.274 9.021 5.209 15.475 13.619 18.171 23.681s1.312 20.572-3.896 29.594c-5.208 9.021-13.618 15.474-23.681 18.17-3.358.901-6.769 1.346-10.156 1.346zm.092-56.013c-5.88 0-11.605 3.049-14.751 8.497-2.271 3.932-2.874 8.513-1.698 12.899 1.175 4.386 3.988 8.052 7.921 10.322 3.933 2.271 8.514 2.874 12.899 1.698 4.387-1.175 8.052-3.988 10.322-7.92 2.271-3.933 2.874-8.514 1.698-12.9-1.175-4.386-3.987-8.052-7.92-10.322-2.669-1.541-5.588-2.274-8.471-2.274z" fill="#0496FF"/></g></g><g><path d="m256 101c-85.468 0-155 69.533-155 155s69.532 155 155 155 155-69.533 155-155-69.532-155-155-155zm-101.03 68.602h63.585c10.869 0 19.712 8.843 19.712 19.712 0 6.075 4.925 11 11 11 10.869 0 19.712 8.843 19.712 19.712s-8.843 19.711-19.712 19.711h-125.271c3.255-26.581 14.383-50.761 30.974-70.135zm178.118 194.72h-25.062c-10.87 0-19.713-8.843-19.713-19.712 0-6.075-4.925-11-11-11-10.869 0-19.712-8.843-19.712-19.712s8.843-19.712 19.712-19.712h106.092c-8.588 28.597-26.552 53.175-50.317 70.136zm54.925-92.136h-110.701c-23 0-41.712 18.712-41.712 41.712 0 19.616 13.609 36.112 31.882 40.542 3.265 13.466 13.086 24.391 25.875 29.211-11.856 3.476-24.391 5.349-37.357 5.349-71.414 0-129.852-56.578-132.868-127.262h126.136c23 0 41.712-18.711 41.712-41.711 0-19.616-13.609-36.112-31.882-40.542-4.431-18.273-20.927-31.882-40.542-31.882h-39.54c21.741-15.486 48.317-24.603 76.984-24.603 73.337 0 133 59.664 133 133 0 5.479-.34 10.879-.987 16.186z"/><path d="m324.446 61.396c24.188 8.513 46.371 21.365 65.934 38.199 2.076 1.787 4.629 2.662 7.17 2.662 3.093 0 6.167-1.297 8.343-3.825 3.963-4.605 3.442-11.55-1.163-15.513-21.645-18.626-46.199-32.85-72.979-42.275-5.735-2.017-12.012.993-14.028 6.724-2.018 5.731.992 12.012 6.723 14.028z"/><path d="m187.554 450.604c-24.188-8.513-46.371-21.365-65.934-38.199-4.603-3.962-11.55-3.442-15.513 1.163s-3.442 11.55 1.163 15.513c21.645 18.626 46.199 32.85 72.979 42.275 1.209.425 2.44.627 3.652.627 4.537 0 8.784-2.829 10.376-7.351 2.018-5.731-.992-12.012-6.723-14.028z"/><path d="m390.309 412.577c-19.467 16.692-41.688 29.478-66.048 38.001-5.734 2.007-8.757 8.282-6.75 14.016 1.586 4.532 5.838 7.37 10.383 7.37 1.205 0 2.432-.2 3.633-.62 26.954-9.432 51.549-23.585 73.103-42.066 4.612-3.955 5.145-10.899 1.19-15.511s-10.9-5.144-15.511-1.19z"/><path d="m114.536 102.072c2.534 0 5.081-.871 7.155-2.649 19.467-16.692 41.688-29.478 66.048-38.001 5.734-2.007 8.757-8.282 6.75-14.016-2.007-5.733-8.283-8.754-14.016-6.75-26.954 9.432-51.549 23.585-73.103 42.066-4.612 3.955-5.145 10.899-1.19 15.511 2.176 2.537 5.257 3.839 8.356 3.839z"/><path d="m44.596 204.973c-5.969-1.129-11.724 2.794-12.854 8.763-5.308 28.058-5.349 56.434-.12 84.341.99 5.287 5.608 8.977 10.799 8.977.672 0 1.354-.062 2.038-.19 5.972-1.119 9.905-6.866 8.786-12.837-4.722-25.206-4.684-50.844.114-76.201 1.129-5.969-2.795-11.724-8.763-12.853z"/><path d="m480.378 213.922c-1.118-5.971-6.865-9.903-12.837-8.787-5.972 1.119-9.905 6.866-8.786 12.837 4.722 25.206 4.684 50.844-.114 76.201-1.129 5.969 2.795 11.724 8.764 12.853.691.131 1.379.194 2.058.194 5.182 0 9.797-3.679 10.796-8.957 5.306-28.057 5.347-56.433.119-84.341z"/></g></g><g/><g/><g/><g/><g/><g/><g/><g/><g/><g/><g/><g/><g/><g/><g/></svg>