<svg id="Capa_1" enable-background="new 0 0 512.006 512.006" viewBox="0 0 512.006 512.006" xmlns="http://www.w3.org/2000/svg" fill="#052438"><g><g><path d="m350.442 148.002h-276.883c-6.075 0-11 4.925-11 11v106c0 6.075 4.925 11 11 11h259.99v-22h-248.99v-84h254.883v62.563h22v-73.563c0-6.075-4.925-11-11-11z"/><path d="m421 16.002h-410c-6.075 0-11 4.925-11 11v458.002c0 6.075 4.925 11 11 11h313.476v-22h-302.476v-348.002h388v89.487h22v-188.487c0-6.075-4.925-11-11-11zm-399 88v-66h388v66z"/><path d="m62.559 309.002v106c0 6.075 4.925 11 11 11h223.447v-22h-212.447v-84h234.153l3.294-22h-248.447c-6.076 0-11 4.925-11 11z"/><path d="m64.263 60.843c-8.919-3.784-18.146 5.447-14.37 14.37 1.096 2.675 3.275 4.854 5.95 5.95 1.338.543 2.768.848 4.21.84 1.442.008 2.871-.297 4.21-.84 2.68-1.1 4.844-3.279 5.95-5.95 2.363-5.406-.45-12.225-5.95-14.37z"/><path d="m108.263 60.843c-8.927-3.765-18.155 5.455-14.37 14.37 1.627 4.052 5.798 6.826 10.16 6.79 1.432.009 2.876-.297 4.21-.84 2.68-1.1 4.844-3.279 5.95-5.95 2.363-5.41-.448-12.219-5.95-14.37z"/><path d="m143.843 60.843c-5.501 2.143-8.321 8.964-5.95 14.37 1.096 2.675 3.275 4.854 5.95 5.95 1.338.543 2.768.848 4.21.84 4.357.039 8.527-2.743 10.16-6.79 3.773-8.913-5.435-18.135-14.37-14.37z"/><path d="m363.949 60.002h-149.721c-6.075 0-11 4.925-11 11s4.925 11 11 11h149.721c6.075 0 11-4.925 11-11s-4.925-11-11-11z"/></g><g fill="#0496FF"><path d="m154.39 202.002c-1.835-3.179-5.019-5.083-8.411-5.433-1.998-2.763-5.24-4.567-8.91-4.567-3.671 0-6.913 1.805-8.911 4.569-3.391.35-6.574 2.254-8.409 5.431-1.835 3.178-1.893 6.888-.5 10-1.394 3.112-1.336 6.822.5 10 1.835 3.178 5.017 5.079 8.407 5.429 1.998 2.765 5.241 4.571 8.913 4.571s6.915-1.806 8.913-4.571c3.391-.35 6.573-2.251 8.408-5.429s1.893-6.888.5-10c1.393-3.112 1.335-6.822-.5-10z"/><path d="m229.321 202.002c-1.835-3.179-5.019-5.083-8.411-5.433-1.998-2.763-5.24-4.567-8.91-4.567-3.671 0-6.913 1.805-8.911 4.569-3.391.35-6.574 2.254-8.409 5.431-1.835 3.178-1.893 6.888-.5 10-1.394 3.112-1.336 6.822.5 10 1.835 3.178 5.017 5.079 8.407 5.429 1.998 2.765 5.241 4.571 8.913 4.571s6.915-1.806 8.913-4.571c3.391-.35 6.573-2.251 8.408-5.429s1.893-6.888.5-10c1.393-3.112 1.335-6.822-.5-10z"/><path d="m286.931 232.002c3.672 0 6.915-1.806 8.913-4.571 3.391-.35 6.573-2.251 8.408-5.429s1.893-6.888.5-10c1.394-3.112 1.336-6.822-.5-10-1.835-3.179-5.019-5.083-8.411-5.433-1.998-2.763-5.24-4.567-8.91-4.567-3.671 0-6.913 1.805-8.911 4.569-3.391.35-6.574 2.254-8.409 5.431-1.835 3.178-1.893 6.888-.5 10-1.394 3.112-1.336 6.822.5 10 1.835 3.178 5.017 5.079 8.407 5.429 1.998 2.765 5.241 4.571 8.913 4.571z"/><path d="m410.006 376.896v-12.892c0-6.075-4.925-11-11-11s-11 4.925-11 11v12.892c-12.803 4.541-22 16.768-22 31.108 0 18.196 14.804 33 33 33s33-14.804 33-33c0-14.34-9.197-26.567-22-31.108zm-11 42.108c-6.065 0-11-4.935-11-11s4.935-11 11-11 11 4.935 11 11-4.935 11-11 11z"/><path d="m476.006 298.092v-20.375c0-42.458-34.542-77-77-77s-77 34.542-77 77v20.375c-20.065 1.279-36 18-36 38.382v121.06c0 21.213 17.258 38.471 38.47 38.471h149.059c21.213 0 38.471-17.258 38.471-38.471v-121.06c0-20.382-15.935-37.103-36-38.382zm-77-75.375c30.327 0 55 24.673 55 55v20.287h-22v-20.287c0-18.196-14.804-33-33-33s-33 14.804-33 33v20.287h-22v-20.287c0-30.327 24.673-55 55-55zm11 75.287h-22v-20.287c0-6.065 4.935-11 11-11s11 4.935 11 11zm80 159.529c0 9.082-7.389 16.471-16.471 16.471h-149.059c-9.082 0-16.47-7.389-16.47-16.471v-121.06c0-9.081 7.389-16.47 16.47-16.47h149.059c9.082 0 16.471 7.389 16.471 16.47z"/></g></g><g/><g/><g/><g/><g/><g/><g/><g/><g/><g/><g/><g/><g/><g/><g/></svg>