<svg id="Capa_1" enable-background="new 0 0 512 512" viewBox="0 0 512 512" xmlns="http://www.w3.org/2000/svg" fill="#052438"><g><g fill="#0496FF"><path d="m332.485 116h-110c-6.075 0-11 4.925-11 11v110c0 6.075 4.925 11 11 11h110c6.075 0 11-4.925 11-11v-110c0-6.075-4.925-11-11-11zm-11 110h-88v-88h88z"/><path d="m68.486 248h110c6.075 0 11-4.925 11-11v-110c0-6.075-4.925-11-11-11h-110c-6.075 0-11 4.925-11 11v110c0 6.075 4.924 11 11 11zm11-110h88v88h-88z"/><path d="m332.485 274.149h-264c-6.075 0-11 4.925-11 11v163.851c0 6.075 4.925 11 11 11h264c6.075 0 11-4.925 11-11v-163.851c0-6.075-4.925-11-11-11zm-11 22v126.294l-89.073-89.072c-4.296-4.296-11.261-4.296-15.557 0l-43.269 43.269-16.384-16.384c-2.063-2.063-4.861-3.222-7.778-3.222s-5.715 1.159-7.778 3.222l-62.161 62.161v-126.268zm-117.651 141.851h-108.819l54.409-54.41zm-14.69-45.804 35.49-35.491 81.295 81.295h-70.981z"/></g><g><path d="m376.485 32h-54.347v-21c0-6.075-4.925-11-11-11s-11 4.925-11 11v21h-51.768v-21c0-6.075-4.925-11-11-11s-11 4.925-11 11v21h-51.769v-21c0-6.075-4.925-11-11-11s-11 4.925-11 11v21h-51.769v-21c0-6.075-4.925-11-11-11s-11 4.925-11 11v21h-54.346c-6.075 0-11 4.925-11 11v458c0 6.075 4.925 11 11 11h352c6.075 0 11-4.925 11-11v-458c-.001-6.075-4.926-11-11.001-11zm-11 458h-330v-436h43.347v21c0 6.075 4.925 11 11 11s11-4.925 11-11v-21h51.769v21c0 6.075 4.925 11 11 11s11-4.925 11-11v-21h51.769v21c0 6.075 4.925 11 11 11s11-4.925 11-11v-21h51.769v21c0 6.075 4.925 11 11 11s11-4.925 11-11v-21h43.347v436z"/><path d="m487.514 104.865h-62.977c-6.075 0-11 4.925-11 11v305.167c0 2.494.848 4.915 2.404 6.864l31.488 39.434c2.087 2.614 5.251 4.136 8.596 4.136s6.509-1.522 8.596-4.136l31.488-39.434c1.557-1.949 2.404-4.37 2.404-6.864v-305.167c.001-6.075-4.923-11-10.999-11zm-11 22v35.807h-40.977v-35.807zm-20.488 315.972-20.488-25.658v-232.507h40.977v232.507z"/></g></g><g/><g/><g/><g/><g/><g/><g/><g/><g/><g/><g/><g/><g/><g/><g/></svg>