<svg id="Capa_1" enable-background="new 0 0 512 512" viewBox="0 0 512 512" xmlns="http://www.w3.org/2000/svg" fill="#E6ECF2"><g><g fill="#0496FF"><path d="m140 334c-24.813 0-45 20.187-45 45s20.187 45 45 45 45-20.187 45-45-20.187-45-45-45zm0 68c-12.682 0-23-10.317-23-23s10.318-23 23-23 23 10.317 23 23-10.318 23-23 23z"/><path d="m256 334c-24.813 0-45 20.187-45 45s20.187 45 45 45 45-20.187 45-45-20.187-45-45-45zm0 68c-12.682 0-23-10.317-23-23s10.318-23 23-23c12.683 0 23 10.317 23 23s-10.317 23-23 23z"/><path d="m372 334c-24.813 0-45 20.187-45 45s20.187 45 45 45 45-20.187 45-45-20.187-45-45-45zm0 68c-12.683 0-23-10.317-23-23s10.317-23 23-23 23 10.317 23 23-10.317 23-23 23z"/><path d="m252.89 301h22c0-25.448-14.413-47.582-35.498-58.702 5.922-7.021 9.501-16.081 9.501-25.964 0-22.24-18.094-40.334-40.334-40.334s-40.334 18.094-40.334 40.334c0 9.883 3.579 18.942 9.501 25.964-21.084 11.12-35.497 33.254-35.497 58.702h22c0-24.444 19.887-44.331 44.331-44.331s44.33 19.887 44.33 44.331zm-62.666-84.666c0-10.109 8.225-18.334 18.334-18.334s18.334 8.225 18.334 18.334c0 10.11-8.225 18.335-18.334 18.335s-18.334-8.225-18.334-18.335z"/></g><g><path d="m457 0h-402c-6.075 0-11 4.925-11 11v490c0 6.075 4.925 11 11 11h402c6.075 0 11-4.925 11-11v-490c0-6.075-4.925-11-11-11zm-11 22v66h-380v-66zm-380 468v-380h380v380z"/><path d="m104.05 66c1.44.003 2.87-.302 4.21-.84 5.501-2.146 8.322-8.965 5.95-14.37-2.142-5.5-8.965-8.322-14.37-5.95-11.005 4.693-7.758 21.029 4.21 21.16z"/><path d="m148.05 66c1.44.003 2.87-.302 4.21-.84 5.501-2.145 8.321-8.965 5.95-14.37-3.624-8.98-16.691-8.972-20.32 0-3.085 6.993 2.523 15.377 10.16 15.21z"/><path d="m192.05 66c7.639.169 13.251-8.217 10.16-15.21-3.624-8.979-16.688-8.973-20.32 0-3.088 6.992 2.526 15.375 10.16 15.21z"/><path d="m258.228 66h149.721c6.075 0 11-4.925 11-11s-4.925-11-11-11h-149.721c-6.075 0-11 4.925-11 11s4.924 11 11 11z"/><path d="m173 446h-66c-6.075 0-11 4.925-11 11s4.925 11 11 11h66c6.075 0 11-4.925 11-11s-4.925-11-11-11z"/><path d="m289.127 446h-66c-6.075 0-11 4.925-11 11s4.925 11 11 11h66c6.075 0 11-4.925 11-11s-4.925-11-11-11z"/><path d="m405 446h-66c-6.075 0-11 4.925-11 11s4.925 11 11 11h66c6.075 0 11-4.925 11-11s-4.925-11-11-11z"/><path d="m407.228 132h-298c-6.075 0-11 4.925-11 11v158c0 6.075 4.925 11 11 11h298c6.075 0 11-4.925 11-11v-158c0-6.075-4.925-11-11-11zm-11 158h-276v-136h276z"/><path d="m307.89 268h27.669c6.075 0 11-4.925 11-11s-4.925-11-11-11h-27.669c-6.075 0-11 4.925-11 11s4.924 11 11 11z"/><path d="m307.89 224h55.338c6.075 0 11-4.925 11-11s-4.925-11-11-11h-55.338c-6.075 0-11 4.925-11 11s4.924 11 11 11z"/></g></g><g/><g/><g/><g/><g/><g/><g/><g/><g/><g/><g/><g/><g/><g/><g/></svg>