<svg id="Capa_1" enable-background="new 0 0 512 512" viewBox="0 0 512 512" xmlns="http://www.w3.org/2000/svg" fill="#E6ECF2"><g><g><path d="m501 .003h-490c-6.075 0-11 4.925-11 11v402.335c0 6.075 4.925 11 11 11h35.518c-1.655 10.65-2.518 21.558-2.518 32.665 0 15.61 1.718 31.218 5.106 46.392 1.122 5.027 5.584 8.603 10.735 8.603h392.316c5.151 0 9.613-3.575 10.735-8.603 3.389-15.173 5.106-30.782 5.106-46.392 0-11.106-.863-22.015-2.518-32.665h35.52c6.075 0 11-4.925 11-11v-402.335c0-6.075-4.925-11-11-11zm-11 22v66h-468v-66zm-264.513 441.421c1.613-2.907 4.026-5.316 6.979-6.968l54.604-30.307-30.32 54.627c-4.783 8.62-15.686 11.742-24.308 6.956-4.176-2.317-7.198-6.122-8.512-10.713s-.761-9.419 1.557-13.595zm217.648 26.573h-166.34l48.167-86.783c2.383-4.293 1.632-9.645-1.84-13.117-3.472-3.47-8.822-4.223-13.116-1.839l-88.239 48.976c-.01.005-.02.011-.029.016-6.529 3.649-11.884 9.009-15.486 15.499-5.169 9.313-6.402 20.083-3.472 30.323.691 2.414 1.601 4.727 2.699 6.926h-136.614c-1.903-10.868-2.865-21.931-2.865-32.995 0-104.767 85.233-190 190-190s190 85.233 190 190c0 11.064-.962 22.127-2.865 32.994zm17.706-87.659c-24.171-90.488-106.84-157.335-204.841-157.335s-180.67 66.847-204.841 157.335h-29.159v-292.335h468v292.335z"/><path d="m67 66c7.631.182 13.245-8.215 10.16-15.2-3.607-8.982-16.713-8.982-20.32 0-3.088 6.985 2.53 15.382 10.16 15.2z"/><path d="m119 66c9.689.074 14.664-11.968 7.78-18.78-5.289-5.502-15.188-3.561-17.94 3.58-3.096 6.981 2.534 15.384 10.16 15.2z"/><path d="m171 66c3.615.026 7.154-1.87 9.149-4.89 6.528-10.03-5.238-21.792-15.26-15.25-8.968 6.012-4.693 20.124 6.111 20.14z"/><path d="m256 66.003h189c6.075 0 11-4.925 11-11s-4.925-11-11-11h-189c-6.075 0-11 4.925-11 11s4.925 11 11 11z"/></g><g fill="#0496FF"><path d="m256 289.003c-92.636 0-168 75.364-168 168 0 6.075 4.925 11 11 11h27.867c6.075 0 11-4.925 11-11s-4.925-11-11-11h-16.457c2.395-32 15.154-61.154 34.917-84.117l11.621 11.622c2.148 2.148 4.963 3.222 7.778 3.222 2.814 0 5.631-1.074 7.778-3.222 4.296-4.296 4.296-11.261 0-15.557l-11.62-11.62c22.962-19.762 52.116-32.52 84.115-34.915v16.454c0 6.075 4.925 11 11 11s11-4.925 11-11v-16.454c31.999 2.395 61.153 15.152 84.115 34.915l-11.494 11.494c-4.296 4.296-4.296 11.261 0 15.557 2.148 2.148 4.963 3.222 7.778 3.222s5.63-1.074 7.778-3.222l11.495-11.495c19.763 22.963 32.522 52.117 34.917 84.116h-16.203c-6.075 0-11 4.925-11 11s4.925 11 11 11h27.613c6.075 0 11-4.925 11-11 .002-92.636-75.362-168-167.998-168z"/><path d="m67 168.97h148.793c6.075 0 11-4.925 11-11s-4.925-11-11-11h-148.793c-6.075 0-11 4.925-11 11s4.925 11 11 11z"/><path d="m190.089 217.966c0-6.075-4.925-11-11-11h-112.089c-6.075 0-11 4.925-11 11s4.925 11 11 11h112.089c6.075 0 11-4.925 11-11z"/><path d="m296.207 168.97h148.793c6.075 0 11-4.925 11-11s-4.925-11-11-11h-148.793c-6.075 0-11 4.925-11 11s4.925 11 11 11z"/><path d="m445 206.966h-112.089c-6.075 0-11 4.925-11 11s4.925 11 11 11h112.089c6.075 0 11-4.925 11-11s-4.925-11-11-11z"/></g></g><g/><g/><g/><g/><g/><g/><g/><g/><g/><g/><g/><g/><g/><g/><g/></svg>