<svg id="Capa_1" enable-background="new 0 0 511.999 511.999" viewBox="0 0 511.999 511.999" xmlns="http://www.w3.org/2000/svg" fill="#E6ECF2"><g><g><g><path d="m325.437 511.999c-6.075 0-11-4.925-11-11v-19.962c0-36.771 25.407-54.646 77.674-54.646 15.523 0 26.73-3.004 32.41-8.687 6.009-6.012 5.221-10.42 2.688-20.694-1.765-7.159-3.961-16.068-1.401-25.71.426-1.603 1.209-3.089 2.29-4.347 1.411-1.643 5.709-7.41 1.737-12.656-2.652-3.502-2.966-8.247-.799-12.067l6.71-11.828c-6.339-31.287 13.193-42.301 27.629-50.439 1.446-.815 2.912-1.642 4.381-2.497 4.145-2.415 6.688-5.72 7.16-9.308.521-3.937-1.499-8.432-5.686-12.656-4.64-4.683-10.875-9.297-17.476-14.182-18.232-13.492-40.923-30.283-40.923-59.415 0-47.186-15.947-87.021-46.117-115.197-34.079-31.828-85.106-47.926-139.998-44.174-90.407 6.223-187.717 68.126-187.717 189.332 0 40.296 13.118 80.3 36.937 112.642l2.158 2.928c25.186 34.164 32.787 44.475 32.787 89.259v84.304c0 6.075-4.925 11-11 11s-11-4.925-11-11v-84.304c0-37.551-4.351-43.453-28.495-76.205l-2.164-2.937c-26.583-36.094-41.223-80.731-41.223-125.688 0-61.037 22.64-113.802 65.471-152.59 37.659-34.104 88.352-54.947 142.741-58.691 60.955-4.167 118.001 14.07 156.519 50.043 34.739 32.444 53.102 77.838 53.102 131.276 0 18.043 15.548 29.549 32.01 41.731 6.977 5.163 14.19 10.501 20.017 16.381 9.083 9.167 13.299 20.184 11.869 31.02-1.364 10.334-7.887 19.606-17.896 25.438-1.56.909-3.116 1.787-4.653 2.653-14.834 8.362-20.974 11.824-16.111 30.139.739 2.783.356 5.745-1.063 8.25l-5.786 10.199c4.102 9.934 2.526 21.505-4.494 31.129-.407 3.762.649 8.049 1.846 12.901 2.756 11.179 6.53 26.488-8.487 41.513-10.037 10.042-26.177 15.134-47.971 15.134-55.674 0-55.674 21.237-55.674 32.646v19.962c-.002 6.075-4.927 11-11.002 11z"/></g><g><path d="m223.915 372.866c-88.776 0-161-72.224-161-161s72.224-161 161-161c88.775 0 161 72.224 161 161s-72.224 161-161 161zm0-300c-76.645 0-139 62.355-139 139s62.355 139 139 139 139-62.355 139-139-62.355-139-139-139z"/></g></g><path d="m223.915 110.866c-55.691 0-101 45.309-101 101s45.309 101 101 101 101-45.309 101-101c0-55.692-45.308-101-101-101zm78.218 90h-35.954c-.87-20.956-4.207-40.504-9.631-55.921-.753-2.14-1.529-4.135-2.321-6.023 25.311 10.557 43.982 33.916 47.906 61.944zm-78.218 89.551c-.859 0-6.378-3.291-11.879-18.929-4.572-12.998-7.509-30.287-8.358-48.621h40.475c-.849 18.334-3.786 35.623-8.358 48.621-5.501 15.638-11.021 18.929-11.88 18.929zm-20.237-89.551c.849-18.334 3.786-35.623 8.358-48.621 5.501-15.639 11.021-18.929 11.879-18.929s6.378 3.291 11.879 18.929c4.572 12.998 7.509 30.287 8.358 48.621zm-10.074-61.944c-.792 1.887-1.568 3.882-2.321 6.023-5.423 15.418-8.761 34.965-9.631 55.921h-35.954c3.924-28.028 22.595-51.387 47.906-61.944zm-47.906 83.944h35.954c.87 20.956 4.208 40.503 9.631 55.921.753 2.14 1.529 4.135 2.321 6.023-25.311-10.557-43.982-33.916-47.906-61.944zm108.529 61.944c.792-1.887 1.568-3.882 2.321-6.023 5.424-15.418 8.761-34.965 9.631-55.921h35.954c-3.924 28.028-22.595 51.387-47.906 61.944z" fill="#0496FF"/></g><g/><g/><g/><g/><g/><g/><g/><g/><g/><g/><g/><g/><g/><g/><g/></svg>