<svg id="Capa_1" enable-background="new 0 0 512.001 512.001" viewBox="0 0 512.001 512.001" xmlns="http://www.w3.org/2000/svg" fill="#E6ECF2"><g><g fill="#0496FF"><path d="m434.91 201.364h-14c-6.075 0-11 4.925-11 11s4.925 11 11 11h14c6.075 0 11-4.925 11-11s-4.925-11-11-11z"/><path d="m415.284 180.686c.942 0 1.9-.122 2.854-.378l13.523-3.624c5.868-1.572 9.35-7.604 7.777-13.473-1.573-5.867-7.602-9.354-13.473-7.777l-13.523 3.624c-5.868 1.572-9.35 7.604-7.777 13.473 1.318 4.913 5.762 8.155 10.619 8.155z"/><path d="m431.66 248.044-13.522-3.623c-5.872-1.575-11.899 1.911-13.472 7.778-1.572 5.868 1.91 11.899 7.778 13.472l13.522 3.623c.954.256 1.911.378 2.854.378 4.856 0 9.302-3.242 10.618-8.156 1.572-5.869-1.91-11.9-7.778-13.472z"/><path d="m91.091 223.364c6.075 0 11-4.925 11-11s-4.925-11-11-11h-14c-6.075 0-11 4.925-11 11s4.925 11 11 11z"/><path d="m93.863 244.42-13.523 3.624c-5.868 1.572-9.351 7.604-7.778 13.473 1.317 4.914 5.761 8.155 10.618 8.155.942 0 1.901-.122 2.854-.378l13.522-3.624c5.868-1.572 9.351-7.604 7.778-13.473-1.572-5.867-7.601-9.352-13.471-7.777z"/><path d="m99.556 159.057-13.522-3.623c-5.867-1.574-11.9 1.911-13.472 7.778-1.572 5.868 1.911 11.899 7.779 13.472l13.522 3.623c.954.256 1.911.378 2.854.378 4.856 0 9.302-3.242 10.619-8.156 1.571-5.869-1.911-11.9-7.78-13.472z"/><path d="m294.831 207.907-16.586-9.951c-3.482-2.09-7.836-2.09-11.318 0l-10.927 6.556-10.926-6.556c-3.483-2.09-7.836-2.09-11.318 0l-16.586 9.951c-5.209 3.126-6.899 9.883-3.773 15.092 3.126 5.21 9.885 6.898 15.092 3.773l10.927-6.556 5.585 3.351v114.704c0 6.075 4.925 11 11 11s11-4.925 11-11v-114.703l5.585-3.351 10.927 6.556c1.771 1.063 3.723 1.569 5.648 1.569 3.737 0 7.381-1.905 9.443-5.343 3.125-5.209 1.437-11.966-3.773-15.092z"/></g><g><path d="m22 256c0-129.028 104.972-234 234-234 53.625 0 104.969 18.167 146.422 51.474l-5.951.386c-6.062.393-10.658 5.626-10.265 11.688.377 5.82 5.215 10.289 10.966 10.288.239 0 .48-.008.723-.023l32.059-2.078c6.062-.393 10.658-5.626 10.265-11.688l-2.078-32.06c-.393-6.062-5.625-10.66-11.688-10.265-6.062.393-10.658 5.626-10.265 11.688l.335 5.167c-45.408-36.607-101.713-56.577-160.523-56.577-68.38 0-132.667 26.629-181.019 74.98-48.352 48.353-74.981 112.64-74.981 181.02 0 44.875 11.86 89.137 34.297 128 2.038 3.529 5.735 5.502 9.537 5.502 1.866 0 3.758-.476 5.49-1.476 5.261-3.037 7.064-9.766 4.026-15.026-20.509-35.523-31.35-75.981-31.35-117z"/><path d="m477.703 128.001c-3.038-5.26-9.765-7.064-15.026-4.026s-7.063 9.766-4.026 15.026c20.51 35.522 31.351 75.98 31.351 117 0 129.028-104.972 234-234 234-53.625 0-104.97-18.167-146.422-51.475l5.953-.386c6.062-.393 10.658-5.626 10.265-11.688s-5.629-10.656-11.689-10.265l-32.06 2.079c-6.062.393-10.658 5.626-10.265 11.688l2.079 32.059c.377 5.82 5.215 10.288 10.966 10.288.239 0 .48-.008.723-.023 6.062-.393 10.658-5.626 10.265-11.688l-.335-5.166c45.407 36.608 101.711 56.578 160.521 56.578 68.38 0 132.667-26.629 181.02-74.98 48.352-48.353 74.98-112.64 74.98-181.02-.002-44.878-11.863-89.14-34.3-128.001z"/><path d="m192.677 401.961 21.818 21.818c2.063 2.062 4.861 3.222 7.778 3.222h67.455c2.917 0 5.715-1.159 7.778-3.222l21.818-21.818c2.062-2.063 3.222-4.861 3.222-7.778v-50.91c0-14.231 2.273-22.132 16.364-34.225 28.251-24.247 44.454-59.487 44.454-96.684 0-70.228-57.135-127.364-127.364-127.364s-127.363 57.136-127.363 127.364c0 37.196 16.203 72.437 44.454 96.684 14.09 12.093 16.364 19.993 16.364 34.225v50.91c0 2.917 1.159 5.714 3.222 7.778zm92.494 3.04h-58.341l-15.375-15.375v-35.354h89.091v35.354zm-97.752-112.648c-23.375-20.062-36.782-49.217-36.782-79.988 0-58.098 47.266-105.365 105.363-105.365 58.098 0 105.364 47.267 105.364 105.364 0 30.771-13.406 59.927-36.782 79.988-16.084 13.804-21.813 25.837-23.462 39.92h-90.239c-1.65-14.083-7.378-26.115-23.462-39.919z"/></g></g><g/><g/><g/><g/><g/><g/><g/><g/><g/><g/><g/><g/><g/><g/><g/></svg>