<svg id="Capa_1" enable-background="new 0 0 512 512" viewBox="0 0 512 512" xmlns="http://www.w3.org/2000/svg" fill="#052438"><g><g><g><path d="m256 467.713c-38.562 0-74.578-19.004-96.343-50.835-3.429-5.015-2.144-11.86 2.871-15.289 5.016-3.431 11.86-2.144 15.289 2.871 17.663 25.831 46.89 41.253 78.183 41.253 31.292 0 60.52-15.422 78.183-41.253 3.429-5.016 10.272-6.303 15.289-2.871 5.015 3.429 6.3 10.274 2.871 15.289-21.765 31.831-57.782 50.835-96.343 50.835z" fill="#0496FF"/></g><g><path d="m143.5 152c-6.075 0-11-4.925-11-11v-52.741c0-6.075 4.925-11 11-11h45c6.075 0 11 4.925 11 11v47.741c0 6.075-4.925 11-11 11s-11-4.925-11-11v-36.741h-23v41.741c0 6.075-4.925 11-11 11z" fill="#0496FF"/></g><g><path d="m278.5 147c-6.075 0-11-4.925-11-11v-71.741h-23v71.741c0 6.075-4.925 11-11 11s-11-4.925-11-11v-82.741c0-6.075 4.925-11 11-11h45c6.075 0 11 4.925 11 11v82.741c0 6.075-4.924 11-11 11z" fill="#0496FF"/></g><g><path d="m368.5 152c-6.075 0-11-4.925-11-11v-119h-23v114c0 6.075-4.925 11-11 11s-11-4.925-11-11v-125c0-6.075 4.925-11 11-11h45c6.075 0 11 4.925 11 11v130c0 6.075-4.924 11-11 11z" fill="#0496FF"/></g></g><g><path d="m462.752 442.161c-15.644-14.137-37.404-21.967-58.591-28.321l-50.007-15c-27.293-8.188-34.16-13.819-34.16-40.589v-14.875c6.719-4.349 13.012-9.415 18.771-15.171 19.307-19.295 31.538-45.167 35.042-73.705h4.693c25.364 0 45.999-20.636 45.999-46.001 0-25.362-20.63-45.994-45.991-45.999l.98-20.988c.14-3.003-.955-5.933-3.03-8.107-2.076-2.175-4.951-3.405-7.958-3.405h-225c-3.006 0-5.882 1.23-7.958 3.405s-3.171 5.104-3.031 8.107l.98 20.988c-25.361.004-45.992 20.638-45.992 46 0 25.364 20.635 46 46 46h4.694c3.503 28.539 15.734 54.411 35.041 73.706 5.759 5.756 12.053 10.821 18.771 15.17v14.875c0 26.77-6.868 32.401-34.161 40.589l-50.006 15c-21.186 6.354-42.947 14.185-58.59 28.321-15.61 14.106-23.524 33.258-24.195 58.547-.161 6.073 4.631 11.127 10.705 11.288.099.003.198.004.297.004 5.94 0 10.833-4.734 10.991-10.708 1.051-39.644 22.479-52.991 67.114-66.38l50.006-15c33.055-9.916 49.839-22.175 49.839-61.661v-3.786c13.171 4.947 27.348 7.535 41.995 7.535s28.824-2.588 41.995-7.535v3.786c0 39.486 16.784 51.745 49.84 61.661l50.007 15c44.635 13.389 66.062 26.736 67.113 66.379.158 5.975 5.05 10.709 10.99 10.709.099 0 .198-.001.297-.004 6.073-.161 10.866-5.215 10.705-11.287-.67-25.29-8.584-44.441-24.195-58.548zm-84.252-257.661c13.233 0 23.999 10.767 23.999 24s-10.766 24-23.999 24h-3.261l2.242-48zm-269 23.999c0-13.233 10.766-23.999 24-23.999h1.02l2.242 48h-3.262c-13.234 0-24-10.767-24-24.001zm49.775 34.488-4.249-90.987h201.949l-4.25 90.986c-2.626 56.214-43.305 97.014-96.725 97.014-53.421 0-94.1-40.8-96.725-97.013z"/><path d="m269.162 264.185c-3.997 2.307-8.548 3.526-13.162 3.526s-9.165-1.22-13.16-3.526c-5.261-3.036-11.989-1.234-15.026 4.026-3.038 5.262-1.235 11.989 4.026 15.026 7.336 4.235 15.69 6.474 24.16 6.474 8.469 0 16.824-2.238 24.16-6.474 5.262-3.037 7.064-9.765 4.027-15.026-3.036-5.261-9.765-7.065-15.025-4.026z"/><path d="m232 211v-5c0-6.075-4.925-11-11-11s-11 4.925-11 11v5c0 6.075 4.925 11 11 11s11-4.925 11-11z"/><path d="m291 195c-6.075 0-11 4.925-11 11v5c0 6.075 4.925 11 11 11s11-4.925 11-11v-5c0-6.075-4.925-11-11-11z"/></g></g><g/><g/><g/><g/><g/><g/><g/><g/><g/><g/><g/><g/><g/><g/><g/></svg>