<svg id="Capa_1" enable-background="new 0 0 512 512" viewBox="0 0 512 512" xmlns="http://www.w3.org/2000/svg" fill="#E6ECF2"><g><g><path d="m189.668 344.649-47.457-39.758c-6.753-6.146-15.502-9.33-24.686-8.976-9.278.36-17.843 4.295-24.119 11.079-1.487 1.608-2.783 3.323-3.908 5.114l-3.469-89.453c-.602-15.515-7.128-29.361-18.376-38.987-10.991-9.405-25.94-14.237-42.08-13.612-5.905.229-10.573 5.082-10.573 10.992v172.9c0 .143.003.285.008.427.346 8.917 4.015 17.19 10.357 23.412l74.628 97.484v25.729c0 6.075 4.925 11 11 11s11-4.925 11-11v-29.458c0-2.417-.796-4.767-2.266-6.687l-77.411-101.119c-.38-.497-.802-.96-1.261-1.385-2.444-2.263-3.88-5.329-4.055-8.65v-160.895c6.314 1.217 11.928 3.794 16.35 7.578 6.631 5.674 10.33 13.67 10.697 23.124l3.99 102.882c.113 2.915 1.379 5.665 3.519 7.646l66.875 61.906c4.459 4.127 11.417 3.859 15.545-.6 4.127-4.458 3.858-11.418-.6-15.545l-43.125-39.921c-5.134-4.756-5.445-12.804-.693-17.943 2.284-2.469 5.417-3.902 8.821-4.034 3.402-.139 6.638 1.053 9.106 3.337.133.124.269.243.408.36l47.646 39.917c24.924 20.88 38.654 32.383 38.654 78.419v61.068c0 6.075 4.925 11 11 11s11-4.925 11-11v-61.068c.001-56.305-20.531-73.506-46.525-95.283z"/><path d="m486.427 170.056c-16.151-.625-31.09 4.208-42.08 13.612-11.249 9.625-17.775 23.472-18.377 38.987l-3.469 89.454c-1.125-1.791-2.422-3.507-3.909-5.114-6.275-6.784-14.84-10.719-24.118-11.079-9.188-.353-17.934 2.83-24.686 8.976l-47.457 39.758c-25.993 21.777-46.525 38.978-46.525 95.283v61.067c0 6.075 4.925 11 11 11s11-4.925 11-11v-61.068c0-46.036 13.729-57.539 38.654-78.419l47.646-39.917c.139-.117.274-.236.408-.36 2.468-2.285 5.716-3.479 9.105-3.337 3.404.132 6.537 1.565 8.821 4.034 4.753 5.14 4.442 13.188-.692 17.944l-43.125 39.921c-4.458 4.127-4.727 11.086-.6 15.545 4.128 4.458 11.087 4.727 15.545.6l66.875-61.906c2.141-1.981 3.406-4.731 3.52-7.646l3.99-102.882c.366-9.454 4.064-17.45 10.696-23.124 4.422-3.784 10.034-6.361 16.35-7.578v160.896c-.175 3.32-1.61 6.385-4.055 8.648-.459.425-.882.888-1.262 1.385l-77.413 101.121c-1.47 1.919-2.266 4.269-2.266 6.687v29.456c0 6.075 4.925 11 11 11s11-4.925 11-11v-25.73l74.629-97.484c6.343-6.221 10.012-14.495 10.358-23.412.005-.142.008-.284.008-.427v-172.9c.002-5.909-4.667-10.762-10.571-10.991z"/><path d="m202.712 231.066h106.577c6.075 0 11-4.925 11-11s-4.925-11-11-11h-106.577c-6.075 0-11 4.925-11 11s4.925 11 11 11z"/><path d="m256 157.832c18.472 0 33.5-15.028 33.5-33.5s-15.028-33.5-33.5-33.5-33.5 15.028-33.5 33.5 15.028 33.5 33.5 33.5zm0-45c6.341 0 11.5 5.159 11.5 11.5s-5.159 11.5-11.5 11.5-11.5-5.159-11.5-11.5 5.159-11.5 11.5-11.5z"/></g><path d="m331.271 175.043 4.553-35.09c8.846-68.172-32.499-122.613-75.891-139.226-2.533-.97-5.334-.97-7.866 0-43.392 16.612-84.736 71.053-75.891 139.226l4.551 35.08c-28.699 20.048-45.727 51.438-45.727 84.641 0 6.075 4.925 11 11 11h47.136l3.352 25.831c.711 5.482 5.381 9.584 10.909 9.584h97.208c5.528 0 10.197-4.103 10.908-9.585l3.351-25.831h47.136c6.075 0 11-4.925 11-11 0-33.272-17.011-64.574-45.729-84.63zm-173.46 73.631c2.686-18.152 11.943-35.109 26.222-48.164l6.249 48.164zm59.25 35.415-19.068-146.967c-6.868-52.938 23.538-98.6 58.007-114.206 34.469 15.606 64.875 61.269 58.007 114.207l-19.068 146.967h-77.878zm104.657-35.415 6.25-48.171c14.293 13.053 23.545 29.991 26.225 48.171z" fill="#0496FF"/></g><g/><g/><g/><g/><g/><g/><g/><g/><g/><g/><g/><g/><g/><g/><g/></svg>