<svg id="Capa_1" enable-background="new 0 0 512.003 512.003" viewBox="0 0 512.003 512.003" xmlns="http://www.w3.org/2000/svg" fill="#E6ECF2"><g><g><g><path d="m107.411 464.889c-2.825 0-5.642-1.083-7.781-3.222l-49.296-49.296c-4.051-4.051-4.314-10.534-.604-14.9l20.21-23.787c-13.588-21.41-23.231-44.669-28.746-69.335l-31.083-2.527c-5.71-.464-10.108-5.234-10.108-10.964v-69.715c0-5.729 4.398-10.5 10.108-10.964l31.076-2.527c5.519-24.68 15.162-47.938 28.75-69.34l-20.207-23.783c-3.71-4.367-3.447-10.849.604-14.901l49.296-49.295c4.051-4.05 10.535-4.315 14.9-.604l23.787 20.21c21.411-13.589 44.667-23.232 69.335-28.747l2.527-31.083c.465-5.711 5.235-10.109 10.965-10.109h69.715c5.729 0 10.5 4.398 10.964 10.109l2.527 31.083c24.677 5.516 47.935 15.157 69.339 28.743l23.783-20.207c4.368-3.711 10.85-3.446 14.901.604l49.296 49.296c4.051 4.052 4.314 10.534.604 14.901l-20.205 23.781c13.589 21.407 23.231 44.665 28.747 69.341l31.078 2.527c5.71.464 10.108 5.234 10.108 10.964v69.715c0 5.729-4.398 10.5-10.108 10.964l-31.076 2.527c-5.519 24.68-15.162 47.938-28.75 69.339l20.207 23.784c3.71 4.366 3.447 10.849-.604 14.9l-49.296 49.295c-4.05 4.051-10.534 4.315-14.9.604l-23.79-20.212c-13.808 8.75-28.543 15.935-43.908 21.402-5.722 2.036-12.015-.952-14.051-6.676s.953-12.015 6.676-14.051c16.211-5.768 31.645-13.662 45.871-23.463 4.095-2.821 9.573-2.544 13.363.675l22.355 18.993 34.954-34.953-18.991-22.352c-3.22-3.791-3.497-9.27-.674-13.365 15.91-23.083 26.54-48.723 31.596-76.206.899-4.891 4.97-8.57 9.927-8.974l29.203-2.375v-49.431l-29.206-2.375c-4.958-.403-9.028-4.083-9.927-8.975-5.052-27.478-15.681-53.118-31.591-76.208-2.822-4.095-2.545-9.574.675-13.364l18.989-22.35-34.957-34.95-22.351 18.99c-3.789 3.221-9.268 3.497-13.363.675-23.087-15.908-48.727-26.536-76.207-31.587-4.892-.899-8.572-4.97-8.975-9.928l-2.375-29.21h-49.431l-2.375 29.211c-.403 4.958-4.083 9.028-8.975 9.927-27.468 5.05-53.106 15.679-76.203 31.591-4.095 2.821-9.573 2.544-13.363-.676l-22.355-18.993-34.953 34.953 18.991 22.352c3.22 3.791 3.497 9.27.674 13.365-15.91 23.084-26.54 48.724-31.596 76.207-.899 4.891-4.97 8.571-9.927 8.974l-29.203 2.375v49.431l29.211 2.375c4.958.403 9.028 4.083 9.927 8.975 5.049 27.467 15.678 53.105 31.591 76.203 2.821 4.095 2.544 9.573-.676 13.363l-18.993 22.355 34.953 34.953 22.352-18.991c3.79-3.22 9.27-3.496 13.364-.674 14.163 9.761 29.525 17.631 45.66 23.391 5.722 2.042 8.704 8.336 6.661 14.058-2.042 5.722-8.337 8.703-14.058 6.662-15.284-5.457-29.94-12.613-43.679-21.322l-23.786 20.209c-2.058 1.749-4.591 2.615-7.117 2.615z"/></g><g><path d="m201.842 406.229c-1.327 0-2.675-.242-3.985-.751-30.245-11.765-55.916-32.142-74.238-58.927-18.322-26.786-28.006-58.098-28.006-90.551 0-88.439 71.95-160.389 160.389-160.389s160.389 71.95 160.389 160.389c0 32.452-9.684 63.763-28.005 90.548s-43.991 47.163-74.234 58.928c-5.663 2.201-12.037-.602-14.24-6.263-2.203-5.662.602-12.037 6.263-14.24 53.589-20.848 88.216-71.473 88.216-128.974 0-76.308-62.081-138.389-138.389-138.389s-138.389 62.082-138.389 138.39c0 57.503 34.628 108.128 88.219 128.975 5.662 2.202 8.466 8.577 6.264 14.239-1.693 4.352-5.85 7.015-10.254 7.015z"/></g></g><g><path d="m339.594 512.003c-4.395 0-8.546-2.652-10.246-6.992-19-48.522-45.758-151.774-45.758-229.406 0-6.075 4.925-11 11-11h17.96l-56.548-75.17-56.549 75.17h17.96c6.075 0 11 4.925 11 11 0 77.63-26.757 180.883-45.757 229.406-2.215 5.656-8.595 8.448-14.253 6.232-5.657-2.215-8.447-8.597-6.232-14.253 17.484-44.652 41.762-137.109 44.065-210.385h-28.823c-4.169 0-7.98-2.357-9.842-6.088s-1.455-8.193 1.052-11.525l78.589-104.468c2.078-2.762 5.334-4.387 8.791-4.387s6.712 1.625 8.791 4.387l78.588 104.468c2.506 3.332 2.914 7.794 1.052 11.525s-5.673 6.088-9.842 6.088h-28.823c2.304 73.276 26.582 165.734 44.066 210.385 2.215 5.657-.575 12.039-6.232 14.253-1.319.516-2.675.76-4.009.76z" fill="#0496FF"/></g></g><g/><g/><g/><g/><g/><g/><g/><g/><g/><g/><g/><g/><g/><g/><g/></svg>