<svg id="Capa_1" enable-background="new 0 0 512 512" viewBox="0 0 512 512" xmlns="http://www.w3.org/2000/svg" fill="#052438"><g><g><path d="m105.548 463.9c-6.075 0-11 4.925-11 11v26.1c0 6.075 4.925 11 11 11s11-4.925 11-11v-26.1c0-6.075-4.925-11-11-11z"/><path d="m84.95 341.851c-17.104-23.224-28.043-50.678-31.635-79.393-.754-6.028-6.256-10.304-12.28-9.55-6.028.754-10.304 6.252-9.55 12.28 4.058 32.44 16.42 63.461 35.75 89.708l1.945 2.641c21.494 29.157 25.367 34.41 25.367 67.761 0 6.075 4.925 11 11 11s11-4.925 11-11c0-40.583-7.474-50.721-29.658-80.815z"/><path d="m453.837 265.855c-5.291-5.341-11.804-10.159-18.102-14.82-14.549-10.766-28.291-20.935-28.291-36.572 0-6.075-4.925-11-11-11s-11 4.925-11 11c0 26.727 20.629 41.991 37.204 54.257 5.892 4.359 11.456 8.478 15.562 12.621 3.509 3.541 5.21 7.244 4.79 10.428-.379 2.869-2.468 5.546-5.882 7.535-1.313.765-2.625 1.504-3.919 2.233-13.213 7.448-31.07 17.514-25.445 46.084l-5.816 10.255c-2.167 3.82-1.854 8.564.798 12.066 2.977 3.931-.068 8.272-1.516 9.956-1.081 1.258-1.864 2.744-2.29 4.347-2.373 8.937-.362 17.092 1.253 23.645 2.264 9.181 2.796 12.605-2.117 17.521-4.885 4.887-14.674 7.471-28.31 7.471-47.689 0-70.871 16.418-70.871 50.192v17.926c0 6.075 4.925 11 11 11s11-4.925 11-11v-17.926c0-10.544 0-28.192 48.871-28.192 19.88 0 34.64-4.684 43.87-13.919 13.933-13.939 10.312-28.623 7.918-38.339-1.018-4.125-1.919-7.782-1.659-10.906 6.271-8.753 7.733-19.206 4.192-28.282l4.927-8.686c1.42-2.504 1.803-5.466 1.063-8.249-4.144-15.607.412-18.176 13.936-25.8 1.384-.779 2.786-1.57 4.191-2.39 9.29-5.412 15.347-14.038 16.617-23.665 1.331-10.082-2.567-20.307-10.974-28.791z"/><path d="m41.023 229.834c.418.047.832.07 1.243.07 5.524 0 10.285-4.152 10.917-9.771 10.668-94.826 91.23-142.489 166.336-147.659 28.848-1.972 57.084 2.244 81.647 12.196 5.632 2.279 12.045-.435 14.326-6.064 2.281-5.631-.435-12.045-6.064-14.326-27.641-11.198-59.247-15.958-91.416-13.754-45.222 3.112-88.322 19.65-121.361 46.566-37.281 30.373-59.872 72.069-65.329 120.582-.679 6.037 3.664 11.481 9.701 12.16z"/><path d="m378.738 91.762c6.075 0 11-4.925 11-11 0-6.21 5.053-11.263 11.263-11.263s11.263 5.053 11.263 11.263c0 2.909-1.106 5.671-3.113 7.774-15.805 16.558-19.149 20.625-19.149 36.751 0 6.075 4.925 11 11 11s11-4.925 11-11c0-5.416.294-6.478 1.014-7.763 1.488-2.653 5.545-6.983 12.051-13.8 5.932-6.215 9.198-14.37 9.198-22.963 0-18.341-14.922-33.263-33.263-33.263s-33.263 14.922-33.263 33.263c-.001 6.076 4.924 11.001 10.999 11.001z"/><path d="m401.001 152.499h-.007c-6.075 0-10.996 4.925-10.996 11s4.928 11 11.003 11 11-4.925 11-11-4.925-11-11-11z"/><path d="m315.002 390.839 19.999-34.641c2.803-4.854 1.507-11.039-3.008-14.36l-13.914-10.236c.302-2.849.453-5.718.453-8.583s-.151-5.734-.453-8.583l13.914-10.236c4.515-3.321 5.811-9.506 3.008-14.36l-19.999-34.641c-2.803-4.855-8.806-6.825-13.94-4.575l-15.819 6.931c-4.648-3.398-9.62-6.273-14.871-8.601l-1.906-17.15c-.619-5.57-5.327-9.785-10.933-9.785h-9v-61.496c0-6.075-4.925-11-11-11h-37.285c-6.075 0-11 4.925-11 11s4.925 11 11 11h26.285v50.496h-9c-5.605 0-10.313 4.215-10.933 9.785l-1.905 17.15c-5.25 2.327-10.222 5.202-14.87 8.601l-14.011-6.138-18.579-17.957c-2.051-1.982-4.792-3.091-7.645-3.091h-88.84c-6.075 0-11 4.925-11 11s4.925 11 11 11h84.393l10.626 10.269-15.705 27.201c-2.803 4.854-1.507 11.039 3.008 14.36l13.914 10.236c-.301 2.851-.453 5.72-.453 8.583s.152 5.732.454 8.583l-13.915 10.236c-4.515 3.321-5.811 9.506-3.008 14.36l20 34.641c2.803 4.854 8.808 6.823 13.94 4.575l15.818-6.931c4.648 3.398 9.619 6.273 14.872 8.602l1.332 11.979-28.13 28.837h-49.848c-6.075 0-11 4.925-11 11s4.925 11 11 11h54.484c2.965 0 5.804-1.196 7.874-3.319l31.763-32.562h35.363c5.605 0 10.313-4.215 10.933-9.785l1.906-17.15c5.25-2.327 10.221-5.202 14.87-8.601l15.82 6.931c5.13 2.249 11.138.279 13.941-4.575zm-27.015-25.171c-3.902-1.713-8.442-1.012-11.651 1.792-5.822 5.086-12.457 8.924-19.721 11.405-4.032 1.377-6.906 4.959-7.377 9.194l-1.552 13.96h-20.308l-1.552-13.959c-.471-4.234-3.344-7.816-7.376-9.194-7.271-2.484-13.905-6.321-19.721-11.405-3.208-2.805-7.748-3.502-11.653-1.793l-12.884 5.645-10.154-17.588 11.321-8.328c3.429-2.522 5.095-6.797 4.276-10.974-.732-3.744-1.104-7.58-1.104-11.404 0-3.827.371-7.665 1.104-11.407.816-4.177-.85-8.45-4.277-10.972l-11.319-8.327 10.154-17.588 12.885 5.645c3.902 1.712 8.443 1.012 11.652-1.792 5.82-5.087 12.455-8.924 19.72-11.405 4.032-1.377 6.906-4.96 7.377-9.194l1.551-13.96h20.309l1.552 13.96c.471 4.235 3.345 7.817 7.377 9.194 7.267 2.482 13.901 6.319 19.719 11.404 3.211 2.806 7.751 3.503 11.653 1.793l12.885-5.645 10.153 17.588-11.319 8.327c-3.429 2.522-5.095 6.796-4.276 10.974.731 3.737 1.103 7.575 1.103 11.405 0 3.831-.371 7.668-1.103 11.405-.818 4.177.848 8.451 4.276 10.974l11.319 8.327-10.153 17.588z"/><path d="m237.532 287.019c-19.851 0-36 16.149-36 36s16.149 36 36 36 36-16.149 36-36-16.149-36-36-36zm0 50c-7.72 0-14-6.28-14-14s6.28-14 14-14 14 6.28 14 14-6.28 14-14 14z"/></g><g><g><path d="m401.001 222c-19.941 0-39.325-5.299-56.372-15.369l-35.227 9.438c-3.797 1.017-7.847-.068-10.625-2.847s-3.864-6.829-2.847-10.625l9.438-35.226c-10.069-17.043-15.368-36.428-15.368-56.373.001-61.204 49.795-110.998 111.001-110.998 61.205 0 110.999 49.794 110.999 110.999 0 61.206-49.794 111.001-110.999 111.001zm-54.618-38.228c2.116 0 4.21.611 6.016 1.791 14.457 9.445 31.263 14.437 48.602 14.437 49.074 0 88.999-39.926 88.999-89.001 0-49.074-39.925-88.999-88.999-88.999-49.075 0-89 39.925-89 88.999 0 17.343 4.991 34.149 14.435 48.601 1.712 2.619 2.227 5.843 1.417 8.864l-5.74 21.424 21.424-5.74c.936-.252 1.894-.376 2.846-.376z" fill="#0496FF"/></g><g><path d="m172.747 194.021c-18.472 0-33.5-15.028-33.5-33.5s15.028-33.5 33.5-33.5 33.5 15.028 33.5 33.5-15.028 33.5-33.5 33.5zm0-45c-6.341 0-11.5 5.159-11.5 11.5s5.159 11.5 11.5 11.5 11.5-5.159 11.5-11.5-5.159-11.5-11.5-11.5z" fill="#0496FF"/></g><g><path d="m33.5 274.868c-18.472 0-33.5-15.028-33.5-33.5s15.028-33.5 33.5-33.5 33.5 15.028 33.5 33.5-15.028 33.5-33.5 33.5zm0-45c-6.341 0-11.5 5.159-11.5 11.5s5.159 11.5 11.5 11.5 11.5-5.159 11.5-11.5-5.159-11.5-11.5-11.5z" fill="#0496FF"/></g><g><path d="m105.548 482.4c-18.472 0-33.5-15.028-33.5-33.5s15.028-33.5 33.5-33.5 33.5 15.028 33.5 33.5-15.028 33.5-33.5 33.5zm0-45c-6.341 0-11.5 5.159-11.5 11.5s5.159 11.5 11.5 11.5 11.5-5.159 11.5-11.5-5.159-11.5-11.5-11.5z" fill="#0496FF"/></g></g></g><g/><g/><g/><g/><g/><g/><g/><g/><g/><g/><g/><g/><g/><g/><g/></svg>