<svg id="Capa_1" enable-background="new 0 0 512.001 512.001" viewBox="0 0 512.001 512.001" xmlns="http://www.w3.org/2000/svg" fill="#052438"><g><g><g><path d="m403.361 512.001c-4.026 0-7.79-2.215-9.717-5.851l-30.625-57.813-39.006 5.917c-5.154.782-10.143-2.159-11.959-7.04l-29.567-79.474c-2.118-5.694.78-12.027 6.474-14.145 5.696-2.117 12.026.78 14.146 6.474l26.449 71.093 37.881-5.746c4.617-.7 9.182 1.595 11.37 5.726l19.589 36.979 12.485-65.935-28.648-11.614c-3.785-1.535-6.408-5.04-6.813-9.104l-2.944-29.562c-.602-6.045 3.811-11.434 9.856-12.036 6.03-.604 11.434 3.81 12.036 9.855l2.285 22.953 30.846 12.504c4.856 1.969 7.65 7.091 6.675 12.241l-20 105.623c-.869 4.591-4.544 8.132-9.164 8.83-.552.084-1.103.125-1.649.125z" fill="#0496FF"/></g><g><path d="m97.497 126.342c-4.299 0-8.383-2.537-10.149-6.75l-8.798-20.989-22.569 3.276c-3.434.498-6.897-.651-9.352-3.101s-3.609-5.914-3.117-9.346l11.47-79.993c.588-4.099 3.427-7.52 7.347-8.853s8.257-.352 11.221 2.539l26.718 26.054 30.71-6.625c3.381-.729 6.904.173 9.518 2.435l53.793 46.553c4.594 3.976 5.095 10.922 1.12 15.516s-10.923 5.095-15.516 1.12l-49.642-42.961-31.116 6.712c-3.607.78-7.359-.303-10-2.877l-15.45-15.065-6.31 44.007 16.444-2.387c4.963-.719 9.786 2.007 11.725 6.633l12.091 28.846c2.348 5.603-.29 12.049-5.893 14.397-1.386.583-2.827.859-4.245.859z" fill="#0496FF"/></g><g><path d="m404.367 75.52c-2.409 0-4.835-.788-6.862-2.409-4.745-3.794-5.516-10.716-1.723-15.461l5.78-7.228-4.871-6.618c-3.602-4.893-2.555-11.778 2.337-15.38l16.879-12.425c4.894-3.601 11.778-2.555 15.38 2.338s2.555 11.778-2.338 15.38l-8.02 5.904 3.354 4.557c2.952 4.01 2.842 9.502-.267 13.391l-11.051 13.821c-2.172 2.716-5.37 4.13-8.598 4.13z" fill="#0496FF"/></g><g><path d="m445.799 115.006c-3.672 0-7.26-1.836-9.345-5.181-3.215-5.155-1.642-11.94 3.514-15.154l7.854-4.897-2.395-7.862c-1.771-5.812 1.505-11.958 7.316-13.728l20.05-6.108c5.813-1.769 11.958 1.505 13.729 7.317 1.771 5.811-1.505 11.958-7.316 13.728l-9.527 2.903 1.648 5.413c1.451 4.762-.478 9.906-4.702 12.54l-15.016 9.363c-1.811 1.127-3.823 1.666-5.81 1.666z" fill="#0496FF"/></g><g><path d="m124.411 488.224c-2.485 0-4.983-.837-7.04-2.553-4.666-3.892-5.292-10.828-1.401-15.493l6.379-7.648-4.345-3.625c-3.823-3.189-5.028-8.548-2.937-13.066l7.431-16.06c2.551-5.514 9.09-7.916 14.602-5.363 5.514 2.551 7.915 9.089 5.364 14.603l-3.887 8.399 6.311 5.264c2.24 1.869 3.646 4.551 3.909 7.457.263 2.905-.639 5.796-2.508 8.037l-13.425 16.095c-2.175 2.607-5.303 3.953-8.453 3.953z" fill="#0496FF"/></g><g><path d="m61.009 454.655c-3.75 0-7.406-1.919-9.463-5.376-3.107-5.221-1.394-11.972 3.827-15.078l8.559-5.094-2.894-4.862c-2.546-4.279-1.901-9.734 1.573-13.3l12.346-12.676c4.239-4.352 11.203-4.444 15.555-.205s4.444 11.203.205 15.555l-6.457 6.63 4.202 7.062c3.107 5.221 1.394 11.972-3.827 15.078l-18.012 10.719c-1.763 1.048-3.701 1.547-5.614 1.547z" fill="#0496FF"/></g></g><g><path d="m426.766 157.835c-1.571-41.205-35.583-74.24-77.166-74.24-16.244 0-31.88 5.101-44.85 14.358-12.181-27.254-39.478-45.628-70.501-45.628-26.978 0-51.556 13.917-65.512 36.298-8.329-3.767-17.381-5.723-26.7-5.723-35.798 0-64.922 29.124-64.922 64.922 0 2.396.13 4.781.391 7.146-29.879 5.81-52.507 32.178-52.507 63.731 0 24.015 12.879 45.379 33.133 56.657-5.066 10.171-7.701 21.369-7.701 32.983 0 40.933 33.301 74.235 74.234 74.235 8.328 0 16.563-1.399 24.356-4.102 7.747 27.949 25.615 65.485 66.531 79.054 4.386 1.455 8.876 2.151 13.288 2.151 13.276-.001 25.83-6.309 32.582-17.253 6.439-10.437 7.814-27.095-7.638-42.547-7.486-7.486-12.21-18.667-13.286-30.346 9.339 3.375 19.461 5.121 29.954 5.121 16.855 0 33.372-4.748 46.509-13.368 7.756-5.09 14.173-11.4 18.918-18.487 11.551 9.693 26.259 15.177 41.726 15.177 35.798 0 64.922-29.124 64.922-64.922 0-.633-.01-1.267-.027-1.901 11.306-4.34 21.419-11.644 29.108-21.145 9.926-12.264 15.392-27.721 15.392-43.524-.002-35.122-26.298-64.222-60.234-68.647zm1.57 114.69c-.042.009-.085.013-.127.022-3.421.775-6.934 1.168-10.44 1.168-8.279 0-16.445-2.188-23.616-6.328-5.261-3.036-11.989-1.234-15.026 4.026-3.037 5.261-1.234 11.989 4.026 15.026 10.511 6.068 22.48 9.275 34.616 9.275.891 0 1.782-.04 2.673-.075-1.343 22.467-20.039 40.336-42.837 40.336-12.827 0-24.854-5.722-32.976-15.472.392-2.583.613-5.185.613-7.785 0-16.772-8.317-33.033-22.82-44.612-4.745-3.79-11.668-3.016-15.459 1.732s-3.016 11.669 1.732 15.459c9.381 7.491 14.547 17.229 14.547 27.421 0 2.569-.337 5.153-1.002 7.68-.012.046-.017.092-.029.137-4.959 18.617-26.698 32.118-51.759 32.118-12.446 0-24.552-3.387-34.088-9.537-3.07-1.979-6.922-2.306-10.282-.872-3.359 1.435-5.787 4.444-6.479 8.031-4.574 23.693 2.737 49.27 18.626 65.158 3.949 3.949 7.93 9.833 4.472 15.439-3.142 5.093-11.564 8.644-20.223 5.772-37.378-12.396-50.529-52.85-55.042-75.861-.61-3.087-2.57-5.826-5.294-7.41-9.146-5.28-14.827-15.121-14.827-25.682 0-16.352 13.303-29.654 29.654-29.654 2.59 0 5.173.34 7.676 1.011 5.866 1.571 11.899-1.911 13.472-7.779 1.572-5.868-1.911-11.899-7.779-13.472-4.359-1.167-8.857-1.76-13.369-1.76-28.482 0-51.654 23.172-51.654 51.654 0 11.591 3.932 22.682 10.825 31.604-3.747.841-7.595 1.278-11.473 1.278-28.802 0-52.234-23.433-52.234-52.235 0-11.45 3.636-22.318 10.515-31.432.001-.001.001-.002.002-.003s.002-.002.002-.003c4.244-5.631 9.492-10.273 15.598-13.799 5.261-3.038 7.064-9.766 4.026-15.026-3.038-5.262-9.767-7.064-15.026-4.026-6.211 3.586-11.785 7.999-16.67 13.144-14.522-7.127-23.879-21.847-23.879-38.496 0-21.554 15.971-39.441 36.699-42.466 3.152 6.46 7.351 12.412 12.433 17.495 2.148 2.148 4.963 3.222 7.778 3.222s5.63-1.074 7.778-3.222c4.295-4.296 4.295-11.261 0-15.557-4.763-4.763-8.382-10.666-10.466-17.071-.011-.034-.027-.066-.038-.1-1.369-4.246-2.068-8.677-2.068-13.179 0-23.667 19.255-42.922 42.922-42.922 8.956 0 17.535 2.729 24.808 7.89 2.72 1.93 6.168 2.522 9.376 1.609 3.208-.912 5.828-3.23 7.125-6.303 8.658-20.516 28.639-33.771 50.904-33.771 26.672 0 49.49 18.983 54.304 45.154.007.044.009.087.017.131.598 3.269.9 6.612.9 9.937 0 4.823-.633 9.632-1.882 14.293-1.571 5.868 1.912 11.899 7.78 13.471.953.255 1.91.377 2.853.377 4.857 0 9.303-3.242 10.619-8.157 1.745-6.517 2.63-13.241 2.63-19.985 0-2.735-.165-5.478-.456-8.205 10.284-10.051 24.09-15.747 38.585-15.747 30.45 0 55.223 24.772 55.223 55.222 0 2.058-.119 4.164-.354 6.259-.359 3.188.692 6.373 2.877 8.721s5.288 3.624 8.49 3.499c.642-.025 1.285-.043 1.933-.043 26.043 0 47.23 21.188 47.23 47.231-.003 21.849-15.415 41.191-36.665 46.045z"/><path d="m188.407 161.391c-6.075 0-11 4.925-11 11s4.925 11 11 11c26.115 0 47.361 21.246 47.361 47.361 0 6.075 4.925 11 11 11s11-4.925 11-11c.001-38.245-31.115-69.361-69.361-69.361z"/><path d="m371.729 213.892c-7.229-4.175-12.4-10.914-14.561-18.977-1.418-5.291-1.418-10.884 0-16.175 1.572-5.868-1.909-11.9-7.777-13.473-5.871-1.574-11.899 1.91-13.473 7.777-2.417 9.017-2.417 18.549 0 27.564 3.68 13.739 12.491 25.222 24.811 32.335 1.732 1 3.623 1.476 5.489 1.476 3.802 0 7.499-1.973 9.537-5.502 3.037-5.26 1.235-11.988-4.026-15.025z"/></g></g><g/><g/><g/><g/><g/><g/><g/><g/><g/><g/><g/><g/><g/><g/><g/></svg>