<svg id="Capa_1" enable-background="new 0 0 511.999 511.999" viewBox="0 0 511.999 511.999" xmlns="http://www.w3.org/2000/svg" fill="#052438"><g><g><path d="m484.858 240.016c-5.826-5.879-13.04-11.218-20.017-16.38-16.461-12.182-32.01-23.688-32.01-41.731 0-53.437-18.362-98.832-53.102-131.275-38.518-35.974-95.562-54.21-156.52-50.044-54.387 3.743-105.08 24.586-142.739 58.69-42.832 38.788-65.472 91.553-65.472 152.59 0 44.957 14.64 89.593 41.223 125.688l2.165 2.937c24.144 32.752 28.494 38.653 28.494 76.205v84.304c0 6.075 4.925 11 11 11s11-4.925 11-11v-84.304c0-44.784-7.601-55.095-32.786-89.259l-2.158-2.929c-23.819-32.341-36.937-72.345-36.937-112.641 0-121.206 97.311-183.109 187.719-189.333 54.89-3.752 105.918 12.346 139.997 44.174 30.17 28.177 46.117 68.012 46.117 115.197 0 29.133 22.691 45.924 40.924 59.416 6.601 4.884 12.835 9.498 17.475 14.181 4.187 4.225 6.205 8.719 5.686 12.656-.473 3.588-3.016 6.893-7.16 9.308-1.469.855-2.935 1.682-4.381 2.497-14.436 8.138-33.969 19.151-27.63 50.439l-6.709 11.827c-2.168 3.821-1.854 8.565.798 12.068 3.973 5.247-.325 11.014-1.736 12.656-1.081 1.258-1.864 2.744-2.29 4.347-2.561 9.643-.363 18.552 1.401 25.711 2.532 10.273 3.321 14.683-2.688 20.694-5.68 5.683-16.888 8.687-32.411 8.687-52.267 0-77.674 17.875-77.674 54.646v19.962c0 6.075 4.925 11 11 11s11-4.925 11-11v-19.962c0-11.409 0-32.646 55.674-32.646 21.795 0 37.935-5.092 47.972-15.134 15.018-15.024 11.243-30.333 8.487-41.512-1.196-4.852-2.253-9.139-1.846-12.901 7.021-9.625 8.596-21.195 4.494-31.129l5.785-10.199c1.421-2.505 1.804-5.467 1.064-8.25-4.863-18.315 1.277-21.776 16.111-30.139 1.537-.866 3.094-1.744 4.653-2.653 10.009-5.832 16.531-15.104 17.896-25.438 1.43-10.837-2.786-21.854-11.869-31.021z"/><path d="m262.746 207.409-16.586-9.951c-3.482-2.09-7.836-2.09-11.318 0l-10.927 6.556-10.926-6.555c-3.482-2.091-7.836-2.09-11.318 0l-16.586 9.951c-5.21 3.125-6.898 9.882-3.773 15.092 3.126 5.209 9.882 6.899 15.092 3.773l10.927-6.556 5.585 3.351v114.705c0 6.075 4.925 11 11 11s11-4.925 11-11v-114.705l5.586-3.351 10.927 6.556c1.771 1.063 3.723 1.569 5.648 1.569 3.737 0 7.381-1.905 9.443-5.342 3.124-5.21 1.436-11.967-3.774-15.093z"/><path d="m433.475 69.083c2.038 3.529 5.734 5.502 9.537 5.502 1.865 0 3.757-.476 5.489-1.476l10.907-6.297c5.262-3.038 7.063-9.765 4.026-15.026-3.038-5.26-9.762-7.064-15.026-4.026l-10.907 6.297c-5.261 3.037-7.063 9.764-4.026 15.026z"/><path d="m414.284 37.156c2.815 0 5.631-1.074 7.778-3.222l8.905-8.906c4.296-4.296 4.296-11.261-.001-15.557-4.295-4.295-11.261-4.295-15.556.001l-8.905 8.906c-4.296 4.296-4.295 11.261.001 15.557 2.148 2.148 4.962 3.221 7.778 3.221z"/><path d="m450.429 110.014c1.317 4.915 5.761 8.156 10.618 8.156.942 0 1.9-.122 2.854-.378l12.166-3.26c5.868-1.572 9.35-7.604 7.777-13.472-1.573-5.869-7.603-9.35-13.473-7.778l-12.166 3.26c-5.866 1.572-9.348 7.604-7.776 13.472z"/></g><path d="m223.915 84.502c-70.229 0-127.363 57.135-127.363 127.364 0 37.198 16.203 72.438 44.454 96.684 14.091 12.093 16.364 19.994 16.364 34.225v50.91c0 2.917 1.159 5.715 3.222 7.778l21.818 21.818c2.063 2.063 4.861 3.222 7.778 3.222h67.454c2.917 0 5.715-1.159 7.778-3.222l21.818-21.818c2.062-2.063 3.222-4.861 3.222-7.778v-50.91c0-14.231 2.273-22.132 16.364-34.225 28.251-24.246 44.454-59.486 44.454-96.684.001-70.228-57.135-127.364-127.363-127.364zm29.171 320.001h-58.341l-15.375-15.375v-35.354h89.091v35.354zm39.411-112.648c-16.084 13.804-21.813 25.836-23.462 39.919h-90.239c-1.65-14.083-7.378-26.115-23.462-39.919-23.376-20.062-36.782-49.217-36.782-79.989 0-58.098 47.266-105.364 105.363-105.364s105.364 47.266 105.364 105.364c0 30.773-13.406 59.927-36.782 79.989z" fill="#0496FF"/></g><g/><g/><g/><g/><g/><g/><g/><g/><g/><g/><g/><g/><g/><g/><g/></svg>