<svg id="Capa_1" enable-background="new 0 0 512 512" viewBox="0 0 512 512" xmlns="http://www.w3.org/2000/svg" fill="#052438"><g><path d="m501 180.455h-69v-54.393h9c6.075 0 11-4.925 11-11s-4.925-11-11-11h-91.931l-33.34-33.341c-2.063-2.062-4.861-3.222-7.778-3.222h-20.316c-4.563-13.082-17.017-22.499-31.636-22.499s-27.073 9.417-31.636 22.5h-20.316c-2.917 0-5.715 1.159-7.778 3.222l-33.34 33.341h-91.93c-6.075 0-11 4.925-11 11s4.925 11 11 11h9.001v54.393h-69c-6.075 0-11 4.925-11 11v95c0 6.075 4.925 11 11 11h19v29c0 3.883 2.047 7.478 5.386 9.459 1.729 1.026 3.67 1.541 5.614 1.541 1.812 0 3.625-.447 5.269-1.344l70.839-38.656h53.892c6.075 0 11-4.925 11-11v-95c0-6.075-4.925-11-11-11h-69v-54.393h65.486c2.917 0 5.715-1.159 7.778-3.222l33.34-33.341h13.895v300.907c0 6.075 4.925 11 11 11s11-4.925 11-11v-311.907c0-6.341 5.159-11.5 11.5-11.5s11.5 5.159 11.5 11.5v311.907c0 6.075 4.925 11 11 11s11-4.925 11-11v-300.907h13.896l33.34 33.341c2.063 2.062 4.861 3.222 7.778 3.222h65.487v54.393h-69c-6.075 0-11 4.925-11 11v95c0 6.075 4.925 11 11 11h53.892l70.838 38.656c1.644.896 3.457 1.344 5.269 1.344 1.944 0 3.886-.515 5.615-1.541 3.339-1.981 5.386-5.576 5.386-9.459v-29h19c6.075 0 11-4.925 11-11v-95c0-6.076-4.925-11.001-11-11.001zm-341 95h-45.698c-1.841 0-3.653.462-5.269 1.344l-57.033 31.122v-21.466c0-6.075-4.925-11-11-11h-19v-73h138zm330 0h-19c-6.075 0-11 4.925-11 11v21.466l-57.032-31.122c-1.616-.882-3.428-1.344-5.269-1.344h-45.699v-73h138z"/><g><g><path d="m346.888 467h-181.777c-6.075 0-11-4.925-11-11v-30.296c0-2.917 1.159-5.715 3.222-7.778l30.296-30.297c2.063-2.062 4.861-3.222 7.778-3.222h121.184c2.917 0 5.715 1.159 7.778 3.222l30.296 30.297c2.063 2.063 3.222 4.861 3.222 7.778v30.296c.001 6.075-4.924 11-10.999 11zm-170.777-22h159.777v-14.74l-23.853-23.854h-112.071l-23.853 23.854z" fill="#0496FF"/></g><g><path d="m126 249.955h-70c-6.075 0-11-4.925-11-11s4.925-11 11-11h70c6.075 0 11 4.925 11 11s-4.925 11-11 11z" fill="#0496FF"/></g><g><path d="m456 249.955h-70c-6.075 0-11-4.925-11-11s4.925-11 11-11h70c6.075 0 11 4.925 11 11s-4.925 11-11 11z" fill="#0496FF"/></g></g></g><g/><g/><g/><g/><g/><g/><g/><g/><g/><g/><g/><g/><g/><g/><g/></svg>