<svg id="Capa_1" enable-background="new 0 0 512.001 512.001" viewBox="0 0 512.001 512.001" xmlns="http://www.w3.org/2000/svg" fill="#E6ECF2"><g><g><g><path d="m351.694 512.001c-6.075 0-11-4.925-11-11v-17.004c0-32.419 22.176-48.178 67.794-48.178 12.781 0 21.929-2.394 26.454-6.921 4.46-4.463 3.997-7.418 1.86-16.086-1.548-6.278-3.475-14.092-1.188-22.708.426-1.604 1.209-3.09 2.29-4.348 1.283-1.494 3.991-5.334 1.417-8.733-2.652-3.503-2.966-8.247-.799-12.067l5.414-9.545c-5.305-27.339 11.796-36.976 24.454-44.112 1.226-.69 2.467-1.39 3.711-2.114 3.085-1.798 4.969-4.188 5.304-6.733.375-2.843-1.182-6.188-4.385-9.421-3.864-3.899-9.126-7.793-14.696-11.915-15.825-11.71-35.521-26.284-35.521-51.922 0-39.685-13.91-73.531-40.226-97.88-26.975-24.958-64.451-37.841-106.361-36.776v49.314c0 6.075-4.925 11-11 11-8.024 0-14.554 6.528-14.554 14.554s6.529 14.555 14.554 14.555c6.075 0 11 4.925 11 11v59.756c0 6.075-4.925 11-11 11h-49.429c-4.68 14.798-18.539 25.554-34.864 25.554s-30.185-10.756-34.864-25.554h-38.044c2.111 30.194 12.847 59.659 30.761 83.981l1.84 2.498c21.127 28.659 28.244 38.313 28.244 76.995v71.811c0 6.075-4.925 11-11 11s-11-4.925-11-11v-71.812c0-31.449-3.657-36.41-23.952-63.941l-1.847-2.505c-22.848-31.023-35.431-69.389-35.431-108.028 0-6.075 4.925-11 11-11h58.738c6.075 0 11 4.925 11 11 0 8.025 6.529 14.554 14.555 14.554s14.555-6.528 14.555-14.554c0-6.075 4.925-11 11-11h47.738v-39.446c-14.798-4.68-25.554-18.539-25.554-34.864s10.756-30.185 25.554-34.863v-50.448c0-5.744 4.42-10.521 10.147-10.967 52.183-4.048 99.47 10.87 133.154 42.037 30.935 28.621 47.285 68.051 47.285 114.027 0 14.549 12.924 24.112 26.606 34.237 5.992 4.434 12.188 9.019 17.237 14.115 8.102 8.175 11.854 18.042 10.569 27.783-1.229 9.307-7.074 17.641-16.04 22.864-1.334.777-2.667 1.529-3.982 2.271-12.543 7.07-16.769 9.453-12.949 23.834.739 2.783.356 5.746-1.063 8.25l-4.541 8.006c3.29 8.683 1.882 18.626-4.05 26.983-.196 2.841.635 6.213 1.571 10.009 2.303 9.341 5.782 23.456-7.661 36.904-8.864 8.871-23 13.369-42.014 13.369-45.794 0-45.794 16.387-45.794 26.178v17.004c.003 6.077-4.922 11.002-10.997 11.002z"/></g></g><g><path d="m107.829 218.174c-16.325 0-30.185-10.756-34.863-25.554h-49.43c-6.075 0-11-4.925-11-11 0-52.456 19.464-97.814 56.287-131.171 32.338-29.292 75.857-47.199 122.542-50.423 3.046-.214 6.035.852 8.264 2.932 2.229 2.081 3.494 4.993 3.494 8.042v59.756c0 6.075-4.925 11-11 11-8.025 0-14.555 6.529-14.555 14.555s6.529 14.554 14.555 14.554c6.075 0 11 4.925 11 11v59.756c0 6.075-4.925 11-11 11h-49.43c-4.679 14.798-18.539 25.553-34.864 25.553zm-72.968-47.553h47.415c6.075 0 11 4.925 11 11 0 8.025 6.528 14.554 14.554 14.554s14.555-6.528 14.555-14.554c0-6.075 4.925-11 11-11h47.739v-39.446c-14.799-4.679-25.555-18.538-25.555-34.863s10.756-30.186 25.555-34.864v-38.294c-69.899 9.201-140.895 57.595-146.263 147.467z" fill="#0496FF"/></g></g><g/><g/><g/><g/><g/><g/><g/><g/><g/><g/><g/><g/><g/><g/><g/></svg>