<svg id="Capa_1" enable-background="new 0 0 512.003 512.003" viewBox="0 0 512.003 512.003" xmlns="http://www.w3.org/2000/svg" fill="#052438"><g><g><path d="m503.847 465.376-123.98-33.22c-36.951-9.901-72.251-50.763-50.125-133.339.249-.929.375-1.886.375-2.847v-82.661c0-7.984 6.495-14.479 14.479-14.479s14.479 6.495 14.479 14.479v72.926c0 6.075 4.925 11 11 11s11-4.925 11-11v-77.793c0-.653-.059-1.306-.174-1.949l-20.457-113.657c-.055-.302-.121-.602-.201-.898-4.648-17.35 3.153-33.311 19.319-41.547l35.407 114.227c4.074 13.145 5.064 22.561 6.863 39.656.226 2.15.464 4.408.721 6.796l10.56 98.206c.533 4.962 4.341 8.944 9.274 9.698l56.95 8.707c.563.086 1.123.128 1.676.128 5.341 0 10.028-3.897 10.86-9.339.918-6.005-3.206-11.618-9.212-12.536l-48.58-7.427-9.655-89.787c-.254-2.37-.49-4.612-.715-6.746-1.88-17.872-3.015-28.66-7.729-43.867l-38.857-125.363c-1.75-5.644-7.646-8.9-13.354-7.368-34.511 9.247-53.327 39.39-44.901 71.79l14.533 80.744c-2.822-.702-5.771-1.081-8.808-1.081-20.115 0-36.479 16.364-36.479 36.479v81.229c-10.915 41.688-9.316 78.898 4.64 107.686 12.477 25.737 34.288 43.914 61.417 51.183l123.98 33.22c.953.256 1.911.378 2.854.378 4.856 0 9.302-3.242 10.618-8.156 1.572-5.868-1.91-11.899-7.778-13.472z"/><path d="m251 40.001h-240c-6.075 0-11 4.925-11 11v140c0 6.075 4.925 11 11 11h39v29c0 3.883 2.047 7.478 5.386 9.459 1.729 1.026 3.67 1.541 5.614 1.541 1.812 0 3.625-.447 5.27-1.344l70.838-38.656h113.892c6.075 0 11-4.925 11-11v-140c0-6.075-4.925-11-11-11zm-11 140h-105.698c-1.841 0-3.653.462-5.27 1.344l-57.032 31.123v-21.467c0-6.075-4.925-11-11-11h-39v-118h218z"/><path d="m251 270.002h-240c-6.075 0-11 4.925-11 11v140c0 6.075 4.925 11 11 11h39v29c0 3.883 2.047 7.478 5.386 9.459 1.729 1.026 3.67 1.541 5.614 1.541 1.812 0 3.625-.447 5.27-1.344l70.838-38.656h113.892c6.075 0 11-4.925 11-11v-140c0-6.075-4.925-11-11-11zm-11 140h-105.698c-1.841 0-3.653.462-5.27 1.344l-57.032 31.122v-21.466c0-6.075-4.925-11-11-11h-39v-118h218z"/></g><g><g><path d="m201 109.501h-140c-6.075 0-11-4.925-11-11s4.925-11 11-11h140c6.075 0 11 4.925 11 11s-4.925 11-11 11z" fill="#0496FF"/></g><g><path d="m131 154.501h-70c-6.075 0-11-4.925-11-11s4.925-11 11-11h70c6.075 0 11 4.925 11 11s-4.925 11-11 11z" fill="#0496FF"/></g><g><path d="m201 339.501h-140c-6.075 0-11-4.925-11-11s4.925-11 11-11h140c6.075 0 11 4.925 11 11s-4.925 11-11 11z" fill="#0496FF"/></g><g><path d="m131 384.502h-70c-6.075 0-11-4.925-11-11s4.925-11 11-11h70c6.075 0 11 4.925 11 11s-4.925 11-11 11z" fill="#0496FF"/></g></g></g><g/><g/><g/><g/><g/><g/><g/><g/><g/><g/><g/><g/><g/><g/><g/></svg>