<svg id="Capa_1" enable-background="new 0 0 511.999 511.999" viewBox="0 0 511.999 511.999" xmlns="http://www.w3.org/2000/svg" fill="#052438"><g><g><g><path d="m325.436 511.999c-6.075 0-11-4.925-11-11v-19.961c0-36.771 25.407-54.646 77.674-54.646 15.523 0 26.731-3.004 32.411-8.688 6.009-6.011 5.22-10.419 2.688-20.693-1.766-7.159-3.962-16.068-1.401-25.711.426-1.603 1.209-3.089 2.29-4.347 1.411-1.643 5.709-7.41 1.737-12.655-2.652-3.502-2.966-8.246-.799-12.067l6.71-11.829c-6.339-31.287 13.193-42.301 27.628-50.438 1.447-.815 2.913-1.642 4.382-2.497 4.145-2.415 6.688-5.721 7.16-9.309.52-3.937-1.499-8.432-5.686-12.655-4.64-4.683-10.874-9.297-17.475-14.181-18.232-13.492-40.924-30.284-40.924-59.417 0-47.186-15.947-87.02-46.117-115.196-34.08-31.828-85.106-47.934-139.997-44.174-90.408 6.222-187.718 68.126-187.718 189.332 0 40.296 13.118 80.299 36.938 112.641l2.159 2.931c25.185 34.163 32.785 44.474 32.785 89.257v84.304c0 6.075-4.925 11-11 11s-11-4.925-11-11v-84.304c0-37.551-4.351-43.452-28.493-76.203l-2.166-2.938c-26.583-36.095-41.223-80.731-41.223-125.688 0-61.038 22.64-113.803 65.472-152.591 37.658-34.104 88.352-54.947 142.74-58.69 60.957-4.172 118.002 14.07 156.52 50.043 34.739 32.444 53.102 77.838 53.102 131.275 0 18.045 15.549 29.551 32.011 41.732 6.976 5.162 14.189 10.5 20.016 16.38 9.083 9.167 13.299 20.183 11.869 31.02-1.364 10.334-7.887 19.606-17.896 25.438-1.56.908-3.116 1.786-4.653 2.652-14.834 8.363-20.974 11.824-16.111 30.139.738 2.783.356 5.745-1.063 8.249l-5.786 10.2c4.101 9.933 2.526 21.505-4.494 31.129-.407 3.762.649 8.05 1.846 12.901 2.756 11.179 6.53 26.488-8.488 41.512-10.036 10.043-26.177 15.135-47.971 15.135-55.674 0-55.674 21.237-55.674 32.646v19.961c-.003 6.076-4.927 11.001-11.003 11.001z"/></g><g><path d="m223.916 407.866c-3.352 0-6.521-1.528-8.608-4.151l-27.842-34.996c-34.23-7.938-65.284-27.168-87.798-54.457-23.7-28.727-36.752-65.092-36.752-102.396 0-88.775 72.225-161 161-161s160.999 72.225 160.999 161c0 37.304-13.052 73.669-36.752 102.396-22.514 27.289-53.566 46.519-87.797 54.457l-27.842 34.996c-2.087 2.623-5.257 4.151-8.608 4.151zm0-335c-76.645 0-139 62.355-139 139 0 65.725 46.653 122.991 110.931 136.166 2.527.519 4.793 1.909 6.399 3.928l21.67 27.238 21.67-27.238c1.606-2.019 3.872-3.409 6.399-3.928 64.277-13.175 110.93-70.441 110.93-136.166 0-76.644-62.355-139-138.999-139z"/></g></g><path d="m323.437 206.359c-20.498-35.433-58.632-57.443-99.521-57.443s-79.023 22.011-99.521 57.443c-1.972 3.407-1.972 7.608 0 11.016 20.497 35.433 58.632 57.444 99.521 57.444s79.024-22.012 99.521-57.444c1.972-3.408 1.972-7.609 0-11.016zm-99.521 39.507c-18.748 0-34-15.252-34-34s15.252-34 34-34 34 15.252 34 34-15.252 34-34 34zm-77.029-34c7.384-10.915 16.942-20.002 27.886-26.825-4.368 7.971-6.857 17.112-6.857 26.825 0 9.714 2.489 18.855 6.858 26.826-10.945-6.822-20.502-15.909-27.887-26.826zm126.171 26.827c4.369-7.971 6.858-17.113 6.858-26.826s-2.489-18.854-6.857-26.825c10.944 6.823 20.501 15.91 27.886 26.825-7.385 10.916-16.943 20.003-27.887 26.826z" fill="#0496FF"/></g><g/><g/><g/><g/><g/><g/><g/><g/><g/><g/><g/><g/><g/><g/><g/></svg>