<svg id="Capa_1" enable-background="new 0 0 512.003 512.003" viewBox="0 0 512.003 512.003" xmlns="http://www.w3.org/2000/svg" fill="#052438"><g><path d="m419.488 222.939c-1.505-34.127-26.359-62.707-59.286-69.422 3.141-10.157 4.8-20.818 4.8-31.67v-68.358c0-18.469-15.073-33.494-33.6-33.494-6.335 0-12.266 1.759-17.328 4.81-6.042-8.926-16.28-14.807-27.871-14.807-6.333 0-12.264 1.758-17.327 4.81-6.043-8.926-16.282-14.808-27.872-14.808-11.591 0-21.829 5.881-27.871 14.808-5.063-3.051-10.993-4.81-17.328-4.81-18.527 0-33.6 15.025-33.6 33.494v30.206c-9.205 6.611-15.203 17.305-15.203 29.358v18.791c0 10.093 1.422 20.056 4.172 29.642-1.312-.082-2.628-.137-3.953-.137-34.447 0-62.471 28.024-62.471 62.472 0 2.151.109 4.294.327 6.42-28.529 5.766-50.075 31.032-50.075 61.236 0 22.944 12.217 43.374 31.468 54.285-4.733 9.664-7.192 20.277-7.192 31.28 0 39.349 32.012 71.36 71.36 71.36 7.826 0 15.568-1.285 22.91-3.771 7.501 26.733 24.669 62.351 63.689 75.29 4.237 1.405 8.575 2.078 12.838 2.078 12.843-.001 24.992-6.109 31.53-16.705 6.247-10.125 7.593-26.273-7.363-41.229-6.9-6.899-11.313-17.13-12.462-27.879 8.761 3.067 18.223 4.653 28.019 4.653 16.186 0 32.049-4.561 44.668-12.842 7.292-4.785 13.354-10.693 17.889-17.327 11.049 9.106 25.031 14.25 39.724 14.25 34.447 0 62.471-28.024 62.471-62.472 0-.491-.006-.983-.018-1.476 10.741-4.188 20.345-11.163 27.666-20.208 9.546-11.795 14.803-26.66 14.803-41.859-.001-33.637-25.075-61.53-57.514-65.969zm-88.086-180.944c6.396 0 11.6 5.156 11.6 11.494v45.048.009c-.036 6.3-5.239 11.426-11.599 11.426-6.396 0-11.6-5.156-11.6-11.494v-44.992c0-6.336 5.204-11.491 11.599-11.491zm-56.799 1.482c.008-6.329 5.212-11.479 11.6-11.479 6.396 0 11.6 5.156 11.6 11.494v44.988c0 6.338-5.204 11.494-11.599 11.494-6.396 0-11.6-5.156-11.6-11.494v-45.003zm-45.199-9.982c0-6.339 5.204-11.495 11.6-11.495s11.599 5.156 11.599 11.495v33.236h-23.199zm-33.6-1.497c6.396 0 11.6 5.156 11.6 11.494v23.239h-23.2v-23.239c0-6.338 5.203-11.494 11.6-11.494zm224.589 300.371c-.041.009-.082.012-.122.021-3.227.731-6.542 1.103-9.853 1.103-7.815 0-15.524-2.065-22.292-5.974-5.262-3.036-11.989-1.234-15.026 4.026-3.038 5.261-1.236 11.988 4.025 15.026 10.108 5.836 21.62 8.921 33.292 8.921.671 0 1.341-.036 2.011-.056-1.534 20.926-19.038 37.487-40.349 37.487-12.016 0-23.291-5.325-30.947-14.411.356-2.418.556-4.854.556-7.289 0-16.163-8.008-31.827-21.971-42.976-4.748-3.79-11.669-3.016-15.459 1.732-3.791 4.747-3.015 11.669 1.732 15.459 8.833 7.054 13.698 16.21 13.698 25.784 0 2.411-.316 4.833-.939 7.2-.011.042-.016.084-.026.126-4.672 17.56-25.221 30.293-48.924 30.293-11.786 0-23.246-3.204-32.267-9.022-3.07-1.979-6.923-2.307-10.282-.872-3.36 1.435-5.788 4.444-6.48 8.031-4.397 22.774 2.636 47.364 17.917 62.646 3.642 3.642 7.326 9.048 4.196 14.121-2.897 4.695-10.692 7.957-18.72 5.298-35.438-11.752-47.92-50.177-52.207-72.035-.611-3.087-2.57-5.826-5.294-7.409-8.576-4.951-13.903-14.179-13.903-24.081 0-15.333 12.474-27.807 27.807-27.807 2.43 0 4.851.318 7.196.947 5.868 1.573 11.9-1.909 13.473-7.777s-1.909-11.899-7.777-13.473c-4.202-1.126-8.54-1.697-12.892-1.697-27.463 0-49.807 22.343-49.807 49.807 0 10.905 3.619 21.346 9.968 29.838-3.303.688-6.682 1.048-10.087 1.048-27.217 0-49.36-22.143-49.36-49.36 0-10.82 3.436-21.091 9.936-29.702.001-.002.003-.003.005-.005 4.01-5.32 8.969-9.707 14.74-13.039 5.261-3.038 7.063-9.766 4.025-15.026-3.038-5.262-9.765-7.062-15.026-4.026-5.861 3.385-11.128 7.537-15.762 12.366-13.507-6.779-22.193-20.558-22.193-36.132 0-20.199 14.874-36.987 34.243-39.991 3.015 6.09 6.996 11.704 11.801 16.509 2.148 2.147 4.963 3.222 7.778 3.222s5.63-1.074 7.778-3.222c4.296-4.295 4.296-11.26 0-15.556-4.491-4.492-7.903-10.058-9.868-16.098-.012-.036-.028-.07-.04-.106-1.288-4-1.945-8.174-1.945-12.415 0-22.316 18.155-40.472 40.471-40.472 4.987 0 9.831.9 14.425 2.656.815 1.399 1.65 2.787 2.53 4.154 5.345 8.302 11.762 15.796 19.043 22.321v77.518c0 6.075 4.925 11 11 11s11-4.925 11-11v-62.192c1.106.584 2.223 1.15 3.352 1.697 1.546.75 3.181 1.105 4.792 1.105 4.083 0 8.005-2.283 9.906-6.204 2.65-5.466.368-12.046-5.099-14.696-29.868-14.482-49.167-45.045-49.167-77.863v-18.791c0-7.898 6.68-14.324 14.891-14.324h65.868c-2.548 10.473-8.951 22.988-23.068 22.988h-14.316c-6.075 0-11 4.925-11 11s4.925 11 11 11c17.75 0 32.19 14.351 32.19 31.989 0 6.075 4.925 11 11 11s11-4.925 11-11c0-15.252-6.379-29.046-16.621-38.873 5.357-3.574 9.819-8.354 13.358-13.872 6.005 5.584 14.054 9.011 22.895 9.011 6.335 0 12.265-1.759 17.328-4.81 6.042 8.926 16.28 14.807 27.871 14.807 3.922 0 7.691-.683 11.197-1.927-2.416 24.898-15.737 47.846-36.668 62.542-4.972 3.491-6.173 10.352-2.683 15.323 2.141 3.05 5.549 4.681 9.013 4.681 2.183 0 4.388-.648 6.311-1.998.618-.434 1.223-.882 1.831-1.327v57.402c0 6.075 4.925 11 11 11s11-4.925 11-11v-78.86c3.294-4.272 6.26-8.771 8.876-13.457 26.138 2.955 46.282 25.293 46.282 51.875 0 1.948-.113 3.938-.335 5.916-.359 3.189.692 6.376 2.878 8.726s5.304 3.621 8.496 3.497c.604-.024 1.209-.041 1.818-.041 24.583 0 44.584 20.001 44.584 44.585 0 20.622-14.548 38.879-34.608 43.46z"/><path d="m379.423 255.862c-6.978-1.87-14.179-2.818-21.403-2.818-15.058 0-29.497 4.017-42.046 11.437-13.111-9.947-29.192-15.392-45.712-15.392-23.956 0-46.451 11.47-60.609 30.418-12.603-7.469-27.019-11.463-42.053-11.463-7.225 0-14.426.948-21.403 2.818-5.868 1.573-9.35 7.604-7.777 13.473 1.573 5.867 7.606 9.353 13.473 7.777 5.121-1.372 10.405-2.068 15.708-2.068 16.212 0 31.453 6.313 42.917 17.777 2.148 2.147 4.963 3.222 7.778 3.222s5.63-1.074 7.778-3.222c4.001-4.002 4.271-10.317.818-14.636 10.013-13.751 26.162-22.096 43.37-22.096 9.82 0 19.417 2.72 27.743 7.751-1.621 1.714-3.177 3.506-4.665 5.373-3.786 4.751-3.002 11.672 1.75 15.457 2.025 1.613 4.444 2.396 6.847 2.396 3.235 0 6.439-1.42 8.611-4.146 11.582-14.538 28.885-22.876 47.473-22.876 5.302 0 10.587.696 15.708 2.068 5.868 1.575 11.9-1.909 13.473-7.777s-1.911-11.9-7.779-13.473z" fill="#0496FF"/></g><g/><g/><g/><g/><g/><g/><g/><g/><g/><g/><g/><g/><g/><g/><g/></svg>