<svg id="Capa_1" enable-background="new 0 0 511.999 511.999" viewBox="0 0 511.999 511.999" xmlns="http://www.w3.org/2000/svg" fill="#052438"><g><g><g><path d="m270 387.415c-33.167 0-63.99-16.89-81.937-44.487-23.458-1.129-44.829-12.939-58.273-31.895-8.231 2.958-16.983 4.496-25.771 4.496-41.916 0-76.018-34.102-76.018-76.018 0-27.294 14.729-52.415 38.078-65.886 1.031-52.98 44.449-95.766 97.672-95.766.802 0 1.609.01 2.421.031 24.157-33.237 62.503-52.891 103.828-52.891s79.672 19.653 103.828 52.891c.812-.021 1.619-.031 2.421-.031 53.223 0 96.641 42.786 97.672 95.766 23.35 13.471 38.078 38.592 38.078 65.886 0 41.917-34.102 76.018-76.019 76.018-8.787 0-17.539-1.538-25.77-4.496-13.445 18.955-34.816 30.765-58.273 31.895-17.947 27.598-48.769 44.487-81.937 44.487zm-75.712-66.451c3.972 0 7.65 2.146 9.6 5.632 13.387 23.945 38.72 38.819 66.112 38.819 27.394 0 52.727-14.875 66.113-38.819 2.018-3.609 5.913-5.788 10.019-5.625.697.026 1.397.045 2.101.045 20.161 0 38.507-11.107 47.878-28.986 2.82-5.382 9.471-7.455 14.849-4.637 7.77 4.071 16.188 6.135 25.021 6.135 29.786 0 54.019-24.232 54.019-54.018 0-21.158-12.455-40.479-31.731-49.223-4.127-1.872-6.684-6.083-6.44-10.608.074-1.384.112-2.773.112-4.13 0-41.736-33.955-75.69-75.69-75.69-2.275 0-4.618.108-6.963.322-4.073.373-7.979-1.53-10.205-4.936-19.751-30.21-53.053-48.246-89.083-48.246s-69.331 18.036-89.08 48.246c-2.227 3.406-6.149 5.312-10.204 4.936-2.347-.213-4.689-.322-6.964-.322-41.735 0-75.69 33.955-75.69 75.69 0 1.357.038 2.746.112 4.13.243 4.525-2.313 8.736-6.44 10.608-19.276 8.744-31.731 28.065-31.731 49.223 0 29.786 24.232 54.018 54.018 54.018 8.834 0 17.253-2.064 25.022-6.135 5.383-2.821 12.028-.743 14.849 4.637 9.37 17.879 27.716 28.986 47.877 28.986.704 0 1.404-.019 2.102-.045.138-.005.277-.007.417-.007z"/></g><g><path d="m142.165 454.749c-26.743 0-48.5-21.757-48.5-48.5s21.757-48.5 48.5-48.5c26.742 0 48.499 21.757 48.499 48.5s-21.757 48.5-48.499 48.5zm0-75c-14.612 0-26.5 11.888-26.5 26.5s11.888 26.5 26.5 26.5c14.611 0 26.499-11.888 26.499-26.5s-11.888-26.5-26.499-26.5z"/></g><g><path d="m38.75 487c-21.367 0-38.75-17.384-38.75-38.75 0-21.367 17.383-38.75 38.75-38.75s38.75 17.383 38.75 38.75c0 21.366-17.383 38.75-38.75 38.75zm0-55.501c-9.236 0-16.75 7.514-16.75 16.75s7.514 16.75 16.75 16.75 16.75-7.514 16.75-16.75-7.514-16.75-16.75-16.75z"/></g></g><g><g><path d="m291.144 306.014h-42.287c-5.605 0-10.313-4.214-10.933-9.785l-2.055-18.491c-5.744-2.516-11.169-5.653-16.229-9.385l-17.056 7.473c-5.137 2.25-11.138.278-13.94-4.575l-21.144-36.622c-2.803-4.854-1.507-11.039 3.008-14.36l15.003-11.037c-.343-3.111-.516-6.243-.516-9.366 0-3.126.173-6.258.515-9.367l-15.002-11.036c-4.515-3.322-5.811-9.507-3.008-14.361l21.144-36.622c2.804-4.855 8.809-6.822 13.94-4.576l17.058 7.474c5.06-3.732 10.484-6.87 16.227-9.385l2.055-18.491c.619-5.571 5.327-9.785 10.933-9.785h42.288c5.605 0 10.313 4.214 10.933 9.785l2.055 18.491c5.743 2.516 11.168 5.653 16.228 9.385l17.057-7.474c5.129-2.25 11.138-.279 13.94 4.576l21.144 36.622c2.803 4.854 1.507 11.039-3.008 14.361l-15.002 11.036c.342 3.108.515 6.24.515 9.367s-.172 6.258-.515 9.367l15.002 11.037c4.515 3.321 5.811 9.506 3.008 14.36l-21.144 36.622c-2.804 4.855-8.81 6.824-13.94 4.575l-17.058-7.473c-5.06 3.731-10.485 6.87-16.227 9.385l-2.056 18.492c-.62 5.569-5.329 9.783-10.933 9.783zm-32.442-22h22.597l1.702-15.317c.471-4.235 3.345-7.817 7.377-9.195 7.758-2.65 14.843-6.748 21.059-12.179 3.209-2.804 7.751-3.503 11.652-1.792l14.138 6.194 11.298-19.569-12.421-9.138c-3.429-2.522-5.095-6.796-4.276-10.974.781-3.993 1.178-8.09 1.178-12.178s-.396-8.186-1.178-12.178c-.818-4.177.848-8.452 4.276-10.974l12.421-9.137-11.298-19.569-14.138 6.194c-3.902 1.711-8.443 1.012-11.653-1.793-6.212-5.43-13.297-9.527-21.058-12.179-4.032-1.377-6.906-4.959-7.377-9.194l-1.702-15.317h-22.597l-1.702 15.315c-.471 4.235-3.345 7.817-7.377 9.195-7.759 2.65-14.844 6.748-21.059 12.179-3.209 2.805-7.75 3.503-11.652 1.792l-14.138-6.194-11.298 19.569 12.421 9.137c3.429 2.522 5.095 6.797 4.276 10.974-.781 3.993-1.178 8.09-1.178 12.178 0 4.08.396 8.178 1.18 12.18.816 4.176-.85 8.45-4.277 10.971l-12.422 9.139 11.298 19.569 14.137-6.194c3.905-1.709 8.446-1.011 11.653 1.793 6.211 5.429 13.296 9.526 21.06 12.179 4.031 1.377 6.905 4.959 7.376 9.194z" fill="#0496FF"/></g><g><path d="m270.001 237.295c-20.64 0-37.431-16.791-37.431-37.43s16.791-37.43 37.431-37.43c20.639 0 37.43 16.791 37.43 37.43s-16.791 37.43-37.43 37.43zm0-52.86c-8.509 0-15.431 6.922-15.431 15.43s6.922 15.43 15.431 15.43c8.508 0 15.43-6.922 15.43-15.43s-6.922-15.43-15.43-15.43z" fill="#0496FF"/></g></g></g><g/><g/><g/><g/><g/><g/><g/><g/><g/><g/><g/><g/><g/><g/><g/></svg>