<svg id="Capa_1" enable-background="new 0 0 512 512" viewBox="0 0 512 512" xmlns="http://www.w3.org/2000/svg" fill="#E6ECF2"><g><g><path d="m178.355 448.446c-6.075 0-11-4.925-11-11v-140.945c0-6.075 4.925-11 11-11s11 4.925 11 11v140.945c0 6.075-4.925 11-11 11zm-65.252 0c-6.075 0-11-4.925-11-11v-140.945c0-6.075 4.925-11 11-11s11 4.925 11 11v140.945c0 6.075-4.925 11-11 11z" fill="#0496FF"/></g><path d="m487 352.938c0-11.545-5.87-21.744-14.782-27.771 3.034-5.038 4.782-10.932 4.782-17.229 0-18.472-15.027-33.5-33.499-33.5h-10.731v-62.001c10.686-11.423 22.992-28.909 22.992-55.071v-100.874c0-18.743-15.249-33.992-33.992-33.992-6.271 0-12.15 1.707-17.198 4.68-6.021-9.562-16.675-15.93-28.786-15.93-6.271 0-12.15 1.707-17.198 4.68-6.024-9.563-16.676-15.93-28.788-15.93s-22.764 6.367-28.786 15.93c-5.048-2.973-10.928-4.68-17.198-4.68-18.744 0-33.993 15.249-33.993 33.992v25.267l-10.54 3.642c-23.757 8.208-36.426 30.837-32.277 57.651 5.786 37.384 36.206 67.472 52.817 81.405v28.427l-9.929 2.661c-2.076.556-3.944 1.708-5.372 3.314l-29.255 32.893h-179.267c-6.075 0-11 4.925-11 11s4.925 11 11 11h184.204c3.141 0 6.132-1.343 8.219-3.689l30.347-34.12 65.98-17.68c-.356 5.095-1.878 10.095-4.521 14.674-4.559 7.896-11.874 13.531-20.597 15.869l-6.264 1.678c-3.128.838-5.728 3.011-7.106 5.941l-24.575 52.221-18.777 18.777c-4.296 4.296-4.296 11.261 0 15.557 2.148 2.148 4.963 3.222 7.778 3.222s5.63-1.074 7.778-3.222l1.357-1.357v82.998c-11.289-2.269-21.381-8.242-31.841-18.701-2.062-2.063-4.86-3.222-7.778-3.222h-184.204c-6.075 0-11 4.925-11 11s4.925 11 11 11h179.752c9.667 9.043 23.837 19.38 44.071 22.227v25.325c0 6.075 4.925 11 11 11s11-4.925 11-11v-154.725l22.171-47.114 1.332-.357c14.399-3.858 26.459-13.134 33.956-26.119s9.501-28.067 5.642-42.467c-1.572-5.868-7.608-9.353-13.472-7.778l-49.629 13.298v-27.754c0-3.36-1.535-6.535-4.169-8.622-10.142-8.036-43.64-36.897-48.907-70.927-2.964-19.155 7.21-29.861 17.721-33.493l3.354-1.159v20.068c0 6.075 4.925 11 11 11s11-4.925 11-11v-68.609c0-6.613 5.38-11.992 11.993-11.992 6.612 0 11.992 5.379 11.992 11.992 0 6.075 4.925 11 11 11s11-4.925 11-11v-11.25c0-6.613 5.38-11.992 11.992-11.992s11.992 5.379 11.992 11.992v11.25c0 6.075 4.925 11 11 11s11-4.925 11-11c0-6.613 5.38-11.992 11.992-11.992s11.992 5.379 11.992 11.992v11.25c0 6.075 4.925 11 11 11s11-4.925 11-11c0-6.612 5.38-11.992 11.992-11.992s11.992 5.379 11.992 11.992v100.874c0 15.954-6.098 29.167-19.771 42.841-2.062 2.063-3.222 4.861-3.222 7.778v66.453h-15.731c-18.472 0-33.5 15.028-33.5 33.5 0 5.4 1.292 10.501 3.571 15.023-10.998 5.5-18.571 16.868-18.571 29.977s7.574 24.477 18.571 29.977c-2.279 4.522-3.571 9.623-3.571 15.023 0 13.109 7.574 24.477 18.571 29.977-2.279 4.522-3.571 9.623-3.571 15.023 0 18.472 15.028 33.5 33.5 33.5h.731v24.562c0 6.075 4.925 11 11 11s11-4.925 11-11v-24.562h.73c18.472 0 33.5-15.028 33.5-33.5 0-6.297-1.749-12.191-4.783-17.229 8.912-6.026 14.783-16.226 14.783-27.771 0-6.297-1.749-12.191-4.782-17.229 8.915-6.026 14.786-16.226 14.786-27.771zm-33.5-11.5c6.341 0 11.499 5.159 11.499 11.5s-5.158 11.5-11.499 11.5h-73.463c-6.341 0-11.5-5.159-11.5-11.5s5.159-11.5 11.5-11.5zm1.5 56.501c0 6.341-5.158 11.5-11.499 11.5h-48.463c-6.341 0-11.5-5.159-11.5-11.5s5.159-11.5 11.5-11.5h48.462c6.341-.001 11.5 5.159 11.5 11.5zm-59.962-101.501h48.462c6.341 0 11.499 5.159 11.499 11.5s-5.158 11.5-11.499 11.5h-48.463c-6.341 0-11.5-5.159-11.5-11.5.001-6.341 5.16-11.5 11.501-11.5zm38.462 158h-23.462c-6.341 0-11.5-5.159-11.5-11.5s5.159-11.5 11.5-11.5h23.462c6.341 0 11.5 5.159 11.5 11.5 0 6.342-5.16 11.5-11.5 11.5z"/></g><g/><g/><g/><g/><g/><g/><g/><g/><g/><g/><g/><g/><g/><g/><g/></svg>