<svg id="Capa_1" enable-background="new 0 0 512 512" viewBox="0 0 512 512" xmlns="http://www.w3.org/2000/svg" fill="#052438"><g><g><g><path d="m256 467.713c-38.561 0-74.578-19.004-96.344-50.835-3.429-5.015-2.144-11.86 2.871-15.289 5.014-3.429 11.859-2.144 15.289 2.871 17.664 25.831 46.891 41.253 78.184 41.253s60.52-15.422 78.183-41.253c3.429-5.015 10.274-6.3 15.289-2.871s6.3 10.274 2.871 15.289c-21.765 31.831-57.781 50.835-96.343 50.835z" fill="#0496FF"/></g><g><path d="m338.084 149.813c-1.866 0-3.757-.475-5.489-1.476-5.261-3.037-7.064-9.765-4.027-15.026l.926-1.604-11.32-8.328c-3.429-2.522-5.094-6.797-4.276-10.974.731-3.737 1.102-7.574 1.102-11.405s-.371-7.668-1.103-11.405c-.818-4.177.848-8.452 4.276-10.974l11.32-8.327-10.153-17.587-12.885 5.645c-3.904 1.709-8.444 1.011-11.652-1.793-5.82-5.086-12.455-8.923-19.72-11.404-4.032-1.377-6.906-4.96-7.377-9.195l-1.551-13.96h-20.309l-1.551 13.959c-.471 4.235-3.345 7.817-7.376 9.194-7.265 2.482-13.9 6.319-19.721 11.405-3.208 2.804-7.748 3.502-11.652 1.792l-12.884-5.645-10.154 17.587 11.32 8.327c3.428 2.522 5.094 6.796 4.277 10.973-.734 3.742-1.105 7.58-1.105 11.408 0 3.823.372 7.66 1.104 11.404.817 4.177-.849 8.451-4.277 10.974l-11.321 8.329.818 1.417c3.038 5.261 1.235 11.989-4.026 15.026-5.263 3.038-11.989 1.235-15.026-4.026l-5.741-9.943c-2.802-4.854-1.507-11.039 3.008-14.36l13.916-10.237c-.302-2.851-.454-5.72-.454-8.583 0-2.864.152-5.733.453-8.583l-13.915-10.236c-4.515-3.322-5.81-9.507-3.008-14.361l20-34.64c2.802-4.854 8.806-6.825 13.94-4.575l15.82 6.931c4.649-3.398 9.621-6.273 14.871-8.6l1.906-17.15c.619-5.573 5.327-9.787 10.932-9.787h40c5.605 0 10.313 4.214 10.933 9.785l1.906 17.15c5.251 2.327 10.222 5.201 14.871 8.6l15.82-6.931c5.133-2.25 11.138-.278 13.94 4.576l20 34.64c2.802 4.854 1.507 11.039-3.008 14.361l-13.915 10.236c.301 2.849.453 5.718.453 8.583s-.152 5.734-.453 8.583l13.915 10.237c4.515 3.321 5.81 9.506 3.008 14.36l-5.848 10.13c-2.038 3.529-5.737 5.502-9.538 5.503z" fill="#0496FF"/></g><g><path d="m256 137c-19.851 0-36-16.149-36-36s16.149-36 36-36 36 16.149 36 36-16.149 36-36 36zm0-50c-7.72 0-14 6.28-14 14s6.28 14 14 14 14-6.28 14-14-6.28-14-14-14z" fill="#0496FF"/></g></g><g><path d="m462.752 442.161c-15.644-14.137-37.405-21.967-58.591-28.321l-50.006-15c-27.293-8.187-34.161-13.818-34.161-40.589v-14.875c6.718-4.349 13.012-9.414 18.771-15.17 19.308-19.295 31.539-45.168 35.042-73.706h4.693c25.364 0 46-20.636 46-46 0-25.362-20.631-45.995-45.992-45.999l.98-20.987c.141-3.003-.955-5.933-3.03-8.108-2.076-2.175-4.951-3.405-7.958-3.405h-225c-3.006 0-5.882 1.23-7.958 3.405s-3.171 5.104-3.03 8.108l.98 20.987c-25.361.004-45.993 20.638-45.993 46 0 25.364 20.636 46 46 46h4.694c3.503 28.538 15.734 54.411 35.041 73.706 5.759 5.756 12.053 10.821 18.771 15.17v14.875c0 26.771-6.868 32.402-34.161 40.589l-50.006 15c-21.187 6.354-42.948 14.184-58.591 28.321-15.61 14.107-23.524 33.258-24.195 58.547-.161 6.073 4.631 11.126 10.705 11.288.099.003.198.004.297.004 5.94 0 10.833-4.735 10.991-10.708 1.051-39.643 22.479-52.991 67.115-66.379l50.006-15c33.055-9.915 49.839-22.174 49.839-61.661v-3.787c13.171 4.945 27.348 7.534 41.995 7.534s28.824-2.588 41.994-7.535v3.787c0 39.487 16.784 51.746 49.84 61.661l50.006 15c44.636 13.389 66.063 26.736 67.115 66.379.158 5.974 5.05 10.708 10.991 10.708.098 0 .198-.001.297-.004 6.073-.161 10.866-5.215 10.705-11.288-.671-25.289-8.585-44.44-24.196-58.547zm-84.252-257.661c13.233 0 24 10.767 24 24s-10.766 24-24 24h-3.262l2.242-48zm-269 24c0-13.233 10.767-24 24-24h1.02l2.242 48h-3.262c-13.234 0-24-10.767-24-24zm49.775 34.487-4.249-90.987h201.948l-4.25 90.987c-2.624 56.213-43.303 97.013-96.724 97.013s-94.099-40.8-96.725-97.013z"/><path d="m269.16 264.185c-3.996 2.307-8.546 3.526-13.16 3.526s-9.165-1.219-13.16-3.526c-5.26-3.037-11.989-1.235-15.026 4.026s-1.235 11.989 4.026 15.026c7.336 4.235 15.69 6.474 24.16 6.474s16.824-2.239 24.16-6.474c5.261-3.038 7.064-9.765 4.026-15.026-3.037-5.26-9.764-7.063-15.026-4.026z"/><path d="m232.001 211v-5c0-6.075-4.925-11-11-11s-11 4.925-11 11v5c0 6.075 4.925 11 11 11s11-4.925 11-11z"/><path d="m290.999 195c-6.075 0-11 4.925-11 11v5c0 6.075 4.925 11 11 11s11-4.925 11-11v-5c0-6.075-4.925-11-11-11z"/></g></g><g/><g/><g/><g/><g/><g/><g/><g/><g/><g/><g/><g/><g/><g/><g/></svg>