<svg id="Capa_1" enable-background="new 0 0 512.099 512.099" viewBox="0 0 512.099 512.099" xmlns="http://www.w3.org/2000/svg" fill="#052438"><g><g><path d="m503.943 351.035-478.231-128.143c-2.815-.754-5.819-.361-8.347 1.099-2.526 1.459-4.37 3.861-5.125 6.68l-11.768 43.92c-1.572 5.868 1.91 11.899 7.778 13.472l192.598 51.607-18.948 105.362h-10.803c-6.075 0-11 4.925-11 11s4.925 11 11 11h160c6.075 0 11-4.925 11-11s-4.925-11-11-11h-10.802l-13.862-77.073 180.049 48.244c.937.251 1.894.375 2.847.375 1.914 0 3.813-.5 5.5-1.474 2.526-1.459 4.37-3.861 5.125-6.68l11.768-43.919c1.572-5.867-1.91-11.898-7.779-13.47zm-299.691 93.997 16.04-89.184c9.354 9.205 22.135 14.701 35.805 14.701 9.602 0 18.98-2.723 27.051-7.771l14.794 82.254zm277.299-52.926-196.703-52.706c-.939-.252-1.896-.375-2.846-.375-2.579 0-5.111.908-7.123 2.617-5.242 4.453-11.912 6.906-18.781 6.906-12.235 0-23.216-7.738-27.322-19.257-1.215-3.403-4.023-5.994-7.515-6.93l-196.692-52.702 6.074-22.669 456.981 122.448z"/><path d="m90.458 216.062c.933.25 1.891.375 2.848.375s1.915-.125 2.848-.375c21.389-5.731 59.218-36.23 77.831-68.468 24.289-42.071 9.507-74.955-10.532-90.331-20.989-16.104-49.091-16.086-70.146-.972-21.057-15.115-49.16-15.132-70.148.972-20.039 15.376-34.821 48.26-10.532 90.331 18.613 32.238 56.442 62.737 77.831 68.468zm-53.906-141.345c6.058-4.648 14.106-7.703 22.635-7.703 8.828 0 18.17 3.275 26.341 11.446 2.062 2.062 4.861 3.222 7.778 3.222s5.716-1.159 7.778-3.222c16.064-16.065 36.647-13.203 48.976-3.743 13.601 10.436 22.022 32.171 4.872 61.877-15.248 26.406-45.802 51.124-61.626 57.271-15.825-6.147-46.38-30.863-61.626-57.271-17.151-29.706-8.729-51.441 4.872-61.877z"/></g><g><g><path d="m433.154 298.407h-39.999c-5.604 0-10.313-4.215-10.933-9.785l-1.906-17.149c-5.252-2.327-10.224-5.202-14.872-8.602l-15.819 6.931c-5.135 2.247-11.138.279-13.94-4.575l-19.999-34.64c-2.803-4.854-1.507-11.039 3.008-14.36l13.915-10.237c-.302-2.851-.454-5.72-.454-8.583s.152-5.732.453-8.583l-13.914-10.236c-4.515-3.321-5.811-9.506-3.008-14.36l20-34.641c2.804-4.854 8.81-6.826 13.94-4.575l15.82 6.931c4.648-3.398 9.62-6.273 14.87-8.601l1.905-17.149c.619-5.57 5.327-9.785 10.933-9.785h40c5.605 0 10.313 4.215 10.933 9.785l1.906 17.149c5.251 2.327 10.222 5.202 14.87 8.601l15.82-6.931c5.133-2.25 11.137-.279 13.94 4.575l19.999 34.641c2.803 4.854 1.507 11.039-3.008 14.36l-13.914 10.236c.302 2.849.453 5.718.453 8.583s-.151 5.734-.453 8.584l13.914 10.236c4.515 3.321 5.811 9.506 3.008 14.36l-19.999 34.64c-2.805 4.854-8.81 6.824-13.94 4.575l-15.82-6.931c-4.648 3.398-9.619 6.273-14.87 8.601l-1.906 17.15c-.619 5.57-5.327 9.785-10.933 9.785zm-30.153-22h20.308l1.552-13.959c.471-4.234 3.344-7.816 7.376-9.194 7.267-2.483 13.901-6.32 19.721-11.406 3.209-2.804 7.75-3.505 11.652-1.792l12.885 5.645 10.153-17.587-11.319-8.328c-3.429-2.522-5.095-6.797-4.276-10.974.731-3.737 1.103-7.574 1.103-11.405 0-3.83-.371-7.668-1.103-11.405-.818-4.178.848-8.451 4.276-10.974l11.319-8.327-10.153-17.588-12.885 5.645c-3.903 1.708-8.443 1.012-11.652-1.792-5.819-5.086-12.454-8.923-19.72-11.405-4.032-1.377-6.906-4.959-7.377-9.194l-1.552-13.959h-20.309l-1.551 13.959c-.471 4.234-3.345 7.817-7.377 9.194-7.265 2.481-13.899 6.318-19.72 11.405-3.21 2.804-7.75 3.503-11.652 1.792l-12.885-5.645-10.154 17.587 11.319 8.327c3.428 2.521 5.094 6.795 4.277 10.972-.732 3.742-1.104 7.58-1.104 11.407 0 3.823.372 7.66 1.104 11.404.818 4.177-.848 8.451-4.276 10.974l-11.321 8.329 10.153 17.587 12.885-5.645c3.903-1.71 8.444-1.013 11.653 1.794 5.817 5.085 12.452 8.922 19.72 11.404 4.032 1.377 6.906 4.959 7.377 9.194z" fill="#0496FF"/></g><g><path d="m413.154 233.406c-19.85 0-35.999-16.149-35.999-36s16.149-36 35.999-36c19.851 0 36 16.149 36 36s-16.149 36-36 36zm0-50c-7.719 0-13.999 6.28-13.999 14s6.28 14 13.999 14c7.72 0 14-6.28 14-14s-6.28-14-14-14z" fill="#0496FF"/></g></g></g><g/><g/><g/><g/><g/><g/><g/><g/><g/><g/><g/><g/><g/><g/><g/></svg>