<svg id="Layer_1" enable-background="new 0 0 512 512" viewBox="0 0 512 512" xmlns="http://www.w3.org/2000/svg" fill="#052438"><g><path d="m314.302 170.433c-1.229-3.784-4.406-6.609-8.309-7.388l-26.954-5.38-13.445-23.972c-1.947-3.471-5.615-5.619-9.594-5.619s-7.647 2.148-9.594 5.619l-13.445 23.972-26.954 5.38c-3.902.779-7.079 3.604-8.309 7.388s-.32 7.937 2.379 10.86l18.644 20.195-3.213 27.297c-.465 3.951 1.24 7.846 4.459 10.185s7.451 2.757 11.064 1.094l24.969-11.491 24.968 11.491c1.467.675 3.036 1.007 4.598 1.007 2.285 0 4.554-.711 6.467-2.101 3.219-2.338 4.924-6.233 4.459-10.185l-3.213-27.297 18.644-20.195c2.699-2.923 3.609-7.076 2.379-10.86zm-40.622 19.851c-2.179 2.361-3.218 5.557-2.842 8.748l1.512 12.848-11.751-5.408c-1.459-.671-3.029-1.007-4.599-1.007s-3.139.336-4.599 1.007l-11.751 5.408 1.512-12.848c.375-3.191-.663-6.387-2.842-8.748l-8.775-9.504 12.686-2.532c3.151-.629 5.87-2.604 7.441-5.406l6.328-11.282 6.328 11.282c1.571 2.802 4.29 4.777 7.441 5.406l12.686 2.532z" fill="#0496FF"/><g><path d="m256 84.073c-58.064 0-105.302 47.238-105.302 105.302s47.238 105.303 105.302 105.303 105.302-47.238 105.302-105.302-47.238-105.303-105.302-105.303zm0 188.605c-45.933 0-83.302-37.369-83.302-83.302s37.369-83.302 83.302-83.302 83.302 37.369 83.302 83.302-37.369 83.302-83.302 83.302z"/><path d="m445.375 189.375c0-104.421-84.953-189.375-189.375-189.375s-189.375 84.954-189.375 189.375c0 84.864 56.331 159.15 137.532 182.187l16.664 26.515h-28.85c-31.409 0-56.962 25.553-56.962 56.961s25.553 56.962 56.962 56.962h128.058c31.409 0 56.962-25.553 56.962-56.962s-25.553-56.961-56.962-56.961h-28.85l16.664-26.515c81.202-23.036 137.532-97.322 137.532-182.187zm-125.346 230.702c19.278 0 34.962 15.684 34.962 34.961s-15.684 34.962-34.962 34.962h-128.058c-19.278 0-34.962-15.684-34.962-34.962s15.684-34.961 34.962-34.961h42.677l12.039 19.155c2.013 3.203 5.531 5.146 9.313 5.146s7.3-1.944 9.313-5.146l12.039-19.155zm-28.526-63.859-35.503 56.488-35.503-56.488c-1.494-2.377-3.84-4.092-6.558-4.796-73.784-19.093-125.315-85.729-125.315-162.046.001-92.292 75.085-167.376 167.376-167.376s167.375 75.084 167.375 167.375c0 76.317-51.531 142.953-125.315 162.046-2.717.704-5.063 2.42-6.557 4.797z"/></g></g><g/><g/><g/><g/><g/><g/><g/><g/><g/><g/><g/><g/><g/><g/><g/></svg>