<svg id="Layer_1" enable-background="new 0 0 512 512" viewBox="0 0 512 512" xmlns="http://www.w3.org/2000/svg" fill="#052438"><g><g fill="#0496FF"><path d="m127.33 126.05c6.917 3.137 15.417-2.58 15.21-10.15.055-9.686-11.973-14.691-18.78-7.78-5.52 5.19-3.53 15.258 3.57 17.93z"/><path d="m185.689 111.69c-3.136-8.032-14.648-9.153-19.3-1.9-4.906 7.089.527 17.255 9.151 17.099 7.57.232 13.291-8.293 10.149-15.199z"/><path d="m177.987 141.681c-5.09-3.318-11.904-1.881-15.223 3.208-2.044 3.135-5.493 5.007-9.227 5.007s-7.184-1.872-9.229-5.008c-3.318-5.088-10.133-6.525-15.223-3.205-5.089 3.318-6.523 10.134-3.205 15.223 6.121 9.387 16.46 14.991 27.656 14.991 11.197 0 21.536-5.604 27.656-14.992 3.32-5.091 1.884-11.906-3.205-15.224z"/><path d="m153.538 58.859c-42.822 0-77.661 34.838-77.661 77.661s34.839 77.661 77.661 77.661 77.661-34.839 77.661-77.661-34.839-77.661-77.661-77.661zm0 133.322c-30.691 0-55.661-24.97-55.661-55.661s24.97-55.661 55.661-55.661 55.661 24.969 55.661 55.661-24.97 55.661-55.661 55.661z"/></g><g><path d="m512 369.478c0-16.071-11.101-29.592-26.036-33.313 1.74-4.106 2.703-8.619 2.703-13.352 0-18.931-15.401-34.333-34.332-34.333h-56.412v-56.94c0-22.61-18.396-41.005-41.006-41.005h-16.659c-6.075 0-11 4.925-11 11v33.334c0 23.909-12.67 46.513-33.064 58.991l-29.383 17.976h-16.576c-.506-5.606-5.212-10-10.949-10h-85.747c-6.075 0-11 4.925-11 11v159.948c0 6.075 4.925 11 11 11h85.747c5.738 0 10.444-4.394 10.949-10h16.827l39.615 21.976c1.633.906 3.469 1.381 5.336 1.381h126.767c18.932 0 34.333-15.401 34.333-34.333 0-5.678-1.394-11.033-3.844-15.756 11.471-5.564 19.399-17.328 19.399-30.91 0-4.733-.963-9.246-2.703-13.353 14.934-3.72 26.035-17.241 26.035-33.311zm-347.462-45.642h63.747v137.948h-63.747zm313.129 57.974h-56.492c-6.075 0-11 4.925-11 11s4.925 11 11 11h33.16c6.8 0 12.332 5.533 12.332 12.333s-5.532 12.333-12.332 12.333h-33.16c-6.075 0-11 4.925-11 11s4.925 11 11 11h17.604c6.801 0 12.333 5.533 12.333 12.333s-5.532 12.333-12.333 12.333h-123.92l-39.615-21.976c-1.633-.906-3.469-1.381-5.336-1.381h-19.623v-117.949h19.623c2.026 0 4.013-.56 5.74-1.617l32.026-19.593c26.883-16.448 43.583-46.243 43.583-77.757v-22.334h5.659c10.479 0 19.006 8.526 19.006 19.005v67.939c0 6.075 4.925 11 11 11h67.412c6.8 0 12.332 5.533 12.332 12.333s-5.532 12.333-12.332 12.333h-33.16c-6.075 0-11 4.925-11 11s4.925 11 11 11h56.492c6.801 0 12.333 5.533 12.333 12.333s-5.531 12.332-12.332 12.332z"/><path d="m153.538 279.293c2.918 0 5.716-1.159 7.778-3.222l17.891-17.891h86.869c22.607 0 41-18.393 41-41v-161.321c0-22.607-18.393-41-41-41h-225.076c-22.607 0-41 18.393-41 41v161.322c0 22.607 18.393 41 41 41h86.868l17.892 17.891c2.063 2.063 4.861 3.221 7.778 3.221zm-21.113-43.112h-91.425c-10.477 0-19-8.523-19-19v-161.322c0-10.477 8.523-19 19-19h225.076c10.477 0 19 8.523 19 19v161.322c0 10.477-8.523 19-19 19h-91.426c-2.917 0-5.716 1.159-7.778 3.222l-13.334 13.334-13.335-13.335c-2.063-2.063-4.861-3.221-7.778-3.221z"/></g></g><g/><g/><g/><g/><g/><g/><g/><g/><g/><g/><g/><g/><g/><g/><g/></svg>