<svg id="Capa_1" enable-background="new 0 0 514.423 514.423" viewBox="0 0 514.423 514.423" xmlns="http://www.w3.org/2000/svg" fill="#E6ECF2"><g><g><g><g><path d="m384.775 222.709c-61.561 0-111.644-50.083-111.644-111.643 6.133-148.11 217.177-148.067 223.287.001.001 61.559-50.082 111.642-111.643 111.642zm0-201.286c-49.43 0-89.644 40.214-89.644 89.643 4.924 118.924 174.381 118.889 179.287-.001.001-49.428-40.213-89.642-89.643-89.642z"/></g><g><path d="m384.775 161.713c-13.572 0-26.464-5.497-36.3-15.479-9.826-10.794 5.014-25.429 15.67-15.441 11.253 11.814 30.007 11.813 41.26 0 10.636-9.982 25.505 4.633 15.67 15.442-9.836 9.981-22.727 15.478-36.3 15.478z"/></g></g><g><g><path d="m146.893 157.647c-2.843 0-5.684-1.095-7.836-3.279-5.668-5.752-12.995-8.92-20.63-8.92s-14.962 3.168-20.63 8.92c-4.264 4.326-11.228 4.379-15.556.114-4.327-4.264-4.379-11.229-.114-15.556 9.836-9.981 22.727-15.479 36.3-15.479 13.572 0 26.464 5.497 36.3 15.479 4.265 4.327 4.213 11.291-.114 15.556-2.143 2.112-4.933 3.165-7.72 3.165z"/></g><g><path d="m118.427 222.709c-61.561 0-111.644-50.083-111.644-111.643 6.133-148.11 217.177-148.067 223.287.001 0 61.559-50.083 111.642-111.643 111.642zm0-201.286c-49.43 0-89.644 40.214-89.644 89.643 4.924 118.924 174.381 118.889 179.287-.001 0-49.428-40.214-89.642-89.643-89.642z"/></g></g><g><path d="m76.062 100.013c-7.62.168-13.264-8.231-10.15-15.21 3.607-8.978 16.696-8.973 20.31 0 3.1 6.988-2.53 15.378-10.16 15.21z"/></g><g><path d="m159.602 100.013c-7.662.138-13.242-8.179-10.15-15.21 3.603-8.979 16.699-8.971 20.309 0 3.095 6.991-2.526 15.377-10.159 15.21z"/></g><g><path d="m343.002 106.073c-7.67.132-13.24-8.172-10.149-15.21 3.597-8.972 16.705-8.967 20.309 0 3.075 7.038-2.487 15.348-10.16 15.21z"/></g><g><path d="m426.542 106.073c-8.664.091-14.047-9.96-9.14-17.11 6.015-8.97 20.116-4.691 20.139 6.11.117 5.901-5.094 11.113-10.999 11z"/></g></g><g><g><path d="m467.076 514.423h-112.842c-6.075 0-11-4.925-11-11 0-26.281-10.234-50.988-28.817-69.57l-25.982-25.983c-16.095-16.093-16.559-42.341-1.034-58.51 14.172-15.387 39.81-17.02 55.834-3.712v-99.824c0-22.695 18.175-41.583 40.515-42.104 22.638-1.029 42.965 18.824 42.481 41.487v89.718l54.793 23.895c20.237 8.156 30.961 30.392 24.955 51.81.044.126-28.37 95.771-28.353 95.911-1.383 4.674-5.676 7.882-10.55 7.882zm-102.334-22h94.115l25.956-87.798c2.888-10.42-2.418-21.582-12.101-25.434-.12-.052-61.683-26.886-61.88-26.979-4.01-1.749-6.602-5.708-6.602-10.083v-96.922c.233-10.632-9.35-20-19.969-19.492-10.492.244-19.027 9.265-19.027 20.109v126.02c0 4.449-2.68 8.46-6.79 10.163-4.112 1.701-8.843.761-11.988-2.384l-15.32-15.32c-7.367-7.683-20.66-7.546-27.866.295-7.291 7.594-6.968 20.027.722 27.716 31.847 31.152 56.229 52.878 60.75 100.109zm130.645-84.762h.01z" fill="#0496FF"/></g></g></g><g/><g/><g/><g/><g/><g/><g/><g/><g/><g/><g/><g/><g/><g/><g/></svg>