<svg id="Capa_1" enable-background="new 0 0 512 512" viewBox="0 0 512 512" xmlns="http://www.w3.org/2000/svg" fill="#E6ECF2"><g><g><g><path d="m501 343.126h-218.903c-6.075 0-11-4.925-11-11v-152.252c0-6.075 4.925-11 11-11h218.903c6.075 0 11 4.925 11 11v152.252c0 6.075-4.925 11-11 11zm-207.903-22h196.903v-130.252h-196.903z"/></g><path d="m438.76 87.063c-3.355-5.063-10.183-6.446-15.247-3.091l-20.96 13.894v-62.227c0-19.652-15.988-35.639-35.639-35.639h-122.604c-6.075 0-11 4.925-11 11s4.925 11 11 11h122.604c7.521 0 13.639 6.118 13.639 13.639v62.236l-20.974-13.903c-12.457-7.573-24.009 9.776-12.154 18.338 0 0 38.051 25.223 38.051 25.223 1.83 1.196 4.004 1.858 6.187 1.825 2.111-.02 4.202-.663 5.964-1.828l38.042-25.218c5.063-3.359 6.447-10.184 3.091-15.249z" fill="#0496FF"/><path d="m391.553 382.122c-6.075 0-11 4.925-11 11v45.429c0 7.388-6.01 13.398-13.397 13.398h-94.509l13.895-20.96c3.357-5.063 1.974-11.89-3.09-15.246-5.062-3.357-11.891-1.974-15.246 3.09l-25.219 38.042c-1.233 1.884-1.902 4.144-1.82 6.398.059 2.06.712 4.083 1.848 5.803l25.189 38.001c3.377 5.103 10.251 6.421 15.246 3.092 5.064-3.356 6.448-10.183 3.092-15.246l-13.902-20.974h94.516c19.518 0 35.397-15.88 35.397-35.398v-45.429c0-6.075-4.925-11-11-11z" fill="#0496FF"/><g><path d="m440.004 267h-96.911c-6.075 0-11-4.925-11-11s4.925-11 11-11h96.911c14.565.567 14.612 21.413 0 22z"/></g></g><g><g><path d="m69.87 391.97c-7.618.19-13.26-8.231-10.15-15.2 3.593-8.986 16.709-8.977 20.31 0 3.101 6.975-2.536 15.389-10.16 15.2z"/></g><g><path d="m153.41 391.97c-7.62.186-13.26-8.232-10.15-15.2 3.649-8.995 16.653-8.995 20.309 0 3.104 6.974-2.536 15.39-10.159 15.2z"/></g><g><path d="m111.644 512c-61.561 0-111.644-50.083-111.644-111.644 6.133-148.109 217.176-148.066 223.286.001 0 61.56-50.083 111.643-111.642 111.643zm0-201.286c-49.43 0-89.644 40.214-89.644 89.643 4.924 118.924 174.38 118.89 179.286-.001 0-49.428-40.214-89.642-89.642-89.642z"/></g><g><path d="m111.644 451.004c-13.574 0-26.466-5.497-36.301-15.479-9.824-10.797 5.013-25.427 15.672-15.441 11.25 11.814 30.007 11.814 41.257 0 10.636-9.981 25.505 4.63 15.672 15.442-9.836 9.981-22.727 15.478-36.3 15.478z"/></g></g><g><g><path d="m140.108 158.224c-2.843 0-5.684-1.095-7.836-3.279-5.668-5.752-12.994-8.92-20.629-8.92s-14.962 3.168-20.63 8.92c-4.264 4.327-11.229 4.381-15.556.114-4.327-4.264-4.379-11.229-.114-15.556 9.836-9.981 22.727-15.479 36.3-15.479 13.572 0 26.463 5.497 36.299 15.479 4.265 4.327 4.213 11.292-.114 15.556-2.143 2.111-4.933 3.165-7.72 3.165z"/></g><g><path d="m111.644 223.286c-61.561 0-111.644-50.083-111.644-111.642 6.132-148.11 217.176-148.068 223.286.001 0 61.558-50.083 111.641-111.642 111.641zm0-201.286c-49.43 0-89.644 40.214-89.644 89.644 4.924 118.923 174.38 118.889 179.286-.001 0-49.429-40.214-89.643-89.642-89.643z"/></g><g><path d="m69.87 100.59c-7.671.123-13.239-8.17-10.15-15.21 3.603-8.98 16.699-8.97 20.31 0 3.069 7.038-2.48 15.344-10.16 15.21z"/></g><g><path d="m153.41 100.59c-7.668.124-13.239-8.177-10.15-15.21 3.655-8.998 16.655-8.964 20.309 0 3.071 7.044-2.481 15.335-10.159 15.21z"/></g></g></g><g/><g/><g/><g/><g/><g/><g/><g/><g/><g/><g/><g/><g/><g/><g/></svg>