<svg id="Capa_1" enable-background="new 0 0 512 512" viewBox="0 0 512 512" xmlns="http://www.w3.org/2000/svg" fill="#E6ECF2"><g><g><g><path d="m144.173 219.22c-2.788 0-5.577-1.053-7.72-3.165-4.327-4.264-4.378-11.229-.114-15.556 9.836-9.981 22.727-15.478 36.3-15.478s26.465 5.497 36.3 15.479c4.265 4.328 4.213 11.292-.114 15.556-4.328 4.265-11.293 4.211-15.556-.115-5.668-5.752-12.994-8.92-20.63-8.92-7.635 0-14.961 3.168-20.63 8.92-2.153 2.184-4.993 3.279-7.836 3.279z" fill="#0496FF"/></g><g><path d="m172.639 284.282c-61.56 0-111.643-50.083-111.643-111.643 6.133-148.11 217.176-148.066 223.286.001 0 61.559-50.083 111.642-111.643 111.642zm0-201.286c-49.429 0-89.643 40.214-89.643 89.643 4.924 118.924 174.38 118.889 179.286-.001 0-49.428-40.214-89.642-89.643-89.642z" fill="#0496FF"/></g><g><path d="m130.87 168.18c-7.681.132-13.23-8.165-10.16-15.21 3.622-8.977 16.694-8.975 20.32 0 3.061 7.049-2.481 15.34-10.16 15.21z" fill="#0496FF"/></g><g><path d="m214.41 168.18c-7.635.166-13.254-8.217-10.16-15.21 3.624-8.977 16.69-8.975 20.319 0 3.086 6.992-2.524 15.376-10.159 15.21z" fill="#0496FF"/></g></g><path d="m469.343 161.639h-124.065v-112.921c0-26.864-21.855-48.718-48.718-48.718h-247.842c-26.864 0-48.718 21.854-48.718 48.718v357.556c0 4.449 2.68 8.46 6.79 10.163 4.069 1.695 8.833.777 11.988-2.384l68.773-68.774h69.278v59.908c0 23.521 19.136 42.657 42.657 42.657h66.209l60.936 60.936c2.064 2.063 4.861 3.222 7.778 3.222s5.715-1.159 7.778-3.222l60.935-60.936h66.219c23.521 0 42.657-19.136 42.657-42.657v-200.89c.002-23.522-19.134-42.658-42.655-42.658zm-386.348 161.639c-2.917 0-5.715 1.159-7.778 3.222l-53.217 53.217v-330.999c0-14.733 11.985-26.718 26.718-26.718h247.842c14.732 0 26.719 11.985 26.719 26.718v247.842c0 14.732-11.986 26.718-26.719 26.718zm407.005 81.907c0 11.39-9.267 20.657-20.657 20.657h-70.775c-2.917 0-5.715 1.159-7.778 3.222l-56.379 56.38-56.379-56.38c-2.064-2.063-4.861-3.222-7.778-3.222h-70.766c-11.391 0-20.657-9.267-20.657-20.657v-59.908h117.73c23.529 0 43.214-16.766 47.739-38.979h95.705c6.075 0 11-4.925 11-11s-4.925-11-11-11h-94.726v-38.996h94.726c6.075 0 11-4.925 11-11s-4.925-11-11-11h-94.726v-39.664h124.065c11.391 0 20.657 9.267 20.657 20.657v200.89z"/></g><g/><g/><g/><g/><g/><g/><g/><g/><g/><g/><g/><g/><g/><g/><g/></svg>