<svg id="Capa_1" enable-background="new 0 0 512.043 512.043" viewBox="0 0 512.043 512.043" xmlns="http://www.w3.org/2000/svg" fill="#E6ECF2"><g><path d="m354.116 323.816-12.356-46.17c-5.95-22.259-22.796-39.393-43.854-46.302 32.529-35.538 6.778-94.327-41.885-94.157-48.66-.171-74.415 58.629-41.883 94.157-21.058 6.91-37.903 24.043-43.853 46.3l-12.357 46.173c-1.571 5.869 1.913 11.899 7.782 13.47 5.869 1.57 11.899-1.914 13.47-7.782l12.358-46.176c5.244-19.618 23.092-33.319 43.402-33.319h20.967c.077.003.154.003.231 0h20.967c20.31 0 38.158 13.701 43.403 33.322l12.357 46.173c1.549 5.917 7.76 9.359 13.47 7.782 5.868-1.573 9.352-7.603 7.781-13.471zm-98.094-164.63c18.975 0 34.413 15.438 34.413 34.413.008 19.017-15.527 34.482-34.528 34.41-18.922-.063-34.297-15.473-34.297-34.41-.001-18.976 15.437-34.413 34.412-34.413z" fill="#0496FF"/><path d="m489.547 444.576 21.637-52.21c3.064-7.048-2.474-15.346-10.162-15.211h-91.168v-31.697c0-6.075-4.925-11-11-11h-46.563c30.831-31.069 53.204-67.587 68.993-110.616 21.965-60.368 21.364-110.589 21.328-112.697-.089-5.132-3.715-9.521-8.738-10.576-73.029-14.296-139.823-61.201-169.287-96.476-4.138-5.383-12.973-5.408-17.12-.01-29.667 35.433-96.058 82.071-169.297 96.486-5.022 1.055-8.648 5.444-8.737 10.576-.036 2.108-.638 52.329 21.328 112.697 15.79 43.031 38.162 79.542 68.993 110.616h-46.564c-6.075 0-11 4.925-11 11v31.697h-91.168c-7.684-.133-13.229 8.162-10.162 15.211 0 0 21.636 52.209 21.636 52.209l-21.636 52.211c-1.406 3.395-1.025 7.267 1.016 10.322 2.04 3.055 5.472 4.89 9.146 4.89h101.66c6.075 0 11-4.925 11-11v-52.029h264.681v52.029c0 6.075 4.925 11 11 11h101.66c3.674 0 7.106-1.835 9.146-4.89 2.041-3.055 2.422-6.927 1.016-10.322zm-377.846-227.528c-15.627-42.63-19.218-80.583-20.035-96.962 77.487-20.266 122.356-51.573 164.356-92.681 42.031 41.127 86.839 72.397 164.356 92.681-2.132 69.862-38.358 166.798-102.416 216.072-.756.477-1.451 1.041-2.068 1.683-17.851 14.34-37.815 26.457-59.872 36.281-22.057-9.824-42.022-21.942-59.872-36.281-.617-.642-1.311-1.205-2.068-1.683-36.787-30.187-64.386-70.019-82.381-119.11zm-10.019 272.949h-74.194l17.078-41.21c1.117-2.696 1.117-5.726 0-8.423l-17.078-41.21h74.194zm286.172-63.029h-263.664v-70.511h60.217c20.139 15.931 42.626 29.253 67.298 39.781 1.379.588 2.848.883 4.317.883s2.938-.294 4.317-.883c24.672-10.529 47.159-23.85 67.298-39.781h60.217zm79.624 21.819 17.078 41.21h-74.194v-90.842h74.194l-17.078 41.21c-1.117 2.696-1.117 5.726 0 8.422z"/></g><g/><g/><g/><g/><g/><g/><g/><g/><g/><g/><g/><g/><g/><g/><g/></svg>