<svg id="Capa_1" enable-background="new 0 0 512 512" viewBox="0 0 512 512" xmlns="http://www.w3.org/2000/svg" fill="#E6ECF2"><g><g><g><path d="m356.135 308.426c-9.646.055-14.722-11.873-7.778-18.778 0 0 80.819-80.819 80.819-80.819 4.297-4.296 11.26-4.296 15.557 0 4.296 4.296 4.296 11.261 0 15.557l-80.819 80.819c-2.149 2.148-4.964 3.221-7.779 3.221z" fill="#0496FF"/></g><g><path d="m436.95 308.43c-8.659.074-14.044-9.955-9.141-17.11 4.706-7.27 16.115-6.13 19.3 1.9 3.079 7.032-2.489 15.339-10.159 15.21z" fill="#0496FF"/></g><g><path d="m356.14 227.61c-7.628.164-13.271-8.223-10.16-15.21 3.661-8.994 16.65-8.992 20.31 0 3.077 7.041-2.478 15.325-10.15 15.21z" fill="#0496FF"/></g></g><path d="m472.174 141.307h-148.717c-11.333 0-21.567 4.766-28.826 12.389-7.259-7.623-17.494-12.389-28.826-12.389h-225.979c-21.96 0-39.826 17.866-39.826 39.826v148.717c0 21.96 17.866 39.826 39.826 39.826h225.979c11.333 0 21.567-4.766 28.826-12.389 7.259 7.623 17.493 12.389 28.826 12.389h148.717c21.96 0 39.826-17.866 39.826-39.826v-148.717c0-21.96-17.866-39.826-39.826-39.826zm-206.369 206.369h-225.979c-9.829 0-17.826-7.996-17.826-17.826v-148.717c0-9.83 7.997-17.826 17.826-17.826h225.979c9.829 0 17.826 7.997 17.826 17.826v148.717c0 9.83-7.997 17.826-17.826 17.826zm224.195-17.826c0 9.83-7.997 17.826-17.826 17.826h-148.717c-9.829 0-17.826-7.997-17.826-17.826v-148.717c0-9.83 7.997-17.826 17.826-17.826h148.717c9.829 0 17.826 7.997 17.826 17.826z"/><g><g><path d="m218.055 235.994h-133.529c-6.075 0-11-4.925-11-11s4.925-11 11-11h133.528c14.555.561 14.622 21.408.001 22z"/></g><g><path d="m218.055 296.99h-133.529c-6.075 0-11-4.925-11-11s4.925-11 11-11h133.528c14.555.561 14.622 21.408.001 22z"/></g></g><g><g><path d="m256 102.819c-6.075 0-11-4.925-11-11v-39.647c0-6.075 4.925-11 11-11s11 4.925 11 11v39.647c0 6.076-4.925 11-11 11z" fill="#0496FF"/></g><g><path d="m164.506 102.819c-2.816 0-5.63-1.074-7.778-3.222l-28.034-28.035c-9.903-10.714 4.82-25.468 15.557-15.557 0 0 28.034 28.035 28.034 28.035 6.933 6.892 1.88 18.84-7.779 18.779z" fill="#0496FF"/></g><g><path d="m347.494 102.819c-9.653.058-14.718-11.88-7.778-18.778 0 0 28.034-28.035 28.034-28.035 10.714-9.903 25.469 4.821 15.557 15.557 0 0-28.034 28.035-28.034 28.035-2.148 2.147-4.963 3.221-7.779 3.221z" fill="#0496FF"/></g></g><g><g><path d="m256 470.828c-6.075 0-11-4.925-11-11v-39.647c0-6.075 4.925-11 11-11s11 4.925 11 11v39.647c0 6.075-4.925 11-11 11z" fill="#0496FF"/></g><g><path d="m136.472 459.215c-9.653.058-14.718-11.88-7.778-18.778 0 0 28.034-28.035 28.034-28.035 10.714-9.902 25.469 4.821 15.557 15.557 0 0-28.034 28.035-28.034 28.035-2.149 2.147-4.964 3.221-7.779 3.221z" fill="#0496FF"/></g><g><path d="m375.528 459.215c-2.815 0-5.63-1.074-7.778-3.222l-28.034-28.035c-9.903-10.715 4.821-25.467 15.557-15.557 0 0 28.034 28.035 28.034 28.035 6.934 6.892 1.881 18.84-7.779 18.779z" fill="#0496FF"/></g></g></g><g/><g/><g/><g/><g/><g/><g/><g/><g/><g/><g/><g/><g/><g/><g/></svg>