<svg id="Layer_1" enable-background="new 0 0 512 512" viewBox="0 0 512 512" xmlns="http://www.w3.org/2000/svg" fill="#E6ECF2"><g><g fill="#0496FF"><path d="m166.725 145.292-27.335-5.456-13.636-24.312c-1.946-3.471-5.615-5.619-9.594-5.619s-7.647 2.148-9.594 5.619l-13.636 24.312-27.336 5.456c-3.901.779-7.079 3.604-8.309 7.388s-.319 7.938 2.38 10.861l18.907 20.481-3.259 27.683c-.465 3.952 1.24 7.847 4.459 10.185 3.219 2.339 7.451 2.757 11.064 1.094l25.322-11.653 25.321 11.653c1.467.675 3.036 1.007 4.598 1.007 2.285 0 4.555-.711 6.467-2.101 3.219-2.339 4.924-6.233 4.459-10.185l-3.258-27.684 18.907-20.481c2.698-2.924 3.608-7.077 2.379-10.861s-4.405-6.608-8.306-7.387zm-32.578 27.526c-2.179 2.361-3.217 5.556-2.842 8.747l1.558 13.234-12.104-5.571c-2.918-1.342-6.279-1.343-9.197 0l-12.104 5.571 1.558-13.233c.375-3.191-.663-6.387-2.843-8.748l-9.038-9.791 13.067-2.608c3.15-.629 5.869-2.604 7.44-5.406l6.519-11.622 6.519 11.622c1.571 2.803 4.29 4.777 7.44 5.406l13.066 2.608z"/><path d="m432.324 181.834h22v43.574h-22z" transform="matrix(.707 -.707 .707 .707 -14.135 373.117)"/></g><g><path d="m156.555 335.568h-101.03c-6.075 0-11 4.925-11 11s4.925 11 11 11h101.029c6.075 0 11-4.925 11-11s-4.924-11-10.999-11z"/><path d="m176.794 291.042h-121.269c-6.075 0-11 4.925-11 11s4.925 11 11 11h121.269c6.075 0 11-4.925 11-11s-4.925-11-11-11z"/><path d="m55.525 268.517h101.029c6.075 0 11-4.925 11-11s-4.925-11-11-11h-101.029c-6.075 0-11 4.925-11 11s4.925 11 11 11z"/><path d="m265.846 179.465h101.268c6.075 0 11-4.925 11-11s-4.925-11-11-11h-101.268c-6.075 0-11 4.925-11 11s4.925 11 11 11z"/><path d="m265.846 134.939h121.268c6.075 0 11-4.925 11-11s-4.925-11-11-11h-121.268c-6.075 0-11 4.925-11 11s4.925 11 11 11z"/><path d="m512 168.398c0-8.936-3.479-17.336-9.798-23.655-13.043-13.042-34.267-13.042-47.31 0l-12.253 12.253v-80.616c0-6.075-4.925-11-11-11h-169.841c-16.407 0-31.045 7.714-40.479 19.707-9.433-11.993-24.071-19.707-40.478-19.707h-169.841c-6.075 0-11 4.925-11 11v359.24c0 6.075 4.925 11 11 11h420.64c6.075 0 11-4.925 11-11v-184.004l59.562-59.562c6.319-6.319 9.798-14.72 9.798-23.656zm-490-81.018h158.842c16.254 0 29.478 13.224 29.478 29.478v263.236h-188.32zm0 314.714h188.319v22.526h-188.319zm210.319 22.526v-22.526h188.32v22.526zm188.321-44.526h-188.32v-263.236c0-16.254 13.224-29.478 29.479-29.478h158.841v91.617l-22.994 22.994h-131.8c-6.075 0-11 4.925-11 11s4.925 11 11 11h109.8l-22.526 22.526h-87.274c-6.075 0-11 4.925-11 11s4.925 11 11 11h65.274l-22.526 22.526h-42.748c-6.075 0-11 4.925-11 11s4.925 11 11 11h27.86c-2.807 7.078-4.298 14.686-4.323 22.526h-23.537c-6.075 0-11 4.925-11 11s4.925 11 11 11h45.327c16.452 0 31.921-6.407 43.556-18.042l65.911-65.911zm66.006-203.597-147.474 147.473c-7.431 7.43-17.295 11.545-27.793 11.598.053-10.501 4.166-20.364 11.597-27.794l147.473-147.474c2.232-2.233 5.165-3.349 8.099-3.349 2.932 0 5.865 1.117 8.098 3.349 2.163 2.163 3.354 5.039 3.354 8.098s-1.191 5.935-3.354 8.099z"/></g></g><g/><g/><g/><g/><g/><g/><g/><g/><g/><g/><g/><g/><g/><g/><g/></svg>