<svg id="Capa_1" enable-background="new 0 0 512 512" viewBox="0 0 512 512" xmlns="http://www.w3.org/2000/svg" fill="#E6ECF2"><g><g><g><path d="m380.024 202.685c-15.715 0-30.648-6.372-42.05-17.943-9.825-10.793 5.011-25.428 15.67-15.441 14.355 15.079 38.406 15.077 52.761 0 10.633-9.979 25.506 4.63 15.67 15.442-11.401 11.57-26.335 17.942-42.051 17.942z"/></g><g><path d="m380.024 263.609c-72.772 0-131.975-59.204-131.975-131.975 7.25-175.083 256.728-175.031 263.951.001 0 72.771-59.204 131.974-131.976 131.974zm0-241.95c-60.641 0-109.975 49.334-109.975 109.975 6.04 145.898 213.931 145.854 219.95-.001.001-60.639-49.334-109.974-109.975-109.974z" fill="#0496FF"/></g><g><path d="m334.28 123.319c-7.638.17-13.253-8.217-10.16-15.21 3.626-8.979 16.689-8.97 20.319 0 3.084 6.994-2.519 15.374-10.159 15.21z"/></g><g><path d="m425.77 123.319c-7.684.124-13.22-8.157-10.16-15.21 3.619-8.974 16.702-8.976 20.32 0 3.067 7.045-2.479 15.337-10.16 15.21z"/></g></g><path d="m317.652 439.663c17.547-15.591 17.939-45.04.019-60.996 27.88-25.574 9.074-71.974-28.745-71.996h-60.558v-40.448c0-28.32-23.041-51.361-51.361-51.361-17.443 0-31.635 14.191-31.635 31.635v31.771c.238 24.959-17.491 46.909-42.045 50.844v-3.932c0-6.075-4.925-11-11-11h-81.327c-6.075 0-11 4.925-11 11v175.479c0 6.075 4.925 11 11 11h81.328c6.075 0 11-4.925 11-11v-9.542c14.263 10.095 36.263 20.542 66.261 20.542h119.959c37.91-.206 55.637-46.501 28.104-71.996zm-236.324 49.996h-59.328v-153.479h59.328zm222.003-5.714c-3.685 3.685-8.579 5.714-13.783 5.714h-119.959c-37.907 0-59.637-20.229-66.261-27.549v-110.74c36.57-3.934 64.496-36.289 64.045-73.102v-31.77c0-5.312 4.322-9.635 9.635-9.635 16.189 0 29.361 13.171 29.361 29.361v51.448c0 6.075 4.925 11 11 11h71.559c17.602-.009 26.825 20.883 14.403 33.282-3.684 3.684-8.579 5.714-13.783 5.714h-30.498c-6.075 0-11 4.925-11 11s4.925 11 11 11h30.498c10.468-.219 19.717 9.03 19.498 19.498 0 10.751-8.747 19.497-19.498 19.497h-30.498c-6.075 0-11 4.925-11 11s4.925 11 11 11h30.498c17.215-.064 26.036 21.162 13.783 33.282z"/></g><g/><g/><g/><g/><g/><g/><g/><g/><g/><g/><g/><g/><g/><g/><g/></svg>