<svg id="Capa_1" enable-background="new 0 0 512 512" viewBox="0 0 512 512" xmlns="http://www.w3.org/2000/svg" fill="#E6ECF2"><g><path d="m489.343 210.251c-4.827-105.317-92.01-189.513-198.498-189.513h-69.689c-106.488 0-193.67 84.197-198.498 189.513-13.163 4.496-22.658 16.977-22.658 31.643v78.61c0 18.436 15 33.436 33.437 33.436h60.996c6.075 0 11-4.925 11-11v-123.482c0-6.075-4.925-11-11-11h-49.644c5.699-92.338 82.618-165.72 176.366-165.72h69.689c93.749 0 170.667 73.381 176.366 165.72h-49.644c-6.075 0-11 4.925-11 11v123.482c0 6.075 4.925 11 11 11h60.996c18.436 0 33.436-15 33.436-33.436v-78.61c.002-14.666-9.493-27.147-22.655-31.643zm-405.91 121.689h-49.996c-6.306 0-11.437-5.13-11.437-11.436v-78.61c0-6.306 5.131-11.436 11.437-11.436h49.996zm406.567-11.436c0 6.306-5.131 11.436-11.436 11.436h-49.996v-101.482h49.996c6.306 0 11.436 5.13 11.436 11.436z" fill="#0496FF"/><g><path d="m256 491.262c-3.238 0-6.312-1.427-8.402-3.9l-52.108-61.671h-74.566c-20.673 0-37.491-16.818-37.491-37.49v-200.152c0-20.673 16.818-37.491 37.491-37.491h270.154c20.672 0 37.49 16.818 37.49 37.491v200.151c0 20.672-16.818 37.49-37.49 37.49h-74.566l-52.108 61.671c-2.092 2.474-5.166 3.901-8.404 3.901zm-135.077-318.704c-8.542 0-15.491 6.949-15.491 15.491v200.151c0 8.541 6.949 15.49 15.491 15.49h79.673c3.238 0 6.312 1.427 8.402 3.9l47.002 55.628 47.002-55.627c2.09-2.474 5.164-3.9 8.402-3.9h79.673c8.541 0 15.49-6.949 15.49-15.49v-200.152c0-8.542-6.949-15.491-15.49-15.491z"/></g><g><g><path d="m193.81 259.09c-8.663.084-14.039-9.956-9.139-17.11 4.134-6.475 14.16-6.434 18.29 0 4.892 7.164-.483 17.196-9.151 17.11z"/></g><g><path d="m311.729 259.09c-7.629.166-13.258-8.219-10.16-15.21 3.614-8.972 16.705-8.978 20.31 0 3.113 6.979-2.526 15.376-10.15 15.21z"/></g><g><path d="m256 352.204c-25.31 0-50.619-10.009-73.192-30.028-4.545-4.03-4.962-10.982-.931-15.528 4.029-4.545 10.982-4.962 15.528-.931 36.689 32.536 80.501 32.538 117.19 0 4.547-4.031 11.497-3.614 15.528.931 4.031 4.546 3.614 11.498-.931 15.528-22.572 20.019-47.882 30.028-73.192 30.028z"/></g></g></g><g/><g/><g/><g/><g/><g/><g/><g/><g/><g/><g/><g/><g/><g/><g/></svg>