<svg id="Capa_1" enable-background="new 0 0 512.036 512.036" viewBox="0 0 512.036 512.036" xmlns="http://www.w3.org/2000/svg" fill="#052438"><g><path d="m438.805 234.685c0-9.121-2.409-17.684-6.607-25.109v-32.217c.018-97.645-79.146-177.336-176.207-177.326-94.685-1.945-178.161 81.482-176.186 176.199-.001-.001-.001 33.344-.001 33.344-19.255 33.661 5.603 76.494 44.578 76.295h39.932c6.075 0 11-4.925 11-11s-4.925-11-11-11h-39.933c-7.79 0-15.118-3.038-20.633-8.553-18.322-18.166-5.174-49.878 20.633-49.819h39.516c14.568-.574 14.616-21.404 0-22h-39.517c-8.101 0-15.763 1.899-22.578 5.264-6.036-89.543 63.857-167.019 154.189-166.729 89.422-.395 159.857 77.457 154.206 166.729-6.815-3.365-14.478-5.264-22.578-5.264h-39.517c-6.075 0-11 4.925-11 11s4.925 11 11 11h39.517c16.093 0 29.186 13.093 29.186 29.186.324 15.674-13.509 29.512-29.186 29.186h-39.932c-6.075 0-11 4.925-11 11s4.925 11 11 11h39.933c7.96 0 15.639-1.819 22.578-5.238v40.463c0 6.075 4.925 11 11 11s11-4.925 11-11v-61.25c4.303-7.594 6.607-16.199 6.607-25.161z" fill="#0496FF"/><g><path d="m256 302.815c-14.219 0-27.411-6.426-36.193-17.63-8.544-11.838 7.857-24.699 17.315-13.572 9.199 12.194 28.56 12.192 37.758 0 9.442-11.12 25.864 1.723 17.314 13.573-8.783 11.203-21.975 17.629-36.194 17.629z"/></g><g><path d="m213.92 240.423c-7.673.118-13.224-8.161-10.16-15.21 3.689-8.996 16.638-8.999 20.32 0 3.072 7.046-2.486 15.331-10.16 15.21z"/></g><g><path d="m298.08 240.423c-7.667.121-13.24-8.165-10.16-15.21 3.676-8.998 16.637-8.989 20.32 0 3.064 7.049-2.488 15.325-10.16 15.21z"/></g><path d="m448.515 497.9-27.557-92.716c-11.302-38.025-42.133-63.574-76.72-63.574h-24.681c47.369-38.779 38.877-80.687 39.444-135.573 6.458.544 12.243-4.422 12.199-11v-17.676c.012-64.07-51.761-116.353-115.206-116.332-61.911-1.279-116.484 53.28-115.195 115.202-.001-.001-.001 18.806-.001 18.806-.029 6.572 5.726 11.55 12.199 11 .552 54.936-7.884 96.842 39.444 135.573h-24.681c-34.587 0-65.418 25.548-76.72 63.574l-27.554 92.716c-.989 3.328-.35 6.928 1.727 9.711 2.076 2.783 5.344 4.422 8.816 4.422h363.941c7.126.153 12.768-7.298 10.545-14.133zm-285.716-321.669c0-24.956 9.735-48.402 27.412-66.018 61.771-60.817 163.94-12.582 158.99 73.825h-28.511c-22.751 0-43.876-12.283-55.13-32.055-4.069-7.355-15.049-7.359-19.119 0-11.254 19.772-32.379 32.055-55.13 32.055h-28.512zm12.199 84.377v-54.571h16.312c25.05 0 48.634-11.055 64.689-29.639 16.056 18.585 39.64 29.639 64.689 29.639h16.312v54.571c.012 44.646-36.376 81.042-81.002 80.979-44.624.063-81.011-36.332-81-80.979zm189.293 229.425v-44.508c0-6.075-4.925-11-11-11s-11 4.925-11 11v44.508h-172.582v-44.508c0-6.075-4.925-11-11-11s-11 4.925-11 11v44.508h-58.934l23.355-78.582c8.505-28.615 30.862-47.841 55.632-47.841h77.238v45.48c0 6.075 4.925 11 11 11s11-4.925 11-11v-45.48h77.238c24.77 0 47.127 19.226 55.632 47.841l23.355 78.582z"/></g><g/><g/><g/><g/><g/><g/><g/><g/><g/><g/><g/><g/><g/><g/><g/></svg>