<svg id="Capa_1" enable-background="new 0 0 512 512" viewBox="0 0 512 512" xmlns="http://www.w3.org/2000/svg" fill="#E6ECF2"><g><path d="m387.798 440.004c17.546-15.591 17.939-45.042.02-60.995 27.879-25.576 9.073-71.973-28.745-71.996h-60.558v-40.448c0-28.32-23.041-51.361-51.361-51.361-17.443 0-31.635 14.191-31.635 31.635v31.77c.238 24.96-17.491 46.91-42.046 50.844v-3.933c0-6.075-4.925-11-11-11h-81.327c-6.075 0-11 4.925-11 11v175.48c0 6.075 4.925 11 11 11h81.327c6.075 0 11-4.925 11-11v-9.542c14.263 10.095 36.264 20.542 66.261 20.542h119.959c37.91-.206 55.636-46.501 28.105-71.996zm-236.325 49.996h-59.327v-153.479h59.327zm222.004-5.714c-3.685 3.685-8.579 5.714-13.783 5.714h-119.96c-37.907 0-59.638-20.228-66.262-27.55v-110.74c36.571-3.933 64.497-36.288 64.046-73.102v-31.77c0-5.312 4.322-9.635 9.635-9.635 16.189 0 29.361 13.171 29.361 29.361v51.448c0 6.075 4.925 11 11 11h71.559c17.604-.007 26.823 20.882 14.403 33.282-3.684 3.685-8.579 5.714-13.783 5.714h-30.498c-6.075 0-11 4.925-11 11s4.925 11 11 11h30.498c10.468-.219 19.716 9.028 19.497 19.498 0 10.751-8.746 19.497-19.497 19.497h-30.498c-14.584.579-14.6 21.412 0 22h30.498c17.215-.063 26.035 21.164 13.784 33.283z"/><g><g><path d="m196.558 166.131c-1.112 0-2.231-.169-3.318-.513l-43.512-13.773-43.512 13.773c-3.329 1.054-6.961.464-9.785-1.588-2.824-2.053-4.508-5.324-4.534-8.816l-.347-45.638-26.545-37.125c-2.03-2.84-2.593-6.477-1.514-9.797s3.671-5.932 6.983-7.036l43.297-14.432 27.106-36.719c2.074-2.809 5.358-4.467 8.85-4.467s6.776 1.658 8.85 4.467l27.106 36.719 43.297 14.432c3.312 1.104 5.904 3.715 6.983 7.036s.517 6.957-1.514 9.797l-26.545 37.125-.347 45.638c.083 5.879-5.151 11.043-10.999 10.917zm-46.831-36.824c.659-.856 34.422 10.555 35.944 10.84l.26-34.22c.018-2.266.734-4.471 2.052-6.314l19.903-27.836-32.464-10.821c-2.149-.716-4.025-2.08-5.371-3.902l-20.324-27.532-20.324 27.532c-1.346 1.823-3.222 3.186-5.371 3.902l-32.464 10.821 19.903 27.836c1.317 1.843 2.034 4.048 2.052 6.314l.26 34.22c1.651-.317 35.144-11.664 35.944-10.84z" fill="#0496FF"/></g><g><path d="m409.103 166.131c-1.112 0-2.231-.169-3.318-.513l-43.512-13.773-43.512 13.773c-3.33 1.054-6.961.464-9.785-1.588-2.824-2.053-4.508-5.324-4.534-8.816l-.347-45.638-26.545-37.125c-2.03-2.84-2.593-6.477-1.514-9.797s3.671-5.932 6.983-7.036l43.297-14.432 27.107-36.719c2.073-2.809 5.357-4.467 8.849-4.467s6.776 1.658 8.85 4.467l27.106 36.719 43.297 14.432c3.312 1.104 5.904 3.715 6.983 7.036s.517 6.957-1.514 9.797l-26.545 37.125-.347 45.638c.083 5.879-5.151 11.043-10.999 10.917zm-46.831-36.824c.659-.856 34.422 10.555 35.944 10.84l.26-34.22c.018-2.266.734-4.471 2.052-6.314l19.903-27.836-32.464-10.821c-2.149-.716-4.025-2.08-5.371-3.902l-20.324-27.532-20.324 27.532c-1.346 1.823-3.222 3.186-5.371 3.902l-32.464 10.821 19.903 27.836c1.317 1.843 2.034 4.048 2.052 6.314l.26 34.22c1.651-.317 35.144-11.664 35.944-10.84z" fill="#0496FF"/></g></g></g><g/><g/><g/><g/><g/><g/><g/><g/><g/><g/><g/><g/><g/><g/><g/></svg>