<svg id="Layer_1" enable-background="new 0 0 512 512" viewBox="0 0 512 512" xmlns="http://www.w3.org/2000/svg" fill="#052438"><g><g><path d="m174.734 276.618c-9.689 0-18.768 4.304-24.906 11.809-3.847 4.702-3.153 11.632 1.549 15.479 2.044 1.672 4.509 2.486 6.958 2.486 3.187 0 6.347-1.377 8.521-4.036 1.944-2.376 4.815-3.739 7.879-3.739 3.046 0 5.907 1.351 7.852 3.706 3.866 4.686 10.802 5.349 15.485 1.482 4.686-3.867 5.349-10.8 1.481-15.486-6.138-7.436-15.184-11.701-24.819-11.701z"/><path d="m458.941 0h-185.076c-22.607 0-41 18.393-41 41v75.162c-17.724-8.555-37.587-13.353-58.55-13.353-74.516 0-135.138 60.623-135.138 135.138v171.415c-16.946 20.852-27.119 47.419-27.119 76.32v15.318c0 6.075 4.925 11 11 11h302.515c6.075 0 11-4.925 11-11v-15.318c0-28.901-10.173-55.467-27.118-76.319v-171.416c0-8.409-.779-16.638-2.256-24.625h33.534l17.892 17.891c2.063 2.063 4.861 3.222 7.778 3.222 2.918 0 5.716-1.159 7.778-3.222l17.891-17.891h66.869c22.607 0 41-18.393 41-41v-131.322c0-22.607-18.392-41-41-41zm-284.625 124.809c62.385 0 113.139 50.753 113.139 113.138v150.355c-17.779-13.197-39.279-21.65-62.613-23.464v-19.928c3.74-2.689 7.304-5.678 10.638-8.987 16.547-16.424 25.659-38.308 25.659-61.621v-57.323c0-6.075-4.925-11-11-11h-18.439c-18.618 0-35.627-9.424-45.499-25.208l-2.557-4.089c-2.011-3.215-5.534-5.167-9.326-5.168-.001 0 0 0-.001 0-3.791 0-7.315 1.953-9.326 5.167l-2.558 4.089c-9.873 15.786-26.882 25.21-45.5 25.21h-18.44c-6.075 0-11 4.925-11 11v56.371c0 29.268 14.344 55.318 36.297 71.289v20.199c-23.334 1.814-44.834 10.266-62.612 23.463v-150.355c0-62.384 50.754-113.138 113.138-113.138zm45.665 195.501c-12.235 12.145-28.435 18.815-45.663 18.815-.165 0-.331 0-.495-.001-35.472-.263-64.33-29.769-64.33-65.773v-45.371h7.439c22.391 0 43.13-9.666 57.384-26.321 14.253 16.655 34.992 26.321 57.383 26.321h7.439v46.323c.001 17.405-6.803 33.744-19.157 46.007zm-74.191 35.926c8.746 3.096 18.12 4.814 27.869 4.886.223.002.442.002.664.002 9.861 0 19.467-1.645 28.519-4.785v15.098l-28.525 33.692-28.526-33.692v-15.201zm168.783 133.764h-280.514v-4.318c0-53.526 42.61-97.281 95.69-99.144l36.172 42.723c2.091 2.469 5.161 3.892 8.396 3.892s6.306-1.424 8.396-3.892l36.172-42.723c53.08 1.863 95.69 45.617 95.69 99.144v4.318zm163.368-317.678c0 10.477-8.523 19-19 19h-71.426c-2.917 0-5.716 1.159-7.778 3.222l-13.334 13.335-13.335-13.335c-2.063-2.063-4.861-3.222-7.778-3.222h-44.128c-9.159-24.837-25.415-46.266-46.297-61.817v-88.505c0-10.477 8.523-19 19-19h185.076c10.477 0 19 8.523 19 19z"/></g><path d="m415.086 106.661 13.195-13.195c4.296-4.296 4.296-11.261 0-15.557l-31.112-31.113c-4.297-4.295-11.262-4.296-15.557 0l-13.195 13.195-13.194-13.195c-2.062-2.063-4.86-3.222-7.778-3.222-2.917 0-5.715 1.159-7.778 3.222l-31.113 31.113c-2.062 2.063-3.222 4.861-3.222 7.778s1.159 5.715 3.222 7.778l13.195 13.195-13.195 13.195c-2.062 2.063-3.222 4.861-3.222 7.778s1.159 5.715 3.222 7.778l31.113 31.113c2.063 2.063 4.861 3.222 7.778 3.222 2.918 0 5.716-1.159 7.778-3.222l13.194-13.195 13.195 13.195c2.063 2.063 4.861 3.222 7.778 3.222s5.715-1.159 7.778-3.222l31.112-31.113c4.296-4.296 4.296-11.261 0-15.556zm-25.695 36.53-13.195-13.196c-2.063-2.063-4.861-3.222-7.778-3.222-2.918 0-5.716 1.159-7.778 3.222l-13.194 13.195-15.557-15.556 13.195-13.195c2.062-2.063 3.222-4.861 3.222-7.778s-1.159-5.715-3.222-7.778l-13.195-13.195 15.557-15.557 13.194 13.195c2.062 2.063 4.86 3.222 7.778 3.222 2.917 0 5.715-1.159 7.778-3.222l13.195-13.195 15.556 15.557-13.194 13.195c-4.296 4.296-4.296 11.261 0 15.556l13.195 13.196z" fill="#0496FF"/></g><g/><g/><g/><g/><g/><g/><g/><g/><g/><g/><g/><g/><g/><g/><g/></svg>