<svg id="Capa_1" enable-background="new 0 0 512 512" viewBox="0 0 512 512" xmlns="http://www.w3.org/2000/svg" fill="#052438"><g><g><path d="m75.134 139.395c-6.075 0-11-4.925-11-11v-56.399c0-6.075 4.925-11 11-11s11 4.925 11 11v56.399c0 6.076-4.924 11-11 11z" fill="#0496FF"/></g><g><path d="m75.13 200.72c-7.621.162-13.262-8.229-10.15-15.21 3.656-8.992 16.655-8.986 20.31 0 3.091 7.04-2.495 15.334-10.16 15.21z" fill="#0496FF"/></g><g><path d="m136.13 139.395c-6.075 0-11-4.925-11-11v-56.399c0-6.075 4.925-11 11-11s11 4.925 11 11v56.399c0 6.076-4.924 11-11 11z" fill="#0496FF"/></g><g><path d="m136.13 200.72c-7.673.12-13.226-8.159-10.16-15.21 3.623-8.976 16.699-8.976 20.32 0 3.064 7.051-2.484 15.331-10.16 15.21z" fill="#0496FF"/></g><g><g><path d="m449.098 134.766c-.3.852-.684 1.668-1.138 2.424l-34.4 57.75c-2.06 3.45-5.71 5.37-9.46 5.37-8.36.12-13.86-9.46-9.44-16.63l24.91-41.82h-29.14c-3.423-.125-6.704-1.572-8.778-4.364-2.938-3.955-2.445-8.955-.191-13.076 0 0 34.34-57.65 34.34-57.65 3.11-5.22 9.86-6.92 15.08-3.82 5.22 3.11 6.93 9.86 3.82 15.08l-24.92 41.83h29.15c7.745.002 12.656 7.843 10.167 14.906z" fill="#0496FF"/></g></g><g><path d="m256 329.328c-3.535 0-6.854-1.698-8.921-4.565l-44.742-62.032h-191.337c-6.075 0-11-4.925-11-11v-240.731c0-6.075 4.925-11 11-11h490c6.075 0 11 4.925 11 11v240.73c0 6.075-4.925 11-11 11h-191.337l-44.742 62.032c-2.067 2.868-5.386 4.566-8.921 4.566zm-234-88.598h185.966c3.535 0 6.854 1.698 8.921 4.565l39.113 54.229 39.113-54.229c2.067-2.867 5.387-4.565 8.921-4.565h185.966v-218.73h-468z"/></g><path d="m479.651 398.506h-24.934c-4.651-17.535-20.653-30.498-39.63-30.498-44.164-.026-347.014.019-382.739 0-6.075 0-11 4.925-11 11v60.996c0 6.075 4.925 11 11 11h19.498v13.708c.001 26.075 21.214 47.288 47.289 47.288h108.068c6.075 0 11-4.925 11-11s-4.925-11-11-11h-108.068c-13.944 0-25.288-11.344-25.288-25.288v-13.708h19.497 321.743c18.978 0 34.98-12.963 39.63-30.498h24.934c14.591-.579 14.588-21.423 0-22zm-436.302-8.498h38.996v38.996h-38.996zm390.738 19.996c0 10.477-8.523 19-19 19h-310.743v-38.996h310.743c10.858-.031 19.517 9.184 19 19.996z"/><path d="m314.586 150.08h-17.088v-38.996h17.088c6.075 0 11-4.925 11-11s-4.925-11-11-11h-17.088v-17.088c0-6.075-4.925-11-11-11s-11 4.925-11 11v17.088h-38.996v-17.088c0-6.075-4.925-11-11-11s-11 4.925-11 11v17.088h-17.088c-6.075 0-11 4.925-11 11s4.925 11 11 11h17.088v38.996h-17.088c-6.075 0-11 4.925-11 11s4.925 11 11 11h17.088v17.088c0 6.075 4.925 11 11 11s11-4.925 11-11v-17.088h38.996v17.088c0 6.075 4.925 11 11 11s11-4.925 11-11v-17.088h17.088c14.592-.579 14.587-21.423 0-22zm-78.084 0v-38.996h38.996v38.996z" fill="#0496FF"/></g><g/><g/><g/><g/><g/><g/><g/><g/><g/><g/><g/><g/><g/><g/><g/></svg>