<svg id="Capa_1" enable-background="new 0 0 512.001 512.001" viewBox="0 0 512.001 512.001" xmlns="http://www.w3.org/2000/svg" fill="#052438"><g><g><g><path d="m152.759 511.636c-5.096.016-9.588-3.551-10.721-8.52l-25.087-108.43-108.43-25.088c-4.738-1.096-8.193-5.173-8.499-10.026-.305-4.853 2.612-9.331 7.175-11.012l224.455-82.7c8.664-3.252 17.407 5.387 14.125 14.125 0 0-82.7 224.454-82.7 224.454-1.601 4.344-5.737 7.197-10.318 7.197zm-103.391-155.168 79.231 18.332c4.094.947 7.29 4.143 8.237 8.237l18.332 79.231 61.725-167.525z" fill="#0496FF"/></g></g><g><g><path d="m370.876 281.885c-77.816 0-141.125-63.308-141.125-141.125 7.752-187.221 274.526-187.166 282.249.001 0 77.815-63.308 141.124-141.124 141.124zm0-260.249c-65.686 0-119.125 53.439-119.125 119.125 6.543 158.035 231.73 157.989 238.249-.001 0-65.685-53.439-119.124-119.124-119.124z"/></g><path d="m386.626 131.417c-9.504-3.949-19.496-7.057-27.268-10.972-9.43-5.518-7.194-17.352 4.11-20.63 16.252-4.897 31.073 6.914 31.423 7.197 4.65 3.868 11.556 3.254 15.452-1.381 3.909-4.65 3.308-11.589-1.342-15.498-.656-.551-11.495-9.481-27.124-12.518v-11.883c0-6.075-4.925-11-11-11s-11 4.925-11 11v12.275c-31.169 6.68-39.561 46.137-10.68 61.95 8.878 4.563 18.957 7.614 29.327 11.913 10.962 3.925 17.065 10.356 15.752 17.187-5.651 20.543-37.849 15.975-49.812 1.838-4.08-4.501-11.035-4.844-15.538-.764-4.501 4.08-4.844 11.036-.764 15.538 8.099 8.938 19.404 15.211 31.715 17.908v13.227c0 6.075 4.925 11 11 11s11-4.925 11-11v-12.51c38.91-7.436 50.924-55.629 4.749-72.877z" fill="#0496FF"/></g><g><path d="m346.477 362.196c-2.815 0-5.63-1.074-7.778-3.222l-29.481-29.482c-9.903-10.713 4.82-25.468 15.557-15.557 0 0 29.481 29.481 29.481 29.481 6.933 6.892 1.881 18.84-7.779 18.78z"/></g><g><path d="m270.741 413.032c-6.075 0-11-4.925-11-11v-41.693c0-6.075 4.925-11 11-11s11 4.925 11 11v41.693c0 6.075-4.925 11-11 11z"/></g><g><path d="m189.922 205.639c-2.815 0-5.63-1.074-7.778-3.222l-29.482-29.481c-9.902-10.714 4.821-25.468 15.557-15.557 0 0 29.481 29.481 29.481 29.481 6.933 6.891 1.881 18.84-7.778 18.779z"/></g><g><path d="m151.297 251.895h-41.693c-14.58-.574-14.597-21.419 0-22h41.693c6.075 0 11 4.925 11 11s-4.925 11-11 11z"/></g></g><g/><g/><g/><g/><g/><g/><g/><g/><g/><g/><g/><g/><g/><g/><g/></svg>