<svg id="Capa_1" enable-background="new 0 0 512.013 512.013" viewBox="0 0 512.013 512.013" xmlns="http://www.w3.org/2000/svg" fill="#E6ECF2"><g><g><path d="m71.752 204.97c-38.835-.145-72.522-34.619-71.738-73.468-.001.001-.001-58.006-.001-58.006 0-40.522 32.968-73.49 73.49-73.49h267.426c40.522 0 73.49 32.968 73.49 73.49v58.007c0 40.523-32.968 73.491-73.49 73.491zm269.177-21.977c28.392 0 51.49-23.099 51.49-51.491v-58.006c0-28.392-23.099-51.49-51.49-51.49h-267.426c-28.392 0-51.49 23.099-51.49 51.49v58.007c0 27.692 22.479 50.756 50.134 51.47z" fill="#0496FF"/></g><g><path d="m342.423 83.002h-104.709c-14.563-.566-14.614-21.412 0-22h104.709c14.564.565 14.614 21.411 0 22z"/></g><g><path d="m176.718 83.002h-104.709c-14.563-.566-14.614-21.412 0-22h104.709c14.563.565 14.614 21.411 0 22z"/></g><g><path d="m342.423 143.997h-45.747c-14.579-.574-14.599-21.418 0-22h45.746c6.075 0 11 4.925 11 11s-4.923 11-10.999 11z"/></g><g><path d="m235.681 143.997h-163.672c-6.075 0-11-4.925-11-11s4.925-11 11-11h163.672c14.546.557 14.63 21.405 0 22z"/></g><g><path d="m440.019 512.006c-2.863 0-5.676-1.118-7.781-3.222l-58.79-58.791h-212.518c-40.522 0-73.49-32.968-73.49-73.491v-58.007c0-40.522 32.968-73.49 73.49-73.49h277.592c40.522 0 73.49 32.968 73.49 73.49v58.007c0 19.325-7.44 37.574-20.952 51.386-10.944 11.189-24.884 18.461-40.044 21.047v52.07c.107 5.939-5.082 11.099-10.997 11.001zm-279.089-245.001c-28.392 0-51.49 23.098-51.49 51.49v58.007c0 28.392 23.099 51.491 51.49 51.491h217.074c2.918 0 5.715 1.159 7.778 3.222l43.234 43.234v-35.477c0-5.975 4.769-10.857 10.742-10.997 27.71-.649 50.254-23.74 50.254-51.473v-58.007c0-28.392-23.099-51.49-51.49-51.49z"/></g><g fill="#0496FF"><path d="m221.95 327c-3.038-5.261-9.765-7.063-15.026-4.026l-10.344 5.972v-11.943c0-6.075-4.925-11-11-11s-11 4.925-11 11v11.611l-9.768-5.639c-5.261-3.036-11.988-1.234-15.026 4.026-3.038 5.261-1.235 11.989 4.026 15.026l10.055 5.805-9.768 5.639c-5.261 3.038-7.064 9.765-4.026 15.026 2.038 3.529 5.735 5.502 9.537 5.502 1.866 0 3.757-.476 5.49-1.476l9.48-5.473v10.947c0 6.075 4.925 11 11 11s11-4.925 11-11v-11.279l10.056 5.806c1.732 1 3.624 1.476 5.49 1.476 3.801 0 7.499-1.973 9.537-5.502 3.038-5.261 1.235-11.989-4.026-15.026l-9.768-5.639 10.055-5.805c5.261-3.04 7.063-9.767 4.026-15.028z"/><path d="m335.809 327c-3.038-5.261-9.765-7.063-15.026-4.026l-9.768 5.639v-11.611c0-6.075-4.925-11-11-11s-11 4.925-11 11v11.943l-10.344-5.972c-5.26-3.036-11.988-1.234-15.026 4.026-3.038 5.261-1.235 11.989 4.026 15.026l10.056 5.805-9.768 5.639c-5.261 3.038-7.064 9.765-4.026 15.026 2.038 3.529 5.735 5.502 9.537 5.502 1.866 0 3.757-.476 5.49-1.476l10.056-5.806v11.279c0 6.075 4.925 11 11 11s11-4.925 11-11v-10.944l9.48 5.473c1.732 1 3.624 1.476 5.49 1.476 3.801 0 7.499-1.973 9.537-5.502 3.038-5.261 1.235-11.989-4.026-15.026l-9.768-5.639 10.055-5.805c5.26-3.039 7.062-9.766 4.025-15.027z"/><path d="m445.354 353.471-9.768-5.639 10.055-5.805c5.261-3.038 7.064-9.765 4.026-15.026s-9.766-7.063-15.026-4.026l-10.343 5.972v-11.943c0-6.075-4.925-11-11-11s-11 4.925-11 11v11.611l-9.769-5.64c-5.261-3.036-11.988-1.234-15.026 4.026-3.038 5.261-1.235 11.989 4.026 15.026l10.056 5.805-9.768 5.639c-5.261 3.038-7.064 9.765-4.026 15.026 2.038 3.529 5.735 5.502 9.537 5.502 1.866 0 3.758-.476 5.49-1.476l9.48-5.473v10.947c0 6.075 4.925 11 11 11s11-4.925 11-11v-11.279l10.056 5.806c1.732 1 3.624 1.476 5.49 1.476 11.129-.053 15.244-14.782 5.51-20.529z"/></g></g><g/><g/><g/><g/><g/><g/><g/><g/><g/><g/><g/><g/><g/><g/><g/></svg>