<svg id="Capa_1" enable-background="new 0 0 512 512" viewBox="0 0 512 512" xmlns="http://www.w3.org/2000/svg" fill="#E6ECF2"><g><path d="m421.673 226.261c-26.244-25.71-70.427-6.344-70.439 30.37 0-.001 0 58.626 0 58.626 0 14.946-5.82 28.997-16.389 39.565l-11.152 11.152h-24.124c26.402-35.054.67-86.645-43.57-86.41-44.237-.236-69.975 51.364-43.569 86.41h-25.14l-11.153-11.152c-10.568-10.569-16.388-24.62-16.388-39.565v-58.627c0-22.609-18.097-41.501-40.346-42.114-22.735-1.093-43.135 18.734-42.65 41.484v64.787c0 32.368 11.306 63.977 31.835 89.006l47.968 58.473v32.734c0 6.075 4.925 11 11 11h175.871c6.075 0 11-4.925 11-11v-32.734l47.969-58.473c20.528-25.028 31.834-56.637 31.834-89.005v-64.788c0-11.297-4.459-21.858-12.557-29.739zm-197.879 107.509c0-17.758 14.447-32.205 32.206-32.205 42.725 1.769 42.712 62.648 0 64.411-17.759-.001-32.206-14.448-32.206-32.206zm188.436-12.982c0 27.294-9.533 53.949-26.844 75.053l-50.464 61.515c-1.613 1.967-2.495 4.433-2.495 6.977v25.667h-153.871v-25.668c0-2.544-.882-5.01-2.496-6.977l-50.463-61.514c-17.311-21.105-26.844-47.759-26.844-75.053v-64.788c0-5.308 2.096-10.27 5.9-13.974 12.511-12.159 33.077-2.885 33.096 14.604v58.627c0 20.822 8.108 40.397 22.832 55.122l14.375 14.375c2.062 2.063 4.86 3.222 7.778 3.222h145.516c2.917 0 5.716-1.159 7.778-3.222l14.374-14.375c14.724-14.723 22.832-34.299 22.832-55.122v-58.627c0-10.808 8.499-19.834 18.941-20.122 10.686-.523 20.285 8.799 20.055 19.492z"/><g><path d="m127.48 126.71c-9.658.057-14.714-11.882-7.778-18.778 0 0 33.576-33.576 33.576-33.576h-35.615c-4.449 0-8.46-2.68-10.163-6.79s-.762-8.842 2.384-11.988l52.355-52.355c4.296-4.296 11.261-4.296 15.557 0 4.295 4.296 4.295 11.261 0 15.557l-33.577 33.577h35.615c9.72-.031 14.679 11.923 7.778 18.778 0 0-52.354 52.354-52.354 52.354-2.148 2.147-4.963 3.221-7.778 3.221z" fill="#0496FF"/></g><g><path d="m361.297 127.218c-9.658.057-14.715-11.882-7.778-18.778 0 0 33.577-33.576 33.577-33.576h-35.616c-4.449 0-8.46-2.68-10.163-6.79-1.702-4.11-.761-8.842 2.385-11.988l52.355-52.356c4.296-4.295 11.261-4.295 15.557 0 4.296 4.296 4.296 11.261 0 15.557l-33.577 33.577h35.615c9.72-.031 14.679 11.922 7.778 18.778 0 0-52.355 52.354-52.355 52.354-2.148 2.148-4.964 3.222-7.778 3.222z" fill="#0496FF"/></g><g><path d="m226.892 237.011c-9.657.057-14.714-11.881-7.778-18.778 0 0 51.62-51.621 51.62-51.621h-57.042c-4.449 0-8.46-2.68-10.163-6.79s-.762-8.842 2.384-11.988l70.4-70.399c10.697-9.897 25.475 4.806 15.557 15.557 0 0-51.622 51.621-51.622 51.621h57.043c4.449 0 8.46 2.68 10.163 6.791 1.702 4.11.761 8.842-2.385 11.988l-70.399 70.399c-2.148 2.146-4.963 3.22-7.778 3.22z" fill="#0496FF"/></g><g><path d="m429.633 175.156c-8.493.125-13.979-9.746-9.268-16.908 0 0 21.229-33.354 21.229-33.354 8.311-11.99 25.907-.815 18.559 11.814 0 0-21.229 33.353-21.229 33.353-2.097 3.294-5.656 5.095-9.291 5.095z"/></g><g><path d="m466.618 222.037c-11.023-.044-15.228-14.567-5.679-20.429 0 0 33.884-20.371 33.884-20.371 12.793-7.02 23.546 10.834 11.336 18.855 0 0-33.884 20.371-33.884 20.371-1.774 1.066-3.728 1.574-5.657 1.574z"/></g><g><path d="m82.366 175.156c-3.636 0-7.193-1.801-9.29-5.095l-21.228-33.354c-7.345-12.606 10.23-23.816 18.56-11.812 0 0 21.228 33.353 21.228 33.353 4.706 7.156-.774 17.039-9.27 16.908z"/></g><g><path d="m45.382 222.037c-1.93 0-3.883-.507-5.658-1.574l-33.884-20.371c-12.199-8.002-1.475-25.879 11.336-18.854 0 0 33.884 20.371 33.884 20.371 9.541 5.852 5.355 20.384-5.678 20.428z"/></g></g><g/><g/><g/><g/><g/><g/><g/><g/><g/><g/><g/><g/><g/><g/><g/></svg>