<svg id="Layer_1" enable-background="new 0 0 512 512" viewBox="0 0 512 512" xmlns="http://www.w3.org/2000/svg" fill="#052438"><g><path d="m441 55h-400c-22.607 0-41 18.393-41 41v240c0 22.608 18.393 41 41 41h291.542c6.075 0 11-4.925 11-11s-4.925-11-11-11h-291.542c-10.477 0-19-8.523-19-19v-141.5h438v87.856c0 6.075 4.925 11 11 11s11-4.925 11-11v-186.356c0-22.607-18.393-41-41-41zm-400 22h400c10.477 0 19 8.523 19 19v21.5h-438v-21.5c0-10.477 8.523-19 19-19zm-19 95.5v-33h438v33z"/><g fill="#0496FF"><path d="m502.98 288.837c-28.52-5.219-43.154-25.261-50.41-41.155-1.789-3.918-5.699-6.432-10.007-6.432h-53.126c-4.307 0-8.218 2.514-10.007 6.432-7.256 15.895-21.893 35.937-50.411 41.155-5.225.956-9.02 5.509-9.02 10.82 0 65.381 11.07 135.159 93.176 156.973.925.246 1.875.37 2.825.37s1.899-.123 2.824-.369c82.105-21.814 93.176-91.592 93.176-156.973 0-5.312-3.795-9.865-9.02-10.821zm-86.98 145.75c-58.688-16.887-72.821-62.6-73.927-126.256 23.145-6.746 42.005-22.418 54.182-45.08h39.491c12.176 22.662 31.035 38.334 54.181 45.08-1.106 63.656-15.239 109.369-73.927 126.256z"/><path d="m438.221 321.346-32.221 32.222-12.222-12.222c-4.297-4.296-11.262-4.295-15.557 0-4.296 4.295-4.296 11.26 0 15.556l20 20c2.148 2.148 4.963 3.222 7.778 3.222s5.63-1.074 7.778-3.222l40-40c4.296-4.296 4.296-11.261 0-15.557-4.296-4.295-11.259-4.295-15.556.001z"/><path d="m152.25 241.25h-80c-6.075 0-11 4.925-11 11s4.925 11 11 11h80c6.075 0 11-4.925 11-11s-4.924-11-11-11z"/><path d="m112.25 286.25h-40c-6.075 0-11 4.925-11 11s4.925 11 11 11h40c6.075 0 11-4.925 11-11s-4.924-11-11-11z"/></g></g><g/><g/><g/><g/><g/><g/><g/><g/><g/><g/><g/><g/><g/><g/><g/></svg>