<svg id="Layer_1" enable-background="new 0 0 512 512" viewBox="0 0 512 512" xmlns="http://www.w3.org/2000/svg" fill="#052438"><g><g><path d="m444.312 135.032c-2.847-27.882-17.229-52.753-40.437-69.339-23.64-16.895-53.534-22.41-81.353-15.315-27.671-32.112-67.354-50.378-110.023-50.378-76.684 0-139.686 59.692-144.974 135.054-38.085 5.207-67.525 37.953-67.525 77.445 0 43.101 35.065 78.167 78.166 78.167h95.828c6.075 0 11-4.925 11-11s-4.925-11-11-11h-95.828c-30.97 0-56.166-25.196-56.166-56.167s25.196-56.167 56.166-56.167c6.075 0 11-4.925 11-11 0-68.005 55.327-123.332 123.333-123.332 38.364 0 73.887 17.404 97.458 47.751 2.884 3.711 7.806 5.181 12.25 3.659 23.475-8.034 48.578-4.323 68.876 10.181 20.178 14.421 31.751 36.925 31.751 61.741 0 6.075 4.925 11 11 11 30.97 0 56.166 25.196 56.166 56.167s-25.196 56.167-56.166 56.167h-95.829c-6.075 0-11 4.925-11 11s4.925 11 11 11h95.829c43.101 0 78.166-35.065 78.166-78.167 0-39.55-29.522-72.333-67.688-77.467z"/><path d="m256 358.665c-6.075 0-11 4.925-11 11v81.335c0 6.075 4.925 11 11 11s11-4.925 11-11v-81.335c0-6.075-4.925-11-11-11z"/><path d="m180.802 314.37-56.131 32.407c-3.403 1.965-5.5 5.597-5.5 9.526v44.5c0 6.075 4.925 11 11 11s11-4.925 11-11v-38.149l50.631-29.232c5.261-3.038 7.063-9.765 4.026-15.026-3.038-5.26-9.762-7.065-15.026-4.026z"/><path d="m387.328 346.777-56.131-32.407c-5.26-3.037-11.988-1.234-15.026 4.026-3.037 5.261-1.234 11.989 4.026 15.026l50.631 29.232v38.149c0 6.075 4.925 11 11 11s11-4.925 11-11v-44.5c0-3.929-2.097-7.561-5.5-9.526z"/></g><g fill="#0496FF"><path d="m337.955 222.884c-26.579-4.801-40.214-23.226-46.971-37.836-1.8-3.891-5.697-6.382-9.984-6.382h-50c-4.287 0-8.185 2.491-9.984 6.382-6.757 14.61-20.392 33.035-46.971 37.836-5.236.946-9.045 5.504-9.045 10.825 0 26.219 1.689 59.941 14.867 88.229 13.78 29.581 38.456 49.219 73.343 58.368.914.24 1.853.36 2.79.36s1.876-.12 2.79-.36c34.887-9.149 59.563-28.787 73.343-58.368 13.178-28.288 14.867-62.011 14.867-88.23 0-5.32-3.809-9.878-9.045-10.824zm-81.955 135.377c-54.516-15.555-67.802-57.485-68.92-115.885 21.592-6.357 39.214-20.84 50.682-41.711h36.477c11.469 20.871 29.09 35.354 50.682 41.711-1.119 58.4-14.405 100.331-68.921 115.885z"/><path d="m278.222 251.887-32.222 32.222-12.222-12.222c-4.297-4.296-11.26-4.296-15.557 0-4.296 4.296-4.296 11.261 0 15.557l20 20c2.148 2.148 4.963 3.222 7.778 3.222s5.63-1.074 7.778-3.222l40-40c4.296-4.296 4.296-11.261 0-15.557s-11.258-4.296-15.555 0z"/><path d="m256 445c-18.472 0-33.5 15.028-33.5 33.5s15.028 33.5 33.5 33.5 33.5-15.028 33.5-33.5-15.028-33.5-33.5-33.5zm0 45c-6.341 0-11.5-5.159-11.5-11.5s5.159-11.5 11.5-11.5 11.5 5.159 11.5 11.5-5.159 11.5-11.5 11.5z"/><path d="m130.171 394.804c-18.472 0-33.5 15.028-33.5 33.5s15.028 33.5 33.5 33.5 33.5-15.028 33.5-33.5-15.028-33.5-33.5-33.5zm0 45c-6.341 0-11.5-5.159-11.5-11.5s5.159-11.5 11.5-11.5 11.5 5.159 11.5 11.5-5.159 11.5-11.5 11.5z"/><path d="m381.829 394.804c-18.473 0-33.501 15.028-33.501 33.5s15.028 33.5 33.501 33.5c18.472 0 33.499-15.028 33.499-33.5s-15.027-33.5-33.499-33.5zm0 45c-6.342 0-11.501-5.159-11.501-11.5s5.159-11.5 11.501-11.5c6.341 0 11.499 5.159 11.499 11.5s-5.158 11.5-11.499 11.5z"/></g></g><g/><g/><g/><g/><g/><g/><g/><g/><g/><g/><g/><g/><g/><g/><g/></svg>