<svg id="Capa_1" enable-background="new 0 0 512 512" viewBox="0 0 512 512" xmlns="http://www.w3.org/2000/svg" fill="#E6ECF2"><g><g><path d="m424.567 235.25c-13.3-25.798-32.689-48.569-56.073-65.853-4.885-3.611-11.772-2.578-15.384 2.307-3.611 4.886-2.578 11.773 2.308 15.384 20.684 15.289 37.834 35.429 49.596 58.243 10.644 20.647 16.745 42.757 18.212 65.862h-85.882c-.576-25.035-3.123-49.059-7.596-71.56-1.186-5.958-6.979-9.827-12.934-8.644-5.959 1.185-9.829 6.976-8.645 12.934 4.196 21.106 6.597 43.689 7.166 67.27h-118.665c.6-24.055 3.157-47.675 7.49-68.903 1.214-5.953-2.626-11.763-8.579-12.978-5.949-1.213-11.762 2.625-12.978 8.578-4.691 22.991-7.357 47.602-7.947 73.303h-85.867c1.527-23.209 7.848-46.001 18.531-66.504 11.975-22.983 29.41-43.194 50.422-58.449 4.916-3.569 6.008-10.448 2.438-15.364-3.568-4.917-10.446-6.009-15.364-2.439-23.754 17.246-43.467 40.098-57.007 66.086-13.996 26.862-21.394 57.177-21.394 87.67.001 104.66 85.048 189.807 189.585 189.807s189.584-85.147 189.584-189.807c0-30.209-7.268-60.274-21.017-86.943zm-335.782 97.943h85.877c1.048 44.995 8.505 87.071 21.273 119.469 4.872 12.362 10.4 22.918 16.444 31.56-67.916-18.351-118.881-78.473-123.594-151.029zm167.215 156.807c-13.589 0-28.392-16.974-39.597-45.405-11.797-29.935-18.711-69.153-19.736-111.402h118.665c-1.025 42.249-7.939 81.467-19.736 111.402-11.204 28.431-26.007 45.405-39.596 45.405zm43.62-5.778c6.044-8.643 11.572-19.198 16.444-31.56 12.768-32.398 20.225-74.475 21.273-119.469h85.877c-4.712 72.556-55.677 132.678-123.594 151.029z"/><path d="m235.316 225.733 14.973 8.888c1.73 1.027 3.673 1.541 5.615 1.541 1.919 0 3.839-.501 5.554-1.505l15.219-8.902c36.54-21.536 59.239-61.26 59.239-103.656l.019-16.722c0-4.199-2.391-8.031-6.161-9.878-17.539-8.592-32.3-22.801-41.561-40.009-1.919-3.564-5.639-5.787-9.687-5.787h-45.136c-4.048 0-7.768 2.223-9.687 5.787-9.261 17.208-24.021 31.417-41.561 40.009-3.771 1.847-6.161 5.68-6.161 9.878l.103 16.69c0 42.422 22.709 82.152 59.232 103.666zm4.421-154.03h32.441c10.256 16.634 24.769 30.638 41.75 40.292l-.013 10.09c0 34.656-18.55 67.118-48.378 84.698l-9.593 5.611-9.431-5.598c-29.873-17.597-48.431-50.063-48.431-84.805l-.07-10.011c16.972-9.654 31.475-23.652 41.725-40.277z"/></g><g><g><path d="m256.021 286.8c-6.035 0-12.07-1.657-17.453-4.972l-24.086-14.831c-25.759-15.86-47.172-38.202-61.924-64.609s-22.55-56.352-22.55-86.6v-36.676c0-10.696 7.682-19.671 18.267-21.342 20.375-3.215 36.188-19.066 39.349-39.443 1.645-10.619 10.625-18.327 21.352-18.327h93.965c10.727 0 19.707 7.708 21.353 18.328 3.164 20.404 19 36.26 39.405 39.454 10.601 1.659 18.294 10.636 18.294 21.346v36.682c0 30.242-7.795 60.183-22.542 86.586s-36.154 48.743-61.905 64.604l-24.066 14.825c-5.385 3.317-11.422 4.975-17.459 4.975zm-104.013-207.347v36.336c0 26.5 6.831 52.735 19.756 75.87 12.925 23.136 31.686 42.709 54.253 56.605l24.086 14.831c3.651 2.249 8.188 2.247 11.838-.001l24.066-14.825c22.562-13.897 41.315-33.47 54.236-56.602 12.92-23.132 19.749-49.363 19.749-75.858v-36.341c-29.653-4.774-52.663-27.812-57.391-57.468h-93.285c-4.724 29.618-27.7 52.648-57.308 57.453zm150.932-57.453h.01z" fill="#0496FF"/></g></g></g><g/><g/><g/><g/><g/><g/><g/><g/><g/><g/><g/><g/><g/><g/><g/></svg>