<svg id="Capa_1" enable-background="new 0 0 512 512" viewBox="0 0 512 512" xmlns="http://www.w3.org/2000/svg" fill="#052438"><g><g><path d="m154.735 256.571c6.075 0 11-4.925 11-11v-81.501c0-8.886 7.229-16.116 16.116-16.116h148.65c8.886 0 16.116 7.229 16.116 16.116v81.832c0 6.075 4.925 11 11 11s11-4.925 11-11v-81.832c0-21.017-17.099-38.116-38.116-38.116h-1.789v-40.336c0-33.118-26.943-60.061-60.061-60.061h-24.952c-33.118 0-60.061 26.943-60.061 60.061 0 6.075 4.925 11 11 11s11-4.925 11-11c0-20.987 17.074-38.061 38.061-38.061h24.952c20.987 0 38.061 17.074 38.061 38.061v40.336h-124.86c-21.017 0-38.116 17.099-38.116 38.116v81.501c-.001 6.075 4.924 11 10.999 11z"/><path d="m256.177 251.57c6.075 0 11-4.925 11-11v-36.23h6.025c6.075 0 11-4.925 11-11s-4.925-11-11-11h-34.05c-6.075 0-11 4.925-11 11s4.925 11 11 11h6.025v36.23c0 6.075 4.925 11 11 11z"/><path d="m302.614 335.271c-3.038-5.261-9.766-7.063-15.026-4.026l-20.588 11.885v-23.772c0-6.075-4.925-11-11-11s-11 4.925-11 11v23.772l-20.588-11.886c-5.26-3.037-11.988-1.234-15.026 4.026-3.038 5.261-1.235 11.989 4.026 15.026l20.588 11.887-20.588 11.886c-5.261 3.038-7.064 9.765-4.026 15.026 2.038 3.529 5.735 5.502 9.537 5.502 1.866 0 3.758-.476 5.49-1.476l20.587-11.885v23.773c0 6.075 4.925 11 11 11s11-4.925 11-11v-23.773l20.588 11.886c1.732 1 3.624 1.476 5.49 1.476 3.801 0 7.499-1.973 9.537-5.502 3.038-5.261 1.235-11.989-4.026-15.026l-20.589-11.887 20.588-11.886c5.261-3.038 7.064-9.765 4.026-15.026z"/><path d="m182.602 335.271c-3.038-5.261-9.766-7.063-15.026-4.026l-20.588 11.886v-23.772c0-6.075-4.925-11-11-11s-11 4.925-11 11v23.772l-20.588-11.887c-5.261-3.037-11.988-1.234-15.026 4.026-3.038 5.261-1.235 11.989 4.026 15.026l20.588 11.886-20.588 11.887c-5.261 3.038-7.064 9.765-4.026 15.026 2.038 3.529 5.735 5.502 9.537 5.502 1.866 0 3.758-.476 5.49-1.476l20.587-11.886v23.772c0 6.075 4.925 11 11 11s11-4.925 11-11v-23.773l20.588 11.886c1.732 1 3.624 1.476 5.49 1.476 3.801 0 7.499-1.973 9.537-5.502 3.038-5.261 1.235-11.989-4.026-15.026l-20.588-11.886 20.588-11.886c5.26-3.037 7.063-9.764 4.025-15.025z"/><path d="m418.6 374.069-20.588-11.886 20.588-11.886c5.261-3.038 7.064-9.765 4.026-15.026s-9.766-7.063-15.026-4.026l-20.587 11.886v-23.772c0-6.075-4.925-11-11-11s-11 4.925-11 11v23.772l-20.588-11.886c-5.26-3.037-11.988-1.234-15.026 4.026-3.038 5.261-1.235 11.989 4.026 15.026l20.588 11.886-20.588 11.886c-5.261 3.038-7.064 9.765-4.026 15.026 2.038 3.529 5.735 5.502 9.537 5.502 1.866 0 3.758-.476 5.49-1.476l20.588-11.886v23.773c0 6.075 4.925 11 11 11s11-4.925 11-11v-23.772l20.587 11.886c1.732 1 3.624 1.476 5.49 1.476 3.801 0 7.499-1.973 9.537-5.502 3.036-5.262 1.233-11.989-4.028-15.027z"/></g><path d="m471.541 237.924h-431.082c-22.309 0-40.459 18.15-40.459 40.459v167.6c0 22.31 18.15 40.459 40.459 40.459h431.081c22.31 0 40.459-18.15 40.459-40.459v-167.6c.001-22.309-18.149-40.459-40.458-40.459zm18.459 208.059c0 10.179-8.281 18.459-18.459 18.459h-431.082c-10.179 0-18.459-8.281-18.459-18.459v-167.6c0-10.179 8.281-18.459 18.459-18.459h431.081c10.179 0 18.459 8.281 18.459 18.459v167.6z" fill="#0496FF"/></g><g/><g/><g/><g/><g/><g/><g/><g/><g/><g/><g/><g/><g/><g/><g/></svg>