<svg id="Capa_1" enable-background="new 0 0 512 512" viewBox="0 0 512 512" xmlns="http://www.w3.org/2000/svg" fill="#E6ECF2"><g><g><path d="m491.803 87.897h-99.486v-5.674c0-11.58-9.42-21-21-21h-81.514c-11.58 0-21 9.42-21 21v5.674h-99.486c-11.137 0-20.197 9.06-20.197 20.196v322.487c0 11.137 9.06 20.197 20.197 20.197h322.486c11.137 0 20.197-9.06 20.197-20.197v-322.486c0-11.136-9.06-20.197-20.197-20.197zm-201-4.674h79.514v133.642l-33.787-21.836c-1.817-1.174-3.894-1.762-5.971-1.762s-4.154.587-5.971 1.762l-33.786 21.836v-133.642zm199.197 345.554h-318.879v-318.88h97.683v127.174c0 4.029 2.202 7.735 5.741 9.661s7.846 1.765 11.23-.423l44.786-28.945 44.787 28.945c1.812 1.171 3.889 1.762 5.971 1.762 1.806 0 3.616-.444 5.259-1.339 3.539-1.926 5.741-5.632 5.741-9.661v-127.174h97.681z"/><path d="m114.053 258.636h-103.053c-6.075 0-11 4.925-11 11s4.925 11 11 11h103.053c6.075 0 11-4.925 11-11s-4.925-11-11-11z"/><path d="m114.053 207.652h-60.53c-6.075 0-11 4.925-11 11s4.925 11 11 11h60.53c6.075 0 11-4.925 11-11s-4.925-11-11-11z"/><path d="m114.053 309.621h-60.53c-6.075 0-11 4.925-11 11s4.925 11 11 11h60.53c6.075 0 11-4.925 11-11s-4.925-11-11-11z"/></g><g fill="#0496FF"><path d="m295.477 280.99h-18.832c-6.075 0-11 4.925-11 11v84.568c0 6.075 4.925 11 11 11s11-4.925 11-11v-26.622h.8l20.213 31.517c2.101 3.275 5.647 5.063 9.27 5.063 2.033 0 4.09-.563 5.928-1.742 5.114-3.28 6.601-10.084 3.321-15.198l-15.345-23.926c10.195-5.739 17.1-16.66 17.1-29.169v-2.035c0-18.448-15.008-33.456-33.455-33.456zm-7.831 22h7.832c6.316 0 11.455 5.139 11.455 11.456v2.035c0 6.316-5.139 11.456-11.455 11.456h-7.832z"/><path d="m239.127 302.99c6.075 0 11-4.925 11-11s-4.925-11-11-11h-27.56c-6.075 0-11 4.925-11 11v84.568c0 6.075 4.925 11 11 11s11-4.925 11-11v-31.284h16.56c6.075 0 11-4.925 11-11s-4.925-11-11-11h-16.56v-20.284z"/><path d="m383.011 302.99c6.075 0 11-4.925 11-11s-4.925-11-11-11h-27.56c-6.075 0-11 4.925-11 11v84.568c0 6.075 4.925 11 11 11h27.56c6.075 0 11-4.925 11-11s-4.925-11-11-11h-16.56v-20.284h16.56c6.075 0 11-4.925 11-11s-4.925-11-11-11h-16.56v-20.284z"/><path d="m449.554 345.273c6.075 0 11-4.925 11-11s-4.925-11-11-11h-16.56v-20.283h16.56c6.075 0 11-4.925 11-11s-4.925-11-11-11h-27.56c-6.075 0-11 4.925-11 11v84.568c0 6.075 4.925 11 11 11h27.56c6.075 0 11-4.925 11-11s-4.925-11-11-11h-16.56v-20.284h16.56z"/></g></g><g/><g/><g/><g/><g/><g/><g/><g/><g/><g/><g/><g/><g/><g/><g/></svg>