<svg id="Capa_1" enable-background="new 0 0 512 512" viewBox="0 0 512 512" xmlns="http://www.w3.org/2000/svg" fill="#052438"><g><g fill="#0496FF"><path d="m102.456 217.875c-4.958-1.173-10.08 1.214-12.366 5.771l-15.124 30.146-15.125-30.146c-2.286-4.558-7.406-6.945-12.366-5.771-4.962 1.175-8.466 5.605-8.466 10.704v70.042c0 6.075 4.925 11 11 11s11-4.925 11-11v-23.587l4.125 8.222c1.866 3.719 5.671 6.067 9.832 6.067s7.966-2.348 9.832-6.067l4.124-8.22v23.586c0 6.075 4.925 11 11 11s11-4.925 11-11v-70.042c0-5.099-3.504-9.53-8.466-10.705z"/><path d="m247.541 217.58c-6.075 0-11 4.925-11 11v28.966l-19.884-34.463c-2.489-4.312-7.564-6.417-12.374-5.128-4.81 1.288-8.154 5.646-8.154 10.625v70.042c0 6.075 4.925 11 11 11s11-4.925 11-11v-28.966l19.884 34.463c2 3.465 5.668 5.504 9.527 5.504.944 0 1.901-.122 2.847-.375 4.81-1.288 8.154-5.646 8.154-10.625v-70.043c0-6.076-4.925-11-11-11z"/><path d="m153.001 217.407c-16.359 0-29.669 13.309-29.669 29.668v33.05c0 16.359 13.31 29.668 29.669 29.668h.028c16.359 0 29.669-13.309 29.669-29.668v-33.05c0-16.359-13.309-29.668-29.697-29.668zm7.697 62.718c0 4.229-3.44 7.668-7.669 7.668h-.028c-4.229 0-7.669-3.44-7.669-7.668v-33.05c0-4.229 3.44-7.668 7.697-7.668 4.229 0 7.669 3.44 7.669 7.668z"/><path d="m302.003 217.407h-18.698c-6.075 0-11 4.925-11 11v70.387c0 6.075 4.925 11 11 11h18.698c16.359 0 29.668-13.309 29.668-29.668v-33.05c0-16.36-13.309-29.669-29.668-29.669zm7.668 62.718c0 4.229-3.439 7.668-7.668 7.668h-7.698v-48.387h7.698c4.229 0 7.668 3.44 7.668 7.668z"/><path d="m374.103 217.407c-15.731 0-28.529 12.829-28.529 28.597v52.791c0 6.075 4.925 11 11 11s11-4.925 11-11v-15.998h13.06v15.998c0 6.075 4.925 11 11 11s11-4.925 11-11v-52.791c-.001-15.769-12.8-28.597-28.531-28.597zm-6.53 43.389v-14.793c0-3.637 2.929-6.597 6.529-6.597s6.53 2.959 6.53 6.597v14.793z"/><path d="m461.991 217.838c-6.075 0-11 4.925-11 11v26.321c0 4.036-3.252 7.32-7.25 7.32s-7.25-3.284-7.25-7.32v-26.321c0-6.075-4.925-11-11-11s-11 4.925-11 11v26.321c0 12.268 7.558 22.794 18.25 27.16v15.538c0 6.075 4.925 11 11 11s11-4.925 11-11v-15.537c10.692-4.367 18.25-14.893 18.25-27.16v-26.321c0-6.076-4.925-11.001-11-11.001z"/><path d="m204.11 184.199v-15.879c10.843-4.382 18.52-15.032 18.52-27.452v-26.71c0-6.075-4.925-11-11-11s-11 4.925-11 11v26.71c0 4.186-3.373 7.591-7.52 7.591s-7.521-3.405-7.521-7.591v-26.71c0-6.075-4.925-11-11-11s-11 4.925-11 11v26.71c0 12.42 7.677 23.07 18.521 27.452v15.879c0 6.075 4.925 11 11 11s11-4.925 11-11z"/><path d="m420.015 177.396-11.665-18.189c8.072-5.292 13.417-14.414 13.417-24.766v-1.686c0-16.32-13.277-29.598-29.598-29.598h-15.597c-6.075 0-11 4.925-11 11v70.042c0 6.075 4.925 11 11 11s11-4.925 11-11v-16.635l13.923 21.71c2.102 3.275 5.647 5.063 9.271 5.063 2.032 0 4.09-.563 5.928-1.742 5.113-3.281 6.6-10.085 3.321-15.199zm-32.443-52.239h4.597c4.118 0 7.598 3.479 7.598 7.598v1.686c0 4.19-3.408 7.599-7.598 7.599h-4.597z"/><path d="m149.415 166.489c0-6.075-4.925-11-11-11s-11 4.925-11 11c0 3.7-3.01 6.709-6.709 6.709h-2.14c-3.492 0-6.333-2.841-6.333-6.333v-35.375c0-3.492 2.841-6.333 6.333-6.333h2.14c3.699 0 6.709 3.01 6.709 6.709 0 6.075 4.925 11 11 11s11-4.925 11-11c0-15.831-12.879-28.709-28.709-28.709h-2.14c-15.623 0-28.333 12.71-28.333 28.333v35.375c0 15.623 12.71 28.333 28.333 28.333h2.14c15.83.001 28.709-12.878 28.709-28.709z"/><path d="m292.167 169.713v-8.79c0-6.624-2.542-12.665-6.7-17.202 1.79-3.466 2.808-7.392 2.808-11.554v-3.739c0-13.934-11.337-25.271-25.271-25.271h-14.128c-6.075 0-11 4.925-11 11v70.042c0 6.075 4.925 11 11 11h17.806c14.051 0 25.485-11.433 25.485-25.486zm-32.292-44.556h3.128c1.773 0 3.271 1.498 3.271 3.271v3.739c0 1.803-1.468 3.271-3.271 3.271h-3.128zm10.292 44.556c0 1.89-1.597 3.486-3.486 3.486h-6.806v-15.762h3.128 3.678c1.89 0 3.486 1.596 3.486 3.486z"/><path d="m351.393 184.199c0-6.075-4.925-11-11-11h-11.826v-13.021h11.826c6.075 0 11-4.925 11-11s-4.925-11-11-11h-11.826v-13.021h11.826c6.075 0 11-4.925 11-11s-4.925-11-11-11h-22.826c-6.075 0-11 4.925-11 11v70.042c0 6.075 4.925 11 11 11h22.826c6.075 0 11-4.925 11-11z"/></g><path d="m482.545 38.142h-453.09c-16.241 0-29.455 13.213-29.455 29.455v329.641c0 16.242 13.214 29.456 29.455 29.456h178.242l-9.492 25.165h-37.554c-6.075 0-11 4.925-11 11s4.925 11 11 11h190.697c6.075 0 11-4.925 11-11s-4.925-11-11-11h-37.554l-9.492-25.165h178.242c16.241 0 29.455-13.214 29.455-29.456v-329.641c.001-16.242-13.213-29.455-29.454-29.455zm-453.09 22h453.09c4.11 0 7.455 3.344 7.455 7.455v285.213h-468v-285.213c0-4.111 3.345-7.455 7.455-7.455zm260.828 391.716h-68.565l9.492-25.165h49.582zm192.262-47.165h-453.09c-4.11 0-7.455-3.345-7.455-7.456v-22.427h468v22.428c0 4.111-3.345 7.455-7.455 7.455z"/></g><g/><g/><g/><g/><g/><g/><g/><g/><g/><g/><g/><g/><g/><g/><g/></svg>