<svg id="Capa_1" enable-background="new 0 0 512 512" viewBox="0 0 512 512" xmlns="http://www.w3.org/2000/svg" fill="#052438"><g><g><path d="m482.116 0h-452.232c-16.478 0-29.884 13.406-29.884 29.884v452.232c0 16.478 13.406 29.884 29.884 29.884h452.232c16.478 0 29.884-13.406 29.884-29.884v-452.232c0-16.478-13.406-29.884-29.884-29.884zm7.884 482.116c0 4.347-3.537 7.884-7.884 7.884h-452.232c-4.347 0-7.884-3.537-7.884-7.884v-370.689h468zm0-392.689h-468v-59.543c0-4.347 3.537-7.884 7.884-7.884h452.232c4.347 0 7.884 3.537 7.884 7.884z"/><path d="m74.524 457.792c2.148 2.148 4.963 3.222 7.778 3.222s5.63-1.074 7.778-3.222l66.507-66.507c4.296-4.296 4.296-11.261 0-15.557-4.297-4.296-11.26-4.296-15.557 0l-66.507 66.507c-4.294 4.296-4.294 11.261.001 15.557z"/><path d="m197.24 452.054h232.457c6.075 0 11-4.925 11-11s-4.925-11-11-11h-232.457c-6.075 0-11 4.925-11 11s4.925 11 11 11z"/><path d="m197.24 403.465h232.457c6.075 0 11-4.925 11-11s-4.925-11-11-11h-232.457c-6.075 0-11 4.925-11 11s4.925 11 11 11z"/><circle cx="371.91" cy="55.026" r="11"/><circle cx="414.53" cy="55.026" r="11"/><circle cx="457.15" cy="55.026" r="11"/><circle cx="82.3" cy="383.51" r="11"/><circle cx="148.81" cy="450.011" r="11"/></g><g fill="#0496FF"><path d="m152.679 237.575c2.298 0 4.566-.72 6.467-2.101 2.741-1.992 4.412-5.136 4.527-8.523l.848-24.793 13.888-20.556c1.896-2.808 2.394-6.334 1.347-9.557-1.048-3.223-3.522-5.783-6.707-6.94l-23.318-8.467-15.259-19.56c-2.084-2.672-5.284-4.234-8.673-4.234s-6.589 1.562-8.673 4.234l-15.259 19.56-23.318 8.467c-3.185 1.157-5.659 3.717-6.707 6.94-1.047 3.223-.55 6.749 1.347 9.557l13.888 20.556.848 24.793c.115 3.387 1.786 6.532 4.527 8.523 2.742 1.992 6.25 2.609 9.506 1.673l23.842-6.855 23.842 6.855c.998.287 2.02.428 3.037.428zm-10.037-39.33-.474 13.862-13.33-3.833c-.993-.286-2.017-.428-3.04-.428s-2.047.143-3.04.428l-13.33 3.833-.474-13.862c-.07-2.066-.722-4.07-1.878-5.782l-7.765-11.493 13.037-4.734c1.942-.706 3.647-1.944 4.918-3.574l8.531-10.936 8.531 10.936c1.271 1.63 2.976 2.868 4.918 3.574l13.037 4.734-7.765 11.493c-1.155 1.712-1.806 3.716-1.876 5.782z"/><path d="m282.881 237.575c2.298 0 4.566-.72 6.467-2.101 2.741-1.992 4.412-5.136 4.527-8.523l.848-24.793 13.888-20.556c1.896-2.808 2.394-6.334 1.347-9.557-1.048-3.223-3.522-5.783-6.707-6.94l-23.318-8.467-15.259-19.56c-2.084-2.672-5.284-4.234-8.673-4.234s-6.589 1.562-8.673 4.234l-15.259 19.56-23.318 8.467c-3.185 1.157-5.659 3.717-6.707 6.94-1.047 3.223-.55 6.749 1.347 9.557l13.888 20.556.848 24.793c.115 3.387 1.786 6.532 4.527 8.523 2.741 1.992 6.249 2.609 9.506 1.673l23.84-6.855 23.842 6.855c1 .287 2.022.428 3.039.428zm-10.037-39.33-.474 13.862-13.33-3.833c-.993-.286-2.017-.428-3.04-.428s-2.047.143-3.04.428l-13.33 3.833-.474-13.862c-.07-2.066-.722-4.07-1.878-5.782l-7.765-11.493 13.037-4.734c1.942-.706 3.647-1.944 4.918-3.574l8.532-10.935 8.531 10.936c1.271 1.63 2.976 2.868 4.918 3.574l13.037 4.734-7.765 11.493c-1.156 1.711-1.807 3.715-1.877 5.781z"/><path d="m440.159 172.044c-1.048-3.223-3.522-5.783-6.707-6.94l-23.318-8.467-15.259-19.56c-2.084-2.672-5.284-4.234-8.673-4.234s-6.589 1.562-8.673 4.234l-15.259 19.56-23.318 8.467c-3.185 1.157-5.659 3.717-6.707 6.94-1.047 3.223-.55 6.749 1.347 9.557l13.888 20.556.848 24.793c.115 3.387 1.786 6.532 4.527 8.523 2.741 1.992 6.25 2.609 9.506 1.673l23.842-6.855 23.842 6.855c1 .287 2.022.428 3.039.428 2.298 0 4.566-.72 6.467-2.101 2.741-1.992 4.412-5.136 4.527-8.523l.848-24.793 13.888-20.556c1.895-2.808 2.392-6.334 1.345-9.557zm-35.235 20.419c-1.156 1.712-1.808 3.716-1.878 5.782l-.474 13.862-13.33-3.833c-.993-.286-2.017-.428-3.04-.428s-2.047.143-3.04.428l-13.33 3.833-.474-13.862c-.07-2.066-.722-4.07-1.878-5.782l-7.765-11.493 13.037-4.734c1.942-.706 3.647-1.944 4.918-3.574l8.531-10.936 8.531 10.936c1.271 1.63 2.976 2.868 4.918 3.574l13.037 4.734z"/><path d="m229.839 280.46-23.318-8.467-15.259-19.56c-2.084-2.672-5.284-4.234-8.673-4.234s-6.589 1.562-8.673 4.234l-15.259 19.56-23.318 8.467c-3.185 1.157-5.659 3.717-6.707 6.94-1.047 3.223-.55 6.749 1.347 9.557l13.888 20.556.848 24.793c.115 3.387 1.786 6.532 4.527 8.523s6.25 2.61 9.506 1.673l23.842-6.856 23.842 6.856c1 .287 2.022.428 3.039.428 2.298 0 4.566-.72 6.467-2.101 2.741-1.992 4.412-5.136 4.527-8.523l.848-24.793 13.888-20.556c1.896-2.808 2.394-6.334 1.347-9.557-1.05-3.223-3.525-5.783-6.709-6.94zm-28.528 27.359c-1.156 1.712-1.808 3.716-1.878 5.782l-.474 13.861-13.33-3.833c-.993-.286-2.017-.428-3.04-.428s-2.047.143-3.04.428l-13.33 3.833-.474-13.861c-.07-2.066-.722-4.07-1.878-5.782l-7.765-11.493 13.037-4.734c1.942-.706 3.647-1.944 4.918-3.574l8.531-10.936 8.531 10.936c1.271 1.63 2.976 2.868 4.918 3.574l13.037 4.734z"/><path d="m360.041 280.46-23.318-8.467-15.259-19.56c-2.084-2.672-5.284-4.234-8.673-4.234s-6.589 1.562-8.673 4.234l-15.259 19.56-23.318 8.467c-3.185 1.157-5.659 3.717-6.707 6.94-1.047 3.223-.55 6.749 1.347 9.557l13.888 20.556.848 24.793c.115 3.387 1.786 6.532 4.527 8.523s6.249 2.61 9.506 1.673l23.842-6.856 23.842 6.856c1 .287 2.022.428 3.039.428 2.298 0 4.566-.72 6.467-2.101 2.741-1.992 4.412-5.136 4.527-8.523l.848-24.793 13.888-20.556c1.896-2.808 2.394-6.334 1.347-9.557-1.05-3.223-3.524-5.783-6.709-6.94zm-28.528 27.359c-1.156 1.712-1.808 3.716-1.878 5.782l-.474 13.861-13.33-3.833c-.993-.286-2.017-.428-3.04-.428s-2.047.143-3.04.428l-13.33 3.833-.474-13.861c-.07-2.066-.722-4.07-1.878-5.782l-7.765-11.493 13.037-4.734c1.942-.706 3.647-1.944 4.918-3.574l8.531-10.936 8.531 10.936c1.271 1.63 2.976 2.868 4.918 3.574l13.037 4.734z"/></g></g><g/><g/><g/><g/><g/><g/><g/><g/><g/><g/><g/><g/><g/><g/><g/></svg>