<svg id="Capa_1" enable-background="new 0 0 512 512" viewBox="0 0 512 512" xmlns="http://www.w3.org/2000/svg" fill="#E6ECF2"><g><g><path d="m447.066 229.25v-64.723c0-21.699-17.653-39.353-39.353-39.353h-33.503c-6.075 0-11 4.925-11 11s4.925 11 11 11h33.503c9.568 0 17.353 7.784 17.353 17.353v64.723c0 9.568-7.784 17.353-17.353 17.353-.003 0-.007 0-.01 0-.007 0-.014 0-.021 0h-111.416c-6.075 0-11 4.925-11 11s2.537 11 8.612 11h113.805c9.586 0 17.384 7.798 17.384 17.384v64.93c0 9.586-7.798 17.384-17.384 17.384h-303.366c-9.586 0-17.384-7.798-17.384-17.384v-64.93c0-9.586 7.798-17.384 17.384-17.384h113.867c6.075 0 8.715-4.925 8.715-11s-4.925-11-11-11h-111.582c-.007 0-.014 0-.021 0-.004 0-.007 0-.01 0-9.568 0-17.353-7.784-17.353-17.353v-64.723c0-9.568 7.784-17.353 17.353-17.353h36.722c6.075 0 11-4.925 11-11s-4.925-11-11-11h-36.722c-21.699 0-39.353 17.653-39.353 39.353v64.723c0 11.135 4.656 21.196 12.114 28.362-7.458 7.171-12.114 17.236-12.114 28.375v64.93c0 11.144 4.659 21.213 12.123 28.384-7.464 7.171-12.123 17.241-12.123 28.384v64.93c0 21.717 17.667 39.384 39.384 39.384h303.365c21.717 0 39.384-17.667 39.384-39.384v-64.93c0-11.144-4.659-21.213-12.123-28.384 7.464-7.171 12.123-17.241 12.123-28.384v-64.93c0-11.139-4.656-21.205-12.114-28.375 7.459-7.166 12.114-17.227 12.114-28.362zm-22 178.436v64.93c0 9.586-7.798 17.384-17.384 17.384h-303.365c-9.586 0-17.384-7.798-17.384-17.384v-64.93c0-9.586 7.798-17.384 17.384-17.384h303.365c9.587-.001 17.384 7.798 17.384 17.384z"/><path d="m245 318.452c0 6.075 4.925 11 11 11h132.698c6.075 0 11-4.925 11-11s-4.925-11-11-11h-132.698c-6.075 0-11 4.924-11 11z"/><path d="m122.217 451.151h132.698c6.075 0 11-4.925 11-11s-4.925-11-11-11h-132.698c-6.075 0-11 4.925-11 11s4.925 11 11 11z"/><path d="m235.316 225.733 14.973 8.888c1.73 1.027 3.673 1.541 5.615 1.541 1.919 0 3.839-.501 5.554-1.505l15.219-8.902c36.54-21.536 59.239-61.26 59.239-103.656l.019-16.722c0-4.199-2.391-8.031-6.161-9.878-17.539-8.592-32.3-22.801-41.561-40.009-1.919-3.564-5.639-5.787-9.687-5.787h-45.136c-4.048 0-7.768 2.223-9.687 5.787-9.261 17.208-24.021 31.417-41.561 40.009-3.771 1.847-6.161 5.68-6.161 9.878l.103 16.69c0 42.422 22.709 82.152 59.232 103.666zm4.421-154.03h32.441c10.256 16.634 24.769 30.638 41.75 40.292l-.013 10.09c0 34.656-18.55 67.118-48.378 84.698l-9.593 5.611-9.431-5.598c-29.873-17.597-48.431-50.063-48.431-84.805l-.07-10.011c16.972-9.654 31.475-23.652 41.725-40.277z"/></g><g fill="#0496FF"><path d="m381.992 115.809v-36.682c0-10.709-7.693-19.687-18.294-21.346-20.405-3.194-36.241-19.049-39.405-39.454-1.646-10.619-10.626-18.327-21.353-18.327h-93.965c-10.727 0-19.707 7.708-21.353 18.327-3.16 20.377-18.974 36.229-39.349 39.443-10.585 1.67-18.267 10.646-18.267 21.342v36.677c0 30.248 7.798 60.193 22.55 86.6s36.165 48.749 61.924 64.609l24.086 14.831c5.383 3.315 11.418 4.972 17.453 4.972 6.037 0 12.074-1.658 17.459-4.975l24.068-14.826c25.751-15.862 47.157-38.202 61.904-64.605s22.542-56.344 22.542-86.586zm-95.985 132.46-24.066 14.825c-3.648 2.248-8.186 2.25-11.838.001l-24.086-14.831c-22.567-13.896-41.328-33.469-54.253-56.605-12.925-23.135-19.756-49.371-19.756-75.87v-36.336c29.608-4.804 52.584-27.835 57.308-57.453h93.285c4.729 29.656 27.738 52.694 57.392 57.468v36.341c0 26.495-6.829 52.726-19.749 75.858-12.922 23.132-31.676 42.705-54.237 56.602z"/><circle cx="123.3" cy="318.46" r="11"/><circle cx="163.109" cy="318.46" r="11"/><circle cx="202.919" cy="318.46" r="11"/><circle cx="309.085" cy="440.151" r="11"/><circle cx="348.895" cy="440.151" r="11"/><circle cx="388.704" cy="440.151" r="11"/></g></g><g/><g/><g/><g/><g/><g/><g/><g/><g/><g/><g/><g/><g/><g/><g/></svg>