<svg id="Layer_1" enable-background="new 0 0 512 512" viewBox="0 0 512 512" xmlns="http://www.w3.org/2000/svg" fill="#E6ECF2"><g><path d="m256 55c-110.832 0-201 90.168-201 201s90.168 201 201 201c28.7 0 56.517-5.986 82.678-17.792 5.537-2.499 8-9.014 5.501-14.551-2.5-5.537-9.015-8.001-14.551-5.501-10.722 4.839-21.757 8.579-33.037 11.208 6.95-9.751 13.249-22.166 18.703-37.04 2.956-8.061 5.622-16.685 7.984-25.777h7.722c6.075 0 11-4.925 11-11s-4.925-11-11-11h-2.774c4.665-24.216 7.392-50.872 7.964-78.546h98.47c-.746 12.107-2.721 24.121-5.899 35.843-1.59 5.863 1.875 11.905 7.738 13.495 5.864 1.589 11.905-1.874 13.495-7.738 4.649-17.143 7.006-34.84 7.006-52.601 0-110.832-90.168-201-201-201zm-178.665 212h98.474c.572 27.674 3.3 54.33 7.964 78.546h-82.723c-13.557-23.368-21.98-50.068-23.715-78.546zm23.715-100.546h82.724c-4.665 24.216-7.392 50.872-7.964 78.546h-98.475c1.735-28.477 10.158-55.177 23.715-78.546zm105.139 0h99.623c4.904 23.904 7.777 50.623 8.375 78.546h-116.373c.598-27.923 3.471-54.642 8.375-78.546zm49.811-88.454c13.116 0 27.56 18.038 38.639 48.25 2.113 5.762 4.067 11.843 5.858 18.204h-88.993c1.791-6.361 3.745-12.442 5.858-18.204 11.078-30.213 25.522-48.25 38.638-48.25zm72.227 88.454h82.723c13.557 23.369 21.98 50.069 23.715 78.546h-98.474c-.573-27.674-3.3-54.33-7.964-78.546zm67.673-22h-72.621c-2.362-9.093-5.028-17.717-7.984-25.778-5.453-14.871-11.75-27.283-18.699-37.033 39.818 9.268 74.578 31.864 99.304 62.811zm-180.495-62.811c-6.948 9.75-13.246 22.162-18.699 37.033-2.956 8.061-5.622 16.685-7.984 25.778h-72.622c24.725-30.947 59.485-53.543 99.305-62.811zm-99.305 285.903h72.622c2.362 9.093 5.028 17.716 7.984 25.777 5.453 14.871 11.75 27.283 18.699 37.033-39.819-9.267-74.579-31.863-99.305-62.81zm178.539 18.204c-11.079 30.212-25.523 48.25-38.639 48.25s-27.56-18.038-38.639-48.25c-2.113-5.762-4.067-11.843-5.858-18.203h88.993c-1.79 6.36-3.745 12.441-5.857 18.203zm11.172-40.204h-99.622c-4.904-23.904-7.777-50.624-8.375-78.546h116.373c-.599 27.923-3.472 54.642-8.376 78.546z"/><g fill="#0496FF"><path d="m256 490c-129.028 0-234-104.972-234-234s104.972-234 234-234 234 104.972 234 234c0 6.075 4.925 11 11 11s11-4.925 11-11c0-68.38-26.629-132.667-74.981-181.019s-112.639-74.981-181.019-74.981-132.667 26.629-181.019 74.981-74.981 112.639-74.981 181.019 26.629 132.667 74.981 181.019 112.639 74.981 181.019 74.981c6.075 0 11-4.925 11-11s-4.925-11-11-11z"/><path d="m502.956 345.722c-28.533-5.154-43.162-24.917-50.409-40.588-1.8-3.892-5.696-6.383-9.984-6.383h-53.125c-4.288 0-8.184 2.491-9.984 6.383-7.248 15.671-21.876 35.434-50.409 40.588-5.236.946-9.044 5.504-9.044 10.825 0 64.605 11.074 133.554 93.209 155.094.915.24 1.853.36 2.791.36s1.875-.12 2.791-.36c82.134-21.541 93.208-90.49 93.208-155.095 0-5.32-3.809-9.879-9.044-10.824zm-86.956 143.876c-58.646-16.64-72.8-61.659-73.924-124.355 23.116-6.662 41.959-22.127 54.138-44.492h39.572c12.179 22.365 31.022 37.83 54.139 44.493-1.125 62.694-15.28 107.714-73.925 124.354z"/><path d="m438.221 377.597-32.221 32.222-12.222-12.222c-4.296-4.296-11.261-4.296-15.557 0-4.295 4.296-4.295 11.261 0 15.557l20 20c2.148 2.148 4.963 3.222 7.778 3.222s5.63-1.074 7.778-3.222l40-40c4.295-4.296 4.295-11.261 0-15.557s-11.26-4.296-15.556 0z"/></g></g><g/><g/><g/><g/><g/><g/><g/><g/><g/><g/><g/><g/><g/><g/><g/></svg>