<svg id="Capa_1" enable-background="new 0 0 512 512" viewBox="0 0 512 512" xmlns="http://www.w3.org/2000/svg" fill="#E6ECF2"><g><g fill="#0496FF"><path d="m105.693 323.052c-4.967-1.176-10.081 1.214-12.367 5.771l-14.607 29.115-14.607-29.115c-2.286-4.557-7.403-6.945-12.367-5.771-4.961 1.175-8.465 5.605-8.465 10.704v68.589c0 6.075 4.925 11 11 11s11-4.925 11-11v-22.134l3.607 7.189c1.866 3.719 5.671 6.067 9.832 6.067s7.966-2.348 9.832-6.067l3.607-7.19v22.135c0 6.075 4.925 11 11 11s11-4.925 11-11v-68.589c0-5.099-3.504-9.529-8.465-10.704z"/><path d="m247.717 322.756c-6.075 0-11 4.925-11 11v27.513l-19.046-33.01c-2.488-4.313-7.561-6.417-12.374-5.128-4.81 1.288-8.154 5.646-8.154 10.625v68.589c0 6.075 4.925 11 11 11s11-4.925 11-11v-27.513l19.046 33.01c1.999 3.465 5.667 5.504 9.527 5.504.944 0 1.901-.122 2.847-.375 4.81-1.288 8.154-5.646 8.154-10.625v-68.589c0-6.076-4.925-11.001-11-11.001z"/><path d="m155.136 322.587c-16.146 0-29.282 13.136-29.282 29.281v32.366c0 16.146 13.136 29.281 29.282 29.281h.028c16.146 0 29.282-13.136 29.282-29.281v-32.366c0-16.146-13.136-29.281-29.31-29.281zm7.31 61.647c0 4.015-3.267 7.281-7.282 7.281h-.028c-4.015 0-7.282-3.267-7.282-7.281v-32.366c0-4.015 3.267-7.281 7.31-7.281 4.015 0 7.282 3.266 7.282 7.281z"/><path d="m301.049 322.587h-18.31c-6.075 0-11 4.925-11 11v68.928c0 6.075 4.925 11 11 11h18.31c16.146 0 29.282-13.136 29.282-29.281v-32.366c0-16.146-13.136-29.281-29.282-29.281zm7.282 61.647c0 4.015-3.267 7.281-7.282 7.281h-7.31v-46.928h7.31c4.015 0 7.282 3.266 7.282 7.281z"/><path d="m371.655 322.587c-15.531 0-28.167 12.665-28.167 28.232v51.696c0 6.075 4.925 11 11 11s11-4.925 11-11v-15.438h12.333v15.438c0 6.075 4.925 11 11 11s11-4.925 11-11v-51.696c0-15.568-12.635-28.232-28.166-28.232zm-6.166 42.489v-14.258c0-3.437 2.766-6.232 6.167-6.232 3.4 0 6.166 2.795 6.166 6.232v14.258z"/><path d="m457.721 323.009c-6.075 0-11 4.925-11 11v25.775c0 3.827-3.083 6.94-6.872 6.94s-6.872-3.113-6.872-6.94v-25.775c0-6.075-4.925-11-11-11s-11 4.925-11 11v25.775c0 12.055 7.394 22.407 17.872 26.752v15.062c0 6.075 4.925 11 11 11s11-4.925 11-11v-15.062c10.478-4.345 17.872-14.698 17.872-26.752v-25.775c0-6.075-4.925-11-11-11z"/><path d="m205.414 183.174v-15.395c10.627-4.36 18.136-14.834 18.136-27.038v-26.157c0-6.075-4.925-11-11-11s-11 4.925-11 11v26.157c0 3.973-3.201 7.206-7.136 7.206s-7.136-3.232-7.136-7.206v-26.157c0-6.075-4.925-11-11-11s-11 4.925-11 11v26.157c0 12.204 7.509 22.677 18.136 27.038v15.395c0 6.075 4.925 11 11 11s11-4.925 11-11z"/><path d="m416.807 176.389-11.301-17.62c7.861-5.241 13.053-14.185 13.053-24.321v-1.651c0-16.108-13.104-29.212-29.212-29.212h-15.273c-6.075 0-11 4.925-11 11v68.589c0 6.075 4.925 11 11 11s11-4.925 11-11v-15.514l13.215 20.606c2.101 3.276 5.647 5.063 9.27 5.063 2.033 0 4.09-.563 5.928-1.742 5.113-3.28 6.6-10.084 3.32-15.198zm-31.734-50.805h4.273c3.91 0 7.212 3.303 7.212 7.212v1.651c0 3.977-3.235 7.213-7.212 7.213h-4.273z"/><path d="m151.853 165.831c0-6.075-4.925-11-11-11s-11 4.925-11 11c0 3.497-2.845 6.342-6.342 6.342h-2.095c-3.294 0-5.974-2.68-5.974-5.975v-34.641c0-3.294 2.68-5.974 5.974-5.974h2.095c3.497 0 6.342 2.845 6.342 6.342 0 6.075 4.925 11 11 11s11-4.925 11-11c0-15.628-12.714-28.342-28.342-28.342h-2.095c-15.425 0-27.974 12.549-27.974 27.974v34.641c0 15.425 12.549 27.975 27.974 27.975h2.095c15.628.001 28.342-12.714 28.342-28.342z"/><path d="m291.645 168.988v-8.608c0-6.49-2.468-12.413-6.514-16.883 1.724-3.39 2.702-7.22 2.702-11.277v-3.661c0-13.771-11.204-24.975-24.975-24.975h-13.835c-6.075 0-11 4.925-11 11v68.589c0 6.075 4.925 11 11 11h17.437c13.887.001 25.185-11.298 25.185-25.185zm-31.622-43.404h2.835c1.613 0 2.975 1.362 2.975 2.975v3.661c0 1.64-1.334 2.975-2.975 2.975h-2.835zm9.622 43.404c0 1.727-1.459 3.186-3.186 3.186h-6.437v-14.979h2.835 3.602c1.727 0 3.186 1.459 3.186 3.186z"/><path d="m349.643 183.174c0-6.075-4.925-11-11-11h-11.353v-12.295h11.353c6.075 0 11-4.925 11-11s-4.925-11-11-11h-11.353v-12.294h11.353c6.075 0 11-4.925 11-11s-4.925-11-11-11h-22.353c-6.075 0-11 4.925-11 11v68.589c0 6.075 4.925 11 11 11h22.353c6.075 0 11-4.925 11-11z"/></g><path d="m512 229.748v-166.242c.031-4.544-2.986-8.838-7.271-10.349l-145.721-52.505c-3.372-1.215-7.122-.71-10.053 1.348-2.932 2.06-4.676 5.418-4.676 9v41.505h-333.279c-6.075 0-11 4.925-11 11v166.242c-.031 4.544 2.986 8.838 7.271 10.349l86.471 31.156h-82.742c-6.075 0-11 4.925-11 11v166.242c-.031 4.544 2.986 8.838 7.271 10.349l145.722 52.505c1.212.437 2.474.651 3.728.651 2.234 0 4.448-.681 6.325-1.999 2.932-2.06 4.676-5.418 4.676-9v-41.505h333.278c6.075 0 11-4.925 11-11v-166.242c.031-4.544-2.986-8.838-7.271-10.349l-86.471-31.156h82.742c6.075 0 11-4.925 11-11zm-145.721-203.092 71.742 25.85h-71.742zm-220.557 458.688-71.742-25.85h71.742zm344.278-47.849h-468v-144.242h468zm-51.979-166.242h-279.378l-84.663-30.505h279.379zm51.979-52.505h-468v-144.242h468z"/></g><g/><g/><g/><g/><g/><g/><g/><g/><g/><g/><g/><g/><g/><g/><g/></svg>