<svg id="Layer_1" enable-background="new 0 0 512 512" viewBox="0 0 512 512" xmlns="http://www.w3.org/2000/svg" fill="#052438"><g><g><g><path d="m256 359.359c-56.992 0-103.359-46.366-103.359-103.358s46.367-103.36 103.359-103.36 103.359 46.367 103.359 103.359-46.367 103.359-103.359 103.359zm0-184.718c-44.861 0-81.359 36.498-81.359 81.359s36.498 81.358 81.359 81.358 81.359-36.497 81.359-81.358-36.498-81.359-81.359-81.359z" fill="#0496FF"/></g><g><path d="m256 314.359c-32.179 0-58.359-26.18-58.359-58.359s26.18-58.359 58.359-58.359c5.986 0 11.896.907 17.565 2.694 3.224 1.017 5.801 3.459 6.989 6.624 1.188 3.164.856 6.699-.901 9.586-2.762 4.537-2.061 10.334 1.703 14.099 3.765 3.764 9.562 4.464 14.099 1.703 2.887-1.757 6.423-2.09 9.587-.901 3.165 1.188 5.606 3.766 6.623 6.99 1.788 5.67 2.694 11.58 2.694 17.563 0 32.18-26.18 58.36-58.359 58.36zm0-94.718c-20.048 0-36.359 16.311-36.359 36.359s16.311 36.359 36.359 36.359 36.359-16.311 36.359-36.359c0-.028 0-.056 0-.084-9.602.828-19.358-2.515-26.559-9.715-7.2-7.2-10.547-16.959-9.715-26.559-.029-.001-.057-.001-.085-.001z" fill="#0496FF"/></g></g><g><g><path d="m461 487h-410c-28.122 0-51-22.878-51-51v-360c0-28.121 22.878-51 51-51h410c28.122 0 51 22.878 51 51v360c0 28.121-22.878 51-51 51zm-410-440c-15.991 0-29 13.01-29 29v360c0 15.99 13.009 29 29 29h410c15.991 0 29-13.009 29-29v-360c0-15.99-13.009-29-29-29z"/></g><g><path d="m61 157.001c-6.075 0-11-4.925-11-11v-60c0-6.075 4.925-11 11-11h60c6.075 0 11 4.925 11 11s-4.925 11-11 11h-49v49c0 6.075-4.924 11-11 11z"/></g><g><path d="m451 437h-60c-6.075 0-11-4.925-11-11s4.925-11 11-11h49v-49c0-6.075 4.925-11 11-11s11 4.925 11 11v60c0 6.075-4.925 11-11 11z"/></g><g><path d="m451 157.001c-6.075 0-11-4.925-11-11v-49h-49c-6.075 0-11-4.925-11-11s4.925-11 11-11h60c6.075 0 11 4.925 11 11v60c0 6.075-4.925 11-11 11z"/></g><g><path d="m121 437h-60c-6.075 0-11-4.925-11-11v-60c0-6.075 4.925-11 11-11s11 4.925 11 11v49h49c6.075 0 11 4.925 11 11s-4.924 11-11 11z"/></g><g><path d="m256 360c-34.978 0-69.307-9.403-99.277-27.193-29.071-17.257-53.367-41.921-70.261-71.328-1.949-3.393-1.949-7.566 0-10.959 16.894-29.406 41.19-54.071 70.261-71.328 29.97-17.789 64.299-27.192 99.277-27.192s69.307 9.403 99.277 27.193c29.071 17.256 53.367 41.921 70.261 71.328 1.949 3.393 1.949 7.566 0 10.959-16.894 29.406-41.19 54.071-70.261 71.328-29.97 17.789-64.299 27.192-99.277 27.192zm-147.179-104c31.677 50.74 87.491 82 147.179 82s115.502-31.26 147.179-82c-31.677-50.74-87.491-82-147.179-82s-115.502 31.26-147.179 82z"/></g></g></g><g/><g/><g/><g/><g/><g/><g/><g/><g/><g/><g/><g/><g/><g/><g/></svg>