<svg id="Capa_1" enable-background="new 0 0 512 512" viewBox="0 0 512 512" xmlns="http://www.w3.org/2000/svg" fill="#052438"><g><g><path d="m478.636 79.463h-445.272c-18.397 0-33.364 14.967-33.364 33.364v286.346c0 18.397 14.967 33.364 33.364 33.364h445.271c18.397 0 33.364-14.967 33.364-33.364v-286.346c.001-18.397-14.966-33.364-33.363-33.364zm11.364 204.963h-33.369c-6.075 0-11 4.925-11 11s4.925 11 11 11h33.369v25.161h-34.761c-6.075 0-11 4.925-11 11s4.925 11 11 11h34.761v45.586c0 6.266-5.098 11.364-11.364 11.364h-93.84v-56.638c0-6.075-4.925-11-11-11s-11 4.925-11 11v56.638h-25.161v-56.638c0-6.075-4.925-11-11-11s-11 4.925-11 11v56.638h-282.271c-6.266 0-11.364-5.098-11.364-11.364v-45.586h222.633c6.075 0 11-4.925 11-11s-4.925-11-11-11h-222.633v-25.161h223.734c6.075 0 11-4.925 11-11s-4.925-11-11-11h-223.734v-171.599c0-6.266 5.098-11.364 11.364-11.364h282.271v184.069c0 6.075 4.925 11 11 11s11-4.925 11-11v-184.069h25.161v184.069c0 6.075 4.925 11 11 11s11-4.925 11-11v-184.069h93.84c6.266 0 11.364 5.098 11.364 11.364z"/><path d="m114.955 155.05-60.232 60.232c-4.295 4.296-4.295 11.261 0 15.557 2.148 2.148 4.963 3.222 7.778 3.222s5.63-1.074 7.778-3.222l60.232-60.232c4.295-4.296 4.295-11.261 0-15.557s-11.26-4.296-15.556 0z"/><path d="m278.63 203.947h-112.035c-6.075 0-11 4.925-11 11s4.925 11 11 11h112.035c6.075 0 11-4.925 11-11s-4.924-11-11-11z"/><path d="m278.63 159.942h-112.035c-6.075 0-11 4.925-11 11s4.925 11 11 11h112.035c6.075 0 11-4.925 11-11s-4.924-11-11-11z"/><circle cx="122.73" cy="222.917" r="11"/><circle cx="62.5" cy="162.83" r="11"/></g><path d="m453.854 267.345c-4.934-8.593-13.312-14.756-22.984-16.908-9.672-2.153-19.872-.124-27.984 5.566l-27.913 19.577c-7.306-4.181-15.753-6.585-24.757-6.585s-17.452 2.404-24.757 6.585l-27.913-19.577c-8.112-5.689-18.312-7.722-27.984-5.566-9.672 2.152-18.05 8.314-22.984 16.908-18.298 31.866-18.298 71.457 0 103.322 4.934 8.593 13.312 14.756 22.984 16.908 2.531.563 5.097.84 7.653.84 7.213 0 14.341-2.206 20.331-6.406l27.913-19.577c7.306 4.181 15.753 6.585 24.757 6.585s17.451-2.404 24.757-6.585l27.913 19.577c5.99 4.201 13.117 6.406 20.331 6.406 2.555 0 5.123-.277 7.653-.84 9.672-2.152 18.05-8.314 22.984-16.908 18.298-31.865 18.298-71.456 0-103.322zm-168.941 96.653c-3.109 2.181-6.864 2.93-10.573 2.103-3.708-.825-6.792-3.094-8.684-6.388-14.417-25.108-14.417-56.304 0-81.412 1.892-3.294 4.976-5.563 8.684-6.388 3.708-.827 7.462-.079 10.573 2.103l23.999 16.832c-5.489 8.026-8.707 17.723-8.707 28.159s3.218 20.133 8.707 28.159zm37.292-44.992c0-15.445 12.565-28.011 28.011-28.011s28.011 12.565 28.011 28.011-12.565 28.011-28.011 28.011-28.011-12.565-28.011-28.011zm112.57 40.706c-1.892 3.294-4.976 5.563-8.684 6.388-3.708.824-7.463.078-10.573-2.103l-23.999-16.832c5.489-8.026 8.707-17.723 8.707-28.159s-3.218-20.133-8.707-28.159l23.999-16.832c3.11-2.181 6.866-2.929 10.573-2.103 3.708.825 6.792 3.094 8.684 6.388 14.418 25.109 14.418 56.304 0 81.412z" fill="#0496FF"/></g><g/><g/><g/><g/><g/><g/><g/><g/><g/><g/><g/><g/><g/><g/><g/></svg>