<svg id="Layer_1" enable-background="new 0 0 512 512" viewBox="0 0 512 512" xmlns="http://www.w3.org/2000/svg" fill="#E6ECF2"><g><g><path d="m508.779 242.096-36.75-36.75c-2.063-2.063-4.861-3.222-7.778-3.222h-234.346c-20.396-41.166-62.271-67.375-108.654-67.375-66.858.001-121.251 54.394-121.251 121.251s54.393 121.25 121.25 121.25c46.384 0 88.26-26.209 108.655-67.375h46.92c4.166 0 7.976-2.354 9.839-6.081l9.209-18.419h23.153l9.21 18.419c1.863 3.727 5.673 6.081 9.839 6.081h30.625c4.166 0 7.976-2.354 9.839-6.081l9.209-18.419h23.153l9.21 18.419c1.863 3.727 5.673 6.081 9.839 6.081h34.3c2.917 0 5.715-1.159 7.778-3.222l36.75-36.749c2.063-2.063 3.222-4.861 3.222-7.778v-12.251c0-2.918-1.159-5.716-3.221-7.779zm-18.779 15.473-30.307 30.306h-22.944l-9.21-18.419c-1.863-3.727-5.673-6.081-9.839-6.081h-36.75c-4.166 0-7.976 2.354-9.839 6.081l-9.21 18.419h-17.027l-9.21-18.419c-1.863-3.727-5.673-6.081-9.839-6.081h-36.75c-4.166 0-7.976 2.354-9.839 6.081l-9.21 18.419h-47.174c-4.421 0-8.412 2.646-10.133 6.719-15.568 36.848-51.473 60.657-91.47 60.657-54.725-.001-99.249-44.524-99.249-99.251s44.523-99.25 99.25-99.25c39.997 0 75.9 23.809 91.469 60.656 1.721 4.072 5.712 6.719 10.133 6.719h236.842l30.306 30.306z"/><path d="m256 179.125c6.075 0 11-4.925 11-11v-107.125c0-6.075-4.925-11-11-11s-11 4.925-11 11v107.125c0 6.076 4.925 11 11 11z"/><path d="m256 332.875c-6.075 0-11 4.925-11 11v107.125c0 6.075 4.925 11 11 11s11-4.925 11-11v-107.125c0-6.075-4.925-11-11-11z"/><path d="m329.06 179.125c6.075 0 11-4.925 11-11v-45.584l21.44-12.378c3.403-1.965 5.5-5.596 5.5-9.526v-39.637c0-6.075-4.925-11-11-11s-11 4.925-11 11v33.285l-21.44 12.378c-3.403 1.965-5.5 5.596-5.5 9.526v51.936c0 6.076 4.925 11 11 11z"/><path d="m361.5 401.837-21.44-12.378v-45.584c0-6.075-4.925-11-11-11s-11 4.925-11 11v51.935c0 3.93 2.097 7.562 5.5 9.526l21.44 12.379v33.285c0 6.075 4.925 11 11 11s11-4.925 11-11v-39.637c0-3.929-2.096-7.561-5.5-9.526z"/><path d="m429.06 179.125c6.075 0 11-4.925 11-11v-45.585l21.439-12.378c3.403-1.965 5.5-5.597 5.5-9.526v-39.636c0-6.075-4.925-11-11-11s-11 4.925-11 11v33.286l-21.439 12.378c-3.403 1.965-5.5 5.597-5.5 9.526v51.936c0 6.075 4.925 10.999 11 10.999z"/><path d="m461.499 401.837-21.439-12.378v-45.584c0-6.075-4.925-11-11-11s-11 4.925-11 11v51.935c0 3.93 2.097 7.562 5.5 9.526l21.439 12.378v33.286c0 6.075 4.925 11 11 11s11-4.925 11-11v-39.637c0-3.929-2.096-7.56-5.5-9.526z"/><path d="m150.5 90.163 21.439 12.378v10.987c0 6.075 4.925 11 11 11s11-4.925 11-11v-17.338c0-3.93-2.097-7.562-5.5-9.526l-21.439-12.378v-13.286c0-6.075-4.925-11-11-11s-11 4.925-11 11v19.636c0 3.93 2.097 7.562 5.5 9.527z"/><path d="m182.94 387.472c-6.075 0-11 4.925-11 11v10.988l-21.44 12.378c-3.403 1.965-5.5 5.597-5.5 9.526v19.636c0 6.075 4.925 11 11 11s11-4.925 11-11v-13.286l21.439-12.378c3.403-1.965 5.5-5.597 5.5-9.526v-17.338c.001-6.075-4.924-11-10.999-11z"/><path d="m50.5 90.163 21.44 12.378v2.98c0 6.075 4.925 11 11 11s11-4.925 11-11v-9.331c0-3.93-2.097-7.562-5.5-9.526l-21.44-12.379v-13.285c0-6.075-4.925-11-11-11s-11 4.925-11 11v19.636c0 3.93 2.097 7.562 5.5 9.527z"/><path d="m82.941 395.479c-6.075 0-11 4.925-11 11v2.98l-21.441 12.379c-3.403 1.965-5.5 5.596-5.5 9.526v19.636c0 6.075 4.925 11 11 11s11-4.925 11-11v-13.285l21.44-12.378c3.403-1.965 5.5-5.596 5.5-9.526v-9.331c.001-6.076-4.924-11.001-10.999-11.001z"/></g><g><g><path d="m56.001 67c-18.472 0-33.501-15.028-33.501-33.5s15.029-33.5 33.501-33.5 33.499 15.028 33.499 33.5-15.027 33.5-33.499 33.5zm0-45c-6.342 0-11.501 5.159-11.501 11.5s5.159 11.5 11.501 11.5c6.341 0 11.499-5.159 11.499-11.5s-5.158-11.5-11.499-11.5z" fill="#0496FF"/></g><g><path d="m56 512c-18.472 0-33.5-15.028-33.5-33.5s15.029-33.5 33.5-33.5 33.5 15.028 33.5 33.5-15.028 33.5-33.5 33.5zm0-45c-6.341 0-11.5 5.159-11.5 11.5s5.159 11.5 11.5 11.5 11.5-5.159 11.5-11.5-5.159-11.5-11.5-11.5z" fill="#0496FF"/></g><g><path d="m156 67c-18.472 0-33.5-15.028-33.5-33.5s15.029-33.5 33.5-33.5 33.5 15.028 33.5 33.5-15.028 33.5-33.5 33.5zm0-45c-6.341 0-11.5 5.159-11.5 11.5s5.159 11.5 11.5 11.5 11.5-5.159 11.5-11.5-5.159-11.5-11.5-11.5z" fill="#0496FF"/></g><g><path d="m156 512c-18.472 0-33.5-15.028-33.5-33.5s15.029-33.5 33.5-33.5 33.5 15.028 33.5 33.5-15.028 33.5-33.5 33.5zm0-45c-6.341 0-11.5 5.159-11.5 11.5s5.159 11.5 11.5 11.5 11.5-5.159 11.5-11.5-5.159-11.5-11.5-11.5z" fill="#0496FF"/></g><g><path d="m256 67c-18.472 0-33.5-15.028-33.5-33.5s15.029-33.5 33.5-33.5 33.5 15.028 33.5 33.5-15.028 33.5-33.5 33.5zm0-45c-6.341 0-11.5 5.159-11.5 11.5s5.159 11.5 11.5 11.5 11.5-5.159 11.5-11.5-5.159-11.5-11.5-11.5z" fill="#0496FF"/></g><g><path d="m256 512c-18.472 0-33.5-15.028-33.5-33.5s15.029-33.5 33.5-33.5 33.5 15.028 33.5 33.5-15.028 33.5-33.5 33.5zm0-45c-6.341 0-11.5 5.159-11.5 11.5s5.159 11.5 11.5 11.5 11.5-5.159 11.5-11.5-5.159-11.5-11.5-11.5z" fill="#0496FF"/></g><g><path d="m356 67c-18.472 0-33.5-15.028-33.5-33.5s15.029-33.5 33.5-33.5 33.5 15.028 33.5 33.5-15.028 33.5-33.5 33.5zm0-45c-6.341 0-11.5 5.159-11.5 11.5s5.159 11.5 11.5 11.5 11.5-5.159 11.5-11.5-5.159-11.5-11.5-11.5z" fill="#0496FF"/></g><g><path d="m356 512c-18.472 0-33.5-15.028-33.5-33.5s15.029-33.5 33.5-33.5 33.5 15.028 33.5 33.5-15.028 33.5-33.5 33.5zm0-45c-6.341 0-11.5 5.159-11.5 11.5s5.159 11.5 11.5 11.5 11.5-5.159 11.5-11.5-5.159-11.5-11.5-11.5z" fill="#0496FF"/></g><g><path d="m456 67c-18.473 0-33.501-15.028-33.501-33.5s15.029-33.5 33.501-33.5 33.499 15.028 33.499 33.5-15.027 33.5-33.499 33.5zm0-45c-6.342 0-11.501 5.159-11.501 11.5s5.159 11.5 11.501 11.5c6.341 0 11.499-5.159 11.499-11.5s-5.158-11.5-11.499-11.5z" fill="#0496FF"/></g><g><path d="m455.999 512c-18.472 0-33.5-15.028-33.5-33.5s15.028-33.5 33.5-33.5 33.5 15.028 33.5 33.5-15.028 33.5-33.5 33.5zm0-45c-6.341 0-11.5 5.159-11.5 11.5s5.159 11.5 11.5 11.5 11.5-5.159 11.5-11.5-5.159-11.5-11.5-11.5z" fill="#0496FF"/></g><g><path d="m93.688 294.563c-21.264 0-38.563-17.299-38.563-38.563 0-21.263 17.299-38.562 38.563-38.562s38.562 17.299 38.562 38.562c0 21.264-17.299 38.563-38.562 38.563zm0-55.125c-9.133 0-16.563 7.43-16.563 16.562 0 9.133 7.43 16.563 16.563 16.563s16.563-7.43 16.563-16.563c-.001-9.132-7.43-16.562-16.563-16.562z" fill="#0496FF"/></g></g></g><g/><g/><g/><g/><g/><g/><g/><g/><g/><g/><g/><g/><g/><g/><g/></svg>