<svg id="Capa_1" enable-background="new 0 0 512 512" viewBox="0 0 512 512" xmlns="http://www.w3.org/2000/svg" fill="#052438"><g><g><path d="m487.571 389.59h-6.567v-258.892c0-18.013-14.654-32.667-32.667-32.667h-78.64c-6.075 0-11 4.925-11 11s4.925 11 11 11h78.64c5.882 0 10.667 4.786 10.667 10.667v258.892h-406.008v-258.892c0-5.882 4.785-10.667 10.667-10.667h74.622c6.075 0 11-4.925 11-11s-4.925-11-11-11h-74.622c-18.013 0-32.667 14.655-32.667 32.667v258.892h-6.567c-13.471 0-24.429 10.959-24.429 24.429v5.137c0 30.384 24.719 55.103 55.103 55.103h401.794c30.384 0 55.103-24.719 55.103-55.103v-5.137c0-13.47-10.958-24.429-24.429-24.429zm2.429 29.566c0 18.253-14.85 33.103-33.103 33.103h-401.794c-18.253 0-33.103-14.85-33.103-33.103v-5.137c0-1.339 1.089-2.429 2.429-2.429h463.143c1.339 0 2.429 1.089 2.429 2.429v5.137z"/><path d="m212.656 275.456h87.041c14.82 0 26.877-12.057 26.877-26.877v-59.206c0-13.39-9.843-24.522-22.673-26.546v-33.286c0-22.21-18.069-40.28-40.279-40.28h-14.891c-22.21 0-40.279 18.069-40.279 40.28 0 6.075 4.925 11 11 11s11-4.925 11-11c0-10.08 8.2-18.28 18.279-18.28h14.891c10.079 0 18.279 8.2 18.279 18.28v32.955h-69.245c-14.82 0-26.877 12.057-26.877 26.877v59.206c0 14.82 12.057 26.877 26.877 26.877zm-4.877-86.083c0-2.689 2.188-4.877 4.877-4.877h87.041c2.689 0 4.877 2.188 4.877 4.877v59.206c0 2.689-2.188 4.877-4.877 4.877h-87.041c-2.689 0-4.877-2.188-4.877-4.877z"/><path d="m256 238.507c6.075 0 11-4.925 11-11v-16.063c0-6.075-4.925-11-11-11s-11 4.925-11 11v16.063c0 6.075 4.925 11 11 11z"/></g><path d="m425.626 305.004-43.817-43.817c33.778-56.749 26.281-131.421-22.504-180.206-57.654-57.652-151.461-57.653-209.113 0-27.928 27.928-43.309 65.06-43.309 104.556s15.381 76.628 43.309 104.557c28.827 28.826 66.691 43.239 104.557 43.239 26.365 0 52.726-6.996 76.039-20.971l43.741 43.741c7.044 7.044 16.296 10.565 25.549 10.565s18.505-3.521 25.549-10.565c14.086-14.089 14.086-37.011-.001-51.099zm-259.878-30.467c-23.773-23.772-36.865-55.38-36.865-89s13.092-65.227 36.865-89c24.537-24.538 56.769-36.806 89-36.806s64.463 12.269 89 36.806c49.075 49.074 49.075 128.925 0 178-49.074 49.075-128.926 49.075-178 0zm244.321 66.009c-2.669 2.669-6.218 4.139-9.993 4.139-3.774 0-7.323-1.47-9.992-4.139l-41.082-41.082c3.543-2.935 6.985-6.053 10.302-9.37 3.424-3.424 6.638-6.979 9.655-10.643l41.11 41.11c2.669 2.669 4.139 6.218 4.139 9.992 0 3.775-1.469 7.324-4.139 9.993z" fill="#0496FF"/></g><g/><g/><g/><g/><g/><g/><g/><g/><g/><g/><g/><g/><g/><g/><g/></svg>