<svg id="Capa_1" enable-background="new 0 0 512 512" viewBox="0 0 512 512" xmlns="http://www.w3.org/2000/svg" fill="#052438"><g><g><g><path d="m288.5 47h-68.75c-6.075 0-11-4.925-11-11s4.925-11 11-11h68.75c6.075 0 11 4.925 11 11s-4.925 11-11 11z" fill="#0496FF"/></g><g><path d="m159.75 47h-68.75c-6.075 0-11-4.925-11-11s4.925-11 11-11h68.75c6.075 0 11 4.925 11 11s-4.924 11-11 11z" fill="#0496FF"/></g><g><path d="m291 294.5h-71.25c-6.075 0-11-4.925-11-11s4.925-11 11-11h71.25c6.075 0 11 4.925 11 11s-4.925 11-11 11z" fill="#0496FF"/></g><g><path d="m159.75 294.5h-68.75c-6.075 0-11-4.925-11-11s4.925-11 11-11h68.75c6.075 0 11 4.925 11 11s-4.924 11-11 11z" fill="#0496FF"/></g><g><path d="m81.643 274.661c-2.889 0-5.772-1.13-7.932-3.377-4.21-4.38-4.072-11.343.308-15.553l87.729-84.323c4.379-4.21 11.343-4.072 15.553.308s4.072 11.343-.308 15.553l-87.729 84.323c-2.133 2.05-4.879 3.069-7.621 3.069z" fill="#0496FF"/></g><g><path d="m209.949 151.336c-2.889 0-5.772-1.13-7.932-3.377-4.21-4.38-4.072-11.343.308-15.553l87.855-84.443c4.38-4.21 11.344-4.071 15.553.308 4.21 4.38 4.072 11.343-.308 15.553l-87.855 84.443c-2.132 2.05-4.879 3.069-7.621 3.069z" fill="#0496FF"/></g></g><g><g><path d="m396 512h-20c-50.178 0-91-40.822-91-91v-137.5c0-18.472 15.028-33.5 33.5-33.5s33.5 15.028 33.5 33.5v43.535c3.588-1.315 7.461-2.034 11.5-2.034 8.652 0 16.549 3.298 22.5 8.701 5.951-5.403 13.848-8.701 22.5-8.701s16.549 3.298 22.5 8.701c5.951-5.403 13.848-8.701 22.5-8.701 18.472 0 33.5 15.028 33.5 33.5v62.499c0 50.178-40.822 91-91 91zm-77.5-240c-6.341 0-11.5 5.159-11.5 11.5v137.5c0 38.047 30.953 69 69 69h20c38.047 0 69-30.953 69-69v-62.5c0-6.341-5.159-11.5-11.5-11.5s-11.5 5.159-11.5 11.5c0 6.075-4.925 11-11 11s-11-4.925-11-11c0-6.341-5.159-11.5-11.5-11.5s-11.5 5.159-11.5 11.5c0 6.075-4.925 11-11 11s-11-4.925-11-11c0-6.341-5.159-11.5-11.5-11.5s-11.5 5.159-11.5 11.5c0 6.075-4.925 11-11 11s-11-4.925-11-11v-75c0-6.341-5.159-11.5-11.5-11.5z"/></g><g><path d="m318.5 72c-19.851 0-36-16.149-36-36s16.149-36 36-36 36 16.149 36 36c0 19.85-16.149 36-36 36zm0-50c-7.72 0-14 6.28-14 14 0 7.719 6.28 14 14 14s14-6.28 14-14-6.28-14-14-14z"/></g><g><path d="m189.75 72c-19.851 0-36-16.149-36-36s16.149-36 36-36c19.85 0 36 16.149 36 36 0 19.85-16.149 36-36 36zm0-50c-7.72 0-14 6.28-14 14 0 7.719 6.28 14 14 14 7.719 0 14-6.28 14-14s-6.28-14-14-14z"/></g><g><path d="m61.001 72c-19.851 0-36.001-16.15-36.001-36 0-19.851 16.15-36 36.001-36 19.85 0 36 16.149 36 36-.001 19.85-16.15 36-36 36zm0-50c-7.72 0-14.001 6.28-14.001 14 0 7.719 6.281 14 14.001 14 7.719 0 14-6.28 14-14-.001-7.72-6.281-14-14-14z"/></g><g><path d="m61.001 319.5c-19.851 0-36.001-16.15-36.001-36s16.15-36 36.001-36c19.85 0 36 16.149 36 36s-16.15 36-36 36zm0-50c-7.72 0-14.001 6.28-14.001 14s6.281 14 14.001 14c7.719 0 14-6.28 14-14s-6.281-14-14-14z"/></g><g><path d="m189.75 319.5c-19.851 0-36-16.149-36-36s16.149-36 36-36c19.85 0 36 16.149 36 36s-16.149 36-36 36zm0-50c-7.72 0-14 6.28-14 14s6.28 14 14 14c7.719 0 14-6.28 14-14s-6.28-14-14-14z"/></g><g><path d="m61.001 195.75c-19.851 0-36.001-16.15-36.001-36s16.15-36 36.001-36c19.85 0 36 16.149 36 36-.001 19.85-16.15 36-36 36zm0-50c-7.72 0-14.001 6.28-14.001 14s6.281 14 14.001 14c7.719 0 14-6.28 14-14-.001-7.72-6.281-14-14-14z"/></g><g><path d="m318.5 195.75c-19.851 0-36-16.149-36-36 0-19.85 16.149-36 36-36s36 16.149 36 36c0 19.85-16.149 36-36 36zm0-50c-7.72 0-14 6.28-14 14s6.28 14 14 14 14-6.28 14-14-6.28-14-14-14z"/></g><g><path d="m189.75 195.75c-19.851 0-36-16.149-36-36 0-19.85 16.149-36 36-36 19.85 0 36 16.149 36 36 0 19.85-16.149 36-36 36zm0-50c-7.72 0-14 6.28-14 14s6.28 14 14 14c7.719 0 14-6.28 14-14s-6.28-14-14-14z"/></g></g></g><g/><g/><g/><g/><g/><g/><g/><g/><g/><g/><g/><g/><g/><g/><g/></svg>