<svg id="Capa_1" enable-background="new 0 0 512 512" height="512" viewBox="0 0 512 512" width="512" xmlns="http://www.w3.org/2000/svg" fill="#052438"><g><path d="m501 377.158h-9.332v-304.146c0-22.882-18.616-41.498-41.498-41.498h-388.34c-22.882 0-41.498 18.616-41.498 41.498v304.146h-9.332c-6.075 0-11 4.925-11 11v20.332c0 39.699 32.297 71.996 71.996 71.996h368.008c39.699 0 71.996-32.297 71.996-71.996v-20.332c0-6.075-4.925-11-11-11zm-458.668-304.146c0-10.751 8.747-19.498 19.498-19.498h388.34c10.751 0 19.498 8.747 19.498 19.498v304.146h-132.34c-2.917 0-5.715 1.159-7.778 3.222l-17.11 17.11h-112.879l-17.11-17.11c-2.063-2.063-4.861-3.222-7.778-3.222h-132.341zm447.668 335.478c0 27.568-22.428 49.996-49.996 49.996h-368.008c-27.568-.001-49.996-22.428-49.996-49.996v-9.332h148.116l17.11 17.11c2.063 2.062 4.861 3.222 7.778 3.222h121.992c2.917 0 5.715-1.159 7.778-3.222l17.11-17.11h148.116z"/><g fill="#0496FF"><path d="m327.996 185.896v-31.556c0-39.699-32.297-71.996-71.996-71.996s-71.996 32.297-71.996 71.996v31.556c-11.853 4.358-20.332 15.761-20.332 29.108v102.324c0 17.093 13.907 31 31 31h122.655c17.093 0 31-13.907 31-31v-102.324c.001-13.346-8.478-24.75-20.331-29.108zm-71.996-81.552c27.568 0 49.996 22.428 49.996 49.996v29.664h-99.992v-29.664c0-27.568 22.428-49.996 49.996-49.996zm70.328 212.984c0 4.962-4.038 9-9 9h-122.656c-4.962 0-9-4.038-9-9v-102.324c0-4.962 4.038-9 9-9h122.655c4.962 0 9 4.038 9 9v102.324z"/><path d="m280.57 236.822-35.353 35.353-13.787-13.788c-4.296-4.296-11.261-4.296-15.557 0-4.295 4.296-4.295 11.261 0 15.557l21.565 21.565c2.148 2.148 4.963 3.222 7.778 3.222s5.63-1.074 7.778-3.222l43.131-43.131c4.295-4.296 4.295-11.261 0-15.557-4.294-4.295-11.259-4.295-15.555.001z"/></g></g></svg>