<svg id="Capa_1" enable-background="new 0 0 512 512" viewBox="0 0 512 512" xmlns="http://www.w3.org/2000/svg" fill="#052438"><g><path d="m397.726 17.657c-18.085 0-32.799 14.713-32.799 32.799 0 5.745 1.489 11.147 4.095 15.848l-25.237 28.531c-4.25-2.015-8.996-3.147-14.003-3.147s-9.754 1.132-14.003 3.147l-25.237-28.531c2.606-4.701 4.095-10.103 4.095-15.848 0-18.085-14.714-32.799-32.799-32.799s-32.799 14.713-32.799 32.799c0 5.531 1.382 10.743 3.809 15.319l-26.166 28.51c-3.932-1.671-8.254-2.597-12.789-2.597-18.085 0-32.799 14.713-32.799 32.799 0 5.531 1.382 10.743 3.809 15.319l-26.166 28.51c-3.932-1.671-8.254-2.597-12.789-2.597-18.085 0-32.799 14.714-32.799 32.799s14.713 32.799 32.799 32.799 32.799-14.713 32.799-32.799c0-5.531-1.382-10.743-3.809-15.319l26.166-28.51c3.932 1.671 8.254 2.597 12.788 2.597 18.085 0 32.799-14.714 32.799-32.799 0-5.531-1.382-10.743-3.809-15.319l26.166-28.51c3.932 1.671 8.254 2.597 12.789 2.597 4.321 0 8.446-.848 12.227-2.373l26.105 29.513c-2.041 4.272-3.187 9.05-3.187 14.092 0 18.085 14.713 32.799 32.799 32.799s32.799-14.714 32.799-32.799c0-5.042-1.146-9.82-3.187-14.092l26.105-29.512c3.781 1.525 7.906 2.373 12.227 2.373 18.085 0 32.799-14.714 32.799-32.799s-14.712-32.8-32.798-32.8zm-271.777 191.66c-5.955 0-10.799-4.844-10.799-10.799s4.844-10.799 10.799-10.799 10.799 4.845 10.799 10.799-4.845 10.799-10.799 10.799zm67.944-74.031c-5.955 0-10.799-4.845-10.799-10.799s4.844-10.799 10.799-10.799 10.799 4.844 10.799 10.799-4.844 10.799-10.799 10.799zm57.146-84.83c0-5.955 4.844-10.799 10.799-10.799s10.799 4.844 10.799 10.799-4.845 10.799-10.799 10.799-10.799-4.844-10.799-10.799zm78.743 84.83c-5.955 0-10.799-4.845-10.799-10.799s4.844-10.799 10.799-10.799 10.799 4.844 10.799 10.799-4.845 10.799-10.799 10.799zm67.944-74.031c-5.955 0-10.799-4.845-10.799-10.799s4.844-10.799 10.799-10.799 10.799 4.844 10.799 10.799-4.844 10.799-10.799 10.799z" fill="#0496FF"/><path d="m508.333 460.669c-.636-.577-35.314-31.582-35.314-31.582-4.53-4.051-11.483-3.662-15.532.866-4.05 4.528-3.662 11.482.866 15.532l12.66 11.322h-28.315v-274.552c0-6.075-4.925-11-11-11h-67.944c-6.075 0-11 4.925-11 11v56.944h-45.944v-56.944c0-6.075-4.925-11-11-11h-67.944c-6.075 0-11 4.925-11 11v56.944h-56.944c-6.075 0-11 4.925-11 11v56.944h-56.945c-6.075 0-11 4.925-11 11v138.665h-25.748v-418.066l14.218 15.11c2.165 2.3 5.085 3.462 8.013 3.462 2.703 0 5.412-.99 7.536-2.989 4.424-4.163 4.636-11.125.473-15.549l-33.229-35.314c-2.079-2.209-4.977-3.462-8.011-3.462s-5.932 1.253-8.011 3.462l-33.229 35.314c-4.163 4.424-3.951 11.386.473 15.549s11.386 3.952 15.549-.473l14.218-15.11v64.568h-12.228c-6.075 0-11 4.925-11 11s4.925 11 11 11h12.228v45.944h-12.228c-6.075 0-11 4.925-11 11s4.925 11 11 11h12.228v45.944h-12.228c-6.075 0-11 4.925-11 11s4.925 11 11 11h12.228v45.944h-12.228c-6.075 0-11 4.925-11 11s4.925 11 11 11h12.228v45.944h-12.228c-6.075 0-11 4.925-11 11s4.925 11 11 11h12.228v59.72h-22.229c-6.075 0-11 4.925-11 11s4.925 11 11 11h22.229v22.194c0 6.075 4.925 11 11 11s11-4.925 11-11v-22.192h59.72v12.228c0 6.075 4.925 11 11 11s11-4.925 11-11v-12.228h45.944v12.228c0 6.075 4.925 11 11 11s11-4.925 11-11v-12.228h45.944v12.228c0 6.075 4.925 11 11 11s11-4.925 11-11v-12.228h45.944v12.228c0 6.075 4.925 11 11 11s11-4.925 11-11v-12.228h45.944v12.228c0 6.075 4.925 11 11 11s11-4.925 11-11v-12.228h64.659l-15.032 13.444c-4.528 4.05-4.916 11.004-.866 15.532 2.173 2.43 5.181 3.667 8.203 3.667 2.61 0 5.23-.924 7.329-2.801l35.314-31.583c2.333-2.087 3.667-5.069 3.667-8.199s-1.333-6.112-3.666-8.199zm-87.635-267.414v263.553h-45.944v-263.553zm-67.944 67.944v195.609h-45.944v-195.609zm-67.944-67.944v263.553h-45.944v-263.553zm-67.945 67.944v195.609h-45.944v-195.609zm-113.888 67.945h45.944v127.665h-45.944z"/></g><g/><g/><g/><g/><g/><g/><g/><g/><g/><g/><g/><g/><g/><g/><g/></svg>