<svg id="Capa_1" enable-background="new 0 0 512 512" viewBox="0 0 512 512" xmlns="http://www.w3.org/2000/svg" fill="#E6ECF2"><g><g fill="#0496FF"><path d="m369.455 430.277c-24.194 15.789-50.751 26.124-79.045 30.817-4.141-10.276-12.747-18.291-23.41-21.609v-61.631c0-6.075-4.925-11-11-11s-11 4.925-11 11v61.631c-10.665 3.318-19.272 11.335-23.412 21.613-29.043-4.854-57.078-15.968-81.544-32.426-5.042-3.391-11.877-2.053-15.267 2.987-3.391 5.041-2.054 11.876 2.987 15.267 27.586 18.557 59.276 30.987 92.071 36.188 3.745 16.515 18.533 28.886 36.165 28.886 17.635 0 32.425-12.376 36.166-28.896 32.003-5.041 62.017-16.59 89.312-34.404 5.088-3.32 6.521-10.136 3.2-15.224-3.318-5.086-10.134-6.52-15.223-3.199zm-113.455 59.723c-8.321 0-15.09-6.77-15.09-15.09s6.77-15.09 15.09-15.09 15.09 6.77 15.09 15.09-6.77 15.09-15.09 15.09z"/><path d="m154.133 73.128c1.727 0 3.48-.408 5.114-1.269 19.61-10.322 40.541-17.358 62.333-20.977 4.137 10.288 12.749 18.312 23.42 21.633v61.822c0 6.075 4.925 11 11 11s11-4.925 11-11v-61.822c10.667-3.319 19.276-11.339 23.415-21.621 21.842 3.635 42.817 10.703 62.464 21.073 1.638.865 3.395 1.274 5.125 1.274 3.949 0 7.767-2.133 9.738-5.868 2.835-5.373.778-12.027-4.594-14.862-22.298-11.769-46.143-19.687-70.981-23.611-3.74-16.522-18.53-28.9-36.167-28.9-17.632 0-32.42 12.372-36.165 28.887-24.782 3.907-48.577 11.789-70.835 23.505-5.376 2.83-7.44 9.481-4.61 14.857 1.969 3.742 5.789 5.879 9.743 5.879zm101.867-51.128c8.32 0 15.09 6.77 15.09 15.09s-6.77 15.09-15.09 15.09c-8.321 0-15.09-6.77-15.09-15.09s6.769-15.09 15.09-15.09z"/><path d="m50.852 290.432c10.302-4.132 18.339-12.75 21.663-23.432h61.759c6.075 0 11-4.925 11-11s-4.925-11-11-11h-61.759c-3.324-10.682-11.361-19.299-21.662-23.432 3.596-21.615 10.554-42.388 20.746-61.86 2.817-5.382.738-12.029-4.645-14.847-5.382-2.816-12.029-.738-14.847 4.645-11.575 22.113-19.374 45.743-23.254 70.337-16.498 3.757-28.853 18.537-28.853 36.157s12.354 32.399 28.853 36.157c3.86 24.458 11.595 47.967 23.066 69.978 1.961 3.764 5.794 5.918 9.764 5.918 1.712 0 3.451-.401 5.075-1.248 5.387-2.808 7.479-9.451 4.671-14.839-10.1-19.379-17.002-40.042-20.577-61.534zm-28.852-34.432c0-8.321 6.77-15.09 15.09-15.09s15.09 6.77 15.09 15.09-6.77 15.09-15.09 15.09-15.09-6.769-15.09-15.09z"/><path d="m512 256c0-17.65-12.396-32.449-28.935-36.176-3.91-24.767-11.792-48.55-23.499-70.792-2.829-5.375-9.479-7.44-14.857-4.61-5.376 2.83-7.439 9.482-4.609 14.858 10.319 19.602 17.353 40.53 20.974 62.317-10.266 4.144-18.272 12.746-21.588 23.402h-61.924c-6.075 0-11 4.925-11 11s4.925 11 11 11h61.924c3.314 10.65 11.312 19.248 21.569 23.395-4.881 29.187-16.08 57.343-32.674 81.896-3.402 5.033-2.08 11.871 2.953 15.273 1.889 1.276 4.03 1.887 6.15 1.887 3.53 0 6.998-1.696 9.123-4.841 18.706-27.675 31.227-59.489 36.459-92.435 16.539-3.725 28.934-18.525 28.934-36.174zm-37.09 15.09c-8.321 0-15.091-6.77-15.091-15.09s6.77-15.09 15.091-15.09c8.32 0 15.09 6.77 15.09 15.09s-6.77 15.09-15.09 15.09z"/></g><g><path d="m297.525 216.252v-10.585c0-17.862-14.531-32.394-32.394-32.394h-18.343c-17.862 0-32.393 14.532-32.393 32.394v10.585c-14.847.402-26.803 12.596-26.803 27.539v52.772c0 15.196 12.362 27.558 27.558 27.558h81.62c15.196 0 27.559-12.362 27.559-27.558v-52.772c0-14.943-11.956-27.137-26.804-27.539zm-61.129-10.585c0-5.731 4.662-10.394 10.393-10.394h18.343c5.731 0 10.394 4.663 10.394 10.394v10.565h-39.129v-10.565zm65.933 90.896c0 3.065-2.493 5.558-5.559 5.558h-81.62c-3.064 0-5.558-2.493-5.558-5.558v-52.772c0-3.065 2.493-5.558 5.558-5.558h81.62c3.065 0 5.559 2.493 5.559 5.558z"/><path d="m255.961 124.518c-72.5 0-131.482 58.982-131.482 131.482s58.983 131.482 131.482 131.482 131.481-58.982 131.481-131.482-58.982-131.482-131.481-131.482zm0 240.964c-60.369 0-109.482-49.113-109.482-109.482s49.114-109.482 109.482-109.482 109.481 49.113 109.481 109.482-49.113 109.482-109.481 109.482z"/><path d="m83.718 167.33c46.003 0 83.429-37.342 83.429-83.242s-37.426-83.241-83.429-83.241-83.43 37.342-83.43 83.242 37.426 83.241 83.43 83.241zm28.451-28.991c6.849-12.357 11.093-27.097 12.278-43.251h19.687c-3.436 18.807-15.508 34.638-31.965 43.251zm31.966-65.251h-19.983c-1.632-16.138-6.359-31.247-13.737-44.148 17.353 8.384 30.161 24.677 33.72 44.148zm-60.384-43.982c9.645 11.366 16.069 26.933 18.23 43.982h-36.295c2.141-17.048 8.506-32.613 18.065-43.982zm18.622 65.982c-1.677 18.371-8.363 34.426-18.625 45.006-10.166-10.581-16.789-26.636-18.451-45.006zm-45.162-66.239c-7.355 12.921-12.069 28.063-13.692 44.239h-20.219c3.572-19.542 16.461-35.883 33.911-44.239zm-13.986 66.239c1.181 16.201 5.417 30.98 12.254 43.36-16.566-8.588-28.727-24.473-32.179-43.36z"/><path d="m490.459 368.189h-104.065c-11.553 0-20.951 9.398-20.951 20.951v64.769c0 11.552 9.398 20.951 20.951 20.951h41.033v14.494h-18.323c-6.075 0-11 4.925-11 11s4.925 11 11 11h58.646c6.075 0 11-4.925 11-11s-4.925-11-11-11h-18.323v-14.494h41.032c11.553 0 20.951-9.398 20.951-20.951v-64.769c0-11.553-9.398-20.951-20.951-20.951zm-1.049 84.67h-101.968v-62.67h101.968z"/><path d="m132.383 378.188c-8.704-1.362-15.725-8.39-17.074-17.091-1.275-8.218-8.228-14.182-16.534-14.182h-50.765c-8.307 0-15.26 5.965-16.534 14.183-1.348 8.689-8.358 15.715-17.049 17.085-8.192 1.292-14.139 8.242-14.139 16.525v19.812c0 34.794 18.41 67.743 48.045 85.988l13.013 8.011c3.726 2.294 7.902 3.441 12.08 3.441s8.357-1.148 12.084-3.443l13.002-8.008c29.626-18.247 48.03-51.192 48.03-85.979v-19.815c0-8.294-5.955-15.245-14.159-16.527zm-7.841 36.342c0 27.208-14.395 52.975-37.567 67.247l-13.002 8.008c-.338.208-.756.208-1.094 0l-13.013-8.011c-23.18-14.271-37.579-40.041-37.579-67.254v-15.546c14.688-3.932 26.099-15.366 29.997-30.06h42.216c3.901 14.713 15.329 26.153 30.042 30.073z"/><path d="m428.166 166.861c46.023 0 83.467-37.354 83.467-83.267s-37.444-83.266-83.467-83.266c-46.024 0-83.468 37.353-83.468 83.267s37.444 83.266 83.468 83.266zm0-22c-8.894 0-17.344-1.908-24.983-5.31 2.894-11.104 12.958-19.166 24.983-19.166 12.008 0 22.084 8.068 24.982 19.167-7.639 3.402-16.089 5.309-24.982 5.309zm-15.597-61.999c0-8.56 6.997-15.523 15.597-15.523s15.597 6.963 15.597 15.523-6.997 15.523-15.597 15.523-15.597-6.963-15.597-15.523zm15.597-60.534c33.893 0 61.467 27.484 61.467 61.267 0 16.758-6.791 31.961-17.767 43.034-3.406-7.649-8.756-14.207-15.427-19.073 5.798-6.604 9.324-15.243 9.324-24.693 0-20.69-16.866-37.523-37.597-37.523s-37.597 16.833-37.597 37.523c0 9.445 3.522 18.079 9.315 24.682-6.674 4.865-12.022 11.424-15.426 19.076-10.972-11.072-17.76-26.272-17.76-43.027 0-33.782 27.574-61.266 61.468-61.266z"/><circle cx="255.96" cy="269.062" r="11"/></g></g><g/><g/><g/><g/><g/><g/><g/><g/><g/><g/><g/><g/><g/><g/><g/></svg>