<svg id="Capa_1" enable-background="new 0 0 512 512" viewBox="0 0 512 512" xmlns="http://www.w3.org/2000/svg" fill="#052438"><g><path d="m456.285 55h-445.285c-6.075 0-11 4.925-11 11v291c0 6.075 4.925 11 11 11h312.058c6.075 0 11-4.925 11-11s-4.925-11-11-11h-301.058v-7.499l128.863-128.863 78.037 37.287c1.499.716 3.121 1.075 4.742 1.075s3.243-.358 4.742-1.075l78.037-37.287 44.14 44.139c2.148 2.148 4.963 3.222 7.778 3.222s5.63-1.074 7.778-3.222c4.296-4.296 4.296-11.261 0-15.557l-38.643-38.642 107.81-51.512v97.955c0 6.075 4.925 11 11 11s11-4.925 11-11v-180.021c.001-6.075-4.924-11-10.999-11zm-434.285 252.389v-159.322l107.81 51.512zm211.643-82.58-211.643-101.124v-46.685h423.285v46.685z"/><g><g><path d="m411.569 457c-.957 0-1.914-.125-2.847-.375-85.99-23.041-97.584-96.798-97.584-165.909 0-6.075 4.925-11 11-11 18.591 0 33.716-15.125 33.716-33.715 0-6.075 4.925-11 11-11h89.43c6.075 0 11 4.925 11 11 0 18.591 15.125 33.715 33.716 33.715 6.075 0 11 4.925 11 11 0 69.111-11.594 142.869-97.584 165.909-.933.25-1.89.375-2.847.375zm-78.341-156.393c1.254 67.559 16.327 116.049 78.342 133.975 62.015-17.926 77.088-66.416 78.342-133.975-21.873-4.434-39.136-21.722-43.536-43.607h-69.611c-4.402 21.885-21.664 39.173-43.537 43.607z" fill="#0496FF"/></g><g><path d="m400.319 379.5c-2.917 0-5.715-1.159-7.778-3.222l-22.5-22.5c-4.296-4.296-4.296-11.261 0-15.557 4.297-4.296 11.26-4.296 15.557 0l14.722 14.722 37.222-37.223c4.297-4.296 11.26-4.296 15.557 0 4.296 4.296 4.296 11.261 0 15.557l-45 45c-2.065 2.064-4.863 3.223-7.78 3.223z" fill="#0496FF"/></g></g></g><g/><g/><g/><g/><g/><g/><g/><g/><g/><g/><g/><g/><g/><g/><g/></svg>