<svg id="Capa_1" enable-background="new 0 0 512.006 512.006" height="512" viewBox="0 0 512.006 512.006" width="512" xmlns="http://www.w3.org/2000/svg" fill="#E6ECF2"><g><g fill="#0496FF"><path d="m103.734 185.024h-44.62l-17.566-43.915c-2.257-5.641-8.657-8.384-14.299-6.128-5.641 2.256-8.384 8.658-6.128 14.299l20.332 50.83c1.67 4.176 5.715 6.915 10.213 6.915h51.012v-11.665c.001-3.54.366-6.997 1.056-10.336z"/><path d="m61.833 439.173c-4.498 0-8.543 2.738-10.213 6.915l-20.332 50.83c-2.256 5.641.487 12.042 6.128 14.299 1.34.536 2.722.79 4.082.79 4.365 0 8.497-2.617 10.217-6.918l17.566-43.916h71.513c-6.053-6.814-11.508-14.172-16.264-22z"/><path d="m409.326 207.024h51.013c4.498 0 8.543-2.738 10.213-6.915l20.332-50.83c2.257-5.641-.487-12.042-6.128-14.299-5.639-2.253-12.042.487-14.298 6.128l-17.566 43.915h-44.62c.69 3.339 1.054 6.796 1.054 10.336z"/><path d="m442.726 461.173 17.566 43.916c1.72 4.301 5.851 6.918 10.217 6.918 1.359 0 2.742-.254 4.081-.79 5.641-2.256 8.385-8.658 6.128-14.299l-20.332-50.83c-1.67-4.176-5.715-6.915-10.213-6.915h-62.697c-4.756 7.828-10.211 15.186-16.264 22z"/><path d="m102.679 347.68h-71.344c-4.167 0-7.976 2.354-9.839 6.081l-20.332 40.663c-2.717 5.434-.514 12.041 4.919 14.758 1.58.79 3.258 1.164 4.911 1.164 4.035 0 7.92-2.229 9.847-6.083l17.292-34.583h64.801c-.164-2.872-.255-5.764-.255-8.676z"/><path d="m490.51 353.76c-1.863-3.727-5.672-6.081-9.839-6.081h-71.345v13.324c0 2.913-.092 5.804-.255 8.676h64.801l17.292 34.583c1.928 3.854 5.812 6.083 9.848 6.083 1.652 0 3.332-.375 4.91-1.164 5.435-2.717 7.637-9.324 4.92-14.758z"/><path d="m480.671 298.518c4.167 0 7.976-2.354 9.839-6.081l20.332-40.664c2.717-5.434.515-12.041-4.92-14.758-5.434-2.717-12.04-.514-14.758 4.919l-17.292 34.583h-64.546v22h71.345z"/><path d="m38.133 276.518-17.292-34.583c-2.718-5.434-9.325-7.634-14.758-4.919-5.434 2.717-7.636 9.324-4.919 14.758l20.332 40.664c1.863 3.727 5.672 6.081 9.839 6.081h71.344v-22h-64.546z"/><path d="m195.314 7.636c-1.86-5.783-8.056-8.964-13.839-7.105-5.784 1.86-8.964 8.056-7.105 13.839l15.927 49.532c6.072-4.375 12.593-8.164 19.483-11.277z"/><path d="m337.637 14.371c1.86-5.783-1.321-11.979-7.104-13.839-5.782-1.86-11.979 1.32-13.839 7.105l-14.467 44.989c6.89 3.112 13.411 6.902 19.483 11.276z"/></g><path d="m368.212 145.33c-5.092-57.439-53.468-102.63-112.208-102.63s-107.116 45.191-112.208 102.629c-23.406 4.616-41.116 25.29-41.116 50.03v165.643c0 83.262 67.738 151 151 151h4.648c83.261 0 150.999-67.738 150.999-151v-165.642c-.001-24.739-17.71-45.413-41.115-50.03zm-112.209-80.629c46.267 0 84.545 34.839 89.991 79.66h-179.982c5.446-44.821 43.725-79.66 89.991-79.66zm0 223.651c10.751 0 19.498 8.747 19.498 19.498s-8.747 19.498-19.498 19.498-19.498-8.747-19.498-19.498 8.747-19.498 19.498-19.498zm131.323 72.651c0 71.131-57.869 129-128.999 129h-4.648c-71.131 0-129-57.869-129-129v-165.643c0-15.991 13.009-29 29-29h91.324v101.483c-17.559 4.834-30.498 20.933-30.498 40.007 0 22.882 18.616 41.498 41.498 41.498s41.498-18.616 41.498-41.498c0-19.074-12.939-35.173-30.498-40.007v-101.483h91.323c15.99 0 29 13.009 29 29z"/></g></svg>