<svg id="Capa_1" enable-background="new 0 0 512 512" viewBox="0 0 512 512" xmlns="http://www.w3.org/2000/svg" fill="#E6ECF2"><g><g fill="#0496FF"><path d="m296.518 45.13-31.839-40.888c-2.084-2.677-5.286-4.242-8.679-4.242s-6.595 1.565-8.679 4.242l-31.839 40.888c-3.732 4.793-2.873 11.705 1.921 15.438 4.792 3.732 11.705 2.871 15.437-1.921l12.16-15.616v48.96c0 6.075 4.925 11 11 11s11-4.925 11-11v-48.96l12.16 15.616c2.168 2.785 5.41 4.242 8.687 4.242 2.362 0 4.742-.758 6.75-2.321 4.794-3.733 5.653-10.644 1.921-15.438z"/><path d="m256 140.11c-6.075 0-11 4.925-11 11v45.909c0 6.075 4.925 11 11 11s11-4.925 11-11v-45.909c0-6.075-4.925-11-11-11z"/><path d="m256 245.648c-6.075 0-11 4.925-11 11v34.554c0 6.075 4.925 11 11 11s11-4.925 11-11v-34.554c0-6.075-4.925-11-11-11z"/><path d="m256 368.598c-6.075 0-11 4.925-11 11v30.448c0 6.075 4.925 11 11 11s11-4.925 11-11v-30.448c0-6.076-4.925-11-11-11z"/><path d="m256 459.486c-6.075 0-11 4.925-11 11v30.514c0 6.075 4.925 11 11 11s11-4.925 11-11v-30.514c0-6.075-4.925-11-11-11z"/><path d="m433.139 111.084h-41.928l6.996-5.448c4.794-3.732 5.653-10.644 1.921-15.438-3.731-4.793-10.645-5.653-15.437-1.921l-32.27 25.127c-2.677 2.084-4.242 5.287-4.242 8.679s1.565 6.595 4.242 8.679l32.27 25.127c2.008 1.564 4.388 2.321 6.75 2.321 3.276 0 6.519-1.458 8.687-4.242 3.732-4.793 2.873-11.705-1.921-15.438l-6.997-5.448h30.928v55.347c0 6.075 4.925 11 11 11s11-4.925 11-11v-66.347c.001-6.073-4.924-10.998-10.999-10.998z"/><path d="m433.139 251.605c-6.075 0-11 4.925-11 11v61.795h-114.649c-6.075 0-11 4.925-11 11s4.925 11 11 11h125.648c6.075 0 11-4.925 11-11v-72.794c.001-6.076-4.924-11.001-10.999-11.001z"/><path d="m78.861 308.752c6.075 0 11-4.925 11-11v-59.294h30.937l-6.997 5.448c-4.794 3.732-5.653 10.644-1.921 15.438 2.168 2.785 5.41 4.242 8.687 4.242 2.362 0 4.742-.758 6.75-2.321l32.27-25.127c2.677-2.084 4.242-5.287 4.242-8.679 0-3.393-1.565-6.595-4.242-8.679l-32.27-25.127c-4.793-3.733-11.706-2.872-15.437 1.921-3.732 4.793-2.873 11.705 1.921 15.438l6.996 5.448h-41.936c-6.075 0-11 4.925-11 11v70.294c0 6.074 4.925 10.998 11 10.998z"/><path d="m195.224 429.774h-105.363v-57.049c0-6.075-4.925-11-11-11s-11 4.925-11 11v68.049c0 6.075 4.925 11 11 11h116.362c6.075 0 11-4.925 11-11s-4.924-11-10.999-11z"/></g><g><path d="m283.963 402.333h-55.926c-21.196 0-38.441 17.245-38.441 38.441s17.245 38.441 38.441 38.441h55.926c21.196 0 38.441-17.245 38.441-38.441s-17.245-38.441-38.441-38.441zm0 54.882h-55.926c-9.065 0-16.441-7.375-16.441-16.441s7.376-16.441 16.441-16.441h55.926c9.065 0 16.441 7.375 16.441 16.441s-7.376 16.441-16.441 16.441z"/><path d="m283.963 83.643h-55.926c-21.196 0-38.441 17.245-38.441 38.441s17.245 38.442 38.441 38.442h55.926c21.196 0 38.441-17.245 38.441-38.442s-17.245-38.441-38.441-38.441zm0 54.883h-55.926c-9.065 0-16.441-7.376-16.441-16.442s7.376-16.441 16.441-16.441h55.926c9.065 0 16.441 7.375 16.441 16.441s-7.376 16.442-16.441 16.442z"/><path d="m311.404 189.017h-110.808c-6.075 0-11 4.925-11 11v54.883c0 6.075 4.925 11 11 11h110.809c6.075 0 11-4.925 11-11v-54.883c-.001-6.075-4.926-11-11.001-11zm-11 54.883h-88.809v-32.883h88.809z"/><path d="m248.222 387.376c2.063 2.062 4.861 3.222 7.778 3.222s5.715-1.159 7.778-3.222l44.197-44.198c4.296-4.296 4.296-11.261 0-15.557l-44.197-44.198c-2.063-2.062-4.861-3.222-7.778-3.222s-5.715 1.159-7.778 3.222l-44.197 44.198c-4.296 4.296-4.296 11.261 0 15.557zm7.778-80.617 28.641 28.641-28.641 28.641-28.641-28.641z"/><path d="m78.861 289.979c-25.045 0-45.421 20.376-45.421 45.421s20.376 45.421 45.421 45.421c25.046 0 45.422-20.376 45.422-45.421s-20.376-45.421-45.422-45.421zm0 68.842c-12.914 0-23.421-10.507-23.421-23.421s10.507-23.421 23.421-23.421c12.915 0 23.422 10.507 23.422 23.421s-10.507 23.421-23.422 23.421z"/><path d="m433.139 181.25c-25.046 0-45.422 20.376-45.422 45.421s20.376 45.421 45.422 45.421c25.045 0 45.421-20.376 45.421-45.421s-20.376-45.421-45.421-45.421zm0 68.843c-12.915 0-23.422-10.507-23.422-23.421s10.507-23.421 23.422-23.421c12.914 0 23.421 10.507 23.421 23.421s-10.507 23.421-23.421 23.421z"/></g></g><g/><g/><g/><g/><g/><g/><g/><g/><g/><g/><g/><g/><g/><g/><g/></svg>