<svg id="Capa_1" enable-background="new 0 0 512 512" height="512" viewBox="0 0 512 512" width="512" xmlns="http://www.w3.org/2000/svg" fill="#052438"><g><g><path d="m471 512h-430c-22.607 0-41-18.393-41-41v-430c0-22.607 18.393-41 41-41h430c22.607 0 41 18.393 41 41v430c0 22.607-18.393 41-41 41zm-430-490c-10.477 0-19 8.523-19 19v430c0 10.477 8.523 19 19 19h430c10.477 0 19-8.523 19-19v-430c0-10.477-8.523-19-19-19z"/></g><g><g><path d="m266.167 455.07c-6.075 0-11-4.925-11-11s4.925-11 11-11c78.018 0 141.49-63.472 141.49-141.489v-60.996c0-83.623-68.032-151.655-151.656-151.655-83.623 0-151.656 68.032-151.656 151.655l-.003 30.502c0 6.074-4.926 10.999-11 10.999 0 0 0 0-.001 0-6.075-.001-11-4.926-10.999-11.001l.003-30.501c0-95.753 77.902-173.654 173.656-173.654s173.656 77.901 173.656 173.655v60.996c0 90.148-73.341 163.489-163.49 163.489z" fill="#0496FF"/></g><g><path d="m93.346 394.074c-6.075 0-11-4.925-11-11s4.925-11 11-11c61.201 0 110.992-49.79 110.992-110.991v-30.498c0-28.487 23.176-51.664 51.664-51.664s51.664 23.177 51.664 51.664v60.996c0 22.882-18.616 41.498-41.498 41.498-6.075 0-11-4.925-11-11s4.925-11 11-11c10.751 0 19.498-8.747 19.498-19.498v-60.996c0-16.356-13.307-29.664-29.664-29.664s-29.664 13.308-29.664 29.664v30.498c-.001 73.332-59.66 132.991-132.992 132.991z" fill="#0496FF"/></g><g><path d="m266.167 394.074c-6.075 0-11-4.925-11-11s4.925-11 11-11c44.384 0 80.494-36.109 80.494-80.493v-60.996c0-49.989-40.67-90.659-90.66-90.659s-90.66 40.67-90.66 90.659v30.498c0 39.699-32.297 71.996-71.996 71.996-6.075 0-11-4.925-11-11s4.925-11 11-11c27.568 0 49.996-22.428 49.996-49.996v-30.498c0-62.12 50.539-112.659 112.66-112.659s112.66 50.539 112.66 112.659v60.996c0 56.515-45.978 102.493-102.494 102.493z"/></g></g></g></svg>