<svg id="Capa_1" enable-background="new 0 0 512 512" height="512" viewBox="0 0 512 512" width="512" xmlns="http://www.w3.org/2000/svg" fill="#052438"><g><g><path d="m204.153 103.328c-28.487 0-51.664-23.176-51.664-51.664s23.177-51.664 51.664-51.664 51.664 23.176 51.664 51.664c0 28.487-23.176 51.664-51.664 51.664zm0-81.328c-16.356 0-29.664 13.307-29.664 29.664 0 16.356 13.308 29.664 29.664 29.664s29.664-13.307 29.664-29.664-13.307-29.664-29.664-29.664z"/></g><g><path d="m511.992 254.817c-.024-2.832-1.216-5.608-3.213-7.612l-101.66-101.66c-2.044-2.046-4.889-3.221-7.778-3.222h-184.188v22h173.187v60.162c0 22.882 18.616 41.498 41.498 41.498h60.162v204.519c0 10.751-8.747 19.498-19.498 19.498h-429.004c-10.751 0-19.498-8.747-19.498-19.498v-286.68c0-10.751 8.747-19.498 19.498-19.498h151.655v-22h-151.655c-22.882 0-41.498 18.615-41.498 41.498v286.68c0 22.882 18.616 41.498 41.498 41.498h429.004c22.882 0 41.498-18.616 41.498-41.498v-215.519c0-.056-.007-.111-.008-.166zm-82.154-10.834c-10.751 0-19.498-8.747-19.498-19.498v-44.605l32.052 32.051 32.052 32.052z"/><path d="m372.94 353.355c9.878-9.416 16.052-22.684 16.052-37.376 0-28.488-23.177-51.664-51.664-51.664s-51.664 23.176-51.664 51.664c0 14.691 6.174 27.96 16.052 37.375-27.481 12.97-46.55 40.939-46.55 73.288v11.328c0 6.075 4.925 11 11 11h142.323c6.075 0 11-4.925 11-11v-11.328c0-32.348-19.068-60.316-46.549-73.287zm-35.612-67.04c16.356 0 29.664 13.307 29.664 29.664 0 16.356-13.308 29.664-29.664 29.664s-29.664-13.307-29.664-29.664c0-16.356 13.308-29.664 29.664-29.664zm60.161 140.656h-120.323v-.328c0-32.533 26.468-59 59-59h2.323c32.533 0 59 26.467 59 59z"/><path d="m205.17 426.971h-132.157c-6.075 0-11 4.925-11 11s4.925 11 11 11h132.157c6.075 0 11-4.925 11-11s-4.925-11-11-11z"/><path d="m205.17 365.975h-132.157c-6.075 0-11 4.925-11 11s4.925 11 11 11h132.157c6.075 0 11-4.925 11-11s-4.925-11-11-11z"/></g><path d="m204.153 103.328c-3.775 0-7.453-.418-11-1.191v163.012c0 21.962-17.868 39.83-39.83 39.83s-39.829-17.868-39.829-39.83v-50.83c0-4.449-2.68-8.46-6.79-10.163-4.111-1.704-8.842-.762-11.988 2.384l-30.498 30.498c-4.296 4.296-4.296 11.261 0 15.557 4.297 4.296 11.26 4.296 15.557 0l11.72-11.72v24.273c0 34.093 27.736 61.83 61.829 61.83s61.83-27.737 61.83-61.83v-163.011c-3.548.772-7.226 1.191-11.001 1.191z" fill="#0496FF"/></g></svg>