<svg id="Capa_1" enable-background="new 0 0 512 512" viewBox="0 0 512 512" xmlns="http://www.w3.org/2000/svg" fill="#052438"><g><path d="m407 71.203c0-46.248-90.68-71.203-176-71.203s-175.999 24.955-176 71.203v346.365c0 14.887 9.639 36.15 55.557 52.904 32.343 11.801 75.116 18.3 120.443 18.3 11.548 0 23.094-.428 34.318-1.273 6.059-.456 10.6-5.736 10.144-11.794-.456-6.059-5.766-10.607-11.794-10.143-10.678.803-21.669 1.211-32.668 1.211-95.413 0-154-28.658-154-49.204v-50.647c7.441 5.386 17.235 10.69 30.044 15.641 30.188 11.669 70.747 18.6 114.208 19.516.078.001.157.002.236.002 5.967 0 10.866-4.773 10.992-10.768.129-6.074-4.691-11.102-10.766-11.229-40.969-.864-78.876-7.271-106.738-18.042-23.424-9.055-37.976-20.959-37.976-31.065v-50.616c8.111 5.865 19.014 11.623 33.557 16.929 32.343 11.801 75.116 18.3 120.443 18.3 13.133 0 26.276-.562 39.065-1.67 6.053-.524 10.534-5.856 10.01-11.909-.523-6.052-5.861-10.532-11.908-10.009-12.161 1.054-24.665 1.588-37.167 1.588-95.413 0-154-28.658-154-49.204v-50.617c8.111 5.865 19.014 11.623 33.557 16.929 32.343 11.801 75.116 18.3 120.443 18.3s88.101-6.499 120.443-18.3c14.542-5.306 25.446-11.064 33.557-16.929v101.27c0 6.075 4.925 11 11 11s11-4.925 11-11zm-176-49.203c95.413 0 154 28.658 154 49.204s-58.587 49.204-154 49.204-154-28.658-154-49.204 58.587-49.204 154-49.204zm0 184.999c-95.413 0-154-28.658-154-49.204v-50.736c32.067 23.149 94.344 35.349 154 35.349s121.933-12.2 154-35.349v50.736c0 20.545-58.586 49.204-154 49.204z"/><g fill="#0496FF"><path d="m336 270c-66.72 0-121 54.281-121 121s54.28 121 121 121 121-54.28 121-121-54.281-121-121-121zm-99 121c0-54.589 44.411-99 99-99 23.34 0 44.819 8.119 61.762 21.681l-29.704 29.704c-9.954-5.442-20.841-8.385-32.058-8.385-29.058 0-55.898 19.744-70.049 51.526-1.269 2.848-1.269 6.1 0 8.948 5.202 11.684 12.119 21.74 20.231 29.787l-27.501 27.501c-13.562-16.943-21.681-38.422-21.681-61.762zm51.196 0c10.89-21.096 28.863-34 47.804-34 18.939 0 36.913 12.904 47.804 34-10.891 21.096-28.864 34-47.804 34-18.941 0-36.915-12.904-47.804-34zm47.804 99c-23.34 0-44.819-8.119-61.762-21.681l29.704-29.704c9.953 5.442 20.84 8.385 32.058 8.385 29.057 0 55.897-19.744 70.049-51.525 1.269-2.848 1.269-6.101 0-8.949-5.202-11.684-12.119-21.74-20.231-29.787l27.501-27.502c13.561 16.943 21.681 38.423 21.681 61.763 0 54.589-44.412 99-99 99z"/><path d="m347.003 391c0-6.075-4.925-11-11-11h-.008c-6.075 0-10.995 4.925-10.995 11s4.929 11 11.004 11 10.999-4.925 10.999-11z"/></g></g><g/><g/><g/><g/><g/><g/><g/><g/><g/><g/><g/><g/><g/><g/><g/></svg>