<svg id="Capa_1" enable-background="new 0 0 512 512" height="512" viewBox="0 0 512 512" width="512" xmlns="http://www.w3.org/2000/svg" fill="#052438"><g><g><g fill="#0496FF"><path d="m256 252.061c-6.075 0-11-4.925-11-11v-50.792c0-6.075 4.925-11 11-11s11 4.925 11 11v50.792c0 6.075-4.925 11-11 11z"/><path d="m340.654 281.939h-54.776c-6.075 0-11-4.925-11-11s4.925-11 11-11h54.776c6.075 0 11 4.925 11 11s-4.925 11-11 11z"/><path d="m226.122 281.939h-54.776c-6.075 0-11-4.925-11-11s4.925-11 11-11h54.776c6.075 0 11 4.925 11 11s-4.925 11-11 11z"/><path d="m121.549 382.528c-6.075 0-11-4.925-11-11v-70.711c0-6.075 4.925-11 11-11s11 4.925 11 11v70.711c0 6.076-4.925 11-11 11z"/><path d="m390.451 382.528c-6.075 0-11-4.925-11-11v-70.711c0-6.075 4.925-11 11-11s11 4.925 11 11v70.711c0 6.076-4.925 11-11 11z"/><path d="m71.752 281.939h-60.752c-6.075 0-11-4.925-11-11s4.925-11 11-11h60.752c6.075 0 11 4.925 11 11s-4.925 11-11 11z"/><path d="m501 281.939h-60.752c-6.075 0-11-4.925-11-11s4.925-11 11-11h60.752c6.075 0 11 4.925 11 11s-4.925 11-11 11z"/></g><path d="m340.271 201.269h-158.583c-45.985 0-83.397-37.412-83.397-83.397s37.412-83.397 83.397-83.397c2.672 0 5.355.13 8.028.388 15.563-21.674 40.911-34.863 67.816-34.863 27.392 0 52.91 13.494 68.418 35.706 4.718-.819 9.51-1.231 14.321-1.231 45.985 0 83.397 37.412 83.397 83.397s-37.411 83.397-83.397 83.397zm-158.583-144.794c-33.854 0-61.397 27.543-61.397 61.397s27.543 61.397 61.397 61.397h158.583c33.855 0 61.397-27.542 61.397-61.397s-27.542-61.397-61.397-61.397c-5.608 0-11.175.759-16.544 2.257-4.889 1.363-10.079-.797-12.557-5.229-10.861-19.432-31.414-31.503-53.638-31.503-21.655 0-41.944 11.612-52.948 30.304-2.351 3.992-6.952 6.083-11.503 5.232-3.762-.704-7.595-1.061-11.393-1.061z"/><path d="m178.815 512h-114.533c-34.897 0-63.286-28.39-63.286-63.287s28.39-63.287 63.286-63.287c1.449 0 2.903.05 4.355.15 11.879-15.608 30.593-25.049 50.421-25.049 20.136 0 38.938 9.609 50.793 25.533 2.963-.422 5.959-.634 8.964-.634 34.896 0 63.286 28.39 63.286 63.287s-28.389 63.287-63.286 63.287zm-114.533-104.573c-22.766 0-41.286 18.521-41.286 41.287s18.521 41.286 41.286 41.286h114.533c22.766 0 41.286-18.521 41.286-41.287s-18.52-41.287-41.286-41.287c-3.771 0-7.516.511-11.129 1.518-4.894 1.364-10.078-.798-12.556-5.229-7.306-13.069-21.128-21.188-36.072-21.188-14.562 0-28.205 7.809-35.605 20.38-2.35 3.991-6.944 6.082-11.501 5.232-2.533-.472-5.113-.712-7.67-.712z"/><path d="m447.718 512h-114.533c-34.896 0-63.286-28.39-63.286-63.287s28.39-63.287 63.286-63.287c1.449 0 2.903.05 4.355.15 11.879-15.608 30.593-25.049 50.421-25.049 20.136 0 38.939 9.61 50.793 25.533 2.963-.422 5.958-.634 8.964-.634 34.897 0 63.286 28.39 63.286 63.287s-28.39 63.287-63.286 63.287zm-114.533-104.573c-22.766 0-41.286 18.521-41.286 41.287s18.52 41.286 41.286 41.286h114.533c22.766 0 41.286-18.521 41.286-41.287s-18.521-41.287-41.286-41.287c-3.771 0-7.516.511-11.128 1.517-4.883 1.365-10.078-.795-12.556-5.228-7.307-13.069-21.129-21.188-36.073-21.188-14.561 0-28.205 7.809-35.605 20.38-2.35 3.991-6.944 6.082-11.501 5.232-2.534-.472-5.114-.712-7.67-.712z"/><path d="m256 311.817c-22.54 0-40.878-18.338-40.878-40.878s18.338-40.878 40.878-40.878 40.878 18.338 40.878 40.878-18.338 40.878-40.878 40.878zm0-59.756c-10.409 0-18.878 8.469-18.878 18.878s8.469 18.878 18.878 18.878 18.878-8.469 18.878-18.878-8.469-18.878-18.878-18.878z"/><path d="m141.468 311.817h-39.838c-22.54 0-40.878-18.338-40.878-40.878s18.338-40.878 40.878-40.878h39.838c22.54 0 40.878 18.338 40.878 40.878s-18.338 40.878-40.878 40.878zm-39.838-59.756c-10.409 0-18.878 8.469-18.878 18.878s8.469 18.878 18.878 18.878h39.838c10.409 0 18.878-8.469 18.878-18.878s-8.469-18.878-18.878-18.878z"/><path d="m410.37 311.817h-39.838c-22.54 0-40.878-18.338-40.878-40.878s18.338-40.878 40.878-40.878h39.838c22.54 0 40.878 18.338 40.878 40.878s-18.338 40.878-40.878 40.878zm-39.838-59.756c-10.409 0-18.878 8.469-18.878 18.878s8.469 18.878 18.878 18.878h39.838c10.409 0 18.878-8.469 18.878-18.878s-8.469-18.878-18.878-18.878z"/></g></g></svg>