<svg id="Layer_1" enable-background="new 0 0 511.997 511.997" viewBox="0 0 511.997 511.997" xmlns="http://www.w3.org/2000/svg" fill="#E6ECF2"><g><path d="m458.545 423.581h-133.32v-11.323c0-6.075-4.925-11-11-11h-25.185v-29.166h147.887c6.075 0 11-4.925 11-11v-322.881c0-6.075-4.925-11-11-11-28.434 0-54.855-14.17-68.074-22.617-9.688-6.192-22.122-6.12-31.673.187-12.685 8.376-38.413 22.43-68.214 22.43-6.075 0-11 4.925-11 11v48.191h-47.079l-27.467-25.697c-2.037-1.907-4.724-2.967-7.515-2.967h-100.835c-6.075 0-11 4.925-11 11v292.354c0 6.075 4.925 11 11 11h147.887v29.166h-25.185c-6.075 0-11 4.925-11 11v11.323h-133.319c-6.075 0-11 4.925-11 11v44.094c0 6.075 4.925 11 11 11h133.319v11.323c0 6.075 4.925 11 11 11h116.453c6.075 0 11-4.925 11-11v-11.323h133.319c6.075 0 11-4.925 11-11v-44.094c.001-6.075-4.924-11-10.999-11zm-178.579-374.883c30.688-2.844 56.142-16.844 69.337-25.559 2.304-1.521 5.328-1.526 7.704-.007 13.58 8.677 39.388 22.593 68.92 25.525v90.627c0 17.735-10.464 34.11-26.658 41.717l-46.322 21.76-46.322-21.76c-16.194-7.607-26.658-23.982-26.658-41.717v-90.586zm-193.896 31.04h85.491l27.468 25.697c2.037 1.907 4.724 2.967 7.515 2.967h51.423v30.882c0 26.223 15.428 50.414 39.305 61.629l50.999 23.957c1.481.696 3.079 1.044 4.677 1.044s3.195-.348 4.677-1.044l50.999-23.957c6.426-3.018 12.239-6.977 17.305-11.661v160.839h-339.859zm158.887 292.354h22.084v29.166h-22.084zm-180.504 95.583v-22.094h122.319v22.094zm238.772 22.322h-94.453v-66.74h94.453zm144.32-22.322h-122.32v-22.094h122.319v22.094z"/><g fill="#0496FF"><path d="m385.334 89.084c-4.681-3.873-11.613-3.218-15.487 1.463l-18.43 22.275-10.366-8.409c-4.719-3.828-11.646-3.104-15.472 1.612-3.828 4.718-3.106 11.645 1.612 15.473l18.826 15.273c2.037 1.653 4.487 2.458 6.924 2.458 3.166 0 6.308-1.361 8.481-3.988l25.375-30.669c3.873-4.681 3.218-11.615-1.463-15.488z"/><path d="m238.314 293.105h-107.852c-6.075 0-11 4.925-11 11s4.925 11 11 11h107.853c6.075 0 11-4.925 11-11s-4.926-11-11.001-11z"/><path d="m130.462 267.538h67.311c6.075 0 11-4.925 11-11s-4.925-11-11-11h-67.311c-6.075 0-11 4.925-11 11s4.924 11 11 11z"/></g></g><g/><g/><g/><g/><g/><g/><g/><g/><g/><g/><g/><g/><g/><g/><g/></svg>