<svg id="Capa_1" enable-background="new 0 0 512 512" height="512" viewBox="0 0 512 512" width="512" xmlns="http://www.w3.org/2000/svg" fill="#052438"><g><g><path d="m409.508 512c-1.523 0-3.045-.316-4.467-.948-59.549-26.466-98.027-85.673-98.028-150.838v-62.532c0-4.347 2.56-8.286 6.532-10.052 63.674-28.301 128.246-28.303 191.923-.002 3.973 1.766 6.533 5.705 6.533 10.052v62.532c0 65.165-38.477 124.373-98.024 150.84-1.424.632-2.947.948-4.469.948zm-80.496-207.059v55.272c.001 54.832 31.436 104.799 80.496 128.656 49.058-23.857 80.492-73.825 80.492-128.657v-55.272c-53.452-21.944-107.537-21.945-160.988.001z" fill="#0496FF"/></g><g><path d="m398.724 421.739c-2.815 0-5.63-1.074-7.778-3.222l-21.565-21.564c-4.296-4.296-4.296-11.261 0-15.557s11.26-4.295 15.556 0l13.787 13.786 35.352-35.353c4.296-4.295 11.261-4.295 15.556 0 4.296 4.296 4.296 11.261 0 15.557l-43.13 43.131c-2.148 2.148-4.963 3.222-7.778 3.222z" fill="#0496FF"/></g><path d="m296.44 438.222c6.76-7.398 13.14-16.05 19.055-25.854-3.59-10.758-6.094-21.946-7.405-33.413-16.767 37.629-38.995 61.311-62.435 67.002l-.001-87.087 61.359-.001v-22l-61.36.001-.001-91.217 89.677-.001c-.288 11.511-1.029 22.954-2.211 34.197 7.574-2.67 15.157-4.954 22.748-6.828.76-9.046 1.249-18.19 1.468-27.37l89.682-.001c-.407 7.901-1.26 15.777-2.535 23.574 7.186 1.155 14.367 2.673 21.543 4.54 2.168-12.905 3.28-26.016 3.28-39.114 0-62.678-24.409-121.604-68.729-165.924s-103.248-68.727-165.926-68.726-121.604 24.41-165.923 68.729c-44.319 44.321-68.726 103.248-68.726 165.925s24.41 121.604 68.729 165.923c44.321 44.319 103.247 68.727 165.924 68.726 34.214 0 67.03-7.17 97.716-21.28-3.909-6.219-7.414-12.693-10.469-19.391-8.321 3.758-16.812 6.961-25.46 9.59zm-72.788-101.353-77.164.001c-7.434-27.866-11.732-58.865-12.527-91.217l89.69-.001zm-.001-113.217-89.684.001c.807-31.614 5.073-61.653 11.989-88.435l77.694-.001zm-.002-200.315.001 89.88-71.175.001c16.407-48.662 42.155-82.885 71.174-89.881zm-51.084 7.918c-9.801 10.823-18.825 24.329-26.827 40.333-6.378 12.757-11.914 26.727-16.566 41.631l-68.988.001c26.954-38.609 66.374-67.894 112.381-81.965zm-125.837 103.965 76.385-.001c-6.608 27.469-10.425 57.414-11.155 88.435l-89.676.001c1.628-31.814 10.293-61.795 24.446-88.435zm-24.446 110.434 89.675-.001c.756 32.072 4.812 62.993 11.84 91.217l-75.712.001c-15.299-27.83-24.164-58.854-25.803-91.217zm62.004 139.367c-8.191-8.191-15.618-16.941-22.274-26.15l68.044-.001c4.466 13.861 9.705 26.887 15.685 38.847 8.036 16.071 17.103 29.62 26.952 40.466-33.037-10.011-63.307-28.063-88.407-53.162zm81.133 2.857c-4.517-9.033-8.581-18.74-12.175-29.008l70.409-.001.001 87.104c-21.492-5.157-41.849-25.323-58.235-58.095zm281.602-164.229-89.676.001c-.731-31.021-4.549-60.965-11.158-88.435l76.542-.001c14.376 27.109 22.708 57.148 24.292 88.435zm-62.004-139.367c9.013 9.013 17.11 18.698 24.26 28.933l-69.149.001c-4.652-14.903-10.188-28.873-16.567-41.63-8.036-16.071-17.103-29.62-26.952-40.466 33.038 10.01 63.308 28.063 88.408 53.162zm-139.368-60.952c21.492 5.157 41.848 25.323 58.235 58.095 4.922 9.844 9.305 20.493 13.129 31.792l-71.363.001zm.001 111.887 77.885-.001c6.987 27.143 11.037 57.153 11.806 88.435l-89.69.001z"/></g></svg>