<svg id="Capa_1" enable-background="new 0 0 512 512" height="512" viewBox="0 0 512 512" width="512" xmlns="http://www.w3.org/2000/svg" fill="#E6ECF2"><g><g><g fill="#0496FF"><path d="m140.472 440.203h-129.472c-6.075 0-11 4.925-11 11s4.925 11 11 11h33.817v38.797c0 6.075 4.925 11 11 11s11-4.925 11-11v-38.797h17.837v37.576c0 6.075 4.925 11 11 11s11-4.925 11-11v-37.576h33.817c6.075 0 11-4.925 11-11s-4.924-11-10.999-11z"/><path d="m320.735 440.203h-129.47c-6.075 0-11 4.925-11 11s4.925 11 11 11h33.816v38.797c0 6.075 4.925 11 11 11s11-4.925 11-11v-38.797h17.838v36.646c0 6.075 4.925 11 11 11s11-4.925 11-11v-36.646h33.816c6.075 0 11-4.925 11-11s-4.925-11-11-11z"/><path d="m501 440.203h-129.472c-6.075 0-11 4.925-11 11s4.925 11 11 11h33.817v38.797c0 6.075 4.925 11 11 11s11-4.925 11-11v-38.797h17.837v36.646c0 6.075 4.925 11 11 11s11-4.925 11-11v-36.646h33.818c6.075 0 11-4.925 11-11s-4.925-11-11-11z"/><path d="m391.281 231.057h-124.281v-40.789c0-6.075-4.925-11-11-11s-11 4.925-11 11v40.789h-124.281c-30.869 0-55.983 25.114-55.983 55.983v24.732c0 6.075 4.925 11 11 11s11-4.925 11-11v-24.732c0-18.738 15.245-33.983 33.983-33.983h124.281v58.715c0 6.075 4.925 11 11 11s11-4.925 11-11v-58.715h124.281c18.738 0 33.983 15.245 33.983 33.983v24.732c0 6.075 4.925 11 11 11s11-4.925 11-11v-24.732c.001-30.869-25.114-55.983-55.983-55.983z"/></g><path d="m340.272 201.268h-158.583c-45.985 0-83.398-37.412-83.398-83.396 0-45.985 37.412-83.397 83.398-83.397 2.671 0 5.354.13 8.028.388 15.562-21.673 40.91-34.863 67.815-34.863 27.392 0 52.91 13.494 68.418 35.706 4.718-.819 9.51-1.231 14.321-1.231 45.985 0 83.396 37.412 83.396 83.397.001 45.984-37.41 83.396-83.395 83.396zm-158.583-144.793c-33.855 0-61.398 27.542-61.398 61.397 0 33.854 27.543 61.396 61.398 61.396h158.583c33.854 0 61.396-27.542 61.396-61.396s-27.542-61.397-61.396-61.397c-5.608 0-11.175.759-16.544 2.257-4.889 1.363-10.079-.797-12.557-5.229-10.862-19.432-31.415-31.503-53.639-31.503-21.655 0-41.943 11.611-52.947 30.303-2.35 3.992-6.952 6.08-11.5 5.233-3.766-.704-7.6-1.061-11.396-1.061z"/><path d="m140.472 512h-129.472c-6.075 0-11-4.925-11-11v-189.228c0-6.075 4.925-11 11-11h129.472c6.075 0 11 4.925 11 11v189.228c0 6.075-4.925 11-11 11zm-118.472-22h107.472v-167.228h-107.472z"/><path d="m100.63 362.61c-15.803-.294-13.402-24.601 2.151-21.78 12.749 2.206 10.776 22.094-2.151 21.78z"/><path d="m320.735 512h-129.47c-6.075 0-11-4.925-11-11v-189.228c0-6.075 4.925-11 11-11h129.471c6.075 0 11 4.925 11 11v189.228c-.001 6.075-4.926 11-11.001 11zm-118.47-22h107.471v-167.228h-107.471z"/><path d="m280.899 362.61c-15.812-.289-13.407-24.606 2.151-21.78 12.741 2.21 10.771 22.091-2.151 21.78z"/><path d="m501 512h-129.472c-6.075 0-11-4.925-11-11v-189.228c0-6.075 4.925-11 11-11h129.472c6.075 0 11 4.925 11 11v189.228c0 6.075-4.925 11-11 11zm-118.472-22h107.472v-167.228h-107.472z"/><path d="m461.16 362.61c-15.796-.302-13.418-24.56 2.15-21.79 12.742 2.23 10.781 22.099-2.15 21.79z"/></g></g></svg>