<svg id="Layer_1" enable-background="new 0 0 512.005 512.005" viewBox="0 0 512.005 512.005" xmlns="http://www.w3.org/2000/svg" fill="#E6ECF2"><g><g><path d="m447.259 100.233c-36.203-44.924-87.239-76.12-143.708-87.841-5.949-1.231-11.771 2.587-13.006 8.535-1.234 5.948 2.586 11.771 8.535 13.006 107.596 22.333 183.544 117.647 180.59 226.636-2.72 100.379-73.282 187.114-170.132 212.087.961-4.769-1.348-9.773-5.916-12.029-5.448-2.689-12.044-.455-14.734 4.992l-10.118 20.488c-1.298 2.629-1.493 5.667-.542 8.439.951 2.773 2.97 5.052 5.608 6.331l20.684 10.024c1.545.749 3.18 1.103 4.79 1.103 4.083 0 8.006-2.284 9.907-6.205 2.066-4.263 1.132-9.203-1.973-12.429 47.672-12.785 91.015-39.649 123.646-76.971 37.644-43.055 59.227-98.186 60.773-155.236 1.578-58.282-17.743-115.435-54.404-160.93z"/><path d="m212.926 478.072c-107.596-22.333-183.545-117.647-180.591-226.636 2.72-100.379 73.282-187.114 170.132-212.087-.961 4.769 1.348 9.773 5.916 12.029 1.566.773 3.227 1.14 4.863 1.14 4.054 0 7.955-2.251 9.871-6.131l10.118-20.488c1.298-2.629 1.493-5.667.542-8.439-.951-2.773-2.97-5.052-5.608-6.331l-20.683-10.025c-5.466-2.649-12.047-.366-14.696 5.102-2.066 4.263-1.132 9.203 1.973 12.429-47.672 12.785-91.015 39.649-123.646 76.971-37.644 43.054-59.227 98.184-60.774 155.234-1.58 58.283 17.741 115.437 54.403 160.931 36.203 44.924 87.239 76.12 143.708 87.841.754.156 1.506.232 2.247.232 5.104 0 9.681-3.573 10.759-8.767 1.235-5.948-2.586-11.77-8.534-13.005z"/><path d="m290.237 436.307 11.231-21.28c12.5-3.494 24.533-8.431 35.886-14.723l23.229 7.216c3.881 1.205 8.111.173 11-2.686l34.661-34.295c2.936-2.905 3.997-7.209 2.749-11.146l-7.251-22.858c6.329-11.203 11.298-23.068 14.822-35.394l21.512-11.116c3.655-1.889 5.95-5.659 5.95-9.772v-48.502c0-4.114-2.295-7.884-5.95-9.772l-21.512-11.116c-3.525-12.328-8.495-24.195-14.822-35.395l7.25-22.856c1.249-3.937.187-8.241-2.749-11.146l-34.661-34.296c-2.89-2.859-7.119-3.89-11-2.686l-23.229 7.216c-11.354-6.293-23.386-11.23-35.887-14.724l-11.23-21.28c-1.904-3.608-5.649-5.866-9.729-5.866h-49.014c-4.08 0-7.824 2.258-9.729 5.866l-11.23 21.28c-12.502 3.495-24.536 8.432-35.886 14.724l-23.23-7.216c-3.88-1.205-8.111-.173-11 2.686l-34.659 34.296c-2.935 2.904-3.997 7.208-2.748 11.145l7.25 22.856c-6.326 11.196-11.296 23.064-14.821 35.396l-21.511 11.117c-3.655 1.889-5.95 5.659-5.95 9.772v48.501c0 4.114 2.295 7.884 5.95 9.772l21.512 11.116c3.524 12.327 8.494 24.194 14.821 35.394l-7.25 22.858c-1.249 3.936-.187 8.24 2.749 11.144l34.659 34.295c2.888 2.859 7.119 3.891 11 2.686l23.23-7.216c11.352 6.292 23.384 11.228 35.885 14.723l11.23 21.28c1.904 3.608 5.649 5.866 9.729 5.866h49.014c4.08.002 7.825-2.256 9.729-5.864zm-52.11-16.134-10.389-19.685c-1.464-2.773-4.042-4.79-7.085-5.543-13.75-3.403-26.896-8.795-39.073-16.025-2.678-1.59-5.904-1.971-8.879-1.046l-21.502 6.679-25.183-24.919 6.694-21.106c.959-3.024.566-6.315-1.079-9.028-7.296-12.034-12.735-25.021-16.167-38.598-.772-3.054-2.816-5.63-5.615-7.077l-19.871-10.268v-35.107l19.871-10.269c2.798-1.446 4.843-4.022 5.615-7.077 3.434-13.584 8.874-26.57 16.167-38.598 1.646-2.713 2.039-6.004 1.08-9.029l-6.694-21.104 25.183-24.919 21.502 6.679c2.975.924 6.202.543 8.88-1.047 12.175-7.23 25.32-12.622 39.072-16.026 3.044-.753 5.622-2.77 7.085-5.543l10.389-19.685h35.749l10.389 19.685c1.464 2.773 4.042 4.79 7.086 5.543 13.748 3.402 26.895 8.794 39.073 16.026 2.678 1.591 5.904 1.971 8.879 1.047l21.5-6.679 25.184 24.919-6.694 21.104c-.959 3.024-.566 6.316 1.079 9.029 7.296 12.033 12.736 25.019 16.169 38.599.772 3.054 2.816 5.63 5.615 7.076l19.871 10.268v35.107l-19.871 10.268c-2.798 1.446-4.843 4.022-5.615 7.076-3.432 13.575-8.872 26.562-16.169 38.599-1.645 2.713-2.038 6.004-1.079 9.028l6.695 21.106-25.184 24.918-21.5-6.679c-2.974-.924-6.201-.544-8.878 1.046-12.179 7.23-25.326 12.622-39.075 16.025-3.044.753-5.622 2.77-7.085 5.543l-10.389 19.685h-35.751z"/></g><g fill="#0496FF"><path d="m256.002 200.278c-6.075 0-11 4.925-11 11v36.807c0 6.075 4.925 11 11 11s11-4.925 11-11v-36.807c0-6.075-4.924-11-11-11z"/><path d="m266.162 283.543c-1.805-4.259-6.142-7.041-10.784-6.759-4.301.261-8.15 3.05-9.665 7.096-1.657 4.424-.25 9.577 3.47 12.505 3.515 2.767 8.439 3.107 12.317.891 4.76-2.721 6.694-8.692 4.662-13.733z"/><path d="m362.183 285.268-73.925-129.289c-6.701-11.718-18.759-18.714-32.256-18.714s-25.555 6.996-32.256 18.714l-73.925 129.289c-6.653 11.636-6.609 25.504.117 37.099 6.725 11.591 18.739 18.512 32.139 18.512h147.85c13.4 0 25.415-6.92 32.139-18.512 6.726-11.595 6.77-25.463.117-37.099zm-19.146 26.059c-2.743 4.729-7.644 7.552-13.11 7.552h-147.85c-5.466 0-10.367-2.823-13.11-7.552-2.745-4.731-2.762-10.39-.047-15.139l73.925-129.289c2.733-4.78 7.652-7.634 13.157-7.634s10.424 2.854 13.157 7.634l73.925 129.289c2.715 4.749 2.698 10.408-.047 15.139z"/></g></g><g/><g/><g/><g/><g/><g/><g/><g/><g/><g/><g/><g/><g/><g/><g/></svg>