<svg id="Layer_1" enable-background="new 0 0 512 512" viewBox="0 0 512 512" xmlns="http://www.w3.org/2000/svg" fill="#E6ECF2"><g><g fill="#0496FF"><path d="m379.397 423.968c6.075 0 11-4.925 11-11v-39.615c0-6.075-4.925-11-11-11s-11 4.925-11 11v39.615c0 6.075 4.925 11 11 11z"/><path d="m390.18 453.51c-.9-4.511-4.626-8.033-9.164-8.724-4.536-.691-9.161 1.649-11.319 5.692-2.132 3.994-1.553 9.03 1.431 12.435 3.07 3.502 8.173 4.69 12.472 2.906 4.795-1.988 7.589-7.217 6.58-12.309z"/><path d="m227.006 233.756c-6.075 0-11 4.925-11 11v62.457c0 6.075 22 6.075 22 0v-62.457c0-6.075-4.925-11-11-11z"/></g><g><path d="m492.947 453.404-79.563-139.151c-5.173-9.047-13.376-15.423-22.986-18.185v-192.72c0-2.968-1.199-5.811-3.326-7.881l-94.84-92.348c-2.054-2-4.808-3.119-7.674-3.119h-209.943c-6.075 0-11 4.925-11 11v38.797h-38.787c-6.075 0-11 4.925-11 11v394.434c0 6.075 4.925 11 11 11h236.367c-1.551 8.881.042 18.107 4.775 26.264 7.085 12.213 19.744 19.505 33.863 19.505h159.126c14.119 0 26.779-7.292 33.865-19.506 7.088-12.217 7.133-26.83.123-39.09zm-197.39-416.34 56.775 55.283h-56.775zm-209.942-15.064h187.942v81.348c0 6.075 4.925 11 11 11h83.84v181.72c-9.611 2.762-17.814 9.138-22.987 18.185l-45.846 80.181h-213.949zm-49.787 49.797h27.787v333.637c0 6.075 4.925 11 11 11h212.37l-15.894 27.797h-235.263zm437.967 409.657c-3.104 5.351-8.651 8.546-14.836 8.546h-159.126c-6.185 0-11.73-3.195-14.835-8.545-3.105-5.354-3.126-11.758-.054-17.131h-.001l79.563-139.151c3.094-5.409 8.659-8.639 14.889-8.639s11.796 3.23 14.89 8.639l79.563 139.151c3.072 5.373 3.053 11.777-.053 17.13z"/><path d="m296.658 310.216c2.814 0 5.63-1.074 7.777-3.221 4.296-4.295 4.297-11.26.001-15.556l-8.804-8.805c3.44-7.001 5.84-14.601 6.998-22.598h11.646c6.075 0 11-4.925 11-11s-4.925-11-11-11h-11.646c-1.359-9.391-4.432-18.234-8.89-26.202l10.696-10.698c4.296-4.296 4.295-11.261-.001-15.556-4.295-4.295-11.261-4.295-15.556.001l-8.658 8.659c-1.139-1.106-2.311-2.178-3.517-3.212 2.663-6.468 4.051-13.436 4.051-20.494 0-14.919-6.108-28.438-15.954-38.187l4.032-6.514c3.197-5.166 1.602-11.945-3.564-15.143-5.167-3.197-11.945-1.601-15.143 3.564l-3.786 6.117c-6.003-2.322-12.523-3.597-19.336-3.597s-13.333 1.274-19.336 3.597l-3.786-6.117c-3.198-5.167-9.979-6.761-15.143-3.564-5.166 3.197-6.762 9.977-3.564 15.143l4.032 6.514c-9.846 9.749-15.953 23.268-15.953 38.187 0 7.07 1.386 14.03 4.05 20.495-1.205 1.034-2.378 2.106-3.516 3.212l-8.657-8.659c-4.295-4.296-11.261-4.298-15.556-.001-4.296 4.295-4.297 11.26-.001 15.556l10.696 10.698c-4.458 7.968-7.53 16.811-8.889 26.202h-11.646c-6.075 0-11 4.925-11 11s4.925 11 11 11h11.646c1.157 7.997 3.558 15.597 6.997 22.598l-8.804 8.806c-4.295 4.296-4.295 11.261.001 15.556 2.148 2.147 4.962 3.221 7.777 3.221s5.631-1.074 7.779-3.223l5.939-5.94c13.961 15.007 33.871 24.408 55.934 24.408s41.973-9.401 55.934-24.408l5.939 5.94c2.15 2.147 4.965 3.221 7.781 3.221zm-101.403-139.683c0-17.512 14.243-31.759 31.75-31.759s31.75 14.247 31.75 31.759c0 2.879-.389 5.73-1.146 8.475-9.375-4.114-19.728-6.399-30.604-6.399-10.877 0-21.23 2.285-30.605 6.399-.756-2.742-1.145-5.592-1.145-8.475zm31.751 132.929c-30.004 0-54.414-24.416-54.414-54.426s24.41-54.426 54.414-54.426c30.003 0 54.414 24.416 54.414 54.426s-24.411 54.426-54.414 54.426z"/></g></g><g/><g/><g/><g/><g/><g/><g/><g/><g/><g/><g/><g/><g/><g/><g/></svg>