<svg id="Capa_1" enable-background="new 0 0 512 512" height="512" viewBox="0 0 512 512" width="512" xmlns="http://www.w3.org/2000/svg" fill="#052438"><g><g><path d="m411.366 340.61h-8.919v-23.858c0-25.286-20.571-45.858-45.858-45.858-25.286 0-45.858 20.572-45.858 45.858v23.858h-8.918c-6.075 0-11 4.925-11 11v79.675c0 6.075 4.925 11 11 11h109.553c6.075 0 11-4.925 11-11v-79.675c0-6.075-4.925-11-11-11zm-78.635-23.858c0-13.155 10.703-23.858 23.858-23.858s23.858 10.702 23.858 23.858v23.858h-47.716zm67.635 45.858v57.675h-32.776v-28.837c0-6.075-4.925-11-11-11s-11 4.925-11 11v28.837h-32.776v-57.675z" fill="#0496FF"/><path d="m70.756 101.675c-17.048 0-30.918-13.87-30.918-30.919 0-17.048 13.87-30.918 30.918-30.918 17.049 0 30.919 13.87 30.919 30.918 0 17.049-13.87 30.919-30.919 30.919zm0-39.838c-4.917 0-8.918 4.001-8.918 8.918 0 4.918 4.001 8.919 8.918 8.919 4.918 0 8.919-4.001 8.919-8.919 0-4.917-4.001-8.918-8.919-8.918z" fill="#0496FF"/><path d="m150.431 101.675c-17.048 0-30.918-13.87-30.918-30.919 0-17.048 13.87-30.918 30.918-30.918 17.049 0 30.919 13.87 30.919 30.918 0 17.049-13.871 30.919-30.919 30.919zm0-39.838c-4.917 0-8.919 4.001-8.919 8.918 0 4.918 4.001 8.919 8.919 8.919s8.919-4.001 8.919-8.919c0-4.917-4.001-8.918-8.919-8.918z"/><path d="m461.162 101.675h-199.186c-6.075 0-11-4.925-11-11v-39.838c0-6.075 4.925-11 11-11h199.186c6.075 0 11 4.925 11 11v39.837c0 6.076-4.925 11.001-11 11.001zm-188.186-22h177.186v-17.838h-177.186z"/><path d="m70.756 263.016c-17.048 0-30.918-13.87-30.918-30.918 0-17.049 13.87-30.919 30.918-30.919 17.049 0 30.919 13.87 30.919 30.919 0 17.048-13.87 30.918-30.919 30.918zm0-39.837c-4.917 0-8.918 4.001-8.918 8.919 0 4.917 4.001 8.918 8.918 8.918 4.918 0 8.919-4.001 8.919-8.918 0-4.918-4.001-8.919-8.919-8.919z" fill="#0496FF"/><path d="m150.431 263.016c-17.048 0-30.918-13.87-30.918-30.918 0-17.049 13.87-30.919 30.918-30.919 17.049 0 30.919 13.87 30.919 30.919 0 17.048-13.871 30.918-30.919 30.918zm0-39.837c-4.917 0-8.919 4.001-8.919 8.919 0 4.917 4.001 8.918 8.919 8.918s8.919-4.001 8.919-8.918c0-4.918-4.001-8.919-8.919-8.919z"/><path d="m70.756 422.366c-17.048 0-30.918-13.87-30.918-30.918 0-17.049 13.87-30.919 30.918-30.919 17.049 0 30.919 13.87 30.919 30.919 0 17.048-13.87 30.918-30.919 30.918zm0-39.838c-4.917 0-8.918 4.001-8.918 8.919 0 4.917 4.001 8.918 8.918 8.918 4.918 0 8.919-4.001 8.919-8.918 0-4.918-4.001-8.919-8.919-8.919z" fill="#0496FF"/><path d="m150.431 422.366c-17.048 0-30.918-13.87-30.918-30.918 0-17.049 13.87-30.919 30.918-30.919 17.049 0 30.919 13.87 30.919 30.919 0 17.048-13.871 30.918-30.919 30.918zm0-39.838c-4.917 0-8.919 4.001-8.919 8.919 0 4.917 4.001 8.918 8.919 8.918s8.919-4.001 8.919-8.918c0-4.918-4.001-8.919-8.919-8.919z"/><path d="m501 141.512c6.075 0 11-4.925 11-11v-119.512c0-6.075-4.925-11-11-11h-490c-6.075 0-11 4.925-11 11v119.512c0 6.075 4.925 11 11 11h38.797v19.829h-38.797c-6.075 0-11 4.925-11 11v119.512c0 6.075 4.925 11 11 11h38.797v17.837h-38.797c-6.075 0-11 4.925-11 11v119.512c0 6.075 4.925 11 11 11h231.692c28.402 30.609 68.948 49.798 113.898 49.798 85.693 0 155.41-69.717 155.41-155.411 0-18.916-3.402-37.051-9.618-53.832 5.421-.681 9.618-5.298 9.618-10.904v-119.512c0-6.075-4.925-11-11-11h-38.797v-19.829zm-479-119.512h468v97.512h-468zm49.797 280.853h138.963c-2.141 5.792-3.942 11.747-5.388 17.837h-133.575zm-49.797 137.35v-97.512h179.807c-.408 4.58-.629 9.214-.629 13.898 0 30.758 8.983 59.457 24.461 83.614zm334.59 49.797c-73.563 0-133.411-59.848-133.411-133.411s59.848-133.411 133.411-133.411c73.562 0 133.41 59.848 133.41 133.411s-59.848 133.411-133.41 133.411zm133.41-213.038c-27.173-45.355-76.802-75.783-133.41-75.783-58.213 0-109.043 32.178-135.664 79.675h-198.926v-97.512h468zm-49.797-115.621h-368.406v-19.829h368.406z"/></g></g></svg>