<svg id="Capa_1" enable-background="new 0 0 512 512" height="512" viewBox="0 0 512 512" width="512" xmlns="http://www.w3.org/2000/svg" fill="#E6ECF2"><g><g><path d="m471 0h-430c-22.607 0-41 18.393-41 41v430c0 22.607 18.393 41 41 41h430c22.607 0 41-18.393 41-41v-430c0-22.607-18.393-41-41-41zm19 471c0 10.477-8.523 19-19 19h-430c-10.477 0-19-8.523-19-19v-430c0-10.477 8.523-19 19-19h430c10.477 0 19 8.523 19 19z"/><path d="m73.013 134.843c6.075 0 11-4.925 11-11v-39.83h39.83c6.075 0 11-4.925 11-11s-4.925-11-11-11h-50.83c-6.075 0-11 4.925-11 11v50.83c0 6.075 4.925 11 11 11z"/><path d="m123.843 427.987h-39.83v-39.83c0-6.075-4.925-11-11-11s-11 4.925-11 11v50.83c0 6.075 4.925 11 11 11h50.83c6.075 0 11-4.925 11-11s-4.925-11-11-11z"/><path d="m438.987 377.157c-6.075 0-11 4.925-11 11v39.83h-39.83c-6.075 0-11 4.925-11 11s4.925 11 11 11h50.83c6.075 0 11-4.925 11-11v-50.83c0-6.075-4.925-11-11-11z"/><path d="m438.987 62.013h-50.83c-6.075 0-11 4.925-11 11s4.925 11 11 11h39.83v39.83c0 6.075 4.925 11 11 11s11-4.925 11-11v-50.83c0-6.075-4.925-11-11-11z"/><path d="m447.552 262.902c3.247-4.029 3.247-9.775 0-13.805-.869-1.079-21.694-26.736-55.463-52.654-45.265-34.74-92.323-53.103-136.089-53.103s-90.824 18.363-136.089 53.104c-33.769 25.918-54.594 51.575-55.463 52.654-3.247 4.029-3.247 9.775 0 13.805.869 1.079 21.694 26.736 55.463 52.654 45.265 34.74 92.323 53.104 136.089 53.104s90.824-18.363 136.089-53.104c33.768-25.918 54.594-51.576 55.463-52.655zm-359.948-6.902c20.233-22.265 88.877-90.66 168.396-90.66s148.161 68.395 168.395 90.66c-20.233 22.265-88.876 90.66-168.395 90.66s-148.164-68.398-168.396-90.66z"/></g><g fill="#0496FF"><path d="m307.664 256c0-28.487-23.177-51.664-51.664-51.664s-51.664 23.177-51.664 51.664 23.177 51.664 51.664 51.664 51.664-23.177 51.664-51.664zm-51.664 29.664c-16.356 0-29.664-13.308-29.664-29.664s13.308-29.664 29.664-29.664 29.664 13.308 29.664 29.664-13.308 29.664-29.664 29.664z"/><path d="m165.34 256c0-49.188 39.375-89.352 88.261-90.628-33.693.581-65.355 13.293-92.105 29.368-11.478 17.646-18.156 38.687-18.156 61.26s6.678 43.614 18.156 61.259c26.751 16.076 58.412 28.788 92.106 29.369-48.887-1.276-88.262-41.44-88.262-90.628z"/><path d="m350.504 194.74c-26.75-16.075-58.411-28.788-92.105-29.368 48.886 1.276 88.261 41.44 88.261 90.628s-39.375 89.352-88.261 90.628c33.694-.581 65.355-13.293 92.105-29.368 11.478-17.646 18.156-38.686 18.156-61.26s-6.678-43.614-18.156-61.26z"/></g></g></svg>