<svg id="Capa_1" enable-background="new 0 0 512 512" viewBox="0 0 512 512" xmlns="http://www.w3.org/2000/svg" fill="#052438"><g><g><path d="m478.302 444.604c-14.73 0-27.274 9.503-31.844 22.698h-401.76v-401.76c13.194-4.571 22.698-17.115 22.698-31.844 0-18.581-15.117-33.698-33.698-33.698s-33.698 15.117-33.698 33.698c0 14.73 9.503 27.274 22.698 31.844v20.221h-5.226c-6.075 0-11 4.925-11 11s4.925 11 11 11h5.226v41.59h-5.226c-6.075 0-11 4.925-11 11s4.925 11 11 11h5.226v41.59h-5.226c-6.075 0-11 4.925-11 11s4.925 11 11 11h5.226v41.59h-5.226c-6.075 0-11 4.925-11 11s4.925 11 11 11h5.226v41.59h-5.226c-6.075 0-11 4.925-11 11s4.925 11 11 11h5.226v41.59h-5.226c-6.075 0-11 4.925-11 11s4.925 11 11 11h5.226v41.59h-11.698c-6.075 0-11 4.925-11 11s4.925 11 11 11h11.698v11.697c0 6.075 4.925 11 11 11s11-4.925 11-11v-11.698h41.59v5.226c0 6.075 4.925 11 11 11s11-4.925 11-11v-5.226h41.59v5.226c0 6.075 4.925 11 11 11s11-4.925 11-11v-5.226h41.59v5.226c0 6.075 4.925 11 11 11s11-4.925 11-11v-5.226h41.59v5.226c0 6.075 4.925 11 11 11s11-4.925 11-11v-5.226h41.59v5.226c0 6.075 4.925 11 11 11s11-4.925 11-11v-5.226h41.59v5.226c0 6.075 4.925 11 11 11s11-4.925 11-11v-5.226h20.221c4.57 13.195 17.114 22.698 31.843 22.698 18.581 0 33.698-15.117 33.698-33.698s-15.117-33.698-33.698-33.698zm-444.604-422.604c6.45 0 11.698 5.248 11.698 11.698s-5.248 11.698-11.698 11.698-11.698-5.248-11.698-11.698 5.248-11.698 11.698-11.698zm444.604 468c-6.45 0-11.698-5.248-11.698-11.698s5.248-11.698 11.698-11.698 11.698 5.248 11.698 11.698-5.248 11.698-11.698 11.698z"/><path d="m106.195 427.395c6.075 0 11-4.925 11-11v-31.376c0-6.075-4.925-11-11-11s-11 4.925-11 11v31.376c0 6.075 4.925 11 11 11z"/><path d="m106.195 247.615c6.075 0 11-4.925 11-11v-31.58c0-6.075-4.925-11-11-11s-11 4.925-11 11v31.58c0 6.075 4.925 11 11 11z"/><path d="m201.285 332.305c6.075 0 11-4.925 11-11v-31.376c0-6.075-4.925-11-11-11s-11 4.925-11 11v31.376c0 6.075 4.925 11 11 11z"/><path d="m201.285 152.525c6.075 0 11-4.925 11-11v-31.58c0-6.075-4.925-11-11-11s-11 4.925-11 11v31.58c0 6.075 4.925 11 11 11z"/><path d="m296.375 379.85c6.075 0 11-4.925 11-11v-31.376c0-6.075-4.925-11-11-11s-11 4.925-11 11v31.376c0 6.075 4.924 11 11 11z"/><path d="m296.375 200.07c6.075 0 11-4.925 11-11v-31.58c0-6.075-4.925-11-11-11s-11 4.925-11 11v31.58c0 6.075 4.924 11 11 11z"/><path d="m391.464 284.76c6.075 0 11-4.925 11-11v-31.376c0-6.075-4.925-11-11-11s-11 4.925-11 11v31.376c0 6.075 4.925 11 11 11z"/><path d="m391.464 104.98c6.075 0 11-4.925 11-11v-31.58c0-6.075-4.925-11-11-11s-11 4.925-11 11v31.58c0 6.076 4.925 11 11 11z"/></g><g fill="#0496FF"><path d="m129.968 228.398h-47.545c-6.075 0-11 4.925-11 11v142.634c0 6.075 4.925 11 11 11h47.544c6.075 0 11-4.925 11-11v-142.634c.001-6.075-4.924-11-10.999-11zm-11 142.634h-25.545v-120.634h25.544v120.634z"/><path d="m225.058 133.308h-47.545c-6.075 0-11 4.925-11 11v142.634c0 6.075 4.925 11 11 11h47.545c6.075 0 11-4.925 11-11v-142.634c0-6.075-4.925-11-11-11zm-11 142.634h-25.545v-120.634h25.545z"/><path d="m320.147 180.853h-47.544c-6.075 0-11 4.925-11 11v142.634c0 6.075 4.925 11 11 11h47.544c6.075 0 11-4.925 11-11v-142.634c0-6.075-4.925-11-11-11zm-11 142.634h-25.544v-120.634h25.544z"/><path d="m415.237 85.763h-47.545c-6.075 0-11 4.925-11 11v142.635c0 6.075 4.925 11 11 11h47.545c6.075 0 11-4.925 11-11v-142.635c0-6.075-4.925-11-11-11zm-11 142.635h-25.545v-120.635h25.545z"/></g></g><g/><g/><g/><g/><g/><g/><g/><g/><g/><g/><g/><g/><g/><g/><g/></svg>