<svg id="Capa_1" enable-background="new 0 0 512 512" viewBox="0 0 512 512" xmlns="http://www.w3.org/2000/svg" fill="#052438"><g><g><path d="m434.347 84.107-80.886-80.885c-2.063-2.063-4.86-3.222-7.778-3.222h-259.683c-6.075 0-11 4.925-11 11v172.5c0 6.075 4.925 11 11 11s11-4.925 11-11v-161.5h237.683v69.886c0 6.075 4.925 11 11 11h69.885v80.614c0 6.075 4.925 11 11 11s11-4.925 11-11v-91.614c0-2.917-1.159-5.715-3.221-7.779zm-77.664-46.551 43.329 43.329h-43.329z"/><path d="m139.43 147.886h233.709c6.075 0 11-4.925 11-11s-4.925-11-11-11h-233.709c-6.075 0-11 4.925-11 11s4.924 11 11 11z"/><path d="m139.43 102.886h116.854c6.075 0 11-4.925 11-11s-4.925-11-11-11h-116.854c-6.075 0-11 4.925-11 11s4.924 11 11 11z"/><path d="m130.79 317.5c-6.075 0-11 4.925-11 11v161.5h-22.79v-161.5c0-6.075-4.925-11-11-11s-11 4.925-11 11v172.5c0 6.075 4.925 11 11 11h44.79c6.075 0 11-4.925 11-11v-172.5c0-6.075-4.925-11-11-11z"/><path d="m229.383 317.5c-6.075 0-11 4.925-11 11v161.5h-22.79v-161.5c0-6.075-4.925-11-11-11s-11 4.925-11 11v172.5c0 6.075 4.925 11 11 11h44.79c6.075 0 11-4.925 11-11v-172.5c0-6.075-4.925-11-11-11z"/><path d="m327.976 317.5c-6.075 0-11 4.925-11 11v161.5h-22.79v-161.5c0-6.075-4.925-11-11-11s-11 4.925-11 11v172.5c0 6.075 4.925 11 11 11h44.79c6.075 0 11-4.925 11-11v-172.5c0-6.075-4.925-11-11-11z"/><path d="m426.568 317.5c-6.075 0-11 4.925-11 11v161.5h-22.79v-161.5c0-6.075-4.925-11-11-11s-11 4.925-11 11v172.5c0 6.075 4.925 11 11 11h44.79c6.075 0 11-4.925 11-11v-172.5c0-6.075-4.924-11-11-11z"/></g><g><g><path d="m471 334.5h-430c-22.607 0-41-18.393-41-41v-75c0-22.607 18.393-41 41-41h430c22.607 0 41 18.393 41 41v75c0 22.607-18.393 41-41 41zm-430-135c-10.477 0-19 8.523-19 19v75c0 10.477 8.523 19 19 19h430c10.477 0 19-8.523 19-19v-75c0-10.477-8.523-19-19-19z" fill="#0496FF"/></g><g><path d="m404 289c-18.196 0-33-14.804-33-33 0-18.197 14.804-33.001 33-33.001s33 14.804 33 33.001c0 18.196-14.804 33-33 33zm0-44.001c-6.065 0-11 4.935-11 11.001 0 6.065 4.935 11 11 11 6.066 0 11-4.935 11-11 0-6.066-4.935-11.001-11-11.001z" fill="#0496FF"/></g><g><path d="m337.007 267h-.007c-6.075 0-11-4.925-11-11s4.925-11 11-11 11.003 4.925 11.003 11-4.92 11-10.996 11z" fill="#0496FF"/></g><g><path d="m292.008 267h-.008c-6.075 0-11-4.925-11-11s4.925-11 11-11 11.004 4.925 11.004 11-4.921 11-10.996 11z" fill="#0496FF"/></g><g><path d="m247.008 267h-.008c-6.075 0-11-4.925-11-11s4.925-11 11-11 11.004 4.925 11.004 11-4.921 11-10.996 11z" fill="#0496FF"/></g></g></g><g/><g/><g/><g/><g/><g/><g/><g/><g/><g/><g/><g/><g/><g/><g/></svg>