<svg id="Capa_1" enable-background="new 0 0 512 512" viewBox="0 0 512 512" xmlns="http://www.w3.org/2000/svg" fill="#E6ECF2"><g><g><path d="m437.019 74.981c-48.352-48.353-112.639-74.981-181.019-74.981s-132.667 26.628-181.019 74.981c-48.353 48.352-74.981 112.639-74.981 181.019s26.628 132.667 74.981 181.019c48.352 48.353 112.639 74.981 181.019 74.981s132.667-26.628 181.019-74.981c48.353-48.352 74.981-112.639 74.981-181.019s-26.628-132.667-74.981-181.019zm-15.556 346.482c-44.197 44.197-102.96 68.537-165.463 68.537s-121.266-24.34-165.463-68.537-68.537-102.96-68.537-165.463 24.34-121.266 68.537-165.463 102.96-68.537 165.463-68.537 121.266 24.34 165.463 68.537 68.537 102.96 68.537 165.463-24.34 121.266-68.537 165.463z"/><path d="m256 45.468c-116.088 0-210.532 94.444-210.532 210.532s94.444 210.532 210.532 210.532 210.532-94.444 210.532-210.532-94.444-210.532-210.532-210.532zm-11 22.329v50.111c-52.815 4.169-97.387 38.089-116.927 84.96l-47.674-15.49c26.225-66.878 89.604-115.244 164.601-119.581zm-177.532 188.203c0-16.475 2.131-32.461 6.12-47.703l47.674 15.49c-2.472 10.341-3.79 21.125-3.79 32.213 0 40.481 17.937 79.062 48.463 105.25l-29.411 40.481c-42.133-34.604-69.056-87.081-69.056-145.731zm308.009 145.731-29.411-40.48c30.525-26.189 48.462-64.771 48.462-105.251 0-9.288-.926-18.573-2.751-27.599-1.205-5.954-7.011-9.804-12.963-8.601-5.955 1.205-9.805 7.008-8.601 12.963 1.536 7.593 2.315 15.411 2.315 23.237 0 37.025-17.839 72.163-47.739 94.069-.099.067-.198.137-.296.208-4.913 3.571-6.001 10.449-2.432 15.363l35.635 49.048c-29.359 18.881-64.271 29.844-101.697 29.844s-72.337-10.963-101.697-29.844l35.631-49.042c3.568-4.912 2.482-11.787-2.426-15.36-30.079-21.891-48.037-57.138-48.037-94.286 0-64.254 52.274-116.528 116.528-116.528 44.955 0 86.371 26.299 105.512 67 2.586 5.498 9.137 7.857 14.636 5.272 5.497-2.585 7.858-9.138 5.272-14.636-11.035-23.462-28.396-43.331-50.206-57.457-19.323-12.515-41.331-19.927-64.215-21.733v-50.121c74.997 4.337 138.376 52.703 164.601 119.581l-34.055 11.065c-5.777 1.877-8.939 8.083-7.062 13.861 1.51 4.648 5.822 7.604 10.459 7.604 1.126 0 2.272-.174 3.402-.542l34.068-11.069c3.989 15.242 6.12 31.228 6.12 47.703.002 58.65-26.921 111.127-69.053 145.731z"/></g><g fill="#0496FF"><path d="m407.45 206.791c-3.083-9.486-11.829-15.248-21.758-14.327l-106.5 9.827c-7.116-3.084-14.955-4.803-23.191-4.803-32.264 0-58.513 26.249-58.513 58.513s26.249 58.513 58.513 58.513c21.372 0 40.096-11.524 50.308-28.679l91.961-54.663c8.573-5.098 12.262-14.896 9.18-24.381zm-151.45 85.722c-20.133 0-36.513-16.38-36.513-36.513s16.38-36.513 36.513-36.513 36.513 16.38 36.513 36.513-16.38 36.513-36.513 36.513zm58.497-37.139c-.131-12.378-4.126-23.839-10.832-33.248l79.033-7.292z"/><path d="m274.665 365.683c6.075 0 11-4.925 11-11s-4.925-11-11-11h-37.333c-6.075 0-11 4.925-11 11s4.925 11 11 11z"/><path d="m297.968 387.242h-83.94c-6.075 0-11 4.925-11 11s4.925 11 11 11h83.94c6.075 0 11-4.925 11-11s-4.925-11-11-11z"/></g></g><g/><g/><g/><g/><g/><g/><g/><g/><g/><g/><g/><g/><g/><g/><g/></svg>