<svg id="Capa_1" enable-background="new 0 0 512 512" viewBox="0 0 512 512" xmlns="http://www.w3.org/2000/svg" fill="#E6ECF2"><g><path d="m509.116 248.575-53.333-58.296c-26.186-28.623-57.352-50.828-92.631-66-33.947-14.599-69.998-22.001-107.152-22.001s-73.205 7.402-107.152 22.001c-35.279 15.172-66.445 37.378-92.631 66l-53.333 58.296c-3.845 4.203-3.845 10.646 0 14.85l53.333 58.296c26.186 28.623 57.352 50.828 92.631 66 33.947 14.599 69.998 22.001 107.152 22.001s73.205-7.402 107.152-22.001c35.279-15.172 66.445-37.378 92.631-66l53.333-58.296c3.845-4.204 3.845-10.647 0-14.85zm-384.377 18.425h46.807c5.416 41.792 41.21 74.188 84.453 74.188 19.529 0 37.531-6.621 51.916-17.716l33.076 33.076c-22.957 19.435-52.627 31.175-84.991 31.175-68.928 0-125.653-53.219-131.261-120.723zm131.261 52.187c-34.842 0-63.188-28.346-63.188-63.188s28.346-63.187 63.188-63.187 63.188 28.346 63.188 63.187-28.346 63.188-63.188 63.188zm-11-194.447v46.807c-38.188 4.948-68.505 35.266-73.453 73.453h-46.807c5.306-63.876 56.383-114.954 120.26-120.26zm111.548 216.251-33.076-33.076c11.094-14.385 17.715-32.387 17.715-51.916 0-8.566-1.284-16.836-3.647-24.641l42.67-19.207c4.859 13.724 7.513 28.481 7.513 43.848 0 32.366-11.74 62.035-31.175 84.992zm-28.065-129.682c-13.194-21.32-35.523-36.399-61.484-39.763v-46.806c44.811 3.723 83.321 29.971 104.152 67.363zm-256.034 95.562-46.54-50.871 46.54-50.872c20.658-22.58 44.685-40.795 71.562-54.317-25.864 27.519-41.735 64.533-41.735 105.189s15.871 77.67 41.735 105.189c-26.877-13.522-50.904-31.738-71.562-54.318zm367.102 0c-20.658 22.58-44.685 40.795-71.562 54.317 25.864-27.519 41.735-64.533 41.735-105.189s-15.871-77.67-41.735-105.189c26.877 13.522 50.905 31.738 71.562 54.317l46.54 50.873z"/><g fill="#0496FF"><path d="m256 13.789c-6.075 0-11 4.925-11 11v44.33c0 6.075 4.925 11 11 11s11-4.925 11-11v-44.33c0-6.075-4.925-11-11-11z"/><path d="m172.132 44.745c-2.537-5.519-9.067-7.938-14.589-5.399-5.521 2.538-7.938 9.07-5.399 14.589l15.029 32.688c1.854 4.031 5.837 6.407 10.001 6.407 1.537 0 3.1-.324 4.588-1.008 5.521-2.538 7.938-9.07 5.399-14.589z"/><path d="m330.237 92.022c1.489.685 3.051 1.008 4.589 1.008 4.164 0 8.147-2.376 10.001-6.407l15.03-32.688c2.538-5.52.121-12.051-5.398-14.589-5.521-2.538-12.052-.121-14.59 5.399l-15.03 32.688c-2.538 5.519-.121 12.051 5.398 14.589z"/><path d="m256 431.88c-6.075 0-11 4.925-11 11v44.33c0 6.075 4.925 11 11 11s11-4.925 11-11v-44.33c0-6.075-4.925-11-11-11z"/><path d="m181.761 419.977c-5.518-2.537-12.051-.121-14.589 5.399l-15.029 32.688c-2.538 5.52-.121 12.052 5.399 14.589 1.488.685 3.05 1.008 4.588 1.008 4.164 0 8.147-2.376 10.001-6.407l15.029-32.688c2.539-5.519.122-12.051-5.399-14.589z"/><path d="m344.827 425.376c-2.537-5.519-9.069-7.938-14.59-5.399-5.52 2.538-7.937 9.07-5.398 14.589l15.03 32.688c1.854 4.031 5.837 6.407 10.001 6.407 1.537 0 3.101-.324 4.589-1.008 5.52-2.538 7.937-9.07 5.398-14.589z"/></g></g><g/><g/><g/><g/><g/><g/><g/><g/><g/><g/><g/><g/><g/><g/><g/></svg>