<svg id="Layer_1" enable-background="new 0 0 512 512" viewBox="0 0 512 512" xmlns="http://www.w3.org/2000/svg" fill="#052438"><g><g><path d="m85.612 348.153 57.484-86.042c1.675-2.507 2.248-5.592 1.583-8.533l-28.23-125.078-21.46 4.844 27.191 120.472-54.861 82.116z"/><path d="m256.618 440.407-163.492-71.06-8.77 20.177 167.258 72.697c1.395.606 2.888.912 4.385.912 1.11 0 2.224-.168 3.3-.506l92.613-29.121-6.6-20.987z"/><path d="m436.616 78.759-20.578-7.781-68.496 181.131c-.636 1.68-.85 3.491-.624 5.273l15.852 125.089 21.826-2.766-15.508-122.375z"/><path d="m256 123.959c1.329 0 2.649-.241 3.897-.714l151.139-57.266-7.795-20.573-148.76 56.365-122.095-11.298-2.027 21.906 124.628 11.533c.337.031.675.047 1.013.047z"/></g><g fill="#0496FF"><path d="m98.372 142.372c24.262 0 44-19.738 44-44s-19.738-44-44-44-44 19.738-44 44 19.738 44 44 44zm0-66c12.131 0 22 9.869 22 22s-9.869 22-22 22-22-9.869-22-22 9.869-22 22-22z"/><path d="m59.867 322.886c-24.262 0-44 19.738-44 44s19.738 44 44 44 44-19.738 44-44-19.738-44-44-44zm0 66c-12.131 0-22-9.869-22-22s9.869-22 22-22 22 9.869 22 22-9.869 22-22 22z"/><path d="m438 88c24.262 0 44-19.738 44-44s-19.738-44-44-44-44 19.738-44 44 19.738 44 44 44zm0-66c12.131 0 22 9.869 22 22s-9.869 22-22 22-22-9.869-22-22 9.869-22 22-22z"/><path d="m377.831 369.825c-24.262 0-44 19.738-44 44s19.738 44 44 44 44-19.738 44-44-19.738-44-44-44zm0 66c-12.131 0-22-9.869-22-22s9.869-22 22-22 22 9.869 22 22-9.869 22-22 22z"/><path d="m501 245h-234v-234c0-6.075-4.925-11-11-11s-11 4.925-11 11v234h-234c-6.075 0-11 4.925-11 11s4.925 11 11 11h234v234c0 6.075 4.925 11 11 11s11-4.925 11-11v-234h234c6.075 0 11-4.925 11-11s-4.925-11-11-11z"/></g></g><g/><g/><g/><g/><g/><g/><g/><g/><g/><g/><g/><g/><g/><g/><g/></svg>