<svg id="Capa_1" enable-background="new 0 0 512 512" viewBox="0 0 512 512" xmlns="http://www.w3.org/2000/svg" fill="#052438"><g><g><path d="m501 435h-8v-313.999c0-17.093-13.906-31-31-31h-113.934c-6.075 0-11 4.925-11 11s4.925 11 11 11h113.934c4.963 0 9 4.037 9 9v268.998h-430v-268.998c0-4.962 4.037-9 9-9h113.935c6.075 0 11-4.925 11-11s-4.925-11-11-11h-113.935c-17.094 0-31 13.906-31 31v313.999h-8c-6.075 0-11 4.925-11 11v35c0 17.093 13.906 31 31 31h450c17.094 0 31-13.906 31-31v-35c0-6.075-4.925-11-11-11zm-460-23.001h430v23.001h-155c-2.917 0-5.715 1.159-7.778 3.222l-6.779 6.778h-90.887l-6.778-6.778c-2.063-2.063-4.861-3.222-7.778-3.222h-155zm449 69.001c0 4.962-4.037 9-9 9h-450c-4.963 0-9-4.037-9-9v-24h169.443l6.778 6.778c2.063 2.063 4.861 3.222 7.778 3.222h100c2.917 0 5.715-1.159 7.778-3.222l6.778-6.778h169.445z"/><path d="m256.001 351.754c18.747 0 33.999-15.252 33.999-34 0-14.9-9.634-27.592-23-32.174v-69.58c0-6.075-4.925-11-11-11s-11 4.925-11 11v69.581c-13.366 4.583-23 17.274-23 32.173 0 18.747 15.253 34 34.001 34zm0-46c6.616 0 11.999 5.383 11.999 12s-5.383 12-11.999 12c-6.617 0-12.001-5.383-12.001-12s5.384-12 12.001-12z"/><path d="m157.342 217.782c-4.582-13.366-17.273-23-32.174-23-18.748 0-34 15.252-34 34s15.252 34 34 34c14.9 0 27.591-9.634 32.174-23h15.777c3.93 0 7.562-2.097 9.526-5.5l25.763-44.621c3.037-5.261 1.235-11.989-4.026-15.026s-11.989-1.234-15.026 4.026l-22.587 39.121zm-32.174 23c-6.617 0-12-5.383-12-12s5.383-12 12-12 12 5.383 12 12-5.383 12-12 12z"/><path d="m329.355 234.282c1.965 3.403 5.597 5.5 9.526 5.5h15.778c4.582 13.366 17.273 23 32.174 23 18.748 0 34-15.252 34-34s-15.252-34-34-34c-14.9 0-27.591 9.634-32.174 23h-9.427l-22.586-39.121c-3.038-5.261-9.762-7.064-15.026-4.026-5.261 3.038-7.063 9.765-4.026 15.026zm57.478-17.5c6.617 0 12 5.383 12 12s-5.383 12-12 12-12-5.383-12-12 5.383-12 12-12z"/></g><g fill="#0496FF"><path d="m345.431 44.715c-18.591 0-33.715-15.125-33.715-33.715 0-6.075-4.925-11-11-11h-89.431c-6.075 0-11 4.925-11 11 0 18.591-15.124 33.715-33.715 33.715-6.075 0-11 4.925-11 11 0 69.111 11.594 142.869 97.584 165.91.933.25 1.89.375 2.847.375s1.914-.125 2.847-.375c85.989-23.041 97.583-96.798 97.583-165.91 0-6.075-4.925-11-11-11zm-89.43 154.867c-62.015-17.926-77.088-66.416-78.342-133.975 21.872-4.434 39.135-21.722 43.535-43.607h69.612c4.4 21.885 21.663 39.173 43.535 43.607-1.253 67.559-16.326 116.049-78.34 133.975z"/><path d="m268.5 82.5h-24.999c-6.075 0-11 4.925-11 11s4.925 11 11 11h1.499v24c0 6.075 4.925 11 11 11s11-4.925 11-11v-24h1.5c6.075 0 11-4.925 11-11s-4.925-11-11-11z"/></g></g><g/><g/><g/><g/><g/><g/><g/><g/><g/><g/><g/><g/><g/><g/><g/></svg>