<svg id="Capa_1" enable-background="new 0 0 512.008 512.008" height="512" viewBox="0 0 512.008 512.008" width="512" xmlns="http://www.w3.org/2000/svg" fill="#052438"><g><path d="m158.812 218.167c-12.829-.244-15.191-18.215-2.684-21.668 102.035-27.885 85.237-171.534-19.664-174.491-104.745 3.219-121.805 145.442-19.589 174.244 5.872 1.553 9.375 7.573 7.822 13.447s-7.573 9.376-13.446 7.823c-23.626-6.246-45.182-20.171-60.697-39.211-59.103-70.179-4.468-179.471 85.913-178.302 131.531 4.446 151.794 182.656 25.046 217.821-.904.228-1.81.337-2.701.337z" fill="#0496FF"/><path d="m375.489 221.194c-60.981 0-110.593-49.612-110.593-110.593 5.56-146.514 215.648-146.475 221.186.001-.001 60.981-49.612 110.592-110.593 110.592zm0-199.186c-48.851 0-88.593 39.743-88.593 88.593 4.454 117.369 172.75 117.338 177.186-.001-.001-48.849-39.743-88.592-88.593-88.592z" fill="#0496FF"/><path d="m252.9 512.008c-6.075 0-11-4.925-11-11v-22.68c0-3.605 1.767-6.981 4.728-9.037 25.348-17.593 40.481-46.348 40.481-76.919v-59.756c-.116-12.834-17.82-17.799-25.241-7.07-5.511 7.9-18.167 5.074-19.794-4.42-2.222-12.002-17.949-15.617-25.024-5.54-2.564 3.61-7.042 5.33-11.365 4.366-4.322-.965-7.643-4.428-8.428-8.786-3.102-15.152-24.266-15.141-27.362 0-1.01 5.605-6.136 9.503-11.805 9.006-5.673-.507-10.021-5.261-10.021-10.956v-110.498c-.585-15.378-22.63-15.366-23.209 0v178.716c-.541 14.579-21.464 14.568-22 0v-17.519c-.936.836-1.821 1.797-2.654 2.883-7.066 9.208-9.015 24.929-4.963 40.048 8.646 32.272 24.005 53.691 49.8 69.451 3.27 1.998 5.265 5.554 5.265 9.387v19.325c-.541 14.579-21.464 14.568-22 0v-13.307c-39.448-24.52-76.543-94.861-45.557-138.297 5.365-6.991 12.293-11.805 20.109-14.101v-136.586c1.695-44.531 65.53-44.497 67.209 0v81.628c14.42-6.203 32.856-1.018 41.924 11.325 14.796-8.085 35.093-3.322 44.817 9.96 22.994-12.319 52.665 5.102 52.298 30.985v59.756c0 35.834-16.794 69.627-45.209 91.532v17.104c.001 6.076-4.924 11-10.999 11z"/><path d="m363.039 146.5c-2.917 0-5.715-1.159-7.778-3.222l-24.898-24.899c-4.296-4.295-4.295-11.26 0-15.556 4.296-4.296 11.26-4.296 15.557 0l17.12 17.12 42.018-42.018c10.692-9.927 25.479 4.876 15.557 15.557l-49.796 49.796c-2.064 2.062-4.862 3.222-7.78 3.222z"/><path d="m152.022 110.601 19.61-19.61c4.295-4.296 4.295-11.261 0-15.557-4.296-4.296-11.261-4.296-15.557 0l-19.61 19.61-19.61-19.61c-4.296-4.296-11.261-4.296-15.557 0-4.295 4.296-4.295 11.261 0 15.557l19.61 19.61-19.61 19.61c-4.295 4.296-4.295 11.261 0 15.557 4.296 4.296 11.261 4.296 15.557 0l19.61-19.61 19.61 19.61c4.296 4.296 11.26 4.296 15.557 0 4.295-4.296 4.295-11.261 0-15.557z"/></g></svg>