<svg id="Capa_1" enable-background="new 0 0 512.46 512.46" height="512" viewBox="0 0 512.46 512.46" width="512" xmlns="http://www.w3.org/2000/svg" fill="#E6ECF2"><g><g fill="#0496FF"><path d="m61.003 392.726c-6.075 0-11-4.925-11-11v-85.654c0-6.075 4.925-11 11-11h93.46c14.579.541 14.568 21.464 0 22h-82.46v74.654c0 6.075-4.925 11-11 11z"/><path d="m451.631 392.726c-6.075 0-11-4.925-11-11v-74.654h-82.342c-14.579-.541-14.568-21.464 0-22h93.342c6.075 0 11 4.925 11 11v85.654c0 6.075-4.925 11-11 11z"/><path d="m151.991 227.404h-90.988c-6.075 0-11-4.925-11-11v-85.441c.541-14.579 21.464-14.568 22 0v74.441h79.988c14.579.541 14.568 21.464 0 22z"/><path d="m451.631 227.404h-93.128c-14.579-.541-14.568-21.464 0-22h82.128v-74.441c.541-14.579 21.464-14.568 22 0v85.441c0 6.075-4.925 11-11 11z"/><path d="m256.317 283.958c-6.075 0-11-4.925-11-11 0-16.077 3.334-20.13 19.084-36.632 6.773-6.909 1.601-19.003-8.084-18.884-6.16 0-11.172 5.012-11.172 11.172 0 6.075-4.925 11-11 11s-11-4.925-11-11c0-18.291 14.881-33.172 33.172-33.172 28.874-.195 44.089 35.365 23.998 56.073-6.476 6.785-10.515 11.095-11.994 13.733-.714 1.273-1.004 2.327-1.004 7.709 0 6.076-4.925 11.001-11 11.001z"/><path d="m256.317 317.034c-14.579-.54-14.575-21.463-.006-22h.006c14.579.541 14.568 21.465 0 22z"/></g><path d="m97.163 69.436c27.025-91.992-98.976-92.435-72.438-.263-13.177 11.563-24.408 29.812-24.408 48.535-.008 8.982-2.162 23.842 11.001 24.041-.001 0 99.372 0 99.372 0 6.075 0 11-4.925 11-11 2.505-22.887-6.926-46.915-24.527-61.313zm-53.552-29.806c.408-22.851 34.377-22.858 34.785.001-.244 3.414.548 15.63-.621 18.731-3.682 6.974-7.755 13.062-16.772 12.856-8.764.222-13.178-5.749-16.714-12.639-1.278-3.167-.452-15.462-.678-18.949zm56.078 80.12h-77.372c-.686-12.081 7.051-25.018 16.339-33.509 12.422 9.138 32.009 9.204 44.495.142 9.505 8.49 17.223 21.235 16.538 33.367z"/><path d="m256.317 376.79c-66.473 0-120.552-54.079-120.552-120.552 6.061-159.709 235.068-159.666 241.105.002-.001 66.471-54.081 120.55-120.553 120.55zm0-219.104c-54.342 0-98.552 44.21-98.552 98.552 4.955 130.563 192.17 130.528 197.105-.001-.001-54.341-44.211-98.551-98.553-98.551z"/><path d="m488.096 68.705c25.656-91.636-98.994-91.078-72.818.287-17.385 14.207-26.854 38.748-24.332 61.759-.002 6.075 4.923 10.999 10.998 10.999h99.373c13.109-.182 11.044-15.065 10.999-24.042.001-19.118-11.168-37.527-24.22-49.003zm-53.858-29.075c.408-22.851 34.377-22.858 34.785.001-.313 4.526.865 16.407-1.198 20.493-6.544 14.974-26.292 14.636-32.538-.41-1.847-3.817-.779-15.869-1.049-20.084zm56.079 80.12h-77.373c-.683-12.173 6.995-25.201 16.182-33.62 12.631 9.404 32.693 9.325 45.246-.169 9.059 8.397 16.62 21.51 15.945 33.789z"/><path d="m96.758 440.82c4.565-8.281 3.588-21.387 3.638-30.701-1.987-52.2-76.816-52.161-78.785 0 .084 9.356-.937 22.42 3.657 30.743-20.069 15.396-26.897 37.702-24.95 60.376-.001 6.075 4.923 11 10.999 11h99.373c13.109-.182 11.044-15.065 10.999-24.042 0-20.303-12.183-37.077-24.931-47.376zm-53.147-30.702c.41-22.855 34.378-22.855 34.785.001 0-.001 0 14.196 0 14.196-.408 22.85-34.377 22.858-34.785-.001zm56.078 80.12h-77.372c-.774-13.035 7.64-25.34 17.459-32.766 12.084 8.236 30.457 8.216 42.522-.043 9.629 7.506 18.172 19.922 17.391 32.809z"/><path d="m488.122 439.128c23.221-78.483-71.081-91.251-75.885-29.01.133 8.862-.931 21.603 3.141 29.602-17.464 14.192-26.965 38.567-24.432 61.518-.002 6.075 4.923 11 10.998 11h99.373c13.109-.182 11.044-15.065 10.999-24.042.001-19.154-11.153-37.581-24.194-49.068zm-53.884-29.01c.408-22.851 34.377-22.858 34.785.001-.305 4.39.824 16.292-1.115 20.265-4.681 12.18-21.405 15.41-29.678 5.004-5.479-5.807-3.793-18.021-3.992-25.27zm56.079 80.12h-77.373c-.685-12.26 6.982-25.146 16.353-33.499 12.646 9.306 32.632 9.152 45.127-.328 9.035 8.409 16.566 21.533 15.893 33.827z"/></g></svg>