<svg id="Capa_1" enable-background="new 0 0 512.001 512.001" height="512" viewBox="0 0 512.001 512.001" width="512" xmlns="http://www.w3.org/2000/svg" fill="#E6ECF2"><g><g><path d="m501 430.246h-68.674v-379.407c0-13.638-5.351-26.462-15.066-36.109-9.66-9.593-22.454-14.858-35.892-14.727h-330.51c-28.038-.013-50.857 22.799-50.857 50.836v19.918c0 6.075 4.925 11 11 11h68.674v379.407c0 28.032 22.805 50.837 50.837 50.837h330.651c28.031 0 50.837-22.806 50.837-50.837v-19.917c0-6.076-4.925-11.001-11-11.001zm-421.325-370.489h-57.674v-8.918c0-15.899 12.933-28.834 28.831-28.837h.006.019c15.892.01 28.818 12.942 28.818 28.837zm82.896 373.711c-2.063 2.063-3.222 4.861-3.222 7.779l.001 19.917c-1.454 38.214-56.234 38.185-57.674 0v-410.325c0-10.702-3.332-20.637-9.002-28.837h288.772c7.621-.056 14.845 2.907 20.314 8.339 5.524 5.486 8.567 12.766 8.567 20.498v379.407h-239.978c-2.917 0-5.715 1.16-7.778 3.222zm327.429 27.696c0 15.901-12.936 28.837-28.837 28.837h-288.803c5.668-8.199 8.99-18.137 8.99-28.837v-8.917h308.65z"/><path d="m341.653 81.757h-171.304c-14.579-.541-14.568-21.464 0-22h171.303c14.58.541 14.569 21.465.001 22z" fill="#0496FF"/><path d="m341.653 122.923h-126.49c-14.579-.541-14.568-21.464 0-22h126.49c14.579.541 14.568 21.464 0 22z"/><path d="m341.653 369.914h-171.304c-14.579-.541-14.568-21.464 0-22h171.303c14.58.541 14.569 21.465.001 22z" fill="#0496FF"/><path d="m341.653 411.08h-171.304c-14.579-.541-14.568-21.464 0-22h171.303c14.58.541 14.569 21.464.001 22z"/><g fill="#0496FF"><path d="m256.001 287.148c-6.075 0-11-4.925-11-11 0-13.553 8.982-23.61 20.723-35.351 8.853-8.626 2.605-23.882-9.723-23.83-7.663 0-13.898 6.234-13.898 13.897 0 6.075-4.925 11-11 11s-11-4.925-11-11c0-19.794 16.104-35.897 35.898-35.897 31.719-.179 47.954 39.173 25.279 61.386-10.542 10.542-14.278 15.721-14.278 19.794-.001 6.077-4.927 11.001-11.001 11.001z"/><path d="m256.001 317.032c-6.075 0-11-4.921-11-10.996v-.008c0-6.075 4.925-11 11-11 14.578.54 14.569 21.465 0 22.004z"/><path d="m341.653 164.088h-171.304c-14.579-.541-14.568-21.464 0-22h171.303c14.58.541 14.569 21.465.001 22z"/></g><path d="m170.349 122.923c-14.579-.539-14.576-21.463-.007-22h.007c14.58.541 14.569 21.464 0 22z"/></g></g></svg>