<svg id="Capa_1" enable-background="new 0 0 512 512" height="512" viewBox="0 0 512 512" width="512" xmlns="http://www.w3.org/2000/svg" fill="#052438"><g><path d="m110.593 376.714c-14.579-.539-14.575-21.463-.007-22h.007c14.579.541 14.568 21.464 0 22z"/><path d="m401.415 376.714c-14.579-.539-14.576-21.462-.007-22h.007c14.579.541 14.568 21.464 0 22z"/><path d="m491.223 297.039h-25.081c-14.579-.541-14.568-21.464 0-22h25.081c14.579.541 14.568 21.465 0 22z" fill="#0496FF"/><path d="m256.002 140.589h-179.268c-6.075 0-11 4.925-11 11v119.511c0 6.075 4.925 11 11 11h179.268c6.075 0 11-4.925 11-11v-119.511c0-6.075-4.924-11-11-11zm-11 84.774-19.727-14.324 19.727-14.324zm0-62.774v6.94l-76.372 55.452c-.811.587-1.67.712-2.268.712-.585 0-1.442-.122-2.25-.707l-76.378-55.457v-6.94zm-157.268 34.127 19.727 14.324-19.727 14.324zm0 63.384v-7.549l38.449-27.918 25.01 18.159c8.762 6.517 21.6 6.508 30.356-.004l25.003-18.155 38.449 27.918v7.549z" fill="#0496FF"/><path d="m502.04 314.929v-68.727c0-2.917-1.159-5.715-3.222-7.778l-19.918-19.918c-2.063-2.063-4.861-3.222-7.778-3.222h-23.164l-41.48-93.071c-1.768-3.967-5.705-6.522-10.047-6.522h-73.653v-18.879c0-6.075-4.925-11-11-11h-290.819c-6.075 0-11 4.925-11 11v218.117c-5.586.525-9.959 5.224-9.959 10.948v39.837c0 6.075 4.925 11 11 11h39.808c13.209 65.987 106.379 65.942 119.562 0h171.26c13.209 65.988 106.378 65.941 119.562 0h39.808c6.075 0 11-4.925 11-11v-39.837c0-5.724-4.373-10.423-9.96-10.948zm-134.446-177.239h21.696l34.582 77.593h-56.278zm-22 0v88.593c0 6.075 4.925 11 11 11h109.972l13.475 13.475v64.118h-45.343c-18.822-13.127-47.75-13.127-66.572 0h-45.348v-177.186zm-3.963 217.024h-171.261c-1.164-6.34-3.3-12.344-6.272-17.837h183.804c-2.971 5.493-5.107 11.497-6.271 17.837zm-40.854-246.902v16.368c-.394 1.602-.394 3.418 0 5.02v185.677h-156.901c-18.822-13.127-47.751-13.127-66.573 0h-45.344v-207.065zm-278.777 229.065h35.081c-2.972 5.493-5.108 11.497-6.272 17.837h-28.809zm88.59 67.634c-36.918-.063-52.634-47.135-23.805-69.399.424-.274.826-.576 1.207-.904 12.539-9.563 32.424-9.621 45.02-.125.47.419.975.796 1.511 1.13 28.687 22.345 12.878 69.246-23.933 69.298zm290.821 0c-21.326 0-38.683-17.296-38.791-38.597.011-.133.011-.266 0-.399.063-12.322 5.902-23.297 14.939-30.365.465-.297.906-.627 1.32-.988 12.727-9.672 32.916-9.525 45.497.308.147.117.299.228.452.338 29.306 22.07 13.737 69.63-23.417 69.703zm88.589-49.797h-28.808c-1.164-6.34-3.3-12.344-6.272-17.837h35.08z"/></g></svg>