<svg id="Capa_1" enable-background="new 0 0 511.933 511.933" height="512" viewBox="0 0 511.933 511.933" width="512" xmlns="http://www.w3.org/2000/svg" fill="#E6ECF2"><g><g fill="#0496FF"><path d="m246.427 345.702c-3.736.001-7.379-1.903-9.441-5.339-3.127-5.208-1.441-11.966 3.768-15.093 11.502-6.906 17.93-20.774 16.375-35.332-1.005-9.569-5.672-18.157-13.143-24.2-7.475-6.047-16.855-8.82-26.411-7.805-11.457 1.208-20.951 7.394-26.74 17.418-3.037 5.261-9.764 7.064-15.026 4.025-5.261-3.038-7.062-9.766-4.024-15.027 9.266-16.044 25.111-26.357 43.477-28.294 15.391-1.635 30.516 2.833 42.563 12.579 12.043 9.743 19.565 23.589 21.182 38.987 2.46 23.023-8.109 45.213-26.928 56.511-1.773 1.063-3.725 1.57-5.652 1.57z"/><path d="m388.27 222.397c-9.148 0-17.955-3.102-25.171-8.936-8.345-6.747-13.56-16.341-14.689-27.015-2.327-22.039 13.7-41.861 35.725-44.189 22.037-2.325 41.858 13.71 44.188 35.751 2.714 21.422-14.237 42.34-35.752 44.161-1.439.153-2.874.228-4.301.228zm.099-58.363c-.636 0-1.277.033-1.924.102-9.962 1.052-17.21 10.024-16.156 20 .51 4.828 2.869 9.167 6.643 12.219 3.772 3.049 8.495 4.451 13.326 3.938 9.732-.823 17.413-10.28 16.187-19.969-.987-9.334-8.898-16.29-18.076-16.29zm-3.079-10.837h.01z"/><path d="m407.841 397.396c-25.282 0-46.911-19.339-49.607-44.688-2.893-27.377 17.032-52 44.415-54.894 11.309-1.215 22.799 1.516 32.338 7.688 5.101 3.3 6.56 10.11 3.26 15.211-3.3 5.099-10.107 6.561-15.211 3.26-5.395-3.489-11.633-4.969-18.057-4.282-15.337 1.621-26.485 15.392-24.867 30.699 1.539 14.479 14.109 25.456 28.618 24.993 6.027-.197 11.152 4.568 11.348 10.64.195 6.072-4.568 11.153-10.641 11.348-.532.017-1.067.025-1.596.025z"/><path d="m247.239 219.056c-7.431 0-14.599-2.523-20.476-7.273-6.796-5.493-11.048-13.306-11.973-21.999-.926-8.7 1.597-17.238 7.102-24.04 5.497-6.792 13.305-11.032 21.985-11.942 17.459-2.221 34.503 11.547 36.003 29.083 1.871 17.987-11.199 34.118-29.134 35.984-1.172.125-2.344.187-3.507.187zm.118-43.438c-.385 0-.771.021-1.159.062-.007 0-.015.001-.023.002-2.833.296-5.385 1.682-7.183 3.904-1.803 2.227-2.629 5.023-2.325 7.872.303 2.854 1.697 5.416 3.925 7.216 2.223 1.797 5.007 2.619 7.85 2.317 5.896-.614 10.173-5.907 9.559-11.804-.3-2.827-1.694-5.389-3.922-7.188-1.926-1.555-4.278-2.381-6.722-2.381zm-2.322-10.877h.01z"/><path d="m97.103 225.956h-86.173c-14.579-.541-14.568-21.464 0-22h86.173c14.579.541 14.568 21.465 0 22z"/><path d="m174.672 275.071h-58.685c-14.579-.541-14.568-21.464 0-22h58.685c14.579.541 14.568 21.464 0 22z"/><path d="m75.68 275.071h-30.85c-14.579-.541-14.568-21.464 0-22h30.85c14.58.541 14.569 21.464 0 22z"/><path d="m104.781 176.871h-63.987c-14.579-.541-14.568-21.464 0-22h63.987c14.579.54 14.568 21.464 0 22z"/><path d="m224.969 324.157h-202.946c-14.579-.541-14.568-21.464 0-22h202.946c14.58.541 14.569 21.464 0 22z"/><path d="m146.866 127.784h-64.807c-14.579-.541-14.568-21.464 0-22h64.807c14.579.541 14.568 21.464 0 22z"/><path d="m41.753 127.784h-30.823c-14.579-.541-14.568-21.464 0-22h30.822c14.58.541 14.569 21.464.001 22z"/></g><path d="m309.503 247.55c-6.075 0-11-4.896-11-10.972v-.057c0-6.075 4.925-11 11-11 14.588.54 14.556 21.481 0 22.029z"/><path d="m322.038 339.718c-4.022 0-7.89-2.213-9.814-6.061l-.028-.057c-2.717-5.434-.515-12.041 4.92-14.758 5.432-2.718 12.041-.513 14.758 4.919 2.717 5.434.528 12.069-4.905 14.787-1.587.793-3.272 1.17-4.931 1.17z"/><path d="m359.352 268.587c-4.022 0-7.89-2.213-9.813-6.06l-.028-.057c-2.717-5.434-.515-12.041 4.92-14.758 5.433-2.718 12.04-.513 14.758 4.919 2.717 5.434.528 12.069-4.905 14.787-1.587.792-3.273 1.169-4.932 1.169z"/><path d="m308.544 158.947c-6.075 0-11-4.897-11-10.972v-.056c0-6.075 4.925-11 11-11 14.588.539 14.556 21.48 0 22.028z"/><path d="m274.192 373.243h-70.705c-14.579-.541-14.568-21.464 0-22h70.705c14.579.541 14.568 21.464 0 22zm-111.012 0h-91.282c-14.579-.541-14.568-21.464 0-22h91.282c14.58.541 14.569 21.464 0 22z" fill="#0496FF"/><path d="m324.067 422.329h-141.241c-14.579-.541-14.568-21.464 0-22h141.241c14.579.54 14.568 21.464 0 22zm-181.548 0h-20.746c-14.579-.541-14.568-21.464 0-22h20.746c14.579.54 14.568 21.464 0 22z" fill="#0496FF"/><path d="m510.335 90.087c-2.851-9.519-9.17-17.143-17.796-21.468-.001 0-.001-.001-.001-.001-101.539-50.906-183.205-38.276-189.346-37.224-90.821 12.029-173.698 66.973-219.112 146.782-10.356 17.916-4.211 40.916 13.699 51.271 5.902 3.412 12.354 5.033 18.726 5.033 3.811 0 7.588-.596 11.205-1.72l249.907 246.744c2.778 2.751 6.835 3.803 10.561 2.801 3.769-1.004 6.723-3.929 7.767-7.687l94.159-339.179c6.983-3.213 12.795-8.468 16.71-15.239 5.248-9.079 6.532-20.056 3.521-30.113zm-401.544 120.314c-7.409-4.284-9.95-13.801-5.665-21.213 43.295-74.867 117.365-124.444 203.218-136.021.143-.02.307-.045.449-.07 48.511-4.475 99.947-.897 175.885 35.189 3.151 1.58 5.488 4.461 6.582 8.112 1.28 4.275.735 8.938-1.493 12.792-2.063 3.571-5.415 6.128-9.435 7.202-4.019 1.075-8.203.528-11.776-1.538-113.25-68.648-272.607-26.084-336.552 89.883-4.284 7.409-13.799 9.951-21.213 5.664zm270.963 240.297-233.604-230.647c1.049-1.347 2.02-2.78 2.898-4.299 61.942-107.046 199.438-143.761 306.494-81.852 3.469 2.005 7.171 3.41 10.985 4.221z"/></g></svg>