<svg id="Capa_1" enable-background="new 0 0 512 512" height="512" viewBox="0 0 512 512" width="512" xmlns="http://www.w3.org/2000/svg" fill="#052438"><g><g fill="#0496FF"><path d="m461.163 128.351h-87.064c-14.579-.541-14.568-21.464 0-22h82.507l36.261-36.261c4.296-4.296 11.26-4.296 15.557 0 4.296 4.296 4.295 11.261 0 15.557l-39.483 39.482c-2.063 2.063-4.861 3.222-7.778 3.222zm-166.85 0h-86.982c-2.917 0-5.715-1.159-7.778-3.222l-39.203-39.202c-9.926-10.692 4.876-25.479 15.557-15.557l35.98 35.98h82.426c14.579.542 14.568 21.465 0 22.001z"/><path d="m354.087 238.75c-.243 0-.486-.008-.732-.024-6.062-.398-10.653-5.635-10.255-11.697l5.21-79.275c.398-6.062 5.64-10.664 11.698-10.255 6.062.398 10.653 5.635 10.255 11.697l-5.209 79.275c-.384 5.816-5.221 10.279-10.967 10.279z"/><path d="m314.428 238.852c-5.753 0-10.592-4.472-10.967-10.295l-5.108-79.48c-.39-6.062 4.21-11.293 10.272-11.683 6.062-.385 11.293 4.21 11.683 10.272l5.108 79.479c.39 6.062-4.209 11.293-10.272 11.683-.24.016-.479.024-.716.024z"/></g><path d="m501 .501h-334.632c-6.075 0-11 4.925-11 11v236.195c-8.361 2.21-15.526 7.058-22.012 14.824l-61.382 64.835h-60.974c-6.075 0-11 4.925-11 11v162.141c0 6.075 4.925 11 11 11h268.126c20.691.352 36.28-20.948 29.866-40.535h10.671 181.337c2.918 0 5.715-1.159 7.778-3.222 2.062-2.063 3.222-4.861 3.222-7.778v-448.46c0-6.075-4.925-11-11-11zm-221.864 448.459c-.003 0-.006 0-.01 0h-60.893c-14.579.541-14.568 21.464 0 22h60.882c12.287.456 12.289 18.07.01 18.535h-257.125v-140.141h54.707c3.022 0 5.911-1.243 7.988-3.438l64.883-68.532c.172-.182.338-.369.498-.562 1.965-2.382 3.84-4.192 5.799-5.518l.619 67.152c.056 6.035 4.964 10.898 10.999 10.898h152.169c12.281.467 12.272 18.072 0 18.535h-101.428c-14.579.541-14.568 21.464 0 22h101.429 20.268c8.072-.101 12.411 10.16 6.535 15.803-1.762 1.762-4.083 2.732-6.535 2.732h-20.268-101.429c-14.579.541-14.568 21.464 0 22h101.429c12.281.467 12.272 18.072 0 18.535zm210.864 0h-140.472c2.011-6.258 1.831-13.768-.457-19.894 4.832-1.478 9.266-4.132 12.951-7.817 5.918-5.917 9.177-13.763 9.176-22.092.222-13.41-9.321-26.156-22.127-29.91 7.545-19.758-8.159-42.305-29.409-41.893h-141.27l-.646-70.173c-.009-.94-.148-1.847-.378-2.717v-231.963h312.632z"/><path d="m334.247 168.188c-28.032 0-50.837-22.805-50.837-50.837 2.556-67.35 99.129-67.332 101.674.001-.001 28.031-22.806 50.836-50.837 50.836zm0-79.674c-15.901 0-28.837 12.937-28.837 28.837 1.45 38.203 56.231 38.193 57.674 0-.001-15.901-12.937-28.837-28.837-28.837z"/><path d="m334.247 291.044c-22.54 0-40.878-18.338-40.878-40.878 2.055-54.156 79.709-54.141 81.756.001 0 22.54-18.338 40.877-40.878 40.877zm0-59.755c-10.409 0-18.878 8.469-18.878 18.878.949 25.01 36.81 25.003 37.756 0 0-10.41-8.469-18.878-18.878-18.878z"/><path d="m334.25 128.351c-14.579-.539-14.576-21.463-.007-22h.007c14.579.541 14.568 21.464 0 22z"/></g></svg>