<svg id="Capa_1" enable-background="new 0 0 512.109 512.109" height="512" viewBox="0 0 512.109 512.109" width="512" xmlns="http://www.w3.org/2000/svg" fill="#E6ECF2"><g><g fill="#0496FF"><path d="m131.563 312.815c-17.049 0-30.919-13.87-30.919-30.919 1.555-40.961 60.289-40.95 61.837 0 .001 17.048-13.869 30.919-30.918 30.919zm0-39.838c-4.918 0-8.919 4.001-8.919 8.918.448 11.816 17.391 11.813 17.837 0 .001-4.917-4-8.918-8.918-8.918z"/><path d="m315.811 452.244c-1.812 0-3.624-.447-5.268-1.344l-14.65-7.994-14.65 7.994c-3.407 1.86-7.544 1.785-10.883-.197s-5.386-5.577-5.386-9.46v-59.776c.541-14.579 21.464-14.568 22 0v41.243l3.65-1.992c3.284-1.791 7.253-1.792 10.537 0l3.65 1.992v-41.243c.541-14.579 21.464-14.568 22 0v59.776c0 3.883-2.047 7.478-5.386 9.46-1.728 1.026-3.67 1.541-5.614 1.541z"/><path d="m435.322 452.244c-1.81 0-3.622-.446-5.265-1.342l-14.654-7.988-14.654 7.988c-3.408 1.857-7.543 1.782-10.881-.2s-5.384-5.576-5.384-9.458v-59.719c.541-14.579 21.464-14.568 22 0v41.195l3.654-1.992c3.281-1.789 7.248-1.789 10.529 0l3.654 1.992v-41.195c.541-14.579 21.464-14.568 22 0v59.719c0 3.882-2.046 7.476-5.384 9.458-1.727 1.027-3.67 1.542-5.615 1.542z"/><path d="m375.567 0h-338.617c-6.075 0-11 4.925-11 11v489.948c.541 14.579 21.464 14.568 22 0v-478.948h316.617v239.896.081 41.214l-3.646-1.991c-3.286-1.795-7.26-1.795-10.546 0l-3.645 1.991v-41.295c-.541-14.579-21.464-14.568-22 0v59.837c0 3.883 2.048 7.479 5.388 9.46 3.341 1.982 7.477 2.055 10.885.193l14.646-7.999 14.646 7.999c7.06 4.073 16.463-1.504 16.273-9.654v-59.756-.081-250.895c-.001-6.075-4.926-11-11.001-11z"/></g><path d="m501.055 490h-14.895v-108.512c0-6.075-4.925-11-11-11h-48.756v-108.511c0-6.075-4.925-11-11-11h-68.672v-200.14c0-6.075-4.925-11-11-11h-258.945c-6.075 0-11 4.925-11 11v439.163h-54.732c-14.579.541-14.568 21.464 0 22h64.243c.971.146 2.007.146 2.977 0h156.373c.971.146 2.007.146 2.977 0h263.429c14.58-.541 14.569-21.464.001-22zm-36.895 0h-97.512v-97.512h48.03c.48.045.971.045 1.451 0h48.03v97.512zm-169.446-97.512c.772.086 1.584.086 2.357 0h47.577v97.512h-97.511v-97.512zm109.69-22h-97.511v-97.511h97.511zm-316.617-308.651h236.945v189.14h-28.839c-6.075 0-11 4.925-11 11v108.511h-48.756c-6.075 0-11 4.925-11 11v108.512h-137.35z"/></g></svg>