<svg id="Capa_1" enable-background="new 0 0 512 512" height="512" viewBox="0 0 512 512" width="512" xmlns="http://www.w3.org/2000/svg" fill="#052438"><g><g fill="#0496FF"><path d="m86.284 349.597c-1.866 0-3.757-.476-5.49-1.476l-40.653-23.471c-5.261-3.038-7.064-9.765-4.026-15.026 3.039-5.261 9.765-7.062 15.026-4.026l40.653 23.471c5.261 3.038 7.064 9.765 4.026 15.026-2.037 3.529-5.735 5.502-9.536 5.502z"/><path d="m67.988 298.953c-1.866 0-3.757-.476-5.49-1.476l-22.357-12.907c-5.261-3.038-7.064-9.765-4.026-15.026 3.039-5.261 9.765-7.062 15.026-4.026l22.357 12.908c5.261 3.038 7.064 9.765 4.026 15.026-2.037 3.528-5.735 5.501-9.536 5.501z"/><path d="m259.164 286.71c-1.244 0-2.5-.211-3.717-.649-4.368-1.569-7.281-5.711-7.281-10.352v-72.984l-184.076-106.415c-5.259-3.041-7.058-9.769-4.018-15.028 3.04-5.26 9.767-7.06 15.028-4.018l189.57 109.591c3.4 1.965 5.495 5.595 5.495 9.523v48.714l18.729-22.699c2.625-3.183 6.809-4.627 10.84-3.745l17.094 3.746v-59.31l-184.309-106.474c-5.261-3.039-7.062-9.767-4.022-15.027s9.768-7.06 15.027-4.022l189.807 109.652c3.402 1.965 5.497 5.596 5.497 9.525v79.331c0 3.331-1.509 6.482-4.104 8.57s-5.994 2.887-9.25 2.175l-23.885-5.234-33.937 41.131c-2.132 2.581-5.267 3.999-8.488 3.999z"/></g><path d="m401.212 118.131c-.659-2.959-2.595-5.583-5.21-7.106l-189.751-109.551c-3.403-1.965-7.597-1.965-11 0l-188.361 108.749c-2.134.891-4.01 2.449-5.263 4.6-1.039 1.699-1.627 3.669-1.627 5.729v219.106c0 3.93 2.097 7.562 5.5 9.526l189.751 109.551c3.404 1.965 7.597 1.965 11.001 0l37.441-21.622c5.261-3.039 7.063-9.766 4.025-15.027s-9.765-7.062-15.027-4.024l-20.939 12.092v-193.7l167.751-96.876v196.038c0 6.075 4.925 11 11 11s11-4.925 11-11v-215.064c0-.826-.112-1.634-.291-2.421zm-200.461-94.429 167.728 96.837-167.723 96.859-167.548-96.967zm-178.751 115.661 167.751 97.084v193.71l-167.751-96.85z"/><path d="m501 512h-260.411c-6.075 0-11-4.925-11-11v-161.342c0-6.075 4.925-11 11-11h260.411c6.075 0 11 4.925 11 11v161.342c0 6.075-4.925 11-11 11zm-249.411-22h238.411v-139.342h-238.411z" fill="#0496FF"/><path d="m280.426 472.163c-6.075 0-11-4.925-11-11v-81.668c.541-14.579 21.464-14.568 22 0v81.668c0 6.075-4.925 11-11 11z"/><path d="m320.264 432.326c-6.075 0-11-4.925-11-11v-41.831c.541-14.579 21.464-14.568 22 0v41.831c0 6.075-4.925 11-11 11z"/><path d="m360.101 472.163c-6.075 0-11-4.925-11-11v-81.668c.541-14.579 21.464-14.568 22 0v81.668c0 6.075-4.925 11-11 11z"/><path d="m461.162 472.163c-6.075 0-11-4.925-11-11v-81.668c.541-14.579 21.464-14.568 22 0v81.668c0 6.075-4.925 11-11 11z"/><path d="m421.325 432.326c-6.075 0-11-4.925-11-11v-41.831c.541-14.579 21.464-14.568 22 0v41.831c0 6.075-4.925 11-11 11z"/><path d="m421.329 472.162c-14.579-.539-14.576-21.462-.007-22h.007c14.579.541 14.568 21.464 0 22z"/><path d="m320.267 472.162c-14.579-.539-14.576-21.462-.007-22h.007c14.579.541 14.568 21.464 0 22z"/></g></svg>