<svg id="Capa_1" enable-background="new 0 0 512.057 512.057" height="512" viewBox="0 0 512.057 512.057" width="512" xmlns="http://www.w3.org/2000/svg" fill="#E6ECF2"><g><g fill="#0496FF"><path d="m128.648 283.727c-3.228 0-6.426-1.414-8.599-4.131l-77.236-96.6c-3.793-4.745-3.022-11.667 1.723-15.46 4.743-3.793 11.667-3.023 15.461 1.722l77.236 96.6c3.793 4.745 3.023 11.667-1.723 15.46-2.027 1.621-4.453 2.409-6.862 2.409z"/><path d="m336.628 472.357c-2.423 0-4.861-.796-6.895-2.435l-96.382-77.671c-4.73-3.812-5.475-10.737-1.663-15.467 3.813-4.73 10.735-5.476 15.468-1.663l96.382 77.671c4.73 3.812 5.475 10.737 1.663 15.467-2.174 2.696-5.36 4.098-8.573 4.098z"/><path d="m352.116 320.791c-28.025 0-55.444-7.292-79.612-21.132-14.486 3.887-28.973 7.773-43.46 11.655-7.771 2.16-16.164-.027-21.935-5.713-5.857-5.772-8.09-13.963-5.973-21.91 3.906-14.58 7.811-29.135 11.716-43.687-61.527-104.422 17.895-241.526 139.266-239.991 212.474 8.055 212.434 312.745-.002 320.778zm-77.991-43.956c2.012 0 4.005.552 5.751 1.623 89.97 56.742 212.002-11.537 210.628-118.059.001-76.306-62.08-138.388-138.388-138.388-106.516-1.356-174.802 120.643-118.061 210.621 1.577 2.574 2.028 5.684 1.245 8.601-4.305 16.04-8.607 32.08-12.91 48.137-.044.164-.085.319.16.561.282.277.497.217.603.187.047-.013.094-.026.14-.038 15.995-4.287 31.989-8.578 47.982-12.869.937-.252 1.896-.376 2.85-.376z"/><path d="m372.033 166.422c-1.812 0-3.627-.447-5.271-1.346l-14.646-7.998-14.647 7.998c-3.408 1.862-7.544 1.788-10.885-.194-3.339-1.981-5.387-5.577-5.387-9.46v-59.82c.541-14.579 21.464-14.568 22 0v41.281l3.647-1.991c3.285-1.794 7.258-1.795 10.543 0l3.646 1.991v-41.28c.541-14.579 21.464-14.568 22 0v59.82c0 3.883-2.048 7.479-5.387 9.46-1.728 1.024-3.669 1.539-5.613 1.539z"/></g><path d="m247.031 511.982c-64.187-1.925-111.675-31.895-164.043-82.453-37.449-37.45-62.509-75.776-74.48-113.914-22.502-63.561 3.873-149.492 68.194-163.588 15.419-2.498 29.087 2.578 37.549 13.926 2.688 3.327 33.084 40.956 40.17 50.223 4.275 5.589 9.771 14.423 8.15 26.539-1.795 13.414-11.969 27.032-31.104 41.634-10.226 7.804-15.501 15.891-16.126 24.722-1.278 18.068 16.875 39.008 32.859 55.248 16.24 15.985 37.208 34.141 55.249 32.859 8.83-.625 16.917-5.9 24.722-16.127 13.963-18.297 26.989-28.375 39.823-30.81 12.979-2.463 22.396 3.304 28.349 7.856 9.267 7.085 46.895 37.481 50.223 40.17 11.348 8.461 16.422 22.13 13.926 37.549-6.781 43.576-64.754 78.069-113.461 76.166zm-162.65-338.594c-1.316 0-2.703.118-4.164.354-17.909 2.899-41.59 23.019-52.2 55.863-10.38 32.135-15.022 98.818 70.527 184.366 85.55 85.55 152.233 80.909 184.367 70.527 32.844-10.61 52.963-34.291 55.862-52.2 1.196-7.39-.639-12.93-5.453-16.465-.137-.101-.272-.204-.403-.311-.406-.328-40.68-32.872-49.939-39.951-4.417-3.377-7.363-4.385-10.886-3.718-4.031.765-12.826 4.71-26.435 22.542-11.694 15.325-25.374 23.643-40.657 24.725-1.145.081-2.289.121-3.427.121-25.413.001-49.003-19.745-68.871-39.308-.04-.04-.08-.08-.12-.121-20.439-20.758-41.078-45.58-39.188-72.297 1.082-15.284 9.4-28.963 24.725-40.658 18.435-14.067 22.101-22.994 22.645-27.063.436-3.265-.599-6.044-3.819-10.256-7.08-9.259-39.623-49.534-39.951-49.939-.106-.132-.21-.266-.311-.403-2.837-3.863-6.964-5.808-12.302-5.808z"/><path d="m421.83 236.137h-139.43c-6.075 0-11-4.925-11-11v-129.471c0-6.075 4.925-11 11-11h139.43c6.075 0 11 4.925 11 11v129.471c0 6.075-4.924 11-11 11zm-128.429-22h117.43v-107.471h-117.43z"/></g></svg>