<svg id="Capa_1" enable-background="new 0 0 512 512" viewBox="0 0 512 512" xmlns="http://www.w3.org/2000/svg" fill="#052438"><g><path d="m511.625 418.801-63.152-235.686c-.755-2.818-2.599-5.22-5.125-6.679-2.526-1.458-5.53-1.854-8.347-1.099l-33.001 8.843v-31.083c-.01-9.63-3.987-18.647-11.2-25.4l-85.092-81.46c-6.931-6.87-16.467-10.499-26.238-9.965l-146.551 8.285-41.234-.003h-.001c-6.074 0-10.999 4.924-11 10.999 0 6.075 4.924 11 10.999 11.001l41.546.003c.207 0 .415-.006.622-.018l146.844-8.302c3.658-.207 7.151 1.172 9.725 3.819l85.217 81.58c2.022 1.876 4.343 4.918 4.364 9.473v36.967l-28.565 7.654-2.331-30.96c-.252-3.343-2.014-6.389-4.787-8.273l-66.513-45.184c-4.848-3.294-11.428-2.208-14.96 2.471l-25.647 33.966c-15.131 20.038-14.631 48.086 1.139 63.856.189.189.386.372.589.547l35.53 30.685c7.691 6.642 6.445 14.583 3.041 19.364-1.374 1.929-6.444 7.886-13.953 3.535-20.575-11.879-36.432-21.046-52.952-30.598-12.446-7.196-25.271-14.61-40.798-23.58-1.17-.672-2.072-1.321-2.678-1.927l-44.935-44.935c-2.063-2.062-4.861-3.222-7.778-3.222h-22.719c-6.075 0-11 4.925-11 11s4.925 11 11 11h18.162l41.717 41.717c2.008 2.005 4.388 3.786 7.25 5.43 15.501 8.955 28.322 16.367 40.767 23.562 10.93 6.319 21.57 12.471 33.473 19.348l54.478 203.317c.755 2.818 2.599 5.22 5.125 6.679 2.53 1.462 5.542 1.852 8.347 1.099l202.845-54.352c2.818-.755 5.221-2.599 6.68-5.125s1.852-5.531 1.097-8.349zm-256.871-255.796 19.343-25.616 53.469 36.323 2.244 29.812-53.067 14.219-23.097-19.947c-7.788-8.115-7.322-23.628 1.108-34.791zm51.18 299.523-46.251-172.614c3.056.936 6.154 1.395 9.22 1.395 10.107 0 19.854-4.992 26.517-14.351 7.752-10.89 10.257-27.448.147-41.484l134.504-36.041 57.458 214.436z"/><g><g><path d="m86.438 205.024h-75.438c-6.075 0-11-4.925-11-11v-158.024c0-6.075 4.925-11 11-11h75.438c6.075 0 11 4.925 11 11v158.024c0 6.076-4.924 11-11 11zm-64.438-22h53.438v-136.024h-53.438z" fill="#0496FF"/></g><g><path d="m362.958 366.626c-1.914 0-3.813-.5-5.5-1.474l-27.557-15.91c-5.262-3.038-7.063-9.765-4.026-15.026 3.037-5.26 9.766-7.063 15.026-4.026l18.03 10.41 26.32-45.588c3.038-5.26 9.766-7.063 15.026-4.026 5.262 3.038 7.063 9.765 4.026 15.026l-31.82 55.114c-1.459 2.526-3.861 4.37-6.68 5.125-.935.251-1.892.375-2.845.375z" fill="#0496FF"/></g></g></g><g/><g/><g/><g/><g/><g/><g/><g/><g/><g/><g/><g/><g/><g/><g/></svg>