<svg id="Capa_1" enable-background="new 0 0 512 512" viewBox="0 0 512 512" xmlns="http://www.w3.org/2000/svg" fill="#052438"><g><path d="m421 0h-330c-19.85 0-36 16.149-36 36v170c0 19.851 16.149 36 36 36h131.5v179c0 50.178 40.822 91 91 91h20c50.178 0 91-40.822 91-91v-77.5c0-18.472-15.028-33.5-33.5-33.5-8.652 0-16.55 3.298-22.5 8.701-5.95-5.403-13.848-8.701-22.5-8.701s-16.55 3.298-22.5 8.701c-5.95-5.403-13.848-8.701-22.5-8.701-4.038 0-7.912.718-11.5 2.034v-70.034h131.5c19.851 0 36-16.149 36-36v-170c0-19.851-16.15-36-36-36zm-120 332c6.341 0 11.5 5.159 11.5 11.5 0 6.075 4.925 11 11 11s11-4.925 11-11c0-6.341 5.159-11.5 11.5-11.5s11.5 5.159 11.5 11.5c0 6.075 4.925 11 11 11s11-4.925 11-11c0-6.341 5.159-11.5 11.5-11.5s11.5 5.159 11.5 11.5v77.5c0 38.047-30.953 69-69 69h-20c-38.047 0-69-30.953-69-69v-192.5c0-6.341 5.159-11.5 11.5-11.5s11.5 5.159 11.5 11.5v115c0 6.075 4.925 11 11 11s11-4.925 11-11c0-6.341 5.159-11.5 11.5-11.5zm134-126c0 7.72-6.28 14-14 14h-132.593c-3.771-14.369-16.871-25-32.407-25-15.537 0-28.636 10.631-32.407 25h-132.593c-7.719 0-14-6.28-14-14v-170c0-7.72 6.28-14 14-14h330c7.72 0 14 6.28 14 14z"/><g fill="#0496FF"><path d="m378.728 150h-24v-18h13.624c6.075 0 11-4.925 11-11s-4.925-11-11-11h-13.624v-18h24c6.075 0 11-4.925 11-11s-4.925-11-11-11h-35c-6.075 0-11 4.925-11 11v80c0 6.075 4.925 11 11 11h35c6.075 0 11-4.925 11-11s-4.925-11-11-11z"/><path d="m311.91 70.001h-35c-6.075 0-11 4.925-11 11s4.925 11 11 11h6.5v69c0 6.075 4.925 11 11 11s11-4.925 11-11v-69h6.5c6.075 0 11-4.925 11-11s-4.925-11-11-11z"/><path d="m225.092 70c-17.093 0-31 13.906-31 31v40c0 17.093 13.907 31 31 31s31-13.907 31-31v-40c-.001-17.093-13.907-31-31-31zm8.999 71c0 4.962-4.037 9-9 9s-9-4.038-9-9v-40c0-4.962 4.038-9 9-9s9 4.037 9 9z"/><path d="m175.941 70.329c-5.893-1.476-11.866 2.109-13.339 8.003l-9.329 37.315-9.33-37.315c-1.473-5.894-7.443-9.477-13.339-8.003-5.894 1.473-9.477 7.446-8.003 13.339l20.001 80c1.224 4.897 5.624 8.332 10.671 8.332s9.447-3.435 10.671-8.332l20-80c1.474-5.893-2.109-11.866-8.003-13.339z"/></g></g><g/><g/><g/><g/><g/><g/><g/><g/><g/><g/><g/><g/><g/><g/><g/></svg>