<svg id="Capa_1" enable-background="new 0 0 511.951 511.951" viewBox="0 0 511.951 511.951" xmlns="http://www.w3.org/2000/svg" fill="#E6ECF2"><g><g><g><path d="m255.976 441.976c-102.561 0-186-83.439-186-186s83.439-186 186-186 186 83.439 186 186-83.44 186-186 186zm0-350c-90.43 0-164 73.57-164 164s73.57 164 164 164 164-73.57 164-164-73.57-164-164-164z"/></g><g><path d="m255.974 511.951c-7.827 0-15.647-2.052-22.598-6.148l-38.526-21.97-44.834-.238c-15.713-.062-30.382-8.477-38.268-21.958l-22.661-38.771-38.768-22.658c-14.543-8.489-23.133-24.754-21.979-41.546l-.221-41.562-22.334-39.162c-7.844-13.82-7.7-30.876.36-44.557l21.973-38.531.238-44.834c.061-15.711 8.475-30.381 21.958-38.269l38.771-22.661 22.658-38.768c8.489-14.543 24.748-23.132 41.545-21.979l41.562-.221 39.162-22.333c13.822-7.846 30.88-7.7 44.562.364l38.525 21.969 44.835.238c15.712.062 30.382 8.476 38.269 21.958l22.661 38.771 38.768 22.658c14.543 8.489 23.132 24.755 21.979 41.545l.221 41.562 22.333 39.163c7.845 13.822 7.699 30.88-.363 44.561l-21.97 38.526-.239 44.834c-.062 15.713-8.476 30.382-21.958 38.269l-38.771 22.661-22.658 38.768c-8.49 14.542-24.755 23.131-41.545 21.979l-41.562.221-39.163 22.333c-6.799 3.861-14.383 5.786-21.962 5.786zm-105.72-461.715c-7.951 0-15.471 4.256-19.512 11.18l-24.117 41.263c-.955 1.633-2.313 2.992-3.946 3.946l-41.258 24.114c-6.792 3.973-11.033 11.399-11.063 19.378l-.254 47.735c-.01 1.891-.508 3.748-1.444 5.391l-23.441 41.106c-.03.052-.06.104-.09.155-4.101 6.926-4.186 15.568-.22 22.555l23.751 41.648c.937 1.643 1.435 3.5 1.445 5.391l.239 44.882c.001.313-.01.626-.035.938-.69 8.593 3.67 16.95 11.108 21.291l41.263 24.117c1.633.955 2.992 2.313 3.947 3.946l24.114 41.259c3.972 6.791 11.398 11.032 19.379 11.063l47.734.254c1.891.01 3.748.508 5.391 1.444l41.105 23.441c.052.03.104.061.156.091 6.924 4.102 15.567 4.185 22.554.22l41.649-23.752c1.643-.937 3.5-1.434 5.391-1.444l44.882-.239c.312.001.626.01.938.035 8.592.694 16.951-3.67 21.292-11.108l24.116-41.263c.955-1.633 2.313-2.992 3.946-3.947l41.259-24.114c6.791-3.972 11.032-11.399 11.063-19.379l.254-47.734c.01-1.891.508-3.748 1.444-5.391l23.441-41.105c.03-.052.061-.104.091-.156 4.102-6.924 4.186-15.567.22-22.554l-23.751-41.649c-.937-1.643-1.434-3.5-1.444-5.391l-.239-44.882c-.001-.313.01-.626.035-.938.689-8.593-3.671-16.951-11.108-21.292l-41.263-24.116c-1.633-.955-2.992-2.313-3.947-3.946l-24.114-41.259c-3.973-6.792-11.399-11.032-19.378-11.063l-47.735-.254c-1.891-.01-3.748-.508-5.391-1.444l-41.105-23.441c-.052-.03-.104-.06-.156-.091-6.926-4.103-15.569-4.186-22.554-.22l-41.649 23.751c-1.643.937-3.5 1.434-5.391 1.444l-44.882.239c-.907-.001-1.817-.123-2.72-.105z"/></g></g><g fill="#0496FF"><path d="m378.704 284.976h-24v-18h13.625c6.075 0 11-4.925 11-11s-4.925-11-11-11h-13.625v-18h24c6.075 0 11-4.925 11-11s-4.925-11-11-11h-35c-6.075 0-11 4.925-11 11v80c0 6.075 4.925 11 11 11h35c6.075 0 11-4.925 11-11s-4.925-11-11-11z"/><path d="m311.885 204.976h-35c-6.075 0-11 4.925-11 11s4.925 11 11 11h6.5v69c0 6.075 4.925 11 11 11s11-4.925 11-11v-69h6.5c6.075 0 11-4.925 11-11s-4.925-11-11-11z"/><path d="m256.067 275.976v-40c0-17.093-13.906-31-31-31s-31 13.907-31 31v40c0 17.093 13.907 31 31 31s31-13.907 31-31zm-40 0v-40c0-4.962 4.038-9 9-9s9 4.038 9 9v40c0 4.962-4.037 9-9 9s-9-4.038-9-9z"/><path d="m175.917 205.304c-5.892-1.473-11.866 2.109-13.339 8.003l-9.329 37.315-9.33-37.315c-1.473-5.894-7.441-9.477-13.339-8.003-5.894 1.473-9.477 7.446-8.003 13.339l20.001 80c1.224 4.897 5.624 8.332 10.671 8.332s9.447-3.435 10.671-8.332l20-80c1.474-5.893-2.11-11.865-8.003-13.339z"/><path d="m217.566 166.976h76.819c6.075 0 11-4.925 11-11s-4.925-11-11-11h-76.819c-6.075 0-11 4.925-11 11s4.925 11 11 11z"/><path d="m294.386 344.976h-76.819c-6.075 0-11 4.925-11 11s4.925 11 11 11h76.819c6.075 0 11-4.925 11-11s-4.925-11-11-11z"/></g></g><g/><g/><g/><g/><g/><g/><g/><g/><g/><g/><g/><g/><g/><g/><g/></svg>