<svg id="Capa_1" enable-background="new 0 0 512 512" viewBox="0 0 512 512" xmlns="http://www.w3.org/2000/svg" fill="#E6ECF2"><g><g><path d="m286.126 64.268c5.667-6.8 9.08-15.54 9.08-25.063 0-21.618-17.588-39.205-39.206-39.205s-39.205 17.587-39.205 39.205c0 9.523 3.413 18.263 9.08 25.062-18.866 10.584-31.644 30.784-31.644 53.912v12.692c0 6.075 4.925 11 11 11h101.538c6.075 0 11-4.925 11-11v-12.691c0-23.128-12.777-43.328-31.643-53.912zm-30.126-42.268c9.487 0 17.206 7.718 17.206 17.205s-7.719 17.205-17.206 17.205-17.205-7.718-17.205-17.205 7.718-17.205 17.205-17.205zm39.769 97.872h-79.538v-1.692c0-21.929 17.84-39.769 39.769-39.769s39.769 17.84 39.769 39.769z"/><path d="m116.895 165.806c5.666-6.8 9.08-15.54 9.08-25.062 0-21.618-17.587-39.205-39.205-39.205s-39.205 17.587-39.205 39.205c0 9.523 3.413 18.263 9.079 25.062-18.867 10.584-31.644 30.784-31.644 53.912v12.692c0 6.075 4.925 11 11 11h101.539c6.075 0 11-4.925 11-11v-12.692c0-23.128-12.778-43.328-31.644-53.912zm-30.126-42.267c9.487 0 17.205 7.718 17.205 17.205s-7.718 17.205-17.205 17.205-17.205-7.718-17.205-17.205 7.718-17.205 17.205-17.205zm39.77 97.872h-79.539v-1.692c0-21.929 17.84-39.769 39.769-39.769s39.77 17.84 39.77 39.769z"/><path d="m455.356 251.575c5.666-6.8 9.08-15.54 9.08-25.062 0-21.618-17.587-39.205-39.205-39.205s-39.205 17.587-39.205 39.205c0 9.523 3.413 18.263 9.08 25.062-18.866 10.584-31.644 30.784-31.644 53.912v12.692c0 6.075 4.925 11 11 11h101.538c6.075 0 11-4.925 11-11v-12.692c0-23.128-12.777-43.328-31.644-53.912zm-30.126-42.267c9.487 0 17.205 7.718 17.205 17.205s-7.718 17.205-17.205 17.205-17.205-7.718-17.205-17.205 7.719-17.205 17.205-17.205zm39.77 97.872h-79.539v-1.692c0-21.929 17.84-39.769 39.77-39.769 21.929 0 39.769 17.84 39.769 39.769z"/></g><g fill="#0496FF"><path d="m476 357.949h-101.539c-6.075 0-11 4.925-11 11v132.051c0 6.075 4.925 11 11 11h101.539c6.075 0 11-4.925 11-11v-132.051c0-6.075-4.925-11-11-11zm-11 132.051h-79.539v-110.051h79.539z"/><path d="m137.539 272.18h-101.539c-6.075 0-11 4.925-11 11v217.82c0 6.075 4.925 11 11 11h101.539c6.075 0 11-4.925 11-11v-217.82c0-6.076-4.925-11-11-11zm-11 217.82h-79.539v-195.82h79.539z"/><path d="m306.77 170.641h-101.539c-6.075 0-11 4.925-11 11v319.359c0 6.075 4.925 11 11 11h101.539c6.075 0 11-4.925 11-11v-319.359c0-6.075-4.925-11-11-11zm-11 319.359h-79.539v-297.359h79.539z"/></g></g><g/><g/><g/><g/><g/><g/><g/><g/><g/><g/><g/><g/><g/><g/><g/></svg>