<svg id="Capa_1" enable-background="new 0 0 511.999 511.999" viewBox="0 0 511.999 511.999" xmlns="http://www.w3.org/2000/svg" fill="#052438"><g><g fill="#0496FF"><path d="m99.006 244.999h27.695c6.075 0 11-4.925 11-11s-4.925-11-11-11h-27.695c-6.075 0-11 4.925-11 11s4.925 11 11 11z"/><path d="m136.702 167.25h-37.696c-6.075 0-11 4.925-11 11s4.925 11 11 11h37.696c6.075 0 11-4.925 11-11s-4.925-11-11-11z"/><path d="m99.006 133.5h27.695c6.075 0 11-4.925 11-11s-4.925-11-11-11h-27.695c-6.075 0-11 4.925-11 11s4.925 11 11 11z"/><path d="m136.702 55.751h-37.696c-6.075 0-11 4.925-11 11s4.925 11 11 11h37.696c6.075 0 11-4.925 11-11s-4.925-11-11-11z"/><path d="m136.702 390.248h-37.696c-6.075 0-11 4.925-11 11s4.925 11 11 11h37.696c6.075 0 11-4.925 11-11s-4.925-11-11-11z"/><path d="m99.006 356.498h27.695c6.075 0 11-4.925 11-11s-4.925-11-11-11h-27.695c-6.075 0-11 4.925-11 11s4.925 11 11 11z"/><path d="m136.702 278.749h-37.696c-6.075 0-11 4.925-11 11s4.925 11 11 11h37.696c6.075 0 11-4.925 11-11s-4.925-11-11-11z"/><path d="m230.148 385.805h70.293v22h-70.293z"/><path d="m230.148 82.337h70.292v22h-70.292z"/></g><path d="m505.606 72.854c-3.897-1.796-8.483-1.164-11.748 1.622l-182.417 155.671v-136.811c0-1.484-.301-2.953-.883-4.318l-35.146-82.335c-1.73-4.052-5.711-6.682-10.117-6.682s-8.387 2.629-10.117 6.682l-35.146 82.335c-.582 1.365-.883 2.834-.883 4.318v215.571l-22.003 18.777v-316.683c0-6.075-4.925-11-11-11h-89.14c-6.075 0-11 4.925-11 11v411.528l-82.146 70.102c-3.505 2.991-4.774 7.849-3.181 12.172 1.595 4.323 5.714 7.195 10.321 7.195h489.998c6.075 0 11-4.925 11-11v-418.156c.001-4.291-2.495-8.191-6.392-9.988zm-194.165 299.168 96.366-82.237v118.018h-96.366zm-70.293-276.436 24.146-56.566 24.146 56.566.001 341.332c0 5.006-4.073 9.079-9.08 9.079h-30.134c-5.006 0-9.079-4.073-9.079-9.079zm-133.142-73.585h67.14v423.996h-67.14zm381.993 467.997h-449.163l45.17-38.547v5.547c0 6.075 4.925 11 11 11h89.14c6.075 0 11-4.925 11-11v-100.391l22.003-18.777v99.088c0 17.137 13.942 31.079 31.079 31.079h30.134c17.138 0 31.08-13.942 31.08-31.079v-7.115h107.366c6.075 0 11-4.925 11-11v-152.866c0-4.292-2.496-8.191-6.393-9.989-3.897-1.796-8.483-1.164-11.748 1.622l-100.226 85.531v-84.032l178.558-152.378z"/></g><g/><g/><g/><g/><g/><g/><g/><g/><g/><g/><g/><g/><g/><g/><g/></svg>