<svg id="Capa_1" enable-background="new 0 0 512 512" viewBox="0 0 512 512" xmlns="http://www.w3.org/2000/svg" fill="#E6ECF2"><g><g><path d="m158.204 372.483c-2.815 0-5.629-1.074-7.777-3.221l-53.892-53.882h-45.115c-28.353 0-51.42-23.067-51.42-51.42v-212.54c0-28.353 23.067-51.42 51.42-51.42h213.557c28.353 0 51.42 23.067 51.42 51.42v212.54c0 28.353-23.066 51.42-51.42 51.42h-45.115l-53.88 53.881c-2.148 2.147-4.963 3.222-7.778 3.222zm-106.784-350.483c-16.222 0-29.42 13.198-29.42 29.42v212.54c0 16.222 13.198 29.42 29.42 29.42h49.671c2.917 0 5.715 1.159 7.777 3.221l49.334 49.326 49.325-49.325c2.063-2.062 4.861-3.222 7.778-3.222h49.671c16.223 0 29.42-13.198 29.42-29.42v-212.54c0-16.222-13.197-29.42-29.42-29.42z"/></g><path d="m508.239 492.718c-1.191-1.042-27.454-23.581-67.543-27.258v-47.977h29.168c19.122 0 34.68-15.558 34.68-34.68v-151.241c0-19.122-15.558-34.68-34.68-34.68h-80.341c-19.123 0-34.681 15.558-34.681 34.68v151.242c0 19.123 15.558 34.68 34.681 34.68h29.173v47.976c-40.093 3.675-66.358 26.216-67.549 27.258-4.563 3.988-5.026 10.904-1.053 15.48 2.172 2.502 5.23 3.782 8.308 3.782 2.551 0 5.115-.88 7.196-2.674.259-.224 26.377-22.366 64.095-22.366 37.653 0 63.746 22.066 64.094 22.364 2.081 1.809 4.65 2.695 7.208 2.695 3.064 0 6.112-1.273 8.287-3.761 3.998-4.572 3.531-11.522-1.043-15.52zm-131.396-109.914v-30.38h22.355c6.075 0 11-4.925 11-11s-4.925-11-11-11h-22.355v-46.481h22.355c6.075 0 11-4.925 11-11s-4.925-11-11-11h-22.355v-30.38c0-6.992 5.689-12.68 12.681-12.68h80.341c6.991 0 12.68 5.688 12.68 12.68v30.38h-22.354c-6.075 0-11 4.925-11 11s4.925 11 11 11h22.354v46.481h-22.354c-6.075 0-11 4.925-11 11s4.925 11 11 11h22.354v30.38c0 6.992-5.688 12.68-12.68 12.68h-80.341c-6.993 0-12.681-5.688-12.681-12.68z" fill="#0496FF"/><g><path d="m69.754 196.527c-6.075 0-11-4.925-11-11v-55.658c0-6.075 4.925-11 11-11s11 4.925 11 11v55.658c0 6.076-4.924 11-11 11z"/></g><g><path d="m128.717 236.9c-6.075 0-11-4.925-11-11v-136.403c0-6.075 4.925-11 11-11s11 4.925 11 11v136.403c0 6.075-4.925 11-11 11z"/></g><g><path d="m187.68 261.498c-6.075 0-11-4.925-11-11v-185.599c0-6.075 4.925-11 11-11s11 4.925 11 11v185.599c0 6.075-4.925 11-11 11z"/></g><g><path d="m246.642 189.44c-6.075 0-11-4.925-11-11v-41.482c0-6.075 4.925-11 11-11s11 4.925 11 11v41.482c.001 6.075-4.925 11-11 11z"/></g></g><g/><g/><g/><g/><g/><g/><g/><g/><g/><g/><g/><g/><g/><g/><g/></svg>