<svg id="Capa_1" enable-background="new 0 0 512 512" viewBox="0 0 512 512" xmlns="http://www.w3.org/2000/svg" fill="#E6ECF2"><g><g><g><path d="m432.932 220.64c-43.586 0-79.046-35.46-79.046-79.046s35.46-79.046 79.046-79.046 79.046 35.46 79.046 79.046-35.46 79.046-79.046 79.046zm0-136.092c-31.455 0-57.046 25.591-57.046 57.046s25.591 57.046 57.046 57.046 57.046-25.591 57.046-57.046-25.591-57.046-57.046-57.046z" fill="#0496FF"/></g><g><path d="m92.737 220.64c-24.777.001-48.07-9.646-65.589-27.163-36.168-36.169-36.168-95.02 0-131.19 11.53-11.53 25.913-19.833 41.592-24.013 3.794-1.011 7.84.077 10.613 2.853 2.775 2.777 3.86 6.823 2.847 10.616-6.51 24.356.511 50.55 18.321 68.361 17.807 17.807 43.999 24.822 68.354 18.314 3.794-1.015 7.838.071 10.615 2.847 2.777 2.775 3.865 6.82 2.853 10.614-4.181 15.68-12.484 30.062-24.014 41.591-17.519 17.52-40.814 27.169-65.592 27.17zm-34.85-154.35c-5.529 3.133-10.644 7.015-15.183 11.554-27.591 27.591-27.591 72.485 0 100.077 13.362 13.362 31.131 20.721 50.031 20.72 18.902-.001 36.673-7.362 50.038-20.727 4.539-4.538 8.421-9.653 11.554-15.182-25.579 1.006-50.903-8.611-69.363-27.07-18.461-18.464-28.079-43.797-27.077-69.372z" fill="#0496FF"/></g><g><path d="m357.659 47.834c-1.779 0-3.584-.433-5.256-1.344-29.382-16.022-62.726-24.49-96.425-24.49-33.718 0-67.06 8.468-96.422 24.488-5.333 2.91-12.015.945-14.925-4.388s-.945-12.015 4.388-14.925c32.584-17.778 69.57-27.175 106.959-27.175 37.368 0 74.354 9.397 106.956 27.174 5.334 2.908 7.301 9.59 4.392 14.924-1.996 3.661-5.772 5.736-9.667 5.736z"/></g></g><g><path d="m379.545 253.418h-247.134c-24.815 0-45.005 20.189-45.005 45.005v202.577c0 6.075 4.925 11 11 11h315.144c6.075 0 11-4.925 11-11v-202.577c0-24.816-20.189-45.005-45.005-45.005zm-247.134 22h247.135c12.685 0 23.005 10.32 23.005 23.005v15.99h-293.145v-15.99c0-12.685 10.32-23.005 23.005-23.005zm-23.005 214.582v-153.587h293.144v153.587z"/><path d="m352.555 401.627h-20.172v-15.349c0-6.075-4.925-11-11-11s-11 4.925-11 11v15.349h-150.982c-6.075 0-11 4.925-11 11s4.925 11 11 11h150.982v15.349c0 6.075 4.925 11 11 11s11-4.925 11-11v-15.349h20.172c6.075 0 11-4.925 11-11s-4.925-11-11-11z" fill="#0496FF"/></g></g><g/><g/><g/><g/><g/><g/><g/><g/><g/><g/><g/><g/><g/><g/><g/></svg>