<svg id="Capa_1" enable-background="new 0 0 512 512" viewBox="0 0 512 512" xmlns="http://www.w3.org/2000/svg" fill="#052438"><g><path d="m468.723 101.66h-81.723v22h81.723c11.732 0 21.277 9.545 21.277 21.277v260.016c0 11.732-9.545 21.277-21.277 21.277h-425.446c-11.732 0-21.277-9.545-21.277-21.277v-260.016c0-11.732 9.545-21.277 21.277-21.277h80.723v-22h-80.723c-23.863 0-43.277 19.414-43.277 43.277v260.016c0 23.863 19.414 43.277 43.277 43.277h101.003c-9.168 3.659-17.421 7.438-24.629 11.052-32.68 16.383-51.562 32.748-52.35 33.437-4.574 3.998-5.041 10.947-1.043 15.521 2.175 2.488 5.222 3.761 8.286 3.761 2.569 0 5.149-.895 7.235-2.718.699-.61 71.038-61.053 174.22-61.053 53.594 0 98.013 16.528 125.838 30.393 30.384 15.141 48.216 30.516 48.393 30.669 2.084 1.817 4.659 2.708 7.224 2.708 3.063 0 6.112-1.273 8.286-3.761 3.998-4.574 3.532-11.523-1.043-15.521-.788-.689-19.67-17.054-52.35-33.437-7.209-3.614-15.462-7.393-24.629-11.052h101.003c23.863 0 43.277-19.414 43.277-43.277v-260.015c.002-23.863-19.412-43.277-43.275-43.277z"/><path d="m418.418 353.721-30.498-282.904c-.602-5.586-5.318-9.821-10.937-9.821h-47.991c-6.245-34.633-36.587-60.996-72.992-60.996s-66.747 26.363-72.993 60.996h-47.991c-5.619 0-10.334 4.234-10.937 9.821l-30.498 282.904c-.335 3.105.666 6.206 2.752 8.529s5.062 3.65 8.185 3.65h302.964c3.123 0 6.098-1.327 8.185-3.65 2.085-2.323 3.086-5.424 2.751-8.529zm-162.418-331.721c24.221 0 44.638 16.586 50.498 38.996h-100.996c5.86-22.41 26.277-38.996 50.498-38.996zm-139.232 321.9 28.126-260.904h36.914v29.664c0 6.075 4.925 11 11 11s11-4.925 11-11v-29.664h104.384v29.664c0 6.075 4.925 11 11 11s11-4.925 11-11v-29.664h36.914l28.126 260.904z" fill="#0496FF"/></g><g/><g/><g/><g/><g/><g/><g/><g/><g/><g/><g/><g/><g/><g/><g/></svg>