<svg id="Capa_1" enable-background="new 0 0 512 512" viewBox="0 0 512 512" xmlns="http://www.w3.org/2000/svg" fill="#052438"><g><path d="m347.665 240.945h-183.33c-6.075 0-11 4.925-11 11v122.567c0 6.075 4.925 11 11 11h34.256c-14.196 11.35-22.48 23.032-23.139 23.979-3.468 4.976-2.246 11.81 2.723 15.289 1.918 1.343 4.115 1.987 6.293 1.987 3.464 0 6.877-1.632 9.02-4.678.257-.366 26.159-36.577 62.512-36.577s62.254 36.211 62.512 36.577c2.139 3.055 5.552 4.692 9.021 4.692 2.17 0 4.363-.641 6.279-1.976 4.984-3.473 6.21-10.329 2.736-15.313-.66-.947-8.943-12.629-23.139-23.979h34.256c6.075 0 11-4.925 11-11v-122.568c0-6.075-4.925-11-11-11zm-11 122.567h-161.33v-100.567h161.329v100.567z" fill="#0496FF"/><g><path d="m467.549 172.406h-423.098c-24.511 0-44.451 19.94-44.451 44.45v227.912c0 24.51 19.94 44.451 44.451 44.451h423.099c24.51 0 44.451-19.941 44.451-44.451v-227.912c-.001-24.51-19.941-44.45-44.452-44.45zm-445.549 272.362v-227.912c0-12.379 10.071-22.451 22.451-22.451h16.545v272.813h-16.545c-12.38.001-22.451-10.07-22.451-22.45zm468 0c0 12.379-10.071 22.451-22.451 22.451h-384.553v-272.813h384.553c12.379 0 22.451 10.071 22.451 22.451z"/><path d="m440.004 294.258c-6.075 0-11 4.925-11 11v50.656c0 6.075 4.925 11 11 11s11-4.925 11-11v-50.656c0-6.075-4.925-11-11-11z"/><path d="m429.85 248.52c2.672 7.107 12.723 9.084 17.93 3.579 6.203-5.924 2.824-17.088-5.63-18.569-8.357-1.873-15.796 7.163-12.3 14.99z"/><path d="m450.16 413.1c-2.673-7.097-12.744-9.092-17.93-3.57-6.918 6.723-1.863 18.892 7.77 18.78 7.574.21 13.292-8.285 10.16-15.21z"/></g><g><g><path d="m191.308 132.939c-2.595 0-5.2-.913-7.294-2.77-4.545-4.031-4.962-10.983-.932-15.528.26-.293.517-.559.793-.835 39.76-39.762 104.6-39.938 144.551-.404 4.318 4.273 4.355 11.238.081 15.556-4.272 4.318-11.238 4.355-15.556.082-31.373-31.046-82.293-30.906-113.509.312 0 0-.013.012-.027.027-2.164 2.357-5.129 3.56-8.107 3.56zm8.22-3.686c-.002.002-.003.004-.005.006.001-.002.003-.004.005-.006zm.014-.016c-.004.005-.008.009-.012.014.003-.004.008-.009.012-.014z" fill="#0496FF"/></g><g><path d="m148.174 89.801c-2.815 0-5.63-1.074-7.778-3.222-4.295-4.296-4.295-11.261 0-15.557l.375-.374c30.794-30.795 71.76-47.8 115.335-47.867h.26c43.471 0 84.376 16.861 115.213 47.498 4.31 4.282 4.332 11.247.051 15.557-4.283 4.31-11.247 4.332-15.557.051-55.163-54.803-144.775-54.653-199.762.334l-.359.359c-2.148 2.147-4.963 3.221-7.778 3.221z" fill="#0496FF"/></g></g></g><g/><g/><g/><g/><g/><g/><g/><g/><g/><g/><g/><g/><g/><g/><g/></svg>