<svg id="Capa_1" enable-background="new 0 0 512 512" viewBox="0 0 512 512" xmlns="http://www.w3.org/2000/svg" fill="#052438"><g><g fill="#0496FF"><path d="m86.168 312.162h-22v107.809c0 6.075 4.925 11 11 11h99.732v-22h-88.732z"/><path d="m245 259.162h22v79.799h-22z"/><path d="m434 408.971h-96.899v22h107.899c6.075 0 11-4.925 11-11v-107.809h-22z"/><path d="m150 203.162v-148c0-6.075-4.925-11-11-11h-128c-6.075 0-11 4.925-11 11v148c0 6.075 4.925 11 11 11h128c6.075 0 11-4.925 11-11zm-22-11h-106v-126h106z"/><path d="m501 44.162h-128c-6.075 0-11 4.925-11 11v148c0 6.075 4.925 11 11 11h128c6.075 0 11-4.925 11-11v-148c0-6.075-4.925-11-11-11zm-11 148h-106v-126h106z"/><path d="m320 .147h-128c-6.075 0-11 4.925-11 11v148c0 6.075 4.925 11 11 11h128c6.075 0 11-4.925 11-11v-148c0-6.075-4.925-11-11-11zm-11 148h-106v-126h106z"/><path d="m289.493 386.078c-4.297-4.296-11.26-4.296-15.557 0l-18.028 18.028-18.028-18.028c-4.296-4.296-11.261-4.296-15.557 0-4.295 4.296-4.295 11.261 0 15.557l18.028 18.028-18.028 18.028c-4.295 4.296-4.295 11.261 0 15.557 2.148 2.148 4.963 3.222 7.778 3.222s5.63-1.074 7.778-3.222l18.028-18.028 18.028 18.028c2.148 2.148 4.963 3.222 7.778 3.222s5.63-1.074 7.778-3.222c4.296-4.296 4.296-11.261 0-15.557l-18.028-18.028 18.028-18.028c4.298-4.297 4.298-11.261.002-15.557z"/></g><g><path d="m75.168 245.162c-21.505 0-39 17.495-39 39s17.495 39 39 39 39-17.495 39-39-17.495-39-39-39zm0 56c-9.374 0-17-7.626-17-17s7.626-17 17-17 17 7.626 17 17-7.626 17-17 17z"/><path d="m256 270.162c21.505 0 39-17.495 39-39s-17.495-39-39-39-39 17.495-39 39 17.495 39 39 39zm0-56c9.374 0 17 7.626 17 17s-7.626 17-17 17-17-7.626-17-17 7.626-17 17-17z"/><path d="m445 245.162c-21.505 0-39 17.495-39 39s17.495 39 39 39 39-17.495 39-39-17.495-39-39-39zm0 56c-9.374 0-17-7.626-17-17s7.626-17 17-17 17 7.626 17 17-7.626 17-17 17z"/><path d="m55 116.162h40c6.075 0 11-4.925 11-11s-4.925-11-11-11h-40c-6.075 0-11 4.925-11 11s4.925 11 11 11z"/><path d="m55 164.162h40c6.075 0 11-4.925 11-11s-4.925-11-11-11h-40c-6.075 0-11 4.925-11 11s4.925 11 11 11z"/><path d="m417 116.162h40c6.075 0 11-4.925 11-11s-4.925-11-11-11h-40c-6.075 0-11 4.925-11 11s4.925 11 11 11z"/><path d="m417 164.162h40c6.075 0 11-4.925 11-11s-4.925-11-11-11h-40c-6.075 0-11 4.925-11 11s4.925 11 11 11z"/><path d="m236 72.147h40c6.075 0 11-4.925 11-11s-4.925-11-11-11h-40c-6.075 0-11 4.925-11 11s4.925 11 11 11z"/><path d="m236 120.147h40c6.075 0 11-4.925 11-11s-4.925-11-11-11h-40c-6.075 0-11 4.925-11 11s4.925 11 11 11z"/><path d="m256 327.653c-50.784 0-92.1 41.316-92.1 92.1s41.316 92.1 92.1 92.1 92.101-41.316 92.101-92.1-41.317-92.1-92.101-92.1zm0 162.2c-38.653 0-70.1-31.447-70.1-70.1s31.447-70.1 70.1-70.1 70.101 31.447 70.101 70.1-31.448 70.1-70.101 70.1z"/></g></g><g/><g/><g/><g/><g/><g/><g/><g/><g/><g/><g/><g/><g/><g/><g/></svg>