<svg id="Capa_1" enable-background="new 0 0 512 512" viewBox="0 0 512 512" xmlns="http://www.w3.org/2000/svg" fill="#E6ECF2"><g><g fill="#0496FF"><path d="m184.997 129.466c1.055 0 2.128-.153 3.189-.474 5.814-1.76 9.103-7.9 7.343-13.714l-19.202-63.462c-1.758-5.814-7.898-9.103-13.714-7.343-5.814 1.76-9.103 7.9-7.343 13.714l19.202 63.462c1.438 4.752 5.804 7.817 10.525 7.817z"/><path d="m121.648 174.472-63.462-19.202c-5.821-1.762-11.956 1.528-13.714 7.343-1.76 5.814 1.527 11.955 7.343 13.714l63.462 19.202c1.062.321 2.135.474 3.189.474 4.722 0 9.087-3.064 10.524-7.817 1.76-5.814-1.528-11.954-7.342-13.714z"/><path d="m74.779 59.222c-4.297-4.296-11.26-4.296-15.557 0-4.296 4.296-4.296 11.261 0 15.557l69.505 69.505c2.148 2.148 4.963 3.222 7.778 3.222s5.63-1.074 7.778-3.222c4.296-4.296 4.296-11.261 0-15.557z"/><path d="m337.528 390.353c-1.758-5.814-7.897-9.103-13.714-7.343-5.814 1.76-9.103 7.9-7.343 13.714l19.202 63.462c1.438 4.753 5.803 7.817 10.524 7.817 1.055 0 2.128-.153 3.189-.474 5.815-1.76 9.103-7.9 7.343-13.714z"/><path d="m460.186 335.673-63.462-19.203c-5.816-1.761-11.956 1.529-13.714 7.343-1.76 5.815 1.527 11.955 7.343 13.714l63.462 19.203c1.062.321 2.135.474 3.189.474 4.722 0 9.087-3.064 10.524-7.817 1.76-5.814-1.527-11.954-7.342-13.714z"/><path d="m383.274 367.717c-4.297-4.296-11.26-4.296-15.557 0-4.296 4.296-4.296 11.261 0 15.557l69.505 69.505c2.148 2.147 4.963 3.221 7.778 3.221s5.63-1.074 7.778-3.222c4.296-4.296 4.296-11.261 0-15.557z"/><path d="m219.79 203.999-52.559 52.559 15.557 15.557 52.559-52.559c4.296-4.296 4.296-11.261 0-15.557-4.297-4.296-11.26-4.296-15.557 0z"/><path d="m292.445 276.653-52.56 52.559 15.557 15.557 52.56-52.559c4.296-4.296 4.296-11.261 0-15.557-4.298-4.295-11.262-4.296-15.557 0z"/></g><g><path d="m508.779 3.222c-4.296-4.295-11.261-4.296-15.557 0l-52.719 52.718-15.215-15.215c-4.296-4.295-11.261-4.296-15.557 0l-20.086 20.085c-21.538-14.303-50.939-11.966-69.91 7.003l-36.751 36.751-.551-.551c-7.976-7.975-20.947-7.973-28.921 0l-23.403 23.404c-7.974 7.974-7.974 20.947 0 28.921l125.553 125.552c3.986 3.986 9.223 5.979 14.459 5.979s10.473-1.993 14.46-5.979l23.406-23.406c7.973-7.973 7.973-20.945 0-28.917l-.552-.552 36.751-36.751c18.971-18.971 21.306-48.373 7.004-69.911l20.085-20.085c4.296-4.296 4.296-11.261 0-15.557l-15.215-15.214 52.719-52.718c4.295-4.296 4.295-11.261 0-15.557zm-138.658 262.016-123.359-123.359 21.212-21.212 123.359 123.36zm58.509-151.436c-4.296 4.296-4.296 11.261 0 15.557 6.324 6.324 9.807 14.731 9.807 23.675 0 8.943-3.482 17.351-9.807 23.675l-36.751 36.751-93.338-93.338 36.751-36.751c13.055-13.055 34.295-13.055 47.35 0 4.297 4.295 11.262 4.296 15.557 0l19.311-19.311 30.431 30.431z"/><path d="m156.339 230.11c-3.862-3.862-8.998-5.99-14.46-5.99-5.463 0-10.599 2.128-14.46 5.99l-23.406 23.405c-7.973 7.973-7.973 20.945 0 28.917l.552.552-32.54 32.54c-13.267 13.268-16.729 33.548-8.617 50.464 4.083 8.514 2.34 18.72-4.336 25.396l-18.347 18.347c-4.296 4.296-4.296 11.261 0 15.557l15.216 15.216-52.719 52.718c-4.296 4.296-4.296 11.261 0 15.557 2.148 2.147 4.963 3.221 7.778 3.221 2.814 0 5.631-1.074 7.778-3.222l52.719-52.718 15.215 15.215c2.148 2.148 4.963 3.222 7.778 3.222 2.814 0 5.631-1.074 7.778-3.222l18.347-18.347c6.676-6.676 16.883-8.419 25.396-4.336 16.917 8.112 37.197 4.65 50.465-8.617l32.54-32.54.551.551c3.862 3.862 8.998 5.99 14.46 5.99 5.463 0 10.598-2.127 14.46-5.99l23.404-23.404c7.974-7.974 7.974-20.947 0-28.92zm24.58 194.309c-6.676 6.676-16.883 8.419-25.396 4.336-16.918-8.112-37.198-4.651-50.465 8.617l-10.568 10.569-30.43-30.432 10.568-10.568c13.267-13.267 16.729-33.547 8.616-50.465-4.082-8.514-2.34-18.719 4.337-25.396l32.54-32.54 93.338 93.338zm63.108-33.086-123.36-123.359 21.212-21.211 123.359 123.359z"/></g></g><g/><g/><g/><g/><g/><g/><g/><g/><g/><g/><g/><g/><g/><g/><g/></svg>