<svg id="Capa_1" enable-background="new 0 0 512 512" height="512" viewBox="0 0 512 512" width="512" xmlns="http://www.w3.org/2000/svg" fill="#E6ECF2"><g><path d="m468.333 81.667h-77.109l-78.446-78.445c-2.063-2.063-4.861-3.222-7.778-3.222h-98-163.334c-11.664 0-22.63 4.543-30.876 12.79-8.248 8.247-12.79 19.213-12.79 30.877v359.333c0 11.664 4.542 22.63 12.789 30.876 8.247 8.248 19.213 12.791 30.877 12.791h239.685c6.075 0 11-4.925 11-11s-4.925-11-11-11h-239.685c-5.788 0-11.228-2.254-15.321-6.347-4.092-4.092-6.345-9.533-6.345-15.32v-359.333c0-5.787 2.253-11.229 6.347-15.321 4.091-4.092 9.532-6.346 15.319-6.346h158.777l78.445 78.445c2.063 2.062 4.861 3.222 7.778 3.222h179.666c11.947 0 21.667 9.72 21.667 21.666v261.334c0 6.075 4.925 11 11 11s11-4.925 11-11v-261.334c.001-24.077-19.588-43.666-43.666-43.666zm-234.776-59.667h66.887l59.667 59.667h-66.887z"/><g><path d="m386.667 512c-69.109 0-125.334-56.225-125.334-125.333 0-69.109 56.225-125.334 125.334-125.334 69.108 0 125.333 56.225 125.333 125.334 0 69.108-56.225 125.333-125.333 125.333zm0-228.667c-56.978 0-103.334 46.355-103.334 103.334 0 56.978 46.355 103.333 103.334 103.333 56.978 0 103.333-46.355 103.333-103.333s-46.355-103.334-103.333-103.334z" fill="#0496FF"/></g><g><path d="m378.499 430.333c-2.906 0-5.707-1.151-7.777-3.222l-32.667-32.666c-4.296-4.296-4.296-11.261 0-15.557 4.295-4.295 11.26-4.295 15.557 0l23.698 23.698 41.39-55.186c3.645-4.861 10.54-5.847 15.399-2.2 4.86 3.645 5.846 10.54 2.2 15.399l-49 65.333c-1.913 2.552-4.839 4.147-8.02 4.373-.259.019-.52.028-.78.028z"/></g></g></svg>