<svg id="Capa_1" enable-background="new 0 0 512 512" height="512" viewBox="0 0 512 512" width="512" xmlns="http://www.w3.org/2000/svg" fill="#E6ECF2"><g><path d="m433.894 12.798c-8.123-8.133-19.384-12.798-30.894-12.798h-228.667c-2.917 0-5.715 1.159-7.778 3.222l-98 98c-2.062 2.063-3.222 4.861-3.222 7.778v359.333c0 24.078 19.589 43.667 43.667 43.667h294c11.511 0 22.772-4.665 30.89-12.793 8.239-8.24 12.777-19.204 12.777-30.874v-424.666c0-11.67-4.538-22.634-12.773-30.869zm-255.005 9.202h.777v70.667c0 11.946-9.72 21.666-21.666 21.666h-70.667v-.776zm245.778 446.333c0 5.793-2.249 11.233-6.339 15.322-4.026 4.033-9.613 6.345-15.328 6.345h-294c-11.947 0-21.667-9.72-21.667-21.667v-332h70.667c24.078 0 43.666-19.589 43.666-43.666v-70.667h201.334c5.715 0 11.302 2.312 15.333 6.35 4.085 4.084 6.334 9.524 6.334 15.317z"/><g><path d="m221.7 223.767h81.666v22h-81.666z" transform="matrix(.8 -.6 .6 .8 -88.354 204.48)"/></g><g><path d="m251.534 301.733h22v81.666h-22z" transform="matrix(.6 -.8 .8 .6 -169.04 347.054)"/></g><g><path d="m190.666 348.667c-33.084 0-60-26.916-60-60s26.916-60 60-60 60 26.916 60 60-26.916 60-60 60zm0-98c-20.953 0-38 17.047-38 38s17.047 38 38 38 38-17.047 38-38-17.047-38-38-38z" fill="#0496FF"/></g><g><path d="m321.333 234.333c-24.077 0-43.666-19.589-43.666-43.666 0-24.078 19.589-43.667 43.666-43.667 24.078 0 43.667 19.589 43.667 43.667 0 24.077-19.589 43.666-43.667 43.666zm0-65.333c-11.946 0-21.666 9.72-21.666 21.667 0 11.946 9.72 21.666 21.666 21.666 11.947 0 21.667-9.72 21.667-21.666 0-11.947-9.72-21.667-21.667-21.667z" fill="#0496FF"/></g><g><path d="m321.333 430.333c-24.077 0-43.666-19.589-43.666-43.666 0-24.078 19.589-43.667 43.666-43.667 24.078 0 43.667 19.589 43.667 43.667 0 24.077-19.589 43.666-43.667 43.666zm0-65.333c-11.946 0-21.666 9.72-21.666 21.667 0 11.946 9.72 21.666 21.666 21.666 11.947 0 21.667-9.72 21.667-21.666 0-11.947-9.72-21.667-21.667-21.667z" fill="#0496FF"/></g></g></svg>