<svg id="Capa_1" enable-background="new 0 0 512 512" height="512" viewBox="0 0 512 512" width="512" xmlns="http://www.w3.org/2000/svg" fill="#E6ECF2"><g><g><path d="m435.667 512h-294c-11.67 0-22.637-4.545-30.879-12.798-8.243-8.233-12.788-19.199-12.788-30.869v-147c0-3.812 1.974-7.353 5.217-9.357 3.242-2.004 7.293-2.188 10.702-.482l59.624 29.812 43.688-29.125c3.284-2.191 7.49-2.452 11.021-.687l60.193 30.096 54.84-29.914c3.424-1.868 7.581-1.783 10.927.224l49.27 29.56 59.933-29.966c3.409-1.705 7.46-1.522 10.702.482 3.243 2.004 5.217 5.544 5.217 9.357v147c0 11.671-4.545 22.637-12.799 30.879-8.232 8.243-19.198 12.788-30.868 12.788zm-315.667-172.868v129.202c0 5.788 2.253 11.226 6.345 15.312 4.096 4.101 9.534 6.354 15.322 6.354h294c5.788 0 11.226-2.253 15.311-6.345 4.102-4.095 6.355-9.533 6.355-15.322v-129.201l-49.414 24.707c-3.362 1.682-7.352 1.53-10.578-.406l-49.048-29.427-54.358 29.651c-3.162 1.725-6.968 1.792-10.187.182l-59.625-29.812-43.688 29.125c-3.285 2.189-7.49 2.451-11.021.687z"/></g><path d="m401.212 12.798c-8.242-8.253-19.209-12.798-30.879-12.798h-228.666c-2.917 0-5.715 1.159-7.778 3.222l-98 98c-2.062 2.063-3.222 4.861-3.222 7.778v179.667c0 3.812 1.974 7.353 5.217 9.357 3.242 2.004 7.293 2.187 10.702.482l59.933-29.966 49.27 29.56c3.344 2.006 7.503 2.091 10.927.224l54.84-29.914 60.193 30.096c3.529 1.765 7.736 1.503 11.021-.687l43.688-29.125 59.624 29.812c1.552.776 3.237 1.161 4.918 1.161 2.012 0 4.018-.551 5.784-1.643 3.243-2.004 5.217-5.544 5.217-9.357v-245c-.001-11.67-4.546-22.636-12.789-30.869zm-254.988 9.202h.776v70.666c0 11.947-9.72 21.667-21.667 21.667h-70.666v-.777zm245.776 248.868-49.414-24.707c-3.53-1.766-7.736-1.503-11.021.687l-43.688 29.125-59.625-29.812c-3.22-1.609-7.025-1.543-10.187.182l-54.358 29.651-49.048-29.427c-1.737-1.042-3.696-1.567-5.659-1.567-1.682 0-3.367.385-4.919 1.161l-49.414 24.707v-134.535h70.666c24.078 0 43.667-19.589 43.667-43.667v-70.666h201.333c5.788 0 11.227 2.253 15.322 6.354 4.092 4.086 6.345 9.524 6.345 15.313z"/><g><path d="m321.333 201.667h-196c-6.075 0-11-4.925-11-11s4.925-11 11-11h196c6.075 0 11 4.925 11 11s-4.925 11-11 11z" fill="#0496FF"/></g><g><path d="m321.333 136.333h-98c-6.075 0-11-4.925-11-11s4.925-11 11-11h98c6.075 0 11 4.925 11 11s-4.925 11-11 11z" fill="#0496FF"/></g><g><path d="m386.667 422.167h-196c-6.075 0-11-4.925-11-11s4.925-11 11-11h196c6.075 0 11 4.925 11 11s-4.925 11-11 11z" fill="#0496FF"/></g></g></svg>