<svg id="Capa_1" enable-background="new 0 0 512 512" height="512" viewBox="0 0 512 512" width="512" xmlns="http://www.w3.org/2000/svg" fill="#E6ECF2"><g><g><path d="m288.667 218h-196c-6.075 0-11-4.925-11-11s4.925-11 11-11h196c6.075 0 11 4.925 11 11s-4.925 11-11 11z" fill="#0496FF"/></g><g><path d="m288.667 348.667h-196c-6.075 0-11-4.925-11-11s4.925-11 11-11h196c6.075 0 11 4.925 11 11s-4.925 11-11 11z" fill="#0496FF"/></g><g><path d="m435.667 81.666h65.334v22h-65.334z" fill="#0496FF"/></g><path d="m368.548 12.798c-8.243-8.253-19.21-12.798-30.881-12.798h-228.667c-2.918 0-5.715 1.159-7.778 3.222l-98 98c-2.063 2.063-3.222 4.86-3.222 7.778v359.333c0 24.078 19.589 43.667 43.667 43.667h294c11.671 0 22.639-4.545 30.875-12.792 8.249-8.246 12.792-19.211 12.792-30.875v-424.666c-.001-11.664-4.544-22.629-12.786-30.869zm-254.992 9.202h.777v70.666c0 11.947-9.72 21.667-21.667 21.667h-70.666v-.777zm245.777 446.333c0 5.786-2.253 11.225-6.351 15.322-4.087 4.091-9.526 6.345-15.316 6.345h-294c-11.946 0-21.666-9.72-21.666-21.667v-332h70.666c24.078 0 43.667-19.589 43.667-43.667v-70.666h201.333c5.79 0 11.229 2.253 15.322 6.351 4.092 4.091 6.345 9.53 6.345 15.316z"/><g><path d="m288.667 283.333h-196c-6.075 0-11-4.925-11-11s4.925-11 11-11h196c6.075 0 11 4.925 11 11s-4.925 11-11 11z"/></g><g><path d="m190.667 414h-98c-6.075 0-11-4.925-11-11s4.925-11 11-11h98c6.075 0 11 4.925 11 11s-4.925 11-11 11z"/></g><path d="m468.333 0c-24.078 0-43.667 19.589-43.667 43.667v318.957c0 49.483 11.698 99.035 33.829 143.295 1.863 3.727 5.672 6.081 9.838 6.081s7.976-2.354 9.839-6.081c22.131-44.261 33.828-93.812 33.828-143.295v-318.957c0-24.078-19.589-43.667-43.667-43.667zm0 22c11.947 0 21.667 9.72 21.667 21.667v315.667h-43.333v-315.667c0-11.947 9.719-21.667 21.666-21.667zm0 452.22c-11.893-29.57-19.026-61.083-21.05-92.886h42.1c-2.024 31.804-9.157 63.316-21.05 92.886z"/></g></svg>