<svg id="Layer_1" enable-background="new 0 0 512 512" viewBox="0 0 512 512" xmlns="http://www.w3.org/2000/svg" fill="#052438"><g><g><path d="m447.758 134.877c-4.245-53.612-49.251-95.955-103.924-95.955-17.236 0-33.957 4.193-48.968 12.202-21.886-31.789-58.17-51.124-97.203-51.124-61.871 0-112.765 47.881-117.583 108.535-46.89 12.839-80.08 55.697-80.08 105.085 0 60.093 48.89 108.983 108.983 108.983h62.047v-22h-62.047c-47.962 0-86.983-39.021-86.983-86.983 0-37.485 23.951-70.252 58.472-82.188 2.389 21.221 10.414 41.173 23.594 58.331 2.166 2.82 5.43 4.299 8.731 4.299 2.338 0 4.695-.743 6.693-2.277 4.818-3.701 5.723-10.606 2.022-15.424-12.959-16.871-19.81-37.064-19.81-58.399 0-52.913 43.048-95.961 95.96-95.961 34.867 0 67.045 18.962 83.979 49.486 2.947 5.313 9.644 7.229 14.955 4.283.506-.281.97-.604 1.413-.948 13.628-9.12 29.734-13.899 45.825-13.899 40.779 0 74.725 29.86 81.144 68.86-3.193-.317-6.406-.48-9.628-.48-6.075 0-11 4.925-11 11s4.925 11 11 11c6.382 0 12.716.807 18.826 2.394.042.011.082.027.125.038 32.795 8.578 55.699 38.276 55.699 72.217 0 41.162-33.488 74.65-74.65 74.65h-74.38v22h74.38c53.293 0 96.65-43.357 96.65-96.65 0-41.166-26.034-77.512-64.242-91.075z"/></g><g><g><path d="m376 512h-240c-21.505 0-39-17.495-39-39v-66c0-6.075 4.925-11 11-11h56c6.075 0 11 4.925 11 11v27h162v-27c0-6.075 4.925-11 11-11h56c6.075 0 11 4.925 11 11v66c0 21.505-17.495 39-39 39zm-257-94v55c0 9.374 7.626 17 17 17h240c9.374 0 17-7.626 17-17v-55h-34v27c0 6.075-4.925 11-11 11h-184c-6.075 0-11-4.925-11-11v-27z" fill="#0496FF"/></g></g><g><path d="m256 395.975c-10.417 0-20.211-4.057-27.577-11.423l-83.257-83.257c-4.295-4.296-4.295-11.261 0-15.557l39.598-39.598c4.296-4.296 11.261-4.296 15.557 0l16.68 16.68v-111.359c0-6.075 4.925-11 11-11h56c6.075 0 11 4.925 11 11v111.359l16.68-16.68c4.296-4.296 11.261-4.296 15.557 0l39.598 39.598c4.295 4.296 4.295 11.261 0 15.557l-83.257 83.257c-7.368 7.366-17.162 11.423-27.579 11.423zm-87.5-102.458 75.479 75.479c3.211 3.211 7.48 4.979 12.021 4.979s8.81-1.769 12.021-4.979l75.479-75.479-24.042-24.042-27.68 27.68c-3.146 3.145-7.879 4.087-11.988 2.384-4.11-1.703-6.791-5.713-6.791-10.163v-126.915h-34v126.916c0 4.449-2.68 8.46-6.791 10.163-4.111 1.701-8.842.761-11.988-2.384l-27.68-27.68z" fill="#0496FF"/></g></g><g/><g/><g/><g/><g/><g/><g/><g/><g/><g/><g/><g/><g/><g/><g/></svg>