<svg id="Capa_1" enable-background="new 0 0 512 512" viewBox="0 0 512 512" xmlns="http://www.w3.org/2000/svg" fill="#052438"><g><g><path d="m270.273 156.532h-75.759c-6.075 0-11 4.925-11 11s4.925 11 11 11h75.759c6.075 0 11-4.925 11-11s-4.924-11-11-11z"/><path d="m246 230.532h-51.485c-6.075 0-11 4.925-11 11s4.925 11 11 11h51.485c6.075 0 11-4.925 11-11s-4.925-11-11-11z"/><path d="m246 304.532h-51.485c-6.075 0-11 4.925-11 11s4.925 11 11 11h51.485c6.075 0 11-4.925 11-11s-4.925-11-11-11z"/><path d="m340.273 32h-112.062c-4.871-18.399-21.664-32-41.574-32s-36.703 13.601-41.574 32h-112.063c-18.196 0-33 14.804-33 33v370c0 18.196 14.804 33 33 33h185.327v-22h-185.327c-6.065 0-11-4.935-11-11v-370c0-6.065 4.935-11 11-11h78.637v26h-52.637c-6.075 0-11 4.925-11 11v318c0 6.075 4.925 11 11 11h161.258v-22h-150.258v-296h233.273v119h22v-130c0-6.075-4.925-11-11-11h-52.637v-26h78.637c6.065 0 11 4.935 11 11v154.52h22v-154.52c0-18.196-14.803-33-33-33zm-206.636 48v-26h21c6.075 0 11-4.925 11-11 0-11.58 9.421-21 21-21s21 9.42 21 21c0 6.075 4.925 11 11 11h21v26z"/></g><g fill="#0496FF"><path d="m142.736 144.753-22.222 22.222-9.736-9.737c-4.297-4.296-11.26-4.296-15.557 0-4.296 4.296-4.296 11.261 0 15.557l17.515 17.515c2.148 2.148 4.963 3.222 7.778 3.222s5.63-1.074 7.778-3.222l30-30c4.296-4.296 4.296-11.261 0-15.557-4.296-4.295-11.259-4.295-15.556 0z"/><path d="m142.736 218.753-22.222 22.222-9.736-9.737c-4.297-4.296-11.26-4.296-15.557 0-4.296 4.296-4.296 11.261 0 15.557l17.515 17.515c2.148 2.148 4.963 3.222 7.778 3.222s5.63-1.074 7.778-3.222l30-30c4.296-4.296 4.296-11.261 0-15.557-4.296-4.295-11.259-4.295-15.556 0z"/><path d="m142.736 292.753-22.222 22.222-9.736-9.737c-4.297-4.296-11.26-4.296-15.557 0-4.296 4.296-4.296 11.261 0 15.557l17.515 17.515c2.148 2.148 4.963 3.222 7.778 3.222s5.63-1.074 7.778-3.222l30-30c4.296-4.296 4.296-11.261 0-15.557-4.296-4.295-11.259-4.295-15.556 0z"/><path d="m501 350h-59v-129c0-6.075-4.925-11-11-11h-140c-6.075 0-11 4.925-11 11v129h-59c-6.075 0-11 4.925-11 11v140c0 6.075 4.925 11 11 11h280c6.075 0 11-4.925 11-11v-140c0-6.075-4.925-11-11-11zm-58 22v26h-24v-26zm-94-140h24v26h-24zm-70 140h24v26h-24zm71 118h-118v-118h25v37c0 6.075 4.925 11 11 11h46c6.075 0 11-4.925 11-11v-37h25zm-48-140v-118h25v37c0 6.075 4.925 11 11 11h46c6.075 0 11-4.925 11-11v-37h25v118zm188 140h-118v-118h25v37c0 6.075 4.925 11 11 11h46c6.075 0 11-4.925 11-11v-37h25z"/></g></g><g/><g/><g/><g/><g/><g/><g/><g/><g/><g/><g/><g/><g/><g/><g/></svg>