<svg id="Capa_1" enable-background="new 0 0 512 512" viewBox="0 0 512 512" xmlns="http://www.w3.org/2000/svg" fill="#E6ECF2"><g><path d="m330 128.235h-148c-6.075 0-11 4.925-11 11v148c0 6.075 4.925 11 11 11h148c6.075 0 11-4.925 11-11v-148c0-6.075-4.925-11-11-11zm-87.314 22h26.629v28.743h-26.629zm76.314 126h-126v-126h27.686v39.743c0 6.075 4.925 11 11 11h48.629c6.075 0 11-4.925 11-11v-39.743h27.685z" fill="#0496FF"/><g><path d="m256 0c-117.578 0-213.235 95.657-213.235 213.235 0 43.909 13.301 86.109 38.464 122.036 23.953 34.2 56.881 60.374 95.383 75.86l57.709 78.869h-106.321c-6.075 0-11 4.925-11 11s4.925 11 11 11h256c6.075 0 11-4.925 11-11s-4.925-11-11-11h-106.321l57.71-78.869c38.502-15.486 71.43-41.66 95.383-75.86 25.163-35.927 38.464-78.127 38.464-122.036-.001-117.578-95.658-213.235-213.236-213.235zm156.752 322.65c-22.062 31.499-52.598 55.409-88.308 69.146-1.971.758-3.682 2.067-4.928 3.771l-63.516 86.805-63.517-86.805c-1.246-1.704-2.957-3.013-4.928-3.771-35.71-13.737-66.246-37.647-88.308-69.146-22.56-32.209-34.483-70.044-34.483-109.415.001-105.447 85.789-191.235 191.236-191.235s191.235 85.788 191.235 191.235c0 39.371-11.923 77.206-34.483 109.415z"/><path d="m256 50.256c-89.866 0-162.979 73.112-162.979 162.979s73.112 162.979 162.979 162.979 162.979-73.112 162.979-162.979-73.113-162.979-162.979-162.979zm0 303.958c-77.735 0-140.979-63.243-140.979-140.979s63.243-140.979 140.979-140.979 140.979 63.243 140.979 140.979-63.244 140.979-140.979 140.979z"/></g></g><g/><g/><g/><g/><g/><g/><g/><g/><g/><g/><g/><g/><g/><g/><g/></svg>