<svg id="Capa_1" enable-background="new 0 0 512 512" viewBox="0 0 512 512" xmlns="http://www.w3.org/2000/svg" fill="#E6ECF2"><g><g><path d="m219.914 305.608h-22.514c-6.075 0-11 4.925-11 11s4.925 11 11 11h22.513c6.075 0 11-4.925 11-11s-4.924-11-10.999-11z"/><path d="m240.925 260.608h-43.525c-6.075 0-11 4.925-11 11s4.925 11 11 11h43.525c6.075 0 11-4.925 11-11s-4.925-11-11-11z"/><path d="m67 134c36.944 0 67-30.056 67-67s-30.056-67-67-67-67 30.056-67 67 30.056 67 67 67zm0-112c24.813 0 45 20.187 45 45s-20.187 45-45 45-45-20.187-45-45 20.187-45 45-45z"/><path d="m441 142c39.149 0 71-31.851 71-71s-31.851-71-71-71-71 31.851-71 71 31.851 71 71 71zm0-120c27.019 0 49 21.981 49 49s-21.981 49-49 49-49-21.981-49-49 21.981-49 49-49z"/><path d="m441 370c-39.149 0-71 31.851-71 71s31.851 71 71 71 71-31.851 71-71-31.851-71-71-71zm0 120c-27.019 0-49-21.981-49-49s21.981-49 49-49 49 21.981 49 49-21.981 49-49 49z"/><path d="m71 370c-39.149 0-71 31.851-71 71s31.851 71 71 71 71-31.851 71-71-31.851-71-71-71zm0 120c-27.019 0-49-21.981-49-49s21.981-49 49-49 49 21.981 49 49-21.981 49-49 49z"/></g><g fill="#0496FF"><path d="m364.5 136.5h-217c-6.075 0-11 4.925-11 11v217c0 6.075 4.925 11 11 11h217c6.075 0 11-4.925 11-11v-217c0-6.075-4.925-11-11-11zm-133.554 22h50.109v51.31l-20.136-10.068c-3.096-1.548-6.742-1.548-9.838 0l-20.135 10.068zm122.554 195h-195v-195h50.446v69.108c0 3.812 1.974 7.353 5.217 9.357 1.767 1.092 3.772 1.643 5.784 1.643 1.681 0 3.367-.385 4.919-1.161l31.134-15.568 31.136 15.568c3.408 1.705 7.459 1.521 10.702-.482 3.243-2.004 5.217-5.544 5.217-9.357v-69.108h50.445z"/><path d="m171 78h135.811c-2.729 4.257-2.238 9.982 1.485 13.704 2.148 2.148 4.963 3.222 7.778 3.222s5.63-1.074 7.778-3.222l16.926-16.926c4.296-4.296 4.296-11.261 0-15.557l-16.926-16.926c-4.297-4.296-11.26-4.296-15.557 0-3.723 3.723-4.214 9.447-1.485 13.704h-135.81c-6.075 0-11 4.925-11 11s4.925 11.001 11 11.001z"/><path d="m469.704 308.295c-3.723-3.723-9.446-4.214-13.704-1.484v-135.811c0-6.075-4.925-11-11-11s-11 4.925-11 11v135.811c-4.258-2.729-9.981-2.238-13.704 1.484-4.296 4.296-4.296 11.261 0 15.557l16.926 16.926c2.148 2.148 4.963 3.222 7.778 3.222s5.63-1.074 7.778-3.222l16.926-16.926c4.296-4.296 4.296-11.261 0-15.557z"/><path d="m341 434h-135.811c2.729-4.257 2.238-9.981-1.484-13.704-4.296-4.296-11.261-4.296-15.557 0l-16.926 16.926c-4.295 4.296-4.295 11.261 0 15.557l16.926 16.926c2.148 2.148 4.963 3.222 7.778 3.222s5.63-1.074 7.778-3.222c3.722-3.723 4.213-9.447 1.484-13.704h135.812c6.075 0 11-4.925 11-11s-4.925-11.001-11-11.001z"/><path d="m74.778 171.222c-4.296-4.296-11.261-4.296-15.557 0l-16.926 16.926c-4.295 4.296-4.295 11.261 0 15.557 3.723 3.723 9.447 4.213 13.704 1.485v135.81c0 6.075 4.925 11 11 11s11-4.925 11-11v-135.811c1.801 1.154 3.862 1.737 5.926 1.737 2.815 0 5.63-1.074 7.778-3.222 4.295-4.296 4.295-11.261 0-15.557z"/></g></g><g/><g/><g/><g/><g/><g/><g/><g/><g/><g/><g/><g/><g/><g/><g/></svg>