<svg id="Layer_1" enable-background="new 0 0 512 512" viewBox="0 0 512 512" xmlns="http://www.w3.org/2000/svg" fill="#E6ECF2"><g><g><path d="m268.329 412.922c15.58-19.89 28.453-49.82 37.123-87.779l-21.447-4.899c-6.984 30.576-17.028 56.075-29.047 73.741-7.683 11.293-19.92 24.755-34.588 24.755s-26.906-13.462-34.589-24.755c-12.018-17.666-22.062-43.166-29.046-73.741l-21.447 4.899c8.653 37.883 21.491 67.77 37.029 87.66-28.242-7.06-54.818-20.27-77.533-38.87l-13.938 17.021c39.208 32.105 88.759 49.787 139.525 49.787 34.911 0 68.305-7.929 99.253-23.566l-9.922-19.636c-13.314 6.726-27.139 11.849-41.373 15.383z"/><path d="m390.414 80.19-16.968 14.003c26.873 32.562 42.626 73.098 44.975 115.177h-101.964c-.292-14.085-1.133-28.044-2.531-41.627l-21.885 2.253c1.322 12.842 2.125 26.044 2.412 39.375h-148.167c.288-13.331 1.091-26.533 2.413-39.375l-21.885-2.253c-1.398 13.583-2.24 27.542-2.532 41.627h-101.963c2.336-41.811 17.919-82.137 44.49-114.586l-17.022-13.938c-32.106 39.208-49.787 88.758-49.787 139.524s17.681 100.316 49.787 139.524l17.021-13.938c-26.571-32.449-42.153-72.775-44.49-114.586h101.964c.292 14.086 1.133 28.045 2.532 41.627l21.885-2.253c-1.322-12.842-2.125-26.043-2.413-39.375h148.168c-.288 13.33-1.09 26.532-2.412 39.375l21.885 2.253c1.398-13.583 2.24-27.543 2.531-41.627h101.979c-1.475 27.45-8.48 53.754-20.899 78.332l19.636 9.922c15.638-30.949 23.566-64.342 23.566-99.253 0-51.074-17.873-100.857-50.326-140.181z"/><path d="m172.317 27.938c-15.538 19.89-28.376 49.775-37.029 87.658l21.447 4.899c6.984-30.575 17.028-56.074 29.047-73.74 7.683-11.293 19.92-24.755 34.588-24.755s26.905 13.462 34.588 24.755c12.019 17.666 22.062 43.165 29.047 73.74l21.447-4.899c-8.653-37.882-21.491-67.768-37.029-87.658 28.241 7.06 54.818 20.27 77.533 38.87l13.938-17.021c-39.208-32.106-88.759-49.787-139.524-49.787-50.766 0-100.316 17.681-139.524 49.787l13.938 17.021c22.715-18.6 49.291-31.81 77.533-38.87z"/></g><g fill="#0496FF"><path d="m407.992 303.984c-24.721 0-47.451 8.675-65.318 23.133l-11.011-11.011c5.842-12.264 3.7-27.413-6.44-37.553l-15.557-15.557c-10.14-10.139-25.288-12.282-37.553-6.44l-36.187-36.187 36.173-36.173c4.388 2.1 9.224 3.211 14.233 3.211 8.815 0 17.102-3.433 23.334-9.666l15.557-15.557c10.139-10.14 12.282-25.289 6.44-37.552l26.703-26.704c4.388 2.1 9.224 3.211 14.233 3.211 8.814 0 17.102-3.433 23.334-9.666l15.556-15.556c6.233-6.233 9.666-14.52 9.666-23.335 0-8.814-3.433-17.102-9.666-23.334-12.866-12.866-33.802-12.866-46.668 0l-15.557 15.557c-10.139 10.14-12.282 25.289-6.44 37.552l-26.703 26.704c-4.388-2.1-9.224-3.211-14.233-3.211-8.814 0-17.102 3.433-23.334 9.666l-15.557 15.557c-10.139 10.14-12.282 25.289-6.44 37.552l-36.187 36.187-36.173-36.173c2.1-4.387 3.211-9.224 3.211-14.232 0-8.815-3.433-17.102-9.666-23.335l-15.556-15.556c-6.233-6.233-14.52-9.666-23.335-9.666-5.008 0-9.845 1.111-14.232 3.211l-26.69-26.69c2.1-4.387 3.211-9.224 3.211-14.232 0-8.814-3.433-17.102-9.666-23.335l-15.555-15.554c-12.867-12.866-33.803-12.866-46.669 0-12.866 12.867-12.866 33.802 0 46.669l15.556 15.556c6.233 6.233 14.521 9.666 23.335 9.666 5.008 0 9.845-1.111 14.232-3.211l26.69 26.69c-2.1 4.388-3.211 9.224-3.211 14.232 0 8.815 3.433 17.102 9.666 23.335l15.556 15.556c6.233 6.233 14.52 9.666 23.335 9.666 5.008 0 9.845-1.111 14.232-3.211l36.173 36.173-36.187 36.187c-12.264-5.842-27.413-3.699-37.553 6.441l-15.556 15.556c-6.233 6.233-9.666 14.52-9.666 23.334 0 5.008 1.111 9.845 3.211 14.233l-26.704 26.703c-12.264-5.842-27.413-3.7-37.553 6.441l-15.556 15.555c-6.232 6.233-9.665 14.52-9.665 23.334s3.433 17.102 9.665 23.334c6.233 6.232 14.521 9.666 23.334 9.666 8.815 0 17.102-3.433 23.335-9.666l15.556-15.556c6.233-6.233 9.666-14.52 9.666-23.334 0-5.008-1.111-9.845-3.211-14.233l26.704-26.703c4.483 2.135 9.349 3.209 14.218 3.209 8.451 0 16.901-3.216 23.335-9.65l15.556-15.556c6.233-6.233 9.666-14.52 9.666-23.334 0-5.008-1.111-9.845-3.211-14.233l36.173-36.173 36.187 36.187c-5.842 12.264-3.7 27.413 6.44 37.553l15.557 15.557c6.433 6.433 14.884 9.649 23.334 9.649 4.869 0 9.735-1.074 14.218-3.209l11.011 11.011c-14.458 17.867-23.133 40.597-23.133 65.318 0 57.35 46.658 104.008 104.008 104.008s104.007-46.658 104.007-104.008-46.658-104.008-104.008-104.008zm-43.172-243.621 15.557-15.556c2.144-2.145 4.961-3.217 7.778-3.217s5.634 1.072 7.778 3.217c2.078 2.078 3.222 4.84 3.222 7.778s-1.144 5.701-3.222 7.778l-15.556 15.557c-2.078 2.078-4.84 3.222-7.778 3.222s-5.701-1.144-7.778-3.222c-4.289-4.29-4.289-11.269-.001-15.557zm-86.267 86.267 15.557-15.557c2.078-2.078 4.84-3.222 7.778-3.222s5.701 1.144 7.778 3.222c4.289 4.289 4.289 11.268 0 15.556l-15.557 15.557c-2.078 2.078-4.84 3.222-7.778 3.222s-5.701-1.144-7.778-3.222c-4.288-4.289-4.288-11.268 0-15.556zm-218.19-70.711-15.556-15.556c-4.289-4.289-4.289-11.268 0-15.557 2.144-2.145 4.961-3.217 7.778-3.217s5.634 1.072 7.778 3.217l15.556 15.556c2.078 2.078 3.222 4.84 3.222 7.778s-1.144 5.7-3.222 7.778-4.84 3.222-7.778 3.222c-2.938.001-5.701-1.143-7.778-3.221zm86.267 86.267-15.556-15.556c-2.078-2.078-3.222-4.84-3.222-7.778s1.144-5.7 3.222-7.778c2.078-2.078 4.84-3.222 7.778-3.222s5.701 1.144 7.778 3.222l15.556 15.556c2.078 2.078 3.222 4.84 3.222 7.778s-1.144 5.7-3.222 7.778-4.84 3.222-7.778 3.222-5.7-1.144-7.778-3.222zm-70.711 218.191-15.556 15.556c-2.078 2.078-4.84 3.222-7.778 3.222s-5.7-1.144-7.778-3.222c-4.289-4.289-4.289-11.267 0-15.556l15.556-15.556c2.145-2.145 4.961-3.217 7.779-3.217 2.816 0 5.634 1.073 7.778 3.217 2.078 2.078 3.222 4.84 3.222 7.778-.001 2.938-1.145 5.7-3.223 7.778zm86.267-86.267-15.556 15.556c-4.29 4.289-11.268 4.289-15.557 0-2.078-2.078-3.222-4.84-3.222-7.778s1.144-5.7 3.222-7.778l15.556-15.556c2.145-2.145 4.961-3.217 7.779-3.217 2.816 0 5.634 1.072 7.778 3.217 2.078 2.078 3.222 4.84 3.222 7.778s-1.144 5.7-3.222 7.778zm131.924 15.557-15.557-15.557c-4.289-4.289-4.289-11.267 0-15.557 4.289-4.289 11.268-4.29 15.556 0l15.557 15.557c4.289 4.289 4.289 11.268 0 15.556-4.288 4.289-11.267 4.289-15.556.001zm113.882 180.333c-45.219 0-82.008-36.789-82.008-82.008s36.789-82.008 82.008-82.008 82.008 36.789 82.008 82.008-36.789 82.008-82.008 82.008z"/><path d="m407.992 381.169h20c6.075 0 11-4.925 11-11s-4.925-11-11-11h-9v-3.662c0-6.075-4.925-11-11-11s-11 4.925-11 11v5.766c-11.064 4.393-18.912 15.197-18.912 27.807 0 16.493 13.418 29.912 29.912 29.912 4.362 0 7.912 3.549 7.912 7.912s-3.549 7.912-7.912 7.912h-20c-6.075 0-11 4.925-11 11s4.925 11 11 11h9v3.662c0 6.075 4.925 11 11 11s11-4.925 11-11v-5.766c11.064-4.393 18.912-15.197 18.912-27.807 0-16.493-13.418-29.912-29.912-29.912-4.362 0-7.912-3.549-7.912-7.912s3.55-7.912 7.912-7.912z"/></g></g><g/><g/><g/><g/><g/><g/><g/><g/><g/><g/><g/><g/><g/><g/><g/></svg>