<svg id="Layer_1" enable-background="new 0 0 512 512" viewBox="0 0 512 512" xmlns="http://www.w3.org/2000/svg" fill="#052438"><g><g><path d="m481 25.666h-450c-17.094 0-31 13.907-31 31v284.919c0 17.093 13.906 31 31 31h165.544l-16.401 47.75h-76.505c-6.075 0-11 4.925-11 11v44c0 6.075 4.925 11 11 11h304.725c6.075 0 11-4.925 11-11v-44c0-6.075-4.925-11-11-11h-76.505l-16.401-47.75h165.543c17.094 0 31-13.907 31-31v-284.919c0-17.094-13.906-31-31-31zm-450 22h450c4.963 0 9 4.038 9 9v243.156h-468v-243.156c0-4.963 4.037-9 9-9zm366.362 416.668h-282.724v-22h282.725v22zm-88.766-44h-105.192l16.401-47.75h72.39zm172.404-69.749h-450c-4.963 0-9-4.038-9-9v-19.764h468v19.764c0 4.962-4.037 9-9 9z"/><path d="m285.016 277.681h171.984c6.075 0 11-4.925 11-11s-4.925-11-11-11h-160.984v-108.984l38.057 38.057c2.063 2.062 4.861 3.222 7.778 3.222s5.715-1.159 7.778-3.222l30.404-30.405 50.503 50.503h-17.443c-6.075 0-11 4.925-11 11s4.925 11 11 11h44c6.075 0 11-4.925 11-11v-44c0-6.075-4.925-11-11-11s-11 4.925-11 11v17.444l-58.281-58.281c-2.063-2.063-4.861-3.222-7.778-3.222s-5.716 1.159-7.778 3.222l-30.404 30.405-45.835-45.835v-34.919c0-6.075-4.925-11-11-11s-11 4.925-11 11v186.016c-.001 6.074 4.923 10.999 10.999 10.999z"/></g><g fill="#0496FF"><path d="m148.008 69.666c-57.351 0-104.008 46.657-104.008 104.007s46.657 104.008 104.008 104.008 104.008-46.658 104.008-104.008-46.658-104.007-104.008-104.007zm0 186.015c-45.22 0-82.008-36.789-82.008-82.008s36.788-82.008 82.008-82.008 82.008 36.789 82.008 82.008-36.788 82.008-82.008 82.008z"/><path d="m148.008 146.85h20c6.075 0 11-4.925 11-11s-4.925-11-11-11h-9v-3.661c0-6.075-4.925-11-11-11s-11 4.925-11 11v5.766c-11.064 4.393-18.912 15.197-18.912 27.807 0 16.493 13.419 29.912 29.912 29.912 4.362 0 7.912 3.549 7.912 7.912s-3.55 7.912-7.912 7.912h-20c-6.075 0-11 4.925-11 11s4.925 11 11 11h9v3.662c0 6.075 4.925 11 11 11s11-4.925 11-11v-5.766c11.064-4.393 18.912-15.197 18.912-27.807 0-16.493-13.419-29.912-29.912-29.912-4.362 0-7.912-3.549-7.912-7.912 0-4.364 3.55-7.913 7.912-7.913z"/></g></g><g/><g/><g/><g/><g/><g/><g/><g/><g/><g/><g/><g/><g/><g/><g/></svg>