<svg id="Layer_1" enable-background="new 0 0 512 512" viewBox="0 0 512 512" xmlns="http://www.w3.org/2000/svg" fill="#052438"><g><path d="m501 339.864h-11v-94.735c0-6.075-4.925-11-11-11h-71.768c-6.075 0-11 4.925-11 11v94.735h-22v-144.736c0-6.075-4.925-11-11-11h-71.767c-6.075 0-11 4.925-11 11v144.735h-22v-194.735c0-6.075-4.925-11-11-11h-71.768c-6.075 0-11 4.925-11 11v168.48h22v-157.48h49.768v183.735h-39.45v22h292.985v22h-292.984v22h303.984c6.075 0 11-4.925 11-11v-44c0-6.074-4.925-10.999-11-10.999zm-82.768-83.736h49.768v83.735h-49.768zm-115.767-50h49.767v133.735h-49.767z"/><g fill="#0496FF"><path d="m483.209 119.198c-4.111-1.704-8.842-.762-11.988 2.384l-8.66 8.661-41.892-41.893c-2.063-2.063-4.861-3.222-7.778-3.222h-64.087l-46.779-46.778c-2.063-2.063-4.861-3.222-7.778-3.222h-118.549c-6.075 0-11 4.925-11 11v55c0 6.075 4.925 11 11 11h91.211l46.778 46.778c2.063 2.063 4.861 3.222 7.778 3.222h64.087l22.562 22.562-8.66 8.66c-3.146 3.146-4.087 7.877-2.384 11.988s5.713 6.791 10.163 6.791h71.767c6.075 0 11-4.925 11-11v-71.768c0-4.449-2.68-8.46-6.791-10.163zm-15.209 70.93h-34.768c.935-1.643 1.438-3.515 1.438-5.438 0-2.917-1.159-5.715-3.222-7.778l-33.562-33.562c-2.063-2.063-4.861-3.222-7.778-3.222h-64.087l-46.777-46.778c-2.063-2.063-4.861-3.222-7.778-3.222h-84.768v-33h102.993l46.778 46.778c2.063 2.063 4.861 3.222 7.778 3.222h64.087l46.449 46.449c3.582 3.582 9.017 4.176 13.217 1.787z"/><path d="m104.008 268.856c-57.35 0-104.008 46.658-104.008 104.008s46.658 104.008 104.008 104.008 104.008-46.658 104.008-104.008-46.658-104.008-104.008-104.008zm0 186.016c-45.219 0-82.008-36.789-82.008-82.008s36.789-82.008 82.008-82.008 82.008 36.789 82.008 82.008-36.789 82.008-82.008 82.008z"/><path d="m104.008 346.041h20c6.075 0 11-4.925 11-11s-4.925-11-11-11h-9v-3.662c0-6.075-4.925-11-11-11s-11 4.925-11 11v5.766c-11.064 4.393-18.912 15.197-18.912 27.807 0 16.493 13.418 29.912 29.912 29.912 4.362 0 7.912 3.549 7.912 7.912 0 4.362-3.549 7.912-7.912 7.912h-20c-6.075 0-11 4.925-11 11s4.925 11 11 11h9v3.661c0 6.075 4.925 11 11 11s11-4.925 11-11v-5.766c11.064-4.393 18.912-15.197 18.912-27.807 0-16.494-13.418-29.912-29.912-29.912-4.362 0-7.912-3.549-7.912-7.912s3.55-7.911 7.912-7.911z"/></g></g><g/><g/><g/><g/><g/><g/><g/><g/><g/><g/><g/><g/><g/><g/><g/></svg>