<svg id="Layer_1" enable-background="new 0 0 512 512" viewBox="0 0 512 512" xmlns="http://www.w3.org/2000/svg" fill="#E6ECF2"><g><g><path d="m350.374 0h-308c-6.075 0-11 4.925-11 11v414.434c0 6.075 4.925 11 11 11h229.441v-22h-218.441v-392.434h286v286.803h22v-297.803c0-6.075-4.925-11-11-11z"/><path d="m86.374 207.702c-6.075 0-11 4.925-11 11v162.732c0 6.075 4.925 11 11 11h44c6.075 0 11-4.925 11-11v-162.732c0-6.075-4.925-11-11-11zm33 162.732h-22v-140.732h22z"/><path d="m174.374 237.702c-6.075 0-11 4.925-11 11v132.732c0 6.075 4.925 11 11 11h44c6.075 0 11-4.925 11-11v-132.732c0-6.075-4.925-11-11-11zm33 132.732h-22v-110.732h22z"/><path d="m306.374 267.702h-44c-6.075 0-11 4.925-11 11v102.732c0 6.075 4.925 11 11 11h34.845v-22h-23.845v-80.732h22v75.874h22v-86.874c0-6.076-4.925-11-11-11z"/><path d="m306.374 148.97h-118c-6.075 0-11 4.925-11 11s4.925 11 11 11h118c6.075 0 11-4.925 11-11s-4.925-11-11-11z"/><path d="m306.374 104.97h-88c-6.075 0-11 4.925-11 11s4.925 11 11 11h88c6.075 0 11-4.925 11-11s-4.925-11-11-11z"/></g><g fill="#0496FF"><path d="m106.374 80.661h20c6.075 0 11-4.925 11-11s-4.925-11-11-11h-9v-3.661c0-6.075-4.925-11-11-11s-11 4.925-11 11v5.766c-11.064 4.393-18.912 15.197-18.912 27.807 0 16.493 13.419 29.912 29.912 29.912 4.362 0 7.912 3.549 7.912 7.912s-3.55 7.912-7.912 7.912h-20c-6.075 0-11 4.925-11 11s4.925 11 11 11h9v3.662c0 6.075 4.925 11 11 11s11-4.925 11-11v-5.766c11.064-4.393 18.912-15.197 18.912-27.807 0-16.493-13.419-29.912-29.912-29.912-4.362 0-7.912-3.549-7.912-7.912 0-4.364 3.55-7.913 7.912-7.913z"/><path d="m473.712 435.5-66.038-114.381c-9.219-15.967-25.729-25.5-44.167-25.5s-34.948 9.533-44.167 25.5l-66.038 114.381c-9.219 15.967-9.219 35.032 0 51 9.218 15.968 25.729 25.5 44.167 25.5h132.076c18.438 0 34.949-9.533 44.167-25.5 9.219-15.968 9.219-35.033 0-51zm-19.052 40c-5.242 9.08-14.631 14.5-25.115 14.5h-132.076c-10.484 0-19.873-5.42-25.115-14.5-5.241-9.08-5.241-19.92.001-29l66.038-114.381c5.242-9.08 14.63-14.5 25.114-14.5s19.872 5.42 25.114 14.5l66.038 114.381c5.242 9.08 5.242 19.92.001 29z"/><path d="m373.669 452.79c-2.694-7.094-12.733-9.084-17.94-3.57-6.904 6.803-1.908 18.844 7.78 18.78 7.581.212 13.274-8.283 10.16-15.21z"/><path d="m363.507 424c6.075 0 11-4.925 11-11v-62.381c0-6.075-4.925-11-11-11s-11 4.925-11 11v62.381c0 6.075 4.925 11 11 11z"/></g></g><g/><g/><g/><g/><g/><g/><g/><g/><g/><g/><g/><g/><g/><g/><g/></svg>