<svg id="Layer_1" enable-background="new 0 0 512 512" viewBox="0 0 512 512" xmlns="http://www.w3.org/2000/svg" fill="#052438"><g><g><path d="m501 67.017h-163.333c-6.075 0-11 4.925-11 11v73.776l-20.987 6.069-15.599-148.015c-.59-5.597-5.311-9.847-10.94-9.847h-46.282c-5.623 0-10.34 4.24-10.938 9.831l-18.998 177.748-17.59 5.087v-32.603c0-3.458-1.626-6.714-4.39-8.792-2.764-2.079-6.345-2.735-9.666-1.774l-28.932 8.367-15.598-148.017c-.59-5.597-5.31-9.847-10.939-9.847h-46.282c-5.623 0-10.34 4.24-10.938 9.831l-18.998 177.748-31.646 9.152c-4.705 1.361-7.944 5.669-7.944 10.567v133.547c0 6.075 4.925 11 11 11h163.333c6.075 0 11-4.925 11-11v-125.278l141.333-40.873v166.151c0 6.075 4.925 11 11 11h163.334c6.075 0 11-4.925 11-11v-262.828c0-6.075-4.925-11-11-11zm-395.094-45.017 2.318 22h-31.163l2.351-22zm-31.196 44h35.833l10.335 98.071-58.457 16.906zm-52.71 149.567 141.333-40.873v155.151h-37.667v-65.828c0-6.075-4.925-11-11-11h-44c-6.075 0-11 4.925-11 11v65.828h-37.666zm81.667 114.278h-22v-54.828h22zm165.572-307.845 2.318 22h-31.163l2.351-22zm-31.196 44h35.833l10.335 98.071-58.457 16.906zm251.957 23.017v22h-141.333v-22zm-48.867 240.828h-43.599v-64.828h43.599zm22 0v-75.828c0-6.075-4.925-11-11-11h-65.599c-6.075 0-11 4.925-11 11v75.828h-26.867v-196.828h141.333v196.828z"/><path d="m278 253.017h-44c-6.075 0-11 4.925-11 11v49.139h22v-38.139h22v38.139h22v-49.139c0-6.075-4.925-11-11-11z"/><path d="m441.333 155.017h-44c-6.075 0-11 4.925-11 11v44c0 6.075 4.925 11 11 11h44c6.075 0 11-4.925 11-11v-44c0-6.075-4.924-11-11-11zm-11 44h-22v-22h22z"/></g><g fill="#0496FF"><path d="m256 302.156c-57.854 0-104.922 47.068-104.922 104.922s47.068 104.922 104.922 104.922 104.922-47.068 104.922-104.922-47.068-104.922-104.922-104.922zm0 187.844c-45.723 0-82.922-37.199-82.922-82.922s37.199-82.922 82.922-82.922 82.922 37.199 82.922 82.922-37.199 82.922-82.922 82.922z"/><path d="m299.079 364c-4.296-4.296-11.261-4.296-15.557 0l-27.522 27.521-27.522-27.521c-4.296-4.296-11.261-4.296-15.557 0-4.295 4.296-4.295 11.261 0 15.557l27.522 27.522-27.522 27.521c-4.295 4.296-4.295 11.261 0 15.557 2.148 2.148 4.963 3.222 7.778 3.222s5.63-1.074 7.778-3.222l27.523-27.522 27.522 27.522c2.148 2.148 4.963 3.222 7.778 3.222s5.63-1.074 7.778-3.222c4.295-4.296 4.295-11.261 0-15.557l-27.522-27.522 27.522-27.522c4.296-4.296 4.296-11.261.001-15.556z"/></g></g><g/><g/><g/><g/><g/><g/><g/><g/><g/><g/><g/><g/><g/><g/><g/></svg>