<svg id="Capa_1" enable-background="new 0 0 510.103 510.103" height="512" viewBox="0 0 510.103 510.103" width="512" xmlns="http://www.w3.org/2000/svg" fill="#E6ECF2"><g><g><path d="m499.102 510.103h-488.102c-6.075 0-11-4.925-11-11v-488.103c0-6.075 4.925-11 11-11h488.102c6.075 0 11 4.925 11 11v488.103c0 6.075-4.925 11-11 11zm-477.102-22h466.102v-466.103h-466.102z"/></g><g><g><path d="m447.528 152.026h-242.044c-6.075 0-11-4.925-11-11s4.925-11 11-11h242.044c6.075 0 11 4.925 11 11s-4.925 11-11 11z"/></g><g><path d="m447.528 228.709h-242.044c-6.075 0-11-4.925-11-11s4.925-11 11-11h242.044c6.075 0 11 4.925 11 11s-4.925 11-11 11z"/></g></g><g><g><path d="m157.322 337.011-56.51 56.51c-2.15 2.14-4.96 3.22-7.78 3.22-2.81 0-5.63-1.08-7.78-3.22-4.29-4.3-4.29-11.27 0-15.56l37.73-37.73h-62.93c-6.08 0-11-4.92-11-11 0-6.07 4.92-11 11-11h62.93l-37.73-37.72c-4.29-4.3-4.29-11.27 0-15.56 4.3-4.3 11.26-4.3 15.56 0l56.51 56.5c4.29 4.3 4.29 11.26 0 15.56z" fill="#0496FF"/></g></g><g><path d="m432.821 382.917h-213.375c-6.075 0-11-4.925-11-11v-76.684c0-6.075 4.925-11 11-11h213.375c6.075 0 11 4.925 11 11v76.684c0 6.075-4.925 11-11 11zm-202.375-22h191.375v-54.684h-191.375z"/></g></g></svg>