<svg id="Capa_1" enable-background="new 0 0 504 504" height="512" viewBox="0 0 504 504" width="512" xmlns="http://www.w3.org/2000/svg" fill="#052438"><g><g><path d="m493 353.656h-482c-6.075 0-11-4.925-11-11v-181.312c0-6.075 4.925-11 11-11h482c6.075 0 11 4.925 11 11v181.312c0 6.075-4.925 11-11 11zm-471-22h460v-159.312h-460z" fill="#0496FF"/></g><g><path d="m157.85 221.34c0 6.08-4.93 11-11 11h-34.14v68.14c0 6.08-4.92 11-11 11-6.07 0-11-4.92-11-11v-68.14h-34.14c-6.07 0-11-4.92-11-11 0-6.07 4.93-11 11-11h90.28c6.07 0 11 4.93 11 11z"/></g><g><path d="m433.09 402.66c0 6.07-4.92 11-11 11h-90.27c-6.08 0-11-4.93-11-11 0-6.08 4.92-11 11-11h34.13v-279.32h-34.13c-6.08 0-11-4.92-11-11 0-6.07 4.92-11 11-11h90.27c6.08 0 11 4.93 11 11 0 6.08-4.92 11-11 11h-34.14v279.32h34.14c6.08 0 11 4.92 11 11z"/></g></g></svg>