<svg id="Capa_1" enable-background="new 0 0 504 504" height="512" viewBox="0 0 504 504" width="512" xmlns="http://www.w3.org/2000/svg" fill="#052438"><g><g><path d="m131.5 263h-120.5c-6.075 0-11-4.925-11-11v-241c0-6.075 4.925-11 11-11h241c6.075 0 11 4.925 11 11v120.5c0 6.075-4.925 5.15-11 5.15s-11 .925-11-5.15v-109.5h-219v219h109.5c6.075 0 4.661 4.925 4.661 11s1.414 11-4.661 11z"/></g><g><path d="m252 383.5h-53c-43.285 0-78.5-35.215-78.5-78.5v-106c0-43.285 35.215-78.5 78.5-78.5h106c43.285 0 78.5 35.215 78.5 78.5v53c0 6.075-4.925 11-11 11s-11-4.925-11-11v-53c0-31.154-25.346-56.5-56.5-56.5h-106c-31.154 0-56.5 25.346-56.5 56.5v106c0 31.154 25.346 56.5 56.5 56.5h53c6.075 0 11 4.925 11 11s-4.925 11-11 11z" fill="#0496FF"/></g><g><path d="m372.5 504c-72.509 0-131.5-58.99-131.5-131.5s58.991-131.5 131.5-131.5 131.5 58.99 131.5 131.5-58.991 131.5-131.5 131.5zm0-241c-60.378 0-109.5 49.121-109.5 109.5s49.122 109.5 109.5 109.5 109.5-49.121 109.5-109.5-49.122-109.5-109.5-109.5z"/></g></g></svg>