<svg id="Capa_1" enable-background="new 0 0 507.752 507.752" height="512" viewBox="0 0 507.752 507.752" width="512" xmlns="http://www.w3.org/2000/svg" fill="#E6ECF2"><g><g><path d="m487.514 265.382c-.24-.28-.49-.56-.76-.83l-150-150c-.24-.24-.49-.47-.75-.68-12.79-12.45-30.24-20.12-49.46-20.12h-182c-6.08 0-11 4.92-11 11v392c0 6.08 4.92 11 11 11h392c6.08 0 11-4.92 11-11v-182c0-19.169-7.63-36.58-20.03-49.37zm-129.97-98.93 77.3 77.3h-77.3zm128 319.3h-370v-370h171c27.02 0 49 21.98 49 49v90c0 6.08 4.92 11 11 11h90c27.02 0 49 21.98 49 49z"/></g><g><path d="m104.544 70.752c-6.075 0-11-4.925-11-11v-48.752c0-6.075 4.925-11 11-11s11 4.925 11 11v48.752c0 6.076-4.925 11-11 11z" fill="#0496FF"/></g><g><path d="m59.544 115.752h-48.336c-6.075 0-11-4.925-11-11s4.925-11 11-11h48.336c6.075 0 11 4.925 11 11s-4.925 11-11 11z" fill="#0496FF"/></g></g></svg>