<svg id="Capa_1" enable-background="new 0 0 504 504" height="512" viewBox="0 0 504 504" width="512" xmlns="http://www.w3.org/2000/svg" fill="#E6ECF2"><g><g><path d="m498.37 296.81-107.5-60.12c-3.34-1.86-7.4-1.86-10.74 0l-107.5 60.12c-3.48 1.94-5.63 5.61-5.63 9.6v118.13c0 3.98 2.15 7.65 5.63 9.6l107.5 60.11c1.67.94 3.52 1.4 5.37 1.4s3.7-.46 5.37-1.4l107.5-60.11c3.48-1.95 5.63-5.62 5.63-9.6v-118.13c0-3.99-2.15-7.66-5.63-9.6zm-112.87-37.92 84.96 47.52-84.96 47.51-84.96-47.51zm-96.5 66.27 85.5 47.81v92.93l-85.5-47.81zm193 92.93-85.5 47.81v-92.93l85.5-47.81z"/></g><g><path d="m10.998 374.16c-1.414 0-2.838-.272-4.197-.833-4.116-1.7-6.801-5.714-6.801-10.167v-343.81c0-4.141 2.325-7.93 6.016-9.806 3.69-1.876 8.123-1.521 11.467.919l277 202.086c3.59 2.619 5.251 7.142 4.211 11.462s-4.578 7.59-8.967 8.288l-157.891 25.112-113.042 113.511c-2.106 2.114-4.926 3.238-7.796 3.238zm11.002-333.168v295.534l96.776-97.177c1.643-1.65 3.767-2.736 6.066-3.102l135.299-21.52z" fill="#0496FF"/></g></g></svg>