<svg id="Capa_1" enable-background="new 0 0 503.808 503.808" height="512" viewBox="0 0 503.808 503.808" width="512" xmlns="http://www.w3.org/2000/svg" fill="#052438"><g><g><path d="m178.515 448.675h-60c-6.075 0-11-4.925-11-11v-300.543h-96.515c-6.075 0-11-4.925-11-11v-60c0-6.075 4.925-11 11-11h275.701c6.075 0 11 4.925 11 11v60c0 6.075-4.925 11-11 11h-97.186v300.543c0 6.075-4.925 11-11 11zm-49-22h38v-300.543c0-6.075 4.925-11 11-11h97.186v-38h-253.701v38h96.515c6.075 0 11 4.925 11 11z"/></g><g><path d="m424.621 448.675h-60c-6.075 0-11-4.925-11-11v-160.543h-56.515c-6.075 0-11-4.925-11-11v-60c0-6.075 4.925-11 11-11h195.701c6.075 0 11 4.925 11 11v60c0 6.075-4.925 11-11 11h-57.187v160.543c.001 6.075-4.924 11-10.999 11zm-49-22h38v-160.543c0-6.075 4.925-11 11-11h57.187v-38h-173.702v38h56.515c6.075 0 11 4.925 11 11z" fill="#0496FF"/></g></g></svg>