<svg id="Capa_1" enable-background="new 0 0 510.103 510.103" height="512" viewBox="0 0 510.103 510.103" width="512" xmlns="http://www.w3.org/2000/svg" fill="#E6ECF2"><g><g><g><path d="m160.541 141.021c0 2.92-1.16 5.72-3.22 7.78l-56.51 56.51c-2.15 2.15-4.96 3.22-7.78 3.22-2.81 0-5.63-1.07-7.78-3.22-4.29-4.3-4.29-11.26 0-15.56l37.73-37.73h-62.93c-6.08 0-11-4.92-11-11 0-6.07 4.92-11 11-11h62.93l-37.73-37.72c-4.29-4.3-4.29-11.26 0-15.56 4.3-4.29 11.26-4.29 15.56 0l56.51 56.51c2.06 2.06 3.22 4.86 3.22 7.77z" fill="#0496FF"/></g></g><g><path d="m499.102 510.103h-488.102c-6.075 0-11-4.925-11-11v-488.103c0-6.075 4.925-11 11-11h488.102c6.075 0 11 4.925 11 11v488.103c0 6.075-4.925 11-11 11zm-477.102-22h466.102v-466.103h-466.102z"/></g><g><g><path d="m447.528 152.026h-132.43c-6.075 0-11-4.925-11-11s4.925-11 11-11h132.43c6.075 0 11 4.925 11 11s-4.925 11-11 11z"/></g><g><path d="m447.528 228.709h-246.045c-6.075 0-11-4.925-11-11s4.925-11 11-11h246.045c6.075 0 11 4.925 11 11s-4.925 11-11 11z"/></g><g><path d="m447.528 305.393h-246.045c-6.075 0-11-4.925-11-11s4.925-11 11-11h246.045c6.075 0 11 4.925 11 11s-4.925 11-11 11z"/></g><g><path d="m447.528 382.077h-246.045c-6.075 0-11-4.925-11-11s4.925-11 11-11h246.045c6.075 0 11 4.925 11 11s-4.925 11-11 11z"/></g></g></g></svg>