<svg id="Capa_1" enable-background="new 0 0 504 504" height="512" viewBox="0 0 504 504" width="512" xmlns="http://www.w3.org/2000/svg" fill="#E6ECF2"><g><g><path d="m252 504c-67.312 0-130.595-26.213-178.19-73.81-47.597-47.595-73.81-110.878-73.81-178.19v-20c0-50.453 41.047-91.5 91.5-91.5 6.075 0 11 4.925 11 11v55h38v-95c0-61.481 50.019-111.5 111.5-111.5 67.312 0 130.595 26.213 178.19 73.81 47.597 47.595 73.81 110.878 73.81 178.19s-26.213 130.595-73.81 178.19c-47.595 47.597-110.878 73.81-178.19 73.81zm-171.5-340.631c-33.114 5.288-58.5 34.051-58.5 68.631v20c0 126.822 103.178 230 230 230s230-103.178 230-230-103.178-230-230-230c-49.351 0-89.5 40.149-89.5 89.5v106c0 6.075-4.925 11-11 11h-60c-6.075 0-11-4.925-11-11z"/></g><g><path d="m252 444c-28.397 0-51.5-23.103-51.5-51.5s23.103-51.5 51.5-51.5 51.5 23.103 51.5 51.5-23.103 51.5-51.5 51.5zm0-81c-16.267 0-29.5 13.233-29.5 29.5s13.233 29.5 29.5 29.5 29.5-13.233 29.5-29.5-13.233-29.5-29.5-29.5z" fill="#0496FF"/></g><g><path d="m252 163c-28.397 0-51.5-23.103-51.5-51.5s23.103-51.5 51.5-51.5 51.5 23.103 51.5 51.5-23.103 51.5-51.5 51.5zm0-81c-16.267 0-29.5 13.233-29.5 29.5s13.233 29.5 29.5 29.5 29.5-13.233 29.5-29.5-13.233-29.5-29.5-29.5z" fill="#0496FF"/></g><g><path d="m130.323 373.75c-28.397 0-51.5-23.103-51.5-51.5s23.103-51.5 51.5-51.5 51.5 23.103 51.5 51.5-23.102 51.5-51.5 51.5zm0-81c-16.267 0-29.5 13.233-29.5 29.5s13.233 29.5 29.5 29.5 29.5-13.233 29.5-29.5-13.233-29.5-29.5-29.5z" fill="#0496FF"/></g><g><path d="m373.677 233.25c-28.397 0-51.5-23.103-51.5-51.5s23.103-51.5 51.5-51.5 51.5 23.103 51.5 51.5-23.103 51.5-51.5 51.5zm0-81c-16.267 0-29.5 13.233-29.5 29.5s13.233 29.5 29.5 29.5 29.5-13.233 29.5-29.5-13.234-29.5-29.5-29.5z" fill="#0496FF"/></g><g><path d="m373.677 373.75c-28.397 0-51.5-23.103-51.5-51.5s23.103-51.5 51.5-51.5 51.5 23.103 51.5 51.5-23.103 51.5-51.5 51.5zm0-81c-16.267 0-29.5 13.233-29.5 29.5s13.233 29.5 29.5 29.5 29.5-13.233 29.5-29.5-13.234-29.5-29.5-29.5z" fill="#0496FF"/></g></g></svg>