<svg id="Capa_1" enable-background="new 0 0 504 504" height="512" viewBox="0 0 504 504" width="512" xmlns="http://www.w3.org/2000/svg" fill="#052438"><g><g><path d="m493 444h-422c-6.075 0-11-4.925-11-11v-422c0-6.075 4.925-11 11-11h422c6.075 0 11 4.925 11 11v422c0 6.075-4.925 11-11 11zm-411-22h400v-400h-400z"/></g><g><path d="m252 504h-241c-6.075 0-11-4.925-11-11v-241c0-6.075 4.925-11 11-11h241c6.075 0 11 4.925 11 11v241c0 6.075-4.925 11-11 11zm-230-22h219v-219h-219z" fill="#0496FF"/></g><g><path d="m444 71v90c0 6.08-4.92 11-11 11s-11-4.92-11-11v-63.44l-117.22 117.22c-2.15 2.15-4.96 3.22-7.78 3.22s-5.63-1.07-7.78-3.22c-4.29-4.3-4.29-11.26 0-15.56l117.22-117.22h-63.44c-6.08 0-11-4.92-11-11s4.92-11 11-11h90c6.08 0 11 4.92 11 11z" fill="#0496FF"/></g></g></svg>