<svg id="Capa_1" enable-background="new 0 0 495.64 495.64" height="512" viewBox="0 0 495.64 495.64" width="512" xmlns="http://www.w3.org/2000/svg" fill="#E6ECF2"><g><g><path d="m82.712 423.189c-2.815 0-3.192-5.608-5.34-7.756-4.295-4.296-8.49-4.231-4.195-8.526l268.75-268.75c4.296-4.296 8.593-1.018 12.889 3.278 4.295 4.296 6.963 7.983 2.668 12.279l-268.75 268.75c-2.149 2.147-3.207.725-6.022.725z" fill="#0496FF"/></g><g><path d="m474.84 20.8c-13.41-13.41-31.24-20.8-50.2-20.8s-36.79 7.39-50.2 20.8l-330.38 330.37c-1.22 1.22-2.14 2.72-2.68 4.37l-40.84 125.7c-1.28 3.93-.24 8.25 2.68 11.18 2.1 2.09 4.91 3.22 7.78 3.22 1.14 0 2.29-.18 3.4-.54l125.7-40.84c1.65-.54 3.15-1.46 4.37-2.68l330.37-330.38c13.41-13.41 20.8-31.24 20.8-50.2s-7.39-36.79-20.8-50.2zm-446.7 446.7 27.96-86.05c7 10.58 11.77 22.49 14.03 35.16.8 4.54 4.36 8.1 8.9 8.9 12.67 2.26 24.58 7.03 35.16 14.03zm108.19-38.89c-13.44-11.15-29.12-19.04-46.1-23.2-4.16-16.98-12.05-32.66-23.2-46.1l240.25-240.24 69.3 69.3zm255.81-255.8-69.3-69.3 26.87-26.87 69.3 69.3zm67.15-67.16-24.73 24.73-69.3-69.3 24.73-24.73c9.26-9.25 21.56-14.35 34.65-14.35s25.39 5.1 34.65 14.35c9.25 9.26 14.35 21.56 14.35 34.65s-5.1 25.39-14.35 34.65z"/></g></g></svg>