<svg id="Capa_1" enable-background="new 0 0 504 504" height="512" viewBox="0 0 504 504" width="512" xmlns="http://www.w3.org/2000/svg" fill="#E6ECF2"><g><g><path d="m493 504h-321.333c-6.075 0-11-4.925-11-11v-155.709c0-6.075 4.925-11 11-11s11 4.925 11 11v144.709h299.333v-299.333h-144.458c-6.075 0-11-4.925-11-11s4.925-11 11-11h155.458c6.075 0 11 4.925 11 11v321.333c0 6.075-4.925 11-11 11z"/></g><g><path d="m433 444h-201.333c-6.075 0-11-4.925-11-11v-96.388c0-6.075 4.925-11 11-11s11 4.925 11 11v85.388h179.333v-179.333h-83.779c-6.075 0-11-4.925-11-11s4.925-11 11-11h94.779c6.075 0 11 4.925 11 11v201.333c0 6.075-4.925 11-11 11z"/></g><g><path d="m332.333 343.333h-321.333c-6.075 0-11-4.925-11-11v-321.333c0-6.075 4.925-11 11-11h321.333c6.075 0 11 4.925 11 11v321.333c0 6.075-4.924 11-11 11zm-310.333-22h299.333v-299.333h-299.333z" fill="#0496FF"/></g></g></svg>