<svg id="Capa_1" enable-background="new 0 0 501.54 501.54" height="512" viewBox="0 0 501.54 501.54" width="512" xmlns="http://www.w3.org/2000/svg" fill="#E6ECF2"><g><g><path d="m429.259 125.31-53.03-53.04c-2.06-2.06-4.86-3.22-7.78-3.22-2.91 0-5.71 1.16-7.78 3.22l-357.45 357.46c-4.29 4.29-4.29 11.26 0 15.55l53.04 53.04c2.06 2.06 4.86 3.22 7.78 3.22 2.91 0 5.71-1.16 7.77-3.22l357.45-357.46c4.3-4.29 4.3-11.26 0-15.55zm-365.22 349.67-37.48-37.48 69.3-69.29 37.48 37.48zm84.85-84.85-37.48-37.48 172.19-172.19 37.48 37.48zm187.75-187.74-37.48-37.48 69.29-69.3 37.48 37.48z"/></g><g><path d="m220.115 130.75c-6.075 0-11-4.925-11-11v-30c0-6.075 4.925-11 11-11s11 4.925 11 11v30c0 6.075-4.925 11-11 11z" fill="#0496FF"/></g><g><path d="m411.789 292.423h-30c-6.075 0-11-4.925-11-11s4.925-11 11-11h30c6.075 0 11 4.925 11 11s-4.925 11-11 11z" fill="#0496FF"/></g><g><path d="m501.539 50.37c0 6.08-4.92 11-11 11h-28.37v28.38c0 6.08-4.93 11-11 11-6.08 0-11-4.92-11-11v-28.38h-28.38c-6.08 0-11-4.92-11-11 0-6.07 4.92-11 11-11h28.38v-28.37c0-6.08 4.92-11 11-11 6.07 0 11 4.92 11 11v28.37h28.37c6.08 0 11 4.93 11 11z" fill="#0496FF"/></g></g><g><path d="m323.729 50.37c0 6.08-4.93 11-11 11h-28.38v28.38c0 6.08-4.92 11-11 11-6.07 0-11-4.92-11-11v-28.38h-28.37c-6.08 0-11-4.92-11-11 0-6.07 4.92-11 11-11h28.37v-28.37c0-6.08 4.93-11 11-11 6.08 0 11 4.92 11 11v28.37h28.38c6.07 0 11 4.93 11 11z" fill="#0496FF"/></g><g><path d="m501.539 217.94c0 6.07-4.92 11-11 11h-28.37v28.38c0 6.07-4.93 11-11 11-6.08 0-11-4.93-11-11v-28.38h-28.38c-6.08 0-11-4.93-11-11 0-6.08 4.92-11 11-11h28.38v-28.38c0-6.07 4.92-11 11-11 6.07 0 11 4.93 11 11v28.38h28.37c6.08 0 11 4.92 11 11z" fill="#0496FF"/></g></svg>