<svg id="Capa_1" enable-background="new 0 0 512.037 512.037" height="512" viewBox="0 0 512.037 512.037" width="512" xmlns="http://www.w3.org/2000/svg" fill="#E6ECF2"><g><g fill="#0496FF"><path d="m354.018 375.703h-21.667v-21.667c0-6.075-4.925-11-11-11s-11 4.925-11 11v21.667h-21.666c-6.075 0-11 4.925-11 11s4.925 11 11 11h21.666v21.667c0 6.075 4.925 11 11 11s11-4.925 11-11v-21.667h21.667c14.591-.579 14.588-21.423 0-22z"/><path d="m354.018 196.037h-81.667c-14.57.569-14.608 21.414 0 22h81.667c6.075 0 11-4.925 11-11s-4.924-11-11-11z"/><path d="m272.351 87.37h81.667c14.57-.569 14.608-21.414 0-22h-81.667c-6.075 0-11 4.925-11 11s4.925 11 11 11z"/></g><g><path d="m419.351.037c-1.387.197-212.25-.208-213.429.056-2.511.251-4.898 1.388-6.682 3.166 0 0-114.333 114.333-114.333 114.333-.788.805-1.472 1.717-1.984 2.722-.814 1.55-1.232 3.303-1.237 5.056v375.667c0 6.075 4.925 11 11 11h326.666c6.075 0 11-4.925 11-11v-490c-.001-6.075-4.925-11-11.001-11zm-223.333 37.556v76.777h-76.777zm212.333 452.444h-304.666v-353.667h103.333c6.075 0 11-4.925 11-11v-103.333h190.333z"/><path d="m212.935 333.12c-3.846-8.49-16.147-8.514-20 0 0 0-44.917 98-44.917 98-2.531 5.522-.105 12.051 5.417 14.583 5.394 2.509 12.046.162 14.583-5.417 0 0 4.545-9.916 4.545-9.916h60.743l4.545 9.916c6.601 13.019 25.553 4.34 20-9.166 0 0-44.916-98-44.916-98zm-30.288 75.25 20.289-44.266 20.288 44.266z"/><path d="m158.018 218.037h49c14.578-.573 14.599-21.418 0-22h-49c-6.075 0-11 4.925-11 11s4.925 11 11 11z"/><path d="m272.351 152.703h81.667c14.57-.569 14.608-21.414 0-22h-81.667c-6.075 0-11 4.925-11 11s4.925 11 11 11z"/><path d="m272.351 283.37h81.667c14.57-.569 14.608-21.414 0-22h-81.667c-6.075 0-11 4.925-11 11s4.925 11 11 11z"/><path d="m158.018 283.37h49c14.578-.573 14.599-21.418 0-22h-49c-6.075 0-11 4.925-11 11s4.925 11 11 11z"/></g></g></svg>