<svg id="Capa_1" enable-background="new 0 0 512 512" height="512" viewBox="0 0 512 512" width="512" xmlns="http://www.w3.org/2000/svg" fill="#E6ECF2"><g><g><path d="m396.938 172.494c-.567-39.138-28.146-75.581-65.759-86.532 22.244-22.464 16.884-46.199 17.487-74.962 0-6.075-4.925-11-11-11h-32.666c-33.084 0-60 26.916-60 60v28.43c-2.768-.513-5.44-1.221-8.024-2.129-59.006-20.162-122.933 26.134-122.155 88.521 0 77.845 63.332 141.178 141.179 141.178 78.362.11 143.032-64.952 140.938-143.506zm-129.938-112.494c0-20.953 17.047-38 38-38h21.667v21.667c0 20.953-17.047 38-38 38h-21.667zm-11 234c-65.716 0-119.179-53.463-119.179-119.214 0-60.452 51.317-71.1 71.21-71.1 7.394 0 14.823 1.149 21.999 3.49 16.211 5.698 35.399 5.566 51.916.235 46.435-15.484 94.219 20.821 93.217 69.443-1.088 64.784-54.125 117.146-119.163 117.146z" fill="#0496FF"/></g><path d="m501 392h-5.333v-76h5.333c6.075 0 11-4.925 11-11s-4.925-11-11-11h-169.397c-21.871 13.923-47.811 22-75.603 22h217.667v76c-13.621-.024-326.042.018-348.333 0-50.357-2.06-50.449-73.898.001-76h130.666c-27.792 0-53.732-8.077-75.603-22h-55.063c-50.389-.227-78.358 59.655-46.395 98h-18.94c-33.084 0-60 26.916-60 60s26.916 60 60 60h375.667c14.482-.538 14.701-21.363 0-22h-5.333v-76h70.666c6.075 0 11-4.925 11-11s-4.925-11-11-11zm-92.667 98h-348.333c-50.376-2.07-50.433-73.904 0-76 41.124.012 301.214-.008 348.333 0z"/></g></svg>