<svg id="Capa_1" enable-background="new 0 0 511.96 511.96" height="512" viewBox="0 0 511.96 511.96" width="512" xmlns="http://www.w3.org/2000/svg" fill="#E6ECF2"><g><g><g><path d="m500.96 296.483h-274.481c-6.075 0-11-4.925-11-11v-274.482c0-6.075 4.925-11 11-11 157.415 0 285.481 128.066 285.481 285.481 0 6.076-4.925 11.001-11 11.001zm-263.481-22h252.255c-5.642-136.545-115.71-246.613-252.255-252.255z" fill="#0496FF"/></g></g><g><path d="m425.032 274.483-187.553-187.555v31.114l156.44 156.441z"/><path d="m237.479 183.927v31.114l59.441 59.442h31.114z"/><path d="m485.684 238.137-211.86-211.86c-11.46-2.089-23.175-3.433-35.096-3.982l250.938 250.938c-.548-11.921-1.893-23.636-3.982-35.096z"/><path d="m226.479 490.001c-264.714-9.82-273.828-385.211-11-408.739v-22.034c-195.399 9.401-287.669 248.035-149.171 386.428 138.389 138.507 377.061 46.186 386.425-149.174h-22.034c-5.735 107.677-95.139 193.519-204.22 193.519z"/></g></g></svg>