<svg id="Capa_1" enable-background="new 0 0 512 512" height="512" viewBox="0 0 512 512" width="512" xmlns="http://www.w3.org/2000/svg" fill="#E6ECF2"><g><g fill="#0496FF"><path d="m327.66 276.515h-143.32c-22.607 0-41 18.393-41 41v122.489c0 6.075 4.925 11 11 11h203.32c6.075 0 11-4.925 11-11v-122.489c0-22.608-18.393-41-41-41zm-143.32 22h143.32c10.477 0 19 8.523 19 19v19.996h-181.32v-19.996c0-10.477 8.524-19 19-19zm-19 130.489v-69.494h130.49v9.332c0 6.075 4.925 11 11 11s11-4.925 11-11v-9.332h28.83v69.494z"/><path d="m327.162 237.519c6.075 0 11-4.925 11-11v-60.996c0-6.075-4.925-11-11-11s-11 4.925-11 11v60.996c0 6.075 4.924 11 11 11z"/><path d="m184.838 237.519c6.075 0 11-4.925 11-11v-60.996c0-6.075-4.925-11-11-11s-11 4.925-11 11v60.996c0 6.075 4.925 11 11 11z"/></g><g><path d="m195.838 185.021h120.323v22h-120.323z"/><path d="m459.651 276.515h-29.996v-102.486c0-58.06-44.809-105.844-101.66-110.603v-32.426c0-17.093-13.907-31-31-31h-81.992c-17.093 0-31 13.907-31 31v32.425c-56.851 4.76-101.66 52.544-101.66 110.603v102.486h-29.994c-17.093 0-31 13.907-31 31v112.489c0 17.093 13.907 31 31 31h29.996v9.997c0 28.122 22.878 51 51 51h245.312c28.122 0 51-22.878 51-51v-9.996h29.996c17.093 0 31-13.907 31-31v-112.489c-.002-17.094-13.908-31-31.002-31zm-377.307 152.489h-29.995c-4.962 0-9-4.038-9-9v-60.494h38.996v69.494zm0-91.494h-38.995v-29.996c0-4.962 4.038-9 9-9h29.996v38.996zm123.66-306.51c0-4.962 4.038-9 9-9h81.992c4.962 0 9 4.038 9 9v32.029h-99.992zm201.652 154.021h-69.494v22h69.494v221.983h-38.996v11c0 6.075-4.925 11-11 11h49.996v9.996c0 15.991-13.009 29-29 29h-245.312c-15.991 0-29-13.009-29-29v-9.996h49.996c-6.075 0-11-4.925-11-11v-11h-38.996c0-51.286 0-172.042 0-221.983h69.494v-22h-69.494c-4.204-54.577 35.165-100.374 90.66-99.992h121.992 1.66c54.842.604 93.122 46.063 89 99.992zm60.995 234.983c0 4.962-4.038 9-9 9h-29.996v-69.494h38.996zm0-82.494h-38.996v-38.996h29.996c4.962 0 9 4.038 9 9z"/></g></g></svg>