<svg id="Capa_1" enable-background="new 0 0 512.002 512.002" height="512" viewBox="0 0 512.002 512.002" width="512" xmlns="http://www.w3.org/2000/svg" fill="#052438"><g><g><g><path d="m196.007 278.186c-13.316-.331-15.117-19.217-1.795-21.852 0 0 304.98-50.831 304.98-50.831 5.991-.997 11.659 3.049 12.659 9.042.999 5.993-3.05 11.66-9.042 12.659-1.791.139-305.242 51.17-306.802 50.982z" fill="#0496FF"/></g><g><path d="m286.498 103.329h-30.498c-6.075 0-11-4.925-11-11v-30.498c.576-14.584 21.42-14.594 22 0v19.497h19.498c14.591.58 14.587 21.424 0 22.001z" fill="#0496FF"/></g></g><g><path d="m153.324 337.511h-131.324v-141.49c0-6.075-4.925-11-11-11s-11 4.925-11 11v304.979c0 6.075 4.925 11 11 11s11-4.925 11-11v-80.494h120.324v80.494c.566 14.563 21.412 14.614 22 0v-152.49c0-6.074-4.925-10.999-11-10.999zm-131.324 60.996v-38.996h120.324v38.996z"/><path d="m348.328 92.329c0-50.91-41.418-92.328-92.328-92.328-122.485 5.072-122.449 179.603.001 184.656 50.909 0 92.327-41.419 92.327-92.328zm-162.656 0c0-38.779 31.549-70.328 70.328-70.328 93.299 3.863 93.272 136.807-.001 140.656-38.778 0-70.327-31.55-70.327-70.328z"/><path d="m459.502 234.421v92.924h-221.983v-55.926l-22 3.667v225.915c0 6.075 4.925 11 11 11s11-4.925 11-11v-29.664h221.983v29.664c0 6.075 4.925 11 11 11s11-4.925 11-11v-270.246zm0 214.916h-221.983v-99.992h221.983z"/></g></g></svg>