<svg id="Capa_1" enable-background="new 0 0 512 512" height="512" viewBox="0 0 512 512" width="512" xmlns="http://www.w3.org/2000/svg" fill="#052438"><g><g><g><path d="m353.971 201.667h-163.334c-6.075 0-11-4.925-11-11s4.925-11 11-11h163.333c14.547.557 14.631 21.404.001 22z" fill="#0496FF"/></g><g><path d="m108.971 430.333h-65.334c-14.574-.571-14.604-21.416 0-22h65.333c6.075 0 11 4.925 11 11s-4.924 11-10.999 11z" fill="#0496FF"/></g><g><path d="m108.971 348.667h-65.334c-14.574-.571-14.604-21.416 0-22h65.333c6.075 0 11 4.925 11 11s-4.924 11-10.999 11z" fill="#0496FF"/></g><g><path d="m108.971 267h-65.334c-14.574-.571-14.604-21.416 0-22h65.333c6.075 0 11 4.925 11 11s-4.924 11-10.999 11z" fill="#0496FF"/></g><g><path d="m108.971 185.333h-65.334c-14.574-.571-14.604-21.416 0-22h65.333c6.075 0 11 4.925 11 11s-4.924 11-10.999 11z" fill="#0496FF"/></g><g><path d="m108.971 103.667h-65.334c-14.574-.571-14.604-21.416 0-22h65.333c6.075 0 11 4.925 11 11s-4.924 11-10.999 11z" fill="#0496FF"/></g></g><g><path d="m190.637 267h163.333c6.075 0 11-4.925 11-11s-4.925-11-11-11h-163.333c-14.546.557-14.63 21.405 0 22z"/><path d="m190.637 332.333h65.333c14.574-.571 14.604-21.416 0-22h-65.333c-6.075 0-11 4.925-11 11s4.925 11 11 11z"/><path d="m468.304 0h-392c-6.075 0-11 4.925-11 11v70.667h22v-59.667h370v468h-370v-59.667h-22v70.667c0 6.075 4.925 11 11 11h392c6.075 0 11-4.925 11-11v-490c0-6.075-4.925-11-11-11z"/><path d="m65.304 185.333h22v59.667h-22z"/><path d="m65.304 103.667h22v59.667h-22z"/><path d="m65.304 267h22v59.667h-22z"/><path d="m65.304 348.667h22v59.667h-22z"/></g></g></svg>