<svg id="Capa_1" enable-background="new 0 0 512 512" height="512" viewBox="0 0 512 512" width="512" xmlns="http://www.w3.org/2000/svg" fill="#E6ECF2"><g><path d="m425.629 163.083c15.48-13.971 24.358-33.646 24.358-53.98v-67.605c0-22.882-18.616-41.498-41.498-41.498h-304.979c-22.882 0-41.497 18.616-41.497 41.498v67.605c0 20.334 8.878 40.009 24.358 53.98 22.941 20.705 36.638 55.44 36.638 92.917 0 37.476-13.696 72.211-36.638 92.917-15.48 13.971-24.358 33.646-24.358 53.98v67.605c0 22.882 18.616 41.498 41.498 41.498h304.979c22.882 0 41.498-18.616 41.498-41.498v-67.605c0-20.334-8.878-40.009-24.358-53.98-48.515-42.234-48.477-143.622-.001-185.834zm-219.625 326.917v-223h9.332c6.075 0 11-4.925 11-11s-4.925-11-11-11h-9.332v-91.656c-.063-27.767 23.298-50.06 50.992-49 27.018 0 49 21.981 49 49v336.656zm204.885-343.249c-58.05 50.443-58.034 168.076.002 218.497 10.864 9.807 17.097 23.529 17.097 37.648v67.605c0 10.751-8.747 19.498-19.498 19.498h-80.493v-336.655c.064-39.881-33.165-72.09-72.992-71-39.149 0-70.999 31.85-70.999 71v336.656h-80.496c-10.751 0-19.498-8.747-19.498-19.498v-67.605c0-14.119 6.232-27.841 17.098-37.648 27.488-24.809 43.898-65.649 43.898-109.249 0-43.601-16.41-84.441-43.897-109.249-10.866-9.807-17.098-23.529-17.098-37.648v-67.605c0-10.751 8.746-19.498 19.497-19.498h304.979c10.751 0 19.498 8.747 19.498 19.498v67.605c0 14.119-6.232 27.841-17.098 37.648z"/><path d="m277.166 108.706c-6.646-3.062-14.301-4.574-22-4.362v385.656h22z" fill="#0496FF"/></g></svg>