<svg id="Capa_1" enable-background="new 0 0 512 512" height="512" viewBox="0 0 512 512" width="512" xmlns="http://www.w3.org/2000/svg" fill="#052438"><g><g fill="#0496FF"><path d="m103.667 391.468v-21.667c0-6.075-4.925-11-11-11s-11 4.925-11 11v21.667z"/><path d="m430.333 391.468v-21.667c0-6.075-4.925-11-11-11s-11 4.925-11 11v21.667z"/><path d="m348.667 391.468v-21.667c0-6.075-4.925-11-11-11s-11 4.925-11 11v21.667z"/><path d="m267 391.468v-21.667c0-6.075-4.925-11-11-11s-11 4.925-11 11v21.667z"/><path d="m185.333 391.468v-21.667c0-6.075-4.925-11-11-11s-11 4.925-11 11v21.667z"/></g><g><path d="m501 413.468h-490c-6.075 0-11-4.925-11-11v-98c0-6.075 4.925-11 11-11h38.289c22.578-260.013 390.942-259.817 413.422 0h38.289c6.075 0 11 4.925 11 11v98c0 6.075-4.925 11-11 11zm-479-22h468v-76h-38c-6.075 0-11-4.925-11-11-10.17-245.445-359.883-245.34-370 .002 0 6.074-4.924 10.999-11 10.999h-38zm332-76h-196c-6.075 0-11-4.925-11-11 0-60.103 48.897-109 109-109s109 48.897 109 109c0 6.075-4.925 11-11 11zm-184.308-22h172.615c-15.291-100.798-157.362-100.724-172.615 0z"/></g></g></svg>