<svg id="Capa_1" enable-background="new 0 0 512 512" height="512" viewBox="0 0 512 512" width="512" xmlns="http://www.w3.org/2000/svg" fill="#052438"><g><path d="m195.004 62.012h-143.34c-28.487 0-51.664 23.177-51.664 51.664v101.66c0 28.488 23.177 51.664 51.664 51.664h55.787l-21.885 21.886c-4.296 4.296-4.296 11.26 0 15.556 2.148 2.148 4.963 3.222 7.778 3.222s5.631-1.074 7.778-3.222l40.655-40.656c4.261-4.098 4.26-11.461.008-15.564l-40.663-40.664c-4.297-4.295-11.262-4.296-15.557 0-4.296 4.296-4.296 11.261 0 15.557l21.887 21.885h-55.788c-16.356 0-29.664-13.307-29.664-29.664v-101.66c0-16.357 13.308-29.664 29.664-29.664h143.34c6.075 0 11-4.925 11-11s-4.925-11-11-11z" fill="#0496FF"/><g><path d="m316.996 512h-121.992c-6.075 0-11-4.925-11-11v-121.992c0-6.075 4.925-11 11-11h121.992c6.075 0 11 4.925 11 11v121.992c0 6.075-4.925 11-11 11zm-110.992-22h99.992v-99.992h-99.992z"/></g><g><path d="m512 296.66v101.66c0 28.47-23.14 51.63-51.59 51.67l-56.18.69 22.2 22.21c4.3 4.3 4.3 11.26 0 15.56-2.14 2.14-4.96 3.22-7.77 3.22-2.82 0-5.63-1.08-7.78-3.22l-40.67-40.67c-4.29-4.29-4.29-11.26 0-15.55l40.67-40.67c4.29-4.29 11.26-4.29 15.55 0 4.3 4.3 4.3 11.26 0 15.56l-21.55 21.55 55.32-.68h.14c16.35 0 29.66-13.31 29.66-29.67v-101.66c0-16.35-13.31-29.66-29.66-29.66h-143.34c-6.08 0-11-4.92-11-11s4.92-11 11-11h143.34c28.48 0 51.66 23.18 51.66 51.66z" fill="#0496FF"/></g><g><path d="m316.996 327.996h-121.992c-6.075 0-11-4.925-11-11v-121.992c0-6.075 4.925-11 11-11h121.992c6.075 0 11 4.925 11 11v121.992c0 6.075-4.925 11-11 11zm-110.992-22h99.992v-99.992h-99.992z"/></g><g><path d="m316.996 143.992h-121.992c-6.075 0-11-4.925-11-11v-121.992c0-6.075 4.925-11 11-11h121.992c6.075 0 11 4.925 11 11v121.992c0 6.075-4.925 11-11 11zm-110.992-22h99.992v-99.992h-99.992z"/></g></g></svg>