<svg id="Capa_1" enable-background="new 0 0 512.012 512.012" height="512" viewBox="0 0 512.012 512.012" width="512" xmlns="http://www.w3.org/2000/svg" fill="#052438"><g><path d="m429.839 250.079c-1.443 0-2.909-.286-4.319-.889-5.586-2.388-8.179-8.852-5.79-14.438l60.996-142.669c2.389-5.587 8.855-8.177 14.438-5.79 5.586 2.388 8.179 8.853 5.79 14.438l-60.996 142.669c-1.785 4.176-5.848 6.679-10.119 6.679z" fill="#0496FF"/><path d="m132.998 183h-54.875c3.11-5.817 4.879-12.454 4.879-19.498 0-22.882-18.616-41.498-41.498-41.498s-41.498 18.616-41.498 41.498c0 12.049 5.165 22.91 13.393 30.498-8.228 7.588-13.393 18.449-13.393 30.498 0 22.882 18.616 41.498 41.498 41.498s41.498-18.616 41.498-41.498c0-7.044-1.77-13.681-4.879-19.498h54.875c6.075 0 11-4.925 11-11s-4.925-11-11-11zm-110.992-19.498c0-10.751 8.747-19.498 19.498-19.498s19.498 8.747 19.498 19.498-8.747 19.498-19.498 19.498-19.498-8.747-19.498-19.498zm38.996 60.996c0 10.751-8.747 19.498-19.498 19.498s-19.498-8.747-19.498-19.498 8.747-19.498 19.498-19.498c10.752 0 19.498 8.747 19.498 19.498z" fill="#0496FF"/><path d="m501.006 228.076h-133.378c-.449-33.71-27.995-60.998-61.809-60.998h-39.835c-.214-18.703-7.605-35.705-19.53-48.403 1.767-.774 3.509-1.628 5.204-2.607 11.952-6.9 20.501-18.041 24.072-31.371l5.262-19.639c7.373-27.517-9.015-55.902-36.531-63.275-13.33-3.572-27.253-1.738-39.204 5.161-11.951 6.9-20.5 18.041-24.071 31.371l-5.263 19.639c-3.566 13.31-1.743 27.211 5.132 39.15-33.542 6.115-59.058 35.528-59.058 70.809v132.159 20.332c0 20.948 12.539 39.01 30.498 47.111v133.498c0 6.075 4.925 11 11 11s11-4.925 11-11v-128.946h69.494v128.945c0 6.075 4.925 11 11 11h60.996c6.075 0 11-4.925 11-11v-160.277c0-11.034-3.488-21.262-9.404-29.664h70.764v189.941c0 6.075 4.925 11 11 11h60.996c6.075 0 11-4.925 11-11v-189.941h29.664c6.075 0 11-4.925 11-11v-60.996c.001-6.075-4.924-10.999-10.999-10.999zm-303.832-164.428s5.257-19.616 5.263-19.639c4.166-15.545 20.815-25.132 36.33-20.976 15.798 4.235 25.208 20.533 20.976 36.332 0 0-5.262 19.638-5.262 19.639-4.11 15.342-20.545 25.205-36.331 20.976-15.8-4.235-25.21-20.533-20.976-36.332zm-53.176 104.264c0-27.568 22.428-49.996 49.996-49.996s49.996 22.428 49.996 49.996v10.166c0 6.075 4.925 11 11 11h50.83c21.684 0 39.376 17.418 39.821 38.996h-121.15c-10.751 0-19.498-8.747-19.498-19.498v-20.332c0-6.075-4.925-11-11-11s-11 4.925-11 11v20.332c0 22.882 18.616 41.498 41.498 41.498h19.498v38.997h-99.992v-121.159zm160.988 172.823v149.277h-38.996v-128.945c0-6.075-4.925-11-11-11h-81.328c-2.043 0-4.038-.208-5.966-.603-.911-.377-1.884-.631-2.898-.751-12.04-3.778-20.8-15.04-20.8-28.31v-9.332h110.992 20.332c16.356 0 29.664 13.307 29.664 29.664zm144.356 149.277h-38.996v-178.941h38.996zm-183.353-200.941v-38.996h224.017v38.996z"/></g></svg>