<svg id="Capa_1" enable-background="new 0 0 512 512" height="512" viewBox="0 0 512 512" width="512" xmlns="http://www.w3.org/2000/svg" fill="#052438"><g><g fill="#0496FF"><path d="m78.096 93.162c-2.815 0-5.63-1.074-7.778-3.222l-39.14-39.139c-4.296-4.296-4.296-11.261 0-15.556 4.295-4.296 11.26-4.296 15.557 0l31.361 31.361 63.383-63.384c4.297-4.296 11.26-4.296 15.557 0 4.296 4.296 4.296 11.261 0 15.557l-71.162 71.161c-2.148 2.148-4.963 3.222-7.778 3.222z"/><path d="m482.347 178.077-40.664-40.664c-4.1-4.251-11.457-4.251-15.557 0l-40.664 40.664c-4.296 4.296-4.296 11.261 0 15.557 4.297 4.296 11.26 4.296 15.557 0l21.886-21.886v142.869c0 23.835-19.391 43.226-43.226 43.226h-72.849c-6.075 0-11 4.925-11 11s4.925 11 11 11h72.849c35.966 0 65.226-29.26 65.226-65.226v-142.869l21.886 21.886c2.148 2.148 4.963 3.222 7.778 3.222s5.63-1.074 7.778-3.222c4.296-4.296 4.296-11.261 0-15.557z"/><path d="m205.17 357.843h-72.849c-23.835 0-43.226-19.391-43.226-43.226v-142.869l21.886 21.886c2.148 2.148 4.963 3.222 7.778 3.222s5.63-1.074 7.778-3.222c4.296-4.296 4.296-11.261 0-15.557l-40.664-40.664c-4.1-4.251-11.457-4.251-15.557 0l-40.664 40.664c-4.296 4.296-4.296 11.261 0 15.557 4.297 4.296 11.26 4.296 15.557 0l21.886-21.886v142.869c0 35.966 29.26 65.226 65.226 65.226h72.849c6.075 0 11-4.925 11-11 0-6.076-4.925-11-11-11z"/></g><path d="m299.666 412.575c11.216-11.198 18.165-26.669 18.165-43.733 0-34.093-27.737-61.83-61.83-61.83s-61.83 27.737-61.83 61.83c0 17.064 6.949 32.534 18.164 43.733-28.277 9.717-48.662 36.561-48.662 68.093v20.332c0 6.075 4.925 11 11 11h162.656c6.075 0 11-4.925 11-11v-20.332c-.001-31.532-20.386-58.376-48.663-68.093zm-43.666-83.563c21.962 0 39.83 17.868 39.83 39.83s-17.868 39.83-39.83 39.83-39.83-17.868-39.83-39.83 17.868-39.83 39.83-39.83zm70.328 160.988h-140.656v-9.332c0-27.568 22.428-49.996 49.996-49.996h40.664c27.568 0 49.996 22.428 49.996 49.996z"/><path d="m449.461 51.664 32.886-32.885c4.296-4.296 4.296-11.261 0-15.557-4.296-4.295-11.261-4.295-15.557 0l-32.886 32.886-32.885-32.886c-4.297-4.296-11.26-4.296-15.557 0-4.296 4.296-4.296 11.261 0 15.557l32.886 32.885-32.886 32.886c-4.296 4.296-4.296 11.261 0 15.557 2.148 2.148 4.963 3.222 7.778 3.222s5.631-1.074 7.778-3.222l32.886-32.886 32.886 32.886c2.148 2.148 4.963 3.222 7.778 3.222s5.63-1.074 7.778-3.222c4.296-4.296 4.296-11.261 0-15.557z"/></g></svg>