<svg id="Capa_1" enable-background="new 0 0 512 512" height="512" viewBox="0 0 512 512" width="512" xmlns="http://www.w3.org/2000/svg" fill="#052438"><g><g><path d="m440.004 164.324h-91.493c-6.075 0-11-4.925-11-11s4.925-11 11-11h91.493c6.075 0 11 4.925 11 11s-4.925 11-11 11z" fill="#0496FF"/><path d="m368.843 103.328h-20.332c-6.075 0-11-4.925-11-11s4.925-11 11-11h20.332c6.075 0 11 4.925 11 11s-4.925 11-11 11z" fill="#0496FF"/><g><path d="m497.491 93.162h-67.653c-6.075 0-11-4.925-11-11v-71.162c0-6.075 4.925-11 11-11s11 4.925 11 11v60.162h56.653c6.075 0 11 4.925 11 11s-4.925 11-11 11z" fill="#0496FF"/><path d="m501 235.485h-213.485c-6.075 0-11-4.925-11-11v-213.485c0-6.075 4.925-11 11-11h142.323c45.305 0 82.162 36.857 82.162 82.162v142.324c0 6.075-4.925 10.999-11 10.999zm-202.485-22h191.485v-131.323c0-33.174-26.988-60.162-60.162-60.162h-131.323z"/></g></g><g><path d="m163.489 164.324h-91.493c-6.075 0-11-4.925-11-11s4.925-11 11-11h91.493c6.075 0 11 4.925 11 11s-4.925 11-11 11z" fill="#0496FF"/><path d="m92.328 103.328h-20.332c-6.075 0-11-4.925-11-11s4.925-11 11-11h20.332c6.075 0 11 4.925 11 11s-4.925 11-11 11z" fill="#0496FF"/><g><path d="m224.485 93.162h-71.162c-6.075 0-11-4.925-11-11v-71.162c0-6.075 4.925-11 11-11s11 4.925 11 11v60.162h60.162c6.075 0 11 4.925 11 11s-4.924 11-11 11z" fill="#0496FF"/><path d="m224.485 235.485h-213.485c-6.075 0-11-4.925-11-11v-213.485c0-6.075 4.925-11 11-11h142.323c45.305 0 82.162 36.857 82.162 82.162v142.324c0 6.075-4.924 10.999-11 10.999zm-202.485-22h191.485v-131.323c0-33.173-26.988-60.162-60.162-60.162h-131.323z"/></g></g><g><path d="m440.004 440.838h-91.493c-6.075 0-11-4.925-11-11s4.925-11 11-11h91.493c6.075 0 11 4.925 11 11s-4.925 11-11 11z" fill="#0496FF"/><path d="m368.843 379.842h-20.332c-6.075 0-11-4.925-11-11s4.925-11 11-11h20.332c6.075 0 11 4.925 11 11 0 6.076-4.925 11-11 11z" fill="#0496FF"/><g><path d="m501 369.676h-71.162c-6.075 0-11-4.925-11-11v-71.162c0-6.075 4.925-11 11-11s11 4.925 11 11v60.162h60.162c6.075 0 11 4.925 11 11s-4.925 11-11 11z" fill="#0496FF"/><path d="m501 512h-213.485c-6.075 0-11-4.925-11-11v-213.485c0-6.075 4.925-11 11-11h142.323c45.305 0 82.162 36.858 82.162 82.162v142.323c0 6.075-4.925 11-11 11zm-202.485-22h191.485v-131.324c0-33.173-26.988-60.162-60.162-60.162h-131.323z"/></g></g><g><path d="m163.489 440.838h-91.493c-6.075 0-11-4.925-11-11s4.925-11 11-11h91.493c6.075 0 11 4.925 11 11s-4.925 11-11 11z" fill="#0496FF"/><path d="m92.328 379.842h-20.332c-6.075 0-11-4.925-11-11s4.925-11 11-11h20.332c6.075 0 11 4.925 11 11 0 6.076-4.925 11-11 11z" fill="#0496FF"/><g><path d="m220.921 369.676h-67.598c-6.075 0-11-4.925-11-11v-71.162c0-6.075 4.925-11 11-11s11 4.925 11 11v60.162h56.598c6.075 0 11 4.925 11 11s-4.925 11-11 11z" fill="#0496FF"/><path d="m224.485 512h-213.485c-6.075 0-11-4.925-11-11v-213.485c0-6.075 4.925-11 11-11h142.323c45.305 0 82.162 36.858 82.162 82.162v142.323c0 6.075-4.924 11-11 11zm-202.485-22h191.485v-131.324c0-33.173-26.988-60.162-60.162-60.162h-131.323z"/></g></g></g></svg>