<svg id="Capa_1" enable-background="new 0 0 512 512" height="512" viewBox="0 0 512 512" width="512" xmlns="http://www.w3.org/2000/svg" fill="#052438"><g><g fill="#0496FF"><path d="m117.743 369.676c-6.075 0-11-4.925-11-11v-81.328c0-6.075 4.925-11 11-11s11 4.925 11 11v81.328c0 6.075-4.925 11-11 11z"/><path d="m163.49 512c-6.075 0-11-4.925-11-11v-81.328c0-6.075 4.925-11 11-11s11 4.925 11 11v81.328c0 6.075-4.925 11-11 11z"/><path d="m348.51 512c-6.075 0-11-4.925-11-11v-81.328c0-6.075 4.925-11 11-11s11 4.925 11 11v81.328c0 6.075-4.925 11-11 11z"/></g><path d="m224.485 512h-213.485c-6.075 0-11-4.925-11-11v-81.328c0-6.075 4.925-11 11-11h213.485c6.075 0 11 4.925 11 11v81.328c0 6.075-4.924 11-11 11zm-202.485-22h191.485v-59.328h-191.485z"/><g><path d="m440.004 369.676c-6.075 0-11-4.925-11-11v-81.328c0-6.075 4.925-11 11-11s11 4.925 11 11v81.328c0 6.075-4.925 11-11 11z" fill="#0496FF"/><path d="m501 369.676h-213.485c-6.075 0-11-4.925-11-11v-81.328c0-6.075 4.925-11 11-11h213.485c6.075 0 11 4.925 11 11v81.328c0 6.075-4.925 11-11 11zm-202.485-22h191.485v-59.328h-191.485z"/></g><path d="m153.766 108.979c9.638-9.39 15.64-22.496 15.64-36.983v-20.332c.001-28.488-23.176-51.664-51.663-51.664s-51.664 23.176-51.664 51.664v20.332c0 14.487 6.002 27.593 15.641 36.983-33.062 14.064-56.304 46.872-56.304 85.008v20.332c0 6.075 4.925 11 11 11h162.654c6.075 0 11-4.925 11-11v-20.332c0-38.136-23.242-70.944-56.304-85.008zm-65.687-36.983v-20.332c0-16.357 13.307-29.664 29.664-29.664s29.664 13.307 29.664 29.664v20.332c0 16.356-13.307 29.664-29.664 29.664s-29.664-13.307-29.664-29.664zm99.991 131.323h-140.655v-9.332c0-38.779 31.549-70.328 70.328-70.328s70.328 31.549 70.328 70.328v9.332z" fill="#0496FF"/><path d="m430.281 108.979c9.638-9.39 15.641-22.496 15.641-36.983v-20.332c-.001-28.488-23.177-51.664-51.665-51.664s-51.664 23.176-51.664 51.664v20.332c0 14.487 6.002 27.593 15.641 36.983-33.062 14.064-56.304 46.872-56.304 85.008v20.332c0 6.075 4.925 11 11 11h162.655c6.075 0 11-4.925 11-11v-20.332c0-38.136-23.242-70.944-56.304-85.008zm-65.688-36.983v-20.332c0-16.357 13.307-29.664 29.664-29.664s29.664 13.307 29.664 29.664v20.332c0 16.356-13.307 29.664-29.664 29.664s-29.664-13.307-29.664-29.664zm99.992 131.323h-140.655v-9.332c0-38.779 31.549-70.328 70.328-70.328s70.328 31.549 70.328 70.328v9.332z" fill="#0496FF"/><path d="m224.485 369.676h-213.485c-6.075 0-11-4.925-11-11v-81.328c0-6.075 4.925-11 11-11h213.485c6.075 0 11 4.925 11 11v81.328c0 6.075-4.924 11-11 11zm-202.485-22h191.485v-59.328h-191.485z"/><path d="m501 512h-213.485c-6.075 0-11-4.925-11-11v-81.328c0-6.075 4.925-11 11-11h213.485c6.075 0 11 4.925 11 11v81.328c0 6.075-4.925 11-11 11zm-202.485-22h191.485v-59.328h-191.485z"/></g></svg>