<svg id="Capa_1" enable-background="new 0 0 512 512" height="512" viewBox="0 0 512 512" width="512" xmlns="http://www.w3.org/2000/svg" fill="#E6ECF2"><g><path d="m256 481.502c-3.041 0-5.945-1.258-8.025-3.477l-30.498-32.531c-2.556-2.727-3.553-6.565-2.646-10.191l15.249-60.996c1.474-5.894 7.444-9.478 13.339-8.003 5.894 1.473 9.477 7.445 8.003 13.339l-13.794 55.179 18.372 19.597 18.429-19.657-13.046-54.878c-1.404-5.911 2.248-11.841 8.158-13.246 5.908-1.407 11.841 2.247 13.246 8.158l14.413 60.632c.854 3.592-.151 7.374-2.678 10.067l-30.498 32.531c-2.079 2.218-4.984 3.476-8.024 3.476z" fill="#0496FF"/><g><path d="m396.875 184.658c-3.803 0-7.499-1.973-9.537-5.502-3.037-5.261-1.235-11.989 4.026-15.026l70.432-40.664c5.265-3.039 11.988-1.234 15.026 4.026 3.037 5.261 1.235 11.989-4.026 15.026l-70.432 40.664c-1.732 1-3.624 1.476-5.489 1.476z" fill="#0496FF"/></g><g><path d="m337.317 125.122c-1.866 0-3.757-.476-5.489-1.476-5.261-3.038-7.063-9.765-4.026-15.026l40.663-70.432c3.037-5.261 9.766-7.063 15.026-4.026 5.261 3.038 7.064 9.765 4.026 15.026l-40.663 70.432c-2.037 3.528-5.735 5.502-9.537 5.502z" fill="#0496FF"/></g><g><path d="m256 103.328c-6.075 0-11-4.925-11-11v-81.328c0-6.075 4.925-11 11-11s11 4.925 11 11v81.328c0 6.075-4.925 11-11 11z" fill="#0496FF"/></g><g><path d="m174.682 125.122c-3.802 0-7.499-1.973-9.537-5.502l-40.664-70.432c-3.038-5.261-1.235-11.989 4.026-15.026 5.261-3.038 11.989-1.236 15.026 4.026l40.664 70.432c3.038 5.261 1.235 11.989-4.026 15.026-1.731 1-3.623 1.476-5.489 1.476z" fill="#0496FF"/></g><g><path d="m115.126 184.658c-1.866 0-3.757-.476-5.49-1.476l-70.432-40.664c-5.261-3.038-7.064-9.765-4.026-15.026s9.766-7.062 15.026-4.026l70.432 40.664c5.261 3.038 7.064 9.765 4.026 15.026-2.037 3.529-5.735 5.502-9.536 5.502z" fill="#0496FF"/></g><g><g><path d="m499.983 265.983h-81.328c-6.075 0-11-4.925-11-11 0-83.623-68.032-151.656-151.655-151.656s-151.656 68.033-151.656 151.656c0 6.075-4.925 11-11 11h-81.327c-6.075 0-11-4.925-11-11 0-68.108 26.523-132.14 74.683-180.3 48.16-48.16 112.192-74.683 180.3-74.683s132.141 26.523 180.301 74.683 74.683 112.192 74.683 180.3c-.001 6.076-4.925 11-11.001 11zm-70.328-11h.01zm-.344-11h59.416c-5.76-123.383-107.945-221.983-232.727-221.983s-226.967 98.6-232.727 221.983h59.416c5.692-90.65 81.25-162.655 173.311-162.655s167.618 72.005 173.311 162.655z"/></g><path d="m304.149 369.453c14.631-13.187 23.847-32.272 23.847-53.474v-48.389c18.233-10.765 30.498-30.608 30.498-53.272 0-17.276-14.056-31.331-31.332-31.331h-91.494c-28.488 0-51.664 23.176-51.664 51.664v30.498 50.83c0 21.201 9.216 40.287 23.848 53.474-48.712 12.417-84.843 56.658-84.843 109.182v22.365c0 6.075 4.925 11 11 11h243.984c6.075 0 11-4.925 11-11v-22.365c-.001-52.524-36.132-96.765-84.844-109.182zm-98.145-134.802c0-16.356 13.307-29.664 29.664-29.664h91.494c5.146 0 9.332 4.186 9.332 9.332 0 21.962-17.868 39.83-39.83 39.83h-90.66zm0 41.498h90.66c3.172 0 6.288-.242 9.332-.705v40.535c0 27.568-22.428 49.996-49.996 49.996s-49.996-22.428-49.996-49.996zm160.988 213.851h-221.984v-11.365c0-49.99 40.67-90.66 90.66-90.66h40.664c49.99 0 90.66 40.67 90.66 90.66z"/></g></g></svg>