<svg id="Capa_1" enable-background="new 0 0 512 512" height="512" viewBox="0 0 512 512" width="512" xmlns="http://www.w3.org/2000/svg" fill="#E6ECF2"><g><g><g><path d="m312.93 512h-216.536c-3.608 0-6.986-1.769-9.041-4.734s-2.525-6.75-1.259-10.128l39.474-105.262c-62.255-38.963-99.136-104.668-99.136-177.556 0-57.247 22.293-111.067 62.772-151.547s94.3-62.773 151.547-62.773 111.067 22.293 151.547 62.772c40.479 40.479 62.772 94.3 62.772 151.547v28.503l29.798 79.46c1.267 3.378.796 7.163-1.259 10.128s-5.433 4.734-9.041 4.734h-39.83v39.83c0 34.093-27.737 61.83-61.83 61.83h-23.07l-26.706 66.305c-1.676 4.164-5.714 6.891-10.202 6.891zm-200.663-22h193.234l26.706-66.305c1.677-4.163 5.715-6.89 10.204-6.89h30.498c21.962 0 39.83-17.868 39.83-39.83v-50.83c0-6.075 4.925-11 11-11h34.957l-24.926-66.465c-.463-1.235-.7-2.544-.7-3.862v-30.498c0-106.046-86.274-192.32-192.319-192.32s-192.319 86.274-192.319 192.319c0 67.98 35.926 129.013 96.101 163.262 4.697 2.673 6.756 8.362 4.859 13.422z"/></g></g><path d="m240.751 260.9c-25.685 0-46.581-20.896-46.581-46.581s20.896-46.581 46.581-46.581 46.581 20.896 46.581 46.581-20.896 46.581-46.581 46.581zm0-71.161c-13.554 0-24.581 11.027-24.581 24.581s11.027 24.581 24.581 24.581 24.581-11.027 24.581-24.581-11.027-24.581-24.581-24.581z"/><path d="m383.075 203.319h-19.996c-5.259-58.967-52.361-106.069-111.328-111.328v-19.995c0-6.075-4.925-11-11-11s-11 4.925-11 11v19.996c-58.967 5.259-106.069 52.361-111.328 111.328h-19.996c-6.075 0-11 4.925-11 11s4.925 11 11 11h19.996c5.259 58.967 52.361 106.069 111.328 111.328v19.996c0 6.075 4.925 11 11 11s11-4.925 11-11v-19.996c58.966-5.259 106.069-52.361 111.328-111.328h19.996c6.075 0 11-4.925 11-11 0-6.076-4.925-11.001-11-11.001zm-131.324 111.224v-18.895c0-6.075-4.925-11-11-11s-11 4.925-11 11v18.895c-46.825-5.104-84.119-42.398-89.223-89.223h18.896c6.075 0 11-4.925 11-11s-4.925-11-11-11h-18.896c5.104-46.825 42.398-84.119 89.223-89.223v18.896c0 6.075 4.925 11 11 11s11-4.925 11-11v-18.896c46.825 5.104 84.119 42.398 89.223 89.223h-18.896c-6.075 0-11 4.925-11 11s4.925 11 11 11h18.896c-5.104 46.825-42.398 84.118-89.223 89.223z" fill="#0496FF"/></g></svg>