<svg id="Layer_1" enable-background="new 0 0 512 512" viewBox="0 0 512 512" xmlns="http://www.w3.org/2000/svg" fill="#E6ECF2"><g><path d="m503.729 110.836-32.612-103.152c-1.158-3.664-4.145-6.458-7.878-7.37-3.735-.912-7.671.19-10.389 2.907l-140.854 140.855 15.557 15.557 128.047-128.048 7.474 23.639-101.082 101.082 15.557 15.557 92.999-92.999 10.191 32.235-100.86 100.86 15.557 15.557 105.584-105.584c2.902-2.904 3.947-7.181 2.709-11.096z" fill="#0496FF"/><g><path d="m400.595 232.418-6.74-46.838c-2.957-20.549-19.374-36.966-39.923-39.923l-46.839-6.74c-14.618-2.103-29.582 2.876-40.025 13.319l-122.866 122.866c-13.925 13.925-31.094 24.769-49.65 31.36-21.62 7.679-41.621 20.313-57.843 36.535-38.6 38.6-38.6 101.407 0 140.007 18.698 18.698 43.559 28.996 70.003 28.996s51.305-10.297 70.004-28.996l210.56-210.56c10.444-10.444 15.423-25.408 13.319-40.026zm-348.33 235.029c-27.38-27.38-29.776-70.415-7.214-100.551l107.765 107.765c-30.136 22.563-73.171 20.168-100.551-7.214zm319.454-210.56-202.782 202.782-21.213-21.213 34.648-34.648-15.557-15.557-34.648 34.648-15.556-15.556 34.648-34.648-15.557-15.557-34.648 34.648-40.684-40.684c12.262-10.364 26.443-18.545 41.544-23.909 21.619-7.679 41.62-20.312 57.843-36.535l122.866-122.867c4.727-4.726 11.188-7.353 17.8-7.353 1.177 0 2.358.083 3.536.252l46.838 6.74c10.954 1.577 19.705 10.328 21.281 21.282l6.74 46.838c1.123 7.794-1.532 15.77-7.099 21.337z"/><path d="m303.847 204.552c-2.063-2.062-4.861-3.222-7.778-3.222s-5.715 1.159-7.778 3.222l-90.361 90.361 15.557 15.557 82.583-82.583 15.556 15.556-82.583 82.583 15.557 15.557 90.361-90.361c4.295-4.296 4.295-11.261 0-15.557z"/></g><path d="m250.255 331.683-42.426-42.427c-2.063-2.062-4.861-3.222-7.778-3.222s-5.715 1.159-7.778 3.222l-62.226 62.226c-4.295 4.296-4.295 11.261 0 15.557l42.426 42.426c2.148 2.148 4.963 3.222 7.778 3.222s5.63-1.074 7.778-3.222l62.226-62.225c4.295-4.297 4.295-11.261 0-15.557zm-70.004 54.447-26.87-26.87 15.556-15.556 26.87 26.87zm31.113-31.113-26.87-26.87 15.556-15.556 26.87 26.87z" fill="#0496FF"/></g><g/><g/><g/><g/><g/><g/><g/><g/><g/><g/><g/><g/><g/><g/><g/></svg>