<svg id="Layer_1" enable-background="new 0 0 512 512" viewBox="0 0 512 512" xmlns="http://www.w3.org/2000/svg" fill="#052438"><g><g fill="#0496FF"><path d="m256.975 481.105c-5.735 5.736-13.361 8.895-21.473 8.895h-180.121c-14.96 0-24.302-9.684-28.055-18.746-3.754-9.062-3.996-22.515 6.583-33.094l-15.557-15.557c-15.261 15.262-19.611 37.129-11.352 57.07 8.26 19.94 26.799 32.327 48.381 32.327h180.121c13.988 0 27.138-5.447 37.029-15.338l93.674-93.674-15.557-15.557z"/><path d="m311.68 136.182c2.815 0 5.63-1.074 7.778-3.222 4.296-4.296 4.296-11.261 0-15.556l-14.359-14.359-15.557 15.556 14.359 14.359c2.148 2.148 4.963 3.222 7.779 3.222z"/><path d="m279.295 168.567c2.815 0 5.63-1.074 7.778-3.222 4.295-4.296 4.295-11.261 0-15.557l-14.359-14.359-15.557 15.557 14.359 14.359c2.149 2.148 4.964 3.222 7.779 3.222z"/><path d="m246.91 200.952c2.815 0 5.63-1.074 7.778-3.222 4.295-4.296 4.295-11.261 0-15.557l-14.359-14.359-15.557 15.557 14.359 14.359c2.149 2.148 4.964 3.222 7.779 3.222z"/><path d="m453.309 3.241c-2.642-2.654-6.451-3.782-10.113-2.994l-39.884 8.589c-2.069.445-3.966 1.479-5.462 2.975l-67.385 67.385 15.557 15.557 65.092-65.093 19.97-4.301-4.376 19.854-65.113 65.113 15.557 15.557 67.385-67.385c1.484-1.484 2.512-3.361 2.964-5.411l8.754-39.72c.806-3.657-.304-7.472-2.946-10.126z"/></g><g><path d="m508.767 290.386c-4.296-4.296-11.261-4.295-15.557 0l-20.231 20.232-29.959-29.96 20.231-20.232c4.295-4.296 4.295-11.261 0-15.557-4.296-4.296-11.261-4.295-15.557 0l-20.231 20.232-7.475-7.475c-2.063-2.062-4.861-3.222-7.778-3.222s-5.715 1.159-7.778 3.222l-37.49 37.49c-12.346 12.347-15.747 30.297-10.216 45.738l-6.076 6.076c-15.455 15.455-15.455 40.603 0 56.058 7.728 7.728 17.878 11.591 28.029 11.591s20.301-3.864 28.029-11.591l6.076-6.076c4.777 1.711 9.792 2.574 14.81 2.574 11.201 0 22.401-4.264 30.929-12.79l37.489-37.49c4.295-4.296 4.295-11.261 0-15.557l-7.475-7.475 20.232-20.232c4.293-4.295 4.293-11.26-.002-15.556zm-117.617 97.045c-6.877 6.878-18.067 6.878-24.944 0-6.877-6.877-6.877-18.067 0-24.944l3.125-3.125 24.945 24.945zm51.815-16.292c-8.475 8.473-22.263 8.475-30.739.005l-29.737-29.737c-8.466-8.477-8.464-22.261.009-30.734l29.711-29.712 60.467 60.467z"/><path d="m265.259 257.513 121.761-121.761c2.063-2.063 3.222-4.861 3.222-7.778s-1.159-5.715-3.222-7.778l-50.868-50.868c-4.296-4.296-11.261-4.296-15.557 0l-121.761 121.76-21.167-21.167c-4.296-4.296-11.261-4.296-15.557 0l-34.529 34.529c-4.295 4.296-4.295 11.261 0 15.557l3.357 3.357-105.845 105.845c-7.106 7.106-11.02 16.555-11.02 26.605 0 6.267 1.523 12.3 4.392 17.677l-8.625 8.625c-13.104 13.104-13.104 34.427 0 47.532l16.86 16.86c6.553 6.552 15.16 9.829 23.767 9.829s17.214-3.276 23.767-9.829l8.625-8.625c5.377 2.869 11.409 4.391 17.676 4.391 10.05 0 19.498-3.914 26.604-11.02l105.845-105.844 3.356 3.356c2.148 2.148 4.963 3.222 7.778 3.222s5.63-1.074 7.778-3.222l34.529-34.529c4.295-4.296 4.295-11.261 0-15.557zm63.115-164.851 35.312 35.312-113.984 113.983-35.312-35.312zm-269.697 338.29c-4.526 4.527-11.894 4.527-16.42 0l-16.86-16.86c-4.527-4.527-4.527-11.893 0-16.42l7.475-7.475 33.28 33.28zm52.905-15.254c-2.951 2.951-6.875 4.577-11.048 4.577s-8.097-1.625-11.048-4.577l-48.837-48.837c-2.951-2.951-4.577-6.875-4.577-11.048 0-4.174 1.625-8.098 4.577-11.048l105.845-105.844 70.933 70.933zm132.536-110.266-93.203-93.203 18.973-18.973 93.203 93.203z"/></g></g><g/><g/><g/><g/><g/><g/><g/><g/><g/><g/><g/><g/><g/><g/><g/></svg>