<svg id="Layer_1" enable-background="new 0 0 512 512" viewBox="0 0 512 512" xmlns="http://www.w3.org/2000/svg" fill="#E6ECF2"><g><g fill="#0496FF"><path d="m501 104.001h-66.891v22h66.891c6.075 0 11-4.925 11-11s-4.925-11-11-11z"/><path d="m118.506 147.778v-65.554c0-16.992-13.824-30.816-30.815-30.816h-76.691v22h76.69c4.86 0 8.815 3.955 8.815 8.816v65.554c0 4.861-3.955 8.816-8.815 8.816h-76.69v22h76.69c16.992 0 30.816-13.824 30.816-30.816z"/><path d="m272.064 60h-96.179c-6.075 0-11 4.925-11 11s4.925 11 11 11h96.179c6.075 0 11-4.925 11-11s-4.924-11-11-11z"/><path d="m272.064 104.001h-96.179c-6.075 0-11 4.925-11 11s4.925 11 11 11h96.179c6.075 0 11-4.925 11-11s-4.924-11-11-11z"/><path d="m272.064 148h-96.179c-6.075 0-11 4.925-11 11s4.925 11 11 11h96.179c6.075 0 11-4.925 11-11s-4.924-11-11-11z"/><path d="m95.69 252h-38.975v22h38.975c4.86 0 8.815 3.955 8.815 8.816v65.554c0 4.861-3.955 8.816-8.815 8.816h-38.975v22h38.975c16.991 0 30.815-13.824 30.815-30.816v-65.554c.001-16.992-13.823-30.816-30.815-30.816z"/><path d="m220.931 214.716-20.264 8.567 19.403 45.894c1.321 3.127 1.003 6.542-.873 9.372-1.875 2.829-4.897 4.451-8.292 4.451h-19.387v22h19.387c10.739 0 20.693-5.343 26.628-14.293s6.982-20.2 2.802-30.094z"/></g><path d="m443.367 109.061-15.174-23.649c-2.022-3.153-5.512-5.06-9.258-5.06h-29.827v-17.352c0-6.075-4.925-11-11-11h-33v-1.584c0-2.917-1.159-5.715-3.222-7.778l-39.415-39.416c-2.064-2.063-4.862-3.222-7.779-3.222h-240.11c-30.097 0-54.582 24.485-54.582 54.582v120.837c0 27.076 19.822 49.601 45.715 53.85v176.427c-20.577 7.963-35.215 27.95-35.215 51.304v44c0 6.075 4.925 11 11 11h264.607c6.075 0 11-4.925 11-11v-44c0-2.917-1.159-5.715-3.222-7.778l-44-44c-2.063-2.063-4.861-3.222-7.778-3.222h-62.62l22.784-105.682c.477-2.211.26-4.516-.62-6.6l-25.231-59.718h118.273c2.917 0 5.715-1.159 7.778-3.222l39.416-39.416c2.062-2.063 3.222-4.861 3.222-7.778v-1.584h33c6.075 0 11-4.925 11-11v-17.35h29.827c3.746 0 7.235-1.907 9.258-5.06l15.174-23.649c2.322-3.619 2.322-8.261-.001-11.88zm-168.26 380.939h-242.607v-22h242.607zm-37.556-66 22 22h-225.159c4.541-12.803 16.768-22 31.108-22zm-57.518-128.92-23.051 106.92h-89.267v-172h84.822zm143.075-120.052-32.972 32.972h-235.554c-17.966 0-32.582-14.616-32.582-32.582v-120.836c0-17.966 14.616-32.582 32.582-32.582h235.554l32.973 32.972v120.056zm44-19.028h-22v-82h22zm45.816-28.35h-23.814v-25.299h23.814l8.116 12.649z"/></g><g/><g/><g/><g/><g/><g/><g/><g/><g/><g/><g/><g/><g/><g/><g/></svg>