<svg id="Layer_1" enable-background="new 0 0 512 512" viewBox="0 0 512 512" xmlns="http://www.w3.org/2000/svg" fill="#E6ECF2"><g><g fill="#0496FF"><path d="m474 55c0-6.075-4.925-11-11-11h-5.074l-3.513-34.126c-.577-5.61-5.304-9.874-10.942-9.874h-40.941c-5.639 0-10.365 4.264-10.942 9.874l-3.514 34.126h-5.074c-6.075 0-11 4.925-11 11s4.925 11 11 11h2.809l-3.281 31.874 21.885 2.253 3.513-34.127h30.148l3.513 34.126 21.885-2.253-3.281-31.873h2.809c6.075 0 11-4.925 11-11zm-63.81-11 2.265-22h21.09l2.265 22z"/><path d="m296 44h-5.074l-3.513-34.126c-.577-5.61-5.304-9.874-10.942-9.874h-40.941c-5.639 0-10.365 4.264-10.942 9.874l-3.514 34.126h-5.074c-6.075 0-11 4.925-11 11s4.925 11 11 11h2.809l-3.281 31.874 21.885 2.253 3.513-34.127h30.148l3.513 34.126 21.885-2.253-3.281-31.873h2.809c6.075 0 11-4.925 11-11s-4.925-11-11-11zm-52.81 0 2.265-22h21.09l2.265 22z"/><path d="m104.074 66 3.513 34.126 21.885-2.253-3.281-31.873h2.809c6.075 0 11-4.925 11-11s-4.925-11-11-11h-5.074l-3.513-34.126c-.577-5.61-5.304-9.874-10.942-9.874h-40.942c-5.639 0-10.365 4.264-10.942 9.874l-3.513 34.126h-5.074c-6.075 0-11 4.925-11 11s4.925 11 11 11h2.809l-3.281 31.874 21.885 2.253 3.513-34.127zm-25.619-44h21.09l2.265 22h-25.62z"/><path d="m275.524 301.837h-20.093l10.119-17.705c3.014-5.274 1.182-11.994-4.093-15.008-5.271-3.014-11.992-1.184-15.009 4.092l-19.524 34.163c-1.945 3.404-1.932 7.587.036 10.979 1.969 3.392 5.594 5.479 9.515 5.479h20.093l-10.119 17.705c-3.014 5.274-1.182 11.994 4.093 15.008 1.722.984 3.597 1.452 5.448 1.452 3.817 0 7.529-1.991 9.561-5.544l19.524-34.163c1.945-3.404 1.932-7.587-.036-10.979-1.969-3.391-5.594-5.479-9.515-5.479z"/><path d="m140.529 201.445h-11v-11c0-6.075-4.925-11-11-11s-11 4.925-11 11v11h-11c-6.075 0-11 4.925-11 11s4.925 11 11 11h11v11c0 6.075 4.925 11 11 11s11-4.925 11-11v-11h11c6.075 0 11-4.925 11-11s-4.925-11-11-11z"/><path d="m415.471 201.445h-44c-6.075 0-11 4.925-11 11s4.925 11 11 11h44c6.075 0 11-4.925 11-11s-4.925-11-11-11z"/></g><g><path d="m501 158c6.075 0 11-4.925 11-11v-48c0-6.075-4.925-11-11-11h-490c-6.075 0-11 4.925-11 11v48c0 6.075 4.925 11 11 11h11v284h-11c-6.075 0-11 4.925-11 11v48c0 6.075 4.925 11 11 11h490c6.075 0 11-4.925 11-11v-48c0-6.075-4.925-11-11-11h-11v-284zm-11 332h-468v-26h468zm-446-48v-284h424v284zm-22-306v-26h468v26z"/><path d="m293.15 229.449c-7.754-13.431-21.642-21.449-37.15-21.449s-29.396 8.018-37.15 21.449l-62.473 108.206c-7.754 13.43-7.754 29.466 0 42.897s21.642 21.448 37.15 21.448h124.945c15.509 0 29.396-8.018 37.15-21.449s7.754-29.467 0-42.897zm43.42 140.102c-3.777 6.543-10.543 10.449-18.097 10.449h-124.946c-7.555 0-14.32-3.906-18.098-10.449s-3.777-14.354 0-20.897l62.473-108.206c3.778-6.542 10.543-10.448 18.098-10.448s14.32 3.906 18.098 10.449l62.473 108.206c3.777 6.542 3.777 14.354-.001 20.896z"/></g></g><g/><g/><g/><g/><g/><g/><g/><g/><g/><g/><g/><g/><g/><g/><g/></svg>