<svg id="Capa_1" enable-background="new 0 0 512 512" viewBox="0 0 512 512" xmlns="http://www.w3.org/2000/svg" fill="#052438"><g><g fill="#0496FF"><path d="m445.682 256.695c0-6.075-4.925-11-11-11h-58.396c-6.075 0-11 4.925-11 11s4.925 11 11 11h58.396c6.075 0 11-4.925 11-11z"/><path d="m136.287 245.695h-58.701c-6.075 0-11 4.925-11 11s4.925 11 11 11h58.701c6.075 0 11-4.925 11-11s-4.925-11-11-11z"/><path d="m256 365.07c-6.075 0-11 4.925-11 11v59.618c0 6.075 4.925 11 11 11s11-4.925 11-11v-59.618c0-6.075-4.925-11-11-11z"/><path d="m256 147.376c6.075 0 11-4.925 11-11v-58.089c0-6.075-4.925-11-11-11s-11 4.925-11 11v58.089c0 6.075 4.925 11 11 11z"/><path d="m48.131 238.363c.52.073 1.035.108 1.545.108 5.396 0 10.106-3.974 10.879-9.47 3.021-21.483 9.538-42.179 19.37-61.512 2.754-5.415.597-12.037-4.818-14.791-5.413-2.753-12.037-.597-14.791 4.818-10.938 21.505-18.187 44.525-21.546 68.421-.846 6.017 3.344 11.58 9.361 12.426z"/><path d="m60.555 284.386c-.845-6.016-6.404-10.202-12.424-9.362-6.016.846-10.207 6.408-9.361 12.424 3.297 23.458 10.348 46.086 20.957 67.257 1.929 3.85 5.811 6.075 9.843 6.075 1.655 0 3.338-.375 4.919-1.168 5.432-2.722 7.628-9.331 4.906-14.762-9.537-19.033-15.875-39.376-18.84-60.464z"/><path d="m228.355 451.973c-21.219-2.97-41.681-9.344-60.815-18.945-5.429-2.725-12.04-.532-14.766 4.898-2.725 5.43-.531 12.04 4.898 14.765 21.281 10.679 44.036 17.768 67.634 21.07.518.072 1.03.107 1.538.107 5.398 0 10.11-3.978 10.88-9.477.843-6.016-3.352-11.576-9.369-12.418z"/><path d="m344.455 433.03c-19.135 9.601-39.595 15.974-60.812 18.943-6.017.842-10.211 6.402-9.369 12.418.77 5.5 5.48 9.477 10.88 9.477.508 0 1.021-.035 1.538-.107 23.595-3.302 46.349-10.391 67.629-21.067 5.43-2.725 7.623-9.335 4.898-14.765s-9.335-7.622-14.764-4.899z"/><path d="m463.841 275.351c-6.014-.854-11.583 3.327-12.439 9.342-2.969 20.881-9.249 41.032-18.664 59.893-2.714 5.436-.507 12.042 4.929 14.755 1.578.788 3.253 1.161 4.904 1.161 4.037 0 7.925-2.232 9.851-6.089 10.474-20.98 17.459-43.395 20.762-66.621.854-6.016-3.329-11.585-9.343-12.441z"/><path d="m451.403 228.708c.78 5.49 5.487 9.454 10.877 9.454.516 0 1.037-.036 1.562-.111 6.015-.855 10.197-6.424 9.343-12.438-3.381-23.781-10.614-46.692-21.501-68.098-2.753-5.414-9.376-7.572-14.791-4.818s-7.572 9.376-4.818 14.792c9.786 19.241 16.289 39.839 19.328 61.219z"/><path d="m354.326 60.699c-21.179-10.628-43.822-17.701-67.301-21.024-6.015-.848-11.581 3.335-12.433 9.35s3.335 11.582 9.351 12.433c21.112 2.988 41.473 9.348 60.516 18.904 1.583.794 3.267 1.171 4.925 1.171 4.029 0 7.91-2.222 9.841-6.069 2.724-5.43.531-12.041-4.899-14.765z"/><path d="m162.615 81.533c1.658 0 3.342-.376 4.925-1.171 18.93-9.499 39.166-15.841 60.146-18.851 6.013-.863 10.188-6.437 9.326-12.451-.863-6.013-6.427-10.186-12.451-9.327-23.331 3.347-45.836 10.401-66.889 20.965-5.43 2.725-7.623 9.335-4.898 14.765 1.931 3.848 5.811 6.07 9.841 6.07z"/><path d="m250.996 330.938 47.043-67.842c2.333-3.363 2.604-7.744.706-11.37-1.897-3.626-5.652-5.898-9.745-5.898h-44.484l37.605-52.057c3.558-4.925 2.449-11.801-2.476-15.358-4.925-3.556-11.801-2.45-15.358 2.476l-50.204 69.498c-2.419 3.349-2.758 7.771-.877 11.449 1.88 3.678 5.663 5.993 9.794 5.993h44.986l-35.068 50.574c-3.462 4.992-2.222 11.846 2.771 15.308 1.912 1.326 4.097 1.961 6.259 1.961 3.485-.001 6.912-1.653 9.048-4.734z"/></g><g><path d="m86.804 173.503c47.863 0 86.804-38.917 86.804-86.751s-38.941-86.752-86.804-86.752-86.804 38.917-86.804 86.751 38.94 86.752 86.804 86.752zm-16.895-91.409c0-9.305 7.579-16.875 16.895-16.875s16.895 7.57 16.895 16.875-7.579 16.875-16.895 16.875-16.895-7.571-16.895-16.875zm-10.54 63.301c1.58-13.728 13.277-24.426 27.435-24.426s25.855 10.698 27.435 24.426c-8.337 3.91-17.632 6.108-27.435 6.108s-19.098-2.198-27.435-6.108zm27.435-123.395c35.732 0 64.804 29.047 64.804 64.751 0 17.415-6.929 33.234-18.161 44.883-3.463-9.5-9.759-17.643-17.854-23.428 6.276-6.906 10.106-16.071 10.106-26.113 0-21.436-17.448-38.875-38.895-38.875s-38.895 17.44-38.895 38.876c0 10.042 3.83 19.207 10.106 26.113-8.095 5.785-14.391 13.928-17.854 23.428-11.232-11.65-18.161-27.469-18.161-44.884 0-35.704 29.071-64.751 64.804-64.751z"/><path d="m86.804 338.497c-47.864 0-86.804 38.917-86.804 86.752s38.94 86.751 86.804 86.751 86.804-38.917 86.804-86.751-38.941-86.752-86.804-86.752zm-16.895 82.093c0-9.305 7.579-16.875 16.895-16.875s16.895 7.57 16.895 16.875-7.579 16.875-16.895 16.875-16.895-7.569-16.895-16.875zm-10.54 63.302c1.58-13.728 13.277-24.426 27.435-24.426s25.855 10.698 27.435 24.426c-8.337 3.91-17.632 6.108-27.435 6.108s-19.098-2.198-27.435-6.108zm74.077-13.76c-3.463-9.5-9.759-17.643-17.854-23.428 6.276-6.906 10.106-16.071 10.106-26.114 0-21.436-17.448-38.875-38.895-38.875s-38.895 17.439-38.895 38.875c0 10.043 3.83 19.208 10.106 26.114-8.095 5.785-14.391 13.928-17.854 23.428-11.231-11.649-18.16-27.468-18.16-44.883 0-35.704 29.071-64.751 64.804-64.751s64.804 29.047 64.804 64.751c-.001 17.415-6.93 33.234-18.162 44.883z"/><path d="m425.196 173.503c47.863 0 86.804-38.917 86.804-86.751s-38.94-86.752-86.804-86.752-86.804 38.917-86.804 86.751 38.941 86.752 86.804 86.752zm-16.894-91.409c0-9.305 7.579-16.875 16.895-16.875s16.895 7.57 16.895 16.875-7.579 16.875-16.895 16.875-16.895-7.571-16.895-16.875zm-10.541 63.301c1.58-13.728 13.277-24.426 27.435-24.426s25.855 10.698 27.435 24.426c-8.337 3.91-17.632 6.108-27.435 6.108s-19.097-2.198-27.435-6.108zm27.435-123.395c35.733 0 64.804 29.047 64.804 64.751 0 17.415-6.929 33.234-18.161 44.883-3.463-9.5-9.759-17.643-17.854-23.428 6.276-6.906 10.106-16.071 10.106-26.113 0-21.436-17.448-38.875-38.895-38.875s-38.895 17.439-38.895 38.875c0 10.042 3.83 19.207 10.106 26.113-8.095 5.785-14.391 13.928-17.854 23.428-11.232-11.649-18.161-27.468-18.161-44.883.001-35.704 29.072-64.751 64.804-64.751z"/><path d="m425.196 338.497c-47.863 0-86.804 38.917-86.804 86.751s38.941 86.752 86.804 86.752 86.804-38.917 86.804-86.751-38.94-86.752-86.804-86.752zm-16.894 82.093c0-9.305 7.579-16.875 16.895-16.875s16.895 7.57 16.895 16.875-7.579 16.875-16.895 16.875-16.895-7.569-16.895-16.875zm-10.541 63.302c1.58-13.728 13.277-24.426 27.435-24.426s25.855 10.698 27.435 24.426c-8.337 3.91-17.632 6.108-27.435 6.108s-19.097-2.198-27.435-6.108zm74.078-13.76c-3.463-9.5-9.759-17.643-17.854-23.428 6.276-6.906 10.106-16.071 10.106-26.114 0-21.436-17.448-38.875-38.895-38.875s-38.895 17.439-38.895 38.875c0 10.043 3.83 19.208 10.106 26.114-8.095 5.785-14.391 13.928-17.854 23.428-11.232-11.649-18.161-27.468-18.161-44.883 0-35.704 29.071-64.751 64.804-64.751s64.804 29.046 64.804 64.751c0 17.415-6.929 33.234-18.161 44.883z"/><path d="m8.621 256.695c0 21.507 17.497 39.004 39.005 39.004 21.507 0 39.004-17.497 39.004-39.004s-17.497-39.005-39.004-39.005c-21.508 0-39.005 17.498-39.005 39.005zm56.009 0c0 9.376-7.628 17.004-17.004 17.004-9.377 0-17.005-7.628-17.005-17.004s7.628-17.004 17.005-17.004c9.376-.001 17.004 7.627 17.004 17.004z"/><path d="m425.37 256.695c0 21.507 17.497 39.004 39.004 39.004 21.508 0 39.005-17.497 39.005-39.004s-17.497-39.004-39.005-39.004c-21.507-.001-39.004 17.497-39.004 39.004zm56.009 0c0 9.376-7.628 17.004-17.005 17.004-9.376 0-17.004-7.628-17.004-17.004s7.628-17.004 17.004-17.004c9.377-.001 17.005 7.627 17.005 17.004z"/><path d="m256 426.064c-21.508 0-39.005 17.498-39.005 39.005s17.497 39.004 39.005 39.004 39.005-17.497 39.005-39.004-17.497-39.005-39.005-39.005zm0 56.01c-9.377 0-17.005-7.628-17.005-17.004s7.628-17.005 17.005-17.005 17.005 7.628 17.005 17.005-7.628 17.004-17.005 17.004z"/><path d="m256 87.325c21.508 0 39.005-17.497 39.005-39.004s-17.497-39.005-39.005-39.005-39.005 17.497-39.005 39.004 17.497 39.005 39.005 39.005zm0-56.009c9.377 0 17.005 7.628 17.005 17.004s-7.628 17.005-17.005 17.005-17.005-7.628-17.005-17.004 7.628-17.005 17.005-17.005z"/><path d="m256 126.701c-71.296 0-129.3 58.003-129.3 129.299s58.004 129.299 129.3 129.299 129.3-58.003 129.3-129.299-58.004-129.299-129.3-129.299zm0 236.598c-59.165 0-107.3-48.134-107.3-107.299s48.135-107.299 107.3-107.299 107.3 48.134 107.3 107.299-48.135 107.299-107.3 107.299z"/></g></g><g/><g/><g/><g/><g/><g/><g/><g/><g/><g/><g/><g/><g/><g/><g/></svg>