<svg id="Capa_1" enable-background="new 0 0 512 512" viewBox="0 0 512 512" xmlns="http://www.w3.org/2000/svg" fill="#E6ECF2"><g><g fill="#0496FF"><path d="m57.032 210.856c-4.293-4.297-11.258-4.3-15.556-.006s-4.3 11.259-.006 15.556l48.813 48.854v76.552l-48.259 48.3c-4.294 4.297-4.291 11.262.006 15.556 2.147 2.146 4.961 3.219 7.775 3.219 2.816 0 5.633-1.075 7.781-3.225l51.478-51.521c2.061-2.062 3.219-4.859 3.219-7.775v-85.66c0-2.916-1.158-5.712-3.219-7.775z"/><path d="m269.473 351.812v-76.552l48.812-48.854c4.294-4.297 4.291-11.262-.006-15.556-4.299-4.293-11.264-4.291-15.557.006l-52.031 52.075c-2.061 2.062-3.219 4.859-3.219 7.775v85.66c0 2.916 1.158 5.712 3.219 7.775l51.478 51.521c2.148 2.15 4.965 3.225 7.781 3.225 2.813 0 5.627-1.073 7.774-3.219 4.298-4.294 4.301-11.259.007-15.556z"/><path d="m206.211 301.234h-31.161l27.476-38.066c3.555-4.926 2.444-11.802-2.481-15.357s-11.801-2.444-15.357 2.481l-40.062 55.504c-2.417 3.349-2.755 7.77-.874 11.447s5.663 5.991 9.793 5.991h31.663l-25.578 36.917c-3.459 4.994-2.216 11.847 2.777 15.307 1.911 1.324 4.094 1.959 6.255 1.959 3.486 0 6.916-1.654 9.052-4.736l37.539-54.181c2.331-3.364 2.601-7.743.703-11.368s-5.653-5.898-9.745-5.898z"/><path d="m459.998 165.452c-.015 0-.029 0-.044 0-6.055 0-10.975 4.896-10.999 10.957l-.942 239.16c0 15.2-11.453 27.106-26.074 27.106-14.93 0-27.075-12.16-27.075-27.106v-64.305c0-25.135-20.437-45.584-45.556-45.584h-35.034c-6.075 0-11 4.925-11 11s4.925 11 11 11h35.034c12.988 0 23.556 10.58 23.556 23.584v64.305c0 27.077 22.015 49.106 49.075 49.106 26.958 0 48.074-21.57 48.074-49.063l.942-239.117c.024-6.075-4.882-11.019-10.957-11.043z"/></g><g><path d="m501 83.221h-5.947v-27.565c0-6.075-4.925-11-11-11s-11 4.925-11 11v27.565h-27.544v-27.565c0-6.075-4.925-11-11-11s-11 4.925-11 11v27.565h-5.947c-6.075 0-11 4.925-11 11v49.212c0 22.974 18.69 41.665 41.664 41.665h22.11c22.974 0 41.664-18.69 41.664-41.665v-49.212c0-6.075-4.925-11-11-11zm-11 60.212c0 10.843-8.821 19.665-19.664 19.665h-22.11c-10.843 0-19.664-8.821-19.664-19.665v-38.212h61.438z"/><path d="m323.873 440.42v-370.469c0-38.571-31.38-69.951-69.951-69.951h-148.089c-38.571 0-69.951 31.38-69.951 69.951v370.469c-20.479 4.394-35.882 22.63-35.882 44.403v16.177c0 6.075 4.925 11 11 11h337.755c6.075 0 11-4.925 11-11v-16.177c0-21.773-15.402-40.009-35.882-44.403zm-218.04-418.42h148.089c26.44 0 47.951 21.511 47.951 47.951v369.454h-243.991v-369.454c0-26.44 21.511-47.951 47.951-47.951zm231.922 468h-315.755v-5.177c0-12.913 10.505-23.418 23.418-23.418h268.919c12.913 0 23.418 10.505 23.418 23.418z"/><path d="m98.65 183.741h162.456c6.075 0 11-4.925 11-11v-93.644c0-13.658-11.111-24.769-24.769-24.769h-134.918c-13.658 0-24.769 11.111-24.769 24.769v93.644c0 6.075 4.925 11 11 11zm11-104.644c0-1.527 1.242-2.769 2.769-2.769h134.917c1.527 0 2.769 1.242 2.769 2.769v82.644h-140.455z"/></g></g><g/><g/><g/><g/><g/><g/><g/><g/><g/><g/><g/><g/><g/><g/><g/></svg>