<svg id="Layer_1" enable-background="new 0 0 512 512" viewBox="0 0 512 512" xmlns="http://www.w3.org/2000/svg" fill="#E6ECF2"><g><path d="m485.23 285.05c-17.013-15.132-39.739-22.29-62.354-19.634l-28.356 3.329c-74.164 8.711-143.013-39.525-160.178-112.185l-21.762-92.121c-1.173-4.964-5.604-8.471-10.705-8.471-25.352 0-47.714 14.611-58.507 36.247h-104.859c-6.075 0-11 4.925-11 11v89.761c0 20.361-4.293 40.076-12.758 58.597-9.788 21.41-14.751 44.202-14.751 67.742v125.717c0 6.075 4.925 11 11 11h130.699c4.053 0 7.777-2.229 9.693-5.8l11.838-22.068 62.929 17.746c41.73 11.769 86.214 13.275 128.646 4.357l148.458-31.2c5.092-1.07 8.737-5.562 8.737-10.765v-63.614c0-22.768-9.757-44.505-26.77-59.638zm-435.721-170.836h87.399l-4.963 40.081h-82.436zm-27.509 205.101c0-20.362 4.293-40.077 12.759-58.597 9.787-21.412 14.75-44.204 14.75-67.743v-16.68h92.158c5.553 0 10.234-4.138 10.917-9.648l6.272-50.659c2.327-18.794 16.538-33.581 34.514-37.18l19.562 82.809c13.807 58.445 56.707 103.136 110.428 121.286-8.296 7.269-17.966 12.846-28.591 16.397-16.053 5.365-33.144 5.755-49.425 1.129-43.962-12.493-91.488 4.001-118.262 41.041l-5.56 7.693h-99.522zm468 80.06-139.721 29.364c-38.967 8.189-79.822 6.806-118.149-4.002l-71.431-20.144c-4.964-1.4-10.239.84-12.679 5.387l-12.903 24.053h-113.117v-62.87h105.145c16.3 0 32.501 2.301 48.154 6.839l47.704 13.83c24.412 7.078 49.786 10.635 75.165 10.635 18.203 0 36.409-1.83 54.265-5.504l137.567-28.306zm0-53.179-142.001 29.219c-39.264 8.08-80.369 6.449-118.871-4.712l-47.703-13.83c-10.925-3.167-22.085-5.365-33.363-6.582 21.816-26.684 57.825-38.202 91.27-28.699 20.558 5.842 42.14 5.349 62.41-1.425 18.05-6.032 33.926-16.68 46.31-30.961 15.844 2.788 32.32 3.352 49.033 1.389l28.356-3.329c16.389-1.919 32.845 3.262 45.167 14.223 12.325 10.961 19.392 26.707 19.392 43.2z"/><g fill="#0496FF"><path d="m237.138 116.693c-1.326-5.928-7.202-9.659-13.136-8.333l-35.45 7.931c-5.929 1.327-9.659 7.208-8.333 13.136 1.146 5.12 5.688 8.601 10.725 8.601.795 0 1.603-.087 2.411-.268l35.45-7.931c5.928-1.326 9.659-7.207 8.333-13.136z"/><path d="m246.705 157.189c-2.302-5.622-8.727-8.314-14.347-6.013l-31.46 12.878c-5.623 2.302-8.314 8.725-6.013 14.348 1.743 4.258 5.851 6.835 10.184 6.835 1.388 0 2.8-.265 4.163-.823l31.46-12.878c5.623-2.301 8.315-8.724 6.013-14.347z"/><path d="m260.986 190.38c-3.484-4.976-10.344-6.182-15.32-2.698l-25.514 17.874c-4.976 3.486-6.184 10.345-2.697 15.321 2.14 3.055 5.552 4.689 9.019 4.689 2.18 0 4.381-.646 6.302-1.992l25.514-17.874c4.975-3.485 6.183-10.345 2.696-15.32z"/><path d="m285.206 221.254c-4.524-4.054-11.479-3.671-15.532.853l-21.866 24.406c-4.055 4.525-3.673 11.479.853 15.533 2.1 1.881 4.723 2.807 7.336 2.807 3.019 0 6.024-1.235 8.196-3.66l21.866-24.406c4.054-4.524 3.672-11.478-.853-15.533z"/><path d="m130.706 241.331h-20.785l10.464-18.31c3.015-5.275 1.183-11.994-4.092-15.009-5.271-3.013-11.992-1.183-15.008 4.092l-19.871 34.768c-1.946 3.405-1.933 7.587.035 10.979 1.969 3.392 5.594 5.479 9.515 5.479h20.785l-10.464 18.31c-3.015 5.275-1.183 11.994 4.092 15.009 1.722.984 3.597 1.452 5.448 1.452 3.817 0 7.529-1.991 9.56-5.543l19.871-34.768c1.946-3.405 1.933-7.587-.035-10.979-1.969-3.393-5.594-5.48-9.515-5.48z"/></g></g><g/><g/><g/><g/><g/><g/><g/><g/><g/><g/><g/><g/><g/><g/><g/></svg>