<svg id="Capa_1" enable-background="new 0 0 512 512" viewBox="0 0 512 512" xmlns="http://www.w3.org/2000/svg" fill="#E6ECF2"><g><g><g><path d="m439.334 336.516h-185.544c-6.075 0-11-4.925-11-11s4.925-11 11-11h183.336v-239.618h-239.499v183.491c0 6.075-4.925 11-11 11s-11-4.925-11-11v-185.7c0-10.913 8.878-19.792 19.792-19.792h243.916c10.913 0 19.792 8.878 19.792 19.792v244.035c-.001 10.913-8.879 19.792-19.793 19.792z" fill="#0496FF"/></g><g><path d="m121.078 461.306c-2.162 0-4.345-.635-6.256-1.96-4.993-3.46-6.235-10.313-2.775-15.307l39.199-56.556h-50.778c-4.131 0-7.913-2.314-9.794-5.992-1.88-3.678-1.542-8.099.876-11.448l54.605-75.625c3.555-4.926 10.431-6.036 15.357-2.479 4.925 3.556 6.035 10.432 2.479 15.357l-42.013 58.185h50.275c4.092 0 7.847 2.272 9.745 5.897s1.627 8.005-.704 11.369l-51.167 73.822c-2.134 3.084-5.564 4.737-9.049 4.737z" fill="#0496FF"/></g></g><g><g><path d="m317.376 101.939c-51.132 0-92.731 41.615-92.731 92.768s41.599 92.768 92.731 92.768 92.731-41.616 92.731-92.768-41.599-92.768-92.731-92.768zm0 163.536c-39.001 0-70.731-31.747-70.731-70.768s31.73-70.768 70.731-70.768 70.731 31.746 70.731 70.768-31.73 70.768-70.731 70.768z"/><circle cx="288.02" cy="194.503" r="11"/><circle cx="347.71" cy="194.503" r="11"/></g><path d="m470.399 0h-306.045c-22.939 0-41.601 18.662-41.601 41.601v198.24c-68.825 6.854-122.753 65.114-122.753 135.741 0 75.221 61.171 136.418 136.361 136.418 70.523 0 128.713-53.837 135.665-122.586h198.373c22.939 0 41.601-18.662 41.601-41.601v-306.212c0-22.939-18.662-41.601-41.601-41.601zm-334.038 490c-63.059 0-114.361-51.328-114.361-114.418s51.302-114.418 114.361-114.418 114.361 51.328 114.361 114.418-51.302 114.418-114.361 114.418zm353.639-142.188c0 10.808-8.793 19.601-19.601 19.601h-197.928c-4.073-68.653-59.124-123.797-127.718-127.984v-197.828c0-10.808 8.793-19.601 19.601-19.601h306.045c10.808 0 19.601 8.793 19.601 19.601z"/></g></g><g/><g/><g/><g/><g/><g/><g/><g/><g/><g/><g/><g/><g/><g/><g/></svg>