<svg id="Layer_1" enable-background="new 0 0 512 512" viewBox="0 0 512 512" xmlns="http://www.w3.org/2000/svg" fill="#052438"><g><g><path d="m289 348c0 4.962-4.037 9-9 9h-48c-4.963 0-9-4.038-9-9v-108h-22v108c0 17.093 13.906 31 31 31h48c17.094 0 31-13.907 31-31v-108h-22z"/><path d="m280 133h-48c-17.094 0-31 13.907-31 31v32h22v-32c0-4.962 4.037-9 9-9h48c4.963 0 9 4.038 9 9v32h22v-32c0-17.093-13.906-31-31-31z"/><path d="m425 133h-48c-17.094 0-31 13.907-31 31v108h22v-108c0-4.962 4.037-9 9-9h48c4.963 0 9 4.038 9 9v108h22v-108c0-17.093-13.906-31-31-31z"/><path d="m434 348c0 4.962-4.037 9-9 9h-48c-4.963 0-9-4.038-9-9v-32h-22v32c0 17.093 13.906 31 31 31h48c17.094 0 31-13.907 31-31v-32h-22z"/><path d="m135 133h-48c-17.094 0-31 13.907-31 31v108h22v-108c0-4.962 4.037-9 9-9h48c4.963 0 9 4.038 9 9v108h22v-108c0-17.093-13.906-31-31-31z"/><path d="m144 348c0 4.962-4.037 9-9 9h-48c-4.963 0-9-4.038-9-9v-32h-22v32c0 17.093 13.906 31 31 31h48c17.094 0 31-13.907 31-31v-32h-22z"/><path d="m457 79h-402c-30.327 0-55 24.673-55 55v244c0 30.327 24.673 55 55 55h402c30.327 0 55-24.673 55-55v-244c0-30.327-24.673-55-55-55zm33 299c0 18.196-14.804 33-33 33h-402c-18.196 0-33-14.804-33-33v-244c0-18.196 14.804-33 33-33h402c18.196 0 33 14.804 33 33z"/></g><g fill="#0496FF"><path d="m312 185h-112c-6.075 0-11 4.925-11 11v44c0 6.075 4.925 11 11 11h45v35c0 6.075 4.925 11 11 11s11-4.925 11-11v-35h45c6.075 0 11-4.925 11-11v-44c0-6.075-4.925-11-11-11zm-11 44h-90v-22h90z"/><path d="m457 261h-45v-35c0-6.075-4.925-11-11-11s-11 4.925-11 11v35h-45c-6.075 0-11 4.925-11 11v44c0 6.075 4.925 11 11 11h112c6.075 0 11-4.925 11-11v-44c0-6.075-4.925-11-11-11zm-11 44h-90v-22h90z"/><path d="m167 261h-45v-35c0-6.075-4.925-11-11-11s-11 4.925-11 11v35h-45c-6.075 0-11 4.925-11 11v44c0 6.075 4.925 11 11 11h112c6.075 0 11-4.925 11-11v-44c0-6.075-4.925-11-11-11zm-11 44h-90v-22h90z"/></g></g><g/><g/><g/><g/><g/><g/><g/><g/><g/><g/><g/><g/><g/><g/><g/></svg>