<svg id="Capa_1" enable-background="new 0 0 512.002 512.002" height="512" viewBox="0 0 512.002 512.002" width="512" xmlns="http://www.w3.org/2000/svg" fill="#E6ECF2"><g><path d="m433.569 349.501h56.433v-265.435h-389.568v56.433l-11 22c-6.075 0-11-4.925-11-11v-78.433c0-6.075 4.925-11 11-11h411.567c6.075 0 11 4.925 11 11v287.435c0 6.075-4.925 11-11 11h-78.433c-6.075 0-11-4.925-11-11z" fill="#0496FF"/><path d="m431.51 445.325c1.342-1.846 2.037-4.117 2.059-6.391v-287.435c.108-5.904-5.095-11.108-11-11h-411.567c-5.906-.108-11.108 5.097-11 11v287.435c-.097 5.901 5.098 11.119 11.007 11h411.554c3.496.019 6.935-1.748 8.947-4.609zm-409.508-270.157 100.609 84.864-100.609 143.96zm117.495 99.108 52.738 44.485c7.227 6.096 15.889 9.145 24.55 9.145 8.662 0 17.323-3.048 24.551-9.145l52.738-44.485 107.388 153.658h-369.352zm171.463-14.243 100.609-84.864v228.823zm81.507-97.534-103.469 87.276s-.001 0-.001.001l-61.848 52.169c-6.199 5.23-14.53 5.229-20.729 0l-61.848-52.169s-.001-.001-.001-.001l-103.468-87.276z"/></g></svg>