<svg id="Capa_1" enable-background="new 0 0 512.002 512.002" height="512" viewBox="0 0 512.002 512.002" width="512" xmlns="http://www.w3.org/2000/svg" fill="#052438"><g><path d="m399.45 303.829h-4.183c-5.828 0-10.569 4.741-10.569 10.569v4.066h-4.067c-5.828 0-10.569 4.741-10.569 10.569v4.313c0 5.828 4.741 10.569 10.569 10.569h4.067v46.142c0 5.828 4.741 10.569 10.569 10.569h4.183c5.828 0 10.569-4.741 10.569-10.569v-75.66c.001-5.827-4.741-10.568-10.569-10.568z"/><path d="m299.807 156.216c-.001.001-.002.002-.003.003l-64.194 54.148c-6.596 5.563-15.458 5.563-22.054 0l-64.194-54.148c-.001-.001-.002-.002-.003-.003l-108.256-91.314h366.961zm-277.805-78.645 105.399 88.904-105.399 150.812zm427.163 177.903v-201.572c0-.019-.003-.038-.003-.057.093-5.888-5.122-11.039-10.997-10.943h-427.163c-5.901-.097-11.116 5.091-11 11v298.327c-.097 5.901 5.098 11.119 11.007 11h278.246l-10.487-22h-246.659l112.177-160.51 55.086 46.465c7.422 6.26 16.317 9.391 25.211 9.391 8.895 0 17.79-3.13 25.212-9.391l55.086-46.465 44.657 63.898 14.532 11.386 7.508-18.254-49.811-71.273 105.399-88.904v162.227z"/><path d="m395.128 469.102c-64.444 0-116.874-52.429-116.874-116.874 0-64.444 52.429-116.873 116.874-116.873 64.444 0 116.874 52.429 116.874 116.873 0 64.445-52.429 116.874-116.874 116.874zm0-211.747c-52.313 0-94.874 42.56-94.874 94.873s42.56 94.874 94.874 94.874c52.313 0 94.874-42.56 94.874-94.874 0-52.313-42.56-94.873-94.874-94.873z" fill="#0496FF"/></g></svg>