<svg id="Capa_1" enable-background="new 0 0 512.002 512.002" height="512" viewBox="0 0 512.002 512.002" width="512" xmlns="http://www.w3.org/2000/svg" fill="#E6ECF2"><g><path d="m444.628 359.363c3.351-4.332 3.483-10.938-.537-14.934-.007-.007-.013-.015-.02-.022l-32.56-32.196c-4.32-4.271-11.285-4.232-15.556.087-4.272 4.32-4.232 11.285.087 15.556l13.525 13.374h-55.647c-6.075 0-11 4.925-11 11s4.925 11 11 11h55.648l-13.526 13.375c-4.32 4.272-4.359 11.236-.087 15.556 2.152 2.176 4.986 3.266 7.822 3.266 2.794 0 5.59-1.059 7.734-3.178 5.003-4.947 10.006-9.894 15.008-14.841 5.76-5.696 11.663-11.28 17.295-17.102.29-.3.561-.614.814-.941z"/><path d="m299.807 156.216c-.001.001-.002.002-.003.003l-64.194 54.148c-6.597 5.563-15.459 5.563-22.054 0l-64.194-54.148c-.001-.001-.002-.002-.003-.003l-108.256-91.314h366.961zm-277.805-78.645 105.399 88.904-105.399 150.812zm427.163 177.903v-201.572c0-.019-.003-.038-.003-.057.093-5.888-5.121-11.039-10.997-10.943h-427.163c-5.901-.097-11.116 5.091-11 11v298.327c-.097 5.901 5.098 11.119 11.007 11h278.246l-10.487-22h-246.659l112.177-160.51 55.086 46.465c7.422 6.26 16.317 9.391 25.211 9.391 8.895 0 17.79-3.13 25.212-9.391l55.086-46.465 44.657 63.897 12.289 8.831 9.751-15.699-49.811-71.273 105.399-88.904v162.227z"/><path d="m395.128 469.102c-64.444 0-116.874-52.429-116.874-116.874 0-64.444 52.429-116.873 116.874-116.873 64.444 0 116.874 52.429 116.874 116.873 0 64.445-52.429 116.874-116.874 116.874zm0-211.747c-52.313 0-94.874 42.56-94.874 94.873s42.56 94.874 94.874 94.874c52.313 0 94.874-42.56 94.874-94.874 0-52.313-42.56-94.873-94.874-94.873z" fill="#0496FF"/></g></svg>