<svg id="Capa_1" enable-background="new 0 0 512 512" height="512" viewBox="0 0 512 512" width="512" xmlns="http://www.w3.org/2000/svg" fill="#052438"><g><path d="m457.902 110.464c-.023-2.834-1.215-5.612-3.213-7.616l-99.628-99.626c-2.043-2.044-4.889-3.222-7.778-3.222h-282.193c-6.075 0-11 4.925-11 11v490c0 6.075 4.925 11 11 11h381.82c6.075 0 11-4.925 11-11v-390.373c0-.055-.007-.108-.008-.163zm-99.619-72.908 62.07 62.07h-62.07zm-282.193 452.444v-468h260.193v88.627c0 6.075 4.925 11 11 11h88.627v368.373z"/><g><path d="m208.172 312.766h-30.287c-5.072 0-9.486-3.468-10.688-8.396l-8.788-36.067c-1.438-5.902 2.181-11.853 8.083-13.292 5.905-1.434 11.854 2.181 13.292 8.083l6.742 27.671h21.646c6.075 0 6.1 5.804 6.1 11.879 0 6.076-.025 10.122-6.1 10.122z"/><path d="m169.105 396.072c-.862 0-1.737-.102-2.613-.315-5.902-1.438-9.521-7.389-8.083-13.292l8.788-36.067c1.201-4.928 5.615-8.396 10.688-8.396h32.106c6.075 0 4.281 3.741 4.281 9.816s1.794 12.184-4.281 12.184h-23.465l-6.742 27.671c-1.225 5.028-5.724 8.399-10.679 8.399z"/><path d="m334.115 312.766h-30.287c-6.075 0-6.357-4.046-6.357-10.121s.282-11.879 6.357-11.879h21.646l6.742-27.671c1.44-5.902 7.385-9.518 13.292-8.083 5.902 1.439 9.521 7.389 8.083 13.292l-8.788 36.067c-1.201 4.927-5.615 8.395-10.688 8.395z"/><path d="m342.895 396.072c-4.955 0-9.453-3.371-10.679-8.398l-6.742-27.671h-23.57c-6.075 0-4.139-6.497-4.139-12.572s-1.936-9.428 4.139-9.428h32.212c5.072 0 9.486 3.468 10.688 8.396l8.788 36.067c1.439 5.902-2.181 11.853-8.083 13.292-.876.212-1.752.314-2.614.314z"/><path d="m237.634 231.737c-6.075 0-10.581-2.221-10.581-8.296 0-19.267-22.059-27.94-22.281-28.025-5.674-2.173-8.511-8.534-6.338-14.207 2.174-5.674 8.536-8.512 14.207-6.337 1.487.569 36.412 14.341 36.412 48.569 0 6.075-5.344 8.296-11.419 8.296z"/><path d="m273.892 231.239c-6.075 0-10.945-1.723-10.945-7.798 0-34.228 34.925-48 36.412-48.569 5.669-2.174 12.033.664 14.207 6.337 2.167 5.658-.65 12.001-6.293 14.19-1.01.4-22.326 9.081-22.326 28.042 0 6.075-4.979 7.798-11.055 7.798z"/><path d="m309.466 271.057v-9.12c0-29.481-23.984-53.465-53.466-53.465s-53.466 23.984-53.466 53.465v9.12c-3.943 14.459-6.564 34.933-6.564 51.63 0 24.355 5.759 43.222 17.117 56.076 10.439 11.812 25.277 18.056 42.913 18.056s32.475-6.244 42.913-18.056c11.358-12.854 17.117-31.721 17.117-56.076 0-16.697-2.621-37.17-6.564-51.63zm-53.466-40.585c17.216 0 31.247 13.897 31.463 31.062h-62.926c.216-17.165 14.247-31.062 31.463-31.062zm0 144.347c-25.235 0-38.03-17.539-38.03-52.132 0-12.265 1.642-27.242 4.173-39.153h67.715c2.531 11.911 4.173 26.889 4.173 39.153-.001 34.592-12.796 52.132-38.031 52.132z" fill="#0496FF"/></g></g></svg>