<svg id="Capa_1" enable-background="new 0 0 512 512" height="512" viewBox="0 0 512 512" width="512" xmlns="http://www.w3.org/2000/svg" fill="#E6ECF2"><g><path d="m457.902 110.464c-.024-2.834-1.215-5.612-3.214-7.616l-99.627-99.626c-2.043-2.045-4.889-3.222-7.778-3.222h-282.193c-6.075 0-11 4.925-11 11v490c0 6.075 4.925 11 11 11h381.82c6.075 0 11-4.925 11-11v-390.373c0-.055-.007-.108-.008-.163zm-99.619-72.908 62.07 62.07h-62.07zm-282.193 452.444v-468h260.193v88.627c0 6.075 4.925 11 11 11h88.627v368.373z"/><g><path d="m225.489 344.2c-1.9 0-3.798-.491-5.5-1.474-3.403-1.965-5.5-5.597-5.5-9.526v-95.438c0-3.93 2.097-7.561 5.5-9.526 3.404-1.965 7.596-1.965 11 0l82.651 47.719c3.403 1.965 5.5 5.597 5.5 9.526 0 3.93-2.097 7.562-5.5 9.526l-82.651 47.719c-1.702.983-3.6 1.474-5.5 1.474zm11-87.385v57.332l49.651-28.666z"/><path d="m256 410.549c-68.963 0-125.068-56.105-125.068-125.068s56.105-125.068 125.068-125.068 125.068 56.105 125.068 125.068-56.105 125.068-125.068 125.068zm0-228.136c-56.832 0-103.068 46.236-103.068 103.068s46.236 103.068 103.068 103.068 103.068-46.236 103.068-103.068-46.236-103.068-103.068-103.068z" fill="#0496FF"/></g></g></svg>