<svg id="Capa_1" enable-background="new 0 0 512.002 512.002" height="512" viewBox="0 0 512.002 512.002" width="512" xmlns="http://www.w3.org/2000/svg" fill="#052438"><g><g fill="#0496FF"><path d="m316.741 249.769h-121.48c-6.075 0-11-4.925-11-11s4.925-11 11-11h121.48c6.075 0 11 4.925 11 11s-4.925 11-11 11z"/><path d="m316.741 188.774h-121.48c-6.075 0-11-4.925-11-11s4.925-11 11-11h121.48c6.075 0 11 4.925 11 11s-4.925 11-11 11z"/></g><path d="m509.887 192.351c.006-3.426-1.671-6.769-4.419-8.814l-90.427-67.517v-23.48c0-6.075-4.925-11-11-11h-35.18l-106.279-79.354c-3.903-2.914-9.258-2.915-13.162 0l-106.28 79.354h-35.18c-6.075 0-11 4.925-11 11v23.48l-90.426 67.517c-2.748 2.045-4.425 5.388-4.419 8.814v308.649c-.098 5.903 5.094 11.106 11 11h485.772c5.907.106 11.097-5.097 11-11zm-485.772 22.307 138.881 106.577-138.881 151.489zm156.401 120.023 48.183 36.975c8.039 6.169 17.669 9.252 27.302 9.252 9.631 0 19.265-3.084 27.302-9.252l48.183-36.975 142.393 155.319h-435.756zm168.49-13.446 138.881-106.577v258.066zm131.656-128.764-65.621 50.357v-99.353zm-224.661-167.743 76.088 56.812h-152.177zm137.04 78.812v156.171l-123.132 94.492c-8.19 6.284-19.627 6.284-27.816 0l-123.133-94.492v-156.171zm-296.081 139.288-65.62-50.357 65.621-48.996v99.353z"/></g></svg>