<svg id="Capa_1" enable-background="new 0 0 512 512" viewBox="0 0 512 512" xmlns="http://www.w3.org/2000/svg" fill="#E6ECF2"><g><g><path d="m304.297 369.844h-20.272c-6.075 0-11 4.925-11 11s4.925 11 11 11h20.272c6.075 0 11-4.925 11-11s-4.925-11-11-11z"/><g><path d="m417.354 334.431-26.843-7.394-3.578-6.989c-13.638-26.64-34.342-48.973-59.875-64.585s-54.847-23.864-84.774-23.864h-.467c-.007 0-.013-.001-.019-.001-.01 0-.019.001-.029.001-29.917.005-59.221 8.256-84.745 23.864-25.532 15.612-46.236 37.945-59.875 64.585l-2.718 5.31h-17.952c-27.792 0-50.403 22.611-50.403 50.403v37.836c0 26.641 20.781 48.507 46.982 50.274 5.117 27.355 29.16 48.129 57.978 48.129 28.773 0 52.786-20.708 57.956-48h123.977c5.17 27.292 29.183 48 57.956 48s52.786-20.708 57.956-48h46.044c6.075 0 11-4.925 11-11v-28.558c0-41.877-28.197-78.89-68.571-90.011zm-164.556-80.427c22.19 1.664 43.709 8.564 62.783 20.229 20.55 12.566 37.477 30.172 49.231 51.125h-112.014zm-84.297 20.228c18.935-11.579 40.279-18.459 62.297-20.187v71.312h-111.528c11.754-20.952 28.681-38.558 49.231-51.125zm-37.465 215.768c-20.402 0-37-16.598-37-37s16.598-37 37-37 37 16.598 37 37-16.598 37-37 37zm239.889 0c-20.402 0-37-16.598-37-37s16.598-37 37-37 37 16.598 37 37-16.598 37-37 37zm93-48h-35.044c-5.17-27.292-29.183-48-57.956-48s-52.786 20.708-57.956 48h-123.977c-5.17-27.292-29.183-48-57.956-48-28.701 0-52.668 20.604-57.919 47.794-14.082-1.669-25.042-13.674-25.042-28.198v-37.836c0-15.661 12.742-28.403 28.403-28.403h304.959l30.074 8.284c30.86 8.5 52.413 36.792 52.413 68.801v17.558z"/><circle cx="370.925" cy="453" r="11"/><circle cx="131.036" cy="453" r="11"/></g></g><path d="m501 0h-490c-6.075 0-11 4.925-11 11v44c0 6.075 4.925 11 11 11h188v65c0 6.075 4.925 11 11 11h2.449l11.688 36.366c1.462 4.549 5.694 7.634 10.472 7.634h10.219c-.879 17.901-5.312 35.713-12.972 51.891-2.6 5.491-.256 12.05 5.234 14.649 1.521.721 3.123 1.062 4.7 1.062 4.119 0 8.069-2.325 9.949-6.295 9.045-19.102 14.211-40.167 15.106-61.307h10.545c4.778 0 9.01-3.085 10.472-7.634l11.689-36.366h2.449c6.075 0 11-4.925 11-11v-65h188c6.075 0 11-4.925 11-11v-44c0-6.075-4.925-11-11-11zm-302 44h-177v-22h177zm70.372 120h-26.744l-7.071-22h40.885zm21.628-44h-70v-98h70zm199-76h-177v-22h177z" fill="#0496FF"/></g><g/><g/><g/><g/><g/><g/><g/><g/><g/><g/><g/><g/><g/><g/><g/></svg>