<svg id="Capa_1" enable-background="new 0 0 512 512" viewBox="0 0 512 512" xmlns="http://www.w3.org/2000/svg" fill="#E6ECF2"><g><path d="m479 401h-63.333v-53c0-6.075-4.925-11-11-11h-63.334v-42h63.334c6.075 0 11-4.925 11-11v-64c0-6.075-4.925-11-11-11h-212v-42.331h-22v42.331h-126.667v-43.583h-22v310.583c0 6.075 4.925 11 11 11h446c6.075 0 11-4.925 11-11v-64c0-6.075-4.925-11-11-11zm-212-170h126.667v42h-126.667zm52.333 64v42h-126.666v-42zm-201-64h126.667v42h-126.667zm-74.333 0h52.333v42h-52.333zm0 64h126.667v42h-126.667zm0 64h52.333v42h-52.333zm126.667 106h-126.667v-42h126.667zm-52.334-64v-42h126.667v42zm201 64h-126.666v-42h126.666zm-52.333-64v-42h126.667v42zm201 64h-126.667v-42h126.667z"/><path d="m510.807 118.018-44-86.602c-1.874-3.688-5.658-6.014-9.796-6.018l-402-.398c-.004 0-.007 0-.011 0-4.147 0-7.943 2.334-9.816 6.035l-44 87c-.779 1.539-1.184 3.24-1.184 4.965 0 33.084 26.916 60 60 60 20.213 0 38.123-10.047 49-25.409 10.877 15.362 28.787 25.409 49 25.409s38.123-10.047 49-25.409c10.877 15.362 28.787 25.409 49 25.409s38.123-10.047 49-25.409c10.877 15.362 28.787 25.409 49 25.409s38.123-10.047 49-25.409c10.877 15.362 28.787 25.409 49 25.409 33.084 0 60-26.916 60-60 0-1.731-.409-3.438-1.193-4.982zm-449.047-71.011 388.487.385 32.826 64.608h-454.183zm-1.76 113.993c-17.129 0-31.64-11.395-36.369-27h72.74c-4.729 15.605-19.242 27-36.371 27zm98 0c-17.129 0-31.642-11.395-36.371-27h72.741c-4.728 15.605-19.241 27-36.37 27zm98 0c-17.129 0-31.642-11.395-36.371-27h72.741c-4.728 15.605-19.241 27-36.37 27zm98 0c-17.129 0-31.642-11.395-36.371-27h72.741c-4.728 15.605-19.241 27-36.37 27zm98 0c-17.129 0-31.642-11.395-36.371-27h72.739c-4.729 15.604-19.239 27-36.368 27z" fill="#0496FF"/></g><g/><g/><g/><g/><g/><g/><g/><g/><g/><g/><g/><g/><g/><g/><g/></svg>