<svg id="Capa_1" enable-background="new 0 0 512 512" viewBox="0 0 512 512" xmlns="http://www.w3.org/2000/svg" fill="#052438"><g><path d="m424.115 387.873 82.316-46.738c2.549-1.447 4.414-3.852 5.184-6.681.769-2.828.377-5.847-1.089-8.385l-185.081-320.569c-1.965-3.403-5.597-5.5-9.526-5.5s-7.562 2.097-9.526 5.5l-107.662 186.477 19.053 11 87.135-150.924v239.884h22v-239.884l159.015 275.422-72.682 41.268z"/><path d="m261.458 215.407-122.563-67.906c-3.316-1.838-7.346-1.838-10.662 0l-122.564 67.906c-3.498 1.939-5.669 5.623-5.669 9.622v135.813c0 3.999 2.171 7.684 5.669 9.622l122.563 67.907c1.658.919 3.494 1.378 5.331 1.378 1.836 0 3.673-.459 5.331-1.378l78.324-43.396-10.662-19.244-61.993 34.348v-110.661l100.564-55.718v67.358h22v-86.028c0-4-2.171-7.684-5.669-9.623zm-127.895-45.709 99.866 55.331-99.866 55.332-99.867-55.332zm-111.563 74.002 100.563 55.718v110.662l-100.563-55.718z" fill="#0496FF"/><g><path d="m315.919 512c-63.429 0-115.031-51.604-115.031-115.032s51.603-115.031 115.031-115.031 115.032 51.603 115.032 115.031-51.603 115.032-115.032 115.032zm0-208.063c-51.298 0-93.031 41.733-93.031 93.031s41.733 93.032 93.031 93.032 93.032-41.734 93.032-93.032-41.734-93.031-93.032-93.031z"/></g></g><g/><g/><g/><g/><g/><g/><g/><g/><g/><g/><g/><g/><g/><g/><g/></svg>