<svg id="Capa_1" enable-background="new 0 0 512 512" viewBox="0 0 512 512" xmlns="http://www.w3.org/2000/svg" fill="#E6ECF2"><g><g fill="#0496FF"><path d="m263.778 23.306c-4.297-4.295-11.26-4.295-15.557 0l-32.53 32.53c-4.296 4.296-4.296 11.261 0 15.557 4.297 4.295 11.26 4.295 15.557 0l13.752-13.752v89.418h22v-89.418l13.752 13.752c2.148 2.147 4.963 3.222 7.778 3.222s5.63-1.074 7.778-3.222c4.296-4.296 4.296-11.261 0-15.557z"/><path d="m511.625 449.078-11.907-44.438c-1.572-5.869-7.606-9.357-13.472-7.778-5.868 1.572-9.351 7.604-7.778 13.472l5.034 18.787-71.36-41.196-11 19.053 71.359 41.195-18.784 5.033c-5.868 1.572-9.351 7.604-7.778 13.472 1.316 4.915 5.761 8.156 10.618 8.156.942 0 1.9-.122 2.854-.378l44.437-11.906c2.818-.755 5.221-2.599 6.68-5.125s1.852-5.53 1.097-8.347z"/><path d="m99.858 387.924-71.36 41.196 5.034-18.787c1.572-5.868-1.91-11.899-7.778-13.472-5.865-1.576-11.899 1.909-13.472 7.778l-11.907 44.439c-.755 2.817-.36 5.82 1.099 8.347s3.861 4.37 6.68 5.125l44.437 11.906c.953.256 1.911.378 2.854.378 4.856 0 9.302-3.241 10.618-8.156 1.572-5.868-1.91-11.899-7.778-13.472l-18.784-5.033 71.359-41.195z"/></g><path d="m411.973 220.901-150.642-83.464c-3.316-1.838-7.346-1.838-10.662 0l-150.642 83.464c-3.498 1.938-5.669 5.623-5.669 9.622v166.928c0 3.999 2.171 7.684 5.669 9.622l150.642 83.464c1.658.919 3.495 1.378 5.331 1.378s3.673-.459 5.331-1.378l150.642-83.464c3.498-1.938 5.669-5.623 5.669-9.622v-166.928c0-3.999-2.171-7.684-5.669-9.622zm-166.973 241.344-128.642-71.275v-141.777l128.642 71.275zm11-160.833-127.944-70.889 127.944-70.889 127.945 70.888zm139.642 89.558-128.642 71.275v-141.777l128.642-71.274z"/></g><g/><g/><g/><g/><g/><g/><g/><g/><g/><g/><g/><g/><g/><g/><g/></svg>