<svg id="Capa_1" enable-background="new 0 0 512 512" viewBox="0 0 512 512" xmlns="http://www.w3.org/2000/svg" fill="#E6ECF2"><g><g><path d="m386.699 54.498c-34.329-34.652-80.081-54.003-128.83-54.489-49.079-.477-95.557 18.368-130.812 53.098-35.237 34.713-54.779 80.852-55.026 129.918-.252 50.132 19.307 97.084 55.074 132.208 18.19 17.863 28.624 43.239 28.624 69.622v84.145c0 23.71 19.29 43 43 43h114.542c23.71 0 43-19.29 43-43v-84.675c0-25.997 10.488-51.242 28.775-69.241 35.419-34.861 54.925-81.425 54.925-131.114 0-48.815-18.919-94.795-53.272-129.472zm-17.086 244.906c-22.46 22.107-35.342 53.055-35.342 84.908v84.688c0 11.58-9.42 21-21 21h-114.542c-11.58 0-21-9.42-21-21 0 0-.001-84.813-.002-84.887-.195-31.983-13.003-62.773-35.207-84.577-31.49-30.923-48.71-72.261-48.488-116.4.217-43.169 17.429-83.781 48.465-114.356 30.662-30.206 70.916-46.78 113.515-46.78.545 0 1.093.003 1.638.008 42.916.428 83.196 17.465 113.42 47.974 30.245 30.529 46.901 71.011 46.901 113.988 0 43.746-17.174 84.742-48.358 115.434z"/><path d="m245 287.612h22v95.726h-22z"/></g><g><g><g><path d="m256 234.756c-23.951 0-43.436-19.485-43.436-43.436s19.485-43.436 43.436-43.436 43.436 19.485 43.436 43.436-19.485 43.436-43.436 43.436zm0-64.872c-11.82 0-21.436 9.616-21.436 21.436s9.616 21.436 21.436 21.436 21.436-9.616 21.436-21.436-9.616-21.436-21.436-21.436z" fill="#0496FF"/></g></g><g><path d="m277.094 295.112h-42.188c-5.187 0-9.669-3.624-10.756-8.696l-2.174-10.146c-8.116-3.241-15.656-7.596-22.526-13.012l-9.857 3.186c-4.933 1.595-10.309-.472-12.904-4.96l-21.124-36.523c-2.599-4.493-1.703-10.191 2.148-13.67l7.721-6.974c-.619-4.315-.931-8.665-.931-12.996 0-4.332.312-8.681.931-12.996l-7.721-6.974c-3.852-3.479-4.747-9.177-2.148-13.67l21.124-36.524c2.594-4.488 7.971-6.557 12.905-4.959l9.857 3.186c6.87-5.416 14.41-9.772 22.526-13.012l2.174-10.146c1.086-5.072 5.569-8.696 10.756-8.696h42.188c5.187 0 9.669 3.624 10.756 8.696l2.174 10.146c8.116 3.24 15.656 7.596 22.526 13.012l9.857-3.186c4.933-1.593 10.309.472 12.905 4.959l21.124 36.524c2.599 4.493 1.703 10.191-2.148 13.67l-7.721 6.974c.619 4.315.931 8.665.931 12.996s-.312 8.681-.931 12.996l7.721 6.974c3.852 3.479 4.747 9.177 2.148 13.67l-21.124 36.523c-2.595 4.487-7.974 6.554-12.904 4.96l-9.857-3.186c-6.87 5.417-14.41 9.771-22.526 13.012l-2.174 10.146c-1.088 5.072-5.571 8.696-10.758 8.696zm-33.295-22h24.402l1.591-7.424c.826-3.854 3.65-6.972 7.404-8.173 9.522-3.046 18.11-8.007 25.524-14.744 2.917-2.651 7.03-3.539 10.78-2.326l7.217 2.333 12.219-21.127-5.643-5.097c-2.921-2.639-4.209-6.638-3.378-10.486 1.05-4.862 1.583-9.824 1.583-14.748s-.533-9.885-1.583-14.748c-.831-3.848.457-7.847 3.378-10.486l5.643-5.097-12.219-21.127-7.216 2.332c-3.75 1.213-7.863.326-10.78-2.326-7.414-6.737-16.002-11.698-25.524-14.744-3.754-1.201-6.578-4.319-7.404-8.173l-1.591-7.425h-24.402l-1.591 7.425c-.826 3.854-3.65 6.972-7.404 8.173-9.522 3.046-18.11 8.007-25.524 14.744-2.917 2.65-7.029 3.537-10.78 2.326l-7.216-2.332-12.219 21.127 5.643 5.097c2.921 2.639 4.21 6.638 3.378 10.486-1.05 4.862-1.583 9.824-1.583 14.748 0 4.923.533 9.885 1.583 14.748.831 3.848-.457 7.847-3.378 10.486l-5.643 5.097 12.219 21.127 7.217-2.333c3.751-1.209 7.863-.324 10.78 2.326 7.414 6.737 16.002 11.698 25.524 14.744 3.754 1.201 6.578 4.319 7.404 8.173z" fill="#0496FF"/></g><g><path d="m364.058 453.669h-216.116c-6.075 0-11-4.925-11-11s4.925-11 11-11h216.116c6.075 0 11 4.925 11 11s-4.925 11-11 11z" fill="#0496FF"/></g><g><path d="m364.058 395.337h-216.116c-6.075 0-11-4.925-11-11s4.925-11 11-11h216.116c6.075 0 11 4.925 11 11s-4.925 11-11 11z" fill="#0496FF"/></g></g></g><g/><g/><g/><g/><g/><g/><g/><g/><g/><g/><g/><g/><g/><g/><g/></svg>