<svg id="Capa_1" enable-background="new 0 0 512 512" viewBox="0 0 512 512" xmlns="http://www.w3.org/2000/svg" fill="#052438"><g><g fill="#0496FF"><path d="m287.932 160.123c2.676-5.042 4.199-10.785 4.199-16.879 0-19.922-16.208-36.13-36.131-36.13s-36.131 16.208-36.131 36.13c0 6.094 1.522 11.837 4.198 16.878-13.157 8.094-23.08 21.044-27.184 36.215l21.236 5.746c3.172-11.723 11.772-21.361 22.884-25.98 4.572 2.095 9.648 3.272 14.997 3.272s10.425-1.178 14.997-3.272c11.086 4.61 19.679 14.222 22.865 25.91l21.227-5.785c-4.123-15.122-14.034-28.031-27.157-36.105zm-31.932-2.749c-7.792 0-14.131-6.339-14.131-14.131 0-7.791 6.339-14.13 14.131-14.13s14.131 6.339 14.131 14.13c0 7.792-6.339 14.131-14.131 14.131z"/><path d="m163.656 375.376c2.678-5.043 4.202-10.789 4.202-16.887 0-19.922-16.208-36.13-36.131-36.13-19.922 0-36.13 16.208-36.13 36.13 0 6.097 1.524 11.842 4.201 16.885-12.981 7.998-22.845 20.743-27.031 35.636l21.18 5.951c3.241-11.535 11.807-21.044 22.784-25.614 4.571 2.095 9.647 3.272 14.996 3.272s10.424-1.177 14.995-3.271c10.947 4.558 19.504 14.037 22.762 25.533l21.166-5.998c-4.203-14.834-14.052-27.53-26.994-35.507zm-31.928-2.756c-7.791 0-14.13-6.339-14.13-14.131 0-7.791 6.339-14.13 14.13-14.13 7.792 0 14.131 6.339 14.131 14.13-.001 7.792-6.339 14.131-14.131 14.131z"/><path d="m412.203 375.37c2.676-5.042 4.199-10.786 4.199-16.88 0-19.922-16.208-36.13-36.13-36.13-19.923 0-36.131 16.208-36.131 36.13 0 6.095 1.523 11.838 4.199 16.88-13.106 8.068-23.014 20.964-27.141 36.048l21.221 5.807c3.191-11.665 11.785-21.271 22.857-25.875 4.571 2.095 9.647 3.272 14.996 3.272s10.425-1.177 14.996-3.272c11.069 4.603 19.654 14.192 22.851 25.861l21.219-5.814c-4.135-15.091-14.037-27.967-27.136-36.027zm-31.931-2.75c-7.792 0-14.131-6.339-14.131-14.131 0-7.791 6.339-14.13 14.131-14.13 7.791 0 14.13 6.339 14.13 14.13 0 7.792-6.339 14.131-14.13 14.131z"/></g><path d="m472.993 415.145c-6.76 0-13.123 1.731-18.672 4.771l-8.161-8.161c10.721-13.983 17.113-31.453 17.113-50.395 0-18.968-6.41-36.458-17.157-50.451l8.212-8.212c5.549 3.039 11.912 4.771 18.673 4.771 21.505 0 39-17.495 39-39s-17.495-39-39-39-39 17.495-39 39c0 6.761 1.731 13.124 4.771 18.673l-8.232 8.231c-13.962-10.661-31.383-17.012-50.266-17.012-11.185 0-21.854 2.237-31.601 6.266l-42.039-72.812c16.919-13.07 28.662-32.509 31.615-54.7h22.74c4.761 16.164 19.725 28 37.41 28 21.505 0 39-17.495 39-39s-17.495-39-39-39c-17.685 0-32.649 11.836-37.41 28h-22.74c-5.401-40.583-40.213-72-82.249-72-18.191 0-35.021 5.897-48.714 15.859l-16.044-16.043c3.039-5.549 4.77-11.912 4.77-18.672 0-21.505-17.495-39-39-39s-39 17.495-39 39 17.495 39 39 39c6.761 0 13.124-1.731 18.673-4.771l15.662 15.662c-11.464 14.234-18.347 32.306-18.347 51.964 0 26.716 12.701 50.508 32.367 65.7l-42.039 72.812c-9.747-4.029-20.415-6.266-31.6-6.266-45.767 0-83 37.233-83 83 0 18.94 6.39 36.408 17.11 50.391l-8.165 8.165c-5.549-3.039-11.912-4.771-18.672-4.771-21.505 0-39 17.495-39 39s17.495 39 39 39 39-17.495 39-39c0-6.761-1.731-13.124-4.771-18.673l8.172-8.171c13.972 10.689 31.416 17.06 50.327 17.06 18.916 0 36.364-6.374 50.338-17.068l21.779 21.779c-3.039 5.549-4.771 11.912-4.771 18.673 0 21.505 17.495 39 39 39s39-17.495 39-39-17.495-39-39-39c-6.761 0-13.124 1.731-18.673 4.771l-21.775-21.775c8.603-11.226 14.396-24.701 16.35-39.379h84.047c5.401 40.583 40.213 72 82.249 72 18.909 0 36.351-6.369 50.323-17.056l8.169 8.168c-3.039 5.549-4.771 11.913-4.771 18.673 0 21.505 17.495 39 39 39s39-17.495 39-39-17.496-39.001-39.001-39.001zm.007-163.678c9.374 0 17 7.626 17 17s-7.626 17-17 17-17-7.626-17-17 7.626-17 17-17zm-74.601-122.354c9.374 0 17 7.626 17 17s-7.626 17-17 17-17-7.626-17-17 7.626-17 17-17zm-258.386-84.856c0-9.374 7.626-17 17-17s17 7.626 17 17-7.626 17-17 17-17-7.626-17-17zm54.987 101.856c0-33.636 27.364-61 61-61s61 27.364 61 61-27.364 61-61 61-61-27.364-61-61zm29.399 76.735c9.747 4.028 20.416 6.266 31.601 6.266s21.854-2.237 31.601-6.266l42.039 72.812c-16.92 13.07-28.662 32.509-31.615 54.7h-84.047c-2.953-22.19-14.696-41.63-31.616-54.7zm-185.399 248.297c-9.374 0-17-7.626-17-17s7.626-17 17-17 17 7.626 17 17-7.626 17-17 17zm31.728-109.786c0-33.636 27.364-61 61-61s61 27.364 61 61-27.364 61-61 61-61-27.364-61-61zm184.346 106.384c0 9.374-7.626 17-17 17s-17-7.626-17-17 7.626-17 17-17 17 7.626 17 17zm64.198-106.384c0-33.636 27.364-61 61-61 16.645 0 31.748 6.708 42.765 17.554.083.089.158.184.245.271.105.104.218.195.326.294 10.912 11.027 17.665 26.178 17.665 42.88 0 33.636-27.364 61-61 61s-61.001-27.363-61.001-60.999zm153.721 109.786c-9.374 0-17-7.626-17-17s7.626-17 17-17 17 7.626 17 17-7.626 17-17 17z"/></g><g/><g/><g/><g/><g/><g/><g/><g/><g/><g/><g/><g/><g/><g/><g/></svg>