<svg id="Capa_1" enable-background="new 0 0 512 512" viewBox="0 0 512 512" xmlns="http://www.w3.org/2000/svg" fill="#052438"><g><g><path d="m126.521 244.874h109.651v22h-109.651z" fill="#0496FF" transform="matrix(.5 -.866 .866 .5 -130.92 284.989)"/></g><g><path d="m319.633 201.044h22v109.59h-22z" fill="#0496FF" transform="matrix(.866 -.5 .5 .866 -83.623 199.592)"/></g><g><path d="m204 373.646h104v22h-104z" fill="#0496FF"/></g><g><path d="m208.331 321.835-96-53.19c-3.316-1.837-7.346-1.837-10.662 0l-96 53.19c-3.498 1.938-5.669 5.622-5.669 9.622v106.378c0 4 2.171 7.684 5.669 9.622l96 53.189c1.658.918 3.495 1.378 5.331 1.378s3.673-.459 5.331-1.378l96-53.189c3.498-1.938 5.669-5.623 5.669-9.622v-106.378c0-4-2.171-7.684-5.669-9.622zm-101.331-30.992 73.303 40.614-73.303 40.613-73.302-40.614zm-85 59.284 74 41v81.227l-74-41zm96 122.227v-81.227l74-41v81.227z"/><path d="m363 180.543v-106.379c0-4-2.171-7.684-5.669-9.622l-96-53.189c-3.316-1.837-7.346-1.837-10.662 0l-96 53.189c-3.498 1.938-5.669 5.623-5.669 9.622v106.378c0 4 2.171 7.684 5.669 9.622l96 53.19c1.658.918 3.495 1.378 5.331 1.378s3.673-.459 5.331-1.378l96-53.19c3.498-1.938 5.669-5.622 5.669-9.621zm-107-146.992 73.302 40.613-73.302 40.614-73.302-40.614zm-85 59.284 74 41v81.227l-74-41zm96 122.227v-81.227l74-41v81.227z"/><path d="m506.331 321.835-96-53.19c-3.316-1.837-7.346-1.837-10.662 0l-96 53.19c-3.498 1.938-5.669 5.622-5.669 9.622v106.378c0 4 2.171 7.684 5.669 9.622l96 53.189c1.658.918 3.495 1.378 5.331 1.378s3.673-.459 5.331-1.378l96-53.189c3.498-1.938 5.669-5.623 5.669-9.622v-106.378c0-4-2.171-7.684-5.669-9.622zm-101.331-30.992 73.302 40.614-73.302 40.613-73.302-40.613zm-85 59.284 74 41v81.227l-74-41zm96 122.227v-81.227l74-41v81.227z"/></g></g><g/><g/><g/><g/><g/><g/><g/><g/><g/><g/><g/><g/><g/><g/><g/></svg>