<svg id="Capa_1" enable-background="new 0 0 512 512" viewBox="0 0 512 512" xmlns="http://www.w3.org/2000/svg" fill="#E6ECF2"><g><g><g><path d="m458.482 403.906c-1.872 0-3.765-.478-5.492-1.475l-38.236-22.075c-2.678-1.546-4.582-4.148-5.244-7.169-.663-3.021-.023-6.181 1.761-8.706 22.72-32.148 34.729-70.019 34.729-109.521 0-45.457-16.306-89.44-45.913-123.848-29.301-34.05-69.724-56.687-113.825-63.743-5.336-.854-9.262-5.458-9.262-10.862v-44.467c0-3.165 1.363-6.178 3.742-8.266s5.548-3.054 8.681-2.642c61.108 7.973 117.357 37.906 158.387 84.286 41.393 46.793 64.19 107.004 64.19 169.542 0 51.724-15.361 101.568-44.425 144.146-2.119 3.104-5.567 4.8-9.093 4.8zm-22.58-36.744 19.062 11.005c22.953-36.963 35.036-79.343 35.036-123.207 0-57.164-20.836-112.198-58.669-154.965-34.708-39.235-81.321-65.594-132.331-75.083v22.429c45.605 9.416 87.137 33.832 117.763 69.422 33.041 38.397 51.237 87.476 51.237 138.197 0 40.036-11.062 78.581-32.098 112.202z" fill="#0496FF"/></g><g><path d="m256 510.96c-60.758 0-119.67-21.675-165.884-61.031-2.722-2.318-4.147-5.813-3.823-9.374.325-3.56 2.359-6.74 5.455-8.527l41.018-23.682c3.757-2.168 8.437-1.928 11.951.616 32.53 23.55 71.011 35.998 111.284 35.998s78.754-12.448 111.284-35.998c3.514-2.544 8.192-2.785 11.95-.616l41.019 23.682c3.096 1.787 5.13 4.968 5.454 8.527.325 3.561-1.101 7.056-3.822 9.374-46.215 39.356-105.127 61.031-165.886 61.031zm-139.261-67.958c40.139 29.74 89.007 45.958 139.261 45.958 50.255 0 99.123-16.219 139.261-45.958l-20.965-12.104c-35.024 23.618-75.766 36.062-118.296 36.062s-83.272-12.444-118.296-36.062z" fill="#0496FF"/></g><g><path d="m53.518 403.906c-3.526 0-6.974-1.694-9.094-4.8-29.062-42.578-44.424-92.423-44.424-144.146 0-62.538 22.796-122.749 64.19-169.542 41.029-46.38 97.279-76.313 158.387-84.285 3.136-.412 6.302.552 8.681 2.642 2.378 2.088 3.742 5.1 3.742 8.265v44.467c0 5.404-3.926 10.008-9.262 10.862-44.101 7.056-84.524 29.693-113.824 63.743-29.608 34.408-45.914 78.391-45.914 123.848 0 39.501 12.009 77.372 34.729 109.521 1.785 2.525 2.424 5.686 1.762 8.706-.663 3.021-2.566 5.623-5.245 7.169l-38.236 22.075c-1.728.997-3.621 1.475-5.492 1.475zm159.482-378.994c-51.009 9.488-97.624 35.848-132.332 75.083-37.833 42.767-58.668 97.801-58.668 154.965 0 43.862 12.083 86.243 35.035 123.207l19.062-11.005c-21.037-33.624-32.097-72.164-32.097-112.202 0-50.721 18.197-99.801 51.238-138.197 30.625-35.59 72.156-60.006 117.762-69.422z" fill="#0496FF"/></g></g><g><path d="m397.688 184.745c-3.298-1.991-7.398-2.112-10.806-.32l-49.882 26.224v-16.487c0-3.853-2.016-7.424-5.312-9.416-3.299-1.991-7.399-2.112-10.806-.32l-41.883 22.019v-82.901c0-6.075-4.925-11-11-11h-52c-6.075 0-11 4.925-11 11v46.795h-41c-6.075 0-11 4.925-11 11v45.875h-33c-6.075 0-11 4.925-11 11v89.33c0 6.075 4.925 11 11 11h272c6.075 0 11-4.925 11-11v-133.383c.001-3.852-2.015-7.423-5.311-9.416zm-236.688 131.797h-30v-67.33h30zm44 0h-22v-78.33c0-5.034-3.385-9.268-8-10.575v-35.3h30zm51.999-98.533-2.118 1.113c-3.617 1.901-5.881 5.65-5.881 9.736v87.684h-22v-182h30v83.467zm124.001 98.533h-110v-81.039l44-23.132v16.487c0 3.853 2.016 7.424 5.312 9.416 3.298 1.991 7.398 2.112 10.806.32l49.882-26.223z"/><path d="m348 294.542c6.075 0 11-4.925 11-11v-10.867c0-6.075-4.925-11-11-11s-11 4.925-11 11v10.867c0 6.076 4.925 11 11 11z"/><path d="m304 261.675c-6.075 0-11 4.925-11 11v10.867c0 6.075 4.925 11 11 11s11-4.925 11-11v-10.867c0-6.075-4.925-11-11-11z"/></g></g><g/><g/><g/><g/><g/><g/><g/><g/><g/><g/><g/><g/><g/><g/><g/></svg>