<svg id="Capa_1" enable-background="new 0 0 512.001 512.001" height="512" viewBox="0 0 512.001 512.001" width="512" xmlns="http://www.w3.org/2000/svg" fill="#052438"><g><g><path d="m215.09 214.839c-6.075 0-11-4.925-11-11 0-19.213-15.631-34.844-34.844-34.844s-34.844 15.631-34.844 34.844c0 6.075-4.925 11-11 11s-11-4.925-11-11c3.125-75.417 110.579-75.384 113.688 0 0 6.076-4.925 11-11 11z" fill="#0496FF"/></g><g><path d="m346.539 243.402c-34.454 0-62.484-28.03-62.484-62.484 3.432-82.894 121.549-82.87 124.969 0-.001 34.454-28.031 62.484-62.485 62.484zm0-102.969c-22.323 0-40.484 18.161-40.484 40.484 2.224 53.708 78.753 53.692 80.969 0-.001-22.323-18.162-40.484-40.485-40.484z"/></g><g><path d="m256.01 511.722c-31.531 0-57.184-25.652-57.184-57.184v-81.73c0-10.556 8.589-19.145 19.146-19.145h76.077c10.557 0 19.145 8.588 19.145 19.145v81.73c-.001 31.531-25.653 57.184-57.184 57.184zm-35.184-136.058v78.875c0 19.4 15.783 35.184 35.184 35.184s35.184-15.783 35.184-35.184v-78.875z" fill="#0496FF"/></g><g><path d="m346.54 191.92c-11.993-.18-15.231-16.422-4.211-21.16 11.149-4.444 20.334 9.323 11.99 17.94-2.034 2.021-4.911 3.23-7.779 3.22z"/></g><path d="m402.608 299.844c0-6.075-4.925-11-11-11h-271.197c-6.075 0-11 4.925-11 11-.56 52.623 40.108 98.598 89.415 117.229v-23.9c-36.979-16.758-62.231-47.822-66.703-82.328h247.727c-4.642 33.771-30.249 65.267-66.657 82.27v23.776c49.02-17.867 89.904-65.444 89.415-117.047z"/><path d="m437.021 74.735c-95.289-99.321-266.747-99.305-362.037-.003-160.521 160.825-46.219 436.792 181.017 437.02 227.224-.215 341.539-276.177 181.02-437.017zm-131.806 408.89c-9.971 16.803-28.29 28.097-49.205 28.097-20.914 0-39.231-11.292-49.203-28.092-95.347-19.245-179.311-95.188-184.805-227.879 0-129.028 104.972-234 234-234s234 104.972 234 233.998c-5.474 132.661-89.437 208.618-184.787 227.876z"/></g></svg>