<svg id="Capa_1" enable-background="new 0 0 512.001 512.001" height="512" viewBox="0 0 512.001 512.001" width="512" xmlns="http://www.w3.org/2000/svg" fill="#052438"><g><g><path d="m256.002 511.751c-227.237-.227-341.539-276.195-181.018-437.019 95.289-99.302 266.748-99.318 362.037.004 160.519 160.839 46.204 436.801-181.019 437.015zm0-490c-129.028 0-234 104.972-234 234 12.854 310.433 455.194 310.343 468-.002 0-129.025-104.972-233.998-234-233.998z"/></g><g><path d="m163.53 247.791c-26.604 0-48.249-21.645-48.249-48.249 2.65-64.008 93.857-63.99 96.497 0 0 26.604-21.643 48.249-48.248 48.249zm0-74.498c-14.474 0-26.249 11.775-26.249 26.249 1.442 34.822 51.061 34.813 52.497 0 0-14.474-11.774-26.249-26.248-26.249z"/></g><g><path d="m346.857 247.791c-26.604 0-48.249-21.645-48.249-48.249 2.65-64.008 93.857-63.99 96.497 0 0 26.604-21.643 48.249-48.248 48.249zm0-74.498c-14.474 0-26.249 11.775-26.249 26.249 1.442 34.822 51.061 34.813 52.497 0 0-14.474-11.774-26.249-26.248-26.249z"/></g><g><path d="m301.344 378.442c-3.909 0-7.694-2.088-9.685-5.768-7.287-13.469-20.967-21.836-35.701-21.836-14.666 0-28.314 8.309-35.619 21.684-2.912 5.332-9.597 7.294-14.927 4.381-5.332-2.912-7.294-9.595-4.382-14.926 11.164-20.441 32.211-33.139 54.928-33.139 22.821 0 43.916 12.786 55.051 33.367 4.031 7.126-1.533 16.389-9.665 16.237z"/></g><g><path d="m125.339 383.277c-22.862 0-41.665-18.384-42.083-41.335-.164-8.957 2.637-15.067 5.688-20.336l26.747-46.193c1.957-3.38 5.561-5.469 9.467-5.488 3.942-.042 7.528 2.036 9.519 5.397l26.924 45.488c3.915 6.614 5.718 12.658 5.845 19.598.452 23.482-18.624 42.897-42.107 42.869zm-.025-80.58-17.332 29.933c-2.149 3.712-2.787 5.793-2.73 8.911.201 11.083 9.401 19.908 20.464 19.733 11.082-.202 19.934-9.382 19.732-20.464-.058-3.121-.785-5.422-2.78-8.793z" fill="#0496FF"/></g></g></svg>