<svg id="Capa_1" enable-background="new 0 0 512.001 512.001" height="512" viewBox="0 0 512.001 512.001" width="512" xmlns="http://www.w3.org/2000/svg" fill="#052438"><g><g><path d="m116.083 348.686c-24.393 0-44.238-19.845-44.238-44.238 2.43-58.688 86.055-58.671 88.476 0 0 24.393-19.845 44.238-44.238 44.238zm0-66.477c-12.262 0-22.238 9.976-22.238 22.238 1.221 29.502 43.259 29.494 44.476 0 0-12.262-9.976-22.238-22.238-22.238z" fill="#0496FF"/></g><g><g><path d="m256.002 511.751c-227.237-.228-341.539-276.196-181.017-437.02 95.288-99.301 266.748-99.317 362.036.004 160.519 160.839 46.205 436.801-181.019 437.016zm0-490c-129.028 0-234 104.972-234 234 12.854 310.433 455.194 310.343 468-.002 0-129.026-104.972-233.998-234-233.998z"/></g><g><path d="m163.529 234.554c-26.604 0-48.249-21.645-48.249-48.249 2.65-64.009 93.857-63.99 96.498 0 0 26.605-21.645 48.249-48.249 48.249zm0-74.498c-14.474 0-26.249 11.775-26.249 26.249 1.442 34.823 51.061 34.813 52.498 0 0-14.473-11.776-26.249-26.249-26.249z"/></g><g><path d="m346.856 234.554c-26.604 0-48.249-21.645-48.249-48.249 2.65-64.009 93.857-63.991 96.498 0-.001 26.605-21.645 48.249-48.249 48.249zm0-74.498c-14.474 0-26.249 11.775-26.249 26.249 1.442 34.823 51.061 34.813 52.498 0-.001-14.473-11.776-26.249-26.249-26.249z"/></g></g><g><path d="m348.144 413.968c-3.211.001-6.394-1.398-8.567-4.092-16.686-20.675-48.747-33.519-83.673-33.519-34.768 0-66.761 12.759-83.495 33.299-3.837 4.709-10.767 5.417-15.476 1.58-4.71-3.838-5.417-10.767-1.58-15.477 20.806-25.538 59.335-41.402 100.55-41.402 41.413 0 80.035 15.979 100.793 41.702 5.817 7.081.541 18.011-8.552 17.909z"/></g><path d="m405.485 255.134c-10.914-.72-21.475 2.844-29.714 10.055l-102.883 90.081c9.409 1.003 18.554 2.822 27.242 5.389 15.308-13.403 38.407-33.629 57.39-50.249l25.072 28.646c-16.523 14.534-35.099 30.876-44.847 39.451 6.227 4.404 11.794 9.337 16.559 14.733 21.629-19.027 75.452-66.373 75.452-66.373 27.357-23.992 12.018-69.278-24.271-71.733zm9.762 55.198s-6.615 5.819-16.135 14.194c-7.099-8.111-17.903-20.455-25.039-28.608 9.735-8.523 16.189-14.174 16.189-14.174 7.534-6.89 20.225-6.031 26.788 1.783 6.886 7.554 6.036 20.224-1.803 26.805z" fill="#0496FF"/></g></svg>