<svg id="Capa_1" enable-background="new 0 0 512.002 512.002" height="512" viewBox="0 0 512.002 512.002" width="512" xmlns="http://www.w3.org/2000/svg" fill="#E6ECF2"><g><g><g><path d="m256.002 511.752c-227.236-.228-341.539-276.198-181.017-437.021 95.288-99.301 266.749-99.317 362.036.004 160.52 160.838 46.204 436.802-181.019 437.017zm0-490c-129.028 0-234 104.972-234 234 12.854 310.433 455.193 310.343 468-.002 0-129.026-104.972-233.998-234-233.998z"/></g><g><path d="m163.528 247.79c-26.604 0-48.249-21.645-48.249-48.249 2.65-64.009 93.857-63.989 96.498 0 0 26.604-21.644 48.249-48.249 48.249zm0-74.498c-14.474 0-26.249 11.775-26.249 26.249 1.442 34.823 51.061 34.813 52.498 0 0-14.474-11.775-26.249-26.249-26.249z"/></g><g><path d="m256.202 413.452c-62.986 0-119.503-38.857-143.984-98.994-2.291-5.626.414-12.045 6.041-14.335 5.627-2.291 12.045.414 14.335 6.041 21.092 51.811 69.612 85.289 123.608 85.289s102.516-33.478 123.608-85.289c2.291-5.627 8.711-8.333 14.335-6.041 5.627 2.291 8.331 8.709 6.041 14.335-24.481 60.136-80.998 98.994-143.984 98.994z" fill="#0496FF"/></g></g><g><path d="m367.502 249.809c-1.866 0-3.757-.476-5.49-1.476l-66.735-38.529c-3.403-1.965-5.5-5.597-5.5-9.526s2.097-7.562 5.5-9.526l66.735-38.529c5.26-3.038 11.988-1.235 15.026 4.026s1.235 11.989-4.026 15.026l-50.235 29.003 50.235 29.003c9.733 5.747 5.621 20.476-5.51 20.528z" fill="#0496FF"/></g></g></svg>