<svg id="Capa_1" enable-background="new 0 0 512.001 512.001" height="512" viewBox="0 0 512.001 512.001" width="512" xmlns="http://www.w3.org/2000/svg" fill="#E6ECF2"><g><g><path d="m256.002 511.751c-227.237-.228-341.539-276.196-181.018-437.02 95.289-99.301 266.748-99.317 362.037.004 160.519 160.839 46.204 436.802-181.019 437.016zm0-490c-129.028 0-234 104.972-234 234 12.854 310.433 455.194 310.343 468-.002 0-129.025-104.972-233.998-234-233.998z"/></g><g><path d="m328.305 391.224h-140.535c-14.526-.55-14.65-21.395 0-22h140.535c22.951 0 41.624-18.672 41.624-41.624-.442-6.373 4.565-11.932 11-11.902 6.435-.027 11.44 5.527 11 11.902 0 35.083-28.542 63.624-63.624 63.624z" fill="#0496FF"/></g><path d="m190.212 173.843h-90.876c-14.61.587-14.567 21.432 0 22h50.265c-4.393 7.042-7.204 15.784-7.637 26.249 0 26.604 21.644 48.249 48.248 48.249s48.249-21.644 48.249-48.248c-.547-30.267-24.973-48.25-48.249-48.25zm-26.248 48.248c0-14.474 11.774-26.249 26.248-26.249s26.249 11.775 26.249 26.249c-1.437 34.812-51.056 34.823-52.497 0z"/><path d="m373.539 173.843h-90.876c-14.61.587-14.567 21.432 0 22h50.265c-4.393 7.042-7.204 15.784-7.637 26.249 0 26.604 21.644 48.249 48.248 48.249s48.249-21.644 48.249-48.248c-.547-30.267-24.973-48.25-48.249-48.25zm-26.248 48.248c0-14.474 11.774-26.249 26.248-26.249s26.249 11.775 26.249 26.249c-1.437 34.812-51.056 34.823-52.497 0z"/></g></svg>