<svg id="Capa_1" enable-background="new 0 0 512.047 512.047" height="512" viewBox="0 0 512.047 512.047" width="512" xmlns="http://www.w3.org/2000/svg" fill="#E6ECF2"><g><g><path d="m395.468 208.229c-4.777 0-9.176-3.137-10.564-7.956-4.945-17.156-18.802-30.346-36.162-34.422-16.268-3.818-33.221.788-45.345 12.329-4.4 4.188-11.363 4.017-15.552-.384s-4.017-11.363.384-15.552c17.521-16.676 42.02-23.333 65.542-17.812 25.097 5.894 45.126 24.955 52.271 49.746 2.106 6.892-3.399 14.151-10.574 14.051z" fill="#0496FF"/></g><g><path d="m114.638 203.656c-7.541.131-13.169-7.992-10.239-15.015 9.105-23.248 30.043-40.257 54.642-44.389 24.092-4.046 48.279 4.353 64.708 22.464 4.082 4.5 3.742 11.457-.757 15.538-4.5 4.08-11.456 3.743-15.538-.757-11.37-12.536-28.108-18.35-44.769-15.55-17.274 2.902-31.405 14.385-37.803 30.717-1.699 4.339-5.85 6.992-10.244 6.992z" fill="#0496FF"/></g><g><path d="m347.644 512.047c-23.841 0-43.237-19.396-43.237-43.237.018-10.233-8.525-18.489-18.741-18.187-22.466 0-40.742-18.276-40.742-40.741v-36.452c0-6.075 4.925-11 11-11s11 4.925 11 11v36.452c-.018 10.538 8.772 19.043 19.296 18.741 22.159 0 40.188 18.028 40.188 40.188 0 11.71 9.527 21.237 21.237 21.237s21.237-9.527 21.237-21.237v-105.797c0-6.075 4.925-11 11-11s11 4.925 11 11v105.796c0 23.841-19.397 43.237-43.238 43.237z" fill="#0496FF"/></g><g><path d="m197.073 418.916c-6.075 0-11-4.925-11-11v-34.487c0-6.075 4.925-11 11-11s11 4.925 11 11v34.487c0 6.075-4.925 11-11 11z" fill="#0496FF"/></g><path d="m255.926.049c-137.378-2.849-258.398 118.204-255.567 255.564-2.848 137.374 118.2 258.404 255.564 255.569 22.727 0 44.084-2.741 65.089-8.348-6.254-4.906-11.134-11.488-13.938-19.073-141.504 33.37-287.088-80.163-284.717-228.145 12.799-309.811 454.327-309.817 467.134-.002 0 77.26-36.521 147.197-98.609 190.733v22.462c0 1.343-.07 2.669-.19 3.98 35.477-21.929 65.204-52.345 86.19-88.326 98.933-168.978-24.643-385.245-220.956-384.414z"/><path d="m255.924 362.429h-58.851c6.075 0 11 4.925 11 11v11h36.851v-11c0-6.075 4.924-11 11-11z"/><path d="m255.924 362.429c6.075 0 11 4.925 11 11v11h84.688c6.027 0 11.828-.974 17.27-2.752v-18.663c0-2.687.966-5.146 2.566-7.056-5.572 4.065-12.426 6.471-19.835 6.471z"/><path d="m396.348 295.73h-280.833c-6.075 0-11 4.925-11 11v21.962c0 30.733 25.004 55.737 55.737 55.737h25.82v-11c0-6.075 4.925-11 11-11h-36.82c-18.603 0-33.737-15.135-33.737-33.737v-10.962h258.833v10.962c0 9.743-4.156 18.53-10.783 24.695 1.576-.872 3.387-1.372 5.317-1.372 6.075 0 11 4.925 11 11v5.189c10.163-10.102 16.467-24.084 16.467-39.512v-21.962c-.001-6.075-4.925-11-11.001-11z"/></g></svg>