<svg id="Capa_1" enable-background="new 0 0 512.001 512.001" height="512" viewBox="0 0 512.001 512.001" width="512" xmlns="http://www.w3.org/2000/svg" fill="#052438"><g><g><path d="m256.002 511.751c-227.237-.227-341.539-276.195-181.018-437.019 95.289-99.302 266.748-99.318 362.037.004 160.519 160.839 46.204 436.801-181.019 437.015zm0-490c-129.028 0-234 104.972-234 234 12.854 310.433 455.194 310.343 468-.002 0-129.025-104.972-233.998-234-233.998z"/></g><g><path d="m307.188 389.006h-98.457c-6.075 0-11-4.925-11-11s4.925-11 11-11h98.457c14.565.566 14.613 21.412 0 22z"/></g><g><g><path d="m354.348 262.286c-40.245 0-72.987-32.742-72.987-72.986 4.009-96.826 141.979-96.799 145.974.001 0 40.243-32.741 72.985-72.987 72.985zm0-123.973c-28.114 0-50.987 22.873-50.987 50.986 2.801 67.64 99.183 67.621 101.974 0 0-28.113-22.872-50.986-50.987-50.986z"/></g><g><path d="m157.973 262.286c-40.245 0-72.986-32.742-72.986-72.986 4.009-96.826 141.978-96.798 145.973.001 0 40.243-32.741 72.985-72.987 72.985zm0-123.973c-28.114 0-50.986 22.873-50.986 50.986 2.801 67.64 99.182 67.621 101.973 0 0-28.113-22.872-50.986-50.987-50.986z"/></g><g><path d="m157.976 200.302c-5.906.11-11.116-5.1-11-11-.03-9.719 11.921-14.676 18.77-7.78 6.9 6.854 1.948 18.792-7.77 18.78z"/></g><g><path d="m354.374 200.302c-5.906.11-11.116-5.1-11-11-.03-9.719 11.921-14.676 18.77-7.78 6.899 6.854 1.948 18.792-7.77 18.78z"/></g></g><g><path d="m132.045 372.263c-23.37 0-42.383-19.013-42.383-42.383 2.328-56.227 82.446-56.211 84.766 0-.001 23.37-19.013 42.383-42.383 42.383zm0-62.767c-11.239 0-20.383 9.144-20.383 20.383 1.12 27.041 39.65 27.033 40.766 0-.001-11.239-9.144-20.383-20.383-20.383z" fill="#0496FF"/></g><g><path d="m385.081 372.263c-23.37 0-42.383-19.013-42.383-42.383 2.328-56.227 82.446-56.211 84.766 0 0 23.37-19.013 42.383-42.383 42.383zm0-62.767c-11.239 0-20.383 9.144-20.383 20.383 1.12 27.041 39.65 27.033 40.766 0 0-11.239-9.144-20.383-20.383-20.383z" fill="#0496FF"/></g></g></svg>