<svg id="Capa_1" enable-background="new 0 0 512.001 512.001" height="512" viewBox="0 0 512.001 512.001" width="512" xmlns="http://www.w3.org/2000/svg" fill="#052438"><g><g><path d="m256.008 511.723c-31.531 0-57.184-25.652-57.184-57.184v-81.729c0-10.557 8.588-19.145 19.145-19.145h76.077c10.557 0 19.145 8.588 19.145 19.145v81.729c0 31.531-25.652 57.184-57.183 57.184zm-35.183-136.058v78.875c0 19.4 15.783 35.184 35.184 35.184 19.4 0 35.183-15.783 35.183-35.184v-78.875z" fill="#0496FF"/></g><g fill="#0496FF"><path d="m372.831 192.003c0-21.616-18.951-39.201-42.246-39.201-9.887 0-17.931-6.779-17.931-15.112.515-17.086 27.404-20.555 34.627-5.497 2.579 5.502 9.13 7.87 14.628 5.293 5.502-2.578 7.871-9.127 5.294-14.628-4.833-10.314-14.335-17.833-25.618-20.834 0-4.579 0-9.081 0-9.081-.579-14.592-21.423-14.587-22 0v9.078c-16.683 4.452-28.931 18.752-28.931 35.669 0 20.464 17.913 37.112 39.931 37.112 11.164 0 20.246 7.716 20.246 17.201-.583 19.601-31.425 23.436-39.256 5.913-2.423-5.57-8.899-8.123-14.475-5.7-5.57 2.423-8.123 8.904-5.699 14.475 5.061 11.637 15.569 20.031 28.184 23.155v11.773c0 6.075 4.925 11 11 11s11-4.925 11-11c0 0 0-6.086 0-11.77 17.977-4.505 31.246-19.761 31.246-37.846z"/><path d="m179.282 152.802c-9.887 0-17.931-6.779-17.931-15.112.515-17.086 27.404-20.555 34.628-5.497 2.579 5.5 9.128 7.869 14.628 5.292 5.501-2.578 7.871-9.127 5.292-14.628-4.833-10.314-14.335-17.832-25.618-20.833 0-4.579 0-9.081 0-9.081-.579-14.592-21.423-14.587-22 0v9.078c-16.684 4.452-28.931 18.752-28.931 35.669 0 20.464 17.913 37.112 39.931 37.112 11.164 0 20.246 7.716 20.246 17.201-.582 19.601-31.426 23.436-39.254 5.913-2.422-5.572-8.905-8.124-14.474-5.701-5.571 2.422-8.124 8.903-5.701 14.474 5.061 11.637 15.569 20.031 28.184 23.156v11.773c0 6.075 4.925 11 11 11s11-4.925 11-11c0 0 0-6.086 0-11.77 17.976-4.504 31.246-19.76 31.246-37.845 0-21.616-18.952-39.201-42.246-39.201z"/></g><path d="m402.606 299.845c0-6.075-4.925-11-11-11h-271.196c-6.075 0-11 4.925-11 11-.56 52.623 40.106 98.607 89.415 117.238v-23.905c-36.979-16.758-62.231-47.825-66.704-82.333h247.728c-4.642 33.771-30.249 65.265-66.657 82.267v23.779c49.02-17.865 89.903-65.442 89.414-117.046z"/><path d="m437.021 74.735c-95.288-99.32-266.748-99.305-362.036-.004-160.522 160.823-46.219 436.793 181.017 437.02 227.223-.214 341.538-276.177 181.019-437.016zm-131.808 408.891c-9.971 16.803-28.29 28.097-49.205 28.097-20.918 0-39.238-11.296-49.209-28.102-95.343-19.246-179.304-95.183-184.798-227.869 0-129.028 104.972-234 234-234s234 104.972 234 233.998c-5.473 132.661-89.437 208.619-184.788 227.876z"/></g></svg>