<svg id="Capa_1" enable-background="new 0 0 512.141 512.141" viewBox="0 0 512.141 512.141" xmlns="http://www.w3.org/2000/svg" fill="#E6ECF2"><g><g><path d="m304.253 382.469c14.964-11.376 24.649-29.355 24.649-49.56v-119.828h-22v119.828c0 22.072-17.867 40.042-39.898 40.223l-28.275-6.755v-21.904c25.497-16.579 42.394-45.317 42.394-77.931v-41.558c0-6.063-4.907-10.983-10.971-11-27.979-.074-54.318-10.986-74.166-30.727-4.291-4.267-11.223-4.267-15.514 0-19.848 19.74-46.188 30.652-74.167 30.728-6.063.017-10.97 4.937-10.97 11v41.557c0 32.442 16.72 61.047 41.992 77.666v22.048l-28.661 6.868c-21.9-.331-39.617-18.238-39.617-40.216v-109.477c0-65.576 53.351-118.926 118.927-118.926 23.171 0 45.625 6.664 64.932 19.271l12.029-18.42c-22.894-14.949-49.506-22.852-76.96-22.852-77.708 0-140.927 63.219-140.927 140.926v109.479c0 20.183 9.665 38.145 24.602 49.522-42.598 14.286-71.603 54.025-71.603 99.699v19.01c0 6.075 4.925 11 11 11h353.855c6.075 0 11-4.925 11-11v-18.955c-.001-45.701-29.024-85.444-71.651-99.716zm-186.918-115.926v-31.05c26.204-2.293 50.789-12.528 70.894-29.52 20.104 16.991 44.69 27.227 70.894 29.52v31.05c0 39.091-31.803 70.894-70.894 70.894s-70.894-31.803-70.894-70.894zm99.394 88.415v15.203l-28.673 25.813-28.729-25.932v-15.215c9.101 2.987 18.815 4.609 28.902 4.609 9.939.001 19.515-1.575 28.5-4.478zm137.174 135.183h-331.855v-8.01c0-38.64 26.245-71.916 63.822-80.92l59.387-14.231 35.419 31.97c2.094 1.89 4.732 2.834 7.371 2.834 2.634 0 5.268-.941 7.36-2.825l35.387-31.857 59.231 14.149c37.61 8.984 63.878 42.267 63.878 80.935z"/><path d="m188.028 310.158c9.559 0 18.545-3.723 25.305-10.481 4.295-4.296 4.295-11.261 0-15.557-4.296-4.295-11.261-4.295-15.557 0-2.604 2.604-6.066 4.038-9.748 4.038s-7.144-1.434-9.748-4.038c-4.296-4.295-11.261-4.296-15.556 0-4.296 4.296-4.296 11.261 0 15.557 6.758 6.759 15.745 10.481 25.304 10.481z"/></g><g fill="#0496FF"><path d="m384.702 259.78c-18.196 0-33 14.804-33 33s14.804 33 33 33 33-14.804 33-33-14.804-33-33-33zm0 44c-6.065 0-11-4.935-11-11s4.935-11 11-11 11 4.935 11 11-4.935 11-11 11z"/><path d="m493.239 51.641c-13.941-15.734-33.475-24.716-54.303-25.155-14.144-16.682-35.067-26.486-57.069-26.486-26.248 0-50.048 13.433-63.62 35.478-31.678 1.837-58.914 23.498-67.572 54.602-9.355 33.609 6.113 69.286 36.253 85.706 5.242 36.383 36.559 64.002 74 64.002 15.765 0 31.09-4.997 43.789-14.18 29.426 8.136 61.592-2.648 80.026-27.475 11.612-15.642 16.627-35.23 14.079-54.442 19.481-28.131 17.425-66.08-5.583-92.05zm-14.638 82.397c-2.023 2.542-2.819 5.848-2.175 9.031 2.966 14.664-.441 29.954-9.346 41.948-13.907 18.729-38.88 26.137-60.735 18.016-3.758-1.399-7.974-.639-11.01 1.975-9.57 8.241-21.79 12.779-34.407 12.779-27.995 0-51.139-21.874-52.688-49.798-.23-4.155-2.786-7.824-6.604-9.481-23.993-10.413-36.79-37.295-29.767-62.529 6.392-22.959 27.114-38.628 50.768-38.628.584 0 1.174.01 1.762.029 4.286.148 8.287-2.237 10.206-6.09 9-18.066 27.11-29.29 47.263-29.29 16.922 0 32.943 8.224 42.857 21.997 2.195 3.05 5.798 4.774 9.544 4.557 16.244-.915 31.742 5.53 42.504 17.677 17.031 19.223 17.801 47.741 1.828 67.807z"/><path d="m381.867 133.146c6.075 0 11-4.925 11-11v-60.518c0-6.075-4.925-11-11-11s-11 4.925-11 11v60.519c0 6.075 4.924 10.999 11 10.999z"/><path d="m372.723 160.53c-4.939 7.004.576 17.305 9.139 17.1 7.58.225 13.287-8.281 10.16-15.2-3.114-8.011-14.671-9.166-19.299-1.9z"/></g></g><g/><g/><g/><g/><g/><g/><g/><g/><g/><g/><g/><g/><g/><g/><g/></svg>