<svg id="Capa_1" enable-background="new 0 0 512 512" viewBox="0 0 512 512" xmlns="http://www.w3.org/2000/svg" fill="#E6ECF2"><g><g><g><g><path d="m327.59 512h-178.796c-3.185 0-6.213-1.38-8.302-3.783s-3.034-5.594-2.591-8.747l9.044-64.363c4.526-32.221-1.073-64.315-16.195-92.813-2.698-5.086-5.264-10.42-7.627-15.853l20.176-8.773c2.137 4.914 4.453 9.729 6.885 14.314 17.311 32.623 23.724 69.342 18.547 106.186l-7.284 51.832h155.143v-37.921c0-6.075 4.925-11 11-11h75.801c18.562 0 33.665-15.102 33.665-33.665v-65.442c0-6.075 4.925-11 11-11h38.114l-29.106-95.998c-.314-1.034-.474-2.11-.474-3.191 0-41.946-15.689-81.98-44.179-112.729-28.335-30.582-66.733-49.273-108.122-52.63l1.779-21.928c46.894 3.803 90.392 24.972 122.48 59.605 31.896 34.424 49.627 79.119 50.034 126.026l32.943 108.652c1.011 3.333.384 6.947-1.691 9.745-2.075 2.797-5.353 4.446-8.835 4.446h-41.944v54.442c0 30.693-24.972 55.665-55.665 55.665h-64.8v37.923c0 6.075-4.925 11-11 11z"/></g></g><g fill="#0496FF"><path d="m347.833 176.116c1.996-9.716 3.006-19.651 3.006-29.614 0-80.781-65.72-146.502-146.501-146.502-24.521 0-48.634 6.145-70.039 17.809-8.677-2.209-17.613-3.327-26.63-3.327-59.369-.001-107.669 48.299-107.669 107.668 0 24.895 8.597 48.921 24.291 68.115 1.288 39.643 17.409 76.722 45.657 104.791 29.227 29.041 68.015 45.035 109.219 45.035 21.536 0 42.32-4.319 61.854-12.846 10.937 4.219 22.435 6.354 34.251 6.354 52.641 0 95.468-42.827 95.468-95.468-.001-22.929-8.093-44.725-22.907-62.015zm-72.561 135.485c-10.402 0-20.482-2.149-29.959-6.39-2.936-1.313-6.303-1.276-9.209.104-17.864 8.479-37.021 12.777-56.937 12.777-35.354 0-68.635-13.723-93.712-38.641-25.064-24.906-39.002-58.074-39.244-93.396-.019-2.657-.998-5.218-2.757-7.209-13.835-15.656-21.454-35.79-21.454-56.696 0-47.238 38.431-85.669 85.669-85.669 8.469 0 16.843 1.236 24.888 3.675 2.939.891 6.118.512 8.768-1.046 19.03-11.193 40.821-17.11 63.013-17.11 68.65 0 124.501 55.852 124.501 124.502 0 10.175-1.237 20.312-3.677 30.128-.918 3.69.136 7.593 2.786 10.319 13.407 13.796 20.791 31.974 20.791 51.184 0 40.511-32.957 73.468-73.467 73.468z"/><path d="m142.089 133.552c6.075 0 11-4.925 11-11s-4.925-11-11-11h-36.741c-6.075 0-11 4.925-11 11v87.196c0 6.075 4.925 11 11 11h36.741c6.075 0 11-4.925 11-11s-4.925-11-11-11h-25.741v-21.598h23.032c6.075 0 11-4.925 11-11s-4.925-11-11-11h-23.032v-21.599h25.741z"/><path d="m278.055 196.035c5.597-8.611 8.864-18.871 8.864-29.885 0-30.327-24.673-55-55-55s-55 24.673-55 55 24.673 55 55 55c11.374 0 21.952-3.47 30.731-9.407l5.83 5.83c2.148 2.147 4.963 3.222 7.778 3.222s5.63-1.074 7.778-3.222c4.296-4.296 4.296-11.261 0-15.557zm-46.136 3.115c-18.196 0-33-14.804-33-33s14.804-33 33-33 33 14.804 33 33c0 4.902-1.083 9.553-3.008 13.74l-6.026-6.026c-4.297-4.295-11.26-4.295-15.557 0-4.296 4.296-4.296 11.261 0 15.557l6.272 6.272c-4.425 2.208-9.409 3.457-14.681 3.457z"/></g></g></g><g/><g/><g/><g/><g/><g/><g/><g/><g/><g/><g/><g/><g/><g/><g/></svg>