<svg id="Capa_1" enable-background="new 0 0 512 512" viewBox="0 0 512 512" xmlns="http://www.w3.org/2000/svg" fill="#E6ECF2"><g><g><g><path d="m413.322 197.356c-54.412 0-98.679-44.267-98.679-98.678s44.267-98.678 98.679-98.678c54.411 0 98.678 44.267 98.678 98.678s-44.267 98.678-98.678 98.678zm0-175.356c-42.281 0-76.679 34.398-76.679 76.678s34.397 76.678 76.679 76.678c42.28 0 76.678-34.398 76.678-76.678s-34.397-76.678-76.678-76.678z" fill="#0496FF"/></g><g><path d="m413.321 146.176c-9.686 0-19.368-3.686-26.742-11.059-4.296-4.296-4.296-11.261 0-15.557 4.297-4.296 11.26-4.296 15.557 0 6.167 6.169 16.205 6.168 22.372 0 4.298-4.295 11.261-4.296 15.557 0s4.296 11.261 0 15.556c-7.373 7.373-17.06 11.06-26.744 11.06z" fill="#0496FF"/></g><g><g><path d="m386.5 86.07c-2.87.009-5.747-1.202-7.78-3.22-8.352-8.569.882-22.41 11.99-17.94 11.015 4.69 7.758 21.029-4.21 21.16z" fill="#0496FF"/></g><g><path d="m440.14 86.07c-8.664.102-14.035-9.966-9.149-17.11 2.785-4.296 8.659-6.088 13.359-4.05 10.991 4.469 7.631 21.248-4.21 21.16z" fill="#0496FF"/></g></g><g><path d="m501 490h-10v-234c0-6.075-4.925-11-11-11h-120c-6.075 0-11 4.925-11 11v234h-22v-177c0-6.075-4.925-11-11-11h-120c-6.075 0-11 4.925-11 11v177h-22v-117c0-6.075-4.925-11-11-11h-120c-6.075 0-11 4.925-11 11v117h-10c-6.075 0-11 4.925-11 11s4.925 11 11 11h490c6.075 0 11-4.925 11-11s-4.925-11-11-11zm-458 0v-106h98v106zm164 0v-166h98v166zm164 0v-223h98v223z"/><path d="m92.007 302.962c1.536 0 3.098-.323 4.585-1.007l186.826-85.82-6.196 10.991c-2.983 5.292-1.112 12.001 4.18 14.984 1.708.963 3.562 1.42 5.393 1.42 3.841 0 7.571-2.016 9.592-5.6l22.979-40.758c1.732-3.073 1.886-6.789.414-9.994-1.473-3.205-4.393-5.509-7.852-6.197l-45.892-9.122c-5.957-1.185-11.749 2.686-12.934 8.645-1.184 5.958 2.686 11.749 8.645 12.934l12.83 2.55-187.169 85.975c-5.521 2.536-7.94 9.067-5.404 14.588 1.853 4.033 5.837 6.411 10.003 6.411z"/></g></g></g><g/><g/><g/><g/><g/><g/><g/><g/><g/><g/><g/><g/><g/><g/><g/></svg>