<svg id="Capa_1" enable-background="new 0 0 511.958 511.958" viewBox="0 0 511.958 511.958" xmlns="http://www.w3.org/2000/svg" fill="#052438"><g><g><g><path d="m206 335.605c-59.345 0-107.626-48.281-107.626-107.626s48.281-107.626 107.626-107.626 107.626 48.281 107.626 107.626c0 5.153-.369 10.338-1.096 15.409l-21.777-3.123c.579-4.04.873-8.174.873-12.286 0-47.214-38.412-85.626-85.626-85.626-47.215 0-85.626 38.412-85.626 85.626s38.412 85.626 85.626 85.626c10.258 0 20.284-1.792 29.799-5.325l7.658 20.625c-11.974 4.445-24.576 6.7-37.457 6.7z"/></g></g><g><g><path d="m242.486 433.979-72.972-.001c-6.075 0-11-4.925-11-11v-15.898c-16.021-4.227-31.293-10.548-45.588-18.871l-11.233 11.233c-4.296 4.295-11.261 4.295-15.557 0l-51.599-51.599c-4.295-4.296-4.295-11.261 0-15.557l11.233-11.233c-8.323-14.296-14.645-29.567-18.872-45.588l-15.898-.001c-6.075 0-11-4.925-11-11v-72.972c0-2.917 1.159-5.715 3.222-7.778 2.063-2.062 4.861-3.222 7.778-3.222h15.899c4.227-16.021 10.549-31.294 18.872-45.588l-11.233-11.233c-4.295-4.296-4.295-11.261 0-15.557l51.598-51.599c4.296-4.295 11.261-4.295 15.556 0l11.234 11.233c14.294-8.323 29.568-14.646 45.588-18.871v-15.899c0-6.075 4.925-11 11-11h72.972c6.075 0 11 4.925 11 11v15.899c16.021 4.226 31.292 10.547 45.588 18.871l11.233-11.234c2.062-2.062 4.86-3.222 7.778-3.222 2.917 0 5.715 1.159 7.778 3.222l51.599 51.6c4.296 4.296 4.296 11.261 0 15.557l-11.234 11.234c8.323 14.294 14.646 29.567 18.871 45.587h15.899c6.075 0 11 4.925 11 11l.002 52.305h-22l-.001-41.305h-13.583c-5.191 0-9.677-3.63-10.759-8.708-4.154-19.499-11.75-37.846-22.574-54.53-2.826-4.355-2.222-10.094 1.449-13.766l9.596-9.596-36.042-36.042-9.595 9.596c-3.67 3.669-9.409 4.275-13.765 1.45-16.687-10.825-35.034-18.421-54.533-22.575-5.078-1.082-8.708-5.567-8.708-10.759v-13.583h-50.972v13.583c0 5.191-3.63 9.677-8.708 10.759-19.501 4.155-37.848 11.751-54.532 22.575-4.354 2.823-10.094 2.222-13.765-1.45l-9.596-9.595-36.042 36.042 9.595 9.595c3.671 3.671 4.275 9.409 1.45 13.765-10.824 16.685-18.419 35.031-22.576 54.533-1.082 5.077-5.567 8.707-10.758 8.707h-13.581v50.972l13.583.001c5.191 0 9.676 3.63 10.758 8.707 4.156 19.499 11.752 37.847 22.576 54.533 2.825 4.355 2.221 10.094-1.45 13.765l-9.595 9.595 36.042 36.042 9.595-9.595c3.671-3.671 9.409-4.276 13.765-1.45 16.686 10.824 35.033 18.42 54.534 22.575 5.077 1.083 8.707 5.567 8.707 10.759v13.582l50.972.001v-13.584c0-5.191 3.63-9.677 8.708-10.759 11.433-2.436 22.617-6.112 33.239-10.927l9.082 20.039c-9.35 4.236-19.08 7.697-29.028 10.327v15.903c0 2.917-1.159 5.715-3.222 7.778-2.065 2.063-4.863 3.222-7.78 3.222z"/></g><g><g><path d="m370.824 489.979c-2.815 0-5.63-1.074-7.778-3.222l-107.841-107.84c-34.021-34.021-34.021-89.377 0-123.398 16.48-16.48 38.392-25.557 61.698-25.557 19.808 0 38.606 6.555 53.921 18.639 15.314-12.084 34.113-18.639 53.921-18.639 23.307 0 45.218 9.076 61.698 25.557 34.02 34.021 34.02 89.377 0 123.398l-107.84 107.84c-2.149 2.148-4.963 3.222-7.779 3.222zm-53.92-237.986c-16.711 0-33.421 6.36-46.143 19.082-25.443 25.443-25.443 66.842 0 92.285l100.062 100.062 100.064-100.062c25.442-25.443 25.442-66.842 0-92.285-25.443-25.443-66.841-25.443-92.284 0-4.297 4.295-11.26 4.295-15.557 0-12.722-12.722-29.432-19.082-46.142-19.082z" fill="#0496FF"/></g></g></g></g><g/><g/><g/><g/><g/><g/><g/><g/><g/><g/><g/><g/><g/><g/><g/></svg>