<svg id="Capa_1" enable-background="new 0 0 512 512" viewBox="0 0 512 512" xmlns="http://www.w3.org/2000/svg" fill="#E6ECF2"><g><g><g><path d="m245.533 186.217h-234.533c-6.075 0-11-4.925-11-11v-69.06c0-6.075 4.925-11 11-11h230.978v22h-219.978v47.06h223.533z"/></g><g><path d="m466.47 186.217h-65.786v-22h61.229l23.53-23.529-23.53-23.53h-60.854v-22h65.411c2.917 0 5.715 1.159 7.778 3.222l34.53 34.53c2.062 2.063 3.222 4.861 3.222 7.778 0 2.918-1.159 5.716-3.222 7.778l-34.53 34.529c-2.063 2.063-4.861 3.222-7.778 3.222z"/></g><g><path d="m466.47 418.53h-291.034v-22h286.478l23.53-23.53-23.53-23.53h-288.384v-22h292.94c2.917 0 5.715 1.159 7.778 3.222l34.53 34.53c4.296 4.296 4.296 11.261 0 15.557l-34.53 34.53c-2.063 2.062-4.861 3.221-7.778 3.221z"/></g><g fill="#0496FF"><path d="m95 278c-52.383 0-95 42.617-95 95s42.617 95 95 95 95-42.617 95-95-42.617-95-95-95zm0 168c-40.252 0-73-32.748-73-73s32.748-73 73-73 73 32.748 73 73-32.748 73-73 73z"/><path d="m95 381.944c-9.809 0-19.023 3.812-25.946 10.735-4.297 4.295-4.297 11.26-.001 15.556 4.294 4.296 11.26 4.297 15.556.001 2.769-2.768 6.459-4.292 10.392-4.292s7.622 1.524 10.39 4.291c2.147 2.148 4.963 3.223 7.778 3.223 2.814 0 5.63-1.074 7.777-3.222 4.297-4.295 4.297-11.26.001-15.556-6.923-6.923-16.137-10.736-25.947-10.736z"/><path d="m75.41 359.529c10.835-7.614 2.041-24.078-10.31-19.31-11.023 4.692-7.763 21.024 4.21 21.16 2.151.002 4.312-.666 6.1-1.85z"/><path d="m116.49 340.22c-11.02 4.684-7.766 21.022 4.199 21.16 2.157.002 4.311-.665 6.11-1.851 10.822-7.615 2.048-24.076-10.309-19.309z"/><path d="m321.345 44c-52.383 0-95 42.617-95 95s42.617 95 95 95 95-42.617 95-95-42.617-95-95-95zm0 168c-40.252 0-73-32.748-73-73s32.748-73 73-73 73 32.748 73 73-32.748 73-73 73z"/><path d="m331.736 158.68c-2.769 2.768-6.459 4.292-10.392 4.292s-7.622-1.524-10.39-4.291c-4.294-4.296-11.26-4.297-15.556-.001-4.297 4.295-4.297 11.26-.001 15.556 6.922 6.924 16.137 10.736 25.946 10.736s19.023-3.812 25.946-10.735c4.297-4.295 4.297-11.26.001-15.556-4.292-4.296-11.258-4.297-15.554-.001z"/><path d="m299.859 126.54c8.915-3.364 8.897-16.952 0-20.32-2.674-1.117-5.746-1.116-8.42 0-8.938 3.46-8.929 16.86 0 20.32 2.68 1.112 5.741 1.112 8.42 0z"/><path d="m351.25 106.22c-8.914-3.786-18.158 5.456-14.37 14.37 2.754 7.13 12.66 9.076 17.939 3.57 5.509-5.284 3.56-15.181-3.569-17.94z"/></g></g></g><g/><g/><g/><g/><g/><g/><g/><g/><g/><g/><g/><g/><g/><g/><g/></svg>