<svg id="Capa_1" enable-background="new 0 0 512.001 512.001" viewBox="0 0 512.001 512.001" xmlns="http://www.w3.org/2000/svg" fill="#E6ECF2"><g><g><path d="m96.537 332.579c-4.295 4.296-4.296 11.261 0 15.557 2.148 2.147 4.963 3.222 7.778 3.222s5.63-1.074 7.778-3.222c13.105-13.104 34.427-13.104 47.531 0 4.296 4.295 11.261 4.295 15.557 0 4.295-4.296 4.295-11.261 0-15.557-21.683-21.682-56.962-21.684-78.644 0z"/><path d="m216.815 151.932c-23.546-17.497-51.541-26.745-80.957-26.745-74.912 0-135.857 60.945-135.857 135.857v46.13c0 53.98 31.647 100.705 77.36 122.604v13.127c0 6.957-3.858 13.228-10.067 16.363l-61.251 30.932c-4.546 2.296-6.922 7.413-5.742 12.368 1.18 4.954 5.607 8.451 10.701 8.451h249.714c5.093 0 9.521-3.497 10.701-8.451 1.18-4.955-1.196-10.072-5.742-12.368l-61.251-30.932c-6.21-3.136-10.068-9.406-10.068-16.363v-13.126c45.713-21.899 77.36-68.624 77.36-122.604v-40.479h167.816c39.959 0 72.469-32.51 72.469-72.469 0-35.112-25.189-64.767-58.839-71.175-6.111-31.805-34.093-55.555-67.354-55.555-16.519 0-32.479 5.962-44.943 16.787l14.426 16.609c8.462-7.349 19.3-11.396 30.518-11.396 24.73 0 45.164 19.323 46.52 43.991.307 5.576 4.743 10.038 10.317 10.376 26.555 1.611 47.356 23.733 47.356 50.362 0 27.828-22.64 50.469-50.469 50.469h-183.957c-25.693 0-46.596-20.903-46.596-46.597 0-10.813 3.594-20.955 10.393-29.329zm-22.309 326.975 20.025 10.112h-157.345l20.025-10.113c13.663-6.899 22.15-20.694 22.15-36.001v-4.858c11.619 3.244 23.858 4.985 36.498 4.985 12.639 0 24.879-1.741 36.497-4.985v4.858c0 15.306 8.487 29.101 22.15 36.002zm-58.647-57.875c-62.781 0-113.857-51.076-113.857-113.857v-46.13c0-62.781 51.076-113.857 113.857-113.857 21.484 0 42.058 5.888 60.046 17.1-5.801 10.252-8.925 21.93-8.925 33.812 0 35.849 27.647 65.344 62.736 68.329v40.747c0 62.78-51.076 113.856-113.857 113.856z"/><path d="m459.538 292.592-20.63 20.63c-4.295 4.296-4.295 11.261 0 15.557 2.148 2.147 4.963 3.222 7.778 3.222s5.63-1.074 7.778-3.222l20.63-20.63c4.295-4.296 4.295-11.261 0-15.557-4.296-4.295-11.26-4.295-15.556 0z"/><path d="m325.573 292.592-20.63 20.63c-4.296 4.296-4.296 11.261 0 15.557 2.148 2.147 4.963 3.222 7.778 3.222s5.63-1.074 7.778-3.222l20.63-20.63c4.295-4.296 4.295-11.261 0-15.557-4.295-4.295-11.26-4.296-15.556 0z"/><path d="m290.143 382.33-20.63 20.63c-4.295 4.296-4.295 11.261 0 15.557 2.148 2.147 4.963 3.222 7.778 3.222s5.63-1.074 7.778-3.222l20.63-20.63c4.296-4.296 4.296-11.261 0-15.557-4.296-4.295-11.261-4.296-15.556 0z"/></g><g fill="#0496FF"><path d="m406.26 359.065c-1.703-4.11-5.713-6.79-10.163-6.79h-32.777l26.255-26.255c4.295-4.296 4.295-11.261 0-15.557-4.296-4.295-11.261-4.295-15.557 0l-45.033 45.033c-3.146 3.146-4.087 7.877-2.384 11.988 1.703 4.11 5.713 6.79 10.163 6.79h32.776l-26.255 26.255c-4.295 4.296-4.295 11.261 0 15.557 2.148 2.148 4.963 3.222 7.778 3.222s5.63-1.074 7.778-3.222l45.034-45.033c3.147-3.146 4.088-7.877 2.385-11.988z"/><path d="m358.811 95.982c0-52.383-42.617-95-95-95s-95 42.617-95 95 42.617 95 95 95 95-42.617 95-95zm-95 73c-40.252 0-73-32.748-73-73s32.748-73 73-73 73 32.748 73 73-32.748 73-73 73z"/><path d="m263.811 104.926c-9.809 0-19.024 3.812-25.946 10.736-4.296 4.296-4.295 11.261 0 15.556 4.296 4.297 11.261 4.296 15.556-.001 2.768-2.768 6.457-4.291 10.39-4.291s7.623 1.524 10.391 4.292c2.148 2.147 4.963 3.222 7.778 3.222s5.63-1.074 7.778-3.222c4.295-4.296 4.295-11.261 0-15.557-6.923-6.922-16.138-10.735-25.947-10.735z"/><path d="m245.901 65.581c-.51-.5-1.08-.96-1.68-1.37-3.596-2.444-8.612-2.444-12.21 0-8.976 6.034-4.708 20.115 6.11 20.149 9.69.061 14.66-11.964 7.78-18.779z"/><path d="m295.611 64.211c-6.259-4.37-15.57-.522-16.89 7-1.491 6.552 4.061 13.315 10.78 13.149 10.812-.031 15.085-14.111 6.11-20.149z"/></g></g><g/><g/><g/><g/><g/><g/><g/><g/><g/><g/><g/><g/><g/><g/><g/></svg>