<svg id="Capa_1" enable-background="new 0 0 512 512" viewBox="0 0 512 512" xmlns="http://www.w3.org/2000/svg" fill="#052438"><g><g><g><path d="m110.661 15.339c-61.018 0-110.661 49.642-110.661 110.661s49.643 110.661 110.661 110.661 110.661-49.642 110.661-110.661-49.642-110.661-110.661-110.661zm0 199.322c-48.888 0-88.661-39.773-88.661-88.661s39.773-88.661 88.661-88.661 88.661 39.773 88.661 88.661-39.773 88.661-88.661 88.661z"/><path d="m124.438 150.799c-3.671 3.671-8.563 5.693-13.777 5.693s-10.106-2.022-13.777-5.693c-4.294-4.296-11.259-4.297-15.557 0-4.296 4.295-4.296 11.26 0 15.556 7.826 7.827 18.244 12.137 29.334 12.137s21.508-4.311 29.334-12.137c4.296-4.296 4.296-11.26 0-15.556-4.297-4.296-11.262-4.296-15.557 0z"/><path d="m84.38 109.32c8.977-3.598 8.987-16.715 0-20.31-6.137-2.751-13.838 1.39-14.99 8-1.478 6.561 4.062 13.327 10.79 13.15 1.425.001 2.88-.278 4.2-.84z"/><path d="m130.99 94.96c-2.382 5.391.453 12.23 5.949 14.36 1.32.561 2.775.84 4.21.84 1.425.001 2.88-.278 4.2-.84 5.493-2.129 8.339-8.97 5.95-14.36-3.596-8.981-16.714-8.98-20.309 0z"/><path d="m401.339 15.339c-61.019 0-110.661 49.643-110.661 110.661s49.643 110.661 110.661 110.661 110.661-49.642 110.661-110.661-49.643-110.661-110.661-110.661zm0 199.322c-48.888 0-88.661-39.773-88.661-88.661s39.773-88.661 88.661-88.661 88.661 39.773 88.661 88.661-39.773 88.661-88.661 88.661z"/><path d="m401.339 138.663c-11.09 0-21.508 4.31-29.334 12.136-4.296 4.296-4.296 11.261 0 15.557 4.297 4.296 11.26 4.296 15.557 0 3.671-3.671 8.563-5.693 13.777-5.693s10.106 2.021 13.777 5.692c2.148 2.148 4.963 3.222 7.778 3.222 2.814 0 5.63-1.074 7.778-3.222 4.296-4.296 4.296-11.26 0-15.556-7.825-7.826-18.243-12.136-29.333-12.136z"/><path d="m375.06 89.01c-5.382-2.387-12.242.452-14.359 5.95-3.137 6.908 2.579 15.426 10.149 15.2 11.959-.106 15.232-16.484 4.21-21.15z"/><path d="m427.62 89.01c-2.686 1.088-4.864 3.268-5.95 5.95-2.388 5.39.452 12.234 5.95 14.36 1.319.562 2.775.841 4.199.84 6.727.166 12.268-6.584 10.79-13.15-1.157-6.612-8.827-10.733-14.989-8z"/></g><path d="m477 262.661h-442c-19.299 0-35 15.701-35 35s15.701 35 35 35h198.449l-114.226 146.229c-2.589 3.314-3.062 7.814-1.218 11.594 1.844 3.779 5.682 6.177 9.887 6.177h256.217c4.205 0 8.043-2.398 9.887-6.177 1.844-3.78 1.371-8.28-1.218-11.594l-114.227-146.229h198.449c19.299 0 35-15.701 35-35s-15.701-35-35-35zm-326.558 212 105.558-135.131 105.558 135.131zm326.558-164h-442c-7.168 0-13-5.832-13-13s5.832-13 13-13h442c7.168 0 13 5.832 13 13s-5.832 13-13 13z" fill="#0496FF"/></g></g><g/><g/><g/><g/><g/><g/><g/><g/><g/><g/><g/><g/><g/><g/><g/></svg>