<svg id="Capa_1" enable-background="new 0 0 512.001 512.001" viewBox="0 0 512.001 512.001" xmlns="http://www.w3.org/2000/svg" fill="#E6ECF2"><g><g><g><g><path d="m310.537 512.001h-196.38c-3.185 0-6.212-1.38-8.302-3.783s-3.034-5.594-2.591-8.747l9.933-70.692c5.005-35.617-1.186-71.096-17.903-102.6-10.086-19.01-18.202-40.722-23.469-62.791l21.399-5.107c4.841 20.285 12.277 40.198 21.503 57.586 18.906 35.629 25.91 75.731 20.255 115.973l-8.172 58.162h172.726v-42.731c0-6.075 4.925-11 11-11h83.256c20.985 0 38.058-17.072 38.058-38.058v-71.879c0-6.075 4.925-11 11-11h43.32l-32.392-106.835c-.314-1.034-.474-2.11-.474-3.191 0-48.438-18.717-94.116-52.701-128.621-33.948-34.468-79.257-53.879-127.582-54.659-23.729-.373-46.867 3.656-68.75 12.007l-7.844-20.555c24.511-9.354 50.397-13.89 76.949-13.449 54.129.873 104.879 22.615 142.9 61.219 37.679 38.255 58.601 88.769 59.021 142.406l36.229 119.487c1.011 3.333.384 6.947-1.691 9.745-2.075 2.797-5.353 4.446-8.835 4.446h-47.15v60.879c0 33.116-26.941 60.058-60.058 60.058h-72.256v42.731c.001 6.074-4.924 10.999-10.999 10.999z"/></g></g></g><g fill="#0496FF"><path d="m143 44.001c-18.196 0-33 14.804-33 33s14.804 33 33 33 33-14.804 33-33-14.803-33-33-33zm0 44c-6.065 0-11-4.935-11-11s4.935-11 11-11 11 4.935 11 11-4.934 11-11 11z"/><path d="m143 176.001c-18.196 0-33 14.804-33 33s14.804 33 33 33 33-14.804 33-33-14.803-33-33-33zm0 44c-6.065 0-11-4.935-11-11s4.935-11 11-11 11 4.935 11 11-4.934 11-11 11z"/><path d="m143 .001c-78.851 0-143 64.149-143 143s64.149 143 143 143 143-64.149 143-143-64.149-143-143-143zm-121 143c0-40.831 20.331-76.998 51.398-98.922-4.742 9.987-7.398 21.15-7.398 32.922 0 42.458 34.542 77 77 77 30.327 0 55 24.673 55 55s-24.673 55-55 55c-66.719 0-121-54.28-121-121zm190.586 98.933c4.748-9.991 7.415-21.155 7.415-32.933 0-42.458-34.542-77-77-77-30.327 0-55-24.673-55-55s24.673-55 55-55c66.72 0 121 54.28 121 121-.001 40.837-20.339 77.011-51.415 98.933z"/></g></g><g/><g/><g/><g/><g/><g/><g/><g/><g/><g/><g/><g/><g/><g/><g/></svg>