<svg id="Capa_1" enable-background="new 0 0 512 512" viewBox="0 0 512 512" xmlns="http://www.w3.org/2000/svg" fill="#E6ECF2"><g><g><g><path d="m177.562 109.173c-22.845 21.549-35.946 51.913-35.946 83.307v15.935c0 6.075 4.925 11 11 11h.992v37.399c0 38.755 21.619 72.554 53.43 89.976v24.696l-53.818 12.896c-45.701 10.952-77.62 51.423-77.62 98.417v18.201c0 6.075 4.925 11 11 11h338.8c6.075 0 11-4.925 11-11v-18.149c0-47.029-31.947-87.506-77.689-98.434l-53.648-12.816v-24.733c31.888-17.399 53.57-51.242 53.57-90.054v-37.399h.991c6.075 0 11-4.925 11-11v-15.935c0-31.786-12.719-61.327-35.812-83.181l-15.121 15.979c18.658 17.657 28.934 41.523 28.934 67.202v4.935h-30.408c-7.742 0-14.982-3.116-20.263-8.528 2.616-6.086 4.071-12.785 4.071-19.819 0-6.075-4.925-11-11-11s-11 4.925-11 11c0 15.631-12.716 28.347-28.347 28.347h-88.062v-4.935c0-25.735 10.314-49.637 29.042-67.303zm-1.954 147.64v-37.399h76.069c12.734 0 24.371-4.761 33.247-12.585 9.072 8.021 20.81 12.585 33.291 12.585h18.417v37.399c0 44.395-36.118 80.512-80.513 80.512s-80.511-36.117-80.511-80.512zm80.512 102.512c9.321 0 18.353-1.258 26.942-3.6v19.66l-26.985 24.293-27.039-24.406v-19.584c8.631 2.366 17.71 3.637 27.082 3.637zm158.28 130.675h-316.8v-7.201c0-36.778 24.98-68.451 60.747-77.022l56.621-13.568 33.729 30.445c2.093 1.889 4.731 2.834 7.37 2.834 2.634 0 5.268-.941 7.359-2.824l33.701-30.338 56.472 13.49c35.799 8.552 60.801 40.229 60.801 77.035z"/><path d="m282.385 282.74c-4.294-4.296-11.26-4.297-15.556-.001-5.911 5.911-15.529 5.911-21.44 0-4.297-4.295-11.26-4.295-15.557 0-4.296 4.296-4.296 11.261 0 15.557 7.245 7.245 16.759 10.866 26.276 10.866 9.515 0 19.032-3.623 26.275-10.866 4.298-4.295 4.298-11.26.002-15.556z"/></g><g><path d="m328.44 127.773h-144.88c-5.814 0-10.625-4.525-10.979-10.329l-5.394-88.228c-.251-4.112 1.816-8.021 5.357-10.126 3.54-2.104 7.963-2.056 11.455.129l38.396 24.017 24.33-38.151c2.021-3.167 5.518-5.085 9.275-5.085s7.254 1.918 9.274 5.085l24.33 38.151 38.396-24.017c3.491-2.187 7.913-2.233 11.455-.129 3.541 2.105 5.608 6.014 5.357 10.126l-5.394 88.228c-.353 5.804-5.163 10.329-10.978 10.329zm-134.533-22h124.186l3.458-56.569-29.524 18.467c-5.116 3.201-11.86 1.68-15.107-3.411l-20.92-32.802-20.919 32.802c-3.248 5.091-9.988 6.611-15.107 3.411l-29.524-18.467z" fill="#0496FF"/></g><g><path d="m448.651 165.244c-1.577 0-3.18-.341-4.7-1.062l-26.434-12.518c-5.49-2.6-7.834-9.158-5.233-14.649 2.6-5.49 9.158-7.836 14.649-5.233l26.434 12.518c5.49 2.6 7.834 9.158 5.233 14.649-1.879 3.97-5.829 6.295-9.949 6.295z" fill="#0496FF"/></g><g><path d="m424.529 81.905c-4.913 0-9.389-3.314-10.653-8.294-1.496-5.889 2.064-11.874 7.952-13.37l27.614-7.016c5.893-1.501 11.875 2.063 13.37 7.952 1.496 5.889-2.064 11.874-7.952 13.37l-27.614 7.016c-.909.232-1.82.342-2.717.342z" fill="#0496FF"/></g><g><path d="m63.349 165.244c-4.119 0-8.069-2.325-9.949-6.295-2.601-5.491-.257-12.05 5.233-14.649l26.434-12.518c5.493-2.602 12.05-.256 14.649 5.233 2.601 5.491.257 12.05-5.233 14.649l-26.434 12.518c-1.521.721-3.123 1.062-4.7 1.062z" fill="#0496FF"/></g><g><path d="m87.471 81.905c-.896 0-1.808-.11-2.717-.342l-27.614-7.015c-5.888-1.496-9.448-7.481-7.952-13.37 1.496-5.887 7.479-9.451 13.37-7.952l27.614 7.016c5.888 1.496 9.448 7.481 7.952 13.37-1.265 4.978-5.741 8.293-10.653 8.293z" fill="#0496FF"/></g></g></g><g/><g/><g/><g/><g/><g/><g/><g/><g/><g/><g/><g/><g/><g/><g/></svg>