<svg id="Capa_1" enable-background="new 0 0 512 512" viewBox="0 0 512 512" xmlns="http://www.w3.org/2000/svg" fill="#E6ECF2"><g><g fill="#0496FF"><path d="m361.729 297.604c-8.644 0-17.188 1.844-25.029 5.37-7.841-3.526-16.385-5.37-25.029-5.37-33.668 0-61.06 27.391-61.06 61.059 0 14.03 4.771 27.466 13.519 38.301v11.592c0 28.699 23.348 52.047 52.047 52.047 6.075 0 11-4.925 11-11v-29.094c0-5.251 4.272-9.523 9.523-9.523s9.523 4.272 9.523 9.523v29.094c0 6.075 4.925 11 11 11 28.699 0 52.048-23.348 52.048-52.047v-11.592c8.747-10.835 13.518-24.271 13.518-38.301-.001-33.668-27.393-61.059-61.06-61.059zm28.511 87.738c-1.908 2.039-2.97 4.726-2.97 7.518v15.696c0 12.688-7.904 23.564-19.048 27.962v-16.009c0-17.382-14.142-31.523-31.523-31.523s-31.523 14.142-31.523 31.523v16.009c-11.142-4.399-19.047-15.275-19.047-27.962v-15.696c0-2.792-1.062-5.48-2.971-7.519-6.802-7.265-10.548-16.739-10.548-26.679 0-21.537 17.522-39.059 39.06-39.059 6.853 0 13.603 1.81 19.52 5.234 3.407 1.972 7.611 1.972 11.019 0 5.918-3.424 12.668-5.234 19.521-5.234 21.537 0 39.06 17.522 39.06 39.059-.002 9.941-3.748 19.415-10.55 26.68z"/><path d="m118.119 151.824h152c6.075 0 11-4.925 11-11s-4.925-11-11-11h-152c-6.075 0-11 4.925-11 11s4.925 11 11 11z"/><path d="m303.119 184.824c0-6.075-4.925-11-11-11h-196c-6.075 0-11 4.925-11 11s4.925 11 11 11h196c6.075 0 11-4.925 11-11z"/><path d="m281.119 228.824c0-6.075-4.925-11-11-11h-152c-6.075 0-11 4.925-11 11s4.925 11 11 11h152c6.075 0 11-4.925 11-11z"/></g><path d="m347.699 242.927v-187.927c0-6.075-4.925-11-11-11h-77.58v-11c0-6.075-4.925-11-11-11h-22.885c-4.54-12.805-16.773-22-31.115-22s-26.575 9.195-31.115 22h-22.885c-6.075 0-11 4.925-11 11v11h-77.58c-6.075 0-11 4.925-11 11v304.738h.006c.001 2.862 1.113 5.675 3.216 7.778l67.938 67.938c2.104 2.104 4.918 3.222 7.78 3.222h.01 97.288c22.376 43.5 67.731 73.324 119.922 73.324 74.308 0 134.762-60.454 134.762-134.762 0-70.605-54.58-128.695-123.762-134.311zm-196.58-198.927h21c6.075 0 11-4.925 11-11 0-6.065 4.935-11 11-11s11 4.935 11 11c0 6.075 4.925 11 11 11h21v22h-86zm-42.642 357.12-30.382-30.382h30.382zm22 15.556v-56.938c0-6.075-4.925-11-11-11h-56.938v-282.738h66.58v11c0 6.075 4.925 11 11 11h108c6.075 0 11-4.925 11-11v-11h66.58v176.927c-69.182 5.616-123.762 63.706-123.762 134.311 0 13.717 2.066 26.959 5.893 39.438zm206.222 73.324c-62.177 0-112.762-50.585-112.762-112.762s50.585-112.762 112.762-112.762 112.762 50.585 112.762 112.762-50.585 112.762-112.762 112.762z"/></g><g/><g/><g/><g/><g/><g/><g/><g/><g/><g/><g/><g/><g/><g/><g/></svg>