<svg id="Capa_1" enable-background="new 0 0 512 512" viewBox="0 0 512 512" xmlns="http://www.w3.org/2000/svg" fill="#052438"><g><g fill="#0496FF"><path d="m446.079 241.136-50.51-50.51c-2.063-2.063-4.861-3.222-7.778-3.222s-5.715 1.159-7.778 3.222l-50.51 50.51c-3.146 3.146-4.087 7.877-2.384 11.988s5.714 6.791 10.163 6.791h17.51v56.588h22v-67.588c0-2.917-1.159-5.715-3.222-7.778s-4.861-3.222-7.778-3.222h-1.953l23.953-23.954 23.954 23.954h-1.954c-6.075 0-11 4.925-11 11v67.588h22v-56.588h17.51c4.449 0 8.46-2.68 10.163-6.791s.76-8.842-2.386-11.988z"/><path d="m387.791 380.254h20c6.075 0 11-4.925 11-11s-4.925-11-11-11h-9v-3.661c0-6.075-4.925-11-11-11s-11 4.925-11 11v5.766c-11.064 4.393-18.912 15.197-18.912 27.807 0 16.493 13.418 29.912 29.912 29.912 4.362 0 7.912 3.549 7.912 7.912s-3.549 7.912-7.912 7.912h-20c-6.075 0-11 4.925-11 11s4.925 11 11 11h9v3.662c0 6.075 4.925 11 11 11s11-4.925 11-11v-5.766c11.064-4.393 18.912-15.197 18.912-27.807 0-16.493-13.418-29.912-29.912-29.912-4.362 0-7.912-3.549-7.912-7.912s3.55-7.913 7.912-7.913z"/></g><g><path d="m387.791 302.156c-26.351 0-50.461 9.767-68.909 25.868-3.765-8.9-8.65-17.311-14.502-25.015v-172.236c0-72.108-58.665-130.773-130.774-130.773s-130.773 58.665-130.773 130.773v172.279c-14.765 19.395-23.546 43.58-23.546 69.781v31.775c0 6.075 4.925 11 11 11h252.93c4.357 53.88 49.592 96.392 104.574 96.392 57.854 0 104.922-47.068 104.922-104.922s-47.068-104.922-104.922-104.922zm-214.185-280.156c59.978 0 108.774 48.795 108.774 108.773v150.215c-17.453-13.284-38.488-21.351-60.322-23.18v-18.058c3.481-2.521 6.799-5.319 9.909-8.406 15.789-15.671 24.483-36.553 24.483-58.798v-54.314c0-6.075-4.925-11-11-11h-17.471c-17.441 0-33.375-8.828-42.623-23.616l-2.423-3.875c-2.011-3.215-5.535-5.167-9.327-5.167s-7.316 1.953-9.326 5.168l-2.422 3.874c-9.249 14.787-25.182 23.616-42.623 23.616h-17.472c-6.075 0-11 4.925-11 11v53.413c0 27.811 13.59 52.559 34.392 67.812v18.347c-22.556 1.859-43.291 10.23-60.322 23.225v-150.256c0-59.978 48.795-108.773 108.773-108.773zm42.862 193.73c-11.484 11.399-26.688 17.66-42.859 17.66-.154 0-.311 0-.465-.001-33.294-.247-60.381-27.945-60.381-61.744v-42.413h6.472c21.157 0 40.773-9.038 54.372-24.634 13.599 15.595 33.215 24.634 54.373 24.634h6.471v43.314c-.001 16.337-6.387 31.674-17.983 43.184zm-43.488 39.657c.212.002.422.002.633.002 9.133 0 18.031-1.489 26.444-4.313v13.297l-26.452 31.242-26.452-31.242v-13.402c8.13 2.787 16.806 4.349 25.827 4.416zm-41.861 24.093 27.55 32.539-16.172 16.172-32.19-45.546c6.673-1.807 13.64-2.892 20.812-3.165zm84.976-.001c7.122.265 14.083 1.321 20.809 3.127l-32.191 45.583-16.169-16.169zm-174.808 93.354c0-35.078 19.435-65.697 48.099-81.67l42.677 60.384c1.872 2.648 4.817 4.336 8.048 4.612.312.026.624.04.935.04 2.904 0 5.707-1.15 7.778-3.222l24.782-24.782 24.782 24.782c2.294 2.293 5.482 3.457 8.715 3.182 3.232-.276 6.178-1.965 8.049-4.615l42.686-60.444c4.543 2.536 8.906 5.472 13.055 8.798 14.944 11.982 25.907 28.4 31.261 46.626-9.682 13.653-16.186 29.71-18.422 47.085h-242.445zm346.504 117.167c-45.723 0-82.922-37.199-82.922-82.922s37.199-82.922 82.922-82.922 82.922 37.199 82.922 82.922-37.199 82.922-82.922 82.922z"/><path d="m199.482 182.893c-4.703-3.846-11.632-3.153-15.479 1.549-2.572 3.145-6.374 4.948-10.429 4.948-4.033 0-7.821-1.787-10.393-4.904-3.867-4.685-10.799-5.351-15.485-1.482-4.686 3.867-5.35 10.8-1.482 15.485 6.766 8.199 16.738 12.901 27.361 12.901 10.682 0 20.689-4.745 27.458-13.018 3.844-4.702 3.151-11.633-1.551-15.479z"/></g></g><g/><g/><g/><g/><g/><g/><g/><g/><g/><g/><g/><g/><g/><g/><g/></svg>