<svg id="Capa_1" enable-background="new 0 0 512 512" viewBox="0 0 512 512" xmlns="http://www.w3.org/2000/svg" fill="#E6ECF2"><g><path d="m407.078 255.506c-13.356 0-26.135 2.513-37.895 7.084v-59.029c0-6.075-4.925-11-11-11h-261.643l-26.491-69.473c-6.483-17.001-25.588-25.558-42.592-19.077-8.236 3.141-14.756 9.301-18.359 17.345-3.603 8.045-3.858 17.011-.717 25.247l17.524 45.957h-14.905c-6.075 0-11 4.925-11 11v72.534c0 72.233 58.767 131 131 131h107.184c23.911 0 47.4-6.618 67.718-18.868 12.215 44.406 52.944 77.123 101.177 77.123 57.854 0 104.922-47.068 104.922-104.922-.001-57.853-47.069-104.921-104.923-104.921zm-67.962 25.056h-317.017c-.06-1.482-.099-2.969-.099-4.466v-17.534h325.184v15.771c-2.791 1.947-5.483 4.026-8.068 6.229zm-310.18-141.796c-1.046-2.745-.962-5.734.239-8.415 1.201-2.682 3.375-4.735 6.12-5.782 5.667-2.163 12.036.691 14.197 6.359l23.502 61.634h-23.545zm318.248 75.796v22h-325.184v-22zm-109 170.534h-107.184c-50.978 0-93.888-35.179-105.744-82.534h294.346c-11.017 16.599-17.446 36.495-17.446 57.867 0 1.293.032 2.578.078 3.859-18.672 13.624-40.694 20.808-64.05 20.808zm168.894 58.255c-45.723 0-82.922-37.199-82.922-82.922 0-45.724 37.199-82.922 82.922-82.922s82.922 37.198 82.922 82.922c0 45.723-37.199 82.922-82.922 82.922z"/><g fill="#0496FF"><path d="m407.078 349.429c-4.362 0-7.912-3.549-7.912-7.912 0-4.362 3.549-7.912 7.912-7.912h20c6.075 0 11-4.925 11-11s-4.925-11-11-11h-9v-3.661c0-6.075-4.925-11-11-11s-11 4.925-11 11v5.766c-11.064 4.393-18.912 15.197-18.912 27.807 0 16.494 13.418 29.912 29.912 29.912 4.362 0 7.912 3.549 7.912 7.912s-3.549 7.912-7.912 7.912h-20c-6.075 0-11 4.925-11 11s4.925 11 11 11h9v3.661c0 6.075 4.925 11 11 11s11-4.925 11-11v-5.766c11.064-4.393 18.912-15.197 18.912-27.807 0-16.494-13.419-29.912-29.912-29.912z"/><path d="m192.37 65.428c4.295-4.296 4.295-11.261 0-15.557-4.296-4.296-11.261-4.296-15.557 0-17.378 17.379-17.378 45.656 0 63.035 8.801 8.801 8.801 23.121 0 31.921-4.295 4.296-4.295 11.261 0 15.557 2.148 2.148 4.963 3.222 7.778 3.222s5.63-1.074 7.778-3.222c17.378-17.379 17.378-45.656 0-63.035-8.8-8.801-8.8-23.12.001-31.921z"/><path d="m248.946 90.51c0-2.584 1.006-5.013 2.833-6.839 4.296-4.295 4.296-11.26 0-15.556-4.296-4.297-11.261-4.296-15.556 0-5.982 5.982-9.277 13.936-9.277 22.396s3.294 16.414 9.276 22.396c1.827 1.827 2.833 4.256 2.833 6.839 0 2.584-1.006 5.013-2.833 6.839-4.296 4.295-4.296 11.26 0 15.556 2.148 2.148 4.963 3.222 7.778 3.222s5.63-1.074 7.778-3.222c5.982-5.982 9.277-13.936 9.277-22.396s-3.294-16.414-9.276-22.396c-1.827-1.826-2.833-4.256-2.833-6.839z"/><path d="m130.128 90.51c0-2.584 1.006-5.013 2.833-6.839 4.296-4.295 4.296-11.26 0-15.556-4.296-4.297-11.261-4.296-15.556 0-5.982 5.982-9.277 13.936-9.277 22.396s3.294 16.414 9.276 22.396c1.827 1.827 2.833 4.256 2.833 6.839 0 2.584-1.006 5.013-2.833 6.839-4.296 4.295-4.296 11.26 0 15.556 2.148 2.148 4.963 3.222 7.778 3.222s5.63-1.074 7.778-3.222c5.982-5.982 9.277-13.936 9.277-22.396s-3.294-16.414-9.276-22.396c-1.827-1.826-2.833-4.256-2.833-6.839z"/></g></g><g/><g/><g/><g/><g/><g/><g/><g/><g/><g/><g/><g/><g/><g/><g/></svg>