<svg id="Capa_1" enable-background="new 0 0 512 512" viewBox="0 0 512 512" xmlns="http://www.w3.org/2000/svg" fill="#052438"><g><g fill="#0496FF"><path d="m437.02 74.981c-48.353-48.353-112.64-74.981-181.02-74.981s-132.667 26.628-181.02 74.981c-48.351 48.352-74.98 112.639-74.98 181.019s26.629 132.667 74.98 181.019c48.353 48.353 112.64 74.981 181.02 74.981s132.667-26.628 181.02-74.981c48.351-48.352 74.98-112.639 74.98-181.019s-26.629-132.667-74.98-181.019zm-15.557 346.482c-44.197 44.197-102.959 68.537-165.463 68.537s-121.266-24.34-165.463-68.537-68.537-102.96-68.537-165.463 24.34-121.266 68.537-165.463 102.959-68.537 165.463-68.537 121.266 24.34 165.463 68.537 68.537 102.96 68.537 165.463-24.34 121.266-68.537 165.463z"/><path d="m215.05 250.281-114.703 114.703c-22.512-31.985-34.347-69.412-34.347-108.984 0-104.766 85.233-190 190-190 39.572 0 76.999 11.835 108.983 34.347l-41.582 41.583 15.557 15.557 50.533-50.534c2.21-2.21 3.376-5.257 3.205-8.378-.17-3.121-1.66-6.022-4.098-7.979-37.435-30.048-84.526-46.596-132.598-46.596-116.897 0-212 95.103-212 212 0 48.072 16.548 95.163 46.596 132.599 1.956 2.438 4.857 3.928 7.979 4.099.2.011.4.016.601.016 2.908 0 5.709-1.153 7.777-3.222l123.654-123.654z"/><path d="m421.404 123.401c-1.956-2.438-4.857-3.928-7.979-4.099-3.105-.162-6.167.995-8.378 3.206l-124.07 124.072 15.557 15.557 115.12-115.12c22.511 31.984 34.346 69.411 34.346 108.983 0 104.766-85.233 190-190 190-39.572 0-76.999-11.835-108.983-34.347l75.681-75.681-15.557-15.557-84.632 84.633c-2.21 2.21-3.376 5.257-3.205 8.378.17 3.121 1.66 6.022 4.098 7.979 37.435 30.047 84.526 46.595 132.598 46.595 116.897 0 212-95.103 212-212 0-48.072-16.548-95.163-46.596-132.599z"/></g><path d="m336.881 110.044c-3.289-1.994-7.382-2.123-10.791-.344l-50.018 26.108h-40.143l-50.019-26.108c-3.409-1.779-7.501-1.65-10.791.344s-5.299 5.561-5.299 9.407v44.123c0 3.597 1.759 6.967 4.709 9.023l43.469 30.13-16.044 142.274c-.336 2.98.56 5.968 2.479 8.272l43.115 51.765c2.09 2.509 5.187 3.96 8.452 3.96s6.362-1.451 8.452-3.96l43.115-51.765c1.919-2.305 2.814-5.292 2.479-8.272l-16.044-142.274 43.469-30.13c2.95-2.057 4.709-5.426 4.709-9.023v-44.123c0-3.846-2.009-7.413-5.299-9.407zm-66.113 47.765 9.038 27.935-23.806 15.771-23.806-15.771 9.038-27.935zm-78.948-20.207 28.084 14.66-6.64 20.523-21.444-14.95zm95.838 205.2-31.658 38.01-31.658-38.01 14.256-126.426 11.327 7.504c1.841 1.22 3.958 1.83 6.075 1.83s4.234-.61 6.075-1.83l11.327-7.504zm32.522-184.968-21.444 14.95-6.64-20.523 28.084-14.66z"/></g><g/><g/><g/><g/><g/><g/><g/><g/><g/><g/><g/><g/><g/><g/><g/></svg>