<svg id="Capa_1" enable-background="new 0 0 512 512" viewBox="0 0 512 512" xmlns="http://www.w3.org/2000/svg" fill="#052438"><g><g fill="#0496FF"><path d="m76.411 313.915c0 6.075 4.925 11 11 11s11-4.925 11-11v-2.756c8.583-4.116 14.525-12.891 14.525-23.03 0-14.075-11.45-25.525-25.525-25.525-1.944 0-3.525-1.581-3.525-3.525s1.581-3.525 3.525-3.525h15.361c6.075 0 11-4.925 11-11s-4.925-11-11-11h-4.361v-.261c0-6.075-4.925-11-11-11s-11 4.925-11 11v2.756c-8.583 4.116-14.525 12.891-14.525 23.03 0 14.075 11.45 25.525 25.525 25.525 1.944 0 3.525 1.581 3.525 3.525s-1.581 3.525-3.525 3.525h-15.361c-6.075 0-11 4.925-11 11s4.925 11 11 11h4.361z"/><path d="m457 262.604h-21.411v-21.411c0-6.075-4.925-11-11-11s-11 4.925-11 11v21.411h-21.411c-6.075 0-11 4.925-11 11s4.925 11 11 11h21.411v21.411c0 6.075 4.925 11 11 11s11-4.925 11-11v-21.411h21.411c6.075 0 11-4.925 11-11s-4.925-11-11-11z"/><path d="m301.111 90.918-38.564-28.564c-3.89-2.881-9.205-2.88-13.094 0l-38.564 28.564c-4.882 3.616-5.908 10.505-2.292 15.387 2.815 3.8 7.609 5.251 11.899 4.008v19.862c0 6.075 4.925 11 11 11h49.008c6.075 0 11-4.925 11-11v-19.857c1.001.29 2.027.44 3.052.44 3.367 0 6.69-1.54 8.848-4.453 3.616-4.882 2.589-11.77-2.293-15.387zm-58.615 28.257v-24.29l13.504-10.003 13.504 10.002v24.291z"/><path d="m413.589 431.838h-90.902v22h101.902c6.075 0 11-4.925 11-11v-92.823h-22z"/><path d="m98.411 350.016h-22v92.823c0 6.075 4.925 11 11 11h101.903v-22h-90.903z"/><path d="m98.411 114.604h81.178v-22h-92.178c-6.075 0-11 4.925-11 11v93.589h22z"/><path d="m413.589 197.193h22v-93.589c0-6.075-4.925-11-11-11h-92.178v22h81.178z"/></g><g><path d="m289.884 396.942c7.518-8.191 12.116-19.103 12.116-31.072 0-25.364-20.636-46-46-46s-46 20.636-46 46c0 11.968 4.598 22.881 12.116 31.072-30.015 13.113-51.053 43.071-51.053 77.864v10c0 6.075 4.925 11 11 11h147.873c6.075 0 11-4.925 11-11v-10c.001-34.792-21.037-64.751-51.052-77.864zm-57.884-31.072c0-13.234 10.766-24 24-24 13.233 0 24 10.766 24 24s-10.767 24-24 24c-13.234 0-24-10.766-24-24zm-38.929 107.937c.537-34.243 28.56-61.937 62.929-61.937s62.392 27.693 62.929 61.937z"/><path d="m87.411 186.193c-48.199 0-87.411 39.213-87.411 87.411s39.212 87.411 87.411 87.411 87.411-39.212 87.411-87.411-39.212-87.411-87.411-87.411zm0 152.823c-36.068 0-65.411-29.344-65.411-65.412s29.343-65.411 65.411-65.411 65.411 29.343 65.411 65.411-29.343 65.412-65.411 65.412z"/><path d="m424.589 186.193c-48.198 0-87.411 39.212-87.411 87.411s39.213 87.411 87.411 87.411 87.411-39.212 87.411-87.411-39.213-87.411-87.411-87.411zm0 152.823c-36.067 0-65.411-29.343-65.411-65.411s29.344-65.411 65.411-65.411 65.411 29.343 65.411 65.41-29.344 65.412-65.411 65.412z"/><path d="m256 191.016c48.198 0 87.411-39.212 87.411-87.411s-39.213-87.412-87.411-87.412c-48.199 0-87.411 39.212-87.411 87.411s39.212 87.412 87.411 87.412zm0-152.823c36.067 0 65.411 29.343 65.411 65.411s-29.344 65.412-65.411 65.412c-36.068 0-65.411-29.343-65.411-65.411s29.343-65.412 65.411-65.412z"/></g></g><g/><g/><g/><g/><g/><g/><g/><g/><g/><g/><g/><g/><g/><g/><g/></svg>