<svg id="Capa_1" enable-background="new 0 0 512.002 512.002" viewBox="0 0 512.002 512.002" xmlns="http://www.w3.org/2000/svg" fill="#052438"><g><path d="m387.437 396.08c-4.362 0-7.912-3.549-7.912-7.912s3.55-7.912 7.912-7.912h20c6.075 0 11-4.925 11-11s-4.925-11-11-11h-9v-3.661c0-6.075-4.925-11-11-11s-11 4.925-11 11v5.766c-11.064 4.393-18.912 15.197-18.912 27.807 0 16.493 13.419 29.912 29.912 29.912 4.362 0 7.912 3.549 7.912 7.912s-3.55 7.912-7.912 7.912h-20c-6.075 0-11 4.925-11 11s4.925 11 11 11h9v3.662c0 6.075 4.925 11 11 11s11-4.925 11-11v-5.766c11.064-4.393 18.912-15.197 18.912-27.807 0-16.494-13.419-29.913-29.912-29.913z" fill="#0496FF"/><path d="m387.437 302.159c-24.694 0-47.419 8.58-65.362 22.909l-15.871-37.581h33.741c6.075 0 11-4.925 11-11v-44c0-4.402-2.592-8.189-6.327-9.947v-4.053c0-22.607-18.393-41-41-41h-3v-22h11.322c6.075 0 11-4.925 11-11s-4.925-11-11-11h-140.05l-27.332-84.043c-4.543-13.971-14.255-25.336-27.347-32.002-10.267-5.228-21.65-7.059-32.823-5.42l-1.438-4.422c-1.879-5.778-8.088-8.936-13.863-7.059l-41.843 13.608c-5.777 1.879-8.938 8.085-7.059 13.863l62.921 193.475h-13.062c-6.075 0-11 4.925-11 11v44c0 6.075 4.925 11 11 11h33.753l-15.946 37.759c-10.544-2.036-21.762 1.091-29.676 9.005-7.019 7.019-10.482 16.709-9.502 26.587.981 9.891 6.291 18.725 14.566 24.238 42.031 27.999 91.049 42.799 141.756 42.799 26.674 0 52.8-4.067 77.885-12.079 4.445 53.791 49.638 96.206 104.557 96.206 57.854 0 104.922-47.068 104.922-104.922s-47.067-104.921-104.922-104.921zm-83.818-102.672c10.477 0 19 8.523 19 19v3h-22v-22zm-151.11 22-21.464-66h24.865l11.838 36.402c1.474 4.531 5.697 7.598 10.461 7.598h100.409v22zm126.11-66v22h-92.419l-7.155-22zm-171.391-118.441c7.855 4 13.682 10.819 16.408 19.201l25.12 77.24h-24.866l-32.532-100.031c5.448-.156 10.879 1.048 15.87 3.59zm-62.719-5.377 20.921-6.804 63.944 196.622h-23.134zm36.535 211.818h247.902v22h-247.902zm201.279 44 20.079 47.547c-29.381 17.583-62.865 26.841-97.407 26.841-34.531 0-68.01-9.26-97.394-26.848l20.076-47.54zm-206.887 79.279c-2.768-1.843-4.543-4.796-4.871-8.101-.192-1.934-.036-5.657 3.176-8.868 3.688-3.689 9.577-4.231 14.001-1.289 34.783 23.137 75.328 35.366 117.252 35.366 29.917 0 59.126-6.227 86.04-18.192-3.615 8.385-6.163 17.332-7.481 26.67-25.154 8.968-51.545 13.522-78.559 13.522-46.351.001-91.152-13.523-129.558-39.108zm312.001 123.236c-45.724 0-82.922-37.199-82.922-82.922s37.198-82.922 82.922-82.922 82.922 37.199 82.922 82.922-37.198 82.922-82.922 82.922z"/></g><g/><g/><g/><g/><g/><g/><g/><g/><g/><g/><g/><g/><g/><g/><g/></svg>