<svg id="Capa_1" enable-background="new 0 0 512 512" viewBox="0 0 512 512" xmlns="http://www.w3.org/2000/svg" fill="#E6ECF2"><g><g><path d="m464.834 387.163-8.49-8.49c-19.885-19.885-52.24-19.884-72.125 0l-24.772 24.772c-3.221-25.044-24.677-44.457-50.582-44.457h-85.629c-26.979 0-52.342 10.506-71.418 29.582l-104.652 104.652c-3.146 3.146-4.087 7.877-2.385 11.988 1.703 4.11 5.714 6.791 10.163 6.791h136.534c2.917 0 5.715-1.159 7.778-3.222l23.776-23.776h122.649c23.775 0 46.128-9.259 62.939-26.07l56.212-56.212c4.298-4.297 4.298-11.262.002-15.558zm-71.769 56.212c-12.656 12.657-29.484 19.627-47.383 19.627h-127.205c-2.917 0-5.715 1.159-7.778 3.222l-23.777 23.776h-105.421l85.873-85.874c14.921-14.921 34.76-23.139 55.861-23.139h85.629c15.99 0 29 13.01 29 29v1.007h-66.627c-6.075 0-11 4.925-11 11s4.925 11 11 11h74.445c9.885 0 19.177-3.85 26.165-10.838l27.928-27.927c11.307-11.308 29.705-11.308 41.012 0l.712.712z"/><path d="m98.502 129.729h9.571v177.987c0 6.075 4.925 11 11 11h273.846c6.075 0 11-4.925 11-11v-177.987h9.571c6.075 0 11-4.925 11-11v-44c0-6.075-4.925-11-11-11h-88.202c3.459-6.18 5.44-13.294 5.44-20.865.001-23.635-19.228-42.864-42.864-42.864-12.638 0-24.012 5.501-31.864 14.23-7.852-8.729-19.226-14.23-31.864-14.23-23.636 0-42.864 19.229-42.864 42.864 0 7.571 1.981 14.685 5.44 20.865h-88.21c-6.075 0-11 4.925-11 11v44c0 6.075 4.925 11 11 11zm31.571 0h92.923v166.987h-92.923zm136.923-44v210.987h-22v-210.987zm114.923 210.987h-92.923v-166.987h92.923zm20.571-188.987h-113.494v-22h113.494zm-114.626-85.729c11.505 0 20.864 9.36 20.864 20.864 0 11.505-9.359 20.865-20.864 20.865h-20.864v-20.865c0-11.504 9.359-20.864 20.864-20.864zm-84.593 20.864c0-11.504 9.359-20.864 20.864-20.864s20.865 9.36 20.865 20.864v20.865h-20.864c-11.505 0-20.865-9.36-20.865-20.865zm-93.769 42.865h113.494v22h-113.494z"/></g><g fill="#0496FF"><path d="m501 202.222h-63.041c-6.075 0-11 4.925-11 11s4.925 11 11 11h63.041c6.075 0 11-4.925 11-11s-4.925-11-11-11z"/><path d="m429.823 188.035c2.256 0 4.532-.692 6.491-2.127l26.663-19.531c4.901-3.59 5.964-10.474 2.374-15.375-3.591-4.9-10.475-5.963-15.374-2.374l-26.663 19.531c-4.901 3.59-5.964 10.474-2.374 15.375 2.156 2.942 5.497 4.501 8.883 4.501z"/><path d="m462.978 260.068-26.663-19.531c-4.9-3.591-11.784-2.526-15.374 2.374-3.59 4.901-2.527 11.784 2.374 15.374l26.663 19.531c1.959 1.436 4.235 2.127 6.491 2.127 3.387 0 6.729-1.56 8.883-4.501 3.589-4.901 2.527-11.784-2.374-15.374z"/><path d="m85.041 213.222c0-6.075-4.925-11-11-11h-63.041c-6.075 0-11 4.925-11 11s4.925 11 11 11h63.041c6.075 0 11-4.925 11-11z"/><path d="m88.686 168.16-26.663-19.531c-4.9-3.59-11.785-2.526-15.374 2.374-3.59 4.901-2.527 11.784 2.374 15.375l26.663 19.531c1.959 1.436 4.235 2.127 6.491 2.127 3.387 0 6.729-1.56 8.883-4.5 3.589-4.903 2.527-11.786-2.374-15.376z"/><path d="m75.686 240.537-26.663 19.531c-4.901 3.59-5.964 10.473-2.374 15.374 2.155 2.942 5.496 4.501 8.883 4.501 2.256 0 4.532-.692 6.491-2.127l26.663-19.531c4.901-3.59 5.964-10.473 2.374-15.374-3.591-4.901-10.475-5.964-15.374-2.374z"/></g></g><g/><g/><g/><g/><g/><g/><g/><g/><g/><g/><g/><g/><g/><g/><g/></svg>