<svg id="Capa_1" enable-background="new 0 0 512 512" viewBox="0 0 512 512" xmlns="http://www.w3.org/2000/svg" fill="#052438"><g><g><path d="m501 508.433h-490c-3.824 0-7.374-1.986-9.374-5.245-2.001-3.259-2.166-7.323-.436-10.733l245-482.867c1.875-3.695 5.667-6.023 9.81-6.023s7.935 2.328 9.81 6.023l245 482.867c1.73 3.41 1.565 7.474-.436 10.733s-5.55 5.245-9.374 5.245zm-472.084-22h454.168l-227.084-447.556z"/></g><g><path d="m257.964 457.465c-4.905.141-9.826-.698-14.412-2.671-18.075-7.775-26.869-29.949-19.116-47.972l23.087-53.674h-36.994c-12.467 0-23.942-6.257-30.695-16.736-6.753-10.48-7.709-23.514-2.558-34.867l47.452-104.576c8.32-18.334 30.005-26.483 48.339-18.165 17.713 8.037 26.158 30.729 18.166 48.341l-24.036 52.971h35.782c12.321 0 23.722 6.143 30.498 16.434 6.776 10.292 7.915 23.193 3.046 34.511 0 0-44.937 104.474-44.998 104.616-5.556 12.918-19.495 21.383-33.561 21.788zm.037-259.872c-5.505.059-10.866 3.237-13.239 8.467l-47.452 104.575c-2.047 4.513-1.667 9.694 1.017 13.861 2.684 4.166 7.246 6.653 12.202 6.653h53.7c3.7 0 7.152 1.86 9.187 4.951 2.035 3.09 2.38 6.997.918 10.396 0 0-29.663 68.962-29.688 69.02-3.133 7.283.334 15.945 7.598 19.069 7.275 3.129 15.943-.328 19.07-7.598l44.999-104.617c1.935-4.499 1.483-9.628-1.211-13.719-2.694-4.09-7.225-6.532-12.123-6.532h-52.853c-3.739 0-7.222-1.899-9.247-5.042s-2.315-7.099-.771-10.503c0 0 30.97-68.253 31.089-68.516 3.218-7.093-.179-16.022-7.221-19.217-1.917-.872-3.956-1.27-5.975-1.248z" fill="#0496FF"/></g></g><g/><g/><g/><g/><g/><g/><g/><g/><g/><g/><g/><g/><g/><g/><g/></svg>