<svg id="Capa_1" enable-background="new 0 0 512.015 512.015" viewBox="0 0 512.015 512.015" xmlns="http://www.w3.org/2000/svg" fill="#052438"><g><path d="m363.771 296.496c-81.742 0-148.244-66.502-148.244-148.244s66.501-148.245 148.244-148.245 148.244 66.503 148.244 148.245-66.502 148.244-148.244 148.244zm0-274.489c-69.611 0-126.244 56.633-126.244 126.244s56.633 126.244 126.244 126.244 126.244-56.633 126.244-126.244-56.633-126.244-126.244-126.244z" fill="#0496FF"/><g><path d="m364.652 216.934c-5.749 0-10.893-3.628-12.819-9.051l-39.469-113.707c-1.992-5.739 1.045-12.007 6.785-13.999 5.739-1.991 12.006 1.045 13.999 6.785l31.331 90.262 29.869-89.91c1.915-5.765 8.14-8.888 13.907-6.971 5.766 1.915 8.887 8.142 6.971 13.907l-37.668 113.388c-1.888 5.552-7.027 9.258-12.813 9.297-.032-.001-.063-.001-.093-.001z"/></g><path d="m316.812 512.007h-294.555c-8.034 0-15.228-4.154-19.245-11.111-4.017-6.958-4.017-15.265 0-22.223l147.278-255.091c4.017-6.957 11.211-11.111 19.244-11.111 8.034 0 15.229 4.154 19.246 11.111l147.277 255.092c4.017 6.958 4.017 15.265 0 22.223-4.017 6.957-11.212 11.11-19.245 11.11zm-294.659-22.006c.003 0 .04.007.104.007h294.554c.066 0 .103-.007.111-.01.049-.03.127-.164.127-.229-.001-.002-.013-.037-.046-.094l-147.276-255.093c-.033-.058-.058-.086-.064-.091-.05-.028-.206-.028-.263.004-.001.002-.025.03-.058.087l-147.277 255.092c-.033.058-.045.093-.047.101.001.058.079.193.135.226z"/><path d="m169.529 446.964c-1.485 0-2.994-.302-4.44-.941-5.557-2.455-8.071-8.951-5.616-14.507l12.25-27.723h-21.263c-3.72 0-7.188-1.88-9.217-4.997-2.03-3.117-2.348-7.049-.844-10.451l19.075-43.152c2.456-5.557 8.952-8.07 14.508-5.613 5.557 2.456 8.07 8.952 5.614 14.508l-12.247 27.704h21.26c3.719 0 7.187 1.88 9.217 4.996 2.03 3.117 2.348 7.048.845 10.45l-19.074 43.169c-1.817 4.111-5.845 6.557-10.068 6.557z" fill="#0496FF"/></g><g/><g/><g/><g/><g/><g/><g/><g/><g/><g/><g/><g/><g/><g/><g/></svg>