<svg id="Capa_1" enable-background="new 0 0 512 512" viewBox="0 0 512 512" xmlns="http://www.w3.org/2000/svg" fill="#052438"><g><path d="m127.558 82.996c-6.075 0-11-4.925-11-11v-49.996h-47.444v49.996c0 6.075-4.925 11-11 11s-11-4.925-11-11v-50.83c0-11.671 9.495-21.166 21.166-21.166h49.111c11.671 0 21.166 9.495 21.166 21.166v50.83c.001 6.075-4.924 11-10.999 11z" fill="#0496FF"/><path d="m453.886 82.996c-6.075 0-11-4.925-11-11v-49.996h-47.443v49.996c0 6.075-4.925 11-11 11s-11-4.925-11-11v-50.83c-.001-11.671 9.495-21.166 21.165-21.166h49.111c11.671 0 21.166 9.495 21.166 21.166v50.83c.001 6.075-4.924 11-10.999 11z" fill="#0496FF"/><path d="m490.834 159.019c11.671 0 21.166-9.495 21.166-21.166v-55.691c0-11.671-9.495-21.166-21.166-21.166h-158.614v-39.83c0-11.671-9.495-21.166-21.166-21.166h-110.108c-11.671 0-21.166 9.495-21.166 21.166v39.83h-158.614c-11.671 0-21.166 9.495-21.166 21.166v55.692c0 11.671 9.495 21.166 21.166 21.166h8.085v254.957h-8.085c-11.671 0-21.166 9.495-21.166 21.166v55.691c0 11.671 9.495 21.166 21.166 21.166h469.668c11.671 0 21.166-9.495 21.166-21.166v-55.691c0-11.671-9.495-21.166-21.166-21.166h-8.085v-254.958zm-289.054-137.019h108.44v38.996h-108.44zm-179.78 60.996h468v54.024h-468zm468 407.004h-468v-54.023h468zm-29.251-76.023h-409.498v-254.958h409.498z"/><g fill="#0496FF"><path d="m157.855 297.498h-48.711c-6.075 0-11-4.925-11-11s4.925-11 11-11h48.711c6.075 0 11 4.925 11 11s-4.924 11-11 11z"/><path d="m402.855 275.498h-13.355v-13.355c0-6.075-4.925-11-11-11s-11 4.925-11 11v13.355h-13.355c-6.075 0-11 4.925-11 11s4.925 11 11 11h13.355v13.355c0 6.075 4.925 11 11 11s11-4.925 11-11v-13.355h13.355c6.075 0 11-4.925 11-11s-4.924-11-11-11z"/></g><path d="m256.817 367.66c-1.45 0-2.924-.289-4.341-.898-5.581-2.4-8.159-8.871-5.759-14.451l23.583-54.827h-45.306c-3.739 0-7.222-1.899-9.247-5.042s-2.316-7.099-.771-10.503l31.829-70.145c2.511-5.533 9.031-7.981 14.562-5.472 5.532 2.51 7.982 9.03 5.472 14.562l-24.775 54.6h44.941c3.7 0 7.152 1.86 9.188 4.951 2.034 3.09 2.38 6.997.917 10.396l-30.183 70.173c-1.791 4.164-5.848 6.656-10.11 6.656z"/></g><g/><g/><g/><g/><g/><g/><g/><g/><g/><g/><g/><g/><g/><g/><g/></svg>