<svg id="Capa_1" enable-background="new 0 0 512 512" viewBox="0 0 512 512" xmlns="http://www.w3.org/2000/svg" fill="#E6ECF2"><g><path d="m256 433.102c-97.654 0-177.102-79.448-177.102-177.102s79.448-177.102 177.102-177.102 177.102 79.448 177.102 177.102-79.448 177.102-177.102 177.102zm0-332.204c-85.523 0-155.102 69.578-155.102 155.102 0 85.523 69.578 155.102 155.102 155.102s155.102-69.579 155.102-155.102-69.579-155.102-155.102-155.102z" fill="#0496FF"/><path d="m193.712 287.763c-6.075 0-11-4.925-11-11v-83.051c0-6.075 4.925-11 11-11s11 4.925 11 11v83.051c0 6.075-4.925 11-11 11z"/><path d="m318.288 287.763c-6.075 0-11-4.925-11-11v-83.051c0-6.075 4.925-11 11-11s11 4.925 11 11v83.051c0 6.075-4.925 11-11 11z"/><path d="m297.525 350.051h-83.051c-6.075 0-11-4.925-11-11s4.925-11 11-11h83.051c6.075 0 11 4.925 11 11s-4.924 11-11 11z"/><path d="m427.472 512h-342.943c-46.61 0-84.529-37.919-84.529-84.529v-342.942c0-46.61 37.919-84.529 84.529-84.529h342.943c46.609 0 84.528 37.919 84.528 84.529v342.943c0 46.609-37.919 84.528-84.528 84.528zm-342.943-490c-34.479 0-62.529 28.05-62.529 62.529v342.943c0 34.478 28.05 62.528 62.529 62.528h342.943c34.478 0 62.528-28.05 62.528-62.529v-342.942c0-34.479-28.05-62.529-62.528-62.529z"/></g><g/><g/><g/><g/><g/><g/><g/><g/><g/><g/><g/><g/><g/><g/><g/></svg>