<svg id="Capa_1" enable-background="new 0 0 512 512" viewBox="0 0 512 512" xmlns="http://www.w3.org/2000/svg" fill="#052438"><g id="XMLID_943_"><g fill="#0496FF"><path d="m164.125 282.312h-153.125c-6.075 0-11-4.925-11-11v-199.062c0-6.075 4.925-11 11-11h122.241c6.075 0 11 4.925 11 11s-4.925 11-11 11h-111.241v177.062h142.125c6.075 0 11 4.925 11 11s-4.925 11-11 11z"/><path d="m194.491 144.5c-6.075 0-11-4.925-11-11v-122.5c0-6.075 4.925-11 11-11s11 4.925 11 11v122.5c0 6.075-4.925 11-11 11z"/><path d="m255.741 144.5c-6.075 0-11-4.925-11-11v-122.5c0-6.075 4.925-11 11-11s11 4.925 11 11v122.5c0 6.075-4.925 11-11 11z"/></g><path d="m424.438 336.875c-13.101 0-25.536 2.897-36.707 8.077l-28.856-46.169v-77.72h4.312c19.265 0 34.938 15.673 34.938 34.938 0 6.075 4.925 11 11 11s11-4.925 11-11c0-31.395-25.542-56.938-56.938-56.938h-61.25c-6.075 0-11 4.925-11 11s4.925 11 11 11h34.938v39.25h-161.75v-39.25h34.938c6.075 0 11-4.925 11-11s-4.925-11-11-11h-91.875c-6.075 0-11 4.925-11 11s4.925 11 11 11h34.938v47.653l-36.553 73.105c-9.084-3.199-18.846-4.946-29.01-4.946-48.283 0-87.563 39.28-87.563 87.563s39.28 87.562 87.562 87.562c44.557 0 81.446-33.453 86.873-76.562h41.425c3.875 14.123 15.016 25.264 29.139 29.139v36.423c0 6.075 4.925 11 11 11s11-4.925 11-11v-36.424c17.63-4.837 30.625-20.994 30.625-40.139 0-9.754-3.381-18.727-9.021-25.831l58.411-77.289 22.075 35.32c-19.65 16.071-32.216 40.494-32.216 67.8 0 48.282 39.28 87.562 87.562 87.562s87.565-39.279 87.565-87.561-39.28-87.563-87.562-87.563zm-253.515-54.563h165.952v15.936l-65.995 87.324c-4.624-1.776-9.638-2.76-14.88-2.76-19.145 0-35.301 12.995-40.139 30.625h-41.425c-3.235-25.695-17.648-47.957-38.199-61.752zm-18.739 131.126h-46.823l20.929-41.858c13.445 9.876 22.99 24.748 25.894 41.858zm-64.622 76.562c-36.151 0-65.562-29.411-65.562-65.562s29.411-65.562 65.562-65.562c6.629 0 13.029.998 19.065 2.836l-28.904 57.807c-1.705 3.41-1.522 7.459.481 10.702 2.005 3.243 5.545 5.217 9.357 5.217h64.622c-5.249 30.93-32.219 54.562-64.621 54.562zm168.438-45.938c-10.821 0-19.625-8.804-19.625-19.625s8.804-19.625 19.625-19.625 19.625 8.804 19.625 19.625-8.804 19.625-19.625 19.625zm168.438 45.938c-36.151 0-65.562-29.411-65.562-65.562 0-19.442 8.515-36.926 22.001-48.943l34.233 54.773c2.087 3.339 5.671 5.171 9.339 5.171 1.99 0 4.007-.541 5.819-1.674 5.151-3.22 6.718-10.006 3.498-15.158l-34.249-54.799c7.688-3.172 16.102-4.934 24.921-4.934 36.151 0 65.562 29.411 65.562 65.562s-29.411 65.564-65.562 65.564z"/><path d="m439.491 30.625h-50.25v-19.625c0-6.075-4.925-11-11-11h-245c-6.075 0-11 4.925-11 11v122.5c0 6.075 4.925 11 11 11h245c6.075 0 11-4.925 11-11v-19.625h50.25c6.075 0 11-4.925 11-11v-61.25c0-6.075-4.925-11-11-11zm-72.25 91.875h-223v-100.5h223zm61.25-30.625h-39.25v-39.25h39.25z"/></g><g/><g/><g/><g/><g/><g/><g/><g/><g/><g/><g/><g/><g/><g/><g/></svg>