<svg id="Capa_1" enable-background="new 0 0 512 512" viewBox="0 0 512 512" xmlns="http://www.w3.org/2000/svg" fill="#E6ECF2"><g><path d="m297.526 427.849c-2.414 0-4.788-.794-6.737-2.303-2.689-2.083-4.264-5.294-4.264-8.697v-46.035h-61.051v46.035c0 3.402-1.574 6.613-4.264 8.697-2.689 2.083-6.191 2.805-9.487 1.954-78.204-20.198-132.825-90.721-132.825-171.5s54.62-151.302 132.825-171.499c3.296-.852 6.797-.129 9.487 1.954 2.689 2.083 4.264 5.294 4.264 8.696v46.035h61.051v-46.035c0-3.402 1.574-6.613 4.264-8.696 2.689-2.083 6.192-2.805 9.487-1.954 78.205 20.197 132.825 90.72 132.825 171.499s-54.62 151.302-132.825 171.499c-.908.235-1.832.35-2.75.35zm-83.051-79.035h83.051c6.075 0 11 4.925 11 11v42.149c61.06-21.941 102.576-80.054 102.576-145.963 0-65.91-41.516-124.022-102.576-145.963v42.149c0 6.075-4.925 11-11 11h-83.051c-6.075 0-11-4.925-11-11v-42.149c-61.061 21.941-102.577 80.053-102.577 145.963 0 65.909 41.516 124.022 102.576 145.963v-42.149c.001-6.076 4.925-11 11.001-11z" fill="#0496FF"/><path d="m459.475 512h-406.95c-28.963 0-52.525-23.563-52.525-52.525v-406.95c0-28.962 23.562-52.525 52.525-52.525h406.949c28.964 0 52.526 23.563 52.526 52.525v406.949c0 28.963-23.562 52.526-52.525 52.526zm-406.95-490c-16.832 0-30.525 13.694-30.525 30.525v406.949c0 16.832 13.693 30.526 30.525 30.526h406.949c16.833 0 30.526-13.694 30.526-30.525v-406.95c0-16.831-13.693-30.525-30.525-30.525z"/><path d="m214.475 308.525c-6.075 0-11-4.925-11-11v-83.051c0-6.075 4.925-11 11-11s11 4.925 11 11v83.051c0 6.076-4.925 11-11 11z"/><path d="m297.525 308.525c-6.075 0-11-4.925-11-11v-83.051c0-6.075 4.925-11 11-11s11 4.925 11 11v83.051c0 6.076-4.924 11-11 11z"/></g><g/><g/><g/><g/><g/><g/><g/><g/><g/><g/><g/><g/><g/><g/><g/></svg>