<svg id="Capa_1" enable-background="new 0 0 512 512" viewBox="0 0 512 512" xmlns="http://www.w3.org/2000/svg" fill="#E6ECF2"><g><path d="m292.936 512h-73.873c-14.474 0-26.249-11.775-26.249-26.249v-13.159c0-21.61-11.751-41.776-30.667-52.628l-.825-.476c-19.109-11.092-42.634-11.252-61.399-.417l-11.301 6.524c-6.071 3.506-13.146 4.437-19.918 2.622-6.773-1.815-12.433-6.158-15.939-12.23l-36.937-63.976c-3.506-6.072-4.436-13.146-2.622-19.918 1.814-6.773 6.158-12.433 12.231-15.939l11.35-6.553c18.746-10.823 30.359-31.192 30.309-53.158v-.863c.051-21.992-11.563-42.361-30.309-53.184l-11.35-6.553c-6.072-3.506-10.416-9.166-12.231-15.938-1.814-6.772-.884-13.846 2.622-19.919l36.937-63.976c7.238-12.535 23.322-16.844 35.857-9.608l11.3 6.525c18.764 10.833 42.287 10.677 61.391-.412l.827-.477c18.923-10.856 30.674-31.022 30.674-52.632v-13.157c0-14.474 11.776-26.249 26.25-26.249h73.873c14.474 0 26.249 11.775 26.249 26.249v13.159c0 21.61 11.751 41.776 30.667 52.628l.825.476c19.111 11.093 42.635 11.251 61.399.417l11.3-6.524c12.534-7.237 28.62-2.927 35.857 9.608l36.936 63.976c3.506 6.072 4.436 13.146 2.622 19.919-1.815 6.772-6.158 12.433-12.23 15.938l-11.35 6.553c-18.746 10.823-30.359 31.192-30.309 53.158v.863c-.051 21.992 11.562 42.361 30.309 53.184l11.35 6.553c6.072 3.506 10.416 9.166 12.23 15.939 1.814 6.772.884 13.846-2.622 19.918l-36.936 63.976c-3.506 6.072-9.166 10.415-15.939 12.23-6.77 1.814-13.847.884-19.918-2.622l-11.301-6.524c-18.765-10.835-42.289-10.676-61.391.412l-.827.477c-18.923 10.855-30.674 31.022-30.674 52.632v13.159c.001 14.471-11.774 26.246-26.248 26.246zm-162.858-122.936c14.572 0 29.199 3.8 42.28 11.393l.743.429c25.727 14.759 41.713 42.237 41.713 71.707v13.159c0 2.343 1.906 4.249 4.249 4.249h73.873c2.343 0 4.249-1.906 4.249-4.249v-13.159c0-29.47 15.986-56.948 41.72-71.711l.745-.43c25.888-15.027 57.858-15.195 83.427-.433l11.301 6.524c1.326.766 2.591.595 3.224.424.635-.17 1.814-.654 2.58-1.98l36.937-63.976c.766-1.326.595-2.589.425-3.224-.171-.635-.654-1.814-1.98-2.58l-11.35-6.553c-25.549-14.751-41.377-42.44-41.309-72.262v-.812c-.068-29.797 15.76-57.486 41.309-72.236l11.35-6.553c1.326-.766 1.81-1.945 1.98-2.58s.341-1.898-.425-3.224l-36.937-63.976c-1.172-2.028-3.777-2.728-5.805-1.555l-11.3 6.524c-25.568 14.762-57.539 14.594-83.435-.438l-.743-.429c-25.727-14.759-41.713-42.237-41.713-71.707v-13.157c0-2.343-1.906-4.249-4.249-4.249h-73.873c-2.343 0-4.249 1.906-4.249 4.249v13.159c0 29.47-15.986 56.948-41.72 71.711l-.745.43c-25.886 15.027-57.857 15.195-83.427.433l-11.3-6.525c-2.032-1.172-4.635-.473-5.805 1.555l-36.937 63.976c-.766 1.326-.595 2.589-.425 3.224.171.635.654 1.814 1.98 2.58l11.35 6.553c25.549 14.751 41.377 42.44 41.309 72.262v.813c.068 29.797-15.76 57.486-41.309 72.236l-11.35 6.553c-1.326.766-1.81 1.945-1.98 2.58s-.341 1.898.425 3.224l36.937 63.976c.766 1.326 1.945 1.81 2.58 1.98.634.17 1.898.341 3.224-.424l11.301-6.525c12.653-7.307 26.878-10.956 41.155-10.956z" fill="#0496FF"/><path d="m256 373.743c-64.924 0-117.743-52.819-117.743-117.743s52.819-117.743 117.743-117.743 117.743 52.819 117.743 117.743-52.819 117.743-117.743 117.743zm0-213.486c-52.793 0-95.743 42.95-95.743 95.743s42.95 95.743 95.743 95.743 95.743-42.95 95.743-95.743-42.95-95.743-95.743-95.743z"/><path d="m256.52 311.736c-1.451 0-2.925-.289-4.342-.898-5.581-2.401-8.158-8.871-5.758-14.451l12.644-29.395h-22.834c-3.738 0-7.222-1.899-9.247-5.042-2.024-3.143-2.314-7.099-.77-10.504l20.294-44.724c2.51-5.531 9.028-7.982 14.562-5.472 5.532 2.51 7.982 9.03 5.472 14.562l-13.239 29.178h22.468c3.7 0 7.152 1.86 9.188 4.951 2.034 3.09 2.38 6.997.917 10.396l-19.245 44.742c-1.792 4.164-5.849 6.656-10.11 6.657z" fill="#0496FF"/></g><g/><g/><g/><g/><g/><g/><g/><g/><g/><g/><g/><g/><g/><g/><g/></svg>