<svg id="Layer_1" enable-background="new 0 0 512 512" viewBox="0 0 512 512" xmlns="http://www.w3.org/2000/svg" fill="#E6ECF2"><g><g fill="#0496FF"><path d="m230.397 134.829h-34.527c-6.075 0-11 4.925-11 11s4.925 11 11 11h23.527v36.3c0 6.075 4.925 11 11 11s11-4.925 11-11v-47.3c0-6.076-4.925-11-11-11z"/><path d="m145.829 241.397h48.419c6.075 0 11-4.925 11-11s-4.925-11-11-11h-37.419v-23.527c0-6.075-4.925-11-11-11s-11 4.925-11 11v34.527c0 6.075 4.924 11 11 11z"/><path d="m205.248 281.603c0-6.075-4.925-11-11-11h-48.419c-6.075 0-11 4.925-11 11v34.527c0 6.075 4.925 11 11 11s11-4.925 11-11v-23.527h37.419c6.075 0 11-4.925 11-11z"/><path d="m230.397 307.853c-6.075 0-11 4.925-11 11v36.318h-23.527c-6.075 0-11 4.925-11 11s4.925 11 11 11h34.527c6.075 0 11-4.925 11-11v-47.318c0-6.075-4.925-11-11-11z"/><path d="m281.603 205.45c6.075 0 11-4.925 11-11v-37.621h23.527c6.075 0 11-4.925 11-11s-4.925-11-11-11h-34.527c-6.075 0-11 4.925-11 11v48.621c0 6.075 4.925 11 11 11z"/><path d="m366.171 184.87c-6.075 0-11 4.925-11 11v23.527h-35.639c-6.075 0-11 4.925-11 11s4.925 11 11 11h46.639c6.075 0 11-4.925 11-11v-34.527c0-6.076-4.924-11-11-11z"/><path d="m316.13 355.171h-23.527v-36.318c0-6.075-4.925-11-11-11s-11 4.925-11 11v47.318c0 6.075 4.925 11 11 11h34.527c6.075 0 11-4.925 11-11s-4.924-11-11-11z"/><path d="m366.171 270.603h-47.96c-6.075 0-11 4.925-11 11s4.925 11 11 11h36.96v23.527c0 6.075 4.925 11 11 11s11-4.925 11-11v-34.527c0-6.075-4.924-11-11-11z"/></g><g><path d="m413.991 87.009h-315.982c-6.075 0-11 4.925-11 11v315.981c0 6.075 4.925 11 11 11h315.981c6.075 0 11-4.925 11-11v-315.981c.001-6.075-4.924-11-10.999-11zm-11 315.982h-293.982v-293.982h293.981v293.982z"/><path d="m501 210.313c6.075 0 11-4.925 11-11s-4.925-11-11-11h-26.815v-34.687h26.815c6.075 0 11-4.925 11-11s-4.925-11-11-11h-26.815v-52.81c0-22.607-18.393-41-41-41h-52.81v-26.816c0-6.075-4.925-11-11-11s-11 4.925-11 11v26.815h-34.687v-26.815c0-6.075-4.925-11-11-11s-11 4.925-11 11v26.815h-34.688v-26.815c0-6.075-4.925-11-11-11s-11 4.925-11 11v26.815h-34.688v-26.815c0-6.075-4.925-11-11-11s-11 4.925-11 11v26.815h-34.687v-26.815c0-6.075-4.925-11-11-11s-11 4.925-11 11v26.815h-52.81c-22.607 0-41 18.393-41 41v52.81h-26.815c-6.075 0-11 4.925-11 11s4.925 11 11 11h26.815v34.687h-26.815c-6.075 0-11 4.925-11 11s4.925 11 11 11h26.815v34.688h-26.815c-6.075 0-11 4.925-11 11s4.925 11 11 11h26.815v34.688h-26.815c-6.075 0-11 4.925-11 11s4.925 11 11 11h26.815v34.687h-26.815c-6.075 0-11 4.925-11 11s4.925 11 11 11h26.815v42.81c0 28.122 22.878 51 51 51h42.81v26.815c0 6.075 4.925 11 11 11s11-4.925 11-11v-26.815h34.687v26.815c0 6.075 4.925 11 11 11s11-4.925 11-11v-26.815h34.688v26.815c0 6.075 4.925 11 11 11s11-4.925 11-11v-26.815h34.688v26.815c0 6.075 4.925 11 11 11s11-4.925 11-11v-26.815h34.687v26.815c0 6.075 4.925 11 11 11s11-4.925 11-11v-26.815h52.81c22.607 0 41-18.393 41-41v-52.81h26.815c6.075 0 11-4.925 11-11s-4.925-11-11-11h-26.815v-34.687h26.815c6.075 0 11-4.925 11-11s-4.925-11-11-11h-26.815v-34.688h26.815c6.075 0 11-4.925 11-11s-4.925-11-11-11h-26.815v-34.688h26.815zm-48.815 222.872c0 10.477-8.523 19-19 19h-344.37c-15.991 0-29-13.009-29-29v-344.37c0-10.477 8.523-19 19-19h354.369c10.477 0 19 8.523 19 19v354.37z"/><path d="m196.211 326.789h119.578c6.075 0 11-4.925 11-11v-119.578c0-6.075-4.925-11-11-11h-119.578c-6.075 0-11 4.925-11 11v119.578c0 6.075 4.925 11 11 11zm11-119.578h97.578v97.578h-97.578z"/></g></g><g/><g/><g/><g/><g/><g/><g/><g/><g/><g/><g/><g/><g/><g/><g/></svg>