<svg id="Layer_1" enable-background="new 0 0 512 512" viewBox="0 0 512 512" xmlns="http://www.w3.org/2000/svg" fill="#052438"><g><g fill="#0496FF"><path d="m458.329 37.235h-26.333c-6.075 0-11 4.925-11 11s4.925 11 11 11h26.333c6.075 0 11-4.925 11-11s-4.924-11-11-11z"/><path d="m383.033 37.235h-26.333c-6.075 0-11 4.925-11 11s4.925 11 11 11h26.333c6.075 0 11-4.925 11-11s-4.925-11-11-11z"/><path d="m307.736 37.235h-26.333c-6.075 0-11 4.925-11 11s4.925 11 11 11h26.333c6.075 0 11-4.925 11-11s-4.925-11-11-11z"/><path d="m232.439 37.235h-26.333c-6.075 0-11 4.925-11 11s4.925 11 11 11h26.333c6.075 0 11-4.925 11-11s-4.924-11-11-11z"/><path d="m157.143 37.235h-26.333c-6.075 0-11 4.925-11 11s4.925 11 11 11h26.333c6.075 0 11-4.925 11-11s-4.925-11-11-11z"/><path d="m81.847 37.235h-22.612v-26.235c0-6.075-4.925-11-11-11s-11 4.925-11 11v26.235h-26.235c-6.075 0-11 4.925-11 11s4.925 11 11 11h26.235v22.611c0 6.075 4.925 11 11 11s11-4.925 11-11v-22.611h22.611c6.075 0 11-4.925 11-11s-4.924-11-10.999-11z"/><path d="m48.235 420.996c-6.075 0-11 4.925-11 11v26.333c0 6.075 4.925 11 11 11s11-4.925 11-11v-26.333c0-6.075-4.925-11-11-11z"/><path d="m48.235 345.7c-6.075 0-11 4.925-11 11v26.333c0 6.075 4.925 11 11 11s11-4.925 11-11v-26.333c0-6.076-4.925-11-11-11z"/><path d="m48.235 270.403c-6.075 0-11 4.925-11 11v26.333c0 6.075 4.925 11 11 11s11-4.925 11-11v-26.333c0-6.075-4.925-11-11-11z"/><path d="m48.235 195.106c-6.075 0-11 4.925-11 11v26.333c0 6.075 4.925 11 11 11s11-4.925 11-11v-26.333c0-6.075-4.925-11-11-11z"/><path d="m48.235 119.81c-6.075 0-11 4.925-11 11v26.333c0 6.075 4.925 11 11 11s11-4.925 11-11v-26.333c0-6.075-4.925-11-11-11z"/></g><g><path d="m421.233 203.579c-4.111-1.704-8.843-.761-11.988 2.384l-203.282 203.282c-3.146 3.146-4.087 7.877-2.384 11.988s5.713 6.791 10.163 6.791h203.281c6.075 0 11-4.925 11-11v-203.283c0-4.449-2.68-8.46-6.79-10.162zm-15.21 202.444h-165.725l165.725-165.725z"/><path d="m505.21.838c-4.109-1.703-8.841-.762-11.988 2.384l-490 490c-3.146 3.146-4.087 7.877-2.384 11.988s5.713 6.79 10.162 6.79h490c6.075 0 11-4.925 11-11v-490c0-4.449-2.679-8.46-6.79-10.162zm-15.21 489.162h-452.443l40.898-40.898 5.927 5.927c2.148 2.148 4.963 3.222 7.778 3.222s5.63-1.074 7.778-3.222c4.295-4.296 4.295-11.261 0-15.557l-5.926-5.927 23.898-23.898 5.927 5.927c2.148 2.148 4.963 3.222 7.778 3.222s5.63-1.074 7.778-3.222c4.295-4.296 4.295-11.261 0-15.557l-5.927-5.927 23.898-23.898 5.927 5.927c2.148 2.148 4.963 3.222 7.778 3.222s5.63-1.074 7.778-3.222c4.295-4.296 4.295-11.261 0-15.557l-5.927-5.927 23.898-23.898 5.927 5.927c2.148 2.148 4.963 3.222 7.778 3.222s5.63-1.074 7.778-3.222c4.295-4.296 4.295-11.261 0-15.557l-5.927-5.927 23.898-23.898 5.927 5.927c2.148 2.148 4.963 3.222 7.778 3.222s5.63-1.074 7.778-3.222c4.296-4.296 4.296-11.261 0-15.557l-5.926-5.926 23.898-23.898 5.927 5.927c2.148 2.148 4.963 3.222 7.778 3.222s5.63-1.074 7.778-3.222c4.296-4.296 4.296-11.261 0-15.557l-5.927-5.927 23.898-23.898 5.927 5.927c2.148 2.148 4.963 3.222 7.778 3.222s5.63-1.074 7.778-3.222c4.296-4.296 4.296-11.261 0-15.557l-5.927-5.927 23.883-23.883 5.927 5.927c2.148 2.148 4.963 3.222 7.778 3.222s5.63-1.074 7.778-3.222c4.296-4.296 4.296-11.261 0-15.557l-5.927-5.927 23.898-23.898 5.927 5.927c2.148 2.148 4.963 3.222 7.778 3.222s5.63-1.074 7.778-3.222c4.296-4.296 4.296-11.261 0-15.557l-5.927-5.927 23.898-23.898 5.926 5.926c2.148 2.148 4.963 3.222 7.778 3.222s5.63-1.074 7.778-3.222c4.296-4.296 4.296-11.261 0-15.557l-5.926-5.926 40.916-40.909z"/></g></g><g/><g/><g/><g/><g/><g/><g/><g/><g/><g/><g/><g/><g/><g/><g/></svg>