<svg id="Layer_1" enable-background="new 0 0 512 512" viewBox="0 0 512 512" xmlns="http://www.w3.org/2000/svg" fill="#052438"><g><g><path d="m443.156 353.849h-48.615c-6.075 0-11 4.925-11 11s4.925 11 11 11h48.615c6.075 0 11-4.925 11-11s-4.925-11-11-11z"/><path d="m443.321 136.151h-49.661c-6.075 0-11 4.925-11 11s4.925 11 11 11h49.661c6.075 0 11-4.925 11-11s-4.925-11-11-11z"/><path d="m287.013 224.868c2.148 2.148 4.963 3.222 7.778 3.222s5.63-1.074 7.778-3.222l49.043-49.043c4.296-4.296 4.296-11.261 0-15.557-4.297-4.296-11.26-4.296-15.557 0l-49.043 49.043c-4.295 4.296-4.295 11.261.001 15.557z"/><path d="m365.156 129.422c6.075 0 11-4.925 11-11v-69.12h67c6.075 0 11-4.925 11-11s-4.925-11-11-11h-78c-6.075 0-11 4.925-11 11v80.12c0 6.075 4.925 11 11 11z"/><path d="m265.613 354.445c-1.94-3.49-5.62-5.654-9.613-5.654-51.165 0-92.79-41.625-92.79-92.791s41.625-92.791 92.79-92.791c3.993 0 7.673-2.164 9.613-5.654l53.188-95.654c1.48-2.663 1.791-5.819.856-8.719l-14.676-45.555c-1.463-4.545-5.694-7.627-10.469-7.627h-77.023c-4.776 0-9.006 3.082-10.47 7.627l-12.865 39.938c-14.493 4.294-28.507 10.102-41.796 17.321l-37.348-19.148c-4.248-2.178-9.419-1.366-12.797 2.01l-54.464 54.464c-3.377 3.377-4.189 8.547-2.01 12.797l19.147 37.347c-7.219 13.29-13.027 27.303-17.321 41.796l-39.938 12.866c-4.545 1.464-7.627 5.694-7.627 10.47v77.023c0 4.776 3.082 9.006 7.627 10.47l39.938 12.865c4.294 14.493 10.102 28.507 17.321 41.796l-19.147 37.347c-2.179 4.25-1.367 9.42 2.01 12.797l54.464 54.464c3.377 3.377 8.547 4.19 12.797 2.01l37.347-19.148c13.292 7.221 27.303 13.028 41.797 17.321l12.865 39.938c1.464 4.546 5.694 7.627 10.47 7.627h77.023c4.775 0 9.006-3.082 10.47-7.627l14.676-45.556c.935-2.899.624-6.056-.856-8.719zm20.886 135.555h-60.998l-12.218-37.928c-1.147-3.562-4.026-6.296-7.643-7.258-16.635-4.424-32.626-11.052-47.529-19.697-3.237-1.878-7.208-1.981-10.539-.274l-35.47 18.186-43.131-43.131 18.186-35.471c1.708-3.331 1.604-7.301-.274-10.539-8.645-14.901-15.272-30.893-19.697-47.529-.962-3.616-3.696-6.495-7.257-7.643l-37.929-12.217v-60.997l37.928-12.218c3.562-1.147 6.296-4.026 7.258-7.643 4.425-16.637 11.052-32.628 19.697-47.529 1.878-3.238 1.981-7.208.274-10.539l-18.186-35.471 43.131-43.131 35.47 18.186c3.331 1.708 7.301 1.604 10.539-.274 14.901-8.645 30.893-15.272 47.529-19.697 3.616-.962 6.495-3.696 7.643-7.258l12.218-37.928h60.998l10.754 33.383-47.826 86.012c-60.249 3.418-108.217 53.515-108.217 114.605s47.968 111.187 108.217 114.604l47.826 86.012z"/><path d="m443.156 245h-134.971c-6.075 0-11 4.925-11 11s4.925 11 11 11h134.972c6.075 0 11-4.925 11-11s-4.926-11-11.001-11z"/><path d="m351.612 336.175-49.423-49.423c-4.297-4.296-11.26-4.296-15.557 0-4.296 4.296-4.296 11.261 0 15.557l49.423 49.423c2.148 2.148 4.963 3.222 7.778 3.222s5.63-1.074 7.778-3.222c4.297-4.296 4.297-11.261.001-15.557z"/><path d="m442.248 462.698h-66.092v-69.12c0-6.075-4.925-11-11-11s-11 4.925-11 11v80.12c0 6.075 4.925 11 11 11h77.092c6.075 0 11-4.925 11-11s-4.925-11-11-11z"/></g><g fill="#0496FF"><path d="m473.697 217.698c-21.12 0-38.302 17.182-38.302 38.302s17.182 38.302 38.302 38.302 38.303-17.182 38.303-38.302-17.183-38.302-38.303-38.302zm0 54.604c-8.989 0-16.302-7.313-16.302-16.302s7.313-16.302 16.302-16.302 16.303 7.313 16.303 16.302-7.313 16.302-16.303 16.302z"/><path d="m473.697 326.546c-21.12 0-38.302 17.182-38.302 38.302s17.182 38.303 38.302 38.303 38.303-17.182 38.303-38.302-17.183-38.303-38.303-38.303zm0 54.605c-8.989 0-16.302-7.313-16.302-16.303s7.313-16.302 16.302-16.302 16.303 7.313 16.303 16.303-7.313 16.302-16.303 16.302z"/><path d="m473.697 76.605c21.12 0 38.303-17.183 38.303-38.303s-17.183-38.302-38.303-38.302-38.302 17.182-38.302 38.302 17.182 38.303 38.302 38.303zm0-54.605c8.99 0 16.303 7.313 16.303 16.302s-7.313 16.303-16.303 16.303-16.302-7.313-16.302-16.303 7.313-16.302 16.302-16.302z"/><path d="m473.697 435.395c-21.12 0-38.302 17.183-38.302 38.303s17.182 38.302 38.302 38.302 38.303-17.182 38.303-38.302-17.183-38.303-38.303-38.303zm0 54.605c-8.989 0-16.302-7.313-16.302-16.302s7.313-16.303 16.302-16.303 16.303 7.313 16.303 16.303-7.313 16.302-16.303 16.302z"/><path d="m473.697 108.849c-21.12 0-38.302 17.183-38.302 38.303s17.182 38.302 38.302 38.302 38.303-17.183 38.303-38.303-17.183-38.302-38.303-38.302zm0 54.605c-8.989 0-16.302-7.313-16.302-16.302s7.313-16.303 16.302-16.303 16.303 7.313 16.303 16.302-7.313 16.303-16.303 16.303z"/><path d="m365.156 108.849c-21.12 0-38.303 17.183-38.303 38.303s17.183 38.302 38.303 38.302 38.302-17.182 38.302-38.302-17.182-38.303-38.302-38.303zm0 54.605c-8.989 0-16.303-7.313-16.303-16.302s7.313-16.303 16.303-16.303 16.302 7.313 16.302 16.303-7.312 16.302-16.302 16.302z"/><path d="m365.156 326.546c-21.12 0-38.303 17.182-38.303 38.302s17.183 38.303 38.303 38.303 38.302-17.183 38.302-38.303-17.182-38.302-38.302-38.302zm0 54.605c-8.989 0-16.303-7.313-16.303-16.303s7.313-16.302 16.303-16.302 16.302 7.313 16.302 16.302-7.312 16.303-16.302 16.303z"/><path d="m255.88 194.052c-34.158 0-61.948 27.79-61.948 61.948s27.79 61.948 61.948 61.948c34.159 0 61.949-27.79 61.949-61.948s-27.79-61.948-61.949-61.948zm0 101.896c-22.027 0-39.948-17.921-39.948-39.948s17.921-39.948 39.948-39.948c22.028 0 39.949 17.921 39.949 39.948s-17.921 39.948-39.949 39.948z"/></g></g><g/><g/><g/><g/><g/><g/><g/><g/><g/><g/><g/><g/><g/><g/><g/></svg>