<svg id="Layer_1" enable-background="new 0 0 512.002 512.002" viewBox="0 0 512.002 512.002" xmlns="http://www.w3.org/2000/svg" fill="#E6ECF2"><g><g><path d="m138.834 317.034c6.075 0 11-4.925 11-11v-10.984h30.358c6.075 0 11-4.925 11-11s-4.925-11-11-11h-30.358v-10.984c0-6.075-4.925-11-11-11s-11 4.925-11 11v43.968c0 6.075 4.925 11 11 11z"/><path d="m401.303 118.9c-6.075 0-11 4.925-11 11v10.984h-30.357c-6.075 0-11 4.925-11 11s4.925 11 11 11h30.357v10.984c0 6.075 4.925 11 11 11s11-4.925 11-11v-43.968c0-6.075-4.925-11-11-11z"/><path d="m303.972 304.674c-2.862-5.358-9.524-7.383-14.885-4.52-5.358 2.862-7.382 9.527-4.52 14.885l35.265 66.02-55.296 25.817v-97.02c0-6.075-4.925-11-11-11s-11 4.925-11 11v97.02l-55.297-25.817 35.265-66.02c2.862-5.358.838-12.023-4.52-14.885-5.359-2.862-12.022-.838-14.885 4.52l-102.1 191.144c-2.862 5.358-.838 12.023 4.52 14.885 1.65.881 3.424 1.299 5.173 1.299 3.93 0 7.731-2.111 9.712-5.819l56.454-105.69 65.677 30.663v69.844c0 6.075 4.925 11 11 11s11-4.925 11-11v-69.844l65.676-30.663 56.454 105.69c1.981 3.708 5.782 5.819 9.712 5.819 1.748 0 3.523-.418 5.173-1.299 5.358-2.862 7.382-9.527 4.52-14.885z"/><path d="m277.473 268.789c6.075 0 11-4.925 11-11v-44.092c0-6.075-4.925-11-11-11s-11 4.925-11 11v44.092c0 6.075 4.925 11 11 11z"/><path d="m229.017 268.789c6.075 0 11-4.925 11-11v-44.092c0-6.075-4.925-11-11-11s-11 4.925-11 11v44.092c0 6.075 4.925 11 11 11z"/></g><g fill="#0496FF"><path d="m322.149 248.822h-137.808c-6.075 0-11 4.925-11 11v48.457c0 6.075 4.925 11 11 11h137.808c6.075 0 11-4.925 11-11v-48.457c0-6.075-4.925-11-11-11zm-11 48.457h-115.808v-26.457h115.808z"/><path d="m338.939 80.644h-20.121c-6.075 0-11 4.925-11 11s4.925 11 11 11h20.121c4.918 0 8.919 4.001 8.919 8.918v80.644c0 4.917-4.001 8.918-8.919 8.918h-171.387c-4.917 0-8.918-4.001-8.918-8.918v-80.644c0-4.917 4.001-8.918 8.918-8.918h21.799c6.075 0 11-4.925 11-11s-4.925-11-11-11h-21.799c-17.048 0-30.918 13.87-30.918 30.918v80.644c0 17.048 13.87 30.918 30.918 30.918h171.387c17.049 0 30.919-13.87 30.919-30.918v-80.644c0-17.048-13.87-30.918-30.919-30.918z"/></g><path d="m315.036 0h-123.582c-6.075 0-11 4.925-11 11v157.303c0 6.075 4.925 11 11 11h123.582c6.075 0 11-4.925 11-11v-157.303c0-6.075-4.925-11-11-11zm-11 157.303h-101.582v-135.303h101.582z"/><path d="m253.245 56.972c-18.02 0-32.68 14.66-32.68 32.679s14.66 32.679 32.68 32.679 32.679-14.66 32.679-32.679-14.659-32.679-32.679-32.679zm0 43.359c-5.889 0-10.68-4.791-10.68-10.679s4.791-10.679 10.68-10.679 10.679 4.791 10.679 10.679-4.79 10.679-10.679 10.679z" fill="#0496FF"/></g><g/><g/><g/><g/><g/><g/><g/><g/><g/><g/><g/><g/><g/><g/><g/></svg>