<svg id="Layer_1" enable-background="new 0 0 512 512" viewBox="0 0 512 512" xmlns="http://www.w3.org/2000/svg" fill="#E6ECF2"><g><path d="m501 72.028h-196.44c-6.075 0-11 4.925-11 11s4.925 11 11 11h185.44v395.972h-454.306c-7.551 0-13.694-6.143-13.694-13.694s6.143-13.694 13.694-13.694h31.189c6.075 0 11-4.925 11-11v-357.584h136.621c6.075 0 11-4.925 11-11s-4.925-11-11-11h-136.62v-38.388c0-6.075-4.925-11-11-11h-31.19c-19.682 0-35.694 16.012-35.694 35.694v417.972c0 19.682 16.013 35.694 35.694 35.694h465.306c6.075 0 11-4.925 11-11v-417.972c0-6.075-4.925-11-11-11zm-479-13.694c0-7.551 6.143-13.694 13.694-13.694h20.189v395.972h-20.189c-4.85 0-9.475.972-13.694 2.731z"/><g><g><g><path d="m143.591 447.645c-.96 0-1.937-.127-2.909-.393-5.73-1.567-11.509-3.273-17.177-5.069l-11.18-3.542c-5.792-1.834-8.999-8.017-7.165-13.808 1.834-5.792 8.015-9 13.808-7.165l11.182 3.542c5.392 1.708 10.888 3.331 16.337 4.821 5.86 1.603 9.311 7.653 7.708 13.513-1.338 4.888-5.769 8.101-10.604 8.101z" fill="#0496FF"/></g></g><g><path d="m236.427 462.612c-.195 0-.391-.005-.588-.016-16.015-.844-32.161-2.566-47.991-5.119-5.998-.967-10.076-6.613-9.109-12.611.968-5.997 6.609-10.075 12.611-9.109 15.056 2.428 30.414 4.066 45.646 4.869 6.067.32 10.726 5.497 10.406 11.563-.309 5.871-5.165 10.423-10.975 10.423z" fill="#0496FF"/></g><g><path d="m283.492 462.568c-5.8 0-10.654-4.539-10.974-10.401-.332-6.066 4.317-11.252 10.384-11.583 15.231-.832 30.586-2.499 45.637-4.954 5.997-.978 11.649 3.09 12.627 9.085.978 5.996-3.089 11.649-9.085 12.627-15.823 2.582-31.966 4.334-47.979 5.208-.205.012-.408.018-.61.018z" fill="#0496FF"/></g><g><g><path d="m376.311 447.425c-4.827 0-9.254-3.202-10.599-8.081-1.614-5.857 1.826-11.913 7.683-13.527 2.959-.815 5.989-1.686 9.005-2.588l18.576-5.56c5.818-1.741 11.95 1.564 13.692 7.384s-1.564 11.95-7.384 13.692l-18.578 5.561c-3.17.948-6.355 1.864-9.468 2.722-.977.268-1.961.397-2.927.397z" fill="#0496FF"/></g></g></g><g><g><path d="m232.229 77.413c-6.075 0-11-4.925-11-11v-37.868c0-15.74 12.806-28.545 28.545-28.545h20.396c15.74 0 28.545 12.805 28.545 28.545v37.427c0 6.075-4.925 11-11 11s-11-4.925-11-11v-37.427c0-3.609-2.936-6.545-6.545-6.545h-20.396c-3.609 0-6.545 2.936-6.545 6.545v37.868c0 6.075-4.924 11-11 11z"/></g><path d="m375.299 417.086c19.498-33.133 22.746-73.666 8.506-109.591l-67.94-171.413c-2.239-5.647-8.63-8.411-14.279-6.173-5.647 2.238-8.411 8.631-6.173 14.279l67.94 171.413c9.429 23.789 9.562 50.033.916 73.593l-89.786-226.53c-2.238-5.647-27.367-5.648-29.606 0l-89.32 225.354c-8.508-23.327-8.351-49.286.979-72.825l67.779-171.005c2.238-5.648-.525-12.041-6.173-14.279-5.646-2.239-12.041.525-14.279 6.173l-67.779 171.005c-14.139 35.673-10.924 75.917 8.418 108.825l-7.402 18.676c-2.238 5.648.525 12.041 6.173 14.279 1.33.527 2.701.777 4.05.777 4.378 0 8.518-2.632 10.229-6.95l54.36-137.151h95.537l54.494 137.761c1.7 4.339 5.85 6.991 10.245 6.991 1.334 0 2.691-.245 4.009-.761 5.657-2.215 8.446-8.597 6.23-14.254zm-154.668-133.542 39.049-98.52 39.049 98.52z"/></g><g fill="#0496FF"><path d="m259.973 49.027c-34.789 0-63.091 28.302-63.091 63.091 0 34.788 28.302 63.09 63.091 63.09 34.788 0 63.09-28.302 63.09-63.09s-28.302-63.091-63.09-63.091zm0 104.181c-22.658 0-41.091-18.433-41.091-41.09 0-22.658 18.433-41.091 41.091-41.091 22.657 0 41.09 18.433 41.09 41.091 0 22.657-18.433 41.09-41.09 41.09z"/><circle cx="259.98" cy="112.12" r="11"/></g></g><g/><g/><g/><g/><g/><g/><g/><g/><g/><g/><g/><g/><g/><g/><g/></svg>