<svg id="Layer_1" enable-background="new 0 0 512.004 512.004" viewBox="0 0 512.004 512.004" xmlns="http://www.w3.org/2000/svg" fill="#052438"><g><g><path d="m510.528 133.905-27.468-47.576c-3.038-5.262-9.767-7.063-15.026-4.026-5.261 3.038-7.064 9.765-4.026 15.026l8.234 14.262-18.612 10.746-17.358-30.065c-3.038-5.262-9.766-7.063-15.026-4.026l-55.363 31.964-13.734-23.788c-1.965-3.403-5.596-5.5-9.526-5.5h-16.308v-36.961c0-6.075-4.925-11-11-11h-12.931c-1.832-23.993-21.927-42.959-46.381-42.959s-44.549 18.966-46.381 42.959h-12.932c-6.075 0-11 4.925-11 11v36.959h-16.308c-3.93 0-7.562 2.097-9.526 5.5l-13.734 23.788-55.363-31.962c-5.261-3.036-11.988-1.235-15.026 4.026l-17.358 30.065-18.612-10.746 8.234-14.262c3.038-5.261 1.235-11.989-4.026-15.026-5.26-3.037-11.988-1.234-15.026 4.026l-27.469 47.576c-3.038 5.261-1.235 11.989 4.026 15.026 1.732 1 3.624 1.476 5.49 1.476 3.801 0 7.499-1.973 9.537-5.502l8.234-14.261 18.612 10.746-15.451 26.76c-1.458 2.526-1.854 5.529-1.099 8.347s2.599 5.22 5.125 6.679l55.363 31.964-18.077 31.31c-1.96 3.395-1.965 7.577-.013 10.977l117.047 203.87c1.961 3.416 5.6 5.523 9.54 5.523h7.602c1.827 25.219 22.914 45.182 48.59 45.182s46.763-19.964 48.59-45.182h7.602c3.939 0 7.578-2.107 9.54-5.523l117.046-203.869c1.952-3.4 1.947-7.582-.013-10.977l-18.077-31.31 55.363-31.964c2.526-1.459 4.37-3.861 5.125-6.679s.36-5.821-1.099-8.347l-15.451-26.761 18.612-10.746 8.234 14.261c2.038 3.529 5.735 5.502 9.537 5.502 1.866 0 3.758-.476 5.49-1.476 5.262-3.037 7.065-9.765 4.027-15.026zm-254.526-111.903c12.314 0 22.534 9.12 24.269 20.959h-48.538c1.735-11.839 11.955-20.959 24.269-20.959zm-48.312 42.959h96.624v25.959h-96.624zm-151.213 104.663 32.809-56.825 45.837 26.464-32.808 56.826zm199.525 320.378c-13.536 0-24.747-10.115-26.491-23.182h52.982c-1.744 13.067-12.955 23.182-26.491 23.182zm49.824-45.182h-99.648l-110.722-192.854 80.278-139.045h160.536l80.278 139.045zm103.864-248.733-32.808-56.826 45.837-26.464 32.809 56.825z"/><path d="m256.002 191.106c-20.12 0-36.488 16.369-36.488 36.488s16.369 36.488 36.488 36.488 36.488-16.369 36.488-36.488-16.368-36.488-36.488-36.488zm0 50.977c-7.989 0-14.488-6.5-14.488-14.488s6.5-14.488 14.488-14.488 14.488 6.5 14.488 14.488-6.499 14.488-14.488 14.488z"/></g><path d="m338.42 254.334c2.716-8.467 4.221-17.402 4.214-26.74 0-47.769-38.863-86.632-86.632-86.632s-86.632 38.863-86.632 86.632c.019 10.771 1.913 20.862 5.578 30.577l46.753 131.518c.058.163.127.319.192.478 5.234 13.749 18.546 23.548 34.11 23.548 15.566 0 28.879-9.801 34.111-23.553.096-.093 47.859-134.546 48.306-135.828zm-82.418-91.371c35.638 0 64.632 28.994 64.632 64.632.217 34.783-28.707 64.792-64.632 64.632-27.642 0-51.276-17.448-60.495-41.904-2.669-7.177-4.136-14.717-4.137-22.728 0-35.638 28.994-64.632 64.632-64.632zm24.864 187.593c-6.522-6.084-15.263-9.817-24.864-9.817s-18.342 3.733-24.864 9.817l-16.697-46.969c12.345 6.779 26.51 10.639 41.56 10.639s29.215-3.861 41.56-10.639zm-24.864 41.16c-7.989 0-14.488-6.5-14.488-14.488s6.5-14.488 14.488-14.488 14.488 6.5 14.488 14.488-6.499 14.488-14.488 14.488z" fill="#0496FF"/></g><g/><g/><g/><g/><g/><g/><g/><g/><g/><g/><g/><g/><g/><g/><g/></svg>