<svg id="Layer_1" enable-background="new 0 0 512 512" viewBox="0 0 512 512" xmlns="http://www.w3.org/2000/svg" fill="#E6ECF2"><g><g><g><path d="m256 229.606c-43.877 0-79.573-35.697-79.573-79.574s35.696-79.573 79.573-79.573 79.573 35.697 79.573 79.574-35.696 79.573-79.573 79.573zm0-137.147c-31.746 0-57.573 25.828-57.573 57.574s25.827 57.574 57.573 57.574 57.573-25.828 57.573-57.574-25.827-57.574-57.573-57.574z" fill="#0496FF"/></g></g><g><g><path d="m245 289.065h22v62.641h-22z" fill="#0496FF"/></g><g><path d="m445 351.707h-22v-109.892h-51.16v-22h62.16c6.075 0 11 4.925 11 11z" fill="#0496FF"/></g><g><path d="m89 351.707h-22v-120.892c0-6.075 4.925-11 11-11h62.16v22h-51.16z" fill="#0496FF"/></g><g><path d="m113.532 417.526c6.924-8.141 11.115-18.674 11.115-30.173 0-25.721-20.926-46.646-46.646-46.646s-46.646 20.925-46.646 46.646c0 11.499 4.191 22.032 11.115 30.173-24.94 10.612-42.47 35.359-42.47 64.125v19.349c0 6.075 4.925 11 11 11h134c6.075 0 11-4.925 11-11v-19.349c0-28.766-17.53-53.513-42.468-64.125zm-35.532-54.819c13.59 0 24.646 11.056 24.646 24.646s-11.056 24.647-24.646 24.647-24.646-11.057-24.646-24.647 11.056-24.646 24.646-24.646zm56 127.293h-112v-8.349c0-25.385 19.954-46.193 45-47.574v18.011c0 6.075 4.925 11 11 11s11-4.925 11-11v-18.011c25.046 1.381 45 22.189 45 47.574z"/><path d="m291.532 417.526c6.924-8.141 11.115-18.674 11.115-30.173 0-25.721-20.926-46.646-46.646-46.646s-46.646 20.925-46.646 46.646c0 11.499 4.191 22.032 11.115 30.173-24.94 10.612-42.47 35.359-42.47 64.125v19.349c0 6.075 4.925 11 11 11h134c6.075 0 11-4.925 11-11v-19.349c0-28.766-17.53-53.513-42.468-64.125zm-35.532-54.819c13.59 0 24.646 11.056 24.646 24.646s-11.056 24.647-24.646 24.647-24.646-11.057-24.646-24.647 11.056-24.646 24.646-24.646zm56 127.293h-112v-8.349c0-25.385 19.954-46.193 45-47.574v18.011c0 6.075 4.925 11 11 11s11-4.925 11-11v-18.011c25.046 1.381 45 22.189 45 47.574z"/><path d="m469.532 417.526c6.924-8.141 11.115-18.674 11.115-30.173 0-25.721-20.926-46.646-46.646-46.646s-46.646 20.925-46.646 46.646c0 11.499 4.191 22.032 11.115 30.173-24.94 10.612-42.47 35.359-42.47 64.125v19.349c0 6.075 4.925 11 11 11h134c6.075 0 11-4.925 11-11v-19.349c0-28.766-17.53-53.513-42.468-64.125zm-35.532-54.819c13.59 0 24.646 11.056 24.646 24.646s-11.056 24.647-24.646 24.647-24.646-11.057-24.646-24.647 11.056-24.646 24.646-24.646zm56 127.293h-112v-8.349c0-25.385 19.954-46.193 45-47.574v18.011c0 6.075 4.925 11 11 11s11-4.925 11-11v-18.011c25.046 1.381 45 22.189 45 47.574z"/><path d="m381.336 221.319-7.432-7.432c4.434-8.166 7.989-16.742 10.628-25.636h10.501c6.075 0 11-4.925 11-11v-54.438c0-6.075-4.925-11-11-11h-10.501c-2.639-8.894-6.194-17.47-10.628-25.636l7.432-7.432c4.296-4.296 4.296-11.261 0-15.557l-38.493-38.493c-4.297-4.296-11.26-4.296-15.557 0l-7.432 7.432c-8.166-4.435-16.742-7.99-25.636-10.628v-10.499c0-6.075-4.925-11-11-11h-54.438c-6.075 0-11 4.925-11 11v10.5c-8.894 2.638-17.47 6.194-25.636 10.628l-7.432-7.432c-4.297-4.296-11.26-4.296-15.557 0l-38.491 38.494c-4.296 4.296-4.296 11.261 0 15.557l7.432 7.432c-4.436 8.167-7.99 16.742-10.628 25.636h-10.501c-6.075 0-11 4.925-11 11v54.438c0 6.075 4.925 11 11 11h10.501c2.638 8.894 6.193 17.468 10.628 25.636l-7.432 7.432c-4.296 4.296-4.296 11.261 0 15.557l38.493 38.493c4.297 4.296 11.26 4.296 15.557 0l7.432-7.432c8.166 4.435 16.742 7.99 25.636 10.628v10.5c0 6.075 4.925 11 11 11h54.438c6.075 0 11-4.925 11-11v-10.5c8.894-2.638 17.47-6.194 25.636-10.628l7.432 7.432c4.297 4.296 11.26 4.296 15.557 0l38.493-38.493c4.294-4.298 4.294-11.263-.002-15.559zm-16.025-46.49c-2.802 12.407-7.678 24.168-14.491 34.956-2.746 4.347-2.114 10.017 1.521 13.652l5.66 5.66-22.937 22.937-5.66-5.661c-3.635-3.635-9.305-4.268-13.652-1.522-10.789 6.814-22.55 11.69-34.956 14.491-5.016 1.132-8.577 5.588-8.577 10.73v7.993h-32.438v-7.993c0-5.142-3.562-9.598-8.577-10.73-12.406-2.801-24.167-7.677-34.956-14.491-4.348-2.745-10.017-2.114-13.652 1.522l-5.66 5.661-22.937-22.937 5.66-5.66c3.636-3.636 4.268-9.305 1.521-13.652-6.815-10.791-11.69-22.551-14.491-34.956-1.132-5.016-5.588-8.578-10.729-8.578h-7.993v-32.438h7.993c5.142 0 9.598-3.562 10.73-8.578 2.8-12.404 7.675-24.165 14.49-34.956 2.746-4.347 2.114-10.017-1.521-13.652l-5.66-5.66 22.937-22.937 5.66 5.661c3.635 3.635 9.305 4.269 13.652 1.522 10.789-6.814 22.55-11.69 34.956-14.491 5.016-1.132 8.577-5.588 8.577-10.73v-7.992h32.438v7.993c0 5.142 3.562 9.598 8.577 10.73 12.406 2.801 24.167 7.677 34.956 14.491 4.347 2.745 10.017 2.113 13.652-1.522l5.66-5.661 22.937 22.937-5.66 5.66c-3.636 3.636-4.268 9.305-1.521 13.652 6.813 10.789 11.689 22.549 14.491 34.956 1.132 5.016 5.588 8.577 10.729 8.577h7.993v32.438h-7.993c-5.142 0-9.598 3.562-10.729 8.578z"/></g></g></g><g/><g/><g/><g/><g/><g/><g/><g/><g/><g/><g/><g/><g/><g/><g/></svg>