<svg id="Capa_1" enable-background="new 0 0 512 512" viewBox="0 0 512 512" xmlns="http://www.w3.org/2000/svg" fill="#E6ECF2"><g><g fill="#0496FF"><path d="m440.708 245h-51.708c-6.075 0-11 4.925-11 11s4.925 11 11 11h51.708c6.075 0 11-4.925 11-11s-4.925-11-11-11z"/><path d="m131.975 256c0-6.075-4.925-11-11-11h-49.683c-6.075 0-11 4.925-11 11s4.925 11 11 11h49.683c6.075 0 11-4.925 11-11z"/><path d="m256 378c-6.075 0-11 4.925-11 11v51.708c0 6.075 4.925 11 11 11s11-4.925 11-11v-51.708c0-6.075-4.925-11-11-11z"/><path d="m165.418 341.688c-6.075 0-11 4.925-11 11v56.738h-27.413c-6.075 0-11 4.925-11 11s4.925 11 11 11h29.044c11.231 0 20.369-9.138 20.369-20.369v-58.369c0-6.075-4.924-11-11-11z"/><path d="m384.995 409.427h-27.413v-57.151c0-6.075-4.925-11-11-11s-11 4.925-11 11v58.782c0 11.231 9.138 20.369 20.369 20.369h29.044c6.075 0 11-4.925 11-11s-4.925-11-11-11z"/><path d="m346.582 167.886c6.075 0 11-4.925 11-11v-54.312h27.413c6.075 0 11-4.925 11-11s-4.925-11-11-11h-29.044c-11.231 0-20.369 9.138-20.369 20.369v55.943c0 6.075 4.925 11 11 11z"/><path d="m156.049 80.573h-29.044c-6.075 0-11 4.925-11 11s4.925 11 11 11h27.413v54.312c0 6.075 4.925 11 11 11s11-4.925 11-11v-55.943c0-11.231-9.137-20.369-20.369-20.369z"/><path d="m256 61.292c-6.075 0-11 4.925-11 11v47.759c0 6.075 4.925 11 11 11s11-4.925 11-11v-47.759c0-6.075-4.925-11-11-11z"/></g><g><path d="m256 113.468c-78.593 0-142.532 63.939-142.532 142.532s63.939 142.532 142.532 142.532 142.532-63.939 142.532-142.532-63.939-142.532-142.532-142.532zm-60.931 246.49c5.499-29.04 30.829-50.343 60.944-50.343 30.139 0 55.444 21.285 60.945 50.328-17.896 10.535-38.731 16.589-60.958 16.589-22.215 0-43.041-6.048-60.931-16.574zm19.183-114.104c0-23.027 18.734-41.761 41.761-41.761s41.761 18.733 41.761 41.761-18.733 41.761-41.761 41.761c-23.027 0-41.761-18.733-41.761-41.761zm121.804 100.168c-6.541-20.892-22.107-39.287-41.788-49.192 15.477-11.644 25.506-30.159 25.506-50.975 0-35.158-28.603-63.761-63.761-63.761s-63.761 28.603-63.761 63.761c0 20.792 10.006 39.287 25.453 50.933-19.683 10.039-34.905 27.625-41.763 49.231-24.815-22.093-40.473-54.26-40.473-90.019 0-66.462 54.07-120.532 120.532-120.532s120.531 54.07 120.531 120.532c0 35.761-15.66 67.929-40.476 90.022z"/><path d="m417.355 131.238c21.976 0 39.854-17.879 39.854-39.854s-17.879-39.854-39.854-39.854-39.854 17.879-39.854 39.854 17.879 39.854 39.854 39.854zm0-57.709c9.845 0 17.854 8.01 17.854 17.854s-8.01 17.854-17.854 17.854-17.854-8.01-17.854-17.854 8.01-17.854 17.854-17.854z"/><path d="m256 79.708c21.976 0 39.854-17.878 39.854-39.854s-17.878-39.854-39.854-39.854-39.854 17.879-39.854 39.854 17.878 39.854 39.854 39.854zm0-57.708c9.845 0 17.854 8.01 17.854 17.854s-8.009 17.854-17.854 17.854-17.854-8.009-17.854-17.854 8.009-17.854 17.854-17.854z"/><path d="m94.645 131.238c21.976 0 39.854-17.879 39.854-39.854s-17.879-39.855-39.854-39.855c-21.976 0-39.854 17.879-39.854 39.854s17.877 39.855 39.854 39.855zm0-57.709c9.845 0 17.854 8.01 17.854 17.854s-8.009 17.854-17.854 17.854-17.854-8.01-17.854-17.854 8.008-17.854 17.854-17.854z"/><path d="m94.645 380.762c-21.976 0-39.854 17.879-39.854 39.854s17.878 39.854 39.854 39.854 39.854-17.879 39.854-39.854-17.879-39.854-39.854-39.854zm0 57.709c-9.845 0-17.854-8.01-17.854-17.854s8.009-17.854 17.854-17.854 17.854 8.01 17.854 17.854-8.01 17.854-17.854 17.854z"/><path d="m256 432.292c-21.976 0-39.854 17.878-39.854 39.854s17.878 39.854 39.854 39.854 39.854-17.879 39.854-39.854-17.878-39.854-39.854-39.854zm0 57.708c-9.845 0-17.854-8.01-17.854-17.854s8.009-17.854 17.854-17.854 17.854 8.009 17.854 17.854-8.009 17.854-17.854 17.854z"/><path d="m417.355 380.762c-21.976 0-39.854 17.879-39.854 39.854s17.878 39.854 39.854 39.854 39.854-17.879 39.854-39.854-17.878-39.854-39.854-39.854zm0 57.709c-9.845 0-17.854-8.01-17.854-17.854s8.009-17.854 17.854-17.854 17.854 8.01 17.854 17.854-8.009 17.854-17.854 17.854z"/><path d="m79.708 256c0-21.976-17.878-39.854-39.854-39.854s-39.854 17.878-39.854 39.854 17.878 39.854 39.854 39.854 39.854-17.878 39.854-39.854zm-39.854 17.854c-9.845 0-17.854-8.009-17.854-17.854s8.009-17.854 17.854-17.854 17.854 8.01 17.854 17.854-8.009 17.854-17.854 17.854z"/><path d="m472.146 216.146c-21.976 0-39.854 17.879-39.854 39.854s17.878 39.854 39.854 39.854 39.854-17.878 39.854-39.854-17.879-39.854-39.854-39.854zm0 57.708c-9.845 0-17.854-8.01-17.854-17.854s8.009-17.854 17.854-17.854 17.854 8.009 17.854 17.854-8.01 17.854-17.854 17.854z"/></g></g><g/><g/><g/><g/><g/><g/><g/><g/><g/><g/><g/><g/><g/><g/><g/></svg>