<svg id="Layer_1" enable-background="new 0 0 512 512" viewBox="0 0 512 512" xmlns="http://www.w3.org/2000/svg" fill="#052438"><g><g><g><path d="m202.298 330.5c-2.815 0-5.63-1.074-7.778-3.222l-19.596-19.595c-4.296-4.296-4.296-11.261 0-15.556 4.295-4.296 11.26-4.296 15.557 0l11.817 11.817 29.222-29.222c4.297-4.296 11.26-4.296 15.557 0 4.296 4.296 4.296 11.261 0 15.557l-37 37c-2.149 2.147-4.964 3.221-7.779 3.221z" fill="#0496FF"/></g><g><path d="m501 0h-200c-6.075 0-11 4.925-11 11v71.92c0 3.608 1.77 6.987 4.735 9.042 2.966 2.055 6.749 2.524 10.129 1.257 6.972-2.614 14.872-.909 20.127 4.346 3.589 3.588 5.565 8.359 5.565 13.435s-1.977 9.847-5.564 13.435c-5.258 5.256-13.16 6.96-20.128 4.347-3.38-1.269-7.163-.798-10.129 1.257s-4.735 5.434-4.735 9.042v71.919c0 6.075 4.925 11 11 11h59.019c.125 10.534 4.296 20.853 11.99 28.547 7.744 7.744 18.04 12.008 28.991 12.008 10.952 0 21.248-4.265 28.99-12.008 7.696-7.695 11.867-18.014 11.992-28.548h59.018c6.075 0 11-4.925 11-11v-199.999c0-6.075-4.925-11-11-11zm-11 200h-60.92c-3.608 0-6.987 1.77-9.042 4.735s-2.524 6.751-1.257 10.129c2.615 6.971.91 14.871-4.347 20.127-3.588 3.588-8.359 5.564-13.435 5.564-5.074 0-9.846-1.976-13.435-5.565-5.256-5.255-6.962-13.156-4.347-20.127 1.268-3.378.798-7.163-1.257-10.129-2.056-2.965-5.434-4.735-9.042-4.735h-60.918v-48.018c10.532-.126 20.853-4.296 28.548-11.99 7.744-7.744 12.009-18.04 12.009-28.992s-4.265-21.248-12.009-28.991c-7.695-7.695-18.015-11.865-28.548-11.99v-48.018h178z"/><path d="m282.009 340.547c7.743 7.744 18.039 12.009 28.991 12.009s21.248-4.265 28.991-12.009c7.694-7.695 11.865-18.014 11.99-28.547h48.019v178h-178v-60.92c0-3.608-1.77-6.987-4.735-9.042-2.966-2.055-6.75-2.526-10.129-1.257-6.972 2.616-14.871.909-20.127-4.346-7.407-7.408-7.407-19.462 0-26.87l-15.557-15.556c-15.985 15.985-15.985 41.996 0 57.982 7.696 7.695 18.015 11.866 28.548 11.991v48.018h-178v-178h60.92c3.608 0 6.986-1.77 9.042-4.735 2.055-2.966 2.524-6.75 1.257-10.129-2.615-6.971-.909-14.872 4.347-20.127 3.588-3.588 8.359-5.564 13.435-5.564s9.847 1.976 13.437 5.566l15.555-15.558c-7.743-7.744-18.039-12.009-28.991-12.009s-21.248 4.265-28.991 12.009c-7.694 7.695-11.865 18.014-11.99 28.547h-48.021v-178h178v60.92c0 3.608 1.77 6.987 4.735 9.042s6.749 2.525 10.129 1.257c6.972-2.615 14.871-.909 20.127 4.346 7.407 7.408 7.407 19.462 0 26.87l15.557 15.556c15.985-15.985 15.985-41.996 0-57.982-7.696-7.695-18.015-11.866-28.548-11.991v-59.018c0-6.075-4.925-11-11-11h-200c-6.075 0-11 4.925-11 11v400c0 6.075 4.925 11 11 11h400c6.075 0 11-4.925 11-11v-200c0-6.075-4.925-11-11-11h-71.92c-3.608 0-6.986 1.77-9.042 4.735-2.055 2.966-2.524 6.75-1.257 10.129 2.615 6.971.909 14.872-4.347 20.127-3.588 3.588-8.359 5.564-13.435 5.564s-9.847-1.976-13.437-5.566z"/></g><g><path d="m211 392c-50.178 0-91-40.822-91-91s40.822-91 91-91 91 40.822 91 91-40.822 91-91 91zm0-160c-38.047 0-69 30.953-69 69s30.953 69 69 69 69-30.953 69-69-30.953-69-69-69z" fill="#0496FF"/></g></g></g><g/><g/><g/><g/><g/><g/><g/><g/><g/><g/><g/><g/><g/><g/><g/></svg>