<svg id="Capa_1" enable-background="new 0 0 512 512" viewBox="0 0 512 512" xmlns="http://www.w3.org/2000/svg" fill="#052438"><g><g><path d="m256 0c-99.234 0-179.965 80.732-179.965 179.966 0 39.768 12.713 77.463 36.765 109.011 45.062 59.103 47.718 66.106 47.718 93.748v33.793c-.001 52.649 42.832 95.482 95.482 95.482s95.483-42.833 95.483-95.482v-33.793c0-27.642 2.656-34.646 47.718-93.748 24.052-31.548 36.765-69.243 36.765-109.011 0-99.234-80.733-179.966-179.966-179.966zm73.483 393.725v22.793c0 1.75-.062 3.487-.183 5.207h-146.6c-.121-1.72-.183-3.456-.183-5.207v-22.793zm-73.483 96.275c-30.912 0-57.427-19.186-68.262-46.275h136.525c-10.836 27.089-37.351 46.275-68.263 46.275zm125.706-214.362c-40.096 52.589-50.2 67.922-51.926 96.087h-62.78v-64.325c0-6.075-4.925-11-11-11s-11 4.925-11 11v64.325h-62.78c-1.726-28.165-11.83-43.498-51.925-96.087-21.105-27.682-32.261-60.765-32.261-95.672.001-87.103 70.863-157.966 157.966-157.966s157.966 70.863 157.966 157.966c0 34.908-11.156 67.991-32.26 95.672z"/><path d="m471.299 134.589c1.865 0 3.757-.476 5.489-1.476l10.328-5.963c5.261-3.038 7.063-9.765 4.026-15.026-3.036-5.26-9.762-7.066-15.026-4.026l-10.328 5.963c-5.261 3.038-7.063 9.765-4.026 15.026 2.037 3.529 5.734 5.502 9.537 5.502z"/><path d="m486 168.966h-11.925c-6.075 0-11 4.925-11 11s4.925 11 11 11h11.925c6.075 0 11-4.925 11-11s-4.925-11-11-11z"/><path d="m487.117 232.782-10.328-5.962c-5.262-3.038-11.989-1.234-15.026 4.027s-1.234 11.989 4.026 15.026l10.328 5.962c1.732 1 3.623 1.476 5.489 1.476 3.802 0 7.5-1.974 9.537-5.502 3.037-5.263 1.235-11.99-4.026-15.027z"/><path d="m46.212 114.061-10.327-5.963c-5.261-3.038-11.987-1.235-15.026 4.025-3.037 5.261-1.235 11.989 4.026 15.026l10.327 5.963c1.732 1 3.623 1.476 5.489 1.476 3.802 0 7.499-1.973 9.537-5.501 3.037-5.261 1.235-11.988-4.026-15.026z"/><path d="m37.926 190.966c6.075 0 11-4.925 11-11s-4.925-11-11-11h-11.925c-6.075 0-11 4.925-11 11s4.925 11 11 11z"/><path d="m35.211 226.819-10.327 5.962c-5.261 3.038-7.063 9.765-4.026 15.026 2.038 3.529 5.734 5.502 9.537 5.502 1.865 0 3.757-.476 5.489-1.476l10.327-5.962c5.261-3.038 7.063-9.765 4.026-15.026-3.038-5.26-9.762-7.065-15.026-4.026z"/></g><g fill="#0496FF"><path d="m256.001 145.845c-22.914 0-41.556 18.642-41.556 41.556s18.642 41.555 41.556 41.555c22.913 0 41.555-18.642 41.555-41.555-.001-22.915-18.642-41.556-41.555-41.556zm0 61.111c-10.783 0-19.556-8.772-19.556-19.555s8.772-19.556 19.556-19.556c10.782 0 19.555 8.772 19.555 19.556-.001 10.782-8.773 19.555-19.555 19.555z"/><path d="m370.004 212.37-18.146-13.349c.464-3.854.697-7.742.697-11.621 0-3.88-.233-7.767-.697-11.622l18.146-13.349c4.515-3.322 5.811-9.507 3.008-14.361l-24.444-42.338c-2.804-4.855-8.811-6.826-13.94-4.575l-20.634 9.04c-6.235-4.698-12.97-8.592-20.131-11.642l-2.485-22.369c-.619-5.571-5.327-9.785-10.933-9.785h-48.888c-5.604 0-10.313 4.214-10.933 9.785l-2.486 22.37c-7.16 3.049-13.894 6.943-20.13 11.642l-20.634-9.04c-5.132-2.249-11.137-.28-13.94 4.575l-24.444 42.338c-2.803 4.854-1.507 11.039 3.008 14.361l18.146 13.348c-.464 3.853-.697 7.74-.697 11.622 0 3.878.234 7.765.698 11.621l-18.146 13.349c-4.515 3.322-5.811 9.507-3.008 14.361l24.443 42.338c2.803 4.854 8.808 6.825 13.94 4.575l20.633-9.04c6.234 4.697 12.97 8.592 20.133 11.643l2.485 22.368c.619 5.571 5.327 9.785 10.933 9.785h48.888c5.605 0 10.313-4.214 10.933-9.785l2.485-22.369c7.161-3.049 13.895-6.944 20.13-11.642l20.635 9.04c5.131 2.248 11.137.28 13.94-4.575l24.444-42.338c2.801-4.854 1.505-11.039-3.009-14.361zm-40.842-39.38c.925 4.728 1.394 9.577 1.394 14.411 0 4.833-.469 9.682-1.394 14.41-.817 4.177.849 8.45 4.276 10.973l15.598 11.474-14.599 25.286-17.752-7.777c-3.902-1.71-8.442-1.012-11.652 1.792-7.354 6.426-15.737 11.275-24.92 14.412-4.032 1.377-6.906 4.959-7.377 9.194l-2.138 19.236h-29.196l-2.138-19.235c-.471-4.235-3.345-7.817-7.377-9.194-9.187-3.139-17.571-7.987-24.921-14.412-3.209-2.806-7.751-3.503-11.653-1.793l-17.751 7.777-14.598-25.286 15.599-11.475c3.428-2.522 5.094-6.796 4.276-10.973-.925-4.731-1.395-9.58-1.395-14.409 0-4.838.469-9.686 1.394-14.409.818-4.177-.848-8.452-4.276-10.975l-15.598-11.474 14.599-25.285 17.751 7.777c3.901 1.711 8.443 1.012 11.652-1.792 7.354-6.427 15.739-11.276 24.92-14.413 4.032-1.377 6.906-4.959 7.377-9.194l2.138-19.236h29.197l2.138 19.236c.471 4.235 3.345 7.817 7.377 9.194 9.184 3.138 17.568 7.986 24.919 14.412 3.209 2.805 7.751 3.504 11.653 1.793l17.752-7.777 14.599 25.285-15.598 11.474c-3.428 2.523-5.094 6.796-4.276 10.973z"/></g></g><g/><g/><g/><g/><g/><g/><g/><g/><g/><g/><g/><g/><g/><g/><g/></svg>