<svg id="Capa_1" enable-background="new 0 0 512 512" viewBox="0 0 512 512" xmlns="http://www.w3.org/2000/svg" fill="#052438"><g><path d="m473.917 0h-435.834c-20.999 0-38.083 17.084-38.083 38.083v435.834c0 20.999 17.084 38.083 38.083 38.083h435.834c20.999 0 38.083-17.084 38.083-38.083v-435.834c0-20.999-17.084-38.083-38.083-38.083zm0 490h-206.917v-61.139c0-4.387-2.606-8.354-6.633-10.096s-8.702-.925-11.899 2.079c-5.32 4.998-12.264 7.751-19.554 7.751-15.757 0-28.577-12.819-28.577-28.577 0-6.663 2.341-13.147 6.592-18.258 3.885-4.671 3.248-11.606-1.423-15.491s-11.606-3.248-15.491 1.423c-7.53 9.054-11.678 20.534-11.678 32.326 0 27.888 22.688 50.577 50.577 50.577 5.535 0 10.956-.896 16.086-2.616v42.021h-206.917c-8.868 0-16.083-7.215-16.083-16.083v-206.917h61.139c4.387 0 8.354-2.606 10.096-6.633 1.742-4.026.925-8.702-2.079-11.899-4.998-5.32-7.751-12.264-7.751-19.554 0-15.757 12.819-28.577 28.577-28.577 6.835 0 13.447 2.45 18.619 6.897 4.606 3.962 11.552 3.439 15.512-1.167 3.961-4.606 3.438-11.551-1.167-15.512-9.161-7.878-20.868-12.217-32.964-12.217-27.888 0-50.577 22.688-50.577 50.577 0 5.535.896 10.956 2.616 16.086h-42.021v-206.918c0-8.868 7.215-16.083 16.083-16.083h206.917v61.139c0 4.387 2.606 8.354 6.632 10.096 4.027 1.742 8.704.925 11.899-2.079 5.321-4.999 12.266-7.751 19.555-7.751 15.758 0 28.577 12.819 28.577 28.577 0 6.839-2.453 13.456-6.907 18.631-3.963 4.604-3.443 11.55 1.161 15.513 4.605 3.964 11.549 3.444 15.513-1.161 7.889-9.165 12.233-20.878 12.233-32.982 0-27.888-22.688-50.577-50.577-50.577-5.534 0-10.956.896-16.086 2.616v-42.022h206.917c8.868 0 16.083 7.215 16.083 16.083v206.917h-61.139c-4.387 0-8.354 2.606-10.096 6.632s-.925 8.702 2.078 11.899c4.999 5.321 7.752 12.266 7.752 19.555 0 15.757-12.819 28.577-28.577 28.577-7.06 0-13.835-2.594-19.081-7.303-4.52-4.059-11.475-3.683-15.533.836-4.06 4.52-3.685 11.475.836 15.534 9.289 8.34 21.285 12.933 33.778 12.933 27.889 0 50.577-22.688 50.577-50.577 0-5.534-.896-10.956-2.616-16.086h42.021v206.917c0 8.868-7.215 16.083-16.083 16.083z"/><g fill="#0496FF"><path d="m255.165 116.193c-77.09 0-139.807 62.717-139.807 139.807s62.717 139.807 139.807 139.807 139.808-62.717 139.808-139.807-62.718-139.807-139.808-139.807zm0 257.614c-64.959 0-117.807-52.848-117.807-117.807s52.848-117.807 117.807-117.807 117.808 52.848 117.808 117.807-52.849 117.807-117.808 117.807z"/><path d="m317.212 207.316c-4.887-3.608-11.773-2.571-15.383 2.316l-56.006 75.861-32.14-34.342c-4.151-4.435-11.112-4.667-15.548-.515-4.436 4.151-4.666 11.112-.515 15.548l41.17 43.992c2.086 2.229 4.997 3.483 8.031 3.483.212 0 .426-.006.64-.019 3.262-.19 6.27-1.82 8.21-4.448l63.856-86.493c3.61-4.887 2.573-11.774-2.315-15.383z"/></g></g><g/><g/><g/><g/><g/><g/><g/><g/><g/><g/><g/><g/><g/><g/><g/></svg>