<svg id="Capa_1" enable-background="new 0 0 512 512" viewBox="0 0 512 512" xmlns="http://www.w3.org/2000/svg" fill="#052438"><g><g fill="#0496FF"><path d="m286.467 275.074c-1.889-1.89-3.958-3.609-6.149-5.109-5.012-3.432-11.859-2.15-15.291 2.863s-2.15 11.859 2.863 15.291c1.072.734 2.088 1.579 3.02 2.511 7.801 7.801 8.238 20.43.995 28.752l-15.905 18.275-15.905-18.276c-7.243-8.322-6.806-20.951.996-28.752.692-.693 1.433-1.339 2.202-1.921 4.842-3.668 5.794-10.568 2.125-15.411-3.669-4.842-10.568-5.794-15.411-2.125-1.567 1.188-3.072 2.5-4.474 3.901-15.94 15.94-16.833 41.747-2.035 58.752l24.203 27.81c2.089 2.4 5.116 3.778 8.298 3.778s6.208-1.378 8.298-3.778l24.203-27.81c14.8-17.006 13.907-42.812-2.033-58.751z"/><path d="m256 235.136c19 0 34.458-15.458 34.458-34.458s-15.458-34.459-34.458-34.459-34.458 15.458-34.458 34.458 15.458 34.459 34.458 34.459zm0-46.917c6.87 0 12.458 5.589 12.458 12.458s-5.588 12.459-12.458 12.459-12.458-5.589-12.458-12.458 5.588-12.459 12.458-12.459z"/></g><g><path d="m256.002 0c-.003 0 .001 0-.001 0-50.698 0-98.367 19.666-134.214 55.369-35.851 35.707-55.703 83.293-55.899 133.993-.249 64.197 31.578 123.737 85.138 159.269 15.875 10.532 25.352 28.389 25.352 47.768v.215c-10.895 6.057-18.287 17.684-18.287 31.01 0 19.552 15.907 35.459 35.458 35.459h3.349v21.182c0 15.293 12.442 27.736 27.735 27.736h62.736c15.293 0 27.735-12.442 27.735-27.736v-21.182h3.349c19.552 0 35.458-15.907 35.458-35.459 0-13.325-7.392-24.952-18.287-31.01v-.22c0-19.364 9.51-37.241 25.438-47.82 53.257-35.375 85.053-94.611 85.053-158.459 0-104.829-85.284-190.114-190.113-190.115zm37.102 484.264c0 3.163-2.573 5.736-5.735 5.736h-62.736c-3.163 0-5.735-2.573-5.735-5.736v-21.182h74.207v21.182zm25.348-43.181h-124.904c-7.421 0-13.458-6.038-13.458-13.459s6.038-13.459 13.458-13.459h124.904c7.421 0 13.458 6.038 13.458 13.459s-6.037 13.459-13.458 13.459zm30.438-110.835c-20.914 13.891-33.838 36.806-35.148 61.917h-115.484c-1.308-25.125-14.204-48.022-35.072-61.866-47.371-31.427-75.52-84.082-75.3-140.852.174-44.838 17.727-86.919 49.425-118.49s73.85-48.957 118.691-48.957c92.698.001 168.113 75.417 168.113 168.115 0 56.46-28.122 108.846-75.225 140.133z"/><path d="m348.806 171.351-21.194-12.028c-9.4-46.992-31.201-85.768-64.605-113.369-4.067-3.36-9.946-3.36-14.014 0-33.403 27.601-55.205 66.377-64.605 113.368l-21.195 12.029c-15.931 9.042-25.827 26.037-25.827 44.354v63.53c0 4.004 2.176 7.692 5.681 9.628 1.658.916 3.49 1.372 5.319 1.372 2.037 0 4.07-.565 5.855-1.688l29.145-18.325c.07.469.127.932.2 1.403 1.583 10.299 10.311 17.774 20.754 17.774h103.36c10.443 0 19.171-7.475 20.754-17.774.072-.47.129-.933.2-1.402l29.145 18.325c1.786 1.123 3.819 1.688 5.855 1.688 1.829 0 3.661-.456 5.319-1.372 3.505-1.937 5.681-5.625 5.681-9.628v-63.53c0-18.318-9.896-35.314-25.828-44.355zm-189.44 87.975v-43.621c0-10.416 5.627-20.08 14.686-25.221l6.331-3.593c-1.743 18.699-1.727 38.468.095 59.161zm147.459 8.074h-101.649c-6.814-45.003-5.225-85.564 4.727-120.562 8.94-31.441 24.428-57.559 46.098-77.772 21.67 20.213 37.158 46.331 46.098 77.772 9.95 34.998 11.539 75.559 4.726 120.562zm45.809-8.074-21.112-13.274c1.822-20.692 1.838-40.462.095-59.16l6.331 3.593c9.059 5.141 14.687 14.805 14.687 25.221v43.62z"/></g></g><g/><g/><g/><g/><g/><g/><g/><g/><g/><g/><g/><g/><g/><g/><g/></svg>