<svg id="Capa_1" enable-background="new 0 0 512 512" viewBox="0 0 512 512" xmlns="http://www.w3.org/2000/svg" fill="#052438"><g><g><path d="m93.804 316.839c-7.297-19.443-10.997-39.912-10.997-60.838 0-41.562 14.943-81.748 42.075-113.155 26.859-31.09 63.878-51.674 104.239-57.959 2.887-.45 5.477-2.03 7.198-4.392s2.431-5.312 1.974-8.198l-9.744-61.521c-.95-5.996-6.576-10.09-12.572-9.146-59.606 9.361-114.255 39.808-153.878 85.73-40.045 46.41-62.099 105.77-62.099 167.146 0 31.587 5.704 62.455 16.953 91.747 1.68 4.375 5.849 7.06 10.271 7.06 1.31 0 2.644-.236 3.939-.733l56.284-21.605c5.642-2.166 8.481-8.478 6.357-14.136zm-60.015 11.168c-7.827-23.648-11.789-48.322-11.789-73.501 0-56.101 20.156-110.357 56.755-152.774 33.814-39.189 79.581-66.048 129.824-76.407l6.309 39.832c-41.265 8.867-78.811 31.078-106.653 63.307-30.585 35.402-47.428 80.696-47.428 127.537 0 19.902 2.973 39.441 8.849 58.237z"/><path d="m449.911 87.372c-39.617-45.92-94.258-76.369-153.857-85.738-5.99-.94-11.623 3.15-12.572 9.146l-9.744 61.521c-.457 2.886.253 5.835 1.973 8.197 1.721 2.362 4.31 3.942 7.197 4.392 40.354 6.292 77.366 26.877 104.219 57.965 27.127 31.406 42.066 71.588 42.066 113.145 0 20.937-3.703 41.414-11.007 60.865-2.125 5.658.714 11.97 6.355 14.136l56.284 21.605c1.297.498 2.629.733 3.94.733 4.421 0 8.59-2.685 10.271-7.058 11.256-29.3 16.964-60.178 16.964-91.776 0-61.369-22.05-120.725-62.089-167.133zm28.291 240.663-35.867-13.769c5.882-18.803 8.857-38.354 8.857-58.266 0-46.836-16.84-92.125-47.417-127.526-27.837-32.227-65.376-54.44-106.634-63.312l6.309-39.832c50.233 10.365 95.997 37.226 129.804 76.411 36.594 42.417 56.746 96.669 56.746 152.765 0 25.189-3.965 49.873-11.798 73.529z"/><path d="m453.308 400.148-46.525-37.676c-2.275-1.842-5.181-2.703-8.104-2.388-2.911.314-5.576 1.776-7.406 4.062-33.096 41.338-82.4 65.047-135.272 65.047-52.883 0-102.194-23.717-135.29-65.069-1.83-2.287-4.496-3.749-7.407-4.063-2.907-.311-5.828.545-8.104 2.388l-46.526 37.676c-2.268 1.837-3.713 4.5-4.018 7.402-.304 2.903.557 5.807 2.395 8.074 48.896 60.314 121.41 94.906 198.949 94.906 77.527 0 150.034-34.583 198.929-94.882 1.838-2.267 2.7-5.172 2.396-8.074-.304-2.903-1.75-5.567-4.017-7.403zm-197.308 88.358c-67.198 0-130.27-28.428-174.731-78.371l29.416-23.82c37.055 41.367 89.413 64.878 145.315 64.878 55.89 0 108.241-23.503 145.295-64.856l29.416 23.821c-44.459 49.93-107.523 78.348-174.711 78.348z"/></g><g fill="#0496FF"><path d="m312.683 131.708h-113.365c-13.914 0-25.233 11.319-25.233 25.232v198.122c0 13.913 11.319 25.232 25.233 25.232h113.365c13.913 0 25.232-11.319 25.232-25.232v-198.122c0-13.913-11.319-25.232-25.232-25.232zm3.232 223.354c0 1.782-1.45 3.232-3.232 3.232h-113.365c-1.783 0-3.233-1.45-3.233-3.232v-198.122c0-1.782 1.45-3.232 3.233-3.232h113.365c1.782 0 3.232 1.45 3.232 3.232z"/><path d="m281.808 176.543h-51.634c-6.075 0-11 4.925-11 11s4.925 11 11 11h51.634c6.075 0 11-4.925 11-11s-4.925-11-11-11z"/></g></g><g/><g/><g/><g/><g/><g/><g/><g/><g/><g/><g/><g/><g/><g/><g/></svg>