<svg id="Capa_1" enable-background="new 0 0 512 512" viewBox="0 0 512 512" xmlns="http://www.w3.org/2000/svg" fill="#052438"><g><g fill="#0496FF"><path d="m140.108 244.746h-57.946c-17.276 0-31.332 14.055-31.332 31.332v103.693c0 6.075 4.925 11 11 11s11-4.925 11-11v-103.693c0-5.146 4.186-9.332 9.332-9.332h57.946c6.075 0 11-4.925 11-11s-4.925-11-11-11z"/><path d="m429.838 244.746h-58.962c-6.075 0-11 4.925-11 11s4.925 11 11 11h58.962c5.146 0 9.332 4.186 9.332 9.332v103.693c0 6.075 4.925 11 11 11s11-4.925 11-11v-103.693c0-17.277-14.056-31.332-31.332-31.332z"/><path d="m256 121.229c-6.075 0-11 4.925-11 11v69.128c0 6.075 4.925 11 11 11s11-4.925 11-11v-69.128c0-6.075-4.925-11-11-11z"/><path d="m256 300.15c-6.075 0-11 4.925-11 11v69.128c0 6.075 4.925 11 11 11s11-4.925 11-11v-69.128c0-6.075-4.925-11-11-11z"/></g><g><path d="m357.875 193.408h-203.75c-12.113 0-21.967 9.854-21.967 21.967v81.758c0 12.113 9.854 21.967 21.967 21.967h203.75c12.113 0 21.968-9.854 21.968-21.967v-81.758c0-12.113-9.855-21.967-21.968-21.967zm-203.717 103.725-.033-81.726 203.718-.033.042 81.725z"/><path d="m256 371.82c-34.093 0-61.83 27.737-61.83 61.83s27.737 61.83 61.83 61.83 61.83-27.737 61.83-61.83-27.737-61.83-61.83-61.83zm0 101.66c-21.962 0-39.83-17.868-39.83-39.83s17.868-39.83 39.83-39.83 39.83 17.868 39.83 39.83-17.868 39.83-39.83 39.83z"/><path d="m256 140.18c34.093 0 61.83-27.737 61.83-61.83s-27.737-61.83-61.83-61.83-61.83 27.737-61.83 61.83 27.737 61.83 61.83 61.83zm0-101.66c21.962 0 39.83 17.868 39.83 39.83s-17.868 39.83-39.83 39.83-39.83-17.868-39.83-39.83 17.868-39.83 39.83-39.83z"/><path d="m61.83 371.82c-34.093 0-61.83 27.737-61.83 61.83s27.737 61.83 61.83 61.83 61.83-27.737 61.83-61.83-27.737-61.83-61.83-61.83zm0 101.66c-21.962 0-39.83-17.868-39.83-39.83s17.868-39.83 39.83-39.83 39.83 17.868 39.83 39.83-17.868 39.83-39.83 39.83z"/><path d="m450.17 371.82c-34.093 0-61.83 27.737-61.83 61.83s27.737 61.83 61.83 61.83 61.83-27.736 61.83-61.83-27.737-61.83-61.83-61.83zm0 101.66c-21.962 0-39.83-17.868-39.83-39.83s17.868-39.83 39.83-39.83 39.83 17.868 39.83 39.83-17.868 39.83-39.83 39.83z"/></g></g><g/><g/><g/><g/><g/><g/><g/><g/><g/><g/><g/><g/><g/><g/><g/></svg>