<svg id="Capa_1" enable-background="new 0 0 512 512" viewBox="0 0 512 512" xmlns="http://www.w3.org/2000/svg" fill="#052438"><g><g><path d="m449.799 301.313v-234.313h3.998c6.075 0 11-4.925 11-11v-45c0-6.075-4.925-11-11-11h-442.797c-6.075 0-11 4.925-11 11v45c0 6.075 4.925 11 11 11h4.001v306.889c0 6.075 4.925 11 11 11h195.399v25.68h-.865c-6.075 0-11 4.925-11 11s4.925 11 11 11h23.729c6.075 0 11-4.925 11-11s-4.925-11-11-11h-.864v-25.68h47.767c-.768 5.261-1.167 10.64-1.167 16.111 0 61.206 49.794 111 111 111s111-49.794 111-111c0-43.707-25.393-81.596-62.201-99.687zm-427.799-279.313h420.797v23h-420.797zm15.001 340.889v-295.889h390.798v226.271c-8.585-2.136-17.562-3.271-26.799-3.271-47.823 0-88.679 30.399-104.259 72.889zm363.999 127.111c-49.075 0-89-39.925-89-89s39.925-89 89-89 89 39.925 89 89-39.924 89-89 89z"/><path d="m276.328 202.339-75.104-64.45c-4.609-3.955-11.554-3.427-15.511 1.184-3.957 4.61-3.426 11.555 1.184 15.511l70.467 60.471-70.167 60.215c-4.61 3.957-5.141 10.901-1.184 15.511 2.176 2.535 5.255 3.836 8.353 3.836 2.536 0 5.084-.872 7.159-2.652l75.238-64.566c3.848-3.302 4.854-8.686 2.78-13.057 1.461-4.155.329-8.962-3.215-12.003z"/><path d="m409.618 392.663-8.818-3.652c-1.74-.721-2.53-2.11-2.847-2.874-.316-.763-.739-2.304-.018-4.047.721-1.74 2.108-2.53 2.872-2.847s2.306-.738 4.047-.018l4.409 1.826c5.609 2.325 12.047-.34 14.372-5.954 2.324-5.613-.341-12.047-5.954-14.372l-4.409-1.827c-.422-.174-.846-.338-1.272-.491v-2.407c0-6.075-4.925-11-11-11s-11 4.925-11 11v4.043c-5.597 2.965-9.946 7.727-12.39 13.629-2.784 6.719-2.778 14.136.017 20.884s8.035 11.997 14.754 14.78l8.819 3.652c2.651 1.099 3.964 4.268 2.865 6.92-.721 1.741-2.109 2.532-2.873 2.848-.763.315-2.303.739-4.045.019l-4.409-1.827c-5.612-2.325-12.047.339-14.372 5.953-2.325 5.612.34 12.047 5.952 14.373l4.41 1.827c.421.174.845.338 1.271.49v2.409c0 6.075 4.925 11 11 11s11-4.925 11-11v-4.043c5.597-2.965 9.946-7.727 12.392-13.631 5.759-13.903-.867-29.901-14.773-35.663z"/></g><g fill="#0496FF"><path d="m393.798 169.055h-120c-6.075 0-11 4.925-11 11v70c0 6.075 4.925 11 11 11h120c6.075 0 11-4.925 11-11v-70c0-6.075-4.924-11-11-11zm-11 70h-98v-48h98z"/><path d="m191.001 97.61h-120.001c-6.075 0-11 4.925-11 11v70c0 6.075 4.925 11 11 11h120c6.075 0 11-4.925 11-11v-70c.001-6.076-4.924-11-10.999-11zm-11 70h-98.001v-48h98v48z"/><path d="m191.001 240.5h-120.001c-2.917 0-5.715 1.159-7.778 3.222s-3.222 4.86-3.222 7.778v70c0 6.075 4.925 11 11 11h120c6.075 0 11-4.925 11-11v-70c.001-6.075-4.924-11-10.999-11zm-11 70h-98v-48h98z"/></g></g><g/><g/><g/><g/><g/><g/><g/><g/><g/><g/><g/><g/><g/><g/><g/></svg>