<svg id="Layer_1" enable-background="new 0 0 512 512" viewBox="0 0 512 512" xmlns="http://www.w3.org/2000/svg" fill="#E6ECF2"><g><g fill="#0496FF"><path d="m292.747 299.195c10.304-9.655 16.751-23.302 16.751-38.42 0-29.19-23.999-52.938-53.498-52.938s-53.499 23.748-53.499 52.938c0 15.117 6.447 28.764 16.751 38.42-33.64 14.337-57.282 47.733-57.282 86.549v15.521h22v-15.521c0-29.001 17.237-54.036 41.996-65.444l-9.319 55.494c-.589 3.508.555 7.084 3.07 9.6l28.504 28.504c2.148 2.148 4.963 3.222 7.778 3.222s5.63-1.074 7.778-3.222l28.504-28.504c2.516-2.516 3.659-6.092 3.069-9.6l-9.319-55.495c24.759 11.408 41.997 36.443 41.997 65.444v15.521h22v-15.521c.001-38.815-23.641-72.211-57.281-86.548zm-68.246-38.42c0-17.06 14.13-30.938 31.499-30.938s31.498 13.879 31.498 30.938-14.13 30.939-31.498 30.939-31.499-13.879-31.499-30.939zm48.216 113.071-16.717 16.717-16.717-16.717 10.044-59.811c2.199-.203 4.422-.321 6.673-.321s4.474.118 6.673.321z"/><path d="m185.607 187.259v-44.259h-22v33.259h-25.436c-2.361 0-4.659.759-6.555 2.167l-25.351 18.81v-9.977c0-6.075-4.925-11-11-11h-73.011v-110h131.716v-22h-142.716c-6.075 0-11 4.925-11 11v132c0 6.075 4.925 11 11 11h73.013v20.836c0 4.156 2.343 7.958 6.055 9.826 1.563.787 3.257 1.174 4.943 1.174 2.319 0 4.624-.732 6.556-2.166l39.986-29.67h32.8c6.076 0 11-4.925 11-11z"/><path d="m501 44.259h-143.03v22h132.03v110h-73.013c-6.075 0-11 4.925-11 11v9.977l-25.351-18.81c-1.896-1.407-4.194-2.167-6.555-2.167h-25.436v-33.259h-22v44.259c0 6.075 4.925 11 11 11h32.8l39.986 29.67c1.933 1.434 4.237 2.166 6.556 2.166 1.687 0 3.381-.387 4.943-1.174 3.713-1.869 6.056-5.67 6.056-9.826v-20.836h73.014c6.075 0 11-4.925 11-11v-132c0-6.075-4.925-11-11-11z"/><circle cx="212.13" cy="77" r="11"/><circle cx="255.97" cy="77" r="11"/><circle cx="299.81" cy="77" r="11"/></g><g><path d="m486.306 341.734c11.703-9.718 19.17-24.37 19.17-40.736 0-29.19-23.749-52.938-52.939-52.938s-52.938 23.748-52.938 52.938c0 16.311 7.42 30.919 19.056 40.638-11.752 6.882-21.527 17.112-27.69 29.685l-8.629 17.604h-35.367c-19.393 0-35.17 15.777-35.17 35.17 0 4.656.918 9.099 2.568 13.17h-116.733c1.651-4.071 2.568-8.514 2.568-13.17 0-19.393-15.777-35.17-35.17-35.17h-35.367l-8.628-17.603c-6.163-12.573-15.938-22.803-27.691-29.685 11.637-9.719 19.056-24.326 19.056-40.638 0-29.19-23.748-52.938-52.938-52.938s-52.939 23.747-52.939 52.937c0 16.365 7.467 31.017 19.169 40.735-15.483 10.397-25.694 28.065-25.694 48.076v111.191c0 6.075 4.925 11 11 11h490c6.075 0 11-4.925 11-11v-111.191c0-20.011-10.211-37.678-25.694-48.075zm-33.77-71.674c17.06 0 30.939 13.879 30.939 30.938s-13.88 30.939-30.939 30.939-30.938-13.879-30.938-30.939 13.879-30.938 30.938-30.938zm-393.072 0c17.06 0 30.938 13.879 30.938 30.938s-13.879 30.939-30.938 30.939-30.939-13.879-30.939-30.939 13.879-30.938 30.939-30.938zm36.105 155.432-8.413-8.437c-4.29-4.303-11.254-4.312-15.556-.022s-4.312 11.254-.022 15.556l5.245 5.259v52.152h-54.823v-100.191c0-19.78 16.092-35.872 35.872-35.872 18.311 0 35.351 10.625 43.41 27.067l11.648 23.762c1.847 3.769 5.679 6.158 9.877 6.158h42.226c7.262 0 13.17 5.908 13.17 13.17s-5.908 13.17-13.17 13.17h-57.723l-11.655-11.688c-.03-.028-.058-.056-.086-.084zm317.609 64.508h-314.356v-30.735h314.355v30.735zm76.822 0h-54.822v-52.151l5.244-5.259c4.29-4.302 4.28-11.267-.021-15.556-4.302-4.289-11.267-4.28-15.557.022l-8.424 8.448c-.021.021-.042.042-.063.063l-11.666 11.699h-57.724c-7.262 0-13.17-5.908-13.17-13.17s5.908-13.17 13.17-13.17h42.226c4.198 0 8.029-2.389 9.877-6.158l11.647-23.762c8.06-16.442 25.1-27.066 43.41-27.066 19.78 0 35.872 16.092 35.872 35.872v100.188z"/><path d="m153.97 154h74.853l18.183 26.984c2.044 3.034 5.463 4.853 9.122 4.853 3.658 0 7.078-1.819 9.122-4.853l18.182-26.984h74.538c6.075 0 11-4.925 11-11v-132c0-6.075-4.925-11-11-11h-204c-6.075 0-11 4.925-11 11v132c0 6.075 4.925 11 11 11zm11-132h182v110h-69.39c-3.658 0-7.078 1.819-9.122 4.853l-12.331 18.299-12.331-18.299c-2.044-3.034-5.463-4.853-9.122-4.853h-69.704z"/></g></g><g/><g/><g/><g/><g/><g/><g/><g/><g/><g/><g/><g/><g/><g/><g/></svg>