<svg id="Capa_1" enable-background="new 0 0 512 512" viewBox="0 0 512 512" xmlns="http://www.w3.org/2000/svg" fill="#E6ECF2"><g><g fill="#0496FF"><path d="m220.139 189.173v43.155c0 11.964 9.733 21.696 21.697 21.696h27.496c11.964 0 21.697-9.732 21.697-21.696 0-7.837 0-35.847 0-43.155 23.686-12.902 38.623-37.728 38.623-65.144 0-40.897-33.227-74.17-74.067-74.17s-74.067 33.272-74.067 74.17c-.001 27.416 14.935 52.242 38.621 65.144zm48.889 42.851h-26.889v-21.093h26.889zm-13.445-160.165c28.71 0 52.067 23.403 52.067 52.17 0 21.059-12.52 39.942-31.896 48.111-4.077 1.718-6.727 5.712-6.727 10.136v6.655h-26.889v-6.655c0-4.424-2.65-8.418-6.727-10.136-19.376-8.169-31.896-27.053-31.896-48.111.002-28.766 23.359-52.17 52.068-52.17z"/><path d="m427.676 323.788h-160.697v-34.488c0-6.075-4.925-11-11-11s-11 4.925-11 11v34.488h-161.341c-19.989 0-35.646 12.274-35.646 27.944v28.181c0 6.075 4.925 11 11 11s11-4.925 11-11v-28.181c0-1.527 4.692-5.944 13.646-5.944h161.342v32.966c0 6.075 4.925 11 11 11s11-4.925 11-11v-32.966h160.697c8.955 0 13.647 4.417 13.647 5.944v28.181c0 6.075 4.925 11 11 11s11-4.925 11-11v-28.181c-.001-15.67-15.659-27.944-35.648-27.944z"/><path d="m78.573 149.649c0-6.075-4.925-11-11-11h-40.722c-6.075 0-11 4.925-11 11s4.925 11 11 11h40.723c6.074 0 10.999-4.924 10.999-11z"/><path d="m68.826 110.282c2.148 2.152 4.966 3.229 7.785 3.229 2.812 0 5.625-1.071 7.772-3.216 4.299-4.292 4.305-11.257.013-15.556l-23.47-23.507c-4.292-4.3-11.256-4.307-15.557-.013-4.299 4.292-4.305 11.257-.013 15.556z"/><path d="m60.926 228.065 23.469-23.507c4.292-4.299 4.287-11.264-.013-15.556-4.299-4.293-11.264-4.288-15.557.013l-23.469 23.507c-4.292 4.299-4.287 11.264.013 15.556 2.147 2.145 4.959 3.216 7.772 3.216 2.818 0 5.637-1.076 7.785-3.229z"/><path d="m487.544 138.649h-40.722c-6.075 0-11 4.925-11 11s4.925 11 11 11h40.722c6.075 0 11-4.925 11-11s-4.924-11-11-11z"/><path d="m437.785 113.511c2.818 0 5.636-1.076 7.785-3.229l23.469-23.507c4.292-4.299 4.287-11.264-.013-15.556-4.299-4.293-11.264-4.288-15.557.013l-23.469 23.507c-4.292 4.299-4.287 11.264.013 15.556 2.147 2.144 4.959 3.216 7.772 3.216z"/><path d="m445.569 189.016c-4.292-4.3-11.256-4.307-15.557-.013-4.299 4.292-4.305 11.257-.013 15.556l23.469 23.507c2.148 2.152 4.966 3.229 7.785 3.229 2.812 0 5.625-1.071 7.772-3.216 4.299-4.292 4.305-11.257.013-15.556z"/></g><g><path d="m484.202 449.047c8.787-8.419 14.277-20.262 14.277-33.371 0-25.481-20.705-46.213-46.155-46.213s-46.156 20.731-46.156 46.213c0 13.109 5.489 24.952 14.277 33.371-16.685 10.537-27.798 29.13-27.798 50.281v1.672c0 6.075 4.925 11 11 11h97.353c6.075 0 11-4.925 11-11v-1.672c0-21.151-11.113-39.744-27.798-50.281zm-31.879-57.584c13.319 0 24.155 10.862 24.155 24.213s-10.836 24.213-24.155 24.213-24.156-10.862-24.156-24.213 10.837-24.213 24.156-24.213zm-36.501 98.537c4.156-16.146 18.838-28.111 36.263-28.111h.476c17.425 0 32.107 11.966 36.263 28.111z"/><path d="m286.675 449.047c8.787-8.419 14.277-20.262 14.277-33.371 0-25.481-20.706-46.213-46.156-46.213s-46.156 20.731-46.156 46.213c0 13.11 5.49 24.952 14.277 33.371-16.685 10.538-27.798 29.13-27.798 50.281v1.672c0 6.075 4.925 11 11 11h97.354c6.075 0 11-4.925 11-11v-1.672c.001-21.151-11.113-39.744-27.798-50.281zm-31.879-57.584c13.319 0 24.156 10.862 24.156 24.213s-10.836 24.213-24.156 24.213-24.156-10.862-24.156-24.213 10.837-24.213 24.156-24.213zm-36.5 98.537c4.156-16.146 18.838-28.111 36.263-28.111h.476c17.425 0 32.107 11.966 36.263 28.111z"/><path d="m91.556 449.047c8.787-8.419 14.277-20.262 14.277-33.371 0-25.481-20.706-46.213-46.156-46.213s-46.155 20.731-46.155 46.213c0 13.109 5.489 24.952 14.277 33.371-16.686 10.537-27.799 29.13-27.799 50.281v1.672c0 6.075 4.925 11 11 11h97.354c6.075 0 11-4.925 11-11v-1.672c0-21.151-11.113-39.744-27.798-50.281zm-31.879-57.584c13.319 0 24.156 10.862 24.156 24.213s-10.836 24.213-24.156 24.213-24.155-10.862-24.155-24.213 10.835-24.213 24.155-24.213zm-36.501 98.537c4.156-16.146 18.838-28.111 36.263-28.111h.476c17.425 0 32.107 11.966 36.263 28.111z"/><path d="m256 0c-82.392 0-149.422 67.133-149.422 149.649s67.03 149.649 149.422 149.649 149.422-67.132 149.422-149.648-67.03-149.65-149.422-149.65zm0 277.298c-70.261 0-127.422-57.263-127.422-127.648s57.161-127.65 127.422-127.65 127.422 57.264 127.422 127.649-57.161 127.649-127.422 127.649z"/></g></g><g/><g/><g/><g/><g/><g/><g/><g/><g/><g/><g/><g/><g/><g/><g/></svg>