<svg id="Layer_1" enable-background="new 0 0 512.001 512.001" viewBox="0 0 512.001 512.001" xmlns="http://www.w3.org/2000/svg" fill="#052438"><g><g><path d="m245 139.006v38.841h22v-38.841c14.057-4.632 24.235-17.88 24.235-33.468 0-19.429-15.807-35.235-35.235-35.235s-35.235 15.807-35.235 35.235c0 15.588 10.179 28.836 24.235 33.468zm11-46.703c7.298 0 13.235 5.938 13.235 13.235s-5.938 13.235-13.235 13.235c-7.298 0-13.235-5.938-13.235-13.235s5.937-13.235 13.235-13.235z"/><path d="m294.471 392.838c10.795-10.11 17.55-24.403 17.55-40.236 0-30.563-25.131-55.429-56.021-55.429s-56.021 24.865-56.021 55.429c0 15.833 6.755 30.125 17.55 40.235-29.704 12.822-50.553 42.391-50.553 76.746v31.417c0 6.075 4.925 11 11 11h156.047c6.075 0 11-4.925 11-11v-31.417c.001-34.355-20.847-63.923-50.552-76.745zm-38.471-73.665c18.76 0 34.021 14.996 34.021 33.429s-15.261 33.429-34.021 33.429c-18.759 0-34.021-14.996-34.021-33.429s15.262-33.429 34.021-33.429zm67.024 170.828h-134.048v-20.417c0-32.076 24.666-58.486 56.024-61.292v21.171c0 6.075 4.925 11 11 11s11-4.925 11-11v-21.171c31.358 2.807 56.023 29.216 56.023 61.292v20.417z"/><path d="m501 245.001h-64.614l60.662-105.07c3.037-5.261 1.234-11.989-4.026-15.026l-39.837-23c-2.525-1.458-5.53-1.854-8.347-1.099-2.818.755-5.221 2.599-6.68 5.125l-64.258 111.298c-1.379 2.388-1.811 5.208-1.209 7.899l4.441 19.873h-25.838c-6.075 0-11 4.925-11 11s4.925 11 11 11h149.706c6.075 0 11-4.925 11-11s-4.924-11-11-11zm-49.289-118.544 20.784 12-12 20.784-20.784-12zm-23 39.837 20.784 12-33.614 58.221-16.918 5.303-3.866-17.303z"/><path d="m155 146.12h-48c-6.075 0-11 4.925-11 11v18.997h-37c-6.075 0-11 4.925-11 11v14.776h-37c-6.075 0-11 4.925-11 11v48c0 6.075 4.925 11 11 11h144c6.075 0 11-4.925 11-11v-103.773c0-6.075-4.924-11-11-11zm-133 77.773h26v26h-26zm48-25.776h26v51.776h-26zm74 51.776h-26v-81.773h26z"/></g><g fill="#0496FF"><path d="m256.901.005c-23.723-.25-46.118 8.861-63.126 25.616-17 16.747-26.428 39.014-26.547 62.698-.122 24.19 9.316 46.847 26.575 63.795 7.027 6.901 11.058 16.737 11.058 26.985v35.241c0 15.429 12.553 27.982 27.982 27.982h46.314c15.43 0 27.982-12.553 27.982-27.982v-35.473c0-.002 0-.004 0-.006s0-.004 0-.006c0-10.078 4.057-19.851 11.13-26.813 17.092-16.822 26.504-39.291 26.504-63.268 0-23.555-9.129-45.743-25.706-62.476-16.564-16.721-38.642-26.059-62.166-26.293zm28.239 214.335c0 3.298-2.684 5.982-5.982 5.982h-46.314c-3.298 0-5.982-2.684-5.982-5.982v-24.473h58.279v24.473zm17.697-77.977c-8.631 8.496-14.438 19.594-16.672 31.503h-60.351c-2.245-11.952-8.023-23.03-16.597-31.45-12.982-12.749-20.082-29.791-19.99-47.987.089-17.788 7.188-34.527 19.986-47.136 12.807-12.616 29.643-19.483 47.468-19.289 36.443.363 66.092 30.316 66.092 66.77.001 18.035-7.079 34.936-19.936 47.589z"/><path d="m104.73 395.657c12.673-10.171 20.792-25.689 20.792-43.055 0-30.563-25.131-55.429-56.021-55.429s-56.021 24.865-56.021 55.429c0 17.366 8.119 32.884 20.792 43.055-20.49 12.102-34.272 34.403-34.272 59.874v45.47c0 6.075 4.925 11 11 11h117c6.075 0 11-4.925 11-11v-45.47c0-25.471-13.781-47.772-34.27-59.874zm-69.251-43.055c0-18.433 15.262-33.429 34.021-33.429s34.021 14.996 34.021 33.429-15.261 33.429-34.021 33.429-34.021-14.996-34.021-33.429zm81.521 137.399h-44.525v-40.209c0-6.075-4.925-11-11-11s-11 4.925-11 11v40.209h-28.475v-34.47c0-26.191 21.309-47.5 47.5-47.5s47.5 21.309 47.5 47.5z"/><path d="m477.73 395.657c12.673-10.171 20.792-25.689 20.792-43.055 0-30.563-25.131-55.429-56.021-55.429s-56.021 24.865-56.021 55.429c0 17.366 8.119 32.884 20.792 43.055-20.49 12.102-34.272 34.403-34.272 59.874v45.47c0 6.075 4.925 11 11 11h117c6.075 0 11-4.925 11-11v-45.47c0-25.471-13.781-47.772-34.27-59.874zm-69.251-43.055c0-18.433 15.262-33.429 34.021-33.429s34.021 14.996 34.021 33.429-15.262 33.429-34.021 33.429-34.021-14.996-34.021-33.429zm81.521 137.399h-28.475v-40.209c0-6.075-4.925-11-11-11s-11 4.925-11 11v40.209h-44.525v-34.47c0-26.191 21.309-47.5 47.5-47.5s47.5 21.309 47.5 47.5z"/></g></g><g/><g/><g/><g/><g/><g/><g/><g/><g/><g/><g/><g/><g/><g/><g/></svg>