<svg id="Capa_1" enable-background="new 0 0 512 512" viewBox="0 0 512 512" xmlns="http://www.w3.org/2000/svg" fill="#052438"><g><g fill="#0496FF"><path d="m164.768 317.216c-6.075 0-11 4.925-11 11v61.625h-27.689c-6.075 0-11 4.925-11 11s4.925 11 11 11h29.253c11.269 0 20.437-9.167 20.437-20.436v-63.188c-.001-6.076-4.926-11.001-11.001-11.001z"/><path d="m385.922 389.84h-27.689v-61.625c0-6.075-4.925-11-11-11s-11 4.925-11 11v63.188c0 11.269 9.168 20.436 20.437 20.436h29.253c6.075 0 11-4.925 11-11s-4.926-10.999-11.001-10.999z"/><path d="m256 317.222c-6.075 0-11 4.925-11 11v93.045c0 6.075 4.925 11 11 11s11-4.925 11-11v-93.045c0-6.075-4.925-11-11-11z"/></g><g><path d="m93.484 360.97c-22.09 0-40.062 17.972-40.062 40.062s17.972 40.062 40.062 40.062 40.062-17.972 40.062-40.062-17.972-40.062-40.062-40.062zm0 58.123c-9.959 0-18.062-8.103-18.062-18.062s8.103-18.062 18.062-18.062 18.062 8.103 18.062 18.062-8.103 18.062-18.062 18.062z"/><path d="m256 412.87c-22.09 0-40.062 17.972-40.062 40.062s17.972 40.061 40.062 40.061 40.062-17.972 40.062-40.062-17.972-40.061-40.062-40.061zm0 58.123c-9.959 0-18.062-8.103-18.062-18.062s8.103-18.061 18.062-18.061 18.062 8.103 18.062 18.062-8.103 18.061-18.062 18.061z"/><path d="m418.516 360.97c-22.09 0-40.062 17.972-40.062 40.062s17.972 40.062 40.062 40.062 40.062-17.972 40.062-40.062-17.973-40.062-40.062-40.062zm0 58.123c-9.959 0-18.062-8.103-18.062-18.062s8.103-18.062 18.062-18.062 18.062 8.103 18.062 18.062-8.103 18.062-18.062 18.062z"/><path d="m444.945 145.103c-7.465-71.321-67.611-126.096-140.229-126.096-22.519 0-44.043 5.154-63.975 15.319-16.637 8.485-31.621 20.39-43.729 34.686-8.42-2.404-17.129-3.62-25.988-3.62-23.594 0-46.195 8.735-63.64 24.597-15.218 13.837-25.427 32.077-29.273 52.037-45.076 9.772-78.111 50.062-78.111 96.968 0 54.711 44.511 99.222 99.223 99.222h313.556c54.711 0 99.222-44.511 99.222-99.222-.001-42.758-27.196-80.291-67.056-93.891zm-32.167 171.113h-313.555c-42.581 0-77.223-34.642-77.223-77.222 0-34.311 22.71-64.056 54.556-73.824.453 8.432 2.002 16.723 4.655 24.706 1.533 4.614 5.827 7.534 10.437 7.534 1.15 0 2.32-.182 3.471-.564 5.766-1.916 8.886-8.142 6.97-13.907-16.046-45.683 20.214-96.614 68.936-95.546 23.067-.124 45.385 11.29 58.838 30.042 2.152 2.967 5.51 4.543 8.914 4.543 2.239 0 4.498-.681 6.449-2.096 4.918-3.566 6.014-10.445 2.447-15.363-7.873-10.855-17.845-19.813-29.288-26.43 22.403-23.714 53.189-37.081 86.332-37.081 58.815 0 107.929 42.573 117.367 99.197-3.087-.288-6.192-.433-9.304-.433-9.668 0-19.227 1.39-28.411 4.131-5.821 1.737-9.133 7.865-7.396 13.686 1.721 5.874 8.023 9.133 13.687 7.395 13.227-3.971 27.805-4.266 41.196-.837 34.234 8.695 58.144 39.473 58.144 74.847 0 42.58-34.642 77.222-77.222 77.222z"/></g></g><g/><g/><g/><g/><g/><g/><g/><g/><g/><g/><g/><g/><g/><g/><g/></svg>