<svg id="Capa_1" enable-background="new 0 0 512 512" viewBox="0 0 512 512" xmlns="http://www.w3.org/2000/svg" fill="#052438"><g><g fill="#0496FF"><path d="m256.001 89c-6.075 0-11 4.925-11 11v38c0 6.075 4.925 11 11 11s11-4.925 11-11v-38c0-6.075-4.925-11-11-11z"/><path d="m162.001 243c0-6.075-4.925-11-11-11h-38.001c-6.075 0-11 4.925-11 11s4.925 11 11 11h38.001c6.075 0 11-4.925 11-11z"/><path d="m179.183 182.426c2.946 0 5.884-1.176 8.05-3.501 4.142-4.444 3.896-11.405-.549-15.546l-72.377-67.439c-4.444-4.142-11.405-3.895-15.546.549s-3.896 11.405.549 15.546l72.377 67.438c2.119 1.976 4.811 2.953 7.496 2.953z"/><path d="m205.445 322.26c-5.122-3.267-11.922-1.764-15.189 3.358l-35.906 56.293c-3.267 5.122-1.763 11.923 3.358 15.189 1.833 1.169 3.881 1.728 5.905 1.728 3.631 0 7.187-1.797 9.284-5.086l35.906-56.293c3.268-5.121 1.764-11.922-3.358-15.189z"/><path d="m405.21 114.155c-3.971-4.597-10.917-5.106-15.515-1.136l-56.432 48.73c-4.598 3.971-5.106 10.917-1.136 15.515 2.176 2.519 5.244 3.811 8.331 3.811 2.547 0 5.105-.879 7.185-2.674l56.432-48.73c4.596-3.972 5.105-10.918 1.135-15.516z"/></g><g><path d="m122.001 243c0-30.051-24.449-54.5-54.5-54.5-30.052 0-54.501 24.449-54.501 54.5s24.449 54.5 54.5 54.5c30.052 0 54.501-24.449 54.501-54.5zm-87.001 0c0-17.92 14.58-32.5 32.5-32.5 17.921 0 32.5 14.58 32.5 32.5s-14.58 32.5-32.5 32.5-32.5-14.58-32.5-32.5z"/><path d="m65.486 130.969c17.492 0 33.936-6.812 46.305-19.18 12.368-12.369 19.18-28.813 19.18-46.305 0-17.491-6.812-33.936-19.18-46.305-25.533-25.532-67.077-25.532-92.609 0-25.532 25.533-25.532 67.077 0 92.61 12.368 12.368 28.812 19.18 46.304 19.18zm-30.749-96.233c8.477-8.477 19.612-12.716 30.748-12.716s22.271 4.239 30.749 12.716c8.213 8.213 12.737 19.133 12.737 30.748s-4.523 22.535-12.736 30.748-19.133 12.736-30.748 12.736-22.535-4.523-30.748-12.736c-16.956-16.954-16.956-44.542-.002-61.496z"/><path d="m256.001 109c30.051 0 54.5-24.449 54.5-54.5s-24.449-54.5-54.5-54.5c-30.052 0-54.5 24.449-54.5 54.5s24.448 54.5 54.5 54.5zm0-87c17.92 0 32.5 14.58 32.5 32.5s-14.58 32.5-32.5 32.5c-17.921 0-32.5-14.58-32.5-32.5s14.579-32.5 32.5-32.5z"/><path d="m467.333 293.932c-7.525 0-14.499 2.411-20.188 6.5-6.356-7.994-16.162-13.127-27.146-13.127-7.525 0-14.499 2.411-20.188 6.5-6.356-7.995-16.162-13.127-27.145-13.127-4.469 0-8.741.849-12.667 2.396v-44.524c0-19.115-15.551-34.667-34.667-34.667-3.209 0-6.318.439-9.269 1.259-12.94-20.524-35.656-33.142-60.062-33.142-39.149 0-71 31.85-71 71s31.851 71 71 71c12.339 0 24.195-3.125 34.666-9.001v39.653c-13.37-8.302-31.204-6.653-42.799 4.943-13.516 13.517-13.516 35.509 0 49.025l42.799 42.799v59.581c0 6.075 4.925 11 11 11h189.333c6.075 0 11-4.925 11-11v-172.403c0-19.115-15.551-34.665-34.667-34.665zm-211.332-1.932c-27.019 0-49-21.981-49-49s21.981-49 49-49c17.081 0 32.962 8.955 41.826 23.473-4.489 5.844-7.159 13.154-7.159 21.075v39.08c-9.258 9.269-21.568 14.372-34.667 14.372zm7.423 91.064c-4.938-4.938-4.938-12.974 0-17.913s12.975-4.939 17.914 0l12.551 12.551c3.146 3.146 7.876 4.087 11.988 2.384 4.11-1.703 6.791-5.713 6.791-10.163v-131.374c0-6.984 5.682-12.666 12.667-12.666s12.665 5.682 12.665 12.667v90.047c0 6.075 4.925 11 11 11s11-4.925 11-11v-13.255c0-6.984 5.683-12.667 12.667-12.667s12.667 5.682 12.667 12.666v13.255c0 6.075 4.925 11 11 11s11-4.925 11-11v-6.627c0-6.984 5.682-12.666 12.667-12.666s12.667 5.682 12.667 12.667v6.627c0 6.075 4.925 10.999 11 10.999s11-4.925 11-11c0-6.984 5.682-12.666 12.666-12.666 6.985 0 12.667 5.682 12.667 12.666v111.404h-167.334v-3.136c0-2.917-1.159-5.715-3.222-7.778zm216.576 106.936h-167.333v-28h167.333z"/><path d="m442.599 151.236c17.772 0 35.544-6.765 49.074-20.294 27.059-27.06 27.059-71.088 0-98.147-27.059-27.058-71.087-27.059-98.147 0-13.108 13.108-20.327 30.536-20.327 49.074s7.219 35.966 20.327 49.074c13.53 13.529 31.301 20.293 49.073 20.293zm-33.516-102.884c9.242-9.242 21.377-13.861 33.518-13.861 12.137 0 24.277 4.621 33.517 13.861 18.481 18.481 18.481 48.553 0 67.034-18.481 18.479-48.554 18.481-67.034 0-8.953-8.953-13.884-20.856-13.884-33.517s4.93-24.565 13.883-33.517z"/><path d="m79.47 389.968c-27.872 27.872-27.872 73.222 0 101.094 13.501 13.502 31.453 20.938 50.547 20.938s37.045-7.436 50.547-20.937c27.872-27.872 27.872-73.223 0-101.094-27.871-27.872-73.222-27.872-101.094-.001zm85.538 85.538c-9.347 9.347-21.773 14.494-34.991 14.494s-25.644-5.147-34.99-14.494c-19.294-19.294-19.294-50.687 0-69.981 9.647-9.647 22.319-14.471 34.991-14.471s25.344 4.824 34.991 14.471c19.293 19.293 19.293 50.687-.001 69.981z"/></g></g><g/><g/><g/><g/><g/><g/><g/><g/><g/><g/><g/><g/><g/><g/><g/></svg>