<svg id="Capa_1" enable-background="new 0 0 512 512" viewBox="0 0 512 512" xmlns="http://www.w3.org/2000/svg" fill="#052438"><g><g fill="#0496FF"><path d="m86 52.278c2.356 0 4.713-.753 6.678-2.258v26.443c0 6.075 4.925 11 11 11s11-4.925 11-11v-26.443c4.312 3.302 10.51 2.981 14.455-.964 4.296-4.296 4.296-11.261 0-15.556l-17.677-17.678c-2.063-2.063-4.861-3.222-7.778-3.222s-5.715 1.159-7.778 3.222l-17.679 17.678c-4.295 4.296-4.295 11.261 0 15.557 2.148 2.147 4.964 3.221 7.779 3.221z"/><path d="m79.677 184.326v-26.443c1.965 1.505 4.321 2.258 6.678 2.258 2.815 0 5.63-1.074 7.778-3.222 4.295-4.296 4.295-11.261 0-15.557l-17.678-17.678c-2.063-2.063-4.861-3.222-7.778-3.222s-5.715 1.159-7.778 3.222l-17.677 17.678c-4.296 4.295-4.295 11.26 0 15.556 3.945 3.946 10.142 4.266 14.455.964v26.443c0 6.075 4.925 11 11 11s11-4.924 11-10.999z"/><path d="m397.321 50.021v26.442c0 6.075 4.925 11 11 11s11-4.925 11-11v-26.443c1.965 1.505 4.321 2.258 6.678 2.258 2.815 0 5.63-1.074 7.778-3.222 4.296-4.296 4.296-11.261 0-15.557l-17.677-17.677c-2.063-2.063-4.861-3.222-7.778-3.222-2.918 0-5.716 1.159-7.778 3.222l-17.678 17.678c-4.296 4.296-4.296 11.261 0 15.556 3.947 3.946 10.143 4.267 14.455.965z"/><path d="m468.777 141.362-17.677-17.677c-2.063-2.063-4.861-3.222-7.778-3.222-2.918 0-5.716 1.159-7.778 3.222l-17.677 17.678c-4.296 4.296-4.296 11.261 0 15.556 3.946 3.945 10.143 4.266 14.455.964v26.442c0 6.075 4.925 11 11 11s11-4.925 11-11v-26.443c1.965 1.505 4.321 2.258 6.678 2.258 2.815 0 5.63-1.074 7.778-3.222 4.295-4.295 4.295-11.26-.001-15.556z"/><path d="m436 305c-15.99 0-29-13.009-29-29 0-6.075-4.925-11-11-11h-280c-6.075 0-11 4.925-11 11 0 15.991-13.009 29-29 29-6.075 0-11 4.925-11 11v100c0 6.075 4.925 11 11 11 15.991 0 29 13.009 29 29 0 6.075 4.925 11 11 11h280c6.075 0 11-4.925 11-11 0-15.99 13.01-29 29-29 6.075 0 11-4.925 11-11v-100c0-6.076-4.925-11-11-11zm-11 101.194c-19.307 4.262-34.544 19.499-38.806 38.805h-260.389c-4.262-19.307-19.499-34.543-38.806-38.805v-80.389c19.307-4.262 34.544-19.499 38.806-38.806h260.389c4.262 19.307 19.499 34.544 38.806 38.806z"/></g><g><path d="m486 220h-158.988v-72.917h40.733c4.337 0 8.269-2.548 10.04-6.506s1.053-8.588-1.837-11.822l-111.745-125.084c-2.087-2.336-5.071-3.671-8.203-3.671s-6.116 1.335-8.203 3.671l-111.746 125.082c-2.889 3.234-3.609 7.864-1.837 11.822s5.704 6.506 10.041 6.506h40.733v72.919h-158.988c-6.075 0-11 4.925-11 11v270c0 6.075 4.925 11 11 11h460c6.075 0 11-4.925 11-11v-270c0-6.076-4.925-11-11-11zm-290.013-94.918h-27.155l87.168-97.571 87.168 97.571h-27.156c-6.075 0-11 4.925-11 11v83.918h-98.025v-83.917c0-6.076-4.925-11.001-11-11.001zm279.013 364.918h-438v-248h438z"/><path d="m247.381 374.336 8.818 3.652c2.652 1.098 3.963 4.267 2.865 6.92-.721 1.74-2.109 2.53-2.873 2.847-.763.316-2.306.739-4.045.019l-4.409-1.827c-5.61-2.326-12.047.34-14.373 5.952s.339 12.047 5.952 14.373l4.411 1.828c.421.174.845.338 1.272.491v2.409c0 6.075 4.925 11 11 11s11-4.925 11-11v-4.043c5.597-2.965 9.946-7.727 12.391-13.631 5.759-13.905-.867-29.903-14.771-35.663l-8.819-3.653c-1.741-.721-2.531-2.11-2.847-2.874s-.74-2.305-.018-4.046c1.098-2.652 4.267-3.965 6.919-2.866l4.408 1.826c5.609 2.323 12.047-.34 14.372-5.953s-.34-12.047-5.952-14.373l-4.409-1.827c-.422-.175-.846-.338-1.272-.491v-2.406c0-6.075-4.925-11-11-11s-11 4.925-11 11v4.043c-5.597 2.965-9.946 7.726-12.391 13.63-5.761 13.905.866 29.904 14.771 35.663z"/><path d="m341.625 377h30c6.075 0 11-4.925 11-11s-4.925-11-11-11h-30c-6.075 0-11 4.925-11 11s4.925 11 11 11z"/><path d="m140.375 377h30c6.075 0 11-4.925 11-11s-4.925-11-11-11h-30c-6.075 0-11 4.925-11 11s4.924 11 11 11z"/></g></g><g/><g/><g/><g/><g/><g/><g/><g/><g/><g/><g/><g/><g/><g/><g/></svg>