<svg id="Capa_1" enable-background="new 0 0 512 512" viewBox="0 0 512 512" xmlns="http://www.w3.org/2000/svg" fill="#E6ECF2"><g><path d="m503.987 281.474-115.744-66.825v-133.649c0-3.93-2.097-7.562-5.5-9.526l-121.243-70c-3.404-1.965-7.596-1.965-11 0l-121.243 70c-3.403 1.965-5.5 5.596-5.5 9.526v133.649l-115.744 66.825c-3.403 1.965-5.5 5.596-5.5 9.526v140c0 3.93 2.097 7.562 5.5 9.526l121.244 70c1.702.982 3.601 1.474 5.5 1.474s3.798-.491 5.5-1.474l115.743-66.824 115.743 66.825c1.702.982 3.601 1.474 5.5 1.474s3.799-.491 5.5-1.474l121.244-70c3.403-1.965 5.5-5.596 5.5-9.526v-140.001c0-3.93-2.096-7.562-5.5-9.526zm-358.23-194.123 110.243-63.649 110.243 63.649v127.298l-110.243 63.649-110.243-63.649zm-11 400.947-110.244-63.649v-127.298l110.244-63.649 110.243 63.649v127.298zm352.73-63.649-110.244 63.649-110.243-63.649v-127.298l110.243-63.649 110.244 63.649z"/><g><path d="m203.42 219h105.168c6.075 0 11-4.925 11-11v-1.461c0-23.005-12.281-43.195-30.63-54.361 9.839-8.964 16.024-21.874 16.024-36.201-.001-27.006-21.972-48.977-48.978-48.977s-48.978 21.971-48.978 48.978c0 14.327 6.185 27.237 16.024 36.201-18.35 11.165-30.63 31.355-30.63 54.361v1.46c0 6.075 4.925 11 11 11zm25.606-103.022c0-14.875 12.103-26.978 26.978-26.978s26.978 12.102 26.978 26.978-12.103 26.978-26.978 26.978-26.978-12.103-26.978-26.978zm26.978 48.977c19.647 0 36.157 13.698 40.48 32.045h-80.961c4.324-18.347 20.833-32.045 40.481-32.045z" fill="#0496FF"/><path d="m194.41 342.082-73.554-42.466c-6.917-3.993-15.174-3.991-22.087 0-6.915 3.992-11.043 11.143-11.043 19.127v84.933c0 7.985 4.128 15.135 11.043 19.127 3.458 1.997 7.25 2.995 11.043 2.995s7.587-.999 11.044-2.994l73.554-42.467c6.915-3.992 11.044-11.142 11.044-19.127s-4.129-15.136-11.044-19.128zm-11 19.098-73.57 42.6c-.036-.005-.107-.046-.113-.104l-.017-84.961c.018-.023.066-.053.111-.053.013 0 .024.002.035.007z"/><path d="m451.284 312.072c-6.084-3.513-13.348-3.512-19.432 0l-18.506 10.684c-1.804-10.077-10.615-17.756-21.203-17.756h-71.583c-11.888 0-21.56 9.671-21.56 21.56v68.881c0 11.888 9.672 21.56 21.56 21.56h71.583c10.462 0 19.2-7.493 21.148-17.393l18.562 10.716c3.042 1.757 6.379 2.635 9.716 2.635s6.674-.878 9.715-2.634c6.085-3.512 9.717-9.803 9.717-16.829v-64.596c-.001-7.025-3.633-13.316-9.717-16.828zm-59.581 82.928h-70.703v-68h70.703zm47.297-5.953-25.297-14.605v-26.489l25.297-14.604z"/></g></g><g/><g/><g/><g/><g/><g/><g/><g/><g/><g/><g/><g/><g/><g/><g/></svg>