<svg id="Capa_1" enable-background="new 0 0 512 512" viewBox="0 0 512 512" xmlns="http://www.w3.org/2000/svg" fill="#E6ECF2"><g><g><path d="m370.696 213.983c20.287-44.494 22.888-98.025 22.888-139.691 0-6.075-4.925-11-11-11-28.834 0-52.292-23.458-52.292-52.292 0-6.075-4.925-11-11-11h-126.584c-6.075 0-11 4.925-11 11 0 28.834-23.458 52.292-52.292 52.292-6.075 0-11 4.925-11 11 0 41.665 2.602 95.197 22.888 139.691 21.236 46.576 57.822 76.254 111.849 90.73.933.25 1.89.375 2.847.375s1.915-.125 2.847-.375c54.027-14.476 90.613-44.153 111.849-90.73zm-114.696 68.697c-97.715-27.677-114.415-110.587-115.521-198.209 32.147-4.819 57.623-30.315 62.417-62.471h106.209c4.794 32.155 30.27 57.651 62.417 62.471-1.107 87.622-17.807 170.532-115.522 198.209z"/><path d="m265.776 137.194-16.006 16.006-3.546-3.546c-4.296-4.295-11.261-4.295-15.557 0-4.295 4.296-4.295 11.261 0 15.557l11.324 11.324c2.148 2.147 4.963 3.222 7.778 3.222s5.63-1.074 7.778-3.222l23.784-23.784c4.295-4.296 4.295-11.261 0-15.557-4.294-4.295-11.259-4.295-15.555 0z"/><path d="m175.302 322.109-47.649-39.92c-6.771-6.165-15.557-9.366-24.755-9.001-9.303.361-17.892 4.307-24.185 11.11-1.609 1.74-3.007 3.602-4.193 5.554l-4.892-88.986c-.994-18.084-6.896-32.042-17.541-41.487-10.336-9.172-24.344-13.391-41.621-12.557-5.861.286-10.466 5.121-10.466 10.989v173.601c0 2.204.662 4.356 1.9 6.18l77.092 113.516v49.892c0 6.075 4.925 11 11 11h121.008c6.075 0 11-4.925 11-11v-83.256c0-56.513-20.608-73.777-46.698-95.635zm-153.302-152.927c16.339 2.279 24.563 12.939 25.661 32.893l5.599 101.843c.157 2.851 1.416 5.529 3.511 7.469l67.146 62.157c4.457 4.125 11.417 3.859 15.545-.6 4.127-4.458 3.858-11.418-.6-15.545l-43.323-40.105c-5.151-4.795-5.455-12.887-.674-18.057 2.302-2.488 5.458-3.932 8.888-4.064 3.427-.141 6.688 1.061 9.175 3.362.133.123.269.243.408.359l47.839 40.079c25.034 20.974 38.825 32.528 38.825 78.771v18.98h-104.181l-73.819-108.695zm178 320.818h-99.008v-31.275h99.008z"/><path d="m501.534 146.823c-17.279-.83-31.285 3.386-41.621 12.557-10.645 9.445-16.546 23.403-17.541 41.487l-4.892 88.986c-1.187-1.952-2.584-3.814-4.194-5.554-6.292-6.804-14.881-10.749-24.184-11.11-9.203-.366-17.983 2.836-24.755 9.001l-47.649 39.92c-26.09 21.857-46.698 39.121-46.698 95.634v83.256c0 6.075 4.925 11 11 11h121.008c6.075 0 11-4.925 11-11v-49.893l77.092-113.516c1.238-1.823 1.9-3.976 1.9-6.18v-173.6c0-5.868-4.605-10.703-10.466-10.988zm-90.527 343.177h-99.007v-31.275h99.008v31.275zm78.993-161.971-73.819 108.695h-104.181v-18.98c0-46.243 13.792-57.797 38.827-78.771l47.839-40.079c.139-.116.275-.236.408-.359 2.487-2.301 5.734-3.502 9.175-3.362 3.43.133 6.586 1.576 8.887 4.064 4.78 5.169 4.477 13.256-.668 18.052l-43.329 40.11c-4.458 4.127-4.727 11.087-.6 15.545s11.086 4.725 15.545.6l67.146-62.157c2.095-1.939 3.354-4.618 3.511-7.469l5.599-101.843c1.097-19.955 9.319-30.615 25.661-32.893v158.847z"/></g><g><path d="m256 258.067c-1.216 0-2.433-.202-3.599-.605-27.97-9.683-48.343-25.206-62.284-47.458-14.849-23.698-23.289-56.493-25.805-100.258-.258-4.489 2.243-8.684 6.314-10.592 20.903-9.794 37.705-26.746 47.309-47.731 1.793-3.913 5.701-6.423 10.004-6.423h56.122c4.303 0 8.211 2.51 10.002 6.423 9.604 20.985 26.406 37.938 47.309 47.732 4.072 1.908 6.572 6.103 6.314 10.592-2.516 43.764-10.956 76.559-25.804 100.257-13.942 22.252-34.315 37.775-62.285 47.458-1.164.403-2.381.605-3.597.605zm-69.25-142.44c2.735 36.354 9.956 63.456 22.011 82.697 10.58 16.887 26.059 29.032 47.24 37.046 21.181-8.014 36.66-20.159 47.24-37.047 12.054-19.24 19.275-46.342 22.01-82.695-20.373-11.186-37.091-28.113-48.016-48.628h-42.47c-10.926 20.515-27.643 37.442-48.015 48.627z" fill="#0496FF"/></g></g><g/><g/><g/><g/><g/><g/><g/><g/><g/><g/><g/><g/><g/><g/><g/></svg>