<svg id="Capa_1" enable-background="new 0 0 512 512" viewBox="0 0 512 512" xmlns="http://www.w3.org/2000/svg" fill="#E6ECF2"><g><g fill="#0496FF"><path d="m314.125 305h-46.5v-26.075c0-6.075-4.926-11-11-11-6.075 0-11 4.925-11 11v26.075h-46.5c-6.075 0-11 4.925-11 11v42.226c0 6.075 4.925 11 11 11s11-4.925 11-11v-31.226h93v31.226c0 6.075 4.925 11 11 11s11-4.925 11-11v-42.226c0-6.075-4.924-11-11-11z"/><path d="m214.325 226c0-6.075-4.925-11-11-11h-87.951c-6.075 0-11 4.925-11 11v47.525c0 6.075 4.925 11 11 11s11-4.925 11-11v-36.525h76.951c6.075 0 11-4.925 11-11z"/><path d="m396.625 215h-87.9c-6.075 0-11 4.925-11 11s4.925 11 11 11h76.9v36.525c0 6.075 4.925 11 11 11s11-4.925 11-11v-47.525c0-6.075-4.924-11-11-11z"/><path d="m257.875 183.699c6.075 0 11-4.925 11-11v-28.775c0-6.075-4.925-11-11-11s-11 4.925-11 11v28.775c0 6.076 4.924 11 11 11z"/></g><g><path d="m459.24 418.24h-5.199c37.51-45.684 57.959-102.571 57.959-162.24 0-47.333-13.096-93.669-37.87-133.999-3.179-5.175-9.951-6.795-15.131-3.615-5.177 3.18-6.795 9.954-3.615 15.13 22.646 36.865 34.616 79.219 34.616 122.484 0 52.81-17.522 103.234-49.759 144.289v-1.048c0-6.075-4.925-11-11-11s-11 4.925-11 11v30c0 6.075 4.925 11 11 11h29.999c6.075 0 11-4.925 11-11s-4.925-11.001-11-11.001z"/><path d="m337.875 146.999c6.075 0 11-4.925 11-11v-50c0-6.075-4.925-11-11-11h-160c-6.075 0-11 4.925-11 11v50c0 6.075 4.925 11 11 11zm-149-50h138v28h-138z"/><path d="m74.375 311c0 22.607 18.393 41 41 41s41-18.393 41-41c0-22.608-18.393-41-41-41s-41 18.392-41 41zm41-19c10.477 0 19 8.523 19 19s-8.523 19-19 19-19-8.523-19-19 8.523-19 19-19z"/><path d="m199.125 437.001c22.608 0 41-18.393 41-41s-18.393-41-41-41-41 18.393-41 41 18.393 41 41 41zm0-60.001c10.477 0 19 8.523 19 19s-8.523 19-19 19-19-8.523-19-19c0-10.476 8.523-19 19-19z"/><path d="m314.125 437.001c22.607 0 41-18.393 41-41s-18.393-41-41-41-41 18.393-41 41 18.393 41 41 41zm0-60.001c10.477 0 19 8.523 19 19s-8.523 19-19 19-19-8.523-19-19c0-10.476 8.524-19 19-19z"/><path d="m437.625 311c0-22.608-18.393-41-41-41-22.608 0-41.001 18.393-41.001 41s18.393 41 41.001 41 41-18.392 41-41zm-41 19c-10.478 0-19.001-8.523-19.001-19s8.523-19 19.001-19c10.477 0 19 8.523 19 19s-8.523 19-19 19z"/><path d="m378.483 455.383c-36.864 22.646-79.218 34.616-122.483 34.616-52.851 0-103.247-17.517-144.294-49.758h1.053c6.075 0 11-4.925 11-11s-4.925-11-11-11h-30c-6.075 0-11 4.925-11 11v29.999c0 6.075 4.925 11 11 11s11-4.925 11-11v-5.203c19.918 16.341 42.097 29.505 66.165 39.25 30.667 12.417 62.991 18.712 96.076 18.712 47.333 0 93.668-13.096 133.999-37.871 5.177-3.18 6.795-9.954 3.615-15.13-3.18-5.175-9.952-6.795-15.131-3.615z"/><path d="m22 255.999c0-52.963 17.501-103.287 49.759-144.311v1.07c0 6.075 4.925 11 11 11s11-4.925 11-11v-30c0-6.075-4.925-11-11-11h-30c-6.075 0-11 4.925-11 11s4.925 11 11 11h5.199c-15.989 19.489-28.943 41.158-38.637 64.674-12.821 31.101-19.321 63.928-19.321 97.567 0 47.333 13.096 93.668 37.871 133.999 2.077 3.381 5.686 5.244 9.383 5.244 1.963 0 3.952-.526 5.748-1.629 5.176-3.18 6.795-9.954 3.615-15.13-22.647-36.865-34.617-79.219-34.617-122.484z"/><path d="m133.517 56.616c36.863-22.646 79.217-34.616 122.483-34.616 52.885 0 103.257 17.512 144.298 49.758h-1.056c-6.075 0-11 4.925-11 11s4.925 11 11 11h29.999c6.075 0 11-4.925 11-11v-29.998c0-6.075-4.925-11-11-11s-11 4.925-11 11v5.203c-19.782-16.229-41.798-29.328-65.69-39.058-30.805-12.544-63.29-18.905-96.551-18.905-47.333 0-93.67 13.096-133.999 37.871-5.176 3.18-6.795 9.954-3.615 15.13 3.18 5.177 9.955 6.795 15.131 3.615z"/><path d="m312.625 270.999v-90c0-6.075-4.925-11-11-11h-90c-6.075 0-11 4.925-11 11v90c0 6.075 4.925 11 11 11h90c6.076 0 11-4.925 11-11zm-22-11h-68v-68h68z"/></g></g><g/><g/><g/><g/><g/><g/><g/><g/><g/><g/><g/><g/><g/><g/><g/></svg>