<svg id="Layer_1" enable-background="new 0 0 512 512" viewBox="0 0 512 512" xmlns="http://www.w3.org/2000/svg" fill="#E6ECF2"><g><g fill="#0496FF"><path d="m166.5 391.873h-88c-6.075 0-11 4.925-11 11v76h22v-65h66v65h22v-76c0-6.075-4.925-11-11-11z"/><path d="m300 353.194h-88c-6.075 0-11 4.925-11 11v114.68h22v-103.68h66v103.68h22v-114.68c0-6.076-4.925-11-11-11z"/><path d="m433.5 217.873h-88c-6.075 0-11 4.925-11 11v250h22v-239h66v239h22v-250c0-6.075-4.925-11-11-11z"/></g><g><path d="m147.504 362.652c2.063 2.063 4.861 3.222 7.778 3.222s5.715-1.159 7.778-3.222l225.552-225.552 11.309 11.309c2.815 2.814 6.929 3.888 10.761 2.81 3.831-1.079 6.78-4.144 7.712-8.013l21.974-91.26c.896-3.724-.208-7.646-2.916-10.354s-6.631-3.813-10.354-2.916l-91.26 21.974c-3.869.932-6.934 3.881-8.013 7.712s-.005 7.946 2.81 10.761l11.309 11.309-225.553 225.55c-4.295 4.296-4.295 11.261 0 15.557zm217.773-264.442c4.295-4.296 4.295-11.261 0-15.557l-5.209-5.209 54.701-13.171-13.171 54.701-5.208-5.209c-2.063-2.063-4.861-3.222-7.778-3.222s-5.715 1.159-7.778 3.222l-225.552 225.552-15.556-15.556z"/><path d="m508.779 471.095-22-22c-4.296-4.296-11.261-4.296-15.557 0-4.295 4.296-4.295 11.261 0 15.557l3.222 3.222h-430.444v-430.317l3.222 3.222c2.148 2.148 4.963 3.221 7.778 3.221s5.63-1.074 7.778-3.222c4.295-4.296 4.295-11.261 0-15.557l-22-22c-4.296-4.296-11.261-4.296-15.557 0l-22 22c-4.295 4.296-4.295 11.261 0 15.557 4.296 4.296 11.261 4.296 15.557 0l3.222-3.221v430.317h-11c-6.075 0-11 4.925-11 11s4.925 11 11.751 11h10.249v11.126c0 6.075 4.925 11 11 11s11-4.925 11-11v-11.127h430.443l-3.222 3.222c-4.295 4.296-4.295 11.261 0 15.557 2.148 2.148 4.963 3.222 7.778 3.222s5.63-1.074 7.778-3.222l22-22c4.297-4.296 4.297-11.261.002-15.557z"/></g></g><g/><g/><g/><g/><g/><g/><g/><g/><g/><g/><g/><g/><g/><g/><g/></svg>