<svg id="Capa_1" enable-background="new 0 0 512 512" viewBox="0 0 512 512" xmlns="http://www.w3.org/2000/svg" fill="#E6ECF2"><g><g><path d="m148.727 148.693c-6.075 0-11-4.925-11-11v-28.102c0-2.316-1.885-4.201-4.201-4.201h-40.146c-2.316 0-4.201 1.885-4.201 4.201v28.102c0 6.075-4.925 11-11 11s-11-4.925-11-11v-28.102c0-14.447 11.754-26.201 26.201-26.201h40.146c14.447 0 26.201 11.754 26.201 26.201v28.102c0 6.075-4.925 11-11 11z"/></g><g fill="#0496FF"><path d="m206.678 127.425h-186.45c-11.154 0-20.228 9.108-20.228 20.304v48.123c0 8.383 5 15.677 12.499 18.761v75.081c0 6.075 4.925 11 11 11s11-4.925 11-11v-69.214l38.9 10.007c.919.236 1.841.349 2.748.349 4.899 0 9.368-3.298 10.646-8.262 1.514-5.883-2.029-11.88-7.913-13.394l-56.88-14.631v-45.124h182.905v45.124l-55.305 14.227c-5.884 1.514-9.427 7.51-7.913 13.394s7.513 9.428 13.394 7.913l37.325-9.602v69.214c0 6.075 4.925 11 11 11s11-4.925 11-11v-75.081c7.499-3.085 12.5-10.378 12.5-18.762v-48.123c-.001-11.196-9.075-20.304-20.228-20.304z"/><path d="m493.663 134.605c-22.868-22.867-59.169-24.314-83.732-4.339-24.566-19.976-60.866-18.528-83.733 4.339-11.825 11.825-18.337 27.547-18.337 44.27 0 16.724 6.512 32.445 18.337 44.271l75.954 75.955c2.063 2.062 13.493 2.063 15.557 0l75.955-75.955c24.409-24.411 24.409-64.131-.001-88.541zm-15.557 72.984-68.177 68.177-68.176-68.177c-7.67-7.669-11.894-17.867-11.894-28.714 0-10.846 4.224-21.044 11.894-28.713 7.917-7.917 18.314-11.875 28.714-11.875 11.795-.208 23.522 5.555 31.684 14.844 2.062 2.063 4.86 3.223 7.777 3.223h.001c2.917 0 5.715-1.159 7.777-3.221 15.436-18.189 43.426-20.121 60.399-2.971 15.834 15.832 15.834 41.594.001 57.427z"/></g><g><path d="m85.755 253.696h55.396c10.243 0 18.576-8.333 18.576-18.576v-31.382c0-10.243-8.333-18.576-18.576-18.576h-55.396c-10.243 0-18.576 8.333-18.576 18.576v31.382c0 10.243 8.333 18.576 18.576 18.576zm3.424-46.534h48.548v24.534h-48.548z"/><path d="m501 280.613h-490c-6.075 0-11 4.925-11 11v47.624c0 6.075 4.925 11 11 11h209.666l-35.044 56.374h-32.64c-6.075 0-11 4.925-11 11s4.925 11 11 11h206.037c6.075 0 11-4.925 11-11s-4.925-11-11-11h-32.64l-35.045-56.374h209.666c6.075 0 11-4.925 11-11v-47.624c0-6.076-4.925-11-11-11zm-200.526 125.997h-88.948l35.044-56.374h18.859zm189.526-78.374h-468v-25.624h468z"/></g></g><g/><g/><g/><g/><g/><g/><g/><g/><g/><g/><g/><g/><g/><g/><g/></svg>