<svg id="Capa_1" enable-background="new 0 0 512 512" viewBox="0 0 512 512" xmlns="http://www.w3.org/2000/svg" fill="#052438"><g><g fill="#0496FF"><path d="m211.771 215.573c2.063 2.063 4.861 3.222 7.778 3.222s5.716-1.159 7.778-3.222l35.2-35.201c4.296-4.296 4.296-11.261 0-15.557-4.297-4.296-11.26-4.295-15.557 0l-27.422 27.423-13.777-13.778c-4.297-4.296-11.26-4.296-15.557 0-4.296 4.296-4.296 11.261 0 15.557z"/><path d="m246.971 267.041-27.422 27.422-13.777-13.777c-4.297-4.296-11.26-4.296-15.557 0-4.296 4.296-4.296 11.261 0 15.557l21.556 21.556c2.063 2.063 4.861 3.222 7.778 3.222s5.716-1.159 7.778-3.222l35.2-35.201c4.296-4.295 4.296-11.26 0-15.556-4.297-4.298-11.261-4.297-15.556-.001z"/><path d="m246.971 369.265-27.422 27.422-13.777-13.777c-4.297-4.296-11.26-4.296-15.557 0-4.296 4.296-4.296 11.261 0 15.557l21.556 21.556c2.063 2.063 4.861 3.222 7.778 3.222s5.716-1.159 7.778-3.222l35.2-35.201c4.296-4.296 4.296-11.261 0-15.557-4.297-4.296-11.259-4.295-15.556 0z"/></g><g><path d="m481.5 24.279h-140.83c-4.632-14.084-17.909-24.279-33.524-24.279s-28.892 10.195-33.523 24.279h-140.829c-6.075 0-11 4.925-11 11v233.301h-17.64c-22.607 0-41 18.393-41 41v11.575l-16.93 24.635c-16.609 24.173-15.603 55.915 2.505 78.986l.49.625c-18.056 13.84-29.72 35.623-29.72 60.078v15.521c0 6.075 4.925 11 11 11h451c6.075 0 11-4.925 11-11v-465.721c.001-6.075-4.924-11-10.999-11zm-11 48.559h-82.05v-26.559h82.05zm-187.633-26.559c6.075 0 11-4.925 11-11 0-7.322 5.957-13.279 13.279-13.279s13.279 5.957 13.279 13.279c0 6.075 4.925 11 11 11h35.024v26.559h-118.606v-26.559zm-57.024 0v26.559h-82.049v-26.559zm-140.689 263.302c0-10.477 8.523-19 19-19h27.757c10.477 0 19 8.523 19 19v3.99h-65.757zm21.005 97.285c3.599.812 7.328 1.263 11.148 1.313.245.003.489.005.734.005 4.039 0 8.011-.434 11.864-1.279v9.361l-11.874 11.874-11.873-11.874v-9.4zm44.752-53.561c0 8.863-3.475 17.173-9.782 23.4-6.308 6.226-14.692 9.605-23.536 9.476-17.887-.232-32.438-15.273-32.438-33.53v-17.08h65.757v17.734zm-84.875 57.889c-11.843-15.089-12.773-35.711-2.469-51.755 1.813 14.837 9.487 27.937 20.592 36.81v14.369c-5.353.783-10.525 2.128-15.455 3.974zm128.529 78.806h-153.065v-4.52c0-28.113 21.732-51.246 49.28-53.481l19.474 19.475c2.062 2.062 4.86 3.222 7.778 3.222 2.917 0 5.715-1.159 7.778-3.222l19.475-19.475c27.547 2.235 49.28 25.368 49.28 53.481zm22 0v-4.52c0-37.983-28.135-69.519-64.659-74.861v-14.128c1.623-1.278 3.185-2.655 4.678-4.129 10.528-10.394 16.327-24.264 16.327-39.058v-43.724c0-18.477-12.286-34.138-29.117-39.244v-175.498h326.706v395.162z"/><path d="m324.483 179.194h87.282c6.075 0 11-4.925 11-11s-4.925-11-11-11h-87.282c-6.075 0-11 4.925-11 11s4.925 11 11 11z"/><path d="m437.5 201.195h-138.751c-6.075 0-11 4.925-11 11s4.925 11 11 11h138.751c6.075 0 11-4.925 11-11s-4.925-11-11-11z"/><path d="m437.5 303.419h-138.751c-6.075 0-11 4.925-11 11s4.925 11 11 11h138.751c6.075 0 11-4.925 11-11s-4.925-11-11-11z"/><path d="m411.766 281.419c6.075 0 11-4.925 11-11s-4.925-11-11-11h-87.282c-6.075 0-11 4.925-11 11s4.925 11 11 11z"/><path d="m411.766 383.643c6.075 0 11-4.925 11-11s-4.925-11-11-11h-87.282c-6.075 0-11 4.925-11 11s4.925 11 11 11z"/><path d="m437.5 405.643h-138.751c-6.075 0-11 4.925-11 11s4.925 11 11 11h138.751c6.075 0 11-4.925 11-11s-4.925-11-11-11z"/></g></g><g/><g/><g/><g/><g/><g/><g/><g/><g/><g/><g/><g/><g/><g/><g/></svg>