<svg id="Layer_1" enable-background="new 0 0 512 512" viewBox="0 0 512 512" xmlns="http://www.w3.org/2000/svg" fill="#E6ECF2"><g><g><path d="m426.892 220.85-19.113-1.554c-3.796-15.801-9.999-30.762-18.512-44.652l12.427-14.626c3.71-4.367 3.447-10.849-.604-14.901l-34.206-34.206c-4.051-4.051-10.534-4.315-14.9-.604l-14.627 12.428c-13.889-8.512-28.849-14.713-44.651-18.51l-1.554-19.116c-.465-5.711-5.235-10.109-10.965-10.109h-48.374c-5.729 0-10.5 4.398-10.964 10.108l-1.554 19.116c-15.797 3.796-30.756 9.998-44.647 18.512l-14.63-12.431c-4.366-3.709-10.849-3.447-14.901.604l-34.206 34.206c-4.051 4.052-4.314 10.534-.604 14.901l12.428 14.627c-8.513 13.887-14.716 28.848-18.514 44.651l-19.111 1.554c-5.71.464-10.108 5.234-10.108 10.964v48.374c0 5.729 4.398 10.5 10.109 10.964l19.116 1.554c3.795 15.796 9.998 30.755 18.511 44.647l-12.43 14.631c-3.71 4.366-3.447 10.849.604 14.9l34.205 34.206c4.052 4.051 10.533 4.315 14.901.604l14.627-12.428c13.887 8.513 28.848 14.716 44.651 18.514l1.554 19.111c.464 5.71 5.234 10.108 10.964 10.108h48.374c5.729 0 10.5-4.398 10.964-10.108l1.554-19.116c15.797-3.796 30.755-9.998 44.648-18.512l14.63 12.43c4.367 3.711 10.85 3.447 14.9-.604l34.206-34.205c4.051-4.051 4.314-10.534.604-14.9l-12.428-14.627c8.514-13.889 14.717-28.849 18.514-44.652l19.111-1.553c5.711-.464 10.109-5.234 10.109-10.964v-48.374c0-5.728-4.397-10.498-10.108-10.962zm-11.892 49.195-17.168 1.396c-4.958.403-9.028 4.083-9.927 8.974-3.421 18.598-10.615 35.951-21.384 51.576-2.822 4.095-2.546 9.574.674 13.365l11.167 13.143-19.862 19.862-13.146-11.168c-3.789-3.22-9.268-3.496-13.363-.676-15.633 10.771-32.985 17.964-51.574 21.382-4.892.899-8.571 4.97-8.975 9.927l-1.397 17.174h-28.089l-1.396-17.168c-.403-4.957-4.083-9.027-8.974-9.927-18.6-3.421-35.952-10.616-51.576-21.384-4.095-2.822-9.575-2.545-13.364.674l-13.144 11.167-19.863-19.863 11.168-13.146c3.22-3.79 3.497-9.268.676-13.362-10.771-15.635-17.964-32.987-21.381-51.574-.899-4.892-4.97-8.572-9.928-8.975l-17.174-1.397v-28.09l17.168-1.396c4.957-.403 9.027-4.083 9.927-8.974 3.421-18.599 10.616-35.952 21.384-51.576 2.822-4.095 2.546-9.574-.674-13.364l-11.167-13.144 19.862-19.862 13.146 11.169c3.79 3.22 9.268 3.498 13.363.676 15.633-10.771 32.985-17.964 51.574-21.382 4.892-.9 8.571-4.97 8.975-9.927l1.398-17.175h28.089l1.396 17.174c.403 4.958 4.083 9.028 8.975 9.927 18.597 3.419 35.95 10.612 51.576 21.378 4.095 2.821 9.574 2.545 13.363-.675l13.143-11.166 19.863 19.862-11.166 13.142c-3.22 3.79-3.497 9.269-.675 13.364 10.769 15.628 17.963 32.982 21.381 51.577.899 4.892 4.97 8.572 9.927 8.975l17.172 1.397z"/><path d="m256 155c-55.691 0-101 45.309-101 101s45.309 101 101 101 101-45.309 101-101-45.308-101-101-101zm0 180c-43.561 0-79-35.439-79-79s35.439-79 79-79 79 35.439 79 79-35.439 79-79 79z"/></g><g fill="#0496FF"><path d="m442.987 108.685c6.075 0 11-4.925 11-11v-36.606c0-6.075-4.925-11-11-11s-11 4.925-11 11v9.004c-22.754-21.558-48.969-38.562-78.02-50.596-31.217-12.931-64.177-19.487-97.967-19.487-44.875 0-89.137 11.86-128 34.298-5.261 3.038-7.064 9.765-4.026 15.026 3.038 5.262 9.767 7.063 15.026 4.026 35.524-20.509 75.982-31.35 117-31.35 60.663 0 117.802 22.928 161.52 64.685h-11.14c-6.075 0-11 4.925-11 11s4.925 11 11 11z"/><path d="m22 256c0-60.663 22.928-117.802 64.685-161.521v11.14c0 6.075 4.925 11 11 11s11-4.925 11-11v-36.605c0-6.075-4.925-11-11-11h-36.606c-6.075 0-11 4.925-11 11s4.925 11 11 11h9.003c-21.557 22.754-38.562 48.969-50.595 78.02-12.931 31.216-19.487 64.177-19.487 97.966 0 44.875 11.86 89.137 34.298 128 2.038 3.529 5.735 5.502 9.537 5.502 1.866 0 3.758-.476 5.49-1.476 5.261-3.038 7.064-9.765 4.026-15.026-20.51-35.523-31.351-75.981-31.351-117z"/><path d="m373 458.65c-35.522 20.51-75.98 31.35-117 31.35-60.664 0-117.802-22.928-161.521-64.685h11.14c6.075 0 11-4.925 11-11s-4.925-11-11-11h-36.605c-6.075 0-11 4.925-11 11v36.606c0 6.075 4.925 11 11 11s11-4.925 11-11v-9.003c22.754 21.557 48.969 38.562 78.02 50.595 31.216 12.931 64.177 19.487 97.966 19.487 44.876 0 89.137-11.86 128-34.297 5.261-3.038 7.064-9.765 4.026-15.026-3.038-5.262-9.766-7.064-15.026-4.027z"/><path d="m512 256c0-44.875-11.86-89.137-34.297-128-3.038-5.262-9.766-7.064-15.026-4.026-5.261 3.038-7.064 9.765-4.026 15.026 20.509 35.523 31.349 75.981 31.349 117 0 60.663-22.928 117.802-64.685 161.52v-11.14c0-6.075-4.925-11-11-11s-11 4.925-11 11v36.606c0 6.075 4.925 11 11 11h36.606c6.075 0 11-4.925 11-11s-4.925-11-11-11h-9.003c21.558-22.754 38.562-48.969 50.595-78.02 12.931-31.216 19.487-64.176 19.487-97.966z"/><path d="m306.462 239.605c-1.09-3.357-3.726-5.986-7.084-7.07l-21.329-6.881-13.135-18.159c-2.069-2.86-5.384-4.553-8.913-4.553s-6.844 1.693-8.913 4.553l-13.135 18.159-21.33 6.881c-3.359 1.083-5.994 3.713-7.084 7.07-1.091 3.356-.504 7.033 1.576 9.883l13.211 18.104-.047 22.412c-.007 3.529 1.679 6.848 4.534 8.923 1.904 1.383 4.172 2.101 6.467 2.101 1.147 0 2.302-.18 3.42-.545l21.3-6.971 21.3 6.971c3.354 1.098 7.031.519 9.887-1.555 2.855-2.075 4.542-5.394 4.534-8.923l-.047-22.412 13.211-18.104c2.081-2.851 2.668-6.528 1.577-9.884zm-34.681 17.926c-1.379 1.889-2.12 4.169-2.115 6.508l.023 10.804-10.268-3.36c-2.222-.729-4.62-.727-6.843 0l-10.268 3.361.023-10.804c.005-2.339-.736-4.619-2.115-6.508l-6.369-8.727 10.282-3.317c2.226-.718 4.165-2.127 5.536-4.022l6.332-8.754 6.332 8.754c1.371 1.895 3.31 3.304 5.536 4.022l10.282 3.317z"/></g></g><g/><g/><g/><g/><g/><g/><g/><g/><g/><g/><g/><g/><g/><g/><g/></svg>