<svg id="Layer_1" enable-background="new 0 0 512 512" viewBox="0 0 512 512" xmlns="http://www.w3.org/2000/svg" fill="#052438"><g><g fill="#0496FF"><path d="m496 400h-74v-74c0-6.075-4.925-11-11-11s-11 4.925-11 11v80.443l-56.731 56.731c-4.296 4.296-4.296 11.261 0 15.557 2.148 2.148 4.963 3.222 7.778 3.222s5.63-1.074 7.778-3.222l56.732-56.731h80.443c6.075 0 11-4.925 11-11s-4.925-11-11-11z"/><path d="m370.492 192.924c2.063-2.063 3.222-4.861 3.222-7.778s-1.159-5.715-3.222-7.778l-23.049-23.048c-2.063-2.063-4.861-3.222-7.778-3.222h-258.321c-6.075 0-11 4.925-11 11v46.097c0 6.075 4.925 11 11 11h258.321c2.917 0 5.715-1.159 7.778-3.222zm-35.384 4.271h-242.764v-24.097h242.765l12.049 12.049z"/><path d="m250.422 246.513c-2.063-2.063-4.861-3.222-7.778-3.222h-161.3c-6.075 0-11 4.925-11 11v46.097c0 6.075 4.925 11 11 11h161.3c2.917 0 5.715-1.159 7.778-3.222l23.049-23.048c2.063-2.063 3.222-4.861 3.222-7.778s-1.159-5.715-3.222-7.778zm-12.335 42.876h-145.743v-24.097h145.743l12.049 12.049z"/><path d="m163.423 338.708c-2.063-2.063-4.861-3.222-7.778-3.222h-74.301c-6.075 0-11 4.925-11 11v46.097c0 6.075 4.925 11 11 11h74.301c2.917 0 5.716-1.159 7.778-3.222l23.048-23.048c4.296-4.296 4.296-11.261 0-15.557zm-12.335 42.875h-58.744v-24.097h58.744l12.048 12.049z"/></g><path d="m444.057 315.555v-274.555c0-6.075-4.925-11-11-11h-59.343v-19c0-6.075-4.925-11-11-11s-11 4.925-11 11v19h-48.343v-19c0-6.075-4.925-11-11-11s-11 4.925-11 11v19h-48.343v-19c0-6.075-4.925-11-11-11s-11 4.925-11 11v19h-48.342v-19c0-6.075-4.925-11-11-11s-11 4.925-11 11v19h-48.342v-19c0-6.075-4.925-11-11-11s-11 4.925-11 11v19h-59.344c-6.075 0-11 4.925-11 11v397.68c0 6.075 4.925 11 11 11h306.699c15.211 36.554 51.304 62.32 93.301 62.32 55.691 0 101-45.309 101-101 0-44.12-28.436-81.723-67.943-95.445zm-422.057-263.555h48.344v19c0 6.075 4.925 11 11 11s11-4.925 11-11v-19h48.343v19c0 6.075 4.925 11 11 11s11-4.925 11-11v-19h48.342v19c0 6.075 4.925 11 11 11s11-4.925 11-11v-19h48.343v19c0 6.075 4.925 11 11 11s11-4.925 11-11v-19h48.343v19c0 6.075 4.925 11 11 11s11-4.925 11-11v-19h48.343v53h-400.058zm0 375.68v-300.68h400.057v183.601c-3.632-.397-7.321-.601-11.057-.601-55.691 0-101 45.309-101 101 0 5.68.472 11.253 1.377 16.68zm389 62.32c-43.561 0-79-35.439-79-79s35.439-79 79-79 79 35.439 79 79-35.439 79-79 79z"/></g><g/><g/><g/><g/><g/><g/><g/><g/><g/><g/><g/><g/><g/><g/><g/></svg>