<svg id="Layer_1" enable-background="new 0 0 512 512" viewBox="0 0 512 512" xmlns="http://www.w3.org/2000/svg" fill="#E6ECF2"><g><path d="m507.696 107.534c-2.713-2.082-6.24-2.784-9.543-1.898l-67.165 17.997c-5.868 1.572-9.351 7.604-7.778 13.472 1.572 5.868 7.604 9.351 13.472 7.778l53.318-14.287v293.198l-141.333 37.87v-195.664c0-6.075-4.925-11-11-11s-11 4.925-11 11v195.664l-141.333-37.87v-293.197l54.018 14.474c5.872 1.575 11.901-1.91 13.472-7.778 1.573-5.868-1.91-11.9-7.778-13.472l-67.865-18.185c-1.865-.5-3.829-.5-5.694 0l-163.334 43.765c-4.809 1.289-8.153 5.647-8.153 10.625v315.974c0 3.42 1.59 6.645 4.304 8.727 1.942 1.49 4.301 2.273 6.696 2.273.951 0 1.908-.124 2.847-.375l160.486-43.001 160.486 43.001c1.865.5 3.829.5 5.694 0l163.333-43.765c4.809-1.289 8.153-5.646 8.153-10.625v-315.974c.001-3.42-1.59-6.645-4.303-8.727zm-485.696 60.933 141.333-37.87v293.198l-141.333 37.869z"/><g fill="#0496FF"><path d="m337.667 25c-56.877 0-103.151 46.273-103.151 103.151 0 39.096 19.825 72.656 36.457 93.925 21.513 27.512 45.998 45.802 61.739 53.745 1.559.786 3.257 1.179 4.956 1.179s3.397-.393 4.956-1.18c15.741-7.942 40.226-26.232 61.738-53.745 16.632-21.269 36.457-54.83 36.457-93.925-.002-56.877-46.275-103.15-103.152-103.15zm49.363 183.524c-17.024 21.772-36.167 37.111-49.363 44.927-13.197-7.815-32.339-23.154-49.364-44.927-14.501-18.545-31.787-47.543-31.787-80.374 0-44.746 36.404-81.15 81.151-81.15s81.151 36.404 81.151 81.151c-.001 32.83-17.287 61.828-31.788 80.373z"/><path d="m381.043 104.686-21.329-6.881-13.134-18.159c-2.069-2.86-5.384-4.553-8.913-4.553s-6.844 1.693-8.913 4.553l-13.135 18.159-21.329 6.881c-3.359 1.083-5.994 3.713-7.084 7.07-1.091 3.356-.504 7.033 1.576 9.883l13.211 18.103-.047 22.412c-.007 3.529 1.679 6.848 4.534 8.922 1.903 1.383 4.172 2.101 6.467 2.101 1.147 0 2.302-.18 3.42-.545l21.3-6.971 21.3 6.971c3.356 1.097 7.032.519 9.887-1.556 2.855-2.074 4.542-5.393 4.534-8.922l-.047-22.412 13.211-18.103c2.081-2.851 2.667-6.527 1.576-9.884-1.09-3.356-3.726-5.986-7.085-7.069zm-27.596 24.994c-1.379 1.89-2.12 4.169-2.115 6.508l.023 10.804-10.268-3.36c-2.223-.727-4.62-.727-6.843 0l-10.268 3.36.024-10.803c.005-2.339-.736-4.619-2.115-6.508l-6.368-8.727 10.282-3.317c2.226-.718 4.165-2.127 5.536-4.022l6.332-8.754 6.332 8.754c1.371 1.895 3.31 3.304 5.536 4.022l10.282 3.317z"/></g></g><g/><g/><g/><g/><g/><g/><g/><g/><g/><g/><g/><g/><g/><g/><g/></svg>