<svg id="Capa_1" enable-background="new 0 0 512.004 512.004" viewBox="0 0 512.004 512.004" xmlns="http://www.w3.org/2000/svg" fill="#052438"><g><g fill="#0496FF"><path d="m284.374 124.734-23.391-11.881c-3.131-1.591-6.832-1.591-9.963 0l-23.391 11.881v-90.819h-22v108.745c0 3.825 1.986 7.375 5.247 9.375 3.262 2.001 7.328 2.164 10.734.432l34.391-17.469 34.391 17.469c1.569.797 3.276 1.193 4.981 1.193 1.999 0 3.993-.544 5.753-1.625 3.261-2 5.247-5.551 5.247-9.375v-108.745h-22v90.819z"/><path d="m95.82 105.64-26.761-89.035-21.069 6.333 34.095 113.434c1.264 4.204 4.905 7.254 9.266 7.76.426.049.85.074 1.271.074 3.897 0 7.547-2.073 9.525-5.504l59.18-102.604-19.057-10.992z"/><path d="m442.945 16.605-26.762 89.035-46.45-80.534-19.057 10.992 59.18 102.604c1.979 3.431 5.628 5.504 9.525 5.504.422 0 .846-.024 1.271-.074 4.36-.506 8.002-3.557 9.266-7.76l34.095-113.434z"/></g><g><path d="m511.81 8.955c-1.131-5.969-6.888-9.886-12.856-8.759-79.541 15.075-161.281 22.719-242.951 22.719s-163.411-7.644-242.952-22.72c-5.97-1.132-11.726 2.79-12.857 8.76-1.131 5.969 2.79 11.725 8.759 12.856 80.889 15.331 164.008 23.104 247.049 23.104s166.16-7.773 247.049-23.104c5.969-1.132 9.889-6.888 8.759-12.856z"/><path d="m233.016 274.303c0-55.677-45.297-100.974-100.974-100.974s-100.974 45.297-100.974 100.974c0 45.187 29.932 110.727 73.102 131.607-3.246 5.108-5.128 11.164-5.128 17.651v22c0 6.075 4.925 11 11 11h11v44.442c0 6.075 4.925 11 11 11s11-4.925 11-11v-44.442h11c6.075 0 11-4.925 11-11v-22c0-6.487-1.882-12.543-5.128-17.651 43.17-20.88 73.102-86.421 73.102-131.607zm-89.974 149.258v11h-22v-11c0-6.065 4.935-11 11-11s11 4.934 11 11zm-11-33c-18.408 0-38.215-14.542-54.339-39.897-14.965-23.532-24.635-53.505-24.635-76.36 0-43.546 35.428-78.974 78.974-78.974s78.974 35.427 78.974 78.974c0 22.855-9.67 52.828-24.635 76.36-16.125 25.355-35.931 39.897-54.339 39.897z"/><path d="m480.936 274.303c0-55.677-45.297-100.974-100.974-100.974s-100.974 45.296-100.974 100.974c0 45.187 29.932 110.727 73.102 131.607-3.246 5.108-5.128 11.164-5.128 17.651v22c0 6.075 4.925 11 11 11h11v44.442c0 6.075 4.925 11 11 11s11-4.925 11-11v-44.442h11c6.075 0 11-4.925 11-11v-22c0-6.487-1.882-12.543-5.128-17.651 43.17-20.88 73.102-86.421 73.102-131.607zm-89.974 149.258v11h-22v-11c0-6.065 4.935-11 11-11s11 4.934 11 11zm-11-33c-18.408 0-38.214-14.542-54.339-39.897-14.965-23.532-24.635-53.505-24.635-76.36 0-43.546 35.428-78.974 78.974-78.974s78.974 35.427 78.974 78.974c0 22.855-9.67 52.828-24.635 76.36-16.124 25.355-35.931 39.897-54.339 39.897z"/></g></g><g/><g/><g/><g/><g/><g/><g/><g/><g/><g/><g/><g/><g/><g/><g/></svg>