<svg id="Capa_1" enable-background="new 0 0 512 512" height="512" viewBox="0 0 512 512" width="512" xmlns="http://www.w3.org/2000/svg" fill="#052438"><g><path d="m52.681 380.859c-6.075 0-11-4.925-11-11v-279.147l-28.132-21.098c-4.86-3.645-5.845-10.54-2.2-15.4 3.644-4.859 10.54-5.845 15.4-2.2l32.531 24.398c2.77 2.078 4.4 5.338 4.4 8.8v284.647c.001 6.075-4.924 11-10.999 11z" fill="#0496FF"/><path d="m423.065 437.789h-334.13c-6.075 0-11-4.925-11-11s4.925-11 11-11h334.131c6.075 0 11 4.925 11 11s-4.925 11-11.001 11z" fill="#0496FF"/><path d="m460.336 358.859h-46.946v-135.39c0-6.075-4.925-11-11-11h-62.195v-135.39c0-6.075-4.925-11-11-11h-146.39c-6.075 0-11 4.925-11 11v135.39h-62.195c-6.075 0-11 4.925-11 11v135.39h-46.946c-28.488 0-51.664 23.176-51.664 51.664 0 28.487 23.176 51.664 51.664 51.664 28.487 0 51.663-23.176 51.663-51.664 0-11.034-3.488-21.262-9.403-29.664h324.151c-5.915 8.402-9.403 18.63-9.403 29.664 0 28.487 23.176 51.664 51.663 51.664 28.488 0 51.664-23.176 51.664-51.664.001-28.488-23.175-51.664-51.663-51.664zm-68.946 0h-124.39v-124.39h51.195v21.531c0 6.075 4.925 11 11 11s11-4.925 11-11v-21.531h51.195zm-146.39-270.78v21.531c0 6.075 4.925 11 11 11s11-4.925 11-11v-21.531h51.195v124.39h-124.39v-124.39zm-124.39 146.39h51.195v21.531c0 6.075 4.925 11 11 11s11-4.925 11-11v-21.531h51.195v124.39h-124.39zm-39.282 176.054c0 16.357-13.307 29.664-29.663 29.664-16.358 0-29.665-13.307-29.665-29.664s13.307-29.664 29.664-29.664 29.664 13.307 29.664 29.664zm379.008 29.664c-16.356 0-29.663-13.307-29.663-29.664s13.307-29.664 29.663-29.664c16.357 0 29.664 13.307 29.664 29.664s-13.307 29.664-29.664 29.664z"/></g></svg>