<svg id="Capa_1" enable-background="new 0 0 512 512" height="512" viewBox="0 0 512 512" width="512" xmlns="http://www.w3.org/2000/svg" fill="#052438"><g><g fill="#0496FF"><path d="m68.946 445.921c-6.075 0-11-4.925-11-11s4.925-11 11-11c16.356 0 29.664-13.307 29.664-29.664s-13.308-29.664-29.664-29.664c-6.075 0-11-4.925-11-11s4.925-11 11-11c28.487 0 51.664 23.176 51.664 51.664s-23.176 51.664-51.664 51.664z"/><path d="m256 445.921c-28.487 0-51.664-23.176-51.664-51.664 0-28.487 23.177-51.664 51.664-51.664s51.664 23.176 51.664 51.664-23.177 51.664-51.664 51.664zm0-81.327c-16.356 0-29.664 13.307-29.664 29.664s13.308 29.664 29.664 29.664 29.664-13.307 29.664-29.664-13.308-29.664-29.664-29.664z"/><path d="m443.054 445.921c-28.487 0-51.664-23.176-51.664-51.664 0-28.487 23.177-51.664 51.664-51.664 6.075 0 11 4.925 11 11s-4.925 11-11 11c-16.356 0-29.664 13.307-29.664 29.664s13.308 29.664 29.664 29.664c6.075 0 11 4.925 11 11s-4.925 11-11 11z"/><path d="m267 124.419v-54.456c0-6.075-4.925-11-11-11s-11 4.925-11 11v54.457c-18.694 4.886-32.531 21.916-32.531 42.12 0 7.644 2.022 15.176 5.85 21.78 3.045 5.256 9.775 7.05 15.032 4.003 5.257-3.046 7.049-9.776 4.003-15.033-1.887-3.257-2.885-6.975-2.885-10.751 0-11.872 9.659-21.531 21.531-21.531s21.531 9.659 21.531 21.531c0 3.776-.998 7.494-2.885 10.751-3.046 5.257-1.254 11.987 4.003 15.033 1.736 1.006 3.633 1.484 5.504 1.484 3.796 0 7.488-1.967 9.528-5.487 3.827-6.605 5.85-14.136 5.85-21.78 0-20.205-13.837-37.235-32.531-42.121z"/></g><path d="m483.718 0h-455.436c-6.075 0-11 4.925-11 11s4.925 11 11 11h170.583l14.012 49.919c1.333 4.747 5.66 8.027 10.591 8.027h65.063c4.931 0 9.258-3.28 10.591-8.027l14.012-49.919h170.583c6.075 0 11-4.925 11-11s-4.924-11-10.999-11zm-203.525 57.946h-48.387l-10.09-35.946h68.567z"/><path d="m494.718 394.257c0-28.487-23.177-51.664-51.664-51.664h-21.531v-102.859c0-6.075-4.925-11-11-11h-113.859c-6.075 0-11 4.925-11 11v102.859h-59.328v-102.859c0-6.075-4.925-11-11-11h-113.858c-6.075 0-11 4.925-11 11v102.859h-21.532c-28.487 0-51.664 23.176-51.664 51.664 0 24.712 17.445 45.417 40.664 50.473v56.27c0 6.075 4.925 11 11 11h374.107c6.075 0 11-4.925 11-11v-56.27c23.22-5.056 40.665-25.76 40.665-50.473zm-187.054-143.523h34.93v21.531c0 6.075 4.925 11 11 11s11-4.925 11-11v-21.531h34.929v91.859h-91.858v-91.859zm-195.186 0h34.929v21.531c0 6.075 4.925 11 11 11s11-4.925 11-11v-21.531h34.93v91.859h-91.858v-91.859zm319.576 239.266h-352.108v-44.079h352.107v44.079zm11-66.079h-374.108c-16.356 0-29.664-13.307-29.664-29.664s13.308-29.664 29.664-29.664h374.107c16.356 0 29.664 13.307 29.664 29.664.001 16.357-13.307 29.664-29.663 29.664z"/></g></svg>