<svg id="Capa_1" enable-background="new 0 0 512 512" height="512" viewBox="0 0 512 512" width="512" xmlns="http://www.w3.org/2000/svg" fill="#052438"><g id="Wrench"><path d="m363.826 355.945c-2.917 0-5.716-1.159-7.778-3.222l-17.646-17.647c-15.561 9.145-32.244 15.56-49.716 19.107-5.952 1.207-11.761-2.638-12.969-8.592s2.639-11.76 8.592-12.969c17.593-3.571 34.285-10.529 49.615-20.679 4.364-2.887 10.153-2.304 13.852 1.394l16.05 16.05 27.575-27.575-16.051-16.05c-3.698-3.699-4.281-9.49-1.394-13.851 10.151-15.332 17.108-32.025 20.679-49.615 1.041-5.127 5.549-8.812 10.78-8.812h22.571v-38.994h-22.571c-5.231 0-9.739-3.685-10.78-8.812-3.57-17.59-10.527-34.283-20.679-49.615-2.888-4.361-2.305-10.153 1.394-13.851l16.051-16.05-27.575-27.575-16.05 16.05c-3.699 3.697-9.488 4.282-13.852 1.394-15.33-10.15-32.022-17.108-49.615-20.679-5.127-1.041-8.812-5.549-8.812-10.78v-22.572h-38.996v22.571c0 5.232-3.685 9.739-8.812 10.78-17.593 3.571-34.285 10.528-49.615 20.679-4.364 2.888-10.152 2.305-13.852-1.394l-16.05-16.05-27.575 27.575 16.051 16.05c3.698 3.698 4.281 9.49 1.394 13.851-10.151 15.332-17.108 32.025-20.679 49.615-1.041 5.127-5.549 8.812-10.78 8.812h-22.57v38.996h22.571c5.231 0 9.739 3.685 10.78 8.812 3.57 17.59 10.527 34.283 20.679 49.615 2.888 4.361 2.305 10.153-1.394 13.851l-16.051 16.05 27.575 27.575 16.05-16.05c3.698-3.698 9.486-4.282 13.852-1.394 15.33 10.15 32.023 17.108 49.615 20.679 5.953 1.209 9.8 7.015 8.592 12.969s-7.018 9.801-12.969 8.592c-17.472-3.547-34.155-9.962-49.716-19.107l-17.646 17.647c-2.062 2.062-4.861 3.222-7.778 3.222s-5.715-1.159-7.778-3.222l-43.132-43.132c-2.062-2.063-3.222-4.861-3.222-7.778s1.159-5.715 3.222-7.778l17.647-17.646c-7.597-12.925-13.309-26.622-17.059-40.904h-24.84c-6.075 0-11-4.925-11-11v-60.996c0-6.075 4.925-11 11-11h24.84c3.75-14.282 9.462-27.979 17.059-40.904l-17.646-17.646c-2.062-2.063-3.222-4.861-3.222-7.778s1.159-5.715 3.222-7.778l43.132-43.132c2.064-2.063 4.861-3.222 7.778-3.222s5.716 1.159 7.778 3.222l17.646 17.646c12.924-7.595 26.622-13.307 40.904-17.058v-24.84c0-6.075 4.925-11 11-11h60.996c6.075 0 11 4.925 11 11v24.84c14.282 3.75 27.98 9.462 40.904 17.058l17.646-17.646c2.062-2.063 4.861-3.222 7.778-3.222s5.715 1.159 7.778 3.222l43.132 43.132c2.062 2.063 3.222 4.861 3.222 7.778 0 2.918-1.159 5.716-3.222 7.778l-17.647 17.646c7.597 12.925 13.309 26.622 17.059 40.904h24.84c6.075 0 11 4.925 11 11v60.996c0 6.075-4.925 11-11 11h-24.84c-3.75 14.282-9.462 27.979-17.059 40.904l17.647 17.646c2.062 2.063 3.222 4.861 3.222 7.778 0 2.918-1.159 5.715-3.222 7.778l-43.132 43.132c-2.063 2.063-4.861 3.221-7.778 3.221z" fill="#0496FF"/><path d="m286.498 512h-60.996c-6.075 0-11-4.925-11-11v-213.701c-36.786-16.367-60.996-52.933-60.996-93.311 0-42.995 27.448-81.669 68.302-96.235 3.368-1.202 7.111-.689 10.033 1.371 2.923 2.061 4.661 5.414 4.661 8.99v74.874h38.996v-74.874c0-3.576 1.738-6.929 4.661-8.99 2.923-2.06 6.664-2.572 10.033-1.371 40.853 14.566 68.302 53.24 68.302 96.235 0 40.379-24.21 76.946-60.996 93.313v213.699c0 6.075-4.925 11-11 11zm-49.996-22h38.996v-210.138c0-4.651 2.925-8.799 7.306-10.361 32.114-11.45 53.69-41.796 53.69-75.513 0-28.269-15.167-54.169-38.996-68.549v68.549c0 6.075-4.925 11-11 11h-60.996c-6.075 0-11-4.925-11-11v-68.549c-23.829 14.38-38.996 40.279-38.996 68.549 0 33.716 21.576 64.061 53.69 75.511 4.381 1.562 7.306 5.71 7.306 10.361z"/></g></svg>