<svg id="Capa_1" enable-background="new 0 0 512 512" height="512" viewBox="0 0 512 512" width="512" xmlns="http://www.w3.org/2000/svg" fill="#052438"><g id="Factory_1_"><g fill="#0496FF"><path d="m440.004 307.013h-153.506c-6.075 0-11 4.925-11 11v182.987c0 6.075 4.925 11 11 11s11-4.925 11-11v-49.996h131.506v49.996c0 6.075 4.925 11 11 11s11-4.925 11-11v-182.987c0-6.076-4.925-11-11-11zm-11 22v38.996h-131.506v-38.996zm-131.506 99.991v-38.996h131.506v38.996z"/><path d="m134.008 113.494c-6.075 0-11-4.925-11-11 0-22.882 18.616-41.498 41.498-41.498h30.498c10.751 0 19.498-8.747 19.498-19.498v-30.498c0-6.075 4.925-11 11-11s11 4.925 11 11v30.498c0 22.882-18.616 41.498-41.498 41.498h-30.498c-10.751 0-19.498 8.747-19.498 19.498 0 6.075-4.925 11-11 11z"/><path d="m73.013 113.494c-6.075 0-11-4.925-11-11 0-56.515 45.978-102.494 102.493-102.494 6.075 0 11 4.925 11 11s-4.925 11-11 11c-44.384 0-80.493 36.109-80.493 80.494 0 6.075-4.925 11-11 11z"/></g><path d="m501 246.017h-275.498c-6.075 0-11 4.925-11 11v110.992h-40.443l-29.16-206.06c-.768-5.426-5.412-9.459-10.892-9.459h-62.011c-5.479 0-10.124 4.033-10.892 9.459l-29.16 206.06h-20.944c-6.075 0-11 4.925-11 11v121.991c0 6.075 4.925 11 11 11h490c6.075 0 11-4.925 11-11v-243.983c0-6.076-4.925-11-11-11zm-419.451-71.527h42.906l27.384 193.519h-97.675zm102.455 315.51h-101.008v-38.996h101.008zm305.996 0h-283.996v-49.996c0-6.075-4.925-11-11-11h-123.008c-6.075 0-11 4.925-11 11v49.996h-38.996v-99.992h142.46c.011 0 .021.001.032.001.007 0 .014-.001.021-.001h60.989c6.075 0 11-4.925 11-11v-110.991h253.498z"/></g></svg>