<svg id="Capa_1" enable-background="new 0 0 512 512" height="512" viewBox="0 0 512 512" width="512" xmlns="http://www.w3.org/2000/svg" fill="#052438"><g><g fill="#0496FF"><path d="m348.095 497.11-17.759-54.283c-.094-.342-.204-.677-.329-1.005l-30.317-92.672c-.009-.028-.018-.056-.027-.084l-28.675-87.652c-1.888-5.774-8.101-8.923-13.875-7.034s-8.923 8.101-7.034 13.875l23.926 73.136h-71.894l23.926-73.136c1.889-5.774-1.26-11.986-7.034-13.875-5.773-1.891-11.986 1.261-13.875 7.034l-28.677 87.657c-.008.026-.017.051-.025.077l-30.511 93.262c-.01.031-.02.061-.03.092l-17.866 54.609c-1.889 5.774 1.26 11.986 7.034 13.875 1.136.372 2.289.548 3.422.548 4.628 0 8.936-2.945 10.453-7.583l15.445-47.212h147.366l15.445 47.212c1.517 4.638 5.824 7.583 10.453 7.583 1.133 0 2.287-.177 3.422-.548 5.776-1.89 8.925-8.102 7.036-13.876zm-176.523-62.371 23.341-71.348h86.288l23.341 71.348z"/><path d="m470.561 450.651c-6.075 0-11-4.925-11-11v-284.103c0-6.075 4.925-11 11-11s11 4.925 11 11v284.103c0 6.075-4.925 11-11 11z"/><path d="m42.377 421.226c-6.075 0-11-4.925-11-11v-134.956c0-6.075 4.925-11 11-11s11 4.925 11 11v134.956c0 6.075-4.925 11-11 11z"/></g><path d="m72.816 511.53h-60.879c-6.075 0-11-4.925-11-11v-90.304c0-6.075 4.925-11 11-11h60.879c6.075 0 11 4.925 11 11v90.304c0 6.076-4.925 11-11 11zm-49.879-22h38.879v-68.304h-38.879z"/><path d="m501 511.53h-60.879c-6.075 0-11-4.925-11-11v-60.879c0-6.075 4.925-11 11-11h60.879c6.075 0 11 4.925 11 11v60.879c0 6.076-4.925 11-11 11zm-49.879-22h38.879v-38.879h-38.879z"/><path d="m474.093 102.322c-10.326-38.537-30.799-72.75-59.205-98.942-2.191-2.02-5.106-3.068-8.083-2.895-2.975.169-5.754 1.54-7.701 3.796l-44.932 52.074c-2.38 2.758-3.24 6.515-2.297 10.033l12.888 48.1-327.192 87.671c-2.818.755-5.22 2.599-6.679 5.125l-29.418 50.954c-1.458 2.527-1.854 5.529-1.099 8.347l4.989 18.619c1.317 4.914 5.761 8.156 10.618 8.156.942 0 1.9-.122 2.854-.378l177.784-47.637c.555 22.384 18.922 40.425 41.438 40.425 22.863 0 41.464-18.601 41.464-41.464 0-7.175-1.833-13.929-5.054-19.821l111.745-29.942 24.575 91.713c1.026 3.832 4.037 6.814 7.878 7.804.909.235 1.831.349 2.746.349 2.951 0 5.824-1.189 7.924-3.371 45.999-47.768 63.148-120.08 44.757-188.716zm-236.035 161.448c-10.732 0-19.464-8.731-19.464-19.464s8.732-19.465 19.464-19.465c10.733 0 19.464 8.732 19.464 19.465.001 10.732-8.731 19.464-19.464 19.464zm17.585-57.016c-.006.001-.011.004-.016.005-5.338-2.508-11.291-3.918-17.569-3.918-14.093 0-26.558 7.073-34.054 17.85-.455.062-.911.143-1.367.266l-178.87 47.928-.962-3.593 24.861-43.062 322.791-86.492 10.063 37.555zm170.951 53.487-51.962-193.922 33.461-38.78c21.141 22.171 36.522 49.774 44.75 80.479 14.505 54.133 4.4 110.653-26.249 152.223z"/></g></svg>