<svg id="Capa_1" enable-background="new 0 0 512 512" height="512" viewBox="0 0 512 512" width="512" xmlns="http://www.w3.org/2000/svg" fill="#E6ECF2"><g id="Laser_Cutting"><g fill="#0496FF"><path d="m225.502 343.245c-6.075 0-11-4.925-11-11v-76.245c0-6.075 4.925-11 11-11s11 4.925 11 11v76.245c0 6.075-4.925 11-11 11z"/><path d="m316.996 145.008c-6.075 0-11-4.925-11-11v-77.261c0-19.159-15.588-34.747-34.747-34.747s-34.747 15.587-34.747 34.747v46.764c0 6.075-4.925 11-11 11s-11-4.925-11-11v-46.764c0-31.291 25.457-56.747 56.747-56.747s56.747 25.456 56.747 56.747v77.262c0 6.074-4.925 10.999-11 10.999z"/><path d="m454.236 236.502h-30.498c-6.075 0-11-4.925-11-11s4.925-11 11-11h30.498c6.075 0 11 4.925 11 11s-4.925 11-11 11z"/></g><path d="m501 92.51h-123.008c-6.075 0-11 4.925-11 11v19.498h-99.992v-19.498c0-6.075-4.925-11-11-11h-60.996c-6.075 0-11 4.925-11 11v19.498h-101.008v-19.498c0-6.075-4.925-11-11-11h-60.996c-6.075 0-11 4.925-11 11v397.49c0 6.075 4.925 11 11 11h490c6.075 0 11-4.925 11-11v-397.49c0-6.075-4.925-11-11-11zm-214.502 305.996h-121.992c-6.075 0-11 4.925-11 11v19.498h-70.51v-223h101.008v19.498c0 2.917 1.159 5.715 3.222 7.778l30.498 30.498c2.148 2.148 4.963 3.222 7.778 3.222s5.63-1.074 7.778-3.222l30.498-30.498c2.062-2.063 3.222-4.861 3.222-7.778v-19.498h99.992v223h-69.494v-19.498c0-6.075-4.925-11-11-11zm80.494-253.498v38.996h-99.992v-38.996zm-160.988-30.498h38.996v106.436l-19.498 19.498-19.498-19.498zm-22 30.498v38.996h-101.008v-38.996zm305.996 344.992h-468v-375.49h38.996v325.494c0 6.075 4.925 11 11 11h92.51c6.075 0 11-4.925 11-11v-19.498h99.992v19.498c0 6.075 4.925 11 11 11h91.494c6.075 0 11-4.925 11-11v-325.494h101.008z"/><path d="m454.236 297.498h-30.498c-6.075 0-11-4.925-11-11s4.925-11 11-11h30.498c6.075 0 11 4.925 11 11s-4.925 11-11 11z"/></g></svg>