<svg id="Capa_1" enable-background="new 0 0 512 512" height="512" viewBox="0 0 512 512" width="512" xmlns="http://www.w3.org/2000/svg" fill="#E6ECF2"><g><path d="m117.74 291.4c-12.922.286-14.888-19.547-2.149-21.79 15.562-2.799 17.957 21.488 2.149 21.79z"/><path d="m121.089 215.865c-2.271 0-4.562-.701-6.529-2.155-4.886-3.611-5.919-10.499-2.308-15.384l84.854-114.804c3.61-4.885 10.497-5.919 15.384-2.308 4.886 3.611 5.919 10.499 2.308 15.384l-84.854 114.804c-2.158 2.919-5.484 4.463-8.855 4.463z"/><path d="m174.663 252.842c-2.271 0-4.562-.701-6.529-2.155-4.886-3.611-5.919-10.499-2.308-15.384l83.365-112.788c3.61-4.885 10.498-5.919 15.384-2.308s5.919 10.499 2.308 15.384l-83.365 112.788c-2.158 2.919-5.484 4.463-8.855 4.463z"/><path d="m425.205 62.387c-.137 0-.273-.003-.412-.008l-127.743-4.707c-6.07-.224-10.811-5.327-10.587-11.398.219-5.933 5.098-10.595 10.985-10.595.137 0 .273.003.412.008l127.743 4.707c6.07.224 10.811 5.327 10.587 11.398-.217 5.932-5.096 10.595-10.985 10.595z"/><path d="m297.447 119.526c-5.857 0-10.727-4.617-10.982-10.525-.263-6.069 4.444-11.203 10.514-11.465l126.23-5.463c6.092-.252 11.204 4.445 11.465 10.514.263 6.069-4.444 11.203-10.514 11.465l-126.23 5.463c-.161.007-.323.011-.483.011z"/><g fill="#0496FF"><path d="m174.672 380.859c-6.075 0-11-4.925-11-11v-105.726c0-25.326-20.604-45.929-45.929-45.929-25.326 0-45.93 20.604-45.93 45.929v105.726c0 6.075-4.925 11-11 11s-11-4.925-11-11v-105.726c0-37.456 30.473-67.929 67.93-67.929 37.456 0 67.929 30.473 67.929 67.929v105.726c0 6.075-4.925 11-11 11z"/><path d="m256 136.876c-32.972 0-59.797-26.825-59.797-59.797s26.825-59.797 59.797-59.797 59.797 26.825 59.797 59.797-26.825 59.797-59.797 59.797zm0-97.594c-20.841 0-37.797 16.956-37.797 37.797s16.956 37.797 37.797 37.797 37.797-16.956 37.797-37.797-16.956-37.797-37.797-37.797z"/><path d="m471.336 189.261v-61.709c23.219-5.056 40.664-25.761 40.664-50.473 0-28.488-23.177-51.664-51.664-51.664s-51.664 23.177-51.664 51.664c0 24.712 17.445 45.417 40.664 50.473v61.709c-23.219 5.056-40.664 25.761-40.664 50.473 0 11.28 3.575 22.002 10.338 31.005 3.647 4.857 10.545 5.838 15.401 2.188 4.857-3.649 5.837-10.544 2.189-15.402-3.878-5.163-5.928-11.315-5.928-17.792 0-16.357 13.308-29.664 29.664-29.664 16.357 0 29.664 13.307 29.664 29.664 0 6.477-2.05 12.629-5.928 17.792-3.648 4.857-2.669 11.753 2.188 15.402 1.979 1.488 4.299 2.206 6.598 2.206 3.342 0 6.643-1.517 8.804-4.394 6.763-9.003 10.338-19.725 10.338-31.005 0-24.712-17.445-45.416-40.664-50.473zm-40.664-112.182c0-16.357 13.308-29.664 29.664-29.664 16.357 0 29.664 13.307 29.664 29.664s-13.308 29.664-29.664 29.664c-16.357 0-29.664-13.307-29.664-29.664z"/></g><path d="m223.469 472.718h-13.399v-102.859c0-6.075-4.925-11-11-11h-162.655c-6.075 0-11 4.925-11 11v102.859h-14.415c-6.075 0-11 4.925-11 11s4.925 11 11 11h212.469c6.075 0 11-4.925 11-11s-4.925-11-11-11zm-176.054-91.859h140.655v91.859h-140.655z"/></g></svg>