<svg id="Capa_1" enable-background="new 0 0 512 512" height="512" viewBox="0 0 512 512" width="512" xmlns="http://www.w3.org/2000/svg" fill="#E6ECF2"><g id="Welder"><g fill="#0496FF"><path d="m136.266 376.608h-62.633c-6.075 0-11-4.925-11-11s4.925-11 11-11h62.633c6.075 0 11 4.925 11 11s-4.925 11-11 11z"/><path d="m507.024 43.239c-11.867-7.768-52.071-33.113-71.163-33.113-19.529 0-36.002 13.301-40.857 31.317h-38.477c-23.333 0-42.317 18.983-42.317 42.316v62.633c0 6.075 4.925 11 11 11s11-4.925 11-11v-62.633c0-11.202 9.114-20.316 20.317-20.316h38.477c4.856 18.016 21.329 31.316 40.857 31.316 19.092 0 59.296-25.345 71.163-33.113 3.104-2.032 4.976-5.493 4.976-9.204 0-3.71-1.871-7.171-4.976-9.203zm-71.163 29.52c-11.203 0-20.316-9.114-20.316-20.316 0-11.203 9.114-20.317 20.316-20.317 6.774 0 25.911 9.412 44.317 20.317-18.406 10.904-37.543 20.316-44.317 20.316z"/><path d="m293.893 501.874c-23.333 0-42.316-18.983-42.316-42.316v-62.633c0-11.203-9.114-20.317-20.317-20.317h-32.36c-6.075 0-11-4.925-11-11s4.925-11 11-11h32.36c23.333 0 42.317 18.983 42.317 42.317v62.633c0 11.202 9.114 20.316 20.316 20.316 11.203 0 20.316-9.114 20.316-20.316v-156.583c0-6.075 4.925-11 11-11s11 4.925 11 11v156.583c.001 23.333-18.982 42.316-42.316 42.316z"/><path d="m73.633 282.658h-62.633c-6.075 0-11-4.925-11-11s4.925-11 11-11h62.633c6.075 0 11 4.925 11 11s-4.925 11-11 11z"/><path d="m198.899 282.658h-62.633c-6.075 0-11-4.925-11-11s4.925-11 11-11h62.633c6.075 0 11 4.925 11 11s-4.924 11-11 11z"/></g><path d="m53.316 199.484v-42.092h20.317c6.075 0 11-4.925 11-11s-4.925-11-11-11h-62.633c-6.075 0-11 4.925-11 11s4.925 11 11 11h20.316v42.092c-18.016 4.855-31.316 21.329-31.316 40.858v250.533c0 6.075 4.925 11 11 11h62.633c6.075 0 11-4.925 11-11v-250.533c0-19.529-13.301-36.002-31.317-40.858zm9.317 280.39h-40.633v-239.532c0-11.203 9.114-20.317 20.316-20.317 11.203 0 20.317 9.114 20.317 20.317z"/><path d="m178.583 199.484v-42.092h20.316c6.075 0 11-4.925 11-11s-4.925-11-11-11h-62.633c-6.075 0-11 4.925-11 11s4.925 11 11 11h20.317v42.092c-18.016 4.856-31.317 21.329-31.317 40.858v250.533c0 6.075 4.925 11 11 11h62.633c6.075 0 11-4.925 11-11v-250.533c0-19.529-13.3-36.003-31.316-40.858zm9.316 280.39h-40.633v-239.532c0-11.203 9.114-20.317 20.317-20.317s20.316 9.114 20.316 20.317z"/><path d="m387.843 229.342c-11.203 0-20.316-9.114-20.316-20.317v-62.633c0-6.075-4.925-11-11-11h-62.633c-6.075 0-11 4.925-11 11v125.266c0 23.333 18.983 42.317 42.316 42.317s42.317-18.983 42.317-42.317v-25.525c6.034 3.317 12.958 5.208 20.316 5.208 6.075 0 11-4.925 11-11 0-6.074-4.925-10.999-11-10.999zm-42.317 42.316c0 11.203-9.114 20.317-20.317 20.317s-20.316-9.114-20.316-20.317v-114.266h40.633z"/></g></svg>