<svg id="Layer_1" enable-background="new 0 0 512 512" viewBox="0 0 512 512" xmlns="http://www.w3.org/2000/svg" fill="#E6ECF2"><g><g fill="#0496FF"><path d="m457 308.014h-135.088c-6.075 0-11 4.925-11 11s4.925 11 11 11h9.524v15.13c0 2.917 1.158 5.714 3.221 7.777l43.8 43.815v15.316c0 6.075 4.925 11 11 11s11-4.925 11-11v-15.316l43.799-43.815c2.062-2.063 3.221-4.86 3.221-7.777v-15.13h9.523c6.075 0 11-4.925 11-11s-4.925-11-11-11zm-31.524 32.574-36.02 36.033-36.02-36.033v-10.575h72.041v10.575z"/><path d="m179.848 121.949c0-18.196-14.804-33-33-33s-33 14.804-33 33 14.804 33 33 33 33-14.804 33-33zm-44 0c0-6.065 4.935-11 11-11s11 4.935 11 11-4.935 11-11 11-11-4.935-11-11z"/><path d="m316.368 201.857 17.579-13.228-55.809-74.167c-2.078-2.762-5.333-4.386-8.79-4.386s-6.711 1.625-8.79 4.386l-45.451 60.402-13.651-18.141c-2.078-2.762-5.333-4.386-8.79-4.386s-6.711 1.625-8.79 4.386l-50.924 67.677 17.579 13.228 42.136-55.996 42.136 55.996 17.579-13.228-23.508-31.241 40.474-53.788z"/></g><path d="m471 264.014h-64.995v-152.555c0-19.029-15.481-34.51-34.511-34.51h-35.337v-21c0-6.075-4.925-11-11-11h-244.309c-6.075 0-11 4.925-11 11v21h-35.337c-19.03 0-34.511 15.481-34.511 34.51v207.039c0 19.029 15.481 34.511 34.511 34.511h123.383l-6.134 32h-37.469c-6.075 0-11 4.925-11 11s4.925 11 11 11h152.62v19.043c0 22.607 18.393 41 41 41h163.089c22.607 0 41-18.393 41-41v-121.038c0-22.608-18.393-41-41-41zm-379.152-197.065h222.309v153.065h-222.309zm-57.337 32h35.337v132.065c0 6.075 4.925 11 11 11h244.309c6.075 0 11-4.925 11-11v-132.065h35.337c6.898 0 12.511 5.612 12.511 12.51v152.555h-76.094c-13.422 0-25.358 6.483-32.842 16.481h-253.069v-169.036c0-6.898 5.612-12.51 12.511-12.51zm-12.511 219.549v-16.002h244.997c-.051.834-.085 1.672-.085 2.519v25.995h-232.401c-6.899-.002-12.511-5.614-12.511-12.512zm152.161 66.51 6.134-32h45.417l6.134 32zm80.084 0-6.134-32h18.8v32zm235.755 41.043c0 10.477-8.523 19-19 19h-163.088c-10.477 0-19-8.523-19-19v-121.037c0-10.477 8.523-19 19-19h163.088c10.477 0 19 8.523 19 19z"/></g><g/><g/><g/><g/><g/><g/><g/><g/><g/><g/><g/><g/><g/><g/><g/></svg>