<svg id="Layer_1" enable-background="new 0 0 512 512" viewBox="0 0 512 512" xmlns="http://www.w3.org/2000/svg" fill="#052438"><g><g fill="#0496FF"><path d="m324.425 330.73 7.127-2.56c4.368-1.569 7.281-5.711 7.281-10.353v-24.057c0-4.642-2.913-8.783-7.281-10.353l-7.127-2.56c-1.105-3.269-2.429-6.46-3.963-9.556l3.232-6.854c1.979-4.198 1.11-9.187-2.171-12.469l-17.011-17.011c-3.282-3.281-8.27-4.15-12.469-2.171l-6.855 3.231c-3.096-1.534-6.287-2.857-9.556-3.962l-2.56-7.127c-1.569-4.368-5.711-7.281-10.353-7.281h-24.058c-4.642 0-8.783 2.913-10.353 7.281l-2.56 7.127c-3.269 1.105-6.459 2.429-9.556 3.962l-6.855-3.231c-4.197-1.979-9.187-1.111-12.469 2.171l-17.011 17.011c-3.282 3.282-4.151 8.271-2.171 12.469l3.232 6.854c-1.534 3.096-2.857 6.288-3.963 9.556l-7.127 2.56c-4.368 1.569-7.281 5.711-7.281 10.353v24.058c0 4.642 2.913 8.783 7.281 10.353l7.127 2.56 21.102-6.293c-.567-1.601-1.065-3.242-1.479-4.878-.898-3.546-3.501-6.415-6.944-7.651l-5.086-1.827v-8.584l5.086-1.827c3.442-1.237 6.045-4.104 6.944-7.65 1.312-5.177 3.371-10.14 6.117-14.75 1.895-3.181 2.048-7.084.469-10.384l-2.278-4.833 6.07-6.069 4.713 2.221c3.307 1.636 7.265 1.517 10.503-.412 4.61-2.747 9.573-4.805 14.751-6.118 3.545-.899 6.412-3.501 7.649-6.944l1.827-5.086h8.584l1.827 5.086c1.237 3.442 4.104 6.045 7.649 6.944 5.178 1.313 10.142 3.371 14.751 6.118 3.208 1.912 7.128 2.042 10.417.453l4.799-2.262 6.07 6.069-2.246 4.764c-1.618 3.314-1.473 7.248.437 10.453 2.747 4.61 4.805 9.573 6.117 14.75.898 3.546 3.501 6.413 6.944 7.65l5.086 1.827v8.584l-5.086 1.827c-3.443 1.237-6.046 4.104-6.944 7.651-.415 1.638-.913 3.279-1.479 4.876z"/><path d="m250.691 272.471c-18.372 0-33.318 14.946-33.318 33.318s14.946 33.318 33.318 33.318 33.318-14.946 33.318-33.318-14.947-33.318-33.318-33.318zm0 44.636c-6.241 0-11.318-5.077-11.318-11.318s5.077-11.318 11.318-11.318 11.318 5.077 11.318 11.318-5.077 11.318-11.318 11.318z"/></g><g><path d="m351.191 317.172h-201c-6.075 0-11 4.925-11 11v44c0 5.738 4.394 10.444 10 10.949v23.051c0 3.068 1.282 5.997 3.535 8.08l64.965 60.023v26.725c0 3.346 1.523 6.51 4.138 8.597 1.968 1.57 4.393 2.403 6.863 2.403.812 0 1.63-.09 2.438-.273l44-10c5.008-1.138 8.562-5.591 8.562-10.727v-16.726l64.965-60.023c2.253-2.083 3.535-5.011 3.535-8.08v-23.051c5.606-.506 10-5.212 10-10.949v-44c-.001-6.074-4.926-10.999-11.001-10.999zm-190 22h179v22h-179zm104.035 122.21c-2.253 2.083-3.535 5.011-3.535 8.08v12.758l-22 5v-17.758c0-3.068-1.282-5.997-3.535-8.08l-64.965-60.023v-18.187h159v18.187z"/><path d="m461.632 119.434-8.587-3.084c-1.325-4.017-2.948-7.931-4.858-11.714l3.894-8.259c1.979-4.198 1.11-9.187-2.171-12.469l-19.056-19.056c-3.282-3.281-8.27-4.15-12.469-2.171l-8.259 3.894c-3.783-1.909-7.697-3.532-11.714-4.858l-3.084-8.587c-1.569-4.368-5.711-7.282-10.353-7.282h-26.949c-4.641 0-8.783 2.913-10.353 7.281l-3.084 8.587c-4.017 1.326-7.932 2.949-11.714 4.858l-8.26-3.894c-4.198-1.979-9.188-1.111-12.469 2.172l-19.056 19.056c-3.282 3.282-4.15 8.271-2.171 12.469l3.894 8.259c-1.91 3.783-3.533 7.697-4.858 11.714l-8.587 3.084c-4.368 1.569-7.282 5.711-7.282 10.353v26.949c0 4.641 2.913 8.783 7.281 10.353l8.587 3.084c1.325 4.017 2.949 7.931 4.858 11.714l-3.894 8.259c-1.979 4.198-1.11 9.187 2.171 12.469l19.056 19.056c3.282 3.282 8.271 4.152 12.469 2.172l8.26-3.895c3.783 1.909 7.697 3.533 11.714 4.858l3.084 8.587c1.569 4.368 5.711 7.281 10.353 7.281h26.949c4.642 0 8.784-2.914 10.353-7.282l3.084-8.587c4.017-1.325 7.931-2.948 11.714-4.857l8.259 3.894c4.197 1.978 9.187 1.11 12.469-2.171l19.056-19.056c3.282-3.282 4.151-8.271 2.171-12.469l-3.894-8.26c1.909-3.783 3.533-7.697 4.858-11.714l8.587-3.084c4.368-1.569 7.281-5.711 7.281-10.353v-26.949c.002-4.641-2.912-8.783-7.28-10.352zm-14.718 29.565-6.573 2.361c-3.442 1.237-6.045 4.104-6.944 7.649-1.501 5.923-3.856 11.601-6.999 16.875-1.902 3.193-2.044 7.105-.46 10.402l2.944 6.244-8.114 8.114-6.175-2.912c-3.314-1.625-7.256-1.487-10.47.428-5.275 3.142-10.953 5.497-16.875 6.998-3.546.898-6.413 3.501-7.65 6.944l-2.361 6.572h-11.475l-2.361-6.573c-1.237-3.442-4.104-6.045-7.649-6.944-5.923-1.501-11.601-3.856-16.875-6.998-3.178-1.893-7.081-2.048-10.381-.47l-6.265 2.954-8.114-8.114 2.92-6.195c1.618-3.316 1.471-7.248-.437-10.451-3.142-5.275-5.497-10.953-6.998-16.875-.899-3.545-3.501-6.413-6.944-7.649l-6.573-2.361v-11.475l6.572-2.361c3.443-1.237 6.046-4.104 6.944-7.65 1.501-5.923 3.856-11.601 6.998-16.875 1.898-3.187 2.046-7.094.464-10.392l-2.948-6.253 8.114-8.114 6.159 2.904c3.315 1.632 7.264 1.5 10.487-.42 5.273-3.142 10.951-5.496 16.875-6.999 3.545-.899 6.412-3.501 7.649-6.944l2.361-6.573h11.475l2.361 6.572c1.236 3.443 4.104 6.045 7.649 6.944 5.925 1.502 11.603 3.857 16.876 6.999 3.202 1.907 7.117 2.042 10.411.456l6.234-2.939 8.115 8.115-2.896 6.143c-1.637 3.312-1.514 7.269.412 10.502 3.143 5.274 5.497 10.952 6.999 16.875.898 3.546 3.501 6.413 6.944 7.65l6.572 2.361v11.475z"/><path d="m371.5 107.261c-19.851 0-36 16.149-36 36s16.149 36 36 36 36-16.149 36-36-16.15-36-36-36zm0 50c-7.72 0-14-6.28-14-14s6.28-14 14-14 14 6.28 14 14-6.281 14-14 14z"/><path d="m175.529 206.927 3.634-10.118c4.8-1.55 9.467-3.485 13.963-5.791l9.732 4.588c4.197 1.979 9.186 1.11 12.469-2.171l21.193-21.193c3.282-3.282 4.15-8.271 2.171-12.469l-4.588-9.732c2.306-4.497 4.241-9.165 5.791-13.964l10.118-3.634c4.368-1.569 7.282-5.711 7.282-10.353v-29.971c0-4.642-2.914-8.784-7.282-10.353l-10.118-3.634c-1.55-4.799-3.485-9.468-5.791-13.964l4.588-9.732c1.979-4.198 1.11-9.187-2.171-12.469l-21.193-21.193c-3.282-3.281-8.27-4.15-12.469-2.171l-9.732 4.588c-4.496-2.305-9.164-4.241-13.963-5.791l-3.634-10.118c-1.569-4.368-5.711-7.282-10.352-7.282h-29.972c-4.642 0-8.784 2.914-10.353 7.282l-3.634 10.118c-4.8 1.55-9.467 3.485-13.963 5.791l-9.732-4.588c-4.2-1.979-9.187-1.111-12.469 2.171l-21.194 21.192c-3.282 3.282-4.15 8.271-2.171 12.469l4.588 9.732c-2.306 4.497-4.241 9.165-5.791 13.964l-10.118 3.634c-4.368 1.569-7.282 5.711-7.282 10.353v29.971c0 4.642 2.914 8.784 7.282 10.353l10.118 3.634c1.55 4.799 3.485 9.468 5.791 13.964l-4.588 9.732c-1.979 4.198-1.11 9.187 2.171 12.469l21.193 21.193c3.282 3.281 8.271 4.15 12.469 2.171l9.732-4.588c4.496 2.305 9.164 4.241 13.963 5.791l3.634 10.118c1.569 4.368 5.711 7.282 10.353 7.282h29.972c4.642 0 8.784-2.913 10.353-7.281zm-15.171-22.844-2.918 8.126h-14.498l-2.918-8.126c-1.237-3.443-4.104-6.045-7.649-6.944-6.704-1.7-13.128-4.364-19.096-7.919-3.196-1.904-7.111-2.042-10.404-.458l-7.735 3.647-10.251-10.251 3.624-7.687c1.62-3.318 1.472-7.251-.436-10.453-3.555-5.968-6.22-12.393-7.919-19.096-.899-3.546-3.501-6.413-6.944-7.649l-8.126-2.918v-14.5l8.126-2.918c3.443-1.237 6.045-4.104 6.944-7.649 1.699-6.703 4.364-13.128 7.919-19.096 1.891-3.175 2.048-7.075.472-10.376l-3.66-7.764 10.251-10.251 7.638 3.601c3.315 1.639 7.271 1.512 10.502-.412 5.967-3.555 12.392-6.219 19.096-7.919 3.546-.899 6.413-3.501 7.649-6.944l2.917-8.127h14.498l2.918 8.126c1.237 3.443 4.104 6.045 7.649 6.944 6.704 1.7 13.128 4.364 19.096 7.919 3.197 1.905 7.111 2.043 10.404.458l7.735-3.647 10.251 10.251-3.624 7.687c-1.62 3.318-1.472 7.251.436 10.453 3.555 5.968 6.22 12.393 7.919 19.096.899 3.546 3.501 6.413 6.944 7.649l8.126 2.918v14.498l-8.126 2.918c-3.443 1.237-6.045 4.104-6.944 7.649-1.699 6.703-4.364 13.128-7.919 19.096-1.891 3.175-2.048 7.075-.472 10.376l3.66 7.764-10.251 10.251-7.638-3.601c-3.314-1.638-7.271-1.511-10.501.413-5.967 3.555-12.392 6.219-19.096 7.919-3.545.9-6.412 3.503-7.649 6.946z"/><path d="m188.994 107.104c0-21.396-17.407-38.804-38.803-38.804s-38.803 17.407-38.803 38.804c0 21.396 17.407 38.803 38.803 38.803s38.803-17.407 38.803-38.803zm-38.803 16.804c-9.265 0-16.803-7.538-16.803-16.803 0-9.266 7.538-16.804 16.803-16.804s16.803 7.538 16.803 16.804c0 9.265-7.538 16.803-16.803 16.803z"/></g></g><g/><g/><g/><g/><g/><g/><g/><g/><g/><g/><g/><g/><g/><g/><g/></svg>