<svg id="Layer_1" enable-background="new 0 0 512 512" viewBox="0 0 512 512" xmlns="http://www.w3.org/2000/svg" fill="#052438"><g><g fill="#0496FF"><path d="m286.105 459.895h154.685v22h-154.685z"/><path d="m71.21 459.895h154.685v22h-154.685z"/><path d="m245 337.414h22v103.375h-22z"/></g><g><path d="m356.5 158.586h-7.869v-147.586c0-6.075-4.925-11-11-11h-105.632v.005c-2.862.001-5.675 1.113-7.778 3.217l-57.629 57.629c-2.104 2.104-3.215 4.917-3.216 7.778h-.006v89.957h-7.87c-6.075 0-11 4.925-11 11v44c0 5.738 4.394 10.444 10 10.95v23.05c0 3.068 1.282 5.997 3.535 8.08l64.965 60.022v26.726c0 3.346 1.523 6.51 4.138 8.597 1.968 1.57 4.393 2.403 6.863 2.403.812 0 1.63-.09 2.438-.273l44-10c5.008-1.138 8.562-5.591 8.562-10.727v-16.726l64.965-60.023c2.253-2.083 3.535-5.011 3.535-8.08v-23.05c5.606-.506 10-5.212 10-10.95v-44c-.001-6.074-4.926-10.999-11.001-10.999zm-190 44v-22h179v22zm54.499-165.03v20.073h-20.073zm-35.63 42.073h46.629c6.075 0 11-4.925 11-11v-46.629h83.632v136.586h-141.261zm85.166 223.167c-2.253 2.083-3.535 5.011-3.535 8.08v12.758l-22 5v-17.758c0-3.068-1.282-5.997-3.535-8.08l-64.965-60.023v-18.187h159v18.187z"/><path d="m41.105 429.79c-22.666 0-41.105 18.439-41.105 41.105s18.439 41.105 41.105 41.105 41.105-18.439 41.105-41.105-18.439-41.105-41.105-41.105zm0 60.21c-10.535 0-19.105-8.57-19.105-19.105s8.57-19.105 19.105-19.105 19.105 8.571 19.105 19.105-8.57 19.105-19.105 19.105z"/><path d="m470.895 429.79c-22.666 0-41.105 18.44-41.105 41.105s18.439 41.105 41.105 41.105 41.105-18.439 41.105-41.105-18.439-41.105-41.105-41.105zm0 60.21c-10.535 0-19.105-8.57-19.105-19.105s8.571-19.105 19.105-19.105 19.105 8.57 19.105 19.105-8.57 19.105-19.105 19.105z"/><path d="m256 429.79c-22.666 0-41.105 18.44-41.105 41.105s18.439 41.105 41.105 41.105 41.105-18.439 41.105-41.105-18.439-41.105-41.105-41.105zm0 60.21c-10.535 0-19.105-8.57-19.105-19.105s8.57-19.105 19.105-19.105 19.105 8.571 19.105 19.105-8.57 19.105-19.105 19.105z"/></g></g><g/><g/><g/><g/><g/><g/><g/><g/><g/><g/><g/><g/><g/><g/><g/></svg>