<svg id="Capa_1" enable-background="new 0 0 512 512" viewBox="0 0 512 512" xmlns="http://www.w3.org/2000/svg" fill="#E6ECF2"><g><g fill="#0496FF"><path d="m159.425 137.845-9.7-4.017c-3.468-1.437-5.184-5.581-3.747-9.049.7-1.691 2.034-3.015 3.756-3.728 1.722-.712 3.602-.72 5.292-.02l4.85 2.009c5.61 2.324 12.048-.34 14.373-5.953 2.324-5.613-.341-12.047-5.953-14.372l-4.851-2.009c-.687-.284-1.38-.541-2.079-.77v-3.436c0-6.075-4.925-11-11-11s-11 4.925-11 11v5.117c-6.212 3.115-11.038 8.285-13.714 14.744-6.103 14.734.919 31.688 15.654 37.792l9.7 4.017c3.469 1.437 5.185 5.581 3.749 9.048-1.438 3.468-5.581 5.185-9.049 3.749l-4.85-2.009c-5.612-2.326-12.048.339-14.373 5.953-2.324 5.613.341 12.047 5.953 14.372l4.851 2.009c.688.285 1.382.541 2.078.77v3.437c0 6.075 4.925 11 11 11s11-4.925 11-11v-5.111c5.983-3.009 10.957-8.093 13.715-14.751 6.103-14.734-.92-31.688-15.655-37.792z"/><path d="m314.723 188.769h-89.603c-6.075 0-11 4.925-11 11s4.925 11 11 11h89.603c6.075 0 11-4.925 11-11s-4.925-11-11-11z"/></g><g><path d="m502.128 227.352-36.499-3.763c-11.386-23.342-29.694-44.525-53.431-61.803v-63.72c0-6.075-4.925-11-11-11-27.766 0-52.824 14.815-66.274 38.466-23.319-6.309-47.775-9.503-72.836-9.503-5.035 0-10.11.133-15.139.395-12.674-41.307-51.178-71.424-96.583-71.424-55.691 0-101 45.309-101 101 0 22.299 7.264 42.933 19.55 59.661-13.475 19.98-21.468 42.053-23.436 64.595h-11.98c-6.341 0-11.5-5.159-11.5-11.5v-22.5c0-6.075-4.925-11-11-11s-11 4.925-11 11v22.5c0 18.472 15.028 33.5 33.5 33.5h11.967c1.641 19.26 7.608 37.907 17.8 55.569 10.255 17.771 24.354 33.817 41.977 47.792l-8.963 23.096c-1.963 5.059.056 10.793 4.755 13.506l57.689 33.307c1.724.995 3.617 1.475 5.494 1.474 3.24 0 6.427-1.431 8.58-4.109l20.067-24.967c22.259 5.681 45.51 8.559 69.222 8.559 23.737 0 46.988-2.874 69.228-8.55l20.061 24.958c3.4 4.229 9.377 5.349 14.074 2.635l57.689-33.307c4.699-2.713 6.718-8.447 4.755-13.506l-8.964-23.1c20.457-16.263 36.426-35.646 46.697-56.691l36.5-3.763c5.608-.578 9.872-5.304 9.872-10.942v-85.922c0-5.639-4.264-10.365-9.872-10.943zm-351.762-160.352c43.561 0 79 35.439 79 79s-35.439 79-79 79-79-35.439-79-79 35.44-79 79-79zm339.634 247.292-32.871 3.389c-3.964.409-7.397 2.929-8.975 6.589-9.486 22.018-26.411 42.318-48.944 58.706-4.037 2.936-5.591 8.222-3.785 12.875l8.549 22.029-41.357 23.877-18.654-23.209c-2.771-3.447-7.331-4.9-11.589-3.688-22.406 6.384-46.054 9.622-70.285 9.622-24.202 0-47.848-3.24-70.28-9.63-4.255-1.212-8.817.242-11.588 3.688l-18.661 23.218-41.357-23.877 8.55-22.031c1.806-4.654.252-9.941-3.786-12.876-37.381-27.176-57.967-63.3-57.967-101.719 0-20.603 5.819-40.382 17.312-58.909 17.721 15.353 40.822 24.654 66.054 24.654 55.691 0 101-45.309 101-101 0-2.605-.099-5.188-.294-7.744 3.668-.15 7.354-.226 11.016-.226 26.125 0 51.495 3.751 75.404 11.149 5.45 1.688 11.277-1.07 13.435-6.347 6.964-17.039 21.762-29.07 39.271-32.655v57.306c0 3.628 1.789 7.023 4.782 9.074 24.69 16.92 43.078 38.25 53.174 61.684 1.577 3.66 5.011 6.181 8.975 6.589l32.871 3.388z"/><path d="m381.199 221.484c-6.075 0-11 4.925-11 11v10c0 6.075 4.925 11 11 11s11-4.925 11-11v-10c0-6.076-4.925-11-11-11z"/></g></g><g/><g/><g/><g/><g/><g/><g/><g/><g/><g/><g/><g/><g/><g/><g/></svg>