<svg id="Layer_1" enable-background="new 0 0 512.001 512.001" viewBox="0 0 512.001 512.001" xmlns="http://www.w3.org/2000/svg" fill="#052438"><g><path d="m447.665 197.851-85.632-63.978v-79.006c0-6.075-4.925-11-11-11h-44c-6.075 0-11 4.925-11 11v29.695l-63.409-47.375c-3.905-2.917-9.263-2.917-13.168 0l-215.039 160.664c-3.796 2.836-5.349 7.784-3.854 12.281 1.494 4.497 5.7 7.531 10.438 7.531h62.514v134.415c0 6.075 4.925 11 11 11h228.643v-22h-38.874v-95.892c0-6.075-4.925-11-11-11h-74.485c-6.075 0-11 4.925-11 11v95.892h-82.285v-128.902l130.526-97.521 130.527 97.521v74.678h22v-69.191h62.514c4.738 0 8.944-3.035 10.439-7.531 1.494-4.497-.059-9.445-3.855-12.281zm-247.866 58.335h52.485v84.892h-52.485zm118.234-190.319h22v51.569l-22-16.437zm53.19 129.796-138.598-103.55c-3.905-2.917-9.263-2.917-13.168 0l-138.598 103.55h-36.757l181.939-135.932 181.939 135.932z"/><g fill="#0496FF"><path d="m407.079 267.156c-57.854 0-104.922 47.068-104.922 104.922s47.068 104.922 104.922 104.922 104.922-47.068 104.922-104.922-47.068-104.922-104.922-104.922zm0 187.844c-45.723 0-82.922-37.199-82.922-82.922s37.199-82.922 82.922-82.922 82.922 37.199 82.922 82.922-37.199 82.922-82.922 82.922z"/><path d="m450.157 329c-4.296-4.296-11.261-4.296-15.557 0l-27.522 27.522-27.521-27.522c-4.296-4.296-11.261-4.296-15.557 0-4.295 4.296-4.295 11.261 0 15.557l27.522 27.522-27.522 27.521c-4.295 4.296-4.295 11.261 0 15.557 2.148 2.148 4.963 3.222 7.778 3.222s5.63-1.074 7.778-3.222l27.522-27.522 27.522 27.522c2.148 2.148 4.963 3.222 7.778 3.222s5.63-1.074 7.778-3.222c4.295-4.296 4.295-11.261 0-15.557l-27.522-27.522 27.522-27.522c4.297-4.296 4.297-11.26.001-15.556z"/></g></g><g/><g/><g/><g/><g/><g/><g/><g/><g/><g/><g/><g/><g/><g/><g/></svg>