<svg id="Capa_1" enable-background="new 0 0 512 512" viewBox="0 0 512 512" xmlns="http://www.w3.org/2000/svg" fill="#E6ECF2"><g><g fill="#0496FF"><path d="m51 190.001c-6.075 0-11 4.925-11 11v200c0 6.075 4.925 11 11 11s11-4.925 11-11v-200c0-6.075-4.924-11-11-11z"/><path d="m96.001 190.001c-6.075 0-11 4.925-11 11v200c0 6.075 4.925 11 11 11s11-4.925 11-11v-200c0-6.075-4.925-11-11-11z"/><path d="m461 190.001c-6.075 0-11 4.925-11 11v200c0 6.075 4.925 11 11 11s11-4.925 11-11v-200c0-6.075-4.925-11-11-11z"/><path d="m416 190.001c-6.075 0-11 4.925-11 11v200c0 6.075 4.925 11 11 11s11-4.925 11-11v-200c0-6.075-4.925-11-11-11z"/><path d="m265.06 292.847-9.7-4.017c-3.468-1.438-5.185-5.581-3.748-9.05.7-1.69 2.034-3.015 3.755-3.728s3.602-.72 5.293-.02l4.85 2.009c5.613 2.321 12.047-.342 14.372-5.954 2.324-5.612-.341-12.047-5.954-14.372l-4.85-2.009c-.686-.284-1.38-.541-2.079-.77v-3.436c0-6.075-4.925-11-11-11s-11 4.925-11 11v5.117c-6.212 3.115-11.039 8.284-13.713 14.743-6.104 14.735.918 31.688 15.654 37.794l9.701 4.018c3.468 1.436 5.183 5.58 3.747 9.049-.7 1.69-2.034 3.015-3.755 3.728-1.722.714-3.602.72-5.293.02l-4.85-2.009c-5.613-2.321-12.047.342-14.372 5.954s.341 12.047 5.954 14.372l4.85 2.009c.686.284 1.379.541 2.078.77v3.436c0 6.075 4.925 11 11 11s11-4.925 11-11v-5.117c6.212-3.115 11.039-8.285 13.714-14.744 6.103-14.736-.92-31.689-15.654-37.793z"/></g><g><path d="m501 440.001h-9v-34c0-6.075-4.925-11-11-11h-85c-6.075 0-11 4.925-11 11v34h-257.999v-34c0-6.075-4.925-11-11-11h-85c-6.075 0-11 4.925-11 11v34h-9c-6.075 0-11 4.925-11 11v49.999c0 6.075 4.925 11 11 11h490c6.075 0 11-4.925 11-11v-49.999c-.001-6.075-4.926-11-11.001-11zm-94-23h63v23h-63zm-364.999 0h63v23h-63zm447.999 72.999h-468v-27.999h468z"/><path d="m504.793 90.676-245-90.001c-2.448-.9-5.138-.9-7.586 0l-245 90.001c-4.329 1.59-7.207 5.713-7.207 10.325v50c0 6.075 4.925 11 11 11h9v34c0 6.075 4.925 11 11 11h85c6.075 0 11-4.925 11-11v-34h258v34c0 6.075 4.925 11 11 11h85c6.075 0 11-4.925 11-11v-34h9c6.075 0 11-4.925 11-11v-50c0-4.612-2.877-8.735-7.207-10.325zm-482.793 18.003 234-85.96 234 85.96v31.322h-468zm83.001 76.322h-63v-23h63zm364.999 0h-63v-23h63z"/><path d="m357 301.001c0-55.691-45.309-101-101-101s-101 45.309-101 101 45.309 101 101 101 101-45.308 101-101zm-180 0c0-43.561 35.439-79 79-79s79 35.439 79 79-35.439 79-79 79-79-35.439-79-79z"/></g></g><g/><g/><g/><g/><g/><g/><g/><g/><g/><g/><g/><g/><g/><g/><g/></svg>