<svg id="Layer_1" enable-background="new 0 0 512 512" viewBox="0 0 512 512" xmlns="http://www.w3.org/2000/svg" fill="#E6ECF2"><g><g><path d="m468.041 137.569h-162.298c-4.444 0-8.452 2.674-10.157 6.778l-48.425 116.493c-1.531 3.683-.948 7.907 1.523 11.038l43.408 54.99-51.86 128.573c-1.368 3.39-.961 7.238 1.083 10.269s5.462 4.846 9.118 4.846h217.607c24.239 0 43.959-19.72 43.959-43.959v-245.068c.001-24.239-19.719-43.96-43.958-43.96zm-198.085 125.749 43.126-103.749h154.958c12.108 0 21.959 9.851 21.959 21.959v169.359h-183.873l8.757-21.71c1.476-3.661.878-7.832-1.567-10.93zm220.044 109.57v27.327h-203.77l11.023-27.327zm-21.959 75.668h-201.31l10.625-26.341h212.644v4.381c0 12.109-9.851 21.96-21.959 21.96z"/><path d="m263.316 327.247-43.36-54.929 49.685-119.527c1.411-3.395 1.033-7.27-1.007-10.328s-5.474-4.895-9.15-4.895h-215.525c-24.239.001-43.959 19.722-43.959 43.961v245.067c0 24.239 19.72 43.959 43.959 43.959h160.104c4.486 0 8.523-2.725 10.202-6.885l50.617-125.493c1.478-3.66.88-7.832-1.566-10.93zm-241.316 45.641h205.16l-11.022 27.327h-194.138zm174.64 75.668h-152.681c-12.108 0-21.959-9.851-21.959-21.959v-4.381h185.264zm39.394-97.668h-214.034v-169.359c0-12.108 9.851-21.959 21.959-21.959h199.04l-45.838 110.27c-1.531 3.683-.948 7.907 1.523 11.038l43.408 54.99z"/></g><g fill="#0496FF"><path d="m129 228.547h-74c-6.075 0-11 4.925-11 11v64c0 6.075 4.925 11 11 11h74c6.075 0 11-4.925 11-11v-64c0-6.075-4.925-11-11-11zm-11 64h-52v-42h52z"/><g><path d="m283.718 41.444c-6.075 0-11 4.925-11 11v30.057c0 6.075 4.925 11 11 11s11-4.925 11-11v-30.057c0-6.075-4.925-11-11-11z"/><path d="m343.873 76.907c-4.296-4.296-11.261-4.296-15.557 0l-17.846 17.846c-4.295 4.296-4.295 11.261 0 15.557 2.148 2.148 4.963 3.222 7.778 3.222s5.63-1.074 7.778-3.222l17.846-17.846c4.296-4.296 4.296-11.261.001-15.557z"/><path d="m239.119 76.907c-4.296-4.296-11.261-4.296-15.557 0-4.295 4.296-4.295 11.261 0 15.557l17.846 17.846c2.148 2.148 4.963 3.222 7.778 3.222s5.63-1.074 7.778-3.222c4.295-4.296 4.295-11.261 0-15.557z"/></g></g></g><g/><g/><g/><g/><g/><g/><g/><g/><g/><g/><g/><g/><g/><g/><g/></svg>