<svg id="Layer_1" enable-background="new 0 0 512.003 512.003" viewBox="0 0 512.003 512.003" xmlns="http://www.w3.org/2000/svg" fill="#E6ECF2"><g><g fill="#0496FF"><path d="m407.994 133.93c-57.351 0-104.008 46.658-104.008 104.008s46.657 104.008 104.008 104.008 104.008-46.658 104.008-104.008-46.658-104.008-104.008-104.008zm0 186.016c-45.22 0-82.008-36.789-82.008-82.008s36.788-82.008 82.008-82.008 82.008 36.789 82.008 82.008-36.789 82.008-82.008 82.008z"/><path d="m407.994 211.115h20c6.075 0 11-4.925 11-11s-4.925-11-11-11h-9v-3.661c0-6.075-4.925-11-11-11s-11 4.925-11 11v5.766c-11.064 4.393-18.912 15.197-18.912 27.807 0 16.493 13.419 29.912 29.912 29.912 4.362 0 7.912 3.549 7.912 7.912 0 4.362-3.55 7.912-7.912 7.912h-20c-6.075 0-11 4.925-11 11s4.925 11 11 11h9v3.661c0 6.075 4.925 11 11 11s11-4.925 11-11v-5.766c11.064-4.393 18.912-15.197 18.912-27.807 0-16.494-13.419-29.912-29.912-29.912-4.362 0-7.912-3.549-7.912-7.912s3.549-7.912 7.912-7.912z"/></g><g><path d="m253.143 129.757-6.347 6.347c-3.146 3.146-4.087 7.877-2.385 11.988 1.703 4.11 5.714 6.791 10.163 6.791h59.363c6.075 0 11-4.925 11-11v-59.364c0-4.449-2.68-8.46-6.79-10.163-4.109-1.703-8.841-.762-11.988 2.384l-6.347 6.347-79.865-79.865c-4.296-4.295-11.261-4.295-15.557 0l-31.113 31.113c-2.063 2.063-3.222 4.861-3.222 7.778s1.159 5.715 3.222 7.778zm-40.975-103.201 79.866 79.867c2.952 2.952 7.163 3.875 10.903 2.771v23.689h-23.689c1.104-3.74.181-7.952-2.771-10.903l-79.866-79.866z"/><path d="m437.12 431.544h-53.18v-47.458c0-6.075-4.925-11-11-11h-53.179v-47.459c0-6.075-4.925-11-11-11h-53.18v-47.459c0-6.075-4.925-11-11-11h-53.18v-47.458c0-6.075-4.925-11-11-11h-53.179v-47.46c0-6.075-4.925-11-11-11h-105.221c-6.075 0-11 4.925-11 11v350.753c0 6.075 4.925 11 11 11h426.119c6.075 0 11-4.925 11-11v-58.459c0-6.075-4.925-11-11-11zm-75.18 0h-339.939v-36.458h339.939zm-64.179-58.459h-275.76v-36.459h275.76zm-64.18-58.459h-211.58v-36.459h211.58zm-64.179-58.459h-147.4v-36.458h147.4zm-147.401-94.917h83.222v36.459h-83.222zm404.119 328.753h-404.119v-36.459h404.119z"/></g></g><g/><g/><g/><g/><g/><g/><g/><g/><g/><g/><g/><g/><g/><g/><g/></svg>