<svg id="Layer_1" enable-background="new 0 0 512 512" viewBox="0 0 512 512" xmlns="http://www.w3.org/2000/svg" fill="#E6ECF2"><g><g><path d="m432.42 94.195c-5.886-6.711-14.381-10.56-23.307-10.56h-263.752v-49.635c0-6.075-4.925-11-11-11h-34.999v-12c0-6.075-4.925-11-11-11h-77.362c-6.075 0-11 4.925-11 11v45.999c0 6.075 4.925 11 11 11h77.362c6.075 0 11-4.925 11-11v-11.999h23.999v49.635 160.013c-19.79 4.933-34.499 22.852-34.499 44.147 0 21.831 15.458 40.113 36 44.494 4.279 13.885 17.228 24.004 32.498 24.004 14.899 0 27.58-9.636 32.164-23h122.414c4.583 13.364 17.265 23 32.163 23 18.748 0 34-15.252 34-34s-15.252-34-34-34c-14.898 0-27.579 9.636-32.163 23h-122.414c-4.583-13.364-17.265-23-32.164-23-14.288 0-26.537 8.864-31.56 21.378-8.735-3.43-14.938-11.94-14.938-21.877 0-12.958 10.542-23.5 23.499-23.5h257.687c15.5 0 28.713-11.588 30.735-26.955l17.064-129.66c1.166-8.848-1.541-17.773-7.427-24.484zm-355.058-48.196h-55.362v-23.999h55.362zm266.739 275.296c6.617 0 12 5.383 12 12s-5.383 12-12 12c-6.616 0-11.999-5.383-11.999-12s5.382-12 11.999-12zm-186.741 0c6.617 0 12 5.383 12 12s-5.383 12-12 12c-6.616 0-11.999-5.383-11.999-12s5.383-12 11.999-12zm260.675-205.486-17.064 129.661c-.587 4.461-4.423 7.825-8.923 7.825h-246.687v-147.66h263.752c3.548 0 5.762 1.921 6.766 3.065 1.005 1.145 2.62 3.591 2.156 7.109z"/><path d="m379.554 129.634h-201.193c-6.075 0-11 4.925-11 11s4.925 11 11 11h201.192c6.075 0 11-4.925 11-11s-4.924-11-10.999-11z"/><path d="m359.896 209.296h-181.535c-6.075 0-11 4.925-11 11s4.925 11 11 11h181.535c6.075 0 11-4.925 11-11s-4.924-11-11-11z"/></g><path d="m511.163 436.891c-1.703-4.11-5.714-6.791-10.163-6.791h-17.506v-125.377c0-6.075-4.925-11-11-11h-62.788c-6.075 0-11 4.925-11 11v125.378h-17.505c-4.449 0-8.46 2.68-10.163 6.791-1.702 4.11-.761 8.842 2.385 11.988l59.899 59.899c2.148 2.148 4.963 3.222 7.778 3.222s5.63-1.074 7.778-3.222l59.899-59.899c3.147-3.147 4.088-7.878 2.386-11.989zm-70.062 48.553-33.343-33.343h1.948c6.075 0 11-4.925 11-11v-125.378h40.788v125.378c0 6.075 4.925 11 11 11h1.949z" fill="#0496FF"/></g><g/><g/><g/><g/><g/><g/><g/><g/><g/><g/><g/><g/><g/><g/><g/></svg>