<svg id="Capa_1" enable-background="new 0 0 512.009 512.009" viewBox="0 0 512.009 512.009" xmlns="http://www.w3.org/2000/svg" fill="#E6ECF2"><g><g fill="#0496FF"><path d="m339.426 20.977c-5.261-3.036-11.988-1.234-15.026 4.026l-95.771 165.881c-3.038 5.261-1.235 11.989 4.026 15.026 1.732 1 3.624 1.476 5.49 1.476 3.801 0 7.499-1.973 9.537-5.502l95.771-165.881c3.037-5.261 1.234-11.989-4.027-15.026z"/><path d="m378.398 43.477c-5.259-3.036-11.988-1.236-15.026 4.026l-82.854 143.506c-3.037 5.261-1.235 11.989 4.026 15.026 1.732 1 3.623 1.476 5.49 1.476 3.801 0 7.499-1.973 9.536-5.502l82.854-143.506c3.037-5.261 1.235-11.989-4.026-15.026z"/></g><path d="m446.004 190.009h-35.581l42.443-73.516c4.129-7.151 5.221-15.503 3.073-23.517-2.146-8.014-7.268-14.701-14.42-18.83l-121.244-70c-14.802-8.545-33.801-3.458-42.347 11.347l-15.694 27.183-77.371-20.732c-16.507-4.425-33.542 5.409-37.966 21.92l-39.159 146.145h-21.733c-28.122 0-51 22.878-51 51v220c0 28.122 22.878 51 51 51h360c6.075 0 11-4.925 11-11v-100c0-6.075-4.925-11-11-11s-11 4.925-11 11v89h-349c-15.991 0-29-13.009-29-29v-220c0-15.991 13.009-29 29-29h349v89c0 6.075 4.925 11 11 11s11-4.925 11-11v-100c-.001-6.075-4.926-11-11.001-11zm-149.022-163.516c2.48-4.297 7.994-5.775 12.294-3.294l121.244 70c2.062 1.191 3.544 3.134 4.17 5.471s.315 4.76-.876 6.823l-48.794 84.516h-182.443zm-128.834 23.066c1.285-4.793 6.227-7.649 11.022-6.364l71.677 19.205-73.674 127.609h-46.659z"/><g fill="#0496FF"><path d="m466.004 295.009h-95c-30.879 0-56 25.122-56 56s25.121 56 56 56h95c6.075 0 11-4.925 11-11v-90c0-6.075-4.925-11-11-11zm-11 90h-84c-18.748 0-34-15.252-34-34s15.252-34 34-34h84z"/><path d="m360.008 351.009c0 6.075 4.929 11 11.004 11s11-4.925 11-11-4.925-11-11-11h-.008c-6.075 0-10.996 4.925-10.996 11z"/></g></g><g/><g/><g/><g/><g/><g/><g/><g/><g/><g/><g/><g/><g/><g/><g/></svg>