<svg id="Layer_1" enable-background="new 0 0 512 512" viewBox="0 0 512 512" xmlns="http://www.w3.org/2000/svg" fill="#052438"><g><g fill="#0496FF"><path d="m408.13 293.28c-1.268-7.475-10.712-11.396-16.89-6.989-8.104 5.292-5.553 18.117 3.95 19.929 7.401 1.703 14.644-5.531 12.94-12.94z"/><path d="m287.549 102.889c-6.075 0-11 4.925-11 11v30.058c0 6.075 4.925 11 11 11s11-4.925 11-11v-30.058c0-6.076-4.925-11-11-11z"/><path d="m332.147 138.352-17.846 17.846c-4.296 4.295-4.296 11.26 0 15.556 2.148 2.148 4.963 3.222 7.778 3.222s5.631-1.074 7.778-3.222l17.846-17.846c4.296-4.295 4.296-11.26 0-15.556s-11.261-4.296-15.556 0z"/><path d="m242.95 138.352c-4.297-4.296-11.262-4.295-15.557 0-4.296 4.295-4.296 11.26 0 15.556l17.847 17.846c2.148 2.148 4.963 3.222 7.778 3.222s5.631-1.074 7.778-3.222c4.296-4.295 4.296-11.26 0-15.556z"/><path d="m104.008 0c-57.351 0-104.008 46.658-104.008 104.008s46.657 104.008 104.008 104.008 104.008-46.658 104.008-104.008-46.658-104.008-104.008-104.008zm0 186.016c-45.22 0-82.008-36.789-82.008-82.008s36.788-82.008 82.008-82.008 82.008 36.789 82.008 82.008-36.788 82.008-82.008 82.008z"/><path d="m104.008 77.185h20c6.075 0 11-4.925 11-11s-4.925-11-11-11h-9v-3.662c0-6.075-4.925-11-11-11s-11 4.925-11 11v5.766c-11.064 4.393-18.912 15.197-18.912 27.807 0 16.493 13.419 29.912 29.912 29.912 4.362 0 7.912 3.549 7.912 7.912s-3.55 7.912-7.912 7.912h-20c-6.075 0-11 4.925-11 11s4.925 11 11 11h9v3.662c0 6.075 4.925 11 11 11s11-4.925 11-11v-5.766c11.064-4.393 18.912-15.197 18.912-27.807 0-16.493-13.419-29.912-29.912-29.912-4.362 0-7.912-3.549-7.912-7.912s3.55-7.912 7.912-7.912z"/></g><g><path d="m289.997 364.486-43.359-54.929 40.471-97.359c1.411-3.395 1.033-7.27-1.007-10.328-2.041-3.058-5.475-4.895-9.15-4.895h-37.898c-75.881 0-138.271 58.864-143.909 133.326h-32.478c-5.237 0-9.499-4.262-9.499-9.5s4.262-9.5 9.499-9.5c2.538 0 4.924.988 6.719 2.783 4.295 4.295 11.261 4.295 15.556-.001 4.296-4.296 4.295-11.261-.001-15.557-5.949-5.949-13.859-9.225-22.273-9.225-17.368 0-31.499 14.13-31.499 31.5s14.131 31.5 31.499 31.5h32.491c3.229 42.744 25.154 81.679 60.299 106.656v42.043c0 6.075 4.925 11 11 11h50.565c5.303 0 9.851-3.783 10.816-8.997l3.258-17.592c2.65.145 5.308.217 7.956.217h.635c4.486 0 8.523-2.725 10.201-6.885l41.676-103.326c1.476-3.661.878-7.833-1.568-10.931zm-57.66 98.96c-2.968-.161-5.927-.427-8.85-.798-5.79-.738-11.138 3.175-12.2 8.91l-3.415 18.442h-30.415v-36.86c0-3.722-1.882-7.191-5.002-9.221-34.895-22.697-55.728-61.059-55.728-102.617 0-67.451 54.875-122.326 122.325-122.326h21.413l-36.623 88.104c-1.531 3.683-.948 7.907 1.523 11.038l43.408 54.99z"/><path d="m503.53 292.257-24.596-5.814c-12.118-29.517-33.565-54.056-61.226-70.07v-47.652c0-6.075-4.925-11-11-11h-14.164c-13.776 0-27.087 4.97-37.477 13.996-7.827 6.798-13.619 15.551-16.826 25.259h-15.031c-4.444 0-8.451 2.674-10.157 6.778l-39.21 94.326c-1.531 3.683-.948 7.907 1.523 11.038l43.408 54.99-42.919 106.406c-1.368 3.39-.962 7.238 1.084 10.269 2.045 3.03 5.462 4.846 9.117 4.846h59.35c2.644 0 5.3-.073 7.957-.22l3.259 17.595c.966 5.214 5.514 8.997 10.816 8.997h50.565c6.075 0 11-4.925 11-11v-42.046c22.139-15.778 39.603-37.744 49.926-62.792l24.601-5.815c4.964-1.173 8.47-5.604 8.47-10.705v-76.679c0-5.102-3.506-9.533-8.47-10.707zm-13.53 78.681-21.764 5.145c-3.608.853-6.545 3.467-7.81 6.953-9.003 24.806-26.199 46.428-48.421 60.884-3.12 2.029-5.002 5.499-5.002 9.221v36.859h-30.416l-3.416-18.449c-1.063-5.734-6.425-9.643-12.2-8.909-5.157.654-10.395.986-15.565.986h-43.052l39.21-97.211c1.477-3.661.879-7.832-1.567-10.93l-43.359-54.929 33.912-81.582h14.856c.31 0 .619.004.929.009l.418.005c5.457.045 10.194-3.933 11.009-9.367 2.558-17.047 17.511-29.902 34.783-29.902h3.164v43.161c0 4.107 2.288 7.873 5.935 9.764 27.405 14.217 48.281 37.984 58.783 66.921 1.265 3.486 4.2 6.1 7.81 6.953l21.763 5.145z"/></g></g><g/><g/><g/><g/><g/><g/><g/><g/><g/><g/><g/><g/><g/><g/><g/></svg>