<svg id="Capa_1" enable-background="new 0 0 512 512" viewBox="0 0 512 512" xmlns="http://www.w3.org/2000/svg" fill="#052438"><g><g><path d="m471.49 429.819-13.915-10.236c.302-2.85.453-5.719.453-8.584s-.151-5.733-.453-8.583l13.915-10.236c4.515-3.321 5.811-9.506 3.008-14.36l-20-34.641c-2.804-4.854-8.811-6.824-13.94-4.575l-15.82 6.932c-4.648-3.398-9.619-6.273-14.87-8.601l-1.906-17.15c-.619-5.57-5.328-9.785-10.933-9.785h-9v-244c0-6.075-4.925-11-11-11h-64v-14c0-6.075-4.925-11-11-11h-50.499c-4.818-17.283-20.703-30-39.502-30s-34.684 12.717-39.502 30h-50.498c-6.075 0-11 4.925-11 11v14h-64c-6.075 0-11 4.925-11 11v390c0 6.075 4.925 11 11 11h245.707l6.824 11.82c2.803 4.854 8.807 6.823 13.941 4.575l15.817-6.931c4.649 3.398 9.62 6.273 14.872 8.601l1.906 17.149c.619 5.57 5.327 9.785 10.933 9.785h39.999c5.604 0 10.313-4.215 10.933-9.785l1.906-17.149c5.25-2.327 10.222-5.202 14.87-8.602l15.82 6.932c5.13 2.247 11.137.28 13.94-4.575l20-34.641c2.804-4.854 1.508-11.038-3.006-14.36zm-338.462-377.819h49c6.075 0 11-4.925 11-11 0-10.477 8.523-19 19-19s19 8.523 19 19c0 6.075 4.925 11 11 11h49v28h-158zm-75 393v-368h53v14c0 6.075 4.925 11 11 11h180c6.075 0 11-4.925 11-11v-14h53v232.999h-9c-5.605 0-10.313 4.215-10.933 9.785l-1.905 17.149c-5.25 2.327-10.221 5.202-14.87 8.602l-15.819-6.932c-5.134-2.247-11.138-.28-13.941 4.575l-20 34.641c-2.803 4.854-1.507 11.039 3.008 14.36l13.914 10.236c-.302 2.851-.453 5.72-.453 8.583 0 2.861.152 5.73.454 8.583l-13.915 10.237c-4.515 3.321-5.811 9.506-3.008 14.36l.474.82h-222.006zm376.897-45.405c.731 3.737 1.103 7.574 1.103 11.404 0 3.831-.371 7.668-1.103 11.405-.818 4.177.848 8.451 4.276 10.974l11.32 8.328-10.154 17.588-12.885-5.646c-3.901-1.709-8.443-1.013-11.652 1.792-5.82 5.087-12.455 8.925-19.72 11.406-4.032 1.377-6.906 4.959-7.377 9.194l-1.551 13.96h-20.308l-1.552-13.959c-.471-4.235-3.345-7.817-7.377-9.194-7.268-2.482-13.902-6.319-19.72-11.404-3.209-2.807-7.749-3.504-11.654-1.794l-12.883 5.646-10.154-17.588 11.321-8.329c3.428-2.521 5.094-6.795 4.277-10.972-.733-3.749-1.105-7.587-1.105-11.406 0-3.826.371-7.664 1.104-11.406.816-4.177-.85-8.45-4.277-10.972l-11.319-8.328 10.154-17.588 12.884 5.646c3.905 1.71 8.444 1.012 11.653-1.792 5.821-5.088 12.456-8.925 19.72-11.406 4.032-1.377 6.906-4.96 7.377-9.194l1.551-13.959h20.309l1.552 13.959c.471 4.234 3.344 7.816 7.376 9.194 7.268 2.483 13.902 6.321 19.72 11.405 3.211 2.806 7.75 3.503 11.653 1.793l12.885-5.646 10.154 17.588-11.32 8.328c-3.43 2.522-5.096 6.796-4.278 10.973z"/><path d="m234.528 340h-134.999c-6.075 0-11 4.925-11 11s4.925 11 11 11h134.999c6.075 0 11-4.925 11-11s-4.925-11-11-11z"/><path d="m167.029 385h-67.5c-6.075 0-11 4.925-11 11s4.925 11 11 11h67.5c6.075 0 11-4.925 11-11s-4.925-11-11-11z"/></g><g fill="#0496FF"><path d="m377.028 375c-19.851 0-36 16.149-36 35.999 0 19.851 16.149 36 36 36s36-16.149 36-36c0-19.85-16.15-35.999-36-35.999zm0 49.999c-7.72 0-14-6.28-14-14 0-7.719 6.28-13.999 14-13.999s14 6.28 14 13.999c0 7.72-6.28 14-14 14z"/><path d="m324.528 134.999h-45c-6.075 0-11 4.925-11 11v129.002h-23v-81c0-6.075-4.925-11-11-11h-45c-6.075 0-11 4.925-11 11v81h-22.999v-53.5c0-6.075-4.925-11-11-11h-45c-6.075 0-11 4.925-11 11v64.5c0 6.075 4.925 11 11 11h224.999c6.075 0 11-4.925 11-11v-140.002c0-6.075-4.925-11-11-11zm-190.999 140.002h-23v-42.5h23zm66.999-70h23v70h-23zm113 70h-23v-118.002h23z"/></g></g><g/><g/><g/><g/><g/><g/><g/><g/><g/><g/><g/><g/><g/><g/><g/></svg>