<svg id="Capa_1" enable-background="new 0 0 512 512" viewBox="0 0 512 512" xmlns="http://www.w3.org/2000/svg" fill="#052438"><g><path d="m261.401.224c-77.58 0-140.696 63.116-140.696 140.697 0 77.58 63.116 140.696 140.696 140.696s140.697-63.117 140.697-140.697-63.117-140.696-140.697-140.696zm0 259.393c-65.449 0-118.696-53.247-118.696-118.696 0-65.45 53.247-118.697 118.696-118.697s118.697 53.247 118.697 118.696c0 65.45-53.247 118.697-118.697 118.697z" fill="#0496FF"/><path d="m489.303 446.458v-222.515c0-6.075-4.925-11-11-11h-56.172c-6.075 0-11 4.925-11 11v243.359h-35.616v-147.974c0-6.075-4.925-11-11-11h-56.171c-6.075 0-11 4.925-11 11v147.975h-35.616v-60.99c0-6.075-4.925-11-11-11h-56.171c-6.075 0-11 4.925-11 11v60.99h-35.537v-179.77c0-6.075-4.925-11-11-11h-56.171c-6.075 0-11 4.925-11 11v179.77h-25.151v-401.761c13.194-4.571 22.698-17.115 22.698-31.844 0-18.581-15.117-33.698-33.698-33.698s-33.698 15.117-33.698 33.698c0 14.73 9.503 27.274 22.698 31.844v20.221h-5.226c-6.075 0-11 4.925-11 11s4.925 11 11 11h5.226v41.59h-5.226c-6.075 0-11 4.925-11 11s4.925 11 11 11h5.226v41.59h-5.226c-6.075 0-11 4.925-11 11s4.925 11 11 11h5.226v41.59h-5.226c-6.075 0-11 4.925-11 11s4.925 11 11 11h5.226v41.59h-5.226c-6.075 0-11 4.925-11 11s4.925 11 11 11h5.226v41.59h-5.226c-6.075 0-11 4.925-11 11s4.925 11 11 11h5.226v41.59h-11.698c-6.075 0-11 4.925-11 11s4.925 11 11 11h11.698v11.697c0 6.075 4.925 11 11 11s11-4.925 11-11v-11.698h41.59v5.226c0 6.075 4.925 11 11 11s11-4.925 11-11v-5.226h41.59v5.226c0 6.075 4.925 11 11 11s11-4.925 11-11v-5.226h41.59v5.226c0 6.075 4.925 11 11 11s11-4.925 11-11v-5.226h41.589v5.226c0 6.075 4.925 11 11 11s11-4.925 11-11v-5.226h41.59v5.226c0 6.075 4.925 11 11 11s11-4.925 11-11v-5.226h41.59v5.226c0 6.075 4.925 11 11 11s11-4.925 11-11v-5.226h20.221c4.571 13.195 17.115 22.698 31.845 22.698 18.581 0 33.697-15.117 33.697-33.698 0-14.729-9.503-27.273-22.697-31.844zm-455.605-424.458c6.45 0 11.698 5.248 11.698 11.698s-5.248 11.698-11.698 11.698-11.698-5.248-11.698-11.698 5.248-11.698 11.698-11.698zm399.433 212.943h34.172v211.515c-9.744 3.376-17.469 11.1-20.845 20.844h-13.327zm-113.787 95.385h34.171v136.975h-34.171zm-113.787 86.984h34.171v49.99h-34.171zm-113.708-118.779h34.171v168.77h-34.171zm386.454 191.467c-6.45 0-11.698-5.248-11.698-11.698s5.248-11.698 11.698-11.698 11.697 5.248 11.697 11.698-5.247 11.698-11.697 11.698z"/><path d="m277.379 130.947c-4.821-2.071-8.945-3.566-12.584-4.885-7.086-2.567-11.363-4.118-15.448-7.845-2.617-2.388-3.643-6.506-2.678-10.748.496-2.178 2.31-7.445 8.436-9.288 12.586-3.79 20.967 3.231 20.967 3.231 4.569 4.29 11.92 3.775 15.903-1.048 3.763-4.527 3.268-11.17-1.015-15.112l.009-.01c-3.581-3.299-10.261-7.376-18.982-9.216v-6.875c0-6.075-4.925-11-11-11s-11 4.925-11 11v7.62c-.406.111-.811.219-1.221.342-11.933 3.591-20.736 13.114-23.548 25.474-2.719 11.948.845 24.163 9.299 31.878 7.312 6.673 14.481 9.271 22.782 12.279 3.521 1.276 7.162 2.595 11.396 4.414 12.513 5.376 11.402 16.087 10.765 19.242-1.365 6.751-7.042 14.662-18.546 14.738-10.979.08-14.443-.472-22.915-6.008-5.086-3.323-11.902-1.895-15.226 3.191-3.323 5.085-1.894 11.902 3.191 15.226 9.105 5.95 15.8 8.328 24.022 9.176v5.964c0 6.075 4.925 11 11 11s11-4.925 11-11v-7.035c14.622-3.973 25.943-15.596 29.036-30.889 3.747-18.522-5.755-36.13-23.643-43.816z" fill="#0496FF"/></g><g/><g/><g/><g/><g/><g/><g/><g/><g/><g/><g/><g/><g/><g/><g/></svg>