<svg id="Capa_1" enable-background="new 0 0 512 512" viewBox="0 0 512 512" xmlns="http://www.w3.org/2000/svg" fill="#E6ECF2"><g><g><path d="m486.376 427.346h-5.371v-268.829c0-18.01-14.655-32.662-32.668-32.662h-215.057c-6.075 0-11 4.925-11 11s4.925 11 11 11h215.057c5.883 0 10.668 4.783 10.668 10.662v268.829h-406.01v-228.944c0-6.075-4.925-11-11-11s-11 4.925-11 11v228.944h-5.371c-14.129 0-25.624 11.495-25.624 25.625 0 32.549 26.48 59.029 59.029 59.029h393.941c32.55 0 59.03-26.48 59.03-59.029 0-14.13-11.495-25.625-25.624-25.625zm-33.405 62.654h-393.942c-20.418 0-37.029-16.611-37.029-37.029 0-1.999 1.626-3.625 3.624-3.625h460.752c1.998 0 3.624 1.626 3.624 3.625 0 20.418-16.611 37.029-37.029 37.029z"/><path d="m120.826 322.861h45.174c2.917 0 5.715-1.159 7.777-3.221l105.707-105.683 53.987 53.975c4.245 4.243 11.109 4.302 15.424.128l30.516-29.511v6.05c0 6.075 4.925 11 11 11s11-4.925 11-11v-33.634c0-6.075-4.925-11-11-11h-32.183c-6.075 0-11 4.925-11 11s4.925 11 11 11h6.685l-23.537 22.761-54.115-54.103c-4.295-4.294-11.26-4.294-15.555 0l-110.262 110.238h-40.618c-6.075 0-11 4.925-11 11s4.925 11 11 11z"/></g><g fill="#0496FF"><path d="m241.642 120.246c0-66.304-54.006-120.246-120.389-120.246-66.382 0-120.388 53.942-120.388 120.246s54.006 120.246 120.388 120.246c66.383 0 120.389-53.943 120.389-120.246zm-218.777 0c0-54.173 44.137-98.246 98.388-98.246 54.252 0 98.389 44.073 98.389 98.246s-44.137 98.246-98.389 98.246c-54.251 0-98.388-44.073-98.388-98.246z"/><path d="m391.174 371.419h-38.516v-59.558c0-6.075-4.925-11-11-11s-11 4.925-11 11v59.558h-40.228v-106.902c0-6.075-4.925-11-11-11s-11 4.925-11 11v106.902h-36v-51.231c0-6.075-4.925-11-11-11s-11 4.925-11 11v51.231h-35.032v-18.122c0-6.075-4.925-11-11-11s-11 4.925-11 11v18.122h-32.571c-6.075 0-11 4.925-11 11s4.925 11 11 11h270.348c6.075 0 11-4.925 11-11s-4.926-11-11.001-11z"/><path d="m133.228 110.24c-3.735-1.604-6.908-2.754-9.709-3.769-5.646-2.046-8.254-3.051-10.861-5.43-1.269-1.157-1.755-3.367-1.24-5.629.34-1.497 1.391-4.151 4.599-5.116 7.958-2.395 13.382 1.877 13.382 1.877l.002.002c4.469 4.115 11.428 3.828 15.543-.641 4.114-4.469 3.828-11.426-.639-15.541-2.668-2.457-7.413-5.441-13.577-7.123v-3.163c0-6.075-4.925-11-11-11s-11 4.925-11 11v3.843c-9.504 3.216-16.487 10.983-18.762 20.983-2.276 10.004.737 20.259 7.864 26.762 5.944 5.424 11.896 7.58 18.196 9.863 2.641.957 5.372 1.946 8.519 3.298 7.472 3.209 7.131 9.231 6.638 11.671-.842 4.161-4.365 9.037-11.528 9.084-7.967.049-10.046-.273-15.958-4.136-5.088-3.324-11.902-1.893-15.226 3.193-3.322 5.086-1.894 11.902 3.192 15.225 6.49 4.24 11.446 6.222 17.064 7.096v2.198c0 6.075 4.925 11 11 11s11-4.925 11-11v-3.391c11.115-3.737 19.603-12.965 22.019-24.909 3.1-15.334-4.744-29.9-19.518-36.247z"/></g></g><g/><g/><g/><g/><g/><g/><g/><g/><g/><g/><g/><g/><g/><g/><g/></svg>