<svg id="Capa_1" enable-background="new 0 0 512 512" viewBox="0 0 512 512" xmlns="http://www.w3.org/2000/svg" fill="#E6ECF2"><g><g><path d="m501 31.658h-490c-6.075 0-11 4.925-11 11v414.749c0 6.075 4.925 11 11 11h16.009v32.593c0 6.075 4.925 11 11 11h128.774c6.075 0 11-4.925 11-11s-4.925-11-11-11h-117.774v-21.594h103.419c6.075 0 11-4.925 11-11s-4.925-11-11-11h-130.428v-315.037h468v315.038h-130.428c-6.075 0-11 4.925-11 11s4.925 11 11 11h103.419v21.593h-117.354c-6.075 0-11 4.925-11 11s4.925 11 11 11h128.354c6.075 0 11-4.925 11-11v-32.594h16.009c6.075 0 11-4.925 11-11v-414.748c0-6.075-4.925-11-11-11zm-479 77.711v-55.711h468v55.711z"/><path d="m86.147 378.983c6.075 0 11-4.925 11-11v-129.991l6.636 6.65c4.292 4.301 11.256 4.308 15.556.016s4.308-11.256.016-15.556l-25.158-25.21c-2.086-2.091-4.922-3.27-7.879-3.229-2.953.025-5.772 1.236-7.823 3.362l-25.687 26.622c-4.218 4.372-4.094 11.335.278 15.554 2.135 2.06 4.887 3.084 7.637 3.084 2.881 0 5.759-1.125 7.917-3.362l6.506-6.743v128.805c.001 6.073 4.926 10.998 11.001 10.998z"/><path d="m425.853 378.983c6.075 0 11-4.925 11-11v-129.991l6.636 6.65c4.292 4.301 11.256 4.308 15.556.016s4.308-11.256.016-15.556l-25.158-25.21c-2.086-2.091-4.961-3.27-7.879-3.229-2.953.025-5.772 1.236-7.823 3.362l-25.687 26.622c-4.218 4.372-4.094 11.335.278 15.554 2.135 2.06 4.887 3.084 7.637 3.084 2.881 0 5.759-1.125 7.917-3.362l6.506-6.743v128.805c.001 6.073 4.925 10.998 11.001 10.998z"/></g><g fill="#0496FF"><path d="m142 11c0-6.075-4.925-11-11-11s-11 4.925-11 11v64.317c0 6.075 4.925 11 11 11s11-4.925 11-11z"/><path d="m81 0c-6.075 0-11 4.925-11 11v64.317c0 6.075 4.925 11 11 11s11-4.925 11-11v-64.317c0-6.075-4.925-11-11-11z"/><path d="m381 0c-6.075 0-11 4.925-11 11v64.317c0 6.075 4.925 11 11 11s11-4.925 11-11v-64.317c0-6.075-4.925-11-11-11z"/><path d="m431 0c-6.075 0-11 4.925-11 11v64.317c0 6.075 4.925 11 11 11s11-4.925 11-11v-64.317c0-6.075-4.925-11-11-11z"/><path d="m370.572 288.498c0-63.23-51.396-114.672-114.572-114.672s-114.572 51.442-114.572 114.672c0 38.036 18.603 71.799 47.175 92.672h-17.505c-16.36 0-29.67 13.311-29.67 29.671v17.073c0 7.07 2.49 13.568 6.633 18.671-4.143 5.103-6.633 11.6-6.633 18.671v17.073c0 16.361 13.31 29.671 29.67 29.671h169.803c16.36 0 29.67-13.31 29.67-29.671v-17.073c0-7.07-2.49-13.568-6.633-18.671 4.143-5.103 6.633-11.6 6.633-18.671v-17.073c0-16.36-13.31-29.671-29.67-29.671h-17.505c28.573-20.873 47.176-54.636 47.176-92.672zm-22 193.831c0 4.158-3.513 7.671-7.67 7.671h-169.803c-4.158 0-7.67-3.513-7.67-7.671v-17.073c0-4.158 3.513-7.67 7.67-7.67h169.803c4.158 0 7.67 3.513 7.67 7.67zm-7.671-79.159c4.158 0 7.67 3.513 7.67 7.671v17.073c0 4.158-3.513 7.671-7.67 7.671h-169.802c-4.158 0-7.67-3.513-7.67-7.671v-17.073c0-4.158 3.513-7.671 7.67-7.671zm-177.473-114.672c0-51.1 41.527-92.672 92.572-92.672s92.572 41.573 92.572 92.672-41.528 92.672-92.572 92.672-92.572-41.572-92.572-92.672z"/><path d="m267.576 278.491c-3.552-1.529-6.565-2.623-9.223-3.588-5.271-1.914-7.702-2.852-10.089-5.035-1.042-.953-1.445-2.89-1.005-4.822.296-1.3 1.204-3.604 3.958-4.434 7.206-2.173 12.091 1.65 12.091 1.65l.008-.009c4.517 4.235 11.727 3.81 15.765-.869 3.903-4.503 3.491-11.266-.859-15.279l.008-.009c-2.82-2.514-6.901-5.091-12.675-6.776v-2.581c0-6.075-4.925-11-11-11s-11 4.925-11 11v3.25c-8.985 3.193-15.574 10.634-17.747 20.168-2.208 9.691.708 19.632 7.609 25.942 5.715 5.227 11.404 7.292 17.427 9.479 2.492.905 5.069 1.84 8.032 3.116 6.699 2.884 6.391 8.28 5.948 10.466-.793 3.916-3.927 8.114-10.344 8.157-7.501.049-9.28-.229-14.776-3.828-5.083-3.328-11.9-1.905-15.229 3.177-3.328 5.083-1.906 11.9 3.177 15.229 5.982 3.917 10.707 5.841 15.901 6.731v1.625c0 6.075 4.925 11 11 11s11-4.925 11-11v-2.819c10.516-3.691 18.525-12.52 20.832-23.903 3.005-14.818-4.554-28.901-18.809-35.038z"/></g></g><g/><g/><g/><g/><g/><g/><g/><g/><g/><g/><g/><g/><g/><g/><g/></svg>