<svg id="Capa_1" enable-background="new 0 0 512 512" viewBox="0 0 512 512" xmlns="http://www.w3.org/2000/svg" fill="#052438"><g><g><path d="m382.692 0h-267.418c-40.737 0-73.88 33.143-73.88 73.88v364.199c0 40.737 33.143 73.88 73.88 73.88h160.618c6.075 0 11-4.925 11-11s-4.925-11-11-11h-160.618c-28.606 0-51.88-23.273-51.88-51.88v-364.199c0-28.606 23.273-51.88 51.88-51.88h267.418c28.606 0 51.88 23.273 51.88 51.88v175.821c0 6.075 4.925 11 11 11s11-4.925 11-11v-175.821c0-40.737-33.142-73.88-73.88-73.88z"/><path d="m379.739 56.079h-261.511c-13.233 0-24 10.766-24 24v77.775c0 6.075 4.925 11 11 11h287.512c6.075 0 11-4.925 11-11v-77.775c-.001-13.234-10.767-24-24.001-24zm2 90.775h-265.511v-66.775c0-1.103.897-2 2-2h261.512c1.103 0 2 .897 2 2v66.775z"/><path d="m177.489 232.692c0-13.87-11.284-25.154-25.154-25.154h-32.953c-13.87 0-25.154 11.284-25.154 25.154v17.333c0 13.87 11.284 25.154 25.154 25.154h32.953c13.87 0 25.154-11.284 25.154-25.154zm-22 17.333c0 1.739-1.415 3.154-3.154 3.154h-32.953c-1.739 0-3.154-1.415-3.154-3.154v-17.333c0-1.739 1.415-3.154 3.154-3.154h32.953c1.739 0 3.154 1.415 3.154 3.154z"/><path d="m177.489 323.862c0-13.87-11.284-25.154-25.154-25.154h-32.953c-13.87 0-25.154 11.284-25.154 25.154v17.333c0 13.87 11.284 25.154 25.154 25.154h32.953c13.87 0 25.154-11.284 25.154-25.154zm-22 17.334c0 1.739-1.415 3.154-3.154 3.154h-32.953c-1.739 0-3.154-1.415-3.154-3.154v-17.333c0-1.739 1.415-3.154 3.154-3.154h32.953c1.739 0 3.154 1.415 3.154 3.154z"/><path d="m152.335 389.879h-32.953c-13.87 0-25.154 11.284-25.154 25.154v17.333c0 13.87 11.284 25.154 25.154 25.154h32.953c13.87 0 25.154-11.284 25.154-25.154v-17.333c0-13.87-11.284-25.154-25.154-25.154zm3.154 42.488c0 1.739-1.415 3.154-3.154 3.154h-32.953c-1.739 0-3.154-1.415-3.154-3.154v-17.333c0-1.739 1.415-3.154 3.154-3.154h32.953c1.739 0 3.154 1.415 3.154 3.154z"/><path d="m265.46 207.538h-32.953c-13.87 0-25.154 11.284-25.154 25.154v17.333c0 13.87 11.284 25.154 25.154 25.154h38.404c6.075 0 19.703-27.772 19.703-27.772v-14.716c0-13.869-11.284-25.153-25.154-25.153zm-32.953 45.642c-1.739 0-3.154-1.415-3.154-3.154v-17.333c0-1.739 1.415-3.154 3.154-3.154h32.953c1.739 0 3.154 1.415 3.154 3.154v20.488h-36.107z"/><path d="m283.999 358.197c4.106-4.477 3.806-11.436-.671-15.542-4.479-4.106-11.436-3.806-15.542.671-.351.382-1.119 1.024-2.326 1.024h-32.953c-1.739 0-3.154-1.415-3.154-3.154v-17.333c0-1.739 1.415-3.154 3.154-3.154h32.104c6.075 0 11-4.925 11-11s-4.925-11-11-11h-32.104c-13.87 0-25.154 11.284-25.154 25.154v17.333c0 13.87 11.284 25.154 25.154 25.154h32.953c7.029 0 13.786-2.972 18.539-8.153z"/><path d="m232.507 411.879h32.953c.431 0 .843.082 1.225.243 5.592 2.367 12.048-.25 14.416-5.845 2.367-5.595-.25-12.05-5.846-14.417-3.107-1.315-6.403-1.981-9.795-1.981h-32.953c-13.87 0-25.154 11.284-25.154 25.154v17.333c0 13.87 11.284 25.154 25.154 25.154h32.953c2.758 0 5.473-.446 8.07-1.326 5.755-1.949 8.839-8.193 6.891-13.947-1.949-5.754-8.196-8.84-13.947-6.89-.32.108-.661.163-1.014.163h-32.953c-1.739 0-3.154-1.415-3.154-3.154v-17.333c0-1.739 1.415-3.154 3.154-3.154z"/></g><g fill="#0496FF"><path d="m440.935 387.762h-13.38c26.137-19.81 43.051-51.163 43.051-86.393 0-59.768-48.672-108.393-108.497-108.393-59.826 0-108.498 48.625-108.498 108.393 0 35.229 16.914 66.582 43.051 86.393h-13.38c-16.36 0-29.671 13.311-29.671 29.671v13.777c0 7.07 2.49 13.568 6.633 18.671-4.144 5.103-6.633 11.6-6.633 18.671v13.777c0 16.36 13.311 29.671 29.671 29.671h157.653c16.36 0 29.671-13.311 29.671-29.671v-13.777c0-7.07-2.49-13.568-6.633-18.671 4.144-5.103 6.633-11.601 6.633-18.671v-13.777c-.001-16.36-13.311-29.671-29.671-29.671zm-165.325-86.392c0-47.637 38.803-86.393 86.498-86.393 47.694 0 86.497 38.755 86.497 86.393s-38.803 86.393-86.497 86.393c-47.695-.001-86.498-38.756-86.498-86.393zm0 116.063c0-4.158 3.513-7.671 7.671-7.671h157.653c4.229 0 7.671 3.441 7.671 7.671v13.777c0 4.23-3.441 7.671-7.671 7.671h-157.653c-4.158 0-7.671-3.513-7.671-7.671zm172.995 64.896c0 4.23-3.441 7.671-7.671 7.671h-157.653c-4.158 0-7.671-3.513-7.671-7.671v-13.777c0-4.158 3.513-7.67 7.671-7.67h157.653c4.229 0 7.671 3.441 7.671 7.67z"/><path d="m373.254 291.354c-3.361-1.444-6.207-2.476-8.719-3.385-4.878-1.768-7.126-2.632-9.282-4.6-.794-.724-1.101-2.317-.746-3.874.246-1.081.999-2.997 3.278-3.683 6.434-1.935 10.772 1.408 10.772 1.408l.006-.006c4.497 4.189 11.615 3.811 15.68-.788 3.982-4.493 3.612-11.33-.785-15.38l.006-.006c-2.577-2.307-6.402-4.739-11.717-6.364v-1.928c0-6.075-4.925-11-11-11s-11 4.925-11 11v2.57c-8.456 3.159-14.635 10.255-16.692 19.296-2.124 9.337.699 18.918 7.368 25.004 5.475 4.996 10.888 6.958 16.618 9.034 2.337.847 4.755 1.723 7.527 2.915 5.646 2.426 5.691 6.726 5.217 9.074-.693 3.427-3.45 7.103-9.111 7.141-6.888.042-8.533-.208-13.561-3.493-5.087-3.323-11.903-1.894-15.225 3.191-3.323 5.086-1.895 11.902 3.191 15.226 5.516 3.604 9.912 5.432 14.667 6.319v.968c0 6.075 4.925 11 11 11s11-4.925 11-11v-2.173c9.904-3.632 17.42-12.032 19.602-22.817 2.881-14.24-4.391-27.762-18.094-33.649z"/></g></g><g/><g/><g/><g/><g/><g/><g/><g/><g/><g/><g/><g/><g/><g/><g/></svg>