<svg id="Layer_1" enable-background="new 0 0 512 512" viewBox="0 0 512 512" xmlns="http://www.w3.org/2000/svg" fill="#E6ECF2"><g><g><path d="m125.379 460.614h-22v-118.31h22zm0-295.774h-22v-118.31h22z" fill="#0496FF"/></g><g><path d="m138.014 471.614h-18.705c-54.776 0-84.943-30.167-84.943-84.943v-266.197c0-54.777 30.167-84.944 84.943-84.944h18.705c14.22 0 25.788 11.569 25.788 25.789v88.733c0 14.22-11.568 25.788-25.788 25.788h-18.705c-10.244 0-18.577 8.333-18.577 18.577v118.309c0 10.244 8.334 18.578 18.577 18.578h18.705c14.22 0 25.788 11.569 25.788 25.789v88.733c0 14.219-11.568 25.788-25.788 25.788zm-18.705-414.084c-21.264 0-37.243 5.198-47.495 15.449-10.251 10.251-15.448 26.231-15.448 47.495v266.196c0 21.264 5.198 37.244 15.449 47.495s26.23 15.449 47.495 15.449h18.705c2.053 0 3.788-1.735 3.788-3.788v-88.733c0-2.054-1.735-3.789-3.788-3.789h-18.705c-22.374 0-40.577-18.203-40.577-40.578v-118.309c0-22.374 18.203-40.577 40.577-40.577h18.705c2.053 0 3.788-1.735 3.788-3.788v-88.733c0-2.054-1.735-3.789-3.788-3.789z"/></g><g><path d="m374.075 456.275c-1.625 0-3.257-.359-4.773-1.09l-24.833-11.963-24.833 11.963c-3.647 1.757-7.964 1.368-11.24-1.011-3.275-2.38-4.978-6.366-4.435-10.377l3.704-27.315-19.051-19.92c-2.798-2.926-3.763-7.152-2.512-11.002s4.516-6.702 8.499-7.425l27.121-4.918 13.06-24.275c1.918-3.565 5.639-5.789 9.687-5.789s7.77 2.224 9.687 5.789l13.059 24.275 27.121 4.918c3.983.723 7.248 3.575 8.499 7.425s.286 8.076-2.512 11.002l-19.051 19.92 3.705 27.315c.544 4.011-1.16 7.997-4.435 10.377-1.914 1.391-4.184 2.101-6.467 2.101zm-55.428-60.142 8.581 8.972c2.315 2.42 3.4 5.763 2.951 9.081l-1.668 12.304 11.185-5.389c3.017-1.453 6.531-1.453 9.548 0l11.184 5.388-1.668-12.303c-.45-3.318.636-6.661 2.951-9.082l8.581-8.973-12.215-2.215c-3.295-.597-6.138-2.663-7.724-5.612l-5.882-10.935-5.883 10.935c-1.586 2.949-4.429 5.015-7.724 5.612zm55.428-83.572c-1.625 0-3.257-.359-4.773-1.09l-24.833-11.963-24.833 11.963c-3.647 1.756-7.964 1.368-11.24-1.011-3.275-2.38-4.978-6.366-4.435-10.377l3.704-27.315-19.051-19.92c-2.798-2.926-3.763-7.152-2.512-11.002s4.516-6.702 8.499-7.424l27.121-4.919 13.06-24.275c1.918-3.565 5.639-5.788 9.687-5.788 4.048 0 7.77 2.224 9.687 5.788l13.059 24.275 27.121 4.919c3.983.722 7.248 3.574 8.499 7.424s.286 8.076-2.512 11.002l-19.051 19.92 3.705 27.315c.544 4.011-1.16 7.998-4.435 10.377-1.914 1.391-4.184 2.101-6.467 2.101zm-55.428-60.142 8.581 8.972c2.315 2.42 3.4 5.763 2.951 9.081l-1.668 12.304 11.185-5.389c3.017-1.453 6.531-1.453 9.548 0l11.184 5.388-1.668-12.303c-.45-3.318.636-6.661 2.951-9.081l8.581-8.972-12.215-2.216c-3.295-.597-6.138-2.663-7.724-5.612l-5.882-10.935-5.883 10.935c-1.586 2.949-4.429 5.015-7.724 5.612zm55.428-83.572c-1.625 0-3.257-.359-4.773-1.09l-24.833-11.963-24.833 11.963c-3.647 1.755-7.964 1.369-11.24-1.011-3.275-2.379-4.978-6.365-4.435-10.377l3.704-27.315-19.051-19.919c-2.798-2.926-3.763-7.152-2.512-11.002s4.516-6.702 8.499-7.424l27.122-4.919 13.06-24.275c1.918-3.565 5.639-5.789 9.687-5.789s7.77 2.224 9.687 5.789l13.059 24.275 27.121 4.919c3.983.722 7.248 3.574 8.499 7.424 1.25 3.85.286 8.076-2.512 11.002l-19.051 19.919 3.705 27.315c.544 4.012-1.16 7.998-4.435 10.377-1.915 1.391-4.184 2.101-6.468 2.101zm-55.428-60.141 8.581 8.972c2.315 2.42 3.4 5.763 2.951 9.081l-1.668 12.304 11.185-5.389c3.017-1.453 6.531-1.453 9.548 0l11.184 5.388-1.668-12.303c-.45-3.318.636-6.661 2.951-9.081l8.581-8.972-12.215-2.216c-3.295-.598-6.138-2.663-7.724-5.612l-5.882-10.935-5.883 10.935c-1.586 2.949-4.429 5.014-7.724 5.612z" fill="#0496FF"/></g><g><path d="m437.058 512h-192.255c-22.375 0-40.577-18.203-40.577-40.578v-161.643l-46.002-46.001c-2.063-2.063-3.222-4.861-3.222-7.778s1.159-5.715 3.222-7.778l46.002-46.001v-161.643c0-22.375 18.203-40.578 40.577-40.578h192.254c22.374 0 40.577 18.203 40.577 40.578v430.845c0 22.374-18.202 40.577-40.576 40.577zm-255.499-256 41.446 41.445c2.062 2.063 3.222 4.861 3.222 7.778v166.199c0 10.244 8.333 18.578 18.577 18.578h192.254c10.243 0 18.577-8.334 18.577-18.578v-430.844c0-10.244-8.333-18.578-18.577-18.578h-192.255c-10.244 0-18.577 8.334-18.577 18.578v166.199c0 2.917-1.159 5.715-3.222 7.778z"/></g></g><g/><g/><g/><g/><g/><g/><g/><g/><g/><g/><g/><g/><g/><g/><g/></svg>