<svg id="Layer_1" enable-background="new 0 0 512 512" viewBox="0 0 512 512" xmlns="http://www.w3.org/2000/svg" fill="#052438"><g><g><g><path d="m501 413.574h-3.79v-255.33c0-14.22-11.57-25.79-25.79-25.79h-59.97v22h59.97c2.06 0 3.79 1.73 3.79 3.79v255.33h-182.24c-4.25 0-8.12 2.45-9.94 6.3l-4.42 9.34h-45.22l-4.42-9.34c-1.82-3.85-5.69-6.3-9.94-6.3h-182.24v-255.33c0-2.06 1.73-3.79 3.79-3.79h59.97v-22h-59.97c-14.22 0-25.79 11.57-25.79 25.79v255.33h-3.79c-6.08 0-11 4.93-11 11v29.58c0 22.37 18.2 40.58 40.58 40.58h430.84c22.38 0 40.58-18.21 40.58-40.58v-29.58c0-6.07-4.92-11-11-11zm-11 40.58c0 10.24-8.33 18.58-18.58 18.58h-430.84c-10.25 0-18.58-8.34-18.58-18.58v-18.58h190.06l4.42 9.34c1.82 3.84 5.69 6.3 9.94 6.3h59.16c4.25 0 8.12-2.46 9.94-6.3l4.42-9.34h190.06z"/></g><g><path d="m373.14 78.863h-14.789c-6.075 0-11-4.925-11-11s4.925-11 11-11h14.789c6.075 0 11 4.925 11 11s-4.925 11-11 11z"/></g><g><path d="m300.366 391.662h-88.732c-6.075 0-11-4.925-11-11s4.925-11 11-11h88.732c6.075 0 11 4.925 11 11s-4.925 11-11 11zm0-38.481h-88.732c-6.075 0-11-4.925-11-11s4.925-11 11-11h88.732c6.075 0 11 4.925 11 11s-4.925 11-11 11z" fill="#0496FF"/></g></g><g><path d="m256 314.475c-3.252 0-6.338-1.439-8.429-3.932l-34.787-41.487h-85.196c-20.972 0-38.034-17.062-38.034-38.034v-175.722c0-20.972 17.062-38.034 38.034-38.034h256.824c20.972 0 38.034 17.062 38.034 38.034v175.722c0 20.972-17.062 38.034-38.034 38.034l-85.963.058-33.948 41.342c-2.076 2.529-5.172 4.003-8.444 4.019-.019 0-.038 0-.057 0zm-128.412-275.209c-8.841 0-16.034 7.193-16.034 16.034v175.722c0 8.841 7.193 16.034 16.034 16.034h90.328c3.253 0 6.339 1.44 8.429 3.932l29.566 35.261 28.833-35.113c2.088-2.542 5.204-4.017 8.494-4.019l91.166-.061c8.849 0 16.042-7.193 16.042-16.034v-175.722c0-8.841-7.193-16.034-16.034-16.034z" fill="#0496FF"/></g><g><g><path d="m226.951 105.426c1.623-4.262 5.707-7.08 10.268-7.085l2.85-.003h.012c4.577 0 8.675 2.833 10.291 7.116l25.29 67.011c2.146 5.684-.724 12.031-6.407 14.176-1.278.483-2.592.711-3.882.711-4.445 0-8.631-2.714-10.293-7.119l-3.613-9.572h-25.819l-3.658 9.604c-2.162 5.678-8.519 8.527-14.194 6.364-5.678-2.162-8.527-8.518-6.364-14.195zm7.074 43.235h9.138l-4.548-12.051z"/></g><g><path d="m326.729 184.068c-24.308 0-44.084-19.776-44.084-44.085 0-24.308 19.776-44.084 44.084-44.084s44.084 19.776 44.084 44.084c0 7.875-2.057 15.447-5.914 22.09l2.948 2.948c4.296 4.296 4.296 11.26 0 15.556-4.295 4.296-11.26 4.296-15.557 0l-2.81-2.81c-6.791 4.109-14.596 6.301-22.751 6.301zm0-66.168c-12.177 0-22.084 9.907-22.084 22.084 0 12.178 9.907 22.085 22.084 22.085 2.123 0 4.199-.297 6.181-.87l-1.787-1.787c-4.296-4.296-4.296-11.26 0-15.556 4.295-4.296 11.26-4.296 15.557 0l1.483 1.483c.43-1.731.65-3.526.65-5.354.001-12.179-9.907-22.085-22.084-22.085z"/></g><g><path d="m201.75 109.334c0 6.08-4.92 11-11 11h-27.82v16.83h16.4c6.07 0 11 4.92 11 11 0 6.07-4.93 11-11 11h-16.4v17.19c0 6.07-4.92 11-11 11-6.07 0-11-4.93-11-11v-67.02c0-6.07 4.93-11 11-11h38.82c6.08 0 11 4.93 11 11z"/></g></g></g><g/><g/><g/><g/><g/><g/><g/><g/><g/><g/><g/><g/><g/><g/><g/></svg>