<svg id="Layer_1" enable-background="new 0 0 512 512" viewBox="0 0 512 512" xmlns="http://www.w3.org/2000/svg" fill="#052438"><g><g><g><path d="m499.98 22.36h-60.99v22h49.99v374.48h-192.32c-11.03 0-21.26 3.47-29.66 9.38v-354.19c0-16.36 13.31-29.67 29.66-29.67h81.33v-22h-81.33c-16.49 0-31.2 7.77-40.66 19.84-9.46-12.07-24.17-19.84-40.66-19.84h-203.32c-6.08 0-11 4.93-11 11v396.48c0 6.07 4.92 11 11 11h9.33v60.16c0 6.08 4.92 11 11 11h447.3c6.08 0 11-4.92 11-11v-60.16h9.33c6.08 0 11-4.93 11-11v-396.48c0-6.07-4.92-11-11-11zm-254.98 467.64h-201.65v-49.16h171.99c16.35 0 29.66 13.31 29.66 29.66zm0-61.78c-8.4-5.91-18.63-9.38-29.66-9.38h-192.32v-374.48h192.32c16.35 0 29.66 13.31 29.66 29.67zm223.65 61.78h-201.65v-19.5c0-16.35 13.31-29.66 29.66-29.66h171.99z"/></g><g><path d="m195.004 93.501h-121.991c-6.075 0-11-4.925-11-11s4.925-11 11-11h121.991c6.075 0 11 4.925 11 11s-4.925 11-11 11z" fill="#0496FF"/></g><g><path d="m195.004 162.968h-121.991c-6.075 0-11-4.925-11-11s4.925-11 11-11h121.991c6.075 0 11 4.925 11 11 0 6.076-4.925 11-11 11z"/></g><g><path d="m195.004 232.436h-121.991c-6.075 0-11-4.925-11-11s4.925-11 11-11h121.991c6.075 0 11 4.925 11 11s-4.925 11-11 11z" fill="#0496FF"/></g><g><path d="m195.004 301.903h-121.991c-6.075 0-11-4.925-11-11s4.925-11 11-11h121.991c6.075 0 11 4.925 11 11s-4.925 11-11 11z"/></g><g><path d="m195.004 371.371h-121.991c-6.075 0-11-4.925-11-11s4.925-11 11-11h121.991c6.075 0 11 4.925 11 11s-4.925 11-11 11z" fill="#0496FF"/></g><g><g><g><g><path d="m377.991 336.508c-6.075 0-11-4.925-11-11v-49.693c0-6.075 4.925-11 11-11 10.108 0 19.514-4.044 26.485-11.386 6.966-7.337 10.512-16.959 9.985-27.093-.985-18.994-16.672-34.173-35.712-34.556-18.531-.388-34.375 13.129-36.927 31.406-.234 1.679-.354 3.396-.354 5.108 0 6.075-4.925 11-11 11s-11-4.925-11-11c0-2.727.19-5.469.565-8.151 4.091-29.305 29.492-50.959 59.159-50.359 30.516.615 55.658 24.954 57.239 55.411.842 16.219-4.841 31.626-16.002 43.381-8.59 9.048-19.49 14.968-31.439 17.219v39.712c.001 6.076-4.924 11.001-10.999 11.001z" fill="#0496FF"/></g></g></g></g><g><path d="m438.988 125.693c-2.135 0-4.262-.62-6.103-1.847l-24.396-16.264-24.395 16.264c-3.375 2.25-7.715 2.461-11.292.546-3.577-1.914-5.81-5.642-5.81-9.699v-103.693c0-6.075 4.925-11 11-11h60.995c6.075 0 11 4.925 11 11v103.693c0 4.057-2.232 7.784-5.81 9.699-1.625.869-3.409 1.301-5.189 1.301zm-30.499-42.332c2.127 0 4.254.616 6.102 1.847l13.397 8.931v-72.139h-38.995v72.139l13.396-8.93c1.846-1.232 3.973-1.848 6.1-1.848z" fill="#0496FF"/></g></g><g><path d="m377.99 379.84c-12.922.313-14.888-19.563-2.15-21.78 15.576-2.788 17.949 21.489 2.15 21.78z" fill="#0496FF"/></g></g><g/><g/><g/><g/><g/><g/><g/><g/><g/><g/><g/><g/><g/><g/><g/></svg>