<svg id="Layer_1" enable-background="new 0 0 512 512" viewBox="0 0 512 512" xmlns="http://www.w3.org/2000/svg" fill="#052438"><g><g><g><path d="m297.667 225.32c-2.869 0-5.681-1.123-7.78-3.222-3.011-3.011-4.014-7.49-2.574-11.497l14.775-41.13c-10.105-17.246-15.423-36.771-15.423-56.81 0-62.122 50.539-112.661 112.659-112.661 62.121 0 112.66 50.539 112.66 112.66s-50.539 112.66-112.66 112.66c-20.039 0-39.564-5.317-56.81-15.424l-41.131 14.776c-1.213.436-2.47.648-3.716.648zm46.121-38.571c2.113 0 4.209.609 6.022 1.794 14.78 9.666 31.902 14.776 49.515 14.776 49.99 0 90.66-40.67 90.66-90.66s-40.671-90.659-90.661-90.659c-49.989 0-90.659 40.67-90.659 90.66 0 17.613 5.109 34.735 14.775 49.515 1.889 2.887 2.312 6.493 1.146 9.74l-8.681 24.164 24.164-8.681c1.209-.435 2.467-.649 3.719-.649z" fill="#0496FF"/></g><g><g><g><path d="m400.78 512h-257.638c-6.075 0-11-4.925-11-11s4.925-11 11-11h257.638c14.613 0 23.738-9.459 27.405-18.312s3.903-21.994-6.431-32.327l-39.272-39.274c-4.296-4.296-4.296-11.26 0-15.556s11.261-4.295 15.557 0l39.272 39.273c15.057 15.056 19.348 36.63 11.199 56.303-8.148 19.672-26.437 31.893-47.73 31.893z" fill="#0496FF"/></g><g><path d="m330.645 437.509c-13.68 0-27.393-3.889-39.346-11.853-111.273-74.145-205.287-168.159-279.431-279.432-18.807-28.225-14.891-66.278 9.311-90.48l44.534-44.534c12.217-12.216 32.094-12.216 44.311 0l71.884 71.884c5.918 5.918 9.177 13.786 9.177 22.155s-3.259 16.237-9.177 22.155l-30.605 30.606c26.766 58.364 69.849 101.446 128.213 128.212l30.605-30.605c12.217-12.216 32.094-12.216 44.31 0l71.885 71.884c12.216 12.217 12.215 32.094 0 44.31l-44.534 44.535c-13.956 13.953-32.513 21.163-51.137 21.163zm-242.777-413.471c-2.39 0-4.779.909-6.599 2.729l-44.534 44.534c-16.814 16.814-19.572 43.194-6.559 62.724 72.522 108.84 164.481 200.799 273.322 273.322 19.531 13.014 45.91 10.256 62.725-6.558l44.534-44.534c3.639-3.638 3.639-9.559 0-13.198l-71.885-71.884c-3.639-3.638-9.559-3.638-13.197 0l-35.941 35.942c-3.18 3.18-7.976 4.105-12.111 2.333-69.462-29.769-119.777-80.084-149.547-149.546-1.772-4.134-.849-8.931 2.332-12.111l35.942-35.942c1.763-1.763 2.733-4.106 2.733-6.599s-.971-4.836-2.733-6.598l-71.883-71.885c-1.82-1.819-4.209-2.729-6.599-2.729z"/></g></g></g><g><g><path d="m399.325 150.027c-18.3 0-35.503-7.126-48.442-20.066-4.296-4.296-4.296-11.261 0-15.556 4.296-4.296 11.261-4.295 15.557 0 8.784 8.784 20.463 13.622 32.886 13.622 12.422 0 24.101-4.838 32.885-13.622 4.297-4.296 11.26-4.296 15.557 0 4.296 4.296 4.296 11.26 0 15.556-12.941 12.94-30.145 20.066-48.443 20.066z"/></g></g></g><g><path d="m363.744 92.08c-15.807-.305-13.409-24.596 2.151-21.79 12.74 2.223 10.773 22.09-2.151 21.79z"/></g><g><path d="m434.904 92.08c-12.927.297-14.887-19.57-2.15-21.79 15.576-2.786 17.945 21.485 2.15 21.79z"/></g></g><g/><g/><g/><g/><g/><g/><g/><g/><g/><g/><g/><g/><g/><g/><g/></svg>