<svg id="Layer_1" enable-background="new 0 0 512 512" viewBox="0 0 512 512" xmlns="http://www.w3.org/2000/svg" fill="#E6ECF2"><g><g><g><g><path d="m307.85.01c-112.57 0-204.16 91.58-204.16 204.15 0 41.32 12.34 79.8 33.51 111.97l-125.05 125.04c-7.83 7.84-12.15 18.26-12.15 29.34 0 11.09 4.32 21.51 12.15 29.35 8.09 8.09 18.72 12.13 29.35 12.13 10.62 0 21.25-4.04 29.34-12.13l125.04-125.05c32.17 21.17 70.65 33.51 111.97 33.51 112.57 0 204.15-91.59 204.15-204.16s-91.58-204.15-204.15-204.15zm-252.56 484.29c-3.69 3.68-8.58 5.71-13.79 5.71s-10.11-2.03-13.79-5.71-5.71-8.58-5.71-13.79 2.03-10.1 5.71-13.78l122.71-122.72c8.3 10.04 17.54 19.28 27.58 27.58zm252.56-97.98c-100.44 0-182.16-81.72-182.16-182.16s81.72-182.15 182.16-182.15 182.15 81.71 182.15 182.15-81.71 182.16-182.15 182.16z" fill="#0496FF"/></g><g><g><path d="m307.847 347.321c-78.938 0-143.158-64.22-143.158-143.158s64.22-143.157 143.158-143.157 143.157 64.22 143.157 143.158-64.22 143.157-143.157 143.157zm0-264.315c-66.807 0-121.158 54.351-121.158 121.158s54.351 121.158 121.158 121.158 121.157-54.351 121.157-121.158-54.351-121.158-121.157-121.158z"/></g></g></g></g><g><path d="m307.847 258.398c-24.906 0-49.814-9.48-68.774-28.441-4.296-4.296-4.296-11.261 0-15.556 4.297-4.296 11.26-4.296 15.557 0 29.344 29.344 77.092 29.344 106.436 0 4.296-4.296 11.261-4.295 15.557 0 4.296 4.296 4.296 11.26 0 15.556-18.963 18.96-43.87 28.441-68.776 28.441z"/></g><g><path d="m376.467 180.305c-2.815 0-5.63-1.074-7.778-3.222-3.353-3.353-7.811-5.2-12.554-5.2-4.742 0-9.2 1.847-12.554 5.2-4.298 4.296-11.261 4.295-15.557 0-4.296-4.296-4.296-11.261 0-15.556 7.509-7.508 17.492-11.643 28.11-11.643 10.619 0 20.603 4.135 28.11 11.644 4.296 4.296 4.296 11.261 0 15.556-2.147 2.147-4.963 3.221-7.777 3.221z"/></g><g><path d="m279.89 180.305c-2.815 0-5.63-1.074-7.778-3.222-3.353-3.353-7.811-5.2-12.554-5.2-4.741 0-9.2 1.847-12.553 5.2-4.295 4.296-11.26 4.296-15.557 0-4.296-4.296-4.296-11.26 0-15.556 7.508-7.509 17.491-11.644 28.109-11.644 10.619 0 20.603 4.135 28.11 11.644 4.296 4.296 4.296 11.261 0 15.556-2.147 2.148-4.963 3.222-7.777 3.222z"/></g></g><g/><g/><g/><g/><g/><g/><g/><g/><g/><g/><g/><g/><g/><g/><g/></svg>