<svg id="Layer_1" enable-background="new 0 0 512 512" viewBox="0 0 512 512" xmlns="http://www.w3.org/2000/svg" fill="#E6ECF2"><g><g><g><path d="m256 399.158c-78.938 0-143.157-64.22-143.157-143.158s64.219-143.158 143.157-143.158 143.157 64.221 143.157 143.158-64.219 143.158-143.157 143.158zm0-264.316c-66.807 0-121.157 54.351-121.157 121.158 0 66.806 54.351 121.158 121.157 121.158s121.157-54.352 121.157-121.158c0-66.807-54.35-121.158-121.157-121.158z" fill="#0496FF"/></g><g><path d="m256 312.851c-24.906 0-49.814-9.48-68.774-28.441-4.296-4.296-4.296-11.261 0-15.556 4.297-4.296 11.26-4.296 15.557 0 29.344 29.344 77.092 29.344 106.436 0 4.295-4.296 11.26-4.295 15.557 0 4.296 4.296 4.296 11.26 0 15.556-18.962 18.96-43.87 28.441-68.776 28.441z"/></g><g><path d="m324.62 234.758c-2.815 0-5.63-1.074-7.778-3.222-3.353-3.353-7.811-5.2-12.554-5.2-4.742 0-9.2 1.847-12.554 5.2-4.298 4.296-11.261 4.295-15.557 0-4.296-4.296-4.296-11.261 0-15.556 7.509-7.508 17.492-11.644 28.11-11.644 10.619 0 20.603 4.135 28.11 11.644 4.296 4.296 4.296 11.261 0 15.556-2.147 2.148-4.962 3.222-7.777 3.222z"/></g><g><path d="m228.044 234.758c-2.815 0-5.63-1.074-7.778-3.222-3.354-3.353-7.811-5.2-12.554-5.2s-9.201 1.847-12.554 5.2c-4.295 4.296-11.26 4.296-15.557 0-4.296-4.296-4.296-11.26 0-15.556 7.508-7.508 17.491-11.644 28.11-11.644 10.618 0 20.602 4.135 28.11 11.644 4.296 4.296 4.296 11.26 0 15.556-2.146 2.148-4.962 3.222-7.777 3.222z"/></g></g><g><g><g><path d="m296.664 512h-81.328c-5.048 0-9.447-3.435-10.672-8.332l-10.677-42.707c-13.605-4.104-26.712-9.52-39.105-16.159l-37.711 22.627c-4.326 2.598-9.868 1.915-13.438-1.654l-57.508-57.508c-3.569-3.569-4.251-9.109-1.654-13.438l22.627-37.711c-6.64-12.393-12.056-25.499-16.159-39.104l-42.707-10.678c-4.897-1.224-8.332-5.624-8.332-10.672v-81.328c0-5.048 3.435-9.447 8.332-10.672l42.708-10.677c4.104-13.606 9.52-26.712 16.159-39.105l-22.627-37.711c-2.597-4.328-1.915-9.869 1.654-13.438l57.508-57.507c3.57-3.569 9.109-4.251 13.438-1.654l37.712 22.628c12.393-6.639 25.498-12.055 39.104-16.159l10.677-42.708c1.224-4.898 5.623-8.333 10.671-8.333h81.328c5.048 0 9.447 3.435 10.672 8.332l10.677 42.708c13.605 4.104 26.711 9.52 39.104 16.159l37.712-22.626c4.328-2.597 9.869-1.914 13.438 1.654l57.508 57.507c3.569 3.569 4.251 9.11 1.654 13.438l-22.627 37.711c6.64 12.393 12.055 25.499 16.159 39.105l42.708 10.677c4.897 1.224 8.332 5.624 8.332 10.672v81.328c0 5.048-3.435 9.447-8.332 10.672l-42.708 10.677c-4.104 13.606-9.52 26.711-16.159 39.104l22.627 37.711c2.597 4.328 1.915 9.869-1.654 13.438l-57.508 57.508c-3.57 3.569-9.109 4.251-13.438 1.654l-37.711-22.627c-12.393 6.639-25.499 12.055-39.104 16.159l-10.677 42.707c-1.226 4.897-5.625 8.332-10.673 8.332zm-72.739-22h64.15l10.135-40.54c.969-3.872 3.959-6.917 7.813-7.954 16.142-4.344 31.554-10.715 45.81-18.936 3.46-1.995 7.73-1.958 11.154.097l35.795 21.477 45.361-45.361-21.478-35.796c-2.055-3.425-2.092-7.695-.097-11.155 8.222-14.255 14.593-29.667 18.936-45.808 1.037-3.855 4.081-6.845 7.954-7.814l40.542-10.134v-64.151l-40.541-10.135c-3.873-.968-6.917-3.958-7.954-7.813-4.344-16.141-10.714-31.553-18.936-45.809-1.995-3.46-1.958-7.73.097-11.155l21.478-35.795-45.361-45.361-35.796 21.477c-3.425 2.055-7.694 2.092-11.154.096-14.256-8.221-29.668-14.591-45.808-18.935-3.855-1.037-6.845-4.082-7.814-7.954l-10.136-40.541h-64.15l-10.136 40.541c-.969 3.873-3.959 6.917-7.813 7.954-16.14 4.344-31.552 10.715-45.808 18.935-3.459 1.995-7.73 1.959-11.154-.096l-35.796-21.477-45.361 45.361 21.478 35.795c2.055 3.425 2.092 7.695.097 11.155-8.222 14.255-14.592 29.667-18.936 45.809-1.037 3.855-4.081 6.845-7.954 7.813l-40.542 10.135v64.151l40.541 10.135c3.873.968 6.917 3.959 7.954 7.814 4.343 16.141 10.714 31.552 18.936 45.808 1.995 3.46 1.958 7.73-.097 11.155l-21.478 35.796 45.361 45.361 35.795-21.477c3.425-2.055 7.694-2.092 11.154-.097 14.256 8.22 29.668 14.591 45.81 18.936 3.855 1.037 6.845 4.082 7.813 7.954zm277.075-193.336h.01z"/></g></g></g></g><g/><g/><g/><g/><g/><g/><g/><g/><g/><g/><g/><g/><g/><g/><g/></svg>