<svg id="Layer_1" enable-background="new 0 0 512 512" viewBox="0 0 512 512" xmlns="http://www.w3.org/2000/svg" fill="#E6ECF2"><g><g><path d="m296.663 449.987h-30.849c-35.631 0-65.584-25.676-71.221-61.053-14.055-88.211-14.055-177.662 0-265.869 5.636-35.376 35.589-61.053 71.22-61.053h30.85c17.276 0 31.332 14.055 31.332 31.332v60.996c0 17.277-14.056 31.332-31.332 31.332h-21.797c-10.421 46.712-10.421 93.944 0 140.656h21.797c17.276 0 31.332 14.055 31.332 31.332v60.996c0 17.276-14.055 31.331-31.332 31.331zm-30.849-365.975c-24.754 0-45.569 17.88-49.495 42.514-13.689 85.91-13.689 173.032 0 258.946 3.926 24.634 24.741 42.515 49.495 42.515h30.849c5.146 0 9.332-4.186 9.332-9.332v-60.995c0-5.146-4.186-9.332-9.332-9.332h-30.498c-5.047 0-9.447-3.435-10.671-8.332-13.934-55.735-13.934-112.256 0-167.992 1.224-4.897 5.624-8.332 10.671-8.332h30.498c5.146 0 9.332-4.186 9.332-9.332v-60.996c0-5.146-4.186-9.332-9.332-9.332z" fill="#0496FF"/></g><g><g><path d="m479.651 175.506h-60.996c-6.075 0-11-4.925-11-11s4.925-11 11-11h60.996c6.075 0 11 4.925 11 11s-4.925 11-11 11z" fill="#0496FF"/></g><g><path d="m479.651 267h-60.996c-6.075 0-11-4.925-11-11s4.925-11 11-11h60.996c6.075 0 11 4.925 11 11s-4.925 11-11 11z" fill="#0496FF"/></g><g><path d="m479.651 358.494h-60.996c-6.075 0-11-4.925-11-11s4.925-11 11-11h60.996c6.075 0 11 4.925 11 11s-4.925 11-11 11z" fill="#0496FF"/></g></g><g><g><path d="m459.319 62.01h-29.66v-51.01c0-6.08-4.93-11-11-11h-304.98c-28.49 0-51.67 23.18-51.67 51.66v30.68h-29.66c-6.08 0-11 4.93-11 11 0 6.08 4.92 11 11 11h29.66v59.33h-29.66c-6.08 0-11 4.93-11 11 0 6.08 4.92 11 11 11h29.66v59.33h-29.66c-6.08 0-11 4.92-11 11s4.92 11 11 11h29.66v59.33h-29.66c-6.08 0-11 4.92-11 11 0 6.07 4.92 11 11 11h29.66v59.33h-29.66c-6.08 0-11 4.92-11 11 0 6.07 4.92 11 11 11h29.66v30.68c0 28.48 23.18 51.66 51.67 51.66h304.98c6.07 0 11-4.92 11-11v-51.01h29.66c17.28 0 31.33-14.06 31.33-31.33v-325.32c0-17.27-14.05-31.33-31.33-31.33zm-51.66 427.99h-293.98c-16.36 0-29.67-13.31-29.67-29.66v-30.68h29.67c6.07 0 11-4.93 11-11 0-6.08-4.93-11-11-11h-29.67v-59.33h29.67c6.07 0 11-4.93 11-11 0-6.08-4.93-11-11-11h-29.67v-59.33h29.67c6.07 0 11-4.92 11-11s-4.93-11-11-11h-29.67v-59.33h29.67c6.07 0 11-4.92 11-11 0-6.07-4.93-11-11-11h-29.67v-59.33h29.67c6.07 0 11-4.92 11-11 0-6.07-4.93-11-11-11h-29.67v-30.68c0-16.35 13.31-29.66 29.67-29.66h293.98zm60.99-71.34c0 5.14-4.19 9.33-9.33 9.33h-29.66v-343.98h29.66c5.14 0 9.33 4.19 9.33 9.33z"/></g></g></g><g/><g/><g/><g/><g/><g/><g/><g/><g/><g/><g/><g/><g/><g/><g/></svg>