<svg id="Capa_1" enable-background="new 0 0 512 512" viewBox="0 0 512 512" xmlns="http://www.w3.org/2000/svg" fill="#E6ECF2"><g><g><g><g><path d="m444.663 455.663c-2.815 0-5.63-1.074-7.778-3.222l-38.352-38.351c-4.296-4.296-4.296-11.261 0-15.557 4.297-4.295 11.26-4.296 15.557 0l38.352 38.351c4.296 4.296 4.296 11.261 0 15.557-2.149 2.148-4.964 3.222-7.779 3.222z" fill="#0496FF"/></g><g><path d="m358.473 476c-6.075 0-11-4.925-11-11v-31.995c0-6.075 4.925-11 11-11s11 4.925 11 11v31.995c0 6.075-4.924 11-11 11z" fill="#0496FF"/></g><g><path d="m465 369.473h-31.994c-6.075 0-11-4.925-11-11s4.925-11 11-11h31.994c6.075 0 11 4.925 11 11s-4.925 11-11 11z" fill="#0496FF"/></g></g><g><g><path d="m105.688 116.688c-2.815 0-5.63-1.074-7.778-3.222l-38.352-38.351c-4.296-4.296-4.296-11.261 0-15.557 4.297-4.295 11.26-4.296 15.557 0l38.352 38.351c4.296 4.296 4.296 11.261 0 15.557-2.149 2.148-4.963 3.222-7.779 3.222z" fill="#0496FF"/></g><g><path d="m153.526 89.994c-6.075 0-11-4.925-11-11v-31.994c0-6.075 4.925-11 11-11s11 4.925 11 11v31.995c0 6.075-4.925 10.999-11 10.999z" fill="#0496FF"/></g><g><path d="m78.994 164.527h-31.994c-6.075 0-11-4.925-11-11s4.925-11 11-11h31.994c6.075 0 11 4.925 11 11s-4.925 11-11 11z" fill="#0496FF"/></g></g></g><path d="m512 108.501c.016-2.938-1.145-5.759-3.222-7.836l-97.443-97.444c-4.275-4.275-11.198-4.297-15.503-.053l-100.088 98.725.794-8.507c1.968-21.085-13.546-40.218-34.582-42.651-17.674-2.043-34.562 8.099-41.061 24.665l-29.167 74.355c-23.539 24.02-41.673 53.097-52.971 84.747-9.435-2.407-19.777-1.29-28.855 3.951-18.447 10.651-24.79 34.324-14.14 52.771l3.943 6.83-96.532 97.773c-4.249 4.304-4.228 11.23.049 15.507l97.443 97.444c2.063 2.063 4.861 3.222 7.778 3.222h.036c2.93-.01 5.734-1.188 7.793-3.273l20.207-20.473 1.934 1.934c6.511 6.51 15.166 10.096 24.373 10.096s17.862-3.585 24.373-10.096c4.607-4.607 7.634-10.206 9.083-16.115 2.491.557 5.031.845 7.574.845 8.825 0 17.654-3.36 24.374-10.079 5.035-5.035 8.184-11.254 9.446-17.769 1.687.25 3.388.378 5.089.378 8.826 0 17.653-3.359 24.373-10.079 6.407-6.407 9.752-14.729 10.05-23.14 8.41-.299 16.733-3.643 23.139-10.05 5.542-5.542 8.792-12.518 9.764-19.744h45.077c19.018 0 34.489-15.472 34.489-34.49 0-4.403-.838-8.611-2.349-12.485h1.622c19.018 0 34.49-15.454 34.49-34.449 0-4.59-.911-8.969-2.549-12.977 16.158-2.837 28.478-16.962 28.478-33.92 0-6.284-1.699-12.175-4.651-17.253 10.128-6.011 16.935-17.068 16.935-29.727 0-12.732-6.949-23.865-17.248-29.828l64.35-63.004c2.1-2.054 3.289-4.863 3.305-7.801zm-391.098 149.007c2.612-1.508 5.468-2.225 8.287-2.225 5.752 0 11.354 2.983 14.432 8.312l10.754 18.626c4.585 7.941 1.854 18.133-6.088 22.718-3.848 2.222-8.332 2.812-12.619 1.661-4.291-1.15-7.878-3.901-10.099-7.749l-10.754-18.626c-4.585-7.941-1.854-18.132 6.087-22.717zm50.7 217.123c-4.861 4.861-12.771 4.861-17.633 0l-18.438-18.438c-2.355-2.355-3.652-5.486-3.652-8.816s1.297-6.461 3.652-8.816c2.354-2.355 5.486-3.652 8.816-3.652s6.462 1.297 8.816 3.652l18.442 18.442c2.353 2.355 3.649 5.484 3.649 8.813.001 3.329-1.296 6.46-3.652 8.815zm41.03-25.349c-4.86 4.861-12.771 4.862-17.633 0l-26.278-26.279c-4.861-4.861-4.861-12.771 0-17.633 2.431-2.431 5.623-3.646 8.816-3.646 3.192 0 6.386 1.216 8.816 3.646l26.285 26.285c2.352 2.354 3.647 5.482 3.647 8.81 0 3.331-1.298 6.462-3.653 8.817zm38.909-27.471c-4.861 4.861-12.771 4.861-17.633 0l-31.998-31.998c-4.861-4.861-4.861-12.772 0-17.633 2.431-2.431 5.623-3.646 8.816-3.646s6.386 1.216 8.816 3.646l31.998 31.998c4.862 4.862 4.862 12.772.001 17.633zm33.189-33.189c-4.861 4.861-12.771 4.861-17.633 0l-31.998-31.998c-4.861-4.861-4.861-12.771-.001-17.632 2.432-2.431 5.625-3.646 8.818-3.646 3.192 0 6.386 1.215 8.816 3.646l31.997 31.998c4.863 4.86 4.863 12.77.001 17.632zm142.415-166.956h-66.398c-6.075 0-11 4.925-11 11s4.925 11 11 11h54.114c6.864 0 12.448 5.584 12.448 12.449 0 6.864-5.584 12.448-12.448 12.448h-76.421c-6.075 0-11 4.925-11 11s4.925 11 11 11h50.45c6.887 0 12.49 5.584 12.49 12.448s-5.604 12.449-12.49 12.449l-72.877-.004c-6.075 0-11 4.925-11 11s4.925 11 11 11h39.027c.03 0 .058.004.087.004h.087c6.846.047 12.403 5.628 12.403 12.485 0 6.887-5.603 12.49-12.489 12.49h-49.442c-1.459-2.502-3.257-4.86-5.399-7.002l-31.997-31.999c-13.439-13.438-35.306-13.438-48.747 0-6.406 6.406-9.752 14.728-10.05 23.139-8.411.299-16.733 3.644-23.139 10.05-6.407 6.407-9.752 14.729-10.05 23.14-8.411.299-16.733 3.644-23.139 10.05-6.403 6.403-9.748 14.718-10.05 23.124-8.744.306-16.921 3.847-23.14 10.066-13.439 13.439-13.439 35.307 0 48.746l.948.948-12.53 12.695-81.886-81.886 85.362-86.457c4.864 5.175 11.074 8.917 18.105 10.802 3.328.892 6.706 1.333 10.062 1.333 6.693 0 13.3-1.756 19.252-5.192 18.447-10.65 24.791-34.323 14.141-52.771l-10.754-18.627c-1.359-2.353-2.932-4.507-4.677-6.456 10.31-30.97 27.829-59.383 50.923-82.477 1.07-1.071 1.909-2.352 2.462-3.762l29.994-76.466c2.856-7.283 10.281-11.748 18.054-10.844 9.249 1.069 16.069 9.482 15.204 18.752l-4.64 49.699c-1.328 14.231 3.431 28.454 13.057 39.02 9.625 10.566 23.343 16.625 37.636 16.625h106.459c6.864 0 12.448 5.584 12.448 12.531-.001 6.865-5.585 12.45-12.45 12.45zm-9.526-46.98h-96.932c-8.236 0-15.826-3.353-21.373-9.441-5.547-6.089-8.181-13.958-7.415-22.159l.668-7.156 110.937-109.427 81.857 81.857z"/></g><g/><g/><g/><g/><g/><g/><g/><g/><g/><g/><g/><g/><g/><g/><g/></svg>