<svg id="Capa_1" enable-background="new 0 0 512.003 512.003" viewBox="0 0 512.003 512.003" xmlns="http://www.w3.org/2000/svg" fill="#052438"><g><path d="m511.806 308.582c-1.026-10.186-5.958-19.361-13.886-25.835l-7.808-6.379c-5.58-4.558-12.069-7.275-18.729-8.232 3.409-8.818 5.208-18.311 5.208-28.098v-68.735c0-63.577-51.724-115.3-115.301-115.3s-115.301 51.724-115.301 115.3v68.735c0 9.023 1.532 17.802 4.448 26.034h-62.161c23.413-14.884 38.993-41.037 38.993-70.776v-123.977c0-6.075-4.925-11-11-11h-89.728c-36.904 0-66.929 30.024-66.929 66.929v68.048c0 30.446 16.319 57.148 40.666 71.832-25.362 3.418-48.77 15.078-66.989 33.599-21.466 21.825-33.289 50.709-33.289 81.327v62.947c0 6.075 4.925 11 11 11h473.275c6.075 0 11-4.925 11-11v-70.094c0-9.728-1.278-19.29-3.795-28.554 4.447-2.325 8.506-5.56 11.876-9.685 6.476-7.927 9.477-17.901 8.45-28.086zm-27.803-8.797c3.376 2.758 5.477 6.666 5.914 11.003.438 4.338-.841 8.587-3.599 11.963-5.695 6.971-16 8.007-22.969 2.316l-7.808-6.379c-6.971-5.694-8.01-15.998-2.316-22.968s15.996-8.011 22.969-2.316zm-216.013-128.483c0-51.446 41.854-93.3 93.301-93.3s93.301 41.854 93.301 93.3v68.735c0 14.903-5.832 28.845-16.188 39.24-10.803-5.884-22.478-9.874-34.605-11.82 17.461-13.008 28.792-33.808 28.792-57.206v-39.688c0-6.075-4.925-11-11-11-20.485 0-39.243-9.455-51.463-25.94-2.075-2.799-5.353-4.449-8.837-4.449-3.483 0-6.762 1.65-8.837 4.449-12.221 16.485-30.979 25.94-51.464 25.94-6.075 0-11 4.925-11 11v39.688c0 23.352 11.285 44.117 28.687 57.131-12.371 1.934-24.057 5.959-34.686 11.702-10.236-10.378-16.001-24.251-16.001-39.047zm93.301 88.249c-27.185 0-49.301-22.116-49.301-49.3v-29.403c18.559-2.422 35.942-10.895 49.301-23.984 13.357 13.089 30.741 21.562 49.3 23.984v29.403c0 27.184-22.116 49.3-49.3 49.3zm-14.614 20.489c4.719.987 9.606 1.512 14.614 1.512s9.895-.525 14.614-1.512v13.423c0 8.059-6.556 14.615-14.614 14.615s-14.614-6.556-14.614-14.615zm-221.573-2.962c5.907 1.324 12.039 2.045 18.339 2.045 6.301 0 12.433-.721 18.34-2.046v12.602c0 10.112-8.228 18.339-18.34 18.339s-18.339-8.227-18.339-18.339zm1.439-194.759h78.728v17.696c-.021 26.865-21.883 48.715-48.753 48.715h-74.904v-21.482c0-24.775 20.156-44.929 44.929-44.929zm-44.929 112.976v-24.565h74.903c18.885 0 36.052-7.452 48.753-19.551v44.116c0 34.092-27.736 61.828-61.828 61.828s-61.828-27.736-61.828-61.828zm-59.614 186.759c0-24.811 9.58-48.215 26.977-65.901 14.725-14.971 33.639-24.387 54.127-27.183v.709c0 22.243 18.096 40.339 40.339 40.339s40.34-18.096 40.34-40.339v-1.608h78.816c.956 1.21 1.948 2.394 2.979 3.551-23.741 19.981-38.857 49.898-38.857 83.285v59.094h-204.721zm451.275 51.948h-224.554v-59.094c0-44.197 33.191-80.786 75.956-86.156v4.71c0 20.189 16.425 36.615 36.614 36.615s36.614-16.425 36.614-36.615v-4.626c10.661 1.407 20.923 4.774 30.34 9.96-2.556 13.383 2.107 27.724 13.379 36.931l7.808 6.378s0 0 .001.001c6.035 4.93 13.135 7.701 20.364 8.426 2.304 7.881 3.479 16.049 3.479 24.375v59.095z"/><g fill="#0496FF"><path d="m382.881 206.766c-4.297-4.296-11.262-4.295-15.557 0-1.611 1.612-3.755 2.499-6.034 2.499-2.278 0-4.422-.887-6.033-2.499-4.296-4.296-11.259-4.296-15.557 0-4.296 4.295-4.296 11.26 0 15.556 5.767 5.767 13.435 8.943 21.59 8.943 8.156 0 15.824-3.176 21.591-8.943 4.296-4.296 4.296-11.261 0-15.556z"/><path d="m149.516 204.527c-1.665 1.665-3.879 2.582-6.233 2.582s-4.568-.917-6.233-2.582c-4.296-4.296-11.259-4.296-15.557 0-4.296 4.295-4.296 11.26 0 15.556 5.82 5.821 13.559 9.026 21.79 9.026s15.97-3.206 21.79-9.026c4.296-4.296 4.296-11.261 0-15.556-4.298-4.297-11.262-4.296-15.557 0z"/></g></g><g/><g/><g/><g/><g/><g/><g/><g/><g/><g/><g/><g/><g/><g/><g/></svg>