<svg id="Capa_1" enable-background="new 0 0 512 512" viewBox="0 0 512 512" xmlns="http://www.w3.org/2000/svg" fill="#E6ECF2"><g><g><g><g><g><g><g><path d="m281 212.297c-6.075 0-11-4.925-11-11v-10.714c0-6.075 4.925-11 11-11s11 4.925 11 11v10.714c0 6.075-4.925 11-11 11z"/></g><g><path d="m231 212.297c-6.075 0-11-4.925-11-11v-10.714c0-6.075 4.925-11 11-11s11 4.925 11 11v10.714c0 6.075-4.925 11-11 11z"/></g></g><g><path d="m256 282.932c-23.419 0-44.002-14.968-51.217-37.247-1.872-5.779 1.296-11.982 7.076-13.854s11.982 1.296 13.854 7.076c4.267 13.174 16.438 22.025 30.288 22.025s26.021-8.851 30.288-22.025c1.872-5.78 8.075-8.946 13.854-7.076 5.78 1.872 8.948 8.075 7.076 13.854-7.217 22.279-27.799 37.247-51.219 37.247z"/></g></g></g></g><path d="m432 62.578h-45.072v-51.578c0-3.317-1.497-6.457-4.073-8.545-2.577-2.088-5.956-2.904-9.203-2.217l-295.928 62.578v.001c-4.982 1.048-8.724 5.466-8.724 10.761v427.422c0 6.075 4.925 11 11 11h352c6.075 0 11-4.925 11-11v-427.422c0-6.075-4.925-11-11-11zm-67.072 0h-179.74l179.74-38.008zm56.072 427.422h-330v-405.422h330z"/></g><g fill="#0496FF"><path d="m256 332.289c61.206 0 111-49.794 111-111s-49.794-111-111-111-111 49.794-111 111 49.795 111 111 111zm0-200c49.075 0 89 39.925 89 89s-39.925 89-89 89-89-39.925-89-89 39.925-89 89-89z"/><path d="m283.609 380.323c6.075 0 11-4.925 11-11s-4.925-11-11-11h-35.405c-6.075 0-11 4.925-11 11v87.355c0 6.075 4.925 11 11 11s11-4.925 11-11v-33.505h21.593c6.075 0 11-4.925 11-11s-4.925-11-11-11h-21.593v-20.851h24.405z"/><path d="m360.649 401.173h-21.593v-20.851h24.405c6.075 0 11-4.925 11-11s-4.925-11-11-11h-35.405c-6.075 0-11 4.925-11 11v87.355c0 6.075 4.925 11 11 11s11-4.925 11-11v-33.505h21.593c6.075 0 11-4.925 11-11s-4.925-10.999-11-10.999z"/><path d="m200.319 406.219c3.177-4.891 5.03-10.716 5.03-16.97 0-17.231-14.018-31.249-31.249-31.249h-25.562c-6.075 0-11 4.925-11 11v88c0 2.926 1.166 5.731 3.239 7.795 2.062 2.053 4.853 3.205 7.761 3.205h.049s23.5-.104 29.977-.104c19.126 0 34.687-15.561 34.687-34.687.001-10.894-5.052-20.626-12.932-26.99zm-40.78-26.219h14.561c5.1 0 9.249 4.149 9.249 9.249s-4.149 9.249-9.249 9.249c-1.888 0-14.562.024-14.562.024v-18.522zm19.026 65.896c-3.489 0-11.96.03-19.026.059v-25.413c1.752-.007 19.026-.02 19.026-.02 6.996 0 12.687 5.691 12.687 12.687s-5.692 12.687-12.687 12.687z"/></g></g><g/><g/><g/><g/><g/><g/><g/><g/><g/><g/><g/><g/><g/><g/><g/></svg>