<svg id="Capa_1" enable-background="new 0 0 512 512" viewBox="0 0 512 512" xmlns="http://www.w3.org/2000/svg" fill="#E6ECF2"><g><g><g><path d="m404.152 240.378c-3.93 0-7.562-2.097-9.526-5.5l-16.673-28.878h-95.755l-16.672 28.878c-1.965 3.403-5.597 5.5-9.526 5.5s-7.562-2.097-9.526-5.5l-16.672-28.878h-95.755l-16.673 28.878c-1.965 3.403-5.597 5.5-9.526 5.5s-7.562-2.097-9.526-5.5l-16.962-29.378c-21.122-3.211-37.36-21.496-37.36-43.5v-118c0-24.261 19.738-44 44-44h336c24.262 0 44 19.739 44 44v118c0 22.004-16.238 40.289-37.36 43.5l-16.961 29.378c-1.965 3.404-5.597 5.5-9.527 5.5zm-128.304-56.378h108.456c3.93 0 7.562 2.097 9.526 5.5l10.322 17.878 10.321-17.878c1.965-3.403 5.597-5.5 9.526-5.5 12.131 0 22-9.87 22-22v-118c0-12.131-9.869-22-22-22h-335.999c-12.131 0-22 9.869-22 22v118c0 12.13 9.869 22 22 22 3.93 0 7.562 2.097 9.526 5.5l10.321 17.878 10.323-17.878c1.965-3.403 5.597-5.5 9.526-5.5h108.456c3.93 0 7.562 2.097 9.526 5.5l10.322 17.878 10.321-17.878c1.965-3.403 5.597-5.5 9.527-5.5z" fill="#0496FF"/></g></g><g><path d="m492.705 398.379c-8.805-10.912-20.157-19.518-32.869-25.118 5.216-9.124 8.213-19.672 8.213-30.914v-17.46c0-34.467-28.041-62.509-62.509-62.509s-62.509 28.042-62.509 62.509v17.46c0 8.32 1.647 16.258 4.611 23.525h-33.745c2.964-7.267 4.611-15.205 4.611-23.525v-17.46c0-34.467-28.041-62.509-62.509-62.509s-62.509 28.042-62.509 62.509v17.46c0 8.32 1.647 16.258 4.611 23.525h-33.746c2.964-7.267 4.611-15.205 4.611-23.525v-17.46c0-34.467-28.041-62.509-62.509-62.509s-62.509 28.042-62.509 62.509v17.46c0 11.241 2.998 21.79 8.213 30.914-12.711 5.6-24.063 14.207-32.868 25.118-12.44 15.421-19.293 34.845-19.293 54.695v47.926c0 6.075 4.925 11 11 11h490c6.075 0 11-4.925 11-11v-47.926c0-19.85-6.853-39.274-19.295-54.695zm-127.673-73.492c0-22.336 18.172-40.509 40.509-40.509s40.509 18.172 40.509 40.509v17.46c0 22.336-18.172 40.509-40.509 40.509s-40.509-18.172-40.509-40.509zm-149.541 0c0-22.336 18.172-40.509 40.509-40.509s40.509 18.172 40.509 40.509v17.46c0 22.336-18.172 40.509-40.509 40.509s-40.509-18.172-40.509-40.509zm-149.542 0c0-22.336 18.172-40.509 40.509-40.509s40.509 18.172 40.509 40.509v17.46c0 22.336-18.172 40.509-40.509 40.509s-40.509-18.172-40.509-40.509zm83.592 128.187v36.926h-79.541v-29c0-6.075-4.925-11-11-11s-11 4.925-11 11v29h-26v-36.926c0-15.055 4.985-29.19 14.416-40.879 8.011-9.928 18.823-17.322 30.857-21.195 10.728 8.657 24.358 13.856 39.185 13.856 16.534 0 31.578-6.464 42.769-16.984h29.65c-3.62 3.206-6.984 6.718-10.041 10.507-12.442 15.421-19.295 34.845-19.295 54.695zm190.917 36.926h-26v-29c0-6.075-4.925-11-11-11s-11 4.925-11 11v29h-72.916v-29c0-6.075-4.925-11-11-11s-11 4.925-11 11v29h-26.001v-36.926c0-15.055 4.985-29.19 14.417-40.879 8.01-9.928 18.822-17.322 30.857-21.195 10.728 8.657 24.358 13.856 39.185 13.856s28.457-5.199 39.185-13.856c12.035 3.873 22.846 11.266 30.857 21.195 9.431 11.688 14.416 25.824 14.416 40.879zm149.542 0h-26v-29c0-6.075-4.925-11-11-11s-11 4.925-11 11v29h-79.542v-36.926c0-19.85-6.853-39.273-19.295-54.694-3.057-3.789-6.42-7.301-10.041-10.507h29.649c11.191 10.52 26.235 16.984 42.769 16.984 14.827 0 28.457-5.199 39.185-13.856 12.035 3.873 22.847 11.266 30.857 21.195 9.433 11.687 14.418 25.823 14.418 40.878z"/><path d="m248.203 157.487c6.075 0 11-4.925 11-11v-33.505h21.594c6.075 0 11-4.925 11-11s-4.925-11-11-11h-21.594v-20.85h24.406c6.075 0 11-4.925 11-11s-4.925-11-11-11h-35.406c-6.075 0-11 4.925-11 11v87.355c0 6.075 4.925 11 11 11z"/><path d="m333.056 157.487c6.075 0 11-4.925 11-11v-33.505h21.594c6.075 0 11-4.925 11-11s-4.925-11-11-11h-21.594v-20.85h24.406c6.075 0 11-4.925 11-11s-4.925-11-11-11h-35.406c-6.075 0-11 4.925-11 11v87.355c0 6.075 4.924 11 11 11z"/><path d="m143.538 157.81h.049s23.501-.104 29.978-.104c19.126 0 34.687-15.561 34.687-34.687 0-10.894-5.052-20.625-12.932-26.989 3.177-4.891 5.03-10.716 5.03-16.97 0-17.231-14.019-31.249-31.249-31.249h-25.562c-6.075 0-11 4.925-11 11v88c0 2.926 1.166 5.731 3.239 7.795 2.061 2.052 4.852 3.204 7.76 3.204zm30.026-22.105c-3.488 0-11.96.03-19.026.059v-25.413c1.752-.007 19.026-.02 19.026-.02 6.995 0 12.687 5.691 12.687 12.687s-5.691 12.687-12.687 12.687zm-4.463-65.895c5.1 0 9.249 4.149 9.249 9.249s-4.149 9.249-9.249 9.249c-1.888 0-14.562.024-14.562.024v-18.522z"/></g></g><g/><g/><g/><g/><g/><g/><g/><g/><g/><g/><g/><g/><g/><g/><g/></svg>