<svg id="Capa_1" enable-background="new 0 0 512 512" viewBox="0 0 512 512" xmlns="http://www.w3.org/2000/svg" fill="#052438"><g><g><g><path d="m478.131 279.74-40.93-72.99c.01-.95.02-1.85.02-2.73 0-112.5-91.52-204.02-204.01-204.02 0 0 0 0-.01 0-54.35 0-105.44 20.98-143.83 59.08-38.4 38.09-59.77 89.01-60.18 143.37-.26 35.17 8.58 69.92 25.57 100.5.07.13.14.26.22.39.98 1.77 1.97 3.48 2.93 5.09 10.76 20.04 42.21 91.82 4.75 188.6-1.31 3.38-.87 7.19 1.19 10.19 2.05 2.99 5.44 4.78 9.07 4.78h199.27c5.71 0 10.47-4.38 10.96-10.07.04-.4 3.52-37.85 24.71-58.95l48.15 16.81c.74.25 1.48.5 2.23.73 20.09 6.27 41.42 2.63 58.51-9.98 17.45-12.87 27.43-32.67 27.38-54.31l-.15-56.87 18.53-9.17c9.04-4.47 15.66-12.24 18.65-21.87 2.98-9.64 1.91-19.79-3.03-28.58zm-233.22 118.64c-5.76-1.95-12 1.13-13.95 6.89-1.95 5.75 1.14 11.99 6.89 13.94l47.53 16.1c-14.37 18.59-20.35 41.68-22.72 54.69h-174.13c32.33-98.38-.15-171.43-11.37-192.22-.08-.15-.16-.29-.24-.43-.92-1.53-1.87-3.17-2.81-4.87-.01-.01-.01-.02-.02-.03-15.22-27.32-23.13-58.38-22.9-89.84.75-99.59 82.4-180.61 182.02-180.61 100.36 0 182.01 81.65 182.01 182.02 0 1.58-.02 3.28-.08 5.18-.05 1.99.43 3.96 1.4 5.69l42.4 75.61c1.96 3.48 2.38 7.5 1.2 11.31s-3.8 6.89-7.38 8.66l-24.68 12.2c-3.76 1.86-6.13 5.7-6.12 9.89l.17 63.73c.03 14.56-6.68 27.88-18.44 36.55-11.39 8.4-25.57 10.83-38.9 6.68-.52-.16-1.03-.33-1.53-.51z"/></g></g><g><g><path d="m153.205 182.558c-22.132-22.133-22.132-58.145 0-80.277 22.041-22.04 57.847-22.131 80.002-.273 22.155-21.857 57.961-21.767 80.002.273 22.132 22.133 22.132 58.145 0 80.277l-72.115 72.332c-2.148 2.147-4.963 3.222-7.778 3.222-.071.001-.144.001-.217 0-2.815 0-5.63-1.074-7.778-3.222zm80.002 49.105 64.445-64.662c6.566-6.566 10.183-15.296 10.183-24.582s-3.616-18.016-10.183-24.582-15.296-10.183-24.582-10.183-18.016 3.616-24.582 10.183l-7.503 7.503c-4.297 4.295-11.26 4.295-15.557 0l-7.503-7.503c-6.566-6.566-15.296-10.183-24.582-10.183s-18.016 3.616-24.582 10.183-10.183 15.296-10.183 24.582 3.616 18.016 10.183 24.582z" fill="#0496FF"/></g></g></g><g/><g/><g/><g/><g/><g/><g/><g/><g/><g/><g/><g/><g/><g/><g/></svg>