<svg id="Capa_1" enable-background="new 0 0 512 512" viewBox="0 0 512 512" xmlns="http://www.w3.org/2000/svg" fill="#E6ECF2"><g><g><g><path d="m358.688 144.727c-6.075 0-11-4.925-11-11v-26.348c0-22.271-15.784-41.809-37.53-46.457-3.672-.785-6.69-3.388-8.005-6.905-7.159-19.15-25.707-32.017-46.152-32.017-20.446 0-38.994 12.867-46.153 32.017-1.315 3.517-4.333 6.12-8.005 6.905-21.746 4.647-37.53 24.186-37.53 46.457v26.348c0 6.075-4.925 11-11 11s-11-4.925-11-11v-26.348c0-30.598 20.376-57.671 49.218-66.49 11.66-24.679 36.869-40.889 64.469-40.889s52.809 16.21 64.47 40.889c28.842 8.819 49.218 35.893 49.218 66.49v26.348c0 6.075-4.925 11-11 11z" fill="#0496FF"/></g></g><g><path d="m510.022 440.339c-2.057-2.949-5.426-4.706-9.021-4.706h-16.832v-93.512c0-9.028-3.516-17.516-9.9-23.9l-12.869-12.869c-4.296-4.297-11.261-4.296-15.556 0-4.296 4.296-4.296 11.261 0 15.556l12.869 12.87c2.229 2.229 3.457 5.192 3.457 8.344v93.512h-31.502l-15.8-75.026c-5.452-25.887-25.732-45.982-51.669-51.196l-23.19-4.661c-4.852-10.437-14.177-17.992-25.595-20.505l-12.545-2.76-3.38-14.558c21.56-12.016 37.544-32.874 43.015-57.638h4.51c23.865 0 43.28-19.416 43.28-43.281s-19.416-43.28-43.28-43.28h-13.449s0 0 0 0c-15.021 0-27.51-11.745-28.432-26.743-.137-3.697-2.117-7.101-5.284-9.02-3.078-1.87-6.874-2.116-10.166-.659-20.768 9.193-44.588 9.189-65.354-.012-.075-.033-.156-.068-.231-.099-3.287-1.369-7.033-1.063-10.053.821s-4.942 5.114-5.158 8.668l-.019.305c-.921 14.994-13.411 26.739-28.432 26.739h-13.449c-23.865 0-43.28 19.416-43.28 43.28 0 23.865 19.416 43.281 43.28 43.281h4.51c5.471 24.764 21.455 45.622 43.015 57.638l-3.38 14.558-12.545 2.76c-11.417 2.513-20.742 10.068-25.594 20.505l-23.19 4.661c-25.936 5.214-46.217 25.31-51.668 51.196l-15.8 75.026h-31.5v-93.512c0-3.152 1.228-6.115 3.456-8.344l12.869-12.869c4.295-4.296 4.295-11.261 0-15.557-4.296-4.296-11.261-4.296-15.557 0l-12.869 12.869c-6.384 6.384-9.899 14.872-9.899 23.9v93.512h-16.835c-3.596 0-6.964 1.757-9.021 4.706-2.057 2.949-2.543 6.717-1.302 10.092l20 54.367c1.591 4.327 5.713 7.202 10.323 7.202h450c4.61 0 8.732-2.875 10.324-7.202l20-54.367c1.241-3.375.755-7.143-1.302-10.092zm-116.684-75.199 14.845 70.493h-38.311v-31.147c0-6.075-4.925-11-11-11s-11 4.925-11 11v31.147h-80.872v-80.784c15.67 5.896 23.594 19.038 23.969 19.672 1.803 3.145 5.039 5.199 8.652 5.493 3.583.297 7.144-1.209 9.425-4.024l26.157-32.172c3.882-4.775 6.429-10.288 7.594-16.067l16.065 3.229c17.306 3.478 30.839 16.887 34.476 34.16zm-72.671-49.663c1.761 5.045.837 10.316-2.534 14.461l-17.536 21.569c-5.855-6.044-14.467-12.971-25.944-17.287l22.579-31.23 12.453 2.741c5.219 1.148 9.221 4.7 10.982 9.746zm46.627-149.47c0 11.734-9.546 21.281-21.28 21.281h-2.449v-42.561h2.449c11.734 0 21.28 9.546 21.28 21.28zm-222.588 0c0-11.734 9.546-21.28 21.28-21.28h2.449v42.561h-2.449c-11.734 0-21.28-9.546-21.28-21.281zm45.73 24.377v-46.868c16.979-3.795 30.847-16.187 36.609-32.48 18.882 5.541 39.027 5.544 57.911.01 5.763 16.287 19.631 28.676 36.608 32.471v46.868c0 36.152-29.412 65.564-65.564 65.564s-65.564-29.412-65.564-65.565zm65.564 87.565c7.532 0 14.845-.956 21.824-2.753l3.004 12.937-24.828 34.339-24.827-34.339 3.004-12.937c6.978 1.796 14.291 2.753 21.823 2.753zm-64.667 37.528c1.761-5.045 5.763-8.597 10.981-9.746l12.454-2.741 22.579 31.23c-11.477 4.315-20.088 11.242-25.944 17.287l-17.536-21.569c-3.371-4.145-4.295-9.416-2.534-14.461zm-72.671 49.663c3.637-17.273 17.17-30.682 34.476-34.161l16.065-3.229c1.165 5.779 3.711 11.292 7.594 16.067l26.157 32.172c2.098 2.581 5.239 4.061 8.534 4.061 3.919.01 7.604-2.123 9.543-5.529.095-.166 8.021-13.668 23.969-19.669v80.781h-80.873v-31.147c0-6.075-4.925-11-11-11s-11 4.925-11 11v31.147h-38.311zm354.664 124.86h-434.652l-11.907-32.367h458.466z"/><path d="m282.221 223.248c4.915-3.571 6.004-10.45 2.433-15.365-3.57-4.914-10.449-6.004-15.365-2.433-7.948 5.775-18.63 5.775-26.578 0-4.916-3.572-11.794-2.481-15.365 2.433-3.571 4.915-2.482 11.794 2.433 15.365 7.842 5.698 17.031 8.546 26.221 8.546s18.379-2.848 26.221-8.546z"/></g><g><g><path d="m75.262 329.693c-8.568 0-17.136-3.262-23.659-9.784-13.045-13.046-13.045-34.273 0-47.318l10.662-10.662c13.046-13.044 34.272-13.045 47.318 0 13.045 13.046 13.045 34.273 0 47.318l-10.662 10.662c-6.523 6.522-15.09 9.784-23.659 9.784zm10.662-55.564c-3.061 0-5.938 1.191-8.102 3.356l-10.662 10.662c-4.468 4.468-4.468 11.737 0 16.205 2.164 2.165 5.042 3.356 8.103 3.356s5.938-1.191 8.102-3.356l10.662-10.662c4.468-4.468 4.468-11.737 0-16.205-2.165-2.164-5.042-3.356-8.103-3.356z" fill="#0496FF"/></g><g><path d="m436.74 329.692c-8.568 0-17.135-3.261-23.658-9.784l-10.662-10.662c-6.319-6.319-9.8-14.721-9.8-23.659 0-8.937 3.48-17.339 9.8-23.659 6.319-6.319 14.721-9.8 23.658-9.8 8.938 0 17.339 3.48 23.659 9.799l10.662 10.662c13.045 13.045 13.045 34.272 0 47.318-6.523 6.524-15.091 9.785-23.659 9.785zm-10.661-55.558c-2.935 0-5.869 1.117-8.103 3.351-2.165 2.164-3.356 5.042-3.356 8.103s1.192 5.938 3.356 8.103l10.661 10.662c4.467 4.467 11.737 4.467 16.206 0 4.467-4.468 4.467-11.737 0-16.205l-10.662-10.662c-2.234-2.235-5.168-3.352-8.102-3.352z" fill="#0496FF"/></g></g></g><g/><g/><g/><g/><g/><g/><g/><g/><g/><g/><g/><g/><g/><g/><g/></svg>