<svg id="Capa_1" enable-background="new 0 0 512 512" viewBox="0 0 512 512" xmlns="http://www.w3.org/2000/svg" fill="#E6ECF2"><g><g><path d="m501 101.068h-47.1v-52.251c0-6.075-4.925-11-11-11h-106.758c-6.075 0-11 4.925-11 11v52.251h-47.1c-6.075 0-11 4.925-11 11v303.072c0 6.075 4.925 11 11 11h15.829v37.043c0 6.075 4.925 11 11 11h48.435c6.075 0 11-4.925 11-11v-37.043h50.431v37.043c0 6.075 4.925 11 11 11h48.436c6.075 0 11-4.925 11-11v-37.043h15.827c6.075 0 11-4.925 11-11v-303.072c0-6.075-4.925-11-11-11zm-69.1-41.251v92.201h-84.758v-92.201zm-106.758 63.251v28.949h-.998c-6.075 0-11 4.925-11 11s4.925 11 11 11h130.753c6.075 0 11-4.925 11-11s-4.925-11-11-11h-.997v-28.949h36.1v82.297h-200.958v-82.297zm17.164 329.115h-26.435v-26.043h26.435zm120.866 0h-26.436v-26.043h26.436zm-174.13-48.043v-176.774h200.958v176.774z"/><path d="m233.958 101.068h-47.1v-52.251c0-6.075-4.925-11-11-11h-106.758c-6.075 0-11 4.925-11 11v52.251h-47.1c-6.075 0-11 4.925-11 11v303.072c0 6.075 4.925 11 11 11h15.828v37.043c0 6.075 4.925 11 11 11h48.436c6.075 0 11-4.925 11-11v-37.043h50.431v37.043c0 6.075 4.925 11 11 11h48.435c6.075 0 11-4.925 11-11v-37.043h15.829c6.075 0 11-4.925 11-11v-303.072c-.001-6.075-4.926-11-11.001-11zm-69.1-41.251v92.201h-84.758v-92.201zm-106.758 63.251v28.949h-.998c-6.075 0-11 4.925-11 11s4.925 11 11 11h130.753c6.075 0 11-4.925 11-11s-4.925-11-11-11h-.998v-28.949h36.1v82.297h-200.957v-82.297zm17.164 329.115h-26.436v-26.043h26.436zm120.865 0h-26.435v-26.043h26.435zm-174.129-48.043v-176.774h200.958v176.774z"/></g><g fill="#0496FF"><path d="m129.051 262.488c-2.089-2.397-5.113-3.774-8.293-3.774s-6.205 1.376-8.293 3.774l-16.845 19.332c-6.34 7.276-9.832 16.599-9.832 26.249v52.072c0 6.075 4.925 11 11 11s11-4.925 11-11v-16.509h25.937v16.509c0 6.075 4.925 11 11 11s11-4.925 11-11v-52.072c0-9.65-3.491-18.972-9.831-26.249zm-21.262 59.144v-13.563c0-4.337 1.569-8.526 4.418-11.797l8.55-9.813 8.55 9.812c2.849 3.271 4.418 7.46 4.418 11.797v13.563h-25.936z"/><path d="m411.081 309.184c3.046-4.875 4.808-10.631 4.808-16.791v-1.905c0-17.52-14.254-31.774-31.774-31.774h-18.812c-6.075 0-11 4.925-11 11v90.427c0 6.075 4.925 11 11 11h24.949c19.016 0 34.487-15.471 34.487-34.487 0-11.197-5.364-21.166-13.658-27.47zm-34.778-28.47h7.812c5.389 0 9.774 4.385 9.774 9.774v1.905c0 5.389-4.385 9.774-9.774 9.774h-7.812zm13.949 68.428h-13.949v-24.974h13.949c6.885 0 12.487 5.602 12.487 12.487s-5.602 12.487-12.487 12.487z"/><path d="m109.222 127.129c2.091 2.45 5.149 3.859 8.367 3.859h.111c3.258-.033 6.334-1.508 8.398-4.029l23.054-28.143c3.85-4.7 3.161-11.63-1.539-15.48s-11.631-3.162-15.48 1.539l-14.717 17.966-4.733-5.546c-3.944-4.622-10.888-5.171-15.508-1.227-4.621 3.944-5.17 10.887-1.227 15.508z"/><path d="m367.671 127.767c2.148 2.148 4.963 3.222 7.778 3.222s5.63-1.074 7.778-3.222l6.293-6.293 6.293 6.293c2.148 2.148 4.963 3.222 7.778 3.222s5.63-1.074 7.778-3.222c4.295-4.296 4.295-11.261 0-15.557l-6.293-6.293 6.293-6.293c4.295-4.296 4.295-11.261 0-15.557-4.296-4.296-11.261-4.295-15.557 0l-6.293 6.293-6.293-6.293c-4.297-4.296-11.261-4.296-15.557 0-4.295 4.296-4.295 11.261 0 15.557l6.293 6.293-6.293 6.293c-4.293 4.296-4.293 11.261.002 15.557z"/></g></g><g/><g/><g/><g/><g/><g/><g/><g/><g/><g/><g/><g/><g/><g/><g/></svg>