<svg id="Capa_1" enable-background="new 0 0 512 512" viewBox="0 0 512 512" xmlns="http://www.w3.org/2000/svg" fill="#052438"><g><g fill="#0496FF"><path d="m393.27 326.528h-126.267v-28.152c0-6.075-4.925-8.268-11-8.268s-11 2.193-11 8.268v28.152h-125.906c-16.896 0-30.642 13.746-30.642 30.642v13.684c0 6.075 4.925 11 11 11s11-4.925 11-11v-13.684c0-4.765 3.877-8.642 8.642-8.642h125.906v19.206c0 6.075 4.925 11 11 11s11-4.925 11-11v-19.206h126.267c4.765 0 8.642 3.876 8.642 8.642v12.803c0 6.075 4.925 11 11 11s11-4.925 11-11v-12.803c-.001-16.897-13.747-30.642-30.642-30.642z"/><path d="m110.572 143.132v30.206c0 6.075 4.925 11 11 11s11-4.925 11-11v-82.421c0-4.535-2.783-8.605-7.01-10.25-19.193-7.473-40.334-7.473-59.527 0-4.227 1.645-7.01 5.715-7.01 10.25v44.197c0 3.632 1.793 7.03 4.791 9.08 2.999 2.05 6.816 2.489 10.199 1.17 11.746-4.572 24.485-5.306 36.557-2.232zm-29.547-44.213c9.705-2.471 19.842-2.471 29.547 0v21.687c-4.886-.897-9.83-1.347-14.773-1.347s-9.888.449-14.773 1.347v-21.687z"/><path d="m445.965 80.666c-19.193-7.473-40.334-7.473-59.527 0-4.227 1.645-7.01 5.715-7.01 10.25v82.421c0 6.075 4.925 11 11 11s11-4.925 11-11v-30.206c12.072-3.074 24.811-2.34 36.557 2.232 1.29.502 2.643.75 3.989.75 2.186 0 4.354-.651 6.21-1.92 2.998-2.05 4.791-5.448 4.791-9.08v-44.196c0-4.536-2.784-8.606-7.01-10.251zm-14.99 39.939c-4.886-.897-9.83-1.347-14.773-1.347s-9.888.449-14.773 1.347v-21.686c9.705-2.471 19.842-2.471 29.547 0v21.686z"/></g><g><path d="m61.468 287.053c-6.075 0-11 4.925-11 11s4.925 11 11 11h389.064c6.075 0 11-4.925 11-11s-4.925-11-11-11h-17.321v-61.513h17.321c6.075 0 11-4.925 11-11s-4.925-11-11-11h-29.377v-29.202c0-6.075-4.925-11-11-11h-66.525v-25.264h.746c6.075 0 11-4.925 11-11s-4.925-11-11-11h-5.211c-2.243-40.074-32.939-72.652-72.165-77.853v-27.221c0-6.075-4.925-11-11-11s-11 4.925-11 11v27.221c-39.226 5.201-69.922 37.779-72.165 77.853h-5.211c-6.075 0-11 4.925-11 11s4.925 11 11 11h.746v25.264h-66.525c-6.075 0-11 4.925-11 11v29.202h-29.377c-6.075 0-11 4.925-11 11s4.925 11 11 11h17.321v61.514h-17.321zm106.902-61.513v61.514h-23.705v-61.514zm100.411 61.513h-25.562v-34.608c0-7.048 5.733-12.782 12.781-12.782s12.781 5.734 12.781 12.782zm74.849-61.513h23.705v61.514h-23.705zm67.581 61.513h-21.876v-61.513h21.876zm-12.056-101.715v18.202h-55.525v-18.202zm-143.155-125.866c32.219 0 58.695 24.99 61.107 56.602h-122.214c2.412-31.612 28.888-56.602 61.107-56.602zm65.63 78.602v148.979h-30.849v-34.608c0-19.179-15.603-34.782-34.781-34.782s-34.781 15.603-34.781 34.782v34.608h-30.849v-148.979zm-208.785 47.264h55.525v18.202h-55.525zm-12.056 40.202h21.876v61.514h-21.876z"/><path d="m130.106 443.67c6.501-7.325 10.46-16.954 10.46-27.495v-9.971c0-22.87-18.606-41.477-41.477-41.477h-.627c-22.87 0-41.477 18.606-41.477 41.477v9.971c0 10.541 3.959 20.17 10.46 27.495-20.254 11.113-34.017 32.643-34.017 57.33 0 6.075 4.925 11 11 11h108.695c6.075 0 11-4.925 11-11 0-24.687-13.763-46.217-34.017-57.33zm-31.644-8.018c-10.739 0-19.477-8.737-19.477-19.477v-9.971c0-10.739 8.737-19.477 19.477-19.477h.627c10.739 0 19.477 8.737 19.477 19.477v9.971c0 10.739-8.737 19.477-19.477 19.477zm-41.62 54.348c4.88-18.593 21.83-32.348 41.934-32.348s37.054 13.754 41.934 32.348z"/><path d="m287.33 443.67c6.501-7.325 10.46-16.954 10.46-27.495v-9.971c0-22.87-18.606-41.477-41.477-41.477h-.627c-22.87 0-41.477 18.606-41.477 41.477v9.971c0 10.541 3.959 20.17 10.46 27.495-20.254 11.113-34.017 32.642-34.017 57.33 0 6.075 4.925 11 11 11h108.695c6.075 0 11-4.925 11-11 .001-24.687-13.763-46.217-34.017-57.33zm-31.643-8.018c-10.739 0-19.477-8.737-19.477-19.477v-9.971c0-10.739 8.737-19.477 19.477-19.477h.627c10.739 0 19.477 8.737 19.477 19.477v9.971c0 10.739-8.737 19.477-19.477 19.477zm-41.621 54.348c4.88-18.593 21.83-32.348 41.934-32.348s37.054 13.754 41.934 32.348z"/><path d="m444.555 443.67c6.501-7.325 10.46-16.954 10.46-27.495v-9.971c0-22.87-18.606-41.477-41.477-41.477h-.627c-22.87 0-41.477 18.606-41.477 41.477v9.971c0 10.541 3.959 20.17 10.46 27.495-20.254 11.113-34.017 32.642-34.017 57.33 0 6.075 4.925 11 11 11h108.695c6.075 0 11-4.925 11-11 0-24.687-13.763-46.217-34.017-57.33zm-31.644-8.018c-10.739 0-19.477-8.737-19.477-19.477v-9.971c0-10.739 8.737-19.477 19.477-19.477h.627c10.739 0 19.477 8.737 19.477 19.477v9.971c0 10.739-8.737 19.477-19.477 19.477zm-41.62 54.348c4.88-18.593 21.83-32.348 41.934-32.348s37.054 13.754 41.934 32.348z"/></g><g><g><path d="m278.211 203.035c-6.075 0-11-4.925-11-11v-20.745c0-6.075 4.925-11 11-11s11 4.925 11 11v20.745c0 6.075-4.925 11-11 11z" fill="#0496FF"/></g><g><path d="m233.789 203.035c-6.075 0-11-4.925-11-11v-20.745c0-6.075 4.925-11 11-11s11 4.925 11 11v20.745c0 6.075-4.925 11-11 11z" fill="#0496FF"/></g></g></g><g/><g/><g/><g/><g/><g/><g/><g/><g/><g/><g/><g/><g/><g/><g/></svg>