<svg id="Layer_1" enable-background="new 0 0 512 512" viewBox="0 0 512 512" xmlns="http://www.w3.org/2000/svg" fill="#E6ECF2"><g><path d="m501 85h-33v-9c0-19.299-15.701-35-35-35h-153c-9.284 0-17.729 3.64-24 9.56-6.271-5.92-14.716-9.56-24-9.56h-153c-19.299 0-35 15.701-35 35v9h-33c-6.075 0-11 4.925-11 11v332c0 6.075 4.925 11 11 11h203.553c4.872 18.399 21.664 32 41.574 32s36.703-13.601 41.574-32h203.299c6.075 0 11-4.925 11-11v-332c0-6.075-4.925-11-11-11zm-435-9c0-7.168 5.832-13 13-13h153c7.168 0 13 5.832 13 13v54h22v-54c0-7.168 5.832-13 13-13h153c7.168 0 13 5.832 13 13v284c0 7.168-5.832 13-13 13h-153c-7.168 0-13-5.832-13-13v-54h-22v54c0 7.168-5.832 13-13 13h-153c-7.168 0-13-5.832-13-13zm424 341h-201.873c-6.075 0-11 4.925-11 11 0 11.58-9.42 21-21 21s-21-9.42-21-21c0-6.075-4.925-11-11-11h-202.127v-310h22v253c0 19.299 15.701 35 35 35h153c9.284 0 17.729-3.64 24-9.56 6.271 5.92 14.716 9.56 24 9.56h153c19.299 0 35-15.701 35-35v-253h22z"/><g fill="#0496FF"><path d="m199 188.862c-4.985 0-9.19 3.319-10.541 7.865-5.257-2.644-11.185-4.142-17.459-4.142-21.505 0-39 17.495-39 39s17.495 39 39 39c6.838 0 13.267-1.774 18.861-4.879 1.974 2.942 5.33 4.879 9.139 4.879 6.075 0 11-4.925 11-11v-59.723c0-6.075-4.925-11-11-11zm-28 59.723c-9.374 0-17-7.626-17-17s7.626-17 17-17 17 7.626 17 17-7.626 17-17 17z"/><path d="m376.068 243.539c-4.655-3.904-11.593-3.294-15.497 1.361-.367.438-.763.847-1.173 1.212-2.121 1.889-4.785 2.808-8.143 2.808-9.466 0-17.167-7.701-17.167-17.167s7.701-17.167 17.167-17.167c3.441 0 6.757 1.012 9.59 2.925 5.034 3.401 11.872 2.077 15.272-2.957s2.077-11.872-2.957-15.272c-6.484-4.38-14.059-6.696-21.906-6.696-21.597 0-39.167 17.57-39.167 39.167s17.57 39.167 39.167 39.167c8.745 0 16.62-2.897 22.776-8.38 1.205-1.074 2.348-2.252 3.397-3.503 3.906-4.657 3.296-11.595-1.359-15.498z"/><path d="m261.044 192.585c-6.091 0-11.859 1.406-17 3.906v-20.41c0-6.075-4.925-11-11-11s-11 4.925-11 11v83.504c0 6.075 4.925 11 11 11 3.809 0 7.165-1.937 9.139-4.879 5.594 3.104 12.023 4.879 18.861 4.879 21.505 0 39-17.495 39-39s-17.495-39-39-39zm0 56c-9.374 0-17-7.626-17-17s7.626-17 17-17 17 7.626 17 17-7.626 17-17 17z"/><path d="m389 119h-266c-19.299 0-35 15.701-35 35v128c0 19.299 15.701 35 35 35h266c19.299 0 35-15.701 35-35v-128c0-19.299-15.701-35-35-35zm13 163c0 7.168-5.832 13-13 13h-266c-7.168 0-13-5.832-13-13v-128c0-7.168 5.832-13 13-13h266c7.168 0 13 5.832 13 13z"/></g></g><g/><g/><g/><g/><g/><g/><g/><g/><g/><g/><g/><g/><g/><g/><g/></svg>