<svg id="Capa_1" enable-background="new 0 0 512.02 512.02" viewBox="0 0 512.02 512.02" xmlns="http://www.w3.org/2000/svg" fill="#E6ECF2"><g><g><path d="m180.951 7.673c-1.839-5.791-8.024-8.995-13.814-7.152-83.829 26.637-134.236 109.933-122.466 194.287l-11.809-8.584c-4.915-3.573-11.793-2.484-15.365 2.43s-2.484 11.793 2.43 15.365l35.426 25.752c4.797 3.662 12.279 2.324 15.574-2.727l24.445-36.076c3.408-5.029 2.093-11.869-2.936-15.277-5.029-3.407-11.869-2.094-15.277 2.936l-10.385 15.326c-11.5-74.675 32.83-148.889 107.024-172.466 5.791-1.839 8.993-8.024 7.153-13.814z" fill="#0496FF"/><path d="m482.891 365.333c6.886-12.649 11.236-26.328 12.947-40.739 1.894-16.089.371-32.068-4.528-47.493l-30.259-95.274c-6.856-21.59-29.847-34.049-51.251-27.766-9.518 2.792-17.491 8.706-22.848 16.835-2.317-1.941-4.857-3.651-7.606-5.074-9.815-5.084-21.022-6.04-31.555-2.692-6.729 2.138-12.529 5.85-17.13 10.598l-38.508-121.187c-6.294-21.34-30.904-34.087-51.963-26.913-20.304 6.451-32.168 27.206-28.027 47.634-6.944-1.319-14.148-.824-21.059 1.542-21.101 7.226-32.689 30.668-25.833 52.258l48.562 152.909-18.682 22.514-36.676-13.968c-30.268-11.525-64.184 2.676-77.213 32.332l-8.105 18.448c-2.416 5.499.025 11.92 5.485 14.424l186.03 85.315 9.52 29.976c4.984 15.692 15.779 28.504 30.397 36.075 14.649 7.592 31.376 8.98 46.999 4.01l102.006-32.413c32.385-10.292 50.363-45.018 40.076-77.411zm-22.43 2.057 12.242 38.542c6.616 20.833-4.944 43.167-25.771 49.785l-102.005 32.413c-10.087 3.206-20.819 2.29-30.219-2.578-9.4-4.869-16.342-13.108-19.547-23.2l-10.994-34.615c-.938-2.954-3.08-5.376-5.898-6.669l-180.616-82.832 3.751-8.537c8.31-18.914 29.94-27.969 49.242-20.622l44.03 16.768c4.398 1.675 9.375.367 12.38-3.255l27.545-33.195c2.392-2.883 3.152-6.784 2.018-10.353l-50.382-158.64c-3.266-10.283 2.113-21.401 11.993-24.784 5.064-1.733 10.458-1.336 15.197 1.123 4.48 2.322 7.805 6.211 9.422 10.968l39.999 125.883c1.825 5.843 8.182 8.99 13.814 7.152 5.79-1.84 8.992-8.025 7.152-13.814l-4.609-14.507c-.005-.015-.007-.03-.012-.046l-35.237-110.953c-.081-.254-.175-.502-.26-.755l-9.447-29.73c-3.236-10.188 2.417-21.108 12.601-24.345 4.933-1.567 10.179-1.118 14.775 1.261 4.596 2.381 7.991 6.41 9.559 11.347l49.566 155.991c.181.569.414 1.104.674 1.62l2.513 7.911c1.825 5.843 8.181 8.991 13.814 7.153 5.79-1.839 8.993-8.023 7.154-13.813l-3.056-9.622c-3.236-10.188 2.417-21.109 12.602-24.345 9.862-3.358 21.386 2.61 24.333 12.605l3.056 9.622c.181.568.414 1.103.674 1.619l2.561 8.064c4.932 13.731 24.866 7.387 20.968-6.66l-3.081-9.701c-1.568-4.938-1.121-10.184 1.27-14.791 2.447-4.737 6.624-8.177 11.76-9.685 10.018-2.935 20.824 3.034 24.089 13.316l30.259 95.273c3.946 12.425 5.173 25.298 3.648 38.25-1.54 12.967-5.734 25.203-12.466 36.369-1.632 2.713-2.019 5.995-1.061 9.012z"/></g></g><g/><g/><g/><g/><g/><g/><g/><g/><g/><g/><g/><g/><g/><g/><g/></svg>