<svg id="Capa_1" enable-background="new 0 0 511.992 511.992" viewBox="0 0 511.992 511.992" xmlns="http://www.w3.org/2000/svg" fill="#052438"><g><path d="m436.414 249.52c-9.408-3.32-19.391-3.179-28.536.319-3.369-13.347-13.279-24.75-27.298-29.349-9.185-3.014-18.679-2.622-27.124.461-3.166-13.694-13.2-25.464-27.502-30.156-6.571-2.156-13.42-2.634-20.044-1.476l31.06-94.661c3.456-10.53 2.601-21.779-2.4-31.665-5.153-10.209-14.029-17.665-24.993-20.994-21.409-6.502-44.586 5.773-51.669 27.36l-54.996 167.611-28.49 7.377-21.693-32.941c-17.873-27.141-53.811-35.486-81.815-18.999l-17.434 10.264c-5.176 3.047-6.951 9.685-3.985 14.909l101.575 178.958c-8.96 33.287 11.622 70.605 44.679 80.716l96.458 31.65c6.379 2.093 12.858 3.087 19.234 3.087 26.005 0 50.267-16.547 58.804-42.566l1.642-5.002c13.038-6.256 24.613-14.84 34.468-25.572 10.985-11.986 19.123-25.889 24.186-41.321l31.288-95.357c7.083-21.587-4.319-45.206-25.415-52.653zm4.512 45.795-31.288 95.357c-4.082 12.441-10.643 23.65-19.494 33.307-8.871 9.66-19.476 17.165-31.521 22.307-2.911 1.243-5.146 3.68-6.133 6.687l-3.148 9.594c-6.849 20.873-29.402 32.283-50.275 25.435l-96.459-31.65c-23.995-7.873-37.111-33.799-29.238-57.795.967-2.946.645-6.163-.885-8.859l-98.512-173.561 8.103-4.771c17.894-10.535 40.859-5.203 52.28 12.141l26.02 39.512c2.588 3.93 7.387 5.778 11.944 4.599l41.927-10.857c3.627-.939 6.526-3.66 7.694-7.22l56.87-173.324c3.384-10.314 14.316-16.222 24.374-13.167 5.156 1.565 9.327 5.066 11.749 9.866 2.353 4.651 2.755 9.937 1.132 14.883l-41.21 125.597c-.147.448-.253.898-.341 1.349-.335.837-.654 1.682-.938 2.546l-3.501 10.672c-1.894 5.772 1.25 11.987 7.022 13.881 5.773 1.894 11.987-1.25 13.881-7.022l3.501-10.671c1.624-4.95 5.079-8.972 9.728-11.323 4.649-2.352 9.936-2.753 14.885-1.129 10.219 3.353 15.805 14.395 12.452 24.613l-3.501 10.671c-.187.569-.311 1.142-.402 1.715l-2.598 7.919c-1.894 5.772 1.25 11.987 7.022 13.881 5.772 1.895 11.987-1.25 13.881-7.022l3.16-9.63c8.992-24.252 44.19-12.682 37.065 12.161l-3.16 9.631c-.186.567-.31 1.139-.401 1.71l-2.649 8.076c-1.894 5.772 1.25 11.987 7.022 13.881 5.773 1.893 11.987-1.251 13.881-7.023l3.185-9.709c1.625-4.952 5.077-8.97 9.739-11.323 4.786-2.427 10.22-2.776 15.301-.982 9.911 3.496 15.22 14.732 11.836 25.047z"/><g fill="#0496FF"><path d="m212.789 3.222c-4.296-4.296-11.261-4.295-15.557 0l-27.068 27.068-1.072-16.259c-.399-6.062-5.639-10.649-11.7-10.252-6.062.4-10.652 5.638-10.252 11.7l2.669 40.471c.284 5.381 4.89 9.978 10.271 10.253l40.398 2.597c5.991.408 11.312-4.198 11.683-10.272.39-6.062-4.209-11.293-10.272-11.683l-16.13-1.037 27.03-27.03c4.296-4.296 4.296-11.261 0-15.556z"/><path d="m137.183 132.096-2.597-40.398c-.276-5.381-4.873-9.986-10.253-10.271l-40.47-2.669c-6.074-.402-11.301 4.19-11.7 10.252-.4 6.062 4.19 11.3 10.252 11.7l16.258 1.073-27.07 27.07c-4.295 4.296-4.296 11.261 0 15.557s11.26 4.295 15.557 0l27.033-27.032 1.037 16.13c.371 6.075 5.692 10.681 11.683 10.272 6.061-.391 10.659-5.622 10.27-11.684z"/></g></g><g/><g/><g/><g/><g/><g/><g/><g/><g/><g/><g/><g/><g/><g/><g/></svg>