<svg id="Capa_1" enable-background="new 0 0 512 512" height="512" viewBox="0 0 512 512" width="512" xmlns="http://www.w3.org/2000/svg" fill="#052438"><g><g><path d="m353.593 242.602c-6.075 0-11-4.925-11-11v-40.664c0-6.075 4.925-11 11-11s11 4.925 11 11v40.664c0 6.075-4.925 11-11 11z"/><path d="m288.531 242.602c-6.075 0-11-4.925-11-11v-65.062c0-6.075 4.925-11 11-11s11 4.925 11 11v65.062c0 6.075-4.925 11-11 11z"/><path d="m418.656 242.602c-6.075 0-11-4.925-11-11v-16.266c0-6.075 4.925-11 11-11s11 4.925 11 11v16.266c0 6.075-4.925 11-11 11z"/><path d="m459.319 512c-6.075 0-11-4.925-11-11v-41.681c0-21.53 6.181-36.935 12.158-51.832 6.295-15.689 12.241-30.509 12.241-53.894v-138.257c0-11.872-9.659-21.531-21.531-21.531s-21.531 9.659-21.531 21.531c0 6.075-4.925 11-11 11s-11-4.925-11-11v-24.398c0-11.872-9.659-21.531-21.531-21.531s-21.531 9.659-21.531 21.531c0 6.075-4.925 11-11 11s-11-4.925-11-11v-24.398c0-11.872-9.659-21.531-21.531-21.531s-21.531 9.659-21.531 21.531c0 6.075-4.925 11-11 11s-11-4.925-11-11v-123.009c-.001-11.872-9.66-21.531-21.532-21.531s-21.531 9.659-21.531 21.531v228.734c0 24.003-19.528 43.531-43.531 43.531-9.456 0-17.388-3.869-22.637-6.429-9.259-4.518-16.67-8.354-23.208-11.738-20.193-10.453-27.75-14.364-43.616-14.364-15.048 0-23.846 16.288-27.69 25.766l99.459 76.507c41.616 32.014 61.222 52.136 61.222 98.18v17.282c0 6.075-4.925 11-11 11s-11-4.925-11-11v-17.282c0-34.969-11.856-49.372-52.636-80.742l-105.725-81.328c-3.488-2.683-5.042-7.187-3.949-11.449.512-1.998 12.98-48.934 51.319-48.934 21.223 0 32.086 5.623 53.729 16.827 6.43 3.328 13.717 7.101 22.74 11.503 4.88 2.38 8.937 4.201 12.991 4.201 11.872 0 21.531-9.659 21.531-21.531v-228.734c.001-24.003 19.529-43.531 43.532-43.531s43.531 19.528 43.531 43.531v85.184c6.353-3.63 13.705-5.707 21.531-5.707 19.715 0 36.412 13.175 41.748 31.183 6.744-4.294 14.745-6.784 23.315-6.784 19.715 0 36.412 13.175 41.748 31.182 6.744-4.294 14.744-6.783 23.314-6.783 24.003 0 43.531 19.528 43.531 43.531v138.258c0 27.634-7.344 45.938-13.823 62.086-5.674 14.144-10.575 26.358-10.575 43.64v41.679c-.001 6.075-4.926 11-11.001 11z"/><g fill="#0496FF"><path d="m60.813 177.539c-2.917 0-5.715-1.159-7.778-3.222l-32.531-32.531c-4.295-4.296-4.295-11.261 0-15.557 4.296-4.295 11.261-4.295 15.557 0l24.753 24.753 24.752-24.753c4.296-4.295 11.261-4.295 15.557 0 4.295 4.296 4.295 11.261 0 15.557l-32.531 32.531c-2.063 2.063-4.861 3.222-7.779 3.222z"/><path d="m134.008 104.345c-2.815 0-5.63-1.074-7.778-3.222-4.295-4.296-4.295-11.261 0-15.557l24.753-24.753-24.753-24.752c-4.295-4.296-4.295-11.261 0-15.557 4.296-4.295 11.261-4.295 15.557 0l32.531 32.531c4.295 4.296 4.295 11.261 0 15.557l-32.531 32.531c-2.148 2.148-4.964 3.222-7.779 3.222z"/><path d="m60.813 177.539c-6.075 0-11-4.925-11-11v-40.663c0-41.941 34.121-76.062 76.062-76.062h40.664c6.075 0 11 4.925 11 11s-4.925 11-11 11h-40.664c-29.81 0-54.062 24.252-54.062 54.062v40.663c0 6.075-4.924 11-11 11z"/></g></g><path d="m476.925 512h-276.514c-6.075 0-11-4.925-11-11s4.925-11 11-11h276.515c6.075 0 11 4.925 11 11s-4.926 11-11.001 11z" fill="#0496FF"/></g></svg>