<svg id="Capa_1" enable-background="new 0 0 511.93 511.93" viewBox="0 0 511.93 511.93" xmlns="http://www.w3.org/2000/svg" fill="#052438"><g><path d="m408.457 178.864c-9.861 0-18.924 3.464-26.052 9.23-10.64-17.855-36.197-25.012-54.748-14.438v-132.226c-2.093-54.993-80.923-54.952-82.996 0v4.014c-26.877-14.875-61.419 5.751-60.996 36.621v122.006c-15.033 2.3-28.89 9.298-39.822 20.284-13.557 13.623-20.971 31.71-20.878 50.928l.163 33.625c.162 43.915 23.304 83.928 60.842 105.995v35.195c0 34.095 27.737 61.833 61.83 61.833h107.454c34.093 0 61.83-27.738 61.83-61.833v-46.951c22.223-21.337 34.87-50.876 34.87-81.829v-100.954c.001-22.883-18.615-41.5-41.497-41.5zm19.498 142.453c0 26.319-11.345 51.371-31.126 68.731-2.38 2.089-3.744 5.101-3.744 8.268v51.781c0 21.964-17.868 39.833-39.83 39.833h-107.453c-21.962 0-39.83-17.869-39.83-39.833l-.001-41.684c0-4.113-2.294-7.882-5.947-9.771-33.721-17.436-54.755-51.852-54.895-89.829l-.163-33.638c-.065-13.322 5.075-25.86 14.472-35.303 6.753-6.785 15.114-11.38 24.228-13.428v28.453 35.583c.541 14.579 21.464 14.568 22 0v-35.583-40.667-132.165c.983-25.84 38.022-25.821 38.996 0v112.85 15.328c.541 14.579 21.464 14.568 21.999 0v-15.309c0-.007.001-.013.001-.019v-112.85c0-.013-.001-.026-.001-.038v-40.597c.983-25.84 38.022-25.822 38.996 0v168.813c0 .6.061 1.184.153 1.757v8.331c.541 14.579 21.464 14.568 22 0v-10.134c.984-25.84 38.022-25.821 38.996 0v10.134c0 .597.061 1.179.152 1.751v8.494c.541 14.579 21.464 14.568 22 0v-10.211c.983-25.842 38.021-25.823 38.996-.001v100.953z"/><path d="m141.6 124.997c-4.377-4.213-11.34-4.081-15.554.296l-11.413 11.856v-126.219c-.541-14.579-21.464-14.568-22 0v126.424l-11.774-12.103c-4.236-4.354-11.2-4.451-15.555-.214-4.354 4.236-4.45 11.2-.214 15.555l30.659 31.515c2.077 2.136 4.934 3.337 7.913 3.329 2.98-.008 5.829-1.225 7.896-3.371l30.337-31.515c4.214-4.376 4.081-11.339-.295-15.553z" fill="#0496FF"/></g><g/><g/><g/><g/><g/><g/><g/><g/><g/><g/><g/><g/><g/><g/><g/></svg>