<svg id="Capa_1" enable-background="new 0 0 512 512" height="512" viewBox="0 0 512 512" width="512" xmlns="http://www.w3.org/2000/svg" fill="#052438"><g><g><path d="m134.012 33.548h-97.02l14.439-14.891c4.229-4.361 4.122-11.325-.239-15.554s-11.325-4.121-15.555.239l-32.53 33.549c-.087.09-.161.187-.244.278-2.05 2.222-3.085 5.33-2.81 8.338.21 2.556 1.368 5.003 3.173 6.819 0 0 32.531 32.531 32.531 32.531 2.148 2.147 4.963 3.222 7.778 3.222 9.61.1 14.73-11.93 7.778-18.778 0 0-13.753-13.753-13.753-13.753h96.452c6.075 0 11-4.925 11-11s-4.925-11-11-11z" fill="#0496FF"/><path d="m377.988 54.558h97.02l-14.439 14.891c-4.229 4.361-4.122 11.325.239 15.554s11.325 4.121 15.555-.239l32.531-33.548c.087-.09.161-.187.244-.278 2.05-2.222 3.085-5.33 2.81-8.338-.21-2.556-1.368-5.003-3.173-6.819l-32.531-32.532c-2.148-2.147-4.963-3.222-7.778-3.222-9.61-.1-14.73 11.93-7.778 18.778 0 0 13.753 13.753 13.753 13.753h-96.452c-6.075 0-11 4.925-11 11s4.924 11 10.999 11z" fill="#0496FF"/><path d="m418.659 171.805c-8.57 0-16.571 2.49-23.315 6.784-5.336-18.008-22.033-31.183-41.748-31.183-7.826 0-15.178 2.077-21.531 5.707v-109.582c.001-24.003-19.527-43.531-43.53-43.531-22.6 0-41.232 17.31-43.334 39.368-6.398-3.701-13.82-5.82-21.729-5.82-24.003 0-43.531 19.528-43.531 43.531v171.983c-9.711-11.938-16.579-19.933-21.886-25.239-12.203-12.202-27.271-19.487-40.309-19.487-35.243 0-48.528 19.148-49.926 21.332-1.983 3.095-2.289 6.976-.815 10.343l56.93 130.125c9.638 22.031 22.205 36.206 33.292 48.712 13.187 14.875 22.715 25.622 22.715 44.472v30.68h22v-30.681c0-27.198-13.724-42.678-28.253-59.066-10.497-11.84-21.352-24.083-29.599-42.936l-53.954-123.321c4.45-3.329 13.041-7.66 27.61-7.66 7.113 0 16.829 5.12 24.753 13.044 7.536 7.535 19.811 22.633 39.826 47.856 2.909 3.665 7.817 5.09 12.237 3.549 4.419-1.54 7.379-5.707 7.379-10.387v-203.319c0-11.872 9.659-21.531 21.531-21.531 11.873 0 21.531 9.659 21.531 21.531v154.522c0 6.075 4.925 11 11 11s11-4.925 11-11v-188.07c0-11.872 9.659-21.531 21.531-21.531s21.531 9.659 21.531 21.531v188.07c0 6.075 4.925 11 11 11s11-4.925 11-11v-40.664c0-11.872 9.659-21.531 21.531-21.531s21.531 9.659 21.531 21.531v40.664c0 6.075 4.925 11 11 11s11-4.925 11-11v-16.266c0-11.872 9.659-21.531 21.531-21.531s21.531 9.659 21.531 21.531v138.258c0 23.385-5.946 38.204-12.241 53.895-5.977 14.896-12.157 30.301-12.157 51.831v30.681h22v-30.681c0-17.281 4.901-29.496 10.575-43.64 6.479-16.148 13.823-34.452 13.823-62.086v-138.257c.001-24.003-19.527-43.531-43.53-43.531z"/></g><path d="m444.19 512h-276.514c-6.075 0-11-4.925-11-11s4.925-11 11-11h276.514c6.075 0 11 4.925 11 11s-4.925 11-11 11z" fill="#0496FF"/></g></svg>