<svg id="Capa_1" enable-background="new 0 0 511.93 511.93" viewBox="0 0 511.93 511.93" xmlns="http://www.w3.org/2000/svg" fill="#052438"><g><path d="m141.526 124.997c-4.376-4.212-11.34-4.081-15.554.296l-11.412 11.855v-126.218c-.541-14.579-21.464-14.568-22 0v126.425l-11.774-12.103c-4.235-4.354-11.199-4.45-15.556-.214-4.354 4.236-4.45 11.2-.214 15.555l30.659 31.515c2.078 2.136 4.935 3.337 7.914 3.329s5.829-1.225 7.896-3.371l30.337-31.515c4.212-4.377 4.081-11.34-.296-15.554z" fill="#0496FF"/><path d="m408.532 160.586c-9.861 0-18.925 3.463-26.053 9.23-12.295-20.411-42.011-25.852-60.719-10.505-10.418-18.259-36.206-25.814-55.024-15.195v-102.688c-2.093-54.991-80.923-54.949-82.996 0v144.363c-34.116 4.646-61.536 36.621-60.699 71.208l.163 33.622c.162 43.912 23.305 83.923 60.843 105.988v53.49c0 34.093 27.736 61.83 61.829 61.83h107.454c34.093 0 61.83-27.737 61.83-61.83v-65.246c22.223-21.335 34.87-50.872 34.87-81.824v-100.945c0-22.883-18.617-41.498-41.498-41.498zm19.498 142.444c0 26.317-11.345 51.367-31.126 68.726-2.38 2.089-3.744 5.102-3.744 8.268v70.076c0 21.962-17.868 39.83-39.83 39.83h-107.455c-21.962 0-39.829-17.868-39.829-39.83l-.001-59.979c0-4.113-2.295-7.882-5.947-9.771-33.721-17.436-54.755-51.849-54.895-89.822l-.163-33.635c-.064-13.321 5.074-25.857 14.472-35.3 6.752-6.785 15.113-11.38 24.228-13.429v28.45 35.581c.541 14.579 21.464 14.568 22 0v-35.581-40.664-154.522c.983-25.838 38.022-25.818 38.996 0v135.208c0 .473.04.936.098 1.393-.058.895-.098 1.795-.098 2.705v11.229c.541 14.579 21.464 14.568 22 0v-11.229c.983-25.838 38.022-25.818 38.996 0v11.229c0 .597.061 1.18.152 1.751v8.336c.541 14.579 21.464 14.568 22 0v-10.133c.983-25.838 38.022-25.818 38.996 0v10.133c0 .6.061 1.184.153 1.757v8.487c.541 14.579 21.464 14.568 22 0v-10.21c.983-25.839 38.022-25.819 38.996-.001v100.947z"/></g><g/><g/><g/><g/><g/><g/><g/><g/><g/><g/><g/><g/><g/><g/><g/></svg>