<svg id="Capa_1" enable-background="new 0 0 512 512" height="512" viewBox="0 0 512 512" width="512" xmlns="http://www.w3.org/2000/svg" fill="#052438"><path d="m386.124 155.031c-8.57 0-16.57 2.49-23.314 6.784-5.336-18.007-22.032-31.182-41.747-31.182-7.826 0-15.179 2.077-21.531 5.707v-92.809c-.001-24.003-19.529-43.531-43.532-43.531s-43.531 19.528-43.531 43.531v92.809c-6.353-3.63-13.705-5.707-21.531-5.707-24.003 0-43.531 19.528-43.531 43.531v22.039h-5.266c-32.972 0-59.796 26.825-59.796 59.797v97.593c0 30.285 20.316 49.274 38.241 66.027 14.392 13.452 26.82 25.068 26.82 39.699v30.681h22v-30.681c0-24.181-17.182-40.241-33.799-55.771-16.077-15.027-31.263-29.221-31.263-49.955v-97.593c0-20.841 16.955-37.797 37.796-37.797h5.266v62.195c0 6.075 4.925 11 11 11s11-4.925 11-11v-73.195-33.039c0-11.873 9.659-21.531 21.531-21.531s21.531 9.659 21.531 21.531v41.172c0 6.075 4.925 11 11 11s11-4.925 11-11v-41.172-130.633c.001-11.872 9.66-21.531 21.532-21.531s21.531 9.659 21.531 21.531v130.633 41.172c0 6.075 4.925 11 11 11s11-4.925 11-11v-41.172c0-11.873 9.659-21.531 21.531-21.531s21.531 9.659 21.531 21.531v24.398 16.774c0 6.075 4.925 11 11 11s11-4.925 11-11v-16.774c0-11.872 9.658-21.531 21.53-21.531s21.531 9.659 21.531 21.531v138.766c0 23.385-5.946 38.205-12.241 53.895-5.977 14.897-12.157 30.301-12.157 51.831v46.946h22v-46.946c0-17.281 4.9-29.496 10.575-43.639 6.479-16.149 13.823-34.453 13.823-62.087v-138.766c.001-24.003-19.527-43.531-43.53-43.531z"/><path d="m413.393 512h-276.515c-6.075 0-11-4.925-11-11s4.925-11 11-11h276.515c6.075 0 11 4.925 11 11s-4.925 11-11 11z" fill="#0496FF"/></svg>