<svg id="Capa_1" enable-background="new 0 0 512 512" viewBox="0 0 512 512" xmlns="http://www.w3.org/2000/svg" fill="#E6ECF2"><g><path d="m408.52 178.934c-9.861 0-18.924 3.464-26.052 9.23-10.64-17.854-36.196-25.012-54.747-14.439v-132.225c-2.093-54.994-80.923-54.952-82.996 0v4.014c-26.877-14.875-61.419 5.751-60.996 36.621v122.006c-15.033 2.3-28.89 9.298-39.822 20.284-13.557 13.623-20.971 31.71-20.878 50.928l.163 33.625c.162 43.915 23.304 83.928 60.842 105.995v35.195c0 34.095 27.737 61.833 61.83 61.833h107.454c34.093 0 61.83-27.738 61.83-61.833v-46.951c22.223-21.337 34.87-50.876 34.87-81.829v-100.954c0-22.884-18.617-41.5-41.498-41.5zm19.498 142.453c0 26.319-11.345 51.371-31.126 68.732-2.38 2.089-3.744 5.101-3.744 8.267v51.781c0 21.964-17.868 39.833-39.83 39.833h-107.454c-21.962 0-39.83-17.869-39.83-39.833v-41.684c0-4.113-2.294-7.882-5.947-9.771-33.721-17.436-54.755-51.852-54.895-89.829l-.163-33.638c-.065-13.322 5.075-25.86 14.472-35.303 6.752-6.785 15.114-11.38 24.228-13.428v28.453 35.584c.541 14.579 21.464 14.568 22 0v-35.584-40.667-132.165c.983-25.84 38.022-25.821 38.996 0v112.85 15.328c.541 14.579 21.464 14.568 22 0v-15.328-112.85-40.635c.983-25.841 38.022-25.821 38.996 0v168.813c0 .598.061 1.182.153 1.754v8.334c.541 14.579 21.464 14.568 22 0v-10.134c.983-25.841 38.022-25.821 38.996 0v10.134c0 .599.061 1.182.153 1.754v8.491c.541 14.579 21.464 14.568 22 0v-10.211c.983-25.842 38.022-25.823 38.996-.002v100.954z"/><path d="m141.918 34.844-30.659-31.514c-2.077-2.136-4.934-3.337-7.913-3.33-2.98.008-5.829 1.225-7.896 3.371l-30.338 31.515c-9.72 10.876 5.356 25.382 15.85 15.258l11.413-11.856v126.218c.541 14.579 21.464 14.568 22 0v-126.424l11.774 12.103c10.553 10.072 25.543-4.524 15.769-15.341z" fill="#0496FF"/></g><g/><g/><g/><g/><g/><g/><g/><g/><g/><g/><g/><g/><g/><g/><g/></svg>