<svg id="Capa_1" enable-background="new 0 0 512.017 512.017" height="512" viewBox="0 0 512.017 512.017" width="512" xmlns="http://www.w3.org/2000/svg" fill="#052438"><g><path d="m378.231 198.558-28.719-71.203 26.931-64.7c10.453-21.399 1.697-47.363-19.648-58.037-10.399-5.2-22.202-6.039-33.233-2.361-8.202 2.733-15.243 7.724-20.455 14.376-5.212-6.653-12.253-11.643-20.455-14.376-11.033-3.678-22.835-2.838-33.232 2.361-21.299 10.649-30.062 36.52-19.72 57.892l24.622 64.039-11.915 27.714c-2.105-22.055-20.729-39.363-43.326-39.363-19.72 0-36.41 13.185-41.741 31.199-6.747-4.299-14.745-6.802-23.32-6.802-24.003 0-43.53 19.527-43.53 43.53v154.52c0 27.634 7.344 45.937 13.822 62.086 5.675 14.143 10.575 26.356 10.575 43.638v46.947h22v-46.948c0-21.53-6.181-36.934-12.157-51.83-6.295-15.689-12.24-30.509-12.24-53.894v-76.046c6.354 3.633 13.701 5.721 21.53 5.721 12.928 0 24.551-5.671 32.53-14.648 7.98 8.978 19.604 14.648 32.531 14.648 10.505 0 20.152-3.74 27.681-9.959 8.729 16.203 25.854 27.241 45.513 27.241h21.944c-7.05 8.446-13.336 19.986-16.466 35.638-1.191 5.957 2.672 11.752 8.629 12.943 5.952 1.187 11.751-2.672 12.943-8.629 6.494-32.47 30.916-39.824 32.586-40.29 5.428-1.272 8.95-6.385 8.319-11.929-.632-5.559-5.434-9.733-11.028-9.733h-56.928c-16.356 0-29.663-13.307-29.663-29.663v-14.415h119.121c20.841 0 37.796 16.955 37.796 37.796v81.326c0 21.642-11.484 35.953-23.644 51.105-12.365 15.41-25.152 31.345-25.152 54.618v46.947h22v-46.947c0-15.538 9.413-27.268 20.312-40.85 13.352-16.639 28.484-35.497 28.484-64.874v-81.326c0-27.248-18.327-50.281-43.297-57.462zm-222.681 24.932c0 11.872-9.658 21.53-21.53 21.53s-21.53-9.658-21.53-21.53v-40.663c0-11.872 9.658-21.53 21.53-21.53s21.53 9.658 21.53 21.53zm65.061-16.38v.102.013 16.266c0 11.872-9.658 21.53-21.53 21.53s-21.531-9.658-21.531-21.53v-65.061c0-11.872 9.659-21.53 21.531-21.53s21.53 9.658 21.53 21.53zm97.587-173.439c2.59-5.017 6.954-8.755 12.32-10.544 5.457-1.817 11.294-1.403 16.437 1.169 10.619 5.31 14.938 18.268 9.63 28.887-.113.227-.219.458-.316.691l-18.483 44.405-22.927-56.839zm-69.884 162.553 17.313-40.271 15.484 40.271zm56.367 0-54.624-142.07c-.127-.331-.271-.655-.429-.972-5.31-10.619-.989-23.577 9.63-28.888 5.143-2.57 10.98-2.985 16.437-1.168 5.331 1.777 9.674 5.479 12.269 10.444l65.605 162.653h-48.888z"/><path d="m380.934 512.017h-276.514c-6.075 0-11-4.925-11-11s4.925-11 11-11h276.515c6.075 0 11 4.925 11 11s-4.925 11-11.001 11z" fill="#0496FF"/></g></svg>