<svg id="Capa_1" enable-background="new 0 0 512 512" viewBox="0 0 512 512" xmlns="http://www.w3.org/2000/svg" fill="#E6ECF2"><g><path d="m407.556 178.945c-9.491.224-18.129 3.71-24.973 9.341-10.606-17.939-36.225-25.162-54.826-14.562v-132.224c-2.093-54.994-80.923-54.952-82.996 0v4.014c-26.876-14.875-61.419 5.75-60.996 36.62v122.008c-34.647 4.629-61.645 37.332-60.695 72.258l.158 32.577c.162 43.915 23.304 83.928 60.842 105.995v35.197c0 34.148 27.682 61.83 61.83 61.83h107.45c34.15 0 61.833-27.684 61.833-61.833v-46.951c22.223-21.337 34.87-50.876 34.87-81.829v-100.952c.001-23.216-19.16-42.04-42.497-41.489zm20.498 142.442c0 26.357-11.377 51.442-31.21 68.805-2.353 2.06-3.66 5.066-3.66 8.194v51.785c0 21.997-17.832 39.829-39.829 39.829h-107.451c-21.999 0-39.833-17.834-39.833-39.833v-41.683c0-4.113-2.294-7.882-5.947-9.771-33.721-17.437-54.755-51.852-54.895-89.829l-.163-33.637c-.065-13.322 5.075-25.86 14.472-35.303 6.752-6.785 15.114-11.38 24.227-13.428v28.452 24.584c0 6.075 4.925 11 11 11s11-4.925 11-11v-24.579c0-.001 0-.003 0-.004v-172.834c.983-25.841 38.022-25.821 38.996 0v112.85 15.328c.541 14.579 21.464 14.568 22 0v-15.328-112.85-40.635c.983-25.84 38.022-25.821 38.996 0v168.812c0 .597.061 1.179.152 1.751v8.337c.541 14.579 21.464 14.568 22 0v-10.134c.983-25.84 38.022-25.821 38.996 0v10.134c0 .6.061 1.184.153 1.757v8.488c.682 14.802 21.541 14.459 22-.365v-9.846c1.153-26.108 38.14-25.715 38.995.476v100.477z"/><path d="m126.071 125.363-11.733 12.189v-99.469l11.773 12.102c4.237 4.354 11.2 4.45 15.555.214 4.354-4.236 4.45-11.201.214-15.555l-30.657-31.514c-2.078-2.136-4.934-3.337-7.913-3.33-2.98.008-5.829 1.225-7.896 3.371l-30.338 31.515c-9.72 10.876 5.356 25.382 15.85 15.258l11.413-11.856v98.806l-11.453-11.773c-4.237-4.354-11.2-4.45-15.555-.214-4.354 4.236-4.45 11.201-.214 15.555l30.658 31.515c2.078 2.136 4.934 3.337 7.914 3.33 2.98-.008 5.829-1.225 7.896-3.371l30.337-31.515c4.213-4.377 4.081-11.34-.296-15.554-4.378-4.213-11.341-4.081-15.555.296z" fill="#0496FF"/></g><g/><g/><g/><g/><g/><g/><g/><g/><g/><g/><g/><g/><g/><g/><g/></svg>