<svg id="Capa_1" enable-background="new 0 0 511.882 511.882" viewBox="0 0 511.882 511.882" xmlns="http://www.w3.org/2000/svg" fill="#052438"><g><g><path d="m56.481 390.578c-1.946 0-3.916-.516-5.7-1.6-87.029-53.106-55.598-187.922 46.024-196.545 21.038-1.729 41.86 2.782 60.23 13.046 5.303 2.963 7.2 9.665 4.237 14.968s-9.665 7.199-14.968 4.237c-81.08-44.324-163.066 55.251-105.434 126.944 6.066 7.393 13.243 13.634 21.332 18.546 5.192 3.154 6.846 9.919 3.692 15.112-2.071 3.409-5.697 5.292-9.413 5.292z" fill="#0496FF"/></g><g><path d="m151.669 153.884c-6.075 0-11-4.925-11-11-.762-47.21 34.54-91.697 80.748-100.992 30.388-43.263 94.276-55.172 138.08-25.556 51.107-2.933 96.777 33.374 106.093 83.205 12.905 5.457 24.72 13.646 34.469 23.937 3.518 3.712 6.787 7.712 9.712 11.887 3.486 4.975 2.279 11.835-2.696 15.321-4.974 3.487-11.834 2.28-15.321-2.696-9.714-13.889-23.72-24.65-39.63-30.064-3.971-1.37-6.814-4.881-7.329-9.05-5.092-42.909-44.38-74.585-87.28-70.336-2.615.246-5.232-.454-7.377-1.972-35.539-26.16-89.373-15.943-113.096 21.37-1.684 2.534-4.341 4.258-7.341 4.762-17.095 2.87-32.531 11.142-44.639 23.92-14.44 15.24-22.393 35.222-22.393 56.264 0 6.075-4.925 11-11 11z" fill="#0496FF"/></g><path d="m427.046 152.708c-7.312-.161-14.332 1.551-20.552 4.912v-38.747c.316-33.215-38.281-53.301-65.084-34.126-18.957-39.442-78.462-26.512-78.904 17.825v2.975c-6.186-3.309-13.151-4.989-20.398-4.827-22.342.499-40.519 19.414-40.519 42.165v138.053l-24.714 15.911-41.927-33.426c-19.191-15.3-46.907-12.823-63.096 5.638-16.452 18.759-14.839 47.692 3.594 64.496l126.631 115.441c2.571 35.109 31.877 62.885 67.531 62.885h95.418c37.112 0 67.347-30.097 67.711-67.23 10.426-10.03 18.739-21.819 24.75-35.116 6.688-14.835 10.079-30.605 10.079-46.871v-167.794c-.002-22.751-18.179-41.666-40.52-42.164zm18.518 209.956c0 13.128-2.737 25.855-8.13 37.82-5.411 11.97-13.138 22.43-22.966 31.088-2.371 2.088-3.728 5.095-3.728 8.254v4.147c0 25.314-20.507 45.909-45.714 45.909h-95.418c-25.207 0-45.715-20.595-45.715-45.909 0-3.094-1.303-6.045-3.589-8.129l-130.039-118.546c-9.64-8.788-10.481-23.92-1.875-33.733 8.428-9.611 22.854-10.904 32.841-2.941l48.1 38.348c3.69 2.941 8.843 3.203 12.812.648l36.398-23.432c3.145-2.024 5.046-5.509 5.046-9.249v-144.055c0-10.888 8.528-19.937 19.01-20.171 5.382-.093 10.405 1.908 14.193 5.715 3.683 3.696 5.712 8.608 5.715 13.833v109.099c.541 14.579 21.464 14.568 22 0v-15.351c0-.003 0-.006 0-.01v-93.727c0-.007 0-.013 0-.02v-39.681c.983-25.924 37.945-25.905 38.918 0v148.789c0 .597.061 1.179.152 1.751v8.358c.541 14.579 21.464 14.568 22 0v-142.596c.983-25.925 37.944-25.905 38.918 0v142.596c0 .597.061 1.179.152 1.751v8.518c.541 14.579 21.464 14.568 22 0v-77.478c0-5.235 2.027-10.148 5.724-13.851 3.78-3.801 8.821-5.841 14.185-5.707 10.482.234 19.01 9.282 19.01 20.17z"/></g><g/><g/><g/><g/><g/><g/><g/><g/><g/><g/><g/><g/><g/><g/><g/></svg>