<svg id="Capa_1" enable-background="new 0 0 512.001 512.001" viewBox="0 0 512.001 512.001" xmlns="http://www.w3.org/2000/svg" fill="#052438"><g><path d="m463.909 34.134-26.723-30.397c-4.013-4.563-10.963-5.01-15.524-.998-4.562 4.011-5.01 10.962-.999 15.524l10.712 12.184h-56.426c-14.579.541-14.568 21.464 0 22h56.391l-10.689 12.197c-4.004 4.569-3.545 11.519 1.024 15.523 2.087 1.829 4.671 2.727 7.244 2.727 3.06 0 6.104-1.269 8.278-3.75l26.724-30.498c3.64-4.154 3.635-10.364-.012-14.512z" fill="#0496FF"/><path d="m135.997 30.448h-55.371l10.712-12.184c4.011-4.562 3.563-11.513-.999-15.524-4.562-4.01-11.512-3.566-15.524.998l-26.724 30.396c-3.647 4.148-3.651 10.358-.012 14.513l26.724 30.498c4.016 4.582 10.972 5.016 15.522 1.024 4.569-4.004 5.028-10.954 1.024-15.523l-10.687-12.198h55.336c14.579-.541 14.568-21.465-.001-22z" fill="#0496FF"/><path d="m405.401 178.934c-9.861 0-18.924 3.464-26.052 9.23-10.64-17.854-36.196-25.011-54.747-14.439v-132.224c-2.093-54.994-80.923-54.952-82.996 0v4.014c-26.876-14.875-61.419 5.75-60.996 36.62v122.007c-15.032 2.3-28.888 9.297-39.82 20.283-13.558 13.623-20.972 31.71-20.879 50.929l.163 33.624c.162 43.915 23.304 83.928 60.842 105.995v35.195c0 34.095 27.737 61.833 61.83 61.833h107.454c34.093 0 61.829-27.738 61.829-61.833v-46.951c22.223-21.337 34.87-50.876 34.87-81.829v-100.954c0-22.883-18.617-41.5-41.498-41.5zm19.498 142.453c0 26.319-11.345 51.371-31.126 68.731-2.38 2.089-3.744 5.101-3.744 8.268v51.781c0 21.964-17.867 39.833-39.829 39.833h-107.455c-21.962 0-39.83-17.869-39.83-39.833v-41.684c0-4.113-2.294-7.882-5.947-9.771-33.721-17.436-54.755-51.852-54.895-89.829l-.163-33.637c-.064-13.323 5.075-25.861 14.473-35.304 6.753-6.785 15.113-11.379 24.227-13.428v28.453 35.584c.541 14.579 21.464 14.568 22 0v-35.584-40.666-132.166c.984-25.84 38.022-25.82 38.996 0v112.85 15.328c.541 14.579 21.464 14.568 22 0v-15.328-112.85-40.634c.983-25.84 38.022-25.821 38.996 0v168.812c0 .597.06 1.179.152 1.751v8.337c.541 14.579 21.464 14.568 22 0v-10.134c.983-25.84 38.022-25.821 38.996 0v10.134c0 .597.061 1.179.152 1.751v8.494c.541 14.579 21.464 14.568 22 0v-10.211c.983-25.842 38.021-25.823 38.996-.001v100.953z"/></g><g/><g/><g/><g/><g/><g/><g/><g/><g/><g/><g/><g/><g/><g/><g/></svg>