<svg id="Capa_1" enable-background="new 0 0 512 512" height="512" viewBox="0 0 512 512" width="512" xmlns="http://www.w3.org/2000/svg" fill="#E6ECF2"><g><g><path d="m117.104 511.963c.245.016.488.037.736.037h.026c.237 0 .469-.022.703-.037z"/><path d="m442.966 220.574c-28.682 0-56.377 21.09-76.372 41.362 13.859-62.821 34.724-162.881 36.735-172.537 3.293-10.917 2.216-22.476-3.052-32.615-5.359-10.315-14.415-17.926-25.5-21.43-22.877-7.232-47.378 5.497-54.61 28.375-.012.038-.024.077-.036.115l-28.619 94.09-.208-114.494c-.021-11.585-4.546-22.488-12.744-30.701-8.203-8.217-19.083-12.739-30.644-12.739-.027 0-.055 0-.081 0-24.065.043-43.61 19.601-43.568 43.597l.208 114.479-28.951-93.972c-.013-.039-.024-.078-.037-.117-7.318-22.85-31.859-35.488-54.715-28.174-11.07 3.544-20.099 11.188-25.421 21.522-5.281 10.255-6.284 21.943-2.835 32.939l25.38 93.737c-7.256-9.122-14.791-18.706-21.545-27.511-14.884-19.406-40.658-24.301-59.959-11.384-19.434 13.008-24.795 39.356-12.206 59.983 4.75 7.784 9.32 15.122 13.74 22.218 25.576 41.066 44.057 70.737 44.113 102.038.025 14.48.062 40.511.062 40.515.049 27.634 7.456 45.913 13.99 62.041 5.72 14.116 10.659 26.306 10.69 43.577l.034 14.475h22l-.034-14.521c-.039-21.532-6.272-36.916-12.301-51.793-6.345-15.66-12.338-30.452-12.38-53.813 0 0-.036-26.036-.062-40.52-.068-37.571-19.938-69.474-47.439-113.628-4.394-7.055-8.937-14.35-13.635-22.048-6.533-10.705-4.098-23.705 5.665-30.24 9.523-6.374 22.536-3.586 30.264 6.491 22.843 29.782 54.461 68.282 54.777 68.668 3.292 4.006 8.934 5.169 13.541 2.792 4.607-2.376 6.931-7.647 5.575-12.651l-39.095-144.4c-.044-.161-.092-.321-.143-.48-1.753-5.474-1.27-11.302 1.362-16.412 2.631-5.11 7.096-8.89 12.569-10.643 11.282-3.609 23.398 2.614 27.038 13.879l50.578 164.168c1.604 5.205 6.778 8.453 12.16 7.637 5.385-.816 9.362-5.45 9.353-10.896l-.342-187.996c-.02-11.865 9.674-21.536 21.609-21.557h.039c5.678 0 11.03 2.23 15.075 6.282 4.062 4.069 6.305 9.466 6.314 15.197l.342 187.998c.01 5.446 4.004 10.065 9.392 10.862 5.394.793 10.547-2.471 12.132-7.681l49.991-164.352c3.6-11.279 15.693-17.548 26.985-13.977 5.481 1.733 9.959 5.496 12.609 10.597s3.155 10.927 1.422 16.408c-.111.353-.205.711-.28 1.074-.363 1.74-34.128 163.8-45.247 210.019-7.258.941-18.167 3.178-29.458 8.491-18.262 8.594-41.043 26.933-45.863 65.496-.754 6.028 3.522 11.526 9.551 12.279 6.021.755 11.526-3.522 12.279-9.551 2.84-22.716 13.856-38.868 32.745-48.005 14.893-7.205 29.402-7.395 29.507-7.396 3.627.012 7.141-1.878 9.149-4.893 12.69-18.99 53.312-68.273 88.406-68.273 16.423 0 29.647 11.771 29.647 21.518v2.208c-21.089 14.979-49.563 47.479-74.404 85.237-13.685 20.8-25.198 41.672-33.295 60.357-9.452 21.812-14.245 40.464-14.245 55.438v22.631h22v-22.631c0-52.073 78.064-162.554 116.604-185.678 3.313-1.988 5.341-5.569 5.341-9.433v-8.13c0-23.183-24.134-43.518-51.647-43.518z"/></g><path d="m377.152 511.963h-276.515c-6.075 0-11-4.925-11-11s4.925-11 11-11h276.515c6.075 0 11 4.925 11 11s-4.925 11-11 11z" fill="#0496FF"/></g></svg>