<svg id="Capa_1" enable-background="new 0 0 511.993 511.993" viewBox="0 0 511.993 511.993" xmlns="http://www.w3.org/2000/svg" fill="#052438"><g><path d="m179.511 30.659h-95.422l12.103-11.774c4.354-4.236 4.45-11.2.214-15.555s-11.201-4.451-15.555-.214l-31.514 30.659c-4.419 4.125-4.399 11.707.042 15.809l31.514 30.337c4.372 4.21 11.336 4.084 15.554-.296 4.213-4.377 4.08-11.34-.296-15.554l-11.856-11.412h95.216c14.579-.541 14.568-21.464 0-22z" fill="#0496FF"/><path d="m452.037 394.286c14.788-27.025 17.979-58.997 8.683-88.52l-49.558-157.373c-6.873-21.826-30.225-33.99-52.046-27.118-6.651 2.094-12.536 5.741-17.263 10.604l-9.475-30.087c-6.873-21.826-30.227-33.99-52.046-27.118-7.068 2.226-13.266 6.21-18.134 11.539-9.612-16.172-29.424-24.272-48.13-18.383-21.825 6.873-33.99 30.221-27.117 52.047l1.205 3.828c-6.483-1.219-13.345-.914-20.063 1.202-21.826 6.873-33.99 30.221-27.118 52.046l30.537 96.971c-31.146 14.678-47.695 53.414-36.508 86.152l10.255 32.021c13.387 41.97 47.653 73.248 90.275 82.913 9.96 22.734 32.531 36.982 56.657 36.982 6.137 0 12.376-.922 18.533-2.861l102.491-32.275c15.753-4.961 28.631-15.758 36.262-30.405 7.631-14.646 9.102-31.388 4.142-47.141zm-21.347-7.01c-1.643 2.707-2.039 5.99-1.088 9.01l3.033 9.632c6.853 20.288-5.474 43.946-26.027 49.954l-102.492 32.275c-20.948 6.599-43.357-5.079-49.954-26.027-1.235-3.923-4.556-6.829-8.608-7.533-37.4-6.501-67.799-33.007-79.338-69.187l-10.259-32.033c-4.063-12.686-2.926-26.187 3.2-38.016 4.403-8.5 10.999-15.395 19.076-20.086l8.545 27.137c0 .001.001.001.001.002l10.687 33.936c1.824 5.795 7.999 9.014 13.796 7.188 5.794-1.825 9.013-8.001 7.188-13.796l-22.901-72.725c0-.001 0-.001-.001-.001l-33.588-106.66c-3.23-10.255 2.486-21.225 12.741-24.454 10.255-3.23 21.225 2.486 24.454 12.741l14.073 44.689 18.318 58.169c1.81 5.848 8.159 9.01 13.796 7.188 5.794-1.825 9.013-8.001 7.188-13.796l-4.602-14.614c-.001-.002-.001-.003-.001-.005l-13.114-41.644-26.877-85.35c-3.229-10.255 2.486-21.225 12.741-24.454 10.255-3.23 21.224 2.486 24.454 12.741l7.953 25.256c.18.571.413 1.109.673 1.628l39.143 124.305c1.81 5.848 8.159 9.01 13.796 7.188 5.794-1.825 9.013-8.002 7.188-13.796l-39.686-126.024c-1.564-4.967-1.101-10.247 1.306-14.866s6.468-8.024 11.435-9.588c9.932-3.355 21.513 2.679 24.454 12.741l39.686 126.024c.18.571.413 1.109.672 1.627l2.55 8.099c1.825 5.794 8.003 9.013 13.796 7.188 5.794-1.825 9.013-8.002 7.188-13.796l-22.304-70.827c-1.564-4.968-1.101-10.247 1.306-14.867 2.406-4.619 6.467-8.024 11.435-9.588 10.256-3.23 21.225 2.486 24.454 12.741l49.558 157.373c7.906 25.102 4.609 52.403-9.044 74.901z"/></g><g/><g/><g/><g/><g/><g/><g/><g/><g/><g/><g/><g/><g/><g/><g/></svg>