<svg id="Capa_1" enable-background="new 0 0 512 512" height="512" viewBox="0 0 512 512" width="512" xmlns="http://www.w3.org/2000/svg" fill="#052438"><g><path d="m372.727 189.102v-55.094c0-24.003-19.528-43.531-43.531-43.531-12.928 0-24.551 5.671-32.531 14.649-7.98-8.978-19.603-14.649-32.531-14.649s-24.551 5.671-32.531 14.649c-7.98-8.978-19.603-14.649-32.531-14.649-7.83 0-15.176 2.088-21.531 5.721v-52.667c-.002-24.003-19.53-43.531-43.533-43.531s-43.53 19.528-43.53 43.531v277.531c0 27.634 7.344 45.938 13.823 62.087 5.675 14.143 10.575 26.357 10.575 43.639v63.212h22v-63.211c0-21.53-6.181-36.935-12.157-51.832-6.295-15.69-12.241-30.51-12.241-53.895v-277.531c0-11.873 9.658-21.531 21.53-21.531s21.531 9.659 21.531 21.531v155.539c0 24.003 19.528 43.531 43.531 43.531 8.381 0 16.213-2.387 22.862-6.508 5.284 22.914 25.837 40.056 50.333 40.056h21.946c-7.05 8.446-13.337 19.988-16.467 35.64-1.191 5.957 2.672 11.752 8.629 12.944 5.951 1.188 11.751-2.671 12.943-8.629 6.495-32.473 30.92-39.827 32.588-40.292 5.428-1.272 8.949-6.384 8.318-11.928-.632-5.559-5.434-9.733-11.028-9.733h-56.93c-16.356 0-29.664-13.307-29.664-29.664v-14.417h119.125c20.841 0 37.796 16.956 37.796 37.797v73.195c0 21.642-11.484 35.954-23.644 51.107-12.365 15.411-25.152 31.346-25.152 54.62v63.211h22v-63.211c0-15.538 9.413-27.269 20.312-40.851 13.352-16.639 28.484-35.498 28.484-64.875v-73.195c.001-29.214-21.061-53.586-48.794-58.766zm-152.125 9.968c0 11.873-9.659 21.531-21.531 21.531s-21.531-9.659-21.531-21.531v-65.062c0-11.873 9.659-21.531 21.531-21.531s21.531 9.659 21.531 21.531zm65.062-11h-43.062v-54.062c0-11.873 9.659-21.531 21.531-21.531s21.531 9.659 21.531 21.531zm65.063 0h-43.062v-54.062c0-11.873 9.659-21.531 21.531-21.531s21.531 9.659 21.531 21.531z"/><path d="m381.393 512h-276.515c-6.075 0-11-4.925-11-11s4.925-11 11-11h276.515c6.075 0 11 4.925 11 11s-4.925 11-11 11z" fill="#0496FF"/></g></svg>