<svg id="Capa_1" enable-background="new 0 0 512 512" height="512" viewBox="0 0 512 512" width="512" xmlns="http://www.w3.org/2000/svg" fill="#E6ECF2"><g><g><path d="m443.055 204.336c-32.359 0-60.51 26.525-78.461 48.827v-167.951c.327-33.043-36.714-54.432-65.062-37.824 1.844-25.283-17.963-47.503-43.532-47.388-25.565-.115-45.378 22.104-43.531 47.388-28.361-16.605-65.384 4.778-65.062 37.825v35.371c-28.329-16.596-65.396 4.765-65.062 37.824v195.187c0 27.634 7.344 45.938 13.823 62.086 5.674 14.144 10.575 26.358 10.575 43.64v30.681h22c0-11.92 0-30.681 0-30.681-.291-44.483-24.736-60.534-24.398-105.726v-195.188c1.18-28.548 41.874-28.571 43.063 0v81.328c0 6.075 4.925 11 11 11s11-4.925 11-11c.017-38.458-.013-116.233 0-154.522 0-11.872 9.659-21.531 21.531-21.531s21.531 9.659 21.531 21.531v113.858c.576 14.592 21.426 14.585 22 0-.008-29.391.006-127.742 0-155.539 1.138-28.458 41.826-28.667 43.062 0v41.681 113.858c0 6.075 4.925 11 11 11s11-4.925 11-11v-113.859c1.138-28.467 41.834-28.656 43.062 0v193.32c-33.401 5.918-65.967 23.862-73.111 73.697-.753 6.029 3.523 11.526 9.552 12.28 6.023.754 11.525-3.521 12.279-9.551 3.692-37.418 34.778-54.462 62.28-55.426 3.983.013 7.795-2.273 9.679-5.771 10.552-18.871 45.238-67.424 79.782-67.424 17.515.331 30.771 12.262 29.664 23.742-34.057 23.191-88.297 98.382-107.741 145.651-9.456 21.82-14.251 40.479-14.251 55.458v38.813h22v-38.813c0-52.095 78.096-162.621 116.651-185.754 3.313-1.988 5.34-5.568 5.34-9.433v-8.133c0-23.19-24.142-43.532-51.663-43.532z"/><g fill="#0496FF"><path d="m11.001 95.196c-6.075 0-11-4.925-11-11 0-46.426 37.769-84.196 84.195-84.196 6.075 0 11 4.925 11 11s-4.925 11-11 11c-34.294 0-62.195 27.9-62.195 62.195 0 6.076-4.925 11.001-11 11.001z"/><path d="m427.805 512c-6.075 0-11-4.925-11-11s4.925-11 11-11c34.294 0 62.195-27.9 62.195-62.195 0-6.075 4.925-11 11-11s11 4.925 11 11c0 46.426-37.77 84.195-84.195 84.195z"/><path d="m68.947 104.345c-6.075 0-11-4.925-11-11 0-19.519 15.879-35.398 35.398-35.398 6.075 0 11 4.925 11 11s-4.925 11-11 11c-7.388 0-13.398 6.011-13.398 13.398 0 6.075-4.925 11-11 11z"/><path d="m418.656 454.054c-6.075 0-11-4.925-11-11s4.925-11 11-11c7.388 0 13.398-6.011 13.399-13.398 0-6.075 4.925-11 11-11 6.075 0 11 4.925 11 11 0 19.518-15.88 35.398-35.399 35.398z"/></g></g><path d="m375.926 512h-276.515c-6.075 0-11-4.925-11-11s4.925-11 11-11h276.515c6.075 0 11 4.925 11 11s-4.925 11-11 11z" fill="#0496FF"/></g></svg>