<svg id="Capa_1" enable-background="new 0 0 512.005 512.005" viewBox="0 0 512.005 512.005" xmlns="http://www.w3.org/2000/svg" fill="#052438"><g><g fill="#0496FF"><path d="m394.595 330.108c-5.53-2.522-12.052-.083-14.573 5.443l-22.3 48.887 20.016 9.13 22.3-48.887c2.521-5.527.085-12.052-5.443-14.573z"/><path d="m505.568 86.831c-5.528-2.522-12.053-.085-14.573 5.442l-86.314 189.22c-2.521 5.527-.085 12.052 5.442 14.573 1.48.675 3.031.995 4.559.995 4.176 0 8.169-2.391 10.015-6.438l86.314-189.22c2.521-5.526.084-12.051-5.443-14.572z"/><path d="m117.41 330.108c-5.527 2.521-7.964 9.046-5.442 14.573l22.3 48.887 20.016-9.13-22.3-48.887c-2.521-5.527-9.047-7.966-14.574-5.443z"/><path d="m21.011 92.274c-2.521-5.527-9.046-7.964-14.573-5.442-5.527 2.521-7.964 9.046-5.442 14.573l86.314 189.22c1.846 4.047 5.839 6.438 10.015 6.438 1.527 0 3.078-.32 4.559-.995 5.527-2.521 7.964-9.046 5.442-14.573z"/><path d="m330.418 269.497c-5.944-1.271-11.786 2.524-13.052 8.465l-13.154 61.723c-1.266 5.942 2.524 11.785 8.466 13.051.773.165 1.544.244 2.304.244 5.08 0 9.646-3.541 10.748-8.709l13.154-61.723c1.265-5.941-2.525-11.785-8.466-13.051z"/><path d="m194.639 277.963c-1.267-5.942-7.104-9.729-13.052-8.465-5.941 1.266-9.731 7.109-8.466 13.051l13.154 61.723c1.102 5.169 5.667 8.709 10.748 8.709.76 0 1.53-.08 2.304-.244 5.941-1.266 9.731-7.109 8.466-13.051z"/><path d="m449.156 122.511c1.972-3.408 1.972-7.609 0-11.017-19.256-33.285-46.944-61.201-80.072-80.729-34.139-20.125-73.241-30.762-113.081-30.762s-78.943 10.637-113.081 30.762c-33.128 19.529-60.816 47.444-80.072 80.729-1.972 3.408-1.972 7.609 0 11.017 19.256 33.285 46.944 61.201 80.072 80.729 34.139 20.125 73.241 30.762 113.081 30.762s78.942-10.637 113.081-30.762c33.128-19.528 60.816-47.444 80.072-80.729zm-295.062 61.778c-28.024-16.521-51.734-39.7-68.896-67.286 17.161-27.586 40.871-50.766 68.896-67.286 3.488-2.056 7.039-3.989 10.636-5.824-16.087 20.043-25.727 45.47-25.727 73.11 0 27.641 9.643 53.068 25.731 73.111-3.599-1.835-7.152-3.769-10.64-5.825zm101.909 27.714c-52.383 0-95-42.617-95-95s42.617-95 95-95 95 42.617 95 95-42.617 95-95 95zm91.26-21.872c16.095-20.045 25.74-45.48 25.74-73.128 0-27.639-9.64-53.066-25.726-73.108 3.597 1.834 7.148 3.767 10.635 5.822 28.024 16.521 51.734 39.7 68.896 67.286-17.161 27.586-40.871 50.766-68.896 67.286-3.493 2.059-7.046 4.005-10.649 5.842z"/></g><g><path d="m256.003 171.97c30.309 0 54.967-24.658 54.967-54.967s-24.658-54.967-54.967-54.967-54.967 24.658-54.967 54.967 24.658 54.967 54.967 54.967zm0-87.934c18.178 0 32.967 14.789 32.967 32.967s-14.789 32.967-32.967 32.967-32.967-14.789-32.967-32.967 14.789-32.967 32.967-32.967z"/><path d="m457.003 426.003h-16.295c-5.17-27.292-29.184-48-57.956-48h-253.498c-28.772 0-52.786 20.708-57.956 48h-16.295c-6.075 0-11 4.925-11 11v64c0 6.075 4.925 11 11 11h402c6.075 0 11-4.925 11-11v-64c0-6.075-4.925-11-11-11zm-327.749-26h253.498c16.573 0 30.636 10.953 35.331 26h-324.16c4.695-15.047 18.758-26 35.331-26zm316.749 90h-380v-42h380z"/></g></g><g/><g/><g/><g/><g/><g/><g/><g/><g/><g/><g/><g/><g/><g/><g/></svg>