<svg id="Capa_1" enable-background="new 0 0 512.002 512.002" viewBox="0 0 512.002 512.002" xmlns="http://www.w3.org/2000/svg" fill="#E6ECF2"><g><g><path d="m405.182 442.001h-82.257c-1.576-35.556-30.986-64-66.924-64s-65.348 28.444-66.924 64h-82.257c-6.075 0-11 4.925-11 11v48c0 6.075 4.925 11 11 11h298.361c6.075 0 11-4.925 11-11v-48c.001-6.075-4.924-11-10.999-11zm-149.181-42c23.804 0 43.338 18.582 44.889 42h-89.778c1.551-23.418 21.085-42 44.889-42zm138.181 90h-276.362v-26h276.361v26z"/><path d="m445.001 22.001h-11v-11c0-6.075-4.925-11-11-11s-11 4.925-11 11v11h-11c-6.075 0-11 4.925-11 11s4.925 11 11 11h11v11c0 6.075 4.925 11 11 11s11-4.925 11-11v-11h11c6.075 0 11-4.925 11-11s-4.925-11-11-11z"/><path d="m100.001 77.001c0-6.075-4.925-11-11-11h-11v-11c0-6.075-4.925-11-11-11s-11 4.925-11 11v11h-11c-6.075 0-11 4.925-11 11s4.925 11 11 11h11v11c0 6.075 4.925 11 11 11s11-4.925 11-11v-11h11c6.075 0 11-4.925 11-11z"/></g><g fill="#0496FF"><path d="m507.31 210.12c-4.978-3.484-11.836-2.274-15.32 2.701l-132.949 189.87c-3.484 4.977-2.275 11.835 2.701 15.32 1.921 1.345 4.121 1.99 6.3 1.99 3.468 0 6.881-1.636 9.021-4.691l132.949-189.87c3.484-4.977 2.274-11.836-2.702-15.32z"/><path d="m20.012 212.821c-3.485-4.977-10.344-6.187-15.32-2.701-4.976 3.484-6.186 10.344-2.701 15.32l132.948 189.87c2.14 3.056 5.553 4.691 9.021 4.691 2.179 0 4.379-.646 6.3-1.99 4.976-3.485 6.186-10.344 2.701-15.32z"/><path d="m410.927 176-48.207-91.11c-1.906-3.602-5.647-5.855-9.723-5.855h-193.993c-4.076 0-7.817 2.253-9.723 5.855l-48.206 91.11c-2.203 4.164-1.51 9.268 1.723 12.694l145.202 153.875c2.078 2.203 4.973 3.451 8 3.451s5.922-1.248 8-3.451l145.203-153.875c3.234-3.426 3.927-8.531 1.724-12.694zm-27.988-5.856h-69.307l-12.189-69.11h44.93zm-162.229 0 12.189-69.11h46.204l12.189 69.11zm68.7 22-33.409 106.215-33.409-106.215zm-89.881 0 31.613 100.503-94.839-100.503zm112.944 0h63.226l-94.839 100.504zm-146.844-91.11h44.93l-12.189 69.11h-69.307z"/></g></g><g/><g/><g/><g/><g/><g/><g/><g/><g/><g/><g/><g/><g/><g/><g/></svg>