<svg id="Capa_1" enable-background="new 0 0 512.006 512.006" viewBox="0 0 512.006 512.006" xmlns="http://www.w3.org/2000/svg" fill="#052438"><g><path d="m463.868 495.001-91.138-140c-2.03-3.118-5.498-4.999-9.219-4.999h-62.511v22h56.547l16.058 24.667h-71.639l-10.75 13.332 7.233 33.334h-84.892l7.233-33.334-10.75-13.333h-71.639l16.058-24.667h56.546v-22h-62.511c-3.721 0-7.189 1.881-9.219 4.999l-91.139 140c-2.202 3.382-2.375 7.698-.451 11.245 1.923 3.547 5.635 5.757 9.67 5.757h397.293c4.035 0 7.746-2.209 9.67-5.757 1.925-3.546 1.751-7.862-.45-11.244zm-282.95-4.998h-103.275l16.057-24.667h92.571zm10.127-46.667h-83.023l16.057-24.667h72.318zm12.386 46.667 5.352-24.667h94.44l5.353 24.667zm112.178-71.333h72.318l16.057 24.667h-83.022zm15.479 71.333-5.353-24.667h92.57l16.058 24.667z"/><g fill="#0496FF"><path d="m77.339 355.34c-2.077-5.708-8.389-8.652-14.099-6.574-5.709 2.078-8.652 8.39-6.574 14.099l10.839 29.781c1.625 4.467 5.844 7.241 10.337 7.241 1.249 0 2.52-.214 3.761-.667 5.708-2.078 8.652-8.39 6.574-14.099z"/><path d="m57.273 300.207-35.933-98.725c-2.078-5.708-8.39-8.652-14.099-6.574s-8.652 8.39-6.574 14.099l35.933 98.724c1.625 4.467 5.844 7.241 10.337 7.241 1.249 0 2.52-.214 3.761-.667 5.709-2.077 8.653-8.39 6.575-14.098z"/><path d="m107.416 235.527c-1.573-5.868-7.604-9.353-13.472-7.778-5.868 1.572-9.351 7.604-7.778 13.472l22.524 84.063c1.317 4.915 5.761 8.156 10.618 8.156.942 0 1.9-.122 2.854-.378 5.868-1.572 9.351-7.604 7.778-13.472z"/><path d="m69.437 178.791c1.317 4.915 5.761 8.156 10.618 8.156.942 0 1.9-.122 2.854-.378 5.868-1.572 9.351-7.604 7.778-13.472l-43.781-163.394c-1.572-5.868-7.602-9.353-13.472-7.778-5.868 1.572-9.351 7.604-7.778 13.472z"/><path d="m448.765 348.766c-5.707-2.078-12.021.866-14.099 6.575l-10.839 29.781c-2.077 5.709.866 12.021 6.575 14.099 1.241.452 2.512.666 3.761.666 4.493 0 8.712-2.774 10.338-7.241l10.839-29.781c2.077-5.709-.866-12.021-6.575-14.099z"/><path d="m504.765 194.908c-5.706-2.078-12.021.865-14.099 6.574l-35.933 98.725c-2.077 5.709.866 12.021 6.574 14.099 1.242.452 2.513.667 3.762.667 4.493 0 8.712-2.774 10.338-7.241l35.933-98.725c2.077-5.71-.866-12.022-6.575-14.099z"/><path d="m418.063 227.749c-5.863-1.573-11.899 1.91-13.472 7.778l-22.525 84.063c-1.572 5.868 1.91 11.9 7.778 13.472.953.256 1.911.378 2.854.378 4.856 0 9.302-3.242 10.618-8.156l22.525-84.063c1.572-5.868-1.91-11.9-7.778-13.472z"/><path d="m429.097 186.569c.953.256 1.911.378 2.854.378 4.856 0 9.302-3.242 10.618-8.156l43.781-163.394c1.572-5.868-1.91-11.9-7.778-13.472-5.863-1.575-11.899 1.91-13.472 7.778l-43.781 163.394c-1.573 5.868 1.91 11.9 7.778 13.472z"/><path d="m379.595 192.894-41.451-81.056c-8.402-16.427-24.281-27.232-42.328-29.171 4.823-7.426 7.636-16.271 7.636-25.766v-9.448c0-26.164-21.285-47.45-47.449-47.45s-47.45 21.286-47.45 47.45v9.448c0 9.495 2.814 18.34 7.637 25.766-18.047 1.939-33.926 12.743-42.327 29.171l-41.452 81.056c-8.409 16.444-1.873 36.666 14.569 45.078 16.444 8.412 36.668 1.878 45.083-14.566l7.943-15.525v199.79c0 6.075 4.925 11 11 11h89.994c6.075 0 11-4.925 11-11v-199.791l7.943 15.526c8.414 16.444 28.637 22.979 45.082 14.566 16.443-8.412 22.978-28.634 14.57-45.078zm-149.042-145.441c0-14.033 11.417-25.45 25.45-25.45s25.449 11.417 25.449 25.45v9.448c0 14.033-11.416 25.45-25.449 25.45s-25.45-11.417-25.45-25.45zm59.447 349.217h-22.997v-138.25c0-6.075-4.925-11-11-11s-11 4.925-11 11v138.25h-22.998v-180.426h67.995zm65.006-178.284c-5.647 2.889-12.589.645-15.477-5l-28.736-56.167c-2.314-4.524-7.427-6.874-12.37-5.684-4.94 1.19-8.423 5.611-8.423 10.694v32.015h-67.995v-32.015c0-5.083-3.482-9.503-8.423-10.694-4.94-1.191-10.055 1.159-12.37 5.684l-28.736 56.167c-2.888 5.646-9.831 7.889-15.477 5-5.645-2.888-7.888-9.83-5.001-15.475l41.452-81.056c5.521-10.797 16.485-17.504 28.612-17.504h67.881c12.127 0 23.091 6.708 28.612 17.504l41.451 81.056c2.888 5.645.644 12.587-5 15.475z"/></g></g><g/><g/><g/><g/><g/><g/><g/><g/><g/><g/><g/><g/><g/><g/><g/></svg>