<svg id="Capa_1" enable-background="new 0 0 512.081 512.081" viewBox="0 0 512.081 512.081" xmlns="http://www.w3.org/2000/svg" fill="#052438"><g><g><path d="m22.049 456.898v-123.61h157.67v-22h-168.67c-6.075 0-11 4.925-11 11v147.326c0 3.194 1.388 6.229 3.803 8.319 2.414 2.094 5.646 3.027 8.78 2.567l210.204-30.567-3.166-21.771z"/><path d="m497.413 376.363-21.235-30.392c-15.175-21.718-40.052-34.684-66.545-34.684h-84.892v22h84.892c19.313 0 37.449 9.452 48.512 25.284l21.235 30.392c16.28 23.302 13.67 54.962-6.209 75.281l-19.729 20.167c-7.081 7.239-18.456 7.528-25.896.654-6.198-5.725-7.637-14.678-4.037-21.899 19.561-1.104 35.136-17.363 35.136-37.195 0-17.799-12.682-33.181-30.154-36.575l-66.586-12.935c-5.968-1.16-11.738 2.738-12.896 8.701-1.159 5.964 2.736 11.737 8.7 12.896l66.586 12.935c7.156 1.39 12.35 7.689 12.35 14.979 0 8.414-6.845 15.259-15.259 15.259h-46.578c-13.783 0-27.452-2.054-40.626-6.106-15.272-4.697-31.117-7.078-47.094-7.078v22c13.783 0 27.452 2.055 40.627 6.106 15.271 4.696 31.115 7.078 47.093 7.078h25.574c-2.774 13.486 1.416 28 12.234 37.994 7.852 7.255 17.711 10.856 27.55 10.856 10.518 0 21.011-4.116 29.002-12.284l19.729-20.167c27.268-27.873 30.85-71.303 8.516-103.267z"/></g><g fill="#0496FF"><path d="m183.534 193.989h145.029c6.075 0 11-4.925 11-11v-17.517c0-33.857-20.264-63.052-49.29-76.149 8.181-8.529 13.225-20.09 13.225-32.814v-9.059c0-26.164-21.285-47.45-47.449-47.45s-47.449 21.286-47.449 47.45v9.058c0 12.724 5.044 24.285 13.225 32.814-29.026 13.098-49.29 42.292-49.29 76.149v17.517c-.001 6.076 4.924 11.001 10.999 11.001zm47.065-146.539c0-14.033 11.416-25.45 25.449-25.45s25.449 11.417 25.449 25.45v9.058c0 14.033-11.416 25.45-25.449 25.45s-25.449-11.417-25.449-25.45zm-36.065 118.022c0-30.163 21.829-55.307 50.515-60.51v13.696c0 6.075 4.925 11 11 11s11-4.925 11-11v-13.696c28.686 5.203 50.515 30.346 50.515 60.51v6.517h-123.03z"/><path d="m288.527 258.553h-72.594c-26.034 0-47.215 21.18-47.215 47.214v16.608c0 6.075 4.925 11 11 11h30.534v118.855c0 6.075 4.925 11 11 11h61.955c6.075 0 11-4.925 11-11v-118.855h30.533c6.075 0 11-4.925 11-11v-16.608c.001-26.034-21.179-47.214-47.213-47.214zm-16.319 182.677h-39.955v-107.855h39.955zm41.533-129.855h-123.022v-5.608c0-13.903 11.312-25.214 25.215-25.214h72.594c13.903 0 25.214 11.311 25.214 25.214v5.608z"/><path d="m413.417 139.253c-4.979-3.485-11.836-2.274-15.32 2.701l-64.679 92.37c-3.484 4.977-2.275 11.835 2.701 15.32 1.921 1.345 4.121 1.99 6.3 1.99 3.468 0 6.881-1.636 9.021-4.691l64.679-92.37c3.483-4.976 2.274-11.835-2.702-15.32z"/><path d="m175.978 249.645c4.977-3.485 6.186-10.344 2.701-15.32l-64.679-92.37c-3.485-4.977-10.343-6.186-15.32-2.701s-6.186 10.344-2.701 15.32l64.679 92.37c2.14 3.056 5.553 4.691 9.021 4.691 2.178 0 4.378-.646 6.299-1.99z"/></g></g><g/><g/><g/><g/><g/><g/><g/><g/><g/><g/><g/><g/><g/><g/><g/></svg>