<svg id="Capa_1" enable-background="new 0 0 512 512" viewBox="0 0 512 512" xmlns="http://www.w3.org/2000/svg" fill="#E6ECF2"><g><g fill="#0496FF"><path d="m426.413 151.619c-4.977-3.484-11.835-2.275-15.32 2.702l-64.678 92.37c-3.484 4.977-2.275 11.836 2.701 15.32 1.921 1.345 4.121 1.99 6.3 1.99 3.468 0 6.881-1.636 9.021-4.692l64.678-92.37c3.484-4.976 2.274-11.835-2.702-15.32z"/><path d="m256 342c-20.402 0-37 16.598-37 37s16.598 37 37 37 37-16.598 37-37-16.598-37-37-37zm0 52c-8.271 0-15-6.729-15-15s6.729-15 15-15 15 6.729 15 15-6.729 15-15 15z"/><path d="m100.907 154.321c-3.485-4.977-10.345-6.187-15.32-2.702-4.977 3.484-6.186 10.344-2.702 15.32l64.678 92.37c2.14 3.057 5.553 4.692 9.021 4.692 2.179 0 4.379-.646 6.3-1.99 4.976-3.484 6.186-10.344 2.701-15.32z"/><path d="m379 147.374v-104.748c0-23.504-19.122-42.626-42.625-42.626h-160.749c-23.504 0-42.626 19.122-42.626 42.626v104.748c0 23.504 19.122 42.626 42.626 42.626h47.874l22.974 39.792c1.965 3.403 5.596 5.5 9.526 5.5s7.562-2.097 9.526-5.5l22.974-39.792h47.875c23.503 0 42.625-19.122 42.625-42.626zm-22 0c0 11.373-9.252 20.626-20.625 20.626h-54.225c-3.93 0-7.562 2.097-9.526 5.5l-16.624 28.792-16.623-28.792c-1.965-3.403-5.597-5.5-9.526-5.5h-54.225c-11.373 0-20.626-9.253-20.626-20.626v-104.748c0-11.373 9.253-20.626 20.626-20.626h160.749c11.373 0 20.625 9.253 20.625 20.626z"/></g><g><path d="m261 438h-10c-6.075 0-11 4.925-11 11s4.925 11 11 11h10c6.075 0 11-4.925 11-11s-4.925-11-11-11z"/><path d="m317.854 438h-10c-6.075 0-11 4.925-11 11s4.925 11 11 11h10c6.075 0 11-4.925 11-11s-4.924-11-11-11z"/><path d="m204.146 438h-10c-6.075 0-11 4.925-11 11s4.925 11 11 11h10c6.075 0 11-4.925 11-11s-4.925-11-11-11z"/><path d="m427.999 321.671-56.449-6.626c-4.3-14.463-17.709-25.045-33.55-25.045h-164c-15.841 0-29.25 10.582-33.55 25.046l-56.449 6.626c-18.81 2.208-32.994 18.153-32.994 37.092v84.473c0 18.938 14.184 34.885 32.994 37.092l56.449 6.626c4.3 14.463 17.709 25.045 33.55 25.045h164c15.841 0 29.25-10.582 33.55-25.046l56.449-6.626c18.81-2.208 32.994-18.154 32.994-37.092v-84.473c0-18.938-14.184-34.884-32.994-37.092zm-354.992 121.565v-84.473c0-7.782 5.829-14.335 13.558-15.242l52.435-6.155v127.267l-52.435-6.155c-7.729-.906-13.558-7.459-13.558-15.242zm277.993 33.764c0 7.168-5.832 13-13 13h-164c-7.168 0-13-5.832-13-13v-152c0-7.168 5.832-13 13-13h164c7.168 0 13 5.832 13 13zm87.993-33.764c0 7.783-5.829 14.335-13.558 15.243l-52.435 6.155v-127.268l52.435 6.155c7.729.907 13.558 7.46 13.558 15.242z"/><path d="m307.46 106c7.633.167 13.262-8.22 10.16-15.21-3.597-8.97-16.716-8.971-20.309 0-3.11 6.981 2.522 15.373 10.149 15.21z"/><path d="m204.54 106c7.63.167 13.256-8.228 10.15-15.21-3.602-8.975-16.704-8.973-20.31 0-3.101 6.991 2.524 15.379 10.16 15.21z"/><path d="m255.996 106c7.633.167 13.262-8.22 10.16-15.21-3.597-8.97-16.716-8.971-20.309 0-3.11 6.981 2.523 15.373 10.149 15.21z"/></g></g><g/><g/><g/><g/><g/><g/><g/><g/><g/><g/><g/><g/><g/><g/><g/></svg>