<svg id="Capa_1" enable-background="new 0 0 512 512" viewBox="0 0 512 512" xmlns="http://www.w3.org/2000/svg" fill="#E6ECF2"><g><g><path d="m486.372 427.108h-5.367v-239.228c0-18.904-15.379-34.283-34.283-34.283h-20.836v-129.136c0-13.488-11.138-24.461-24.828-24.461h-290.116c-13.69 0-24.828 10.973-24.828 24.461v129.135h-20.836c-18.904 0-34.283 15.379-34.283 34.283v239.228h-5.367c-14.131.001-25.628 11.497-25.628 25.628v.224c0 32.556 26.485 59.041 59.04 59.041h393.92c32.555 0 59.04-26.485 59.04-59.041v-.224c0-14.131-11.497-25.627-25.628-25.627zm-39.65-251.511c6.773 0 12.283 5.51 12.283 12.283v239.228h-33.119v-251.511zm-335.78-153.597h290.115c1.507 0 2.828 1.15 2.828 2.461v402.646h-295.771v-402.646c0-1.311 1.322-2.461 2.828-2.461zm-57.947 165.88c0-6.773 5.51-12.283 12.283-12.283h20.836v251.511h-33.119zm437.005 265.079c0 20.425-16.616 37.041-37.04 37.041h-393.92c-20.424 0-37.04-16.616-37.04-37.041v-.224c0-2 1.628-3.627 3.628-3.627h460.744c2 0 3.628 1.627 3.628 3.627z"/><path d="m255.139 214.427h113.055c6.075 0 11-4.925 11-11s-4.925-11-11-11h-113.055c-6.075 0-11 4.925-11 11s4.924 11 11 11z"/><path d="m255.139 257.823h48.093c6.075 0 11-4.925 11-11s-4.925-11-11-11h-48.093c-6.075 0-11 4.925-11 11s4.924 11 11 11z"/><path d="m255.139 336.202h113.055c6.075 0 11-4.925 11-11s-4.925-11-11-11h-113.055c-6.075 0-11 4.925-11 11s4.924 11 11 11z"/><path d="m255.139 379.599h48.093c6.075 0 11-4.925 11-11s-4.925-11-11-11h-48.093c-6.075 0-11 4.925-11 11s4.924 11 11 11z"/></g><g fill="#0496FF"><path d="m204.8 183.558h-60.993c-6.075 0-11 4.925-11 11v61.135c0 6.075 4.925 11 11 11h60.993c6.075 0 11-4.925 11-11v-61.135c0-6.076-4.925-11-11-11zm-11 61.135h-38.993v-39.135h38.993z"/><path d="m204.8 305.333h-60.993c-6.075 0-11 4.925-11 11v61.135c0 6.075 4.925 11 11 11h60.993c6.075 0 11-4.925 11-11v-61.135c0-6.076-4.925-11-11-11zm-11 61.135h-38.993v-39.135h38.993z"/><path d="m218.612 60.944c-15.126 0-27.433 12.604-27.433 28.097v51.291c0 6.075 4.925 11 11 11s11-4.925 11-11v-15.231h10.866v15.231c0 6.075 4.925 11 11 11s11-4.925 11-11v-51.291c.001-15.493-12.306-28.097-27.433-28.097zm-5.432 42.157v-14.06c0-3.362 2.438-6.097 5.433-6.097 2.996 0 5.434 2.735 5.434 6.097v14.06z"/><path d="m290.077 95.138h-5.977c-3.025 0-5.486-2.262-5.486-5.042 0-3.944 3.435-7.152 7.655-7.152h1.639c2.604 0 5.009 1.225 6.434 3.277 3.464 4.991 10.317 6.228 15.31 2.763 4.99-3.465 6.227-10.319 2.763-15.309-5.534-7.972-14.695-12.731-24.506-12.731h-1.639c-16.352 0-29.655 13.078-29.655 29.152 0 14.911 12.33 27.042 27.486 27.042h5.977c3.025 0 5.486 2.262 5.486 5.042 0 3.944-3.435 7.152-7.655 7.152h-1.639c-2.804 0-5.383-1.434-6.73-3.743-3.064-5.246-9.8-7.015-15.047-3.951-5.246 3.063-7.015 9.8-3.951 15.046 5.277 9.035 15.136 14.648 25.729 14.648h1.639c16.352 0 29.655-13.078 29.655-29.152-.002-14.911-12.332-27.042-27.488-27.042z"/><path d="m386.579 135.565-18.201-37.858 11.885-19.583c3.152-5.193 1.497-11.958-3.696-15.111s-11.958-1.497-15.11 3.697l-8.624 14.21v-8.976c0-6.075-4.925-11-11-11s-11 4.925-11 11v68.388c0 6.075 4.925 11 11 11s11-4.925 11-11v-17.01l1.924-3.171 11.994 24.947c1.894 3.939 5.825 6.236 9.922 6.236 1.598 0 3.222-.35 4.759-1.089 5.474-2.632 7.779-9.204 5.147-14.68z"/><path d="m143.122 82.944v57.388c0 6.075 4.925 11 11 11s11-4.925 11-11v-57.388h7.918c6.075 0 11-4.925 11-11s-4.925-11-11-11h-37.705c-6.075 0-11 4.925-11 11s4.925 11 11 11z"/></g></g><g/><g/><g/><g/><g/><g/><g/><g/><g/><g/><g/><g/><g/><g/><g/></svg>