<svg id="Capa_1" enable-background="new 0 0 512 512" viewBox="0 0 512 512" xmlns="http://www.w3.org/2000/svg" fill="#052438"><g><path d="m343.597 381.933c20.542 0 37.254-16.712 37.254-37.254v-14.724c0-6.075-4.925-11-11-11s-11 4.925-11 11v14.724c0 8.411-6.843 15.254-15.254 15.254h-175.194c-8.411 0-15.254-6.843-15.254-15.254v-14.724c0-6.075-4.925-11-11-11s-11 4.925-11 11v14.724c0 20.542 16.712 37.254 37.254 37.254h76.597v19.671c-37.769 2.515-73.324 17.934-101.102 44.068-4.424 4.163-4.637 11.125-.474 15.549 4.164 4.424 11.125 4.637 15.549.474 23.679-22.277 53.888-35.558 86.026-38.033v25.07c0 6.075 4.925 11 11 11s11-4.925 11-11v-25.071c32.383 2.491 62.77 15.938 86.526 38.506 2.128 2.022 4.854 3.025 7.574 3.025 2.91 0 5.814-1.147 7.977-3.424 4.184-4.404 4.005-11.367-.399-15.551-27.865-26.471-63.626-42.083-101.678-44.613v-19.672h76.598z" fill="#0496FF"/><g><path d="m376.655 439.878c-19.884 0-36.061 16.177-36.061 36.061s16.177 36.061 36.061 36.061 36.061-16.177 36.061-36.061-16.177-36.061-36.061-36.061zm0 50.122c-7.753 0-14.061-6.308-14.061-14.061s6.308-14.061 14.061-14.061 14.061 6.308 14.061 14.061-6.308 14.061-14.061 14.061z"/><path d="m135.345 439.878c-19.884 0-36.061 16.177-36.061 36.061s16.177 36.061 36.061 36.061 36.061-16.177 36.061-36.061-16.177-36.061-36.061-36.061zm0 50.122c-7.753 0-14.061-6.308-14.061-14.061s6.308-14.061 14.061-14.061 14.061 6.308 14.061 14.061-6.307 14.061-14.061 14.061z"/><path d="m256 439.878c-19.884 0-36.061 16.177-36.061 36.061s16.177 36.061 36.061 36.061 36.061-16.177 36.061-36.061-16.177-36.061-36.061-36.061zm0 50.122c-7.753 0-14.061-6.308-14.061-14.061s6.308-14.061 14.061-14.061 14.061 6.308 14.061 14.061-6.308 14.061-14.061 14.061z"/><path d="m387.325 257.771h-92.781v-23.678h41.619c16.789 0 32.688-7.307 43.622-20.048s15.743-29.565 13.194-46.16l-18.294-119.128c-2.083-13.566-8.966-25.959-19.382-34.897s-23.71-13.86-37.435-13.86h-123.736c-13.725 0-27.019 4.922-37.435 13.86s-17.299 21.331-19.382 34.896l-18.295 119.129c-2.548 16.595 2.261 33.419 13.194 46.16 10.934 12.741 26.833 20.048 43.622 20.048h41.619v23.678h-92.781c-21.744 0-39.433 17.689-39.433 39.433v1.896c0 21.744 17.689 39.433 39.433 39.433h262.65c21.744 0 39.433-17.689 39.433-39.433v-1.896c.001-21.744-17.688-39.433-39.432-39.433zm-238.415-58.053c-6.749-7.864-9.718-18.25-8.145-28.493l18.295-119.128c2.678-17.44 17.428-30.097 35.072-30.097h123.736c17.644 0 32.394 12.657 35.071 30.097l18.295 119.128c1.573 10.243-1.396 20.629-8.145 28.493-6.749 7.865-16.563 12.375-26.927 12.375h-160.326c-10.363 0-20.177-4.51-26.926-12.375zm90.546 34.375h33.089v23.678h-33.089zm165.302 65.007c0 9.613-7.82 17.433-17.433 17.433h-262.65c-9.613 0-17.433-7.82-17.433-17.433v-1.896c0-9.613 7.82-17.433 17.433-17.433h262.65c9.613 0 17.433 7.82 17.433 17.433z"/></g></g><g/><g/><g/><g/><g/><g/><g/><g/><g/><g/><g/><g/><g/><g/><g/></svg>