<svg id="Capa_1" enable-background="new 0 0 512 512" viewBox="0 0 512 512" xmlns="http://www.w3.org/2000/svg" fill="#E6ECF2"><g><g fill="#0496FF"><path d="m349.174 435.496c-36.585 19.023-76.933 26.278-117.504 21.272l5.801-4.321c4.872-3.628 5.881-10.52 2.252-15.393-3.628-4.872-10.521-5.881-15.393-2.251l-26.323 19.605c-4.55 3.388-5.776 9.68-2.833 14.529l16.996 28.001c2.069 3.41 5.696 5.294 9.414 5.294 1.944 0 3.913-.516 5.697-1.598 5.193-3.152 6.848-9.917 3.695-15.111l-4.391-7.235c10.027 1.346 20.044 2.032 30.011 2.032 35.561 0 70.463-8.531 102.726-25.306 5.391-2.803 7.488-9.444 4.686-14.834s-9.446-7.484-14.834-4.684z"/><path d="m162.396 75.407c1.624 0 3.272-.361 4.828-1.123 35.415-17.335 74.242-23.825 113.101-19.049l-5.796 4.317c-4.872 3.628-5.881 10.52-2.252 15.393 2.159 2.899 5.474 4.43 8.831 4.43 2.284 0 4.589-.709 6.562-2.179l26.323-19.605c4.55-3.388 5.776-9.68 2.833-14.529l-16.996-28.001c-3.151-5.193-9.915-6.848-15.111-3.696-5.193 3.152-6.848 9.917-3.695 15.111l4.385 7.223c-43.902-5.879-87.84 1.237-127.855 20.826-5.457 2.671-7.715 9.26-5.044 14.716 1.908 3.9 5.819 6.166 9.886 6.166z"/><path d="m59.553 237.472c2.16 2.899 5.474 4.43 8.831 4.43 2.284 0 4.589-.709 6.562-2.179 4.873-3.629 5.881-10.521 2.252-15.393l-19.606-26.324c-3.388-4.549-9.681-5.776-14.53-2.833l-28 16.996c-5.193 3.152-6.848 9.918-3.695 15.111 3.151 5.193 9.915 6.848 15.111 3.695l7.244-4.397c-6.049 45.879 2.27 92.96 23.892 133.94 1.971 3.737 5.788 5.87 9.738 5.87 1.729 0 3.486-.41 5.123-1.273 5.373-2.835 7.431-9.489 4.596-14.862-19.45-36.866-26.901-77.588-21.839-118.585z"/><path d="m500.635 284.719c-3.151-5.193-9.915-6.848-15.111-3.695l-7.224 4.385c6.069-45.243-1.636-90.374-22.55-131.306-2.765-5.41-9.39-7.556-14.801-4.791-5.41 2.764-7.555 9.391-4.79 14.8 18.52 36.246 25.546 76.148 20.608 116.216l-4.32-5.8c-3.63-4.871-10.52-5.88-15.393-2.251s-5.881 10.521-2.252 15.393l19.606 26.324c2.146 2.882 5.458 4.43 8.83 4.43 1.95 0 3.923-.519 5.7-1.598l28-16.996c5.195-3.152 6.849-9.918 3.697-15.111z"/><path d="m379.096 245h-46.113c-3.059-71.543-35.771-124.096-76.983-124.096s-73.924 52.553-76.983 124.096h-46.113c-6.075 0-11 4.925-11 11s4.925 11 11 11h46.113c3.059 71.543 35.771 124.096 76.983 124.096s73.924-52.553 76.983-124.096h46.113c6.075 0 11-4.925 11-11s-4.925-11-11-11zm-86.011-73.049c10.339 19.688 16.562 45.307 17.867 73.049h-43.952v-101.537c9.471 4.378 18.601 14.237 26.085 28.488zm-74.17 0c7.484-14.251 16.614-24.11 26.085-28.488v101.537h-43.952c1.305-27.741 7.528-53.361 17.867-73.049zm0 168.098c-10.339-19.688-16.562-45.307-17.867-73.049h43.952v101.537c-9.471-4.378-18.601-14.237-26.085-28.488zm74.17 0c-7.484 14.251-16.614 24.11-26.085 28.488v-101.537h43.952c-1.305 27.741-7.528 53.361-17.867 73.049z"/></g><g><path d="m83.564 166.728c46.077 0 83.564-37.397 83.564-83.364s-37.486-83.364-83.564-83.364-83.564 37.397-83.564 83.364 37.487 83.364 83.564 83.364zm-15.631-84.097c0-8.579 7.013-15.559 15.632-15.559s15.632 6.979 15.632 15.559-7.013 15.559-15.632 15.559-15.632-6.98-15.632-15.559zm-9.402 56.773c2.894-11.131 12.98-19.215 25.034-19.215 12.035 0 22.133 8.089 25.032 19.215-7.654 3.41-16.121 5.323-25.032 5.323-8.913.001-17.38-1.912-25.034-5.323zm25.033-117.404c33.946 0 61.564 27.528 61.564 61.364 0 16.793-6.808 32.027-17.811 43.118-3.412-7.67-8.774-14.246-15.465-19.122 5.81-6.612 9.344-15.264 9.344-24.729 0-20.71-16.882-37.559-37.632-37.559s-37.631 16.849-37.631 37.559c0 9.459 3.53 18.106 9.333 24.717-6.693 4.875-12.054 11.452-15.463 19.126-10.998-11.091-17.803-26.321-17.803-43.11 0-33.836 27.618-61.364 61.564-61.364z"/><path d="m428.436 166.728c46.077 0 83.564-37.397 83.564-83.364s-37.487-83.364-83.564-83.364-83.564 37.397-83.564 83.364 37.486 83.364 83.564 83.364zm-15.632-84.097c0-8.579 7.013-15.559 15.632-15.559s15.632 6.979 15.632 15.559-7.013 15.559-15.632 15.559-15.632-6.98-15.632-15.559zm-9.402 56.773c2.894-11.131 12.98-19.215 25.034-19.215 12.034 0 22.133 8.089 25.033 19.215-7.654 3.41-16.121 5.323-25.033 5.323-8.913.001-17.38-1.912-25.034-5.323zm25.034-117.404c33.946 0 61.564 27.528 61.564 61.364 0 16.793-6.808 32.027-17.811 43.118-3.412-7.67-8.774-14.246-15.465-19.122 5.81-6.612 9.344-15.264 9.344-24.729 0-20.71-16.882-37.559-37.632-37.559s-37.632 16.849-37.632 37.559c0 9.459 3.53 18.106 9.333 24.717-6.693 4.875-12.054 11.452-15.463 19.126-10.998-11.091-17.803-26.321-17.803-43.11 0-33.836 27.618-61.364 61.565-61.364z"/><path d="m83.564 345.272c-46.077 0-83.564 37.397-83.564 83.364s37.487 83.364 83.564 83.364 83.564-37.397 83.564-83.364-37.486-83.364-83.564-83.364zm-15.631 82.631c0-8.579 7.013-15.559 15.632-15.559s15.632 6.979 15.632 15.559-7.013 15.559-15.632 15.559-15.632-6.98-15.632-15.559zm-9.402 56.774c2.894-11.131 12.98-19.215 25.034-19.215 12.035 0 22.133 8.089 25.032 19.215-7.654 3.41-16.121 5.323-25.032 5.323-8.913 0-17.38-1.913-25.034-5.323zm68.787-12.923c-3.411-7.67-8.774-14.246-15.465-19.123 5.81-6.612 9.344-15.264 9.344-24.729 0-20.71-16.882-37.559-37.632-37.559s-37.632 16.849-37.632 37.559c0 9.459 3.53 18.106 9.333 24.717-6.693 4.875-12.054 11.452-15.463 19.126-10.998-11.089-17.803-26.32-17.803-43.109 0-33.836 27.618-61.364 61.564-61.364s61.564 27.528 61.564 61.364c.001 16.793-6.807 32.027-17.81 43.118z"/><path d="m428.436 345.272c-46.077 0-83.564 37.397-83.564 83.364s37.486 83.364 83.564 83.364 83.564-37.397 83.564-83.364-37.487-83.364-83.564-83.364zm-15.632 82.631c0-8.579 7.013-15.559 15.632-15.559s15.632 6.979 15.632 15.559-7.013 15.559-15.632 15.559-15.632-6.98-15.632-15.559zm-9.402 56.774c2.894-11.131 12.98-19.215 25.034-19.215 12.034 0 22.133 8.089 25.033 19.215-7.654 3.41-16.121 5.323-25.033 5.323-8.913 0-17.38-1.913-25.034-5.323zm68.787-12.922c-3.412-7.67-8.774-14.246-15.465-19.122 5.81-6.612 9.344-15.264 9.344-24.729 0-20.71-16.882-37.559-37.632-37.559s-37.632 16.849-37.632 37.559c0 9.459 3.53 18.106 9.333 24.717-6.693 4.875-12.054 11.452-15.463 19.126-10.998-11.091-17.803-26.321-17.803-43.11 0-33.836 27.618-61.364 61.564-61.364s61.565 27.527 61.565 61.363c0 16.793-6.808 32.027-17.811 43.119z"/><path d="m393.096 256c0-75.595-61.501-137.096-137.096-137.096s-137.096 61.501-137.096 137.096 61.501 137.096 137.096 137.096 137.096-61.501 137.096-137.096zm-137.096 115.096c-63.464 0-115.096-51.632-115.096-115.096s51.632-115.096 115.096-115.096 115.096 51.632 115.096 115.096-51.632 115.096-115.096 115.096z"/></g></g><g/><g/><g/><g/><g/><g/><g/><g/><g/><g/><g/><g/><g/><g/><g/></svg>