<svg id="Capa_1" enable-background="new 0 0 512.001 512.001" viewBox="0 0 512.001 512.001" xmlns="http://www.w3.org/2000/svg" fill="#052438"><g><g><g><path d="m289.397 63.498c-3.87-3.274-7.989-6.164-12.296-8.668-.859-30.378-25.821-54.83-56.402-54.83h-39.184c-30.582 0-55.543 24.452-56.402 54.83-4.307 2.504-8.426 5.394-12.296 8.668-19.236 16.272-30.268 40.051-30.268 65.238v36.342c0 6.075 4.925 11 11 11s11-4.925 11-11v-36.342c0-18.702 8.192-36.358 22.477-48.442 14.301-12.097 33.1-17.253 51.576-14.149l20.682 3.477c1.207.203 2.439.203 3.646 0l20.682-3.477c18.477-3.103 37.276 2.052 51.576 14.149 14.284 12.084 22.477 29.741 22.477 48.442v36.342c0 6.075 4.925 11 11 11s11-4.925 11-11v-36.342c0-25.188-11.032-48.966-30.268-65.238zm-69.431-19.049-18.859 3.17-18.859-3.17c-11.231-1.887-22.55-1.499-33.361.985 4.604-13.607 17.486-23.434 32.628-23.434h39.184c15.142 0 28.024 9.826 32.628 23.434-10.812-2.485-22.13-2.873-33.361-.985z" fill="#0496FF"/></g><g><path d="m234.314 402.647c-21.069 0-38.21-17.133-38.21-38.193s17.141-38.193 38.21-38.193 38.21 17.133 38.21 38.193-17.141 38.193-38.21 38.193zm0-54.386c-8.938 0-16.21 7.264-16.21 16.193s7.272 16.193 16.21 16.193 16.21-7.264 16.21-16.193-7.272-16.193-16.21-16.193z" fill="#0496FF"/></g></g><path d="m472.695 399.931h-39.296v-39.454c0-6.075-4.925-11-11-11s-11 4.925-11 11v39.454h-39.049v-35.741l6.014-.8-1.154-16.971-4.86-8.649v-44.91l5.216-3.039-11.469-19.029-5.942-.95c-3.954-2.465-8.621-3.89-13.613-3.89h-64.534c3.304-6.138 5.89-12.625 7.713-19.338h9.417c25.517 0 46.276-20.756 46.276-46.269 0-25.512-20.759-46.268-46.276-46.268h-14.895c-13.741-6.203-23.538-18.608-26.354-33.571-.631-3.354-2.784-6.226-5.827-7.771-3.042-1.547-6.631-1.593-9.712-.125-25.948 13.21-56.499 13.001-82.304-.465-3.098-1.502-6.721-1.466-9.79.096-3.068 1.563-5.228 4.472-5.836 7.861-2.719 15.168-12.527 27.724-26.382 33.976h-14.96c-25.517 0-46.276 20.756-46.276 46.268 0 25.513 20.759 46.269 46.276 46.269h9.53c1.841 6.739 4.443 13.248 7.771 19.401-13.438.882-24.102 12.089-24.102 25.746v35.34c-.169.031-27.569 5.311-27.569 5.311-21.987 4.251-39.216 21.917-43.892 45.004l-24.588 121.4c-.655 3.234.177 6.592 2.266 9.147 2.09 2.554 5.216 4.036 8.516 4.036 123.863.005 321.697-.03 445.468 0 21.625 0 39.218-17.593 39.218-39.218v-49.851c-.001-12.682-10.318-23-23.001-23zm-149.282-199.585c0 13.382-10.89 24.269-24.276 24.269h-6.261c.017-.797.039-48.537.039-48.537h6.222c13.386 0 24.276 10.887 24.276 24.268zm-192.047-28.301c14.205-7.627 25.092-19.939 30.967-34.845 25.102 9.504 52.538 9.625 77.716.349 5.918 14.736 16.772 26.924 30.866 34.495l.004 50.235c.079 15.922-5.29 31.283-15.174 43.673h-109.11c-9.867-12.316-15.269-27.611-15.269-43.451zm-28.288 52.57c-13.386 0-24.276-10.887-24.276-24.269 0-13.381 10.89-24.268 24.276-24.268h6.288s.032 47.832.048 48.537zm19.008 63.338h224.455c2.1 0 3.809 1.708 3.809 3.809v149.194h-232.072v-149.195c0-2.1 1.708-3.808 3.808-3.808zm-75.707 93.831c2.9-14.318 13.304-25.219 26.506-27.772l23.393-4.522v91.519c-12.892.797-23.139 11.531-23.139 24.616 0 8.937 2.549 17.288 6.949 24.375h-55.627zm73.157 108.216c-13.453 0-24.397-10.935-24.397-24.375 0-1.472 1.201-2.669 2.677-2.669h272.995c1.476 0 2.677 1.197 2.677 2.669 0 13.441-10.945 24.375-24.397 24.375zm354.159-17.218c0 9.494-7.724 17.218-17.218 17.218h-67.937c4.4-7.088 6.949-15.438 6.949-24.375 0-13.085-10.246-23.819-23.139-24.616v-19.077h100.346c.523 0 1 .477 1 1v49.85z"/><path d="m509.51 280.1c-1.01-3.8-3.98-6.77-7.78-7.78-13-3.48-26.5-3.23-39.07.33.83-25.49-12.64-49.72-34.76-62.45-3.41-1.97-7.6-1.96-11 0-22.14 12.75-35.53 36.95-34.8 62.43-7.07-2.01-14.46-2.98-21.95-2.78 7.32 4.55 12.2 12.67 12.2 21.91v1.1c9.79 1.99 18.89 6.81 26.1 14.02 11.38 11.37 16.7 27.43 14.61 43.17-14.62 1.93-29.54-2.52-40.71-12.28v26.42c10.48 5.44 22.16 8.3 34 8.3 5.35 0 10.73-.59 16.05-1.79 5.29 1.19 10.65 1.78 15.98 1.78 19.29 0 38.23-7.59 52.12-21.48 18.48-18.47 25.77-45.64 19.01-70.9zm-87.12 21.28c-2.47-3.57-5.26-6.94-8.39-10.06-3.07-3.07-6.39-5.82-9.9-8.27v-12.61c0-14.7 6.88-28.53 18.3-37.47 11.4 8.92 18.27 22.72 18.29 37.39l-.18 12.81c-3.44 2.41-6.69 5.13-9.71 8.15-3.11 3.1-5.92 6.47-8.41 10.06zm52.56 34.06c-10.69 10.69-25.08 15.97-39.79 14.95.75-7.71.25-15.44-1.4-22.91 2.49-7.72 6.8-14.82 12.59-20.6 11.38-11.38 27.46-16.7 43.2-14.6 2.09 15.73-3.23 31.8-14.6 43.16z" fill="#0496FF"/></g><g/><g/><g/><g/><g/><g/><g/><g/><g/><g/><g/><g/><g/><g/><g/></svg>