<svg id="Capa_1" enable-background="new 0 0 511.999 511.999" viewBox="0 0 511.999 511.999" xmlns="http://www.w3.org/2000/svg" fill="#052438"><g><g><path d="m337.693 311.121c-12.086-12.087-31.753-12.086-43.841 0l-38.184 38.184c-3.509 3.51-9.219 3.51-12.728 0l-110.246-110.247c-3.509-3.509-3.509-9.219 0-12.728l38.184-38.184c12.086-12.087 12.086-31.753 0-43.84l-54.2-54.199c-5.855-5.855-13.64-9.08-21.92-9.08s-16.065 3.225-21.92 9.08l-44.068 44.067c-16.755 16.756-26.889 39.002-28.533 62.642-1.645 23.639 5.312 47.074 19.586 65.989 56.9 75.393 123.979 142.472 199.372 199.372 17.094 12.9 37.878 19.824 59.17 19.823 2.268 0 4.543-.079 6.819-.237 23.639-1.644 45.886-11.778 62.642-28.533l44.067-44.067c5.855-5.855 9.08-13.64 9.08-21.92s-3.225-16.065-9.08-21.92zm-242.935-208.09c2.305 0 4.609.877 6.364 2.632l54.2 54.199c3.508 3.509 3.509 9.22 0 12.729l-9.192 9.192-66.927-66.927 9.192-9.192c1.754-1.756 4.058-2.633 6.363-2.633zm237.511 334.641c-13.003 13.003-30.267 20.867-48.611 22.143-18.354 1.271-36.532-4.122-51.209-15.2-73.764-55.671-139.394-121.3-195.064-195.064-11.078-14.678-16.476-32.865-15.2-51.209 1.276-18.345 9.14-35.608 22.143-48.611l19.318-19.318 66.927 66.927-13.435 13.435c-12.087 12.087-12.087 31.754 0 43.841l110.247 110.247c12.087 12.087 31.754 12.087 43.841 0l13.435-13.435 66.927 66.927zm44.067-44.067-9.192 9.192-66.927-66.928 9.192-9.192c3.51-3.51 9.22-3.509 12.728 0l54.2 54.2c3.508 3.509 3.508 9.219-.001 12.728z"/><path d="m500.999 30h-180.165c-6.075 0-11 4.925-11 11v92.129h22v-81.129h158.166v103.937h-23.332c-2.917 0-5.715 1.159-7.778 3.222l-13.334 13.335-13.334-13.335c-2.063-2.062-4.861-3.222-7.778-3.222h-32.177v22h27.621l17.891 17.891c2.148 2.148 4.963 3.222 7.778 3.222s5.63-1.074 7.778-3.222l17.891-17.891h29.775c6.075 0 11-4.925 11-11v-125.937c-.002-6.075-4.927-11-11.002-11z"/></g><g fill="#0496FF"><path d="m392.265 122.129h-180.166c-6.075 0-11 4.925-11 11v125.937c0 6.075 4.925 11 11 11h29.775l17.891 17.891c2.148 2.148 4.963 3.222 7.778 3.222s5.63-1.074 7.778-3.222l17.891-17.891h99.052c6.075 0 11-4.925 11-11v-125.937c.001-6.075-4.924-11-10.999-11zm-11 125.937h-92.608c-2.917 0-5.715 1.159-7.778 3.222l-13.334 13.335-13.334-13.335c-2.063-2.062-4.861-3.222-7.778-3.222h-23.332v-103.937h158.166v103.937z"/><path d="m252.079 205.24c7.083 4.922 17.242-.525 17.1-9.14.148-8.622-10.009-14.059-17.1-9.15-6.44 4.012-6.448 14.284 0 18.29z"/><path d="m292.029 200.3c2.674 7.11 12.719 9.085 17.93 3.58 6.192-6.006 2.865-17.018-5.631-18.569-8.35-1.877-15.8 7.164-12.299 14.989z"/><path d="m336.029 200.3c2.672 7.113 12.72 9.081 17.93 3.58 6.192-6.004 2.864-17.022-5.631-18.569-8.423-1.816-15.76 7.087-12.299 14.989z"/></g></g><g/><g/><g/><g/><g/><g/><g/><g/><g/><g/><g/><g/><g/><g/><g/></svg>