<svg id="Capa_1" enable-background="new 0 0 512 512" viewBox="0 0 512 512" xmlns="http://www.w3.org/2000/svg" fill="#052438"><g><g><path d="m279.357 139.866c-6.075 0-11 4.925-11 11 0 6.814-5.543 12.357-12.357 12.357s-12.357-5.543-12.357-12.357c0-6.075-4.925-11-11-11s-11 4.925-11 11c0 18.945 15.413 34.357 34.357 34.357s34.357-15.413 34.357-34.357c0-6.075-4.924-11-11-11z"/><path d="m476 314h-85.681c-1.53-16.412-6.991-31.7-15.438-44.905v-150.214c0-65.551-53.33-118.881-118.881-118.881s-118.881 53.33-118.881 118.881v150.214c-8.447 13.205-13.908 28.493-15.438 44.905h-85.681c-6.075 0-11 4.925-11 11v176c0 6.075 4.925 11 11 11h440c6.075 0 11-4.925 11-11v-176c0-6.075-4.925-11-11-11zm-232.689 0-4.928-46.299 9.222 10.892c2.09 2.468 5.161 3.892 8.395 3.892s6.305-1.424 8.395-3.892l9.222-10.892-4.928 46.299zm48.646-127.268c-9.726 9.654-22.59 14.91-36.346 14.814-27.93-.207-50.653-23.453-50.653-51.819v-35.125h4.088c18.134 0 34.984-7.505 46.954-20.523 11.97 13.018 28.82 20.523 46.954 20.523h4.088v35.904c0 13.705-5.357 26.57-15.085 36.226zm-36.509 36.813c.187.001.372.002.559.002 7.337 0 14.507-1.078 21.335-3.153v8.86l-21.342 25.207-21.342-25.208v-8.949c6.59 2.048 13.565 3.187 20.79 3.241zm42.734 21.215c36.514 3.962 65.639 32.845 69.998 69.24h-77.367zm-42.182-222.76c53.42 0 96.881 43.46 96.881 96.881v125.711c-14.959-12.028-33.394-19.897-53.539-21.834v-13.443c2.844-2.105 5.556-4.429 8.114-6.968 13.92-13.817 21.586-32.228 21.586-51.841v-46.904c0-6.075-4.925-11-11-11h-15.088c-14.541 0-27.825-7.36-35.535-19.688l-2.092-3.346c-2.011-3.215-5.535-5.167-9.327-5.167s-7.316 1.953-9.327 5.167l-2.092 3.346c-7.71 12.328-20.995 19.688-35.536 19.688h-15.088c-6.075 0-11 4.925-11 11v46.125c0 24.238 11.709 45.842 29.7 59.323v13.708c-20.145 1.937-38.58 9.806-53.539 21.834v-125.711c.001-53.421 43.462-96.881 96.882-96.881zm-42.182 222.76 7.37 69.24h-77.368c4.359-36.395 33.484-65.278 69.998-69.24zm251.182 245.24h-418v-154h418z"/></g><g fill="#0496FF"><path d="m124 358c-6.075 0-11 4.925-11 11v33h-22v-33c0-6.075-4.925-11-11-11s-11 4.925-11 11v88c0 6.075 4.925 11 11 11s11-4.925 11-11v-33h22v33c0 6.075 4.925 11 11 11s11-4.925 11-11v-88c0-6.075-4.925-11-11-11z"/><path d="m168 358c-6.075 0-11 4.925-11 11v88c0 6.075 4.925 11 11 11s11-4.925 11-11v-88c0-6.075-4.925-11-11-11z"/><path d="m344 380c6.075 0 11-4.925 11-11s-4.925-11-11-11h-44c-6.075 0-11 4.925-11 11v88c0 6.075 4.925 11 11 11h44c6.075 0 11-4.925 11-11s-4.925-11-11-11h-33v-22h13c6.075 0 11-4.925 11-11s-4.925-11-11-11h-13v-22z"/><path d="m402 358h-14c-6.075 0-11 4.925-11 11v88c0 6.075 4.925 11 11 11h14c22.607 0 41-18.393 41-41v-28c0-22.607-18.393-41-41-41zm19 69c0 10.477-8.523 19-19 19h-3v-66h3c10.477 0 19 8.523 19 19z"/><path d="m234 358h-22c-6.075 0-11 4.925-11 11v88c0 6.075 4.925 11 11 11s11-4.925 11-11v-33h11c6.065 0 11 4.935 11 11v22c0 6.075 4.925 11 11 11s11-4.925 11-11v-22c0-8.444-3.188-16.157-8.423-22 5.235-5.843 8.423-13.556 8.423-22 0-18.196-14.804-33-33-33zm0 44h-11v-22h11c6.065 0 11 4.935 11 11s-4.935 11-11 11z"/></g></g><g/><g/><g/><g/><g/><g/><g/><g/><g/><g/><g/><g/><g/><g/><g/></svg>