<svg id="Capa_1" enable-background="new 0 0 512.008 512.008" viewBox="0 0 512.008 512.008" xmlns="http://www.w3.org/2000/svg" fill="#E6ECF2"><g><path d="m504.319 265.149c-13.126-18.409-38.866-22.823-57.377-9.841l-101.357 71.088c-.894-9.839-5.107-19.004-12.098-26.14-7.996-8.163-18.621-12.657-29.921-12.657-.001 0-.005 0-.006 0l-36.448.003c-12.854 0-25.51-3.48-36.601-10.066-15.022-8.919-32.175-13.634-49.604-13.634-28.438 0-55.112 11.076-75.107 31.187-9.997 10.055-21.684 21.783-33.234 33.362l-4.194-4.194c-2.063-2.063-4.861-3.222-7.778-3.222s-5.715 1.159-7.778 3.222l-49.594 49.592c-4.295 4.296-4.295 11.261 0 15.557l119.376 119.376c2.148 2.148 4.963 3.222 7.778 3.222s5.63-1.074 7.778-3.222l49.592-49.592c4.295-4.296 4.295-11.261 0-15.557l-4.052-4.052c4.688-3.48 10.344-5.361 16.29-5.361h100.498c22.882 0 44.885-6.936 63.632-20.057l130.254-91.166c9.099-6.369 15.147-15.904 17.03-26.851 1.884-10.945-.631-21.953-7.079-30.997zm-373.943 220.299-103.82-103.82 34.036-34.037 103.82 103.821zm359.342-193.03c-.881 5.119-3.709 9.578-7.964 12.556l-130.254 91.167c-15.03 10.52-32.671 16.08-51.017 16.08h-100.498c-11.83 0-23.018 4.141-31.931 11.719l-79.933-79.933c11.565-11.594 23.269-23.339 33.279-33.407 15.835-15.927 36.968-24.698 59.506-24.698 13.478 0 26.746 3.648 38.371 10.551 14.489 8.603 31.029 13.149 47.834 13.149l36.45-.003c5.339 0 10.385 2.148 14.209 6.052 3.868 3.948 5.998 9.169 5.998 14.702 0 5.211-2.03 10.148-5.717 13.9-3.658 3.723-8.475 5.773-13.564 5.773h-.003l-80.255-.012h-.001c-6.074 0-10.999 4.924-11 10.999s4.923 11 10.999 11.001l80.371.012c9.316 0 18.272-2.828 25.901-8.177l129.076-90.529c8.657-6.07 20.692-4.007 26.832 4.602 3.015 4.229 4.191 9.377 3.311 14.496z"/><path d="m431.991 99.649c11.748-10.456 19.166-25.676 19.166-42.603 0-31.453-25.589-57.042-57.042-57.042-25.245 0-46.699 16.491-54.19 39.261-9.418-6.866-21.002-10.931-33.523-10.931s-24.104 4.065-33.522 10.931c-7.491-22.77-28.944-39.261-54.189-39.261-31.453 0-57.042 25.589-57.042 57.042 0 16.927 7.418 32.147 19.166 42.603-35.687 14.884-60.836 50.134-60.836 91.152v11.788c0 6.075 4.925 11 11 11h76.884c-.102 1.836-.172 3.681-.172 5.542v11.788c0 6.075 4.925 11 11 11h175.424c6.075 0 11-4.925 11-11v-11.788c0-1.861-.07-3.706-.172-5.542h76.884c6.075 0 11-4.925 11-11v-11.788c.001-41.018-25.149-76.268-60.836-91.152zm-37.875-77.645c19.322 0 35.042 15.72 35.042 35.042s-15.72 35.042-35.042 35.042-35.042-15.72-35.042-35.042 15.719-35.042 35.042-35.042zm-87.713 28.331c19.322 0 35.042 15.72 35.042 35.042s-15.72 35.042-35.042 35.042-35.042-15.72-35.042-35.042 15.72-35.042 35.042-35.042zm-87.712-28.331c19.322 0 35.042 15.72 35.042 35.042s-15.72 35.042-35.042 35.042-35.042-15.72-35.042-35.042 15.72-35.042 35.042-35.042zm-76.712 169.584v-.788c0-38.564 28.607-70.559 65.712-75.912v12.08c0 6.075 4.925 11 11 11s11-4.925 11-11v-12.085c12.821 1.853 24.915 6.926 35.209 14.702-25.607 11.916-45.275 34.499-53.281 62.003zm241.137 28.331h-153.425v-.788c0-38.564 28.607-70.559 65.712-75.911v12.08c0 6.075 4.925 11 11 11s11-4.925 11-11v-12.08c37.105 5.353 65.712 37.348 65.712 75.911v.788zm87.712-28.331h-69.64c-8.007-27.504-27.674-50.087-53.281-62.003 10.293-7.775 22.387-12.849 35.209-14.702v12.085c0 6.075 4.925 11 11 11s11-4.925 11-11v-12.08c37.105 5.353 65.712 37.348 65.712 75.912z" fill="#0496FF"/></g><g/><g/><g/><g/><g/><g/><g/><g/><g/><g/><g/><g/><g/><g/><g/></svg>