<svg id="Capa_1" enable-background="new 0 0 512.002 512.002" viewBox="0 0 512.002 512.002" xmlns="http://www.w3.org/2000/svg" fill="#E6ECF2"><g><g fill="#0496FF"><path d="m378.924 183.654c6.905-7.637 11.117-17.752 11.117-28.834 0-23.732-19.307-43.039-43.039-43.039s-43.039 19.307-43.039 43.039c0 11.082 4.212 21.197 11.116 28.834-18.426 9.59-32.14 27.284-36.082 48.871l21.642 3.952c4.086-22.377 23.585-38.618 46.363-38.618s42.276 16.241 46.363 38.618l21.642-3.952c-3.943-21.587-17.657-39.281-36.083-48.871zm-52.961-28.834c0-11.601 9.438-21.039 21.039-21.039s21.039 9.438 21.039 21.039-9.438 21.039-21.039 21.039-21.039-9.438-21.039-21.039z"/><path d="m240.142 358.434-30.671-53.125c-1.459-2.526-3.861-4.37-6.679-5.125-2.82-.756-5.821-.36-8.347 1.099l-10.68 6.166c-6.607-4.938-13.727-9.055-21.284-12.307v-12.313c0-6.075-4.925-11-11-11h-61.343c-6.075 0-11 4.925-11 11v12.313c-7.557 3.251-14.677 7.369-21.284 12.307l-10.68-6.166c-2.526-1.458-5.529-1.854-8.347-1.099s-5.22 2.599-6.679 5.125l-30.672 53.125c-1.458 2.526-1.854 5.529-1.099 8.347s2.599 5.221 5.125 6.679l10.668 6.159c-.482 4.097-.725 8.209-.725 12.295 0 4.085.243 8.199.725 12.295l-10.668 6.16c-5.261 3.038-7.064 9.765-4.026 15.026l30.671 53.124c3.037 5.262 9.765 7.064 15.026 4.026l10.68-6.166c6.607 4.938 13.727 9.056 21.285 12.308v12.313c0 6.075 4.925 11 11 11h61.343c6.075 0 11-4.925 11-11v-12.313c7.559-3.252 14.677-7.369 21.284-12.308l10.68 6.166c5.263 3.037 11.989 1.235 15.026-4.026l30.671-53.124c3.038-5.261 1.235-11.988-4.026-15.026l-10.668-6.159c.481-4.096.725-8.209.725-12.295s-.243-8.199-.725-12.295l10.668-6.159c5.261-3.038 7.064-9.766 4.026-15.027zm-37.514 17.517c1.024 5.286 1.544 10.657 1.544 15.964s-.52 10.678-1.544 15.963c-.893 4.607 1.235 9.273 5.299 11.62l7.662 4.424-19.671 34.072-7.684-4.436c-4.069-2.349-9.18-1.854-12.724 1.231-8.149 7.097-17.437 12.467-27.605 15.961-4.442 1.527-7.425 5.706-7.425 10.403v8.848h-39.343v-8.848c0-4.697-2.983-8.876-7.425-10.403-10.167-3.494-19.455-8.864-27.605-15.961-3.544-3.086-8.655-3.581-12.724-1.231l-7.684 4.437-19.671-34.072 7.663-4.424c4.064-2.347 6.192-7.013 5.299-11.62-1.025-5.287-1.544-10.658-1.544-15.963s.52-10.676 1.544-15.964c.893-4.607-1.235-9.273-5.299-11.62l-7.663-4.424 19.672-34.072 7.684 4.437c4.069 2.349 9.181 1.854 12.724-1.231 8.15-7.098 17.438-12.468 27.604-15.961 4.442-1.526 7.425-5.706 7.425-10.403v-8.848h39.343v8.848c0 4.697 2.983 8.876 7.425 10.403 10.167 3.494 19.454 8.864 27.604 15.961 3.543 3.085 8.654 3.58 12.724 1.231l7.684-4.437 19.671 34.072-7.662 4.424c-4.063 2.346-6.191 7.012-5.298 11.619z"/></g><g><path d="m120.809 340.194c-28.122 0-51 22.878-51 51s22.878 51 51 51 51-22.878 51-51-22.878-51-51-51zm0 80c-15.991 0-29-13.009-29-29s13.009-29 29-29 29 13.009 29 29-13.009 29-29 29z"/><path d="m501.002 121.339h-13.359c-2.669-8.605-6.125-16.936-10.329-24.904l9.456-9.456c2.063-2.063 3.222-4.861 3.222-7.778s-1.159-5.715-3.222-7.778l-46.19-46.19c-4.296-4.296-11.261-4.296-15.557 0l-9.507 9.507c-7.956-4.182-16.268-7.617-24.853-10.27v-13.469c0-6.075-4.925-11-11-11h-65.323c-6.075 0-11 4.925-11 11v13.567c-8.548 2.663-16.826 6.102-24.744 10.28l-9.615-9.616c-4.296-4.296-11.261-4.296-15.557 0l-46.19 46.19c-4.295 4.296-4.295 11.261 0 15.557l9.667 9.667c-4.156 7.906-7.575 16.165-10.221 24.693h-13.678c-6.075 0-11 4.925-11 11v65.323c0 6.075 4.925 11 11 11h13.678c2.646 8.528 6.064 16.787 10.221 24.693l-9.667 9.667c-4.295 4.296-4.295 11.261 0 15.557l46.19 46.19c4.296 4.296 11.261 4.296 15.557 0l9.615-9.616c7.918 4.179 16.196 7.618 24.744 10.28v13.567c0 6.075 4.925 11 11 11h65.323c6.075 0 11-4.925 11-11v-13.47c8.585-2.652 16.898-6.087 24.853-10.269l9.507 9.507c4.296 4.296 11.261 4.296 15.557 0l46.19-46.19c2.063-2.063 3.222-4.861 3.222-7.778s-1.159-5.715-3.222-7.778l-9.456-9.456c4.205-7.968 7.66-16.298 10.33-24.904h13.359c6.075 0 11-4.925 11-11v-65.323c-.001-6.075-4.926-11-11.001-11zm-11 65.324h-10.713c-5.062 0-9.47 3.454-10.681 8.369-3.016 12.242-7.859 23.917-14.394 34.698-2.625 4.333-1.953 9.898 1.629 13.48l7.591 7.591-30.634 30.634-7.632-7.632c-3.578-3.578-9.133-4.253-13.463-1.639-10.777 6.506-22.439 11.324-34.661 14.32-4.921 1.206-8.381 5.617-8.381 10.684v10.833h-43.323v-10.911c0-5.057-3.447-9.462-8.355-10.677-12.188-3.019-23.813-7.85-34.552-14.358-4.333-2.625-9.897-1.953-13.48 1.629l-7.75 7.751-30.635-30.635 7.792-7.792c3.577-3.577 4.253-9.133 1.639-13.463-6.481-10.735-11.287-22.347-14.285-34.514-1.211-4.915-5.619-8.369-10.681-8.369h-11.032v-43.323h11.032c5.062 0 9.47-3.454 10.681-8.369 2.998-12.167 7.804-23.78 14.285-34.514 2.615-4.331 1.938-9.887-1.639-13.464l-7.792-7.792 30.634-30.634 7.75 7.751c3.583 3.583 9.148 4.254 13.48 1.629 10.738-6.508 22.363-11.339 34.552-14.358 4.908-1.215 8.355-5.621 8.355-10.677v-10.91h43.323v10.833c0 5.066 3.461 9.478 8.382 10.684 12.221 2.995 23.882 7.813 34.661 14.32 4.329 2.614 9.886 1.938 13.463-1.639l7.632-7.632 30.634 30.634-7.591 7.591c-3.583 3.582-4.255 9.147-1.629 13.48 6.535 10.781 11.377 22.456 14.394 34.698 1.211 4.915 5.619 8.369 10.681 8.369h10.713z"/><path d="m347.002 64.001c-55.691 0-101 45.309-101 101s45.309 101 101 101 101-45.309 101-101-45.309-101-101-101zm0 180c-43.561 0-79-35.439-79-79s35.439-79 79-79 79 35.439 79 79-35.44 79-79 79z"/></g></g><g/><g/><g/><g/><g/><g/><g/><g/><g/><g/><g/><g/><g/><g/><g/></svg>