<svg id="Capa_1" enable-background="new 0 0 512 512" viewBox="0 0 512 512" xmlns="http://www.w3.org/2000/svg" fill="#052438"><g><g><path d="m303.747 375.172v-164.286c0-10.313-1.194-20.605-3.551-30.591l-21.412 5.052c1.966 8.333 2.963 16.925 2.963 25.539v154.72l-66.057-28.614v-17.487c21.369-14.409 35.451-38.836 35.451-66.492v-41.39c0-2.917-1.159-5.715-3.222-7.778s-4.861-3.222-7.778-3.222c-22.728 0-44.374-7.125-62.601-20.606-3.887-2.875-9.195-2.875-13.082 0-18.227 13.481-39.873 20.606-62.601 20.606-6.075 0-11 4.925-11 11v41.39c0 27.656 14.082 52.083 35.451 66.492v17.487l-66.057 28.614v-154.72c0-61.066 49.681-110.747 110.747-110.747 25.9 0 51.097 9.132 70.948 25.715l14.104-16.884c-23.8-19.882-54.006-30.831-85.052-30.831-73.197 0-132.747 59.55-132.747 132.747v164.285c-23.276 10.646-38.251 33.871-38.251 59.55v66.279c0 6.075 4.925 11 11 11h320c6.075 0 11-4.925 11-11v-66.279c0-25.679-14.975-48.904-38.253-59.549zm-95.319-17.353 25.14 10.882-24.306 38.926-23.316-23.317zm-95.57-104.806v-30.854c20.802-1.767 40.608-8.546 58.142-19.919 17.533 11.373 37.34 18.153 58.142 19.919v30.854c0 32.06-26.082 58.142-58.142 58.142s-58.142-26.083-58.142-58.142zm58.142 80.141c7.881 0 15.491-1.162 22.69-3.292v11.322l-22.69 26.737-22.69-26.737v-11.322c7.199 2.13 14.809 3.292 22.69 3.292zm-37.428 24.665 22.482 26.491-23.316 23.317-24.306-38.926zm186.428 132.181h-298v-55.279c0-17.343 10.281-33.008 26.192-39.907l39.826-17.27 33.386 53.469c1.775 2.844 4.752 4.723 8.083 5.104 3.302.382 6.658-.776 9.025-3.151l32.488-32.488 32.487 32.488c2.367 2.375 5.724 3.533 9.025 3.151 3.331-.38 6.308-2.259 8.083-5.104l33.386-53.469 39.826 17.271c15.912 6.898 26.193 22.563 26.193 39.906z"/><path d="m452.843 62.058h-154.069c-6.075 0-11 4.925-11 11s4.925 11 11 11h154.068c6.075 0 11-4.925 11-11s-4.924-11-10.999-11z"/><path d="m430.882 110.058h-110.146c-6.075 0-11 4.925-11 11s4.925 11 11 11h110.146c6.075 0 11-4.925 11-11s-4.925-11-11-11z"/></g><g fill="#0496FF"><path d="m455.383 0h-160.766c-31.219 0-56.617 25.398-56.617 56.618v80.88c0 31.219 25.398 56.618 56.617 56.618h40.193v35.61c0 4.363 2.579 8.314 6.573 10.07 3.962 1.748 8.638.998 11.864-1.965l47.638-43.715h54.497c31.219 0 56.617-25.398 56.617-56.618v-80.88c.001-31.22-25.397-56.618-56.616-56.618zm34.617 137.498c0 19.088-15.529 34.618-34.617 34.618h-58.779c-2.754 0-5.408 1.033-7.438 2.896l-32.355 29.691v-21.586c0-6.075-4.925-11-11-11h-51.193c-19.088 0-34.617-15.529-34.617-34.618v-80.88c-.001-19.09 15.528-34.619 34.616-34.619h160.766c19.088 0 34.617 15.529 34.617 34.618z"/><path d="m175.109 260.387c-1.098 1.098-2.558 1.702-4.109 1.702s-3.012-.604-4.109-1.702c-4.295-4.296-11.26-4.296-15.557 0-4.296 4.295-4.296 11.26 0 15.556 5.253 5.253 12.237 8.146 19.666 8.146s14.413-2.893 19.666-8.146c4.296-4.296 4.296-11.261 0-15.556-4.297-4.297-11.262-4.296-15.557 0z"/></g></g><g/><g/><g/><g/><g/><g/><g/><g/><g/><g/><g/><g/><g/><g/><g/></svg>