<svg id="Capa_1" enable-background="new 0 0 512 512" viewBox="0 0 512 512" xmlns="http://www.w3.org/2000/svg" fill="#E6ECF2"><g><g fill="#0496FF"><path d="m474.869 283.629-58.444-19.377v-17.115c16.688-12.57 27.501-32.543 27.501-54.998v-20.215l7.403-21.636c2.161-6.319 3.258-12.911 3.258-19.592 0-33.372-27.15-60.522-60.522-60.522h-38.129c-33.372 0-60.522 27.15-60.522 60.522 0 6.681 1.097 13.273 3.259 19.592l7.611 22.246v19.605c0 22.359 10.724 42.255 27.292 54.833v17.28l-58.444 19.377c-22.21 7.555-37.132 28.392-37.132 51.85v53.813h22v-53.813c0-14.036 8.928-26.502 22.215-31.022l16.624-5.655 30.26 48.463c1.983 3.201 5.566 5.187 9.331 5.174 2.899 0 5.703-1.147 7.777-3.222l28.793-28.792 28.793 28.793c2.367 2.375 5.724 3.533 9.025 3.151 3.331-.38 6.308-2.259 8.083-5.104l30.26-48.463 16.624 5.655c13.287 4.52 22.215 16.987 22.215 31.022v53.813h22v-53.813c0-23.458-14.922-44.295-37.131-51.85zm-118.933-191.456h38.129c21.241 0 38.522 17.281 38.522 38.522 0 1.567-.096 3.126-.285 4.672-1.307-1.068-2.7-2.057-4.196-2.932-10.11-5.92-22.223-6.043-32.4-.332-13.026 7.311-29.116 7.504-41.989.509-10.045-5.459-21.91-5.23-31.738.615-1.485.883-2.868 1.88-4.166 2.956-.26-1.813-.4-3.644-.4-5.488 0-21.241 17.281-38.522 38.523-38.522zm-27.653 68.648c0-5.187 3.455-7.802 4.94-8.685.926-.551 2.81-1.454 5.203-1.454 1.443 0 3.071.329 4.786 1.26 19.458 10.574 43.697 10.325 63.261-.654 3.293-1.848 7.224-1.797 10.517.131 1.484.869 4.936 3.432 4.936 8.454v32.264c0 25.817-21.004 46.821-46.821 46.821s-46.821-21.004-46.821-46.821v-31.316zm46.821 100.139c6.708 0 13.187-.982 19.32-2.78v9.729l-19.424 20.831-19.425-20.83v-9.788c6.196 1.836 12.746 2.838 19.529 2.838zm-34.671 62.92-20.099-32.189 20.977-6.82 18.4 19.731zm69.134 0-19.278-19.278 18.4-19.731 20.977 6.82z"/><path d="m272.927 107.52v-52.52c0-30.327-24.673-55-55-55h-162.927c-30.327 0-55 24.673-55 55v52.52c0 30.327 24.673 55 55 55h112.908l42.248 42.161c3.158 3.158 7.917 4.069 11.985 2.375 4.107-1.704 6.785-5.714 6.785-10.161v-35.479c25.074-5.112 44.001-27.336 44.001-53.896zm-22 0c0 18.196-14.804 33-33 33-6.075 0-11 4.925-11 11v18.857l-26.698-26.643c-2.062-2.058-4.857-3.214-7.771-3.214h-117.458c-18.196 0-33-14.804-33-33v-52.52c0-18.196 14.804-33 33-33h162.927c18.196 0 33 14.804 33 33z"/></g><g><path d="m501 378.293h-252v.312c-5.719-7.059-13.399-12.57-22.423-15.64l-18.098-6.156v-69.93c0-43.274-35.206-78.479-78.479-78.479s-78.479 35.206-78.479 78.479v69.93l-18.097 6.156c-19.992 6.8-33.424 25.556-33.424 46.673v91.362c0 6.075 4.925 11 11 11h490c6.075 0 11-4.925 11-11v-111.707c0-6.075-4.925-11-11-11zm-427.479-91.414c0-31.143 25.337-56.479 56.479-56.479s56.479 25.336 56.479 56.479v73.94c0 31.143-25.337 56.479-56.479 56.479s-56.479-25.336-56.479-56.479zm164.479 203.121h-216v-80.362c0-11.693 7.438-22.08 18.509-25.845l13.229-4.5c8.331 34.386 39.353 60.005 76.263 60.005s67.932-25.62 76.263-60.006l13.229 4.5c11.07 3.766 18.508 14.152 18.508 25.845v80.363zm252 0h-230v-80.362c0-3.18-.31-6.305-.896-9.345h230.896z"/><circle cx="136.463" cy="81.26" r="11"/><circle cx="79.479" cy="81.26" r="11"/><circle cx="193.45" cy="81.26" r="11"/></g></g><g/><g/><g/><g/><g/><g/><g/><g/><g/><g/><g/><g/><g/><g/><g/></svg>