<svg id="Capa_1" enable-background="new 0 0 512.001 512.001" viewBox="0 0 512.001 512.001" xmlns="http://www.w3.org/2000/svg" fill="#E6ECF2"><g><g><path d="m386.413 53.255c-36.037-35.324-83.685-54.228-134.214-53.216-48.915.976-94.81 20.887-129.229 56.065-34.412 35.17-53.334 81.488-53.278 130.421.064 55.887 24.901 108.307 68.144 143.817 13.709 11.257 21.571 28.113 21.571 46.246v72.22c0 6.075 4.925 11 11 11h12.435l17.293 45.129c1.63 4.255 5.715 7.064 10.271 7.064h91.187c4.557 0 8.642-2.809 10.271-7.064l17.293-45.129h12.435c6.075 0 11-4.925 11-11v-72.396c0-17.965 7.99-34.862 21.922-46.359 43.083-35.556 67.793-87.948 67.793-143.744.002-50.468-19.849-97.721-55.894-133.054zm-205.006 384.553v-42h149.187v42zm112.623 52.193h-76.059l-11.57-30.193h99.198zm66.482-176.916c-18.339 15.135-29.135 37.147-29.877 60.723h-149.274c-.775-23.684-11.452-45.595-29.562-60.468-38.143-31.322-60.05-77.554-60.106-126.84-.049-43.138 16.644-83.982 47.003-115.01 30.362-31.032 70.828-48.595 113.943-49.455 44.515-.916 86.594 15.778 118.374 46.931 31.79 31.162 49.297 72.835 49.297 117.343-.001 49.207-21.796 95.415-59.798 126.776z"/><path d="m290.173 194.833v-14.524c1.657-1.303 3.259-2.695 4.782-4.198 10.639-10.502 16.498-24.518 16.498-39.466v-44.297c0-22.824-18.568-41.393-41.393-41.393h-28.12c-22.824 0-41.393 18.569-41.393 41.393v41.524l-11.648 13.653c-9.487 11.123-13.089 25.682-9.882 39.945 1.725 7.667 5.278 14.558 10.255 20.232-19.893 13.829-32.949 36.836-32.949 62.846v15.723c0 6.075 4.925 11 11 11h177.355c6.075 0 11-4.925 11-11v-15.723c0-38.451-28.511-70.367-65.505-75.715zm-10.673-34.38c-6.312 6.23-14.641 9.645-23.5 9.645-.148 0-.298-.001-.447-.003-18.199-.236-33.006-15.539-33.006-34.112v-9.542l33.453-7.625 33.453 7.624v10.204c.001 9.018-3.535 17.473-9.953 23.809zm-31.278 75.611c2.062 2.062 4.861 3.222 7.778 3.222s5.716-1.159 7.778-3.222l12.085-12.086-6.403 51.293h-26.641l-6.592-51.201zm19.951-35.508-12.173 12.174-12.173-12.173v-9.84c3.692.846 7.517 1.325 11.44 1.376.247.003.494.005.741.005 4.145 0 8.215-.467 12.164-1.347v9.805zm-45.626-108.208c0-10.693 8.699-19.393 19.393-19.393h28.121c10.693 0 19.393 8.7 19.393 19.393v11.528l-31.009-7.067c-.805-.183-1.624-.275-2.444-.275s-1.64.092-2.444.275l-31.009 7.067v-11.528zm-22.066 90.295c-1.673-7.441.206-15.037 5.155-20.839l.754-.884c3.699 7.472 8.997 14.009 15.438 19.144v14.769c-3.846.556-7.593 1.415-11.233 2.523-5.123-3.387-8.734-8.578-10.114-14.713zm-22.158 87.906c0-23.239 14.625-43.116 35.149-50.941l7.167 55.665h-42.316zm155.355 4.723h-42.047l6.946-55.645c20.499 7.838 35.101 27.702 35.101 50.922z"/></g><g fill="#0496FF"><path d="m478.779 18.779c4.296-4.296 4.296-11.261 0-15.557-4.297-4.296-11.26-4.295-15.557 0l-34.056 34.058c-4.296 4.296-4.296 11.261 0 15.557 2.148 2.148 4.963 3.222 7.778 3.222s5.63-1.074 7.778-3.222z"/><path d="m501 74.058h-48.164c-6.075 0-11 4.925-11 11s4.925 11 11 11h48.164c6.075 0 11-4.925 11-11s-4.924-11-11-11z"/><path d="m48.779 3.223c-4.296-4.295-11.261-4.295-15.557 0-4.296 4.296-4.296 11.261 0 15.557l34.057 34.057c2.148 2.148 4.963 3.222 7.778 3.222 2.814 0 5.631-1.074 7.778-3.222 4.296-4.296 4.296-11.261 0-15.557z"/><path d="m59.165 74.058h-48.164c-6.075 0-11 4.925-11 11s4.925 11 11 11h48.164c6.075 0 11-4.925 11-11s-4.925-11-11-11z"/></g></g><g/><g/><g/><g/><g/><g/><g/><g/><g/><g/><g/><g/><g/><g/><g/></svg>