<svg id="Capa_1" enable-background="new 0 0 512 512" viewBox="0 0 512 512" xmlns="http://www.w3.org/2000/svg" fill="#E6ECF2"><g><path d="m256 124.142c-52.227 0-94.717 42.49-94.717 94.717s42.49 94.717 94.717 94.717 94.717-42.49 94.717-94.717-42.49-94.717-94.717-94.717zm-38.614 156.29v-1.758c0-21.292 17.322-38.614 38.614-38.614s38.614 17.322 38.614 38.614v1.758c-11.198 7.048-24.433 11.143-38.614 11.143s-27.416-4.095-38.614-11.143zm26.128-74.858c0-6.885 5.602-12.486 12.486-12.486s12.486 5.602 12.486 12.486-5.601 12.486-12.486 12.486-12.486-5.601-12.486-12.486zm70.814 56.657c-4.53-16.044-15.503-29.406-29.949-37.095 3.846-5.563 6.107-12.302 6.107-19.562 0-19.016-15.471-34.486-34.486-34.486s-34.486 15.471-34.486 34.486c0 7.26 2.26 13.999 6.107 19.562-14.445 7.688-25.419 21.05-29.949 37.095-9.034-12.117-14.388-27.13-14.388-43.372 0-40.096 32.621-72.717 72.717-72.717s72.717 32.621 72.717 72.717c-.001 16.241-5.356 31.254-14.39 43.372z" fill="#0496FF"/><g><path d="m420.2 22h-133.085c-4.54-12.805-16.774-22-31.115-22s-26.575 9.195-31.115 22h-133.085c-6.075 0-11 4.925-11 11v468c0 6.075 4.925 11 11 11h328.4c6.075 0 11-4.925 11-11v-468c0-6.075-4.925-11-11-11zm-11 44h-100.2v-22h100.2zm-184.2-22h9c6.075 0 11-4.925 11-11 0-6.065 4.935-11 11-11s11 4.935 11 11c0 6.075 4.925 11 11 11h9v22h-62zm-22 0v22h-100.2v-22zm-100.2 446v-402h306.4v402z"/><path d="m346.263 343.858h-136.526c-6.075 0-11 4.925-11 11s4.925 11 11 11h136.526c6.075 0 11-4.925 11-11s-4.925-11-11-11z"/><path d="m346.263 387.858h-136.526c-6.075 0-11 4.925-11 11s4.925 11 11 11h136.526c6.075 0 11-4.925 11-11s-4.925-11-11-11z"/><path d="m346.263 431.858h-136.526c-6.075 0-11 4.925-11 11s4.925 11 11 11h136.526c6.075 0 11-4.925 11-11s-4.925-11-11-11z"/><circle cx="165.737" cy="354.858" r="11"/><circle cx="165.737" cy="398.858" r="11"/><circle cx="165.737" cy="442.858" r="11"/></g></g><g/><g/><g/><g/><g/><g/><g/><g/><g/><g/><g/><g/><g/><g/><g/></svg>