<svg id="Capa_1" enable-background="new 0 0 512 512" viewBox="0 0 512 512" xmlns="http://www.w3.org/2000/svg" fill="#E6ECF2"><g><g><path d="m451.085 184.838c10.872-10.499 17.653-25.208 17.653-41.48v-12.518c0-31.814-25.883-57.698-57.698-57.698s-57.698 25.883-57.698 57.698v12.518c0 16.285 6.792 31.005 17.68 41.506-14.863 5.508-28.24 14.761-38.69 27.021l-33.782-11.191v-18.173c16.341-12.692 26.885-32.509 26.885-54.754v-23.894c5.455-.65 9.688-5.284 9.688-10.915v-13.835c0-43.629-35.495-79.123-79.123-79.123s-79.123 35.494-79.123 79.123v13.836c0 5.712 4.353 10.404 9.923 10.946v23.863c0 22.138 10.444 41.87 26.65 54.569v18.358l-33.782 11.191c-10.45-12.261-23.827-21.514-38.69-27.021 10.887-10.501 17.68-25.221 17.68-41.506v-12.518c0-31.814-25.883-57.698-57.698-57.698-31.814 0-57.698 25.883-57.698 57.698v12.518c0 16.272 6.781 30.981 17.653 41.48-35.527 13.173-60.915 47.407-60.915 87.46v25.141c0 6.075 4.925 11 11 11h106.453v55.137c0 6.075 4.925 11 11 11h49.78v-22h-38.78v-79.923c0-14.266 9.074-26.937 22.58-31.531l16.929-5.759 29.486 47.224c1.732 2.775 4.61 4.634 7.851 5.074.494.067.988.1 1.48.1 2.737 0 5.397-1.022 7.439-2.897l30.782-28.264 30.782 28.264c2.042 1.875 4.702 2.897 7.439 2.897.492 0 .986-.033 1.48-.1 3.241-.44 6.119-2.299 7.851-5.074l29.486-47.224 16.929 5.758c13.506 4.594 22.58 17.266 22.58 31.531v79.923h-38.526v22h49.526c6.075 0 11-4.925 11-11v-55.136h106.453c6.075 0 11-4.925 11-11v-25.141c0-40.053-25.388-74.287-60.915-87.461zm-75.743-53.997c0-19.684 16.014-35.698 35.698-35.698s35.698 16.014 35.698 35.698v12.518c0 19.684-16.014 35.698-35.698 35.698s-35.698-16.014-35.698-35.698zm-176.465-51.718c0-31.498 25.625-57.123 57.123-57.123s57.123 25.625 57.123 57.123v2.836h-16.254c-3.262 0-6.357-1.051-8.887-2.933 1.29-3.753 1.99-7.778 1.99-11.963 0-6.075-4.925-11-11-11s-11 4.925-11 11c0 8.214-6.682 14.896-14.896 14.896h-54.199zm9.923 24.835h44.276c8.179 0 15.746-2.675 21.87-7.197 6.245 4.62 13.877 7.197 21.923 7.197h6.566v23.809c0 26.091-21.227 47.317-47.317 47.317s-47.318-21.226-47.318-47.317zm47.318 93.126c7.109 0 13.97-1.079 20.432-3.076v10.223l-20.55 21.511-20.549-21.512v-10.294c6.53 2.044 13.472 3.148 20.667 3.148zm-190.856-66.243c0-19.684 16.014-35.698 35.698-35.698s35.698 16.014 35.698 35.698v12.518c0 19.684-16.014 35.698-35.698 35.698s-35.698-16.014-35.698-35.698zm52.191 141.813v13.787h-95.453v-14.141c0-38.182 30.195-69.437 67.96-71.159v14.194c0 6.075 4.925 11 11 11s11-4.925 11-11v-14.193c16.693.776 32.511 7.432 44.722 18.563l-1.735.59c-22.426 7.628-37.494 28.67-37.494 52.359zm102.641-12.951-19.679-31.517 20.887-6.916 18.994 19.883zm71.812 0-20.202-18.55 18.994-19.883 20.887 6.916zm198.094 26.737h-95.453v-13.787c0-23.689-15.068-44.73-37.495-52.359l-1.735-.59c12.211-11.131 28.029-17.788 44.722-18.563v14.193c0 6.075 4.925 11 11 11s11-4.925 11-11v-14.194c37.765 1.722 67.96 32.977 67.96 71.159v14.141z"/><path d="m256.127 369.22c-22.607 0-41 18.393-41 41s18.393 41 41 41 41-18.393 41-41-18.393-41-41-41zm0 60c-10.477 0-19-8.523-19-19s8.523-19 19-19 19 8.523 19 19-8.523 19-19 19z"/></g><g><path d="m281.651 512h-51.049c-6.075 0-11-4.925-11-11v-9.04c-5.638-2.518-10.982-5.609-15.989-9.246l-7.842 4.527c-2.527 1.458-5.529 1.854-8.347 1.099s-5.22-2.599-6.679-5.125l-25.524-44.209c-3.038-5.261-1.235-11.989 4.026-15.026l7.833-4.522c-.32-3.08-.481-6.167-.481-9.237s.161-6.157.481-9.236l-7.833-4.522c-5.261-3.038-7.064-9.765-4.026-15.026l25.524-44.209c1.459-2.526 3.861-4.37 6.679-5.125 2.82-.755 5.821-.359 8.347 1.099l7.842 4.527c5.007-3.637 10.351-6.728 15.989-9.246v-9.04c0-6.075 4.925-11 11-11h51.049c6.075 0 11 4.925 11 11v9.041c5.638 2.518 10.982 5.608 15.989 9.246l7.842-4.527c2.526-1.458 5.528-1.854 8.347-1.099 2.818.755 5.22 2.599 6.679 5.125l25.524 44.209c3.038 5.261 1.235 11.989-4.026 15.026l-7.833 4.522c.32 3.08.481 6.167.481 9.236 0 3.07-.161 6.157-.481 9.237l7.833 4.522c5.261 3.038 7.064 9.765 4.026 15.026l-25.524 44.209c-1.459 2.526-3.861 4.37-6.679 5.125-2.819.755-5.821.359-8.347-1.099l-7.842-4.527c-5.007 3.637-10.351 6.728-15.989 9.246v9.039c0 6.075-4.924 11-11 11zm-40.048-22h29.049v-5.517c0-4.697 2.982-8.876 7.425-10.403 8.235-2.83 15.758-7.18 22.36-12.93 3.543-3.085 8.655-3.58 12.724-1.231l4.796 2.769 14.524-25.157-4.778-2.759c-4.064-2.347-6.192-7.013-5.299-11.62.831-4.283 1.251-8.634 1.251-12.933 0-4.298-.421-8.649-1.251-12.933-.894-4.607 1.234-9.273 5.299-11.62l4.778-2.759-14.524-25.157-4.796 2.769c-4.07 2.349-9.182 1.854-12.724-1.231-6.602-5.75-14.125-10.1-22.36-12.93-4.442-1.527-7.425-5.706-7.425-10.403v-5.517h-29.049v5.517c0 4.697-2.983 8.876-7.425 10.403-8.235 2.83-15.758 7.18-22.36 12.93-3.543 3.085-8.655 3.58-12.724 1.231l-4.796-2.769-14.524 25.157 4.778 2.759c4.064 2.347 6.192 7.013 5.299 11.62-.831 4.283-1.251 8.634-1.251 12.933s.421 8.65 1.251 12.933c.894 4.607-1.234 9.273-5.299 11.62l-4.778 2.759 14.524 25.157 4.796-2.769c4.069-2.35 9.181-1.854 12.724 1.231 6.602 5.75 14.125 10.1 22.36 12.93 4.442 1.526 7.425 5.706 7.425 10.403z" fill="#0496FF"/></g></g><g/><g/><g/><g/><g/><g/><g/><g/><g/><g/><g/><g/><g/><g/><g/></svg>