<svg id="Capa_1" enable-background="new 0 0 512 512" viewBox="0 0 512 512" xmlns="http://www.w3.org/2000/svg" fill="#052438"><g><g fill="#0496FF"><path d="m416.997 160.34c4.295-4.296 4.295-11.261 0-15.557l-37.562-37.562c-12.087-12.086-31.754-12.086-43.841 0l-93.546 93.546-38.127-38.127c-12.087-12.086-31.754-12.086-43.841 0l-65.391 65.391c-4.295 4.296-4.295 11.261 0 15.557 2.148 2.148 4.963 3.222 7.778 3.222s5.63-1.074 7.778-3.222l65.391-65.391c3.509-3.51 9.219-3.51 12.728 0l45.906 45.905c4.296 4.295 11.261 4.295 15.557 0l101.324-101.324c3.509-3.51 9.219-3.51 12.728 0l37.562 37.562c4.295 4.295 11.26 4.295 15.556 0z"/><path d="m241.25 139.721c19.575 0 35.5-15.925 35.5-35.499 0-19.575-15.925-35.5-35.5-35.5s-35.5 15.925-35.5 35.5 15.925 35.499 35.5 35.499zm0-48.999c7.444 0 13.5 6.056 13.5 13.5 0 7.443-6.056 13.499-13.5 13.499s-13.5-6.056-13.5-13.499c0-7.444 6.056-13.5 13.5-13.5z"/><path d="m464.782 434.226-17.122-17.122c2.182-4.496 3.334-9.464 3.334-14.609 0-8.949-3.484-17.361-9.812-23.688-13.062-13.061-34.315-13.061-47.376 0-6.327 6.327-9.812 14.74-9.812 23.688s3.484 17.36 9.812 23.688c6.532 6.531 15.109 9.797 23.688 9.796 5 0 10.002-1.11 14.597-3.33l17.134 17.134c2.148 2.147 4.963 3.222 7.778 3.222s5.63-1.074 7.778-3.222c4.297-4.296 4.297-11.261.001-15.557zm-55.42-23.599c-2.172-2.172-3.368-5.06-3.368-8.131 0-3.072 1.196-5.96 3.368-8.132 2.242-2.242 5.187-3.363 8.132-3.363s5.89 1.121 8.132 3.363c2.172 2.172 3.368 5.06 3.368 8.132 0 3.071-1.196 5.959-3.368 8.131-4.483 4.483-11.779 4.484-16.264 0z"/></g><g><path d="m100.999 287h310c6.075 0 11-4.925 11-11v-250c0-6.075-4.925-11-11-11h-310c-6.075 0-11 4.925-11 11v250c0 6.075 4.925 11 11 11zm11-250h288v228h-288z"/><path d="m471 325h-430c-22.607 0-41 18.393-41 41v90c0 22.607 18.392 41 41 41h430c22.607 0 41-18.393 41-41v-90c0-22.608-18.393-41-41-41zm-449 131v-90c0-10.477 8.523-19 19-19h299v128h-299c-10.477 0-19-8.524-19-19zm468 0c0 10.477-8.523 19-19 19h-109v-128h109c10.477 0 19 8.523 19 19z"/></g></g><g/><g/><g/><g/><g/><g/><g/><g/><g/><g/><g/><g/><g/><g/><g/></svg>