<svg id="Capa_1" enable-background="new 0 0 512 512" viewBox="0 0 512 512" xmlns="http://www.w3.org/2000/svg" fill="#052438"><g><g fill="#0496FF"><path d="m427.833 260.345-37.629-37.629c-12.101-12.1-31.79-12.1-43.892 0l-93.729 93.729-38.21-38.211c-12.101-12.1-31.79-12.101-43.891 0l-65.509 65.51c-4.295 4.296-4.295 11.261 0 15.557 2.148 2.147 4.963 3.222 7.778 3.222s5.63-1.074 7.778-3.222l65.508-65.51c3.523-3.523 9.256-3.523 12.779 0l45.988 45.989c2.063 2.062 4.861 3.222 7.778 3.222s5.715-1.159 7.778-3.222l101.506-101.507c3.523-3.522 9.256-3.524 12.779 0l37.629 37.629c4.296 4.296 11.26 4.295 15.557 0 4.297-4.296 4.297-11.261.002-15.557z"/><path d="m251.783 255.241c19.599 0 35.544-15.945 35.544-35.544s-15.945-35.544-35.544-35.544-35.544 15.945-35.544 35.544 15.945 35.544 35.544 35.544zm0-49.088c7.468 0 13.544 6.076 13.544 13.544s-6.076 13.544-13.544 13.544-13.544-6.076-13.544-13.544 6.076-13.544 13.544-13.544z"/></g><path d="m421.839 130.334h-39.14v-39.14c0-6.075-4.925-11-11-11h-39.14v-39.14c0-6.075-4.925-11-11-11h-310.559c-6.075 0-11 4.925-11 11v250.45c0 6.075 4.925 11 11 11h39.14v39.141c0 6.075 4.925 11 11 11h39.14v39.14c0 6.075 4.925 11 11 11h260.478c6.075 0 11-4.925 11-11s-4.925-11-11-11h-249.478v-228.451h288.559v189.37c0 6.075 4.925 11 11 11s11-4.925 11-11v-200.37c0-6.076-4.925-11-11-11zm-399.839 150.17v-228.45h288.559v28.14h-249.419c-6.075 0-11 4.925-11 11v189.31zm89.28-150.17c-6.075 0-11 4.925-11 11v189.311h-28.14v-228.451h288.559v28.14z"/><path d="m508.778 463.167-40.264-40.264c6.119-9.137 9.406-19.875 9.406-31.119 0-14.98-5.833-29.063-16.426-39.655s-24.675-16.426-39.655-16.426-29.063 5.834-39.655 16.426c-.001.001 0-.001 0 0-10.591 10.592-16.425 24.676-16.425 39.655s5.833 29.062 16.425 39.655c10.593 10.592 24.676 16.426 39.656 16.426 11.244 0 21.983-3.287 31.119-9.406l40.264 40.264c2.148 2.147 4.963 3.222 7.778 3.222s5.63-1.074 7.778-3.222c4.295-4.295 4.295-11.26-.001-15.556zm-111.038-47.284c-6.437-6.437-9.982-14.995-9.982-24.099s3.545-17.662 9.981-24.099c6.437-6.438 14.996-9.982 24.099-9.982s17.662 3.545 24.099 9.982 9.982 14.995 9.982 24.099-3.545 17.661-9.982 24.099-14.995 9.982-24.099 9.982-17.661-3.545-24.098-9.982z" fill="#0496FF"/></g><g/><g/><g/><g/><g/><g/><g/><g/><g/><g/><g/><g/><g/><g/><g/></svg>