<svg id="Capa_1" enable-background="new 0 0 512.012 512.012" viewBox="0 0 512.012 512.012" xmlns="http://www.w3.org/2000/svg" fill="#E6ECF2"><g><g fill="#0496FF"><path d="m356.442 199.127c4.297 4.296 11.26 4.296 15.557 0 4.296-4.296 4.296-11.261 0-15.557l-37.562-37.562c-12.089-12.088-31.754-12.086-43.841 0l-93.546 93.546-38.127-38.127c-5.84-5.839-13.625-9.055-21.921-9.055s-16.081 3.216-21.92 9.055l-64.829 64.829c-4.296 4.296-4.296 11.261 0 15.557 2.148 2.147 4.963 3.222 7.778 3.222s5.63-1.074 7.778-3.222l64.829-64.83c1.685-1.684 3.944-2.611 6.363-2.611 2.42 0 4.68.927 6.364 2.612l45.905 45.905c2.063 2.063 4.861 3.222 7.778 3.223 2.917 0 5.715-1.159 7.778-3.223l101.324-101.324c1.685-1.685 3.944-2.612 6.363-2.612 2.42 0 4.68.927 6.364 2.612z"/><path d="m196.251 172.5c19.575 0 35.5-15.925 35.5-35.5s-15.925-35.5-35.5-35.5-35.5 15.925-35.5 35.5 15.925 35.5 35.5 35.5zm0-49c7.444 0 13.5 6.056 13.5 13.5s-6.056 13.5-13.5 13.5-13.5-6.056-13.5-13.5 6.056-13.5 13.5-13.5z"/><path d="m387.044 327.737c-4.297-4.295-11.26-4.295-15.557 0l-27.222 27.222-9.722-9.722c-4.297-4.295-11.26-4.295-15.557 0-4.296 4.296-4.296 11.261 0 15.557l17.5 17.5c2.148 2.147 4.963 3.222 7.778 3.222s5.63-1.074 7.778-3.222l35-35c4.298-4.296 4.298-11.261.002-15.557z"/></g><path d="m502.215 454.839-65.682-65.682c13.483-31.261 8.639-68.598-14.532-95.492v-282.665c0-6.075-4.925-11-11-11h-400.001c-6.075 0-11 4.925-11 11v467.016c0 6.075 4.925 11 11 11h400.001c6.075 0 11-4.925 11-11v-8.639l32.839 32.839c6.53 6.53 15.109 9.796 23.688 9.796s17.157-3.266 23.688-9.796c13.061-13.062 13.061-34.316-.001-47.377zm-100.409-53.033c-13.032 13.032-30.359 20.21-48.79 20.21s-35.758-7.178-48.79-20.21c-26.903-26.903-26.903-70.677 0-97.58 13.032-13.032 30.359-20.21 48.79-20.21s35.758 7.178 48.79 20.21c26.903 26.903 26.903 70.676 0 97.58zm-46.805-139.769c-.661-.014-1.323-.021-1.985-.021-24.308 0-47.159 9.466-64.347 26.653-35.475 35.481-35.479 93.215 0 128.693 1.62 1.62 3.291 3.172 5.008 4.653h-226.677v-355.015h288.001zm45 204.979h-378.001v-445.016h378.001v253.042c-7.181-4.345-14.91-7.654-23-9.849v-209.193c0-6.075-4.925-11-11-11h-310.001c-6.075 0-11 4.925-11 11v377.016c0 6.075 4.925 11 11 11h297.016c12.651 0 24.908-2.565 36.177-7.447l10.808 10.808zm86.658 19.643c-4.482 4.485-11.778 4.483-16.263 0l-61.67-61.671c3.012-2.341 5.896-4.885 8.637-7.626 2.754-2.754 5.294-5.642 7.62-8.643l61.676 61.676c4.484 4.484 4.484 11.781 0 16.264z"/></g><g/><g/><g/><g/><g/><g/><g/><g/><g/><g/><g/><g/><g/><g/><g/></svg>