<svg id="Capa_1" enable-background="new 0 0 512 512" viewBox="0 0 512 512" xmlns="http://www.w3.org/2000/svg" fill="#052438"><g><g><g><path d="m102.469 231.81c-2.815 0-5.63-1.074-7.778-3.222-4.296-4.296-4.296-11.261 0-15.557l65.391-65.391c12.088-12.087 31.753-12.085 43.841 0l38.127 38.127 93.547-93.546c5.839-5.839 13.624-9.055 21.92-9.055 8.296-.001 16.081 3.216 21.92 9.056l37.562 37.561c4.296 4.296 4.296 11.261 0 15.557-4.297 4.295-11.26 4.295-15.557 0l-37.562-37.562c-1.684-1.685-3.943-2.611-6.363-2.611-2.419 0-4.68.927-6.363 2.611l-101.327 101.325c-4.296 4.296-11.261 4.296-15.557 0l-45.905-45.905c-3.508-3.51-9.218-3.51-12.728 0l-65.391 65.391c-2.147 2.146-4.962 3.221-7.777 3.221z" fill="#0496FF"/></g><g><path d="m241.251 124.722c-19.575 0-35.5-15.925-35.5-35.499 0-19.575 15.925-35.501 35.5-35.501s35.5 15.926 35.5 35.501c0 19.574-15.925 35.499-35.5 35.499zm0-49c-7.444 0-13.5 6.057-13.5 13.501 0 7.443 6.056 13.499 13.5 13.499s13.5-6.056 13.5-13.499c0-7.445-6.056-13.501-13.5-13.501z" fill="#0496FF"/></g></g><path d="m501 435.001h-8v-313.999c0-17.094-13.906-31-31-31h-40v-79.002c0-6.075-4.925-11-11-11h-310c-6.075 0-11 4.925-11 11v79.002h-40c-17.094 0-31 13.906-31 31v313.999h-8c-6.075 0-11 4.925-11 11v35c0 17.093 13.906 30.999 31 30.999h450c17.094 0 31-13.906 31-30.999v-35c0-6.075-4.925-11-11-11zm-451-322.999h40v148.998c0 6.075 4.925 11 11 11h180.981c6.075 0 11-4.925 11-11s-4.925-11-11-11h-169.981v-228h288v228h-18.019c-6.075 0-11 4.925-11 11s4.925 11 11 11h29.019c6.075 0 11-4.925 11-11v-148.998h40c4.963 0 9 4.037 9 9v268.997h-430v-268.997c0-4.963 4.037-9 9-9zm-9 299.997h430v23.002h-155c-2.917 0-5.715 1.159-7.778 3.222l-6.778 6.778h-90.887l-6.778-6.778c-2.063-2.062-4.861-3.222-7.778-3.222h-155.001zm449 69.002c0 4.962-4.037 8.999-9 8.999h-450c-4.963 0-9-4.037-9-8.999v-24h169.443l6.778 6.778c2.063 2.062 4.861 3.222 7.778 3.222h100c2.917 0 5.715-1.159 7.778-3.222l6.778-6.778h169.445z"/><path d="m418.778 332.241-40.188-40.189c14.498-21.747 12.162-51.477-7.01-70.65-21.835-21.833-57.361-21.835-79.196 0-21.834 21.835-21.834 57.361 0 79.196 10.918 10.918 25.256 16.375 39.598 16.375 10.843 0 21.688-3.123 31.052-9.365l40.188 40.189c2.148 2.147 4.963 3.222 7.778 3.222 2.814 0 5.631-1.074 7.778-3.222 4.296-4.295 4.296-11.26 0-15.556zm-110.838-47.199c-13.257-13.257-13.257-34.826 0-48.083 6.628-6.628 15.335-9.942 24.041-9.942 8.707 0 17.414 3.314 24.042 9.942 13.257 13.257 13.257 34.826 0 48.083-13.255 13.256-34.827 13.258-48.083 0z" fill="#0496FF"/></g><g/><g/><g/><g/><g/><g/><g/><g/><g/><g/><g/><g/><g/><g/><g/></svg>