<svg id="Layer_1" enable-background="new 0 0 509.719 509.719" viewBox="0 0 509.719 509.719" xmlns="http://www.w3.org/2000/svg" fill="#052438"><g><path d="m290.701 402.632c-20.478 0-37.139-16.661-37.139-37.139s16.661-37.139 37.139-37.139c5.445 0 9.859 4.415 9.859 9.859 0 5.445-4.414 9.859-9.859 9.859-9.605 0-17.42 7.814-17.42 17.42 0 9.605 7.814 17.42 17.42 17.42 5.445 0 9.859 4.414 9.859 9.859 0 5.447-4.414 9.861-9.859 9.861z"/><g><path d="m132.552 247.174v-62.931c0-5.445-4.415-9.859-9.859-9.859-5.445 0-9.859 4.415-9.859 9.859v60.753h-27.14v-60.753c0-5.445-4.415-9.859-9.859-9.859s-9.859 4.415-9.859 9.859v62.929c-8.497 3.847-14.426 12.4-14.426 22.317v41.892c0 5.445 4.415 9.859 9.859 9.859h75.704c5.445 0 9.859-4.414 9.859-9.859v-41.892c0-9.915-5.927-18.467-14.42-22.315zm-5.299 54.347h-55.985v-32.032c0-2.631 2.141-4.771 4.772-4.771h46.442c2.631 0 4.771 2.14 4.771 4.771z" fill="#0496FF"/><path d="m479.842 421.795-10.157-1.38c-8.25-1.12-15.956-4.551-22.279-9.918l-82.378-70.033c-4.607-3.901-7.249-9.618-7.249-15.681l.118-285.505c0-11.047-8.987-20.034-20.034-20.034h-95.723c-7.313 0-14.042 3.974-17.572 10.393-24.394 44.604-32.321 96.612-22.322 146.443l22.032 109.808c4.846 29.322.094 59.704-13.399 86.77l-37.874-32.191c-4.604-3.903-7.244-9.61-7.244-15.675.009-6.214-2.403-12.057-6.792-16.452-4.391-4.398-10.235-6.82-16.455-6.82h-85.952c-11.995 0-21.935 9.022-23.121 20.984-.019.197-.034.409-.042.607-.013.349-1.552 35.163-19.474 58.775-8.978 11.834-13.925 28.171-13.925 46.002 0 8.266 1.352 16.387 4.021 24.149 3.913 11.33 11.208 20.986 21.102 27.927 9.814 6.875 21.347 10.51 33.352 10.51 13.907 0 27.351-4.971 37.864-14.003 8.804-7.582 20.77-9.727 31.229-5.595l31.919 12.592c11.803 4.648 24.204 7.006 36.858 7.006h86.859c9.214 0 17.876-3.589 24.393-10.104 3.18-3.18 5.656-6.874 7.365-10.891 1.573.339 3.12.801 4.632 1.397l31.911 12.592c11.803 4.648 24.204 7.005 36.858 7.005h86.849c9.22 0 17.887-3.588 24.403-10.105s10.104-15.179 10.104-24.393c0-17.205-12.853-31.9-29.877-34.18zm-196.637 48.96h-86.859c-10.17 0-20.14-1.895-29.627-5.632-10.637-4.196-21.274-8.392-31.911-12.588-5.878-2.322-12.029-3.456-18.156-3.456-11.895 0-23.69 4.278-33.171 12.443-6.931 5.954-15.811 9.233-25.005 9.233-23.704 0-38.757-20.598-38.757-42.867 0-13.553 3.521-25.655 9.913-34.077 20.807-27.413 23.23-64.854 23.455-69.545.261-1.737 1.724-3.024 3.475-3.024h85.952c1.279 0 2.117.648 2.502 1.034.384.385 1.029 1.22 1.027 2.535 0 11.853 5.179 23.042 14.201 30.691l82.388 70.024c9.205 7.812 20.399 12.802 32.373 14.429l10.185 1.383c7.293.976 12.792 7.269 12.792 14.639 0 3.947-1.537 7.658-4.329 10.45-2.791 2.791-6.502 4.328-10.448 4.328zm202.392-4.4c-2.704 2.701-6.405 4.4-10.385 4.4h-86.849c-10.17 0-20.14-1.895-29.626-5.631l-31.905-12.59c-3.15-1.243-6.389-2.149-9.691-2.721-2.639-14.442-14.368-26.017-29.317-28.017l-10.164-1.38c-8.237-1.119-15.937-4.55-22.262-9.918l-29.095-24.729c17.058-31.854 23.238-68.212 17.401-103.275-.018-.107-.037-.214-.059-.32l-22.065-109.971c-9.088-45.291-1.883-92.561 20.278-133.082.05-.091.169-.157.284-.157h95.723c.174 0 .315.141.315.312l-.118 285.505c0 11.876 5.185 23.078 14.21 30.72l82.369 70.025c9.204 7.812 20.406 12.802 32.391 14.429l10.175 1.383c7.293.977 12.793 7.269 12.794 14.638-.001 3.992-1.706 7.684-4.404 10.379z"/><path d="m98.685 402.632c-20.478 0-37.139-16.661-37.139-37.139s16.661-37.139 37.139-37.139c5.445 0 9.859 4.415 9.859 9.859 0 5.445-4.414 9.859-9.859 9.859-9.605 0-17.42 7.814-17.42 17.42 0 9.605 7.814 17.42 17.42 17.42 5.445 0 9.859 4.414 9.859 9.859.001 5.447-4.414 9.861-9.859 9.861z"/></g><path d="m131.501 194.098h-63.976c-33.096 0-60.022-26.926-60.022-60.023v-89.077c0-14.2 11.548-25.752 25.742-25.752h132.537c14.2 0 25.752 11.553 25.752 25.752v89.077c0 9.437-3.512 24.15-13.367 37.144-7.916 10.437-22.438 22.879-46.666 22.879zm-98.256-155.134c-3.321 0-6.023 2.707-6.023 6.034v89.077c0 22.224 18.08 40.304 40.304 40.304h63.976c30.76 0 40.314-29.542 40.314-40.304v-89.077c0-3.327-2.707-6.034-6.034-6.034z"/></g><g/><g/><g/><g/><g/><g/><g/><g/><g/><g/><g/><g/><g/><g/><g/></svg>