<svg id="Layer_1" enable-background="new 0 0 509.747 509.747" viewBox="0 0 509.747 509.747" xmlns="http://www.w3.org/2000/svg" fill="#052438"><g><g><path d="m297.538 26.645c-3.122-19.486-24.231-31.672-42.664-24.632-18.436-7.041-39.544 5.15-42.664 24.632-7.235 6.033-11.562 15.062-11.562 24.631v47.337c0 29.9 24.326 54.226 54.226 54.226s54.226-24.326 54.226-54.226v-47.336c0-9.57-4.327-18.598-11.562-24.632zm-70.999 13.956c3.044-1.761 4.919-5.009 4.922-8.525-.091-9.376 10.417-15.445 18.49-10.676 3.046 1.756 6.798 1.756 9.844 0 3.814-2.196 8.537-2.197 12.331-.007 3.796 2.191 6.156 6.285 6.16 10.683.003 3.516 1.879 6.764 4.922 8.525 3.807 2.203 6.172 6.293 6.172 10.676v5.539c-18.986-16.431-50.031-16.428-69.014 0v-5.54c.001-4.382 2.366-8.472 6.173-10.675zm28.335 92.52c-19.027 0-34.507-15.479-34.507-34.507 1.895-45.778 67.126-45.765 69.014 0 0 19.028-15.48 34.507-34.507 34.507z"/><path d="m322.312 182.768c-3.969-11.657-15.018-20.07-28.001-20.07h-78.873c-12.983 0-24.031 8.412-28.001 20.07-50.502 4.221-90.309 46.667-90.309 98.241 0 5.445 4.414 9.859 9.859 9.859s9.859-4.414 9.859-9.859c0-40.15 30.162-73.365 69.014-78.235v19.08c0 11.695 5.545 22.696 14.789 29.907v39.107c0 14.372 5.631 27.446 14.789 37.159v154.89l-22.836 7.612c-5.165 1.722-7.957 7.305-6.235 12.471 1.711 5.215 7.444 7.953 12.471 6.235l29.577-9.859c4.026-1.342 6.742-5.109 6.742-9.353v-148.657c12.094 4.93 27.342 4.93 39.436 0v148.656c0 4.244 2.716 8.011 6.741 9.353l29.578 9.859c5.027 1.717 10.761-1.02 12.472-6.235 1.722-5.165-1.07-10.749-6.235-12.471l-22.837-7.612v-154.888c9.158-9.714 14.789-22.788 14.789-37.16v-39.107c9.243-7.211 14.789-18.212 14.789-29.907v-19.08c38.852 4.87 69.014 38.085 69.014 78.235 0 5.445 4.414 9.859 9.859 9.859s9.859-4.414 9.859-9.859c-.001-51.574-39.809-94.02-90.31-98.241zm-18.142 39.085c0 6.549-3.727 12.693-9.727 16.035-3.125 1.74-5.062 5.037-5.062 8.613v44.366c-1.881 45.75-67.114 45.792-69.014 0v-44.366c0-3.577-1.938-6.873-5.062-8.613-6-3.342-9.727-9.486-9.727-16.035v-29.578c0-5.436 4.422-9.859 9.859-9.859h78.873c5.436 0 9.859 4.422 9.859 9.859v29.578z"/></g><g><path d="m439.733 118.332h-4.93v-11.417c34.252-11.796 26.793-61.684-9.86-62.526-36.659.845-44.105 50.737-9.859 62.526v11.417h-4.93c-5.445 0-9.859 4.415-9.859 9.859 0 5.445 4.414 9.859 9.859 9.859h4.93v4.93c0 5.445 4.414 9.859 9.859 9.859s9.859-4.414 9.859-9.859v-4.93h4.93c13.08-.519 13.075-19.201.001-19.718zm-14.789-54.225c6.795 0 12.323 5.528 12.323 12.324-.677 16.349-23.972 16.344-24.647 0 .001-6.795 5.529-12.324 12.324-12.324z" fill="#0496FF"/><path d="m424.944 182.417c-38.348.587-74.077-28.176-81.815-65.625l-18.721-9.36c-3.34-1.67-5.45-5.084-5.45-8.818s2.11-7.148 5.45-8.818l18.721-9.36c7.742-37.449 43.466-66.212 81.816-65.625 111.169 4.599 111.147 163.019-.001 167.606zm-74.08-83.803 5.448 2.724c2.852 1.426 4.837 4.142 5.331 7.291 4.912 31.33 31.534 54.068 63.301 54.068 84.999-3.512 85.008-124.654-.001-128.169-31.766 0-58.388 22.739-63.3 54.069-.494 3.149-2.479 5.866-5.331 7.291z"/></g><g><path d="m116.563 56.995h-21.69c-11.937.327-13.46 16.949-1.922 19.528l-9.25 9.25c-32.56-15.879-62.563 24.67-37.241 51.184 6.247 6.246 14.452 9.369 22.657 9.369 23.759.253 39.442-25.744 28.527-46.611l9.249-9.249c2.582 11.539 19.201 10.014 19.528-1.922v-21.69c.001-5.444-4.413-9.859-9.858-9.859zm-38.731 66.019c-4.804 4.805-12.623 4.806-17.428 0-7.758-7.724-2.11-21.105 8.714-21.032 10.824-.073 16.472 13.31 8.714 21.032z" fill="#0496FF"/><path d="m84.804 182.417c-111.184-4.609-111.138-163.02 0-167.606 38.346-.586 74.077 28.176 81.815 65.625l18.72 9.36c3.34 1.67 5.45 5.084 5.45 8.818s-2.11 7.148-5.45 8.818l-18.721 9.36c-7.738 37.451-43.467 66.211-81.814 65.625zm0-147.887c-35.336 0-64.085 28.748-64.085 64.085 2.181 78.67 113.204 87.503 127.385 10.015.493-3.149 2.48-5.865 5.331-7.291l5.449-2.724-5.449-2.724c-2.851-1.426-4.837-4.142-5.331-7.291-4.911-31.331-31.533-54.07-63.3-54.07z"/></g></g><g/><g/><g/><g/><g/><g/><g/><g/><g/><g/><g/><g/><g/><g/><g/></svg>