<svg id="Layer_1" enable-background="new 0 0 509.734 509.734" viewBox="0 0 509.734 509.734" xmlns="http://www.w3.org/2000/svg" fill="#E6ECF2"><g><path d="m210.501 359.834c-13.063-.516-13.091-19.192 0-19.719 43.491 0 78.873-35.382 78.873-78.873 0-5.445 4.414-9.859 9.859-9.859s9.859 4.414 9.859 9.859c.001 54.364-44.228 98.592-98.591 98.592z" fill="#0496FF"/><path d="m373.177 182.369h-65.78c-4.07-11.475-15.029-19.719-27.882-19.719h-49.295c-12.702 0-23.557 8.049-27.739 19.313-39.739-4.031-70.853-37.684-70.853-78.468 0-5.445-4.414-9.859-9.859-9.859s-9.859 4.414-9.859 9.859c0 51.036 38.981 93.138 88.732 98.1v56.081c-9.564 12.14-14.789 27.147-14.789 42.671v49.626c0 5.445 4.414 9.859 9.859 9.859h19.719v123.035l-22.837 7.612c-10.57 3.74-7.956 19.054 3.117 19.215.929.761 31.099-10.044 32.697-10.368 4.025-1.342 6.741-5.11 6.741-9.353v-130.139h39.436v130.141c0 4.244 2.716 8.011 6.741 9.353 1.714.364 31.637 11.089 32.697 10.368 11.064-.163 13.698-15.465 3.117-19.215 0 0-22.837-7.612-22.837-7.612v-123.035h19.719c5.445 0 9.859-4.414 9.859-9.859v-49.626c0-15.524-5.225-30.531-14.789-42.671v-55.589h64.084c2.719 0 4.93 2.211 4.93 4.93 0 2.718-2.211 4.929-4.93 4.929h-14.788c-5.445 0-9.859 4.415-9.859 9.859v278.028c0 5.445 4.414 9.859 9.859 9.859s9.859-4.414 9.859-9.859v-268.17h4.929c13.591 0 24.648-11.057 24.648-24.648.001-13.591-11.057-24.648-24.647-24.648zm-69.014 157.746h-98.592v-39.767c0-12.003 4.376-23.575 12.323-32.584 1.589-1.801 2.466-4.12 2.466-6.522v-69.014c0-5.436 4.423-9.859 9.859-9.859h49.295c5.436 0 9.859 4.423 9.859 9.859v69.014c0 2.402.877 4.721 2.466 6.522 7.947 9.009 12.323 20.582 12.323 32.584v39.767z"/><path d="m301.854 71.511c-3.569-6.188-8.278-11.507-13.767-15.76 7.503-8.07 8.339-21.784 1.572-30.751-1.47-10.181-10.2-18.91-20.381-20.38-8.238-6.16-20.585-6.16-28.822 0-10.181 1.47-18.911 10.2-20.381 20.38-6.768 8.967-5.931 22.682 1.572 30.751-5.489 4.253-10.197 9.572-13.767 15.76-2.721 4.717.377 6.997 5.094 9.717 4.716 2.721 9.266 4.853 11.986.136 6.157-10.674 17.616-17.304 29.907-17.304s23.75 6.63 29.907 17.304c1.825 3.164 5.162 2.077 8.57 2.077 7.419.108 12.353-5.497 8.51-11.93zm-61.776-27.17c-4.571-.01-6.451-5.612-3.485-8.415 1.848-1.849 2.888-4.357 2.888-6.972-.112-2.562 2.358-5.044 4.93-4.93 2.615 0 5.123-1.039 6.971-2.889.539-.539 1.709-1.443 3.485-1.443s2.946.904 3.485 1.443c1.849 1.85 4.356 2.889 6.972 2.889.763 0 2.229.188 3.485 1.444 1.257 1.256 1.444 2.723 1.444 3.486 0 2.615 1.039 5.123 2.888 6.972.539.539 1.443 1.708 1.443 3.485 0 2.718-2.211 4.929-4.929 4.929h-29.577z"/><path d="m254.867 152.792c-19.316 0-37.32-10.411-46.987-27.17-2.721-4.717.532-6.994 5.249-9.714 4.716-2.72 9.111-4.855 11.831-.138 13.009 22.926 46.811 22.92 59.814 0 2.721-4.716 7.202-2.793 11.916-.072 4.717 2.72 7.884 5.208 5.164 9.925-9.667 16.758-27.671 27.169-46.987 27.169z"/><path d="m291.839 66.524c-14.228 0-26.314 9.325-30.483 22.183h-12.977c-11.795-34.253-61.684-26.793-62.526 9.86.846 36.659 50.737 44.106 62.526 9.859h12.977c11.68 34.234 61.789 26.737 62.526-9.86 0-17.668-14.375-32.042-32.043-32.042zm-73.944 44.366c-6.796 0-12.324-5.528-12.324-12.324.677-16.349 23.973-16.345 24.648 0 0 6.796-5.529 12.324-12.324 12.324zm73.944 0c-6.795 0-12.323-5.528-12.323-12.324.677-16.35 23.973-16.344 24.647 0 0 6.796-5.528 12.324-12.324 12.324z" fill="#0496FF"/></g><g/><g/><g/><g/><g/><g/><g/><g/><g/><g/><g/><g/><g/><g/><g/></svg>