<svg id="Layer_1" enable-background="new 0 0 510.332 510.332" viewBox="0 0 510.332 510.332" xmlns="http://www.w3.org/2000/svg" fill="#052438"><g><path d="m247.36 507.827c2.41 1.391 5.101 2.499 7.958 2.499 5.008 0 9.702-3.656 13.676-6.329l11.681-8.197c29.138-20.304 50.269-40.823 64.598-62.728 10.445-15.966 16.348-32.237 17.545-48.36 2.406-32.391-15.661-60.901-43.934-69.325-13.73-4.094-28.105-2.667-40.501 4.031-8.988 4.887-16.901 12.296-23.217 21.587-6.318-9.292-14.237-16.706-23.239-21.6-12.372-6.685-26.748-8.113-40.476-4.019-28.277 8.425-46.345 36.934-43.936 69.326 1.197 16.125 7.1 32.396 17.545 48.359 14.329 21.906 35.459 42.425 64.603 62.733zm7.806-19.059s-11.55-7.936-13.886-9.648c-26.503-19.431-46.329-37.491-59.208-57.179-8.538-13.05-13.344-26.082-14.283-38.735-1.386-18.638 7.244-41.713 29.468-48.335 22.833-6.803 41.081 12.221 48.38 31.833 1.481 3.98 5.281 6.62 9.527 6.62s8.046-2.64 9.527-6.62c4.953-13.306 13.483-24.031 23.379-29.412 7.595-4.105 16.475-4.965 25.004-2.421 22.222 6.621 30.852 29.696 29.466 48.335-.939 12.65-5.744 25.682-14.283 38.734-12.878 19.687-32.824 37.566-59.196 57.17z"/><g><path d="m220.989 148.101 36.882-63.882c1.816-3.146 1.816-7.021 0-10.166-1.816-3.146-5.172-5.083-8.804-5.083h-73.764l-36.882-63.881c-1.816-3.146-5.172-5.083-8.804-5.083s-6.988 1.938-8.804 5.083l-36.883 63.881h-73.764c-3.632 0-6.988 1.938-8.804 5.083-1.816 3.146-1.816 7.021 0 10.166l36.882 63.882-36.882 63.882c-1.816 3.145-1.816 7.02 0 10.166s5.172 5.083 8.804 5.083h73.764l36.882 63.881c1.816 3.146 5.172 5.083 8.804 5.083s6.988-1.938 8.804-5.083l36.882-63.881h73.764c3.632 0 6.988-1.938 8.804-5.083 1.816-3.146 1.816-7.021 0-10.166zm10.47-58.798-22.209 38.466-22.209-38.466zm-33.948 58.798-33.947 58.799h-67.895l-33.947-58.799 33.947-58.799h67.895zm-67.895-117.597 22.209 38.467h-44.418zm-101.842 58.799h44.417l-22.208 38.466zm0 117.597 22.209-38.466 22.208 38.466zm101.842 58.798-22.209-38.466h44.417zm57.425-58.798 22.209-38.466 22.209 38.466z" fill="#0496FF"/><path d="m396.504 256.679c-21.713 0-42.83-6.139-61.068-17.754-17.741-11.299-31.997-27.238-41.226-46.094-1.91-3.901-1.129-8.585 1.941-11.657 3.071-3.071 7.753-3.853 11.656-1.945 12.844 6.281 26.654 9.466 41.045 9.466 51.554 0 93.497-41.942 93.497-93.497 0-14.391-3.185-28.201-9.466-41.045-1.908-3.902-1.126-8.585 1.945-11.656 3.072-3.071 7.754-3.851 11.657-1.941 18.856 9.229 34.795 23.485 46.094 41.226 11.615 18.238 17.754 39.354 17.754 61.068-.001 62.766-51.064 113.829-113.829 113.829zm-67.892-49.432c17.343 18.381 41.606 29.101 67.892 29.101 51.554 0 93.497-41.942 93.497-93.497 0-26.286-10.72-50.549-29.101-67.892 1.185 6.621 1.781 13.377 1.781 20.24 0 62.765-51.063 113.829-113.829 113.829-6.864 0-13.619-.596-20.24-1.781z"/><path d="m373.992 86.534h-12.791v-12.791c0-5.615-4.551-10.166-10.166-10.166s-10.166 4.551-10.166 10.166v12.791h-12.791c-5.615 0-10.166 4.551-10.166 10.166s4.551 10.166 10.166 10.166h12.791v12.791c0 5.615 4.551 10.166 10.166 10.166s10.166-4.551 10.166-10.166v-12.791h12.791c5.615 0 10.166-4.551 10.166-10.166s-4.551-10.166-10.166-10.166z"/></g></g><g/><g/><g/><g/><g/><g/><g/><g/><g/><g/><g/><g/><g/><g/><g/></svg>