<svg id="Layer_1" enable-background="new 0 0 509.695 509.695" viewBox="0 0 509.695 509.695" xmlns="http://www.w3.org/2000/svg" fill="#E6ECF2"><g><g><g><path d="m355.714 267.674c-5.445 0-9.859-4.415-9.859-9.859v-9.466c.518-13.076 19.2-13.077 19.719 0v9.466c-.001 5.445-4.415 9.859-9.86 9.859z"/><path d="m406.078 267.674c-5.445 0-9.859-4.415-9.859-9.859v-9.466c.518-13.076 19.2-13.077 19.719 0v9.466c-.001 5.445-4.415 9.859-9.86 9.859z"/></g><path d="m380.895 314.369c-9.785 0-18.985-3.811-25.905-10.73-8.877-9.612 4.325-22.823 13.944-13.943 6.296 6.563 17.628 6.562 23.924 0 9.602-8.877 22.827 4.323 13.943 13.943-6.92 6.919-16.12 10.73-25.906 10.73z"/></g><g><g><path d="m124.058 255.719c-5.445 0-9.859-4.415-9.859-9.859v-9.507c.518-13.076 19.201-13.077 19.719 0v9.507c0 5.444-4.414 9.859-9.86 9.859z"/><path d="m180.478 255.719c-5.445 0-9.859-4.415-9.859-9.859v-9.507c.518-13.076 19.201-13.077 19.719 0v9.507c0 5.444-4.415 9.859-9.86 9.859z"/></g><path d="m152.269 302.597c-9.411 0-18.822-3.582-25.987-10.747-8.876-9.612 4.326-22.822 13.943-13.943 6.642 6.642 17.447 6.641 24.087 0 9.605-8.876 22.825 4.323 13.943 13.944-7.165 7.164-16.576 10.746-25.986 10.746z"/></g><g><g><path d="m235.076 411.353c-5.445 0-9.859-4.415-9.859-9.859v-9.355c.518-13.076 19.2-13.077 19.719 0v9.355c-.001 5.445-4.415 9.859-9.86 9.859z"/><path d="m290.596 411.353c-5.445 0-9.859-4.415-9.859-9.859v-9.355c.518-13.076 19.2-13.077 19.719 0v9.355c0 5.445-4.414 9.859-9.86 9.859z"/></g><path d="m262.837 457.486c-9.302 0-18.604-3.541-25.685-10.622-8.876-9.612 4.326-22.822 13.943-13.943 6.473 6.475 17.01 6.473 23.481 0 9.605-8.876 22.825 4.323 13.943 13.943-7.08 7.081-16.382 10.622-25.682 10.622z"/><path d="m501.918 286.626c-3.595-5.175-8.214-9.457-13.569-12.62v-62.974c0-59.25-48.208-107.453-107.463-107.453-52.504-1.03-100.658 41.368-106.533 93.33-7.315-59.131-62.258-107.05-122.084-105.909-63.032-1.26-119.814 51.807-123.008 114.599-14.883 6.836-22.807 25.562-16.821 41.187-23.528 28.646-12.297 72.864 22.031 86.81-4.865 25.138 15.528 49.583 41.143 49.205h74.657c-6.415 8.797-8.424 20.186-5.355 30.634 4.222 15.521 22.052 33.45 38.706 33.321 24.481 83.181 139.357 79.394 158.235.005 17.896-.144 34.626-18.539 38.909-33.327 4.746-16.432-2.985-33.561-17.577-41.208v-9.115c19.313 4.439 40.63 1.27 57.84-8.353h45.247c34.615.307 55.663-39.941 35.642-68.132zm-158.45 63.002v.132 4.328c-2.699-5.578-10.46-7.138-15.127-3.08-9.341 8.121-24.742 5.619-30.97-5.125 0 0 0 0-.001-.001 0-.001-.001-.001-.001-.002-3.703-6.257-13.168-6.267-16.851.008-3.733 6.179-10.398 9.974-17.68 9.957-7.309.001-13.917-3.743-17.687-9.957-1.787-2.944-4.98-4.742-8.425-4.743-3.411-.004-6.647 1.79-8.433 4.742-.648 1.067-1.384 2.053-2.186 2.967-3.011 3.426-7.024 5.739-11.484 6.607-6.057 1.222-12.58-.494-17.298-4.453-4.657-4.062-12.434-2.492-15.124 3.081-2.443-46.072 34.308-85.576 80.632-85.427 44.58-.011 80.828 36.39 80.635 80.966zm-127.765-88.904c-26.989 14.421-46.652 40.816-51.849 72.044-38.391 7.494-75.42-23.207-75.018-62.371v-48.593c19.972 4.512 60.51 8.083 97.923-22.743 5.514 7.08 14.817 15.585 28.944 18.431zm-155.7 95.884c-6.598-6.406-8.357-16.988-4.27-25.202 2.894-5.578-.781-12.924-6.962-13.982-8.094-1.594-15.471-5.988-20.777-12.375-12.092-14.092-10.788-36.905 3.053-49.389 3.52-3.314 4.118-8.691 1.412-12.697-1.498-2.214-2.288-4.818-2.284-7.496 0-6.324 4.482-11.842 10.655-13.12 4.526-.937 7.794-4.894 7.859-9.516-.331-55.098 48.45-103.238 103.582-102.111 56.32-.001 102.781 45.806 103.57 102.111.066 4.624 3.334 8.581 7.862 9.517 6.001 1.417 10.443 5.987 10.662 13.119 0 2.691-.789 5.278-2.284 7.48-1.293 1.906-1.828 4.124-1.663 6.283-11.742-.911-24.005.363-34.997 3.521v-38.432c0-7.99-6.016-14.804-13.966-15.845-11.047-1.477-17.748-8.869-21.424-14.808-2.268-3.665-6.009-6.113-10.267-6.717-4.26-.605-8.531.706-11.739 3.604-34.639 31.396-73.595 25.181-88.729 21.052-4.839-1.323-9.902-.337-13.892 2.707-3.996 3.05-6.288 7.686-6.288 12.719v53.368c-.352 49.476 44.336 88.932 93.368 82.514v10.171h-86.87c-5.899-.002-11.44-2.297-15.611-6.476zm114.032 65.828c-4.775-3.928-8.77-9.609-10.177-14.479-3.218-10.656 5.977-21.431 16.992-19.935v37.616c0 .267.018.531.02.797-2.14-.721-4.509-2.085-6.835-3.999zm88.805 65.473c-34.336 0-62.271-27.934-62.271-62.27v-51.348c12.459 3.267 26.446.125 36.154-8.259 14.259 12.621 38 12.616 52.226-.001 9.575 8.313 23.64 11.562 36.151 8.26v51.348c0 17.32-11.184 62.27-62.26 62.27zm98.983-79.954c-2.335 8.064-10.458 16.358-17.021 18.541.004-.283.017-.58.017-.857v-37.616c10.878-1.577 20.284 9.406 17.004 19.932zm34.648-64.517c-10.91 2.768-22.756 2.58-33.507-.748-2.111-32.323-19.591-60.516-45.189-77.329v-33.998c13.352-2.976 39.09-12.471 62.994-42.65 15.925 15.474 35.236 40.762 63.242 42.846v50.689c0 22.475-11.805 42.671-30.193 53.895-.356.185-.703.385-1.032.61-5.005 2.925-10.473 5.203-16.315 6.685zm69.803-8.4h-21.509c11.942-14.464 18.965-32.948 18.965-52.791v-51.021c0-10.655-7.838-19.324-17.471-19.324-19.806-.766-38.284-24.018-50.774-36.588-8.217-8.518-22.628-8.743-29.912.825-20.29 25.783-41.42 33.625-52.204 36.003-8.873 1.952-15.312 9.995-15.312 19.123v24.064c-.106-.04-.211-.082-.317-.121-1.624-2.975-3.497-5.797-5.639-8.428 2.204-6.002 2.589-12.829 1.05-19.071v-16.676c0-23.43 9.125-45.464 25.691-62.04 54.636-55.048 149.958-15.549 149.788 62.041 0-.001 0 69.101 0 69.101 0 4.055 2.483 7.697 6.259 9.178 24.127 9.948 17.587 45.185-8.615 45.725z"/></g><g><path d="m275.739 131.602c-5.902 0-11.803-2.246-16.296-6.739-.001 0-42.71-42.703-42.711-42.703-29.454-29.459-9.135-80.294 32.477-80.196 9.626.008 18.795 2.898 26.524 8.261 17.751-12.729 44.29-10.426 59.529 5.421 18.09 17.352 18.096 48.619-.002 65.99.001 0-43.226 43.227-43.226 43.227-4.492 4.492-10.395 6.739-16.295 6.739zm-45.061-63.381 42.707 42.698c1.298 1.297 3.407 1.298 4.705 0l43.227-43.226c10.441-10.017 10.441-28.099.004-38.103-10.037-10.466-28.072-10.467-38.108-.005-3.759 4.227-10.349 4.563-14.391.548-10.222-11.114-28.797-11.232-39.056-.148-10.079 10.495-9.668 27.647.912 38.236z" fill="#0496FF"/></g></g><g/><g/><g/><g/><g/><g/><g/><g/><g/><g/><g/><g/><g/><g/><g/></svg>