<svg id="Layer_1" enable-background="new 0 0 509.719 509.719" viewBox="0 0 509.719 509.719" xmlns="http://www.w3.org/2000/svg" fill="#052438"><g><g><g><path d="m81.186 282.988c-1.593 0-3.209-.387-4.707-1.203-8.146-4.437-15.664-10.067-22.343-16.736-9.176-9.175-16.314-19.831-21.221-31.678-4.906-11.816-7.395-24.406-7.395-37.412 0-26.096 10.16-50.633 28.608-69.092 11.812-11.813 26.218-20.303 42.033-24.838v-11.543c-2.732.911-5.623 1.385-8.586 1.385-7.229 0-14.025-2.818-19.135-7.936-5.104-5.104-7.918-11.897-7.918-19.123 0-7.225 2.814-14.018 7.923-19.128l39.229-39.239c4.142-4.151 9.662-6.442 15.546-6.445 5.874 0 11.396 2.289 15.553 6.444l39.24 39.24c5.105 5.104 7.915 11.897 7.915 19.128s-2.811 14.024-7.915 19.128c-5.114 5.114-11.913 7.931-19.142 7.931-2.963 0-5.853-.473-8.584-1.384v11.574c41.382 11.934 70.642 50.197 70.642 93.898 0 26.104-10.165 50.639-28.622 69.086-6.635 6.646-14.148 12.279-22.323 16.737-4.781 2.607-10.769.845-13.377-3.935-2.607-4.781-.845-10.769 3.935-13.376 6.516-3.553 12.51-8.05 17.817-13.366 14.738-14.73 22.85-34.312 22.85-55.146 0-37.074-26.374-69.243-62.711-76.491-4.611-.92-7.931-4.967-7.931-9.669v-39.101c0-3.986 2.4-7.58 6.083-9.107 3.682-1.527 7.921-.687 10.742 2.129 0 0 6.273 6.263 6.281 6.27 2.844 2.839 7.549 2.853 10.395.006 2.824-2.825 2.821-7.55.001-10.37l-39.24-39.24c-.553-.553-1.18-.669-1.611-.669-.426 0-1.049.115-1.594.662 0 0-39.133 39.144-39.235 39.246-2.789 2.79-2.776 7.595-.002 10.37 2.825 2.826 7.566 2.816 10.38 0l6.286-6.275c2.822-2.817 7.061-3.657 10.743-2.13s6.083 5.121 6.083 9.107v39.081c0 4.708-3.329 8.759-7.948 9.672-15.086 2.982-28.87 10.367-39.858 21.356-14.725 14.733-22.835 34.32-22.835 55.151 0 10.397 1.982 20.443 5.891 29.858 3.914 9.45 9.613 17.953 16.943 25.283 5.341 5.333 11.345 9.833 17.837 13.369 4.782 2.604 6.547 8.592 3.942 13.374-1.787 3.286-5.172 5.147-8.665 5.147zm42.039-23.728c-34.438 0-63.304-28.923-63.303-63.304.001-34.308 29.08-63.303 63.303-63.303 34.471 0 63.302 28.861 63.303 63.303.001 34.432-28.932 63.304-63.303 63.304zm0-106.888c-23.709 0-43.585 19.917-43.585 43.584 0 23.687 19.945 43.585 43.584 43.585 23.615-.001 43.585-20.052 43.585-43.584 0-23.709-19.906-43.585-43.584-43.585z" fill="#0496FF"/></g><g><path d="m427.882 282.989c-3.524 0-6.932-1.894-8.707-5.219-2.563-4.804-.747-10.776 4.057-13.34 25.181-13.438 40.986-39.389 41.249-67.726.352-37.237-25.876-69.538-62.362-76.807-4.611-.919-7.933-4.967-7.933-9.669v-34.596c0-5.445 4.414-9.859 9.859-9.859h15.505c4.004 0 7.261-3.253 7.261-7.251 0-1.94-.755-3.763-2.126-5.134-1.372-1.372-3.195-2.127-5.135-2.127h-15.505c-5.445 0-9.859-4.414-9.859-9.859v-13.998c0-4.004-3.258-7.261-7.262-7.261-1.937 0-3.754.752-5.114 2.116-1.382 1.381-2.137 3.206-2.137 5.145v13.998c0 5.445-4.414 9.859-9.859 9.859h-15.505c-4.004 0-7.261 3.257-7.261 7.261 0 1.938.751 3.754 2.115 5.115 1.382 1.381 3.205 2.136 5.146 2.136h15.505c5.445 0 9.859 4.414 9.859 9.859v34.596c0 4.702-3.321 8.75-7.933 9.669-36.141 7.203-62.371 39.191-62.371 76.061 0 28.686 15.774 54.922 41.169 68.472 4.804 2.563 6.62 8.535 4.057 13.339-2.562 4.804-8.533 6.622-13.34 4.057-31.83-16.984-51.604-49.887-51.604-85.868 0-43.499 29.115-81.582 70.304-93.468v-16.998h-5.646c-7.208 0-13.983-2.807-19.078-7.902-5.092-5.076-7.901-11.852-7.901-19.068 0-14.877 12.103-26.98 26.979-26.98h5.646v-4.138c0-7.206 2.806-13.981 7.901-19.078 5.077-5.092 11.853-7.902 19.068-7.902 14.877 0 26.98 12.103 26.98 26.98v4.138h5.646c7.207 0 13.982 2.807 19.077 7.902 5.096 5.095 7.902 11.87 7.902 19.078 0 14.871-12.104 26.97-26.979 26.97h-5.646v16.995c41.588 11.974 70.708 50.447 70.293 94.402-.329 35.554-20.133 68.101-51.683 84.938-1.477.788-3.067 1.162-4.632 1.162zm-40.954-23.992c-34.761 0-63.04-28.28-63.04-63.04s28.279-63.04 63.04-63.04 63.04 28.28 63.04 63.04-28.279 63.04-63.04 63.04zm0-106.362c-23.888 0-43.321 19.434-43.321 43.321s19.434 43.322 43.321 43.322 43.321-19.434 43.321-43.322-19.434-43.321-43.321-43.321z" fill="#0496FF"/></g></g><path d="m501.562 271.214c-5.123-5.124-11.927-7.946-19.157-7.946h-192.185l-10.328-35.696c-3.205-11.08-13.5-18.818-25.035-18.818-11.534 0-21.829 7.739-25.034 18.818l-10.328 35.696h-192.191c-14.939 0-27.093 12.159-27.093 27.103 0 15.267 5.945 29.619 16.744 40.418 10.798 10.786 25.149 16.726 40.41 16.726h150.505c-.166 1.607-.253 3.236-.253 4.886 0 4.984.782 9.788 2.219 14.302-15.363 6.785-26.964 20.809-30.305 37.7l-6.2 31.312h-55.234c-26.61 0-50.435 17.827-57.937 43.352-.651 2.216-.982 4.492-.982 6.763 0 13.172 10.73 23.889 23.919 23.889h343.514c7.609 0 14.588-3.494 19.147-9.587 4.559-6.091 5.943-13.769 3.798-21.068-3.708-12.607-11.233-23.433-21.757-31.304-10.518-7.88-23.028-12.045-36.179-12.045h-55.239l-6.2-31.31c-3.341-16.892-14.941-30.916-30.305-37.701 1.438-4.514 2.219-9.318 2.219-14.302 0-1.65-.087-3.28-.252-4.886h150.52c31.509 0 57.143-25.635 57.143-57.144.002-7.263-2.828-14.075-7.944-19.158zm-252.798-38.162c.78-2.697 3.286-4.58 6.093-4.58s5.313 1.883 6.093 4.58l8.742 30.216h-29.67zm6.093 146.87c-15.175 0-27.521-12.346-27.521-27.521s12.346-27.521 27.521-27.521 27.521 12.346 27.521 27.521-12.346 27.521-27.521 27.521zm161.126 83.624c7.092 5.304 12.16 12.595 14.656 21.081.514 1.749-.197 3.064-.668 3.691-.47.628-1.532 1.682-3.36 1.682h-343.514c-2.594 0-4.2-2.164-4.2-4.17 0-.394.059-.788.181-1.203 5.052-17.189 21.097-29.193 39.019-29.193h273.524c8.855 0 17.276 2.803 24.362 8.112zm-105.144-55.313 5.441 27.482h-122.848l5.442-27.483c2.224-11.241 10.323-20.43 20.871-24.268 8.654 9.617 21.187 15.677 35.112 15.677s26.458-6.06 35.112-15.677c10.548 3.839 18.647 13.027 20.87 24.269zm171.566-125.246c1.963 0 3.814.771 5.236 2.191 1.385 1.377 2.147 3.221 2.147 5.193 0 20.637-16.789 37.425-37.425 37.425h-157.197c-8.31-13.564-23.269-22.635-40.309-22.635s-31.998 9.071-40.309 22.635h-157.183c-9.998 0-19.4-3.892-26.471-10.955-7.071-7.07-10.964-16.471-10.964-26.471 0-4.072 3.308-7.384 7.374-7.384h455.101z"/></g><g/><g/><g/><g/><g/><g/><g/><g/><g/><g/><g/><g/><g/><g/><g/></svg>