<svg id="Layer_1" enable-background="new 0 0 510.709 510.709" viewBox="0 0 510.709 510.709" xmlns="http://www.w3.org/2000/svg" fill="#052438"><g><g fill="#0496FF"><path d="m76.433 146.365v-77.673c0-5.615-4.552-10.166-10.166-10.166s-10.166 4.551-10.166 10.166v77.668l-54.741 103.926c-5.812 12.166 11.226 21.164 17.988 9.476 0 0 46.91-89.058 46.91-89.058l46.923 89.263c2.624 5.019 8.859 6.857 13.729 4.268 4.97-2.612 6.881-8.759 4.267-13.729z"/><path d="m509.348 250.286-54.741-103.926v-77.668c0-5.615-4.552-10.166-10.166-10.166s-10.166 4.551-10.166 10.166v77.672l-54.745 104.143c-2.613 4.97-.702 11.117 4.268 13.729 4.869 2.588 11.104.75 13.729-4.268 0 0 46.924-89.264 46.924-89.264l46.91 89.058c6.75 11.677 23.799 2.707 17.987-9.476z"/></g><path d="m67.18 326.186c-39.126 1.147-69.884-32.431-66.992-71.162-.001-5.614 4.551-10.166 10.165-10.166h111.825c5.614 0 10.166 4.551 10.166 10.166 2.846 37.92-26.787 71.341-65.164 71.162zm-46.468-60.996c6.321 54.15 84.808 54.111 91.108 0z"/><path d="m445.354 326.186c-39.126 1.147-69.884-32.431-66.992-71.162-.001-5.614 4.551-10.166 10.165-10.166h111.826c5.614 0 10.166 4.551 10.166 10.166 2.846 37.92-26.788 71.341-65.165 71.162zm-46.468-60.996c6.321 54.15 84.809 54.11 91.109 0z"/><path d="m500.354 58.526c-28.554-.571-91.717 2.001-119.106-3.142-27.718-3.84-53.466-15.397-81.182-19.225-10.977-47.825-78.464-47.792-89.423 0-14.085 2.252-28.045 5.56-41.599 9.887-25.941 8.281-52.9 12.48-80.127 12.48h-78.563c-5.614 0-10.166 4.551-10.166 10.166s4.552 10.166 10.166 10.166h78.562c29.328 0 58.367-4.523 86.311-13.443 11.647-3.718 23.617-6.624 35.703-8.695 4.105 16.725 17.429 29.858 34.258 33.693v229.887c0 5.615 4.569 5.915 10.183 5.915s10.149-.3 10.149-5.915v-229.888c16.829-3.835 30.153-16.968 34.258-33.693 26.636 4.25 51.524 15.23 78.341 18.754 28.674 5.415 92.484 2.836 122.234 3.385 13.443-.515 13.522-19.782.001-20.332zm-245 12.707c-14.014 0-25.415-11.401-25.415-25.414 1.396-33.716 49.439-33.707 50.83 0 0 14.013-11.401 25.414-25.415 25.414z"/><path d="m499.102 497.642c-70.115-249.285-417.445-249.184-487.496.001-.806 3.048-.149 6.299 1.775 8.797 1.924 2.499 4.899 3.963 8.054 3.963 138.931-.009 328.92.006 467.838 0 6.442.164 11.662-6.548 9.829-12.761zm-315.368-93.413c-27.427-3.847-53.956-9.91-79.16-18.069 31.568-27.143 69.679-45.147 110.748-52.261-15.186 20.48-23.229 41.697-31.588 70.33zm71.62-73.764c15.832 0 36.188 23.881 51.229 76.191-33.708 3.35-68.75 3.35-102.458 0 15.04-52.308 35.396-76.191 51.229-76.191zm50.422 19.417c-3.441-6.214-6.921-11.497-10.389-15.983 41.068 7.114 79.179 25.118 110.747 52.261-25.2 8.158-51.727 14.22-79.16 18.068-5.963-21.336-13.122-39.762-21.198-54.346zm-232.679 69.173c4.69-5.961 9.642-11.635 14.808-17.048 28.743 10.081 59.232 17.47 90.832 22.039-4.914 21.725-8.201 42.937-10.598 66.026h-133.112c8.386-25.697 21.158-49.534 38.07-71.017zm115.476 71.016c2.352-22.044 5.671-42.801 10.42-63.493 37.023 3.934 75.7 3.934 112.723 0 4.749 20.693 8.068 41.454 10.421 63.493zm153.998 0c-2.396-23.079-5.686-44.304-10.599-66.026 31.607-4.57 62.092-11.959 90.832-22.038 23.933 24.974 42.274 55.367 52.878 88.064z" fill="#0496FF"/></g><g/><g/><g/><g/><g/><g/><g/><g/><g/><g/><g/><g/><g/><g/><g/></svg>