<svg id="Capa_1" enable-background="new 0 0 512 512" viewBox="0 0 512 512" xmlns="http://www.w3.org/2000/svg" fill="#052438"><g><g><path d="m275 0h-224c-28.122 0-51 22.878-51 51v410c0 28.122 22.878 51 51 51h224c28.121 0 51-22.878 51-51v-215.036h-22v156.036h-41.456v-15.926c0-18.585-15.12-33.706-33.706-33.706h-19.852v-22h1.62c21.721 0 39.393-17.672 39.393-39.393v-64.184c0-21.722-17.672-39.394-39.393-39.394h-36.606v-32.592c0-6.075-4.925-11-11-11s-11 4.925-11 11v32.592h-36.607c-21.721.001-39.393 17.673-39.393 39.395v64.184c0 21.721 17.672 39.393 39.393 39.393h1.62v22h-19.851c-18.585 0-33.706 15.12-33.706 33.706v15.925h-41.456v-292h260v-22h-260v-37c0-15.991 13.009-29 29-29h56.356v23.14c0 11.502 9.358 20.86 20.86 20.86h69.566c11.502 0 20.86-9.358 20.86-20.86v-23.14h56.358c15.99 0 29 13.009 29 29v14.672h22v-14.672c0-28.122-22.879-51-51-51zm-177 290.976v-64.184c0-9.591 7.803-17.394 17.393-17.394h95.214c9.59 0 17.393 7.803 17.393 17.394v64.184c0 9.591-7.803 17.393-17.393 17.393h-95.214c-9.59 0-17.393-7.803-17.393-17.393zm41.013 39.393h47.974v22h-47.974zm-53.557 55.705c0-6.455 5.251-11.706 11.706-11.706h131.677c6.455 0 11.706 5.251 11.706 11.706v15.926h-155.089zm218.544 37.926v37c0 15.991-13.01 29-29 29h-224c-15.991 0-29-13.009-29-29v-37zm-107.356-380h-67.287v-22h67.287z"/><path d="m397.503 101c-6.075 0-11 4.925-11 11v33h-34v-33c0-6.075-4.925-11-11-11s-11 4.925-11 11v88c0 6.075 4.925 11 11 11s11-4.925 11-11v-33h34v33c0 6.075 4.925 11 11 11s11-4.925 11-11v-88c0-6.075-4.925-11-11-11z"/><path d="m442.497 124.981c-6.075 0-11 4.925-11 11v64.019c0 6.075 4.925 11 11 11s11-4.925 11-11v-64.019c0-6.075-4.925-11-11-11z"/></g><g fill="#0496FF"><path d="m191 240.127c-6.075 0-11 4.925-11 11v10c0 6.075 4.925 11 11 11s11-4.925 11-11v-10c0-6.075-4.925-11-11-11z"/><path d="m135 240.127c-6.075 0-11 4.925-11 11v10c0 6.075 4.925 11 11 11s11-4.925 11-11v-10c0-6.075-4.925-11-11-11z"/><path d="m475.322 56h-166.644c-20.225 0-36.678 16.454-36.678 36.678v126.645c0 20.223 16.453 36.677 36.678 36.677h39.322v28.346c0 4.449 2.68 8.46 6.79 10.163 1.361.564 2.79.838 4.208.838 2.862 0 5.676-1.118 7.78-3.222l36.124-36.125h72.42c20.225 0 36.678-16.454 36.678-36.678v-126.644c0-20.224-16.453-36.678-36.678-36.678zm14.678 163.322c0 8.093-6.584 14.678-14.678 14.678h-76.977c-2.917 0-5.715 1.159-7.778 3.222l-20.567 20.568v-12.79c0-6.075-4.925-11-11-11h-50.322c-8.094 0-14.678-6.584-14.678-14.678v-126.644c0-8.094 6.584-14.678 14.678-14.678h166.645c8.093 0 14.677 6.584 14.677 14.678z"/></g></g><g/><g/><g/><g/><g/><g/><g/><g/><g/><g/><g/><g/><g/><g/><g/></svg>