<svg id="Capa_1" enable-background="new 0 0 512 512" viewBox="0 0 512 512" xmlns="http://www.w3.org/2000/svg" fill="#052438"><g><g><path d="m101 120.75c6.075 0 11-4.925 11-11s-4.925-11-11-11h-.007c-6.075 0-10.996 4.925-10.996 11s4.928 11 11.003 11z"/><path d="m90 158.333v30.461c-5.606.505-10 5.217-10 10.955 0 6.075 4.925 11 11 11h20c6.075 0 11-4.925 11-11 0-5.738-4.394-10.45-10-10.955v-44.044c0-3.41-1.581-6.627-4.282-8.71-2.701-2.084-6.215-2.796-9.512-1.929l-9.999 2.625c-5.876 1.542-9.389 7.557-7.846 13.433 1.209 4.602 5.16 7.754 9.639 8.164z"/><path d="m411.001 255c-55.691 0-101 45.308-101 101s45.309 101 101 101 100.999-45.309 100.999-101-45.308-101-100.999-101zm-42.894 167.314c8.558-15.464 25.101-25.314 42.893-25.314s34.336 9.85 42.894 25.315c-12.36 8.022-27.092 12.685-42.893 12.685s-30.534-4.664-42.894-12.686zm42.894-47.314c-10.477 0-19-8.523-19-19s8.523-19 19-19c10.476 0 18.999 8.523 18.999 19s-8.523 19-18.999 19zm59.736 32.642c-7.033-10.91-16.922-19.604-28.37-25.268 6.008-7.134 9.633-16.339 9.633-26.374 0-22.607-18.393-41-40.999-41-22.607 0-41 18.392-41 41 0 10.035 3.625 19.24 9.633 26.374-11.448 5.664-21.337 14.358-28.37 25.268-11.997-13.858-19.263-31.918-19.263-51.642 0-43.561 35.439-79 79-79s78.999 35.439 78.999 79c0 19.725-7.266 37.784-19.263 51.642z"/><path d="m251.001 300h-220.001c-17.094 0-31 13.907-31 31v50c0 17.093 13.906 31 31 31h220.001c17.094 0 31-13.907 31-31v-50c0-17.094-13.906-31-31-31zm9 81c0 4.962-4.037 9-9 9h-220.001c-4.963 0-9-4.038-9-9v-50c0-4.962 4.037-9 9-9h220.001c4.963 0 9 4.038 9 9z"/><path d="m221 345h-160c-6.075 0-11 4.925-11 11s4.925 11 11 11h160c6.075 0 11-4.925 11-11s-4.925-11-11-11z"/><path d="m481 100h-220c-17.094 0-31 13.906-31 31v50c0 17.094 13.906 31 31 31h220c17.094 0 31-13.907 31-31v-50c0-17.094-13.906-31-31-31zm9 81c0 4.963-4.037 9-9 9h-220c-4.963 0-9-4.038-9-9v-50c0-4.962 4.037-9 9-9h220c4.963 0 9 4.037 9 9z"/><path d="m451 145h-160c-6.075 0-11 4.925-11 11s4.925 11 11 11h160c6.075 0 11-4.925 11-11s-4.925-11-11-11z"/></g><g><path d="m101 257c-55.691 0-101-45.308-101-101s45.309-101 101-101 101 45.309 101 101-45.309 101-101 101zm0-180c-43.561 0-79 35.439-79 79s35.439 79 79 79 79-35.439 79-79-35.439-79-79-79z" fill="#0496FF"/></g></g><g/><g/><g/><g/><g/><g/><g/><g/><g/><g/><g/><g/><g/><g/><g/></svg>