<svg id="Capa_1" enable-background="new 0 0 511.999 511.999" viewBox="0 0 511.999 511.999" xmlns="http://www.w3.org/2000/svg" fill="#E6ECF2"><g><g><path d="m22 255.999c0-129.027 104.972-233.999 234-233.999 53.63 0 104.983 18.162 146.436 51.473l-5.966.387c-6.062.393-10.658 5.626-10.265 11.688.377 5.82 5.215 10.289 10.966 10.288.239 0 .48-.008.723-.023l32.059-2.079c6.062-.393 10.658-5.626 10.265-11.688l-2.078-32.059c-.393-6.062-5.625-10.661-11.688-10.265-6.062.393-10.658 5.626-10.265 11.688l.334 5.156c-45.407-36.605-101.713-56.566-160.521-56.566-68.38 0-132.667 26.629-181.02 74.98s-74.98 112.639-74.98 181.019c0 44.875 11.86 89.137 34.297 128 2.038 3.529 5.735 5.502 9.537 5.502 1.866 0 3.758-.476 5.49-1.476 5.261-3.037 7.064-9.766 4.026-15.026-20.509-35.523-31.35-75.981-31.35-117z"/><path d="m477.702 128c-3.036-5.26-9.762-7.064-15.026-4.026-5.262 3.038-7.063 9.766-4.026 15.026 20.509 35.522 31.35 75.98 31.35 117 0 129.027-104.972 233.999-234 233.999-53.629 0-104.983-18.162-146.437-51.473l5.967-.387c6.062-.393 10.658-5.626 10.265-11.688s-5.629-10.656-11.689-10.265l-32.06 2.079c-2.911.188-5.628 1.526-7.553 3.718s-2.9 5.06-2.712 7.971l2.079 32.059c.377 5.82 5.215 10.288 10.966 10.288.239 0 .48-.008.723-.023 6.062-.393 10.658-5.626 10.265-11.688l-.334-5.155c45.406 36.604 101.712 56.566 160.519 56.566 68.38 0 132.667-26.629 181.019-74.98s74.981-112.641 74.981-181.021c0-44.876-11.859-89.138-34.297-128z"/><path d="m256 441.999c102.561 0 186-83.439 186-186s-83.439-186-186-186-186 83.439-186 186 83.439 186 186 186zm0-350c90.43 0 164 73.57 164 164s-73.57 164-164 164-164-73.57-164-164 73.57-164 164-164z"/></g><path d="m294.5 300.537v-68.542c0-9.19-3.846-17.921-10.552-23.954-2.421-2.178-5.109-3.937-7.989-5.251 8.281-7.067 13.54-17.576 13.54-29.291 0-21.229-17.271-38.5-38.5-38.5s-38.5 17.271-38.5 38.5c0 12.14 5.648 22.985 14.453 30.046l-4.402.466c-8.899.942-16.898 5.293-22.523 12.252s-8.205 15.692-7.262 24.591c.943 8.9 5.308 16.902 12.291 22.531 3.725 3.003 7.956 5.137 12.445 6.329v30.822c-15.619 2.836-27.5 16.537-27.5 32.962 0 18.472 15.028 33.5 33.5 33.5h64.999c18.472 0 33.5-15.028 33.5-33.5 0-16.424-11.881-30.125-27.5-32.961zm-43.5-143.538c9.098 0 16.5 7.402 16.5 16.5 0 9.099-7.401 16.501-16.5 16.501s-16.5-7.402-16.5-16.501c-.001-9.098 7.401-16.5 16.5-16.5zm37.5 188h-65.001c-6.341 0-11.5-5.159-11.5-11.5s5.159-11.5 11.5-11.5h5c6.075 0 11-4.925 11-11v-51.3c0-3.119-1.324-6.092-3.643-8.178-2.318-2.086-5.41-3.088-8.516-2.761-3.064.326-6.075-.564-8.479-2.503-2.398-1.934-3.897-4.676-4.22-7.722-.324-3.055.562-6.053 2.493-8.441s4.677-3.882 7.732-4.206l36.537-3.87c3.835-.408 6.376 1.068 7.831 2.378 2.105 1.895 3.266 4.594 3.266 7.599v79.004c0 6.075 4.925 11 11 11h5c6.341 0 11.5 5.159 11.5 11.5s-5.159 11.5-11.5 11.5z" fill="#0496FF"/></g><g/><g/><g/><g/><g/><g/><g/><g/><g/><g/><g/><g/><g/><g/><g/></svg>