<svg id="Capa_1" enable-background="new 0 0 512 512" viewBox="0 0 512 512" xmlns="http://www.w3.org/2000/svg" fill="#E6ECF2"><g><g><path d="m433.688 137.542h-6.966v-126.542c0-6.075-4.925-11-11-11h-321.475c-6.075 0-11 4.925-11 11v126.542h-4.935c-24.754 0-44.893 20.139-44.893 44.893v284.673c.001 24.753 20.14 44.892 44.893 44.892h355.375c24.754 0 44.893-20.139 44.893-44.893v-284.673c0-24.754-20.139-44.892-44.892-44.892zm-104.398 204.756 127.291-105.31v207.221zm104.398-182.756c12.623 0 22.893 10.27 22.893 22.893v26.001l-29.858 24.702v-73.596zm-28.966-137.542v229.339l-149.703 123.852-149.772-125.104v-228.087zm-349.302 215.132 126.654 105.794-126.654 101.298zm22.892-77.59h4.935v72.169l-27.827-23.244v-26.033c0-12.623 10.269-22.892 22.892-22.892zm355.376 330.458h-355.376c-10.953 0-20.129-7.733-22.367-18.025l143.357-114.657 48.63 40.621c2.041 1.705 4.546 2.558 7.052 2.558 2.488 0 4.978-.841 7.012-2.524l49.982-41.351 144.077 115.351c-2.237 10.292-11.414 18.027-22.367 18.027z"/><path d="m228.199 222.248c-6.075 0-11 4.925-11 11s4.925 11 11 11h55.602c6.075 0 11-4.925 11-11s-4.925-11-11-11h-16.801v-61.671c0-6.075-4.925-11-11-11h-27.801c-6.075 0-11 4.925-11 11s4.925 11 11 11h16.801v50.671z"/><path d="m256 136.044c6.075 0 11-4.925 11-11v-9.72c0-6.075-4.925-11-11-11s-11 4.925-11 11v9.72c0 6.076 4.925 11 11 11z"/></g><path d="m256 56.161c-66.837 0-121.213 54.376-121.213 121.213s54.376 121.213 121.213 121.213 121.213-54.376 121.213-121.213-54.376-121.213-121.213-121.213zm0 220.426c-54.706 0-99.213-44.507-99.213-99.213 0-54.707 44.507-99.213 99.213-99.213s99.213 44.507 99.213 99.213-44.507 99.213-99.213 99.213z" fill="#0496FF"/></g><g/><g/><g/><g/><g/><g/><g/><g/><g/><g/><g/><g/><g/><g/><g/></svg>