<svg id="Capa_1" enable-background="new 0 0 512 512" viewBox="0 0 512 512" xmlns="http://www.w3.org/2000/svg" fill="#052438"><g><path d="m501 465h-36.425v-39c0-6.075-4.925-11-11-11h-29v-217l23.5 13.568c1.687.974 3.586 1.474 5.5 1.474.957 0 1.917-.125 2.857-.378 2.821-.759 5.224-2.608 6.68-5.142l22.425-39.023c3.022-5.26 1.216-11.974-4.038-15.007l-220-127.017c-3.403-1.965-7.597-1.965-11 0l-220 127.017c-5.254 3.033-7.06 9.747-4.038 15.007l22.425 39.023c1.456 2.533 3.859 4.383 6.68 5.142 2.823.76 5.828.364 8.358-1.096l23.5-13.568v217h-29c-6.075 0-11 4.925-11 11v39h-36.424c-6.075 0-11 4.925-11 11s4.925 11 11 11h490c6.075 0 11-4.925 11-11s-4.925-11-11-11zm-438.529-277.997-11.463-19.949 204.992-118.352 204.993 118.353-11.463 19.949-188.03-108.559c-1.702-.982-3.601-1.474-5.5-1.474s-3.798.491-5.5 1.474zm46.954-1.706 146.575-84.625 146.575 84.625v229.703h-293.15zm-40 251.703h373.149v28h-373.149z"/><path d="m294.89 314.896v-68.543c0-9.19-3.846-17.922-10.552-23.954-2.421-2.178-5.109-3.937-7.988-5.251 8.281-7.067 13.541-17.576 13.541-29.29 0-21.229-17.271-38.5-38.5-38.5s-38.5 17.271-38.5 38.5c0 12.139 5.648 22.984 14.453 30.046l-4.403.466c-8.899.942-16.898 5.294-22.523 12.253s-8.205 15.691-7.262 24.59c1.502 14.179 11.7 25.373 24.735 28.848v30.836c-15.619 2.836-27.5 16.537-27.5 32.962 0 18.472 15.028 33.5 33.5 33.5h65c18.472 0 33.5-15.028 33.5-33.5-.001-16.426-11.882-30.127-27.501-32.963zm-43.5-143.538c9.098 0 16.5 7.402 16.5 16.5s-7.402 16.5-16.5 16.5c-9.099 0-16.5-7.402-16.5-16.5s7.401-16.5 16.5-16.5zm37.5 188h-65c-6.341 0-11.5-5.159-11.5-11.5s5.159-11.5 11.5-11.5h5c6.075 0 11-4.925 11-11v-51.3c0-3.119-1.324-6.092-3.643-8.178s-5.412-3.09-8.516-2.761c-6.337.653-12.031-3.916-12.699-10.226-.324-3.054.562-6.052 2.493-8.44 1.931-2.39 4.677-3.883 7.731-4.207l36.538-3.869c3.836-.409 6.375 1.068 7.829 2.377 2.106 1.895 3.266 4.593 3.266 7.599v79.005c0 6.075 4.925 11 11 11h5c6.341 0 11.5 5.159 11.5 11.5s-5.158 11.5-11.499 11.5z" fill="#0496FF"/></g><g/><g/><g/><g/><g/><g/><g/><g/><g/><g/><g/><g/><g/><g/><g/></svg>