<svg id="Capa_1" enable-background="new 0 0 512 512" viewBox="0 0 512 512" xmlns="http://www.w3.org/2000/svg" fill="#E6ECF2"><g><g><g><path d="m256 512c-.713 0-1.427-.069-2.129-.208-33.299-6.57-64.608-18.157-93.059-34.44-27.621-15.809-51.948-35.682-72.308-59.065-40.95-47.038-63.504-106.431-63.504-167.237v-130.498c0-6.075 4.925-11 11-11 54.589 0 99-44.21 99-98.552 0-6.075 4.925-11 11-11h220c6.075 0 11 4.925 11 11 0 54.342 44.411 98.552 99 98.552 6.075 0 11 4.925 11 11v130.498c0 60.806-22.553 120.197-63.505 167.235-20.358 23.385-44.687 43.257-72.307 59.065-28.451 16.283-59.761 27.871-93.06 34.441-.702.14-1.415.209-2.128.209zm-209-380.942v119.992c0 115.619 85.833 213.504 209 238.73 123.167-25.227 209-123.111 209-238.73v-119.992c-57.949-5.224-104.234-51.329-109.501-109.058h-198.998c-5.267 57.729-51.552 103.834-109.501 109.058z"/></g><g><path d="m256 465.974c-.841 0-1.683-.097-2.507-.289-50.613-11.846-96.597-38.551-129.478-75.195-35.336-39.384-54.015-87.6-54.015-139.44v-92.12c0-4.849 3.175-9.126 7.816-10.529 46.109-13.939 81.993-49.681 95.989-95.607 1.411-4.63 5.683-7.793 10.522-7.793h143.343c4.84 0 9.111 3.163 10.522 7.793 13.997 45.928 49.881 81.669 95.989 95.607 4.642 1.403 7.817 5.68 7.817 10.529v92.12c0 51.839-18.679 100.057-54.016 139.439-32.881 36.645-78.864 63.35-129.478 75.195-.821.193-1.663.29-2.504.29zm-164-299.088v84.164c0 91.481 65.794 168.597 164 192.613 98.206-24.017 164-101.132 164-192.613v-84.164c-46.8-16.69-83.497-53.251-100.265-99.886h-127.471c-16.767 46.634-53.463 83.194-100.264 99.886z"/></g></g><path d="m294.5 295.537v-68.542c0-9.19-3.846-17.921-10.552-23.954-2.421-2.179-5.109-3.937-7.989-5.251 8.281-7.067 13.541-17.576 13.541-29.29 0-21.229-17.271-38.5-38.5-38.5s-38.5 17.271-38.5 38.5c0 12.139 5.648 22.984 14.453 30.045l-4.403.466c-18.369 1.945-31.73 18.473-29.785 36.843 1.503 14.179 11.7 25.373 24.735 28.848v30.835c-15.619 2.836-27.5 16.537-27.5 32.962 0 18.472 15.028 33.5 33.5 33.5h65c18.472 0 33.5-15.028 33.5-33.5 0-16.425-11.881-30.126-27.5-32.962zm-43.5-143.537c9.098 0 16.5 7.402 16.5 16.5s-7.402 16.5-16.5 16.5-16.5-7.402-16.5-16.5 7.402-16.5 16.5-16.5zm37.5 187.999h-65c-6.341 0-11.5-5.159-11.5-11.5s5.159-11.5 11.5-11.5h5c6.075 0 11-4.925 11-11v-51.299c0-3.119-1.324-6.092-3.643-8.178s-5.417-3.084-8.516-2.761c-6.339.663-12.031-3.916-12.7-10.225-.667-6.307 3.919-11.98 10.225-12.648l36.537-3.87c3.846-.409 6.377 1.069 7.831 2.378 2.105 1.895 3.266 4.593 3.266 7.599v79.004c0 6.075 4.925 11 11 11h5c6.341 0 11.5 5.159 11.5 11.5s-5.159 11.5-11.5 11.5z" fill="#0496FF"/></g><g/><g/><g/><g/><g/><g/><g/><g/><g/><g/><g/><g/><g/><g/><g/></svg>