<svg id="Capa_1" enable-background="new 0 0 512 512" viewBox="0 0 512 512" xmlns="http://www.w3.org/2000/svg" fill="#E6ECF2"><g><g><g><path d="m320.569 432h-129.137c-6.075 0-11-4.925-11-11s4.925-11 11-11h129.138c6.075 0 11 4.925 11 11s-4.925 11-11.001 11z" fill="#0496FF"/></g><g><path d="m256 327.208c-3.93 0-7.562-2.097-9.526-5.5l-16.18-28.024c-17.269-4.526-32.988-13.543-45.711-26.266-19.076-19.076-29.582-44.439-29.582-71.418 0-26.976 10.508-52.341 29.582-71.417.001-.001-.001.001 0 0 19.076-19.077 44.439-29.583 71.418-29.583 26.978 0 52.341 10.506 71.417 29.582 19.076 19.077 29.582 44.439 29.582 71.418s-10.506 52.342-29.582 71.418c-12.721 12.721-28.44 21.737-45.711 26.265l-16.181 28.025c-1.964 3.403-5.596 5.5-9.526 5.5zm.001-210.208c-21.103 0-40.94 8.217-55.861 23.139-14.922 14.921-23.139 34.759-23.139 55.861s8.217 40.94 23.139 55.861c10.885 10.885 24.565 18.3 39.563 21.444 3.062.642 5.705 2.557 7.27 5.266l9.027 15.637 9.028-15.637c1.564-2.709 4.207-4.624 7.269-5.266 15-3.145 28.681-10.56 39.564-21.444 14.922-14.921 23.139-34.759 23.139-55.861s-8.217-40.94-23.139-55.861c-14.921-14.922-34.758-23.139-55.86-23.139zm-63.64 15.36h.01z" fill="#0496FF"/></g></g><g><path d="m256 25c-94.29 0-171 76.71-171 171 0 49.941 21.755 97.255 59.687 129.81 23.038 19.773 30.813 32.437 30.813 50.19v70c0 2.917 1.159 5.715 3.222 7.778l30 30c2.063 2.062 4.861 3.222 7.778 3.222h79c2.917 0 5.715-1.159 7.778-3.222l30-30c2.062-2.063 3.222-4.861 3.222-7.778v-70c0-17.751 7.775-30.416 30.814-50.189 37.931-32.555 59.686-79.869 59.686-129.811 0-94.29-76.71-171-171-171zm34.943 440h-69.887l-23.556-23.556v-54.444h117v54.444zm62.043-155.884c-20.523 17.615-34.306 33.669-37.68 55.884h-118.612c-3.374-22.215-17.156-38.27-37.679-55.884-33.056-28.37-52.015-69.599-52.015-113.116 0-82.159 66.841-149 149-149s149 66.841 149 149c0 43.517-18.958 84.746-52.014 113.116z"/><path d="m501 185h-33c-6.075 0-11 4.925-11 11s4.925 11 11 11h33c6.075 0 11-4.925 11-11s-4.925-11-11-11z"/><path d="m460.735 151.875c.942 0 1.9-.122 2.854-.378l31.876-8.541c5.868-1.572 9.351-7.604 7.778-13.472s-7.605-9.353-13.472-7.778l-31.876 8.541c-5.868 1.572-9.351 7.604-7.778 13.472 1.317 4.914 5.761 8.156 10.618 8.156z"/><path d="m495.465 249.044-31.876-8.541c-5.864-1.575-11.899 1.91-13.472 7.778-1.572 5.868 1.91 11.9 7.778 13.472l31.876 8.541c.953.256 1.911.378 2.854.378 4.856 0 9.302-3.242 10.618-8.156 1.572-5.868-1.91-11.899-7.778-13.472z"/><path d="m44.001 207c6.075 0 11-4.925 11-11s-4.925-11-11-11h-33.001c-6.075 0-11 4.925-11 11s4.925 11 11 11z"/><path d="m48.412 240.503-31.876 8.541c-5.868 1.572-9.351 7.604-7.778 13.472 1.316 4.915 5.761 8.156 10.618 8.156.942 0 1.9-.122 2.854-.378l31.876-8.541c5.868-1.572 9.351-7.604 7.778-13.472-1.572-5.868-7.609-9.354-13.472-7.778z"/><path d="m54.105 130.247-31.876-8.541c-5.865-1.575-11.899 1.91-13.472 7.778-1.572 5.868 1.91 11.9 7.778 13.472l31.876 8.541c.953.256 1.911.378 2.854.378 4.856 0 9.302-3.242 10.618-8.156 1.573-5.868-1.909-11.9-7.778-13.472z"/><path d="m256 160.75c6.075 0 11-4.925 11-11s-4.925-11-11-11h-.007c-6.075 0-10.996 4.925-10.996 11s4.928 11 11.003 11z"/><path d="m267 228.794v-44.044c0-3.41-1.581-6.627-4.282-8.71-2.7-2.084-6.216-2.796-9.512-1.929l-9.999 2.625c-5.876 1.542-9.389 7.557-7.846 13.433 1.209 4.602 5.159 7.754 9.639 8.164v30.461c-5.606.505-10 5.217-10 10.955 0 6.075 4.925 11 11 11h20c6.075 0 11-4.925 11-11 0-5.738-4.394-10.45-10-10.955z"/></g></g><g/><g/><g/><g/><g/><g/><g/><g/><g/><g/><g/><g/><g/><g/><g/></svg>