<svg id="Capa_1" enable-background="new 0 0 512.086 512.086" viewBox="0 0 512.086 512.086" xmlns="http://www.w3.org/2000/svg" fill="#E6ECF2"><g><g><g fill="#0496FF"><path d="m226.131 0c-6.075 0-11 4.925-11 11v38.963c0 6.075 4.925 11 11 11s11-4.925 11-11v-38.963c0-6.075-4.925-11-11-11z"/><path d="m81.819 66.22c-4.297-4.296-11.26-4.296-15.557 0-4.296 4.296-4.296 11.261 0 15.557l27.551 27.551c2.148 2.148 4.963 3.222 7.778 3.222s5.63-1.074 7.778-3.222c4.296-4.296 4.296-11.261 0-15.557z"/><path d="m50.006 215.088h-38.963c-6.075 0-11 4.925-11 11s4.925 11 11 11h38.963c6.075 0 11-4.925 11-11s-4.925-11-11-11z"/><path d="m414.131 167.848h-12.651v-59.012c0-6.075-4.925-11-11-11h-14.266c-6.075 0-11 4.925-11 11s4.925 11 11 11h3.266v48.012h-12.651c-6.075 0-11 4.925-11 11s4.925 11 11 11h47.303c6.075 0 11-4.925 11-11s-4.926-11-11.001-11z"/><path d="m380.323 68.933c2.742 7.123 12.661 9.081 17.93 3.57 6.197-5.989 2.872-17.025-5.62-18.56-8.428-1.848-15.766 7.084-12.31 14.99z"/></g><path d="m390.479 243.349c67.03 0 121.563-54.533 121.563-121.563s-54.532-121.564-121.563-121.564c-57.372 0-105.583 39.953-118.287 93.496-14.743-5.143-30.181-7.755-46.062-7.755-77.266 0-140.125 62.86-140.125 140.125v135.998h-26.916c-6.075 0-11 4.925-11 11v53h-31.912c-6.075 0-11 4.925-11 11v64c0 6.075 4.925 11 11 11h419.908c6.075 0 11-4.925 11-11v-64c0-6.075-4.925-11-11-11h-31.912v-53c0-6.075-4.925-11-11-11h-26.917v-121.164c7.83 1.59 15.931 2.427 24.223 2.427zm0-221.127c54.899 0 99.563 44.664 99.563 99.563s-44.664 99.563-99.563 99.563-99.563-44.664-99.563-99.563 44.664-99.563 99.563-99.563zm34.606 467.864h-397.908v-42h397.908zm-42.912-64h-312.084v-42h312.084zm-156.042-157.954c-13.725 0-24.891-11.166-24.891-24.891s11.166-24.891 24.891-24.891 24.891 11.166 24.891 24.891c-.001 13.725-11.167 24.891-24.891 24.891zm118.125 93.954h-107.125v-73.269c20.564-4.964 35.891-23.508 35.891-45.575 0-25.855-21.035-46.891-46.891-46.891s-46.891 21.035-46.891 46.891c0 22.067 15.327 40.611 35.891 45.575v73.269h-107.125v-135.998c0-65.134 52.99-118.125 118.125-118.125 14.874 0 29.281 2.705 42.926 8.041-.09 1.917-.141 3.843-.141 5.782 0 50.673 31.17 94.197 75.34 112.425z"/></g></g><g/><g/><g/><g/><g/><g/><g/><g/><g/><g/><g/><g/><g/><g/><g/></svg>