<svg id="Capa_1" enable-background="new 0 0 512 512" viewBox="0 0 512 512" xmlns="http://www.w3.org/2000/svg" fill="#E6ECF2"><g><g><path d="m245 138.333v30.461c-5.606.505-10 5.217-10 10.955 0 6.075 4.925 11 11 11h20c6.075 0 11-4.925 11-11 0-5.738-4.394-10.449-10-10.955v-44.044c0-3.41-1.582-6.627-4.282-8.71-2.701-2.083-6.213-2.795-9.512-1.929l-10 2.625c-5.876 1.543-9.389 7.557-7.846 13.433 1.209 4.602 5.16 7.755 9.64 8.164z"/><path d="m256 100.75c6.075 0 11-4.925 11-11s-4.925-11-11-11h-.008c-6.075 0-10.996 4.925-10.996 11s4.929 11 11.004 11z"/><path d="m501 365h-49v-64c0-6.075-4.925-11-11-11h-174v-59c0-6.075-4.925-11-11-11s-11 4.925-11 11v59h-174c-6.075 0-11 4.925-11 11v64h-49c-6.075 0-11 4.925-11 11v90c0 6.075 4.925 11 11 11h120c6.075 0 11-4.925 11-11v-90c0-6.075-4.925-11-11-11h-49v-53h163v53h-49c-6.075 0-11 4.925-11 11v90c0 6.075 4.925 11 11 11h120c6.075 0 11-4.925 11-11v-90c0-6.075-4.925-11-11-11h-49v-53h163v53h-49c-6.075 0-11 4.925-11 11v90c0 6.075 4.925 11 11 11h120c6.075 0 11-4.925 11-11v-90c0-6.075-4.925-11-11-11zm-381 90h-98v-68h98zm185 0h-98v-68h98zm185 0h-98v-68h98z"/></g><g><g><path d="m256 237c-55.691 0-101-45.309-101-101s45.309-101 101-101 101 45.309 101 101-45.309 101-101 101zm0-180c-43.561 0-79 35.439-79 79s35.439 79 79 79 79-35.439 79-79-35.439-79-79-79z" fill="#0496FF"/></g><g><path d="m86 432h-30c-6.075 0-11-4.925-11-11s4.925-11 11-11h30c6.075 0 11 4.925 11 11s-4.925 11-11 11z" fill="#0496FF"/></g><g><path d="m271 432h-30c-6.075 0-11-4.925-11-11s4.925-11 11-11h30c6.075 0 11 4.925 11 11s-4.925 11-11 11z" fill="#0496FF"/></g><g><path d="m456 432h-30c-6.075 0-11-4.925-11-11s4.925-11 11-11h30c6.075 0 11 4.925 11 11s-4.925 11-11 11z" fill="#0496FF"/></g></g></g><g/><g/><g/><g/><g/><g/><g/><g/><g/><g/><g/><g/><g/><g/><g/></svg>