<svg id="Capa_1" enable-background="new 0 0 512 512" viewBox="0 0 512 512" xmlns="http://www.w3.org/2000/svg" fill="#052438"><g><g fill="#0496FF"><path d="m243.73 197.619h37.048c6.075 0 11-4.925 11-11s-4.925-11-11-11h-13.778v-62.351c0-6.075-4.925-11-11-11h-14.946c-6.075 0-11 4.925-11 11s4.925 11 11 11h3.946v51.351h-1.27z"/><path d="m380.582 3.275c-2.065-2.082-4.877-3.253-7.81-3.253h-.474c-6.075 0-11 4.925-11 11 0 3.978 2.112 7.463 5.275 9.395 27.676 28.73 42.889 66.426 42.891 106.41.002 39.975-15.202 77.665-42.861 106.395-3.18 1.929-5.305 5.423-5.305 9.413 0 6.075 4.925 11 11 11h.486c2.933 0 5.745-1.172 7.811-3.254 32.806-33.08 50.872-76.959 50.869-123.555s-18.072-90.473-50.882-123.551z"/><path d="m150.701 11.022c0-6.075-4.925-11-11-11h-.474c-2.933 0-5.744 1.171-7.81 3.253-32.81 33.077-50.88 76.955-50.883 123.551s18.063 90.475 50.869 123.555c2.065 2.082 4.877 3.254 7.811 3.254h.486c6.075 0 11-4.925 11-11 0-3.99-2.125-7.484-5.305-9.413-27.66-28.729-42.863-66.42-42.861-106.395.002-39.984 15.215-77.68 42.891-106.41 3.164-1.932 5.276-5.417 5.276-9.395z"/><circle cx="256" cy="67.055" r="11"/></g><path d="m367.647 313.517c-4.616 0-9.019.916-13.049 2.563-2.682-16.422-16.963-28.997-34.132-28.997-7.549 0-14.536 2.438-20.23 6.558-6.345-7.884-16.066-12.943-26.951-12.943-4.442 0-8.686.851-12.59 2.383v-29.506c67.77-2.48 122.14-58.374 122.14-126.739 0-69.938-56.897-126.836-126.835-126.836s-126.835 56.898-126.835 126.836c0 45.004 23.775 86.438 62.351 109.237v69.855c-10.795-12.839-29.104-17.433-45.042-10.3-18.235 8.161-27.208 29.274-20.427 48.065l43.225 119.787c10.472 29.021 38.236 48.52 69.088 48.52h90.43c40.5 0 73.449-32.949 73.449-73.449v-90.444c-.001-19.074-15.518-34.59-34.592-34.59zm-216.482-186.681c0-57.807 47.028-104.836 104.835-104.836s104.835 47.029 104.835 104.836c0 56.233-44.504 102.26-100.14 104.725v-28.85c0-19.073-15.517-34.59-34.59-34.59s-34.59 15.517-34.59 34.59v6.791c-25.23-19.689-40.35-50.042-40.35-82.666zm229.073 311.715c0 28.369-23.08 51.449-51.449 51.449h-90.43c-21.611 0-41.059-13.658-48.394-33.986l-43.225-119.787c-2.895-8.021.936-17.034 8.719-20.518 7.965-3.565 17.312-.271 21.283 7.497l15.979 31.252c2.313 4.526 7.429 6.877 12.369 5.687 4.942-1.19 8.425-5.611 8.425-10.694v-146.74c0-6.942 5.648-12.59 12.59-12.59s12.59 5.647 12.59 12.59v153.61c0 6.075 4.925 11 11 11s11-4.925 11-11v-41.032c0-6.942 5.648-12.591 12.59-12.591s12.59 5.648 12.59 12.591v41.032c0 6.075 4.925 11 11 11s11-4.925 11-11v-34.648c0-6.942 5.648-12.59 12.59-12.59s12.59 5.647 12.59 12.59v34.648c0 6.075 4.925 11 11 11s11-4.925 11-11v-8.215c0-6.942 5.648-12.59 12.591-12.59s12.59 5.647 12.59 12.59v90.445z"/></g><g/><g/><g/><g/><g/><g/><g/><g/><g/><g/><g/><g/><g/><g/><g/></svg>