<svg id="Capa_1" enable-background="new 0 0 512 512" viewBox="0 0 512 512" xmlns="http://www.w3.org/2000/svg" fill="#E6ECF2"><g><g><path d="m256 464.148c-114.773 0-208.148-93.375-208.148-208.148s93.375-208.148 208.148-208.148 208.148 93.375 208.148 208.148-93.375 208.148-208.148 208.148zm0-394.296c-102.643 0-186.148 83.505-186.148 186.148s83.505 186.148 186.148 186.148 186.148-83.505 186.148-186.148-83.505-186.148-186.148-186.148z" fill="#0496FF"/></g><g><path d="m311.661 339.509h-17.329v-131.613c0-6.075-4.925-11-11-11h-82.992c-6.075 0-11 4.925-11 11v41.259c0 6.075 4.925 11 11 11h17.329v79.355h-17.329c-6.075 0-11 4.925-11 11v41.258c0 6.075 4.925 11 11 11h111.321c6.075 0 11-4.925 11-11v-41.258c0-6.076-4.925-11.001-11-11.001zm-11 41.259h-89.321v-19.258h17.329c6.075 0 11-4.925 11-11v-101.356c0-6.075-4.925-11-11-11h-17.329v-19.259h60.992v131.614c0 6.075 4.925 11 11 11h17.329z"/><path d="m256 177.896c21.136 0 38.332-17.196 38.332-38.332s-17.196-38.332-38.332-38.332-38.332 17.196-38.332 38.332 17.196 38.332 38.332 38.332zm0-54.664c9.005 0 16.332 7.327 16.332 16.332s-7.326 16.332-16.332 16.332-16.332-7.327-16.332-16.332 7.327-16.332 16.332-16.332z"/><path d="m437.019 74.98c-48.352-48.352-112.639-74.98-181.019-74.98s-132.667 26.628-181.02 74.98-74.98 112.64-74.98 181.02 26.628 132.667 74.98 181.019c48.353 48.353 112.64 74.981 181.02 74.981s132.667-26.628 181.019-74.981c48.353-48.352 74.981-112.639 74.981-181.019s-26.628-132.667-74.981-181.02zm-15.556 346.483c-44.197 44.197-102.96 68.537-165.463 68.537-62.504 0-121.267-24.34-165.463-68.537-44.197-44.197-68.537-102.96-68.537-165.463 0-62.504 24.34-121.267 68.537-165.463 44.196-44.197 102.959-68.537 165.463-68.537 62.503 0 121.266 24.34 165.463 68.537 44.197 44.196 68.537 102.959 68.537 165.463 0 62.503-24.34 121.266-68.537 165.463z"/></g></g><g/><g/><g/><g/><g/><g/><g/><g/><g/><g/><g/><g/><g/><g/><g/></svg>