<svg id="Capa_1" enable-background="new 0 0 512 512" viewBox="0 0 512 512" xmlns="http://www.w3.org/2000/svg" fill="#052438"><g><g fill="#0496FF"><path d="m167.893 43.228h-75.213c-27.268 0-49.451 22.184-49.451 49.452v75.213c0 6.075 4.925 11 11 11s11-4.925 11-11v-75.213c0-15.137 12.314-27.452 27.451-27.452h75.213c6.075 0 11-4.925 11-11s-4.925-11-11-11z"/><path d="m167.893 446.772h-75.213c-15.137 0-27.451-12.315-27.451-27.452v-75.213c0-6.075-4.925-11-11-11s-11 4.925-11 11v75.213c0 27.268 22.184 49.452 49.451 49.452h75.213c6.075 0 11-4.925 11-11s-4.925-11-11-11z"/><path d="m457.771 333.107c-6.075 0-11 4.925-11 11v75.213c0 15.137-12.314 27.452-27.451 27.452h-75.213c-6.075 0-11 4.925-11 11s4.925 11 11 11h75.213c27.268 0 49.451-22.184 49.451-49.452v-75.213c0-6.075-4.924-11-11-11z"/><path d="m419.32 43.228h-75.213c-6.075 0-11 4.925-11 11s4.925 11 11 11h75.213c15.137 0 27.451 12.315 27.451 27.452v75.213c0 6.075 4.925 11 11 11s11-4.925 11-11v-75.213c0-27.268-22.183-49.452-49.451-49.452z"/></g><g><path d="m299.426 320.771c0-6.075-4.925-11-11-11h-21.426v-73.76c0-6.075-4.925-11-11-11h-32.426c-6.075 0-11 4.925-11 11s4.925 11 11 11h21.426v62.76h-21.426c-6.075 0-11 4.925-11 11s4.925 11 11 11h64.852c6.075 0 11-4.925 11-11z"/><path d="m256 205.566c6.075 0 11-4.925 11-11v-11.337c0-6.075-4.925-11-11-11s-11 4.925-11 11v11.337c0 6.076 4.925 11 11 11z"/><path d="m226.801 102.792c-30.854 5.847-58.941 20.752-81.229 43.104-22.291 22.356-37.114 50.495-42.868 81.373-1.113 5.972 2.826 11.716 8.799 12.829.681.127 1.358.188 2.027.188 5.193 0 9.815-3.696 10.801-8.987 4.939-26.504 17.671-50.665 36.82-69.87 19.146-19.202 43.264-32.004 69.745-37.023 5.969-1.131 9.891-6.887 8.76-12.856s-6.893-9.892-12.855-8.758z"/><path d="m160.683 350.098c-18.89-19.133-31.461-43.135-36.354-69.412-1.112-5.973-6.856-9.915-12.828-8.8-5.973 1.112-9.912 6.855-8.801 12.828 5.701 30.614 20.337 58.569 42.327 80.841 21.971 22.253 49.707 37.243 80.209 43.349.729.146 1.455.216 2.171.216 5.135 0 9.728-3.615 10.774-8.843 1.192-5.957-2.67-11.753-8.627-12.945-26.181-5.241-49.996-18.116-68.871-37.234z"/><path d="m283.279 409.376c.684 0 1.376-.064 2.071-.196 30.448-5.802 58.243-20.457 80.38-42.381 22.122-21.91 37.042-49.54 43.146-79.904 1.197-5.956-2.66-11.755-8.616-12.953-5.954-1.195-11.755 2.66-12.952 8.616-5.24 26.063-18.055 49.788-37.06 68.61-19.016 18.834-42.882 31.421-69.016 36.4-5.968 1.137-9.884 6.897-8.747 12.865 1.006 5.273 5.619 8.943 10.794 8.943z"/><path d="m281.188 124.423c26.463 5.033 50.562 17.84 69.689 37.036 19.133 19.201 31.855 43.352 36.791 69.841.985 5.292 5.606 8.987 10.801 8.987.668 0 1.347-.061 2.027-.188 5.973-1.113 9.912-6.856 8.799-12.829-5.75-30.862-20.562-58.989-42.834-81.34-22.267-22.346-50.333-37.257-81.164-43.12-5.968-1.14-11.727 2.783-12.861 8.751s2.784 11.727 8.752 12.862z"/><path d="m230.199 462.482c-45.34-5.604-88.246-26.505-120.815-58.852-32.554-32.331-53.746-75.066-59.675-120.333-.789-6.023-6.315-10.269-12.336-9.478-6.023.789-10.267 6.312-9.479 12.335 6.559 50.074 29.993 97.338 65.986 133.086 36.011 35.765 83.465 58.876 133.619 65.076.458.057.913.084 1.363.084 5.474 0 10.215-4.081 10.903-9.651.747-6.03-3.536-11.521-9.566-12.267z"/><path d="m474.627 273.819c-6.026-.785-11.547 3.455-12.336 9.478-5.926 45.245-27.103 87.964-59.63 120.289-32.542 32.339-75.417 53.25-120.729 58.88-6.028.749-10.309 6.244-9.56 12.272.692 5.568 5.432 9.645 10.902 9.645.452 0 .91-.028 1.37-.085 50.123-6.229 97.542-29.351 133.522-65.107 35.965-35.741 59.382-82.988 65.938-133.037.79-6.024-3.454-11.547-9.477-12.335z"/><path d="m284.174 49.825c92.733 12.546 165.979 86.114 178.121 178.902.725 5.54 5.453 9.574 10.894 9.574.476 0 .957-.031 1.44-.094 6.024-.789 10.269-6.311 9.48-12.334-13.428-102.616-94.431-183.974-196.986-197.85-6.02-.812-11.562 3.406-12.375 9.426-.814 6.021 3.405 11.562 9.426 12.376z"/><path d="m37.483 236.857c.507.07 1.01.104 1.508.104 5.411 0 10.129-3.996 10.885-9.507 12.784-93.223 86.936-166.392 180.323-177.936 6.029-.745 10.312-6.237 9.567-12.267-.745-6.029-6.226-10.318-12.267-9.567-103.276 12.766-185.281 93.685-199.42 196.781-.825 6.019 3.385 11.567 9.404 12.392z"/></g><g fill="#0496FF"><path d="m114.534 219.963h-78.497c-19.871 0-36.037 16.166-36.037 36.037s16.166 36.037 36.037 36.037h78.497c19.871 0 36.037-16.166 36.037-36.037s-16.166-36.037-36.037-36.037zm0 50.074h-78.497c-7.74 0-14.037-6.297-14.037-14.037s6.297-14.037 14.037-14.037h78.497c7.74 0 14.037 6.297 14.037 14.037s-6.297 14.037-14.037 14.037z"/><path d="m256 361.429c-19.871 0-36.037 16.166-36.037 36.037v78.497c0 19.871 16.166 36.037 36.037 36.037s36.037-16.166 36.037-36.037v-78.497c0-19.871-16.166-36.037-36.037-36.037zm14.037 114.534c0 7.74-6.297 14.037-14.037 14.037s-14.037-6.297-14.037-14.037v-78.497c0-7.74 6.297-14.037 14.037-14.037s14.037 6.297 14.037 14.037z"/><path d="m475.963 219.963h-78.497c-19.871 0-36.037 16.166-36.037 36.037s16.166 36.037 36.037 36.037h78.497c19.871 0 36.037-16.166 36.037-36.037s-16.166-36.037-36.037-36.037zm0 50.074h-78.497c-7.74 0-14.037-6.297-14.037-14.037s6.297-14.037 14.037-14.037h78.497c7.74 0 14.037 6.297 14.037 14.037s-6.297 14.037-14.037 14.037z"/><path d="m256 0c-19.871 0-36.037 16.166-36.037 36.037v78.497c0 19.871 16.166 36.037 36.037 36.037s36.037-16.166 36.037-36.037v-78.497c0-19.871-16.166-36.037-36.037-36.037zm14.037 114.534c0 7.74-6.297 14.037-14.037 14.037s-14.037-6.297-14.037-14.037v-78.497c0-7.74 6.297-14.037 14.037-14.037s14.037 6.297 14.037 14.037z"/></g></g><g/><g/><g/><g/><g/><g/><g/><g/><g/><g/><g/><g/><g/><g/><g/></svg>