<svg id="Capa_1" enable-background="new 0 0 512 512" viewBox="0 0 512 512" xmlns="http://www.w3.org/2000/svg" fill="#E6ECF2"><g><g><path d="m170.517 376.731c14.462-11.487 23.751-29.219 23.751-49.08 0-34.546-28.105-62.651-62.652-62.651-34.546 0-62.651 28.105-62.651 62.651 0 19.861 9.289 37.593 23.751 49.079-39.607 15.576-67.716 54.202-67.716 99.27 0 6.075 4.925 11 11 11h191.232c6.075 0 11-4.925 11-11 0-45.068-28.108-83.694-67.715-99.269zm-38.901-89.731c22.416 0 40.652 18.236 40.652 40.651 0 22.416-18.236 40.652-40.652 40.652-22.415 0-40.651-18.236-40.651-40.652 0-22.415 18.236-40.651 40.651-40.651zm-83.904 178c5.409-41.479 40.975-73.616 83.904-73.616s78.495 32.137 83.904 73.616z"/><path d="m419.285 376.731c14.462-11.487 23.751-29.219 23.751-49.08 0-34.546-28.105-62.651-62.651-62.651-34.547 0-62.652 28.105-62.652 62.651 0 19.861 9.289 37.593 23.751 49.079-39.607 15.575-67.716 54.201-67.716 99.269 0 6.075 4.925 11 11 11h191.232c6.075 0 11-4.925 11-11 0-45.067-28.108-83.693-67.715-99.268zm-38.9-89.731c22.415 0 40.651 18.236 40.651 40.651 0 22.416-18.236 40.652-40.651 40.652-22.416 0-40.652-18.236-40.652-40.652-.001-22.415 18.236-40.651 40.652-40.651zm-83.906 178c5.409-41.479 40.975-73.616 83.904-73.616s78.495 32.137 83.904 73.616z"/><path d="m461 25h-410c-28.121 0-51 22.879-51 51v74.999c0 28.121 22.879 51 51 51h36.633l36.205 36.206c2.062 2.062 4.861 3.222 7.778 3.222s5.715-1.159 7.778-3.222l36.206-36.206h160.799l36.206 36.206c4.297 4.295 11.26 4.295 15.557 0l36.206-36.206h36.632c28.121 0 51-22.879 51-51v-74.999c0-28.121-22.879-51-51-51zm29 125.999c0 15.99-13.01 29-29 29h-41.188c-2.917 0-5.715 1.159-7.778 3.222l-31.649 31.649-31.649-31.649c-2.063-2.062-4.861-3.222-7.778-3.222h-169.914c-2.917 0-5.715 1.159-7.778 3.222l-31.649 31.649-31.648-31.649c-2.062-2.062-4.861-3.222-7.778-3.222h-41.191c-15.99 0-29-13.01-29-29v-74.999c0-15.99 13.01-29 29-29h410c15.99 0 29 13.01 29 29z"/></g><g><g><path d="m419.812 98.666h-327.623c-6.075 0-11-4.925-11-11s4.925-11 11-11h327.622c6.075 0 11 4.925 11 11s-4.924 11-10.999 11z" fill="#0496FF"/></g><g><path d="m256 150.332h-163.811c-6.075 0-11-4.925-11-11s4.925-11 11-11h163.811c6.075 0 11 4.925 11 11s-4.925 11-11 11z" fill="#0496FF"/></g></g></g><g/><g/><g/><g/><g/><g/><g/><g/><g/><g/><g/><g/><g/><g/><g/></svg>