<svg id="Capa_1" enable-background="new 0 0 512 512" viewBox="0 0 512 512" xmlns="http://www.w3.org/2000/svg" fill="#052438"><g><g><path d="m508.778 225.307-30-30c-2.063-2.062-4.861-3.222-7.778-3.222-2.918 0-5.716 1.159-7.778 3.222l-29.999 30c-4.296 4.296-4.296 11.261 0 15.557 2.148 2.147 4.963 3.222 7.778 3.222s5.631-1.074 7.778-3.222l11.221-11.221v26.357c0 120.757-98.243 219-219 219s-219-98.244-219-219 98.243-218.999 219-218.999c26.03 0 51.606 4.581 76.017 13.616 5.699 2.107 12.025-.8 14.135-6.498 2.108-5.697-.801-12.025-6.498-14.135-26.864-9.942-55.008-14.983-83.654-14.983-64.373 0-124.894 25.068-170.413 70.587-45.519 45.519-70.587 106.039-70.587 170.412s25.068 124.894 70.587 170.413c45.519 45.518 106.04 70.587 170.413 70.587s124.894-25.068 170.413-70.587c45.519-45.52 70.587-106.04 70.587-170.413v-26.357l11.222 11.222c4.297 4.295 11.26 4.295 15.557 0 4.295-4.297 4.295-11.262-.001-15.558z"/><path d="m385.001 256c0 79.402-64.599 144.001-144.001 144.001-79.401 0-144-64.599-144-144.001 0-79.401 64.599-144 144-144 23.107 0 46.147 5.651 66.632 16.344 5.386 2.812 12.029.725 14.842-4.662 2.811-5.386.724-12.03-4.662-14.842-23.614-12.326-50.175-18.84-76.812-18.84-91.533 0-166 74.467-166 166s74.467 166.001 166 166.001 166.001-74.468 166.001-166.001c0-18.622-3.104-36.983-9.228-54.574-1.997-5.737-8.263-8.768-14.005-6.772-5.737 1.997-8.77 8.268-6.772 14.005 5.312 15.259 8.005 31.187 8.005 47.341z"/><path d="m252 146.001c0-6.075-4.925-11-11-11s-11 4.925-11 11v80c0 6.075 4.925 11 11 11s11-4.925 11-11z"/><path d="m271 245c-6.075 0-11 4.925-11 11s4.925 11 11 11h30c6.075 0 11-4.925 11-11s-4.925-11-11-11z"/><path d="m346 267h5c6.075 0 11-4.925 11-11s-4.925-11-11-11h-5c-6.075 0-11 4.925-11 11s4.925 11 11 11z"/><path d="m131 245c-6.075 0-11 4.925-11 11s4.925 11 11 11h5c6.075 0 11-4.925 11-11s-4.925-11-11-11z"/><path d="m241 350c-6.075 0-11 4.925-11 11v5c0 6.075 4.925 11 11 11s11-4.925 11-11v-5c0-6.076-4.925-11-11-11z"/></g><g><g><path d="m391.998 169.543h-44c-3.42 0-6.646-1.591-8.728-4.305s-2.783-6.241-1.897-9.545c4.115-15.342 19.481-33.25 36.221-51.786l2.19-2.429c3.151-3.502 6.382-8.706 3.869-13.606-2.057-4.014-7.211-6.771-11.743-6.271-5.533.607-8.094 6.1-9.269 10.6-1.532 5.88-7.546 9.401-13.42 7.867-5.879-1.533-9.401-7.542-7.867-13.42 4.007-15.359 14.533-25.422 28.157-26.915 13.634-1.501 27.492 5.95 33.721 18.104 6.23 12.158 3.579 26.497-7.095 38.358l-2.217 2.457c-6.556 7.259-16.865 18.675-23.945 28.891h26.022c6.075 0 11 4.925 11 11s-4.924 11-10.999 11z" fill="#0496FF"/></g><g><path d="m471 169.543c-6.075 0-11-4.925-11-11v-27.503h-33.002c-3.129 0-6.109-1.332-8.196-3.663-2.087-2.332-3.082-5.441-2.736-8.551l5.495-49.497c.67-6.038 6.112-10.381 12.146-9.719 6.038.67 10.39 6.108 9.719 12.146l-4.139 37.283h20.713v-38.496c0-6.075 4.925-11 11-11s11 4.925 11 11v88c0 6.075-4.925 11-11 11z" fill="#0496FF"/></g><g><path d="m241 292c-19.851 0-36-16.149-36-36s16.149-36 36-36 36 16.149 36 36-16.149 36-36 36zm0-50c-7.72 0-14 6.28-14 14s6.28 14 14 14 14-6.28 14-14-6.28-14-14-14z" fill="#0496FF"/></g></g></g><g/><g/><g/><g/><g/><g/><g/><g/><g/><g/><g/><g/><g/><g/><g/></svg>