<svg id="Capa_1" enable-background="new 0 0 512 512" viewBox="0 0 512 512" xmlns="http://www.w3.org/2000/svg" fill="#E6ECF2"><g><path d="m467.333 328.932c-7.525 0-14.498 2.411-20.188 6.5-6.356-7.995-16.163-13.128-27.146-13.128-7.525 0-14.499 2.411-20.188 6.5-6.356-7.993-16.163-13.127-27.146-13.127-4.467 0-8.741.85-12.666 2.396v-21.241c20.935-31.453 32-68.045 32-105.831.001-105.319-85.682-191.001-190.999-191.001s-191 85.682-191 191 85.683 191 191 191c31.435 0 62.118-7.686 89.667-22.351v35.004c-13.369-8.3-31.205-6.653-42.8 4.943-13.516 13.517-13.516 35.509 0 49.025l42.8 42.799v9.58c0 6.075 4.925 11 11 11s11-4.925 11-11v-14.135c0-2.917-1.159-5.715-3.222-7.778l-46.021-46.021c-4.938-4.938-4.938-12.974 0-17.913s12.974-4.939 17.913 0l12.552 12.551c3.146 3.146 7.878 4.086 11.988 2.384 4.11-1.703 6.79-5.713 6.79-10.163v-150.26c0-6.984 5.682-12.667 12.666-12.667s12.667 5.684 12.667 12.668v93.932c0 6.075 4.925 11 11 11s11-4.925 11-11v-13.256c0-6.984 5.682-12.666 12.666-12.666s12.667 5.682 12.667 12.666v13.256c0 6.075 4.925 11 11 11s11-4.925 11-11v-6.628c0-6.984 5.682-12.666 12.666-12.666 6.985 0 12.668 5.682 12.668 12.667v6.628c0 6.075 4.925 11 11 11s11-4.925 11-11c0-6.984 5.682-12.666 12.666-12.666s12.667 5.681 12.667 12.665v137.402c0 6.075 4.925 11 11 11s11-4.925 11-11v-137.402c0-19.115-15.552-34.666-34.667-34.666zm-142-93.932c-19.115 0-34.666 15.551-34.666 34.667v64.584c-26.917 16.854-57.857 25.749-89.667 25.749-93.187 0-169-75.813-169-169s75.813-169 169-169 169 75.813 169 169c0 22.426-4.405 44.376-12.896 64.798-5.36-12.232-17.584-20.798-31.771-20.798z"/><path d="m239.5 235.538v-68.542c0-9.19-3.846-17.92-10.552-23.954-2.421-2.178-5.109-3.936-7.99-5.25 8.281-7.067 13.541-17.576 13.541-29.291 0-21.229-17.271-38.5-38.5-38.5s-38.5 17.271-38.5 38.5c0 12.139 5.647 22.983 14.452 30.045l-4.403.466c-18.368 1.946-31.729 18.474-29.784 36.843 1.502 14.178 11.701 25.372 24.735 28.848v30.835c-15.619 2.835-27.5 16.538-27.5 32.962 0 18.472 15.028 33.5 33.5 33.5h65c18.472 0 33.5-15.028 33.5-33.5.001-16.425-11.88-30.127-27.499-32.962zm-43.5-143.538c9.098 0 16.5 7.402 16.5 16.5 0 9.099-7.402 16.5-16.5 16.5s-16.5-7.402-16.5-16.5 7.402-16.5 16.5-16.5zm37.5 188h-65c-6.341 0-11.5-5.159-11.5-11.5s5.159-11.5 11.5-11.5h5c6.075 0 11-4.925 11-11v-51.3c0-3.119-1.324-6.091-3.643-8.178-2.319-2.085-5.404-3.09-8.517-2.761-6.337.679-12.03-3.917-12.699-10.224-.667-6.306 3.919-11.98 10.225-12.648l36.537-3.87c3.837-.407 6.376 1.068 7.831 2.377 2.105 1.895 3.266 4.593 3.266 7.598v79.006c0 6.075 4.925 11 11 11h5c6.341 0 11.5 5.159 11.5 11.5s-5.159 11.5-11.5 11.5z" fill="#0496FF"/></g><g/><g/><g/><g/><g/><g/><g/><g/><g/><g/><g/><g/><g/><g/><g/></svg>