<svg id="Capa_1" enable-background="new 0 0 512 512" viewBox="0 0 512 512" xmlns="http://www.w3.org/2000/svg" fill="#E6ECF2"><g><path d="m508.778 348.222-65-64.999c-2.063-2.062-4.861-3.222-7.778-3.222h-360c-2.917 0-5.715 1.159-7.778 3.222l-65 64.999c-4.295 4.296-4.296 11.261 0 15.557 4.296 4.294 11.26 4.295 15.557 0l46.221-46.222v158.443c0 6.075 4.925 11 11 11h360c6.075 0 11-4.925 11-11v-158.443l46.221 46.221c2.148 2.147 4.963 3.222 7.778 3.222s5.63-1.074 7.778-3.222c4.297-4.296 4.297-11.261.001-15.556zm-93.773-46.221-29.769 42.999h-258.472l-29.769-42.999zm-328.005 162.999v-138.785l24.956 36.047c2.055 2.968 5.435 4.738 9.044 4.738h270c3.609 0 6.989-1.771 9.044-4.738l24.956-36.048v138.786z"/><path d="m294.5 190.538v-68.543c0-9.19-3.846-17.922-10.552-23.954-2.421-2.178-5.109-3.936-7.989-5.25 8.281-7.067 13.541-17.576 13.541-29.291 0-21.229-17.271-38.5-38.5-38.5s-38.5 17.271-38.5 38.5c0 12.139 5.648 22.984 14.453 30.046l-4.403.466c-8.899.942-16.898 5.294-22.523 12.253s-8.205 15.691-7.262 24.59c1.502 14.179 11.7 25.373 24.735 28.848v30.836c-15.619 2.836-27.5 16.537-27.5 32.962 0 18.472 15.028 33.5 33.5 33.5h65c18.472 0 33.5-15.028 33.5-33.5 0-16.426-11.881-30.127-27.5-32.963zm-43.5-143.538c9.098 0 16.5 7.402 16.5 16.5s-7.402 16.5-16.5 16.5c-9.099 0-16.5-7.402-16.5-16.5s7.401-16.5 16.5-16.5zm37.5 188h-65c-6.341 0-11.5-5.159-11.5-11.5s5.159-11.5 11.5-11.5h5c6.075 0 11-4.925 11-11v-51.3c0-3.119-1.324-6.092-3.643-8.178s-5.412-3.089-8.516-2.761c-6.336.653-12.031-3.916-12.699-10.226-.324-3.054.562-6.052 2.493-8.44 1.931-2.39 4.677-3.883 7.731-4.207l36.538-3.869c3.836-.405 6.375 1.068 7.829 2.377 2.106 1.895 3.266 4.593 3.266 7.599v79.005c0 6.075 4.925 11 11 11h5c6.341 0 11.5 5.159 11.5 11.5s-5.158 11.5-11.499 11.5z" fill="#0496FF"/></g><g/><g/><g/><g/><g/><g/><g/><g/><g/><g/><g/><g/><g/><g/><g/></svg>