<svg id="Capa_1" enable-background="new 0 0 512 512" viewBox="0 0 512 512" xmlns="http://www.w3.org/2000/svg" fill="#E6ECF2"><g><g><g><path d="m256 512c-53.031 0-103.694-15.996-146.872-46.316l-67.4 18.06c-3.797 1.018-7.846-.068-10.625-2.847s-3.864-6.829-2.847-10.625l18.06-67.4c-30.319-43.177-46.316-93.841-46.316-146.872 0-68.38 26.628-132.667 74.981-181.019 48.352-48.353 112.639-74.981 181.019-74.981s132.667 26.628 181.019 74.981c48.353 48.352 74.981 112.639 74.981 181.019s-26.628 132.667-74.981 181.019c-48.352 48.353-112.639 74.981-181.019 74.981zm-144.69-69.289c2.315 0 4.598.731 6.504 2.128 40.302 29.545 88.085 45.161 138.186 45.161 62.503 0 121.266-24.34 165.463-68.537s68.537-102.96 68.537-165.463-24.34-121.266-68.537-165.463-102.96-68.537-165.463-68.537-121.266 24.34-165.463 68.537-68.537 102.96-68.537 165.463c0 50.101 15.616 97.885 45.161 138.187 1.972 2.69 2.617 6.129 1.753 9.351l-14.476 54.025 54.025-14.476c.938-.252 1.895-.376 2.847-.376z" fill="#0496FF"/></g><path d="m256 80.81c-91.147 0-165.3 74.153-165.3 165.3v90.834c0 6.075 4.925 11 11 11h55.101c13.899 41.466 53.115 71.427 99.2 71.427s85.3-29.962 99.2-71.427h55.101c6.075 0 11-4.925 11-11v-90.834c-.001-91.147-74.155-165.3-165.302-165.3zm0 22c78.645 0 142.686 63.684 143.286 142.19h-38.708c-.598-57.162-47.277-103.482-104.578-103.482s-103.979 46.32-104.577 103.482h-38.708c.599-78.506 64.64-142.19 143.285-142.19zm17.954 102.069c-6.075 0-11 4.925-11 11 0 16.058-13.063 29.121-29.121 29.121h-60.397c.599-45.03 37.394-81.482 82.564-81.482s81.965 36.452 82.564 81.482h-31.543c-10.004 0-19.236-5.157-24.54-13.431 1.599-4.947 2.473-10.217 2.473-15.69 0-6.075-4.924-11-11-11zm-122.546 121.065h-38.708v-58.944h38.708zm104.592 71.428c-45.542 0-82.592-37.05-82.592-82.592v-47.78h60.425c14.327 0 27.288-5.932 36.578-15.459 9.469 9.697 22.605 15.459 36.61 15.459h31.571v37.782.005c0 9.861-3.84 19.133-10.813 26.106s-16.245 10.813-26.106 10.813h-45.173c-6.075 0-11 4.925-11 11s4.925 11 11 11h45.173c8.557 0 16.829-1.825 24.391-5.267-14.607 23.355-40.544 38.933-70.064 38.933zm143.301-71.428h-38.708v-58.944h38.708z"/></g></g><g/><g/><g/><g/><g/><g/><g/><g/><g/><g/><g/><g/><g/><g/><g/></svg>