<svg id="Capa_1" enable-background="new 0 0 512 512" viewBox="0 0 512 512" xmlns="http://www.w3.org/2000/svg" fill="#052438"><g><g fill="#0496FF"><path d="m501 245h-94.793c-1.188-48.666-10.24-94.949-26.102-134.339 18.933-5.382 36.553-11.991 52.282-19.704 5.454-2.675 6.68-8.05 4.005-13.504-2.675-5.455-8.237-8.923-13.693-6.249-15.429 7.566-32.86 14.006-51.676 19.175-2.214-4.467-4.52-8.826-6.927-13.058-28.36-49.862-66.748-76.321-108.096-76.321s-79.736 26.459-108.096 76.32c-2.407 4.232-4.714 8.592-6.928 13.059-18.816-5.169-36.247-11.609-51.676-19.175-5.455-2.674-11.386.794-14.06 6.249-2.675 5.455-1.082 10.829 4.373 13.504 15.729 7.714 33.35 14.323 52.283 19.704-15.862 39.39-24.913 85.673-26.101 134.339h-94.795c-6.075 0-9.796 4.925-9.796 11s3.721 11 9.796 11h94.794c1.188 48.651 10.234 94.921 26.087 134.303-18.929 5.392-36.527 12.021-52.268 19.74-5.454 2.675-7.096 8.623-4.422 14.078 1.91 3.896 5.208 6.801 9.273 6.801 1.626 0 3.277-.362 4.836-1.126 15.426-7.565 32.849-14.005 51.672-19.185 2.216 4.47 4.524 8.833 6.932 13.068 28.36 49.862 66.748 76.321 108.096 76.321s79.736-26.459 108.096-76.32c2.408-4.234 4.716-8.596 6.931-13.065 18.83 5.182 36.261 11.623 51.674 19.182 1.558.764 3.209 1.126 4.835 1.126 4.064 0 7.127-4.116 9.037-8.012 2.675-5.455 1.268-10.192-4.187-12.867-15.727-7.712-33.335-14.337-52.269-19.732 15.855-39.384 24.902-85.656 26.09-134.311h94.793c6.075 0 9.247-4.925 9.247-11s-3.172-11.001-9.247-11.001zm-142.412 150.841c-11.892-2.671-24.185-4.885-36.774-6.593-6.032-.821-11.563 3.401-12.38 9.42-.816 6.02 3.401 11.562 9.421 12.379 10.315 1.4 20.402 3.157 30.206 5.232-1.33 2.549-2.688 5.063-4.088 7.523-21.573 37.93-48.926 60.702-77.973 65.311v-77.086c0-6.075-4.925-11-11-11s-11 4.925-11 11v77.086c-29.046-4.608-56.399-27.38-77.973-65.311-1.399-2.459-2.757-4.971-4.086-7.519 10.513-2.224 21.35-4.086 32.453-5.534 6.024-.786 10.271-6.307 9.484-12.331-.786-6.023-6.304-10.273-12.33-9.485-13.419 1.75-26.508 4.067-39.138 6.904-15.517-37.352-24.412-81.811-25.614-128.837h67.332c6.075 0 11-4.925 11-11s-4.925-11-11-11h-67.332c1.202-47.041 10.102-91.513 25.628-128.872 24.107 5.41 49.85 8.927 76.212 10.305.195.01.39.016.584.016 5.811 0 10.668-4.555 10.976-10.426.317-6.067-4.344-11.242-10.411-11.56-23.446-1.226-46.321-4.211-67.836-8.762 1.327-2.543 2.682-5.05 4.078-7.504 21.573-37.93 48.926-60.702 77.973-65.311v78.902c0 6.075 4.925 11 11 11s11-4.925 11-11v-78.901c29.046 4.608 56.399 27.38 77.973 65.311 1.396 2.454 2.751 4.961 4.078 7.504-21.519 4.552-44.398 7.537-67.849 8.763-6.067.317-10.728 5.492-10.411 11.559.308 5.872 5.164 10.426 10.976 10.426.193 0 .389-.005.584-.016 26.367-1.378 52.115-4.895 76.226-10.307 15.526 37.359 24.426 81.831 25.628 128.872h-94.212c-6.075 0-11 4.925-11 11s4.925 11 11 11h94.212c-1.203 47.029-10.099 91.49-25.617 128.842z"/><path d="m256 154.973c-6.075 0-11 4.925-11 11v43.926c0 6.075 4.925 11 11 11s11-4.925 11-11v-43.926c0-6.076-4.925-11-11-11z"/></g><g><g><path d="m256 512c-68.38 0-132.667-26.628-181.02-74.981-48.351-48.352-74.98-112.639-74.98-181.019s26.629-132.667 74.98-181.019c48.353-48.353 112.64-74.981 181.02-74.981s132.667 26.628 181.02 74.981c48.351 48.352 74.98 112.639 74.98 181.019s-26.629 132.667-74.98 181.019c-48.353 48.353-112.64 74.981-181.02 74.981zm0-490c-62.504 0-121.266 24.34-165.463 68.537s-68.537 102.96-68.537 165.463 24.34 121.266 68.537 165.463 102.959 68.537 165.463 68.537 121.266-24.34 165.463-68.537 68.537-102.96 68.537-165.463-24.34-121.266-68.537-165.463-102.959-68.537-165.463-68.537z"/></g><g><g><path d="m316.871 419.853h-121.742c-6.075 0-11-4.925-11-11v-45.121c0-6.075 4.925-11 11-11h19.98v-84.732h-19.98c-6.075 0-11-4.925-11-11v-45.121c0-6.075 4.925-11 11-11h90.762c6.075 0 11 4.925 11 11v140.853h19.98c6.075 0 11 4.925 11 11v45.121c0 6.075-4.925 11-11 11zm-110.742-22h99.742v-23.121h-19.98c-6.075 0-11-4.925-11-11v-140.853h-68.762v23.121h19.98c6.075 0 11 4.925 11 11v106.731c0 6.075-4.925 11-11 11h-19.98z"/></g><g><path d="m256 175.041c-22.547 0-40.891-18.343-40.891-40.891s18.344-40.891 40.891-40.891 40.891 18.343 40.891 40.891-18.344 40.891-40.891 40.891zm0-59.782c-10.416 0-18.891 8.474-18.891 18.891s8.475 18.891 18.891 18.891 18.891-8.474 18.891-18.891-8.475-18.891-18.891-18.891z"/></g></g></g></g><g/><g/><g/><g/><g/><g/><g/><g/><g/><g/><g/><g/><g/><g/><g/></svg>