<svg id="Capa_1" enable-background="new 0 0 511.977 511.977" viewBox="0 0 511.977 511.977" xmlns="http://www.w3.org/2000/svg" fill="#E6ECF2"><g><g fill="#0496FF"><path d="m98.483 61.85h22v159.005h-22z" transform="matrix(.707 -.707 .707 .707 -67.885 118.818)"/><path d="m359.474 322.841h22v159.005h-22z" transform="matrix(.707 -.707 .707 .707 -175.991 379.809)"/><path d="m343.391 215.594h50.98c6.075 0 11-4.925 11-11s-4.925-11-11-11h-14.49v-64.457c0-6.075-4.925-11-11-11h-15.375c-6.075 0-11 4.925-11 11s4.925 11 11 11h4.375v53.457h-14.49c-6.075 0-11 4.925-11 11s4.925 11 11 11z"/><path d="m358.725 85.8c2.129 5.494 8.968 8.332 14.36 5.95 5.495-2.13 8.338-8.97 5.95-14.36-1.088-2.681-3.272-4.862-5.95-5.95-5.388-2.388-12.233.453-14.36 5.95-1.124 2.657-1.118 5.754 0 8.41z"/></g><g><path d="m377.642 323.843c-7.567-7.566-17.627-11.734-28.329-11.734-10.701 0-20.761 4.167-28.328 11.734l-37.173 37.173-133.001-133 37.173-37.173c15.62-15.62 15.62-41.036 0-56.656l-71.333-71.333c-15.62-15.62-41.036-15.619-56.657 0l-28.347 28.346c-27.309 27.309-38.002 67.571-27.906 105.074 20.021 74.366 59.538 142.619 114.288 197.392.023.023.046.046.066.067.019.019.04.04.061.06 55.104 55.082 123.809 94.724 198.688 114.639 8.962 2.384 18.1 3.545 27.189 3.545 28.235 0 56.003-11.206 76.587-31.79l28.354-28.354c7.567-7.566 11.734-17.627 11.734-28.328s-4.167-20.762-11.734-28.328zm55.777 112.433-28.354 28.354c-21.682 21.683-53.322 30.319-82.565 22.541-71.157-18.926-136.452-56.608-188.825-108.974-.006-.006-.012-.012-.019-.018-.008-.008-.017-.017-.025-.025-52.052-52.059-89.621-116.929-108.646-187.599-8.057-29.927.457-62.038 22.219-83.799l28.347-28.347c7.042-7.043 18.502-7.043 25.543 0l71.333 71.333c7.042 7.042 7.042 18.501 0 25.543l-44.951 44.951c-4.295 4.296-4.295 11.261 0 15.557l148.557 148.557c4.296 4.296 11.261 4.296 15.557 0l44.951-44.951c3.412-3.412 7.947-5.291 12.771-5.291 4.825 0 9.36 1.879 12.772 5.291l71.334 71.333c3.411 3.411 5.29 7.947 5.29 12.771s-1.877 9.362-5.289 12.773z"/><path d="m368.881 0c-78.902 0-143.094 64.191-143.094 143.094 0 28.844 8.466 56.435 24.539 80.138l-9.131 34.077c-1.018 3.796.068 7.847 2.847 10.625 2.78 2.779 6.829 3.865 10.625 2.847l34.077-9.131c23.703 16.072 51.294 24.539 80.138 24.539 78.902 0 143.094-64.192 143.094-143.094s-64.192-143.095-143.095-143.095zm0 264.188c-25.927 0-50.653-8.081-71.507-23.368-1.906-1.397-4.189-2.128-6.504-2.128-.952 0-1.908.124-2.847.375l-20.647 5.532 5.532-20.647c.863-3.222.218-6.661-1.753-9.351-15.288-20.854-23.368-45.581-23.368-71.507 0-66.772 54.323-121.094 121.094-121.094s121.094 54.322 121.094 121.094-54.322 121.094-121.094 121.094z"/></g></g><g/><g/><g/><g/><g/><g/><g/><g/><g/><g/><g/><g/><g/><g/><g/></svg>