<svg id="Capa_1" enable-background="new 0 0 512 512" viewBox="0 0 512 512" xmlns="http://www.w3.org/2000/svg" fill="#052438"><g><g id="XMLID_365_"><g><path d="m409 468h-306c-6.075 0-11-4.925-11-11v-382c0-6.075 4.925-11 11-11h62v22h-51v360h284v-360h-51v-22h62c6.075 0 11 4.925 11 11v382c0 6.075-4.925 11-11 11z" fill="#0496FF"/></g></g><g><g><path d="m453 20h-95v-9c0-6.075-4.925-11-11-11h-182c-6.075 0-11 4.925-11 11v9h-95c-6.075 0-11 4.925-11 11v470c0 6.075 4.925 11 11 11h394c6.075 0 11-4.925 11-11v-470c0-6.075-4.925-11-11-11zm-277 2h160v42h-160zm28.437 64h103.125v22h-103.125zm237.563 404h-372v-448h84v33c0 6.075 4.925 11 11 11h17.437v33c0 6.075 4.925 11 11 11h125.125c6.075 0 11-4.925 11-11v-33h17.438c6.075 0 11-4.925 11-11v-33h84z"/><path d="m354.038 390.063h-196.076c-6.075 0-11 4.925-11 11s4.925 11 11 11h196.075c6.075 0 11-4.925 11-11s-4.924-11-10.999-11z"/><path d="m354.038 334.063h-107.344c-6.075 0-11 4.925-11 11s4.925 11 11 11h107.344c6.075 0 11-4.925 11-11s-4.925-11-11-11z"/><path d="m157.962 356.063h32.073c6.075 0 11-4.925 11-11s-4.925-11-11-11h-32.073c-6.075 0-11 4.925-11 11s4.925 11 11 11z"/></g><g fill="#0496FF"><path d="m279.778 278.063h-12.651v-59.013c0-6.075-4.925-11-11-11h-14.266c-6.075 0-11 4.925-11 11s4.925 11 11 11h3.266v48.013h-12.651c-6.075 0-11 4.925-11 11s4.925 11 11 11h47.302c6.075 0 11-4.925 11-11s-4.925-11-11-11z"/><circle cx="256.13" cy="174.94" r="11"/></g></g></g><g/><g/><g/><g/><g/><g/><g/><g/><g/><g/><g/><g/><g/><g/><g/></svg>