<svg id="Capa_1" enable-background="new 0 0 512 512" viewBox="0 0 512 512" xmlns="http://www.w3.org/2000/svg" fill="#052438"><g><g><g fill="#0496FF"><path d="m180.305 381.594h-12.651v-59.012c0-6.075-4.925-11-11-11h-14.266c-6.075 0-11 4.925-11 11s4.925 11 11 11h3.266v48.012h-12.65c-6.075 0-11 4.925-11 11s4.925 11 11 11h47.302c6.075 0 11-4.925 11-11s-4.926-11-11.001-11z"/><path d="m165.8 272.36c-4.015-6.426-14.279-6.433-18.29 0-5.449 7.994 1.82 18.879 11.29 16.89 7.527-1.312 11.382-10.637 7-16.89z"/><path d="m366.7 273.81c-.554-1.342-1.374-2.561-2.381-3.58-6.811-6.881-18.847-1.911-18.779 7.78.034 10.815 14.114 15.084 20.149 6.11 2.011-3.002 2.417-6.974 1.011-10.31z"/><path d="m393.022 194.792c-1.139-18.342-15.829-33.033-34.171-34.172-10.203-.634-19.916 2.862-27.344 9.843-7.324 6.883-11.524 16.593-11.524 26.641 0 6.075 4.925 11 11 11s11-4.925 11-11c0-4.06 1.631-7.828 4.591-10.61 2.957-2.779 6.83-4.169 10.914-3.916 7.168.445 13.132 6.409 13.577 13.577.395 6.359-3.308 12.189-9.211 14.507-9.911 3.891-16.315 13.184-16.315 23.676 0 6.075 4.925 11 11 11s11-4.925 11-11c0-1.381.924-2.636 2.354-3.198 14.824-5.819 24.119-20.427 23.129-36.348z"/><path d="m134.075 103.046c2.917 0 5.715-1.159 7.778-3.222l33.554-33.554c4.296-4.296 4.296-11.261 0-15.557-4.297-4.296-11.26-4.296-15.557 0l-25.775 25.777-10.42-10.42c-4.296-4.296-11.261-4.296-15.557 0s-4.296 11.261 0 15.556l18.198 18.199c2.063 2.062 4.862 3.221 7.779 3.221z"/></g><g><path d="m467.323 299.223c14.856-22.04 22.682-47.664 22.682-74.442 0-73.593-59.872-133.466-133.466-133.466-65.435 0-120.018 47.334-131.317 109.558h-151.763c-28.377 0-51.464 23.087-51.464 51.465v166.388c0 28.378 23.087 51.465 51.464 51.465h52.705l20.963 36.31c1.965 3.403 5.597 5.5 9.526 5.5s7.562-2.097 9.526-5.5l20.963-36.31h52.705c28.378 0 51.465-23.087 51.465-51.465v-77.541c19.299 10.857 41.55 17.062 65.227 17.062 26.779 0 52.403-7.826 74.443-22.682l31.239 8.37c3.796 1.019 7.847-.067 10.625-2.847s3.864-6.83 2.847-10.625zm-198.011 119.503c0 16.247-13.218 29.465-29.465 29.465h-59.056c-3.93 0-7.562 2.097-9.526 5.5l-14.612 25.309-14.612-25.31c-1.965-3.403-5.597-5.5-9.526-5.5h-59.056c-16.246 0-29.464-13.218-29.464-29.465v-166.387c0-16.247 13.218-29.465 29.464-29.465h149.638c-.009.636-.024 1.27-.024 1.908 0 40.279 17.936 76.447 46.239 100.939zm177.183-128.124c-1.972 2.69-2.616 6.129-1.753 9.351l4.77 17.801-17.801-4.77c-3.222-.863-6.661-.218-9.351 1.753-19.195 14.071-41.956 21.509-65.821 21.509-61.463 0-111.466-50.003-111.466-111.466s50.003-111.466 111.466-111.466 111.466 50.003 111.466 111.466c0 23.866-7.438 46.627-21.51 65.822z"/><path d="m81.613 150.475h12.125v17.398c0 4.449 2.68 8.46 6.79 10.163 1.361.564 2.79.838 4.208.838 2.862 0 5.676-1.118 7.78-3.222l25.177-25.177h64.199c16.284 0 29.533-13.249 29.533-29.533v-91.409c.001-16.284-13.248-29.533-29.532-29.533h-120.28c-16.284 0-29.533 13.249-29.533 29.533v91.408c0 16.285 13.249 29.534 29.533 29.534zm-7.533-120.942c0-4.154 3.38-7.533 7.533-7.533h120.279c4.153 0 7.533 3.379 7.533 7.533v91.408c0 4.154-3.38 7.533-7.533 7.533h-68.756c-2.917 0-5.715 1.159-7.778 3.222l-9.62 9.621v-1.842c0-6.075-4.925-11-11-11h-23.125c-4.153 0-7.533-3.379-7.533-7.533z"/></g></g></g><g/><g/><g/><g/><g/><g/><g/><g/><g/><g/><g/><g/><g/><g/><g/></svg>