<svg id="Capa_1" enable-background="new 0 0 512 512" viewBox="0 0 512 512" xmlns="http://www.w3.org/2000/svg" fill="#052438"><g><g><path d="m425.038 112.375c-7.052-63.62-60.849-112.375-125.747-112.375-37.441 0-72.054 16.036-96.146 44.267-7.352-2.024-14.942-3.047-22.658-3.047-21.272 0-41.649 7.876-57.376 22.176-13.519 12.292-22.653 28.438-26.235 46.125-40.21 9.101-69.59 45.204-69.59 87.191 0 49.293 40.104 89.397 89.397 89.397h50.446c6.075 0 11-4.925 11-11s-4.925-11-11-11h-50.446c-37.163 0-67.397-30.234-67.397-67.397 0-29.41 19.114-54.982 46.126-63.963.509 7.059 1.876 14 4.103 20.702 1.534 4.614 5.828 7.534 10.438 7.534 1.149 0 2.319-.182 3.47-.564 5.765-1.916 8.886-8.143 6.97-13.908-13.989-39.824 17.62-84.225 60.095-83.294 20.108-.108 39.566 9.842 51.293 26.19 2.152 2.967 5.509 4.543 8.915 4.543 2.238 0 4.498-.682 6.448-2.096 4.918-3.566 6.014-10.444 2.448-15.363-6.786-9.358-15.299-17.159-25.052-23.04 19.581-20.128 46.166-31.453 74.751-31.453 51.123 0 93.9 36.62 102.816 85.581-2.256-.17-4.52-.266-6.789-.266-8.708 0-17.32 1.252-25.597 3.721-5.821 1.737-9.133 7.864-7.396 13.686 1.72 5.873 8.023 9.133 13.686 7.396 11.547-3.466 24.267-3.723 35.957-.73 29.879 7.589 50.747 34.451 50.747 65.324 0 37.163-30.234 67.397-67.397 67.397h-30.245c-6.075 0-11 4.925-11 11s4.925 11 11 11h30.245c49.293 0 89.397-40.104 89.397-89.397 0-38.258-24.168-71.874-59.677-84.337z"/><path d="m292.674 271.096h-16.142v-59.948c0-6.075-4.925-11-11-11h-27.141c-6.075 0-11 4.925-11 11s4.925 11 11 11h16.141v48.948h-16.141c-6.075 0-11 4.925-11 11s4.925 11 11 11h54.283c6.075 0 11-4.925 11-11s-4.924-11-11-11z"/><path d="m276.533 176.458v-9.49c0-6.075-4.925-11-11-11s-11 4.925-11 11v9.49c0 6.075 4.925 11 11 11s11-4.924 11-11z"/></g><g fill="#0496FF"><path d="m384.133 227.547c0-65.396-53.204-118.6-118.6-118.6s-118.6 53.204-118.6 118.6 53.204 118.6 118.6 118.6 118.6-53.204 118.6-118.6zm-118.6 96.6c-53.266 0-96.6-43.334-96.6-96.6s43.334-96.6 96.6-96.6 96.6 43.334 96.6 96.6-43.335 96.6-96.6 96.6z"/><path d="m192.749 399.159h-28.345v-70.879c0-6.075-4.925-11-11-11h-51.033c-6.075 0-11 4.925-11 11v70.878h-28.345c-4.12 0-7.895 2.302-9.78 5.966-1.886 3.663-1.566 8.073.828 11.426l64.862 90.841c2.064 2.892 5.399 4.608 8.952 4.608s6.888-1.716 8.952-4.608l64.861-90.841c2.394-3.353 2.714-7.763.828-11.426-1.885-3.663-5.66-5.965-9.78-5.965zm-64.861 82.911-43.492-60.911h17.975c6.075 0 11-4.925 11-11v-70.879h29.033v70.878c0 6.075 4.925 11 11 11h17.975z"/><path d="m457.926 412.73-64.862-90.842c-2.064-2.892-5.399-4.608-8.952-4.608s-6.888 1.716-8.952 4.608l-64.861 90.842c-2.394 3.353-2.714 7.763-.828 11.426 1.886 3.664 5.66 5.966 9.78 5.966h28.345v70.878c0 6.075 4.925 11 11 11h51.033c6.075 0 11-4.925 11-11v-70.878h28.345c4.12 0 7.895-2.302 9.78-5.966 1.886-3.663 1.566-8.073-.828-11.426zm-48.297-4.608c-6.075 0-11 4.925-11 11v70.878h-29.033v-70.878c0-6.075-4.925-11-11-11h-17.975l43.491-60.912 43.492 60.912z"/></g></g><g/><g/><g/><g/><g/><g/><g/><g/><g/><g/><g/><g/><g/><g/><g/></svg>