<svg id="Capa_1" enable-background="new 0 0 512 512" viewBox="0 0 512 512" xmlns="http://www.w3.org/2000/svg" fill="#052438"><g><path d="m476 45h-44v-12.087c0-18.148-15.028-32.913-33.5-32.913s-33.5 14.765-33.5 32.913v12.087h-28v-12.087c0-18.148-15.028-32.913-33.5-32.913s-33.5 14.765-33.5 32.913v12.087h-28v-12.087c0-18.148-15.028-32.913-33.5-32.913s-33.5 14.765-33.5 32.913v12.087h-28v-12.087c0-18.148-15.028-32.913-33.5-32.913s-33.5 14.765-33.5 32.913v12.087h-44c-6.075 0-11 4.925-11 11v445c0 6.075 4.925 11 11 11h440c6.075 0 11-4.925 11-11v-445c0-6.075-4.925-11-11-11zm-89-12.087c0-6.017 5.159-10.913 11.5-10.913s11.5 4.896 11.5 10.913v12.087h-23zm-95 0c0-6.017 5.159-10.913 11.5-10.913s11.5 4.896 11.5 10.913v12.087h-23zm-95 0c0-6.017 5.159-10.913 11.5-10.913s11.5 4.896 11.5 10.913v12.087h-23zm-95 0c0-6.017 5.159-10.913 11.5-10.913s11.5 4.896 11.5 10.913v12.087h-23zm-22 34.087v12.086c0 18.149 15.029 32.914 33.5 32.914 6.075 0 11-4.925 11-11s-4.925-11-11-11c-6.341 0-11.5-4.896-11.5-10.913v-12.087h73v12.086c0 18.149 15.029 32.914 33.5 32.914 6.075 0 11-4.925 11-11s-4.925-11-11-11c-6.341 0-11.5-4.896-11.5-10.913v-12.087h73v12.086c0 18.149 15.029 32.914 33.5 32.914 6.075 0 11-4.925 11-11s-4.925-11-11-11c-6.341 0-11.5-4.896-11.5-10.913v-12.087h73v12.086c0 18.149 15.029 32.914 33.5 32.914 6.075 0 11-4.925 11-11s-4.925-11-11-11c-6.341 0-11.5-4.896-11.5-10.913v-12.087h78v68h-418v-68zm-33 423v-333h418v333z"/><path d="m294.5 373.039v-68.542c0-9.19-3.846-17.921-10.552-23.954-2.421-2.178-5.11-3.936-7.99-5.25 8.282-7.068 13.542-17.577 13.542-29.293 0-21.229-17.271-38.5-38.5-38.5s-38.5 17.271-38.5 38.5c0 12.139 5.647 22.983 14.452 30.045l-4.403.466c-18.368 1.946-31.729 18.474-29.784 36.843 1.502 14.178 11.701 25.372 24.735 28.848v30.835c-15.619 2.837-27.5 16.539-27.5 32.963 0 18.472 15.028 33.5 33.5 33.5h65c18.472 0 33.5-15.028 33.5-33.5 0-16.424-11.881-30.126-27.5-32.961zm-43.5-143.539c9.098 0 16.5 7.402 16.5 16.5s-7.402 16.5-16.5 16.5-16.5-7.402-16.5-16.5 7.403-16.5 16.5-16.5zm37.5 188h-65c-6.341 0-11.5-5.159-11.5-11.5s5.159-11.5 11.5-11.5h5c6.075 0 11-4.925 11-11v-51.3c0-3.119-1.324-6.091-3.643-8.178-2.318-2.085-5.402-3.089-8.517-2.761-6.338.68-12.03-3.916-12.699-10.224-.667-6.306 3.92-11.98 10.225-12.648l36.537-3.87c3.846-.409 6.377 1.069 7.831 2.377 2.105 1.895 3.266 4.594 3.266 7.599v79.005c0 6.075 4.925 11 11 11h5c6.341 0 11.5 5.159 11.5 11.5s-5.159 11.5-11.5 11.5z" fill="#0496FF"/></g><g/><g/><g/><g/><g/><g/><g/><g/><g/><g/><g/><g/><g/><g/><g/></svg>