<svg id="Layer_1" enable-background="new 0 0 511.997 511.997" viewBox="0 0 511.997 511.997" xmlns="http://www.w3.org/2000/svg" fill="#052438"><g><path d="m435.74 228.873v240.383c0 10.02-8.099 18.171-18.055 18.171h-75.385v-180.57c0-6.075-4.925-11-11-11h-150.594c-6.075 0-11 4.925-11 11v180.57h-75.385c-9.956 0-18.055-8.151-18.055-18.171v-240.383c0-6.075-22-6.075-22 0v240.383c0 22.15 17.968 40.171 40.055 40.171h323.364c22.086 0 40.055-18.021 40.055-40.171v-240.383c0-6.075-22-6.075-22 0zm-244.034 88.984h128.595v169.57h-128.595z"/><g><path d="m464.784 239.302c-9.462 0-18.613-2.823-26.464-8.164l-182.306-124.015-182.305 124.015c-7.851 5.34-17.003 8.163-26.468 8.163-15.699 0-30.321-7.778-39.114-20.808-7.062-10.464-9.643-23.062-7.266-35.471 2.377-12.416 9.431-23.16 19.861-30.256l208.799-142.036c7.849-5.339 17.01-8.161 26.493-8.161 9.482 0 18.644 2.822 26.493 8.16l75.818 51.577c7.688-15.918 24.01-26.868 42.529-26.868 26.027 0 47.202 21.239 47.202 47.346v40.562l43.25 29.42c21.522 14.641 27.172 44.125 12.596 65.726-8.793 13.029-23.415 20.808-39.112 20.809h.001c-.002.001-.005.001-.007.001zm-208.77-156.483c2.16 0 4.32.635 6.187 1.905l188.492 128.224c4.188 2.849 9.062 4.354 14.094 4.354h.001c8.376 0 16.181-4.155 20.877-11.115 7.816-11.583 4.795-27.387-6.734-35.229l-48.063-32.695c-3.011-2.048-4.813-5.454-4.813-9.095v-46.383c0-13.976-11.306-25.346-25.202-25.346-13.09 0-24.128 10.271-25.127 23.385-.298 3.914-2.66 7.372-6.197 9.075s-7.713 1.392-10.958-.816l-88.438-60.162c-4.185-2.846-9.067-4.351-14.119-4.351s-9.935 1.504-14.119 4.351l-208.798 142.036c-5.58 3.795-9.354 9.55-10.628 16.203-1.275 6.658.108 13.416 3.895 19.026 4.697 6.959 12.501 11.114 20.878 11.114 5.033 0 9.907-1.505 14.094-4.354l188.491-128.222c1.867-1.27 4.027-1.905 6.187-1.905z" fill="#0496FF"/></g></g><g/><g/><g/><g/><g/><g/><g/><g/><g/><g/><g/><g/><g/><g/><g/></svg>