<svg id="Capa_1" enable-background="new 0 0 512 512" viewBox="0 0 512 512" xmlns="http://www.w3.org/2000/svg" fill="#052438"><g><g><path d="m256.001 512c-.94 0-1.881-.121-2.797-.362-126.12-33.166-214.204-147.407-214.204-277.814v-154.145c0-6.075 4.925-11 11-11 69.721 0 138.74-23.038 199.595-66.622 3.829-2.743 8.98-2.743 12.81 0 60.855 43.585 129.874 66.622 199.595 66.622 6.075 0 11 4.925 11 11v154.145c0 130.407-88.083 244.648-214.202 277.814-.917.242-1.857.362-2.797.362zm-195.001-421.499v143.323c0 119.449 80.042 224.214 195 255.786 114.958-31.572 195-136.336 195-255.786v-143.323c-68.127-2.211-135.177-24.914-195-66.062-59.823 41.149-126.872 63.851-195 66.062z"/></g><g><g><g><path d="m256.176 323.997c-37.494 0-67.997-30.503-67.997-67.997s30.503-67.997 67.997-67.997c13.625 0 26.774 4.018 38.025 11.62 5.034 3.401 6.357 10.239 2.957 15.273s-10.238 6.357-15.273 2.957c-7.6-5.135-16.49-7.849-25.709-7.849-25.363 0-45.997 20.634-45.997 45.997s20.634 45.997 45.997 45.997c9.546 0 17.609-2.871 23.965-8.532 1.237-1.101 2.419-2.322 3.515-3.628 3.905-4.654 10.843-5.263 15.497-1.357 4.654 3.905 5.262 10.843 1.357 15.497-1.778 2.12-3.708 4.11-5.737 5.917-10.358 9.225-23.705 14.102-38.597 14.102z" fill="#0496FF"/></g></g><g><path d="m256 388.216c-72.904 0-132.215-59.312-132.215-132.215s59.311-132.216 132.215-132.216 132.215 59.311 132.215 132.215-59.311 132.216-132.215 132.216zm0-242.431c-60.773 0-110.215 49.442-110.215 110.215s49.442 110.216 110.215 110.216 110.215-49.443 110.215-110.216-49.442-110.215-110.215-110.215z"/></g></g></g><g/><g/><g/><g/><g/><g/><g/><g/><g/><g/><g/><g/><g/><g/><g/></svg>