<svg id="Capa_1" enable-background="new 0 0 512 512" viewBox="0 0 512 512" xmlns="http://www.w3.org/2000/svg" fill="#E6ECF2"><g><g><path d="m338.812 0h-296.716c-23.212 0-42.096 18.884-42.096 42.096v307.942c0 23.211 18.884 42.096 42.096 42.096h169.697v-22h-131.742v-348.134h247.761v247.433h22v-258.433c0-6.075-4.925-11-11-11zm-280.761 370.134h-15.955c-11.081 0-20.096-9.015-20.096-20.096v-307.942c0-11.081 9.015-20.096 20.096-20.096h15.955z"/><path d="m268.984 370.134h58.274v22h-58.274z"/><path d="m260.2 87.223c-15.427-15.193-35.84-23.391-57.525-23.045-42.518.651-77.166 34.421-78.88 76.88-.916 22.685 7.848 44.785 24.044 60.633 4.993 4.887 7.743 11.239 7.743 17.887 0 7.108 3.435 13.43 8.732 17.391v20.985c0 16.596 13.502 30.098 30.098 30.098h19.031c16.596 0 30.098-13.502 30.098-30.098v-20.471c5.273-3.738 8.732-9.876 8.732-16.818 0-7.239 2.968-14.193 8.358-19.582 15.152-15.149 23.497-35.291 23.497-56.716 0-21.654-8.498-41.948-23.928-57.144zm-38.658 170.731c0 4.465-3.633 8.098-8.098 8.098h-19.031c-4.465 0-8.098-3.633-8.098-8.098v-16.671h35.227zm23.535-72.429c-9.21 9.208-14.428 21.148-14.784 33.758h-52.711c-.079-12.505-5.17-24.327-14.355-33.316-11.754-11.501-18.114-27.547-17.449-44.021.597-14.802 6.843-28.718 17.588-39.186 10.744-10.468 24.824-16.357 39.646-16.584 15.72-.214 30.556 5.698 41.751 16.724 11.198 11.028 17.365 25.755 17.365 41.469 0 15.547-6.055 30.163-17.051 41.156z"/></g><path d="m511.032 400.614-39.389-87.563c-1.776-3.948-5.703-6.487-10.032-6.487h-75.87v-16.756c0-19.156-15.585-34.741-34.741-34.741s-34.741 15.585-34.741 34.741v16.756h-75.87c-4.329 0-8.256 2.539-10.032 6.487l-39.389 87.563c-.638 1.419-.968 2.957-.968 4.513v12.806c0 27.784 22.604 50.389 50.389 50.389s50.388-22.604 50.388-50.389v-12.806c0-1.556-.33-3.094-.968-4.513l-32.41-72.051h58.86v161.437h-31.489c-6.075 0-11 4.925-11 11s4.925 11 11 11h132.46c6.075 0 11-4.925 11-11s-4.925-11-11-11h-31.489v-161.437h58.86l-32.41 72.051c-.638 1.419-.968 2.957-.968 4.513v12.806c0 27.784 22.604 50.389 50.388 50.389s50.389-22.605 50.389-50.389v-12.806c0-1.556-.33-3.094-.968-4.513zm-270.643-56.237 22.379 49.75h-44.758zm0 101.944c-15.653 0-28.389-12.735-28.389-28.389v-1.806h56.777v1.806c0 15.654-12.735 28.389-28.388 28.389zm97.87-156.514c0-7.025 5.716-12.741 12.741-12.741s12.741 5.716 12.741 12.741v16.756h-25.482zm25.482 200.193h-25.482v-161.437h25.482zm120.249-95.874h-44.757l22.379-49.75zm-22.379 52.195c-15.653 0-28.388-12.735-28.388-28.389v-1.806h56.777v1.806c0 15.654-12.735 28.389-28.389 28.389z" fill="#0496FF"/></g><g/><g/><g/><g/><g/><g/><g/><g/><g/><g/><g/><g/><g/><g/><g/></svg>