<svg id="Capa_1" enable-background="new 0 0 512 512" viewBox="0 0 512 512" xmlns="http://www.w3.org/2000/svg" fill="#052438"><g><g fill="#0496FF"><path d="m307.351 199.68h22v76h-22z" transform="matrix(.707 -.707 .707 .707 -74.822 294.725)"/><path d="m338.464 168.567h22v76h-22z" transform="matrix(.707 -.707 .707 .707 -43.71 307.61)"/><path d="m164.981 212.486c-4.297-4.296-11.26-4.296-15.557 0l-17.322 17.322 15.557 15.557 17.322-17.322c4.296-4.296 4.296-11.261 0-15.557z"/><path d="m180.538 243.598-17.322 17.322 15.557 15.557 17.322-17.322c4.296-4.296 4.296-11.261 0-15.557-4.297-4.296-11.26-4.296-15.557 0z"/><path d="m327.989 391.05-17.322 17.323 15.557 15.556 17.322-17.323c4.296-4.295 4.296-11.26 0-15.556-4.297-4.297-11.262-4.296-15.557 0z"/><path d="m312.433 359.937c-4.297-4.296-11.26-4.296-15.557 0l-17.322 17.322 15.557 15.557 17.322-17.322c4.296-4.296 4.296-11.261 0-15.557z"/><path d="m170.81 108.475c0-6.075-4.925-11-11-11h-51.304c-6.075 0-11 4.925-11 11s4.925 11 11 11h51.304c6.075 0 11-4.925 11-11z"/><path d="m242.307 53.475h-133.801c-6.075 0-11 4.925-11 11s4.925 11 11 11h133.801c6.075 0 11-4.925 11-11s-4.925-11-11-11z"/></g><g><path d="m325.33 299.998 80.255-80.255c11.944-11.945 11.944-31.38 0-43.325l-25.972-25.972c-11.943-11.943-31.378-11.943-43.325 0l-80.255 80.255-86.007-86.006c-4.297-4.296-11.26-4.296-15.557 0l-53.74 53.74c-2.062 2.063-3.222 4.861-3.222 7.778s1.159 5.715 3.222 7.778l86.007 86.006-68.897 68.897c-1.431 1.431-2.439 3.229-2.914 5.196l-17.109 70.85c-.9 3.725.204 7.65 2.914 10.36 2.088 2.087 4.896 3.222 7.778 3.222.86 0 1.727-.101 2.582-.307l70.85-17.109c1.967-.475 3.766-1.484 5.196-2.915l68.897-68.897 86.006 86.007c2.148 2.148 4.963 3.222 7.778 3.222 2.814 0 5.631-1.074 7.778-3.222l53.74-53.74c4.296-4.296 4.296-11.261 0-15.557zm26.514-133.995c3.368-3.366 8.847-3.368 12.213 0l25.972 25.972c3.367 3.367 3.367 8.845 0 12.212l-210.673 210.672-38.184-38.185zm-227.78 40.21 38.184-38.184 78.228 78.228-38.184 38.184zm7.641 192.108 26.003 26.004-34.282 8.279zm218.112 33.646-78.228-78.229 38.184-38.184 78.228 78.229z"/><path d="m464.81 91.222-88-88c-2.064-2.063-4.862-3.222-7.779-3.222h-314.062c-6.075 0-11 4.925-11 11v490c0 6.075 4.925 11 11 11h402.062c6.075 0 11-4.925 11-11v-402c0-2.917-1.159-5.715-3.221-7.778zm-84.779-53.665 50.444 50.443h-50.444zm-314.062 452.443v-468h292.062v77c0 6.075 4.925 11 11 11h77v380z"/></g></g><g/><g/><g/><g/><g/><g/><g/><g/><g/><g/><g/><g/><g/><g/><g/></svg>