<svg id="Layer_1" enable-background="new 0 0 512 512" viewBox="0 0 512 512" xmlns="http://www.w3.org/2000/svg" fill="#E6ECF2"><g><g><path d="m512 349.863c0-52.846-42.993-95.839-95.839-95.839h-320.322c-52.846 0-95.839 42.993-95.839 95.839v45.767c0 52.846 43.013 95.839 95.884 95.839h320.232c52.871 0 95.884-42.993 95.884-95.839zm-416.161-73.839h320.322c40.715 0 73.839 33.124 73.839 73.839s-33.124 73.839-73.839 73.839h-320.322c-40.715 0-73.839-33.124-73.839-73.839s33.124-73.839 73.839-73.839zm320.277 193.445h-320.232c-34.603 0-63.725-23.896-71.714-56.043 17.569 19.788 43.189 32.276 71.669 32.276h320.322c28.481 0 54.1-12.488 71.669-32.276-7.989 32.147-37.111 56.043-71.714 56.043z"/><path d="m66.613 386.919c.797.137 1.217.208 7.208.208 2.872 0 7.025-.017 13.114-.05 6.075-.034 10.972-4.986 10.938-11.062-.034-6.054-4.952-10.938-10.999-10.938h-.063c-2.436.014-4.97.025-7.338.033v-41.506c0-6.075-4.925-11-11-11s-11 4.925-11 11v52.473c0 5.358 3.86 9.936 9.14 10.842z"/><path d="m214.536 387.122c19.83 0 33.68-15.321 33.68-37.258 0-6.075-4.925-11-11-11h-5.774c2.716-.559 5.226-2.139 6.9-4.619 3.4-5.035 2.074-11.872-2.961-15.271-6.169-4.166-13.377-6.368-20.844-6.368-20.552 0-37.273 16.714-37.273 37.259s16.719 37.257 37.272 37.257zm0-52.518c3.063 0 6.014.899 8.534 2.601 1.227.829 2.56 1.376 3.924 1.658h-5.497c-6.075 0-11 4.925-11 11s4.925 11 11 11h1.774c-1.725 2.431-4.448 4.258-8.735 4.258-8.421 0-15.273-6.845-15.273-15.258s6.851-15.259 15.273-15.259z"/><path d="m350.335 382.624c4.662 2.977 9.907 4.49 15.59 4.498h.047c4.855 0 9.429-1.063 13.594-3.16 10.29-5.18 15.957-13.795 15.957-24.258v-36.1c0-6.075-4.925-11-11-11s-11 4.925-11 11v36.1c0 1.063 0 2.67-3.848 4.607-1.083.545-2.295.811-3.704.811h-.016c-1.471-.002-2.672-.332-3.78-1.04-3.163-2.019-3.163-3.146-3.163-4.339v-36.138c0-6.075-4.925-11-11-11s-11 4.925-11 11v36.138c.001 9.538 4.484 17.237 13.323 22.881z"/><path d="m414.508 334.604h3.451v41.517c0 6.075 4.925 11 11 11s11-4.925 11-11v-41.517h3.568c6.075 0 11-4.925 11-11s-4.925-11-11-11h-29.019c-6.075 0-11 4.925-11 11s4.925 11 11 11z"/><path d="m133.93 387.122c20.552 0 37.272-16.714 37.272-37.258s-16.72-37.259-37.272-37.259-37.272 16.714-37.272 37.259 16.72 37.258 37.272 37.258zm0-52.518c8.421 0 15.272 6.845 15.272 15.259s-6.851 15.258-15.272 15.258-15.272-6.845-15.272-15.258 6.851-15.259 15.272-15.259z"/><path d="m291.463 387.122c20.552 0 37.273-16.714 37.273-37.258s-16.721-37.259-37.273-37.259-37.272 16.714-37.272 37.259 16.72 37.258 37.272 37.258zm0-52.518c8.421 0 15.273 6.845 15.273 15.259s-6.852 15.258-15.273 15.258-15.272-6.845-15.272-15.258 6.851-15.259 15.272-15.259z"/></g><g fill="#0496FF"><path d="m263.432 154.703h-15.046c-1.994 0-3.616-1.619-3.616-3.608v-48.162c0-1.99 1.622-3.608 3.616-3.608h15.046c6.075 0 11-4.925 11-11s-4.925-11-11-11h-15.046c-14.125 0-25.616 11.488-25.616 25.608v48.162c0 14.121 11.491 25.608 25.616 25.608h15.046c6.075 0 11-4.925 11-11s-4.925-11-11-11z"/><path d="m302.513 100.258c-4.297-4.295-11.262-4.293-15.556.004s-4.293 11.262.004 15.556l.195.195h-17.78c-6.075 0-11 4.925-11 11s4.925 11 11 11h17.78l-.195.195c-4.297 4.294-4.299 11.259-.004 15.556 2.148 2.149 4.964 3.224 7.78 3.224 2.814 0 5.628-1.073 7.776-3.22l18.985-18.975c2.064-2.063 3.224-4.862 3.224-7.78s-1.16-5.717-3.224-7.78z"/><path d="m265.191 20.531c-58.743 0-106.533 47.768-106.533 106.483s47.791 106.483 106.533 106.483 106.534-47.768 106.534-106.483-47.791-106.483-106.534-106.483zm0 190.966c-46.612 0-84.533-37.899-84.533-84.483s37.921-84.483 84.533-84.483 84.534 37.899 84.534 84.483-37.922 84.483-84.534 84.483z"/></g></g><g/><g/><g/><g/><g/><g/><g/><g/><g/><g/><g/><g/><g/><g/><g/></svg>