<svg id="Layer_1" enable-background="new 0 0 512 512" viewBox="0 0 512 512" xmlns="http://www.w3.org/2000/svg" fill="#052438"><g><path d="m395.484 380.619c-12.698-9.467-29.335-17.501-48.741-23.6 1.08-1.044 2.162-2.099 3.243-3.163 25.745-25.337 46.306-51.128 61.11-76.655 18.873-32.544 28.443-64.811 28.443-95.904.001-99.968-82.335-181.297-183.539-181.297s-183.54 81.329-183.54 181.296c0 31.093 9.57 63.359 28.443 95.904 14.805 25.527 35.365 51.318 61.11 76.655 1.082 1.065 2.163 2.119 3.243 3.163-19.391 6.094-36.017 14.12-48.712 23.578-18.418 13.722-28.153 30.129-28.153 47.447 0 24.008 18.547 45.87 52.225 61.559 31.004 14.444 71.982 22.398 115.384 22.398s84.38-7.954 115.384-22.397c33.678-15.688 52.225-37.55 52.225-61.559-.001-17.309-9.726-33.708-28.125-47.425zm-301.024-199.323c0-87.836 72.467-159.296 161.54-159.296s161.54 71.46 161.54 159.296c0 62.036-44.96 119.387-82.676 156.574-32.711 32.251-65.841 55.365-78.864 63.992-13.024-8.627-46.153-31.74-78.864-63.992-37.716-37.187-82.676-94.537-82.676-156.574zm267.634 288.365c-28.156 13.116-65.833 20.339-106.094 20.339s-77.938-7.223-106.094-20.339c-25.112-11.699-39.515-26.867-39.515-41.617 0-21.032 29.543-42.347 73.865-53.539 34.851 30.577 64.493 48.906 65.987 49.823 1.766 1.084 3.761 1.626 5.756 1.626s3.99-.542 5.756-1.626c1.494-.917 31.136-19.247 65.987-49.824 44.319 11.191 73.865 32.511 73.865 53.539.001 14.75-14.401 29.919-39.513 41.618z"/><g><path d="m256 280.738c-55.476 0-100.607-44.609-100.607-99.442s45.131-99.442 100.607-99.442 100.607 44.61 100.607 99.442-45.131 99.442-100.607 99.442zm0-176.884c-43.345 0-78.607 34.741-78.607 77.442s35.263 77.442 78.607 77.442 78.607-34.74 78.607-77.442-35.262-77.442-78.607-77.442z" fill="#0496FF"/></g></g><g/><g/><g/><g/><g/><g/><g/><g/><g/><g/><g/><g/><g/><g/><g/></svg>