<svg id="Capa_1" enable-background="new 0 0 512 512" viewBox="0 0 512 512" xmlns="http://www.w3.org/2000/svg" fill="#E6ECF2"><g><g><path d="m256.435 301.99c0-23.347-18.993-42.34-42.34-42.34s-42.34 18.994-42.34 42.34c0 19.542 13.311 36.026 31.34 40.882v81.399h22v-81.399c18.029-4.856 31.34-21.34 31.34-40.882zm-42.34 20.34c-11.216 0-20.34-9.125-20.34-20.34s9.124-20.34 20.34-20.34 20.34 9.125 20.34 20.34-9.124 20.34-20.34 20.34z" fill="#0496FF"/><g><g><path d="m214.095 90.312c-6.075 0-11-4.925-11-11v-24.624c0-6.075 4.925-11 11-11s11 4.925 11 11v24.625c0 6.075-4.925 10.999-11 10.999z" fill="#0496FF"/></g><g><path d="m87.898 148.641c-2.815 0-5.63-1.074-7.778-3.222l-17.412-17.412c-4.296-4.296-4.296-11.261 0-15.557 4.297-4.296 11.26-4.296 15.557 0l17.412 17.412c4.296 4.296 4.296 11.261 0 15.557-2.149 2.148-4.963 3.222-7.779 3.222z" fill="#0496FF"/></g><g><path d="m357.703 418.447c-2.815 0-5.63-1.074-7.778-3.222l-17.412-17.413c-4.296-4.295-4.296-11.26 0-15.556 4.296-4.295 11.261-4.296 15.557 0l17.412 17.413c4.296 4.295 4.296 11.26 0 15.556-2.148 2.148-4.964 3.222-7.779 3.222z" fill="#0496FF"/></g><g><path d="m35.627 274.838h-24.625c-6.075 0-11-4.925-11-11s4.925-11 11-11h24.625c6.075 0 11 4.925 11 11s-4.925 11-11 11z" fill="#0496FF"/></g><g><path d="m70.487 418.447c-2.815 0-5.63-1.074-7.778-3.222-4.296-4.296-4.296-11.261 0-15.556l17.412-17.413c4.295-4.296 11.26-4.296 15.557 0 4.296 4.296 4.296 11.261 0 15.556l-17.412 17.413c-2.148 2.148-4.963 3.222-7.779 3.222z" fill="#0496FF"/></g></g></g><g><path d="m331.346 278.988c-3.521 27.546-16.784 53.109-37.346 71.978-13.453 12.343-21.168 29.93-21.168 48.252 0 7.75-6.305 14.054-14.055 14.054h-89.365c-7.75 0-14.055-6.305-14.055-14.055 0-18.315-7.722-35.908-21.185-48.268-24.923-22.879-38.876-55.409-38.28-89.249.558-31.615 13.281-61.051 35.829-82.884 22.147-21.447 52.167-33.194 83.179-33.194 4.785.065 10.463.431 15.231 1.077l2.955-21.801c-5.646-.765-12.371-1.198-18.041-1.276-36.753 0-72.348 13.939-98.629 39.388-26.76 25.913-41.86 60.823-42.521 98.301-.707 40.13 15.841 78.708 45.399 105.843 8.937 8.204 14.062 19.89 14.062 32.061 0 12.593 6.495 23.692 16.306 30.142v42.175c0 22.312 18.153 40.465 40.466 40.465h47.932c22.312 0 40.465-18.153 40.465-40.465v-42.172c9.812-6.45 16.307-17.549 16.307-30.143 0-12.175 5.118-23.854 14.042-32.042 24.385-22.377 40.115-52.706 44.294-85.398zm-74.821 192.547c0 10.182-8.283 18.465-18.465 18.465h-47.932c-10.182 0-18.466-8.284-18.466-18.465v-36.263h84.862v36.263z"/><path d="m366.297 65.396c-17.752 0-34.567 5.692-48.63 16.461-.159.123-.314.249-.467.378-19.674 15.297-30.945 38.299-30.945 63.202 0 44.135 35.906 80.042 80.042 80.042 21.369 0 41.434-8.309 56.55-23.406.109-.102.218-.207.323-.314 14.94-15.086 23.169-35.088 23.169-56.322 0-44.134-35.906-80.041-80.042-80.041zm41.506 120.616c-.094.088-.186.178-.276.269-10.987 11.091-25.63 17.199-41.229 17.199-32.005 0-58.042-26.038-58.042-58.042 0-18.198 8.307-35 22.791-46.097.136-.104.27-.212.4-.322 10.107-7.605 22.146-11.623 34.851-11.623 32.005 0 58.042 26.038 58.042 58.042-.001 15.272-5.87 29.666-16.537 40.574z"/></g><g><g><path d="m390.252 291.402c-.002 0-.003 0-.005 0l-48.012-.02c-5.408-.002-10.013-3.937-10.859-9.279l-2.532-15.982c-7.353-2.287-14.472-5.245-21.283-8.841l-13.114 9.511c-4.376 3.174-10.415 2.698-14.239-1.129l-33.938-33.961c-3.823-3.826-4.298-9.864-1.118-14.241l9.544-13.138c-3.577-6.803-6.518-13.912-8.791-21.25l-16.038-2.553c-5.342-.851-9.272-5.458-9.271-10.868l.02-48.012c.002-5.409 3.937-10.014 9.278-10.86l16.039-2.542c2.278-7.338 5.225-14.443 8.807-21.244l-9.532-13.143c-3.176-4.378-2.697-10.416 1.129-14.239l33.961-33.938c3.826-3.824 9.866-4.298 14.24-1.119l13.107 9.521c6.813-3.591 13.936-6.543 21.29-8.826l2.545-15.981c.85-5.338 5.456-9.268 10.863-9.268h.005l48.011.02c5.408.002 10.013 3.936 10.859 9.278l2.524 15.932c7.379 2.284 14.521 5.243 21.356 8.845l13.049-9.464c4.375-3.174 10.415-2.698 14.239 1.129l33.938 33.961c3.823 3.826 4.298 9.864 1.118 14.241l-9.454 13.013c3.611 6.849 6.576 14.007 8.863 21.401l15.876 2.527c5.342.851 9.272 5.458 9.271 10.868l-.02 48.011c-.002 5.409-3.937 10.014-9.278 10.86l-15.877 2.516c-2.294 7.394-5.264 14.549-8.879 21.394l9.442 13.02c3.176 4.378 2.697 10.416-1.129 14.239l-33.961 33.938c-3.827 3.825-9.865 4.296-14.241 1.119l-13.043-9.476c-6.838 3.597-13.983 6.55-21.361 8.828l-2.536 15.933c-.85 5.339-5.456 9.269-10.863 9.269zm-38.617-22.016 29.23.012 2.171-13.638c.696-4.371 3.943-7.899 8.242-8.954 10.153-2.491 19.845-6.496 28.804-11.903 3.787-2.285 8.571-2.08 12.148.519l11.158 8.106 20.676-20.662-8.078-11.139c-2.599-3.583-2.797-8.374-.504-12.159 5.429-8.958 9.453-18.657 11.964-28.827 1.061-4.294 4.59-7.536 8.958-8.228l13.578-2.152.012-29.229-13.577-2.162c-4.368-.696-7.896-3.94-8.952-8.236-2.501-10.167-6.519-19.868-11.942-28.834-2.291-3.787-2.089-8.578.513-12.159l8.089-11.134-20.662-20.675-11.163 8.097c-3.578 2.597-8.365 2.796-12.149.509-8.953-5.413-18.642-9.425-28.796-11.925-4.297-1.058-7.542-4.588-8.234-8.959l-2.161-13.638-29.229-.012-2.178 13.676c-.695 4.365-3.936 7.89-8.227 8.95-10.133 2.502-19.801 6.51-28.737 11.914-3.788 2.291-8.577 2.087-12.156-.514l-11.227-8.155-20.676 20.662 8.163 11.255c2.596 3.579 2.797 8.364.511 12.147-5.394 8.926-9.396 18.581-11.896 28.698-1.061 4.293-4.59 7.533-8.957 8.225l-13.738 2.177-.012 29.23 13.737 2.187c4.367.695 7.894 3.938 8.951 8.232 2.492 10.119 6.487 19.776 11.875 28.706 2.283 3.786 2.079 8.571-.52 12.148l-8.174 11.251 20.662 20.676 11.232-8.146c3.581-2.599 8.371-2.797 12.157-.504 8.932 5.41 18.597 9.425 28.727 11.935 4.29 1.062 7.528 4.59 8.22 8.956z" fill="#0496FF"/></g><g><path d="m357.544 170.811c-2.918 0-5.716-1.159-7.778-3.222l-15.505-15.505c-4.296-4.295-4.296-11.26 0-15.556s11.261-4.295 15.557 0l7.727 7.727 20.968-20.968c4.297-4.296 11.26-4.296 15.557 0 4.296 4.296 4.296 11.261 0 15.557l-28.746 28.746c-2.064 2.062-4.863 3.221-7.78 3.221z" fill="#0496FF"/></g></g></g><g/><g/><g/><g/><g/><g/><g/><g/><g/><g/><g/><g/><g/><g/><g/></svg>