<svg id="Layer_1" enable-background="new 0 0 512 512" viewBox="0 0 512 512" xmlns="http://www.w3.org/2000/svg" fill="#052438"><g><g><path d="m400.622 263.71c-25.406 0-44.564 13.279-44.564 30.888s19.159 30.888 44.564 30.888 44.564-13.279 44.564-30.888-19.159-30.888-44.564-30.888zm0 39.775c-14.806 0-22.564-6.604-22.564-8.888s7.758-8.888 22.564-8.888 22.564 6.604 22.564 8.888-7.758 8.888-22.564 8.888z"/><path d="m111.378 263.71c-25.406 0-44.564 13.279-44.564 30.888s19.159 30.888 44.564 30.888 44.564-13.279 44.564-30.888-19.158-30.888-44.564-30.888zm0 39.775c-14.806 0-22.564-6.604-22.564-8.888s7.758-8.888 22.564-8.888 22.564 6.604 22.564 8.888-7.757 8.888-22.564 8.888z"/><path d="m436.828 74.985c-48.3-48.355-112.519-74.985-180.828-74.985s-132.528 26.63-180.828 74.985c-48.297 48.351-74.896 112.638-74.896 181.015s26.598 132.664 74.896 181.015c48.3 48.355 112.519 74.985 180.828 74.985s132.528-26.63 180.828-74.985c48.297-48.352 74.896-112.638 74.896-181.015s-26.599-132.664-74.896-181.015zm-180.828 415.015c-128.875 0-233.724-104.972-233.724-234s104.849-234 233.724-234 233.724 104.972 233.724 234-104.849 234-233.724 234z"/></g><g><g><path d="m256 431.59c-47.053 0-85.333-38.28-85.333-85.333v-30.364c0-6.075 4.925-11 11-11h148.665c6.075 0 11 4.925 11 11v30.364c.001 47.054-38.279 85.333-85.332 85.333zm-63.333-104.696v19.364c0 34.922 28.411 63.333 63.333 63.333s63.333-28.411 63.333-63.333v-19.364z" fill="#0496FF"/></g><g><g><path d="m199.166 238.083c-6.075 0-11-4.925-11-11v-21.862c0-17.372-14.111-31.505-31.457-31.505s-31.458 14.133-31.458 31.505v21.862c0 6.075-4.925 11-11 11s-11-4.925-11-11v-21.862c0-29.502 23.981-53.505 53.458-53.505 29.476 0 53.457 24.002 53.457 53.505v21.862c0 6.075-4.925 11-11 11z" fill="#0496FF"/></g><g><path d="m397.749 238.083c-6.075 0-11-4.925-11-11v-21.862c0-17.372-14.112-31.505-31.458-31.505s-31.457 14.133-31.457 31.505v21.862c0 6.075-4.925 11-11 11s-11-4.925-11-11v-21.862c0-29.502 23.981-53.505 53.457-53.505 29.477 0 53.458 24.002 53.458 53.505v21.862c0 6.075-4.925 11-11 11z" fill="#0496FF"/></g></g></g></g><g/><g/><g/><g/><g/><g/><g/><g/><g/><g/><g/><g/><g/><g/><g/></svg>