<svg id="Capa_1" enable-background="new 0 0 512.058 512.058" viewBox="0 0 512.058 512.058" xmlns="http://www.w3.org/2000/svg" fill="#E6ECF2"><g><g><path d="m426 176.122v-165.093c0-6.075-4.925-11-11-11h-357.456c-6.075 0-11 4.925-11 11v410.296h-35.544c-6.075 0-11 4.925-11 11v22.161c0 31.729 25.814 57.543 57.544 57.543h310.912c31.729 0 57.544-25.814 57.544-57.544v-52.004h-22v52.004c0 19.599-15.945 35.544-35.544 35.544s-35.543-15.945-35.543-35.543v-22.161c0-6.075-4.925-11-11-11h-253.369v-399.296h335.456v154.093zm-102.768 313.907h-265.688c-19.599 0-35.544-15.945-35.544-35.543v-11.161h288.913v11.161c0 13.403 4.607 25.751 12.319 35.543z"/><path d="m229.342 311.169h18.36c16.225 0 29.425-13.2 29.425-29.425v-18.592c5.093-3.688 8.425-9.665 8.425-16.419 0-6.881 2.823-13.492 7.949-18.617 14.691-14.688 22.782-34.218 22.782-54.991 0-21.456-8.549-41.433-24.073-56.253-15.516-14.812-35.898-22.425-57.38-21.422-39.887 1.852-72.394 34.561-74.005 74.467-.882 21.863 7.524 43.201 23.065 58.545 4.831 4.77 7.602 11.531 7.602 18.551 0 6.713 3.335 12.65 8.425 16.28v18.451c0 16.226 13.2 29.425 29.425 29.425zm25.785-29.424c0 4.094-3.331 7.425-7.425 7.425h-18.36c-4.094 0-7.425-3.331-7.425-7.425v-14.731h33.21zm-72.319-110.94c1.154-28.604 24.453-52.05 53.042-53.377 15.44-.721 30.044 4.738 41.169 15.359 11.134 10.628 17.265 24.955 17.265 40.34 0 14.896-5.802 28.9-16.337 39.433-8.864 8.862-13.926 20.33-14.363 32.455h-50.132c-.505-12.149-5.582-23.793-14.104-32.207-11.309-11.166-17.183-26.083-16.54-42.003z"/></g><g fill="#0496FF"><path d="m238.521 73.375c6.075 0 11-4.925 11-11v-7.346c0-6.075-4.925-11-11-11s-11 4.925-11 11v7.346c0 6.075 4.924 11 11 11z"/><path d="m316.834 105.812c2.815 0 5.631-1.074 7.778-3.222l5.193-5.194c4.296-4.296 4.296-11.261-.001-15.556-4.295-4.296-11.261-4.295-15.556 0l-5.193 5.194c-4.296 4.296-4.296 11.261.001 15.556 2.148 2.148 4.963 3.222 7.778 3.222z"/><path d="m167.984 102.59c4.297-4.295 4.297-11.26.001-15.556l-5.193-5.194c-4.294-4.296-11.26-4.297-15.556 0-4.297 4.295-4.297 11.26-.001 15.556l5.193 5.194c2.147 2.148 4.963 3.222 7.778 3.222s5.631-1.074 7.778-3.222z"/><path d="m313.393 333.169h-149.742c-6.075 0-11 4.925-11 11s4.925 11 11 11h149.741c6.075 0 11-4.925 11-11s-4.924-11-10.999-11z"/><path d="m291.858 377.169h-106.672c-6.075 0-11 4.925-11 11s4.925 11 11 11h106.673c6.075 0 11-4.925 11-11s-4.925-11-11.001-11z"/><path d="m501.499 233.612c-3.015-3.539-4.805-7.859-5.175-12.494-1.726-21.636-18.683-38.593-40.32-40.32-4.634-.37-8.954-2.159-12.493-5.175-16.52-14.078-40.502-14.078-57.021 0-3.539 3.016-7.859 4.806-12.494 5.175-21.637 1.727-38.594 18.684-40.319 40.32-.37 4.635-2.16 8.956-5.175 12.494-14.079 16.52-14.079 40.5 0 57.021 3.015 3.539 4.805 7.859 5.175 12.495 1.562 19.593 15.616 35.348 34.324 39.431v81.658c0 3.968 2.138 7.629 5.594 9.58 3.454 1.95 7.694 1.889 11.092-.163l30.313-18.304 30.314 18.303c1.747 1.054 3.715 1.583 5.686 1.583 1.862 0 3.728-.473 5.406-1.42 3.456-1.95 5.594-5.611 5.594-9.58v-81.658c18.708-4.083 32.762-19.839 34.324-39.432.37-4.635 2.16-8.956 5.175-12.494 14.079-16.519 14.079-40.5 0-57.02zm-61.499 171.113-19.314-11.661c-3.496-2.11-7.875-2.11-11.371 0l-19.315 11.661v-53.405c7.536 5.237 16.267 7.861 25 7.861s17.464-2.625 25-7.861zm44.755-128.362c-6.037 7.084-9.62 15.734-10.36 25.014-.862 10.807-9.332 19.277-20.14 20.139-9.279.741-17.929 4.324-25.014 10.361-8.252 7.032-20.23 7.032-28.482 0-7.085-6.037-15.734-9.62-25.014-10.361-10.808-.862-19.277-9.333-20.14-20.14-.74-9.279-4.323-17.929-10.36-25.013-7.032-8.251-7.032-20.23 0-28.481 6.037-7.084 9.62-15.734 10.36-25.014.862-10.807 9.332-19.277 20.139-20.14 9.279-.74 17.929-4.323 25.015-10.361 8.252-7.032 20.23-7.032 28.482 0 7.086 6.038 15.735 9.621 25.014 10.361 10.808.862 19.277 9.333 20.14 20.14.74 9.279 4.323 17.929 10.36 25.013 7.032 8.252 7.032 20.231 0 28.482z"/><path d="m415 217c-24.881 0-45.123 20.242-45.123 45.123s20.242 45.123 45.123 45.123 45.123-20.242 45.123-45.123-20.242-45.123-45.123-45.123zm0 68.245c-12.75 0-23.123-10.373-23.123-23.123s10.373-23.122 23.123-23.122 23.123 10.373 23.123 23.123-10.373 23.122-23.123 23.122z"/></g></g><g/><g/><g/><g/><g/><g/><g/><g/><g/><g/><g/><g/><g/><g/><g/></svg>