<svg id="Capa_1" enable-background="new 0 0 512 512" viewBox="0 0 512 512" xmlns="http://www.w3.org/2000/svg" fill="#052438"><g><g fill="#0496FF"><path d="m256 80.344c-19.98 0-36.235 16.255-36.235 36.235 0 16.146 10.617 29.855 25.235 34.523v66.278h22v-66.278c14.618-4.668 25.235-18.377 25.235-34.523 0-19.98-16.255-36.235-36.235-36.235zm0 50.47c-7.85 0-14.235-6.386-14.235-14.235s6.386-14.235 14.235-14.235c7.85 0 14.235 6.386 14.235 14.235s-6.386 14.235-14.235 14.235z"/><path d="m414.07 92.07h-20c-6.075 0-11 4.925-11 11s4.925 11 11 11h20c6.075 0 11-4.925 11-11s-4.925-11-11-11z"/><path d="m375.582 45.037c1.866 0 3.757-.476 5.49-1.476l17.321-10c5.261-3.038 7.064-9.765 4.026-15.026s-9.764-7.063-15.026-4.026l-17.321 10c-5.261 3.038-7.064 9.765-4.026 15.026 2.037 3.529 5.735 5.502 9.536 5.502z"/><path d="m398.393 172.579-17.321-10c-5.26-3.037-11.988-1.234-15.026 4.026-3.038 5.261-1.235 11.989 4.026 15.026l17.321 10c1.732 1 3.624 1.476 5.49 1.476 3.801 0 7.499-1.973 9.537-5.502 3.037-5.261 1.234-11.989-4.027-15.026z"/><path d="m128.929 103.07c0-6.075-4.925-11-11-11h-20c-6.075 0-11 4.925-11 11s4.925 11 11 11h20c6.076 0 11-4.925 11-11z"/><path d="m141.928 24.508-17.321-10c-5.261-3.036-11.988-1.235-15.026 4.026s-1.235 11.989 4.026 15.026l17.321 10c1.732 1 3.624 1.476 5.49 1.476 3.801 0 7.499-1.973 9.537-5.502 3.036-5.261 1.234-11.988-4.027-15.026z"/><path d="m130.928 162.579-17.321 10c-5.261 3.038-7.064 9.765-4.026 15.026 2.038 3.529 5.735 5.502 9.537 5.502 1.866 0 3.757-.476 5.49-1.476l17.321-10c5.261-3.038 7.064-9.765 4.026-15.026-3.039-5.262-9.766-7.063-15.027-4.026z"/></g><path d="m404.398 243.966-87.088-50.28c1.2-5.599 4.101-10.75 8.358-14.657 21.228-19.479 33.402-47.165 33.402-75.959 0-27.283-10.556-52.999-29.722-72.412-19.148-19.395-44.691-30.279-71.924-30.648-27.55-.363-53.555 9.908-73.22 28.95-19.672 19.05-30.773 44.711-31.258 72.256-.52 29.498 11.643 57.855 33.371 77.8 4.264 3.915 7.17 9.071 8.372 14.671l-87.087 50.28c-3.403 1.965-5.5 5.597-5.5 9.526v165.005c0 3.93 2.097 7.562 5.5 9.526l142.898 82.502c1.702.982 3.601 1.474 5.5 1.474s3.798-.491 5.5-1.474l142.898-82.502c3.403-1.965 5.5-5.597 5.5-9.526v-165.006c0-3.929-2.096-7.561-5.5-9.526zm-148.398 79.327-120.898-69.801 65.261-37.678c1.801 2.624 4.021 4.938 6.567 6.84v27.732c0 17.642 14.353 31.995 31.995 31.995h34.151c17.642 0 31.995-14.353 31.995-31.995v-27.732c2.546-1.902 4.766-4.217 6.567-6.84l65.261 37.678zm-27.071-94.913h54.141v22.006c0 5.511-4.483 9.995-9.995 9.995h-34.151c-5.511 0-9.995-4.483-9.995-9.995zm-53.986-126.777c.382-21.683 9.106-41.869 24.565-56.839 15.187-14.706 35.201-22.764 56.472-22.764.38 0 .763.002 1.145.008 21.417.291 41.506 8.852 56.568 24.107 15.075 15.269 23.377 35.496 23.377 56.956 0 22.648-9.577 44.426-26.276 59.749-10.236 9.393-16.106 22.773-16.106 36.71 0 3.778-3.074 6.851-6.852 6.851h-63.674c-3.778 0-6.852-3.074-6.852-6.852 0-13.934-5.875-27.318-16.118-36.721-17.09-15.69-26.659-37.998-26.249-61.205zm-50.842 170.942 120.899 69.801v139.601l-120.898-69.801v-139.601zm142.899 209.402v-139.601l120.898-69.801v139.601z"/></g><g/><g/><g/><g/><g/><g/><g/><g/><g/><g/><g/><g/><g/><g/><g/></svg>