<svg id="Layer_1" enable-background="new 0 0 512 512" viewBox="0 0 512 512" xmlns="http://www.w3.org/2000/svg" fill="#052438"><g><g><path d="m361.929 205.471v-131.283c0-33.807-27.508-61.31-61.319-61.31h-238.129c-13.364-.308-26.504 3.813-37.634 12.052-15.79 11.691-24.847 29.674-24.847 49.339v323.705c0 27.182 17.445 50.768 43.409 58.692l130.266 39.756c5.964 1.82 12.031 2.716 18.042 2.716 12.882 0 25.501-4.116 36.244-12.069 11.832-8.76 19.884-21.054 23.177-34.941h49.471c33.812 0 61.319-27.503 61.319-61.31v-98.349c0-6.075-22-6.075-22 0v98.349c0 21.675-17.639 39.31-39.319 39.31h-47.801v-316.102c0-27.182-17.445-50.768-43.409-58.692l-67.025-20.456h158.235c21.681 0 39.319 17.634 39.319 39.31v131.283c.001 6.075 22.001 6.075 22.001 0zm-131.12-91.445v323.704c0 12.62-5.809 24.158-15.938 31.657-10.093 7.472-22.768 9.658-34.773 5.993l-130.267-39.756c-16.646-5.08-27.831-20.211-27.831-37.65v-323.705c0-12.62 5.809-24.158 15.938-31.657 6.883-5.096 14.965-7.732 23.219-7.732 3.849 0 7.736.574 11.555 1.739l130.266 39.756c16.646 5.081 27.831 20.211 27.831 37.651z"/><path d="m196.646 275.746c6.075 0 11-4.925 11-11v-31.434c0-6.075-4.925-11-11-11s-11 4.925-11 11v31.434c0 6.075 4.925 11 11 11z"/></g><g><g><g><path d="m390.352 337.057c-1.742 0-3.49-.413-5.092-1.25-3.631-1.896-5.907-5.653-5.907-9.75v-30.979h-83.641c-6.075 0-11-4.925-11-11v-70.097c0-6.075 4.925-11 11-11h83.641v-30.979c0-4.097 2.276-7.854 5.907-9.75s8.015-1.618 11.378.722l110.647 77.027c2.954 2.057 4.715 5.428 4.715 9.028s-1.761 6.971-4.715 9.028l-110.647 77.027c-1.88 1.309-4.078 1.973-6.286 1.973zm-83.64-63.979h83.641c6.075 0 11 4.925 11 11v20.918l80.395-55.967-80.395-55.967v20.918c0 6.075-4.925 11-11 11h-83.641z" fill="#0496FF"/></g></g></g></g><g/><g/><g/><g/><g/><g/><g/><g/><g/><g/><g/><g/><g/><g/><g/></svg>