<svg id="Layer_1" enable-background="new 0 0 512 512" viewBox="0 0 512 512" xmlns="http://www.w3.org/2000/svg" fill="#052438"><g><g><g><path d="m345.634 356.588h-264.707c-20.46 0-37.106-16.642-37.106-37.097s16.646-37.097 37.106-37.097h264.707c6.075 0 11 4.925 11 11v52.194c0 6.076-4.925 11-11 11zm-264.707-52.194c-8.33 0-15.106 6.772-15.106 15.097s6.776 15.097 15.106 15.097h253.707v-30.194z" fill="#0496FF"/></g></g><g><path d="m154.203 199.072c5.695 2.117 12.027-.783 14.144-6.478l1.671-4.496h26.885l1.645 4.465c1.638 4.447 5.845 7.201 10.323 7.201 1.263 0 2.547-.219 3.801-.681 5.701-2.1 8.62-8.423 6.52-14.124l-23.957-65.035c-.037-.1-.075-.199-.114-.298-1.91-4.755-6.445-7.826-11.557-7.826h-.014c-5.117.005-9.652 3.087-11.553 7.851-.033.081-.064.163-.095.245l-24.176 65.032c-2.118 5.695.782 12.027 6.477 14.144zm34.595-32.973h-10.602l5.325-14.324z"/><path d="m345.634 199.761c6.075 0 11-4.925 11-11v-30.035l23.462 34.806c3.037 4.496 8.406 6.497 13.365 4.98 5.117-1.566 8.424-6.269 8.424-11.981 0-.035 0-.069 0-.104l-.603-63.927c-.057-6.04-4.971-10.896-10.998-10.896-.035 0-.07 0-.105 0-6.075.057-10.953 5.028-10.896 11.104l.29 30.686-24.816-36.815c-2.704-4.011-7.712-5.785-12.335-4.372-4.626 1.414-7.786 5.683-7.786 10.52v66.033c-.002 6.076 4.923 11.001 10.998 11.001z"/><path d="m30.946 199.54c.808.142 1.294.227 8.599.227 3.489 0 8.534-.02 15.912-.062 6.075-.035 10.972-4.988 10.937-11.063-.035-6.054-4.953-10.937-10.999-10.937h-.064c-3.865.022-7.921.04-11.483.048v-54.953c0-6.075-4.925-11-11-11s-11 4.925-11 11v65.905c.001 5.342 3.838 9.911 9.098 10.835z"/><path d="m232.282 196.562c2.062 2.049 4.85 3.199 7.755 3.199h.043c.536-.002 13.176-.052 18.241-.143 20.58-.368 35.517-18.395 35.517-42.862 0-25.723-14.56-43.005-36.231-43.005h-17.696c-2.921 0-5.722 1.162-7.786 3.229-2.064 2.068-3.22 4.871-3.214 7.792l.126 64.009c.006 2.923 1.173 5.722 3.245 7.781zm25.324-60.811c13.205 0 14.231 16.077 14.231 21.005 0 10.262-4.301 20.693-13.911 20.866-1.66.029-4.23.055-6.912.076l-.083-41.946h6.675z"/><path d="m451.361 199.761c22.839 0 38.79-18.085 38.79-43.98 0-6.075-4.925-11-11-11h-19.261c-6.075 0-11 4.925-11 11s4.925 11 11 11h6.405c-2.022 5.543-6.225 10.98-14.934 10.98-11.686 0-21.192-9.86-21.192-21.98s9.507-21.98 21.192-21.98c4.204 0 8.263 1.271 11.739 3.677 4.996 3.457 11.848 2.211 15.305-2.785s2.21-11.848-2.785-15.305c-7.172-4.964-15.561-7.587-24.259-7.587-23.816 0-43.192 19.729-43.192 43.98s19.376 43.98 43.192 43.98z"/><path d="m105.36 199.761c23.816 0 43.192-19.729 43.192-43.98s-19.376-43.98-43.192-43.98-43.192 19.729-43.192 43.98 19.376 43.98 43.192 43.98zm0-65.961c11.686 0 21.192 9.86 21.192 21.98s-9.507 21.98-21.192 21.98-21.192-9.86-21.192-21.98 9.507-21.98 21.192-21.98z"/><path d="m313.074 199.761c6.075 0 11-4.925 11-11v-65.961c0-6.075-4.925-11-11-11s-11 4.925-11 11v65.961c0 6.075 4.925 11 11 11z"/><path d="m431.096 238.587h-350.192c-44.611 0-80.904 36.294-80.904 80.904s36.293 80.904 80.904 80.904h350.192c44.61 0 80.904-36.293 80.904-80.904s-36.293-80.904-80.904-80.904zm0 139.808h-350.192c-32.48 0-58.904-26.424-58.904-58.904s26.424-58.904 58.904-58.904h350.192c32.479 0 58.904 26.424 58.904 58.904s-26.424 58.904-58.904 58.904z"/></g></g><g/><g/><g/><g/><g/><g/><g/><g/><g/><g/><g/><g/><g/><g/><g/></svg>