<svg id="Capa_1" enable-background="new 0 0 512 512" viewBox="0 0 512 512" xmlns="http://www.w3.org/2000/svg" fill="#E6ECF2"><g><g fill="#0496FF"><path d="m364.51 95.637v39.871l-6.929-2.76c-2.614-1.042-5.528-1.042-8.143 0l-6.929 2.76v-39.871h-22v56.094c0 3.647 1.808 7.058 4.827 9.104s6.856 2.464 10.245 1.114l17.929-7.143 17.929 7.143c1.314.523 2.695.781 4.07.781 2.171 0 4.326-.643 6.174-1.896 3.019-2.047 4.827-5.457 4.827-9.104v-56.093z"/><path d="m169.49 135.507-6.929-2.76c-2.614-1.042-5.528-1.042-8.143 0l-6.929 2.76v-39.87h-22v56.094c0 3.647 1.808 7.058 4.827 9.104 3.018 2.046 6.856 2.464 10.245 1.114l17.929-7.143 17.929 7.143c1.314.523 2.695.781 4.07.781 2.171 0 4.326-.643 6.174-1.896 3.019-2.047 4.827-5.457 4.827-9.104v-56.093h-22z"/></g><g><path d="m512 286.363c0-40.77-31.854-74.221-71.979-76.818v-113.908c0-6.075-4.925-11-11-11h-151.021c-6.075 0-11 4.925-11 11v113.727h-22v-113.727c0-6.075-4.925-11-11-11h-151.021c-6.075 0-11 4.925-11 11v113.908c-40.125 2.598-71.979 36.049-71.979 76.818 0 38.723 28.736 70.846 66 76.202v42.798h-10c-6.075 0-11 4.925-11 11s4.925 11 11 11h86c6.075 0 11-4.925 11-11s-4.925-11-11-11h-10v-42h248v42h-10c-6.075 0-11 4.925-11 11s4.925 11 11 11h86c6.075 0 11-4.925 11-11s-4.925-11-11-11h-10v-42.798c37.264-5.355 66-37.479 66-76.202zm-223-179.726h129.021v102.727h-129.021zm-195.021 0h129.021v102.727h-129.021zm-71.979 179.726c0-30.327 24.673-55 55-55h358c30.327 0 55 24.673 55 55s-24.673 55-55 55h-358c-30.327 0-55-24.673-55-55zm88 119h-22v-42h22zm292 0v-42h22v42z"/><path d="m435 319.363c18.196 0 33-14.804 33-33s-14.804-33-33-33h-358c-18.196 0-33 14.804-33 33s14.804 33 33 33zm-168-33c0 6.065-4.935 11-11 11s-11-4.935-11-11 4.935-11 11-11 11 4.935 11 11zm20.108-11h116.784c-1.221 3.443-1.892 7.144-1.892 11s.671 7.557 1.892 11h-116.784c1.221-3.443 1.892-7.144 1.892-11s-.671-7.557-1.892-11zm-62.216 22h-116.784c1.221-3.443 1.892-7.144 1.892-11s-.671-7.557-1.892-11h116.784c-1.221 3.443-1.892 7.144-1.892 11s.671 7.557 1.892 11zm221.108-11c0 6.065-4.935 11-11 11s-11-4.935-11-11 4.935-11 11-11 11 4.935 11 11zm-380 0c0-6.065 4.935-11 11-11s11 4.935 11 11-4.935 11-11 11-11-4.934-11-11z"/></g></g><g/><g/><g/><g/><g/><g/><g/><g/><g/><g/><g/><g/><g/><g/><g/></svg>