<svg id="Capa_1" enable-background="new 0 0 512 512" viewBox="0 0 512 512" xmlns="http://www.w3.org/2000/svg" fill="#052438"><g><g><path d="m219.347 263.811v-17.406c19.385-14.068 32.352-36.467 33.582-61.898 12.854-4.513 22.096-16.772 22.096-31.149 0-14.341-9.195-26.575-22-31.115l-.001-40.892c0-44.857-36.494-81.351-81.352-81.351s-81.351 36.494-81.351 81.352l-.001 40.892c-12.805 4.54-22 16.774-22 31.115 0 10.854 5.271 20.495 13.383 26.513l-.678.678c-14.374 14.375-22.29 33.486-22.29 53.814 0 16.806 5.424 32.771 15.421 45.925-32.278 19.978-53.829 55.704-53.829 96.374v41.906c0 6.075 4.925 11 11 11h236.689v-22h-171.688v-30.906c0-6.075-4.925-11-11-11s-11 4.925-11 11v30.906h-32v-30.906c0-49.107 38.989-89.272 87.636-91.183l33.313 39.345c2.091 2.469 5.161 3.892 8.396 3.892s6.305-1.423 8.396-3.892l33.313-39.345c48.648 1.911 87.636 42.076 87.636 91.183h22c-.001-59.223-45.691-107.966-103.671-112.852zm-47.675-241.811c24.638 0 45.812 15.093 54.777 36.516-7.971-3.333-17.531-5.12-28.425-5.12h-52.703c-10.894 0-20.454 1.787-28.425 5.12 8.964-21.423 30.139-36.516 54.776-36.516zm59.337 75.396h-118.674c.213-7.295 2.801-12.41 8.096-16.042 5.682-3.898 14.288-5.958 24.89-5.958h52.703c10.602 0 19.208 2.06 24.89 5.958 5.294 3.631 7.882 8.747 8.095 16.042zm-129.689 44.962c6.075 0 11-4.925 11-11v-11.963h118.705v11.963c0 6.075 4.925 11 11 11 6.065 0 11 4.935 11 11s-4.935 11-11 11c-6.075 0-11 4.925-11 11v5.172c0 32.727-26.625 59.352-59.353 59.352s-59.353-26.625-59.353-59.352v-5.172c0-6.075-4.925-11-11-11-6.065 0-11-4.935-11-11s4.935-11 11.001-11zm-20.585 92.005c0-12.534 4.24-24.414 12.03-34.014 4.72 18.786 15.992 34.995 31.233 46.056v17.406c-10.294.867-20.201 3.112-29.533 6.558-8.872-9.923-13.73-22.589-13.73-36.006zm90.937 66.33-25.675-30.324v-12.661c8.077 2.694 16.704 4.174 25.675 4.174s17.598-1.48 25.675-4.174v12.661z"/><path d="m171.639 218.427c10.681 0 20.688-4.745 27.457-13.018 3.847-4.702 3.153-11.632-1.548-15.479-4.705-3.847-11.633-3.153-15.479 1.548-2.573 3.145-6.375 4.949-10.43 4.949-4.032 0-7.82-1.788-10.394-4.905-3.867-4.686-10.801-5.347-15.485-1.481-4.686 3.867-5.349 10.8-1.481 15.486 6.766 8.198 16.739 12.9 27.36 12.9z"/></g><g fill="#0496FF"><path d="m400.017 365.273h-132c-6.075 0-11 4.925-11 11v124.727c0 6.075 4.925 11 11 11h132c6.075 0 11-4.925 11-11v-124.727c0-6.075-4.925-11-11-11zm-77 22h22v28.871l-6.929-2.76c-2.615-1.042-5.527-1.042-8.143 0l-6.929 2.76v-28.871zm66 102.727h-110v-102.727h22v45.094c0 3.647 1.808 7.058 4.827 9.104 3.018 2.046 6.854 2.464 10.244 1.114l17.929-7.143 17.929 7.143c1.314.523 2.695.781 4.07.781 2.171 0 4.326-.643 6.174-1.896 3.02-2.047 4.827-5.457 4.827-9.104v-45.094h22z"/><path d="m380.688 231.308c2.815 0 5.631-1.074 7.778-3.222l12.228-12.229c2.062-2.063 3.222-4.861 3.222-7.778v-25.405c0-6.075-4.925-11-11-11s-11 4.925-11 11v20.849l-9.006 9.007c-4.296 4.296-4.296 11.261 0 15.556 2.148 2.148 4.963 3.222 7.778 3.222z"/></g><path d="m392.916 109.323c-54.454 0-98.756 44.302-98.756 98.756s44.302 98.757 98.756 98.757c54.455 0 98.757-44.302 98.757-98.757s-44.302-98.756-98.757-98.756zm69.405 109.757h6.551c-1.868 12.958-6.973 24.885-14.484 34.915l-4.617-4.617c-4.297-4.296-11.26-4.296-15.557 0-4.296 4.296-4.296 11.261 0 15.557l4.617 4.617c-10.031 7.512-21.957 12.616-34.916 14.484v-6.552c0-6.075-4.925-11-11-11s-11 4.925-11 11v6.552c-12.958-1.868-24.884-6.973-34.915-14.484l4.617-4.617c4.296-4.296 4.296-11.261 0-15.557-4.297-4.296-11.26-4.296-15.557 0l-4.617 4.617c-7.511-10.031-12.616-21.957-14.484-34.916h6.551c6.075 0 11-4.925 11-11s-4.925-11-11-11h-6.551c1.868-12.958 6.973-24.884 14.484-34.915l4.617 4.617c2.148 2.148 4.963 3.222 7.778 3.222s5.631-1.074 7.778-3.222c4.296-4.296 4.296-11.26 0-15.556l-4.616-4.617c10.031-7.512 21.957-12.616 34.915-14.484v6.551c0 6.075 4.925 11 11 11s11-4.925 11-11v-6.551c12.959 1.868 24.885 6.973 34.916 14.484l-4.617 4.617c-4.296 4.296-4.296 11.26 0 15.556 2.148 2.148 4.963 3.222 7.778 3.222 2.814 0 5.63-1.074 7.778-3.222l4.617-4.617c7.511 10.031 12.616 21.957 14.484 34.915h-6.551c-6.075 0-11 4.925-11 11s4.926 11.001 11.001 11.001z"/></g><g/><g/><g/><g/><g/><g/><g/><g/><g/><g/><g/><g/><g/><g/><g/></svg>