<svg id="Capa_1" enable-background="new 0 0 512 512" viewBox="0 0 512 512" xmlns="http://www.w3.org/2000/svg" fill="#052438"><g><path d="m511.536 412.838-30-100c-1.396-4.652-5.679-7.839-10.536-7.839h-36.591l-27.649-92.161c-1.396-4.652-5.679-7.839-10.536-7.839h-280.448c-4.857 0-9.141 3.187-10.536 7.839l-27.648 92.161h-36.591c-4.857 0-9.141 3.187-10.536 7.839l-30.001 100c-.999 3.331-.364 6.938 1.711 9.728 2.075 2.789 5.348 4.434 8.825 4.434h490c3.478 0 6.75-1.645 8.825-4.434 2.075-2.79 2.71-6.397 1.711-9.728zm-100.096-107.839h-119.983l23.4-78h73.182zm-59.992 72.719-15.216-50.718h30.431zm-227.487-150.719h167.927l-23.4 78h-167.927zm-74.775 100h167.927l-23.401 78h-167.928zm167.495 78 23.401-78h73.182l23.4 78zm149.551 0 23.4-78h73.183l23.4 78z"/><g fill="#0496FF"><path d="m115.766 128.74c-17.312-4.639-30.947-18.274-35.586-35.586-1.288-4.81-5.647-8.154-10.625-8.154s-9.337 3.344-10.625 8.153c-4.639 17.312-18.274 30.947-35.586 35.586-4.81 1.288-8.153 5.646-8.153 10.625s3.344 9.337 8.153 10.625c17.312 4.639 30.947 18.274 35.586 35.586 1.288 4.81 5.646 8.153 10.625 8.153s9.337-3.344 10.625-8.153c4.639-17.312 18.274-30.947 35.586-35.586 4.81-1.288 8.153-5.646 8.153-10.625s-3.344-9.336-8.153-10.624zm-46.211 28.404c-4.846-6.908-10.871-12.934-17.779-17.779 6.909-4.847 12.933-10.87 17.779-17.779 4.847 6.909 10.87 12.933 17.779 17.779-6.908 4.845-12.934 10.871-17.779 17.779z"/><path d="m381.288 88.222c-2.062-2.062-4.861-3.222-7.778-3.222s-5.716 1.159-7.778 3.222l-20.522 20.523c-4.296 4.296-4.296 11.261 0 15.557 4.297 4.295 11.262 4.295 15.557 0l1.744-1.744v40.113c0 6.075 4.925 11 11 11s11-4.925 11-11v-40.113l1.744 1.744c2.148 2.147 4.963 3.222 7.778 3.222 2.814 0 5.63-1.074 7.778-3.222 4.296-4.296 4.296-11.261 0-15.557z"/><path d="m487.856 108.746-20.523-20.523c-2.063-2.063-4.861-3.223-7.778-3.223-2.918 0-5.716 1.159-7.778 3.222l-20.522 20.523c-4.296 4.296-4.296 11.261 0 15.557 4.297 4.295 11.262 4.295 15.557 0l1.744-1.744v101.613c0 6.075 4.925 11 11 11s11-4.925 11-11v-101.614l1.745 1.745c2.148 2.147 4.963 3.222 7.778 3.222s5.63-1.074 7.778-3.222c4.295-4.296 4.295-11.261-.001-15.556z"/></g></g><g/><g/><g/><g/><g/><g/><g/><g/><g/><g/><g/><g/><g/><g/><g/></svg>