<svg id="Capa_1" enable-background="new 0 0 512 512" viewBox="0 0 512 512" xmlns="http://www.w3.org/2000/svg" fill="#E6ECF2"><g><g><g><path d="m365.999 121.812c-1.547 0-3.099-.326-4.551-.986l-17.448-7.93-17.448 7.931c-3.405 1.548-7.361 1.26-10.507-.766-3.145-2.025-5.045-5.508-5.045-9.249v-54h22v36.917l6.448-2.931c2.893-1.314 6.211-1.314 9.104 0l6.448 2.931v-36.917h22v54c0 3.74-1.9 7.224-5.045 9.249-1.804 1.161-3.875 1.751-5.956 1.751z" fill="#0496FF"/></g><g><path d="m189.999 121.812c-1.547 0-3.099-.326-4.551-.986l-17.448-7.93-17.448 7.931c-3.405 1.548-7.362 1.26-10.507-.766-3.145-2.025-5.045-5.508-5.045-9.249v-54h22v36.917l6.448-2.931c2.893-1.314 6.211-1.314 9.104 0l6.448 2.931v-36.917h22v54c0 3.74-1.9 7.224-5.045 9.249-1.804 1.161-3.875 1.751-5.956 1.751z" fill="#0496FF"/></g><g><path d="m365.999 317.812c-1.547 0-3.099-.326-4.551-.986l-17.448-7.93-17.448 7.931c-3.405 1.547-7.361 1.26-10.507-.766-3.145-2.025-5.045-5.508-5.045-9.249v-54h22v36.917l6.448-2.931c2.893-1.314 6.211-1.314 9.104 0l6.448 2.931v-36.917h22v54c0 3.74-1.9 7.224-5.045 9.249-1.804 1.161-3.875 1.751-5.956 1.751z" fill="#0496FF"/></g><g><path d="m189.999 317.812c-1.547 0-3.099-.326-4.551-.986l-17.448-7.93-17.448 7.931c-3.405 1.547-7.362 1.26-10.507-.766-3.145-2.025-5.045-5.508-5.045-9.249v-54h22v36.917l6.448-2.931c2.893-1.314 6.211-1.314 9.104 0l6.448 2.931v-36.917h22v54c0 3.74-1.9 7.224-5.045 9.249-1.804 1.161-3.875 1.751-5.956 1.751z" fill="#0496FF"/></g></g><path d="m501 70.907h-44c-6.075 0-11 4.925-11 11v71.906h-25v-97c0-6.075-4.925-11-11-11h-132c-6.075 0-11 4.925-11 11v97h-22v-97c0-6.075-4.925-11-11-11h-132c-6.075 0-11 4.925-11 11v97h-25v-71.906c0-6.075-4.925-11-11-11h-44c-6.075 0-11 4.925-11 11v373.281c0 6.075 4.925 11 11 11h44c6.075 0 11-4.925 11-11v-39.375h380v39.375c0 6.075 4.925 11 11 11h44c6.075 0 11-4.925 11-11v-373.281c0-6.075-4.925-11-11-11zm-102 278.905h-110v-86h110zm11-108h-132c-6.075 0-11 4.925-11 11v97h-22v-97c0-6.075-4.925-11-11-11h-132c-6.075 0-11 4.925-11 11v97h-25v-130h380v130h-25v-97c0-6.075-4.925-11-11-11zm-187 108h-110v-86h110zm66-282h110v86h-110zm-176 0h110v86h-110zm333 108v22h-380v-22zm-402 268.376h-22v-351.281h22zm22-50.376v-22h380v22zm424 50.376h-22v-351.281h22z"/></g><g/><g/><g/><g/><g/><g/><g/><g/><g/><g/><g/><g/><g/><g/><g/></svg>