<svg id="Capa_1" enable-background="new 0 0 512 512" viewBox="0 0 512 512" xmlns="http://www.w3.org/2000/svg" fill="#E6ECF2"><g><g><path d="m451 285.053c-6.075 0-11 4.925-11 11v158.947h-418v-248h311.001c6.075 0 11-4.925 11-11s-4.925-11-11-11h-322.001c-6.075 0-11 4.925-11 11v270c0 6.075 4.925 11 11 11h440c6.075 0 11-4.925 11-11v-169.947c0-6.075-4.925-11-11-11z"/><path d="m115.916 251.999h218.926c6.075 0 11-4.925 11-11s-4.925-11-11-11h-228.842c-6.075 0-11 4.925-11 11 0 18.748-15.252 34-34 34-6.075 0-11 4.925-11 11v90.001c0 6.075 4.925 11 11 11 18.748 0 34 15.252 34 34 0 6.075 4.925 11 11 11h255c6.075 0 11-4.925 11-11 0-18.748 15.252-34 34-34 6.075 0 11-4.925 11-11v-73.902c0-6.075-4.925-11-11-11s-11 4.925-11 11v63.987c-22.072 4.414-39.502 21.843-43.916 43.916h-235.168c-4.414-22.072-21.843-39.502-43.915-43.915v-70.171c22.072-4.414 39.501-21.844 43.915-43.916z"/></g><g fill="#0496FF"><path d="m242.283 322.73-9.146-3.788c-2.956-1.224-4.418-4.755-3.193-7.711.804-1.942 2.351-2.823 3.201-3.175.851-.353 2.567-.823 4.509-.019l4.573 1.894c5.614 2.327 12.048-.339 14.373-5.952 2.326-5.613-.339-12.047-5.952-14.373l-4.574-1.896c-.52-.215-1.044-.414-1.572-.597v-2.789c0-6.075-4.925-11-11-11s-11 4.925-11 11v4.44c-5.826 3.022-10.352 7.936-12.883 14.046-5.888 14.214.886 30.567 15.101 36.456l9.146 3.788c2.955 1.224 4.417 4.755 3.193 7.712-.804 1.941-2.351 2.822-3.201 3.174-.851.353-2.568.823-4.509.019l-4.573-1.895c-5.613-2.325-12.047.34-14.373 5.953s.34 12.047 5.953 14.373l4.574 1.895c.52.215 1.044.414 1.572.597v2.789c0 6.075 4.925 11 11 11s11-4.925 11-11v-4.44c5.826-3.022 10.352-7.936 12.882-14.047 5.886-14.211-.887-30.565-15.101-36.454z"/><path d="m334.554 320h-26.219c-6.075 0-11 4.925-11 11s4.925 11 11 11h26.219c6.075 0 11-4.925 11-11s-4.925-11-11-11z"/><path d="m158.666 320h-26.219c-6.075 0-11 4.925-11 11s4.925 11 11 11h26.219c6.075 0 11-4.925 11-11s-4.925-11-11-11z"/><path d="m504.981 177.984c-1.477-4.129-5.265-6.988-9.641-7.273-4.381-.291-8.504 2.054-10.505 5.957-4.415 8.609-11.459 8.219-14.284 7.652-4.293-.862-8.809-4.092-9.217-9.364-.782-10.08 2.081-17.79 5.111-25.953 4.105-11.057 8.758-23.588 2.975-40.151-4.529-12.971-13.449-20.196-21.318-26.572-10.55-8.546-18.883-15.297-18.883-36.279 0-3.42-1.59-6.645-4.304-8.727-2.713-2.082-6.239-2.782-9.543-1.898-16.78 4.496-28.646 15.156-34.313 30.827-4.775 13.204-4.826 29.417-.145 46.886 3.213 11.993-2.646 18.583-18.955 33.028-16.717 14.808-37.522 33.235-37.522 68.444 0 24.765 10.272 49.202 28.182 67.043 17.743 17.675 40.918 27.396 65.209 27.396h.699c24.372-.001 47.549-9.722 65.292-27.397 17.909-17.841 28.181-42.278 28.181-67.043 0-11.244-2.361-23.55-7.019-36.576zm-86.763 107.767c-10.179 0-18.46-8.281-18.46-18.46 0-12.852 10.691-24.938 18.46-30.984 7.77 6.047 18.46 18.132 18.46 30.984.001 10.178-8.281 18.46-18.46 18.46zm50.074-19.734c-3.21 3.198-6.647 6.055-10.27 8.555.431-2.363.657-4.796.657-7.282 0-24.542-21.187-46.666-35.505-53.89-3.116-1.572-6.794-1.572-9.91 0-14.318 7.225-35.505 29.348-35.505 53.89 0 2.487.226 4.922.658 7.287-3.623-2.503-7.061-5.362-10.271-8.56-13.796-13.743-21.708-32.499-21.708-51.457 0-25.306 14.625-38.26 30.109-51.975 15.307-13.558 32.656-28.924 25.618-55.191-3.46-12.915-3.608-24.886-.417-33.71 1.597-4.414 3.968-8.014 7.158-10.84 4.248 19.437 15.736 28.743 25.348 36.53 6.665 5.399 11.929 9.664 14.396 16.73 3.171 9.082.785 15.51-2.829 25.241-3.376 9.093-7.578 20.409-6.421 35.313 1.125 14.488 11.902 26.235 26.82 29.231 8.047 1.617 15.925.401 22.711-3.179.712 4.14 1.07 8.098 1.07 11.851-.001 18.958-7.913 37.713-21.709 51.456z"/></g></g><g/><g/><g/><g/><g/><g/><g/><g/><g/><g/><g/><g/><g/><g/><g/></svg>