<svg id="Capa_1" enable-background="new 0 0 504 504" viewBox="0 0 504 504" xmlns="http://www.w3.org/2000/svg" fill="#E6ECF2"><g><g><g><g><path d="m384.79 504h-265.58c-14.822 0-28.096-7.664-35.507-20.5s-7.411-28.164 0-41l132.791-230c7.41-12.836 20.684-20.5 35.506-20.5s28.096 7.664 35.507 20.5l132.791 230c7.411 12.836 7.411 28.164 0 41s-20.685 20.5-35.508 20.5zm-149.245-280.5-132.79 230c-3.435 5.949-3.435 13.051 0 19s9.585 9.5 16.455 9.5h265.58c6.869 0 13.02-3.551 16.455-9.5s3.435-13.051 0-19l-132.79-230c-3.435-5.949-9.586-9.5-16.455-9.5s-13.02 3.552-16.455 9.5z"/></g><g><path d="m252 444c-7.588.224-13.271-8.283-10.16-15.21 3.539-8.952 16.782-8.953 20.32 0 3.118 6.923-2.575 15.436-10.16 15.21z"/></g><g><path d="m252 384c-6.075 0-11-4.925-11-11v-90c0-6.075 4.925-11 11-11s11 4.925 11 11v90c0 6.075-4.925 11-11 11z"/></g></g></g><path d="m430.191 73.809c-47.597-47.597-110.88-73.809-178.191-73.809s-130.594 26.212-178.191 73.809-73.809 110.88-73.809 178.191c0 6.075 4.925 11 11 11h101c6.075 0 11-4.925 11-11 0-71.131 57.869-129 129-129s129 57.869 129 129c0 6.075 4.925 11 11 11h101c6.075 0 11-4.925 11-11 0-67.311-26.212-130.594-73.809-178.191zm-328.795 167.191h-79.136c2.607-55.143 24.725-105.263 59.586-143.597l55.941 55.94c-20.658 23.883-33.976 54.281-36.391 87.657zm51.947-103.214-55.937-55.936c38.335-34.861 88.453-56.976 143.594-59.585v79.132c-33.376 2.415-63.775 15.731-87.657 36.389zm109.657-36.388v-79.133c55.141 2.609 105.259 24.724 143.594 59.584l-55.936 55.937c-23.883-20.658-54.282-33.974-87.658-36.388zm139.603 139.602c-2.415-33.376-15.732-63.774-36.39-87.657l55.94-55.941c34.862 38.334 56.979 88.455 59.586 143.597h-79.136z" fill="#0496FF"/></g><g/><g/><g/><g/><g/><g/><g/><g/><g/><g/><g/><g/><g/><g/><g/></svg>