<svg id="Capa_1" enable-background="new 0 0 504 504" viewBox="0 0 504 504" xmlns="http://www.w3.org/2000/svg" fill="#E6ECF2"><g><path d="m107.636 425.062c6.692-7.601 10.763-17.562 10.763-28.462 0-23.784-19.35-43.133-43.133-43.133s-43.133 19.35-43.133 43.133c0 10.899 4.072 20.86 10.764 28.462-25.345 12.124-42.897 38.018-42.897 67.938 0 6.075 4.925 11 11 11h128.533c6.075 0 11-4.925 11-11 0-29.92-17.551-55.814-42.897-67.938zm-53.503-28.462c0-11.653 9.48-21.133 21.133-21.133s21.134 9.48 21.134 21.133-9.48 21.133-21.133 21.133-21.134-9.48-21.134-21.133zm-30.991 85.4c5.082-24.111 26.523-42.267 52.124-42.267s47.042 18.155 52.124 42.267z"/><path d="m461.103 425.061c6.692-7.601 10.763-17.562 10.763-28.461 0-23.784-19.35-43.133-43.133-43.133-23.784 0-43.134 19.35-43.134 43.133 0 10.899 4.072 20.86 10.764 28.462-25.345 12.125-42.897 38.018-42.897 67.938 0 6.075 4.925 11 11 11h128.534c6.075 0 11-4.925 11-11 0-29.92-17.552-55.814-42.897-67.939zm-53.503-28.461c0-11.653 9.48-21.133 21.134-21.133 11.652 0 21.133 9.48 21.133 21.133s-9.48 21.133-21.133 21.133c-11.654 0-21.134-9.48-21.134-21.133zm-30.992 85.4c5.083-24.111 26.523-42.267 52.125-42.267s47.042 18.155 52.125 42.267z"/><path d="m290.961 103.716c12.392-10.859 20.239-26.783 20.239-44.516 0-32.643-26.556-59.2-59.2-59.2-32.643 0-59.2 26.557-59.2 59.2 0 17.733 7.848 33.657 20.24 44.516-40.017 15.632-68.44 54.599-68.44 100.084 0 6.075 4.925 11 11 11h192.8c6.075 0 11-4.925 11-11 0-45.485-28.423-84.452-68.439-100.084zm-76.161-44.516c0-20.512 16.688-37.2 37.2-37.2 20.513 0 37.2 16.688 37.2 37.2s-16.687 37.2-37.2 37.2c-20.512 0-37.2-16.688-37.2-37.2zm-47.495 133.6c5.415-41.912 41.333-74.4 84.695-74.4s79.28 32.488 84.695 74.4z"/><path d="m332.333 353.467c-6.075 0-11 4.925-11 11v5.576l-27.614-27.613c-19.81-19.811-30.719-46.149-30.719-74.162v-.201c0-6.075-4.925-11-11-11s-11 4.925-11 11v.008c0 28.139-10.958 54.594-30.856 74.491l-27.478 27.478v-5.577c0-6.075-4.925-11-11-11s-11 4.925-11 11v32.133c0 6.075 4.925 11 11 11h32.134c6.075 0 11-4.925 11-11s-4.925-11-11-11h-5.577l27.478-27.478c11.172-11.172 20.014-24.057 26.278-38.059 6.242 13.953 15.051 26.789 26.183 37.922l27.615 27.614h-5.577c-6.075 0-11 4.925-11 11s4.925 11 11 11h32.133c6.075 0 11-4.925 11-11v-32.133c0-6.074-4.925-10.999-11-10.999z" fill="#0496FF"/></g><g/><g/><g/><g/><g/><g/><g/><g/><g/><g/><g/><g/><g/><g/><g/></svg>