<svg id="Capa_1" enable-background="new 0 0 512 512" viewBox="0 0 512 512" xmlns="http://www.w3.org/2000/svg" fill="#E6ECF2"><g><g><path d="m471 9.515h-430c-22.607 0-41 18.393-41 41v291.426c0 22.607 18.393 41 41 41h167.992l-7.905 53.544h-76.591c-6.075 0-11 4.925-11 11v44c0 6.075 4.925 11 11 11h263.008c6.075 0 11-4.925 11-11v-44c0-6.075-4.925-11-11-11h-76.592l-7.905-53.544h167.993c22.607 0 41-18.393 41-41v-291.426c0-22.607-18.393-41-41-41zm-94.496 470.97h-241.008v-22h241.008zm-153.178-44 7.899-53.511h49.549l7.899 53.511zm-182.326-404.97h430c10.477 0 19 8.523 19 19v244.426h-468v-244.426c0-10.476 8.523-19 19-19zm430 329.426h-430c-10.477 0-19-8.523-19-19v-25h468v25c0 10.476-8.523 19-19 19z"/><path d="m310.966 130.225h130.481c6.075 0 11-4.925 11-11s-4.925-11-11-11h-130.481c-6.075 0-11 4.925-11 11s4.925 11 11 11z"/><path d="m310.966 174.228h130.481c6.075 0 11-4.925 11-11s-4.925-11-11-11h-130.481c-6.075 0-11 4.925-11 11s4.925 11 11 11z"/><path d="m310.966 218.231h130.481c6.075 0 11-4.925 11-11s-4.925-11-11-11h-130.481c-6.075 0-11 4.925-11 11s4.925 11 11 11z"/></g><g fill="#0496FF"><path d="m202.552 89.865h-132c-6.075 0-11 4.925-11 11v124.727c0 6.075 4.925 11 11 11h132c6.075 0 11-4.925 11-11v-124.727c0-6.075-4.925-11-11-11zm-77 22h22v28.871l-6.929-2.76c-2.614-1.042-5.528-1.042-8.143 0l-6.929 2.76v-28.871zm66 102.726h-110v-102.726h22v45.094c0 3.647 1.808 7.058 4.827 9.104s6.855 2.464 10.245 1.114l17.929-7.143 17.929 7.143c1.314.523 2.695.781 4.07.781 2.171 0 4.326-.643 6.174-1.896 3.019-2.047 4.827-5.457 4.827-9.104v-45.094h22v102.727z"/><path d="m256.81 123.43c2.669 7.096 12.741 9.093 17.93 3.57 6.21-5.991 2.859-17.009-5.62-18.56-8.44-1.812-15.762 7.079-12.31 14.99z"/><path d="m273.069 154.08c-6.191-4.392-15.634-.467-16.89 7-1.971 9.47 8.887 16.75 16.89 11.289 6.449-4.015 6.439-14.27 0-18.289z"/><path d="m277.12 203.02c-2.737-7.135-12.675-9.053-17.931-3.57-6.899 6.795-1.913 18.857 7.781 18.78 7.578.221 13.283-8.296 10.15-15.21z"/></g></g><g/><g/><g/><g/><g/><g/><g/><g/><g/><g/><g/><g/><g/><g/><g/></svg>