<svg id="Capa_1" enable-background="new 0 0 512 512" viewBox="0 0 512 512" xmlns="http://www.w3.org/2000/svg" fill="#052438"><g><g fill="#0496FF"><path d="m267 200.273v39.871l-6.929-2.76c-2.614-1.042-5.528-1.042-8.143 0l-6.929 2.76v-39.871h-22v56.094c0 3.647 1.808 7.058 4.827 9.104s6.856 2.464 10.245 1.114l17.929-7.142 17.929 7.143c1.314.523 2.695.781 4.07.781 2.171 0 4.326-.643 6.174-1.896 3.019-2.047 4.827-5.457 4.827-9.104v-56.094z"/><path d="m96.85 446.21c-8.493 1.566-11.817 12.552-5.63 18.57 6.014 6.191 17.01 2.865 18.57-5.63 1.651-7.468-5.452-14.578-12.94-12.94z"/><path d="m52.85 446.21c-8.491 1.556-11.826 12.563-5.63 18.57 5.999 6.191 17.026 2.864 18.56-5.63 1.683-7.461-5.469-14.581-12.93-12.94z"/><path d="m168 44h-113c-6.075 0-11 4.925-11 11v44c0 6.075 4.925 11 11 11h113c6.075 0 11-4.925 11-11v-44c0-6.075-4.925-11-11-11zm-11 44h-91v-22h91z"/></g><path d="m501 380c6.075 0 11-4.925 11-11v-44c0-6.075-4.925-11-11-11h-158.49v-113.727c0-6.075-4.925-11-11-11h-151.02c-6.075 0-11 4.925-11 11v113.727h-24.99v-160h67.5c6.075 0 11-4.925 11-11v-132c0-6.075-4.925-11-11-11h-201c-6.075 0-11 4.925-11 11v132c0 6.075 4.925 11 11 11h67.5v160h-67.5c-6.075 0-11 4.925-11 11v44c0 6.075 4.925 11 11 11h11v22h-11c-6.075 0-11 4.925-11 11v88c0 6.075 4.925 11 11 11h490c6.075 0 11-4.925 11-11v-88c0-6.075-4.925-11-11-11h-11v-22zm-309.51-168.727h129.02v102.727h-129.02zm-169.49-189.273h179v110h-179zm78.5 132h22v160h-22zm-78.5 182h468v22h-468zm22 44h201v22h-201zm446 110h-468v-66h468zm-22-88h-201v-22h201z"/></g><g/><g/><g/><g/><g/><g/><g/><g/><g/><g/><g/><g/><g/><g/><g/></svg>