<svg id="Capa_1" enable-background="new 0 0 512 512" viewBox="0 0 512 512" xmlns="http://www.w3.org/2000/svg" fill="#052438"><g><g fill="#0496FF"><path d="m267 127.144-6.929-2.76c-2.615-1.042-5.527-1.042-8.143 0l-6.929 2.76v-39.871h-22v56.094c0 3.647 1.808 7.058 4.827 9.104 3.018 2.046 6.854 2.464 10.244 1.114l17.93-7.142 17.929 7.143c1.314.523 2.695.781 4.07.781 2.171 0 4.326-.643 6.174-1.896 3.02-2.047 4.827-5.457 4.827-9.104v-56.094h-22z"/><path d="m342.511 212v39.871l-6.929-2.76c-2.615-1.042-5.527-1.042-8.143 0l-6.929 2.76v-39.871h-22v56.094c0 3.647 1.808 7.058 4.827 9.104 3.018 2.046 6.854 2.464 10.244 1.114l17.929-7.143 17.929 7.143c1.314.523 2.695.781 4.07.781 2.171 0 4.326-.643 6.174-1.896 3.02-2.047 4.827-5.457 4.827-9.104v-56.093z"/><path d="m191.489 251.871-6.929-2.76c-2.615-1.042-5.527-1.042-8.143 0l-6.929 2.76v-39.871h-22v56.094c0 3.647 1.808 7.058 4.827 9.104s6.854 2.464 10.244 1.114l17.929-7.143 17.929 7.143c1.314.523 2.695.781 4.07.781 2.171 0 4.326-.643 6.174-1.896 3.02-2.047 4.827-5.457 4.827-9.104v-56.093h-22v39.871z"/></g><path d="m501 391.727c6.075 0 11-4.925 11-11v-44c0-6.075-4.925-11-11-11h-82.979v-113.727c0-6.075-4.925-11-11-11h-64.51v-113.727c0-6.075-4.925-11-11-11h-151.022c-6.075 0-11 4.925-11 11v113.727h-64.51c-6.075 0-11 4.925-11 11v113.727h-82.979c-6.075 0-11 4.925-11 11v44c0 6.075 4.925 11 11 11h11v22h-11c-6.075 0-11 4.925-11 11s4.925 11 11 11h490c6.075 0 11-4.925 11-11s-4.925-11-11-11h-11v-22zm-104.979-66h-129.021v-102.727h129.021zm-204.532-227.454h129.021v102.727h-129.021zm-75.51 124.727h129.021v102.727h-129.021zm-93.979 124.727h468v22h-468zm402 44v22h-135v-22zm-201 0v22h-135v-22zm-179 22v-22h22v22zm201 0v-22h22v22zm223 0h-22v-22h22z"/></g><g/><g/><g/><g/><g/><g/><g/><g/><g/><g/><g/><g/><g/><g/><g/></svg>