<svg id="Capa_1" enable-background="new 0 0 512 512" viewBox="0 0 512 512" xmlns="http://www.w3.org/2000/svg" fill="#052438"><g><path d="m460.483 238.606-63.605-108.18c-1.977-3.361-5.584-5.425-9.482-5.425h-312.79c-3.898 0-7.506 2.063-9.482 5.425l-63.606 108.18c-2.401 4.083-1.918 9.245 1.198 12.812l220 251.819c2.089 2.391 5.109 3.763 8.284 3.763s6.195-1.372 8.284-3.763l88.652-101.474c3.997-4.575 3.528-11.524-1.047-15.521s-11.524-3.527-15.521 1.047l-59.367 67.953 53.633-200.062h121.15l-31.624 36.197c-3.997 4.575-3.528 11.524 1.047 15.521 4.577 3.998 11.525 3.528 15.521-1.047l47.556-54.435c3.117-3.565 3.599-8.727 1.199-12.81zm-28.711-5.425h-125.352l-15.246-86.18h89.928zm-275.405 22 53.632 200.062-174.783-200.062zm112.465-108.18 15.247 86.18h-106.156l15.247-86.18zm-187.933 0h89.929l-15.246 86.18h-125.354zm150.101 301.617-51.856-193.437h103.714z"/><g fill="#0496FF"><path d="m419.784 381.733-9.146-3.788c-1.941-.805-2.822-2.352-3.175-3.202s-.823-2.567-.019-4.511c.804-1.941 2.351-2.822 3.201-3.174.851-.353 2.567-.823 4.51-.019l4.572 1.894c5.612 2.326 12.046-.34 14.372-5.954 2.324-5.613-.342-12.048-5.954-14.372l-4.571-1.894c-.521-.216-1.045-.414-1.573-.597v-2.789c0-6.075-4.925-11-11-11s-11 4.925-11 11v4.44c-5.826 3.022-10.353 7.936-12.882 14.046-5.889 14.214.885 30.567 15.101 36.456l9.145 3.787c2.955 1.225 4.418 4.756 3.193 7.712-.804 1.941-2.351 2.822-3.201 3.175-.851.351-2.569.823-4.508.02l-4.572-1.895c-5.613-2.325-12.048.338-14.373 5.951-2.325 5.612.339 12.048 5.951 14.373l4.574 1.896c.52.215 1.044.414 1.572.597v2.788c0 6.075 4.925 11 11 11s11-4.925 11-11v-4.44c5.826-3.022 10.352-7.936 12.883-14.045 5.886-14.214-.888-30.568-15.1-36.455z"/><path d="m411 289c-55.691 0-101 45.309-101 101s45.309 101 101 101 101-45.309 101-101-45.308-101-101-101zm0 180c-43.561 0-79-35.439-79-79s35.439-79 79-79 79 35.439 79 79-35.439 79-79 79z"/><path d="m356.688 44.302 1.744-1.744v40.114c0 6.075 4.925 11 11 11s11-4.925 11-11v-40.114l1.744 1.744c2.148 2.147 4.963 3.222 7.778 3.222 2.814 0 5.63-1.074 7.778-3.222 4.296-4.296 4.296-11.261 0-15.557l-20.522-20.523c-2.062-2.063-4.861-3.222-7.778-3.222s-5.716 1.159-7.778 3.222l-20.522 20.523c-4.296 4.296-4.296 11.261 0 15.557 4.296 4.295 11.261 4.295 15.556 0z"/><path d="m442.733 44.302 1.744-1.744v101.614c0 6.075 4.925 11 11 11s11-4.925 11-11v-101.615l1.745 1.745c2.148 2.147 4.963 3.222 7.778 3.222s5.63-1.074 7.778-3.222c4.296-4.296 4.296-11.261 0-15.557l-20.523-20.523c-2.063-2.063-4.861-3.222-7.778-3.222-2.918 0-5.716 1.159-7.778 3.222l-20.522 20.523c-4.296 4.296-4.296 11.261 0 15.557 4.296 4.295 11.261 4.295 15.556 0z"/></g></g><g/><g/><g/><g/><g/><g/><g/><g/><g/><g/><g/><g/><g/><g/><g/></svg>