<svg id="Capa_1" enable-background="new 0 0 511.988 511.988" viewBox="0 0 511.988 511.988" xmlns="http://www.w3.org/2000/svg" fill="#052438"><g><g><path d="m431.259 65.707-62.486-62.485c-2.063-2.063-4.86-3.222-7.778-3.222h-220.002c-6.075 0-11 4.925-11 11v82.963h-41.485c-6.075 0-11 4.925-11 11v396.025c0 6.075 4.925 11 11 11h282.488c6.075 0 11-4.925 11-11v-82.963h41.485c6.075 0 11-4.925 11-11v-333.54c-.001-2.917-1.159-5.715-3.222-7.778zm-59.264-28.151 24.929 24.929h-24.929zm-11.999 452.432h-260.488v-374.025h30.485v291.062c0 6.075 4.925 11 11 11h219.003zm-208.003-93.963v-374.025h198.002v51.485c0 6.075 4.925 11 11 11h51.485v311.54z"/><path d="m379.478 242.017h-150.483c-6.075 0-11 4.925-11 11s4.925 11 11 11h150.482c6.075 0 11-4.925 11-11s-4.924-11-10.999-11z"/><path d="m379.478 286.02h-150.483c-6.075 0-11 4.925-11 11s4.925 11 11 11h150.482c6.075 0 11-4.925 11-11s-4.924-11-10.999-11z"/><path d="m379.478 330.022h-150.483c-6.075 0-11 4.925-11 11s4.925 11 11 11h150.482c6.075 0 11-4.925 11-11s-4.924-11-10.999-11z"/></g><g fill="#0496FF"><path d="m316.995 66.003h-132c-6.075 0-11 4.925-11 11v124.727c0 6.075 4.925 11 11 11h132c6.075 0 11-4.925 11-11v-124.727c0-6.075-4.925-11-11-11zm-77 22h22v28.871l-6.929-2.76c-2.614-1.042-5.528-1.042-8.143 0l-6.929 2.76v-28.871zm66 102.727h-110v-102.727h22v45.094c0 3.647 1.808 7.058 4.827 9.104s6.856 2.464 10.245 1.114l17.929-7.143 17.929 7.143c1.314.523 2.695.781 4.07.781 2.171 0 4.326-.643 6.174-1.896 3.019-2.047 4.827-5.457 4.827-9.104v-45.093h22v102.727z"/><path d="m195.154 248.81c-2.689-7.103-12.733-9.085-17.94-3.57-6.89 6.818-1.904 18.829 7.781 18.78 7.574.207 13.284-8.285 10.159-15.21z"/><path d="m195.154 292.81c-2.686-7.102-12.735-9.077-17.94-3.57-6.886 6.814-1.912 18.841 7.781 18.78 7.583.216 13.281-8.281 10.159-15.21z"/><path d="m195.154 336.819c-2.688-7.115-12.721-9.079-17.94-3.58-6.882 6.808-1.911 18.855 7.781 18.78 7.577.224 13.284-8.28 10.159-15.2z"/></g></g><g/><g/><g/><g/><g/><g/><g/><g/><g/><g/><g/><g/><g/><g/><g/></svg>