<svg id="Layer_1" enable-background="new 0 0 512 512" viewBox="0 0 512 512" xmlns="http://www.w3.org/2000/svg" fill="#052438"><g><path d="m346 133c0 18.196-14.804 33-33 33h-258c-18.196 0-33-14.804-33-33l-20.301 13.589c6.064 23.777 27.662 41.411 53.301 41.411h91.197v17.648c0 20.741 16.875 37.616 37.616 37.616h.374c20.741 0 37.616-16.875 37.616-37.616v-17.648h91.197c24.328 0 45.018-15.877 52.251-37.814zm-146.197 72.648c0 8.61-7.005 15.616-15.616 15.616h-.374c-8.61 0-15.616-7.005-15.616-15.616v-17.648h31.605v17.648z" fill="#0496FF"/><g><path d="m368 221v-129.51c0-19.424-15.803-35.228-35.228-35.228h-83.761v-45.262c0-6.075-4.925-11-11-11h-108.023c-6.075 0-11 4.925-11 11v45.262h-83.76c-19.425 0-35.228 15.803-35.228 35.228v213.448c0 19.424 15.803 35.228 35.228 35.228h243.772v-22h-243.772c-7.293 0-13.228-5.934-13.228-13.228v-213.448c0-7.293 5.934-13.228 13.228-13.228h297.545c7.293 0 13.228 5.934 13.228 13.228v129.51zm-140.988-164.738h-86.023v-34.262h86.023z"/><path d="m453.5 325.985h-83c-6.075 0-11 4.925-11 11s4.925 11 11 11h83c6.075 0 11-4.925 11-11s-4.925-11-11-11z"/><path d="m453.5 422.045h-83c-6.075 0-11 4.925-11 11s4.925 11 11 11h83c6.075 0 11-4.925 11-11s-4.925-11-11-11z"/><path d="m359.5 288.955c0 6.075 4.925 11 11 11h83c6.075 0 11-4.925 11-11s-4.925-11-11-11h-83c-6.075 0-11 4.925-11 11z"/><path d="m453.5 374.015h-83c-6.075 0-11 4.925-11 11s4.925 11 11 11h83c6.075 0 11-4.925 11-11s-4.925-11-11-11z"/></g><g fill="#0496FF"><path d="m326.5 347.99c10.804-.043 15.08-14.123 6.11-20.15-10.017-6.544-21.793 5.223-15.26 15.25 1.997 3.029 5.535 4.906 9.15 4.9z"/><path d="m316.34 428.84c-3.096 6.982 2.536 15.387 10.16 15.2 7.632.186 13.245-8.214 10.16-15.2-3.618-8.983-16.698-8.982-20.32 0z"/><path d="m326.5 299.96c7.631.159 13.246-8.213 10.16-15.21-3.617-8.983-16.699-8.982-20.32 0-3.097 6.993 2.537 15.37 10.16 15.21z"/><path d="m316.34 380.81c-3.097 6.993 2.537 15.37 10.16 15.21 7.633.157 13.248-8.214 10.16-15.21-3.617-8.983-16.7-8.982-20.32 0z"/><path d="m501 210h-222c-6.075 0-11 4.925-11 11v280c0 6.075 4.925 11 11 11h222c6.075 0 11-4.925 11-11v-280c0-6.075-4.925-11-11-11zm-11 280h-200v-258h200z"/></g></g><g/><g/><g/><g/><g/><g/><g/><g/><g/><g/><g/><g/><g/><g/><g/></svg>