<svg id="Layer_1" enable-background="new 0 0 512.001 512.001" viewBox="0 0 512.001 512.001" xmlns="http://www.w3.org/2000/svg" fill="#052438"><g><g fill="#0496FF"><path d="m295.908 267.371h-145.815c-18.196 0-33-14.804-33-33l-20.881 11.07c5.137 25.039 27.344 43.93 53.881 43.93h61.907v15.259c0 6.075 4.925 11 11 11s11-4.925 11-11v-15.259h61.907c26.298 0 48.344-18.552 53.738-43.255l-20.738-11.745c.001 18.196-14.803 33-32.999 33z"/><path d="m388.6 44.005h-160.621c-6.075 0-11 4.925-11 11s4.925 11 11 11h160.621c6.075 0 11-4.925 11-11s-4.925-11-11-11z"/><path d="m115.251 66c7.629.186 13.245-8.222 10.16-15.2-3.627-8.979-16.696-8.986-20.32 0-3.087 6.983 2.528 15.387 10.16 15.2z"/><path d="m165.294 66c7.629.186 13.245-8.222 10.16-15.2-3.628-8.979-16.696-8.986-20.32 0-3.087 6.983 2.529 15.387 10.16 15.2z"/><path d="m55.048 50.8c-3.087 6.983 2.529 15.387 10.16 15.2 7.629.186 13.245-8.222 10.16-15.2-3.628-8.978-16.697-8.985-20.32 0z"/></g><g><path d="m435.001 0h-424c-6.075 0-11 4.925-11 11v426.087c0 6.075 4.925 11 11 11h340.592v-22h-329.592v-316.082h402v241.016h22v-340.021c0-6.075-4.925-11-11-11zm-413 88.005v-66.005h402v66.005z"/><path d="m350.908 325.009v-93.607c0-21.715-17.667-39.381-39.381-39.381h-37.861v-37.015c0-6.075-4.925-11-11-11h-79.33c-6.075 0-11 4.925-11 11v37.015h-37.861c-21.715 0-39.381 17.667-39.381 39.381v120.222c0 21.715 17.667 39.381 39.381 39.381h177.052c11.62 0 22.59-5.1 30.097-13.991l-16.811-14.192c-3.317 3.93-8.16 6.184-13.287 6.184h-177.051c-9.584 0-17.381-7.797-17.381-17.381v-120.223c0-9.584 7.797-17.381 17.381-17.381h177.052c9.584 0 17.381 7.797 17.381 17.381v93.607zm-156.572-159.004h57.33v26.015h-57.33z"/></g><g><path d="m446.246 512.001c-2.917 0-5.715-1.159-7.778-3.222l-46.253-46.253-18.091 28.749c-2.323 3.692-6.607 5.661-10.925 5.022-4.315-.641-7.844-3.771-8.996-7.979l-45.415-166.018c-1.042-3.811.039-7.887 2.832-10.681 2.794-2.793 6.871-3.875 10.681-2.832l166.017 45.414c4.208 1.151 7.338 4.68 7.979 8.996.64 4.315-1.33 8.601-5.022 10.925l-28.749 18.092 46.253 46.253c4.295 4.296 4.295 11.261 0 15.557l-54.755 54.755c-2.063 2.063-4.861 3.222-7.778 3.222zm-55.999-78c2.9 0 5.704 1.147 7.778 3.222l48.221 48.222 39.199-39.199-48.222-48.222c-2.366-2.366-3.526-5.681-3.153-9.006.374-3.325 2.24-6.3 5.072-8.082l19.247-12.112-123.292-33.727 33.727 123.293 12.112-19.248c1.782-2.832 4.757-4.699 8.082-5.072.41-.047.821-.069 1.229-.069z" fill="#0496FF"/></g></g><g/><g/><g/><g/><g/><g/><g/><g/><g/><g/><g/><g/><g/><g/><g/></svg>