<svg id="Layer_1" enable-background="new 0 0 512 512" viewBox="0 0 512 512" xmlns="http://www.w3.org/2000/svg" fill="#052438"><g><g fill="#0496FF"><path d="m383.442 0c-70.88 0-128.545 57.665-128.545 128.545 0 21.521 5.429 42.821 15.7 61.6l19.302-10.557c-6.751-12.343-10.965-26.01-12.421-40.043h55.953c.525 17.267 2.274 34.086 5.145 49.188l21.613-4.107c-2.622-13.797-4.239-29.2-4.751-45.081h56.009c-1.921 63.061-20.029 95.545-28.005 95.545l-.852-.012-.14 22 .285.004c.235.004.47.008.707.008 70.88 0 128.545-57.665 128.545-128.545s-57.665-128.545-128.545-128.545zm105.98 117.545h-55.97c-.851-28.429-4.986-54.946-11.869-75.595-1.906-5.717-3.922-10.676-6.007-14.994 39.727 12.595 69.447 47.891 73.846 90.589zm-144.121-75.595c-6.883 20.649-11.018 47.166-11.869 75.595h-55.97c4.399-42.698 34.119-77.994 73.846-90.589-2.085 4.318-4.101 9.276-6.007 14.994zm10.136 75.595c1.921-63.061 20.029-95.545 28.005-95.545s26.084 32.484 28.005 95.545zm60.139 112.589c2.085-4.318 4.102-9.276 6.007-14.994 6.883-20.65 11.018-47.167 11.869-75.595h55.97c-4.399 42.697-34.119 77.994-73.846 90.589z"/><path d="m324.136 291.116c3.177-4.891 5.03-10.716 5.03-16.97 0-17.231-14.018-31.249-31.249-31.249h-20.062c-6.075 0-11 4.925-11 11v88c0 2.928 1.167 5.736 3.244 7.801 2.062 2.05 4.85 3.199 7.756 3.199h.063c.18-.001 18.081-.104 24.462-.104 19.126 0 34.687-15.561 34.687-34.687.001-10.894-5.051-20.626-12.931-26.99zm-26.219-26.219c5.1 0 9.249 4.149 9.249 9.249s-4.149 9.249-9.249 9.249c-1.879 0-9.062.024-9.062.024v-18.521h9.062zm4.464 65.896c-2.999 0-8.491.022-13.526.046v-25.414c.428-.002 13.526-.006 13.526-.006 6.996 0 12.687 5.691 12.687 12.687s-5.691 12.687-12.687 12.687z"/><path d="m202.388 242.897c-23.417 0-42.467 19.051-42.467 42.467v25.066c0 23.416 19.05 42.467 42.467 42.467s42.467-19.051 42.467-42.467v-25.066c0-23.416-19.05-42.467-42.467-42.467zm20.467 67.534c0 11.286-9.181 20.467-20.467 20.467s-20.467-9.181-20.467-20.467v-25.066c0-11.286 9.181-20.467 20.467-20.467s20.467 9.181 20.467 20.467z"/><path d="m126.922 242.897c-6.075 0-11 4.925-11 11v70.333c0 2.551-1.3 4.857-3.392 6.018-3.952 2.194-8.705-2.264-8.904-2.455-1.99-1.987-4.669-3.149-7.704-3.149-6.075 0-11 4.925-11 11 0 3.025 1.222 5.764 3.198 7.753l-.002.002c.008.008.016.016.024.023.001.001.002.002.003.003 4.253 4.268 12.458 9.517 22.044 9.517 4.149 0 8.56-.985 13.018-3.459 9.076-5.038 14.714-14.714 14.714-25.253v-70.333c.001-6.075-4.924-11-10.999-11z"/></g><g><path d="m63.634 113.094c-4.295 4.296-4.295 11.261 0 15.557 4.296 4.296 11.261 4.295 15.557 0 8.609-8.61 20.056-13.351 32.231-13.351 12.176 0 23.623 4.741 32.232 13.351 2.148 2.148 4.963 3.222 7.778 3.222s5.63-1.074 7.778-3.222c4.295-4.296 4.295-11.261 0-15.557-12.765-12.765-29.736-19.794-47.789-19.794-18.051-.001-35.023 7.029-47.787 19.794z"/><path d="m41.263 90.723c38.687-38.687 101.633-38.686 140.318 0 2.148 2.148 4.963 3.222 7.778 3.222s5.63-1.074 7.778-3.222c4.295-4.296 4.295-11.261 0-15.557-47.264-47.264-124.168-47.264-171.431 0-4.295 4.296-4.295 11.261 0 15.557 4.296 4.296 11.261 4.296 15.557 0z"/><path d="m393.52 364.932v-134.158c0-31.379-25.528-56.908-56.907-56.908h-251.277c-31.379 0-56.908 25.529-56.908 56.908v159.226h-17.415c-6.075 0-11 4.925-11 11v24.734c0 23.306 18.96 42.266 42.266 42.266h341.086v-22h-341.086c-11.175 0-20.266-9.091-20.266-20.266v-13.734h346.974v-22h-318.56v-159.226c0-19.249 15.66-34.908 34.908-34.908h251.277c19.248 0 34.907 15.66 34.907 34.908v134.157h22.001z"/></g><g><path d="m456.827 512c-2.815 0-5.63-1.074-7.778-3.222l-33.827-33.828-15.315 20.139c-2.564 3.37-6.834 4.971-10.981 4.114-4.147-.856-7.434-4.017-8.452-8.127l-32.028-129.295c-.927-3.743.173-7.697 2.899-10.423 2.727-2.726 6.68-3.827 10.423-2.899l129.294 32.027c4.11 1.018 7.271 4.305 8.127 8.452s-.743 8.417-4.114 10.981l-20.139 15.315 33.828 33.828c4.295 4.296 4.295 11.261 0 15.557l-44.16 44.16c-2.146 2.147-4.962 3.221-7.777 3.221zm-42.734-64.735c2.907 0 5.708 1.152 7.778 3.222l34.957 34.958 28.604-28.604-34.958-34.958c-2.246-2.246-3.411-5.353-3.197-8.521.215-3.168 1.789-6.09 4.316-8.013l11.877-9.032-89.283-22.117 22.117 89.283 9.032-11.877c1.922-2.528 4.844-4.102 8.013-4.316.248-.017.496-.025.744-.025z" fill="#0496FF"/></g></g><g/><g/><g/><g/><g/><g/><g/><g/><g/><g/><g/><g/><g/><g/><g/></svg>