<svg id="Layer_1" enable-background="new 0 0 512 512" viewBox="0 0 512 512" xmlns="http://www.w3.org/2000/svg" fill="#E6ECF2"><g><g fill="#0496FF"><path d="m124.188 157.212h94.425c6.075 0 11-4.925 11-11 0-22.101-12.381-41.363-30.571-51.219 3.383-5.18 5.358-11.359 5.358-17.994 0-18.196-14.804-33-33-33s-33 14.804-33 33c0 6.635 1.975 12.814 5.358 17.994-18.19 9.856-30.571 29.118-30.571 51.219.001 6.076 4.926 11 11.001 11zm47.212-91.212c6.065 0 11 4.935 11 11s-4.935 11-11 11-11-4.935-11-11 4.935-11 11-11zm0 44c16.135 0 29.838 10.605 34.505 25.212h-69.01c4.667-14.607 18.371-25.212 34.505-25.212z"/><path d="m387.812 355.212h-54.668c-6.075 0-11 4.925-11 11s4.925 11 11 11h28.111l-66.144 66.145-77.683-77.684c-4.297-4.296-11.261-4.296-15.557 0l-85.462 85.461c-4.295 4.296-4.295 11.261 0 15.557 4.296 4.296 11.261 4.296 15.557 0l77.684-77.684 77.683 77.684c2.148 2.148 4.963 3.222 7.778 3.222s5.63-1.074 7.778-3.222l73.922-73.922v28.111c0 6.075 4.925 11 11 11s11-4.925 11-11v-54.668c.001-6.075-4.924-11-10.999-11z"/></g><g><path d="m442.806 92.848c-.001-2.862-1.112-5.675-3.216-7.778l-81.847-81.848c-2.103-2.104-4.917-3.215-7.778-3.215v-.007h-269.777c-6.075 0-11 4.925-11 11v490c0 6.075 4.925 11 11 11h351.624c6.075 0 11-4.925 11-11v-408.152zm-81.842-55.292 44.292 44.292h-44.292zm-269.776 452.444v-468h247.776v70.848c0 6.075 4.925 11 11 11h70.848v386.152z"/><path d="m124.188 289.212h233.624c6.075 0 11-4.925 11-11s-4.925-11-11-11h-233.624c-6.075 0-11 4.925-11 11s4.925 11 11 11z"/><path d="m387.812 311.212h-263.624c-6.075 0-11 4.925-11 11s4.925 11 11 11h263.624c6.075 0 11-4.925 11-11s-4.925-11-11-11z"/><path d="m124.188 201.212h233.624c6.075 0 11-4.925 11-11s-4.925-11-11-11h-233.624c-6.075 0-11 4.925-11 11s4.925 11 11 11z"/><path d="m387.812 223.212h-263.624c-6.075 0-11 4.925-11 11s4.925 11 11 11h263.624c6.075 0 11-4.925 11-11s-4.925-11-11-11z"/></g></g><g/><g/><g/><g/><g/><g/><g/><g/><g/><g/><g/><g/><g/><g/><g/></svg>