<svg id="Layer_1" enable-background="new 0 0 512.001 512.001" viewBox="0 0 512.001 512.001" xmlns="http://www.w3.org/2000/svg" fill="#E6ECF2"><g><g fill="#0496FF"><path d="m411.861 9.113h22v157.899h-22z" transform="matrix(.707 -.707 .707 .707 61.584 324.801)"/><path d="m142.114 392.249c3.828 14.63-3.259 30.342-16.85 37.361l-88.662 45.788 45.788-88.662c7.019-13.591 22.735-20.674 37.361-16.85l5.568-21.283c-24.5-6.412-50.777 5.381-62.477 28.038l-61.615 119.312c-2.197 4.254-1.39 9.44 1.995 12.826 2.114 2.113 4.929 3.222 7.782 3.222 1.716 0 3.446-.401 5.044-1.227l119.312-61.617c22.657-11.701 34.449-37.976 28.038-62.477z"/><path d="m281.237 184.095c-4.691 4.692-7.664 10.458-8.934 16.513-19.831-5.893-42.207-1.028-57.835 14.6l15.557 15.557c14.119-14.119 37.093-14.119 51.212 0 14.12 14.119 14.12 37.093 0 51.212l15.557 15.557c15.628-15.628 20.493-38.003 14.6-57.835 6.055-1.27 11.821-4.242 16.512-8.934 12.866-12.867 12.866-33.802 0-46.669-12.866-12.868-33.801-12.867-46.669-.001zm31.113 31.113c-4.288 4.287-11.264 4.288-15.553.003-.001-.001-.002-.002-.003-.003s-.002-.002-.003-.003c-4.285-4.29-4.284-11.266.003-15.553 2.145-2.145 4.961-3.217 7.779-3.217 2.816 0 5.634 1.073 7.778 3.216 4.288 4.288 4.288 11.268-.001 15.557z"/></g><g><path d="m235.715 152.981c-33.994 33.995-33.994 89.309 0 123.304 16.998 16.997 39.325 25.496 61.652 25.496s44.654-8.499 61.652-25.496c33.994-33.995 33.994-89.309 0-123.304-33.995-33.994-89.309-33.993-123.304 0zm107.748 107.748c-25.417 25.412-66.775 25.416-92.191 0-25.417-25.417-25.417-66.774 0-92.191 12.71-12.71 29.4-19.062 46.096-19.062 16.691 0 33.388 6.355 46.095 19.062 25.417 25.417 25.417 66.774 0 92.191z"/><path d="m511.993 11.405c.112-3.056-1.052-6.021-3.214-8.183-2.163-2.162-5.127-3.33-8.183-3.214l-22.95.845c-91.438 3.366-177.969 37.401-246.833 96.498v-.16h-70.564c-88.361 0-160.249 71.887-160.249 160.249 0 6.075 4.925 11 11 11h69.032l18.785 18.785-18.003 35.059c-2.183 4.25-1.372 9.424 2.007 12.803l94.095 94.095c2.114 2.113 4.929 3.222 7.782 3.222 1.708 0 3.43-.398 5.021-1.215l35.059-18.003 18.785 18.785v69.032c0 6.075 4.925 11 11 11 88.361 0 160.249-71.887 160.249-160.249v-70.564h-.16c59.097-68.864 93.132-155.395 96.498-246.833zm-351.744 107.785h47.032l-127.249 127.249h-57.599c5.627-71.105 65.289-127.249 137.816-127.249zm26.553 288.764-82.755-82.755 11.11-21.635 93.28 93.28zm78.76 81.613v-57.599l127.249-127.248v47.032c0 72.527-56.143 132.189-127.249 137.815zm223.601-456.021c-3.542 96.213-42.985 186.693-111.064 254.772l-123.537 123.538-154.417-154.417 123.538-123.538c68.079-68.078 158.559-107.522 254.772-111.063l11.117-.409z"/></g></g><g/><g/><g/><g/><g/><g/><g/><g/><g/><g/><g/><g/><g/><g/><g/></svg>