<svg id="Layer_1" enable-background="new 0 0 512 512" viewBox="0 0 512 512" xmlns="http://www.w3.org/2000/svg" fill="#052438"><g><g fill="#0496FF"><path d="m452.453 381.623c3.383-5.18 5.358-11.359 5.358-17.994 0-18.196-14.804-33-33-33s-33 14.804-33 33c0 6.635 1.975 12.814 5.358 17.994-18.19 9.856-30.571 29.118-30.571 51.219h22c0-19.968 16.245-36.212 36.212-36.212s36.212 16.245 36.212 36.212h22c.001-22.101-12.38-41.363-30.569-51.219zm-38.642-17.993c0-6.065 4.935-11 11-11s11 4.935 11 11-4.935 11-11 11-11-4.935-11-11z"/><path d="m316.111 138.992h-176.411c-6.075 0-11 4.925-11 11v48.609c0 6.075 4.925 11 11 11h176.412c6.075 0 11-4.925 11-11v-48.609c-.001-6.075-4.925-11-11.001-11zm-11 48.609h-154.411v-26.609h154.412v26.609z"/><path d="m285.995 258.21c6.075 0 11-4.925 11-11s-4.925-11-11-11h-116.179c-6.075 0-11 4.925-11 11s4.925 11 11 11z"/><path d="m316.111 284.819h-176.411c-6.075 0-11 4.925-11 11s4.925 11 11 11h176.412c6.075 0 11-4.925 11-11s-4.925-11-11.001-11z"/></g><g><path d="m455.811 292.33v-230.338c0-6.075-4.925-11-11-11h-433.811c-6.075 0-11 4.925-11 11v321.827c0 6.075 4.925 11 11 11h329.185c9.424 37.965 43.788 66.189 84.626 66.189 48.076 0 87.189-39.113 87.189-87.189 0-37.163-23.373-68.963-56.189-81.489zm-433.811-219.338h411.811v214.1c-2.959-.305-5.962-.462-9-.462-4.417 0-8.758.333-13 .97v-137.608c0-6.075-4.925-11-11-11-18.196 0-33-14.804-33-33 0-6.075-4.925-11-11-11h-257.811c-6.075 0-11 4.925-11 11 0 18.196-14.804 33-33 33-6.075 0-11 4.925-11 11v145.827c0 6.075 4.925 11 11 11 18.196 0 33 14.804 33 33 0 6.075 4.925 11 11 11h241.707c-1.923 7.023-2.986 14.396-3.072 22h-315.635zm367.811 220.98c-16.524 7.271-30.381 19.522-39.653 34.847h-241.263c-4.386-21.517-21.378-38.509-42.895-42.895v-126.037c21.517-4.386 38.509-21.378 42.895-42.895h238.021c4.386 21.517 21.378 38.509 42.895 42.895zm35 145.036c-35.945 0-65.189-29.244-65.189-65.189s29.244-65.189 65.189-65.189 65.189 29.244 65.189 65.189-29.244 65.189-65.189 65.189z"/><path d="m48.89 115.14c7.104 4.902 17.25-.516 17.11-9.15.129-8.624-10.013-14.055-17.11-9.139-6.432 4.014-6.432 14.27 0 18.289z"/><path d="m65.16 335.61c-2.698-7.098-12.729-9.089-17.94-3.57-6.891 6.808-1.905 18.844 7.781 18.779 7.579.216 13.272-8.283 10.159-15.209z"/><path d="m390.65 110.2c2.698 7.096 12.729 9.091 17.94 3.57 6.195-5.997 2.859-17.024-5.63-18.56-8.421-1.842-15.75 7.084-12.31 14.99z"/></g></g><g/><g/><g/><g/><g/><g/><g/><g/><g/><g/><g/><g/><g/><g/><g/></svg>