<svg id="Layer_1" enable-background="new 0 0 512 512" viewBox="0 0 512 512" xmlns="http://www.w3.org/2000/svg" fill="#052438"><g><g fill="#0496FF"><path d="m393 238c65.617 0 119-53.383 119-119 0-13.845-2.359-27.415-7.012-40.333-2.059-5.716-8.363-8.681-14.077-6.622-5.716 2.059-8.68 8.361-6.622 14.077 3.79 10.521 5.711 21.582 5.711 32.878 0 53.486-43.514 97-97 97s-97-43.514-97-97 43.514-97 97-97c15.08 0 29.65 3.431 42.811 9.914-4.897 1.113-8.556 5.484-8.556 10.718 0 6.075 4.925 11 11 11h31.113c6.075 0 11-4.925 11-11v-31.112c0-6.075-4.925-11-11-11s-11 4.925-11 11v8.004c-19.252-12.702-41.805-19.524-65.368-19.524-65.617 0-119 53.383-119 119s53.383 119 119 119z"/><path d="m382 61.182v46.818h-22.822c-6.075 0-11 4.925-11 11s4.925 11 11 11h33.822c6.075 0 11-4.925 11-11v-57.818c0-6.075-4.925-11-11-11s-11 4.925-11 11z"/><path d="m456.907 388.366h-145.814c-18.196 0-33-14.804-33-33l-20.775 11.575c5.33 24.788 27.417 43.425 53.775 43.425h61.907v15.26c0 6.075 4.925 11 11 11s11-4.925 11-11v-15.26h61.907c25.1 0 46.327-16.901 52.899-39.92l-19.899-15.08c0 18.196-14.803 33-33 33z"/><path d="m188.975 307.831-17.116 17.116c-2.442 2.441-3.595 5.888-3.115 9.307l9.351 66.617 21.786-3.058-8.588-61.188 13.239-13.238z"/><path d="m132.765 307.831-15.557 15.557 13.239 13.238-8.588 61.188 21.786 3.058 9.35-66.617c.48-3.419-.673-6.865-3.115-9.307z"/><path d="m180.556 165.921c-3.55-4.931-10.424-6.05-15.354-2.501-2.517 1.812-5.897 1.811-8.412 0-4.931-3.55-11.805-2.43-15.354 2.5s-2.43 11.805 2.5 15.354c5.102 3.673 11.08 5.509 17.059 5.509 5.978 0 11.958-1.837 17.059-5.509 4.931-3.548 6.051-10.423 2.502-15.353z"/></g><path d="m472.526 313.016h-37.861v-37.016c0-6.075-4.925-11-11-11h-79.33c-6.075 0-11 4.925-11 11v37.016h-12.141c-3.387-25.977-22.357-47.422-48.447-53.616l-38.593-9.163-31.705-12.257v-14.375c23.092-14.047 38.547-39.453 38.547-68.4v-43.171c0-44.112-35.888-80-80-80s-80 35.888-80 80v43.171c0 28.84 15.344 54.159 38.293 68.237v14.538l-31.707 12.258-38.59 9.162c-28.846 6.849-48.992 32.338-48.992 61.986v77.956c0 6.075 4.925 11 11 11h245.093v62.277c0 21.715 17.667 39.381 39.381 39.381h177.052c21.715 0 39.381-17.667 39.381-39.381v-120.223c0-21.714-17.666-39.38-39.381-39.38zm-117.191-26.016h57.33v26.016h-57.33zm-140.739-20.738-19.847 31.787-18.746-18.746 18.577-20.779zm-53.727-3.04-19.58-21.901v-8.578c6.307 1.604 12.908 2.462 19.707 2.462 6.708 0 13.222-.841 19.453-2.403v8.52zm.127-209.189c25.584 0 47.354 16.652 55.038 39.687-11.053-2.927-22.64-.046-31.159 7.996-6.481 6.118-14.961 9.487-23.879 9.487s-17.398-3.369-23.879-9.487c-6.342-5.987-14.382-9.112-22.64-9.112-2.834 0-5.695.369-8.52 1.116 7.686-23.034 29.455-39.687 55.039-39.687zm-58 101.172.002-29.493c.092-6.744 5.287-9.463 6.876-10.136 1.6-.677 7.203-2.522 12.141 2.139 10.581 9.988 24.424 15.489 38.98 15.489s28.399-5.5 38.98-15.489c4.938-4.662 10.542-2.816 12.14-2.139 1.59.673 6.785 3.392 6.877 10.152l.002 29.477c0 31.981-26.019 58-58 58s-57.998-26.019-57.998-58zm24.163 103.319 18.577 20.779-18.746 18.746-19.847-31.787zm128.934 93.872v35.945h-234.093v-66.956c0-19.41 13.189-36.097 32.074-40.581l31.538-7.488 30.044 48.117c1.776 2.844 4.752 4.723 8.083 5.104.417.047.833.071 1.248.071 2.899 0 5.703-1.147 7.777-3.222l28.105-28.105 28.105 28.105c2.075 2.074 4.877 3.222 7.778 3.222.414 0 .831-.023 1.248-.071 3.332-.38 6.308-2.259 8.083-5.104l30.044-48.118 31.538 7.488c16.102 3.823 28.056 16.52 31.231 32.21h-3.422c-21.715.003-39.381 17.669-39.381 39.383zm233.814 120.223c0 9.584-7.797 17.381-17.381 17.381h-177.052c-9.584 0-17.381-7.797-17.381-17.381v-120.223c0-9.584 7.797-17.381 17.381-17.381h177.052c9.584 0 17.381 7.797 17.381 17.381z"/></g><g/><g/><g/><g/><g/><g/><g/><g/><g/><g/><g/><g/><g/><g/><g/></svg>