<svg id="Capa_1" enable-background="new 0 0 512.006 512.006" viewBox="0 0 512.006 512.006" xmlns="http://www.w3.org/2000/svg" fill="#052438"><g><g fill="#0496FF"><path d="m256.133 43.98c-14.691 0-28.503 5.721-38.891 16.109-4.295 4.296-4.295 11.261 0 15.557 4.296 4.296 11.261 4.296 15.557 0 12.866-12.867 33.803-12.867 46.669 0 2.148 2.148 4.963 3.222 7.778 3.222s5.63-1.074 7.778-3.222c4.295-4.296 4.295-11.261 0-15.557-10.388-10.389-24.2-16.109-38.891-16.109z"/><path d="m326.136 28.976c-38.599-38.6-101.406-38.6-140.007 0-4.295 4.296-4.295 11.261 0 15.557 2.148 2.148 4.963 3.222 7.778 3.222s5.63-1.074 7.778-3.222c30.021-30.022 78.872-30.023 108.894 0 4.296 4.296 11.261 4.296 15.557 0s4.296-11.261 0-15.557z"/><path d="m346.124 214.043h82.882v22h-82.882z"/><path d="m405.323 102.043c-5.339 0-9.907 3.834-10.833 9.092l-6.853 38.908h-44.312v22h53.543c5.339 0 9.907-3.834 10.833-9.092l6.854-38.908h30.451v-22z"/><path d="m407.701 287.135c-.926-5.258-5.494-9.092-10.833-9.092h-70.175v22h60.943l6.854 38.908c.926 5.258 5.494 9.092 10.833 9.092h39.683v-22h-30.451z"/><path d="m83 214.043h82.882v22h-82.882z"/><path d="m104.305 162.951c.926 5.258 5.494 9.092 10.833 9.092h53.543v-22h-44.311l-6.853-38.908c-.926-5.258-5.495-9.092-10.833-9.092h-39.684v22h30.451z"/><path d="m104.305 287.135-6.854 38.908h-30.451v22h39.683c5.339 0 9.907-3.834 10.833-9.092l6.854-38.908h60.943v-22h-70.175c-5.339 0-9.908 3.834-10.833 9.092z"/><circle cx="256.133" cy="98.981" r="11"/></g><g><path d="m496.006 225.043c0-21.505-17.495-39-39-39s-39 17.495-39 39 17.495 39 39 39 39-17.495 39-39zm-56 0c0-9.374 7.626-17 17-17s17 7.626 17 17-7.626 17-17 17-17-7.626-17-17z"/><path d="m473.006 152.043c21.505 0 39-17.495 39-39s-17.495-39-39-39-39 17.495-39 39 17.495 39 39 39zm0-56c9.374 0 17 7.626 17 17s-7.626 17-17 17-17-7.626-17-17 7.626-17 17-17z"/><path d="m473.006 298.043c-21.505 0-39 17.495-39 39s17.495 39 39 39 39-17.495 39-39-17.495-39-39-39zm0 56c-9.374 0-17-7.626-17-17s7.626-17 17-17 17 7.626 17 17-7.626 17-17 17z"/><path d="m274.803 175.98h-37.34c-18.196 0-33 14.804-33 33s14.804 33 33 33h37.34c18.196 0 33-14.804 33-33s-14.804-33-33-33zm0 44h-37.34c-6.065 0-11-4.935-11-11s4.935-11 11-11h37.34c6.065 0 11 4.935 11 11s-4.935 11-11 11z"/><path d="m315.184 131.98h-118.102c-23.125 0-41.939 18.814-41.939 41.939v95.694c0 2.917 1.159 5.715 3.222 7.778l37.493 37.494c2.063 2.063 4.861 3.222 7.778 3.222h8.026v29.771c0 2.917 1.159 5.715 3.222 7.778l10.006 10.005-10.006 10.006c-2.063 2.063-3.222 4.861-3.222 7.778v25.625c0 2.917 1.159 5.715 3.222 7.778l10.006 10.005-10.006 10.006c-2.063 2.063-3.222 4.861-3.222 7.778v22.996c0 2.917 1.159 5.715 3.222 7.778l33.345 33.345c2.148 2.148 4.963 3.222 7.778 3.222s5.63-1.074 7.778-3.222l33.345-33.345c2.063-2.063 3.222-4.861 3.222-7.778v-149.526h8.279c2.917 0 5.715-1.159 7.778-3.222l37.494-37.494c2.063-2.063 3.222-4.861 3.222-7.778v-95.694c-.001-23.125-18.815-41.939-41.941-41.939zm-36.833 331.099-22.345 22.345-22.345-22.345v-13.883l14.562-14.562c4.295-4.296 4.295-11.261 0-15.557l-14.562-14.562v-16.513l14.562-14.562c4.295-4.295 4.295-11.26 0-15.556l-14.562-14.562v-25.215h44.689v144.972zm56.773-198.022-31.05 31.05h-95.882l-31.05-31.05v-91.138c0-10.995 8.945-19.939 19.939-19.939h118.103c10.995 0 19.939 8.945 19.939 19.939v91.138z"/><path d="m55 186.043c-21.505 0-39 17.495-39 39s17.495 39 39 39 39-17.495 39-39-17.495-39-39-39zm0 56c-9.374 0-17-7.626-17-17s7.626-17 17-17 17 7.626 17 17-7.626 17-17 17z"/><path d="m39 152.043c21.505 0 39-17.495 39-39s-17.495-39-39-39-39 17.495-39 39 17.495 39 39 39zm0-56c9.374 0 17 7.626 17 17s-7.626 17-17 17-17-7.626-17-17 7.626-17 17-17z"/><path d="m39 298.043c-21.505 0-39 17.495-39 39s17.495 39 39 39 39-17.495 39-39-17.495-39-39-39zm0 56c-9.374 0-17-7.626-17-17s7.626-17 17-17 17 7.626 17 17-7.626 17-17 17z"/></g></g><g/><g/><g/><g/><g/><g/><g/><g/><g/><g/><g/><g/><g/><g/><g/></svg>