<svg id="Capa_1" enable-background="new 0 0 512 512" viewBox="0 0 512 512" xmlns="http://www.w3.org/2000/svg" fill="#E6ECF2"><g><path d="m496.751 366.242-6.636-50.477c-.38-2.893-1.894-5.516-4.208-7.292l-152.969-117.419c10.983-44.327-4.304-93.031-42.784-122.568-33.865-25.995-79.326-31.728-118.64-14.964l8.63 20.237c32.018-13.656 69.04-8.988 96.614 12.178 42.169 32.369 50.142 93.011 17.774 135.18-26.863 34.997-73.903 47.318-114.397 29.961l-8.667 20.221c15.089 6.467 30.916 9.581 46.567 9.581 20.244 0 40.193-5.21 57.864-15.109l37.157 28.522c2.314 1.776 5.24 2.559 8.131 2.181l23.215-3.052 3.052 23.215c.38 2.892 1.894 5.515 4.208 7.292l23.25 17.847c2.313 1.776 5.238 2.561 8.132 2.181l23.214-3.052 3.052 23.214c.38 2.893 1.894 5.516 4.208 7.292l15.15 11.629c1.932 1.483 4.289 2.274 6.698 2.274.477 0 .956-.031 1.434-.094l50.477-6.636c6.025-.794 10.266-6.319 9.474-12.342zm-58.3-3.43-7.921-6.081-3.892-29.603c-.38-2.893-1.894-5.516-4.208-7.292-2.313-1.776-5.237-2.562-8.132-2.181l-29.603 3.893-16.021-12.298-3.892-29.603c-.792-6.023-6.316-10.261-12.34-9.473l-29.604 3.892-28.003-21.495c6.236-5.321 11.997-11.347 17.148-18.059 5.272-6.868 9.663-14.138 13.21-21.67l143.703 110.306 4.608 35.054z" fill="#0496FF"/><g><path d="m251.972 162.409c0-65.291-53.118-118.409-118.409-118.409s-118.409 53.118-118.409 118.409c0 48.644 29.488 90.525 71.525 108.722v48.123c0 2.917 1.159 5.715 3.222 7.778l16.557 16.556-16.558 16.557c-2.062 2.063-3.222 4.861-3.222 7.778v29.31c0 2.917 1.159 5.715 3.222 7.778l16.557 16.556-16.557 16.557c-2.062 2.063-3.222 4.861-3.222 7.778v19.098c0 2.917 1.159 5.715 3.222 7.778l36 36c2.148 2.148 4.963 3.222 7.778 3.222s5.63-1.074 7.778-3.222l36-36c2.062-2.063 3.222-4.861 3.222-7.778v-193.97c41.913-18.251 71.294-60.066 71.294-108.621zm-93.293 298.035-25 25-25-25v-9.986l21.113-21.112c4.295-4.296 4.295-11.261 0-15.557l-21.113-21.112v-20.198l21.113-21.112c4.295-4.296 4.295-11.261 0-15.557l-21.113-21.112v-36.519c8.027 1.724 16.35 2.639 24.884 2.639 8.616 0 17.018-.934 25.116-2.69zm-25.116-201.626c-53.16 0-96.409-43.249-96.409-96.409s43.249-96.409 96.409-96.409 96.409 43.249 96.409 96.409-43.249 96.409-96.409 96.409z"/><g><path d="m133.563 169.927c-21.951 0-39.809-17.858-39.809-39.809s17.858-39.809 39.809-39.809 39.809 17.858 39.809 39.809-17.859 39.809-39.809 39.809zm0-57.618c-9.82 0-17.809 7.989-17.809 17.809s7.989 17.809 17.809 17.809 17.809-7.989 17.809-17.809-7.989-17.809-17.809-17.809z"/></g></g><g><path d="m211.958 53.998c-.897-17.943-15.69-31.998-33.676-31.998-18.593 0-33.719 15.126-33.719 33.719v62.901c0 6.075-4.925 11-11 11s-11-4.925-11-11v-62.901c0-30.723 24.995-55.719 55.719-55.719 29.722 0 54.165 23.236 55.648 52.899z" fill="#0496FF"/></g></g><g/><g/><g/><g/><g/><g/><g/><g/><g/><g/><g/><g/><g/><g/><g/></svg>