<svg id="Capa_1" enable-background="new 0 0 512 512" viewBox="0 0 512 512" xmlns="http://www.w3.org/2000/svg" fill="#E6ECF2"><g><g fill="#0496FF"><path d="m485.012 141.47c-12.702-25.35-29.791-48.656-50.144-68.576h15.359c6.075 0 11-4.925 11-11s-4.925-11-11-11h-44.723c-6.075 0-11 4.925-11 11v44.723c0 6.075 4.925 11 11 11s11-4.925 11-11v-20.846c19.926 18.829 36.612 41.151 48.839 65.553 16.361 32.656 24.657 67.874 24.657 104.676 0 62.503-24.34 121.266-68.537 165.463s-102.96 68.537-165.463 68.537c-6.075 0-11 4.925-11 11s4.925 11 11 11c68.38 0 132.667-26.629 181.019-74.981s74.981-112.639 74.981-181.019c0-40.254-9.08-78.788-26.988-114.53z"/><path d="m106.497 394.383c-6.075 0-11 4.925-11 11v20.899c-46.952-44.134-73.497-105.057-73.497-170.282 0-62.503 24.34-121.266 68.537-165.463s102.96-68.537 165.463-68.537c6.075 0 11-4.925 11-11s-4.925-11-11-11c-68.38 0-132.667 26.628-181.019 74.981-48.352 48.352-74.981 112.639-74.981 181.019 0 40.122 9.023 78.541 26.819 114.19 12.717 25.476 29.861 48.908 50.301 68.916h-15.347c-6.075 0-11 4.925-11 11s4.925 11 11 11h44.723c6.075 0 11-4.925 11-11v-44.723c.001-6.075-4.924-11-10.999-11z"/></g><g><path d="m357.293 151.293c0-55.853-45.44-101.293-101.293-101.293s-101.293 45.44-101.293 101.293c0 40.612 24.028 75.712 58.611 91.847v59.395c0 2.917 1.159 5.715 3.222 7.778l9.118 9.118-9.119 9.119c-2.063 2.063-3.222 4.861-3.222 7.778v27.348c0 2.917 1.159 5.715 3.222 7.778l9.118 9.118-9.119 9.119c-2.063 2.063-3.222 4.861-3.222 7.778v21.849c0 2.917 1.159 5.715 3.222 7.778l31.682 31.682c2.15 2.148 4.965 3.222 7.78 3.222s5.63-1.074 7.778-3.222l31.682-31.682c2.063-2.063 3.222-4.861 3.222-7.778v-176.178c34.583-16.135 58.611-51.235 58.611-91.847zm-80.611 263.469-20.682 20.682-20.682-20.682v-12.736l13.675-13.675c2.063-2.063 3.222-4.861 3.222-7.778s-1.159-5.715-3.222-7.778l-13.675-13.675v-18.235l13.675-13.675c2.063-2.063 3.222-4.861 3.222-7.778s-1.159-5.715-3.222-7.778l-13.675-13.675v-47.519c6.679 1.391 13.596 2.125 20.682 2.125s14.003-.734 20.682-2.125zm-20.682-184.177c-43.722 0-79.293-35.57-79.293-79.292s35.571-79.293 79.293-79.293 79.293 35.571 79.293 79.293-35.571 79.292-79.293 79.292z"/><path d="m256 96.466c-18.876 0-34.233 15.357-34.233 34.233s15.357 34.233 34.233 34.233 34.233-15.357 34.233-34.233-15.357-34.233-34.233-34.233zm0 46.467c-6.746 0-12.233-5.488-12.233-12.233s5.488-12.233 12.233-12.233 12.233 5.488 12.233 12.233-5.487 12.233-12.233 12.233z"/></g></g><g/><g/><g/><g/><g/><g/><g/><g/><g/><g/><g/><g/><g/><g/><g/></svg>