<svg id="Capa_1" enable-background="new 0 0 512 512" viewBox="0 0 512 512" xmlns="http://www.w3.org/2000/svg" fill="#E6ECF2"><g><g><path d="m278 446h-44c-6.075 0-11 4.925-11 11s4.925 11 11 11h44c6.075 0 11-4.925 11-11s-4.925-11-11-11z"/><path d="m410 0h-308c-30.327 0-55 24.673-55 55v402c0 30.327 24.673 55 55 55h308c30.327 0 55-24.673 55-55v-402c0-30.327-24.673-55-55-55zm33 457c0 18.196-14.804 33-33 33h-308c-18.196 0-33-14.804-33-33v-402c0-18.196 14.804-33 33-33h308c18.196 0 33 14.804 33 33z"/><path d="m410 44h-308c-6.075 0-11 4.925-11 11v358c0 6.075 4.925 11 11 11h308c6.075 0 11-4.925 11-11v-358c0-6.075-4.925-11-11-11zm-11 358h-286v-336h286z"/><path d="m190 135h44v22h-44z"/><path d="m157 168h22v44h-22z"/><path d="m190 223h44v22h-44z"/><path d="m278 223h44v22h-44z"/><path d="m333 256h22v44h-22z"/><path d="m278 311h44v22h-44z"/><path d="m344 179c18.196 0 33-14.804 33-33s-14.804-33-33-33-33 14.804-33 33 14.804 33 33 33zm0-44c6.065 0 11 4.935 11 11s-4.935 11-11 11-11-4.935-11-11 4.935-11 11-11z"/><path d="m168 355c18.196 0 33-14.804 33-33s-14.804-33-33-33-33 14.804-33 33 14.804 33 33 33zm0-44c6.065 0 11 4.935 11 11s-4.935 11-11 11-11-4.935-11-11 4.935-11 11-11z"/></g><g><g><path d="m168 179c-18.196 0-33-14.804-33-33s14.804-33 33-33 33 14.804 33 33-14.804 33-33 33zm0-44c-6.065 0-11 4.935-11 11s4.935 11 11 11 11-4.935 11-11-4.935-11-11-11z" fill="#0496FF"/></g><g><path d="m256 179c-18.196 0-33-14.804-33-33s14.804-33 33-33 33 14.804 33 33-14.804 33-33 33zm0-44c-6.065 0-11 4.935-11 11s4.935 11 11 11 11-4.935 11-11-4.935-11-11-11z" fill="#0496FF"/></g><g><g><path d="m168 267c-18.196 0-33-14.804-33-33s14.804-33 33-33 33 14.804 33 33-14.804 33-33 33zm0-44c-6.065 0-11 4.935-11 11s4.935 11 11 11 11-4.935 11-11-4.935-11-11-11z" fill="#0496FF"/></g><g><path d="m256 267c-18.196 0-33-14.804-33-33s14.804-33 33-33 33 14.804 33 33-14.804 33-33 33zm0-44c-6.065 0-11 4.935-11 11s4.935 11 11 11 11-4.935 11-11-4.935-11-11-11z" fill="#0496FF"/></g><g><path d="m344 267c-18.196 0-33-14.804-33-33s14.804-33 33-33 33 14.804 33 33-14.804 33-33 33zm0-44c-6.065 0-11 4.935-11 11s4.935 11 11 11 11-4.935 11-11-4.935-11-11-11z" fill="#0496FF"/></g></g><g><path d="m256 355c-18.196 0-33-14.804-33-33s14.804-33 33-33 33 14.804 33 33-14.804 33-33 33zm0-44c-6.065 0-11 4.935-11 11s4.935 11 11 11 11-4.935 11-11-4.935-11-11-11z" fill="#0496FF"/></g><g><path d="m344 355c-18.196 0-33-14.804-33-33s14.804-33 33-33 33 14.804 33 33-14.804 33-33 33zm0-44c-6.065 0-11 4.935-11 11s4.935 11 11 11 11-4.935 11-11-4.935-11-11-11z" fill="#0496FF"/></g></g></g><g/><g/><g/><g/><g/><g/><g/><g/><g/><g/><g/><g/><g/><g/><g/></svg>