<svg id="Capa_1" enable-background="new 0 0 512 512" viewBox="0 0 512 512" xmlns="http://www.w3.org/2000/svg" fill="#E6ECF2"><g><g><g><g><path d="m245 59h22v40.88h-22z" fill="#0496FF"/></g><g><path d="m362.129 160.303h-22v-59.132c0-6.075 4.925-11 11-11h29.401v-31.171h22v42.171c0 6.075-4.925 11-11 11h-29.401z" fill="#0496FF"/></g><g><path d="m171.871 160.303h-22v-48.132h-29.401c-6.075 0-11-4.925-11-11v-42.171h22v31.171h29.401c6.075 0 11 4.925 11 11z" fill="#0496FF"/></g></g><g fill="#0496FF"><circle cx="190" cy="380.501" r="11"/><circle cx="234" cy="380.501" r="11"/><circle cx="278" cy="380.501" r="11"/><circle cx="322" cy="380.501" r="11"/></g></g><g><path d="m392 238h-19.88v-33c0-64.029-52.091-116.12-116.12-116.12s-116.12 52.091-116.12 116.12v33h-19.88c-18.196 0-33 14.804-33 33v208c0 18.196 14.804 33 33 33h272c18.196 0 33-14.804 33-33v-208c0-18.196-14.804-33-33-33zm-230.12-33c0-51.898 42.222-94.12 94.12-94.12s94.12 42.222 94.12 94.12v33h-27.205v-33c0-36.897-30.018-66.915-66.915-66.915s-66.915 30.018-66.915 66.915v33h-27.205zm139.035 33h-89.83v-33c0-24.766 20.148-44.915 44.915-44.915s44.915 20.149 44.915 44.915zm102.085 241c0 6.065-4.935 11-11 11h-272c-6.065 0-11-4.935-11-11v-208c0-6.065 4.935-11 11-11h272c6.065 0 11 4.935 11 11z"/><path d="m322 325.504h-132c-30.327 0-55 24.673-55 55s24.673 55 55 55h132c30.327 0 55-24.673 55-55s-24.673-55-55-55zm0 88h-132c-18.196 0-33-14.804-33-33s14.804-33 33-33h132c18.196 0 33 14.804 33 33s-14.804 33-33 33z"/><path d="m256 70c19.299 0 35-15.701 35-35s-15.701-35-35-35-35 15.701-35 35 15.701 35 35 35zm0-48c7.168 0 13 5.832 13 13s-5.832 13-13 13-13-5.832-13-13 5.832-13 13-13z"/><path d="m391.53 70c19.299 0 35-15.701 35-35s-15.701-35-35-35-35 15.701-35 35 15.701 35 35 35zm0-48c7.168 0 13 5.832 13 13s-5.832 13-13 13-13-5.832-13-13 5.832-13 13-13z"/><path d="m120.47 70c19.299 0 35-15.701 35-35s-15.701-35-35-35-35 15.701-35 35 15.701 35 35 35zm0-48c7.168 0 13 5.832 13 13s-5.832 13-13 13-13-5.832-13-13 5.832-13 13-13z"/></g></g><g/><g/><g/><g/><g/><g/><g/><g/><g/><g/><g/><g/><g/><g/><g/></svg>