<svg id="Layer_1" enable-background="new 0 0 512 512" viewBox="0 0 512 512" xmlns="http://www.w3.org/2000/svg" fill="#E6ECF2"><g><g fill="#0496FF"><path d="m78.471 96.397c6.075 0 11-4.925 11-11v-14.586c0-6.075-4.925-11-11-11s-11 4.925-11 11v14.586c0 6.075 4.925 11 11 11z"/><path d="m129.087 59.811c-6.075 0-11 4.925-11 11v14.586c0 6.075 4.925 11 11 11s11-4.925 11-11v-14.586c0-6.075-4.924-11-11-11z"/><path d="m119.819 113.73c-8.844 8.824-23.235 8.824-32.079 0-4.3-4.292-11.266-4.284-15.556.017-4.291 4.301-4.283 11.266.017 15.556 8.706 8.687 20.143 13.03 31.579 13.03s22.873-4.343 31.579-13.03c4.3-4.291 4.308-11.255.017-15.556-4.292-4.299-11.256-4.308-15.557-.017z"/><path d="m103.779 0c-51.196 0-92.847 41.57-92.847 92.667 0 38.818 24.038 72.137 58.038 85.91 10.755 4.357 22.507-5.576 34.81-5.576 13.459 0 26.259 9.46 37.816 4.296 32.402-14.479 55.032-46.966 55.032-84.63-.001-51.097-41.652-92.667-92.849-92.667zm0 163.333c-39.065 0-70.848-31.701-70.848-70.667s31.783-70.666 70.848-70.666 70.848 31.701 70.848 70.667-31.782 70.666-70.848 70.666z"/><path d="m490.068 49.063h-249.584c-6.075 0-11 4.925-11 11v65.207c0 6.075 4.925 11 11 11h249.584c6.075 0 11-4.925 11-11v-65.207c0-6.075-4.924-11-11-11zm-238.584 22h166.375v43.207h-166.375zm227.584 43.207h-39.209v-43.207h39.209z"/></g><g><path d="m490.068 212.396h-249.584c-6.075 0-11 4.925-11 11v65.207c0 6.075 4.925 11 11 11h249.584c6.075 0 11-4.925 11-11v-65.207c0-6.075-4.924-11-11-11zm-238.584 22h44.366v43.207h-44.366zm227.584 43.208h-161.217v-43.207h161.218v43.207z"/><path d="m196.627 256c0-51.097-41.651-92.667-92.848-92.667s-92.847 41.57-92.847 92.667c0 35.282 19.861 66.018 49.008 81.667-29.147 15.649-49.008 46.385-49.008 81.667 0 51.097 41.651 92.667 92.848 92.667s92.848-41.57 92.848-92.667c0-35.282-19.861-66.018-49.008-81.667 29.146-15.649 49.007-46.385 49.007-81.667zm-22 163.333c0 38.966-31.782 70.667-70.848 70.667s-70.848-31.701-70.848-70.667 31.782-70.667 70.848-70.667 70.848 31.702 70.848 70.667zm-70.848-92.666c-39.065 0-70.848-31.701-70.848-70.667s31.782-70.667 70.848-70.667 70.848 31.701 70.848 70.667-31.782 70.667-70.848 70.667z"/><path d="m78.471 259.73c6.075 0 11-4.925 11-11v-14.586c0-6.075-4.925-11-11-11s-11 4.925-11 11v14.586c0 6.076 4.925 11 11 11z"/><path d="m129.087 223.145c-6.075 0-11 4.925-11 11v14.586c0 6.075 4.925 11 11 11s11-4.925 11-11v-14.586c0-6.076-4.924-11-11-11z"/><path d="m78.471 423.063c6.075 0 11-4.925 11-11v-14.586c0-6.075-4.925-11-11-11s-11 4.925-11 11v14.586c0 6.076 4.925 11 11 11z"/><path d="m129.087 423.063c6.075 0 11-4.925 11-11v-14.586c0-6.075-4.925-11-11-11s-11 4.925-11 11v14.586c0 6.076 4.925 11 11 11z"/><path d="m72.201 281.932c-4.3 4.291-4.308 11.255-.017 15.556s11.256 4.309 15.556.017c8.844-8.824 23.235-8.824 32.079 0 2.147 2.143 4.958 3.214 7.77 3.213 2.819 0 5.639-1.077 7.787-3.23 4.291-4.301 4.283-11.266-.017-15.556-17.413-17.374-45.746-17.374-63.158 0z"/><path d="m490.068 375.73h-249.584c-6.075 0-11 4.925-11 11v65.207c0 6.075 4.925 11 11 11h249.584c6.075 0 11-4.925 11-11v-65.207c0-6.075-4.924-11-11-11zm-238.584 22h75.867v43.207h-75.867zm227.584 43.207h-129.717v-43.207h129.717z"/><path d="m68.97 448.124c0 6.075 4.925 11 11 11h47.618c6.075 0 11-4.925 11-11s-4.925-11-11-11h-47.618c-6.075 0-11 4.925-11 11z"/></g></g><g/><g/><g/><g/><g/><g/><g/><g/><g/><g/><g/><g/><g/><g/><g/></svg>