<svg id="Layer_1" enable-background="new 0 0 512 512" viewBox="0 0 512 512" xmlns="http://www.w3.org/2000/svg" fill="#052438"><g><path d="m337.047 407.379v-42.582c0-24.431-11.422-47.244-30.397-61.796 18.976-14.553 30.397-37.366 30.397-61.796v-42.582c5.821-.285 10.452-5.095 10.452-10.986 0-6.075-4.925-11-11-11h-160.998c-6.075 0-11 4.925-11 11 0 5.891 4.632 10.701 10.452 10.986v42.582c0 24.431 11.423 47.244 30.397 61.796-18.976 14.552-30.397 37.365-30.397 61.796v42.582c-5.821.285-10.452 5.095-10.452 10.986 0 6.075 4.925 11 11 11h160.998c6.075 0 11-4.925 11-11 0-5.891-4.632-10.7-10.452-10.986zm-140.094-42.581c0-3.862.397-7.668 1.161-11.365h115.771c.764 3.698 1.161 7.503 1.161 11.365v42.568h-118.093zm0-123.592v-42.568h118.094v42.568c0 20.186-10.841 38.821-28.294 48.632l-6.359 3.576c-3.464 1.948-5.608 5.614-5.608 9.589s2.145 7.64 5.609 9.588l6.359 3.575c6.878 3.867 12.729 9.104 17.294 15.267h-96.097c4.565-6.163 10.416-11.4 17.294-15.267l6.359-3.575c3.465-1.948 5.609-5.613 5.609-9.588s-2.145-7.641-5.608-9.589l-6.36-3.576c-17.451-9.812-28.292-28.446-28.292-48.632z" fill="#0496FF"/><g><path d="m413.767 314.002h7.097c6.075 0 11-4.925 11-11s-4.925-11-11-11h-7.097c-6.075 0-11 4.925-11 11s4.924 11 11 11z"/><path d="m387.911 251.015c2.831 0 5.662-1.087 7.813-3.257l6.192-6.249c4.276-4.315 4.244-11.28-.07-15.556-4.315-4.276-11.278-4.246-15.557.07l-6.192 6.249c-4.276 4.315-4.244 11.28.07 15.556 2.146 2.126 4.945 3.187 7.744 3.187z"/><path d="m386.291 379.98c2.15 2.17 4.98 3.257 7.813 3.257 2.799 0 5.599-1.062 7.743-3.187 4.315-4.276 4.347-11.241.069-15.556l-6.192-6.248c-4.276-4.316-11.242-4.346-15.556-.07-4.315 4.276-4.347 11.241-.069 15.556z"/><path d="m91.137 314.002h7.097c6.075 0 11-4.925 11-11s-4.925-11-11-11h-7.097c-6.075 0-11 4.925-11 11s4.925 11 11 11z"/><path d="m116.276 358.246-6.192 6.248c-4.277 4.315-4.246 11.28.069 15.556 2.145 2.125 4.944 3.187 7.743 3.187 2.831 0 5.662-1.086 7.813-3.257l6.192-6.248c4.277-4.315 4.246-11.28-.069-15.556-4.313-4.276-11.279-4.246-15.556.07z"/><path d="m116.275 247.758c2.151 2.17 4.981 3.257 7.813 3.257 2.799 0 5.599-1.062 7.743-3.187 4.314-4.276 4.347-11.241.07-15.556l-6.192-6.249c-4.278-4.316-11.243-4.346-15.557-.07s-4.347 11.241-.07 15.556z"/><path d="m467.623 19.089h-423.246c-24.47 0-44.377 19.907-44.377 44.377v385.068c0 24.47 19.907 44.377 44.377 44.377h423.246c24.47 0 44.377-19.907 44.377-44.377v-385.068c0-24.47-19.907-44.377-44.377-44.377zm-445.623 44.377c0-12.339 10.038-22.377 22.377-22.377h423.246c12.339 0 22.377 10.038 22.377 22.377v49.626h-468zm468 385.068c0 12.339-10.038 22.377-22.377 22.377h-423.246c-12.339 0-22.377-10.038-22.377-22.377v-313.442h468z"/><path d="m161.337 66.09h-89.695c-6.075 0-11 4.925-11 11s4.925 11 11 11h89.695c6.075 0 11-4.925 11-11s-4.925-11-11-11z"/><path d="m337.97 72.88c-1.733-4.245-6.122-7.003-10.694-6.772-4.599.232-8.639 3.39-9.983 7.791-1.32 4.322.234 9.176 3.829 11.922 3.712 2.835 8.908 2.989 12.799.42 4.317-2.853 6.042-8.596 4.049-13.361z"/><path d="m394.24 72.88c-1.809-4.415-6.483-7.213-11.23-6.733-4.637.469-8.574 3.899-9.635 8.444-.998 4.273.73 8.894 4.307 11.443 3.794 2.703 9.015 2.704 12.808 0 4.113-2.932 5.692-8.498 3.75-13.154z"/><path d="m450.51 72.88c-1.804-4.418-6.484-7.212-11.229-6.733-4.402.445-8.182 3.555-9.455 7.79-1.222 4.068.074 8.625 3.28 11.419 3.524 3.071 8.693 3.585 12.748 1.257 4.718-2.709 6.755-8.714 4.656-13.733z"/></g></g><g/><g/><g/><g/><g/><g/><g/><g/><g/><g/><g/><g/><g/><g/><g/></svg>