<svg id="Layer_1" enable-background="new 0 0 512 512" viewBox="0 0 512 512" xmlns="http://www.w3.org/2000/svg" fill="#E6ECF2"><g><g><path d="m402.74 356.185c-5.724.492-13.553-1.151-16.822-5.17-3.834-4.712-10.762-5.424-15.475-1.591-4.713 3.834-5.426 10.762-1.592 15.475 5.045 6.201 12.131 9.863 19.283 11.744 1.063 4.964 5.474 8.686 10.755 8.686 5.009 0 9.236-3.348 10.565-7.929 13.109-2.736 22.24-11.724 23.766-23.849 1.807-14.358-7.521-28.092-22.684-33.398-10.209-3.573-15.433-5.694-16.908-6.383-2.944-1.374-3.244-2.88-3.148-4.172.153-2.091 1.649-4.201 3.333-4.703 8.313-2.478 13.331.007 14.459 1.6 3.513 4.956 10.377 6.128 15.335 2.614 4.957-3.513 6.127-10.378 2.614-15.335-3.372-4.758-9.103-8.84-16.491-10.755-.888-5.185-5.403-9.13-10.841-9.13-5.669 0-10.336 4.289-10.934 9.798-.143.041-.286.083-.429.126-10.359 3.089-18.166 13.029-18.986 24.17-.806 10.944 5.241 20.8 15.781 25.722 3.162 1.476 10.068 4.105 18.948 7.213 5.891 2.062 8.545 6.534 8.123 9.887-.532 4.226-6.228 5.17-8.652 5.38z"/><path d="m142.507 191.28c-4.995-3.463-11.848-2.22-15.308 2.771l-20.465 29.512-11.836-9.664c-4.706-3.842-11.637-3.142-15.478 1.563-3.843 4.706-3.143 11.636 1.563 15.478l21.053 17.189c1.976 1.613 4.438 2.479 6.957 2.479.51 0 1.022-.036 1.534-.107 3.037-.428 5.758-2.104 7.505-4.625l27.244-39.289c3.463-4.991 2.223-11.845-2.769-15.307z"/><path d="m286.417 191.28c-4.995-3.463-11.848-2.22-15.308 2.771l-20.465 29.512-11.836-9.664c-4.706-3.842-11.636-3.142-15.478 1.563-3.843 4.706-3.143 11.636 1.563 15.478l21.053 17.189c1.976 1.613 4.438 2.479 6.957 2.479.51 0 1.022-.036 1.534-.107 3.037-.428 5.758-2.104 7.505-4.625l27.244-39.289c3.463-4.991 2.223-11.845-2.769-15.307z"/><path d="m142.507 312.945c-4.995-3.462-11.848-2.22-15.308 2.771l-20.465 29.511-11.836-9.664c-4.706-3.841-11.637-3.142-15.478 1.564-3.843 4.706-3.143 11.635 1.563 15.478l21.053 17.188c1.977 1.613 4.438 2.479 6.957 2.479.51 0 1.022-.036 1.534-.107 3.037-.428 5.758-2.104 7.505-4.625l27.244-39.289c3.463-4.99 2.223-11.844-2.769-15.306z"/><path d="m430.327 191.28c-4.995-3.463-11.847-2.22-15.308 2.771l-20.465 29.512-11.836-9.664c-4.706-3.842-11.636-3.142-15.478 1.563-3.843 4.706-3.143 11.636 1.563 15.478l21.053 17.189c1.976 1.613 4.438 2.479 6.957 2.479.51 0 1.022-.036 1.534-.107 3.037-.428 5.758-2.104 7.505-4.625l27.244-39.289c3.464-4.991 2.223-11.845-2.769-15.307z"/><path d="m446.583 44.496c-.085-24.55-20.135-44.496-44.77-44.496-24.512 0-44.485 19.746-44.768 44.126h-56.276c-.284-24.38-20.257-44.126-44.769-44.126s-44.485 19.746-44.768 44.126h-56.276c-.284-24.38-20.257-44.126-44.768-44.126-24.636 0-44.686 19.946-44.771 44.496-27.995 3.217-49.807 27.065-49.807 55.911v294.7c0 30.987 25.281 56.197 56.356 56.197h89.332c6.075 0 6.075-22 0-22h-89.331c-18.944 0-34.356-15.341-34.356-34.197v-261.001h436.779v261.001c0 18.856-15.412 34.197-34.356 34.197h-89.927c-6.075 0-12.548 22-6.473 22h96.399c31.075 0 56.356-25.21 56.356-56.197v-294.7c.001-28.846-21.811-52.694-49.806-55.911zm-44.77-22.496c12.38 0 22.483 9.878 22.765 22.126h-45.53c.281-12.248 10.384-22.126 22.765-22.126zm-145.813 0c12.38 0 22.483 9.878 22.765 22.126h-45.53c.282-12.248 10.385-22.126 22.765-22.126zm-145.812 0c12.38 0 22.483 9.878 22.765 22.126h-45.53c.281-12.248 10.384-22.126 22.765-22.126zm-72.578 90.106v-11.699c0-18.902 15.375-34.281 34.272-34.281h368.234c18.897 0 34.272 15.378 34.272 34.281v11.699z"/></g><g fill="#0496FF"><path d="m280.832 397.754h-16.715v-16.617c0-6.075-4.925-11-11-11s-11 4.925-11 11v16.617h-16.716c-6.075 0-11 4.925-11 11s4.925 11 11 11h16.716v16.617c0 6.075 4.925 11 11 11s11-4.925 11-11v-16.617h16.715c6.075 0 11-4.925 11-11s-4.925-11-11-11z"/><path d="m253.117 305.509c-57.369 0-104.042 46.316-104.042 103.246s46.673 103.245 104.042 103.245 104.042-46.316 104.042-103.246-46.673-103.245-104.042-103.245zm0 184.491c-45.238 0-82.042-36.447-82.042-81.246s36.804-81.246 82.042-81.246 82.042 36.447 82.042 81.246-36.804 81.246-82.042 81.246z"/></g></g><g/><g/><g/><g/><g/><g/><g/><g/><g/><g/><g/><g/><g/><g/><g/></svg>