<svg id="Capa_1" enable-background="new 0 0 512 512" viewBox="0 0 512 512" xmlns="http://www.w3.org/2000/svg" fill="#052438"><g><g fill="#0496FF"><path d="m368.379 189.382h-35.231c-26.322 0-49.982 11.601-66.148 29.954v-16.809l21.664-21.664c27.778-27.779 27.778-72.979 0-100.758l-24.885-24.885c-4.296-4.296-11.261-4.296-15.557 0l-24.885 24.885c-27.778 27.779-27.778 72.979 0 100.758l21.663 21.664v16.809c-16.166-18.353-39.826-29.954-66.148-29.954h-35.231c-6.075 0-11 4.925-11 11v35.46c0 48.605 39.543 88.148 88.148 88.148h24.231v41.155c0 6.075 4.925 10.281 11 10.281s11-4.206 11-10.281v-41.155h24.231c48.605 0 88.148-39.543 88.148-88.148v-35.46c0-6.075-4.924-11-11-11zm-162.994 54.647c-5.236-3.078-11.978-1.329-15.057 3.909-3.079 5.237-1.329 11.979 3.909 15.057 21.953 12.905 35.38 28.06 42.989 38.996h-16.456c-36.474 0-66.148-29.674-66.148-66.148v-24.46h24.231c36.049 0 65.436 28.991 66.116 64.881-9.279-10.463-22.132-21.976-39.584-32.235zm50.615-117.289c-6.075 0-11 4.925-11 11v33.674l-6.107-6.107c-19.201-19.201-19.201-50.443 0-69.645l17.107-17.107 17.107 17.107c19.201 19.201 19.201 50.443 0 69.645l-6.107 6.107v-33.674c0-6.075-4.925-11-11-11zm101.379 109.103c0 36.474-29.674 66.148-66.148 66.148h-16.453c7.613-10.944 21.038-26.094 42.985-38.996 5.237-3.079 6.987-9.82 3.909-15.057-3.078-5.238-9.822-6.989-15.057-3.909-17.452 10.259-30.305 21.771-39.583 32.234.68-35.89 30.066-64.881 66.116-64.881h24.231z"/><circle cx="213.5" cy="410.178" r="11"/><circle cx="256" cy="410.178" r="11"/><circle cx="298.5" cy="410.178" r="11"/></g><g><path d="m439.038 355.199v-172.161c0-100.928-82.111-183.038-183.038-183.038s-183.038 82.11-183.038 183.038v172.162c-12.654.792-22.708 11.333-22.708 24.183v61.593c0 13.364 10.873 24.236 24.236 24.236h31.711v28.567c0 10.048 8.174 18.222 18.222 18.222h263.152c10.048 0 18.222-8.174 18.222-18.222v-28.567h31.711c13.364 0 24.236-10.872 24.236-24.236v-61.593c.002-12.851-10.053-23.392-22.706-24.184zm-183.038-333.199c88.796 0 161.038 72.241 161.038 161.038v172.108h-322.076v-172.108c0-88.797 72.242-161.038 161.038-161.038zm127.798 468h-255.596v-24.789h255.597v24.789zm55.948-49.025c0 1.233-1.003 2.236-2.236 2.236h-363.019c-1.233 0-2.236-1.003-2.236-2.236v-61.593c0-1.233 1.003-2.236 2.236-2.236h363.019c1.233 0 2.236 1.003 2.236 2.236z"/><path d="m153.631 399.178h-51.373c-6.075 0-11 4.925-11 11s4.925 11 11 11h51.373c6.075 0 11-4.925 11-11s-4.924-11-11-11z"/><path d="m409.742 399.178h-51.373c-6.075 0-11 4.925-11 11s4.925 11 11 11h51.373c6.075 0 11-4.925 11-11s-4.925-11-11-11z"/></g></g><g/><g/><g/><g/><g/><g/><g/><g/><g/><g/><g/><g/><g/><g/><g/></svg>