<svg id="Capa_1" enable-background="new 0 0 512 512" viewBox="0 0 512 512" xmlns="http://www.w3.org/2000/svg" fill="#052438"><g><path d="m313.394 76.61c0-15.33-5.971-29.743-16.811-40.583l-32.804-32.805c-2.063-2.063-4.862-3.222-7.779-3.222s-5.715 1.159-7.778 3.222l-32.805 32.805c-10.84 10.84-16.81 25.253-16.81 40.583 0 15.331 5.97 29.743 16.81 40.583 8.2 8.199 18.445 13.606 29.583 15.757v22.527c0 6.075 4.925 11 11 11s11-4.925 11-11v-22.527c11.138-2.151 21.384-7.558 29.583-15.757 10.84-10.84 16.811-25.253 16.811-40.583zm-32.367 25.027c-4.002 4.002-8.797 6.918-14.026 8.621v-30.524c0-6.075-4.925-11-11-11s-11 4.925-11 11v30.525c-5.23-1.704-10.025-4.62-14.027-8.622-6.685-6.685-10.367-15.573-10.367-25.027s3.682-18.342 10.367-25.026l25.026-25.027 25.026 25.027c6.686 6.685 10.367 15.573 10.367 25.026.001 9.454-3.681 18.342-10.366 25.027z" fill="#0496FF"/><path d="m453.052 340.783c6.075 0 11-4.925 11-11v-49.179c0-6.075-4.925-11-11-11s-11 4.925-11 11v13.078h-21.098v-14.101c0-6.075-4.925-11-11-11h-73.11v-53.716c0-6.075-4.925-11-11-11h-12.947v-46.077c0-6.075-4.925-11-11-11h-91.793c-6.075 0-11 4.925-11 11v46.077h-12.948c-6.075 0-11 4.925-11 11v168.635h-18.064c-6.075 0-11 4.925-11 11v44.781h-64.593c-18.5 0-33.551 15.051-33.551 33.551v28.168c0 6.075 4.925 11 11 11h394.104c6.075 0 11-4.925 11-11v-28.168c0-18.5-15.051-33.551-33.551-33.551h-64.593v-44.781c0-6.075-4.925-11-11-11h-18.064v-42.716h73.11c6.075 0 11-4.925 11-11v-14.101h21.098v14.101c0 6.074 4.925 10.999 11 10.999zm-231.948-171.994h69.793v35.077h-69.793zm220.948 304.043v17.168h-372.104v-17.168c0-6.37 5.182-11.551 11.551-11.551h349.002c6.369-.001 11.551 5.181 11.551 11.551zm-98.144-33.552h-175.816v-33.78h175.816zm-146.752-55.78v-157.634h117.688v157.634zm201.798-64.717h-62.11v-28.202h62.11z"/></g><g/><g/><g/><g/><g/><g/><g/><g/><g/><g/><g/><g/><g/><g/><g/></svg>