<svg id="Capa_1" enable-background="new 0 0 512 512" viewBox="0 0 512 512" xmlns="http://www.w3.org/2000/svg" fill="#052438"><g><g><g><path d="m326.885 405.031c-2.71 0-5.348-1.002-7.386-2.848l-63.499-57.532-63.499 57.533c-2.458 2.229-5.789 3.227-9.071 2.718l-97.338-15.093c-24.333-3.773-41.994-24.384-41.994-49.008v-90.415c0-21.884 17.804-39.688 39.688-39.688h344.43c21.884 0 39.688 17.804 39.688 39.688v90.415c0 24.624-17.661 45.235-41.994 49.008l-97.338 15.093c-.563.086-1.128.129-1.687.129zm-243.1-172.333c-9.753 0-17.688 7.935-17.688 17.688v90.415c0 13.701 9.826 25.168 23.365 27.268l92.154 14.289 66.997-60.703c4.191-3.798 10.58-3.798 14.771 0l66.997 60.703 92.154-14.289c13.539-2.099 23.365-13.567 23.365-27.268v-90.415c0-9.753-7.935-17.688-17.688-17.688z" fill="#0496FF"/></g></g><path d="m454.476 170.839-133.534-105.599c-3.307-2.616-7.817-3.111-11.616-1.273-3.796 1.837-6.207 5.684-6.207 9.901v53.4c0 2.305.724 4.551 2.069 6.422l23.664 32.911h-145.705l23.664-32.911c1.346-1.871 2.069-4.117 2.069-6.422v-53.4c0-4.217-2.411-8.063-6.207-9.901s-8.309-1.344-11.616 1.273l-133.531 105.599c-33.372 11.045-57.526 42.519-57.526 79.547v90.415c0 22.344 8.007 43.995 22.547 60.964 14.539 16.967 34.707 28.197 56.789 31.621l97.296 15.086c2.854.442 5.707.66 8.541.66 13.588 0 26.714-5.007 36.968-14.298l33.859-30.678 33.859 30.677c12.393 11.229 28.979 16.203 45.509 13.638l97.297-15.086c22.081-3.424 42.249-14.654 56.789-31.622 14.539-16.967 22.546-38.618 22.546-60.962v-90.415c0-37.027-24.153-68.501-57.524-79.547zm-129.357-47.115v-27.134l88.53 70.01h-57.699zm-138.238 0-30.83 42.876h-57.699l88.529-70.01zm303.119 217.077c0 17.098-6.127 33.665-17.252 46.648-11.126 12.983-26.558 21.576-43.454 24.196l-97.297 15.086c-9.937 1.541-19.914-1.449-27.366-8.201l-41.245-37.369c-4.191-3.798-10.58-3.798-14.771 0l-41.245 37.37c-7.452 6.752-17.423 9.743-27.366 8.201l-97.296-15.086c-16.897-2.62-32.329-11.213-43.454-24.196-11.127-12.985-17.254-29.551-17.254-46.649v-90.415c0-34.068 27.717-61.785 61.785-61.785h344.43c34.068 0 61.785 27.717 61.785 61.785z"/></g><g/><g/><g/><g/><g/><g/><g/><g/><g/><g/><g/><g/><g/><g/><g/></svg>