<svg id="Layer_1" enable-background="new 0 0 512 512" viewBox="0 0 512 512" xmlns="http://www.w3.org/2000/svg" fill="#052438"><g><g><path d="m99.17 417.256c7.685-8.015 12.414-18.886 12.414-30.841 0-24.59-20.004-44.595-44.593-44.595s-44.593 20.005-44.593 44.595c0 11.955 4.729 22.825 12.414 30.841-20.732 11.402-34.812 33.459-34.812 58.744 0 6.075 4.925 11 11 11h111.981c6.075 0 11-4.925 11-11 0-25.285-14.08-47.342-34.811-58.744zm-54.773-30.84c0-12.459 10.135-22.595 22.593-22.595s22.593 10.136 22.593 22.595c0 12.441-10.107 22.566-22.542 22.593-.017 0-.034 0-.051 0s-.034 0-.051 0c-12.434-.028-22.542-10.153-22.542-22.593zm-21.037 78.584c4.917-19.496 22.592-33.971 43.589-33.99h.042s.028 0 .042 0c20.997.019 38.672 14.495 43.589 33.99z"/><path d="m477.188 417.256c7.685-8.015 12.414-18.886 12.414-30.841 0-24.59-20.004-44.595-44.593-44.595s-44.593 20.005-44.593 44.595c0 11.955 4.729 22.825 12.414 30.841-20.731 11.402-34.811 33.459-34.811 58.743 0 6.075 4.925 11 11 11h111.981c6.075 0 11-4.925 11-11 0-25.284-14.081-47.341-34.812-58.743zm-54.772-30.84c0-12.459 10.135-22.595 22.593-22.595s22.593 10.136 22.593 22.595c0 12.441-10.107 22.566-22.542 22.593-.017 0-.034 0-.051 0s-.034 0-.051 0c-12.435-.028-22.542-10.153-22.542-22.593zm-21.038 78.584c4.917-19.496 22.592-33.971 43.589-33.99h.042s.028 0 .042 0c20.997.019 38.672 14.495 43.589 33.99z"/><path d="m295.951 383.239c15.235-11.906 25.047-30.448 25.047-51.238 0-35.841-29.158-65-64.999-65-35.84 0-64.998 29.159-64.998 65 0 20.79 9.811 39.331 25.047 51.238-35.879 15.512-61.048 51.252-61.048 92.761 0 6.075 4.925 11 11 11h180c6.075 0 11-4.925 11-11 0-41.509-25.17-77.249-61.049-92.761zm-82.95-51.238c0-23.71 19.289-43 42.998-43s42.999 19.29 42.999 43c0 23.693-19.261 42.971-42.947 42.999-.017 0-.034 0-.051 0s-.034 0-.051 0c-23.686-.028-42.948-19.306-42.948-42.999zm42.999 64.999h.08c10.103.01 19.767 1.926 28.653 5.408l-28.733 49.768-28.733-49.768c8.886-3.482 18.55-5.398 28.653-5.408zm-47.897 16.216 29.897 51.784h-60.236c2.943-21.037 14.203-39.445 30.339-51.784zm65.897 51.784 29.897-51.784c16.135 12.339 27.396 30.747 30.34 51.784z"/><path d="m92.737 227h14.481l59.059 38.234c1.814 1.174 3.894 1.766 5.979 1.766 1.804 0 3.613-.443 5.255-1.337 3.54-1.925 5.744-5.633 5.744-9.663v-29h236.008c22.608 0 41-18.393 41-41v-120c0-22.607-18.393-41-41-41h-326.526c-22.608 0-41 18.393-41 41v120c-.001 22.607 18.392 41 41 41zm-19.001-161c0-10.477 8.523-19 19-19h326.526c10.477 0 19 8.523 19 19v120c0 10.477-8.523 19-19 19h-247.007c-6.075 0-11 4.925-11 11v19.775l-44.809-29.009c-1.781-1.153-3.857-1.766-5.978-1.766h-17.731c-10.477 0-19-8.523-19-19v-120z"/></g><g><g><path d="m401.532 92h-291.064c-6.075 0-11-4.925-11-11s4.925-11 11-11h291.064c6.075 0 11 4.925 11 11s-4.925 11-11 11z" fill="#0496FF"/></g><g><path d="m401.532 137h-291.064c-6.075 0-11-4.925-11-11s4.925-11 11-11h291.064c6.075 0 11 4.925 11 11s-4.925 11-11 11z" fill="#0496FF"/></g><g><path d="m256 181.999h-145.532c-6.075 0-11-4.925-11-11s4.925-11 11-11h145.532c6.075 0 11 4.925 11 11s-4.925 11-11 11z" fill="#0496FF"/></g></g></g><g/><g/><g/><g/><g/><g/><g/><g/><g/><g/><g/><g/><g/><g/><g/></svg>