<svg id="Layer_1" enable-background="new 0 0 512 512" viewBox="0 0 512 512" xmlns="http://www.w3.org/2000/svg" fill="#052438"><g><g fill="#0496FF"><path d="m118.566 162.627c-1.657-5.845-15.556 2.347-16.415 2.883-.859-.537-14.757-8.727-16.415-2.883l-24.253 85.481c-1.218 4.291.276 8.892 3.782 11.648l30.086 23.663c1.995 1.569 4.397 2.354 6.8 2.354s4.806-.785 6.8-2.354l30.087-23.663c3.506-2.757 5-7.358 3.782-11.649zm-16.415 98.152-17.491-13.757 17.491-61.651 17.492 61.65z"/><path d="m276.104 24.083h-47.556c-17.073 0-30.964 13.89-30.964 30.964v85.188c0 17.073 13.89 30.963 30.963 30.963h47.557c17.073 0 30.963-13.89 30.963-30.963v-85.189c0-17.073-13.889-30.963-30.963-30.963zm8.963 116.151c0 4.942-4.021 8.963-8.963 8.963h-47.557c-4.942 0-8.963-4.021-8.963-8.963v-85.188c0-4.943 4.021-8.964 8.964-8.964h47.556c4.942 0 8.963 4.021 8.963 8.963z"/><path d="m259.19 107.308h-13.729c-6.075 0-11 4.925-11 11s4.925 11 11 11h13.729c6.075 0 11-4.925 11-11s-4.924-11-11-11z"/></g><g><path d="m242.17 265.62c1.756 4.297 6.249 7.074 10.875 6.766 4.426-.295 8.316-3.32 9.718-7.519 1.422-4.258.016-9.117-3.461-11.963-3.621-2.964-8.805-3.274-12.78-.835-4.522 2.775-6.395 8.664-4.352 13.551z"/><path d="m477.93 279.663c18.786 0 34.07-15.284 34.07-34.07v-88.078c0-18.786-15.283-34.07-34.069-34.07h-127.596c-18.786 0-34.07 15.284-34.07 34.07v49.395c-4.313-1.83-9.054-2.843-14.027-2.843h-99.822c-5.708 0-11.109 1.334-15.91 3.708-5.242-23.07-21.01-42.185-41.966-52.006 15.519-12.433 25.474-31.538 25.474-52.924v-21.505c0-37.378-30.409-67.788-67.788-67.788h-.147c-37.379 0-67.789 30.41-67.789 67.789v21.503c0 21.386 9.955 40.491 25.475 52.924-25.88 12.129-43.848 38.433-43.848 68.854v79.141h-4.917c-6.075 0-11 4.925-11 11v47.375c0 6.075 4.925 11 11 11h7.715v114.31c0 6.075 4.925 11 11 11h452.57c6.075 0 11-4.925 11-11v-114.31h7.715c6.075 0 11-4.925 11-11v-47.375c0-6.075-4.925-11-11-11h-45.684v-24.1zm-139.665-122.148c0-6.655 5.415-12.07 12.07-12.07h127.596c6.655 0 12.069 5.415 12.069 12.07v88.078c0 6.656-5.415 12.07-12.07 12.07h-127.595c-6.655 0-12.07-5.415-12.07-12.07zm0 146.248v-26.308c3.754 1.427 7.822 2.208 12.07 2.208h22.613v24.1zm-135.85-77.697h99.822c7.734 0 14.027 6.293 14.027 14.029v63.667h-127.876v-63.667c0-7.735 6.293-14.029 14.027-14.029zm-146.126-144.726c0-25.248 20.541-45.789 45.789-45.789h.147c25.248 0 45.788 20.541 45.788 45.788v21.504c0 25.248-20.54 45.788-45.788 45.788h-.147c-25.248 0-45.789-20.541-45.789-45.788zm-18.373 143.282c0-29.771 24.218-53.99 53.985-53.99h20.5c29.769 0 53.986 24.22 53.986 53.99v79.141h-128.471zm433.369 251.826h-430.57v-103.31h430.57zm18.715-125.309h-468v-25.375h468zm-56.684-47.376h-38.368v-24.1h38.368z"/></g></g><g/><g/><g/><g/><g/><g/><g/><g/><g/><g/><g/><g/><g/><g/><g/></svg>