<svg id="Layer_1" enable-background="new 0 0 512 512" viewBox="0 0 512 512" xmlns="http://www.w3.org/2000/svg" fill="#E6ECF2"><g><g><path d="m153.543 233.23-22.649-80.741h-35.69l-22.648 80.741c-1.201 4.283.295 8.867 3.791 11.617l29.903 23.521c1.996 1.569 4.398 2.354 6.801 2.354s4.805-.785 6.801-2.354l29.902-23.521c3.495-2.75 4.991-7.334 3.789-11.617zm-40.493 12.497-17.327-13.629 17.327-61.768 17.327 61.768z" fill="#0496FF"/><path d="m95.723 232.098 17.327 13.629 17.326-13.629-17.327-61.768z" fill="none"/></g><path d="m331.502 55.149h-.14c-37.189 0-67.445 30.255-67.445 67.444v21.382c0 21.24 9.869 40.217 25.262 52.589-25.693 12.087-43.523 38.228-43.523 68.456v27.48c0 6.075 22 6.075 22 0v-27.48c0-29.555 24.04-53.6 53.588-53.6h28.462c4.322 0 8.061-2.493 9.86-6.119 23.218-10.668 39.38-34.144 39.38-61.325v-21.382c.001-37.19-30.255-67.445-67.444-67.445zm45.445 88.826c0 25.058-20.386 45.444-45.444 45.444h-.14c-25.059 0-45.445-20.386-45.445-45.444v-21.382c0-25.058 20.386-45.444 45.445-45.444h.14c25.058 0 45.444 20.386 45.444 45.444z"/><g><path d="m459.436 292.5v-67.248c0-7.653-6.224-13.879-13.875-13.879h-89.254c-7.651 0-13.875 6.226-13.875 13.879v67.248c0 6.075-22 6.075-22 0v-67.248c0-19.784 16.093-35.879 35.875-35.879h89.254c19.781 0 35.875 16.095 35.875 35.879v67.248c0 6.075-22 6.075-22 0z" fill="#0496FF"/></g><path d="m499.502 288.472h-300.676v-71.051l.541.655c8.646 10.469 21.392 16.862 34.969 17.539l32.692 1.63c.187.009.372.014.557.014 5.823 0 10.684-4.572 10.977-10.453.303-6.067-4.371-11.231-10.438-11.534l-32.692-1.63c-7.418-.37-14.381-3.86-19.102-9.576l-32.285-39.091c-.067-.082-.136-.161-.205-.24-7.416-9.935-17.213-17.992-28.538-23.32 15.393-12.372 25.262-31.349 25.262-52.589v-21.382c0-37.189-30.255-67.444-67.444-67.444h-.14c-37.189 0-67.445 30.255-67.445 67.444v21.382c0 21.24 9.869 40.217 25.262 52.589-25.693 12.087-43.523 38.228-43.523 68.456v78.601h-14.776c-6.075 0-11 4.925-11 11v47.092c0 6.075 4.925 11 11 11h7.601v143.436c0 6.075 4.925 11 11 11h449.804c6.075 0 11-4.925 11-11v-143.437h7.601c6.075 0 11-4.925 11-11v-47.092c-.002-6.075-4.926-10.999-11.002-10.999zm-431.967-221.028c0-25.058 20.386-45.444 45.444-45.444h.14c25.058 0 45.444 20.386 45.444 45.444v21.382c0 25.058-20.386 45.444-45.444 45.444h-.14c-25.058 0-45.444-20.386-45.444-45.444zm-18.261 142.427c0-29.556 24.04-53.601 53.588-53.601h20.375c29.549 0 53.589 24.045 53.589 53.601v78.601h-127.552zm-25.776 100.601h465.005v25.092h-465.005zm446.404 179.528h-427.804v-132.437h427.804z"/><g><path d="m400.93 260.95c-4.669 0-8.892-3.072-10.406-7.469-1.515-4.399.03-9.436 3.718-12.261 3.7-2.834 8.921-3.004 12.799-.42 3.771 2.513 5.659 7.273 4.597 11.684-1.177 4.888-5.665 8.466-10.708 8.466z" fill="#0496FF"/></g></g><g/><g/><g/><g/><g/><g/><g/><g/><g/><g/><g/><g/><g/><g/><g/></svg>