<svg id="Layer_1" enable-background="new 0 0 512.002 512.002" viewBox="0 0 512.002 512.002" xmlns="http://www.w3.org/2000/svg" fill="#052438"><g><path d="m323.001 170.002c-6.075 0-11 4.925-11 11v9.001h-112v-9.001c0-6.075-4.925-11-11-11s-11 4.925-11 11v320c0 6.075 4.925 11 11 11s11-4.925 11-11v-9h112v9c0 6.075 4.925 11 11 11s11-4.925 11-11v-320c0-6.075-4.925-11-11-11zm-11 160h-112v-48h112zm-112 22h112v48h-112zm112-139.999v48h-112v-48zm-112 257.998v-48h112v48z"/><g><g><path d="m299.864 157.002c-1.68 0-3.367-.384-4.924-1.164l-38.939-19.498-38.938 19.498c-3.674 1.839-8.067 1.479-11.391-.937-3.324-2.415-5.025-6.481-4.411-10.544l6.51-43.059-30.576-31.008c-2.885-2.925-3.899-7.215-2.629-11.123 1.27-3.907 4.611-6.782 8.665-7.453l42.962-7.114 20.042-38.662c1.891-3.647 5.657-5.938 9.766-5.938s7.875 2.29 9.766 5.938l20.042 38.662 42.962 7.114c4.054.671 7.395 3.545 8.665 7.453s.256 8.197-2.629 11.123l-30.576 31.008 6.51 43.059c.614 4.063-1.087 8.129-4.411 10.544-1.914 1.391-4.184 2.101-6.466 2.101zm-43.863-43.964c1.688 0 3.375.388 4.925 1.164l24.891 12.463-4.162-27.523c-.518-3.428.61-6.899 3.044-9.368l19.544-19.821-27.462-4.547c-3.42-.566-6.374-2.712-7.969-5.79l-12.812-24.713-12.81 24.713c-1.595 3.078-4.548 5.224-7.969 5.79l-27.462 4.547 19.544 19.821c2.434 2.468 3.562 5.94 3.044 9.368l-4.162 27.523 24.89-12.463c1.551-.776 3.238-1.164 4.926-1.164z" fill="#0496FF"/></g><g><path d="m431.503 89.502h-30c-6.075 0-11-4.925-11-11s4.925-11 11-11h30c6.075 0 11 4.925 11 11s-4.925 11-11 11z" fill="#0496FF"/></g><g><path d="m383.51 37.004c-3.802 0-7.499-1.973-9.537-5.502-3.038-5.261-1.235-11.989 4.026-15.026l25.981-15c5.26-3.038 11.988-1.235 15.026 4.026s1.235 11.989-4.026 15.026l-25.981 15c-1.731 1-3.622 1.476-5.489 1.476z" fill="#0496FF"/></g><g><path d="m409.471 157.004c-1.866 0-3.757-.476-5.49-1.476l-25.981-15c-5.261-3.038-7.064-9.765-4.026-15.026 3.039-5.261 9.766-7.063 15.026-4.026l25.981 15c5.261 3.038 7.064 9.765 4.026 15.026-2.037 3.529-5.735 5.502-9.536 5.502z" fill="#0496FF"/></g><g><path d="m110.5 89.502h-30c-6.075 0-11-4.925-11-11s4.925-11 11-11h30c6.075 0 11 4.925 11 11s-4.925 11-11 11z" fill="#0496FF"/></g><g><path d="m128.492 37.004c-1.866 0-3.757-.476-5.49-1.476l-25.981-15c-5.261-3.038-7.064-9.765-4.026-15.026 3.039-5.261 9.766-7.063 15.026-4.026l25.981 15c5.261 3.038 7.064 9.765 4.026 15.026-2.037 3.529-5.735 5.502-9.536 5.502z" fill="#0496FF"/></g><g><path d="m102.531 157.004c-3.802 0-7.499-1.973-9.537-5.502-3.038-5.261-1.235-11.989 4.026-15.026l25.981-15c5.259-3.038 11.989-1.235 15.026 4.026 3.038 5.261 1.235 11.989-4.026 15.026l-25.981 15c-1.731 1-3.622 1.476-5.489 1.476z" fill="#0496FF"/></g></g></g><g/><g/><g/><g/><g/><g/><g/><g/><g/><g/><g/><g/><g/><g/><g/></svg>