<svg id="Layer_1" enable-background="new 0 0 512 512" viewBox="0 0 512 512" xmlns="http://www.w3.org/2000/svg" fill="#E6ECF2"><g><path d="m501 445h-52.477l18.331-67.954c2.217-8.218.783-16.463-3.935-22.622-4.588-5.99-11.863-9.425-19.962-9.425h-100.922c-6.225 0-12.429 2.012-17.837 5.429-8.331-11.439-19.323-20.484-31.846-26.469 11.428-10.086 18.647-24.835 18.647-41.24 0-30.327-24.672-55-54.998-55s-54.999 24.673-54.999 55c0 16.395 7.211 31.137 18.628 41.222-12.526 5.982-23.502 15.029-31.832 26.484-5.406-3.415-11.609-5.427-17.832-5.427h-100.923c-8.099 0-15.375 3.436-19.963 9.426-4.718 6.159-6.151 14.404-3.934 22.621l18.332 67.955h-52.478c-6.075 0-11 4.925-11 11v45c0 6.075 4.925 11 11 11h490c6.075 0 11-4.925 11-11v-45c0-6.075-4.925-11-11-11zm-158.965-78h100.922c.566 0 1.942.078 2.497.803.396.517.646 1.711.159 3.514l-19.877 73.683h-114.498l18.331-67.954c1.393-5.164 7.451-10.046 12.466-10.046zm-118.487 78-19.877-73.683c-.308-1.143-.682-2.267-1.115-3.368 3.716-6.18 8.405-11.574 13.811-16.027l30.107 52.145c1.965 3.403 5.597 5.5 9.526 5.5s7.562-2.097 9.526-5.5l30.097-52.131c5.411 4.452 10.105 9.842 13.819 16.013-.433 1.101-.806 2.224-1.115 3.367l-19.875 73.684zm32.386-107.281h.066.067c7.044.008 13.916 1.205 20.371 3.447l-20.438 35.401-20.446-35.412c6.451-2.236 13.323-3.428 20.38-3.436zm-32.933-54.998c0-18.197 14.804-33 32.999-33s32.998 14.804 32.998 33c0 18.18-14.778 32.974-32.952 32.999-.016 0-.031 0-.046 0s-.031 0-.046 0c-18.174-.026-32.953-14.819-32.953-32.999zm-156.614 88.595c-.486-1.802-.237-2.996.159-3.513.555-.725 1.931-.803 2.497-.803h100.922c5.015 0 11.072 4.882 12.466 10.046l18.331 67.954h-114.498zm423.613 118.684h-468v-23h468z"/><g fill="#0496FF"><path d="m280.748 0h-49.495c-16.982 0-30.798 13.816-30.798 30.798v100.405c0 16.982 13.815 30.798 30.798 30.798h49.495c16.982 0 30.798-13.816 30.798-30.798v-100.405c-.001-16.982-13.816-30.798-30.798-30.798zm8.797 131.203c0 4.851-3.946 8.798-8.798 8.798h-49.495c-4.852 0-8.798-3.947-8.798-8.798v-100.405c0-4.851 3.946-8.798 8.798-8.798h13.748v4c0 6.075 4.925 11 11 11s11-4.925 11-11v-4h13.747c4.852 0 8.798 3.947 8.798 8.798z"/><path d="m493.325 157.316-67.5-67.5c-2.063-2.063-4.861-3.222-7.778-3.222h-67.5c-6.075 0-11 4.925-11 11v170c0 6.075 4.925 11 11 11h135c6.075 0 11-4.925 11-11v-102.5c-.001-2.917-1.16-5.715-3.222-7.778zm-64.279-33.166 29.944 29.944h-29.944zm-67.5 132.444v-148h45.5v56.5c0 6.075 4.925 11 11 11h56.5v80.5z"/><path d="m161.454 143.594h-150.454c-6.075 0-11 4.925-11 11v113c0 6.075 4.925 11 11 11h150.453c6.075 0 11-4.925 11-11v-113c.001-6.075-4.924-11-10.999-11zm-14.93 22-60.297 32.964-60.297-32.964zm-124.524 91v-68.075l58.95 32.228c1.644.899 3.46 1.348 5.276 1.348s3.633-.449 5.276-1.348l58.95-32.228v68.075z"/></g></g><g/><g/><g/><g/><g/><g/><g/><g/><g/><g/><g/><g/><g/><g/><g/></svg>