<svg id="Layer_1" enable-background="new 0 0 512 512" viewBox="0 0 512 512" xmlns="http://www.w3.org/2000/svg" fill="#052438"><g><g fill="#0496FF"><path d="m335.88 327.645-46.946-66.218c-2.063-2.909-5.407-4.638-8.974-4.638s-6.911 1.729-8.974 4.638l-46.945 66.218c-2.379 3.355-2.687 7.758-.798 11.413s5.658 5.949 9.771 5.949h16.012v36.845c0 6.075 22 6.075 22 0v-47.845c0-6.075-4.925-11-11-11h-5.729l25.663-36.199 25.664 36.199h-5.729c-6.075 0-11 4.925-11 11v47.845c0 6.075 22 6.075 22 0v-36.845h16.012c4.113 0 7.883-2.295 9.771-5.949 1.889-3.655 1.581-8.058-.798-11.413z"/><path d="m279.96 241.403c29.309 0 53.153-23.854 53.153-53.175s-23.845-53.175-53.153-53.175-53.152 23.854-53.152 53.175 23.843 53.175 53.152 53.175zm0-84.35c17.178 0 31.153 13.985 31.153 31.175s-13.976 31.175-31.153 31.175-31.152-13.985-31.152-31.175 13.974-31.175 31.152-31.175z"/></g><g><path d="m456.735 46.278-15.502-7.043c-5.51-2.503-9.986-7.692-12.282-14.237l-6.189-17.64c-1.547-4.408-5.709-7.358-10.38-7.358s-8.833 2.95-10.38 7.358l-6.189 17.64c-2.296 6.544-6.772 11.733-12.282 14.237l-15.502 7.043c-3.929 1.785-6.45 5.701-6.45 10.015s2.521 8.23 6.45 10.015l15.502 7.044c5.51 2.502 9.986 7.691 12.282 14.236l6.189 17.64c1.547 4.408 5.709 7.358 10.38 7.358s8.833-2.95 10.38-7.358l6.189-17.64c2.296-6.545 6.772-11.734 12.282-14.237l15.502-7.043c3.929-1.785 6.45-5.701 6.45-10.015s-2.521-8.23-6.45-10.015zm-44.353 25.058c-3.661-6.139-8.576-11.309-14.333-15.043 5.756-3.735 10.672-8.905 14.333-15.043 3.661 6.139 8.576 11.309 14.333 15.043-5.757 3.735-10.672 8.904-14.333 15.043z"/><path d="m143.972 267.306c3.928-1.784 6.45-5.7 6.45-10.015 0-4.314-2.521-8.23-6.45-10.015l-15.502-7.043c-5.509-2.503-9.986-7.692-12.282-14.237l-6.189-17.64c-1.547-4.408-5.709-7.358-10.38-7.358s-8.833 2.95-10.38 7.358l-6.189 17.64c-2.296 6.544-6.773 11.733-12.282 14.237l-15.502 7.043c-3.929 1.785-6.45 5.701-6.45 10.015s2.522 8.23 6.45 10.015l15.502 7.043c5.509 2.503 9.986 7.692 12.282 14.237l6.189 17.64c1.547 4.408 5.709 7.358 10.38 7.358s8.833-2.95 10.38-7.358l6.189-17.64c2.296-6.545 6.773-11.734 12.282-14.237zm-44.354 5.028c-3.661-6.139-8.576-11.308-14.333-15.043 5.757-3.735 10.672-8.904 14.333-15.043 3.661 6.139 8.576 11.308 14.333 15.043-5.757 3.734-10.672 8.905-14.333 15.043z"/><path d="m391.235 283.818c4.388-33.707 3.356-69.269-3.4-104.442-6.742-35.102-18.646-67.721-35.382-96.953-17.697-30.91-39.889-56.345-65.958-75.598-3.885-2.868-9.186-2.868-13.07 0-26.069 19.253-48.261 44.688-65.957 75.598-16.736 29.232-28.64 61.852-35.382 96.953-6.726 35.019-7.779 70.423-3.457 103.998l-29.22 33.442c-12.418 14.031-14.931 33.879-6.401 50.564l33.915 66.347c1.575 3.081 4.508 5.241 7.917 5.832.626.108 1.254.162 1.878.162 2.779 0 5.482-1.054 7.54-2.99l37.5-35.3h15.167c-6.361 8.765-10.116 19.539-10.116 31.175 0 26.301 37.582 67.845 45.116 75.906 2.08 2.226 4.989 3.489 8.036 3.489 3.046 0 5.956-1.263 8.036-3.489 7.534-8.061 45.117-49.605 45.117-75.906 0-11.636-3.755-22.41-10.117-31.175h14.852l37.499 35.3c2.058 1.937 4.761 2.99 7.54 2.99.624 0 1.252-.053 1.878-.162 3.409-.59 6.342-2.75 7.917-5.832l33.916-66.347c8.528-16.684 6.017-36.532-6.371-50.53zm-111.274-254.248c20.473 16.523 37.84 37.386 51.791 61.016h-103.582c13.95-23.629 31.317-44.493 51.791-61.016zm-63.43 83.016h126.86c37.294 79.021 39.927 180.685-1.771 256.167l-5.897 10.677h-111.524l-5.897-10.677c-41.699-75.483-39.066-177.146-1.771-256.167zm-36.687 298.084-27.247-53.303c-4.382-8.57-3.092-18.764 3.332-26.022l17.609-20.152c5.527 24.449 14.072 47.5 25.507 68.199l4.799 8.688zm131.269 21.935c0 10.998-16.292 34.343-31.156 51.842-14.862-17.486-31.149-40.822-31.149-51.842 0-17.19 13.975-31.175 31.152-31.175s31.153 13.985 31.153 31.175zm95.896-75.238-27.248 53.303-23.791-22.396 4.907-8.884c11.379-20.598 19.896-43.525 25.425-67.841l17.42 19.847c6.378 7.207 7.668 17.401 3.287 25.971z"/></g></g><g/><g/><g/><g/><g/><g/><g/><g/><g/><g/><g/><g/><g/><g/><g/></svg>