<svg id="Layer_1" enable-background="new 0 0 512 512" viewBox="0 0 512 512" xmlns="http://www.w3.org/2000/svg" fill="#E6ECF2"><g><g fill="#0496FF"><path d="m395.513 165.369c-5.001-3.449-11.852-2.192-15.301 2.809l-16.401 23.777-8.527-6.411c-4.855-3.652-11.753-2.674-15.402 2.182-3.651 4.855-2.674 11.751 2.182 15.402l17.686 13.297c1.918 1.442 4.241 2.208 6.61 2.208.587 0 1.178-.047 1.765-.143 2.957-.48 5.589-2.146 7.29-4.611l22.908-33.209c3.448-5.001 2.191-11.851-2.81-15.301z"/><path d="m368.97 102.982c-19.585 0-38.106 6.354-53.563 18.375-21.628 16.821-34.031 42.215-34.031 69.671 0 48.385 39.159 87.881 87.269 88.045h.325c48.299 0 87.593-39.497 87.593-88.046s-39.294-88.045-87.593-88.045zm0 154.092h-.227c-36.044-.123-65.367-29.75-65.367-66.045 0-20.618 9.309-39.683 25.538-52.306 11.558-8.989 25.408-13.74 40.056-13.74 36.168 0 65.593 29.628 65.593 66.046s-29.425 66.045-65.593 66.045z"/></g><g><path d="m67.58 354.18c-3.986-2.633-9.375-2.396-13.079.644-3.288 2.698-4.769 7.24-3.646 11.352 1.262 4.622 5.461 7.988 10.264 8.148 4.648.155 9.02-2.766 10.65-7.121 1.765-4.714.039-10.245-4.189-13.023z"/><path d="m112.95 359.12c-1.74-4.244-6.118-7.003-10.695-6.772-4.6.232-8.639 3.389-9.983 7.791-1.325 4.338.243 9.153 3.829 11.915 3.686 2.839 8.93 3.01 12.798.426 4.311-2.88 6.046-8.573 4.051-13.36z"/><path d="m154.27 359.12c-1.819-4.296-6.203-7.07-10.879-6.766-4.423.287-8.323 3.317-9.718 7.515-1.418 4.267-.017 9.107 3.458 11.96 3.613 2.966 8.813 3.282 12.786.842 4.56-2.801 6.336-8.637 4.353-13.551z"/><path d="m102.795 237.927c6.075 0 11-4.925 11-11v-12.768c0-6.075-4.925-11-11-11s-11 4.925-11 11v12.768c0 6.075 4.925 11 11 11z"/><path d="m35.498 252.052c2.149 2.16 4.973 3.24 7.797 3.24 2.807 0 5.613-1.067 7.76-3.203 4.306-4.286 4.322-11.25.037-15.557l-8.985-9.028c-4.285-4.306-11.25-4.322-15.557-.037-4.306 4.286-4.322 11.25-.037 15.557z"/><path d="m162.294 255.292c2.823 0 5.646-1.081 7.796-3.24l8.986-9.028c4.286-4.306 4.27-11.271-.036-15.557-4.306-4.285-11.27-4.27-15.556.036l-8.986 9.028c-4.286 4.306-4.27 11.271.036 15.557 2.147 2.137 4.953 3.204 7.76 3.204z"/><path d="m367.874 52.88c-79.472 0-144.126 64.82-144.126 144.496 0 9.194.868 18.38 2.582 27.352l-11.149 31.115c-4.11 11.472 1.47 24.135 12.705 28.828l14.17 5.92v27.176c0 11.052 4.379 21.358 12.33 29.021 7.934 7.645 18.359 11.626 29.362 11.224l28.528-1.057v20.259c0 6.075 4.925 11 11 11h98.979c6.075 0 11-4.925 11-11v-51.034c48.068-24.555 78.745-74.346 78.745-128.804 0-79.675-64.654-144.496-144.126-144.496zm49.873 256.347c-3.95 1.775-6.491 5.703-6.491 10.034v46.953h-76.979v-20.674c0-2.988-1.216-5.847-3.367-7.921-2.151-2.073-5.039-3.182-8.04-3.072l-39.935 1.479c-4.992.188-9.692-1.621-13.282-5.08-3.609-3.478-5.597-8.159-5.597-13.18v-34.501c0-4.437-2.666-8.439-6.76-10.15l-20.93-8.744c-.425-.178-.634-.664-.475-1.107l12.184-34.001c.69-1.929.83-4.012.4-6.015-1.81-8.446-2.728-17.15-2.728-25.871 0-67.544 54.785-122.496 122.126-122.496s122.127 54.951 122.127 122.495c0 48.225-28.361 92.128-72.253 111.851z"/><path d="m209.737 307.665-20.45-2.492c-18.981-27.745-51.499-44.77-86.172-44.77-56.858-.001-103.115 44.572-103.115 99.358s46.257 99.358 103.115 99.358 103.115-44.572 103.115-99.358c0-4.411-.303-8.829-.901-13.185l12.673-22.615c1.793-3.2 1.874-7.082.215-10.353s-4.839-5.5-8.48-5.943zm-25.466 31.486c-1.25 2.229-1.684 4.824-1.229 7.338.788 4.348 1.188 8.813 1.188 13.271 0 42.656-36.388 77.358-81.115 77.358s-81.115-34.701-81.115-77.357 36.388-77.359 81.115-77.359c28.902 0 55.845 14.852 70.313 38.761 1.749 2.889 4.728 4.815 8.08 5.224l9.282 1.131z"/></g></g><g/><g/><g/><g/><g/><g/><g/><g/><g/><g/><g/><g/><g/><g/><g/></svg>