<svg id="Layer_1" enable-background="new 0 0 512 512" viewBox="0 0 512 512" xmlns="http://www.w3.org/2000/svg" fill="#E6ECF2"><g><g><g><path d="m332.029 464.693h-152.058c-6.075 0-11-4.925-11-11v-170.976c0-6.075 4.925-11 11-11h152.058c6.075 0 11 4.925 11 11v170.976c0 6.076-4.925 11-11 11zm-141.058-22h130.058v-148.976h-130.058z" fill="#0496FF"/></g></g><path d="m420.769 128.767h-47.734v-44.624c0-3.112-1.318-6.078-3.627-8.163l-25.475-23.01c1.881-4.519 2.921-9.472 2.921-14.663 0-21.122-17.205-38.307-38.352-38.307s-38.352 17.185-38.352 38.308 17.205 38.307 38.352 38.307c7.956 0 15.354-2.433 21.488-6.592l21.045 19.008v39.737h-190.07v-39.738l21.045-19.008c6.134 4.159 13.532 6.592 21.488 6.592 21.147 0 38.352-17.185 38.352-38.307s-17.205-38.307-38.352-38.307-38.352 17.185-38.352 38.308c0 5.191 1.04 10.144 2.921 14.663l-25.475 23.01c-2.309 2.085-3.627 5.051-3.627 8.163v44.624h-47.734c-6.075 0-11 4.925-11 11v47.822c0 6.075 4.925 11 11 11h9.602v36.822c0 6.075 4.925 11 11 11h9.755v254.588c0 6.075 4.925 11 11 11h246.825c6.075 0 11-4.925 11-11v-254.589h9.755c6.075 0 11-4.925 11-11v-36.822h9.602c6.075 0 11-4.925 11-11v-47.822c-.001-6.075-4.926-11-11.001-11zm-112.267-74.152c-9.017 0-16.352-7.315-16.352-16.307s7.335-16.308 16.352-16.308c9.016 0 16.352 7.315 16.352 16.308 0 8.991-7.335 16.307-16.352 16.307zm-105.004-32.615c9.017 0 16.352 7.315 16.352 16.308 0 8.992-7.335 16.307-16.352 16.307-9.016 0-16.352-7.315-16.352-16.307 0-8.993 7.335-16.308 16.352-16.308zm-101.267 128.767h307.538v25.822h-307.538zm266.182 339.233h-224.826v-243.589h224.825v243.589zm20.754-265.589h-266.334v-25.822h266.335v25.822z"/></g><g/><g/><g/><g/><g/><g/><g/><g/><g/><g/><g/><g/><g/><g/><g/></svg>