<svg id="Capa_1" enable-background="new 0 0 511.999 511.999" viewBox="0 0 511.999 511.999" xmlns="http://www.w3.org/2000/svg" fill="#E6ECF2"><g><g><path d="m465.999 430h-28.999v-419c0-6.075-4.925-11-11-11h-380c-6.075 0-11 4.925-11 11v449.999c0 28.121 22.878 51 51 51h340c28.121 0 51-22.879 51-51v-19.999c-.001-6.075-4.926-11-11.001-11zm-347.778 3.222c-2.063 2.063-3.222 4.861-3.222 7.778v19.999c0 15.99-13.009 29-29 29s-29-13.01-29-29v-438.999h358v408h-289c-2.917 0-5.715 1.159-7.778 3.222zm336.778 27.777c0 15.99-13.01 29-29 29h-298.067c5.716-8.239 9.068-18.235 9.068-29v-8.999h318v8.999z"/><path d="m356 275.001h-240c-6.075 0-11 4.925-11 11s4.925 11 11 11h240c6.075 0 11-4.925 11-11s-4.925-11-11-11z"/><path d="m356 320h-240c-6.075 0-11 4.925-11 11s4.925 11 11 11h240c6.075 0 11-4.925 11-11s-4.925-11-11-11z"/><path d="m356 375h-120c-6.075 0-11 4.925-11 11s4.925 11 11 11h120c6.075 0 11-4.925 11-11s-4.925-11-11-11z"/></g><path d="m350.989 169.392-24.194-52.419c5.704-.407 10.205-5.163 10.205-10.971 0-6.075-4.925-11-11-11-19.479 0-29.293-4.22-40.654-9.105-9.929-4.269-20.964-9.015-38.346-10.456v-9.438c0-6.075-4.925-11-11-11s-11 4.925-11 11v9.438c-17.381 1.442-28.417 6.187-38.345 10.456-11.362 4.886-21.175 9.105-40.655 9.105-6.075 0-11 4.925-11 11 0 5.808 4.501 10.564 10.205 10.971l-24.194 52.419c-1.572 3.405-1.3 7.378.722 10.538 2.021 3.159 5.514 5.071 9.266 5.071h60c3.751 0 7.244-1.912 9.266-5.071 2.022-3.16 2.294-7.133.722-10.538l-25.806-55.912c7.87-2.087 14.215-4.815 20.164-7.373 8.999-3.87 17.027-7.321 29.655-8.59v115.484h-34c-6.075 0-11 4.925-11 11s4.925 11 11 11h90c6.075 0 11-4.925 11-11s-4.925-11-11-11h-34v-115.484c12.628 1.268 20.656 4.72 29.654 8.59 5.949 2.558 12.295 5.286 20.165 7.373l-25.806 55.912c-1.572 3.405-1.3 7.378.722 10.538 2.021 3.159 5.515 5.071 9.266 5.071h60.001c3.751 0 7.244-1.912 9.266-5.071 2.02-3.16 2.293-7.133.721-10.538zm-202.797-6.391 12.808-27.751 12.808 27.751zm150.001 0 12.809-27.751 12.808 27.751z" fill="#0496FF"/></g><g/><g/><g/><g/><g/><g/><g/><g/><g/><g/><g/><g/><g/><g/><g/></svg>