<svg id="Capa_1" enable-background="new 0 0 511.983 511.983" height="512" viewBox="0 0 511.983 511.983" width="512" xmlns="http://www.w3.org/2000/svg" fill="#052438"><g id="Light_Bulb_4_"><path d="m347.485 451.004h-182.987c-6.075 0-11-4.925-11-11s4.925-11 11-11h182.987c6.075 0 11 4.925 11 11s-4.924 11-11 11z" fill="#0496FF"/><path d="m286.49 324.316c-6.075 0-11-.229-11-6.304v-215.518c0-10.751-8.746-19.498-19.498-19.498-10.751 0-19.498 8.747-19.498 19.498v215.519c0 6.075-4.925 6.656-11 6.656s-11-.581-11-6.656v-215.519c0-22.882 18.616-41.498 41.498-41.498s41.498 18.616 41.498 41.498v215.519c0 6.075-4.925 6.303-11 6.303z" fill="#0496FF"/><path d="m255.992 0c-56.515 0-102.494 45.979-102.494 102.494v215.519 30.498c0 19.073 12.939 35.172 30.498 40.006v51.487c0 21.152 9.248 41.148 25.374 54.863 13.099 11.141 29.669 17.116 46.769 17.116 3.938 0 7.905-.317 11.863-.961 34.198-5.562 59.986-37.496 59.986-74.281v-48.225c17.558-4.834 30.498-20.933 30.498-40.006v-30.498-215.518c-.001-56.515-45.979-102.494-102.494-102.494zm0 22c44.384 0 80.494 36.109 80.494 80.494v204.519h-160.988v-204.519c0-44.385 36.109-80.494 80.494-80.494zm8.477 467.308c-14.985 2.439-29.49-1.54-40.847-11.199-11.202-9.527-17.627-23.416-17.627-38.104v-49.996h99.992v46.733c.001 26.117-17.848 48.716-41.518 52.566zm72.016-140.797c0 10.751-8.747 19.497-19.498 19.497h-121.991c-10.751 0-19.498-8.746-19.498-19.497v-19.498h160.987z"/></g></svg>