<svg id="Capa_1" enable-background="new 0 0 512 512" height="512" viewBox="0 0 512 512" width="512" xmlns="http://www.w3.org/2000/svg" fill="#052438"><g id="Light_Bulb_19_"><g fill="#0496FF"><path d="m195.004 512c-6.075 0-11-4.925-11-11v-124.025c0-6.075 4.925-5.644 11-5.644s11-.431 11 5.644v124.025c0 6.075-4.925 11-11 11z"/><path d="m316.996 512c-6.075 0-11-4.925-11-11v-124.025c0-6.075 4.925-5.65 11-5.65s11-.425 11 5.65v124.025c0 6.075-4.925 11-11 11z"/><path d="m327.941 131.904c-.598-8.975-12.573-13.251-18.723-6.691l-22.72 22.72-22.72-22.72c-4.297-4.296-11.26-4.296-15.557 0l-22.72 22.72-22.72-22.72c-6.495-6.937-19.096-1.712-18.778 7.784v152.484c0 6.075 4.925 7.517 11 7.517s11-1.442 11-7.517v-125.933l11.72 11.72c2.148 2.148 4.963 3.222 7.778 3.222s5.63-1.074 7.778-3.222l22.72-22.72 22.72 22.72c2.148 2.148 4.963 3.222 7.778 3.222 2.816 0 5.63-1.074 7.778-3.222l11.72-11.72v125.933c0 6.075 4.925 5.578 11 5.578s11 .497 11-5.578v-152.484c.001-.365-.018-.729-.054-1.093z"/></g><path d="m225.502 387.975h-60.996c-6.075 0-11-4.925-11-11v-91.494c0-6.075 4.925-11 11-11h60.996c6.075 0 11 4.925 11 11v91.494c0 6.075-4.925 11-11 11zm-49.996-22h38.996v-69.494h-38.996z"/><path d="m347.494 387.975h-60.996c-6.075 0-11-4.925-11-11v-91.494c0-6.075 4.925-11 11-11h60.996c6.075 0 11 4.925 11 11v91.494c0 6.075-4.925 11-11 11zm-49.996-22h38.996v-69.494h-38.996z"/><path d="m377.992 448.971h-243.984c-22.882 0-41.497-18.616-41.497-41.498v-152.49c0-19.075 12.938-35.186 30.497-40.019v-81.973c0-73.331 59.66-132.991 132.992-132.991s132.992 59.66 132.992 132.992v81.973c17.56 4.833 30.497 20.943 30.497 40.019v152.49c0 22.881-18.615 41.497-41.497 41.497zm-121.992-426.971c-61.201 0-110.992 49.79-110.992 110.992v91.494c0 6.075-4.925 11-11 11-10.751 0-19.497 8.747-19.497 19.498v152.49c0 10.751 8.746 19.498 19.497 19.498h243.984c10.751 0 19.497-8.747 19.497-19.498v-152.49c0-10.751-8.746-19.498-19.497-19.498-6.075 0-11-4.925-11-11v-91.494c0-61.202-49.791-110.992-110.992-110.992z"/></g></svg>