<svg id="Capa_1" enable-background="new 0 0 511.947 511.947" height="512" viewBox="0 0 511.947 511.947" width="512" xmlns="http://www.w3.org/2000/svg" fill="#E6ECF2"><g id="Light_Bulbs_4_"><path d="m377.981 335.424h-80.453c.966-47.61 16.514-72.36 45.557-118.546 10.073-16.048 15.398-34.528 15.398-53.441 0-56.516-45.972-102.494-102.479-102.494-7.437 0-15.021.794-22.531 2.359-38.811 8.05-70.957 41.211-78.175 80.643-5.848 31.953 3.606 56.394 12.567 71.274l1.78 2.953c29.311 48.622 43.826 72.73 44.767 117.252h-80.415c-6.075 0-11 4.925-11 11s4.925 11 11 11h152.533.01.042 91.398c6.075 0 11-4.925 11-11 .001-6.075-4.924-11-10.999-11zm-189.494-128.61-1.777-2.947c-7.002-11.626-14.381-30.773-9.771-55.961 5.648-30.851 30.732-56.783 61.011-63.063 6.047-1.26 12.121-1.898 18.054-1.898 44.376 0 80.479 36.109 80.479 80.494 0 14.771-4.161 29.206-12.027 41.738-29.395 46.748-47.87 76.132-48.931 130.25h-39.1c-.919-50.596-17.308-77.804-47.938-128.613z" fill="#0496FF"/><path d="m359.116 36.57c-38.358-31.215-88.67-43.24-138.034-32.999-63.475 13.172-114.023 65.165-125.784 129.378-7.35 40.129-.318 79.461 20.334 113.745 4.613 7.657 8.972 14.428 12.817 20.402 16.15 25.085 25.046 38.903 25.046 73.061v6.269 63.029c0 22.882 18.616 41.498 41.498 41.498h19.498v19.498c0 22.882 18.616 41.498 41.498 41.498s41.498-18.616 41.498-41.498v-19.498h19.498c22.882 0 41.498-18.616 41.498-41.498v-63.029-6.411c0-34.997 8.649-48.233 25.88-74.603 3.117-4.77 6.649-10.176 10.357-16.075 16.197-25.77 24.759-55.473 24.759-85.899 0-49.409-22.001-95.65-60.363-126.868zm-83.629 433.88c0 10.751-8.746 19.498-19.498 19.498-10.751 0-19.498-8.747-19.498-19.498v-19.498h38.996zm100.607-232.822c-3.605 5.735-6.931 10.825-10.148 15.748-17.742 27.152-29.463 45.089-29.463 86.637v6.411 63.029c0 10.751-8.747 19.498-19.498 19.498h-121.992c-10.751 0-19.498-8.747-19.498-19.498v-63.029-6.269c0-40.627-11.357-58.268-28.548-84.97-3.946-6.13-8.027-12.469-12.471-19.845-17.843-29.62-23.907-63.656-17.539-98.43 10.165-55.499 53.813-100.427 108.613-111.799 42.856-8.892 86.478 1.503 119.678 28.521 33.205 27.023 52.249 67.044 52.249 109.804.002 26.28-7.393 51.935-21.383 74.192z"/></g></svg>