<svg id="Capa_1" enable-background="new 0 0 512.005 512.005" height="512" viewBox="0 0 512.005 512.005" width="512" xmlns="http://www.w3.org/2000/svg" fill="#E6ECF2"><g id="Light_Bulb_17_"><g><path d="m511.604 8.073c-1.618-5.854-7.676-9.29-13.532-7.672-.631.174-37.538 10.227-94.019 18.666-.192.025-.384.049-.576.085-41.027 6.108-92.301 11.35-147.475 11.35-54.828 0-105.799-5.176-146.696-11.235-.629-.148-1.26-.245-1.89-.28-56.177-8.423-92.853-18.412-93.481-18.585-5.857-1.62-11.915 1.814-13.534 7.669-1.62 5.856 1.813 11.915 7.669 13.534.597.165 32.964 8.993 83.546 17.169l-11.826 30.631c-2.188 5.667.543 8.47 6.211 10.658 1.303.503 4.479.974 5.797.974 4.415 0 6.831.657 8.516-3.708l13.584-35.183c37.596 5.298 82.708 9.693 131.105 10.284v24.334c-32.721 3.271-45.747 22.479-45.747 65.38 0 27.833 13.971 108.594 56.747 108.594s56.747-80.761 56.747-108.594c0-42.901-13.026-62.109-45.747-65.38v-24.334c48.503-.592 93.707-5.005 131.352-10.319l13.598 35.218c1.685 4.365 5.552 4.734 9.967 4.734 1.316 0 3.209-.729 4.51-1.232 5.668-2.188 8.235-5.759 6.046-11.426l-11.842-30.67c50.442-8.165 82.704-16.964 83.301-17.13 5.855-1.619 9.287-7.677 7.669-13.532zm-220.854 134.071c0 13.189-3.364 36.468-10.752 56.413-6.999 18.898-15.97 30.181-23.995 30.181s-16.996-11.282-23.995-30.181c-7.388-19.945-10.752-43.225-10.752-56.413 0-39.743 10.588-43.896 34.747-43.896 24.159.001 34.747 4.153 34.747 43.896z"/><path d="m458.441 231.783c-12.027 0-28.105-6.771-46.458-31.783-14.263-19.438-24.969-43.267-29.252-58.26-13.027-45.595-2.805-67.73 36.46-78.95 39.268-11.214 59.641 2.177 72.668 47.772 7.646 26.762 16.398 108.253-24.731 120.005-2.588.739-5.495 1.216-8.687 1.216zm-16.228-150.952c-4.894 0-10.467 1.253-16.978 3.113-23.229 6.637-32.268 13.538-21.35 51.752v.001c3.622 12.681 13.253 34.14 25.835 51.289 11.923 16.249 23.648 24.636 31.363 22.427 7.717-2.204 13.242-15.518 14.78-35.611 1.624-21.207-1.536-44.515-5.159-57.196-7.858-27.505-15.926-35.775-28.491-35.775z" fill="#0496FF"/></g><path d="m511.604 267.305c-1.618-5.854-7.676-9.29-13.532-7.672-.63.174-37.518 10.221-93.975 18.66-.212.026-.424.054-.636.094-41.025 6.107-92.291 11.347-147.458 11.347-54.822 0-105.788-5.175-146.683-11.233-.636-.15-1.274-.248-1.91-.283-56.174-8.423-92.847-18.411-93.474-18.583-5.857-1.62-11.915 1.813-13.534 7.669-1.62 5.855 1.813 11.915 7.669 13.534.597.165 32.964 8.993 83.546 17.169l-8.347 21.618c-11.742-2.295-24.97-2.478-36.641 5.262-11.427 7.579-19.514 21.429-26.222 44.906-4.289 15.015-7.791 41.22-5.943 65.918 2.993 39.996 18.333 52.595 30.675 56.121 2.886.824 5.746 1.212 8.575 1.212 37.094 0 68.588-66.759 75.821-92.071 0-.001 0-.001 0-.001 11.665-40.83 4.668-62.839-25.113-75.052l9.476-24.542c37.596 5.298 82.708 9.693 131.105 10.284v34.818c0 6.075 4.925 8.652 11 8.652s11-2.576 11-8.652v-34.818c48.504-.592 93.707-5.005 131.353-10.319l9.489 24.577c-29.782 12.213-36.779 34.223-25.113 75.052 4.333 15.167 15.032 39.341 29.165 59.157 18.482 25.913 34.667 32.893 46.737 32.893 3.115 0 5.958-.466 8.494-1.19 12.342-3.526 27.682-16.126 30.674-56.122 1.848-24.697-1.653-50.902-5.942-65.916-6.708-23.479-14.796-37.329-26.223-44.908-11.671-7.739-24.898-7.555-36.64-5.261l-8.362-21.658c50.442-8.165 82.704-16.964 83.301-17.13 5.854-1.619 9.286-7.676 7.668-13.532zm-403.223 127.623c-3.691 12.921-13.378 34.838-25.923 52.426-11.969 16.781-23.662 25.502-31.276 23.324-7.703-2.2-13.229-15.886-14.778-36.608-1.638-21.877 1.526-45.521 5.158-58.232 7.858-27.506 15.925-35.774 28.491-35.774 4.893 0 10.468 1.253 16.977 3.113 23.229 6.636 32.269 13.538 21.351 51.751zm333.95-54.66c5.637 0 8.858 1.436 11.146 2.952 6.658 4.416 12.133 14.78 17.228 32.617 9.15 32.027 7.883 89.84-9.621 94.841-7.613 2.179-19.307-6.542-31.276-23.324-12.545-17.588-22.232-39.505-25.922-52.425 0 0 0 0 0-.001-10.912-38.188-1.89-45.106 21.304-51.738.003-.001.007-.002.01-.003.012-.003.024-.007.037-.011 7.423-2.122 12.92-2.908 17.094-2.908z"/><g fill="#0496FF"><path d="m54.021 231.824c-2.928 0-5.889-.401-8.883-1.257-12.339-3.525-27.677-15.943-30.673-55.085-1.841-24.04 1.658-49.928 5.941-64.921 13.028-45.593 33.4-58.987 72.667-47.771 39.266 11.22 49.488 33.354 36.462 78.95v.001c-7.09 24.812-38.233 90.083-75.514 90.083zm15.914-150.787c-5.639 0-8.858 1.435-11.146 2.952-6.657 4.416-12.132 14.78-17.227 32.616-3.624 12.682-6.784 35.989-5.16 57.197 1.538 20.094 7.063 33.406 14.78 35.61 7.718 2.214 19.44-6.178 31.363-22.427 12.582-17.149 22.213-38.608 25.836-51.29 10.918-38.214 1.878-45.115-21.352-51.752-7.422-2.12-12.92-2.906-17.094-2.906zm49.023 57.681h.01z"/><path d="m256.003 512.004c-12.847 0-31.022-7.918-44.655-45.638-8.353-23.109-12.092-49.292-12.092-64.989 0-47.42 15.91-65.896 56.747-65.896s56.747 18.476 56.747 65.896c0 15.697-3.739 41.88-12.092 64.989-13.634 37.72-31.809 45.638-44.655 45.638zm0-154.523c-24.159 0-34.747 4.152-34.747 43.896 0 13.332 3.374 37.017 10.782 57.511 7.042 19.484 16.001 31.116 23.965 31.116s16.923-11.632 23.965-31.116c7.408-20.494 10.782-44.179 10.782-57.511 0-39.743-10.588-43.896-34.747-43.896z"/></g></g></svg>