<svg id="Capa_1" enable-background="new 0 0 512 512" height="512" viewBox="0 0 512 512" width="512" xmlns="http://www.w3.org/2000/svg" fill="#052438"><g id="Light_Bulb_10_"><path d="m97.261 425.739c-2.815 0-3.924-3.419-6.073-5.567-4.296-4.296-6.001-8.915-1.705-13.211l317.478-317.478c4.297-4.296 8.309-1.716 12.606 2.579 4.296 4.296 7.247 8.681 2.951 12.977l-317.479 317.478c-2.148 2.148-4.963 3.222-7.778 3.222z" fill="#0496FF"/><path d="m494.991 75.696 13.531-13.531c4.283-4.283 4.605-11.308.399-15.667-4.284-4.441-11.355-4.489-15.699-.146l-13.787 13.788-27.574-27.574 13.53-13.53c4.283-4.283 4.604-11.308.399-15.667-4.284-4.441-11.355-4.489-15.7-.145l-13.787 13.787-13.627-13.631c-1.14-1.14-2.478-2.086-3.987-2.655-4.203-1.585-8.737-.494-11.728 2.496l-403.739 403.74c-4.296 4.296-4.296 11.261 0 15.557l13.787 13.787-13.515 13.515c-4.144 4.144-4.641 10.891-.773 15.294 2.201 2.504 5.24 3.756 8.28 3.756 2.815 0 5.63-1.074 7.778-3.222l13.787-13.787 27.574 27.574-13.515 13.515c-4.144 4.144-4.641 10.891-.773 15.294 2.201 2.504 5.24 3.756 8.28 3.756 2.815 0 5.63-1.074 7.778-3.222l13.787-13.787 13.628 13.628c1.14 1.14 2.478 2.086 3.987 2.654 4.203 1.585 8.737.494 11.728-2.496l403.739-403.737c4.296-4.296 4.296-11.261 0-15.557zm-123.382-6.009 70.704 70.705-301.921 301.921-70.704-70.705zm-274.348 415.757-13.774-13.774c-.004-.004-.008-.009-.012-.013s-.009-.008-.013-.012l-43.116-43.117s-.001-.001-.002-.002c-.001 0-.001-.001-.002-.002l-13.785-13.785 27.574-27.574 70.704 70.705zm360.609-360.609-70.704-70.705 27.574-27.574 13.774 13.774c.004.004.008.009.012.013s.009.008.013.012l43.116 43.117c0 .001.001.001.002.002 0 .001.001.001.002.002l13.785 13.785z"/></g></svg>