<svg id="Capa_1" enable-background="new 0 0 511.947 511.947" height="512" viewBox="0 0 511.947 511.947" width="512" xmlns="http://www.w3.org/2000/svg" fill="#052438"><g id="Light_Bulb_1_"><path d="m377.962 418.421h-243.983c-6.075 0-11-4.925-11-11s4.925-11 11-11h243.983c6.075 0 11 4.925 11 11s-4.924 11-11 11z" fill="#0496FF"/><path d="m316.967 152.437c-22.882 0-41.498 18.616-41.498 41.498v19.498h-38.996v-19.498c0-22.882-18.616-41.498-41.498-41.498s-41.498 18.616-41.498 41.498 18.616 41.498 41.498 41.498h19.498v110.992c0 6.075 4.925 8.523 11 8.523s11-2.448 11-8.523v-110.992h38.996v110.992c0 6.075 4.925 7.523 11 7.523s11-1.448 11-7.523v-110.992h19.498c22.882 0 41.498-18.616 41.498-41.498-.001-22.882-18.616-41.498-41.498-41.498zm-141.49 41.498c0-10.751 8.747-19.498 19.498-19.498s19.498 8.747 19.498 19.498v19.498h-19.498c-10.751 0-19.498-8.747-19.498-19.498zm141.49 19.498h-19.498v-19.498c0-10.751 8.747-19.498 19.498-19.498s19.498 8.747 19.498 19.498c-.001 10.751-8.747 19.498-19.498 19.498z" fill="#0496FF"/><path d="m359.097 36.57c-38.357-31.215-88.669-43.24-138.034-32.999-63.475 13.172-114.023 65.165-125.783 129.378-8.306 45.353 2.059 90.436 29.185 126.943 18.98 25.546 29.013 53.43 29.013 80.638v5.895 74.678c0 15.82 8.79 30.042 22.939 37.117l27.278 13.639c6.648 3.324 10.778 10.006 10.778 17.439v11.649c0 6.075 4.925 11 11 11h60.996c6.075 0 11-4.925 11-11v-11.649c0-7.433 4.13-14.116 10.778-17.439l27.277-13.639c14.15-7.075 22.94-21.297 22.94-37.117v-74.678-6.005c0-27.531 9.773-55.03 28.263-79.525 21.414-28.37 32.733-62.07 32.733-97.457 0-49.409-22.001-95.65-60.363-126.868zm-22.633 384.533c0 7.433-4.13 14.116-10.778 17.439l-27.277 13.639c-14.15 7.075-22.94 21.297-22.94 37.117v.649h-38.996v-.649c0-15.82-8.79-30.042-22.94-37.117l-27.278-13.639c-6.648-3.324-10.778-10.006-10.778-17.439v-63.678h160.987zm32.704-173.463c-20.293 26.884-31.505 57.133-32.606 87.785h-161.19c-1.158-30.304-12.589-60.847-33.249-88.653-23.448-31.557-32.399-70.573-25.204-109.859 10.165-55.499 53.813-100.427 108.613-111.799 42.857-8.892 86.478 1.503 119.678 28.521 33.205 27.023 52.249 67.044 52.249 109.804.001 30.563-9.782 59.679-28.291 84.201z"/></g></svg>