<svg id="Capa_1" enable-background="new 0 0 512 512" height="512" viewBox="0 0 512 512" width="512" xmlns="http://www.w3.org/2000/svg" fill="#E6ECF2"><g id="Light_Bulbs_3_"><path d="m347.496 451.004h-182.989c-6.075 0-11-4.925-11-11s4.925-11 11-11h182.988c6.075 0 11 4.925 11 11s-4.924 11-10.999 11z" fill="#0496FF"/><path d="m294.278 277.703-22.72-22.72 22.72-22.72c2.062-2.063 3.222-4.861 3.222-7.778s-1.159-5.715-3.222-7.778l-30.498-30.497c-1.611-1.611-3.598-2.618-5.678-3.02-.125-.025-.252-.035-.378-.055-.223-.035-.445-.075-.669-.097-.15-.014-.3-.013-.451-.021-.201-.011-.402-.029-.604-.029-2.815 0-5.63 1.074-7.778 3.222l-30.498 30.497c-2.062 2.063-3.222 4.861-3.222 7.778s1.159 5.715 3.222 7.778l22.72 22.72-22.72 22.72c-4.296 4.296-4.296 11.261 0 15.557l27.276 27.276v58.472c0 6.075 4.925 6.481 11 6.481s11-.406 11-6.481v-58.473l27.276-27.276c4.298-4.295 4.298-11.26.002-15.556zm-38.277 22.72-14.941-14.941 14.941-14.941 14.941 14.941zm0-60.996-14.941-14.941 14.941-14.941 14.941 14.941z" fill="#0496FF"/><path d="m392.109 119.853c-16.322-37.159-46.88-66.017-84.367-79.912l-1.162-3.486c-7.269-21.805-27.595-36.455-50.579-36.455s-43.31 14.65-50.578 36.454l-1.162 3.486c-37.487 13.895-68.045 42.753-84.367 79.912-17.063 38.85-16.728 81.661.925 120.493l63.187 141.014v58.645c0 39.699 32.297 71.996 71.996 71.996s71.996-32.297 71.996-71.996v-58.645l63.162-140.96c17.676-38.886 18.012-81.697.949-120.546zm-136.108 370.147c-27.568 0-49.996-22.428-49.996-49.996v-49.996h99.992v49.996c.001 27.568-22.427 49.996-49.996 49.996zm115.107-258.65-61.235 136.659h-107.743l-61.26-136.712c-15.052-33.115-15.349-69.551-.834-102.596 14.573-33.176 42.41-58.582 76.375-69.703 3.31-1.084 5.911-3.671 7.013-6.976l2.87-8.611c4.27-12.807 16.207-21.411 29.707-21.411s25.438 8.604 29.707 21.411l2.87 8.611c1.102 3.304 3.703 5.892 7.013 6.976 33.965 11.121 61.802 36.526 76.375 69.703 14.515 33.044 14.218 69.48-.858 102.649z"/></g></svg>