<svg id="Capa_1" enable-background="new 0 0 512 512" height="512" viewBox="0 0 512 512" width="512" xmlns="http://www.w3.org/2000/svg" fill="#E6ECF2"><g id="Light_Bulbs_6_"><path d="m347.494 451.004h-182.988c-6.075 0-11-4.925-11-11s4.925-11 11-11h182.987c6.075 0 11 4.925 11 11s-4.924 11-10.999 11z" fill="#0496FF"/><path d="m294.276 247.205c-4.296-4.295-11.261-4.295-15.557 0l-22.719 22.72-22.72-22.72c-4.296-4.295-11.261-4.295-15.557 0-4.295 4.296-4.295 11.261 0 15.557l27.277 27.276v88.97c0 6.075 4.925 7.233 11 7.233s11-1.158 11-7.233v-88.97l27.276-27.276c4.296-4.296 4.296-11.261 0-15.557z" fill="#0496FF"/><path d="m370.134 33.253c-30.633-21.443-71.167-33.253-114.134-33.253s-83.501 11.81-114.134 33.253c-31.828 22.279-49.355 52.285-49.355 84.49 0 19.223 6.515 38.262 18.84 55.06 47.53 64.779 72.654 134.17 72.654 200.67v5.535 60.996c-.001 39.699 32.296 71.996 71.995 71.996s71.996-32.297 71.996-71.996v-60.996-5.535c0-66.5 25.124-135.891 72.654-200.67 12.325-16.798 18.84-35.837 18.84-55.06 0-32.205-17.528-62.211-49.356-84.49zm-114.134 456.747c-27.568 0-49.996-22.428-49.996-49.996v-49.996h99.992v49.996c0 27.568-22.428 49.996-49.996 49.996zm126.913-330.211c-49.032 66.825-75.54 138.698-76.864 208.219h-100.097c-1.324-69.521-27.832-141.394-76.864-208.219-9.673-13.184-14.577-27.329-14.577-42.046 0-24.818 14.195-48.424 39.972-66.467 26.969-18.879 63.022-29.276 101.517-29.276s74.548 10.397 101.518 29.276c25.776 18.043 39.972 41.648 39.972 66.467 0 14.717-4.905 28.862-14.577 42.046z"/></g></svg>