<svg id="Capa_1" enable-background="new 0 0 511.921 511.921" viewBox="0 0 511.921 511.921" xmlns="http://www.w3.org/2000/svg" fill="#E6ECF2"><g><g><path d="m399.899 231.836c-19.25 0-35.658-4.661-51.753-9.233-26.012-7.389-50.584-14.369-87.992-.295-5.665 2.131-11.981-.733-14.112-6.396s.732-11.981 6.396-14.112c44.164-16.616 74.729-7.935 101.695-.275 22.703 6.449 44.284 12.582 74.101 4.316l-27.537-52.705c-1.587-3.04-1.66-6.648-.196-9.749l23.155-49.06c-30.267 5.986-53.189-.526-75.51-6.866-26.01-7.388-50.577-14.364-87.97-.303-5.665 2.131-11.982-.735-14.111-6.398-2.13-5.664.734-11.981 6.398-14.111 44.149-16.604 74.708-7.924 101.67-.266 25.589 7.268 49.76 14.134 85.902.434 4.175-1.583 8.896-.472 11.929 2.808 3.032 3.28 3.769 8.073 1.862 12.112l-31.186 66.077 30.989 59.315c1.45 2.776 1.643 6.041.529 8.968-1.114 2.928-3.427 5.238-6.356 6.349-18.154 6.884-33.792 9.39-47.903 9.39z" fill="#0496FF"/></g><path d="m413.198 405.3c-39.62-9.004-91.211-14.214-146.283-14.825v-320.485c14.427-4.641 24.899-18.186 24.899-34.136.001-19.77-16.083-35.854-35.854-35.854-19.77 0-35.854 16.084-35.854 35.854 0 15.95 10.471 29.495 24.899 34.136v320.485c-55.072.611-106.663 5.82-146.283 14.825-49.005 11.138-72.827 26.141-72.827 45.867s23.822 34.73 72.827 45.867c42.237 9.599 98.078 14.886 157.238 14.886s115.001-5.287 157.238-14.886c49.005-11.137 72.827-26.141 72.827-45.867s-23.822-34.729-72.827-45.867zm-157.238-383.389c7.688 0 13.943 6.255 13.943 13.943s-6.255 13.943-13.943 13.943c-7.689 0-13.943-6.255-13.943-13.943s6.255-13.943 13.943-13.943zm152.383 453.758c-40.691 9.248-94.808 14.341-152.383 14.341s-111.692-5.093-152.383-14.341c-45.847-10.42-55.771-22.155-55.771-24.501s9.925-14.082 55.771-24.501c38.1-8.659 87.97-13.675 141.427-14.279v27.824h-13.943c-6.051 0-10.956 4.905-10.956 10.956s4.905 10.955 10.956 10.955h49.798c6.051 0 10.956-4.905 10.956-10.955 0-6.051-4.905-10.956-10.956-10.956h-13.943v-27.824c53.458.604 103.328 5.62 141.427 14.279 45.847 10.42 55.771 22.155 55.771 24.501.001 2.346-9.924 14.081-55.771 24.501z"/></g><g/><g/><g/><g/><g/><g/><g/><g/><g/><g/><g/><g/><g/><g/><g/></svg>