<svg id="Capa_1" enable-background="new 0 0 514 514" viewBox="0 0 514 514" xmlns="http://www.w3.org/2000/svg" fill="#E6ECF2"><g><g><path d="m162.904 513.936c-4.027 0-7.761-2.209-9.686-5.793l-51.529-95.896-95.896-51.529c-3.815-2.05-6.071-6.146-5.766-10.466.306-4.319 3.117-8.058 7.183-9.55l240-88.093c4.024-1.479 8.538-.482 11.568 2.548s4.024 7.545 2.548 11.568l-88.093 240c-1.492 4.065-5.23 6.877-9.55 7.183-.26.019-.52.028-.779.028zm-125.14-161.014 77.255 41.513c1.901 1.022 3.461 2.581 4.482 4.482l41.513 77.255 71.474-194.724z" fill="#0496FF"/></g><path d="m512.769 202.237c-2.488-9.288-8.445-17.052-16.774-21.859-5.044-2.913-10.593-4.521-16.249-4.79l-29.307-109.376c4.763-3.061 8.765-7.227 11.677-12.272 9.725-16.846 3.587-39.499-13.176-49.176-16.974-9.799-39.411-3.739-49.177 13.177-4.666 8.082-5.996 17.458-3.795 26.495l-68.043 41.617c-1.694-1.454-3.531-2.766-5.506-3.907-8.327-4.807-18.031-6.084-27.317-3.596-9.288 2.488-17.052 8.445-21.859 16.773-.22.38-.424.766-.628 1.152l-89.09-15.893c-.203-1.502-.493-3.007-.895-4.508-5.139-19.173-24.915-30.596-44.092-25.455-19.172 5.139-30.591 24.917-25.455 44.09 4.997 18.652 25.097 30.548 44.091 25.457 10.04-2.69 17.947-9.398 22.471-17.928l89.102 15.895c.207 1.508.499 3.013.899 4.508 4.306 16.064 18.889 26.687 34.782 26.685 3.075 0 6.2-.397 9.309-1.23 18.9-5.064 30.254-24.353 25.654-43.268l68.043-41.617c1.694 1.454 3.531 2.766 5.507 3.907 5.044 2.912 10.593 4.514 16.247 4.783l29.309 109.381c-4.763 3.061-8.766 7.228-11.678 12.272-4.808 8.328-6.085 18.029-3.596 27.317.738 2.756 1.786 5.347 3.084 7.756l-55.151 57.33c-7.818-3.844-16.654-4.728-25.148-2.45-9.289 2.488-17.052 8.445-21.86 16.773-9.826 17.018-3.798 39.375 13.177 49.177 16.895 9.756 39.485 3.611 49.177-13.176 4.809-8.327 6.086-18.029 3.597-27.317-.732-2.733-1.773-5.33-3.078-7.763l55.154-57.333c4.86 2.383 10.264 3.69 15.831 3.69 3.075 0 6.201-.397 9.31-1.23 19.171-5.139 30.59-24.918 25.453-44.091zm-361.289-103.321c-7.309 1.959-15.199-2.625-17.147-9.899-1.997-7.457 2.443-15.149 9.9-17.147 7.457-1.999 15.148 2.443 17.146 9.899s-2.443 15.148-9.899 17.147zm156.563 27.93c-7.453 1.998-15.148-2.442-17.147-9.898-1.975-7.363 2.558-15.18 9.899-17.147 7.067-1.894 15.189 2.589 17.148 9.899 1.997 7.456-2.444 15.148-9.9 17.146zm109.374-87.283c-1.929-7.201 2.453-15.15 9.898-17.145 7.351-1.97 15.188 2.588 17.147 9.899 1.979 7.384-2.535 15.173-9.898 17.147-7.283 1.95-15.206-2.657-17.147-9.901zm-30.045 285.675c-1.808 3.13-4.775 5.588-8.424 6.565-7.333 1.964-15.19-2.6-17.146-9.9-1.96-7.317 2.63-15.198 9.898-17.146 7.343-1.967 15.189 2.594 17.147 9.898.981 3.661.331 7.457-1.475 10.583zm94.247-100.161c-7.454 1.997-15.147-2.442-17.146-9.899-1.97-7.351 2.584-15.186 9.898-17.148 7.391-1.983 15.172 2.527 17.147 9.899 1.999 7.458-2.443 15.15-9.899 17.148z"/></g><g/><g/><g/><g/><g/><g/><g/><g/><g/><g/><g/><g/><g/><g/><g/></svg>