<svg id="Capa_1" enable-background="new 0 0 514.002 514.002" viewBox="0 0 514.002 514.002" xmlns="http://www.w3.org/2000/svg" fill="#E6ECF2"><g><g><path d="m257.001 452.376c-41.26 0-80.213-6.122-109.684-17.238-32.851-12.391-50.942-30.219-50.942-50.199 0-12.816 7.407-31.346 42.697-46.844 24.462-10.742 58.098-17.82 94.712-19.929l1.266 21.964c-76.129 4.385-116.675 28.84-116.675 44.809 0 18.973 52.738 45.438 138.626 45.438s138.626-26.464 138.626-45.438c0-15.968-40.546-40.424-116.674-44.809l1.266-21.964c36.613 2.109 70.249 9.186 94.711 19.929 35.29 15.497 42.697 34.028 42.697 46.844 0 19.981-18.092 37.809-50.942 50.199-29.471 11.115-68.424 17.238-109.684 17.238z" fill="#0496FF"/></g><g><path d="m444.2 309.295c-40.978-20.23-96.244-33.097-156.199-36.431v-39.103c0-6.075-4.925-11-11-11s-11 4.925-11 11v126.621l-9 9-9-9v-126.621c0-6.075-4.925-11-11-11s-11 4.925-11 11v39.103c-59.956 3.334-115.221 16.201-156.199 36.431-45.013 22.222-69.802 51.949-69.802 83.707 0 33.98 27.9 65.17 78.561 87.823 47.846 21.394 111.217 33.177 178.44 33.177s130.594-11.782 178.439-33.177c50.661-22.653 78.562-53.843 78.562-87.823 0-31.757-24.789-61.485-69.802-83.707zm-17.74 151.447c-45.082 20.159-105.264 31.26-169.459 31.26s-124.377-11.102-169.459-31.26c-41.652-18.625-65.542-43.316-65.542-67.74 0-22.94 20.435-45.662 57.54-63.98 38.108-18.813 89.889-30.846 146.461-34.118v70.035c0 2.918 1.159 5.715 3.222 7.778l20 20c2.148 2.148 4.963 3.222 7.778 3.222s5.63-1.074 7.778-3.222l20-20c2.062-2.063 3.222-4.861 3.222-7.778v-70.035c56.571 3.272 108.352 15.305 146.461 34.118 37.105 18.319 57.54 41.04 57.54 63.98 0 24.424-23.89 49.115-65.542 67.74z"/><path d="m335.189 163.631-17.483-102.998c11.195-4.874 19.045-16.039 19.045-29.008 0-17.438-14.187-31.625-31.625-31.625h-96.25c-17.439 0-31.625 14.187-31.625 31.626 0 12.969 7.849 24.134 19.045 29.008l-17.483 102.998c-24.319 4.457-42.812 25.793-42.812 51.38v13.75c0 6.075 4.925 11 11 11h220c6.075 0 11-4.925 11-11v-13.75c0-25.588-18.493-46.924-42.812-51.381zm-39.353-100.381 16.891 99.511h-111.452l16.891-99.511zm-86.96-41.25h96.25c5.308 0 9.625 4.318 9.625 9.626 0 5.307-4.317 9.624-9.625 9.624h-96.25c-5.308 0-9.625-4.318-9.625-9.625s4.317-9.625 9.625-9.625zm147.125 195.761h-198v-2.75c0-16.673 13.559-30.238 30.23-30.249.011 0 .023.001.034.001.015 0 .029-.002.044-.002h137.386c.015 0 .029.002.043.002.011 0 .023-.001.034-.001 16.67.011 30.23 13.577 30.23 30.249v2.75z" fill="#0496FF"/></g></g><g/><g/><g/><g/><g/><g/><g/><g/><g/><g/><g/><g/><g/><g/><g/></svg>