<svg id="Capa_1" enable-background="new 0 0 514.002 514.002" viewBox="0 0 514.002 514.002" xmlns="http://www.w3.org/2000/svg" fill="#052438"><g><g><path d="m257.001 452.376c-41.26 0-80.213-6.122-109.684-17.238-32.851-12.391-50.942-30.219-50.942-50.199 0-12.816 7.408-31.347 42.697-46.844 24.462-10.743 58.098-17.82 94.712-19.929l1.265 21.963c-76.128 4.385-116.674 28.841-116.674 44.81 0 18.973 52.738 45.438 138.626 45.438s138.626-26.465 138.626-45.438c0-15.969-40.546-40.425-116.674-44.81l1.265-21.963c36.614 2.108 70.25 9.186 94.712 19.929 35.29 15.497 42.697 34.027 42.697 46.844 0 19.98-18.092 37.809-50.942 50.199-29.471 11.116-68.424 17.238-109.684 17.238z" fill="#0496FF"/></g><path d="m444.201 309.295c-40.978-20.23-96.244-33.096-156.2-36.431v-58.865c0-6.075-4.925-11-11-11s-11 4.925-11 11v146.384l-9 9-9-9v-146.385c0-6.075-4.925-11-11-11s-11 4.925-11 11v58.865c-59.955 3.335-115.222 16.202-156.2 36.431-45.011 22.223-69.801 51.95-69.801 83.708 0 33.98 27.9 65.17 78.562 87.823 47.845 21.395 111.216 33.177 178.439 33.177s130.594-11.782 178.439-33.177c50.662-22.653 78.562-53.843 78.562-87.823 0-31.758-24.79-61.485-69.801-83.707zm-17.741 151.447c-45.082 20.158-105.263 31.26-169.458 31.26s-124.378-11.102-169.459-31.26c-41.654-18.626-65.543-43.316-65.543-67.74 0-22.94 20.435-45.662 57.541-63.98 38.108-18.814 89.889-30.847 146.46-34.119v70.036c0 2.917 1.159 5.715 3.222 7.778l20 20c2.148 2.147 4.963 3.222 7.778 3.222s5.63-1.074 7.778-3.222l20-20c2.063-2.064 3.222-4.861 3.222-7.778v-70.036c56.572 3.272 108.352 15.305 146.46 34.119 37.105 18.318 57.541 41.041 57.541 63.98 0 24.424-23.889 49.114-65.542 67.74z"/><g><path d="m257.001 222c-61.206 0-111-49.794-111-111s49.794-111 111-111 111 49.794 111 111-49.794 111-111 111zm0-200c-49.075 0-89 39.925-89 89s39.925 89 89 89 89-39.925 89-89-39.925-89-89-89z" fill="#0496FF"/></g></g><g/><g/><g/><g/><g/><g/><g/><g/><g/><g/><g/><g/><g/><g/><g/></svg>