<svg id="Capa_1" enable-background="new 0 0 514 514" viewBox="0 0 514 514" xmlns="http://www.w3.org/2000/svg" fill="#052438"><g><g><g><g id="XMLID_00000067238119391330956780000003346662084851552937_"><path d="m257 323.225c-75.272 0-136.51-61.238-136.51-136.51s61.238-136.51 136.51-136.51c75.271 0 136.51 61.238 136.51 136.51 0 75.271-61.239 136.51-136.51 136.51zm0-251.021c-63.141 0-114.51 51.369-114.51 114.51s51.369 114.51 114.51 114.51 114.51-51.369 114.51-114.51-51.369-114.51-114.51-114.51z"/></g><g id="XMLID_00000107589068234430411430000008743484968283903143_"><path d="m257 514c-39.963 0-77.682-4.876-106.209-13.729-41.642-12.924-50.383-30.22-50.383-42.454 0-11.283 7.504-27.397 43.253-40.088 23.951-8.502 56.636-14.05 92.036-15.622l.975 21.979c-33.281 1.478-63.7 6.583-85.651 14.376-22.633 8.035-28.614 16.174-28.614 19.356 0 4.265 9.295 13.495 34.904 21.443 26.474 8.214 61.877 12.739 99.689 12.739s73.216-4.525 99.688-12.741c25.608-7.948 34.903-17.178 34.903-21.443 0-3.182-5.98-11.321-28.613-19.356-21.952-7.793-52.371-12.898-85.652-14.376l.977-21.979c35.399 1.572 68.085 7.12 92.035 15.622 35.75 12.691 43.254 28.805 43.254 40.088 0 12.234-8.741 29.53-50.383 42.454-28.527 8.855-66.246 13.731-106.209 13.731z" fill="#0496FF"/></g><g id="XMLID_00000021816791346579778090000000775388491255013546_"><path d="m257 458.775c-3.864 0-7.444-2.027-9.433-5.34l-56.446-94.078c-71.843-27.259-119.831-96.534-119.831-173.647 0-102.4 83.309-185.71 185.71-185.71 102.4 0 185.71 83.31 185.71 185.71 0 77.113-47.988 146.388-119.831 173.646l-56.446 94.078c-1.989 3.314-5.569 5.341-9.433 5.341zm0-436.775c-90.27 0-163.71 73.44-163.71 163.71 0 69.156 43.782 131.162 108.946 154.293 2.406.854 4.439 2.518 5.753 4.707l49.011 81.685 49.011-81.685c1.314-2.188 3.348-3.853 5.753-4.707 65.164-23.131 108.946-85.137 108.946-154.293 0-90.27-73.44-163.71-163.71-163.71z"/></g></g></g><g><path d="m296.424 232.711h-76.551c-5.209 0-9.705-3.654-10.768-8.754l-16.372-78.487h-8.72c-6.075 0-11-4.925-11-11s4.925-11 11-11h17.663c5.21 0 9.705 3.654 10.768 8.754l3.742 17.936h96.463c3.42 0 6.645 1.59 8.727 4.304 2.082 2.713 2.784 6.24 1.898 9.544l-16.225 60.55c-1.288 4.81-5.647 8.153-10.625 8.153zm-67.609-22h59.168l10.329-38.55h-77.538z" fill="#0496FF"/></g><g><path d="m219.88 262.712c-6.075 0-11.004-4.925-11.004-11s4.921-11 10.997-11h.007c6.075 0 11 4.925 11 11s-4.924 11-11 11z"/></g><g><path d="m296.432 262.712c-6.075 0-11.004-4.925-11.004-11s4.921-11 10.996-11h.008c6.075 0 11 4.925 11 11s-4.925 11-11 11z"/></g></g><g/><g/><g/><g/><g/><g/><g/><g/><g/><g/><g/><g/><g/><g/><g/></svg>