<svg id="Capa_1" enable-background="new 0 0 514 514" viewBox="0 0 514 514" xmlns="http://www.w3.org/2000/svg" fill="#E6ECF2"><g><g><g><path d="m242.863 195.743h22v64.146h-22z"/></g><path d="m282.292 106.612c-20.404-6.726-42.208-5.104-61.393 4.569-19.185 9.672-33.455 26.237-40.181 46.643l-3.105 9.421c-1.902 5.77 1.234 11.988 7.003 13.891l131.892 43.476c1.144.377 2.304.556 3.445.556 4.619 0 8.92-2.933 10.445-7.56l3.105-9.421c13.885-42.123-9.088-87.689-51.211-101.575zm30.63 93.653-17.073-5.628c1.103-2.711 2.146-5.468 3.078-8.293 4.273-12.963 6.264-25.472 6.176-36.631 9.883 14.286 13.316 32.788 7.819 50.552zm-72.941-24.044c.682-2.832 1.486-5.674 2.42-8.509 4.388-13.312 11.244-25.315 18.81-32.932 5.434-5.471 11.013-8.328 14.193-7.273 7.093 2.338 11.758 24.25 2.627 51.95-.935 2.835-1.978 5.598-3.114 8.28zm-9.178-45.395c2.48-1.251 5.023-2.307 7.607-3.186-6.914 9.203-12.771 20.648-16.904 33.185-.93 2.821-1.754 5.655-2.48 8.489l-17.051-5.621c5.021-14.353 15.214-26.003 28.828-32.867z" fill="#0496FF"/><g><path d="m324.793 299.989c-2.798 0-5.597-1.061-7.741-3.186-16.87-16.712-39.238-25.915-62.986-25.915-22.272 0-43.616 8.231-60.099 23.179-4.501 4.081-11.458 3.74-15.538-.76-4.081-4.5-3.741-11.456.759-15.537 20.539-18.625 47.131-28.882 74.877-28.882 29.585 0 57.452 11.466 78.469 32.286 4.316 4.275 4.349 11.24.073 15.556-2.15 2.172-4.982 3.259-7.814 3.259z" fill="#0496FF"/></g></g><g><g><g id="XMLID_00000126304604930078605740000012722851175915572375_"><path d="m257 323.225c-75.272 0-136.51-61.238-136.51-136.51 0-75.273 61.238-136.511 136.51-136.511 75.271 0 136.51 61.238 136.51 136.511 0 75.271-61.238 136.51-136.51 136.51zm0-251.021c-63.141 0-114.51 51.369-114.51 114.511 0 63.141 51.369 114.51 114.51 114.51s114.51-51.369 114.51-114.51c0-63.142-51.369-114.511-114.51-114.511z"/></g><g id="XMLID_00000183951955019107323290000009341789121917265816_"><path d="m257 514c-39.963 0-77.682-4.876-106.209-13.729-41.642-12.923-50.383-30.22-50.383-42.454 0-11.283 7.504-27.396 43.253-40.088 23.951-8.503 56.636-14.051 92.036-15.623l.976 21.979c-33.281 1.478-63.699 6.584-85.651 14.377-22.633 8.035-28.614 16.174-28.614 19.355 0 4.266 9.295 13.495 34.904 21.443 26.473 8.216 61.876 12.74 99.688 12.74s73.216-4.524 99.688-12.74c25.608-7.948 34.903-17.178 34.903-21.443 0-3.182-5.98-11.32-28.613-19.355-21.953-7.793-52.371-12.899-85.652-14.377l.977-21.979c35.399 1.572 68.085 7.12 92.035 15.623 35.75 12.692 43.254 28.805 43.254 40.088 0 12.234-8.741 29.531-50.383 42.454-28.526 8.853-66.246 13.729-106.209 13.729z" fill="#0496FF"/></g><g id="XMLID_00000137852106376974236230000008899658666413015953_"><path d="m257 458.776c-3.864 0-7.444-2.027-9.433-5.341l-56.446-94.078c-71.843-27.258-119.831-96.534-119.831-173.646 0-102.401 83.309-185.711 185.71-185.711 102.4 0 185.71 83.31 185.71 185.711 0 77.112-47.988 146.388-119.831 173.647l-56.446 94.078c-1.988 3.313-5.568 5.34-9.433 5.34zm0-436.776c-90.27 0-163.71 73.44-163.71 163.711 0 69.156 43.782 131.162 108.947 154.293 2.406.854 4.439 2.518 5.753 4.707l49.01 81.686 49.011-81.686c1.314-2.189 3.348-3.853 5.753-4.707 65.164-23.131 108.946-85.137 108.946-154.293 0-90.271-73.44-163.711-163.71-163.711z"/></g></g></g></g><g/><g/><g/><g/><g/><g/><g/><g/><g/><g/><g/><g/><g/><g/><g/></svg>