<svg id="Capa_1" enable-background="new 0 0 514 514" viewBox="0 0 514 514" xmlns="http://www.w3.org/2000/svg" fill="#052438"><g><g><g><g id="XMLID_00000136374887050352804000000000570840122477803419_"><path d="m256.999 323.225c-75.271 0-136.51-61.238-136.51-136.51s61.238-136.51 136.51-136.51 136.511 61.238 136.511 136.51c0 75.271-61.238 136.51-136.511 136.51zm0-251.021c-63.141 0-114.51 51.369-114.51 114.51s51.369 114.51 114.51 114.51c63.142 0 114.511-51.369 114.511-114.51s-51.369-114.51-114.511-114.51z"/></g><g id="XMLID_00000114074282735008420440000009492453035075422607_"><path d="m256.999 514c-39.963 0-77.682-4.876-106.209-13.729-41.642-12.924-50.383-30.22-50.383-42.454 0-11.283 7.504-27.397 43.254-40.088 23.95-8.502 56.636-14.051 92.035-15.623l.977 21.979c-33.281 1.478-63.7 6.583-85.652 14.377-22.633 8.035-28.613 16.174-28.613 19.356 0 4.265 9.296 13.495 34.904 21.443 26.473 8.214 61.876 12.739 99.687 12.739 37.812 0 73.216-4.525 99.689-12.741 25.608-7.948 34.903-17.178 34.903-21.443 0-3.182-5.98-11.321-28.613-19.356-21.952-7.793-52.37-12.899-85.651-14.377l.977-21.979c35.399 1.572 68.084 7.121 92.034 15.623 35.75 12.691 43.254 28.805 43.254 40.088 0 12.234-8.741 29.53-50.383 42.454-28.528 8.855-66.247 13.731-106.21 13.731z" fill="#0496FF"/></g><g id="XMLID_00000095297690334077288390000011636509985543559303_"><path d="m256.999 458.775c-3.864 0-7.444-2.027-9.433-5.34l-56.446-94.078c-71.843-27.259-119.83-96.534-119.83-173.647 0-102.401 83.309-185.71 185.709-185.71 102.402 0 185.711 83.309 185.711 185.71 0 77.113-47.988 146.388-119.832 173.647l-56.446 94.078c-1.988 3.313-5.568 5.34-9.433 5.34zm0-436.775c-90.269 0-163.709 73.44-163.709 163.71 0 69.156 43.782 131.162 108.946 154.293 2.405.854 4.439 2.518 5.753 4.707l49.011 81.685 49.011-81.685c1.314-2.188 3.348-3.853 5.753-4.707 65.165-23.131 108.947-85.137 108.947-154.293-.001-90.27-73.441-163.71-163.712-163.71z"/></g></g></g><path d="m330.672 203.746h-8.609c-1.087-31.268-24.225-57.012-54.316-62.134v-8.886c0-6.075-4.925-11-11-11s-11 4.925-11 11v8.886c-30.091 5.122-53.229 30.866-54.316 62.134h-8.759c-6.075 0-11 4.925-11 11s4.925 11 11 11h148c6.075 0 11-4.925 11-11s-4.924-11-11-11zm-73.924-41.078c23.146 0 42.114 18.225 43.312 41.078h-86.625c1.198-22.853 20.167-41.078 43.313-41.078z" fill="#0496FF"/></g><g/><g/><g/><g/><g/><g/><g/><g/><g/><g/><g/><g/><g/><g/><g/></svg>