<svg id="Capa_1" enable-background="new 0 0 514.002 514.002" viewBox="0 0 514.002 514.002" xmlns="http://www.w3.org/2000/svg" fill="#052438"><g><path d="m311 249.001c6.075 0 11-4.925 11-11v-207.001c0-17.094-13.906-31-31-31h-260c-17.093 0-31 13.906-31 31v452.002c0 17.094 13.907 31 31 31h260c17.094 0 31-13.906 31-31v-55c0-6.075-4.925-11-11-11s-11 4.925-11 11v24h-278v-390.002h70.016c4.447 11.68 15.762 20 28.984 20h80c13.222 0 24.537-8.32 28.984-20h70.016v176.001c0 6.075 4.925 11 11 11zm-11 225.001v9c0 4.963-4.037 9-9 9h-260c-4.962 0-9-4.037-9-9v-9zm-79-434.002c-6.075 0-11 4.925-11 11 0 4.963-4.037 9-8.999 9h-80c-4.962 0-9-4.037-9-9 0-6.075-4.925-11-11-11h-79.001v-9c0-4.963 4.038-9 9-9h260c4.963 0 9 4.037 9 9v9z"/><path d="m258.797 179.241-24.882-25c-2.064-2.074-4.87-3.24-7.796-3.24h-64.119v-39c0-6.075-4.925-11-11-11h-75.118c-2.926 0-5.732 1.166-7.796 3.24l-24.882 25c-4.271 4.292-4.271 11.228 0 15.52l24.882 25c2.064 2.074 4.87 3.24 7.796 3.24h64.118v28h-64.118c-2.927 0-5.732 1.166-7.797 3.24l-24.882 25.001c-4.271 4.292-4.271 11.229 0 15.52l24.882 25c2.064 2.074 4.87 3.24 7.796 3.24h64.119v139h-29c-6.075 0-11 4.925-11 11s4.925 11 11 11h80c6.075 0 11-4.925 11-11s-4.925-11-11-11h-29v-189.001h64.119c2.926 0 5.732-1.166 7.796-3.24l24.882-25c4.271-4.292 4.271-11.228 0-15.52zm-178.343-28.24-13.934-14 13.934-14h59.546v28zm0 100.001-13.934-14 13.934-14.001h59.546v28.001zm141.093-50.001h-59.547v-28h59.547l13.934 14z"/><g><path d="m483.002 434.002h-210.002c-17.093 0-31-13.906-31-31v-41.288l-13.862-13.862c-3.958-3.96-6.138-9.233-6.138-14.85s2.18-10.891 6.14-14.85l13.86-13.861v-41.29c0-17.094 13.907-31 31-31h210.002c17.094 0 31 13.906 31 31v140.001c0 17.094-13.906 31-31 31zm-238.6-100.999 16.376 16.376c2.062 2.064 3.222 4.861 3.222 7.778v45.845c0 4.963 4.037 9 9 9h210.002c4.963 0 9-4.037 9-9v-140.001c0-4.963-4.037-9-9-9h-210.002c-4.963 0-9 4.037-9 9v45.847c0 2.917-1.159 5.715-3.222 7.778zm8.598-24.155h.01z" fill="#0496FF"/></g><g><path d="m438 304.002h-119.999c-6.075 0-11-4.925-11-11s4.925-11 11-11h119.999c6.075 0 11 4.925 11 11s-4.925 11-11 11z"/></g><g><path d="m438 344.002h-119.999c-6.075 0-11-4.925-11-11s4.925-11 11-11h119.999c6.075 0 11 4.925 11 11s-4.925 11-11 11z"/></g><g><path d="m378.001 384.002h-60c-6.075 0-11-4.925-11-11s4.925-11 11-11h60c6.075 0 11 4.925 11 11s-4.925 11-11 11z"/></g></g><g/><g/><g/><g/><g/><g/><g/><g/><g/><g/><g/><g/><g/><g/><g/></svg>