<svg id="Capa_1" enable-background="new 0 0 514 514" viewBox="0 0 514 514" xmlns="http://www.w3.org/2000/svg" fill="#E6ECF2"><g><g><path d="m338 172.707h-17.213c-.098-.004-.194.001-.291 0h-4.362l-20.206-52.508c-2.183-5.671-8.547-8.499-14.217-6.315-5.67 2.182-8.497 8.547-6.315 14.216l17.166 44.607h-74.85l18.503-44.32c2.34-5.605-.307-12.048-5.913-14.389-5.605-2.339-12.047.307-14.389 5.913l-22.041 52.796h-18.872c-6.075 0-11 4.925-11 11s4.925 11 11 11h11.695l11.871 49.291c2.416 10.011 11.297 17.002 21.598 17.002h75.407c10.3 0 19.182-6.991 21.599-17.007l11.87-49.286h8.96c6.075 0 11-4.925 11-11s-4.925-11-11-11zm-42.218 66.131c-.023.094-.112.162-.211.162h-75.407c-.1 0-.189-.068-.21-.157l-10.63-44.136h97.086z" fill="#0496FF"/><g><g><path d="m241.482 230.036c-6.075 0-11-4.925-11-11v-6.771c0-6.075 4.925-11 11-11s11 4.925 11 11v6.771c0 6.075-4.925 11-11 11z" fill="#0496FF"/></g><g><path d="m274.251 230.036c-6.075 0-11-4.925-11-11v-6.771c0-6.075 4.925-11 11-11s11 4.925 11 11v6.771c0 6.075-4.925 11-11 11z" fill="#0496FF"/></g></g></g><g><g><g id="XMLID_00000056418606269575764290000015826036694391469961_"><path d="m257 514c-39.963 0-77.682-4.876-106.209-13.729-41.642-12.924-50.383-30.22-50.383-42.454 0-11.283 7.504-27.397 43.253-40.088 23.951-8.503 56.636-14.051 92.036-15.623l.975 21.979c-33.281 1.477-63.7 6.584-85.651 14.377-22.633 8.034-28.614 16.174-28.614 19.355 0 4.265 9.295 13.495 34.904 21.442 26.474 8.217 61.877 12.741 99.689 12.741s73.215-4.524 99.688-12.741c25.608-7.947 34.904-17.178 34.904-21.442 0-3.182-5.98-11.321-28.614-19.355-21.952-7.793-52.37-12.899-85.651-14.377l.975-21.979c35.4 1.572 68.086 7.12 92.036 15.623 35.749 12.69 43.253 28.805 43.253 40.088 0 12.234-8.741 29.53-50.383 42.454-28.526 8.853-66.245 13.729-106.208 13.729z" fill="#0496FF"/></g><g id="XMLID_00000054250783542516699630000003314075692067335820_"><path d="m257 323.225c-75.272 0-136.51-61.238-136.51-136.511 0-75.271 61.238-136.51 136.51-136.51s136.51 61.238 136.51 136.51-61.238 136.511-136.51 136.511zm0-251.021c-63.141 0-114.51 51.369-114.51 114.51 0 63.142 51.369 114.511 114.51 114.511s114.51-51.369 114.51-114.511c0-63.141-51.369-114.51-114.51-114.51z"/></g><g id="XMLID_00000141413543916897885720000013508277553334352791_"><path d="m257 458.775c-3.864 0-7.444-2.027-9.433-5.341l-56.446-94.077c-71.843-27.259-119.831-96.535-119.831-173.647 0-102.4 83.309-185.71 185.71-185.71s185.71 83.31 185.71 185.71c0 77.112-47.988 146.388-119.831 173.647l-56.446 94.077c-1.989 3.314-5.569 5.341-9.433 5.341zm0-436.775c-90.27 0-163.71 73.44-163.71 163.71 0 69.156 43.782 131.162 108.946 154.294 2.406.853 4.439 2.518 5.753 4.707l49.011 81.685 49.011-81.685c1.313-2.189 3.347-3.854 5.753-4.707 65.164-23.132 108.946-85.138 108.946-154.294 0-90.27-73.44-163.71-163.71-163.71z"/></g></g></g></g><g/><g/><g/><g/><g/><g/><g/><g/><g/><g/><g/><g/><g/><g/><g/></svg>