<svg id="Capa_1" enable-background="new 0 0 514 514" viewBox="0 0 514 514" xmlns="http://www.w3.org/2000/svg" fill="#E6ECF2"><g><g><path d="m284.666 264.573c-.288 0-.577-.012-.864-.034-12.384-.976-21.522-9.594-22.74-21.444l-2.435-23.684c-.094-.91-.854-1.597-1.769-1.597s-1.676.686-1.77 1.598l-2.435 23.684c-1.219 11.851-10.357 20.469-22.74 21.444-.288.022-.576.034-.864.034-10.503 0-19.612-7.254-23.204-18.48-.029-.09-.056-.18-.083-.27-4.981-17.058-10.2-32.295-15.953-46.573-2.082-4.73-5.093-14.233-5.093-21.694v-13.61c0-13.379 5.21-25.956 14.67-35.415.145-.146.294-.286.447-.423 16.285-14.558 39.644-14.287 54.337.634.239.242.467.497.683.761.665.814 1.456 1.421 2.008 1.753.553-.335 1.342-.943 2.006-1.756.215-.264.441-.516.68-.758 14.45-14.674 38.318-14.954 54.336-.635.153.137.302.278.447.423 9.46 9.46 14.67 22.038 14.67 35.416v13.61c0 7.439-2.995 16.913-5.076 21.656-6.449 16.321-11.668 31.55-15.952 46.549-.019.066-.038.131-.058.195-3.458 11.309-12.583 18.616-23.248 18.616zm-27.809-68.759c12.233 0 22.402 9.177 23.653 21.347l2.436 23.684c.048.463.142 1.379 1.966 1.688.825-.27 1.586-1.818 1.939-2.932 4.496-15.726 9.957-31.651 16.695-48.685.06-.15.122-.3.189-.448 1.678-3.749 3.265-10.024 3.265-12.912v-13.61c0-7.395-2.839-14.355-8.003-19.634-6.217-5.388-16.417-7.298-23.508-.399-2.393 2.781-9.186 9.548-18.586 9.556-.013 0-.027 0-.04 0-9.444 0-16.246-6.775-18.639-9.56-7.477-7.301-17.329-4.962-23.503.402-5.164 5.277-8.004 12.237-8.004 19.635v13.61c0 2.889 1.586 9.163 3.265 12.911.056.126.11.252.161.38 6.038 14.966 11.498 30.881 16.691 48.649.545 1.637 1.407 2.791 2.002 3.03 1.792-.313 1.886-1.222 1.933-1.682l2.435-23.684c1.251-12.17 11.42-21.346 23.653-21.346z" fill="#0496FF"/></g><g><g><g id="XMLID_00000012469359146273508320000005799577513278391683_"><path d="m257 323.225c-75.272 0-136.51-61.238-136.51-136.511 0-75.271 61.238-136.51 136.51-136.51 75.271 0 136.51 61.238 136.51 136.51s-61.239 136.511-136.51 136.511zm0-251.021c-63.141 0-114.51 51.369-114.51 114.51 0 63.142 51.369 114.511 114.51 114.511s114.51-51.369 114.51-114.511c0-63.141-51.369-114.51-114.51-114.51z"/></g><g id="XMLID_00000137103918418505227490000016127311449930140601_"><path d="m257 514c-39.963 0-77.682-4.876-106.209-13.729-41.642-12.924-50.383-30.22-50.383-42.454 0-11.283 7.504-27.397 43.253-40.088 23.951-8.503 56.636-14.051 92.036-15.623l.975 21.979c-33.281 1.477-63.7 6.584-85.651 14.377-22.633 8.034-28.614 16.174-28.614 19.355 0 4.265 9.295 13.495 34.904 21.442 26.474 8.217 61.877 12.741 99.689 12.741s73.216-4.524 99.688-12.741c25.608-7.947 34.903-17.178 34.903-21.442 0-3.182-5.98-11.321-28.613-19.355-21.952-7.793-52.371-12.899-85.652-14.377l.977-21.979c35.399 1.572 68.085 7.12 92.035 15.623 35.75 12.69 43.254 28.805 43.254 40.088 0 12.234-8.741 29.53-50.383 42.454-28.527 8.853-66.246 13.729-106.209 13.729z" fill="#0496FF"/></g><g id="XMLID_00000144301541698215733850000008630942529619269524_"><path d="m257 458.775c-3.864 0-7.444-2.027-9.433-5.341l-56.446-94.077c-71.843-27.259-119.831-96.535-119.831-173.647 0-102.4 83.309-185.71 185.71-185.71 102.4 0 185.71 83.31 185.71 185.71 0 77.112-47.988 146.388-119.831 173.647l-56.446 94.077c-1.989 3.314-5.569 5.341-9.433 5.341zm0-436.775c-90.27 0-163.71 73.44-163.71 163.71 0 69.156 43.782 131.162 108.946 154.294 2.406.853 4.439 2.518 5.753 4.707l49.011 81.685 49.011-81.685c1.314-2.189 3.348-3.854 5.753-4.707 65.164-23.132 108.946-85.138 108.946-154.294 0-90.27-73.44-163.71-163.71-163.71z"/></g></g></g></g><g/><g/><g/><g/><g/><g/><g/><g/><g/><g/><g/><g/><g/><g/><g/></svg>