<svg id="Capa_1" enable-background="new 0 0 514 514" viewBox="0 0 514 514" xmlns="http://www.w3.org/2000/svg" fill="#E6ECF2"><g><g><g id="g1586" transform="translate(194.775 362.643)"><g id="path1588"><path d="m90.998-101.92h-56.876c-19.506 0-35.375-15.678-35.375-34.947v-61.773c0-12.429 10.111-22.54 22.539-22.54h82.548c12.428 0 22.538 10.111 22.538 22.54v61.773c0 19.269-15.869 34.947-35.374 34.947zm-69.712-97.261c-.297 0-.539.242-.539.54v61.773c0 7.139 6 12.947 13.375 12.947h56.876c7.374 0 13.374-5.809 13.374-12.947v-61.773c0-.298-.241-.54-.538-.54z" fill="#0496FF"/></g></g><g id="g1590" transform="translate(220.502 329.683)"><g id="path1592"><path d="m60.763-144.002c-6.075 0-11-4.925-11-11v-36.857c0-7.071-5.8-12.824-12.93-12.824s-12.931 5.753-12.931 12.824v36.857c0 6.075-4.925 11-11 11s-11-4.925-11-11v-36.857c0-19.202 15.67-34.824 34.931-34.824s34.93 15.622 34.93 34.824v36.857c0 6.076-4.925 11-11 11z"/></g></g></g><g><g><g id="XMLID_00000111888863133662551660000014859133952262168492_"><path d="m257 323.225c-75.272 0-136.51-61.238-136.51-136.511 0-75.271 61.238-136.51 136.51-136.51s136.51 61.238 136.51 136.51-61.239 136.511-136.51 136.511zm0-251.021c-63.141 0-114.51 51.369-114.51 114.51 0 63.142 51.369 114.511 114.51 114.511s114.51-51.369 114.51-114.511c0-63.141-51.369-114.51-114.51-114.51z"/></g><g id="XMLID_00000175309038282355797180000013703026618032993410_"><path d="m257 514c-39.963 0-77.682-4.876-106.209-13.729-41.642-12.924-50.383-30.22-50.383-42.454 0-11.283 7.504-27.397 43.254-40.088 23.95-8.503 56.636-14.051 92.035-15.623l.977 21.979c-33.281 1.477-63.7 6.584-85.652 14.377-22.633 8.034-28.613 16.174-28.613 19.355 0 4.265 9.295 13.495 34.903 21.442 26.472 8.217 61.875 12.741 99.688 12.741 37.812 0 73.216-4.524 99.688-12.741 25.608-7.947 34.903-17.178 34.903-21.442 0-3.182-5.98-11.321-28.613-19.355-21.952-7.793-52.371-12.899-85.652-14.377l.977-21.979c35.399 1.572 68.085 7.12 92.035 15.623 35.75 12.69 43.254 28.805 43.254 40.088 0 12.234-8.741 29.53-50.383 42.454-28.527 8.853-66.246 13.729-106.209 13.729z" fill="#0496FF"/></g><g id="XMLID_00000023969296769927605680000004743190456706346145_"><path d="m257 458.775c-3.864 0-7.444-2.027-9.433-5.341l-56.446-94.077c-71.843-27.259-119.831-96.535-119.831-173.647 0-102.4 83.31-185.71 185.71-185.71s185.71 83.31 185.71 185.71c0 77.112-47.988 146.388-119.831 173.647l-56.446 94.077c-1.989 3.314-5.569 5.341-9.433 5.341zm0-436.775c-90.27 0-163.71 73.44-163.71 163.71 0 69.156 43.782 131.162 108.946 154.294 2.405.853 4.439 2.518 5.753 4.707l49.011 81.685 49.011-81.685c1.314-2.189 3.348-3.854 5.753-4.707 65.164-23.132 108.946-85.138 108.946-154.294 0-90.27-73.441-163.71-163.71-163.71z"/></g></g></g></g><g/><g/><g/><g/><g/><g/><g/><g/><g/><g/><g/><g/><g/><g/><g/></svg>