<svg id="Capa_1" enable-background="new 0 0 512 512" height="512" viewBox="0 0 512 512" width="512" xmlns="http://www.w3.org/2000/svg" fill="#E6ECF2"><g><path d="m500.74 297.181h-66.464c6.075 0 11 4.925 11 11v11h44.464v170.819h-178.599v-170.819h44.463v-11c0-6.075 4.925-11 11-11h11v-190.814c0-58.651-47.716-106.367-106.367-106.367h-164.603c-58.651 0-106.367 47.716-106.367 106.367v216.85c-1.175 146.665 165.3 238.833 288.874 159.752v18.031c0 6.075 4.925 11 11 11h200.599c6.075 0 11-4.925 11-11v-192.819c0-6.076-4.925-11-11-11zm-478.473-190.814c0-46.52 37.847-84.367 84.367-84.367h164.603c46.52 0 84.367 37.847 84.367 84.367v26.925h-333.337zm328.466 48.925c-28.207 53.501-109.878 65.948-161.798 65.248-51.88.718-133.649-11.77-161.802-65.248zm-61.592 152.889v148.179c-29.027 21.649-64.402 33.525-100.206 33.525-91.901 0-166.668-74.767-166.668-166.668v-136.796c37.55 40.252 89.73 55.169 166.668 56.121 76.966-.962 129.087-15.858 166.669-56.127v110.766h-55.463c-6.076 0-11 4.924-11 11z"/><path d="m434.276 380.221h-67.672c-6.075 0-11-4.925-11-11v-61.04c0-6.075 4.925-11 11-11h67.672c6.075 0 11 4.925 11 11v61.04c0 6.075-4.925 11-11 11zm-56.672-22h45.672v-39.04h-45.672z" fill="#0496FF"/></g></svg>