<svg id="Capa_1" enable-background="new 0 0 512 512" height="512" viewBox="0 0 512 512" width="512" xmlns="http://www.w3.org/2000/svg" fill="#052438"><g><g><path d="m149.501 404.021c-39.005 0-70.739-31.678-70.739-70.615v-59.242c0-6.075 4.925-11 11-11s11 4.925 11 11v59.242c0 26.806 21.864 48.615 48.739 48.615s48.739-21.809 48.739-48.615v-59.242c0-6.075 4.925-11 11-11s11 4.925 11 11v59.242c0 38.937-31.734 70.615-70.739 70.615z" fill="#0496FF"/></g><g><path d="m500.101 0h-438.451c-6.075 0-11 4.925-11 11v181.689h-38.751c-6.075 0-11 4.925-11 11v297.311c0 6.075 4.925 11 11 11l488.215-.258c6.07-.008 10.987-4.93 10.987-11v-489.742c0-6.075-4.925-11-11-11zm-223.998 490h-253.204v-275.311h253.204zm212.998-357.623h-89.213v22h89.213v335.378l-190.998.231v-286.297c0-6.075-4.925-11-11-11h-214.453v-38.312h89.212v-22h-89.212v-110.377h416.451z"/><path d="m183.862 132.377h194.026v22h-194.026z"/></g><g fill="#0496FF"><path d="m183.862 192.617v-113.597c0-6.075-4.925-11-11-11s-11 4.925-11 11v113.598h22z"/><path d="m388.888 68.02c-6.075 0-11 4.925-11 11v107.116c0 51.156-33.551 90.637-79.684 96.122v22.127c27.207-2.576 51.84-14.615 70.248-34.574 20.272-21.98 31.437-51.697 31.437-83.675v-107.116c-.001-6.076-4.926-11-11.001-11z"/></g></g></svg>