<svg id="Capa_1" enable-background="new 0 0 512 512" height="512" viewBox="0 0 512 512" width="512" xmlns="http://www.w3.org/2000/svg" fill="#052438"><g><g fill="#0496FF"><circle cx="261.48" cy="18.663" r="11"/><circle cx="309.391" cy="38.607" r="11"/><circle cx="350.505" cy="70.267" r="11"/><circle cx="382.088" cy="111.43" r="11"/><circle cx="401.94" cy="159.348" r="11"/></g><g><path d="m181.996 284.587h-62.708c-6.075 0-11-4.925-11-11v-63.311c0-6.075 4.925-11 11-11h51.708v-40.104h-55.325c-6.075 0-11-4.925-11-11s4.925-11 11-11h66.325c6.075 0 11 4.925 11 11v62.104c0 6.075-4.925 11-11 11h-51.708v41.311h51.708c6.075 0 11 4.925 11 11s-4.925 11-11 11z"/><path d="m304.397 284.587c-6.075 0-11-4.925-11-11v-51.708h-52.914c-6.075 0-11-4.925-11-11v-62.708c0-6.075 4.925-11 11-11s11 4.925 11 11v51.708h41.914v-51.708c0-6.075 4.925-11 11-11s11 4.925 11 11v125.416c0 6.076-4.924 11-11 11z"/></g><path d="m501 312.434h-60.919-46.295c17.043-31.37 26.282-66.77 26.282-101.555v-.024c0-6.075-4.925-10.988-11-10.988-.082 0-.16.01-.241.012h-37.699c-6.075 0-11 4.925-11 11s4.925 11 11 11h26.594c-1.95 31.51-12.197 63.119-29.413 90.555h-51.172c-6.075 0-11 4.925-11 11v49.003c-29.166 17.105-63.055 26.477-96.103 26.477-103.682 0-188.034-84.352-188.034-188.035 0-100.122 78.66-182.208 177.426-187.729v26.635c0 6.075 4.925 11 11 11s11-4.925 11-11v-37.94c.09-6.091-5.315-11.286-11.392-11-115.813 0-210.034 94.221-210.034 210.034s94.221 210.035 210.034 210.035c32.771 0 66.253-8.231 96.103-23.416v102.667c0 6.075 4.925 11 11 11h183.863c6.075 0 11-4.925 11-11v-176.731c0-6.075-4.925-11-11-11zm-111.945 22h40.026v33.948h-40.026zm100.945 154.732h-161.863v-154.732h38.918v44.948c0 6.075 4.925 11 11 11h62.026c6.075 0 11-4.925 11-11v-44.948h38.919z"/></g></svg>