<svg id="Capa_1" enable-background="new 0 0 512.111 512.111" height="512" viewBox="0 0 512.111 512.111" width="512" xmlns="http://www.w3.org/2000/svg" fill="#052438"><g fill="#0496FF"><path d="m480.08 254.643c4.28-4.311 4.256-11.275-.055-15.556-4.31-4.281-11.274-4.257-15.557.054l-8.1 8.156 1.656 29.555z"/><path d="m469.674 330.026-8.208 8.266 1.656 29.554 22.163-22.318c4.281-4.311 4.257-11.275-.054-15.556-4.31-4.28-11.274-4.258-15.557.054z"/><path d="m275.35 48.484c4.281-4.311 4.257-11.275-.054-15.556-4.311-4.28-11.275-4.257-15.556.054l-22.019 22.172 29.349 1.667z"/><path d="m185.095 43.242c4.281-4.311 4.257-11.275-.054-15.556s-11.276-4.256-15.556.054l-22.127 22.281 29.349 1.667z"/></g><path d="m482.849 108.39c24.89-33.049 41.992-68.619 17.061-95.348-8.215-8.271-18.517-12.372-30.695-12.202-29.887-1.222-76.296 36.714-94.927 57.049l-4.721 4.754-304.656-17.305c-3.057-.175-6.037.93-8.241 3.046-2.205 2.116-3.43 5.054-3.381 8.109l.835 52.979c.061 3.883 2.166 7.446 5.537 9.375l162.041 92.695-18.551 18.681c-9.054 8.261-59.315 72.388-68.292 82.992l-91.176-46.565c-4.26-2.175-9.438-1.349-12.809 2.045l-27.68 27.873c-4.26 4.29-4.26 11.212 0 15.502l72.163 72.667-9.64 11.573c-.044.053-.087.105-.129.159-19.837 24.381-1.892 61.581 29.209 61.359 15.986-.038 23.653-8.504 35.159-18.11l67.859 68.333c2.065 2.08 4.875 3.249 7.805 3.249s5.74-1.169 7.805-3.249l27.68-27.873c3.281-3.304 4.126-8.315 2.111-12.512l-41.963-87.397c11.827-10.024 73.149-57.879 82.537-68.167 0 0 18.849-18.981 18.849-18.981l91.962 163.011c1.92 3.402 5.5 5.531 9.405 5.594l52.611.841c3.049.05 5.993-1.174 8.107-3.377 2.117-2.203 3.222-5.187 3.051-8.236l-17.185-306.815 4.784-4.817c1.489-1.426 14.38-13.908 27.475-30.932zm-406.827-5.528-.55-34.888 273.381 15.529-111.1 111.877zm28.326 329.62c-14.826 11.165-32.815-7.612-21.651-22.182l8.232-9.884 23.471 23.635zm101.274 52.207c-43.056-43.357-136.849-137.804-179.119-180.37l14.325-14.424 90.411 46.175 47.221 47.551 41.564 86.566zm62.558-188.088c-7.562 8.509-69.892 57.359-79.802 65.787l-35.821-36.072c8.623-10.158 57.955-73.059 66.203-80.591 19.26-18.2 183.965-188.354 200.021-198.348 22.672-17.292 50.399-33.525 65.517-18.834 23.105 24.563-31.421 82.641-44.433 95.173.001 0-171.685 172.885-171.685 172.885zm176.971 143.781-34.486-.551-91.916-162.931 110.984-111.759z"/></svg>