<svg id="Capa_1" enable-background="new 0 0 512.002 512.002" height="512" viewBox="0 0 512.002 512.002" width="512" xmlns="http://www.w3.org/2000/svg" fill="#E6ECF2"><g><g fill="#0496FF"><path d="m468.431 244.308 5.08-22h-61.077l-2.903 22z"/><path d="m387.34 244.308 2.904-22h-66.134v22z"/><path d="m216.588 244.308-2.927-22h-67.413l5.93 22z"/><path d="m302.11 244.308v-22h-66.256l2.927 22z"/></g><path d="m506.253 133.926c-5.042-6.366-12.592-10.036-20.713-10.068l-366.226-1.477-18.925-70.215c-3.838-14.18-16.779-24.083-31.469-24.083h-57.92c-6.075 0-11 4.925-11 11s4.925 11 11 11h57.92c4.777 0 8.985 3.22 10.23 7.82l69.959 259.56c.315 1.163.694 2.296 1.121 3.402l-3.898-.011c-11.778-.057-22.775 4.559-31.027 12.931-8.252 8.373-12.684 19.458-12.479 31.212.41 23.506 19.871 42.63 43.381 42.63h29.545c-5.178 7.784-8.203 17.116-8.203 27.146 0 27.099 22.047 49.146 49.146 49.146s49.146-22.047 49.146-49.146c0-10.029-3.026-19.362-8.204-27.146h110.938c-5.174 7.782-8.198 17.111-8.198 27.137 0 27.099 22.047 49.146 49.146 49.146 27.1 0 49.146-22.047 49.146-49.146 0-10.025-3.024-19.355-8.198-27.137h2.032c6.075 0 11-4.925 11-11s-4.925-11-11-11h-306.295c-11.589 0-21.182-9.427-21.384-21.014-.101-5.794 2.083-11.258 6.151-15.386s9.508-6.396 15.294-6.374l295.053.104c15.842 0 29.396-10.78 32.96-26.216l37.029-160.349c1.828-7.912-.016-16.101-5.058-22.466zm-262.411 300.847c0 14.968-12.178 27.146-27.146 27.146s-27.146-12.178-27.146-27.146c0-14.956 12.157-27.125 27.108-27.146h.077c14.95.021 27.107 12.19 27.107 27.146zm192.828-.009c0 14.968-12.178 27.146-27.146 27.146s-27.146-12.178-27.146-27.146c0-14.846 11.981-26.94 26.78-27.137h.731c14.801.197 26.781 12.291 26.781 27.137zm-112.56-113.806v-175.751l76.269.308-23.154 175.443zm-75.13 0-23.437-176.148 76.567.309v175.839zm-78.631-9.233-45.098-167.32 78.087.315 23.449 176.238h-44.33-.034c-5.638-.001-10.604-3.802-12.074-9.233zm319.527-160.283-37.029 160.35c-1.246 5.397-5.985 9.166-11.524 9.166h-41.908l23.143-175.354 62.896.254c1.908.008 3.047 1.086 3.556 1.728s1.296 1.997.866 3.856z"/></g></svg>