<svg id="Capa_1" enable-background="new 0 0 512 512" height="512" viewBox="0 0 512 512" width="512" xmlns="http://www.w3.org/2000/svg" fill="#E6ECF2"><g><path d="m207.396 407.456h-135.616c-6.075 0-11-4.925-11-11v-77.279c0-6.075 4.925-11 11-11h135.615c6.075 0 11 4.925 11 11v77.279c.001 6.075-4.924 11-10.999 11zm-124.616-22h113.615v-55.279h-113.615z"/><g><path d="m72.28 270.569h-.5c-6.075 0-11-4.925-11-11s4.925-11 11-11h.5c6.075 0 11 4.925 11 11s-4.925 11-11 11z"/><path d="m162.946 270.569h-1.105c-6.075 0-11-4.925-11-11s4.925-11 11-11h1.105c6.075 0 11 4.925 11 11s-4.925 11-11 11zm-45.333 0h-1.105c-6.075 0-11-4.925-11-11s4.925-11 11-11h1.105c6.075 0 11 4.925 11 11s-4.925 11-11 11z"/><path d="m207.674 270.569h-.5c-6.075 0-11-4.925-11-11s4.925-11 11-11h.5c6.075 0 11 4.925 11 11s-4.925 11-11 11z"/></g><path d="m490.736 332.542v-321.25c0-6.075-4.925-11-11-11h-468.736c-6.075 0-11 4.925-11 11v446.645c0 6.075 4.925 11 11 11h299.246c20.757 26.046 52.737 42.771 88.554 42.771 62.418 0 113.199-50.78 113.199-113.198.001-24.596-7.888-47.381-21.263-65.968zm-22-228.953h-158.175v-81.297h158.176v81.297zm-268.572 22h88.396v55.782h-88.396zm0-22v-81.297h88.396v81.297zm-22-81.297v81.297h-156.164v-81.297zm-156.164 424.645v-321.348h156.164v66.782c0 6.075 4.925 11 11 11h110.396c6.075 0 11-4.925 11-11v-66.782h158.176v183.968c-19.266-15.18-43.561-24.247-69.936-24.247-62.418 0-113.198 50.781-113.198 113.199 0 17.318 3.915 33.737 10.897 48.428zm376.801 42.771c-50.287 0-91.198-40.911-91.198-91.198s40.911-91.199 91.198-91.199 91.199 40.911 91.199 91.198-40.912 91.199-91.199 91.199z"/><path d="m414.357 398.509 29.196-29.196c4.296-4.296 4.296-11.261 0-15.557-4.297-4.295-11.26-4.295-15.557 0l-29.196 29.196-29.196-29.196c-4.297-4.295-11.26-4.295-15.557 0-4.296 4.296-4.296 11.261 0 15.557l29.196 29.196-29.196 29.196c-4.296 4.296-4.296 11.261 0 15.557 2.148 2.147 4.963 3.222 7.778 3.222s5.63-1.074 7.778-3.222l29.196-29.196 29.196 29.196c2.148 2.147 4.963 3.222 7.778 3.222s5.63-1.074 7.778-3.222c4.296-4.296 4.296-11.261 0-15.557z" fill="#0496FF"/></g></svg>