<svg id="Capa_1" enable-background="new 0 0 512 512" height="512" viewBox="0 0 512 512" width="512" xmlns="http://www.w3.org/2000/svg" fill="#E6ECF2"><g><path d="m91.26 207.815c-2.72 0-5.352-1.008-7.379-2.843l-18.96-17.154c-4.505-4.076-4.853-11.032-.777-15.537 4.075-4.504 11.032-4.853 15.537-.777l10.669 9.653 30.761-35.131c4.001-4.571 10.951-5.032 15.522-1.03 4.57 4.002 5.031 10.952 1.029 15.522l-38.126 43.543c-1.942 2.218-4.694 3.563-7.637 3.735-.214.013-.427.019-.639.019z" fill="#0496FF"/><path d="m268.338 207.22h-86.532c-6.075 0-11-4.925-11-11s4.925-11 11-11h86.532c6.075 0 11 4.925 11 11s-4.925 11-11 11z"/><path d="m268.338 270.355h-197.288c-6.075 0-11-4.925-11-11s4.925-11 11-11h197.288c6.075 0 11 4.925 11 11s-4.925 11-11 11z"/><path d="m91.26 382.304c-2.72 0-5.352-1.008-7.379-2.843l-18.96-17.154c-4.505-4.076-4.853-11.032-.777-15.537 4.075-4.505 11.032-4.853 15.537-.777l10.669 9.653 30.761-35.132c4.001-4.571 10.951-5.032 15.522-1.03s5.032 10.952 1.03 15.522l-38.127 43.544c-1.942 2.218-4.694 3.564-7.637 3.735-.214.013-.427.019-.639.019z" fill="#0496FF"/><path d="m272.323 381.651h-90.518c-6.075 0-11-4.925-11-11s4.925-11 11-11h90.518c6.075 0 11 4.925 11 11s-4.924 11-11 11z"/><path d="m268.338 443.884h-197.288c-6.075 0-11-4.925-11-11s4.925-11 11-11h197.288c6.075 0 11 4.925 11 11s-4.925 11-11 11z"/><path d="m478.571 0h-289.803c-1.042.005-4.885.17-8.958 2.017-3.164-.711-6.446-1.092-9.808-1.092-20.771 0-38.546 14.332-43.764 33.624h-19.434c-9.649 0-17.5 7.851-17.5 17.5v2.773h-57.823c-17.07 0-30.958 13.888-30.958 30.958v395.263c0 17.069 13.887 30.957 30.958 30.957h277.044c15.388 0 28.185-11.287 30.559-26.015h142.044c1.2 0 2.375-.196 3.486-.567 15.467-2.866 26.863-16.383 26.863-32.339v-420.173c0-18.144-14.761-32.906-32.906-32.906zm-342.874 56.548c5.989 0 10.877-4.791 10.998-10.779.253-12.597 10.709-22.845 23.309-22.845s23.055 10.248 23.309 22.845c.12 5.988 5.009 10.779 10.998 10.779h24.392v25.207h-117.399v-25.207zm181.786 424.494c0 4.939-4.019 8.958-8.958 8.958h-277.044c-4.939 0-8.958-4.019-8.958-8.958v-395.263c0-4.939 4.019-8.958 8.958-8.958h57.824v7.455c0 10.74 8.738 19.479 19.479 19.479h122.439c10.741 0 19.479-8.738 19.479-19.479v-7.455h57.824c4.939 0 8.958 4.019 8.958 8.958v395.263zm171.994-27.963c0 5.541-4.146 10.194-9.643 10.823-.197.022-.394.05-.588.083h-139.763v-378.206c0-17.07-13.888-30.958-30.958-30.958h-57.824v-2.582c0-9.755-7.936-17.691-17.691-17.691h-19.243c-1.215-4.493-3.119-8.712-5.576-12.548h270.38c6.014 0 10.906 4.893 10.906 10.906z"/></g></svg>