<svg id="Capa_1" enable-background="new 0 0 512.002 512.002" height="512" viewBox="0 0 512.002 512.002" width="512" xmlns="http://www.w3.org/2000/svg" fill="#052438"><g><path d="m191.333 340.151h-65.956c-2.215 0-4.017-1.802-4.017-4.016v-158.556c0-3.665 2.981-6.646 6.646-6.646h61.487c8.053 0 14.604-6.552 14.604-14.605v-141.718c0-8.053-6.552-14.605-14.604-14.605-1.048.005-65.9-.013-66.899.001-12.828.01-57.008 3.417-86.946 46.856-13.65 19.807-20.865 43.421-20.865 68.291v271.639c0 21.257 5.361 42.294 15.504 60.836 21.566 39.874 64.266 64.681 109.821 64.372h51.224c8.053 0 14.604-6.552 14.604-14.605v-142.639c.001-8.053-6.551-14.605-14.603-14.605zm-9.235-191.217h-45.722v-126.932l45.722.003zm-97.097 325.616c-29.741-18.396-48.218-52.023-48.218-87.758v-271.639c0-20.39 5.872-39.688 16.98-55.806 19.313-28.023 45.838-35.138 60.612-36.838v129.88c-8.936 4.854-15.017 14.325-15.017 25.19v158.556c0 10.415 6.155 19.416 15.017 23.569v127.192c-10.472-2.573-20.352-6.714-29.374-12.346zm98.936 15.45h-43.828c-1.247 0-2.491-.024-3.732-.066v-127.783h47.561v127.849z"/><path d="m381.68 219.343c-7.977.127-15.07-6.836-14.888-14.885v-33.288h-98.549c-5.632 0-10.922-2.198-14.895-6.189-3.974-3.992-6.147-9.292-6.122-14.924l.261-56.108c.051-11.269 9.261-20.438 20.532-20.438h97.675v-31.47c0-5.488 3.067-10.385 8.006-12.78 4.938-2.397 10.684-1.772 14.992 1.625l101.544 80.054c4.471 3.524 7.016 8.811 6.981 14.505-.034 5.694-2.643 10.951-7.157 14.422l-99.336 76.378c-2.665 2.049-5.839 3.097-9.044 3.098zm-112.448-70.173h108.561c6.075 0 11 4.925 11 11v29.811l84.123-64.681-85.221-67.185v26.396c0 6.075-4.925 11-11 11h-107.214z" fill="#0496FF"/><path d="m364.523 484.179c-3.116 0-6.198-1.039-8.77-3.066l-101.544-80.054c-4.471-3.524-7.016-8.812-6.981-14.506.034-5.694 2.643-10.95 7.156-14.421l99.337-76.377c4.522-3.478 10.514-4.071 15.632-1.552 5.119 2.521 8.3 7.633 8.3 13.339v33.288h98.549c5.632 0 10.922 2.198 14.895 6.189 3.974 3.992 6.147 9.292 6.122 14.924l-.26 56.107c-.053 11.27-9.264 20.438-20.533 20.438h-97.675v31.47c0 5.488-3.067 10.385-8.005 12.78-1.993.966-4.116 1.441-6.223 1.441zm-92.992-97.48 85.22 67.185v-26.396c0-6.075 4.925-11 11-11h107.215l.248-53.659h-108.561c-6.075 0-11-4.925-11-11v-29.809zm204.671-23.87h.01z"/></g></svg>