<svg id="Capa_1" enable-background="new 0 0 512 512" viewBox="0 0 512 512" xmlns="http://www.w3.org/2000/svg" fill="#E6ECF2"><g><g fill="#0496FF"><path d="m340.141 245h116.859v22h-116.859z"/><path d="m445 295.764h-135.883v22h124.883v79.236h22v-90.236c0-6.075-4.925-11-11-11z"/><path d="m309.117 216.236h135.883c6.075 0 11-4.925 11-11v-90.236h-22v79.236h-124.883z"/><path d="m390 157.188v-102.188h-22v91.188h-66.717v22h77.717c6.075 0 11-4.924 11-11z"/><path d="m379 343.812h-77.717v22h66.717v91.188h22v-102.188c0-6.076-4.925-11-11-11z"/></g><g><path d="m479 223c-18.196 0-33 14.804-33 33s14.804 33 33 33 33-14.804 33-33-14.804-33-33-33zm0 44c-6.065 0-11-4.935-11-11s4.935-11 11-11 11 4.935 11 11-4.935 11-11 11z"/><path d="m445 386c-18.196 0-33 14.804-33 33s14.804 33 33 33 33-14.804 33-33-14.804-33-33-33zm0 44c-6.065 0-11-4.935-11-11s4.935-11 11-11 11 4.935 11 11-4.935 11-11 11z"/><path d="m445 126c18.196 0 33-14.804 33-33s-14.804-33-33-33-33 14.804-33 33 14.804 33 33 33zm0-44c6.065 0 11 4.935 11 11s-4.935 11-11 11-11-4.935-11-11 4.935-11 11-11z"/><path d="m379 66c18.196 0 33-14.804 33-33s-14.804-33-33-33-33 14.804-33 33 14.804 33 33 33zm0-44c6.065 0 11 4.935 11 11s-4.935 11-11 11-11-4.935-11-11 4.935-11 11-11z"/><path d="m379 446c-18.196 0-33 14.804-33 33s14.804 33 33 33 33-14.804 33-33-14.804-33-33-33zm0 44c-6.065 0-11-4.935-11-11s4.935-11 11-11 11 4.935 11 11-4.935 11-11 11z"/><path d="m349.222 233.257c0-4.449-2.679-8.46-6.789-10.164l-18.302-7.583c-2.878-9.799-6.803-19.259-11.714-28.238l7.577-18.288c1.703-4.11.763-8.841-2.383-11.988l-32.132-32.14c-3.146-3.147-7.876-4.089-11.987-2.386l-18.317 7.584c-8.981-4.907-18.441-8.827-28.242-11.702l-7.568-18.277c-1.702-4.111-5.712-6.792-10.162-6.792l-32.521-.005c-10.339-14.21-27.087-23.471-45.965-23.471-27.767 0-50.93 20.024-55.847 46.386-25.685 3.731-45.48 25.89-45.48 52.593v9.294c-17.178 6.684-29.39 23.388-29.39 42.9 0 14.012 6.302 26.573 16.212 35.021-9.91 8.449-16.212 21.01-16.212 35.022 0 19.513 12.212 36.217 29.39 42.901v9.29c0 26.703 19.795 48.862 45.48 52.593 4.917 26.362 28.08 46.386 55.847 46.386 18.88 0 35.628-9.263 45.967-23.475l32.557.005h.001c4.448 0 8.459-2.68 10.162-6.789l7.583-18.301c9.8-2.878 19.259-6.803 28.239-11.714l18.287 7.577c4.111 1.703 8.842.762 11.988-2.383l32.141-32.132c3.146-3.146 4.088-7.877 2.386-11.988l-7.584-18.317c4.907-8.98 8.827-18.441 11.702-28.241l18.278-7.569c4.11-1.702 6.791-5.712 6.792-10.162zm-161.68-26.923c26.919.559 48.649 22.615 48.649 49.666s-21.73 49.106-48.649 49.666zm-22 179.035c0 19.203-15.622 34.825-34.824 34.825-16.105 0-29.686-10.991-33.65-25.865 7.018-1.995 13.61-5.412 19.293-10.102 4.685-3.867 5.349-10.8 1.482-15.486-3.867-4.685-10.8-5.35-15.486-1.482-5.636 4.651-12.487 7.11-19.812 7.11-17.179 0-31.154-13.976-31.154-31.154v-6.167h14.313c6.075 0 11-4.925 11-11s-4.925-11-11-11h-19.68c-13.247-.001-24.024-10.778-24.024-24.025 0-13.221 10.735-23.98 23.947-24.021.026 0 .051.002.077.002 6.075 0 11-4.925 11-11 0-.001 0-.001 0-.002s0-.001 0-.002c0-6.075-4.925-11-11-11-.026 0-.051.002-.077.002-13.212-.042-23.947-10.801-23.947-24.022 0-13.247 10.777-24.024 24.024-24.024h19.679c6.075 0 11-4.925 11-11s-4.925-11-11-11h-14.313v-6.171c0-17.179 13.976-31.154 31.154-31.154 7.325 0 14.176 2.458 19.812 7.11 4.687 3.868 11.619 3.204 15.486-1.482s3.203-11.619-1.482-15.486c-5.684-4.691-12.276-8.107-19.293-10.102 3.964-14.874 17.545-25.865 33.65-25.865 19.202 0 34.824 15.622 34.824 34.825v258.738zm161.675-114.017-16.473 6.821c-3.217 1.332-5.613 4.108-6.46 7.485-2.876 11.458-7.42 22.425-13.505 32.594-1.787 2.986-2.055 6.641-.724 9.856l6.836 16.51-21.745 21.739-16.485-6.831c-3.219-1.333-6.876-1.064-9.863.726-10.168 6.09-21.133 10.639-32.589 13.519-3.375.848-6.148 3.243-7.48 6.457l-6.834 16.493-15.494-.002c.747-3.669 1.141-7.465 1.141-11.351v-57.703c39.05-.562 70.649-32.484 70.649-71.666s-31.599-71.103-70.649-71.666v-57.703c0-3.887-.394-7.682-1.141-11.352l15.45.002 6.821 16.473c1.332 3.217 4.108 5.614 7.486 6.461 11.458 2.875 22.424 7.418 32.594 13.504 2.985 1.786 6.641 2.055 9.856.724l16.51-6.836 21.739 21.745-6.831 16.485c-1.333 3.217-1.064 6.875.726 9.863 6.09 10.168 10.639 21.132 13.519 32.589.848 3.374 3.243 6.148 6.457 7.48l16.493 6.834z"/></g></g><g/><g/><g/><g/><g/><g/><g/><g/><g/><g/><g/><g/><g/><g/><g/></svg>