<svg id="Capa_1" enable-background="new 0 0 512 512" viewBox="0 0 512 512" xmlns="http://www.w3.org/2000/svg" fill="#052438"><g><path d="m473.081 256.003c15.362-10.872 25.42-28.766 25.42-48.977 0-26.478-17.252-48.987-41.101-56.918v-16.074c0-36.226-27.682-66.105-63.004-69.604-5.19-36.372-36.53-64.43-74.314-64.43-27.093 0-50.876 14.427-64.082 35.999-13.206-21.572-36.989-35.999-64.082-35.999-37.784 0-69.124 28.058-74.314 64.43-35.322 3.499-63.004 33.378-63.004 69.604v16.074c-23.848 7.931-41.101 30.44-41.101 56.918 0 20.21 10.058 38.104 25.42 48.977-15.362 10.872-25.42 28.766-25.42 48.976 0 26.478 17.252 48.987 41.101 56.918v16.069c0 36.226 27.682 66.105 63.004 69.604 5.19 36.372 36.53 64.43 74.314 64.43 27.093 0 50.876-14.427 64.082-35.999 13.206 21.572 36.989 35.999 64.082 35.999 37.784 0 69.124-28.058 74.314-64.43 35.322-3.499 63.004-33.377 63.004-69.604v-16.069c23.848-7.931 41.101-30.44 41.101-56.918 0-20.21-10.058-38.104-25.42-48.976zm-34.559 86.955h-17.521c-6.075 0-11 4.925-11 11s4.925 11 11 11h14.399v13.008c0 26.44-21.511 47.951-47.951 47.951-11.113 0-21.943-3.887-30.496-10.945-4.686-3.866-11.616-3.204-15.486 1.482-3.866 4.686-3.203 11.619 1.482 15.485 8.548 7.054 18.652 11.936 29.377 14.315-4.427 24.83-26.16 43.746-52.244 43.746-29.258 0-53.061-23.792-53.082-53.045 0-.013.001-.026.001-.039v-35.916c0-6.075-4.925-11-11-11s-11 4.925-11 11v35.916h-.002c0 .013.001.026.001.039-.021 29.253-23.824 53.045-53.082 53.045-26.084 0-47.817-18.916-52.244-43.746 10.725-2.379 20.829-7.261 29.377-14.315 4.686-3.867 5.349-10.8 1.482-15.485-3.868-4.686-10.801-5.349-15.486-1.482-8.553 7.058-19.383 10.945-30.496 10.945-26.44 0-47.951-21.511-47.951-47.951v-13.008h14.399c6.075 0 11-4.925 11-11s-4.925-11-11-11h-17.521c-20.941 0-37.979-17.037-37.979-37.979 0-20.903 16.975-37.913 37.863-37.976.039 0 .077.003.115.003 6.075 0 11-4.925 11-11 0-.001 0-.002 0-.003s0-.002 0-.003c0-6.075-4.925-11-11-11-.039 0-.077.003-.115.003-20.888-.063-37.863-17.073-37.863-37.977 0-20.942 17.037-37.979 37.979-37.979h17.521c6.075 0 11-4.925 11-11s-4.925-11-11-11h-14.399v-13.013c0-26.44 21.511-47.951 47.951-47.951 11.113 0 21.943 3.887 30.496 10.945 4.687 3.867 11.618 3.205 15.486-1.482 3.866-4.686 3.203-11.619-1.482-15.485-8.548-7.054-18.652-11.936-29.377-14.315 4.427-24.83 26.16-43.746 52.244-43.746 29.258 0 53.061 23.792 53.082 53.045 0 .013-.001.026-.001.039h.002v35.916c0 6.075 4.925 11 11 11s11-4.925 11-11v-35.917c0-.013-.001-.026-.001-.039.021-29.252 23.824-53.044 53.082-53.044 26.084 0 47.817 18.916 52.244 43.746-10.725 2.379-20.829 7.261-29.377 14.315-4.686 3.867-5.349 10.8-1.482 15.485 3.868 4.686 10.802 5.35 15.486 1.482 8.553-7.058 19.383-10.945 30.496-10.945 26.44 0 47.951 21.511 47.951 47.951v13.013h-14.399c-6.075 0-11 4.925-11 11s4.925 11 11 11h17.521c20.941 0 37.979 17.037 37.979 37.979 0 20.903-16.975 37.914-37.863 37.977-.039 0-.077-.003-.115-.003-6.075 0-11 4.925-11 11v.003s0 .002 0 .003c0 6.075 4.925 11 11 11 .039 0 .077-.003.115-.003 20.888.063 37.863 17.073 37.863 37.976 0 20.942-17.037 37.979-37.979 37.979z"/><g fill="#0496FF"><path d="m361.212 230.697-10.577-4.383c-1.758-5.61-4.015-11.051-6.748-16.267l4.378-10.566c1.703-4.11.763-8.841-2.383-11.987l-21.39-21.396c-3.146-3.147-7.879-4.089-11.987-2.386l-10.587 4.384c-5.217-2.73-10.659-4.985-16.269-6.741l-4.373-10.56c-1.702-4.11-5.713-6.791-10.161-6.792l-30.254-.004c-.001 0-.001 0-.002 0-4.448 0-8.459 2.679-10.162 6.789l-4.383 10.578c-5.609 1.758-11.051 4.015-16.267 6.748l-10.565-4.378c-4.108-1.701-8.841-.763-11.988 2.383l-21.396 21.39c-3.146 3.146-4.088 7.877-2.386 11.988l4.384 10.586c-2.73 5.216-4.985 10.658-6.741 16.268l-10.561 4.373c-4.11 1.702-6.79 5.713-6.791 10.162l-.004 30.254c-.001 4.449 2.679 8.46 6.789 10.164l10.577 4.383c1.758 5.61 4.015 11.051 6.748 16.267l-4.378 10.566c-1.703 4.11-.763 8.841 2.383 11.987l21.39 21.396c3.146 3.147 7.878 4.089 11.987 2.386l10.587-4.384c5.217 2.73 10.658 4.985 16.269 6.741l4.373 10.56c1.702 4.11 5.713 6.791 10.161 6.792l30.254.004h.002c4.448 0 8.459-2.679 10.162-6.789l4.383-10.578c5.609-1.758 11.051-4.015 16.267-6.748l10.565 4.378c4.109 1.702 8.841.763 11.988-2.383l21.396-21.39c3.146-3.146 4.088-7.877 2.386-11.988l-4.384-10.586c2.73-5.216 4.985-10.658 6.741-16.268l10.561-4.373c4.11-1.702 6.79-5.713 6.791-10.162l.004-30.254c.001-4.449-2.679-8.461-6.789-10.164zm-15.214 33.065-8.696 3.601c-3.216 1.332-5.612 4.108-6.46 7.484-1.827 7.279-4.714 14.246-8.579 20.706-1.786 2.986-2.055 6.641-.724 9.856l3.61 8.72-11 10.997-8.704-3.606c-3.219-1.333-6.875-1.064-9.863.726-6.46 3.869-13.425 6.758-20.7 8.588-3.375.848-6.148 3.243-7.48 6.457l-3.61 8.709-15.554-.002-3.602-8.696c-1.332-3.217-4.108-5.613-7.485-6.46-7.277-1.827-14.243-4.713-20.704-8.579-2.986-1.787-6.643-2.056-9.856-.724l-8.721 3.611-10.997-11 3.606-8.705c1.333-3.217 1.064-6.875-.726-9.863-3.869-6.459-6.759-13.424-8.588-20.702-.849-3.374-3.243-6.148-6.457-7.48l-8.708-3.608.002-15.554 8.696-3.601c3.216-1.332 5.612-4.108 6.46-7.484 1.827-7.278 4.714-14.245 8.579-20.706 1.786-2.986 2.055-6.641.724-9.856l-3.61-8.72 11-10.997 8.704 3.606c3.22 1.333 6.876 1.064 9.863-.726 6.46-3.869 13.425-6.758 20.7-8.588 3.375-.848 6.148-3.243 7.48-6.457l3.609-8.709 15.554.002 3.602 8.696c1.332 3.217 4.108 5.613 7.486 6.461 7.276 1.826 14.242 4.712 20.703 8.578 2.985 1.786 6.642 2.055 9.856.724l8.721-3.611 10.997 11-3.606 8.705c-1.333 3.217-1.064 6.875.726 9.863 3.869 6.459 6.759 13.424 8.588 20.702.849 3.374 3.243 6.148 6.457 7.48l8.709 3.609z"/><path d="m256 204.598c-28.344 0-51.402 23.059-51.402 51.402s23.059 51.402 51.402 51.402 51.402-23.059 51.402-51.402-23.058-51.402-51.402-51.402zm0 80.804c-16.213 0-29.402-13.19-29.402-29.402s13.189-29.402 29.402-29.402 29.402 13.19 29.402 29.402-13.189 29.402-29.402 29.402z"/></g></g><g/><g/><g/><g/><g/><g/><g/><g/><g/><g/><g/><g/><g/><g/><g/></svg>