<svg id="Capa_1" enable-background="new 0 0 512 512" viewBox="0 0 512 512" xmlns="http://www.w3.org/2000/svg" fill="#052438"><g><g><path d="m245 237.245h22v110.021h-22z"/><path d="m408.076 95.247c-5.918-8.257-14.438-14.336-24.109-17.259-9.148-28.339-35.928-48.23-66.239-48.23-2.043 0-4.088.09-6.125.269-12.202-18.705-32.848-30.027-55.603-30.027-21.509 0-41.581 10.452-53.987 27.704-10.784-.351-21.15 3.034-29.533 9.529-3.574-.558-7.185-.839-10.788-.839-36.429 0-66.446 27.972-69.699 63.566-17.755 9.552-29.247 28.345-29.247 48.86 0 30.566 24.867 55.434 55.434 55.434h93.828v-22h-93.828c-18.436 0-33.434-14.998-33.434-33.434 0-13.913 8.762-26.513 21.802-31.354 4.361-1.619 7.233-5.807 7.171-10.458-.002-.194-.008-.387-.015-.58l-.003-.043c0-26.462 21.529-47.991 47.991-47.991 3.813 0 7.642.461 11.382 1.37 3.755.911 7.713-.212 10.427-2.962 4.533-4.593 10.579-7.122 17.024-7.122 1.634 0 3.266.165 4.85.49 4.691.964 9.466-1.219 11.808-5.396 7.874-14.048 22.748-22.774 38.817-22.774 17.062 0 32.355 9.52 39.911 24.845 2.216 4.496 7.192 6.923 12.099 5.907 3.185-.66 6.455-.995 9.719-.995 22.414 0 42.003 15.897 46.578 37.799.961 4.603 4.743 8.086 9.41 8.667 7.528.936 14.232 5.474 17.934 12.138 1.624 2.923 4.488 4.949 7.785 5.505 16.119 2.721 27.818 16.581 27.818 32.954 0 18.436-14.998 33.434-33.434 33.434h-93.828v22h93.828c30.566 0 55.434-24.867 55.434-55.434-.001-25.434-17.036-47.211-41.178-53.573z"/><path d="m267 391.609h-22v76.391h-33.965v22h89.93v-22h-33.965z"/><path d="m234 380.609v-22h-127.799l126.47-126.471-15.556-15.556-129.693 129.692 13.55 13.55v19.571l-13.55 13.549 78.279 78.278 15.556-15.556-75.056-75.057z"/><path d="m411.028 359.824 13.55-13.55-129.693-129.692-15.556 15.556 126.47 126.471h-127.456v22h127.456l-75.056 75.057 15.556 15.556 78.279-78.278-13.55-13.549z"/></g><g fill="#0496FF"><path d="m256 248.245c30.323 0 54.992-24.669 54.992-54.991 0-30.323-24.669-54.992-54.992-54.992s-54.992 24.669-54.992 54.992c0 30.322 24.669 54.991 54.992 54.991zm0-87.983c18.192 0 32.992 14.8 32.992 32.992 0 18.191-14.8 32.991-32.992 32.991s-32.992-14.8-32.992-32.991c0-18.192 14.8-32.992 32.992-32.992z"/><path d="m322.965 446c-8.815 0-17.102 3.433-23.335 9.666-12.866 12.867-12.866 33.802 0 46.669 6.233 6.233 14.52 9.666 23.335 9.666s17.102-3.433 23.334-9.666c12.867-12.867 12.867-33.802 0-46.668-6.233-6.234-14.519-9.667-23.334-9.667zm7.778 40.778c-2.078 2.078-4.84 3.222-7.778 3.222s-5.701-1.144-7.778-3.222c-2.078-2.077-3.222-4.84-3.222-7.778s1.144-5.701 3.222-7.778c2.078-2.078 4.84-3.222 7.778-3.222s5.7 1.144 7.778 3.222c2.078 2.077 3.222 4.84 3.222 7.778s-1.145 5.701-3.222 7.778z"/><path d="m256 336.609c-8.815 0-17.102 3.433-23.334 9.666-6.233 6.233-9.666 14.52-9.666 23.334s3.433 17.102 9.666 23.335c6.434 6.433 14.884 9.65 23.334 9.65s16.901-3.217 23.334-9.65c6.233-6.233 9.666-14.52 9.666-23.335s-3.433-17.102-9.666-23.334c-6.232-6.233-14.519-9.666-23.334-9.666zm7.778 40.778c-2.077 2.078-4.84 3.222-7.778 3.222s-5.701-1.144-7.778-3.222c-2.078-2.078-3.222-4.84-3.222-7.778s1.144-5.7 3.222-7.778 4.84-3.222 7.778-3.222 5.7 1.144 7.778 3.222 3.222 4.84 3.222 7.778-1.144 5.701-3.222 7.778z"/><path d="m189.035 446c-8.815 0-17.102 3.433-23.334 9.666-12.867 12.867-12.867 33.802 0 46.669 6.233 6.232 14.521 9.666 23.334 9.666 8.815 0 17.102-3.433 23.335-9.666 12.866-12.867 12.866-33.802 0-46.669-6.233-6.233-14.52-9.666-23.335-9.666zm7.778 40.778c-2.078 2.078-4.84 3.222-7.778 3.222s-5.7-1.144-7.778-3.222c-2.078-2.077-3.222-4.84-3.222-7.778s1.144-5.701 3.222-7.778 4.84-3.222 7.778-3.222 5.701 1.144 7.778 3.222c2.078 2.077 3.222 4.84 3.222 7.778s-1.144 5.701-3.222 7.778z"/><path d="m79.645 336.609c-8.815 0-17.102 3.433-23.335 9.666-12.866 12.867-12.866 33.802 0 46.669 6.434 6.433 14.884 9.649 23.334 9.649s16.901-3.216 23.334-9.65c12.866-12.867 12.866-33.802 0-46.668-6.232-6.233-14.519-9.666-23.333-9.666zm7.777 40.778c-4.288 4.289-11.268 4.289-15.557 0-4.288-4.289-4.289-11.268 0-15.556 2.078-2.078 4.84-3.222 7.778-3.222s5.7 1.144 7.778 3.222c4.29 4.289 4.29 11.268.001 15.556z"/><path d="m455.69 346.274c-6.233-6.233-14.52-9.666-23.335-9.666s-17.102 3.433-23.334 9.666c-12.866 12.867-12.866 33.802 0 46.669 6.433 6.433 14.884 9.649 23.334 9.649s16.901-3.216 23.335-9.65c12.867-12.865 12.867-33.801 0-46.668zm-15.556 31.113c-4.29 4.288-11.268 4.289-15.557 0-4.288-4.289-4.289-11.268 0-15.557 2.078-2.078 4.84-3.222 7.778-3.222s5.701 1.144 7.778 3.222c4.29 4.29 4.29 11.269.001 15.557z"/></g></g><g/><g/><g/><g/><g/><g/><g/><g/><g/><g/><g/><g/><g/><g/><g/></svg>