<svg id="Capa_1" enable-background="new 0 0 512 512" viewBox="0 0 512 512" xmlns="http://www.w3.org/2000/svg" fill="#E6ECF2"><g><path d="m468.572 176.299c-33.798-96.497-125.24-161.331-227.54-161.331-.304 0-.611.004-.919.011-64.038.238-124.208 25.277-169.516 70.585-45.525 45.526-70.597 106.054-70.597 170.436s25.072 124.91 70.597 170.435c45.308 45.308 105.478 70.348 169.516 70.585.308.007.615.011.919.011 82.62 0 158.566-41.598 203.157-111.273l-18.53-11.858c-7.039 10.999-14.955 21.208-23.596 30.603-15.04-10.855-31.685-20.144-49.591-27.651l-4.12 22.195c13.491 5.976 26.133 13.062 37.752 21.139-29.039 25.732-64.398 43.267-102.702 50.749 7.647-10.457 15.238-24.814 22.3-44.361l-20.691-7.475c-12.652 35.024-29.093 55.934-43.979 55.934-15.546 0-32.515-22.409-45.391-59.944-3.476-10.134-6.574-21.088-9.282-32.704 17.664-3.559 35.999-5.404 54.673-5.404 11.76 0 23.541.748 35.068 2.206v-22.167c-11.557-1.35-23.326-2.038-35.068-2.038-20.164 0-39.987 2.001-59.108 5.863-5.179-28.728-8.168-60.603-8.709-93.843h82.785v-22h-82.785c.54-33.237 3.529-65.108 8.707-93.834 19.113 3.857 38.934 5.854 59.109 5.854 20.178 0 40.008-2.002 59.134-5.865 3.839 21.403 6.625 45.429 7.949 71.763l21.973-1.104s-4.266-52.259-8.575-75.827c29.48-8.365 56.812-21.354 80.539-38.488 19.906 21.536 35.662 47.249 45.757 76.073zm-388.541-68.788c23.716 17.126 51.024 30.112 80.484 38.474-5.555 30.372-8.747 64.022-9.301 99.015h-128.943c2.526-51.438 22.763-99.615 57.76-137.489zm-57.76 159.489h128.944c.554 34.998 3.747 68.653 9.303 99.028-29.458 8.364-56.778 21.342-80.488 38.458-34.997-37.872-55.233-86.048-57.759-137.486zm152.561 155.226c7.473 21.785 15.603 37.499 23.807 48.724-38.008-7.414-73.264-24.794-102.643-50.827 20.495-14.253 43.865-25.198 69.004-32.501 2.865 12.272 6.146 23.862 9.832 34.604zm0-332.452c-3.686 10.745-6.968 22.338-9.834 34.612-25.141-7.302-48.498-18.255-68.996-32.515 29.378-26.029 64.632-43.408 102.637-50.821-8.205 11.225-16.334 26.939-23.807 48.724zm66.2 45.246c-18.684 0-37.018-1.841-54.675-5.396 2.709-11.619 5.807-22.576 9.284-32.712 12.875-37.535 29.844-59.944 45.391-59.944 19.167 0 41.085 33.88 54.723 92.641-17.677 3.563-36.028 5.411-54.723 5.411zm76.009-10.632c-3.92-16.835-8.6-32.297-13.96-45.913-6.316-16.043-12.989-28.206-19.693-37.37 38.451 7.587 73.817 25.329 102.666 50.776-20.501 14.257-43.869 25.205-69.013 32.507z"/><path d="m494.21 176.15c-11.139-7.641-25.314-9.299-37.915-4.436l-115.474 44.563h-33.432c-37.717 0-68.403 30.686-68.403 68.403 0 24.659 13.12 46.308 32.742 58.346-.224.875-.356 1.788-.356 2.734v50.919c0 22.745 18.504 41.249 41.249 41.249s41.249-18.504 41.249-41.249v-38.56l102.425 39.527c4.774 1.843 9.772 2.749 14.747 2.749 8.157 0 16.249-2.438 23.168-7.185 11.14-7.64 17.79-20.267 17.79-33.775v-149.51c0-13.508-6.65-26.134-17.79-33.775zm-186.821 62.128h24.481v92.806h-24.481c-25.586 0-46.403-20.816-46.403-46.403s20.817-46.403 46.403-46.403zm5.232 177.65c-10.614 0-19.249-8.635-19.249-19.249v-45.045c4.526.946 9.214 1.45 14.017 1.45h24.481v43.596c0 10.613-8.635 19.248-19.249 19.248zm177.379-56.493c0 6.346-3.001 12.043-8.234 15.633-5.234 3.59-11.63 4.338-17.55 2.053l-110.346-42.583v-99.715l110.346-42.584c5.918-2.285 12.317-1.537 17.549 2.053 5.233 3.59 8.234 9.288 8.234 15.634v149.509z" fill="#0496FF"/></g><g/><g/><g/><g/><g/><g/><g/><g/><g/><g/><g/><g/><g/><g/><g/></svg>