<svg id="Capa_1" enable-background="new 0 0 512 512" viewBox="0 0 512 512" xmlns="http://www.w3.org/2000/svg" fill="#E6ECF2"><g><g fill="#0496FF"><path d="m255.891 134.521c-67.012 0-121.53 54.495-121.53 121.479s54.518 121.479 121.53 121.479 121.53-54.496 121.53-121.479-54.518-121.479-121.53-121.479zm0 220.958c-54.881 0-99.53-44.626-99.53-99.479s44.649-99.479 99.53-99.479 99.53 44.626 99.53 99.479-44.649 99.479-99.53 99.479z"/><path d="m501 245h-26.104c-6.075 0-11 4.925-11 11s4.925 11 11 11h26.104c6.075 0 11-4.925 11-11s-4.925-11-11-11z"/><path d="m469.519 297.902c-3.896-4.661-10.833-5.28-15.495-1.383-4.661 3.896-5.28 10.834-1.383 15.495l20.412 24.415c2.176 2.602 5.299 3.945 8.445 3.945 2.488 0 4.991-.84 7.05-2.562 4.661-3.896 5.28-10.834 1.383-15.495z"/><path d="m454.024 215.481c2.059 1.721 4.561 2.562 7.05 2.562 3.146 0 6.27-1.343 8.445-3.945l20.412-24.415c3.897-4.661 3.277-11.598-1.383-15.495-4.659-3.896-11.598-3.277-15.495 1.383l-20.412 24.415c-3.897 4.661-3.277 11.598 1.383 15.495z"/><path d="m48.104 256c0-6.075-4.925-11-11-11h-26.104c-6.075 0-11 4.925-11 11s4.925 11 11 11h26.104c6.076 0 11-4.925 11-11z"/><path d="m38.947 175.572c-3.896-4.66-10.833-5.28-15.495-1.383-4.661 3.896-5.28 10.834-1.383 15.495l20.412 24.415c2.176 2.603 5.299 3.945 8.445 3.945 2.488 0 4.991-.84 7.05-2.562 4.661-3.896 5.28-10.834 1.383-15.495z"/><path d="m57.976 296.519c-4.66-3.896-11.598-3.277-15.495 1.383l-20.412 24.415c-3.897 4.661-3.277 11.598 1.383 15.495 2.059 1.721 4.561 2.562 7.05 2.562 3.146 0 6.27-1.343 8.445-3.945l20.412-24.415c3.897-4.661 3.277-11.598-1.383-15.495z"/></g><g><path d="m386.945 0h-262.107c-20.973 0-38.036 17.478-38.036 38.96v434.08c0 21.483 17.062 38.96 38.036 38.96h262.107c20.973 0 38.035-17.478 38.035-38.96v-434.08c0-21.482-17.063-38.96-38.035-38.96zm16.035 473.04c0 9.352-7.193 16.96-16.035 16.96h-262.107c-8.842 0-16.036-7.608-16.036-16.96v-434.08c0-9.352 7.193-16.96 16.036-16.96h262.107c8.842 0 16.035 7.608 16.035 16.96z"/><path d="m201.732 70.971h62.971c6.075 0 11-4.925 11-11s-4.925-11-11-11h-62.971c-6.075 0-11 4.925-11 11s4.925 11 11 11z"/><path d="m295.578 192.288c-6.075 0-11 4.925-11 11v.741l-53.928 19.133h-29.823c-12.58 0-22.813 10.231-22.813 22.808v20.783c0 12.577 10.234 22.808 22.813 22.808h4.141v19.594c0 6.075 4.925 11 11 11s11-4.925 11-11v-19.594h3.681l53.928 19.133v1.095c0 6.075 4.925 11 11 11s11-4.925 11-11v-106.501c.001-6.076-4.924-11-10.999-11zm-95.565 74.464v-20.782c0-.446.365-.808.813-.808h20.716v22.399h-20.716c-.448 0-.813-.363-.813-.809zm43.529 4.04v-28.861l41.035-14.559v57.979z"/><circle cx="310.05" cy="59.971" r="11"/></g></g><g/><g/><g/><g/><g/><g/><g/><g/><g/><g/><g/><g/><g/><g/><g/></svg>