<svg id="Capa_1" enable-background="new 0 0 512 512" viewBox="0 0 512 512" xmlns="http://www.w3.org/2000/svg" fill="#E6ECF2"><g><g><path d="m253.863 300.955c-62.124 0-112.665-50.541-112.665-112.665s50.542-112.664 112.665-112.664 112.665 50.541 112.665 112.665-50.541 112.664-112.665 112.664zm0-203.329c-49.993 0-90.665 40.672-90.665 90.665s40.672 90.665 90.665 90.665 90.665-40.672 90.665-90.665-40.672-90.665-90.665-90.665z" fill="#0496FF"/></g><g><path d="m463.672 7.45c-3.917-4.645-10.857-5.235-15.5-1.318l-18.435 15.545c-4.644 3.916-5.234 10.856-1.318 15.5 2.176 2.58 5.285 3.909 8.415 3.909 2.504 0 5.022-.85 7.086-2.591l18.435-15.545c4.644-3.915 5.234-10.855 1.317-15.5z"/><path d="m494.831 79.192c-.721-6.032-6.192-10.333-12.227-9.618l-23.943 2.86c-6.032.721-10.338 6.195-9.618 12.227.668 5.589 5.416 9.696 10.909 9.696.435 0 .875-.026 1.318-.079l23.943-2.86c6.033-.72 10.339-6.194 9.618-12.226z"/><path d="m49.646 22.951 18.434 15.545c2.064 1.741 4.582 2.591 7.086 2.591 3.13 0 6.239-1.329 8.415-3.909 3.917-4.645 3.326-11.584-1.318-15.5l-18.434-15.546c-4.645-3.917-11.584-3.327-15.5 1.318-3.917 4.645-3.327 11.584 1.317 15.501z"/><path d="m53.339 72.435-23.943-2.86c-6.034-.72-11.507 3.585-12.227 9.618-.721 6.032 3.585 11.506 9.618 12.227l23.943 2.86c.443.053.883.079 1.318.079 5.492 0 10.241-4.107 10.909-9.696.721-6.034-3.585-11.508-9.618-12.228z"/><path d="m256.13.014c-.759-.01-1.5-.014-2.258-.014-102.716 0-186.973 82.909-188.283 185.84-.648 50.872 18.694 98.785 54.463 134.915 15.423 15.578 25.539 35.308 29.174 56.457-9.941 1.653-17.552 10.289-17.552 20.692v36.548c0 9.45 6.276 17.457 14.878 20.084 1.733 31.979 28.292 57.464 60.695 57.464h93.232c32.404 0 58.962-25.485 60.695-57.464 8.601-2.627 14.877-10.634 14.877-20.084v-36.548c0-10.408-7.618-19.047-17.566-20.694 3.606-21.165 13.641-40.808 28.941-56.206 35.291-35.514 54.726-82.646 54.726-132.714 0-49.899-19.322-96.918-54.406-132.395-35.055-35.447-81.797-55.293-131.616-55.881zm97.922 398.89v34.548h-200.378v-34.548zm-53.573 91.096h-93.232c-19.955 0-36.439-15.148-38.559-34.548h170.351c-2.12 19.401-18.604 34.548-38.56 34.548zm71.343-184.502c-19.328 19.45-31.746 44.497-35.58 71.406h-164.768c-3.859-26.869-16.35-51.993-35.788-71.627-31.589-31.908-48.671-74.225-48.099-119.156 1.167-91.572 76.673-165.17 168.284-164.109 43.994.52 85.273 18.047 116.233 49.354 30.985 31.332 48.049 72.856 48.049 116.925 0 44.217-17.164 85.842-48.331 117.207z"/></g><g><path d="m240.993 225.675c-2.815 0-5.63-1.074-7.778-3.222l-20.213-20.213c-4.296-4.296-4.296-11.261 0-15.557 4.296-4.295 11.261-4.296 15.556 0l12.436 12.436 44.99-44.991c4.296-4.296 11.261-4.296 15.557 0 4.295 4.296 4.295 11.261 0 15.557l-52.769 52.769c-2.148 2.147-4.964 3.221-7.779 3.221z" fill="#0496FF"/></g></g><g/><g/><g/><g/><g/><g/><g/><g/><g/><g/><g/><g/><g/><g/><g/></svg>