<svg id="Layer_1" enable-background="new 0 0 512 512" viewBox="0 0 512 512" xmlns="http://www.w3.org/2000/svg" fill="#E6ECF2"><g><g><g><path d="m335.578 384.687h-159.156c-6.075 0-11-4.925-11-11s4.925-11 11-11h159.156c6.075 0 11 4.925 11 11s-4.925 11-11 11z" fill="#0496FF"/></g><g><g><g><path d="m362.67 0h-213.34c-23.938 0-43.412 19.475-43.412 43.412v425.176c0 23.938 19.475 43.412 43.412 43.412h213.34c23.938 0 43.412-19.475 43.412-43.412v-425.176c0-23.937-19.475-43.412-43.412-43.412zm-213.34 22h213.34c11.807 0 21.412 9.605 21.412 21.412v365.102h-256.164v-365.102c0-11.807 9.605-21.412 21.412-21.412zm213.34 468h-213.34c-11.807 0-21.412-9.605-21.412-21.412v-38.074h256.164v38.074c0 11.807-9.605 21.412-21.412 21.412z"/><path d="m200.373 62.961h69.354c6.075 0 11-4.925 11-11s-4.925-11-11-11h-69.354c-6.075 0-11 4.925-11 11s4.925 11 11 11z"/><path d="m301.47 56.17c1.74 4.247 6.12 6.999 10.696 6.775 4.597-.224 8.64-3.399 9.982-7.794 1.322-4.33-.238-9.157-3.825-11.915-3.687-2.835-8.933-3.003-12.803-.426-4.306 2.867-6.048 8.585-4.05 13.36z"/><path d="m200.336 335.054h111.328c23.138 0 41.962-18.824 41.962-41.962v-136.019c0-6.075-4.925-11-11-11h-173.252c-6.075 0-11 4.925-11 11v136.019c0 23.137 18.824 41.962 41.962 41.962zm-19.962-166.981h151.252v125.019c0 11.007-8.955 19.962-19.962 19.962h-111.328c-11.007 0-19.962-8.955-19.962-19.962z"/></g><g><path d="m297.747 191.651c-6.075 0-11-4.925-11-11v-62.001h-61.494v62.001c0 6.075-4.925 11-11 11s-11-4.925-11-11v-73.001c0-6.075 4.925-11 11-11h83.494c6.075 0 11 4.925 11 11v73.001c0 6.076-4.925 11-11 11z" fill="#0496FF"/></g></g></g></g></g><g/><g/><g/><g/><g/><g/><g/><g/><g/><g/><g/><g/><g/><g/><g/></svg>