<svg id="Layer_1" enable-background="new 0 0 511.999 511.999" viewBox="0 0 511.999 511.999" xmlns="http://www.w3.org/2000/svg" fill="#052438"><g><g><g><path d="m447.356 336.505c-5.949-1.245-11.776 2.566-13.021 8.512-18.083 86.341-95.276 147.269-183.578 144.916-80.352-2.158-149.906-57.475-171.053-133.777 3.737-.307 7.222-2.517 8.99-6.13 2.671-5.457.413-12.045-5.044-14.715l-16.777-8.211c-2.622-1.284-5.644-1.472-8.404-.525-2.76.946-5.031 2.951-6.313 5.573l-8.208 16.785c-2.668 5.458-.408 12.045 5.05 14.714 1.555.76 3.202 1.121 4.824 1.121 1.784 0 3.537-.436 5.105-1.254 10.863 38.001 32.761 72.496 62.904 98.615 35.598 30.845 81.175 48.53 128.335 49.796 1.866.05 3.719.075 5.575.075 96.582 0 180.244-67.541 200.127-162.473 1.245-5.947-2.566-11.776-8.512-13.022z"/><path d="m463.001 252.195c-3.244-1.586-6.89-1.43-9.874.105-5.864-20.972-14.842-40.668-26.54-58.423l4.743 2.468c1.594.83 3.337 1.242 5.077 1.242 1.98 0 3.958-.535 5.707-1.597 3.286-1.994 5.293-5.56 5.293-9.403v-76.794h7.143c6.075 0 11-4.925 11-11s-4.925-11-11-11h-7.143v-76.793c0-3.844-2.007-7.409-5.293-9.403-3.286-1.995-7.377-2.128-10.784-.355l-81.522 42.417h-70.302c-6.075 0-11 4.925-11 11v7.531h-33.661c-6.075 0-11 4.925-11 11v33.217c-83.336 13.308-150.319 76.852-167.714 159.908-1.245 5.946 2.565 11.776 8.512 13.021.761.159 1.519.236 2.266.236 5.096 0 9.669-3.562 10.755-8.748 15.338-73.233 73.875-129.466 147.003-142.25 1.645 4.003 5.582 6.823 10.178 6.823h33.661v7.531c0 6.075 4.925 11 11 11h1.373l3.192 13.266c-4.005-.793-8.044-1.417-12.093-1.864-5.229-.583-10.604-.879-15.977-.879-79.198 0-143.631 64.361-143.631 143.472 0 79.105 64.433 143.462 143.631 143.462 79.199 0 143.631-64.357 143.631-143.462 0-32.369-11.104-64.107-31.268-89.37-.483-.605-1.138-1.315-2.228-2.485l-14.755-61.322 19.156 9.967c29.968 23.801 51.532 57.076 61.805 94.97-3.754.292-7.262 2.505-9.037 6.133-2.671 5.457-.412 12.045 5.045 14.716l16.776 8.21c1.52.744 3.175 1.12 4.835 1.12 1.203 0 2.409-.197 3.568-.595 2.761-.946 5.031-2.951 6.313-5.572l8.208-16.785c2.67-5.458.409-12.046-5.049-14.715zm-37.593-83.731-43.674-22.725c-.096-.052-.193-.103-.291-.151l-17.944-9.337v-74.916l61.908-32.212v139.341zm-134.902-102.805h50.993v66.269h-50.993zm-44.66 47.738v-29.207h22.661v29.207zm82.711 40.53 16.499 68.57h-25.05l-16.5-68.57zm-72.556 275.457c-67.067 0-121.631-54.488-121.631-121.462 0-66.979 54.563-121.472 121.631-121.472 4.56 0 9.115.25 13.548.745 6.864.759 13.684 2.11 20.302 4.02l10.793 44.856c1.188 4.943 5.61 8.427 10.694 8.427h47.678c.249 0 .497-.009.744-.025 11.733 19.012 17.872 40.68 17.872 63.45 0 66.973-54.563 121.461-121.631 121.461z"/></g><path d="m313.457 355.492-44.459-117.665c-.038-.1-.077-.2-.118-.299-2.123-5.158-7.098-8.488-12.676-8.488h-.012c-5.583.005-10.558 3.346-12.674 8.512-.034.083-.067.167-.099.25l-44.867 117.659c-2.165 5.677.683 12.033 6.359 14.197 5.676 2.167 12.033-.682 14.198-6.358l8.474-22.223h56.909l8.385 22.191c1.664 4.403 5.848 7.115 10.292 7.115 1.292 0 2.606-.229 3.886-.713 5.684-2.147 8.55-8.494 6.402-14.178zm-77.484-36.415 20.196-52.962 20.012 52.962z" fill="#0496FF"/></g></g><g/><g/><g/><g/><g/><g/><g/><g/><g/><g/><g/><g/><g/><g/><g/></svg>