<svg id="Capa_1" enable-background="new 0 0 511.988 511.988" viewBox="0 0 511.988 511.988" xmlns="http://www.w3.org/2000/svg" fill="#E6ECF2"><g><path d="m404.164 362.262c-6.734-11.294-16.611-20.268-29.42-26.8 4.887-7.222 7.745-15.924 7.745-25.282 0-24.935-20.285-45.22-45.22-45.22s-45.22 20.285-45.22 45.22c0 9.336 2.845 18.02 7.712 25.231-12.372 6.282-22.03 14.945-28.795 25.874l18.705 11.58c6.012-9.711 15.719-16.955 28.841-21.556 5.719 2.618 12.067 4.09 18.757 4.09 6.693 0 13.045-1.473 18.766-4.094 13.674 4.896 23.236 12.165 29.233 22.222zm-90.115-52.082c0-12.804 10.416-23.22 23.22-23.22s23.22 10.416 23.22 23.22-10.416 23.22-23.22 23.22-23.22-10.417-23.22-23.22z" fill="#0496FF"/><g><path d="m129.017 338.479c9.635-9.331 15.643-22.387 15.643-36.827 0-28.283-23.011-51.294-51.294-51.294s-51.294 23.011-51.294 51.294c0 14.44 6.007 27.497 15.643 36.827-27.029 10.868-48.547 33.724-56.858 62.811-1.9 6.654-.605 13.631 3.553 19.143 4.134 5.479 10.444 8.623 17.312 8.623h143.287c6.868 0 13.179-3.144 17.313-8.625 4.157-5.512 5.451-12.488 3.551-19.141-8.309-29.087-29.827-51.944-56.856-62.811zm-35.652-66.121c16.152 0 29.294 13.142 29.294 29.294s-13.142 29.294-29.294 29.294-29.294-13.142-29.294-29.294 13.142-29.294 29.294-29.294zm-71.275 134.697c9.14-31.518 38.407-53.506 71.275-53.506 32.865 0 62.128 21.979 71.273 53.506z"/><path d="m129.017 117.484c9.635-9.331 15.643-22.387 15.643-36.827 0-28.283-23.011-51.294-51.294-51.294-28.284 0-51.295 23.011-51.295 51.294 0 14.44 6.007 27.497 15.643 36.827-27.029 10.868-48.546 33.725-56.857 62.812-1.9 6.653-.605 13.63 3.552 19.141 4.135 5.48 10.445 8.624 17.313 8.624h143.287c6.868 0 13.179-3.144 17.313-8.625 4.157-5.512 5.451-12.488 3.551-19.141-8.309-29.086-29.827-51.943-56.856-62.811zm-35.652-66.121c16.152 0 29.294 13.142 29.294 29.294s-13.142 29.294-29.294 29.294c-16.153 0-29.295-13.142-29.295-29.294s13.142-29.294 29.295-29.294zm-71.274 134.698c9.139-31.519 38.406-53.506 71.274-53.506 32.865 0 62.128 21.979 71.273 53.506z"/><path d="m499.195 407.953-31.709-31.709c10.686-20.362 16.745-43.517 16.745-68.064 0-46.209-21.445-87.498-54.897-114.459 1.537-4.239 1.733-8.912.444-13.426-8.309-29.086-29.827-51.943-56.856-62.811 9.635-9.331 15.643-22.387 15.643-36.827 0-28.283-23.011-51.294-51.294-51.294-28.284 0-51.295 23.011-51.295 51.294 0 14.44 6.007 27.497 15.643 36.827-27.029 10.868-48.546 33.725-56.857 62.811-1.287 4.509-1.104 9.172.443 13.426-33.452 26.961-54.896 68.249-54.896 114.459 0 81.034 65.927 146.961 146.962 146.961 24.691 0 47.975-6.13 68.423-16.935l31.625 31.625c8.529 8.529 19.734 12.794 30.938 12.794s22.409-4.265 30.939-12.794c17.057-17.06 17.057-44.818-.001-61.878zm-161.926-356.59c16.152 0 29.294 13.142 29.294 29.294s-13.142 29.294-29.294 29.294c-16.153 0-29.295-13.142-29.295-29.294s13.141-29.294 29.295-29.294zm0 81.192c30.051 0 57.08 18.381 68.483 45.629-20.463-10.824-43.767-16.966-68.483-16.966-24.717 0-48.022 6.143-68.486 16.967 11.398-27.243 38.431-45.63 68.486-45.63zm-124.962 175.625c0-68.904 56.058-124.962 124.962-124.962 68.903 0 124.961 56.058 124.961 124.962 0 68.903-56.058 124.961-124.961 124.961-68.905 0-124.962-56.058-124.962-124.961zm271.331 146.095c-8.48 8.482-22.282 8.482-30.765 0l-28.099-28.1c11.696-8.696 22.056-19.088 30.722-30.807l28.142 28.142c8.481 8.481 8.481 22.282 0 30.765z"/><path d="m337.269 211.38c-53.375 0-96.799 43.424-96.799 96.8 0 53.375 43.424 96.799 96.799 96.799s96.799-43.424 96.799-96.799c0-53.376-43.424-96.8-96.799-96.8zm0 171.599c-41.244 0-74.799-33.555-74.799-74.799 0-41.245 33.555-74.8 74.799-74.8s74.799 33.555 74.799 74.8c0 41.244-33.555 74.799-74.799 74.799z"/></g></g><g/><g/><g/><g/><g/><g/><g/><g/><g/><g/><g/><g/><g/><g/><g/></svg>