<svg id="Capa_1" enable-background="new 0 0 512 512" viewBox="0 0 512 512" xmlns="http://www.w3.org/2000/svg" fill="#052438"><g><g><path d="m256.001 114.876c-3.427 0-6.853-1.004-9.843-3.014-44.952-30.209-49.699-37.241-51.258-39.552-5.104-7.56-7.609-16.398-7.243-25.56.892-22.373 19.132-40.33 41.525-40.879 9.757-.238 19.142 2.811 26.818 8.65 7.683-5.845 17.077-8.9 26.841-8.65 22.18.557 40.402 18.341 41.484 40.488.442 9.038-1.917 17.801-6.823 25.342-1.556 2.392-6.292 9.674-51.66 40.16-2.988 2.01-6.415 3.015-9.841 3.015zm-42.912-54.941c2.454 3.146 16.865 14.433 42.911 32.031 26.169-17.684 40.645-29.1 43.108-32.333 2.335-3.624 3.456-7.839 3.243-12.198-.523-10.704-9.335-19.3-20.063-19.569-5.353-.14-10.463 1.771-14.408 5.365-6.773 6.173-16.991 6.172-23.763-.001-3.94-3.59-9.055-5.505-14.396-5.364-10.83.266-19.651 8.947-20.083 19.763-.175 4.418 1.018 8.672 3.451 12.306z" fill="#0496FF"/></g><path d="m481 422.762h-4.421v-171.737c0-17.093-13.907-31-31-31h-56.729c-17.093 0-31 13.907-31 31v171.736h-42.485v-228.606c0-17.093-13.907-31-31-31h-56.729c-17.093 0-31 13.907-31 31v228.607h-42.486v-124.345c0-17.093-13.907-31-31-31h-56.729c-17.093 0-31 13.907-31 31v124.344h-4.421c-17.093 0-31 13.907-31 31v21.381c0 17.093 13.907 31 31 31h450c17.093 0 31-13.907 31-31v-21.381c0-17.093-13.907-30.999-31-30.999zm-101.15-171.737c0-4.962 4.038-9 9-9h56.729c4.962 0 9 4.038 9 9v171.736h-74.729zm-161.215-56.87c0-4.962 4.038-9 9-9h56.729c4.962 0 9 4.038 9 9v228.607h-74.729zm-161.214 104.262c0-4.962 4.038-9 9-9h56.729c4.962 0 9 4.038 9 9v124.344h-74.729zm432.579 176.725c0 4.963-4.038 9-9 9h-450c-4.962 0-9-4.037-9-9v-21.381c0-4.963 4.038-9 9-9h450c4.962 0 9 4.037 9 9z"/></g><g/><g/><g/><g/><g/><g/><g/><g/><g/><g/><g/><g/><g/><g/><g/></svg>