<svg id="Capa_1" enable-background="new 0 0 512 512" viewBox="0 0 512 512" xmlns="http://www.w3.org/2000/svg" fill="#052438"><g><g><path d="m417.079 382.308-17.614-20.731c3.622-5.769 6.955-11.732 9.951-17.81 2.686-5.449.447-12.044-5.002-14.73-5.45-2.688-12.044-.448-14.73 5.003-3.771 7.648-8.143 15.097-12.995 22.137-2.822 4.096-2.545 9.574.675 13.364l16.383 19.283-29.923 29.923-19.285-16.385c-3.789-3.221-9.268-3.495-13.363-.676-20.61 14.199-43.486 23.683-67.993 28.188-4.892.898-8.572 4.97-8.975 9.927l-2.048 25.199h-42.317l-2.048-25.191c-.403-4.957-4.082-9.027-8.974-9.927-24.522-4.511-47.399-13.996-67.997-28.192-4.094-2.82-9.573-2.544-13.364.675l-19.283 16.383-29.923-29.923 16.385-19.285c3.22-3.789 3.497-9.268.676-13.362-14.199-20.61-23.683-43.486-28.188-67.994-.899-4.892-4.97-8.571-9.927-8.975l-25.2-2.051v-42.317l25.192-2.048c4.957-.403 9.027-4.082 9.927-8.974 4.51-24.521 13.996-47.398 28.192-67.997 2.822-4.095 2.546-9.574-.674-13.364l-16.383-19.283 29.923-29.922 19.285 16.385c3.789 3.22 9.267 3.496 13.363.676 20.609-14.198 43.486-23.683 67.994-28.188 4.892-.899 8.571-4.97 8.975-9.927l2.047-25.199h42.317l2.049 25.198c.403 4.957 4.083 9.027 8.975 9.927 24.52 4.508 47.396 13.991 67.996 28.185 4.094 2.821 9.574 2.545 13.364-.675l19.281-16.383 29.923 29.923-16.38 19.281c-3.22 3.79-3.497 9.269-.675 13.363 4.741 6.881 9.027 14.156 12.74 21.625 2.705 5.44 9.307 7.656 14.746 4.954 5.44-2.704 7.658-9.307 4.954-14.747-2.921-5.876-6.157-11.646-9.664-17.23l17.612-20.73c3.71-4.366 3.447-10.849-.604-14.9l-44.266-44.266c-4.052-4.051-10.533-4.313-14.901-.604l-20.727 17.61c-18.901-11.889-39.396-20.385-61.114-25.333l-2.202-27.089c-.465-5.71-5.235-10.109-10.965-10.109h-62.601c-5.729 0-10.5 4.398-10.964 10.108l-2.202 27.089c-21.711 4.948-42.202 13.444-61.11 25.337l-20.731-17.613c-4.367-3.712-10.85-3.447-14.9.604l-44.266 44.265c-4.052 4.052-4.315 10.534-.605 14.9l17.61 20.728c-11.892 18.902-20.389 39.396-25.34 61.115l-27.083 2.202c-5.71.464-10.108 5.235-10.108 10.964v62.601c0 5.729 4.398 10.499 10.108 10.964l27.089 2.203c4.948 21.71 13.443 42.201 25.336 61.11l-17.613 20.73c-3.71 4.366-3.447 10.849.604 14.9l44.266 44.266c4.051 4.051 10.534 4.313 14.9.604l20.728-17.61c18.901 11.892 39.395 20.389 61.115 25.341l2.202 27.082c.464 5.71 5.234 10.108 10.964 10.108h62.601c5.729 0 10.5-4.398 10.964-10.108l2.202-27.089c21.71-4.947 42.201-13.443 61.11-25.336l20.731 17.612c4.368 3.712 10.85 3.447 14.9-.604l44.266-44.266c4.053-4.051 4.316-10.533.606-14.899z"/><path d="m231 137c35.504 0 68.875 15.666 91.555 42.982 3.881 4.675 10.816 5.316 15.49 1.436 4.674-3.881 5.317-10.815 1.436-15.49-26.874-32.365-66.413-50.928-108.481-50.928-77.748 0-141 63.252-141 141 0 77.747 63.252 140.999 141 140.999 42.288 0 81.959-18.722 108.843-51.365 3.862-4.689 3.191-11.622-1.499-15.484-4.689-3.863-11.622-3.19-15.484 1.498-22.688 27.551-56.17 43.352-91.86 43.352-65.617 0-119-53.383-119-118.999 0-65.618 53.383-119.001 119-119.001z"/></g><g fill="#0496FF"><path d="m481 165h-185c-17.093 0-31 13.906-31 30.999v120.001c0 17.093 13.907 30.999 31 30.999h185c17.093 0 31-13.906 31-30.999v-120.001c0-17.093-13.907-30.999-31-30.999zm-185 22h185c4.962 0 9 4.037 9 8.999v12.552l-101.5 54.465-101.5-54.464v-12.552c0-4.963 4.037-9 9-9zm185 137.999h-185c-4.962 0-9-4.037-9-8.999v-82.482l96.299 51.675c3.248 1.744 7.154 1.744 10.402 0l96.299-51.675v82.482c0 4.962-4.038 8.999-9 8.999z"/><path d="m231 289.999h-20c-6.075 0-11 4.925-11 11s4.925 11 11 11h20c6.075 0 11-4.925 11-11s-4.925-11-11-11z"/><path d="m231 245h-35c-6.075 0-11 4.925-11 11s4.925 11 11 11h35c6.075 0 11-4.925 11-11s-4.925-11-11-11z"/><path d="m231 200h-50c-6.075 0-11 4.925-11 11s4.925 11 11 11h50c6.075 0 11-4.925 11-11s-4.925-11-11-11z"/></g></g><g/><g/><g/><g/><g/><g/><g/><g/><g/><g/><g/><g/><g/><g/><g/></svg>