<svg id="Capa_1" enable-background="new 0 0 512 512" viewBox="0 0 512 512" xmlns="http://www.w3.org/2000/svg" fill="#052438"><g><g><path d="m56.008 92c6.075 0 11-4.925 11-11s-4.925-11-11-11h-.008c-6.075 0-10.996 4.925-10.996 11s4.929 11 11.004 11z"/><path d="m101.007 92c6.075 0 11-4.925 11-11s-4.925-11-11-11h-.007c-6.075 0-10.996 4.925-10.996 11s4.928 11 11.003 11z"/><path d="m146.007 92c6.075 0 11-4.925 11-11s-4.925-11-11-11h-.008c-6.075 0-10.996 4.925-10.996 11s4.929 11 11.004 11z"/><path d="m472 276.186v-240.186c0-6.075-4.925-11-11-11h-450c-6.075 0-11 4.925-11 11v360c0 6.075 4.925 11 11 11h266.15c16.834 46.602 61.515 80 113.85 80 66.72 0 121-54.28 121-121 0-35.598-15.452-67.654-40-89.814zm-81-31.186c-25.191 0-48.609 7.738-68.001 20.962v-173.962h127.001v168.383c-17.465-9.795-37.592-15.383-59-15.383zm59-198v23h-244.001c-3.395 0-6.599 1.567-8.683 4.247l-31.696 40.753h-143.62v-68zm-428 338v-248h149c3.395 0 6.599-1.567 8.683-4.247l31.696-40.753h89.62v193.206c-19.264 21.438-30.999 49.771-30.999 80.794 0 6.463.51 12.809 1.49 19zm369 80c-54.589 0-99-44.411-99-99s44.411-99 99-99 99 44.411 99 99-44.411 99-99 99z"/></g><g fill="#0496FF"><path d="m197.771 195.079c-2.671-2.085-6.152-2.824-9.438-2.001l-78.688 19.671h-23.645c-19.851 0-36 16.15-36 36s16.149 36 36 36h14v29c0 6.075 4.925 11 11 11s11-4.925 11-11v-25.912l66.332 16.583c.882.221 1.777.329 2.668.329 2.428 0 4.816-.804 6.77-2.33 2.67-2.084 4.23-5.283 4.23-8.67l.001-90c0-3.386-1.561-6.585-4.23-8.67zm-125.771 53.671c0-7.72 6.28-14 14-14h14v28h-14c-7.72 0-14-6.281-14-14zm108 30.912-58-14.5v-32.823l58.001-14.5z"/><path d="m262 237.75h-21c-6.075 0-11 4.925-11 11s4.925 11 11 11h21c6.075 0 11-4.925 11-11s-4.925-11-11-11z"/><path d="m231.011 219.752c1.865 0 3.757-.476 5.489-1.476l18.188-10.5c5.261-3.038 7.063-9.765 4.026-15.026-3.036-5.26-9.762-7.066-15.026-4.026l-18.188 10.5c-5.261 3.038-7.063 9.765-4.026 15.026 2.037 3.529 5.734 5.502 9.537 5.502z"/><path d="m254.688 289.724-18.188-10.5c-5.261-3.037-11.989-1.234-15.026 4.026-3.037 5.262-1.234 11.989 4.026 15.026l18.188 10.5c1.732 1 3.623 1.476 5.489 1.476 3.802 0 7.5-1.973 9.537-5.502 3.037-5.261 1.234-11.989-4.026-15.026z"/><path d="m427.062 386.505-25.062-25.061v-60.444c0-6.075-4.925-11-11-11s-11 4.925-11 11v65c0 2.917 1.159 5.715 3.222 7.778l28.283 28.284c2.148 2.148 4.963 3.222 7.778 3.222 2.814 0 5.631-1.074 7.778-3.222 4.296-4.296 4.296-11.261.001-15.557z"/></g></g><g/><g/><g/><g/><g/><g/><g/><g/><g/><g/><g/><g/><g/><g/><g/></svg>