<svg id="Capa_1" enable-background="new 0 0 512 512" viewBox="0 0 512 512" xmlns="http://www.w3.org/2000/svg" fill="#052438"><g><g fill="#0496FF"><path d="m361.086 316.692-45.862-45.228c-.056-.056-.112-.111-.169-.166-30.608-29.371-66.083-52.288-105.44-68.117-39.356-15.828-80.82-23.854-123.241-23.854h-16.325v22h16.325c39.595 0 78.298 7.491 115.033 22.265 36.699 14.76 69.781 36.123 98.331 63.498l29.549 29.601h31.799z"/><path d="m276.416 160.152h127.283c6.075 0 11-4.925 11-11s-4.925-11-11-11h-127.283c-6.075 0-11 4.925-11 11s4.925 11 11 11z"/><path d="m403.699 183.824h-112.699c-6.075 0-11 4.925-11 11s4.925 11 11 11h112.699c6.075 0 11-4.925 11-11s-4.925-11-11-11z"/><path d="m403.699 229.496h-48.593c-6.075 0-11 4.925-11 11s4.925 11 11 11h48.593c6.075 0 11-4.925 11-11s-4.925-11-11-11z"/><path d="m167.851 254.459h-45.672c-6.075 0-11 4.925-11 11s4.925 11 11 11h45.672c6.075 0 11-4.925 11-11s-4.925-11-11-11z"/></g><path d="m474.283 22.769c-15.155 0-28.243 8.99-34.233 21.912h-368.1c-5.99-12.922-19.078-21.912-34.234-21.912-20.796 0-37.716 16.92-37.716 37.718v407.785c0 11.557 9.402 20.959 20.96 20.959h33.515c11.558 0 20.96-9.402 20.96-20.959v-132.297h361.132v132.296c0 11.557 9.402 20.959 20.959 20.959h33.516c11.557 0 20.959-9.402 20.959-20.959v-407.784c-.001-20.798-16.921-37.718-37.718-37.718zm-420.848 444.462h-31.435v-406.744c0-8.667 7.051-15.717 15.717-15.717 8.667 0 15.718 7.051 15.718 15.717zm22-153.256v-247.294h361.132v247.294zm414.565 153.256h-31.434v-406.744c0-8.667 7.051-15.717 15.717-15.717s15.717 7.05 15.717 15.717z"/></g><g/><g/><g/><g/><g/><g/><g/><g/><g/><g/><g/><g/><g/><g/><g/></svg>