<svg id="Layer_1" enable-background="new 0 0 512 512" viewBox="0 0 512 512" xmlns="http://www.w3.org/2000/svg" fill="#052438"><g><g fill="#0496FF"><path d="m92.377 209.053c-23.665 0-42.918 19.263-42.918 42.94s19.253 42.94 42.918 42.94 42.918-19.263 42.918-42.94-19.253-42.94-42.918-42.94zm0 63.881c-11.534 0-20.918-9.394-20.918-20.94s9.384-20.94 20.918-20.94 20.918 9.394 20.918 20.94-9.384 20.94-20.918 20.94z"/><path d="m178.577 223.787-3.28-1.191c-.981-2.753-2.102-5.458-3.356-8.101l1.483-3.172c1.958-4.191 1.085-9.16-2.186-12.433l-25.25-25.267c-3.273-3.276-8.248-4.15-12.443-2.188l-3.16 1.479c-2.638-1.253-5.337-2.373-8.086-3.354l-1.19-3.286c-1.577-4.353-5.712-7.252-10.342-7.252h-35.707c-4.63 0-8.764 2.898-10.342 7.251l-1.191 3.287c-2.749.981-5.448 2.101-8.087 3.354l-3.16-1.479c-4.195-1.963-9.169-1.087-12.444 2.188l-25.25 25.267c-3.271 3.273-4.144 8.243-2.184 12.435l1.483 3.171c-1.254 2.642-2.374 5.346-3.356 8.1l-3.281 1.19c-4.352 1.579-7.248 5.712-7.248 10.34v35.733c0 4.628 2.896 8.761 7.247 10.34l3.281 1.19c.981 2.753 2.103 5.458 3.356 8.1l-1.483 3.171c-1.96 4.191-1.087 9.162 2.184 12.435l25.249 25.267c3.274 3.276 8.247 4.15 12.444 2.188l3.161-1.48c2.639 1.253 5.338 2.374 8.087 3.354l1.191 3.287c1.578 4.353 5.712 7.251 10.342 7.251h35.707c4.63 0 8.765-2.899 10.342-7.252l1.19-3.286c2.748-.981 5.448-2.101 8.086-3.354l3.159 1.479c4.194 1.964 9.172 1.09 12.445-2.187l25.25-25.267c3.27-3.272 4.143-8.241 2.185-12.433l-1.483-3.172c1.255-2.643 2.375-5.348 3.356-8.101l3.28-1.191c4.351-1.579 7.247-5.712 7.247-10.34v-35.732c.001-4.627-2.895-8.76-7.246-10.339zm-14.753 38.363-1.108.402c-3.327 1.208-5.869 3.941-6.832 7.347-1.375 4.862-3.325 9.571-5.797 13.996-1.725 3.088-1.859 6.817-.362 10.021l.505 1.081-14.348 14.357-1.065-.499c-3.21-1.502-6.945-1.367-10.035.363-4.418 2.472-9.122 4.423-13.982 5.8-3.404.964-6.138 3.508-7.344 6.835l-.402 1.11h-20.28l-.402-1.11c-1.206-3.327-3.939-5.87-7.344-6.834-4.861-1.377-9.565-3.329-13.981-5.8-3.092-1.73-6.827-1.865-10.035-.364l-1.068.5-14.346-14.356.505-1.08c1.498-3.206 1.363-6.937-.362-10.025-2.471-4.42-4.421-9.129-5.799-13.996-.963-3.405-3.506-6.138-6.831-7.345l-1.111-.403v-20.313l1.108-.402c3.325-1.207 5.868-3.94 6.831-7.345 1.378-4.868 3.328-9.576 5.798-13.995 1.727-3.089 1.862-6.82.363-10.026l-.505-1.08 14.347-14.356 1.067.5c3.208 1.501 6.943 1.366 10.035-.364 4.416-2.472 9.12-4.423 13.981-5.8 3.404-.964 6.138-3.508 7.344-6.834l.402-1.11h20.28l.402 1.11c1.206 3.327 3.939 5.871 7.344 6.835 4.86 1.376 9.564 3.328 13.982 5.8 3.09 1.73 6.826 1.865 10.034.364l1.066-.5 14.348 14.357-.505 1.08c-1.497 3.205-1.362 6.934.362 10.021 2.472 4.425 4.422 9.134 5.797 13.996.963 3.405 3.505 6.139 6.832 7.347l1.108.402v20.313z"/></g><g><path d="m304.848 192.872c32.896 0 59.659-26.778 59.659-59.693s-26.763-59.693-59.659-59.693-59.659 26.778-59.659 59.693 26.762 59.693 59.659 59.693zm0-97.387c20.766 0 37.659 16.909 37.659 37.693s-16.894 37.693-37.659 37.693-37.659-16.909-37.659-37.693 16.893-37.693 37.659-37.693z"/><path d="m189.329 167.386 6.035 2.19c1.584 4.67 3.478 9.24 5.661 13.666l-2.725 5.829c-1.96 4.191-1.087 9.161 2.184 12.434l33.729 33.753c3.275 3.276 8.248 4.152 12.444 2.188l5.816-2.722c4.421 2.185 8.984 4.077 13.649 5.662l2.189 6.042c1.578 4.353 5.712 7.251 10.342 7.251h47.699c4.63 0 8.765-2.899 10.342-7.252l2.189-6.041c4.665-1.584 9.228-3.477 13.648-5.661l5.815 2.722c4.195 1.963 9.169 1.089 12.444-2.188l33.729-33.752c3.27-3.272 4.143-8.241 2.185-12.433l-2.725-5.83c2.184-4.426 4.076-8.996 5.661-13.667l6.035-2.19c4.351-1.579 7.247-5.712 7.247-10.34v-47.733c0-4.628-2.896-8.761-7.247-10.34l-6.035-2.19c-1.584-4.672-3.478-9.241-5.661-13.667l2.725-5.829c1.958-4.191 1.085-9.16-2.185-12.433l-33.725-33.755c-3.275-3.276-8.252-4.15-12.444-2.188l-5.815 2.722c-4.421-2.185-8.983-4.077-13.648-5.662l-2.189-6.041c-1.577-4.353-5.712-7.252-10.342-7.252h-47.699c-4.63 0-8.764 2.899-10.342 7.251l-2.189 6.042c-4.665 1.584-9.229 3.477-13.649 5.662l-5.815-2.722c-4.194-1.963-9.171-1.089-12.443 2.188l-33.731 33.753c-3.271 3.273-4.144 8.243-2.184 12.434l2.725 5.828c-2.185 4.427-4.077 8.995-5.661 13.667l-6.034 2.189c-4.351 1.579-7.248 5.712-7.248 10.34v47.734c-.004 4.629 2.893 8.762 7.243 10.341zm14.753-50.365 3.913-1.42c3.326-1.207 5.869-3.94 6.832-7.345 1.918-6.777 4.635-13.335 8.076-19.492 1.726-3.089 1.86-6.82.362-10.025l-1.771-3.787 22.827-22.843 3.772 1.766c3.208 1.501 6.943 1.366 10.035-.364 6.152-3.443 12.705-6.161 19.474-8.078 3.405-.964 6.139-3.508 7.345-6.835l1.42-3.918h32.272l1.42 3.917c1.206 3.327 3.938 5.871 7.344 6.835 6.771 1.918 13.322 4.636 19.475 8.079 3.092 1.73 6.827 1.864 10.035.364l3.772-1.766 22.827 22.843-1.771 3.788c-1.497 3.205-1.362 6.935.363 10.023 3.439 6.156 6.156 12.714 8.073 19.492.964 3.405 3.506 6.139 6.832 7.346l3.915 1.42v32.314l-3.915 1.421c-3.326 1.207-5.868 3.94-6.832 7.345-1.917 6.778-4.634 13.336-8.073 19.492-1.726 3.088-1.86 6.818-.363 10.023l1.771 3.789-22.827 22.843-3.772-1.766c-3.208-1.501-6.943-1.366-10.034.363-6.153 3.443-12.705 6.161-19.476 8.079-3.405.964-6.138 3.508-7.344 6.836l-1.42 3.917h-32.272l-1.42-3.918c-1.206-3.327-3.939-5.871-7.344-6.835-6.77-1.917-13.322-4.636-19.476-8.079-3.09-1.729-6.826-1.865-10.034-.363l-3.773 1.766-22.826-22.843 1.771-3.788c1.498-3.206 1.363-6.936-.362-10.025-3.441-6.158-6.158-12.715-8.076-19.492-.963-3.404-3.505-6.138-6.831-7.345l-3.914-1.421z"/><path d="m501 356.995h-101.011c-5.797 0-10.546 4.484-10.969 10.173h-18.825l-17.788-20.87c-8.078-9.477-19.851-14.913-32.299-14.913l-109.59.001c-18.436 0-33.435 15.006-33.435 33.458 0 18.441 14.993 33.444 33.422 33.444h56.752c5.476 0 9.931 4.463 9.931 9.958 0 5.491-4.461 9.959-9.944 9.959h-78.875l-57.865-53.381c-13.815-12.746-35.047-12.315-48.332.979l-.442.443c-6.978 6.982-10.71 16.24-10.511 26.068.198 9.787 4.271 18.832 11.466 25.471l77.448 71.463c7.038 6.494 16.189 10.07 25.768 10.07h133.967c11.351 0 22.018-4.426 30.038-12.461l18.061-18.098h21.054c.423 5.689 5.172 10.173 10.969 10.173h101.01c6.075 0 11-4.925 11-11v-99.939c0-6.074-4.925-10.998-11-10.998zm-137.597 89.766c-2.921 0-5.723 1.162-7.786 3.229l-21.284 21.327c-3.863 3.871-9 6.002-14.466 6.002h-133.967c-4.033 0-7.887-1.505-10.849-4.239l-77.449-71.464c-2.754-2.541-4.313-6.003-4.389-9.748-.077-3.787 1.371-7.364 4.074-10.068l.443-.444c4.908-4.913 12.751-5.07 17.854-.363l61.025 56.296c2.032 1.875 4.695 2.915 7.459 2.915h83.174c17.614 0 31.944-14.337 31.944-31.969 0-17.617-14.324-31.949-31.931-31.949h-56.752c-6.298 0-11.422-5.134-11.422-11.451 0-6.314 5.13-11.451 11.435-11.451l109.59-.001c5.994 0 11.665 2.619 15.556 7.184l21.081 24.734c2.09 2.452 5.15 3.865 8.372 3.865h23.872v57.593h-25.584zm126.597 10.173h-79.011v-77.939h79.011z"/><path d="m450.49 438.48c4.695 0 8.959-3.106 10.443-7.546 1.386-4.146.096-8.843-3.185-11.727-3.609-3.173-8.984-3.575-13.059-1.068-4.068 2.502-6.064 7.584-4.817 12.187 1.284 4.739 5.696 8.154 10.618 8.154z"/></g></g><g/><g/><g/><g/><g/><g/><g/><g/><g/><g/><g/><g/><g/><g/><g/></svg>