<svg id="Capa_1" enable-background="new 0 0 511.999 511.999" viewBox="0 0 511.999 511.999" xmlns="http://www.w3.org/2000/svg" fill="#E6ECF2"><g><g><path d="m400.999 205.069c-6.075 0-11 4.925-11 11v59c0 6.075 4.925 11 11 11s11-4.925 11-11v-59c0-6.075-4.925-11-11-11z"/><path d="m370.999 0h-229.999c-22.607 0-41 18.393-41 41v107.075c-48.704 11.733-85 55.67-85 107.925 0 52.254 36.296 96.191 85 107.924v107.075c0 22.607 18.392 41 41 41h230c22.607 0 41-18.393 41-41v-124.93c0-6.075-4.925-11-11-11s-11 4.925-11 11v124.93c0 10.477-8.523 19-19 19h-230c-10.477 0-19-8.523-19-19v-104.072c1.328.047 2.661.072 4 .072 61.206 0 111-49.794 111-110.999 0-61.206-49.794-111-111-111-1.339 0-2.672.024-4 .072v-104.072c0-10.477 8.523-19 19-19h39.572l12.492 37.479c1.497 4.491 5.701 7.521 10.436 7.521h105c4.734 0 8.938-3.029 10.436-7.521l12.492-37.479h39.571c10.477 0 19 8.523 19 19v104.069c0 6.075 4.925 11 11 11s11-4.925 11-11v-104.069c0-22.607-18.393-41-41-41zm-155.999 256c0 49.074-39.925 88.999-89 88.999s-89-39.925-89-88.999c0-49.075 39.925-89 89-89s89 39.925 89 89zm85.571-211h-89.144l-7.666-23h104.477z"/><path d="m245.999 444.999c-6.075 0-11 4.925-11 11s4.925 11 11 11h20c6.075 0 11-4.925 11-11s-4.925-11-11-11z"/></g><g fill="#0496FF"><path d="m165.628 201.66c-4.554 0-8.462 2.768-10.133 6.713-8.771-5.455-18.909-8.373-29.495-8.373-19.943 0-38.526 10.729-48.498 28-3.038 5.262-1.235 11.989 4.026 15.026 1.732 1 3.624 1.476 5.49 1.476 3.801 0 7.5-1.974 9.537-5.502 6.054-10.486 17.336-17 29.445-17 4.583 0 9.028.901 13.132 2.619-3.833 1.719-6.503 5.568-6.503 10.042 0 6.075 4.925 11 11 11h22c6.075 0 11-4.925 11-11v-22c-.001-6.076-4.925-11.001-11.001-11.001z"/><path d="m170.471 268.974c-5.26-3.036-11.988-1.235-15.026 4.026-6.054 10.486-17.337 17-29.445 17-4.583 0-9.027-.901-13.132-2.62 3.833-1.719 6.504-5.568 6.504-10.042 0-6.075-4.925-11-11-11h-22c-6.075 0-11 4.925-11 11v22c0 6.075 4.925 11 11 11 4.554 0 8.462-2.768 10.133-6.713 8.771 5.457 18.909 8.375 29.495 8.375 19.943 0 38.526-10.729 48.498-28 3.037-5.261 1.234-11.988-4.027-15.026z"/><path d="m309.215 222.069h5.443l17.638 17.639c2.062 2.062 4.86 3.222 7.778 3.222 2.917 0 5.716-1.159 7.778-3.222l17.639-17.639h90.008c22.883 0 41.5-18.617 41.5-41.5s-18.617-41.5-41.5-41.5h-146.284c-22.883 0-41.5 18.617-41.5 41.5s18.617 41.5 41.5 41.5zm0-61h146.284c10.752 0 19.5 8.748 19.5 19.5s-8.748 19.5-19.5 19.5h-94.564c-2.917 0-5.715 1.159-7.778 3.222l-13.082 13.082-13.081-13.082c-2.062-2.062-4.861-3.222-7.778-3.222h-10c-10.752 0-19.5-8.748-19.5-19.5s8.747-19.5 19.499-19.5z"/><path d="m455.499 269.069h-146.284c-22.883 0-41.5 18.617-41.5 41.5s18.617 41.5 41.5 41.5h5.443l17.638 17.639c2.062 2.062 4.86 3.222 7.778 3.222 2.917 0 5.716-1.159 7.778-3.222l17.639-17.639h90.008c22.883 0 41.5-18.617 41.5-41.5s-18.617-41.5-41.5-41.5zm0 61h-94.564c-2.917 0-5.715 1.159-7.778 3.222l-13.082 13.082-13.081-13.082c-2.062-2.062-4.861-3.222-7.778-3.222h-10c-10.752 0-19.5-8.748-19.5-19.5s8.748-19.5 19.5-19.5h146.284c10.752 0 19.5 8.748 19.5 19.5s-8.749 19.5-19.501 19.5z"/></g></g><g/><g/><g/><g/><g/><g/><g/><g/><g/><g/><g/><g/><g/><g/><g/></svg>