<svg id="Capa_1" enable-background="new 0 0 512 512" viewBox="0 0 512 512" xmlns="http://www.w3.org/2000/svg" fill="#052438"><g><g><path d="m501 435.001h-8v-261.958c11.991-17.724 19-39.08 19-62.043 0-61.206-49.794-111-111-111-54.029 0-99.166 38.801-109.008 90.002h-241.992c-17.093 0-31 13.906-31 31v313.999h-8c-6.075 0-11 4.925-11 11v35c0 17.093 13.907 30.999 31 30.999h450c17.093 0 31-13.906 31-30.999v-35c0-6.075-4.925-11-11-11zm-151.206-225.501c15.752 8.197 33.301 12.5 51.206 12.5 26.515 0 50.889-9.345 70-24.915v192.914h-121.206zm51.206-187.5c49.075 0 89 39.925 89 89s-39.925 89-89 89c-16.445 0-32.509-4.521-46.455-13.074-1.747-1.071-3.739-1.623-5.751-1.623-.954 0-1.912.124-2.851.376-8.939 2.398-17.879 4.797-26.82 7.193 2.397-8.944 4.795-17.883 7.194-26.821.783-2.917.332-6.027-1.247-8.602-8.55-13.942-13.07-30.005-13.07-46.449 0-49.075 39.925-89 89-89zm-351 90.002h240.005c.166 18.538 4.942 36.664 13.876 52.775-2.485 9.264-4.971 18.53-7.458 27.814-1.759 6.6.095 13.4 4.958 18.193 4.786 4.716 11.751 6.527 18.199 4.741 2.738-.734 5.476-1.468 8.214-2.202v176.675h-286.794v-268.996c0-4.963 4.038-9 9-9zm-9 299.997h430v23.002h-155c-2.917 0-5.715 1.159-7.778 3.222l-6.778 6.778h-90.888l-6.778-6.778c-2.063-2.062-4.861-3.222-7.778-3.222h-155zm449 69.002c0 4.962-4.038 8.999-9 8.999h-450c-4.962 0-9-4.037-9-8.999v-24h169.443l6.778 6.778c2.063 2.062 4.861 3.222 7.778 3.222h100c2.917 0 5.715-1.159 7.778-3.222l6.778-6.778h169.445z"/><path d="m84.499 322h199.796c6.075 0 11-4.925 11-11s-4.925-11-11-11h-199.796c-6.075 0-11 4.925-11 11s4.925 11 11 11z"/><path d="m84.499 366.999h99.898c6.075 0 11-4.925 11-11s-4.925-11-11-11h-99.898c-6.075 0-11 4.925-11 11s4.925 11 11 11z"/></g><g fill="#0496FF"><path d="m251.167 142.329c-2.669-2.084-6.15-2.819-9.438-2.002l-78.687 19.673h-23.646c-19.851 0-36 16.149-36 36s16.149 36 36 36h14v29c0 6.075 4.925 11 11 11s11-4.925 11-11v-25.912l66.333 16.584c3.26.818 6.765.09 9.438-2.002 2.67-2.084 4.23-5.282 4.23-8.67v-90.001c0-3.388-1.561-6.586-4.23-8.67zm-111.771 67.671c-7.72 0-14-6.28-14-14s6.28-14 14-14h14v28zm94.001 16.911-58-14.501v-32.822l58-14.501z"/><path d="m441.672 72.606c-12.104-9.289-27.996-9.975-40.672-2.56-12.674-7.414-28.568-6.729-40.672 2.56-13.347 10.241-20.674 31.213-6.954 54.977 10.886 18.854 32.336 35.708 44.779 39.042 1.865.5 3.829.5 5.693 0 12.443-3.334 33.893-20.188 44.779-39.042 13.721-23.764 6.394-44.735-6.953-54.977zm-12.099 43.977c-7.394 12.807-21.164 23.91-28.573 27.636-7.409-3.726-21.179-14.829-28.573-27.636-6.396-11.078-5.913-20.993 1.293-26.523 2.39-1.833 5.567-3.036 8.943-3.036 3.529 0 7.274 1.315 10.558 4.6 4.296 4.295 11.261 4.295 15.557 0 6.425-6.424 14.613-5.313 19.501-1.563 7.206 5.529 7.69 15.444 1.294 26.522z"/></g></g><g/><g/><g/><g/><g/><g/><g/><g/><g/><g/><g/><g/><g/><g/><g/></svg>