<svg id="Capa_1" enable-background="new 0 0 512 512" viewBox="0 0 512 512" xmlns="http://www.w3.org/2000/svg" fill="#E6ECF2"><g><path d="m426.136 313.792h-159.136v-38.673c71.058-5.609 127.159-65.062 127.159-137.342 0-75.97-61.977-137.777-138.159-137.777s-138.16 61.807-138.16 137.778c0 72.279 56.101 131.733 127.16 137.342v38.673h-159.136c-23.109 0-41.911 18.772-41.911 41.846v34.57c0 6.075 4.925 11 11 11s11-4.925 11-11v-34.57c0-10.943 8.932-19.846 19.911-19.846h159.136v55.448c0 6.075 4.925 11 11 11s11-4.925 11-11v-55.448h159.136c10.979 0 19.911 8.903 19.911 19.846v34.57c0 6.075 4.925 11 11 11s11-4.925 11-11v-34.57c0-23.075-18.801-41.847-41.911-41.847zm-286.296-176.014c0-63.84 52.109-115.778 116.16-115.778s116.159 51.938 116.159 115.778-52.108 115.778-116.159 115.778-116.16-51.938-116.16-115.778zm161.817-71.489c-6.075 0-11 4.925-11 11v1.99l-63.407 22.439h-34.599c-13.56 0-24.591 11.013-24.591 24.55v23.849c0 13.537 11.032 24.55 24.591 24.55h6.419v24.107c0 6.075 4.925 11 11 11s11-4.925 11-11v-24.107h6.18l63.407 22.44v2.396c0 6.075 4.925 11 11 11s11-4.925 11-11v-122.214c0-6.076-4.925-11-11-11zm-111.597 83.828v-23.849c0-1.406 1.163-2.55 2.591-2.55h25.487v28.949h-25.487c-1.428 0-2.591-1.144-2.591-2.55zm50.079 5.774v-35.397l50.519-17.878v71.155z"/><g fill="#0496FF"><path d="m24.893 149.396h40.857c6.075 0 11-4.925 11-11s-4.925-11-11-11h-40.857c-6.075 0-11 4.925-11 11s4.925 11 11 11z"/><path d="m67.037 177.863-23.546 23.56c-4.294 4.297-4.292 11.262.004 15.556 2.147 2.146 4.962 3.22 7.776 3.22 2.816 0 5.632-1.075 7.78-3.224l23.546-23.56c4.294-4.297 4.292-11.262-.004-15.556-4.296-4.295-11.261-4.294-15.556.004z"/><path d="m67.037 98.928c2.148 2.149 4.964 3.224 7.78 3.224 2.814 0 5.628-1.073 7.776-3.22 4.297-4.294 4.299-11.259.004-15.556l-23.546-23.559c-4.294-4.297-11.259-4.298-15.556-.004s-4.299 11.259-.004 15.556z"/><path d="m435.25 138.396c0 6.075 4.925 11 11 11h40.856c6.075 0 11-4.925 11-11s-4.925-11-11-11h-40.856c-6.075 0-11 4.924-11 11z"/><path d="m452.948 216.974c2.148 2.149 4.964 3.224 7.78 3.224 2.813 0 5.629-1.073 7.776-3.22 4.297-4.294 4.299-11.259.004-15.556l-23.546-23.56c-4.295-4.297-11.26-4.299-15.557-.004-4.297 4.294-4.299 11.259-.004 15.556z"/><path d="m437.183 102.152c2.816 0 5.632-1.075 7.78-3.224l23.546-23.559c4.295-4.297 4.293-11.262-.004-15.556-4.298-4.294-11.261-4.293-15.557.004l-23.546 23.559c-4.295 4.297-4.293 11.262.004 15.556 2.149 2.147 4.962 3.22 7.777 3.22z"/><path d="m286.451 454.01c7.596-7.723 12.293-18.307 12.293-29.971 0-23.579-19.175-42.762-42.744-42.762s-42.744 19.183-42.744 42.762c0 11.664 4.697 22.248 12.293 29.971-14.758 9.85-24.503 26.649-24.503 45.685v1.305c0 6.075 4.925 11 11 11h87.906c6.075 0 11-4.925 11-11v-1.306c.001-19.036-9.743-35.834-24.501-45.684zm-30.451-50.733c11.438 0 20.744 9.313 20.744 20.762s-9.306 20.762-20.744 20.762-20.744-9.314-20.744-20.762 9.306-20.762 20.744-20.762zm-31.496 86.723c4.147-13.42 16.672-23.199 31.437-23.199h.118c14.765 0 27.289 9.779 31.436 23.199z"/><path d="m487.498 454.01c7.596-7.723 12.293-18.307 12.293-29.971 0-23.579-19.175-42.762-42.744-42.762s-42.744 19.183-42.744 42.762c0 11.664 4.698 22.248 12.293 29.971-14.758 9.85-24.502 26.649-24.502 45.685v1.305c0 6.075 4.925 11 11 11h87.906c6.075 0 11-4.925 11-11v-1.306c0-19.036-9.744-35.834-24.502-45.684zm-30.451-50.733c11.438 0 20.744 9.313 20.744 20.762s-9.306 20.762-20.744 20.762-20.744-9.314-20.744-20.762 9.305-20.762 20.744-20.762zm-31.495 86.723c4.147-13.42 16.671-23.199 31.436-23.199h.119c14.765 0 27.288 9.779 31.436 23.199z"/><path d="m85.404 454.01c7.596-7.723 12.293-18.307 12.293-29.971 0-23.579-19.175-42.762-42.744-42.762s-42.744 19.183-42.744 42.762c0 11.664 4.698 22.248 12.293 29.971-14.758 9.85-24.502 26.648-24.502 45.684v1.306c0 6.075 4.925 11 11 11h87.906c6.075 0 11-4.925 11-11v-1.306c0-19.036-9.744-35.834-24.502-45.684zm-30.451-50.733c11.438 0 20.744 9.313 20.744 20.762s-9.306 20.762-20.744 20.762-20.744-9.314-20.744-20.762 9.306-20.762 20.744-20.762zm-31.495 86.723c4.147-13.42 16.672-23.199 31.437-23.199h.118c14.765 0 27.289 9.779 31.437 23.199z"/></g></g><g/><g/><g/><g/><g/><g/><g/><g/><g/><g/><g/><g/><g/><g/><g/></svg>