<svg id="Capa_1" enable-background="new 0 0 512 512" viewBox="0 0 512 512" xmlns="http://www.w3.org/2000/svg" fill="#E6ECF2"><g><g><path d="m471.488 429.818-13.914-10.235c.302-2.849.453-5.718.453-8.583s-.151-5.734-.453-8.583l13.914-10.235c4.516-3.322 5.812-9.507 3.009-14.361l-20-34.641c-2.804-4.855-8.807-6.824-13.94-4.575l-15.819 6.931c-4.648-3.398-9.62-6.273-14.871-8.601l-1.906-17.15c-.619-5.57-5.327-9.785-10.933-9.785h-9v-244c0-6.075-4.925-11-11-11h-64v-14c0-6.075-4.925-11-11-11h-50.498c-4.818-17.284-20.703-30-39.502-30s-34.683 12.716-39.501 30h-50.499c-6.075 0-11 4.925-11 11v14h-63.999c-6.075 0-11 4.925-11 11v390c0 6.075 4.925 11 11 11h245.706l6.824 11.82c2.803 4.854 8.808 6.822 13.94 4.575l15.818-6.931c4.648 3.398 9.619 6.273 14.872 8.602l1.906 17.149c.619 5.57 5.328 9.785 10.933 9.785h39.999c5.605 0 10.313-4.215 10.933-9.785l1.906-17.15c5.25-2.327 10.221-5.202 14.87-8.601l15.82 6.931c5.129 2.25 11.136.278 13.94-4.575l20-34.641c2.804-4.854 1.508-11.039-3.008-14.361zm-338.46-377.818h49.001c6.075 0 11-4.925 11-11 0-10.477 8.522-19 18.999-19s19 8.523 19 19c0 6.075 4.925 11 11 11h49v28h-158zm-74.999 393v-368h52.999v14c0 6.075 4.925 11 11 11h180c6.075 0 11-4.925 11-11v-14h53v232.999h-8.999c-5.604 0-10.313 4.215-10.933 9.785l-1.906 17.15c-5.25 2.327-10.221 5.201-14.87 8.601l-15.82-6.931c-5.131-2.25-11.137-.279-13.94 4.575l-20 34.641c-2.803 4.854-1.507 11.039 3.008 14.361l13.915 10.235c-.302 2.849-.453 5.718-.453 8.583 0 2.862.152 5.731.454 8.582l-13.916 10.237c-4.515 3.321-5.811 9.506-3.008 14.36l.474.82h-222.005zm376.896-45.406c.731 3.737 1.103 7.575 1.103 11.405s-.371 7.668-1.103 11.405c-.818 4.178.848 8.452 4.277 10.975l11.319 8.326-10.154 17.588-12.885-5.645c-3.902-1.712-8.442-1.013-11.651 1.792-5.822 5.086-12.457 8.924-19.721 11.405-4.032 1.377-6.906 4.959-7.377 9.194l-1.551 13.961h-20.308l-1.552-13.959c-.471-4.234-3.344-7.816-7.376-9.194-7.271-2.484-13.905-6.321-19.721-11.405-3.208-2.804-7.747-3.503-11.653-1.793l-12.884 5.645-10.154-17.588 11.321-8.328c3.428-2.521 5.094-6.795 4.277-10.972-.733-3.746-1.104-7.583-1.104-11.406 0-3.831.371-7.668 1.103-11.405.818-4.177-.848-8.451-4.276-10.975l-11.32-8.326 10.154-17.588 12.885 5.645c3.902 1.712 8.442 1.012 11.651-1.792 5.822-5.087 12.457-8.924 19.721-11.405 4.032-1.377 6.906-4.959 7.377-9.194l1.552-13.96h20.308l1.552 13.96c.471 4.235 3.345 7.817 7.377 9.194 7.267 2.482 13.901 6.319 19.719 11.404 3.21 2.806 7.75 3.502 11.653 1.793l12.885-5.645 10.154 17.588-11.319 8.326c-3.431 2.522-5.097 6.797-4.279 10.974z"/><path d="m212.028 305h-119.999c-6.075 0-11 4.925-11 11s4.925 11 11 11h119.999c6.075 0 11-4.925 11-11s-4.925-11-11-11z"/><path d="m212.028 350h-119.999c-6.075 0-11 4.925-11 11s4.925 11 11 11h119.999c6.075 0 11-4.925 11-11s-4.925-11-11-11z"/><path d="m152.029 395h-60c-6.075 0-11 4.925-11 11s4.925 11 11 11h60c6.075 0 11-4.925 11-11s-4.925-11-11-11z"/></g><g fill="#0496FF"><path d="m377.028 375c-19.85 0-35.999 16.149-35.999 36s16.149 36 35.999 36c19.851 0 36-16.149 36-36s-16.15-36-36-36zm0 50c-7.719 0-13.999-6.28-13.999-14s6.28-14 13.999-14c7.72 0 14 6.28 14 14s-6.281 14-14 14z"/><path d="m343.028 136c0-6.075-4.925-11-11-11h-45.77c-6.075 0-11 4.925-11 11v124h-29.346v-75.129c0-6.075-4.925-11-11-11h-45.769c-6.075 0-11 4.925-11 11v75.129h-29.347v-41.129c0-6.075-4.925-11-11-11h-45.767c-6.075 0-11 4.925-11 11v52.129c0 6.075 4.925 11 11 11h239.999c6.075 0 11-4.925 11-11zm-216.231 124h-23.769v-30.129h23.769zm73.347-64.128h23.769v64.128h-23.769zm120.884 64.128h-23.77v-113h23.77z"/></g></g><g/><g/><g/><g/><g/><g/><g/><g/><g/><g/><g/><g/><g/><g/><g/></svg>