<svg id="Layer_1" enable-background="new 0 0 512 512" viewBox="0 0 512 512" xmlns="http://www.w3.org/2000/svg" fill="#052438"><g><g><g><path d="m419.165 393.355c-2.617 0-5.215-.932-7.274-2.746l-9.353-8.24c-8.328 1.342-16.873 1.743-25.325 1.185-6.062-.4-4.622-22.346 1.45-21.952 8.319.55 16.737-.057 24.825-1.786 3.407-.729 6.958.2 9.572 2.503l7.415 6.533 30.674-17.905-2.059-9.666c-.728-3.416.211-6.975 2.528-9.588 8.047-9.076 14.292-19.932 18.058-31.393 1.089-3.315 3.687-5.917 7.001-7.012l9.374-3.095v-35.467l-9.374-3.095c-3.314-1.094-5.912-3.696-7.001-7.012-3.767-11.462-10.01-22.317-18.058-31.394-2.317-2.613-3.255-6.172-2.528-9.589l2.058-9.665-30.673-17.905-7.415 6.532c-2.615 2.303-6.167 3.229-9.572 2.503-7.83-1.674-15.979-2.297-24.031-1.835-6.077.347-7.322-21.617-1.257-21.964 8.122-.466 16.333-.044 24.338 1.246l9.352-8.239c3.557-3.135 8.722-3.637 12.817-1.246l44.402 25.919c4.1 2.394 6.202 7.147 5.213 11.792l-2.596 12.191c7.086 8.876 12.851 18.9 16.942 29.457l11.831 3.906c4.507 1.488 7.551 5.699 7.551 10.445v51.371c0 4.746-3.044 8.957-7.551 10.445l-11.831 3.907c-4.09 10.556-9.856 20.581-16.942 29.457l2.596 12.192c.989 4.644-1.113 9.397-5.213 11.791l-44.402 25.919c-1.723 1.006-3.638 1.5-5.542 1.5z" fill="#0496FF"/></g><g><path d="m384.656 333.008c-2.595 0-5.208-.166-7.766-.494-6.026-.772-3.232-22.599 2.796-21.821 1.635.209 3.307.315 4.97.315 21.286 0 38.603-17.293 38.603-38.549s-17.317-38.549-38.603-38.549c-1.856 0-3.718.132-5.532.392-6.018.861-9.132-20.917-3.118-21.778 2.844-.407 5.754-.613 8.65-.613 33.417 0 60.603 27.162 60.603 60.549s-27.187 60.548-60.603 60.548z" fill="#0496FF"/></g><g><path d="m346.024 100.796h-20.003c-6.075 0-11 4.925-11 11v18.996l-98.763 59.227h-130.574c-16.816 0-30.804 12.342-33.384 28.444h-15.71c-17.998 0-32.641 14.645-32.641 32.645v42.7c0 18 14.643 32.645 32.641 32.645h15.71c2.58 16.103 16.568 28.445 33.384 28.445h33.333v112.262c0 24.725 20.113 44.84 44.877 44.84 24.722 0 44.834-20.115 44.834-44.84v-47.315h8.087c6.075 0 11-4.925 11-11s-4.925-11-11-11h-8.087v-42.946h7.529l98.763 59.227v18.997c0 6.075 4.925 11 11 11h20.003c21.699 0 39.353-17.654 39.353-39.353v-264.62c0-21.7-17.653-39.354-39.352-39.354zm-294.151 203.658h-15.284c-5.867 0-10.641-4.775-10.641-10.645v-42.7c0-5.87 4.773-10.645 10.641-10.645h15.284zm134.856 162.706c0 12.594-10.243 22.84-22.877 22.84-12.591 0-22.834-10.246-22.834-22.84v-112.262h45.711zm21.574-134.262h-122.619c-6.513 0-11.811-5.3-11.811-11.815v-97.249c0-6.515 5.298-11.815 11.811-11.815h122.619zm106.718 55.575-84.718-50.804v-130.419l84.718-50.805zm48.355 16.296c0 9.568-7.784 17.353-17.353 17.353h-9.003v-299.326h9.003c9.568 0 17.353 7.784 17.353 17.353z"/><path d="m397.092 0c-6.075 0-11 4.925-11 11s4.925 11 11 11c49.052 0 88.959 39.858 88.959 88.851 0 6.075 4.925 11 11 11s11-4.925 11-11c0-61.123-49.776-110.851-110.959-110.851z"/><path d="m397.092 41.699c-6.075 0-11 4.925-11 11s4.925 11 11 11c26.035 0 47.215 21.152 47.215 47.152 0 6.075 4.925 11 11 11s11-4.925 11-11c.001-38.131-31.049-69.152-69.215-69.152z"/><path d="m397.092 83.397c-6.075 0-11 4.925-11 11s4.925 11 11 11c3.017 0 5.471 2.446 5.471 5.454 0 6.075 4.925 11 11 11s11-4.925 11-11c0-15.138-12.323-27.454-27.471-27.454z"/><path d="m121.174 261.687h39.829c6.075 0 11-4.925 11-11s-4.925-11-11-11h-39.829c-6.075 0-11 4.925-11 11s4.925 11 11 11z"/><path d="m121.174 305.231h39.829c6.075 0 11-4.925 11-11s-4.925-11-11-11h-39.829c-6.075 0-11 4.925-11 11s4.925 11 11 11z"/></g></g></g><g/><g/><g/><g/><g/><g/><g/><g/><g/><g/><g/><g/><g/><g/><g/></svg>