<svg id="Capa_1" enable-background="new 0 0 512 512" viewBox="0 0 512 512" xmlns="http://www.w3.org/2000/svg" fill="#052438"><g><g fill="#0496FF"><path d="m231.023 215.467c-4.296-4.296-11.261-4.296-15.557 0-4.295 4.296-4.295 11.261 0 15.557l65.51 65.51c2.148 2.148 4.963 3.222 7.778 3.222s5.63-1.074 7.778-3.222c4.296-4.296 4.296-11.261 0-15.557z"/><path d="m358.575 122.5h-101.575c-6.075 0-11 4.925-11 11s4.925 11 11 11h101.575c6.075 0 11-4.925 11-11s-4.925-11-11-11z"/><path d="m255 367.5h-101.236c-6.075 0-11 4.925-11 11s4.925 11 11 11h101.236c6.075 0 11-4.925 11-11s-4.925-11-11-11z"/><path d="m455.518 122.5h-14.229v-14.229c0-6.075-4.925-11-11-11s-11 4.925-11 11v14.229h-14.229c-6.075 0-11 4.925-11 11s4.925 11 11 11h14.229v14.229c0 6.075 4.925 11 11 11s11-4.925 11-11v-14.229h14.229c6.075 0 11-4.925 11-11s-4.925-11-11-11z"/><path d="m106.942 367.5h-14.23v-14.229c0-6.075-4.925-11-11-11s-11 4.925-11 11v14.229h-14.229c-6.075 0-11 4.925-11 11s4.925 11 11 11h14.229v14.229c0 6.075 4.925 11 11 11s11-4.925 11-11v-14.229h14.229c6.075 0 11-4.925 11-11s-4.924-11-10.999-11z"/></g><g><path d="m133.5 0c-73.612 0-133.5 59.888-133.5 133.5s59.888 133.5 133.5 133.5 133.5-59.888 133.5-133.5-59.888-133.5-133.5-133.5zm-51.389 232.429c.554-27.874 23.385-50.383 51.389-50.383s50.836 22.509 51.389 50.383c-15.387 8.025-32.866 12.571-51.389 12.571s-36.002-4.546-51.389-12.571zm17.311-106.462c0-18.791 15.288-34.078 34.078-34.078s34.078 15.287 34.078 34.078-15.288 34.078-34.078 34.078-34.078-15.287-34.078-34.078zm105.989 92.671c-4.369-21.226-17.935-39.126-36.326-49.363 12.505-10.293 20.494-25.885 20.494-43.308 0-30.921-25.157-56.078-56.078-56.078s-56.078 25.156-56.078 56.078c0 17.423 7.988 33.015 20.494 43.308-18.391 10.237-31.957 28.137-36.326 49.363-24.198-20.469-39.591-51.037-39.591-85.138 0-61.481 50.019-111.5 111.5-111.5s111.5 50.019 111.5 111.5c0 34.101-15.393 64.669-39.589 85.138z"/><path d="m378.5 245c-73.612 0-133.5 59.888-133.5 133.5s59.888 133.5 133.5 133.5 133.5-59.888 133.5-133.5-59.888-133.5-133.5-133.5zm-51.39 232.428c.554-27.874 23.385-50.383 51.39-50.383s50.836 22.509 51.39 50.383c-15.388 8.026-32.867 12.572-51.39 12.572s-36.002-4.546-51.39-12.572zm17.312-106.461c0-18.791 15.287-34.078 34.078-34.078s34.078 15.287 34.078 34.078-15.287 34.078-34.078 34.078-34.078-15.287-34.078-34.078zm105.989 92.671c-4.369-21.226-17.935-39.125-36.327-49.362 12.505-10.293 20.494-25.885 20.494-43.308 0-30.921-25.156-56.078-56.078-56.078s-56.078 25.156-56.078 56.078c0 17.423 7.988 33.015 20.494 43.308-18.391 10.237-31.958 28.136-36.327 49.362-24.196-20.469-39.589-51.037-39.589-85.138 0-61.481 50.019-111.5 111.5-111.5s111.5 50.019 111.5 111.5c0 34.101-15.393 64.669-39.589 85.138z"/><path d="m81.712 296.788c-45.056 0-81.712 36.656-81.712 81.712s36.656 81.712 81.712 81.712 81.712-36.656 81.712-81.712-36.655-81.712-81.712-81.712zm0 141.424c-32.925 0-59.712-26.786-59.712-59.712s26.787-59.712 59.712-59.712 59.712 26.787 59.712 59.712-26.786 59.712-59.712 59.712z"/><path d="m430.288 215.212c45.056 0 81.712-36.656 81.712-81.712s-36.656-81.712-81.712-81.712c-45.057 0-81.713 36.656-81.713 81.712s36.656 81.712 81.713 81.712zm0-141.424c32.925 0 59.712 26.787 59.712 59.712s-26.787 59.712-59.712 59.712c-32.926 0-59.713-26.787-59.713-59.712s26.787-59.712 59.713-59.712z"/></g></g><g/><g/><g/><g/><g/><g/><g/><g/><g/><g/><g/><g/><g/><g/><g/></svg>