<svg id="Capa_1" enable-background="new 0 0 512 512" viewBox="0 0 512 512" xmlns="http://www.w3.org/2000/svg" fill="#E6ECF2"><g><g><path d="m430.495 0h-149.44c-31.157 0-56.505 25.348-56.505 56.505v88.989c0 31.157 25.348 56.505 56.505 56.505h40.163l26.778 26.779c2.062 2.062 4.861 3.222 7.778 3.222s5.716-1.159 7.778-3.222l26.78-26.778h40.163c31.157 0 56.505-25.348 56.505-56.505v-88.99c0-31.157-25.348-56.505-56.505-56.505zm34.505 145.495c0 19.026-15.479 34.505-34.505 34.505h-44.72c-2.917 0-5.716 1.159-7.778 3.222l-22.222 22.222-22.222-22.222c-2.062-2.062-4.861-3.222-7.778-3.222h-44.72c-19.026 0-34.505-15.479-34.505-34.505v-88.99c0-19.026 15.479-34.505 34.505-34.505h149.439c19.027 0 34.506 15.479 34.506 34.505z"/><path d="m231 272.5c-6.075 0-11 4.925-11 11v49.572c-19.829-26.151-51.225-43.072-86.5-43.072-59.827 0-108.5 48.673-108.5 108.499v102.501c0 6.075 4.925 11 11 11h195c6.075 0 11-4.925 11-11v-217.5c0-6.076-4.925-11-11-11zm-59.75 217.5h-75.5v-28h75.5zm48.75 0h-26.75v-39c0-6.075-4.925-11-11-11h-97.5c-6.075 0-11 4.925-11 11v39h-26.75v-91.5c0-47.695 38.804-86.499 86.5-86.499s86.5 38.804 86.5 86.499z"/><path d="m95.504 390.001h-.007c-6.075 0-10.997 4.925-10.997 11s4.929 11 11.004 11 11-4.925 11-11-4.925-11-11-11z"/><path d="m171.504 390.001h-.007c-6.075 0-10.997 4.925-10.997 11s4.929 11 11.004 11 11-4.925 11-11-4.925-11-11-11z"/></g><g fill="#0496FF"><path d="m291.775 156c6.075 0 11-4.925 11-11v-22.001h22v22.001c0 6.075 4.925 11 11 11s11-4.925 11-11v-66c0-18.197-14.804-33-33-33s-33 14.804-33 33v66c0 6.075 4.925 11 11 11zm11-77c0-6.066 4.935-11 11-11s11 4.935 11 11v21.999h-22z"/><path d="m397.775 46h-22c-6.075 0-11 4.925-11 11v88c0 6.075 4.925 11 11 11h22c18.196 0 33-14.804 33-33v-44c0-18.196-14.804-33-33-33zm11 77c0 6.065-4.935 11-11 11h-11v-66h11c6.065 0 11 4.935 11 11z"/><path d="m361.207 269.732c-5.868 1.571-9.351 7.604-7.778 13.472 4.254 15.878-.324 32.962-11.947 44.585-6.678 6.678-15.042 11.058-24.132 12.742l2.603-2.603c4.296-4.296 4.296-11.261 0-15.557-4.297-4.295-11.26-4.295-15.557 0l-19.759 19.759c-4.296 4.296-4.296 11.261 0 15.557l19.759 19.76c2.148 2.147 4.963 3.222 7.778 3.222 2.814 0 5.63-1.074 7.778-3.222 4.148-4.148 4.29-10.785.427-15.104 13.818-2.342 26.547-8.885 36.658-18.996 17.162-17.163 23.922-42.389 17.641-65.835-1.571-5.869-7.599-9.356-13.471-7.78z"/><path d="m157.604 134.555c-4.296-4.296-11.262-4.296-15.556 0-4.148 4.148-4.291 10.785-.427 15.105-13.818 2.343-26.547 8.886-36.658 18.997-17.163 17.163-23.922 42.39-17.641 65.835 1.317 4.915 5.762 8.156 10.619 8.156.942 0 1.9-.122 2.854-.377 5.868-1.572 9.351-7.604 7.779-13.472-4.254-15.878.324-32.962 11.947-44.585 6.678-6.678 15.042-11.058 24.132-12.742l-2.604 2.604c-4.296 4.296-4.295 11.261 0 15.557 2.147 2.148 4.963 3.222 7.778 3.222s5.63-1.074 7.778-3.222l19.759-19.76c4.295-4.296 4.295-11.261 0-15.557z"/><path d="m231 222.5c-18.472 0-33.5 15.028-33.5 33.5s15.028 33.5 33.5 33.5 33.5-15.028 33.5-33.5c.001-18.472-15.028-33.5-33.5-33.5zm0 45c-6.341 0-11.5-5.159-11.5-11.5s5.159-11.5 11.5-11.5 11.5 5.159 11.5 11.5c.001 6.341-5.158 11.5-11.5 11.5z"/></g></g><g/><g/><g/><g/><g/><g/><g/><g/><g/><g/><g/><g/><g/><g/><g/></svg>