<svg id="Capa_1" enable-background="new 0 0 512 512" viewBox="0 0 512 512" xmlns="http://www.w3.org/2000/svg" fill="#052438"><g><g><path d="m338.841 58.282c-26.259-11.024-54.131-16.614-82.841-16.614-28.516 0-56.214 5.517-82.325 16.397-5.607 2.337-8.259 8.777-5.922 14.385 2.335 5.607 8.774 8.26 14.385 5.923 23.415-9.758 48.267-14.705 73.862-14.705 25.771 0 50.776 5.013 74.325 14.898 1.391.584 2.833.86 4.253.86 4.297 0 8.38-2.535 10.147-6.745 2.352-5.6-.283-12.048-5.884-14.399z"/><path d="m330.277 433.122c-23.534 9.872-48.525 14.878-74.277 14.878-25.617 0-50.487-4.955-73.918-14.728-5.606-2.338-12.048.311-14.387 5.918s.311 12.048 5.918 14.387c26.128 10.898 53.847 16.423 82.387 16.423 28.69 0 56.544-5.582 82.787-16.591 5.603-2.35 8.239-8.797 5.889-14.399-2.349-5.601-8.795-8.238-14.399-5.888z"/><path d="m126.453 121.177c7.419-7.604 12.002-17.978 12.002-29.405 0-23.261-18.96-42.185-42.266-42.185s-42.265 18.924-42.265 42.184c0 11.427 4.583 21.801 12.002 29.405-14.482 9.74-24.027 26.257-24.027 44.958v1.199c0 6.075 4.925 11 11 11 1.278 0 2.499-.229 3.64-.63-9.758 24.874-14.704 51.131-14.704 78.13 0 29 5.699 57.132 16.94 83.616 1.778 4.19 5.85 6.705 10.131 6.705 1.434 0 2.891-.282 4.293-.877 5.592-2.374 8.201-8.831 5.828-14.423-10.081-23.75-15.192-48.99-15.192-75.021 0-25.765 5.011-50.767 14.894-74.313 2.352-5.602-.284-12.049-5.886-14.4-2.993-1.257-6.222-1.078-8.943.204v-1.19c0-17.744 14.485-32.179 32.291-32.179s32.291 14.436 32.291 32.179v1.199c0 6.075 4.925 11 11 11s11-4.925 11-11v-1.199c-.002-18.7-9.546-35.217-24.029-44.957zm-30.264-9.221c-11.175 0-20.266-9.055-20.266-20.185s9.091-20.185 20.266-20.185 20.266 9.055 20.266 20.185-9.091 20.185-20.266 20.185z"/><path d="m372.52 178.334c6.075 0 11-4.925 11-11v-1.199c0-17.744 14.485-32.179 32.291-32.179s32.291 14.436 32.291 32.179v.779c-2.775-1.381-6.109-1.594-9.187-.292-5.595 2.367-8.213 8.821-5.846 14.416 10.018 23.686 15.097 48.851 15.097 74.797 0 25.898-5.061 51.02-15.042 74.667-2.363 5.597.259 12.049 5.856 14.412 1.396.589 2.846.869 4.272.869 4.289 0 8.366-2.525 10.139-6.726 11.131-26.37 16.774-54.37 16.774-83.222 0-27.004-4.946-53.258-14.704-78.129 1.141.4 2.362.629 3.64.629 6.075 0 11-4.925 11-11v-1.199c0-18.701-9.545-35.218-24.027-44.958 7.419-7.604 12.002-17.978 12.002-29.405 0-23.261-18.96-42.185-42.266-42.185s-42.266 18.924-42.266 42.185c0 11.427 4.583 21.801 12.002 29.405-14.482 9.74-24.027 26.257-24.027 44.958v1.199c.001 6.075 4.925 10.999 11.001 10.999zm43.291-106.748c11.175 0 20.266 9.055 20.266 20.185s-9.091 20.185-20.266 20.185-20.266-9.055-20.266-20.185 9.091-20.185 20.266-20.185z"/><path d="m446.074 441.239c7.419-7.604 12.002-17.978 12.002-29.405 0-23.261-18.96-42.185-42.266-42.185s-42.266 18.924-42.266 42.185c0 11.427 4.583 21.801 12.002 29.405-14.482 9.74-24.027 26.257-24.027 44.958v1.199c0 6.075 4.925 11 11 11s11-4.925 11-11v-1.199c0-17.744 14.485-32.179 32.291-32.179s32.291 14.436 32.291 32.179v1.199c0 6.075 4.925 11 11 11s11-4.925 11-11v-1.199c.001-18.701-9.544-35.218-24.027-44.958zm-30.263-9.221c-11.175 0-20.266-9.055-20.266-20.185s9.091-20.185 20.266-20.185 20.266 9.055 20.266 20.185-9.092 20.185-20.266 20.185z"/><path d="m126.453 441.239c7.419-7.604 12.002-17.978 12.002-29.405 0-23.261-18.96-42.185-42.266-42.185s-42.266 18.924-42.266 42.185c0 11.427 4.583 21.801 12.002 29.405-14.482 9.74-24.027 26.257-24.027 44.958v1.199c0 6.075 4.925 11 11 11s11-4.925 11-11v-1.199c0-17.744 14.485-32.179 32.291-32.179s32.291 14.436 32.291 32.179v1.199c0 6.075 4.925 11 11 11s11-4.925 11-11v-1.199c0-18.701-9.544-35.218-24.027-44.958zm-50.529-29.406c0-11.13 9.091-20.185 20.266-20.185s20.266 9.055 20.266 20.185-9.091 20.185-20.266 20.185-20.266-9.055-20.266-20.185z"/><path d="m363.594 256.334v-2.42c0-22.186-18.05-40.235-40.235-40.235h-4.18v-37.164c0-6.075-4.925-11-11-11s-11 4.925-11 11v5.205l-75.01 29.783h-45.158c-15.772 0-28.604 12.825-28.604 28.589v30.956c0 15.764 12.832 28.589 28.604 28.589h11.563v34.57c0 6.075 4.925 11 11 11s11-4.925 11-11v-34.57h11.596l75.008 29.78v5.735c0 6.075 4.925 11 11 11s11-4.925 11-11v-13.431c0-.005 0-.01 0-.016v-25.135h4.18c22.186 0 40.236-18.049 40.236-40.236zm-150.321 21.304h-36.263c-3.642 0-6.604-2.956-6.604-6.589v-30.956c0-3.633 2.963-6.589 6.604-6.589h36.263zm83.906 28.11-61.905-24.578v-51.198l61.905-24.58zm22-70.069h4.18c10.055 0 18.235 8.18 18.235 18.235v2.42c0 10.055-8.181 18.236-18.235 18.236h-4.18z"/></g><g fill="#0496FF"><path d="m96.189 191.938c53.039 0 96.189-43.052 96.189-95.969s-43.149-95.969-96.189-95.969-96.189 43.051-96.189 95.969 43.15 95.969 96.189 95.969zm0-169.938c40.908 0 74.189 33.182 74.189 73.969s-33.281 73.969-74.189 73.969-74.189-33.183-74.189-73.969 33.281-73.969 74.189-73.969z"/><path d="m415.811 191.938c53.039 0 96.189-43.052 96.189-95.969s-43.15-95.969-96.189-95.969-96.189 43.051-96.189 95.969 43.149 95.969 96.189 95.969zm0-169.938c40.908 0 74.189 33.182 74.189 73.969s-33.281 73.969-74.189 73.969-74.189-33.183-74.189-73.969 33.28-73.969 74.189-73.969z"/><path d="m96.189 320.062c-53.039 0-96.189 43.052-96.189 95.969s43.15 95.969 96.189 95.969 96.189-43.051 96.189-95.969-43.149-95.969-96.189-95.969zm0 169.938c-40.908 0-74.189-33.182-74.189-73.969s33.281-73.969 74.189-73.969 74.189 33.183 74.189 73.969-33.28 73.969-74.189 73.969z"/><path d="m415.811 320.062c-53.039 0-96.189 43.052-96.189 95.969s43.149 95.969 96.189 95.969 96.189-43.051 96.189-95.969-43.15-95.969-96.189-95.969zm0 169.938c-40.908 0-74.189-33.182-74.189-73.969s33.281-73.969 74.189-73.969 74.189 33.183 74.189 73.969-33.281 73.969-74.189 73.969z"/></g></g><g/><g/><g/><g/><g/><g/><g/><g/><g/><g/><g/><g/><g/><g/><g/></svg>