<svg id="Layer_1" enable-background="new 0 0 512.005 512.005" viewBox="0 0 512.005 512.005" xmlns="http://www.w3.org/2000/svg" fill="#052438"><g><g><g fill="#0496FF"><path d="m385.831 226.076h-.035l-7.557.023c-6.075.019-10.984 4.959-10.966 11.034.019 6.063 4.94 10.966 10.999 10.966h.035l7.557-.023c6.075-.019 10.984-4.959 10.966-11.034-.019-6.063-4.94-10.966-10.999-10.966z"/><path d="m360.467 204.945c2.817 0 5.636-1.076 7.783-3.228l4.149-4.155c4.293-4.299 4.288-11.264-.011-15.556-4.298-4.292-11.264-4.287-15.556.011l-4.149 4.155c-4.293 4.299-4.288 11.264.011 15.556 2.148 2.144 4.96 3.217 7.773 3.217z"/><path d="m368.136 272.53c-4.293-4.299-11.258-4.302-15.557-.01-4.299 4.294-4.303 11.259-.01 15.557l4.139 4.144c2.148 2.151 4.966 3.227 7.783 3.227 2.813 0 5.626-1.072 7.773-3.217 4.299-4.294 4.303-11.259.01-15.557z"/></g><g><path d="m335.851 226.118h-7.378v-72.106c0-3.842-2.004-7.405-5.287-9.4-3.283-1.996-7.37-2.132-10.78-.363l-77.253 40.092h-66.591c-6.075 0-11 4.925-11 11v6.542h-31.387c-6.075 0-11 4.925-11 11v48.473c0 6.075 4.925 11 11 11h31.387v6.541c0 6.075 4.925 11 11 11h.962l18.61 70.89c1.27 4.836 5.64 8.207 10.64 8.207h45.25c3.41 0 6.627-1.581 8.71-4.281s2.795-6.214 1.93-9.512l-16.771-63.882 74.513 38.671c1.592.826 3.331 1.236 5.067 1.236 1.982 0 3.962-.536 5.712-1.6 3.283-1.995 5.288-5.559 5.288-9.4v-72.106h7.378c6.075 0 11-4.925 11-11s-4.924-11.002-11-11.002zm-156.289-19.778h47.276v61.556h-47.276zm-42.386 44.015v-26.473h20.387v26.473zm70.083 96.637-14.989-57.097h22.504l14.989 57.097zm99.215-44.869-57.635-29.912v-70.187l57.635-29.911z"/><path d="m505.682 230.449-15.613-29.633c-2.273-4.313-3.573-9.171-3.76-14.044l-1.277-33.418c-.693-18.115-10.273-34.688-25.627-44.331l-28.287-17.766c-4.154-2.608-7.729-6.183-10.338-10.335l-17.77-28.282c-9.646-15.351-26.22-24.928-44.338-25.62l-33.425-1.277c-4.876-.187-9.734-1.487-14.05-3.76l-29.64-15.609c-16.002-8.428-35.109-8.428-51.111 0l-29.639 15.609c-4.316 2.272-9.174 3.573-14.049 3.76l-33.425 1.277c-18.118.692-34.693 10.27-44.338 25.62l-17.77 28.283c-2.608 4.151-6.183 7.726-10.337 10.334l-28.288 17.767c-15.354 9.643-24.934 26.215-25.626 44.331l-1.278 33.417c-.186 4.874-1.486 9.73-3.76 14.044l-15.613 29.633c-8.43 16-8.43 35.105 0 51.105l15.614 29.633c2.273 4.314 3.573 9.171 3.759 14.044l1.278 33.417c.693 18.116 10.273 34.688 25.627 44.332l28.287 17.766c4.153 2.608 7.728 6.182 10.337 10.335l17.77 28.282c9.646 15.351 26.22 24.928 44.337 25.62l33.424 1.277c4.876.187 9.734 1.487 14.051 3.76l29.639 15.609c8.001 4.214 16.778 6.321 25.556 6.321s17.555-2.107 25.556-6.321l29.638-15.608c4.317-2.273 9.177-3.574 14.051-3.761l33.425-1.277c18.118-.692 34.693-10.27 44.337-25.62l17.771-28.281c2.608-4.153 6.184-7.727 10.337-10.335l28.287-17.767c15.354-9.642 24.935-26.214 25.628-44.331l1.277-33.417c.187-4.875 1.486-9.73 3.76-14.044l15.613-29.634c0-.001.001-.001.001-.001 8.429-15.999 8.429-35.103-.001-51.104zm-19.462 40.851-15.613 29.632c-3.797 7.205-5.969 15.316-6.281 23.46l-1.277 33.417c-.415 10.847-6.15 20.769-15.344 26.541l-28.288 17.767c-6.937 4.356-12.906 10.325-17.264 17.261l-17.771 28.282c-5.774 9.191-15.699 14.926-26.549 15.34l-33.426 1.277c-8.141.313-16.253 2.483-23.461 6.279l-29.639 15.609c-9.582 5.048-21.025 5.048-30.608 0l-29.639-15.609c-7.207-3.796-15.319-5.967-23.461-6.279l-33.426-1.277c-10.849-.414-20.774-6.149-26.549-15.341l-17.77-28.282c-4.358-6.936-10.328-12.904-17.264-17.261l-28.288-17.766c-9.193-5.773-14.929-15.695-15.344-26.541l-1.277-33.417c-.311-8.14-2.482-16.252-6.28-23.46l-15.614-29.633c-5.047-9.578-5.047-21.016 0-30.594l15.613-29.633c3.797-7.206 5.969-15.317 6.281-23.459l1.278-33.418c.415-10.846 6.15-20.768 15.343-26.54l28.288-17.767c6.938-4.357 12.908-10.326 17.265-17.261l17.77-28.281c5.775-9.192 15.7-14.927 26.55-15.341l33.426-1.277c8.141-.313 16.253-2.483 23.46-6.279l29.639-15.609c4.791-2.523 10.047-3.785 15.304-3.785 5.256 0 10.513 1.262 15.304 3.785l29.64 15.609c7.206 3.796 15.318 5.967 23.461 6.279l33.426 1.277c10.85.414 20.774 6.148 26.549 15.341l17.771 28.282c4.358 6.936 10.328 12.904 17.265 17.261l28.287 17.766c9.193 5.773 14.929 15.695 15.344 26.541l1.277 33.418c.313 8.142 2.484 16.254 6.281 23.459l15.612 29.632c5.045 9.578 5.045 21.016-.001 30.595z"/><path d="m256.003 66.238c-104.658 0-189.803 85.127-189.803 189.764s85.146 189.765 189.803 189.765c104.658 0 189.804-85.128 189.804-189.765s-85.146-189.764-189.804-189.764zm0 357.529c-92.527 0-167.803-75.259-167.803-167.765s75.276-167.764 167.803-167.764 167.804 75.259 167.804 167.765-75.277 167.764-167.804 167.764z"/></g></g></g><g/><g/><g/><g/><g/><g/><g/><g/><g/><g/><g/><g/><g/><g/><g/></svg>