<svg id="Layer_1" enable-background="new 0 0 512 512" viewBox="0 0 512 512" xmlns="http://www.w3.org/2000/svg" fill="#052438"><g><g><g fill="#0496FF"><path d="m192.611 317.841c-.039-.104-.08-.205-.123-.307-1.95-4.67-6.481-7.685-11.548-7.685h-.015c-5.072.006-9.604 3.032-11.545 7.711-.035.083-.068.167-.101.251l-25.035 64.813c-2.189 5.667.63 12.036 6.297 14.225 5.671 2.191 12.035-.632 14.225-6.297l.534-1.383h31.054l.517 1.351c1.677 4.381 5.85 7.071 10.275 7.071 1.308 0 2.637-.234 3.93-.729 5.674-2.172 8.513-8.531 6.342-14.205zm-18.812 49.329 7.101-18.383 7.036 18.383z"/><path d="m259.807 311.794h-18.324c-2.921 0-5.723 1.162-7.786 3.229-2.063 2.068-3.22 4.872-3.214 7.793l.131 63.795c.006 2.921 1.173 5.719 3.244 7.778 2.062 2.05 4.85 3.199 7.756 3.199h.041c.554-.002 13.639-.051 18.878-.143 21.093-.363 36.402-18.345 36.402-42.755 0-25.256-15.268-42.896-37.128-42.896zm.344 63.656c-1.802.031-4.64.058-7.561.079l-.086-41.735h7.302c14.037 0 15.128 15.995 15.128 20.897.001 10.206-4.57 20.582-14.783 20.759z"/><path d="m346.98 343.9c-7.729-2.812-14.955-5.863-17.633-7.014-.259-.278-.495-.728-.394-1.445.189-1.331 1.428-2.43 3.396-3.015 8.141-2.416 15.93 3.659 16.007 3.72l.788.451c4.732 2.711 10.742 1.479 14.026-2.875 3.836-5.085 2.481-12.382-2.938-15.73-10.832-6.693-22.177-10.211-34.146-6.655-10.257 3.047-17.504 11.096-18.913 21.007-1.327 9.331 2.773 18.295 10.703 23.392.484.312.992.584 1.52.816.389.171 9.646 4.233 20.064 8.023 4.509 1.64 7.322 3.968 7 5.795-.386 2.188-3.738 5.219-9.029 5.219-5.781 0-11.315-2.209-14.886-5.925-4.081-4.246-10.735-5.077-15.295-1.35-4.942 4.039-5.41 11.339-1.153 15.972 7.767 8.454 19.188 13.303 31.333 13.303 5.774 0 11.198-1.384 15.849-3.829 3.288-1.729.248-10.935 2.613-13.611 3.21-3.631 11.374-1.082 12.233-5.961 1.812-10.267-2.794-23.615-21.145-30.288z"/></g><g><path d="m464.235 114.612c.209-2.704.315-5.431.315-8.179 0-58.687-47.725-106.433-106.386-106.433s-106.386 47.746-106.386 106.434c0 1.954.054 3.898.16 5.831h-189.141c-27.188 0-49.307 22.127-49.307 49.325v301.084c0 27.198 22.119 49.326 49.307 49.326h386.406c27.188 0 49.307-22.128 49.307-49.326v-301.084c0-21.533-14.286-40.528-34.275-46.978zm12.275 46.978v54.878h-97.948l4.928-6.639c37.205-9.091 66.1-37.589 76.686-73.259 9.661 4.286 16.334 14.059 16.334 25.02zm-118.346-139.59c46.53 0 84.386 37.877 84.386 84.434 0 40.064-28.44 74.874-67.625 82.77-2.666.537-5.038 2.043-6.659 4.227l-10.102 13.606-10.102-13.606c-1.621-2.184-3.993-3.689-6.659-4.227-39.185-7.896-67.625-42.705-67.625-82.77 0-46.557 37.856-84.434 84.386-84.434zm-322.674 139.59c0-15.067 12.25-27.325 27.307-27.325h192.699c10.006 36.743 39.339 66.278 77.342 75.564l4.928 6.639h-302.276zm413.713 328.41h-386.406c-15.057 0-27.307-12.259-27.307-27.326v-224.206h441.02v224.206c0 15.067-12.25 27.326-27.307 27.326z"/><path d="m95.64 171.16c-1.81-4.433-6.475-7.202-11.229-6.738-4.83.472-8.877 4.2-9.743 8.975-.785 4.328 1.164 8.829 4.863 11.21 3.815 2.455 8.877 2.28 12.517-.421 3.98-2.952 5.539-8.446 3.592-13.026z"/><path d="m152.88 171.16c-1.715-4.248-6.141-7.012-10.7-6.783-4.582.231-8.656 3.4-9.979 7.797-1.302 4.325.215 9.169 3.825 11.915 3.713 2.825 8.915 3.014 12.803.42 4.328-2.885 6.013-8.551 4.051-13.349z"/><path d="m210.12 171.16c-1.876-4.418-6.441-7.206-11.239-6.738-4.644.454-8.565 3.911-9.634 8.447-1.07 4.541.97 9.415 4.942 11.853 3.512 2.155 8.025 2.156 11.536 0 4.555-2.796 6.412-8.63 4.395-13.562z"/><path d="m445.539 398.987c-.938-3.749-3.776-6.73-7.475-7.853l-18.215-5.53v-109.59c0-6.075-4.925-11-11-11h-305.699c-6.075 0-11 4.925-11 11v155.409c0 6.075 4.925 11 11 11h262.336l4.959 16.353c1.122 3.7 4.104 6.539 7.854 7.479.885.222 1.781.329 2.672.329 2.882 0 5.691-1.134 7.78-3.224l19.168-19.178 18.317 18.326c2.148 2.149 4.964 3.224 7.78 3.224 2.814 0 5.629-1.073 7.776-3.22 4.297-4.295 4.299-11.26.004-15.557l-18.324-18.334 19.176-19.186c2.734-2.732 3.831-6.699 2.891-10.448zm-331.389 21.437v-133.409h283.7v91.911l-37.16-11.281c-3.884-1.18-8.102-.124-10.973 2.746-2.87 2.87-3.928 7.087-2.749 10.972l11.846 39.062h-244.664zm272.02 14.399-12.176-40.148 40.128 12.183z"/><path d="m337.627 147.162c1.496.692 3.066 1.021 4.613 1.021 4.153 0 8.13-2.365 9.989-6.383l28.513-61.602c2.552-5.513.151-12.051-5.362-14.603-5.512-2.55-12.051-.151-14.603 5.362l-28.513 61.602c-2.551 5.513-.151 12.051 5.363 14.603z"/><path d="m386.42 102.46c1.713 4.258 6.129 6.998 10.69 6.775 4.595-.224 8.647-3.392 9.988-7.791 1.319-4.33-.242-9.163-3.831-11.915-3.702-2.84-8.917-3.002-12.797-.42-4.292 2.856-6.073 8.585-4.05 13.351z"/><path d="m309.6 111.649c1.752 4.276 6.183 7.045 10.793 6.771 4.306-.256 8.117-3.079 9.651-7.104 1.656-4.346.287-9.436-3.316-12.374-3.607-2.942-8.821-3.31-12.78-.838-4.484 2.801-6.431 8.647-4.348 13.545z"/></g></g></g><g/><g/><g/><g/><g/><g/><g/><g/><g/><g/><g/><g/><g/><g/><g/></svg>