<svg id="Capa_1" enable-background="new 0 0 512 512" viewBox="0 0 512 512" xmlns="http://www.w3.org/2000/svg" fill="#052438"><g><path d="m357.315 146.686c-9.878-6.777-22.45-8.248-33.624-3.934l-97.316 37.556h-27.944c-32.821 0-59.523 26.702-59.523 59.523 0 21.033 10.976 39.539 27.49 50.129-.068.493-.115.991-.115 1.502v43.042c0 20.165 16.405 36.57 36.569 36.57 20.165 0 36.57-16.405 36.57-36.57v-30.114l84.267 32.52c4.234 1.634 8.667 2.438 13.078 2.438 7.234 0 14.411-2.162 20.548-6.372 9.879-6.776 15.776-17.974 15.776-29.954v-126.382c.002-11.979-5.896-23.178-15.776-29.954zm-158.883 55.622h18.992v75.047h-18.992c-20.69 0-37.523-16.833-37.523-37.523s16.832-37.524 37.523-37.524zm4.422 146.767c-8.033 0-14.569-6.536-14.569-14.57v-36.034c3.3.57 6.687.883 10.147.883h18.992v35.151c0 8.034-6.536 14.57-14.57 14.57zm148.239-46.053c0 4.794-2.268 9.1-6.222 11.812-3.953 2.713-8.786 3.278-13.26 1.552l-92.188-35.577v-81.956l92.188-35.577c4.472-1.727 9.306-1.161 13.259 1.552 3.954 2.712 6.222 7.018 6.222 11.812v126.382z" fill="#0496FF"/><path d="m512 256c0-22.204-16.39-40.648-37.707-43.876-5.679-28.493-16.741-55.16-32.927-79.425 5.616-7.584 8.652-16.728 8.652-26.339 0-11.854-4.616-22.998-12.998-31.379-8.382-8.382-19.525-12.998-31.38-12.998-9.608 0-18.75 3.034-26.333 8.647-24.226-16.161-50.913-27.213-79.429-32.909-3.222-21.323-21.67-37.721-43.878-37.721s-40.656 16.398-43.877 37.722c-28.526 5.697-55.214 16.742-79.436 32.904-7.581-5.61-16.72-8.643-26.327-8.643-11.854 0-22.998 4.616-31.38 12.998-15.707 15.708-17.152 40.355-4.342 57.712-16.188 24.267-27.251 50.935-32.93 79.431-21.317 3.227-37.708 21.672-37.708 43.876 0 22.203 16.391 40.647 37.707 43.875 5.68 28.499 16.744 55.167 32.932 79.432-12.81 17.356-11.365 42.004 4.342 57.712 8.382 8.382 19.526 12.998 31.38 12.998 9.609 0 18.749-3.034 26.332-8.646 24.249 16.18 50.921 27.236 79.433 32.921 3.226 21.317 21.671 37.708 43.874 37.708 22.208 0 40.656-16.398 43.877-37.722 28.521-5.696 55.208-16.745 79.432-32.906 7.582 5.612 16.723 8.646 26.33 8.646 11.854 0 22.998-4.616 31.38-12.998s12.998-19.526 12.998-31.38c0-9.611-3.036-18.755-8.652-26.339 16.186-24.263 27.248-50.93 32.928-79.426 21.317-3.227 37.707-21.672 37.707-43.875zm-106.36 105.262c-11.854 0-22.998 4.616-31.38 12.999-13.487 13.488-16.458 33.567-8.918 49.963-20.759 13.541-43.48 22.965-67.697 28.065-6.256-16.936-22.562-29.043-41.645-29.043-19.081 0-35.385 12.106-41.642 29.04-24.202-5.091-46.912-14.502-67.685-28.052 2.658-5.755 4.066-12.064 4.066-18.593 0-11.854-4.616-22.998-12.998-31.379-8.382-8.382-19.525-12.999-31.38-12.999-6.531 0-12.843 1.409-18.6 4.069-13.555-20.785-22.955-43.499-28.042-67.689 16.932-6.259 29.037-22.563 29.037-41.643s-12.105-35.384-29.037-41.642c5.087-24.188 14.487-46.902 28.043-67.688 5.757 2.66 12.069 4.068 18.599 4.068 11.854 0 22.998-4.616 31.38-12.998s12.998-19.526 12.998-31.38c0-6.527-1.407-12.836-4.065-18.591 20.753-13.536 43.469-22.958 67.683-28.058 6.256 16.936 22.561 29.044 41.644 29.044 19.082 0 35.389-12.108 41.645-29.043 24.213 5.1 46.937 14.523 67.697 28.063-7.54 16.396-4.569 36.477 8.918 49.965 8.382 8.382 19.526 12.998 31.38 12.998 6.531 0 12.843-1.409 18.6-4.068 13.556 20.786 22.957 43.5 28.042 67.689-16.932 6.258-29.037 22.562-29.037 41.642s12.104 35.383 29.037 41.642c-5.087 24.189-14.486 46.904-28.042 67.689-5.758-2.662-12.07-4.07-18.601-4.07zm84.36-105.262c0 12.339-10.038 22.377-22.377 22.377s-22.378-10.038-22.378-22.377 10.039-22.378 22.378-22.378 22.377 10.039 22.377 22.378zm-84.36-172.017c5.978 0 11.597 2.328 15.823 6.554s6.555 9.846 6.555 15.823-2.328 11.597-6.555 15.823c-4.227 4.226-9.846 6.554-15.823 6.554s-11.597-2.328-15.823-6.554c-8.725-8.725-8.725-22.922 0-31.647 4.226-4.225 9.845-6.553 15.823-6.553zm-149.64-61.983c12.339 0 22.378 10.039 22.378 22.377 0 12.339-10.039 22.378-22.378 22.378s-22.377-10.039-22.377-22.378c0-12.338 10.038-22.377 22.377-22.377zm-165.463 68.537c4.227-4.227 9.846-6.554 15.823-6.554s11.597 2.328 15.823 6.554c4.227 4.227 6.555 9.846 6.555 15.823s-2.328 11.597-6.555 15.824c-4.227 4.226-9.846 6.554-15.823 6.554s-11.597-2.328-15.823-6.554c-8.725-8.725-8.725-22.922 0-31.647zm-68.537 165.463c0-12.339 10.039-22.378 22.378-22.378s22.378 10.039 22.378 22.378-10.039 22.377-22.378 22.377-22.378-10.038-22.378-22.377zm84.36 172.017c-5.978 0-11.597-2.328-15.823-6.554-8.725-8.725-8.725-22.922 0-31.647 4.227-4.227 9.847-6.555 15.823-6.555 5.978 0 11.597 2.328 15.823 6.555 4.227 4.227 6.555 9.846 6.555 15.823s-2.328 11.597-6.555 15.824c-4.226 4.226-9.845 6.554-15.823 6.554zm149.64 61.983c-12.339 0-22.377-10.039-22.377-22.378s10.038-22.377 22.377-22.377 22.378 10.039 22.378 22.377c0 12.339-10.039 22.378-22.378 22.378zm165.463-68.537c-4.227 4.226-9.846 6.554-15.823 6.554s-11.597-2.328-15.823-6.554c-8.725-8.725-8.725-22.922 0-31.647 4.227-4.227 9.847-6.555 15.823-6.555 5.978 0 11.597 2.328 15.823 6.555 4.227 4.227 6.555 9.846 6.555 15.823s-2.329 11.597-6.555 15.824z"/></g><g/><g/><g/><g/><g/><g/><g/><g/><g/><g/><g/><g/><g/><g/><g/></svg>