<svg id="Layer_1" enable-background="new 0 0 512 512" viewBox="0 0 512 512" xmlns="http://www.w3.org/2000/svg" fill="#E6ECF2"><g><g><g><g><path d="m366.156 422.385h-219.488c-6.075 0-11-4.925-11-11s4.925-11 11-11h219.488c6.075 0 11 4.925 11 11s-4.925 11-11 11z" fill="#0496FF"/></g><g><path d="m366.156 466.82h-219.488c-6.075 0-11-4.925-11-11s4.925-11 11-11h219.488c6.075 0 11 4.925 11 11s-4.925 11-11 11z" fill="#0496FF"/></g></g></g><g><path d="m431.986 15.36h-7.924v-4.36c0-6.075-4.925-11-11-11s-11 4.925-11 11v4.36h-56.531v-4.36c0-6.075-4.925-11-11-11s-11 4.925-11 11v4.36h-56.531v-4.36c0-6.075-4.925-11-11-11s-11 4.925-11 11v4.36h-56.531v-4.36c0-6.075-4.925-11-11-11s-11 4.925-11 11v4.36h-56.531v-4.36c0-6.075-4.925-11-11-11s-11 4.925-11 11v4.36h-7.924c-27.084 0-49.118 22.02-49.118 49.085v398.469c-.001 27.066 22.033 49.086 49.117 49.086h351.973c27.084 0 49.119-22.02 49.119-49.085v-398.469c0-27.066-22.035-49.086-49.119-49.086zm-351.973 22h7.924v17.323c0 6.075 4.925 11 11 11s11-4.925 11-11v-17.323h56.531v17.323c0 6.075 4.925 11 11 11s11-4.925 11-11v-17.323h56.532v17.323c0 6.075 4.925 11 11 11s11-4.925 11-11v-17.323h56.531v17.323c0 6.075 4.925 11 11 11s11-4.925 11-11v-17.323h56.531v17.323c0 6.075 4.925 11 11 11s11-4.925 11-11v-17.323h7.924c14.953 0 27.119 12.15 27.119 27.085v28.986h-406.21v-28.985c0-14.935 12.165-27.086 27.118-27.086zm351.973 452.64h-351.973c-14.953 0-27.118-12.15-27.118-27.085v-347.483h406.21v347.483c0 14.935-12.166 27.085-27.119 27.085z"/><path d="m366.156 226.661h-8.238v-75.938c0-3.841-2.004-7.404-5.286-9.399-3.283-1.996-7.369-2.134-10.778-.365l-80.98 41.999h-69.835c-6.075 0-11 4.925-11 11v7.35h-33.37c-6.075 0-11 4.925-11 11v50.708c0 6.075 4.925 11 11 11h33.37v7.35c0 6.075 4.925 11 11 11h1.406l19.581 74.538c1.27 4.834 5.641 8.205 10.639 8.205h47.367c3.41 0 6.628-1.582 8.71-4.282 2.083-2.7 2.796-6.214 1.929-9.513l-17.846-67.936 79.03 40.986c1.592.825 3.329 1.235 5.064 1.235 1.983 0 3.963-.536 5.714-1.601 3.282-1.995 5.286-5.558 5.286-9.399v-75.938h8.238c6.075 0 11-4.925 11-11s-4.926-11-11.001-11zm-164.118-21.704h50.517v65.408h-50.517zm-44.37 47.058v-28.708h22.37v28.708zm73.479 101.092-15.957-60.743h24.621l15.957 60.743zm104.771-46.605-61.362-31.824v-74.035l61.362-31.824z"/></g></g><g/><g/><g/><g/><g/><g/><g/><g/><g/><g/><g/><g/><g/><g/><g/></svg>