<svg id="Layer_1" enable-background="new 0 0 512 512" viewBox="0 0 512 512" xmlns="http://www.w3.org/2000/svg" fill="#E6ECF2"><g><g><g fill="#0496FF"><path d="m192.059 246.837c-.039-.102-.08-.203-.122-.304-1.951-4.675-6.487-7.693-11.559-7.693h-.012c-5.077.004-9.613 3.032-11.557 7.713-.035.084-.069.169-.102.254l-25.223 65.279c-2.189 5.667.629 12.036 6.296 14.225 5.665 2.189 12.035-.629 14.225-6.296l.558-1.443h31.402l.541 1.412c1.677 4.38 5.849 7.07 10.275 7.07 1.307 0 2.637-.235 3.931-.73 5.673-2.172 8.512-8.532 6.34-14.206zm-18.994 49.736 7.272-18.822 7.206 18.822z"/><path d="m259.835 240.799h-18.462c-2.921 0-5.723 1.162-7.786 3.23s-3.22 4.872-3.214 7.792l.132 64.253c.006 2.921 1.173 5.719 3.245 7.778 2.061 2.049 4.85 3.199 7.755 3.199h.041c.559-.002 13.741-.052 19.018-.143 21.205-.365 36.595-18.442 36.595-42.983 0-25.392-15.348-43.126-37.324-43.126zm.35 64.113c-1.833.032-4.73.059-7.703.08l-.087-42.193h7.439c14.219 0 15.324 16.171 15.324 21.127.001 10.318-4.629 20.808-14.973 20.986z"/><path d="m347.633 273.13c-7.798-2.835-15.089-5.914-17.781-7.069-.276-.293-.542-.773-.434-1.533.195-1.373 1.463-2.503 3.479-3.102 8.245-2.447 16.125 3.698 16.203 3.761l.964.551c4.777 2.732 10.843 1.45 14.107-2.981 3.757-5.101 2.355-12.326-3.034-15.656-10.961-6.772-22.414-10.355-34.502-6.765-10.303 3.059-17.583 11.142-18.998 21.094-1.333 9.368 2.786 18.365 10.748 23.482.484.311.992.584 1.519.815.392.172 9.716 4.264 20.211 8.079 4.58 1.665 7.435 4.045 7.104 5.923-.393 2.231-3.801 5.323-9.178 5.323-5.857 0-11.466-2.243-15.08-6.015-4.068-4.246-10.729-5.049-15.28-1.324-4.938 4.041-5.403 11.339-1.145 15.97 7.812 8.497 19.295 13.37 31.505 13.37 15.473 0 28.445-9.886 30.844-23.506 1.817-10.309-2.813-23.713-21.252-30.417z"/></g><g><path d="m450.646 0h-389.292c-27.349 0-49.598 22.249-49.598 49.597v412.802c0 27.35 22.248 49.601 49.594 49.601h389.3c27.346 0 49.594-22.251 49.594-49.601v-412.802c0-27.348-22.249-49.597-49.598-49.597zm-416.89 49.597c0-15.217 12.38-27.597 27.598-27.597h389.293c15.217 0 27.597 12.38 27.597 27.597v55.354h-444.488zm416.894 440.403h-389.3c-15.215 0-27.594-12.382-27.594-27.601v-335.448h444.487v335.448c.001 15.219-12.378 27.601-27.593 27.601z"/><path d="m409.994 193.684h-307.988c-6.075 0-11 4.925-11 11v156.525c0 6.075 4.925 11 11 11h307.987c6.075 0 11-4.925 11-11v-156.525c.001-6.075-4.924-11-10.999-11zm-11 156.525h-285.988v-134.525h285.987v134.525z"/><path d="m94.37 59.27c-1.847-4.427-6.458-7.205-11.238-6.738-4.652.454-8.552 3.909-9.631 8.444-1.017 4.275.737 8.885 4.303 11.438 3.792 2.714 9.022 2.713 12.813 0 4.119-2.947 5.667-8.468 3.753-13.144z"/><path d="m152.03 59.27c-1.643-4.078-5.777-6.771-10.147-6.789-4.671-.02-8.906 3.058-10.419 7.459-1.472 4.279-.065 9.173 3.434 12.037 3.709 3.035 9.095 3.307 13.083.644 4.28-2.861 6.074-8.585 4.049-13.351z"/><path d="m209.7 59.27c-1.656-3.969-5.548-6.644-9.843-6.784-4.644-.151-8.971 2.779-10.606 7.116-1.552 4.115-.444 8.893 2.769 11.898 3.5 3.273 8.867 3.894 13.018 1.499 4.73-2.729 6.725-8.689 4.662-13.729z"/><path d="m409.994 395.026h-307.988c-6.075 0-11 4.925-11 11s4.925 11 11 11h307.987c6.075 0 11-4.925 11-11s-4.924-11-10.999-11z"/><path d="m409.994 439.938h-46.22c-6.075 0-11 4.925-11 11s4.925 11 11 11h46.22c6.075 0 11-4.925 11-11s-4.925-11-11-11z"/><path d="m409.994 148.867h-307.988c-6.075 0-11 4.925-11 11s4.925 11 11 11h307.987c6.075 0 11-4.925 11-11s-4.924-11-10.999-11z"/></g></g></g><g/><g/><g/><g/><g/><g/><g/><g/><g/><g/><g/><g/><g/><g/><g/></svg>