<svg id="Capa_1" enable-background="new 0 0 512 512" viewBox="0 0 512 512" xmlns="http://www.w3.org/2000/svg" fill="#E6ECF2"><g><g fill="#0496FF"><path d="m333.32 171.064-11 3.518v64.204h-24.581c-19.457 0-37.307 9.802-47.748 26.22-6.382 10.035-17.292 16.026-29.185 16.026h-39.296c-18.791 0-36.302 9.287-46.885 24.904l-7.769 11.634v-163.314c0-4.917 4.001-8.918 8.919-8.918h177.626l11-11-5.978-11h-182.648c-17.049 0-30.919 13.87-30.919 30.918v177.626c0 17.048 13.87 30.918 30.919 30.918h177.626c17.049 0 30.919-13.87 30.919-30.918v-149.818zm-19.919 169.737h-175.604l15.081-22.585c6.443-9.507 17.146-15.184 28.631-15.184h39.297c19.457 0 37.307-9.802 47.748-26.22 6.382-10.035 17.292-16.026 29.185-16.026h24.581v71.096c0 4.918-4.001 8.919-8.919 8.919z"/><path d="m165.503 186.905c-6.075 0-11 4.925-11 11s4.925 11 11 11h43.465c6.075 0 11-4.925 11-11s-4.925-11-11-11z"/></g><g><path d="m105.697 82.531c2.768 7.131 12.65 9.076 17.94 3.57 6.184-6.019 2.866-17.003-5.63-18.569-8.433-1.825-15.755 7.083-12.31 14.999z"/><path d="m162.515 89.32h110.191c6.075 0 11-4.925 11-11s-4.925-11-11-11h-110.191c-6.075 0-11 4.925-11 11s4.925 11 11 11z"/><path d="m456.541 140.84c0-36.918-27.334-67.562-62.825-72.782v-7.261c0-33.524-27.273-60.797-60.797-60.797h-216.663c-33.523 0-60.797 27.273-60.797 60.797v390.406c0 33.523 27.273 60.797 60.797 60.797h216.663c33.523 0 60.797-27.273 60.797-60.797v-237.58c35.491-5.22 62.825-35.865 62.825-72.783zm-340.285-118.84h216.663c21.393 0 38.797 17.404 38.797 38.797v7.327c-35.249 5.431-62.327 35.97-62.327 72.716s27.078 67.285 62.327 72.716v183.402h-294.257v-336.161c0-21.393 17.405-38.797 38.797-38.797zm216.663 468h-216.663c-21.393 0-38.797-17.404-38.797-38.797v-32.245h294.257v32.245c0 21.393-17.404 38.797-38.797 38.797zm50.046-297.584c-28.439 0-51.576-23.137-51.576-51.576s23.137-51.576 51.576-51.576 51.576 23.137 51.576 51.576-23.137 51.576-51.576 51.576z"/></g></g><g/><g/><g/><g/><g/><g/><g/><g/><g/><g/><g/><g/><g/><g/><g/></svg>