<svg id="Capa_1" enable-background="new 0 0 512 512" viewBox="0 0 512 512" xmlns="http://www.w3.org/2000/svg" fill="#E6ECF2"><g><g fill="#0496FF"><path d="m345.445 391.104c4.638 2.678 9.727 4.017 14.815 4.017s10.177-1.339 14.815-4.017l36.587-21.123c9.277-5.356 14.815-14.949 14.815-25.661 0-.774-.029-1.544-.086-2.306-.734-9.772-6.123-18.387-14.729-23.355l-36.587-21.123c-9.276-5.355-20.354-5.354-29.63 0-9.277 5.356-14.815 14.949-14.815 25.661v42.247c0 10.711 5.538 20.304 14.815 25.66zm7.185-67.908c0-3.977 2.668-5.946 3.815-6.608 1.147-.663 4.187-1.989 7.63 0l36.587 21.123c3.443 1.988 3.815 5.284 3.815 6.608s-.372 4.62-3.815 6.608l-36.587 21.123c-3.443 1.987-6.484.661-7.631 0-1.147-.662-3.815-2.632-3.815-6.607v-42.247z"/><path d="m481 240.149h-204.892c-17.093 0-31 13.906-31 31v204.892c0 17.094 13.907 31 31 31h204.892c17.093 0 31-13.906 31-31v-204.892c0-17.093-13.907-31-31-31zm9 235.892c0 4.963-4.038 9-9 9h-204.892c-4.962 0-9-4.037-9-9v-204.892c0-4.963 4.038-9 9-9h204.892c4.962 0 9 4.037 9 9z"/><path d="m453.557 429.434h-111.848c-.814-5.272-5.358-9.312-10.857-9.312s-10.044 4.041-10.857 9.312h-16.443c-6.075 0-11 4.925-11 11s4.925 11 11 11h16.443c.814 5.272 5.358 9.312 10.857 9.312s10.044-4.041 10.857-9.312h111.848c6.075 0 11-4.925 11-11s-4.925-11-11-11z"/></g><g><path d="m174.268 292.542h-135.461c-21.266 0-38.567 17.301-38.567 38.567v110.479c0 21.267 17.301 38.568 38.567 38.568l52.156-.006 24.225 21.372c4.135 3.647 9.249 5.538 14.463 5.538 3.065-.001 6.165-.654 9.119-1.987 7.98-3.602 12.938-11.277 12.938-20.033l-.021-4.884h22.583c21.266 0 38.567-17.302 38.567-38.568v-110.479c-.002-21.266-17.303-38.567-38.569-38.567zm16.567 149.046c0 9.136-7.432 16.568-16.567 16.568h-22.583c-12.119 0-21.979 9.859-21.979 21.979l-.005 4.854-24.185-21.337c-4.018-3.544-9.181-5.496-14.54-5.496h-52.17c-9.135 0-16.567-7.433-16.567-16.568v-110.479c0-9.136 7.432-16.567 16.567-16.567h135.461c9.135 0 16.567 7.432 16.567 16.567v110.479z"/><path d="m481 7.847h-207.729c-17.093 0-31 13.906-31 31v134.602c0 17.094 13.907 31 31 31h207.729c17.093 0 31-13.906 31-31v-134.602c0-17.094-13.907-31-31-31zm-52.641 128.301-32.012-55.219c5.341-3.738 11.69-5.761 18.324-5.761 17.663 0 32.033 14.37 32.033 32.033-.001 12.495-7.249 23.704-18.345 28.947zm1.343 46.3h-125.873l58.58-101.885c1.203-2.084 3.115-2.395 4.147-2.395s2.945.311 4.148 2.395zm60.298-9c0 4.963-4.038 9-9 9h-25.8l-15.776-27.212c17.783-9.158 29.279-27.589 29.279-48.035 0-29.794-24.239-54.033-54.033-54.033-11.056 0-21.641 3.334-30.583 9.495-4.773-4.155-10.915-6.494-17.531-6.494-.918 0-1.827.045-2.725.134-7.978.788-15.048 5.022-19.522 11.729 0 .001-.001.002-.002.003-.004.007-.009.014-.014.021-.326.489-.639.993-.937 1.509l-65.24 112.885h-4.845c-4.962 0-9-4.037-9-9v-134.603c0-4.963 4.038-9 9-9h207.729c4.962 0 9 4.037 9 9z"/><path d="m31 260.367h145.185c17.093 0 31-13.906 31-31v-193.428c0-17.094-13.907-31-31-31h-145.185c-17.093 0-31 13.906-31 31v193.428c0 17.094 13.907 31 31 31zm-9-224.428c0-4.963 4.038-9 9-9h145.185c4.962 0 9 4.037 9 9v193.428c0 4.963-4.038 9-9 9h-145.185c-4.962 0-9-4.037-9-9z"/><path d="m61.674 117.521h83.837c6.075 0 11-4.925 11-11s-4.925-11-11-11h-83.837c-6.075 0-11 4.925-11 11s4.925 11 11 11z"/><path d="m61.674 163.201h83.837c6.075 0 11-4.925 11-11s-4.925-11-11-11h-83.837c-6.075 0-11 4.925-11 11s4.925 11 11 11z"/><path d="m61.674 208.881h83.837c6.075 0 11-4.925 11-11s-4.925-11-11-11h-83.837c-6.075 0-11 4.925-11 11s4.925 11 11 11z"/><path d="m82.006 71.842h43.173c6.075 0 11-4.925 11-11s-4.925-11-11-11h-43.173c-6.075 0-11 4.925-11 11s4.925 11 11 11z"/><path d="m68.766 378.901c-2.734-7.136-12.661-9.087-17.93-3.579-6.899 6.801-1.913 18.852 7.78 18.779 7.57.234 13.287-8.293 10.15-15.2z"/><path d="m116.696 378.901c-2.687-7.112-12.725-9.085-17.94-3.579-6.888 6.794-1.905 18.867 7.78 18.779 7.576.237 13.282-8.283 10.16-15.2z"/><path d="m164.616 378.901c-2.734-7.136-12.661-9.087-17.93-3.579-6.899 6.793-1.911 18.868 7.78 18.779 7.57.234 13.287-8.293 10.15-15.2z"/></g></g><g/><g/><g/><g/><g/><g/><g/><g/><g/><g/><g/><g/><g/><g/><g/></svg>