<svg id="Capa_1" enable-background="new 0 0 512 512" viewBox="0 0 512 512" xmlns="http://www.w3.org/2000/svg" fill="#052438"><g><path d="m511.586 241.63c-3.686-65.561-31.69-125.966-79.063-171.007l2.705-.152c6.065-.341 10.706-5.535 10.365-11.6-.341-6.066-5.532-10.706-11.6-10.365l-26.045 1.464c-47.887-35.447-106.09-52.943-166.318-49.557-68.27 3.839-130.958 34.033-176.518 85.021s-68.537 116.667-64.698 184.936c3.312 58.906 26.261 113.647 65.244 156.825l-6.598.371c-6.065.341-10.706 5.535-10.365 11.6.329 5.856 5.18 10.383 10.973 10.383.208 0 .417-.006.627-.018l26.461-1.488c47.114 41.535 106.545 63.958 168.917 63.957 4.881 0 9.785-.137 14.698-.414 68.27-3.838 130.958-34.033 176.518-85.021 45.559-50.988 68.536-116.666 64.697-184.935zm-81.103 170.277c-41.644 46.606-98.946 74.206-161.348 77.714-4.494.253-8.969.378-13.434.378-57.474-.002-112.234-20.826-155.461-59.388l-1.364-24.258c-.341-6.065-5.54-10.707-11.6-10.365-5.745.323-10.204 5-10.37 10.647-32.527-38.509-51.647-86.282-54.527-137.5-3.508-62.403 17.494-122.436 59.138-169.043 41.644-46.606 98.946-74.206 161.348-77.714 4.494-.252 8.969-.378 13.435-.378 49.876 0 97.702 15.692 137.727 45.039l1.385 24.644c.33 5.856 5.18 10.383 10.973 10.383.208 0 .417-.006.627-.018 6.066-.341 10.706-5.534 10.366-11.6l-.23-4.091c43.427 41.19 69.099 96.485 72.474 156.507 3.508 62.403-17.494 122.437-59.139 169.043z" fill="#0496FF"/><path d="m425.329 209.347h-17.314v-13.537c0-7.111-2.276-13.913-6.33-19.519l7.037-7.037c4.941-4.941 7.663-11.51 7.663-18.498 0-6.987-2.721-13.557-7.662-18.498l-28.982-28.981c-4.94-4.941-11.51-7.662-18.497-7.663-6.987 0-13.556 2.721-18.498 7.662l-20.037 20.037c-1.234 1.235-3.119 1.568-4.687.83-4.116-1.938-8.376-3.703-12.661-5.246-1.62-.583-2.708-2.147-2.708-3.893v-28.333c0-14.424-11.735-26.16-26.159-26.16h-40.986c-14.424 0-26.159 11.735-26.159 26.16v28.335c0 1.746-1.088 3.311-2.708 3.894-4.282 1.541-8.541 3.306-12.66 5.246-1.569.739-3.453.405-4.686-.829l-20.038-20.037c-4.941-4.941-11.51-7.662-18.498-7.662s-13.557 2.721-18.497 7.662l-28.982 28.981c-4.941 4.941-7.662 11.51-7.662 18.498 0 6.987 2.721 13.557 7.662 18.497l20.037 20.038c1.235 1.235 1.568 3.118.83 4.687-1.94 4.12-3.705 8.38-5.246 12.66-.583 1.62-2.148 2.709-3.894 2.709h-28.336c-14.425 0-26.16 11.735-26.16 26.159v40.986c0 14.424 11.735 26.159 26.16 26.159h28.335c1.746 0 3.311 1.089 3.894 2.708 1.541 4.281 3.305 8.541 5.245 12.66.739 1.569.406 3.452-.829 4.687l-20.037 20.037c-4.941 4.941-7.662 11.51-7.662 18.498 0 6.987 2.721 13.557 7.662 18.498l28.982 28.981c4.94 4.941 11.51 7.662 18.497 7.662 6.988 0 13.557-2.721 18.497-7.662l20.038-20.038c1.235-1.234 3.118-1.568 4.686-.829 4.119 1.939 8.378 3.704 12.66 5.246 1.62.583 2.708 2.147 2.708 3.893v28.335c0 14.424 11.735 26.16 26.159 26.16h40.986c14.424 0 26.159-11.735 26.159-26.16v-28.335c0-1.746 1.088-3.31 2.709-3.893 4.284-1.542 8.543-3.307 12.66-5.245 1.568-.738 3.451-.405 4.686.829l20.037 20.037c4.941 4.941 11.51 7.662 18.498 7.662s13.557-2.721 18.497-7.662l28.982-28.981c4.941-4.941 7.662-11.51 7.662-18.498 0-6.987-2.721-13.557-7.662-18.498l-11.232-11.232c6.656-6.247 10.524-15.005 10.524-24.284v-4.577h17.314c14.425 0 26.16-11.735 26.16-26.159v-40.986c.003-14.426-11.732-26.161-26.157-26.161zm-204.377 42.173c0-17.523 14.256-31.778 31.778-31.778h15.442v63.557h-15.442c-17.522 0-31.778-14.256-31.778-31.779zm56.171-53.778h-24.393c-29.653 0-53.778 24.125-53.778 53.778 0 18.82 9.725 35.402 24.406 45.014v33.803c-28.567-12.593-48.568-41.166-48.568-74.337 0-44.779 36.431-81.21 81.21-81.21 16.251 0 31.851 4.805 45.114 13.693zm-31.765 107.039c2.412.332 4.87.518 7.372.518h15.442v30.991c-3.999.604-8.065.92-12.172.92-3.609 0-7.156-.261-10.642-.72zm44.814 5.553 18.77 7.244c-5.702 4.906-12.019 8.973-18.77 12.104zm0-23.581v-70.465l80.44-31.043c3.537-1.364 7.357-.918 10.484 1.227 3.126 2.145 4.919 5.549 4.919 9.34v111.418c0 3.791-1.793 7.195-4.919 9.339-3.126 2.145-6.948 2.591-10.484 1.227zm102.994 77.431-28.982 28.982c-1.06 1.06-2.298 1.218-2.941 1.218-.644 0-1.881-.158-2.941-1.218l-20.038-20.038c-7.776-7.776-19.678-9.856-29.615-5.176-3.491 1.644-7.104 3.141-10.736 4.448-10.324 3.714-17.26 13.598-17.26 24.593v28.335c0 2.294-1.866 4.16-4.16 4.16h-40.986c-2.293 0-4.16-1.866-4.16-4.16v-28.335c0-10.995-6.936-20.879-17.258-24.593-3.631-1.307-7.245-2.804-10.738-4.449-9.937-4.679-21.839-2.6-29.615 5.176l-20.038 20.038c-1.06 1.06-2.298 1.218-2.941 1.218s-1.881-.158-2.941-1.218l-28.982-28.981c-1.622-1.622-1.622-4.261 0-5.883l20.037-20.037c7.776-7.776 9.856-19.677 5.176-29.615-1.645-3.495-3.142-7.107-4.449-10.738-3.715-10.323-13.598-17.258-24.593-17.258h-28.334c-2.294 0-4.16-1.866-4.16-4.16v-40.986c0-2.294 1.866-4.16 4.16-4.16h28.335c10.995 0 20.878-6.936 24.593-17.259 1.307-3.63 2.803-7.243 4.449-10.737 4.679-9.938 2.599-21.839-5.177-29.615l-20.038-20.038c-1.06-1.06-1.218-2.298-1.218-2.941 0-.644.159-1.881 1.219-2.941l28.982-28.982c1.06-1.06 2.298-1.218 2.941-1.218s1.881.158 2.941 1.218l20.038 20.037c7.776 7.776 19.677 9.857 29.615 5.176 3.494-1.645 7.107-3.142 10.738-4.449 10.323-3.715 17.259-13.598 17.259-24.593v-28.334c0-2.294 1.866-4.16 4.16-4.16h40.986c2.293 0 4.16 1.866 4.16 4.16v28.335c0 10.995 6.936 20.879 17.258 24.593 3.634 1.308 7.247 2.805 10.738 4.449 9.937 4.68 21.839 2.6 29.616-5.176l20.037-20.037c1.061-1.06 2.298-1.218 2.942-1.218.643 0 1.881.158 2.941 1.219l28.982 28.981c1.061 1.06 1.219 2.298 1.219 2.942 0 .643-.158 1.881-1.219 2.941l-9.918 9.918c-6.709-1.784-13.901-1.465-20.557 1.104l-37.678 14.54c-18.981-17.09-43.37-26.471-69.012-26.471-56.91 0-103.21 46.3-103.21 103.21s46.297 103.209 103.207 103.209c28.778 0 56.04-11.938 75.552-32.906l31.138 12.017c3.885 1.499 7.951 2.236 11.998 2.236.25 0 .5-.022.75-.028.142.16.278.323.431.477l17.296 17.296c1.623 1.621 1.623 4.26.001 5.882zm36.323-87.691c0 2.294-1.866 4.16-4.16 4.16h-17.314v-49.306h17.314c2.294 0 4.16 1.866 4.16 4.16z"/></g><g/><g/><g/><g/><g/><g/><g/><g/><g/><g/><g/><g/><g/><g/><g/></svg>