<svg id="Layer_1" enable-background="new 0 0 512 512" viewBox="0 0 512 512" xmlns="http://www.w3.org/2000/svg" fill="#E6ECF2"><g><g><g><path d="m325.447 264.896h-239.003c-6.075 0-11-4.925-11-11v-64.122c0-6.075 4.925-11 11-11h239.003c6.075 0 11 4.925 11 11v64.122c0 6.076-4.925 11-11 11zm-228.003-22h217.003v-42.122h-217.003z" fill="#0496FF"/></g><g><path d="m72.52 62.14c-1.79-4.232-6.085-7.015-10.699-6.783-4.594.232-8.635 3.399-9.978 7.794-1.318 4.314.227 9.182 3.824 11.919 3.713 2.826 8.914 3.012 12.803.42 4.325-2.883 6.014-8.556 4.05-13.35z"/><path d="m120.71 62.14c-1.715-4.247-6.129-7.012-10.69-6.783-4.598.232-8.637 3.397-9.98 7.794-1.323 4.33.231 9.164 3.824 11.919 3.702 2.839 8.917 3.002 12.797.42 4.29-2.856 6.072-8.585 4.049-13.35z"/><path d="m168.91 62.14c-1.715-4.246-6.136-7.012-10.695-6.783-4.592.232-8.641 3.4-9.983 7.794-1.321 4.325.234 9.172 3.829 11.919 3.703 2.83 8.92 3.012 12.798.42 4.292-2.868 6.072-8.575 4.051-13.35z"/><path d="m508.781 481.769-32.528-32.557c35.413-43.271 32.952-107.413-7.382-147.783-15.787-15.802-35.522-26.218-56.979-30.327v-216.376c0-23.859-19.411-43.271-43.271-43.271h-325.35c-23.86.001-43.271 19.412-43.271 43.271v345.276c0 23.868 19.405 43.286 43.257 43.286h257.878c3.513 4.941 7.481 9.655 11.905 14.083 20.811 20.83 48.481 32.302 77.915 32.302 25.734 0 50.12-8.769 69.753-24.895l32.511 32.54c2.147 2.15 4.965 3.226 7.781 3.226 2.813 0 5.627-1.073 7.774-3.219 4.298-4.294 4.301-11.259.007-15.556zm-486.781-427.043c0-11.729 9.542-21.271 21.271-21.271h325.35c11.729 0 21.271 9.542 21.271 21.271v44.51h-367.892zm21.257 366.563c-11.721 0-21.257-9.549-21.257-21.286v-278.767h367.892v147.896c-22.869.215-44.633 7.36-62.892 20.44h-240.556c-6.075 0-11 4.925-11 11s4.925 11 11 11h217.627c-6.235 7.987-11.216 16.643-14.943 25.698h-202.684c-6.075 0-11 4.925-11 11s4.925 11 11 11h196.215c-3.812 20.707-1.688 42.303 6.371 62.019zm347.698 46.385c-23.553 0-45.697-9.181-62.353-25.851-34.389-34.42-34.389-90.425.001-124.845 16.654-16.671 38.799-25.852 62.352-25.852s45.697 9.181 62.352 25.852h.001c34.389 34.42 34.389 90.425 0 124.845-16.656 16.67-38.8 25.851-62.353 25.851z"/></g><g><path d="m390.955 426.843c-34.514 0-60.502-39.799-61.591-41.493-2.331-3.624-2.331-8.274 0-11.898 1.089-1.694 27.077-41.492 61.591-41.492s60.502 39.798 61.591 41.492c2.331 3.624 2.331 8.274 0 11.898-1.089 1.694-27.077 41.493-61.591 41.493zm-38.772-47.459c8.172 10.295 23.511 25.459 38.772 25.459 15.35 0 30.632-15.127 38.771-25.425-8.179-10.303-23.514-25.459-38.771-25.459-15.351 0-30.633 15.127-38.772 25.425z" fill="#0496FF"/></g><g><path d="m390.95 390.399c-4.695 0-8.951-3.1-10.434-7.542-1.522-4.562.211-9.778 4.183-12.504 3.647-2.504 8.514-2.563 12.233-.176 3.958 2.541 5.876 7.536 4.646 12.074-1.286 4.746-5.703 8.148-10.628 8.148z" fill="#0496FF"/></g></g></g><g/><g/><g/><g/><g/><g/><g/><g/><g/><g/><g/><g/><g/><g/><g/></svg>