<svg id="Capa_1" enable-background="new 0 0 512 512" viewBox="0 0 512 512" xmlns="http://www.w3.org/2000/svg" fill="#052438"><g><g><path d="m411.56 110.479c-2.75-22.704-14.681-42.903-33.671-56.475-19.441-13.894-43.937-18.593-66.87-13.115-22.934-26.078-55.521-40.889-90.529-40.889-63.113 0-115.063 48.71-120.237 110.509-31.288 5.075-55.253 32.282-55.253 64.98 0 36.298 29.531 65.83 65.83 65.83h66.058c6.075 0 11-4.925 11-11s-4.925-11-11-11h-66.058c-24.168 0-43.83-19.662-43.83-43.83 0-24.167 19.662-43.83 43.83-43.83 6.075 0 11-4.925 11-11 0-54.401 44.259-98.66 98.66-98.66 30.689 0 59.105 13.923 77.962 38.2 2.882 3.71 7.803 5.181 12.249 3.659 18.54-6.345 38.365-3.413 54.396 8.043 15.935 11.388 25.074 29.16 25.074 48.757 0 6.075 4.925 11 11 11 24.167 0 43.83 19.662 43.83 43.83s-19.662 43.83-43.83 43.83h-134.472c-6.075 0-11 4.925-11 11s4.925 11 11 11h134.471c36.299 0 65.83-29.531 65.83-65.83 0-32.763-24.06-60.014-55.44-65.009z"/><path d="m357.03 314.412h-202.06c-6.075 0-11 4.925-11 11v47.493c0 3.072 1.285 6.005 3.544 8.087l74.706 68.877v51.131c0 3.747 1.907 7.236 5.062 9.259 3.159 2.028 7.13 2.297 10.526.739l45.561-20.906c3.908-1.793 6.413-5.698 6.413-9.998v-30.226l74.706-68.877c2.259-2.082 3.544-5.015 3.544-8.087v-47.493c-.002-6.075-4.927-10.999-11.002-10.999zm-11 22v25.493h-180.06v-25.493zm-74.706 100.549c-2.259 2.082-3.544 5.015-3.544 8.087v27.99l-23.56 10.812v-38.802c0-3.072-1.285-6.005-3.544-8.087l-57.547-53.057h145.741z"/></g><g fill="#0496FF"><path d="m243.14 138.282c-2.395-2.395-5.758-3.555-9.123-3.139-3.362.414-6.345 2.354-8.088 5.258l-41.73 69.55-16.72 16.721c-14.033 14.036-14.035 36.875 0 50.912 7.018 7.018 16.236 10.526 25.455 10.526s18.438-3.509 25.456-10.526l9.899-9.9 20.506 20.507c2.148 2.147 4.963 3.222 7.778 3.222s5.63-1.074 7.778-3.222c4.295-4.296 4.295-11.261 0-15.557l-18.321-18.324 58.631-35.178c2.905-1.743 4.845-4.727 5.258-8.088.414-3.362-.744-6.727-3.139-9.123zm-60.104 123.744c-5.458-5.458-5.458-14.34 0-19.798l9.899-9.899 19.799 19.799-9.899 9.9c-5.459 5.457-14.341 5.456-19.799-.002zm46.96-23.751-23.209-23.209 30.759-51.266 43.716 43.716z"/><path d="m325.165 119.897c-4.296-4.296-11.261-4.296-15.557 0l-14.849 14.849c-4.295 4.296-4.295 11.261 0 15.557 2.148 2.148 4.963 3.222 7.778 3.222s5.63-1.074 7.778-3.222l14.849-14.849c4.296-4.296 4.296-11.261.001-15.557z"/><path d="m264.334 131.937c.954.256 1.912.378 2.854.378 4.856 0 9.301-3.241 10.618-8.156l5.436-20.285c1.573-5.868-1.91-11.9-7.778-13.472-5.868-1.573-11.899 1.91-13.472 7.778l-5.436 20.285c-1.572 5.868 1.91 11.899 7.778 13.472z"/><path d="m354.66 169.599c-1.572-5.869-7.606-9.353-13.472-7.778l-20.285 5.435c-5.868 1.572-9.351 7.604-7.778 13.472 1.316 4.915 5.761 8.156 10.618 8.156.942 0 1.9-.122 2.854-.378l20.285-5.435c5.868-1.573 9.351-7.605 7.778-13.472z"/></g></g><g/><g/><g/><g/><g/><g/><g/><g/><g/><g/><g/><g/><g/><g/><g/></svg>