<svg id="Capa_1" enable-background="new 0 0 512 512" viewBox="0 0 512 512" xmlns="http://www.w3.org/2000/svg" fill="#052438"><g><g><g><path d="m256 512c-141.158 0-256-114.841-256-256s114.842-256 256-256 256 114.841 256 256-114.841 256-256 256zm0-490c-129.028 0-234 104.972-234 234s104.972 234 234 234 234-104.972 234-234-104.972-234-234-234z"/></g></g><g><path d="m396 289.5h-280c-6.075 0-11-4.925-11-11v-45c0-6.075 4.925-11 11-11h280c6.075 0 11 4.925 11 11v45c0 6.075-4.925 11-11 11zm-269-22h258v-23h-258z" fill="#0496FF"/></g></g><g/><g/><g/><g/><g/><g/><g/><g/><g/><g/><g/><g/><g/><g/><g/></svg>