<svg id="Capa_1" enable-background="new 0 0 512 512" viewBox="0 0 512 512" xmlns="http://www.w3.org/2000/svg" fill="#E6ECF2"><g><g><g><path d="m501 392.871c-1.899 0-3.798-.491-5.5-1.474l-218.016-125.87c-3.403-1.965-5.5-5.596-5.5-9.526s2.097-7.562 5.5-9.526l218.016-125.873c3.404-1.965 7.596-1.965 11 0 3.403 1.965 5.5 5.597 5.5 9.526v251.743c0 3.93-2.097 7.562-5.5 9.526-1.703.983-3.601 1.474-5.5 1.474zm-196.016-136.871 185.016 106.819v-213.638z"/></g></g><g><path d="m278.465 392.871c-1.899 0-3.798-.491-5.5-1.474l-218.015-125.87c-3.403-1.965-5.5-5.596-5.5-9.526s2.097-7.562 5.5-9.526l218.016-125.872c3.404-1.965 7.596-1.965 11 0 3.403 1.965 5.5 5.597 5.5 9.526v251.743c0 3.93-2.097 7.562-5.5 9.526-1.703.982-3.601 1.473-5.501 1.473zm-196.015-136.871 185.016 106.818v-213.637z" fill="#0496FF"/></g><g><path d="m58.237 392.871h-47.237c-6.075 0-11-4.925-11-11v-251.743c0-6.075 4.925-11 11-11h47.237c6.075 0 11 4.925 11 11v251.743c0 6.076-4.925 11-11 11zm-36.237-22h25.237v-229.743h-25.237z"/></g></g><g/><g/><g/><g/><g/><g/><g/><g/><g/><g/><g/><g/><g/><g/><g/></svg>