<svg id="Capa_1" enable-background="new 0 0 512 512" viewBox="0 0 512 512" xmlns="http://www.w3.org/2000/svg" fill="#052438"><g><g><path d="m256.001 0c-141.159 0-256.001 114.841-256.001 256s114.842 256 256.001 256c141.158 0 255.999-114.841 255.999-256s-114.841-256-255.999-256zm0 490c-129.028 0-234.001-104.972-234.001-234s104.973-234 234.001-234c129.027 0 233.999 104.972 233.999 234s-104.972 234-233.999 234z"/><path d="m403.672 221.329c-4.297-4.296-11.26-4.296-15.557 0l-19.115 19.115-19.115-19.115c-4.296-4.295-11.261-4.296-15.557 0s-4.296 11.261 0 15.557l19.116 19.114-19.115 19.115c-4.296 4.296-4.296 11.261 0 15.557 2.148 2.148 4.963 3.222 7.778 3.222s5.63-1.074 7.778-3.222l19.115-19.115 19.115 19.115c2.148 2.148 4.963 3.222 7.778 3.222 2.814 0 5.631-1.074 7.778-3.222 4.296-4.296 4.296-11.261 0-15.557l-19.114-19.115 19.115-19.115c4.296-4.296 4.296-11.26 0-15.556z"/></g><path d="m292.308 110.807c-3.571-1.917-7.906-1.713-11.283.527l-104.236 69.166h-60.683c-6.075 0-11 4.925-11 11v129c0 6.075 4.925 11 11 11h60.683l104.235 69.165c1.837 1.219 3.956 1.834 6.083 1.834 1.783 0 3.571-.433 5.2-1.307 3.57-1.916 5.799-5.64 5.799-9.693v-271c0-4.052-2.228-7.776-5.798-9.692zm-165.202 91.693h42v107h-42zm149 168.5-85-56.401v-117.197l85-56.402z" fill="#0496FF"/></g><g/><g/><g/><g/><g/><g/><g/><g/><g/><g/><g/><g/><g/><g/><g/></svg>