<svg id="Capa_1" enable-background="new 0 0 512 512" viewBox="0 0 512 512" xmlns="http://www.w3.org/2000/svg" fill="#052438"><g><g><g><path d="m256 512c-141.159 0-256-114.841-256-256s114.841-256 256-256 256 114.841 256 256-114.841 256-256 256zm0-490c-129.028 0-234 104.972-234 234s104.972 234 234 234 234-104.972 234-234-104.972-234-234-234z"/></g></g><g><g><path d="m141 292c-19.851 0-36-16.149-36-36s16.149-36 36-36 36 16.15 36 36c0 19.851-16.149 36-36 36zm0-50c-7.72 0-14 6.281-14 14s6.28 14 14 14 14-6.28 14-14c0-7.719-6.28-14-14-14z" fill="#0496FF"/></g><g><path d="m256 292c-19.851 0-36-16.149-36-36s16.149-36 36-36 36 16.15 36 36c0 19.851-16.149 36-36 36zm0-50c-7.72 0-14 6.281-14 14s6.28 14 14 14 14-6.28 14-14c0-7.719-6.28-14-14-14z" fill="#0496FF"/></g><g><path d="m371 292c-19.851 0-36-16.149-36-36s16.149-36 36-36 36 16.15 36 36c0 19.851-16.149 36-36 36zm0-50c-7.72 0-14 6.281-14 14s6.28 14 14 14 14-6.28 14-14c0-7.719-6.28-14-14-14z" fill="#0496FF"/></g></g></g><g/><g/><g/><g/><g/><g/><g/><g/><g/><g/><g/><g/><g/><g/><g/></svg>