<svg id="Capa_1" enable-background="new 0 0 512 512" viewBox="0 0 512 512" xmlns="http://www.w3.org/2000/svg" fill="#E6ECF2"><g><g><g><path d="m421 512h-330c-50.178 0-91-40.822-91-91v-330c0-50.178 40.822-91 91-91h330c50.178 0 91 40.822 91 91v330c0 50.178-40.822 91-91 91zm-330-490c-38.047 0-69 30.953-69 69v330c0 38.047 30.953 69 69 69h330c38.047 0 69-30.953 69-69v-330c0-38.047-30.953-69-69-69z"/></g></g><g><g><path d="m341.744 429.477c-1.642 0-3.292-.367-4.823-1.114-3.778-1.845-6.175-5.682-6.175-9.886v-26.402h-131.292c-31.145 0-60.488-12.191-82.625-34.328-22.137-22.138-34.328-51.48-34.328-82.625 0-6.075 4.925-11 11-11h45c6.075 0 11 4.925 11 11 0 13.253 5.221 25.772 14.701 35.252s22 14.701 35.251 14.701h131.292v-26.405c0-4.205 2.397-8.041 6.175-9.886 3.778-1.844 8.278-1.372 11.593 1.214l76.753 59.903c2.671 2.085 4.232 5.284 4.232 8.672s-1.561 6.587-4.232 8.672l-76.753 59.903c-1.971 1.539-4.361 2.329-6.769 2.329zm-236.611-143.356c2.443 21.122 11.906 40.722 27.252 56.068 17.981 17.981 41.8 27.885 67.068 27.885h142.292c6.075 0 11 4.925 11 11v14.864l47.875-37.365-47.875-37.364v14.865c0 6.075-4.925 11-11 11h-142.291c-19.128 0-37.172-7.509-50.808-21.145-10.987-10.986-17.996-24.837-20.305-39.809h-23.208z" fill="#0496FF"/></g><g><path d="m418.499 247.88h-45c-6.075 0-11-4.925-11-11 0-13.253-5.221-25.772-14.701-35.252-9.479-9.48-21.999-14.701-35.251-14.701h-131.293v26.403c0 4.204-2.397 8.041-6.175 9.886-3.78 1.842-8.279 1.372-11.592-1.214l-76.754-59.902c-2.671-2.085-4.232-5.284-4.232-8.672s1.561-6.587 4.232-8.672l76.753-59.903c3.315-2.586 7.813-3.057 11.593-1.214 3.778 1.845 6.175 5.682 6.175 9.886v26.402h131.292c31.145 0 60.488 12.191 82.625 34.328 22.136 22.136 34.328 51.479 34.328 82.625 0 6.075-4.925 11-11 11zm-34.84-22h23.208c-2.444-21.123-11.906-40.723-27.252-56.068-17.981-17.981-41.8-27.885-67.069-27.885h-142.291c-6.075 0-11-4.925-11-11v-14.864l-47.875 37.365 47.875 37.364v-14.865c0-6.075 4.925-11 11-11h142.292c19.129 0 37.173 7.51 50.808 21.145 10.986 10.986 17.995 24.836 20.304 39.808z" fill="#0496FF"/></g></g></g><g/><g/><g/><g/><g/><g/><g/><g/><g/><g/><g/><g/><g/><g/><g/></svg>