<svg id="Capa_1" enable-background="new 0 0 512 512" viewBox="0 0 512 512" xmlns="http://www.w3.org/2000/svg" fill="#E6ECF2"><g><g><g><path d="m256 512c-141.159 0-256-114.841-256-256s114.841-256 256-256 256 114.841 256 256-114.841 256-256 256zm0-490c-129.028 0-234 104.972-234 234s104.972 234 234 234 234-104.972 234-234-104.972-234-234-234z"/></g><g><path d="m184.369 243.859c-3.946 0-7.76-2.128-9.733-5.859-2.841-5.37-.79-12.026 4.58-14.867l98.281-51.985c5.372-2.841 12.027-.789 14.867 4.581 2.841 5.37.79 12.026-4.58 14.867l-98.281 51.985c-1.64.866-3.4 1.278-5.134 1.278z"/></g><g><path d="m282.631 342.132c-1.734 0-3.493-.412-5.134-1.279l-98.281-51.985c-5.37-2.841-7.421-9.497-4.58-14.867 2.841-5.371 9.493-7.421 14.867-4.581l98.281 51.985c5.37 2.841 7.421 9.497 4.58 14.867-1.973 3.731-5.788 5.86-9.733 5.86z"/></g></g><g><g><path d="m140.604 314.105c-32.039 0-58.104-26.065-58.104-58.105 0-32.039 26.065-58.105 58.104-58.105s58.106 26.066 58.106 58.105c0 32.04-26.066 58.105-58.106 58.105zm0-94.21c-19.908 0-36.104 16.197-36.104 36.105 0 19.909 16.196 36.105 36.104 36.105s36.106-16.196 36.106-36.105c0-19.908-16.197-36.105-36.106-36.105z" fill="#0496FF"/></g><g><path d="m326.395 412.378c-32.039 0-58.105-26.066-58.105-58.105 0-32.04 26.066-58.105 58.105-58.105s58.105 26.066 58.105 58.105-26.066 58.105-58.105 58.105zm0-94.211c-19.908 0-36.105 16.197-36.105 36.105s16.197 36.105 36.105 36.105 36.105-16.197 36.105-36.105-16.197-36.105-36.105-36.105z" fill="#0496FF"/></g><g><path d="m326.395 215.833c-32.039 0-58.105-26.066-58.105-58.105s26.066-58.105 58.105-58.105 58.105 26.066 58.105 58.105-26.066 58.105-58.105 58.105zm0-94.211c-19.908 0-36.105 16.197-36.105 36.105s16.197 36.105 36.105 36.105 36.105-16.197 36.105-36.105-16.197-36.105-36.105-36.105z" fill="#0496FF"/></g></g></g><g/><g/><g/><g/><g/><g/><g/><g/><g/><g/><g/><g/><g/><g/><g/></svg>