<svg id="Capa_1" enable-background="new 0 0 512 512" viewBox="0 0 512 512" xmlns="http://www.w3.org/2000/svg" fill="#052438"><g><path d="m471.429 405.457c22.909-26.465 3.651-68.727-31.68-68.582-35.328-.145-54.59 42.124-31.679 68.582-12.168 5.962-22.415 15.247-29.571 26.663-7.156-11.416-17.403-20.701-29.571-26.663 22.909-26.465 3.651-68.727-31.68-68.582-35.328-.145-54.59 42.124-31.679 68.582-12.168 5.962-22.415 15.247-29.571 26.663-7.156-11.416-17.403-20.701-29.571-26.663 22.909-26.465 3.651-68.727-31.68-68.582-35.328-.145-54.59 42.124-31.679 68.582-12.168 5.962-22.415 15.247-29.571 26.663-7.156-11.416-17.403-20.701-29.571-26.663 22.909-26.465 3.651-68.727-31.68-68.582-35.328-.145-54.59 42.124-31.679 68.582-23.997 11.76-40.567 36.437-40.567 64.918v30.625c0 6.075 4.925 11 11 11 153.526-.002 336.482.002 490 0 6.075 0 11-4.925 11-11v-30.625c0-28.481-16.569-53.158-40.571-64.918zm-51.304-26.957c0-10.821 8.804-19.625 19.625-19.625 26.035 1.078 26.028 38.176 0 39.25-10.821 0-19.625-8.804-19.625-19.625zm-122.5 0c0-10.821 8.804-19.625 19.625-19.625 26.035 1.078 26.028 38.176 0 39.25-10.821 0-19.625-8.804-19.625-19.625zm-122.5 0c0-10.821 8.804-19.625 19.625-19.625 26.035 1.078 26.028 38.176 0 39.25-10.821 0-19.625-8.804-19.625-19.625zm-122.5 0c0-10.821 8.804-19.625 19.625-19.625 26.035 1.078 26.028 38.176 0 39.25-10.821 0-19.625-8.804-19.625-19.625zm-30.625 91.875c2.768-66.676 97.754-66.632 100.5 0v19.625h-100.5zm122.5 0c2.768-66.676 97.754-66.632 100.5 0v19.625h-100.5zm122.5 0c2.768-66.676 97.754-66.632 100.5 0v19.625h-100.5zm223 19.625h-100.5v-19.625c0-27.708 22.542-50.25 50.25-50.25s50.25 22.542 50.25 50.25z" fill="#0496FF"/><path d="m287.679 129.832c22.909-26.465 3.651-68.727-31.68-68.582-35.328-.145-54.59 42.124-31.679 68.582-24.001 11.76-40.571 36.437-40.571 64.918v30.625c0 6.075 4.925 11 11 11s11-4.925 11-11v-30.625c0-27.708 22.542-50.25 50.25-50.25s50.25 22.542 50.25 50.25v30.625c0 6.075 4.925 11 11 11s11-4.925 11-11v-30.625c.001-28.481-16.568-53.158-40.57-64.918zm-51.304-26.957c0-10.821 8.804-19.625 19.625-19.625 26.035 1.078 26.028 38.176 0 39.25-10.821 0-19.625-8.804-19.625-19.625z" fill="#0496FF"/><path d="m439.75 0h-367.5c-6.075 0-11 4.925-11 11v214.375c0 6.075 4.925 11 11 11h142.125v39.25h-50.25c-6.075 0-11 4.925-11 11s4.925 11 11 11c30.546-.004 91.965.003 122.5 0h61.25c6.075 0 11-4.925 11-11s-4.925-11-11-11h-50.25v-39.25h142.125c6.075 0 11-4.925 11-11v-214.375c0-6.075-4.925-11-11-11zm-164.125 275.625h-39.25v-39.25h39.25zm153.125-61.25c-98.866 0-246.65 0-345.5 0v-192.375h345.5z"/></g><g/><g/><g/><g/><g/><g/><g/><g/><g/><g/><g/><g/><g/><g/><g/></svg>