<svg id="Capa_1" enable-background="new 0 0 511.502 511.502" viewBox="0 0 511.502 511.502" xmlns="http://www.w3.org/2000/svg" fill="#E6ECF2"><g><g><path d="m324.628 400.816c-16.552 0-33.103-6.3-45.704-18.9 0 0-149.832-149.833-149.832-149.833-12.208-12.208-18.932-28.439-18.932-45.705.317-30.559 16.575-43.505 36.412-63.185 15.218-15.218 39.98-15.218 55.199 0l19.052 19.051c9.643 9.643 13.574 23.851 10.263 37.08l-7.194 28.731 79.059 79.059 28.732-7.194c13.229-3.313 27.438.621 37.081 10.263l19.051 19.051c7.372 7.372 11.433 17.174 11.433 27.6s-4.06 20.228-11.433 27.6l-17.48 17.48c-12.603 12.602-29.155 18.902-45.707 18.902zm-150.456-267.046c-4.362 0-8.723 1.66-12.043 4.98 0 0-17.48 17.48-17.48 17.48-8.053 8.053-12.488 18.76-12.488 30.148 0 11.389 4.435 22.095 12.488 30.148 0 0 149.832 149.832 149.832 149.832 16.624 16.624 43.674 16.623 60.296 0 0 0 17.48-17.48 17.48-17.48 6.602-6.345 6.612-17.743 0-24.086 0 0-19.051-19.052-19.051-19.052-4.209-4.208-10.412-5.921-16.182-4.478 0 0-34.775 8.707-34.775 8.707-3.752.939-7.717-.159-10.45-2.892l-87.87-87.87c-2.733-2.733-3.831-6.701-2.892-10.45 0 0 8.707-34.775 8.707-34.775 1.445-5.773-.271-11.973-4.478-16.181 0 0-19.052-19.051-19.052-19.051-3.319-3.319-7.681-4.98-12.042-4.98z" fill="#0496FF"/></g><g><path d="m500.506 511.502h-245c-68.38 0-132.667-26.628-181.02-74.981-99.301-95.29-99.318-266.75.003-362.038 95.289-99.303 266.747-99.319 362.036.003 96.309 92.449 99.718 257.77 7.615 354.094l64.143 64.144c6.898 6.847 1.947 18.813-7.777 18.778zm-245-490c-310.482 12.883-310.298 455.209.002 468-.002 0 218.442 0 218.442 0s-52.98-52.98-52.98-52.98c-4.296-4.296-4.296-11.261 0-15.557 146.861-145.631 41.427-399.964-165.464-399.463z"/></g></g><g/><g/><g/><g/><g/><g/><g/><g/><g/><g/><g/><g/><g/><g/><g/></svg>