<svg id="Capa_1" enable-background="new 0 0 511.95 511.95" viewBox="0 0 511.95 511.95" xmlns="http://www.w3.org/2000/svg" fill="#052438"><g><g><path d="m347.85 113.825h-56.044c-15.715-.051-28.041-8.501-35.831-21.823-7.79 13.321-20.12 21.773-35.831 21.823h-56.044c-6.075 0-11-4.925-11-11s4.925-11 11-11h56.044c5.943 0 11.462-2.95 14.764-7.893l11.92-17.843c4.156-6.462 14.136-6.468 18.293 0 0 0 11.92 17.843 11.92 17.843 3.302 4.942 8.821 7.893 14.764 7.893h56.044c14.535.55 14.643 21.401.001 22z" fill="#0496FF"/></g><g><path d="m286.6 420.075h-61.25c-22.952 0-41.625-18.673-41.625-41.625s18.673-41.625 41.625-41.625h61.25c55.206 2.278 55.221 80.965 0 83.25zm-61.25-61.25c-26.019 1.07-26.043 38.169 0 39.25h61.25c26.019-1.07 26.043-38.169 0-39.25z" fill="#0496FF"/></g><g><path d="m255.975 218.226c-11.331 0-21.935-4.656-29.86-13.109-9.553-11.038 5.647-25.296 16.051-15.047 7.354 8.155 20.265 8.154 27.619 0 10.39-10.244 25.61 4 16.051 15.047-7.926 8.453-18.53 13.109-29.861 13.109z"/></g><path d="m470.35 489.95h-19.625v-200.757c0-24.395-19.847-44.243-44.243-44.243h-70.413c14.551-18.067 22.776-40.768 22.776-64.523v-77.607c0-27.487-10.702-53.32-30.131-72.739-64.025-64.552-175.82-18.23-175.608 72.74-.001-.001-.001 77.605-.001 77.605 0 23.756 8.225 46.456 22.776 64.523h-70.413c-24.396 0-44.243 19.848-44.243 44.243v200.758h-19.625c-14.479.534-14.702 21.364 0 22h30.625s367.5 0 367.5 0 30.625 0 30.625 0c14.437-.514 14.743-21.348 0-22zm-295.245-309.524v-77.606c-.158-71.513 87.719-107.937 138.055-57.18 15.274 15.264 23.685 35.571 23.685 57.18v77.606c0 25.399-11.948 49.273-32.126 64.523h-97.489c-20.177-15.249-32.125-39.123-32.125-64.523zm253.62 309.524h-345.5v-200.757c0-12.265 9.978-22.243 22.243-22.243 89.316.007 211.706-.005 301.015 0 12.265 0 22.243 9.978 22.243 22.243-.001 0-.001 200.757-.001 200.757z"/></g><g/><g/><g/><g/><g/><g/><g/><g/><g/><g/><g/><g/><g/><g/><g/></svg>