<svg id="Capa_1" enable-background="new 0 0 511.502 511.502" viewBox="0 0 511.502 511.502" xmlns="http://www.w3.org/2000/svg" fill="#052438"><g><g><path d="m255.506 347.829c-6.075 0-11-4.925-11-11v-162.655c0-6.075 4.925-11 11-11s11 4.925 11 11v162.655c0 6.075-4.925 11-11 11z" fill="#0496FF"/></g><g><path d="m194.256 306.149c-6.075 0-11-4.925-11-11v-79.295c0-6.075 4.925-11 11-11s11 4.925 11 11v79.295c0 6.075-4.925 11-11 11z" fill="#0496FF"/></g><g><path d="m133.006 347.829c-6.075 0-11-4.925-11-11v-162.655c0-6.075 4.925-11 11-11s11 4.925 11 11v162.655c0 6.075-4.925 11-11 11z" fill="#0496FF"/></g><g><path d="m378.006 347.829c-6.075 0-11-4.925-11-11v-162.655c0-6.075 4.925-11 11-11s11 4.925 11 11v162.655c0 6.075-4.925 11-11 11z" fill="#0496FF"/></g><g><path d="m316.756 306.149c-6.075 0-11-4.925-11-11v-79.295c0-6.075 4.925-11 11-11s11 4.925 11 11v79.295c0 6.075-4.925 11-11 11z" fill="#0496FF"/></g><g><path d="m500.506 511.502h-245c-68.38 0-132.668-26.628-181.02-74.981-99.302-95.289-99.318-266.751.003-362.038 95.288-99.303 266.748-99.319 362.036.003 96.309 92.449 99.718 257.77 7.615 354.094l64.143 64.144c6.898 6.847 1.947 18.813-7.777 18.778zm-245-490c-310.482 12.884-310.298 455.209.002 468-.002 0 218.442 0 218.442 0l-52.98-52.98c-4.296-4.296-4.296-11.261 0-15.557 146.861-145.631 41.427-399.964-165.464-399.463z"/></g></g><g/><g/><g/><g/><g/><g/><g/><g/><g/><g/><g/><g/><g/><g/><g/></svg>