<svg id="Capa_1" enable-background="new 0 0 512 512" viewBox="0 0 512 512" xmlns="http://www.w3.org/2000/svg" fill="#E6ECF2"><g><path d="m146.35 339.818c32.572-35.929 6.514-94.995-42.461-94.818-48.973-.177-75.034 58.899-42.459 94.818-34.781 9.56-60.415 41.443-60.415 79.219v20.713c0 6.075 4.925 11 11 11h183.75c6.075 0 11-4.925 11-11v-20.713c0-37.776-25.634-69.659-60.415-79.219zm-42.46-72.818c19.265 0 34.938 15.673 34.938 34.938-1.919 46.349-67.963 46.336-69.875 0 0-19.265 15.673-34.938 34.937-34.938zm80.875 161.75h-161.75v-9.713c0-33.174 26.988-60.162 60.162-60.162h41.427c33.173 0 60.162 26.988 60.162 60.162v9.713z" fill="#0496FF"/><path d="m450.57 401.068c32.572-35.929 6.515-94.995-42.461-94.818-48.973-.177-75.034 58.899-42.46 94.818-34.781 9.56-60.415 41.443-60.415 79.219v20.713c0 6.075 4.925 11 11 11h183.75c6.075 0 11-4.925 11-11v-20.713c.001-37.776-25.633-69.659-60.414-79.219zm-42.46-72.818c19.265 0 34.938 15.673 34.938 34.938-1.919 46.349-67.963 46.336-69.875 0-.001-19.265 15.672-34.938 34.937-34.938zm80.875 161.75h-161.75v-9.713c0-33.174 26.988-60.162 60.162-60.162h41.427c33.173 0 60.162 26.988 60.162 60.162v9.713z" fill="#0496FF"/><g><path d="m317.25 144.5c-12.925.303-14.89-19.562-2.15-21.79 15.56-2.8 17.958 21.496 2.15 21.79z" fill="#0496FF"/></g><g><path d="m360.82 144.5c-12.927.3-14.887-19.561-2.149-21.79 15.559-2.801 17.953 21.497 2.149 21.79z" fill="#0496FF"/></g><g><path d="m273.68 144.5c-15.812-.297-13.407-24.593 2.151-21.79 12.734 2.233 10.775 22.093-2.151 21.79z" fill="#0496FF"/></g><path d="m378.5 61.25h-51.086c-5.314-34.637-35.314-61.25-71.414-61.25h-122.5c-39.839 0-72.25 32.411-72.25 72.25v122.5c-.031 9.685 11.889 14.7 18.778 7.778 0 0 58.028-58.028 58.028-58.028h46.527c4.644 34.3 36.646 61.91 71.418 61.249 0 .001 117.943.001 117.943.001s58.028 58.028 58.028 58.028c3.156 3.162 7.918 4.077 11.988 2.385 4.11-1.703 6.79-5.714 6.79-10.163v-122.5c0-39.839-32.411-72.25-72.25-72.25zm-245 61.25c-2.917 0-5.715 1.159-7.778 3.222l-42.472 42.471v-95.943c0-27.708 22.542-50.25 50.25-50.25h122.5c23.93 0 44.007 16.815 49.037 39.25h-49.037c-34.713-.561-66.642 26.883-71.414 61.25zm295.25 106.943s-42.472-42.472-42.472-42.472c-2.063-2.062-4.861-3.222-7.778-3.222h-122.5c-13.427 0-26.044-5.227-35.533-14.726-31.525-31.253-8.912-85.881 35.533-85.774-.001 0 61.249 0 61.249 0s61.25 0 61.25 0c27.708 0 50.25 22.542 50.25 50.25.001.001.001 95.944.001 95.944z"/></g><g/><g/><g/><g/><g/><g/><g/><g/><g/><g/><g/><g/><g/><g/><g/></svg>