<svg id="Capa_1" enable-background="new 0 0 512.022 512.022" viewBox="0 0 512.022 512.022" xmlns="http://www.w3.org/2000/svg" fill="#E6ECF2"><g><path d="m380.994 105.574c38.704-38.137 11.276-105.684-43.666-105.563-54.94-.121-82.372 67.436-43.665 105.562-15.706 5.397-28.969 16.075-37.663 29.913-8.693-13.838-21.956-24.516-37.663-29.913 38.706-38.137 11.277-105.683-43.666-105.562-54.94-.122-82.371 67.436-43.664 105.562-28.277 9.717-48.662 36.56-48.662 68.093v40.664c.589 14.603 21.43 14.573 22 0v-40.664c0-27.567 22.428-49.995 49.995-49.995h40.664c27.568 0 49.996 22.428 49.996 49.995v40.664c0 6.075 4.925 11 11 11s11-4.925 11-11v-40.664c0-27.567 22.428-49.995 49.996-49.995h40.664c27.567 0 49.995 22.428 49.995 49.995v40.664c.549 14.538 21.401 14.64 22 0v-40.664c.001-31.532-20.385-58.375-48.661-68.092zm-206.322-83.563c21.962 0 39.83 17.868 39.83 39.83-2.189 52.839-77.479 52.825-79.659 0 0-21.962 17.867-39.83 39.829-39.83zm162.656 0c21.962 0 39.829 17.868 39.829 39.83-2.188 52.84-77.479 52.824-79.659 0 0-21.962 17.869-39.83 39.83-39.83z" fill="#0496FF"/><g><path d="m501 481.513h-162.672c-6.075 0-11-4.925-11-11s4.925-11 11-11h149.275l-46.465-234.183h-370.275l-46.466 234.183h149.275c6.075 0 11 4.925 11 11s-4.925 11-11 11h-162.672c-3.293 0-6.412-1.475-8.501-4.02-2.09-2.545-2.93-5.892-2.289-9.121 0 0 50.83-256.183 50.83-256.183 1.022-5.149 5.54-8.859 10.79-8.859h388.34c5.25 0 9.768 3.71 10.79 8.859l50.83 256.183c1.443 6.56-4.04 13.313-10.79 13.141z"/></g><path d="m299.684 392.238c38.682-38.144 11.246-105.668-43.684-105.546-54.928-.122-82.366 67.412-43.683 105.546-28.271 9.721-48.645 36.581-48.645 68.109v40.664c0 6.075 4.925 11 11 11h162.656c6.075 0 11-4.925 11-11v-40.664c0-31.528-20.373-58.389-48.644-68.109zm-43.684-83.546c21.962 0 39.83 17.868 39.83 39.83-2.188 52.839-77.48 52.823-79.66 0 0-21.962 17.868-39.83 39.83-39.83zm70.328 181.319h-140.656v-29.664c0-27.568 22.428-49.996 49.996-49.996h40.664c27.568 0 49.996 22.428 49.996 49.996z" fill="#0496FF"/></g><g/><g/><g/><g/><g/><g/><g/><g/><g/><g/><g/><g/><g/><g/><g/></svg>