<svg id="Capa_1" enable-background="new 0 0 512 512" viewBox="0 0 512 512" xmlns="http://www.w3.org/2000/svg" fill="#E6ECF2"><g><g fill="#0496FF"><path d="m139.531 234.877h-106.531v22h117.531c6.075 0 11-4.925 11-11v-102.995h-22z"/><path d="m205.531 142.882h-22v102.995c0 6.075 4.925 11 11 11h117.531v-22h-106.531z"/><path d="m183.531 289.877v102.995h22v-91.995h106.531v-22h-117.531c-6.075 0-11 4.925-11 11z"/><path d="m150.531 278.877h-117.531v22h106.531v91.995h22v-102.995c0-6.075-4.925-11-11-11z"/><path d="m183.532 99.547h.004.001v-22.843c0-.013-.001-.026-.001-.039v-.077c.063-6.477 5.346-11.728 11.837-11.728 6.53 0 11.843 5.313 11.843 11.843 0 5.465-3.696 10.194-8.989 11.5l5.269 21.359c7.959-1.963 14.653-6.629 19.216-12.878l2.314 13.029c25.79-4.58 44.507-26.94 44.507-53.167 0-29.776-24.225-54.001-54.001-54.001-17.529 0-33.127 8.4-42.999 21.381-9.872-12.98-25.47-21.381-42.999-21.381-29.776 0-54.001 24.225-54.001 54.001 0 26.227 18.718 48.587 44.508 53.167l2.314-13.028c4.564 6.249 11.257 10.915 19.216 12.878l5.269-21.359c-5.292-1.306-8.989-6.035-8.989-11.5 0-6.53 5.313-11.843 11.843-11.843 6.495 0 11.78 5.256 11.838 11.737v.048c0 .019-.001.038-.001.058v22.843h.001.004.001 21.993zm32.001-75.002c17.646 0 32.001 14.355 32.001 32.001 0 13.155-7.94 24.666-19.637 29.537.858-2.991 1.32-6.139 1.32-9.38 0-18.661-15.182-33.843-33.843-33.843-3.246 0-6.383.469-9.357 1.326 4.845-11.526 16.25-19.641 29.516-19.641zm-65.839 18.315c-18.661 0-33.843 15.182-33.843 33.843 0 3.241.462 6.388 1.32 9.379-11.697-4.872-19.637-16.382-19.637-29.537 0-17.646 14.355-32.001 32.001-32.001 13.266 0 24.671 8.115 29.516 19.642-2.974-.857-6.111-1.326-9.357-1.326z"/><path d="m464.678 376.601c-1.139-3.503-3.955-6.205-7.504-7.195l-30.415-8.492-17.476-26.303c-2.039-3.068-5.479-4.913-9.162-4.913-3.685 0-7.124 1.844-9.162 4.913l-17.475 26.303-30.415 8.492c-3.548.991-6.365 3.692-7.504 7.195-1.138 3.504-.447 7.345 1.842 10.232l19.614 24.748-1.322 31.551c-.154 3.681 1.544 7.195 4.524 9.36 1.906 1.385 4.176 2.101 6.467 2.101 1.291 0 2.589-.227 3.834-.69l29.597-11.008 29.599 11.008c3.451 1.284 7.319.754 10.3-1.411 2.98-2.166 4.679-5.679 4.524-9.36l-1.322-31.551 19.614-24.748c2.289-2.887 2.979-6.728 1.842-10.232zm-41.239 24.521c-1.64 2.068-2.48 4.657-2.37 7.293l.801 19.096-17.915-6.663c-1.236-.46-2.535-.69-3.834-.69s-2.598.23-3.835.69l-17.913 6.663.801-19.096c.11-2.637-.73-5.226-2.37-7.293l-11.871-14.979 18.408-5.14c2.542-.709 4.744-2.31 6.204-4.508l10.576-15.919 10.577 15.92c1.46 2.198 3.662 3.798 6.204 4.507l18.408 5.14z"/></g><path d="m400.121 285.698c-29.836 0-56.981 11.741-77.06 30.844v-162.66h11c6.075 0 11-4.925 11-11v-44c0-6.075-4.925-11-11-11h-323.061c-6.075 0-11 4.925-11 11v44c0 6.075 4.925 11 11 11h11v238.99c0 6.075 4.925 11 11 11h255.424c3.277 58.772 52.121 105.583 111.697 105.583 61.69 0 111.879-50.188 111.879-111.878s-50.188-111.879-111.879-111.879zm-378.121-175.816h301.062v22h-301.062zm22 44h257.062v191.744c-5.853 11.116-9.888 23.33-11.711 36.246h-245.351zm356.121 333.573c-49.559 0-89.878-40.319-89.878-89.878s40.319-89.878 89.878-89.878c49.56 0 89.879 40.319 89.879 89.878s-40.319 89.878-89.879 89.878z"/></g><g/><g/><g/><g/><g/><g/><g/><g/><g/><g/><g/><g/><g/><g/><g/></svg>