<svg id="Layer_1" enable-background="new 0 0 512 512" viewBox="0 0 512 512" xmlns="http://www.w3.org/2000/svg" fill="#052438"><g><path d="m287.203 198.194c-4.296-4.296-11.261-4.296-15.557 0l-15.64 15.641-15.64-15.641c-4.296-4.296-11.261-4.296-15.557 0-4.295 4.296-4.295 11.261 0 15.557l20.197 20.197v58.075h22v-58.075l20.197-20.197c4.295-4.296 4.295-11.261 0-15.557z" fill="#0496FF"/><path d="m447.343 303.022h-122.004c-3.253-9.175-10.456-16.496-19.554-19.91 24.185-16.424 38.924-43.909 38.924-73.424 0-23.929-9.384-46.362-26.423-63.165-17.036-16.801-39.595-25.858-63.548-25.536-23.071.322-44.841 9.535-61.301 25.942-13.861 13.818-22.631 31.417-25.29 50.406h-98.311c-26.377 0-47.836-21.459-47.836-47.836s21.459-47.836 47.836-47.836h320.712v-22h-320.712c-38.508 0-69.836 31.329-69.836 69.837s31.328 69.836 69.836 69.836h97.98c2.815 25.805 16.801 49.131 38.396 63.778-12.51 4.695-21.436 16.779-21.436 30.909 0 15.226 10.365 28.076 24.41 31.866l16.494 38.469c1.734 4.043 5.71 6.665 10.11 6.665h40.421c4.4 0 8.376-2.622 10.11-6.665l16.494-38.469c10.489-2.83 18.925-10.714 22.525-20.866h122.003c23.521 0 42.657 19.136 42.657 42.658s-19.136 42.657-42.657 42.657h-301.092c-2.922-1.551-5.93-2.961-9.015-4.22.472-.435.938-.879 1.397-1.332 10.639-10.502 16.498-24.518 16.498-39.466v-30.236c0-30.577-24.876-55.453-55.453-55.453s-55.453 24.876-55.453 55.453v6.7l-8.436 8.435c-21.39 21.391-24.907 54.698-8.734 80.023-16.769 17.843-27.055 41.847-27.055 68.208v2.55c0 6.075 4.925 11 11 11h177.355c6.075 0 11-4.925 11-11v-2.55c0-25.342-9.507-48.506-25.141-66.113h273.128c35.652 0 64.657-29.005 64.657-64.658.001-35.652-29.004-64.657-64.656-64.657zm-258.043-94.5c.606-35.641 30.099-65.041 65.745-65.538 18.014-.235 34.983 6.568 47.794 19.202 12.813 12.637 19.871 29.506 19.871 47.501 0 24.111-13.084 46.424-34.147 58.232-3.472 1.946-5.621 5.616-5.621 9.595v3.507h-53.883v-3.507c0-3.979-2.149-7.649-5.621-9.595-21.475-12.038-34.556-34.798-34.138-59.397zm79.658 160.5h-25.917l-9.433-22h44.782zm25.267-44h-76.449c-6.065 0-11-4.935-11-11s4.935-11 11-11h76.449c6.065 0 11 4.935 11 11s-4.935 11-11 11zm-194.623 95.75h.084.051c7.107.005 13.994.97 20.538 2.772l-7.285 66.456h-26.625l-7.285-66.456c6.539-1.8 13.421-2.765 20.522-2.772zm.076-22c-.018 0-.036 0-.054 0-.131 0-.262-.001-.394-.003-18.199-.236-33.005-15.539-33.005-34.113v-7.316h3.366c8.297 0 16.606-1.961 24.027-5.672l6.059-3.03 6.059 3.03c7.421 3.71 15.73 5.672 24.027 5.672h3.366v7.979c0 9.018-3.535 17.473-9.953 23.809-6.305 6.223-14.627 9.635-23.474 9.644-.007 0-.016 0-.024 0zm-33.453-63.689c0-18.446 15.007-33.453 33.453-33.453s33.453 15.007 33.453 33.453v.257h-3.366c-4.9 0-9.806-1.158-14.188-3.35l-10.979-5.489c-1.548-.774-3.234-1.161-4.919-1.161s-3.371.387-4.919 1.161l-10.979 5.489c-4.382 2.191-9.289 3.35-14.188 3.35h-3.366v-.257zm-21.238 38.827c2.093 12.593 8.379 23.816 17.346 32.121-6.456 2.618-12.578 5.894-18.282 9.744-7.17-13.238-6.675-29.193.936-41.865zm12.991 59.029 6.255 57.061h-41.776c2.603-23.962 16.149-44.687 35.521-57.061zm77.144 57.061 6.255-57.061c19.372 12.374 32.918 33.1 35.522 57.061z"/><path d="m467.109 69.667c6.277-7.382 10.068-16.939 10.068-27.365 0-23.325-18.976-42.302-42.302-42.302s-42.302 18.977-42.302 42.302c0 10.426 3.792 19.983 10.068 27.365-26.475 12.229-44.891 39.035-44.891 70.061v8.943c0 6.075 4.925 11 11 11h132.25c6.075 0 11-4.925 11-11v-8.943c0-31.026-18.416-57.832-44.891-70.061zm-52.536-27.365c0-11.194 9.107-20.302 20.302-20.302 11.194 0 20.302 9.107 20.302 20.302s-9.107 20.302-20.302 20.302c-11.194 0-20.302-9.107-20.302-20.302zm-34.784 95.37c1.085-29.447 25.379-53.068 55.087-53.068s54.001 23.621 55.086 53.068z" fill="#0496FF"/></g><g/><g/><g/><g/><g/><g/><g/><g/><g/><g/><g/><g/><g/><g/><g/></svg>