<svg id="Layer_1" enable-background="new 0 0 512 512" viewBox="0 0 512 512" xmlns="http://www.w3.org/2000/svg" fill="#052438"><g><path d="m440.869 88.351 8.146-8.131c4.3-4.292 4.306-11.256.014-15.556-4.291-4.299-11.256-4.306-15.556-.014l-8.512 8.497c-14.801-11.01-33.138-17.533-52.972-17.533-48.988 0-88.842 39.791-88.842 88.699 0 48.909 39.854 88.7 88.842 88.7 48.987 0 88.842-39.791 88.842-88.7 0-21.2-7.488-40.686-19.962-55.962zm-68.88 122.661c-36.857 0-66.842-29.921-66.842-66.7s29.985-66.699 66.842-66.699c13.75 0 26.543 4.165 37.18 11.296l-17.474 17.442c-5.902-3.068-12.605-4.804-19.707-4.804-23.613 0-42.824 19.185-42.824 42.765 0 23.581 19.21 42.766 42.824 42.766s42.824-19.185 42.824-42.766c0-8.52-2.508-16.465-6.825-23.14l17.214-17.182c8.549 11.207 13.63 25.183 13.63 40.322 0 36.779-29.986 66.7-66.842 66.7zm20.824-66.699c0 11.45-9.342 20.766-20.824 20.766s-20.824-9.315-20.824-20.766c0-11.45 9.341-20.765 20.824-20.765s20.824 9.315 20.824 20.765z" fill="#0496FF"/><g><path d="m493.315.086h-369.599c-.956-.056-1.918-.086-2.888-.086-26.52 0-48.095 21.545-48.095 48.027 0 4.349.575 8.615 1.713 12.744-10.103 11.121-16.267 25.88-16.267 42.053v14.521c0 17.976 7.616 34.206 19.79 45.634-11.855 5.964-20.876 16.751-24.463 29.764l-45.183 127.181c-2.034 5.725.958 12.014 6.683 14.048 1.218.433 2.46.638 3.683.638 4.524 0 8.764-2.813 10.365-7.32l22.762-64.068v13.378l-20.759 120.662c-.55 3.197.339 6.473 2.429 8.954 2.09 2.48 5.168 3.912 8.412 3.912h44.854v90.872c0 6.075 4.925 11 11 11s11-4.925 11-11v-90.873h24.152v90.873c0 6.075 4.925 11 11 11s11-4.925 11-11v-90.873h44.854c3.244 0 6.322-1.432 8.412-3.912s2.979-5.757 2.429-8.954l-18.704-108.723h301.421c6.075 0 11-4.925 11-11v-266.452c-.001-6.075-4.926-11-11.001-11zm-373.646 21.94c.381.04 3.289.061 3.289.061 12.685 1.027 22.835 11.144 23.876 23.793-7.936-3.631-16.759-5.656-26.054-5.656-9.254 0-18.045 2.019-25.957 5.638 1.076-12.963 11.717-23.261 24.846-23.836zm-.424 40.229c.171 1.438.258 2.894.258 4.355 0 22.148-19.58 30.006-36.347 30.006-.832 0-1.662-.028-2.489-.084 2.951-18.888 18.979-33.505 38.578-34.277zm-36.089 56.362c33.886 0 57.691-20.808 58.333-50.761 11.954 7.074 19.987 20.1 19.987 34.968v14.521c0 22.387-18.213 40.601-40.601 40.601h-.095c-21.987 0-39.947-17.568-40.583-39.403.985.049 1.971.074 2.959.074zm59.268 61.328c14.015 0 25.417 11.372 25.417 25.35v61.244h-94.026v-61.244c0-13.978 11.402-25.35 25.417-25.35zm-87.472 208.182 17.133-99.588h97.487l17.133 99.588zm427.363-121.588h-292.475v-36.153c7.275 8.479 17.793 13.068 28.519 13.068 6.472 0 13.021-1.671 18.979-5.167l40.31-23.65c5.24-3.075 6.996-9.814 3.921-15.054s-9.816-6.996-15.054-3.921l-40.31 23.65c-7.118 4.177-16.271 2.073-20.835-4.793l-21.654-32.574c-.099-.149-.201-.294-.305-.436-4.628-7.922-11.494-14.389-19.725-18.53 12.174-11.428 19.79-27.658 19.79-45.634v-14.521c0-16.168-6.161-30.925-16.269-42.045 1.14-4.138 1.716-8.412 1.716-12.752 0-9.548-2.805-18.454-7.635-25.94h321.027z"/><path d="m212.086 77.613h69.562c6.075 0 11-4.925 11-11s-4.925-11-11-11h-69.562c-6.075 0-11 4.925-11 11s4.925 11 11 11z"/><path d="m212.086 124.371h38.186c6.075 0 11-4.925 11-11s-4.925-11-11-11h-38.186c-6.075 0-11 4.925-11 11s4.925 11 11 11z"/><path d="m212.086 171.127h38.186c6.075 0 11-4.925 11-11s-4.925-11-11-11h-38.186c-6.075 0-11 4.925-11 11s4.925 11 11 11z"/></g></g><g/><g/><g/><g/><g/><g/><g/><g/><g/><g/><g/><g/><g/><g/><g/></svg>