<svg id="Capa_1" enable-background="new 0 0 512 512" viewBox="0 0 512 512" xmlns="http://www.w3.org/2000/svg" fill="#E6ECF2"><g><path d="m486.831 43.618c-6.976-8.117-17.114-12.772-27.816-12.772h-40.603c-.039-8.043-3.116-15.613-8.747-21.419-5.896-6.079-13.807-9.427-22.275-9.427h-262.781c-8.468 0-16.378 3.348-22.273 9.426-5.631 5.806-8.708 13.376-8.747 21.42h-40.603c-10.702 0-20.841 4.655-27.816 12.772s-10.052 18.841-8.441 29.421l13.43 88.246c3.817 25.08 15.399 47.734 33.495 65.515 16.855 16.563 37.844 27.394 60.962 31.529 6.134 9.13 13.256 17.682 21.321 25.503 16.893 16.383 36.847 28.567 58.528 36.027-1.477 18.188-7.909 42.629-28.187 65.786h-2.562c-13.648 0-24.753 11.104-24.753 24.753v18.107h-13.347c-14.336 0-26 11.663-26 26v31.495c0 14.337 11.664 26 26 26h240.77c14.336 0 26-11.663 26-26v-31.495c0-14.337-11.664-26-26-26h-13.346v-18.107c0-13.648-11.104-24.753-24.754-24.753h-2.561c-20.417-23.328-26.725-47.986-28.185-65.787 21.679-7.459 41.633-19.643 58.525-36.026 8.064-7.821 15.187-16.373 21.321-25.503 23.118-4.136 44.106-14.965 60.962-31.529 18.096-17.78 29.678-40.435 33.495-65.515l13.43-88.246c1.609-10.58-1.468-21.304-8.442-29.421zm-407.759 167.49c-14.676-14.421-24.068-32.794-27.164-53.134l-13.43-88.246c-.654-4.296.546-8.477 3.377-11.772 2.832-3.295 6.785-5.11 11.131-5.11h41.249l3.747 122.34c.601 19.605 4.761 38.596 12.132 56.218-11.498-4.588-22.006-11.417-31.042-20.296zm301.312 243.397v31.495c0 2.206-1.794 4-4 4h-240.77c-2.206 0-4-1.794-4-4v-31.495c0-2.206 1.794-4 4-4h240.77c2.206 0 4 1.794 4 4zm-209.423-26v-18.107c0-1.518 1.235-2.753 2.753-2.753h164.57c1.519 0 2.754 1.235 2.754 2.753v18.107zm137.062-42.86h-104.036c14.352-21.346 20.104-42.723 22.021-60.046 9.791 1.875 19.823 2.84 29.991 2.84 10.17 0 20.204-.964 29.996-2.841 1.903 17.046 7.593 38.543 22.028 60.047zm42.725-117.605c-25.532 24.762-59.181 38.398-94.748 38.398-35.566 0-69.216-13.637-94.747-38.398-25.532-24.763-40.192-57.978-41.281-93.528l-4.386-143.208c-.075-2.462.827-4.793 2.543-6.562 1.715-1.769 4.017-2.742 6.48-2.742h262.781c2.464 0 4.766.975 6.481 2.743s2.618 4.099 2.543 6.561l-4.387 143.208c-1.087 35.55-15.748 68.765-41.279 93.528zm122.774-198.311-13.43 88.246c-3.096 20.34-12.488 38.713-27.164 53.134-9.037 8.879-19.545 15.708-31.042 20.296 7.371-17.622 11.531-36.613 12.132-56.219l3.748-122.34h41.249c4.346 0 8.298 1.815 11.13 5.111 2.831 3.295 4.031 7.476 3.377 11.772z"/><g fill="#0496FF"><path d="m261.205 115.715h-17.041c-6.075 0-11 4.925-11 11s4.925 11 11 11h6.041v37.04c0 6.075 4.925 11 11 11s11-4.925 11-11v-48.04c0-6.075-4.925-11-11-11z"/><path d="m256 64.891c-47.334 0-85.844 38.51-85.844 85.844 0 47.335 38.51 85.845 85.844 85.845 47.335 0 85.845-38.51 85.845-85.845-.001-47.335-38.511-85.844-85.845-85.844zm0 149.688c-35.203 0-63.844-28.641-63.844-63.845 0-35.203 28.641-63.844 63.844-63.844 35.204 0 63.845 28.641 63.845 63.844-.001 35.204-28.641 63.845-63.845 63.845z"/></g></g><g/><g/><g/><g/><g/><g/><g/><g/><g/><g/><g/><g/><g/><g/><g/></svg>