<svg id="Capa_1" enable-background="new 0 0 512 512" viewBox="0 0 512 512" xmlns="http://www.w3.org/2000/svg" fill="#052438"><g><g><path d="m136.94 400.165c13.295-11.054 21.774-27.712 21.774-46.313 0-33.202-27.012-60.214-60.213-60.214-33.202 0-60.214 27.012-60.214 60.214 0 18.601 8.478 35.259 21.774 46.313-35.269 15.56-60.061 51.854-60.061 94.04v6.795c0 6.075 4.925 11 11 11h175c6.075 0 11-4.925 11-11v-6.795c0-42.186-24.791-78.48-60.06-94.04zm-38.439-84.527c21.071 0 38.213 17.143 38.213 38.214s-17.143 38.213-38.213 38.213c-21.071 0-38.214-17.143-38.214-38.213 0-21.072 17.142-38.214 38.214-38.214zm-76.397 174.362c2.095-42.242 35.56-75.935 76.396-75.935s74.301 33.693 76.396 75.935z"/><path d="m124.642 157.845c4.706 8.151 14.29 17.867 33.223 17.867h16.933v69.317c0 6.075 4.925 11 11 11h140.403c6.075 0 11-4.925 11-11v-69.317h16.934c18.934-.001 28.517-9.717 33.223-17.867l30.708-53.189c4.817-8.343 6.097-18.063 3.603-27.369-2.493-9.306-8.462-17.084-16.805-21.901-17.223-9.945-39.327-4.022-49.271 13.202l-20.359 35.264h-31.485c9.452-11.011 15.171-25.316 15.171-40.932 0-34.694-28.225-62.92-62.92-62.92s-62.92 28.226-62.92 62.92c0 15.615 5.718 29.92 15.17 40.931h-31.485l-20.36-35.264c-4.817-8.343-12.595-14.312-21.901-16.805-9.305-2.492-19.025-1.214-27.369 3.603-17.223 9.945-23.145 32.048-13.201 49.271zm131.358-135.845c22.563 0 40.92 18.356 40.92 40.92 0 22.563-18.356 40.919-40.92 40.919s-40.92-18.356-40.92-40.919c0-22.564 18.357-40.92 40.92-40.92zm-137.864 52.438c6.719-3.878 15.339-1.568 19.217 5.149l23.535 40.764c1.965 3.403 5.597 5.5 9.526 5.5h171.171c3.93 0 7.562-2.097 9.526-5.5l23.535-40.764c3.879-6.718 12.501-9.027 19.218-5.149 3.254 1.879 5.583 4.913 6.555 8.542.973 3.63.474 7.421-1.405 10.675l-30.708 53.189c-1.846 3.197-5.125 6.867-14.17 6.867h-27.934c-6.075 0-11 4.925-11 11v69.317h-118.403v-69.317c0-6.075-4.925-11-11-11h-27.933c-9.046 0-12.325-3.67-14.17-6.867l-30.708-53.189c-3.88-6.717-1.57-15.338 5.148-19.217z"/><path d="m451.94 400.165c13.295-11.054 21.774-27.712 21.774-46.313 0-33.202-27.012-60.214-60.213-60.214-33.202 0-60.214 27.012-60.214 60.214 0 18.601 8.478 35.259 21.774 46.313-35.269 15.56-60.06 51.855-60.06 94.041v6.794c0 6.075 4.925 11 11 11h175c6.075 0 11-4.925 11-11v-6.795c-.001-42.186-24.793-78.48-60.061-94.04zm-38.44-84.527c21.071 0 38.213 17.143 38.213 38.214s-17.143 38.213-38.213 38.213c-21.071 0-38.214-17.143-38.214-38.213 0-21.072 17.143-38.214 38.214-38.214zm-76.396 174.362c2.095-42.242 35.56-75.935 76.396-75.935s74.301 33.693 76.396 75.935z"/></g><path d="m327.064 346.073-14.143-14.142c-4.296-4.296-11.26-4.295-15.556 0-2.956 2.956-3.878 7.176-2.765 10.92h-11.983c-4.142 0-8.055-1.632-11.02-4.597s-4.597-6.877-4.597-11.019v-37.205c0-6.075-4.925-11-11-11s-11 4.925-11 11v37.205c0 8.611-7.006 15.616-15.617 15.616h-11.983c1.112-3.744.19-7.964-2.765-10.92-4.296-4.296-11.261-4.296-15.557 0l-14.142 14.142c-4.295 4.296-4.296 11.261 0 15.556l14.142 14.143c2.148 2.148 4.963 3.222 7.778 3.222s5.63-1.074 7.778-3.222c2.956-2.956 3.878-7.176 2.766-10.921h11.984c10.391 0 19.812-4.236 26.627-11.071.01.01.02.021.03.031 7.119 7.119 16.558 11.04 26.576 11.04h11.983c-1.112 3.745-.191 7.965 2.765 10.921 2.148 2.148 4.963 3.222 7.778 3.222s5.63-1.074 7.778-3.222l14.143-14.143c2.063-2.063 3.222-4.861 3.222-7.778s-1.159-5.715-3.222-7.778z" fill="#0496FF"/></g><g/><g/><g/><g/><g/><g/><g/><g/><g/><g/><g/><g/><g/><g/><g/></svg>