<svg id="Layer_1" enable-background="new 0 0 512 512" viewBox="0 0 512 512" xmlns="http://www.w3.org/2000/svg" fill="#052438"><g><g fill="#0496FF"><path d="m318.953 62.356-25.047-4.168-11.713-22.424c-5.105-9.776-15.143-15.849-26.193-15.849-11.051 0-21.088 6.073-26.193 15.848l-11.713 22.424-25.048 4.168c-10.927 1.819-19.833 9.481-23.242 19.997-3.399 10.487-.694 21.881 7.059 29.735l17.778 18.011-3.753 24.969c-1.636 10.883 2.883 21.675 11.792 28.164 8.949 6.517 20.669 7.505 30.588 2.577l22.732-11.296 22.733 11.297c4.188 2.081 8.698 3.107 13.186 3.107 6.137 0 12.231-1.919 17.401-5.684 8.909-6.489 13.428-17.28 11.792-28.163l-3.753-24.97 17.778-18.011c7.753-7.854 10.458-19.248 7.059-29.735-3.409-10.515-12.315-18.178-23.243-19.997zm.528 34.277-21.646 21.929c-2.435 2.466-3.564 5.936-3.05 9.362l4.571 30.415c.604 4.013-1.889 6.309-2.987 7.109-1.119.814-4.123 2.51-7.846.66l-27.628-13.729c-1.542-.766-3.219-1.149-4.895-1.149-1.677 0-3.354.383-4.896 1.149l-27.627 13.729c-3.726 1.851-6.728.156-7.847-.659-1.099-.8-3.591-3.096-2.987-7.109l4.571-30.414c.515-3.427-.615-6.896-3.05-9.362l-21.646-21.929c-2.864-2.902-2.204-6.209-1.786-7.496.421-1.301 1.843-4.4 5.926-5.08l30.454-5.068c3.405-.566 6.347-2.698 7.944-5.758l14.25-27.283c1.901-3.641 5.314-4.033 6.693-4.033s4.792.393 6.693 4.033l14.25 27.282c1.598 3.06 4.539 5.191 7.944 5.758l30.453 5.068c4.084.68 5.506 3.779 5.927 5.08.419 1.286 1.08 4.593-1.785 7.495z"/><path d="m407.802 103.566h-13.424c-6.075 0-11 4.925-11 11s4.925 11 11 11h13.424c6.075 0 11-4.925 11-11s-4.925-11-11-11z"/><path d="m373.086 74.573c2.801 0 5.602-1.063 7.747-3.19l9.492-9.416c4.313-4.278 4.341-11.243.063-15.556-4.277-4.314-11.242-4.34-15.557-.063l-9.492 9.416c-4.313 4.278-4.341 11.243-.063 15.556 2.151 2.168 4.98 3.253 7.81 3.253z"/><path d="m380.833 157.749c-4.313-4.278-11.278-4.25-15.557.063-4.278 4.313-4.25 11.278.063 15.556l9.492 9.416c2.146 2.128 4.946 3.19 7.747 3.19 2.83 0 5.659-1.085 7.81-3.253 4.278-4.313 4.25-11.278-.063-15.556z"/><path d="m128.622 114.566c0-6.075-4.925-11-11-11h-13.424c-6.075 0-11 4.925-11 11s4.925 11 11 11h13.424c6.075 0 11-4.925 11-11z"/><path d="m137.169 46.347c-4.313-4.278-11.278-4.251-15.557.063-4.278 4.313-4.25 11.278.063 15.556l9.492 9.416c2.146 2.128 4.946 3.19 7.747 3.19 2.83 0 5.659-1.085 7.81-3.253 4.278-4.313 4.25-11.278-.063-15.556z"/><path d="m131.167 157.749-9.492 9.416c-4.313 4.278-4.341 11.243-.063 15.556 2.15 2.168 4.979 3.253 7.81 3.253 2.801 0 5.602-1.063 7.747-3.19l9.492-9.416c4.313-4.278 4.341-11.243.063-15.556-4.279-4.315-11.244-4.34-15.557-.063z"/></g><path d="m510.537 475.603-106.173-184.717c-1.963-3.414-5.6-5.519-9.537-5.519s-7.574 2.104-9.537 5.519l-34.833 60.603-84.989-143.684c-1.979-3.347-5.579-5.4-9.468-5.4s-7.488 2.053-9.468 5.4l-84.989 143.683-34.833-60.602c-1.963-3.414-5.6-5.519-9.537-5.519s-7.574 2.104-9.537 5.519l-106.173 184.717c-1.956 3.404-1.95 7.592.017 10.991 1.966 3.398 5.595 5.491 9.521 5.491h490c3.926 0 7.555-2.093 9.521-5.491 1.965-3.399 1.971-7.587.015-10.991zm-254.537-240.591 60.597 102.446-8.164 8.575-36.584-27.641c-3.601-2.722-8.499-2.967-12.353-.618l-21.842 13.303-23.541-25.251zm-138.827 83.43 31.501 54.805-57.28 96.838h-61.383zm-.218 151.642 85.483-144.519 25.237 27.07c3.559 3.816 9.311 4.609 13.768 1.894l23.11-14.075 38.448 29.05c1.975 1.493 4.307 2.224 6.627 2.224 2.92 0 5.822-1.158 7.971-3.415l10.638-11.174 66.808 112.947h-278.09zm303.651 0-57.279-96.837 31.501-54.805 87.162 151.643h-61.384z"/></g><g/><g/><g/><g/><g/><g/><g/><g/><g/><g/><g/><g/><g/><g/><g/></svg>