<svg id="Layer_1" enable-background="new 0 0 511.943 511.943" viewBox="0 0 511.943 511.943" xmlns="http://www.w3.org/2000/svg" fill="#052438"><g><g><g><path d="m191.444 429.586c10.816-11.127 17.485-26.306 17.485-43.013v-17.757c0-34.049-27.7-61.749-61.749-61.749s-61.749 27.7-61.749 61.749v17.757c0 16.707 6.669 31.885 17.485 43.013-16.474 6.67-28.126 22.838-28.126 41.676v29.682c0 6.075 4.925 11 11 11h122.78c6.075 0 11-4.925 11-11v-29.682c0-18.838-11.651-35.006-28.126-41.676zm-84.013-60.77c0-21.918 17.831-39.749 39.749-39.749s39.749 17.831 39.749 39.749v17.757c0 21.918-17.831 39.749-39.749 39.749s-39.749-17.831-39.749-39.749zm90.139 121.127h-100.779v-18.682c0-12.648 10.291-22.939 22.939-22.939h54.9c12.648 0 22.939 10.291 22.939 22.939v18.682z"/><path d="m409.026 429.586c10.816-11.127 17.485-26.306 17.485-43.013v-17.757c0-34.049-27.7-61.749-61.749-61.749s-61.749 27.7-61.749 61.749v17.757c0 16.707 6.669 31.885 17.485 43.013-16.474 6.67-28.126 22.838-28.126 41.676v29.682c0 6.075 4.925 11 11 11h122.779c6.075 0 11-4.925 11-11v-29.682c.001-18.838-11.65-35.006-28.125-41.676zm-84.012-60.77c0-21.918 17.831-39.749 39.749-39.749s39.749 17.831 39.749 39.749v17.757c0 21.918-17.831 39.749-39.749 39.749s-39.749-17.831-39.749-39.749zm90.138 121.127h-100.779v-18.682c0-12.648 10.291-22.939 22.939-22.939h54.9c12.648 0 22.939 10.291 22.939 22.939v18.682z"/><path d="m387.017 180.093c.615-72.208-57.599-131.515-129.77-132.204-.43-.005-.854-.007-1.282-.007-34.682 0-67.363 13.474-92.145 38.02-25.086 24.848-38.901 57.894-38.9 93.052 0 20.873 4.99 41.483 14.472 59.923l-6.625 20.296c-2.533 7.759-.839 16.06 4.532 22.204 5.369 6.144 13.363 8.933 21.394 7.462l20.384-3.736c22.448 16.326 48.915 24.922 76.889 24.921h.313c71.481-.165 130.129-58.451 130.738-129.931zm-130.789 107.93h-.261c-24.684 0-47.957-8.04-67.319-23.261-1.953-1.535-4.352-2.352-6.798-2.352-.66 0-1.324.06-1.983.181l-25.141 4.608c-.167.029-.516.096-.862-.301-.347-.397-.236-.735-.183-.899l8.087-24.773c.956-2.93.64-6.127-.874-8.813-9.142-16.226-13.974-34.711-13.974-53.46 0-29.242 11.5-56.737 32.382-77.421 20.885-20.687 48.502-31.884 77.734-31.646 60.054.574 108.493 49.929 107.98 110.019-.504 59.48-49.307 107.981-108.788 108.118z"/></g><g><g><path d="m300.335 139.047h-88.727c-6.075 0-11-4.925-11-11s4.925-11 11-11h88.727c6.075 0 11 4.925 11 11s-4.925 11-11 11z" fill="#0496FF"/></g><g><path d="m321.127 188.879h-130.311c-6.075 0-11-4.925-11-11s4.925-11 11-11h130.311c6.075 0 11 4.925 11 11s-4.925 11-11 11z" fill="#0496FF"/></g><g><path d="m265.328 238.711h-53.72c-6.075 0-11-4.925-11-11s4.925-11 11-11h53.72c6.075 0 11 4.925 11 11s-4.925 11-11 11z" fill="#0496FF"/></g></g><path d="m424.291 88.227c-3.137-.615-6.222.17-8.612 1.921-18.555-30.573-45.794-55.528-78.221-71.331-38.714-18.866-83.128-23.745-125.062-13.734-54.209 12.94-99.472 49.086-124.18 99.167-2.688 5.448-.451 12.044 4.997 14.731 5.449 2.689 12.044.45 14.731-4.997 21.804-44.193 61.736-76.087 109.559-87.503 70.263-16.773 143.482 14.926 179.957 76.047-2.999 1.455-5.302 4.249-5.997 7.771-1.174 5.961 2.707 11.744 8.667 12.919l16.659 3.281c.706.139 1.417.207 2.126.207 2.169 0 4.308-.642 6.135-1.869 2.423-1.629 4.101-4.153 4.66-7.02l3.264-16.685c1.167-5.96-2.72-11.739-8.683-12.905z" fill="#0496FF"/></g></g><g/><g/><g/><g/><g/><g/><g/><g/><g/><g/><g/><g/><g/><g/><g/></svg>