<svg id="Layer_1" enable-background="new 0 0 512 512" viewBox="0 0 512 512" xmlns="http://www.w3.org/2000/svg" fill="#052438"><g><g fill="#0496FF"><path d="m461.211 191.498-10.855-4.498c-1.8-5.761-4.117-11.348-6.928-16.7l4.493-10.844c1.703-4.11.763-8.841-2.383-11.988l-21.778-21.784c-3.145-3.146-7.876-4.088-11.988-2.386l-10.864 4.499c-5.354-2.809-10.94-5.124-16.702-6.921l-4.488-10.837c-1.702-4.11-5.712-6.791-10.162-6.792l-30.803-.004h-.001c-4.449 0-8.459 2.68-10.162 6.789l-4.498 10.855c-5.761 1.799-11.348 4.117-16.701 6.928l-10.844-4.493c-4.11-1.705-8.841-.763-11.988 2.383l-21.784 21.778c-3.146 3.146-4.088 7.877-2.386 11.988l4.499 10.864c-2.809 5.354-5.124 10.94-6.921 16.702l-10.838 4.488c-4.11 1.702-6.791 5.712-6.792 10.162l-.004 30.803c0 4.449 2.679 8.46 6.789 10.164l10.855 4.498c1.8 5.761 4.117 11.348 6.928 16.7l-4.493 10.843c-1.703 4.11-.763 8.841 2.383 11.988l21.778 21.784c3.145 3.146 7.877 4.088 11.987 2.386l10.865-4.499c5.353 2.809 10.94 5.124 16.702 6.921l4.487 10.837c1.702 4.11 5.712 6.791 10.162 6.792l30.803.004h.001c4.449 0 8.459-2.68 10.162-6.789l4.498-10.855c5.761-1.8 11.348-4.117 16.7-6.928l10.843 4.493c4.108 1.704 8.841.762 11.988-2.383l21.784-21.778c3.146-3.146 4.088-7.877 2.386-11.987l-4.499-10.865c2.808-5.353 5.123-10.94 6.921-16.702l10.837-4.488c4.11-1.702 6.791-5.712 6.792-10.162l.008-30.802c0-4.45-2.679-8.461-6.789-10.164zm-15.214 33.614-8.977 3.717c-3.217 1.332-5.613 4.108-6.46 7.485-1.865 7.43-4.811 14.541-8.756 21.134-1.787 2.986-2.056 6.641-.724 9.856l3.727 9.002-11.388 11.385-8.985-3.723c-3.217-1.333-6.876-1.064-9.863.726-6.592 3.949-13.702 6.898-21.13 8.766-3.374.848-6.148 3.243-7.48 6.457l-3.725 8.99-16.103-.002-3.717-8.977c-1.332-3.217-4.108-5.613-7.486-6.46-7.429-1.865-14.539-4.811-21.133-8.756-2.987-1.788-6.642-2.057-9.856-.724l-9.002 3.727-11.385-11.388 3.723-8.985c1.333-3.217 1.064-6.875-.726-9.863-3.949-6.592-6.898-13.702-8.766-21.13-.848-3.374-3.243-6.148-6.458-7.48l-8.99-3.725.002-16.103 8.977-3.717c3.217-1.332 5.614-4.108 6.461-7.486 1.865-7.429 4.811-14.539 8.756-21.133 1.787-2.986 2.056-6.642.724-9.857l-3.728-9.001 11.388-11.385 8.985 3.723c3.216 1.333 6.875 1.064 9.863-.725 6.594-3.95 13.703-6.899 21.13-8.766 3.375-.848 6.148-3.243 7.48-6.458l3.725-8.99 16.103.002 3.717 8.977c1.332 3.217 4.108 5.613 7.486 6.46 7.428 1.864 14.539 4.811 21.133 8.756 2.984 1.787 6.641 2.056 9.856.724l9.001-3.728 11.385 11.388-3.723 8.985c-1.333 3.217-1.064 6.875.726 9.863 3.949 6.592 6.898 13.702 8.766 21.13.848 3.375 3.243 6.148 6.457 7.48l8.99 3.725z"/><path d="m354.168 169.425c-26.274 0-47.65 21.376-47.65 47.65s21.376 47.65 47.65 47.65 47.65-21.376 47.65-47.65-21.376-47.65-47.65-47.65zm0 73.301c-14.144 0-25.65-11.507-25.65-25.65s11.507-25.65 25.65-25.65 25.65 11.507 25.65 25.65-11.506 25.65-25.65 25.65z"/><path d="m128.271 318.236c-2.063-2.063-4.861-3.222-7.778-3.222s-5.715 1.159-7.778 3.222l-59.525 59.525c-3.146 3.146-4.087 7.877-2.384 11.988s5.713 6.791 10.163 6.791h26.525v102.46h22v-113.46c0-6.075-4.925-11-11-11h-10.97l32.969-32.969 32.969 32.969h-10.969c-6.075 0-11 4.925-11 11v113.46h22v-102.46h26.525c4.449 0 8.46-2.68 10.163-6.791s.762-8.842-2.384-11.988z"/></g><g><path d="m481 0h-370c-17.093 0-31 13.907-31 31v247.014c-46.582 16.67-80 61.252-80 113.493 0 66.44 54.053 120.493 120.493 120.493s120.493-54.053 120.493-120.493c0-5.631-.389-11.173-1.14-16.6h241.154c17.093 0 31-13.907 31-31v-312.907c0-17.093-13.907-31-31-31zm9 31v28.244h-210.27v-37.244h201.27c4.962 0 9 4.038 9 9zm-328.756 28.244v-37.244h37.244v37.244zm59.243-37.244h37.243v37.244h-37.243zm-109.487 0h28.244v37.244h-37.244v-28.244c0-4.962 4.038-9 9-9zm9.493 468c-54.309 0-98.493-44.184-98.493-98.493s44.184-98.493 98.493-98.493 98.493 44.184 98.493 98.493-44.184 98.493-98.493 98.493zm360.507-137.093h-246.354c-16.128-47.567-61.207-81.893-114.153-81.893-6.287 0-12.463.484-18.493 1.417v-191.187h388v262.664c0 4.962-4.038 8.999-9 8.999z"/><path d="m230.392 103.244h-95.392c-6.075 0-11 4.925-11 11s4.925 11 11 11h95.392c6.075 0 11-4.925 11-11s-4.925-11-11-11z"/><path d="m210.392 147.244h-75.392c-6.075 0-11 4.925-11 11s4.925 11 11 11h75.392c6.075 0 11-4.925 11-11s-4.925-11-11-11z"/></g></g><g/><g/><g/><g/><g/><g/><g/><g/><g/><g/><g/><g/><g/><g/><g/></svg>