<svg id="Layer_1" enable-background="new 0 0 512 512" viewBox="0 0 512 512" xmlns="http://www.w3.org/2000/svg" fill="#052438"><g><g><g fill="#0496FF"><path d="m385.337 54.018c-2.063-2.067-4.863-3.228-7.783-3.229l-26.182-.003c-.001 0-.001 0-.001 0-6.074 0-10.999 4.924-11 10.999-.001 6.039 4.865 10.941 10.89 11-34.47 40.941-81.325 70.644-133.512 84.343-38.463 10.097-79.268 11.229-118.001 3.276-5.952-1.223-11.766 2.612-12.988 8.563s2.612 11.766 8.563 12.988c18.454 3.789 37.337 5.678 56.25 5.678 24.159 0 48.362-3.083 71.762-9.225 55.794-14.645 105.974-46.174 143.205-89.628.403 5.7 5.15 10.204 10.955 10.212h.018c6.067 0 10.99-4.914 11-10.983l.041-26.202c.003-2.92-1.154-5.722-3.217-7.789z"/><path d="m204.883 141.952c2.621 0 5.251-.931 7.353-2.822 21.325-19.183 38.743-41.502 51.956-66.537 2.044 2.83 5.359 4.564 8.912 4.564.84 0 1.694-.097 2.548-.299 5.911-1.402 9.566-7.331 8.165-13.242l-5.141-21.675c-.674-2.841-2.449-5.297-4.936-6.828-2.485-1.531-5.478-2.009-8.319-1.333l-21.651 5.163c-5.909 1.41-9.558 7.342-8.148 13.252 1.149 4.818 5.303 8.129 10.002 8.427-12.109 23.433-28.241 44.288-48.101 62.154-4.516 4.063-4.884 11.018-.821 15.535 2.172 2.413 5.171 3.641 8.181 3.641z"/></g><path d="m471.288 401.352v-228.767c0-6.075-4.925-11-11-11h-107.077c-6.075 0-11 4.925-11 11v228.599h-21.672v-173.053c0-6.075-4.925-11-11-11h-107.078c-6.075 0-11 4.925-11 11v173.053h-21.672v-117.507c0-6.075-4.925-11-11-11h-107.077c-6.075 0-11 4.925-11 11v117.675c-22.779 1.976-40.712 21.149-40.712 44.431v21.737c0 6.075 4.925 11 11 11h490c6.075 0 11-4.925 11-11v-21.737c0-23.282-17.933-42.455-40.712-44.431zm-107.077-217.767h85.077v217.599h-85.077zm-150.75 55.546h85.077v162.053h-85.077zm-65.672 55.546v106.507h-85.077v-106.507zm342.211 161.844h-468v-10.737c0-12.461 10.138-22.6 22.6-22.6h422.8c12.461 0 22.6 10.138 22.6 22.6z"/></g></g><g/><g/><g/><g/><g/><g/><g/><g/><g/><g/><g/><g/><g/><g/><g/></svg>