<svg id="Layer_1" enable-background="new 0 0 512 512" viewBox="0 0 512 512" xmlns="http://www.w3.org/2000/svg" fill="#052438"><g><path d="m171.444 116.068c-52.688 0-95.553 42.955-95.553 95.754s42.865 95.754 95.553 95.754 95.553-42.955 95.553-95.754-42.864-95.754-95.553-95.754zm72.737 84.751h-61.738v-61.928c31.779 4.798 56.963 30.059 61.738 61.928zm-72.737 84.757c-40.558 0-73.553-33.086-73.553-73.754 0-36.92 27.194-67.59 62.551-72.93v72.927c0 6.075 4.925 11 11 11h72.739c-5.311 35.471-35.905 62.757-72.737 62.757z" fill="#0496FF"/><g><path d="m501 86.384c6.075 0 11-4.925 11-11v-53.76c0-6.075-4.925-11-11-11h-490c-6.075 0-11 4.925-11 11v53.76c0 6.075 4.925 11 11 11h14.778v250.88h-14.778c-6.075 0-11 4.925-11 11v53.759c0 6.075 4.925 11 11 11h234v11.559c-16.232 4.772-28.119 19.825-28.119 37.608 0 21.607 17.549 39.187 39.119 39.187s39.119-17.579 39.119-39.187c0-17.783-11.887-32.836-28.119-37.608v-11.559h234c6.075 0 11-4.925 11-11v-53.759c0-6.075-4.925-11-11-11h-14.778v-250.88zm-227.881 375.805c0 9.477-7.68 17.187-17.119 17.187s-17.119-7.71-17.119-17.187 7.68-17.186 17.119-17.186 17.119 7.71 17.119 17.186zm-251.119-429.565h468v31.76h-468zm468 358.398h-468v-31.759h468zm-25.778-53.758h-416.444v-250.88h416.443v250.88z"/><path d="m305.783 204.889h109.019c6.075 0 11-4.925 11-11v-66.82c0-6.075-4.925-11-11-11h-109.019c-6.075 0-11 4.925-11 11v66.82c0 6.075 4.925 11 11 11zm11-66.821h87.019v44.82h-87.019z"/><path d="m305.783 251.339h109.019c6.075 0 11-4.925 11-11s-4.925-11-11-11h-109.019c-6.075 0-11 4.925-11 11s4.925 11 11 11z"/><path d="m414.802 273.578h-109.019c-6.075 0-11 4.925-11 11s4.925 11 11 11h109.019c6.075 0 11-4.925 11-11s-4.925-11-11-11z"/></g></g><g/><g/><g/><g/><g/><g/><g/><g/><g/><g/><g/><g/><g/><g/><g/></svg>