<svg id="Layer_1" enable-background="new 0 0 512 512" viewBox="0 0 512 512" xmlns="http://www.w3.org/2000/svg" fill="#052438"><g><path d="m434.875 281.349h-167.875v-59.979h-22v59.979h-167.875c-6.075 0-11 4.925-11 11v70.979h22v-59.979h156.875v59.979h22v-59.979h156.875v59.979h22v-70.979c0-6.076-4.924-11-11-11z" fill="#0496FF"/><g><path d="m293.878 126.486c.476-.439.953-.875 1.416-1.332 10.639-10.502 16.498-24.518 16.498-39.465v-30.236c0-30.577-24.875-55.453-55.452-55.453s-55.453 24.876-55.453 55.453v29.574c0 16.311 7.002 31.085 18.118 41.377-36.518 14.806-62.343 50.649-62.343 92.416v2.55c0 6.075 4.925 11 11 11h177.355c6.075 0 11-4.925 11-11v-2.55c.001-41.69-25.728-77.477-62.139-92.334zm-37.538 14.656c7.13 0 14.032.982 20.595 2.789l-7.283 66.439h-26.626l-7.283-66.439c6.565-1.808 13.467-2.789 20.597-2.789zm-33.453-63.433h3.367c8.297 0 16.605-1.961 24.027-5.672l6.059-3.03 6.059 3.03c7.421 3.71 15.73 5.672 24.027 5.672h3.367v7.979c0 9.017-3.535 17.473-9.953 23.808-6.417 6.335-14.917 9.769-23.947 9.642-18.199-.236-33.005-15.539-33.005-34.112v-7.317zm0-22.256c0-18.446 15.007-33.453 33.453-33.453s33.453 15.007 33.453 33.453v.257h-3.367c-4.899 0-9.806-1.158-14.188-3.35l-10.979-5.489c-1.548-.774-3.234-1.161-4.919-1.161s-3.371.387-4.919 1.161l-10.978 5.489c-4.383 2.191-9.29 3.35-14.189 3.35h-3.367zm-8.245 97.872 6.253 57.044h-41.776c2.603-23.958 16.155-44.669 35.523-57.044zm77.142 57.045 6.253-57.044c19.368 12.375 32.92 33.086 35.524 57.044z"/><path d="m288.21 422.007c6.286-7.385 10.092-16.942 10.092-27.377 0-23.325-18.977-42.302-42.302-42.302s-42.302 18.977-42.302 42.302c0 10.435 3.806 19.992 10.092 27.377-26.482 12.226-44.914 39.018-44.914 70.05v8.943c0 6.075 4.925 11 11 11h132.249c6.075 0 11-4.925 11-11v-8.943c0-31.032-18.433-57.824-44.915-70.05zm-32.21-47.679c11.194 0 20.302 9.107 20.302 20.302s-9.107 20.302-20.302 20.302-20.302-9.107-20.302-20.302 9.108-20.302 20.302-20.302zm-55.086 115.672c1.085-29.447 25.379-53.068 55.086-53.068s54.001 23.621 55.086 53.068z"/><path d="m467.086 422.007c6.286-7.385 10.092-16.942 10.092-27.377 0-23.325-18.977-42.302-42.302-42.302-23.326 0-42.302 18.977-42.302 42.302 0 10.435 3.806 19.992 10.092 27.377-26.482 12.226-44.914 39.018-44.914 70.05v8.943c0 6.075 4.925 11 11 11h132.248c6.075 0 11-4.925 11-11v-8.943c0-31.032-18.432-57.824-44.914-70.05zm-52.513-27.377c0-11.194 9.107-20.302 20.302-20.302 11.194 0 20.302 9.107 20.302 20.302s-9.107 20.302-20.302 20.302c-11.194 0-20.302-9.108-20.302-20.302zm-34.784 95.37c1.085-29.447 25.379-53.068 55.087-53.068s54.001 23.621 55.086 53.068z"/><path d="m109.335 422.007c6.286-7.385 10.092-16.942 10.092-27.377 0-23.325-18.977-42.302-42.302-42.302s-42.302 18.977-42.302 42.302c0 10.435 3.806 19.992 10.092 27.377-26.483 12.226-44.915 39.018-44.915 70.05v8.943c0 6.075 4.925 11 11 11h132.25c6.075 0 11-4.925 11-11v-8.943c0-31.032-18.433-57.824-44.915-70.05zm-52.512-27.377c0-11.194 9.107-20.302 20.302-20.302s20.302 9.107 20.302 20.302-9.107 20.302-20.302 20.302-20.302-9.108-20.302-20.302zm-34.785 95.37c1.085-29.447 25.379-53.068 55.086-53.068s54.002 23.621 55.087 53.068z"/></g></g><g/><g/><g/><g/><g/><g/><g/><g/><g/><g/><g/><g/><g/><g/><g/></svg>