<svg id="Capa_1" enable-background="new 0 0 512.001 512.001" viewBox="0 0 512.001 512.001" xmlns="http://www.w3.org/2000/svg" fill="#E6ECF2"><g><path d="m511.369 465.692c-7.022-32.583-28.225-59.73-57.627-74.523 7.667-10.258 12.212-22.979 12.212-36.742 0-33.911-27.589-61.5-61.5-61.5s-61.5 27.589-61.5 61.5c0 13.762 4.545 26.483 12.211 36.741-1.599.805-3.173 1.647-4.723 2.524-.138-.005-.272-.021-.411-.021h-117.525c.771-3.734.778-7.635-.052-11.488-7.022-32.583-28.225-59.73-57.627-74.523 7.667-10.258 12.212-22.979 12.212-36.742 0-33.911-27.589-61.5-61.5-61.5s-61.5 27.589-61.5 61.5c0 13.762 4.545 26.483 12.211 36.741-29.398 14.798-50.609 41.967-57.626 74.524-1.005 4.662-.797 9.4.528 13.82-11.228 4.639-19.152 15.703-19.152 28.587v43.671c0 17.049 13.87 30.919 30.918 30.919h453.536c8.354 0 16.154-3.726 21.399-10.223 5.283-6.542 7.293-15.022 5.516-23.265zm-106.915-150.766c21.781 0 39.5 17.72 39.5 39.5s-17.72 39.5-39.5 39.5-39.5-17.72-39.5-39.5 17.719-39.5 39.5-39.5zm-278.916-83.509c21.781 0 39.5 17.72 39.5 39.5 0 21.781-17.72 39.5-39.5 39.5s-39.5-17.72-39.5-39.5 17.72-39.5 39.5-39.5zm-85.409 155.401c6.219-28.855 26.402-52.418 53.999-63.054 9.2 5.489 19.941 8.654 31.41 8.654 11.468 0 22.207-3.164 31.406-8.651 27.604 10.635 47.779 34.173 54.004 63.052.505 2.344-.489 4.019-1.126 4.809-.616.763-1.992 2.044-4.283 2.044h-160c-2.291 0-3.667-1.281-4.283-2.044-.638-.791-1.632-2.465-1.127-4.81zm-18.129 81.443v-43.671c0-4.918 4.001-8.919 8.918-8.919h292.141c-12.528 13.929-21.434 31.059-25.521 50.021-.83 3.852-.823 7.754-.052 11.488h-266.568c-4.917-.001-8.918-4.002-8.918-8.919zm466.737 6.874c-.616.763-1.992 2.044-4.283 2.044h-160.001c-2.29 0-3.666-1.281-4.282-2.044-.638-.79-1.632-2.464-1.126-4.809 6.219-28.855 26.402-52.418 53.999-63.054 9.2 5.489 19.941 8.654 31.41 8.654 11.468 0 22.207-3.164 31.406-8.651 27.605 10.635 47.78 34.173 54.004 63.052.504 2.344-.489 4.019-1.127 4.808z"/><g fill="#0496FF"><path d="m430.13 12.822h-181.605c-25.241 0-45.776 19.361-45.776 43.159v138.598c0 23.798 20.535 43.159 45.776 43.159h58.606c.859 0 1.548.382 1.783.76l8.701 13.937c4.343 6.956 11.985 11.108 20.444 11.108h.001c8.458 0 16.102-4.153 20.445-11.108l8.701-13.937c.235-.377.924-.759 1.783-.759h61.141c25.241 0 45.776-19.361 45.776-43.159v-138.599c0-23.798-20.535-43.159-45.776-43.159zm23.776 181.757c0 11.667-10.666 21.159-23.776 21.159h-61.14c-8.333 0-16.167 4.257-20.445 11.109l-8.7 13.936c-.452.723-1.565.76-1.784.76-.218 0-1.332-.037-1.783-.759l-8.701-13.937c-4.278-6.852-12.112-11.109-20.445-11.109h-58.606c-13.11 0-23.776-9.492-23.776-21.159v-138.598c0-11.667 10.666-21.159 23.776-21.159h181.604c13.11 0 23.776 9.492 23.776 21.159z"/><path d="m400.378 79.479h-122.1c-6.075 0-11 4.925-11 11s4.925 11 11 11h122.1c6.075 0 11-4.925 11-11s-4.925-11-11-11z"/><path d="m400.378 139.007h-122.1c-6.075 0-11 4.925-11 11s4.925 11 11 11h122.1c6.075 0 11-4.925 11-11s-4.925-11-11-11z"/></g></g><g/><g/><g/><g/><g/><g/><g/><g/><g/><g/><g/><g/><g/><g/><g/></svg>