<svg id="Capa_1" enable-background="new 0 0 512 512" viewBox="0 0 512 512" xmlns="http://www.w3.org/2000/svg" fill="#E6ECF2"><g><path d="m501 22h-353.754v22h342.754v207h-281.875v22h281.875v22h-325.875v22h336.875c6.075 0 11-4.925 11-11v-273c0-6.075-4.925-11-11-11z" fill="#0496FF"/><path d="m359.397 79.615c-4.297-4.296-11.26-4.296-15.557 0l-78.6 78.6c-12.264-5.842-27.413-3.7-37.553 6.44l-21.484 21.485c-17.77-29.403-46.747-37.688-62.767-40.008v-20.259c.107-.104.219-.201.326-.306 9.34-9.22 14.484-21.524 14.484-34.647v-79.92c0-6.075-4.925-11-11-11h-45.557c-22.607 0-41 18.393-41 41l.191 49.358c0 13.767 5.693 26.279 14.809 35.251v20.326c-42.626 5.422-75.689 41.92-75.689 85.995v84.07c0 18.196 14.804 33 33 33 3.856 0 7.557-.671 11-1.892v153.892c0 6.075 4.925 11 11 11h109.125c6.075 0 11-4.925 11-11v-228h33c2.917 0 5.715-1.159 7.778-3.222l58.454-58.454c6.232-6.233 9.665-14.52 9.665-23.334 0-5.008-1.111-9.844-3.211-14.232l78.586-78.586c4.296-4.296 4.296-11.261 0-15.557zm-276.517 10.743v-19.368h53.366v19.93c0 7.192-2.819 13.937-7.939 18.991-5.118 5.052-11.887 7.774-19.102 7.69-14.516-.189-26.325-12.41-26.325-27.243zm-.191-49.358c0-10.477 8.523-19 19-19h34.557v26.99h-53.557zm26.231 98.599c.218.003.434.004.651.004 4.054 0 8.031-.494 11.866-1.45v13.599l-11.874 11.874-11.874-11.874v-13.654c3.605.924 7.363 1.451 11.231 1.501zm-42.92 177.401h32.563v173h-32.563zm87.125 173h-32.562v-173h32.562zm105.676-294.232-55.232 55.232h-28.444v-17.729c0-6.075-4.925-11-11-11s-11 4.925-11 11v61.729h-87.125v-61.729c0-6.075-4.925-11-11-11s-11 4.925-11 11v82.729c0 6.065-4.935 11-11 11s-11-4.935-11-11v-84.07c0-34.171 26.637-62.22 60.235-64.518l19.55 19.55c2.063 2.063 4.861 3.222 7.778 3.222s5.715-1.159 7.778-3.222l19.5-19.5c11.941 1.06 42.868 7.133 55.988 41.286 1.336 3.477 4.34 6.042 7.983 6.815 3.646.776 7.431-.348 10.064-2.981l32.368-32.369c4.289-4.288 11.268-4.289 15.557 0 2.078 2.078 3.222 4.84 3.222 7.778-.001 2.937-1.144 5.699-3.222 7.777z"/></g><g/><g/><g/><g/><g/><g/><g/><g/><g/><g/><g/><g/><g/><g/><g/></svg>