<svg id="Capa_1" enable-background="new 0 0 512 512" viewBox="0 0 512 512" xmlns="http://www.w3.org/2000/svg" fill="#E6ECF2"><g><path d="m213.391 343.838c-5.468-25.372-21.71-46.817-44.246-59.052 5.377-8.056 8.519-17.725 8.519-28.116 0-28.003-22.783-50.786-50.787-50.786-28.003 0-50.786 22.783-50.786 50.786 0 10.401 3.148 20.079 8.534 28.14-22.335 12.229-38.853 33.931-44.261 59.027-1.549 7.188.204 14.582 4.811 20.287 4.578 5.67 11.385 8.922 18.675 8.922h126.055c7.291 0 14.097-3.252 18.675-8.922 4.607-5.705 6.36-13.099 4.811-20.286zm-86.514-115.954c15.873 0 28.787 12.914 28.787 28.786s-12.914 28.786-28.787 28.786-28.786-12.914-28.786-28.786 12.914-28.786 28.786-28.786zm64.586 122.419c-.397.493-.922.743-1.558.743h-126.055c-.636 0-1.161-.25-1.558-.743-.294-.364-.606-.977-.422-1.831 4.595-21.322 19.87-39.391 40.076-47.583 7.371 4.172 15.874 6.566 24.931 6.566 9.058 0 17.562-2.395 24.933-6.567 20.46 8.281 35.435 26.054 40.075 47.584.184.855-.128 1.467-.422 1.831z" fill="#0496FF"/><path d="m459.093 100.768v-24.23c0-19.35-15.742-35.092-35.091-35.092h-6.1c-18.324 0-33.404 14.121-34.952 32.05l-14.773 9.511c-24.967 16.074-53.859 24.571-83.554 24.571h-37.509c-27.453 0-50.07 21.061-52.568 47.872h-150.903c-24.065-.001-43.643 19.577-43.643 43.642v177.908c0 24.065 19.578 43.643 43.643 43.643h20.931c7.708 0 14.89 4.147 18.744 10.822l14.588 25.268c4.997 8.654 13.946 13.821 23.939 13.821s18.943-5.167 23.939-13.821l14.588-25.268c3.854-6.675 11.036-10.822 18.744-10.822h119.638c24.065 0 43.644-19.578 43.644-43.643v-141.995c8.941 3.613 17.575 8.059 25.779 13.34l14.773 9.511c1.547 17.93 16.627 32.05 34.952 32.05h6.1c19.35 0 35.091-15.742 35.091-35.091v-24.231c29.6-2.571 52.907-27.471 52.907-57.727v-14.361c0-30.256-23.307-55.157-52.907-57.728zm-221.033 122.214c2.944.511 5.966.793 9.055.793h26.393v59.04c0 9.229-7.508 16.737-16.737 16.737h-1.973c-9.229 0-16.737-7.508-16.737-16.737v-59.833zm-21.752-62.598c0-16.986 13.82-30.806 30.806-30.806h26.509v72.197h-26.509c-16.986 0-30.806-13.82-30.806-30.806zm104.09 216.616c0 11.934-9.709 21.643-21.644 21.643h-119.637c-15.542 0-30.025 8.362-37.796 21.822l-14.588 25.268c-1.47 2.546-3.907 2.821-4.887 2.821s-3.417-.275-4.887-2.821l-14.588-25.268c-7.771-13.46-22.254-21.822-37.796-21.822h-20.932c-11.934 0-21.643-9.709-21.643-21.643v-177.908c0-11.934 9.709-21.643 21.643-21.643h151.077c1.825 14.836 9.819 27.784 21.34 36.191v69.174c0 21.36 17.377 38.737 38.737 38.737h1.973c21.36 0 38.737-17.377 38.737-38.737v-58.654c8.42.592 16.738 1.889 24.891 3.831zm-24.774-174.883v-72.88c30.032-1.866 59.031-11.358 84.463-27.731l2.723-1.753v131.85l-2.723-1.753c-25.433-16.375-54.431-25.867-84.463-27.733zm141.469 52.698c0 7.219-5.873 13.091-13.091 13.091h-6.1c-7.219 0-13.092-5.873-13.092-13.091v-178.277c0-7.219 5.873-13.092 13.092-13.092h6.1c7.219 0 13.091 5.873 13.091 13.092zm52.907-81.958c0 18.114-13.461 33.143-30.907 35.607v-85.576c17.446 2.465 30.907 17.493 30.907 35.608z"/></g><g/><g/><g/><g/><g/><g/><g/><g/><g/><g/><g/><g/><g/><g/><g/></svg>