<svg id="Layer_1" enable-background="new 0 0 512.037 512.037" viewBox="0 0 512.037 512.037" xmlns="http://www.w3.org/2000/svg" fill="#052438"><g><g fill="#0496FF"><path d="m343.923 199.433h-55.886c-6.075 0-11 4.925-11 11v25.572c0 7.615 2.76 14.598 7.332 20-4.572 5.402-7.332 12.385-7.332 20v25.572c0 6.075 4.925 11 11 11h55.886c6.075 0 11-4.925 11-11v-91.144c0-6.075-4.925-11-11-11zm-44.886 22h33.886v23.572h-24.886c-4.962 0-9-4.038-9-9zm33.886 69.144h-33.886v-14.572c0-4.962 4.038-9 9-9h24.886z"/><path d="m224.037 199.433h-55.886c-6.075 0-11 4.925-11 11v91.144c0 6.075 4.925 11 11 11h55.886c6.075 0 11-4.925 11-11v-25.572c0-7.615-2.76-14.598-7.332-20 4.572-5.402 7.332-12.385 7.332-20v-25.572c0-6.075-4.925-11-11-11zm-44.886 22h33.886v14.572c0 4.962-4.038 9-9 9h-24.886zm33.886 69.144h-33.886v-23.572h24.886c4.962 0 9 4.038 9 9z"/><path d="m55.037 68.06h40.314c6.075 0 11-4.925 11-11s-4.925-11-11-11h-40.314c-6.075 0-11 4.925-11 11s4.925 11 11 11z"/><path d="m457.037 443.977h-40.314c-6.075 0-11 4.925-11 11s4.925 11 11 11h40.314c6.075 0 11-4.925 11-11s-4.925-11-11-11z"/></g><g><path d="m512 256.042c0-15.393-8.225-28.902-20.51-36.363-6.768-32.578-35.658-56.462-69.509-56.462h-50.808c-27.16-33.63-68.716-55.175-115.21-55.175-23.748 0-46.437 5.457-67.434 16.218-18.365 9.413-34.79 22.79-47.799 38.883h-50.711c-33.858 0-62.742 23.882-69.51 56.462-12.285 7.462-20.509 20.97-20.509 36.363s8.224 28.902 20.51 36.362c6.768 32.578 35.658 56.462 69.509 56.462h50.614c27.157 33.715 68.768 55.324 115.33 55.324 23.466 0 46.831-5.632 67.569-16.288 18.368-9.438 34.787-22.842 47.784-38.962h50.666c33.858 0 62.742-23.882 69.51-56.462 12.284-7.461 20.508-20.969 20.508-36.362zm-42.509-20.51c11.309 0 20.509 9.201 20.509 20.51s-9.2 20.509-20.509 20.509-20.51-9.2-20.51-20.509 9.201-20.51 20.51-20.51zm-47.51-50.314c19.532 0 36.671 11.515 44.495 28.422-8.268.582-15.891 3.539-22.189 8.192-5.482-8.768-15.224-14.613-26.305-14.613h-22.267c-2.678-7.637-5.965-14.99-9.803-22h36.069zm-20.423 44h16.423c4.962 0 9 4.038 9 9v35.649c0 4.962-4.038 9-9 9h-16.402c1.609-8.801 2.421-17.765 2.421-26.787 0-9.171-.839-18.149-2.442-26.862zm-311.539-44.074h53.649c6.065 0 11 4.935 11 11s-4.935 11-11 11h-49.649c-11.081 0-20.823 5.845-26.305 14.613-6.299-4.653-13.921-7.609-22.19-8.191 7.823-16.908 24.959-28.422 44.495-28.422zm20.322 97.649h-16.322c-4.962 0-9-4.038-9-9v-35.649c0-4.962 4.038-9 9-9h16.355c-1.627 8.849-2.448 17.863-2.448 26.936 0 9.118.829 18.046 2.415 26.713zm-88.341-26.825c0-11.309 9.201-20.509 20.51-20.509s20.509 9.2 20.509 20.509-9.2 20.51-20.509 20.51-20.51-9.201-20.51-20.51zm68.019 70.825c-19.532 0-36.67-11.515-44.494-28.422 8.268-.582 15.891-3.539 22.189-8.191 5.482 8.768 15.224 14.613 26.305 14.613h22.141c2.668 7.636 5.946 14.989 9.774 22zm165.944 55.323c-69.497 0-126.037-56.54-126.037-126.037 0-9.102.968-18.13 2.883-26.936h10.859c18.196 0 33-14.804 33-33 0-10.609-5.032-20.063-12.834-26.104 23.775-25.576 56.655-39.997 92.129-39.997 69.497 0 126.037 56.54 126.037 126.037 0 9.051-.957 18.029-2.851 26.787h-10.817c-18.196 0-33 14.804-33 33 0 10.626 5.048 20.094 12.872 26.134-23.78 25.653-56.698 40.116-92.241 40.116zm166.018-55.25h-53.649c-6.065 0-11-4.935-11-11s4.935-11 11-11h49.649c11.081 0 20.823-5.845 26.305-14.613 6.298 4.652 13.921 7.609 22.19 8.192-7.823 16.908-24.959 28.421-44.495 28.421z"/><path d="m139.352.032h-128.315c-6.075 0-11 4.925-11 11v92.055c0 6.075 4.925 11 11 11h21.439l11.054 16.29c1.693 2.495 4.337 4.186 7.313 4.677.595.098 1.193.146 1.789.146 2.38 0 4.714-.773 6.638-2.229l24.953-18.884h55.128c6.075 0 11-4.925 11-11v-92.055c.001-6.075-4.924-11-10.999-11zm-11 92.055h-47.822c-2.396 0-4.727.783-6.638 2.229l-18.662 14.123-7.823-11.529c-2.047-3.017-5.456-4.823-9.102-4.823h-16.268v-70.055h106.314v70.055z"/><path d="m501.037 397.95h-21.439l-11.054-16.29c-1.693-2.495-4.337-4.186-7.313-4.677-2.972-.49-6.022.263-8.427 2.082l-24.953 18.884h-55.128c-6.075 0-11 4.925-11 11v92.055c0 6.075 4.925 11 11 11h128.314c6.075 0 11-4.925 11-11v-92.054c0-6.075-4.925-11-11-11zm-11 92.055h-106.314v-70.055h47.821c2.396 0 4.727-.783 6.638-2.229l18.662-14.123 7.823 11.528c2.047 3.017 5.456 4.823 9.102 4.823h16.268z"/></g></g><g/><g/><g/><g/><g/><g/><g/><g/><g/><g/><g/><g/><g/><g/><g/></svg>