<svg id="Capa_1" enable-background="new 0 0 512.003 512.003" viewBox="0 0 512.003 512.003" xmlns="http://www.w3.org/2000/svg" fill="#052438"><g><path d="m332.326 183.118c-4.73-21.949-18.47-40.446-37.639-51.336 4.276-6.926 6.75-15.077 6.75-23.797 0-25.053-20.382-45.435-45.436-45.435-25.053 0-45.435 20.382-45.435 45.435 0 8.722 2.475 16.874 6.753 23.801-19.167 10.893-32.915 29.4-37.642 51.333-1.436 6.659.19 13.512 4.46 18.799 4.245 5.257 10.555 8.271 17.313 8.271h109.102c6.76 0 13.07-3.016 17.315-8.272 4.269-5.287 5.894-12.139 4.459-18.799zm-76.324-98.567c12.923 0 23.436 10.513 23.436 23.435 0 12.923-10.513 23.436-23.436 23.436-12.922 0-23.435-10.513-23.435-23.436 0-12.922 10.513-23.435 23.435-23.435zm54.749 103.546c-.075.093-.119.093-.198.093h-109.102c-.079 0-.122 0-.197-.093-.114-.141-.086-.269-.07-.344 3.877-17.986 16.223-32.746 33.158-39.836 6.442 3.509 13.822 5.504 21.66 5.504s15.219-1.995 21.661-5.504c16.938 7.089 29.278 21.836 33.157 39.837.017.075.044.202-.069.343z" fill="#0496FF"/><path d="m511.496 482.099c-4.674-21.692-18.235-39.982-37.158-50.773 4.197-6.843 6.622-14.884 6.622-23.482 0-21.044-14.507-38.758-34.045-43.681v-120.492c0-30.593-24.889-55.481-55.481-55.481h-.019c4.338-13.6 6.688-28.079 6.688-43.099 0-78.355-63.746-142.102-142.102-142.102-78.354 0-142.101 63.746-142.101 142.102 0 15.02 2.35 29.499 6.688 43.099h-.019c-30.593 0-55.482 24.889-55.482 55.481v120.491c-19.538 4.922-34.045 22.637-34.045 43.681 0 8.601 2.426 16.643 6.625 23.486-18.921 10.796-32.49 29.093-37.161 50.77-1.427 6.621.189 13.434 4.434 18.69 4.221 5.227 10.495 8.225 17.215 8.225h107.866c6.721 0 12.995-2.998 17.216-8.225 4.244-5.258 5.86-12.07 4.433-18.69-4.675-21.692-18.236-39.981-37.158-50.773 4.197-6.843 6.622-14.884 6.622-23.482 0-21.044-14.507-38.758-34.045-43.681v-120.492c0-18.462 15.02-33.481 33.481-33.481h9.143c22.057 42.616 65.055 72.715 115.287 76.58v77.393c-19.538 4.922-34.045 22.637-34.045 43.681 0 8.601 2.426 16.644 6.625 23.487-18.921 10.795-32.49 29.093-37.161 50.768-1.428 6.621.188 13.434 4.433 18.691 4.221 5.227 10.495 8.225 17.216 8.225h107.865c6.72 0 12.994-2.997 17.215-8.224 4.245-5.257 5.861-12.069 4.435-18.691-4.675-21.693-18.236-39.981-37.158-50.773 4.197-6.842 6.622-14.884 6.622-23.482 0-21.044-14.508-38.759-34.046-43.681v-77.393c50.233-3.864 93.231-33.963 115.288-76.58h9.143c18.462 0 33.481 15.02 33.481 33.481v120.491c-19.538 4.922-34.045 22.637-34.045 43.681 0 8.601 2.426 16.644 6.625 23.487-18.921 10.795-32.49 29.094-37.161 50.768-1.428 6.621.188 13.434 4.433 18.691 4.221 5.227 10.495 8.225 17.216 8.225h107.865c6.721 0 12.995-2.998 17.216-8.225 4.245-5.258 5.861-12.071 4.434-18.691zm-381.331 4.636c.042.196-.067.266-.143.279l-107.918-.002c-.023-.012-.133-.081-.091-.278 3.82-17.724 15.977-32.271 32.655-39.273 6.374 3.46 13.672 5.428 21.42 5.428 7.749 0 15.046-1.967 21.42-5.428 16.684 6.999 28.833 21.535 32.657 39.274zm-31.031-78.892c0 12.707-10.338 23.045-23.045 23.045s-23.045-10.338-23.045-23.045 10.338-23.045 23.045-23.045c12.708 0 23.045 10.338 23.045 23.045zm210.944 78.89c.042.198-.068.268-.144.281l-107.918-.002c-.022-.012-.132-.081-.09-.278 3.82-17.724 15.976-32.272 32.655-39.273 6.374 3.46 13.672 5.428 21.42 5.428 7.749 0 15.047-1.968 21.422-5.428 16.682 7.001 28.831 21.535 32.655 39.272zm-31.03-78.89c0 12.707-10.338 23.045-23.046 23.045-12.707 0-23.045-10.338-23.045-23.045s10.338-23.045 23.045-23.045c12.708 0 23.046 10.338 23.046 23.045zm-23.046-142.651c-66.224 0-120.101-53.877-120.101-120.101 0-66.225 53.877-120.102 120.101-120.102 66.225 0 120.102 53.877 120.102 120.102-.001 66.224-53.878 120.101-120.102 120.101zm179.913 119.606c12.707 0 23.045 10.338 23.045 23.045s-10.338 23.045-23.045 23.045-23.045-10.338-23.045-23.045 10.338-23.045 23.045-23.045zm53.932 102.216-107.918-.002c-.022-.012-.132-.081-.09-.278 3.819-17.724 15.976-32.271 32.655-39.273 6.374 3.46 13.672 5.428 21.42 5.428 7.749 0 15.047-1.968 21.421-5.428 16.682 7.002 28.831 21.537 32.654 39.275.043.195-.066.264-.142.278z"/></g><g/><g/><g/><g/><g/><g/><g/><g/><g/><g/><g/><g/><g/><g/><g/></svg>