<svg id="Layer_1" enable-background="new 0 0 512 512" viewBox="0 0 512 512" xmlns="http://www.w3.org/2000/svg" fill="#052438"><g><g><path d="m49.553 217.34h170.777l27.892 27.891c2.148 2.148 4.963 3.222 7.778 3.222s5.63-1.074 7.778-3.222l27.892-27.891h170.777c6.075 0 11-4.925 11-11v-176c0-6.075-4.925-11-11-11h-412.894c-6.075 0-11 4.925-11 11v176c0 6.075 4.925 11 11 11zm11-176h390.895v154h-164.335c-2.917 0-5.715 1.159-7.778 3.222l-23.335 23.335-23.335-23.335c-2.063-2.063-4.861-3.222-7.778-3.222h-164.334z"/><path d="m454.339 388.662c7.34-9.163 11.752-20.805 11.752-33.416v-35.166c0-26.989-21.957-48.945-48.945-48.945h-7.358c-26.988 0-48.945 21.957-48.945 48.945v35.786c0 11.151 3.449 21.747 9.823 30.614h-20.666c-21.505 0-39-17.495-39-39v-39.104c0-18.196-14.804-33-33-33-8.446 0-16.157 3.193-22 8.43-5.843-5.237-13.554-8.43-22-8.43-18.196 0-33 14.804-33 33v39.104c0 21.505-17.495 39-39 39h-20.666c6.374-8.868 9.823-19.464 9.823-30.614v-35.786c0-15.977-7.697-30.188-19.575-39.127 1.063-3.354 1.625-6.878 1.625-10.454 0-19.12-15.556-34.676-34.676-34.676s-34.676 15.556-34.676 34.676c0 3.577.562 7.101 1.626 10.456-11.877 8.939-19.573 23.149-19.573 39.125v35.166c0 12.61 4.413 24.252 11.752 33.416-33.055 8.099-57.66 37.962-57.66 73.478v19.52c0 6.075 4.925 11 11 11h155.065c6.075 0 11-4.925 11-11v-29.774c34.484-3.754 63.803-24.951 78.935-54.554 15.132 29.603 44.451 50.8 78.935 54.554v29.774c0 6.075 4.925 11 11 11h155.065c6.075 0 11-4.925 11-11v-19.52c0-35.516-24.605-65.379-57.661-73.478zm-71.496-68.581c0-14.858 12.088-26.945 26.945-26.945h7.358c14.857 0 26.945 12.087 26.945 26.945v5.425h-9.055l-16.65-8.325c-3.096-1.548-6.742-1.548-9.838 0l-16.65 8.325h-9.056v-5.425zm9.111 57.582c-5.875-5.8-9.111-13.541-9.111-21.796v-8.361h11.652c1.708 0 3.392-.397 4.919-1.161l14.054-7.027 14.054 7.027c1.527.764 3.211 1.161 4.919 1.161h11.651v7.74c0 16.942-13.445 30.908-30.013 31.235h-1.036c-7.952-.107-15.413-3.216-21.089-8.818zm-113.954-80.286c6.065 0 11 4.935 11 11v11h-22v-11c0-6.066 4.935-11 11-11zm-44 0c6.065 0 11 4.935 11 11v11h-22v-11c0-6.066 4.935-11 11-11zm-136.079 89.104c-16.568-.326-30.013-14.292-30.013-31.235v-7.74h2.084c7.958 0 15.928-1.881 23.046-5.44l5.494-2.748 5.496 2.748c7.117 3.559 15.087 5.44 23.045 5.44h2.084v8.361c0 8.255-3.236 15.996-9.111 21.796-5.725 5.652-13.296 8.755-21.297 8.818zm-3.067-93.346h7.358c14.857 0 26.945 12.087 26.945 26.945v5.425h-2.084c-4.561 0-9.128-1.078-13.207-3.118l-10.415-5.208c-1.548-.774-3.233-1.161-4.919-1.161s-3.371.387-4.92 1.162l-10.413 5.207c-4.079 2.04-8.646 3.118-13.207 3.118h-2.084v-5.425c0-14.857 12.088-26.945 26.946-26.945zm-8.999-22.636c0-6.989 5.687-12.676 12.676-12.676s12.676 5.687 12.676 12.676c0 .494-.033.981-.088 1.463-2.891-.534-5.865-.827-8.907-.827h-7.358c-3.044 0-6.019.293-8.91.828-.055-.482-.089-.97-.089-1.464zm80.21 159.982c-6.075 0-11 4.925-11 11v29.179h-133.065v-8.52c0-29.587 24.071-53.659 53.659-53.659h86.341c33.636 0 61-27.364 61-61v-6.104h22v10.17c0 43.525-35.41 78.934-78.935 78.934zm323.935 40.179h-133.065v-29.179c0-6.075-4.925-11-11-11-43.524 0-78.935-35.41-78.935-78.935v-10.17h22v6.104c0 33.636 27.364 61 61 61h86.342c29.587 0 53.658 24.071 53.658 53.659z"/></g><g fill="#0496FF"><path d="m151.5 108.243h-11c-6.075 0-11 4.925-11 11s4.925 11 11 11v4.597c0 9.098-7.402 16.5-16.5 16.5s-16.5-7.402-16.5-16.5v-33c0-9.098 7.402-16.5 16.5-16.5 4.407 0 8.551 1.716 11.667 4.833 4.297 4.296 11.26 4.296 15.557 0 4.296-4.296 4.296-11.261 0-15.557-7.272-7.271-16.941-11.276-27.224-11.276-21.229 0-38.5 17.271-38.5 38.5v33c0 21.229 17.271 38.5 38.5 38.5s38.5-17.271 38.5-38.5v-15.597c0-6.075-4.925-11-11-11z"/><path d="m217.5 63.34c-18.196 0-33 14.804-33 33v44c0 18.196 14.804 33 33 33s33-14.804 33-33v-44c0-18.196-14.804-33-33-33zm11 77c0 6.065-4.935 11-11 11s-11-4.935-11-11v-44c0-6.065 4.935-11 11-11s11 4.935 11 11z"/><path d="m305.5 63.34c-18.196 0-33 14.804-33 33v66c0 6.075 4.925 11 11 11s11-4.925 11-11v-33h22v33c0 6.075 4.925 11 11 11s11-4.925 11-11v-66c0-18.196-14.804-33-33-33zm-11 44v-11c0-6.065 4.935-11 11-11s11 4.935 11 11v11z"/><path d="m415.5 151.34h-33v-77c0-6.075-4.925-11-11-11s-11 4.925-11 11v88c0 6.075 4.925 11 11 11h44c6.075 0 11-4.925 11-11s-4.925-11-11-11z"/></g></g><g/><g/><g/><g/><g/><g/><g/><g/><g/><g/><g/><g/><g/><g/><g/></svg>