<svg id="Capa_1" enable-background="new 0 0 512 512" viewBox="0 0 512 512" xmlns="http://www.w3.org/2000/svg" fill="#052438"><g><g fill="#0496FF"><path d="m126.774 140.066c4.434-5.891 7.066-13.211 7.066-21.136 0-19.42-15.799-35.219-35.219-35.219s-35.22 15.799-35.22 35.219c0 7.925 2.633 15.245 7.067 21.136-15.57 9.518-25.985 26.677-25.985 46.224v8.714c0 6.075 4.925 11 11 11h86.275c6.075 0 11-4.925 11-11v-8.714c.002-19.547-10.413-36.705-25.984-46.224zm-28.152-34.354c7.289 0 13.219 5.93 13.219 13.219s-5.93 13.219-13.219 13.219-13.22-5.93-13.22-13.219 5.931-13.219 13.22-13.219zm-32.058 78.292c1.178-16.658 15.105-29.852 32.058-29.852s30.88 13.194 32.058 29.852z"/><path d="m442.015 140.066c4.434-5.891 7.066-13.211 7.066-21.136 0-19.42-15.799-35.219-35.219-35.219s-35.219 15.799-35.219 35.219c0 7.924 2.632 15.245 7.066 21.136-15.571 9.518-25.985 26.677-25.985 46.224v8.714c0 6.075 4.925 11 11 11h86.276c6.075 0 11-4.925 11-11v-8.714c0-19.547-10.415-36.705-25.985-46.224zm-28.153-34.354c7.289 0 13.219 5.93 13.219 13.219s-5.93 13.219-13.219 13.219-13.219-5.93-13.219-13.219 5.93-13.219 13.219-13.219zm-32.057 78.292c1.178-16.658 15.105-29.852 32.058-29.852s30.88 13.194 32.058 29.852z"/><path d="m126.774 284.522c4.434-5.891 7.066-13.211 7.066-21.136 0-19.42-15.799-35.219-35.219-35.219s-35.22 15.799-35.22 35.219c0 7.925 2.633 15.245 7.067 21.136-15.57 9.518-25.985 26.677-25.985 46.224v8.714h22v-8.714c0-17.721 14.417-32.138 32.138-32.138s32.138 14.417 32.138 32.138v8.714h22v-8.714c.001-19.547-10.414-36.705-25.985-46.224zm-28.152-34.355c7.289 0 13.219 5.93 13.219 13.219s-5.93 13.219-13.219 13.219-13.22-5.93-13.22-13.219 5.931-13.219 13.22-13.219z"/><path d="m442.015 284.522c4.434-5.891 7.066-13.211 7.066-21.136 0-19.42-15.799-35.219-35.219-35.219s-35.219 15.799-35.219 35.219c0 7.924 2.632 15.245 7.066 21.136-15.571 9.518-25.985 26.677-25.985 46.224v8.714h22v-8.714c0-17.721 14.417-32.138 32.138-32.138s32.138 14.418 32.138 32.138v8.714h22v-8.714c0-19.547-10.415-36.705-25.985-46.224zm-28.153-34.355c7.289 0 13.219 5.93 13.219 13.219s-5.93 13.219-13.219 13.219-13.219-5.93-13.219-13.219 5.93-13.219 13.219-13.219z"/><path d="m284.152 284.522c4.434-5.891 7.066-13.211 7.066-21.136 0-19.42-15.799-35.219-35.219-35.219s-35.219 15.799-35.219 35.219c0 7.924 2.632 15.245 7.066 21.136-15.571 9.518-25.985 26.677-25.985 46.224v8.714h22v-8.714c0-17.721 14.417-32.138 32.138-32.138s32.138 14.417 32.138 32.138v8.714h22v-8.714c.001-19.547-10.414-36.705-25.985-46.224zm-28.152-34.355c7.289 0 13.219 5.93 13.219 13.219s-5.93 13.219-13.219 13.219-13.219-5.93-13.219-13.219 5.93-13.219 13.219-13.219z"/><path d="m284.152 142.118c4.434-5.891 7.066-13.211 7.066-21.136 0-19.42-15.799-35.219-35.219-35.219s-35.219 15.799-35.219 35.219c0 7.924 2.632 15.245 7.066 21.136-15.571 9.518-25.985 26.677-25.985 46.224v8.713c0 6.075 4.925 11 11 11h86.275c6.075 0 11-4.925 11-11v-8.713c.002-19.548-10.413-36.706-25.984-46.224zm-28.152-34.356c7.289 0 13.219 5.93 13.219 13.219s-5.93 13.219-13.219 13.219-13.219-5.93-13.219-13.219 5.93-13.219 13.219-13.219zm-32.058 78.293c1.178-16.657 15.105-29.851 32.058-29.851s30.88 13.194 32.058 29.851z"/></g><path d="m512 50.712c0-6.075-4.925-11-11-11h-490c-6.075 0-11 4.925-11 11v349.581c0 6.075 4.925 11 11 11h150.353l-13.049 38.996h-76.308c-6.075 0-11 4.925-11 11s4.925 11 11 11h368.008c6.075 0 11-4.925 11-11s-4.925-11-11-11h-76.309l-13.049-38.996h150.354c6.075 0 11-4.925 11-11zm-490 11h468v266.585h-468zm318.496 388.576h-168.992l13.049-38.996h142.895zm-318.496-60.996v-38.996h468v38.996z"/></g><g/><g/><g/><g/><g/><g/><g/><g/><g/><g/><g/><g/><g/><g/><g/></svg>