<svg id="Capa_1" enable-background="new 0 0 512 512" viewBox="0 0 512 512" xmlns="http://www.w3.org/2000/svg" fill="#052438"><g><g><path d="m256 329.748c-39.646 0-71.901-32.255-71.901-71.901s32.255-71.901 71.901-71.901 71.901 32.255 71.901 71.901-32.254 71.901-71.901 71.901zm0-121.803c-27.516 0-49.901 22.386-49.901 49.901s22.386 49.901 49.901 49.901 49.901-22.386 49.901-49.901-22.385-49.901-49.901-49.901z" fill="#0496FF"/></g><g><path d="m260.78 285.676c-6.075 0-11-4.925-11-11v-22.66h-4.535c-6.075 0-11-4.925-11-11s4.925-11 11-11h15.535c6.075 0 11 4.925 11 11v33.66c0 6.075-4.925 11-11 11z" fill="#0496FF"/></g><path d="m476.018 260.678c-5.683-11.044-16.919-17.904-29.324-17.904s-23.641 6.86-29.324 17.904c-3.376 6.561-6.393 12.943-9.085 19.161-10.784-4.645-20.759-9.33-29.771-13.996.01-1.309.028-2.615.028-3.928 0-44.377-13.433-121.25-77.426-235.462-9.281-16.564-26.147-26.453-45.115-26.453-.001 0 0 0 0 0-18.968 0-35.835 9.89-45.115 26.453-63.994 114.213-77.426 191.086-77.426 235.462 0 1.312.018 2.616.028 3.924-9.001 4.661-18.97 9.348-29.77 14.001-2.693-6.218-5.709-12.601-9.086-19.162-5.684-11.043-16.92-17.904-29.325-17.904-12.404 0-23.641 6.861-29.324 17.904-16.492 32.046-24.854 60.079-24.854 83.319 0 6.743.351 13.499 1.043 20.08.773 7.345 5.3 13.429 11.568 16.467 4.483 18.346 14.807 35.388 23.194 47 4.246 5.879 11.114 9.39 18.373 9.39 7.258 0 14.126-3.51 18.372-9.39 8.387-11.612 18.711-28.654 23.194-47 6.268-3.038 10.796-9.122 11.568-16.467.149-1.421.276-2.854.393-4.289 8.592 1.766 17.422 3.945 26.372 6.51.332 1.389.659 2.781 1.004 4.162 3.279 13.103 14.53 22.493 27.853 23.587 8.395 39.798 31.174 77.521 49.513 102.911 6.904 9.559 17.634 15.042 29.437 15.042 11.804 0 22.533-5.482 29.438-15.042 18.322-25.367 41.076-63.046 49.489-102.803h3.387c14.446 0 26.974-9.744 30.465-23.696.345-1.379.672-2.769 1.003-4.157 8.945-2.565 17.772-4.75 26.372-6.517.118 1.436.244 2.87.393 4.292.773 7.345 5.3 13.429 11.568 16.467 4.483 18.346 14.807 35.388 23.194 47 4.247 5.88 11.115 9.39 18.373 9.39s14.125-3.51 18.372-9.39c8.387-11.612 18.711-28.654 23.194-47 6.268-3.038 10.796-9.122 11.568-16.467.692-6.582 1.043-13.337 1.043-20.08 0-23.24-8.362-51.273-24.854-83.319zm-29.323 4.096c4.188 0 7.838 2.232 9.762 5.971 10.226 19.871 22.415 48.709 22.415 73.253 0 5.587-.271 11.178-.807 16.638h-62.742c-.536-5.459-.807-11.051-.807-16.638 0-24.544 12.189-53.382 22.415-73.253 1.925-3.739 5.575-5.971 9.764-5.971zm-216.618-227.567c5.336-9.522 15.027-15.207 25.923-15.207s20.587 5.685 25.922 15.207c17.73 31.644 31.426 60.207 41.952 85.848h-135.748c10.526-25.641 24.222-54.204 41.951-85.848zm-174.534 233.538c1.924-3.738 5.574-5.971 9.762-5.971 4.189 0 7.839 2.232 9.763 5.971 10.226 19.87 22.415 48.708 22.415 73.253 0 5.587-.271 11.178-.807 16.638h-62.741c-.536-5.459-.807-11.051-.807-16.638 0-24.544 12.19-53.383 22.415-73.253zm10.3 143.919c-.068.095-.195.271-.537.271s-.469-.176-.538-.271c-7.917-10.96-13.887-21.963-17.456-32.028h35.986c-3.568 10.064-9.538 21.067-17.455 32.028zm53.403-77.222c-.723-11.336-3.265-23.7-7.648-37.041 7.98-3.424 15.552-6.874 22.655-10.33 1.016 17.847 3.017 35.243 5.97 52.087-7.102-1.814-14.111-3.39-20.977-4.716zm145.369 146.636c-2.718 3.764-6.947 5.922-11.603 5.922-4.655 0-8.884-2.159-11.603-5.923-27.332-37.841-39.508-68.366-44.768-89.921h112.74c-5.259 21.555-17.434 52.079-44.766 89.922zm70.711-111.922h-158.652c-4.335 0-8.086-2.894-9.124-7.037-7.911-31.611-12.092-67.298-12.092-103.204 0-26.199 5.1-64.656 24.132-116.86h152.82c19.031 52.204 24.131 90.66 24.131 116.86 0 35.906-4.181 71.593-12.092 103.204-1.036 4.143-4.788 7.037-9.123 7.037zm42.422-82.094c7.11 3.46 14.678 6.911 22.656 10.334-4.385 13.342-6.928 25.709-7.651 37.046-6.872 1.326-13.879 2.902-20.976 4.716 2.954-16.847 4.955-34.245 5.971-52.096zm69.484 124.602c-.068.095-.195.271-.537.271s-.47-.176-.538-.271c-7.917-10.96-13.887-21.963-17.456-32.028h35.986c-3.569 10.064-9.539 21.067-17.455 32.028z"/></g><g/><g/><g/><g/><g/><g/><g/><g/><g/><g/><g/><g/><g/><g/><g/></svg>