<svg id="Capa_1" enable-background="new 0 0 512 512" viewBox="0 0 512 512" xmlns="http://www.w3.org/2000/svg" fill="#052438"><g><path d="m256 74.043c-100.331 0-181.957 81.626-181.957 181.957s81.626 181.957 181.957 181.957 181.957-81.626 181.957-181.957-81.626-181.957-181.957-181.957zm0 341.914c-42.584 0-81.332-16.73-110.025-43.958 5.459-16.547 20.404-28.795 38.065-30.551l26.802-2.666 37.749 36.714c2.135 2.077 4.901 3.115 7.669 3.115s5.534-1.038 7.67-3.115l37.748-36.714 26.801 2.666c17.488 1.74 32.375 13.834 37.939 30.181-28.732 27.447-67.64 44.328-110.418 44.328zm24.54-190.763c7.542 0 14.631-1.969 20.791-5.409v27.765c0 24.991-20.331 45.322-45.322 45.322-24.99 0-45.321-20.331-45.321-45.322v-22.356zm-69.852-22v-16.902c0-15.354 12.492-27.847 27.847-27.847h62.797v23.958c0 11.464-9.327 20.791-20.791 20.791zm68.082 127.177-22.51 21.895-22.512-21.894c4.778-4.351 8.154-10.172 9.472-16.733 4.143.8 8.415 1.234 12.789 1.234 4.542 0 8.979-.458 13.271-1.32 1.305 6.596 4.691 12.448 9.49 16.818zm103.768 23.358c-10.344-18.919-29.424-31.94-51.882-34.173l-31.893-3.172c-4.608-.458-8.083-4.296-8.083-8.927v-2.223c19.548-11.794 32.65-33.235 32.65-57.683v-100.106c0-6.075-4.925-11-11-11h-73.797c-27.485 0-49.847 22.361-49.847 49.847v61.259c0 24.654 13.329 46.242 33.15 57.971v1.935c0 4.631-3.475 8.468-8.083 8.927l-31.893 3.172c-22.277 2.216-41.652 15.632-52.034 34.652-21.158-27.126-33.783-61.219-33.783-98.208 0-88.2 71.757-159.957 159.957-159.957s159.957 71.757 159.957 159.957c0 36.773-12.481 70.681-33.419 97.729z"/><g fill="#0496FF"><path d="m256 22c41.101 0 81.522 10.803 116.894 31.241 26.437 15.276 49.668 35.674 68.303 59.757l-16.187-4.212c-5.871-1.526-11.885 1.996-13.415 7.875s1.996 11.886 7.876 13.416l44.535 11.588c3.18.831 6.61.186 9.28-1.78 2.669-1.959 4.312-5.017 4.476-8.323l2.271-45.977c.3-6.068-4.376-11.23-10.443-11.53-6.109-.28-11.229 4.377-11.529 10.444l-.666 13.469c-20.171-25.656-45.155-47.401-73.495-63.776-38.712-22.368-82.94-34.192-127.9-34.192-68.38 0-132.667 26.629-181.02 74.981-48.351 48.352-74.98 112.639-74.98 181.019 0 6.075 4.925 11 11 11s11-4.925 11-11c0-62.503 24.34-121.266 68.537-165.463s102.959-68.537 165.463-68.537z"/><path d="m501 245c-6.075 0-11 4.925-11 11 0 62.503-24.34 121.266-68.537 165.463s-102.959 68.537-165.463 68.537c-41.101 0-81.522-10.803-116.894-31.241-26.437-15.276-49.668-35.674-68.303-59.757l16.187 4.212c5.875 1.531 11.886-1.996 13.415-7.875 1.53-5.879-1.996-11.886-7.876-13.416l-44.535-11.588c-3.204-.834-6.613-.18-9.28 1.78-2.669 1.959-4.312 5.017-4.476 8.323l-2.271 45.977c-.3 6.068 4.376 11.23 10.443 11.53.186.009.369.014.552.013 5.825 0 10.688-4.575 10.978-10.457l.666-13.469c20.171 25.657 45.155 47.403 73.495 63.778 38.711 22.366 82.939 34.19 127.899 34.19 68.38 0 132.667-26.629 181.02-74.981 48.351-48.352 74.98-112.639 74.98-181.019 0-6.075-4.925-11-11-11z"/></g></g><g/><g/><g/><g/><g/><g/><g/><g/><g/><g/><g/><g/><g/><g/><g/></svg>