<svg id="Capa_1" enable-background="new 0 0 512 512" viewBox="0 0 512 512" xmlns="http://www.w3.org/2000/svg" fill="#052438"><g><g><path d="m501 440h-4v-82.99c0-33.83-19.182-63.213-47.12-77.6 16.513-12.008 27.268-31.477 27.268-53.411 0-36.393-29.608-66-66-66s-65.999 29.607-65.999 66c0 16.888 6.376 32.315 16.847 44h-17.149l-24.989-43.283c-5.476-9.484-14.317-16.269-24.896-19.103s-21.628-1.38-31.112 4.096-16.269 14.317-19.103 24.896-1.38 21.627 4.096 31.112l36.75 63.653c5.346 9.261 16.259 20.3 37.884 20.3h1.684c-.106 1.767-.161 3.547-.161 5.34v22.99h-11.402c-22.608 0-41 18.393-41 41 0 6.851 1.691 13.316 4.678 19h-116.565l-3.5-28h53.789c6.075 0 11-4.925 11-11v-130c0-6.075-4.925-11-11-11h-190c-6.075 0-11 4.925-11 11v130c0 6.075 4.925 11 11 11h53.789l-3.5 28h-60.289c-6.075 0-11 4.925-11 11v50c0 6.075 4.925 11 11 11h490c6.075 0 11-4.925 11-11v-50c0-6.075-4.925-11-11-11zm-89.852-258.001c24.262 0 44 19.738 44 44s-19.739 44-44 44-43.999-19.739-43.999-44 19.737-44 43.999-44zm-87.671 147.67c-12.067 0-16.527-5.308-18.832-9.3l-36.75-63.653c-2.538-4.395-3.212-9.516-1.898-14.417 1.314-4.902 4.458-9 8.853-11.537 4.396-2.538 9.516-3.211 14.417-1.898 4.902 1.313 9 4.458 11.537 8.853l28.165 48.783c1.965 3.403 5.596 5.5 9.526 5.5h15.404c-11.17 10.054-19.741 23.002-24.551 37.67zm-28.88 91.331c0-10.477 8.523-19 19-19h56.33c3.93 0 7.562-2.097 9.526-5.5l19.275-33.386c3.038-5.261 1.235-11.989-4.026-15.026-5.26-3.037-11.988-1.234-15.026 4.026l-16.1 27.886h-16.576v-22.99c0-35.847 28.71-65.01 64-65.01s64 29.164 64 65.01v82.99h-51.772c.117-.195.234-.39.35-.588l26.906-45.811c3.077-5.238 1.324-11.979-3.914-15.056-5.237-3.078-11.978-1.325-15.056 3.914l-26.907 45.812c-6.072 10.338-12.474 11.699-17.374 11.729-.017 0-.034.001-.052.001h-73.609c-10.462-.014-18.975-8.537-18.975-19.001zm-262.597-31v-108h168v108h-45.539l-2.546-20.364c-.688-5.506-5.367-9.636-10.915-9.636h-50c-5.547 0-10.227 4.131-10.915 9.636l-2.546 20.364zm68.71-8h30.58l7.25 58h-45.079zm389.29 108h-468v-28h468z"/><path d="m338.437 81.981h.007c6.075 0 10.997-4.925 10.997-11s-4.929-11-11.004-11-11 4.925-11 11 4.925 11 11 11z"/><path d="m293.436 81.981h.007c6.075 0 10.996-4.925 10.996-11s-4.928-11-11.003-11-11 4.925-11 11 4.925 11 11 11z"/><path d="m248.422 81.981h.007c6.075 0 10.996-4.925 10.996-11s-4.928-11-11.003-11-11 4.925-11 11 4.924 11 11 11z"/></g><path d="m378.028 0h-169.19c-21.452 0-38.905 17.453-38.905 38.905v14.809h-127.095c-21.452 0-38.905 17.453-38.905 38.905v64.152c0 21.452 17.453 38.905 38.905 38.905h51.285v25.324c0 4.334 2.545 8.265 6.501 10.038 1.443.646 2.975.962 4.497.962 2.649 0 5.267-.957 7.322-2.789l37.618-33.535h61.967c21.452 0 38.905-17.453 38.905-38.905v-14.809h19.872l37.618 33.535c2.056 1.833 4.672 2.789 7.322 2.789 1.521 0 3.054-.315 4.497-.962 3.956-1.773 6.501-5.704 6.501-10.038v-25.324h51.285c21.452 0 38.905-17.453 38.905-38.905v-64.152c-.001-21.452-17.453-38.905-38.905-38.905zm-149.095 156.771c0 9.321-7.583 16.905-16.905 16.905h-66.159c-2.7 0-5.305.993-7.32 2.789l-22.427 19.993v-11.782c0-6.075-4.925-11-11-11h-62.284c-9.321 0-16.905-7.583-16.905-16.905v-64.152c0-9.322 7.583-16.905 16.905-16.905h127.095v27.343c0 21.452 17.453 38.905 38.905 38.905h20.095zm165.999-53.714c0 9.321-7.583 16.905-16.905 16.905h-62.285c-6.075 0-11 4.925-11 11v11.781l-22.427-19.992c-2.015-1.796-4.62-2.789-7.32-2.789h-66.159c-9.321 0-16.905-7.583-16.905-16.905v-64.152c0-9.321 7.583-16.905 16.905-16.905h169.19c9.321 0 16.905 7.583 16.905 16.905v64.152z" fill="#0496FF"/></g><g/><g/><g/><g/><g/><g/><g/><g/><g/><g/><g/><g/><g/><g/><g/></svg>