<svg id="Capa_1" enable-background="new 0 0 512 512" viewBox="0 0 512 512" xmlns="http://www.w3.org/2000/svg" fill="#052438"><g><g><path d="m501 442.379h-24.08v-46.356c0-27.894-15.381-52.264-38.107-65.073 14.262-10.979 23.469-28.218 23.469-47.567 0-33.084-26.916-60-60-60s-60 26.916-60 60c0 19.349 9.207 36.588 23.469 47.567-5.114 2.882-9.856 6.35-14.135 10.312h-16.546l-23.434-34.674-.109-.158c-5.558-7.923-13.868-13.207-23.401-14.879-9.53-1.673-19.146.468-27.068 6.026-1.831 1.284-3.521 2.716-5.058 4.276-1.537-1.559-3.227-2.991-5.058-4.275-16.354-11.473-38.995-7.503-50.47 8.852l-23.543 34.833h-16.544c-4.279-3.962-9.021-7.429-14.135-10.312 14.262-10.979 23.468-28.218 23.468-47.567 0-33.084-26.915-60-59.999-60-33.085 0-60.001 26.916-60.001 60 0 19.349 9.206 36.588 23.469 47.567-22.726 12.809-38.107 37.178-38.107 65.073v46.356h-24.08c-6.075 0-11 4.925-11 11v47.62c0 6.075 4.925 11 11 11h490c6.075 0 11-4.925 11-11v-47.621c0-6.075-4.925-11-11-11zm-98.719-196.995c20.953 0 38 17.047 38 38s-17.047 38-38 38-38-17.046-38-38 17.047-38 38-38zm0 98c29.025 0 52.639 23.614 52.639 52.639v46.356h-42.005c.93-2.16 1.659-4.434 2.162-6.802l10.497-37.922c1.62-5.855-1.812-11.916-7.667-13.536-5.857-1.619-11.916 1.812-13.536 7.667l-10.594 38.273c-.071.257-.133.517-.185.778-1.337 6.683-7.219 11.522-14.01 11.542h-73.374c-7.876-.004-14.284-6.416-14.284-14.292 0-7.881 6.412-14.292 14.293-14.292h55.728c6.075 0 11-4.925 11-11s-4.925-11-11-11h-12.134c2.161-27.056 24.868-48.411 52.47-48.411zm-174.981 52.391 28.7-42.152 29.714 43.639c.135.207.271.413.409.617-9.758 6.512-16.198 17.622-16.198 30.208 0 5.072 1.047 9.904 2.935 14.292h-28.718c1.888-4.389 2.934-9.221 2.934-14.292 0-14.068-8.045-26.292-19.776-32.312zm40.548-70.995c.656-3.745 2.732-7.009 5.845-9.192 3.112-2.183 6.887-3.023 10.633-2.367 3.718.652 6.962 2.703 9.145 5.777l29.915 44.265h11.839c-4.267 8.7-6.891 18.346-7.462 28.532h-11.58-.047c-4.874 0-9.357-2.451-12.001-6.562l-33.831-49.693-.088-.127c-2.185-3.113-3.026-6.889-2.368-10.633zm-79.233 38.482 29.915-44.265c4.522-6.366 13.375-7.901 19.778-3.41 3.112 2.183 5.188 5.447 5.845 9.192.656 3.744-.185 7.52-2.367 10.632l-33.759 49.577-.16.242c-2.644 4.111-7.127 6.562-12.002 6.562h-.047-11.578c-.572-10.185-3.195-19.832-7.462-28.532h11.837zm-78.895-117.878c20.953 0 37.999 17.047 37.999 38s-17.046 38-37.999 38c-20.954 0-38.001-17.046-38.001-38s17.047-38 38.001-38zm-52.64 150.639c0-29.025 23.613-52.639 52.639-52.639 27.602 0 50.31 21.355 52.471 48.41h-12.135c-6.075 0-11 4.925-11 11s4.925 11 11 11h60.729c7.881 0 14.292 6.412 14.292 14.292 0 7.878-6.409 14.29-14.286 14.292h-78.372c-6.791-.021-12.674-4.86-14.011-11.543-.052-.261-.113-.521-.185-.777l-10.594-38.273c-1.62-5.854-7.678-9.287-13.536-7.667-5.854 1.621-9.287 7.681-7.667 13.536l10.497 37.922c.503 2.368 1.232 4.642 2.162 6.802h-42.004zm432.92 93.977h-468v-25.621h468z"/><path d="m133.949 155c18.196 0 33-14.804 33-33v-16.244c0-6.075-4.925-11-11-11h-11c-6.075 0-11 4.925-11 11s4.925 11 11 11v5.244c0 6.065-4.935 11-11 11s-11-4.935-11-11v-44.001c0-6.065 4.935-11 11-11 4.14 0 7.898 2.319 9.81 6.053 2.768 5.409 9.397 7.549 14.804 4.781 5.408-2.768 7.548-9.396 4.78-14.803-5.692-11.122-16.954-18.03-29.394-18.03-18.196 0-33 14.804-33 33v44c0 18.196 14.804 33 33 33z"/><path d="m215.551 155c18.196 0 33-14.804 33-33v-44c0-18.196-14.804-33-33-33s-33 14.804-33 33v44c0 18.196 14.803 33 33 33zm-11-77c0-6.065 4.935-11 11-11s11 4.935 11 11v44c0 6.065-4.935 11-11 11s-11-4.935-11-11z"/><path d="m277.551 155c6.075 0 11-4.925 11-11v-22.001h22v22.001c0 6.075 4.925 11 11 11s11-4.925 11-11v-66c0-18.196-14.804-33-33-33s-33 14.804-33 33v66c0 6.075 4.925 11 11 11zm11-77c0-6.066 4.935-11 11-11s11 4.935 11 11v21.998h-22z"/><path d="m361.552 155h38.5c6.075 0 11-4.925 11-11s-4.925-11-11-11h-27.5v-77c0-6.075-4.925-11-11-11s-11 4.925-11 11v88c0 6.075 4.925 11 11 11z"/></g><g><path d="m256 246.323c-3.162 0-6.171-1.361-8.26-3.735l-37.461-42.589h-111.828c-23.436 0-42.502-19.066-42.502-42.502v-116.497c0-22.607 18.393-41 41-41h316.6c23.436 0 42.502 19.066 42.502 42.502v114.995c0 23.436-19.066 42.502-42.502 42.502h-111.827l-37.462 42.589c-2.089 2.375-5.098 3.735-8.26 3.735zm-159.051-224.323c-10.477 0-19 8.523-19 19v116.497c0 11.305 9.197 20.502 20.502 20.502h116.803c3.162 0 6.171 1.361 8.26 3.735l32.486 36.934 32.487-36.934c2.089-2.374 5.098-3.735 8.26-3.735h116.802c11.305 0 20.502-9.197 20.502-20.502v-114.995c0-11.305-9.197-20.502-20.502-20.502z" fill="#0496FF"/></g></g><g/><g/><g/><g/><g/><g/><g/><g/><g/><g/><g/><g/><g/><g/><g/></svg>