<svg id="Layer_1" enable-background="new 0 0 512.01 512.01" viewBox="0 0 512.01 512.01" xmlns="http://www.w3.org/2000/svg" fill="#E6ECF2"><g><g><g><g><g><g><g><g><g><g><g><g><g><g><path d="m268.582 81.144c-.176 0-.353-.004-.529-.013l-13.271-.629c-6.068-.287-10.755-5.439-10.467-11.508.287-6.069 5.45-10.781 11.508-10.467l13.271.629c6.068.287 10.755 5.439 10.467 11.508-.28 5.892-5.143 10.48-10.979 10.48z" fill="#0496FF"/></g></g><g><g><path d="m292.015 31.75c-2.976 0-5.94-1.199-8.109-3.564l-8.942-9.75c-4.106-4.478-3.806-11.436.671-15.542 4.478-4.107 11.437-3.806 15.542.671l8.942 9.75c4.106 4.478 3.806 11.436-.671 15.542-2.113 1.937-4.777 2.893-7.433 2.893z" fill="#0496FF"/></g></g><g><g><path d="m277.411 141.395c-3.007 0-6.001-1.225-8.173-3.634-4.068-4.511-3.709-11.467.803-15.535l9.824-8.859c4.511-4.069 11.468-3.71 15.535.803 4.068 4.511 3.709 11.467-.803 15.535l-9.824 8.859c-2.102 1.896-4.737 2.831-7.362 2.831z" fill="#0496FF"/></g></g></g></g></g></g></g></g></g></g></g></g><g><path d="m337.388 122.222c-14.2-12.852-23.135-31.421-23.135-52.039 0-38.699 31.479-70.183 70.172-70.183s70.172 31.483 70.172 70.183c0 20.062-8.46 38.185-21.998 50.987-1.792 1.695-94.164 1.999-95.211 1.052zm47.037-100.222c-26.563 0-48.172 21.614-48.172 48.183s21.609 48.184 48.172 48.184 48.172-21.615 48.172-48.184-21.61-48.183-48.172-48.183z" fill="#0496FF"/></g><g><path d="m469.348 385.165c-8.053-3.533-16.87-4.114-25.204-1.723.39-5.277-.327-10.697-2.305-15.908-3.581-9.437-10.643-16.868-19.885-20.924-9.243-4.058-19.492-4.224-28.859-.47l-62.666 25.108-37.499-32.646c-9.326-8.12-21.263-12.587-33.629-12.587h-.134l-110.427.297-127.756.292c-2.918.007-5.714 1.173-7.772 3.241s-3.21 4.87-3.202 7.788l.36 134.507c.017 6.065 4.938 10.971 10.999 10.971h.026l128.071-.293c2.918-.007 5.714-1.173 7.772-3.241s3.21-4.87 3.202-7.788l-.043-16.032 142.804 53.478c4.943 1.852 10.109 2.775 15.272 2.775 5.621 0 11.239-1.096 16.555-3.282l133.516-54.91c18.818-7.738 27.904-28.704 20.687-47.728-3.579-9.437-10.641-16.868-19.883-20.925zm-68.071-18.602c3.842-1.539 8.047-1.471 11.836.192 3.791 1.664 6.688 4.713 8.157 8.584 2.913 7.679-1.014 16.8-8.578 19.975l-46.193 17.648c-1.345-7.858-5.315-14.939-11.439-20.271l-5.987-5.212zm-368.936 94.522-.303-112.505 106.072-.242.302 112.505zm427.837-27.613-133.516 54.909c-5.047 2.075-10.637 2.164-15.744.251l-150.583-56.392-.225-83.958 99.114-.266h.077c7.053 0 13.862 2.548 19.182 7.18l62.131 54.089c2.666 2.32 4.222 5.543 4.38 9.074.08 1.777-.2 3.509-.809 5.115-.575.813-1.036 1.699-1.373 2.633-.402.59-.857 1.151-1.362 1.678l-.413.43c-4.728 4.928-12.366 5.58-17.769 1.517-22.807-17.157-60.746-45.575-61.126-45.86-4.864-3.64-11.757-2.651-15.399 2.21-3.642 4.862-2.652 11.757 2.21 15.399.381.284 38.302 28.688 61.089 45.831 6.316 4.752 13.774 7.079 21.206 7.078 9.385-.001 18.726-3.712 25.658-10.938l.412-.429c1.319-1.375 2.511-2.835 3.572-4.368l87.615-33.472c.056-.021.11-.043.166-.064 3.842-1.539 8.045-1.473 11.835.192 3.791 1.663 6.688 4.711 8.156 8.583 2.961 7.804-.765 16.403-8.484 19.578z"/><path d="m95.425 417.28c-1.74-4.239-6.122-7.002-10.694-6.772-4.594.232-8.64 3.394-9.983 7.791-1.32 4.322.237 9.178 3.829 11.922 3.713 2.836 8.907 2.989 12.799.419 4.319-2.853 6.04-8.594 4.049-13.36z"/><path d="m468.467 255.035h-2.201c-2.058-2.229-4.14-4.439-6.219-6.646-17.187-18.247-32.03-34.006-32.03-57.349 0-2.214.06-3.958.128-5.165.064-.144.124-.289.182-.436h.31c18.491 0 33.534-15.043 33.534-33.538 0-18.491-15.043-33.534-33.534-33.534h-88.424c-18.491 0-33.534 15.043-33.534 33.538 0 18.491 15.043 33.534 33.534 33.534h.31c.058.146.118.292.182.436.068 1.207.128 2.951.128 5.165 0 23.343-14.844 39.103-32.032 57.35-2.079 2.206-4.159 4.417-6.217 6.646h-2.201c-18.491 0-33.534 15.043-33.534 33.538 0 18.491 15.043 33.534 33.534 33.534h168.084c18.491 0 33.534-15.043 33.534-33.539 0-18.492-15.043-33.534-33.534-33.534zm-139.788-103.134c0-6.36 5.174-11.534 11.534-11.534h88.424c6.36 0 11.534 5.174 11.534 11.538 0 6.36-5.174 11.534-11.534 11.534h-88.424c-6.36 0-11.534-5.174-11.534-11.538zm34.154 39.138c0-1.993-.042-3.918-.121-5.601h43.426c-.079 1.683-.121 3.608-.121 5.601 0 27.564 14.275 46.594 30.152 63.995h-103.488c15.878-17.401 30.152-36.431 30.152-63.995zm105.634 109.068h-168.084c-6.36 0-11.534-5.174-11.534-11.539 0-6.359 5.174-11.533 11.534-11.533h168.084c6.36 0 11.534 5.174 11.534 11.538 0 6.36-5.174 11.534-11.534 11.534z"/></g></g></g><g/><g/><g/><g/><g/><g/><g/><g/><g/><g/><g/><g/><g/><g/><g/></svg>