<svg id="Layer_1" enable-background="new 0 0 512 512" viewBox="0 0 512 512" xmlns="http://www.w3.org/2000/svg" fill="#052438"><g><g fill="#0496FF"><path d="m313.593 60.423h-40.314c-6.075 0-11 4.925-11 11s4.925 11 11 11h40.314c6.075 0 11-4.925 11-11s-4.925-11-11-11z"/><path d="m416.686 230.085h40.314c6.075 0 11-4.925 11-11s-4.925-11-11-11h-40.314c-6.075 0-11 4.925-11 11s4.924 11 11 11z"/><path d="m506.608 343.811c-3.976-4.417-9.666-6.951-15.609-6.951h-130.788c-7.408 0-13.966 3.819-17.709 9.688l-13.175 9.107 8.631 12.967-7.049 66.78c-1.677 1.931-2.699 4.445-2.699 7.203v12.726h22v-1.726h130.9v22h-130.9v-1.889h-22v12.889c0 6.075 4.925 11 11 11h152.9c6.075 0 11-4.925 11-11v-43.423l8.773-83.117c.624-5.913-1.299-11.836-5.275-16.254zm-24.398 87.793h-128.777l7.678-72.745h128.777z"/></g><g><path d="m368.593 117.451v-92.055c0-6.075-4.925-11-11-11h-128.314c-6.075 0-11 4.925-11 11v92.055c0 6.075 4.925 11 11 11h21.439l11.054 16.29c1.693 2.495 4.337 4.186 7.313 4.677.596.098 1.194.146 1.79.146 2.38 0 4.714-.773 6.638-2.229l24.954-18.884h55.128c6.073 0 10.998-4.925 10.998-11zm-22-11h-47.821c-2.396 0-4.727.783-6.638 2.229l-18.663 14.123-7.823-11.528c-2.047-3.017-5.456-4.823-9.102-4.823h-16.268v-70.056h106.314v70.055z"/><path d="m501 162.058h-128.314c-6.075 0-11 4.925-11 11v92.055c0 6.075 4.925 11 11 11h21.439l11.054 16.29c1.693 2.495 4.337 4.186 7.313 4.677.596.098 1.194.146 1.79.146 2.38 0 4.714-.773 6.638-2.229l24.954-18.884h55.126c6.075 0 11-4.925 11-11v-92.055c0-6.076-4.925-11-11-11zm-11 92.055h-47.821c-2.396 0-4.727.783-6.638 2.229l-18.663 14.123-7.823-11.528c-2.047-3.017-5.456-4.823-9.102-4.823h-16.268v-70.055h106.315z"/><path d="m332.638 434.337-1.547-.649c-3.712-1.445-7.743-2.247-11.961-2.247h-85.066c-6.075 0-11 4.925-11 11s4.925 11 11 11h52.147v22.162h-61.036c-18.239 0-33.516-12.895-37.211-30.046 13.724-5.736 23.394-19.297 23.394-35.077 0-8.261-2.658-15.909-7.153-22.15 10.876-11.513 25.782-18.568 41.678-19.581l23.046 27.219c2.09 2.469 5.161 3.892 8.395 3.892s6.305-1.423 8.395-3.892l23.155-27.348h29.084l1.369-12.967c.35-3.318 1.456-6.382 3.132-9.033h-27.685v-7.624c2.105-1.613 4.129-3.357 6.043-5.257 11.766-11.679 18.246-27.241 18.246-43.819v-40.657c0-34.043-27.696-61.739-61.739-61.739s-61.739 27.696-61.739 61.739v29.287h-47.163v-11.155c2.505-1.875 4.908-3.92 7.179-6.154 13.334-13.114 20.678-30.635 20.678-49.335v-69.226c0-19.978-16.253-36.231-36.231-36.231h-40.69c-4.322 0-8.598.773-12.616 2.264-4.018-1.49-8.294-2.264-12.616-2.264-19.979 0-36.232 16.253-36.232 36.231v68.268c0 22.82 10.982 43.261 27.857 56.112v11.992c-48.103 4.943-85.751 45.7-85.751 95.087v7.065c0 37.097 30.181 67.277 67.277 67.277h98.846c5.163 27.911 29.669 49.123 59.052 49.123h93.955c18.241 0 33.081-14.84 33.081-33.081-.001-13.43-8.05-25.008-19.573-30.186zm-39.864-80.747-15.45 18.248-15.45-18.248v-3.922c4.798 1.259 9.816 1.953 14.984 1.991.158.001.315.002.473.002 5.281 0 10.458-.667 15.444-1.946v3.875zm-55.19-104.325c0-21.912 17.827-39.739 39.739-39.739s39.739 17.827 39.739 39.739v11.297h-1.339c-11.196 0-21.425-5.667-27.362-15.161l-1.711-2.736c-2.011-3.214-5.535-5.167-9.326-5.167s-7.315 1.953-9.326 5.167l-1.711 2.737c-5.937 9.493-16.166 15.16-27.362 15.16h-1.339v-11.297zm0 33.298h1.339c14.669 0 28.35-5.784 38.4-15.889 10.05 10.104 23.731 15.889 38.4 15.889h1.339v7.359c0 10.671-4.171 20.688-11.745 28.205-7.572 7.517-17.642 11.568-28.298 11.533-21.745-.161-39.436-18.273-39.436-40.375v-6.722zm-157.69-139.88c0-7.847 6.384-14.231 14.232-14.231 2.504 0 4.961.656 7.108 1.897 3.407 1.972 7.608 1.972 11.016 0 2.146-1.241 4.604-1.897 7.107-1.897h40.69c7.847 0 14.231 6.384 14.231 14.231v25.701h-19.798c-11.658 0-22.837-4.31-31.479-12.136-4.191-3.796-10.577-3.796-14.769 0-7.862 7.12-17.826 11.318-28.339 12.019v-25.584zm0 68.268v-20.638c12.846-.583 25.188-4.727 35.724-11.933 11.392 7.792 24.894 12.004 38.863 12.004h19.798v21.525c0 12.754-5.009 24.705-14.104 33.649-9.093 8.942-21.152 13.743-33.899 13.536-25.575-.427-46.382-22.024-46.382-48.143zm66.528 67.418v7.152l-19.335 22.837-19.335-22.837v-7.25c5.784 1.725 11.869 2.715 18.157 2.82.398.006.794.01 1.192.01 6.633 0 13.119-.938 19.321-2.732zm-68.95 116.112h67.886v32h-78.081c-24.965 0-45.277-20.311-45.277-45.277v-7.065c0-39.285 30.944-71.476 69.737-73.485l26.955 31.836c2.09 2.469 5.161 3.892 8.395 3.892s6.305-1.423 8.395-3.892l27.04-31.937h54.097c2.822 15.475 11.33 28.998 23.255 38.24v8.425c-20.473 2.438-39.429 12.3-53.198 27.679-4.147-1.557-8.633-2.415-13.318-2.415h-95.886c-6.075 0-11 4.925-11 11s4.924 10.999 11 10.999zm95.886 32h-6v-32h6c8.822 0 16 7.178 16 16s-7.178 16-16 16zm145.771 49.123h-10.919v-22.162h10.919c6.11 0 11.081 4.971 11.081 11.081s-4.97 11.081-11.081 11.081z"/></g></g><g/><g/><g/><g/><g/><g/><g/><g/><g/><g/><g/><g/><g/><g/><g/></svg>