<svg id="Capa_1" enable-background="new 0 0 512 512" viewBox="0 0 512 512" xmlns="http://www.w3.org/2000/svg" fill="#052438"><g><path d="m152.402 411.295c-.454-1.248-.715-2.842-.307-4.735 7.777-36.082 34.177-65.805 69.053-77.908 10.263 5.946 22.161 9.369 34.851 9.369 12.703 0 24.612-3.43 34.882-9.386 34.831 12.098 61.263 41.921 69.022 77.925.409 1.896.148 3.493-.302 4.735h23.172c.289-3.158.109-6.371-.574-9.54-8.516-39.514-35.54-72.893-71.868-89.81 9.639-11.965 15.427-27.157 15.427-43.683 0-38.466-31.294-69.76-69.759-69.76s-69.76 31.294-69.76 69.76c0 16.533 5.793 31.732 15.44 43.699-36.357 16.907-63.347 50.196-71.881 89.792-.683 3.168-.858 6.384-.566 9.541h23.17zm103.598-189.985c25.889 0 46.951 21.062 46.951 46.951 0 25.888-21.062 46.95-46.951 46.95s-46.951-21.062-46.951-46.95c0-25.889 21.062-46.951 46.951-46.951z" fill="#0496FF"/><g><path d="m461 19.691h-410c-28.122 0-51 22.879-51 51v370.618c0 28.121 22.878 51 51 51h410c28.122 0 51-22.879 51-51v-370.618c0-28.121-22.878-51-51-51zm-380.204 367.128c-6.075 0-11 4.925-11 11v5.566h-47.796v-260.127h468v260.127h-398.204v-5.566c0-6.075-4.924-11-11-11zm-58.796-316.128c0-15.99 13.009-29 29-29h410c15.991 0 29 13.01 29 29v50.567h-468zm439 399.618h-410c-15.991 0-29-13.01-29-29v-15.924h47.796v6.922c0 6.075 4.925 11 11 11s11-4.925 11-11v-6.922h398.204v15.924c0 15.99-13.009 29-29 29z"/><path d="m362.286 77.268c-2.734-7.125-12.671-9.096-17.93-3.57-6.903 6.791-1.907 18.86 7.78 18.769 7.63.183 13.25-8.222 10.15-15.199z"/><path d="m402.616 77.268c-2.733-7.129-12.668-9.093-17.93-3.57-6.905 6.79-1.902 18.86 7.78 18.769 7.622.186 13.26-8.226 10.15-15.199z"/><path d="m442.957 77.268c-2.763-7.125-12.661-9.097-17.94-3.57-6.193 5.995-2.863 17.022 5.631 18.559 8.427 1.827 15.745-7.073 12.309-14.989z"/></g></g><g/><g/><g/><g/><g/><g/><g/><g/><g/><g/><g/><g/><g/><g/><g/></svg>