<svg id="Capa_1" enable-background="new 0 0 512 512" viewBox="0 0 512 512" xmlns="http://www.w3.org/2000/svg" fill="#052438"><g><g><path d="m257.796 379.805c-6.075 0-11-4.925-11-11v-59.686h-14.073c-6.075 0-11-4.925-11-11s4.925-11 11-11h25.073c6.075 0 11 4.925 11 11v70.686c0 6.075-4.925 11-11 11z" fill="#0496FF"/></g><g><path d="m298.825 160.128 104.558-43.024c7.887-3.246 12.983-10.854 12.983-19.383v-76.762c0-11.557-9.402-20.959-20.96-20.959h-281.4c-11.557 0-20.959 9.402-20.959 20.959v76.725c0 8.577 5.136 16.201 13.085 19.424l106.47 43.161c-77.541 19.438-135.14 89.711-135.14 173.193 0 98.446 80.092 178.538 178.538 178.538s178.538-80.092 178.538-178.538c0-83.688-57.883-154.099-135.713-173.334zm-64.719-138.128h41.199v124.016l-19.504 8.026-21.695-8.795zm-22 114.329-41.198-16.701v-97.628h41.198zm85.199-114.329h41.199v98.011l-41.199 16.953zm97.061 75.024-33.862 13.934v-88.958h33.862zm-279.319-75.024h33.861v88.709l-33.861-13.727zm140.953 468c-86.315 0-156.538-70.223-156.538-156.538s70.223-156.538 156.538-156.538 156.538 70.223 156.538 156.538-70.223 156.538-156.538 156.538z"/><path d="m256 212.339c-66.788 0-121.124 54.336-121.124 121.123 0 66.788 54.336 121.124 121.124 121.124s121.123-54.336 121.123-121.124c0-66.787-54.335-121.123-121.123-121.123zm0 220.247c-54.657 0-99.124-44.467-99.124-99.124 0-54.656 44.467-99.123 99.124-99.123s99.123 44.467 99.123 99.123c0 54.657-44.466 99.124-99.123 99.124z"/></g></g><g/><g/><g/><g/><g/><g/><g/><g/><g/><g/><g/><g/><g/><g/><g/></svg>