<svg id="Layer_1" enable-background="new 0 0 512 512" viewBox="0 0 512 512" xmlns="http://www.w3.org/2000/svg" fill="#052438"><g><g><g><path d="m470.965 148.825h-11.699v-43.748c0-6.075-4.925-11-11-11h-86.643c-6.075 0-.075 22 6 22h69.643v270.838h-147.551c-9.45 0-16.881 1.849-22.715 4.632v-58.484c0-6.075-22-6.075-22 0v58.45c-5.993-2.835-13.466-4.598-22.715-4.598h-147.551v-270.838h66.468c6.075 0 13.075-22 7-22h-84.468c-6.075 0-11 4.925-11 11v43.748h-11.699c-22.627 0-41.035 18.434-41.035 41.093v239.112c0 22.659 18.408 41.093 41.035 41.093h168.431c4.438 11.641 15.707 19.931 28.874 19.931h35.32c13.167 0 24.436-8.291 28.874-19.931h168.431c22.627 0 41.035-18.434 41.035-41.093v-239.112c0-22.659-18.408-41.093-41.035-41.093zm19.035 280.205c0 10.528-8.539 19.093-19.035 19.093h-177.412c-6.075 0-11 4.925-11 11 0 4.925-3.989 8.931-8.893 8.931h-35.32c-4.903 0-8.893-4.006-8.893-8.931 0-6.075-4.925-11-11-11h-177.412c-10.496 0-19.035-8.565-19.035-19.093v-239.112c0-10.528 8.539-19.093 19.035-19.093h11.699v227.091c0 6.075 4.925 11 11 11h158.551c20.366 0 22.54 12.709 22.719 16.646.153 5.958 5.028 10.716 10.995 10.715h.026c5.962-.014 10.819-4.773 10.971-10.718.179-3.936 2.354-16.644 22.719-16.644h158.551c6.075 0 11-4.925 11-11v-227.09h11.699c10.496 0 19.035 8.565 19.035 19.093z"/><path d="m364.217 303.059h34.623c6.075 0 11-4.925 11-11s-4.925-11-11-11h-34.623c-6.075 0-11 4.925-11 11s4.925 11 11 11z"/><path d="m364.217 354.515h34.623c6.075 0 11-4.925 11-11s-4.925-11-11-11h-34.623c-6.075 0-11 4.925-11 11s4.925 11 11 11z"/><path d="m147.783 281.059h-34.623c-6.075 0-11 4.925-11 11s4.925 11 11 11h34.623c6.075 0 11-4.925 11-11s-4.925-11-11-11z"/><path d="m147.783 332.515h-34.623c-6.075 0-11 4.925-11 11s4.925 11 11 11h34.623c6.075 0 11-4.925 11-11s-4.925-11-11-11z"/></g><path d="m341.779 57.135c-23.468-23.144-54.533-35.628-87.517-35.178-31.982.446-62.111 13.291-84.837 36.169-22.721 22.874-35.383 53.102-35.656 85.117-.347 40.713 19.465 78.814 52.996 101.921 8.102 5.583 12.938 14.858 12.938 24.812v12.896c0 31.071 25.255 56.349 56.297 56.349s56.297-25.278 56.297-56.349v-12.892c0-9.917 4.959-19.278 13.265-25.041 32.981-22.887 52.673-60.505 52.673-100.629-.001-33.032-12.947-63.991-36.456-87.175zm-51.482 225.738c0 18.94-15.386 34.349-34.297 34.349s-34.297-15.409-34.297-34.349v-12.896c0-2.33-.155-4.639-.456-6.914h69.515c-.307 2.278-.465 4.588-.465 6.917zm22.722-56.009c-5.586 3.876-10.287 8.715-13.938 14.199h-32.081v-64.097c0-7.206 5.85-13.067 13.039-13.067 6.075 0 11-4.925 11-11s-4.925-11-11-11c-9.297 0-17.76 3.643-24.039 9.578-6.279-5.934-14.742-9.578-24.039-9.578-6.075 0-11 4.925-11 11s4.925 11 11 11c7.189 0 13.039 5.862 13.039 13.067v64.097h-31.991c-3.606-5.439-8.247-10.215-13.759-14.013-27.512-18.958-43.766-50.217-43.48-83.618.46-54.098 44.781-98.723 98.8-99.476.48-.007.959-.01 1.438-.01 26.498 0 51.422 10.214 70.324 28.854 19.282 19.017 29.902 44.412 29.902 71.509 0 32.916-16.155 63.777-43.215 82.555z" fill="#0496FF"/></g></g><g/><g/><g/><g/><g/><g/><g/><g/><g/><g/><g/><g/><g/><g/><g/></svg>