<svg id="Capa_1" enable-background="new 0 0 512 512" viewBox="0 0 512 512" xmlns="http://www.w3.org/2000/svg" fill="#E6ECF2"><g><path d="m470.966 334.23-33.659-33.66c-4.296-4.296-11.261-4.296-15.557 0s-4.296 11.261 0 15.556l33.659 33.661c4.086 4.085 6.336 9.517 6.336 15.294s-2.25 11.209-6.336 15.294l-103.289 103.29c-4.085 4.085-9.517 6.335-15.294 6.335s-11.21-2.25-15.295-6.335l-21.832-21.832c-6.23-6.23-14.248-10.35-23.186-11.913-4.393-.768-8.789-1.791-13.067-3.039-5.83-1.701-11.938 1.647-13.64 7.479-1.701 5.832 1.647 11.939 7.479 13.641 5.055 1.474 10.249 2.682 15.438 3.589 4.456.78 8.405 2.785 11.42 5.799l21.831 21.832c8.241 8.24 19.197 12.779 30.852 12.779s22.61-4.539 30.851-12.779l103.29-103.29c8.24-8.24 12.779-19.197 12.779-30.851s-4.539-22.61-12.78-30.85z" fill="#0496FF"/><g><path d="m186.458 37.935c1.748 4.25 5.851 6.818 10.177 6.818 1.395 0 2.812-.267 4.181-.83 5.618-2.311 8.3-8.739 5.988-14.357l-8.994-21.862c-2.312-5.619-8.74-8.297-14.357-5.988-5.618 2.311-8.3 8.739-5.988 14.357z"/><path d="m255.996 45.639c6.075 0 11-4.925 11-11v-23.639c0-6.075-4.925-11-11-11s-11 4.925-11 11v23.639c0 6.075 4.925 11 11 11z"/><path d="m311.176 43.923c1.369.563 2.786.83 4.181.83 4.326 0 8.429-2.569 10.177-6.818l8.993-21.862c2.312-5.618-.37-12.046-5.988-14.357-5.616-2.312-12.046.369-14.357 5.988l-8.993 21.862c-2.312 5.618.369 12.046 5.987 14.357z"/><path d="m475.062 214.62c-8.42-8.419-19.61-12.43-30.661-12.017.02-.516.029-1.034.029-1.553 0-11.002-4.285-21.346-12.064-29.126-8.42-8.419-19.594-12.429-30.66-12.016.02-.516.029-1.034.029-1.553 0-11.002-4.285-21.346-12.064-29.126-7.78-7.78-18.124-12.065-29.126-12.065-.52 0-1.038.009-1.554.028.408-11.053-3.598-22.24-12.017-30.66-7.78-7.78-18.124-12.064-29.126-12.064s-21.346 4.284-29.126 12.064l-36.344 36.343c-4.296 4.296-4.296 11.261 0 15.556 4.296 4.296 11.261 4.296 15.557 0l36.344-36.343c3.624-3.625 8.443-5.621 13.569-5.621s9.945 1.996 13.569 5.621c7.482 7.482 7.482 19.657 0 27.14-2.147 2.148-3.222 4.963-3.222 7.778s1.074 5.63 3.222 7.778c4.297 4.296 11.262 4.295 15.557 0 3.625-3.625 8.443-5.621 13.57-5.621 5.126 0 9.944 1.996 13.569 5.621s5.621 8.443 5.621 13.569-1.997 9.945-5.622 13.57c-2.147 2.148-3.222 4.963-3.222 7.778s1.074 5.63 3.222 7.778c4.296 4.296 11.261 4.296 15.557 0 7.482-7.482 19.659-7.482 27.14 0 3.625 3.625 5.621 8.443 5.621 13.569s-1.996 9.945-5.621 13.57c-2.147 2.148-3.222 4.963-3.222 7.778s1.074 5.63 3.222 7.778c4.297 4.296 11.26 4.296 15.557 0 7.483-7.482 19.658-7.481 27.14 0 7.482 7.482 7.482 19.657.008 27.132l-159.243 158.947c-13.739 13.74-30.801 24.081-49.34 29.906-21.905 6.881-42.065 19.101-58.303 35.338l-2.168 2.168c-4.085 4.085-9.518 6.335-15.295 6.335s-11.209-2.25-15.294-6.335l-103.29-103.29c-4.086-4.085-6.336-9.517-6.336-15.294s2.25-11.209 6.336-15.294l33.645-33.645c4.296-4.296 4.296-11.261 0-15.557-4.297-4.296-11.26-4.296-15.557 0l-33.645 33.645c-8.24 8.241-12.779 19.197-12.779 30.851s4.539 22.61 12.779 30.851l103.29 103.29c8.24 8.241 19.196 12.779 30.851 12.779s22.61-4.538 30.852-12.779l2.168-2.168c13.741-13.741 30.803-24.083 49.34-29.906 21.907-6.883 42.068-19.103 58.295-35.331l159.242-158.944c16.06-16.061 16.06-42.193 0-58.253z"/></g><path d="m273.422 194.273c16.086-16.086 16.086-42.261 0-58.348l-49.725-49.725c-7.793-7.792-18.153-12.084-29.174-12.084s-21.381 4.292-29.174 12.084c-8.442 8.442-12.446 19.663-12.027 30.746-.529-.02-1.058-.039-1.59-.039-11.021 0-21.381 4.292-29.174 12.084-8.441 8.442-12.445 19.662-12.026 30.745-.529-.02-1.058-.039-1.59-.039-11.021 0-21.381 4.292-29.174 12.084-8.442 8.442-12.446 19.663-12.027 30.746-.529-.02-1.058-.039-1.59-.039-11.021 0-21.381 4.292-29.174 12.084-7.792 7.792-12.084 18.153-12.084 29.174s4.292 21.381 12.084 29.173l49.726 49.726c7.793 7.792 18.153 12.084 29.174 12.084s21.381-4.292 29.174-12.084c8.442-8.442 12.446-19.663 12.027-30.746.529.02 1.058.039 1.59.039 11.021 0 21.381-4.292 29.174-12.084 8.442-8.442 12.446-19.663 12.027-30.745.529.02 1.058.039 1.59.039 11.021 0 21.381-4.292 29.174-12.084 8.442-8.442 12.446-19.663 12.027-30.746.529.02 1.057.039 1.589.039 11.02 0 21.381-4.292 29.173-12.084zm-138.288 99.199c0 5.144-2.003 9.98-5.641 13.617-7.509 7.509-19.726 7.508-27.234 0l-49.726-49.726c-3.638-3.637-5.641-8.473-5.641-13.617s2.003-9.98 5.641-13.617c3.754-3.754 8.686-5.632 13.617-5.632s9.863 1.877 13.617 5.632l49.726 49.726c3.638 3.637 5.641 8.473 5.641 13.617zm42.791-42.791c0 5.144-2.003 9.979-5.641 13.617-7.508 7.509-19.727 7.509-27.234 0l-49.726-49.726c-3.638-3.637-5.641-8.473-5.641-13.617s2.003-9.98 5.641-13.617c3.637-3.638 8.474-5.641 13.617-5.641s9.979 2.003 13.616 5.641l49.727 49.726c3.638 3.637 5.641 8.473 5.641 13.617zm42.791-42.791c0 5.144-2.003 9.98-5.641 13.617-7.508 7.509-19.727 7.509-27.234 0l-49.727-49.726c-7.508-7.509-7.508-19.726.001-27.235 3.637-3.637 8.473-5.64 13.616-5.64s9.98 2.003 13.617 5.641l49.727 49.726c3.639 3.637 5.641 8.473 5.641 13.617zm-39.81-78.899c-3.638-3.637-5.641-8.473-5.641-13.617s2.003-9.98 5.641-13.617c3.754-3.754 8.686-5.632 13.617-5.632s9.863 1.877 13.617 5.632l49.726 49.726c3.638 3.637 5.641 8.473 5.641 13.617s-2.003 9.98-5.641 13.617c-7.508 7.51-19.726 7.509-27.233 0z" fill="#0496FF"/></g><g/><g/><g/><g/><g/><g/><g/><g/><g/><g/><g/><g/><g/><g/><g/></svg>