<svg id="Capa_1" enable-background="new 0 0 512.003 512.003" viewBox="0 0 512.003 512.003" xmlns="http://www.w3.org/2000/svg" fill="#E6ECF2"><g><g><path d="m155.193 150.885c7.528-10.128 11.989-22.665 11.989-36.225 0-33.558-27.302-60.859-60.859-60.859s-60.86 27.301-60.86 60.859c0 13.56 4.461 26.096 11.989 36.225-28.988 14.644-49.899 41.466-56.825 73.6-1.764 8.18.231 16.595 5.474 23.086 5.206 6.447 12.946 10.145 21.236 10.145h157.971c8.29 0 16.03-3.698 21.236-10.145 5.242-6.491 7.237-14.906 5.474-23.086-6.931-32.159-27.834-58.961-56.825-73.6zm-48.87-75.085c21.427 0 38.859 17.433 38.859 38.859s-17.433 38.859-38.859 38.859-38.859-17.433-38.859-38.859 17.432-38.859 38.859-38.859zm83.105 157.949c-.593.734-1.917 1.966-4.12 1.966h-157.971c-2.203 0-3.527-1.231-4.12-1.966-.613-.761-1.57-2.373-1.084-4.631 6.126-28.422 25.996-51.634 53.167-62.129 9.091 5.41 19.698 8.529 31.023 8.529 11.323 0 21.928-3.118 31.019-8.527 27.178 10.494 47.04 33.682 53.171 62.126.486 2.259-.472 3.872-1.085 4.632z"/><path d="m511.375 424.971c-6.93-32.158-27.833-58.959-56.824-73.6 7.527-10.128 11.989-22.665 11.989-36.225 0-33.558-27.302-60.859-60.859-60.859-33.559 0-60.86 27.302-60.86 60.859 0 13.561 4.462 26.097 11.989 36.225-28.988 14.646-49.899 41.467-56.824 73.599-1.763 8.18.231 16.595 5.474 23.086 5.206 6.447 12.946 10.146 21.236 10.146h157.97c8.29 0 16.031-3.697 21.236-10.145 5.242-6.491 7.237-14.905 5.473-23.086zm-105.694-148.683c21.427 0 38.859 17.433 38.859 38.859s-17.433 38.859-38.859 38.859c-21.428 0-38.86-17.433-38.86-38.859s17.432-38.859 38.86-38.859zm83.105 157.949c-.593.734-1.916 1.966-4.12 1.966h-157.97c-2.203 0-3.527-1.231-4.12-1.966-.613-.761-1.57-2.373-1.084-4.631 6.125-28.421 25.995-51.632 53.167-62.128 9.091 5.41 19.698 8.529 31.023 8.529 11.323 0 21.927-3.118 31.017-8.526 27.179 10.493 47.041 33.681 53.171 62.125.486 2.259-.471 3.871-1.084 4.631z"/></g><g fill="#0496FF"><path d="m368.29 76.986h-109.052l4.407-4.407c4.296-4.296 4.296-11.261 0-15.557-4.297-4.295-11.26-4.295-15.557 0l-23.186 23.186c-4.296 4.296-4.296 11.261 0 15.557l23.186 23.186c2.148 2.147 4.963 3.222 7.778 3.222s5.63-1.074 7.778-3.222c4.296-4.296 4.296-11.261 0-15.557l-4.407-4.407h109.053c17.799 0 32.279 14.48 32.279 32.279v83.069c0 6.075 4.925 11 11 11s11-4.925 11-11v-83.069c0-29.931-24.35-54.28-54.279-54.28z"/><path d="m234.036 393.053c-4.297-4.295-11.26-4.295-15.557 0-4.296 4.296-4.296 11.261 0 15.557l4.407 4.407h-109.052c-17.799 0-32.279-14.48-32.279-32.279v-83.069c0-6.075-4.925-11-11-11s-11 4.925-11 11v83.069c0 29.93 24.35 54.279 54.279 54.279h109.052l-4.407 4.407c-4.296 4.296-4.296 11.261 0 15.557 2.148 2.147 4.963 3.222 7.778 3.222s5.63-1.074 7.778-3.222l23.186-23.186c4.296-4.296 4.296-11.261 0-15.557z"/></g></g><g/><g/><g/><g/><g/><g/><g/><g/><g/><g/><g/><g/><g/><g/><g/></svg>