<svg id="Capa_1" enable-background="new 0 0 512 512" viewBox="0 0 512 512" xmlns="http://www.w3.org/2000/svg" fill="#E6ECF2"><g><g><path d="m113.295 138.382c-6.146 0-12.291-2.339-16.97-7.018l-36.452-36.452c-4.533-4.533-7.029-10.559-7.029-16.97s2.497-12.437 7.03-16.97l16.994-16.995c9.357-9.358 24.583-9.357 33.94 0l36.452 36.453c4.533 4.533 7.029 10.559 7.029 16.97s-2.497 12.437-7.029 16.97l-16.994 16.994c-4.68 4.679-10.826 7.018-16.971 7.018zm-1.414-22.574c.779.78 2.049.78 2.828 0l16.994-16.994c.484-.484.586-1.036.586-1.414 0-.377-.102-.929-.585-1.413l-36.454-36.453c-.78-.779-2.048-.78-2.827 0l-16.994 16.994c-.484.484-.586 1.036-.586 1.414s.102.93.585 1.414z" fill="#0496FF"/></g><g><path d="m351.875 177.454c-6.411 0-12.437-2.497-16.97-7.029l-16.995-16.995c-4.533-4.533-7.029-10.56-7.029-16.97 0-6.411 2.496-12.438 7.029-16.97l36.453-36.453c4.533-4.533 10.56-7.029 16.97-7.029s12.437 2.496 16.97 7.029l16.995 16.995c4.533 4.533 7.029 10.56 7.029 16.97s-2.497 12.437-7.03 16.97l-36.452 36.453c-4.533 4.532-10.56 7.029-16.97 7.029zm19.458-79.446c-.378 0-.93.102-1.414.585l-36.453 36.453c-.484.483-.585 1.036-.585 1.414 0 .377.102.93.585 1.413l16.995 16.995c.484.484 1.036.586 1.414.586.377 0 .929-.102 1.413-.585l36.453-36.453c.484-.484.586-1.036.586-1.413 0-.378-.102-.93-.586-1.414l-16.995-16.995c-.484-.484-1.036-.586-1.413-.586z" fill="#0496FF"/></g><g><path d="m263.758 280.934h-15.516c-6.075 0-11 4.925-11 11s4.925 11 11 11h4.516v22.617c0 6.075 4.925 11 11 11s11-4.925 11-11v-33.617c0-6.076-4.925-11-11-11z"/><path d="m461 369.22h-96.482v-93.737c0-28.122-22.878-51-51-51h-115.036c-28.122 0-51 22.878-51 51v93.737h-96.482c-28.122 0-51 22.878-51 51v23.821c0 17.093 13.907 31 31 31h450c17.093 0 31-13.907 31-31v-23.821c0-28.122-22.878-51-51-51zm-291.518-93.738c0-15.991 13.009-29 29-29h115.036c15.991 0 29 13.009 29 29v93.737h-173.036zm320.518 168.559c0 4.962-4.038 9-9 9h-450c-4.962 0-9-4.038-9-9v-23.821c0-15.991 13.009-29 29-29h410c15.991 0 29 13.009 29 29z"/></g><g><path d="m48.947 272.535c-2.121 0-4.265-.612-6.154-1.89-5.032-3.404-6.352-10.242-2.947-15.274l13.625-20.142c.034-.051.115-.169.074-.371-.041-.201-.161-.279-.212-.313-5.228-3.409-8.83-8.893-9.882-15.045s.522-12.521 4.32-17.474l12.627-16.471c3.697-4.822 10.602-5.733 15.423-2.038 4.821 3.696 5.733 10.601 2.037 15.423l-12.628 16.472c-.042.055-.13.169-.094.379s.157.289.215.327c5.092 3.321 8.558 8.432 9.76 14.39s-.012 12.013-3.417 17.048l-13.626 20.142c-2.127 3.142-5.593 4.837-9.121 4.837z" fill="#0496FF"/></g><g><path d="m100.707 327.784c-7.627.189-13.263-8.222-10.16-15.2 3.597-8.98 16.715-8.981 20.31 0 3.134 6.905-2.58 15.434-10.15 15.2z" fill="#0496FF"/></g><g><path d="m463.053 272.535c-3.529 0-6.995-1.694-9.121-4.837l-13.625-20.142c-3.406-5.035-4.62-11.089-3.418-17.048s4.668-11.069 9.76-14.39c.058-.038.179-.117.215-.327s-.052-.325-.094-.379l-12.628-16.472c-3.696-4.822-2.784-11.727 2.037-15.423 4.82-3.696 11.726-2.785 15.423 2.038l12.628 16.472c3.797 4.953 5.372 11.322 4.319 17.474s-4.654 11.636-9.881 15.045c-.052.034-.172.112-.213.313s.04.319.075.37l13.625 20.142c3.404 5.032 2.084 11.871-2.947 15.274-1.89 1.278-4.034 1.89-6.155 1.89z" fill="#0496FF"/></g><g><path d="m411.296 327.784c-7.626.186-13.248-8.217-10.16-15.2 3.628-8.981 16.697-8.985 20.32 0 3.095 6.982-2.534 15.388-10.16 15.2z" fill="#0496FF"/></g><g><path d="m209.556 169.924c-7.635.176-13.257-8.223-10.159-15.21 3.61-8.967 16.707-8.969 20.31 0 3.13 6.914-2.57 15.434-10.151 15.21z" fill="#0496FF"/></g><g><path d="m442.866 74.584c-7.622.161-13.252-8.227-10.15-15.21 3.604-8.979 16.706-8.978 20.31 0 3.102 6.988-2.53 15.376-10.16 15.21z" fill="#0496FF"/></g></g><g/><g/><g/><g/><g/><g/><g/><g/><g/><g/><g/><g/><g/><g/><g/></svg>