<svg id="Capa_1" enable-background="new 0 0 512.006 512.006" viewBox="0 0 512.006 512.006" xmlns="http://www.w3.org/2000/svg" fill="#052438"><g><g fill="#0496FF"><path d="m466.096 26.553c4.296-4.296 4.296-11.261 0-15.556-4.297-4.295-11.262-4.296-15.557 0l-22.612 22.613c-4.296 4.296-4.296 11.261 0 15.556 2.148 2.148 4.963 3.222 7.778 3.222s5.631-1.074 7.778-3.222z"/><path d="m483.97 70.958h-31.979c-6.075 0-11 4.925-11 11s4.925 11 11 11h31.979c6.075 0 11-4.925 11-11s-4.925-11-11-11z"/><path d="m61.467 10.997c-4.296-4.296-11.261-4.296-15.557 0-4.295 4.296-4.295 11.26 0 15.556l22.613 22.613c2.148 2.148 4.963 3.222 7.778 3.222s5.63-1.074 7.778-3.222c4.296-4.296 4.296-11.26 0-15.556z"/><path d="m60.016 70.958h-31.98c-6.075 0-11 4.925-11 11s4.925 11 11 11h31.979c6.075 0 11-4.925 11-11s-4.924-11-10.999-11z"/></g><path d="m393.01 294.216c26.702-32.122 41.408-72.851 41.408-114.684 0-25.337-5.176-49.835-15.383-72.814-9.858-22.191-23.896-41.874-41.727-58.502-36.8-34.32-84.845-51.281-135.285-47.76-40.699 2.842-80.497 21.606-112.063 52.837-31.572 31.237-50.751 70.833-54.002 111.496-3.753 46.938 10.551 92.67 40.276 128.774 14.89 18.083 23.089 40.526 23.089 63.193v12.98c-8.963 7.11-14.729 18.085-14.729 30.387 0 17.766 12.014 32.77 28.34 37.342 4.764 41.887 40.403 74.542 83.543 74.542h35.808c43.325 0 79.094-32.933 83.612-75.079 15.424-5.125 26.583-19.682 26.583-36.805 0-11.013-4.622-20.961-12.02-28.027v-15.35c.002-22.831 8.01-45.038 22.55-62.53zm-120.724 195.79h-35.808c-30.489 0-55.919-22.089-61.127-51.103h158.062c-5.208 29.014-30.637 51.103-61.127 51.103zm71.414-73.103h-180.324c-9.253 0-16.781-7.528-16.781-16.781s7.528-16.781 16.781-16.781h180.324c9.253 0 16.781 7.528 16.781 16.781s-7.528 16.781-16.781 16.781zm-65.211-197.424v141.862h-47.193v-141.862zm65.211 141.862h-43.211v-141.862h21.512c6.075 0 11-4.925 11-11s-4.925-11-11-11h-134.217c-6.075 0-11 4.925-11 11s4.925 11 11 11h21.512v141.862h-45.92c-.689 0-1.373.02-2.053.055v-4.641c0-27.756-9.981-55.164-28.104-77.177-26.079-31.674-38.627-71.818-35.331-113.036 5.839-73.026 72.547-139.034 145.669-144.139 44.284-3.093 86.459 11.789 118.747 41.902 31.849 29.702 50.114 71.7 50.114 115.227 0 36.707-12.9 72.441-36.326 100.621-17.817 21.434-27.63 48.635-27.63 76.592v4.899c-1.562-.193-3.149-.303-4.762-.303z"/></g><g/><g/><g/><g/><g/><g/><g/><g/><g/><g/><g/><g/><g/><g/><g/></svg>