<svg id="Capa_1" enable-background="new 0 0 512.003 512.003" viewBox="0 0 512.003 512.003" xmlns="http://www.w3.org/2000/svg" fill="#E6ECF2"><g><g><path d="m341.791 344.402c-15.118 32.859-20.531 69.574-15.657 106.167l5.227 39.434h-152.604v-42.718c0-6.075-4.925-11-11-11h-63.699c-18.311 0-33.208-14.897-33.208-33.208v-51.324c0-6.075-4.925-11-11-11h-36.598l38.22-89.259c.586-1.369.888-2.841.888-4.33 0-36.932 13.185-72.717 37.125-100.765 23.68-27.743 56.411-46.343 92.164-52.374l-3.659-21.693c-40.836 6.888-78.21 28.12-105.237 59.784-26.841 31.446-41.842 71.407-42.377 112.757l-38.785 90.575c-2.6 6.071-1.981 12.987 1.655 18.5 3.637 5.513 9.75 8.804 16.355 8.804h29.249v40.324c0 30.442 24.767 55.208 55.208 55.208h52.699v42.718c0 6.075 4.925 11 11 11h176.158c3.169 0 6.185-1.367 8.273-3.751s3.048-5.553 2.631-8.694l-6.877-51.886c-4.325-32.47.458-65 13.834-94.074z"/><path d="m332.976 82.968c-41.191 0-74.88 33.066-75.098 73.711-.124 23.167 10.296 44.627 28.589 58.88 1.564 1.218 2.461 2.955 2.46 4.764l-.008 27.369c-.002 7.836 3.047 15.204 8.587 20.746s12.906 8.594 20.743 8.594h27.496c7.838 0 15.206-3.053 20.746-8.597 5.541-5.544 8.589-12.914 8.584-20.751l-.016-27.44c-.001-1.761.871-3.448 2.392-4.63 18.221-14.161 28.671-35.494 28.671-58.53.001-40.868-32.812-74.116-73.146-74.116zm17.955 169.915c-1.385 1.385-3.226 2.148-5.185 2.148h-27.496c-1.958 0-3.8-.763-5.184-2.147-1.385-1.385-2.146-3.226-2.146-5.185l.005-16.373h42.142l.009 16.371c.001 1.959-.761 3.801-2.145 5.186zm13.022-54.641c-3.854 2.995-6.789 6.809-8.637 11.084h-12.316v-38.03c0-6.075-4.925-11-11-11s-11 4.925-11 11v38.03h-12.35c-1.857-4.287-4.8-8.114-8.662-11.122-12.868-10.025-20.197-25.118-20.11-41.407.153-28.579 23.973-51.829 53.098-51.829 28.203 0 51.147 23.379 51.147 52.116 0 16.194-7.352 31.196-20.17 41.158z"/></g><path d="m501 133.792h-15.488c-3.088-10.282-7.201-20.208-12.291-29.664l10.955-10.955c4.295-4.295 4.295-11.26 0-15.556l-49.792-49.792c-4.296-4.296-11.261-4.296-15.557 0l-10.955 10.955c-9.456-5.09-19.382-9.203-29.664-12.291v-15.489c0-6.075-4.925-11-11-11h-70.417c-6.075 0-11 4.925-11 11v15.488c-10.282 3.088-20.208 7.201-29.664 12.291l-10.955-10.955c-4.297-4.296-11.261-4.296-15.557 0l-49.792 49.792c-2.062 2.063-3.222 4.861-3.222 7.778s1.159 5.715 3.222 7.778l10.955 10.955c-5.09 9.457-9.203 19.382-12.292 29.664h-15.486c-6.075 0-11 4.925-11 11v70.417c0 6.075 4.925 11 11 11h15.488c3.088 10.281 7.202 20.209 12.292 29.664l-10.955 10.955c-4.295 4.296-4.295 11.261 0 15.557l49.792 49.792c4.296 4.296 11.261 4.296 15.557 0l10.955-10.955c9.457 5.09 19.382 9.203 29.664 12.292v15.487c0 6.075 4.925 11 11 11h70.417c6.075 0 11-4.925 11-11v-15.488c10.282-3.088 20.208-7.201 29.664-12.292l10.954 10.955c2.063 2.063 4.861 3.222 7.778 3.222s5.715-1.159 7.778-3.222l49.792-49.792c4.295-4.296 4.295-11.261 0-15.556l-10.955-10.955c5.09-9.456 9.203-19.382 12.291-29.664h15.488c6.075 0 11-4.925 11-11v-70.417c0-6.075-4.925-10.999-11-10.999zm-11 70.416h-12.901c-5.079 0-9.498 3.478-10.692 8.415-3.361 13.898-8.846 27.135-16.302 39.344-2.647 4.335-1.982 9.919 1.609 13.512l9.126 9.126-34.236 34.235-9.126-9.126c-3.592-3.593-9.177-4.258-13.512-1.61-12.208 7.457-25.446 12.942-39.343 16.302-4.937 1.194-8.415 5.612-8.415 10.692v12.902h-48.417v-12.901c0-5.08-3.478-9.498-8.415-10.692-13.897-3.36-27.135-8.845-39.343-16.302-4.334-2.646-9.919-1.982-13.512 1.609l-9.126 9.127-34.236-34.236 9.127-9.126c3.592-3.592 4.257-9.177 1.609-13.512-7.457-12.208-12.942-25.446-16.303-39.344-1.194-4.937-5.613-8.415-10.692-8.415h-12.9v-48.417h12.901c5.08 0 9.498-3.478 10.692-8.415 3.36-13.897 8.845-27.135 16.302-39.343 2.647-4.335 1.982-9.92-1.609-13.512l-9.127-9.126 34.236-34.235 9.126 9.126c3.592 3.592 9.176 4.257 13.512 1.609 12.209-7.457 25.447-12.941 39.345-16.302 4.937-1.194 8.415-5.613 8.415-10.692v-12.901h48.417v12.901c0 5.079 3.478 9.498 8.415 10.692 13.898 3.361 27.135 8.846 39.344 16.302 4.334 2.647 9.919 1.983 13.512-1.609l9.126-9.126 34.236 34.235-9.126 9.127c-3.592 3.592-4.257 9.176-1.609 13.511 7.457 12.209 12.941 25.446 16.302 39.344 1.194 4.937 5.613 8.415 10.692 8.415h12.898z" fill="#0496FF"/></g><g/><g/><g/><g/><g/><g/><g/><g/><g/><g/><g/><g/><g/><g/><g/></svg>