<svg id="Layer_1" enable-background="new 0 0 510.308 510.308" viewBox="0 0 510.308 510.308" xmlns="http://www.w3.org/2000/svg" fill="#E6ECF2"><g><g fill="#0496FF"><path d="m432.352 0h-354.396c-6.075 0-11 4.925-11 11v140.008c0 6.075 4.925 11 11 11h117.304l55.149-14.285 58.723 14.285h123.219c6.075 0 11-4.925 11-11v-140.008c.001-6.075-4.924-11-10.999-11zm-11 140.008h-332.396v-118.008h332.396z"/><path d="m277.966 120.161c.789.136 1.243.214 7.901.214 3.151 0 7.691-.018 14.314-.055 6.075-.034 10.973-4.986 10.938-11.062-.034-6.055-4.952-10.938-10.999-10.938h-.063c-3.081.018-6.301.031-9.225.04v-47.106c0-6.075-4.925-11-11-11s-11 4.925-11 11v58.066c.001 5.355 3.857 9.932 9.134 10.841z"/><path d="m146.442 120.369c6.075 0 11-4.925 11-11v-19.055h18.092v19.055c0 6.075 4.925 11 11 11s11-4.925 11-11v-58.115c0-6.075-4.925-11-11-11s-11 4.925-11 11v17.061h-18.092v-17.061c0-6.075-4.925-11-11-11s-11 4.925-11 11v58.115c0 6.075 4.925 11 11 11z"/><path d="m221.699 120.369h24.188c6.075 0 11-4.925 11-11s-4.925-11-11-11h-13.188v-6.792h11.405c6.075 0 11-4.925 11-11s-4.925-11-11-11h-11.405v-6.793h13.188c6.075 0 11-4.925 11-11s-4.925-11-11-11h-24.188c-6.075 0-11 4.925-11 11v57.585c0 6.075 4.925 11 11 11z"/><path d="m331.064 120.369c6.075 0 11-4.925 11-11v-14.301c1.998-.009 3.854-.015 5.132-.015 15.257 0 27.669-12.291 27.669-27.399s-12.413-27.4-27.669-27.4h-16.132c-.092 0-.184.001-.276.003-.072.002-.144.005-.216.008-.019.001-.038.001-.057.002-2.825.139-5.37 1.343-7.241 3.219l-.001.001c-.004.004-.008.009-.013.013-.059.059-.117.119-.174.18-.01.011-.021.022-.031.033-.051.054-.102.109-.152.164-.013.014-.025.028-.038.042-.048.054-.096.108-.143.162-.01.011-.019.022-.029.034-.05.059-.099.117-.148.177-.005.007-.011.013-.016.02-.053.065-.105.131-.156.197 0 .001-.001.001-.002.002-1.294 1.666-2.12 3.714-2.28 5.947-.002.021-.003.043-.004.065-.004.066-.009.132-.012.198-.002.044-.003.087-.005.131-.002.046-.004.092-.005.138-.001.057-.002.115-.002.172 0 .03-.001.061-.001.091v58.115c.002 6.076 4.927 11.001 11.002 11.001zm16.132-58.115c3.02 0 5.669 2.523 5.669 5.4 0 2.876-2.649 5.399-5.669 5.399-1.268 0-3.1.006-5.076.015-.009-2.112-.015-4.078-.015-5.414 0-1.161-.004-3.174-.009-5.4z"/></g><g><path d="m389.37 274.425c0-74.118-60.127-134.417-134.033-134.417h-.366c-73.906 0-134.033 60.299-134.033 134.417v92.011c0 25.236 7.544 49.183 21.877 69.635-8.593 11.232-13.706 25.274-13.706 40.49v22.747c0 6.075 4.925 11 11 11h230.091c6.075 0 11-4.925 11-11v-22.747c0-15.22-5.115-29.264-13.711-40.497 14.159-20.299 21.882-44.729 21.882-69.628v-92.011zm-246.432 0c0-61.987 50.258-112.417 112.033-112.417h.366c61.775 0 112.033 50.43 112.033 112.417v92.011c0 19.657-5.555 38.294-16.149 54.442-10.484-6.932-23.031-10.969-36.502-10.969h-28.869v-19.096c35.901-12.678 61.703-47.031 61.703-87.312v-32.471c-.021-7.944-3.221-15.342-9.01-20.829-5.752-5.452-13.583-8.354-21.493-7.946-.855.043-1.716.065-2.559.065-15.235 0-29.4-6.891-38.863-18.904-4.989-6.334-12.452-9.967-20.474-9.967s-15.484 3.633-20.474 9.967c-9.463 12.014-23.628 18.904-38.864 18.904-.843 0-1.704-.022-2.56-.065-7.914-.419-15.74 2.493-21.492 7.946-5.79 5.487-8.989 12.885-9.01 20.858v32.441c0 40.281 25.802 74.634 61.703 87.312v19.096h-28.869c-13.469 0-26.015 4.037-36.499 10.967-10.592-16.161-16.152-34.823-16.152-54.44v-92.01zm112.336 99.607h-.242c-38.752 0-70.279-31.641-70.279-70.532v-32.412c.006-2.519 1.347-4.164 2.145-4.921 1.336-1.267 3.053-1.951 4.868-1.951.123 0 .246.003.369.009 23.458 1.194 45.411-8.895 59.826-27.196 1.083-1.375 2.464-1.58 3.191-1.58s2.108.205 3.191 1.58c14.416 18.301 36.396 28.399 59.824 27.196 1.966-.086 3.813.591 5.239 1.942.798.757 2.139 2.402 2.145 4.892v32.441c.002 38.892-31.525 70.532-70.277 70.532zm-.241 22h.242c2.891 0 5.752-.135 8.576-.397v14.273h-17.394v-14.272c2.824.262 5.685.396 8.576.396zm23.293 35.876c-4.149 8.718-13.063 14.646-23.173 14.646-10.121 0-19.03-5.926-23.175-14.646zm80.873 56.4h-27.768v-20.738c0-6.075-4.925-11-11-11s-11 4.925-11 11v20.738h-108.651c.063-.478.097-.965.097-1.46v-19.278c0-6.075-4.925-11-11-11s-11 4.925-11 11v19.278c0 .495.033.982.097 1.46h-27.865v-11.747c0-24.621 19.954-44.652 44.48-44.652h13.201c5.012 21.214 24.112 36.646 46.364 36.646 22.228 0 41.35-15.44 46.364-36.646h13.202c24.526 0 44.48 20.031 44.48 44.652v11.747z"/><path d="m239.502 301.422v-11.7c0-6.075-4.925-11-11-11s-11 4.925-11 11v11.7c0 6.075 4.925 11 11 11s11-4.925 11-11z"/><path d="m281.805 278.722c-6.075 0-11 4.925-11 11v11.7c0 6.075 4.925 11 11 11s11-4.925 11-11v-11.7c0-6.076-4.925-11-11-11z"/><path d="m264.029 331.033c-2.373 2.38-5.524 3.69-8.875 3.69s-6.503-1.311-8.875-3.69c-4.29-4.303-11.254-4.314-15.556-.025-4.303 4.289-4.314 11.254-.025 15.557 6.53 6.552 15.216 10.159 24.457 10.159s17.926-3.607 24.457-10.159c4.289-4.303 4.278-11.268-.025-15.557-4.303-4.287-11.268-4.279-15.558.025z"/></g></g><g/><g/><g/><g/><g/><g/><g/><g/><g/><g/><g/><g/><g/><g/><g/></svg>