<svg id="Layer_1" enable-background="new 0 0 512 512" viewBox="0 0 512 512" xmlns="http://www.w3.org/2000/svg" fill="#052438"><g><path d="m467.086 168.901c6.286-7.385 10.092-16.942 10.092-27.377 0-23.325-18.977-42.302-42.302-42.302-2.516 0-4.977.233-7.374.657-7.343-8.63-16.419-15.457-26.529-20.108 6.279-7.383 10.08-16.935 10.08-27.363 0-23.325-18.977-42.302-42.302-42.302s-42.302 18.977-42.302 42.302c0 10.424 3.797 19.973 10.071 27.354-10.109 4.65-19.178 11.481-26.522 20.117-2.396-.423-4.857-.656-7.372-.656-23.326 0-42.302 18.977-42.302 42.302 0 10.444 3.813 20.01 10.109 27.397-16.298 7.517-29.862 20.615-37.71 37.409l19.931 9.314c9.033-19.329 28.649-31.818 49.973-31.818 29.708 0 54.001 23.621 55.086 53.068h-91.35v22h234.637c6.075 0 11-4.925 11-11v-8.943c0-31.033-18.432-57.825-44.914-70.051zm-11.908-27.377c0 11.194-9.107 20.302-20.302 20.302s-20.302-9.107-20.302-20.302 9.107-20.302 20.302-20.302c11.194 0 20.302 9.108 20.302 20.302zm-106.729-89.116c0-11.194 9.107-20.302 20.302-20.302s20.302 9.107 20.302 20.302-9.107 20.302-20.302 20.302-20.302-9.107-20.302-20.302zm-66.125 89.116c0-11.194 9.107-20.302 20.302-20.302 11.194 0 20.302 9.107 20.302 20.302s-9.107 20.302-20.302 20.302-20.302-9.108-20.302-20.302zm52.512 27.377c6.286-7.385 10.092-16.942 10.092-27.377 0-12.543-5.493-23.823-14.194-31.576 10.152-9.677 23.694-15.238 38.016-15.238 14.299 0 27.858 5.565 38.015 15.239-8.7 7.753-14.192 19.033-14.192 31.575 0 10.435 3.806 19.992 10.092 27.377-14.118 6.518-25.948 17.166-33.914 30.403-7.967-13.237-19.797-23.885-33.915-30.403zm44.953 67.993c1.085-29.447 25.379-53.068 55.087-53.068s54.001 23.621 55.086 53.068z" fill="#0496FF"/><path d="m284.723 199.018c-12.427-12.426-32.647-12.427-45.074 0l-57.764 57.765-30.527.375c-18.926.302-36.721 7.84-50.105 21.224l-2.12 2.12c-18.12 18.12-25.355 44.779-18.883 69.573l11.595 44.42-88.623 88.621c-3.146 3.146-4.087 7.877-2.384 11.988s5.713 6.791 10.163 6.791h119.081c2.917 0 5.715-1.159 7.778-3.222l31.845-31.846 61.225-22.825c9.809-3.657 18.536-9.265 25.938-16.667 24.671-24.672 28.262-63.468 8.537-92.248l-29.148-42.53 48.466-48.466c12.426-12.426 12.426-32.646 0-45.073zm-15.557 29.517-54.927 54.926c-3.745 3.745-4.29 9.628-1.295 13.997l34.313 50.066c13.739 20.046 11.239 47.069-5.946 64.254-5.156 5.156-11.235 9.063-18.067 11.609l-63.467 23.661c-1.478.551-2.82 1.414-3.936 2.529l-30.316 30.316h-87.969l74.301-74.3c2.761-2.761 3.851-6.779 2.865-10.557l-13.187-50.52c-4.508-17.27.532-35.839 13.152-48.459l2.12-2.12c9.323-9.323 21.718-14.574 34.861-14.784l7.941-.097-23.615 23.614c-4.295 4.296-4.295 11.261 0 15.557 4.296 4.296 11.261 4.296 15.557 0l103.654-103.654c9.641-8.892 22.85 4.332 13.961 13.962z"/></g><g/><g/><g/><g/><g/><g/><g/><g/><g/><g/><g/><g/><g/><g/><g/></svg>