<svg id="Layer_1" enable-background="new 0 0 512.003 512.003" viewBox="0 0 512.003 512.003" xmlns="http://www.w3.org/2000/svg" fill="#E6ECF2"><g><g><path d="m459.596 110.687h-189.574c-6.075 0-11 4.925-11 11s4.925 11 11 11h189.574c16.449 0 29.831 13.445 29.831 29.973v187.418c0 16.519-13.376 29.958-29.816 29.958h-20.812c-4.939 0-9.274 3.293-10.598 8.053l-5.592 20.106-45.694-26.66c-1.682-.981-3.595-1.499-5.543-1.499h-22.462v-147.85c0-29.217-23.704-52.986-52.841-52.986h-2.918c-6.075 0-11 4.925-11 11s4.925 11 11 11h2.918c17.006 0 30.841 13.9 30.841 30.986v192.134c0 17.086-13.835 30.986-30.841 30.986h-152.2c-1.948 0-3.861.518-5.543 1.499l-47.15 27.509-5.828-20.955c-1.323-4.76-5.658-8.053-10.598-8.053h-21.334c-17.006 0-30.841-13.9-30.841-30.986v-192.119c0-17.094 13.842-31.001 30.855-31.001h3.864c6.075 0 11-4.925 11-11s-4.925-11-11-11h-3.864c-29.145 0-52.855 23.776-52.855 53.001v192.119c0 29.217 23.704 52.986 52.841 52.986h12.975l7.411 26.644c.914 3.286 3.3 5.962 6.46 7.245 1.331.54 2.736.808 4.138.808 1.923 0 3.839-.505 5.543-1.499l56.9-33.197h149.227c29.137 0 52.841-23.77 52.841-52.986v-22.284h19.487l55.444 32.349c1.704.994 3.619 1.499 5.543 1.499 1.401 0 2.807-.268 4.138-.808 3.16-1.283 5.546-3.959 6.46-7.245l7.175-25.795h12.453c28.571 0 51.816-23.309 51.816-51.958v-187.419c0-28.658-23.251-51.973-51.831-51.973z"/><g fill="#0496FF"><path d="m230.152 36.551c1.35.545 2.743.803 4.114.803 4.353 0 8.475-2.601 10.204-6.885l6.197-15.348c2.274-5.633-.448-12.043-6.082-14.318-5.633-2.273-12.043.448-14.318 6.082l-6.197 15.348c-2.275 5.632.448 12.042 6.082 14.318z"/><path d="m156.356 31.358c1.757 4.231 5.85 6.783 10.163 6.783 1.405 0 2.836-.271 4.215-.845 5.61-2.33 8.27-8.768 5.938-14.378l-6.314-15.201c-2.33-5.61-8.766-8.271-14.378-5.938-5.61 2.33-8.27 8.768-5.938 14.378z"/><path d="m307.546 63.388c-2.406-5.578-8.875-8.15-14.457-5.744l-15.078 6.503c-5.578 2.406-8.15 8.878-5.744 14.457 1.794 4.159 5.848 6.646 10.105 6.646 1.454 0 2.932-.29 4.352-.902l15.078-6.503c5.578-2.406 8.151-8.877 5.744-14.457z"/><path d="m262.995 99.479c-23.74-23.411-55.011-36.238-88.235-36.238-.602 0-1.206.005-1.808.013-32.97.461-64.026 13.75-87.449 37.418-23.408 23.653-36.454 54.908-36.735 88.008-.356 42.095 20.056 81.493 54.605 105.39 8.483 5.868 13.549 15.622 13.549 26.093v13.38c0 32.009 25.938 58.05 57.821 58.05s57.822-26.041 57.822-58.05v-13.377c0-10.432 5.191-20.274 13.887-26.33 33.982-23.669 54.27-62.567 54.27-104.054 0-34.242-13.398-66.312-37.727-90.303zm-52.43 234.063c0 19.878-16.069 36.05-35.822 36.05-19.752 0-35.821-16.172-35.821-36.05v-13.38c0-2.559-.18-5.093-.532-7.586h72.718c-.358 2.497-.542 5.032-.542 7.589v13.377zm23.313-57.76c-5.791 4.032-10.655 9.076-14.418 14.794h-33.718v-66.913c0-7.703 6.213-13.97 13.849-13.97 6.075 0 11-4.925 11-11s-4.925-11-11-11c-9.638 0-18.4 3.837-24.849 10.067-6.449-6.231-15.211-10.067-24.849-10.067-6.075 0-11 4.925-11 11s4.925 11 11 11c7.636 0 13.849 6.267 13.849 13.97v66.913h-33.626c-3.715-5.671-8.516-10.649-14.229-14.601-28.549-19.746-45.416-52.311-45.12-87.108.478-56.351 46.456-102.832 102.491-103.615.499-.007.994-.011 1.491-.011 27.406 0 53.209 10.586 72.798 29.902 20.104 19.824 31.175 46.331 31.175 74.638 0 34.293-16.765 66.443-44.844 86.001z"/></g></g></g><g/><g/><g/><g/><g/><g/><g/><g/><g/><g/><g/><g/><g/><g/><g/></svg>