<svg id="Capa_1" enable-background="new 0 0 512 512" viewBox="0 0 512 512" xmlns="http://www.w3.org/2000/svg" fill="#E6ECF2"><g><g><path d="m461 54.957h-410c-28.122 0-51 22.879-51 51v300.086c0 28.121 22.878 51 51 51h410c28.122 0 51-22.879 51-51v-300.086c0-28.121-22.878-51-51-51zm29 351.086c0 15.99-13.009 29-29 29h-410c-15.991 0-29-13.01-29-29v-300.086c0-15.99 13.009-29 29-29h410c15.991 0 29 13.01 29 29z"/><path d="m455.187 157.706c-24.227 0-43.936-19.709-43.936-43.936 0-6.075-4.925-11-11-11h-288.502c-6.075 0-11 4.925-11 11 0 24.227-19.709 43.936-43.936 43.936-6.075 0-11 4.925-11 11v174.588c0 6.075 4.925 11 11 11 24.227 0 43.936 19.709 43.936 43.936 0 6.075 4.925 11 11 11h288.501c6.075 0 11-4.925 11-11 0-24.227 19.709-43.936 43.936-43.936 2.917 0 5.715-1.159 7.778-3.222s3.222-4.861 3.222-7.778v-174.588c.001-6.075-4.924-11-10.999-11zm-11 175.506c-27.56 4.648-49.37 26.458-54.019 54.018h-268.336c-4.649-27.56-26.459-49.369-54.019-54.018v-154.424c27.56-4.648 49.37-26.458 54.019-54.018h268.336c4.649 27.56 26.459 49.369 54.019 54.018z"/></g><g fill="#0496FF"><path d="m260.405 256.284c-28.624 0-51.912 23.287-51.912 51.911s23.288 51.911 51.912 51.911 51.911-23.287 51.911-51.911-23.287-51.911-51.911-51.911zm0 81.822c-16.493 0-29.912-13.418-29.912-29.911s13.418-29.911 29.912-29.911 29.911 13.418 29.911 29.911-13.418 29.911-29.911 29.911z"/><path d="m196.899 184.821h118.201c6.075 0 11-4.925 11-11s-4.925-11-11-11h-118.201c-6.075 0-11 4.925-11 11s4.925 11 11 11z"/><path d="m127.034 231.921h257.931c6.075 0 11-4.925 11-11s-4.925-11-11-11h-257.931c-6.075 0-11 4.925-11 11s4.925 11 11 11z"/><path d="m167.799 285.968h-40.765c-6.075 0-11 4.925-11 11s4.925 11 11 11h40.765c6.075 0 11-4.925 11-11s-4.925-11-11-11z"/><path d="m393.775 285.968h-40.765c-6.075 0-11 4.925-11 11s4.925 11 11 11h40.765c6.075 0 11-4.925 11-11s-4.925-11-11-11z"/></g></g><g/><g/><g/><g/><g/><g/><g/><g/><g/><g/><g/><g/><g/><g/><g/></svg>