<svg id="Capa_1" enable-background="new 0 0 512 512" viewBox="0 0 512 512" xmlns="http://www.w3.org/2000/svg" fill="#E6ECF2"><g><g><path d="m501 187.213h-12.007c-28.122 0-51 22.879-51 51v35.047c-8.884-6.879-19.722-10.62-31.141-10.62-13.623 0-26.431 5.305-36.062 14.938l-38.366 38.366c-11.197 3.194-21.407 9.195-29.689 17.478-12.979 12.978-20.126 30.233-20.126 48.588 0 12.206 3.178 23.918 9.113 34.217-1.381 1.838-2.209 4.116-2.209 6.592v78.181c0 6.075 4.925 11 11 11h97.69c6.075 0 11-4.925 11-11v-78.181c0-1.598-.348-3.112-.961-4.482l77.688-77.687c16.812-16.812 26.07-39.165 26.07-62.94v-79.496c0-6.076-4.925-11.001-11-11.001zm-113.797 302.787h-75.69v-56.181h75.69zm102.797-212.291c0 17.899-6.971 34.727-19.627 47.383l-86.727 86.726h-68.288c-6.958-8.364-10.75-18.794-10.75-29.809 0-12.478 4.859-24.208 13.683-33.032 6.155-6.155 13.87-10.455 22.311-12.434 1.994-.468 3.818-1.483 5.267-2.931l40.479-40.479c5.478-5.477 12.76-8.494 20.506-8.494s15.028 3.017 20.506 8.494l.712.712-47.113 47.113c-4.296 4.296-4.296 11.261 0 15.557 4.297 4.296 11.26 4.296 15.557 0l52.641-52.641c6.989-6.989 10.838-16.282 10.838-26.166v-39.496c0-15.99 13.01-29 29-29h1.005z"/><path d="m209.266 333.422c-8.282-8.283-18.492-14.284-29.689-17.478l-38.366-38.366c-9.632-9.633-22.439-14.938-36.062-14.938-11.418 0-22.257 3.74-31.141 10.62v-35.047c0-28.121-22.878-51-51-51h-12.008c-6.075 0-11 4.925-11 11v79.496c0 23.775 9.259 46.128 26.07 62.94l77.688 77.687c-.613 1.37-.961 2.884-.961 4.482v78.182c0 6.075 4.925 11 11 11h97.69c6.075 0 11-4.925 11-11v-78.181c0-2.476-.828-4.754-2.209-6.592 5.935-10.299 9.113-22.011 9.113-34.217.001-18.355-7.147-35.61-20.125-48.588zm-8.779 156.578h-75.69v-56.181h75.69zm-3.846-78.181h-68.288l-86.727-86.726c-12.655-12.656-19.626-29.485-19.626-47.384v-68.496h1.007c15.99 0 29 13.01 29 29v39.496c0 9.884 3.849 19.177 10.838 26.166l52.641 52.641c4.297 4.296 11.26 4.296 15.557 0 4.296-4.296 4.296-11.261 0-15.557l-47.113-47.112.712-.712c5.478-5.478 12.76-8.494 20.506-8.494s15.028 3.017 20.506 8.494l40.479 40.478c1.448 1.448 3.272 2.463 5.267 2.931 8.44 1.979 16.155 6.279 22.311 12.435 8.823 8.823 13.683 20.553 13.683 33.031-.002 11.015-3.795 21.445-10.753 29.809z"/></g><path d="m341.619 71.675c6.917-7.616 11.137-17.723 11.137-28.797 0-23.643-19.235-42.878-42.878-42.878s-42.878 19.235-42.878 42.878c0 7.332 1.859 14.235 5.117 20.277-4.979-2.028-10.418-3.155-16.117-3.155s-11.138 1.127-16.117 3.155c3.258-6.042 5.117-12.945 5.117-20.277 0-23.643-19.235-42.878-42.878-42.878s-42.878 19.235-42.878 42.878c0 11.074 4.22 21.181 11.137 28.797-21.418 11.402-36.037 33.953-36.037 59.863v11.469c0 6.075 4.925 11 11 11h54.252c-7.179 10.753-11.374 23.66-11.374 37.531v11.469c0 6.075 4.925 11 11 11h113.557c6.075 0 11-4.925 11-11v-11.469c0-13.871-4.195-26.778-11.374-37.531h54.252c6.075 0 11-4.925 11-11v-11.469c-.001-25.91-14.62-48.46-36.038-59.863zm-31.741-49.675c11.512 0 20.878 9.366 20.878 20.878s-9.366 20.877-20.878 20.877-20.878-9.365-20.878-20.877 9.366-20.878 20.878-20.878zm-53.878 60c11.512 0 20.878 9.366 20.878 20.878s-9.366 20.877-20.878 20.877-20.878-9.366-20.878-20.877c0-11.512 9.366-20.878 20.878-20.878zm-53.878-60c11.512 0 20.878 9.366 20.878 20.878s-9.366 20.877-20.878 20.877-20.878-9.366-20.878-20.877c0-11.512 9.366-20.878 20.878-20.878zm-45.778 109.538c0-25.243 20.536-45.779 45.778-45.779 4.779 0 9.385.742 13.718 2.108-1.753 4.675-2.718 9.731-2.718 15.01 0 11.074 4.22 21.181 11.137 28.797-.211.112-.426.217-.635.332h-67.28zm145.434 60.469h-91.557v-.469c0-25.243 20.536-45.779 45.778-45.779s45.778 20.536 45.778 45.779v.469zm53.878-60h-67.28c-.209-.114-.425-.22-.635-.332 6.917-7.616 11.137-17.723 11.137-28.797 0-5.279-.965-10.336-2.718-15.01 4.333-1.366 8.939-2.108 13.718-2.108 25.242 0 45.778 20.536 45.778 45.779z" fill="#0496FF"/></g><g/><g/><g/><g/><g/><g/><g/><g/><g/><g/><g/><g/><g/><g/><g/></svg>