<svg id="Capa_1" enable-background="new 0 0 512 512" viewBox="0 0 512 512" xmlns="http://www.w3.org/2000/svg" fill="#052438"><g><path d="m445.971 240.377c-1.602-3.516-1.602-7.549 0-11.064l30.576-67.125c5.007-10.991 4.094-23.617-2.44-33.774s-17.646-16.221-29.724-16.221h-86.636v-46.683c0-17.093-13.907-31-31-31h-165.036c-6.075 0-11 4.925-11 11s4.925 11 11 11h165.035c4.962 0 9 4.038 9 9v183.305c0 4.962-4.038 9-9 9h-165.035c-6.075 0-11 4.925-11 11s4.925 11 11 11h80.332v59.261c0 .007.001.015.001.021.005 4.267 1.456 8.289 4.107 11.55.04.05.076.104.117.153.251.303.526.59.799.878.15.159.291.325.446.479.045.044.083.093.128.137.219.212.448.406.679.596 3.246 2.857 7.49 4.606 12.144 4.606h183.918c12.078 0 23.189-6.064 29.724-16.221s7.447-22.783 2.44-33.774zm-139.045 39.438-42.883 41.005v-41.005zm148.678 49.558c-2.504 3.892-6.595 6.124-11.223 6.124h-163.854l64.466-61.643c7.723-5.644 12.753-14.763 12.753-25.039v-114.623h86.636c4.628 0 8.718 2.232 11.222 6.125 2.504 3.892 2.84 8.54.922 12.752l-30.576 67.125c-4.241 9.311-4.241 19.991 0 29.302l30.576 67.125c1.918 4.211 1.582 8.859-.922 12.752z" fill="#0496FF"/><path d="m167.779 429.262h-1.069v-385.164c.001-24.316-19.782-44.098-44.098-44.098h-2.823c-24.316 0-44.099 19.782-44.099 44.098v385.164h-1.069c-23.361 0-42.367 19.005-42.367 42.367v19.371c0 11.58 9.42 21 21 21h135.892c11.58 0 21-9.42 21-21v-19.371c0-23.361-19.006-42.367-42.367-42.367zm-70.089-385.164c0-12.185 9.914-22.098 22.099-22.098h2.823c12.185 0 22.099 9.913 22.099 22.098v385.164h-47.021zm90.456 445.902h-133.892v-18.371c0-11.23 9.137-20.367 20.367-20.367h93.158c11.23 0 20.367 9.136 20.367 20.367z"/></g><g/><g/><g/><g/><g/><g/><g/><g/><g/><g/><g/><g/><g/><g/><g/></svg>