<svg id="Capa_1" enable-background="new 0 0 512 512" viewBox="0 0 512 512" xmlns="http://www.w3.org/2000/svg" fill="#052438"><g><g><path d="m109.151 341.246h78.188c17.093 0 31-13.906 31-31v-13.449c0-17.094-13.907-31-31-31h-78.188c-17.093 0-31 13.906-31 31v13.449c0 17.093 13.907 31 31 31zm-9-44.45c0-4.963 4.038-9 9-9h78.188c4.962 0 9 4.037 9 9v13.449c0 4.963-4.038 9-9 9h-78.188c-4.962 0-9-4.037-9-9z"/><path d="m486 6.959h-460c-14.336 0-26 11.664-26 26v29.791c0 11.354 7.318 21.024 17.482 24.56v279.79c0 17.094 13.907 31 31 31h196.518v27.688c-16.942 4.803-29.394 20.399-29.394 38.859 0 22.273 18.121 40.394 40.394 40.394s40.394-18.121 40.394-40.394c0-18.46-12.452-34.056-29.394-38.859v-27.688h196.517c17.093 0 31-13.906 31-31v-279.79c10.165-3.535 17.483-13.206 17.483-24.56v-29.791c0-14.336-11.664-26-26-26zm-211.606 457.688c0 10.142-8.251 18.394-18.394 18.394s-18.394-8.251-18.394-18.394 8.251-18.394 18.394-18.394c10.142 0 18.394 8.252 18.394 18.394zm-252.394-431.688c0-2.206 1.794-4 4-4h460c2.206 0 4 1.794 4 4v29.791c0 2.206-1.794 4-4 4h-460c-2.206 0-4-1.794-4-4zm450.517 334.141c0 4.963-4.038 9-9 9h-415.035c-4.962 0-9-4.037-9-9v-278.35h433.035z"/><path d="m89.151 141.435h118.188c6.075 0 11-4.925 11-11s-4.925-11-11-11h-118.188c-6.075 0-11 4.925-11 11s4.925 11 11 11z"/><path d="m89.151 190.465h118.188c6.075 0 11-4.925 11-11s-4.925-11-11-11h-118.188c-6.075 0-11 4.925-11 11s4.925 11 11 11z"/><path d="m89.151 239.496h118.188c6.075 0 11-4.925 11-11s-4.925-11-11-11h-118.188c-6.075 0-11 4.925-11 11s4.925 11 11 11z"/></g><g fill="#0496FF"><path d="m402 234.206c-19.482 0-35.333 15.85-35.333 35.333 0 19.482 15.85 35.333 35.333 35.333s35.333-15.85 35.333-35.333-15.85-35.333-35.333-35.333zm0 48.665c-7.352 0-13.333-5.981-13.333-13.333s5.981-13.333 13.333-13.333 13.333 5.981 13.333 13.333-5.981 13.333-13.333 13.333z"/><path d="m371.048 179.127c2.148 2.148 4.963 3.222 7.778 3.222s5.63-1.074 7.778-3.222l6.705-6.705 6.705 6.705c2.148 2.148 4.963 3.222 7.778 3.222s5.63-1.074 7.778-3.222c4.295-4.296 4.295-11.26 0-15.556l-6.706-6.706 6.706-6.706c4.295-4.296 4.295-11.26 0-15.556-4.296-4.296-11.261-4.296-15.557 0l-6.705 6.705-6.705-6.705c-4.296-4.296-11.261-4.296-15.557 0-4.295 4.296-4.295 11.26 0 15.556l6.706 6.706-6.706 6.706c-4.293 4.296-4.293 11.261.002 15.556z"/><path d="m322.139 269.018c-4.296-4.296-11.261-4.296-15.557 0l-6.705 6.705-6.705-6.705c-4.296-4.296-11.261-4.296-15.557 0-4.295 4.296-4.295 11.26 0 15.556l6.706 6.706-6.706 6.706c-4.295 4.296-4.295 11.26 0 15.556 2.148 2.148 4.963 3.222 7.778 3.222s5.63-1.074 7.778-3.222l6.705-6.705 6.705 6.705c2.148 2.148 4.963 3.222 7.778 3.222s5.63-1.074 7.778-3.222c4.295-4.296 4.295-11.26 0-15.556l-6.706-6.706 6.706-6.706c4.298-4.295 4.298-11.26.002-15.556z"/><path d="m346.776 150.407-20.193-17.377c-4.605-3.962-11.549-3.442-15.513 1.162-3.962 4.605-3.442 11.55 1.163 15.513l.478.412c-29.709 7.529-51.758 34.488-51.758 66.504 0 6.075 4.925 11 11 11s11-4.925 11-11c0-19.835 12.461-36.805 29.961-43.52-2.847 4.531-2.045 10.578 2.134 14.174 2.077 1.787 4.629 2.663 7.17 2.663 3.092 0 6.167-1.297 8.342-3.825l17.377-20.193c1.903-2.211 2.85-5.088 2.632-7.997s-1.582-5.613-3.793-7.516z"/></g></g><g/><g/><g/><g/><g/><g/><g/><g/><g/><g/><g/><g/><g/><g/><g/></svg>