<svg id="Capa_1" enable-background="new 0 0 512 512" viewBox="0 0 512 512" xmlns="http://www.w3.org/2000/svg" fill="#E6ECF2"><g><g><path d="m193.459 191.596h-119.294c-14.336 0-26 11.663-26 26v14.473c0 14.337 11.664 26 26 26h119.295c14.337 0 26-11.663 26-26v-14.473c-.001-14.336-11.664-26-26.001-26zm4 40.473c0 2.206-1.794 4-4 4h-119.294c-2.206 0-4-1.794-4-4v-14.473c0-2.206 1.794-4 4-4h119.295c2.206 0 4 1.794 4 4v14.473z"/><path d="m193.459 286.333h-119.294c-14.336 0-26 11.663-26 26v14.472c0 14.337 11.664 26 26 26h119.295c14.337 0 26-11.663 26-26v-14.472c-.001-14.337-11.664-26-26.001-26zm4 40.471c0 2.206-1.794 4-4 4h-119.294c-2.206 0-4-1.794-4-4v-14.472c0-2.206 1.794-4 4-4h119.295c2.206 0 4 1.794 4 4v14.472z"/><path d="m193.459 381.068h-119.294c-14.336 0-26 11.663-26 26v14.472c0 14.337 11.664 26 26 26h119.295c14.337 0 26-11.663 26-26v-14.472c-.001-14.337-11.664-26-26.001-26zm4 40.472c0 2.206-1.794 4-4 4h-119.294c-2.206 0-4-1.794-4-4v-14.472c0-2.206 1.794-4 4-4h119.295c2.206 0 4 1.794 4 4v14.472z"/><path d="m461.163 39.277h-25.013c-.647-20.816-17.77-37.554-38.74-37.554s-38.094 16.737-38.741 37.554h-205.34c-.647-20.816-17.77-37.554-38.74-37.554s-38.092 16.738-38.739 37.554h-25.013c-28.031 0-50.837 22.806-50.837 50.837v369.324c0 28.032 22.806 50.838 50.837 50.838h410.325c28.031 0 50.837-22.806 50.837-50.838v-369.324c.001-28.031-22.805-50.837-50.836-50.837zm-80.524 1.218c0-9.248 7.523-16.771 16.771-16.771 9.247 0 16.771 7.523 16.771 16.771v25.565c0 9.247-7.523 16.771-16.771 16.771s-16.771-7.523-16.771-16.771zm-282.82 0c0-9.248 7.523-16.771 16.771-16.771s16.771 7.523 16.771 16.771v25.565c0 9.247-7.523 16.771-16.771 16.771s-16.771-7.524-16.771-16.771zm-75.819 49.619c0-15.9 12.937-28.837 28.837-28.837h24.981v4.783c0 21.378 17.393 38.771 38.771 38.771s38.771-17.393 38.771-38.771v-4.783h205.279v4.783c0 21.378 17.393 38.771 38.771 38.771s38.771-17.393 38.771-38.771v-4.783h24.981c15.9 0 28.837 12.937 28.837 28.837v44.768.951h-467.999v-.951zm439.163 398.162h-410.326c-15.9 0-28.837-12.936-28.837-28.838v-301.605h468v301.605c0 15.902-12.937 28.838-28.837 28.838z"/></g><g fill="#0496FF"><path d="m316.126 315.097-.495 16.985c-.188 6.432 2.808 12.529 8.013 16.312s11.929 4.746 17.991 2.582l16-5.72 16 5.72c2.134.763 4.349 1.137 6.552 1.137 4.055 0 8.065-1.269 11.438-3.719 5.205-3.782 8.2-9.88 8.013-16.311l-.495-16.986 10.383-13.448c3.933-5.093 5.094-11.787 3.105-17.906-1.988-6.12-6.862-10.854-13.037-12.663l-16.306-4.776-9.583-14.033c-3.629-5.312-9.637-8.485-16.071-8.485s-12.441 3.173-16.07 8.485l-9.583 14.033-16.306 4.776c-6.175 1.81-11.049 6.543-13.037 12.663-1.988 6.119-.827 12.813 3.104 17.906zm22.916-27.938c4.302-1.263 8.064-3.996 10.595-7.699l7.998-11.711 7.996 11.708c2.527 3.704 6.291 6.439 10.601 7.704l13.608 3.986-8.667 11.227c-2.742 3.553-4.179 7.979-4.047 12.459l.413 14.176-13.354-4.774c-2.112-.755-4.331-1.132-6.55-1.132-2.22 0-4.439.377-6.552 1.132l-13.354 4.774.413-14.172c.132-4.484-1.305-8.91-4.048-12.465l-8.666-11.225z"/><path d="m459.717 297.952c0-56.288-45.794-102.082-102.083-102.082-56.288 0-102.082 45.794-102.082 102.082 0 32.394 15.169 61.308 38.773 80.022v61.426c0 7.351 3.574 14.286 9.56 18.553 5.987 4.266 13.707 5.38 20.658 2.981l32.837-11.339c.164-.057.345-.057.509 0l32.838 11.339c2.415.834 4.924 1.243 7.421 1.243 4.686 0 9.33-1.441 13.236-4.225 5.985-4.267 9.56-11.202 9.56-18.553v-61.426c23.605-18.713 38.773-47.628 38.773-80.021zm-182.165 0c0-44.157 35.925-80.082 80.082-80.082 44.158 0 80.083 35.925 80.083 80.082 0 44.158-35.925 80.083-80.083 80.083-44.157 0-80.082-35.925-80.082-80.083zm121.392 141.448c0 .131 0 .402-.328.637-.327.234-.586.145-.708.103l-32.837-11.339c-4.794-1.656-10.076-1.656-14.872 0l-32.836 11.339c-.125.042-.383.131-.709-.103-.328-.234-.328-.506-.328-.637v-48.106c12.636 5.614 26.614 8.741 41.309 8.741 14.696 0 28.673-3.127 41.31-8.741v48.106z"/></g></g><g/><g/><g/><g/><g/><g/><g/><g/><g/><g/><g/><g/><g/><g/><g/></svg>