<svg id="Layer_1" enable-background="new 0 0 512 512" viewBox="0 0 512 512" xmlns="http://www.w3.org/2000/svg" fill="#E6ECF2"><g><g fill="#0496FF"><path d="m312.142 277.556 12.276 5.432c6.323 2.797 11.347 7.812 14.148 14.119l5.441 12.254c1.765 3.975 5.705 6.536 10.053 6.536s8.289-2.562 10.053-6.536l5.441-12.253c2.801-6.309 7.826-11.323 14.149-14.12l12.275-5.432c3.981-1.762 6.549-5.706 6.549-10.06s-2.568-8.298-6.549-10.06l-12.276-5.432c-6.323-2.797-11.347-7.812-14.148-14.121l-5.441-12.253c-1.765-3.974-5.705-6.535-10.053-6.535s-8.289 2.562-10.053 6.535l-5.442 12.254c-2.801 6.309-7.825 11.323-14.148 14.12l-12.275 5.432c-3.981 1.762-6.549 5.706-6.549 10.06s2.568 8.298 6.549 10.06zm41.919-22.541c3.384 4.875 7.612 9.099 12.491 12.481-4.879 3.382-9.107 7.606-12.491 12.48-3.384-4.874-7.612-9.099-12.491-12.48 4.879-3.383 9.107-7.606 12.491-12.481z"/><path d="m448.643 267.496c0-52.07-42.429-94.433-94.582-94.433s-94.582 42.362-94.582 94.433c0 27.419 11.766 52.146 30.521 69.414v89.875c0 3.897 2.062 7.503 5.42 9.479 3.358 1.978 7.512 2.029 10.919.138l47.722-26.496 47.722 26.496c1.662.923 3.501 1.383 5.34 1.383 1.93 0 3.859-.508 5.58-1.521 3.358-1.977 5.42-5.582 5.42-9.479v-89.875c18.755-17.268 30.52-41.995 30.52-69.414zm-167.164 0c0-39.939 32.56-72.433 72.582-72.433s72.582 32.493 72.582 72.433c0 39.938-32.56 72.432-72.582 72.432s-72.582-32.493-72.582-72.432zm114.644 140.599-36.722-20.389c-3.321-1.844-7.358-1.844-10.68 0l-36.721 20.389v-56.029c12.676 6.31 26.961 9.862 42.062 9.862s29.385-3.552 42.062-9.862v56.029z"/></g><g><path d="m463.984 50.393h-26.563v-6.17c0-6.075-4.925-11-11-11s-11 4.925-11 11v6.17h-63.21v-6.17c0-6.075-4.925-11-11-11s-11 4.925-11 11v6.17h-63.211v-6.17c0-6.075-4.925-11-11-11s-11 4.925-11 11v6.17h-63.211v-6.17c0-6.075-4.925-11-11-11s-11 4.925-11 11v6.17h-63.21v-6.17c0-6.075-4.925-11-11-11s-11 4.925-11 11v6.17h-26.563c-26.476 0-48.016 21.54-48.016 48.015v332.354c0 26.476 21.54 48.016 48.016 48.016h415.969c26.476 0 48.016-21.54 48.016-48.016v-332.354c-.001-26.475-21.541-48.015-48.017-48.015zm-415.968 22h26.563v16.22c0 6.075 4.925 11 11 11s11-4.925 11-11v-16.22h63.21v16.22c0 6.075 4.925 11 11 11s11-4.925 11-11v-16.22h63.211v16.22c0 6.075 4.925 11 11 11s11-4.925 11-11v-16.22h63.211v16.22c0 6.075 4.925 11 11 11s11-4.925 11-11v-16.22h63.21v16.22c0 6.075 4.925 11 11 11s11-4.925 11-11v-16.22h26.563c14.346 0 26.016 11.67 26.016 26.015v25.605h-468v-25.605c0-14.345 11.67-26.015 26.016-26.015zm415.968 384.384h-415.968c-14.346 0-26.016-11.671-26.016-26.015v-284.748h468v284.748c0 14.344-11.67 26.015-26.016 26.015z"/><path d="m221.481 218.457h-157.908c-6.075 0-11 4.925-11 11v80.65c0 6.075 4.925 11 11 11h157.909c6.075 0 11-4.925 11-11v-80.65c-.001-6.075-4.925-11-11.001-11zm-11 80.65h-135.908v-58.65h135.909v58.65z"/><path d="m221.481 343.01h-157.908c-6.075 0-11 4.925-11 11s4.925 11 11 11h157.909c6.075 0 11-4.925 11-11s-4.925-11-11.001-11z"/><path d="m221.481 386.728h-157.908c-6.075 0-11 4.925-11 11s4.925 11 11 11h157.909c6.075 0 11-4.925 11-11s-4.925-11-11.001-11z"/></g></g><g/><g/><g/><g/><g/><g/><g/><g/><g/><g/><g/><g/><g/><g/><g/></svg>