<svg id="Capa_1" enable-background="new 0 0 512 512" viewBox="0 0 512 512" xmlns="http://www.w3.org/2000/svg" fill="#E6ECF2"><g><g fill="#0496FF"><path d="m508.778 248.222-32-32c-4.297-4.296-11.26-4.296-15.557 0-4.296 4.296-4.296 11.261 0 15.557l13.222 13.221h-61.574c-6.075 0-11 4.925-11 11s4.925 11 11 11h61.574l-13.222 13.222c-4.296 4.296-4.296 11.261 0 15.557 2.149 2.148 4.964 3.221 7.779 3.221s5.63-1.074 7.778-3.222l32-32c4.296-4.295 4.296-11.26 0-15.556z"/><path d="m110.131 256c0-6.075-4.925-11-11-11h-61.575l13.222-13.222c4.295-4.296 4.295-11.261 0-15.557-4.296-4.296-11.261-4.296-15.557 0l-32 32c-4.295 4.296-4.295 11.261 0 15.557l32 32c2.149 2.149 4.964 3.222 7.779 3.222s5.63-1.074 7.778-3.222c4.295-4.296 4.295-11.261 0-15.557l-13.222-13.221h61.574c6.076 0 11.001-4.924 11.001-11z"/><path d="m231.778 50.779 13.222-13.222v44.516c0 6.075 4.925 11 11 11s11-4.925 11-11v-44.516l13.222 13.222c2.148 2.148 4.963 3.221 7.778 3.221s5.63-1.074 7.778-3.222c4.296-4.296 4.296-11.261 0-15.557l-32-32c-4.297-4.296-11.261-4.296-15.557 0l-32 32c-4.295 4.296-4.295 11.261 0 15.557 4.297 4.297 11.261 4.297 15.557.001z"/><path d="m386.472 281.025c-4.817-4.161-7.581-10.199-7.581-16.565v-26.164c0-67.946-55.277-123.224-123.223-123.224s-123.224 55.278-123.224 123.224v26.164c0 6.367-2.763 12.404-7.581 16.565-14.438 12.469-22.718 30.562-22.718 49.64 0 25.965 15.349 49.519 39.102 60.004l8.885-20.126c-15.787-6.969-25.987-22.622-25.987-39.878 0-12.679 5.503-24.704 15.098-32.99 9.661-8.344 15.201-20.45 15.201-33.215v-26.164c0-55.815 45.409-101.224 101.224-101.224 55.814 0 101.224 45.409 101.224 101.224v26.164c0 12.765 5.541 24.872 15.201 33.215 9.596 8.287 15.099 20.312 15.099 32.991 0 17.256-10.2 32.91-25.986 39.878l8.885 20.126c23.753-10.486 39.102-34.039 39.102-60.004-.003-19.078-8.283-37.171-22.721-49.641z"/><path d="m261.912 276.077c-3.174 3.174-8.337 3.174-11.511 0-4.296-4.296-11.261-4.296-15.557 0-4.295 4.296-4.295 11.261 0 15.557 5.876 5.875 13.594 8.813 21.312 8.813 7.719 0 15.437-2.938 21.312-8.813 4.296-4.296 4.296-11.261 0-15.557s-11.259-4.296-15.556 0z"/></g><g><path d="m361.55 368.601-51.632-5.135c-7.436-.74-13.042-6.932-13.042-14.403v-8.171c21.568-13.691 35.923-37.769 35.923-65.151v-16.737c0-34.762-23.625-64.97-57.451-73.46-2.828-.709-5.825-.267-8.328 1.231-2.504 1.499-4.309 3.93-5.019 6.76-4.089 16.292-18.574 27.67-35.227 27.67h-37.239c-6.075 0-11 4.925-11 11v43.536c0 27.666 14.648 51.965 36.589 65.579v7.744c0 7.472-5.607 13.664-13.042 14.403l-51.633 5.135c-35.917 3.572-63.001 33.484-63.001 69.579v62.819c0 6.075 4.925 11 11 11h315.104c6.075 0 11-4.925 11-11v-62.82c0-36.095-27.085-66.007-63.002-69.579zm-161.015-92.861v-32.536h26.239c22.72 0 42.919-13.141 52.506-33.079 18.953 8.617 31.519 27.54 31.519 48.878v16.737c0 30.4-24.732 55.132-55.132 55.132s-55.132-24.732-55.132-55.132zm55.132 77.132c6.641 0 13.089-.844 19.241-2.43.423 11.475 6.098 21.629 14.814 28.026l-33.722 35.242-33.722-35.241c8.677-6.369 14.343-16.46 14.811-27.873 5.953 1.478 12.173 2.276 18.578 2.276zm146.885 137.128h-293.104v-51.82c0-24.738 18.563-45.239 43.179-47.687l46.301-4.604 49.125 51.337c2.075 2.168 4.946 3.395 7.948 3.395 3.001 0 5.872-1.227 7.947-3.395l49.125-51.337 46.3 4.604c24.616 2.448 43.18 22.949 43.18 47.687v51.82z"/><path d="m445 56h-45.255c-6.075 0-11 4.925-11 11s4.925 11 11 11h18.698l-51.473 51.473c-4.296 4.296-4.296 11.261 0 15.557 2.148 2.148 4.963 3.222 7.778 3.222s5.63-1.074 7.778-3.222l51.474-51.473v18.698c0 6.075 4.925 11 11 11s11-4.925 11-11v-45.255c0-6.075-4.925-11-11-11z"/><path d="m129.473 145.03c2.148 2.148 4.963 3.222 7.778 3.222s5.63-1.074 7.778-3.222c4.295-4.296 4.295-11.261 0-15.557l-51.472-51.473h18.698c6.075 0 11-4.925 11-11s-4.925-11-11-11h-45.255c-6.075 0-11 4.925-11 11v45.255c0 6.075 4.925 11 11 11s11-4.925 11-11v-18.698z"/></g></g><g/><g/><g/><g/><g/><g/><g/><g/><g/><g/><g/><g/><g/><g/><g/></svg>