<svg id="Capa_1" enable-background="new 0 0 512 512" viewBox="0 0 512 512" xmlns="http://www.w3.org/2000/svg" fill="#E6ECF2"><g><g><path d="m501 440h-7.508v-82.99c0-33.83-19.182-63.213-47.121-77.6 16.513-12.008 27.268-31.477 27.268-53.411 0-36.393-29.607-66-66-66s-66 29.607-66 66c0 16.888 6.376 32.315 16.847 44h-27.149l-24.988-43.284c-11.046-19.128-35.281-25.994-54.648-15.758-11.503-19.414-32.669-32.457-56.824-32.457-36.392 0-65.999 29.608-65.999 66 0 10.424 2.429 20.291 6.751 29.065-16.277-.716-32.506 3.301-47.044 11.824-19.96 11.703-34.25 30.452-40.235 52.793l-27.281 101.818h-10.069c-6.075 0-11 4.925-11 11v50c0 6.075 4.925 11 11 11h490c6.075 0 11-4.925 11-11v-50c0-6.075-4.925-11-11-11zm-29.508-82.99v82.99h-51.772c.117-.195.234-.39.35-.588l26.906-45.811c3.076-5.238 1.324-11.979-3.914-15.056-5.241-3.079-11.979-1.324-15.057 3.914l-26.905 45.812c-6.103 10.392-12.559 11.728-17.501 11.729h-63.552c-10.454-.023-18.958-8.546-18.958-19 0-10.477 8.523-19 19-19h46.33c3.93 0 7.562-2.097 9.526-5.5l19.275-33.386c3.037-5.261 1.234-11.989-4.026-15.026-5.261-3.037-11.989-1.234-15.026 4.026l-16.1 27.886h-16.577v-22.99c0-35.847 28.711-65.01 64.001-65.01s64 29.163 64 65.01zm-256.815 24.978c6.655-25.679 1.196-51.713-12.817-71.854 17.746-1.875 33.418-10.811 44.143-23.938l26.08 45.173c5.347 9.261 16.259 20.3 37.885 20.3h11.683c-.106 1.767-.161 3.547-.161 5.34v22.991h-1.402c-22.607 0-41 18.393-41 41 0 6.85 1.692 13.316 4.681 19h-45.393c2.985-5.683 4.675-12.148 4.675-19 .001-18.205-11.925-33.676-28.374-39.012zm192.963-199.989c24.262 0 44 19.738 44 44s-19.738 44-44 44-44-19.739-44-44 19.738-44 44-44zm-146.298 48.763c9.074-5.24 20.715-2.119 25.955 6.954l28.164 48.783c1.965 3.403 5.597 5.5 9.526 5.5h25.403c-11.17 10.054-19.741 23.002-24.551 37.67h-15.871c-12.067 0-16.527-5.308-18.832-9.3l-32.973-57.112c1.766-5.948 2.714-12.243 2.714-18.757 0-4.325-.418-8.554-1.216-12.649.539-.388 1.099-.753 1.681-1.089zm-66.464-30.261c24.262 0 44 19.739 44 44s-19.738 44-44 44c-24.261 0-43.999-19.738-43.999-44s19.738-44 43.999-44zm-125.277 143.376c4.479-16.719 15.174-30.75 30.112-39.509 14.892-8.73 32.128-11.117 48.533-6.722 34.087 9.134 54.271 44.735 44.993 79.359l-.802 2.995h-30.365l-13.119-22.725c-3.036-5.26-9.762-7.065-15.026-4.026-5.261 3.038-7.063 9.765-4.026 15.026l16.295 28.225c1.965 3.403 5.597 5.5 9.526 5.5h46.33c10.477 0 19 8.523 19 19 0 10.476-8.522 19-18.998 19h-63.563c-.01 0-.019 0-.029 0-4.915-.02-11.337-1.371-17.421-11.729l-21.193-36.083c-3.077-5.239-9.817-6.991-15.057-3.914-5.238 3.077-6.99 9.817-3.914 15.056l21.193 36.083c.116.198.233.394.35.588h-58.576zm420.399 146.123h-468v-28h468z"/><path d="m236.169 79.481c6.075 0 11-4.925 11-11s-4.925-11-11-11h-.007c-6.075 0-10.996 4.925-10.996 11s4.928 11 11.003 11z"/><path d="m281.17 79.481c6.075 0 11-4.925 11-11s-4.925-11-11-11h-.008c-6.075 0-10.996 4.925-10.996 11s4.929 11 11.004 11z"/><path d="m326.185 79.481c6.075 0 11-4.925 11-11s-4.925-11-11-11h-.008c-6.075 0-10.996 4.925-10.996 11s4.928 11 11.004 11z"/></g><path d="m368.268 0h-174.19c-21.452 0-38.904 17.453-38.904 38.905v59.152c0 21.452 17.452 38.905 38.904 38.905h51.285v25.324c0 4.334 2.546 8.265 6.501 10.038 1.443.646 2.976.962 4.497.962 2.649 0 5.267-.957 7.321-2.789l37.618-33.535h66.968c21.452 0 38.904-17.453 38.904-38.905v-59.152c0-21.452-17.452-38.905-38.904-38.905zm16.904 98.057c0 9.321-7.583 16.905-16.904 16.905h-71.159c-2.699 0-5.305.993-7.319 2.789l-22.427 19.992v-11.781c0-6.075-4.925-11-11-11h-62.285c-9.321 0-16.904-7.583-16.904-16.905v-59.152c0-9.321 7.583-16.905 16.904-16.905h174.19c9.321 0 16.904 7.583 16.904 16.905z" fill="#0496FF"/></g><g/><g/><g/><g/><g/><g/><g/><g/><g/><g/><g/><g/><g/><g/><g/></svg>