<svg id="Capa_1" enable-background="new 0 0 512 512" viewBox="0 0 512 512" xmlns="http://www.w3.org/2000/svg" fill="#E6ECF2"><g><g><path d="m234 270h132c6.075 0 11-4.925 11-11s-4.925-11-11-11h-132c-6.075 0-11 4.925-11 11s4.925 11 11 11z"/><path d="m234 182h132c6.075 0 11-4.925 11-11s-4.925-11-11-11h-132c-6.075 0-11 4.925-11 11s4.925 11 11 11z"/><path d="m234 358h132c6.075 0 11-4.925 11-11s-4.925-11-11-11h-132c-6.075 0-11 4.925-11 11s4.925 11 11 11z"/><path d="m234 446h132c6.075 0 11-4.925 11-11s-4.925-11-11-11h-132c-6.075 0-11 4.925-11 11s4.925 11 11 11z"/><path d="m465 52.533c0-28.967-23.566-52.533-52.533-52.533h-312.934c-28.967 0-52.533 23.566-52.533 52.533v316.467c0 6.075 4.925 11 11 11h30.533v121c0 6.075 4.925 11 11 11h312.934c6.075 0 11-4.925 11-11v-397.101c23.702-5.071 41.533-26.171 41.533-51.366zm-396 305.467v-305.467c0-16.836 13.697-30.533 30.533-30.533s30.533 13.697 30.533 30.533-13.697 30.534-30.533 30.534c-6.075 0-11 4.925-11 11v263.933zm332.467 132h-290.934v-384.933h290.934zm11-406.933h-270.226c6.175-8.612 9.825-19.152 9.825-30.534s-3.65-21.921-9.825-30.533h270.226c16.836 0 30.533 13.697 30.533 30.533 0 16.837-13.697 30.534-30.533 30.534z"/></g><g fill="#0496FF"><path d="m160.209 186.778c2.148 2.148 4.963 3.222 7.778 3.222s5.631-1.074 7.778-3.222l32.015-32.015c4.296-4.296 4.296-11.261 0-15.557-4.297-4.296-11.262-4.295-15.557 0l-24.236 24.237-14.209-14.209c-4.297-4.296-11.262-4.295-15.557 0-4.296 4.296-4.296 11.261 0 15.557z"/><path d="m192.224 227.207-24.236 24.237-14.209-14.209c-4.297-4.296-11.262-4.295-15.557 0-4.296 4.296-4.296 11.261 0 15.557l21.987 21.987c2.148 2.148 4.963 3.222 7.778 3.222s5.631-1.074 7.778-3.222l32.015-32.015c4.296-4.296 4.296-11.261 0-15.557-4.297-4.296-11.261-4.295-15.556 0z"/><path d="m192.224 315.207-24.236 24.237-14.209-14.209c-4.297-4.296-11.262-4.295-15.557 0-4.296 4.296-4.296 11.261 0 15.557l21.987 21.987c2.148 2.148 4.963 3.222 7.778 3.222s5.631-1.074 7.778-3.222l32.015-32.015c4.296-4.296 4.296-11.261 0-15.557-4.297-4.296-11.261-4.295-15.556 0z"/><path d="m192.224 403.207-24.236 24.237-14.209-14.209c-4.297-4.296-11.262-4.295-15.557 0-4.296 4.296-4.296 11.261 0 15.557l21.987 21.987c2.148 2.148 4.963 3.222 7.778 3.222s5.631-1.074 7.778-3.222l32.015-32.015c4.296-4.296 4.296-11.261 0-15.557-4.297-4.296-11.261-4.295-15.556 0z"/></g></g><g/><g/><g/><g/><g/><g/><g/><g/><g/><g/><g/><g/><g/><g/><g/></svg>