<svg id="Layer_1" enable-background="new 0 0 512 512" viewBox="0 0 512 512" xmlns="http://www.w3.org/2000/svg" fill="#E6ECF2"><g><g><path d="m293.345 32.741h-56.356c-3.833-18.661-20.385-32.741-40.164-32.741s-36.332 14.08-40.164 32.741h-56.357c-28.122 0-51 22.878-51 51v292c0 28.122 22.878 51 51 51h119.386v-22h-119.386c-15.991 0-29-13.009-29-29v-277h251.042v165.559h22v-180.559c-.001-28.121-22.879-51-51.001-51zm-170.278 44h-50.904c3.14-12.619 14.563-22 28.141-22h22.763zm125.516 0h-103.516v-22h21.758c6.075 0 11-4.925 11-11v-2.741c0-10.477 8.523-19 19-19s19 8.523 19 19v2.741c0 6.075 4.925 11 11 11h21.758zm22 0v-22h22.763c13.577 0 25 9.381 28.141 22z"/><path d="m259.583 152.741h-125.516c-6.075 0-11 4.925-11 11v44c0 6.075 4.925 11 11 11h125.516c6.075 0 11-4.925 11-11v-44c0-6.075-4.925-11-11-11zm-11 44h-103.516v-22h103.516z"/><path d="m225.209 240.741h-76.905c-6.075 0-11 4.925-11 11s4.925 11 11 11h76.905c6.075 0 11-4.925 11-11s-4.925-11-11-11z"/><path d="m148.304 306.741h56.905c6.075 0 11-4.925 11-11s-4.925-11-11-11h-56.905c-6.075 0-11 4.925-11 11s4.925 11 11 11z"/><path d="m115.09 249.59c-1.254-7.468-10.72-11.402-16.89-6.99-8.103 5.299-5.551 18.102 3.951 19.929 7.404 1.699 14.644-5.537 12.939-12.939z"/><path d="m98.199 286.6c-8.101 5.296-5.552 18.105 3.951 19.929 7.405 1.701 14.644-5.54 12.94-12.94-1.259-7.469-10.719-11.401-16.891-6.989z"/><path d="m219.69 328.741h-71.386c-6.075 0-11 4.925-11 11s4.925 11 11 11h71.386c6.075 0 11-4.925 11-11s-4.925-11-11-11z"/><path d="m104.3 350.74c7.587.225 13.285-8.287 10.16-15.21-2.685-7.094-12.727-9.079-17.93-3.57-6.897 6.792-1.916 18.853 7.77 18.78z"/></g><g fill="#0496FF"><path d="m415.474 374.872-23.013-23.013c-4.297-4.296-11.26-4.296-15.557 0-4.296 4.296-4.296 11.261 0 15.557l4.234 4.234h-36.794v-36.794l4.234 4.234c2.148 2.148 4.963 3.222 7.778 3.222s5.63-1.074 7.778-3.222c4.296-4.296 4.296-11.261 0-15.557l-23.013-23.013c-4.297-4.296-11.26-4.296-15.557 0l-23.013 23.013c-4.296 4.296-4.296 11.261 0 15.557 4.297 4.296 11.26 4.296 15.557 0l4.234-4.234v36.794h-36.793l4.234-4.234c4.296-4.296 4.296-11.261 0-15.557-4.297-4.296-11.26-4.296-15.557 0l-23.013 23.013c-4.295 4.296-4.295 11.261 0 15.557l23.013 23.013c2.148 2.148 4.963 3.222 7.778 3.222s5.63-1.074 7.778-3.222c4.296-4.296 4.296-11.261 0-15.557l-4.234-4.234h36.793v36.793l-4.234-4.234c-4.297-4.296-11.26-4.296-15.557 0-4.296 4.296-4.296 11.261 0 15.557l23.013 23.013c2.148 2.148 4.963 3.222 7.778 3.222s5.63-1.074 7.778-3.222l23.013-23.013c4.296-4.296 4.296-11.261 0-15.557-4.297-4.296-11.26-4.296-15.557 0l-4.234 4.234v-36.794h36.794l-4.234 4.234c-4.296 4.296-4.296 11.261 0 15.557 2.148 2.148 4.963 3.222 7.778 3.222s5.63-1.074 7.778-3.222l23.013-23.013c4.3-4.295 4.3-11.26.004-15.556z"/><path d="m333.345 253.3c-71.323 0-129.35 58.026-129.35 129.35s58.027 129.35 129.35 129.35c71.324 0 129.351-58.026 129.351-129.35s-58.026-129.35-129.351-129.35zm0 236.7c-59.192 0-107.35-48.157-107.35-107.35s48.157-107.35 107.35-107.35 107.351 48.157 107.351 107.35-48.157 107.35-107.351 107.35z"/></g></g><g/><g/><g/><g/><g/><g/><g/><g/><g/><g/><g/><g/><g/><g/><g/></svg>