<svg id="Capa_1" enable-background="new 0 0 512 512" viewBox="0 0 512 512" xmlns="http://www.w3.org/2000/svg" fill="#052438"><g><g><path d="m360.976 298.39c1.962-5.964 2.975-12.232 2.975-18.586 0-18.461-8.358-35.565-22.932-46.927-4.794-3.735-11.703-2.879-15.438 1.912s-2.88 11.703 1.911 15.438c9.189 7.164 14.459 17.944 14.459 29.577.417 15.089-9.79 29.093-24.487 32.83-5.854 1.626-9.28 7.689-7.654 13.543 1.606 5.903 7.848 9.285 13.543 7.654 10.144-2.818 19.299-8.436 26.408-16.09 21.66 6.99 36.805 27.338 36.805 50.593 0 22.673-14.027 42.349-34.827 49.92-3.26-3.489-6.923-6.539-10.933-9.087 5.094-9.125 6.493-20.124 3.424-30.408-1.738-5.821-7.864-9.132-13.687-7.395-5.821 1.737-9.133 7.865-7.396 13.686 1.887 6.321-.049 13.266-4.932 17.692-4.882 4.427-11.982 5.675-18.087 3.18-5.624-2.298-12.046.398-14.344 6.022s.398 12.045 6.021 14.343c4.755 1.943 9.771 2.888 14.764 2.888 6.029 0 12.019-1.382 17.453-4.051 5.729 2.45 10.635 6.361 14.329 11.415 2.379 5.02 3.598 10.391 3.598 15.986 0 20.664-16.812 37.475-37.476 37.475s-37.473-16.811-37.473-37.475v-172.722c0-6.075-4.925-11-11-11s-11 4.925-11 11v172.722c0 20.664-16.811 37.475-37.475 37.475s-37.476-16.811-37.476-37.475c0-5.592 1.218-10.96 3.594-15.978 3.66-4.998 8.653-8.973 14.337-11.421 5.433 2.668 11.421 4.049 17.449 4.049 4.991 0 10.01-.945 14.764-2.888 5.623-2.298 8.319-8.72 6.021-14.343-2.298-5.624-8.72-8.321-14.344-6.022-6.103 2.494-13.204 1.247-18.088-3.18-4.882-4.426-6.817-11.371-4.931-17.692 1.737-5.821-1.574-11.949-7.396-13.686-5.822-1.74-11.949 1.574-13.687 7.395-3.072 10.296-1.667 21.309 3.442 30.44-4 2.552-7.679 5.601-10.932 9.06-20.81-7.566-34.846-27.247-34.846-49.926 0-23.256 15.146-43.603 36.806-50.593 7.113 7.657 16.266 13.273 26.407 16.09 5.696 1.631 11.936-1.752 13.543-7.654 1.626-5.854-1.801-11.917-7.654-13.543-14.689-3.733-24.907-17.743-24.487-32.83 0-11.102 4.883-21.569 13.396-28.717 4.652-3.906 5.258-10.845 1.352-15.498-3.908-4.652-10.844-5.257-15.498-1.351-13.505 11.338-21.25 27.946-21.25 45.565 0 6.354 1.013 12.622 2.975 18.586-28.232 11.134-47.59 38.689-47.59 69.944 0 17.104 5.902 33.844 16.62 47.136 7.933 9.839 18.263 17.523 29.832 22.326-1.222 4.773-1.837 9.696-1.837 14.729 0 32.795 26.681 59.475 59.476 59.475 19.985 0 37.685-9.919 48.475-25.081 10.792 15.164 28.492 25.083 48.477 25.083 32.795 0 59.476-26.681 59.476-59.475 0-5.033-.615-9.956-1.837-14.729 11.569-4.803 21.899-12.487 29.832-22.326 10.718-13.292 16.62-30.032 16.62-47.136-.001-31.255-19.358-58.81-47.59-69.944z"/><path d="m386.271 59.288c-3.991-4.579-10.939-5.057-15.52-1.064-4.58 3.992-5.057 10.94-1.064 15.52 21.487 24.65 34.297 55.555 36.666 88.01h-43.701c-6.075 0-11 4.925-11 11s4.925 11 11 11h55.103c6.075 0 11-4.925 11-11-.001-41.74-15.089-82.037-42.484-113.466z"/><path d="m161.945 172.754c0-6.075-4.925-11-11-11h-45.302c2.407-33.221 15.632-63.487 36.153-87.296l33.359 33.359c2.148 2.148 4.963 3.222 7.778 3.222s5.63-1.074 7.778-3.222c4.296-4.296 4.296-11.261 0-15.557l-33.383-33.383c23.866-20.707 54.275-34.06 87.671-36.48v47.994c0 6.075 4.925 11 11 11s11-4.925 11-11v-47.981c31.811 2.33 62.219 14.708 86.611 35.454 4.629 3.935 11.57 3.375 15.506-1.253 3.937-4.627 3.375-11.57-1.252-15.506-31.166-26.507-70.893-41.105-111.864-41.105-95.257 0-172.754 77.497-172.754 172.754 0 6.075 4.925 11 11 11h56.699c6.076 0 11-4.924 11-11z"/></g><g fill="#0496FF"><path d="m397.705 30.698c-3.348-3.347-8.461-4.177-12.695-2.062l-84.153 42.049c-13.76-5.971-28.927-9.29-44.856-9.29-62.336 0-113.051 50.714-113.051 113.051 0 62.336 50.715 113.051 113.051 113.051s113.051-50.714 113.051-113.051c0-17.182-3.86-33.477-10.747-48.074l41.462-82.979c2.116-4.235 1.285-9.348-2.062-12.695zm-141.705 234.799c-50.206 0-91.051-40.845-91.051-91.051s40.845-91.051 91.051-91.051 91.051 40.845 91.051 91.051-40.845 91.051-91.051 91.051zm88.683-161.084c-6.103-7.711-13.185-14.613-21.061-20.51l41.727-20.85z"/><path d="m283.605 204.487c-7.641 6.676-17.445 10.352-27.605 10.352s-19.965-3.676-27.605-10.352c-4.576-3.998-11.524-3.527-15.521 1.046-3.997 4.575-3.528 11.524 1.047 15.521 11.65 10.179 26.595 15.785 42.08 15.785s30.43-5.606 42.08-15.785c4.575-3.997 5.044-10.946 1.047-15.521-3.997-4.574-10.945-5.044-15.523-1.046z"/><path d="m227.205 185.446c6.075 0 11-4.925 11-11v-20.803c0-6.075-4.925-11-11-11s-11 4.925-11 11v20.803c0 6.075 4.925 11 11 11z"/><path d="m284.795 185.446c6.075 0 11-4.925 11-11v-20.803c0-6.075-4.925-11-11-11s-11 4.925-11 11v20.803c0 6.075 4.925 11 11 11z"/></g></g><g/><g/><g/><g/><g/><g/><g/><g/><g/><g/><g/><g/><g/><g/><g/></svg>