<svg id="Capa_1" enable-background="new 0 0 512 512" viewBox="0 0 512 512" xmlns="http://www.w3.org/2000/svg" fill="#E6ECF2"><g><path d="m417.138 113.613c-6.075 0-11 4.925-11 11v32.495c0 4.962-4.038 9-9 9h-129.899v-41.734c0-6.075-4.925-11-11-11s-11 4.925-11 11v41.734h-130.377c-4.962 0-9-4.038-9-9v-32.495c0-6.075-4.925-11-11-11s-11 4.925-11 11v32.495c0 17.093 13.907 31 31 31h130.377v67.892c0 6.075 4.925 11 11 11s11-4.925 11-11v-67.892h129.899c17.093 0 31-13.907 31-31v-32.495c0-6.075-4.925-11-11-11z" fill="#0496FF"/><g><path d="m363.181 294.333c2.04-6.125 3.092-12.57 3.092-19.104 0-33.347-27.13-60.477-60.478-60.477-20.436 0-38.524 10.199-49.477 25.763-10.953-15.565-29.041-25.763-49.477-25.763-33.348 0-60.478 27.13-60.478 60.477 0 6.534 1.053 12.978 3.092 19.104-28.839 11.279-48.63 39.377-48.63 71.258 0 17.406 6.006 34.441 16.913 47.968 8.115 10.065 18.694 17.914 30.542 22.795-1.274 4.914-1.917 9.983-1.917 15.168 0 33.347 27.13 60.477 60.478 60.477 20.436 0 38.524-10.199 49.477-25.763 10.953 15.565 29.041 25.764 49.477 25.764 33.348 0 60.478-27.13 60.478-60.477 0-5.185-.642-10.254-1.917-15.168 11.847-4.882 22.426-12.73 30.542-22.795 10.907-13.526 16.913-30.562 16.913-47.968 0-31.882-19.791-59.98-48.63-71.259zm-117.863 157.19c0 21.216-17.261 38.477-38.477 38.477-21.217 0-38.478-17.261-38.478-38.477-.644-12.598 6.838-23.704 18.533-28.219 5.54 2.739 11.651 4.159 17.806 4.159 5.065 0 10.159-.96 14.983-2.931 5.624-2.298 8.319-8.72 6.021-14.344s-8.72-8.32-14.344-6.021c-6.312 2.579-13.652 1.289-18.701-3.288-5.047-4.576-7.049-11.756-5.098-18.29 1.738-5.821-1.573-11.949-7.394-13.687-5.821-1.736-11.95 1.573-13.687 7.394-3.14 10.519-1.674 21.776 3.597 31.08-4.177 2.643-8.013 5.822-11.395 9.437-21.408-7.716-35.86-27.924-35.86-51.222 0-23.885 15.588-44.776 37.861-51.899 7.246 7.839 16.591 13.586 26.948 16.463 5.695 1.631 11.936-1.751 13.543-7.654 1.626-5.854-1.801-11.917-7.654-13.543-7.863-2.184-14.782-7.042-19.513-13.682-3.69-6.028-5.646-12.951-5.646-20.047 0-21.216 17.261-38.477 38.478-38.477 21.216 0 38.477 17.261 38.477 38.477zm108.653-34.717c-3.388-3.645-7.21-6.819-11.399-9.458 5.259-9.299 6.719-20.544 3.582-31.052-1.738-5.821-7.864-9.131-13.687-7.394-5.821 1.738-9.132 7.866-7.394 13.687 1.951 6.534-.051 13.713-5.099 18.291-5.048 4.576-12.387 5.866-18.701 3.287-5.623-2.299-12.045.397-14.343 6.022-2.298 5.624.398 12.045 6.022 14.343 4.825 1.972 9.917 2.931 14.983 2.931 6.152 0 12.262-1.419 17.8-4.157 11.71 4.464 19.173 15.628 18.538 28.217 0 21.216-17.261 38.477-38.478 38.477-21.216 0-38.477-17.261-38.477-38.477v-176.294c0-21.216 17.261-38.477 38.477-38.477 21.217 0 38.478 17.261 38.478 38.477 0 7.094-1.955 14.016-5.644 20.043-4.733 6.643-11.653 11.501-19.515 13.685-5.854 1.626-9.28 7.689-7.654 13.543 1.607 5.903 7.848 9.285 13.543 7.654 10.356-2.877 19.701-8.623 26.947-16.463 22.274 7.123 37.862 28.014 37.862 51.899-.001 23.292-14.444 43.495-35.841 51.216z"/><path d="m489.886 115.554-63.54-110.054c-1.965-3.403-5.597-5.5-9.526-5.5-3.93 0-7.562 2.097-9.526 5.5l-63.54 110.054c-1.965 3.403-1.965 7.597 0 11s5.597 5.5 9.526 5.5h127.08c3.93 0 7.562-2.097 9.526-5.5s1.965-7.596 0-11zm-117.553-5.5 44.486-77.054 44.487 77.054z"/><path d="m201.291 132.054h110.054c6.075 0 11-4.925 11-11v-110.054c0-6.075-4.925-11-11-11h-110.054c-6.075 0-11 4.925-11 11v110.054c0 6.075 4.924 11 11 11zm11-110.054h88.054v88.054h-88.054z"/><path d="m136.477 126.554 31.77-55.027c1.965-3.403 1.965-7.597 0-11l-31.77-55.027c-1.965-3.403-5.597-5.5-9.527-5.5h-63.54c-3.93 0-7.562 2.097-9.526 5.5l-31.77 55.027c-1.965 3.403-1.965 7.597 0 11l31.77 55.027c1.965 3.403 5.596 5.5 9.526 5.5h63.54c3.93 0 7.562-2.096 9.527-5.5zm-66.715-16.5-25.42-44.027 25.419-44.027h50.838l25.419 44.027-25.419 44.027z"/></g></g><g/><g/><g/><g/><g/><g/><g/><g/><g/><g/><g/><g/><g/><g/><g/></svg>