<svg id="Capa_1" enable-background="new 0 0 512 512" viewBox="0 0 512 512" xmlns="http://www.w3.org/2000/svg" fill="#052438"><g><g><path d="m512 256c0-27.633-14.432-53.385-37.455-68.017 1.795-6.893 2.701-13.981 2.701-21.17 0-39.112-26.816-72.556-63.887-81.702.003-.311.005-.62.005-.928 0-46.419-37.764-84.183-84.182-84.183-31.323 0-58.685 17.209-73.182 42.656-14.497-25.447-41.859-42.656-73.182-42.656-46.418 0-84.182 37.764-84.182 84.182 0 .309.002.618.005.928-37.072 9.146-63.887 42.59-63.887 81.702 0 7.189.906 14.277 2.701 21.17-23.023 14.633-37.455 40.385-37.455 68.018s14.432 53.385 37.455 68.017c-1.795 6.893-2.701 13.981-2.701 21.17 0 39.112 26.816 72.556 63.887 81.702-.544 46.736 37.436 85.141 84.177 85.11 31.323 0 58.685-17.209 73.182-42.656 14.497 25.448 41.859 42.657 73.182 42.657 46.74.031 84.721-38.375 84.177-85.11 37.071-9.146 63.887-42.59 63.887-81.702 0-7.189-.906-14.277-2.701-21.17 23.023-14.633 37.455-40.385 37.455-68.018zm-45.967 47.194c-3.126-5.425-6.849-10.496-11.151-15.147-4.126-4.461-11.084-4.732-15.544-.608-4.46 4.125-4.732 11.084-.608 15.544 10.599 11.377 16.55 26.678 16.516 42.205 0 31.529-23.583 58.07-54.856 61.736-10.684 1.307-21.679-.258-31.526-4.436-5.597-2.368-12.05.25-14.417 5.845s.25 12.05 5.845 14.417c9.853 4.168 20.288 6.361 31.034 6.577-.807 33.59-28.363 60.673-62.144 60.673-34.287 0-62.182-27.895-62.182-62.182v-22.065c0-6.075-4.925-11-11-11s-11 4.925-11 11v22.065c0 34.287-27.895 62.182-62.182 62.182-33.781 0-61.337-27.083-62.144-60.673 10.746-.216 21.18-2.41 31.034-6.577 5.595-2.367 8.212-8.821 5.845-14.417-2.366-5.595-8.82-8.211-14.417-5.845-9.845 4.178-20.844 5.743-31.526 4.436-31.273-3.667-54.856-30.208-54.856-61.736-.034-15.527 5.917-30.828 16.516-42.205 4.125-4.46 3.853-11.419-.608-15.544-4.458-4.123-11.419-3.853-15.544.608-4.302 4.651-8.025 9.722-11.151 15.147-14.825-10.905-23.967-28.452-23.967-47.194 0-18.745 9.145-36.294 23.973-47.198 3.125 5.423 6.841 10.497 11.146 15.152 4.133 4.468 11.094 4.724 15.544.607 4.46-4.125 4.732-11.084.607-15.544-10.597-11.383-16.549-26.676-16.516-42.204 0-31.529 23.583-58.07 54.856-61.736 10.683-1.307 21.68.258 31.526 4.436 5.457 2.349 12.049-.194 14.417-5.845 2.367-5.595-.25-12.05-5.845-14.417-9.853-4.168-20.288-6.361-31.034-6.577.807-33.591 28.363-60.674 62.144-60.674 34.287 0 62.182 27.895 62.182 62.182v30.268c0 6.075 4.925 11 11 11s11-4.925 11-11v-30.268c0-34.287 27.895-62.182 62.182-62.182 33.781 0 61.337 27.083 62.144 60.673-10.746.216-21.18 2.41-31.034 6.577-5.595 2.367-8.212 8.821-5.845 14.417 2.368 5.652 8.959 8.194 14.417 5.845 39.51-17.703 87.439 13.803 86.382 57.3.033 15.528-5.919 30.821-16.516 42.204-4.125 4.46-3.853 11.419.607 15.544 4.45 4.118 11.411 3.861 15.544-.607 4.305-4.655 8.021-9.729 11.146-15.152 14.828 10.905 23.973 28.454 23.973 47.199 0 18.742-9.142 36.289-23.967 47.194z"/><path d="m256 298.934c-17.926 0-32.51 14.584-32.51 32.51s14.584 32.51 32.51 32.51 32.51-14.584 32.51-32.51-14.584-32.51-32.51-32.51zm0 43.02c-5.795 0-10.51-4.715-10.51-10.51s4.715-10.51 10.51-10.51 10.51 4.715 10.51 10.51-4.715 10.51-10.51 10.51z"/><path d="m256 157.582c-17.926 0-32.51 14.584-32.51 32.51s14.584 32.51 32.51 32.51 32.51-14.584 32.51-32.51-14.584-32.51-32.51-32.51zm0 43.02c-5.795 0-10.51-4.715-10.51-10.51s4.715-10.51 10.51-10.51 10.51 4.715 10.51 10.51-4.715 10.51-10.51 10.51z"/></g><path d="m256 108.416c-84.007 0-152.352 68.345-152.352 152.352s68.345 152.351 152.352 152.351 152.352-68.345 152.352-152.352-68.345-152.351-152.352-152.351zm-130.352 152.352c0-45.084 23.009-84.891 57.898-108.307-5.878 11.271-9.222 24.064-9.222 37.631 0 22.02 8.175 42.5 23.021 57.669 15.15 15.48 35.981 24.006 58.655 24.006 34.579 0 59.676 25.097 59.676 59.676 0 32.905-26.771 59.676-59.676 59.676-71.876 0-130.352-58.475-130.352-130.351zm202.806 108.307c5.878-11.271 9.222-24.064 9.222-37.631 0-46.563-35.113-81.676-81.676-81.676-34.02 0-59.676-25.655-59.676-59.676 0-32.905 26.771-59.676 59.676-59.676 71.876 0 130.352 58.476 130.352 130.352 0 45.083-23.009 84.891-57.898 108.307z" fill="#0496FF"/></g><g/><g/><g/><g/><g/><g/><g/><g/><g/><g/><g/><g/><g/><g/><g/></svg>