<svg id="Layer_1" enable-background="new 0 0 512 512" viewBox="0 0 512 512" xmlns="http://www.w3.org/2000/svg" fill="#052438"><g><g><path d="m256 202.075c-23.313 0-42.28-18.917-42.28-42.169s18.967-42.169 42.28-42.169c23.312 0 42.279 18.917 42.279 42.169s-18.967 42.169-42.279 42.169zm0-62.338c-11.183 0-20.28 9.048-20.28 20.169 0 11.122 9.098 20.169 20.28 20.169s20.279-9.048 20.279-20.169-9.097-20.169-20.279-20.169z" fill="#0496FF"/></g><g><g><path d="m256 249.726c49.632 0 90.01-40.293 90.01-89.82 0-49.526-40.378-89.819-90.01-89.819s-90.01 40.293-90.01 89.819c0 49.527 40.378 89.82 90.01 89.82zm0-157.64c37.501 0 68.01 30.424 68.01 67.819 0 37.396-30.509 67.82-68.01 67.82s-68.01-30.424-68.01-67.82c0-37.395 30.509-67.819 68.01-67.819z"/><path d="m413.881 431.161c9.605-9.055 15.61-21.882 15.61-36.085 0-27.366-22.29-49.629-49.688-49.629s-49.688 22.264-49.688 49.629c0 14.202 6.004 27.03 15.61 36.085-11.402 6.047-21.016 15.028-27.824 25.929-6.808-10.901-16.422-19.882-27.824-25.929 9.606-9.055 15.61-21.882 15.61-36.085 0-27.366-22.29-49.629-49.688-49.629s-49.688 22.264-49.688 49.629c0 14.202 6.004 27.03 15.61 36.085-11.402 6.047-21.016 15.028-27.824 25.929-6.808-10.901-16.422-19.882-27.824-25.929 9.606-9.055 15.61-21.882 15.61-36.085 0-27.366-22.29-49.629-49.688-49.629s-49.688 22.264-49.688 49.629c0 14.202 6.004 27.03 15.61 36.085-23.074 12.237-38.824 36.492-38.824 64.352v5.487c0 6.075 4.925 11 11 11h371.41c6.075 0 11-4.925 11-11v-5.486c.002-27.861-15.747-52.116-38.822-64.353zm-61.766-36.084c0-15.235 12.421-27.629 27.688-27.629s27.688 12.395 27.688 27.629-12.421 27.629-27.688 27.629-27.688-12.394-27.688-27.629zm-123.803 0c0-15.235 12.421-27.629 27.688-27.629s27.687 12.395 27.687 27.629-12.42 27.629-27.687 27.629-27.688-12.394-27.688-27.629zm-123.803 0c0-15.235 12.421-27.629 27.688-27.629s27.688 12.395 27.688 27.629-12.42 27.629-27.688 27.629-27.688-12.394-27.688-27.629zm-22.916 94.923c2.761-25.433 24.402-45.294 50.604-45.294s47.843 19.861 50.603 45.294zm123.803 0c2.761-25.433 24.402-45.294 50.604-45.294 26.201 0 47.843 19.861 50.604 45.294zm123.803 0c2.761-25.433 24.402-45.294 50.604-45.294 26.201 0 47.843 19.861 50.604 45.294z"/><path d="m256 307.669c81.634 0 148.048-66.287 148.048-147.764s-66.414-147.762-148.048-147.762-148.048 66.286-148.048 147.763 66.414 147.763 148.048 147.763zm0-273.526c69.503 0 126.048 56.417 126.048 125.763s-56.545 125.763-126.048 125.763-126.048-56.417-126.048-125.764 56.545-125.762 126.048-125.762z"/></g><g><g><path d="m256 48.799c-6.075 0-11-4.925-11-11v-26.799c0-6.075 4.925-11 11-11s11 4.925 11 11v26.799c0 6.075-4.925 11-11 11z" fill="#0496FF"/></g><g><path d="m256 319.812c-6.075 0-11-4.925-11-11v-26.799c0-6.075 4.925-11 11-11s11 4.925 11 11v26.799c0 6.075-4.925 11-11 11z" fill="#0496FF"/></g></g><g><g><path d="m405.132 170.906h-26.839c-6.075 0-11-4.925-11-11s4.925-11 11-11h26.839c6.075 0 11 4.925 11 11s-4.925 11-11 11z" fill="#0496FF"/></g><g><path d="m133.708 170.906h-26.84c-6.075 0-11-4.925-11-11s4.925-11 11-11h26.84c6.075 0 11 4.925 11 11s-4.925 11-11 11z" fill="#0496FF"/></g></g></g></g><g/><g/><g/><g/><g/><g/><g/><g/><g/><g/><g/><g/><g/><g/><g/></svg>