<svg id="Layer_1" enable-background="new 0 0 512 512" viewBox="0 0 512 512" xmlns="http://www.w3.org/2000/svg" fill="#E6ECF2"><g><g><path d="m231.536 162.973v-25.561c0-7.116-5.75-12.906-12.818-12.906h-64.189c-7.067 0-12.817 5.79-12.817 12.906v25.561c0 6.075-22 6.075-22 0v-25.561c0-19.247 15.619-34.906 34.817-34.906h64.189c19.199 0 34.818 15.659 34.818 34.906v25.561c0 6.075-22 6.075-22 0z" fill="#0496FF"/></g><g><path d="m395.703 110.948c-26.916 0-48.813 21.96-48.813 48.953s21.897 48.953 48.813 48.953 48.814-21.96 48.814-48.953-21.898-48.953-48.814-48.953zm0 75.906c-14.785 0-26.813-12.091-26.813-26.953s12.028-26.953 26.813-26.953 26.814 12.091 26.814 26.953-12.029 26.953-26.814 26.953z"/><path d="m220.146 333.155h-66.947c-6.075 0-11 4.925-11 11s4.925 11 11 11h66.947c6.075 0 11-4.925 11-11s-4.924-11-11-11z"/><path d="m503.87 126.333-7.049-1.905c-1.343-3.878-2.908-7.679-4.687-11.38l3.685-6.435c2.46-4.295 1.749-9.704-1.738-13.216l-32.237-32.474c-3.525-3.552-9.005-4.277-13.334-1.761l-6.307 3.665c-3.627-1.762-7.355-3.318-11.157-4.655l-1.905-7.151c-1.283-4.816-5.645-8.168-10.629-8.168h-45.617c-4.985 0-9.347 3.353-10.63 8.169l-1.903 7.15c-3.801 1.337-7.528 2.892-11.157 4.655l-6.307-3.665c-4.327-2.516-9.808-1.792-13.334 1.761l-32.237 32.474c-3.487 3.513-4.198 8.922-1.738 13.217l3.686 6.435c-1.778 3.7-3.344 7.501-4.687 11.379l-7.05 1.905c-4.798 1.297-8.13 5.649-8.13 10.619v24.571h-230.531c-26.951 0-48.877 21.989-48.877 49.016v209.593c0 27.027 21.926 49.016 48.877 49.016h275.493c26.95 0 48.876-21.989 48.876-49.016v-143.182h45.266c4.984 0 9.346-3.352 10.629-8.168l1.905-7.151c3.802-1.337 7.529-2.893 11.157-4.656l6.307 3.665c4.326 2.515 9.809 1.791 13.334-1.761l32.237-32.475c3.487-3.513 4.198-8.921 1.738-13.216l-3.685-6.434c1.778-3.701 3.344-7.502 4.687-11.38l7.049-1.906c4.798-1.296 8.13-5.649 8.13-10.619v-45.898c0-4.969-3.332-9.322-8.13-10.618zm-179.5 320.815h-275.493c-14.82 0-26.877-12.119-26.877-27.016v-91.194c13.874 14.955 33.248 24.755 54.996 26.067.226.014.449.021.673.021 5.771 0 6.716-21.615.651-21.98-31.581-1.906-56.32-28.32-56.32-60.136v-62.371c0-14.897 12.057-27.016 26.877-27.016h230.551c.285 4.686 3.529 8.708 8.109 9.946l7.05 1.905c1.343 3.877 2.909 7.68 4.687 11.379l-3.686 6.434c-2.46 4.295-1.749 9.705 1.738 13.217l32.237 32.475c3.526 3.552 9.005 4.277 13.334 1.761l6.307-3.665c.677.329 1.358.651 2.042.965v14.97c0 32.1-24.528 58.526-55.842 60.163-6.066.317-5.247 21.985.564 21.985.193 0 .389-.005.584-.016 20.967-1.096 40.38-10.159 54.663-25.521l.03-.033v90.643c.001 14.898-12.056 27.017-26.875 27.017zm165.63-272.719-4.737 1.28c-3.74 1.011-6.673 3.915-7.72 7.645-1.79 6.371-4.328 12.539-7.546 18.333-1.869 3.367-1.842 7.466.072 10.807l2.496 4.358-20.348 20.497-4.206-2.444c-3.371-1.959-7.526-1.987-10.925-.075-5.729 3.226-11.832 5.774-18.139 7.574-3.724 1.062-6.613 4.004-7.61 7.746l-1.279 4.799h-28.71l-1.277-4.798c-.997-3.742-3.888-6.685-7.612-7.747-6.306-1.8-12.409-4.348-18.139-7.574-3.398-1.913-7.554-1.885-10.925.075l-4.206 2.444-20.347-20.497 2.496-4.357c1.914-3.342 1.941-7.441.071-10.809-3.216-5.791-5.755-11.959-7.546-18.333-1.048-3.73-3.98-6.633-7.72-7.644l-4.737-1.28v-29.055l4.737-1.28c3.739-1.011 6.672-3.914 7.72-7.644 1.791-6.374 4.33-12.542 7.546-18.333 1.87-3.367 1.843-7.466-.071-10.808l-2.496-4.358 20.347-20.497 4.206 2.444c3.37 1.959 7.526 1.988 10.924.075 5.732-3.228 11.835-5.776 18.14-7.574 3.724-1.062 6.615-4.005 7.612-7.748l1.277-4.798h28.71l1.279 4.8c.996 3.741 3.887 6.683 7.61 7.746 6.309 1.8 12.411 4.349 18.139 7.574 3.397 1.913 7.553 1.885 10.925-.075l4.206-2.444 20.348 20.498-2.496 4.358c-1.914 3.341-1.941 7.44-.072 10.807 3.218 5.794 5.757 11.962 7.546 18.333 1.047 3.73 3.979 6.634 7.72 7.645l4.737 1.28z"/></g><g><g><path d="m286.471 393.065h-55.607c-6.075 0-11-4.925-11-11v-71.505c0-6.075 4.925-11 11-11h55.607c6.075 0 11 4.925 11 11v71.506c0 6.075-4.925 10.999-11 10.999zm-44.608-22h33.607v-49.505h-33.607z" fill="#0496FF"/></g><g><path d="m142.383 393.065h-55.608c-6.075 0-11-4.925-11-11v-71.505c0-6.075 4.925-11 11-11h55.607c6.075 0 11 4.925 11 11v71.506c.001 6.075-4.924 10.999-10.999 10.999zm-44.608-22h33.607v-49.505h-33.607z" fill="#0496FF"/></g></g></g><g/><g/><g/><g/><g/><g/><g/><g/><g/><g/><g/><g/><g/><g/><g/></svg>