<svg id="Layer_1" enable-background="new 0 0 512.001 512.001" viewBox="0 0 512.001 512.001" xmlns="http://www.w3.org/2000/svg" fill="#052438"><g><g><g><path d="m165.63 405.913c-33.711 0-61.137-27.476-61.137-61.247s27.426-61.245 61.137-61.245 61.137 27.475 61.137 61.245c-.001 33.771-27.427 61.247-61.137 61.247zm0-100.493c-21.58 0-39.137 17.605-39.137 39.245 0 21.641 17.557 39.247 39.137 39.247s39.137-17.606 39.137-39.247c-.001-21.639-17.557-39.245-39.137-39.245z" fill="#0496FF"/></g></g><g><g><path d="m165.63 458.237c-62.5 0-113.348-50.948-113.348-113.571 0-62.622 50.848-113.569 113.348-113.569s113.348 50.947 113.348 113.569c-.001 62.623-50.848 113.571-113.348 113.571zm0-205.141c-50.369 0-91.348 41.078-91.348 91.569 0 50.492 40.979 91.571 91.348 91.571s91.348-41.079 91.348-91.571c-.001-50.491-40.979-91.569-91.348-91.569z"/></g><path d="m511.587 107.489c-.963-3.761-3.837-6.735-7.562-7.827l-24.998-7.329-7.315-25.062c-1.09-3.733-4.069-6.613-7.837-7.575-3.763-.962-7.762.135-10.509 2.888l-42.813 42.906c-2.791 2.797-3.868 6.876-2.82 10.686l6.898 25.091-68.701 68.851.305-2.545c.724-6.032-3.58-11.509-9.611-12.232-6.043-.719-11.509 3.58-12.232 9.611l-4.1 34.177c-.402 3.353.758 6.704 3.146 9.091 2.075 2.074 4.878 3.22 7.775 3.22.438 0 .877-.026 1.316-.079l34.103-4.108c6.032-.727 10.332-6.205 9.605-12.236s-6.207-10.336-12.237-9.607l-2.558.308 68.744-68.894 25.003 6.903c.967.267 1.951.396 2.927.396 2.883 0 5.696-1.134 7.787-3.23l42.813-42.906c2.743-2.748 3.833-6.737 2.871-10.498zm-56.726 33.324-18.98-5.24-5.241-19.067 25.164-25.219 3.792 12.99c1.052 3.602 3.865 6.418 7.465 7.474l12.998 3.811z"/><g><path d="m420.903 246.387c-2.812 0-5.622-1.07-7.77-3.214-4.301-4.291-4.309-11.256-.017-15.556l31.265-31.332c4.292-4.302 11.256-4.309 15.556-.017 4.301 4.291 4.309 11.256.017 15.556l-31.265 31.332c-2.148 2.154-4.968 3.231-7.786 3.231z" fill="#0496FF"/></g><g><path d="m391.715 77.925c-2.812 0-5.622-1.07-7.77-3.214-4.301-4.291-4.309-11.256-.017-15.556l55.804-55.925c4.291-4.301 11.255-4.31 15.556-.017 4.301 4.291 4.309 11.256.017 15.556l-55.804 55.925c-2.148 2.154-4.966 3.231-7.786 3.231z" fill="#0496FF"/></g><g><path d="m341.077 158.128c-2.812 0-5.622-1.07-7.77-3.213-4.301-4.292-4.309-11.256-.018-15.557l26.353-26.41c4.291-4.301 11.256-4.309 15.557-.018 4.301 4.292 4.309 11.256.018 15.557l-26.353 26.41c-2.149 2.154-4.968 3.231-7.787 3.231z" fill="#0496FF"/></g><path d="m280.939 463.597c30.976-30.163 50.249-72.334 50.249-118.93 0-91.475-74.27-165.895-165.559-165.895s-165.558 74.42-165.558 165.895c0 46.596 19.272 88.767 50.249 118.93l-22.057 31.031c-3.52 4.952-2.358 11.819 2.593 15.339 1.934 1.374 4.159 2.035 6.363 2.035 3.441 0 6.83-1.61 8.976-4.628l20.932-29.448c27.545 20.497 61.636 32.635 98.503 32.635s70.958-12.138 98.503-32.635l20.933 29.448c2.146 3.019 5.534 4.628 8.976 4.628 2.204 0 4.43-.661 6.363-2.035 4.951-3.52 6.112-10.388 2.593-15.339zm-258.868-118.93c0-79.344 64.4-143.895 143.559-143.895s143.559 64.551 143.559 143.895c0 79.343-64.4 143.894-143.559 143.894s-143.559-64.552-143.559-143.894z"/></g></g><g/><g/><g/><g/><g/><g/><g/><g/><g/><g/><g/><g/><g/><g/><g/></svg>