<svg id="Layer_1" enable-background="new 0 0 512.001 512.001" viewBox="0 0 512.001 512.001" xmlns="http://www.w3.org/2000/svg" fill="#052438"><g><path d="m72.575 153.987h-6.792v-6.795c0-6.075-4.925-11-11-11s-11 4.925-11 11v6.795h-6.792c-6.075 0-11 4.925-11 11s4.925 11 11 11h6.792v6.796c0 6.075 4.925 11 11 11s11-4.925 11-11v-6.796h6.792c6.075 0 11-4.925 11-11s-4.925-11-11-11z" fill="#0496FF"/><g><g><g><g><g><path d="m362.779 64.84c-6.075 0-11-4.925-11-11v-7.302c0-6.075 4.925-11 11-11s11 4.925 11 11v7.302c0 6.075-4.925 11-11 11z" fill="#0496FF"/></g><g><path d="m362.779 120.602c-6.075 0-11-4.925-11-11v-7.302c0-6.075 4.925-11 11-11s11 4.925 11 11v7.303c0 6.075-4.925 10.999-11 10.999z" fill="#0496FF"/></g></g></g><g><g><g><path d="m394.382 89.07h-7.319c-6.075 0-11-4.925-11-11s4.925-11 11-11h7.319c6.075 0 11 4.925 11 11s-4.925 11-11 11z" fill="#0496FF"/></g><g><path d="m338.495 89.07h-7.319c-6.075 0-11-4.925-11-11s4.925-11 11-11h7.319c6.075 0 11 4.925 11 11s-4.925 11-11 11z" fill="#0496FF"/></g></g></g></g><g><path d="m287.947 316.473c-13.323 0-22.445 4.657-28.514 9.963-6.06-5.306-15.169-9.963-28.471-9.963-23.556 0-47.402 16.638-47.402 48.438 0 11.839 2.62 21.105 9.043 31.986 12.393 20.993 56.413 46.375 61.392 49.2 1.683.956 3.556 1.433 5.429 1.433 1.863 0 3.727-.473 5.404-1.419 4.981-2.81 49.031-28.063 61.518-49.214 6.414-10.863 9.03-20.13 9.03-31.986.001-31.8-23.859-48.438-47.429-48.438zm19.456 69.239c-6.442 10.911-30.867 27.869-47.965 38.085-17.089-10.256-41.487-27.242-47.889-38.085-4.477-7.584-5.988-12.833-5.988-20.801 0-19.514 13.684-26.438 25.402-26.438 12.039 0 16.688 6.514 18.389 10.396 1.752 4.001 5.706 6.586 10.074 6.587h.002c4.367 0 8.321-2.583 10.074-6.583 1.703-3.884 6.364-10.4 18.445-10.4 11.731 0 25.43 6.924 25.43 26.438 0 7.986-1.507 13.235-5.974 20.801z"/><path d="m485.674 283.335c-.256-4.588-3.338-8.534-7.728-9.894-4.388-1.36-9.162.153-11.968 3.793-.134.173-9.731 12.224-22.487 18.369 3.431-8.909 6.904-20.462 8.83-34.039 4.227-29.806 1.576-75.58-35.057-124.38-2.218-2.956-5.773-4.593-9.462-4.376-3.688.224-7.019 2.284-8.865 5.486-11.119 19.287-38.12 25.489-61.468 14.122-30.386-14.793-51.556-58.631-19.845-137.302 1.528-3.792.827-8.12-1.82-11.235-2.648-3.116-6.806-4.508-10.794-3.609-44.518 10.006-84.151 29.038-117.799 56.564-26.871 21.983-49.947 49.366-68.589 81.388-30.143 51.777-38.699 98.283-39.718 104.335-3.089 11.772-5.131 23.831-6.099 35.999-14.096-5.826-22.618-20.687-22.705-20.84-2.372-4.291-7.296-6.497-12.077-5.403-4.78 1.092-8.26 5.215-8.533 10.111-.244 4.378-.368 8.685-.368 12.801 0 30.611 5.631 60.692 16.736 89.405 10.872 28.111 26.423 53.492 46.22 75.438 41.845 46.388 97.839 71.935 157.667 71.935h29.338c54.815 0 106.874-23.439 146.586-66.001 38.349-41.102 60.343-96.133 60.343-150.984-.002-3.76-.115-7.69-.338-11.683zm-225.619 204.675c-58.722 0-106.496-47.443-106.496-105.759 0-45.839 18.573-88.436 55.204-126.607 20.835-21.711 41.955-35.787 51.382-41.559 9.436 5.605 30.49 19.28 51.26 40.72 36.591 37.772 55.145 80.652 55.145 127.446 0 58.315-47.773 105.759-106.495 105.759zm149.527-57.018c-18.097 19.396-39.011 34.349-61.61 44.351 24.964-23.321 40.578-56.427 40.578-93.092 0-52.201-21.394-101.751-61.869-143.294-30.28-31.079-60.336-46.693-61.602-47.343-3.208-1.648-7.022-1.618-10.206.082-1.262.673-31.252 16.859-61.483 48.195-40.451 41.928-61.832 91.156-61.832 142.36 0 34.18 13.57 65.267 35.633 88.217-21.642-10.836-41.532-26.017-58.78-45.137-32.773-36.333-52.965-84.291-56.671-133.645 8.147 5.997 18.59 10.869 31.181 11.162 2.925.07 5.767-1.036 7.88-3.068s3.328-4.823 3.375-7.753c.24-15 2.302-29.922 6.131-44.353.096-.362.175-.741.234-1.111.074-.465 7.713-47.1 37.491-97.953 35.904-61.317 86.948-102.172 151.918-121.673-10.661 33.275-12.854 62.857-6.499 88.149 6.554 26.083 22.318 46.365 44.389 57.11 28.112 13.686 60.34 8.946 80.039-9.993 19.532 30.517 27.198 62.515 22.795 95.299-3.748 27.908-15.3 46.1-15.396 46.251-2.056 3.146-2.362 7.124-.814 10.548s4.738 5.821 8.458 6.356c15.749 2.263 29.895-4.021 40.544-11.417-3.405 44.53-22.619 88.243-53.884 121.752z"/></g></g></g><g/><g/><g/><g/><g/><g/><g/><g/><g/><g/><g/><g/><g/><g/><g/></svg>