<svg id="Layer_1" enable-background="new 0 0 512 512" viewBox="0 0 512 512" xmlns="http://www.w3.org/2000/svg" fill="#052438"><g><g><g><g><g><g><g><path d="m493.077 122.718h-10.494c-6.075 0-11-4.925-11-11s4.925-11 11-11h10.494c6.075 0 11 4.925 11 11s-4.924 11-11 11z" fill="#0496FF"/></g></g><g><g><path d="m450.162 33.795c-2.825 0-5.649-1.081-7.799-3.243-4.284-4.307-4.266-11.271.042-15.556l7.421-7.381c4.307-4.285 11.272-4.267 15.556.042 4.284 4.307 4.266 11.271-.042 15.556l-7.421 7.381c-2.145 2.135-4.952 3.201-7.757 3.201z" fill="#0496FF"/></g></g><g><g><path d="m457.583 219.022c-2.806 0-5.611-1.066-7.758-3.201l-7.421-7.382c-4.307-4.284-4.325-11.249-.041-15.557 4.285-4.308 11.25-4.324 15.557-.041l7.421 7.382c4.307 4.284 4.325 11.249.041 15.557-2.149 2.161-4.975 3.242-7.799 3.242z" fill="#0496FF"/></g></g></g></g><g><g><g><g><path d="m29.418 122.718h-10.495c-6.075 0-11-4.925-11-11s4.925-11 11-11h10.495c6.075 0 11 4.925 11 11s-4.925 11-11 11z" fill="#0496FF"/></g></g><g><g><path d="m54.417 219.022c-2.825 0-5.649-1.081-7.799-3.242-4.284-4.308-4.266-11.272.041-15.557l7.421-7.382c4.307-4.285 11.271-4.268 15.557.041 4.284 4.308 4.266 11.272-.041 15.557l-7.421 7.382c-2.146 2.135-4.953 3.201-7.758 3.201z" fill="#0496FF"/></g></g><g><g><path d="m61.838 33.795c-2.805 0-5.611-1.066-7.757-3.201l-7.421-7.381c-4.307-4.284-4.326-11.249-.042-15.556 4.285-4.308 11.249-4.326 15.557-.042l7.421 7.381c4.307 4.284 4.326 11.249.042 15.556-2.151 2.161-4.976 3.243-7.8 3.243z" fill="#0496FF"/></g></g></g></g></g><g><g><path d="m365.295 493.284v-92.648c0-6.075 4.925-11 11-11s11 4.925 11 11v92.648c0 6.075-22 6.075-22 0z" fill="#0496FF"/></g><g><path d="m124.705 493.284v-92.648c0-6.075 4.925-11 11-11s11 4.925 11 11v92.648c0 6.075-22 6.075-22 0z" fill="#0496FF"/></g></g><g><path d="m118.075 185.146c40.615 38.182 88.309 58.363 137.925 58.363 49.615 0 97.31-20.182 137.925-58.363 30.379-28.558 46.073-56.916 46.726-58.109 1.802-3.291 1.802-7.273 0-10.564-.652-1.193-16.347-29.551-46.726-58.109-40.615-38.182-88.31-58.364-137.925-58.364-49.616 0-97.31 20.182-137.925 58.362-30.379 28.559-46.073 56.916-46.726 58.109-1.801 3.291-1.801 7.273 0 10.564.654 1.194 16.347 29.553 46.726 58.111zm137.925-163.007c54.727 0 99.249 44.688 99.249 99.615s-44.522 99.615-99.249 99.615-99.25-44.688-99.25-99.615 44.524-99.615 99.25-99.615zm162.162 99.613c-7.357 11.604-27.323 40.144-58.933 63.738 11.423-18.545 18.02-40.382 18.02-63.736 0-23.48-6.669-45.427-18.206-64.037 6.562 4.903 13.003 10.307 19.317 16.209 20.577 19.233 34.043 38.724 39.802 47.826zm-265.392-63.732c-11.422 18.544-18.019 40.381-18.019 63.734 0 23.48 6.669 45.428 18.206 64.037-6.562-4.903-13.003-10.307-19.318-16.21-20.577-19.233-34.045-38.729-39.802-47.825 7.358-11.604 27.324-40.143 58.933-63.736z"/><path d="m256 195.383c40.485 0 73.422-33.029 73.422-73.629 0-5.302-.568-10.597-1.69-15.74-.759-3.481-3.157-6.379-6.435-7.775-3.278-1.397-7.029-1.12-10.066.744-4.131 2.535-8.892 3.875-13.768 3.875-14.594 0-26.466-11.929-26.466-26.592 0-4.143.919-8.106 2.73-11.781 1.572-3.189 1.506-6.942-.178-10.074-1.685-3.132-4.778-5.256-8.307-5.703-3.045-.386-6.155-.581-9.243-.581-40.485 0-73.421 33.029-73.421 73.628.001 40.599 32.937 73.628 73.422 73.628zm-6.676-124.823c-.218 1.879-.327 3.783-.327 5.706 0 26.794 21.741 48.592 48.466 48.592 3.351 0 6.674-.346 9.918-1.024-1.091 27.508-23.721 49.55-51.381 49.55-28.354 0-51.421-23.16-51.421-51.629 0-26.198 19.534-47.901 44.745-51.195z"/><path d="m427.796 303.022c-16.268-17.467-38.568-27.199-62.891-27.471l-44.401-19.394c-3.238-1.415-6.964-1.187-10.008.614l-54.496 32.265-54.497-32.265c-3.043-1.802-6.768-2.031-10.007-.614l-44.4 19.394c-24.324.272-46.624 10.004-62.893 27.471-16.044 17.228-24.881 40.446-24.881 65.377v132.601c0 6.075 4.925 11 11 11h371.354c6.075 0 11-4.925 11-11v-132.601c.001-24.93-8.835-48.149-24.88-65.377zm-110.937-24.45 33.713 14.726-33.377 35.735-40.459-26.706zm-51.08 91.838 17.946 95.01-26.272 21.589-29.118-21.906 17.886-94.692h19.558zm-.372-22h-18.818l-9.07-21.21 18.481-12.199 18.434 12.168zm-70.266-69.838 40.124 23.755-40.459 26.706-33.377-35.736zm-113.818 89.827c0-36.066 22.903-64.213 54.927-69.831l48.821 52.273c2.146 2.298 5.081 3.491 8.043 3.491 2.093 0 4.201-.596 6.055-1.819l19.689-12.997 7.5 17.54c-.023.103-.044.207-.064.311l-20.848 110.371c-.777 4.115.85 8.314 4.196 10.832l15.192 11.43h-143.511zm349.354 121.601h-142.212l14.262-11.72c3.104-2.552 4.571-6.593 3.825-10.541l-20.848-110.371c-.02-.106-.042-.212-.065-.317l7.463-17.561 19.73 13.023c1.854 1.224 3.961 1.819 6.055 1.819 2.963 0 5.897-1.194 8.044-3.491l48.821-52.273c32.024 5.617 54.926 33.765 54.926 69.831v121.601z"/></g></g></g><g/><g/><g/><g/><g/><g/><g/><g/><g/><g/><g/><g/><g/><g/><g/></svg>