<svg id="Layer_1" enable-background="new 0 0 512 512" viewBox="0 0 512 512" xmlns="http://www.w3.org/2000/svg" fill="#052438"><g><g><g><g><g><path d="m413.155 74.838c-2.815 0-5.632-1.074-7.779-3.223-4.295-4.297-4.294-11.262.003-15.557l9.242-9.239c4.296-4.295 11.262-4.293 15.556.003 4.295 4.297 4.294 11.262-.003 15.557l-9.242 9.239c-2.148 2.147-4.962 3.22-7.777 3.22z" fill="#0496FF"/></g></g><g><g><path d="m296.083 35.042c-.007 0-.014 0-.021 0-6.075-.011-10.991-4.945-10.979-11.021l.024-13.042c.012-6.068 4.935-10.979 11.001-10.979h.021c6.075.011 10.991 4.945 10.979 11.021l-.024 13.042c-.012 6.068-4.935 10.979-11.001 10.979z" fill="#0496FF"/></g></g><g><g><path d="m452.966 191.87c-6.066 0-10.989-4.912-11-10.98-.011-6.075 4.904-11.009 10.979-11.02l13.046-.024h.021c6.066 0 10.989 4.912 11 10.98.011 6.075-4.904 11.009-10.979 11.02l-13.046.024c-.007 0-.015 0-.021 0z" fill="#0496FF"/></g></g></g></g><g><path d="m259.825 158.202c-34.485 0-62.541 28.047-62.541 62.522s28.056 62.522 62.541 62.522 62.541-28.047 62.541-62.522-28.055-62.522-62.541-62.522zm0 103.045c-22.354 0-40.541-18.178-40.541-40.522s18.187-40.522 40.541-40.522 40.541 18.178 40.541 40.522-18.186 40.522-40.541 40.522z"/><path d="m378.746 95.99c-34.999-35.443-81.686-55.34-131.464-56.025-103.317-1.419-189.051 81.406-191.044 184.64-.251 13.03.832 26.049 3.219 38.747l-22.8 63.47c-5.083 14.153 1.81 29.771 15.692 35.557l23.631 9.847v19.105c0 14.636 5.805 28.292 16.345 38.45 10.545 10.163 24.421 15.454 39.049 14.922l46.598-1.721v58.018c0 6.075 4.925 11 11 11h143.763c6.075 0 11-4.925 11-11v-112.431c25.87-16.022 47.617-38.174 63.149-64.394 17.133-28.921 26.188-62.067 26.188-95.855.001-49.856-19.292-96.852-54.326-132.33zm-51.478 276.787c-3.422 1.96-5.532 5.602-5.532 9.544v107.679h-121.764v-58.432c0-2.988-1.215-5.847-3.367-7.92-2.151-2.074-5.059-3.188-8.039-3.072l-58.003 2.142c-8.615.316-16.768-2.799-22.971-8.777-6.198-5.974-9.612-14.003-9.612-22.609v-26.438c0-4.44-2.67-8.446-6.769-10.154l-30.399-12.668c-3.051-1.271-4.566-4.703-3.45-7.812l23.827-66.33c.684-1.901.83-3.955.423-5.934-2.482-12.073-3.618-24.51-3.378-36.967 1.745-90.404 76.175-163.083 166.429-163.083.767 0 1.547.005 2.316.016 90.481 1.245 164.094 75.873 164.094 166.357 0 59.49-32.112 114.843-83.805 144.458z"/><path d="m259.825 108.865c-61.699 0-111.894 50.18-111.894 111.859s50.195 111.859 111.894 111.859 111.895-50.18 111.895-111.859-50.195-111.859-111.895-111.859zm0 201.718c-49.568 0-89.894-40.311-89.894-89.859s40.326-89.859 89.894-89.859 89.895 40.311 89.895 89.859-40.326 89.859-89.895 89.859z"/></g><g><path d="m259.822 231.72c-4.796 0-9.117-3.22-10.517-7.801-1.401-4.583.438-9.682 4.417-12.339 3.575-2.387 8.312-2.433 11.953-.162 3.921 2.446 5.927 7.303 4.86 11.805-1.164 4.918-5.654 8.497-10.713 8.497z" fill="#0496FF"/></g></g><g/><g/><g/><g/><g/><g/><g/><g/><g/><g/><g/><g/><g/><g/><g/></svg>