<svg id="Layer_1" enable-background="new 0 0 512 512" viewBox="0 0 512 512" xmlns="http://www.w3.org/2000/svg" fill="#E6ECF2"><g><g><g><g><g><path d="m315.975 354.294c-1.897 0-3.808-.49-5.534-1.496l-1.021-.595c-4.842-2.822-6.789-8.833-4.521-13.958 2.269-5.124 8.026-7.725 13.372-6.036.38.12.76.238 1.141.354 3.68 1.128 6.503 4.097 7.444 7.829.94 3.732-.138 7.685-2.843 10.421l-.21.212c-2.124 2.15-4.961 3.269-7.828 3.269z"/></g></g></g></g><g><g><g><g><g><path d="m256 58.17c-6.075 0-11-4.925-11-11v-18.365c0-6.075 4.925-11 11-11s11 4.925 11 11v18.365c0 6.075-4.925 11-11 11z" fill="#0496FF"/></g></g><g><g><path d="m100.102 104.943c-2.822 0-5.642-1.079-7.792-3.235l-12.941-12.985c-4.289-4.303-4.276-11.268.027-15.556s11.268-4.276 15.556.027l12.941 12.985c4.289 4.303 4.276 11.268-.027 15.556-2.146 2.139-4.956 3.208-7.764 3.208z" fill="#0496FF"/></g></g><g><g><path d="m411.898 104.943c-2.809 0-5.618-1.069-7.765-3.208-4.303-4.289-4.315-11.253-.027-15.556l12.941-12.985c4.289-4.303 11.254-4.315 15.556-.027 4.303 4.289 4.315 11.253.027 15.556l-12.941 12.985c-2.148 2.156-4.969 3.235-7.791 3.235z" fill="#0496FF"/></g></g></g><g><g><g><path d="m256 494.195c-6.075 0-11-4.925-11-11v-18.365c0-6.075 4.925-11 11-11s11 4.925 11 11v18.365c0 6.075-4.925 11-11 11z" fill="#0496FF"/></g></g><g><g><path d="m424.839 442.042c-2.822 0-5.642-1.079-7.792-3.235l-12.941-12.985c-4.289-4.303-4.276-11.268.027-15.556s11.268-4.277 15.556.027l12.941 12.985c4.289 4.303 4.276 11.268-.027 15.556-2.145 2.139-4.955 3.208-7.764 3.208z" fill="#0496FF"/></g></g><g><g><path d="m87.161 442.042c-2.809 0-5.618-1.069-7.765-3.208-4.303-4.289-4.315-11.253-.027-15.556l12.941-12.985c4.289-4.303 11.254-4.315 15.556-.027 4.303 4.289 4.315 11.253.027 15.556l-12.941 12.985c-2.149 2.156-4.97 3.235-7.791 3.235z" fill="#0496FF"/></g></g></g></g><g><path d="m256 211.765c-24.328 0-44.12 19.844-44.12 44.235s19.792 44.235 44.12 44.235 44.12-19.844 44.12-44.235-19.792-44.235-44.12-44.235zm0 66.47c-12.197 0-22.12-9.975-22.12-22.235s9.923-22.235 22.12-22.235 22.12 9.975 22.12 22.235-9.923 22.235-22.12 22.235z"/><path d="m362.403 226.493-6.183-1.675c-1.923-6.305-4.429-12.407-7.493-18.244l3.254-5.697c2.45-4.289 1.74-9.686-1.735-13.196l-26.451-26.714c-3.528-3.563-9.021-4.291-13.355-1.764l-5.509 3.21c-5.737-3.061-11.73-5.569-17.923-7.499l-1.674-6.3c-1.281-4.82-5.644-8.176-10.631-8.176h-37.406c-4.988 0-9.351 3.356-10.631 8.176l-1.673 6.3c-6.193 1.929-12.187 4.437-17.923 7.498l-5.509-3.21c-4.333-2.525-9.827-1.799-13.355 1.765l-26.45 26.714c-3.475 3.51-4.185 8.906-1.735 13.195l3.254 5.697c-3.064 5.837-5.57 11.939-7.493 18.244l-6.183 1.675c-4.794 1.299-8.124 5.65-8.124 10.617v37.78c0 4.967 3.329 9.318 8.124 10.617l6.183 1.675c1.923 6.305 4.429 12.407 7.493 18.244l-3.254 5.697c-2.45 4.289-1.74 9.686 1.735 13.195l26.45 26.714c3.528 3.564 9.021 4.291 13.355 1.765l5.509-3.21c5.736 3.061 11.73 5.569 17.923 7.498l1.673 6.3c1.28 4.82 5.644 8.176 10.631 8.176h37.406c4.987 0 9.351-3.355 10.631-8.176l1.674-6.3c6.192-1.93 12.186-4.438 17.923-7.499l5.509 3.21c4.334 2.526 9.826 1.799 13.355-1.764l26.451-26.714c3.476-3.51 4.185-8.907 1.735-13.196l-3.254-5.697c3.064-5.837 5.57-11.939 7.493-18.244l6.183-1.675c4.794-1.299 8.123-5.65 8.123-10.617v-37.78c0-4.965-3.329-9.316-8.123-10.615zm-13.877 39.981-4.145 1.123c-3.892 1.055-6.895 4.154-7.826 8.077-2.018 8.503-5.342 16.604-9.88 24.075-2.076 3.418-2.133 7.693-.15 11.166l2.207 3.863-14.576 14.722-3.648-2.126c-3.515-2.049-7.874-1.989-11.331.153-7.381 4.572-15.379 7.92-23.771 9.953-3.92.949-7.007 3.968-8.042 7.867l-1.12 4.215h-20.487l-1.12-4.214c-1.036-3.898-4.122-6.918-8.042-7.867-8.394-2.033-16.392-5.381-23.771-9.953-3.459-2.142-7.816-2.202-11.332-.153l-3.648 2.126-14.576-14.722 2.207-3.863c1.984-3.473 1.927-7.748-.149-11.166-4.537-7.471-7.861-15.571-9.88-24.076-.931-3.923-3.935-7.022-7.826-8.077l-4.145-1.123v-20.947l4.145-1.123c3.892-1.054 6.895-4.153 7.826-8.077 2.019-8.505 5.343-16.605 9.88-24.076 2.076-3.418 2.133-7.693.149-11.166l-2.207-3.863 14.576-14.722 3.648 2.126c3.515 2.049 7.873 1.989 11.332-.153 7.379-4.572 15.377-7.92 23.771-9.953 3.921-.949 7.007-3.969 8.042-7.867l1.12-4.214h20.487l1.12 4.215c1.036 3.898 4.122 6.917 8.042 7.867 8.393 2.033 16.391 5.381 23.771 9.953 3.458 2.142 7.817 2.201 11.331.153l3.648-2.126 14.576 14.722-2.207 3.863c-1.983 3.473-1.926 7.748.15 11.166 4.538 7.472 7.862 15.572 9.88 24.075.931 3.923 3.934 7.022 7.826 8.077l4.145 1.123z"/><path d="m510.355 250.214c-1.088-1.76-27.164-43.588-71.247-85.983-26.043-25.045-52.979-45.04-80.06-59.426-34.332-18.238-69.002-27.486-103.048-27.486s-68.716 9.248-103.048 27.486c-27.081 14.386-54.017 34.38-80.06 59.426-44.083 42.395-70.158 84.223-71.247 85.983-2.193 3.546-2.193 8.026 0 11.572 1.088 1.76 27.164 43.588 71.247 85.983 26.043 25.045 52.979 45.04 80.06 59.426 34.332 18.238 69.002 27.486 103.048 27.486s68.716-9.248 103.048-27.486c27.081-14.386 54.017-34.38 80.06-59.426 44.083-42.395 70.158-84.223 71.247-85.983 2.193-3.546 2.193-8.026 0-11.572zm-254.91 161.926c-86.114 0-156.173-70.044-156.173-156.14s70.06-156.14 156.173-156.14 156.173 70.044 156.173 156.14-70.059 156.14-156.173 156.14zm-231.298-156.144c8.563-12.703 31.23-44.399 63.994-75.908 3.708-3.566 7.62-7.197 11.727-10.849-14.388 25.688-22.596 55.284-22.596 86.761s8.208 61.074 22.596 86.762c-3.974-3.534-7.765-7.049-11.363-10.501-32.881-31.55-55.746-63.502-64.358-76.265zm399.711 75.916c-4.372 4.205-9.03 8.502-13.955 12.816 15.08-26.14 23.714-56.445 23.714-88.728 0-32.284-8.634-62.589-23.714-88.729 4.79 4.196 9.327 8.375 13.591 12.467 32.882 31.55 55.747 63.502 64.358 76.266-8.562 12.703-31.23 44.399-63.994 75.908z"/></g></g></g><g/><g/><g/><g/><g/><g/><g/><g/><g/><g/><g/><g/><g/><g/><g/></svg>