<svg id="Layer_1" enable-background="new 0 0 511.992 511.992" viewBox="0 0 511.992 511.992" xmlns="http://www.w3.org/2000/svg" fill="#E6ECF2"><g><g><g><g><g><path d="m170.115 50.064c-6.075 0-11-4.925-11-11v-10.435c0-6.075 4.925-11 11-11s11 4.925 11 11v10.435c0 6.075-4.924 11-11 11z" fill="#0496FF"/></g></g><g><g><g><path d="m52.391 107.757c-2.081 0-4.185-.589-6.052-1.822l-9.14-6.036c-5.069-3.348-6.465-10.171-3.117-15.24s10.171-6.467 15.241-3.117l9.14 6.036c5.069 3.348 6.465 10.171 3.117 15.24-2.115 3.203-5.618 4.939-9.189 4.939z" fill="#0496FF"/></g></g><g><g><path d="m287.839 107.757c-3.571 0-7.074-1.736-9.189-4.939-3.348-5.069-1.952-11.893 3.117-15.24l9.14-6.036c5.071-3.347 11.894-1.952 15.241 3.117s1.952 11.893-3.117 15.24l-9.14 6.036c-1.866 1.232-3.97 1.822-6.052 1.822z" fill="#0496FF"/></g></g></g><g><g><path d="m323.448 211.111h-10.429c-6.075 0-11-4.925-11-11s4.925-11 11-11h10.429c6.075 0 11 4.925 11 11s-4.924 11-11 11z" fill="#0496FF"/></g><g><path d="m27.212 211.111h-10.43c-6.075 0-11-4.925-11-11s4.925-11 11-11h10.429c6.075 0 11 4.925 11 11s-4.924 11-10.999 11z" fill="#0496FF"/></g></g><g><path d="m433.252 441.594c-4.667 0-8.91-3.06-10.417-7.466-1.505-4.401.027-9.438 3.718-12.264 3.704-2.836 8.917-2.992 12.799-.419 3.777 2.504 5.655 7.282 4.597 11.686-1.174 4.885-5.655 8.463-10.697 8.463z" fill="#0496FF"/></g></g><g><path d="m510.849 376.427c-1.296-2.617-3.581-4.611-6.349-5.543l-87.941-29.594c-2.525-.85-5.144-.73-7.452.157l-54.444-40.799c-26.826-20.103-63.332-20.738-90.842-1.58-6.629 4.617-14.341 7.784-22.302 9.159l-79.962 13.807c-3.933.679-7.587 2.026-10.866 3.904-.006-.002-.012-.005-.019-.007l-104.686-39.47c-14.914-5.623-31.987.031-40.601 13.445-9.727 15.147-5.943 35.306 8.615 45.893l118.443 86.132c19.946 14.505 43.453 22.037 67.402 22.037 10.425 0 20.935-1.428 31.27-4.328l28.832-8.093c11.675-3.277 23.697-4.236 35.739-2.85l72.171 12.33c-.654 2.545-.378 5.251.797 7.621 1.296 2.617 3.581 4.611 6.349 5.543l87.94 29.594c1.164.392 2.346.577 3.51.577 4.586 0 8.866-2.892 10.418-7.477l34.539-102.05c.938-2.765.735-5.791-.561-8.408zm-212.306 40.455c-15.004-1.771-29.989-.599-44.538 3.483l-28.833 8.093c-27.557 7.733-56.638 2.515-79.788-14.32l-118.443-86.132c-5.142-3.739-6.479-10.861-3.042-16.213 3.04-4.733 9.065-6.732 14.327-4.746l97.563 36.784c-1.837 5.198-2.409 10.92-1.407 16.729 2.951 17.105 18.223 28.95 35.518 27.565l111.388-8.961c9.081-.73 18.077 1.9 25.334 7.408l7.404 5.619c1.988 1.509 4.324 2.238 6.642 2.238 3.323 0 6.607-1.5 8.771-4.352 3.673-4.839 2.727-11.739-2.112-15.412l-7.404-5.619c-11.572-8.782-25.919-12.971-40.398-11.812l-111.387 8.961c-5.879.477-11.07-3.557-12.074-9.376-1.063-6.164 3.082-12.043 9.24-13.105l79.963-13.807c11.113-1.92 21.879-6.341 31.132-12.786 19.707-13.723 45.858-13.269 65.075 1.133l56.869 42.616-23.371 69.053-75.863-12.96c-.19-.032-.378-.059-.566-.081zm161.011 52.55-67.089-22.577 27.485-81.211 67.09 22.577z"/><path d="m66.346 186.84 28.042 24.679-8.259 36.551c-3.1 13.719 2.037 27.354 13.406 35.584 11.295 8.177 25.744 8.807 37.705 1.639l31.958-19.146 31.958 19.146c5.54 3.319 11.61 4.967 17.656 4.966 7.009 0 13.984-2.215 20.048-6.604 11.369-8.23 16.506-21.865 13.406-35.583l-8.259-36.552 28.042-24.679c10.518-9.258 14.349-23.298 9.998-36.643-4.334-13.291-15.648-22.336-29.527-23.606l-37.065-3.393-14.675-34.414c-5.5-12.897-17.602-20.909-31.582-20.909s-26.081 8.013-31.581 20.91l-14.675 34.413-37.064 3.393c-13.879 1.271-25.193 10.315-29.527 23.606-4.354 13.344-.523 27.384 9.995 36.642zm10.919-29.822c.595-1.824 3.12-7.832 10.616-8.519l43.604-3.991c4.028-.368 7.529-2.918 9.116-6.64l17.25-40.453c2.983-6.996 9.438-7.54 11.344-7.54 1.907 0 8.361.544 11.345 7.539l17.25 40.454c1.587 3.721 5.088 6.271 9.116 6.64l43.605 3.991c7.497.687 10.021 6.694 10.616 8.519.602 1.846 2.119 8.259-3.616 13.307l-32.943 28.992c-3.021 2.659-4.35 6.756-3.462 10.683l9.698 42.921c1.694 7.498-3.282 11.779-4.848 12.913-1.537 1.113-7.056 4.446-13.497.588l-37.611-22.534c-3.48-2.086-7.826-2.086-11.307 0l-37.611 22.534c-6.44 3.857-11.959.524-13.497-.588-1.565-1.134-6.542-5.415-4.848-12.914l9.698-42.92c.887-3.927-.441-8.023-3.462-10.683l-32.943-28.992c-5.733-5.048-4.215-11.461-3.613-13.307z"/></g></g></g><g/><g/><g/><g/><g/><g/><g/><g/><g/><g/><g/><g/><g/><g/><g/></svg>