<svg id="Layer_1" enable-background="new 0 0 512 512" viewBox="0 0 512 512" xmlns="http://www.w3.org/2000/svg" fill="#052438"><g><g><g><g><g><path d="m391.24 228.587c-6.075 0-11-4.925-11-11v-6.928c0-6.075 4.925-11 11-11s11 4.925 11 11v6.928c0 6.075-4.924 11-11 11z" fill="#0496FF"/></g><g><path d="m391.24 281.488c-6.075 0-11-4.925-11-11v-6.928c0-6.075 4.925-11 11-11s11 4.925 11 11v6.928c0 6.075-4.924 11-11 11z" fill="#0496FF"/></g></g></g><g><g><g><path d="m421.161 251.573h-6.93c-6.075 0-11-4.925-11-11s4.925-11 11-11h6.93c6.075 0 11 4.925 11 11s-4.925 11-11 11z" fill="#0496FF"/></g><g><path d="m368.249 251.573h-6.929c-6.075 0-11-4.925-11-11s4.925-11 11-11h6.929c6.075 0 11 4.925 11 11s-4.925 11-11 11z" fill="#0496FF"/></g></g></g></g><g><g><g><g><path d="m130.719 183.213c-6.075 0-11-4.925-11-11v-6.928c0-6.075 4.925-11 11-11s11 4.925 11 11v6.928c0 6.075-4.925 11-11 11z" fill="#0496FF"/></g><g><path d="m130.719 236.113c-6.075 0-11-4.925-11-11v-6.928c0-6.075 4.925-11 11-11s11 4.925 11 11v6.928c0 6.076-4.925 11-11 11z" fill="#0496FF"/></g></g></g><g><g><g><path d="m160.639 206.199h-6.929c-6.075 0-11-4.925-11-11s4.925-11 11-11h6.929c6.075 0 11 4.925 11 11s-4.925 11-11 11z" fill="#0496FF"/></g><g><path d="m107.728 206.199h-6.929c-6.075 0-11-4.925-11-11s4.925-11 11-11h6.929c6.075 0 11 4.925 11 11s-4.925 11-11 11z" fill="#0496FF"/></g></g></g></g><path d="m509.868 466.876-109.759-149.566c-2.072-2.824-5.365-4.492-8.868-4.492s-6.796 1.668-8.868 4.492l-19.894 27.109-92.832-149.797v-12.708h81.815c6.075 0 11-4.925 11-11v-78.513c0-6.075-4.925-11-11-11h-81.815v-4.536c0-6.075-4.925-11-11-11s-11 4.925-11 11v117.757l-84.552 136.435-23.398-33.03c-2.062-2.911-5.409-4.642-8.976-4.642s-6.914 1.73-8.976 4.642l-119.721 168.999c-2.377 3.356-2.684 7.758-.795 11.411s5.658 5.948 9.771 5.948h490c4.146 0 7.939-2.331 9.812-6.029 1.875-3.7 1.509-8.138-.944-11.48zm-251.222-248.241 52.648 84.954-15.374 8.419-31.996-17.522c-3.29-1.802-7.275-1.804-10.567 0l-31.99 17.521-15.37-8.418zm81.815-115.234v56.514h-70.815v-56.514zm-308.188 358.983 98.446-138.97 98.446 138.97zm223.852 0-79.227-111.84 17.493-28.227 21.692 11.88c3.292 1.803 7.276 1.803 10.568 0l31.99-17.521 31.996 17.522c1.646.901 3.464 1.352 5.283 1.352 1.818 0 3.638-.451 5.283-1.352l21.696-11.881 86.803 140.067zm179.459 0-60.612-97.805 16.269-22.169 88.043 119.974z"/><g><path d="m168.285 118.112h-75.758c-17.443 0-31.635-14.189-31.635-31.631 0-13.34 8.459-25.07 20.534-29.619 8.109-17.722 25.761-29.246 45.683-29.246 18.506 0 35.375 10.23 44.094 26.114 16.428 1.478 29.344 15.322 29.344 32.125-.001 17.787-14.473 32.257-32.262 32.257zm-41.176-68.496c-12.401 0-23.236 7.934-26.963 19.743-1.277 4.047-4.77 6.999-8.973 7.584-4.721.657-8.28 4.757-8.28 9.538 0 5.311 4.322 9.631 9.635 9.631h75.758c5.658 0 10.261-4.601 10.261-10.257 0-5.655-4.603-10.256-10.261-10.256h-4.212c-4.641 0-8.783-2.913-10.352-7.28-4.021-11.187-14.716-18.703-26.613-18.703z" fill="#0496FF"/></g></g><g/><g/><g/><g/><g/><g/><g/><g/><g/><g/><g/><g/><g/><g/><g/></svg>