<svg id="Layer_1" enable-background="new 0 0 512 512" viewBox="0 0 512 512" xmlns="http://www.w3.org/2000/svg" fill="#052438"><g><g><g><g><g><g><g><path d="m445.749 393.345c-6.075 0-11-4.925-11-11v-7.81c0-6.075 4.925-11 11-11s11 4.925 11 11v7.81c0 6.075-4.925 11-11 11z" fill="#0496FF"/></g><g><path d="m445.749 452.983c-6.075 0-11-4.925-11-11v-7.81c0-6.075 4.925-11 11-11s11 4.925 11 11v7.81c0 6.075-4.925 11-11 11z" fill="#0496FF"/></g></g></g><g><g><g><path d="m479.654 419.259h-7.852c-6.075 0-11-4.925-11-11s4.925-11 11-11h7.852c6.075 0 11 4.925 11 11s-4.925 11-11 11z" fill="#0496FF"/></g><g><path d="m419.694 419.259h-7.852c-6.075 0-11-4.925-11-11s4.925-11 11-11h7.852c6.075 0 11 4.925 11 11s-4.924 11-11 11z" fill="#0496FF"/></g></g></g></g><g><g><g><g><path d="m66.251 393.345c-6.075 0-11-4.925-11-11v-7.81c0-6.075 4.925-11 11-11s11 4.925 11 11v7.81c0 6.075-4.924 11-11 11z" fill="#0496FF"/></g><g><path d="m66.251 452.983c-6.075 0-11-4.925-11-11v-7.81c0-6.075 4.925-11 11-11s11 4.925 11 11v7.81c0 6.075-4.924 11-11 11z" fill="#0496FF"/></g></g></g><g><g><g><path d="m100.158 419.259h-7.852c-6.075 0-11-4.925-11-11s4.925-11 11-11h7.852c6.075 0 11 4.925 11 11s-4.925 11-11 11z" fill="#0496FF"/></g><g><path d="m40.198 419.259h-7.852c-6.075 0-11-4.925-11-11s4.925-11 11-11h7.852c6.075 0 11 4.925 11 11s-4.925 11-11 11z" fill="#0496FF"/></g></g></g></g></g><g><path d="m415.113 177.937c-23.31-19.437-47.097-34.953-70.7-46.117-29.936-14.16-59.683-21.339-88.413-21.339s-58.477 7.179-88.413 21.338c-23.603 11.164-47.39 26.68-70.7 46.117-39.472 32.914-63.764 65.43-64.779 66.798-2.887 3.892-2.887 9.214 0 13.106 2.709 3.653 67.365 89.794 157.834 122.211.226.091.572.239.923.388 1.032.436 1.595.672 2.123.856.048.017.096.032.144.048v9.949c-14.546 4.822-25.069 18.554-25.069 34.701 0 19.504 15.359 35.487 34.618 36.491 1.97 27.634 25.078 49.514 53.2 49.514h.236c28.122 0 51.231-21.88 53.2-49.514 19.259-1.003 34.618-16.987 34.618-36.496 0-16.143-10.523-29.874-25.069-34.696v-9.304l.045-.015c91.985-31.573 158.224-120.396 160.999-124.162 2.867-3.891 2.858-9.197-.021-13.079-1.012-1.365-25.305-33.882-64.776-66.795zm-111.552 185.338c-4.059 1.727-6.693 5.711-6.693 10.122v16.052h-81.735v-16.052c0-4.411-2.634-8.395-6.693-10.122-44.594-18.978-73.409-62.004-73.409-109.617 0-66.312 54.267-120.262 120.969-120.262s120.969 53.949 120.969 120.262c0 47.613-28.814 90.64-73.408 109.617zm-248.585-111.989c11.513-14.047 41.353-48.013 81.789-76.046-14.993 22.497-23.733 49.461-23.733 78.418 0 24.926 6.491 49.01 18.855 70.251-37.929-27.314-65.863-59.148-76.911-72.623zm201.142 238.714h-.236c-15.965 0-29.18-12.005-31.097-27.464h62.43c-1.917 15.459-15.132 27.464-31.097 27.464zm51.278-49.464h-102.792c-8.018 0-14.541-6.523-14.541-14.546 0-8.018 6.523-14.541 14.541-14.541h102.791c8.018 0 14.541 6.523 14.541 14.546.001 8.018-6.522 14.541-14.54 14.541zm72.124-115.616c12.75-21.487 19.449-45.94 19.449-71.262 0-28.987-8.758-55.976-23.779-78.487 9.315 6.427 17.849 13.02 25.449 19.341 27.399 22.788 47.462 45.851 56.408 56.791-11.081 13.615-39.282 45.995-77.527 73.617z"/><path d="m491.959 179.311c-1.077-1.202-26.845-29.762-68.654-58.629-55.776-38.51-113.629-58.865-167.305-58.865s-111.529 20.355-167.305 58.865c-41.81 28.867-67.578 57.427-68.654 58.629-4.054 4.525-3.671 11.479.854 15.533 4.526 4.053 11.479 3.67 15.533-.854.987-1.101 100.077-110.173 219.572-110.173 61.96 0 118.14 29.725 154.358 54.661 39.797 27.4 64.969 55.239 65.214 55.513 2.173 2.425 5.178 3.661 8.197 3.66 2.613 0 5.236-.926 7.336-2.807 4.525-4.053 4.908-11.008.854-15.533z"/><path d="m315.412 237.784c-3.192-1.814-7.08-1.917-10.363-.271-3.676 1.842-7.648 2.775-11.806 2.775-14.471 0-26.244-11.683-26.244-26.044 0-4.11.934-8.037 2.775-11.673 1.664-3.285 1.574-7.184-.24-10.389-1.814-3.204-5.11-5.289-8.783-5.553-1.58-.114-3.179-.171-4.752-.171-35.908 0-65.121 29.083-65.121 64.831s29.213 64.83 65.121 64.83 65.121-29.083 65.121-64.83c0-1.567-.058-3.162-.173-4.74-.266-3.663-2.343-6.951-5.535-8.765zm-59.412 56.334c-23.777 0-43.121-19.213-43.121-42.83 0-19.917 13.756-36.702 32.328-41.472-.138 1.471-.207 2.95-.207 4.428 0 26.492 21.642 48.044 48.244 48.044 1.51 0 3.007-.068 4.489-.203-4.831 18.406-21.711 32.033-41.733 32.033z"/></g><g><g><g><path d="m256 41.107c-6.075 0-11-4.925-11-11v-19.107c0-6.075 4.925-11 11-11s11 4.925 11 11v19.107c0 6.075-4.925 11-11 11z" fill="#0496FF"/></g></g><g><g><path d="m363.654 60.184c-1.394 0-2.811-.267-4.181-.83-5.619-2.312-8.299-8.74-5.988-14.358l7.275-17.684c2.312-5.618 8.738-8.3 14.358-5.988 5.619 2.312 8.299 8.74 5.988 14.358l-7.275 17.684c-1.748 4.249-5.851 6.818-10.177 6.818z" fill="#0496FF"/></g></g></g><g><g><g><path d="m148.346 60.184c-4.327 0-8.429-2.569-10.177-6.818l-7.275-17.684c-2.312-5.618.369-12.046 5.988-14.358 5.619-2.31 12.046.37 14.358 5.988l7.275 17.684c2.312 5.618-.369 12.046-5.988 14.358-1.37.563-2.787.83-4.181.83z" fill="#0496FF"/></g></g></g></g></g><g/><g/><g/><g/><g/><g/><g/><g/><g/><g/><g/><g/><g/><g/><g/></svg>