<svg id="Layer_1" enable-background="new 0 0 512 512" viewBox="0 0 512 512" xmlns="http://www.w3.org/2000/svg" fill="#E6ECF2"><g><g><path d="m68.28 364.544h-10.514v-10.552c0-6.075-4.925-11-11-11s-11 4.925-11 11v10.552h-10.516c-6.075 0-11 4.925-11 11s4.925 11 11 11h10.516v10.551c0 6.075 4.925 11 11 11s11-4.925 11-11v-10.551h10.514c6.075 0 11-4.925 11-11s-4.925-11-11-11z" fill="#0496FF"/><g><g><g><g><path d="m138.744 46.405c-6.075 0-11-4.925-11-11v-7.602c0-6.075 4.925-11 11-11s11 4.925 11 11v7.602c0 6.075-4.925 11-11 11z" fill="#0496FF"/></g><g><path d="m138.744 102.458c-6.075 0-11-4.925-11-11v-7.601c0-6.075 4.925-11 11-11s11 4.925 11 11v7.601c0 6.075-4.925 11-11 11z" fill="#0496FF"/></g></g></g><g><g><g><path d="m171.512 70.631h-7.589c-6.075 0-11-4.925-11-11s4.925-11 11-11h7.589c6.075 0 11 4.925 11 11s-4.925 11-11 11z" fill="#0496FF"/></g><g><path d="m113.565 70.631h-7.588c-6.075 0-11-4.925-11-11s4.925-11 11-11h7.588c6.075 0 11 4.925 11 11s-4.924 11-11 11z" fill="#0496FF"/></g></g></g></g><g><path d="m459.113 89.524c-34.077-34.58-79.537-53.993-128.006-54.661-71.361-.979-136.561 39.609-167.718 103.865l-148.92-49.481c-3.355-1.115-7.039-.549-9.905 1.519-2.866 2.067-4.564 5.386-4.564 8.92v211.597c0 3.534 1.698 6.853 4.563 8.92 1.898 1.37 4.155 2.08 6.438 2.08 1.164 0 2.335-.185 3.468-.561l123.751-41.118-12.136 33.854c-4.991 13.922 1.781 29.288 15.419 34.982l22.787 9.515v18.424c0 14.351 5.688 27.735 16.014 37.687 10.307 9.932 23.868 15.113 38.148 14.583l44.974-1.664v56.212c0 6.075 4.925 11 11 11h139.737c6.075 0 11-4.925 11-11v-109.355c25.126-15.625 46.25-37.203 61.344-62.734 16.678-28.211 25.493-60.543 25.493-93.5 0-48.632-18.782-94.475-52.887-129.084zm-437.113 25.408 241.506 80.243v20.619l-241.506 80.243zm386.687 244.131c-3.417 1.961-5.523 5.601-5.523 9.54v104.593h-117.738v-56.626c0-2.988-1.216-5.847-3.367-7.92-2.151-2.074-5.053-3.172-8.039-3.072l-56.38 2.086c-8.26.3-16.105-2.69-22.069-8.438-5.984-5.767-9.28-13.525-9.28-21.846v-25.751c0-4.438-2.667-8.441-6.762-10.15l-29.549-12.338c-2.823-1.179-4.223-4.367-3.187-7.258l17.957-50.092 113.224-37.62c4.497-1.494 7.531-5.7 7.531-10.439v-36.492c0-4.739-3.034-8.945-7.531-10.439l-93.503-31.067c27.922-55.081 84.562-89.719 146.333-88.871 87.781 1.209 159.196 73.768 159.196 161.744 0 57.844-31.157 111.664-81.313 140.456z"/><path d="m452.706 174.016c-3.139-9.646-11.358-16.21-21.451-17.131l-19.496-1.778-7.717-18.033c-3.995-9.335-12.779-15.134-22.926-15.134-10.146 0-18.93 5.799-22.925 15.134l-7.717 18.033-19.496 1.778c-10.093.92-18.312 7.484-21.45 17.13-3.142 9.657-.353 19.813 7.278 26.506l14.742 12.93-4.341 19.146c-2.247 9.91 1.462 19.771 9.682 25.737 4.415 3.204 9.495 4.82 14.604 4.82 4.385 0 8.79-1.191 12.811-3.592l16.813-10.039 16.812 10.039c8.703 5.197 19.209 4.727 27.413-1.228 8.22-5.965 11.931-15.826 9.684-25.737l-4.342-19.146 14.743-12.93c7.632-6.692 10.421-16.849 7.279-26.505zm-21.784 9.965-19.666 17.247c-3.033 2.66-4.367 6.768-3.475 10.703l5.79 25.531c.359 1.584-.427 2.542-1.149 3.066-.711.517-1.847.961-3.214.145l-22.451-13.405c-1.737-1.037-3.688-1.556-5.64-1.556s-3.902.519-5.639 1.555l-22.452 13.405c-1.368.815-2.504.373-3.215-.144-.722-.524-1.508-1.481-1.148-3.066l5.789-25.531c.893-3.935-.441-8.042-3.475-10.703l-19.665-17.247c-1.216-1.067-1.141-2.307-.863-3.16.274-.845.936-1.882 2.527-2.027l26.029-2.374c4.024-.367 7.524-2.912 9.114-6.627l10.298-24.064c.633-1.479 1.816-1.79 2.698-1.79.883 0 2.066.311 2.699 1.79l10.298 24.064c1.59 3.715 5.09 6.26 9.114 6.627l26.029 2.374c1.592.145 2.254 1.183 2.528 2.027.279.853.355 2.094-.861 3.16z"/></g></g></g><g/><g/><g/><g/><g/><g/><g/><g/><g/><g/><g/><g/><g/><g/><g/></svg>