<svg id="Layer_1" enable-background="new 0 0 512 512" viewBox="0 0 512 512" xmlns="http://www.w3.org/2000/svg" fill="#052438"><g><g><g><g><path d="m437.91 430.859c-4.397 0-8.48-2.737-10.16-6.8-1.775-4.293-.596-9.408 2.906-12.473 3.605-3.155 8.989-3.595 13.06-1.072 3.955 2.452 5.967 7.316 4.897 11.844-1.16 4.914-5.645 8.501-10.703 8.501z" fill="#0496FF"/></g><g><g><path d="m201.031 211.909h-179.189c-3.661 0-7.082-1.821-9.126-4.858s-2.443-6.892-1.064-10.283l36.907-90.812-36.907-90.814c-1.379-3.392-.979-7.246 1.064-10.283s5.465-4.859 9.126-4.859h188.702c6.075 0 11 4.925 11 11s-4.925 11-11 11h-172.357l32.437 79.813c1.079 2.655 1.079 5.628 0 8.283l-32.437 79.812h162.845c6.075 0 11 4.925 11 11s-4.925 11.001-11.001 11.001z" fill="#0496FF"/></g><path d="m490.158 289.736h-104.492c-6.075 0-11 4.925-11 11v10.7h-42.002v-18.915c0-22.702-13.288-43.653-33.853-53.376l-28.811-13.622v-214.523c0-6.075-4.925-11-11-11h-48.456c-6.075 0-11 4.925-11 11v262.004h-69.501c-10.387 0-20.537 4.274-27.849 11.726-7.222 7.361-11.093 16.997-10.9 27.132.147 7.783 2.678 15.02 6.881 21.012-10.928 6.713-18.229 18.771-18.229 32.505 0 13.731 7.303 25.791 18.229 32.504-4.203 5.992-6.733 13.228-6.881 21.011-.192 10.136 3.679 19.771 10.9 27.132 2.229 2.272 4.723 4.249 7.406 5.899-4.392 6.211-6.974 13.785-6.974 21.952 0 21.021 17.112 38.124 38.146 38.124h125.057c29.77 0 54.611-21.491 59.805-49.765h49.032v10.7c0 6.075 4.925 11 11 11h104.492c6.075 0 11-4.925 11-11v-172.2c0-6.075-4.924-11-11-11zm-268.614-267.736h26.456v251.004h-26.456zm94.088 418.235c-6.075 0-11 4.925-11 11 0 21.375-17.407 38.765-38.803 38.765h-125.056c-8.902 0-16.146-7.233-16.146-16.125 0-8.891 7.243-16.124 16.146-16.124 6.075 0 11-4.925 11-11s-4.925-11-11-11h-10.729c-4.518 0-8.944-1.871-12.146-5.134-3.051-3.11-4.687-7.125-4.607-11.308.165-8.716 7.406-15.808 16.142-15.808 6.075 0 11-4.925 11-11s-4.925-11-11-11h-11.341c-8.902 0-16.145-7.233-16.145-16.125 0-8.891 7.242-16.124 16.145-16.124h11.341c6.075 0 11-4.925 11-11s-4.925-11-11-11c-8.735 0-15.977-7.092-16.142-15.809-.079-4.182 1.557-8.197 4.608-11.307 3.201-3.263 7.628-5.134 12.145-5.134h128.956c6.075 0 11-4.925 11-11v-34.146l19.408 9.176c12.912 6.105 21.256 19.25 21.256 33.487v29.915c0 6.075 4.925 11 11 11h53.002v106.799h-59.034zm163.526 21.701h-82.492v-150.2h82.492z"/></g></g></g><g><g><g><g><path d="m338.427 165.149c-6.075 0-11-4.925-11-11v-7.799c0-6.075 4.925-11 11-11s11 4.925 11 11v7.799c0 6.076-4.925 11-11 11z" fill="#0496FF"/></g><g><path d="m338.427 224.697c-6.075 0-11-4.925-11-11v-7.799c0-6.075 4.925-11 11-11s11 4.925 11 11v7.799c0 6.075-4.925 11-11 11z" fill="#0496FF"/></g></g></g><g><g><g><path d="m372.271 191.023h-7.838c-6.075 0-11-4.925-11-11s4.925-11 11-11h7.838c6.075 0 11 4.925 11 11s-4.925 11-11 11z" fill="#0496FF"/></g><g><path d="m312.421 191.023h-7.838c-6.075 0-11-4.925-11-11s4.925-11 11-11h7.838c6.075 0 11 4.925 11 11s-4.925 11-11 11z" fill="#0496FF"/></g></g></g></g></g><g/><g/><g/><g/><g/><g/><g/><g/><g/><g/><g/><g/><g/><g/><g/></svg>