<svg id="Layer_1" enable-background="new 0 0 512 512" viewBox="0 0 512 512" xmlns="http://www.w3.org/2000/svg" fill="#052438"><g><g><g><g><g><path d="m256 38.337c-6.075 0-11-4.925-11-11v-16.337c0-6.075 4.925-11 11-11s11 4.925 11 11v16.337c0 6.076-4.925 11-11 11z" fill="#0496FF"/></g></g><g><g><path d="m117.372 91.763c-2.822 0-5.645-1.08-7.793-3.237l-11.507-11.551c-4.288-4.304-4.274-11.269.03-15.557 4.305-4.287 11.271-4.273 15.556.03l11.507 11.552c4.288 4.304 4.274 11.269-.03 15.557-2.147 2.138-4.955 3.206-7.763 3.206z" fill="#0496FF"/></g></g><g><g><path d="m394.628 91.763c-2.809 0-5.616-1.068-7.763-3.207-4.305-4.288-4.318-11.252-.03-15.557l11.507-11.552c4.286-4.304 11.252-4.317 15.556-.03 4.305 4.288 4.318 11.252.03 15.557l-11.507 11.552c-2.149 2.158-4.971 3.237-7.793 3.237z" fill="#0496FF"/></g></g><g><g><path d="m406.135 309.686c-2.822 0-5.645-1.079-7.794-3.237l-11.507-11.552c-4.287-4.304-4.273-11.269.031-15.556 4.305-4.287 11.27-4.274 15.557.031l11.507 11.552c4.287 4.304 4.273 11.269-.031 15.556-2.147 2.137-4.956 3.206-7.763 3.206z" fill="#0496FF"/></g></g><g><g><path d="m105.865 309.686c-2.808 0-5.616-1.068-7.763-3.207-4.305-4.287-4.318-11.252-.031-15.556l11.507-11.552c4.287-4.305 11.252-4.319 15.557-.031 4.305 4.287 4.318 11.252.031 15.556l-11.507 11.552c-2.149 2.158-4.971 3.238-7.794 3.238z" fill="#0496FF"/></g></g></g></g><g><path d="m413.881 431.161c9.605-9.055 15.61-21.882 15.61-36.085 0-27.366-22.29-49.629-49.688-49.629s-49.688 22.264-49.688 49.629c0 14.202 6.004 27.03 15.61 36.085-11.402 6.047-21.016 15.028-27.824 25.929-6.808-10.901-16.422-19.882-27.824-25.929 9.605-9.055 15.61-21.882 15.61-36.085 0-27.366-22.29-49.629-49.688-49.629s-49.688 22.264-49.688 49.629c0 14.202 6.004 27.03 15.61 36.085-11.402 6.047-21.015 15.028-27.824 25.929-6.808-10.901-16.422-19.882-27.824-25.929 9.606-9.055 15.61-21.883 15.61-36.085 0-27.366-22.29-49.629-49.688-49.629-27.397 0-49.688 22.264-49.688 49.629 0 14.202 6.004 27.03 15.61 36.085-23.074 12.237-38.824 36.492-38.824 64.352v5.487c0 6.075 4.925 11 11 11h371.41c6.075 0 11-4.925 11-11v-5.486c.002-27.861-15.747-52.116-38.822-64.353zm-61.766-36.084c0-15.235 12.421-27.629 27.688-27.629s27.688 12.395 27.688 27.629-12.421 27.629-27.688 27.629-27.688-12.394-27.688-27.629zm-123.803 0c0-15.235 12.421-27.629 27.688-27.629s27.688 12.395 27.688 27.629-12.421 27.629-27.688 27.629-27.688-12.394-27.688-27.629zm-123.803 0c0-15.235 12.421-27.629 27.688-27.629 15.268 0 27.688 12.395 27.688 27.629s-12.421 27.629-27.688 27.629-27.688-12.394-27.688-27.629zm-22.916 94.923c2.761-25.433 24.402-45.294 50.604-45.294s47.844 19.861 50.604 45.294zm123.803 0c2.761-25.433 24.402-45.294 50.604-45.294s47.843 19.861 50.604 45.294zm123.803 0c2.761-25.433 24.402-45.294 50.604-45.294 26.201 0 47.843 19.861 50.604 45.294z"/><path d="m126.218 244.366c41.823 38.54 86.701 58.911 129.782 58.911s87.959-20.371 129.782-58.911c31.057-28.619 49.478-56.933 50.247-58.124 2.344-3.631 2.344-8.299 0-11.931-.77-1.191-19.19-29.504-50.247-58.123-41.823-38.54-86.701-58.911-129.782-58.911s-87.959 20.371-129.782 58.911c-31.057 28.619-49.478 56.932-50.247 58.123-2.344 3.632-2.344 8.3 0 11.931.769 1.191 19.19 29.505 50.247 58.124zm129.782-164.745c55.487 0 100.629 45.154 100.629 100.656s-45.142 100.656-100.629 100.656-100.629-45.154-100.629-100.656 45.142-100.656 100.629-100.656zm157.382 100.655c-7.175 9.902-23.272 30.607-45.729 50.708 7.047-15.463 10.976-32.635 10.976-50.708s-3.929-35.245-10.976-50.708c22.459 20.103 38.556 40.81 45.729 50.708zm-268.979-50.829c-7.082 15.494-11.031 32.709-11.031 50.83 0 18.073 3.929 35.246 10.977 50.709-22.466-20.109-38.566-40.823-45.734-50.717 7.17-9.92 23.281-30.686 45.788-50.822z"/><path d="m256 244.753c35.546 0 64.464-28.924 64.464-64.477 0-10.534-2.61-20.997-7.55-30.259-1.389-2.605-3.768-4.542-6.6-5.376-2.832-.833-5.881-.494-8.461.943-1.919 1.069-4.019 1.611-6.24 1.611-7.093 0-12.863-5.773-12.863-12.869 0-1.111.14-2.21.416-3.268.746-2.857.312-5.895-1.206-8.429-1.517-2.534-3.989-4.351-6.86-5.043-4.923-1.187-10.003-1.788-15.1-1.788-35.546 0-64.464 28.924-64.464 64.477s28.918 64.478 64.464 64.478zm0-106.953c.308 0 .615.003.923.01 1.752 17.599 16.642 31.386 34.69 31.386 1.773 0 3.54-.136 5.284-.403 1.042 3.701 1.566 7.539 1.566 11.484 0 23.422-19.049 42.477-42.464 42.477s-42.464-19.055-42.464-42.477 19.05-42.477 42.465-42.477z"/></g></g><g/><g/><g/><g/><g/><g/><g/><g/><g/><g/><g/><g/><g/><g/><g/></svg>