<svg id="Layer_1" enable-background="new 0 0 512 512" viewBox="0 0 512 512" xmlns="http://www.w3.org/2000/svg" fill="#052438"><g><g><path d="m150.031 285.286-53.101-107.112-51.785 104.451c-2.698 5.443-9.597 2.455-15.039-.242-5.443-2.699-8.579-1.649-5.881-7.092l62.849-126.768c1.857-3.745 5.676-6.114 9.855-6.114 4.18 0 7.999 2.369 9.855 6.114l62.957 126.992c2.698 5.443-2.15 3.83-7.593 6.528-1.569.778-10.197 7.116-12.117 3.243z" fill="#0496FF"/></g><g><path d="m340.987 280.033c.086-1.426.453-2.859 1.127-4.22l63.101-127.29c1.856-3.745 5.675-6.114 9.855-6.114s7.999 2.369 9.855 6.114l62.866 126.804c.776 1.566 1.145 3.227 1.147 4.864.005 4.053-23.808-1.044-23.808-1.044l-50.059-100.973-50.718 102.31s-23.624 3.828-23.366-.451z" fill="#0496FF"/></g><g><path d="m457.166 85.464h-159.784c5.416-7.989 8.583-17.622 8.583-27.981 0-27.56-22.415-49.981-49.965-49.981s-49.965 22.421-49.965 49.981c0 10.359 3.167 19.992 8.583 27.981h-159.784c-30.235 0-54.834 24.598-54.834 54.834v8.972c0 6.075 4.925 11 11 11h207.607v259.105h-88.083c-27.121 0-49.185 22.076-49.185 49.212v13.911h-15.69c-6.075 0-11 4.925-11 11s4.925 11 11 11h380.703c6.075 0 11-4.925 11-11s-4.925-11-11-11h-15.69v-13.911c0-27.136-22.064-49.212-49.185-49.212h-88.083v-259.104h207.606c6.075 0 11-4.925 11-11v-8.972c0-30.237-24.599-54.835-54.834-54.835zm-229.131-27.981c0-15.429 12.545-27.981 27.965-27.981s27.965 12.552 27.965 27.981-12.545 27.981-27.965 27.981-27.965-12.552-27.965-27.981zm180.626 411.105v13.911h-305.322v-13.911c0-15.005 12.195-27.212 27.185-27.212h250.952c14.99 0 27.185 12.207 27.185 27.212zm-137.268-49.212h-30.785v-259.105h30.785zm-249.331-281.105c1.05-17.164 15.348-30.806 32.772-30.806h402.332c17.424 0 31.722 13.642 32.772 30.806z"/><path d="m187.287 287.455c0-6.075-4.925-11-11-11h-158.714c-6.075 0-11 4.925-11 11 0 49.841 40.534 90.389 90.356 90.389 49.824 0 90.358-40.549 90.358-90.389zm-157.83 11h134.947c-5.276 32.498-33.524 57.389-67.474 57.389-33.949 0-62.198-24.892-67.473-57.389z"/><path d="m494.427 276.455h-158.714c-6.075 0-11 4.925-11 11 0 49.841 40.534 90.389 90.357 90.389s90.356-40.548 90.356-90.389c.001-6.076-4.924-11-10.999-11zm-79.357 79.389c-33.949 0-62.198-24.892-67.474-57.389h134.947c-5.275 32.497-33.524 57.389-67.473 57.389z"/></g></g><g/><g/><g/><g/><g/><g/><g/><g/><g/><g/><g/><g/><g/><g/><g/></svg>