<svg id="Layer_1" enable-background="new 0 0 512 512" viewBox="0 0 512 512" xmlns="http://www.w3.org/2000/svg" fill="#E6ECF2"><g><g><g><path d="m139.667 274.933h-11.193v-11.197c0-6.075-4.925-11-11-11s-11 4.925-11 11v11.197h-11.192c-6.075 0-11 4.925-11 11s4.925 11 11 11h11.192v11.198c0 6.075 4.925 11 11 11s11-4.925 11-11v-11.198h11.193c6.075 0 11-4.925 11-11s-4.925-11-11-11z" fill="#0496FF"/><g><path d="m256 464.069c-6.075 0-11-4.925-11-11v-38.566c0-6.075 4.925-11 11-11s11 4.925 11 11v38.566c0 6.076-4.925 11-11 11z" fill="#0496FF"/></g><path d="m447.373 490h-7.962v-63.889c0-6.075-4.925-11-11-11h-97.328v-48.539c0-6.075-4.925-11-11-11h-4.438l8.964-94.333h5.594c6.075 0 11-4.925 11-11v-94.729c0-26.084-17.329-48.197-41.078-55.431 9.713-10.635 15.645-24.782 15.645-40.288-.001-32.97-26.813-59.791-59.77-59.791s-59.769 26.821-59.769 59.79c0 15.506 5.932 29.653 15.645 40.288-23.75 7.234-41.078 29.347-41.078 55.431v94.729c0 6.075 4.925 11 11 11h5.594l8.964 94.333h-4.438c-6.075 0-11 4.925-11 11v28.693h-97.329c-6.075 0-11 4.925-11 11v83.736h-7.962c-6.075 0-11 4.925-11 11s4.925 11 11 11h382.746c6.075 0 11-4.925 11-11s-4.925-11-11-11zm-29.962-52.889v52.889h-86.328v-52.889zm-161.411-415.111c20.826 0 37.769 16.952 37.769 37.79 0 20.837-16.943 37.789-37.769 37.789s-37.769-16.952-37.769-37.789c0-20.838 16.943-37.79 37.769-37.79zm-63.203 133.51c0-19.812 16.119-35.931 35.931-35.931h54.544c19.812 0 35.931 16.118 35.931 35.931v83.729h-20.799v-52.182c0-6.075-4.925-11-11-11s-11 4.925-11 11v52.182h-40.807v-52.182c0-6.075-4.925-11-11-11s-11 4.925-11 11v52.182h-20.799v-83.729zm16.693 105.729h93.019l-8.964 94.333h-26.545v-66.092c0-6.075-4.925-11-11-11s-11 4.925-11 11v66.092h-26.546zm-114.901 156.027h86.328v72.734h-86.328zm108.328 72.734v-112.428h106.166v112.428z"/></g></g><g><g><g><g><path d="m381.551 83.564c-6.075 0-11-4.925-11-11v-6.958c0-6.075 4.925-11 11-11s11 4.925 11 11v6.958c0 6.076-4.925 11-11 11z" fill="#0496FF"/></g><g><path d="m381.551 136.691c-6.075 0-11-4.925-11-11v-6.957c0-6.075 4.925-11 11-11s11 4.925 11 11v6.957c0 6.076-4.925 11-11 11z" fill="#0496FF"/></g></g></g><g><g><g><path d="m411.593 106.649h-6.958c-6.075 0-11-4.925-11-11s4.925-11 11-11h6.958c6.075 0 11 4.925 11 11s-4.925 11-11 11z" fill="#0496FF"/></g><g><path d="m358.466 106.649h-6.958c-6.075 0-11-4.925-11-11s4.925-11 11-11h6.958c6.075 0 11 4.925 11 11s-4.925 11-11 11z" fill="#0496FF"/></g></g></g></g></g><g/><g/><g/><g/><g/><g/><g/><g/><g/><g/><g/><g/><g/><g/><g/></svg>