<svg id="Capa_1" enable-background="new 0 0 512.092 512.092" viewBox="0 0 512.092 512.092" xmlns="http://www.w3.org/2000/svg" fill="#052438"><g><path d="m409.046 143.045h-204c-6.075 0-11 4.925-11 11v33.537c-57.166 5.548-102 53.866-102 112.463 0 62.309 50.691 113 113 113 41.533 0 77.898-22.527 97.535-56h106.465c6.075 0 11-4.925 11-11v-192c0-6.075-4.925-11-11-11zm-11 22v42h-128.891c-15.384-10.638-33.521-17.562-53.109-19.463v-22.537zm-105.161 64h105.161v42h-83.779c-4.137-15.568-11.522-29.824-21.382-42zm-87.839 162c-50.178 0-91-40.822-91-91s40.822-91 91-91 91 40.822 91 91-40.822 91-91 91zm107.444-56c3.6-11.025 5.555-22.788 5.555-35 0-2.351-.081-4.684-.223-7h80.223v42z"/><g fill="#0496FF"><path d="m204.474 369.045c6.075 0 11-4.925 11-11v-3.891c13.719-4.372 22.493-16.485 24.503-28.441 2.734-16.264-6.08-30.956-21.931-36.559-8.282-2.928-17.427-6.452-22.45-10.392-1.117-.876-1.598-3.262-1.144-5.674.246-1.306 1.389-5.671 5.752-6.985 7.985-2.406 15.469.994 18.316 2.567 5.315 2.939 12.009 1.012 14.948-4.306 2.939-5.317 1.011-12.01-4.306-14.948-3.166-1.75-7.905-3.907-13.69-5.155v-2.217c0-6.075-4.925-11-11-11s-11 4.925-11 11v3.125c-10.598 3.354-18.492 12.447-20.64 23.844-2.011 10.669 1.509 21.038 9.186 27.059 7.507 5.888 18.228 10.124 28.695 13.824 7.895 2.791 8.129 8.822 7.567 12.169-.949 5.644-5.697 11.743-13.88 11.798-8.716.051-11.194-.335-17.752-4.625-5.085-3.326-11.902-1.901-15.227 3.183-3.326 5.084-1.901 11.901 3.183 15.227 7.173 4.693 12.585 6.791 18.869 7.661v2.735c.001 6.077 4.926 11.001 11.001 11.001z"/><path d="m23.761 227.77c7.553-62.045 38.815-117.437 88.028-155.969 49.214-38.532 110.488-55.594 172.532-48.041 53.923 6.564 102.95 31.139 140.162 69.84l-11.282-.185c-6.112-.09-11.08 4.744-11.179 10.818-.1 6.074 4.744 11.08 10.818 11.179l35.929.59c.061.001.121.001.181.001 2.853 0 5.596-1.108 7.649-3.095 2.097-2.029 3.301-4.807 3.349-7.724l.589-35.929c.1-6.074-4.744-11.079-10.818-11.179-6.123-.096-11.079 4.744-11.179 10.818l-.123 7.475c-40.473-41.211-93.36-67.378-151.438-74.448-67.878-8.26-134.912 10.402-188.753 52.558-53.84 42.155-88.041 102.754-96.304 170.633-4.657 38.255-.841 76.041 11.341 112.307 1.544 4.597 5.83 7.5 10.426 7.5 1.161 0 2.343-.186 3.504-.576 5.759-1.934 8.859-8.171 6.924-13.93-11.129-33.134-14.614-67.668-10.356-102.643z"/><path d="m498.829 174.672c-1.934-5.758-8.172-8.859-13.93-6.924-5.759 1.934-8.859 8.171-6.924 13.93 11.13 33.134 14.615 67.668 10.357 102.643-7.553 62.045-38.815 117.437-88.028 155.969-41.59 32.563-91.783 49.793-143.787 49.791-9.532 0-19.134-.58-28.746-1.75-53.923-6.564-102.95-31.139-140.162-69.84l11.283.185c6.071.113 11.079-4.744 11.179-10.818s-4.744-11.08-10.818-11.179l-35.929-.59c-2.943-.052-5.734 1.065-7.83 3.094-2.097 2.029-3.301 4.807-3.349 7.724l-.589 35.929c-.1 6.074 4.744 11.079 10.818 11.179.062.001.123.001.184.001 5.991 0 10.896-4.807 10.995-10.819l.123-7.475c40.473 41.211 93.36 67.378 151.438 74.448 10.519 1.28 21.016 1.914 31.448 1.914 56.888 0 111.808-18.849 157.305-54.472 53.84-42.155 88.042-102.754 96.305-170.633 4.655-38.255.839-76.04-11.343-112.307z"/></g></g><g/><g/><g/><g/><g/><g/><g/><g/><g/><g/><g/><g/><g/><g/><g/></svg>