<svg id="Capa_1" enable-background="new 0 0 512 512" viewBox="0 0 512 512" xmlns="http://www.w3.org/2000/svg" fill="#052438"><g><path d="m501 347.195c6.075 0 11-4.925 11-11v-37.373c0-4.671-2.95-8.832-7.356-10.379l-122-42.822c-2.358-.827-4.928-.828-7.286 0l-6.647 2.333c-4.141-58.568-53.108-104.954-112.711-104.954-.669 0-1.334.014-2 .025v-40.83h1c6.075 0 11-4.925 11-11v-37.372c0-4.671-2.949-8.832-7.356-10.379l-122-42.823c-2.359-.827-4.928-.827-7.287 0l-122 42.823c-4.408 1.547-7.357 5.708-7.357 10.379v37.373c0 6.075 4.925 11 11 11h1v98.804h-1c-6.075 0-11 4.925-11 11v44c0 6.075 4.925 11 11 11h132.537c5.548 57.166 53.866 102 112.463 102 .669 0 1.334-.014 2-.025v77.025h-1c-6.075 0-11 4.925-11 11v44c0 6.075 4.925 11 11 11h244c6.075 0 11-4.925 11-11v-44c0-6.075-4.925-11-11-11h-1v-98.805zm-122-79.537 111 38.961v18.576h-144.728c11.854-15.259 19.886-33.625 22.653-53.651zm33 178.342v-98.805h22v98.805zm-66-98.805v98.805h-22v-98.805zm22 0h22v98.805h-22zm-136-201.621c-7.648 1.661-15.011 4.095-22 7.222v-50.6h22zm-132-43.379v98.805h-22v-98.805zm22 0h22v98.805h-22zm44 0h22v63.615c-8.298 6.272-15.706 13.662-22 21.943zm-144-40.575 111-38.961 111 38.961v18.576h-222zm12 40.575h22v98.805h-22zm-12 120.805h125.92c-2.162 7.067-3.648 14.425-4.384 22h-121.536zm143 33c0-50.178 40.822-91 91-91s91 40.822 91 91-40.822 91-91 91-91-40.822-91-91zm115 110.426c7.648-1.661 15.011-4.095 22-7.222v86.796h-22zm210 123.574h-222v-22h222zm-12-44h-22v-98.805h22z"/><g fill="#0496FF"><path d="m201.604 434h-123.604v-102.444l5.222 5.222c2.148 2.148 4.963 3.222 7.778 3.222s5.63-1.074 7.778-3.222c4.296-4.296 4.296-11.261 0-15.557l-24-24c-4.297-4.296-11.26-4.296-15.557 0l-24 24c-4.296 4.296-4.296 11.261 0 15.557 4.297 4.296 11.26 4.296 15.557 0l5.222-5.222v113.444c0 6.075 4.925 11 11 11h134.604c6.075 0 11-4.925 11-11s-4.925-11-11-11z"/><path d="m476.778 175.222c-4.297-4.296-11.26-4.296-15.557 0l-5.221 5.221v-113.443c0-6.075-4.925-11-11-11h-134.604c-6.075 0-11 4.925-11 11s4.925 11 11 11h123.604v102.444l-5.222-5.222c-4.297-4.296-11.26-4.296-15.557 0-4.296 4.296-4.296 11.261 0 15.557l24 24c2.149 2.147 4.964 3.221 7.779 3.221s5.63-1.074 7.778-3.222l24-24c4.296-4.296 4.296-11.261 0-15.556z"/><path d="m269.001 245.109c-8.282-2.928-17.427-6.452-22.449-10.392-1.117-.876-1.599-3.263-1.145-5.674.246-1.306 1.389-5.67 5.752-6.985 7.99-2.406 15.47.995 18.316 2.567 5.316 2.939 12.011 1.012 14.948-4.306 2.939-5.317 1.012-12.01-4.306-14.948-3.166-1.75-7.905-3.908-13.69-5.155v-2.216c0-6.075-4.925-11-11-11s-11 4.925-11 11v3.125c-10.598 3.354-18.492 12.447-20.64 23.844-2.011 10.669 1.509 21.038 9.186 27.059 7.507 5.888 18.228 10.124 28.695 13.824 7.895 2.791 8.13 8.822 7.566 12.169-.948 5.644-5.697 11.744-13.881 11.798-8.717.052-11.194-.335-17.751-4.625-5.083-3.325-11.901-1.901-15.228 3.183-3.326 5.084-1.9 11.901 3.183 15.227 7.174 4.693 12.586 6.791 18.869 7.661v2.735c0 6.075 4.925 11 11 11s11-4.925 11-11v-3.891c13.719-4.372 22.494-16.485 24.504-28.441 2.735-16.264-6.077-30.956-21.929-36.559z"/></g></g><g/><g/><g/><g/><g/><g/><g/><g/><g/><g/><g/><g/><g/><g/><g/></svg>