<svg id="Capa_1" enable-background="new 0 0 512 512" viewBox="0 0 512 512" xmlns="http://www.w3.org/2000/svg" fill="#052438"><g><path d="m501 296.5h-35.089c27.932-20.593 46.089-53.714 46.089-91 0-62.309-50.691-113-113-113s-113 50.691-113 113c0 15.793 3.262 30.836 9.138 44.5h-284.138c-6.075 0-11 4.925-11 11v240c0 6.075 4.925 11 11 11h490c6.075 0 11-4.925 11-11v-193.5c0-6.075-4.925-11-11-11zm-11 22v42.5h-182v-42.5zm-351.425 91.5h-116.575v-58h116.575zm22-138h51.851v218h-51.851zm125.425 138h-51.574v-58h51.574zm-51.574 22h51.574v58h-51.574zm73.574-49h182v42.5h-182zm91-268.5c50.178 0 91 40.822 91 91s-40.822 91-91 91-91-40.822-91-91 40.822-91 91-91zm-66.911 182h-35.089c-6.075 0-11 4.925-11 11v22.5h-51.574v-58h73.274c6.833 9.356 15.065 17.626 24.389 24.5zm-193.514-24.5v58h-116.575v-58zm-116.575 160h116.575v58h-116.575zm286 58v-42.5h182v42.5z"/><g fill="#0496FF"><path d="m412.001 194.61c-8.282-2.928-17.427-6.452-22.45-10.392-1.117-.876-1.598-3.262-1.144-5.674.246-1.306 1.389-5.671 5.752-6.985 7.985-2.405 15.469.995 18.316 2.567 5.315 2.939 12.009 1.012 14.948-4.306 2.939-5.317 1.011-12.01-4.306-14.948-3.166-1.75-7.905-3.908-13.69-5.155v-2.217c0-6.075-4.925-11-11-11s-11 4.925-11 11v3.125c-10.598 3.354-18.492 12.447-20.64 23.844-2.011 10.669 1.509 21.038 9.186 27.059 7.507 5.888 18.228 10.124 28.695 13.824 7.895 2.791 8.129 8.822 7.567 12.169-.949 5.644-5.697 11.743-13.88 11.798-8.713.059-11.195-.335-17.753-4.625-5.083-3.325-11.901-1.899-15.227 3.184-3.326 5.084-1.9 11.901 3.184 15.227 7.173 4.692 12.585 6.79 18.869 7.66v2.735c0 6.075 4.925 11 11 11s11-4.925 11-11v-3.891c13.719-4.372 22.493-16.484 24.503-28.441 2.735-16.263-6.078-30.955-21.93-36.558z"/><path d="m86.778 3.222c-4.296-4.296-11.261-4.296-15.557 0l-24 24c-4.295 4.296-4.295 11.261 0 15.557 4.296 4.296 11.261 4.296 15.557 0l5.222-5.222v105.483c0 6.075 4.925 11 11 11s11-4.925 11-11v-105.483l5.222 5.222c2.148 2.148 4.963 3.221 7.778 3.221s5.63-1.074 7.778-3.222c4.295-4.296 4.295-11.261 0-15.557z"/><path d="m214.778 47.222c-4.296-4.296-11.261-4.296-15.557 0l-24 24c-4.295 4.296-4.295 11.261 0 15.557 4.296 4.296 11.261 4.296 15.557 0l5.222-5.222v105.483c0 6.075 4.925 11 11 11s11-4.925 11-11v-105.483l5.222 5.222c2.148 2.148 4.963 3.221 7.778 3.221s5.63-1.074 7.778-3.222c4.295-4.296 4.295-11.261 0-15.557z"/></g></g><g/><g/><g/><g/><g/><g/><g/><g/><g/><g/><g/><g/><g/><g/><g/></svg>