<svg id="Capa_1" enable-background="new 0 0 512 512" viewBox="0 0 512 512" xmlns="http://www.w3.org/2000/svg" fill="#052438"><g><g fill="#0496FF"><path d="m402.916 378.058c-9.177-3.244-19.318-7.156-24.957-11.579-1.574-1.235-2.237-4.16-1.65-7.278.299-1.585 1.691-6.884 7.065-8.503 9.162-2.762 17.699 1.114 20.944 2.908 5.316 2.939 12.009 1.012 14.948-4.305s1.012-12.01-4.306-14.949c-3.563-1.97-8.976-4.421-15.589-5.728v-3.31c0-6.075-4.925-11-11-11s-11 4.925-11 11v4.222c-.115.034-.229.062-.344.097-11.467 3.455-20.026 13.223-22.339 25.494-2.133 11.318 1.581 22.301 9.691 28.663 6.563 5.148 15.604 9.497 31.203 15.011 9.764 3.451 9.556 11.331 9.013 14.558-1.113 6.628-6.689 13.79-16.298 13.854-9.819.066-12.639-.379-20.089-5.254-5.086-3.325-11.901-1.901-15.228 3.183-3.326 5.084-1.901 11.901 3.183 15.228 8.052 5.268 14.052 7.498 21.207 8.36v3.957c0 6.075 4.925 11 11 11s11-4.925 11-11v-5.067c15.084-4.462 24.737-17.625 26.921-30.613 2.914-17.325-6.48-32.977-23.375-38.949z"/><path d="m508.778 210.735c-4.297-4.296-11.26-4.296-15.557 0l-5.221 5.222v-67.705c0-29.363-23.889-53.252-53.252-53.252h-7.057c-6.075 0-11 4.925-11 11s4.925 11 11 11h7.057c17.232 0 31.252 14.02 31.252 31.252v67.705l-5.222-5.222c-4.297-4.296-11.26-4.296-15.557 0-4.296 4.296-4.296 11.261 0 15.557l24 24c2.148 2.148 4.963 3.222 7.778 3.222s5.63-1.074 7.778-3.222l24-24c4.297-4.296 4.297-11.261.001-15.557z"/><path d="m208.309 378h-87.057c-17.232 0-31.252-14.019-31.252-31.252v-50.705l5.222 5.222c2.148 2.148 4.963 3.222 7.778 3.222s5.63-1.074 7.778-3.222c4.295-4.296 4.295-11.261 0-15.557l-24-24c-4.296-4.296-11.261-4.296-15.557 0l-24 24c-4.295 4.296-4.295 11.261 0 15.557 4.296 4.296 11.261 4.296 15.557 0l5.222-5.222v50.705c0 29.363 23.889 53.252 53.252 53.252h87.057c6.075 0 11-4.925 11-11s-4.925-11-11-11z"/><path d="m299.994 95h-24c-6.075 0-11 4.925-11 11s4.925 11 11 11h24c6.075 0 11-4.925 11-11s-4.925-11-11-11z"/><path d="m185.127 55c-28.122 0-51 22.878-51 51s22.878 51 51 51 51-22.878 51-51-22.878-51-51-51zm0 80c-15.991 0-29-13.009-29-29s13.009-29 29-29 29 13.009 29 29-13.009 29-29 29z"/><path d="m70.006 117h24c6.075 0 11-4.925 11-11s-4.925-11-11-11h-24c-6.075 0-11 4.925-11 11s4.925 11 11 11z"/></g><g><path d="m389 266c-67.822 0-123 55.178-123 123s55.178 123 123 123 123-55.178 123-123-55.178-123-123-123zm0 224c-55.691 0-101-45.309-101-101s45.309-101 101-101 101 45.309 101 101-45.309 101-101 101z"/><path d="m370 201v-190c0-6.075-4.925-11-11-11h-348c-6.075 0-11 4.925-11 11v190c0 6.075 4.925 11 11 11h348c6.075 0 11-4.925 11-11zm-81.144-11h-207.712c-4.742-30.358-28.786-54.402-59.144-59.144v-49.712c30.358-4.742 54.402-28.786 59.144-59.144h207.711c4.742 30.358 28.786 54.402 59.144 59.144v49.711c-30.357 4.743-54.401 28.787-59.143 59.145zm59.144-131.26c-18.198-4.192-32.547-18.541-36.74-36.74h36.74zm-289.26-36.74c-4.193 18.199-18.542 32.547-36.74 36.74v-36.74zm-36.74 131.261c18.198 4.192 32.547 18.541 36.74 36.74h-36.74zm289.26 36.739c4.192-18.198 18.541-32.547 36.74-36.74v36.74z"/></g></g><g/><g/><g/><g/><g/><g/><g/><g/><g/><g/><g/><g/><g/><g/><g/></svg>