<svg id="Capa_1" enable-background="new 0 0 512.008 512.008" viewBox="0 0 512.008 512.008" xmlns="http://www.w3.org/2000/svg" fill="#052438"><g><g><path d="m374.966 137.041c-31.776-31.776-74.024-49.276-118.962-49.275-44.938 0-87.187 17.5-118.962 49.275-31.776 31.776-49.276 74.024-49.275 118.962 0 44.938 17.5 87.187 49.275 118.962 31.776 31.776 74.024 49.276 118.962 49.275 44.938 0 87.187-17.5 118.962-49.275 31.776-31.776 49.276-74.024 49.275-118.962.001-44.937-17.499-87.186-49.275-118.962zm-15.556 222.368c-27.621 27.621-64.345 42.832-103.406 42.832s-75.785-15.211-103.406-42.832-42.832-64.345-42.832-103.406 15.211-75.785 42.832-103.406 64.345-42.832 103.406-42.832 75.785 15.211 103.406 42.832 42.832 64.345 42.832 103.406-15.211 75.786-42.832 103.406z"/><path d="m256.004 135.153c-66.638 0-120.851 54.213-120.851 120.851s54.213 120.851 120.851 120.851 120.851-54.213 120.851-120.851-54.213-120.851-120.851-120.851zm0 219.702c-54.507 0-98.851-44.344-98.851-98.851s44.344-98.851 98.851-98.851 98.851 44.344 98.851 98.851-44.344 98.851-98.851 98.851z"/></g><g fill="#0496FF"><path d="m255.315 293.272c-9.585.067-12.329-.371-19.587-5.118-5.083-3.326-11.901-1.9-15.227 3.183-3.326 5.084-1.901 11.901 3.183 15.227 7.865 5.145 13.737 7.349 20.705 8.212v3.692c0 6.075 4.925 11 11 11s11-4.925 11-11v-4.809c14.792-4.443 24.255-17.385 26.401-30.152 2.874-17.096-6.396-32.542-23.065-38.434-8.985-3.176-18.913-7.006-24.419-11.324-1.484-1.164-2.103-3.95-1.541-6.933.288-1.525 1.626-6.624 6.784-8.177 8.905-2.683 17.218 1.088 20.379 2.835 5.315 2.939 12.009 1.012 14.948-4.306 2.939-5.317 1.011-12.01-4.306-14.948-3.478-1.923-8.744-4.313-15.181-5.608v-3.072c0-6.075-4.925-11-11-11s-11 4.925-11 11v3.981c-.063.019-.124.034-.187.053-11.322 3.411-19.774 13.055-22.057 25.168-2.107 11.179 1.565 22.029 9.583 28.318 7.988 6.265 19.458 10.794 30.664 14.756 9.086 3.212 9.353 10.178 8.703 14.045-1.08 6.415-6.478 13.349-15.78 13.411z"/><path d="m417.33 30.899c-1.161-5.963-6.937-9.858-12.9-8.694-5.963 1.161-9.855 6.937-8.694 12.9l1.429 7.337c-48.132-31.925-105.289-46.562-163.569-41.441-38.387 3.374-74.56 14.938-107.512 34.371-5.233 3.086-6.973 9.83-3.887 15.063 3.086 5.232 9.829 6.972 15.063 3.887 30.106-17.755 63.166-28.321 98.262-31.405 54.107-4.754 107.16 9.124 151.583 39.27l-11.074 2.157c-5.963 1.161-9.855 6.937-8.694 12.9 1.023 5.253 5.626 8.899 10.785 8.899.697 0 1.405-.066 2.115-.205l35.269-6.87c2.864-.558 5.388-2.23 7.019-4.649s2.233-5.387 1.675-8.25z"/><path d="m374.748 457.686c-30.106 17.755-63.166 28.321-98.262 31.405-54.103 4.758-107.159-9.123-151.583-39.27l11.074-2.157c5.963-1.161 9.855-6.937 8.694-12.9s-6.938-9.855-12.9-8.694l-35.269 6.87c-2.864.558-5.388 2.23-7.019 4.649s-2.233 5.387-1.675 8.25l6.87 35.269c1.023 5.253 5.626 8.899 10.785 8.899.697 0 1.405-.066 2.115-.205 5.963-1.161 9.855-6.937 8.694-12.9l-1.429-7.335c41.84 27.751 90.5 42.441 140.788 42.441 7.562 0 15.163-.332 22.78-1.001 38.387-3.374 74.56-14.938 107.512-34.371 5.233-3.086 6.973-9.83 3.887-15.063-3.085-5.232-9.828-6.973-15.062-3.887z"/><path d="m476.902 395.736-7.337 1.429c31.925-48.133 46.562-105.292 41.441-163.569-3.374-38.387-14.938-74.56-34.371-107.512-3.086-5.232-9.829-6.974-15.063-3.887-5.233 3.086-6.973 9.83-3.887 15.063 17.755 30.106 28.321 63.166 31.405 98.262 4.755 54.108-9.124 107.16-39.27 151.583l-2.157-11.074c-1.161-5.963-6.935-9.857-12.9-8.694-5.963 1.161-9.855 6.937-8.694 12.9l6.87 35.269c.558 2.864 2.23 5.388 4.649 7.019 1.83 1.233 3.973 1.878 6.147 1.878.701 0 1.405-.067 2.103-.203l35.269-6.87c5.963-1.161 9.855-6.937 8.694-12.9-1.16-5.963-6.936-9.857-12.899-8.694z"/><path d="m79.068 96.502c-.558-2.864-2.23-5.388-4.649-7.019s-5.387-2.233-8.25-1.675l-35.269 6.869c-5.963 1.161-9.855 6.937-8.694 12.9s6.939 9.857 12.9 8.694l7.337-1.429c-31.926 48.133-46.563 105.292-41.442 163.569 3.374 38.387 14.938 74.56 34.371 107.512 2.052 3.479 5.719 5.414 9.485 5.414 1.899 0 3.823-.492 5.578-1.527 5.233-3.086 6.973-9.83 3.887-15.063-17.755-30.106-28.321-63.166-31.405-98.262-4.755-54.108 9.124-107.16 39.27-151.583l2.157 11.074c1.023 5.253 5.626 8.899 10.785 8.899.697 0 1.405-.066 2.115-.205 5.963-1.161 9.855-6.937 8.694-12.9z"/></g></g><g/><g/><g/><g/><g/><g/><g/><g/><g/><g/><g/><g/><g/><g/><g/></svg>