<svg id="Capa_1" enable-background="new 0 0 512 512" viewBox="0 0 512 512" xmlns="http://www.w3.org/2000/svg" fill="#E6ECF2"><g><g><g fill="#0496FF"><path d="m403.069 393.362-.614-63.301c-.059-6.039-4.972-10.894-10.997-10.894-.036 0-.073 0-.109 0-6.075.059-10.952 5.031-10.893 11.106l.299 30.823-25.666-37.069c-2.739-3.956-7.731-5.673-12.324-4.238-4.592 1.435-7.72 5.688-7.72 10.5v65.386c0 6.075 4.925 11 11 11s11-4.925 11-11v-30.175l24.285 35.075c3.078 4.434 8.454 6.375 13.378 4.836 5.079-1.59 8.361-6.278 8.361-11.944.001-.034.001-.07 0-.105z"/><path d="m313.72 341.766c6.075 0 11-4.925 11-11s-4.925-11-11-11h-27.422c-6.075 0-11 4.925-11 11v64.91c0 6.075 4.925 11 11 11h27.422c6.075 0 11-4.925 11-11s-4.925-11-11-11h-16.422v-10.455h14.4c6.075 0 11-4.925 11-11s-4.925-11-11-11h-14.4v-10.455z"/><path d="m236.385 319.167h-18.288c-6.075 0-11 4.925-11 11v65.508c0 6.075 4.925 11 11 11s11-4.925 11-11v-17.513c2.812-.013 5.536-.022 7.288-.022 16.485 0 29.897-13.228 29.897-29.487.001-16.258-13.411-29.486-29.897-29.486zm0 36.974c-1.753 0-4.474.01-7.288.022v-14.996h7.288c4.281 0 7.897 3.428 7.897 7.486s-3.616 7.488-7.897 7.488z"/><path d="m152.77 319.167c-24.173 0-43.839 19.628-43.839 43.754s19.666 43.754 43.839 43.754 43.839-19.628 43.839-43.754-19.666-43.754-43.839-43.754zm0 65.509c-12.042 0-21.839-9.759-21.839-21.754s9.797-21.754 21.839-21.754 21.839 9.759 21.839 21.754-9.797 21.754-21.839 21.754z"/></g><g><path d="m438.348 213.843h-51.964v-22.964h38.063c27.936 0 50.664-22.728 50.664-50.664v-50.351c0-6.075-4.925-11-11-11h-123.885c-5.109-25.267-27.259-43.707-53.586-43.707-30.154 0-54.687 24.536-54.687 54.695 0 13.776 5.139 26.939 14.469 37.063 7.865 8.533 18.115 14.28 29.337 16.547 1.68 26.429 23.716 47.417 50.561 47.417h38.063v22.964h-290.731c-37.246 0-67.547 30.26-67.547 67.456v163.246c0 37.195 30.302 67.455 67.547 67.455h364.695c37.246 0 67.547-30.26 67.547-67.456v-163.245c.001-37.195-30.301-67.456-67.546-67.456zm-184.395-123.991c0-18.028 14.664-32.695 32.687-32.695 14.162 0 26.301 8.921 30.814 21.707h-30.798c-6.075 0-11 4.925-11 11v30.776c-12.655-4.568-21.703-16.811-21.703-30.788zm43.703 50.363v-39.352h155.455v39.352c0 15.805-12.858 28.664-28.664 28.664h-98.127c-15.805 0-28.664-12.858-28.664-28.664zm186.239 304.329c0 25.064-20.433 45.456-45.547 45.456h-364.696c-25.115 0-45.547-20.391-45.547-45.456v-163.245c0-25.064 20.433-45.456 45.547-45.456h290.731v33.09h-290.73c-6.82 0-12.368 5.547-12.368 12.365v163.246c0 6.818 5.548 12.366 12.368 12.366h364.694c6.82 0 12.368-5.547 12.368-12.366v-163.246c0-6.818-5.548-12.365-12.368-12.365h-51.963v-33.09h51.964c25.115 0 45.547 20.391 45.547 45.456zm-55.18-153.611v143.977h-345.43v-143.977z"/><path d="m28.508 76.612 19.712 7.762c9.927 3.909 17.866 11.833 21.779 21.74l7.775 19.681c1.659 4.199 5.715 6.958 10.23 6.958s8.572-2.759 10.23-6.958l7.775-19.681c3.913-9.908 11.852-17.832 21.778-21.74l19.713-7.762c4.206-1.656 6.97-5.716 6.97-10.235s-2.765-8.579-6.97-10.235l-19.713-7.762c-9.927-3.909-17.866-11.833-21.779-21.74l-7.772-19.682c-1.659-4.199-5.715-6.958-10.231-6.958s-8.572 2.759-10.23 6.958l-7.775 19.681c-3.913 9.908-11.852 17.832-21.779 21.74l-19.713 7.762c-4.205 1.656-6.97 5.716-6.97 10.235s2.765 8.581 6.97 10.236zm59.497-36.476c5.786 11.241 15.009 20.456 26.26 26.24-11.251 5.785-20.475 15-26.26 26.241-5.786-11.241-15.008-20.456-26.26-26.24 11.252-5.785 20.475-15.001 26.26-26.241z"/><path d="m144.037 123.226-15.65 6.162c-4.205 1.656-6.97 5.716-6.97 10.235s2.765 8.579 6.97 10.235l15.65 6.162c7.299 2.874 13.135 8.699 16.012 15.983l6.172 15.625c1.659 4.199 5.715 6.958 10.23 6.958s8.572-2.759 10.23-6.958l6.172-15.625c2.877-7.284 8.714-13.109 16.012-15.983l15.65-6.162c4.206-1.656 6.97-5.716 6.97-10.235s-2.765-8.58-6.97-10.235l-15.65-6.162c-7.299-2.875-13.135-8.7-16.013-15.983l-6.172-15.625c-1.659-4.199-5.715-6.958-10.23-6.958s-8.572 2.759-10.23 6.958l-6.173 15.625c-2.875 7.283-8.711 13.109-16.01 15.983zm32.415.155c4.095 6.577 9.671 12.149 16.254 16.242-6.583 4.093-12.159 9.665-16.254 16.242-4.094-6.578-9.67-12.149-16.254-16.242 6.585-4.093 12.16-9.664 16.254-16.242z"/></g></g></g><g/><g/><g/><g/><g/><g/><g/><g/><g/><g/><g/><g/><g/><g/><g/></svg>