<svg id="Capa_1" enable-background="new 0 0 512.001 512.001" viewBox="0 0 512.001 512.001" xmlns="http://www.w3.org/2000/svg" fill="#E6ECF2"><g><g><g><path d="m256.081 464.039c-36.981 0-67.068-30.077-67.068-67.047 0-51.153 58.039-94.846 60.51-96.681 3.932-2.918 9.316-2.888 13.214.073 2.467 1.875 60.413 46.485 60.413 96.608-.001 36.97-30.088 67.047-67.069 67.047zm-.065-140.641c-13.936 12.032-45.004 42.362-45.004 73.594 0 24.839 20.218 45.047 45.068 45.047s45.068-20.208 45.068-45.047c.001-30.582-31.186-61.36-45.132-73.594z" fill="#0496FF"/></g></g><path d="m492.295 280.701c-.043-4.685-3.061-8.811-7.5-10.307-4.437-1.496-9.353 0-12.221 3.702-4.899 6.201-11.256 3.953-13.087 3.116-1.823-.833-7.656-4.153-6.18-11.879 8.115-42.469 8.711-105.18-34.539-162.757-2.219-2.954-5.759-4.589-9.46-4.374-3.688.224-7.017 2.283-8.863 5.483-13.655 23.669-47.458 25.774-70.461 12.89-9.634-5.396-22.025-15.81-26.353-34.785-4.215-18.481.565-41.144 13.824-65.537 2.062-3.792 1.715-8.439-.887-11.884-2.602-3.443-6.97-5.047-11.188-4.102-44.394 9.973-84.133 27.976-118.112 53.509-27.511 20.671-51.342 46.317-70.833 76.225-32.61 50.039-44.81 103.386-47.771 118.545l-.109.558c-1.979 9.603-10.109 11.645-12.554 12.042-2.404.389-10.622 1.018-15.461-7.332-2.364-4.3-7.288-6.517-12.076-5.428-4.785 1.087-8.271 5.212-8.546 10.112-.265 4.71-.393 9.046-.393 13.257 0 17.428 2.025 37.882 6.191 62.529 6.124 36.232 23.866 72.475 52.735 107.721 23.171 28.29 53.25 50.976 86.988 65.605 5.048 2.19 10.94.311 13.788-4.398 2.849-4.709 1.778-10.798-2.505-14.254-32.634-26.33-52.912-71.514-54.245-120.867-.68-25.153 2.839-48.043 10.457-68.032 5.685-14.911 12.372-28.31 19.877-39.827 25.264-38.767 60.116-65.613 103.808-80.024-12.015 38.458 4.952 64.733 25.927 76.481 12.549 7.029 27.716 9.685 41.608 7.288 9.591-1.655 18.054-5.536 24.835-11.272 23.369 35.589 51.335 98.041 37.23 152.667-10.044 38.901-27.847 68.108-52.913 86.81-4.406 3.287-5.709 9.323-3.051 14.135 1.986 3.596 5.728 5.683 9.632 5.683 1.321 0 2.662-.239 3.958-.74 70.959-27.391 123.909-87.396 141.643-160.511 4.012-16.539 6.359-33.276 6.978-49.745.007-.17.009-.342.008-.513zm-28.186 64.864c-11.353 46.809-38.688 87.68-76.484 116.358 8.335-14.973 14.983-32.016 19.897-51.049 7.561-29.282 5.268-64.125-6.631-100.762-9.346-28.779-24.745-58.648-42.249-81.95-2.085-2.776-5.348-4.394-8.794-4.394-.221 0-.443.007-.666.02-3.688.224-7.017 2.283-8.863 5.483-9.014 15.624-31.591 16.867-47.021 8.225-21.722-12.167-24.679-37.848-7.911-68.696 2.062-3.792 1.715-8.439-.887-11.884s-6.979-5.046-11.188-4.102c-32.624 7.329-61.838 20.567-86.832 39.348-20.238 15.207-37.768 34.069-52.099 56.06-8.358 12.825-15.761 27.629-22.002 44.002-8.649 22.692-12.65 48.418-11.893 76.462.699 25.899 6.21 51.664 15.937 74.509 1.709 4.015 3.534 7.919 5.473 11.712-9.603-8.136-18.465-17.123-26.424-26.841-26.414-32.249-42.584-65.035-48.063-97.447-3.196-18.911-5.066-35.106-5.669-49.162 5.575 1.865 11.649 2.402 17.789 1.405 15.419-2.505 27.42-14.014 30.572-29.317l.154-.779c2.77-14.172 14.171-64.043 44.611-110.752 36.877-56.587 88.339-95.023 153.195-114.489-8.022 21.255-10.003 41.08-5.88 59.158 4.777 20.948 17.936 38.38 37.051 49.087 16.481 9.231 36.387 12.722 54.615 9.577 14.081-2.43 26.277-8.537 35.551-17.623 30.062 47.781 29.019 98.316 22.299 133.479-2.891 15.125 4.602 29.599 18.644 36.018 6.589 3.012 13.575 3.776 20.124 2.49l.007.723c-.577 14.919-2.718 30.102-6.363 45.131z"/></g><g/><g/><g/><g/><g/><g/><g/><g/><g/><g/><g/><g/><g/><g/><g/></svg>