<svg id="Capa_1" enable-background="new 0 0 512 512" viewBox="0 0 512 512" xmlns="http://www.w3.org/2000/svg" fill="#052438"><g><g><path d="m434.514 88.637h-357.028c-11.62 0-21.073 9.455-21.073 21.077v249.754c0 11.622 9.453 21.077 21.073 21.077h141.309l30.309 24.391c2.014 1.621 4.455 2.431 6.896 2.431s4.883-.81 6.896-2.431l30.309-24.391h141.309c11.62 0 21.073-9.455 21.073-21.077v-249.754c0-11.622-9.453-21.077-21.073-21.077zm-.927 269.908h-144.259c-2.509 0-4.942.857-6.896 2.431l-26.432 21.271-26.432-21.271c-1.954-1.573-4.388-2.431-6.896-2.431h-144.259v-247.908h355.174z"/><path d="m434.514 32.206h-357.028c-42.726 0-77.486 34.77-77.486 77.508v249.754c0 42.738 34.76 77.508 77.486 77.508h121.434l50.184 40.388c2.013 1.621 4.455 2.431 6.896 2.431s4.884-.81 6.896-2.431l50.184-40.388h121.434c42.727 0 77.486-34.77 77.486-77.508v-249.754c0-42.738-34.76-77.508-77.486-77.508zm55.486 327.262c0 30.607-24.891 55.508-55.486 55.508h-125.311c-2.509 0-4.942.857-6.896 2.431l-46.307 37.267-46.307-37.268c-1.954-1.573-4.388-2.431-6.896-2.431h-125.311c-30.595.001-55.486-24.9-55.486-55.507v-249.754c0-30.607 24.891-55.508 55.486-55.508h357.027c30.596 0 55.486 24.901 55.486 55.508v249.754z"/></g><g fill="#0496FF"><path d="m153.084 192.066h205.832c6.075 0 11-4.925 11-11s-4.925-11-11-11h-205.832c-6.075 0-11 4.925-11 11s4.925 11 11 11z"/><path d="m153.084 245.914h80.524c6.075 0 11-4.925 11-11s-4.925-11-11-11h-80.524c-6.075 0-11 4.925-11 11s4.925 11 11 11z"/><path d="m278.662 223.914c-6.075 0-11 4.925-11 11s4.925 11 11 11h32.106c6.075 0 11-4.925 11-11s-4.925-11-11-11z"/><path d="m367.109 227.043c-3.355-3.421-8.754-4.147-12.952-1.916-3.759 1.998-6.099 6.16-5.801 10.416.335 4.786 3.807 8.887 8.48 9.985 4.529 1.064 9.385-.939 11.838-4.897 2.666-4.301 2.014-10.011-1.565-13.588z"/><path d="m358.916 277.761h-205.832c-6.075 0-11 4.925-11 11s4.925 11 11 11h205.832c6.075 0 11-4.925 11-11s-4.925-11-11-11z"/></g></g><g/><g/><g/><g/><g/><g/><g/><g/><g/><g/><g/><g/><g/><g/><g/></svg>