<svg id="Capa_1" enable-background="new 0 0 512 512" viewBox="0 0 512 512" xmlns="http://www.w3.org/2000/svg" fill="#E6ECF2"><g><g><path d="m431.519 76.167h-16.3c-14.977-21.875-39.293-34.746-66.253-34.746h-185.932c-26.961 0-51.278 12.873-66.253 34.746h-16.3c-44.377 0-80.481 36.095-80.481 80.462v233.487c0 44.367 36.104 80.463 80.481 80.463h351.037c44.378 0 80.481-36.096 80.481-80.463v-233.487c.001-44.367-36.103-80.462-80.48-80.462zm58.481 313.949c0 32.236-26.234 58.463-58.481 58.463h-351.038c-32.247 0-58.481-26.226-58.481-58.463v-233.487c0-32.236 26.234-58.462 58.481-58.462h22.369c3.937 0 7.572-2.104 9.535-5.516 10.528-18.303 29.462-29.23 50.648-29.23h185.932c21.185 0 40.118 10.928 50.648 29.231 1.963 3.412 5.6 5.515 9.535 5.515h22.369c32.247 0 58.481 26.226 58.481 58.462v233.487z"/><path d="m431.519 131.878h-48.241l-12.9-22.422c-4.441-7.716-12.445-12.323-21.411-12.323h-185.933c-8.968 0-16.971 4.605-21.41 12.321l-12.898 22.424h-48.245c-13.649 0-24.755 11.103-24.755 24.75v233.487c0 13.647 11.105 24.751 24.755 24.751h351.037c13.649 0 24.755-11.104 24.755-24.751v-233.486c0-13.648-11.105-24.751-24.754-24.751zm2.754 258.238c0 1.517-1.235 2.751-2.755 2.751h-351.037c-1.52 0-2.755-1.234-2.755-2.751v-233.487c0-1.517 1.235-2.75 2.755-2.75h54.607c3.937 0 7.572-2.104 9.535-5.516l16.069-27.938c.521-.905 1.221-1.292 2.341-1.292h185.932c1.12 0 1.82.388 2.344 1.296l16.07 27.935c1.963 3.412 5.6 5.515 9.535 5.515h54.604c1.52 0 2.755 1.234 2.755 2.75z"/></g><g fill="#0496FF"><path d="m256 146.204c-61.183 0-110.959 49.854-110.959 111.132 0 61.279 49.776 111.133 110.959 111.133s110.959-49.854 110.959-111.133c0-61.278-49.776-111.132-110.959-111.132zm0 200.265c-49.052 0-88.959-39.985-88.959-89.133s39.907-89.132 88.959-89.132 88.959 39.984 88.959 89.132-39.907 89.133-88.959 89.133z"/><path d="m256 198.753c-32.258 0-58.501 26.28-58.501 58.583s26.243 58.583 58.501 58.583 58.501-26.28 58.501-58.583-26.243-58.583-58.501-58.583zm0 95.166c-20.127 0-36.501-16.411-36.501-36.583s16.374-36.583 36.501-36.583 36.501 16.411 36.501 36.583-16.374 36.583-36.501 36.583z"/><path d="m405.104 177.672h-20.645c-6.075 0-11 4.925-11 11s4.925 11 11 11h20.645c6.075 0 11-4.925 11-11s-4.925-11-11-11z"/></g></g><g/><g/><g/><g/><g/><g/><g/><g/><g/><g/><g/><g/><g/><g/><g/></svg>