<svg id="Capa_1" enable-background="new 0 0 512 512" viewBox="0 0 512 512" xmlns="http://www.w3.org/2000/svg" fill="#052438"><g><g><path d="m448.688 244.828c25.868-16.875 41.312-45.413 41.312-76.339 0-50.158-40.645-90.964-90.603-90.964-35.308 0-67.646 20.824-82.386 53.052-2.527 5.525-22.534-3.626-20.007-9.15 18.31-40.034 58.501-65.901 102.393-65.901 62.089-.002 112.603 50.674 112.603 112.963 0 38.388-19.175 73.814-51.292 94.765-1.855 1.209-17.108-15.108-12.02-18.426z" fill="#0496FF"/></g><g><path d="m378.106 260.051-21.265-5.692-8.476-20.311c-7.264-17.407-18.664-33.063-32.967-45.277-21.581-18.427-49.082-28.576-77.439-28.576-24.889 0-48.75 7.606-69.003 21.996-14.588 10.366-26.398 23.447-35.102 38.88l-8.192 14.526-15.702 5.626c-32.412 11.614-54.188 42.707-54.188 77.371 0 20.823 7.752 40.717 21.829 56.018 13.878 15.084 32.645 24.34 52.843 26.062.311.027.623.04.935.04h228.46c39.205 0 71.101-32.086 71.101-71.525.001-32.378-21.726-60.81-52.834-69.138zm-18.266 118.665h-227.972c-14.531-1.352-28.037-8.087-38.076-18.998-10.331-11.229-16.02-25.833-16.02-41.123 0-25.401 15.917-48.171 39.609-56.66l19.56-7.009c2.488-.892 4.573-2.649 5.871-4.952l10.205-18.096c7.102-12.593 16.751-23.276 28.681-31.752 16.509-11.73 35.964-17.93 56.26-17.93 23.124 0 45.553 8.277 63.153 23.306 11.69 9.982 21.01 22.783 26.951 37.019l10.558 25.302c1.313 3.147 4.012 5.508 7.307 6.39l26.489 7.09c21.505 5.757 36.524 25.449 36.524 47.888.001 27.309-22.026 49.525-49.1 49.525z"/><path d="m397.711 207.695c-10.656-23.488-26.511-44.604-46.091-61.323-31.669-27.042-72.035-41.936-113.661-41.936-36.533 0-71.565 11.171-101.31 32.305-20.216 14.363-36.799 32.326-49.343 53.434-52.393 20.566-87.306 71.655-87.306 128.421 0 34.846 12.981 68.146 36.553 93.766 23.521 25.565 55.422 41.166 89.826 43.928l1.871.15c.293.023.587.035.881.035h230.709c69.958 0 126.874-57.1 126.874-127.285-.001-55.766-36.332-104.968-89.003-121.495zm-37.871 226.781h-230.267l-1.432-.115c-28.864-2.317-55.641-15.42-75.397-36.894-19.826-21.549-30.744-49.559-30.744-78.871 0-48.876 30.769-92.74 76.564-109.15 2.489-.892 4.573-2.649 5.871-4.952 11.162-19.792 26.287-36.553 44.956-49.818 26.001-18.474 56.627-28.239 88.568-28.239 36.393 0 71.685 13.021 99.375 36.666 18.314 15.638 32.907 35.677 42.201 57.949 1.313 3.148 4.013 5.508 7.307 6.39 45.85 12.273 77.872 54.114 77.872 101.749-.001 58.054-47.047 105.285-104.874 105.285z"/></g></g><g/><g/><g/><g/><g/><g/><g/><g/><g/><g/><g/><g/><g/><g/><g/></svg>