<svg id="Capa_1" enable-background="new 0 0 511.942 511.942" viewBox="0 0 511.942 511.942" xmlns="http://www.w3.org/2000/svg" fill="#E6ECF2"><g><g><path d="m378.081 396.834v-169.226c0-41.737-33.946-75.692-75.673-75.692h-111.964c-41.726 0-75.673 33.956-75.673 75.692v169.227c-8.107 6.175-13.061 15.881-13.061 26.34 0 18.243 14.839 33.085 33.079 33.085h223.274c18.239 0 33.078-14.842 33.078-33.085 0-10.459-4.954-20.165-13.06-26.341zm-20.018 37.426h-223.274c-6.109 0-11.079-4.973-11.079-11.085 0-4.366 2.575-8.341 6.56-10.126 3.956-1.773 6.501-5.704 6.501-10.038v-175.403c0-29.606 24.078-53.692 53.673-53.692h111.964c29.596 0 53.673 24.086 53.673 53.692v175.402c0 4.334 2.546 8.265 6.501 10.038 3.985 1.786 6.56 5.761 6.56 10.126-.001 6.114-4.97 11.086-11.079 11.086z"/><path d="m433.746 376.855v-149.247c0-35.48-11.748-68.285-33.081-92.372-18.929-21.372-44.419-34.585-72.927-38.074l14.925-40.862c.022-.059.043-.119.063-.179 4.191-12.119.547-25.267-9.283-33.499-9.825-8.228-23.404-9.505-34.593-3.254l-12.093 6.756-19.56-18.06c-11.648-10.753-29.896-10.754-41.543 0l-19.561 18.06-12.092-6.756c-11.188-6.251-24.767-4.974-34.593 3.254-9.831 8.231-13.474 21.38-9.284 33.499.021.06.042.119.063.179l14.925 40.862c-28.508 3.489-53.998 16.702-72.927 38.074-21.333 24.086-33.082 56.891-33.082 92.372v149.248c-8.555 13.972-13.061 29.914-13.061 46.319 0 48.947 39.81 88.768 88.744 88.768h223.274c48.934 0 88.744-39.821 88.744-88.768.003-16.407-4.502-32.349-13.058-46.32zm-75.683 113.087h-223.274c-36.803 0-66.744-29.952-66.744-66.768 0-13.194 3.878-25.992 11.216-37.013 1.203-1.806 1.844-3.927 1.844-6.097v-152.456c0-63.376 41.803-109.375 99.397-109.375 3.591 0 6.956-1.753 9.014-4.696s2.55-6.705 1.318-10.078l-19.941-54.599c-1.75-5.176 1.575-8.478 2.64-9.369 1.068-.895 4.928-3.604 9.738-.916l19.058 10.647c4.154 2.322 9.331 1.707 12.827-1.521l25.422-23.472c3.28-3.027 8.417-3.027 11.696 0l25.422 23.472c3.497 3.227 8.672 3.843 12.827 1.521l19.058-10.647c4.809-2.688 8.669.021 9.738.916 1.064.892 4.389 4.193 2.641 9.368l-19.943 54.6c-1.232 3.373-.74 7.135 1.317 10.078 2.059 2.943 5.424 4.696 9.015 4.696 57.595 0 99.397 45.999 99.397 109.375v152.457c0 2.17.642 4.291 1.845 6.097 7.338 11.019 11.217 23.818 11.217 37.013-.001 36.816-29.942 66.767-66.745 66.767z"/></g><g fill="#0496FF"><path d="m260.779 300.292c-14.78-5.225-23.442-8.691-26.369-10.072-7.265-3.427-8.459-8.603-8.182-12.341.421-5.684 4.4-11.073 9.254-12.536 15.217-4.586 25.339.303 28.43 4.708 3.488 4.974 10.348 6.176 15.322 2.688 4.974-3.489 6.177-10.349 2.688-15.322-5.047-7.195-14.165-13.211-26.055-15.214v-2.003c0-6.075-4.925-11-11-11s-11 4.925-11 11v2.83c-1.555.351-3.132.766-4.732 1.248-13.536 4.079-23.753 17.227-24.847 31.973-1.081 14.572 6.671 27.232 20.737 33.867 4.602 2.17 15.227 6.251 28.42 10.916 12.52 4.427 17.217 14.359 16.282 21.714-.968 7.619-7.706 12.529-18.486 13.472-10.131.885-24.048-1.905-30.665-10.123-3.809-4.731-10.734-5.479-15.466-1.668-4.732 3.81-5.479 10.734-1.668 15.466 7.784 9.668 19.243 14.87 30.426 17.11v1.263c0 6.075 4.925 11 11 11s11-4.925 11-11v-.427c23.612-3.096 33.934-18.532 35.686-32.32 2.456-19.354-10.198-37.953-30.775-45.229z"/><path d="m418.878 27.178c-6.075 0-11 4.925-11 11v11.992c0 6.075 4.925 11 11 11s11-4.925 11-11v-11.992c0-6.075-4.925-11-11-11z"/><path d="m418.878 87.247c-6.075 0-11 4.925-11 11v11.992c0 6.075 4.925 11 11 11s11-4.925 11-11v-11.992c0-6.076-4.925-11-11-11z"/><path d="m454.897 63.208h-11.988c-6.075 0-11 4.925-11 11s4.925 11 11 11h11.988c6.075 0 11-4.925 11-11s-4.925-11-11-11z"/><path d="m394.847 63.208h-11.989c-6.075 0-11 4.925-11 11s4.925 11 11 11h11.989c6.075 0 11-4.925 11-11s-4.924-11-11-11z"/></g></g><g/><g/><g/><g/><g/><g/><g/><g/><g/><g/><g/><g/><g/><g/><g/></svg>