<svg id="Capa_1" enable-background="new 0 0 512 512" viewBox="0 0 512 512" xmlns="http://www.w3.org/2000/svg" fill="#052438"><g><path d="m481 69.996h-151.078l-22.432-38.813c-11.453-19.818-30.267-31.183-51.621-31.183h-.013c-20.736.005-40.061 11.17-50.436 29.138l-23.589 40.858h-150.831c-17.094 0-31 13.906-31 31v300.001c0 17.093 13.906 31 31 31h167.935l-11.89 58.003h-11.045c-6.075 0-11 4.925-11 11s4.925 11 11 11h160c6.075 0 11-4.925 11-11s-4.925-11-11-11h-11.045l-11.89-58.003h167.935c17.094 0 31-13.906 31-31v-300.001c0-17.094-13.906-31-31-31zm-256.527-29.858c6.458-11.185 18.485-18.135 31.389-18.138h.007c13.285 0 25.159 7.359 32.575 20.191l74.61 129.098c6.522 11.288 6.559 24.178.099 35.367-6.632 11.488-18.472 18.344-31.678 18.344h-.017l-151.528-.066c-12.856-.005-24.427-6.759-30.951-18.066-6.5-11.264-6.557-24.611-.152-35.704zm-193.473 51.858h138.129l-39.356 68.167c-10.38 17.979-10.324 39.548.149 57.699 10.5 18.194 29.19 29.062 49.997 29.071l151.529.067h.025c20.843 0 40.281-11.242 50.731-29.343 10.344-17.916 10.305-39.364-.104-57.375l-39.464-68.286h138.364c4.963 0 9 4.037 9 9v264h-468v-264c0-4.963 4.037-9 9-9zm271.497 398.004h-92.993l11.89-58.003h69.213zm178.503-80.003h-450c-4.963 0-9-4.037-9-9v-14.001h468v14.001c0 4.962-4.037 9-9 9z"/><g><g><path d="m256 155.548c-6.075 0-11-4.925-11-11v-61.548c0-6.075 4.925-11 11-11s11 4.925 11 11v61.548c0 6.076-4.925 11-11 11z" fill="#0496FF"/></g><g><path d="m256.004 194.9c-6.075 0-11.004-4.925-11.004-11s4.922-11 10.997-11h.007c6.075 0 11 4.925 11 11s-4.925 11-11 11z" fill="#0496FF"/></g><g><path d="m370.619 341.982c-6.075 0-11-4.925-11-11v-12.5c0-6.075 4.925-11 11-11s11 4.925 11 11v12.5c0 6.075-4.925 11-11 11z" fill="#0496FF"/></g><g><path d="m427.928 341.982c-6.075 0-11-4.925-11-11v-38.146c0-6.075 4.925-11 11-11s11 4.925 11 11v38.146c0 6.075-4.925 11-11 11z" fill="#0496FF"/></g><g><path d="m313.31 341.982c-6.075 0-11-4.925-11-11v-25c0-6.075 4.925-11 11-11s11 4.925 11 11v25c0 6.075-4.925 11-11 11z" fill="#0496FF"/></g><g><path d="m256 341.982c-6.075 0-11-4.925-11-11v-50c0-6.075 4.925-11 11-11s11 4.925 11 11v50c0 6.075-4.925 11-11 11z" fill="#0496FF"/></g><g><path d="m198.69 341.982c-6.075 0-11-4.925-11-11v-25c0-6.075 4.925-11 11-11s11 4.925 11 11v25c0 6.075-4.924 11-11 11z" fill="#0496FF"/></g><g><path d="m141.381 341.982c-6.075 0-11-4.925-11-11v-50c0-6.075 4.925-11 11-11s11 4.925 11 11v50c0 6.075-4.925 11-11 11z" fill="#0496FF"/></g><g><path d="m84.072 341.982c-6.075 0-11-4.925-11-11v-38.146c0-6.075 4.925-11 11-11s11 4.925 11 11v38.146c0 6.075-4.925 11-11 11z" fill="#0496FF"/></g></g></g><g/><g/><g/><g/><g/><g/><g/><g/><g/><g/><g/><g/><g/><g/><g/></svg>