<svg id="Capa_1" enable-background="new 0 0 512 512" viewBox="0 0 512 512" xmlns="http://www.w3.org/2000/svg" fill="#052438"><g><g><path d="m442.667 350h-4.167v-127.501c0-18.472-15.028-33.5-33.5-33.5s-33.5 15.028-33.5 33.5v127.501h-231v-127.501c0-18.472-15.028-33.5-33.5-33.5s-33.5 15.028-33.5 33.5v127.501h-4.167c-18.931 0-34.333 15.401-34.333 34.333v93.334c0 18.932 15.402 34.333 34.333 34.333h373.334c18.931 0 34.333-15.401 34.333-34.333v-93.334c0-18.932-15.402-34.333-34.333-34.333zm-49.167-127.501c0-6.341 5.159-11.5 11.5-11.5s11.5 5.159 11.5 11.5v127.501h-23zm-298 0c0-6.341 5.159-11.5 11.5-11.5s11.5 5.159 11.5 11.5v127.501h-23zm359.5 255.168c0 6.801-5.533 12.333-12.333 12.333h-373.334c-6.8 0-12.333-5.532-12.333-12.333v-93.334c0-6.801 5.533-12.333 12.333-12.333h373.334c6.8 0 12.333 5.532 12.333 12.333z"/><path d="m253.153 263.01c.933.25 1.89.375 2.847.375s1.915-.125 2.847-.375c102.296-27.41 116.089-115.493 116.089-198.042 0-6.075-4.925-11-11-11-23.692 0-42.968-19.275-42.968-42.968 0-6.075-4.925-11-11-11h-107.936c-6.075 0-11 4.925-11 11 0 23.692-19.275 42.968-42.968 42.968-6.075 0-11 4.925-11 11 0 82.549 13.793 170.632 116.089 198.042zm-41.052-241.01h87.799c4.623 27.004 25.971 48.369 52.964 53.023-1.097 73.43-15.461 142.652-96.863 165.947-81.402-23.295-95.766-92.518-96.863-165.947 26.992-4.654 48.34-26.019 52.963-53.023z"/></g><g><g><path d="m142.75 465.899c-18.472 0-33.5-15.028-33.5-33.5s15.028-33.5 33.5-33.5 33.5 15.028 33.5 33.5-15.028 33.5-33.5 33.5zm0-45c-6.341 0-11.5 5.159-11.5 11.5s5.159 11.5 11.5 11.5 11.5-5.159 11.5-11.5-5.159-11.5-11.5-11.5z" fill="#0496FF"/></g><g><path d="m369.25 465.899h-132c-18.472 0-33.5-15.028-33.5-33.5s15.028-33.5 33.5-33.5h132c18.472 0 33.5 15.028 33.5 33.5s-15.028 33.5-33.5 33.5zm-132-45c-6.341 0-11.5 5.159-11.5 11.5s5.159 11.5 11.5 11.5h132c6.341 0 11.5-5.159 11.5-11.5s-5.159-11.5-11.5-11.5z" fill="#0496FF"/></g><g><path d="m312.568 121.123c-2.815 0-5.63-1.074-7.778-3.222-13.032-13.032-30.359-20.209-48.79-20.209s-35.758 7.177-48.79 20.209c-4.296 4.295-11.261 4.295-15.557 0-4.295-4.296-4.295-11.261 0-15.557 17.188-17.186 40.039-26.652 64.347-26.652s47.159 9.466 64.347 26.652c4.295 4.296 4.295 11.261 0 15.557-2.148 2.148-4.964 3.222-7.779 3.222z" fill="#0496FF"/></g><g><path d="m284.284 154.407c-2.815 0-5.63-1.074-7.778-3.222-5.478-5.477-12.76-8.493-20.506-8.493s-15.029 3.017-20.506 8.493c-4.296 4.295-11.261 4.294-15.556 0-4.296-4.296-4.295-11.261 0-15.557 9.632-9.632 22.439-14.937 36.062-14.937s26.43 5.305 36.062 14.937c4.296 4.296 4.296 11.261 0 15.557-2.147 2.148-4.963 3.222-7.778 3.222z" fill="#0496FF"/></g><g><path d="m256.004 187.692h-.008c-6.075 0-11-4.925-11-11s4.925-11 11-11 11.004 4.925 11.004 11-4.921 11-10.996 11z" fill="#0496FF"/></g></g></g><g/><g/><g/><g/><g/><g/><g/><g/><g/><g/><g/><g/><g/><g/><g/></svg>