<svg id="Capa_1" enable-background="new 0 0 512 512" viewBox="0 0 512 512" xmlns="http://www.w3.org/2000/svg" fill="#E6ECF2"><g><g fill="#0496FF"><path d="m188.34 216.21c2.702 7.1 12.722 9.078 17.94 3.57 6.19-6.006 2.861-17.017-5.631-18.569-8.428-1.827-15.755 7.084-12.309 14.999z"/><path d="m264.256 223h49.311c6.075 0 11-4.925 11-11s-4.925-11-11-11h-49.311c-6.075 0-11 4.925-11 11s4.925 11 11 11z"/><path d="m187.71 302.15c1.279 7.485 10.702 11.391 16.9 7 8.09-5.32 5.554-18.112-3.96-19.94-7.398-1.7-14.642 5.542-12.94 12.94z"/><path d="m324.566 300c0-6.075-4.925-11-11-11h-49.311c-6.075 0-11 4.925-11 11s4.925 11 11 11h49.311c6.076 0 11-4.925 11-11z"/><path d="m151.902 339.746h22v155.007h-22z" transform="matrix(.5 -.866 .866 .5 -279.898 349.702)"/><path d="m58.805 178.5h22v155h-22z"/><path d="m85.399 83.75h155.007v22h-155.007z" transform="matrix(.866 -.5 .5 .866 -25.55 94.145)"/><path d="m338.098 17.246h22v155.007h-22z" transform="matrix(.5 -.866 .866 .5 92.493 349.702)"/><path d="m431.195 178.5h22v155h-22z"/><path d="m271.594 406.25h155.007v22h-155.007z" transform="matrix(.866 -.5 .5 .866 -161.854 230.448)"/></g><g><path d="m357.5 157h-203c-6.075 0-11 4.925-11 11v176c0 6.075 4.925 11 11 11h203c6.075 0 11-4.925 11-11v-176c0-6.075-4.925-11-11-11zm-192 22h181v66h-181zm181 154h-181v-66h181z"/><path d="m256 82c22.607 0 41-18.393 41-41s-18.393-41-41-41-41 18.393-41 41 18.393 41 41 41zm0-60c10.477 0 19 8.523 19 19s-8.523 19-19 19-19-8.523-19-19 8.523-19 19-19z"/><path d="m69.805 107.5c-22.607 0-41 18.393-41 41s18.393 41 41 41 41-18.393 41-41-18.393-41-41-41zm0 60c-10.477 0-19-8.523-19-19s8.523-19 19-19 19 8.523 19 19-8.524 19-19 19z"/><path d="m442.195 189.5c22.607 0 41-18.393 41-41s-18.393-41-41-41-41 18.393-41 41 18.393 41 41 41zm0-60c10.477 0 19 8.523 19 19s-8.523 19-19 19-19-8.523-19-19 8.524-19 19-19z"/><path d="m69.805 322.5c-22.607 0-41 18.393-41 41s18.393 41 41 41 41-18.393 41-41-18.393-41-41-41zm0 60c-10.477 0-19-8.523-19-19s8.523-19 19-19 19 8.523 19 19-8.524 19-19 19z"/><path d="m442.195 322.5c-22.607 0-41 18.393-41 41s18.393 41 41 41 41-18.393 41-41-18.392-41-41-41zm0 60c-10.477 0-19-8.523-19-19s8.523-19 19-19 19 8.523 19 19-8.523 19-19 19z"/><path d="m256 430c-22.607 0-41 18.393-41 41s18.393 41 41 41 41-18.393 41-41-18.393-41-41-41zm0 60c-10.477 0-19-8.523-19-19s8.523-19 19-19 19 8.523 19 19-8.523 19-19 19z"/></g></g><g/><g/><g/><g/><g/><g/><g/><g/><g/><g/><g/><g/><g/><g/><g/></svg>