<svg id="Capa_1" enable-background="new 0 0 512.001 512.001" viewBox="0 0 512.001 512.001" xmlns="http://www.w3.org/2000/svg" fill="#052438"><g><g><path d="m224.503 393.508h-.001c-6.075-.001-11-4.926-10.999-11.001.004-29.824.009-58.494.014-72.218-15.114-8.696-27.457-22.441-35.184-39.343-8.616-18.847-10.607-39.476-5.606-58.086 9.32-34.684 35.033-57.674 70.544-63.075 3.671-.556 7.378.774 9.854 3.542 2.476 2.769 3.387 6.6 2.423 10.188l-16.279 60.577 15.592 15.592 21.353-5.738 16.283-60.593c.963-3.582 3.666-6.438 7.19-7.596 3.526-1.156 7.396-.46 10.294 1.853 25.17 20.086 37.843 58.705 29.479 89.829-6.538 24.329-19.618 41.294-40.919 52.887-.005 12.091-.009 35.662-.014 61.409l-.002 10.764c-.001 6.075-4.926 10.998-11 10.998-.001 0-.001 0-.002 0-6.075-.001-10.999-4.927-10.998-11.002l.002-10.765c.006-32.198.012-60.991.018-68.198.004-4.286 2.496-8.18 6.388-9.977 19.239-8.886 29.79-21.395 35.281-41.825 4.57-17.007.371-37.677-9.705-53.193l-12.695 47.242c-1.019 3.79-3.979 6.75-7.769 7.768l-33.614 9.034c-3.796 1.021-7.852-.063-10.633-2.845l-24.582-24.582c-2.781-2.781-3.865-6.835-2.845-10.633l12.947-48.175c-17.618 7.498-29.923 22.04-35.347 42.224-7.773 28.928 7.986 62.587 35.131 75.033 3.912 1.793 6.419 5.705 6.416 10.008-.007 7.985-.012 42.586-.018 78.9.002 6.073-4.923 10.997-10.997 10.997z" fill="#0496FF"/></g><path d="m474.456 112.792c-16.876 0-31.187 11.192-35.9 26.544h-39.468c-32.434 0-58.993-25.637-60.478-57.711l19.099-33.082h26.839c4.713 15.351 19.023 26.544 35.9 26.544 20.702 0 37.544-16.842 37.544-37.544s-16.842-37.543-37.544-37.543c-16.876 0-31.187 11.193-35.9 26.544h-33.189c-3.93 0-7.562 2.097-9.526 5.5l-20.639 35.748h-130.387l-20.639-35.748c-1.965-3.403-5.597-5.5-9.526-5.5h-33.19c-4.713-15.351-19.023-26.544-35.899-26.544-20.702 0-37.544 16.842-37.544 37.544s16.842 37.544 37.544 37.544c16.876 0 31.186-11.193 35.899-26.544h26.839l19.099 33.081c-1.485 32.074-28.044 57.711-60.479 57.711h-39.467c-4.713-15.352-19.024-26.544-35.9-26.544-20.701 0-37.544 16.842-37.544 37.544s16.842 37.544 37.544 37.544c16.876 0 31.187-11.192 35.9-26.544h28.526c.505 45.121 4.613 100.094 25.684 146.31 6.578 14.428 14.472 27.41 23.73 38.988v43.005l-12.645 12.645c-5.252-2.799-11.244-4.387-17.6-4.387-20.702 0-37.544 16.842-37.544 37.544s16.842 37.544 37.544 37.544 37.543-16.842 37.543-37.544c0-6.356-1.588-12.347-4.387-17.6l15.867-15.867c2.063-2.063 3.222-4.861 3.222-7.778v-24.841c19.549 16.676 43.334 29.186 71.616 37.74v31.464c-15.351 4.713-26.544 19.024-26.544 35.9 0 20.702 16.842 37.544 37.544 37.544s37.544-16.842 37.544-37.544c0-16.876-11.193-31.186-26.544-35.899v-31.464c28.282-8.554 52.067-21.064 71.615-37.74v24.841c0 2.917 1.159 5.715 3.222 7.778l15.868 15.868c-2.799 5.252-4.387 11.244-4.387 17.6 0 20.702 16.842 37.544 37.544 37.544s37.544-16.842 37.544-37.544-16.842-37.544-37.544-37.544c-6.356 0-12.348 1.588-17.6 4.388l-12.646-12.645v-43.005c9.258-11.577 17.151-24.559 23.729-38.987 21.072-46.216 25.179-101.189 25.684-146.31h28.527c4.713 15.352 19.023 26.544 35.899 26.544 20.702 0 37.545-16.842 37.545-37.544.001-20.706-16.842-37.548-37.544-37.548zm-54.008-90.792c8.571 0 15.544 6.973 15.544 15.544s-6.973 15.544-15.544 15.544-15.544-6.973-15.544-15.544 6.973-15.544 15.544-15.544zm-328.895 31.088c-8.571 0-15.544-6.973-15.544-15.544s6.973-15.544 15.544-15.544 15.543 6.973 15.543 15.544-6.972 15.544-15.543 15.544zm-54.009 112.792c-8.571 0-15.544-6.973-15.544-15.544s6.973-15.543 15.544-15.543c8.563 0 15.531 6.959 15.544 15.518v.026.025c-.014 8.559-6.981 15.518-15.544 15.518zm83.595 285.104c-8.571 0-15.544-6.973-15.544-15.544s6.973-15.544 15.544-15.544 15.543 6.973 15.543 15.544-6.972 15.544-15.543 15.544zm134.861 39.017c-8.571 0-15.544-6.973-15.544-15.544s6.973-15.544 15.544-15.544 15.544 6.973 15.544 15.544-6.973 15.544-15.544 15.544zm150.406-54.561c0 8.571-6.973 15.544-15.544 15.544s-15.544-6.973-15.544-15.544 6.973-15.544 15.544-15.544 15.544 6.974 15.544 15.544zm-150.406-48.054c-112.179-31.551-130.919-126.595-132.033-226.787 36.709-4.935 65.849-34.089 70.759-70.807h122.548c4.91 36.718 34.05 65.873 70.759 70.807-1.114 100.192-19.855 195.235-132.033 226.787zm218.456-221.506c-8.554 0-15.516-6.945-15.544-15.493 0-.017.001-.034.001-.051s-.001-.034-.001-.051c.028-8.547 6.989-15.493 15.544-15.493 8.571 0 15.545 6.973 15.545 15.543 0 8.572-6.974 15.545-15.545 15.545z"/></g><g/><g/><g/><g/><g/><g/><g/><g/><g/><g/><g/><g/><g/><g/><g/></svg>