<svg id="Capa_1" enable-background="new 0 0 512 512" viewBox="0 0 512 512" xmlns="http://www.w3.org/2000/svg" fill="#E6ECF2"><g><g><g><path d="m362.933 82h-151.927c-6.075 0-11-4.925-11-11v-55c0-6.075 4.925-11 11-11s11 4.925 11 11v44h129.928v-44c0-6.075 4.925-11 11-11s11 4.925 11 11v55c-.001 6.076-4.925 11-11.001 11z" fill="#0496FF"/></g><g><path d="m378.057 420.548c-6.075 0-11-4.925-11-11v-61.548c0-6.075 4.925-11 11-11s11 4.925 11 11v61.548c0 6.076-4.924 11-11 11z" fill="#0496FF"/></g><g><path d="m378.061 459.901c-6.075 0-11.003-4.925-11.003-11s4.921-11 10.996-11h.007c6.075 0 11 4.925 11 11s-4.924 11-11 11z" fill="#0496FF"/></g><g><path d="m32.426 184.498c-6.075 0-11-4.925-11-11v-34.995c0-6.075 4.925-11 11-11s11 4.925 11 11v34.995c0 6.075-4.925 11-11 11z" fill="#0496FF"/></g><g><path d="m391.507 184.498c-6.075 0-11-4.925-11-11v-34.995c0-6.075 4.925-11 11-11s11 4.925 11 11v34.995c0 6.075-4.925 11-11 11z" fill="#0496FF"/></g><g><path d="m32.426 355.623c-6.075 0-11-4.925-11-11v-37.244c0-6.075 4.925-11 11-11s11 4.925 11 11v37.244c0 6.075-4.925 11-11 11z" fill="#0496FF"/></g></g><g><path d="m11.007 142h401.919c6.075 0 11-4.925 11-11v-120c0-6.075-4.925-11-11-11h-401.919c-6.075 0-11 4.925-11 11v120c0 6.075 4.925 11 11 11zm11-120h379.919v98h-379.919z"/><path d="m61.014 60h-.008c-6.075 0-10.996 4.925-10.996 11s4.929 11 11.004 11 11-4.925 11-11-4.925-11-11-11z"/><path d="m111.014 60h-.007c-6.075 0-10.996 4.925-10.996 11s4.928 11 11.003 11 11-4.925 11-11-4.925-11-11-11z"/><path d="m161.013 60h-.007c-6.075 0-10.997 4.925-10.997 11s4.929 11 11.004 11 11-4.925 11-11-4.925-11-11-11z"/><path d="m61.014 230h-.008c-6.075 0-10.996 4.925-10.996 11s4.929 11 11.004 11 11-4.925 11-11-4.925-11-11-11z"/><path d="m111.014 230h-.007c-6.075 0-10.996 4.925-10.996 11s4.928 11 11.003 11 11-4.925 11-11-4.925-11-11-11z"/><path d="m161.013 230h-.007c-6.075 0-10.997 4.925-10.997 11s4.929 11 11.004 11 11-4.925 11-11-4.925-11-11-11z"/><path d="m61.014 400h-.008c-6.075 0-10.996 4.925-10.996 11s4.929 11 11.004 11 11-4.925 11-11-4.925-11-11-11z"/><path d="m111.014 400h-.007c-6.075 0-10.996 4.925-10.996 11s4.928 11 11.003 11 11-4.925 11-11-4.925-11-11-11z"/><path d="m161.013 400h-.007c-6.075 0-10.997 4.925-10.997 11s4.929 11 11.004 11 11-4.925 11-11-4.925-11-11-11z"/><path d="m504.158 425.282-74.61-129.099c-1.715-2.967-3.594-5.744-5.623-8.322v-106.861c0-6.075-4.925-11-11-11h-401.918c-6.075 0-11 4.925-11 11v120c0 6.075 4.925 11 11 11h306.158l-16.166 28h-289.992c-6.075 0-11 4.925-11 11v120c0 6.075 4.925 11 11 11h240.485c.16.288.323.576.488.862 10.499 18.194 29.189 29.062 49.997 29.071l151.529.067h.025c20.843 0 40.281-11.242 50.731-29.343 10.344-17.915 10.305-39.365-.104-57.375zm-482.151-233.282h379.919v78.223c-7.394-3.421-15.495-5.223-23.999-5.223h-.013c-19.094.005-36.992 9.471-47.807 25h-308.1v-98zm0 268v-98h266.291l-36.467 63.163c-6.248 10.821-8.715 22.943-7.405 34.837zm463.203 11.657c-6.632 11.487-18.472 18.343-31.678 18.343h-.017l-151.529-.065c-12.856-.006-24.427-6.76-30.952-18.066-6.5-11.264-6.557-24.611-.152-35.704l75.647-131.025c6.458-11.185 18.485-18.135 31.388-18.138h.008c13.285 0 25.159 7.359 32.574 20.19l74.61 129.099c6.525 11.287 6.561 24.177.101 35.366z"/></g></g><g/><g/><g/><g/><g/><g/><g/><g/><g/><g/><g/><g/><g/><g/><g/></svg>