<svg id="Capa_1" enable-background="new 0 0 512 512" viewBox="0 0 512 512" xmlns="http://www.w3.org/2000/svg" fill="#052438"><g><g><path d="m278.5 0h-230c-22.607 0-41 18.393-41 41v430c0 22.607 18.393 41 41 41h230c22.607 0 41-18.393 41-41v-119.999c0-6.075-4.925-11-11-11s-11 4.925-11 11v119.999c0 10.477-8.523 19-19 19h-230c-10.477 0-19-8.523-19-19v-430c0-10.477 8.523-19 19-19h39.571l12.493 37.479c1.497 4.492 5.701 7.521 10.436 7.521h105c4.735 0 8.938-3.03 10.436-7.521l12.492-37.479h39.572c10.477 0 19 8.523 19 19v120c0 6.075 4.925 11 11 11s11-4.925 11-11v-120c0-22.607-18.393-41-41-41zm-70.428 45h-89.144l-7.666-23h104.477z"/><path d="m142.5 456c0 6.075 4.925 11 11 11h20c6.075 0 11-4.925 11-11s-4.925-11-11-11h-20c-6.075 0-11 4.925-11 11z"/><path d="m132.65 197.494c-5.868-1.573-11.899 1.911-13.472 7.778-4.432 16.54-6.679 33.607-6.679 50.728s2.247 34.189 6.679 50.729c1.316 4.915 5.761 8.156 10.618 8.156.942 0 1.9-.122 2.854-.378 5.868-1.572 9.351-7.604 7.778-13.472-3.934-14.684-5.929-29.836-5.929-45.035s1.995-30.351 5.929-45.035c1.573-5.868-1.91-11.899-7.778-13.471z"/><path d="m497.821 205.271c-1.572-5.868-7.602-9.353-13.472-7.778-5.868 1.572-9.351 7.604-7.778 13.472 3.934 14.683 5.929 29.835 5.929 45.035s-1.995 30.352-5.929 45.035c-1.573 5.867 1.91 11.899 7.778 13.472.954.256 1.912.378 2.854.378 4.856 0 9.301-3.241 10.618-8.156 4.432-16.539 6.679-33.606 6.679-50.729 0-17.122-2.247-34.189-6.679-50.729z"/><path d="m176.117 209.141c-5.871-1.574-11.9 1.911-13.472 7.778-3.415 12.743-5.146 25.891-5.146 39.082s1.731 26.34 5.146 39.081c1.317 4.915 5.761 8.156 10.618 8.156.942 0 1.9-.122 2.854-.378 5.868-1.572 9.351-7.604 7.778-13.472-2.917-10.886-4.396-22.119-4.396-33.388s1.479-22.501 4.396-33.387c1.573-5.868-1.91-11.9-7.778-13.472z"/><path d="m440.883 209.141c-5.868 1.572-9.351 7.604-7.778 13.472 2.916 10.884 4.395 22.118 4.395 33.387 0 11.271-1.479 22.503-4.395 33.388-1.573 5.868 1.91 11.899 7.778 13.472.954.256 1.912.378 2.854.378 4.856 0 9.302-3.241 10.618-8.156 3.414-12.74 5.145-25.889 5.145-39.081 0-13.191-1.731-26.34-5.145-39.082-1.572-5.869-7.604-9.351-13.472-7.778z"/></g><g><g><path d="m328.499 357.001h-39.999c-5.605 0-10.313-4.215-10.933-9.785l-1.906-17.149c-5.252-2.327-10.224-5.202-14.873-8.602l-15.818 6.931c-5.136 2.248-11.138.279-13.941-4.575l-20-34.641c-2.803-4.854-1.507-11.039 3.008-14.36l13.915-10.236c-.302-2.852-.454-5.721-.454-8.583 0-2.864.152-5.733.453-8.583l-13.915-10.236c-4.515-3.322-5.81-9.507-3.008-14.361l20-34.64c2.802-4.854 8.806-6.826 13.941-4.575l15.819 6.931c4.649-3.399 9.62-6.273 14.871-8.6l1.906-17.15c.619-5.571 5.328-9.785 10.933-9.785h40c5.605 0 10.314 4.214 10.933 9.785l1.906 17.15c5.251 2.327 10.221 5.201 14.871 8.6l15.819-6.931c5.134-2.251 11.138-.279 13.941 4.575l20 34.64c2.802 4.854 1.507 11.039-3.008 14.36l-13.914 10.236c.301 2.85.453 5.719.453 8.583s-.152 5.733-.453 8.583l13.914 10.236c4.515 3.321 5.811 9.506 3.008 14.36l-20 34.641c-2.802 4.854-8.806 6.826-13.94 4.575l-15.82-6.931c-4.649 3.398-9.62 6.273-14.871 8.601l-1.906 17.15c-.618 5.571-5.327 9.786-10.932 9.786zm-30.154-22h20.309l1.551-13.96c.471-4.235 3.345-7.817 7.377-9.194 7.265-2.482 13.9-6.319 19.72-11.405 3.209-2.804 7.751-3.504 11.652-1.792l12.885 5.645 10.154-17.588-11.319-8.327c-3.429-2.521-5.095-6.796-4.277-10.973.732-3.74 1.103-7.577 1.103-11.406s-.371-7.666-1.103-11.406c-.817-4.177.849-8.451 4.277-10.973l11.319-8.327-10.154-17.587-12.884 5.645c-3.905 1.71-8.444 1.011-11.653-1.792-5.819-5.086-12.454-8.923-19.719-11.405-4.032-1.377-6.907-4.96-7.377-9.195l-1.552-13.961h-20.309l-1.551 13.959c-.47 4.235-3.345 7.817-7.377 9.195-7.265 2.481-13.9 6.319-19.719 11.405-3.209 2.805-7.75 3.503-11.653 1.792l-12.884-5.645-10.154 17.587 11.32 8.327c3.428 2.522 5.094 6.796 4.277 10.973-.732 3.74-1.103 7.578-1.103 11.406 0 3.823.372 7.66 1.104 11.405.817 4.177-.849 8.451-4.277 10.973l-11.321 8.328 10.154 17.588 12.883-5.645c3.905-1.709 8.446-1.011 11.654 1.793 5.817 5.085 12.451 8.923 19.719 11.405 4.032 1.377 6.906 4.959 7.377 9.194z" fill="#0496FF"/></g><g><path d="m308.5 292c-19.851 0-36-16.149-36-36s16.149-36 36-36 36 16.149 36 36-16.15 36-36 36zm0-50c-7.72 0-14 6.28-14 14s6.28 14 14 14 14-6.28 14-14-6.281-14-14-14z" fill="#0496FF"/></g></g></g><g/><g/><g/><g/><g/><g/><g/><g/><g/><g/><g/><g/><g/><g/><g/></svg>