<svg id="Capa_1" enable-background="new 0 0 512 512" viewBox="0 0 512 512" xmlns="http://www.w3.org/2000/svg" fill="#052438"><g><path d="m481 324.999h-54v-223.998c0-6.075-4.925-11-11-11h-76.168l10.63-7.819c4.515-3.321 5.811-9.507 3.008-14.361l-20-34.64c-2.804-4.854-8.811-6.827-13.94-4.575l-15.819 6.931c-4.648-3.398-9.62-6.273-14.871-8.601l-1.906-17.15c-.621-5.571-5.33-9.786-10.934-9.786h-40c-5.605 0-10.314 4.214-10.933 9.785l-1.906 17.15c-5.25 2.327-10.222 5.202-14.871 8.601l-15.819-6.931c-5.137-2.251-11.138-.279-13.941 4.575l-20 34.64c-2.802 4.854-1.507 11.039 3.008 14.36l10.629 7.82h-76.167c-6.075 0-11 4.925-11 11v223.999h-54c-17.093 0-31 13.907-31 31.001v80c0 17.094 13.907 31 31 31h54v22.999h-19.907c-6.075 0-11 4.925-11 11s4.925 11 11 11h61.813c6.075 0 11-4.925 11-11s-4.925-11-11-11h-19.906v-22.999h54c17.093 0 31-13.906 31-31v-80c0-17.094-13.906-31.001-31-31.001h-54v-212.998h65.169l-10.63 7.82c-4.515 3.321-5.81 9.506-3.008 14.36l20 34.64c2.803 4.854 8.805 6.825 13.941 4.575l15.818-6.93c4.649 3.398 9.62 6.273 14.873 8.601l1.906 17.149c.619 5.571 5.328 9.785 10.933 9.785h39.998c5.604 0 10.313-4.214 10.933-9.785l1.906-17.15c5.25-2.327 10.221-5.202 14.87-8.601l15.82 6.931c5.132 2.248 11.137.28 13.94-4.575l20-34.64c2.803-4.854 1.507-11.039-3.008-14.36l-10.63-7.82h65.169v212.999h-54c-17.094 0-31 13.907-31 31.001v80c0 17.094 13.906 31 31 31h54v22.999h-19.906c-6.075 0-11 4.925-11 11s4.925 11 11 11h61.813c6.075 0 11-4.925 11-11s-4.925-11-11-11h-19.907v-23h54c17.093 0 31-13.906 31-31v-80c0-17.094-13.907-31.001-31-31.001zm-311 31.001v80c0 4.963-4.037 9-9 9h-130c-4.962 0-9-4.037-9-9v-80c0-4.963 4.038-9.001 9-9.001h130c4.963 0 9 4.038 9 9.001zm149.339-206.705-12.885-5.645c-3.901-1.709-8.443-1.012-11.652 1.792-5.82 5.086-12.455 8.923-19.721 11.406-4.031 1.377-6.905 4.959-7.376 9.194l-1.552 13.959h-20.308l-1.551-13.958c-.471-4.235-3.344-7.817-7.376-9.194-7.269-2.483-13.903-6.32-19.72-11.405-3.208-2.805-7.75-3.505-11.654-1.793l-12.883 5.645-10.154-17.587 11.321-8.329c3.428-2.521 5.094-6.795 4.277-10.972-.733-3.748-1.104-7.585-1.104-11.406 0-3.829.371-7.666 1.103-11.406.817-4.177-.849-8.451-4.277-10.973l-11.319-8.327 10.154-17.587 12.884 5.645c3.904 1.711 8.444 1.012 11.653-1.792 5.82-5.086 12.455-8.923 19.72-11.405 4.032-1.377 6.907-4.96 7.377-9.195l1.55-13.962h20.308l1.552 13.959c.471 4.235 3.345 7.817 7.377 9.195 7.267 2.482 13.901 6.319 19.719 11.404 3.209 2.804 7.75 3.504 11.653 1.793l12.885-5.645 10.154 17.587-11.32 8.327c-3.429 2.522-5.095 6.797-4.276 10.974.731 3.737 1.103 7.575 1.103 11.405s-.371 7.667-1.103 11.404c-.818 4.178.848 8.452 4.276 10.975l11.32 8.328zm170.661 286.705c0 4.963-4.037 9-8.999 9h-130.001c-4.963 0-9-4.037-9-9v-80c0-4.963 4.037-9.001 9-9.001h130c4.962 0 8.999 4.038 8.999 9.001v80z"/><g><g><path d="m256 137.001c-19.851 0-36-16.149-36-36s16.149-36 36-36c19.85 0 36 16.149 36 36s-16.15 36-36 36zm0-50c-7.72 0-14 6.28-14 14s6.28 14 14 14c7.719 0 14-6.28 14-14s-6.281-14-14-14z" fill="#0496FF"/></g><g><path d="m312.569 282.716c-2.815 0-5.63-1.074-7.778-3.222-13.032-13.032-30.359-20.21-48.791-20.21-18.431 0-35.758 7.178-48.79 20.21-4.297 4.295-11.262 4.294-15.556 0-4.296-4.296-4.296-11.261 0-15.557 17.188-17.188 40.04-26.653 64.347-26.653 24.308 0 47.16 9.466 64.347 26.653 4.296 4.296 4.296 11.261 0 15.557-2.149 2.148-4.965 3.222-7.779 3.222z" fill="#0496FF"/></g><g><path d="m227.716 316c-2.815 0-5.63-1.074-7.778-3.222-4.296-4.296-4.296-11.261 0-15.557 9.632-9.633 22.439-14.938 36.062-14.938s26.43 5.305 36.063 14.938c4.296 4.296 4.296 11.261 0 15.557-4.297 4.295-11.26 4.295-15.557 0-5.478-5.478-12.76-8.494-20.506-8.494s-15.029 3.017-20.506 8.494c-2.147 2.148-4.963 3.222-7.778 3.222z" fill="#0496FF"/></g><g><path d="m256.004 349.284h-.007c-6.075 0-11-4.925-11-11s4.925-11 11-11 11.004 4.925 11.004 11-4.922 11-10.997 11z" fill="#0496FF"/></g></g></g><g/><g/><g/><g/><g/><g/><g/><g/><g/><g/><g/><g/><g/><g/><g/></svg>