<svg id="Layer_1" enable-background="new 0 0 512 512" viewBox="0 0 512 512" xmlns="http://www.w3.org/2000/svg" fill="#052438"><g><g fill="#0496FF"><path d="m361.478 199.462c-6.233-6.233-14.521-9.666-23.335-9.666s-17.102 3.433-23.334 9.666-9.666 14.52-9.666 23.334c0 5.008 1.111 9.845 3.212 14.232l-16.134 16.134c-2.063 2.063-3.222 4.861-3.222 7.778v103.357h22v-98.801l12.912-12.911c4.387 2.1 9.224 3.211 14.232 3.211 8.814 0 17.102-3.433 23.335-9.666 6.232-6.233 9.665-14.521 9.665-23.334 0-8.814-3.432-17.101-9.665-23.334zm-15.556 31.112c-2.077 2.078-4.84 3.222-7.778 3.222s-5.7-1.144-7.777-3.222c-2.078-2.078-3.223-4.84-3.223-7.778s1.145-5.7 3.223-7.778c2.077-2.078 4.84-3.222 7.777-3.222 2.938 0 5.701 1.144 7.778 3.222 2.078 2.078 3.222 4.84 3.222 7.778s-1.144 5.701-3.222 7.778z"/><path d="m289 150.012c0-18.196-14.804-33-33-33s-33 14.804-33 33c0 14.34 9.197 26.567 22 31.108v196.849h22v-196.849c12.803-4.541 22-16.768 22-31.108zm-33 11c-6.065 0-11-4.935-11-11s4.935-11 11-11 11 4.935 11 11-4.935 11-11 11z"/><path d="m203.631 237.015c5.842-12.264 3.7-27.413-6.44-37.553-12.868-12.866-33.803-12.867-46.669 0s-12.866 33.802 0 46.669c6.434 6.433 14.884 9.65 23.334 9.65 4.869 0 9.735-1.074 14.218-3.21l12.926 12.926v98.801h22v-103.357c0-2.917-1.159-5.715-3.222-7.778zm-37.553-6.441c-2.078-2.077-3.222-4.84-3.222-7.778s1.144-5.701 3.222-7.778c2.145-2.145 4.961-3.217 7.778-3.217 2.816 0 5.633 1.072 7.778 3.217 2.078 2.077 3.222 4.84 3.222 7.778s-1.144 5.701-3.222 7.778c-4.289 4.29-11.267 4.289-15.556 0z"/></g><g><path d="m509.815 224.412c-1.151-1.543-28.724-38.224-73.555-75.379-26.456-21.926-53.444-39.424-80.216-52.009-32.305-15.187-64.397-23.219-95.471-23.94-3.416-.079-6.581-.06-9.148 0-31.074.721-63.166 8.753-95.471 23.94-26.771 12.585-53.76 30.083-80.215 52.009-44.832 37.155-72.403 73.836-73.555 75.379-2.913 3.902-2.913 9.256 0 13.158 1.152 1.543 28.723 38.224 73.555 75.379 26.456 21.926 53.444 39.424 80.215 52.009 32.305 15.187 64.396 23.219 95.471 23.94 1.52.043 7.628.043 9.148 0 31.074-.721 63.166-8.753 95.471-23.94 26.771-12.585 53.76-30.083 80.216-52.009 44.831-37.155 72.403-73.836 73.555-75.379 2.913-3.902 2.913-9.256 0-13.158zm-419.65 71.919c-32.033-26.487-55.283-53.292-65.132-65.34 9.852-12.051 33.102-38.855 65.132-65.34 11.246-9.299 24.286-19.11 38.733-28.369-19.393 26.234-30.877 58.654-30.877 93.709s11.483 67.474 30.877 93.709c-14.447-9.258-27.487-19.07-38.733-28.369zm170.241 70.559c-1.467.037-7.345.037-8.812 0-72.947-2.335-131.572-62.396-131.572-135.9s58.625-133.565 131.572-135.9c3.294-.105 6.299-.08 8.812 0 72.947 2.335 131.572 62.396 131.572 135.9s-58.625 133.566-131.572 135.9zm161.429-70.559c-11.246 9.299-24.287 19.11-38.733 28.369 19.393-26.235 30.877-58.654 30.877-93.709s-11.483-67.474-30.877-93.709c14.447 9.258 27.487 19.069 38.733 28.369 32.03 26.485 55.28 53.29 65.132 65.34-9.852 12.051-33.102 38.855-65.132 65.34z"/><path d="m452.846 335.883c-.224.204-22.73 20.667-58.325 40.812-32.464 18.373-82.849 40.274-138.521 40.274-55.671 0-106.057-21.901-138.521-40.274-35.595-20.145-58.102-40.608-58.319-40.807-4.475-4.109-11.433-3.811-15.542.663-4.109 4.475-3.812 11.434.663 15.542.971.892 24.218 22.085 61.84 43.452 63.196 35.891 116.387 43.424 149.88 43.424 60.681 0 114.998-23.614 149.88-43.424 37.621-21.366 60.868-42.56 61.839-43.452 4.473-4.107 4.769-11.059.665-15.534-4.102-4.474-11.061-4.777-15.539-.676z"/></g></g><g/><g/><g/><g/><g/><g/><g/><g/><g/><g/><g/><g/><g/><g/><g/></svg>