<svg id="Layer_1" enable-background="new 0 0 512 512" viewBox="0 0 512 512" xmlns="http://www.w3.org/2000/svg" fill="#E6ECF2"><g><path d="m473.081 256.003c15.362-10.872 25.42-28.766 25.42-48.977 0-26.478-17.253-48.987-41.101-56.918v-16.074c0-36.226-27.682-66.105-63.004-69.604-5.19-36.372-36.53-64.43-74.314-64.43-27.093 0-50.876 14.427-64.082 35.999-13.206-21.572-36.989-35.999-64.082-35.999-37.784 0-69.124 28.058-74.314 64.43-35.322 3.499-63.004 33.378-63.004 69.604v16.074c-23.848 7.931-41.101 30.44-41.101 56.918 0 20.21 10.058 38.104 25.42 48.977-15.362 10.872-25.42 28.766-25.42 48.976 0 26.478 17.253 48.987 41.101 56.918v16.069c0 36.226 27.682 66.105 63.004 69.604 5.191 36.372 36.53 64.43 74.314 64.43 27.093 0 50.876-14.427 64.082-35.999 13.206 21.572 36.989 35.999 64.082 35.999 37.784 0 69.124-28.058 74.314-64.43 35.321-3.499 63.004-33.377 63.004-69.604v-16.069c23.848-7.931 41.101-30.44 41.101-56.918 0-20.21-10.057-38.104-25.42-48.976zm-34.559 86.955h-27.521c-6.075 0-11 4.925-11 11s4.925 11 11 11h24.399v13.008c0 26.44-21.511 47.951-47.951 47.951-11.113 0-21.944-3.887-30.497-10.945-4.685-3.867-11.619-3.203-15.485 1.482-3.867 4.686-3.203 11.619 1.482 15.485 8.548 7.054 18.652 11.936 29.377 14.315-4.426 24.83-26.16 43.746-52.244 43.746-29.257 0-53.061-23.792-53.082-53.045 0-.013.001-.026.001-.039v-34.382l62.778-62.778c2.063-2.063 3.222-4.861 3.222-7.778v-41.943h-22v37.387l-44 43.999v-145.386h-22v145.387l-44-44v-37.387h-22v41.943c0 2.917 1.159 5.715 3.222 7.778l62.777 62.78v34.381h-.001c0 .013.001.026.001.039-.021 29.252-23.825 53.044-53.082 53.044-26.084 0-47.818-18.916-52.244-43.746 10.725-2.379 20.829-7.261 29.377-14.315 4.686-3.867 5.35-10.8 1.482-15.485-3.867-4.685-10.799-5.351-15.485-1.482-8.553 7.058-19.384 10.945-30.497 10.945-26.44 0-47.951-21.511-47.951-47.951v-13.008h24.399c6.075 0 11-4.925 11-11s-4.925-11-11-11h-27.521c-20.942 0-37.979-17.037-37.979-37.979 0-20.903 16.975-37.913 37.864-37.976.039 0 .077.003.115.003 6.075 0 11-4.925 11-11 0-.001 0-.002 0-.003s0-.002 0-.003c0-6.075-4.925-11-11-11-.039 0-.077.003-.115.003-20.889-.063-37.864-17.073-37.864-37.977 0-20.942 17.038-37.979 37.979-37.979h27.521c6.075 0 11-4.925 11-11s-4.925-11-11-11h-24.399v-13.013c0-26.44 21.511-47.951 47.951-47.951 11.113 0 21.944 3.887 30.497 10.945 4.686 3.868 11.62 3.204 15.485-1.482 3.867-4.686 3.203-11.619-1.482-15.485-8.548-7.054-18.652-11.936-29.377-14.315 4.426-24.83 26.16-43.746 52.244-43.746 29.257 0 53.061 23.792 53.082 53.045 0 .013-.001.026-.001.039h.002v62.952c0 6.075 4.925 11 11 11s11-4.925 11-11v-62.953c0-.007-.001-.013-.001-.02 0-.006 0-.013 0-.019.021-29.252 23.825-53.044 53.082-53.044 26.084 0 47.818 18.916 52.244 43.746-10.725 2.379-20.829 7.261-29.377 14.315-4.686 3.867-5.35 10.8-1.482 15.485 3.867 4.685 10.799 5.351 15.485 1.482 8.553-7.058 19.384-10.945 30.497-10.945 26.44 0 47.951 21.511 47.951 47.951v13.013h-24.399c-6.075 0-11 4.925-11 11s4.925 11 11 11h27.521c20.942 0 37.979 17.037 37.979 37.979 0 20.903-16.975 37.914-37.864 37.977-.039 0-.077-.003-.115-.003-6.075 0-11 4.925-11 11v.003s0 .002 0 .003c0 6.075 4.925 11 11 11 .039 0 .077-.003.115-.003 20.889.063 37.864 17.073 37.864 37.976 0 20.942-17.037 37.979-37.979 37.979z"/><g fill="#0496FF"><path d="m322 235.035c-18.196 0-33 14.804-33 33s14.804 33 33 33 33-14.804 33-33-14.804-33-33-33zm0 44c-6.065 0-11-4.935-11-11s4.935-11 11-11 11 4.935 11 11-4.935 11-11 11z"/><path d="m190 235.035c-18.196 0-33 14.804-33 33s14.804 33 33 33 33-14.804 33-33-14.804-33-33-33zm0 44c-6.065 0-11-4.935-11-11s4.935-11 11-11 11 4.935 11 11-4.935 11-11 11z"/><path d="m256 171.035c-18.196 0-33 14.804-33 33s14.804 33 33 33 33-14.804 33-33-14.804-33-33-33zm0 44c-6.065 0-11-4.935-11-11s4.935-11 11-11 11 4.935 11 11-4.935 11-11 11z"/></g></g><g/><g/><g/><g/><g/><g/><g/><g/><g/><g/><g/><g/><g/><g/><g/></svg>