<svg id="Layer_1" enable-background="new 0 0 512 512" viewBox="0 0 512 512" xmlns="http://www.w3.org/2000/svg" fill="#E6ECF2"><g><g><path d="m190.027 311c6.075 0 11-4.925 11-11v-23h22v23c0 6.075 4.925 11 11 11s11-4.925 11-11v-66c0-18.196-14.804-33-33-33s-33 14.804-33 33v66c0 6.075 4.925 11 11 11zm22-88c6.065 0 11 4.935 11 11v21h-22v-21c0-6.065 4.935-11 11-11z"/><path d="m278.027 289c-6.075 0-11 4.925-11 11s4.925 11 11 11h44c6.075 0 11-4.925 11-11s-4.925-11-11-11h-11v-66h11c6.075 0 11-4.925 11-11s-4.925-11-11-11h-44c-6.075 0-11 4.925-11 11s4.925 11 11 11h11v66z"/><path d="m435.586 284.759c-2.063-2.063-4.861-3.222-7.778-3.222h-50.781v-51.074h50.781c2.917 0 5.715-1.159 7.778-3.222l21.648-21.648-15.557-15.557-18.426 18.427h-46.225v-62.49c0-6.075-4.925-11-11-11h-62.49v-45.927l18.725-18.725-15.557-15.557-21.947 21.947c-2.063 2.063-3.222 4.861-3.222 7.778v50.482h-51.074v-50.481c0-2.917-1.159-5.715-3.222-7.778l-21.648-21.648-15.554 15.556 18.427 18.426v45.926h-62.49c-6.075 0-11 4.925-11 11v62.789h-45.928l-18.725-18.725-15.557 15.557 21.947 21.947c2.063 2.063 4.861 3.222 7.778 3.222h50.483v51.074h-50.482c-2.917 0-5.715 1.159-7.778 3.222l-21.648 21.648 15.557 15.557 18.426-18.427h45.927v62.192c0 6.075 4.925 11 11 11h62.789v46.225l-18.725 18.725 15.557 15.557 21.947-21.947c2.063-2.063 3.222-4.861 3.222-7.778v-50.781h51.074v50.781c0 2.917 1.159 5.715 3.222 7.778l21.648 21.648 15.557-15.557-18.427-18.426v-46.225h62.192c6.075 0 11-4.925 11-11v-62.49h46.225l18.725 18.725 15.557-15.557zm-80.559 70.268h-198.054v-198.054h198.054z"/></g><g fill="#0496FF"><path d="m176.167 0c-22.714 0-41.193 18.479-41.193 41.193s18.479 41.194 41.193 41.194 41.193-18.479 41.193-41.194c0-22.714-18.48-41.193-41.193-41.193zm0 60.387c-10.583 0-19.193-8.61-19.193-19.194 0-10.583 8.61-19.193 19.193-19.193s19.193 8.61 19.193 19.193c0 10.584-8.61 19.194-19.193 19.194z"/><path d="m335.834 0c-22.714 0-41.194 18.479-41.194 41.193s18.479 41.194 41.194 41.194c22.714 0 41.193-18.479 41.193-41.194 0-22.714-18.479-41.193-41.193-41.193zm0 60.387c-10.583 0-19.194-8.61-19.194-19.194 0-10.583 8.61-19.193 19.194-19.193 10.583 0 19.193 8.61 19.193 19.193 0 10.584-8.61 19.194-19.193 19.194z"/><path d="m176.167 429.613c-22.714 0-41.193 18.479-41.193 41.194 0 22.714 18.479 41.193 41.193 41.193s41.193-18.479 41.193-41.193c0-22.715-18.48-41.194-41.193-41.194zm0 60.387c-10.583 0-19.193-8.61-19.193-19.193s8.61-19.194 19.193-19.194 19.193 8.61 19.193 19.194c0 10.583-8.61 19.193-19.193 19.193z"/><path d="m335.834 429.613c-22.714 0-41.194 18.479-41.194 41.194 0 22.714 18.479 41.193 41.194 41.193 22.714 0 41.193-18.479 41.193-41.193 0-22.715-18.479-41.194-41.193-41.194zm0 60.387c-10.583 0-19.194-8.61-19.194-19.193s8.61-19.194 19.194-19.194c10.583 0 19.193 8.61 19.193 19.194 0 10.583-8.61 19.193-19.193 19.193z"/><path d="m470.807 217.36c22.714 0 41.193-18.479 41.193-41.193s-18.479-41.194-41.193-41.194-41.193 18.479-41.193 41.194c-.001 22.713 18.479 41.193 41.193 41.193zm0-60.387c10.583 0 19.193 8.61 19.193 19.194s-8.61 19.193-19.193 19.193-19.193-8.61-19.193-19.193 8.61-19.194 19.193-19.194z"/><path d="m470.807 294.64c-22.714 0-41.193 18.479-41.193 41.193s18.479 41.194 41.193 41.194 41.193-18.479 41.193-41.194c0-22.713-18.479-41.193-41.193-41.193zm0 60.387c-10.583 0-19.193-8.61-19.193-19.194s8.61-19.193 19.193-19.193 19.193 8.61 19.193 19.193-8.61 19.194-19.193 19.194z"/><path d="m41.194 134.973c-22.715 0-41.194 18.479-41.194 41.194 0 22.714 18.479 41.193 41.194 41.193 22.714 0 41.193-18.479 41.193-41.193 0-22.715-18.479-41.194-41.193-41.194zm0 60.387c-10.584 0-19.194-8.61-19.194-19.193s8.61-19.194 19.194-19.194 19.193 8.61 19.193 19.194-8.61 19.193-19.193 19.193z"/><path d="m41.194 294.64c-22.715 0-41.194 18.48-41.194 41.193 0 22.714 18.479 41.194 41.194 41.194 22.714 0 41.193-18.479 41.193-41.194 0-22.713-18.479-41.193-41.193-41.193zm0 60.387c-10.583 0-19.194-8.61-19.194-19.194s8.61-19.193 19.194-19.193 19.193 8.61 19.193 19.193-8.61 19.194-19.193 19.194z"/></g></g><g/><g/><g/><g/><g/><g/><g/><g/><g/><g/><g/><g/><g/><g/><g/></svg>