<svg id="Layer_1" enable-background="new 0 0 512 512" viewBox="0 0 512 512" xmlns="http://www.w3.org/2000/svg" fill="#052438"><g><g><path d="m237.688 331.026-4.511-17.101 4.649-15.885-143.661-42.04 143.806-42.083-4.808-16.432 4.367-16.553-68.952-18.187 77-60.93-13.651-17.252-89.939 71.168-84.907-22.396-5.611 21.272 68.953 18.187-76.638 60.643 9.241 11.678-1.115.326 3.089 10.559-3.089 10.557.636.186-9.125 11.531 77 60.93-68.952 18.188 5.611 21.272 84.906-22.396 91.846 72.677 13.651-17.252-78.907-62.439zm-90.675-151.217 67.942 17.921-143.752 42.067zm-75.81 92.394 143.752 42.067-67.942 17.921z"/><path d="m454.407 197.717-86.907 45.846-86.907-45.846-10.265 19.458 73.597 38.825-73.597 38.825 10.265 19.458 86.907-45.846 86.907 45.846 10.265-19.458-73.597-38.825 73.597-38.825z"/><path d="m263.439 362.639h208.122v21.999h-208.122z" transform="matrix(.885 -.467 .467 .885 -131.88 214.635)"/><path d="m356.5 34.3h21.999v208.122h-21.999z" transform="matrix(.467 -.885 .885 .467 73.652 398.848)"/></g><g fill="#0496FF"><path d="m33 340.639c-18.196 0-33 14.804-33 33s14.804 33 33 33 33-14.804 33-33-14.804-33-33-33zm0 44c-6.065 0-11-4.935-11-11s4.935-11 11-11 11 4.935 11 11-4.935 11-11 11z"/><path d="m33 223c-18.196 0-33 14.804-33 33s14.804 33 33 33 33-14.804 33-33-14.804-33-33-33zm0 44c-6.065 0-11-4.935-11-11s4.935-11 11-11 11 4.935 11 11-4.935 11-11 11z"/><path d="m33 105.361c-18.196 0-33 14.804-33 33s14.804 33 33 33 33-14.804 33-33-14.804-33-33-33zm0 44c-6.065 0-11-4.935-11-11s4.935-11 11-11 11 4.935 11 11-4.935 11-11 11z"/><path d="m479 281.82c-18.196 0-33 14.804-33 33s14.804 33 33 33 33-14.804 33-33-14.804-33-33-33zm0 44c-6.065 0-11-4.935-11-11s4.935-11 11-11 11 4.935 11 11-4.935 11-11 11z"/><path d="m479 230.18c18.196 0 33-14.804 33-33s-14.804-33-33-33-33 14.804-33 33 14.804 33 33 33zm0-44c6.065 0 11 4.935 11 11s-4.935 11-11 11-11-4.935-11-11 4.935-11 11-11z"/><path d="m256 281.82c-18.196 0-33 14.804-33 33s14.804 33 33 33 33-14.804 33-33-14.804-33-33-33zm0 44c-6.065 0-11-4.935-11-11s4.935-11 11-11 11 4.935 11 11-4.935 11-11 11z"/><path d="m256 164.18c-18.196 0-33 14.804-33 33s14.804 33 33 33 33-14.804 33-33-14.804-33-33-33zm0 44c-6.065 0-11-4.935-11-11s4.935-11 11-11 11 4.935 11 11-4.935 11-11 11z"/><path d="m256 399.459c-18.196 0-33 14.804-33 33s14.804 33 33 33 33-14.804 33-33-14.804-33-33-33zm0 44c-6.065 0-11-4.935-11-11s4.935-11 11-11 11 4.935 11 11-4.935 11-11 11z"/><path d="m256 46.541c-18.196 0-33 14.804-33 33s14.804 33 33 33 33-14.804 33-33-14.804-33-33-33zm0 44c-6.065 0-11-4.935-11-11s4.935-11 11-11 11 4.935 11 11-4.935 11-11 11z"/></g></g><g/><g/><g/><g/><g/><g/><g/><g/><g/><g/><g/><g/><g/><g/><g/></svg>