<svg id="Capa_1" enable-background="new 0 0 512 512" height="512" viewBox="0 0 512 512" width="512" xmlns="http://www.w3.org/2000/svg" fill="#052438"><g><g fill="#0496FF"><path d="m98.788 365.4v17.755c0 25.594 20.822 46.416 46.416 46.416s46.416-20.822 46.416-46.416v-64.293c0-9.257 7.531-16.787 16.788-16.787s16.788 7.53 16.788 16.787v4.904c0 24.692 20.089 44.781 44.781 44.781 15.139 0 28.537-7.559 36.646-19.093l-13.877-25.275c-.222 12.371-10.347 22.368-22.77 22.368-12.562 0-22.781-10.22-22.781-22.781v-4.904c0-21.388-17.4-38.787-38.788-38.787s-38.788 17.399-38.788 38.787v64.293c0 13.463-10.953 24.416-24.416 24.416s-24.416-10.953-24.416-24.416v-57.508z"/><path d="m313.44 316.16c-.01-.017-.019-.035-.029-.052z"/></g><path d="m510.582 495.761-153.439-294.326c-8.591-18.503-35.637-18.786-44.566-.474l-30.9 57.344-52.524-95.667c-.05-.091-.102-.182-.154-.271-2.538-4.327-6.186-7.676-10.479-9.781v-52.98l63.37.123-7.47 26.831c-.923 3.312-.243 6.866 1.837 9.604s5.321 4.347 8.76 4.347h157.377c4.78 0 9.014-3.088 10.474-7.64 1.461-4.552-.186-9.525-4.073-12.307l-37.723-26.985 38.801-35.969c3.318-3.076 4.414-7.871 2.762-12.084s-5.715-6.983-10.24-6.983h-92.777l6.711-24.65c.9-3.308.208-6.846-1.873-9.568-2.083-2.727-5.314-4.325-8.742-4.325h-138.194c-6.075 0-11 4.925-11 11v77.562.042 63.967c-4.28 2.092-7.923 5.419-10.467 9.721-.053.09-.105.181-.156.272l-184.349 333.11c-1.886 3.407-1.829 7.558.148 10.912s5.582 5.414 9.476 5.414l489.656-.154c3.846 0 7.412-2.008 9.405-5.296 1.995-3.288 2.127-7.379.349-10.789zm-96.235-435.221-28.122 26.069c-2.424 2.247-3.709 5.465-3.499 8.763.209 3.299 1.89 6.328 4.577 8.251l20.808 14.885h-108.613l5.216-18.737 19.795.038h.021c4.962 0 9.311-3.322 10.613-8.11l8.483-31.159zm-195.827-38.54h112.8l-15.19 55.793-97.61-.188zm-188.688 468 175.213-316.6c1.36-1.856 3.571-1.854 4.924.009l173.815 316.591zm378.965-.154-114.508-208.569 37.753-70.061c1.065-2.619 4.527-2.587 5.497.203l145.15 278.427z"/></g></svg>