<svg id="Capa_1" enable-background="new 0 0 512 512" height="512" viewBox="0 0 512 512" width="512" xmlns="http://www.w3.org/2000/svg" fill="#E6ECF2"><g><path d="m192.138 435.755v48.324l-24.184-10.739c-1.422-.631-2.943-.947-4.465-.947s-3.043.315-4.465.947l-24.183 10.739v-48.324h-22v65.245c0 3.723 1.883 7.193 5.005 9.223 1.812 1.178 3.898 1.777 5.996 1.777 1.516 0 3.036-.313 4.464-.947l35.183-15.624 35.184 15.624c3.403 1.511 7.339 1.198 10.46-.831 3.122-2.029 5.005-5.5 5.005-9.223v-65.245h-22z" fill="#0496FF"/><path d="m371.893 0h-272.449c-6.075 0-11 4.925-11 11v413.755c0 6.075 4.925 11 11 11h272.448c28.487 0 51.663-23.176 51.663-51.664v-332.427c.001-28.488-23.175-51.664-51.662-51.664zm-261.449 22h209.784v391.755h-209.784zm291.112 362.091c0 16.357-13.307 29.664-29.663 29.664h-29.664v-391.755h29.664c16.356 0 29.663 13.307 29.663 29.664z"/></g></svg>