<svg id="Capa_1" enable-background="new 0 0 512 512" height="512" viewBox="0 0 512 512" width="512" xmlns="http://www.w3.org/2000/svg" fill="#E6ECF2"><g><g><path d="m417.869 210.025c-30.578 6.258-47.214 41.784-32.446 69.125 11.902 23.837 43.601 33.241 66.481 19.537 46.863-27.955 20.056-99.121-34.035-88.662zm-15.855 47.944c-.602-14.696 11.331-27.073 26.036-27.039 34.488 1.222 34.488 50.902 0 52.123-14.043 0-25.519-11.166-26.036-25.084z" fill="#0496FF"/></g><path d="m428.049 305.053c-4.176 0-8.228-.537-12.093-1.543l-126.671 126.586h-55.021l151.16-150.946c-3.464-6.636-5.434-14.17-5.434-22.159 0-8.521 2.239-16.525 6.144-23.472l-107.769-107.941s27.086-27.124 27.496-27.561l112.008 112.008c3.283-.711 6.687-1.095 10.18-1.095 12.651 0 24.168 4.921 32.759 12.939-.059-.062-.11-.128-.171-.189l-142.799-142.799c7.882-20.775 3.487-45.183-13.217-61.887-10.959-10.959-25.578-16.994-41.165-16.994-15.586 0-30.205 6.035-41.164 16.994l-58.191 58.191c-40.614-11.58-86.174-1.418-118.096 30.503l-6.82 6.821c-4.296 4.296-4.296 11.26 0 15.556l154.364 154.365c2.148 2.148 4.963 3.222 7.778 3.222 2.814 0 5.63-1.074 7.778-3.222 34.903-30.449 50.509-80.164 37.309-124.903l16.393-16.393 114.672 114.857-174.35 174.105h-49.396c-30.311 0-54.971 19.869-54.971 44.292v26.612c0 6.075 4.925 11 11 11h274.152c6.075 0 11-4.925 11-11v-26.612c0-24.422-24.659-44.292-54.97-44.292h-19.538l131.497-131.408c-7.034 4.041-15.175 6.365-23.854 6.365zm-226.727-45.964-138.797-138.797c38.568-37.743 100.859-36.408 137.846.951 10.372 10.371 18.124 22.7 22.926 36.179 12.546 34.485 3.963 75.667-21.975 101.667zm36.266-123.848c-5.59-10.78-12.85-20.743-21.661-29.554-8.921-8.921-18.909-16.138-29.555-21.661l51.476-51.476c13.387-13.973 37.829-13.973 51.216 0 14.12 14.12 14.12 37.095 0 51.215zm102.357 316.855c17.871 0 32.97 10.208 32.97 22.292v15.612h-252.153v-15.612c0-12.083 15.099-22.292 32.971-22.292z"/></g></svg>