<svg id="Capa_1" enable-background="new 0 0 512 512" height="512" viewBox="0 0 512 512" width="512" xmlns="http://www.w3.org/2000/svg" fill="#052438"><path d="m332.946 99.626h-65.946v-38.813c0-33.532-27.281-60.813-60.813-60.813h-57.945c-6.075 0-11 4.925-11 11s4.925 11 11 11h57.945c21.401 0 38.813 17.412 38.813 38.813v38.813h-65.946c-38.751 0-70.277 31.526-70.277 70.277v194.873c-.001 81.18 66.043 147.224 147.223 147.224s147.224-66.044 147.224-147.224v-194.872c0-38.751-31.527-70.278-70.278-70.278zm48.278 265.15c0 33.298-13.066 64.703-36.794 88.43-23.727 23.727-55.132 36.794-88.43 36.794s-64.703-13.067-88.43-36.794c-23.728-23.727-36.794-55.132-36.794-88.43v-51.013h250.447v51.013zm0-73.013h-114.292c.043-.394.068-.793.068-1.199v-34.125c-3.515.919-7.201 1.411-11 1.411s-7.485-.492-11-1.411v34.125c0 .405.025.805.068 1.199h-114.292v-121.859c0-26.62 21.657-48.277 48.277-48.277h65.947v35.324c3.515-.919 7.201-1.411 11-1.411s7.485.492 11 1.411v-35.324h65.946c26.62 0 48.277 21.657 48.277 48.277v121.859z"/><g><path d="m256 257.85c-24.003 0-43.531-19.528-43.531-43.531v-15.249c0-24.003 19.528-43.531 43.531-43.531s43.531 19.528 43.531 43.531v15.249c0 24.003-19.528 43.531-43.531 43.531zm0-80.311c-11.872 0-21.531 9.659-21.531 21.531v15.249c0 11.872 9.659 21.531 21.531 21.531s21.531-9.659 21.531-21.531v-15.249c0-11.872-9.659-21.531-21.531-21.531z" fill="#0496FF"/></g></svg>