<svg id="Capa_1" enable-background="new 0 0 511.968 511.968" height="512" viewBox="0 0 511.968 511.968" width="512" xmlns="http://www.w3.org/2000/svg" fill="#052438"><g><path d="m356.502 85.391h22v75.551h-22z" fill="#0496FF" transform="matrix(.259 -.966 .966 .259 153.414 446.267)"/><path d="m428.263 189.055h-16.532l20.087-74.965c.608-2.271.474-4.678-.386-6.867l-30.012-76.452c-1.276-3.25-4.02-5.702-7.393-6.605-3.372-.904-6.975-.152-9.704 2.024l-64.216 51.204c-1.839 1.466-3.159 3.482-3.768 5.753l-28.378 105.908h-40.185l-80.012-138.617c-.011-.019-.018-.038-.029-.057s-.024-.035-.034-.053l-17.907-31.022c-10.44-18.916-36.846-24.85-55.22-13.688-15.857 8.809-24.547 28.729-19.41 46.026l-27.457 15.852c-2.526 1.458-4.37 3.861-5.125 6.679s-.36 5.821 1.099 8.347l37.659 65.227c7.84 12.375 25.842 1.873 19.053-11l-32.159-55.7 16.94-9.78 11.33 19.588c.086.167.162.338.257.502.073.127.164.237.241.36l56.302 97.337h-13.839c-22.882 0-41.498 18.616-41.498 41.498s18.616 41.498 41.498 41.498h2.215v169.902c0 38.606 32.755 70.015 73.016 70.015h138.336c40.261 0 73.016-31.408 73.016-70.015v-169.903h2.216c22.882 0 41.498-18.616 41.498-41.498s-18.617-41.498-41.499-41.498zm-91.609-96.716 49.733-39.656 23.243 59.21-20.675 77.163h-78.217zm-240.186-56.248c1.418-4.794 4.652-8.85 9.106-11.421 4.454-2.572 9.582-3.345 14.445-2.176 4.652 1.118 8.459 3.893 10.722 7.811l12.44 21.552-32.85 18.966-12.459-21.54c-2.263-3.919-2.762-8.604-1.404-13.192zm24.878 53.775 32.833-18.956 68.197 118.145h-43.657zm282.701 352.088c0 26.476-22.886 48.015-51.016 48.015h-138.335c-28.13 0-51.016-21.539-51.016-48.015v-169.903h240.367zm24.216-191.903h-288.798c-10.751 0-19.498-8.747-19.498-19.498s8.747-19.498 19.498-19.498h288.798c10.751 0 19.498 8.747 19.498 19.498s-8.747 19.498-19.498 19.498z"/></g></svg>