<svg id="Capa_1" enable-background="new 0 0 512 512" height="512" viewBox="0 0 512 512" width="512" xmlns="http://www.w3.org/2000/svg" fill="#E6ECF2"><g><g><g><g><path d="m122.407 512h-110.391c-6.075 0-11-4.925-11-11v-91.494c0-3.395 1.567-6.599 4.247-8.683l91.689-71.313c19.676-15.304 44.239-23.731 69.166-23.731h149.792c22.882 0 41.497 18.616 41.497 41.498 0 5.331-1.011 10.431-2.85 15.117.204-.167.406-.338.604-.514l84.333-74.6c16.953-14.996 43.765-14.176 59.771 1.828v.001c7.845 7.845 12.001 18.272 11.702 29.363-.298 11.09-5.009 21.279-13.264 28.69l-110.601 99.309c-16.971 15.238-38.878 23.63-61.685 23.63h-139.872l-56.815 39.9c-1.853 1.302-4.06 1.999-6.323 1.999zm-99.391-22h95.914l56.815-39.9c1.853-1.301 4.06-1.998 6.322-1.998h143.353c17.373 0 34.06-6.393 46.987-17.999l110.6-99.309c3.716-3.336 5.836-7.922 5.97-12.913.135-4.991-1.735-9.685-5.266-13.216h-.001c-7.803-7.803-21.375-8.216-29.638-.906l-84.333 74.6c-7.593 6.717-17.358 10.416-27.495 10.416h-131.281c-6.075 0-11-4.925-11-11s4.925-11 11-11h104.948c10.751 0 19.497-8.747 19.497-19.498s-8.746-19.498-19.497-19.498h-149.792c-20.059 0-39.826 6.782-55.66 19.097l-87.442 68.011v75.113z"/></g></g></g><path d="m297.897 121.917c15.982-12.49 26.287-31.925 26.287-53.734-.001-37.596-30.588-68.183-68.184-68.183s-68.184 30.587-68.184 68.184c0 21.809 10.304 41.244 26.287 53.734-41.373 16.147-70.763 56.429-70.763 103.45v14.367c0 6.075 4.925 11 11 11h203.32c6.075 0 11-4.925 11-11v-14.367c0-47.022-29.39-87.303-70.763-103.451zm-41.897-99.917c25.466 0 46.184 20.718 46.184 46.184s-20.718 46.183-46.184 46.183-46.184-20.718-46.184-46.184 20.718-46.183 46.184-46.183zm90.66 206.734h-181.32c-1.949-51.471 40.845-94.297 92.321-92.367 50.333-.107 90.801 42.151 88.999 92.367z" fill="#0496FF"/></g></svg>