<svg id="Capa_1" enable-background="new 0 0 512.099 512.099" height="512" viewBox="0 0 512.099 512.099" width="512" xmlns="http://www.w3.org/2000/svg" fill="#052438"><g><g><path d="m360.002 512.099c-177.967-2.067-400.849-230.646-352.965-410.616 9.7-52.761 103.24-143.784 164.061-79.163 24.182 25.619 55.325 45.57 54.524 85.186.175 24.992-11.762 44.315-29.838 60.5-20.468 20.469-22.362 53.026-4.405 75.73 22.11 27.981 48.558 54.426 76.542 76.544 22.705 17.955 55.261 16.062 75.73-4.407l8.285-8.283c13.898-13.898 32.442-21.554 52.217-21.554 39.568-.827 59.641 30.402 85.188 54.524 64.523 61.368-26.177 154.006-79.164 164.061-15.457 4.993-32.282 7.478-50.175 7.478zm-239.333-490.11c-36.888-1.448-86.085 52.089-92.036 83.75-38.76 147.539 115.537 317.303 248.279 367.534 64.623 23.109 123.889 26.382 172.685-14.656 32.528-27.847 57.634-69.133 24.188-102.5-.001 0-32.971-32.969-32.971-32.969-19.186-20.017-54.14-20.011-73.322.001 0-.001-8.285 8.283-8.285 8.283-28.361 28.362-73.474 30.986-104.934 6.105-14.654-11.591-28.914-24.298-42.383-37.768-13.476-13.476-26.183-27.736-37.768-42.385-24.881-31.458-22.256-76.569 6.105-104.933l8.284-8.284c20.017-19.169 20.011-54.15 0-73.321.001 0-32.971-32.971-32.971-32.971-10.616-10.617-22.131-15.886-34.871-15.886z"/></g><g><path d="m412.142 203.81c-5.075 0-9.637-3.532-10.745-8.695-4.475-20.863-14.815-39.865-29.902-54.951-15.314-15.315-34.622-25.72-55.835-30.09-5.95-1.226-9.78-7.043-8.555-12.993 1.227-5.95 7.044-9.78 12.993-8.554 25.438 5.239 48.59 17.716 66.953 36.08 18.091 18.091 30.491 40.876 35.857 65.895 1.274 5.939-2.508 11.788-8.448 13.062-.777.166-1.554.246-2.318.246z" fill="#0496FF"/></g><g><path d="m474.285 265.613c-.718 0-1.446-.07-2.177-.217-5.956-1.196-9.815-6.994-8.619-12.95 11.458-57.062-6.272-115.697-47.425-156.852-41.229-41.229-99.962-58.94-157.11-47.373-5.956 1.211-11.758-2.645-12.963-8.6-1.205-5.954 2.645-11.758 8.599-12.963 64.397-13.034 130.574 6.922 177.031 53.379 46.371 46.373 66.348 112.443 53.438 176.738-1.05 5.227-5.642 8.838-10.774 8.838z" fill="#0496FF"/></g></g></svg>