<svg id="Capa_1" enable-background="new 0 0 512 512" height="512" viewBox="0 0 512 512" width="512" xmlns="http://www.w3.org/2000/svg" fill="#052438"><g><g><path d="m492.783 512h-454.358c-6.075 0-11-4.925-11-11s4.925-11 11-11h454.358c6.075 0 11 4.925 11 11s-4.924 11-11 11z"/></g><path d="m483.849 120.051-116.829-116.829c-4.058-4.058-10.551-4.314-14.917-.59-14.87 12.684-305.939 261.14-305.939 261.14-2.333 1.992-3.729 4.867-3.85 7.933-.121 3.065 1.043 6.042 3.213 8.212 12.625 12.624 17.971 25.109 16.345 38.168-1.527 12.265-9.252 25.435-22.962 39.144-4.296 4.296-4.296 11.261 0 15.557l75.375 75.375c2.148 2.148 4.963 3.222 7.778 3.222s5.63-1.074 7.778-3.222c18.015-18.015 45.627-38.303 77.297-6.632 2.169 2.169 5.147 3.321 8.212 3.213 3.065-.121 5.941-1.517 7.933-3.851 36.729-43.032 261.155-305.92 261.155-305.92 3.725-4.366 3.469-10.862-.589-14.92zm-361.506 305.056-60.376-60.376c12.622-14.626 23.582-29.768 22.163-53.044l91.317 91.317c-17.394-.554-35.35 6.823-53.104 22.103zm95.081-11.239-144.237-144.237s207.894-177.455 231.414-197.531l110.777 109.89c-26.095 30.574-164.844 193.089-197.954 231.878zm212.278-248.658-108.31-107.444c12.421-10.601 24.835-21.205 37.257-31.802l102.456 102.455z"/><g><g><path d="m492.783 512h-454.358c-6.075 0-11-4.925-11-11s4.925-11 11-11h454.358c6.075 0 11 4.925 11 11s-4.924 11-11 11z"/></g><g><path d="m87.798 421.675-15.833 15.462h-31.2l-6.045-6.089 31.123-31.328-15.556-15.556-38.874 39.129c-4.261 4.289-4.262 11.212-.002 15.502l16.969 17.091c2.065 2.08 4.875 3.25 7.806 3.25h40.259c2.872 0 5.63-1.124 7.686-3.13l19.225-18.775z" fill="#0496FF"/></g></g></g></svg>