<svg id="Capa_1" enable-background="new 0 0 512 512" height="512" viewBox="0 0 512 512" width="512" xmlns="http://www.w3.org/2000/svg" fill="#E6ECF2"><g><g><path d="m207.203 303.089c-42.501 0-77.078-34.578-77.078-77.079s34.577-77.079 77.078-77.079c42.502 0 77.079 34.578 77.079 77.079s-34.577 77.079-77.079 77.079zm0-132.158c-30.37 0-55.078 24.708-55.078 55.079s24.708 55.079 55.078 55.079c30.371 0 55.079-24.708 55.079-55.079s-24.708-55.079-55.079-55.079z" fill="#0496FF"/></g><g><path d="m207.2 237.008c-9.69.066-14.668-11.968-7.78-18.78 6.814-6.881 18.846-1.912 18.78 7.781.115 5.904-5.095 11.116-11 10.999z"/></g><g><path d="m501 .508h-490c-6.075 0-11 4.925-11 11v429.004c0 6.075 4.925 11 11 11h19.498v48.979c0 6.075 4.925 11 11 11h74.212c6.075 0 11-4.925 11-11v-48.979h258.581v48.979c0 6.075 4.925 11 11 11h74.211c6.075 0 11-4.925 11-11v-48.979h19.498c6.075 0 11-4.925 11-11v-429.004c0-6.075-4.925-11-11-11zm-396.29 488.984h-52.212v-37.979h52.212zm354.792 0h-52.211v-37.979h52.211zm30.498-59.979h-468v-407.005h468z"/><path d="m71.996 390.517h368.008c6.075 0 11-4.925 11-11v-307.013c0-6.075-4.925-11-11-11h-368.008c-6.075 0-11 4.925-11 11v307.013c0 6.075 4.925 11 11 11zm11-307.013h346.008v60.345h-49.996c-6.075 0-11 4.925-11 11s4.925 11 11 11h49.996v120.322h-49.996c-6.075 0-11 4.925-11 11s4.925 11 11 11h49.996v60.345h-346.008z"/></g></g></svg>