<svg id="Capa_1" enable-background="new 0 0 512.006 512.006" height="512" viewBox="0 0 512.006 512.006" width="512" xmlns="http://www.w3.org/2000/svg" fill="#E6ECF2"><g><path d="m134.01 327.999h-70.145c-6.075 0-11-4.925-11-11v-220.602c0-6.075 4.925-11 11-11h70.145c6.075 0 11 4.925 11 11v220.602c0 6.075-4.925 11-11 11zm-59.145-22h48.145v-198.602h-48.145z" fill="#0496FF"/></g><g><path d="m98.843 460.444c22.386 0 40.599-18.212 40.599-40.599s-18.213-40.599-40.599-40.599-40.599 18.212-40.599 40.599 18.213 40.599 40.599 40.599zm0-59.197c10.255 0 18.599 8.343 18.599 18.599s-8.344 18.599-18.599 18.599-18.599-8.343-18.599-18.599 8.343-18.599 18.599-18.599z"/><path d="m511.448 442.74-143.538-435.182c-1.902-5.769-8.123-8.905-13.892-7l-156.145 51.501v-11.575c0-6.075-4.925-11-11-11h-175.871c-6.075 0-11 4.925-11 11v460.519c0 6.075 4.925 11 11 11h175.872c6.075 0 11-4.925 11-11v-380.039l126.486 383.485c1.525 4.625 5.826 7.557 10.444 7.557 1.142 0 2.304-.179 3.448-.557l166.196-54.817c5.768-1.903 8.903-8.122 7-13.892zm-335.575 47.263h-153.871v-438.519h153.872v438.519zm165.934-2.892-136.647-414.29 145.303-47.926 136.646 414.29z"/><path d="m392.527 437.53c22.386 0 40.599-18.212 40.599-40.599s-18.213-40.599-40.599-40.599-40.599 18.212-40.599 40.599 18.213 40.599 40.599 40.599zm0-59.197c10.255 0 18.599 8.343 18.599 18.599s-8.344 18.599-18.599 18.599-18.599-8.343-18.599-18.599 8.343-18.599 18.599-18.599z"/><path d="m329.886 70.494c-2.604-1.313-5.624-1.537-8.396-.623l-66.286 21.864c-5.769 1.903-8.903 8.123-7 13.892l68.759 208.465c1.525 4.625 5.826 7.557 10.444 7.557 1.142 0 2.304-.179 3.448-.557l66.286-21.863c2.771-.914 5.065-2.891 6.378-5.496s1.537-5.625.623-8.396l-68.76-208.466c-.913-2.77-2.89-5.064-5.496-6.377zm4.524 226.259-61.868-187.572 45.393-14.973 61.868 187.572z"/></g></svg>