<svg id="Capa_1" enable-background="new 0 0 512 512" viewBox="0 0 512 512" xmlns="http://www.w3.org/2000/svg" fill="#052438"><g><path d="m501 302.943h-11v-33c0-6.075-4.925-11-11-11v-214.21c0-18.196-14.804-33-33-33s-33 14.804-33 33v214.209c-6.075 0-11 4.925-11 11v33h-292v-33c0-6.075-4.925-11-11-11v-214.209c0-18.196-14.804-33-33-33s-33 14.804-33 33v214.209c-6.075 0-11 4.925-11 11v33h-11c-6.075 0-11 4.925-11 11v132c0 6.075 4.925 11 11 11h9v32.324c0 6.075 4.925 11 11 11s11-4.925 11-11v-32.324h428v32.324c0 6.075 4.925 11 11 11s11-4.925 11-11v-32.324h9c6.075 0 11-4.925 11-11v-132c0-6.074-4.925-10.999-11-10.999zm-66-258.21c0-6.065 4.935-11 11-11s11 4.935 11 11v214.209h-22zm-11 236.21h44v22h-44zm-51.78 44-15 66h-202.44l-15-66zm-317.22-280.21c0-6.065 4.935-11 11-11s11 4.935 11 11v214.209h-22zm-11 236.21h44v22h-44zm-22 44h95.219l18.054 79.438c1.139 5.008 5.591 8.562 10.727 8.562h220c5.136 0 9.588-3.554 10.727-8.562l18.054-79.438h95.219v110h-468z"/><g fill="#0496FF"><path d="m256.146 157.446c-.101 0-.2 0-.301 0-20.538 0-39.809 7.966-54.292 22.449-4.296 4.296-4.296 11.261 0 15.557 4.297 4.296 11.262 4.295 15.557 0 10.327-10.327 24.075-16.006 38.737-16.006h.216c14.773.056 28.689 5.866 39.184 16.361 2.148 2.148 4.963 3.222 7.778 3.222 2.814 0 5.631-1.074 7.778-3.222 4.296-4.296 4.296-11.261 0-15.557-14.627-14.627-34.038-22.726-54.657-22.804z"/><path d="m170.439 148.782c-4.296 4.296-4.296 11.261 0 15.557 4.297 4.296 11.26 4.296 15.557 0 38.6-38.601 101.408-38.601 140.008 0 2.148 2.148 4.963 3.222 7.778 3.222s5.63-1.074 7.778-3.222c4.296-4.296 4.296-11.261 0-15.557-47.177-47.178-123.943-47.178-171.121 0z"/><path d="m372.673 117.669c-64.334-64.333-169.012-64.333-233.346 0-4.296 4.296-4.296 11.261 0 15.557 4.297 4.296 11.26 4.296 15.557 0 55.756-55.756 146.477-55.756 202.232 0 2.148 2.148 4.963 3.222 7.778 3.222s5.63-1.074 7.778-3.222c4.297-4.296 4.297-11.261.001-15.557z"/><path d="m278.773 211.564c-4.297-4.296-11.262-4.295-15.557 0l-7.216 7.218-7.217-7.217c-4.296-4.296-11.261-4.296-15.557 0s-4.296 11.261 0 15.556l7.218 7.218-7.218 7.218c-4.296 4.295-4.296 11.26 0 15.556 2.148 2.148 4.963 3.222 7.778 3.222s5.631-1.074 7.778-3.222l7.217-7.217 7.217 7.217c2.148 2.148 4.963 3.222 7.778 3.222 2.814 0 5.631-1.074 7.778-3.222 4.296-4.296 4.296-11.261 0-15.556l-7.218-7.218 7.218-7.218c4.297-4.296 4.297-11.261.001-15.557z"/><path d="m288.16 353.74c-3.164-8.034-14.645-9.16-19.311-1.9-4.903 7.091.529 17.254 9.151 17.1 7.578.232 13.272-8.278 10.16-15.2z"/><path d="m332.16 353.74c-2.696-7.108-12.732-9.095-17.94-3.57-6.2 5.99-2.852 17.017 5.63 18.56 8.425 1.827 15.748-7.076 12.31-14.99z"/><path d="m244.16 353.74c-2.695-7.112-12.719-9.083-17.94-3.58-6.892 6.802-1.911 18.857 7.781 18.78 7.577.227 13.273-8.279 10.159-15.2z"/><path d="m200.16 353.73c-2.709-7.097-12.731-9.085-17.94-3.56-6.902 6.784-1.896 18.858 7.781 18.77 7.584.23 13.269-8.284 10.159-15.21z"/></g></g><g/><g/><g/><g/><g/><g/><g/><g/><g/><g/><g/><g/><g/><g/><g/></svg>