<svg id="Capa_1" enable-background="new 0 0 512 512" viewBox="0 0 512 512" xmlns="http://www.w3.org/2000/svg" fill="#052438"><g><path d="m399.945 0h-358.945c-22.607 0-41 18.393-41 41v240.466c0 22.607 18.393 41 41 41h132.56l-7.27 42.589h-58.252c-6.075 0-11 4.925-11 11s4.925 11 11 11h157.335v-4.393c1.388-1.841 2.22-4.124 2.22-6.607s-.833-4.766-2.22-6.607v-4.393h-76.766l7.265-42.561 83.812-.028v-22h-238.684c-10.477 0-19-8.523-19-19v-15.429h396.945v3.39h22v-228.427c0-22.607-18.392-41-41-41zm-377.945 244.037v-203.037c0-10.477 8.523-19 19-19h358.945c10.477 0 19 8.523 19 19v203.037z"/><g fill="#0496FF"><path d="m220.535 160.124c14.774.056 28.69 5.866 39.184 16.361 2.148 2.148 4.963 3.222 7.778 3.222s5.63-1.074 7.778-3.222c4.295-4.296 4.295-11.261 0-15.557-14.627-14.627-34.039-22.726-54.657-22.804-20.623-.053-40.038 7.894-54.593 22.449-4.295 4.296-4.295 11.261 0 15.557 4.296 4.296 11.261 4.295 15.557 0 10.327-10.327 24.075-16.006 38.738-16.006z"/><path d="m290.476 145.017c2.148 2.148 4.963 3.222 7.778 3.222s5.63-1.074 7.778-3.222c4.295-4.296 4.295-11.261 0-15.557-22.854-22.854-53.24-35.44-85.56-35.44s-62.706 12.586-85.56 35.44c-4.295 4.296-4.295 11.261 0 15.557 4.296 4.296 11.261 4.295 15.557 0 18.698-18.699 43.56-28.997 70.003-28.997s51.306 10.298 70.004 28.997z"/><path d="m321.589 113.904c4.296 4.296 11.261 4.295 15.557 0 4.295-4.296 4.295-11.261 0-15.557-64.334-64.333-169.012-64.333-233.346 0-4.295 4.296-4.295 11.261 0 15.557 2.148 2.148 4.963 3.222 7.778 3.222s5.63-1.074 7.778-3.222c55.755-55.756 146.477-55.756 202.233 0z"/><path d="m230.63 200.81c-2.688-7.105-12.735-9.087-17.94-3.57-6.883 6.82-1.909 18.827 7.78 18.78 7.577.21 13.285-8.284 10.16-15.21z"/><path d="m379.797 247.594c-72.897 0-132.203 59.306-132.203 132.203s59.306 132.203 132.203 132.203 132.203-59.306 132.203-132.203-59.306-132.203-132.203-132.203zm0 242.406c-60.766 0-110.203-49.437-110.203-110.203s49.437-110.203 110.203-110.203 110.203 49.437 110.203 110.203-49.437 110.203-110.203 110.203z"/><path d="m427.465 310.324c-.498-3.435-2.588-6.433-5.638-8.089-12.823-6.961-27.357-10.641-42.03-10.641-48.635 0-88.203 39.568-88.203 88.203 0 14.672 3.68 29.206 10.642 42.03 1.656 3.05 4.654 5.14 8.089 5.638.527.076 1.054.114 1.579.114 2.896 0 5.7-1.145 7.778-3.222l104.676-104.676c2.453-2.454 3.605-5.923 3.107-9.357zm-111.59 86.726c-1.506-5.602-2.282-11.411-2.282-17.253 0-36.504 29.699-66.203 66.203-66.203 5.841 0 11.651.775 17.253 2.281z"/><path d="m457.359 337.767c-1.656-3.05-4.654-5.14-8.089-5.638-3.433-.494-6.902.654-9.357 3.108l-104.676 104.676c-2.454 2.454-3.606 5.922-3.108 9.357s2.588 6.433 5.638 8.088c12.824 6.962 27.357 10.642 42.03 10.642 48.635 0 88.203-39.568 88.203-88.203 0-14.673-3.68-29.207-10.641-42.03zm-77.562 108.233c-5.842 0-11.65-.775-17.252-2.281l81.174-81.175c1.506 5.602 2.281 11.412 2.281 17.253 0 36.504-29.699 66.203-66.203 66.203z"/></g></g><g/><g/><g/><g/><g/><g/><g/><g/><g/><g/><g/><g/><g/><g/><g/></svg>