<svg id="Capa_1" enable-background="new 0 0 512 512" viewBox="0 0 512 512" xmlns="http://www.w3.org/2000/svg" fill="#E6ECF2"><g><g fill="#0496FF"><path d="m221.593 349.031h-33.025v-77.029c0-6.063-4.915-10.979-10.979-10.979-6.063 0-10.979 4.915-10.979 10.979v88.008c0 6.063 4.915 10.979 10.979 10.979h44.004c6.063 0 10.979-4.915 10.979-10.979s-4.916-10.979-10.979-10.979z"/><path d="m441.612 349.031h-33.025v-22.047h13.023c6.063 0 10.979-4.915 10.979-10.979s-4.915-10.979-10.979-10.979h-13.023v-22.046h33.025c6.063 0 10.979-4.915 10.979-10.979s-4.915-10.979-10.979-10.979h-44.004c-6.063 0-10.979 4.915-10.979 10.979v88.008c0 6.063 4.915 10.979 10.979 10.979h44.004c6.063 0 10.979-4.915 10.979-10.979s-4.916-10.978-10.979-10.978z"/><path d="m353.604 261.023c-6.063 0-10.979 4.915-10.979 10.979v41.502l-23.206-46.412c-2.277-4.554-7.385-6.944-12.342-5.775-4.955 1.17-8.456 5.593-8.456 10.685v88.008c0 6.063 4.915 10.979 10.979 10.979s10.979-4.915 10.979-10.979v-41.502l23.206 46.412c1.89 3.78 5.732 6.07 9.817 6.07.836 0 1.683-.096 2.525-.295 4.955-1.17 8.456-5.593 8.456-10.685v-88.008c0-6.064-4.915-10.979-10.979-10.979z"/><path d="m265.596 261.023c-6.063 0-10.979 4.915-10.979 10.979v88.008c0 6.063 4.915 10.979 10.979 10.979s10.979-4.915 10.979-10.979v-88.008c0-6.064-4.915-10.979-10.979-10.979z"/><path d="m221.548 141.012c-18.161 0-32.936 14.775-32.936 32.936v44.094c0 18.161 14.775 32.936 32.936 32.936h.089c18.161 0 32.936-14.775 32.936-32.936v-44.094c0-18.161-14.775-32.936-33.025-32.936zm11.068 77.029c0 6.054-4.925 10.979-10.979 10.979h-.089c-6.054 0-10.979-4.925-10.979-10.979v-44.094c0-6.054 4.925-10.979 11.068-10.979 6.054 0 10.979 4.925 10.979 10.979z"/><path d="m399.608 206.973c6.063 0 10.979-4.915 10.979-10.979s-4.915-10.979-10.979-10.979h-13.023v-22.047h33.025c6.063 0 10.979-4.915 10.979-10.979s-4.915-10.979-10.979-10.979h-44.004c-6.063 0-10.979 4.915-10.979 10.979v88.008c0 6.063 4.915 10.979 10.979 10.979s10.979-4.915 10.979-10.979v-33.025h13.023z"/><path d="m311.601 206.973c6.063 0 10.979-4.915 10.979-10.979s-4.915-10.979-10.979-10.979h-13.024v-22.047h33.025c6.063 0 10.979-4.915 10.979-10.979s-4.915-10.979-10.979-10.979h-44.004c-6.063 0-10.979 4.915-10.979 10.979v88.008c0 6.063 4.915 10.979 10.979 10.979s10.979-4.915 10.979-10.979v-33.025h13.024z"/></g><g><path d="m106.671 450.878c0 6.063 4.915 10.979 10.979 10.979h102.705c6.063 0 10.979-4.915 10.979-10.979s-4.915-10.979-10.979-10.979h-102.706c-6.063 0-10.978 4.915-10.978 10.979z"/><path d="m485.616 97.008h-163.019v-40.444c0-31.19-25.374-56.564-56.563-56.564h-194.065c-31.189 0-56.564 25.374-56.564 56.564v398.872c0 31.19 25.374 56.564 56.564 56.564h194.064c31.19 0 56.564-25.374 56.564-56.564v-40.444h163.019c6.063 0 10.979-4.915 10.979-10.979v-296.026c0-6.064-4.916-10.979-10.979-10.979zm-371.105-75.051h108.981v4.976c0 12.798-10.412 23.211-23.211 23.211h-62.56c-12.798 0-23.211-10.412-23.211-23.211v-4.976zm186.129 433.479c0 19.082-15.524 34.607-34.607 34.607h-194.064c-19.082 0-34.607-15.524-34.607-34.607v-398.872c0-19.082 15.524-34.607 34.607-34.607h20.584v4.976c0 24.905 20.262 45.168 45.168 45.168h62.56c24.905 0 45.168-20.262 45.168-45.168v-4.976h20.584c19.082 0 34.607 15.524 34.607 34.607v40.444h-167.055c-6.063 0-10.979 4.915-10.979 10.979v296.026c0 6.063 4.915 10.979 10.979 10.979h167.055zm173.997-62.401h-330.073v-274.07h330.074v274.07z"/></g></g><g/><g/><g/><g/><g/><g/><g/><g/><g/><g/><g/><g/><g/><g/><g/></svg>