<svg id="Capa_1" enable-background="new 0 0 512 512" viewBox="0 0 512 512" xmlns="http://www.w3.org/2000/svg" fill="#052438"><g><g><path d="m349.183 307.748h-142.366c-6.075 0-11 4.925-11 11s4.925 11 11 11h142.365c6.075 0 11-4.925 11-11s-4.924-11-10.999-11z"/><path d="m349.183 351.748h-142.366c-6.075 0-11 4.925-11 11s4.925 11 11 11h142.365c6.075 0 11-4.925 11-11s-4.924-11-10.999-11z"/><path d="m349.183 395.748h-142.366c-6.075 0-11 4.925-11 11s4.925 11 11 11h142.365c6.075 0 11-4.925 11-11s-4.924-11-10.999-11z"/><path d="m349.183 439.748h-142.366c-6.075 0-11 4.925-11 11s4.925 11 11 11h142.365c6.075 0 11-4.925 11-11s-4.924-11-10.999-11z"/><path d="m420.354 24.279h-130.83c-4.632-14.084-17.91-24.279-33.524-24.279s-28.892 10.195-33.523 24.279h-130.831c-6.075 0-11 4.925-11 11v465.721c0 6.075 4.925 11 11 11h328.707c6.075 0 11-4.925 11-11v-465.721c.001-6.075-4.924-11-10.999-11zm-11 48.559h-72.05v-26.559h72.05zm-177.633-26.559c6.075 0 11-4.925 11-11 0-7.322 5.957-13.279 13.279-13.279s13.279 5.957 13.279 13.279c0 6.075 4.925 11 11 11h35.024v26.559h-118.607v-26.559zm-57.025 0v26.559h-72.05v-26.559zm-72.05 443.721v-395.162h306.707v395.162z"/><path d="m286.863 190.864c6.264-7.193 10.071-16.58 10.071-26.845 0-22.571-18.362-40.934-40.934-40.934s-40.934 18.363-40.934 40.934c0 10.265 3.806 19.652 10.071 26.845-19.919 10.942-33.454 32.123-33.454 56.409v14.975c0 6.075 4.925 11 11 11h106.633c6.075 0 11-4.925 11-11v-14.975c0-24.286-13.534-45.467-33.453-56.409zm-30.863-45.778c10.44 0 18.934 8.494 18.934 18.934s-8.493 18.934-18.934 18.934-18.934-8.494-18.934-18.934 8.494-18.934 18.934-18.934zm42.316 106.162h-84.633v-3.975c0-23.333 18.983-42.316 42.316-42.316s42.316 18.983 42.316 42.316v3.975z"/></g><g fill="#0496FF"><path d="m172.97 314.538c-2.743-7.128-12.658-9.085-17.93-3.57-6.901 6.795-1.913 18.857 7.78 18.78 7.579.213 13.283-8.293 10.15-15.21z"/><path d="m172.97 358.538c-2.743-7.128-12.658-9.085-17.93-3.57-6.901 6.795-1.913 18.857 7.78 18.78 7.579.213 13.283-8.293 10.15-15.21z"/><path d="m172.97 402.538c-2.743-7.128-12.658-9.085-17.93-3.57-6.901 6.795-1.913 18.857 7.78 18.78 7.579.213 13.283-8.293 10.15-15.21z"/><path d="m172.97 446.538c-2.743-7.128-12.658-9.085-17.93-3.57-6.901 6.795-1.913 18.857 7.78 18.78 7.579.213 13.283-8.293 10.15-15.21z"/></g></g><g/><g/><g/><g/><g/><g/><g/><g/><g/><g/><g/><g/><g/><g/><g/></svg>