<svg id="Capa_1" enable-background="new 0 0 512 512" viewBox="0 0 512 512" xmlns="http://www.w3.org/2000/svg" fill="#E6ECF2"><g><g fill="#0496FF"><path d="m445.826 294.125c-5.484-2.616-12.05-.29-14.664 5.194-13.803 28.943-34.822 54.281-60.787 73.272-26.418 19.324-57.507 31.693-89.903 35.77-6.027.759-10.299 6.26-9.541 12.287.7 5.562 5.438 9.628 10.9 9.628.458 0 .921-.028 1.387-.087 36.092-4.542 70.722-18.318 100.146-39.841 28.896-21.136 52.291-49.338 67.656-81.56 2.615-5.482.29-12.048-5.194-14.663z"/><path d="m195.46 400.257c-38.496-12.637-71.608-36.656-95.757-69.46-23.31-31.666-36.212-68.939-37.528-108.176l12.214 12.215c2.148 2.148 4.963 3.222 7.778 3.222s5.63-1.074 7.778-3.222c4.296-4.296 4.296-11.261 0-15.557l-31.112-31.112c-4.296-4.295-11.261-4.295-15.557 0l-31.113 31.112c-4.296 4.296-4.296 11.261 0 15.556 4.296 4.296 11.261 4.296 15.557 0l12.439-12.439c1.281 44.047 15.669 85.911 41.826 121.443 26.877 36.511 63.743 63.248 106.612 77.32 1.14.374 2.295.552 3.433.552 4.624 0 8.929-2.939 10.449-7.572 1.896-5.772-1.247-11.988-7.019-13.882z"/><path d="m499.836 197.054c-4.296-4.295-11.261-4.295-15.557 0l-12.439 12.439c-1.611-55.263-23.882-106.982-63.145-146.244-40.786-40.787-95.014-63.249-152.695-63.249-41.375 0-81.582 11.738-116.274 33.946-33.766 21.615-60.82 52.08-78.239 88.101-2.645 5.469-.354 12.047 5.114 14.691 5.471 2.646 12.048.355 14.692-5.114 15.647-32.358 39.954-59.728 70.294-79.149 31.144-19.937 67.25-30.475 104.413-30.475 104.703 0 190.28 83.403 193.817 187.26l-12.206-12.207c-4.296-4.295-11.261-4.295-15.557 0-4.296 4.296-4.296 11.261 0 15.557l31.112 31.113c2.062 2.062 4.861 3.222 7.778 3.222s5.715-1.159 7.778-3.222l31.113-31.113c4.297-4.296 4.297-11.26.001-15.556z"/></g><path d="m346.669 226.021c7.25-7.825 11.693-18.287 11.693-29.77 0-24.179-19.671-43.851-43.851-43.851-3.719 0-7.33.469-10.781 1.345-4.683-4.427-9.924-8.141-15.555-11.083 7.24-7.823 11.675-18.277 11.675-29.752 0-24.179-19.671-43.851-43.851-43.851s-43.851 19.671-43.851 43.851c0 11.474 4.435 21.928 11.675 29.752-5.631 2.942-10.872 6.656-15.555 11.083-3.451-.876-7.062-1.345-10.781-1.345-24.18 0-43.851 19.671-43.851 43.851 0 11.484 4.443 21.945 11.693 29.77-22.178 11.626-37.353 34.866-37.353 61.595v16.434c0 6.075 4.925 11 11 11h62.144v35.466l-11.464 13.437c-9.395 11.014-12.961 25.43-9.784 39.553 1.695 7.539 5.177 14.318 10.05 19.914-19.599 13.686-32.455 36.394-32.455 62.059v15.521c0 6.075 4.925 11 11 11h175.064c6.075 0 11-4.925 11-11v-15.52c0-37.983-28.135-69.519-64.658-74.861v-14.145c1.621-1.277 3.187-2.641 4.678-4.112 10.528-10.393 16.327-24.264 16.327-39.057v-38.255h62.144c6.075 0 11-4.925 11-11v-16.434c0-26.729-15.174-49.968-37.353-61.595zm-32.157-51.621c12.049 0 21.851 9.802 21.851 21.851s-9.802 21.85-21.851 21.85-21.851-9.802-21.851-21.85 9.802-21.851 21.851-21.851zm-58.512-83.34c12.049 0 21.851 9.802 21.851 21.851s-9.802 21.851-21.851 21.851-21.851-9.802-21.851-21.851 9.802-21.851 21.851-21.851zm0 65.705c9.906 0 19.417 3.086 27.347 8.674-7.837 7.926-12.686 18.812-12.686 30.812 0 11.484 4.443 21.945 11.693 29.77-10.74 5.63-19.829 13.983-26.354 24.141-6.525-10.158-15.614-18.511-26.354-24.141 7.25-7.825 11.693-18.286 11.693-29.77 0-12-4.849-22.886-12.686-30.812 7.93-5.588 17.441-8.674 27.347-8.674zm23.097 219.94c-6.307 6.226-14.664 9.591-23.537 9.476-17.887-.232-32.438-15.273-32.438-33.53v-9.305l32.878-7.493 32.879 7.493v9.959c0 8.862-3.475 17.173-9.782 23.4zm-23.097-63.134c-.82 0-1.64.092-2.444.275l-30.435 6.936v-11.201c0-10.477 8.523-19 19-19h27.758c10.477 0 19 8.523 19 19v11.201l-30.435-6.936c-.804-.183-1.624-.275-2.444-.275zm-58.512-139.171c12.049 0 21.851 9.802 21.851 21.851s-9.802 21.85-21.851 21.85-21.851-9.802-21.851-21.85 9.802-21.851 21.851-21.851zm-47.51 113.217c0-26.198 21.313-47.511 47.511-47.511 19.44 0 36.171 11.744 43.517 28.503-16.249.438-30.164 10.368-36.391 24.441h-54.636v-5.433zm51.359 111.062c-1.643-7.301.201-14.754 5.058-20.447l.605-.71c3.646 7.293 8.832 13.678 15.126 18.709v14.388c-3.739.547-7.384 1.382-10.926 2.457-4.995-3.323-8.515-8.401-9.863-14.397zm131.195 86.801v4.52h-153.064v-4.52c0-28.095 21.709-51.201 49.231-53.461l19.523 19.523c2.148 2.148 4.963 3.222 7.778 3.222s5.63-1.074 7.778-3.222l19.523-19.523c27.522 2.26 49.231 25.366 49.231 53.461zm-64.658-69.147-11.874 11.874-11.874-11.874v-9.473c3.599.812 7.327 1.269 11.148 1.319.246.003.489.005.734.005 4.041 0 8.01-.449 11.865-1.295v9.444zm94.148-123.283h-54.636c-6.227-14.073-20.142-24.004-36.391-24.441 7.345-16.76 24.077-28.503 43.517-28.503 26.197 0 47.511 21.313 47.511 47.511v5.433z"/></g><g/><g/><g/><g/><g/><g/><g/><g/><g/><g/><g/><g/><g/><g/><g/></svg>