<svg id="Capa_1" enable-background="new 0 0 512 512" viewBox="0 0 512 512" xmlns="http://www.w3.org/2000/svg" fill="#E6ECF2"><g><g fill="#0496FF"><path d="m501 111.816h-132.978v22h121.978v318.711h-33.346v22h44.346c6.075 0 11-4.925 11-11v-340.711c0-6.075-4.925-11-11-11z"/><path d="m0 122.816v340.711c0 6.075 4.925 11 11 11h44.345v-22h-33.345v-318.711h121.978v-22h-132.978c-6.075 0-11 4.925-11 11z"/></g><g><path d="m434.202 422.971c7.25-7.825 11.693-18.286 11.693-29.77 0-24.179-19.671-43.851-43.851-43.851s-43.851 19.671-43.851 43.851c0 11.484 4.443 21.945 11.693 29.77-10.59 5.552-19.576 13.75-26.081 23.716-11.438-19.073-31.034-32.719-53.931-36.068v-14.145c1.621-1.277 3.187-2.641 4.678-4.112 10.528-10.393 16.327-24.264 16.327-39.057v-43.724c0-22.607-18.393-41-41-41h-27.758c-22.607 0-41 18.393-41 41v40.936l-11.463 13.438c-9.395 11.013-12.961 25.43-9.785 39.553 1.695 7.539 5.178 14.318 10.051 19.914-8.778 6.129-16.208 14.06-21.729 23.266-6.505-9.966-15.49-18.164-26.081-23.716 7.25-7.825 11.693-18.287 11.693-29.77 0-24.179-19.671-43.851-43.851-43.851s-43.851 19.671-43.851 43.851c0 11.484 4.443 21.945 11.693 29.77-22.179 11.626-37.353 34.865-37.353 61.595v16.433c0 6.075 4.925 11 11 11h409.111c6.075 0 11-4.925 11-11v-16.434c0-26.73-15.175-49.969-37.354-61.595zm-32.158-51.621c12.049 0 21.851 9.802 21.851 21.851s-9.802 21.85-21.851 21.85-21.851-9.802-21.851-21.85 9.802-21.851 21.851-21.851zm-134.17 44.983-11.874 11.874-11.874-11.874v-9.473c3.599.812 7.327 1.269 11.148 1.319.246.003.489.005.734.005 4.041 0 8.01-.449 11.865-1.295v9.444zm11.223-39.628c-6.308 6.226-14.659 9.603-23.537 9.476-17.887-.232-32.439-15.273-32.439-33.53v-9.305l32.879-7.493 32.879 7.493v9.959c0 8.862-3.475 17.173-9.782 23.4zm-55.976-67.124c0-10.477 8.523-19 19-19h27.758c10.477 0 19 8.523 19 19v11.201l-30.435-6.936c-.805-.183-1.625-.275-2.444-.275s-1.64.092-2.444.275l-30.435 6.936zm-21.785 89.098c-1.642-7.301.202-14.753 5.059-20.447l.605-.709c3.646 7.293 8.833 13.678 15.126 18.708v14.388c-3.739.547-7.384 1.383-10.926 2.457-4.995-3.323-8.515-8.401-9.864-14.397zm-91.38-27.329c12.048 0 21.851 9.802 21.851 21.851s-9.802 21.85-21.851 21.85-21.851-9.802-21.851-21.85 9.803-21.851 21.851-21.851zm-47.511 113.216c0-26.198 21.313-47.511 47.511-47.511s47.511 21.313 47.511 47.511v.914 4.52h-95.022zm117.022.914c0-28.095 21.709-51.201 49.232-53.461l19.522 19.523c2.063 2.062 4.861 3.222 7.778 3.222s5.716-1.159 7.778-3.222l19.523-19.523c27.522 2.26 49.231 25.366 49.231 53.461v4.52h-153.064zm270.089 4.52h-95.023v-4.52-.914c0-26.198 21.313-47.511 47.512-47.511s47.512 21.313 47.512 47.511v5.434z"/><path d="m144.184 157.671h5.807c1.743 5.309 3.882 10.473 6.404 15.458l-4.107 4.107c-4.295 4.296-4.295 11.261 0 15.557l33.736 33.736c4.296 4.296 11.261 4.296 15.557 0l4.107-4.107c4.985 2.522 10.149 4.661 15.458 6.404v5.807c0 6.075 4.925 11 11 11h47.709c6.075 0 11-4.925 11-11v-5.807c5.31-1.743 10.473-3.882 15.458-6.404l4.106 4.106c2.062 2.063 4.86 3.222 7.778 3.222 2.917 0 5.715-1.159 7.778-3.222l33.737-33.736c2.062-2.063 3.222-4.861 3.222-7.778s-1.159-5.715-3.222-7.778l-4.107-4.107c2.522-4.985 4.661-10.149 6.403-15.458h5.808c6.075 0 11-4.925 11-11v-47.71c0-6.075-4.925-11-11-11h-5.808c-1.742-5.308-3.882-10.473-6.403-15.458l4.106-4.106c2.063-2.062 3.223-4.861 3.223-7.778s-1.159-5.715-3.222-7.778l-33.737-33.737c-2.063-2.063-4.861-3.222-7.778-3.222-2.918 0-5.716 1.159-7.778 3.222l-4.106 4.106c-4.984-2.521-10.15-4.661-15.458-6.404v-5.806c0-6.075-4.925-11-11-11h-47.709c-6.075 0-11 4.925-11 11v5.807c-5.308 1.742-10.473 3.882-15.458 6.403l-4.106-4.106c-2.063-2.063-4.861-3.222-7.778-3.222s-5.715 1.159-7.778 3.222l-33.738 33.736c-2.063 2.063-3.222 4.861-3.222 7.778s1.159 5.715 3.222 7.778l4.106 4.106c-2.522 4.985-4.661 10.148-6.403 15.458h-5.807c-6.075 0-11 4.925-11 11v47.71c0 6.076 4.925 11.001 11 11.001zm11-47.71h3.099c5.074 0 9.489-3.47 10.688-8.4 2.169-8.918 5.689-17.414 10.461-25.251 2.639-4.334 1.971-9.911-1.618-13.499l-2.192-2.192 18.18-18.18 2.192 2.192c3.588 3.588 9.164 4.257 13.499 1.618 7.838-4.772 16.334-8.292 25.251-10.461 4.93-1.2 8.4-5.615 8.4-10.688v-3.1h25.709v3.099c0 5.074 3.47 9.489 8.4 10.688 8.917 2.169 17.413 5.689 25.251 10.461 4.335 2.64 9.912 1.97 13.499-1.618l2.192-2.192 18.181 18.18-2.192 2.193c-3.589 3.588-4.257 9.165-1.618 13.499 4.772 7.838 8.292 16.333 10.461 25.25 1.199 4.93 5.615 8.4 10.688 8.4h3.1v25.71h-3.1c-5.074 0-9.489 3.47-10.688 8.4-2.169 8.917-5.688 17.412-10.461 25.25-2.639 4.334-1.971 9.911 1.617 13.499l2.193 2.193-18.181 18.18-2.192-2.192c-3.587-3.587-9.164-4.257-13.499-1.618-7.837 4.772-16.332 8.292-25.251 10.461-4.931 1.199-8.4 5.615-8.4 10.688v3.099h-25.709v-3.099c0-5.074-3.47-9.489-8.4-10.688-8.918-2.169-17.414-5.689-25.251-10.461-4.334-2.638-9.911-1.97-13.499 1.617l-2.193 2.193-18.18-18.18 2.193-2.193c3.588-3.588 4.256-9.165 1.617-13.499-4.772-7.837-8.292-16.333-10.461-25.251-1.2-4.93-5.615-8.4-10.688-8.4h-3.099v-25.708z"/><path d="m256 183.95c33.709 0 61.134-27.424 61.134-61.134 0-33.709-27.425-61.133-61.134-61.133s-61.134 27.424-61.134 61.133 27.425 61.134 61.134 61.134zm0-100.267c21.578 0 39.134 17.555 39.134 39.133 0 21.579-17.556 39.134-39.134 39.134-21.579 0-39.134-17.555-39.134-39.134 0-21.578 17.555-39.133 39.134-39.133z"/></g></g><g/><g/><g/><g/><g/><g/><g/><g/><g/><g/><g/><g/><g/><g/><g/></svg>