<svg id="Capa_1" enable-background="new 0 0 512 512" viewBox="0 0 512 512" xmlns="http://www.w3.org/2000/svg" fill="#E6ECF2"><g><g><path d="m501 435h-8v-313.999c0-17.093-13.906-31-31-31h-84.743c-6.075 0-11 4.925-11 11s4.925 11 11 11h84.743c4.963 0 9 4.037 9 9v268.998h-430v-268.998c0-4.962 4.037-9 9-9h85.494c6.075 0 11-4.925 11-11s-4.925-11-11-11h-85.494c-17.094 0-31 13.906-31 31v313.999h-8c-6.075 0-11 4.925-11 11v35c0 17.093 13.906 31 31 31h450c17.094 0 31-13.906 31-31v-35c0-6.075-4.925-11-11-11zm-460-23.001h430v23.001h-155c-2.917 0-5.715 1.159-7.778 3.222l-6.779 6.778h-90.887l-6.778-6.778c-2.063-2.063-4.861-3.222-7.778-3.222h-155zm449 69.001c0 4.962-4.037 9-9 9h-450c-4.963 0-9-4.037-9-9v-24h169.443l6.778 6.778c2.063 2.063 4.861 3.222 7.778 3.222h100c2.917 0 5.715-1.159 7.778-3.222l6.778-6.778h169.445z"/><path d="m256 225.465c6.856 0 13.692-.9 20.316-2.674 5.869-1.572 9.352-7.604 7.779-13.472-1.571-5.868-7.604-9.353-13.471-7.779-4.77 1.277-9.69 1.925-14.625 1.925-31.154 0-56.5-25.346-56.5-56.5s25.346-56.5 56.5-56.5 56.5 25.346 56.5 56.5c0 6.341-5.159 11.5-11.5 11.5s-11.5-5.159-11.5-11.5c0-18.472-15.028-33.5-33.5-33.5s-33.5 15.028-33.5 33.5 15.028 33.5 33.5 33.5c8.652 0 16.549-3.297 22.5-8.701 5.951 5.404 13.848 8.701 22.5 8.701 18.472 0 33.5-15.028 33.5-33.5 0-43.285-35.215-78.5-78.5-78.5s-78.5 35.215-78.5 78.5 35.216 78.5 78.501 78.5zm0-67c-6.341 0-11.5-5.159-11.5-11.5s5.159-11.5 11.5-11.5 11.5 5.159 11.5 11.5-5.159 11.5-11.5 11.5z"/></g><path d="m416.431 128.119-124.897-124.897c-2.062-2.063-4.861-3.222-7.778-3.222h-55.511c-2.917 0-5.715 1.159-7.778 3.222l-124.897 124.897c-2.062 2.063-3.222 4.861-3.222 7.778v215.101c0 6.075 4.925 11 11 11h305.304c6.075 0 11-4.925 11-11v-215.101c0-2.917-1.159-5.715-3.221-7.778zm-302.082 73.672 94.346 64.208-94.346 64.208zm117.284 75.209h48.735l92.57 62.999h-233.875zm71.673-11.001 94.346-64.208v128.415zm-70.504-243.999h46.397l118.453 118.454v34.727l-117.284 79.819h-48.734l-117.285-79.82v-34.727z" fill="#0496FF"/></g><g/><g/><g/><g/><g/><g/><g/><g/><g/><g/><g/><g/><g/><g/><g/></svg>