<svg id="Capa_1" enable-background="new 0 0 512 512" viewBox="0 0 512 512" xmlns="http://www.w3.org/2000/svg" fill="#052438"><g><path d="m501 433.863h-8v-313.999c0-17.093-13.907-31-31-31h-80.426c-6.075 0-11 4.925-11 11s4.925 11 11 11h80.426c4.962 0 9 4.038 9 9v268.998h-430v-268.998c0-4.962 4.038-9 9-9h80.739c6.075 0 11-4.925 11-11s-4.925-11-11-11h-80.739c-17.093 0-31 13.907-31 31v313.999h-8c-6.075 0-11 4.925-11 11v35c0 17.093 13.907 31 31 31h450c17.093 0 31-13.907 31-31v-35c0-6.075-4.925-11-11-11zm-460-23.001h430v23.001h-155c-2.917 0-5.715 1.159-7.778 3.222l-6.778 6.778h-90.887l-6.778-6.778c-2.063-2.063-4.861-3.222-7.778-3.222h-155.001zm449 69.001c0 4.962-4.038 9-9 9h-450c-4.962 0-9-4.038-9-9v-24h169.443l6.778 6.778c2.063 2.063 4.861 3.222 7.778 3.222h100c2.917 0 5.715-1.159 7.778-3.222l6.778-6.778h169.445z"/><g><path d="m372.136 198.592h-23.14c-6.075 0-11-4.925-11-11s4.925-11 11-11h23.14c18.121 0 32.864-14.743 32.864-32.863 0-18.122-14.743-32.864-32.864-32.864-6.075 0-11-4.925-11-11 0-14.959-6.976-28.524-19.139-37.216-12.239-8.747-27.375-10.987-41.524-6.143-4.445 1.522-9.367.051-12.25-3.659-14.666-18.881-36.766-29.709-60.633-29.709-42.308 0-76.728 34.42-76.728 76.728 0 6.075-4.925 11-11 11-18.121 0-32.864 14.743-32.864 32.864s14.743 32.863 32.864 32.863h20.571c6.075 0 11 4.925 11 11s-4.925 11-11 11h-20.571c-30.25-.001-54.862-24.613-54.862-54.864 0-26.663 19.118-48.944 44.366-53.856 5.024-49.764 47.16-88.735 98.226-88.735 28.205 0 54.487 11.747 73.201 32.477 18.589-4.053 38.29-.089 53.997 11.136 15.25 10.899 24.995 26.967 27.626 45.081 25.356 4.823 44.584 27.156 44.584 53.897 0 30.251-24.612 54.863-54.864 54.863zm-78.639 0h-72.798c-6.075 0-11-4.925-11-11s4.925-11 11-11h72.798c6.075 0 11 4.925 11 11s-4.925 11-11 11z" fill="#0496FF"/></g><g><g><path d="m213.504 338.768h-45.5c-6.075 0-11-4.925-11-11v-101.154h-14.493c-4.174 0-7.988-2.362-9.848-6.098s-1.445-8.204 1.071-11.533l48.243-63.846c2.079-2.751 5.328-4.369 8.776-4.369s6.697 1.617 8.776 4.369l48.243 63.846c2.516 3.33 2.931 7.797 1.071 11.533s-5.674 6.098-9.848 6.098h-14.493v101.154c.002 6.075-4.923 11-10.998 11zm-34.5-22h23.5v-101.154c0-6.075 4.925-11 11-11h3.394l-26.144-34.6-26.144 34.6h3.394c6.075 0 11 4.925 11 11z"/></g><g><path d="m321.246 338.769c-3.448 0-6.697-1.617-8.776-4.369l-48.243-63.845c-2.516-3.33-2.931-7.797-1.071-11.533s5.674-6.098 9.848-6.098h14.493v-101.155c0-6.075 4.925-11 11-11h45.5c6.075 0 11 4.925 11 11v101.155h14.492c4.174 0 7.988 2.362 9.848 6.098s1.445 8.204-1.071 11.533l-48.244 63.845c-2.079 2.751-5.328 4.369-8.776 4.369zm-26.143-63.846 26.144 34.599 26.144-34.599h-3.393c-6.075 0-11-4.925-11-11v-101.154h-23.5v101.155c0 6.075-4.925 11-11 11h-3.395z"/></g></g></g><g/><g/><g/><g/><g/><g/><g/><g/><g/><g/><g/><g/><g/><g/><g/></svg>