<svg id="Layer_1" enable-background="new 0 0 512 512" viewBox="0 0 512 512" xmlns="http://www.w3.org/2000/svg" fill="#052438"><g><g><path d="m456.9 328.304v-22.142c0-37.821-30.77-68.591-68.591-68.591s-68.591 30.77-68.591 68.591v105.44c0 43.229-35.169 78.398-78.398 78.398s-78.398-35.169-78.398-78.398v-52.756c78.655-5.655 140.923-71.45 140.923-151.521 0-29.319-8.371-57.78-24.207-82.307-15.416-23.875-37.111-42.914-62.739-55.056l-9.42 19.881c21.924 10.387 40.484 26.677 53.677 47.109 11.545 17.88 18.429 38.217 20.209 59.373h-51.367c-1.887-53.298-17.42-100.211-41.488-124.16l-15.518 15.595c19.846 19.748 33.166 61.596 34.981 108.565h-112.101c1.815-46.969 15.135-88.818 34.982-108.566l-15.518-15.595c-24.069 23.95-39.601 70.863-41.489 124.161h-51.367c1.78-21.155 8.664-41.492 20.209-59.373 13.192-20.432 31.754-36.722 53.677-47.109l-9.42-19.881c-25.628 12.143-47.323 31.181-62.739 55.056-15.836 24.527-24.207 52.988-24.207 82.307 0 80.071 62.268 145.866 140.922 151.521v52.756c0 55.359 45.038 100.398 100.398 100.398s100.398-45.039 100.398-100.398v-105.44c0-25.69 20.9-46.591 46.591-46.591s46.591 20.901 46.591 46.591v22.142c-31.228 5.255-55.099 32.468-55.099 65.167v52.431c0 36.447 29.651 66.099 66.099 66.099s66.1-29.652 66.1-66.099v-52.432c0-32.698-23.872-59.911-55.1-65.166zm-342.619-26.071c-10.781-22.586-17.198-52.056-18.405-83.908h112.092c-1.206 31.852-7.623 61.323-18.405 83.908-10.622 22.252-24.343 35.014-37.642 35.014s-27.018-12.762-37.64-35.014zm86.044 25.656c3.227-4.867 6.269-10.263 9.092-16.178 12.138-25.427 19.314-58.254 20.561-93.386h51.397c-4.193 49.769-36.557 91.637-81.05 109.564zm-177.855-109.564h51.397c1.246 35.132 8.423 67.958 20.561 93.386 2.824 5.915 5.865 11.312 9.092 16.179-44.494-17.927-76.857-59.796-81.05-109.565zm467.53 227.576c0 24.316-19.783 44.099-44.1 44.099s-44.099-19.783-44.099-44.099v-52.431c0-24.316 19.782-44.099 44.099-44.099s44.1 19.783 44.1 44.099z"/><path d="m445.9 381.371c-6.075 0-11 4.925-11 11v10.629c0 6.075 4.925 11 11 11s11-4.925 11-11v-10.629c0-6.075-4.924-11-11-11z"/></g><path d="m266.274 0h-228.705c-6.075 0-11 4.925-11 11s4.925 11 11 11h33v57.982c0 6.075 4.925 11 11 11h140.705c6.075 0 11-4.925 11-11v-57.982h33c6.075 0 11-4.925 11-11s-4.924-11-11-11zm-55 68.982h-118.705v-46.982h118.705z" fill="#0496FF"/></g><g/><g/><g/><g/><g/><g/><g/><g/><g/><g/><g/><g/><g/><g/><g/></svg>