<svg id="Layer_1" enable-background="new 0 0 512 512" viewBox="0 0 512 512" xmlns="http://www.w3.org/2000/svg" fill="#052438"><g><g fill="#0496FF"><path d="m501 160.596h-207.887c-6.075 0-11 4.925-11 11v135.562c0 6.075 4.925 11 11 11h64.86l-12.931 28.448 20.028 9.104 17.069-37.552h29.834l17.069 37.552 20.028-9.104-12.931-28.448h64.861c6.075 0 11-4.925 11-11v-135.562c0-6.075-4.925-11-11-11zm-11 135.562h-185.887v-113.562h185.887z"/><path d="m342.9 267.37c3.157 8.023 14.656 9.153 19.3 1.89 4.408-6.186.487-15.605-6.99-16.89-8.427-1.826-15.76 7.086-12.31 15z"/><path d="m386.9 267.37c3.149 8.02 14.663 9.155 19.3 1.89 4.408-6.188.488-15.613-6.99-16.89-8.427-1.828-15.759 7.086-12.31 15z"/><path d="m430.9 267.37c2.683 7.095 12.732 9.081 17.93 3.57 6.202-6.007 2.873-17-5.62-18.57-8.428-1.828-15.764 7.087-12.31 15z"/></g><path d="m501 340.158h-239.992v-14.723c0-38.449-28.514-70.352-65.505-75.703v-14.538c1.657-1.302 3.259-2.695 4.782-4.198 10.639-10.502 16.498-24.518 16.498-39.465v-74.689c0-6.075-4.925-11-11-11h-58.513c-22.824 0-41.393 18.569-41.393 41.393v43.634c0 17.805 8.348 33.772 21.28 44.082v14.782c-36.99 5.351-65.505 37.254-65.505 75.703v14.723h-50.652c-6.075 0-11 4.925-11 11v44c0 6.075 4.925 11 11 11h490c6.075 0 11-4.925 11-11v-44c0-6.076-4.925-11.001-11-11.001zm-373.123-149.29v-7.317h47.905c6.854 0 13.316-1.699 19-4.686v12.665c0 9.018-3.535 17.473-9.953 23.809-6.417 6.334-14.917 9.757-23.947 9.641-18.198-.236-33.005-15.538-33.005-34.112zm0-43.634c0-10.693 8.7-19.393 19.393-19.393h47.513v14.709c0 10.477-8.523 19-19 19h-47.905v-14.316zm32.72 99.745c.248.003.495.005.741.005 4.145 0 8.215-.467 12.165-1.347v9.738l-12.173 12.173-12.173-12.173v-9.771c3.692.845 7.517 1.324 11.44 1.375zm-76.945 78.456c0-28.583 22.12-52.081 50.139-54.314l19.761 19.761c2.063 2.063 4.861 3.222 7.778 3.222s5.715-1.159 7.778-3.222l19.761-19.761c28.018 2.234 50.139 25.731 50.139 54.314v14.723h-155.356zm406.348 58.723h-468v-22h468z"/></g><g/><g/><g/><g/><g/><g/><g/><g/><g/><g/><g/><g/><g/><g/><g/></svg>