<svg id="Layer_1" enable-background="new 0 0 512 512" viewBox="0 0 512 512" xmlns="http://www.w3.org/2000/svg" fill="#052438"><g><g><path d="m256 168.779c20.67 0 37.486-16.816 37.486-37.486 0-6.075-4.925-11-11-11s-11 4.925-11 11c0 8.539-6.947 15.486-15.486 15.486s-15.486-6.947-15.486-15.486c0-6.075-4.925-11-11-11s-11 4.925-11 11c0 20.67 16.816 37.486 37.486 37.486z"/><path d="m512 102.495c0-6.075-4.925-11-11-11h-163.647v-9h-22v48.388c0 32.727-26.625 59.353-59.353 59.353s-59.353-26.625-59.353-59.353v-48.388h-22v9h-163.647c-6.075 0-11 4.925-11 11v324.996c0 6.075 4.925 11 11 11h166.758l-27.925 48.996h-77.837c-6.075 0-11 4.925-11 11s4.925 11 11 11h368.008c6.075 0 11-4.925 11-11s-4.925-11-11-11h-77.836l-27.925-48.996h166.757c6.075 0 11-4.925 11-11zm-174.647 28.388v-17.388h152.647v242h-91.397v-36.461c0-54.423-41.766-99.268-94.928-104.184v-18.108c20.385-14.798 33.678-38.799 33.678-65.859zm-3.75 177.151c-6.075 0-11 4.925-11 11v36.461h-133.206v-36.461c0-6.075-4.925-11-11-11s-11 4.925-11 11v36.461h-32v-36.461c0-44.498 35.358-80.875 79.452-82.557l33.372 33.372c2.148 2.148 4.963 3.222 7.778 3.222s5.63-1.074 7.778-3.222l33.372-33.372c44.094 1.682 79.452 38.059 79.452 82.557v36.461h-32v-36.461c.002-6.076-4.923-11-10.998-11zm-51.929-99.974v12.779l-25.674 25.675-25.674-25.674v-12.78c8.077 2.694 16.703 4.175 25.674 4.175s17.597-1.481 25.674-4.175zm-259.674-94.565h152.647v17.388c0 27.06 13.293 51.061 33.678 65.859v18.108c-53.162 4.916-94.928 49.76-94.928 104.184v36.461h-91.397zm314.846 373.992h-161.692l27.925-48.996h105.841zm-314.846-70.996v-38.996h468v38.996z"/></g><path d="m370.353 2.513h-228.706c-6.075 0-11 4.925-11 11s4.925 11 11 11h33v57.982c0 6.075 4.925 11 11 11h140.705c6.075 0 11-4.925 11-11v-57.982h33c6.075 0 11-4.925 11-11s-4.924-11-10.999-11zm-55 68.982h-118.706v-46.982h118.705v46.982z" fill="#0496FF"/></g><g/><g/><g/><g/><g/><g/><g/><g/><g/><g/><g/><g/><g/><g/><g/></svg>