<svg id="Capa_1" enable-background="new 0 0 512 512" viewBox="0 0 512 512" xmlns="http://www.w3.org/2000/svg" fill="#E6ECF2"><g><g><path d="m400.987 176.432c6.075 0 11-4.925 11-11v-124.432c0-22.607-18.393-41-41-41h-230c-22.607 0-41 18.393-41 41v430c0 22.607 18.393 41 41 41h230c22.607 0 41-18.393 41-41v-203.806c0-6.075-4.925-11-11-11s-11 4.925-11 11v203.806c0 10.477-8.523 19-19 19h-230c-10.477 0-19-8.523-19-19v-430c0-10.477 8.523-19 19-19h39.572l12.493 37.479c1.497 4.492 5.701 7.521 10.436 7.521h105c4.734 0 8.938-3.029 10.436-7.521l12.492-37.479h39.572c10.477 0 19 8.523 19 19v124.432c-.001 6.075 4.924 11 10.999 11zm-100.428-131.432h-89.143l-7.667-23h104.476z"/><path d="m240.986 445c-6.075 0-11 4.925-11 11s4.925 11 11 11h30c6.075 0 11-4.925 11-11s-4.925-11-11-11z"/></g><path d="m485.514 156.701c-2.182-3.778-6.386-5.91-10.727-5.435l-180.261 19.78c-4.235.465-7.821 3.334-9.204 7.365-1.383 4.03-.313 8.497 2.745 11.464l44.393 43.069c-22.427 9.472-46.474 17.669-71.617 24.405-54.056 14.483-106.736 20.558-148.324 17.101-36.754-3.054-61.029-13.582-64.937-28.164-2.418-9.023 2.968-21.165 15.165-34.188 4.152-4.435 3.924-11.396-.51-15.549-4.434-4.151-11.395-3.925-15.549.51-22.54 24.068-23.511 43.151-20.356 54.922 6.606 24.656 36.567 40.423 84.364 44.395 8.175.68 16.735 1.015 25.621 1.015 39.007 0 84.251-6.473 130.219-18.79 26.947-7.219 52.715-16.068 76.708-26.335l14.815 58.841c1.04 4.133 4.374 7.292 8.556 8.11.705.138 1.411.204 2.112.204 3.461 0 6.772-1.637 8.868-4.494l107.261-146.22c2.582-3.518 2.839-8.228.658-12.006zm-111.828 126.362-12.822-50.922c-.499-1.982-1.54-3.786-3.008-5.209l-37.689-36.566 132.156-14.502z" fill="#0496FF"/></g><g/><g/><g/><g/><g/><g/><g/><g/><g/><g/><g/><g/><g/><g/><g/></svg>