<svg id="Capa_1" enable-background="new 0 0 512 512" viewBox="0 0 512 512" xmlns="http://www.w3.org/2000/svg" fill="#E6ECF2"><g><g><path d="m501 423.75h-8v-314c0-17.094-13.906-31-31-31h-32.223c-6.075 0-11 4.925-11 11s4.925 11 11 11h32.223c4.963 0 9 4.037 9 9v268.997h-430v-268.997c0-4.963 4.037-9 9-9h234.777c6.075 0 11-4.925 11-11s-4.925-11-11-11h-234.777c-17.094 0-31 13.906-31 31v314h-8c-6.075 0-11 4.925-11 11v35c0 17.094 13.906 31 31 31h450c17.094 0 31-13.906 31-31v-35c0-6.076-4.925-11-11-11zm-460-23.002h430v23.002h-155c-2.917 0-5.715 1.159-7.778 3.222l-6.778 6.778h-90.887l-6.778-6.778c-2.063-2.062-4.861-3.222-7.778-3.222h-155.001zm449 69.002c0 4.963-4.037 9-9 9h-450c-4.963 0-9-4.037-9-9v-24h169.443l6.778 6.778c2.063 2.062 4.861 3.222 7.778 3.222h100c2.917 0 5.715-1.159 7.778-3.222l6.778-6.778h169.445z"/><path d="m256.229 224.041c0 24.436 19.88 44.315 44.315 44.315h90.919c12.305 0 22.314 10.01 22.314 22.314s-10.01 22.315-22.314 22.315h-231.74c-6.075 0-11 4.925-11 11s4.925 11 11 11h231.74c24.436 0 44.314-19.88 44.314-44.315s-19.879-44.314-44.314-44.314h-90.919c-12.305 0-22.315-10.011-22.315-22.315s10.011-22.315 22.315-22.315h51.733c6.075 0 11-4.925 11-11s-4.925-11-11-11h-51.733c-24.436-.001-44.315 19.879-44.315 44.315z"/></g><g fill="#0496FF"><path d="m357.277 11.25c-43.285 0-78.5 35.215-78.5 78.5 0 29.476 14.861 54.669 27.329 70.612 16.057 20.534 34.401 34.222 46.215 40.183 1.559.786 3.258 1.18 4.956 1.18s3.397-.394 4.956-1.18c11.813-5.961 30.158-19.648 46.215-40.183 12.468-15.943 27.329-41.137 27.329-70.612 0-43.285-35.215-78.5-78.5-78.5zm0 166.848c-21.651-13.464-56.5-49.5-56.5-88.348 0-31.154 25.346-56.5 56.5-56.5s56.5 25.346 56.5 56.5c0 38.848-34.848 74.884-56.5 88.348z"/><path d="m357.278 56.25c-18.473 0-33.501 15.028-33.501 33.5s15.028 33.5 33.501 33.5c18.472 0 33.499-15.028 33.499-33.5s-15.027-33.5-33.499-33.5zm0 45c-6.342 0-11.501-5.159-11.501-11.5s5.159-11.5 11.501-11.5c6.341 0 11.499 5.159 11.499 11.5s-5.158 11.5-11.499 11.5z"/><path d="m154.723 144.512c-43.285 0-78.5 35.215-78.5 78.5 0 29.476 14.861 54.669 27.329 70.612 16.057 20.535 34.401 34.221 46.216 40.182 1.558.786 3.257 1.18 4.955 1.18s3.397-.394 4.955-1.18c11.814-5.961 30.159-19.646 46.216-40.182 12.468-15.943 27.329-41.137 27.329-70.612 0-43.285-35.215-78.5-78.5-78.5zm0 166.847c-21.651-13.463-56.5-49.498-56.5-88.347 0-31.154 25.346-56.5 56.5-56.5s56.5 25.346 56.5 56.5c0 38.849-34.849 74.884-56.5 88.347z"/><path d="m154.723 189.512c-18.472 0-33.5 15.028-33.5 33.5s15.028 33.5 33.5 33.5 33.5-15.028 33.5-33.5-15.029-33.5-33.5-33.5zm0 45c-6.341 0-11.5-5.159-11.5-11.5s5.159-11.5 11.5-11.5 11.5 5.159 11.5 11.5-5.16 11.5-11.5 11.5z"/></g></g><g/><g/><g/><g/><g/><g/><g/><g/><g/><g/><g/><g/><g/><g/><g/></svg>