<svg id="Capa_1" enable-background="new 0 0 512 512" viewBox="0 0 512 512" xmlns="http://www.w3.org/2000/svg" fill="#052438"><g><g><path d="m471 144.952h-59.375c-6.075 0-11 4.925-11 11s4.925 11 11 11h59.375c10.477 0 19 8.523 19 19v230c0 10.477-8.523 19-19 19h-430c-10.477 0-19-8.523-19-19v-39.572l37.479-12.492c4.491-1.498 7.521-5.701 7.521-10.436v-105.001c0-4.735-3.03-8.938-7.521-10.436l-37.479-12.492v-39.571c0-10.477 8.523-19 19-19h272.542c6.075 0 11-4.925 11-11s-4.925-11-11-11h-272.542c-22.607 0-41 18.393-41 41v230c0 22.607 18.393 41 41 41h430c22.607 0 41-18.393 41-41v-230c0-22.608-18.393-41-41-41zm-426 111.427v89.144l-23 7.666v-104.476z"/><path d="m467 315.952v-30c0-6.075-4.925-11-11-11s-11 4.925-11 11v30c0 6.075 4.925 11 11 11s11-4.925 11-11z"/><path d="m290.122 173.819c-4.295 4.296-4.295 11.261 0 15.557l39.572 39.572c2.148 2.148 4.963 3.222 7.778 3.222s5.63-1.074 7.778-3.222c4.295-4.296 4.295-11.261 0-15.557l-39.572-39.572c-4.295-4.295-11.26-4.295-15.556 0z"/></g><path d="m452.059 67.011c-15.887-15.886-42.22-15.96-58.7-.163l-146.96 140.858c-47.775 4.824-54.076 36.802-59.175 62.682-2.92 14.818-5.678 28.815-14.724 39.463-2.08 2.447-2.985 5.681-2.48 8.853.505 3.171 2.372 5.964 5.108 7.644 12.497 7.672 29.356 11.455 46.887 11.455 19.848 0 40.554-4.851 56.75-14.399 20.398-12.026 31.95-30.031 33.019-51.171l140.439-146.522c15.795-16.48 15.722-42.813-.164-58.7zm-184.469 237.441c-20.072 11.834-49.583 14.712-70.379 7.932 6.577-12.259 9.207-25.609 11.597-37.742 5.094-25.852 8.263-41.934 39.566-45.034l41.444 41.444c-.659 13.861-8.121 25.084-22.228 33.4zm168.749-193.964-135.061 140.911-33.607-33.608 140.911-135.06c7.905-7.579 20.432-7.652 27.92-.163 7.489 7.488 7.415 20.013-.163 27.92z" fill="#0496FF"/></g><g/><g/><g/><g/><g/><g/><g/><g/><g/><g/><g/><g/><g/><g/><g/></svg>