<svg id="Layer_1" enable-background="new 0 0 512 512" viewBox="0 0 512 512" xmlns="http://www.w3.org/2000/svg" fill="#052438"><g><g fill="#0496FF"><path d="m392.776 163.64h64.224c6.075 0 11-4.925 11-11s-4.925-11-11-11h-64.224c-6.075 0-11 4.925-11 11s4.925 11 11 11z"/><path d="m392.776 207.64h44.224c6.075 0 11-4.925 11-11s-4.925-11-11-11h-44.224c-6.075 0-11 4.925-11 11s4.925 11 11 11z"/><path d="m457 229.64h-64.224c-6.075 0-11 4.925-11 11s4.925 11 11 11h64.224c6.075 0 11-4.925 11-11s-4.925-11-11-11z"/><path d="m392.776 295.64h44.224c6.075 0 11-4.925 11-11s-4.925-11-11-11h-44.224c-6.075 0-11 4.925-11 11s4.925 11 11 11z"/><path d="m457 317.64h-64.224c-6.075 0-11 4.925-11 11s4.925 11 11 11h64.224c6.075 0 11-4.925 11-11s-4.925-11-11-11z"/><path d="m392.776 383.64h44.224c6.075 0 11-4.925 11-11s-4.925-11-11-11h-44.224c-6.075 0-11 4.925-11 11s4.925 11 11 11z"/><path d="m457 405.64h-64.224c-6.075 0-11 4.925-11 11s4.925 11 11 11h64.224c6.075 0 11-4.925 11-11s-4.925-11-11-11z"/><path d="m108.868 387.642-48.32-28.22c-3.403-1.988-7.607-2.003-11.024-.042-3.416 1.961-5.523 5.6-5.523 9.54v56.44c0 3.94 2.107 7.579 5.523 9.54 1.696.974 3.587 1.46 5.477 1.46 1.917 0 3.834-.5 5.548-1.501l48.32-28.22c3.376-1.972 5.452-5.588 5.452-9.499s-2.077-7.527-5.453-9.498zm-42.868 18.555v-18.114l15.509 9.057z"/></g><g><path d="m501 31.64h-490c-6.075 0-11 4.925-11 11v426.72c0 6.075 4.925 11 11 11h490c6.075 0 11-4.925 11-11v-426.72c0-6.076-4.925-11-11-11zm-11 66h-336v-44h336zm-402 0v-44h44v44zm-22-44v44h-44v-44zm-44 66h315.776v338.72h-315.776zm337.776 338.72v-338.72h130.224v338.72z"/><path d="m304.776 141.64h-249.776c-6.075 0-11 4.925-11 11v172.28c0 6.075 4.925 11 11 11h249.776c6.075 0 11-4.925 11-11v-172.28c0-6.076-4.924-11-11-11zm-175.432 172.28c1.392-26.674 23.53-47.947 50.545-47.947 27.014 0 49.153 21.273 50.544 47.947zm32.378-88.113c0-10.017 8.149-18.167 18.167-18.167 10.017 0 18.166 8.15 18.166 18.167s-8.149 18.167-18.166 18.167c-10.018-.001-18.167-8.15-18.167-18.167zm132.054 88.113h-41.342c-1.008-27.733-17.627-51.548-41.325-62.881 5.589-6.902 8.946-15.681 8.946-25.233 0-22.148-18.019-40.167-40.166-40.167-22.148 0-40.167 18.019-40.167 40.167 0 9.552 3.357 18.331 8.946 25.233-23.699 11.334-40.318 35.148-41.325 62.881h-41.343v-150.28h227.776z"/><path d="m304.776 386.14h-62.655v-8.646c0-6.075-4.925-11-11-11s-11 4.925-11 11v8.646h-72.801c-6.075 0-11 4.925-11 11s4.925 11 11 11h72.801v8.646c0 6.075 4.925 11 11 11s11-4.925 11-11v-8.646h62.655c6.075 0 11-4.925 11-11s-4.924-11-11-11z"/></g></g><g/><g/><g/><g/><g/><g/><g/><g/><g/><g/><g/><g/><g/><g/><g/></svg>