<svg id="Layer_1" enable-background="new 0 0 512 512" viewBox="0 0 512 512" xmlns="http://www.w3.org/2000/svg" fill="#E6ECF2"><g><g><path d="m460.999 10h-449.999c-6.075 0-11 4.925-11 11v360c0 6.075 4.925 11 11 11h245.417c6.075 0 11-4.925 11-11s-4.926-11-11-11h-234.417v-248h148.999c3.395 0 6.599-1.567 8.683-4.247l31.697-40.753h238.62v201.19c0 6.075 4.925 11 11 11s11-4.925 11-11v-257.19c0-6.075-4.925-11-11-11zm-255 45c-3.395 0-6.599 1.567-8.683 4.247l-31.697 40.753h-143.619v-68h427.999v23z"/><path d="m410.995 145.001h-139.996c-6.075 0-11 4.925-11 11s4.925 11 11 11h139.996c6.075 0 11-4.925 11-11s-4.925-11-11-11z"/><path d="m410.995 190h-139.996c-6.075 0-11 4.925-11 11s4.925 11 11 11h139.996c6.075 0 11-4.925 11-11s-4.925-11-11-11z"/><path d="m221 280h-160c-6.075 0-11 4.925-11 11s4.925 11 11 11h160c6.075 0 11-4.925 11-11s-4.925-11-11-11z"/><path d="m221 324.999h-160c-6.075 0-11 4.925-11 11s4.925 11 11 11h160c6.075 0 11-4.925 11-11s-4.925-11-11-11z"/><path d="m56.007 55h-.007c-6.075 0-10.996 4.925-10.996 11s4.928 11 11.003 11 11-4.925 11-11-4.925-11-11-11z"/><path d="m101.007 55h-.007c-6.075 0-10.996 4.925-10.996 11s4.928 11 11.003 11 11-4.925 11-11-4.925-11-11-11z"/><path d="m146.006 55h-.007c-6.075 0-10.997 4.925-10.997 11s4.929 11 11.004 11 11-4.925 11-11-4.924-11-11-11z"/></g><g fill="#0496FF"><path d="m221 145.001h-160c-6.075 0-11 4.925-11 11v89.999c0 6.075 4.925 11 11 11h160c6.075 0 11-4.925 11-11v-89.999c0-6.075-4.925-11-11-11zm-11 89.999h-138v-67.999h138z"/><path d="m381 240c-72.233 0-131 58.767-131 131s58.767 131 131 131 131-58.767 131-131-58.767-131-131-131zm0 240c-26.098 0-50.083-9.22-68.87-24.573l37.182-37.182c4.296-4.296 4.296-11.261 0-15.557-4.297-4.295-11.26-4.295-15.557 0l-37.182 37.182c-15.353-18.787-24.573-42.772-24.573-68.87 0-60.103 48.897-109 109-109 26.098 0 50.083 9.22 68.87 24.573l-37.683 37.683c-4.296 4.296-4.296 11.261 0 15.557 2.148 2.147 4.963 3.222 7.778 3.222s5.63-1.074 7.778-3.222l37.683-37.683c15.354 18.787 24.574 42.772 24.574 68.87 0 60.103-48.897 109-109 109z"/></g><g><g><path d="m381 427c-34.803 0-67.225-19.408-84.612-50.65-1.852-3.326-1.852-7.373 0-10.699 17.387-31.243 49.809-50.651 84.612-50.651 34.802 0 67.224 19.408 84.611 50.65 1.852 3.326 1.852 7.373 0 10.699-17.387 31.243-49.809 50.651-84.611 50.651zm-62.129-56c14.05 21.117 37.334 34 62.129 34 24.794 0 48.078-12.883 62.128-34-14.05-21.117-37.334-34-62.128-34-24.795 0-48.079 12.883-62.129 34z"/></g><g><path d="m381.003 382c-6.075 0-11.004-4.925-11.004-11s4.922-11 10.997-11h.007c6.075 0 11 4.925 11 11s-4.925 11-11 11z"/></g></g></g><g/><g/><g/><g/><g/><g/><g/><g/><g/><g/><g/><g/><g/><g/><g/></svg>