<svg id="Layer_1" enable-background="new 0 0 512 512" viewBox="0 0 512 512" xmlns="http://www.w3.org/2000/svg" fill="#E6ECF2"><g><path d="m466.625 161.618c-25.498-95.158-112.11-161.618-210.625-161.618s-185.127 66.46-210.625 161.618c-1.152 4.297.399 8.865 3.929 11.574 1.964 1.507 4.325 2.273 6.698 2.273 1.891 0 3.789-.487 5.498-1.474 18.573-10.723 39.725-16.39 61.167-16.39s42.594 5.667 61.167 16.39c3.403 1.965 7.597 1.965 11 0 15.386-8.883 32.542-14.297 50.167-15.893v35.475c-11.828-3.171-24.726-.899-35.113 7.071-14.875 11.414-22.999 34.859-7.615 61.505 10.26 17.77 28.682 33.965 42.728 41.183v52.668c0 6.075 4.925 11 11 11s11-4.925 11-11v-52.667c14.046-7.219 32.468-23.412 42.729-41.182 15.384-26.646 7.261-50.091-7.614-61.505-10.388-7.971-23.286-10.243-35.114-7.072v-35.474c17.625 1.596 34.78 7.01 50.166 15.893 3.404 1.965 7.596 1.965 11 0 18.572-10.723 39.724-16.39 61.167-16.39s42.595 5.667 61.167 16.39c3.853 2.225 8.666 1.91 12.196-.8 3.529-2.709 5.079-7.277 3.927-11.575zm-210.625-26.016c-18.384 0-36.586 3.532-53.571 10.316 4.542-35.131 12.422-66.113 22.524-88.24 9.761-21.38 21.077-33.642 31.047-33.642s21.287 12.262 31.047 33.642c10.101 22.127 17.982 53.109 22.524 88.24-16.985-6.784-35.187-10.316-53.571-10.316zm-181.482 8.274c24.968-61.058 79.226-105.396 143.392-118.137-4.38 6.046-8.744 13.543-12.971 22.802-11.59 25.388-20.144 59.459-24.883 98.966-18.061-7.821-37.621-11.905-57.39-11.905-16.441 0-32.737 2.824-48.148 8.274zm214.203 74.223c7.048 5.408 11.263 16.93 1.955 33.051-8.963 15.524-25.949 28.971-34.676 33.121-8.728-4.149-25.713-17.597-34.676-33.12-9.308-16.121-5.093-27.644 1.955-33.051 3.066-2.353 7.144-3.898 11.47-3.898 4.508 0 9.286 1.677 13.472 5.863 2.063 2.063 4.861 3.222 7.778 3.222s5.715-1.159 7.778-3.222c8.208-8.206 18.684-6.771 24.944-1.966zm100.612-82.497c-19.77 0-39.329 4.084-57.39 11.906-4.738-39.506-13.293-73.577-24.883-98.966-4.227-9.259-8.591-16.756-12.971-22.802 64.167 12.74 118.425 57.078 143.393 118.136-15.411-5.451-31.706-8.274-48.149-8.274z"/><path d="m357.495 400.185c10.137-9.308 16.5-22.665 16.5-37.479 0-28.06-22.828-50.888-50.888-50.888-24.947 0-45.757 18.043-50.069 41.764-5.216-2.302-10.981-3.581-17.039-3.581s-11.822 1.279-17.038 3.581c-4.312-23.721-25.122-41.763-50.069-41.763-28.06 0-50.888 22.828-50.888 50.888 0 14.815 6.363 28.171 16.5 37.479-29.159 13.155-49.504 42.505-49.504 76.517l.001 24.297c0 6.075 4.925 11 11 11h279.999c6.075 0 11-4.925 11-11v-24.297c0-34.012-20.345-63.362-49.505-76.518zm-34.387-66.367c15.929 0 28.888 12.959 28.888 28.888s-12.959 28.888-28.888 28.888c-15.93 0-28.889-12.959-28.889-28.888s12.959-28.888 28.889-28.888zm-67.109 38.182c11.216 0 20.341 9.125 20.341 20.34s-9.125 20.34-20.341 20.34-20.341-9.125-20.341-20.34 9.126-20.34 20.341-20.34zm-67.107-38.182c15.929 0 28.888 12.959 28.888 28.888s-12.959 28.888-28.888 28.888-28.888-12.959-28.888-28.888c.001-15.929 12.96-28.888 28.888-28.888zm-61.892 142.885c0-34.128 27.765-61.893 61.893-61.893 11.215 0 22.181 3.058 31.71 8.738-19.696 11.99-32.876 33.666-32.876 58.362v8.09h-60.727zm175.272 13.297h-92.545v-8.091c0-25.515 20.758-46.272 46.273-46.272s46.272 20.758 46.272 46.272zm82.727 0h-60.727v-8.091c-.003-24.693-13.182-46.369-32.876-58.359 9.529-5.681 20.496-8.74 31.711-8.74 34.128 0 61.894 27.765 61.894 61.893z" fill="#0496FF"/></g><g/><g/><g/><g/><g/><g/><g/><g/><g/><g/><g/><g/><g/><g/><g/></svg>