<svg id="Layer_1" enable-background="new 0 0 512 512" viewBox="0 0 512 512" xmlns="http://www.w3.org/2000/svg" fill="#E6ECF2"><g><g><g><path d="m446 163.421h-430c-6.075 0-11-4.925-11-11s4.925-11 11-11h430c6.075 0 11 4.925 11 11s-4.925 11-11 11z" fill="#0496FF"/></g><g><path d="m446 215.421h-430c-6.075 0-11-4.925-11-11s4.925-11 11-11h430c6.075 0 11 4.925 11 11s-4.925 11-11 11z" fill="#0496FF"/></g></g><g><path d="m421 84.999h-380c-22.607 0-41 18.393-41 41v240c0 22.609 18.392 41.001 41 41.001h277.936c6.075 0 11-4.925 11-11s-4.925-11-11-11h-277.936c-10.477 0-19-8.523-19-19.001v-240c0-10.477 8.523-19 19-19h380c10.477 0 19 8.523 19 19v128.498c0 6.075 4.925 11 11 11s11-4.925 11-11v-128.498c0-22.607-18.393-41-41-41z"/><path d="m67.272 334.21c-6.075 0-11 4.925-11 11s4.925 11 11 11h98c6.075 0 11-4.925 11-11s-4.925-11-11-11z"/><path d="m142.773 244.211h-53c-18.472 0-33.5 15.028-33.5 33.5s15.028 33.499 33.5 33.499h53c18.472 0 33.5-15.028 33.5-33.5s-15.028-33.499-33.5-33.499zm0 44.999h-53c-6.341 0-11.5-5.159-11.5-11.5s5.159-11.499 11.5-11.499h53c6.341 0 11.5 5.159 11.5 11.5s-5.159 11.499-11.5 11.499z"/></g><path d="m468.39 325.148c8.62-8.496 13.972-20.3 13.972-33.331 0-25.815-21.002-46.817-46.817-46.817-22.469 0-41.291 15.91-45.794 37.057-4.477-1.787-9.359-2.77-14.466-2.77-21.583 0-39.142 17.559-39.142 39.142 0 9.737 3.574 18.654 9.478 25.51-19.496 10.573-32.764 31.226-32.764 54.92v17.143c0 2.917 1.159 5.715 3.222 7.778s4.861 3.222 7.778 3.222h177.142c6.075 0 11-4.925 11-10.999l.001-21.821c0-30.408-17.844-56.725-43.61-69.034zm-32.845-58.148c13.685 0 24.817 11.133 24.817 24.817s-11.133 24.817-24.817 24.817-24.818-11.133-24.818-24.817 11.133-24.817 24.818-24.817zm-60.259 34.286c9.453 0 17.143 7.689 17.143 17.142s-7.69 17.143-17.143 17.143c-9.452 0-17.142-7.69-17.142-17.143s7.689-17.142 17.142-17.142zm-40.429 97.572c0-22.293 18.136-40.429 40.428-40.429s40.429 18.136 40.429 40.429v6.142h-80.857zm155.142 6.142h-52.285v-6.143c0-21.908-11.344-41.217-28.467-52.361 8-4.408 17.052-6.769 26.297-6.769 30.026 0 54.455 24.428 54.455 54.453z" fill="#0496FF"/></g><g/><g/><g/><g/><g/><g/><g/><g/><g/><g/><g/><g/><g/><g/><g/></svg>