<svg id="Layer_1" enable-background="new 0 0 512 512" viewBox="0 0 512 512" xmlns="http://www.w3.org/2000/svg" fill="#E6ECF2"><g><g fill="#0496FF"><path d="m339.766 131.109c7.01-7.558 11.301-17.671 11.301-28.768 0-23.347-18.993-42.341-42.34-42.341-19.768 0-36.415 13.618-41.054 31.965-3.658-1.273-7.586-1.965-11.673-1.965s-8.015.692-11.673 1.965c-4.639-18.347-21.285-31.965-41.054-31.965-23.347 0-42.341 18.994-42.341 42.341 0 11.097 4.292 21.21 11.302 28.768-22.085 11.32-37.234 34.325-37.234 60.801l.001 19.091c0 6.074 4.925 10.999 11 10.999h219.998c6.075 0 11-4.925 11-10.999l.001-19.092c0-26.476-15.149-49.48-37.234-60.8zm-31.038-49.109c11.216 0 20.34 9.125 20.34 20.341s-9.124 20.34-20.34 20.34-20.341-9.124-20.341-20.34 9.125-20.341 20.341-20.341zm-52.728 30c7.513 0 13.624 6.112 13.624 13.625s-6.111 13.625-13.624 13.625-13.625-6.112-13.625-13.625 6.112-13.625 13.625-13.625zm-52.727-30c11.216 0 20.34 9.125 20.34 20.341s-9.124 20.34-20.34 20.34-20.341-9.124-20.341-20.34 9.126-20.341 20.341-20.341zm-46.273 109.909c0-25.515 20.758-46.272 46.273-46.272 7.09 0 14.047 1.635 20.333 4.707-14.276 10.158-23.606 26.838-23.606 45.656v4h-43zm65 4.091c0-18.748 15.252-34 34-34s34 15.252 34 34v4h-68zm133 4h-43v-4c0-18.818-9.33-35.498-23.606-45.656 6.286-3.072 13.243-4.707 20.334-4.707 25.515 0 46.272 20.758 46.272 46.271z"/><path d="m256 265.895c-6.075 0-11 4.925-11 11v69.105c0 6.075 4.925 11 11 11s11-4.925 11-11v-69.105c0-6.076-4.925-11-11-11z"/></g><g><path d="m331.277 340h-150.554c-47.421 0-86 38.579-86 86v37.5c0 26.743 21.757 48.5 48.5 48.5h37.5c24.234 0 47.01-10.059 63.291-27.777h23.973c16.281 17.718 39.056 27.777 63.29 27.777h37.5c26.743 0 48.5-21.757 48.5-48.5v-37.5c0-47.421-38.579-86-86-86zm64 123.5c0 14.612-11.888 26.5-26.5 26.5h-37.5c-19.371 0-37.495-8.642-49.723-23.709-2.089-2.573-5.227-4.068-8.541-4.068h-34.027c-3.314 0-6.452 1.495-8.541 4.068-12.227 15.067-30.351 23.709-49.722 23.709h-37.5c-14.612 0-26.5-11.888-26.5-26.5v-37.5c0-35.29 28.71-64 64-64h150.555c35.29 0 64 28.71 64 64v37.5z"/><path d="m205.723 415h-14v-14c0-6.075-4.925-11-11-11s-11 4.925-11 11v14h-14c-6.075 0-11 4.925-11 11s4.925 11 11 11h14v14c0 6.075 4.925 11 11 11s11-4.925 11-11v-14h14c6.075 0 11-4.925 11-11s-4.925-11-11-11z"/><path d="m331.281 390.001h-.007c-6.075 0-10.997 4.925-10.997 11s4.929 11 11.004 11 11-4.925 11-11-4.925-11-11-11z"/><path d="m306.278 414.996c-6.075 0-11 4.925-11 11v.008c0 6.075 4.925 10.996 11 10.996s11-4.929 11-11.004-4.924-11-11-11z"/><path d="m331.274 440c-6.075 0-11 4.925-11 11s4.925 11 11 11h.007c6.075 0 10.996-4.925 10.996-11s-4.927-11-11.003-11z"/><path d="m356.277 415c-6.075 0-11 4.929-11 11.004s4.925 11 11 11 11-4.925 11-11v-.008c0-6.075-4.924-10.996-11-10.996z"/><path d="m446 0h-380c-6.075 0-11 4.925-11 11v260c0 6.075 4.925 11 11 11h380c6.075 0 11-4.925 11-11v-260c0-6.075-4.925-11-11-11zm-11 260h-358v-238h358z"/></g></g><g/><g/><g/><g/><g/><g/><g/><g/><g/><g/><g/><g/><g/><g/><g/></svg>