<svg id="Layer_1" enable-background="new 0 0 512 512" viewBox="0 0 512 512" xmlns="http://www.w3.org/2000/svg" fill="#E6ECF2"><g><g><path d="m411.414 70.587c-45.52-45.519-106.04-70.587-170.414-70.587s-124.894 25.068-170.413 70.587c-45.518 45.519-70.587 106.04-70.587 170.413s25.068 124.894 70.587 170.413 106.039 70.587 170.413 70.587c26.101 0 51.883-4.208 76.631-12.508 5.76-1.932 8.862-8.166 6.931-13.926-1.931-5.761-8.164-8.867-13.927-6.932-22.487 7.542-45.916 11.366-69.635 11.366-120.757 0-219-98.243-219-219s98.244-219 219-219 219 98.243 219 219c0 23.671-3.81 47.056-11.322 69.503-1.928 5.761 1.18 11.994 6.94 13.923 5.758 1.926 11.994-1.179 13.923-6.94 8.267-24.704 12.459-50.437 12.459-76.486 0-64.373-25.068-124.894-70.586-170.413z"/><path d="m241 45c-108.075 0-196 87.925-196 196s87.925 196.001 196 196.001c20.76 0 41.289-3.277 61.02-9.741 5.773-1.892 8.92-8.104 7.028-13.878-1.891-5.772-8.104-8.924-13.878-7.028-17.515 5.738-35.74 8.647-54.17 8.647-24.599 0-48.022-5.132-69.255-14.38l-.001-82.931c0-38.188 31.067-69.256 69.255-69.256s69.256 31.068 69.256 69.257l.001 20.338c0 6.074 4.926 10.999 11.001 10.999 6.074 0 10.999-4.926 10.999-11.001l-.001-20.337c0-37.606-22.866-69.973-55.425-83.926 11.681-10.078 19.086-24.983 19.086-41.585 0-30.281-24.636-54.916-54.917-54.916s-54.917 24.635-54.917 54.916c0 16.602 7.406 31.507 19.086 41.585-32.559 13.953-55.424 46.32-55.424 83.926l.001 71.41c-49.618-30.685-82.745-85.596-82.745-148.1 0-95.944 78.056-174 174-174s174 78.056 174 174c0 17.256-2.558 34.372-7.604 50.874-1.776 5.81 1.494 11.959 7.304 13.735 5.806 1.771 11.959-1.493 13.735-7.304 5.684-18.587 8.565-37.867 8.565-57.305 0-108.075-87.924-196-196-196zm0 114.263c18.15 0 32.917 14.766 32.917 32.916s-14.767 32.917-32.917 32.917-32.917-14.767-32.917-32.917 14.766-32.916 32.917-32.916z"/></g><g fill="#0496FF"><path d="m439.5 381.001h-4.5v-12c0-18.748-15.252-34-34-34s-34 15.252-34 34v12h-4.5c-6.075 0-11 4.925-11 11v50.999c0 6.075 4.925 11 11 11h77c6.075 0 11-4.925 11-11v-50.999c0-6.075-4.924-11-11-11zm-50.5-12c0-6.617 5.383-12 12-12s12 5.383 12 12v12h-24zm39.5 62.999h-55v-28.999h55z"/><path d="m401 290c-61.206 0-111 49.794-111 111s49.794 111 111 111 111-49.794 111-111-49.794-111-111-111zm0 200c-49.075 0-89-39.925-89-89s39.925-89 89-89 89 39.925 89 89-39.925 89-89 89z"/></g></g><g/><g/><g/><g/><g/><g/><g/><g/><g/><g/><g/><g/><g/><g/><g/></svg>