<svg id="Layer_1" enable-background="new 0 0 512 512" viewBox="0 0 512 512" xmlns="http://www.w3.org/2000/svg" fill="#052438"><g><g><g><path d="m158.357 376.84c15.388-12.218 25.285-31.068 25.285-52.198 0-36.746-29.896-66.642-66.642-66.642s-66.642 29.896-66.642 66.642c0 21.13 9.896 39.98 25.285 52.198-44.163 16.744-75.643 59.483-75.643 109.443v14.717c0 6.075 4.925 11 11 11h212c6.075 0 11-4.925 11-11v-14.717c0-49.96-31.48-92.699-75.643-109.443zm-85.999-52.198c0-24.616 20.027-44.642 44.642-44.642s44.642 20.026 44.642 44.642-20.027 44.641-44.642 44.641-44.642-20.026-44.642-44.641zm139.642 165.358h-190v-3.717c0-52.383 42.617-95 95-95s95 42.617 95 95z"/><path d="m436.357 376.84c15.388-12.218 25.285-31.068 25.285-52.198 0-36.746-29.896-66.642-66.642-66.642s-66.642 29.896-66.642 66.642c0 21.13 9.897 39.98 25.285 52.198-44.163 16.744-75.643 59.483-75.643 109.443v14.717c0 6.075 4.925 11 11 11h212c6.075 0 11-4.925 11-11v-14.717c0-49.96-31.48-92.699-75.643-109.443zm-85.999-52.198c0-24.616 20.027-44.642 44.642-44.642s44.642 20.026 44.642 44.642-20.027 44.641-44.642 44.641-44.642-20.026-44.642-44.641zm139.642 165.358h-190v-3.717c0-52.383 42.617-95 95-95s95 42.617 95 95z"/></g><g><g><path d="m274.014 108.228h107.8c6.075 0 11 4.925 11 11s-4.925 11-11 11h-107.8z"/></g><g><path d="m256.49 60.228h125.323c6.075 0 11 4.925 11 11s-4.925 11-11 11h-125.323z"/></g></g><g><path d="m366.622 224.018c-2.367 0-4.718-.763-6.672-2.254l-41.046-31.307h-60.22v-22h63.937c2.41 0 4.755.792 6.671 2.254l26.329 20.082v-11.336c0-6.075 4.925-11 11-11h39.768c4.646 0 8.425-3.779 8.425-8.425v-129.607c0-4.646-3.779-8.425-8.425-8.425h-164.163c-4.646 0-8.425 3.779-8.425 8.425v16.062h-22v-16.062c0-16.777 13.649-30.425 30.425-30.425h164.163c16.776 0 30.425 13.648 30.425 30.425v129.607c0 16.776-13.648 30.425-30.425 30.425h-28.768v22.561c0 4.183-2.372 8.003-6.12 9.858-1.547.765-3.217 1.142-4.879 1.142z" fill="#0496FF"/></g><g><path d="m103.47 234.186c-2.535 0-5.036-.876-7.044-2.55-3.019-2.516-4.466-6.452-3.797-10.324l6.981-40.381c-11.194-17.846-16.391-38.334-15.058-59.548 3.475-55.308 51.312-97.477 106.604-94.002 55.306 3.475 97.475 51.297 94.001 106.604-3.475 55.307-51.297 97.481-106.604 94.001-11.833-.743-23.239-3.498-33.973-8.199l-37.316 13.723c-1.233.453-2.518.676-3.794.676zm81.334-185.005c-41.059 0-75.686 32.047-78.294 73.58-1.117 17.772 3.631 34.891 13.73 49.503 1.638 2.37 2.281 5.289 1.79 8.128l-4.477 25.893 23.73-8.727c2.838-1.044 5.979-.874 8.688.471 9.358 4.646 19.439 7.337 29.961 7.998 43.202 2.722 80.554-30.223 83.268-73.424 2.714-43.2-30.225-80.553-73.424-83.267-1.665-.104-3.324-.155-4.972-.155z" fill="#0496FF"/></g></g><g><g><path d="m184.85 138.68c-7.625.173-13.25-8.223-10.15-15.2 3.58-8.966 16.728-8.983 20.31 0 3.113 6.98-2.534 15.381-10.16 15.2z"/></g><g><path d="m228.85 138.68c-7.627.176-13.249-8.226-10.15-15.2 3.597-8.982 16.715-8.979 20.31 0 3.136 6.913-2.582 15.43-10.16 15.2z"/></g><g><path d="m140.86 138.68c-11.967-.109-15.229-16.488-4.21-21.15 2.649-1.123 5.754-1.129 8.41 0 11.025 4.666 7.752 21.034-4.2 21.15z"/></g></g></g><g/><g/><g/><g/><g/><g/><g/><g/><g/><g/><g/><g/><g/><g/><g/></svg>