<svg id="Layer_1" enable-background="new 0 0 512 512" viewBox="0 0 512 512" xmlns="http://www.w3.org/2000/svg" fill="#E6ECF2"><g><g><g><path d="m155.058 393.014 1.774-16.851c23.928-6.178 41.663-26.58 44.302-51.375l8.104-5.13c4.837-3.063 6.517-9.324 3.862-14.396l-11.5-21.968.232-35.253c7.782-8.741 12.522-20.246 12.522-32.843v-38.455c0-6.075-4.925-11-11-11h-109.501c-44.591 0-80.869 36.277-80.869 80.869v31.664c0 38.439 24.066 72.533 59.49 85.764l-.266 10.283c-45.293 24.156-72.131 70.888-72.208 126.662-.004 2.92 1.153 5.722 3.216 7.788 2.064 2.066 4.864 3.227 7.784 3.227h195.861c3.592 0 6.958-1.754 9.016-4.698s2.548-6.708 1.314-10.082c-14.203-38.818-31.129-67.237-62.133-104.206zm29.533-83.791c-3.175 2.01-5.104 5.501-5.116 9.258-.063 19.357-14.61 35.435-33.838 37.399-5.178.529-9.277 4.615-9.822 9.791l-1.904 18.088-39.64-11.591.282-10.921c14.279-13.321 22.976-33.31 22.976-53.435 0-3.25-1.437-6.333-3.925-8.423-5.298-4.449-6.248-12.299-2.118-17.5 2.626-3.307 6.701-5.043 10.902-4.646 5.277.498 10.172-2.842 11.621-7.948.775-2.732 3.302-4.64 6.145-4.64h24.744c5.168 0 10.152-.8 14.838-2.277l-.155 23.515c-.012 1.802.418 3.579 1.254 5.174l8.074 15.422zm-149.607-30.947v-31.664c0-32.46 26.408-58.869 58.869-58.869h98.502v27.455c0 15.139-12.316 27.456-27.456 27.456h-24.744c-9.714 0-18.599 5.019-23.753 12.862-8.638 1.208-16.57 5.673-22.143 12.69-10.266 12.927-9.476 31.545 1.083 43.943-1.031 11.929-6.25 23.401-14.332 31.604-27.369-9.816-46.026-35.965-46.026-65.477zm-12.557 211.724c1.546-20.131 7.265-38.962 16.764-54.998 10.974-18.523 26.4-32.839 45.891-42.6l53.995 15.789c24.906 29.815 39.617 52.897 51.686 81.809z"/><path d="m490.348 421.581c5.613-8.115 8.667-17.808 8.667-27.748v-135.558c0-51.021-41.509-92.531-92.531-92.531h-62.891c-26.753 0-48.935 21.755-49.446 48.495-.252 13.167 4.77 25.679 14.14 35.23.618.63 1.253 1.24 1.901 1.834l.211 31.991-11.5 21.968c-2.655 5.072-.976 11.333 3.862 14.396l8.104 5.13c2.64 24.796 20.375 45.198 44.302 51.375l1.774 16.851c-31.004 36.971-47.93 65.389-62.133 104.206-1.234 3.374-.744 7.137 1.314 10.082 2.058 2.944 5.424 4.698 9.016 4.698h195.862c2.92 0 5.72-1.161 7.784-3.227 2.063-2.066 3.22-4.868 3.216-7.788-.04-29.322-7.516-56.576-21.652-79.404zm-146.754-233.837h62.891c38.891 0 70.531 31.64 70.531 70.531v135.558c0 6.299-2.229 12.416-6.275 17.225-8.346 9.917-19.986 10.289-28.097 7.331-8.438-3.078-17.455-11.191-17.455-24.73v-104.02c0-16.459-11.602-30.259-27.055-33.647-5.089-8.114-14.159-13.337-24.105-13.337h-29.675c-7.583 0-15.004-3.132-20.361-8.592-5.199-5.3-7.987-12.19-7.849-19.402.284-14.843 12.598-26.917 27.45-26.917zm-11.069 130.737c-.012-3.757-1.941-7.249-5.116-9.258l-4.319-2.734 8.074-15.422c.835-1.596 1.266-3.373 1.254-5.174l-.15-22.739c3.938.983 7.997 1.501 12.086 1.501h29.675c2.904 0 5.373 1.827 6.145 4.545 1.343 4.731 5.664 7.997 10.582 7.997 6.856 0 12.434 5.582 12.434 12.443v86.781l-25.1 7.339-1.904-18.088c-.545-5.176-4.644-9.262-9.822-9.791-19.229-1.965-33.776-18.043-33.839-37.4zm-11.288 171.519c12.068-28.911 26.779-51.993 51.686-81.809l30.582-8.942c2.052 18.106 13.997 33.385 31.6 39.807 5.475 1.997 11.083 2.966 16.604 2.966 7.693 0 15.213-1.885 21.956-5.49 9.008 15.746 14.424 33.905 15.913 53.469h-168.341z"/></g><g><path d="m256 168.967c-3.832 0-7.388-1.994-9.386-5.264l-18.152-29.703h-96.462c-36.944 0-67-30.056-67-67s30.056-67 67-67h248c36.944 0 67 30.056 67 67s-30.056 67-67 67h-96.462l-18.151 29.703c-1.999 3.27-5.555 5.264-9.387 5.264zm-124-146.967c-24.813 0-45 20.187-45 45s20.187 45 45 45h102.631c3.832 0 7.388 1.994 9.386 5.264l11.983 19.608 11.982-19.608c1.999-3.27 5.554-5.264 9.386-5.264h102.632c24.813 0 45-20.187 45-45s-20.187-45-45-45z" fill="#0496FF"/></g><g><circle cx="200.12" cy="67.001" r="11"/><circle cx="256.12" cy="67.001" r="11"/><circle cx="312.12" cy="67.001" r="11"/></g></g></g><g/><g/><g/><g/><g/><g/><g/><g/><g/><g/><g/><g/><g/><g/><g/></svg>