<svg id="Layer_1" enable-background="new 0 0 511.995 511.995" viewBox="0 0 511.995 511.995" xmlns="http://www.w3.org/2000/svg" fill="#052438"><g><g><g><g><g><path d="m248.33 353.96h22v126.636h-22z" fill="#0496FF" transform="matrix(.866 -.5 .5 .866 -173.895 185.569)"/></g><g><path d="m94.566 87.631h22v126.636h-22z" fill="#0496FF" transform="matrix(.866 -.5 .5 .866 -61.332 73.006)"/></g></g></g></g><g><g><path d="m228.099 511.986c-13.697 0-27.301-4.742-38.173-13.989-48.964-41.643-90.23-91.231-122.652-147.388-32.421-56.156-54.733-116.687-66.315-179.913-4.476-24.431 7-49.208 28.555-61.653l61.41-35.455c7.633-4.407 16.525-5.579 25.041-3.296 8.515 2.281 15.63 7.742 20.038 15.376l38.35 66.423c7.762 13.445 5.003 30.722-6.561 41.08l-32.842 29.419 77.03 133.419 41.899-13.732c14.752-4.834 31.093 1.414 38.856 14.858l38.35 66.424c9.098 15.758 3.68 35.98-12.079 45.079l-61.41 35.455c-9.168 5.294-19.358 7.893-29.497 7.893zm-120.693-420.824c-1.906 0-3.787.5-5.482 1.479l-61.41 35.455c-13.52 7.806-20.719 23.333-17.916 38.637 11.127 60.743 32.569 118.907 63.728 172.877 31.16 53.97 70.811 101.621 117.852 141.629 11.853 10.08 28.898 11.609 42.418 3.803l61.41-35.455c5.252-3.033 7.059-9.773 4.026-15.026l-38.35-66.424c-2.588-4.482-8.034-6.566-12.952-4.953l-50.386 16.514c-4.945 1.618-10.35-.445-12.952-4.953l-85.96-148.888c-2.602-4.507-1.689-10.221 2.187-13.693l39.495-35.378c3.854-3.453 4.774-9.212 2.187-13.693l-38.35-66.424c-1.469-2.545-3.841-4.365-6.679-5.125-.949-.256-1.911-.382-2.866-.382z"/></g><g><g><path d="m266.037 212.046c-1.662 0-3.332-.376-4.878-1.142-3.749-1.855-6.121-5.676-6.121-9.858v-22.561h-21.244c-16.014 0-29.043-13.029-29.043-29.043v-120.391c0-16.014 13.029-29.043 29.043-29.043h152.488c16.014 0 29.043 13.029 29.043 29.043v120.39c0 16.015-13.029 29.043-29.043 29.043h-72.528l-41.045 31.307c-1.953 1.491-4.304 2.255-6.672 2.255zm-32.242-190.038c-3.883 0-7.043 3.16-7.043 7.043v120.39c0 3.884 3.16 7.043 7.043 7.043h32.244c6.075 0 11 4.925 11 11v11.336l26.329-20.082c1.917-1.462 4.261-2.254 6.671-2.254h76.244c3.883 0 7.043-3.16 7.043-7.043v-120.39c0-3.883-3.16-7.043-7.043-7.043z" fill="#0496FF"/></g></g><g><path d="m342.223 385.449c-2.846 0-5.626-1.106-7.711-3.155-2.803-2.755-3.923-6.795-2.939-10.6l10.398-40.203c-5.501-11.771-8.393-24.74-8.393-37.778 0-49.19 40.019-89.208 89.209-89.208 49.189 0 89.208 40.019 89.208 89.208s-40.019 89.208-89.208 89.208c-13.333 0-26.549-3.004-38.504-8.721l-39.122 10.848c-.97.27-1.958.401-2.938.401zm43.242-33.991c1.821 0 3.63.452 5.257 1.337 9.772 5.316 20.86 8.126 32.064 8.126 37.059 0 67.208-30.149 67.208-67.208s-30.149-67.208-67.208-67.208-67.209 30.149-67.209 67.208c0 11.085 2.621 21.652 7.79 31.408 1.286 2.426 1.618 5.246.93 7.904l-6.655 25.732 24.884-6.9c.965-.267 1.954-.399 2.939-.399z" fill="#0496FF"/></g></g><g><circle cx="354.035" cy="89.248" r="11"/><circle cx="310.039" cy="89.248" r="11"/><circle cx="266.044" cy="89.248" r="11"/></g></g><g/><g/><g/><g/><g/><g/><g/><g/><g/><g/><g/><g/><g/><g/><g/></svg>