<svg id="Layer_1" enable-background="new 0 0 512.005 512.005" viewBox="0 0 512.005 512.005" xmlns="http://www.w3.org/2000/svg" fill="#E6ECF2"><g><g><g><path d="m119.57 467.232c-6.024 0-12.045-1.85-17.185-5.55-4.931-3.549-6.05-10.424-2.5-15.354 3.549-4.931 10.424-6.05 15.354-2.5 2.591 1.865 6.072 1.866 8.664 0 4.931-3.549 11.805-2.429 15.354 2.501s2.429 11.805-2.501 15.354c-5.141 3.699-11.164 5.549-17.186 5.549z" fill="#0496FF"/></g><g><path d="m369.953 205.895c-6.023 0-12.046-1.85-17.186-5.549-4.931-3.549-6.05-10.424-2.501-15.354 3.55-4.932 10.423-6.049 15.354-2.501 2.591 1.866 6.074 1.865 8.663 0 4.929-3.548 11.805-2.431 15.354 2.501 3.549 4.93 2.43 11.805-2.501 15.354-5.138 3.698-11.161 5.549-17.183 5.549z" fill="#0496FF"/></g><g><path d="m164.355 313.181c3.838-7.234 5.889-15.332 5.889-23.701 0-27.95-22.739-50.689-50.689-50.689s-50.69 22.739-50.69 50.689c0 8.369 2.05 16.467 5.888 23.701-21.539 14.471-35.742 39.055-35.742 66.897v51.383c0 44.412 36.131 80.543 80.543 80.543s80.543-36.131 80.543-80.543v-52.224h-.021c-.284-27.494-14.4-51.731-35.721-66.056zm-73.49-23.701c0-15.819 12.87-28.689 28.689-28.689s28.689 12.87 28.689 28.689c0 4.981-1.283 9.796-3.682 14.049-7.878-2.58-16.278-3.994-25.007-3.994s-17.13 1.414-25.007 3.994c-2.398-4.252-3.682-9.067-3.682-14.049zm28.689 32.056c31.893 0 57.911 25.632 58.532 57.378h-117.063c.621-31.747 26.639-57.378 58.531-57.378zm0 168.469c-32.281 0-58.543-26.262-58.543-58.543v-30.548h117.086v30.548c0 32.281-26.262 58.543-58.543 58.543z"/><path d="m461.176 49.198c0-6.075-4.925-11-11-11h-91.552c-38.173 0-69.229 31.056-69.229 69.229v62.698c0 44.412 36.132 80.543 80.544 80.543 44.411 0 80.542-36.131 80.542-80.543v-48.049c6.68-8.181 10.695-18.62 10.695-29.981zm-149.782 58.229c0-26.042 21.188-47.229 47.229-47.229h80.552v31.896c0 14.051-11.432 25.482-25.482 25.482h-27.84c3.095-5.801 4.856-12.416 4.856-19.438 0-6.075-4.925-11-11-11s-11 4.925-11 11c0 10.718-8.719 19.438-19.437 19.438h-37.878zm58.543 121.24c-32.28 0-58.543-26.262-58.543-58.543v-30.548h102.299c5.162 0 10.13-.839 14.787-2.37v32.918c0 32.281-26.262 58.543-58.543 58.543z"/></g><g><circle cx="425.102" cy="365.976" r="11"/><circle cx="377.957" cy="365.976" r="11"/><circle cx="330.812" cy="365.976" r="11"/></g><g><g><path d="m183.977 215.909c-2.366 0-4.715-.762-6.668-2.25l-41.073-31.297h-52.116c-37.305 0-67.655-30.35-67.655-67.655v-47.053c0-37.304 30.35-67.654 67.655-67.654h99.855c37.305 0 67.655 30.35 67.655 67.654v47.052c0 33.56-24.564 61.491-56.655 66.761v23.441c0 4.182-2.371 8.001-6.118 9.857-1.546.768-3.218 1.144-4.88 1.144zm-99.857-193.909c-25.174 0-45.655 20.48-45.655 45.654v47.052c0 25.174 20.48 45.655 45.655 45.655h55.829c2.409 0 4.751.791 6.667 2.25l26.36 20.086v-11.336c0-6.075 4.925-11 11-11 25.174 0 45.655-20.48 45.655-45.655v-47.052c-.001-25.174-20.481-45.654-45.656-45.654z" fill="#0496FF"/></g></g><g><g><path d="m328.029 490.7c-1.663 0-3.334-.376-4.881-1.143-3.747-1.856-6.118-5.676-6.118-9.857v-23.441c-32.091-5.271-56.655-33.202-56.655-66.761v-47.052c0-37.305 30.35-67.654 67.655-67.654h99.855c37.305 0 67.654 30.35 67.654 67.654v47.052c0 37.305-30.35 67.655-67.654 67.655h-52.115l-41.073 31.297c-1.953 1.488-4.303 2.25-6.668 2.25zm.001-193.909c-25.175 0-45.655 20.48-45.655 45.654v47.052c0 25.174 20.48 45.655 45.655 45.655 6.075 0 11 4.925 11 11v11.336l26.36-20.086c1.916-1.46 4.258-2.25 6.667-2.25h55.828c25.174 0 45.654-20.48 45.654-45.655v-47.052c0-25.174-20.48-45.654-45.654-45.654z" fill="#0496FF"/></g></g></g><g><circle cx="181.193" cy="91.182" r="11"/><circle cx="134.048" cy="91.182" r="11"/><circle cx="86.903" cy="91.182" r="11"/></g></g><g/><g/><g/><g/><g/><g/><g/><g/><g/><g/><g/><g/><g/><g/><g/></svg>