<svg id="Layer_1" enable-background="new 0 0 512 512" viewBox="0 0 512 512" xmlns="http://www.w3.org/2000/svg" fill="#052438"><g><g><g><path d="m92.312 447.364-21.244-96.525c-.478-2.17-.286-4.434.548-6.494l26.017-64.232 20.391 8.259-24.735 61.07 20.511 93.194z" fill="#0496FF"/></g><g><path d="m283.19 447.364-21.486-4.729 20.511-93.194-24.735-61.07 20.391-8.259 26.017 64.232c.834 2.06 1.025 4.324.548 6.494z" fill="#0496FF"/></g></g><g><path d="m491.829 330.52-22.277-22.276c2.752-5.231 4.215-11.083 4.215-17.162 0-9.866-3.842-19.141-10.817-26.117l-19.008-19.008c-6.977-6.976-16.251-10.818-26.116-10.818-9.866 0-19.141 3.842-26.117 10.818s-10.817 16.251-10.817 26.117 3.842 19.141 10.817 26.117l19.008 19.007c6.977 6.976 16.251 10.818 26.117 10.818 6.079 0 11.931-1.464 17.162-4.216l19.055 19.054v102.146h22v-106.702c0-2.918-1.159-5.715-3.222-7.778zm-65.556-28.879-19.008-19.007c-2.821-2.82-4.374-6.571-4.374-10.56s1.553-7.74 4.374-10.56c2.82-2.821 6.571-4.375 10.561-4.375 3.988 0 7.739 1.554 10.56 4.375l19.008 19.008c2.821 2.82 4.374 6.571 4.374 10.56s-1.553 7.739-4.374 10.56c-2.82 2.821-6.571 4.375-10.56 4.375-3.989-.002-7.74-1.556-10.561-4.376z" fill="#0496FF"/><g><path d="m135.799 279.392h22v165.608h-22z" fill="#0496FF"/></g><g><path d="m217.704 279.392h22v165.608h-22z" fill="#0496FF"/></g><path d="m501 434h-142.447v-83.792c0-14.421-4.262-28.469-12.123-40.411 8.125-13.591 12.399-28.996 12.399-45.025 0-20.521-7.008-40.025-19.883-55.722 4.267-9.756 6.496-20.35 6.496-31.051 0-25.706-12.863-49.735-33.945-64.094-2.417-29.996-15.528-57.84-37.3-78.945-23.259-22.544-53.909-34.96-86.307-34.96s-63.05 12.416-86.307 34.961c-21.772 21.105-34.884 48.949-37.301 78.945-21.082 14.359-33.945 38.389-33.945 64.094 0 10.701 2.229 21.294 6.496 31.051-12.876 15.697-19.884 35.202-19.884 55.722 0 15.935 4.23 31.264 12.272 44.805-7.954 11.989-12.272 26.12-12.272 40.63v83.792h-5.949c-6.075 0-11 4.925-11 11v56c0 6.075 4.925 11 11 11h490c6.075 0 11-4.925 11-11v-56c0-6.075-4.925-11-11-11zm-441.429-228.613c-4.733-8.322-7.234-17.792-7.234-27.386 0-19.877 10.75-38.361 28.054-48.237 3.317-1.894 5.415-5.372 5.542-9.189.879-26.518 11.875-51.313 30.963-69.816 19.13-18.546 44.343-28.759 70.994-28.759s51.863 10.213 70.993 28.757c19.088 18.503 30.084 43.298 30.963 69.817.127 3.817 2.225 7.296 5.542 9.189 17.304 9.876 28.054 28.359 28.054 48.237 0 9.594-2.501 19.064-7.233 27.386-2.43 4.271-1.731 9.635 1.71 13.142 12.194 12.428 18.91 28.851 18.91 46.245 0 9.748-2.103 19.19-6.145 27.846-9.876-7.819-21.662-13.041-34.252-15.011l-65.829-10.302v-17.565c22.088-14.135 36.772-38.868 36.772-66.981v-57.441c0-6.075-4.925-11-11-11h-41.178c4.91-7.549 7.775-16.545 7.775-26.202 0-6.075-4.925-11-11-11s-11 4.925-11 11c0 14.448-11.754 26.202-26.202 26.202h-55.364c-6.075 0-11 4.925-11 11v57.44c0 27.996 14.562 52.64 36.496 66.804v17.743l-65.829 10.302c-12.504 1.957-24.214 7.121-34.048 14.851-3.996-8.615-6.074-18.003-6.074-27.687 0-17.393 6.716-33.816 18.911-46.245 3.44-3.506 4.138-8.869 1.709-13.14zm185.803-69.068v46.441c0 31.697-25.788 57.485-57.485 57.485s-57.484-25.788-57.484-57.485v-46.44h114.969zm-78.474 123.092c6.691 1.834 13.724 2.833 20.989 2.833 7.165 0 14.104-.969 20.712-2.755v12.673l-20.851 20.851-20.85-20.85zm-127.951 90.797c0-25.526 18.305-46.918 43.524-50.865l69.603-10.893 27.896 27.897c2.148 2.148 4.963 3.222 7.778 3.222s5.63-1.074 7.778-3.222l27.896-27.897 69.603 10.893c25.22 3.947 43.524 25.338 43.524 50.865v83.792h-297.602zm451.051 139.792h-468v-34h468z"/><g><path d="m187.889 214.033c-5.946 0-11.893-1.827-16.967-5.479-4.931-3.549-6.05-10.423-2.501-15.354s10.426-6.049 15.354-2.5c2.461 1.772 5.767 1.771 8.228 0 4.928-3.549 11.802-2.431 15.354 2.5 3.549 4.931 2.43 11.805-2.501 15.354-5.074 3.652-11.02 5.479-16.967 5.479z" fill="#0496FF"/></g></g></g><g/><g/><g/><g/><g/><g/><g/><g/><g/><g/><g/><g/><g/><g/><g/></svg>