<svg id="Layer_1" enable-background="new 0 0 512 512" viewBox="0 0 512 512" xmlns="http://www.w3.org/2000/svg" fill="#E6ECF2"><g><g><g><path d="m60.666 512c-2.358 0-4.695-.758-6.639-2.228-3.133-2.371-4.764-6.233-4.277-10.133l9.896-79.381c-38.5-45.987-59.646-104.117-59.646-164.258 0-68.38 26.629-132.667 74.98-181.019 48.353-48.353 112.64-74.981 181.02-74.981s132.667 26.628 181.02 74.981c48.351 48.352 74.98 112.639 74.98 181.019s-26.629 132.667-74.98 181.019c-48.353 48.353-112.64 74.981-181.02 74.981-42.289 0-84.026-10.497-121.068-30.401l-69.99 29.536c-1.376.58-2.83.865-4.276.865zm74.904-53.609c1.874 0 3.741.479 5.415 1.425 34.914 19.747 74.686 30.184 115.015 30.184 62.504 0 121.266-24.34 165.463-68.537s68.537-102.96 68.537-165.463-24.34-121.266-68.537-165.463-102.959-68.537-165.463-68.537-121.266 24.34-165.463 68.537-68.537 102.96-68.537 165.463c0 56.486 20.405 111.029 57.458 153.582 2.054 2.359 3.007 5.481 2.619 8.584l-8.14 65.294 57.356-24.204c1.372-.579 2.826-.865 4.277-.865z" fill="#0496FF"/></g><g><path d="m322 225h-33c-6.075 0-11-4.925-11-11s4.925-11 11-11h33z" fill="#0496FF"/></g><g><path d="m322 180h-33c-6.075 0-11-4.925-11-11s4.925-11 11-11h33z" fill="#0496FF"/></g><g><path d="m190 203h33c6.075 0 11 4.925 11 11s-4.925 11-11 11h-33z" fill="#0496FF"/></g><g><path d="m190 158h33c6.075 0 11 4.925 11 11s-4.925 11-11 11h-33z" fill="#0496FF"/></g><path d="m380 247h-47v-81c0-42.458-34.542-77-77-77s-77 34.542-77 77v81h-47c-6.075 0-11 4.925-11 11s4.925 11 11 11h3.505c5.248 57.959 51.536 104.246 109.495 109.495v22.505h-46.287c-6.075 0-11 4.925-11 11s4.925 11 11 11h114.574c6.075 0 11-4.925 11-11s-4.925-11-11-11h-46.287v-22.505c57.959-5.248 104.246-51.536 109.495-109.495h3.505c6.075 0 11-4.925 11-11s-4.925-11-11-11zm-179-81c0-30.327 24.673-55 55-55s55 24.673 55 55v81h-110zm55 147c-26.561 0-48.783-18.926-53.893-44h107.787c-5.111 25.074-27.333 44-53.894 44zm-98.386-44h22.184c4.839 33.669 31.532 60.363 65.202 65.202v22.184c-45.818-5.089-82.297-41.568-87.386-87.386zm109.386 87.386v-22.184c33.669-4.839 60.363-31.532 65.202-65.202h22.184c-5.089 45.818-41.568 82.297-87.386 87.386z"/></g></g><g/><g/><g/><g/><g/><g/><g/><g/><g/><g/><g/><g/><g/><g/><g/></svg>