<svg id="Layer_1" enable-background="new 0 0 512 512" viewBox="0 0 512 512" xmlns="http://www.w3.org/2000/svg" fill="#052438"><g><g><path d="m446.698 345.756c12.837-11.005 20.995-27.321 20.995-45.515 0-33.06-26.896-59.957-59.957-59.957-33.06 0-59.956 26.896-59.956 59.957 0 18.165 8.131 34.456 20.931 45.46-22.165 8.889-40.808 25.253-52.517 46.798-7.698-3.757-15.798-6.696-24.167-8.742v-9.61c19.907-12.174 33.223-34.114 33.223-59.108v-41.755c0-38.177-31.06-69.236-69.236-69.236s-69.235 31.059-69.235 69.236v41.755c0 25.005 13.327 46.955 33.249 59.125v9.592c-8.39 2.052-16.509 5-24.223 8.77-7.802-14.307-18.846-26.599-32.433-35.966-6.343-4.373-13.089-7.985-20.123-10.824 12.825-11.005 20.973-27.312 20.973-45.497 0-33.06-26.896-59.957-59.956-59.957-33.061 0-59.957 26.896-59.957 59.957 0 18.195 8.157 34.51 20.995 45.515-38.248 15.467-65.304 52.985-65.304 96.708v12.948c0 6.075 4.925 11 11 11h122.092c-3.332 11.141-5.066 22.788-5.066 34.59 0 6.075 4.925 11 11 11h234c6.075 0 11-4.925 11-11 0-11.802-1.734-23.449-5.066-34.59h122.04c6.075 0 11-4.925 11-11v-12.948c0-43.723-27.056-81.241-65.302-96.706zm-38.963-83.472c20.93 0 37.957 17.027 37.957 37.957s-17.027 37.957-37.957 37.957c-20.929 0-37.956-17.027-37.956-37.957s17.028-37.957 37.956-37.957zm-198.958 11c0-26.046 21.189-47.236 47.235-47.236s47.236 21.19 47.236 47.236v2.236h-39.218c1.931-4.444 3.007-9.342 3.007-14.489 0-6.075-4.925-11-11-11s-11 4.925-11 11c0 7.989-6.499 14.489-14.488 14.489h-21.771v-2.236zm0 41.755v-17.519h94.472v17.519c0 26.045-21.19 47.235-47.236 47.235s-47.236-21.19-47.236-47.235zm61.249 67.808v11.141c0 7.72-6.28 14-14 14s-14-6.28-14-14v-11.135c4.519.931 9.196 1.421 13.986 1.421 4.801 0 9.487-.492 14.014-1.427zm-165.761-120.563c20.929 0 37.956 17.027 37.956 37.957s-17.027 37.957-37.956 37.957c-20.93 0-37.957-17.027-37.957-37.957s17.027-37.957 37.957-37.957zm-82.265 182.126v-1.948c0-45.361 36.903-82.265 82.265-82.265 30.883 0 58.558 16.918 72.715 43.758-7.242 5.356-13.916 11.534-19.861 18.458-5.837 6.797-10.856 14.181-15.004 21.997zm128.642 45.59c2.198-19.598 10.231-38.191 23.167-53.254 12.772-14.872 29.635-25.545 48.277-30.772 4.95 13.974 18.292 24.014 33.941 24.014 15.648 0 28.99-10.04 33.94-24.014 18.642 5.226 35.505 15.899 48.277 30.772 12.936 15.063 20.969 33.656 23.167 53.254zm339.358-45.59h-120.062c-4.147-7.816-9.167-15.2-15.004-21.997-5.956-6.935-12.643-13.123-19.899-18.485 14.162-26.823 41.83-43.731 72.7-43.731 45.361 0 82.265 36.904 82.265 82.265z"/><g><path d="m256 180.583c-3.93 0-7.562-2.097-9.526-5.5l-19.824-34.336h-39.276c-38.804 0-70.373-31.569-70.373-70.373s31.568-70.374 70.372-70.374h137.254c38.804 0 70.373 31.569 70.373 70.373s-31.569 70.373-70.373 70.373h-39.276l-19.824 34.336c-1.965 3.404-5.597 5.501-9.527 5.501zm-68.627-158.583c-26.673 0-48.373 21.7-48.373 48.373s21.7 48.373 48.373 48.373h45.627c3.93 0 7.562 2.097 9.526 5.5l13.474 23.337 13.474-23.337c1.965-3.403 5.597-5.5 9.526-5.5h45.627c26.673 0 48.373-21.7 48.373-48.373s-21.7-48.373-48.373-48.373z" fill="#0496FF"/></g></g><g><circle cx="303.27" cy="70.371" r="11"/><circle cx="256.13" cy="70.371" r="11"/><circle cx="208.985" cy="70.371" r="11"/></g></g><g/><g/><g/><g/><g/><g/><g/><g/><g/><g/><g/><g/><g/><g/><g/></svg>