<svg id="Layer_1" enable-background="new 0 0 512 512" viewBox="0 0 512 512" xmlns="http://www.w3.org/2000/svg" fill="#E6ECF2"><g><path d="m398.071 71.228c0-6.075-4.925-11-11-11h-112.754v22h112.754c6.075 0 11-4.925 11-11z"/><g><g fill="#0496FF"><path d="m104.493 490h303.014v22h-303.014z"/><path d="m185.332 434.786h141.336v22h-141.336z"/><path d="m411.647 0h-164.163c-12.553 0-23.353 7.643-27.996 18.519-5.572-1.34-11.331-2.221-17.242-2.593-55.297-3.47-103.128 38.695-106.604 94.002-1.332 21.213 3.865 41.702 15.059 59.548l-6.981 40.381c-.67 3.873.777 7.808 3.796 10.324 2.009 1.673 4.509 2.55 7.044 2.55 1.276 0 2.561-.222 3.796-.676l37.316-13.723c10.734 4.701 22.141 7.456 33.973 8.199 2.137.134 4.255.2 6.367.2 25.814-.002 49.639-9.904 67.603-26.274h60.548l41.046 31.307c1.954 1.491 4.305 2.254 6.672 2.254 1.662 0 3.332-.376 4.879-1.142 3.748-1.855 6.12-5.676 6.12-9.858v-22.561h28.769c16.776 0 30.425-13.648 30.425-30.425v-129.607c-.002-16.777-13.65-30.425-30.427-30.425zm-220.624 194.574c-10.521-.661-20.602-3.352-29.961-7.998-2.709-1.345-5.852-1.514-8.688-.472l-23.73 8.727 4.477-25.893c.491-2.839-.151-5.757-1.789-8.128-10.1-14.613-14.848-31.731-13.731-49.503 2.609-41.534 37.235-73.581 78.294-73.581 1.647 0 3.307.052 4.974.157 43.199 2.714 76.138 40.067 73.424 83.267-2.716 43.201-40.065 76.144-83.27 73.424zm229.049-34.542c0 4.646-3.779 8.425-8.425 8.425h-39.769c-6.075 0-11 4.925-11 11v11.336l-26.328-20.083c-1.916-1.462-4.261-2.254-6.671-2.254h-46.094c8.235-13.482 13.406-29.095 14.463-45.928 2.616-41.659-20.666-79.067-55.95-96.479 1.481-2.423 4.144-4.05 7.186-4.05h164.163c4.646 0 8.425 3.779 8.425 8.425z"/></g><g><path d="m185.332 384.172h-37.352l-9.177-18.72c-6.519-13.3-16.924-24.081-29.43-31.236 12.398-10.076 20.338-25.435 20.338-42.619 0-30.278-24.633-54.911-54.91-54.911-30.278 0-54.911 24.633-54.911 54.911 0 16.542 7.363 31.387 18.972 41.463-23.097 12.307-38.862 36.633-38.862 64.582v103.358c0 6.075 4.925 11 11 11h93.493c6.075 0 11-4.925 11-11v-45.232c1.435.664 3.011 1.018 4.622 1.018h65.217c20.02 0 36.307-16.287 36.307-36.307s-16.287-36.307-36.307-36.307zm-110.53-125.486c18.146 0 32.91 14.764 32.91 32.911s-14.764 32.91-32.91 32.91c-18.147 0-32.911-14.763-32.911-32.91s14.763-32.911 32.911-32.911zm110.53 176.1h-60.651l-21.251-21.312c-4.288-4.302-11.254-4.312-15.556-.022-4.303 4.29-4.313 11.254-.022 15.556l5.642 5.658v55.334h-71.494v-92.358c0-28.196 22.939-51.135 51.135-51.135 19.368 0 37.391 11.237 45.915 28.628l12.195 24.879c1.848 3.769 5.68 6.158 9.877 6.158h44.21c7.889 0 14.307 6.418 14.307 14.307s-6.418 14.307-14.307 14.307z"/><path d="m473.137 333.06c11.609-10.076 18.972-24.921 18.972-41.463 0-30.278-24.633-54.911-54.911-54.911-30.277 0-54.91 24.633-54.91 54.911 0 17.184 7.94 32.543 20.338 42.619-12.505 7.156-22.911 17.936-29.43 31.236l-9.177 18.721h-37.352c-20.02 0-36.307 16.287-36.307 36.307s16.287 36.307 36.307 36.307h65.217c1.611 0 3.188-.354 4.622-1.018v45.231c0 6.075 4.925 11 11 11h93.494c6.075 0 11-4.925 11-11v-103.358c0-27.949-15.765-52.275-38.863-64.582zm-35.939-74.374c18.147 0 32.911 14.764 32.911 32.911s-14.764 32.91-32.911 32.91c-18.146 0-32.91-14.763-32.91-32.91s14.764-32.911 32.91-32.911zm52.802 231.314h-71.493v-55.334l5.642-5.658c4.29-4.302 4.28-11.267-.022-15.556-4.301-4.289-11.266-4.28-15.556.022l-21.251 21.312h-60.651c-7.889 0-14.307-6.418-14.307-14.307s6.418-14.307 14.307-14.307h44.21c4.197 0 8.029-2.389 9.877-6.158l12.195-24.879c8.524-17.391 26.547-28.628 45.915-28.628 28.195 0 51.135 22.939 51.135 51.135v92.358z"/><path d="m387.071 108.228h-33.314c-6.075 0-11 4.925-11 11s4.925 11 11 11h33.314c6.075 0 11-4.925 11-11s-4.925-11-11-11z"/><path d="m185.899 120.43c1.089 2.675 3.268 4.867 5.95 5.95 6.979 3.102 15.373-2.53 15.2-10.15.235-7.575-8.29-13.297-15.2-10.16-5.496 2.121-8.34 8.971-5.95 14.36z"/><path d="m250.21 112.02c-2.139-5.49-8.944-8.325-14.36-5.95-8.988 3.592-8.977 16.718 0 20.31 8.897 3.791 18.149-5.463 14.36-14.36z"/><path d="m141.899 120.43c5.962 13.236 25.488 5.201 20.311-8.41-6.063-13.267-25.408-5.236-20.311 8.41z"/></g></g></g><g/><g/><g/><g/><g/><g/><g/><g/><g/><g/><g/><g/><g/><g/><g/></svg>