<svg id="Layer_1" enable-background="new 0 0 512 512" viewBox="0 0 512 512" xmlns="http://www.w3.org/2000/svg" fill="#E6ECF2"><g><path d="m219.265 273.677c14.172-11.654 23.227-29.315 23.227-49.053 0-35.009-28.482-63.492-63.492-63.492s-63.492 28.482-63.492 63.492c0 19.738 9.055 37.399 23.227 49.053-41.358 16.155-70.735 56.429-70.735 103.439v13.884h22v-13.884c0-49.075 39.925-89 89-89s89 39.925 89 89v13.884h22v-13.884c0-47.01-29.377-87.284-70.735-103.439zm-81.757-49.053c0-22.878 18.613-41.492 41.492-41.492s41.492 18.613 41.492 41.492-18.613 41.492-41.492 41.492-41.492-18.613-41.492-41.492z" fill="#0496FF"/><g><path d="m445.996 207.697h22v183.303h-22z"/></g><g><path d="m42 391h-22v-245c0-28.122 22.878-51 51-51h219.467v22h-219.467c-15.991 0-29 13.009-29 29z"/></g><path d="m476.995 380h-465.995c-6.075 0-11 4.925-11 11v44c0 30.327 24.673 55 55 55h377.995c30.327 0 55-24.673 55-55v-44c0-6.075-4.925-11-11-11zm-277.997 22h90v11c0 6.065-4.935 11-11 11h-68c-6.065 0-11-4.935-11-11zm266.997 33c0 18.196-14.804 33-33 33h-377.995c-18.196 0-33-14.804-33-33v-33h154.998v11c0 18.196 14.804 33 33 33h68c18.196 0 33-14.804 33-33v-11h154.997z"/><g><circle cx="346.609" cy="120.35" r="11"/><circle cx="395.729" cy="120.35" r="11"/><circle cx="444.85" cy="120.35" r="11"/></g><g><g><path d="m364.679 252.245c-1.663 0-3.334-.376-4.881-1.143-3.747-1.856-6.118-5.676-6.118-9.857v-22.548h-43.068c-17.173 0-31.144-13.971-31.144-31.144v-134.409c0-17.173 13.971-31.144 31.144-31.144h170.244c17.172 0 31.144 13.971 31.144 31.144v134.409c0 17.173-13.972 31.144-31.145 31.144h-68.435l-41.073 31.297c-1.953 1.488-4.303 2.251-6.668 2.251zm-54.068-208.245c-5.042 0-9.144 4.102-9.144 9.144v134.409c0 5.042 4.102 9.144 9.144 9.144h54.068c6.075 0 11 4.925 11 11v11.336l26.36-20.086c1.916-1.46 4.258-2.25 6.667-2.25h72.148c5.042 0 9.145-4.102 9.145-9.144v-134.409c0-5.042-4.103-9.144-9.145-9.144z" fill="#0496FF"/></g></g></g><g/><g/><g/><g/><g/><g/><g/><g/><g/><g/><g/><g/><g/><g/><g/></svg>