<svg id="Capa_1" enable-background="new 0 0 512 512" viewBox="0 0 512 512" xmlns="http://www.w3.org/2000/svg" fill="#052438"><g><g><path d="m320.113 339.4v-32.342c28.908-20.02 48.064-53.172 48.754-90.758 7.423-1.95 14.204-5.885 19.715-11.541 1.515-1.555 2.898-3.202 4.143-4.929l10.77-7.444-2.959-13.235c.177-1.789.243-3.601.196-5.429-.594-23.013-20.136-41.736-43.564-41.736v22c11.606 0 21.283 9.108 21.572 20.303.146 5.685-1.954 11.053-5.913 15.116-3.961 4.064-9.268 6.303-14.941 6.303-6.075 0-11 4.925-11 11v7.49c0 50.115-40.771 90.886-90.886 90.886s-90.886-40.771-90.886-90.886v-7.49c0-6.075-4.925-11-11-11-5.674 0-10.98-2.238-14.941-6.303-3.959-4.062-6.059-9.431-5.913-15.115.289-11.196 9.966-20.304 21.572-20.304v-22c-23.428 0-42.971 18.723-43.564 41.737-.3 11.667 4.015 22.689 12.15 31.037 5.511 5.655 12.292 9.59 19.715 11.541.691 37.586 19.846 70.737 48.754 90.758v32.341c-83.573 4.663-150.137 74.121-150.137 158.84v2.76c0 6.075 4.925 11 11 11h406.5c6.075 0 11-4.925 11-11v-2.76c0-84.719-66.564-154.177-150.137-158.84zm-121.447 21.769 39.899 36.246-30.044 21.7-28.542-56.379c6.107-.937 12.345-1.467 18.687-1.567zm114.668 0c6.342.1 12.58.629 18.687 1.566l-28.542 56.379-30.044-21.7zm-57.334-34.086c14.88 0 29.093-2.901 42.113-8.156v26.347l-42.113 38.257-42.113-38.256v-26.347c13.02 5.254 27.233 8.155 42.113 8.155zm-192.005 162.917c3.399-57.028 41.82-104.779 93.995-121.993l36.72 72.533c1.453 2.871 4.09 4.961 7.217 5.721.858.208 1.729.311 2.596.311 2.291 0 4.549-.716 6.441-2.083l45.036-32.528 45.036 32.528c1.892 1.367 4.15 2.083 6.441 2.083.867 0 1.738-.103 2.596-.311 3.127-.759 5.764-2.85 7.217-5.721l36.72-72.533c52.175 17.214 90.595 64.966 93.995 121.993z"/><path d="m276.821 238.508c-5.148 6.292-12.756 9.901-20.873 9.901-8.072 0-15.653-3.576-20.799-9.812-3.868-4.686-10.8-5.35-15.485-1.482-4.686 3.867-5.349 10.8-1.482 15.485 9.34 11.318 23.105 17.809 37.767 17.809 14.743 0 28.557-6.55 37.9-17.97 3.847-4.702 3.154-11.632-1.548-15.479-4.702-3.846-11.633-3.153-15.48 1.548z"/><path d="m162.979 81.596c-12.348-13.614-19.148-31.234-19.148-49.613v-9.983h143.062c32.684 0 59.275 26.591 59.275 59.275v7.711h22v-7.711c0-44.815-36.46-81.275-81.274-81.275h-154.062c-6.075 0-11 4.925-11 11v20.982c0 23.855 8.826 46.724 24.852 64.394z"/></g><path d="m448.685 45.986v-10.516c0-6.075-4.925-11-11-11h-10.516c-35.019 0-64.911 22.341-76.192 53.516h-196.145c-6.075 0-11 4.925-11 11v54c0 6.075 4.925 11 11 11h202.337c6.075 0 11-4.925 11-11v-15.988c32.147.261 58.252 26.355 58.514 58.502-9.175-.074-18.087-2.255-26.159-6.35-.74 7.5-3.407 14.587-7.799 20.679 10.713 5.042 22.425 7.672 34.444 7.672h10.516c6.075 0 11-4.925 11-11v-10.516c0-29.845-16.237-55.954-40.33-70.005 24.092-14.048 40.33-40.15 40.33-69.994zm-102.517 86h-180.336v-32h180.337v32zm22.002-27.002c.262-32.146 26.366-58.25 58.512-58.512-.261 32.146-26.365 58.25-58.512 58.512z" fill="#0496FF"/></g><g/><g/><g/><g/><g/><g/><g/><g/><g/><g/><g/><g/><g/><g/><g/></svg>