<svg id="Capa_1" enable-background="new 0 0 511.931 511.931" viewBox="0 0 511.931 511.931" xmlns="http://www.w3.org/2000/svg" fill="#E6ECF2"><g><g fill="#0496FF"><path d="m139.053 183.971h22v85.951h-22z" transform="matrix(.707 -.707 .707 .707 -116.526 172.574)"/><path d="m273.984 318.902h22v85.951h-22z" transform="matrix(.707 -.707 .707 .707 -172.416 307.506)"/><path d="m263.053 154.382c3.363-.415 6.348-2.357 8.089-5.265l21.125-35.268c3.122-5.211 1.428-11.967-3.784-15.089-5.216-3.124-11.968-1.427-15.089 3.784l-13.88 23.172-18.202-18.202c-2.396-2.396-5.761-3.554-9.126-3.139-3.363.415-6.347 2.357-8.088 5.265l-21.125 35.268c-3.122 5.211-1.428 11.967 3.784 15.089 1.771 1.061 3.718 1.565 5.642 1.565 3.739 0 7.386-1.908 9.447-5.349l13.88-23.172 18.202 18.202c2.396 2.397 5.774 3.555 9.125 3.139z"/><path d="m423.415 233.693c-5.215-3.124-11.968-1.427-15.089 3.784l-13.88 23.172-18.202-18.202c-2.397-2.396-5.763-3.552-9.126-3.139-3.363.415-6.348 2.357-8.089 5.265l-21.125 35.268c-3.122 5.211-1.428 11.967 3.784 15.089 1.771 1.061 3.719 1.565 5.642 1.565 3.74 0 7.386-1.908 9.447-5.349l13.88-23.172 18.202 18.202c2.397 2.396 5.768 3.554 9.126 3.139 3.363-.415 6.348-2.357 8.089-5.265l21.125-35.268c3.122-5.212 1.428-11.968-3.784-15.089z"/></g><g><path d="m507.726 79.045-21.841-17.161 18.944-46.752c1.375-3.391.973-7.244-1.071-10.278-2.044-3.034-5.463-4.854-9.123-4.854h-74.153c-4.874 0-9.167 3.207-10.549 7.881l-25.496 86.227c-1.679 5.678 1.438 11.666 7.051 13.548l24.647 8.267-9.891 77.421c-.628 4.912 2.104 9.637 6.673 11.544 1.374.574 2.812.851 4.234.851 3.309 0 6.532-1.495 8.666-4.222l83.774-107.043c3.741-4.778 2.906-11.681-1.865-15.429zm-74.593 77.429 5.968-46.717c.665-5.205-2.438-10.155-7.413-11.823l-23.146-7.763 20.158-68.171h49.609l-15.921 39.29c-1.841 4.542-.455 9.753 3.398 12.781l19.715 15.49z"/><path d="m300.787 285.299c-4.297-4.296-11.26-4.296-15.557 0l-99.188 99.188c-7.826 7.826-18.231 12.136-29.3 12.136-11.068 0-21.473-4.31-29.299-12.136s-12.136-18.231-12.136-29.299 4.31-21.474 12.136-29.3l99.188-99.188c2.063-2.063 3.222-4.861 3.222-7.778s-1.159-5.715-3.222-7.778l-60.776-60.776c-4.296-4.296-11.261-4.296-15.557 0l-106.614 106.614c-58.246 58.246-58.246 153.019 0 211.265 29.123 29.123 67.378 43.684 105.632 43.684 38.255 0 76.509-14.562 105.632-43.684l106.614-106.614c2.062-2.063 3.222-4.861 3.222-7.778s-1.159-5.715-3.222-7.778zm-61.395 167.391c-49.667 49.667-130.483 49.668-180.151 0s-49.668-130.484 0-180.151l98.835-98.836 45.22 45.22-91.41 91.409c-24.733 24.734-24.733 64.979 0 89.712 24.734 24.733 64.978 24.734 89.712 0l91.41-91.41 45.22 45.22z"/></g></g><g/><g/><g/><g/><g/><g/><g/><g/><g/><g/><g/><g/><g/><g/><g/></svg>