<svg id="Capa_1" enable-background="new 0 0 512 512" viewBox="0 0 512 512" xmlns="http://www.w3.org/2000/svg" fill="#052438"><g><g><path d="m414.961 335.523v-15.233c3.092-2.268 6.038-4.778 8.811-7.531 14.646-14.538 22.713-33.91 22.713-54.546v-65.746c0-27.752-14.788-52.112-36.895-65.623 3.558-6.581 5.498-14.003 5.498-21.621 0-25.064-20.391-45.456-45.455-45.456s-45.455 20.391-45.455 45.456c0 7.618 1.939 15.04 5.498 21.621-22.108 13.511-36.895 37.871-36.895 65.623v64.919c0 25.627 12.44 48.452 31.523 62.623v2.587h-136.607v-14.788c3.092-2.268 6.038-4.778 8.811-7.531 14.646-14.538 22.713-33.91 22.713-54.546v-29.287c4.467-1.399 7.709-5.57 7.709-10.498v-23.666c0-44.502-36.205-80.708-80.707-80.708s-80.707 36.205-80.707 80.708v17.852l-22.812 56.224c-6.944 17.117-6.788 35.905.441 52.904 3.955 9.3 9.776 17.436 17.035 24.033-35.592 17.321-60.18 53.855-60.18 96.026v7.996c0 41.181 33.504 74.685 74.686 74.685h134.92c15.217 0 28.452-8.62 35.099-21.229h256.295c6.075 0 11-4.925 11-11v-37.971c0-55.582-42.714-101.368-97.039-106.277zm-68.658-4.131c7.188 2.329 14.828 3.614 22.748 3.673.197.001.392.002.588.002 8.035 0 15.876-1.242 23.322-3.604v10.585l-23.329 27.553-23.329-27.553zm-.126-226.168c0-12.934 10.521-23.456 23.455-23.456s23.455 10.522 23.455 23.456c0 4.628-1.382 9.12-3.891 12.923-6.249-1.646-12.804-2.532-19.564-2.532s-13.314.885-19.563 2.532c-2.51-3.804-3.892-8.295-3.892-12.923zm23.455 32.391c30.246 0 54.853 24.607 54.853 54.853v4.961h-5.015c-15.669 0-29.982-7.931-38.291-21.215l-2.221-3.551c-2.01-3.215-5.534-5.168-9.326-5.168s-7.316 1.953-9.326 5.168l-2.221 3.551c-8.309 13.284-22.622 21.215-38.291 21.215h-5.015v-4.961c0-30.246 24.607-54.853 54.853-54.853zm-54.853 119.772v-37.958h5.015c19.308 0 37.231-8.097 49.838-22.112 12.606 14.015 30.53 22.112 49.838 22.112h5.015v38.785c0 14.729-5.757 28.555-16.211 38.932-10.453 10.375-24.364 16.042-39.06 15.919-30.015-.222-54.435-25.199-54.435-55.678zm-195.74 61.523c7.188 2.329 14.828 3.614 22.748 3.673.197.001.392.002.588.002 8.035 0 15.876-1.242 23.322-3.604v10.585l-23.329 27.554-23.329-27.554zm78.182-73.177c0 14.729-5.757 28.555-16.211 38.932-10.453 10.375-24.366 16.018-39.06 15.919-30.015-.223-54.435-25.2-54.435-55.678v-28.14c17.39-1.266 33.338-9.129 44.853-21.931 12.606 14.015 30.53 22.112 49.838 22.112h15.015zm-50.998-122.16c32.371 0 58.707 26.336 58.707 58.708v12.667h-22.724c-15.669 0-29.983-7.931-38.29-21.214l-2.221-3.552c-2.011-3.215-5.535-5.168-9.327-5.168s-7.316 1.953-9.327 5.168l-2.22 3.551c-7.417 11.859-19.625 19.434-33.306 20.926v-12.379c.001-32.371 26.337-58.707 58.708-58.707zm-82.833 177.078c-4.922-11.574-5.029-24.367-.3-36.022l3.291-8.111c3.121 20.839 14.512 39.021 30.658 51.011v15.512c-3.652.33-7.252.844-10.79 1.534-10.294-4.932-18.35-13.322-22.859-23.924zm-41.39 136.664v-7.996c0-45.474 36.016-82.681 81.018-84.627l30.954 36.56c2.091 2.469 5.161 3.892 8.396 3.892s6.305-1.423 8.396-3.892l31.034-36.654h108.145c-35.531 16.162-60.7 51.25-62.562 92.309-5.351-2.695-11.386-4.223-17.775-4.223h-123.384c-6.075 0-11 4.925-11 11s4.925 11 11 11h82.384v35.316h-93.92c-29.051 0-52.686-23.635-52.686-52.685zm187.606 52.685h-19v-35.317h19c9.736 0 17.658 7.921 17.658 17.658s-7.922 17.659-17.658 17.659zm280.394-21.228h-35.317v-26.972c0-6.075-4.925-11-11-11s-11 4.925-11 11v26.972h-126.102v-26.972c0-6.075-4.925-11-11-11s-11 4.925-11 11v26.972h-35.317v-26.972c0-45.474 36.016-82.68 81.019-84.627l30.954 36.559c2.091 2.469 5.161 3.892 8.396 3.892s6.305-1.423 8.396-3.892l30.954-36.559c45.001 1.947 81.017 39.153 81.017 84.627z"/><path d="m369.599 290.28c10.681 0 20.688-4.745 27.457-13.018 3.847-4.702 3.153-11.632-1.548-15.479-4.704-3.848-11.633-3.154-15.479 1.548-2.573 3.145-6.374 4.948-10.43 4.948-4.033 0-7.821-1.788-10.394-4.904-3.867-4.686-10.802-5.347-15.485-1.481-4.686 3.867-5.349 10.8-1.481 15.486 6.766 8.198 16.739 12.9 27.36 12.9z"/><path d="m168.244 250.089c-4.704-3.848-11.633-3.153-15.479 1.548-2.573 3.145-6.375 4.949-10.43 4.949-4.033 0-7.821-1.788-10.394-4.904-3.867-4.686-10.802-5.348-15.485-1.482-4.686 3.867-5.349 10.8-1.481 15.486 6.766 8.198 16.738 12.9 27.36 12.9 10.681 0 20.688-4.745 27.457-13.018 3.847-4.702 3.153-11.632-1.548-15.479z"/></g><g><path d="m256 123.573c-2.632 0-5.264-.94-7.355-2.82l-48.195-43.334c-13.649-12.272-18.334-31.359-11.936-48.626 6.426-17.337 21.848-28.364 40.25-28.778.391-.01.791-.015 1.192-.015 9.165 0 18.168 2.439 26.044 6.973 8.221-4.733 17.713-7.181 27.244-6.959 18.394.414 33.815 11.441 40.241 28.778 6.398 17.266 1.712 36.354-11.936 48.626l-48.195 43.334c-2.09 1.881-4.722 2.821-7.354 2.821zm-26.044-101.573c-.229 0-.459.002-.688.008-9.333.21-16.853 5.604-20.124 14.429-2.582 6.967-2.357 17.094 6.016 24.622l40.84 36.721 40.841-36.721c8.373-7.528 8.598-17.655 6.016-24.622-3.271-8.825-10.791-14.219-20.115-14.429-.238-.005-.468-.008-.697-.008-7.04 0-13.638 2.353-19.078 6.805-4.051 3.315-9.881 3.315-13.932 0-5.441-4.452-12.039-6.805-19.079-6.805z" fill="#0496FF"/></g></g><g/><g/><g/><g/><g/><g/><g/><g/><g/><g/><g/><g/><g/><g/><g/></svg>