<svg id="Capa_1" enable-background="new 0 0 512 512" viewBox="0 0 512 512" xmlns="http://www.w3.org/2000/svg" fill="#052438"><g><g fill="#0496FF"><path d="m149.833 87.333c-24.078 0-43.667-19.589-43.667-43.666 0-24.078 19.589-43.667 43.667-43.667s43.667 19.589 43.667 43.667c0 24.077-19.589 43.666-43.667 43.666zm0-65.333c-11.947 0-21.667 9.72-21.667 21.667 0 11.946 9.72 21.666 21.667 21.666s21.667-9.72 21.667-21.666c0-11.947-9.72-21.667-21.667-21.667z"/><path d="m362.167 87.333c-24.078 0-43.667-19.589-43.667-43.666 0-24.078 19.589-43.667 43.667-43.667 24.077 0 43.666 19.589 43.666 43.667 0 24.077-19.589 43.666-43.666 43.666zm0-65.333c-11.947 0-21.667 9.72-21.667 21.667 0 11.946 9.72 21.666 21.667 21.666 11.946 0 21.666-9.72 21.666-21.666 0-11.947-9.72-21.667-21.666-21.667z"/><path d="m256 185.333c-24.078 0-43.667-19.589-43.667-43.666 0-24.078 19.589-43.667 43.667-43.667s43.667 19.589 43.667 43.667c0 24.077-19.589 43.666-43.667 43.666zm0-65.333c-11.947 0-21.667 9.72-21.667 21.667 0 11.946 9.72 21.666 21.667 21.666s21.667-9.72 21.667-21.666c0-11.947-9.72-21.667-21.667-21.667z"/><path d="m468.333 185.333c-24.077 0-43.666-19.589-43.666-43.666 0-24.078 19.589-43.667 43.666-43.667 24.078 0 43.667 19.589 43.667 43.667 0 24.077-19.589 43.666-43.667 43.666zm0-65.333c-11.946 0-21.666 9.72-21.666 21.667 0 11.946 9.72 21.666 21.666 21.666 11.947 0 21.667-9.72 21.667-21.666 0-11.947-9.72-21.667-21.667-21.667z"/><path d="m43.666 185.333c-24.077 0-43.666-19.589-43.666-43.666 0-24.078 19.589-43.667 43.666-43.667 24.078 0 43.667 19.589 43.667 43.667 0 24.077-19.588 43.666-43.667 43.666zm0-65.333c-11.946 0-21.666 9.72-21.666 21.667 0 11.946 9.72 21.666 21.666 21.666 11.947 0 21.667-9.72 21.667-21.666 0-11.947-9.719-21.667-21.667-21.667z"/></g><g><path d="m256 414c-24.078 0-43.667-19.589-43.667-43.667 0-24.077 19.589-43.666 43.667-43.666s43.667 19.589 43.667 43.666c0 24.078-19.589 43.667-43.667 43.667zm0-65.333c-11.947 0-21.667 9.72-21.667 21.666 0 11.947 9.72 21.667 21.667 21.667s21.667-9.72 21.667-21.667c0-11.946-9.72-21.666-21.667-21.666z"/><path d="m411.167 454.833c-24.078 0-43.667-19.589-43.667-43.666 0-24.078 19.589-43.667 43.667-43.667 24.077 0 43.666 19.589 43.666 43.667 0 24.077-19.589 43.666-43.666 43.666zm0-65.333c-11.947 0-21.667 9.72-21.667 21.667 0 11.946 9.72 21.666 21.667 21.666 11.946 0 21.666-9.72 21.666-21.666 0-11.947-9.72-21.667-21.666-21.667z"/><path d="m100.833 454.833c-24.078 0-43.667-19.589-43.667-43.666 0-24.078 19.589-43.667 43.667-43.667s43.667 19.589 43.667 43.667c0 24.077-19.589 43.666-43.667 43.666zm0-65.333c-11.947 0-21.667 9.72-21.667 21.667 0 11.946 9.72 21.666 21.667 21.666s21.667-9.72 21.667-21.666c0-11.947-9.72-21.667-21.667-21.667z"/></g><path d="m501 512h-490c-6.075 0-11-4.925-11-11v-261.333c0-6.075 4.925-11 11-11h490c6.075 0 11 4.925 11 11v261.333c0 6.075-4.925 11-11 11zm-479-22h468v-239.333h-468z" fill="#0496FF"/><path d="m190.278 289.055c-4.296-4.295-11.261-4.295-15.557 0l-13.888 13.888v-161.276c0-6.075-4.925-11-11-11s-11 4.925-11 11v161.276l-13.889-13.889c-10.703-9.897-25.472 4.809-15.557 15.557 0 0 32.667 32.667 32.667 32.667 3.571 3.668 9.678 4.273 13.894 1.364.592-.407 1.152-.859 1.663-1.364l32.667-32.667c4.296-4.296 4.296-11.26 0-15.556z"/><path d="m402.611 289.055c-4.297-4.295-11.262-4.295-15.557 0l-13.888 13.888v-161.276c0-6.075-4.925-11-11-11s-11 4.925-11 11v161.276l-13.889-13.889c-10.703-9.897-25.473 4.809-15.557 15.557 0 0 32.667 32.667 32.667 32.667 3.572 3.67 9.679 4.272 13.896 1.363.591-.408 1.15-.858 1.661-1.363l32.666-32.667c4.297-4.296 4.297-11.26.001-15.556z"/></g><g/><g/><g/><g/><g/><g/><g/><g/><g/><g/><g/><g/><g/><g/><g/></svg>