<svg id="Capa_1" enable-background="new 0 0 512 512" viewBox="0 0 512 512" xmlns="http://www.w3.org/2000/svg" fill="#E6ECF2"><g><path d="m133.111 436.055c-.013-.019-32.689-32.69-32.712-32.708-1.775-1.764-4.159-2.87-6.645-3.125-2.875-.296-5.826.614-8.061 2.439-.281.228-.544.478-.805.728l-32.667 32.666c-9.899 10.7 4.81 25.472 15.557 15.557 0 0 13.889-13.888 13.889-13.888v63.276c0 6.075 4.925 11 11 11s11-4.925 11-11v-63.276l13.888 13.888c2.148 2.147 4.963 3.222 7.778 3.222 9.655.058 14.716-11.885 7.778-18.779z"/><path d="m133.111 60.389c-4.297-4.295-11.26-4.295-15.557 0l-13.888 13.888v-63.277c0-6.075-4.925-11-11-11s-11 4.925-11 11v63.277l-13.888-13.888c-10.704-9.897-25.472 4.81-15.557 15.557 0 0 32.667 32.666 32.667 32.666 3.574 3.664 9.665 4.269 13.885 1.369.592-.413 1.161-.858 1.672-1.369l32.666-32.666c4.296-4.297 4.296-11.261 0-15.557z"/><path d="m402.997 307.836c-1.36 0-2.742-.254-4.082-.79-5.641-2.256-8.385-8.657-6.128-14.298l10.299-25.748h-16.419c-3.65 0-7.062-1.81-9.108-4.833-2.047-3.022-2.46-6.863-1.104-10.252l16.333-40.833c2.256-5.642 8.659-8.384 14.298-6.128 5.641 2.256 8.385 8.657 6.128 14.298l-10.3 25.748h16.419c3.65 0 7.062 1.811 9.108 4.833 2.047 3.023 2.46 6.863 1.104 10.252l-16.333 40.833c-1.719 4.301-5.85 6.918-10.215 6.918z" fill="#0496FF"/><path d="m512 256c0-56.39-43.044-102.915-98-108.448v-87.552c0-6.075-4.925-11-11-11h-212.333c-6.075 0-11 4.925-11 11v98h22v-87h190.333v76.552c-54.956 5.533-98 52.058-98 108.448s43.044 102.915 98 108.448v76.552h-190.333v-87h-22v98c0 6.075 4.925 11 11 11h212.333c6.075 0 11-4.925 11-11v-87.552c54.956-5.533 98-52.058 98-108.448zm-109 87c-47.972 0-87-39.028-87-87s39.028-87 87-87 87 39.028 87 87-39.028 87-87 87z"/><path d="m239.667 365h-228.667c-6.075 0-11-4.925-11-11v-196c0-6.075 4.925-11 11-11h228.667c6.075 0 11 4.925 11 11v196c0 6.075-4.925 11-11 11zm-217.667-22h206.667v-174h-206.667z" fill="#0496FF"/></g><g/><g/><g/><g/><g/><g/><g/><g/><g/><g/><g/><g/><g/><g/><g/></svg>