<svg id="Capa_1" enable-background="new 0 0 512.005 512.005" viewBox="0 0 512.005 512.005" xmlns="http://www.w3.org/2000/svg" fill="#052438"><g><g><path d="m299.473 416.641c-64.606 0-117.167-52.561-117.167-117.166 0-64.607 52.561-117.167 117.167-117.167 64.605 0 117.166 52.561 117.166 117.167 0 64.605-52.56 117.166-117.166 117.166zm0-212.333c-52.476 0-95.167 42.691-95.167 95.167 0 52.475 42.691 95.166 95.167 95.166 52.475 0 95.166-42.691 95.166-95.166 0-52.476-42.691-95.167-95.166-95.167z"/><path d="m340.306 288.475h-29.833v-29.834c0-6.075-4.925-11-11-11s-11 4.925-11 11v29.834h-29.834c-6.075 0-11 4.925-11 11s4.925 11 11 11h29.834v29.833c0 6.075 4.925 11 11 11s11-4.925 11-11v-29.833h29.833c6.075 0 11-4.925 11-11s-4.924-11-11-11z"/></g><path d="m155.102 111.438c-8.055 0-15.603 2.202-22.088 6.021l-95.456-95.456h19.642c6.075 0 11-4.925 11-11s-4.925-11-11-11c-.19.011-46.206-.019-46.378.009-2.826.029-5.6 1.221-7.599 3.213-2.04 2.043-3.225 4.895-3.222 7.783v46.194c0 6.075 4.925 11 11 11s11-4.925 11-11v-19.642l95.456 95.456c-17.175 28.424 4.244 66.083 37.645 65.755 57.927-2.397 57.917-84.942 0-87.333zm0 65.333c-11.946 0-21.666-9.72-21.666-21.667 1.191-28.743 42.147-28.734 43.333 0 0 11.947-9.72 21.667-21.667 21.667z"/><path d="m443.842 487.511c-24.077 0-43.666-19.589-43.666-43.666 0-24.078 19.589-43.667 43.666-43.667 24.078 0 43.667 19.589 43.667 43.667 0 24.077-19.588 43.666-43.667 43.666zm0-65.333c-11.946 0-21.666 9.72-21.666 21.667 0 11.946 9.72 21.666 21.666 21.666 11.947 0 21.667-9.72 21.667-21.666 0-11.947-9.719-21.667-21.667-21.667z"/><g fill="#0496FF"><path d="m457.758 181.489c-3.19 0-6.353-1.379-8.526-4.042-4.103-5.023-8.534-9.926-13.173-14.571-4.635-4.627-9.537-9.058-14.559-13.159-4.706-3.842-5.406-10.771-1.563-15.478 3.844-4.705 10.772-5.406 15.478-1.563 5.587 4.561 11.038 9.488 16.201 14.643 5.166 5.174 10.093 10.624 14.655 16.212 3.843 4.706 3.143 11.635-1.562 15.478-2.043 1.668-4.505 2.48-6.951 2.48z"/><path d="m170.481 468.752c-2.446 0-4.908-.811-6.951-2.48-5.585-4.562-11.035-9.487-16.199-14.642-5.17-5.179-10.096-10.63-14.656-16.215-3.843-4.706-3.143-11.636 1.563-15.478 4.706-3.845 11.637-3.141 15.478 1.563 4.1 5.021 8.531 9.923 13.172 14.572 4.634 4.626 9.537 9.058 14.559 13.159 4.705 3.843 5.404 10.771 1.562 15.477-2.175 2.664-5.338 4.044-8.528 4.044z"/><path d="m372.056 119.622c-1.296 0-2.614-.23-3.897-.718-12.21-4.629-24.95-8.026-37.868-10.098-5.998-.962-10.081-6.604-9.119-12.603.961-5.999 6.605-10.086 12.603-9.12 14.389 2.308 28.581 6.093 42.184 11.25 5.681 2.153 8.54 8.504 6.386 14.185-1.669 4.398-5.85 7.104-10.289 7.104z"/><path d="m108.62 383.063c-4.439 0-8.62-2.706-10.287-7.103-5.157-13.602-8.942-27.794-11.25-42.183-.962-5.999 3.121-11.642 9.119-12.603 5.994-.966 11.642 3.121 12.604 9.119 2.071 12.919 5.469 25.659 10.098 37.868 2.154 5.681-.705 12.031-6.386 14.185-1.284.486-2.602.717-3.898.717z"/><path d="m239.011 115.449c-4.699 0-9.05-3.035-10.508-7.761-1.79-5.806 1.465-11.963 7.27-13.754 9.57-2.951 19.461-5.256 29.397-6.851 5.993-.966 11.641 3.119 12.604 9.119.962 5.998-3.12 11.641-9.119 12.604-8.925 1.432-17.806 3.501-26.397 6.151-1.081.334-2.172.492-3.247.492z"/><path d="m97.958 277.916c-.579 0-1.166-.046-1.756-.141-5.999-.963-10.081-6.605-9.119-12.604 1.595-9.937 3.899-19.827 6.851-29.397 1.791-5.805 7.95-9.058 13.754-7.27 5.805 1.791 9.06 7.948 7.27 13.754-2.65 8.592-4.72 17.473-6.151 26.397-.87 5.41-5.542 9.261-10.849 9.261z"/><path d="m494.497 370.927c-1.078 0-2.173-.159-3.257-.495-5.804-1.796-9.052-7.957-7.255-13.761 2.646-8.551 4.718-17.427 6.155-26.381.964-5.998 6.605-10.078 12.605-9.117 5.998.964 10.08 6.607 9.117 12.605-1.602 9.971-3.91 19.862-6.862 29.398-1.46 4.721-5.809 7.751-10.503 7.751z"/><path d="m332.019 512.005c-5.307 0-9.978-3.851-10.848-9.258-.963-5.999 3.119-11.642 9.117-12.605 8.948-1.437 17.828-3.508 26.392-6.156 5.798-1.793 11.964 1.454 13.759 7.259 1.795 5.804-1.455 11.964-7.259 13.759-9.547 2.953-19.439 5.261-29.403 6.861-.591.094-1.178.14-1.758.14z"/><path d="m500.988 277.916c-5.308 0-9.98-3.852-10.848-9.26-2.071-12.919-5.469-25.659-10.098-37.868-2.154-5.681.705-12.031 6.386-14.185 5.682-2.155 12.031.705 14.185 6.386 5.157 13.602 8.942 27.794 11.25 42.183.962 5.999-3.121 11.642-9.119 12.604-.59.094-1.177.14-1.756.14z"/><path d="m266.926 512.005c-.579 0-1.165-.046-1.756-.141-14.389-2.308-28.581-6.093-42.183-11.25-5.681-2.153-8.54-8.504-6.386-14.184 2.153-5.681 8.508-8.541 14.185-6.386 12.209 4.629 24.949 8.026 37.868 10.098 5.998.962 10.081 6.604 9.119 12.604-.866 5.408-5.539 9.259-10.847 9.259z"/></g></g><g/><g/><g/><g/><g/><g/><g/><g/><g/><g/><g/><g/><g/><g/><g/></svg>