<svg id="Layer_1" enable-background="new 0 0 512 512" viewBox="0 0 512 512" xmlns="http://www.w3.org/2000/svg" fill="#052438"><g><g><path d="m149.115 272.799h22.586c6.075 0 11-4.925 11-11s-4.925-11-11-11h-22.586c-6.075 0-11 4.925-11 11s4.925 11 11 11z"/><path d="m149.115 314.207h22.586c6.075 0 11-4.925 11-11s-4.925-11-11-11h-22.586c-6.075 0-11 4.925-11 11s4.925 11 11 11z"/><path d="m213.108 334.91c6.075 0 11-4.925 11-11v-62.111c0-5.351 4.353-9.704 9.704-9.704s9.704 4.353 9.704 9.704v62.111c0 6.075 4.925 11 11 11s11-4.925 11-11v-62.111c0-5.351 4.353-9.704 9.704-9.704s9.704 4.353 9.704 9.704v62.111c0 6.075 4.925 11 11 11s11-4.925 11-11v-62.111c0-17.481-14.222-31.704-31.704-31.704-7.909 0-15.145 2.918-20.704 7.724-5.559-4.807-12.795-7.724-20.704-7.724-4.733 0-9.223 1.05-13.26 2.917-1.96-1.806-4.568-2.917-7.443-2.917-6.075 0-11 4.925-11 11v82.814c-.001 6.076 4.924 11.001 10.999 11.001z"/><path d="m358.034 334.91c17.481 0 31.704-14.222 31.704-31.704 0-6.075-4.925-11-11-11s-11 4.925-11 11c0 5.351-4.353 9.704-9.704 9.704s-9.704-4.353-9.704-9.704v-41.407c0-5.351 4.353-9.704 9.704-9.704s9.704 4.353 9.704 9.704c0 6.075 4.925 11 11 11s11-4.925 11-11c0-17.481-14.222-31.704-31.704-31.704s-31.704 14.222-31.704 31.704v41.407c.001 17.482 14.223 31.704 31.704 31.704z"/><path d="m501 133.09h-490c-6.075 0-11 4.925-11 11v223.82c0 6.075 4.925 11 11 11h490c6.075 0 11-4.925 11-11v-223.82c0-6.075-4.925-11-11-11zm-11 223.82h-468v-201.82h468z"/></g><g fill="#0496FF"><path d="m119.002 206.907c6.075 0 11-4.925 11-11s-4.925-11-11-11h-64.002c-6.075 0-11 4.925-11 11v128.003c0 6.075 4.925 11 11 11h64.002c6.075 0 11-4.925 11-11s-4.925-11-11-11h-53.002v-42.001h33.321c6.075 0 11-4.925 11-11s-4.925-11-11-11h-33.321v-42.002z"/><path d="m457 250.799h-14.703l19.417-25.595c4.053-5.344 6.286-11.98 6.286-18.688 0-16.226-13.201-29.427-29.427-29.427-16.227 0-29.428 13.201-29.428 29.427 0 6.075 4.925 11 11 11s11-4.925 11-11c0-4.095 3.332-7.427 7.428-7.427 4.095 0 7.427 3.332 7.427 7.427 0 1.935-.644 3.85-1.813 5.391l-32.805 43.243c-2.525 3.328-2.946 7.799-1.088 11.541s5.675 6.108 9.852 6.108h36.854c6.075 0 11-4.925 11-11s-4.925-11-11-11z"/><path d="m256 0c-6.075 0-11 4.925-11 11v68.09c0 6.075 4.925 11 11 11s11-4.925 11-11v-68.09c0-6.075-4.925-11-11-11z"/><path d="m342.33 42.203-48.146 48.146c-4.295 4.296-4.295 11.261 0 15.557 2.148 2.148 4.963 3.222 7.778 3.222s5.63-1.074 7.778-3.222l48.146-48.146c4.295-4.296 4.295-11.261 0-15.557-4.296-4.296-11.261-4.296-15.556 0z"/><path d="m169.67 42.203c-4.296-4.296-11.261-4.296-15.557 0-4.295 4.296-4.295 11.261 0 15.557l48.146 48.146c2.148 2.148 4.963 3.222 7.778 3.222s5.63-1.074 7.778-3.222c4.295-4.296 4.295-11.261 0-15.557z"/><path d="m256 421.91c-6.075 0-11 4.925-11 11v68.09c0 6.075 4.925 11 11 11s11-4.925 11-11v-68.09c0-6.075-4.925-11-11-11z"/><path d="m202.26 406.094-48.146 48.146c-4.295 4.296-4.295 11.261 0 15.557 2.148 2.148 4.963 3.222 7.778 3.222s5.63-1.074 7.778-3.222l48.146-48.146c4.295-4.296 4.295-11.261 0-15.557s-11.26-4.296-15.556 0z"/><path d="m309.74 406.094c-4.296-4.296-11.261-4.296-15.557 0-4.295 4.296-4.295 11.261 0 15.557l48.146 48.146c2.148 2.148 4.963 3.222 7.778 3.222s5.63-1.074 7.778-3.222c4.295-4.296 4.295-11.261 0-15.557z"/></g></g><g/><g/><g/><g/><g/><g/><g/><g/><g/><g/><g/><g/><g/><g/><g/></svg>