<svg id="Capa_1" enable-background="new 0 0 512 512" viewBox="0 0 512 512" xmlns="http://www.w3.org/2000/svg" fill="#E6ECF2"><g><path d="m297.173 262.973c3.039-3.632 3.312-9.17.641-13.081-.413-.591-.857-1.16-1.368-1.67l-32.667-32.666c-4.296-4.296-11.261-4.296-15.557 0-4.295 4.296-4.295 11.261 0 15.557l13.888 13.887h-55.11c-6.075 0-11 4.925-11 11s4.925 11 11 11h55.11l-13.888 13.888c-4.295 4.296-4.295 11.261 0 15.557 4.296 4.296 11.261 4.296 15.557 0l32.667-32.667c.249-.261.498-.524.727-.805z"/><g><path d="m109 49c-12.987 0-24.661 5.706-32.666 14.734-8.006-9.028-19.68-14.734-32.667-14.734-24.078 0-43.667 19.589-43.667 43.666 0 24.078 19.589 43.667 43.667 43.667 12.987 0 24.661-5.706 32.667-14.734 8.006 9.028 19.679 14.734 32.666 14.734 24.078 0 43.667-19.589 43.667-43.667 0-24.077-19.589-43.666-43.667-43.666zm-65.333 65.334c-11.947 0-21.667-9.72-21.667-21.668 0-11.946 9.72-21.666 21.667-21.666s21.667 9.72 21.667 21.666c0 11.948-9.72 21.668-21.667 21.668zm65.333 0c-11.947 0-21.666-9.72-21.666-21.667s9.719-21.667 21.666-21.667 21.667 9.72 21.667 21.666c0 11.948-9.72 21.668-21.667 21.668z" fill="#0496FF"/><path d="m76.334 192.912c-24.078 0-43.667-19.589-43.667-43.667s19.589-43.667 43.667-43.667 43.666 19.589 43.666 43.667-19.589 43.667-43.666 43.667zm0-65.333c-11.947 0-21.667 9.72-21.667 21.667s9.72 21.667 21.667 21.667 21.666-9.72 21.666-21.667c0-11.948-9.72-21.667-21.666-21.667z"/><path d="m76.334 463c-24.078 0-43.667-19.589-43.667-43.667s19.589-43.667 43.667-43.667 43.666 19.589 43.666 43.667-19.589 43.667-43.666 43.667zm0-65.333c-11.947 0-21.667 9.72-21.667 21.667s9.72 21.667 21.667 21.667c11.946-.001 21.666-9.721 21.666-21.668s-9.72-21.666-21.666-21.666z"/><path d="m76.334 327.956c-24.078 0-43.667-19.589-43.667-43.667s19.589-43.666 43.667-43.666 43.666 19.589 43.666 43.666c0 24.078-19.589 43.667-43.666 43.667zm0-65.333c-11.947 0-21.667 9.72-21.667 21.667s9.72 21.667 21.667 21.667 21.666-9.72 21.666-21.667c0-11.948-9.72-21.667-21.666-21.667z" fill="#0496FF"/></g><g><path d="m370.333 193.5c-24.078 0-43.667-19.589-43.667-43.667s19.589-43.667 43.667-43.667 43.667 19.589 43.667 43.667-19.589 43.667-43.667 43.667zm0-65.333c-11.947 0-21.667 9.72-21.667 21.667s9.72 21.667 21.667 21.667 21.667-9.72 21.667-21.667c0-11.948-9.72-21.667-21.667-21.667z"/><path d="m370.333 405.833c-24.078 0-43.667-19.589-43.667-43.667s19.589-43.667 43.667-43.667 43.667 19.589 43.667 43.667c0 24.079-19.589 43.667-43.667 43.667zm0-65.333c-11.947 0-21.667 9.72-21.667 21.667s9.72 21.667 21.667 21.667 21.667-9.72 21.667-21.667-9.72-21.667-21.667-21.667z"/><g fill="#0496FF"><path d="m468.333 299.667c-24.078 0-43.667-19.589-43.667-43.667s19.589-43.667 43.667-43.667 43.667 19.589 43.667 43.667-19.589 43.667-43.667 43.667zm0-65.334c-11.947 0-21.667 9.72-21.667 21.667s9.72 21.667 21.667 21.667 21.667-9.72 21.667-21.667-9.72-21.667-21.667-21.667z"/><path d="m468.333 512c-24.078 0-43.667-19.589-43.667-43.667s19.589-43.667 43.667-43.667 43.667 19.589 43.667 43.667-19.589 43.667-43.667 43.667zm0-65.333c-11.947 0-21.667 9.72-21.667 21.667s9.72 21.667 21.667 21.667c11.947-.001 21.667-9.721 21.667-21.668s-9.72-21.666-21.667-21.666z"/><path d="m468.333 87.334c-24.078 0-43.667-19.589-43.667-43.667.001-24.078 19.589-43.667 43.667-43.667s43.667 19.589 43.667 43.667-19.589 43.667-43.667 43.667zm0-65.334c-11.947 0-21.667 9.72-21.667 21.667s9.72 21.667 21.667 21.667 21.667-9.72 21.667-21.667-9.72-21.667-21.667-21.667z"/></g></g></g><g/><g/><g/><g/><g/><g/><g/><g/><g/><g/><g/><g/><g/><g/><g/></svg>