<svg id="Layer_1" enable-background="new 0 0 512.006 512.006" viewBox="0 0 512.006 512.006" xmlns="http://www.w3.org/2000/svg" fill="#E6ECF2"><g><path d="m382 319.037c-12.555-12.556-28.362-21.037-45.395-24.725 14.513-13.46 33.272-20.85 53.175-20.85h7.131c6.075 0 11-4.925 11-11s-4.925-11-11-11h-7.131c-25.807 0-50.123 9.685-68.805 27.329-3.672-17.085-12.166-32.946-24.755-45.535-30.637-30.636-79.123-35.555-115.287-11.695-20.35 13.426-35.847 32.506-44.815 55.177l-27.584 69.729c-11.042 27.917-4.461 59.671 16.767 80.899 11.354 11.354 25.817 18.666 41.476 21.113 2.448 15.659 9.759 30.122 21.113 41.476 14.393 14.392 33.62 22.052 53.213 22.051 9.306 0 18.696-1.729 27.686-5.285l69.73-27.584c22.672-8.968 41.751-24.465 55.177-44.814 23.859-36.165 18.94-84.65-11.696-115.286zm-6.668 103.171c-10.927 16.562-26.455 29.173-44.905 36.472l-69.73 27.584c-19.757 7.816-42.228 3.157-57.25-11.865-9.69-9.69-15.218-22.584-15.564-36.307-.148-5.857-4.862-10.571-10.719-10.719-13.722-.346-26.616-5.873-36.306-15.563-15.022-15.022-19.68-37.495-11.865-57.25l27.583-69.729c7.299-18.451 19.911-33.979 36.473-44.906 11.657-7.69 24.997-11.447 38.273-11.447 18.026 0 35.935 6.927 49.342 20.335 14.174 14.174 21.548 33.802 20.229 53.853-.208 3.161.958 6.259 3.198 8.499 2.24 2.241 5.357 3.412 8.499 3.198 20.063-1.314 39.681 6.056 53.854 20.23 23.282 23.282 27.02 60.13 8.888 87.615z"/><g fill="#0496FF"><path d="m256.051 48.394c-6.075 0-11 4.925-11 11v113.475c0 6.075 4.925 11 11 11s11-4.925 11-11v-113.475c0-6.075-4.925-11-11-11z"/><path d="m300.051 0c-6.075 0-11 4.925-11 11v113.475c0 6.075 4.925 11 11 11s11-4.925 11-11v-113.475c0-6.075-4.925-11-11-11z"/><path d="m212.051 0c-6.075 0-11 4.925-11 11v113.475c0 6.075 4.925 11 11 11s11-4.925 11-11v-113.475c0-6.075-4.925-11-11-11z"/></g></g><g/><g/><g/><g/><g/><g/><g/><g/><g/><g/><g/><g/><g/><g/><g/></svg>