<svg id="Layer_1" enable-background="new 0 0 512 512" viewBox="0 0 512 512" xmlns="http://www.w3.org/2000/svg" fill="#052438"><g><g fill="#0496FF"><path d="m428.286 201c-21.898 0-39.715 17.816-39.715 39.714v21.704c0 9.768-7.946 17.714-17.714 17.714s-17.715-7.947-17.715-17.714v-100.836c0-21.898-17.815-39.714-39.714-39.714s-39.715 17.816-39.715 39.714v100.837c0 9.768-7.946 17.714-17.714 17.714s-17.714-7.947-17.714-17.714v-100.837c0-21.898-17.816-39.714-39.715-39.714s-39.714 17.816-39.714 39.714v100.837c0 9.768-7.947 17.714-17.715 17.714s-17.714-7.947-17.714-17.714v-21.704c0-21.898-17.816-39.714-39.715-39.714h-28.712v22h28.714c9.768 0 17.715 7.947 17.715 17.714v21.704c0 21.898 17.815 39.714 39.714 39.714s39.715-17.816 39.715-39.714v-100.837c0-9.768 7.946-17.714 17.714-17.714s17.715 7.947 17.715 17.714v100.837c0 21.898 17.815 39.714 39.714 39.714s39.714-17.816 39.714-39.714v-100.837c0-9.768 7.947-17.714 17.715-17.714s17.714 7.947 17.714 17.714v100.837c0 21.898 17.816 39.714 39.715 39.714s39.714-17.816 39.714-39.714v-21.704c0-9.768 7.947-17.714 17.715-17.714h28.712v-22h-28.714z"/><path d="m445.16 396.93c-3.072-8.002-14.736-9.157-19.301-1.9-4.925 7.075.529 17.262 9.141 17.1 7.578.232 13.272-8.278 10.16-15.2z"/><path d="m401.16 396.93c-2.687-7.099-12.717-9.081-17.94-3.58-6.19 6.006-2.862 17.023 5.63 18.57 8.424 1.83 15.748-7.077 12.31-14.99z"/><path d="m357.16 396.93c-3.075-8.01-14.735-9.148-19.311-1.9-4.904 7.094.528 17.248 9.151 17.1 7.578.226 13.28-8.279 10.16-15.2z"/></g><g><path d="m501 33.867h-490c-6.075 0-11 4.925-11 11v422.266c0 6.075 4.925 11 11 11h490c6.075 0 11-4.925 11-11v-422.266c0-6.075-4.925-11-11-11zm-11 422.266h-468v-400.266h468z"/><path d="m85 346.133h342c22.607 0 41-18.393 41-41v-186.266c0-22.607-18.393-41-41-41h-342c-22.607 0-41 18.393-41 41v186.266c0 22.607 18.393 41 41 41zm-19-227.266c0-10.477 8.523-19 19-19h342c10.477 0 19 8.523 19 19v186.266c0 10.477-8.523 19-19 19h-342c-10.477 0-19-8.523-19-19z"/><path d="m77 434.133c18.196 0 33-14.804 33-33s-14.804-33-33-33-33 14.804-33 33 14.804 33 33 33zm0-44c6.065 0 11 4.935 11 11s-4.935 11-11 11-11-4.935-11-11 4.935-11 11-11z"/><path d="m165 368.133c-18.196 0-33 14.804-33 33s14.804 33 33 33 33-14.804 33-33-14.804-33-33-33zm0 44c-6.065 0-11-4.935-11-11s4.935-11 11-11 11 4.935 11 11-4.935 11-11 11z"/></g></g><g/><g/><g/><g/><g/><g/><g/><g/><g/><g/><g/><g/><g/><g/><g/></svg>