<svg id="Layer_1" enable-background="new 0 0 512 512" viewBox="0 0 512 512" xmlns="http://www.w3.org/2000/svg" fill="#E6ECF2"><g><path d="m501 245h-41.762c25.077-19.354 41.261-49.696 41.261-83.75 0-58.311-47.438-105.75-105.749-105.75h-277.5c-58.311 0-105.749 47.439-105.749 105.75 0 34.054 16.185 64.395 41.261 83.75h-41.762c-6.075 0-11 4.925-11 11s4.925 11 11 11h41.762c-25.077 19.354-41.261 49.696-41.261 83.75 0 58.311 47.438 105.75 105.749 105.75h277.5c58.311 0 105.749-47.439 105.749-105.75 0-34.054-16.185-64.395-41.261-83.75h41.762c6.075 0 11-4.925 11-11s-4.925-11-11-11zm-132.501-4.198v-35.552c0-6.075-4.925-11-11-11h-101.499-101.499c-6.075 0-11 4.925-11 11v35.551c-13.03-6.532-22-20.01-22-35.552 0-21.918 17.831-39.75 39.749-39.75h189.5c21.918 0 39.749 17.832 39.749 39.75 0 15.543-8.97 29.021-22 35.553zm-101.499-24.552h79.499v79.499h-79.499zm-101.499 79.5v-79.5h79.499v79.499h-79.499zm-22-24.552v35.551c0 6.075 4.925 11 11 11h101.499 101.499c6.075 0 11-4.925 11-11v-35.551c13.03 6.532 22 20.01 22 35.552 0 21.918-17.831 39.75-39.749 39.75h-189.5c-21.918 0-39.749-17.832-39.749-39.75 0-15.542 8.97-29.02 22-35.552zm260.483-34.712c5.402-9.171 8.515-19.844 8.515-31.236 0-34.049-27.7-61.75-61.749-61.75h-189.5c-34.049 0-61.749 27.701-61.749 61.75 0 11.391 3.113 22.064 8.515 31.235-18.24-10.744-30.515-30.578-30.515-53.235 0-34.049 27.7-61.75 61.749-61.75h233.5c34.049 0 61.749 27.701 61.749 61.75 0 22.658-12.274 42.492-30.515 53.236zm-295.968 39.028c-5.402 9.171-8.515 19.844-8.515 31.236 0 34.049 27.7 61.75 61.749 61.75h189.5c34.049 0 61.749-27.701 61.749-61.75 0-11.391-3.113-22.064-8.515-31.235 18.24 10.744 30.515 30.578 30.515 53.235 0 34.049-27.7 61.75-61.749 61.75h-233.5c-34.049 0-61.749-27.701-61.749-61.75 0-22.658 12.274-42.492 30.515-53.236zm-74.515-114.264c0-46.18 37.569-83.75 83.749-83.75h277.5c46.18 0 83.749 37.57 83.749 83.75 0 28.7-14.517 54.067-36.587 69.164 9.196-13.442 14.587-29.684 14.587-47.164 0-46.18-37.569-83.75-83.749-83.75h-233.5c-46.18 0-83.749 37.57-83.749 83.75 0 17.48 5.391 33.721 14.586 47.163-22.07-15.097-36.586-40.463-36.586-69.163zm444.998 189.5c0 46.18-37.569 83.75-83.749 83.75h-277.5c-46.18 0-83.749-37.57-83.749-83.75 0-28.7 14.517-54.067 36.587-69.164-9.196 13.442-14.587 29.684-14.587 47.164 0 46.18 37.569 83.75 83.749 83.75h233.5c46.18 0 83.749-37.57 83.749-83.75 0-17.48-5.391-33.721-14.586-47.163 22.07 15.097 36.586 40.463 36.586 69.163z"/><g fill="#0496FF"><path d="m218.102 245h-1.852v-1.852c0-6.075-4.925-11-11-11s-11 4.925-11 11v1.852h-1.852c-6.075 0-11 4.925-11 11s4.925 11 11 11h1.852v1.852c0 6.075 4.925 11 11 11s11-4.925 11-11v-1.852h1.852c6.075 0 11-4.925 11-11s-4.925-11-11-11z"/><path d="m319.602 245h-25.703c-6.075 0-11 4.925-11 11s4.925 11 11 11h25.703c6.075 0 11-4.925 11-11s-4.925-11-11-11z"/></g></g><g/><g/><g/><g/><g/><g/><g/><g/><g/><g/><g/><g/><g/><g/><g/></svg>