<svg id="Capa_1" enable-background="new 0 0 512 512" viewBox="0 0 512 512" xmlns="http://www.w3.org/2000/svg" fill="#E6ECF2"><g><path d="m313.193 446.667c-6.075 0-11-4.925-11-11v-58.611l-89.457-20.5c-4.999-1.146-8.543-5.594-8.543-10.722s3.544-9.577 8.543-10.722l149.213-34.195-149.213-34.194c-4.999-1.146-8.543-5.594-8.543-10.722s3.544-9.577 8.543-10.722l149.213-34.194-149.213-34.195c-4.999-1.146-8.543-5.594-8.543-10.722s3.544-9.577 8.543-10.722l89.457-20.5v-58.612c0-6.075 4.925-11 11-11s11 4.925 11 11v67.375c0 5.128-3.544 9.577-8.543 10.722l-51.213 11.736 149.213 34.195c4.999 1.146 8.543 5.594 8.543 10.722s-3.544 9.577-8.543 10.722l-149.212 34.194 149.213 34.194c4.999 1.146 8.543 5.594 8.543 10.722s-3.544 9.577-8.543 10.722l-149.213 34.195 51.213 11.736c4.999 1.146 8.543 5.594 8.543 10.722v67.375c-.001 6.076-4.925 11.001-11.001 11.001z" fill="#0496FF"/><path d="m109.415 346.222-13.889 13.888v-208.22l13.889 13.889c4.296 4.296 11.26 4.295 15.557 0 4.296-4.296 4.296-11.261 0-15.557-.004-.015-32.695-32.692-32.711-32.707-1.776-1.764-4.16-2.871-6.647-3.127-2.875-.296-5.825.614-8.06 2.438-.282.228-.545.478-.806.728l-32.667 32.666c-4.296 4.296-4.296 11.261 0 15.557 4.296 4.295 11.261 4.296 15.557 0l13.889-13.889v208.222l-13.889-13.889c-10.701-9.898-25.473 4.809-15.557 15.557.015.02 32.688 32.689 32.712 32.707 1.776 1.765 4.161 2.871 6.648 3.126 2.874.297 5.824-.616 8.058-2.439.282-.228.545-.478.806-.728l32.667-32.667c9.898-10.699-4.809-25.471-15.557-15.555z"/><path d="m460.193 87.334h-294c-6.075 0-11-4.925-11-11v-65.334c0-6.075 4.925-11 11-11h294c6.075 0 11 4.925 11 11v65.334c0 6.075-4.924 11-11 11zm-283-22h272v-43.334h-272z"/><path d="m460.193 512h-294c-6.075 0-11-4.925-11-11v-65.333c0-6.075 4.925-11 11-11h294c6.075 0 11 4.925 11 11v65.333c0 6.075-4.924 11-11 11zm-283-22h272v-43.333h-272z"/></g><g/><g/><g/><g/><g/><g/><g/><g/><g/><g/><g/><g/><g/><g/><g/></svg>