<svg id="Capa_1" enable-background="new 0 0 512 512" viewBox="0 0 512 512" xmlns="http://www.w3.org/2000/svg" fill="#052438"><g><g><path d="m465.999 52.831c-12.721 0-24.843-3.9-35-11.135-10.157 7.235-22.278 11.135-35 11.135s-24.843-3.9-35-11.134c-10.157 7.234-22.278 11.134-35 11.134-12.721 0-24.843-3.9-34.999-11.135-10.157 7.235-22.279 11.135-35.001 11.135s-24.843-3.9-35-11.135c-10.157 7.235-22.279 11.135-35 11.135-12.722 0-24.843-3.9-35-11.134-10.157 7.234-22.278 11.134-35 11.134-12.721 0-24.843-3.9-34.999-11.135-10.157 7.235-22.279 11.135-35.001 11.135-16.159 0-31.352-6.293-42.778-17.72-4.296-4.296-4.295-11.261 0-15.557s11.26-4.295 15.556 0c7.271 7.272 16.938 11.276 27.221 11.276s19.951-4.005 27.222-11.276c2.063-2.062 4.861-3.222 7.778-3.222 2.917 0 5.715 1.159 7.778 3.222 7.271 7.272 16.938 11.276 27.221 11.276s19.951-4.004 27.222-11.276c2.063-2.062 4.861-3.222 7.778-3.222 2.918 0 5.716 1.159 7.778 3.222 7.271 7.272 16.939 11.276 27.222 11.276s19.95-4.004 27.222-11.276c2.063-2.062 4.861-3.222 7.778-3.222 2.918 0 5.715 1.159 7.778 3.222 7.271 7.272 16.939 11.276 27.222 11.276s19.951-4.005 27.222-11.276c2.063-2.062 4.861-3.222 7.778-3.222 2.917 0 5.715 1.159 7.778 3.222 7.271 7.272 16.939 11.276 27.221 11.276 10.283 0 19.951-4.004 27.222-11.276 2.063-2.062 4.861-3.222 7.778-3.222 2.918 0 5.716 1.159 7.778 3.222 7.271 7.272 16.938 11.276 27.222 11.276s19.951-4.004 27.222-11.276c2.062-2.062 4.861-3.222 7.778-3.222 2.918 0 5.715 1.159 7.778 3.222 7.272 7.271 16.939 11.276 27.222 11.276s19.951-4.005 27.222-11.276c4.296-4.295 11.261-4.295 15.557 0 4.295 4.296 4.296 11.261 0 15.557-11.423 11.427-26.616 17.72-42.776 17.72z" fill="#0496FF"/><path d="m501 512h-490c-6.075 0-11-4.925-11-11v-490c0-6.075 4.925-11 11-11s11 4.925 11 11v479h468v-479c0-6.075 4.925-11 11-11s11 4.925 11 11v490c0 6.075-4.925 11-11 11z"/></g><g><path d="m89.4 458.1c-24.078 0-43.667-19.589-43.667-43.666 0-24.078 19.589-43.667 43.667-43.667s43.667 19.589 43.667 43.667c0 24.077-19.589 43.666-43.667 43.666zm0-65.333c-11.947 0-21.667 9.72-21.667 21.667 0 11.946 9.72 21.666 21.667 21.666s21.667-9.72 21.667-21.666c0-11.948-9.72-21.667-21.667-21.667z"/><path d="m200.467 458.1c-24.078 0-43.667-19.589-43.667-43.666 0-24.078 19.589-43.667 43.667-43.667s43.666 19.589 43.666 43.667c0 24.077-19.589 43.666-43.666 43.666zm0-65.333c-11.947 0-21.667 9.72-21.667 21.667 0 11.946 9.72 21.666 21.667 21.666s21.666-9.72 21.666-21.666c0-11.948-9.719-21.667-21.666-21.667z"/><path d="m311.533 458.1c-24.078 0-43.666-19.589-43.666-43.666 0-24.078 19.589-43.667 43.666-43.667 24.078 0 43.667 19.589 43.667 43.667 0 24.077-19.589 43.666-43.667 43.666zm0-65.333c-11.947 0-21.666 9.72-21.666 21.667 0 11.946 9.72 21.666 21.666 21.666 11.947 0 21.667-9.72 21.667-21.666 0-11.948-9.72-21.667-21.667-21.667z"/><path d="m422.6 458.1c-24.078 0-43.667-19.589-43.667-43.666 0-24.078 19.589-43.667 43.667-43.667s43.666 19.589 43.666 43.667c.001 24.077-19.588 43.666-43.666 43.666zm0-65.333c-11.947 0-21.667 9.72-21.667 21.667 0 11.946 9.72 21.666 21.667 21.666s21.666-9.72 21.666-21.666c.001-11.948-9.719-21.667-21.666-21.667z"/></g><g><path d="m422.6 177.167c-24.078 0-43.667-19.589-43.667-43.667s19.589-43.667 43.667-43.667 43.666 19.589 43.666 43.667-19.588 43.667-43.666 43.667zm0-65.334c-11.947 0-21.667 9.72-21.667 21.667s9.72 21.667 21.667 21.667 21.666-9.72 21.666-21.667-9.719-21.667-21.666-21.667z"/><path d="m311.533 258.833c-24.078 0-43.666-19.589-43.666-43.666 0-24.078 19.589-43.667 43.666-43.667 24.078 0 43.667 19.589 43.667 43.667 0 24.077-19.589 43.666-43.667 43.666zm0-65.333c-11.947 0-21.666 9.72-21.666 21.667 0 11.946 9.72 21.666 21.666 21.666 11.947 0 21.667-9.72 21.667-21.666 0-11.947-9.72-21.667-21.667-21.667z"/><path d="m200.467 193.5c-24.078 0-43.667-19.589-43.667-43.667 0-24.077 19.589-43.666 43.667-43.666s43.666 19.589 43.666 43.666c0 24.078-19.589 43.667-43.666 43.667zm0-65.333c-11.947 0-21.667 9.72-21.667 21.666 0 11.947 9.72 21.667 21.667 21.667s21.666-9.72 21.666-21.667c0-11.946-9.719-21.666-21.666-21.666z"/><path d="m89.4 226.167c-24.078 0-43.667-19.589-43.667-43.667s19.589-43.667 43.667-43.667 43.667 19.589 43.667 43.667-19.589 43.667-43.667 43.667zm0-65.334c-11.947 0-21.667 9.72-21.667 21.667s9.72 21.667 21.667 21.667 21.667-9.72 21.667-21.667-9.72-21.667-21.667-21.667z"/></g></g><g/><g/><g/><g/><g/><g/><g/><g/><g/><g/><g/><g/><g/><g/><g/></svg>