<svg id="Capa_1" enable-background="new 0 0 512 512" viewBox="0 0 512 512" xmlns="http://www.w3.org/2000/svg" fill="#052438"><g><path d="m296.445 248.222-32.667-32.667c-4.297-4.295-11.26-4.295-15.557 0-4.296 4.296-4.296 11.261 0 15.557l13.889 13.888h-55.11c-6.075 0-11 4.925-11 11s4.925 11 11 11h55.11l-13.889 13.889c-4.296 4.296-4.296 11.261 0 15.557 2.148 2.147 4.963 3.222 7.778 3.222s5.63-1.074 7.778-3.222l32.667-32.667c4.297-4.297 4.297-11.261.001-15.557z"/><g><path d="m109 212.333c-12.987 0-24.661 5.706-32.667 14.734-8.006-9.028-19.679-14.734-32.666-14.734-24.078 0-43.667 19.589-43.667 43.667s19.589 43.667 43.667 43.667c12.987 0 24.66-5.706 32.666-14.734 8.006 9.028 19.68 14.734 32.667 14.734 24.078 0 43.667-19.589 43.667-43.667s-19.589-43.667-43.667-43.667zm-65.333 65.334c-11.947 0-21.667-9.72-21.667-21.667s9.72-21.667 21.667-21.667c11.946 0 21.666 9.72 21.666 21.667s-9.72 21.667-21.666 21.667zm65.333 0c-11.947 0-21.667-9.72-21.667-21.667s9.72-21.667 21.667-21.667 21.667 9.72 21.667 21.667-9.72 21.667-21.667 21.667z" fill="#0496FF"/><path d="m76.333 243.088c-24.077 0-43.666-19.589-43.666-43.666 0-24.078 19.589-43.667 43.666-43.667 24.078 0 43.667 19.589 43.667 43.667 0 24.077-19.589 43.666-43.667 43.666zm0-65.333c-11.946 0-21.666 9.72-21.666 21.667 0 11.946 9.72 21.666 21.666 21.666 11.947 0 21.667-9.72 21.667-21.666 0-11.947-9.72-21.667-21.667-21.667z"/><path d="m76.333 356.245c-24.077 0-43.666-19.589-43.666-43.667 0-24.077 19.589-43.666 43.666-43.666 24.078 0 43.667 19.589 43.667 43.666 0 24.078-19.589 43.667-43.667 43.667zm0-65.333c-11.946 0-21.666 9.72-21.666 21.666 0 11.947 9.72 21.667 21.666 21.667 11.947 0 21.667-9.72 21.667-21.667 0-11.946-9.72-21.666-21.667-21.666z"/></g><g><path d="m370.333 193.5c-24.077 0-43.666-19.589-43.666-43.667 0-24.077 19.589-43.666 43.666-43.666 24.078 0 43.667 19.589 43.667 43.666 0 24.078-19.589 43.667-43.667 43.667zm0-65.333c-11.946 0-21.666 9.72-21.666 21.666 0 11.947 9.72 21.667 21.666 21.667 11.947 0 21.667-9.72 21.667-21.667 0-11.946-9.72-21.666-21.667-21.666z"/><path d="m370.333 405.833c-24.077 0-43.666-19.589-43.666-43.666 0-24.078 19.589-43.667 43.666-43.667 24.078 0 43.667 19.589 43.667 43.667 0 24.077-19.589 43.666-43.667 43.666zm0-65.333c-11.946 0-21.666 9.72-21.666 21.667 0 11.946 9.72 21.666 21.666 21.666 11.947 0 21.667-9.72 21.667-21.666 0-11.947-9.72-21.667-21.667-21.667z"/><g fill="#0496FF"><path d="m468.333 299.667c-24.077 0-43.666-19.589-43.666-43.667s19.589-43.667 43.666-43.667c24.078 0 43.667 19.589 43.667 43.667s-19.589 43.667-43.667 43.667zm0-65.334c-11.946 0-21.666 9.72-21.666 21.667s9.72 21.667 21.666 21.667c11.947 0 21.667-9.72 21.667-21.667s-9.72-21.667-21.667-21.667z"/><path d="m468.333 512c-24.077 0-43.666-19.589-43.666-43.667 0-24.077 19.589-43.666 43.666-43.666 24.078 0 43.667 19.589 43.667 43.666 0 24.078-19.589 43.667-43.667 43.667zm0-65.333c-11.946 0-21.666 9.72-21.666 21.666 0 11.947 9.72 21.667 21.666 21.667 11.947 0 21.667-9.72 21.667-21.667 0-11.946-9.72-21.666-21.667-21.666z"/><path d="m468.333 87.333c-24.077 0-43.666-19.589-43.666-43.666 0-24.078 19.589-43.667 43.666-43.667 24.078 0 43.667 19.589 43.667 43.667 0 24.077-19.589 43.666-43.667 43.666zm0-65.333c-11.946 0-21.666 9.72-21.666 21.667 0 11.946 9.72 21.666 21.666 21.666 11.947 0 21.667-9.72 21.667-21.666 0-11.947-9.72-21.667-21.667-21.667z"/></g></g></g><g/><g/><g/><g/><g/><g/><g/><g/><g/><g/><g/><g/><g/><g/><g/></svg>