<svg id="Capa_1" enable-background="new 0 0 512 512" viewBox="0 0 512 512" xmlns="http://www.w3.org/2000/svg" fill="#052438"><g><g><path d="m466 241.58c-12.722 0-24.844-3.9-35.001-11.134-10.156 7.234-22.278 11.134-34.999 11.134-12.722 0-24.843-3.9-35-11.134-10.157 7.234-22.278 11.134-35 11.134-12.725 0-24.85-3.902-35.008-11.14-20.872 14.813-49.109 14.814-69.985 0-10.158 7.238-22.283 11.14-35.008 11.14-12.721 0-24.843-3.9-35-11.134-10.156 7.234-22.278 11.134-34.999 11.134-12.722 0-24.844-3.9-35-11.134-10.157 7.234-22.279 11.134-35 11.134-16.159 0-31.352-6.293-42.778-17.72-4.296-4.295-4.296-11.26 0-15.556 4.296-4.295 11.261-4.295 15.557 0 7.271 7.271 16.938 11.276 27.221 11.276 10.282 0 19.95-4.005 27.222-11.276 2.063-2.063 4.861-3.222 7.778-3.222 2.918 0 5.716 1.159 7.778 3.222 7.271 7.271 16.938 11.276 27.222 11.276 10.282 0 19.95-4.004 27.221-11.276 2.062-2.063 4.86-3.222 7.778-3.222 2.917 0 5.716 1.159 7.778 3.222 7.271 7.271 16.938 11.276 27.222 11.276s19.951-4.004 27.222-11.276c2.062-2.063 4.86-3.222 7.778-3.222 2.917 0 5.715 1.159 7.778 3.222 15.01 15.01 39.435 15.009 54.444 0 2.064-2.063 4.861-3.222 7.778-3.222 2.918 0 5.716 1.159 7.778 3.222 7.271 7.271 16.938 11.276 27.222 11.276s19.95-4.005 27.222-11.276c2.062-2.063 4.861-3.222 7.778-3.222 2.918 0 5.716 1.159 7.778 3.222 7.27 7.271 16.938 11.276 27.222 11.276 10.282 0 19.95-4.004 27.221-11.276 2.062-2.063 4.86-3.222 7.778-3.222 2.917 0 5.715 1.159 7.778 3.222 7.271 7.271 16.939 11.276 27.223 11.276s19.95-4.005 27.222-11.276c4.295-4.295 11.26-4.296 15.557 0 4.296 4.296 4.296 11.261 0 15.556-11.426 11.427-26.619 17.72-42.778 17.72z" fill="#0496FF"/><path d="m362.167 299.667h-212.334c-6.075 0-11-4.925-11-11v-130.667c0-6.075 4.925-11 11-11h212.334c6.075 0 11 4.925 11 11v130.666c0 6.076-4.925 11.001-11 11.001zm-201.334-22h190.334v-108.667h-190.334z"/></g><path d="m501 512h-490c-6.075 0-11-4.925-11-11v-343c0-6.075 4.925-11 11-11s11 4.925 11 11v332h468v-332c0-6.075 4.925-11 11-11s11 4.925 11 11v343c0 6.075-4.925 11-11 11z"/><path d="m296.446 52.222c-4.297-4.295-11.262-4.296-15.557 0l-13.889 13.889v-55.111c0-6.075-4.925-11-11-11s-11 4.925-11 11v55.11l-13.889-13.889c-10.702-9.898-25.473 4.81-15.557 15.557 0 0 32.667 32.666 32.667 32.666 3.574 3.665 9.666 4.268 13.887 1.369.591-.413 1.16-.857 1.67-1.369l32.667-32.666c4.296-4.295 4.296-11.26.001-15.556z"/><path d="m296.446 378.888c-.018-.022-32.686-32.687-32.711-32.707-1.776-1.764-4.16-2.871-6.647-3.126-2.875-.296-5.825.614-8.06 2.438-.282.228-.545.478-.806.728l-32.667 32.667c-9.899 10.699 4.809 25.473 15.557 15.557 0 0 13.889-13.889 13.889-13.889v55.11c0 6.075 4.925 11 11 11s11-4.925 11-11v-55.11l13.889 13.889c2.148 2.148 4.963 3.222 7.778 3.222 9.654.059 14.715-11.884 7.778-18.779z"/></g><g/><g/><g/><g/><g/><g/><g/><g/><g/><g/><g/><g/><g/><g/><g/></svg>