<svg id="Layer_1" enable-background="new 0 0 512 512" viewBox="0 0 512 512" xmlns="http://www.w3.org/2000/svg" fill="#E6ECF2"><g><path d="m419.143 0h-296.287c-22.607 0-41 18.616-41 41.498v369c0 22.882 18.393 41.498 41 41.498h25.001v49.004c0 3.74 1.9 7.224 5.045 9.249 3.144 2.025 7.102 2.314 10.507.765l17.448-7.931 17.448 7.931c1.452.66 3.004.986 4.551.986 2.081 0 4.152-.59 5.956-1.751 3.145-2.025 5.045-5.508 5.045-9.249v-49.003h205.286c6.075 0 11-4.925 11-11v-429.997c0-6.075-4.924-11-11-11zm-11 369h-260.287v-347h260.287zm-285.287-347h3v347h-3c-6.854 0-13.316 1.72-19 4.742v-332.244c0-10.751 8.524-19.498 19-19.498zm0 407.996c-10.477 0-19-8.747-19-19.498s8.523-19.498 19-19.498h25.001v38.996zm62.554 50.989c-2.893-1.315-6.212-1.315-9.104 0l-6.448 2.931v-92.916h22v92.916zm28.448-50.989v-38.996h194.286v38.996z"/><path d="m353.143 239.636c-6.305 0-12.201 1.78-17.217 4.86l-19.625-15.928c2.187-5.011 3.408-10.536 3.408-16.344 0-18.797-12.719-34.669-30-39.489v-23.263c12.803-4.541 22-16.768 22-31.108 0-18.196-14.804-33-33-33s-33 14.804-33 33c0 14.34 9.197 26.567 22 31.108v23.263c-17.281 4.82-30 20.692-30 39.489 0 5.674 1.16 11.082 3.253 16.001l-20.634 16.434c-5.071-3.178-11.058-5.023-17.471-5.023-18.196 0-33 14.804-33 33s14.804 33 33 33 33-14.804 33-33c0-3.772-.645-7.395-1.815-10.774l20.645-16.443c6.756 4.903 15.055 7.805 24.022 7.805 8.832 0 17.014-2.817 23.714-7.586l19.633 15.934c-1.235 3.461-1.914 7.184-1.914 11.063 0 18.196 14.804 33 33 33s33-14.804 33-33-14.803-32.999-32.999-32.999zm-74.434-132.272c6.065 0 11 4.935 11 11s-4.935 11-11 11-11-4.935-11-11 4.934-11 11-11zm-75.852 176.272c-6.065 0-11-4.935-11-11s4.935-11 11-11 11 4.935 11 11-4.935 11-11 11zm75.852-52.412c-10.477 0-19-8.523-19-19s8.523-19 19-19 19 8.523 19 19-8.524 19-19 19zm74.434 52.412c-6.065 0-11-4.935-11-11s4.935-11 11-11 11 4.935 11 11-4.935 11-11 11z" fill="#0496FF"/></g><g/><g/><g/><g/><g/><g/><g/><g/><g/><g/><g/><g/><g/><g/><g/></svg>