<svg id="Layer_1" enable-background="new 0 0 512 512" viewBox="0 0 512 512" xmlns="http://www.w3.org/2000/svg" fill="#E6ECF2"><g><g><path d="m256 244.291c54.809 0 99.399-44.59 99.399-99.399 0-69.928-88.875-139.65-92.659-142.584-3.967-3.076-9.514-3.076-13.48 0-3.784 2.934-92.659 72.656-92.659 142.584 0 54.808 44.59 99.399 99.399 99.399zm-36.159-183.333c13.971-16.036 28.108-28.818 36.159-35.697 8.052 6.88 22.188 19.661 36.159 35.697 18.813 21.596 41.24 53.688 41.24 83.933 0 42.678-34.722 77.399-77.399 77.399s-77.399-34.721-77.399-77.399c0-30.245 22.426-62.337 41.24-83.933z"/><path d="m433.81 300.045c-47.678-21.767-110.825-33.755-177.81-33.755s-130.132 11.988-177.81 33.755c-50.421 23.021-78.19 54.663-78.19 89.101 0 34.437 27.769 66.08 78.19 89.1 47.678 21.766 110.826 33.754 177.81 33.754s130.132-11.988 177.81-33.755c50.422-23.02 78.19-54.663 78.19-89.1s-27.769-66.079-78.19-89.1zm-9.137 158.187c-44.871 20.486-104.774 31.768-168.673 31.768s-123.802-11.282-168.673-31.768c-41.516-18.954-65.327-44.135-65.327-69.086s23.811-50.133 65.327-69.087c44.871-20.486 104.773-31.768 168.673-31.768s123.802 11.282 168.673 31.768c41.516 18.954 65.327 44.135 65.327 69.087s-23.811 50.132-65.327 69.086z"/></g><g fill="#0496FF"><path d="m256 197.433c6.075 0 11-4.925 11-11s-4.925-11-11-11c-16.841 0-30.542-13.701-30.542-30.542 0-6.075-4.925-11-11-11s-11 4.925-11 11c0 28.972 23.57 52.542 52.542 52.542z"/><path d="m372.725 332.859c-31.357-12.845-72.811-19.919-116.725-19.919s-85.368 7.074-116.725 19.919c-34.469 14.12-53.452 34.11-53.452 56.287s18.983 42.166 53.452 56.286c31.356 12.845 72.811 19.919 116.725 19.919s85.368-7.074 116.725-19.919c34.469-14.12 53.452-34.109 53.452-56.286s-18.984-42.167-53.452-56.287zm-8.339 92.214c-28.773 11.787-67.265 18.278-108.386 18.278s-79.613-6.491-108.386-18.277c-24.916-10.207-39.791-23.638-39.791-35.928 0-12.291 14.875-25.722 39.791-35.928 28.773-11.787 67.265-18.278 108.386-18.278s79.613 6.491 108.386 18.277c24.916 10.207 39.791 23.638 39.791 35.928 0 12.291-14.875 25.722-39.791 35.928z"/><path d="m256 359.589c-13.423 0-80.382 1.425-80.382 29.557 0 28.131 66.959 29.556 80.382 29.556s80.382-1.425 80.382-29.556c0-28.132-66.959-29.557-80.382-29.557zm0 37.113c-26.459 0-45.127-4.049-53.948-7.556 8.821-3.507 27.489-7.557 53.948-7.557s45.127 4.049 53.948 7.557c-8.821 3.506-27.489 7.556-53.948 7.556z"/><path d="m501 256.291h-51.222c-6.075 0-11 4.925-11 11s4.925 11 11 11h51.222c6.075 0 11-4.925 11-11s-4.925-11-11-11z"/><path d="m473.775 179.293c-4.297-4.296-11.26-4.295-15.557 0l-36.218 36.219c-4.296 4.296-4.296 11.261 0 15.557 2.148 2.148 4.963 3.222 7.778 3.222s5.63-1.074 7.778-3.222l36.219-36.219c4.296-4.296 4.296-11.261 0-15.557z"/><path d="m62.222 256.291h-51.222c-6.075 0-11 4.925-11 11s4.925 11 11 11h51.222c6.075 0 11-4.925 11-11s-4.925-11-11-11z"/><path d="m90 215.512-36.219-36.219c-4.296-4.295-11.261-4.296-15.557 0s-4.296 11.261 0 15.557l36.219 36.219c2.148 2.148 4.963 3.222 7.778 3.222 2.814 0 5.631-1.074 7.778-3.222 4.297-4.296 4.297-11.261.001-15.557z"/></g></g><g/><g/><g/><g/><g/><g/><g/><g/><g/><g/><g/><g/><g/><g/><g/></svg>