<svg id="Capa_1" enable-background="new 0 0 512.003 512.003" viewBox="0 0 512.003 512.003" xmlns="http://www.w3.org/2000/svg" fill="#052438"><g><path d="m180.107 188.746c4.282-.817 7.82-4.354 8.639-8.636.124-.712.221-1.432.214-2.157v-46.194c0-6.075-4.925-11-11-11s-11 4.925-11 11v19.642l-148.181-148.179c-4.296-4.295-11.261-4.295-15.557 0-4.296 4.296-4.296 11.261 0 15.557l148.181 148.181h-19.642c-14.58.574-14.598 21.418 0 22h46.198c.722.006 1.439-.092 2.148-.214z"/><g fill="#0496FF"><path d="m305 430.333c-69.108 0-125.333-56.225-125.333-125.333s56.225-125.334 125.333-125.334 125.333 56.225 125.333 125.334-56.224 125.333-125.333 125.333zm0-228.667c-56.977 0-103.333 46.355-103.333 103.333s46.356 103.334 103.333 103.334 103.333-46.355 103.333-103.333-46.355-103.334-103.333-103.334z"/><g><path d="m252.488 512.003c-.942 0-1.9-.122-2.854-.378-5.868-1.572-9.35-7.604-7.777-13.472l6.018-22.458c1.572-5.868 7.602-9.351 13.473-7.778 5.868 1.572 9.35 7.604 7.777 13.472l-6.019 22.458c-1.317 4.915-5.762 8.156-10.618 8.156z"/><path d="m351.508 142.461c-.942 0-1.9-.122-2.854-.378-5.868-1.572-9.35-7.604-7.777-13.472l6.018-22.458c1.572-5.868 7.603-9.351 13.473-7.778 5.868 1.572 9.35 7.604 7.777 13.472l-6.018 22.459c-1.317 4.914-5.762 8.155-10.619 8.155z"/><path d="m357.513 512.003c-4.857 0-9.301-3.241-10.618-8.156l-6.018-22.458c-1.572-5.868 1.909-11.9 7.777-13.472 5.869-1.574 11.899 1.909 13.473 7.778l6.018 22.458c1.572 5.868-1.909 11.9-7.777 13.472-.955.255-1.913.378-2.855.378z"/><path d="m258.492 142.461c-4.857 0-9.301-3.241-10.618-8.156l-6.018-22.459c-1.572-5.868 1.909-11.9 7.777-13.472 5.869-1.573 11.899 1.909 13.473 7.778l6.019 22.458c1.572 5.868-1.909 11.9-7.777 13.472-.955.257-1.913.379-2.856.379z"/><path d="m108.993 368.523c-4.856 0-9.301-3.241-10.618-8.155-1.572-5.868 1.909-11.9 7.777-13.473l22.458-6.019c5.868-1.577 11.899 1.91 13.473 7.777 1.572 5.868-1.909 11.9-7.777 13.473l-22.458 6.019c-.954.256-1.912.378-2.855.378z"/><path d="m478.535 269.502c-4.857 0-9.301-3.241-10.618-8.155-1.572-5.868 1.909-11.9 7.777-13.473l22.458-6.019c5.868-1.575 11.9 1.91 13.473 7.777 1.572 5.868-1.909 11.9-7.777 13.473l-22.458 6.019c-.954.256-1.912.378-2.855.378z"/><path d="m161.52 459.48c-2.815 0-5.63-1.074-7.778-3.222-4.296-4.296-4.296-11.261 0-15.557l16.439-16.439c4.297-4.296 11.26-4.296 15.557 0 4.296 4.296 4.296 11.261 0 15.557l-16.439 16.439c-2.149 2.148-4.964 3.222-7.779 3.222z"/><path d="m432.041 188.959c-2.815 0-5.63-1.074-7.778-3.222-4.296-4.296-4.296-11.261 0-15.557l16.439-16.439c4.297-4.296 11.26-4.296 15.557 0 4.296 4.296 4.296 11.261 0 15.557l-16.44 16.439c-2.148 2.149-4.962 3.222-7.778 3.222z"/><path d="m448.481 459.48c-2.815 0-5.63-1.074-7.778-3.222l-16.439-16.439c-4.296-4.296-4.296-11.261 0-15.557 4.297-4.296 11.26-4.296 15.557 0l16.44 16.439c4.296 4.296 4.296 11.261 0 15.557-2.15 2.148-4.965 3.222-7.78 3.222z"/><path d="m131.465 269.502c-.942 0-1.9-.122-2.854-.378l-22.458-6.019c-5.868-1.573-9.35-7.605-7.777-13.473s7.602-9.353 13.473-7.777l22.458 6.019c5.868 1.573 9.35 7.604 7.777 13.473-1.318 4.914-5.762 8.155-10.619 8.155z"/><path d="m501.007 368.523c-.942 0-1.9-.122-2.854-.378l-22.458-6.019c-5.868-1.573-9.35-7.604-7.777-13.473 1.573-5.867 7.602-9.352 13.473-7.777l22.458 6.019c5.868 1.573 9.35 7.605 7.777 13.473-1.318 4.914-5.762 8.155-10.619 8.155z"/></g></g></g><g/><g/><g/><g/><g/><g/><g/><g/><g/><g/><g/><g/><g/><g/><g/></svg>