<svg id="Capa_1" enable-background="new 0 0 512 512" viewBox="0 0 512 512" xmlns="http://www.w3.org/2000/svg" fill="#E6ECF2"><g><g fill="#0496FF"><path d="m501 28h-340.751c-6.075 0-11 4.925-11 11v84.211h22v-73.211h318.751v304.069h-241.366v22h252.366c6.075 0 11-4.925 11-11v-326.069c0-6.075-4.925-11-11-11z"/><path d="m134.993 248.454c-.683.682-1.46.826-1.993.826s-1.311-.144-1.993-.826c-4.296-4.297-11.26-4.297-15.556 0-4.296 4.295-4.296 11.26 0 15.556 4.688 4.688 10.92 7.27 17.55 7.27s12.862-2.582 17.55-7.27c4.296-4.296 4.295-11.261 0-15.556-4.298-4.297-11.263-4.296-15.558 0z"/><path d="m349.559 163.411v35.684c0 11.865-7.117 22.381-18.132 26.791-5.64 2.258-8.381 8.661-6.123 14.301 1.722 4.299 5.851 6.914 10.216 6.914 1.36 0 2.744-.254 4.085-.791 19.411-7.772 31.954-26.305 31.954-47.215v-35.684c0-12.282 9.992-22.274 22.274-22.274h13.906l-1.832 1.832c-4.296 4.295-4.296 11.26 0 15.556 2.148 2.148 4.963 3.222 7.778 3.222s5.631-1.074 7.778-3.222l20.609-20.61c4.296-4.296 4.296-11.261 0-15.557l-20.609-20.609c-4.297-4.296-11.26-4.296-15.557 0-4.296 4.296-4.296 11.261 0 15.557l1.831 1.831h-13.905c-24.412 0-44.273 19.862-44.273 44.274z"/><path d="m303.954 266.541c0-21.505-17.495-39-39-39s-39 17.495-39 39 17.495 39 39 39 39-17.495 39-39zm-56 0c0-9.374 7.626-17 17-17s17 7.626 17 17-7.626 17-17 17-17-7.626-17-17z"/></g><g><path d="m423.159 274.742 12.021-12.021c4.296-4.296 4.296-11.261 0-15.557-4.297-4.296-11.26-4.295-15.557 0l-12.021 12.021-12.021-12.021c-4.296-4.295-11.261-4.295-15.557 0-4.296 4.296-4.296 11.261 0 15.557l12.021 12.021-12.021 12.021c-4.296 4.296-4.296 11.261 0 15.557 2.148 2.148 4.963 3.222 7.778 3.222s5.63-1.074 7.778-3.222l12.021-12.021 12.021 12.021c2.148 2.148 4.963 3.222 7.778 3.222 2.814 0 5.631-1.074 7.778-3.222 4.296-4.296 4.296-11.261 0-15.557z"/><path d="m292.556 101.75c-4.297-4.296-11.26-4.295-15.557 0l-12.021 12.021-12.021-12.021c-4.297-4.296-11.261-4.295-15.557 0-4.295 4.296-4.295 11.261 0 15.557l12.021 12.021-12.021 12.021c-4.295 4.296-4.295 11.261 0 15.557 2.148 2.148 4.963 3.222 7.778 3.222s5.63-1.074 7.778-3.222l12.021-12.021 12.021 12.021c2.148 2.148 4.963 3.222 7.778 3.222 2.814 0 5.631-1.074 7.778-3.222 4.296-4.296 4.296-11.261 0-15.557l-12.021-12.021 12.021-12.021c4.298-4.297 4.298-11.262.002-15.557z"/><path d="m216.246 330.744-44.997-8.848v-16.233c21.874-13.04 36.564-36.928 36.564-64.191v-14.139c.873-.185 1.732-.468 2.556-.871 3.776-1.845 6.17-5.68 6.17-9.883v-25.673c0-45.994-37.419-83.412-83.413-83.412s-83.413 37.418-83.413 83.412v25.591c0 5.295 3.742 9.714 8.726 10.762v14.212c0 27.159 14.576 50.971 36.311 64.045v16.379l-44.997 8.848c-28.829 5.67-49.753 31.109-49.753 60.49v81.767c0 6.075 4.925 11 11 11h244c6.075 0 11-4.925 11-11v-81.767c0-29.381-20.924-54.82-49.754-60.489zm-25.619 17.384-17.151 28.165-24.011-15.93 14.949-17.39zm-118.913-142.938v-14.283c0-33.863 27.55-61.412 61.413-61.412s61.413 27.549 61.413 61.412v1.19c-4.91-4.985-9.52-10.245-13.8-15.752-3.538-4.552-9.99-5.6-14.786-2.403-27.963 18.637-60.343 29.342-94.24 31.248zm8.726 36.282v-14.875c31.749-2.891 62.155-12.749 89.267-29.006 5.032 5.846 10.419 11.4 16.106 16.648v27.233c0 29.052-23.635 52.687-52.687 52.687s-52.686-23.635-52.686-52.687zm68.809 72.915v12.479l-16.249 18.902-16.249-18.902v-12.537c5.274 1.185 10.75 1.831 16.376 1.831 5.536-.001 10.926-.625 16.122-1.773zm-47.663 28.586 14.949 17.39-24.011 15.93-17.151-28.165zm142.414 119.027h-222v-70.767c0-18.345 12.685-34.298 30.39-38.549l27.292 44.818c1.556 2.555 4.085 4.366 7.005 5.016 2.901.648 5.976.087 8.471-1.571l37.842-25.105 37.842 25.105c2.495 1.658 5.57 2.219 8.471 1.571 2.92-.65 5.449-2.461 7.005-5.016l27.292-44.818c17.706 4.251 30.39 20.204 30.39 38.549z"/></g></g><g/><g/><g/><g/><g/><g/><g/><g/><g/><g/><g/><g/><g/><g/><g/></svg>