<svg id="Capa_1" enable-background="new 0 0 511.873 511.873" viewBox="0 0 511.873 511.873" xmlns="http://www.w3.org/2000/svg" fill="#052438"><g><g><path d="m500.873 69.019h-412.873v-36.082c0-6.075-4.925-11-11-11h-22c-30.327 0-55 24.673-55 55v358c0 30.327 24.673 55 55 55h445.873c6.075 0 11-4.925 11-11v-398.918c0-6.076-4.925-11-11-11zm-478.873 7.918c0-18.196 14.804-33 33-33h11v336h-11c-12.37 0-23.802 4.106-33 11.026zm467.873 391h-434.873c-18.196 0-33-14.804-33-33s14.804-33 33-33h22c6.075 0 11-4.925 11-11v-299.918h401.873z"/><path d="m424.742 268.478h-57.752v22h68.752c6.075 0 11-4.925 11-11v-116c0-6.075-4.925-11-11-11h-70.595v22h59.595z"/><path d="m142.552 406.478h70.596v-22h-59.596v-95.328h59.596v-22h-70.596c-6.075 0-11 4.925-11 11v117.328c0 6.075 4.925 11 11 11z"/></g><g fill="#0496FF"><path d="m365.147 116.478h-152c-6.075 0-11 4.925-11 11v72c0 6.075 4.925 11 11 11h152c6.075 0 11-4.925 11-11v-72c0-6.076-4.924-11-11-11zm-11 72h-130v-50h130z"/><path d="m365.147 232.478h-152c-6.075 0-11 4.925-11 11v72c0 6.075 4.925 11 11 11h152c6.075 0 11-4.925 11-11v-72c0-6.076-4.924-11-11-11zm-11 72h-130v-50h130z"/><path d="m365.147 348.478h-152c-6.075 0-11 4.925-11 11v72c0 6.075 4.925 11 11 11h152c6.075 0 11-4.925 11-11v-72c0-6.076-4.924-11-11-11zm-11 72h-130v-50h130z"/></g></g><g/><g/><g/><g/><g/><g/><g/><g/><g/><g/><g/><g/><g/><g/><g/></svg>