<svg id="Capa_1" enable-background="new 0 0 512 512" viewBox="0 0 512 512" xmlns="http://www.w3.org/2000/svg" fill="#052438"><g><g><path d="m483.805 330.599c12.896-10.281 21.183-26.109 21.183-43.845 0-30.915-25.15-56.066-56.065-56.066s-56.065 25.151-56.065 56.066c0 17.7 8.253 33.5 21.104 43.783-12.951 7.314-23.735 18.413-30.465 32.144l-9.498 19.375h-38.515c-20.387 0-36.973 16.586-36.973 36.973 0 5.328 1.142 10.392 3.179 14.972h-91.38c2.037-4.581 3.179-9.644 3.179-14.972 0-20.387-16.586-36.973-36.973-36.973h-38.515l-9.498-19.375c-6.73-13.731-17.514-24.83-30.466-32.144 12.851-10.283 21.104-26.083 21.104-43.783 0-30.915-25.15-56.066-56.065-56.066s-56.064 25.151-56.064 56.066c0 17.736 8.287 33.564 21.183 43.845-16.945 10.933-28.195 29.965-28.195 51.588v118.813c0 6.075 4.925 11 11 11h490c6.075 0 11-4.925 11-11v-118.813c0-21.623-11.251-40.654-28.195-51.588zm-34.882-77.911c18.784 0 34.065 15.282 34.065 34.066s-15.281 34.066-34.065 34.066-34.065-15.282-34.065-34.066 15.281-34.066 34.065-34.066zm-41.473 203.312v34h-302.9v-34zm-344.373-203.312c18.784 0 34.065 15.282 34.065 34.066s-15.281 34.066-34.065 34.066-34.065-15.282-34.065-34.066 15.281-34.066 34.065-34.066zm29.177 159.355c-4.291-4.302-11.254-4.312-15.557-.022-4.302 4.29-4.312 11.254-.021 15.556l5.874 5.891v56.532h-60.55v-107.813c0-21.707 17.66-39.367 39.367-39.367 19.986 0 38.586 11.597 47.383 29.544l12.517 25.534c1.848 3.769 5.68 6.158 9.877 6.158h45.373c8.256 0 14.973 6.717 14.973 14.973s-6.718 14.971-14.973 14.971h-62.367zm397.746 77.957h-60.55v-56.532l5.874-5.891c4.29-4.302 4.28-11.267-.021-15.556-4.303-4.291-11.268-4.279-15.557.022l-21.895 21.957h-62.367c-8.256 0-14.973-6.716-14.973-14.972s6.717-14.973 14.973-14.973h45.373c4.197 0 8.029-2.389 9.877-6.158l12.517-25.534c8.797-17.947 27.396-29.543 47.384-29.543 21.707 0 39.366 17.66 39.366 39.367v107.813z"/><path d="m139.634 97.778c2.148 2.148 4.963 3.222 7.778 3.222s5.63-1.074 7.778-3.222l9.722-9.722 9.722 9.722c2.148 2.148 4.963 3.222 7.778 3.222s5.63-1.074 7.778-3.222c4.296-4.296 4.296-11.261 0-15.557l-9.722-9.722 9.722-9.722c4.296-4.296 4.296-11.261 0-15.557-4.297-4.296-11.26-4.296-15.557 0l-9.722 9.722-9.722-9.722c-4.297-4.296-11.26-4.296-15.557 0-4.296 4.296-4.296 11.261 0 15.557l9.722 9.722-9.722 9.722c-4.294 4.297-4.294 11.261.002 15.557z"/><path d="m281.344 185.477c2.148 2.148 4.963 3.222 7.778 3.222s5.63-1.074 7.778-3.222l9.722-9.722 9.722 9.722c2.148 2.148 4.963 3.222 7.778 3.222s5.63-1.074 7.778-3.222c4.296-4.296 4.296-11.261 0-15.557l-9.722-9.722 9.722-9.722c4.296-4.296 4.296-11.261 0-15.557-4.297-4.296-11.26-4.296-15.557 0l-9.722 9.722-9.722-9.722c-4.297-4.296-11.26-4.296-15.557 0-4.296 4.296-4.296 11.261 0 15.557l9.722 9.722-9.722 9.722c-4.294 4.296-4.294 11.261.002 15.557z"/></g><g fill="#0496FF"><path d="m369.721 0h-227.442c-31.284 0-56.736 25.452-56.736 56.736v119.372c0 27.616 19.831 50.688 46.002 55.718v25.603c0 4.289 2.492 8.187 6.386 9.986 3.896 1.8 8.479 1.171 11.744-1.609l38.726-32.961h135.465l38.726 32.961c3.276 2.791 7.876 3.4 11.743 1.609 3.894-1.799 6.387-5.697 6.387-9.986v-25.655c26.039-5.135 45.736-28.143 45.736-55.666v-119.372c-.001-31.284-25.453-56.736-56.737-56.736zm34.736 176.108c0 19.154-15.583 34.736-34.736 34.736-6.075 0-11 4.925-11 11v11.777l-23.678-20.153c-1.99-1.693-4.518-2.624-7.13-2.624h-143.56c-2.612 0-5.141.93-7.13 2.624l-23.678 20.153v-11.778c-.001-6.075-4.925-10.999-11-10.999h-.266c-19.153 0-34.736-15.583-34.736-34.736v-119.372c0-19.154 15.583-34.736 34.736-34.736h227.441c19.153 0 34.736 15.583 34.736 34.736v119.372z"/><path d="m192.044 119.415c-19.102 0-34.642 15.541-34.642 34.642s15.54 34.642 34.642 34.642 34.642-15.54 34.642-34.642-15.54-34.642-34.642-34.642zm0 47.283c-6.971 0-12.642-5.671-12.642-12.642s5.671-12.642 12.642-12.642 12.642 5.671 12.642 12.642-5.671 12.642-12.642 12.642z"/><path d="m358.626 47.222c-4.297-4.296-11.26-4.296-15.557 0-4.296 4.296-4.296 11.261 0 15.557l2.074 2.074c-38.486 1.77-75.765 13.53-108.395 34.294-5.126 3.261-6.637 10.06-3.375 15.186 2.097 3.295 5.654 5.096 9.291 5.096 2.02 0 4.064-.556 5.895-1.721 28.943-18.417 61.948-28.974 96.052-30.808l-1.542 1.542c-4.296 4.296-4.296 11.261 0 15.557 2.148 2.148 4.963 3.222 7.778 3.222s5.63-1.074 7.778-3.222l20.609-20.609c4.296-4.296 4.296-11.261 0-15.557z"/></g></g><g/><g/><g/><g/><g/><g/><g/><g/><g/><g/><g/><g/><g/><g/><g/></svg>