<svg id="Capa_1" enable-background="new 0 0 512 512" viewBox="0 0 512 512" xmlns="http://www.w3.org/2000/svg" fill="#E6ECF2"><g><g><g><g><path d="m111.5 260.323h22v182.677h-22z" fill="#0496FF"/></g><g><path d="m111.5 135h22v62h-22z" fill="#0496FF"/></g><g><path d="m223 383h22v60h-22z" fill="#0496FF"/></g><g><path d="m223 135h22v124h-22z" fill="#0496FF"/></g><g><path d="m334.5 135h22v124h-22z" fill="#0496FF"/></g></g></g><g><path d="m345.5 248h-152.534v-51c0-6.075-4.925-11-11-11h-118.932c-6.075 0-11 4.925-11 11v62c0 6.075 4.925 11 11 11h92.471v51c0 6.075 4.925 11 11 11h56.495v51c0 6.075 4.925 11 11 11h68.619v-22h-57.619v-40h95.141l16.359-14.989v-58.011c0-6.075-4.925-11-11-11zm-271.466-40h96.932v40h-96.932zm260.466 102h-156.995v-40h156.995z"/><path d="m457 36h-78.5v-3c0-18.196-14.804-33-33-33s-33 14.804-33 33v3h-45.5v-3c0-18.196-14.804-33-33-33s-33 14.804-33 33v3h-45.5v-3c0-18.196-14.804-33-33-33s-33 14.804-33 33v3h-78.5c-6.075 0-11 4.925-11 11v398c0 6.075 4.925 11 11 11h300.183v-22h-289.183v-288h424v172.14h22v-271.14c0-6.075-4.925-11-11-11zm-122.5-3c0-6.065 4.935-11 11-11s11 4.935 11 11v28c0 6.065-4.935 11-11 11s-11-4.935-11-11zm-111.5 0c0-6.065 4.935-11 11-11s11 4.935 11 11v28c0 6.065-4.935 11-11 11s-11-4.935-11-11zm-111.5 0c0-6.065 4.935-11 11-11s11 4.935 11 11v28c0 6.065-4.935 11-11 11s-11-4.935-11-11zm-89.5 91v-66h67.5v3c0 18.196 14.804 33 33 33s33-14.804 33-33v-3h45.5v3c0 18.196 14.804 33 33 33s33-14.804 33-33v-3h45.5v3c0 18.196 14.804 33 33 33s33-14.804 33-33v-3h67.5v66z"/></g><g fill="#0496FF"><path d="m401 290c-61.206 0-111 49.794-111 111s49.794 111 111 111 111-49.794 111-111-49.794-111-111-111zm0 200c-49.075 0-89-39.925-89-89s39.925-89 89-89 89 39.925 89 89-39.925 89-89 89z"/><path d="m424.319 390h-12.319v-30.72c0-6.075-4.925-11-11-11s-11 4.925-11 11v41.72c0 6.075 4.925 11 11 11h23.319c6.075 0 11-4.925 11-11s-4.924-11-11-11z"/></g></g><g/><g/><g/><g/><g/><g/><g/><g/><g/><g/><g/><g/><g/><g/><g/></svg>