<svg id="Capa_1" enable-background="new 0 0 512.002 512.002" viewBox="0 0 512.002 512.002" xmlns="http://www.w3.org/2000/svg" fill="#052438"><g><g><path d="m151.584 292.336v-52.444c13.959-4.604 24.065-17.761 24.065-33.241 0-19.299-15.701-35-35-35s-35 15.701-35 35c0 15.432 10.044 28.554 23.935 33.197v52.489h22zm-10.935-98.686c7.168 0 13 5.832 13 13s-5.832 13-13 13-13-5.832-13-13 5.832-13 13-13z"/><path d="m398.034 297.381c-24.995 0-45.33 20.335-45.33 45.33s20.335 45.33 45.33 45.33 45.33-20.335 45.33-45.33-20.335-45.33-45.33-45.33zm0 68.66c-12.864 0-23.33-10.466-23.33-23.33s10.466-23.33 23.33-23.33 23.33 10.466 23.33 23.33-10.466 23.33-23.33 23.33z"/><path d="m400 490.001h-378v-468h291.884v75.116c0 6.075 4.925 11 11 11h75.116v129.886h22v-140.886c0-2.917-1.159-5.715-3.222-7.778l-86.115-86.116c-2.063-2.063-4.861-3.222-7.778-3.222h-313.885c-6.075 0-11 4.925-11 11v490c0 6.075 4.925 11 11 11h400c6.075 0 11-4.925 11-11v-52.955h-22zm-64.116-452.444 48.56 48.56h-48.56z"/><path d="m348.649 186.689h-72c-6.075 0-11 4.925-11 11s4.925 11 11 11h72c6.075 0 11-4.925 11-11s-4.924-11-11-11z"/><path d="m348.649 134.689h-72c-6.075 0-11 4.925-11 11s4.925 11 11 11h72c6.075 0 11-4.925 11-11s-4.924-11-11-11z"/><path d="m200.649 434.001h-120c-6.075 0-11 4.925-11 11s4.925 11 11 11h120c6.075 0 11-4.925 11-11s-4.924-11-11-11z"/><path d="m200.649 386.001h-120c-6.075 0-11 4.925-11 11s4.925 11 11 11h120c6.075 0 11-4.925 11-11s-4.924-11-11-11z"/></g><g fill="#0496FF"><path d="m138.614 122.025c-21.766.513-42.295 9.354-57.807 24.896s-24.314 36.088-24.787 57.854c-.585 26.991 11.285 52.003 32.565 68.623 5.79 4.522 9.111 11.212 9.111 18.357v.581.01 30.446c0 15.739 12.805 28.544 28.544 28.544h28.818c15.739 0 28.544-12.805 28.544-28.544v-30.456-.575c0-7.129 3.369-13.859 9.243-18.466 20.625-16.172 32.453-40.463 32.453-66.645 0-22.988-9.058-44.496-25.506-60.561-16.442-16.059-38.185-24.603-61.178-24.064zm16.445 207.311h-28.819c-3.608 0-6.544-2.936-6.544-6.544v-19.456h41.906v19.456c.001 3.608-2.935 6.544-6.543 6.544zm24.211-73.353c-8.366 6.561-14.074 15.472-16.439 25.353h-44.352c-2.351-9.889-8.028-18.775-16.353-25.276-15.756-12.305-24.544-30.823-24.111-50.807.349-16.078 6.87-31.275 18.363-42.79s26.676-18.065 42.753-18.444c17.046-.419 33.121 5.923 45.29 17.81 12.173 11.89 18.878 27.808 18.878 44.822 0 19.377-8.758 37.357-24.029 49.332z"/><path d="m140.584 100.001c6.075 0 11-4.925 11-11v-22c0-6.075-4.925-11-11-11s-11 4.925-11 11v22c0 6.075 4.925 11 11 11z"/><path d="m193.917 114.257c1.732 1 3.624 1.476 5.49 1.476 3.801 0 7.499-1.973 9.537-5.502l11-19.053c3.038-5.261 1.235-11.989-4.026-15.026-5.26-3.037-11.988-1.234-15.026 4.026l-11 19.053c-3.038 5.261-1.236 11.988 4.025 15.026z"/><path d="m72.224 110.23c2.038 3.529 5.735 5.502 9.537 5.502 1.866 0 3.758-.476 5.49-1.476 5.261-3.038 7.064-9.765 4.026-15.026l-11-19.053c-3.038-5.261-9.767-7.063-15.026-4.026-5.261 3.038-7.064 9.765-4.026 15.026z"/><path d="m506.5 359.422-9.614-5.55c.421-3.72.633-7.453.633-11.161s-.212-7.44-.633-11.161l9.614-5.55c5.261-3.038 7.064-9.765 4.026-15.026l-28.761-49.815c-1.459-2.526-3.861-4.37-6.68-5.125s-5.821-.359-8.347 1.099l-9.624 5.557c-6.015-4.454-12.477-8.19-19.321-11.172v-11.096c0-6.075-4.925-11-11-11h-57.521c-6.075 0-11 4.925-11 11v11.096c-6.845 2.982-13.306 6.718-19.32 11.172l-9.625-5.557c-2.526-1.458-5.528-1.854-8.347-1.099-2.818.755-5.221 2.599-6.679 5.125l-28.76 49.815c-3.038 5.261-1.235 11.989 4.026 15.026l9.614 5.55c-.421 3.72-.633 7.452-.633 11.161s.212 7.441.633 11.161l-9.614 5.55c-5.261 3.038-7.064 9.765-4.026 15.026l28.76 49.814c1.459 2.526 3.861 4.37 6.679 5.125 2.819.754 5.821.359 8.347-1.099l9.624-5.557c6.015 4.454 12.476 8.19 19.321 11.172v11.096c0 6.075 4.925 11 11 11h57.521c6.075 0 11-4.925 11-11v-11.096c6.845-2.982 13.306-6.718 19.321-11.172l9.624 5.557c2.526 1.458 5.528 1.854 8.347 1.099 2.818-.755 5.221-2.599 6.68-5.125l28.761-49.814c3.038-5.261 1.235-11.988-4.026-15.026zm-32.417-31.55c.953 4.916 1.436 9.909 1.436 14.839 0 4.931-.483 9.923-1.436 14.839-.893 4.607 1.235 9.272 5.299 11.619l6.591 3.806-17.761 30.762-6.611-3.817c-4.069-2.349-9.181-1.854-12.724 1.231-7.575 6.597-16.208 11.589-25.658 14.836-4.442 1.526-7.425 5.706-7.425 10.403v7.611h-35.521v-7.611c0-4.697-2.983-8.876-7.425-10.403-9.451-3.248-18.083-8.239-25.658-14.836-3.543-3.086-8.654-3.582-12.724-1.231l-6.612 3.817-17.76-30.762 6.591-3.806c4.064-2.347 6.192-7.012 5.299-11.619-.953-4.916-1.436-9.909-1.436-14.839s.483-9.923 1.436-14.839c.893-4.607-1.235-9.273-5.299-11.619l-6.591-3.806 17.76-30.762 6.612 3.817c4.069 2.349 9.181 1.854 12.724-1.231 7.575-6.597 16.208-11.588 25.658-14.836 4.442-1.527 7.425-5.706 7.425-10.403v-7.611h35.521v7.611c0 4.697 2.983 8.876 7.425 10.403 9.45 3.248 18.082 8.239 25.658 14.836 3.542 3.085 8.655 3.58 12.724 1.231l6.611-3.817 17.761 30.762-6.591 3.806c-4.064 2.346-6.192 7.012-5.299 11.619z"/></g></g><g/><g/><g/><g/><g/><g/><g/><g/><g/><g/><g/><g/><g/><g/><g/></svg>