<svg id="Layer_1" enable-background="new 0 0 512 512" viewBox="0 0 512 512" xmlns="http://www.w3.org/2000/svg" fill="#052438"><g><g><path d="m384.038 236.709-24.161-23.126c5.745-8.766 8.828-19.015 8.83-29.737.003-14.538-5.658-28.205-15.941-38.483l-89.563-89.518c-14.427-14.418-37.899-14.417-52.322 0-.02.02-.039.04-.059.06-5.699 5.714-9.583 12.535-11.205 19.57-11.41-1.919-23.562 1.515-32.352 10.301-6.99 6.987-10.84 16.275-10.842 26.155 0 .275.003.551.009.826-9.055.302-18.022 3.899-24.919 10.792-.022.022-.046.045-.068.069-3.685 3.7-6.492 8.042-8.316 12.772l-59.967-59.937c-14.392-14.385-37.787-14.416-52.22-.095l-.103.101c-6.989 6.988-10.839 16.278-10.839 26.159s3.85 19.172 10.84 26.159l111.195 111.138c-15.839 9.287-39.042 23.687-50.67 38.216-11.981 14.97-9.626 37.034 5.227 49.266 17.245 14.839 42.29 15.084 59.615.563 22.632-18.966 46.984-21.461 56.315-17.175 19.625 9.014 41.847 7.347 58.835-4.209l32.703 31.549c2.136 2.06 19.647-11.615 15.275-15.833l-39.767-38.363c-4.32-4.167-11.179-4.102-15.42.143l-.458.458c-.876.875-1.885 1.755-2.999 2.616-10.792 8.338-25.731 9.737-38.986 3.647-17.786-8.168-50.848-3.817-79.63 20.306-9.042 7.579-22.163 7.395-31.199-.434-.082-.071-.165-.142-.25-.21-5.656-4.613-6.592-12.947-2.086-18.577 10.705-13.375 37.776-29.04 50.786-36.568 2.682-1.552 4.8-2.777 6.337-3.723 2.867-1.764 4.769-4.744 5.16-8.087.393-3.343-.768-6.682-3.148-9.062l-121.282-121.22c-2.833-2.832-4.393-6.596-4.393-10.6 0-3.974 1.537-7.712 4.331-10.537l.069-.069c5.848-5.845 15.361-5.845 21.209 0l83.896 83.854c4.298 4.294 11.261 4.293 15.557-.004 4.295-4.297 4.293-11.262-.004-15.557l-.026-.026c-2.815-2.827-4.365-6.579-4.365-10.569 0-4.002 1.56-7.765 4.392-10.595.016-.015.03-.031.046-.046 5.845-5.798 15.311-5.794 21.149.011l.03.03c4.298 4.294 11.262 4.291 15.556-.006s4.291-11.261-.005-15.556c-.001-.001-.001 0-.002-.001l-1.021-1.021c-2.83-2.829-4.389-6.59-4.388-10.592 0-4.003 1.562-7.767 4.395-10.599 5.851-5.848 15.369-5.853 21.218-.006l4.49 4.489c.001 0 .002.001.002.002 4.298 4.294 11.262 4.292 15.556-.003 4.295-4.296 4.294-11.26-.001-15.556l-.002-.001c-2.503-2.501-3.572-5.238-3.27-8.365.336-3.476 2.33-7.199 5.615-10.482.016-.016.032-.033.049-.049 5.852-5.805 15.339-5.791 21.175.042l89.563 89.518c6.124 6.121 9.496 14.26 9.494 22.918-.001 8.66-3.377 16.802-9.506 22.927-2.093 2.092-3.255 4.94-3.223 7.899.031 2.959 1.255 5.781 3.393 7.827l31.454 30.107c4.389 4.202 19.601-11.692 15.212-15.893z"/><g fill="#0496FF"><path d="m508.776 328.812-103.677-103.625c-4.295-4.293-11.258-4.293-15.553 0l-119.437 119.376c-2.063 2.063-3.224 4.862-3.224 7.78s1.16 5.717 3.224 7.78l103.678 103.625c2.147 2.146 4.962 3.22 7.776 3.22s5.629-1.073 7.776-3.22l119.437-119.376c2.063-2.063 3.224-4.862 3.224-7.78s-1.16-5.717-3.224-7.78zm-127.213 111.604-88.117-88.073 103.876-103.823 88.117 88.073z"/><path d="m348.945 329.825-14.228 14.22c-4.297 4.295-4.299 11.26-.004 15.557 2.148 2.149 4.964 3.224 7.78 3.224 2.814 0 5.629-1.073 7.776-3.22l14.228-14.22c4.297-4.295 4.299-11.26.004-15.557-4.294-4.296-11.259-4.298-15.556-.004z"/></g></g></g><g/><g/><g/><g/><g/><g/><g/><g/><g/><g/><g/><g/><g/><g/><g/></svg>