<svg id="Layer_1" enable-background="new 0 0 512 512" viewBox="0 0 512 512" xmlns="http://www.w3.org/2000/svg" fill="#052438"><g><g><path d="m377.09 290.204h-45.439c-6.075 0-11 4.925-11 11v16.167c0 25.06-20.415 45.447-45.509 45.447h-114.098c2.194-15.812 15.819-28.024 32.248-28.024h57.733c6.075 0 11-4.925 11-11v-14.204c0-26.237 21.374-47.583 47.646-47.583 6.075 0 11-4.925 11-11s-4.925-11-11-11c-38.403 0-69.647 31.215-69.647 69.583v3.203l-193.571.391h-.035c-3.255 0-6.317-1.261-8.625-3.554-2.313-2.297-3.592-5.356-3.601-8.613s1.253-6.323 3.553-8.633c2.302-2.312 5.367-3.591 8.634-3.601l130.454-.358c6.075-.017 10.986-4.955 10.97-11.03-.017-6.065-4.938-10.97-11-10.97h-.031l-142.517.391h-.034c-6.724 0-12.203-5.449-12.222-12.172-.009-3.255 1.252-6.32 3.552-8.63 2.303-2.313 5.37-3.591 8.637-3.6l124.016-.34c9.138-.025 17.72-3.605 24.165-10.081 6.447-6.478 9.984-15.077 9.959-24.215-.032-11.386-5.655-21.474-14.259-27.671 3.596-5.519 5.516-11.967 5.498-18.713-.012-4.302-.823-8.419-2.291-12.211h121.502c15.325 0 27.794 12.456 27.794 27.767 0 6.075 4.925 11 11 11h35.518c6.075 0 11-4.925 11-11s-4.925-11-11-11h-25.743c-5.023-22.167-24.893-38.767-48.568-38.767l-172.707.161c-9.139.025-17.721 3.604-24.167 10.078-6.448 6.477-9.986 15.076-9.961 24.222.019 6.879 2.08 13.284 5.606 18.644-1.463 1.066-2.852 2.256-4.153 3.563-6.447 6.478-9.984 15.078-9.959 24.214.012 4.297.819 8.407 2.283 12.195l-55.592.152c-9.139.025-17.721 3.604-24.167 10.078-6.449 6.478-9.987 15.076-9.962 24.222.034 12.43 6.735 23.313 16.703 29.273-2.958 5.145-4.526 10.999-4.51 17.092.025 9.138 3.61 17.718 10.096 24.161 6.459 6.417 15.023 9.946 24.127 9.946h.098l102.93-.282c-6.726 9.063-10.709 20.275-10.709 32.399v6.516c0 6.075 4.925 11 11 11h125.407c37.225 0 67.509-30.256 67.509-67.447v-5.167h34.439c6.075 0 11-4.925 11-11s-4.925-10.999-11-10.999zm-210.313-73.732c-2.301 2.313-5.367 3.591-8.632 3.6l-36.491.1c-6.721-.001-12.197-5.452-12.216-12.168-.009-3.257 1.252-6.324 3.552-8.634 2.302-2.313 5.367-3.591 8.632-3.6l27.776-.076h.011.031.034l8.603-.024h.034c6.721 0 12.199 5.452 12.217 12.168.01 3.257-1.252 6.324-3.551 8.634zm-45.282-63.528c2.303-2.313 5.37-3.591 8.637-3.6l19.18-.053h.034c6.724 0 12.203 5.45 12.222 12.172.009 3.256-1.252 6.321-3.552 8.63-2.299 2.308-5.359 3.587-8.62 3.6l-19.155.053c-.004 0-.007 0-.011 0h-.065c-6.724 0-12.203-5.449-12.222-12.172-.008-3.256 1.253-6.321 3.552-8.63z"/><g fill="#0496FF"><path d="m501 144.552h-114.729c-6.075 0-11 4.925-11 11v160.561c0 6.075 4.925 11 11 11h114.729c6.075 0 11-4.925 11-11v-160.561c0-6.075-4.925-11-11-11zm-11 160.56h-92.729v-138.56h92.729z"/><path d="m426.747 286.026c6.075 0 11-4.925 11-11v-17.952c0-6.075-4.925-11-11-11s-11 4.925-11 11v17.952c0 6.075 4.925 11 11 11z"/></g></g></g><g/><g/><g/><g/><g/><g/><g/><g/><g/><g/><g/><g/><g/><g/><g/></svg>