<svg id="Layer_1" enable-background="new 0 0 512 512" viewBox="0 0 512 512" xmlns="http://www.w3.org/2000/svg" fill="#052438"><g><g><path d="m251.85 22c18.743 0 37.189 2.922 54.828 8.686 1.135.371 2.286.547 3.418.547 4.63 0 8.938-2.947 10.454-7.586 1.887-5.775-1.265-11.986-7.04-13.873-19.847-6.486-40.593-9.774-61.66-9.774-6.075 0-11 4.925-11 11s4.925 11 11 11z"/><path d="m467.166 173.67c-4.296-4.296-11.261-4.297-15.557-.001l-2.643 2.643c-2.722-24.353-9.928-48.125-21.236-69.752-2.815-5.384-9.462-7.466-14.845-4.651-5.384 2.815-7.466 9.461-4.651 14.845 9.205 17.605 15.351 36.815 18.177 56.562-4.317-3.937-11.011-3.82-15.185.355-4.295 4.296-4.295 11.261.001 15.557l20.191 20.189c2.148 2.147 4.963 3.221 7.778 3.221s5.63-1.074 7.778-3.221l20.191-20.189c4.296-4.297 4.296-11.261.001-15.558z"/><path d="m347.671 170.817c-5.523-5.523-12.171-9.249-19.214-11.176l86.911-86.906c7.494-7.494 11.735-17.906 11.634-28.567-.1-10.551-4.272-20.327-11.75-27.526-15.195-14.629-39.684-14.405-54.589.499l-113.216 113.21c-.123-3.296-.38-6.297-.834-8.614-4.988-25.412-20.881-40.592-42.514-40.607h-.028c-11.399 0-22.114 4.437-30.171 12.494-8.063 8.063-12.5 18.788-12.493 30.196 0 .198.005.396.017.593l4.762 87.219c-21.19 22.158-23.991 55.739-7.843 80.927l-11.837 11.836c-4.296 4.295 11.26 19.852 15.556 15.557l18.601-18.6c4.125-4.125 4.313-10.751.429-15.103-15.454-17.314-14.71-43.725 1.693-60.127.27-.269.524-.552.764-.848l2.4-2.958c1.72-2.12 2.59-4.804 2.441-7.53l-4.982-91.245c.064-5.428 2.206-10.519 6.048-14.361 3.902-3.902 9.092-6.05 14.615-6.05h.014c13.604.009 18.896 12.428 20.941 22.844 1.009 5.144.351 21.189-.44 30.94-.373 4.596 2.161 8.938 6.347 10.873s9.134 1.055 12.395-2.205l132.89-132.885c6.489-6.488 17.154-6.582 23.775-.207 3.187 3.068 4.966 7.289 5.009 11.885.045 4.792-1.846 9.459-5.19 12.803l-113.615 113.609c-4.296 4.295-4.296 11.26 0 15.556 4.295 4.296 11.261 4.295 15.556 0 8.363-8.362 21.983-8.348 30.363.03l58.313 58.309c7.94 7.939 12.316 18.49 12.324 29.709.007 11.213-4.352 21.752-12.275 29.674l-64.872 64.869c-15.88 15.878-41.021 17.209-58.484 3.093-4.375-3.537-10.714-3.202-14.693.776l-18.756 18.754c-4.296 4.296 13.408 17.705 15.556 15.557l12.291-12.289c25.455 14.9 58.18 11.128 79.643-10.334l64.872-64.869c12.083-12.081 18.73-28.15 18.719-45.245-.011-17.09-6.677-33.161-18.769-45.251z"/></g><g fill="#0496FF"><path d="m262.458 409.708-118.55-118.543c-4.296-4.296-11.26-4.296-15.556 0l-83.518 83.513c-2.063 2.063-3.222 4.861-3.222 7.778s1.159 5.715 3.222 7.778l118.55 118.543c2.148 2.148 4.963 3.222 7.778 3.222s5.63-1.074 7.778-3.222l83.518-83.513c2.063-2.063 3.222-4.861 3.222-7.778s-1.159-5.715-3.222-7.778zm-91.295 75.736-102.994-102.987 67.961-67.957 102.994 102.987z"/><path d="m125.7 355.324c-4.296 4.296-4.295 11.261 0 15.556l15.522 15.521c2.148 2.148 4.963 3.222 7.778 3.222s5.63-1.074 7.778-3.222c4.296-4.296 4.295-11.261 0-15.556l-15.522-15.521c-4.296-4.297-11.26-4.296-15.556 0z"/></g></g><g/><g/><g/><g/><g/><g/><g/><g/><g/><g/><g/><g/><g/><g/><g/></svg>