<svg id="Layer_1" enable-background="new 0 0 512 512" viewBox="0 0 512 512" xmlns="http://www.w3.org/2000/svg" fill="#E6ECF2"><g><g><path d="m359.844 189.499c-7.36-7.812-16.742-13.006-26.991-15.057v-42.145c0-6.075-22-6.075-22 0v52.152c0 6.075 4.925 11 11 11h.612c.491 0 .982.009 1.475.027 15.494.567 28.1 13.933 28.1 29.793v58.833c0 16.458-13.432 29.848-29.941 29.848h-69.291c-8.776 0-15.917-7.112-15.917-15.855s7.14-15.855 15.917-15.855h43.81c14.316 0 25.963-11.632 25.963-25.93v-9.006c0-6.075-4.925-11-11-11s-11 4.925-11 11v9.006c0 2.167-1.777 3.93-3.963 3.93h-43.81c-13.579 0-25.513 7.163-32.211 17.904-11.514.28-21.674 6.111-27.89 14.908-5.6-3.76-12.339-5.957-19.582-5.957-4.652 0-9.095.907-13.163 2.552v-64.977c0-16.141 13.18-29.273 29.381-29.273 6.075 0 11-4.925 11-11v-51.105c0-6.075-22-6.075-22 0v41.288c-23.063 5.04-40.381 25.585-40.381 50.09v133.841c0 19.358 15.774 35.107 35.172 35.107 8.635 0 16.554-3.124 22.681-8.299 6.421 6.835 15.544 11.112 25.65 11.112 4.653 0 9.098-.907 13.167-2.553v83.007c0 19.361 15.776 35.112 35.168 35.112 14.182 0 26.43-8.425 31.987-20.526 4.887 2.572 10.45 4.029 16.348 4.029 19.392 0 35.167-15.747 35.167-35.103v-134.868c12.587-9.47 20.738-24.515 20.738-41.425v-58.833c-.001-13.352-5.042-26.056-14.196-35.772zm-186.72 182.122c-7.258 0-13.163-5.88-13.163-13.107v-36.31c0-7.228 5.905-13.107 13.172-13.107 7.258 0 13.163 5.88 13.163 13.107v36.31c0 7.227-5.905 13.107-13.172 13.107zm48.339 2.813c-7.26 0-13.167-5.878-13.167-13.103v-48.094c0-4.917 2.736-9.211 6.773-11.451 1.24 12.739 8.83 23.649 19.561 29.526v30.02c.001 7.224-5.906 13.102-13.167 13.102zm61.503 102.454c0 7.23-5.906 13.112-13.167 13.112s-13.168-5.882-13.168-13.112v-140.936h26.335zm48.335-16.488c0 7.225-5.906 13.103-13.167 13.103s-13.168-5.878-13.168-13.103v-124.448h17.132c3.14 0 6.215-.28 9.203-.815z"/><g fill="#0496FF"><path d="m272.803 96.729h18.699c6.075 0 11-4.925 11-11s-4.925-11-11-11h-18.699c-6.075 0-11 4.925-11 11s4.925 11 11 11z"/><path d="m334.301 0h-156.975c-6.075 0-11 4.925-11 11v116.748c0 6.075 4.925 11 11 11h156.975c6.075 0 11-4.925 11-11v-116.748c0-6.075-4.925-11-11-11zm-11 116.748h-134.975v-94.748h134.975z"/></g></g></g><g/><g/><g/><g/><g/><g/><g/><g/><g/><g/><g/><g/><g/><g/><g/></svg>