<svg id="Layer_1" enable-background="new 0 0 512 512" viewBox="0 0 512 512" xmlns="http://www.w3.org/2000/svg" fill="#052438"><g><g><path d="m361.125 314.262h-46.77c-6.075 0-11 4.925-11 11v9.69c.001 8.544-2.817 14.453-8.871 18.594-6.122 4.188-15.375 6.401-26.762 6.401h-.013l-93.023-.019c-9.335-.001-16.932-7.608-16.933-16.967 0-5.188 1.381-9.724 3.889-12.771 2.312-2.809 5.409-4.174 9.468-4.174h.003.002c6.074 0 10.999-4.924 11-10.998.001-6.075-4.922-11-10.998-11.002l-6.826-.001c-9.333-.001-16.927-7.61-16.928-16.962 0-4.531 1.76-8.79 4.958-11.992 3.194-3.198 7.44-4.958 11.956-4.958h.004c6.075 0 11-4.924 11-10.999s-4.923-11-10.998-11.001c-.003 0-.003 0-.007 0h-9.138c-9.335-.001-16.932-7.608-16.933-16.967 0-4.529 1.76-8.786 4.958-11.986 3.195-3.198 7.443-4.959 11.972-4.959h.002l22.346-.018c6.075-.005 10.996-4.934 10.991-11.009-.005-6.072-4.929-10.991-11-10.991h-.009-138.537c-9.333-.001-16.927-7.605-16.928-16.961 0-4.53 1.761-8.789 4.96-11.99 3.196-3.199 7.445-4.96 11.965-4.96h.002l172.788.026h.002c1.021 0 2.036-.142 3.017-.422 30.483-8.694 54.913-7.63 72.607 3.164 20.858 12.723 25.619 35.453 25.653 35.622.979 5.198 5.52 8.963 10.81 8.963h37.959c6.075 0 6.075-22 0-22h-29.758c-3.917-10.788-13.074-28.93-32.843-41.142-22.88-14.134-52.805-16.212-88.962-6.185l-171.27-.026h-.005c-10.4 0-20.176 4.052-27.528 11.411-7.351 7.355-11.398 17.136-11.397 27.551.003 21.473 17.464 38.945 38.926 38.948h81.142c-2.529 5.224-3.864 10.996-3.864 16.978.002 13.402 6.806 25.248 17.138 32.259-5.178 6.758-7.981 14.987-7.979 23.647.001 13.368 6.767 25.186 17.049 32.205-4.316 6.583-6.66 14.857-6.659 23.714.003 21.476 17.467 38.95 38.929 38.953l93.023.019h.016c15.838 0 29.389-3.542 39.185-10.244 11.736-8.028 18.092-20.263 18.435-35.441h35.785c6.075 0 6.075-22-.001-22z"/><g fill="#0496FF"><path d="m511.974 179.179c-.001-6.074-4.924-10.998-10.998-10.999l-132.885-.022c-.001 0-.001 0-.002 0-2.917 0-5.715 1.159-7.778 3.222s-3.222 4.862-3.222 7.78l.025 170.874c.001 6.074 4.924 10.998 10.998 10.999l132.886.022h.002c2.917 0 5.715-1.159 7.778-3.222s3.222-4.862 3.222-7.78zm-132.861 159.855-.023-148.874 110.885.018.023 148.875z"/><path d="m420.282 213.789c-6.075.001-11 4.926-10.999 11.001l.003 21.51c.001 6.075 4.926 11 11.001 10.999s11-4.926 10.999-11.001l-.003-21.51c-.001-6.075-4.926-11-11.001-10.999z"/></g></g></g><g/><g/><g/><g/><g/><g/><g/><g/><g/><g/><g/><g/><g/><g/><g/></svg>