<svg id="Layer_1" enable-background="new 0 0 512 512" viewBox="0 0 512 512" xmlns="http://www.w3.org/2000/svg" fill="#052438"><g><g><path d="m512 112.178c-.016-10.088-3.957-19.576-11.098-26.717-4.815-4.815-10.613-8.061-16.751-9.737 5.617-13.686 2.865-30.04-8.249-41.155-14.75-14.75-38.728-14.772-53.452-.051l-66.441 66.441c-1.834-4.981-4.749-9.652-8.743-13.646-7.98-7.979-18.658-11.649-29.11-11.008-.494-9.341-4.37-18.058-11.039-24.727-.022-.022-.045-.045-.068-.067-14.754-14.689-38.683-14.691-53.384.009l-105.032 105.031c-10.523 10.523-16.308 24.526-16.284 39.427.017 11.158 3.288 21.818 9.362 30.896l-33.086 33.086c-4.296 4.296 13.408 17.705 15.557 15.557l40.104-40.104c4.296-4.296 4.296-11.261 0-15.556-6.395-6.395-9.924-14.887-9.938-23.912-.014-9.012 3.48-17.478 9.841-23.837l52.292-52.292c1.824 4.953 4.717 9.6 8.678 13.58.023.023.047.046.069.07 5.812 5.812 13.055 9.336 20.601 10.573-2.445 11.946.922 24.865 10.092 34.183-.803 3.227-1.215 6.576-1.21 9.989.015 10.904 4.273 21.16 11.991 28.878l34.394 34.393c1.064 1.064 1.651 2.476 1.653 3.974.001.862-.208 2.519-1.622 3.933l-7.067 7.068c-4.296 4.296-4.296 11.261 0 15.556 4.297 4.296 11.262 4.295 15.557 0l7.067-7.067c5.211-5.211 8.075-12.143 8.065-19.518-.01-7.365-2.885-14.291-8.097-19.502l-34.394-34.393c-3.57-3.571-5.541-8.313-5.548-13.352-.007-5.028 1.943-9.75 5.491-13.298 7.332-7.332 19.287-7.306 26.649.057l54.397 54.397c13.434 13.434 13.473 35.253.087 48.64l-46.17 46.169c-12.899 12.899-34.039 13.504-47.122 1.346-.408-.379-.81-.767-1.212-1.169l-.48-.48c-4.296-4.292-11.259-4.291-15.553.004l-40.927 40.926c-4.296 4.296 13.409 17.704 15.557 15.557l33.779-33.779c9.617 6.665 21.139 10.092 33.115 9.728 14.503-.429 28.14-6.315 38.399-16.575l46.17-46.169c13.143-13.143 18.407-31.233 15.798-48.359l106.269-106.268c7.139-7.138 11.059-16.63 11.043-26.73zm-73.994-62.103c6.147-6.144 16.169-6.122 22.34.051 6.173 6.173 6.195 16.194.051 22.338l-111.454 111.452-22.389-22.389 20.766-20.766c.001-.001.003-.003.004-.004.003-.003.006-.006.008-.009zm-197.228 67.826c-6.158-6.158-6.194-16.147-.09-22.292l28.532-28.532c6.144-6.144 16.16-6.12 22.331.051.016.016.032.032.049.048 2.968 2.988 4.604 6.946 4.609 11.15.006 4.212-1.628 8.168-4.6 11.14l-28.475 28.475c-.006.006-.013.012-.019.019-6.131 6.13-16.117 6.12-22.289-.009-.015-.018-.031-.034-.048-.05zm27.495 39.885c-2.396-5.737-1.277-12.593 3.364-17.234l37.741-37.741c6.142-6.141 16.158-6.115 22.331.058s6.199 16.19.059 22.331c-.001.001-.003.003-.004.004l-24.064 24.064c-13.365-4.164-28.449-1.327-39.427 8.518zm217.131-34.438-99.336 99.334c-2.073-3.149-4.493-6.135-7.262-8.903l-14.306-14.306 98.512-98.512c.001-.001.001-.001.002-.002 6.14-6.142 16.158-6.114 22.331.059 2.995 2.995 4.647 6.97 4.654 11.194.008 4.211-1.624 8.166-4.595 11.136z"/><path d="m233.632 378.113-123.236-123.234c-4.297-4.296-11.26-4.296-15.557 0l-91.617 91.617c-2.063 2.063-3.222 4.861-3.222 7.779s1.159 5.715 3.222 7.778l123.235 123.234c2.148 2.148 4.963 3.222 7.778 3.222s5.63-1.074 7.778-3.222l91.618-91.617c2.063-2.063 3.222-4.861 3.222-7.778s-1.159-5.716-3.221-7.779zm-99.397 83.839-107.678-107.677 76.062-76.062 107.679 107.678z" fill="#0496FF"/><g><path d="m159.279 396.268c-2.815 0-5.63-1.074-7.778-3.222l-14.68-14.68c-4.296-4.295-4.296-11.26 0-15.556 4.296-4.295 11.261-4.296 15.557 0l14.68 14.68c4.296 4.295 4.296 11.26 0 15.556-2.148 2.148-4.964 3.222-7.779 3.222z" fill="#0496FF"/></g></g></g><g/><g/><g/><g/><g/><g/><g/><g/><g/><g/><g/><g/><g/><g/><g/></svg>