<svg id="Layer_1" enable-background="new 0 0 512 512" viewBox="0 0 512 512" xmlns="http://www.w3.org/2000/svg" fill="#052438"><g><g><path d="m456.037 54.764-68.861-47.715c-3.363-2.33-7.741-2.601-11.368-.703-3.625 1.899-5.896 5.653-5.896 9.745l.001 12.775-40.781-.001c-2.917 0-5.715 1.159-7.778 3.222s-3.222 4.861-3.222 7.778l.001 47.875c0 6.075 4.925 11 11 11l40.781.001v12.776c0 4.092 2.271 7.846 5.896 9.745 1.604.84 3.356 1.255 5.103 1.255 2.2 0 4.391-.659 6.266-1.958l68.859-47.712c2.966-2.055 4.735-5.434 4.735-9.042s-1.77-6.987-4.736-9.041zm-64.124 35.749v-2.771c0-6.075-4.925-11-11-11l-40.781-.001-.001-25.875 40.781.001c2.917 0 5.716-1.159 7.778-3.222 2.063-2.063 3.222-4.861 3.222-7.779v-2.77l38.547 26.709z"/><path d="m64.951 98.74 40.781.001.001 12.777c0 4.092 2.271 7.846 5.896 9.744 1.604.84 3.356 1.255 5.103 1.255 2.2 0 4.391-.659 6.266-1.958l68.859-47.712c2.966-2.055 4.735-5.434 4.735-9.042s-1.77-6.987-4.735-9.042l-68.862-47.714c-3.363-2.33-7.741-2.601-11.368-.703-3.625 1.899-5.896 5.653-5.896 9.745l.001 12.775-40.782-.001c-2.917 0-5.715 1.159-7.778 3.222s-3.222 4.861-3.222 7.778l.001 47.875c0 6.075 4.925 11 11 11zm51.78-47.874c2.917 0 5.716-1.159 7.778-3.222 2.063-2.063 3.222-4.861 3.222-7.779v-2.771l38.548 26.71-38.547 26.708v-2.772c0-6.075-4.925-11-11-11h-40.781l-.001-25.875z"/><path d="m292.381 38.375c.001-10.252-3.991-19.891-11.243-27.139-7.249-7.246-16.887-11.236-27.15-11.236h-.005c-21.16.003-38.378 17.214-38.382 38.37v88.935c-5.061-2.393-10.634-3.654-16.404-3.654h-.005c-13.124.001-24.732 6.624-31.658 16.699-6.623-5.012-14.657-7.723-23.109-7.723h-.006c-13.097.001-24.683 6.59-31.614 16.626-6.454-4.176-14.529-6.442-23.164-6.442h-.008c-21.164.003-38.384 17.217-38.387 38.373l-.019 91.17c-.002 15.574 3.481 28.901 10.073 38.542 8.004 11.704 20.246 17.977 35.442 18.174l-.754 34.603c-.133 6.074 21.864 6.471 21.994.479l.999-45.838c.064-2.958-1.065-5.818-3.135-7.933-2.069-2.115-4.903-3.307-7.862-3.307h-10.497c-8.286 0-14.016-2.732-18.026-8.598-4.08-5.966-6.235-14.998-6.233-26.119l.019-91.17c.001-9.029 7.354-16.375 16.4-16.376h.004c5.028 0 9.42 1.335 12.365 3.76 2.698 2.223 4.011 5.204 4.01 9.115-.001 6.075 4.922 11 10.997 11.001h.003c6.072 0 10.997-4.922 11-10.995l.001-6.693c.001-9.026 7.355-16.371 16.396-16.372 4.379 0 8.495 1.702 11.59 4.794 3.092 3.089 4.795 7.197 4.794 11.567v.001c0 6.075 4.925 11 10.999 11h.001c6.074 0 10.999-4.924 11-10.999v-8.962c.001-9.029 7.354-16.376 16.399-16.377 4.377 0 8.491 1.702 11.585 4.794 3.093 3.091 4.795 7.2 4.794 11.583l.018 21.901c.005 6.072 4.929 10.991 11 10.991h.009c6.075-.005 10.996-4.934 10.991-11.009l-.013-16.402c.009-.177.013-.356.013-.535v-128.602c.002-9.026 7.352-16.371 16.395-16.372 4.379 0 8.494 1.703 11.589 4.796 3.093 3.092 4.797 7.203 4.796 11.576l-.025 179.106c0 1.021.142 2.036.422 3.018 8.501 29.817 7.466 53.702-3.077 70.991-12.411 20.353-34.588 25.004-34.75 25.038-5.084.958-8.813 5.331-8.958 10.502l-1.039 37.203c-.169 6.073 21.825 6.582 21.992.614l.816-29.238c10.591-3.834 28.469-12.83 40.496-32.298 13.882-22.473 15.932-51.852 6.098-87.344z"/></g><g fill="#0496FF"><path d="m257.907 362.958c-2.063-2.063-4.862-3.222-7.78-3.222l-167.411.025c-6.073.001-10.997 4.924-10.998 10.998l-.021 130.238c0 2.918 1.158 5.717 3.222 7.78 2.063 2.063 4.862 3.222 7.78 3.222l167.411-.025c6.073-.001 10.997-4.924 10.998-10.998l.021-130.239c.001-2.917-1.158-5.716-3.222-7.779zm-18.798 127.019-145.411.022.018-108.238 145.411-.022z"/><path d="m184.351 432.894 21.074-.003c6.074-.001 10.999-4.926 10.998-11.001s-4.927-11-11.002-10.999l-21.074.003c-6.074.001-10.999 4.926-10.998 11.001s4.926 11 11.002 10.999z"/></g></g><g/><g/><g/><g/><g/><g/><g/><g/><g/><g/><g/><g/><g/><g/><g/></svg>