<svg id="Capa_1" enable-background="new 0 0 512 512" viewBox="0 0 512 512" xmlns="http://www.w3.org/2000/svg" fill="#E6ECF2"><g><g fill="#0496FF"><path d="m345.026 209.097c-2.648-2.085-6.106-2.84-9.386-2.05l-54.957 13.267c-6.886-5.162-15.433-8.224-24.682-8.224s-17.796 3.061-24.682 8.224l-54.957-13.267c-3.279-.792-6.737-.036-9.386 2.05-2.649 2.085-4.195 5.271-4.195 8.643v71.162c0 3.372 1.546 6.557 4.195 8.643 1.959 1.542 4.361 2.357 6.805 2.357.861 0 1.727-.101 2.581-.307l54.957-13.267c4.051 3.037 8.677 5.346 13.682 6.733v80.144h22v-80.145c5.005-1.387 9.632-3.696 13.682-6.733l54.957 13.267c.854.206 1.72.307 2.581.307 2.444 0 4.846-.815 6.805-2.357 2.649-2.085 4.195-5.271 4.195-8.643v-71.161c0-3.372-1.546-6.557-4.195-8.643zm-160.247 22.614 32.365 7.813c-1.537 4.315-2.374 8.96-2.374 13.796s.838 9.48 2.374 13.796l-32.365 7.813zm71.221 40.84c-10.604 0-19.23-8.626-19.23-19.23s8.627-19.23 19.23-19.23 19.23 8.627 19.23 19.23-8.626 19.23-19.23 19.23zm71.221 2.379-32.365-7.813c1.537-4.315 2.374-8.959 2.374-13.796 0-4.836-.838-9.481-2.374-13.796l32.365-7.813z"/><path d="m501 264.797h-48.64c-6.075 0-11 4.925-11 11s4.925 11 11 11h48.64c6.075 0 11-4.925 11-11s-4.925-11-11-11z"/><path d="m421.463 94.777-34.394 34.394c-4.295 4.296-4.295 11.261 0 15.557 2.148 2.148 4.963 3.222 7.778 3.222s5.63-1.074 7.778-3.222l34.394-34.394c4.295-4.296 4.295-11.261 0-15.557s-11.26-4.296-15.556 0z"/><path d="m256.001 90.437c6.075 0 11-4.925 11-11v-48.641c0-6.075-4.925-11-11-11s-11 4.925-11 11v48.641c0 6.075 4.925 11 11 11z"/><path d="m90.538 94.776c-4.296-4.296-11.261-4.296-15.557 0-4.295 4.296-4.295 11.261 0 15.557l34.394 34.394c2.148 2.148 4.963 3.222 7.778 3.222s5.63-1.074 7.778-3.222c4.295-4.296 4.295-11.261 0-15.557z"/><path d="m59.64 264.795h-48.64c-6.075 0-11 4.925-11 11s4.925 11 11 11h48.64c6.075 0 11-4.925 11-11s-4.925-11-11-11z"/></g><path d="m471.137 426.204h-13.585v-23c0-21.663-16.889-39.456-38.191-40.904v-86.503c0-90.077-73.283-163.359-163.36-163.359s-163.361 73.282-163.361 163.359v86.503c-21.302 1.448-38.191 19.241-38.191 40.904v23h-13.586c-6.075 0-11 4.925-11 11v44c0 6.075 4.925 11 11 11h430.273c6.075 0 11-4.925 11-11v-44c.001-6.075-4.924-11-10.999-11zm-215.137-291.766c77.946 0 141.36 63.414 141.36 141.359v86.407h-282.72v-86.407c0-77.946 63.414-141.359 141.36-141.359zm-179.551 268.766c0-10.477 8.523-19 19-19h321.103c10.477 0 19 8.523 19 19v23h-359.103zm383.688 67h-408.274v-22h408.273v22z"/></g><g/><g/><g/><g/><g/><g/><g/><g/><g/><g/><g/><g/><g/><g/><g/></svg>