<svg id="Capa_1" enable-background="new 0 0 512 512" viewBox="0 0 512 512" xmlns="http://www.w3.org/2000/svg" fill="#052438"><g><g fill="#0496FF"><path d="m48.233 284.39 20.763 7.274c4.577-13.065 16.954-21.844 30.798-21.844h56.913v-22h-56.913c-23.177 0-43.898 14.697-51.561 36.57z"/><path d="m501 130.083h-20c-6.075 0-11 4.925-11 11s4.925 11 11 11h20c6.075 0 11-4.925 11-11s-4.925-11-11-11z"/><path d="m202.194 238.99-2.958-.997c-9.956-3.354-16.645-12.667-16.645-23.173 0-6.075-22-6.075-22 0 0 19.958 12.707 37.648 31.619 44.021l2.957.997c1.165.393 2.35.579 3.515.579 4.591 0 8.875-2.897 10.422-7.489 1.941-5.757-1.153-11.997-6.91-13.938z"/><path d="m84.872 111.346h22v59.475h-22z"/><path d="m128.872 111.346h22v59.475h-22z"/><path d="m172.872 111.346h22v59.475h-22z"/><path d="m341.367 170.82h22v44h-22z"/></g><path d="m479 100.346h-416c-4.152 0-7.951 2.338-9.821 6.046l-27.346 54.212c-14.763 3.281-25.833 16.48-25.833 32.216 0 16.442 12.088 30.114 27.843 32.597l21.809 23.373c4.755 5.096 6.338 12.369 4.13 18.981l-30.022 89.895c-4.227 12.656-2.178 26.125 5.621 36.951 7.799 10.827 19.924 17.037 33.268 17.037h50.25c18.765 0 34.031-15.266 34.031-34.031 0-9.364-3.79-18.173-10.487-24.575l18.84-55.691h49.396c19.528 0 36.445-13.906 40.225-33.064l7.59-38.472h194.506c5.136 0 9.588-3.554 10.727-8.562l8.054-35.438h13.219c6.075 0 11-4.925 11-11v-59.475c0-6.075-4.925-11-11-11zm-362.322 264.849 3.803 3.087c2.827 2.295 4.449 5.7 4.449 9.341 0 6.634-5.397 12.031-12.031 12.031h-50.25c-6.184 0-11.803-2.877-15.417-7.895s-4.563-11.259-2.604-17.124l30.022-89.896c4.764-14.267 1.349-29.961-8.912-40.958l-7.429-7.961h97.95l-43.069 127.309c-1.473 4.356-.082 9.168 3.488 12.066zm106.641-105.16c-1.751 8.878-9.591 15.322-18.641 15.322h-41.953l16.758-49.537h50.586zm-190.319-56.215c-6.065 0-11-4.935-11-11s4.935-11 11-11h410.219l-5 22zm435-44h-417.131l18.903-37.475h398.228z"/></g><g/><g/><g/><g/><g/><g/><g/><g/><g/><g/><g/><g/><g/><g/><g/></svg>