<svg id="Capa_1" enable-background="new 0 0 512 512" viewBox="0 0 512 512" xmlns="http://www.w3.org/2000/svg" fill="#052438"><g><g fill="#0496FF"><path d="m420.788 369.906v-111.118h-22v182.212c0 27.019-21.981 49-49 49h-187.576c-27.019 0-49-21.981-49-49v-182.212h-22v111.118l-10 11.768 10 10.232v49.094c0 39.149 31.851 71 71 71h187.576c39.149 0 71-31.851 71-71v-49.094l10-12.886z"/><path d="m221.31 128.421-2.445 23.65c-.404 3.902 1.302 7.725 4.476 10.031 3.174 2.305 7.336 2.746 10.923 1.157l21.736-9.634 21.737 9.634c1.427.632 2.945.943 4.456.943 2.286 0 4.556-.712 6.467-2.101 3.174-2.306 4.88-6.128 4.476-10.031l-2.445-23.65 15.879-17.696c2.621-2.92 3.487-7.015 2.275-10.746-1.213-3.731-4.32-6.534-8.157-7.356l-23.248-4.982-11.923-20.571c-1.967-3.394-5.593-5.484-9.517-5.484s-7.55 2.09-9.517 5.484l-11.923 20.571-23.248 4.982c-3.837.822-6.944 3.625-8.157 7.356-1.212 3.731-.346 7.826 2.275 10.746zm22.628-20.291c3.036-.651 5.655-2.554 7.212-5.24l4.85-8.368 4.851 8.369c1.557 2.686 4.176 4.589 7.212 5.24l9.458 2.027-6.46 7.199c-2.074 2.311-3.074 5.39-2.755 8.478l.995 9.621-8.844-3.919c-1.419-.629-2.938-.943-4.457-.943s-3.038.314-4.457.943l-8.844 3.919.995-9.621c.319-3.088-.681-6.167-2.755-8.478l-6.46-7.199z"/><path d="m365.788 422c6.075 0 11-4.925 11-11v-108.212c0-6.075-4.925-11-11-11s-11 4.925-11 11v108.212c0 6.075 4.925 11 11 11z"/></g><path d="m453.992 203.79v-5.798c0-109.173-88.819-197.992-197.992-197.992s-197.992 88.819-197.992 197.992v5.798c-5.981.109-10.796 4.99-10.796 10.997v166.118c0 6.075 4.925 11 11 11h33v-22h-22v-100.117h373.576v100.118h-22v22h33c6.075 0 11-4.925 11-11v-166.118c0-6.007-4.815-10.889-10.796-10.998zm-197.992-181.79c97.042 0 175.992 78.95 175.992 175.992v5.795h-351.984v-5.795c0-97.042 78.95-175.992 175.992-175.992zm-186.788 203.788h373.576v22h-373.576z"/></g><g/><g/><g/><g/><g/><g/><g/><g/><g/><g/><g/><g/><g/><g/><g/></svg>