<svg id="Capa_1" enable-background="new 0 0 512 512" viewBox="0 0 512 512" xmlns="http://www.w3.org/2000/svg" fill="#052438"><g><g fill="#0496FF"><path d="m79.889 343.36h22v75.092h-22z"/><path d="m410.062 343.36h22v75.092h-22z"/><path d="m382.076 162.962c-2.918-2.061-6.656-2.576-10.022-1.383l-2.375.842c-6.628 2.35-14.02-.065-17.979-5.873-2.05-3.005-5.451-4.803-9.089-4.803s-7.039 1.798-9.089 4.803c-3.96 5.808-11.351 8.224-17.98 5.873l-2.374-.842c-3.369-1.193-7.105-.678-10.022 1.383-2.918 2.062-4.653 5.412-4.653 8.984v29.031c0 19.151 11.229 36.726 28.607 44.773l10.89 5.042c1.466.679 3.044 1.018 4.622 1.018s3.156-.339 4.622-1.019l10.889-5.042c17.379-8.047 28.608-25.622 28.608-44.773v-29.031c-.002-3.571-1.737-6.921-4.655-8.983zm-17.347 38.016c0 10.612-6.223 20.35-15.853 24.81l-6.267 2.902-6.268-2.902c-9.63-4.458-15.852-14.197-15.852-24.809v-15.667c7.968.061 15.688-2.434 22.119-7.052 6.432 4.619 14.146 7.114 22.119 7.052v15.666z"/><path d="m200.206 190.778h-65.561c-6.075 0-11 4.925-11 11s4.925 11 11 11h65.561c6.075 0 11-4.925 11-11s-4.925-11-11-11z"/></g><path d="m478.017 332.36h-11v-89.543c0-2.917-1.159-5.715-3.222-7.778-21.971-21.97-34.07-51.181-34.07-82.251v-141.788c0-6.075-4.925-11-11-11h-84.518c-6.075 0-11 4.925-11 11v52.276c0 37.325-29.92 67.914-66.695 68.187-.173.001-.342.002-.514.002-17.862 0-34.658-6.917-47.343-19.508-12.809-12.713-19.862-29.653-19.862-47.699v-53.258c0-6.075-4.925-11-11-11h-84.518c-6.075 0-11 4.925-11 11v141.787c0 31.071-12.1 60.282-34.07 82.251-2.062 2.063-3.222 4.861-3.222 7.778v89.543h-11c-6.075 0-11 4.925-11 11v75.092c0 6.075 4.925 11 11 11h10.999v71.549c0 6.075 4.925 11 11 11h400.034c6.075 0 11-4.925 11-11v-71.548h11c6.075 0 11-4.925 11-11v-75.092c.001-6.075-4.924-11-10.999-11zm-70.292-310.36v32.002h-62.518v-32.002zm-240.932 0v32.002h-62.518v-32.002zm-99.81 225.267c24.086-25.712 37.292-59.079 37.292-94.479v-76.786h63.278c2.545 19.492 11.413 37.484 25.603 51.569 16.839 16.714 39.129 25.894 62.837 25.894.226 0 .454-.001.682-.003 44.547-.33 81.516-34.05 87.641-77.459h63.409v76.785c0 35.4 13.206 68.768 37.292 94.479v85.093h-69.908v-27.548c0-6.075-4.925-11-11-11h-216.217c-6.075 0-11 4.925-11 11v27.548h-69.909zm91.909 114.936c9.243 8.859 21.749 14.157 35.3 14.157h15.508c13.55 0 26.056-5.298 35.299-14.156v83.796h-86.107zm3.057-46.391h79.994l-4.094 16.522c-3.212 12.969-14.787 22.026-28.148 22.026h-15.509c-13.361 0-24.937-9.058-28.149-22.026zm105.051 46.391c9.244 8.859 21.75 14.157 35.3 14.157h15.509c13.551 0 26.057-5.298 35.3-14.157v83.797h-86.109zm3.056-46.391h79.995l-4.094 16.522c-3.212 12.969-14.787 22.026-28.148 22.026h-15.509c-13.361 0-24.937-9.058-28.15-22.026zm-225.073 38.548h91.908v53.092h-91.908zm400.034 135.64h-378.035v-60.548h69.909v27.548c0 6.075 4.925 11 11 11h216.217c6.075 0 11-4.925 11-11v-27.548h69.908v60.548zm22-82.548h-91.908v-53.092h91.908z"/></g><g/><g/><g/><g/><g/><g/><g/><g/><g/><g/><g/><g/><g/><g/><g/></svg>