<svg id="Capa_1" enable-background="new 0 0 512.005 512.005" viewBox="0 0 512.005 512.005" xmlns="http://www.w3.org/2000/svg" fill="#052438"><g><g><path d="m255.97 253.413c10.559 0 20.453-4.691 27.144-12.869 3.847-4.702 3.154-11.632-1.548-15.479s-11.633-3.153-15.479 1.548c-2.496 3.051-6.184 4.801-10.117 4.801-3.912 0-7.586-1.734-10.082-4.757-3.867-4.685-10.8-5.35-15.486-1.482-4.686 3.867-5.349 10.8-1.482 15.486 6.69 8.103 16.549 12.752 27.05 12.752z"/><path d="m309.423 304.931v-22.522c4.037-2.874 7.873-6.094 11.471-9.646 17.723-17.495 27.483-40.843 27.483-65.744v-106.548c9.006-6.905 14.406-17.354 14.76-29.066.426-14.11-6.569-26.832-18.712-34.031l-41.18-24.416c-29.141-17.277-65.344-17.277-94.484 0l-41.179 24.416c-12.143 7.199-19.138 19.921-18.712 34.031.353 11.712 5.753 22.162 14.759 29.066v105.337c0 31.283 15.417 59.186 38.955 76.215v22.909c-66.929 4.817-119.912 60.81-119.912 128.946v67.128c0 6.075 4.925 11 11 11h324.664c6.075 0 11-4.925 11-11v-67.128c-.001-68.136-52.984-124.13-119.913-128.947zm16.954-177.469h-140.749v-22h140.749zm-1.885 22c-4.54 12.805-16.773 22-31.115 22h-74.749c-14.341 0-26.575-9.195-31.115-22zm-145.691-93.165 41.18-24.416c22.219-13.174 49.825-13.173 72.043 0l41.18 24.416c5.154 3.056 8.123 8.455 7.942 14.443-.157 5.195-2.652 9.803-6.789 12.722h-156.71c-4.136-2.919-6.631-7.527-6.788-12.722-.181-5.988 2.789-11.387 7.942-14.443zm6.827 149.51v-23.371c9.198 6.92 20.629 11.026 33 11.026h74.749c12.371 0 23.802-4.106 33-11.026v24.584c0 18.971-7.436 36.758-20.938 50.086-13.498 13.325-31.338 20.527-50.374 20.282-38.287-.496-69.437-32.608-69.437-71.581zm69.152 93.58c.414.005.823.008 1.235.008 10.878 0 21.468-1.866 31.408-5.452v17.621l-31.42 37.11-31.42-37.11v-17.78c9.454 3.497 19.618 5.465 30.197 5.603zm152.555 190.618h-34.803v-27.867c0-6.075-4.925-11-11-11s-11 4.925-11 11v27.867h-189.059v-27.867c0-6.075-4.925-11-11-11s-11 4.925-11 11v27.867h-34.803v-56.128c0-58.01 46.281-105.414 103.858-107.229l39.079 46.156c2.09 2.468 5.161 3.892 8.395 3.892s6.305-1.424 8.396-3.892l39.079-46.156c57.577 1.815 103.858 49.219 103.858 107.229z"/></g><g fill="#0496FF"><path d="m253.852 41.945c-8.49 1.555-11.819 12.561-5.63 18.57 6.818 6.888 18.838 1.91 18.78-7.78.148-6.733-6.553-12.243-13.15-10.79z"/><path d="m354.722 373.836c-2.92-2.062-6.657-2.575-10.025-1.381l-1.826.648c-4.021 1.429-8.512-.04-10.916-3.566-2.049-3.005-5.451-4.804-9.089-4.804-3.637 0-7.039 1.798-9.088 4.803-2.407 3.528-6.896 4.993-10.917 3.567l-1.829-.649c-3.364-1.195-7.104-.679-10.023 1.382-2.919 2.062-4.654 5.412-4.654 8.985v22.363c0 15.732 9.225 30.17 23.502 36.782l8.389 3.884c1.466.679 3.043 1.018 4.621 1.018s3.156-.339 4.622-1.019l8.388-3.884c14.276-6.61 23.501-21.048 23.501-36.781v-22.363c-.001-3.573-1.737-6.924-4.656-8.985zm-17.345 31.348c0 7.194-4.218 13.795-10.745 16.818l-3.767 1.744-3.766-1.743c-6.527-3.023-10.745-9.625-10.745-16.818v-9.63c5.153-.391 10.146-2.049 14.512-4.822 4.364 2.773 9.357 4.431 14.511 4.821z"/><path d="m216.473 394.801h-44c-6.075 0-11 4.925-11 11s4.925 11 11 11h44c6.075 0 11-4.925 11-11s-4.924-11-11-11z"/></g></g><g/><g/><g/><g/><g/><g/><g/><g/><g/><g/><g/><g/><g/><g/><g/></svg>