<svg id="Capa_1" enable-background="new 0 0 512 512" viewBox="0 0 512 512" xmlns="http://www.w3.org/2000/svg" fill="#052438"><g><g fill="#0496FF"><path d="m42.985 405.82h22v43.911h-22z" transform="matrix(.707 -.707 .707 .707 -286.673 163.468)"/><path d="m347.313 161.971c-18.172 0-32.955 14.784-32.955 32.955v1.996c0 6.075 4.925 11 11 11s11-4.925 11-11v-1.996c0-6.041 4.914-10.955 10.955-10.955 6.075 0 11-4.925 11-11s-4.924-11-11-11z"/><path d="m413.18 193.906h-11.976c-23.675 0-42.936 19.26-42.936 42.935 0 6.041-4.914 10.955-10.955 10.955s-10.955-4.915-10.955-10.955c0-6.075-4.925-11-11-11s-11 4.925-11 11c0 18.171 14.783 32.955 32.955 32.955s32.955-14.784 32.955-32.955c0-11.543 9.392-20.935 20.936-20.935h11.976c6.075 0 11-4.925 11-11s-4.925-11-11-11z"/><path d="m391.204 325.357c-13.7 6.808-28.468 10.26-43.891 10.26-21.196 0-41.396-6.611-58.418-19.118-4.896-3.597-11.781-2.544-15.378 2.351-3.598 4.896-2.545 11.78 2.351 15.377 20.825 15.301 45.53 23.389 71.445 23.389 18.851 0 36.911-4.225 53.68-12.558 5.44-2.704 7.66-9.306 4.956-14.746-2.703-5.439-9.304-7.659-14.745-4.955z"/><path d="m449.436 130.417c-11.869-18.753-28.632-33.873-48.477-43.726-5.439-2.702-12.043-.481-14.744 4.961-2.701 5.441-.48 12.042 4.961 14.744 33.872 16.817 54.914 50.74 54.914 88.53v41.915c0 21.574-6.827 42.066-19.744 59.261-3.648 4.857-2.669 11.752 2.188 15.401 1.979 1.487 4.299 2.206 6.598 2.206 3.342 0 6.643-1.517 8.804-4.394 15.802-21.036 24.154-46.097 24.154-72.475v-41.915c0-22.918-6.45-45.225-18.654-64.508z"/><path d="m347.313 96.15c6.075 0 11-4.925 11-11s-4.925-11-11-11c-66.596 0-120.775 54.18-120.775 120.776 0 6.075 4.925 11 11 11s11-4.925 11-11c0-54.465 44.311-98.776 98.775-98.776z"/></g><g><path d="m286.402 365.913c-5.082-2.403-10.031-5.116-14.806-8.111 15.998-15.335 27.14-35.697 30.862-58.519 12.879 9.262 28.49 14.423 44.855 14.423 37.109 0 68.903-26.454 75.599-62.902 1.098-5.975-2.856-11.708-8.832-12.806-5.974-1.101-11.709 2.856-12.807 8.832-4.776 26.003-27.47 44.877-53.96 44.877-17.606 0-33.99-8.373-44.325-22.523-1.542-12.154-5.18-23.663-10.54-34.152v-40.106c0-30.253 24.612-54.865 54.865-54.865 14.655 0 28.434 5.707 38.796 16.069 4.296 4.296 11.259 4.296 15.557 0 4.296-4.295 4.296-11.26 0-15.556-14.518-14.518-33.82-22.514-54.353-22.514-42.384 0-76.865 34.481-76.865 76.865v11.003c-17.233-16.031-39.872-26.324-64.844-27.805 3.82-32.65 18.727-62.818 42.66-85.905 26.727-25.78 61.903-39.979 99.049-39.979 42.739 0 82.872 18.927 110.107 51.929 3.869 4.687 10.803 5.349 15.486 1.482 4.686-3.867 5.349-10.8 1.482-15.485-31.428-38.082-77.745-59.925-127.075-59.925-42.873 0-83.474 16.388-114.322 46.145-28.503 27.494-45.913 63.696-49.619 102.774-50.047 7.714-88.489 51.077-88.489 103.249 0 16.81 3.991 32.705 11.075 46.788l-96.306 96.306c-6.224 6.224-9.652 14.5-9.652 23.303s3.428 17.079 9.652 23.303c6.225 6.224 14.501 9.652 23.303 9.652 8.803 0 17.079-3.428 23.303-9.652l96.306-96.306c14.083 7.084 29.978 11.075 46.787 11.075 19.652 0 38.054-5.455 53.772-14.929 7.56 5.278 15.562 9.923 23.875 13.854 1.52.718 3.119 1.058 4.694 1.058 4.121 0 8.073-2.327 9.952-6.3 2.597-5.493.251-12.05-5.242-14.647zm-245.701 90.639c-2.068 2.069-4.819 3.208-7.746 3.208-2.926 0-5.677-1.139-7.746-3.208s-3.209-4.82-3.209-7.747 1.14-5.677 3.209-7.746l92.964-92.965c4.611 5.687 9.806 10.882 15.493 15.493zm76.182-174.144c0-45.474 36.995-82.469 82.469-82.469 42.62 0 77.793 32.498 82.04 74.016.014.2.034.401.059.601.245 2.585.371 5.205.371 7.853 0 45.474-36.996 82.469-82.47 82.469s-82.469-36.997-82.469-82.47z"/><path d="m501 183.926c-6.075 0-11 4.925-11 11v41.915c0 78.678-64.009 142.687-142.687 142.687-6.075 0-11 4.925-11 11s4.925 11 11 11c90.809 0 164.687-73.878 164.687-164.687v-41.915c0-6.075-4.925-11-11-11z"/></g></g><g/><g/><g/><g/><g/><g/><g/><g/><g/><g/><g/><g/><g/><g/><g/></svg>