<svg id="Capa_1" enable-background="new 0 0 512 512" viewBox="0 0 512 512" xmlns="http://www.w3.org/2000/svg" fill="#052438"><g><g fill="#0496FF"><path d="m501 377.962c-6.075 0-11 4.925-11 11 0 7.768-6.319 14.087-14.088 14.087h-22.808v-43h-22v43h-109.612v-43h-22v43h-37.886c-6.075 0-11 4.925-11 11s4.925 11 11 11h214.306c19.898 0 36.088-16.189 36.088-36.087 0-6.075-4.925-11-11-11z"/><path d="m316.492 119.951c0-6.075-4.925-11-11-11h-141.507c-6.075 0-11 4.925-11 11s4.925 11 11 11h141.507c6.075 0 11-4.925 11-11z"/><path d="m359.492 130.951h141.508c6.075 0 11-4.925 11-11s-4.925-11-11-11h-141.508c-6.075 0-11 4.925-11 11s4.925 11 11 11z"/><path d="m379.257 308.834h26.307v-22h-26.307c-34.772 0-67.87-14.988-90.807-41.122l-48.002-54.693-16.535 14.512 48.002 54.693c27.113 30.892 66.238 48.61 107.342 48.61z"/><path d="m65.26 244.95c-2.699-7.099-12.729-9.09-17.94-3.57-6.893 6.803-1.905 18.847 7.781 18.779 7.578.218 13.273-8.285 10.159-15.209z"/></g><path d="m503.691 279.656-18.421-29.322c-25.457-40.521-67.059-68.682-114.137-77.261l-27.642-5.038v-16.065c14.344-3.585 25-16.581 25-32.019 0-18.196-14.804-33-33-33h-6c-18.196 0-33 14.804-33 33 0 15.438 10.656 28.434 25 32.019v13.28c-44.847-2.629-89.484 13.37-122.447 44.586l-1.397 1.323h-90.912l-26.378-68.052c-1.642-4.234-5.716-7.024-10.257-7.024h-47.1c-3.215 0-6.268 1.406-8.357 3.848-2.09 2.442-3.007 5.677-2.511 8.853l8.928 57.051c-13.147 10.362-21.06 26.353-21.06 43.323 0 16.415 7.402 31.912 19.784 42.288l-7.116 19.475c-1.232 3.374-.74 7.136 1.317 10.079s5.423 4.696 9.015 4.696h47.101c3.449 0 6.699-1.618 8.778-4.371l25.8-34.167h87.914l26.557 29.551c31.035 34.534 75.464 54.34 121.894 54.34h70.511c19.004 0 37.816-2.936 55.915-8.725l6.832-2.186c22.548-7.212 37.698-27.964 37.698-51.639 0-10.217-2.873-20.191-8.309-28.843zm-37.049-17.618 15.578 24.796h-76.656c-30.561 0-55.423-24.863-55.423-55.423v-39.801l17.049 3.107c41.021 7.475 77.27 32.013 99.452 67.321zm-137.15-153.087h6c6.065 0 11 4.935 11 11s-4.935 11-11 11h-6c-6.065 0-11-4.935-11-11s4.935-11 11-11zm138.106 230.234-6.832 2.186c-15.929 5.096-32.486 7.679-49.212 7.679h-70.511c-40.196 0-78.661-17.147-105.53-47.045l-29.834-33.198c-2.086-2.321-5.061-3.647-8.182-3.647h-98.296c-3.45 0-6.699 1.618-8.778 4.371l-25.8 34.167h-25.893l4.602-12.592c1.831-5.011-.197-10.612-4.812-13.29-10.19-5.915-16.52-16.895-16.52-28.658s6.33-22.744 16.521-28.657c3.925-2.277 6.049-6.731 5.348-11.215l-8.013-51.205h26.711l26.378 68.052c1.642 4.234 5.716 7.024 10.257 7.024h102.828c2.813 0 5.521-1.078 7.563-3.013l4.579-4.336c30.488-28.872 72.511-42.706 113.969-37.906v43.508c0 42.691 34.731 77.423 77.423 77.423h84.435c-.143 13.93-9.109 26.1-22.401 30.352z"/></g><g/><g/><g/><g/><g/><g/><g/><g/><g/><g/><g/><g/><g/><g/><g/></svg>