<svg id="Capa_1" enable-background="new 0 0 512 512" viewBox="0 0 512 512" xmlns="http://www.w3.org/2000/svg" fill="#052438"><g><path d="m289.874 266.34v-14.156c1.621-1.277 3.187-2.641 4.678-4.112 10.528-10.393 16.327-24.264 16.327-39.057v-43.724c0-22.607-18.393-41-41-41h-57.758c-6.075 0-11 4.925-11 11v73.07c0 17.595 8.238 33.376 21.005 43.581v14.399c-36.522 5.344-64.658 36.868-64.658 74.85v5.52c0 6.075 4.925 11 11 11h175.064c6.075 0 11-4.925 11-11v-5.52c0-37.983-28.136-69.507-64.658-74.851zm-66.753-57.98v-7.08h5.041c16.49 0 32.555-3.053 47.821-9.082l12.896 5.4v11.416c0 8.863-3.474 17.173-9.782 23.4-6.307 6.226-14.664 9.613-23.537 9.476-17.887-.232-32.439-15.273-32.439-33.53zm0-62.069h46.758c10.477 0 19 8.523 19 19v8.458l-8.63-3.614c-2.771-1.162-5.9-1.137-8.655.067-13.779 6.024-28.392 9.079-43.432 9.079h-5.041zm32.153 117.597c.246.003.489.005.734.005 4.041 0 8.01-.449 11.865-1.295v9.377l-11.873 11.874-11.874-11.874v-9.405c3.599.812 7.327 1.269 11.148 1.318zm-75.529 71.821c2.607-25.59 23.274-45.905 49.013-47.99l19.463 19.463c2.148 2.148 4.963 3.222 7.778 3.222s5.63-1.074 7.778-3.222l19.463-19.463c25.739 2.085 46.406 22.399 49.013 47.99z"/><path d="m437.02 74.981c-48.353-48.353-112.64-74.981-181.02-74.981s-132.667 26.628-181.02 74.981c-48.351 48.352-74.98 112.639-74.98 181.019s26.629 132.667 74.98 181.019c48.353 48.353 112.64 74.981 181.02 74.981s132.667-26.628 181.02-74.981c48.351-48.352 74.98-112.639 74.98-181.019s-26.629-132.667-74.98-181.019zm52.72 170.019h-52.527c-5.487-91.367-78.846-164.726-170.213-170.214v-52.526c58.373 2.683 112.868 26.684 154.463 68.278s65.594 96.089 68.277 154.462zm-393.297 11c0-87.98 71.577-159.557 159.557-159.557s159.557 71.577 159.557 159.557-71.578 159.557-159.557 159.557-159.557-71.577-159.557-159.557zm-74.443 0c0-62.503 24.34-121.266 68.537-165.463 41.595-41.594 96.09-65.594 154.463-68.277v52.526c-95.007 5.707-170.557 84.797-170.557 181.214 0 46.105 17.284 88.244 45.702 120.299l-37.203 37.202c-39.378-43.173-60.942-98.678-60.942-157.501zm399.463 165.463c-44.197 44.197-102.959 68.537-165.463 68.537-58.823 0-114.327-21.564-157.501-60.942l37.203-37.202c32.055 28.417 74.193 45.702 120.298 45.702 96.416 0 175.507-75.55 181.214-170.557h52.527c-2.684 58.372-26.684 112.868-68.278 154.462z" fill="#0496FF"/></g><g/><g/><g/><g/><g/><g/><g/><g/><g/><g/><g/><g/><g/><g/><g/></svg>