<svg id="Layer_1" enable-background="new 0 0 512.086 512.086" viewBox="0 0 512.086 512.086" xmlns="http://www.w3.org/2000/svg" fill="#052438"><g><g fill="#0496FF"><path d="m412.039 72.873h22v68h-22z"/><path d="m264.984 253h22v68h-22z"/><path d="m317.354 433.085h22v68h-22z"/><path d="m109.182 431.565c6.654-7.597 10.7-17.532 10.7-28.4 0-23.801-19.363-43.165-43.165-43.165s-43.165 19.364-43.165 43.165c0 10.868 4.046 20.803 10.7 28.4-26.089 12.247-44.205 38.759-44.205 69.435 0 6.075 4.925 11 11 11h131.34c6.075 0 11-4.925 11-11 0-30.676-18.116-57.188-44.205-69.435zm-53.63-28.4c0-11.67 9.494-21.165 21.165-21.165s21.165 9.495 21.165 21.165-9.494 21.165-21.165 21.165-21.165-9.495-21.165-21.165zm-32.393 86.835c5.104-24.892 27.179-43.67 53.558-43.67s48.454 18.778 53.558 43.67z"/><path d="m109.182 71.565c6.654-7.597 10.7-17.532 10.7-28.4 0-23.801-19.363-43.165-43.165-43.165s-43.165 19.364-43.165 43.165c0 10.868 4.046 20.803 10.7 28.4-26.089 12.247-44.205 38.759-44.205 69.435 0 6.075 4.925 11 11 11h131.34c6.075 0 11-4.925 11-11 0-30.676-18.116-57.188-44.205-69.435zm-53.63-28.4c0-11.67 9.494-21.165 21.165-21.165s21.165 9.495 21.165 21.165-9.494 21.165-21.165 21.165-21.165-9.495-21.165-21.165zm-32.393 86.835c5.104-24.892 27.179-43.67 53.558-43.67s48.454 18.778 53.558 43.67z"/></g><g><path d="m109.182 251.565c6.654-7.597 10.7-17.532 10.7-28.4 0-23.801-19.363-43.165-43.165-43.165s-43.165 19.364-43.165 43.165c0 10.868 4.046 20.803 10.7 28.4-26.089 12.247-44.205 38.759-44.205 69.435 0 6.075 4.925 11 11 11h131.34c6.075 0 11-4.925 11-11 0-30.676-18.116-57.188-44.205-69.435zm-53.63-28.4c0-11.67 9.494-21.165 21.165-21.165s21.165 9.495 21.165 21.165-9.494 21.165-21.165 21.165-21.165-9.495-21.165-21.165zm-32.393 86.835c5.104-24.892 27.179-43.67 53.558-43.67s48.454 18.778 53.558 43.67z"/><path d="m501.039 61.873h-312c-6.075 0-11 4.925-11 11v68c0 6.075 4.925 11 11 11h312c6.075 0 11-4.925 11-11v-68c0-6.075-4.925-11-11-11zm-11 68h-290v-46h290z"/><path d="m501.039 242h-312c-6.075 0-11 4.925-11 11v68c0 6.075 4.925 11 11 11h312c6.075 0 11-4.925 11-11v-68c0-6.075-4.925-11-11-11zm-11 68h-290v-46h290z"/><path d="m501.039 422.086h-312c-6.075 0-11 4.925-11 11v68c0 6.075 4.925 11 11 11h312c6.075 0 11-4.925 11-11v-68c0-6.075-4.925-11-11-11zm-11 68h-290v-46h290z"/></g></g><g/><g/><g/><g/><g/><g/><g/><g/><g/><g/><g/><g/><g/><g/><g/></svg>