<svg id="Layer_1" enable-background="new 0 0 512 512" viewBox="0 0 512 512" xmlns="http://www.w3.org/2000/svg" fill="#052438"><g><g fill="#0496FF"><path d="m146.893 343.079h22v64h-22z"/><path d="m378.5 343.079h22v64h-22z"/><path d="m160.232 63.602c3.356-6.122 5.268-13.142 5.268-20.602 0-23.71-19.29-43-43-43s-43 19.29-43 43c0 7.461 1.913 14.483 5.27 20.605-12.703 3.881-24.318 10.884-33.853 20.622-14.794 15.109-22.942 35.078-22.942 56.227v20.454c0 18.196 14.804 33 33 33 2.234 0 4.416-.226 6.526-.651v79.823c0 18.196 14.804 33 33 33 8.446 0 16.157-3.193 22-8.43 5.843 5.237 13.554 8.43 22 8.43 18.196 0 33-14.804 33-33v-79.822c2.11.425 4.292.651 6.526.651 18.196 0 33-14.804 33-33v-20.454c0-21.207-8.186-41.214-23.05-56.337-9.52-9.685-21.093-16.651-33.745-20.516zm-37.732-41.602c11.58 0 21 9.42 21 21s-9.42 21-21 21-21-9.42-21-21 9.42-21 21-21zm72.526 138.908c0 6.065-4.935 11-11 11s-11-4.935-11-11v-14.033c0-6.075-4.925-11-11-11s-11 4.925-11 11v14.033c0 6.033 1.635 11.688 4.474 16.56v95.611c0 6.065-4.935 11-11 11s-11-4.935-11-11v-69c0-6.075-4.925-11-11-11s-11 4.925-11 11v69c0 6.065-4.935 11-11 11s-11-4.935-11-11v-95.612c2.839-4.872 4.474-10.527 4.474-16.56v-14.033c0-6.075-4.925-11-11-11s-11 4.925-11 11v14.033c0 6.065-4.935 11-11 11s-11-4.935-11-11v-20.454c0-15.36 5.917-29.862 16.662-40.835 10.222-10.44 23.725-16.569 38.218-17.422 5.388 2.436 11.359 3.804 17.646 3.804 6.29 0 12.263-1.369 17.653-3.806 14.452.851 27.916 6.95 38.133 17.345 10.795 10.983 16.74 25.514 16.74 40.916z"/><path d="m461.238 84.142c-9.53-9.786-21.163-16.831-33.895-20.742 3.287-6.073 5.156-13.022 5.156-20.4 0-23.71-19.29-43-43-43s-43 19.29-43 43c0 7.377 1.869 14.325 5.156 20.398-12.696 3.901-24.3 10.919-33.818 20.667-14.743 15.099-22.863 35.039-22.863 56.146v20.454c0 17.724 14.047 32.224 31.593 32.964l-12.307 30.313c-1.377 3.391-.977 7.245 1.067 10.281 2.045 3.036 5.465 4.856 9.125 4.856h10.048v34c0 18.196 14.804 33 33 33 8.446 0 16.157-3.193 22-8.43 5.843 5.237 13.554 8.43 22 8.43 18.196 0 33-14.804 33-33v-34h10.047c3.66 0 7.08-1.82 9.125-4.856 2.044-3.036 2.444-6.89 1.067-10.281l-12.307-30.313c17.546-.74 31.593-15.24 31.593-32.964v-20.455c0-21.066-8.092-40.978-22.787-56.068zm-71.738-62.142c11.579 0 21 9.42 21 21s-9.421 21-21 21-21-9.42-21-21 9.421-21 21-21zm-11 251.079c0 6.065-4.935 11-11 11s-11-4.935-11-11v-34h22zm44 0c0 6.065-4.935 11-11 11s-11-4.935-11-11v-34h22zm39.525-112.415c0 6.065-4.935 11-11 11s-11-4.935-11-11v-14.033c0-6.075-4.925-11-11-11s-11 4.925-11 11v14.033c0 4.5.908 8.792 2.547 12.705l17.637 43.71h-97.418l17.639-43.716c1.637-3.911 2.545-8.201 2.545-12.699v-14.033c0-6.075-4.925-11-11-11s-11 4.925-11 11v14.033c0 6.065-4.935 11-11 11s-11-4.935-11-11v-20.454c0-15.33 5.896-29.811 16.604-40.776 10.113-10.357 23.456-16.494 37.796-17.455 5.511 2.574 11.651 4.021 18.125 4.021 6.472 0 12.61-1.446 18.121-4.018 14.369.962 27.739 7.12 37.855 17.509 10.672 10.958 16.549 25.42 16.549 40.72z"/></g><g><g><path d="m234 418.079h-223c-6.075 0-11-4.925-11-11v-64c0-6.075 4.925-11 11-11h223c6.075 0 11 4.925 11 11v64c0 6.075-4.925 11-11 11zm-212-22h201v-42h-201z"/></g><g><path d="m501 418.079h-223c-6.075 0-11-4.925-11-11v-64c0-6.075 4.925-11 11-11h223c6.075 0 11 4.925 11 11v64c0 6.075-4.925 11-11 11zm-212-22h201v-42h-201z"/></g><g><path d="m178.424 468h-111.848c-6.075 0-11-4.925-11-11s4.925-11 11-11h111.848c6.075 0 11 4.925 11 11s-4.925 11-11 11z"/></g><g><path d="m157.893 512h-70.786c-6.075 0-11-4.925-11-11s4.925-11 11-11h70.785c6.075 0 11 4.925 11 11s-4.924 11-10.999 11z"/></g><g><path d="m445.424 468h-111.848c-6.075 0-11-4.925-11-11s4.925-11 11-11h111.848c6.075 0 11 4.925 11 11s-4.925 11-11 11z"/></g><g><path d="m424.893 512h-70.785c-6.075 0-11-4.925-11-11s4.925-11 11-11h70.785c6.075 0 11 4.925 11 11s-4.925 11-11 11z"/></g></g></g><g/><g/><g/><g/><g/><g/><g/><g/><g/><g/><g/><g/><g/><g/><g/></svg>