<svg id="Layer_1" enable-background="new 0 0 512 512" viewBox="0 0 512 512" xmlns="http://www.w3.org/2000/svg" fill="#E6ECF2"><g><g fill="#0496FF"><path d="m346.3 286.229c-12.894 21.081-11.141 48.175 4.36 67.419l16.065 19.946c-25.747 18.008-55.65 29.615-87.058 33.451l2.666 21.838c49.808-6.082 96.221-29.673 130.69-66.428l-16.047-15.05c-4.135 4.409-8.467 8.6-12.966 12.578l-16.218-20.135c-9.688-12.029-10.784-28.964-2.725-42.141 8.638-14.125 25.762-20.724 41.646-16.047 4.174 1.229 8.48 2.131 12.8 2.681l2.775-21.824c-3.159-.402-6.309-1.061-9.36-1.96-25.409-7.485-52.81 3.073-66.628 25.672z"/><path d="m408.203 63.044c-40.655-40.654-94.708-63.044-152.203-63.044s-111.548 22.39-152.203 63.044c-40.655 40.656-63.045 94.709-63.045 152.204 0 9.999.697 20.074 2.072 29.946l21.79-3.034c-1.235-8.87-1.862-17.924-1.862-26.912 0-96.749 71.469-177.115 164.384-191.091 10.684 11.603 16.827 26.372 17.384 42.115.676 19.095-6.925 37.521-20.854 50.553-16.862 15.776-22.762 39.505-15.031 60.451 3.181 8.62 4.625 17.709 4.29 27.017-1.337 37.114-31.476 66.964-68.614 67.957-9.641.262-19.021-1.393-27.883-4.904-8.291-3.286-17.362-4.61-26.23-3.826l1.935 21.915c5.47-.483 11.07.334 16.19 2.363 10.856 4.302 22.292 6.478 34.027 6.478.848 0 1.697-.012 2.548-.034 48.72-1.302 88.258-40.465 90.011-89.158.438-12.186-1.458-24.104-5.637-35.426-4.659-12.621-.96-27.054 9.422-36.768 18.575-17.378 28.711-41.943 27.81-67.396-.552-15.613-5.21-30.495-13.385-43.457.961-.015 1.918-.037 2.881-.037 15.991 0 31.529 1.966 46.399 5.645-7.065 28.7-4.635 58.811 7.125 85.93 4.653 10.729 4.155 22.917-1.338 32.612l-.127.221c-11.703 20.404-8.236 46.248 8.432 62.846 15.547 15.483 39.31 19.56 59.131 10.141l21.211-10.08c1.771-.841 3.348-.438 4.128-.123.73.294 2.048 1.037 2.659 2.659l.066.179c3.015 8.075 7.271 15.639 12.653 22.483 6.034 7.673 13.307 14.155 21.616 19.269l10-16.251c-.178 1.545-.367 3.088-.581 4.626l21.789 3.034c1.383-9.928 2.084-20.002 2.084-29.943.001-57.495-22.389-111.548-63.044-152.204zm25.43 157.87c-3.976-5.056-7.116-10.634-9.33-16.563l-.036-.097c-.003-.009-.038-.102-.041-.111-2.62-6.959-8.099-12.555-15.031-15.353-7.021-2.833-14.969-2.594-21.805.655l-21.211 10.08c-11.45 5.441-25.18 3.086-34.164-5.859-9.63-9.59-11.634-24.522-4.881-36.294l.198-.348c8.873-15.659 9.761-35.174 2.376-52.202-9.664-22.285-11.791-47.005-6.251-70.664 73.392 27.427 125.791 98.251 125.791 181.091 0 6.312-.321 12.686-.945 19.034-5.599-3.628-10.535-8.112-14.67-13.369z"/><path d="m115.023 347.408-16.046 15.051c34.481 36.761 80.895 60.353 130.69 66.431l2.665-21.838c-44.687-5.455-86.349-26.637-117.309-59.644z"/></g><g><path d="m94.235 300.106c4.946-7.014 7.863-15.556 7.863-24.772 0-23.764-19.333-43.098-43.098-43.098s-43.098 19.333-43.098 43.098c0 9.216 2.917 17.758 7.863 24.772-14.006 6.414-23.765 20.554-23.765 36.939v46.621c0 14.899 9.635 27.592 23 32.174v85.16c0 6.075 4.925 11 11 11h50c6.075 0 11-4.925 11-11v-85.159c13.365-4.583 23-17.275 23-32.174v-46.621c0-16.386-9.759-30.526-23.765-36.94zm-35.235-45.87c11.633 0 21.098 9.464 21.098 21.098s-9.465 21.098-21.098 21.098-21.098-9.464-21.098-21.098 9.465-21.098 21.098-21.098zm37 129.431c0 6.617-5.383 12-12 12-6.075 0-11 4.925-11 11v83.333h-28v-83.333c0-6.075-4.925-11-11-11-6.617 0-12-5.383-12-12v-46.621c0-10.264 8.35-18.614 18.614-18.614h36.772c10.264 0 18.614 8.35 18.614 18.614z"/><path d="m291.235 300.106c4.946-7.014 7.863-15.556 7.863-24.772 0-23.764-19.334-43.098-43.098-43.098s-43.098 19.333-43.098 43.098c0 9.216 2.917 17.758 7.863 24.772-14.006 6.414-23.765 20.554-23.765 36.939v46.621c0 14.899 9.635 27.592 23 32.174v85.16c0 6.075 4.925 11 11 11h50c6.075 0 11-4.925 11-11v-85.159c13.365-4.583 23-17.275 23-32.174v-46.621c0-16.386-9.759-30.526-23.765-36.94zm-35.235-45.87c11.633 0 21.098 9.464 21.098 21.098s-9.465 21.098-21.098 21.098-21.098-9.464-21.098-21.098 9.465-21.098 21.098-21.098zm37 129.431c0 6.617-5.383 12-12 12-6.075 0-11 4.925-11 11v83.333h-28v-83.333c0-6.075-4.925-11-11-11-6.617 0-12-5.383-12-12v-46.621c0-10.264 8.35-18.614 18.614-18.614h36.773c10.264 0 18.613 8.35 18.613 18.614z"/><path d="m488.235 300.106c4.946-7.014 7.863-15.556 7.863-24.772 0-23.764-19.334-43.098-43.098-43.098s-43.098 19.333-43.098 43.098c0 9.216 2.917 17.758 7.863 24.772-14.006 6.414-23.765 20.554-23.765 36.939v46.621c0 14.899 9.635 27.592 23 32.174v85.16c0 6.075 4.925 11 11 11h50c6.075 0 11-4.925 11-11v-85.159c13.365-4.583 23-17.275 23-32.174v-46.621c0-16.386-9.759-30.526-23.765-36.94zm-35.235-45.87c11.633 0 21.098 9.464 21.098 21.098s-9.465 21.098-21.098 21.098-21.098-9.464-21.098-21.098 9.465-21.098 21.098-21.098zm37 129.431c0 6.617-5.383 12-12 12-6.075 0-11 4.925-11 11v83.333h-28v-83.333c0-6.075-4.925-11-11-11-6.617 0-12-5.383-12-12v-46.621c0-10.264 8.35-18.614 18.613-18.614h36.773c10.264 0 18.613 8.35 18.613 18.614v46.621z"/></g></g><g/><g/><g/><g/><g/><g/><g/><g/><g/><g/><g/><g/><g/><g/><g/></svg>