<svg id="Capa_1" enable-background="new 0 0 512 512" viewBox="0 0 512 512" xmlns="http://www.w3.org/2000/svg" fill="#052438"><g><path d="m508.778 75.785-72.563-72.563c-4.297-4.296-11.26-4.296-15.557 0l-72.563 72.563c-3.146 3.146-4.087 7.877-2.385 11.988 1.703 4.11 5.714 6.791 10.163 6.791h29.957v55.225c0 104.215-84.785 189-189 189h-75.424v22h75.424c116.345 0 211-94.654 211-211v-66.225c0-6.075-4.925-11-11-11h-14.4l46.007-46.007 46.007 46.007h-14.401c-6.075 0-11 4.925-11 11v69.436c0 66.51-25.9 129.04-72.931 176.069-47.031 47.031-109.56 72.931-176.07 72.931h-13.977v22h13.977c72.387 0 140.44-28.189 191.626-79.374 51.186-51.186 79.374-119.239 79.374-191.626v-58.436h29.958c4.449 0 8.46-2.68 10.163-6.791 1.702-4.11.761-8.842-2.385-11.988z" fill="#0496FF"/><path d="m501 446h-303.935v-14.52c0-37.982-28.136-69.506-64.659-74.85v-14.156c1.62-1.277 3.187-2.641 4.677-4.112 10.529-10.393 16.328-24.264 16.328-39.057v-43.724c0-22.607-18.393-41-41-41h-27.757c-22.607 0-41 18.393-41 41v43.07c0 17.595 8.238 33.376 21.005 43.58v14.399c-36.523 5.344-64.659 36.868-64.659 74.85v69.52c0 6.075 4.925 11 11 11h490c6.075 0 11-4.925 11-11v-44c0-6.075-4.925-11-11-11zm-435.346-147.349v-7.08h5.041c16.489 0 32.553-3.053 47.821-9.082l12.896 5.4v11.415c0 8.863-3.474 17.173-9.783 23.4-6.307 6.226-14.656 9.614-23.536 9.476-17.887-.231-32.439-15.272-32.439-33.529zm0-43.07c0-10.477 8.523-19 19-19h27.757c10.477 0 19 8.523 19 19v8.458l-8.629-3.614c-2.773-1.162-5.901-1.138-8.655.067-13.781 6.024-28.393 9.079-43.432 9.079h-5.041zm32.153 98.598c.246.003.489.005.734.005 4.041 0 8.01-.449 11.865-1.295v9.377l-11.874 11.874-11.874-11.874v-9.405c3.6.812 7.328 1.268 11.149 1.318zm-26.512 23.835 19.46 19.459c2.148 2.148 4.963 3.222 7.778 3.222s5.63-1.074 7.778-3.222l19.459-19.459c27.552 2.23 49.295 25.349 49.295 53.466v14.52h-153.065v-14.52c0-28.117 21.742-51.236 49.295-53.466zm418.705 111.986h-468v-22h468z"/></g><g/><g/><g/><g/><g/><g/><g/><g/><g/><g/><g/><g/><g/><g/><g/></svg>