<svg id="Capa_1" enable-background="new 0 0 512 512" viewBox="0 0 512 512" xmlns="http://www.w3.org/2000/svg" fill="#E6ECF2"><g><g><path d="m501 207.213h-12.007c-28.122 0-51 22.879-51 51v35.034c-19.987-15.431-48.885-13.987-67.204 4.331l-38.366 38.366c-11.196 3.194-21.406 9.195-29.689 17.478-12.978 12.978-20.125 30.233-20.125 48.587 0 10.769 2.478 21.152 7.133 30.522-4.165 1.567-7.133 5.575-7.133 10.287v58.182c0 6.075 4.925 11 11 11h111.499c6.075 0 11-4.925 11-11v-58.181c0-3.381-1.528-6.402-3.927-8.42l73.75-73.75c16.812-16.812 26.07-39.165 26.07-62.94v-79.496c-.001-6.075-4.926-11-11.001-11zm-106.893 282.787h-89.499v-36.181h89.499zm95.893-192.291c0 17.899-6.97 34.727-19.627 47.383l-86.727 86.726h-68.288c-6.958-8.364-10.75-18.794-10.75-29.81 0-12.478 4.859-24.208 13.682-33.031 6.155-6.156 13.87-10.456 22.311-12.435 1.994-.468 3.818-1.483 5.267-2.931l40.478-40.478c11.307-11.307 29.705-11.308 41.012 0l.712.712-47.112 47.112c-4.295 4.296-4.295 11.261 0 15.557 4.296 4.296 11.261 4.296 15.557 0l54.89-54.891c.913-.913 1.632-1.947 2.157-3.049 4.183-6.1 6.432-13.311 6.432-20.867v-39.496c0-15.99 13.009-29 29-29h1.006z"/><path d="m209.266 353.422c-8.283-8.283-18.493-14.283-29.689-17.478l-38.366-38.366c-18.319-18.318-47.218-19.762-67.204-4.331v-35.034c0-28.121-22.878-51-51-51h-12.007c-6.075 0-11 4.925-11 11v79.496c0 23.775 9.259 46.128 26.07 62.94l73.75 73.75c-2.4 2.018-3.928 5.039-3.928 8.42v58.181c0 6.075 4.925 11 11 11h111.499c6.075 0 11-4.925 11-11v-58.181c0-4.712-2.969-8.721-7.133-10.287 4.655-9.37 7.133-19.753 7.133-30.522.001-18.355-7.147-35.61-20.125-48.588zm-187.266-55.713v-68.496h1.006c15.991 0 29 13.01 29 29v39.496c0 7.556 2.25 14.766 6.432 20.866.525 1.103 1.244 2.137 2.157 3.05l54.89 54.891c4.296 4.296 11.261 4.296 15.557 0 4.295-4.296 4.295-11.261 0-15.557l-47.112-47.112.712-.712c11.307-11.308 29.706-11.308 41.012 0l40.478 40.478c1.449 1.448 3.273 2.463 5.267 2.931 8.44 1.979 16.155 6.279 22.311 12.435 8.823 8.823 13.682 20.553 13.682 33.031 0 11.016-3.792 21.445-10.75 29.81h-68.288l-86.727-86.726c-12.657-12.657-19.627-29.486-19.627-47.385zm185.392 192.291h-89.499v-36.181h89.499z"/></g><path d="m255.962 0c-86.315 0-156.538 70.223-156.538 156.538s70.223 156.538 156.538 156.538 156.538-70.223 156.538-156.538-70.223-156.538-156.538-156.538zm134.086 145.538h-64.782c-.981-33.578-6.415-65.481-15.579-90.812-3.624-10.019-7.716-18.757-12.21-26.162 50.584 16.449 88.109 62.105 92.571 116.974zm-129.604-123.455c10.066 3.467 20.666 18.32 28.555 40.127 8.335 23.04 13.306 52.293 14.262 83.328h-94.597c.956-31.035 5.927-60.288 14.262-83.328 7.889-21.807 18.49-36.661 28.556-40.127 1.488-.049 2.981-.083 4.481-.083s2.992.034 4.481.083zm-45.996 6.48c-4.495 7.405-8.586 16.143-12.21 26.162-9.164 25.331-14.598 57.234-15.579 90.812h-64.782c4.461-54.868 41.987-100.524 92.571-116.974zm-92.571 138.975h64.782c.981 33.579 6.416 65.484 15.58 90.815 3.624 10.018 7.715 18.755 12.209 26.16-50.584-16.45-88.11-62.107-92.571-116.975zm129.605 123.455c-10.066-3.466-20.667-18.318-28.556-40.124-8.335-23.04-13.307-52.295-14.263-83.331h94.597c-.956 31.036-5.927 60.291-14.263 83.331-7.889 21.806-18.489 36.659-28.555 40.124-1.488.049-2.981.083-4.481.083s-2.991-.034-4.479-.083zm45.995-6.481c4.494-7.404 8.585-16.142 12.209-26.16 9.164-25.331 14.599-57.236 15.58-90.815h64.782c-4.462 54.869-41.987 100.526-92.571 116.975z" fill="#0496FF"/></g><g/><g/><g/><g/><g/><g/><g/><g/><g/><g/><g/><g/><g/><g/><g/></svg>