<svg id="Capa_1" enable-background="new 0 0 512 512" viewBox="0 0 512 512" xmlns="http://www.w3.org/2000/svg" fill="#052438"><g><g><path d="m366.543 0h-221.086c-22.607 0-41 18.393-41 41v430c0 22.607 18.393 41 41 41h221.086c22.607 0 41-18.393 41-41v-430c0-22.607-18.393-41-41-41zm-169.587 22h118.088v22h-118.088zm188.587 449c0 10.477-8.523 19-19 19h-221.086c-10.477 0-19-8.523-19-19v-430c0-10.477 8.523-19 19-19h29.499v33c0 6.075 4.925 11 11 11h140.088c6.075 0 11-4.925 11-11v-33h29.499c10.477 0 19 8.523 19 19z"/><path d="m352.543 264h-193.086c-6.075 0-11 4.925-11 11v44c0 6.075 4.925 11 11 11h193.086c6.075 0 11-4.925 11-11v-44c0-6.075-4.925-11-11-11zm-11 44h-171.086v-22h171.086z"/><path d="m159.457 374h126.538c6.075 0 11-4.925 11-11s-4.925-11-11-11h-126.538c-6.075 0-11 4.925-11 11s4.925 11 11 11z"/><path d="m321.086 396h-161.629c-6.075 0-11 4.925-11 11s4.925 11 11 11h161.629c6.075 0 11-4.925 11-11s-4.925-11-11-11z"/><path d="m285.995 446h-59.99c-6.075 0-11 4.925-11 11s4.925 11 11 11h59.99c6.075 0 11-4.925 11-11s-4.925-11-11-11z"/></g><path d="m256 87.955c-42.482 0-77.044 34.562-77.044 77.044s34.562 77.044 77.044 77.044 77.044-34.562 77.044-77.044-34.562-77.044-77.044-77.044zm53.94 66.044h-21.18c-.695-13.352-2.675-26.286-6.045-37.116 13.807 7.697 23.976 21.163 27.225 37.116zm-64.668 22h21.457c-1.404 23.943-7.171 38.583-10.728 43.065-3.558-4.481-9.326-19.122-10.729-43.065zm0-22c1.404-23.943 7.171-38.583 10.728-43.065 3.557 4.482 9.325 19.123 10.728 43.065zm-15.987-37.116c-3.37 10.83-5.35 23.764-6.045 37.116h-21.18c3.249-15.953 13.418-29.419 27.225-37.116zm-27.225 59.116h21.179c.695 13.352 2.675 26.286 6.045 37.116-13.806-7.697-23.975-21.163-27.224-37.116zm80.655 37.116c3.37-10.83 5.35-23.764 6.045-37.116h21.179c-3.248 15.953-13.417 29.419-27.224 37.116z" fill="#0496FF"/></g><g/><g/><g/><g/><g/><g/><g/><g/><g/><g/><g/><g/><g/><g/><g/></svg>