<svg id="Capa_1" enable-background="new 0 0 512 512" viewBox="0 0 512 512" xmlns="http://www.w3.org/2000/svg" fill="#E6ECF2"><g><path d="m268.029 66.507c8.518 0 17.036-3.243 23.521-9.728 6.283-6.283 9.743-14.637 9.743-23.522s-3.46-17.239-9.743-23.522c-12.971-12.97-34.073-12.971-47.044 0-6.283 6.283-9.743 14.636-9.743 23.522 0 5.081 1.132 9.988 3.276 14.433l-21.834 21.834-51.335-51.335c-4.296-4.295-11.261-4.296-15.557 0-17.868 17.868-27.708 41.624-27.708 66.892 0 13.616 2.857 26.792 8.287 38.845l-10.019 10.019c-10.363 10.364-12.519 25.874-6.469 38.38l-46.953 46.953 15.557 15.557 46.942-46.942c4.51 2.193 9.495 3.35 14.658 3.35 2.6 0 5.154-.294 7.626-.866l44.201 44.202 15.557-15.557-40.63-40.63 6.999-6.998c12.053 5.43 25.229 8.287 38.845 8.287 25.269 0 49.024-9.84 66.892-27.708 4.296-4.296 4.296-11.261 0-15.557l-51.335-51.336 21.845-21.845c4.542 2.182 9.482 3.272 14.421 3.272zm-116.244 99.349c-2.184 2.184-5.088 3.387-8.177 3.387s-5.993-1.203-8.178-3.387c-4.509-4.509-4.509-11.847 0-16.355l6.197-6.197c2.367 3.019 4.931 5.914 7.686 8.669s5.65 5.319 8.669 7.686zm64.421-8.175c-19.393 0-37.624-7.552-51.336-21.264-13.713-13.712-21.265-31.944-21.265-51.336 0-15.674 4.935-30.592 14.068-42.976l101.508 101.508c-12.384 9.133-27.301 14.068-42.975 14.068zm43.857-132.389c2.196-2.196 5.08-3.294 7.965-3.294s5.77 1.098 7.966 3.294c2.128 2.127 3.3 4.957 3.3 7.965 0 3.009-1.172 5.838-3.3 7.966-4.392 4.392-11.537 4.394-15.931 0-2.128-2.127-3.3-4.957-3.3-7.966.001-3.008 1.173-5.837 3.3-7.965z" fill="#0496FF"/><g><path d="m506.954 352.881-47.689-30.699-41.334-83.134c-6.977-14.031-21.044-22.747-36.713-22.747h-340.218c-22.607 0-41 18.393-41 41v210.127c0 6.075 4.925 11 11 11h46.933c4.91 19.27 22.411 33.563 43.188 33.563s38.279-14.293 43.189-33.563h223.602c4.91 19.27 22.411 33.563 43.188 33.563s38.279-14.293 43.189-33.563h46.711c6.075 0 11-4.925 11-11v-105.297c0-3.741-1.9-7.225-5.046-9.25zm-108.723-104.038 34.778 69.949h-100.544v-80.49h48.753c7.261 0 13.78 4.039 17.013 10.541zm-297.11 241.149c-12.441 0-22.562-10.122-22.562-22.563s10.121-22.563 22.562-22.563 22.563 10.122 22.563 22.563-10.122 22.563-22.563 22.563zm309.98 0c-12.441 0-22.562-10.122-22.562-22.563s10.121-22.563 22.562-22.563 22.563 10.122 22.563 22.563-10.122 22.563-22.563 22.563zm78.899-33.563h-35.71c-4.91-19.27-22.412-33.563-43.189-33.563s-38.278 14.293-43.188 33.563h-223.603c-4.91-19.27-22.412-33.563-43.189-33.563s-38.278 14.293-43.188 33.563h-35.933v-199.127c0-10.477 8.523-19 19-19h269.465v91.49c0 6.075 4.925 11 11 11h126.064l42.471 27.34z"/><path d="m349.81 362.792h-28.345c-6.075 0-11 4.925-11 11s4.925 11 11 11h28.345c6.075 0 11-4.925 11-11s-4.925-11-11-11z"/><path d="m277.465 260.302c-6.075 0-11 4.925-11 11v152.127c0 6.075 4.925 11 11 11s11-4.925 11-11v-152.127c0-6.075-4.925-11-11-11z"/></g></g><g/><g/><g/><g/><g/><g/><g/><g/><g/><g/><g/><g/><g/><g/><g/></svg>