<svg id="Capa_1" enable-background="new 0 0 512 512" viewBox="0 0 512 512" xmlns="http://www.w3.org/2000/svg" fill="#052438"><g><g fill="#0496FF"><path d="m163.105 139.422c3.524-5.291 5.58-11.64 5.58-18.459 0-18.411-14.979-33.389-33.389-33.389s-33.389 14.979-33.389 33.389c0 6.82 2.056 13.168 5.58 18.459-18.147 9.891-30.487 29.145-30.487 51.226v6.396h22v-6.396c0-20.014 16.282-36.296 36.296-36.296s36.296 16.283 36.296 36.296v6.396h22v-6.396c0-22.081-12.341-41.335-30.487-51.226zm-39.198-18.459c0-6.28 5.109-11.389 11.389-11.389s11.389 5.109 11.389 11.389-5.109 11.389-11.389 11.389-11.389-5.109-11.389-11.389z"/><path d="m390.956 87.574c-42.482 0-77.045 34.562-77.045 77.044s34.562 77.044 77.045 77.044 77.044-34.561 77.044-77.044-34.562-77.044-77.044-77.044zm53.94 66.044h-21.179c-.695-13.352-2.675-26.286-6.045-37.116 13.806 7.697 23.975 21.163 27.224 37.116zm-64.669 22h21.458c-1.404 23.943-7.171 38.583-10.728 43.065-3.558-4.481-9.326-19.122-10.73-43.065zm0-22c1.404-23.943 7.171-38.583 10.729-43.065 3.557 4.482 9.325 19.123 10.728 43.065zm-15.987-37.115c-3.37 10.83-5.35 23.764-6.045 37.115h-21.179c3.248-15.952 13.417-29.419 27.224-37.115zm-27.225 59.115h21.179c.695 13.352 2.675 26.285 6.045 37.115-13.806-7.696-23.975-21.162-27.224-37.115zm80.656 37.116c3.37-10.83 5.35-23.764 6.045-37.116h21.179c-3.248 15.953-13.417 29.42-27.224 37.116z"/></g><path d="m501 43.574h-490c-6.075 0-11 4.925-11 11v352.089c0 6.075 4.925 11 11 11h23.843l-14.078 35.731c-1.334 3.387-.907 7.214 1.142 10.223s5.453 4.81 9.093 4.81h30c2.946 0 5.77-1.182 7.837-3.281l46.768-47.483h280.79l46.768 47.483c2.067 2.099 4.891 3.281 7.837 3.281h30c3.64 0 7.044-1.801 9.093-4.81s2.476-6.836 1.142-10.223l-14.078-35.731h23.843c6.075 0 11-4.925 11-11v-352.089c0-6.075-4.925-11-11-11zm-11 22v286.089h-468v-22h435c6.075 0 11-4.925 11-11v-44c0-6.075-4.925-11-11-11h-165.089v-66.618c0-4.924-3.235-9.092-7.696-10.495l7.485-37.631c.643-3.23-.196-6.578-2.286-9.125-2.089-2.546-5.209-4.021-8.503-4.021h-65.703c-5.248 0-9.765 3.707-10.789 8.854l-8.239 41.418h-124.326c-6.075 0-11 4.925-11 11v66.618h-38.854v-198.089zm-468 220.089h424v22h-424zm239.884-99.619h-43.272l5.624-28.272h43.272zm8.027 22v55.618h-187.057v-55.618zm-213.516 238.382h-9.237l11.332-28.764h26.236zm408.448 0h-9.237l-28.331-28.764h26.236zm-442.843-50.763v-22h468v22z"/></g><g/><g/><g/><g/><g/><g/><g/><g/><g/><g/><g/><g/><g/><g/><g/></svg>