<svg id="Capa_1" enable-background="new 0 0 512 512" viewBox="0 0 512 512" xmlns="http://www.w3.org/2000/svg" fill="#E6ECF2"><g><g fill="#0496FF"><path d="m278 88c-6.075 0-11 4.925-11 11v44c0 6.075 4.925 11 11 11s11-4.925 11-11v-44c0-6.075-4.925-11-11-11z"/><path d="m322 99.803c-6.075 0-11 4.925-11 11v20.394c0 6.075 4.925 11 11 11s11-4.925 11-11v-20.394c0-6.075-4.925-11-11-11z"/><path d="m234 99.803c-6.075 0-11 4.925-11 11v20.394c0 6.075 4.925 11 11 11s11-4.925 11-11v-20.394c0-6.075-4.925-11-11-11z"/></g><g><path d="m380 0h-204c-22.607 0-41 18.393-41 41v32.854h-33c-6.075 0-11 4.925-11 11v57.549 57.549c0 6.075 4.925 11 11 11h33v260.048c0 22.607 18.393 41 41 41h204c22.607 0 41-18.393 41-41v-430c0-22.607-18.393-41-41-41zm-267 95.854h22v35.549h-22zm0 93.099v-35.549h22v35.549zm286 282.047c0 10.477-8.523 19-19 19h-204c-10.477 0-19-8.523-19-19v-430c0-10.477 8.523-19 19-19h204c10.477 0 19 8.523 19 19z"/><path d="m366 44h-176c-6.075 0-11 4.925-11 11v132c0 6.075 4.925 11 11 11h176c6.075 0 11-4.925 11-11v-132c0-6.075-4.925-11-11-11zm-11 132h-154v-110h154z"/><path d="m376.16 226.79c-2.689-7.099-12.733-9.078-17.94-3.57-6.887 6.809-1.909 18.851 7.781 18.78 7.587.223 13.27-8.283 10.159-15.21z"/><path d="m194.21 241.16c7.1-2.696 9.08-12.728 3.57-17.94-6.798-6.888-18.859-1.909-18.78 7.781-.225 7.585 8.285 13.27 15.21 10.159z"/><path d="m288.16 226.79c-2.692-7.099-12.733-9.081-17.94-3.57-6.193 6.012-2.863 17.01 5.63 18.57 8.434 1.823 15.745-7.079 12.31-15z"/><path d="m332.16 226.79c-2.687-7.099-12.735-9.08-17.94-3.57-6.896 6.8-1.907 18.855 7.781 18.78 7.586.222 13.27-8.284 10.159-15.21z"/><path d="m244.16 226.79c-2.694-7.097-12.732-9.088-17.94-3.57-6.897 6.808-1.91 18.846 7.781 18.78 7.587.215 13.27-8.28 10.159-15.21z"/><path d="m201.84 279.21c2.693 7.1 12.73 9.079 17.94 3.57 6.188-6.011 2.861-17.013-5.631-18.569-8.429-1.826-15.755 7.084-12.309 14.999z"/><path d="m289.84 279.21c2.688 7.1 12.735 9.081 17.94 3.57 6.182-6.002 2.865-17.03-5.631-18.56-8.427-1.846-15.756 7.08-12.309 14.99z"/><path d="m337.89 284.15c7.11 4.894 17.243-.517 17.11-9.15.133-8.633-10.001-14.043-17.11-9.149-6.434 4.038-6.436 14.257 0 18.299z"/><path d="m245.84 279.21c2.689 7.101 12.734 9.085 17.94 3.57 6.184-5.996 2.865-17.034-5.631-18.56-8.427-1.846-15.756 7.08-12.309 14.99z"/><path d="m278 300.355c-48.327 0-87.645 39.317-87.645 87.645s39.317 87.645 87.645 87.645 87.645-39.317 87.645-87.645-39.318-87.645-87.645-87.645zm56.731 54.645h-23.731v-23.731c9.807 5.727 18.004 13.924 23.731 23.731zm8.914 33c0 3.747-.316 7.422-.922 11h-30.441c1.115-3.469 1.719-7.165 1.719-11s-.603-7.531-1.719-11h30.441c.606 3.578.922 7.253.922 11zm-131.29 0c0-3.747.316-7.422.922-11h30.441c-1.115 3.469-1.719 7.165-1.719 11s.603 7.531 1.719 11h-30.441c-.606-3.578-.922-7.253-.922-11zm51.645 0c0-7.72 6.28-14 14-14s14 6.28 14 14-6.28 14-14 14-14-6.28-14-14zm25-64.722v30.441c-3.469-1.115-7.165-1.719-11-1.719s-7.531.603-11 1.719v-30.441c3.578-.606 7.253-.922 11-.922s7.422.315 11 .922zm-44 7.991v23.731h-23.731c5.727-9.807 13.924-18.004 23.731-23.731zm-23.731 89.731h23.731v23.731c-9.807-5.727-18.004-13.924-23.731-23.731zm45.731 31.722v-30.441c3.469 1.115 7.165 1.719 11 1.719s7.531-.603 11-1.719v30.441c-3.578.606-7.253.922-11 .922s-7.422-.315-11-.922zm44-7.991v-23.731h23.731c-5.727 9.807-13.924 18.004-23.731 23.731z"/></g></g><g/><g/><g/><g/><g/><g/><g/><g/><g/><g/><g/><g/><g/><g/><g/></svg>