<svg id="Capa_1" enable-background="new 0 0 512 512" height="512" viewBox="0 0 512 512" width="512" xmlns="http://www.w3.org/2000/svg" fill="#E6ECF2"><g id="Presentation_2_"><g fill="#0496FF"><path d="m149.257 265.983c-6.075 0-11-4.925-11-11v-91.493c0-6.075 4.925-11 11-11h76.245c14.579.541 14.568 21.464 0 22h-65.245v80.494c0 6.075-4.925 10.999-11 10.999z"/><path d="m362.743 265.983c-6.075 0-11-4.925-11-11v-80.493h-65.245c-14.579-.541-14.568-21.464 0-22h76.245c6.075 0 11 4.925 11 11v91.494c0 6.075-4.925 10.999-11 10.999z"/><path d="m256 265.983c-6.075 0-11-4.925-11-11v-60.996c.541-14.579 21.464-14.568 22 0v60.996c0 6.076-4.925 11-11 11z"/></g><path d="m501 0h-490c-6.075 0-11 4.925-11 11v60.996c0 6.075 4.925 11 11 11h18.481v293.979c0 6.075 4.925 11 11 11h204.519v102.025h-19.498c-14.579.541-14.568 21.464 0 22h60.996c14.579-.541 14.568-21.464 0-22h-19.498v-102.025h203.502c6.075 0 11-4.925 11-11v-293.979h19.498c6.075 0 11-4.925 11-11v-60.996c0-6.075-4.925-11-11-11zm-41.498 365.975h-408.021v-282.979h408.021zm30.498-304.979h-468v-38.996h468z"/><path d="m286.498 204.988h-60.996c-6.075 0-11-4.925-11-11v-60.996c0-6.075 4.925-11 11-11h60.996c6.075 0 11 4.925 11 11v60.996c0 6.075-4.925 11-11 11zm-49.996-22h38.996v-38.996h-38.996z"/><path d="m408.489 326.979h-60.995c-6.075 0-11-4.925-11-11v-60.996c0-6.075 4.925-11 11-11h60.995c6.075 0 11 4.925 11 11v60.996c0 6.075-4.924 11-11 11zm-49.995-22h38.995v-38.996h-38.995z"/><path d="m164.506 326.979h-60.995c-6.075 0-11-4.925-11-11v-60.996c0-6.075 4.925-11 11-11h60.995c6.075 0 11 4.925 11 11v60.996c0 6.075-4.925 11-11 11zm-49.995-22h38.995v-38.996h-38.995z"/><path d="m286.498 326.979h-60.996c-6.075 0-11-4.925-11-11v-60.996c0-6.075 4.925-11 11-11h60.996c6.075 0 11 4.925 11 11v60.996c0 6.075-4.925 11-11 11zm-49.996-22h38.996v-38.996h-38.996z"/></g></svg>