<svg id="Capa_1" enable-background="new 0 0 511.93 511.93" height="512" viewBox="0 0 511.93 511.93" width="512" xmlns="http://www.w3.org/2000/svg" fill="#E6ECF2"><g><path d="m493.571 0h-475.211c-6.075 0-11 4.925-11 11v59.827c0 6.075 4.925 11 11 11h14.1v317.413c0 6.075 4.925 11 11 11h136.76l-48.665 78.038c-3.215 5.155-1.642 11.94 3.514 15.154 5.076 3.188 11.919 1.685 15.154-3.513l20.433-32.765h74.31v33.846c.541 14.579 21.464 14.568 22 0v-33.846h74.31l20.433 32.765c3.235 5.198 10.078 6.7 15.154 3.513 5.155-3.215 6.728-10 3.514-15.154l-48.665-78.038h136.758c6.075 0 11-4.925 11-11v-317.413h14.101c6.075 0 11-4.925 11-11v-59.827c0-6.075-4.925-11-11-11zm-309.196 445.154 21.772-34.913h38.818v34.913zm143.18 0h-60.59v-34.913h38.818zm129.915-56.913h-403.01v-306.414h403.01zm25.101-328.414h-453.211v-37.827h453.211z"/><g><path d="m349.115 347.305h-59.776c-6.075 0-11-4.925-11-11v-14.612c-1.047-27.51-40.482-27.488-41.519 0v14.612c0 6.075-4.925 11-11 11h-59.776c-6.075 0-11-4.925-11-11v-34.973h-3.611c-56.663-2.156-56.62-83.383 0-85.519h3.611v-40.889c0-6.075 4.925-11 11-11h48.776v-3.612c2.156-56.662 83.382-56.62 85.519 0v3.612h48.776c6.075 0 11 4.925 11 11v161.381c0 6.075-4.925 11-11 11zm-48.777-22h37.776v-139.381h-48.776c-6.075 0-11-4.925-11-11v-14.612c-1.047-27.51-40.482-27.488-41.519 0v14.612c0 6.075-4.925 11-11 11h-48.776v40.889c0 6.075-4.925 11-11 11h-14.611c-27.51 1.047-27.489 40.482 0 41.519h14.611c6.075 0 11 4.925 11 11v34.973h37.776v-3.612c2.156-56.662 83.382-56.62 85.519 0z" fill="#0496FF"/></g></g></svg>