<svg id="Capa_1" enable-background="new 0 0 512 512" viewBox="0 0 512 512" xmlns="http://www.w3.org/2000/svg" fill="#052438"><g><g><path d="m309.967 446 14.292-44.717c.73-2.284.694-4.744-.103-7.005l-8.528-24.199 19.023-61.906c6.844 4.999 13.19 10.753 18.903 17.204l16.469-14.586c-24.864-28.076-59.847-45.027-97.034-47.291v-21.075c3.919-2.803 7.641-5.943 11.129-9.406 17.058-16.932 26.452-39.492 26.452-63.526v-79.988c-.001-49.353-40.152-89.505-89.506-89.505s-89.505 40.152-89.505 89.505v38.109c0 23.433-9.125 45.462-25.694 62.031-24.597 24.597-24.597 64.62 0 89.217l2.581 2.581c-42.803 24.232-71.755 70.195-71.755 122.794l-.002 52.763c0 2.917 1.159 5.716 3.222 7.778 2.063 2.063 4.861 3.222 7.778 3.222h342.64v-22zm-16.294-72.029 8.506 24.134-15.308 47.895h-23.264l8.781-160.494c14.941 1.002 29.448 4.815 42.798 11.112l-21.653 70.466c-.692 2.251-.642 4.665.14 6.887zm-153.723 24.134 8.505-24.135c.783-2.221.832-4.635.14-6.887l-21.655-70.471c13.134-6.218 27.58-10.101 42.8-11.11l8.782 160.498h-23.264zm52.963-91.755 19.756 23.334c2.09 2.469 5.161 3.892 8.395 3.892s6.305-1.424 8.395-3.892l19.756-23.333-7.641 139.649h-41.02zm58.075-36.142-29.924 35.344-29.924-35.344v-16.432c9.163 3.308 19.005 5.143 29.248 5.219.229.002.456.003.684.003 10.352 0 20.436-1.745 29.917-5.099v16.309zm37.581-100.715c0 18.126-7.085 35.142-19.95 47.912-12.742 12.647-29.61 19.594-47.552 19.594-.171 0-.345-.001-.516-.002-36.939-.274-66.992-30.998-66.992-68.489v-36.477h33.605c20.488 0 40.238-7.359 55.678-20.489 12.921 10.988 28.862 17.934 45.727 19.908zm-67.505-147.493c37.223 0 67.505 30.283 67.505 67.505v19.744c-14.377-2.274-27.694-9.421-37.551-20.373-2.086-2.317-5.058-3.641-8.176-3.641s-6.09 1.323-8.176 3.641c-12.101 13.444-29.414 21.155-47.502 21.155h-33.605v-20.526c0-37.222 30.283-67.505 67.505-67.505zm-99.643 241.306c-16.02-16.019-16.02-42.084 0-58.104 4.728-4.728 8.971-9.812 12.705-15.191 5.176 21.289 17.852 39.682 35.013 52.11v21.376c-13.75.826-26.974 3.632-39.392 8.136zm-62.73 140.932c.001-39.383 19.232-74.359 48.797-96.03l19.012 61.871-8.527 24.199c-.797 2.261-.833 4.721-.104 7.004l14.292 44.718h-73.471z"/><path d="m236.882 181.62c-3.812 4.66-9.446 7.333-15.457 7.333-5.978 0-11.591-2.648-15.402-7.266-3.866-4.685-10.799-5.351-15.485-1.482-4.686 3.867-5.35 10.8-1.482 15.485 8.005 9.7 19.803 15.263 32.37 15.263 12.636 0 24.476-5.614 32.484-15.402 3.847-4.702 3.154-11.632-1.548-15.479s-11.633-3.154-15.48 1.548z"/></g><path d="m470.088 299.082c3.406-7.79 5.202-16.262 5.202-24.931 0-34.32-27.922-62.242-62.242-62.242s-62.241 27.921-62.241 62.242c0 8.669 1.796 17.141 5.201 24.931-3.134 1.938-5.223 5.406-5.223 9.362v70.14c0 6.075 4.925 11 11 11h15.163l5.487 111.955c.287 5.859 5.12 10.461 10.986 10.461h39.253c5.866 0 10.699-4.603 10.986-10.461l5.487-111.955h15.162c6.075 0 11-4.925 11-11v-70.14c.002-3.956-2.087-7.424-5.221-9.362zm-57.04-65.173c22.189 0 40.242 18.052 40.242 40.242 0 8.404-2.609 16.52-7.423 23.292h-65.638c-4.813-6.772-7.422-14.888-7.422-23.292 0-22.19 18.051-40.242 40.241-40.242zm9.153 256.091h-18.306l-4.921-100.417h28.147zm31.11-122.417h-80.525v-48.14h80.525z" fill="#0496FF"/></g><g/><g/><g/><g/><g/><g/><g/><g/><g/><g/><g/><g/><g/><g/><g/></svg>