<svg id="Layer_1" enable-background="new 0 0 512 512" viewBox="0 0 512 512" xmlns="http://www.w3.org/2000/svg" fill="#E6ECF2"><g><g><g><path d="m285.908 155.853h-172.363c-6.075 0-11-4.925-11-11v-68.749c0-6.075 4.925-11 11-11h172.363c6.075 0 11 4.925 11 11v68.749c0 6.075-4.925 11-11 11zm-161.363-22h150.363v-46.749h-150.363z" fill="#0496FF"/></g></g><g><g><g><path d="m375.793 417.459c-6.075 0-11-4.925-11-11v-16.784c0-6.075 4.925-11 11-11s11 4.925 11 11v16.784c0 6.075-4.925 11-11 11z" fill="#0496FF"/></g><g><path d="m375.788 462.109c-4.731 0-9.004-3.156-10.462-7.639-1.459-4.487.226-9.567 4.065-12.305 3.431-2.447 8.028-2.7 11.72-.681 3.986 2.18 6.214 6.756 5.558 11.24-.778 5.315-5.513 9.385-10.881 9.385z" fill="#0496FF"/></g></g><g><path d="m285.349 191.748h-172.363c-6.075 0-11 4.925-11 11s4.925 11 11 11h172.362c6.075 0 11-4.925 11-11s-4.924-11-10.999-11z"/><path d="m285.349 241.731h-172.363c-6.075 0-11 4.925-11 11s4.925 11 11 11h172.362c6.075 0 11-4.925 11-11s-4.924-11-10.999-11z"/><path d="m285.349 291.714h-172.363c-6.075 0-11 4.925-11 11s4.925 11 11 11h172.362c6.075 0 11-4.925 11-11s-4.924-11-10.999-11z"/><path d="m483.867 451.895-73.75-123.972c-7.251-12.188-20.055-19.472-34.263-19.493v-269.371c0-21.538-17.569-39.059-39.166-39.059h-275.041c-21.597 0-39.167 17.521-39.167 39.059v371.31c0 21.537 17.57 39.059 39.167 39.059h207.541l-1.468 2.468c-7.397 12.433-7.544 27.362-.394 39.938 7.182 12.626 20.16 20.166 34.718 20.166h147.498c14.557 0 27.535-7.539 34.717-20.167 7.15-12.575 7.004-27.505-.392-39.938zm-201.722-24.468h-220.498c-9.466 0-17.167-7.652-17.167-17.059v-371.309c0-9.407 7.701-17.059 17.167-17.059h275.042c9.466 0 17.166 7.652 17.166 17.059v275.862c-4.963 3.259-9.208 7.659-12.387 13.002l-59.194 99.506c-.043-.001-.086-.002-.129-.002zm182.99 53.53c-3.22 5.662-9.049 9.043-15.593 9.043h-147.498c-6.544 0-12.373-3.381-15.594-9.044-3.189-5.608-3.123-12.268.176-17.813h.001l73.749-123.972c3.256-5.474 9.019-8.741 15.416-8.741 6.398 0 12.161 3.268 15.417 8.741l73.75 123.972c3.3 5.545 3.365 12.206.176 17.814z"/><path d="m220.838 341.697h-107.852c-6.075 0-11 4.925-11 11s4.925 11 11 11h107.852c6.075 0 11-4.925 11-11s-4.925-11-11-11z"/></g></g></g><g/><g/><g/><g/><g/><g/><g/><g/><g/><g/><g/><g/><g/><g/><g/></svg>