<svg id="Layer_1" enable-background="new 0 0 512 512" viewBox="0 0 512 512" xmlns="http://www.w3.org/2000/svg" fill="#052438"><g><g><path d="m256 252.441c-51.062 0-92.604 41.458-92.604 92.418s41.542 92.418 92.604 92.418 92.604-41.459 92.604-92.418-41.542-92.418-92.604-92.418zm0 162.837c-38.932 0-70.604-31.59-70.604-70.418s31.673-70.418 70.604-70.418 70.604 31.589 70.604 70.418-31.672 70.418-70.604 70.418z"/><path d="m462.662 40.644h-266.08l-21.659-28.967c-2.077-2.777-5.342-4.413-8.81-4.413h-116.775c-27.205.001-49.338 22.227-49.338 49.548v308.24c0 27.32 22.133 49.546 49.338 49.546h77.743c.248.455.497.909.75 1.361l-5.636 10.333c-2.34 4.288-1.57 9.605 1.888 13.055l37.235 37.143c3.446 3.438 8.741 4.2 13.017 1.88l10.392-5.641c9.839 5.473 20.241 9.774 31.058 12.845l3.34 11.284c1.383 4.672 5.675 7.878 10.548 7.878h52.657c4.873 0 9.165-3.206 10.548-7.878l3.34-11.283c10.815-3.07 21.22-7.373 31.059-12.845l10.392 5.641c4.28 2.323 9.572 1.556 13.017-1.879l37.235-37.143c3.458-3.45 4.228-8.767 1.889-13.056l-5.637-10.333c.253-.452.502-.906.75-1.361h77.743c27.205 0 49.338-22.227 49.338-49.546v-274.863c-.004-27.319-22.137-49.546-49.342-49.546zm-121.709 414.478-8.631-4.685c-3.46-1.878-7.658-1.765-11.011.298-11.292 6.944-23.543 12.01-36.415 15.058-3.837.908-6.895 3.801-8.014 7.582l-2.771 9.361h-36.226l-2.771-9.362c-1.119-3.781-4.177-6.674-8.014-7.582-12.872-3.047-25.123-8.113-36.414-15.057-3.353-2.062-7.552-2.175-11.011-.298l-8.631 4.685-25.593-25.53 4.672-8.566c1.894-3.47 1.779-7.688-.299-11.05-6.959-11.26-12.035-23.476-15.089-36.309-.913-3.837-3.811-6.891-7.594-8.005l-9.389-2.766v-36.073l9.389-2.765c3.783-1.114 6.681-4.168 7.594-8.005 3.054-12.833 8.13-25.049 15.089-36.308 2.078-3.362 2.192-7.581.299-11.051l-4.672-8.566 25.593-25.53 8.632 4.685c3.457 1.878 7.657 1.764 11.01-.298 11.291-6.944 23.542-12.01 36.414-15.057 3.837-.908 6.895-3.801 8.014-7.582l2.771-9.361h36.226l2.771 9.361c1.119 3.781 4.177 6.674 8.014 7.582 12.873 3.047 25.125 8.114 36.415 15.058 3.353 2.062 7.551 2.175 11.011.298l8.631-4.685 25.593 25.53-4.673 8.566c-1.893 3.47-1.778 7.688.3 11.05 6.959 11.26 12.035 23.476 15.088 36.308.912 3.837 3.81 6.892 7.594 8.006l9.39 2.765v36.073l-9.39 2.766c-3.784 1.114-6.682 4.169-7.594 8.006-3.053 12.832-8.129 25.047-15.088 36.308-2.078 3.362-2.192 7.581-.3 11.05l4.673 8.566zm149.047-90.071c0 15.189-12.264 27.546-27.338 27.546h-68.026c.866-2.505 1.665-5.034 2.393-7.587l11.322-3.335c4.68-1.378 7.893-5.673 7.893-10.552v-52.528c0-4.878-3.213-9.174-7.893-10.552l-11.322-3.334c-3.075-10.776-7.383-21.143-12.859-30.948l5.637-10.333c2.339-4.289 1.569-9.605-1.889-13.056l-37.235-37.142c-3.444-3.437-8.739-4.202-13.017-1.88l-10.392 5.641c-9.839-5.472-20.242-9.774-31.059-12.845l-3.34-11.283c-1.383-4.672-5.675-7.878-10.548-7.878h-52.657c-4.873 0-9.165 3.206-10.548 7.878l-3.34 11.283c-10.815 3.07-21.219 7.373-31.058 12.845l-10.393-5.64c-4.275-2.321-9.569-1.558-13.016 1.88l-37.235 37.143c-3.458 3.45-4.228 8.768-1.888 13.056l5.636 10.333c-5.477 9.805-9.784 20.171-12.859 30.948l-11.322 3.334c-4.68 1.378-7.893 5.673-7.893 10.552v52.528c0 4.878 3.213 9.174 7.893 10.552l11.322 3.335c.729 2.553 1.527 5.083 2.393 7.587h-68.024c-15.074-.001-27.338-12.359-27.338-27.548v-308.239c0-15.189 12.264-27.547 27.338-27.547h111.266l21.659 28.967c2.077 2.777 5.342 4.413 8.81 4.413h271.59c15.073-.001 27.337 12.356 27.337 27.545z"/></g><g><path d="m282.84 372.396c-1.968 0-3.959-.528-5.758-1.635l-26.851-16.536c-3.251-2.002-5.231-5.548-5.231-9.366v-36.344c0-6.075 4.925-11 11-11s11 4.925 11 11v30.199l21.619 13.314c5.173 3.186 6.783 9.961 3.598 15.134-2.078 3.376-5.685 5.234-9.377 5.234z" fill="#0496FF"/></g></g><g/><g/><g/><g/><g/><g/><g/><g/><g/><g/><g/><g/><g/><g/><g/></svg>