<svg id="Capa_1" enable-background="new 0 0 512 512" viewBox="0 0 512 512" xmlns="http://www.w3.org/2000/svg" fill="#052438"><g><path d="m508.778 103.222-63.597-63.596c-2.063-2.063-4.861-3.222-7.778-3.222s-5.715 1.159-7.778 3.222l-63.596 63.596c-3.146 3.146-4.087 7.877-2.385 11.988 1.703 4.11 5.714 6.791 10.163 6.791h23.911v254.765h22v-265.766c0-6.075-4.925-11-11-11h-8.354l37.039-37.04 37.04 37.04h-8.354c-6.075 0-11 4.925-11 11v265.765h22v-254.765h23.911c4.449 0 8.46-2.68 10.163-6.791 1.702-4.11.761-8.841-2.385-11.987z" fill="#0496FF"/><g><path d="m113.235 350.022c-6.075 0-11 4.925-11 11v33.187l-15.784 15.783c-4.295 4.296-4.295 11.261 0 15.557 2.148 2.148 4.963 3.222 7.778 3.222s5.63-1.074 7.778-3.222l19.005-19.005c2.062-2.063 3.222-4.861 3.222-7.778v-37.743c.001-6.076-4.924-11.001-10.999-11.001z"/><path d="m501 365.765h-138.652v-214.765c0-6.075-4.925-11-11-11h-57.371c-6.075 0-11 4.925-11 11v214.765h-35.371v-174.765c0-6.075-4.925-11-11-11h-57.371c-6.075 0-11 4.925-11 11v108.816c-6.922-3.863-14.286-7.021-22-9.376v-279.44c0-6.075-4.925-11-11-11h-44c-6.075 0-11 4.925-11 11v279.44c-46.391 14.161-80.235 57.362-80.235 108.325 0 62.438 50.797 113.235 113.235 113.235 50.963 0 94.165-33.844 108.325-80.235h279.44c6.075 0 11-4.925 11-11v-44c0-6.075-4.925-11-11-11zm-196.023-203.765h35.371v203.765h-35.371zm-114.742 40h35.371v163.765h-4.046c-5.905-19.346-16.861-36.506-31.325-49.943zm-5.207 253.003-7.577-7.577c-4.296-4.296-11.26-4.295-15.556 0s-4.295 11.26 0 15.556l7.577 7.576c-12.784 10.036-28.304 16.732-45.237 18.776v-10.753c0-6.075-4.925-11-11-11s-11 4.925-11 11v10.753c-16.933-2.044-32.454-8.74-45.237-18.776l7.577-7.576c4.296-4.296 4.296-11.261 0-15.556-4.296-4.297-11.261-4.296-15.556 0l-7.577 7.577c-10.036-12.784-16.732-28.305-18.776-45.238h10.753c6.075 0 11-4.925 11-11s-4.925-11-11-11h-10.754c2.044-16.933 8.74-32.454 18.776-45.237l7.577 7.577c2.148 2.148 4.963 3.222 7.778 3.222s5.63-1.074 7.778-3.222c4.295-4.296 4.295-11.261 0-15.557l-7.577-7.577c12.784-10.036 28.304-16.732 45.237-18.776v10.753c0 6.075 4.925 11 11 11s11-4.925 11-11v-10.753c16.933 2.044 32.454 8.74 45.237 18.776l-7.577 7.577c-4.295 4.296-4.295 11.261 0 15.557 2.148 2.148 4.963 3.222 7.778 3.222s5.63-1.074 7.778-3.222l7.577-7.577c10.036 12.784 16.732 28.304 18.776 45.237h-10.753c-6.075 0-11 4.925-11 11s4.925 11 11 11h10.753c-2.043 16.933-8.739 32.454-18.775 45.238zm-82.793-433.003h22v264.066c-3.621-.351-7.289-.536-11-.536s-7.379.185-11 .536zm387.765 387.765h-264.066c.351-3.621.536-7.289.536-11s-.185-7.379-.536-11h264.066z"/></g></g><g/><g/><g/><g/><g/><g/><g/><g/><g/><g/><g/><g/><g/><g/><g/></svg>