<svg id="Capa_1" enable-background="new 0 0 512 512" viewBox="0 0 512 512" xmlns="http://www.w3.org/2000/svg" fill="#052438"><g><g><path d="m337.938 490h-30.344l-10.926-48.072-21.453 4.875 9.818 43.197h-58.066l9.818-43.197-21.453-4.875-10.926 48.072h-30.344c-6.075 0-11 4.925-11 11s4.925 11 11 11h163.875c6.075 0 11-4.925 11-11s-4.924-11-10.999-11z"/><path d="m475.962 71.675c6.917-7.616 11.137-17.723 11.137-28.797 0-23.643-19.235-42.878-42.878-42.878s-42.877 19.235-42.877 42.878c0 11.074 4.22 21.181 11.137 28.797-11.296 6.014-20.69 15.132-27.055 26.208h-98.318c-4.541-12.803-16.768-22-31.108-22s-26.567 9.197-31.108 22h-98.318c-6.365-11.076-15.758-20.195-27.055-26.208 6.916-7.616 11.137-17.723 11.137-28.797 0-23.643-19.235-42.878-42.877-42.878-23.643 0-42.878 19.235-42.878 42.878 0 11.074 4.221 21.181 11.137 28.797-21.418 11.403-36.038 33.953-36.038 59.863v11.469c0 6.075 4.925 11 11 11h113.557c6.075 0 11-4.925 11-11v-11.469c0-3.975-.364-7.865-1.023-11.654h90.358c3.32 9.36 10.748 16.788 20.108 20.108v84.367h22v-84.367c9.36-3.32 16.788-10.748 20.107-20.108h90.358c-.66 3.789-1.023 7.679-1.023 11.654v11.469c0 6.075 4.925 11 11 11h113.558c6.075 0 11-4.925 11-11v-11.469c0-25.91-14.62-48.46-36.038-59.863zm-408.183-49.675c11.512 0 20.877 9.366 20.877 20.878s-9.366 20.878-20.877 20.878c-11.512 0-20.878-9.366-20.878-20.878s9.366-20.878 20.878-20.878zm45.778 110.007h-91.557v-.469c0-25.242 20.536-45.778 45.779-45.778 25.242 0 45.778 20.536 45.778 45.778zm142.443-34.123c6.065 0 11 4.935 11 11s-4.935 11-11 11-11-4.935-11-11 4.935-11 11-11zm188.221-75.884c11.512 0 20.878 9.366 20.878 20.878s-9.366 20.878-20.878 20.878-20.877-9.366-20.877-20.878 9.365-20.878 20.877-20.878zm45.779 110.007h-91.557v-.469c0-25.242 20.536-45.778 45.778-45.778 25.243 0 45.779 20.536 45.779 45.778z"/><path d="m323.779 388.896c0-25.91-14.62-48.46-36.038-59.863 6.917-7.616 11.137-17.723 11.137-28.797 0-23.643-19.235-42.878-42.878-42.878s-42.878 19.235-42.878 42.878c0 11.074 4.221 21.181 11.137 28.797-21.418 11.402-36.038 33.953-36.038 59.863v.469h-88.565v22h312.688v-22h-88.565zm-67.779-109.538c11.512 0 20.878 9.366 20.878 20.878s-9.366 20.878-20.878 20.878-20.878-9.366-20.878-20.878 9.366-20.878 20.878-20.878zm-45.779 109.538c0-25.242 20.536-45.778 45.779-45.778s45.779 20.536 45.779 45.778v.469h-91.558z"/></g><path d="m412.344 213.358h-312.688c-6.075 0-11 4.925-11 11v220.007c0 6.075 4.925 11 11 11h312.688c6.075 0 11-4.925 11-11v-220.007c0-6.075-4.925-11-11-11zm-11 220.007h-290.688v-198.007h290.688z" fill="#0496FF"/></g><g/><g/><g/><g/><g/><g/><g/><g/><g/><g/><g/><g/><g/><g/><g/></svg>