<svg id="Capa_1" enable-background="new 0 0 512 512" viewBox="0 0 512 512" xmlns="http://www.w3.org/2000/svg" fill="#052438"><g><g><path d="m131.618 143.284c-3.093-3.277-7.87-4.339-12.062-2.674-4.188 1.664-6.938 5.715-6.938 10.223v5.295c-14.533-1.558-25.888-13.895-25.888-28.834v-30.143h-22v30.144c0 28.121 22.879 51 51.001 51l7.888-.001c3.028 0 5.771-1.225 7.76-3.204l14.064 14.907-14.229 15.082c-1.975-1.886-4.65-3.044-7.597-3.044-44.135 0-80.041-35.906-80.041-80.041v-24.843h-22v24.843c0 52.55 39.929 95.949 91.041 101.452v5.714c0 4.508 2.75 8.559 6.938 10.223 1.318.523 2.694.777 4.059.777 2.972 0 5.885-1.204 8.004-3.451l36.948-39.163c3.999-4.238 3.999-10.859 0-15.098z"/><path d="m301.836 270.435c-3.093-3.278-7.871-4.339-12.062-2.674-4.188 1.664-6.938 5.715-6.938 10.223v5.295c-14.533-1.558-25.889-13.895-25.889-28.834v-30.144h-22v30.144c0 28.121 22.879 51 51 51h7.889c3.029 0 5.771-1.224 7.761-3.205l14.063 14.907-14.229 15.082c-1.975-1.886-4.649-3.044-7.596-3.044-44.135 0-80.041-35.906-80.041-80.041v-24.843h-22v24.843c0 52.55 39.929 95.949 91.041 101.452v5.714c0 4.508 2.75 8.559 6.938 10.223 1.318.523 2.694.778 4.059.777 2.972 0 5.885-1.205 8.004-3.451l36.947-39.163c3.999-4.238 3.999-10.859 0-15.098z"/><path d="m509.001 436.748-36.947-39.162c-3.092-3.278-7.87-4.339-12.062-2.674-4.188 1.664-6.938 5.715-6.938 10.223v5.294c-14.533-1.558-25.889-13.895-25.889-28.834v-30.143h-22v30.143c0 28.121 22.879 51 51 51h7.889c3.028 0 5.771-1.225 7.761-3.204l14.063 14.906-14.229 15.082c-1.975-1.886-4.649-3.044-7.596-3.044-44.135 0-80.041-35.906-80.041-80.041v-24.842h-22v24.842c0 52.55 39.929 95.949 91.041 101.452v5.714c0 4.508 2.75 8.559 6.938 10.223 1.318.523 2.694.778 4.059.777 2.972 0 5.885-1.205 8.004-3.451l36.947-39.163c3.999-4.238 3.999-10.86 0-15.098z"/></g><g fill="#0496FF"><path d="m171.565 28.54c0-6.075-4.925-11-11-11h-149.565c-6.075 0-11 4.925-11 11v68.61c0 6.075 4.925 11 11 11h149.565c6.075 0 11-4.925 11-11zm-22 57.611h-127.565v-46.611h127.565z"/><path d="m341.782 155.691c0-6.075-4.925-11-11-11h-149.564c-6.075 0-11 4.925-11 11v68.61c0 6.075 4.925 11 11 11h149.564c6.075 0 11-4.925 11-11zm-22 57.61h-127.564v-46.61h127.564z"/><path d="m501 271.842h-149.565c-6.075 0-11 4.925-11 11v68.61c0 6.075 4.925 11 11 11h149.565c6.075 0 11-4.925 11-11v-68.61c0-6.075-4.925-11-11-11zm-11 68.61h-127.565v-46.61h127.565z"/></g></g><g/><g/><g/><g/><g/><g/><g/><g/><g/><g/><g/><g/><g/><g/><g/></svg>