<svg id="Layer_1" enable-background="new 0 0 512 512" viewBox="0 0 512 512" xmlns="http://www.w3.org/2000/svg" fill="#E6ECF2"><g><g><path d="m434.858 274.296c-.008-3.264-1.545-6.452-4.085-8.499l-43.107-34.824c-4.726-3.818-11.651-3.082-15.469 1.644s-3.082 11.651 1.644 15.469l32.515 26.268-150.356 121.464-150.355-121.464 31.785-25.677c4.726-3.818 5.462-10.744 1.644-15.469-3.817-4.725-10.743-5.462-15.469-1.644l-42.376 34.234c-2.557 2.059-4.092 5.273-4.087 8.557v226.645c0 6.075 4.925 11 11 11h335.72c6.075 0 11-4.925 11-11v-226.646c-.002-.019-.004-.038-.004-.058zm-133.771 113.381 111.773-90.295v180.591zm-38.174 30.839 20.67-16.698 109.156 88.182h-273.478l109.156-88.182 20.67 16.698c4.034 3.258 9.792 3.258 13.826 0zm-163.773 59.457v-180.591l111.773 90.295z"/><path d="m248.222 259.411c2.148 2.148 4.963 3.222 7.778 3.222s5.63-1.074 7.778-3.222l76.084-76.084c10.203-10.203 15.821-23.768 15.821-38.196 0-14.429-5.619-27.994-15.821-38.195-10.202-10.203-23.767-15.822-38.196-15.822-14.428 0-27.993 5.619-38.196 15.822l-7.47 7.47-7.472-7.472c-21.061-21.06-55.329-21.061-76.391 0-21.061 21.061-21.061 55.33 0 76.392zm-60.528-136.92c6.241-6.242 14.44-9.363 22.639-9.363s16.398 3.121 22.639 9.363l15.25 15.25c2.063 2.063 4.861 3.222 7.778 3.222s5.715-1.159 7.778-3.222l15.25-15.25c6.047-6.047 14.087-9.378 22.639-9.378s16.592 3.331 22.64 9.378c6.047 6.047 9.377 14.087 9.377 22.639s-3.331 16.592-9.378 22.639l-68.306 68.307-68.306-68.307c-12.484-12.483-12.484-32.794 0-45.278z"/></g><g><g><path d="m258.101 359.231c-8.783 0-16.645-4.877-20.547-12.757l-16.592-33.51c-30.165-6.74-57.415-22.019-79.093-44.404-28.564-29.498-44.116-69.044-43.79-111.354.326-42.304 16.48-81.612 45.485-110.682 29.924-29.992 69.735-46.514 112.099-46.524h.037c42.353 0 82.154 16.501 112.083 46.471 61.142 61.223 61.555 161.232.919 222.937-20.304 20.662-45.604 35.249-73.449 42.402l-16.461 34.389c-3.819 7.979-11.688 12.973-20.534 13.032-.051 0-.105 0-.157 0zm-2.401-337.231c-.011 0-.021 0-.032 0-36.48.008-70.763 14.236-96.531 40.062-24.906 24.962-38.778 58.812-39.059 95.313-.282 36.504 13.07 70.555 37.595 95.88 19.789 20.436 44.958 33.992 72.788 39.203 3.398.636 6.299 2.833 7.833 5.931l18.975 38.322c.103.207.257.52.833.52h.011c.584-.004.736-.321.836-.531l18.726-39.119c1.461-3.053 4.247-5.263 7.552-5.992 25.757-5.683 49.197-18.685 67.785-37.601 52.212-53.133 51.855-139.251-.794-191.971-25.773-25.806-60.05-40.017-96.518-40.017z" fill="#0496FF"/></g></g></g><g/><g/><g/><g/><g/><g/><g/><g/><g/><g/><g/><g/><g/><g/><g/></svg>