<svg id="Capa_1" enable-background="new 0 0 512 512" viewBox="0 0 512 512" xmlns="http://www.w3.org/2000/svg" fill="#E6ECF2"><g><g fill="#0496FF"><path d="m116.934 350.876h278.133v22h-278.133z"/><path d="m186.467 255.753h139.066v22h-139.066z"/></g><path d="m501 446h-34.358l-199.642-277.911v-58.089h128.066c3.74 0 7.224-1.9 9.249-5.045s2.313-7.102.766-10.507l-17.932-39.448 17.931-39.448c1.547-3.405 1.259-7.362-.766-10.507s-5.508-5.045-9.248-5.045h-139.066c-6.075 0-11 4.925-11 11v88 69.089l-199.642 277.911h-34.358c-6.075 0-11 4.925-11 11v44c0 6.075 4.925 11 11 11h490c6.075 0 11-4.925 11-11v-44c0-6.075-4.925-11-11-11zm-234-424h110.983l-12.931 28.448c-1.314 2.892-1.314 6.211 0 9.104l12.931 28.448h-110.983zm-11 168.484 183.554 255.516h-367.108zm234 299.516h-468v-22h468z"/></g><g/><g/><g/><g/><g/><g/><g/><g/><g/><g/><g/><g/><g/><g/><g/></svg>