<svg id="Layer_1" enable-background="new 0 0 512 512" viewBox="0 0 512 512" xmlns="http://www.w3.org/2000/svg" fill="#052438"><g><g><g><g><path d="m284.961 407.808h-57.922c-6.075 0-11-4.925-11-11s4.925-11 11-11h57.922c6.075 0 11 4.925 11 11s-4.925 11-11 11z" fill="#0496FF"/></g><g><g><path d="m256 119.748c-6.075 0-11-4.925-11-11v-18.852c0-6.075 4.925-11 11-11s11 4.925 11 11v18.853c0 6.074-4.925 10.999-11 10.999z" fill="#0496FF"/></g><g><path d="m256 169.89c-4.282 0-8.245-2.57-10.015-6.462-1.922-4.226-.912-9.397 2.494-12.565 3.409-3.171 8.593-3.872 12.704-1.668 4.09 2.193 6.452 6.896 5.666 11.49-.898 5.24-5.511 9.205-10.849 9.205z" fill="#0496FF"/></g></g></g></g><path d="m462.684 87.971h-129.444l-39.795-66.748c-7.924-13.289-21.922-21.223-37.445-21.223s-29.521 7.934-37.444 21.223l-39.796 66.748h-129.444c-22.982 0-41.681 18.67-41.681 41.618v285.471c0 22.949 18.698 41.619 41.681 41.619h133.585v33.321h-31.26c-6.075 0-11 4.925-11 11s4.925 11 11 11h208.717c6.075 0 11-4.925 11-11s-4.925-11-11-11h-31.26v-33.321h133.585c22.982 0 41.681-18.67 41.681-41.619v-285.471c0-22.948-18.698-41.618-41.68-41.618zm-225.232-55.483c3.916-6.567 10.85-10.488 18.548-10.488s14.632 3.921 18.548 10.488l83.016 139.24c3.957 6.637 4.041 14.609.227 21.325-3.869 6.812-10.888 10.878-18.774 10.878h-166.033c-7.887 0-14.905-4.066-18.774-10.878-3.814-6.716-3.73-14.688.227-21.325zm-188.136 77.483h116.327l-30.104 50.492c-8.062 13.523-8.234 29.77-.459 43.457 7.83 13.783 21.999 22.012 37.903 22.012h166.031c15.904 0 30.073-8.229 37.903-22.012 7.775-13.688 7.604-29.934-.459-43.457l-30.104-50.492h116.327c10.852 0 19.681 8.801 19.681 19.618v209.432h-452.726v-209.432c0-10.818 8.829-19.618 19.68-19.618zm257.783 380.029h-102.198v-33.321h102.197v33.321zm155.585-55.321h-413.368c-10.852 0-19.681-8.801-19.681-19.619v-54.039h452.729v54.039c0 10.818-8.829 19.619-19.68 19.619z"/></g><g/><g/><g/><g/><g/><g/><g/><g/><g/><g/><g/><g/><g/><g/><g/></svg>