<svg id="Layer_1" enable-background="new 0 0 512 512" viewBox="0 0 512 512" xmlns="http://www.w3.org/2000/svg" fill="#052438"><g><g><g><path d="m386.337 402.243c-2.168 0-4.357-.64-6.272-1.972l-22.857-15.902c-2.956-2.056-4.718-5.429-4.718-9.029v-34.702c0-6.075 4.925-11 11-11s11 4.925 11 11v28.955l18.14 12.62c4.987 3.469 6.217 10.324 2.747 15.312-2.138 3.072-5.561 4.718-9.04 4.718z" fill="#0496FF"/></g><g><g><path d="m187.177 37.054c-6.075 0-11-4.925-11-11v-15.054c0-6.075 4.925-11 11-11s11 4.925 11 11v15.054c0 6.075-4.925 11-11 11z" fill="#0496FF"/></g><g><g><path d="m247.158 37.054c-6.075 0-11-4.925-11-11v-15.054c0-6.075 4.925-11 11-11s11 4.925 11 11v15.054c0 6.075-4.925 11-11 11z" fill="#0496FF"/></g><g><path d="m127.196 37.054c-6.075 0-11-4.925-11-11v-15.054c0-6.075 4.925-11 11-11s11 4.925 11 11v15.054c0 6.075-4.925 11-11 11z" fill="#0496FF"/></g></g></g></g><g><path d="m363.489 285.847c-49.414 0-89.616 40.146-89.616 89.493 0 49.348 40.202 89.494 89.616 89.494 49.416 0 89.618-40.146 89.618-89.494 0-49.347-40.202-89.493-89.618-89.493zm0 156.987c-37.284 0-67.616-30.277-67.616-67.494 0-37.216 30.332-67.493 67.616-67.493 37.285 0 67.618 30.277 67.618 67.493 0 37.217-30.333 67.494-67.618 67.494z"/><path d="m363.489 238.681c-13.272 0-26.108 1.896-38.252 5.431v-31.237h40.091c6.075 0 11-4.925 11-11v-97.758c0-6.075-4.925-11-11-11h-40.091v-25.342c0-6.075-4.925-11-11-11h-254.126c-6.075 0-11 4.925-11 11v195.621c0 15.616 5.728 29.921 15.196 40.934h-41.654c-6.075 0-11 4.925-11 11v11.735c0 28.87 23.529 52.358 52.451 52.358h162.589c2.17 73.474 62.701 132.577 136.796 132.577 75.464 0 136.858-61.306 136.858-136.66s-61.394-136.659-136.858-136.659zm-9.161-123.564v75.758h-29.091v-75.758zm-51.091-36.342v55.015h-232.126v-55.015zm-232.126 184.621v-107.606h232.126v96.861c-23.428 11.519-43.1 29.535-56.641 51.679h-134.434c-22.635 0-41.051-18.362-41.051-40.934zm-37.458 63.669v-.735h202.077c-3.809 9.867-6.503 20.284-7.927 31.094h-163.7c-16.79 0-30.45-13.619-30.45-30.359zm329.836 162.935c-63.332 0-114.857-51.437-114.857-114.66s51.525-114.659 114.857-114.659c63.333 0 114.858 51.436 114.858 114.659s-51.525 114.66-114.858 114.66z"/></g></g><g/><g/><g/><g/><g/><g/><g/><g/><g/><g/><g/><g/><g/><g/><g/></svg>