<svg id="Layer_1" enable-background="new 0 0 512.017 512.017" viewBox="0 0 512.017 512.017" xmlns="http://www.w3.org/2000/svg" fill="#E6ECF2"><g><g fill="#0496FF"><path d="m202.203 220.424c2.34-5.606-.307-12.048-5.914-14.388l-33.557-14.008c-3.972-1.658-8.53-1.659-12.506 0l-31.361 13.091 2.708-34.077c.345-4.338-1.019-8.55-3.839-11.859l-22.167-26.014 33.113-7.947c4.179-1.002 7.858-3.686 10.093-7.36l17.707-29.102 17.707 29.101c2.236 3.675 5.916 6.358 10.093 7.36l35.558 8.534c5.905 1.418 11.845-2.222 13.263-8.129 1.417-5.907-2.222-11.845-8.129-13.263l-33.231-7.975-21.381-35.138c-2.975-4.889-8.163-7.808-13.88-7.809h-.001c-5.717 0-10.906 2.919-13.881 7.808l-13.034 21.421-21.513-5.163-18.023-29.622c-2.839-4.666-7.791-7.451-13.248-7.451-5.456 0-10.408 2.785-13.247 7.451l-18.024 29.622-33.6 8.063c-5.287 1.269-9.449 5.116-11.134 10.291-1.687 5.183-.585 10.752 2.948 14.897l22.487 26.39-2.752 34.637c-.433 5.446 1.947 10.609 6.366 13.813 2.705 1.961 5.869 2.967 9.072 2.967 2.018 0 4.052-.399 5.995-1.21l31.89-13.312 21.147 8.827-1.737 21.861c-.454 5.708 2.041 11.12 6.672 14.478 2.833 2.055 6.149 3.108 9.504 3.107 2.115 0 4.246-.418 6.281-1.268l37.832-15.792 31.335 13.081c5.604 2.342 12.048-.307 14.388-5.913zm-131.391-59.729-24.582 10.262 2.124-26.725c.33-4.138-.971-8.157-3.663-11.316l-17.394-20.413 25.969-6.232c3.99-.956 7.502-3.516 9.637-7.024l13.879-22.809 13.878 22.809c2.134 3.508 5.646 6.068 9.632 7.023l6.542 1.57-25.472 6.113c-5.539 1.329-9.9 5.36-11.667 10.783-1.769 5.432-.614 11.269 3.089 15.615l21.405 25.119-11.437-4.774c-3.795-1.585-8.148-1.585-11.94-.001z"/><path d="m352.972 361.779c-1.016-5.989-6.694-10.022-12.684-9.006-27.731 4.703-56.088 7.087-84.28 7.087-28.191 0-56.548-2.384-84.281-7.086-5.988-1.013-11.668 3.017-12.684 9.006-1.016 5.99 3.017 11.668 9.006 12.684 28.945 4.908 58.538 7.396 87.958 7.396 29.422 0 59.015-2.489 87.958-7.396 5.992-1.016 10.024-6.695 9.007-12.685z"/></g><g><path d="m183.692 209.362-4.478 56.346c-.503 6.328 2.261 12.329 7.395 16.051 5.12 3.712 11.659 4.474 17.49 2.039l51.909-21.669 51.909 21.669c2.255.941 4.615 1.405 6.958 1.404 3.718 0 7.392-1.167 10.531-3.443 5.134-3.722 7.898-9.722 7.396-16.051l-3.304-41.583 26.039-10.869 37.83 15.792c2.036.85 4.166 1.269 6.281 1.268 3.355 0 6.671-1.053 9.505-3.107 4.632-3.358 7.126-8.77 6.673-14.479l-1.738-21.86 21.147-8.828 31.891 13.313c1.942.811 3.976 1.209 5.994 1.209 3.202 0 6.368-1.005 9.073-2.967 4.418-3.204 6.798-8.368 6.365-13.813l-2.754-34.636 22.487-26.389c3.533-4.146 4.636-9.715 2.948-14.898-1.685-5.175-5.847-9.022-11.133-10.291l-33.6-8.063-18.024-29.622c-2.84-4.667-7.793-7.452-13.25-7.451-5.456 0-10.408 2.787-13.245 7.451l-18.024 29.622-21.513 5.163-13.033-21.42c-2.975-4.889-8.163-7.808-13.879-7.809-.001 0-.002 0-.002 0-5.717 0-10.905 2.918-13.882 7.808l-21.379 35.138-27.499 6.599-21.386-35.152s-.001 0-.001-.001c-3.297-5.418-9.047-8.652-15.381-8.652s-12.084 3.235-15.38 8.653l-29.331 48.205-54.686 13.124c-6.139 1.473-10.972 5.941-12.929 11.953-1.961 6.022-.681 12.495 3.425 17.313zm237.666-110.116 13.878-22.809 13.879 22.809c2.135 3.508 5.647 6.069 9.632 7.023l25.974 6.233-17.396 20.414c-2.69 3.159-3.991 7.177-3.662 11.313l2.125 26.727-24.583-10.262c-3.795-1.583-8.146-1.582-11.938.001l-11.438 4.775 21.405-25.12c3.703-4.346 4.857-10.184 3.089-15.615-1.767-5.423-6.128-9.454-11.666-10.783l-25.473-6.113 6.54-1.57c3.988-.955 7.499-3.515 9.634-7.023zm-93.621 25.975c4.181-1.003 7.86-3.687 10.094-7.36l17.707-29.101 17.708 29.104c2.236 3.673 5.915 6.355 10.091 7.357l33.113 7.947-22.166 26.014c-2.821 3.311-4.186 7.522-3.841 11.859l2.709 34.077-31.362-13.092c-3.975-1.658-8.533-1.657-12.506.001l-9.603 4.009 25.229-29.608c4.106-4.818 5.387-11.29 3.426-17.313-1.958-6.012-6.791-10.48-12.93-11.953l-38.713-9.291zm-109.69 19.823c4.631-1.112 8.708-4.085 11.184-8.157l26.777-44.008 26.778 44.011c2.479 4.071 6.555 7.043 11.184 8.154l50.028 12.005-33.476 39.285c-3.128 3.668-4.64 8.339-4.258 13.15l4.093 51.493-47.421-19.795c-2.202-.919-4.565-1.378-6.929-1.378s-4.727.459-6.929 1.379l-47.42 19.795 4.092-51.493c.382-4.81-1.129-9.479-4.256-13.148l-33.477-39.287z"/><path d="m507.428 402.509-41.116-29.553 5.896-48.995c.474-3.935-1.206-7.82-4.396-10.17-3.19-2.351-7.397-2.803-11.017-1.185-14.922 6.676-30.309 12.642-45.856 17.807l-9.913-32.256c-.857-2.789-2.787-5.123-5.365-6.489-2.577-1.366-5.593-1.651-8.381-.794-85.879 26.397-176.665 26.397-262.542 0-2.789-.857-5.804-.571-8.382.794-2.578 1.366-4.508 3.7-5.365 6.489l-9.916 32.263c-15.543-5.164-30.934-11.138-45.854-17.813-3.616-1.618-7.825-1.166-11.017 1.185-3.191 2.351-4.87 6.236-4.397 10.17l5.897 48.995-41.115 29.552c-3.197 2.297-4.922 6.128-4.524 10.044.398 3.916 2.858 7.321 6.452 8.929 42.272 18.912 86.739 33.007 132.165 41.894 4.119.82 8.461-.838 10.978-4.284l25.717-35.016c26.654 3.834 53.586 5.785 80.633 5.785s53.979-1.951 80.633-5.786l25.716 35.016c2.517 3.446 6.859 5.104 10.979 4.284 45.425-8.887 89.892-22.982 132.164-41.894 3.593-1.607 6.054-5.013 6.451-8.929.397-3.915-1.328-7.746-4.525-10.043zm-371.344 37.899c-35.116-7.304-69.603-17.842-102.827-31.413l30.565-21.969c3.256-2.34 4.98-6.266 4.501-10.247l-4.402-36.577c10.11 4.075 20.372 7.82 30.693 11.238l-12.201 39.697c-1.785 5.807 1.476 11.961 7.283 13.746 20.188 6.205 40.661 11.264 61.338 15.166zm-29.376-53.426 22.119-71.969c83.444 23.551 170.92 23.551 254.365 0l22.118 71.969c-48.555 13.858-98.727 20.879-149.301 20.879s-100.747-7.021-149.301-20.879zm269.225 53.426-14.951-20.357c20.677-3.902 41.15-8.961 61.338-15.166 5.807-1.785 9.066-7.939 7.282-13.746l-12.198-39.69c10.324-3.419 20.582-7.171 30.691-11.246l-4.402 36.577c-.479 3.98 1.245 7.907 4.501 10.247l30.565 21.969c-33.224 13.571-67.71 24.108-102.826 31.412z"/></g></g><g/><g/><g/><g/><g/><g/><g/><g/><g/><g/><g/><g/><g/><g/><g/></svg>