<svg id="Capa_1" enable-background="new 0 0 512 512" viewBox="0 0 512 512" xmlns="http://www.w3.org/2000/svg" fill="#E6ECF2"><g><path d="m380.546 338.843v-.996c0-22.607-18.392-41-40.999-41h-16.038v22h16.038c10.476 0 18.999 8.523 18.999 19v.996c0 10.477-8.523 19-18.999 19h-167.093c-10.477 0-19-8.523-19-19v-.996c0-10.477 8.523-19 19-19h16.038v-22h-16.038c-22.607 0-41 18.393-41 41v.996c0 11.835 5.047 22.509 13.094 30-8.047 7.491-13.094 18.165-13.094 30v.995c0 22.165 17.683 40.266 39.681 40.967l16.016 62.909c1.241 4.874 5.63 8.286 10.66 8.286h116.38c5.03 0 9.419-3.412 10.66-8.286l16.015-62.909c21.998-.7 39.68-18.802 39.68-40.967v-.995c0-11.835-5.047-22.509-13.094-30 8.047-7.491 13.094-18.165 13.094-30zm-74.906 151.157h-99.28l-12.516-49.162h124.311zm52.906-91.157v.995c0 10.477-8.523 19-18.999 19h-167.093c-10.477 0-19-8.523-19-19v-.995c0-10.477 8.523-19 19-19h167.093c10.475 0 18.999 8.523 18.999 19z"/><path d="m399.189 162.719c8.353-7.655 13.6-18.646 13.6-30.842 0-17.423-10.706-32.387-25.883-38.674v-7.294c0-21.486-14.155-39.724-33.629-45.889-6.615-23.077-27.893-40.02-53.067-40.02-18.065 0-34.131 8.722-44.21 22.176-10.078-13.454-26.144-22.176-44.209-22.176-25.174 0-46.452 16.943-53.067 40.02-19.474 6.165-33.63 24.403-33.63 45.889v7.294c-15.177 6.287-25.883 21.251-25.883 38.674 0 12.196 5.247 23.187 13.6 30.842-8.353 7.655-13.6 18.647-13.6 30.843 0 17.423 10.707 32.387 25.883 38.674v7.289c0 21.48 14.148 39.714 33.613 45.885 6.597 23.106 27.888 40.077 53.084 40.077 18.065 0 34.131-8.722 44.209-22.176 10.078 13.454 26.144 22.176 44.21 22.176 25.195 0 46.487-16.971 53.083-40.078 19.465-6.17 33.613-24.404 33.613-45.884v-7.289c15.177-6.287 25.883-21.251 25.883-38.674 0-12.196-5.247-23.187-13.6-30.843zm-154.189 107.559c0 18.312-14.897 33.209-33.209 33.209-12.354 0-23.146-6.786-28.866-16.821 21.899-4.503 38.418-23.929 38.418-47.141 0-6.075-4.925-11-11-11s-11 4.925-11 11c0 14.405-11.719 26.125-26.125 26.125s-26.125-11.72-26.125-26.125v-4.118h11.293c6.075 0 11-4.925 11-11s-4.925-11-11-11h-17.332c-10.942 0-19.845-8.902-19.845-19.845 0-10.929 8.882-19.822 19.806-19.843.013 0 .026.001.039.001 6.075 0 11-4.925 11-11v-.001s0-.001 0-.001c0-6.075-4.925-11-11-11-.013 0-.026.001-.039.001-10.924-.021-19.806-8.913-19.806-19.842 0-10.942 8.902-19.845 19.845-19.845h17.332c6.075 0 11-4.925 11-11s-4.925-11-11-11h-11.293v-4.123c0-14.405 11.719-26.124 26.125-26.124s26.125 11.719 26.125 26.124c0 6.075 4.925 11 11 11s11-4.925 11-11c0-23.203-16.506-42.621-38.392-47.134 5.727-10.01 16.505-16.775 28.84-16.775 18.312 0 33.209 14.897 33.209 33.209zm125.944-56.871h-17.331c-6.075 0-11 4.925-11 11s4.925 11 11 11h11.293v4.118c0 14.405-11.719 26.125-26.124 26.125s-26.125-11.72-26.125-26.125c0-6.075-4.925-11-11-11s-11 4.925-11 11c0 23.212 16.519 42.638 38.419 47.141-5.72 10.035-16.512 16.821-28.866 16.821-18.312 0-33.209-14.897-33.209-33.209v-215.069c0-18.312 14.897-33.209 33.209-33.209 12.335 0 23.113 6.765 28.84 16.775-21.886 4.513-38.392 23.931-38.392 47.134 0 6.075 4.925 11 11 11s11-4.925 11-11c0-14.405 11.72-26.124 26.125-26.124s26.124 11.719 26.124 26.124v4.123h-11.293c-6.075 0-11 4.925-11 11s4.925 11 11 11h17.331c10.942 0 19.845 8.902 19.845 19.845 0 10.928-8.882 19.821-19.806 19.842-.013 0-.026-.001-.039-.001-6.075 0-11 4.925-11 11v.001s0 .001 0 .001c0 6.075 4.925 11 11 11 .013 0 .026-.001.039-.001 10.924.021 19.806 8.913 19.806 19.843-.001 10.943-8.903 19.845-19.846 19.845z" fill="#0496FF"/></g><g/><g/><g/><g/><g/><g/><g/><g/><g/><g/><g/><g/><g/><g/><g/></svg>