<svg id="Capa_1" enable-background="new 0 0 512 512" viewBox="0 0 512 512" xmlns="http://www.w3.org/2000/svg" fill="#052438"><g><path d="m501 67.022h-205c-16.194 0-30.651 7.589-40 19.395-9.349-11.806-23.806-19.395-40-19.395h-205c-6.075 0-11 4.925-11 11v333.956c0 6.075 4.925 11 11 11h201c6.065 0 11 4.935 11 11 0 6.075 4.925 11 11 11h44c6.075 0 11-4.925 11-11 0-6.065 4.935-11 11-11h201c6.075 0 11-4.925 11-11v-333.956c0-6.075-4.925-11-11-11zm-256 299.046c-8.241-5.72-18.231-9.09-29-9.09h-150v-223.956h150c15.991 0 29 13.009 29 29zm22-204.046c0-15.991 13.009-29 29-29h150v223.956h-150c-10.769 0-20.759 3.37-29 9.09zm-55 238.956h-190v-311.956h194c15.991 0 29 13.009 29 29v2.091c-8.241-5.72-18.231-9.091-29-9.091h-161c-6.075 0-11 4.925-11 11v245.956c0 6.075 4.925 11 11 11h161c15.991 0 29 13.009 29 29v15h-1.885c-4.54-12.805-16.774-22-31.115-22zm278 0h-190c-14.341 0-26.575 9.195-31.115 22h-1.885v-15c0-15.991 13.009-29 29-29h161c6.075 0 11-4.925 11-11v-245.956c0-6.075-4.925-11-11-11h-161c-10.769 0-20.759 3.37-29 9.091v-2.091c0-15.991 13.009-29 29-29h194z"/><g fill="#0496FF"><path d="m212 160.213h-113c-6.075 0-11 4.925-11 11s4.925 11 11 11h113c6.075 0 11-4.925 11-11s-4.925-11-11-11z"/><path d="m300 182.213h113c6.075 0 11-4.925 11-11s-4.925-11-11-11h-113c-6.075 0-11 4.925-11 11s4.925 11 11 11z"/><path d="m212 209.404h-113c-6.075 0-11 4.925-11 11s4.925 11 11 11h113c6.075 0 11-4.925 11-11s-4.925-11-11-11z"/><path d="m413 209.404h-113c-6.075 0-11 4.925-11 11s4.925 11 11 11h113c6.075 0 11-4.925 11-11s-4.925-11-11-11z"/><path d="m212 258.596h-113c-6.075 0-11 4.925-11 11s4.925 11 11 11h113c6.075 0 11-4.925 11-11s-4.925-11-11-11z"/><path d="m413 258.596h-113c-6.075 0-11 4.925-11 11s4.925 11 11 11h113c6.075 0 11-4.925 11-11s-4.925-11-11-11z"/><path d="m212 307.787h-113c-6.075 0-11 4.925-11 11s4.925 11 11 11h113c6.075 0 11-4.925 11-11s-4.925-11-11-11z"/><path d="m413 307.787h-113c-6.075 0-11 4.925-11 11s4.925 11 11 11h113c6.075 0 11-4.925 11-11s-4.925-11-11-11z"/></g></g><g/><g/><g/><g/><g/><g/><g/><g/><g/><g/><g/><g/><g/><g/><g/></svg>