<svg id="Capa_1" enable-background="new 0 0 512.001 512.001" viewBox="0 0 512.001 512.001" xmlns="http://www.w3.org/2000/svg" fill="#052438"><g><g><path d="m381.619 0h-251.238c-22.607 0-41 18.393-41 41v344.204c0 22.607 18.393 41 41 41h54.583v-22h-54.583c-10.477 0-19-8.523-19-19s8.523-19 19-19h251.238c6.854 0 13.316-1.699 19-4.686v23.686c0 10.477-8.523 19-19 19h-152.655v22h152.655c22.607 0 41-18.393 41-41v-344.204c0-22.607-18.392-41-41-41zm-270.238 348.89v-307.89c0-10.477 8.523-19 19-19h3v322.204h-3c-6.854 0-13.316 1.699-19 4.686zm270.238-4.686h-226.238v-322.204h226.238c10.477 0 19 8.523 19 19v270.371 13.833c0 10.477-8.523 19-19 19z"/><path d="m367.619 74h-179.238c-6.075 0-11 4.925-11 11v44c0 6.075 4.925 11 11 11h179.238c6.075 0 11-4.925 11-11v-44c0-6.075-4.924-11-11-11zm-11 44h-157.238v-22h157.238z"/><path d="m337.2 162h-118.399c-6.075 0-11 4.925-11 11s4.925 11 11 11h118.399c6.075 0 11-4.925 11-11s-4.925-11-11-11z"/></g><path d="m228.963 512c-1.547 0-3.099-.326-4.551-.986l-17.448-7.931-17.448 7.931c-3.404 1.549-7.361 1.261-10.507-.766-3.145-2.024-5.045-5.508-5.045-9.248v-101.796c0-6.075 4.925-11 11-11h44c6.075 0 11 4.925 11 11v101.796c0 3.74-1.9 7.224-5.045 9.248-1.803 1.162-3.875 1.752-5.956 1.752zm-21.999-32c1.553 0 3.105.329 4.552.986l6.448 2.931v-73.713h-22v73.713l6.448-2.931c1.447-.657 2.999-.986 4.552-.986z" fill="#0496FF"/></g><g/><g/><g/><g/><g/><g/><g/><g/><g/><g/><g/><g/><g/><g/><g/></svg>