<svg id="Layer_1" enable-background="new 0 0 512 512" viewBox="0 0 512 512" xmlns="http://www.w3.org/2000/svg" fill="#E6ECF2"><g><g><g><g><path d="m256 172.971c-6.075 0-11-4.925-11-11v-15.186c0-6.075 4.925.3 11 .3s11-6.376 11-.3v15.186c0 6.075-4.925 11-11 11z" fill="#0496FF"/></g><g><path d="m256 433.043c-6.075 0-11 5.413-11-.662v-15.186c0-6.075 4.925-11 11-11s11 4.925 11 11v15.186c0 6.075-4.925.662-11 .662z" fill="#0496FF"/></g></g><g><g><path d="m399.177 300.583h-15.226c-6.075 0-11-4.925-11-11s4.925-11 11-11h15.226c6.075 0 3.525 4.925 3.525 11s2.55 11-3.525 11z" fill="#0496FF"/></g><g><path d="m128.049 300.583h-15.227c-6.075 0-5.27-4.925-5.27-11s-.806-11 5.27-11h15.227c6.075 0 11 4.925 11 11s-4.924 11-11 11z" fill="#0496FF"/></g></g><g><path d="m498.325 166.951-36.954-59.961c-3.187-5.171-9.966-6.781-15.136-3.593-5.172 3.188-6.78 9.964-3.593 15.136l.56.908-26.289 16.169c-1.072-1.113-2.156-2.217-3.253-3.312-31.384-31.301-70.475-52.122-113.004-60.7 3.339-6.768 5.112-14.26 5.112-21.934.001-27.384-22.326-49.664-49.768-49.664s-49.768 22.28-49.768 49.666c0 7.69 1.77 15.174 5.108 21.935-42.527 8.578-81.617 29.399-113 60.698-1.153 1.15-2.292 2.31-3.416 3.48l-26.191-16.234.624-1.012c3.188-5.172 1.579-11.948-3.593-15.136s-11.948-1.58-15.136 3.593l-36.954 59.961c-3.188 5.172-1.579 11.948 3.593 15.136 1.799 1.109 3.792 1.637 5.761 1.637 3.69 0 7.296-1.857 9.375-5.23l.551-.895 22.705 14.074c-14.813 30.092-22.639 63.401-22.639 97.909 0 59.416 23.197 115.273 65.319 157.283 42.116 42.003 98.107 65.135 157.661 65.135 59.555 0 115.546-23.132 157.66-65.134 42.122-42.01 65.319-97.868 65.319-157.283 0-34.583-7.859-67.96-22.734-98.103l22.735-13.984.615.999c2.078 3.373 5.684 5.23 9.375 5.23 1.969 0 3.962-.528 5.761-1.637 5.173-3.189 6.782-9.965 3.594-15.137zm-270.093-117.285c0-15.255 12.456-27.666 27.768-27.666s27.769 12.411 27.769 27.666c0 6.771-2.479 13.285-6.982 18.345-.028.031-.055.063-.082.095-6.842-.624-13.749-.94-20.704-.94s-13.861.316-20.702.94c-4.56-5.077-7.067-11.614-7.067-18.44zm-183.735 109.205 12.693-20.596 23.101 14.319c-5.023 6.384-9.669 13.003-13.927 19.832zm211.503 331.129c-110.82 0-200.979-89.907-200.979-200.417s90.159-200.418 200.979-200.418 200.979 89.907 200.979 200.417-90.159 200.418-200.979 200.418zm189.524-317.754c-4.266-6.826-8.919-13.443-13.95-19.824l23.171-14.252 12.694 20.597z"/><path d="m323.729 247.925-30.558-5.202-14.397-27.368s0 0-.001 0c-4.459-8.476-13.186-13.741-22.774-13.741s-18.315 5.266-22.773 13.741l-14.398 27.368-30.558 5.202c-9.469 1.612-17.189 8.281-20.149 17.405-2.956 9.109-.627 19.022 6.076 25.87l21.64 22.106-4.478 30.563c-1.387 9.464 2.561 18.843 10.303 24.477 7.763 5.648 17.934 6.519 26.544 2.271l27.794-13.709 27.795 13.709c3.623 1.787 7.523 2.668 11.403 2.668 5.341 0 10.645-1.668 15.14-4.939 7.742-5.633 11.69-15.012 10.304-24.477l-4.479-30.563 21.64-22.105c6.704-6.848 9.032-16.76 6.077-25.87-2.96-9.124-10.682-15.794-20.151-17.406zm-1.647 27.886-25.453 26.001c-2.403 2.455-3.521 5.891-3.023 9.29l5.269 35.957c.279 1.904-.808 3.009-1.479 3.499-.686.498-2.101 1.203-3.868.33l-32.66-16.109c-1.534-.756-3.2-1.135-4.866-1.135s-3.332.378-4.866 1.135l-32.66 16.109c-1.77.874-3.184.169-3.869-.33-.672-.489-1.758-1.594-1.479-3.498l5.269-35.957c.498-3.398-.62-6.835-3.023-9.29l-25.454-26.001c-1.352-1.381-1.126-2.905-.871-3.691.258-.794.979-2.177 2.915-2.506l35.916-6.114c3.377-.575 6.293-2.691 7.889-5.723l16.929-32.178c.908-1.727 2.46-1.984 3.304-1.984s2.396.258 3.305 1.984h-.001l16.929 32.178c1.596 3.032 4.512 5.147 7.89 5.723l35.916 6.114c1.937.33 2.657 1.711 2.915 2.506.252.784.478 2.308-.874 3.69z"/><path d="m256 129.819c-88.312 0-160.159 71.669-160.159 159.764s71.847 159.763 160.159 159.763 160.159-71.669 160.159-159.764-71.847-159.763-160.159-159.763zm0 297.527c-76.181 0-138.159-61.801-138.159-137.764s61.978-137.763 138.159-137.763c76.182 0 138.159 61.801 138.159 137.764s-61.977 137.763-138.159 137.763z"/></g></g></g><g/><g/><g/><g/><g/><g/><g/><g/><g/><g/><g/><g/><g/><g/><g/></svg>