<svg id="Layer_1" enable-background="new 0 0 512 512" viewBox="0 0 512 512" xmlns="http://www.w3.org/2000/svg" fill="#E6ECF2"><g><g><g><path d="m277.783 267.884c-2.109 0-4.241-.605-6.123-1.869l-21.793-14.637c-3.042-2.043-4.867-5.468-4.867-9.132v-32.828c0-6.075 4.925-11 11-11s11 4.925 11 11v26.965l16.926 11.368c5.043 3.388 6.386 10.222 2.999 15.265-2.123 3.161-5.601 4.868-9.142 4.868z" fill="#0496FF"/></g><g><g><path d="m256 35.427c-6.075 0-11-4.925-11-11v-13.427c0-6.075 4.925-11 11-11s11 4.925 11 11v13.427c0 6.075-4.925 11-11 11z" fill="#0496FF"/></g></g><g><g><path d="m481.158 238.334h-13.46c-6.075 0-11-4.925-11-11s4.925-11 11-11h13.46c6.075 0 11 4.925 11 11s-4.925 11-11 11z" fill="#0496FF"/></g><g><path d="m44.302 238.334h-13.46c-6.075 0-11-4.925-11-11s4.925-11 11-11h13.46c6.075 0 11 4.925 11 11s-4.925 11-11 11z" fill="#0496FF"/></g></g><g><g><path d="m399.838 94.856c-2.82 0-5.639-1.077-7.788-3.231-4.29-4.301-4.281-11.266.02-15.557l9.518-9.494c4.302-4.29 11.267-4.281 15.557.02s4.281 11.266-.02 15.557l-9.518 9.494c-2.147 2.141-4.959 3.211-7.769 3.211z" fill="#0496FF"/></g><g><path d="m94.364 399.564c-2.82 0-5.64-1.077-7.788-3.231-4.29-4.302-4.281-11.267.02-15.557l9.518-9.493c4.303-4.29 11.268-4.281 15.557.02 4.29 4.302 4.281 11.267-.02 15.557l-9.518 9.493c-2.148 2.141-4.958 3.211-7.769 3.211z" fill="#0496FF"/></g></g><g><g><path d="m417.636 399.564c-2.811 0-5.621-1.07-7.769-3.212l-9.518-9.493c-4.301-4.29-4.31-11.255-.02-15.557 4.29-4.3 11.255-4.31 15.557-.02l9.518 9.493c4.301 4.29 4.31 11.255.02 15.557-2.149 2.154-4.969 3.232-7.788 3.232z" fill="#0496FF"/></g><g><path d="m112.162 94.856c-2.811 0-5.621-1.07-7.769-3.212l-9.518-9.494c-4.301-4.291-4.31-11.256-.02-15.557 4.292-4.302 11.255-4.31 15.557-.02l9.518 9.494c4.301 4.291 4.31 11.256.02 15.557-2.149 2.155-4.969 3.232-7.788 3.232z" fill="#0496FF"/></g></g><g><path d="m256 144.209c-54.691 0-99.186 43.979-99.186 98.037 0 54.059 44.494 98.038 99.186 98.038s99.186-43.979 99.186-98.038c0-54.058-44.495-98.037-99.186-98.037zm0 174.075c-42.561 0-77.186-34.11-77.186-76.038 0-41.927 34.625-76.037 77.186-76.037s77.186 34.11 77.186 76.037c0 41.928-34.625 76.038-77.186 76.038z"/><path d="m377.355 115.562c-34.549-33.265-80.074-50.586-128.153-48.757-94.214 3.569-167.996 80.12-167.975 174.274.017 72.07 44.321 136.344 111.059 162.37v44.968c0 35.06 28.582 63.582 63.714 63.582s63.714-28.522 63.714-63.582v-44.967c66.753-26.033 111.059-90.324 111.059-162.412-.001-47.748-18.971-92.309-53.418-125.476zm-121.355 374.438c-23.001 0-41.714-18.653-41.714-41.582v-9.884h83.428v9.884c0 22.929-18.713 41.582-41.714 41.582zm49.183-104.665c-4.465 1.514-7.469 5.703-7.469 10.418v20.781h-83.428v-20.781c0-4.715-3.004-8.904-7.469-10.418-61.945-20.994-103.575-78.968-103.59-144.261-.02-82.273 64.466-149.165 146.808-152.284 2.013-.076 4.018-.114 6.019-.114 39.828 0 77.286 15.048 106.042 42.734 30.101 28.98 46.677 67.914 46.677 109.628-.001 65.309-41.629 123.298-103.59 144.297z"/></g></g></g><g/><g/><g/><g/><g/><g/><g/><g/><g/><g/><g/><g/><g/><g/><g/></svg>