<svg id="Layer_1" enable-background="new 0 0 512.001 512.001" viewBox="0 0 512.001 512.001" xmlns="http://www.w3.org/2000/svg" fill="#052438"><g><g><path d="m480.836 325.019c21.017-32.617 31.766-70.321 31.139-109.409-.817-50.891-21.858-99.193-59.245-136.008-37.382-36.81-86.003-57.113-136.906-57.17-.073 0-.145 0-.218 0-31.494 0-62.807 7.633-90.563 22.079-26.912 14.007-50.582 34.415-68.452 59.018-3.57 4.916-2.479 11.794 2.436 15.364 4.916 3.57 11.795 2.479 15.365-2.436 15.877-21.859 36.903-39.989 60.809-52.431 24.633-12.821 52.43-19.594 80.404-19.594h.193c45.101.05 88.248 18.108 121.495 50.846 33.25 32.74 51.96 75.601 52.684 120.686.584 36.366-9.916 71.378-30.365 101.25-1.952 2.853-2.451 6.458-1.345 9.733l17.207 50.959c.698 2.067-.316 3.48-.983 4.138-.666.658-2.091 1.651-4.15.928l-51.446-18.137c-3.194-1.126-6.725-.718-9.577 1.103-19.416 12.398-40.738 20.697-63.372 24.668-5.984 1.05-9.983 6.751-8.935 12.735 1.022 6.018 6.892 10.004 12.735 8.934 23.729-4.163 46.177-12.546 66.803-24.939l46.478 16.385c9.461 3.337 19.776 1.031 26.918-6.016s9.584-17.33 6.374-26.835z" fill="#0496FF"/></g><g><path d="m335.246 154.259c-37.098-37.081-86.395-57.492-138.842-57.492-.073 0-.152 0-.227 0-50.903.057-99.524 20.36-136.906 57.17-37.387 36.815-58.428 85.116-59.245 136.007-.627 39.088 10.122 76.792 31.139 109.409l-15.481 45.849c-3.21 9.505-.768 19.788 6.374 26.835 7.141 7.046 17.454 9.354 26.918 6.017l46.479-16.386c30.46 18.286 65.209 27.901 100.957 27.901.579 0 1.163-.002 1.743-.008 107.259-.937 194.578-88.979 194.649-196.26.033-52.529-20.407-101.908-57.558-139.042zm-137.284 313.303c-33.944.299-66.853-9.141-95.278-27.291-1.79-1.143-3.848-1.729-5.921-1.729-1.23 0-2.467.207-3.656.626l-51.446 18.138c-2.059.724-3.484-.271-4.15-.928-.667-.658-1.682-2.07-.983-4.138l17.207-50.959c1.106-3.275.607-6.88-1.345-9.733-20.449-29.872-30.949-64.884-30.365-101.25.724-45.085 19.434-87.945 52.684-120.686 33.247-32.738 76.395-50.795 121.495-50.846 46.63-.008 90.502 18.079 123.49 51.052 32.99 32.974 51.141 76.822 51.11 123.467-.064 95.265-77.6 173.445-172.842 174.277z"/><path d="m253.843 204.442c-17.392 0-33.741 6.772-46.038 19.069l-11.403 11.404-11.403-11.404c-12.298-12.297-28.647-19.069-46.038-19.069-17.392 0-33.741 6.772-46.038 19.07-12.297 12.297-19.069 28.647-19.069 46.038s6.772 33.741 19.069 46.038l95.701 95.701c2.063 2.063 4.861 3.222 7.778 3.222s5.715-1.159 7.778-3.222l95.701-95.702c25.385-25.385 25.385-66.69 0-92.076-12.297-12.297-28.647-19.069-46.038-19.069zm30.482 95.589-87.923 87.924-87.923-87.923c-8.143-8.142-12.626-18.967-12.626-30.481 0-11.515 4.483-22.34 12.626-30.482 8.142-8.142 18.967-12.626 30.481-12.626s22.34 4.484 30.481 12.626l19.182 19.182c4.297 4.296 11.26 4.296 15.557 0l19.182-19.182c8.142-8.142 18.967-12.626 30.481-12.626s22.34 4.484 30.481 12.626c16.808 16.807 16.808 44.155.001 60.962z"/></g></g><g/><g/><g/><g/><g/><g/><g/><g/><g/><g/><g/><g/><g/><g/><g/></svg>