<svg id="Layer_1" enable-background="new 0 0 512 512" viewBox="0 0 512 512" xmlns="http://www.w3.org/2000/svg" fill="#E6ECF2"><g><g><path d="m279.665 124.225c-50.854 0-92.227 41.304-92.227 92.073s41.373 92.072 92.227 92.072 92.227-41.304 92.227-92.072c0-50.769-41.373-92.073-92.227-92.073zm0 162.146c-38.723 0-70.227-31.435-70.227-70.072 0-38.639 31.503-70.073 70.227-70.073s70.227 31.435 70.227 70.073c0 38.637-31.503 70.072-70.227 70.072z"/><path d="m424.169 66.505c-41.809-42.06-97.576-65.671-157.028-66.484-30.834-.416-60.938 5.315-89.48 17.052-27.616 11.355-52.374 27.723-73.587 48.647-42.022 41.452-65.164 96.038-65.164 153.706 0 35.641-6.732 69.797-13.066 83.84-7.25 16.075-.653 34.961 15.02 42.996l21.872 11.214v23.997c0 26.367 8.602 46.233 25.566 59.048 25.608 19.342 63.399 16.358 83.68 12.854v47.625c0 6.075 4.925 11 11 11h163.278c6.075 0 11-4.925 11-11v-65.168c40.443-18.407 74.063-48.774 97.536-88.199 22.119-37.152 34.301-81.192 34.301-124.007-.001-59.201-23.059-115-64.928-157.121zm-82.122 351.954c-4.109 1.703-6.788 5.714-6.788 10.162v61.379h-141.278v-50.26c0-3.449-1.618-6.698-4.37-8.777-2.752-2.08-6.321-2.748-9.638-1.804-14.188 4.035-55.934 10.786-78.412-6.192-11.322-8.553-16.826-22.125-16.826-41.493v-30.719c0-4.126-2.31-7.906-5.981-9.788l-27.854-14.282c-5.231-2.682-7.429-8.995-5.002-14.374 7.46-16.538 15.012-53.754 15.012-92.885 0-51.734 20.816-100.76 58.614-138.044 39.003-38.474 92.71-60.121 147.316-59.363 110.421 1.51 200.256 91.95 200.256 201.606 0 71.182-38.666 159.032-125.049 194.834z"/><path d="m425.097 180.691-10.529-3.102c-2.913-10.135-6.963-19.887-12.096-29.122l5.243-9.615c2.338-4.287 1.569-9.603-1.888-13.052l-35.508-35.434c-3.445-3.438-8.741-4.202-13.019-1.881l-9.662 5.247c-9.262-5.129-19.046-9.177-29.211-12.085l-3.106-10.497c-1.382-4.673-5.675-7.879-10.548-7.879h-50.216c-4.873 0-9.166 3.206-10.548 7.88l-3.105 10.496c-10.165 2.908-19.948 6.956-29.21 12.085l-9.663-5.247c-4.277-2.322-9.574-1.558-13.019 1.881l-35.508 35.435c-3.457 3.449-4.226 8.765-1.888 13.053l5.242 9.613c-5.132 9.235-9.184 18.989-12.096 29.122l-10.529 3.102c-4.679 1.379-7.891 5.674-7.891 10.552v50.111c0 4.878 3.212 9.173 7.891 10.552l10.529 3.102c2.913 10.134 6.963 19.886 12.096 29.122l-5.242 9.614c-2.338 4.287-1.569 9.603 1.888 13.052l35.508 35.434c3.446 3.44 8.741 4.203 13.019 1.881l9.663-5.247c9.264 5.13 19.046 9.178 29.21 12.086l3.105 10.496c1.383 4.674 5.675 7.88 10.548 7.88h50.216c4.873 0 9.166-3.206 10.548-7.879l3.106-10.497c10.165-2.909 19.947-6.956 29.211-12.086l9.662 5.247c4.277 2.321 9.572 1.557 13.019-1.881l35.508-35.434c3.457-3.449 4.226-8.765 1.888-13.052l-5.242-9.615c5.132-9.234 9.183-18.986 12.096-29.121l10.529-3.102c4.679-1.379 7.892-5.674 7.892-10.552v-50.111c-.001-4.878-3.214-9.173-7.893-10.552zm-14.108 52.437-8.589 2.53c-3.784 1.115-6.681 4.17-7.593 8.007-2.899 12.19-7.719 23.795-14.327 34.489-2.076 3.361-2.191 7.578-.299 11.047l4.275 7.842-23.869 23.818-7.894-4.287c-3.46-1.881-7.661-1.765-11.013.298-10.723 6.598-22.356 11.409-34.576 14.303-3.837.909-6.895 3.802-8.013 7.583l-2.535 8.567h-33.782l-2.534-8.566c-1.119-3.782-4.176-6.675-8.014-7.584-12.219-2.894-23.852-7.705-34.575-14.303-3.352-2.062-7.552-2.175-11.013-.298l-7.895 4.287-23.868-23.818 4.275-7.842c1.892-3.469 1.777-7.686-.299-11.047-6.608-10.696-11.428-22.3-14.327-34.489-.913-3.837-3.81-6.892-7.593-8.007l-8.589-2.53v-33.658l8.589-2.53c3.783-1.115 6.68-4.17 7.593-8.007 2.898-12.188 7.718-23.793 14.327-34.49 2.077-3.361 2.19-7.578.299-11.048l-4.275-7.84 23.868-23.819 7.895 4.287c3.459 1.879 7.66 1.765 11.013-.298 10.722-6.597 22.354-11.408 34.575-14.302 3.837-.909 6.895-3.802 8.014-7.584l2.534-8.566h33.782l2.535 8.566c1.119 3.781 4.176 6.674 8.013 7.583 12.222 2.895 23.855 7.707 34.576 14.303 3.354 2.063 7.555 2.176 11.013.298l7.894-4.287 23.869 23.819-4.276 7.842c-1.892 3.469-1.777 7.686.299 11.047 6.607 10.695 11.428 22.299 14.327 34.489.913 3.837 3.81 6.892 7.593 8.007l8.589 2.53v33.658z"/></g><path d="m289.791 206.792c-9.397-3.322-14.184-5.284-15.532-5.921-2.608-1.229-2.513-2.511-2.462-3.199.133-1.794 1.429-3.406 2.509-3.731 7.829-2.359 11.802.375 12.366 1.179 3.489 4.973 10.35 6.176 15.323 2.687s6.176-10.35 2.687-15.323c-3.139-4.473-8.415-8.328-15.204-10.223-1.065-4.962-5.475-8.681-10.754-8.681-5.508 0-10.07 4.048-10.874 9.332-9.967 3.054-17.191 12.337-17.992 23.135-.78 10.514 4.974 19.988 15.015 24.724 2.943 1.389 9.353 3.854 17.585 6.766 5.058 1.788 7.337 5.614 6.975 8.47-.416 3.275-4.711 4.135-7.235 4.355-5.042.432-11.932-.992-14.767-4.513-3.811-4.731-10.735-5.478-15.467-1.668-4.731 3.811-5.479 10.735-1.668 15.467 4.667 5.795 11.17 9.271 17.769 11.105 1.215 4.753 5.526 8.268 10.658 8.268 4.86 0 8.983-3.151 10.438-7.522 12.171-2.737 20.641-11.267 22.095-22.72 1.747-13.749-7.081-26.901-21.465-31.987z" fill="#0496FF"/></g><g/><g/><g/><g/><g/><g/><g/><g/><g/><g/><g/><g/><g/><g/><g/></svg>