<svg id="Layer_1" enable-background="new 0 0 512 512" viewBox="0 0 512 512" xmlns="http://www.w3.org/2000/svg" fill="#E6ECF2"><g><g><g><path d="m281.444 227.063c-2.169 0-4.361-.64-6.276-1.974l-25.454-17.726c-2.954-2.057-4.714-5.428-4.714-9.027v-38.683c0-6.075 4.925-11 11-11s11 4.925 11 11v32.938l20.74 14.443c4.985 3.472 6.212 10.328 2.741 15.313-2.138 3.071-5.559 4.716-9.037 4.716z" fill="#0496FF"/></g><g><path d="m256 99.84c-54.34 0-98.548 44.186-98.548 98.497s44.208 98.496 98.548 98.496 98.549-44.186 98.549-98.497-44.209-98.496-98.549-98.496zm0 174.993c-42.209 0-76.548-34.316-76.548-76.497s34.339-76.496 76.548-76.496 76.549 34.316 76.549 76.497-34.34 76.496-76.549 76.496z"/><path d="m451.453 327.409h-116.973c43.544-26.545 72.676-74.473 72.676-129.072 0-67.985-45.165-125.625-107.082-144.523.63-3.003.949-6.074.949-9.193-.001-24.605-20.036-44.621-44.663-44.621s-44.663 20.016-44.663 44.62c0 3.051.304 6.054.905 8.989-62.264 18.684-107.758 76.495-107.758 144.728 0 54.6 29.131 102.527 72.676 129.072h-116.973c-6.075 0-11 4.925-11 11v162.591c0 6.075 4.925 11 11 11h390.905c6.075 0 11-4.925 11-11v-162.591c.001-6.076-4.924-11-10.999-11zm-217.756-282.789c0-12.473 10.167-22.62 22.663-22.62s22.663 10.147 22.663 22.62c0 1.469-.138 2.916-.413 4.332-7.377-1.111-14.928-1.687-22.61-1.687-7.44 0-14.756.54-21.911 1.583-.26-1.382-.392-2.794-.392-4.228zm-106.853 153.716c0-71.171 57.939-129.072 129.156-129.072s129.156 57.901 129.156 129.072-57.939 129.073-129.156 129.073-129.156-57.902-129.156-129.073zm313.609 291.664h-368.906v-140.591h368.905v140.591z"/><path d="m190.007 386.15c-.059-6.039-4.972-10.894-10.997-10.894-.036 0-.073 0-.109 0-6.075.059-10.952 5.031-10.893 11.106l.312 32.196-26.575-38.434c-2.738-3.958-7.73-5.678-12.325-4.244-4.594 1.434-7.723 5.688-7.723 10.5v66.771c0 6.075 4.925 11 11 11s11-4.925 11-11v-31.521l25.162 36.39c3.131 4.515 8.389 6.421 13.398 4.854 5.088-1.592 8.376-6.292 8.376-11.976 0-.036 0-.071 0-.106z"/><path d="m308.997 454.285c.104.525.247 1.043.426 1.548 1.772 4.985 6.502 8.319 11.789 8.319h.084c5.32-.036 10.046-3.443 11.76-8.479.033-.096.064-.192.094-.289l9.864-31.829 9.82 31.834c.046.149.095.296.147.443 1.772 4.985 6.502 8.319 11.789 8.319h.084c5.32-.036 10.046-3.443 11.76-8.479.155-.457.281-.922.375-1.395l13.102-65.75c1.187-5.958-2.68-11.75-8.638-12.938-5.961-1.185-11.75 2.68-12.938 8.638l-5.733 28.773-9.25-29.988c-1.791-5.805-7.947-9.06-13.753-7.269-3.916 1.208-6.671 4.403-7.5 8.137l-9.028 29.13-5.722-28.893c-1.181-5.958-6.966-9.83-12.928-8.653-5.959 1.181-9.833 6.968-8.653 12.928z"/><path d="m200.72 419.704c0 24.509 19.958 44.448 44.491 44.448s44.491-19.939 44.491-44.448-19.958-44.448-44.491-44.448-44.491 19.939-44.491 44.448zm66.982 0c0 12.378-10.089 22.448-22.491 22.448s-22.491-10.07-22.491-22.448 10.089-22.448 22.491-22.448 22.491 10.07 22.491 22.448z"/></g></g><g><g><g><g><path d="m454.048 198.858h-11.507c-6.075 0-11-4.925-11-11s4.925-11 11-11h11.507c6.075 0 11 4.925 11 11s-4.925 11-11 11z" fill="#0496FF"/></g></g><g><g><path d="m407.637 96.863c-2.818 0-5.635-1.076-7.783-3.227-4.293-4.298-4.289-11.263.01-15.556l7.014-7.005c4.298-4.292 11.264-4.288 15.556.01 4.293 4.298 4.289 11.263-.01 15.556l-7.014 7.005c-2.147 2.145-4.961 3.217-7.773 3.217z" fill="#0496FF"/></g></g><g><g><path d="m419.786 307.858c-2.813 0-5.625-1.072-7.773-3.217l-7.014-7.005c-4.298-4.293-4.303-11.258-.01-15.557 4.294-4.298 11.258-4.303 15.557-.01l7.014 7.005c4.298 4.293 4.303 11.258.01 15.557-2.15 2.151-4.967 3.227-7.784 3.227z" fill="#0496FF"/></g></g></g><g><g><g><path d="m69.459 198.858h-11.507c-6.075 0-11-4.925-11-11s4.925-11 11-11h11.507c6.075 0 11 4.925 11 11s-4.924 11-11 11z" fill="#0496FF"/></g></g><g><g><path d="m104.363 96.863c-2.813 0-5.625-1.072-7.773-3.217l-7.014-7.005c-4.299-4.293-4.303-11.258-.01-15.556 4.293-4.299 11.258-4.302 15.556-.01l7.014 7.005c4.299 4.293 4.303 11.258.01 15.556-2.147 2.152-4.965 3.227-7.783 3.227z" fill="#0496FF"/></g></g><g><g><path d="m92.214 307.858c-2.817 0-5.635-1.076-7.783-3.227-4.293-4.299-4.289-11.263.01-15.557l7.014-7.005c4.298-4.293 11.263-4.289 15.557.01 4.293 4.299 4.289 11.263-.01 15.557l-7.014 7.005c-2.148 2.145-4.961 3.217-7.774 3.217z" fill="#0496FF"/></g></g></g></g></g><g/><g/><g/><g/><g/><g/><g/><g/><g/><g/><g/><g/><g/><g/><g/></svg>