<svg id="Layer_1" enable-background="new 0 0 512.001 512.001" viewBox="0 0 512.001 512.001" xmlns="http://www.w3.org/2000/svg" fill="#052438"><g><g fill="#0496FF"><path d="m408.25 380.409h-356.367c-6.075 0-11 4.925-11 11s4.925 11 11 11h135.187v95.014c0 6.075 4.925 11 11 11s11-4.925 11-11v-95.014h40.718v95.014c0 6.075 4.925 11 11 11s11-4.925 11-11v-95.014h136.462c6.075 0 11-4.925 11-11s-4.925-11-11-11z"/><path d="m51.552 339.691h356.698c6.075 0 11-4.925 11-11s-4.925-11-11-11h-136.462v-95.387c0-6.075-4.925-11-11-11s-11 4.925-11 11v95.387h-40.718v-94.947c0-6.075-4.925-11-11-11s-11 4.925-11 11v94.947h-135.518c-6.075 0-11 4.925-11 11s4.925 11 11 11z"/></g><g><path d="m421.452 79.78c-11.375-13.033-28.79-18.223-45.444-13.545l-31.848 8.945-50.361-21.85-15.224-29.368c-7.962-15.359-23.641-24.533-40.938-23.934-17.289.596-32.307 10.825-39.192 26.695l-22.764 52.466c-2.418 5.573.14 12.051 5.713 14.47 1.426.619 2.911.912 4.373.912 4.25 0 8.297-2.478 10.097-6.625l22.764-52.466c3.525-8.125 10.915-13.159 19.767-13.464 8.871-.298 16.572 4.208 20.649 12.072l14.617 28.197-50.901 117.32c-2.418 5.573.14 12.052 5.713 14.47 1.426.619 2.911.912 4.373.912 4.25 0 8.297-2.478 10.097-6.625l48.604-112.026 37.353 16.204-48.023 110.684c-2.418 5.573.14 12.052 5.713 14.47 1.426.619 2.911.912 4.373.912 4.25 0 8.297-2.478 10.097-6.625l50.319-115.978 30.578-8.589c8.528-2.397 17.096.159 22.921 6.832s7.197 15.508 3.672 23.634l-22.896 52.772c-2.418 5.573.14 12.051 5.713 14.47 1.426.619 2.911.912 4.373.912 4.25 0 8.297-2.478 10.097-6.625l22.896-52.772c6.885-15.87 4.095-33.825-7.281-46.857z" fill="#0496FF"/><path d="m455.816 191.991-323.599-140.4c-15.795-6.852-34.218.422-41.07 16.215l-21.154 48.756c-1.161 2.676-1.211 5.705-.14 8.418s3.177 4.891 5.853 6.052l177.628 77.067h-204.943c-6.075 0-11 4.925-11 11v261.68c0 17.216 14.006 31.222 31.222 31.222h321.632c17.216 0 31.223-14.006 31.223-31.222v-199.732l14.939 6.482c1.426.619 2.911.912 4.373.912 4.25 0 8.297-2.478 10.097-6.625l21.154-48.756c6.852-15.793-.422-34.217-16.215-41.069zm-56.348 288.788c0 5.085-4.137 9.222-9.223 9.222h-321.632c-5.085 0-9.222-4.137-9.222-9.222v-250.68s244.547-.01 244.623-.011l95.454 41.415zm52.38-256.475-16.775 38.665-340.519-147.742 16.776-38.665c2.024-4.666 7.467-6.814 12.131-4.79l323.598 140.4c4.665 2.025 6.813 7.467 4.789 12.132z"/></g></g><g/><g/><g/><g/><g/><g/><g/><g/><g/><g/><g/><g/><g/><g/><g/></svg>