<svg id="Capa_1" enable-background="new 0 0 512 512" viewBox="0 0 512 512" xmlns="http://www.w3.org/2000/svg" fill="#052438"><g><g><path d="m449.924 22h-162.809c-4.54-12.805-16.773-22-31.115-22s-26.575 9.195-31.115 22h-162.809c-6.075 0-11 4.925-11 11v468c0 6.075 4.925 11 11 11h387.848c6.075 0 11-4.925 11-11v-468c0-6.075-4.925-11-11-11zm-11 44h-98.22v-22h98.22zm-204.924-22c6.075 0 11-4.925 11-11 0-6.065 4.935-11 11-11s11 4.935 11 11c0 6.075 4.925 11 11 11h40.704v22h-125.407v-22zm-62.703 0v22h-98.221v-22zm-98.221 446v-402h365.848v402z"/><path d="m405.924 110h-299.848c-6.075 0-11 4.925-11 11v336c0 6.075 4.925 11 11 11h299.848c6.075 0 11-4.925 11-11v-336c0-6.075-4.925-11-11-11zm-188.899 218.63v-28.63h77.949v28.63zm77.95 22v95.37h-77.949v-95.37zm0-168v95.37h-77.949v-95.37zm-77.95-22v-28.63h77.949v28.63zm99.95 22h77.949v95.37h-77.949zm-121.95 95.37h-77.949v-95.37h77.949zm-77.949 22h77.949v28.63h-77.949zm199.899 0h77.949v28.63h-77.949zm77.949-139.37h-77.949v-28.63h77.949zm-199.899-28.63v28.63h-77.949v-28.63zm-77.949 218.63h77.949v95.37h-77.949zm199.899 95.37v-95.37h77.949v95.37z"/></g><g fill="#0496FF"><path d="m261.975 219.315h-11.949c-6.075 0-11 4.925-11 11s4.925 11 11 11h11.949c6.075 0 11-4.925 11-11s-4.925-11-11-11z"/><path d="m162.025 219.315h-11.949c-6.075 0-11 4.925-11 11s4.925 11 11 11h11.949c6.075 0 11-4.925 11-11s-4.924-11-11-11z"/><path d="m349.975 241.315h11.949c6.075 0 11-4.925 11-11s-4.925-11-11-11h-11.949c-6.075 0-11 4.925-11 11s4.924 11 11 11z"/><path d="m261.975 387.315h-11.949c-6.075 0-11 4.925-11 11s4.925 11 11 11h11.949c6.075 0 11-4.925 11-11s-4.925-11-11-11z"/><path d="m162.025 387.315h-11.949c-6.075 0-11 4.925-11 11s4.925 11 11 11h11.949c6.075 0 11-4.925 11-11s-4.924-11-11-11z"/><path d="m361.924 387.315h-11.949c-6.075 0-11 4.925-11 11s4.925 11 11 11h11.949c6.075 0 11-4.925 11-11s-4.925-11-11-11z"/></g></g><g/><g/><g/><g/><g/><g/><g/><g/><g/><g/><g/><g/><g/><g/><g/></svg>