<svg id="Capa_1" enable-background="new 0 0 511.404 511.404" viewBox="0 0 511.404 511.404" xmlns="http://www.w3.org/2000/svg" fill="#E6ECF2"><g><g fill="#0496FF"><path d="m159.646 53.222c-2.063-2.062-4.861-3.222-7.778-3.222s-5.715 1.159-7.778 3.222l-37.673 37.673c-3.146 3.146-4.087 7.877-2.384 11.988 1.703 4.11 5.713 6.79 10.163 6.79h4.512v160.762h22v-171.762c0-3.026-1.222-5.767-3.2-7.756l14.361-14.36 14.201 14.201c-.047.045-.094.091-.14.137-2.063 2.062-3.222 4.86-3.222 7.778v127.177h22v-116.176h4.833c4.449 0 8.46-2.68 10.163-6.79s.762-8.842-2.384-11.988z"/><path d="m263.48 3.222c-2.063-2.063-4.86-3.222-7.778-3.222s-5.715 1.159-7.778 3.222l-37.673 37.674c-3.146 3.146-4.087 7.878-2.384 11.988s5.714 6.79 10.163 6.79h4.833v145.186h22v-156.187c0-2.918-1.159-5.716-3.222-7.778-.046-.046-.093-.092-.14-.137l14.201-14.201 14.361 14.36c-1.978 1.989-3.2 4.729-3.2 7.756v156.187h22v-145.187h4.512c4.449 0 8.46-2.68 10.163-6.79 1.703-4.111.762-8.842-2.384-11.988z"/><path d="m404.987 90.895-37.673-37.673c-2.063-2.062-4.861-3.222-7.778-3.222s-5.715 1.159-7.778 3.222l-37.673 37.674c-3.146 3.146-4.087 7.878-2.384 11.988s5.714 6.79 10.163 6.79h4.833v116.176h22v-127.177c0-2.918-1.159-5.716-3.222-7.778-.046-.046-.093-.092-.14-.137l14.201-14.201 14.361 14.36c-1.978 1.989-3.2 4.729-3.2 7.756v171.762h22v-160.762h4.512c4.449 0 8.46-2.68 10.163-6.79 1.702-4.112.761-8.842-2.385-11.988z"/></g><g><path d="m403.474 310.106h-10.26c-2.628-8.518-6.042-16.758-10.207-24.638l7.256-7.256c2.063-2.063 3.222-4.861 3.222-7.778s-1.159-5.715-3.222-7.778l-44.585-44.585c-2.063-2.062-4.861-3.222-7.778-3.222s-5.715 1.159-7.778 3.222l-7.256 7.257c-7.879-4.164-16.121-7.579-24.638-10.207v-10.261c0-6.075-4.925-11-11-11h-63.052c-6.075 0-11 4.925-11 11v10.261c-8.517 2.628-16.758 6.043-24.638 10.207l-7.256-7.257c-2.063-2.062-4.861-3.222-7.778-3.222s-5.715 1.159-7.778 3.222l-44.585 44.585c-4.295 4.296-4.295 11.261 0 15.557l7.256 7.256c-4.164 7.88-7.578 16.12-10.207 24.638h-10.26c-6.075 0-11 4.925-11 11v63.052c0 6.075 4.925 11 11 11h10.26c2.628 8.518 6.042 16.758 10.207 24.638l-7.256 7.256c-2.063 2.062-3.222 4.86-3.222 7.778 0 2.917 1.159 5.715 3.222 7.778l44.585 44.586c2.063 2.062 4.861 3.222 7.778 3.222s5.715-1.159 7.778-3.222l7.256-7.257c7.88 4.165 16.12 7.578 24.638 10.207v10.26c0 6.075 4.925 11 11 11h63.052c6.075 0 11-4.925 11-11v-10.26c8.518-2.629 16.757-6.042 24.638-10.207l7.256 7.257c2.063 2.062 4.861 3.222 7.778 3.222s5.715-1.159 7.778-3.222l44.585-44.585c4.295-4.296 4.295-11.261 0-15.557l-7.256-7.256c4.165-7.881 7.579-16.121 10.207-24.639h10.26c6.075 0 11-4.925 11-11v-63.052c0-6.075-4.925-11-11-11zm-11 63.052h-7.633c-5.073 0-9.489 3.47-10.688 8.399-2.954 12.141-7.745 23.706-14.241 34.375-2.639 4.334-1.971 9.911 1.617 13.499l5.399 5.399-29.028 29.029-5.399-5.399c-3.587-3.587-9.163-4.255-13.499-1.617-10.669 6.496-22.234 11.287-34.374 14.24-4.93 1.199-8.4 5.615-8.4 10.688v7.633h-41.052v-7.633c0-5.073-3.47-9.489-8.4-10.688-12.14-2.953-23.705-7.744-34.374-14.24-4.335-2.641-9.911-1.97-13.499 1.617l-5.399 5.399-29.029-29.029 5.399-5.398c3.588-3.588 4.256-9.165 1.618-13.499-6.496-10.669-11.287-22.234-14.241-34.375-1.199-4.93-5.615-8.399-10.688-8.399h-7.633v-41.052h7.633c5.073 0 9.489-3.47 10.688-8.399 2.954-12.141 7.745-23.706 14.241-34.374 2.639-4.334 1.971-9.911-1.617-13.499l-5.399-5.399 29.029-29.028 5.399 5.399c3.587 3.587 9.165 4.255 13.499 1.617 10.668-6.496 22.234-11.287 34.375-14.241 4.93-1.2 8.399-5.615 8.399-10.688v-7.633h41.052v7.633c0 5.073 3.47 9.488 8.399 10.688 12.141 2.954 23.706 7.745 34.375 14.241 4.334 2.641 9.911 1.971 13.499-1.617l5.399-5.399 29.029 29.028-5.4 5.399c-3.588 3.588-4.256 9.165-1.617 13.499 6.496 10.668 11.287 22.233 14.241 34.374 1.199 4.93 5.615 8.399 10.688 8.399h7.633v41.051z"/><path d="m255.702 267.765c-46.796 0-84.868 38.071-84.868 84.868 0 46.796 38.071 84.867 84.868 84.867s84.868-38.071 84.868-84.867c0-46.797-38.071-84.868-84.868-84.868zm0 147.735c-34.666 0-62.868-28.202-62.868-62.867 0-34.666 28.202-62.868 62.868-62.868s62.868 28.202 62.868 62.868c0 34.665-28.202 62.867-62.868 62.867z"/></g></g><g/><g/><g/><g/><g/><g/><g/><g/><g/><g/><g/><g/><g/><g/><g/></svg>