<svg id="Capa_1" enable-background="new 0 0 512 512" viewBox="0 0 512 512" xmlns="http://www.w3.org/2000/svg" fill="#E6ECF2"><g><g><path d="m501 44h-212v-33c0-6.075-4.925-11-11-11h-44c-6.075 0-11 4.925-11 11v33h-212c-6.075 0-11 4.925-11 11v44c0 6.075 4.925 11 11 11h11v341c0 6.075 4.925 11 11 11h212v39c0 6.075 4.925 11 11 11s11-4.925 11-11v-39h212c6.075 0 11-4.925 11-11v-341h11c6.075 0 11-4.925 11-11v-44c0-6.075-4.925-11-11-11zm-256-22h22v22h-22zm-201 418v-22h424v22zm424-44h-424v-286h424zm22-308h-468v-22h468z"/><path d="m112.8 352h59.667v-22h-48.667v-66h48.667v-22h-48.667v-55h-22v154c0 6.075 4.925 11 11 11z"/><path d="m292.733 341c0 6.075 4.925 11 11 11h59.667v-22h-48.667v-66h48.667v-22h-48.667v-66h48.667v-22h-59.667c-6.075 0-11 4.925-11 11v77h-48.667v22h48.667z"/></g><g fill="#0496FF"><path d="m148.6 132h-71.6c-6.075 0-11 4.925-11 11v44c0 6.075 4.925 11 11 11h71.6c6.075 0 11-4.925 11-11v-44c0-6.075-4.925-11-11-11zm-11 44h-49.6v-22h49.6z"/><path d="m244.066 220h-71.6c-6.075 0-11 4.925-11 11v44c0 6.075 4.925 11 11 11h71.6c6.075 0 11-4.925 11-11v-44c0-6.075-4.924-11-11-11zm-11 44h-49.6v-22h49.6z"/><path d="m244.066 308h-71.6c-6.075 0-11 4.925-11 11v44c0 6.075 4.925 11 11 11h71.6c6.075 0 11-4.925 11-11v-44c0-6.075-4.924-11-11-11zm-11 44h-49.6v-22h49.6z"/><path d="m435 220h-71.6c-6.075 0-11 4.925-11 11v44c0 6.075 4.925 11 11 11h71.6c6.075 0 11-4.925 11-11v-44c0-6.075-4.925-11-11-11zm-11 44h-49.6v-22h49.6z"/><path d="m435 132h-71.6c-6.075 0-11 4.925-11 11v44c0 6.075 4.925 11 11 11h71.6c6.075 0 11-4.925 11-11v-44c0-6.075-4.925-11-11-11zm-11 44h-49.6v-22h49.6z"/><path d="m435 308h-71.6c-6.075 0-11 4.925-11 11v44c0 6.075 4.925 11 11 11h71.6c6.075 0 11-4.925 11-11v-44c0-6.075-4.925-11-11-11zm-11 44h-49.6v-22h49.6z"/></g></g><g/><g/><g/><g/><g/><g/><g/><g/><g/><g/><g/><g/><g/><g/><g/></svg>