<svg id="Capa_1" enable-background="new 0 0 512 512" viewBox="0 0 512 512" xmlns="http://www.w3.org/2000/svg" fill="#052438"><g><g fill="#0496FF"><path d="m277.789 166.883c-3.797-1.836-8.312-1.339-11.618 1.28l-34 26.927c-4.763 3.771-5.565 10.69-1.794 15.453 3.772 4.762 10.691 5.564 15.452 1.793l16.171-12.806v65.256c0 6.075 4.925 11 11 11s11-4.925 11-11v-88c0-4.219-2.413-8.066-6.211-9.903z"/><path d="m173 165.786c-18.196 0-33 14.804-33 33v44c0 18.196 14.804 33 33 33s33-14.804 33-33v-44c0-18.196-14.804-33-33-33zm11 77c0 6.065-4.935 11-11 11s-11-4.935-11-11v-44c0-6.065 4.935-11 11-11s11 4.935 11 11z"/><path d="m339 165.786c-18.196 0-33 14.804-33 33v44c0 18.196 14.804 33 33 33s33-14.804 33-33v-44c0-18.196-14.804-33-33-33zm11 77c0 6.065-4.935 11-11 11s-11-4.935-11-11v-44c0-6.065 4.935-11 11-11s11 4.935 11 11z"/><path d="m443.891 213.008-31.112-31.113c-4.296-4.295-11.261-4.296-15.557 0s-4.296 11.261 0 15.557l23.334 23.334-23.334 23.334c-4.296 4.296-4.296 11.261 0 15.557 2.148 2.148 4.963 3.222 7.778 3.222s5.631-1.074 7.778-3.222l31.112-31.113c4.297-4.295 4.297-11.26.001-15.556z"/><path d="m114.778 181.895c-4.297-4.296-11.262-4.295-15.557 0l-31.112 31.113c-4.296 4.296-4.296 11.261 0 15.557l31.112 31.113c2.148 2.148 4.963 3.222 7.778 3.222 2.814 0 5.631-1.074 7.778-3.222 4.296-4.296 4.296-11.261 0-15.557l-23.334-23.334 23.334-23.334c4.297-4.297 4.297-11.262.001-15.558z"/><path d="m62.78 47.22c-6.799-6.887-18.857-1.912-18.78 7.78-.222 7.588 8.285 13.277 15.21 10.159 7.129-2.753 9.086-12.661 3.57-17.939z"/><path d="m88.84 59.21c3.073 7.994 14.73 9.145 19.3 1.9 4.409-6.189.49-15.624-6.991-16.899-8.434-1.822-15.748 7.076-12.309 14.999z"/><path d="m143 66c7.585.222 13.278-8.285 10.16-15.21-3.142-8.001-14.652-9.152-19.31-1.9-4.894 7.106.515 17.251 9.15 17.11z"/></g><g><path d="m461 0h-410c-28.121 0-51 22.878-51 51v251.572c0 28.122 22.879 51 51 51h410c28.121 0 51-22.878 51-51v-251.572c0-28.122-22.879-51-51-51zm-410 22h410c15.99 0 29 13.009 29 29v37h-468v-37c0-15.991 13.01-29 29-29zm410 309.572h-410c-15.99 0-29-13.009-29-29v-192.572h468v192.572c0 15.991-13.01 29-29 29z"/><path d="m402.57 398.168c-8.895-8.894-20.72-13.792-33.297-13.792-12.578 0-24.402 4.898-33.296 13.792l-20.846 20.845c-3.878-22.086-23.199-38.92-46.38-38.92h-77.255c-24.628 0-47.78 9.59-65.194 27.004l-24.532 24.533c-2.062 2.063-3.222 4.861-3.222 7.778s1.159 5.715 3.222 7.778l61.592 61.591c2.148 2.148 4.963 3.222 7.778 3.222s5.63-1.074 7.778-3.222l12.843-12.843h110.209c21.738 0 42.175-8.465 57.546-23.836l50.715-50.715c4.296-4.296 4.296-11.261 0-15.557zm-58.611 58.375c-11.216 11.216-26.128 17.393-41.989 17.393h-114.766c-2.917 0-5.715 1.159-7.778 3.222l-8.286 8.287-46.035-46.035 16.755-16.755c13.259-13.259 30.887-20.561 49.638-20.561h77.255c13.778 0 24.998 11.164 25.088 24.921h-59.035c-6.075 0-11 4.925-11 11s4.925 11 11 11h67.165c9.205 0 17.859-3.584 24.367-10.093l25.197-25.197c4.738-4.738 11.038-7.348 17.739-7.348 6.646 0 12.897 2.566 17.622 7.23z"/></g></g><g/><g/><g/><g/><g/><g/><g/><g/><g/><g/><g/><g/><g/><g/><g/></svg>