<svg id="Layer_1" enable-background="new 0 0 512 512" viewBox="0 0 512 512" xmlns="http://www.w3.org/2000/svg" fill="#052438"><g><g><path d="m501 390h-8v-314c0-17.094-13.907-31-31-31h-412c-17.093 0-31 13.906-31 31v314h-8c-6.075 0-11 4.925-11 11v35c0 17.094 13.907 31 31 31h450c17.093 0 31-13.906 31-31v-35c0-6.076-4.925-11-11-11zm-30-314v268.998h-149.093v-277.998h140.093c4.962 0 9 4.038 9 9zm-421-9h249.907v277.998h-258.907v-268.998c0-4.962 4.038-9 9-9zm-9 299.999h430v23.001h-155c-2.917 0-5.715 1.159-7.778 3.222l-6.779 6.778h-90.887l-6.778-6.778c-2.063-2.063-4.861-3.222-7.778-3.222h-155zm449 69.001c0 4.963-4.038 9-9 9h-450c-4.962 0-9-4.037-9-9v-24h169.443l6.778 6.778c2.063 2.062 4.861 3.222 7.779 3.222h100c2.917 0 5.715-1.159 7.778-3.222l6.778-6.778h169.444z"/><path d="m80 262h180.906c6.075 0 11-4.925 11-11s-4.925-11-11-11h-180.906c-6.075 0-11 4.925-11 11s4.925 11 11 11z"/><path d="m80 307h180.906c6.075 0 11-4.925 11-11s-4.925-11-11-11h-180.906c-6.075 0-11 4.925-11 11s4.925 11 11 11z"/></g><g fill="#0496FF"><path d="m100 127c4.962 0 9 4.037 9 8.999 0 6.075 4.925 11 11 11s11-4.925 11-11c0-17.093-13.906-30.999-31-30.999-17.093 0-31 13.906-31 30.999v40c0 17.093 13.906 30.999 30.999 30.999s31-13.906 31-30.999c0-6.075-4.925-11-11-11s-11 4.925-11 11c0 4.962-4.037 8.999-9 8.999-4.962 0-8.999-4.037-8.999-8.999v-40c0-4.962 4.038-8.999 9-8.999z"/><path d="m188.18 144.999h-7.182v-7.182c0-6.075-4.925-11-11-11s-11 4.925-11 11v7.182h-7.181c-6.075 0-11 4.925-11 11s4.925 11 11 11h7.181v7.182c0 6.075 4.925 11 11 11s11-4.925 11-11v-7.182h7.182c6.075 0 11-4.925 11-11s-4.925-11-11-11z"/><path d="m260.906 144.999h-7.181v-7.182c0-6.075-4.925-11-11-11s-11 4.925-11 11v7.182h-7.182c-6.075 0-11 4.925-11 11s4.925 11 11 11h7.182v7.182c0 6.075 4.925 11 11 11s11-4.925 11-11v-7.182h7.181c6.075 0 11-4.925 11-11s-4.925-11-11-11z"/><path d="m431.999 240h-71.09c-6.075 0-11 4.925-11 11s4.925 11 11 11h71.09c6.075 0 11-4.925 11-11s-4.925-11-11-11z"/><path d="m431.999 285h-71.09c-6.075 0-11 4.925-11 11s4.925 11 11 11h71.09c6.075 0 11-4.925 11-11s-4.925-11-11-11z"/><path d="m431.999 150h-71.09c-6.075 0-11 4.925-11 11s4.925 11 11 11h71.09c6.075 0 11-4.925 11-11s-4.925-11-11-11z"/><path d="m431.999 195h-71.09c-6.075 0-11 4.925-11 11s4.925 11 11 11h71.09c6.075 0 11-4.925 11-11s-4.925-11-11-11z"/><path d="m360.909 127h71.09c6.075 0 11-4.925 11-11s-4.925-11-11-11h-71.09c-6.075 0-11 4.925-11 11s4.924 11 11 11z"/></g></g><g/><g/><g/><g/><g/><g/><g/><g/><g/><g/><g/><g/><g/><g/><g/></svg>