<svg id="Capa_1" enable-background="new 0 0 512 512" viewBox="0 0 512 512" xmlns="http://www.w3.org/2000/svg" fill="#052438"><g><g fill="#0496FF"><path d="m277.5 245c-6.075 0-11 4.925-11 11v54.399l-2.13-2.904c-2.071-2.826-5.366-4.495-8.87-4.495s-6.798 1.669-8.871 4.495l-2.129 2.904v-54.399c0-6.075-4.925-11-11-11s-11 4.925-11 11v88c0 4.756 3.057 8.974 7.578 10.454 4.519 1.48 9.48-.113 12.293-3.949l13.129-17.904 13.13 17.904c2.111 2.88 5.434 4.496 8.872 4.496 1.141 0 2.294-.178 3.42-.547 4.521-1.48 7.578-5.698 7.578-10.454v-88c0-6.075-4.925-11-11-11z"/><path d="m190.5 245c-6.075 0-11 4.925-11 11v54.399l-2.129-2.904c-2.072-2.826-5.367-4.495-8.871-4.495s-6.798 1.669-8.871 4.495l-2.129 2.904v-54.399c0-6.075-4.925-11-11-11s-11 4.925-11 11v88c0 4.756 3.057 8.974 7.578 10.454 4.52 1.48 9.48-.113 12.293-3.949l13.129-17.904 13.129 17.904c2.112 2.88 5.434 4.496 8.872 4.496 1.141 0 2.294-.178 3.421-.547 4.521-1.48 7.578-5.698 7.578-10.454v-88c0-6.075-4.925-11-11-11z"/><path d="m365.5 245c-6.075 0-11 4.925-11 11v54.399l-2.13-2.904c-2.071-2.826-5.366-4.495-8.87-4.495s-6.799 1.669-8.87 4.495l-2.13 2.904v-54.399c0-6.075-4.925-11-11-11s-11 4.925-11 11v88c0 4.756 3.058 8.974 7.578 10.454 4.521 1.479 9.48-.114 12.292-3.949l13.13-17.904 13.13 17.904c2.111 2.88 5.434 4.496 8.872 4.496 1.141 0 2.294-.178 3.42-.547 4.521-1.48 7.578-5.698 7.578-10.454v-88c0-6.075-4.925-11-11-11z"/><path d="m448.391 292.222-31.112-31.113c-4.297-4.295-11.262-4.295-15.557 0-4.296 4.296-4.296 11.261 0 15.557l23.334 23.334-23.334 23.334c-4.296 4.296-4.296 11.261 0 15.557 2.148 2.148 4.963 3.222 7.778 3.222s5.631-1.074 7.778-3.222l31.112-31.113c4.297-4.296 4.297-11.26.001-15.556z"/><path d="m110.278 261.109c-4.296-4.296-11.261-4.296-15.557 0l-31.113 31.113c-4.295 4.296-4.295 11.261 0 15.557l31.113 31.113c2.148 2.148 4.963 3.222 7.778 3.222s5.63-1.074 7.778-3.222c4.295-4.296 4.295-11.261 0-15.557l-23.334-23.335 23.335-23.334c4.296-4.296 4.296-11.261 0-15.557z"/><path d="m62.78 141.99c5.515-5.193 3.529-15.258-3.57-17.93-8.903-3.803-18.153 5.453-14.37 14.36 2.689 7.103 12.735 9.092 17.94 3.57z"/><path d="m88.84 138.42c2.689 7.103 12.735 9.092 17.94 3.57 6.191-5.997 2.855-17.021-5.63-18.56-8.416-1.845-15.761 7.088-12.31 14.99z"/><path d="m138.79 144.37c6.924 3.127 15.428-2.575 15.21-10.16.061-9.685-11.984-14.675-18.78-7.77-5.511 5.192-3.525 15.256 3.57 17.93z"/></g><path d="m461 79.214h-410c-28.122 0-51 22.878-51 51v251.572c0 28.122 22.878 51 51 51h410c28.121 0 51-22.878 51-51v-251.572c0-28.122-22.879-51-51-51zm-410 22h410c15.99 0 29 13.009 29 29v37h-468v-37c0-15.991 13.009-29 29-29zm410 309.572h-410c-15.991 0-29-13.009-29-29v-192.572h468v192.572c0 15.991-13.01 29-29 29z"/></g><g/><g/><g/><g/><g/><g/><g/><g/><g/><g/><g/><g/><g/><g/><g/></svg>