<svg id="Capa_1" enable-background="new 0 0 512 512" viewBox="0 0 512 512" xmlns="http://www.w3.org/2000/svg" fill="#E6ECF2"><g><path d="m501 366.713h-11v-246.426c0-22.607-18.393-41-41-41h-386c-22.607 0-41 18.393-41 41v246.426h-11c-6.075 0-11 4.925-11 11v14c0 22.607 18.393 41 41 41h430c22.607 0 41-18.393 41-41v-14c0-6.075-4.925-11-11-11zm-457-246.426c0-10.477 8.523-19 19-19h386c10.477 0 19 8.523 19 19v246.426h-22v-232.426c0-6.075-4.925-11-11-11h-358c-6.075 0-11 4.925-11 11v232.426h-22zm44 246.426v-221.426h336v221.426zm-66 25v-3h182.993v22h-163.993c-10.477 0-19-8.524-19-19zm204.993 19v-22h58.371v22zm263.007-19c0 10.477-8.523 19-19 19h-163.637v-22h182.637z"/><g fill="#0496FF"><path d="m353.142 248.222-34.533-34.533c-4.296-4.296-11.261-4.296-15.557 0-4.295 4.296-4.295 11.261 0 15.557l26.756 26.754-26.755 26.755c-4.295 4.296-4.295 11.261 0 15.557 2.148 2.148 4.963 3.222 7.778 3.222s5.63-1.074 7.778-3.222l34.533-34.533c4.296-4.297 4.296-11.261 0-15.557z"/><path d="m208.948 213.688c-4.296-4.296-11.261-4.296-15.557 0l-34.533 34.533c-4.295 4.296-4.295 11.261 0 15.557l34.533 34.533c2.148 2.148 4.963 3.222 7.778 3.222s5.63-1.074 7.778-3.222c4.295-4.296 4.295-11.261 0-15.557l-26.755-26.754 26.755-26.755c4.296-4.296 4.296-11.261.001-15.557z"/><path d="m278.326 196.173c-5.692-2.125-12.028.768-14.151 6.46l-36.96 99.042c-2.124 5.691.768 12.027 6.46 14.151 1.268.473 2.566.697 3.844.697 4.46 0 8.656-2.733 10.307-7.157l36.96-99.042c2.124-5.691-.768-12.027-6.46-14.151z"/></g></g><g/><g/><g/><g/><g/><g/><g/><g/><g/><g/><g/><g/><g/><g/><g/></svg>