<svg id="Layer_1" enable-background="new 0 0 512 512" viewBox="0 0 512 512" xmlns="http://www.w3.org/2000/svg" fill="#E6ECF2"><g><path d="m421.073 152.543c6.075 0 11-4.925 11-11v-130.543c0-6.075-4.925-11-11-11h-410.073c-6.075 0-11 4.925-11 11v130.543c0 6.075 4.925 11 11 11h20.539v27.185h-20.539c-6.075 0-11 4.925-11 11v130.543c0 6.075 4.925 11 11 11h20.539v27.185h-20.539c-6.075 0-11 4.925-11 11v130.544c0 6.075 4.925 11 11 11h410.073c6.075 0 11-4.925 11-11v-65.137c0-6.075-4.925-11-11-11s-11 4.925-11 11v54.137h-388.073v-108.543h197c6.075 0 11-4.925 11-11s-4.925-11-11-11h-165.461v-27.185h165.461c6.075 0 11-4.925 11-11s-4.925-11-11-11h-197v-108.543h388.073v54.136c0 6.075 4.925 11 11 11s11-4.925 11-11v-65.136c0-6.075-4.925-11-11-11h-20.539v-27.185h20.539zm-177.721-22 16.516-26.5h150.205v26.5zm-221.352-108.543h388.073v60.043h-156.311c-3.798 0-7.327 1.959-9.335 5.182l-26.998 43.318h-195.429zm356.535 157.729h-324.996v-27.185h324.996z"/><g fill="#0496FF"><path d="m456.072 374.864h-23.999v-68.999c0-6.075-4.925-11-11-11s-11 4.925-11 11v79.999c0 6.075 4.925 11 11 11h34.999c6.075 0 11-4.925 11-11s-4.925-11-11-11z"/><path d="m360.165 294.865c-17.093 0-31 13.906-31 30.999v40c0 17.094 13.907 31 31 31 4.537 0 8.849-.98 12.737-2.739 2.072 1.825 4.667 2.739 7.262 2.739 2.815 0 5.63-1.074 7.778-3.222 4.128-4.128 4.289-10.72.483-15.041 1.759-3.888 2.739-8.2 2.739-12.737v-40c0-17.093-13.906-30.999-30.999-30.999zm-9 70.999v-40c0-4.962 4.037-8.999 9-8.999 4.962 0 8.999 4.037 8.999 8.999v39.046c-2.473.224-4.885 1.283-6.777 3.176-1.881 1.881-2.938 4.273-3.172 6.728-4.518-.476-8.05-4.308-8.05-8.95z"/><path d="m295.894 337.903-10.634-4.404c-4.406-1.824-6.506-6.895-4.681-11.302 1.826-4.405 6.896-6.506 11.303-4.681l5.316 2.202c5.614 2.322 12.048-.342 14.372-5.954 2.325-5.612-.341-12.047-5.953-14.372l-5.317-2.202c-7.543-3.125-15.871-3.116-23.449.022-7.578 3.139-13.472 9.022-16.597 16.566-6.467 15.614.974 33.578 16.587 40.046l10.633 4.403c4.407 1.826 6.507 6.896 4.681 11.305-.875 2.114-2.541 3.769-4.689 4.658-2.148.891-4.497.898-6.612.021l-5.317-2.202c-5.614-2.321-12.047.342-14.372 5.954s.341 12.047 5.953 14.372l5.317 2.202c3.763 1.559 7.721 2.338 11.684 2.338 3.981 0 7.967-.787 11.765-2.359 7.579-3.14 13.473-9.023 16.597-16.567 6.467-15.613-.973-33.576-16.587-40.046z"/><path d="m481 249.864h-237c-17.093 0-31 13.906-31 31v130.001c0 17.093 13.907 30.999 31 30.999h237c17.093 0 31-13.906 31-30.999v-130.001c0-17.094-13.907-31-31-31zm9 161.001c0 4.962-4.038 8.999-9 8.999h-237c-4.962 0-9-4.037-9-8.999v-130.001c0-4.963 4.038-9 9-9h237c4.962 0 9 4.037 9 9z"/></g><g><g><path d="m61.007 87.272c-6.075 0-11.003-4.925-11.003-11s4.921-11 10.996-11h.007c6.075 0 11 4.925 11 11s-4.924 11-11 11z" fill="#0496FF"/></g><g><path d="m111.007 87.272c-6.075 0-11.003-4.925-11.003-11s4.921-11 10.996-11h.007c6.075 0 11 4.925 11 11s-4.924 11-11 11z" fill="#0496FF"/></g><g><path d="m161.007 87.272c-6.075 0-11.004-4.925-11.004-11s4.921-11 10.997-11h.007c6.075 0 11 4.925 11 11s-4.925 11-11 11z" fill="#0496FF"/></g><g><path d="m61.007 267c-6.075 0-11.003-4.925-11.003-11s4.921-11 10.996-11h.007c6.075 0 11 4.925 11 11s-4.924 11-11 11z" fill="#0496FF"/></g><g><path d="m111.007 267c-6.075 0-11.003-4.925-11.003-11s4.921-11 10.996-11h.007c6.075 0 11 4.925 11 11s-4.924 11-11 11z" fill="#0496FF"/></g><g><path d="m161.007 267c-6.075 0-11.004-4.925-11.004-11s4.921-11 10.997-11h.007c6.075 0 11 4.925 11 11s-4.925 11-11 11z" fill="#0496FF"/></g><g><path d="m61.007 446.728c-6.075 0-11.003-4.925-11.003-11s4.921-11 10.996-11h.007c6.075 0 11 4.925 11 11s-4.924 11-11 11z" fill="#0496FF"/></g><g><path d="m111.007 446.728c-6.075 0-11.003-4.925-11.003-11s4.921-11 10.996-11h.007c6.075 0 11 4.925 11 11s-4.924 11-11 11z" fill="#0496FF"/></g><g><path d="m161.007 446.728c-6.075 0-11.004-4.925-11.004-11s4.921-11 10.997-11h.007c6.075 0 11 4.925 11 11s-4.925 11-11 11z" fill="#0496FF"/></g></g></g><g/><g/><g/><g/><g/><g/><g/><g/><g/><g/><g/><g/><g/><g/><g/></svg>