<svg id="Layer_1" enable-background="new 0 0 512 512" viewBox="0 0 512 512" xmlns="http://www.w3.org/2000/svg" fill="#052438"><g><g><path d="m481.001 34.998h-450.001c-17.094 0-31 13.906-31 31v300.001c0 17.094 13.906 31 31 31h167.935l-11.89 58.003h-11.045c-6.075 0-11 4.925-11 11s4.925 11 11 11h160c6.075 0 11-4.925 11-11s-4.925-11-11-11h-11.044l-11.89-58.003h167.935c17.093 0 30.999-13.906 30.999-31v-300.001c0-17.094-13.906-31-30.999-31zm8.999 31v264h-353.071v-273h344.072c4.962 0 8.999 4.037 8.999 9zm-459-9h83.929v273h-92.929v-264c0-4.963 4.037-9 9-9zm271.498 398.004h-92.994l11.89-58.003h69.214zm178.503-80.003h-450.001c-4.963 0-9-4.037-9-9v-14.001h468v14.001c0 4.963-4.037 9-8.999 9z"/><path d="m170.93 204.499h285.071c6.075 0 11-4.925 11-11s-4.925-11-11-11h-285.071c-6.075 0-11 4.925-11 11s4.924 11 11 11z"/><path d="m170.93 249.498h285.071c6.075 0 11-4.925 11-11s-4.925-11-11-11h-285.071c-6.075 0-11 4.925-11 11s4.924 11 11 11z"/><path d="m456.001 272.498h-285.071c-6.075 0-11 4.925-11 11s4.925 11 11 11h285.071c6.075 0 11-4.925 11-11s-4.925-11-11-11z"/></g><g fill="#0496FF"><path d="m274.67 93.973c-5.261-3.036-11.989-1.234-15.026 4.026l-25.98 45c-3.037 5.262-1.234 11.988 4.026 15.026 1.732 1 3.623 1.476 5.489 1.476 3.802 0 7.5-1.974 9.537-5.502l25.98-45c3.037-5.262 1.235-11.988-4.026-15.026z"/><path d="m216.708 95.721c-4.297-4.295-11.26-4.295-15.557 0l-22.5 22.5c-4.296 4.296-4.296 11.261 0 15.557l22.5 22.5c2.148 2.147 4.963 3.222 7.778 3.222s5.63-1.074 7.778-3.222c4.296-4.296 4.296-11.261 0-15.557l-14.722-14.722 14.722-14.722c4.297-4.296 4.297-11.26.001-15.556z"/><path d="m333.708 118.221-22.5-22.5c-4.297-4.295-11.26-4.295-15.557 0-4.296 4.296-4.296 11.261 0 15.557l14.722 14.722-14.722 14.722c-4.296 4.296-4.296 11.261 0 15.557 2.148 2.147 4.963 3.222 7.778 3.222s5.63-1.074 7.778-3.222l22.5-22.5c4.297-4.298 4.297-11.262.001-15.558z"/><path d="m80.929 92.499h-24.929c-6.075 0-11 4.925-11 11s4.925 11 11 11h24.929c6.075 0 11-4.925 11-11s-4.925-11-11-11z"/><path d="m80.929 137.499h-24.929c-6.075 0-11 4.925-11 11s4.925 11 11 11h24.929c6.075 0 11-4.925 11-11s-4.925-11-11-11z"/><path d="m80.929 182.499h-24.929c-6.075 0-11 4.925-11 11s4.925 11 11 11h24.929c6.075 0 11-4.925 11-11s-4.925-11-11-11z"/><path d="m80.929 227.498h-24.929c-6.075 0-11 4.925-11 11s4.925 11 11 11h24.929c6.075 0 11-4.925 11-11s-4.925-11-11-11z"/><path d="m80.929 272.498h-24.929c-6.075 0-11 4.925-11 11s4.925 11 11 11h24.929c6.075 0 11-4.925 11-11s-4.925-11-11-11z"/></g></g><g/><g/><g/><g/><g/><g/><g/><g/><g/><g/><g/><g/><g/><g/><g/></svg>