<svg id="Capa_1" enable-background="new 0 0 512 512" viewBox="0 0 512 512" xmlns="http://www.w3.org/2000/svg" fill="#052438"><g><g fill="#0496FF"><path d="m190 108.228c-6.075 0-11 4.925-11 11v33h-22v-33c0-6.075-4.925-11-11-11s-11 4.925-11 11v44c0 6.075 4.925 11 11 11h33v33c0 6.075 4.925 11 11 11s11-4.925 11-11v-88c0-6.075-4.925-11-11-11z"/><path d="m256 108.228c-18.196 0-33 14.804-33 33v44c0 18.196 14.804 33 33 33s33-14.804 33-33v-44c0-18.196-14.804-33-33-33zm11 77c0 6.065-4.935 11-11 11s-11-4.935-11-11v-44c0-6.065 4.935-11 11-11s11 4.935 11 11z"/><path d="m366 108.228c-6.075 0-11 4.925-11 11v33h-22v-33c0-6.075-4.925-11-11-11s-11 4.925-11 11v44c0 6.075 4.925 11 11 11h33v33c0 6.075 4.925 11 11 11s11-4.925 11-11v-88c0-6.075-4.925-11-11-11z"/><path d="m450.312 155.45-34.533-34.533c-4.297-4.296-11.26-4.296-15.557 0-4.296 4.296-4.296 11.261 0 15.557l26.755 26.755-26.755 26.755c-4.296 4.296-4.296 11.261 0 15.557 2.148 2.148 4.963 3.222 7.778 3.222s5.63-1.074 7.778-3.222l34.533-34.533c4.296-4.298 4.296-11.262.001-15.558z"/><path d="m111.778 120.917c-4.297-4.296-11.26-4.296-15.557 0l-34.533 34.533c-4.296 4.296-4.296 11.261 0 15.557l34.533 34.533c2.148 2.148 4.963 3.222 7.778 3.222s5.63-1.074 7.778-3.222c4.296-4.296 4.296-11.261 0-15.557l-26.755-26.755 26.755-26.755c4.297-4.296 4.297-11.261.001-15.556z"/></g><path d="m471 19.515h-430c-22.607 0-41 18.393-41 41v271.426c0 22.607 18.393 41 41 41h164.308l-22.086 53.544h-58.725c-6.075 0-11 4.925-11 11v44c0 6.075 4.925 11 11 11h263.008c6.075 0 11-4.925 11-11v-44c0-6.075-4.925-11-11-11h-58.725l-22.086-53.544h164.306c22.607 0 41-18.393 41-41v-271.426c0-22.607-18.393-41-41-41zm-94.496 450.97h-241.008v-22h241.008zm-169.484-44 22.072-53.511h53.816l22.072 53.511zm-166.02-384.97h430c10.477 0 19 8.523 19 19v224.426h-468v-224.426c0-10.476 8.523-19 19-19zm430 309.426h-430c-10.477 0-19-8.523-19-19v-25h468v25c0 10.476-8.523 19-19 19z"/></g><g/><g/><g/><g/><g/><g/><g/><g/><g/><g/><g/><g/><g/><g/><g/></svg>