<svg id="Capa_1" enable-background="new 0 0 512 512" viewBox="0 0 512 512" xmlns="http://www.w3.org/2000/svg" fill="#E6ECF2"><g><path d="m380.678 194.223c-4.554-32.077-29.967-57.532-62.024-62.147-5.154-51.094-48.412-91.106-100.842-91.106-52.231 0-95.362 39.712-100.783 90.529-2.06-.115-4.12-.172-6.175-.172-61.125 0-110.854 49.729-110.854 110.855s49.729 110.854 110.854 110.854h241.822v-22h-241.822c-48.994 0-88.854-39.86-88.854-88.854s39.86-88.854 88.854-88.854c4.933 0 9.907.414 14.785 1.23 3.193.534 6.455-.363 8.923-2.454 2.469-2.09 3.893-5.161 3.893-8.396v-1.381c0-43.757 35.6-79.357 79.357-79.357s79.357 35.6 79.357 79.357c0 6.075 4.925 11 11 11 28.252 0 51.237 22.985 51.237 51.237 0 6.075 4.925 11 11 11 31.836 0 57.736 25.9 57.736 57.736 0 16.195-6.528 31.198-18.382 42.247l15 16.094c16.131-15.034 25.383-36.298 25.383-58.34-.001-40.487-30.333-74.023-69.465-79.078z"/><g fill="#0496FF"><path d="m287.68 184.691c-4.296-4.296-11.261-4.296-15.557 0-4.295 4.296-4.295 11.261 0 15.557l26.755 26.755-26.755 26.755c-4.295 4.296-4.295 11.261 0 15.557 2.148 2.148 4.963 3.222 7.778 3.222s5.63-1.074 7.778-3.222l34.533-34.533c4.295-4.296 4.295-11.261 0-15.557z"/><path d="m178.019 184.691c-4.296-4.296-11.261-4.296-15.557 0l-34.533 34.533c-4.295 4.296-4.295 11.261 0 15.557l34.533 34.533c2.148 2.148 4.963 3.222 7.778 3.222s5.63-1.074 7.778-3.222c4.295-4.296 4.295-11.261 0-15.557l-26.755-26.755 26.755-26.755c4.296-4.295 4.296-11.26.001-15.556z"/><path d="m247.396 167.176c-5.692-2.125-12.027.768-14.151 6.46l-36.96 99.042c-2.124 5.691.768 12.027 6.46 14.151 1.268.473 2.566.697 3.844.697 4.46 0 8.656-2.733 10.307-7.157l36.96-99.042c2.124-5.691-.768-12.027-6.46-14.151z"/><path d="m508.778 421.139-42.802-42.802 30.52-20.183c3.49-2.308 5.369-6.397 4.846-10.548-.522-4.152-3.355-7.647-7.308-9.019l-153.867-53.388c-3.981-1.38-8.403-.367-11.384 2.614-2.98 2.98-3.996 7.402-2.614 11.384l53.388 153.867c1.372 3.953 4.867 6.786 9.019 7.308 4.144.517 8.24-1.356 10.548-4.847l20.183-30.52 42.802 42.802c2.063 2.062 4.861 3.222 7.778 3.222s5.715-1.159 7.778-3.222l31.113-31.113c4.296-4.295 4.296-11.259 0-15.555zm-38.891 23.334-44.547-44.548c-2.073-2.073-4.875-3.222-7.777-3.222-.367 0-.736.019-1.105.056-3.286.332-6.249 2.122-8.071 4.877l-15.339 23.195-38.657-111.411 111.41 38.657-23.195 15.338c-2.754 1.822-4.545 4.785-4.876 8.071-.332 3.286.831 6.547 3.166 8.883l44.548 44.548z"/></g></g><g/><g/><g/><g/><g/><g/><g/><g/><g/><g/><g/><g/><g/><g/><g/></svg>