<svg id="Layer_1" enable-background="new 0 0 512 512" viewBox="0 0 512 512" xmlns="http://www.w3.org/2000/svg" fill="#052438"><g><path d="m463.778 83.222-80-80c-2.063-2.063-4.861-3.222-7.778-3.222h-320c-6.075 0-11 4.925-11 11v490c0 6.075 4.925 11 11 11h400c6.075 0 11-4.925 11-11v-410c0-2.917-1.159-5.715-3.222-7.778zm-76.778-45.665 42.443 42.443h-42.443zm-22-15.557v69c0 6.075 4.925 11 11 11h69v218h-378v-298zm-298 468v-148h378v148z"/><g fill="#0496FF"><path d="m256 274.5c39.012 0 81-11.266 81-36v-134.85c0-.05.001-.099.001-.149 0-24.734-41.988-36-81-36-38.928 0-80.82 11.218-80.999 35.842-.001.053-.002.106-.002.159v134.998c0 24.734 41.988 36 81 36zm0-22c-36.721 0-56.799-10.109-59-14.349v-18.976c15.741 7.001 37.809 10.325 59 10.325s43.259-3.324 59-10.325v18.976c-2.201 4.24-22.279 14.349-59 14.349zm59-104.349c-2.2 4.24-22.279 14.349-59 14.349s-56.8-10.109-59-14.349v-18.975c15.741 7.001 37.81 10.325 59.001 10.325 21.19 0 43.258-3.324 58.999-10.325zm-59 36.349c21.191 0 43.259-3.324 59-10.325v18.975c-2.2 4.24-22.278 14.349-59 14.349s-56.8-10.109-59-14.349v-18.975c15.741 7.001 37.809 10.325 59 10.325zm.001-95c35.619 0 55.622 9.561 58.771 14-3.149 4.439-23.152 14-58.771 14s-55.622-9.562-58.771-14c3.149-4.439 23.152-14 58.771-14z"/><path d="m349.572 445h-23.999v-69c0-6.075-4.925-11-11-11s-11 4.925-11 11v80c0 6.075 4.925 11 11 11h34.999c6.075 0 11-4.925 11-11s-4.925-11-11-11z"/><path d="m284.664 436v-40c0-17.093-13.906-30.999-31-30.999-17.093 0-30.999 13.906-30.999 30.999v40c0 17.093 13.906 31 31 31 4.537 0 8.849-.98 12.737-2.739 2.073 1.825 4.667 2.739 7.262 2.739 2.815 0 5.63-1.074 7.778-3.222 4.128-4.128 4.289-10.72.483-15.041 1.759-3.888 2.739-8.201 2.739-12.737zm-39.999 0v-40c0-4.962 4.037-8.999 8.999-8.999h.001c4.962 0 8.999 4.037 8.999 8.999v39.045c-2.473.224-4.885 1.283-6.778 3.176-1.881 1.881-2.938 4.273-3.172 6.728-4.517-.476-8.049-4.308-8.049-8.949z"/><path d="m189.394 408.039-10.633-4.404c-2.115-.876-3.77-2.542-4.659-4.69-.891-2.148-.898-4.496-.021-6.613.876-2.114 2.541-3.769 4.689-4.658 2.147-.889 4.498-.897 6.611-.022l5.316 2.202c5.61 2.323 12.048-.34 14.373-5.953 2.324-5.613-.341-12.047-5.953-14.372l-5.317-2.202c-7.543-3.125-15.871-3.117-23.449.021-7.578 3.139-13.473 9.023-16.596 16.566-3.126 7.544-3.118 15.872.021 23.45 3.14 7.578 9.022 13.472 16.565 16.596l10.634 4.405c4.406 1.825 6.506 6.895 4.681 11.303-.876 2.114-2.541 3.769-4.689 4.659-2.149.889-4.497.897-6.611.022l-5.316-2.203c-5.612-2.328-12.047.339-14.372 5.952s.339 12.047 5.952 14.373l5.317 2.204c3.764 1.558 7.721 2.337 11.684 2.337 3.981 0 7.968-.787 11.766-2.36 7.579-3.139 13.473-9.023 16.597-16.566 6.464-15.615-.976-33.579-16.59-40.047z"/></g></g><g/><g/><g/><g/><g/><g/><g/><g/><g/><g/><g/><g/><g/><g/><g/></svg>