<svg id="Layer_1" enable-background="new 0 0 512 512" viewBox="0 0 512 512" xmlns="http://www.w3.org/2000/svg" fill="#E6ECF2"><g><g><path d="m467.56 199.646v262.354h-403.825c-23.013 0-41.735-18.723-41.735-41.735 0-23.013 18.722-41.735 41.735-41.735h17.763c6.075 0 11-4.925 11-11v-244.83h233.737v-22h-233.736v-61.7c0-6.075-4.925-11-11-11h-17.764c-35.144 0-63.735 28.592-63.735 63.735v328.529c0 35.144 28.591 63.736 63.735 63.736h414.825c6.075 0 11-4.925 11-11v-273.354zm-445.56-107.911c0-23.012 18.722-41.735 41.735-41.735h6.763v306.529h-6.763c-15.948 0-30.545 5.887-41.735 15.603z"/><path d="m267.127 170.7c0-6.075-4.925-11-11-11h-130.628c-6.075 0-11 4.925-11 11s4.925 11 11 11h130.628c6.075 0 11-4.925 11-11z"/><path d="m125.499 207.7c-6.075 0-11 4.925-11 11s4.925 11 11 11h64.678c6.075 0 11-4.925 11-11s-4.925-11-11-11z"/><path d="m316.774 381c0 6.075 4.925 11 11 11h109.312c6.075 0 11-4.925 11-11s-4.925-11-11-11h-109.312c-6.075 0-11 4.925-11 11z"/><path d="m327.774 418c-6.075 0-11 4.925-11 11s4.925 11 11 11h56.474c6.075 0 11-4.925 11-11s-4.925-11-11-11z"/></g><g fill="#0496FF"><path d="m198.039 263.724c-5.716 0-10.411 4.36-10.946 9.936-40.907 5.381-72.594 40.448-72.594 82.8 0 46.064 37.476 83.541 83.541 83.541 42.352 0 77.419-31.687 82.8-72.594 5.575-.536 9.935-5.23 9.935-10.946-.001-51.136-41.602-92.737-92.736-92.737zm0 154.276c-33.934 0-61.541-27.607-61.541-61.541 0-30.177 21.84-55.333 50.541-60.536v60.536c0 6.075 4.925 11 11 11h60.536c-5.203 28.701-30.359 50.541-60.536 50.541zm11-72.541v-58.881c30.215 4.736 54.145 28.667 58.881 58.881z"/><path d="m437.19 257.703h-29.002c-6.075 0-11 4.925-11 11s4.925 11 11 11h2.446l-18.841 18.841-14.807-14.807c-4.296-4.296-11.261-4.296-15.557 0l-41.434 41.434c-4.295 4.296-4.295 11.261 0 15.557 2.148 2.148 4.963 3.222 7.778 3.222s5.63-1.074 7.778-3.222l33.656-33.656 14.807 14.807c4.296 4.296 11.261 4.296 15.557 0l26.619-26.619v2.445c0 6.075 4.925 11 11 11s11-4.925 11-11v-29.002c0-6.075-4.924-11-11-11z"/><path d="m506.5 151.253-5.794-3.345c.512-3.858.771-7.76.771-11.667s-.258-7.809-.771-11.667l5.794-3.345c2.526-1.458 4.37-3.861 5.125-6.679s.36-5.821-1.099-8.347l-22.44-38.867c-3.038-5.262-9.766-7.063-15.026-4.026l-5.807 3.353c-6.185-4.764-13.001-8.706-20.194-11.678v-6.688c0-6.075-4.925-11-11-11h-44.88c-6.075 0-11 4.925-11 11v6.688c-7.193 2.972-14.01 6.914-20.194 11.678l-5.808-3.353c-5.26-3.036-11.988-1.235-15.026 4.026l-22.44 38.867c-1.458 2.526-1.854 5.529-1.099 8.347s2.599 5.221 5.125 6.679l5.794 3.345c-.512 3.858-.771 7.76-.771 11.667s.258 7.809.771 11.667l-5.794 3.345c-2.526 1.458-4.37 3.861-5.125 6.679s-.36 5.821 1.099 8.347l22.44 38.867c3.037 5.261 9.763 7.063 15.026 4.026l5.808-3.353c6.184 4.764 13 8.706 20.194 11.678v6.688c0 6.075 4.925 11 11 11h44.88c6.075 0 11-4.925 11-11v-6.688c7.193-2.972 14.01-6.914 20.194-11.678l5.807 3.353c5.262 3.038 11.989 1.235 15.026-4.026l22.44-38.867c1.458-2.526 1.854-5.529 1.099-8.347s-2.599-5.221-5.125-6.679zm-28.705-29.872c1.116 4.841 1.682 9.841 1.682 14.86s-.566 10.019-1.682 14.86c-1.085 4.711 1.032 9.579 5.219 11.997l2.959 1.708-11.44 19.814-2.979-1.72c-4.19-2.419-9.47-1.816-13.007 1.486-7.31 6.825-16.196 11.963-25.697 14.859-4.629 1.411-7.792 5.682-7.792 10.522v3.417h-22.88v-3.418c0-4.84-3.164-9.111-7.793-10.522-9.501-2.896-18.387-8.034-25.696-14.859-3.538-3.302-8.816-3.905-13.007-1.486l-2.979 1.72-11.44-19.815 2.959-1.708c4.187-2.417 6.305-7.286 5.219-11.997-1.115-4.841-1.681-9.841-1.681-14.86s.566-10.019 1.681-14.86c1.086-4.711-1.032-9.579-5.219-11.997l-2.959-1.708 11.44-19.815 2.979 1.72c4.19 2.418 9.47 1.815 13.007-1.486 7.31-6.825 16.195-11.963 25.696-14.859 4.629-1.411 7.793-5.682 7.793-10.522v-3.418h22.88v3.417c0 4.84 3.163 9.111 7.792 10.522 9.501 2.896 18.387 8.035 25.697 14.859 3.537 3.301 8.816 3.905 13.007 1.486l2.979-1.72 11.44 19.814-2.959 1.708c-4.187 2.422-6.305 7.29-5.219 12.001z"/><path d="m413.618 93.235c-23.71 0-43 19.29-43 43s19.29 43 43 43 43-19.29 43-43-19.289-43-43-43zm0 64c-11.58 0-21-9.42-21-21s9.42-21 21-21 21 9.42 21 21-9.42 21-21 21z"/></g></g><g/><g/><g/><g/><g/><g/><g/><g/><g/><g/><g/><g/><g/><g/><g/></svg>