<svg id="Layer_1" enable-background="new 0 0 512 512" viewBox="0 0 512 512" xmlns="http://www.w3.org/2000/svg" fill="#E6ECF2"><g><g fill="#0496FF"><path d="m67.67 254h121.446c6.075 0 11-4.925 11-11s-4.925-11-11-11h-121.446c-6.075 0-11 4.925-11 11s4.924 11 11 11z"/><path d="m67.67 318h176.632c6.075 0 11-4.925 11-11s-4.925-11-11-11h-176.632c-6.075 0-11 4.925-11 11s4.924 11 11 11z"/><path d="m316.331 360h-248.661c-6.075 0-11 4.925-11 11s4.925 11 11 11h248.661c6.075 0 11-4.925 11-11s-4.925-11-11-11z"/><path d="m295.437 191.972c2.159 2.906 5.477 4.441 8.839 4.441 2.28 0 4.58-.707 6.551-2.17 4.877-3.623 5.894-10.513 2.271-15.39l-18.463-24.853 18.462-24.853c3.623-4.877 2.606-11.767-2.271-15.39-4.877-3.624-11.767-2.606-15.39 2.271l-23.335 31.412c-2.893 3.895-2.893 9.225 0 13.119z"/><path d="m443.899 147.44-23.335-31.412c-3.623-4.877-10.513-5.894-15.39-2.271s-5.894 10.513-2.271 15.39l18.462 24.853-18.462 24.853c-3.623 4.877-2.606 11.767 2.271 15.39 1.971 1.464 4.271 2.171 6.551 2.17 3.362 0 6.68-1.535 8.839-4.441l23.335-31.412c2.893-3.895 2.893-9.225 0-13.12z"/><path d="m369.805 102.961c-5.913-1.388-11.834 2.28-13.223 8.194l-18.942 80.66c-1.389 5.914 2.279 11.834 8.194 13.223.846.199 1.691.294 2.524.294 4.991 0 9.509-3.419 10.699-8.488l18.942-80.66c1.389-5.913-2.279-11.834-8.194-13.223z"/></g><path d="m501 111.081h-10.86c-2.253-6.915-5.055-13.649-8.381-20.142l7.707-7.707c4.295-4.296 4.295-11.261 0-15.557l-45.141-45.141c-4.296-4.296-11.261-4.296-15.557 0l-7.83 7.83c-6.454-3.272-13.146-6.029-20.018-8.245v-11.119c0-6.075-4.925-11-11-11h-63.839c-6.075 0-11 4.925-11 11v11.367c-6.784 2.231-13.391 4.991-19.762 8.254l-8.086-8.086c-4.296-4.296-11.261-4.296-15.557 0l-45.141 45.141c-4.295 4.296-4.295 11.261 0 15.556l8.208 8.209c-3.214 6.337-5.931 12.904-8.125 19.64h-11.618c-6.075 0-11 4.925-11 11v35.919h-150.425c-29.541 0-53.575 24.034-53.575 53.575v190.85c0 29.541 24.034 53.575 53.575 53.575h16.116v45c0 4.449 2.68 8.46 6.791 10.163 1.361.564 2.79.838 4.207.838 2.863 0 5.676-1.118 7.781-3.222l52.778-52.779h189.177c29.542 0 53.575-24.034 53.575-53.575v-94.425h5.919c6.075 0 11-4.925 11-11v-11.12c6.872-2.216 13.564-4.973 20.018-8.245l7.83 7.83c4.296 4.296 11.261 4.296 15.557 0l45.141-45.141c4.295-4.296 4.295-11.261 0-15.557l-7.707-7.707c3.327-6.493 6.128-13.227 8.381-20.142h10.861c6.075 0 11-4.925 11-11v-63.839c0-6.074-4.925-10.998-11-10.998zm-139 291.344c0 17.41-14.164 31.575-31.575 31.575h-193.733c-2.917 0-5.715 1.159-7.778 3.222l-37.222 37.222v-29.444c0-6.075-4.925-11-11-11h-27.117c-17.41 0-31.575-14.165-31.575-31.575v-190.85c0-17.41 14.165-31.575 31.575-31.575h150.425v5.919c0 6.075 4.925 11 11 11h11.618c2.194 6.736 4.911 13.302 8.125 19.64l-8.209 8.208c-4.295 4.296-4.295 11.261 0 15.557l45.141 45.141c4.296 4.296 11.261 4.296 15.557 0l8.086-8.086c6.371 3.263 12.978 6.022 19.762 8.254v11.367c0 6.075 4.925 11 11 11h35.92zm128-227.506h-8.106c-5.018 0-9.4 3.396-10.652 8.255-2.727 10.583-6.956 20.744-12.569 30.203-2.566 4.324-1.874 9.837 1.681 13.392l5.777 5.776-29.585 29.585-5.874-5.874c-3.543-3.542-9.031-4.243-13.351-1.706-9.431 5.542-19.562 9.712-30.114 12.397-4.875 1.24-8.288 5.63-8.288 10.66v8.393h-41.839v-8.588c0-5.005-3.379-9.379-8.222-10.644-10.466-2.731-20.511-6.928-29.857-12.475-4.324-2.565-9.836-1.874-13.392 1.682l-6.155 6.155-29.585-29.585 6.253-6.252c3.542-3.543 4.244-9.032 1.706-13.351-5.485-9.334-9.627-19.35-12.311-29.768-1.252-4.859-5.634-8.255-10.652-8.255h-8.865v-41.839h8.864c5.018 0 9.4-3.396 10.652-8.255 2.684-10.418 6.826-20.433 12.311-29.768 2.538-4.319 1.837-9.808-1.706-13.35l-6.252-6.253 29.585-29.585 6.155 6.155c3.555 3.555 9.067 4.247 13.392 1.682 9.346-5.546 19.392-9.744 29.857-12.475 4.843-1.264 8.222-5.638 8.222-10.644v-8.587h41.839v8.392c0 5.03 3.413 9.42 8.288 10.66 10.552 2.685 20.684 6.855 30.114 12.397 4.32 2.538 9.808 1.837 13.351-1.706l5.874-5.874 29.585 29.585-5.777 5.776c-3.555 3.555-4.247 9.068-1.681 13.392 5.613 9.458 9.842 19.62 12.569 30.203 1.252 4.859 5.634 8.255 10.652 8.255h8.106z"/></g><g/><g/><g/><g/><g/><g/><g/><g/><g/><g/><g/><g/><g/><g/><g/></svg>