<svg id="Layer_1" enable-background="new 0 0 512.027 512.027" viewBox="0 0 512.027 512.027" xmlns="http://www.w3.org/2000/svg" fill="#052438"><g><g fill="#0496FF"><path d="m216.804 357.03h46.013v22h-46.013z"/><path d="m216.804 132.998h46.013v22h-46.013z"/><path d="m174.95 245.014h92.127v22h-92.127z"/><path d="m267.077 108.615-.253.002.253 21.751v.246h.003v.001l.071-.001c69.118.041 125.338 56.285 125.338 125.412 0 69.14-56.244 125.392-125.38 125.413l-.157-.002v22l-.196-.002c.086.002.235.004.321.004 81.283 0 147.412-66.129 147.412-147.413 0-81.282-66.129-147.411-147.412-147.411z"/><path d="m344.324 256.027c0-42.594-34.653-77.247-77.247-77.247-.173 0-.344.004-.518.011l.393 21.992c.092 0 .183-.001.273-.003 30.395.082 55.099 24.833 55.099 55.247 0 30.452-24.764 55.229-55.212 55.247l-.16-.003v22c-.132 0-.262-.002-.39-.008.15.006.363.011.515.011 42.594 0 77.247-34.652 77.247-77.247z"/></g><g><path d="m188.804 329.03c-21.505 0-39 17.495-39 39s17.495 39 39 39 39-17.496 39-39c0-21.505-17.495-39-39-39zm0 56c-9.374 0-17-7.626-17-17s7.626-17 17-17 17 7.626 17 17-7.626 17-17 17z"/><path d="m188.804 104.998c-21.505 0-39 17.496-39 39s17.495 39 39 39 39-17.495 39-39-17.495-39-39-39zm0 56c-9.374 0-17-7.626-17-17s7.626-17 17-17 17 7.626 17 17-7.626 17-17 17z"/><path d="m185.95 256.014c0-21.505-17.495-39-39-39s-39 17.495-39 39 17.495 39 39 39 39-17.495 39-39zm-39 17c-9.374 0-17-7.626-17-17s7.626-17 17-17 17 7.626 17 17-7.626 17-17 17z"/><path d="m490.077 195.251h-21.454c-4.045-13.387-9.44-26.352-16.107-38.71l15.222-15.223c4.296-4.295 4.296-11.26 0-15.556l-70.395-70.395c-2.063-2.063-4.861-3.222-7.778-3.222s-5.715 1.159-7.778 3.222l-15.4 15.401c-12.303-6.57-25.208-11.885-38.532-15.868v-21.873c0-6.075-4.925-11-11-11h-67.072c-15.139-13.681-35.187-22.027-57.15-22.027-35.787 0-67.728 22.548-80.009 55.634-34.341 6.847-63.721 32.327-73.719 68.308-5.483 19.733-3.868 41.93 4.323 62.144-19.742 16.895-32.277 41.981-32.277 69.941 0 27.961 12.535 53.046 32.277 69.942-8.191 20.213-9.805 42.411-4.323 62.144 10 35.985 39.383 61.461 73.729 68.305 12.287 33.073 44.221 55.61 80 55.61 21.948 0 41.983-8.335 57.117-22h67.104c6.075 0 11-4.925 11-11v-21.872c13.324-3.983 26.229-9.298 38.532-15.868l15.4 15.4c4.297 4.296 11.26 4.296 15.557 0l70.395-70.395c4.296-4.296 4.296-11.261 0-15.556l-15.222-15.223c6.667-12.358 12.062-25.323 16.107-38.71h21.454c6.075 0 11-4.925 11-11v-99.553c-.001-6.075-4.926-11-11.001-11zm-297.444 294.776c-23.052 0-43.952-12.6-55.03-31.977 6.39-.43 12.83-1.513 19.236-3.292 5.854-1.626 9.28-7.69 7.654-13.543-1.627-5.854-7.689-9.277-13.543-7.654-6.584 1.83-13.208 2.702-19.732 2.702-32.313-.002-62.053-21.424-71.116-54.04-3.824-13.764-3.065-29.221 1.942-43.778 12.342 6.158 26.249 9.629 40.953 9.629 6.075 0 11-4.925 11-11s-4.925-11-11-11c-38.624 0-70.047-31.423-70.047-70.047s31.423-70.046 70.047-70.046c6.075 0 11-4.925 11-11s-4.925-11-11-11c-14.704 0-28.611 3.472-40.953 9.629-5.007-14.557-5.767-30.014-1.942-43.778 10.892-39.201 51.645-62.23 90.848-51.338 5.854 1.623 11.917-1.8 13.543-7.654 1.626-5.853-1.8-11.917-7.654-13.543-6.412-1.782-12.856-2.862-19.251-3.291 11.074-19.393 31.982-32.006 55.045-32.006 34.914 0 63.319 28.404 63.319 63.318v341.391c0 34.914-28.405 63.318-63.319 63.318zm286.444-195.223h-18.796c-5.019 0-9.4 3.396-10.652 8.256-4.396 17.065-11.215 33.451-20.267 48.704-2.565 4.324-1.873 9.837 1.682 13.392l13.358 13.359-54.838 54.839-13.511-13.511c-3.544-3.542-9.031-4.245-13.351-1.706-15.208 8.936-31.546 15.661-48.562 19.989-4.875 1.24-8.288 5.63-8.288 10.661v19.24h-38.608c6.811-12.25 10.706-26.335 10.706-41.318v-341.391c0-14.972-3.889-29.047-10.691-41.291h38.592v19.24c0 5.03 3.412 9.42 8.288 10.66 17.016 4.33 33.354 11.055 48.562 19.99 4.317 2.538 9.808 1.836 13.351-1.706l13.511-13.511 54.838 54.839-13.358 13.359c-3.555 3.555-4.247 9.068-1.682 13.392 9.052 15.253 15.87 31.64 20.267 48.704 1.252 4.86 5.634 8.256 10.652 8.256h18.796v77.554z"/></g></g><g/><g/><g/><g/><g/><g/><g/><g/><g/><g/><g/><g/><g/><g/><g/></svg>