<svg id="Layer_1" enable-background="new 0 0 512 512" viewBox="0 0 512 512" xmlns="http://www.w3.org/2000/svg" fill="#052438"><g><g id="XMLID_691_"/></g><g><g id="XMLID_7_"/></g><g><g id="XMLID_13_"/></g><g><g id="XMLID_26_"/></g><g><g id="XMLID_38_"/></g><g><g id="XMLID_105_"/></g><g><g id="XMLID_89_"/></g><g><g id="XMLID_76_"/></g><g><g id="XMLID_64_"/></g><g><g id="XMLID_51_"/></g><g><g id="XMLID_168_"/></g><g><g id="XMLID_156_"/></g><g><g id="XMLID_144_"/></g><g><g id="XMLID_132_"/></g><g><g id="XMLID_117_"/></g><g><g fill="#0496FF"><path d="m412.462 156.478h-36.548v22h36.548c6.075 0 11-4.925 11-11s-4.924-11-11-11z"/><path d="m423.462 79.478c0-6.075-4.925-11-11-11h-36.548v22h36.548c6.076 0 11-4.925 11-11z"/><path d="m412.462 244.478h-36.548v22h36.548c6.075 0 11-4.925 11-11s-4.924-11-11-11z"/><path d="m88.506 167.478c0 6.075 4.925 11 11 11h36.548v-22h-36.548c-6.075 0-11 4.925-11 11z"/><path d="m88.506 79.478c0 6.075 4.925 11 11 11h36.548v-22h-36.548c-6.075 0-11 4.925-11 11z"/><path d="m88.506 255.478c0 6.075 4.925 11 11 11h36.548v-22h-36.548c-6.075 0-11 4.925-11 11z"/><path d="m244.984 323.956c0 6.075 4.925 11 11 11s11-4.925 11-11v-36.548h-22z"/><path d="m332.984 323.956c0 6.075 4.925 11 11 11s11-4.925 11-11v-36.548h-22z"/><path d="m156.984 323.956c0 6.075 4.925 11 11 11s11-4.925 11-11v-36.548h-22z"/><path d="m266.984 11c0-6.075-4.925-11-11-11s-11 4.925-11 11v36.548h22z"/><path d="m343.984 0c-6.075 0-11 4.925-11 11v36.548h22v-36.548c0-6.075-4.924-11-11-11z"/><path d="m167.984 0c-6.075 0-11 4.925-11 11v36.548h22v-36.548c0-6.075-4.924-11-11-11z"/><path d="m246.271 120.83c-.038-.102-.078-.203-.12-.303-2.013-4.891-6.729-8.048-12.016-8.048-.005 0-.01 0-.015 0-5.293.006-10.009 3.175-12.013 8.075-.034.083-.067.166-.099.25l-33.043 86.761c-2.162 5.677.688 12.033 6.365 14.195 5.678 2.162 12.033-.687 14.195-6.365l2.938-7.713h43.07l2.899 7.682c1.663 4.405 5.848 7.12 10.293 7.119 1.29 0 2.603-.229 3.882-.711 5.684-2.145 8.553-8.492 6.408-14.175zm-25.429 64.85 13.255-34.803 13.134 34.803z"/><path d="m312.723 112.478c-6.075 0-11 4.925-11 11v88c0 6.075 4.925 11 11 11s11-4.925 11-11v-88c0-6.075-4.925-11-11-11z"/></g><path d="m501 398h-11.793v-231.442c0-29.818-24.259-54.077-54.077-54.077h-50.215v-40.933c0-18.196-14.804-33-33-33h-191.86c-18.196 0-33 14.804-33 33v40.932h-50.247c-29.818 0-54.077 24.259-54.077 54.077v231.443h-11.731c-6.075 0-11 4.925-11 11v48c0 30.327 24.673 55 55 55h402c30.327 0 55-24.673 55-55v-48c0-6.075-4.925-11-11-11zm-351.945-326.452c0-6.065 4.935-11 11-11h191.859c6.065 0 11 4.935 11 11v191.859c0 6.065-4.935 11-11 11h-191.859c-6.065 0-11-4.935-11-11zm-104.324 95.01c0-17.688 14.39-32.077 32.077-32.077h50.247v128.927c0 18.196 14.804 33 33 33h191.859c18.196 0 33-14.804 33-33v-128.928h50.215c17.688 0 32.077 14.39 32.077 32.077v231.443h-422.475zm277.799 253.442c-4.541 12.803-16.768 22-31.108 22h-70.906c-14.34 0-26.567-9.197-31.108-22zm167.47 37c0 18.196-14.804 33-33 33h-402c-18.196 0-33-14.804-33-33v-37h144.622c5.11 25.074 27.332 44 53.893 44h70.906c26.561 0 48.783-18.926 53.893-44h144.686z"/></g><g/><g/><g/><g/><g/><g/><g/><g/><g/><g/><g/><g/><g/><g/><g/></svg>