<svg id="Capa_1" enable-background="new 0 0 512 512" viewBox="0 0 512 512" xmlns="http://www.w3.org/2000/svg" fill="#052438"><g><g><path d="m512 326.376v-1.295c0-19.706-16.031-35.737-35.737-35.737h-30.439l-10.507-26.328c-6.318-15.832-21.416-26.062-38.462-26.062h-141.03c-17.047 0-32.144 10.23-38.462 26.062l-10.507 26.327h-30.44c-19.706 0-35.737 16.032-35.737 35.737v1.295c0 13.423 7.442 25.135 18.413 31.243-5.488 7.305-8.745 16.377-8.745 26.196v47.757c0 15.082 12.271 27.353 27.354 27.353h6.931v15.859c0 5.42 1.174 10.567 3.266 15.216h-133.623v-328.851h30.851c6.075 0 11-4.925 11-11s-4.925-11-11-11h-30.851v-56.666h30.851c6.075 0 11-4.925 11-11s-4.925-11-11-11h-30.851v-49.482c0-6.075-4.925-11-11-11s-11 4.925-11 11v479h-21.275c-6.075 0-11 4.925-11 11s4.925 11 11 11h490c6.075 0 11-4.925 11-11s-4.925-11-11-11h-32.656c2.092-4.649 3.266-9.797 3.266-15.216v-15.859h3.369c15.082 0 27.353-12.271 27.353-27.353v-47.757c0-9.819-3.257-18.891-8.745-26.196 10.971-6.108 18.413-17.82 18.413-31.243zm-35.737-15.032c7.575 0 13.737 6.163 13.737 13.737v1.295c0 7.575-6.162 13.737-13.737 13.737h-10.178l-11.482-28.77h21.66zm-238.467-40.173c2.961-7.421 10.038-12.217 18.028-12.217h141.03c7.99 0 15.067 4.795 18.029 12.217l27.513 68.943h-232.114zm-75.117 53.91c0-7.575 6.162-13.737 13.737-13.737h21.66l-11.481 28.77h-10.179c-7.575 0-13.737-6.163-13.737-13.737zm43.952 149.703v-15.859h41.294v15.859c0 8.39-6.826 15.216-15.216 15.216h-10.862c-8.39 0-15.216-6.826-15.216-15.216zm63.294-15.86h116.392v15.859c0 5.42 1.174 10.567 3.266 15.216h-122.924c2.092-4.649 3.266-9.797 3.266-15.216zm179.685 15.86c0 8.39-6.826 15.216-15.216 15.216h-10.862c-8.39 0-15.216-6.826-15.216-15.216v-15.859h41.294zm30.722-43.212c0 2.951-2.401 5.353-5.353 5.353h-297.279c-2.952 0-5.354-2.401-5.354-5.353v-47.757c0-11.966 9.735-21.701 21.701-21.701h264.583c11.966 0 21.701 9.735 21.701 21.701v47.757z"/><path d="m155.349 165.851c6.075 0 11-4.925 11-11v-27.081h13.343c19.961 0 36.201-16.056 36.201-35.791 0-19.695-16.24-35.718-36.201-35.718h-24.343c-6.075 0-11 4.925-11 11v87.589c0 6.076 4.924 11.001 11 11.001zm11-87.589h13.343c7.698 0 14.201 6.282 14.201 13.718 0 7.475-6.503 13.791-14.201 13.791h-13.343z"/></g><g fill="#0496FF"><path d="m237.373 388.519h-29.933c-6.075 0-11 4.925-11 11s4.925 11 11 11h29.933c6.075 0 11-4.925 11-11s-4.925-11-11-11z"/><path d="m445.238 388.519h-29.933c-6.075 0-11 4.925-11 11s4.925 11 11 11h29.933c6.075 0 11-4.925 11-11s-4.925-11-11-11z"/><path d="m257.674 20.482h-170.046c-6.075 0-11 4.925-11 11v159.149c0 6.075 4.925 11 11 11h170.046c6.075 0 11-4.925 11-11v-159.149c0-6.075-4.925-11-11-11zm-11 159.149h-148.046v-137.149h148.046z"/></g></g><g/><g/><g/><g/><g/><g/><g/><g/><g/><g/><g/><g/><g/><g/><g/></svg>