<svg id="Capa_1" enable-background="new 0 0 512 512" viewBox="0 0 512 512" xmlns="http://www.w3.org/2000/svg" fill="#052438"><g><g><g><path d="m501 296.862h-14.44l-1.204 4.962h-19.471l-1.325-4.962h-58.459c-6.075 0-11-4.925-11-11s4.925-11 11-11h94.899c6.075 0 11 4.925 11 11s-4.925 11-11 11z" fill="#0496FF"/></g><g><path d="m105.55 296.862h-58.11l-1.375 3.89h-19.434l-1.191-3.89h-14.44c-6.075 0-11-4.925-11-11s4.925-11 11-11h94.55c6.075 0 11 4.925 11 11s-4.925 11-11 11z" fill="#0496FF"/></g></g><g><path d="m299.826 300.239h-81.78c-6.075 0-11 4.925-11 11v47.379c0 6.075 4.925 11 11 11h81.78c6.075 0 11-4.925 11-11v-47.379c0-6.075-4.925-11-11-11zm-11 47.38h-59.78v-25.379h59.78z"/><path d="m299.826 202.225h-81.78c-6.075 0-11 4.925-11 11v47.379c0 6.075 4.925 11 11 11h81.78c6.075 0 11-4.925 11-11v-47.379c0-6.075-4.925-11-11-11zm-11 47.379h-59.78v-25.379h59.78z"/><path d="m368.758 249.604v-25.379h24.927v25.379zm0 98.015v-25.379h24.927v25.379zm0 94.88v-25.379h24.927v25.379zm-250.442-218.274h24.926v25.379h-24.926zm0 98.014h24.926v25.379h-24.926zm0 94.881h24.926v25.379h-24.926zm110.482-1.111h60.028v73.991h-60.028zm272.202 73.991h-14.44v-193.14h-22v193.14h-48.88v-377.2c0-6.08-4.92-11-11-11-6.07 0-11 4.92-11 11v89.43h-35.92c-6.08 0-11 4.92-11 11v47.37c0 6.08 4.92 11 11 11h35.92v28.64h-35.92c-6.08 0-11 4.92-11 11v47.38c0 6.07 4.92 11 11 11h35.92v25.5h-35.92c-6.08 0-11 4.92-11 11v47.38c0 6.07 4.92 11 11 11h35.92v25.5h-82.85v-84.99c0-6.08-4.93-11-11-11h-82.03c-6.08 0-11 4.92-11 11v84.99h-88.48v-25.5h35.92c6.08 0 11-4.93 11-11v-47.38c0-6.08-4.92-11-11-11h-35.92v-25.5h35.92c6.08 0 11-4.93 11-11v-47.38c0-6.08-4.92-11-11-11h-35.92v-28.64h35.92c6.08 0 11-4.92 11-11v-47.37c0-6.08-4.92-11-11-11h-35.92v-89.1c0-6.08-4.93-11-11-11-6.08 0-11 4.92-11 11v376.87h-48.88v-193.14h-22v193.14h-14.44c-6.08 0-11 4.92-11 11s4.92 11 11 11h490c6.08 0 11-4.92 11-11s-4.92-11-11-11z"/></g><g><g><path d="m425.407 120.046h-67.649c-6.075 0-11-4.925-11-11s4.925-11 11-11h67.649c6.075 0 11 4.925 11 11s-4.925 11-11 11z" fill="#0496FF"/></g><g><path d="m154.242 120.046h-67.649c-6.075 0-11-4.925-11-11s4.925-11 11-11h67.648c6.075 0 11 4.925 11 11s-4.924 11-10.999 11z" fill="#0496FF"/></g></g><path d="m355.243 29.491h-33.87v-18.491c0-6.075-4.925-11-11-11h-7.148c-17.851 0-34.889 8.026-47.225 21.652-12.335-13.626-29.374-21.652-47.225-21.652h-7.148c-6.075 0-11 4.925-11 11v18.491h-33.87c-6.075 0-11 4.925-11 11v121.914c0 6.075 4.925 11 11 11h198.486c6.075 0 11-4.925 11-11v-121.914c0-6.075-4.925-11-11-11zm-55.87-7.303v96.368c-11.821 1.517-22.975 6.486-32.373 14.313v-89.403c7.587-12.289 19.351-20.003 32.373-21.278zm-86.747 0c13.021 1.275 24.787 8.981 32.374 21.268v89.389c-9.396-7.824-20.554-12.773-32.374-14.289zm-44.869 29.303h22.87v77.568c0 6.075 4.925 11 11 11h3.226c10.23 0 20.078 4.065 27.93 11.345h-65.026zm176.486 99.913h-65.027c7.853-7.28 17.701-11.345 27.931-11.345h3.226c6.075 0 11-4.925 11-11v-77.568h22.87z"/></g><g/><g/><g/><g/><g/><g/><g/><g/><g/><g/><g/><g/><g/><g/><g/></svg>