<svg id="Capa_1" enable-background="new 0 0 512 512" viewBox="0 0 512 512" xmlns="http://www.w3.org/2000/svg" fill="#E6ECF2"><g><g><path d="m339.984 431.611-120.034-358.212c-1.502-4.483-5.702-7.505-10.43-7.505h-78.484c-4.729 0-8.928 3.021-10.43 7.505l-120.036 358.212c-1.124 3.355-.565 7.047 1.501 9.92s5.39 4.575 8.929 4.575h60.018c4.729 0 8.928-3.021 10.43-7.505l28.934-86.347h119.791l28.935 86.347c1.502 4.483 5.701 7.505 10.43 7.505h60.018c3.539 0 6.861-1.703 8.929-4.575s2.624-6.565 1.499-9.92zm-62.532-7.505-28.934-86.347c-1.502-4.483-5.702-7.505-10.43-7.505h-135.621c-4.729 0-8.928 3.021-10.43 7.505l-28.934 86.347h-36.816l112.663-336.212h62.654l112.663 336.211h-36.815z"/><path d="m170.277 127.892c-4.729 0-8.928 3.021-10.43 7.505l-48.741 145.454c-1.124 3.355-.565 7.047 1.501 9.92s5.39 4.575 8.929 4.575h97.482c3.539 0 6.862-1.703 8.929-4.575s2.625-6.564 1.501-9.92l-48.741-145.454c-1.502-4.483-5.701-7.505-10.43-7.505zm-33.453 145.454 33.454-99.833 33.454 99.833z"/></g><path d="m501 131.894c6.075 0 11-4.925 11-11v-44c0-6.075-4.925-11-11-11h-114.428c-6.075 0-11 4.925-11 11v44c0 6.075 4.925 11 11 11h24.214v248.211h-24.214c-6.075 0-11 4.925-11 11v44c0 6.075 4.925 11 11 11h114.428c6.075 0 11-4.925 11-11v-44c0-6.075-4.925-11-11-11h-24.214v-248.211zm-35.214 270.212h24.214v22h-92.428v-22h24.214c6.075 0 11-4.925 11-11v-270.212c0-6.075-4.925-11-11-11h-24.214v-22h92.428v22h-24.214c-6.075 0-11 4.925-11 11v270.211c0 6.076 4.925 11.001 11 11.001z" fill="#0496FF"/></g><g/><g/><g/><g/><g/><g/><g/><g/><g/><g/><g/><g/><g/><g/><g/></svg>