<svg id="Capa_1" enable-background="new 0 0 512.178 512.178" viewBox="0 0 512.178 512.178" xmlns="http://www.w3.org/2000/svg" fill="#E6ECF2"><g><g><path d="m205.222 184.019c21.199 0 38.446-17.247 38.446-38.446 0-6.075-4.925-11-11-11s-11 4.925-11 11c0 9.068-7.378 16.446-16.446 16.446s-16.446-7.378-16.446-16.446c0-6.075-4.925-11-11-11s-11 4.925-11 11c0 21.199 17.247 38.446 38.446 38.446z"/><path d="m254.226 231.817v-18.603c20.155-14.551 33.618-37.822 34.812-64.234 13.297-4.549 22.884-17.171 22.884-31.99 0-14.787-9.545-27.386-22.797-31.96v-24.03c0-33.636-27.364-61-61-61h-45.805c-20.917 0-39.403 10.586-50.397 26.678h-7.957c-30.683 0-55.646 24.962-55.646 55.645 0 17.075-4.96 33.639-14.344 47.902l-1.027 1.561c-2.49 3.783-2.406 8.706.21 12.402l12.09 17.082c12.197 17.232 31.827 27.011 52.218 27.01 4.921 0 9.887-.58 14.803-1.752 5.99 10.52 14.177 19.633 23.95 26.688v18.595c-60.051 4.871-107.428 55.292-107.428 116.576v30.791c0 6.075 4.925 11 11 11h218.456v-22h-153.457v-29.791c0-6.075-4.925-11-11-11s-11 4.925-11 11v29.791h-32v-19.791c0-51.167 40.677-93.005 91.39-94.893l34.645 40.919c2.091 2.468 5.161 3.892 8.396 3.892s6.305-1.424 8.396-3.892l34.642-40.915c44.017 1.638 80.47 33.367 89.331 75.177 5.901-4.432 12.965-7.391 20.648-8.366-11.871-47.99-53.446-84.389-104.013-88.492zm-110.906-170.817c0-21.505 17.495-39 39-39h45.805c21.505 0 39 17.495 39 39v9.143h-13.618c-15.301 0-29.687-5.958-40.506-16.778-2.148-2.148-4.963-3.222-7.778-3.222s-5.63 1.074-7.778 3.222c-10.819 10.82-25.205 16.778-40.506 16.778h-13.619zm-60.115 87.56-7.844-11.082c9.803-16.725 14.958-35.675 14.958-55.155 0-18.082 14.34-32.871 32.243-33.609-.815 3.97-1.243 8.079-1.243 12.287v24.031c-13.252 4.574-22.797 17.173-22.797 31.96 0 14.819 9.587 27.44 22.884 31.99.26 5.768 1.118 11.382 2.491 16.793-15.57 2.423-31.411-4.104-40.692-17.215zm60.115-3.413v-5.359c0-6.075-4.925-11-11-11-6.505 0-11.797-5.292-11.797-11.797s5.292-11.797 11.797-11.797c6.075 0 11-4.925 11-11v-2.051h13.618c17.692 0 34.5-5.755 48.284-16.382 13.784 10.626 30.592 16.382 48.284 16.382h13.618v2.051c0 6.075 4.925 11 11 11 6.505 0 11.797 5.292 11.797 11.797s-5.292 11.797-11.797 11.797c-6.075 0-11 4.925-11 11v5.359c0 34.133-27.77 61.902-61.902 61.902s-61.902-27.769-61.902-61.902zm61.902 125.135-27.003-31.894v-13.817c8.479 2.891 17.557 4.478 27.003 4.478s18.524-1.587 27.004-4.478v13.817z"/></g><path d="m362.387 310.178c-55.691 0-101 45.309-101 101s45.309 101 101 101 101-45.309 101-101-45.309-101-101-101zm-47.899 163.764c3.344-23.445 23.545-41.532 47.899-41.532 24.355 0 44.555 18.087 47.898 41.533-13.298 10.173-29.9 16.235-47.898 16.235-17.999 0-34.601-6.062-47.899-16.236zm30.783-80.648c0-9.438 7.679-17.116 17.116-17.116s17.115 7.678 17.115 17.116-7.678 17.116-17.115 17.116-17.116-7.679-17.116-17.116zm82.673 61.918c-6.471-16.517-18.995-30.019-34.846-37.737 5.256-6.661 8.404-15.057 8.404-24.181 0-21.568-17.547-39.116-39.115-39.116s-39.116 17.547-39.116 39.116c0 9.123 3.148 17.52 8.404 24.181-15.851 7.718-28.375 21.219-34.846 37.736-8.484-12.59-13.442-27.743-13.442-44.033 0-43.561 35.439-79 79-79s79 35.439 79 79c0 16.291-4.959 31.444-13.443 44.034z" fill="#0496FF"/></g><g/><g/><g/><g/><g/><g/><g/><g/><g/><g/><g/><g/><g/><g/><g/></svg>