<svg id="Capa_1" enable-background="new 0 0 512 512" viewBox="0 0 512 512" xmlns="http://www.w3.org/2000/svg" fill="#E6ECF2"><g><g><path d="m338.401 305.019-19.81-8.208c-3.092-10.614-7.34-20.855-12.678-30.562l8.202-19.794c1.703-4.11.763-8.842-2.383-11.988l-34.223-34.232c-3.146-3.148-7.88-4.088-11.987-2.386l-19.826 8.209c-9.709-5.333-19.95-9.577-30.566-12.665l-8.192-19.784c-1.702-4.11-5.713-6.791-10.161-6.792l-48.404-.007c-.001 0-.001 0-.002 0-4.448 0-8.459 2.68-10.162 6.789l-8.208 19.809c-10.614 3.092-20.855 7.34-30.562 12.678l-19.794-8.202c-4.108-1.701-8.841-.763-11.988 2.383l-34.233 34.223c-3.146 3.146-4.088 7.877-2.386 11.988l8.21 19.826c-5.334 9.708-9.578 19.951-12.666 30.565l-19.783 8.192c-4.111 1.702-6.791 5.712-6.792 10.162l-.007 48.404c-.001 4.449 2.679 8.46 6.789 10.164l19.81 8.208c3.092 10.613 7.34 20.855 12.678 30.562l-8.202 19.794c-1.703 4.11-.763 8.842 2.383 11.988l34.224 34.232c3.146 3.147 7.879 4.088 11.987 2.386l19.825-8.209c9.709 5.333 19.95 9.577 30.566 12.665l8.192 19.784c1.702 4.11 5.713 6.791 10.161 6.792l48.404.007h.002c4.448 0 8.459-2.68 10.162-6.789l8.208-19.809c10.613-3.091 20.854-7.34 30.562-12.678l19.795 8.202c4.109 1.702 8.842.763 11.988-2.383l34.231-34.223c3.146-3.146 4.088-7.877 2.386-11.988l-8.209-19.826c5.333-9.707 9.577-19.949 12.665-30.566l19.783-8.192c4.11-1.702 6.791-5.712 6.792-10.162l.007-48.405c.002-4.448-2.677-8.459-6.788-10.162zm-15.216 51.215-17.986 7.448c-3.217 1.332-5.613 4.108-6.461 7.485-3.081 12.274-7.947 24.019-14.463 34.907-1.787 2.986-2.056 6.642-.725 9.857l7.464 18.026-23.835 23.83-18-7.458c-3.22-1.333-6.877-1.063-9.863.726-10.891 6.523-22.634 11.395-34.902 14.479-3.375.848-6.148 3.243-7.48 6.457l-7.462 18.008-33.704-.005-7.448-17.987c-1.332-3.217-4.108-5.613-7.485-6.46-12.272-3.081-24.018-7.946-34.908-14.463-2.986-1.788-6.643-2.057-9.856-.724l-18.025 7.464-23.831-23.836 7.458-17.999c1.333-3.217 1.064-6.875-.726-9.863-6.522-10.891-11.394-22.634-14.479-34.903-.849-3.375-3.243-6.148-6.457-7.48l-18.008-7.462.005-33.705 17.986-7.448c3.217-1.332 5.613-4.108 6.461-7.485 3.08-12.271 7.946-24.017 14.464-34.908 1.786-2.986 2.055-6.641.724-9.856l-7.464-18.026 23.836-23.83 17.999 7.458c3.22 1.333 6.878 1.064 9.863-.726 10.889-6.522 22.632-11.394 34.902-14.479 3.375-.848 6.148-3.243 7.48-6.457l7.462-18.008 33.704.005 7.448 17.987c1.332 3.217 4.108 5.613 7.485 6.46 12.272 3.081 24.018 7.946 34.908 14.463 2.985 1.787 6.641 2.056 9.856.724l18.026-7.464 23.83 23.836-7.458 18c-1.333 3.217-1.064 6.875.726 9.863 6.521 10.89 11.394 22.633 14.479 34.903.849 3.375 3.243 6.148 6.457 7.48l18.008 7.462z"/><path d="m172.596 238.405c-55.691 0-101 45.309-101 101s45.309 101 101 101 101-45.309 101-101-45.309-101-101-101zm-47.9 163.764c3.344-23.445 23.545-41.532 47.899-41.532 24.355 0 44.555 18.087 47.899 41.533-13.298 10.173-29.9 16.235-47.899 16.235-17.998 0-34.6-6.063-47.899-16.236zm30.783-80.648c0-9.438 7.679-17.116 17.116-17.116s17.115 7.678 17.115 17.116-7.678 17.116-17.115 17.116-17.116-7.679-17.116-17.116zm82.674 61.917c-6.471-16.517-18.995-30.019-34.846-37.737 5.255-6.661 8.404-15.057 8.404-24.181 0-21.568-17.547-39.116-39.115-39.116s-39.116 17.547-39.116 39.116c0 9.123 3.148 17.52 8.404 24.181-15.851 7.718-28.375 21.219-34.846 37.736-8.484-12.59-13.442-27.743-13.442-44.033 0-43.561 35.439-79 79-79s79 35.439 79 79c0 16.291-4.959 31.444-13.443 44.034z"/></g><g fill="#0496FF"><path d="m505.211 90.438-11.245-4.66c-1.857-5.973-4.26-11.763-7.18-17.308l4.654-11.233c1.703-4.11.763-8.841-2.383-11.987l-22.321-22.328c-3.146-3.148-7.88-4.089-11.987-2.386l-11.256 4.66c-5.545-2.917-11.336-5.317-17.31-7.172l-4.648-11.227c-1.702-4.111-5.713-6.792-10.161-6.792l-31.572-.005c-.001 0-.001 0-.002 0-4.448 0-8.46 2.68-10.162 6.79l-4.659 11.245c-5.973 1.857-11.764 4.26-17.308 7.18l-11.233-4.654c-4.107-1.702-8.84-.763-11.988 2.383l-22.327 22.322c-3.146 3.146-4.088 7.877-2.386 11.987l4.66 11.255c-2.918 5.545-5.318 11.336-7.173 17.31l-11.227 4.649c-4.11 1.702-6.791 5.712-6.792 10.161l-.005 31.572c-.001 4.449 2.679 8.461 6.789 10.164l11.246 4.66c1.857 5.974 4.26 11.765 7.18 17.308l-4.655 11.233c-1.703 4.11-.763 8.842 2.383 11.988l22.322 22.328c3.146 3.147 7.88 4.087 11.987 2.386l11.255-4.66c5.544 2.917 11.335 5.317 17.31 7.172l4.648 11.227c1.702 4.111 5.713 6.792 10.161 6.792l31.572.004h.002c4.448 0 8.459-2.679 10.162-6.789l4.659-11.245c5.974-1.858 11.764-4.259 17.309-7.18l11.232 4.654c4.112 1.703 8.841.763 11.988-2.383l22.328-22.321c3.146-3.146 4.088-7.877 2.386-11.988l-4.661-11.255c2.918-5.545 5.318-11.336 7.174-17.31l11.227-4.649c4.11-1.702 6.79-5.712 6.791-10.161l.005-31.574c.001-4.449-2.679-8.46-6.789-10.163zm-15.215 34.382-9.37 3.88c-3.217 1.332-5.612 4.108-6.46 7.485-1.918 7.64-4.948 14.953-9.007 21.735-1.786 2.986-2.055 6.642-.724 9.857l3.891 9.396-11.932 11.928-9.379-3.886c-3.22-1.333-6.876-1.063-9.863.726-6.78 4.061-14.092 7.094-21.731 9.015-3.375.848-6.148 3.243-7.48 6.457l-3.889 9.384-16.872-.002-3.88-9.37c-1.332-3.217-4.108-5.613-7.485-6.461-7.642-1.918-14.955-4.948-21.735-9.006-2.985-1.787-6.642-2.057-9.856-.724l-9.396 3.891-11.929-11.932 3.887-9.379c1.333-3.217 1.064-6.876-.726-9.864-4.061-6.778-7.094-14.09-9.016-21.732-.849-3.374-3.243-6.148-6.457-7.479l-9.385-3.889.003-16.872 9.37-3.88c3.218-1.332 5.614-4.109 6.461-7.486 1.917-7.639 4.946-14.951 9.005-21.734 1.787-2.986 2.056-6.641.725-9.856l-3.891-9.396 11.932-11.929 9.379 3.886c3.22 1.333 6.876 1.063 9.863-.726 6.782-4.062 14.094-7.095 21.732-9.016 3.375-.848 6.148-3.243 7.48-6.458l3.888-9.384 16.872.002 3.88 9.37c1.332 3.217 4.108 5.614 7.486 6.461 7.639 1.917 14.952 4.946 21.734 9.005 2.986 1.786 6.641 2.055 9.856.724l9.396-3.891 11.929 11.932-3.886 9.379c-1.333 3.217-1.064 6.875.725 9.862 4.062 6.783 7.096 14.095 9.016 21.732.848 3.375 3.243 6.149 6.457 7.481l9.385 3.889z"/><path d="m395.601 62.567c-29.684 0-53.833 24.149-53.833 53.833s24.149 53.833 53.833 53.833c29.683 0 53.832-24.149 53.832-53.833s-24.15-53.833-53.832-53.833zm0 85.665c-17.553 0-31.833-14.28-31.833-31.833s14.28-31.833 31.833-31.833 31.832 14.28 31.832 31.833-14.28 31.833-31.832 31.833z"/></g></g><g/><g/><g/><g/><g/><g/><g/><g/><g/><g/><g/><g/><g/><g/><g/></svg>