<svg id="Capa_1" enable-background="new 0 0 512 512" viewBox="0 0 512 512" xmlns="http://www.w3.org/2000/svg" fill="#052438"><g><path d="m414.122 305.04h-147.122v-89.045c0-6.075-4.925-11-11-11s-11 4.925-11 11v89.045h-147.122c-17.093 0-31 13.907-31 31v30.062c0 6.075 4.925 11 11 11s11-4.925 11-11v-30.062c0-4.962 4.038-9 9-9h147.122v37.903c0 6.075 4.925 11 11 11s11-4.925 11-11v-37.903h147.122c4.962 0 9 4.038 9 9v24.903c0 6.075 4.925 11 11 11s11-4.925 11-11v-24.903c0-17.094-13.907-31-31-31z" fill="#0496FF"/><g><path d="m374.644 238.269v-40.754c32.383-1.858 58.16-28.782 58.16-61.621 0-32.84-25.778-59.764-58.161-61.621v-40.754c-.001-18.481-15.037-33.519-33.518-33.519-17.266 0-31.521 13.124-33.323 29.919l-122.23 44.242h-54.302c-17.687 0-32.076 14.389-32.076 32.075v59.314c0 14.627 9.845 26.989 23.254 30.832l20 76.629c1.264 4.843 5.638 8.222 10.644 8.222h34.409c6.075 0 11-4.925 11-11v-67.928l109.301 39.562c1.802 16.795 16.056 29.919 33.322 29.919 18.483.001 33.52-15.036 33.52-33.517zm36.16-102.375c0 20.704-15.92 37.751-36.16 39.564v-79.128c20.24 1.813 36.16 18.859 36.16 39.564zm-212.302-43.016 109.105-39.491v165.014l-109.105-39.491zm-77.306 13.358c0-5.556 4.52-10.075 10.076-10.075h45.231v79.465h-45.231c-5.556 0-10.076-4.52-10.076-10.076zm40.395 152.998-16.08-61.608h30.991v61.608zm179.534-9.447c-6.351 0-11.518-5.167-11.518-11.518v-204.75c0-6.351 5.167-11.518 11.519-11.518 6.351 0 11.518 5.167 11.518 11.518v204.75c0 6.351-5.167 11.518-11.519 11.518z"/><path d="m77.878 356.243c-42.942 0-77.878 34.936-77.878 77.879s34.936 77.878 77.878 77.878 77.878-34.936 77.878-77.878-34.935-77.879-77.878-77.879zm0 133.757c-30.811 0-55.878-25.067-55.878-55.878s25.067-55.878 55.878-55.878 55.878 25.067 55.878 55.878-25.066 55.878-55.878 55.878z"/><path d="m112.779 407.052c-4.818-3.699-11.724-2.791-15.423 2.03l-22.912 29.855-11.802-13.143c-4.059-4.521-11.015-4.895-15.534-.835-4.52 4.059-4.894 11.014-.835 15.534l20.65 22.997c2.091 2.328 5.068 3.65 8.184 3.65.141 0 .283-.003.424-.008 3.269-.126 6.312-1.7 8.303-4.295l30.975-40.362c3.699-4.819 2.79-11.724-2.03-15.423z"/><path d="m434.122 356.243c-42.942 0-77.878 34.936-77.878 77.878s34.935 77.879 77.878 77.879 77.878-34.936 77.878-77.878-34.936-77.879-77.878-77.879zm0 133.757c-30.812 0-55.878-25.067-55.878-55.878s25.067-55.878 55.878-55.878 55.878 25.066 55.878 55.878-25.067 55.878-55.878 55.878z"/><path d="m469.022 407.052c-4.819-3.699-11.724-2.791-15.423 2.03l-22.912 29.855-11.802-13.143c-4.059-4.521-11.014-4.895-15.534-.835-4.52 4.059-4.894 11.014-.835 15.534l20.65 22.997c2.091 2.328 5.068 3.65 8.184 3.65.141 0 .283-.003.424-.008 3.269-.126 6.312-1.7 8.303-4.295l30.975-40.362c3.699-4.819 2.79-11.724-2.03-15.423z"/><path d="m256 356.243c-42.942 0-77.878 34.936-77.878 77.878s34.936 77.879 77.878 77.879 77.878-34.936 77.878-77.878-34.936-77.879-77.878-77.879zm0 133.757c-30.812 0-55.878-25.067-55.878-55.878s25.067-55.878 55.878-55.878 55.878 25.067 55.878 55.878-25.066 55.878-55.878 55.878z"/><path d="m290.901 407.052c-4.818-3.699-11.724-2.791-15.423 2.03l-22.912 29.855-11.802-13.143c-4.06-4.521-11.014-4.895-15.534-.835-4.52 4.059-4.894 11.014-.835 15.534l20.65 22.997c2.091 2.328 5.068 3.65 8.184 3.65.141 0 .283-.003.424-.008 3.269-.126 6.312-1.7 8.303-4.295l30.975-40.362c3.698-4.819 2.79-11.724-2.03-15.423z"/></g></g><g/><g/><g/><g/><g/><g/><g/><g/><g/><g/><g/><g/><g/><g/><g/></svg>