<svg id="Capa_1" enable-background="new 0 0 511.942 511.942" viewBox="0 0 511.942 511.942" xmlns="http://www.w3.org/2000/svg" fill="#052438"><g><path d="m354.102 0c-87.032 0-157.839 70.807-157.839 157.839 0 27.926 7.349 55.204 21.296 79.205l-15.381 57.741c-1.012 3.799.081 7.85 2.866 10.625 2.786 2.774 6.84 3.853 10.635 2.826l56.714-15.336c24.608 14.918 52.75 22.78 81.709 22.78 87.033 0 157.84-70.807 157.84-157.839s-70.807-157.841-157.84-157.841zm0 293.679c-26.362 0-51.931-7.564-73.94-21.876-1.802-1.172-3.888-1.778-5.996-1.778-.961 0-1.927.126-2.871.381l-42.949 11.614 11.672-43.818c.782-2.938.314-6.068-1.293-8.648-13.386-21.487-20.462-46.286-20.462-71.714 0-74.902 60.938-135.84 135.839-135.84 74.902 0 135.84 60.938 135.84 135.839s-60.938 135.84-135.84 135.84z" fill="#0496FF"/><g><path d="m282.342 335.607c-7.906-7.905-20.767-7.904-28.674 0l-21.877 21.877c-7.905 7.905-7.905 20.769 0 28.674l3.525 3.525-10.545 10.545c-1.926 1.926-4.486 2.986-7.209 2.986-2.724 0-5.284-1.061-7.21-2.987l-98.638-98.638c-1.926-1.926-2.987-4.486-2.987-7.21 0-2.723 1.061-5.284 2.987-7.21l10.544-10.545 3.525 3.525c3.83 3.829 8.921 5.938 14.337 5.938s10.507-2.109 14.337-5.938l21.877-21.877c7.905-7.905 7.905-20.768 0-28.673l-89.962-89.961c-7.906-7.904-20.768-7.904-28.674 0l-21.877 21.877c-7.905 7.905-7.905 20.768 0 28.674l3.525 3.525-3.004 3.004c-48.456 48.457-48.456 127.302 0 175.759l103.123 103.123c24.231 24.231 56.05 36.342 87.879 36.342 31.821 0 63.653-12.117 87.879-36.342l3.005-3.005 3.525 3.525c3.953 3.953 9.145 5.929 14.337 5.929s10.384-1.976 14.337-5.929l21.877-21.877c7.905-7.906 7.904-20.769 0-28.673zm-210.306-179.193 87.523 87.522-19.438 19.438-87.523-87.522zm227.63 303.629c-39.879 39.879-104.767 39.878-144.645 0l-103.122-103.123c-39.879-39.879-39.879-104.767 0-144.646l3.004-3.004 51.799 51.798-10.544 10.545c-6.082 6.081-9.431 14.166-9.431 22.766s3.349 16.686 9.43 22.767l98.638 98.638c6.081 6.081 14.167 9.43 22.767 9.43s16.685-3.349 22.766-9.43l10.545-10.545 51.798 51.799zm36.424-.699-87.523-87.523 19.438-19.438 87.522 87.523z"/><path d="m431.71 117.318h-37.087v-37.087c0-6.075-4.925-11-11-11h-59.043c-6.075 0-11 4.925-11 11v37.087h-37.087c-6.075 0-11 4.925-11 11v59.043c0 6.075 4.925 11 11 11h37.087v37.087c0 6.075 4.925 11 11 11h59.043c6.075 0 11-4.925 11-11v-37.087h37.087c6.075 0 11-4.925 11-11v-59.043c0-6.075-4.924-11-11-11zm-11 59.043h-37.087c-6.075 0-11 4.925-11 11v37.087h-37.043v-37.087c0-6.075-4.925-11-11-11h-37.087v-37.043h37.087c6.075 0 11-4.925 11-11v-37.087h37.043v37.087c0 6.075 4.925 11 11 11h37.087z"/></g></g><g/><g/><g/><g/><g/><g/><g/><g/><g/><g/><g/><g/><g/><g/><g/></svg>