<svg id="Capa_1" enable-background="new 0 0 512.178 512.178" viewBox="0 0 512.178 512.178" xmlns="http://www.w3.org/2000/svg" fill="#E6ECF2"><g><g><path d="m183.966 134.573c-6.075 0-11 4.925-11 11 0 9.068-7.378 16.446-16.446 16.446s-16.446-7.378-16.446-16.446c0-6.075-4.925-11-11-11s-11 4.925-11 11c0 21.199 17.247 38.446 38.446 38.446s38.446-17.247 38.446-38.446c0-6.075-4.925-11-11-11z"/><path d="m282.049 172.459-20.508-44.953c1.087-3.311 1.678-6.845 1.678-10.515 0-14.787-9.545-27.386-22.797-31.96v-24.031c0-33.636-27.364-61-61-61h-45.805c-33.636 0-61 27.364-61 61v24.031c-13.252 4.574-22.797 17.173-22.797 31.96 0 3.67.592 7.203 1.678 10.514l-20.508 44.954c-2.003 4.392-.91 9.576 2.696 12.784l9.876 8.787c11.678 10.388 26.429 15.835 41.451 15.834 5.272 0 10.576-.688 15.794-2.052 2.144 1.908 4.377 3.719 6.709 5.403v18.596c-60.05 4.871-107.427 55.292-107.427 116.576v30.791c0 6.075 4.925 11 11 11h202.703l-4.892-22h-132.811v-29.791c0-6.075-4.925-11-11-11s-11 4.925-11 11v29.791h-32v-19.791c0-51.167 40.676-93.004 91.389-94.893l34.646 40.919c2.091 2.469 5.161 3.892 8.396 3.892s6.305-1.424 8.396-3.892l34.645-40.919c12.562.468 24.507 3.39 35.372 8.295l15.515-16.888c-13.617-7.195-28.813-11.784-44.924-13.091v-18.595c2.332-1.684 4.565-3.495 6.71-5.403 5.218 1.365 10.522 2.053 15.795 2.053 15.021 0 29.773-5.448 41.449-15.835l9.876-8.786c3.605-3.209 4.698-8.393 2.695-12.785zm-187.432-111.459c0-21.505 17.495-39 39-39h45.805c21.505 0 39 17.495 39 39v9.143h-13.618c-15.301 0-29.687-5.958-40.506-16.778-2.148-2.148-4.963-3.222-7.778-3.222s-5.63 1.074-7.778 3.222c-10.819 10.82-25.205 16.778-40.506 16.778h-13.619zm-36.432 116.593-3.81-3.389 12.677-27.787c1.793 1.014 3.675 1.888 5.652 2.564.638 14.135 4.802 27.363 11.614 38.843-9.481-.171-18.756-3.669-26.133-10.231zm125.338 60.796-27.003 31.894-27.004-31.894v-13.817c8.48 2.891 17.558 4.478 27.004 4.478s18.523-1.587 27.003-4.478zm34.899-98.6v5.359c0 34.133-27.77 61.902-61.902 61.902s-61.902-27.769-61.902-61.902v-5.359c0-6.075-4.925-11-11-11-6.505 0-11.797-5.292-11.797-11.797s5.292-11.797 11.797-11.797c6.075 0 11-4.925 11-11v-2.051h13.618c17.692 0 34.5-5.755 48.284-16.382 13.784 10.626 30.592 16.382 48.284 16.382h13.618v2.051c0 6.075 4.925 11 11 11 6.505 0 11.797 5.292 11.797 11.797s-5.292 11.797-11.797 11.797c-6.075 0-11 4.924-11 11zm36.432 37.804c-7.377 6.563-16.651 10.06-26.132 10.231 6.812-11.48 10.975-24.708 11.613-38.843 1.977-.676 3.858-1.551 5.652-2.564l12.677 27.787z"/></g><path d="m351.859 191.717c-88.352 0-160.23 71.879-160.23 160.23s71.879 160.23 160.23 160.23 160.23-71.879 160.23-160.23-71.879-160.23-160.23-160.23zm120.048 91.762-12.947 12.947c-1.16 1.16-2.046 2.564-2.593 4.111l-14.642 41.408-14.764 14.764-44.256-44.78c-2.059-2.083-4.863-3.259-7.792-3.268-.011 0-.021 0-.032 0-2.917 0-5.715 1.159-7.778 3.222l-9.899 9.899c-3.589 3.589-8.36 5.565-13.435 5.565s-9.847-1.977-13.436-5.566l-2.121-2.121 45.614-45.614 41.408-14.643c1.547-.547 2.951-1.433 4.111-2.593l15.41-15.41c15.063 11.326 27.745 25.65 37.152 42.079zm-56.224-54.116-10.131 10.131-41.408 14.643c-1.547.547-2.951 1.433-4.111 2.592l-8.174 8.174-9.192-9.192c-1.16-1.16-2.564-2.045-4.111-2.592l-41.407-14.643-9.113-9.113c19.104-9.987 40.814-15.646 63.824-15.646s44.719 5.659 63.823 15.646zm-146.723 12.04 14.392 14.392c1.16 1.16 2.564 2.045 4.111 2.592l41.407 14.643 7.43 7.43-31.424 31.424c-2.062 2.063-3.222 4.861-3.222 7.779s1.159 5.715 3.223 7.778l9.899 9.899c7.743 7.744 18.039 12.009 28.991 12.009 10.951 0 21.247-4.265 28.991-12.009l2.075-2.076 46.986 47.543c4.247 4.289 4.229 11.25-.038 15.518l-42.503 42.503c-3.036 3.036-7.416 3.912-11.252 2.638 1.757-4.073 2.688-8.498 2.688-13.068 0-8.814-3.434-17.102-9.666-23.335l-42.426-42.426c-10.661-10.66-26.856-12.478-39.416-5.475l-18.235-18.235-14.642-41.408c-.547-1.547-1.434-2.952-2.593-4.111l-11.926-11.928c9.408-16.43 22.089-30.754 37.15-42.077zm18.552 138.791c4.288-4.288 11.267-4.289 15.557 0l42.426 42.426c2.078 2.078 3.223 4.84 3.223 7.778s-1.145 5.7-3.223 7.778l-7.778 7.779-57.982-57.983zm64.347 109.984c-76.221 0-138.23-62.01-138.23-138.23 0-16.579 2.936-32.483 8.312-47.226l4.481 4.481 14.642 41.408c.559 1.578 1.458 2.981 2.607 4.126.001 0 .001 0 .001.001l19.092 19.092-6.364 6.364c-2.062 2.063-3.222 4.861-3.222 7.778s1.159 5.715 3.222 7.778l73.539 73.54c2.063 2.062 4.861 3.222 7.778 3.222s5.716-1.159 7.778-3.222l8.362-8.362c5.367 3.398 11.505 5.106 17.647 5.106 8.45 0 16.901-3.216 23.335-9.649l42.503-42.503c11.089-11.089 12.604-28.234 4.543-40.981l17.16-17.16c1.16-1.16 2.046-2.564 2.593-4.111l14.642-41.408 5.499-5.499c5.375 14.742 8.312 30.647 8.312 47.226-.002 76.219-62.012 138.229-138.232 138.229z" fill="#0496FF"/></g><g/><g/><g/><g/><g/><g/><g/><g/><g/><g/><g/><g/><g/><g/><g/></svg>