<svg id="Capa_1" enable-background="new 0 0 512 512" viewBox="0 0 512 512" xmlns="http://www.w3.org/2000/svg" fill="#E6ECF2"><g><g fill="#0496FF"><path d="m245 148.672h22v189.537h-22z"/><path d="m423.875 248.672v137.933h-68.564v22h79.564c6.075 0 11-4.925 11-11v-148.933z"/><path d="m88.125 248.672h-22v148.933c0 6.075 4.925 11 11 11h79.564v-22h-68.564z"/></g><g><path d="m189.875 159.672h132.249c6.075 0 11-4.925 11-11v-8.943c0-31.031-18.432-57.823-44.914-70.049 6.286-7.385 10.092-16.942 10.092-27.377 0-23.326-18.977-42.303-42.302-42.303s-42.302 18.977-42.302 42.302c0 10.435 3.806 19.993 10.092 27.377-26.482 12.226-44.914 39.018-44.914 70.049v8.943c-.001 6.076 4.924 11.001 10.999 11.001zm45.823-117.37c0-11.195 9.108-20.302 20.302-20.302s20.302 9.107 20.302 20.302-9.107 20.302-20.302 20.302-20.302-9.107-20.302-20.302zm20.302 42.302c29.708 0 54.001 23.621 55.086 53.068h-110.172c1.085-29.447 25.378-53.068 55.086-53.068z"/><path d="m154.25 248.672v-8.943c0-31.031-18.432-57.823-44.914-70.049 6.286-7.385 10.092-16.942 10.092-27.377 0-23.325-18.977-42.302-42.302-42.302s-42.302 18.977-42.302 42.302c0 10.435 3.806 19.993 10.092 27.377-26.484 12.225-44.916 39.017-44.916 70.049v8.943c0 6.075 4.925 11 11 11h132.25c6.075 0 11-4.925 11-11zm-97.427-106.37c0-11.194 9.107-20.302 20.302-20.302s20.302 9.107 20.302 20.302-9.107 20.302-20.302 20.302-20.302-9.107-20.302-20.302zm-34.785 95.37c1.085-29.447 25.379-53.068 55.086-53.068s54.002 23.621 55.087 53.068z"/><path d="m467.086 169.679c6.286-7.385 10.092-16.942 10.092-27.377 0-23.325-18.977-42.302-42.302-42.302-23.326 0-42.302 18.977-42.302 42.302 0 10.435 3.806 19.993 10.092 27.377-26.482 12.226-44.914 39.018-44.914 70.049v8.943c0 6.075 4.925 11 11 11h132.248c6.075 0 11-4.925 11-11v-8.943c0-31.031-18.432-57.823-44.914-70.049zm-52.513-27.377c0-11.194 9.107-20.302 20.302-20.302 11.194 0 20.302 9.107 20.302 20.302s-9.107 20.302-20.302 20.302c-11.194 0-20.302-9.107-20.302-20.302zm-34.784 95.37c1.085-29.447 25.379-53.068 55.087-53.068s54.001 23.621 55.086 53.068z"/><path d="m355.312 327.209h-198.624c-6.075 0-11 4.925-11 11v118.791c0 6.075 4.925 11 11 11h60.228l-10 22h-19.94c-6.075 0-11 4.925-11 11s4.925 11 11 11h138.047c6.075 0 11-4.925 11-11s-4.925-11-11-11h-19.94l-10-22h60.228c6.075 0 11-4.925 11-11v-118.791c.001-6.075-4.924-11-10.999-11zm-74.395 162.791h-49.834l10-22h29.834zm63.395-44h-176.624v-96.791h176.623v96.791z"/></g></g><g/><g/><g/><g/><g/><g/><g/><g/><g/><g/><g/><g/><g/><g/><g/></svg>