<svg id="Capa_1" enable-background="new 0 0 512 512" viewBox="0 0 512 512" xmlns="http://www.w3.org/2000/svg" fill="#052438"><g><g fill="#0496FF"><path d="m302.784 79.285h-35.784v-13.776c0-6.075-4.925-11-11-11s-11 4.925-11 11v13.776h-35.784c-6.075 0-11 4.925-11 11 0 5.676 4.3 10.346 9.82 10.935v9.844c0 6.075 4.925 11 11 11s11-4.925 11-11v-9.778h14.964v50.464c0 6.075 4.925 11 11 11s11-4.925 11-11v-50.464h14.964v9.778c0 6.075 4.925 11 11 11s11-4.925 11-11v-9.844c5.52-.589 9.82-5.259 9.82-10.935 0-6.075-4.925-11-11-11z"/><path d="m127.566 234.239c-6.075 0-11 4.925-11 11v164.807c0 6.075 4.925 11 11 11s11-4.925 11-11v-164.807c0-6.075-4.925-11-11-11z"/><path d="m75.513 234.239c-6.075 0-11 4.925-11 11v164.807c0 6.075 4.925 11 11 11s11-4.925 11-11v-164.807c0-6.075-4.924-11-11-11z"/><path d="m282.026 234.239c-6.075 0-11 4.925-11 11v163.486c0 6.075 4.925 11 11 11s11-4.925 11-11v-163.486c0-6.075-4.924-11-11-11z"/><path d="m229.974 234.239c-6.075 0-11 4.925-11 11v164.807c0 6.075 4.925 11 11 11s11-4.925 11-11v-164.807c0-6.075-4.925-11-11-11z"/><path d="m436.487 232.918c-6.075 0-11 4.925-11 11v165.138c0 6.075 4.925 11 11 11s11-4.925 11-11v-165.138c0-6.075-4.925-11-11-11z"/><path d="m384.435 232.918c-6.075 0-11 4.925-11 11v166.128c0 6.075 4.925 11 11 11s11-4.925 11-11v-166.128c0-6.075-4.925-11-11-11z"/></g><g><path d="m501 490h-16.596v-33.589c0-6.075-4.925-11-11-11h-7.963v-32.82c0-6.075-4.925-11-11-11h-87.96c-6.075 0-11 4.925-11 11v32.82h-44.5v-32.82c0-6.075-4.925-11-11-11h-87.96c-6.075 0-11 4.925-11 11v32.82h-44.5v-32.82c0-6.075-4.925-11-11-11h-87.96c-6.075 0-11 4.925-11 11v32.82h-7.963c-6.075 0-11 4.925-11 11v33.589h-16.598c-6.075 0-11 4.925-11 11s4.925 11 11 11h490c6.075 0 11-4.925 11-11s-4.925-11-11-11zm-123.519-66.409h65.96v21.82h-65.96zm-154.461 0h65.96v21.82h-65.96zm-154.461 0h65.96v21.82h-65.96zm-18.963 43.82h412.808v22.589h-412.808z"/><path d="m30.835 209.728h15.724v32.82c0 6.075 4.925 11 11 11h87.96c6.075 0 11-4.925 11-11v-32.82h44.5v32.82c0 6.075 4.925 11 11 11h87.96c6.075 0 11-4.925 11-11v-32.82h44.5v32.82c0 6.075 4.925 11 11 11h87.96c6.075 0 11-4.925 11-11v-32.82h15.724c6.075 0 11-4.925 11-11v-44.589c0-6.075-4.925-11-11-11h-16.247c-.177-.14-.349-.285-.537-.416l-202.092-140.749c-3.778-2.632-8.795-2.632-12.573 0l-202.095 140.749c-.188.131-.36.276-.537.416h-16.247c-6.075 0-11 4.925-11 11v44.589c0 6.075 4.925 11 11 11zm103.685 21.821h-65.96v-21.82h65.96zm154.46 0h-65.96v-21.82h65.96zm154.461 0h-65.96v-21.82h65.96zm-187.441-207.144 170.484 118.734h-340.968zm-214.165 140.734h428.33v22.589h-428.33z"/></g></g><g/><g/><g/><g/><g/><g/><g/><g/><g/><g/><g/><g/><g/><g/><g/></svg>