<svg id="Capa_1" enable-background="new 0 0 512.431 512.431" viewBox="0 0 512.431 512.431" xmlns="http://www.w3.org/2000/svg" fill="#052438"><g><path d="m501.216 414.431c6.075 0 11-4.925 11-11v-44c0-6.075-4.925-11-11-11h-50.189c16.095-14.982 26.189-36.33 26.189-60 0-45.215-36.785-82-82-82h-349c-6.075 0-11 4.925-11 11v44c0 6.075 4.925 11 11 11h9v32h-9c-6.075 0-11 4.925-11 11v44c0 1.212.203 2.374.565 3.464-21.463 14.803-35.565 39.549-35.565 67.536 0 45.215 36.785 82 82 82h419c6.075 0 11-4.925 11-11v-44c0-6.075-4.925-11-11-11h-9v-32zm-424-142h318c8.822 0 16 7.178 16 16s-7.178 16-16 16h-318zm-20 76v-22h338c20.953 0 38-17.047 38-38s-17.047-38-38-38h-338v-22h338c33.084 0 60 26.916 60 60s-26.916 60-60 60zm433 142h-408c-33.084 0-60-26.916-60-60s26.916-60 60-60h408v22h-408c-20.953 0-38 17.047-38 38s17.047 38 38 38h408zm-20-44h-388c-8.822 0-16-7.178-16-16s7.178-16 16-16h388z"/><g fill="#0496FF"><path d="m437.216 44h-98.431c-6.075 0-11 4.925-11 11v44.431c0 22.607 18.393 41 41 41h38.431c22.607 0 41-18.393 41-41v-44.431c0-6.075-4.925-11-11-11zm-11 55.431c0 10.477-8.523 19-19 19h-38.431c-10.477 0-19-8.523-19-19v-33.431h76.431z"/><path d="m173.646 44h-98.43c-6.075 0-11 4.925-11 11v44.431c0 22.607 18.393 41 41 41h38.431c22.607 0 41-18.393 41-41v-44.431c-.001-6.075-4.926-11-11.001-11zm-11 55.431c0 10.477-8.523 19-19 19h-38.431c-10.477 0-19-8.523-19-19v-33.431h76.431z"/><path d="m501.216 22h-9v-11c0-6.075-4.925-11-11-11h-186.431c-6.075 0-11 4.925-11 11v7.117c-8.965-2.247-18.189-3.38-27.569-3.38s-18.604 1.133-27.569 3.38v-7.117c0-6.075-4.925-11-11-11h-186.431c-6.075 0-11 4.925-11 11v11h-9c-6.075 0-11 4.925-11 11v44c0 6.075 4.925 11 11 11h9v15.431c0 44.664 36.336 81 81 81h46.431c44.664 0 81-36.336 81-81v-13.817c8.006-5.753 17.633-8.878 27.569-8.878s19.563 3.125 27.569 8.878v13.817c0 44.664 36.336 81 81 81h46.431c44.664 0 81-36.336 81-81v-15.431h9c6.075 0 11-4.925 11-11v-44c0-6.075-4.925-11-11-11zm-11 44h-9c-6.075 0-11 4.925-11 11v26.431c0 32.533-26.467 59-59 59h-46.431c-32.533 0-59-26.467-59-59v-19.096c0-3.154-1.354-6.157-3.718-8.245-12.671-11.19-28.955-17.354-45.851-17.354s-33.18 6.163-45.851 17.354c-2.364 2.088-3.718 5.091-3.718 8.245v19.096c0 32.533-26.467 59-59 59h-46.431c-32.533 0-59-26.467-59-59v-26.431c0-6.075-4.925-11-11-11h-9v-22h9c6.075 0 11-4.925 11-11v-11h164.431v11.265c0 3.663 1.823 7.085 4.862 9.128s6.896 2.44 10.288 1.059c10.938-4.456 22.518-6.715 34.419-6.715s23.481 2.259 34.419 6.715c3.393 1.382 7.25.984 10.288-1.059 3.04-2.043 4.862-5.466 4.862-9.128v-11.265h164.431v11c0 6.075 4.925 11 11 11h9z"/></g></g><g/><g/><g/><g/><g/><g/><g/><g/><g/><g/><g/><g/><g/><g/><g/></svg>