<svg id="Capa_1" enable-background="new 0 0 512.008 512.008" viewBox="0 0 512.008 512.008" xmlns="http://www.w3.org/2000/svg" fill="#E6ECF2"><g><g fill="#0496FF"><path d="m181.254 347.946-46.452 46.453c-2.603 2.603-6.063 4.037-9.745 4.037h-61.635c-6.075 0-11 4.925-11 11s4.925 11 11 11h61.635c9.559 0 18.544-3.722 25.302-10.48l46.452-46.452c4.296-4.296 4.296-11.261 0-15.557-4.297-4.297-11.26-4.297-15.557-.001z"/><path d="m63.752 370.871h51.039c2.917 0 5.715-1.159 7.778-3.222l37.226-37.226c4.296-4.296 4.296-11.261 0-15.557-4.297-4.296-11.26-4.296-15.557 0l-34.004 34.004h-46.482c-6.075 0-11 4.925-11 11s4.925 11.001 11 11.001z"/><path d="m380.595 30.718c-19.81-19.806-46.085-30.714-73.983-30.714s-54.174 10.908-73.983 30.714c-4.296 4.295-4.297 11.26-.002 15.556 4.297 4.296 11.262 4.297 15.557.001 15.655-15.652 36.405-24.271 58.429-24.271s42.773 8.62 58.429 24.271c2.147 2.147 4.963 3.221 7.777 3.221 2.815 0 5.631-1.074 7.779-3.223 4.294-4.296 4.293-11.26-.003-15.555z"/><path d="m306.611 47.11c-15.378 0-29.849 6-40.745 16.896-4.296 4.296-4.297 11.261-.001 15.557 4.295 4.295 11.261 4.296 15.556.001 6.742-6.742 15.688-10.454 25.19-10.454s18.448 3.712 25.19 10.454c2.147 2.147 4.962 3.221 7.777 3.221s5.631-1.074 7.778-3.222c4.296-4.296 4.295-11.261-.001-15.557-10.895-10.896-25.366-16.896-40.744-16.896z"/><circle cx="306.609" cy="104.805" r="11"/></g><g><path d="m494.292 262.738-16.431-4.859 18.225-10.296c11.137-6.292 17.156-18.094 15.709-30.802s-9.966-22.856-22.231-26.483l-341.124-100.864c-16.563-4.898-34.008 4.591-38.903 21.146l-16.521 55.873c-2.371 8.02-1.478 16.483 2.517 23.831 3.147 5.789 7.926 10.332 13.732 13.161l-15.426 52.171c-2.371 8.02-1.478 16.483 2.517 23.831 3.994 7.348 10.611 12.701 18.631 15.071l26.616 7.87c-.379 2.631-.586 5.317-.586 8.052 0 30.978 25.202 56.18 56.181 56.18 22.601 0 42.114-13.422 51.021-32.707l150.316 44.445c2.939.87 5.938 1.3 8.921 1.3 5.152 0 10.256-1.286 14.91-3.816 7.347-3.994 12.699-10.61 15.071-18.63l3.258-11.018 26.595 7.864c1.984.586 4.01.877 6.022.877 3.479 0 6.924-.868 10.065-2.576 4.961-2.696 8.574-7.163 10.175-12.577l15.015-50.782c1.602-5.415.999-11.128-1.698-16.089-2.696-4.959-7.163-8.573-12.577-10.173zm-380.178-90.046 16.521-55.873c1.196-4.045 4.913-6.671 8.932-6.671.872 0 1.759.124 2.636.383l341.123 100.863c5.487 1.623 6.447 6.438 6.611 7.875.163 1.437.31 6.344-4.672 9.159l-70.597 39.884c-2.183 1.232-4.812 1.532-7.218.821l-287.049-84.875c-2.384-.705-4.352-2.296-5.539-4.481-1.187-2.184-1.453-4.7-.748-7.085zm83.083 171.929c-18.848 0-34.181-15.333-34.181-34.18s15.333-34.181 34.181-34.181c18.847 0 34.18 15.333 34.18 34.181s-15.333 34.18-34.18 34.18zm219.143 6.353c-.705 2.385-2.297 4.352-4.481 5.54-2.185 1.188-4.7 1.454-7.085.749l-151.448-44.78c1.259-31.659-24.455-58.292-56.128-58.222-20.453 0-38.383 10.99-48.209 27.372l-27.765-8.21c-2.384-.705-4.352-2.296-5.539-4.481-1.188-2.185-1.453-4.701-.748-7.086l15.301-51.747 270.974 80.122c2.885.853 5.865 1.274 8.84 1.273 5.367 0 10.715-1.369 15.438-4.038l11.559-6.53zm56.36-18.258-25.767-7.619 14.526-49.127 25.767 7.619z"/><path d="m35.084 277.719h-13.084v-9.417c0-6.075-4.925-11-11-11s-11 4.925-11 11v232.702c0 6.075 4.925 11 11 11s11-4.925 11-11v-9.417h13.084c19.503 0 35.37-15.867 35.37-35.37v-143.129c0-19.503-15.867-35.369-35.37-35.369zm13.37 178.498c0 7.372-5.998 13.37-13.37 13.37h-13.084v-169.868h13.084c7.372 0 13.37 5.998 13.37 13.37z"/></g></g><g/><g/><g/><g/><g/><g/><g/><g/><g/><g/><g/><g/><g/><g/><g/></svg>