<svg id="Capa_1" enable-background="new 0 0 512 512" viewBox="0 0 512 512" xmlns="http://www.w3.org/2000/svg" fill="#052438"><g><path d="m356.773 60h-11v-38h11c6.075 0 11-4.925 11-11s-4.925-11-11-11h-302.338c-22.607 0-41 18.393-41 41v430c0 22.607 18.393 41 41 41h302.339c6.075 0 11-4.925 11-11v-74.813h-22v63.813h-252.643v-408h252.643v80.604c0 6.075 4.925 11 11 11s11-4.925 11-11v-91.604c-.001-6.075-4.925-11-11.001-11zm-302.338-38h269.339v38h-269.339c-10.477 0-19-8.523-19-19s8.523-19 19-19zm16.696 468h-16.696c-10.477 0-19-8.523-19-19v-393.686c5.684 2.987 12.145 4.686 19 4.686h16.696z"/><g fill="#0496FF"><path d="m415.089 262.395h-11v-46.348c0-3.89-2.055-7.491-5.404-9.47-3.351-1.979-7.495-2.042-10.902-.165l-70.152 38.635h-41.171c-6.075 0-11 4.925-11 11v78.695c0 6.075 4.925 11 11 11h41.171l70.152 38.635c1.653.911 3.48 1.365 5.307 1.365 1.937 0 3.872-.511 5.596-1.53 3.35-1.979 5.404-5.58 5.404-9.47v-46.347h11c18.196 0 33-14.804 33-33s-14.805-33-33.001-33zm-127.63 4.652h22v56.695h-22zm94.63 89.079-50.63-27.884v-65.695l50.63-27.884zm33-49.731h-11v-22h11c6.065 0 11 4.935 11 11s-4.935 11-11 11z"/><path d="m356.773 153.604c-78.184 0-141.791 63.607-141.791 141.792s63.607 141.792 141.791 141.792c78.185 0 141.792-63.607 141.792-141.792s-63.607-141.792-141.792-141.792zm0 261.583c-66.053 0-119.791-53.738-119.791-119.792s53.738-119.792 119.791-119.792c66.054 0 119.792 53.738 119.792 119.792s-53.738 119.792-119.792 119.792z"/></g></g><g/><g/><g/><g/><g/><g/><g/><g/><g/><g/><g/><g/><g/><g/><g/></svg>