<svg id="Capa_1" enable-background="new 0 0 512 512" viewBox="0 0 512 512" xmlns="http://www.w3.org/2000/svg" fill="#E6ECF2"><g><path d="m390.302 162.498v195.434h-78.044v-4.52c0-37.983-28.135-69.519-64.659-74.861v-14.145c1.621-1.277 3.187-2.641 4.678-4.112 10.529-10.393 16.327-24.264 16.327-39.057v-43.724c0-22.607-18.393-41-41-41h-57.757c-6.075 0-11 4.925-11 11v73.07c0 17.595 8.238 33.376 21.005 43.581v14.387c-36.524 5.343-64.659 36.878-64.659 74.861v4.52h-93.193v-243.419h279.604v-22h-290.604c-6.075 0-11 4.925-11 11v309.419c0 6.075 4.925 11 11 11h18.645l-6.946 30.562c-.741 3.263.042 6.686 2.129 9.3 2.087 2.615 5.251 4.138 8.597 4.138h34c4.313 0 8.229-2.521 10.014-6.448l17.069-37.552h223.285l17.069 37.552c1.785 3.927 5.701 6.448 10.014 6.448h34c3.346 0 6.51-1.523 8.597-4.138s2.871-6.038 2.129-9.3l-6.946-30.562h18.645c6.075 0 11-4.925 11-11v-250.434zm-209.455 58.085v-17.08h65.757v17.734c0 8.863-3.474 17.173-9.782 23.4-6.307 6.226-14.673 9.609-23.537 9.476-17.886-.232-32.438-15.274-32.438-33.53zm0-62.07h46.757c10.477 0 19 8.523 19 19v3.99h-65.757zm32.153 117.598c.246.003.489.005.734.005 4.041 0 8.01-.449 11.865-1.295v9.444l-11.874 11.874-11.874-11.874v-9.473c3.601.812 7.328 1.269 11.149 1.319zm-75.807 77.301c0-28.095 21.709-51.201 49.231-53.461l19.523 19.523c2.148 2.148 4.963 3.222 7.778 3.222s5.63-1.074 7.778-3.222l19.523-19.523c27.522 2.261 49.231 25.366 49.231 53.461v4.52h-153.064zm-76.851 92.52h-13.136l5-22h18.136zm304.754 0h-13.136l-10-22h18.136zm-343.096-44v-22h368.302v22z"/><g fill="#0496FF"><path d="m501 44.068h-199.396c-6.075 0-11 4.925-11 11v102.317c0 6.075 4.925 11 11 11h25.507l-6.647 38.228c-.766 4.403 1.209 8.832 4.996 11.205 1.791 1.123 3.817 1.68 5.841 1.68 2.256 0 4.507-.693 6.42-2.068l68.236-49.044h95.043c6.075 0 11-4.925 11-11v-102.318c0-6.075-4.925-11-11-11zm-11 102.317h-87.585c-2.304 0-4.549.723-6.42 2.068l-49.241 35.392 4.273-24.576c.556-3.199-.329-6.48-2.419-8.965s-5.171-3.919-8.418-3.919h-27.585v-80.317h177.395z"/><path d="m395.2 115.37c7.082 4.92 17.243-.527 17.1-9.14.15-8.617-10.013-14.067-17.1-9.149-6.439 4.012-6.449 14.283 0 18.289z"/><path d="m347.14 110.43c2.698 7.107 12.719 9.089 17.94 3.58 6.193-6.001 2.863-17.026-5.63-18.569-8.423-1.83-15.749 7.08-12.31 14.989z"/><path d="m435.15 110.43c3.137 8.038 14.647 9.154 19.3 1.9 4.381-6.257.521-15.562-7-16.89-8.413-1.828-15.77 7.089-12.3 14.99z"/></g></g><g/><g/><g/><g/><g/><g/><g/><g/><g/><g/><g/><g/><g/><g/><g/></svg>