<svg id="Capa_1" enable-background="new 0 0 512 512" viewBox="0 0 512 512" xmlns="http://www.w3.org/2000/svg" fill="#E6ECF2"><g><g fill="#0496FF"><path d="m229.226 445.206c-18.938-2.654-37.299-8.129-54.576-16.271-5.498-2.591-12.05-.233-14.64 5.261-2.59 5.496-.234 12.05 5.261 14.64 19.281 9.087 39.771 15.196 60.9 18.158.519.073 1.032.108 1.541.108 5.397 0 10.109-3.977 10.88-9.475.843-6.017-3.351-11.578-9.366-12.421z"/><path d="m338.214 428.525c-17.527 8.369-36.179 13.98-55.436 16.68-6.017.844-10.21 6.404-9.366 12.421.771 5.499 5.481 9.474 10.88 9.474.508 0 1.023-.036 1.541-.108 21.487-3.012 42.3-9.275 61.859-18.614 5.482-2.618 7.805-9.184 5.188-14.666s-9.183-7.803-14.666-5.187z"/><path d="m457.578 273.968c-6.012-.859-11.586 3.318-12.447 9.332-2.727 19.069-8.313 37.545-16.605 54.914-2.617 5.482-.295 12.049 5.188 14.666 1.529.73 3.143 1.076 4.731 1.076 4.107 0 8.048-2.31 9.935-6.263 9.253-19.383 15.488-40 18.531-61.278.859-6.015-3.319-11.587-9.333-12.447z"/><path d="m445.233 229.428c.766 5.503 5.479 9.486 10.882 9.486.504 0 1.015-.035 1.528-.106 6.018-.836 10.217-6.393 9.381-12.41-2.999-21.565-9.272-42.455-18.646-62.09-2.618-5.482-9.182-7.807-14.666-5.188-5.482 2.617-7.805 9.183-5.188 14.666 8.401 17.595 14.023 36.316 16.709 55.642z"/><path d="m282.698 66.784c19.03 2.66 37.477 8.166 54.828 16.365 1.519.718 3.118 1.057 4.692 1.057 4.123 0 8.075-2.328 9.953-6.303 2.596-5.493.247-12.049-5.245-14.645-19.364-9.151-39.949-15.295-61.184-18.263-6.021-.841-11.576 3.355-12.417 9.372-.84 6.017 3.357 11.576 9.373 12.417z"/><path d="m226.256 44.996c-21.517 3.007-42.359 9.273-61.948 18.626-5.482 2.618-7.805 9.184-5.188 14.666 1.888 3.953 5.827 6.263 9.935 6.263 1.589 0 3.202-.346 4.731-1.076 17.554-8.381 36.231-13.997 55.515-16.691 6.017-.841 10.213-6.4 9.372-12.417-.842-6.017-6.4-10.215-12.417-9.371z"/><path d="m54.314 239.307c.505.069 1.006.103 1.502.103 5.414 0 10.132-3.999 10.885-9.513 2.662-19.495 8.306-38.373 16.773-56.11 2.617-5.482.295-12.049-5.188-14.666-5.48-2.616-12.049-.294-14.666 5.188-9.449 19.793-15.747 40.859-18.717 62.612-.821 6.018 3.392 11.564 9.411 12.386z"/><path d="m66.702 282.111c-.821-6.019-6.36-10.233-12.388-9.41-6.019.822-10.231 6.369-9.409 12.388 2.972 21.752 9.269 42.815 18.717 62.604 1.888 3.953 5.827 6.263 9.935 6.263 1.589 0 3.202-.346 4.731-1.076 5.482-2.618 7.805-9.184 5.188-14.667-8.467-17.732-14.111-36.608-16.774-56.102z"/><path d="m340.289 324.732c-4.297-4.296-11.26-4.296-15.557 0-4.296 4.296-4.296 11.261 0 15.557l27.894 27.894c2.148 2.148 4.963 3.222 7.778 3.222s5.63-1.074 7.778-3.222c4.296-4.296 4.296-11.261 0-15.557z"/><path d="m172.052 187.608c2.148 2.148 4.963 3.222 7.778 3.222s5.631-1.074 7.778-3.222c4.296-4.296 4.296-11.261 0-15.557l-28.234-28.234c-4.297-4.296-11.262-4.295-15.557 0-4.296 4.296-4.296 11.261 0 15.557z"/><path d="m352.626 143.817-26.639 26.638c-4.296 4.296-4.296 11.261 0 15.557 2.148 2.148 4.963 3.222 7.778 3.222 2.814 0 5.631-1.074 7.778-3.222l26.639-26.638c4.296-4.296 4.296-11.261 0-15.557-4.295-4.295-11.26-4.295-15.556 0z"/><path d="m186.821 340.736c4.296-4.296 4.296-11.261 0-15.557-4.296-4.295-11.261-4.296-15.557 0l-27.447 27.447c-4.296 4.296-4.296 11.261 0 15.557 2.148 2.148 4.963 3.222 7.778 3.222 2.814 0 5.631-1.074 7.778-3.222z"/></g><g><path d="m256 140.596c-63.634 0-115.404 51.77-115.404 115.404s51.77 115.404 115.404 115.404 115.404-51.77 115.404-115.404-51.77-115.404-115.404-115.404zm-51.452 193.319c5.36-23.696 26.781-41.098 51.452-41.098 24.813 0 46.083 17.14 51.464 41.09-14.767 9.787-32.46 15.498-51.464 15.498-18.999-.001-36.688-5.708-51.452-15.49zm23.451-91.1c0-15.44 12.562-28.001 28.001-28.001s28.001 12.562 28.001 28.001-12.562 28.002-28.001 28.002-28.001-12.562-28.001-28.002zm97.594 75.411c-6.681-17.084-19.348-30.885-35.274-39.099 9.645-9.121 15.681-22.021 15.681-36.312 0-27.571-22.431-50.001-50.001-50.001s-50.001 22.431-50.001 50.001c0 14.307 6.05 27.22 15.714 36.343-5.306 2.739-10.308 6.109-14.871 10.094-9.103 7.951-16.07 17.923-20.422 28.989-14.806-16.534-23.824-38.353-23.824-62.241 0-51.503 41.901-93.404 93.404-93.404s93.404 41.901 93.404 93.404c.001 23.881-9.012 45.694-23.81 62.226z"/><path d="m421.977 180.047c49.639 0 90.023-40.385 90.023-90.024s-40.385-90.023-90.023-90.023-90.023 40.384-90.023 90.023 40.384 90.024 90.023 90.024zm-34.477-31.419c4.015-15.44 18.195-26.659 34.472-26.659 16.378 0 30.462 11.061 34.478 26.661-10.117 5.974-21.898 9.417-34.473 9.417-12.577 0-24.36-3.444-34.477-9.419zm16.955-66.176c0-9.659 7.857-17.517 17.517-17.517s17.518 7.858 17.518 17.517-7.858 17.517-17.518 17.517-17.517-7.858-17.517-17.517zm17.522-60.452c37.507 0 68.023 30.515 68.023 68.023 0 16.488-5.9 31.622-15.696 43.409-4.848-10.541-12.736-19.252-22.471-25.143 6.008-6.934 9.656-15.965 9.656-25.838 0-21.79-17.728-39.517-39.518-39.517-21.789 0-39.517 17.728-39.517 39.517 0 9.908 3.674 18.968 9.719 25.912-9.729 5.919-17.635 14.644-22.498 25.101-9.811-11.792-15.723-26.938-15.723-43.441.001-37.508 30.517-68.023 68.025-68.023z"/><path d="m90.023 180.047c49.639 0 90.023-40.385 90.023-90.024s-40.384-90.023-90.023-90.023-90.023 40.384-90.023 90.023 40.385 90.024 90.023 90.024zm-34.476-31.419c4.014-15.44 18.194-26.66 34.472-26.66 16.378 0 30.462 11.06 34.478 26.661-10.117 5.974-21.898 9.418-34.474 9.418s-24.358-3.444-34.476-9.419zm16.955-66.176c0-9.659 7.858-17.517 17.518-17.517 9.658 0 17.517 7.858 17.517 17.517s-7.859 17.517-17.517 17.517c-9.66 0-17.518-7.858-17.518-17.517zm17.521-60.452c37.508 0 68.023 30.515 68.023 68.023 0 16.488-5.9 31.621-15.695 43.408-4.848-10.541-12.736-19.252-22.471-25.143 6.008-6.934 9.655-15.965 9.655-25.838 0-21.79-17.728-39.517-39.517-39.517-21.79 0-39.518 17.728-39.518 39.517 0 9.908 3.674 18.968 9.719 25.912-9.729 5.92-17.635 14.644-22.498 25.101-9.809-11.791-15.721-26.936-15.721-43.44 0-37.508 30.516-68.023 68.023-68.023z"/><path d="m90.023 331.953c-49.638 0-90.023 40.384-90.023 90.024s40.385 90.023 90.023 90.023 90.023-40.385 90.023-90.024-40.384-90.023-90.023-90.023zm-34.476 148.628c4.014-15.44 18.194-26.66 34.472-26.66 16.377 0 30.461 11.06 34.478 26.661-10.116 5.974-21.898 9.418-34.474 9.418s-24.358-3.444-34.476-9.419zm16.955-66.177c0-9.659 7.858-17.517 17.518-17.517 9.658 0 17.517 7.858 17.517 17.517s-7.858 17.517-17.517 17.517c-9.66 0-17.518-7.858-17.518-17.517zm69.85 50.981c-4.848-10.54-12.736-19.251-22.471-25.142 6.008-6.934 9.656-15.965 9.656-25.838 0-21.79-17.728-39.517-39.517-39.517-21.79 0-39.518 17.728-39.518 39.517 0 9.908 3.674 18.968 9.719 25.912-9.729 5.92-17.635 14.644-22.498 25.102-9.811-11.794-15.723-26.939-15.723-43.442 0-37.508 30.516-68.024 68.023-68.024s68.023 30.515 68.023 68.023c.001 16.488-5.899 31.621-15.694 43.409z"/><path d="m421.977 331.953c-49.639 0-90.023 40.385-90.023 90.024s40.384 90.023 90.023 90.023 90.023-40.385 90.023-90.024-40.385-90.023-90.023-90.023zm-34.477 148.628c4.015-15.44 18.195-26.659 34.472-26.659 16.377 0 30.462 11.06 34.479 26.661-10.117 5.974-21.898 9.418-34.474 9.418-12.577-.001-24.36-3.445-34.477-9.42zm16.955-66.177c0-9.659 7.857-17.517 17.517-17.517s17.518 7.858 17.518 17.517-7.858 17.517-17.518 17.517-17.517-7.858-17.517-17.517zm69.85 50.981c-4.849-10.54-12.736-19.251-22.472-25.142 6.008-6.934 9.656-15.965 9.656-25.838 0-21.79-17.728-39.517-39.518-39.517-21.789 0-39.517 17.728-39.517 39.517 0 9.908 3.674 18.968 9.719 25.912-9.729 5.919-17.635 14.644-22.499 25.101-9.811-11.792-15.723-26.938-15.723-43.44 0-37.508 30.516-68.024 68.023-68.024s68.026 30.514 68.026 68.022c0 16.488-5.9 31.621-15.695 43.409z"/><path d="m256 90.751c20.301 0 36.816-16.516 36.816-36.817s-16.515-36.816-36.816-36.816-36.816 16.516-36.816 36.817 16.515 36.816 36.816 36.816zm0-51.633c8.17 0 14.816 6.647 14.816 14.817s-6.646 14.816-14.816 14.816-14.816-6.647-14.816-14.817 6.646-14.816 14.816-14.816z"/><path d="m53.935 219.183c-20.301 0-36.816 16.516-36.816 36.817s16.516 36.817 36.816 36.817 36.816-16.516 36.816-36.817-16.516-36.817-36.816-36.817zm0 51.634c-8.17 0-14.816-6.647-14.816-14.817s6.646-14.817 14.816-14.817 14.816 6.647 14.816 14.817-6.647 14.817-14.816 14.817z"/><path d="m256 421.249c-20.301 0-36.816 16.516-36.816 36.817s16.516 36.817 36.816 36.817 36.816-16.516 36.816-36.817-16.515-36.817-36.816-36.817zm0 51.633c-8.17 0-14.816-6.647-14.816-14.817s6.646-14.817 14.816-14.817 14.816 6.647 14.816 14.817-6.646 14.817-14.816 14.817z"/><path d="m458.065 219.183c-20.301 0-36.816 16.516-36.816 36.817s16.516 36.817 36.816 36.817 36.816-16.516 36.816-36.817-16.515-36.817-36.816-36.817zm0 51.634c-8.17 0-14.816-6.647-14.816-14.817s6.646-14.817 14.816-14.817 14.816 6.647 14.816 14.817-6.646 14.817-14.816 14.817z"/></g></g><g/><g/><g/><g/><g/><g/><g/><g/><g/><g/><g/><g/><g/><g/><g/></svg>