<svg id="Capa_1" enable-background="new 0 0 512 512" viewBox="0 0 512 512" xmlns="http://www.w3.org/2000/svg" fill="#052438"><g><path d="m256 122c-55.691 0-101 45.309-101 101s45.309 101 101 101 101-45.309 101-101-45.309-101-101-101zm-47.899 163.764c3.343-23.446 23.544-41.533 47.899-41.533s44.556 18.087 47.899 41.533c-13.299 10.174-29.901 16.236-47.899 16.236s-34.6-6.062-47.899-16.236zm30.783-80.648c0-9.438 7.678-17.116 17.116-17.116s17.116 7.678 17.116 17.116-7.678 17.116-17.116 17.116-17.116-7.679-17.116-17.116zm82.673 61.917c-6.471-16.517-18.995-30.019-34.846-37.737 5.256-6.661 8.404-15.057 8.404-24.181.001-21.568-17.547-39.115-39.115-39.115s-39.116 17.547-39.116 39.116c0 9.123 3.148 17.52 8.404 24.181-15.851 7.718-28.375 21.22-34.846 37.737-8.483-12.591-13.442-27.744-13.442-44.034 0-43.561 35.439-79 79-79s79 35.439 79 79c0 16.29-4.959 31.443-13.443 44.033z" fill="#0496FF"/><g><path d="m405.52 22h-75.437l2.931-6.448c1.547-3.405 1.259-7.362-.766-10.507s-5.508-5.045-9.248-5.045h-54c-4.313 0-8.229 2.521-10.014 6.448l-2.986 6.569-2.986-6.569c-1.785-3.927-5.701-6.448-10.014-6.448h-54c-3.74 0-7.224 1.9-9.249 5.045s-2.313 7.102-.766 10.507l2.932 6.448h-75.437c-6.075 0-11 4.925-11 11v468c0 6.075 4.925 11 11 11h299.04c6.075 0 11-4.925 11-11v-468c0-6.075-4.925-11-11-11zm-129.437 0h29.834l-20 44h-29.834zm-40.166 0 8 17.6-12 26.4h-5.834l-20-44zm158.603 468h-277.04v-446h74.437l10 22h-6.958c-6.075 0-11 4.925-11 11s4.925 11 11 11h122.082c6.075 0 11-4.925 11-11s-4.925-11-11-11h-6.958l10-22h74.437z"/><path d="m139.48 401v44c0 6.075 4.925 11 11 11h211.04c6.075 0 11-4.925 11-11v-44c0-6.075-4.925-11-11-11h-211.04c-6.075 0-11 4.925-11 11zm22 11h189.04v22h-189.04z"/><path d="m164.715 357c0 6.075 4.925 11 11 11h160.57c6.075 0 11-4.925 11-11s-4.925-11-11-11h-160.57c-6.075 0-11 4.925-11 11z"/></g></g><g/><g/><g/><g/><g/><g/><g/><g/><g/><g/><g/><g/><g/><g/><g/></svg>