<svg id="Capa_1" enable-background="new 0 0 511.993 511.993" viewBox="0 0 511.993 511.993" xmlns="http://www.w3.org/2000/svg" fill="#052438"><g><path d="m347.166 71v132.494l-12.898-8.599c-3.694-2.464-8.509-2.464-12.203 0l-12.898 8.599v-132.494h-22v153.047c0 4.057 2.233 7.784 5.81 9.698 3.577 1.915 7.917 1.705 11.292-.546l23.898-15.932 23.898 15.932c1.841 1.228 3.968 1.848 6.102 1.848 1.779 0 3.564-.431 5.19-1.302 3.577-1.914 5.81-5.642 5.81-9.698v-153.047z" fill="#0496FF"/><path d="m452.19 257.047h-19.024v-186.047c0-6.075-4.925-11-11-11h-11v-38h11c6.075 0 11-4.925 11-11s-4.925-11-11-11h-302.339c-22.607 0-41 18.393-41 41v194.047h-19.024c-6.075 0-11 4.925-11 11v224.945c0 22.607 18.393 41 41 41h332.387c22.607 0 41-18.393 41-41v-202.945c0-6.075-4.925-11-11-11zm-251.638 0-16.727-18.399c-2.084-2.293-5.04-3.601-8.139-3.601h-17.163v-153.047h252.643v175.047zm-80.725-235.047h269.339v38h-269.339c-10.477 0-19-8.523-19-19s8.523-19 19-19zm-19 55.314c5.684 2.986 12.146 4.686 19 4.686h16.696v153.047h-35.696zm340.363 393.679c0 10.477-8.523 19-19 19h-332.387c-10.477 0-19-8.523-19-19v-213.946h100.017l16.727 18.399c2.084 2.293 5.04 3.601 8.139 3.601h245.504z"/></g><g/><g/><g/><g/><g/><g/><g/><g/><g/><g/><g/><g/><g/><g/><g/></svg>