<svg id="Capa_1" enable-background="new 0 0 512 512" viewBox="0 0 512 512" xmlns="http://www.w3.org/2000/svg" fill="#E6ECF2"><g><g fill="#0496FF"><path d="m379.711 102.424-13.389-5.548c-2.174-7.139-5.039-14.047-8.562-20.641l5.542-13.376c1.703-4.11.763-8.841-2.383-11.987l-25.308-25.315c-3.146-3.148-7.878-4.088-11.987-2.386l-13.4 5.549c-6.594-3.52-13.504-6.383-20.643-8.553l-5.536-13.369c-1.702-4.111-5.713-6.792-10.161-6.792l-35.797-.006h-.001c-4.449 0-8.459 2.68-10.162 6.79l-5.547 13.388c-7.14 2.173-14.048 5.039-20.641 8.562l-13.376-5.542c-4.111-1.703-8.842-.763-11.988 2.383l-25.315 25.308c-3.146 3.146-4.088 7.877-2.386 11.988l5.549 13.4c-3.52 6.594-6.383 13.504-8.553 20.643l-13.37 5.536c-4.11 1.702-6.791 5.712-6.792 10.162l-.005 35.795c0 4.449 2.679 8.46 6.789 10.164l13.389 5.548c2.174 7.14 5.04 14.048 8.562 20.641l-5.542 13.376c-1.703 4.11-.763 8.841 2.383 11.988l25.308 25.315c3.146 3.146 7.875 4.088 11.988 2.386l13.4-5.549c6.595 3.521 13.503 6.383 20.643 8.553l5.536 13.37c1.702 4.11 5.712 6.791 10.162 6.792l35.794.003h.002c4.448 0 8.459-2.68 10.162-6.789l5.548-13.389c7.138-2.173 14.048-5.04 20.641-8.562l13.376 5.542c4.108 1.703 8.842.763 11.988-2.383l25.314-25.308c3.146-3.146 4.088-7.877 2.386-11.987l-5.548-13.4c3.521-6.596 6.383-13.504 8.553-20.643l13.369-5.536c4.111-1.702 6.791-5.712 6.792-10.162l.005-35.795c.001-4.45-2.679-8.461-6.789-10.164zm-15.215 38.606-11.532 4.775c-3.218 1.332-5.614 4.109-6.461 7.486-2.208 8.8-5.699 17.225-10.375 25.04-1.786 2.986-2.055 6.641-.724 9.856l4.787 11.562-14.919 14.915-11.542-4.782c-3.22-1.333-6.876-1.064-9.863.726-7.812 4.679-16.235 8.173-25.037 10.386-3.374.848-6.147 3.243-7.479 6.457l-4.785 11.548-21.096-.003-4.775-11.533c-1.332-3.217-4.108-5.613-7.486-6.46-8.802-2.209-17.227-5.7-25.041-10.375-2.987-1.787-6.641-2.055-9.856-.724l-11.561 4.787-14.915-14.919 4.782-11.542c1.333-3.217 1.064-6.875-.726-9.863-4.678-7.81-8.172-16.234-10.386-25.037-.849-3.374-3.243-6.147-6.457-7.479l-11.548-4.785.003-21.096 11.533-4.775c3.217-1.332 5.613-4.108 6.46-7.486 2.209-8.802 5.7-17.227 10.375-25.04 1.787-2.986 2.056-6.642.724-9.857l-4.788-11.562 14.919-14.915 11.542 4.783c3.218 1.333 6.876 1.064 9.864-.726 7.811-4.679 16.234-8.174 25.037-10.387 3.374-.848 6.148-3.243 7.48-6.458l4.785-11.547 21.096.003 4.775 11.532c1.332 3.217 4.108 5.614 7.485 6.461 8.804 2.209 17.228 5.7 25.04 10.375 2.985 1.787 6.642 2.056 9.856.724l11.562-4.788 14.915 14.919-4.782 11.542c-1.333 3.217-1.063 6.876.726 9.863 4.679 7.811 8.174 16.234 10.387 25.036.849 3.374 3.243 6.148 6.457 7.48l11.548 4.785z"/><path d="m256 62.271c-37.622 0-68.229 30.607-68.229 68.229s30.607 68.229 68.229 68.229 68.229-30.607 68.229-68.229-30.607-68.229-68.229-68.229zm0 114.458c-25.491 0-46.229-20.738-46.229-46.229s20.738-46.229 46.229-46.229 46.229 20.738 46.229 46.229-20.738 46.229-46.229 46.229z"/></g><path d="m436.311 384.935v-10.307c9.122-8.973 14.81-21.498 14.81-35.27v-39.358c0-28.122-22.879-51-51-51h-35.366c-6.075 0-11 4.925-11 11v79.92c0 13.123 5.144 25.428 14.484 34.647.108.106.217.212.325.317v10.248c-16.021 2.32-44.997 10.604-62.767 40.008l-21.485-21.484c-7.458-7.459-17.974-10.877-28.355-9.282-10.008-1.501-20.579 1.592-28.268 9.281l-21.484 21.485c-17.77-29.403-46.747-37.688-62.767-40.008v-10.505c9.122-8.973 14.81-21.498 14.81-35.27v-41.675c0-26.844-21.839-48.683-48.683-48.683h-.001c-26.844 0-48.683 21.839-48.683 48.683v2.356l-2.028 2.028c-12.433 12.433-20.715 28.14-23.951 45.422-3.179 16.976-1.267 34.297 5.525 50.154-24.277 15.382-40.427 42.484-40.427 73.288v30.07c0 6.075 4.925 11 11 11h197.125c2.917 0 5.715-1.159 7.778-3.222l40.097-40.096 40.096 40.096c2.063 2.063 4.861 3.222 7.778 3.222h197.126c6.075 0 11-4.925 11-11v-30.07c0-44.075-33.063-80.573-75.689-85.995zm-52.618-26.024c-5.12-5.054-7.939-11.798-7.939-18.991v-20.053h53.366v19.491c0 14.833-11.81 27.054-26.325 27.243-7.213.097-13.983-2.639-19.102-7.69zm-7.939-87.911h24.366c15.273 0 27.827 11.868 28.922 26.867h-53.288zm26.675 117.603c.217 0 .435-.001.651-.004 3.866-.05 7.626-.564 11.23-1.488v3.642l-11.873 11.873-11.874-11.874v-3.597c3.835.956 7.812 1.448 11.866 1.448zm-143.628 30.609c2.078 2.078 3.222 4.84 3.223 7.778 0 2.938-1.145 5.7-3.223 7.778l-2.801 2.801-15.556-15.556 2.8-2.801c4.289-4.288 11.268-4.289 15.557 0zm-137.364-28.46-11.874 11.874-11.874-11.874v-3.597c3.834.956 7.812 1.448 11.865 1.448.217 0 .434-.001.651-.004 3.866-.05 7.627-.564 11.231-1.488v3.641zm-11.517-24.151c-7.236.07-13.984-2.638-19.102-7.69-5.12-5.054-7.939-11.798-7.939-18.991v-18.468l26.683-7.081 26.683 7.081v17.906c.001 14.833-11.808 27.054-26.325 27.243zm-27.04-68.918c0-14.713 11.97-26.683 26.683-26.683s26.683 11.97 26.683 26.683v1.007l-23.862-6.332c-.924-.246-1.873-.368-2.821-.368s-1.897.123-2.821.368l-23.862 6.332zm-22 39.896v2.341c0 13.123 5.144 25.428 14.484 34.647.108.106.217.212.325.317v10.051c-5.266.67-10.387 1.814-15.317 3.389-6.813-16.436-6.363-34.849.508-50.745zm142.689 152.421h-28.444v-17.729c0-6.075-4.925-11-11-11s-11 4.925-11 11v17.729h-87.125v-17.729c0-6.075-4.925-11-11-11s-11 4.925-11 11v17.729h-22v-19.07c0-34.167 26.626-62.232 60.218-64.536l19.567 19.567c2.063 2.063 4.861 3.222 7.778 3.222s5.715-1.159 7.778-3.222l19.5-19.5c11.943 1.061 42.869 7.136 55.989 41.287 1.335 3.477 4.339 6.042 7.982 6.815 3.646.775 7.431-.348 10.064-2.981l14.011-14.011 15.556 15.556zm286.431 0h-22v-17.729c0-6.075-4.925-11-11-11s-11 4.925-11 11v17.729h-87.126v-17.729c0-6.075-4.925-11-11-11s-11 4.925-11 11v17.729h-28.443l-36.874-36.875 2.801-2.801c4.599-4.599 7.674-10.318 8.97-16.541l17.797 17.797c2.085 2.084 4.892 3.222 7.778 3.222.76 0 1.526-.079 2.285-.24 3.644-.773 6.647-3.338 7.983-6.815 13.12-34.151 44.045-40.226 55.988-41.287l19.5 19.5c2.063 2.063 4.861 3.222 7.778 3.222 2.918 0 5.716-1.159 7.778-3.222l19.566-19.567c33.593 2.305 60.219 30.37 60.219 64.537z"/></g><g/><g/><g/><g/><g/><g/><g/><g/><g/><g/><g/><g/><g/><g/><g/></svg>