<svg id="Capa_1" enable-background="new 0 0 512 512" viewBox="0 0 512 512" xmlns="http://www.w3.org/2000/svg" fill="#E6ECF2"><g><path d="m501 490h-14.444v-183.138h14.444c6.075 0 11-4.925 11-11s-4.925-11-11-11h-14.44l-3.087-6.884h-15.071l-3.842 6.884h-75.83l-1.876-5.287h-17.643l-2.481 5.287h-54.73v-97.463h22.08c18.319 0 33.223-14.904 33.223-33.223v-139.58c0-6.075-4.925-11-11-11s-11 4.925-11 11v39.404h-178.606v-40.064c0-6.075-4.925-11-11-11s-11 4.925-11 11v140.241c0 18.319 14.903 33.223 33.223 33.223h22.08v97.463h-54.73l-2.493-9.578h-17.904l-1.604 9.578h-75.829l-2.449-7.884h-17.981l-1.57 7.884h-14.44c-6.075 0-11 4.925-11 11s4.925 11 11 11h14.444v183.137h-14.444c-6.075 0-11 4.925-11 11s4.925 11 11 11h490c6.075 0 11-4.925 11-11s-4.925-11-11-11zm-212.174 0h-60.028v-73.991h60.028zm11-95.991h-82.028c-6.075 0-11 4.925-11 11v84.991h-78.526v-40.285c0-6.075-4.925-11-11-11h-69.828v-80.339h18.533v40.056c0 6.075 4.925 11 11 11h80.588c6.075 0 11-4.925 11-11v-51.056c0-6.075-4.925-11-11-11h-29.534v-29.513h255.938v29.513h-29.534c-6.075 0-11 4.925-11 11v51.056c0 6.075 4.925 11 11 11h80.588c6.075 0 11-4.925 11-11v-40.056h18.533v80.34h-69.827c-6.075 0-11 4.925-11 11v40.284h-72.902v-84.991c-.001-6.075-4.926-11-11.001-11zm-153.261-35.634v29.056h-58.587v-29.056zm277.457 0v29.056h-58.588v-29.056zm-18.293 102.341h58.827v29.284h-58.827zm58.827-124.341h-58.587v-29.513h58.587zm-119.253-225.324h-44.868v-35.051h44.868zm-111.738 0v-35.051h44.869v35.051zm-22-35.051v35.051h-44.868v-35.051zm-44.868 78.176v-21.125h178.605v21.125c0 6.188-5.034 11.223-11.223 11.223h-156.159c-6.189 0-11.223-5.035-11.223-11.223zm55.303 33.223h68v97.463h-23l-1.178-3.285h-19.943l-.879 3.285h-23zm-115.969 119.463v29.513h-58.587v-29.513zm-58.587 153.853h58.827v29.285h-58.827z"/><g fill="#0496FF"><path d="m512 251.45c0 6.07-4.92 11-11 11h-14.44v22.41h-22v-22.41h-75.83v22.41h-22v-22.41h-99.73v22.41h-22v-22.41h-99.73v22.41h-22v-22.41h-75.83v22.41h-22v-22.41h-14.44c-6.08 0-11-4.93-11-11 0-6.08 4.92-11 11-11h21.2l18.97-23.62c3.8-4.73 10.73-5.49 15.46-1.68 4.74 3.8 5.49 10.73 1.69 15.46l-7.9 9.84h69.6l18.97-23.62c3.81-4.73 10.73-5.49 15.47-1.68 4.73 3.8 5.49 10.73 1.68 15.46l-7.9 9.84h86.76v-20.73c0-6.07 4.92-11 11-11s11 4.93 11 11v20.73h86.76l-7.9-9.84c-3.81-4.73-3.05-11.66 1.68-15.46 4.74-3.8 11.67-3.05 15.47 1.68l18.97 23.62h69.6l-7.9-9.84c-3.8-4.73-3.05-11.66 1.69-15.46 4.73-3.8 11.66-3.05 15.46 1.68l18.97 23.62h21.2c6.08 0 11 4.92 11 11z"/><path d="m131.294 22h255.284c6.075 0 11-4.925 11-11s-4.925-11-11-11h-255.284c-6.075 0-11 4.925-11 11s4.925 11 11 11z"/></g></g><g/><g/><g/><g/><g/><g/><g/><g/><g/><g/><g/><g/><g/><g/><g/></svg>