<svg id="Capa_1" enable-background="new 0 0 512 512" viewBox="0 0 512 512" xmlns="http://www.w3.org/2000/svg" fill="#052438"><g><path d="m418.534 304.336h-151.534v-33.506c0-6.075-4.925-11-11-11s-11 4.925-11 11v33.506h-151.534c-17.401 0-31.559 14.157-31.559 31.558v24.929c0 6.075 4.925 11 11 11s11-4.925 11-11v-24.929c0-5.271 4.288-9.558 9.559-9.558h151.534v37.296c0 6.075 4.925 11 11 11s11-4.925 11-11v-37.296h151.534c5.271 0 9.559 4.288 9.559 9.558v18.598c0 6.075 4.925 11 11 11s11-4.925 11-11v-18.598c0-17.401-14.157-31.558-31.559-31.558z" fill="#0496FF"/><g><path d="m315.921 0h-126.041c-16.023 0-29.06 13.036-29.06 29.06v218.955c0 16.023 13.036 29.06 29.06 29.06h126.041c16.023 0 29.06-13.036 29.06-29.06v-218.955c-.001-16.024-13.037-29.06-29.06-29.06zm7.059 248.015c0 3.893-3.167 7.06-7.06 7.06h-126.04c-3.893 0-7.06-3.167-7.06-7.06v-218.955c0-3.893 3.167-7.06 7.06-7.06h126.041c3.893 0 7.06 3.167 7.06 7.06v218.955z"/><path d="m273.203 40.591h-40.605c-6.075 0-11 4.925-11 11s4.925 11 11 11h40.605c6.075 0 11-4.925 11-11s-4.925-11-11-11z"/><path d="m323.824 354.353h-135.648c-6.075 0-11 4.925-11 11v135.647c0 6.075 4.925 11 11 11h135.648c6.075 0 11-4.925 11-11v-135.647c0-6.076-4.925-11-11-11zm-11 135.647h-113.648v-113.647h113.648z"/><path d="m231.236 470.875c3.018 1.742 6.328 2.613 9.639 2.613s6.621-.871 9.639-2.613l36.379-21.004c6.036-3.484 9.64-9.726 9.64-16.695s-3.604-13.21-9.64-16.695l-36.379-21.004c-6.035-3.484-13.242-3.484-19.277 0s-9.639 9.726-9.639 16.694v42.009c0 6.969 3.603 13.211 9.638 16.695zm12.362-53.987 28.211 16.288-28.211 16.288z"/><path d="m501 354.353h-135.647c-6.075 0-11 4.925-11 11v135.647c0 6.075 4.925 11 11 11h135.647c6.075 0 11-4.925 11-11v-135.647c0-6.076-4.925-11-11-11zm-11 22v32.259l-6.454-5.509c-4.293-3.666-10.661-3.485-14.739.412l-30.898 29.514-21.365-17.763c-4.239-3.524-10.431-3.367-14.484.368l-25.706 23.677v-62.957h113.646zm-113.647 113.647v-21.093c.633-.38 1.237-.828 1.802-1.348l31.728-29.222 37.087 30.834c2.055 1.708 4.548 2.542 7.026 2.542 3.156 0 6.289-1.352 8.464-3.968 3.885-4.671 3.246-11.607-1.426-15.491l-6.096-5.069 21.882-20.901 13.18 11.252v52.464z"/><path d="m146.647 354.353h-135.647c-6.075 0-11 4.925-11 11v135.647c0 6.075 4.925 11 11 11h135.647c6.075 0 11-4.925 11-11v-135.647c0-6.076-4.924-11-11-11zm-11 135.647h-113.647v-113.647h113.647z"/><path d="m46.845 477.709h10c6.075 0 11-4.925 11-11v-45.223l23.958-7.106v27.742c-5.606.505-10 5.217-10 10.955 0 6.075 4.925 11 11 11h10c6.075 0 11-4.925 11-11v-53.434c0-3.471-1.639-6.739-4.42-8.815s-6.379-2.717-9.708-1.731l-45.958 13.632c-4.67 1.385-7.872 5.676-7.872 10.546v42.479c-5.606.505-10 5.217-10 10.955 0 6.076 4.925 11 11 11z"/></g></g><g/><g/><g/><g/><g/><g/><g/><g/><g/><g/><g/><g/><g/><g/><g/></svg>