<svg id="Layer_1" enable-background="new 0 0 512 512" viewBox="0 0 512 512" xmlns="http://www.w3.org/2000/svg" fill="#E6ECF2"><g><path d="m471 35h-430c-22.607 0-41 18.393-41 41v140c0 22.607 18.393 41 41 41h245.799v129c0 50.177 40.822 91 91 91h20c50.178 0 91-40.822 91-91v-62.5c0-18.472-15.028-33.5-33.5-33.5-8.652 0-16.549 3.298-22.5 8.701-5.951-5.403-13.848-8.701-22.5-8.701s-16.549 3.298-22.5 8.701c-5.951-5.403-13.848-8.701-22.5-8.701-4.039 0-7.912.718-11.5 2.034v-35.034h117.201c22.607 0 41-18.393 41-41v-140c0-22.607-18.393-41-41-41zm-105.701 277c6.341 0 11.5 5.159 11.5 11.5 0 6.075 4.925 11 11 11s11-4.925 11-11c0-6.341 5.159-11.5 11.5-11.5s11.5 5.159 11.5 11.5c0 6.075 4.925 11 11 11s11-4.925 11-11c0-6.341 5.159-11.5 11.5-11.5s11.5 5.159 11.5 11.5v62.5c0 38.046-30.953 69-69 69h-20c-38.047 0-69-30.953-69-69v-140c0-6.341 5.159-11.5 11.5-11.5s11.5 5.159 11.5 11.5v77.5c0 6.075 4.925 11 11 11s11-4.925 11-11c0-6.341 5.159-11.5 11.5-11.5zm124.701-96c0 10.477-8.523 19-19 19h-119.057c-4.562-13.085-17.024-22.5-31.644-22.5s-27.083 9.415-31.644 22.5h-247.655c-10.477 0-19-8.523-19-19v-140c0-10.477 8.523-19 19-19h430c10.477 0 19 8.523 19 19z"/><g fill="#0496FF"><path d="m202.589 140.363h-10.247c-6.075 0-11 4.925-11 11 0 5.822 4.523 10.588 10.247 10.975v4.159c0 5.236-4.26 9.496-9.496 9.496s-9.496-4.26-9.496-9.496v-40.994c0-5.236 4.26-9.496 9.496-9.496 3.574 0 6.819 2.004 8.47 5.23 2.767 5.408 9.397 7.549 14.803 4.781 5.408-2.768 7.549-9.395 4.781-14.803-5.432-10.614-16.182-17.208-28.054-17.208-17.367 0-31.496 14.129-31.496 31.496v40.994c0 17.367 14.129 31.496 31.496 31.496s31.496-14.129 31.496-31.496v-15.134c0-6.075-4.924-11-11-11z"/><path d="m124.331 94.007c-6.075 0-11 4.925-11 11v81.986c0 6.075 4.925 11 11 11s11-4.925 11-11v-81.986c0-6.075-4.925-11-11-11z"/><path d="m280.849 94.008c-6.075 0-11 4.925-11 11v35.389l-20.154-40.308c-2.281-4.563-7.401-6.959-12.366-5.786-4.965 1.172-8.473 5.604-8.473 10.706v81.985c0 6.075 4.925 11 11 11s11-4.925 11-11v-35.389l20.154 40.308c1.894 3.788 5.743 6.082 9.836 6.082.838 0 1.686-.096 2.53-.295 4.965-1.172 8.473-5.604 8.473-10.706v-81.985c0-6.076-4.925-11.001-11-11.001z"/><path d="m83.531 138.094-10.898-4.514c-2.234-.926-3.982-2.685-4.922-4.955s-.948-4.75-.022-6.985c.925-2.235 2.685-3.983 4.954-4.923s4.75-.949 6.985-.022l5.449 2.257c5.614 2.324 12.047-.342 14.372-5.954 2.324-5.613-.341-12.047-5.954-14.372l-5.449-2.257c-7.664-3.174-16.125-3.166-23.822.023-7.699 3.188-13.687 9.166-16.861 16.83s-3.167 16.124.022 23.823 9.166 13.687 16.829 16.861l10.898 4.514c4.655 1.928 6.873 7.284 4.944 11.94-.925 2.234-2.685 3.982-4.954 4.922-2.27.94-4.751.947-6.985.023l-5.449-2.257c-5.615-2.326-12.048.34-14.372 5.953-2.325 5.613.34 12.047 5.953 14.372l5.45 2.257c3.822 1.583 7.843 2.375 11.869 2.375 4.045 0 8.095-.799 11.953-2.397 7.7-3.189 13.688-9.167 16.861-16.83 6.571-15.861-.988-34.112-16.851-40.684z"/><path d="m435.503 94.006h-20.496c-6.075 0-11 4.925-11 11v81.987c0 6.075 4.925 11 11 11s11-4.925 11-11v-29.993h9.496c17.368 0 31.497-14.13 31.497-31.497s-14.129-31.497-31.497-31.497zm0 40.994h-9.496v-18.993h9.496c5.236 0 9.497 4.26 9.497 9.497s-4.26 9.496-9.497 9.496z"/><path d="m377.741 94.007c-6.075 0-11 4.925-11 11v61.489c0 5.236-4.26 9.497-9.496 9.497s-9.496-4.26-9.496-9.497v-61.489c0-6.075-4.925-11-11-11s-11 4.925-11 11v61.489c0 17.367 14.129 31.497 31.496 31.497s31.496-14.129 31.496-31.497v-61.489c0-6.075-4.925-11-11-11z"/></g></g><g/><g/><g/><g/><g/><g/><g/><g/><g/><g/><g/><g/><g/><g/><g/></svg>