<svg id="Layer_1" enable-background="new 0 0 512 512" viewBox="0 0 512 512" xmlns="http://www.w3.org/2000/svg" fill="#E6ECF2"><g><g><path d="m463.778 93.221-90-90c-2.062-2.062-4.86-3.221-7.778-3.221h-260c-6.075 0-11 4.925-11 11v39h-39c-6.075 0-11 4.925-11 11v440c0 6.075 4.925 11 11 11h350c6.075 0 11-4.925 11-11v-39h39c6.075 0 11-4.925 11-11v-350c0-2.918-1.159-5.716-3.222-7.779zm-86.778-55.665 52.444 52.444h-52.444zm18 452.444h-328v-418h28v379c0 6.075 4.925 11 11 11h289zm-278-50v-418h238v79c0 6.075 4.925 11 11 11h79v328z"/><path d="m411 287.499h-259.999c-6.075 0-11 4.925-11 11s4.925 11 11 11h259.999c6.075 0 11-4.925 11-11s-4.925-11-11-11z"/><path d="m411 242.499h-259.999c-6.075 0-11 4.925-11 11s4.925 11 11 11h259.999c6.075 0 11-4.925 11-11s-4.925-11-11-11z"/><path d="m411 197.5h-79.174c-6.075 0-11 4.925-11 11s4.925 11 11 11h79.174c6.075 0 11-4.925 11-11s-4.925-11-11-11z"/><path d="m411 152.5h-45c-6.075 0-11 4.925-11 11s4.925 11 11 11h45c6.075 0 11-4.925 11-11s-4.925-11-11-11z"/></g><g fill="#0496FF"><path d="m297.001 141.001c0-43.285-35.215-78.5-78.5-78.5s-78.5 35.215-78.5 78.5 35.215 78.5 78.5 78.5c43.285-.001 78.5-35.215 78.5-78.5zm-135 0c0-31.154 25.346-56.5 56.5-56.5s56.5 25.346 56.5 56.5c0 12.821-4.293 24.659-11.517 34.151-4.678-6.299-10.598-11.488-17.302-15.303 3.67-5.373 5.819-11.864 5.819-18.848 0-18.472-15.028-33.5-33.5-33.5s-33.5 15.028-33.5 33.5c0 6.984 2.148 13.475 5.819 18.848-6.704 3.815-12.624 9.004-17.302 15.303-7.224-9.493-11.517-21.33-11.517-34.151zm56.499 11.499c-6.341 0-11.5-5.159-11.5-11.5s5.159-11.5 11.5-11.5 11.5 5.159 11.5 11.5c.001 6.342-5.158 11.5-11.5 11.5zm-28.41 37.324c6.251-9.499 16.962-15.323 28.41-15.323 11.449 0 22.16 5.824 28.411 15.324-8.352 4.878-18.061 7.676-28.411 7.676s-20.058-2.798-28.41-7.677z"/><path d="m388.5 332.499h-85c-18.472 0-33.5 15.028-33.5 33.5s15.028 33.5 33.5 33.5h85c18.472 0 33.5-15.028 33.5-33.5 0-18.473-15.028-33.5-33.5-33.5zm0 44.999h-85c-6.341 0-11.5-5.159-11.5-11.5s5.159-11.5 11.5-11.5h85c6.341 0 11.5 5.159 11.5 11.5s-5.159 11.5-11.5 11.5z"/></g></g><g/><g/><g/><g/><g/><g/><g/><g/><g/><g/><g/><g/><g/><g/><g/></svg>