<svg id="Capa_1" enable-background="new 0 0 512.001 512.001" viewBox="0 0 512.001 512.001" xmlns="http://www.w3.org/2000/svg" fill="#052438"><g><g><path d="m501.893 210.179-31.078-2.526c-5.516-24.677-15.158-47.935-28.747-69.342l20.205-23.781c3.71-4.367 3.447-10.849-.604-14.901l-49.296-49.296c-4.051-4.051-10.535-4.314-14.9-.604l-23.783 20.207c-21.404-13.586-44.662-23.228-69.34-28.743l-2.527-31.083c-.467-5.712-5.236-10.11-10.966-10.11h-69.715c-5.729 0-10.5 4.398-10.964 10.109l-2.527 31.083c-24.666 5.515-47.926 15.158-69.335 28.747l-23.787-20.209c-4.365-3.709-10.849-3.447-14.9.604l-49.296 49.295c-4.051 4.052-4.314 10.534-.604 14.901l20.207 23.782c-13.588 21.403-23.231 44.661-28.75 69.34l-31.075 2.526c-5.713.466-10.111 5.236-10.111 10.965v69.715c0 5.729 4.398 10.5 10.109 10.964l31.083 2.527c5.515 24.666 15.158 47.926 28.747 69.335l-20.21 23.787c-3.71 4.367-3.447 10.849.604 14.901l49.296 49.296c4.053 4.052 10.535 4.314 14.9.604l23.783-20.207c21.403 13.589 44.661 23.231 69.34 28.75l2.526 31.076c.464 5.71 5.234 10.108 10.964 10.108h69.715c5.729 0 10.5-4.398 10.964-10.109l2.526-31.083c24.666-5.515 47.926-15.158 69.336-28.747l23.787 20.209c4.366 3.709 10.848 3.447 14.9-.604l49.296-49.296c4.052-4.052 4.314-10.534.604-14.901l-20.207-23.783c13.589-21.403 23.232-44.662 28.75-69.34l31.076-2.526c5.71-.464 10.108-5.234 10.108-10.964l.001-69.715c.003-5.726-4.394-10.496-10.105-10.961zm-11.893 70.537-29.203 2.375c-4.957.403-9.027 4.083-9.927 8.974-5.055 27.48-15.685 53.12-31.596 76.206-2.822 4.095-2.546 9.575.675 13.365l18.991 22.352-34.953 34.953-22.355-18.993c-3.789-3.219-9.267-3.498-13.362-.676-23.099 15.913-48.737 26.542-76.204 31.591-4.892.899-8.571 4.97-8.975 9.928l-2.374 29.209h-49.432l-2.375-29.204c-.403-4.957-4.083-9.027-8.974-9.927-27.481-5.055-53.121-15.685-76.206-31.595-4.094-2.822-9.575-2.546-13.364.674l-22.352 18.991-34.953-34.953 18.993-22.354c3.22-3.79 3.497-9.268.676-13.363-15.913-23.098-26.542-48.736-31.591-76.203-.899-4.892-4.97-8.572-9.928-8.975l-29.211-2.375v-49.431l29.203-2.374c4.958-.403 9.028-4.082 9.927-8.974 5.055-27.482 15.686-53.122 31.596-76.207 2.822-4.095 2.546-9.574-.674-13.365l-18.991-22.352 34.953-34.953 22.355 18.993c3.79 3.22 9.268 3.497 13.363.676 23.098-15.913 48.736-26.542 76.203-31.591 4.892-.899 8.572-4.97 8.975-9.928l2.375-29.21h49.431l2.375 29.211c.403 4.958 4.083 9.028 8.975 9.927 27.479 5.052 53.119 15.679 76.207 31.587 4.097 2.823 9.575 2.545 13.363-.675l22.352-18.99 34.953 34.953-18.989 22.349c-3.22 3.79-3.497 9.269-.675 13.364 15.911 23.091 26.54 48.731 31.592 76.208.899 4.892 4.97 8.572 9.927 8.975l29.206 2.375z"/><path d="m401 245.001h-44.595c-2.134-19.617-9.909-37.565-21.664-52.185l31.111-31.111c4.296-4.296 4.296-11.261 0-15.557-4.297-4.296-11.26-4.296-15.557 0l-31.111 31.111c-14.619-11.754-32.567-19.529-52.184-21.664v-44.595c0-6.075-4.926-11-11-11-6.075 0-11 4.925-11 11v44.595c-19.617 2.134-37.565 9.909-52.185 21.664l-31.111-31.111c-4.296-4.296-11.261-4.296-15.557 0-4.295 4.296-4.295 11.261 0 15.557l31.111 31.111c-11.755 14.619-19.529 32.568-21.664 52.185h-44.595c-6.075 0-11 4.925-11 11s4.925 11 11 11h44.588c2.065 19.191 9.522 37.194 21.631 52.223l-31.564 31.564c-4.296 4.296-4.295 11.261 0 15.557 2.148 2.148 4.963 3.222 7.778 3.222s5.63-1.074 7.778-3.222l38.926-38.927c2.063-2.063 3.222-4.861 3.222-7.778s-1.159-5.715-3.222-7.778c-14.918-14.921-23.136-34.759-23.136-55.861 0-43.561 35.439-79 79-79 43.56 0 79 35.439 79 79 0 21.102-8.218 40.94-23.139 55.861-2.062 2.063-3.222 4.861-3.222 7.778s1.159 5.715 3.222 7.778l38.677 38.677c4.297 4.296 11.26 4.296 15.557 0 4.296-4.296 4.296-11.261 0-15.557l-31.314-31.314c12.109-15.029 19.566-33.032 21.631-52.223h44.588c6.075 0 11-4.925 11-11s-4.925-11-11-11z"/></g><g fill="#0496FF"><path d="m256 95.001c-88.776 0-161 72.224-161 161 0 88.775 72.224 161 161 161s161-72.224 161-161-72.224-161-161-161zm0 299.999c-76.645 0-139-62.355-139-139s62.355-139 139-139 139 62.355 139 139c0 76.646-62.354 139-139 139z"/><path d="m363.171 211.61c-2.325-5.614-8.764-8.279-14.372-5.953l-67.789 28.079c-6.14-6.889-15.077-11.234-25.009-11.234-18.472 0-33.5 15.028-33.5 33.5s15.028 33.5 33.5 33.5 33.5-15.028 33.5-33.5c0-.654-.02-1.303-.057-1.947l67.772-28.072c5.614-2.326 8.279-8.76 5.955-14.373zm-107.171 55.891c-6.341 0-11.5-5.159-11.5-11.5s5.159-11.5 11.5-11.5 11.5 5.159 11.5 11.5-5.158 11.5-11.5 11.5z"/></g></g><g/><g/><g/><g/><g/><g/><g/><g/><g/><g/><g/><g/><g/><g/><g/></svg>