<svg id="Capa_1" enable-background="new 0 0 512 512" viewBox="0 0 512 512" xmlns="http://www.w3.org/2000/svg" fill="#052438"><g><g fill="#0496FF"><path d="m457 446h-31.245v-391c0-4.449-2.68-8.46-6.79-10.163-4.112-1.704-8.843-.761-11.988 2.384l-73.396 73.395c-4.296 4.296-4.296 11.261 0 15.557 4.297 4.295 11.262 4.295 15.557 0l54.617-54.617v364.444h-31.246c-6.075 0-11 4.925-11 11s4.925 11 11 11h84.491c6.075 0 11-4.925 11-11s-4.925-11-11-11z"/><path d="m243.87 258.698c6.075 0 11-4.925 11-11s-4.925-11-11-11h-17.436v-17.435c0-6.075-4.925-11-11-11s-11 4.925-11 11v17.435h-110v-17.435c0-6.075-4.925-11-11-11s-11 4.925-11 11v17.435h-17.434c-6.075 0-11 4.925-11 11s4.925 11 11 11h17.435v110h-17.435c-6.075 0-11 4.925-11 11s4.925 11 11 11h17.435v17.435c0 6.075 4.925 11 11 11s11-4.925 11-11v-17.435h110v17.435c0 6.075 4.925 11 11 11s11-4.925 11-11v-17.435h17.436c6.075 0 11-4.925 11-11s-4.925-11-11-11h-17.436v-110zm-39.435 110h-110v-110h110z"/></g><g><path d="m501 402h-31.245l-.001-391c0-6.075-4.925-11-11-11h-62.225c-2.917 0-5.715 1.159-7.778 3.222l-117.396 117.395c-2.062 2.063-3.222 4.861-3.222 7.778s1.159 5.715 3.222 7.778l62.226 62.226c4.297 4.296 11.26 4.296 15.557 0l10.617-10.617v214.218h-31.246c-6.075 0-11 4.925-11 11v88c0 6.075 4.925 11 11 11h172.491c6.075 0 11-4.925 11-11v-88c0-6.075-4.925-11-11-11zm-11 88h-150.491v-66h31.246c6.075 0 11-4.925 11-11v-251.774c0-4.449-2.68-8.46-6.79-10.163-4.11-1.702-8.842-.762-11.988 2.384l-21.617 21.617-46.669-46.669 106.395-106.395h46.668l.001 391c0 6.075 4.925 11 11 11h31.245z"/><path d="m287.87 192.698h-17.435v-17.435c0-6.075-4.925-11-11-11h-88c-6.075 0-11 4.925-11 11v17.435h-22v-17.435c0-6.075-4.925-11-11-11h-88c-6.075 0-11 4.925-11 11v17.435h-17.435c-6.075 0-11 4.925-11 11v88c0 6.075 4.925 11 11 11h17.436v22h-17.436c-6.075 0-11 4.925-11 11v88c0 6.075 4.925 11 11 11h17.436v17.435c0 6.075 4.925 11 11 11h88c6.075 0 11-4.925 11-11v-17.435h22v17.435c0 6.075 4.925 11 11 11h88c6.075 0 11-4.925 11-11v-17.435h17.435c6.075 0 11-4.925 11-11v-88c0-6.075-4.925-11-11-11h-17.435v-22h17.435c6.075 0 11-4.925 11-11v-88c-.001-6.075-4.926-11-11.001-11zm-11 88h-17.435c-6.075 0-11 4.925-11 11v44c0 6.075 4.925 11 11 11h17.435v66h-17.435c-6.075 0-11 4.925-11 11v17.435h-66v-17.435c0-6.075-4.925-11-11-11h-44c-6.075 0-11 4.925-11 11v17.435h-66v-17.435c0-6.075-4.925-11-11-11h-17.435v-66h17.436c6.075 0 11-4.925 11-11v-44c0-6.075-4.925-11-11-11h-17.436v-66h17.436c6.075 0 11-4.925 11-11v-17.435h66v17.435c0 6.075 4.925 11 11 11h44c6.075 0 11-4.925 11-11v-17.435h66v17.435c0 6.075 4.925 11 11 11h17.435v66z"/><path d="m171.436 280.698h-44c-6.075 0-11 4.925-11 11v44c0 6.075 4.925 11 11 11h44c6.075 0 11-4.925 11-11v-44c0-6.075-4.925-11-11-11zm-11 44h-22v-22h22z"/></g></g><g/><g/><g/><g/><g/><g/><g/><g/><g/><g/><g/><g/><g/><g/><g/></svg>