<svg id="Capa_1" enable-background="new 0 0 512 512" viewBox="0 0 512 512" xmlns="http://www.w3.org/2000/svg" fill="#052438"><g><path d="m456.21 248.988h-120.215c-28.386 0-55.714 6.875-80.089 19.828-24.575-12.983-52.058-19.828-79.9-19.828h-120.215c-6.075 0-11 4.925-11 11v130.935c0 6.075 4.925 11 11 11h70.506l100.581 100.582c6.124 6.124 14.266 9.496 22.926 9.496s16.802-3.373 22.926-9.496c3.504-3.504 6.107-7.668 7.693-12.213 11.167 3.512 23.868.849 32.701-7.983 2.862-2.862 5.123-6.165 6.72-9.756 12.339 6.878 28.251 5.08 38.723-5.391 6.124-6.124 9.496-14.266 9.496-22.926 0-5.628-1.424-11.038-4.103-15.816 3.541-1.569 6.856-3.803 9.755-6.701 5.479-5.479 8.631-12.512 9.339-19.794h73.156c6.075 0 11-4.925 11-11v-130.937c0-6.076-4.925-11-11-11zm-55 22v108.935h-24.394l-61.231-62.185c-2.067-2.1-4.891-3.282-7.838-3.282h-42.903c-2.917 0-5.715 1.159-7.778 3.222l-30.455 30.455c-1.968 1.969-4.585 3.053-7.37 3.053-2.784 0-5.401-1.084-7.369-3.052-4.063-4.064-4.063-10.676 0-14.739l18.765-18.764c28.143-28.143 65.56-43.642 105.358-43.642h65.215zm-334.419 0h22v108.935h-22zm291.367 135.172c-4.064 4.063-10.676 4.064-14.739 0l-21.527-21.527c-4.296-4.296-11.261-4.296-15.557 0-4.295 4.296-4.295 11.261 0 15.557l36.675 36.675c1.969 1.968 3.053 4.585 3.053 7.369s-1.084 5.401-3.053 7.369c-4.063 4.063-10.675 4.063-14.738 0l-36.675-36.675c-4.296-4.296-11.261-4.296-15.557 0-2.148 2.148-3.222 4.963-3.222 7.778s1.074 5.63 3.222 7.778l21.527 21.527c4.063 4.063 4.063 10.675 0 14.738-4.064 4.062-10.676 4.064-14.739 0l-21.527-21.527c-4.296-4.296-11.261-4.296-15.557 0-2.148 2.148-3.222 4.963-3.222 7.778s1.074 5.63 3.222 7.778l11.429 11.429c1.969 1.968 3.053 4.585 3.053 7.369s-1.084 5.401-3.053 7.369c-4.063 4.063-10.675 4.063-14.739 0l-103.803-103.801c-2.063-2.062-4.861-3.222-7.778-3.222h-20.062v-108.934h65.215c19.938 0 39.663 4.035 57.947 11.748-6.618 4.942-12.926 10.391-18.872 16.337l-18.765 18.764c-12.641 12.641-12.641 33.21 0 45.852 6.124 6.124 14.266 9.496 22.926 9.496 8.661 0 16.802-3.373 22.926-9.496l27.233-27.233h33.74l57.135 58.025c1.787 3.913.991 8.57-2.118 11.679zm87.052-26.237h-22v-108.935h22z"/><g fill="#0496FF"><path d="m346.679 30.6-87.097-30c-2.321-.8-4.844-.8-7.165 0l-87.097 30c-4.438 1.529-7.417 5.706-7.417 10.4v46.998c0 51.487 27.739 99.396 72.392 125.03l20.229 11.613c1.696.974 3.586 1.46 5.477 1.46s3.781-.487 5.477-1.46l20.229-11.613c44.648-25.635 72.392-73.546 72.392-125.03v-46.998c-.002-4.694-2.981-8.871-7.42-10.4zm-14.582 57.398c0 43.63-23.506 84.228-61.345 105.951l-14.752 8.469-14.752-8.469c-37.839-21.723-61.345-62.32-61.345-105.951v-39.153l76.097-26.21 76.097 26.211z"/><path d="m226.331 93.35c-4.296-4.296-11.261-4.296-15.557 0-4.295 4.296-4.295 11.261 0 15.557l26.246 26.246c2.148 2.148 4.963 3.222 7.778 3.222s5.63-1.074 7.778-3.222l48.648-48.648c4.295-4.296 4.295-11.261 0-15.557-4.296-4.296-11.261-4.296-15.557 0l-40.87 40.871z"/></g></g><g/><g/><g/><g/><g/><g/><g/><g/><g/><g/><g/><g/><g/><g/><g/></svg>