<svg id="Capa_1" enable-background="new 0 0 512 512" viewBox="0 0 512 512" xmlns="http://www.w3.org/2000/svg" fill="#052438"><g><path d="m448.773 295.818h-181.773v-74.448h-22v74.448h-181.775c-6.075 0-11 4.925-11 11v85.448h22v-74.448h170.775v74.448h22v-74.448h170.773v74.448h22v-85.448c0-6.075-4.924-11-11-11z" fill="#0496FF"/><g><path d="m319.888 70.588-8.436-8.436v-6.7c.001-30.576-24.875-55.452-55.452-55.452s-55.453 24.876-55.453 55.453v30.236c0 14.948 5.859 28.963 16.498 39.465.461.455.937.89 1.411 1.327-36.456 14.863-62.22 50.688-62.22 92.423v2.465c0 6.075 4.925 11 11 11h177.526c6.075 0 11-4.925 11-11v-2.465c0-26.412-10.321-50.455-27.136-68.32 16.158-25.321 12.646-58.611-8.738-79.996zm-8.262 65.539c-5.705-3.846-11.83-7.114-18.286-9.729 8.967-8.304 15.243-19.529 17.337-32.122 7.613 12.669 8.111 28.615.949 41.851zm-89.079-58.418h3.366c8.297 0 16.606-1.961 24.027-5.672l6.059-3.03 6.059 3.03c7.421 3.71 15.73 5.672 24.027 5.672h3.366v7.317c0 18.574-14.806 33.876-33.005 34.112-8.998.124-17.53-3.307-23.947-9.641-6.418-6.336-9.953-14.791-9.953-23.809v-7.979zm33.453 63.433c7.13 0 14.032.981 20.596 2.786l-7.283 66.442h-26.625l-7.283-66.442c6.563-1.806 13.465-2.786 20.595-2.786zm-33.453-85.689c0-18.446 15.007-33.453 33.453-33.453s33.453 15.007 33.453 33.453v.257h-3.366c-4.9 0-9.806-1.158-14.188-3.35l-10.979-5.489c-1.548-.774-3.234-1.161-4.919-1.161s-3.371.387-4.919 1.161l-10.979 5.489c-4.382 2.191-9.289 3.35-14.188 3.35h-3.366v-.257zm-8.246 97.857 6.255 57.059h-41.853c2.628-23.97 16.205-44.687 35.598-57.059zm77.144 57.06 6.255-57.059c19.393 12.372 32.97 33.088 35.599 57.059z"/><path d="m92.24 437.789c4.216-5.863 6.709-13.045 6.709-20.801 0-19.698-16.025-35.723-35.723-35.723-19.697 0-35.722 16.025-35.722 35.723 0 7.757 2.493 14.938 6.708 20.801-20.301 10.534-34.212 31.74-34.212 56.148v7.063c0 6.075 4.925 11 11 11h104.452c6.075 0 11-4.925 11-11v-7.063c0-24.408-13.911-45.614-34.212-56.148zm-42.737-20.801c0-7.567 6.156-13.723 13.722-13.723 7.567 0 13.723 6.156 13.723 13.723 0 7.566-6.156 13.722-13.723 13.722-7.566 0-13.722-6.155-13.722-13.722zm-27.316 73.012c1.988-20.892 19.635-37.29 41.039-37.29s39.051 16.397 41.04 37.29z"/><path d="m285.014 437.79c4.216-5.863 6.709-13.045 6.709-20.801 0-19.698-16.025-35.723-35.723-35.723s-35.723 16.025-35.723 35.723c0 7.757 2.493 14.938 6.709 20.801-20.301 10.534-34.212 31.74-34.212 56.147v7.063c0 6.075 4.925 11 11 11h104.451c6.075 0 11-4.925 11-11v-7.063c.001-24.408-13.91-45.614-34.211-56.147zm-42.737-20.802c0-7.567 6.156-13.723 13.723-13.723s13.723 6.156 13.723 13.723c0 7.566-6.156 13.722-13.723 13.722s-13.723-6.155-13.723-13.722zm-27.316 73.012c1.988-20.892 19.635-37.29 41.039-37.29s39.051 16.397 41.039 37.29z"/><path d="m477.788 437.789c4.216-5.863 6.708-13.044 6.708-20.801 0-19.698-16.025-35.723-35.722-35.723-19.698 0-35.723 16.025-35.723 35.723 0 7.757 2.493 14.938 6.709 20.801-20.301 10.534-34.212 31.74-34.212 56.147v7.064c0 6.075 4.925 11 11 11h104.452c6.075 0 11-4.925 11-11v-7.063c0-24.408-13.911-45.614-34.212-56.148zm-42.736-20.801c0-7.567 6.156-13.723 13.723-13.723 7.566 0 13.722 6.156 13.722 13.723 0 7.566-6.156 13.722-13.722 13.722-7.567 0-13.723-6.155-13.723-13.722zm-27.317 73.012c1.988-20.892 19.635-37.29 41.04-37.29s39.051 16.397 41.039 37.29z"/></g></g><g/><g/><g/><g/><g/><g/><g/><g/><g/><g/><g/><g/><g/><g/><g/></svg>