<svg id="Capa_1" enable-background="new 0 0 512 512" viewBox="0 0 512 512" xmlns="http://www.w3.org/2000/svg" fill="#052438"><g><g><path d="m508.778 280.39c-25.953-25.953-62.481-27.098-86.855-2.724l-72.816 72.815c1.041-3.42 1.601-7.047 1.601-10.802 0-20.498-16.676-37.173-37.173-37.173h-61.938c-19.55-11.106-40.254-16.114-60.062-14.503-23.521 1.915-44.527 12.775-62.504 32.299h-17.031v-19c0-6.075-4.925-11-11-11h-90c-6.075 0-11 4.925-11 11v164.697c0 6.075 4.925 11 11 11h90c6.075 0 11-4.925 11-11v-19l240.802-.003c10.31 0 19.997-4.081 26.58-11.195l129.692-140.163c4.012-4.336 3.883-11.069-.296-15.248zm-418.778 174.609h-68v-142.697h68zm273.233-34.139c-3.33 3.599-7.965 4.136-10.432 4.136l-240.801.003v-82.697h21.979c3.222 0 6.282-1.413 8.372-3.865 38.613-45.305 83.224-25.932 100.61-15.499 1.71 1.025 3.666 1.567 5.66 1.567h64.914c8.366 0 15.173 6.807 15.173 15.173s-6.807 15.173-15.173 15.173h-64.914c-6.075 0-11 4.925-11 11s4.925 11 11 11h100.671c2.917 0 5.715-1.159 7.778-3.222l80.408-80.408c7.62-7.62 16.912-11.442 26.876-11.053 7.046.275 14.151 2.727 20.683 7.053z"/><path d="m56.004 357.303c6.075 0 11-4.925 11-11s-4.925-11-11-11h-.008c-6.075 0-10.996 4.925-10.996 11s4.929 11 11.004 11z"/></g><g><g><path d="m283.117 168.619c-4.327 0-8.653-1.142-12.577-3.434l-14.518-7.27-15.947 7.985c-8.382 4.194-18.305 3.37-25.9-2.149-7.608-5.529-11.466-14.705-10.069-23.947l2.669-17.654-12.496-12.672c-6.583-6.685-8.86-16.377-5.948-25.301 2.919-8.945 10.488-15.445 19.752-16.961l17.513-2.901 8.187-15.791c4.311-8.343 12.82-13.524 22.212-13.524h.078c9.441.029 17.957 5.243 22.234 13.61l8.141 15.704 17.533 2.904c9.297 1.526 16.861 8.021 19.725 16.948 2.908 9.068.536 18.863-6.19 25.564l-12.246 12.42 2.669 17.654c1.462 9.731-2.72 19.141-10.91 24.57-4.266 2.827-9.089 4.245-13.912 4.245zm-27.096-34.005c1.688 0 3.375.388 4.925 1.164l19.804 9.917c.279.14.552.291.817.454 1.418.869 2.681.302 3.307-.112 1.058-.701 1.498-1.695 1.31-2.954l-3.491-23.089c-.519-3.428.609-6.899 3.044-9.368l16.184-16.412c1.309-1.304 1.019-2.759.836-3.328-.532-1.661-1.903-1.886-2.354-1.96l-22.983-3.806c-3.42-.566-6.373-2.712-7.969-5.79l-10.693-20.628c-.013-.024-.024-.048-.037-.072-.719-1.413-2.009-1.627-2.714-1.629-.004 0-.007 0-.011 0-.837 0-1.977.285-2.675 1.637l-10.728 20.692c-1.595 3.078-4.548 5.223-7.968 5.79l-22.967 3.805c-1.597.261-2.195 1.414-2.412 2.078-.26.795-.348 1.966.703 3.034l16.358 16.589c2.434 2.469 3.562 5.94 3.044 9.368l-3.493 23.1c-.231 1.531.684 2.45 1.25 2.862.682.495 1.776.946 3.119.273l20.87-10.45c1.549-.777 3.237-1.165 4.924-1.165z" fill="#0496FF"/></g><g><path d="m107.731 233.689c-2.882 0-5.79-.525-8.588-1.599-8.364-3.212-14.177-10.706-15.17-19.557l-1.772-15.787-13.655-8.012c-7.708-4.529-12.193-12.887-11.714-21.817.48-8.952 5.843-16.798 13.996-20.479l14.378-6.524 3.399-15.455c1.916-8.764 8.5-15.644 17.179-17.941 8.69-2.298 17.812.396 23.813 7.038l10.61 11.619 15.735-1.542c8.93-.881 17.495 3.225 22.332 10.737 4.911 7.625 5.144 17.222.606 25.045l-7.655 13.477 6.359 14.556c3.745 8.596 2.218 18.288-3.981 25.303-6.116 6.921-15.325 9.685-24.147 7.284l-14.08-2.89-11.867 10.535c-4.442 3.942-10.058 6.009-15.778 6.009zm4.249-105.981c-.181 0-.37.026-.568.078-1.078.286-1.253 1.085-1.319 1.386l-4.584 20.846c-.745 3.385-3.041 6.222-6.198 7.654l-19.413 8.809c-.695.313-1.058.854-1.099 1.615-.06 1.112.652 1.53.885 1.667l18.4 10.796c2.99 1.754 4.978 4.815 5.364 8.261l2.386 21.26c.079.703.481 1.199 1.195 1.473 1.052.403 1.671-.146 1.875-.325l15.983-14.189c2.593-2.302 6.123-3.247 9.514-2.549l19.867 4.078c.306.062.608.138.907.227.923.274 1.562-.18 1.939-.607.769-.87.442-1.619.303-1.938l-8.56-19.593c-1.388-3.177-1.197-6.822.516-9.837l10.424-18.352c.576-.995.23-1.789-.022-2.182-.491-.764-1.122-.809-1.675-.755l-21.232 2.081c-3.447.342-6.858-.97-9.196-3.53l-14.347-15.711c-.018-.02-.036-.039-.053-.059-.358-.403-.792-.604-1.292-.604z" fill="#0496FF"/></g><g><path d="m404.268 233.689c-5.72 0-11.335-2.067-15.774-6.007l-11.868-10.536-14.079 2.89c-8.825 2.402-18.031-.362-24.147-7.284-6.199-7.016-7.728-16.707-3.987-25.293l6.364-14.566-7.704-13.562c-4.488-7.738-4.255-17.335.656-24.96 4.838-7.511 13.409-11.625 22.347-10.735l15.72 1.541 10.61-11.619c6-6.643 15.117-9.341 23.813-7.038 8.679 2.297 15.263 9.177 17.181 17.954l3.396 15.441 14.397 6.533c8.134 3.672 13.496 11.519 13.977 20.471.479 8.93-4.007 17.289-11.707 21.813l-13.662 8.016-1.771 15.786c-.994 8.853-6.808 16.346-15.173 19.558-2.799 1.072-5.707 1.597-8.589 1.597zm-24.459-39.426c2.666 0 5.271.97 7.303 2.774l15.985 14.191c.201.179.818.728 1.873.323.714-.274 1.115-.77 1.194-1.474l2.386-21.259c.387-3.445 2.375-6.507 5.365-8.261l18.406-10.799c.228-.133.938-.551.879-1.663-.041-.761-.404-1.302-1.08-1.606l-19.432-8.817c-3.157-1.433-5.454-4.269-6.198-7.655l-4.581-20.833c-.068-.314-.243-1.113-1.321-1.398-.751-.199-1.374-.021-1.861.522-.019.02-.036.04-.054.06l-14.348 15.711c-2.338 2.56-5.743 3.865-9.196 3.53l-21.216-2.079c-.562-.057-1.198-.01-1.69.753-.253.393-.599 1.188-.071 2.097l10.474 18.437c1.713 3.015 1.903 6.66.516 9.837l-8.564 19.604c-.135.309-.461 1.058.308 1.928.377.427 1.02.881 1.939.607.3-.088.602-.164.907-.227l19.866-4.078c.734-.151 1.475-.225 2.211-.225zm10.741-73.313h.01z" fill="#0496FF"/></g></g></g><g/><g/><g/><g/><g/><g/><g/><g/><g/><g/><g/><g/><g/><g/><g/></svg>