<svg id="Capa_1" enable-background="new 0 0 512 512" viewBox="0 0 512 512" xmlns="http://www.w3.org/2000/svg" fill="#E6ECF2"><g><path d="m417.463 490h-34.198v-55c0-6.075-4.925-11-11-11h-15.839v-163.5c0-3.637-1.798-7.04-4.803-9.088l-39.197-26.725v-42.215h-22v241.528h-68.854v-241.529h-22v42.215l-39.197 26.725c-3.005 2.049-4.803 5.451-4.803 9.088v163.501h-15.839c-6.075 0-11 4.925-11 11v55h-34.196c-6.075 0-11 4.925-11 11s4.925 11 11 11h322.927c6.075 0 11-4.925 11-11s-4.925-11-11.001-11zm-105.036-238.687 22 15v157.687h-22zm-134.854 15 22-15v172.687h-22zm-26.839 179.687h210.531v44h-210.531z"/><g fill="#0496FF"><path d="m301.625 79.043-22.853-7.066-13.782-19.55c-2.061-2.923-5.414-4.662-8.991-4.662s-6.93 1.739-8.991 4.662l-13.782 19.55-22.853 7.066c-3.417 1.057-6.107 3.708-7.212 7.11s-.488 7.128 1.655 9.991l14.334 19.149-.341 23.917c-.051 3.576 1.64 6.954 4.533 9.056 2.894 2.103 6.628 2.667 10.014 1.513l22.644-7.715 22.642 7.715c3.365 1.149 7.114.596 10.014-1.513 2.893-2.102 4.584-5.479 4.533-9.056l-.341-23.917 14.334-19.149c2.143-2.863 2.761-6.589 1.655-9.991-1.105-3.402-3.795-6.053-7.212-7.11zm-28.636 26.067c-1.457 1.945-2.228 4.319-2.193 6.749l.172 12.063-11.42-3.891c-2.301-.784-4.795-.784-7.096 0l-11.42 3.891.172-12.063c.035-2.43-.736-4.803-2.193-6.749l-7.23-9.659 11.526-3.564c2.322-.718 4.341-2.185 5.741-4.171l6.951-9.86 6.951 9.86c1.4 1.986 3.419 3.453 5.741 4.171l11.526 3.564z"/><path d="m256 0c-56.971 0-103.321 46.35-103.321 103.321s46.35 103.321 103.321 103.321 103.321-46.35 103.321-103.321-46.35-103.321-103.321-103.321zm0 184.642c-44.84 0-81.321-36.48-81.321-81.321s36.481-81.321 81.321-81.321 81.321 36.48 81.321 81.321-36.481 81.321-81.321 81.321z"/></g></g><g/><g/><g/><g/><g/><g/><g/><g/><g/><g/><g/><g/><g/><g/><g/></svg>