<svg id="Capa_1" enable-background="new 0 0 512.011 512.011" viewBox="0 0 512.011 512.011" xmlns="http://www.w3.org/2000/svg" fill="#E6ECF2"><g><path d="m501.005 228.711h-223.836c-.252 0-.505.009-.757.026-16.007 1.104-31.245 5.322-44.302 12.061l-221.106.001c-6.075 0-11 4.925-11 11v139.875c0 2.917 1.159 5.715 3.222 7.778s4.861 3.222 7.778 3.222h63.13c-.066 8.609 3.177 17.239 9.732 23.793 6.488 6.488 15.011 9.731 23.534 9.731.141 0 .282-.001.423-.003.798 7.276 3.963 14.33 9.486 19.853 6.489 6.488 15.012 9.732 23.535 9.732 1.025 0 2.05-.047 3.072-.141 1.149 6.481 4.211 12.678 9.181 17.648 6.49 6.489 15.012 9.733 23.536 9.733 4.373 0 8.747-.855 12.847-2.564 1.627 4.306 4.181 8.346 7.656 11.822 6.488 6.488 15.012 9.732 23.534 9.732 8.523 0 17.047-3.244 23.535-9.732l4.825-4.825.81.81c6.27 6.269 14.627 9.721 23.535 9.721 8.907 0 17.266-3.453 23.534-9.722 3.44-3.44 5.964-7.49 7.566-11.826 12.118 5.119 26.668 2.748 36.526-7.11 4.909-4.909 7.951-11.062 9.115-17.511 1.091.106 2.193.16 3.304.16 8.907 0 17.265-3.453 23.534-9.721 5.083-5.083 8.175-11.415 9.276-18.018.853.065 1.708.099 2.563.099 8.523 0 17.047-3.245 23.536-9.733 9.184-9.185 11.868-22.447 8.051-34.014h80.624c6.075 0 11-4.925 11-11v-139.877c.001-6.075-4.923-11-10.999-11zm-401.583 182.198c-4.399-4.399-4.399-11.557 0-15.956l34.276-34.277c2.113-2.114 4.947-3.277 7.978-3.277s5.865 1.164 7.979 3.278 3.278 4.947 3.278 7.979-1.164 5.864-3.278 7.978l-34.274 34.275c-4.401 4.4-11.56 4.4-15.959 0zm33.444 29.583c-4.327-4.327-4.387-11.425-.132-15.822.008-.009.016-.018.025-.026l30.61-30.611c.003-.003.006-.006.01-.009 4.396-4.294 11.511-4.251 15.859.097 4.399 4.4 4.399 11.558 0 15.957l-30.415 30.415c-4.399 4.399-11.559 4.398-15.957-.001zm35.788 27.239c-4.346-4.346-4.391-11.459-.099-15.856.013-.013.026-.027.038-.04l25.195-25.195c.012-.011.024-.023.036-.034 4.398-4.268 11.501-4.213 15.834.121 2.114 2.114 3.278 4.947 3.278 7.979s-1.163 5.865-3.277 7.978l-25.049 25.049c-4.399 4.399-11.559 4.397-15.956-.002zm67.885 11.101-7.89 7.89c-4.397 4.398-11.556 4.399-15.957 0-4.24-4.241-4.371-11.264-.291-15.655.04-.043.078-.085.117-.128l8.127-8.127c.02-.019.041-.039.061-.058 4.396-4.265 11.499-4.209 15.832.123 2.113 2.114 3.277 4.948 3.277 7.979s-1.162 5.863-3.276 7.976zm160.236-69.787c-4.4 4.4-11.56 4.4-15.958 0l-3.78-3.78c-.025-.025-.049-.05-.074-.075-.013-.013-.027-.026-.04-.039l-23.032-23.032c-4.297-4.296-11.26-4.296-15.557 0-4.296 4.296-4.296 11.261 0 15.557l23.106 23.106c4.36 4.402 4.345 11.531-.04 15.917-4.399 4.4-11.559 4.398-15.956 0l-19.796-19.795c-4.297-4.296-11.262-4.295-15.557 0-4.296 4.296-4.296 11.261 0 15.556l15.508 15.507c.027.029.053.058.08.087 4.145 4.394 4.04 11.445-.232 15.718-4.4 4.399-11.559 4.4-15.957.001l-12.03-12.031c-.208-.208-.425-.408-.649-.599l-.092-.078c-4.447-3.786-11.079-3.435-15.104.8-4.023 4.234-4.035 10.875-.027 15.125 4.145 4.394 4.04 11.445-.233 15.718-2.113 2.114-4.947 3.278-7.979 3.278-3.03 0-5.864-1.164-7.979-3.278l-4.406-4.406c.546-2.414.827-4.907.826-7.446 0-8.908-3.452-17.266-9.722-23.535-4.884-4.884-10.96-7.924-17.329-9.115 1.011-9.648-2.172-19.656-9.55-27.034-5.739-5.738-13.123-8.932-20.693-9.571-.125-8.356-3.367-16.673-9.729-23.035-5.534-5.534-12.588-8.702-19.863-9.499.002-.136.002-.272.002-.409 0-8.908-3.452-17.267-9.722-23.536-12.979-12.977-34.093-12.975-47.069 0l-34.276 34.277c-.417.417-.821.843-1.211 1.277h-60.649v-117.877l181.969-.001-15.754 15.754c-6.269 6.268-9.721 14.626-9.722 23.534 0 8.909 3.452 17.267 9.722 23.536 6.269 6.269 14.627 9.721 23.535 9.721 8.907 0 17.266-3.453 23.534-9.721l17.883-17.883c15.292 12.839 35.734 18.542 55.754 15.063 4.697-.816 9.282-2.123 13.68-3.882l74.167 74.166c4.399 4.401 4.399 11.56.001 15.959zm93.23-40.458h-86.619l-61.472-61.471c3.863-3.99 4.169-10.334.53-14.692-3.894-4.664-10.831-5.288-15.494-1.393-6.242 5.213-13.778 8.705-21.792 10.098-16.277 2.831-32.972-3.292-43.562-15.976-1.979-2.371-4.864-3.8-7.95-3.938-3.067-.135-6.087 1.026-8.271 3.21l-25.642 25.641c-2.113 2.113-4.946 3.277-7.979 3.277-3.031 0-5.864-1.164-7.978-3.277-2.114-2.114-3.278-4.947-3.278-7.979.001-3.031 1.165-5.865 3.278-7.979l21.978-21.978c12.112-12.112 30.977-19.908 51.804-21.419h212.447z"/><g><g><path d="m283.122 133.619c-4.327 0-8.653-1.142-12.576-3.434l-14.519-7.27-15.948 7.986c-8.378 4.194-18.303 3.371-25.897-2.149-7.608-5.529-11.468-14.705-10.071-23.947l2.67-17.655-12.495-12.672c-6.583-6.684-8.861-16.376-5.949-25.299 2.918-8.946 10.487-15.446 19.752-16.962l17.514-2.901 8.187-15.792c4.31-8.343 12.819-13.524 22.21-13.524h.078c9.438.029 17.952 5.241 22.23 13.604l8.145 15.709 17.533 2.904c9.297 1.526 16.86 8.021 19.724 16.947 2.908 9.068.536 18.864-6.19 25.564l-12.246 12.42 2.669 17.655c1.463 9.729-2.719 19.14-10.909 24.569-4.265 2.828-9.089 4.247-13.912 4.247zm-27.095-34.006c1.688 0 3.375.388 4.925 1.164l19.805 9.917c.279.14.552.291.818.454 1.418.867 2.68.303 3.305-.113 1.058-.701 1.499-1.695 1.31-2.953l-3.49-23.09c-.519-3.427.609-6.899 3.043-9.367l16.183-16.412c1.31-1.305 1.02-2.76.837-3.329-.532-1.661-1.903-1.886-2.354-1.96l-22.982-3.806c-3.42-.566-6.373-2.712-7.969-5.79l-10.693-20.628c-.013-.023-.024-.047-.037-.071-.719-1.413-2.01-1.628-2.715-1.63-.004 0-.007 0-.011 0-.838 0-1.977.286-2.676 1.637l-10.729 20.694c-1.596 3.077-4.548 5.223-7.968 5.789l-22.967 3.805c-1.597.262-2.196 1.414-2.412 2.078-.26.795-.348 1.966.703 3.034l16.358 16.589c2.435 2.469 3.562 5.94 3.044 9.368l-3.493 23.1c-.231 1.531.685 2.45 1.251 2.862.681.496 1.773.944 3.117.273l20.871-10.451c1.551-.776 3.238-1.164 4.926-1.164z" fill="#0496FF"/></g><g><path d="m107.737 198.689c-2.883 0-5.79-.525-8.588-1.599-8.364-3.212-14.178-10.706-15.172-19.557l-1.771-15.787-13.655-8.013c-7.707-4.528-12.193-12.887-11.714-21.817.479-8.952 5.842-16.799 13.994-20.479l14.379-6.524 3.398-15.454c1.917-8.765 8.5-15.644 17.18-17.941 8.692-2.301 17.811.396 23.812 7.037l10.611 11.621 15.734-1.542c8.937-.885 17.494 3.225 22.331 10.736 4.911 7.625 5.145 17.222.607 25.046l-7.654 13.478 6.358 14.557c3.745 8.596 2.217 18.288-3.982 25.303-6.116 6.92-15.323 9.685-24.146 7.283l-14.079-2.89-11.866 10.534c-4.441 3.941-10.058 6.007-15.777 6.008zm4.248-105.981c-.181 0-.369.026-.567.078-1.079.286-1.254 1.085-1.319 1.386l-4.584 20.845c-.744 3.386-3.041 6.222-6.198 7.655l-19.413 8.809c-.693.313-1.057.854-1.098 1.615-.06 1.112.651 1.53.886 1.667l18.399 10.796c2.99 1.754 4.979 4.816 5.365 8.261l2.385 21.259c.079.702.48 1.198 1.194 1.472 1.056.405 1.673-.145 1.876-.325l15.982-14.189c2.593-2.302 6.116-3.247 9.515-2.549l19.867 4.078c.306.062.608.138.907.227.914.271 1.561-.18 1.938-.608.769-.87.442-1.619.303-1.938l-8.559-19.594c-1.388-3.177-1.197-6.822.516-9.836l10.424-18.352c.576-.995.23-1.79-.022-2.183-.492-.762-1.119-.808-1.675-.755l-21.231 2.082c-3.453.334-6.859-.971-9.196-3.53l-14.347-15.711c-.018-.02-.035-.04-.054-.059-.36-.401-.793-.601-1.294-.601z" fill="#0496FF"/></g><g><path d="m404.274 198.689c-5.72 0-11.335-2.066-15.775-6.006l-11.868-10.537-14.079 2.89c-8.824 2.403-18.031-.362-24.146-7.283-6.199-7.016-7.728-16.708-3.987-25.293l6.363-14.566-7.703-13.563c-4.488-7.738-4.255-17.335.656-24.96 4.837-7.511 13.415-11.624 22.346-10.734l15.72 1.541 10.611-11.621c6-6.641 15.118-9.339 23.812-7.037 8.68 2.297 15.263 9.177 17.183 17.954l3.396 15.442 14.397 6.533c8.134 3.672 13.496 11.519 13.976 20.471.479 8.93-4.007 17.289-11.707 21.813l-13.662 8.016-1.771 15.785c-.994 8.853-6.808 16.346-15.172 19.558-2.799 1.072-5.709 1.597-8.59 1.597zm-24.459-39.426c2.667 0 5.271.97 7.303 2.774l15.984 14.192c.202.178.821.726 1.874.323.714-.274 1.115-.77 1.194-1.474l2.385-21.258c.387-3.445 2.375-6.507 5.365-8.261l18.406-10.8c.228-.134.938-.552.879-1.664-.041-.761-.404-1.301-1.079-1.606l-19.432-8.817c-3.157-1.433-5.454-4.269-6.198-7.655l-4.581-20.833c-.068-.313-.243-1.113-1.322-1.398-.749-.198-1.373-.022-1.861.522-.019.02-.036.04-.054.059l-14.347 15.711c-2.338 2.56-5.742 3.865-9.196 3.53l-21.217-2.08c-.567-.058-1.197-.01-1.689.753-.253.393-.599 1.188-.071 2.097l10.473 18.438c1.713 3.014 1.903 6.659.516 9.836l-8.563 19.604c-.135.31-.461 1.059.308 1.929.378.428 1.026.878 1.938.608.299-.089.602-.165.907-.227l19.867-4.078c.734-.151 1.475-.225 2.211-.225zm10.74-73.314h.01z" fill="#0496FF"/></g></g></g><g/><g/><g/><g/><g/><g/><g/><g/><g/><g/><g/><g/><g/><g/><g/></svg>