<svg id="Capa_1" enable-background="new 0 0 512 512" viewBox="0 0 512 512" xmlns="http://www.w3.org/2000/svg" fill="#E6ECF2"><g><path d="m331.126 315.292-41.324-7.657v-72.729c0-9.037-3.582-17.471-10.086-23.748-6.502-6.274-15.067-9.544-24.107-9.231-17.834.636-31.807 15.353-31.807 33.506v85.823l-22.64 23.204c-13.774 14.22-21.36 32.955-21.36 52.752 0 28.758 16.869 55.133 42.975 67.194l9.422 4.353v32.241c0 6.075 4.925 11 11 11h94.813c6.048 0 10.961-4.882 11-10.929l.398-62.062 11.649-15.407c6.163-8.151 9.706-17.853 10.247-28.054l1.456-27.406c1.354-25.48-16.545-48.202-41.636-52.85zm19.668 51.684-1.456 27.407c-.308 5.801-2.323 11.317-5.827 15.952l-13.852 18.319c-1.43 1.891-2.21 4.193-2.226 6.563l-.351 54.783h-72.883v-28.276c0-4.289-2.493-8.187-6.387-9.986l-15.808-7.304c-18.347-8.476-30.202-27.012-30.202-47.223 0-14.053 5.385-27.352 15.134-37.417l6.003-6.152.867 36.042c.145 6.021 5.078 10.772 11.129 10.735 6.023-.072 10.868-4.976 10.868-10.999v-153.987c0-6.145 4.75-11.312 10.588-11.52 3.025-.1 5.881.985 8.047 3.075 2.169 2.093 3.363 4.905 3.363 7.917v81.877c0 5.302 3.782 9.85 8.996 10.816l50.32 9.324c14.268 2.645 24.446 15.565 23.677 30.054z"/><g fill="#0496FF"><path d="m256 0c-49.366 0-89.529 40.163-89.529 89.529s40.163 89.529 89.529 89.529 89.529-40.163 89.529-89.529-40.163-89.529-89.529-89.529zm0 157.058c-37.235 0-67.529-30.293-67.529-67.529s30.294-67.529 67.529-67.529 67.529 30.293 67.529 67.529-30.294 67.529-67.529 67.529z"/><path d="m221.19 73.74c2.746 7.125 12.664 9.08 17.93 3.57 7.629-7.608.653-20.673-9.93-18.57-6.618 1.167-10.749 8.855-8 15z"/><path d="m290.81 65.32c-3.141-8.029-14.646-9.149-19.3-1.9-4.92 7.099.523 17.243 9.151 17.109 7.574.212 13.288-8.295 10.149-15.209z"/><path d="m275.079 100.253c-5.756 3.385-12.354 5.175-19.079 5.175-6.727 0-13.324-1.79-19.079-5.175-5.236-3.079-11.979-1.332-15.059 3.904s-1.332 11.979 3.904 15.059c9.133 5.372 19.588 8.212 30.233 8.212s21.1-2.84 30.233-8.212c5.236-3.08 6.984-9.822 3.904-15.058s-9.819-6.986-15.057-3.905z"/><path d="m422.471 131.616c-49.366 0-89.528 40.163-89.528 89.529s40.162 89.529 89.528 89.529 89.529-40.163 89.529-89.529-40.163-89.529-89.529-89.529zm0 157.058c-37.235 0-67.528-30.293-67.528-67.529s30.293-67.529 67.528-67.529 67.529 30.294 67.529 67.529-30.294 67.529-67.529 67.529z"/><path d="m387.66 205.35c2.679 7.107 12.73 9.096 17.93 3.57 6.205-5.986 2.854-17.028-5.63-18.56-8.348-1.891-15.799 7.168-12.3 14.99z"/><path d="m457.28 196.94c-2.669-7.086-12.734-9.096-17.931-3.57-6.907 6.794-1.904 18.843 7.781 18.78 7.567.213 13.287-8.299 10.15-15.21z"/><path d="m452.704 238.562c-9.134-5.372-19.588-8.211-30.233-8.211s-21.099 2.839-30.232 8.211c-5.236 3.08-6.985 9.822-3.905 15.058 3.079 5.237 9.821 6.986 15.058 3.906 5.757-3.385 12.354-5.175 19.08-5.175 6.727 0 13.324 1.789 19.079 5.174 1.752 1.03 3.672 1.521 5.566 1.521 3.771 0 7.442-1.94 9.492-5.425 3.079-5.237 1.331-11.979-3.905-15.059z"/><path d="m89.529 131.616c-49.366 0-89.529 40.163-89.529 89.529s40.163 89.529 89.529 89.529 89.529-40.163 89.529-89.529-40.163-89.529-89.529-89.529zm0 157.058c-37.236 0-67.529-30.294-67.529-67.529s30.293-67.529 67.529-67.529 67.529 30.293 67.529 67.529-30.294 67.529-67.529 67.529z"/><path d="m58.77 210.29c7.083 4.918 17.242-.525 17.099-9.14.152-8.622-10.017-14.065-17.1-9.149-6.44 4.017-6.446 14.27.001 18.289z"/><path d="m104.03 205.35c2.678 7.101 12.738 9.099 17.93 3.57 6.202-5.986 2.857-17.029-5.631-18.56-8.409-1.844-15.755 7.096-12.299 14.99z"/><path d="m114.185 237.043h-49.312c-6.075 0-11 4.925-11 11s4.925 11 11 11h49.312c6.075 0 11-4.925 11-11s-4.925-11-11-11z"/></g></g><g/><g/><g/><g/><g/><g/><g/><g/><g/><g/><g/><g/><g/><g/><g/></svg>