<svg id="Capa_1" enable-background="new 0 0 512 512" viewBox="0 0 512 512" xmlns="http://www.w3.org/2000/svg" fill="#052438"><g><g><g><path d="m174.875 410.917c-.327 0-.655-.014-.987-.044l-116.129-10.328c-3.12-.277-5.974-1.872-7.846-4.384s-2.583-5.703-1.957-8.772l16.193-79.326-60.467-53.879c-2.324-2.071-3.662-5.029-3.682-8.141-.021-3.112 1.278-6.087 3.575-8.188l59.756-54.665-17.231-79.107c-.662-3.041-.006-6.219 1.807-8.749s4.611-4.172 7.703-4.523l80.5-9.122 32.587-74.125c1.251-2.848 3.65-5.032 6.602-6.012 2.951-.981 6.18-.666 8.887.867l70.492 39.91 69.963-40.829c2.686-1.567 5.909-1.926 8.875-.983 2.964.942 5.391 3.094 6.68 5.925l33.555 73.693 80.612 8.069c3.096.31 5.916 1.917 7.761 4.422 1.846 2.505 2.544 5.675 1.921 8.724l-16.192 79.326 60.467 53.878c2.323 2.071 3.661 5.029 3.682 8.141s-1.279 6.087-3.575 8.188l-59.756 54.665 17.23 79.107c.663 3.044.004 6.227-1.813 8.758-1.818 2.531-4.624 4.172-7.721 4.516l-116.137 12.893c-6.032.677-11.477-3.68-12.146-9.719-.671-6.038 3.681-11.477 9.719-12.146l104.003-11.547-15.979-73.365c-.834-3.829.432-7.812 3.323-10.457l55.437-50.714-56.097-49.984c-2.925-2.607-4.243-6.574-3.459-10.413l15.022-73.595-74.788-7.486c-3.896-.39-7.292-2.823-8.915-6.387l-31.133-68.373-64.913 37.881c-3.382 1.973-7.557 2-10.963.072l-65.404-37.029-30.235 68.774c-1.576 3.585-4.939 6.062-8.831 6.503l-74.683 8.463 15.986 73.393c.834 3.829-.432 7.812-3.323 10.457l-55.437 50.713 56.096 49.984c2.926 2.607 4.244 6.574 3.46 10.413l-14.996 73.462 103.863 9.237c6.051.538 10.521 5.88 9.982 11.931-.508 5.72-5.31 10.027-10.944 10.027z" fill="#0496FF"/></g></g><g><path d="m351.916 136.608c-8.713 0-16.82 2.631-23.578 7.132-6.223-15.846-21.666-27.1-39.7-27.1-12.444 0-23.657 5.358-31.459 13.885-7.815-8.76-19.18-14.289-31.818-14.289-18.156 0-33.689 11.406-39.827 27.423-6.733-4.45-14.793-7.05-23.451-7.05-23.511 0-42.639 19.12-42.639 42.621v136.491c0 24.485 9.095 47.929 25.61 66.015l20.65 22.612v16.76c-10.369 1.569-18.35 10.515-18.35 21.314v47.996c0 11.901 9.683 21.583 21.584 21.583h176.124c11.901 0 21.584-9.682 21.584-21.583v-47.996c0-10.799-7.981-19.745-18.349-21.314v-16.76l20.649-22.612c16.515-18.085 25.61-41.529 25.61-66.015 0-33.905 0-102.839 0-136.491 0-23.502-19.128-42.622-42.64-42.622zm-83.917 22.652c0-11.37 9.259-20.621 20.639-20.621 11.381 0 20.64 9.25 20.64 20.621v19.968 35.059h-41.278v-55.027zm-63.278-.404c0-11.37 9.259-20.621 20.639-20.621s20.639 9.25 20.639 20.621c0 .046.006.09.007.135 0 .09-.007.179-.007.269v55.027h-41.278zm-63.279 20.373c0-11.37 9.259-20.621 20.639-20.621s20.639 9.25 20.639 20.621v35.059h-16.151c-9.233 0-17.848 2.679-25.127 7.284zm203.203 310.771h-175.292v-47.163h175.292zm27.911-174.28c0 18.982-7.052 37.158-19.856 51.18l-23.526 25.763c-1.851 2.027-2.877 4.672-2.877 7.417v20.757h-138.594v-20.757c0-2.745-1.026-5.391-2.877-7.418l-23.527-25.763c-12.804-14.021-19.856-32.198-19.856-51.18v-54.327c0-13.843 11.272-25.106 25.127-25.106h141.142c6.432 0 11.664 5.227 11.664 11.65 0 15.327-12.479 27.797-27.819 27.797h-73.937c-6.075 0-11 4.925-11 11s4.925 11 11 11c17.319 0 31.41 14.08 31.41 31.385 0 6.075 4.925 11 11 11s11-4.925 11-11c0-11.72-3.799-22.57-10.229-31.385h30.756c15.853 0 29.989-7.448 39.119-19.017 6.391 3.684 13.658 5.656 21.241 5.656 7.484 0 14.52-1.943 20.64-5.343v36.691zm0-73.968c0 11.37-9.259 20.621-20.64 20.621-4.257 0-8.307-1.287-11.729-3.66.77-3.472 1.188-7.075 1.188-10.775 0-9.39-3.872-17.889-10.098-23.999v-44.71c0-11.37 9.259-20.621 20.639-20.621 11.381 0 20.64 9.25 20.64 20.621z"/></g></g><g/><g/><g/><g/><g/><g/><g/><g/><g/><g/><g/><g/><g/><g/><g/></svg>