<svg id="Capa_1" enable-background="new 0 0 512.012 512.012" viewBox="0 0 512.012 512.012" xmlns="http://www.w3.org/2000/svg" fill="#E6ECF2"><g><g fill="#0496FF"><path d="m71.486 169.557c0-6.075-4.925-11-11-11h-49.48c-6.075 0-11 4.925-11 11s4.925 11 11 11h49.479c6.076 0 11.001-4.925 11.001-11z"/><path d="m59.194 230.279-30.038 29.984c-4.3 4.292-4.306 11.257-.014 15.556 2.148 2.153 4.967 3.229 7.785 3.229 2.812 0 5.624-1.071 7.771-3.215l30.038-29.984c4.3-4.292 4.306-11.257.014-15.556-4.29-4.301-11.255-4.306-15.556-.014z"/><path d="m44.699 63.28c-4.3-4.292-11.265-4.286-15.557.014-4.292 4.299-4.286 11.264.014 15.556l30.038 29.984c2.147 2.144 4.959 3.215 7.771 3.215 2.818 0 5.637-1.077 7.785-3.229 4.292-4.299 4.286-11.264-.014-15.556z"/><path d="m340.287 401.256c-27.734 4.7-56.091 7.083-84.281 7.083s-56.547-2.383-84.281-7.083c-5.991-1.014-11.668 3.019-12.684 9.007-1.015 5.99 3.019 11.668 9.008 12.683 28.946 4.905 58.539 7.392 87.957 7.392s59.011-2.487 87.957-7.392c5.989-1.015 10.022-6.693 9.008-12.683-1.016-5.989-6.69-10.02-12.684-9.007z"/><path d="m501.006 158.557h-49.479c-6.075 0-11 4.925-11 11s4.925 11 11 11h49.479c6.075 0 11-4.925 11-11s-4.925-11-11-11z"/><path d="m452.818 230.279c-4.3-4.292-11.265-4.286-15.557.014-4.292 4.299-4.286 11.264.014 15.556l30.038 29.984c2.147 2.144 4.959 3.215 7.771 3.215 2.818 0 5.637-1.077 7.785-3.229 4.292-4.299 4.286-11.264-.014-15.556z"/><path d="m445.046 112.05c2.812 0 5.624-1.071 7.771-3.215l30.038-29.984c4.3-4.292 4.306-11.257.014-15.556-4.291-4.3-11.256-4.306-15.557-.014l-30.038 29.984c-4.3 4.292-4.306 11.257-.014 15.556 2.149 2.152 4.968 3.229 7.786 3.229z"/></g><g><path d="m507.424 450.961-41.114-29.534 5.896-48.959c.474-3.935-1.205-7.819-4.395-10.17s-7.397-2.803-11.017-1.187c-14.924 6.672-30.317 12.644-45.858 17.804l-9.914-32.241c-1.785-5.806-7.939-9.066-13.744-7.282-85.878 26.382-176.664 26.382-262.544 0-5.804-1.785-11.959 1.475-13.744 7.282l-9.914 32.24c-15.545-5.162-30.938-11.13-45.859-17.802-3.62-1.618-7.826-1.165-11.016 1.187-3.19 2.351-4.869 6.236-4.396 10.17l5.896 48.959-41.113 29.533c-3.197 2.297-4.924 6.128-4.525 10.046.397 3.917 2.859 7.323 6.453 8.93 42.273 18.901 86.74 32.987 132.164 41.868 4.117.82 8.458-.839 10.975-4.282l25.717-34.995c26.654 3.832 53.587 5.782 80.635 5.782 27.047 0 53.98-1.95 80.635-5.782l25.717 34.995c2.517 3.444 6.857 5.101 10.975 4.282 45.424-8.881 89.891-22.967 132.164-41.868 3.594-1.607 6.056-5.013 6.453-8.93s-1.33-7.748-4.527-10.046zm-371.341 37.879c-35.115-7.299-69.593-17.828-102.818-31.39l30.554-21.947c3.257-2.34 4.982-6.268 4.503-10.25l-4.401-36.547c10.109 4.072 20.369 7.817 30.69 11.233l-12.197 39.663c-.858 2.789-.572 5.804.794 8.383 1.365 2.578 3.7 4.508 6.489 5.365 20.185 6.201 40.655 11.256 61.33 15.156zm-29.375-53.396 22.115-71.915c83.442 23.536 170.922 23.536 254.366 0l22.114 71.915c-48.555 13.851-98.724 20.867-149.298 20.867s-100.742-7.016-149.297-20.867zm269.221 53.396-14.943-20.334c20.674-3.9 41.145-8.955 61.33-15.156 2.789-.857 5.124-2.787 6.489-5.365 1.366-2.579 1.652-5.594.794-8.383l-12.197-39.665c10.32-3.415 20.581-7.158 30.691-11.231l-4.401 36.547c-.479 3.982 1.246 7.909 4.503 10.25l30.554 21.947c-33.227 13.562-67.704 24.09-102.82 31.39z"/><path d="m198.524 303.185 48.876 31.247c2.717 1.749 5.829 2.623 8.942 2.623 3.111 0 6.223-.874 8.935-2.62l48.558-31.22c41.509-26.675 68.97-70.023 75.343-118.929.056-.432.087-.868.091-1.304l1.315-122.814c.001-.039.001-.079.001-.118 0-8.115-5.812-14.974-13.822-16.309l-17.416-2.896c-29.081-4.845-56.587-15.101-81.75-30.478l-12.978-7.94c-5.313-3.241-11.913-3.238-17.24.009l-12.956 7.927c-25.169 15.38-52.675 25.636-81.752 30.48l-17.425 2.897c-8.006 1.334-13.817 8.193-13.817 16.308v102.364c0 27.964 7.102 55.711 20.536 80.241 13.433 24.531 32.99 45.461 56.559 60.532zm-55.096-238.501 12.854-2.137c31.876-5.312 62.026-16.552 89.617-33.413l10.107-6.184 10.113 6.188c27.585 16.857 57.735 28.098 89.615 33.41l12.8 2.128-1.258 117.405c-5.688 42.203-29.474 79.581-65.339 102.628l-45.605 29.322-45.958-29.381c-41.92-26.807-66.946-72.502-66.946-122.235z"/><path d="m225.466 261.09 24.882 15.908c1.807 1.155 3.865 1.732 5.925 1.732 2.068 0 4.138-.583 5.949-1.748l24.569-15.797c28.141-18.085 47.234-47.396 52.384-80.416.082-.522.126-1.049.131-1.578l.88-82.169c.056-5.131-3.444-9.618-8.435-10.814-24.574-5.893-48.258-15.131-70.392-27.459-3.328-1.854-7.377-1.854-10.705 0-22.245 12.391-46.058 21.66-70.776 27.55-4.954 1.18-8.45 5.607-8.45 10.7v65.417c0 40.148 20.201 77.036 54.038 98.674zm-32.038-155.536c21.701-5.844 42.691-14.12 62.579-24.676 19.74 10.476 40.567 18.709 62.088 24.544l-.778 72.717c-4.354 26.5-19.782 49.988-42.422 64.538l-18.639 11.984-18.938-12.107c-27.482-17.574-43.89-47.533-43.89-80.141z"/></g></g><g/><g/><g/><g/><g/><g/><g/><g/><g/><g/><g/><g/><g/><g/><g/></svg>