<svg id="Layer_1" enable-background="new 0 0 512 512" viewBox="0 0 512 512" xmlns="http://www.w3.org/2000/svg" fill="#E6ECF2"><g><g fill="#0496FF"><path d="m303.451 338.428-6.142 14.802c-2.328 5.611.333 12.047 5.944 14.375 1.379.572 2.807.843 4.212.843 4.313 0 8.408-2.555 10.164-6.788l4.3-10.363 28.863 11.294-.392 27.377c-.087 6.075 4.768 11.069 10.842 11.156.054 0 .106.001.16.001 6.002 0 10.91-4.822 10.996-10.843l.318-22.275 30.935 4.978c.593.095 1.181.141 1.762.141 5.305 0 9.977-3.848 10.847-9.254.965-5.998-3.115-11.643-9.112-12.608l-42.337-6.813-41.756-16.339-21.571-31.419c-3.439-5.009-10.288-6.281-15.295-2.842-5.008 3.438-6.28 10.286-2.842 15.294z"/><path d="m164.401 350.129c1.175 0 2.371-.19 3.546-.59l40.583-13.814c2.322-.791 4.314-2.335 5.658-4.388l15.918-24.313c3.327-5.083 1.905-11.9-3.178-15.229-5.084-3.327-11.9-1.904-15.229 3.178l-13.844 21.145-36.999 12.594c-5.751 1.958-8.826 8.207-6.868 13.958 1.559 4.578 5.834 7.459 10.413 7.459z"/><path d="m413.867 451.31-26.121-13.207 25.556-14.392c5.294-2.981 7.168-9.688 4.188-14.982-2.982-5.294-9.69-7.167-14.982-4.187l-39.182 22.065-52.521-18.249-37.013-29.702-13.996-30.111 6.466-40.172c.965-5.998-3.114-11.643-9.112-12.608-5.999-.964-11.644 3.114-12.608 9.112l-6.209 38.578-78.683 49.351-34.553 7.775-30.628-13.964c-5.528-2.521-12.052-.082-14.572 5.445-2.521 5.528-.082 12.052 5.445 14.572l20.491 9.343-20.178 22.873c-4.019 4.556-3.584 11.507.972 15.526 2.092 1.845 4.688 2.751 7.273 2.751 3.046 0 6.079-1.259 8.253-3.723l27.637-31.328 29.557-6.65 16.232 21.775c2.16 2.897 5.473 4.426 8.828 4.426 2.286 0 4.592-.71 6.565-2.181 4.871-3.631 5.876-10.523 2.245-15.394l-13.375-17.942 63.837-40.04 8.265 17.781-21.907 25.626c-3.947 4.618-3.404 11.561 1.214 15.509 2.072 1.772 4.613 2.639 7.143 2.639 3.104 0 6.19-1.307 8.366-3.853l19.571-22.894 24.247 19.457-8.114 11.898-27.311 18.836c-5.001 3.449-6.259 10.299-2.811 15.3 2.135 3.095 5.57 4.756 9.065 4.756 2.153 0 4.329-.631 6.235-1.946l28.999-20c1.116-.77 2.08-1.738 2.843-2.858l10.257-15.042 50.35 17.494 43.848 22.169c1.591.804 3.285 1.186 4.954 1.186 4.018 0 7.889-2.209 9.825-6.039 2.744-5.421.571-12.038-4.851-14.779z"/></g><g><path d="m501 290h-201.334c-5.958-25.158-9.337-54.119-10.262-88.05 6.577 2.576 13.64 3.926 20.891 3.926 23.336 0 44.118-14.183 52.88-35.282 19.401-4.292 33.674-21.49 33.674-42.093 0-17.981-11.069-33.632-27.07-40.039.047-.944.07-1.89.07-2.836 0-31.567-25.683-57.25-57.25-57.25-2.319 0-4.629.139-6.918.417-10.083-17.536-29.023-28.793-49.681-28.793-20.659 0-39.598 11.257-49.68 28.793-2.29-.277-4.6-.417-6.918-.417-31.567 0-57.25 25.682-57.25 57.25 0 .946.023 1.892.07 2.836-16.001 6.407-27.07 22.058-27.07 40.039 0 20.602 14.271 37.8 33.673 42.093 8.762 21.099 29.544 35.282 52.88 35.282 7.251 0 14.314-1.349 20.891-3.925-.927 33.933-4.306 62.899-10.261 88.049h-201.335c-6.075 0-11 4.925-11 11v200c0 6.075 4.925 11 11 11h490c6.075 0 11-4.925 11-11v-200c0-6.075-4.925-11-11-11zm-333.35-132.242c-1.246-4.661-5.384-7.966-10.205-8.151-11.379-.437-20.293-9.708-20.293-21.106 0-10.704 7.999-19.721 18.605-20.975 3.128-.37 5.947-2.063 7.744-4.649 1.796-2.587 2.397-5.819 1.652-8.879-.665-2.728-1.002-5.544-1.002-8.372 0-19.437 15.813-35.25 35.25-35.25 3.418 0 6.799.489 10.05 1.454 5.558 1.651 11.45-1.302 13.453-6.749 5.078-13.805 18.378-23.081 33.096-23.081s28.018 9.276 33.096 23.082c2.003 5.446 7.893 8.399 13.454 6.748 3.249-.964 6.63-1.454 10.049-1.454 19.437 0 35.25 15.813 35.25 35.25 0 2.825-.337 5.643-1.002 8.375-.745 3.06-.143 6.292 1.653 8.877 1.797 2.586 4.615 4.278 7.742 4.648 10.607 1.254 18.606 10.271 18.606 20.975 0 11.399-8.914 20.67-20.294 21.106-4.821.185-8.959 3.49-10.205 8.151-4.11 15.378-18.114 26.118-34.055 26.118-9.194 0-17.897-3.521-24.507-9.916-2.103-2.035-4.861-3.095-7.651-3.095-1.8 0-3.613.441-5.271 1.347-5.135 2.805-10.968 4.288-16.866 4.288s-11.73-1.483-16.867-4.288c-4.225-2.308-9.462-1.6-12.921 1.749-6.609 6.395-15.313 9.916-24.507 9.916-15.939-.001-29.943-10.741-34.054-26.119zm77.06 39.616c3.706.744 7.491 1.125 11.29 1.125 3.8 0 7.584-.381 11.29-1.125.707 35.421 3.934 65.905 9.81 92.626h-42.2c5.874-26.715 9.102-57.204 9.81-92.626zm245.29 292.626h-468v-178h468z"/><path d="m245.651 152.83c1.356.172 2.71.257 4.056.257 8.19 0 16.063-3.141 22.066-8.91 4.381-4.209 4.521-11.172.311-15.553-4.209-4.382-11.173-4.52-15.553-.311-2.175 2.089-5.129 3.071-8.115 2.692-3.799-.481-6.921-3.038-8.146-6.672-.943-2.799-2.974-5.101-5.632-6.387-2.66-1.287-5.726-1.449-8.504-.453-2.2.789-4.503 1.039-6.851.742-3.93-.498-7.43-2.496-9.855-5.626-2.427-3.13-3.488-7.017-2.99-10.947.512-4.043 2.596-7.609 5.869-10.04 4.877-3.623 5.894-10.513 2.271-15.39-3.622-4.877-10.51-5.895-15.39-2.271-8.128 6.038-13.305 14.894-14.576 24.936-1.236 9.759 1.401 19.415 7.429 27.19 6.026 7.774 14.72 12.737 24.478 13.973 2.515.319 5.056.375 7.579.172 5.117 6.826 12.881 11.5 21.553 12.598z"/></g></g><g/><g/><g/><g/><g/><g/><g/><g/><g/><g/><g/><g/><g/><g/><g/></svg>