<svg id="Capa_1" enable-background="new 0 0 512.006 512.006" viewBox="0 0 512.006 512.006" xmlns="http://www.w3.org/2000/svg" fill="#E6ECF2"><g><g><path d="m501 267.003h-489.995c-6.075 0-11-4.925-11-11s4.925-11 11-11h489.995c6.075 0 11 4.925 11 11s-4.924 11-11 11z" fill="#0496FF"/></g><g><path d="m505.243 355.379c-79.033-33.017-162.889-49.758-249.24-49.758s-170.208 16.741-249.24 49.758c-5.605 2.342-8.251 8.785-5.91 14.39s8.785 8.251 14.39 5.91c76.332-31.889 157.335-48.058 240.76-48.058s164.428 16.169 240.76 48.058c1.386.579 2.822.853 4.236.853 4.304 0 8.391-2.542 10.154-6.763 2.342-5.606-.304-12.048-5.91-14.39z"/><path d="m6.763 156.627c79.033 33.017 162.889 49.758 249.24 49.758s170.208-16.741 249.24-49.758c5.605-2.342 8.251-8.785 5.91-14.39-2.342-5.605-8.785-8.251-14.39-5.91-76.332 31.889-157.335 48.058-240.76 48.058s-164.428-16.169-240.76-48.058c-5.605-2.342-12.048.303-14.39 5.91-2.342 5.605.304 12.048 5.91 14.39z"/><path d="m248.217 142.005c2.063 2.067 4.865 3.229 7.786 3.229s5.722-1.162 7.786-3.229l46.696-46.785c4.292-4.3 4.285-11.265-.015-15.557s-11.265-4.285-15.557.015l-27.91 27.963v-96.638c0-6.075-4.925-11-11-11s-11 4.925-11 11v96.639l-27.91-27.963c-4.292-4.3-11.256-4.307-15.557-.015-4.3 4.292-4.306 11.256-.015 15.557z"/><path d="m263.788 370c-2.063-2.067-4.865-3.229-7.786-3.229s-5.722 1.162-7.786 3.229l-46.696 46.785c-4.292 4.3-4.285 11.265.015 15.557 4.3 4.291 11.265 4.285 15.557-.015l27.91-27.963v96.639c0 6.075 4.925 11 11 11s11-4.925 11-11v-96.639l27.91 27.963c2.149 2.153 4.967 3.229 7.786 3.229 2.812 0 5.624-1.071 7.771-3.214 4.3-4.292 4.306-11.256.015-15.557z"/></g></g><g/><g/><g/><g/><g/><g/><g/><g/><g/><g/><g/><g/><g/><g/><g/></svg>