<svg id="Capa_1" enable-background="new 0 0 512 512" viewBox="0 0 512 512" xmlns="http://www.w3.org/2000/svg" fill="#E6ECF2"><g><g><path d="m256 512c-66.962 0-130.087-11.79-177.748-33.198-50.462-22.665-78.252-53.864-78.252-87.849 0-29.247 20.189-56.159 58.385-77.827 34.785-19.733 83.425-33.9 136.96-39.892 6.031-.674 11.479 3.671 12.155 9.708.676 6.038-.671 10.479-6.708 11.155-50.644 5.668-99.298 19.866-131.552 38.164-30.464 17.282-47.24 38.126-47.24 58.692 0 24.445 23.788 49.15 65.266 67.781 44.888 20.162 104.812 31.266 168.734 31.266s123.846-11.104 168.734-31.266c41.478-18.63 65.266-43.336 65.266-67.781 0-20.579-16.795-41.432-47.29-58.719-32.289-18.304-80.985-32.499-131.669-38.154-6.038-.674-7.385-5.114-6.713-11.152.674-6.039 6.127-10.388 12.152-9.712 53.576 5.978 102.259 20.141 137.079 39.88 38.231 21.673 58.44 48.596 58.44 77.858 0 33.984-27.79 65.184-78.252 87.849-47.66 21.407-110.785 33.197-177.747 33.197z"/></g><g><path d="m256 443.825c-43.801 0-85.11-4.482-116.318-12.62-36.665-9.561-55.256-23.104-55.256-40.252s18.591-30.691 55.256-40.252c31.208-8.138 72.518-12.62 116.318-12.62s85.11 4.482 116.318 12.62c36.665 9.561 55.256 23.104 55.256 40.252s-18.591 30.691-55.256 40.252c-31.208 8.138-72.517 12.62-116.318 12.62zm0-83.744c-41.981 0-81.319 4.229-110.768 11.908-32.061 8.36-38.807 17.509-38.807 18.964s6.746 10.604 38.807 18.964c29.448 7.679 68.786 11.908 110.768 11.908s81.319-4.229 110.768-11.908c32.061-8.36 38.807-17.509 38.807-18.964s-6.746-10.604-38.807-18.964c-29.449-7.679-68.787-11.908-110.768-11.908z"/></g><g><path d="m348.82 147.876-83.811-142.454c-1.977-3.36-5.584-5.422-9.481-5.422-.012 0-.024 0-.036 0-3.911.013-7.521 2.101-9.481 5.485l-82.668 142.663c-9.686 16.699-14.684 35.797-14.482 55.1 0 59.242 48.18 107.438 107.4 107.438 59.222 0 107.401-48.197 107.401-107.438.15-19.439-4.98-38.62-14.842-55.372zm-7.158 55.372c0 47.111-38.311 85.438-85.401 85.438s-85.4-38.328-85.4-85.438c-.198-15.434 3.77-30.718 11.518-44.07l73.223-126.363 74.259 126.217c7.873 13.374 11.949 28.697 11.801 44.216z" fill="#0496FF"/></g></g><g/><g/><g/><g/><g/><g/><g/><g/><g/><g/><g/><g/><g/><g/><g/></svg>