<svg id="Capa_1" enable-background="new 0 0 512 512" viewBox="0 0 512 512" xmlns="http://www.w3.org/2000/svg" fill="#052438"><g><g fill="#0496FF"><path d="m501 285.196h-68.82c-6.075 0-11 4.925-11 11v25.88h-77.182c-6.075 0-11 4.925-11 11v25.88h-80.609c-6.075 0-11 4.925-11 11s4.925 11 11 11h91.609c6.075 0 11-4.925 11-11v-25.88h77.182c6.075 0 11-4.925 11-11v-25.88h57.82c6.075 0 11-4.925 11-11s-4.925-11-11-11z"/><path d="m226.529 395.836h-58.895c-6.075 0-11 4.925-11 11v25.879h-77.181c-6.075 0-11 4.925-11 11v25.88h-57.453c-6.075 0-11 4.925-11 11s4.925 11 11 11h68.453c6.075 0 11-4.925 11-11v-25.88h77.182c6.075 0 11-4.925 11-11v-25.879h47.895c6.075 0 11-4.925 11-11s-4.926-11-11.001-11z"/><path d="m385.784 94.307 2.632 26.322c.325 3.249 2.076 6.186 4.781 8.016 1.839 1.245 3.99 1.89 6.165 1.89 1.022 0 2.05-.143 3.053-.433l25.413-7.344 25.846 5.631c3.192.695 6.525-.063 9.101-2.07 2.576-2.006 4.127-5.054 4.235-8.317l.869-26.438 13.342-22.842c1.646-2.819 1.956-6.225.844-9.294-1.112-3.07-3.531-5.487-6.602-6.598l-24.875-8.996-17.601-19.747c-2.173-2.438-5.3-3.792-8.58-3.675-3.263.109-6.31 1.662-8.314 4.239l-16.243 20.878-24.22 10.637c-2.989 1.313-5.241 3.886-6.146 7.023s-.369 6.515 1.462 9.218zm25.462-29.754c1.673-.734 3.137-1.875 4.259-3.317l9.844-12.654 10.667 11.968c1.216 1.364 2.752 2.404 4.471 3.025l15.076 5.452-8.086 13.844c-.921 1.578-1.436 3.36-1.496 5.187l-.526 16.023-15.665-3.413c-1.786-.389-3.641-.328-5.395.181l-15.402 4.451-1.595-15.953c-.182-1.818-.813-3.562-1.838-5.075l-8.993-13.273z"/></g><g><path d="m316.154 109.838c-3.977-7.239-10.535-12.496-18.465-14.802s-16.285-1.387-23.523 2.589l-38.515 21.158-34.452-6.529c8.365-8.838 13.512-20.752 13.512-33.853v-7.833c0-27.182-22.114-49.295-49.295-49.295-27.182 0-49.295 22.114-49.295 49.295v7.833c0 13.555 5.501 25.849 14.386 34.769-4.15 3.001-8.036 7.002-11.536 12.275-14.458 21.781-23.957 56.586-24.148 87.809l-3.794 22.927c-2.16 13.211 1.051 26.105 8.123 36.378l-33.633 142.771c-3.809 14.109 2.807 29.162 15.8 35.868 1.895.978 3.901 1.764 5.962 2.338 2.79.776 5.597 1.147 8.361 1.147 13.623 0 26.166-9 30.045-22.721l38.915-129.338 30.551 8.346 2.401 74.7c.282 15.246 11.325 28.38 26.292 31.251 2.012.386 4.07.581 6.125.581.168 0 .337-.001.506-.004 9.082-.139 17.229-3.658 22.94-9.909 5.882-6.438 8.992-15.483 8.992-26.16 0-.076-.001-.152-.002-.228l-2.221-107.107c-.261-12.604-8.555-23.491-20.639-27.088l-51.038-15.195c-.233-13.104 1.303-26.358 4.507-38.654l3.849-14.428 34.203 3.478c9.699.987 19.344-.974 27.889-5.668l44.983-24.711c14.944-8.21 20.423-27.046 12.214-41.99zm-178.033-39.269c0-15.051 12.245-27.295 27.295-27.295s27.295 12.245 27.295 27.295v7.833c0 15.051-12.245 27.295-27.295 27.295-14.762.04-27.369-12.157-27.295-27.295zm-33.53 355.15c-.021.073-.043.146-.063.219-1.363 4.894-6.454 7.767-11.348 6.404-.616-.171-1.213-.405-1.773-.694-3.848-1.986-5.795-6.466-4.629-10.652.039-.142.076-.285.11-.428l31.026-131.703c2.909 1.451 5.996 2.645 9.247 3.531l16.212 4.429zm133.6-151.169 2.218 106.994c-.001 3.552-.111 13.801-10.272 13.957-.723.01-1.444-.051-2.145-.186-4.816-.924-8.366-5.165-8.442-10.084-.001-.062-.002-.123-.004-.185l-2.665-82.902c-.155-4.825-3.438-8.985-8.095-10.258l-75.834-20.715c-13.835-3.771-22.524-17.287-20.214-31.419l1.19-7.191 119.341 35.53c2.882.858 4.859 3.454 4.922 6.459zm55.157-142.005-44.983 24.711c-4.618 2.537-9.828 3.594-15.071 3.063-15.854-1.612-43.831-4.457-59.393-6.039-6.046-.614-11.441 3.788-12.056 9.831-.615 6.044 3.787 11.441 9.831 12.056l3.021.307-2.954 11.072c-3.148 12.082-4.903 24.906-5.206 37.722l-49.665-14.786c.714-26.159 8.776-55.315 20.429-72.871 5.338-9.074 14.953-11.565 26.091-9.967 5.233.577 65.295 12.326 72.045 13.488 2.51.475 5.106.063 7.345-1.167l41.978-23.06c4.31-2.369 9.745-.789 12.114 3.523 2.366 4.315.786 9.749-3.526 12.117z"/></g></g><g/><g/><g/><g/><g/><g/><g/><g/><g/><g/><g/><g/><g/><g/><g/></svg>