<svg id="Capa_1" enable-background="new 0 0 511.974 511.974" viewBox="0 0 511.974 511.974" xmlns="http://www.w3.org/2000/svg" fill="#E6ECF2"><g><g fill="#0496FF"><path d="m331.854 324.453c-1.988 1.234-48.689 30.854-48.689 86.162 0 6.075 4.925 11 11 11s11-4.925 11-11c0-42.748 37.725-67.11 38.316-67.485 5.142-3.21 6.719-9.978 3.521-15.131-3.205-5.162-9.986-6.751-15.148-3.546z"/><path d="m180.001 324.453c-5.152-3.196-11.901-1.615-15.113 3.525-3.213 5.14-1.647 11.919 3.482 15.149.383.241 38.32 24.62 38.32 67.488 0 6.075 4.925 11 11 11s11-4.925 11-11c0-55.308-46.701-84.928-48.689-86.162z"/><path d="m354.265 199.537h-196.582c-6.075 0-11 4.925-11 11s4.925 11 11 11h196.582c6.075 0 11-4.925 11-11s-4.925-11-11-11z"/></g><g><path d="m195.757 254.143c1.244-3.637 1.891-7.496 1.891-11.453 0-9.426-3.671-18.289-10.336-24.955-6.035-6.035-13.726-9.422-21.625-10.164.194-4.132-.336-8.29-1.582-12.271 1.124-.776 2.194-1.661 3.191-2.659 6.621-6.621 10.268-15.424 10.268-24.787s-3.646-18.167-10.267-24.787l-43.257-43.256c-9.755-9.756-24.642-12.229-37.05-6.152-7.189 2.831-29.803 16.887-36.765 21.064-12.514 7.547-20.608 20.755-21.653 35.332l-3.019 42.135-9.092 9.092c-21.947 21.948-21.947 57.659 0 79.607l70.064 70.064c10.974 10.974 25.389 16.46 39.803 16.46 14.415 0 28.83-5.487 39.804-16.46l42.296-42.296c12.854-12.854 12.854-33.77 0-46.625-3.687-3.688-8.037-6.317-12.671-7.889zm-145.241-102.516c.534-7.453 4.673-14.207 11.071-18.065 6.287-3.766 28.67-17.665 35.089-20.15 3.956-1.938 8.7-1.151 11.808 1.956l43.257 43.257c2.465 2.465 3.823 5.744 3.823 9.23s-1.358 6.765-3.824 9.23c-.254.262-.641.224-.908.004-6.345-4.526-14.136-6.824-22.056-6.442-.745-7.892-4.132-15.58-10.163-21.61-13.76-13.76-36.148-13.759-49.908 0l-19.394 19.394zm142.356 141.473-42.296 42.296c-13.368 13.37-35.124 13.371-48.494 0l-70.064-70.064c-13.37-13.37-13.37-35.124 0-48.494l52.245-52.245c2.51-2.51 5.848-3.893 9.397-3.893s6.888 1.382 9.398 3.893c2.51 2.51 3.893 5.848 3.893 9.397s-1.382 6.888-3.893 9.397c.001-.001-40.329 40.329-40.33 40.33-4.295 4.296-4.295 11.261 0 15.557 2.148 2.148 4.963 3.222 7.778 3.222s5.63-1.074 7.778-3.222c.002-.002 42.751-42.755 42.771-42.774 2.51-2.51 5.848-3.893 9.397-3.893 3.55 0 6.888 1.382 9.398 3.893 5.182 5.182 5.182 13.613.013 18.782-.051.05-43.418 43.41-43.428 43.42-4.295 4.296-4.295 11.261 0 15.557 2.148 2.148 4.963 3.222 7.778 3.222s5.63-1.074 7.778-3.222c.006-.006 40.988-40.988 40.998-40.998 2.507-2.492 5.833-3.863 9.369-3.863 3.55 0 6.887 1.382 9.398 3.893 2.51 2.51 3.893 5.848 3.893 9.397s-1.382 6.887-3.89 9.395c-6.631 6.621-33.223 33.215-40.336 40.329-4.295 4.296-4.295 11.261 0 15.557 2.148 2.148 4.963 3.222 7.778 3.222s5.63-1.074 7.778-3.222l30.379-30.378c.002-.002.005-.005.006-.007 4.276-4.272 11.232-4.272 15.508.003 4.276 4.278 4.276 11.237 0 15.513z"/><path d="m495.486 201.282-9.091-9.091-3.02-42.137c-1.045-14.576-9.14-27.784-21.653-35.331l-26.486-15.973c-.271-.164-.55-.315-.834-.455l-9.453-4.64c-12.399-6.074-27.286-3.6-37.042 6.156l-43.257 43.257c-13.667 13.667-13.667 35.906 0 49.574.993.993 2.057 1.875 3.175 2.648-1.064 3.389-1.622 6.955-1.622 10.608 0 .561.014 1.119.039 1.675-7.892.745-15.578 4.132-21.608 10.163-9.827 9.828-12.636 24.056-8.424 36.4-4.641 1.571-8.999 4.203-12.691 7.895-6.228 6.227-9.656 14.506-9.656 23.312 0 8.807 3.43 17.086 9.656 23.312l42.296 42.296c10.974 10.974 25.389 16.46 39.804 16.46s28.83-5.487 39.804-16.46l70.063-70.064c10.632-10.632 16.487-24.768 16.487-39.803.001-15.035-5.855-29.171-16.487-39.802zm-135.279-42.658 43.257-43.257c3.107-3.108 7.852-3.893 11.8-1.96l9.019 4.427 26.077 15.728c6.398 3.859 10.538 10.612 11.072 18.065l1.204 16.804-19.394-19.394c-6.666-6.666-15.528-10.336-24.955-10.336-9.426 0-18.288 3.671-24.953 10.336-5.87 5.871-9.418 13.445-10.181 21.609-7.92-.377-15.706 1.923-22.048 6.45-.266.217-.651.245-.899-.011-5.089-5.09-5.089-13.371.001-18.461zm119.723 106.708-70.063 70.064c-13.37 13.37-35.126 13.37-48.494 0l-42.297-42.297c-2.071-2.071-3.212-4.826-3.212-7.755s1.141-5.684 3.213-7.756c2.138-2.138 4.946-3.208 7.755-3.208 2.807 0 5.615 1.068 7.752 3.203.002.002 30.386 30.385 30.386 30.385 2.148 2.148 4.963 3.222 7.778 3.222s5.631-1.074 7.778-3.222c4.296-4.296 4.296-11.261 0-15.557-7.27-7.269-33.563-33.566-40.334-40.325-5.182-5.182-5.182-13.614 0-18.796 5.175-5.175 13.59-5.182 18.774-.021.003.003 40.98 40.981 40.989 40.99 2.148 2.148 4.963 3.222 7.778 3.222 2.814 0 5.631-1.074 7.778-3.222 4.296-4.296 4.296-11.261 0-15.557 0 0-43.313-43.307-43.414-43.407-2.511-2.51-3.894-5.848-3.894-9.398s1.383-6.887 3.894-9.398c2.51-2.51 5.848-3.893 9.397-3.893s6.888 1.382 9.393 3.888c.052.053 42.775 42.779 42.775 42.779 2.148 2.148 4.963 3.222 7.778 3.222 2.814 0 5.631-1.074 7.778-3.222 4.296-4.296 4.296-11.261 0-15.557l-40.359-40.36c-2.491-2.507-3.863-5.832-3.863-9.367 0-3.55 1.383-6.888 3.894-9.398 2.51-2.51 5.848-3.892 9.397-3.892s6.888 1.382 9.397 3.893l52.244 52.245c6.477 6.477 10.044 15.087 10.044 24.247.002 9.161-3.566 17.771-10.042 24.248z"/></g></g><g/><g/><g/><g/><g/><g/><g/><g/><g/><g/><g/><g/><g/><g/><g/></svg>