<svg id="Layer_1" enable-background="new 0 0 511.946 511.946" viewBox="0 0 511.946 511.946" xmlns="http://www.w3.org/2000/svg" fill="#E6ECF2"><g><g><g><path d="m123.911 367.944c-36.552.001-62.419-12.037-79.455-24.587-28.11-20.709-38.658-47.045-39.093-48.156-1.406-3.59-.831-7.654 1.518-10.712 2.348-3.058 6.128-4.664 9.956-4.231 15.725 1.771 26.165-1.63 32.38-5.053-84.752-93.175-39.309-187.054-15.813-213.347 2.896-3.242 7.429-4.474 11.568-3.143 4.138 1.33 7.105 4.972 7.571 9.293 1.993 18.485 8.993 32.221 21.279 41.601 4.109-29.932 18.524-55.674 41.61-73.715 30.523-23.852 73.824-31.846 115.833-21.38 4.365 1.087 7.628 4.723 8.239 9.179.611 4.457-1.553 8.836-5.464 11.059-84.189 47.834-78.876 145.311-55.751 195.516 1.569 3.406 1.294 7.376-.728 10.534s-5.513 5.068-9.263 5.068c-19.718 0-38.447-5.23-54.531-15.017 7.111 69.876 75.113 105.663 75.868 106.051 3.964 2.037 6.307 6.265 5.933 10.706s-3.391 8.218-7.64 9.563c-24.237 7.68-45.5 10.77-64.017 10.771zm-89.342-65.728c5.21 7.338 12.958 16.245 23.781 24.045 26.285 18.946 59.708 24.327 99.584 16.089-7.627-5.784-16.478-13.354-25.197-22.734-30.208-32.497-44.417-71.335-41.095-112.316.346-4.273 3.145-7.956 7.169-9.436 4.026-1.479 8.542-.485 11.573 2.546 11.224 11.224 25.442 18.708 41.106 21.822-10.314-30.762-12.954-65.976-6.934-97.428 5.263-27.491 19.152-63.801 54.541-92.74-26.252-.919-51.262 6.43-70.119 21.166-22.486 17.572-34.372 43.319-34.372 74.458 0 3.671-1.832 7.101-4.883 9.143-3.052 2.042-6.92 2.426-10.314 1.025-20.253-8.362-34.635-22.635-42.484-41.907-18.487 35.879-31.805 104.446 36.209 172.461 3.871 3.871 4.306 10 1.021 14.379-.602.803-12.615 16.355-39.586 19.427z"/></g><g><path d="m388.037 367.944c-18.519 0-39.776-3.089-64.018-10.769-4.249-1.346-7.265-5.123-7.639-9.563-.374-4.441 1.969-8.669 5.933-10.706.195-.102 21.382-11.212 41.26-32.783 20.447-22.188 32.051-46.764 34.654-73.296-16.094 9.805-34.84 15.045-54.577 15.045-3.75 0-7.241-1.91-9.263-5.068s-2.297-7.128-.728-10.534c23.125-50.206 28.438-147.682-55.751-195.516-3.911-2.222-6.075-6.602-5.464-11.059s3.874-8.092 8.239-9.179c42.007-10.464 85.309-2.472 115.833 21.38 23.086 18.041 37.501 43.783 41.61 73.714 12.286-9.38 19.285-23.116 21.279-41.601.466-4.321 3.433-7.963 7.571-9.293s8.672-.098 11.567 3.143c23.495 26.292 68.929 120.164-15.799 213.333 6.241 3.445 16.67 6.833 32.366 5.067 3.832-.431 7.608 1.174 9.956 4.231 2.348 3.058 2.924 7.122 1.518 10.712-.436 1.111-10.983 27.447-39.093 48.156-17.033 12.548-42.907 24.585-79.454 24.586zm-34.023-25.594c39.876 8.238 73.298 2.857 99.583-16.089 10.821-7.799 18.568-16.703 23.78-24.045-26.975-3.07-38.982-18.624-39.585-19.427-3.285-4.379-2.849-10.508 1.021-14.379 68.014-68.014 54.696-136.582 36.21-172.461-7.85 19.271-22.231 33.545-42.484 41.907-3.393 1.401-7.263 1.017-10.314-1.025s-4.883-5.471-4.883-9.143c0-31.139-11.886-56.887-34.372-74.458-18.856-14.735-43.867-22.083-70.119-21.166 35.388 28.938 49.277 65.249 54.54 92.74 6.021 31.452 3.381 66.666-6.933 97.428 15.663-3.115 29.882-10.598 41.105-21.822 3.033-3.031 7.55-4.025 11.573-2.546 4.024 1.479 6.823 5.162 7.169 9.436 3.323 40.981-10.887 79.819-41.095 112.316-8.719 9.38-17.569 16.95-25.196 22.734z"/></g></g><g><g><path d="m236.954 316.439c-2.847 0-5.663-1.104-7.782-3.222-3.521-3.521-4.237-8.967-1.748-13.278 19.388-33.581 17.804-66.435 6.219-81.532-6.198-8.077-14.772-10.715-25.488-7.846-3.302.885-6.83.184-9.543-1.898s-4.304-5.307-4.304-8.727c0-23.38 10.22-39.503 29.003-46.213 2.722-15.371 12.7-22.646 21.271-26.084 10.831-4.345 24.035-4.517 35.684-4.669 8.955-.117 19.105-.25 23.101-2.556 2.701-1.559 5.936-1.899 8.902-.934 2.966.964 5.383 3.143 6.649 5.993 4.145 9.326 4.893 21.239 2 31.868-2.862 10.517-9.063 19.239-17.772 25.19 1.804 26.379-.902 49.854-8.064 69.869-9.63 26.914-27.338 47.964-52.631 62.567-1.717.989-3.614 1.472-5.497 1.472zm-18.93-128.948c13.071.542 24.668 6.568 33.074 17.522 9.073 11.824 13.713 28.676 13.066 47.452-.181 5.231-.758 10.525-1.721 15.837 15.962-22.369 21.94-52.412 18.213-90.797-.454-4.68 2.116-9.131 6.397-11.077 10.513-4.778 13.755-14.474 13.635-22.581-6.226.937-13.072 1.026-20.136 1.118-29.573.386-35.958 3.464-35.958 17.334 0 5.267-3.734 9.795-8.905 10.799-6.797 1.32-14.351 4.273-17.665 14.393z" fill="#0496FF"/></g><g><path d="m172.032 501.942c-2.913 0-5.752-1.159-7.848-3.292-2.779-2.829-3.82-6.935-2.725-10.746 2.347-8.167 3.639-16.826 4.121-23.938-15.999-2.111-29.104-10.871-37.604-25.386-1.734-2.961-1.987-6.562-.683-9.736 1.303-3.174 4.014-5.559 7.328-6.447 53.086-14.225 72.756-44.581 78.749-56.972 1.936-4.003 6.092-6.454 10.531-6.192 4.439.254 8.289 3.156 9.756 7.354 11.765 33.67 10.939 67.301-2.264 92.271-11.111 21.011-30.653 35.779-56.515 42.709-.94.252-1.897.375-2.846.375zm4.643-59.582c5.745 0 10.577 4.457 10.965 10.267.407 6.091.071 13.392-.884 20.875 11.121-5.942 19.559-14.283 25.188-24.929 7.463-14.113 9.725-32.205 6.753-51.661-11.846 13.993-31.083 30.196-61.442 41.376 5.201 3.172 11.456 4.545 18.728 4.093.232-.013.463-.021.692-.021z" fill="#0496FF"/></g><g><path d="m339.916 501.942c-.949 0-1.905-.123-2.847-.375-25.861-6.929-45.404-21.698-56.515-42.709-13.204-24.969-14.029-58.601-2.265-92.271 1.467-4.198 5.316-7.1 9.756-7.354 4.438-.252 8.595 2.19 10.531 6.192 5.993 12.391 25.663 42.747 78.749 56.972 3.314.888 6.025 3.272 7.329 6.447 1.303 3.174 1.051 6.775-.684 9.736-8.499 14.514-21.607 23.274-37.604 25.386.482 7.112 1.774 15.771 4.122 23.937 1.095 3.811.054 7.917-2.724 10.746-2.095 2.135-4.935 3.293-7.848 3.293zm-46.667-105.029c-2.971 19.457-.709 37.548 6.754 51.661 5.629 10.646 14.067 18.986 25.188 24.929-.955-7.483-1.292-14.785-.884-20.875.404-6.041 5.599-10.618 11.657-10.245 7.269.455 13.527-.921 18.728-4.093-30.359-11.182-49.596-27.384-61.443-41.377z" fill="#0496FF"/></g></g></g><g/><g/><g/><g/><g/><g/><g/><g/><g/><g/><g/><g/><g/><g/><g/></svg>