<svg id="Layer_1" enable-background="new 0 0 512 512" viewBox="0 0 512 512" xmlns="http://www.w3.org/2000/svg" fill="#E6ECF2"><g><path d="m501 217.732h-88.622c-4.606-10.185-10.966-19.37-18.947-27.352-17.529-17.529-40.833-27.183-65.619-27.183-23.714 0-49.707 10.113-72.056 27.9-4.225-3.218-8.441-6.169-12.589-8.809-19.9-12.668-39.52-19.091-58.313-19.091-24.786 0-48.089 9.654-65.619 27.183-8.04 8.04-14.423 17.296-18.978 27.352h-89.257c-6.075 0-11 4.925-11 11v54.535c0 6.075 4.925 11 11 11h89.256c4.555 10.056 10.938 19.311 18.978 27.352 17.529 17.529 40.833 27.183 65.619 27.183 14.44 0 29.446-3.796 44.601-11.283 5.008-2.474 10.138-5.429 15.297-8.811 32.579 13.337 60.499 20.094 83.061 20.094 24.786 0 48.09-9.654 65.619-27.183 7.979-7.979 14.34-17.165 18.948-27.352h88.621c6.075 0 11-4.925 11-11v-54.535c0-6.075-4.925-11-11-11zm-173.188-32.534c18.91 0 36.689 7.365 50.063 20.739 3.62 3.62 6.802 7.563 9.526 11.795h-54.151c-16.93 0-32.091 5.947-46.351 18.18-6.933 5.947-13.064 12.826-17.946 20.104-.09-.038-.179-.076-.269-.115-9.283-3.959-19.069-8.537-29.295-13.701 7.007-11.398 16.054-21.98 26.472-30.918 19.324-16.576 41.904-26.084 61.951-26.084zm-305.812 87.069v-32.535h71.464c-.935 5.318-1.413 10.756-1.413 16.268 0 5.511.478 10.949 1.413 16.267zm162.853 54.534c-18.909 0-36.688-7.365-50.063-20.739-13.374-13.374-20.739-31.153-20.739-50.062 0-18.91 7.365-36.689 20.739-50.063 13.375-13.374 31.154-20.739 50.063-20.739 14.542 0 30.187 5.265 46.5 15.65 2.621 1.668 5.283 3.486 7.965 5.437-7.411 7.911-13.97 16.562-19.434 25.649-5.248-2.87-10.591-5.875-16.024-9.011-18.239-10.479-41.604-4.168-52.084 14.069-5.077 8.835-6.41 19.119-3.753 28.956s8.986 18.051 17.802 23.117c19.15 11.056 37.263 20.643 54.085 28.629-.067.033-.134.067-.201.1-12.097 5.977-23.825 9.007-34.856 9.007zm193.021-20.739c-13.374 13.375-31.153 20.74-50.063 20.74-20.953 0-48.013-7.011-80.43-20.839-21.057-8.982-44.795-21.077-70.575-35.961-3.74-2.149-6.419-5.626-7.544-9.791-1.125-4.164-.561-8.517 1.589-12.257 2.985-5.194 8.438-8.103 14.033-8.103 2.721 0 5.476.688 7.996 2.136 24.196 13.97 46.796 25.46 67.172 34.151 28.6 12.199 50.765 18.129 67.759 18.129h59.589c-2.724 4.233-5.907 8.176-9.526 11.795zm112.126-33.795h-162.188c-9.469 0-22.273-2.75-37.667-8.044 3.214-4.146 6.957-8.077 11.079-11.613 10.381-8.906 20.258-12.877 32.026-12.877h156.75z"/><g><g><path d="m256 117c-6.075 0-11-4.925-11-11v-20c0-6.075 4.925-11 11-11s11 4.925 11 11v20c0 6.076-4.925 11-11 11z" fill="#0496FF"/></g><g><path d="m256 437c-6.075 0-11-4.925-11-11v-20c0-6.075 4.925-11 11-11s11 4.925 11 11v20c0 6.075-4.925 11-11 11z" fill="#0496FF"/></g><g><path d="m328.489 136.429c-1.866 0-3.757-.476-5.49-1.476-5.261-3.038-7.064-9.765-4.026-15.026l10-17.321c3.039-5.261 9.765-7.063 15.026-4.026 5.261 3.038 7.064 9.765 4.026 15.026l-10 17.321c-2.037 3.529-5.734 5.502-9.536 5.502z" fill="#0496FF"/></g><g><path d="m173.49 414.896c-1.866 0-3.757-.476-5.49-1.476-5.261-3.038-7.064-9.765-4.026-15.026l10-17.321c3.038-5.261 9.766-7.063 15.026-4.026 5.261 3.038 7.064 9.765 4.026 15.026l-10 17.321c-2.037 3.529-5.735 5.502-9.536 5.502z" fill="#0496FF"/></g><g><path d="m183.511 136.429c-3.802 0-7.499-1.973-9.537-5.502l-10-17.321c-3.038-5.261-1.235-11.989 4.026-15.026 5.26-3.037 11.988-1.235 15.026 4.026l10 17.321c3.038 5.261 1.235 11.989-4.026 15.026-1.731 1-3.623 1.476-5.489 1.476z" fill="#0496FF"/></g><g><path d="m338.51 414.896c-3.802 0-7.499-1.973-9.537-5.502l-10-17.321c-3.038-5.261-1.235-11.989 4.026-15.026 5.262-3.037 11.989-1.235 15.026 4.026l10 17.321c3.038 5.261 1.235 11.989-4.026 15.026-1.732 1-3.623 1.476-5.489 1.476z" fill="#0496FF"/></g></g></g><g/><g/><g/><g/><g/><g/><g/><g/><g/><g/><g/><g/><g/><g/><g/></svg>