<svg id="Layer_1" enable-background="new 0 0 512.008 512.008" viewBox="0 0 512.008 512.008" xmlns="http://www.w3.org/2000/svg" fill="#E6ECF2"><g><g fill="#0496FF"><path d="m262.398 35.616c25.846-6.441 36.367-3.08 48.555.812 10.278 3.284 21.553 6.888 40.55 4.918l-8.691 14.708c-2.075 3.512-2.037 7.884.1 11.358l13.061 21.238c-18.63 3.194-27.899.233-38.324-3.096-13.266-4.237-28.299-9.038-59.394-1.492-5.904 1.433-9.529 7.38-8.096 13.284 1.432 5.903 7.38 9.528 13.284 8.096 25.096-6.091 35.484-2.773 47.512 1.069 8.253 2.636 17.148 5.478 30.165 5.478 9.231 0 20.535-1.43 35.15-5.375 3.35-.904 6.076-3.336 7.356-6.561s.964-6.865-.854-9.821l-17.646-28.695 17.746-30.03c2.276-3.851 1.993-8.696-.715-12.256-2.71-3.561-7.306-5.127-11.622-3.959-28.967 7.819-40.053 4.28-52.888.18-13.435-4.292-28.661-9.155-60.568-1.202-5.895 1.469-9.482 7.439-8.013 13.333 1.468 5.895 7.443 9.482 13.332 8.013z"/><path d="m487.23 210.035c-2.248-9.747-7.938-18.323-16.354-24.337-8.849-6.324-19.765-8.9-30.323-7.364-10.907-10.972-25.62-17.143-41.343-17.143-28.982 0-53.101 21.219-57.634 48.939-14.153 4.377-24.465 17.587-24.465 33.16 0 19.133 15.566 34.7 34.699 34.7h125.497c19.133 0 34.699-15.566 34.699-34.7.002-15.687-10.461-28.977-24.776-33.255zm-9.921 45.954h-125.497c-7.002 0-12.699-5.697-12.699-12.7s5.697-12.7 12.699-12.7c6.075 0 11-4.925 11-11 0-20.07 16.329-36.399 36.399-36.399 11.323 0 21.808 5.138 28.767 14.097 2.883 3.71 7.804 5.184 12.25 3.659 6.081-2.082 12.589-1.116 17.857 2.649 5.227 3.735 8.224 9.565 8.224 15.994 0 6.075 4.925 11 11 11 7.002 0 12.699 5.697 12.699 12.7s-5.697 12.7-12.699 12.7z"/><path d="m381.879 407.534-58.748 32.32-54.72-46.579c-4.021-3.423-9.909-3.505-14.026-.193l-57.628 46.373-51.676-35.429c-5.011-3.436-11.858-2.159-15.292 2.852-3.436 5.011-2.159 11.857 2.852 15.293l58.421 40.053c1.88 1.289 4.052 1.928 6.219 1.928 2.448 0 4.891-.815 6.897-2.43l56.906-45.792 53.567 45.598c3.481 2.962 8.43 3.464 12.432 1.261l65.399-35.979c5.323-2.928 7.265-9.617 4.336-14.94-2.928-5.324-9.62-7.266-14.939-4.336z"/></g><path d="m497.192 494.604-51.858-72.492c-1.482-2.072-3.638-3.566-6.1-4.225l-44.104-11.818-128.121-128.121v-266.944c0-6.075-4.926-11-11-11-6.075 0-11 4.925-11 11v152.88c-1.461-.628-2.977-1.156-4.539-1.578-8.615-2.327-17.618-1.161-25.373 3.296l-32.641 18.845-26.366-15.222c7.449-8.177 11.996-19.042 11.996-30.948 0-25.364-20.636-46-46-46-24.711 0-44.934 19.587-45.958 44.051l-10.307-38.465c-2.308-8.637-7.841-15.859-15.581-20.334-7.74-4.476-16.759-5.67-25.396-3.361-8.636 2.307-15.859 7.84-20.334 15.581-4.475 7.739-5.669 16.758-3.361 25.396 0 .003.001.005.002.008l12.734 47.526c1.529 5.722 4.523 10.928 8.65 15.046l32.3 32.3v220.979c0 6.025 1.488 11.709 4.116 16.704l-43.181 45.745c-3.015 3.193-3.841 7.874-2.102 11.906 1.739 4.033 5.709 6.645 10.101 6.645h464.477c4.122 0 7.897-2.304 9.782-5.97s1.563-8.078-.836-11.43zm-275.639-191.624c-2.232-17.724-17.398-31.477-35.717-31.477h-16.501v-17.669c10.202 4.363 21.848 3.407 31.319-2.753l44.354-25.608v52.659zm-70.526 74.717-24.191 25.628v-59.821h23v25c0 3.176.415 6.258 1.191 9.193zm20.809-9.193v-36c0-6.075-4.925-11-11-11h-45c-6.075 0-11 4.925-11 11v98.5c0 7.72-6.28 14-14 14s-14-6.28-14-14v-137.5h109.001c7.72 0 14 6.28 14 14v61c0 7.72-6.28 14-14 14s-14.001-6.28-14.001-14zm-49.75-254.227c13.234 0 24 10.766 24 24s-10.766 24-24 24-24-10.766-24-24 10.766-24 24-24zm-84.002 47.883c-1.396-1.393-2.414-3.178-2.946-5.168l-12.735-47.528c-.791-2.959-.381-6.05 1.152-8.702 1.534-2.652 4.008-4.548 6.969-5.339 2.959-.791 6.051-.381 8.703 1.152s4.548 4.008 5.341 6.976l11.161 41.651c.5 1.865 1.481 3.565 2.847 4.931l31.298 31.298c2.063 2.063 4.861 3.222 7.778 3.222h38.183c2.308 0 4.531.678 6.428 1.961.216.146.437.284.663.415l34.03 19.647c3.403 1.965 7.597 1.965 11 0l38.122-22.009c2.641-1.518 5.715-1.915 8.654-1.121 2.94.794 5.396 2.686 6.913 5.327s1.916 5.714 1.122 8.654-2.686 5.396-5.346 6.924l-48.042 27.737c-.204.118-.404.242-.601.373-3.663 2.441-8.3 2.589-12.116.38l-12.826-7.405c-3.403-1.964-7.596-1.965-11 0-3.403 1.965-5.5 5.596-5.5 9.526v36.442h-70.5v-66.035c0-2.917-1.159-5.715-3.222-7.778zm11.195 327.844 25.352-26.858c4.873 2.467 10.379 3.858 16.204 3.858 18.259 0 33.386-13.664 35.695-31.304l36.87-39.062c6.158 4.92 13.959 7.866 22.436 7.866 19.851 0 36-16.149 36-36v-33.772l34.4-36.444 125.421 125.421c1.365 1.365 3.066 2.347 4.932 2.847l43.146 11.561 37.118 51.887z"/></g><g/><g/><g/><g/><g/><g/><g/><g/><g/><g/><g/><g/><g/><g/><g/></svg>