<svg id="Capa_1" enable-background="new 0 0 512 512" viewBox="0 0 512 512" xmlns="http://www.w3.org/2000/svg" fill="#E6ECF2"><g><g><path d="m462.106 0h-412.212c-16.478 0-29.884 13.406-29.884 29.884v412.212c0 16.478 13.406 29.884 29.884 29.884h26.321v1.06c0 21.483 17.478 38.96 38.96 38.96h151.839c21.482 0 38.96-17.478 38.96-38.96v-1.06h156.133c16.478 0 29.884-13.406 29.884-29.884v-412.212c-.001-16.478-13.407-29.884-29.885-29.884zm-178.132 473.04c0 9.352-7.608 16.96-16.96 16.96h-151.839c-9.352 0-16.96-7.608-16.96-16.96v-275.689c0-9.352 7.608-16.96 16.96-16.96h151.839c9.352 0 16.96 7.608 16.96 16.96zm186.016-30.944c0 4.347-3.537 7.884-7.884 7.884h-156.132v-252.629c0-21.483-17.478-38.96-38.96-38.96h-151.839c-21.482 0-38.96 17.478-38.96 38.96v252.628h-26.321c-4.347 0-7.884-3.537-7.884-7.884v-316.1h427.98zm0-338.1h-427.98v-74.112c0-4.347 3.537-7.884 7.884-7.884h412.213c4.347 0 7.884 3.537 7.884 7.884v74.112z"/><path d="m184.777 205.161h-30.352c-6.075 0-11 4.925-11 11s4.925 11 11 11h30.352c6.075 0 11-4.925 11-11s-4.924-11-11-11z"/><circle cx="227.77" cy="216.17" r="11"/></g><g fill="#0496FF"><path d="m374.921 289.042c-4.297-4.296-11.26-4.296-15.557 0-4.296 4.296-4.296 11.261 0 15.557l19.597 19.597h-167.975l19.597-19.597c4.296-4.296 4.296-11.261 0-15.557-4.296-4.295-11.261-4.296-15.557 0l-38.375 38.375c-2.062 2.063-3.222 4.861-3.222 7.778s1.159 5.715 3.222 7.778l38.375 38.375c2.148 2.148 4.963 3.222 7.778 3.222s5.63-1.074 7.778-3.222c4.296-4.296 4.296-11.261 0-15.557l-19.595-19.595h167.973l-19.595 19.595c-4.296 4.296-4.296 11.261 0 15.557 2.148 2.148 4.963 3.222 7.778 3.222 2.814 0 5.631-1.074 7.778-3.222l38.375-38.375c2.062-2.063 3.222-4.861 3.222-7.778s-1.159-5.715-3.222-7.778z"/><circle cx="342.05" cy="62.881" r="11"/><circle cx="386.41" cy="62.881" r="11"/><circle cx="430.771" cy="62.881" r="11"/></g></g><g/><g/><g/><g/><g/><g/><g/><g/><g/><g/><g/><g/><g/><g/><g/></svg>