<svg id="Capa_1" enable-background="new 0 0 512 512" height="512" viewBox="0 0 512 512" width="512" xmlns="http://www.w3.org/2000/svg" fill="#052438"><g><g id="Browser_1_"><path d="m501 160.257h-490c-6.075 0-11-4.925-11-11s4.925-11 11-11h490c6.075 0 11 4.925 11 11 0 6.076-4.925 11-11 11z" fill="#0496FF"/><path d="m470.502 495.734h-429.004c-22.882 0-41.498-18.615-41.498-41.498v-396.472c0-22.882 18.616-41.498 41.498-41.498h429.004c22.882 0 41.498 18.616 41.498 41.498v396.473c0 22.882-18.616 41.497-41.498 41.497zm-429.004-457.468c-10.751 0-19.498 8.747-19.498 19.498v396.473c0 10.751 8.747 19.498 19.498 19.498h429.004c10.751 0 19.498-8.747 19.498-19.498v-396.473c0-10.751-8.747-19.498-19.498-19.498z"/><path d="m440.004 99.261h-185.021c-6.075 0-11-4.925-11-11s4.925-11 11-11h185.021c6.075 0 11 4.925 11 11s-4.925 11-11 11z"/><g><g><path d="m226.802 387.927c-1.639 0-3.304-.368-4.872-1.145-5.444-2.696-7.673-9.295-4.977-14.739l60.077-121.331c2.695-5.443 9.293-7.673 14.738-4.977 5.444 2.696 7.673 9.295 4.977 14.739l-60.077 121.331c-1.919 3.876-5.816 6.122-9.866 6.122z" fill="#0496FF"/><path d="m163.913 387.975c-2.815 0-5.63-1.074-7.778-3.222l-60.69-60.691c-4.296-4.296-4.296-11.261 0-15.557l60.69-60.691c4.297-4.295 11.26-4.296 15.557 0 4.296 4.296 4.296 11.261 0 15.557l-52.912 52.913 52.912 52.913c4.296 4.296 4.296 11.261 0 15.557-2.148 2.147-4.965 3.221-7.779 3.221z"/><path d="m348.087 387.975c-2.815 0-5.63-1.074-7.778-3.222-4.296-4.296-4.296-11.261 0-15.557l52.912-52.913-52.912-52.913c-4.296-4.296-4.296-11.261 0-15.557 4.296-4.295 11.261-4.295 15.557 0l60.69 60.691c4.296 4.296 4.296 11.261 0 15.557l-60.69 60.691c-2.149 2.149-4.964 3.223-7.779 3.223z"/></g></g></g><path d="m195 100.28c-12.92.288-14.887-19.552-2.15-21.79 15.579-2.78 17.957 21.483 2.15 21.79z"/><path d="m132.99 100.28c-12.921.298-14.889-19.56-2.15-21.79 15.561-2.803 17.952 21.496 2.15 21.79z"/><path d="m70.979 100.28c-15.809-.302-13.408-24.591 2.151-21.79 12.736 2.23 10.772 22.089-2.151 21.79z"/></g></svg>