<svg id="Capa_1" enable-background="new 0 0 512 512" viewBox="0 0 512 512" xmlns="http://www.w3.org/2000/svg" fill="#052438"><g><g fill="#0496FF"><path d="m338.942 303.338c0-6.075-4.925-11-11-11h-44.78c-6.075 0-11 4.925-11 11v44.781c0 6.075 4.925 11 11 11s11-4.925 11-11v-18.224l64.946 64.946c2.148 2.148 4.963 3.222 7.778 3.222s5.63-1.074 7.778-3.222c4.296-4.296 4.296-11.261 0-15.557l-64.947-64.947h18.225c6.076.001 11-4.923 11-10.999z"/><path d="m228.838 359.12c6.075 0 11-4.925 11-11v-44.781c0-6.075-4.925-11-11-11h-44.78c-6.075 0-11 4.925-11 11s4.925 11 11 11h18.225l-64.947 64.947c-4.296 4.296-4.296 11.261 0 15.557 2.148 2.148 4.963 3.222 7.778 3.222 2.814 0 5.631-1.074 7.778-3.222l64.946-64.946v18.224c0 6.074 4.925 10.999 11 10.999z"/><path d="m374.665 156.598c-4.297-4.296-11.26-4.296-15.557 0l-64.946 64.946v-18.224c0-6.075-4.925-11-11-11s-11 4.925-11 11v44.781c0 6.075 4.925 11 11 11h44.78c6.075 0 11-4.925 11-11s-4.925-11-11-11h-18.224l64.947-64.947c4.296-4.296 4.296-11.26 0-15.556z"/><path d="m239.838 203.32c0-6.075-4.925-11-11-11s-11 4.925-11 11v18.224l-64.946-64.946c-4.297-4.296-11.26-4.296-15.557 0-4.296 4.296-4.296 11.261 0 15.557l64.947 64.947h-18.224c-6.075 0-11 4.925-11 11s4.925 11 11 11h44.78c6.075 0 11-4.925 11-11z"/><path d="m93.502 123.702h324.996c6.075 0 11-4.925 11-11s-4.925-11-11-11h-324.996c-6.075 0-11 4.925-11 11s4.925 11 11 11z"/><path d="m418.498 428.698h-324.996c-6.075 0-11 4.925-11 11s4.925 11 11 11h324.996c6.075 0 11-4.925 11-11s-4.925-11-11-11z"/></g><g><path d="m264.816 46.971h-62.999c-6.075 0-11 4.925-11 11s4.925 11 11 11h62.999c6.075 0 11-4.925 11-11s-4.924-11-11-11z"/><path d="m391.537 0h-271.074c-21.484 0-38.961 17.478-38.961 38.96v434.08c0 21.483 17.478 38.96 38.961 38.96h271.074c21.483 0 38.961-17.478 38.961-38.96v-434.08c0-21.482-17.477-38.96-38.961-38.96zm16.961 473.04c0 9.352-7.608 16.96-16.961 16.96h-271.074c-9.353 0-16.961-7.608-16.961-16.96v-434.08c0-9.352 7.608-16.96 16.961-16.96h271.074c9.353 0 16.961 7.608 16.961 16.96z"/><circle cx="310.18" cy="57.972" r="11"/></g></g><g/><g/><g/><g/><g/><g/><g/><g/><g/><g/><g/><g/><g/><g/><g/></svg>