<svg id="Capa_1" enable-background="new 0 0 512 512" height="512" viewBox="0 0 512 512" width="512" xmlns="http://www.w3.org/2000/svg" fill="#E6ECF2"><g id="Landing_Page"><path d="m164.506 451.004h-60.995c-6.075 0-11-4.925-11-11v-60.996c0-6.075 4.925-11 11-11h60.995c6.075 0 11 4.925 11 11v60.996c0 6.075-4.925 11-11 11zm-49.995-22h38.995v-38.996h-38.995z"/><path d="m286.498 451.004h-60.996c-6.075 0-11-4.925-11-11v-60.996c0-6.075 4.925-11 11-11h60.996c6.075 0 11 4.925 11 11v60.996c0 6.075-4.925 11-11 11zm-49.996-22h38.996v-38.996h-38.996z"/><path d="m408.489 451.004h-60.995c-6.075 0-11-4.925-11-11v-60.996c0-6.075 4.925-11 11-11h60.995c6.075 0 11 4.925 11 11v60.996c0 6.075-4.924 11-11 11zm-49.995-22h38.995v-38.996h-38.995z"/><path d="m408.489 329.013h-304.978c-6.075 0-11-4.925-11-11v-60.996c0-6.075 4.925-11 11-11h304.979c6.075 0 11 4.925 11 11v60.996c-.001 6.075-4.925 11-11.001 11zm-293.978-22h282.979v-38.996h-282.979z" fill="#0496FF"/><path d="m438.987 207.02c-2.815 0-5.63-1.074-7.778-3.222l-83.715-83.715-53.218 53.217c-4.297 4.295-11.26 4.295-15.557 0l-83.716-83.715-114.212 114.214c-4.297 4.295-11.26 4.295-15.557 0-4.296-4.296-4.296-11.261 0-15.557l121.992-121.991c4.297-4.295 11.26-4.295 15.557 0l83.716 83.715 53.218-53.217c4.295-4.296 11.26-4.296 15.557 0l91.493 91.493c4.296 4.296 4.296 11.261 0 15.557-2.15 2.147-4.964 3.221-7.78 3.221z" fill="#0496FF"/><path d="m469.485 0h-426.97c-6.075 0-11 4.925-11 11v490c0 6.075 4.925 11 11 11h426.971c6.075 0 11-4.925 11-11v-490c-.001-6.075-4.926-11-11.001-11zm-11 22v163.02h-404.97v-163.02zm-404.97 468v-282.98h404.971v282.98z"/></g></svg>