<svg id="Capa_1" enable-background="new 0 0 512 512" viewBox="0 0 512 512" xmlns="http://www.w3.org/2000/svg" fill="#E6ECF2"><g><g><g><path d="m412.092 117.547h-205.576c-6.075 0-11-4.925-11-11s4.925-11 11-11h205.577c6.075 0 11 4.925 11 11s-4.926 11-11.001 11z" fill="#0496FF"/></g><g><path d="m412.092 282.924h-205.576c-6.075 0-11-4.925-11-11s4.925-11 11-11h205.577c6.075 0 11 4.925 11 11s-4.926 11-11.001 11z" fill="#0496FF"/></g></g><g><path d="m271.965 69.62h30.906c6.075 0 11-4.925 11-11s-4.925-11-11-11h-30.906c-6.075 0-11 4.925-11 11s4.925 11 11 11z"/><path d="m486.373 418.913h-5.368v-288.509c0-19.22-14.654-34.857-32.667-34.857h-22.255v-56.587c0-21.483-17.478-38.96-38.96-38.96h-155.638c-21.483 0-38.96 17.478-38.96 38.96v56.586h-128.862c-18.013 0-32.667 15.637-32.667 34.857v288.509h-5.368c-14.131.001-25.628 11.498-25.628 25.629v8.418c0 32.556 26.485 59.041 59.041 59.041h393.919c32.555 0 59.04-26.485 59.04-59.041v-8.418c0-14.131-11.497-25.628-25.627-25.628zm-271.848-379.953c0-9.352 7.608-16.96 16.96-16.96h155.637c9.352 0 16.96 7.608 16.96 16.96v281.71c0 9.352-7.608 16.96-16.96 16.96h-155.637c-9.352 0-16.96-7.608-16.96-16.96zm-161.529 91.444c0-7.09 4.785-12.857 10.667-12.857h128.862v203.123c0 21.483 17.478 38.96 38.96 38.96h155.637c21.483 0 38.96-17.478 38.96-38.96v-203.123h22.255c5.882 0 10.667 5.768 10.667 12.857v288.509h-406.008zm437.004 322.555c0 20.425-16.616 37.041-37.041 37.041h-393.918c-20.425 0-37.041-16.616-37.041-37.041v-8.418c0-2 1.627-3.628 3.627-3.628h460.745c2 0 3.627 1.627 3.627 3.628v8.418z"/><circle cx="346.64" cy="58.62" r="11"/></g><path d="m317.266 211.283c1.075-2.245 1.334-4.836.78-7.257l-10.451-44.255c-1.397-5.912-7.32-9.574-13.234-8.177-5.912 1.396-9.573 7.321-8.177 13.234l4.405 18.653c-8.145-4.147-16.905-7.878-26.233-11.158-28.654-10.076-59.595-13.116-89.474-8.792-20.211 2.924-39.968 9.21-58.249 18.428l4.583-18.152c1.487-5.89-2.083-11.871-7.973-13.358-5.89-1.486-11.87 2.083-13.358 7.973l-11.131 44.089c-.714 2.83-.274 5.829 1.223 8.335s3.93 4.314 6.761 5.025l44.095 11.083c.9.227 1.802.334 2.69.334 4.923 0 9.405-3.329 10.66-8.321 1.481-5.892-2.095-11.869-7.986-13.35l-18.438-4.635c15.82-7.818 32.858-13.16 50.274-15.68 26.382-3.818 53.708-1.13 79.026 7.772 7.609 2.676 14.768 5.669 21.446 8.955l-17.942 4.217c-5.914 1.39-9.581 7.311-8.191 13.225 1.191 5.068 5.708 8.486 10.699 8.485.833 0 1.68-.095 2.526-.294l44.242-10.399c3.212-.748 6.023-2.993 7.427-5.98z" fill="#0496FF"/></g><g/><g/><g/><g/><g/><g/><g/><g/><g/><g/><g/><g/><g/><g/><g/></svg>