<svg id="Capa_1" enable-background="new 0 0 512 512" height="512" viewBox="0 0 512 512" width="512" xmlns="http://www.w3.org/2000/svg" fill="#E6ECF2"><g><g id="Reponsive_Image"><path d="m11 297.498c-2.83 0-5.659-1.085-7.811-3.254-4.277-4.314-4.249-11.278.064-15.557l123.008-121.992c4.275-4.24 11.167-4.253 15.46-.032l62.013 60.996c4.331 4.26 4.389 11.225.128 15.556-4.258 4.331-11.224 4.389-15.556.129l-54.267-53.378-115.293 114.343c-2.145 2.127-4.946 3.189-7.746 3.189z" fill="#0496FF"/><path d="m379.008 419.49c-2.917 0-5.715-1.159-7.778-3.222l-83.715-83.716-83.716 83.716c-4.296 4.296-11.261 4.295-15.557 0-4.296-4.296-4.296-11.261 0-15.557l91.494-91.494c2.064-2.062 4.861-3.222 7.778-3.222s5.715 1.159 7.778 3.222l83.715 83.715 53.218-53.218c4.297-4.296 11.26-4.296 15.557 0l60.996 60.996c4.296 4.296 4.296 11.261 0 15.557-4.297 4.296-11.26 4.296-15.557 0l-53.218-53.218-53.218 53.218c-2.062 2.064-4.86 3.223-7.777 3.223z" fill="#0496FF"/><path d="m318.013 175.506c-22.882 0-41.498-18.616-41.498-41.498s18.616-41.498 41.498-41.498 41.498 18.616 41.498 41.498-18.616 41.498-41.498 41.498zm0-60.996c-10.751 0-19.498 8.746-19.498 19.498s8.747 19.498 19.498 19.498 19.498-8.746 19.498-19.498c0-10.751-8.747-19.498-19.498-19.498z"/><path d="m501 214.502h-49.996v-171.987c0-6.075-4.925-11-11-11h-429.004c-6.075 0-11 4.925-11 11v335.477c0 6.075 4.925 11 11 11h174.02v80.494c0 6.075 4.925 11 11 11h304.98c6.075 0 11-4.925 11-11v-243.984c0-6.075-4.925-11-11-11zm-479 152.49v-313.477h407.004v160.987h-232.984c-6.075 0-11 4.925-11 11v141.49zm468 91.494h-282.98v-221.984h282.98z"/></g><path d="m410.52 297.5c-12.921.297-14.887-19.559-2.148-21.79 15.56-2.8 17.956 21.494 2.148 21.79z"/></g></svg>