<svg id="Capa_1" enable-background="new 0 0 512 512" height="512" viewBox="0 0 512 512" width="512" xmlns="http://www.w3.org/2000/svg" fill="#E6ECF2"><g id="Responsive_6_"><g fill="#0496FF"><path d="m316.996 175.506h-305.996c-6.075 0-11-4.925-11-11s4.925-11 11-11h305.996c6.075 0 11 4.925 11 11s-4.925 11-11 11z"/><path d="m477.264 126.229c-4.297-4.295-11.26-4.295-15.557 0l-11.72 11.72v-64.936c0-6.075-4.925-11-11-11h-60.995c-6.075 0-11 4.925-11 11s4.925 11 11 11h49.995v53.937l-11.72-11.72c-4.297-4.295-11.26-4.295-15.557 0-4.296 4.296-4.296 11.261 0 15.557l30.498 30.498c4.1 4.251 11.456 4.251 15.557 0l30.498-30.498c4.297-4.297 4.297-11.262.001-15.558z"/><path d="m134.008 429.004h-49.995v-54.953l11.72 11.72c2.148 2.147 4.963 3.222 7.778 3.222 2.816 0 5.63-1.074 7.778-3.222 4.296-4.296 4.296-11.261 0-15.557l-30.498-30.498c-4.1-4.25-11.457-4.249-15.557 0l-30.498 30.498c-4.296 4.296-4.296 11.261 0 15.557 4.297 4.295 11.26 4.295 15.557 0l11.72-11.72v65.953c0 6.075 4.925 11 11 11h60.995c6.075 0 11-4.925 11-11s-4.925-11-11-11z"/></g><path d="m501 429.004h-19.498v-112.008c0-22.882-18.616-41.498-41.498-41.498h-184.004c-7.611 0-14.745 2.069-20.884 5.661-1.878-3.375-5.478-5.661-9.614-5.661h-19.498v-38.996h80.494c22.882 0 41.498-18.616 41.498-41.498v-153.506c0-22.882-18.616-41.498-41.498-41.498h-245c-22.882 0-41.498 18.616-41.498 41.498v153.506c0 22.882 18.616 41.498 41.498 41.498h81.51v38.996h-19.497c-6.075 0-11 4.925-11 11s4.925 11 11 11h115.871c-3.11 5.817-4.88 12.454-4.88 19.498v112.008h-19.498c-6.075 0-11 4.925-11 11 0 39.699 32.297 71.996 71.996 71.996h184.004c39.699 0 71.996-32.297 71.996-71.996 0-6.075-4.925-11-11-11zm-479-234v-153.506c0-10.751 8.747-19.498 19.498-19.498h245c10.751 0 19.498 8.747 19.498 19.498v153.506c0 10.751-8.747 19.498-19.498 19.498h-245c-10.751 0-19.498-8.747-19.498-19.498zm123.008 41.498h38.996v38.996h-38.996zm91.494 80.494c0-10.751 8.747-19.498 19.498-19.498h184.004c10.751 0 19.498 8.747 19.498 19.498v112.008h-223zm203.502 173.004h-184.004c-23.79 0-43.753-16.701-48.777-38.996h281.559c-5.025 22.295-24.988 38.996-48.778 38.996z"/></g></svg>