<svg id="Capa_1" enable-background="new 0 0 512 512" height="512" viewBox="0 0 512 512" width="512" xmlns="http://www.w3.org/2000/svg" fill="#052438"><g><g fill="#0496FF"><path d="m134.008 388.992c-22.882 0-41.497-18.616-41.497-41.498v-60.996c0-22.882 18.615-41.498 41.497-41.498s41.498 18.616 41.498 41.498c0 6.075-4.925 11-11 11s-11-4.925-11-11c0-10.751-8.747-19.498-19.498-19.498s-19.497 8.747-19.497 19.498v60.996c0 10.751 8.746 19.498 19.497 19.498s19.498-8.747 19.498-19.498c0-6.075 4.925-11 11-11s11 4.925 11 11c0 22.882-18.616 41.498-41.498 41.498z"/><path d="m256 388.992c-22.882 0-41.498-18.616-41.498-41.498 0-6.075 4.925-11 11-11s11 4.925 11 11c0 10.751 8.747 19.498 19.498 19.498s19.498-8.747 19.498-19.498-8.747-19.498-19.498-19.498c-22.882 0-41.498-18.616-41.498-41.498s18.616-41.498 41.498-41.498 41.498 18.616 41.498 41.498c0 6.075-4.925 11-11 11s-11-4.925-11-11c0-10.751-8.747-19.498-19.498-19.498s-19.498 8.747-19.498 19.498c0 10.752 8.747 19.498 19.498 19.498 22.882 0 41.498 18.616 41.498 41.498s-18.616 41.498-41.498 41.498z"/><path d="m377.992 388.992c-22.882 0-41.498-18.616-41.498-41.498 0-6.075 4.925-11 11-11s11 4.925 11 11c0 10.751 8.747 19.498 19.498 19.498s19.497-8.747 19.497-19.498-8.746-19.498-19.497-19.498c-22.882 0-41.498-18.616-41.498-41.498s18.616-41.498 41.498-41.498 41.497 18.616 41.497 41.498c0 6.075-4.925 11-11 11s-11-4.925-11-11c0-10.751-8.746-19.498-19.497-19.498s-19.498 8.747-19.498 19.498c0 10.752 8.747 19.498 19.498 19.498 22.882 0 41.497 18.616 41.497 41.498s-18.615 41.498-41.497 41.498z"/></g><path d="m449.987 185.495v-83.001c-.002-2.889-1.176-5.735-3.222-7.778l-91.493-91.494c-2.043-2.046-4.889-3.22-7.778-3.222h-274.481c-6.075 0-11 4.925-11 11v174.495c-17.559 4.834-30.498 20.933-30.498 40.007v182.988c0 19.074 12.94 35.173 30.498 40.007v52.503c0 6.075 4.925 11 11 11h365.975c6.075 0 11-4.925 11-11v-52.503c17.559-4.834 30.498-20.933 30.498-40.007v-182.988c-.001-19.074-12.94-35.173-30.499-40.007zm-91.493-147.938 53.937 53.937h-53.937zm-22-15.557v80.494c0 6.075 4.925 11 11 11h80.493v70.51h-343.974v-162.004zm-252.481 468v-40.012h343.975v40.012zm374.472-81.51c0 10.752-8.747 19.498-19.498 19.498h-365.974c-10.751 0-19.498-8.747-19.498-19.498v-182.988c0-10.751 8.747-19.498 19.498-19.498h365.975c10.751 0 19.498 8.747 19.498 19.498v182.988z"/></g></svg>