<svg id="Capa_1" enable-background="new 0 0 512 512" height="512" viewBox="0 0 512 512" width="512" xmlns="http://www.w3.org/2000/svg" fill="#052438"><g><path d="m496.532 390.2h-8.39v-317.854c0-20.272-16.493-36.765-36.766-36.765h-390.753c-20.272 0-36.766 16.493-36.766 36.765v317.854h-8.39c-8.529 0-15.467 6.938-15.467 15.467v25.251c0 25.09 20.412 45.501 45.501 45.501h420.998c25.089 0 45.501-20.412 45.501-45.501v-25.251c0-8.529-6.939-15.467-15.468-15.467zm-450.675-317.854c0-8.142 6.624-14.765 14.766-14.765h390.754c8.142 0 14.766 6.623 14.766 14.765v317.854h-152.966c-7.884 0-14.297 6.413-14.297 14.296v8.243h-86.776v-8.243c0-7.883-6.413-14.296-14.297-14.296h-151.95zm444.143 358.572c0 12.958-10.542 23.501-23.501 23.501h-420.998c-12.959 0-23.501-10.543-23.501-23.501v-18.718h168.104v8.242c0 7.883 6.414 14.297 14.297 14.297h102.183c7.884 0 14.297-6.414 14.297-14.297v-8.242h169.119z"/><g fill="#0496FF"><path d="m256 328.394c-6.075 0-11-4.925-11-11v-32.98c0-6.075 4.925-11 11-11s11 4.925 11 11v32.98c0 6.075-4.925 11-11 11z"/><path d="m256 179.102c-6.075 0-11-4.925-11-11v-32.979c0-6.075 4.925-11 11-11s11 4.925 11 11v32.979c0 6.075-4.925 11-11 11z"/><path d="m347.136 237.258h-32.979c-6.075 0-11-4.925-11-11s4.925-11 11-11h32.979c6.075 0 11 4.925 11 11s-4.925 11-11 11z"/><path d="m197.844 237.258h-32.979c-6.075 0-11-4.925-11-11s4.925-11 11-11h32.979c6.075 0 11 4.925 11 11s-4.925 11-11 11z"/><path d="m320.442 301.701c-2.815 0-5.63-1.074-7.778-3.222l-23.32-23.32c-4.296-4.296-4.296-11.261 0-15.557 4.297-4.296 11.26-4.296 15.557 0l23.32 23.32c4.296 4.296 4.296 11.261 0 15.557-2.149 2.148-4.963 3.222-7.779 3.222z"/><path d="m297.122 196.136c-2.815 0-5.63-1.074-7.778-3.222-4.296-4.296-4.296-11.261 0-15.557l23.32-23.32c4.297-4.296 11.26-4.296 15.557 0 4.296 4.296 4.296 11.261 0 15.557l-23.32 23.32c-2.149 2.148-4.963 3.222-7.779 3.222z"/><path d="m191.558 301.701c-2.815 0-5.63-1.074-7.778-3.222-4.296-4.296-4.296-11.261 0-15.557l23.32-23.32c4.297-4.296 11.26-4.296 15.557 0 4.296 4.296 4.296 11.261 0 15.557l-23.32 23.32c-2.149 2.148-4.964 3.222-7.779 3.222z"/></g></g></svg>