<svg id="Capa_1" enable-background="new 0 0 512 512" height="512" viewBox="0 0 512 512" width="512" xmlns="http://www.w3.org/2000/svg" fill="#052438"><g id="Maximize"><g fill="#0496FF"><path d="m356.3 354.066c1.427-1.871 2.182-4.225 2.194-6.572v-60.996c0-6.075-4.925-11-11-11s-11 4.925-11 11v34.44l-42.217-42.218c-4.297-4.297-11.261-4.296-15.557 0-4.295 4.296-4.295 11.261 0 15.557l42.217 42.218h-34.439c-6.075 0-11 4.925-11 11s4.925 11 11 11h60.996c3.408.001 6.799-1.66 8.806-4.429z"/><path d="m225.502 336.494h-34.439l42.217-42.218c4.295-4.296 4.295-11.261 0-15.557-4.296-4.295-11.261-4.295-15.557 0l-42.217 42.218v-34.44c0-6.075-4.925-11-11-11s-11 4.925-11 11v60.996c-.107 5.904 5.096 11.108 11 11h60.996c6.075 0 11-4.925 11-11s-4.925-10.999-11-10.999z"/><path d="m358.491 164.461c.089-5.89-5.112-11.058-10.998-10.955h-60.996c-6.075 0-11 4.925-11 11s4.925 11 11 11h34.439l-42.217 42.218c-4.295 4.296-4.295 11.261 0 15.557 2.148 2.147 4.963 3.222 7.778 3.222s5.63-1.074 7.778-3.222l42.217-42.218v34.439c0 6.075 4.925 11 11 11s11-4.925 11-11v-60.996c.002-.015-.001-.03-.001-.045z"/><path d="m191.063 175.506h34.439c6.075 0 11-4.925 11-11s-4.925-11-11-11h-60.983c-5.909-.116-11.12 5.093-11.012 11v60.996c0 6.075 4.925 11 11 11s11-4.925 11-11v-34.439l42.217 42.218c2.148 2.148 4.963 3.222 7.778 3.222s5.63-1.074 7.778-3.222c4.295-4.296 4.295-11.261 0-15.557z"/></g><path d="m408.49 0h-304.98c-22.882 0-41.498 18.616-41.498 41.498v429.004c0 22.882 18.616 41.498 41.498 41.498h304.98c22.882 0 41.498-18.616 41.498-41.498v-429.004c0-22.882-18.616-41.498-41.498-41.498zm-324.478 82.996h343.976v346.008h-343.976zm19.498-60.996h304.98c10.752 0 19.498 8.747 19.498 19.498v19.498h-343.976v-19.498c0-10.751 8.747-19.498 19.498-19.498zm304.98 468h-304.98c-10.752 0-19.498-8.747-19.498-19.498v-19.498h343.976v19.498c0 10.751-8.747 19.498-19.498 19.498z"/></g></svg>