<svg id="Capa_1" enable-background="new 0 0 512 512" viewBox="0 0 512 512" xmlns="http://www.w3.org/2000/svg" fill="#E6ECF2"><g><g><path d="m482.116 0h-413.744c-16.478 0-29.884 13.406-29.884 29.884v143.136h-8.604c-16.478 0-29.884 13.405-29.884 29.883v279.213c0 16.478 13.406 29.884 29.884 29.884h279.213c16.478 0 29.884-13.406 29.884-29.884v-8.604h143.136c16.478 0 29.884-13.406 29.884-29.884v-413.744c-.001-16.478-13.407-29.884-29.885-29.884zm-413.744 22h413.745c4.347 0 7.884 3.537 7.884 7.884v74.466h-429.513v-74.466c0-4.347 3.536-7.884 7.884-7.884zm-38.488 173.02h279.213c4.347 0 7.884 3.537 7.884 7.884v59.415h-294.981v-59.415c0-4.348 3.537-7.884 7.884-7.884zm279.213 294.98h-279.213c-4.347 0-7.884-3.537-7.884-7.884v-197.798h294.98v197.798c0 4.347-3.537 7.884-7.883 7.884zm173.019-38.488h-143.136v-78.982l93.837-93.836v27.898c0 6.075 4.925 11 11 11s11-4.925 11-11v-54.455c0-6.075-4.925-11-11-11h-54.455c-6.075 0-11 4.925-11 11s4.925 11 11 11h27.898l-78.28 78.279v-138.513c0-16.478-13.406-29.884-29.884-29.884h-248.608v-46.669h429.512v317.278c0 4.348-3.537 7.884-7.884 7.884z"/><path d="m275.063 324.463h-65.448c-6.075 0-11 4.925-11 11s4.925 11 11 11h65.448c6.075 0 11-4.925 11-11s-4.924-11-11-11z"/><path d="m275.063 376.464h-65.448c-6.075 0-11 4.925-11 11s4.925 11 11 11h65.448c6.075 0 11-4.925 11-11s-4.924-11-11-11z"/><path d="m275.063 428.466h-65.448c-6.075 0-11 4.925-11 11s4.925 11 11 11h65.448c6.075 0 11-4.925 11-11s-4.924-11-11-11z"/></g><g fill="#0496FF"><path d="m157.433 314.279h-94.93c-6.075 0-11 4.925-11 11v124.371c0 6.075 4.925 11 11 11h94.93c6.075 0 11-4.925 11-11v-124.371c0-6.075-4.925-11-11-11zm-83.93 43.542 22.627 29.644-22.627 29.644zm11.235-21.542h50.461l-25.23 33.055zm25.23 69.316 25.231 33.055h-50.462zm13.839-18.131 22.626-29.643v59.287z"/><g><circle cx="361.592" cy="63.055" r="11"/><circle cx="406.1" cy="63.055" r="11"/><circle cx="450.607" cy="63.055" r="11"/></g><circle cx="193.642" cy="228.833" r="11"/><circle cx="238.15" cy="228.833" r="11"/><circle cx="282.657" cy="228.833" r="11"/></g></g><g/><g/><g/><g/><g/><g/><g/><g/><g/><g/><g/><g/><g/><g/><g/></svg>