<svg id="Capa_1" enable-background="new 0 0 512 512" viewBox="0 0 512 512" xmlns="http://www.w3.org/2000/svg" fill="#E6ECF2"><g><g fill="#0496FF"><path d="m302.376 193.299h177.614c6.075 0 11-4.925 11-11s-4.925-11-11-11h-177.614c-6.075 0-11 4.925-11 11s4.925 11 11 11z"/><path d="m32.72 193.299h55.49c6.075 0 11-4.925 11-11s-4.925-11-11-11h-55.49c-6.075 0-11 4.925-11 11s4.925 11 11 11z"/><path d="m488.509 378.742-104.571-113.758c-2.083-2.266-5.02-3.556-8.098-3.556-.001 0-.002 0-.003 0-3.079.001-6.017 1.292-8.099 3.561l-73.923 80.512c-4.109 4.475-3.812 11.434.663 15.542 4.476 4.109 11.434 3.812 15.542-.663l65.825-71.692 88.034 95.768h-153.794c-.506-1.167-1.212-2.269-2.143-3.24l-55.883-58.253c-2.075-2.163-4.942-3.385-7.938-3.385-.027 0-.054 0-.082 0-3.025.022-5.907 1.289-7.968 3.503l-46.757 50.208-27.444-28.608c-2.075-2.163-4.942-3.385-7.938-3.385-.027 0-.054 0-.082 0-3.025.022-5.907 1.289-7.968 3.503l-46.697 50.145c-.269-5.836-5.072-10.489-10.974-10.489h-55.721c-6.075 0-11 4.925-11 11s4.925 11 11 11h55.72c.09 0 .177-.011.267-.013l-5.755 6.18c-2.391 2.568-3.31 5.973-2.81 9.19-.083.546-.14 1.101-.14 1.67 0 6.075 4.925 11 11 11h208.394c6.075 0 11-4.925 11-11s-4.925-11-11-11h-116.289l61.362-65.892 46.688 48.669c-.001.066-.01.13-.01.197 0 6.075 4.925 11 11 11h177.478c6.075 0 11-4.925 11-11 0-1.243-.216-2.434-.596-3.548 2.489-4.082 2.107-9.47-1.29-13.166zm-375.595 33.739 41.136-44.172 20.246 21.105-21.482 23.067z"/><path d="m310.854 281.026c0-6.075-4.925-11-11-11h-208.663c-6.075 0-11 4.925-11 11s4.925 11 11 11h208.663c6.075 0 11-4.925 11-11z"/><g><circle cx="341.904" cy="62.998" r="11"/><circle cx="386.412" cy="62.998" r="11"/><circle cx="430.919" cy="62.998" r="11"/></g><circle cx="189.73" cy="326.21" r="11"/></g><g><path d="m188.735 200.036h-30.898c-6.075 0-11 4.925-11 11s4.925 11 11 11h30.898c6.075 0 11-4.925 11-11s-4.925-11-11-11z"/><path d="m462.106 0h-412.212c-16.478 0-29.884 13.406-29.884 29.884v412.212c0 16.478 13.406 29.884 29.884 29.884h28.522v1.06c0 21.483 17.478 38.96 38.96 38.96h155.577c21.483 0 38.96-17.478 38.96-38.96v-1.06h150.192c16.478 0 29.884-13.406 29.884-29.884v-412.212c.001-16.478-13.405-29.884-29.883-29.884zm-172.192 473.04c0 9.352-7.608 16.96-16.96 16.96h-155.577c-9.352 0-16.96-7.608-16.96-16.96v-281.656c0-9.352 7.608-16.961 16.96-16.961h155.577c9.352 0 16.96 7.609 16.96 16.961zm180.076-30.944c0 4.347-3.537 7.884-7.884 7.884h-150.192v-258.596c0-21.483-17.478-38.961-38.96-38.961h-155.577c-21.483 0-38.96 17.478-38.96 38.961v258.595h-28.523c-4.347 0-7.884-3.537-7.884-7.884v-316.1h427.98zm0-338.1h-427.98v-74.112c0-4.347 3.537-7.884 7.884-7.884h412.212c4.347 0 7.884 3.537 7.884 7.884z"/><circle cx="232.49" cy="211.036" r="11"/></g></g><g/><g/><g/><g/><g/><g/><g/><g/><g/><g/><g/><g/><g/><g/><g/></svg>