<svg id="Capa_1" enable-background="new 0 0 512 512" viewBox="0 0 512 512" xmlns="http://www.w3.org/2000/svg" fill="#E6ECF2"><g><g fill="#0496FF"><path d="m422.834 451.512h-131.471v-8.363c0-8.822-7.178-16-16-16h-38.727c-8.822 0-16 7.178-16 16v8.363h-128.986c-6.075 0-11 4.925-11 11s4.925 11 11 11h128.987v8.363c0 8.822 7.178 16 16 16h38.727c8.822 0 16-7.178 16-16v-8.363h131.471c6.075 0 11-4.925 11-11s-4.925-11-11.001-11zm-153.471 24.363h-26.727v-26.727h26.727z"/><path d="m89.586 60.488h131.051v8.363c0 8.822 7.178 16 16 16h38.727c8.822 0 16-7.178 16-16v-8.363h130.86c6.075 0 11-4.925 11-11s-4.925-11-11-11h-130.86v-8.363c0-8.822-7.178-16-16-16h-38.727c-8.822 0-16 7.178-16 16v8.363h-131.051c-6.075 0-11 4.925-11 11s4.925 11 11 11zm153.051-24.363h26.727v26.726h-26.727z"/><path d="m84.851 236.637c0-8.822-7.178-16-16-16h-8.363v-130.656c0-6.075-4.925-11-11-11s-11 4.925-11 11v130.656h-8.363c-8.822 0-16 7.178-16 16v38.727c0 8.822 7.178 16 16 16h8.363v128.961c0 6.075 4.925 11 11 11s11-4.925 11-11v-128.962h8.363c8.822 0 16-7.178 16-16zm-22 32.726h-26.726v-26.727h26.727v26.727z"/><path d="m497.875 236.637c0-8.822-7.178-16-16-16h-8.363v-130.962c0-6.075-4.925-11-11-11s-11 4.925-11 11v130.961h-8.363c-8.822 0-16 7.178-16 16v38.727c0 8.822 7.178 16 16 16h8.363v131.254c0 6.075 4.925 11 11 11s11-4.925 11-11v-131.254h8.363c8.822 0 16-7.178 16-16zm-48.726 32.726v-26.727h26.726v26.727z"/><path d="m256 222.312c-18.576 0-33.688 15.112-33.688 33.688s15.112 33.688 33.688 33.688 33.688-15.112 33.688-33.688-15.112-33.688-33.688-33.688zm0 45.376c-6.445 0-11.688-5.243-11.688-11.688s5.243-11.688 11.688-11.688 11.688 5.243 11.688 11.688-5.243 11.688-11.688 11.688z"/></g><g><path d="m202.975 298.025h-61.508c-6.075 0-11 4.925-11 11s4.925 11 11 11h34.951l-93.02 93.02c-.142-.004-.28-.021-.422-.021h-66.976c-8.822 0-16 7.178-16 16v66.976c0 8.822 7.178 16 16 16h66.976c8.822 0 16-7.178 16-16v-66.976c0-.142-.018-.281-.021-.422l93.02-93.02v34.951c0 6.075 4.925 11 11 11s11-4.925 11-11v-61.508c0-6.075-4.925-11-11-11zm-125.999 191.975h-54.976v-54.976h54.976z"/><path d="m202.975 129.212c-6.075 0-11 4.925-11 11v34.951l-92.999-92.999v-66.164c0-8.822-7.178-16-16-16h-66.976c-8.822 0-16 7.178-16 16v66.976c0 8.822 7.178 16 16 16h66.976c.546 0 1.085-.028 1.616-.082l91.826 91.826h-34.951c-6.075 0-11 4.925-11 11s4.925 11 11 11h61.508c6.075 0 11-4.925 11-11v-61.508c0-6.075-4.925-11-11-11zm-125.999-52.236h-54.976v-54.976h54.976z"/><path d="m496 413.024h-66.976c-.142 0-.28.018-.422.021l-93.02-93.02h34.951c6.075 0 11-4.925 11-11s-4.925-11-11-11h-61.508c-6.075 0-11 4.925-11 11v61.508c0 6.075 4.925 11 11 11s11-4.925 11-11v-34.951l93.02 93.02c-.004.141-.021.28-.021.422v66.976c0 8.822 7.178 16 16 16h66.976c8.822 0 16-7.178 16-16v-66.976c0-8.822-7.178-16-16-16zm-6 76.976h-54.976v-54.976h54.976z"/><path d="m496 0h-66.976c-8.822 0-16 7.178-16 16v66.164l-92.999 92.999v-34.951c0-6.075-4.925-11-11-11s-11 4.925-11 11v61.508c0 6.075 4.925 11 11 11h61.508c6.075 0 11-4.925 11-11s-4.925-11-11-11h-34.951l91.826-91.826c.532.054 1.071.082 1.616.082h66.976c8.822 0 16-7.178 16-16v-66.976c0-8.822-7.178-16-16-16zm-6 76.976h-54.976v-54.976h54.976z"/></g></g><g/><g/><g/><g/><g/><g/><g/><g/><g/><g/><g/><g/><g/><g/><g/></svg>