<svg id="Capa_1" enable-background="new 0 0 512 512" height="512" viewBox="0 0 512 512" width="512" xmlns="http://www.w3.org/2000/svg" fill="#052438"><g id="Responsive_Icon"><path d="m447.782 278.72-121.991-121.992c-2.064-2.062-4.861-3.222-7.778-3.222s-5.715 1.159-7.778 3.222l-72.716 72.716v-34.439c0-6.075-4.925-11-11-11s-11 4.925-11 11v56.44l-57.774 57.774c-4.295 4.296-4.295 11.261 0 15.557 2.148 2.147 4.963 3.222 7.778 3.222s5.63-1.074 7.778-3.222l42.217-42.217v156.43c0 6.075 4.925 11 11 11h91.494c6.075 0 11-4.925 11-11s-4.925-11-11-11h-80.494v-167.432l80.494-80.494 114.213 114.214c4.296 4.296 11.261 4.296 15.557 0s4.296-11.261 0-15.557z" fill="#0496FF"/><path d="" style="fill:none;stroke:#052438;stroke-width:22;stroke-linecap:round;stroke-linejoin:round;stroke-miterlimit:10"/><path d="m508.778 339.716-91.494-91.494-182.987-182.987c-4.282-4.282-11.219-4.298-15.52-.036l-134.765 133.493v-64.684c0-6.075-4.925-11-11-11s-11 4.925-11 11v86.476l-58.753 58.199c-4.316 4.275-4.349 11.24-.074 15.557 2.151 2.172 4.982 3.259 7.815 3.259 2.797 0 5.596-1.061 7.741-3.185l43.271-42.863v187.537c0 6.075 4.925 11 11 11h397.49c6.075 0 11-4.925 11-11v-95.435l11.72 11.72c4.297 4.295 11.26 4.295 15.557 0 4.295-4.296 4.295-11.261-.001-15.557zm-424.766-110.058 142.47-141.126 167.467 167.468-34.439 34.439v-3.941c0-6.075-4.925-11-11-11s-11 4.925-11 11v25.941l-27.276 27.277c-4.296 4.296-4.296 11.261 0 15.557 2.148 2.147 4.963 3.222 7.778 3.222s5.63-1.074 7.778-3.222l11.72-11.72v84.435h-253.498zm375.49 198.33h-38.996v-49.995c0-6.075-4.925-11-11-11s-11 4.925-11 11v49.995h-38.995v-106.436l49.995-49.996 49.996 49.996z"/></g></svg>