<svg id="Layer_1" enable-background="new 0 0 512 512" viewBox="0 0 512 512" xmlns="http://www.w3.org/2000/svg" fill="#052438"><g><g><path d="m155.408 102.885 12.907-12.911c4.295-4.296 4.294-11.261-.002-15.556-4.295-4.295-11.26-4.294-15.556.002l-12.902 12.906-12.903-12.906c-4.295-4.297-11.26-4.298-15.556-.002-4.296 4.295-4.297 11.26-.002 15.556l12.907 12.911-12.907 12.911c-4.295 4.296-4.294 11.261.002 15.556 2.148 2.147 4.962 3.221 7.777 3.221s5.631-1.075 7.779-3.223l12.902-12.906 12.902 12.906c2.148 2.149 4.963 3.223 7.779 3.223 2.814 0 5.629-1.074 7.777-3.221 4.296-4.295 4.297-11.26.002-15.556z" fill="#0496FF"/><g><path d="m366.017 127.345c-2.567 0-5.142-.894-7.221-2.705l-17.613-15.339c-4.582-3.99-5.061-10.938-1.071-15.52s10.939-5.061 15.52-1.071l9.668 8.42 22.611-23.806c4.183-4.404 11.146-4.584 15.551-.4s4.584 11.146.4 15.551l-29.866 31.444c-2.158 2.272-5.064 3.426-7.979 3.426z" fill="#0496FF"/></g><g><path d="m295.713 469.239h-13.22c-6.075 0-11-4.925-11-11s4.925-11 11-11h13.22c6.075 0 11 4.925 11 11s-4.925 11-11 11z" fill="#0496FF"/></g><g><path d="m372.146 0c-55.411 0-100.49 45.08-100.49 100.49v.265c0 55.411 45.08 100.49 100.49 100.49s100.491-45.08 100.491-100.49v-.265c0-55.41-45.08-100.49-100.491-100.49zm78.491 100.755c0 43.28-35.211 78.49-78.491 78.49s-78.49-35.21-78.49-78.49v-.265c0-43.28 35.21-78.49 78.49-78.49s78.491 35.21 78.491 78.49z"/><path d="m344.121 211.195c-8.679-.233-16.703 2.73-22.911 7.853-.199-.21-.401-.417-.605-.623-6.515-6.5-15.162-10.079-24.351-10.079-8.965 0-17.216 3.495-23.393 9.221-6.204-5.727-14.493-9.221-23.5-9.221-4.402 0-8.633.834-12.533 2.355.001-3.829.01-82.56-.005-84.324.049-.168.095-.339.137-.511 1.264-5.238 3.385-15.469 3.385-25.131v-.226c-.001-55.421-45.08-100.509-100.491-100.509s-100.491 45.088-100.491 100.51v.226c0 55.421 45.08 100.51 100.491 100.51 9.609 0 19.009-1.333 28.077-3.972l.013 18.93h-2.441c-22.404 0-40.631 18.23-40.631 40.638v66.963c0 31.492 25.616 57.112 57.102 57.112h8.398v23.562h-12.025c-6.075 0-11 4.925-11 11v85.521c0 6.075 4.925 11 11 11h161.92c6.075 0 11-4.925 11-11v-85.521c0-6.075-4.925-11-11-11h-13.494v-24.22c13.4-1.653 24.933-6.396 33.767-13.961 11.003-9.42 17.061-22.655 17.06-37.265-.011-84.105-.021-84.305-.044-84.735-.947-18.063-15.63-32.602-33.435-33.103zm-204.267-31.95c-43.28 0-78.491-35.219-78.491-78.51v-.226c0-43.291 35.211-78.51 78.491-78.51 42.033 0 76.454 33.219 78.403 74.789-4.512-2.401-9.597-3.819-14.966-3.97-18.703-.521-34.508 14.133-35.377 32.767-.022.297-.033.599-.033.907l.033 47.591c-8.934 3.427-18.357 5.162-28.06 5.162zm189.413 310.755h-139.92v-63.521h139.92zm16.965-140.414c-7.129 6.104-17.661 9.33-30.459 9.33-6.075 0-11 4.925-11 11v34.562h-92.401v-34.562c0-6.075-4.925-11-11-11h-19.398c-19.355 0-35.102-15.751-35.102-35.112v-66.963c0-10.277 8.358-18.638 18.631-18.638h2.481v63.886c0 6.075 4.925 11 11 11s11-4.925 11-11l-.102-175.253c.001-.029.002-.059.003-.088.242-6.777 5.961-12.143 12.784-11.938 6.412.181 11.714 5.444 12.161 12.03.01 3.584-.006 114.372.012 114.734.288 5.806 5.043 10.386 10.856 10.455 5.787.079 10.676-4.397 11.101-10.195.472-6.441 5.99-11.487 12.562-11.487 6.566 0 12.08 5.046 12.552 11.488.422 5.748 5.208 10.195 10.971 10.195s10.549-4.448 10.971-10.196c.472-6.441 5.918-11.487 12.399-11.487 3.321 0 6.451 1.297 8.792 3.633 2.093 2.099 3.37 4.858 3.603 7.779l.157 2.735c.332 5.788 5.099 10.325 10.896 10.37h.087c5.759 0 10.55-4.447 10.969-10.2.483-6.619 6.082-11.626 12.752-11.477 6.351.179 11.61 5.45 12.063 12.049.011 3.069.02 32.658.026 83.798.002 8.197-3.238 15.304-9.367 20.552z"/></g></g></g><g/><g/><g/><g/><g/><g/><g/><g/><g/><g/><g/><g/><g/><g/><g/></svg>