<svg id="Layer_1" enable-background="new 0 0 514 514" viewBox="0 0 514 514" xmlns="http://www.w3.org/2000/svg" fill="#E6ECF2"><g><g><g><path d="m101.958 463.014c-12.471 0-24.942-4.743-34.437-14.228-4.298-4.294-4.301-11.259-.007-15.556 4.294-4.298 11.259-4.301 15.556-.007 10.415 10.405 27.361 10.405 37.776 0 4.298-4.293 11.263-4.291 15.556.007 4.294 4.297 4.291 11.262-.007 15.556-9.494 9.485-21.965 14.228-34.437 14.228z"/></g><g><path d="m66.33 244.57c1.704 4.235 6.139 7.025 10.69 6.784 4.598-.244 8.637-3.392 9.988-7.794 1.328-4.327-.246-9.171-3.831-11.92-3.692-2.831-8.928-3.006-12.796-.42-4.287 2.865-6.076 8.579-4.051 13.35z"/><path d="m117.28 244.57c1.707 4.235 6.138 7.025 10.69 6.784 4.607-.245 8.623-3.392 9.984-7.794 1.337-4.322-.247-9.174-3.828-11.92-3.691-2.832-8.928-3.005-12.796-.42-4.288 2.867-6.073 8.576-4.05 13.35z"/><path d="m127.433 266.745h-50.949c-6.075 0-11 4.925-11 11s4.925 11 11 11h50.949c6.075 0 11-4.925 11-11s-4.925-11-11-11z"/><path d="m194.958 92.922c0-51.238-41.72-92.922-93-92.922s-93 41.685-93 92.922c0 35.487 20.013 66.392 49.355 82.039-29.341 15.647-49.355 46.551-49.355 82.039s20.013 66.392 49.355 82.039c-29.341 15.647-49.355 46.551-49.355 82.039 0 51.238 41.72 92.922 93 92.922s93-41.685 93-92.922c0-35.487-20.013-66.392-49.355-82.039 29.342-15.647 49.355-46.551 49.355-82.039s-20.013-66.392-49.355-82.039c29.342-15.647 49.355-46.551 49.355-82.039zm-22 328.156c0 39.107-31.851 70.922-71 70.922s-71-31.815-71-70.922c0-39.106 31.851-70.922 71-70.922s71 31.815 71 70.922zm0-164.078c0 39.107-31.851 70.922-71 70.922s-71-31.815-71-70.922 31.851-70.922 71-70.922 71 31.815 71 70.922zm-71-93.156c-39.149 0-71-31.815-71-70.922s31.851-70.922 71-70.922 71 31.815 71 70.922-31.85 70.922-71 70.922z"/><path d="m66.33 80.5c1.731 4.238 6.124 7.003 10.69 6.775 4.594-.229 8.645-3.4 9.988-7.794 1.323-4.329-.243-9.169-3.831-11.922-3.7-2.838-8.918-2.991-12.796-.42-4.315 2.861-6.047 8.589-4.051 13.361z"/><path d="m117.28 80.5c1.734 4.237 6.123 7.003 10.69 6.775 4.603-.23 8.631-3.4 9.984-7.794 1.331-4.324-.244-9.172-3.828-11.922-3.699-2.838-8.918-2.99-12.796-.42-4.316 2.862-6.044 8.587-4.05 13.361z"/><path d="m67.521 111.401c-4.298 4.293-4.301 11.258-.007 15.556 4.293 4.297 11.258 4.301 15.556.007 10.414-10.404 27.36-10.405 37.776 0 2.147 2.146 4.961 3.218 7.774 3.218 2.817 0 5.634-1.075 7.782-3.226 4.294-4.298 4.291-11.263-.007-15.556-18.988-18.969-49.885-18.969-68.874.001z"/><path d="m86.64 400.24c-1.712-4.248-6.142-7.012-10.699-6.783-4.594.232-8.631 3.402-9.978 7.793-1.326 4.32.238 9.177 3.829 11.92 3.702 2.828 8.919 3.005 12.799.42 4.286-2.857 6.071-8.586 4.049-13.35z"/><path d="m117.28 408.65c1.739 4.251 6.113 6.999 10.69 6.775 4.604-.224 8.633-3.392 9.984-7.79 1.329-4.326-.242-9.166-3.828-11.916-3.697-2.835-8.923-3.009-12.796-.42-4.289 2.868-6.074 8.576-4.05 13.351z"/><path d="m494.042 374.852h-256.681c-6.075 0-11 4.925-11 11v66.638c0 6.075 4.925 11 11 11h256.681c6.075 0 11-4.925 11-11v-66.638c0-6.076-4.925-11-11-11zm-11 66.638h-234.681v-44.638h234.681z"/><path d="m237.361 303.625h186.681c6.075 0 11-4.925 11-11v-66.638c0-6.075-4.925-11-11-11h-186.681c-6.075 0-11 4.925-11 11v66.638c0 6.076 4.925 11 11 11zm11-66.638h164.681v44.638h-164.681z"/></g><g><path d="m374.042 141.455h-136.681c-6.075 0-11-4.925-11-11v-66.639c0-6.075 4.925-11 11-11h136.681c6.075 0 11 4.925 11 11v66.638c0 6.076-4.925 11.001-11 11.001zm-125.681-22h114.681v-44.639h-114.681z" fill="#0496FF"/></g></g></g><g/><g/><g/><g/><g/><g/><g/><g/><g/><g/><g/><g/><g/><g/><g/></svg>