<svg id="Layer_1" enable-background="new 0 0 512 512" viewBox="0 0 512 512" xmlns="http://www.w3.org/2000/svg" fill="#052438"><g><g><g><path d="m281.922 431.152h-51.844c-6.075 0-11-4.925-11-11s4.925-11 11-11h51.844c6.075 0 11 4.925 11 11s-4.925 11-11 11z" fill="#0496FF"/></g><g><path d="m277.365 114.953c-7.783 0-15.139 2.547-21.094 7.053-6.033-4.756-13.585-7.449-21.637-7.449-19.266 0-34.939 15.639-34.939 34.862 0 40.305 49.374 63.85 51.477 64.832 1.476.69 3.066 1.035 4.658 1.035 1.567 0 3.136-.335 4.594-1.005 1.209-.556 29.765-13.874 43.882-37.217 5.308-8.775 7.999-17.942 7.999-27.248 0-19.223-15.674-34.863-34.94-34.863zm8.116 50.726c-7.705 12.739-22.243 22.049-29.653 26.204-12.581-7.13-34.133-23.327-34.133-42.464 0-7.093 5.805-12.862 12.939-12.862 4.963 0 9.413 2.755 11.612 7.189 1.841 3.71 5.609 6.072 9.751 6.111 4.112.033 7.953-2.252 9.863-5.927 2.237-4.304 6.646-6.978 11.504-6.978 7.135 0 12.939 5.771 12.939 12.863.002 5.235-1.621 10.572-4.822 15.864z"/><path d="m405.952 114.953c-7.783 0-15.139 2.547-21.094 7.053-6.033-4.756-13.586-7.449-21.638-7.449-19.265 0-34.938 15.639-34.938 34.862 0 40.305 49.374 63.85 51.477 64.832 1.476.69 3.066 1.035 4.658 1.035 1.567 0 3.136-.335 4.594-1.005 1.209-.556 29.765-13.874 43.883-37.218 5.307-8.776 7.998-17.944 7.998-27.247 0-19.223-15.674-34.863-34.94-34.863zm8.116 50.726c-7.705 12.739-22.243 22.049-29.653 26.204-12.581-7.13-34.133-23.327-34.133-42.464 0-7.093 5.804-12.862 12.938-12.862 4.964 0 9.414 2.755 11.613 7.189 1.841 3.71 5.609 6.072 9.751 6.111h.104c4.101 0 7.865-2.283 9.759-5.927 2.237-4.304 6.646-6.978 11.504-6.978 7.135 0 12.939 5.771 12.939 12.863.002 5.234-1.621 10.571-4.822 15.864z"/><path d="m148.778 114.953c-7.783 0-15.139 2.547-21.094 7.053-6.033-4.756-13.585-7.449-21.637-7.449-19.266 0-34.939 15.639-34.939 34.862 0 40.305 49.374 63.85 51.477 64.832 1.476.69 3.066 1.035 4.658 1.035 1.567 0 3.136-.335 4.594-1.005 1.209-.556 29.765-13.874 43.882-37.217 5.308-8.775 7.999-17.942 7.999-27.248 0-19.223-15.674-34.863-34.94-34.863zm8.117 50.726c-7.705 12.739-22.243 22.049-29.653 26.204-12.581-7.13-34.133-23.327-34.133-42.464 0-7.093 5.805-12.862 12.939-12.862 4.963 0 9.413 2.755 11.612 7.189 1.841 3.71 5.609 6.072 9.751 6.111 4.146.033 7.953-2.252 9.863-5.927 2.237-4.304 6.646-6.978 11.504-6.978 7.135 0 12.939 5.771 12.939 12.863.001 5.235-1.622 10.572-4.822 15.864z"/><path d="m501 366.414h-10.944v-276.428c0-28.605-23.276-51.878-51.887-51.878h-364.338c-28.61 0-51.887 23.272-51.887 51.878v276.428h-10.944c-6.075 0-11 4.925-11 11v44.503c0 28.659 23.315 51.975 51.974 51.975h408.053c28.658 0 51.974-23.315 51.974-51.975v-44.503c-.001-6.075-4.926-11-11.001-11zm-457.056-276.428c0-16.475 13.407-29.878 29.887-29.878h364.338c16.479 0 29.887 13.403 29.887 29.878v276.428h-424.112zm446.056 331.931c0 16.528-13.446 29.975-29.974 29.975h-408.052c-16.528 0-29.974-13.447-29.974-29.975v-33.503h468z"/></g></g><path d="m421.188 251.791h-330.376c-6.075 0-11 4.925-11 11v50.241c0 6.075 4.925 11 11 11h330.375c6.075 0 11-4.925 11-11v-50.241c.001-6.075-4.924-11-10.999-11zm-319.376 22h202.879v28.241h-202.879zm308.376 28.241h-83.496v-28.241h83.496z" fill="#0496FF"/></g><g/><g/><g/><g/><g/><g/><g/><g/><g/><g/><g/><g/><g/><g/><g/></svg>