<svg id="Layer_1" enable-background="new 0 0 512 512" viewBox="0 0 512 512" xmlns="http://www.w3.org/2000/svg" fill="#E6ECF2"><g><g><g><path d="m325.99 150.5c-2.875 0-5.752-1.16-7.771-3.22-.51-.5-.97-1.07-1.37-1.67-.399-.59-.74-1.23-1.01-1.9-.28-.66-.49-1.35-.63-2.06-.141-.7-.22-1.43-.22-2.14 0-.72.079-1.45.22-2.15.14-.71.35-1.4.63-2.06.27-.67.61-1.3 1.01-1.9s.86-1.17 1.37-1.67c5.338-5.359 14.652-3.623 17.785 3.238 3.264 7.148-2.164 15.532-10.014 15.532z" fill="#0496FF"/></g><g><path d="m367.81 150.5c-4.464 0-8.571-2.794-10.219-6.938-1.651-4.153-.564-9.025 2.698-12.083 3.406-3.193 8.588-3.86 12.703-1.673 4.105 2.182 6.436 6.904 5.672 11.492-.874 5.246-5.536 9.202-10.854 9.202z" fill="#0496FF"/></g><g><path d="m409.63 150.51c-6.826 0-12.12-6.461-10.79-13.15 1.319-6.632 8.551-10.563 14.832-8.077 3.439 1.361 6.019 4.446 6.739 8.077.149.7.22 1.43.22 2.14 0 .72-.07 1.44-.22 2.15-1.006 5.072-5.606 8.86-10.781 8.86z" fill="#0496FF"/></g></g><g><path d="m292.188 380.142-13.447-.872-4.981-12.487c-2.917-7.308-9.888-12.029-17.761-12.029-7.872.001-14.842 4.723-17.758 12.029l-4.982 12.486-13.447.872c-7.865.51-14.518 5.68-16.948 13.172-2.429 7.485-.083 15.569 5.977 20.594l10.351 8.583-3.318 13.01c-1.943 7.62.912 15.534 7.273 20.162 6.371 4.634 14.792 4.914 21.458.711l11.395-7.184 11.396 7.187c3.145 1.983 6.682 2.968 10.21 2.968 3.947 0 7.883-1.233 11.247-3.68 6.361-4.628 9.217-12.542 7.274-20.163l-3.318-13.01 10.351-8.583c6.061-5.025 8.406-13.109 5.978-20.594-2.432-7.491-9.084-12.662-16.95-13.172zm-18.779 29.857c-3.271 2.713-4.688 7.068-3.638 11.186l3.246 12.727-11.149-7.032c-1.793-1.131-3.83-1.696-5.868-1.696-2.037 0-4.075.565-5.868 1.696l-11.149 7.031 3.245-12.727c1.05-4.118-.366-8.473-3.637-11.186l-10.098-8.374 13.12-.851c4.234-.274 7.932-2.959 9.505-6.9l4.882-12.234 4.882 12.235c1.572 3.941 5.271 6.626 9.505 6.901l13.12.851z"/><path d="m414.003 380.142-13.447-.872-4.981-12.487c-2.916-7.307-9.888-12.029-17.76-12.029s-14.844 4.722-17.76 12.029v.001l-4.981 12.486-13.447.872c-7.865.51-14.518 5.681-16.949 13.173-2.429 7.485-.082 15.569 5.979 20.593l10.35 8.583-3.318 13.011c-1.942 7.62.913 15.534 7.274 20.162 6.371 4.634 14.793 4.913 21.458.711l11.396-7.187 11.396 7.187c3.145 1.983 6.682 2.968 10.21 2.968 3.947 0 7.883-1.233 11.247-3.68 6.361-4.628 9.217-12.542 7.274-20.163l-3.318-13.01 10.351-8.583c6.061-5.025 8.406-13.109 5.978-20.594-2.434-7.49-9.087-12.661-16.952-13.171zm-18.779 29.857c-3.271 2.713-4.688 7.068-3.638 11.186l3.246 12.727-11.149-7.032c-3.586-2.261-8.15-2.261-11.736 0l-11.149 7.032 3.246-12.727c1.05-4.118-.366-8.473-3.638-11.186l-10.098-8.374 13.12-.851c4.233-.274 7.933-2.96 9.505-6.901l4.882-12.235 4.882 12.235c1.572 3.941 5.271 6.626 9.505 6.901l13.12.851z"/><path d="m170.374 380.142-13.447-.872-4.982-12.486c-2.915-7.307-9.886-12.029-17.759-12.03-7.873 0-14.844 4.722-17.76 12.029l-4.982 12.486-13.447.872c-7.865.51-14.518 5.68-16.948 13.172-2.429 7.485-.083 15.569 5.977 20.594l10.351 8.583-3.318 13.01c-1.943 7.62.912 15.534 7.273 20.162 6.37 4.634 14.792 4.914 21.458.711l11.396-7.187 11.396 7.188c3.146 1.983 6.683 2.968 10.21 2.968 3.947 0 7.883-1.233 11.247-3.68 6.361-4.628 9.216-12.542 7.273-20.162l-3.318-13.01 10.351-8.583c6.06-5.025 8.406-13.109 5.977-20.594-2.43-7.491-9.083-12.661-16.948-13.171zm-18.779 29.857c-3.271 2.713-4.688 7.067-3.637 11.186l3.245 12.727-11.149-7.031c-1.792-1.13-3.83-1.696-5.868-1.696s-4.075.565-5.868 1.696l-11.149 7.031 3.245-12.727c1.05-4.118-.366-8.473-3.637-11.186l-10.098-8.374 13.12-.851c4.234-.274 7.933-2.959 9.505-6.9l4.882-12.236 4.882 12.236c1.573 3.941 5.271 6.626 9.505 6.9l13.12.851z"/><path d="m305.167 214.759v8.019c0 3.832 1.994 7.387 5.264 9.386 1.756 1.073 3.744 1.614 5.736 1.614 1.718 0 3.438-.402 5.017-1.21l34.647-17.755h72.807c16.98 0 30.796-13.809 30.796-30.782v-90.119c0-16.973-13.815-30.781-30.796-30.781h-121.655c-16.98 0-30.796 13.809-30.796 30.781v90.118c0 16.364 12.84 29.787 28.98 30.729zm-6.979-120.847c0-4.842 3.946-8.781 8.796-8.781h121.654c4.85 0 8.796 3.939 8.796 8.781v90.118c0 4.842-3.946 8.782-8.796 8.782h-75.461c-1.744 0-3.464.415-5.017 1.21l-20.993 10.758v-.969c0-6.075-4.925-11-11-11h-9.184c-4.85 0-8.796-3.939-8.796-8.782v-90.117z"/><path d="m63.566 285.764h193.283c6.075 0 11-4.925 11-11v-32.977c0-36.223-23.88-66.972-56.723-77.334 17.874-14.718 29.289-37.008 29.289-61.915v-22.356c0-44.213-35.97-80.182-80.232-80.182-44.213 0-80.182 35.969-80.182 80.182v22.356c0 24.907 11.415 47.197 29.289 61.915-32.844 10.362-56.724 41.112-56.724 77.334v32.977c0 6.075 4.925 11 11 11zm38.435-183.226v-22.356c0-32.082 26.1-58.182 58.232-58.182 32.082 0 58.182 26.1 58.182 58.182v22.356c0 32.081-26.1 58.181-58.182 58.181h-.05c-32.082 0-58.182-26.1-58.182-58.181zm-27.435 139.25c0-32.57 26.498-59.068 59.068-59.068h53.146c32.57 0 59.068 26.498 59.068 59.068v21.977h-171.282z"/><path d="m445.905 307.567h-379.81c-23.56 0-42.728 19.157-42.728 42.704v119.024c0 23.547 19.167 42.704 42.728 42.704h379.811c23.561 0 42.728-19.157 42.728-42.704v-119.024c-.001-23.547-19.168-42.704-42.729-42.704zm20.728 161.729c0 11.417-9.298 20.704-20.728 20.704h-379.81c-11.429 0-20.728-9.288-20.728-20.704v-119.025c0-11.417 9.298-20.704 20.728-20.704h379.811c11.43 0 20.728 9.288 20.728 20.704v119.025z"/></g></g><g/><g/><g/><g/><g/><g/><g/><g/><g/><g/><g/><g/><g/><g/><g/></svg>