<svg id="Layer_1" enable-background="new 0 0 512 512" viewBox="0 0 512 512" xmlns="http://www.w3.org/2000/svg" fill="#052438"><g><g><g><g><path d="m413.613 208.291c-4.511 0-8.564-2.754-10.227-6.948l-8.657-21.85c-2.119-5.35-6.421-9.63-11.805-11.743l-21.948-8.617c-4.211-1.653-6.98-5.716-6.98-10.239s2.77-8.586 6.979-10.239l21.949-8.618c5.384-2.113 9.686-6.393 11.805-11.741l8.657-21.851c1.662-4.193 5.716-6.948 10.227-6.948 4.512 0 8.565 2.755 10.227 6.948l8.656 21.85c2.12 5.35 6.422 9.63 11.804 11.742h.001l21.95 8.618c4.21 1.653 6.979 5.716 6.979 10.239s-2.77 8.586-6.98 10.239l-21.95 8.617c-5.382 2.113-9.685 6.394-11.804 11.743l-8.656 21.85c-1.661 4.193-5.715 6.948-10.227 6.948zm-19.024-59.397c8.196 4.135 14.895 10.825 19.024 19.004 4.13-8.179 10.829-14.869 19.023-19.004-8.194-4.135-14.894-10.825-19.023-19.004-4.13 8.178-10.829 14.869-19.024 19.004z" fill="#0496FF"/></g></g><g><g><path d="m256 129.632c-4.512 0-8.565-2.755-10.227-6.948l-8.656-21.851c-2.119-5.349-6.423-9.629-11.806-11.742l-21.948-8.617c-4.211-1.653-6.98-5.716-6.98-10.239s2.77-8.586 6.979-10.239l21.949-8.618c5.384-2.113 9.687-6.393 11.806-11.742l8.656-21.851c1.661-4.193 5.715-6.948 10.227-6.948s8.565 2.755 10.227 6.948l8.656 21.851c2.119 5.35 6.422 9.629 11.805 11.742h.001l21.949 8.618c4.21 1.653 6.979 5.716 6.979 10.239s-2.77 8.586-6.98 10.239l-21.949 8.617c-5.382 2.113-9.686 6.394-11.805 11.742l-8.656 21.851c-1.662 4.193-5.715 6.948-10.227 6.948zm-19.024-59.398c8.195 4.135 14.894 10.825 19.024 19.003 4.131-8.179 10.829-14.868 19.024-19.003-8.195-4.134-14.893-10.825-19.024-19.003-4.131 8.179-10.829 14.869-19.024 19.003z" fill="#0496FF"/></g></g><g><g><path d="m98.387 284.881c-4.512 0-8.565-2.755-10.227-6.948l-8.656-21.85c-2.119-5.35-6.422-9.63-11.805-11.743l-21.949-8.617c-4.211-1.653-6.98-5.716-6.98-10.239s2.77-8.586 6.979-10.239l21.95-8.618c5.383-2.112 9.685-6.393 11.805-11.742l8.656-21.851c1.661-4.193 5.715-6.948 10.227-6.948 4.511 0 8.564 2.754 10.227 6.948l8.657 21.851c2.119 5.35 6.421 9.629 11.804 11.742h.001l21.949 8.618c4.21 1.653 6.979 5.716 6.979 10.239s-2.77 8.586-6.98 10.239l-21.949 8.617c-5.383 2.113-9.685 6.394-11.804 11.742l-8.657 21.851c-1.663 4.194-5.717 6.948-10.227 6.948zm-19.024-59.398c8.195 4.135 14.894 10.825 19.023 19.004 4.13-8.178 10.829-14.869 19.024-19.004-8.195-4.135-14.894-10.825-19.024-19.004-4.13 8.179-10.829 14.871-19.023 19.004z" fill="#0496FF"/></g></g><path d="m501 426.951h-27.634v-183.582c0-6.075-4.925-11-11-11h-97.506c-6.075 0-11 4.925-11 11v183.582h-38.107v-250.081c0-6.075-4.925-11-11-11h-97.506c-6.075 0-11 4.925-11 11v250.081h-38.107v-108.445c0-6.075-4.925-11-11-11h-97.506c-6.075 0-11 4.925-11 11v108.445h-27.634c-6.075 0-11 4.925-11 11v52.213c0 6.075 4.925 11 11 11h490c6.075 0 11-4.925 11-11v-52.213c0-6.075-4.925-11-11-11zm-125.14-172.582h75.506v172.582h-75.506zm-157.613-66.499h75.506v239.081h-75.506zm-157.613 141.636h75.506v97.445h-75.506zm429.366 149.658h-468v-30.213h468z"/></g></g><g/><g/><g/><g/><g/><g/><g/><g/><g/><g/><g/><g/><g/><g/><g/></svg>