<svg id="Layer_1" enable-background="new 0 0 512 512" viewBox="0 0 512 512" xmlns="http://www.w3.org/2000/svg" fill="#052438"><g><g><g><g><path d="m315.543 331.476c-6.075 0-11-4.925-11-11v-7.822c0-6.075 4.925-11 11-11s11 4.925 11 11v7.822c0 6.075-4.925 11-11 11z" fill="#0496FF"/></g><g><path d="m315.543 384.289c-6.075 0-11-4.925-11-11v-7.821c0-6.075 4.925-11 11-11s11 4.925 11 11v7.821c0 6.075-4.925 11-11 11z" fill="#0496FF"/></g></g><g><g><path d="m345.984 353.971h-7.854c-6.075 0-11-4.925-11-11s4.925-11 11-11h7.854c6.075 0 11 4.925 11 11s-4.924 11-11 11z" fill="#0496FF"/></g><g><path d="m292.956 353.971h-7.854c-6.075 0-11-4.925-11-11s4.925-11 11-11h7.854c6.075 0 11 4.925 11 11s-4.925 11-11 11z" fill="#0496FF"/></g></g></g><g><path d="m291.436 71.101-13.012-.845-4.823-12.1c-2.89-7.246-9.798-11.928-17.601-11.928s-14.711 4.682-17.601 11.928v.001l-4.823 12.099-13.012.845c-7.791.506-14.383 5.629-16.793 13.053-2.41 7.42-.087 15.436 5.918 20.419l10.022 8.319-3.214 12.614c-1.926 7.558.907 15.405 7.217 19.992 6.312 4.59 14.659 4.863 21.259.697l11.026-6.96 11.026 6.96c3.118 1.968 6.623 2.945 10.122 2.945 3.907 0 7.806-1.22 11.137-3.642 6.31-4.587 9.143-12.435 7.217-19.993l-3.214-12.613 10.022-8.319c6.005-4.983 8.328-12.999 5.918-20.419-2.409-7.424-9-12.548-16.791-13.053zm-18.55 29.303c-3.269 2.713-4.683 7.065-3.634 11.181l3.036 11.915-10.417-6.575c-3.586-2.264-8.156-2.264-11.742 0l-10.417 6.575 3.036-11.915c1.049-4.116-.365-8.468-3.634-11.181l-9.455-7.848 12.275-.797c4.234-.275 7.934-2.962 9.505-6.904l4.561-11.439 4.561 11.44c1.571 3.942 5.271 6.629 9.505 6.904l12.275.797z"/><path d="m410.663 71.101-13.013-.845-4.823-12.098c-2.888-7.247-9.797-11.929-17.6-11.929-7.804 0-14.713 4.683-17.601 11.929l-4.824 12.098-13.012.845c-7.79.506-14.382 5.629-16.793 13.052-2.409 7.42-.087 15.436 5.918 20.42l10.023 8.319-3.214 12.613c-1.926 7.558.907 15.405 7.216 19.992 6.315 4.59 14.66 4.862 21.259.697l11.026-6.96 11.026 6.96c3.118 1.968 6.623 2.945 10.122 2.945 3.907 0 7.806-1.22 11.137-3.642 6.31-4.587 9.143-12.435 7.217-19.992l-3.214-12.613 10.023-8.32c6.005-4.984 8.327-12.999 5.917-20.419-2.408-7.424-9-12.547-16.79-13.052zm-18.55 29.303c-3.269 2.713-4.683 7.064-3.634 11.18l3.035 11.916-10.417-6.576c-1.793-1.132-3.832-1.698-5.871-1.698s-4.078.566-5.871 1.698l-10.416 6.575 3.035-11.915c1.049-4.116-.365-8.467-3.634-11.18l-9.455-7.848 12.275-.797c4.234-.275 7.934-2.961 9.505-6.903l4.561-11.439 4.561 11.439c1.571 3.942 5.271 6.629 9.505 6.904l12.276.797z"/><path d="m172.209 71.101-13.012-.845-4.824-12.098c-2.888-7.247-9.797-11.929-17.601-11.929-7.803 0-14.712 4.683-17.6 11.929l-4.823 12.099-13.013.845c-7.79.506-14.382 5.629-16.792 13.052-2.41 7.42-.088 15.435 5.917 20.419l10.023 8.319-3.214 12.613c-1.926 7.558.907 15.405 7.217 19.992 3.331 2.422 7.229 3.642 11.137 3.642 3.498 0 7.005-.977 10.122-2.945l11.026-6.96 11.026 6.96c6.598 4.165 14.942 3.893 21.259-.697 6.309-4.587 9.142-12.434 7.216-19.992l-3.214-12.613 10.023-8.32c6.005-4.984 8.327-12.999 5.918-20.419-2.409-7.424-9.001-12.547-16.791-13.052zm-18.55 29.303c-3.269 2.713-4.683 7.064-3.634 11.18l3.035 11.915-10.416-6.575c-3.586-2.264-8.156-2.264-11.742 0l-10.417 6.576 3.035-11.916c1.049-4.116-.365-8.467-3.634-11.18l-9.455-7.848 12.276-.797c4.234-.275 7.934-2.962 9.505-6.904l4.561-11.439 4.561 11.439c1.571 3.942 5.271 6.628 9.505 6.903l12.275.797z"/><path d="m327.042 229.425c-27.805 0-53.505 12.538-70.505 33.609-16.946-21.893-43.054-34.929-71.579-34.929-49.956 0-90.599 40.544-90.599 90.38 0 27.725 8.457 55.233 25.137 81.761 13.055 20.761 31.161 40.959 53.816 60.034 38.189 32.153 75.876 49.943 77.462 50.684 1.477.691 3.068 1.036 4.66 1.036 1.568 0 3.137-.335 4.596-1.006 3.728-1.714 91.785-42.793 134.708-113.795 15.197-25.138 22.902-51.177 22.902-77.395.001-49.835-40.642-90.379-90.598-90.379zm48.87 156.392c-34.051 56.324-102.104 93.602-120.438 102.908-24.628-12.709-139.115-76.845-139.115-170.24 0-37.705 30.773-68.38 68.599-68.38 26.286 0 49.861 14.612 61.525 38.134 1.84 3.711 5.608 6.074 9.751 6.113 4.134.043 7.955-2.252 9.865-5.928 11.856-22.822 35.208-37 60.942-37 37.825 0 68.599 30.675 68.599 68.38.001 22.149-6.637 44.359-19.728 66.013z"/><path d="m441.871 0h-371.742c-23.189 0-42.054 18.868-42.054 42.06v116.605c0 23.192 18.865 42.06 42.054 42.06h153.813l24.401 23.654c2.133 2.068 4.895 3.102 7.656 3.102s5.523-1.034 7.656-3.102l24.401-23.654h153.813c23.188 0 42.054-18.868 42.054-42.06v-116.605c.002-23.192-18.863-42.06-42.052-42.06zm20.054 158.665c0 11.061-8.996 20.06-20.054 20.06h-158.27c-2.858 0-5.604 1.112-7.656 3.102l-19.945 19.334-19.945-19.334c-2.052-1.989-4.798-3.102-7.656-3.102h-158.27c-11.058 0-20.054-8.999-20.054-20.06v-116.605c0-11.061 8.996-20.06 20.054-20.06h371.742c11.058 0 20.054 8.999 20.054 20.06z"/></g></g><g/><g/><g/><g/><g/><g/><g/><g/><g/><g/><g/><g/><g/><g/><g/></svg>