<svg id="Layer_1" enable-background="new 0 0 512 512" viewBox="0 0 512 512" xmlns="http://www.w3.org/2000/svg" fill="#E6ECF2"><g><g><g><path d="m136.528 400.937c1.563 0 3.126-.333 4.581-.999 3.138-1.438 77.278-35.888 113.466-95.515 12.89-21.238 19.426-43.257 19.426-65.446 0-42.532-34.802-77.135-77.579-77.135-23.042 0-44.396 10.022-58.943 26.97-14.528-17.632-36.245-28.069-59.9-28.069-42.777-.001-77.579 34.602-77.579 77.134 0 41.621 23.063 82.961 66.696 119.552 32.123 26.938 63.852 41.857 65.187 42.479 1.472.686 3.058 1.029 4.645 1.029zm-114.528-163.06c0-30.401 24.933-55.135 55.579-55.135 21.305 0 40.409 11.789 49.857 30.767 1.843 3.703 5.608 6.058 9.744 6.097 4.147.073 7.944-2.246 9.856-5.912 9.604-18.414 28.528-29.852 49.386-29.852 30.646 0 55.579 24.733 55.579 55.135 0 18.105-5.461 36.284-16.233 54.032-27.759 45.738-82.908 76.33-99.194 84.646-21.932-11.409-114.574-64.103-114.574-139.778z"/><path d="m501 300.182h-155.854c-8.141 0-15.991 2.429-22.704 7.023l-75.201 51.479c-19.227 13.162-26.398 37.054-18.734 57.97h-101.257c-21.178 0-38.407 17.184-38.407 38.305s17.229 38.304 38.407 38.304h154.235c11.413 0 22.573-3.956 31.424-11.138l73.174-59.376h33.019v14.556c0 6.075 4.925 11 11 11h70.898c6.075 0 11-4.925 11-11v-126.123c0-6.076-4.925-11-11-11zm-118.817 100.567c-2.524 0-4.971.868-6.931 2.458l-76.204 61.834c-4.944 4.012-11.181 6.221-17.562 6.221h-154.236c-9.047 0-16.407-7.314-16.407-16.304s7.36-16.305 16.407-16.305h120.175c2.003.014 4.04-.493 5.869-1.608.002-.001.005-.003.008-.005l.012-.007c.007-.004.014-.009.021-.013l95.57-58.85c3.375-2.078 5.233-5.684 5.234-9.376 0-1.968-.527-3.96-1.635-5.758-3.186-5.173-9.962-6.783-15.134-3.599l-86.559 53.301c-6.633-12.399-2.983-27.793 8.859-35.901l75.2-51.479c3.037-2.079 6.59-3.177 10.276-3.177h73.957v78.567h-36.92zm107.817 25.556h-48.897v-104.123h48.897z"/></g><g><path d="m299.673 194.61c-4.512 0-8.567-2.756-10.228-6.951l-7.71-19.476c-1.766-4.46-5.351-8.029-9.836-9.792l-19.549-7.681c-4.209-1.654-6.977-5.716-6.977-10.238s2.768-8.584 6.977-10.238l19.549-7.681c4.485-1.762 8.07-5.331 9.836-9.792l7.71-19.476c1.661-4.195 5.715-6.951 10.228-6.951s8.567 2.756 10.228 6.951l7.71 19.476c1.766 4.46 5.351 8.029 9.836 9.792l19.548 7.681c4.209 1.654 6.977 5.715 6.977 10.238s-2.768 8.584-6.977 10.238l-19.548 7.681c-4.485 1.763-8.07 5.332-9.836 9.792l-7.71 19.476c-1.661 4.195-5.716 6.951-10.228 6.951zm-14.429-54.137c5.979 3.459 10.97 8.446 14.429 14.416 3.458-5.97 8.45-10.957 14.429-14.416-5.979-3.459-10.971-8.446-14.429-14.416-3.459 5.969-8.45 10.956-14.429 14.416z" fill="#0496FF"/></g><g><path d="m207.89 135.472c-4.512 0-8.567-2.756-10.228-6.951l-8.466-21.385c-2.049-5.175-6.207-9.314-11.409-11.359l-21.465-8.434c-4.209-1.654-6.978-5.716-6.978-10.238s2.768-8.584 6.977-10.238l21.465-8.435c5.202-2.044 9.36-6.184 11.409-11.359l8.466-21.385c1.661-4.195 5.715-6.951 10.228-6.951s8.567 2.756 10.228 6.951l8.466 21.385c2.049 5.175 6.207 9.314 11.409 11.358l21.465 8.435c4.209 1.654 6.977 5.715 6.977 10.238s-2.768 8.584-6.978 10.238l-21.465 8.434c-5.202 2.044-9.36 6.184-11.409 11.358l-8.466 21.385c-1.659 4.197-5.714 6.953-10.226 6.953zm-18.087-58.368c7.734 4.01 14.079 10.349 18.087 18.07 4.008-7.721 10.353-14.06 18.087-18.071-7.734-4.01-14.079-10.349-18.087-18.07-4.008 7.722-10.353 14.061-18.087 18.071z" fill="#0496FF"/></g></g></g><g/><g/><g/><g/><g/><g/><g/><g/><g/><g/><g/><g/><g/><g/><g/></svg>