<svg id="Capa_1" enable-background="new 0 0 512 512" viewBox="0 0 512 512" xmlns="http://www.w3.org/2000/svg" fill="#E6ECF2"><g><g fill="#0496FF"><path d="m450.906 358.279h-51.536c-6.075 0-11 4.925-11 11s4.925 11 11 11h51.537c6.075 0 11-4.925 11-11s-4.926-11-11.001-11z"/><path d="m338.113 358.279h-51.537c-6.075 0-11 4.925-11 11s4.925 11 11 11h51.537c6.075 0 11-4.925 11-11s-4.925-11-11-11z"/><path d="m225.319 358.279h-51.537c-6.075 0-11 4.925-11 11s4.925 11 11 11h51.537c6.075 0 11-4.925 11-11s-4.924-11-11-11z"/><path d="m112.526 358.279h-51.537c-6.075 0-11 4.925-11 11s4.925 11 11 11h51.537c6.075 0 11-4.925 11-11s-4.925-11-11-11z"/><path d="m230.045 47.583c0-26.237-21.359-47.583-47.615-47.583-26.255 0-47.615 21.346-47.615 47.583 0 3.859.466 7.703 1.384 11.424 1.456 5.898 7.419 9.498 13.315 8.044 5.898-1.456 9.5-7.417 8.044-13.315-.493-1.998-.743-4.067-.743-6.152 0-14.107 11.491-25.584 25.615-25.584 14.125 0 25.615 11.477 25.615 25.583s-11.491 25.583-25.615 25.583c-4.355 0-8.651-1.107-12.423-3.202-5.309-2.949-12.006-1.035-14.957 4.275-2.95 5.311-1.036 12.008 4.275 14.957 7.031 3.905 15.021 5.97 23.105 5.97 26.256 0 47.615-21.346 47.615-47.583z"/></g><g><path d="m500.895 226.559h-75.606v-27.014c6.176 1.822 12.618 2.761 19.153 2.761 37.252 0 67.559-30.3 67.559-67.543 0-9.516-2.022-18.958-5.878-27.581 1.533-5.616 2.308-11.428 2.308-17.335 0-28.408-18.148-53.46-44.688-62.503-10.629-16.983-29.161-27.344-49.447-27.344-20.523 0-39.18 10.557-49.75 27.848-8.57 3.152-16.23 8.026-22.642 14.14-7.924-10.249-14.432-21.453-19.399-33.439-1.703-4.109-5.712-6.788-10.161-6.789 0 0 0 0-.001 0-4.447 0-8.457 2.678-10.161 6.786-10.317 24.876-27.316 46.457-49.161 62.411-3.578 2.612-5.239 7.115-4.215 11.425s4.533 7.585 8.903 8.31c.292.048.587.089.879.136-7.997 10.148-17.285 19.188-27.753 26.978-3.426 2.549-5.067 6.851-4.209 11.034s4.06 7.492 8.212 8.487c1.908.457 3.823.892 5.74 1.315-9.493 10.82-20.48 20.154-32.82 27.841-3.633 2.264-5.624 6.43-5.102 10.679.522 4.25 3.463 7.81 7.537 9.126 29.443 9.512 60.054 14.815 91.146 15.83v24.441h-199.26v-26.474c5.415 1.488 11.033 2.272 16.731 2.272 34.748 0 63.018-28.263 63.018-63.003 0-8.77-1.841-17.474-5.355-25.438 1.376-5.147 2.072-10.467 2.072-15.871 0-26.4-16.799-49.695-41.402-58.219-9.961-15.717-27.199-25.297-46.056-25.297-19.083 0-36.44 9.763-46.348 25.772-23.817 8.896-40.079 32.004-40.079 57.744 0 4.727.533 9.398 1.587 13.942-4.099 8.495-6.247 17.865-6.247 27.367 0 34.74 28.27 63.003 63.018 63.003 5.815 0 11.546-.811 17.061-2.357v26.559h-69.079c-6.075 0-11 4.925-11 11v263.441c0 6.075 4.925 11 11 11h489.895c6.075 0 11-4.925 11-11v-263.441c0-6.076-4.925-11-11-11zm-437.877-46.202c-22.618 0-41.018-18.393-41.018-41.003 0-7.23 1.906-14.333 5.511-20.54 1.558-2.681 1.912-5.895.975-8.85-1.211-3.82-1.826-7.831-1.826-11.92 0-17.564 11.768-33.221 28.616-38.072 2.936-.845 5.387-2.873 6.768-5.599 5.578-11.007 16.706-17.845 29.042-17.845 12.225 0 23.309 6.745 28.926 17.604 1.432 2.767 3.969 4.797 6.983 5.586 17.398 4.558 29.549 20.318 29.549 38.326 0 4.516-.75 8.926-2.23 13.107-1.034 2.922-.788 6.145.679 8.875 3.163 5.889 4.835 12.571 4.835 19.327 0 22.609-18.4 41.003-41.018 41.003-5.813 0-11.502-1.222-16.731-3.559v-21.083l27.126-18.544c5.016-3.429 6.302-10.273 2.874-15.289-3.429-5.015-10.272-6.301-15.289-2.873l-14.711 10.057v-36.245c0-6.075-4.925-11-11-11s-11 4.925-11 11c.005 19.162-.022 65.311 0 83.832-5.319 2.432-11.124 3.705-17.061 3.705zm-41.018 113.841h467.895v150.161h-467.895zm353.095-246.67c2.936-.846 5.387-2.873 6.768-5.599 6.23-12.292 18.658-19.929 32.433-19.929 13.652 0 26.031 7.533 32.305 19.66 1.432 2.767 3.969 4.797 6.983 5.586 19.339 5.065 32.846 22.583 32.846 42.601 0 5.021-.834 9.923-2.48 14.571-1.035 2.922-.788 6.146.679 8.877 3.514 6.541 5.372 13.965 5.372 21.468 0 25.112-20.438 45.543-45.559 45.543-6.668 0-13.188-1.447-19.153-4.212v-24.048l29.914-20.449c5.015-3.429 6.301-10.273 2.873-15.289-3.428-5.015-10.273-6.301-15.289-2.873l-17.498 11.962v-41.23c0-6.075-4.925-11-11-11s-11 4.925-11 11v41.475l-17.856-12.207c-5.016-3.428-11.86-2.143-15.289 2.873-3.428 5.016-2.142 11.86 2.873 15.289l30.272 20.694v23.638c-6.06 2.871-12.707 4.376-19.511 4.376-25.122 0-45.559-20.431-45.559-45.543 0-8.031 2.117-15.921 6.123-22.815 1.558-2.681 1.912-5.895.974-8.851-1.347-4.248-2.03-8.706-2.03-13.25 0-19.523 13.08-36.924 31.809-42.318zm-62.755-10.091c4.683 8.015 10.041 15.629 16.02 22.807-2.038 4.04-3.665 8.301-4.846 12.72-3.725.132-7.459.206-11.169.206-8.939 0-17.889-.383-26.783-1.144 10.393-10.33 19.394-21.955 26.778-34.589zm.004 57.733c3.046 0 6.108-.048 9.168-.131.265 3.407.767 6.778 1.551 10.081-2.97 6.078-4.984 12.583-6.022 19.27-1.567.023-3.136.049-4.697.049-17.026 0-33.997-1.386-50.68-4.131 8.154-8.014 15.456-16.837 21.859-26.388 9.572.824 19.202 1.25 28.821 1.25zm-47.062 47.941c15.539 2.208 31.279 3.329 47.062 3.329 1.627 0 3.263-.028 4.897-.051 2.198 12.608 7.896 24.024 16.065 33.207-6.977.467-13.977.715-20.962.715-25.07 0-49.855-2.981-73.952-8.881 10.009-8.343 19.001-17.811 26.89-28.319zm58.059 59.008c12.917-.424 25.824-1.587 38.508-3.486 6.881 2.368 14.253 3.673 21.929 3.673 6.662 0 13.227-.973 19.511-2.863v27.116h-79.947v-24.44zm166.554 46.44v23.64h-467.895v-23.64zm-467.895 241.441v-23.641h467.895v23.641z"/></g></g><g/><g/><g/><g/><g/><g/><g/><g/><g/><g/><g/><g/><g/><g/><g/></svg>