<svg id="Capa_1" enable-background="new 0 0 512 512" viewBox="0 0 512 512" xmlns="http://www.w3.org/2000/svg" fill="#E6ECF2"><g><g fill="#0496FF"><path d="m112.547 134.118h-51.547c-6.075 0-11 4.925-11 11s4.925 11 11 11h51.548c6.075 0 11-4.925 11-11s-4.925-11-11.001-11z"/><path d="m215.364 134.118h-41.547c-6.075 0-11 4.925-11 11s4.925 11 11 11h41.547c6.075 0 11-4.925 11-11s-4.925-11-11-11z"/><path d="m338.183 134.118h-41.547c-6.075 0-11 4.925-11 11s4.925 11 11 11h41.547c6.075 0 11-4.925 11-11s-4.925-11-11-11z"/><path d="m451 134.118h-51.548c-6.075 0-11 4.925-11 11s4.925 11 11 11h51.548c6.075 0 11-4.925 11-11s-4.924-11-11-11z"/><path d="m256 391.453c-6.075 0-11 4.925-11 11v51.547c0 6.075 4.925 11 11 11s11-4.925 11-11v-51.548c0-6.075-4.925-10.999-11-10.999z"/><path d="m256 278.635c-6.075 0-11 4.925-11 11v51.548c0 6.075 4.925 11 11 11s11-4.925 11-11v-51.548c0-6.075-4.925-11-11-11z"/><path d="m256 175.818c-6.075 0-11 4.925-11 11v41.547c0 6.075 4.925 11 11 11s11-4.925 11-11v-41.547c0-6.075-4.925-11-11-11z"/></g><g><path d="m501 0h-490c-6.075 0-11 4.925-11 11v268.23c0 6.075 4.924 11 11 11l99.88.004v210.766c0 6.075 4.925 11 11 11h268.24c6.075 0 11-4.925 11-11v-210.77h99.88c6.075 0 11-4.925 11-11v-268.23c0-6.075-4.925-11-11-11zm-168.35 232.77v257.23h-153.3v-257.23c0-6.075-4.925-11-11-11h-146.35v-153.3h468v153.3h-146.35c-6.075 0-11 4.925-11 11zm157.35-210.77v24.47h-468v-24.47zm-368.12 246.235-99.88-.005v-24.46h135.35v246.23h-24.47v-210.765c0-6.075-4.925-11-11-11zm268.24-.005c-6.075 0-11 4.925-11 11v210.77h-24.47v-246.23h135.35v24.46z"/></g></g><g/><g/><g/><g/><g/><g/><g/><g/><g/><g/><g/><g/><g/><g/><g/></svg>