<svg id="Capa_1" enable-background="new 0 0 512 512" viewBox="0 0 512 512" xmlns="http://www.w3.org/2000/svg" fill="#052438"><g><g fill="#0496FF"><path d="m145.117 388.453c-6.075 0-11 4.925-11 11v51.547c0 6.075 4.925 11 11 11s11-4.925 11-11v-51.548c0-6.075-4.925-10.999-11-10.999z"/><path d="m145.117 275.635c-6.075 0-11 4.925-11 11v51.548c0 6.075 4.925 11 11 11s11-4.925 11-11v-51.548c0-6.075-4.925-11-11-11z"/><path d="m145.117 162.817c-6.075 0-11 4.925-11 11v51.548c0 6.075 4.925 11 11 11s11-4.925 11-11v-51.548c0-6.075-4.925-11-11-11z"/><path d="m145.117 50c-6.075 0-11 4.925-11 11v51.548c0 6.075 4.925 11 11 11s11-4.925 11-11v-51.548c0-6.076-4.925-11-11-11z"/><path d="m366.883 50c-6.075 0-11 4.925-11 11v51.548c0 6.075 4.925 11 11 11s11-4.925 11-11v-51.548c0-6.076-4.925-11-11-11z"/><path d="m366.883 162.817c-6.075 0-11 4.925-11 11v51.548c0 6.075 4.925 11 11 11s11-4.925 11-11v-51.548c0-6.075-4.925-11-11-11z"/><path d="m366.883 275.635c-6.075 0-11 4.925-11 11v51.548c0 6.075 4.925 11 11 11s11-4.925 11-11v-51.548c0-6.075-4.925-11-11-11z"/><path d="m366.883 388.453c-6.075 0-11 4.925-11 11v51.547c0 6.075 4.925 11 11 11s11-4.925 11-11v-51.548c0-6.075-4.925-10.999-11-10.999z"/></g><g><path d="m501 0h-490c-6.075 0-11 4.925-11 11v490c0 6.075 4.925 11 11 11h490c6.075 0 11-4.925 11-11v-490c0-6.075-4.925-11-11-11zm-257.235 22h24.471v468h-24.471zm-22 468h-153.295v-468h153.295zm68.47-468h153.295v468h-153.295zm-268.235 0h24.47v468h-24.47zm468 468h-24.47v-468h24.47z"/></g></g><g/><g/><g/><g/><g/><g/><g/><g/><g/><g/><g/><g/><g/><g/><g/></svg>