<svg id="Capa_1" enable-background="new 0 0 512 512" viewBox="0 0 512 512" xmlns="http://www.w3.org/2000/svg" fill="#052438"><g><g fill="#0496FF"><path d="m225.246 50c-6.075 0-11 4.925-11 11v51.548c0 6.075 4.925 11 11 11s11-4.925 11-11v-51.548c0-6.075-4.925-11-11-11z"/><path d="m225.246 162.818c-6.075 0-11 4.925-11 11v51.548c0 6.075 4.925 11 11 11s11-4.925 11-11v-51.548c0-6.076-4.925-11-11-11z"/><path d="m225.246 275.635c-6.075 0-11 4.925-11 11v51.548c0 6.075 4.925 11 11 11s11-4.925 11-11v-51.548c0-6.075-4.925-11-11-11z"/><path d="m225.246 388.453c-6.075 0-11 4.925-11 11v51.548c0 6.075 4.925 11 11 11s11-4.925 11-11v-51.548c0-6.075-4.925-11-11-11z"/><path d="m283.363 50c-6.075 0-11 4.925-11 11v51.548c0 6.075 4.925 11 11 11s11-4.925 11-11v-51.548c0-6.075-4.925-11-11-11z"/><path d="m283.363 162.818c-6.075 0-11 4.925-11 11v51.548c0 6.075 4.925 11 11 11s11-4.925 11-11v-51.548c0-6.076-4.925-11-11-11z"/><path d="m283.363 275.635c-6.075 0-11 4.925-11 11v51.548c0 6.075 4.925 11 11 11s11-4.925 11-11v-51.548c0-6.075-4.925-11-11-11z"/><path d="m283.363 388.453c-6.075 0-11 4.925-11 11v51.548c0 6.075 4.925 11 11 11s11-4.925 11-11v-51.548c0-6.075-4.925-11-11-11z"/></g><g><path d="m511.731 498.582-110.407-490c-1.13-5.017-5.587-8.582-10.731-8.582-64.045 0-205.138 0-269.186 0-5.144 0-9.601 3.564-10.731 8.582l-110.407 490c-.735 3.261.053 6.678 2.14 9.289 2.088 2.61 5.249 4.129 8.591 4.129h490c3.342 0 6.503-1.52 8.591-4.129 2.087-2.611 2.875-6.028 2.14-9.289zm-179.048-476.582 105.45 468h-364.047l105.45-468zm-202.478 0h26.78l-105.45 468h-26.78zm330.48 468-105.45-468h26.561l105.45 468z"/></g></g><g/><g/><g/><g/><g/><g/><g/><g/><g/><g/><g/><g/><g/><g/><g/></svg>