<svg id="Capa_1" enable-background="new 0 0 512 512" viewBox="0 0 512 512" xmlns="http://www.w3.org/2000/svg" fill="#052438"><g><g><g><g><path d="m451 380.01h-51.548c-6.075 0-11-4.925-11-11s4.925-11 11-11h51.548c6.075 0 11 4.925 11 11s-4.925 11-11 11z" fill="#0496FF"/></g><g><path d="m338.183 380.01h-51.548c-6.075 0-11-4.925-11-11s4.925-11 11-11h51.548c6.075 0 11 4.925 11 11s-4.925 11-11 11z" fill="#0496FF"/></g><g><path d="m225.365 380.01h-51.548c-6.075 0-11-4.925-11-11s4.925-11 11-11h51.548c6.075 0 11 4.925 11 11s-4.925 11-11 11z" fill="#0496FF"/></g><g><path d="m112.548 380.01h-51.548c-6.075 0-11-4.925-11-11s4.925-11 11-11h51.548c6.075 0 11 4.925 11 11s-4.925 11-11 11z" fill="#0496FF"/></g></g><g><path d="m47.605 95.167c-26.25 0-47.605-21.346-47.605-47.583 0-26.238 21.355-47.584 47.605-47.584s47.605 21.346 47.605 47.584c0 26.237-21.355 47.583-47.605 47.583zm0-73.167c-14.119 0-25.605 11.477-25.605 25.584 0 14.106 11.486 25.583 25.604 25.583 14.119 0 25.605-11.477 25.605-25.583.001-14.107-11.485-25.584-25.604-25.584z" fill="#0496FF"/></g></g><g><path d="m505.801 227.135-62.591-35.233v-15.881h10.86c19.851 0 36-16.149 36-36v-7.103c0-6.075-4.925-11-11-11s-11 4.925-11 11v7.103c0 7.72-6.28 14-14 14h-10.86v-76.01h10.86c19.851 0 36-16.149 36-36v-7.102c0-6.075-4.925-11-11-11s-11 4.925-11 11v7.102c0 7.72-6.28 14-14 14h-10.86v-45.011c0-6.075-4.925-11-11-11s-11 4.925-11 11v92.116h-10.859c-7.72 0-14-6.28-14-14v-7.102c0-6.075-4.925-11-11-11s-11 4.925-11 11v7.102c0 19.851 16.149 36 36 36h10.859v55.771c-36.829-15.203-77.962-16.051-115.18-2.662l-32.813-18.471c-20.235-11.39-42.332-18.019-64.727-19.938v-21.377h8.732c19.851 0 36-16.149 36-36v-1.157c0-6.075-4.925-11-11-11s-11 4.925-11 11v1.157c0 7.72-6.28 14-14 14h-8.732v-65.437c0-6.075-4.925-11-11-11s-11 4.925-11 11v40.96h-8.694c-7.72 0-14-6.28-14-14v-1.157c0-6.075-4.925-11-11-11s-11 4.925-11 11v1.157c0 19.851 16.149 36 36 36h8.694v45.474c-26.167 1.359-52.047 9.131-75.159 23.278l-106.073 64.925c-3.223 1.964-5.264 5.608-5.258 9.382v263.979c0 6.075 4.925 11 11 11h490c6.075 0 11-4.925 11-11v-263.979c0-4.352-2.533-8.102-6.199-9.886zm-15.801 20.886v23.733h-468v-23.733zm-468 45.733h468v150.513h-468zm405.825-85.266 31.146 17.532h-195.231l24.475-14.98c42.594-26.07 96.088-27.051 139.61-2.552zm-305.01-27.01c42.595-26.07 96.091-27.049 139.61-2.552l18.904 10.641c-1.544.876-3.078 1.778-4.599 2.709l-55.13 33.745h-171.558zm-100.815 308.522v-23.733h468v23.733z"/></g></g><g/><g/><g/><g/><g/><g/><g/><g/><g/><g/><g/><g/><g/><g/><g/></svg>