<svg id="Capa_1" enable-background="new 0 0 512 512" viewBox="0 0 512 512" xmlns="http://www.w3.org/2000/svg" fill="#052438"><g><g><path d="m314.805 227.774c-2.089-2.398-5.114-3.774-8.294-3.774-3.181 0-6.205 1.376-8.294 3.774l-56.98 65.401c-3.991 4.58-3.512 11.528 1.068 15.52 2.084 1.815 4.659 2.706 7.222 2.706 3.069 0 6.124-1.278 8.298-3.774l2.45-2.812v142.109c0 6.075 4.925 11 11 11s11-4.925 11-11v-167.361l24.236-27.818 24.237 27.819v148.786c0 6.075 4.925 11 11 11s11-4.925 11-11v-123.534l2.449 2.811c3.991 4.58 10.938 5.058 15.52 1.068 4.581-3.991 5.059-10.939 1.068-15.52z"/><path d="m269.694 203.305c-4.58-3.99-11.53-3.511-15.52 1.068l-2.449 2.811v-142.044c0-6.075-4.925-11-11-11s-11 4.925-11 11v167.296l-24.237 27.82-24.237-27.819v-147.348c0-6.075-4.925-11-11-11s-11 4.925-11 11v122.095l-2.449-2.811c-3.991-4.581-10.939-5.058-15.52-1.068-4.58 3.991-5.059 10.939-1.068 15.52l56.98 65.401c2.089 2.398 5.114 3.774 8.294 3.774s6.205-1.376 8.294-3.774l56.98-65.401c3.991-4.581 3.513-11.529-1.068-15.52z"/><path d="m437.02 74.98c-48.353-48.351-112.64-74.98-181.02-74.98s-132.667 26.629-181.019 74.98c-48.353 48.353-74.981 112.64-74.981 181.02s26.628 132.667 74.981 181.02c48.352 48.351 112.639 74.98 181.019 74.98s132.667-26.629 181.02-74.98c48.351-48.353 74.98-112.64 74.98-181.02s-26.629-132.667-74.98-181.02zm-15.557 346.483c-44.197 44.197-102.959 68.537-165.463 68.537-62.503 0-121.266-24.34-165.463-68.537s-68.537-102.959-68.537-165.463 24.34-121.266 68.537-165.463 102.96-68.537 165.463-68.537c62.504 0 121.266 24.34 165.463 68.537s68.537 102.959 68.537 165.463-24.34 121.266-68.537 165.463z"/></g><g><path d="m256 462c-113.589 0-206-92.411-206-206s92.411-206 206-206 206 92.411 206 206-92.411 206-206 206zm0-390c-101.458 0-184 82.542-184 184s82.542 184 184 184 184-82.542 184-184-82.542-184-184-184z" fill="#0496FF"/></g></g><g/><g/><g/><g/><g/><g/><g/><g/><g/><g/><g/><g/><g/><g/><g/></svg>