<svg id="Capa_1" enable-background="new 0 0 512 512" viewBox="0 0 512 512" xmlns="http://www.w3.org/2000/svg" fill="#052438"><g><g><g><path d="m501 173.158c-88.309 0-160.153-71.845-160.153-160.153 0-6.075 4.925-11 11-11s11 4.925 11 11c0 76.178 61.975 138.153 138.153 138.153 6.075 0 10 4.925 10 11s-3.925 11-10 11z" fill="#0496FF"/></g><g><path d="m11 174.565c-6.075 0-10-4.925-10-11s3.925-11 10-11c76.178 0 138.153-61.975 138.153-138.152 0-6.075 4.925-11 11-11s11 4.925 11 11c0 88.309-71.844 160.152-160.153 160.152z" fill="#0496FF"/></g><g><path d="m160.153 510.608c-6.075 0-11-3.925-11-10 0-76.178-61.975-138.152-138.153-138.152-6.075 0-10-4.925-10-11s3.925-11 10-11c88.309 0 160.153 71.844 160.153 160.152 0 6.076-4.925 10-11 10z" fill="#0496FF"/></g><g><path d="m351.847 510.608c-6.075 0-11-3.925-11-10 0-88.309 71.844-160.152 160.153-160.152 6.075 0 10 4.925 10 11s-3.925 11-10 11c-76.178 0-138.153 61.975-138.153 138.152 0 6.076-4.925 10-11 10z" fill="#0496FF"/></g></g><g><path d="m501 267.421c-62.298 0-120.867 24.299-164.918 68.42-44.045 44.116-68.302 102.767-68.302 165.159 0 6.075 4.925 11 11 11h146.93c6.075 0 11-4.935 11-11.01 0-35.515 28.84-64.408 64.29-64.408 6.075 0 11-4.925 11-11v-147.161c0-6.075-4.925-11-11-11zm-11 147.86c-38.808 4.966-69.643 35.848-74.594 74.719h-125.344c5.544-107.919 92.2-194.732 199.938-200.296z"/><path d="m11 267.426c-6.075 0-11 4.925-11 11v147.161c0 6.075 4.935 11 11.01 11 35.45 0 64.29 28.894 64.29 64.408 0 6.075 4.925 11 11 11h146.93c6.075 0 11-4.925 11-11 0-62.385-24.258-121.037-68.306-165.153-44.051-44.118-102.619-68.416-164.924-68.416zm85.604 222.569c-4.952-38.863-35.789-69.743-74.604-74.71v-125.576c107.738 5.563 194.404 92.367 199.948 200.286z"/><path d="m11 244.58c62.298 0 120.867-24.299 164.918-68.421 44.045-44.115 68.302-102.766 68.302-165.159 0-6.075-4.925-11-11-11h-146.93c-6.075 0-11 4.935-11 11.01 0 35.516-28.84 64.409-64.29 64.409-6.075 0-11 4.925-11 11v147.161c0 6.075 4.925 11 11 11zm11-147.86c38.808-4.966 69.643-35.849 74.594-74.72h125.344c-5.543 107.92-92.2 194.733-199.938 200.297z"/><path d="m500.99 75.414c-35.45 0-64.29-28.894-64.29-64.409 0-6.075-4.925-11-11-11h-146.93c-6.075 0-11 4.925-11 11 0 62.386 24.258 121.038 68.306 165.153 44.051 44.119 102.619 68.417 164.924 68.417 6.075 0 11-4.925 11-11v-147.161c0-6.075-4.935-11-11.01-11zm-10.99 146.878c-107.738-5.563-194.404-92.367-199.948-200.287h125.344c4.952 38.864 35.789 69.744 74.604 74.711z"/><path d="m346.841 255.615c0-50.09-40.751-90.841-90.841-90.841s-90.841 40.751-90.841 90.841 40.751 90.841 90.841 90.841 90.841-40.751 90.841-90.841zm-90.841 68.841c-37.959 0-68.841-30.882-68.841-68.841s30.882-68.841 68.841-68.841 68.841 30.882 68.841 68.841-30.882 68.841-68.841 68.841z"/><path d="m256 209.704c-25.315 0-45.911 20.596-45.911 45.911s20.595 45.911 45.911 45.911 45.911-20.596 45.911-45.911-20.596-45.911-45.911-45.911zm0 69.822c-13.185 0-23.911-10.727-23.911-23.911s10.726-23.911 23.911-23.911 23.911 10.727 23.911 23.911-10.726 23.911-23.911 23.911z"/></g></g><g/><g/><g/><g/><g/><g/><g/><g/><g/><g/><g/><g/><g/><g/><g/></svg>