<svg id="Capa_1" enable-background="new 0 0 512 512" viewBox="0 0 512 512" xmlns="http://www.w3.org/2000/svg" fill="#052438"><g><g><g><path d="m256.108 102.917c-6.075 0-11-4.925-11-11v-30.917c0-6.075 4.925-11 11-11s11 4.925 11 11v30.917c0 6.075-4.924 11-11 11z" fill="#0496FF"/></g><g><path d="m256.108 382.668c-6.075 0-11-4.925-11-11v-51.548c0-6.075 4.925-11 11-11s11 4.925 11 11v51.548c0 6.075-4.924 11-11 11z" fill="#0496FF"/></g><g><path d="m256.108 506.446c-6.075 0-11-4.925-11-11v-51.548c0-6.075 4.925-11 11-11s11 4.925 11 11v51.548c0 6.075-4.924 11-11 11z" fill="#0496FF"/></g></g><g><path d="m501 82.126h-49.091c-6.075 0-11 4.925-11 11v47.702h-31.98v-47.702c0-6.075-4.925-11-11-11h-39.957l-9.859-72.606c-.741-5.453-5.397-9.52-10.9-9.52h-162.21c-5.503 0-10.16 4.067-10.9 9.521l-9.858 72.605h-39.958c-6.075 0-11 4.925-11 11v47.702h-32.196v-47.702c0-6.075-4.925-11-11-11h-49.091c-6.075 0-11 4.925-11 11v407.874c0 6.075 4.925 11 11 11h49.091c6.075 0 11-4.925 11-11v-287.944h32.197v47.702c0 6.075 4.925 11 11 11h14.21l-30.925 227.763c-.427 3.146.526 6.324 2.615 8.716s5.11 3.764 8.285 3.764h295.271c3.176 0 6.196-1.372 8.285-3.764s3.042-5.569 2.615-8.716l-30.925-227.763h14.209c6.075 0 11-4.925 11-11v-47.702h31.98v287.944c0 6.075 4.925 11 11 11h49.092c6.075 0 11-4.925 11-11v-407.874c0-6.075-4.925-11-11-11zm-316.389-60.126h142.995l8.164 60.126h-159.323zm-135.52 468h-27.091v-385.874h27.091zm22-298.944v-28.228h32.197v28.228zm320.058 298.944h-270.082l29.633-218.242h210.817zm-4.22-240.242h-261.641v-145.632h261.641zm22-58.702v-28.228h31.98v28.228zm81.071 298.944h-27.091v-385.874h27.091z"/><path d="m176.928 177.538 9.711-9.716v42.719c0 6.075 4.925 11 11 11s11-4.925 11-11v-42.719l9.711 9.716c2.148 2.149 4.964 3.224 7.78 3.224 2.814 0 5.629-1.073 7.776-3.22 4.297-4.295 4.298-11.26.003-15.557l-28.49-28.503c-4.093-4.258-11.468-4.258-15.561 0l-28.49 28.503c-4.295 4.297-4.293 11.262.003 15.557 4.298 4.294 11.262 4.294 15.557-.004z"/><path d="m293.866 177.538 9.711-9.716v42.719c0 6.075 4.925 11 11 11s11-4.925 11-11v-42.719l9.711 9.716c2.148 2.149 4.964 3.224 7.78 3.224 2.814 0 5.629-1.073 7.776-3.22 4.297-4.295 4.299-11.26.004-15.557l-28.491-28.504c-4.095-4.257-11.465-4.256-15.561 0l-28.491 28.504c-4.295 4.297-4.293 11.262.004 15.557 4.296 4.294 11.261 4.295 15.557-.004z"/></g></g><g/><g/><g/><g/><g/><g/><g/><g/><g/><g/><g/><g/><g/><g/><g/></svg>