<svg id="Capa_1" enable-background="new 0 0 512 512" viewBox="0 0 512 512" xmlns="http://www.w3.org/2000/svg" fill="#052438"><g><g fill="#0496FF"><path d="m451.024 358.279h-51.522c-6.075 0-11 4.925-11 11s4.925 11 11 11h51.522c6.075 0 11-4.925 11-11s-4.924-11-11-11z"/><path d="m338.262 358.279h-51.522c-6.075 0-11 4.925-11 11s4.925 11 11 11h51.522c6.075 0 11-4.925 11-11s-4.925-11-11-11z"/><path d="m225.5 358.279h-51.522c-6.075 0-11 4.925-11 11s4.925 11 11 11h51.522c6.075 0 11-4.925 11-11s-4.925-11-11-11z"/><path d="m112.737 358.279h-51.523c-6.075 0-11 4.925-11 11s4.925 11 11 11h51.522c6.075 0 11-4.925 11-11s-4.924-11-10.999-11z"/><path d="m95.209 47.583c0-26.237-21.355-47.583-47.604-47.583-26.25 0-47.605 21.346-47.605 47.583s21.355 47.583 47.605 47.583c26.249 0 47.604-21.346 47.604-47.583zm-47.604 25.583c-14.119 0-25.605-11.477-25.605-25.583s11.486-25.583 25.605-25.583c14.118 0 25.604 11.477 25.604 25.583s-11.486 25.583-25.604 25.583z"/></g><g><path d="m511.98 237.16c.112-2.562-.656-5.173-2.381-7.335l-171.359-214.792c-7.116-8.919-17.743-14.034-29.155-14.034-11.412.001-22.038 5.116-29.153 14.034l-74.332 93.172-21.271-31.278c-6.752-9.93-17.511-15.852-29.516-16.247-12.007-.413-23.131 4.805-30.523 14.269l-121.72 155.838c-1.492 1.93-2.32 4.332-2.331 6.771v263.442c0 6.075 4.925 11 11 11h489.761c6.075 0 11-4.925 11-11v-263.441c0-.135-.015-.266-.02-.399zm-270.789-138.29 33.619-8.021c1.015-.238 2.058.061 2.795.798l15.548 15.548c4.872 4.871 11.271 7.307 17.67 7.307 6.399-.001 12.8-2.437 17.671-7.308l15.368-15.368c.751-.75 1.854-1.049 2.882-.775l30.437 8.071 101.668 127.438h-339.527zm248.809 149.689v23.64h-467.761v-23.64zm-467.761 45.639h467.761v150.161h-467.761zm274.89-265.444c2.918-3.657 7.275-5.755 11.956-5.755 4.682 0 9.04 2.098 11.958 5.755l33.108 41.5-1.767-.469c-8.578-2.28-17.804.208-24.078 6.483l-15.368 15.368c-1.166 1.166-3.062 1.166-4.229 0l-15.546-15.546c-6.159-6.16-14.898-8.647-23.417-6.651l-6.269 1.495zm-155.502 59.737c3.017-3.862 7.555-6.004 12.461-5.824 4.901.162 9.293 2.579 12.049 6.631l25.101 36.91-80.059 100.351h-77.391zm-119.388 401.509v-23.641h467.761v23.641z"/></g></g><g/><g/><g/><g/><g/><g/><g/><g/><g/><g/><g/><g/><g/><g/><g/></svg>