<svg id="Capa_1" enable-background="new 0 0 512 512" viewBox="0 0 512 512" xmlns="http://www.w3.org/2000/svg" fill="#052438"><g><g fill="#0496FF"><path d="m256 234.999c-6.075 0-11 4.925-11 11v49.726c0 6.075 4.925 11 11 11s11-4.925 11-11v-49.726c0-6.075-4.925-11-11-11z"/><path d="m256 343.828c-6.075 0-11 4.925-11 11v49.725c0 6.075 4.925 11 11 11s11-4.925 11-11v-49.725c0-6.075-4.925-11-11-11z"/><path d="m504.711 7.877c-4.296-4.295-11.261-4.295-15.557 0l-30.015 30.016c-4.295 4.296-4.295 11.261 0 15.557 2.148 2.147 4.963 3.222 7.778 3.222s5.63-1.074 7.778-3.222l30.015-30.016c4.296-4.296 4.296-11.261.001-15.557z"/><path d="m415.815 81.217-36.45 36.449c-4.296 4.296-4.296 11.261 0 15.557 2.148 2.147 4.963 3.222 7.778 3.222s5.63-1.074 7.778-3.222l36.45-36.449c4.296-4.296 4.296-11.261 0-15.557-4.296-4.295-11.261-4.296-15.556 0z"/><path d="m336.041 160.99-36.45 36.45c-4.295 4.296-4.295 11.261 0 15.557 2.148 2.147 4.963 3.222 7.778 3.222s5.63-1.074 7.778-3.222l36.45-36.45c4.295-4.296 4.295-11.261 0-15.557-4.296-4.295-11.261-4.295-15.556 0z"/><path d="m22.846 7.877c-4.297-4.297-11.261-4.295-15.557 0-4.295 4.296-4.295 11.261 0 15.557l30.015 30.016c2.148 2.148 4.963 3.222 7.778 3.222s5.63-1.074 7.778-3.222c4.295-4.296 4.295-11.261 0-15.557z"/><path d="m96.185 81.217c-4.295-4.295-11.26-4.295-15.556 0-4.296 4.296-4.295 11.261 0 15.557l36.45 36.449c2.147 2.147 4.963 3.222 7.778 3.222s5.63-1.074 7.778-3.222c4.296-4.296 4.295-11.261 0-15.557z"/><path d="m175.959 160.99c-4.297-4.297-11.261-4.296-15.557 0-4.295 4.296-4.295 11.261 0 15.557l36.45 36.45c2.148 2.148 4.963 3.222 7.778 3.222s5.63-1.074 7.778-3.222c4.295-4.296 4.295-11.261 0-15.557z"/><path d="m256 452.656c-6.075 0-11 4.925-11 11v37.344c0 6.075 4.925 11 11 11s11-4.925 11-11v-37.344c0-6.075-4.925-11-11-11z"/></g><g><path d="m501 0h-140.82c-2.917 0-5.715 1.159-7.778 3.222l-96.402 96.401-96.402-96.401c-2.063-2.063-4.861-3.222-7.778-3.222h-140.82c-6.075 0-11 4.925-11 11v140.82c0 2.917 1.159 5.715 3.222 7.778l142.208 142.209v199.193c0 6.075 4.925 11 11 11h199.14c6.075 0 11-4.925 11-11v-199.193l142.208-142.208c2.063-2.063 3.222-4.861 3.222-7.778v-140.821c0-6.075-4.925-11-11-11zm-11 147.264-142.208 142.208c-2.063 2.063-3.222 4.861-3.222 7.778v192.75h-177.14v-192.75c0-2.917-1.159-5.715-3.222-7.778l-142.208-142.208v-125.264h125.264l100.958 100.958c4.296 4.295 11.261 4.295 15.557 0l100.957-100.958h125.264z"/></g></g><g/><g/><g/><g/><g/><g/><g/><g/><g/><g/><g/><g/><g/><g/><g/></svg>