<svg id="Capa_1" enable-background="new 0 0 512 512" viewBox="0 0 512 512" xmlns="http://www.w3.org/2000/svg" fill="#052438"><g><g fill="#0496FF"><path d="m256.223 421.149c-6.075 0-11 4.925-11 11v63.297c0 6.075 4.925 11 11 11s11-4.925 11-11v-63.297c0-6.075-4.925-11-11-11z"/><path d="m256.223 87.851c6.075 0 11-4.925 11-11v-60.297c0-6.075-4.925-11-11-11s-11 4.925-11 11v60.297c0 6.075 4.925 11 11 11z"/><path d="m292.505 344.885c-4.296-4.295-11.261-4.295-15.557 0l-9.726 9.726v-50.992c0-6.075-4.925-11-11-11s-11 4.925-11 11v50.992l-9.726-9.726c-4.296-4.295-11.261-4.295-15.557 0-4.295 4.296-4.295 11.261 0 15.557l28.504 28.504c2.148 2.147 4.963 3.222 7.778 3.222s5.63-1.074 7.778-3.222l28.504-28.504c4.298-4.296 4.298-11.261.002-15.557z"/></g><g><path d="m469.401 0h-426.802c-6.075 0-11 4.925-11 11v490c0 6.075 4.925 11 11 11h426.802c6.075 0 11-4.925 11-11v-490c0-6.075-4.925-11-11-11zm-63.586 22v468h-299.63v-468zm-352.216 0h30.586v468h-30.586zm404.802 468h-30.586v-468h30.586z"/><path d="m186.199 283.218c30.971 0 56.167-25.196 56.167-56.167 0-14.471-5.503-27.679-14.523-37.647l10.418-14.035h56.313l1.638 4.256c-15.69 9.972-26.131 27.497-26.131 47.425 0 30.971 25.196 56.167 56.167 56.167s56.167-25.196 56.167-56.167-25.196-56.167-56.167-56.167c-3.243 0-6.417.292-9.511.822l-13.034-33.873h17.863c6.075 0 11-4.925 11-11s-4.925-11-11-11h-33.882c-3.625 0-7.016 1.785-9.068 4.773-2.052 2.987-2.5 6.794-1.198 10.177l8.691 22.586h-45.653l-5.978-15.536h6.294c6.075 0 11-4.925 11-11s-4.925-11-11-11h-40.855c-6.075 0-11 4.925-11 11s4.925 11 11 11h10.989l9.498 24.683-10.214 13.761c-7.279-3.453-15.411-5.393-23.989-5.393-30.971 0-56.167 25.196-56.167 56.167s25.194 56.168 56.165 56.168zm140.048-90.334c18.84 0 34.167 15.327 34.167 34.167s-15.327 34.167-34.167 34.167-34.167-15.327-34.167-34.167c0-10.524 4.785-19.948 12.291-26.221l11.61 30.171c1.682 4.371 5.849 7.053 10.269 7.053 1.313 0 2.649-.237 3.948-.736 5.67-2.183 8.498-8.547 6.316-14.217l-11.614-30.183c.447-.018.895-.034 1.347-.034zm-140.048 0c3.642 0 7.151.579 10.445 1.639l-19.278 25.971c-3.621 4.879-2.602 11.769 2.276 15.39 1.97 1.462 4.269 2.168 6.547 2.168 3.363 0 6.683-1.537 8.841-4.444l19.269-25.959c3.82 5.515 6.066 12.2 6.066 19.402 0 18.84-15.327 34.167-34.167 34.167s-34.167-15.327-34.167-34.167 15.328-34.167 34.168-34.167z"/></g></g><g/><g/><g/><g/><g/><g/><g/><g/><g/><g/><g/><g/><g/><g/><g/></svg>