<svg id="Capa_1" enable-background="new 0 0 512 512" viewBox="0 0 512 512" xmlns="http://www.w3.org/2000/svg" fill="#E6ECF2"><g><g><g><g><path d="m256.12 349.489c-6.075 0-11-4.923-11-10.997v-51.554c0-6.073 4.925-10.997 11-10.997s11 4.923 11 10.997v51.554c-.001 6.073-4.926 10.997-11 10.997z" fill="#0496FF"/></g><g><path d="m256.12 462.32c-6.075 0-11-4.923-11-10.997v-51.554c0-6.073 4.925-10.997 11-10.997s11 4.923 11 10.997v51.554c-.001 6.074-4.926 10.997-11 10.997z" fill="#0496FF"/></g></g><g><path d="m128.416 95.183c-26.259 0-47.623-21.349-47.623-47.591s21.364-47.592 47.623-47.592 47.623 21.349 47.623 47.591-21.364 47.592-47.623 47.592zm0-73.189c-14.128 0-25.623 11.483-25.623 25.598s11.495 25.598 25.623 25.598 25.623-11.483 25.623-25.598-11.495-25.598-25.623-25.598z" fill="#0496FF"/></g></g><g><path d="m235.95 100.616c15.938 0 25.883 19.68 25.961 19.836 1.84 3.794 5.675 6.224 9.888 6.224h.074c4.242-.029 8.079-2.47 9.877-6.312.096-.198 9.666-19.747 25.918-19.747 6.075 0 11-4.923 11-10.997 0-6.073-4.925-10.997-11-10.997-16.473 0-28.391 9.167-35.938 17.751-7.608-8.57-19.548-17.751-35.779-17.751-6.075 0-11 4.923-11 10.997-.001 6.072 4.924 10.996 10.999 10.996z"/><path d="m331.567 22.643c4.67 0 9.265 2.323 13.656 6.905 3.944 4.115 6.127 8.445 6.127 8.445 1.84 3.794 5.672 6.229 9.886 6.229h.074c4.242-.029 8.076-2.466 9.874-6.307.074-.153 7.514-15.272 19.746-15.272 6.075 0 11-4.923 11-10.997s-4.925-10.997-11-10.997c-13.312 0-23.172 6.859-29.73 13.778-8.602-9.016-18.834-13.778-29.633-13.778-6.075 0-11 4.923-11 10.997s4.925 10.997 11 10.997z"/><path d="m399.511 76.192c-8.601-9.016-18.834-13.778-29.632-13.778-6.075 0-11 4.923-11 10.997 0 6.073 4.925 10.997 11 10.997 4.67 0 9.264 2.323 13.655 6.905 3.943 4.115 6.126 8.445 6.127 8.445 1.84 3.794 5.672 6.229 9.886 6.229h.074c4.242-.029 8.076-2.466 9.874-6.307.074-.153 7.514-15.272 19.746-15.272 6.075 0 11-4.923 11-10.997 0-6.073-4.925-10.997-11-10.997-13.312 0-23.172 6.859-29.73 13.778z"/><path d="m508.443 94.54c-2.267-2.082-5.294-3.121-8.369-2.861-23.437 1.979-45.438 13.598-62.539 32.897-13.935-.52-27.579 5.331-37.985 16.086-1.634-.154-3.272-.232-4.908-.232-14.505 0-28.582 6.103-39.637 17.184-9.15 9.172-15.922 21.471-19.396 35.083-11.911 6.731-20.478 19.524-23.354 34.636h-112.271c-2.879-15.116-11.458-27.911-23.386-34.641-3.479-13.612-10.261-25.911-19.423-35.083-11.066-11.077-25.155-17.178-39.673-17.178-1.641 0-3.286.078-4.925.233-9.99-10.316-22.919-16.118-36.311-16.118-.576 0-1.152.011-1.727.031-17.122-19.299-39.15-30.919-62.613-32.897-3.069-.259-6.103.779-8.369 2.861-2.267 2.082-3.557 5.018-3.557 8.095v398.367c0 6.074 4.925 10.997 11 10.997h490c6.075 0 11-4.923 11-10.997v-398.367c0-3.077-1.29-6.013-3.557-8.096zm-159.439 116.108c3.643-1.346 6.305-4.513 7.005-8.332 4.239-23.115 20.486-39.892 38.633-39.892 2.265 0 4.546.258 6.781.766 4.179.949 8.527-.612 11.146-4.003 6.299-8.156 14.558-12.649 23.253-12.649 1.5 0 2.985.132 4.414.392 3.985.725 8.054-.801 10.577-3.973 10.885-13.676 24.497-23.056 39.187-27.193v111.568h-155.085c2.523-7.987 7.641-14.301 14.089-16.684zm-35.903 38.679 46.045 240.679h-206.052l46.045-240.679zm-251.832-106.364c2.524 3.168 6.584 4.69 10.57 3.968 1.434-.261 2.922-.392 4.426-.392 8.715 0 16.99 4.494 23.3 12.654 2.618 3.386 6.962 4.947 11.139 3.998 2.24-.509 4.527-.766 6.797-.766 18.179 0 34.454 16.778 38.698 39.894.701 3.82 3.366 6.986 7.01 8.331 6.458 2.383 11.584 8.696 14.112 16.683h-155.321v-111.573c14.723 4.134 28.362 13.518 39.269 27.203zm-39.269 106.364h154.74l-46.045 240.679h-108.695zm468 240.679h-108.456l-46.045-240.679h154.501z"/></g></g><g/><g/><g/><g/><g/><g/><g/><g/><g/><g/><g/><g/><g/><g/><g/></svg>