<svg id="Capa_1" enable-background="new 0 0 511.966 511.966" viewBox="0 0 511.966 511.966" xmlns="http://www.w3.org/2000/svg" fill="#052438"><g><g><path d="m255.983 511.966c-9.05 0-18.099-3.445-24.988-10.334l-220.661-220.661c-13.778-13.778-13.778-36.198 0-49.977l220.661-220.661c13.779-13.777 36.197-13.777 49.977 0l220.661 220.661c13.778 13.778 13.778 36.198 0 49.977l-220.662 220.661c-6.889 6.889-15.938 10.334-24.988 10.334zm0-489.983c-3.562 0-6.912 1.388-9.432 3.907l-220.661 220.661c-2.52 2.52-3.907 5.869-3.907 9.432s1.388 6.912 3.907 9.432l220.661 220.661c2.52 2.52 5.869 3.907 9.432 3.907s6.912-1.388 9.432-3.907l220.661-220.661c2.52-2.52 3.907-5.869 3.907-9.432s-1.388-6.912-3.907-9.432l-220.661-220.661c-2.52-2.52-5.869-3.907-9.432-3.907z"/></g><g><path d="m255.983 422.44c-2.815 0-5.63-1.074-7.778-3.222l-155.457-155.457c-4.296-4.296-4.296-11.261 0-15.557l155.457-155.457c4.297-4.295 11.26-4.295 15.557 0l155.457 155.457c4.296 4.296 4.296 11.261 0 15.557l-155.458 155.457c-2.148 2.147-4.962 3.222-7.778 3.222zm-139.9-166.457 139.9 139.9 139.9-139.9-139.9-139.9z" fill="#0496FF"/></g></g><g/><g/><g/><g/><g/><g/><g/><g/><g/><g/><g/><g/><g/><g/><g/></svg>