<svg id="Capa_1" enable-background="new 0 0 512 512" viewBox="0 0 512 512" xmlns="http://www.w3.org/2000/svg" fill="#052438"><g><g fill="#0496FF"><path d="m451 245h-51.548c-6.075 0-11 4.925-11 11s4.925 11 11 11h51.548c6.075 0 11-4.925 11-11s-4.925-11-11-11z"/><path d="m338.183 245h-41.547c-6.075 0-11 4.925-11 11s4.925 11 11 11h41.547c6.075 0 11-4.925 11-11s-4.925-11-11-11z"/><path d="m215.364 245h-41.547c-6.075 0-11 4.925-11 11s4.925 11 11 11h41.547c6.075 0 11-4.925 11-11s-4.925-11-11-11z"/><path d="m112.548 245h-51.548c-6.075 0-11 4.925-11 11s4.925 11 11 11h51.548c6.075 0 11-4.925 11-11s-4.925-11-11-11z"/><path d="m256 50c-6.075 0-11 4.925-11 11v51.548c0 6.075 4.925 11 11 11s11-4.925 11-11v-51.548c0-6.076-4.925-11-11-11z"/><path d="m256 162.817c-6.075 0-11 4.925-11 11v41.547c0 6.075 4.925 11 11 11s11-4.925 11-11v-41.547c0-6.075-4.925-11-11-11z"/><path d="m256 285.636c-6.075 0-11 4.925-11 11v41.547c0 6.075 4.925 11 11 11s11-4.925 11-11v-41.547c0-6.075-4.925-11-11-11z"/><path d="m256 388.453c-6.075 0-11 4.925-11 11v51.547c0 6.075 4.925 11 11 11s11-4.925 11-11v-51.548c0-6.075-4.925-10.999-11-10.999z"/></g><g><path d="m501 113.12h-102.12v-102.12c0-6.075-4.925-11-11-11h-263.76c-6.075 0-11 4.925-11 11v102.12h-102.12c-6.075 0-11 4.925-11 11v263.76c0 6.075 4.925 11 11 11h102.12v102.12c0 6.075 4.925 11 11 11h263.76c6.075 0 11-4.925 11-11v-102.12h102.12c6.075 0 11-4.925 11-11v-263.76c0-6.075-4.925-11-11-11zm-169.82 229.06v147.82h-150.36v-147.82c0-6.075-4.925-11-11-11h-147.82v-150.36h147.82c6.075 0 11-4.925 11-11v-147.82h150.36v147.82c0 6.075 4.925 11 11 11h147.82v150.36h-147.82c-6.076 0-11 4.925-11 11zm56.7-207.06h102.12v23.7h-136.82v-136.82h23.7v102.12c0 6.075 4.925 11 11 11zm-263.76 0c6.075 0 11-4.925 11-11v-102.12h23.7v136.82h-136.82v-23.7zm0 241.76h-102.12v-23.7h136.82v136.82h-23.7v-102.12c0-6.075-4.925-11-11-11zm263.76 0c-6.075 0-11 4.925-11 11v102.12h-23.7v-136.82h136.82v23.7z"/></g></g><g/><g/><g/><g/><g/><g/><g/><g/><g/><g/><g/><g/><g/><g/><g/></svg>