<svg id="Capa_1" enable-background="new 0 0 512 512" viewBox="0 0 512 512" xmlns="http://www.w3.org/2000/svg" fill="#052438"><g><g fill="#0496FF"><path d="m389.615 438.298c-6.075 0-11 4.925-11 11v51.896c0 6.075 4.925 10 11 10s11-3.925 11-10v-51.896c0-6.075-4.925-11-11-11z"/><path d="m389.615 325.571c-6.075 0-11 4.925-11 11v51.252c0 6.075 4.925 11 11 11s11-4.925 11-11v-51.252c0-6.075-4.925-11-11-11z"/><path d="m388.066 286.359c1.186 0 2.392-.193 3.576-.6 5.745-1.975 8.802-8.232 6.828-13.978-5.504-16.019-20.593-26.781-37.547-26.781h-17.562c-6.075 0-11 4.925-11 11s4.925 11 11 11h17.562c7.562 0 14.29 4.795 16.742 11.931 1.567 4.561 5.834 7.428 10.401 7.428z"/><path d="m281.93 245h-51.7c-6.075 0-11 4.925-11 11s4.925 11 11 11h51.7c6.075 0 11-4.925 11-11s-4.925-11-11-11z"/><path d="m169.265 245h-17.875c-7.523 0-14.241-4.763-16.714-11.852-2.002-5.736-8.277-8.766-14.01-6.761-5.736 2.002-8.763 8.274-6.761 14.011 5.552 15.911 20.616 26.602 37.484 26.602h17.875c6.075 0 11-4.925 11-11s-4.924-11-10.999-11z"/><path d="m122.697 186.813c6.075 0 11-4.925 11-11v-51.322c0-6.075-4.925-11-11-11s-11 4.925-11 11v51.322c0 6.075 4.925 11 11 11z"/><path d="m122.697 73.702c6.075 0 11-4.925 11-11v-51.507c0-6.075-4.925-10-11-10s-11 3.925-11 10v51.507c0 6.075 4.925 11 11 11z"/></g><path d="m433.862 134.459h-189.092v-123.264c0-6.075-4.925-11-11-11h-222.77c-6.075 0-11 4.925-11 11v289.07c0 43.057 35.052 78.085 78.138 78.085h189.092v122.455c0 6.075 4.925 11 11 11h222.77c6.075 0 11-4.925 11-11v-288.262c0-43.055-35.052-78.084-78.138-78.084zm-218.253 67.278h209.846c9.755 0 17.692 7.926 17.692 17.669v270.399h-105.776v-139.083c0-21.874-17.806-39.67-39.692-39.67h-209.846c-9.756 0-17.692-7.927-17.692-17.669v-271.188h105.776v139.873c0 21.874 17.806 39.669 39.692 39.669zm62.621 154.613h-200.092c-30.955 0-56.138-25.159-56.138-56.085v-278.07h26.141v271.188c0 21.874 17.806 39.669 39.692 39.669h209.846c9.755 0 17.692 7.927 17.692 17.67v139.083h-26.141v-122.455c0-6.075-4.925-11-11-11zm211.77 133.455h-24.853v-270.399c0-21.873-17.806-39.669-39.692-39.669h-209.846c-9.755 0-17.692-7.926-17.692-17.669v-139.873h24.853v123.265c0 6.075 4.925 11 11 11h200.092c30.955 0 56.138 25.159 56.138 56.084z"/></g><g/><g/><g/><g/><g/><g/><g/><g/><g/><g/><g/><g/><g/><g/><g/></svg>