<svg id="Capa_1" enable-background="new 0 0 512 512" height="512" viewBox="0 0 512 512" width="512" xmlns="http://www.w3.org/2000/svg" fill="#E6ECF2"><g><g><path d="m355.712 251.225c-2.815 0-5.63-1.074-7.778-3.222l-21.904-21.903-38.018.001c-6.075 0-11-4.925-11-11s4.925-11 11-11l42.574-.001c2.918 0 5.715 1.159 7.778 3.222l25.126 25.125c4.295 4.296 4.295 11.261 0 15.557-2.148 2.147-4.963 3.221-7.778 3.221z" fill="#0496FF"/></g><g><path d="m374.884 180.364c-2.821 0-5.641-1.078-7.79-3.233-4.29-4.302-4.279-11.267.023-15.556l42.053-41.929v-63.794c0-6.075 4.925-11 11-11s11 4.925 11 11v68.36c0 2.923-1.164 5.726-3.233 7.79l-45.287 45.153c-2.147 2.139-4.957 3.209-7.766 3.209z" fill="#0496FF"/></g><g><path d="m339.881 158.861c-6.075 0-11-4.925-11-11v-49.369c0-6.075 4.925-11 11-11s11 4.925 11 11v49.369c0 6.075-4.925 11-11 11z" fill="#0496FF"/></g><g><path d="m154.075 143.324c-3.627 0-7.021-1.788-9.072-4.779l-18.454-26.911h-57.128c-6.075 0-11-4.925-11-11v-89.634c0-6.075 4.925-11 11-11h169.308c6.075 0 11 4.925 11 11v89.634c0 6.075-4.925 11-11 11h-57.128l-18.454 26.911c-2.051 2.991-5.445 4.779-9.072 4.779zm-73.654-53.69h51.923c3.627 0 7.021 1.788 9.072 4.779l12.659 18.46 12.659-18.46c2.051-2.991 5.445-4.779 9.072-4.779h51.923v-67.634h-147.308z" fill="#0496FF"/></g><g><path d="m391.195 424.309c32.234-31.246 52.591-76.842 52.591-127.55 0-93.972-69.888-170.424-155.791-170.424-88.439 0-160.39 71.951-160.39 160.39 0 2.897.071 6.93.251 10.764-6.609 7.508-10.211 17.103-10.211 27.385 0 20.516 14.383 37.142 34.037 40.953 6.491 21.565 18.171 41.414 33.798 57.689-18.684 21.788-32.322 49.929-36.372 75.781-.498 3.176.419 6.411 2.509 8.854s5.143 3.849 8.358 3.849h256.039c3.215 0 6.268-1.406 8.358-3.849s3.007-5.678 2.509-8.854c-4.091-26.112-17.191-53.412-35.686-74.988zm30.591-127.55c0 77.732-54.145 141.691-122.791 147.919v-169.707c.002-.03.007-.059.008-.09.013-.318.005-.633-.008-.945v-125.096c68.646 6.228 122.791 70.187 122.791 147.919zm-133.791 193.241c-16.218 0-29.801-11.478-33.065-26.736 10.39 2.488 21.078 3.812 31.846 3.906.401.044.807.071 1.219.071.422 0 .837-.029 1.247-.075 10.903-.094 21.542-1.42 31.808-3.857-3.282 15.235-16.854 26.691-33.055 26.691zm-11-341.227v112.412c-7.831-2.826-14.424-8.132-18.344-15.091-1.705-3.028-4.741-5.072-8.188-5.513-3.449-.442-6.899.772-9.312 3.273-6.403 6.636-15.003 10.29-24.217 10.29-10.469 0-20.164-4.752-26.597-13.038-2.122-2.733-5.408-4.307-8.868-4.253-3.46.057-6.692 1.738-8.725 4.54-9.435 13.006-16.505 27.283-21.069 42.53-.689.134-1.373.284-2.05.45 1.193-71.54 56.952-130.036 127.37-135.6zm-116.671 195.877c-11.789-.003-20.679-8.505-20.679-19.776 0-5.44 2.094-10.436 5.898-14.07 3.851-3.68 9.096-5.706 14.768-5.706h.01c5.085 0 9.508-3.486 10.696-8.431 2.676-11.14 6.886-21.722 12.563-31.594 9.505 7.144 21.107 11.073 33.353 11.073 10.908 0 21.296-3.096 30.202-8.879 7.833 8.311 18.3 14.188 29.859 16.751v85.357h-22.986c-6.075 0-11 4.925-11 11s4.925 11 11 11h22.986v53.303c-10.257-.924-20.176-3.129-29.581-6.474-.179-.075-.364-.139-.548-.205-13.605-4.914-26.121-12.206-36.992-21.466-.34-.47-.71-.927-1.134-1.35-.75-.75-1.585-1.361-2.469-1.849-16.99-15.696-29.521-36.388-35.253-60.253-1.187-4.944-5.608-8.43-10.693-8.431zm41.566 93.528c9.351 7.111 19.541 13.001 30.284 17.576.002.168.004.319.004.43 0 12.705 4.275 24.425 11.451 33.817h-69.955c5.194-18.138 15.285-36.693 28.216-51.823zm130.471 51.822c7.176-9.392 11.451-21.112 11.451-33.817l.001-.32c10.817-4.557 21.056-10.393 30.56-17.346 12.785 14.927 22.784 33.372 27.95 51.483z"/><path d="m223.26 338.364c6.075 0 11-4.925 11-11v-4.98c0-6.075-4.925-11-11-11s-11 4.925-11 11v4.98c0 6.076 4.925 11 11 11z"/></g><g><path d="m355.717 365.752c-22.54 0-40.878-18.338-40.878-40.878s18.338-40.878 40.878-40.878 40.878 18.338 40.878 40.878c0 22.541-18.338 40.878-40.878 40.878zm0-59.756c-10.409 0-18.878 8.469-18.878 18.878s8.469 18.878 18.878 18.878c10.41 0 18.878-8.469 18.878-18.878s-8.469-18.878-18.878-18.878z"/></g><g><path d="m420.171 66.817c-18.421 0-33.409-14.987-33.409-33.408s14.987-33.409 33.409-33.409c18.421 0 33.408 14.987 33.408 33.409s-14.987 33.408-33.408 33.408zm0-44.817c-6.291 0-11.409 5.118-11.409 11.409s5.118 11.408 11.409 11.408c6.29 0 11.408-5.118 11.408-11.408s-5.118-11.409-11.408-11.409z"/></g><g><path d="m339.881 109.393c-18.421 0-33.408-14.987-33.408-33.409s14.987-33.408 33.408-33.408 33.409 14.987 33.409 33.408-14.988 33.409-33.409 33.409zm0-44.817c-6.291 0-11.408 5.118-11.408 11.408 0 6.291 5.118 11.409 11.408 11.409 6.291 0 11.409-5.118 11.409-11.409 0-6.29-5.118-11.408-11.409-11.408z"/></g><g><path d="m109.262 66.817c-6.075 0-11.004-4.925-11.004-11s4.921-11 10.997-11h.007c6.075 0 11 4.925 11 11s-4.925 11-11 11z"/></g><g><path d="m154.079 66.817c-6.075 0-11.004-4.925-11.004-11s4.921-11 10.997-11h.007c6.075 0 11 4.925 11 11s-4.925 11-11 11z"/></g><g><path d="m198.896 66.817c-6.075 0-11.003-4.925-11.003-11s4.921-11 10.996-11h.007c6.075 0 11 4.925 11 11s-4.925 11-11 11z"/></g></g></svg>