<svg id="Capa_1" enable-background="new 0 0 512 512" viewBox="0 0 512 512" xmlns="http://www.w3.org/2000/svg" fill="#E6ECF2"><g><g fill="#0496FF"><path d="m65.16 227.79c-2.757-7.143-12.674-9.065-17.94-3.57-6.889 6.801-1.911 18.855 7.78 18.78 7.59.221 13.269-8.283 10.16-15.21z"/><path d="m446.84 83.21c2.693 7.1 12.732 9.082 17.94 3.57 6.189-6.01 2.862-17.013-5.63-18.569-8.434-1.825-15.746 7.079-12.31 14.999z"/><path d="m242.2 74.79c-2.69-7.099-12.733-9.079-17.94-3.57-6.889 6.809-1.911 18.846 7.781 18.78 7.587.216 13.271-8.28 10.159-15.21z"/><path d="m468 305.053v34.268c0 12.086-3.923 23.797-11 33.393-7.077-9.596-11-21.307-11-33.393v-34.268h-22v34.268c0 21.987 9.331 43.081 25.601 57.872 2.098 1.907 4.749 2.861 7.399 2.861s5.302-.954 7.399-2.861c16.27-14.792 25.601-35.885 25.601-57.872v-34.268z"/></g><path d="m490 200.505v-77.535c13.35-10.044 22-26.015 22-43.97 0-30.327-24.673-55-55-55-17.955 0-33.926 8.65-43.97 22h-136.99v.038c-10.043-13.372-26.028-22.038-44-22.038-30.327 0-55 24.673-55 55 0 1.275.059 2.536.145 3.79l-110.478 95.477c-3.775-.822-7.689-1.267-11.707-1.267-30.327 0-55 24.673-55 55 0 27.982 21.01 51.134 48.081 54.549l42.44 74.551c-12.641 6.992-21.223 20.46-21.223 35.9v25h-58.298c-6.075 0-11 4.925-11 11v44c0 6.075 4.925 11 11 11h490c6.075 0 11-4.925 11-11v-44c0-6.075-4.925-11-11-11h-269.02v-25c0-22.607-18.393-41-41-41h-27.417l-58.123-102.101c2.927-6.715 4.56-14.118 4.56-21.899 0-1.275-.059-2.537-.145-3.791l110.478-95.476c3.775.822 7.689 1.267 11.707 1.267 17.972 0 33.957-8.666 44-22.038v.038h136.99c3.123 4.151 6.819 7.847 10.97 10.97v77.535c-13.064 6.863-22 20.561-22 36.314v68.234c0 6.075 4.925 11 11 11h88c6.075 0 11-4.925 11-11v-68.234c0-15.753-8.936-29.451-22-36.314zm-468 31.495c0-18.196 14.804-33 33-33s33 14.804 33 33-14.804 33-33 33-33-14.804-33-33zm468 234h-468v-22h468zm-280.02-69v25h-118.682v-25c0-10.477 8.523-19 19-19h80.682c10.477 0 19 8.523 19 19zm-97.047-41-40.837-71.734c7.116-2.334 13.593-6.081 19.104-10.911l47.048 82.645zm-9.986-150.898c-3.642-6.467-8.552-12.125-14.394-16.637l95.54-82.567c3.642 6.467 8.552 12.124 14.395 16.638zm129.093-93.102c-18.196 0-33-14.804-33-33s14.804-33 33-33 33 14.804 33 33-14.804 33-33 33zm224.96-66c18.196 0 33 14.804 33 33s-14.804 33-33 33-33-14.804-33-33 14.804-33 33-33zm-171.067 44c.725-3.555 1.107-7.234 1.107-11s-.382-7.445-1.107-11h117.173c-.724 3.555-1.106 7.234-1.106 11s.382 7.445 1.107 11zm171.067 44c3.766 0 7.445-.382 11-1.107v62.926h-22v-62.926c3.555.725 7.234 1.107 11 1.107zm33 160.053h-66v-57.234c0-10.477 8.523-19 19-19h28c10.477 0 19 8.523 19 19z"/></g><g/><g/><g/><g/><g/><g/><g/><g/><g/><g/><g/><g/><g/><g/><g/></svg>