<svg id="Capa_1" enable-background="new 0 0 512 512" height="512" viewBox="0 0 512 512" width="512" xmlns="http://www.w3.org/2000/svg" fill="#E6ECF2"><g><path d="m501 0h-245-245c-6.075 0-11 4.925-11 11v234.834c0 6.075 4.925 11 11 11h42.578l40.921 49.858c2.09 2.546 5.21 4.021 8.503 4.021s6.413-1.476 8.503-4.021l40.921-49.858h103.574 103.574l40.921 49.858c2.09 2.546 5.21 4.021 8.503 4.021s6.413-1.476 8.503-4.021l40.921-49.858h42.578c6.075 0 11-4.925 11-11v-234.834c0-6.075-4.925-11-11-11zm-353.776 234.834c-3.293 0-6.413 1.476-8.503 4.021l-35.719 43.52-35.719-43.52c-2.09-2.546-5.21-4.021-8.503-4.021h-36.78v-212.834h223v212.834zm342.776 0h-36.78c-3.293 0-6.413 1.476-8.503 4.021l-35.719 43.52-35.719-43.52c-2.09-2.546-5.21-4.021-8.503-4.021h-97.776v-212.834h223z"/><path d="m438.037 167.868c-32.971-17.462-43.715-57.429-47.085-77.247h40.215c6.075 0 11-4.925 11-11s-4.925-11-11-11h-105.334c-6.075 0-11 4.925-11 11s4.925 11 11 11h40.215c-3.37 19.817-14.114 59.784-47.085 77.247-5.368 2.843-7.416 9.5-4.572 14.869 1.975 3.728 5.786 5.854 9.73 5.854 1.735 0 3.498-.413 5.139-1.282 26.001-13.771 40.816-37.377 49.24-58.941 8.424 21.564 23.239 45.17 49.24 58.941 1.642.87 3.402 1.282 5.139 1.282 3.943 0 7.757-2.127 9.73-5.854 2.844-5.369.796-12.026-4.572-14.869z" fill="#0496FF"/><path d="m188.073 180.807-41.737-110.597c-.039-.102-.078-.202-.12-.302-2.098-5.098-7.012-8.389-12.523-8.389-.004 0-.009 0-.013 0-5.516.005-10.431 3.307-12.521 8.412-.034.084-.067.168-.1.252l-42.12 110.593c-2.163 5.677.687 12.033 6.364 14.195 1.289.491 2.611.723 3.913.723 4.433 0 8.61-2.699 10.281-7.088l7.792-20.458h52.491l7.708 20.427c2.146 5.684 8.494 8.553 14.176 6.408 5.685-2.146 8.554-8.492 6.409-14.176zm-72.404-34.659 17.987-47.228 17.822 47.228z" fill="#0496FF"/><g><g><path d="m225.5 451c-15.805-.275-13.397-24.603 2.15-21.78 12.74 2.211 10.778 22.106-2.15 21.78z"/></g><g><path d="m286.5 451c-15.803-.293-13.425-24.569 2.15-21.78 12.733 2.216 10.771 22.101-2.15 21.78z"/></g><path d="m338.162 378.796v-52.651c0-6.075-4.925-11-11-11s-11 4.925-11 11v30.934c-16.908-12.3-37.7-19.569-60.162-19.569s-43.254 7.268-60.162 19.569v-30.934c0-6.075-4.925-11-11-11s-11 4.925-11 11v52.651c-12.766 17.092-20.332 38.283-20.332 61.208v60.996c0 6.075 4.925 11 11 11h182.988c6.075 0 11-4.925 11-11v-60.996c0-22.925-7.566-44.116-20.332-61.208zm-1.668 111.204h-160.988v-49.996c0-18.494 6.285-35.538 16.81-49.145.789-.733 1.469-1.579 2.016-2.515 14.778-17.611 36.933-28.834 61.668-28.834 24.922 0 47.233 11.387 62.009 29.228.308.462.658.893 1.031 1.302 10.912 13.739 17.454 31.097 17.454 49.964z" fill="#0496FF"/></g></g></svg>