<svg id="Capa_1" enable-background="new 0 0 512 512" viewBox="0 0 512 512" xmlns="http://www.w3.org/2000/svg" fill="#052438"><g><g fill="#0496FF"><path d="m448.867 315.201c-5.411-2.758-12.037-.609-14.797 4.803l-39.101 76.682c-2.76 5.413-.609 12.037 4.803 14.797 1.601.816 3.307 1.203 4.988 1.203 4.004 0 7.865-2.194 9.809-6.005l39.101-76.682c2.76-5.414.609-12.039-4.803-14.798z"/><path d="m363.763 262.896 64.81 35.548c1.679.92 3.492 1.357 5.28 1.357 3.887 0 7.653-2.064 9.654-5.712 2.922-5.327.972-12.013-4.354-14.935l-64.81-35.548c-5.329-2.921-12.013-.972-14.935 4.354-2.922 5.328-.971 12.015 4.355 14.936z"/><path d="m256 166.505c-34.966 0-63.413 28.447-63.413 63.413s28.447 63.413 63.413 63.413 63.413-28.447 63.413-63.413-28.447-63.413-63.413-63.413zm0 104.826c-22.835 0-41.413-18.578-41.413-41.413s18.578-41.413 41.413-41.413 41.413 18.578 41.413 41.413-18.578 41.413-41.413 41.413z"/><path d="m403.653 450.732c-.922-6.006-6.534-10.125-12.541-9.206-6.005.921-10.126 6.536-9.205 12.541l2.537 16.544-19.389 19.389h-15.209c-6.075 0-11 4.925-11 11s4.925 11 11 11h19.766c2.917 0 5.715-1.159 7.778-3.222l26.551-26.55c2.477-2.477 3.625-5.984 3.095-9.446z"/><path d="m366.17 438.082c6.007.918 11.62-3.2 12.541-9.206.921-6.005-3.2-11.62-9.205-12.541l-22.344-3.427c-3.46-.527-6.97.618-9.446 3.095l-26.551 26.55c-2.062 2.063-3.222 4.861-3.222 7.778v19.766c0 6.075 4.925 11 11 11s11-4.925 11-11v-15.209l19.39-19.39z"/><path d="m112.228 411.482c5.412-2.76 7.562-9.384 4.803-14.797l-39.101-76.682c-2.761-5.413-9.384-7.563-14.797-4.803-5.412 2.76-7.562 9.384-4.803 14.797l39.101 76.682c1.944 3.812 5.805 6.005 9.809 6.005 1.68.001 3.387-.386 4.988-1.202z"/><path d="m78.147 299.801c1.788 0 3.602-.437 5.28-1.357l64.81-35.548c5.326-2.921 7.276-9.608 4.354-14.935-2.921-5.326-9.606-7.274-14.935-4.354l-64.81 35.548c-5.326 2.921-7.276 9.608-4.354 14.935 2.002 3.648 5.769 5.711 9.655 5.711z"/><path d="m162.154 490h-15.209l-19.39-19.389 2.537-16.544c.921-6.005-3.2-11.62-9.205-12.541-6.005-.918-11.62 3.201-12.541 9.206l-3.382 22.05c-.53 3.461.618 6.969 3.095 9.446l26.551 26.55c2.063 2.063 4.861 3.222 7.778 3.222h19.766c6.075 0 11-4.925 11-11s-4.925-11-11-11z"/><path d="m174.284 416.003c-2.478-2.477-5.984-3.622-9.446-3.095l-21.047 3.228c-6.005.921-10.126 6.536-9.205 12.541.922 6.006 6.531 10.125 12.541 9.206l15.54-2.384 19.39 19.39v15.209c0 6.075 4.925 11 11 11s11-4.925 11-11v-19.766c0-2.917-1.159-5.715-3.222-7.778z"/></g><g><path d="m456.108 266c-19.299 0-35 15.701-35 35s15.701 35 35 35 35-15.701 35-35-15.701-35-35-35zm0 48c-7.168 0-13-5.832-13-13s5.832-13 13-13 13 5.832 13 13-5.832 13-13 13z"/><path d="m393.053 389.662c-19.299 0-35 15.701-35 35s15.701 35 35 35 35-15.701 35-35-15.701-35-35-35zm0 48c-7.168 0-13-5.832-13-13s5.832-13 13-13 13 5.832 13 13-5.832 13-13 13z"/><path d="m55.892 266c-19.299 0-35 15.701-35 35s15.701 35 35 35 35-15.701 35-35-15.702-35-35-35zm0 48c-7.168 0-13-5.832-13-13s5.832-13 13-13 13 5.832 13 13-5.832 13-13 13z"/><path d="m118.947 389.662c-19.299 0-35 15.701-35 35s15.701 35 35 35 35-15.701 35-35-15.701-35-35-35zm0 48c-7.168 0-13-5.832-13-13s5.832-13 13-13 13 5.832 13 13-5.832 13-13 13z"/><path d="m473.353 95.954c21.311 0 38.647-17.337 38.647-38.647v-15.505c0-6.075-4.925-11-11-11h-57.406v-19.802c0-6.075-4.925-11-11-11s-11 4.925-11 11v19.802h-57.407c-6.075 0-11 4.925-11 11v15.505c0 21.31 17.338 38.647 38.648 38.647h29.759v42.571h-44.56c-2.868-17.085-17.753-30.148-35.641-30.148h-170.786c-17.888 0-32.774 13.063-35.641 30.148h-44.56v-42.571h29.76c21.311 0 38.647-17.337 38.647-38.647v-15.505c0-6.075-4.925-11-11-11h-57.407v-19.802c0-6.075-4.925-11-11-11s-11 4.925-11 11v19.802h-57.406c-6.075 0-11 4.925-11 11v15.505c0 21.31 17.337 38.647 38.647 38.647h29.759v42.571h-57.406c-6.075 0-11 4.925-11 11v12.823c0 27.12 22.063 49.184 49.184 49.184h85.275v103.779c0 19.933 16.216 36.149 36.148 36.149h170.785c19.933 0 36.148-16.216 36.148-36.149v-103.779h85.275c27.12 0 49.184-22.063 49.184-49.184v-12.823c0-6.075-4.925-11-11-11h-57.406v-42.571zm-29.759-43.152h46.406v4.505c0 9.179-7.468 16.647-16.647 16.647h-29.759zm-353.188 0h46.407v4.505c0 9.179-7.468 16.647-16.647 16.647h-29.76zm-51.759 21.152c-9.179 0-16.647-7.468-16.647-16.647v-4.505h46.406v21.152zm95.812 115.578h-85.275c-14.99 0-27.184-12.194-27.184-27.183v-1.823h112.459zm221.082 125.779c0 7.802-6.347 14.149-14.148 14.149h-170.786c-7.802 0-14.148-6.347-14.148-14.149v-170.786c0-7.801 6.347-14.148 14.148-14.148h170.785c7.802 0 14.148 6.347 14.148 14.148v170.786zm36.294-241.357c-9.18 0-16.648-7.468-16.648-16.647v-4.505h46.407v21.152zm98.165 86.571v1.823c0 14.989-12.194 27.184-27.184 27.184h-85.275v-29.007z"/><circle cx="256" cy="229.92" r="11"/></g></g><g/><g/><g/><g/><g/><g/><g/><g/><g/><g/><g/><g/><g/><g/><g/></svg>