<svg id="Capa_1" enable-background="new 0 0 512 512" height="512" viewBox="0 0 512 512" width="512" xmlns="http://www.w3.org/2000/svg" fill="#E6ECF2"><g><g><path d="m256 512c-18.421 0-33.408-14.987-33.408-33.409v-27.661c0-6.075 4.925-11 11-11s11 4.925 11 11v27.661c0 6.29 5.118 11.409 11.408 11.409 6.291 0 11.409-5.118 11.409-11.409v-27.661c0-6.075 4.925-11 11-11s11 4.925 11 11v27.661c0 18.422-14.987 33.409-33.409 33.409z" fill="#0496FF"/></g><path d="m289.409 33.409c0-18.422-14.987-33.409-33.409-33.409-18.421 0-33.408 14.987-33.408 33.409 0 14.568 9.376 26.98 22.408 31.539v17.472c0 6.075 4.925 11 11 11s11-4.925 11-11v-17.472c13.033-4.559 22.409-16.971 22.409-31.539zm-33.409 11.408c-6.29 0-11.408-5.118-11.408-11.408s5.118-11.409 11.408-11.409c6.291 0 11.409 5.118 11.409 11.409s-5.118 11.408-11.409 11.408z" fill="#0496FF"/><path d="m432.823 245.043c0-5.857-1.548-11.633-4.475-16.705-3.036-5.26-9.763-7.065-15.026-4.026-5.261 3.038-7.064 9.765-4.026 15.026 1 1.732 1.528 3.705 1.528 5.705 0 6.291-5.117 11.409-11.408 11.409s-11.408-5.118-11.408-11.409c0-2 .528-3.973 1.528-5.705 3.037-5.261 1.234-11.989-4.026-15.026-5.262-3.037-11.988-1.234-15.026 4.026-2.928 5.072-4.476 10.848-4.476 16.705 0 14.563 9.37 26.972 22.394 31.534l-.037 23.87-21.904 22.399c-4.248 4.344-.862 8.567 3.482 12.815 2.14 2.093 1.607 5.876 4.381 5.876 2.857 0 5.711-1.106 7.865-3.309l25.033-25.599c2.006-2.051 3.131-4.805 3.136-7.674l.044-28.369c13.038-4.554 22.421-16.97 22.421-31.543z"/><path d="m146.005 322.565-22.42-22.115v-23.867c13.032-4.559 22.409-16.971 22.409-31.539 0-5.856-1.548-11.632-4.476-16.705-3.038-5.261-9.765-7.063-15.026-4.026-5.261 3.038-7.064 9.765-4.026 15.026 1 1.732 1.529 3.705 1.529 5.705 0 5.885-4.479 10.741-10.207 11.344-.395-.043-.796-.069-1.202-.069-.407 0-.807.026-1.202.069-5.728-.603-10.206-5.459-10.206-11.344 0-2 .528-3.973 1.528-5.704 3.038-5.261 1.236-11.989-4.025-15.027-5.262-3.038-11.988-1.236-15.027 4.025-2.929 5.072-4.477 10.848-4.477 16.706 0 14.568 9.377 26.98 22.409 31.539v28.468c0 2.943 1.18 5.764 3.275 7.831l25.695 25.346c2.143 2.114 4.934 3.169 7.724 3.169 2.84 0 3.189-4.812 5.34-6.994 4.267-4.327 6.71-7.572 2.385-11.838z"/><g><path d="m358.084 379.79h-57.267c-3.678 0-7.112-1.838-9.152-4.898l-11.674-17.51h-47.982l-11.674 17.51c-2.04 3.06-5.475 4.898-9.152 4.898h-57.266c-18.421 0-33.409-14.987-33.409-33.409s14.987-33.409 33.409-33.409h17.317c6.075 0 11 4.925 11 11s-4.925 11-11 11h-17.317c-6.291 0-11.409 5.118-11.409 11.409s5.118 11.409 11.409 11.409h51.379l11.674-17.511c2.04-3.06 5.475-4.898 9.152-4.898h59.756c3.678 0 7.112 1.838 9.152 4.898l11.674 17.511h51.38c6.29 0 11.408-5.118 11.408-11.41 0-6.29-5.118-11.408-11.408-11.408h-17.42c-6.075 0-11-4.925-11-11s4.925-11 11-11h17.42c18.421 0 33.408 14.987 33.408 33.408 0 18.423-14.987 33.41-33.408 33.41z" fill="#0496FF"/></g><path d="m340.655 290.564h-43.776v-22.817h18.878c6.075 0 11-4.925 11-11v-114.533c0-39.015-31.741-70.756-70.756-70.756s-70.756 31.741-70.756 70.756v114.533c0 6.075 4.925 11 11 11h18.878v22.817h-43.777c-6.075 0-11 4.925-11 11v149.39c0 6.075 4.925 11 11 11h169.309c6.075 0 11-4.925 11-11v-149.39c0-6.075-4.925-11-11-11zm-133.411-148.35c0-26.884 21.872-48.756 48.756-48.756s48.756 21.872 48.756 48.756v103.533h-97.512zm29.879 125.533h37.755v22.817h-37.755zm92.532 172.207h-147.309v-127.39h147.309z"/><g><path d="m211.191 420.872c-14.39-.064-14.39-21.944.001-22 14.385.063 14.384 21.938-.001 22z"/></g><g><path d="m256.004 420.872c-6.075 0-11.003-4.925-11.003-11s4.921-11 10.996-11h.007c6.075 0 11 4.925 11 11s-4.925 11-11 11z"/></g><g><path d="m236.082 185.582c-6.075 0-11-4.925-11-11v-9.959c0-6.075 4.925-11 11-11s11 4.925 11 11v9.959c0 6.075-4.925 11-11 11z"/></g><g><path d="m275.919 185.582c-6.075 0-11-4.925-11-11v-9.959c0-6.075 4.925-11 11-11s10.999 4.925 10.999 11v9.959c0 6.075-4.925 11-10.999 11z"/></g></g></svg>