<svg id="Capa_1" enable-background="new 0 0 512 512" viewBox="0 0 512 512" xmlns="http://www.w3.org/2000/svg" fill="#052438"><g><g fill="#0496FF"><path d="m207.694 221.26-15.973 15.129 90.415 95.454-143.291-69.226-9.57 19.809 159.436 77.027 8.12-16.807 13.621-12.901z"/><path d="m331.405 428c-6.075 0-11 4.925-11 11v62c0 6.075 4.925 11 11 11s11-4.925 11-11v-62c0-6.075-4.925-11-11-11z"/><path d="m321.243 372.07c2.698 7.096 12.732 9.097 17.94 3.57 6.195-5.997 2.856-17.023-5.63-18.56-8.419-1.842-15.75 7.084-12.31 14.99z"/><path d="m245.843 116.16c3.144 8.022 14.661 9.153 19.3 1.89 4.403-6.175.492-15.624-6.99-16.88-8.43-1.848-15.76 7.084-12.31 14.99z"/><path d="m133.013 237.97c7.096 4.915 17.252-.517 17.109-9.15.141-8.623-10.02-14.054-17.109-9.14-6.428 4.018-6.436 14.275 0 18.29z"/></g><g><path d="m331.405 314.771c-29.275 0-53.092 23.817-53.092 53.092v69.137c0 6.075 4.925 11 11 11h84.184c6.075 0 11-4.925 11-11v-69.137c0-29.276-23.817-53.092-53.092-53.092zm31.092 111.229h-62.184v-58.137c0-17.145 13.947-31.092 31.092-31.092s31.092 13.948 31.092 31.092z"/><path d="m437.843 0h-363.686c-6.075 0-11 4.925-11 11s4.925 11 11 11h47.728v59.95c0 22.607 18.393 41 41 41h4.332l-66.984 66.983c-21.443 21.444-21.443 56.337 0 77.782 10.389 10.388 24.2 16.109 38.892 16.109s28.503-5.721 38.891-16.109l116.875-116.875c7.915-7.915 12.898-17.664 14.97-27.89h39.254c22.607 0 41-18.393 41-41v-59.95h47.728c6.075 0 11-4.925 11-11s-4.925-11-11-11zm-158.509 135.283-116.876 116.876c-6.232 6.233-14.52 9.666-23.334 9.666s-17.103-3.433-23.335-9.666c-12.866-12.867-12.866-33.802 0-46.669l116.877-116.876c6.232-6.232 14.52-9.665 23.334-9.665s17.103 3.433 23.335 9.665c12.866 12.867 12.866 33.803-.001 46.669zm88.782-53.333c0 10.477-8.523 19-19 19h-39.254c-2.072-10.227-7.056-19.977-14.971-27.892-10.389-10.388-24.2-16.109-38.892-16.109s-28.503 5.721-38.891 16.109l-27.892 27.892h-26.332c-10.477 0-19-8.523-19-19v-59.95h224.231v59.95z"/></g></g><g/><g/><g/><g/><g/><g/><g/><g/><g/><g/><g/><g/><g/><g/><g/></svg>