<svg id="Capa_1" enable-background="new 0 0 512 512" viewBox="0 0 512 512" xmlns="http://www.w3.org/2000/svg" fill="#E6ECF2"><g><g fill="#0496FF"><path d="m501 132.338c-6.075 0-11 4.925-11 11 0 10.2-8.298 18.499-18.498 18.499s-18.499-8.298-18.499-18.499c0-6.075-4.925-11-11-11s-11 4.925-11 11c0 18.518 12.498 34.162 29.499 38.968v56.364c0 5.105-4.154 9.259-9.26 9.259h-21.946c-4.886-18.691-21.913-32.524-42.113-32.524h-17.926c-6.075 0-11 4.925-11 11s4.925 11 11 11h17.926c11.868 0 21.524 9.656 21.524 21.524s-9.656 21.524-21.524 21.524h-10.66c-6.075 0-11 4.925-11 11s4.925 11 11 11h10.66c20.2 0 37.228-13.834 42.113-32.524h21.946c17.236 0 31.26-14.023 31.26-31.259v-56.364c17-4.806 29.498-20.45 29.498-38.968 0-6.075-4.925-11-11-11z"/><path d="m141.367 215.405h-16.55c-20.2 0-37.228 13.834-42.113 32.524h-21.946c-5.105 0-9.26-4.154-9.26-9.259v-56.364c17.001-4.806 29.499-20.45 29.499-38.968 0-6.075-4.925-11-11-11s-11 4.925-11 11c0 10.2-8.299 18.499-18.499 18.499s-18.498-8.298-18.498-18.499c0-6.075-4.925-11-11-11s-11 4.925-11 11c0 18.518 12.498 34.162 29.498 38.968v56.364c0 17.236 14.023 31.259 31.26 31.259h21.946c4.886 18.691 21.913 32.524 42.113 32.524h12.917c6.075 0 11-4.925 11-11s-4.925-11-11-11h-12.917c-11.868 0-21.524-9.656-21.524-21.524s9.656-21.524 21.524-21.524h16.55c6.075 0 11-4.925 11-11s-4.925-11-11-11z"/><path d="m115.025 442.292c-5.457 2.671-7.715 9.26-5.044 14.716 1.536 3.138 2.315 6.523 2.315 10.059 0 12.645-10.287 22.933-22.933 22.933s-22.933-10.288-22.933-22.933c0-3.425.733-6.715 2.181-9.777 2.595-5.493.245-12.05-5.248-14.645-5.49-2.596-12.05-.245-14.645 5.247-2.846 6.023-4.288 12.475-4.288 19.175 0 24.776 20.156 44.933 44.933 44.933s44.933-20.157 44.933-44.933c0-6.917-1.533-13.557-4.556-19.732-2.671-5.456-9.262-7.712-14.715-5.043z"/><path d="m226.453 442.644c-5.493 2.595-7.842 9.152-5.246 14.645 1.447 3.062 2.181 6.353 2.181 9.779 0 12.645-10.287 22.933-22.933 22.933s-22.933-10.288-22.933-22.933c0-3.426.733-6.717 2.181-9.781 2.595-5.493.245-12.05-5.248-14.644-5.495-2.593-12.05-.245-14.645 5.249-2.846 6.024-4.288 12.476-4.288 19.176 0 24.776 20.156 44.933 44.933 44.933s44.933-20.157 44.933-44.933c0-6.702-1.443-13.154-4.29-19.178-2.596-5.493-9.153-7.845-14.645-5.246z"/><path d="m337.205 442.29c-5.457 2.671-7.715 9.259-5.044 14.716 1.537 3.14 2.316 6.525 2.316 10.062 0 12.645-10.287 22.933-22.933 22.933s-22.933-10.288-22.933-22.933c0-3.426.733-6.716 2.181-9.779 2.596-5.493.247-12.05-5.246-14.645-5.492-2.598-12.049-.246-14.645 5.246-2.847 6.024-4.29 12.477-4.29 19.178 0 24.776 20.156 44.933 44.933 44.933s44.933-20.157 44.933-44.933c0-6.917-1.533-13.556-4.557-19.733-2.67-5.457-9.26-7.717-14.715-5.045z"/><path d="m448.636 442.643c-5.493 2.595-7.843 9.151-5.248 14.645 1.447 3.063 2.181 6.354 2.181 9.78 0 12.645-10.287 22.933-22.933 22.933s-22.933-10.288-22.933-22.933c0-3.426.733-6.717 2.181-9.781 2.595-5.493.245-12.05-5.248-14.644-5.495-2.593-12.049-.245-14.645 5.249-2.846 6.024-4.288 12.476-4.288 19.176 0 24.776 20.156 44.933 44.933 44.933s44.933-20.157 44.933-44.933c0-6.701-1.442-13.152-4.288-19.176-2.594-5.493-9.15-7.844-14.645-5.249z"/><path d="m266.688 61.465c0-6.075-4.925-11-11-11s-11 4.925-11 11v45.257c0 6.075 4.925 11 11 11s11-4.925 11-11z"/><path d="m216.399 110.509c6.075 0 11-4.925 11-11v-30.831c0-6.075-4.925-11-11-11s-11 4.925-11 11v30.831c0 6.075 4.925 11 11 11z"/><path d="m294.978 110.509c6.075 0 11-4.925 11-11v-30.831c0-6.075-4.925-11-11-11s-11 4.925-11 11v30.831c0 6.075 4.924 11 11 11z"/><circle cx="177.109" cy="84.101" r="11"/><circle cx="334.27" cy="84.101" r="11"/></g><g><path d="m315.3 238.532h-118.6c-6.075 0-11 4.925-11 11v61.442c0 6.075 4.925 11 11 11h118.6c6.075 0 11-4.925 11-11v-61.442c0-6.075-4.925-11-11-11zm-11 61.443h-96.6v-39.442h96.6z"/><path d="m451.368 387.109h-67.478v-140.318c0-32.314-26.289-58.604-58.604-58.604h-15.167v-23.765h14.824c45.331 0 82.211-36.88 82.211-82.211s-36.88-82.211-82.211-82.211h-137.886c-45.331 0-82.211 36.88-82.211 82.211s36.88 82.211 82.211 82.211h14.824v23.765h-15.167c-32.314 0-58.604 26.29-58.604 58.604v140.319h-67.478c-22.096 0-40.072 17.976-40.072 40.072v23.278c0 6.075 4.925 11 11 11h448.88c6.075 0 11-4.925 11-11v-23.278c0-22.097-17.976-40.073-40.072-40.073zm-324.522-304.898c0-33.2 27.011-60.211 60.211-60.211h137.887c33.2 0 60.211 27.011 60.211 60.211s-27.011 60.211-60.211 60.211h-137.887c-33.201 0-60.211-27.011-60.211-60.211zm97.035 82.211h64.238v23.765h-64.238zm-73.771 82.369c0-20.183 16.42-36.604 36.604-36.604h138.572c20.184 0 36.604 16.42 36.604 36.604v140.319h-211.78zm319.33 192.668h-426.88v-12.278c0-9.965 8.107-18.072 18.072-18.072h390.736c9.965 0 18.072 8.107 18.072 18.072z"/><path d="m286.312 342.244h-60c-6.075 0-11 4.925-11 11s4.925 11 11 11h60c6.075 0 11-4.925 11-11s-4.925-11-11-11z"/></g></g><g/><g/><g/><g/><g/><g/><g/><g/><g/><g/><g/><g/><g/><g/><g/></svg>