<svg id="Capa_1" enable-background="new 0 0 512.001 512.001" viewBox="0 0 512.001 512.001" xmlns="http://www.w3.org/2000/svg" fill="#052438"><g><g fill="#0496FF"><path d="m384.256 93.398h-13.237c-6.075 0-11 4.925-11 11s4.925 11 11 11h13.237c8.192 0 14.857 6.665 14.857 14.857v88.743c0 8.192-6.665 14.857-14.857 14.857h-61.458c-6.075 0-11 4.925-11 11s4.925 11 11 11h61.458c20.323 0 36.857-16.534 36.857-36.857v-88.743c.001-20.322-16.534-36.857-36.857-36.857z"/><path d="m223.461 327.397-52.092 45.091c-2.807 2.43-4.199 6.111-3.702 9.79l11.335 83.888-12.747 12.947-28.127-118.544 56.415-63.258c4.043-4.534 3.646-11.487-.888-15.531-4.533-4.043-11.487-3.646-15.531.888l-60.232 67.538c-2.392 2.682-3.323 6.364-2.493 9.861l34.042 143.472c.924 3.894 3.89 6.979 7.744 8.055 3.81 1.073 7.986-.013 10.797-2.877l30.482-30.961c2.388-2.425 3.518-5.818 3.062-9.19l-11.261-83.338 47.593-41.197c4.593-3.976 5.094-10.923 1.118-15.516s-10.922-5.095-15.515-1.118z"/><path d="m333.877 282.668c-4.043-4.534-10.997-4.932-15.531-.888s-4.932 10.997-.888 15.531l56.415 63.258-28.127 118.544-12.747-12.947 11.335-83.888c.497-3.679-.895-7.36-3.702-9.79l-50.312-43.551c-4.593-3.976-11.54-3.476-15.516 1.118s-3.476 11.54 1.118 15.516l45.813 39.657-11.261 83.338c-.456 3.373.675 6.766 3.062 9.19l30.482 30.961c2.81 2.865 6.987 3.95 10.797 2.877 3.854-1.077 6.82-4.161 7.744-8.055l34.042-143.472c.83-3.497-.101-7.179-2.493-9.861z"/></g><g><path d="m501 0h-490c-6.075 0-11 4.925-11 11v52.11c0 6.075 4.925 11 11 11h123.936v61.11c0 6.075 4.925 11 11 11h74.033v52.256c-26.437 13.258-44.636 40.607-44.636 72.141 0 44.48 36.187 80.667 80.667 80.667s80.667-36.187 80.667-80.667c0-31.534-18.199-58.883-44.636-72.141v-52.256h74.033c6.075 0 11-4.925 11-11v-61.11h123.936c6.075 0 11-4.925 11-11v-52.11c0-6.075-4.924-11-11-11zm-186.333 270.617c0 32.349-26.318 58.667-58.667 58.667s-58.667-26.318-58.667-58.667 26.318-58.667 58.667-58.667 58.667 26.318 58.667 58.667zm-44.635-79.42c-4.561-.804-9.244-1.247-14.031-1.247s-9.471.443-14.031 1.247v-44.977h28.062zm85.033-66.977h-198.129v-50.11h198.129zm134.935-72.11h-468v-30.11h468z"/><path d="m220.912 270.617c0 19.348 15.741 35.089 35.088 35.089s35.088-15.741 35.088-35.089-15.741-35.088-35.088-35.088-35.088 15.741-35.088 35.088zm48.177 0c0 7.217-5.872 13.089-13.088 13.089s-13.088-5.872-13.088-13.089 5.872-13.088 13.088-13.088 13.088 5.871 13.088 13.088z"/></g></g><g/><g/><g/><g/><g/><g/><g/><g/><g/><g/><g/><g/><g/><g/><g/></svg>