<svg id="Capa_1" enable-background="new 0 0 512 512" height="512" viewBox="0 0 512 512" width="512" xmlns="http://www.w3.org/2000/svg" fill="#052438"><g id="Robotics"><path d="m347.494 30.498h-32.716c-13.051-18.432-34.525-30.498-58.778-30.498s-45.727 12.066-58.778 30.498h-32.716c-6.075 0-11 4.925-11 11s4.925 11 11 11h22.203c-1.749 6.206-2.705 12.74-2.705 19.498v60.996c0 6.075 4.925 11 11 11h121.992c6.075 0 11-4.925 11-11v-60.996c0-6.757-.956-13.292-2.705-19.498h22.203c6.075 0 11-4.925 11-11s-4.925-11-11-11zm-41.498 91.494h-99.992v-49.996c0-27.568 22.428-49.996 49.996-49.996s49.996 22.428 49.996 49.996z" fill="#0496FF"/><path d="m88.302 165.536c3.042-5.259 1.245-11.988-4.014-15.029-5.26-3.042-11.988-1.243-15.029 4.014l-37.282 64.458c-.969 1.674-1.479 3.574-1.479 5.508v51.474c-6.871 1.877-13.171 5.504-18.344 10.676-7.838 7.837-12.154 18.258-12.154 29.342 0 11.085 4.316 21.506 12.154 29.344 4.297 4.295 11.262 4.296 15.557 0 4.296-4.296 4.296-11.26 0-15.556-3.683-3.683-5.711-8.579-5.711-13.788 0-5.208 2.028-10.104 5.711-13.787s8.579-5.711 13.787-5.711 10.104 2.028 13.787 5.711 5.711 8.579 5.711 13.787-2.028 10.105-5.711 13.787c-4.296 4.296-4.296 11.26 0 15.556 2.148 2.148 4.963 3.222 7.778 3.222 2.814 0 5.631-1.074 7.778-3.222 7.838-7.838 12.154-18.259 12.154-29.344 0-11.084-4.316-21.505-12.154-29.343-5.172-5.172-11.473-8.8-18.344-10.676v-48.522z"/><path d="m499.846 286.636c-5.172-5.172-11.473-8.8-18.344-10.676v-51.474c0-1.934-.51-3.833-1.479-5.508l-37.282-64.458c-3.04-5.258-9.767-7.057-15.029-4.014-5.259 3.042-7.056 9.771-4.014 15.029l35.804 61.902v48.522c-6.871 1.877-13.171 5.504-18.344 10.676-7.838 7.838-12.154 18.259-12.154 29.343 0 11.085 4.316 21.506 12.154 29.344 4.297 4.295 11.262 4.296 15.557 0 4.296-4.296 4.296-11.26 0-15.556-3.683-3.682-5.711-8.579-5.711-13.787s2.028-10.104 5.711-13.787 8.579-5.711 13.787-5.711 10.104 2.028 13.787 5.711 5.711 8.579 5.711 13.787-2.028 10.105-5.711 13.787c-4.296 4.296-4.296 11.26 0 15.556 2.148 2.148 4.963 3.222 7.778 3.222 2.814 0 5.631-1.074 7.778-3.222 7.838-7.838 12.154-18.259 12.154-29.344.001-11.083-4.315-21.504-12.153-29.342z"/><g><path d="m347.494 265.983h-55.354c-6.075 0-11-4.925-11-11s4.925-11 11-11h48.557l26.296-52.592v-47.399h-221.985v47.399l26.296 52.592h50.157c6.075 0 11 4.925 11 11s-4.925 11-11 11h-56.955c-4.167 0-7.976-2.354-9.839-6.081l-30.498-60.996c-.764-1.528-1.161-3.212-1.161-4.919v-60.996c0-6.075 4.925-11 11-11h243.984c6.075 0 11 4.925 11 11v60.996c0 1.708-.397 3.392-1.161 4.919l-30.498 60.996c-1.863 3.727-5.672 6.081-9.839 6.081z"/></g><g><path d="m408.489 174.49c-22.882 0-41.497-18.616-41.497-41.498s18.615-41.498 41.497-41.498 41.498 18.616 41.498 41.498-18.616 41.498-41.498 41.498zm0-60.996c-10.751 0-19.497 8.747-19.497 19.498s8.746 19.498 19.497 19.498 19.498-8.747 19.498-19.498-8.747-19.498-19.498-19.498z" fill="#0496FF"/></g><g><path d="m103.511 174.49c-22.882 0-41.498-18.616-41.498-41.498s18.616-41.498 41.498-41.498 41.497 18.616 41.497 41.498-18.615 41.498-41.497 41.498zm0-60.996c-10.751 0-19.498 8.747-19.498 19.498s8.747 19.498 19.498 19.498 19.497-8.747 19.497-19.498-8.746-19.498-19.497-19.498z" fill="#0496FF"/></g><g><path d="m286.498 326.979c-6.075 0-11-4.925-11-11v-91.494c0-10.751-8.747-19.498-19.498-19.498s-19.498 8.747-19.498 19.498v91.494c0 6.075-4.925 11-11 11s-11-4.925-11-11v-91.494c0-22.882 18.616-41.498 41.498-41.498s41.498 18.616 41.498 41.498v91.494c0 6.075-4.925 11-11 11z" fill="#0496FF"/></g><path d="m347.494 365.975h-19.498v-49.996c0-6.075-4.925-11-11-11h-121.992c-6.075 0-11 4.925-11 11v49.996h-19.498c-6.075 0-11 4.925-11 11v63.029c0 6.075 4.925 11 11 11s11-4.925 11-11v-52.029h19.498 121.992 19.498v52.029c0 6.075 4.925 11 11 11s11-4.925 11-11v-63.029c0-6.075-4.925-11-11-11zm-141.49-38.996h99.992v38.996h-99.992z"/><g><path d="m438.987 512h-91.493c-6.075 0-11-4.925-11-11v-60.996c0-6.075 4.925-11 11-11h60.995c2.917 0 5.715 1.159 7.778 3.222l30.498 30.498c2.062 2.063 3.222 4.861 3.222 7.778v30.498c0 6.075-4.925 11-11 11zm-80.493-22h69.493v-14.941l-24.055-24.054h-45.438z" fill="#0496FF"/></g><g><path d="m164.506 512h-91.493c-6.075 0-11-4.925-11-11v-30.498c0-2.918 1.159-5.715 3.222-7.778l30.498-30.498c2.063-2.063 4.861-3.222 7.778-3.222h60.995c6.075 0 11 4.925 11 11v60.996c0 6.075-4.925 11-11 11zm-80.493-22h69.493v-38.996h-45.439l-24.055 24.054v14.942z" fill="#0496FF"/></g></g><g><path d="m256 83c-12.923.3-14.89-19.573-2.15-21.79 15.568-2.785 17.946 21.486 2.15 21.79z"/></g></svg>