<svg id="Capa_1" enable-background="new 0 0 512 512" viewBox="0 0 512 512" xmlns="http://www.w3.org/2000/svg" fill="#052438"><g><g fill="#0496FF"><path d="m267.312 117.908c.028-6.075-4.873-11.023-10.948-11.052-.018 0-.035 0-.053 0-6.051 0-10.97 4.891-10.999 10.948l-.492 104.116c-.029 6.075 4.873 11.023 10.948 11.052h.053c6.051 0 10.97-4.891 10.999-10.948z"/><path d="m305.659 322.848v-40.515c0-3.502-1.667-6.795-4.491-8.867l-17.89-13.132c-4.897-3.594-11.78-2.539-15.376 2.358-3.595 4.897-2.539 11.782 2.358 15.377l13.399 9.835v30.388l-11.859 11.859c-4.296 4.295-4.295 11.26 0 15.556 2.147 2.148 4.963 3.222 7.778 3.222s5.63-1.074 7.778-3.222l15.081-15.081c2.063-2.063 3.222-4.861 3.222-7.778z"/><path d="m229.895 259.473-19.063 13.993c-2.823 2.073-4.491 5.366-4.491 8.868v40.515c0 2.917 1.159 5.715 3.222 7.778l15.081 15.081c2.148 2.148 4.963 3.222 7.778 3.222s5.63-1.074 7.778-3.222c4.296-4.296 4.296-11.261 0-15.556l-11.859-11.859v-30.388l14.572-10.696c4.897-3.595 5.953-10.479 2.358-15.377-3.594-4.899-10.479-5.954-15.376-2.359z"/><path d="m124.168 404.926c5.625-2.293 8.326-8.713 6.032-14.339l-48.555-119.075c-2.293-5.625-8.713-8.327-14.339-6.032-5.625 2.293-8.326 8.713-6.032 14.339l48.555 119.075c1.739 4.266 5.851 6.85 10.189 6.85 1.383-.001 2.791-.264 4.15-.818z"/><path d="m68.715 237.732c1.575.785 3.249 1.157 4.897 1.157 4.041 0 7.93-2.235 9.854-6.097l54.819-110.03c2.709-5.438.497-12.042-4.94-14.751-5.439-2.71-12.042-.498-14.751 4.94l-54.819 110.03c-2.71 5.437-.498 12.042 4.94 14.751z"/><path d="m176.377 490h-16.771l-21.487-21.487 3.326-21.684c.921-6.005-3.201-11.62-9.206-12.541-6.004-.919-11.619 3.2-12.541 9.206l-4.17 27.19c-.531 3.461.619 6.969 3.095 9.446l28.648 28.648c2.063 2.062 4.861 3.222 7.778 3.222h21.328c6.075 0 11-4.925 11-11s-4.925-11-11-11z"/><path d="m188.851 409.901c-2.477-2.476-5.987-3.625-9.446-3.095l-25.608 3.928c-6.005.921-10.126 6.536-9.206 12.541.921 6.005 6.541 10.126 12.541 9.206l20.102-3.083 21.487 21.487v16.771c0 6.075 4.925 11 11 11s11-4.925 11-11v-21.328c0-2.917-1.159-5.715-3.222-7.778z"/><path d="m444.694 265.48c-5.624-2.293-12.045.406-14.339 6.032l-48.555 119.075c-2.294 5.625.407 12.045 6.032 14.339 1.36.555 2.766.817 4.149.817 4.338 0 8.45-2.584 10.189-6.85l48.555-119.075c2.295-5.625-.406-12.045-6.031-14.338z"/><path d="m427.617 230.951c1.924 3.862 5.813 6.097 9.854 6.097 1.648 0 3.322-.372 4.897-1.157 5.438-2.709 7.649-9.313 4.94-14.751l-53.902-108.189c-2.709-5.438-9.314-7.649-14.751-4.94-5.438 2.709-7.649 9.313-4.94 14.751z"/><path d="m392.302 443.494c-.921-6.005-6.532-10.124-12.541-9.206-6.005.921-10.126 6.536-9.206 12.541l3.326 21.684-21.486 21.487h-16.771c-6.075 0-11 4.925-11 11s4.925 11 11 11h21.328c2.917 0 5.715-1.159 7.778-3.222l28.648-28.648c2.476-2.477 3.625-5.984 3.095-9.446z"/><path d="m353.672 432.297c5.999.917 11.619-3.201 12.541-9.206.921-6.005-3.201-11.619-9.206-12.541l-24.413-3.744c-3.465-.53-6.969.619-9.446 3.095l-28.648 28.649c-2.063 2.063-3.222 4.861-3.222 7.778v21.328c0 6.075 4.925 11 11 11s11-4.925 11-11v-16.771l21.487-21.487z"/></g><g><path d="m242.938 217.589c-17.839 7.203-26.493 27.575-19.291 45.415 5.48 13.573 18.584 21.829 32.396 21.829 4.341 0 8.752-.816 13.019-2.538 17.839-7.203 26.493-27.575 19.291-45.415-7.203-17.839-27.574-26.493-45.415-19.291zm17.888 44.305c-6.59 2.663-14.117-.536-16.778-7.126-2.661-6.591.536-14.117 7.126-16.778 1.576-.637 3.206-.938 4.81-.938 5.103 0 9.944 3.05 11.968 8.064 2.661 6.591-.536 14.117-7.126 16.778z"/><path d="m61.718 216.886c-19.238 0-34.89 15.651-34.89 34.89s15.651 34.89 34.89 34.89 34.89-15.651 34.89-34.89-15.652-34.89-34.89-34.89zm0 47.78c-7.107 0-12.89-5.782-12.89-12.89s5.782-12.89 12.89-12.89 12.89 5.782 12.89 12.89-5.783 12.89-12.89 12.89z"/><path d="m129.756 383.74c-19.238 0-34.89 15.651-34.89 34.89s15.651 34.89 34.89 34.89 34.89-15.651 34.89-34.89-15.651-34.89-34.89-34.89zm0 47.78c-7.107 0-12.89-5.782-12.89-12.89s5.782-12.89 12.89-12.89 12.89 5.782 12.89 12.89-5.782 12.89-12.89 12.89z"/><path d="m501 0h-490c-6.075 0-11 4.925-11 11v52.11c0 6.075 4.925 11 11 11h39.718v41.11c0 6.075 4.925 11 11 11h388.564c6.075 0 11-4.925 11-11v-41.11h39.718c6.075 0 11-4.925 11-11v-52.11c0-6.075-4.925-11-11-11zm-61.718 104.22h-366.564v-30.11h366.564zm50.718-52.11h-468v-30.11h468z"/><path d="m450.282 216.886c-19.238 0-34.89 15.651-34.89 34.89s15.651 34.89 34.89 34.89 34.89-15.651 34.89-34.89-15.651-34.89-34.89-34.89zm0 47.78c-7.107 0-12.89-5.782-12.89-12.89s5.782-12.89 12.89-12.89 12.89 5.782 12.89 12.89-5.782 12.89-12.89 12.89z"/><path d="m382.244 383.74c-19.238 0-34.89 15.651-34.89 34.89s15.651 34.89 34.89 34.89 34.89-15.651 34.89-34.89-15.652-34.89-34.89-34.89zm0 47.78c-7.107 0-12.89-5.782-12.89-12.89s5.782-12.89 12.89-12.89 12.89 5.782 12.89 12.89-5.783 12.89-12.89 12.89z"/></g></g><g/><g/><g/><g/><g/><g/><g/><g/><g/><g/><g/><g/><g/><g/><g/></svg>