<svg id="Capa_1" enable-background="new 0 0 512 512" height="512" viewBox="0 0 512 512" width="512" xmlns="http://www.w3.org/2000/svg" fill="#052438"><g><path d="m435.313 334.265v-28.468c0-2.921-1.162-5.722-3.23-7.786l-22.408-22.366c-4.298-4.292-11.264-4.285-15.556.015s-4.285 11.265.015 15.556l19.179 19.143v23.905c-13.032 4.559-22.408 16.971-22.408 31.539 0 5.857 1.548 11.633 4.476 16.705 3.037 5.26 9.762 7.065 15.026 4.026 5.262-3.038 7.064-9.765 4.026-15.026-1-1.731-1.528-3.704-1.528-5.704 0-5.833 4.403-10.65 10.058-11.321.443.054.892.091 1.35.091s.907-.037 1.35-.091c5.656.671 10.059 5.488 10.059 11.321 0 1.999-.528 3.971-1.529 5.704-3.037 5.261-1.235 11.989 4.026 15.026 1.732 1 3.623 1.476 5.489 1.476 3.802 0 7.5-1.973 9.537-5.502 2.929-5.073 4.477-10.849 4.477-16.705 0-14.567-9.376-26.979-22.409-31.538z"/><path d="m98.686 334.265v-23.904l19.177-19.13c4.301-4.29 4.31-11.255.019-15.556-4.291-4.302-11.256-4.309-15.556-.019l-22.408 22.354c-2.069 2.063-3.231 4.865-3.231 7.788v28.468c-13.032 4.559-22.409 16.971-22.409 31.539 0 5.857 1.548 11.633 4.476 16.705 3.038 5.262 9.767 7.064 15.026 4.026 5.261-3.038 7.064-9.765 4.026-15.026-1-1.731-1.528-3.704-1.528-5.704 0-6.263 5.074-11.36 11.327-11.404.028 0 .054.004.082.004s.055-.004.082-.004c6.253.045 11.326 5.141 11.326 11.404 0 2-.528 3.973-1.528 5.704-3.038 5.261-1.235 11.989 4.026 15.026 1.732 1 3.623 1.476 5.49 1.476 3.801 0 7.499-1.973 9.537-5.502 2.928-5.072 4.476-10.848 4.476-16.705-.002-14.568-9.378-26.981-22.41-31.54z"/><g><path d="m382.982 297.875h-17.45c-6.075 0-11-4.925-11-11s4.925-11 11-11h17.45c6.29 0 11.408-5.117 11.408-11.408s-5.118-11.409-11.408-11.409h-76.278l-11.674 17.511c-2.04 3.06-5.475 4.898-9.152 4.898h-59.756c-3.678 0-7.112-1.838-9.152-4.898l-11.674-17.511h-76.278c-6.29 0-11.408 5.118-11.408 11.408 0 6.291 5.118 11.409 11.408 11.409h17.396c6.075 0 11 4.925 11 11s-4.925 11-11 11h-17.396c-18.421 0-33.408-14.987-33.408-33.409 0-18.421 14.987-33.408 33.408-33.408h82.165c3.678 0 7.112 1.838 9.152 4.898l11.674 17.51h47.982l11.674-17.51c2.04-3.06 5.475-4.898 9.152-4.898h82.165c18.421 0 33.408 14.987 33.408 33.409 0 18.421-14.987 33.408-33.408 33.408z" fill="#0496FF"/></g><g><path d="m295.838 116.614h-79.675c-19.794 0-35.898-16.104-35.898-35.898s16.104-35.898 35.898-35.898h79.675c19.794 0 35.897 16.104 35.897 35.898s-16.103 35.898-35.897 35.898zm-79.676-49.797c-7.664 0-13.898 6.235-13.898 13.898 0 7.664 6.235 13.899 13.898 13.899h79.675c7.663 0 13.897-6.235 13.897-13.898s-6.234-13.898-13.897-13.898h-79.675z" fill="#0496FF"/></g><g><path d="m216.085 404.938h-44.425c-6.075 0-11-4.925-11-11s4.925-11 11-11h44.425c6.075 0 11 4.925 11 11s-4.925 11-11 11z" fill="#0496FF"/></g><g><path d="m340.851 404.938h-44.767c-6.075 0-11-4.925-11-11s4.925-11 11-11h44.767c6.075 0 11 4.925 11 11s-4.924 11-11 11z" fill="#0496FF"/></g><path d="m365.552 161.431c6.075 0 11-4.925 11-11v-139.431c0-6.075-4.925-11-11-11h-219.105c-6.075 0-11 4.925-11 11v139.431c0 6.075 4.925 11 11 11h76.144v24.81h-76.144c-6.075 0-11 4.925-11 11v134.451c0 6.075 4.925 11 11 11h13.899v102.491h-1.45c-5.605 0-10.314 4.214-10.933 9.785l-4.98 44.817c-.346 3.11.649 6.219 2.736 8.551 2.086 2.331 5.067 3.664 8.196 3.664h79.675c3.129 0 6.11-1.332 8.196-3.664 2.087-2.332 3.082-5.441 2.736-8.551l-4.98-44.817c-.619-5.571-5.328-9.785-10.933-9.785h-1.451v-102.491h57.678v102.491h-1.45c-5.605 0-10.314 4.215-10.933 9.785l-4.979 44.817c-.346 3.11.649 6.219 2.736 8.551 2.086 2.331 5.067 3.664 8.196 3.664h79.674c3.129 0 6.109-1.332 8.196-3.664s3.082-5.441 2.736-8.551l-4.979-44.817c-.619-5.571-5.327-9.785-10.933-9.785h-1.45v-102.491h13.899c6.075 0 11-4.925 11-11v-134.452c0-6.075-4.925-11-11-11h-76.144v-24.81h76.147zm-208.105-139.431h197.105v117.431h-197.105zm61.319 445.183 2.535 22.817h-55.095l2.535-22.817zm-13.605-22h-22.815v-102.491h22.815zm138.097 22 2.535 22.817h-55.094l2.535-22.817zm-13.605-22h-22.814v-102.491h22.814zm24.899-236.943v112.451h-197.105v-112.451zm-87.143-22h-22.818v-24.81h22.818z"/><g><path d="m191.272 297.874c-14.39-.064-14.39-21.944.001-22 14.384.063 14.383 21.938-.001 22z"/></g></g></svg>