<svg id="Capa_1" enable-background="new 0 0 512 512" height="512" viewBox="0 0 512 512" width="512" xmlns="http://www.w3.org/2000/svg" fill="#E6ECF2"><g><g><path d="m256 406.43c-82.948 0-150.431-67.483-150.431-150.431s67.483-150.431 150.431-150.431c82.947 0 150.431 67.483 150.431 150.431 0 82.949-67.483 150.431-150.431 150.431zm0-278.861c-70.817 0-128.431 57.614-128.431 128.431s57.614 128.431 128.431 128.431 128.431-57.614 128.431-128.431-57.613-128.431-128.431-128.431z" fill="#0496FF"/></g><path d="m451.247 256c0-71.87-39.04-134.786-97.02-168.68l-7.606-77.396c-.553-5.631-5.289-9.924-10.947-9.924h-159.348c-5.658 0-10.394 4.293-10.947 9.924l-7.605 77.395c-57.982 33.895-97.021 96.81-97.021 168.681s39.04 134.786 97.02 168.68l7.605 77.396c.553 5.631 5.289 9.924 10.947 9.924h159.348c5.658 0 10.394-4.293 10.947-9.924l7.606-77.396c57.982-33.894 97.021-96.81 97.021-168.68zm-264.949-234h139.404l5.28 53.734c-23.098-9.644-48.427-14.982-74.982-14.982s-51.883 5.337-74.982 14.982zm139.404 468h-139.404l-5.28-53.734c23.099 9.644 48.428 14.981 74.982 14.981s51.883-5.337 74.983-14.982zm-69.702-60.753c-95.529 0-173.248-77.719-173.248-173.248s77.719-173.247 173.248-173.247c95.528 0 173.247 77.718 173.247 173.247 0 95.53-77.718 173.248-173.247 173.248z"/><g><path d="m233.592 274.47c-6.075 0-11-4.925-11-11v-9.959c0-6.075 4.925-11 11-11s11 4.925 11 11v9.959c0 6.075-4.925 11-11 11z"/></g><g><path d="m278.408 274.47c-6.075 0-11-4.925-11-11v-9.959c0-6.075 4.925-11 11-11s11 4.925 11 11v9.959c0 6.075-4.924 11-11 11z"/></g><path d="m331.004 215.854-19.919-19.919c-2.063-2.063-4.861-3.222-7.778-3.222h-36.303v-18.877c0-6.075-4.925-11-11-11s-11 4.925-11 11v18.877h-36.311c-2.917 0-5.715 1.159-7.778 3.222l-19.919 19.919c-2.063 2.063-3.222 4.861-3.222 7.778v89.634c0 6.075 4.925 11 11 11h134.451c6.075 0 11-4.925 11-11v-89.634c.001-2.917-1.158-5.715-3.221-7.778zm-18.778 86.412h-112.451v-74.078l13.475-13.475h42.203c.184.009.365.028.552.028.186 0 .368-.019.551-.028h42.195l13.476 13.475v74.078z" fill="#0496FF"/></g></svg>