<svg id="Capa_1" enable-background="new 0 0 512.015 512.015" viewBox="0 0 512.015 512.015" xmlns="http://www.w3.org/2000/svg" fill="#E6ECF2"><g><g fill="#0496FF"><path d="m349.237 314.738-16.119-12.952c.016-.63.023-1.26.023-1.886s-.008-1.256-.023-1.886l16.119-12.952c4.23-3.399 5.35-9.375 2.637-14.075l-22.89-39.646c-2.713-4.7-8.447-6.718-13.508-4.754l-19.285 7.487c-1.07-.654-2.156-1.281-3.257-1.882l-3.158-20.443c-.828-5.363-5.444-9.321-10.871-9.321h-45.779c-5.427 0-10.042 3.958-10.871 9.321l-3.158 20.442c-1.101.601-2.188 1.229-3.257 1.883l-19.285-7.487c-5.059-1.963-10.793.055-13.507 4.754l-22.89 39.646c-2.713 4.7-1.594 10.676 2.637 14.075l16.119 12.952c-.016.63-.023 1.26-.023 1.886s.008 1.256.023 1.886l-16.119 12.952c-4.23 3.399-5.35 9.375-2.637 14.075l22.89 39.646c2.713 4.7 8.449 6.717 13.507 4.754l19.285-7.487c1.07.654 2.157 1.282 3.257 1.883l3.158 20.442c.829 5.363 5.444 9.321 10.871 9.321h45.779c5.427 0 10.043-3.958 10.871-9.321l3.158-20.443c1.101-.601 2.187-1.229 3.257-1.882l19.285 7.487c5.061 1.962 10.795-.055 13.508-4.754l22.89-39.646c2.712-4.7 1.593-10.676-2.637-14.075zm-38.395-20.596c.198 1.917.299 3.854.299 5.758s-.101 3.84-.299 5.758c-.385 3.714 1.142 7.369 4.052 9.707l13.211 10.616-13.458 23.311-15.813-6.14c-3.488-1.353-7.424-.843-10.449 1.357-3.094 2.249-6.437 4.181-9.935 5.743-3.412 1.523-5.817 4.673-6.388 8.366l-2.588 16.755h-26.917l-2.588-16.755c-.57-3.692-2.976-6.843-6.387-8.366-3.5-1.562-6.842-3.494-9.934-5.742-3.026-2.2-6.963-2.711-10.45-1.357l-15.814 6.14-13.458-23.311 13.212-10.616c2.911-2.338 4.436-5.993 4.052-9.707-.199-1.92-.299-3.858-.299-5.758s.101-3.837.299-5.758c.384-3.714-1.141-7.369-4.052-9.707l-13.212-10.616 13.458-23.311 15.814 6.14c3.487 1.353 7.424.843 10.45-1.357 3.092-2.248 6.434-4.18 9.934-5.742 3.412-1.523 5.817-4.673 6.387-8.366l2.588-16.755h26.917l2.588 16.755c.57 3.692 2.976 6.843 6.388 8.366 3.498 1.562 6.841 3.494 9.935 5.743 3.024 2.2 6.962 2.711 10.449 1.357l15.813-6.14 13.458 23.311-13.211 10.616c-2.91 2.336-4.437 5.991-4.052 9.705z"/><path d="m256.015 262.739c-20.49 0-37.161 16.67-37.161 37.161s16.67 37.161 37.161 37.161 37.161-16.67 37.161-37.161-16.67-37.161-37.161-37.161zm0 52.321c-8.359 0-15.161-6.801-15.161-15.161s6.801-15.161 15.161-15.161 15.161 6.801 15.161 15.161-6.801 15.161-15.161 15.161z"/></g><g><path d="m501.015 416.87h-37.701l42.156-118.921c4.252-11.994 3.578-24.926-1.896-36.413-3.358-7.046-8.281-13.024-14.349-17.58l-57.239-185.652c-.062-.203-.143-.395-.216-.592-4.825-15.545-19.34-26.867-36.451-26.867h-57.569c-.237 0-.468.021-.701.035-7.833-5.553-17.163-8.558-26.96-8.558-12.488 0-24.229 4.863-33.06 13.693-16.901 16.901-18.12 43.624-3.68 61.957l7.059 57.819c.674 5.519 5.359 9.667 10.919 9.667h7.762v24.208c0 6.075 4.925 11 11 11s11-4.925 11-11v-24.208h7.762c5.56 0 10.245-4.148 10.919-9.667l5.937-48.631h26.05l46.672 152.654c-1.055 2.004-1.986 4.103-2.764 6.3l-53.441 150.756h-216.216l-53.441-150.756c-.778-2.196-1.709-4.295-2.764-6.299l46.672-152.655h26.051l5.937 48.631c.674 5.519 5.359 9.667 10.919 9.667h7.762v24.208c0 6.075 4.925 11 11 11s11-4.925 11-11v-24.208h7.761c5.56 0 10.245-4.148 10.919-9.667l7.058-57.812c6.485-8.209 10.014-18.283 10.014-28.905 0-12.488-4.863-24.229-13.693-33.059-8.83-8.831-20.571-13.694-33.059-13.694-9.776 0-19.087 2.992-26.91 8.523h-58.32c-17.113 0-31.63 11.325-36.453 26.874-.072.194-.151.384-.213.585l-57.24 185.653c-6.068 4.556-10.991 10.534-14.349 17.58-5.475 11.487-6.148 24.419-1.896 36.413l42.156 118.921h-33.904c-6.075 0-11 4.925-11 11v50.823c0 6.075 4.925 11 11 11h490c6.075 0 11-4.925 11-11v-50.823c0-6.075-4.925-11-11-11zm-181.903-273.412h-18.046l-3.587-29.385c4.119 1.147 8.363 1.732 12.61 1.732s8.491-.585 12.611-1.732zm8.48-56.881c-9.651 9.652-25.356 9.652-35.006 0-9.651-9.651-9.651-25.355 0-35.006 4.675-4.675 10.891-7.25 17.503-7.25 6.611 0 12.828 2.575 17.503 7.25 9.652 9.652 9.652 25.355 0 35.006zm-120.427 56.881h-18.045l-3.587-29.385c4.119 1.147 8.363 1.732 12.61 1.732s8.491-.585 12.61-1.732zm-26.525-91.886c4.675-4.675 10.891-7.25 17.503-7.25s12.828 2.575 17.503 7.25 7.25 10.891 7.25 17.502-2.575 12.828-7.25 17.503c-9.65 9.652-25.354 9.651-35.005 0-9.652-9.651-9.652-25.354-.001-35.005zm173.333 33.588c3.799-10.414 3.78-21.912-.054-32.315h41.4c8.909 0 16.157 7.249 16.157 16.158s-7.248 16.158-16.157 16.158h-41.346zm40.79 22h.556c9.865 0 18.867-3.763 25.647-9.929l42.314 137.245c-9.76-.553-19.337 1.938-27.485 6.891zm41.638 166.305c4.724-13.325 19.405-20.323 32.732-15.6 6.455 2.289 11.633 6.954 14.579 13.136 2.947 6.183 3.31 13.142 1.021 19.597l-44.761 126.272h-54.406zm-323.488-220.62h41.4c-3.834 10.404-3.853 21.901-.054 32.315h-41.346c-8.909 0-16.157-7.249-16.157-16.158s7.248-16.157 16.157-16.157zm-25.647 44.387c6.78 6.166 15.782 9.928 25.647 9.928h.556l-41.033 134.209c-8.148-4.953-17.725-7.444-27.485-6.892zm-63.768 193.366c-2.288-6.455-1.926-13.415 1.021-19.597 2.946-6.183 8.124-10.848 14.58-13.136 6.455-2.287 13.415-1.925 19.597 1.021 6.183 2.946 10.847 8.124 13.136 14.579l50.835 143.405h-54.407zm466.517 177.095h-468v-28.823h468z"/><circle cx="47.665" cy="282.029" r="11"/><circle cx="460.565" cy="282.029" r="11"/></g></g><g/><g/><g/><g/><g/><g/><g/><g/><g/><g/><g/><g/><g/><g/><g/></svg>