<svg id="Capa_1" enable-background="new 0 0 512 512" height="512" viewBox="0 0 512 512" width="512" xmlns="http://www.w3.org/2000/svg" fill="#E6ECF2"><g><g><path d="m163.112 409.356c-.464 0-.933-.029-1.405-.09l-46.502-5.93c-6.026-.769-10.289-6.277-9.521-12.303s6.271-10.292 12.303-9.52l46.502 5.93c6.026.769 10.289 6.277 9.52 12.303-.707 5.554-5.442 9.61-10.897 9.61z" fill="#0496FF"/></g><g><path d="m348.888 409.356c-5.468 0-10.206-4.073-10.901-9.639-.752-6.028 3.525-11.525 9.554-12.277l46.503-5.802c6.021-.755 11.524 3.525 12.277 9.553.752 6.028-3.525 11.525-9.554 12.277l-46.502 5.802c-.463.058-.923.086-1.377.086z" fill="#0496FF"/></g><g><path d="m277.958 385.942h-44.043c-6.075 0-11-4.925-11-11s4.925-11 11-11h44.043c6.075 0 11 4.925 11 11s-4.925 11-11 11z" fill="#0496FF"/></g><path d="m340.342 196.54h-28.525v-27.484h2.885c17.629 0 31.972-14.833 31.972-33.066 0-14.23-7.208-26.781-19.282-33.573-3.643-2.049-7.495-3.42-11.416-4.127-.406-7.126-2.797-14.043-7.107-20.077-7.073-9.9-18.35-15.811-30.166-15.811-8.323 0-16.288 2.829-22.703 7.793-6.415-4.965-14.38-7.793-22.703-7.793-11.693 0-22.886 5.896-29.94 15.773-4.333 6.067-6.744 12.988-7.168 20.09-3.978.698-7.888 2.074-11.581 4.152-12.074 6.793-19.282 19.344-19.282 33.573 0 18.233 14.343 33.066 31.972 33.066h2.885v27.484h-28.525c-6.075 0-11 4.925-11 11s4.925 11 11 11h39.525c6.075 0 11-4.925 11-11v-38.484h22.817v38.484c0 6.075 4.925 11 11 11h.004.004c6.075 0 11-4.925 11-11 0-.049-.007-.096-.007-.145v-38.339h22.817v38.484c0 6.075 4.925 11 11 11h39.525c6.075 0 11-4.925 11-11-.001-6.075-4.925-11-11.001-11zm-126.767-49.484c-.771-.171-1.57-.269-2.392-.269-.823 0-1.621.097-2.392.269h-11.492c-5.405 0-9.972-5.068-9.972-11.066 0-6.174 3.017-11.557 8.069-14.399 4.521-2.544 9.643-2.467 14.052.211 5.192 3.154 11.958 1.502 15.112-3.691 3.154-5.192 1.501-11.958-3.69-15.112-.886-.538-1.791-1.02-2.704-1.476-.214-3.712.838-7.402 3.094-10.561 2.934-4.107 7.434-6.56 12.038-6.56 4.551 0 8.84 2.098 11.703 5.595v57.059zm53.425-57.06c2.863-3.497 7.152-5.595 11.703-5.595 4.727 0 9.312 2.467 12.265 6.6 2.204 3.085 3.234 6.73 3.031 10.442-.969.478-1.929.985-2.867 1.555-5.192 3.154-6.845 9.92-3.69 15.112 3.153 5.193 9.919 6.844 15.112 3.691.796-.483 1.616-.879 2.45-1.193.901-.126 1.779-.359 2.614-.698 3.014-.489 6.121.067 8.988 1.679 5.053 2.843 8.069 8.226 8.069 14.399 0 5.999-4.567 11.066-9.972 11.066h-47.703z" fill="#0496FF"/><path d="m395.43 258.942h-12.815c21.433-28.314 33.774-63.673 33.774-98.552.001-88.439-71.95-160.39-160.389-160.39s-160.389 71.951-160.389 160.39c0 34.846 12.348 70.199 33.795 98.552h-12.836c-6.075 0-11 4.925-11 11v59.756c0 6.075 4.925 11 11 11h19.829l-29.104 45.658c-1.731 2.716-2.185 6.054-1.242 9.133l33.294 108.731c1.425 4.653 5.717 7.78 10.512 7.779.309 0 .622-.013.934-.039 5.162-.437 9.319-4.416 9.982-9.554l12.867-99.798 42.879-57.759 28.71 138.464c1.058 5.102 5.55 8.762 10.761 8.767h.01c5.207 0 9.701-3.651 10.767-8.747l28.914-138.212 42.678 57.488 12.867 99.798c.663 5.138 4.82 9.117 9.982 9.554.313.027.625.039.934.039 4.794 0 9.087-3.127 10.512-7.779l33.294-108.731c.937-3.058.496-6.372-1.208-9.079l-28.766-45.712h19.456c6.075 0 11-4.925 11-11v-59.756c-.002-6.076-4.927-11.001-11.002-11.001zm-277.819-98.552c0-76.309 62.081-138.39 138.389-138.39s138.39 62.081 138.39 138.39c0 35.892-15.164 72.409-40.739 98.552h-52.833c-2.918 0-5.715 1.159-7.778 3.222l-11.717 11.717h-50.644l-11.717-11.717c-2.063-2.063-4.861-3.222-7.778-3.222h-52.829c-25.581-26.207-40.744-62.711-40.744-98.552zm36.655 231.408c-1.122 1.511-1.837 3.284-2.078 5.15l-6.721 52.125-16.894-55.172 33.914-53.203h29.714zm101.782 35.333-17.921-86.433h36.003zm127.39-33.267-16.905 55.209-6.721-52.125c-.241-1.866-.956-3.639-2.078-5.15l-37.936-51.1h30.183zm.992-75.166h-85.323c-.828-.094-1.665-.095-2.498 0h-70.729c-.838-.099-1.697-.103-2.564 0h-7.924c-.834-.096-1.672-.094-2.501 0h-85.321v-37.756h25.2c.366.037.733.058 1.1.058.373 0 .745-.02 1.116-.058h51.639l11.718 11.717c2.062 2.063 4.86 3.222 7.778 3.222h59.756c2.918 0 5.715-1.159 7.778-3.222l11.718-11.717h79.057z"/></g></svg>