<svg id="Capa_1" enable-background="new 0 0 512.003 512.003" viewBox="0 0 512.003 512.003" xmlns="http://www.w3.org/2000/svg" fill="#052438"><g><g fill="#0496FF"><path d="m433.641 59.799c-5.854-1.623-11.915 1.811-13.536 7.666l-8.777 31.707-33.453 2.722-11.251-11.251 7.778-7.778c4.296-4.296 4.296-11.261 0-15.557-4.297-4.296-11.26-4.296-15.557 0l-7.778 7.778-11.251-11.251 2.722-33.453 31.706-8.778c5.855-1.621 9.287-7.681 7.667-13.536-1.621-5.854-7.679-9.287-13.536-7.666l-39.113 10.828c-4.448 1.231-7.655 5.109-8.029 9.709l-3.757 46.184c-.262 3.218.903 6.388 3.186 8.67l14.849 14.849-21.92 21.92c-4.296 4.296-4.296 11.261 0 15.557 2.148 2.148 4.963 3.222 7.778 3.222s5.63-1.074 7.778-3.222l21.92-21.92 14.849 14.849c2.071 2.071 4.873 3.222 7.777 3.222.297 0 .595-.012.893-.036l46.184-3.757c4.601-.375 8.479-3.581 9.71-8.029l10.828-39.112c1.62-5.856-1.812-11.917-7.667-13.537z"/><path d="m162.321 285.333c-2.68-7.094-12.731-9.086-17.93-3.57-6.903 6.792-1.914 18.849 7.771 18.78 7.586.222 13.286-8.291 10.159-15.21z"/><path d="m404.321 285.333c-2.665-7.093-12.744-9.084-17.93-3.57-6.897 6.795-1.918 18.847 7.771 18.78 7.587.218 13.286-8.286 10.159-15.21z"/></g><path d="m394.165 234.543c-17.955 0-33.926 8.65-43.97 22h-118.36l72.563-72.563 6.364 6.364c2.063 2.063 4.861 3.222 7.778 3.222s5.716-1.159 7.778-3.222l31.112-31.113c4.296-4.296 4.296-11.261 0-15.557l-59.396-59.397c-4.297-4.295-11.262-4.295-15.557 0l-31.113 31.113c-2.062 2.063-3.222 4.861-3.222 7.778s1.159 5.715 3.222 7.778l6.364 6.364-97.791 97.791c-2.541-.361-5.133-.559-7.772-.559-30.327 0-55 24.673-55 55s24.673 55 55 55c17.955 0 33.926-8.65 43.97-22h118.361l-123.46 123.46h-44.691c-22.607 0-41 18.393-41 41v3h-31.508c-6.075 0-11 4.925-11 11s4.925 11 11 11h305.735c6.075 0 11-4.925 11-11s-4.925-11-11-11h-31.506v-3c0-22.607-18.393-41-41-41h-22.692l102.019-102.019c2.541.361 5.133.559 7.772.559 30.327 0 55-24.673 55-55s-24.672-54.999-55-54.999zm-103.909-126.931 43.84 43.841-15.556 15.557-43.84-43.841zm-16.971 45.256 15.556 15.556-90.811 90.811c-4.09-6.169-9.387-11.466-15.556-15.556zm-121.12 169.675c-18.196 0-33-14.804-33-33s14.804-33 33-33 33 14.804 33 33-14.803 33-33 33zm53.894-22c.725-3.555 1.107-7.234 1.107-11 0-2.638-.198-5.231-.559-7.771l3.229-3.229h130.437c-.725 3.555-1.107 7.234-1.107 11 0 2.639.198 5.231.559 7.771l-3.229 3.229zm120.008 186.46v3h-198.723v-3c0-10.477 8.523-19 19-19h160.723c10.476 0 19 8.523 19 19zm-72.806-41h-31.112l126.152-126.152c4.09 6.168 9.387 11.466 15.556 15.556zm140.904-123.46c-18.196 0-33-14.804-33-33s14.804-33 33-33 33 14.804 33 33-14.803 33-33 33z"/></g><g/><g/><g/><g/><g/><g/><g/><g/><g/><g/><g/><g/><g/><g/><g/></svg>