<svg id="Capa_1" enable-background="new 0 0 512 512" viewBox="0 0 512 512" xmlns="http://www.w3.org/2000/svg" fill="#E6ECF2"><g><g fill="#0496FF"><path d="m121 402c-18.196 0-33 14.804-33 33s14.804 33 33 33 33-14.804 33-33-14.804-33-33-33zm0 44c-6.065 0-11-4.935-11-11s4.935-11 11-11 11 4.935 11 11-4.935 11-11 11z"/><path d="m353.04 402c-18.196 0-33 14.804-33 33s14.804 33 33 33 33-14.804 33-33-14.804-33-33-33zm0 44c-6.065 0-11-4.935-11-11s4.935-11 11-11 11 4.935 11 11-4.935 11-11 11z"/><path d="m65.16 261.79c-2.691-7.1-12.733-9.08-17.94-3.57-6.889 6.8-1.911 18.855 7.781 18.78 7.582.221 13.271-8.282 10.159-15.21z"/><path d="m276.16 50.79c-2.694-7.099-12.73-9.079-17.94-3.57-6.895 6.802-1.908 18.854 7.78 18.78 7.585.223 13.272-8.284 10.16-15.21z"/><path d="m509.383 227.454-30-35.313c-2.09-2.46-5.155-3.878-8.383-3.878h-21v-29c0-6.075-4.925-11-11-11s-11 4.925-11 11v29h-21c-3.228 0-6.293 1.418-8.383 3.878l-30 35.313c-2.988 3.518-3.463 8.527-1.188 12.543l20 35.313c2.994 5.286 9.707 7.145 14.992 4.15 5.286-2.994 7.145-9.706 4.15-14.992l-16.213-28.627 21.73-25.579h15.912v11c0 6.075 4.925 11 11 11s11-4.925 11-11v-11h15.912l21.73 25.579-16.213 28.627c-2.994 5.286-1.136 11.999 4.15 14.992 1.712.97 3.574 1.431 5.411 1.431 3.834 0 7.558-2.007 9.582-5.581l20-35.313c2.274-4.016 1.8-9.025-1.189-12.543z"/></g><path d="m463.04 314h-353.04v-25.218l194.891-194.891c7.915-7.915 12.899-17.664 14.971-27.891h86.138v91.263c0 6.075 4.925 11 11 11h44c6.075 0 11-4.925 11-11v-124.263c0-18.196-14.804-33-33-33s-33 14.804-33 33v11h-86.138c-2.072-10.227-7.056-19.976-14.971-27.891-21.444-21.444-56.337-21.444-77.782 0l-210.982 211.018c-9.959 9.959-16.127 23.709-16.127 38.873v169c0 6.075 4.925 11 11 11h33.798c5.355 37.264 37.479 66 76.202 66s70.846-28.736 76.202-66h79.637c5.355 37.264 37.479 66 76.202 66s70.846-28.736 76.202-66h33.798c6.075 0 11-4.925 11-11v-110c-.001-6.075-4.926-11-11.001-11zm-35.04-281c0-6.065 4.935-11 11-11s11 4.935 11 11v113.263h-22zm-406 281v-48c0-18.196 14.804-33 33-33s33 14.804 33 33v48zm220.666-282.334c12.866-12.867 33.803-12.867 46.669 0 12.867 12.867 12.867 33.802 0 46.669l-179.894 179.893c-3.427-24.118-22.551-43.242-46.669-46.669zm-121.666 458.334c-30.327 0-55-24.673-55-55s24.673-55 55-55 55 24.673 55 55-24.673 55-55 55zm232.04 0c-30.327 0-55-24.673-55-55s24.673-55 55-55 55 24.673 55 55-24.673 55-55 55zm99-66h-22.798c-5.355-37.264-37.479-66-76.202-66s-70.846 28.736-76.202 66h-79.637c-5.355-37.264-37.479-66-76.202-66s-70.846 28.736-76.202 66h-22.797v-88h430.04z"/></g><g/><g/><g/><g/><g/><g/><g/><g/><g/><g/><g/><g/><g/><g/><g/></svg>