<svg id="Capa_1" enable-background="new 0 0 512 512" viewBox="0 0 512 512" xmlns="http://www.w3.org/2000/svg" fill="#052438"><g><g><path d="m79.226 397.474c-19.465 0-35.301 15.836-35.301 35.301s15.836 35.301 35.301 35.301 35.301-15.836 35.301-35.301-15.837-35.301-35.301-35.301zm0 48.601c-7.334 0-13.301-5.967-13.301-13.301s5.967-13.301 13.301-13.301 13.301 5.967 13.301 13.301-5.967 13.301-13.301 13.301z"/><path d="m468.075 361.878v-92.424c0-31.695-24.553-57.746-55.635-60.178v-37.714c0-6.075-4.925-11-11-11h-75.899v-20.838h17.331c6.075 0 11-4.925 11-11v-8.295c22.61-4.229 39.779-24.101 39.779-47.919v-5.296c0-23.818-17.17-43.689-39.779-47.918v-8.296c0-6.075-4.925-11-11-11h-56.661c-6.075 0-11 4.925-11 11v117.725c0 6.075 4.925 11 11 11h17.33v20.838h-130.514v-43.657c0-6.075-4.925-11-11-11s-11 4.925-11 11v43.657h-40.467c-6.075 0-11 4.925-11 11v37.714c-31.082 2.432-55.635 28.483-55.635 60.178v92.424c-26.012 13.004-43.925 39.89-43.925 70.895 0 43.685 35.541 79.226 79.226 79.226 39.991 0 73.137-29.791 78.46-68.342h196.63c5.323 38.551 38.468 68.342 78.46 68.342 43.684 0 79.224-35.541 79.224-79.226 0-31.005-17.913-57.891-43.925-70.896zm-96.424-294.664v5.296c0 11.607-7.428 21.507-17.779 25.207v-55.709c10.351 3.7 17.779 13.6 17.779 25.206zm-74.44-45.214h34.661v95.725h-34.661zm93.229 160.562v26.509h-268.88v-26.509zm-286.133 48.51h303.385c21.164 0 38.383 17.218 38.383 38.382v85.233c-4.328-.735-8.767-1.139-13.301-1.139-12.961 0-25.193 3.148-36.005 8.69h-88.909l-91.456-90.563c-2.06-2.04-4.841-3.184-7.74-3.184h-142.715c.514-20.719 17.517-37.419 38.358-37.419zm-38.382 59.42h138.215l91.456 90.563c2.06 2.04 4.842 3.184 7.74 3.184h66.888c-8.282 10.649-13.908 23.451-15.879 37.419h-196.689c-5.423-38.439-38.519-68.109-78.43-68.109-4.534 0-8.973.404-13.301 1.139zm13.301 199.508c-31.555 0-57.226-25.671-57.226-57.226s25.671-57.226 57.226-57.226 57.226 25.671 57.226 57.226-25.672 57.226-57.226 57.226zm353.548 0c-31.555 0-57.226-25.671-57.226-57.226s25.671-57.226 57.226-57.226 57.226 25.672 57.226 57.226-25.671 57.226-57.226 57.226z"/><path d="m432.774 397.474c-19.465 0-35.301 15.836-35.301 35.301s15.836 35.301 35.301 35.301 35.301-15.836 35.301-35.301-15.836-35.301-35.301-35.301zm0 48.601c-7.334 0-13.301-5.967-13.301-13.301s5.967-13.301 13.301-13.301 13.301 5.967 13.301 13.301-5.967 13.301-13.301 13.301z"/></g><g fill="#0496FF"><path d="m320.56 290.492h87.914c6.075 0 11-4.925 11-11s-4.925-11-11-11h-87.914c-6.075 0-11 4.925-11 11s4.924 11 11 11z"/><path d="m408.474 312.492h-87.914c-6.075 0-11 4.925-11 11s4.925 11 11 11h87.914c6.075 0 11-4.925 11-11s-4.925-11-11-11z"/><path d="m162.027 63.135c-14.247 0-27.671 5.516-37.802 15.531-4.32 4.271-4.36 11.236-.089 15.556 4.271 4.321 11.237 4.36 15.556.089 5.985-5.917 13.917-9.176 22.335-9.176s16.35 3.259 22.335 9.176c2.144 2.12 4.939 3.177 7.733 3.177 2.836 0 5.671-1.09 7.823-3.267 4.271-4.32 4.231-11.285-.089-15.556-10.13-10.015-23.555-15.53-37.802-15.53z"/><path d="m162.027 20.364c-25.542 0-49.636 9.913-67.843 27.913-4.32 4.271-4.36 11.236-.089 15.556 4.271 4.321 11.236 4.36 15.556.089 14.062-13.902 32.663-21.558 52.376-21.558 19.714 0 38.314 7.656 52.375 21.558 2.144 2.12 4.939 3.178 7.733 3.178 2.836 0 5.671-1.09 7.823-3.266 4.271-4.32 4.232-11.285-.088-15.556-18.205-18.001-42.3-27.914-67.843-27.914z"/><circle cx="104.65" cy="323.5" r="11"/><circle cx="147.43" cy="323.5" r="11"/><circle cx="190.209" cy="323.5" r="11"/></g></g><g/><g/><g/><g/><g/><g/><g/><g/><g/><g/><g/><g/><g/><g/><g/></svg>