<svg id="Capa_1" enable-background="new 0 0 512 512" viewBox="0 0 512 512" xmlns="http://www.w3.org/2000/svg" fill="#052438"><g><path d="m481 34.998h-450c-17.094 0-31 13.906-31 31v300.001c0 17.094 13.906 31 31 31h167.935l-11.89 58.003h-11.045c-6.075 0-11 4.925-11 11s4.925 11 11 11h160c6.075 0 11-4.925 11-11s-4.925-11-11-11h-11.045l-11.89-58.003h167.935c17.094 0 31-13.906 31-31v-300.001c0-17.094-13.906-31-31-31zm9 295.001h-468v-189.772c6.991 4.293 15.212 6.771 24 6.771 13.998 0 26.557-6.285 35-16.182 8.444 9.896 21.002 16.182 35 16.182s26.557-6.285 35-16.182c8.444 9.896 21.002 16.182 35 16.182s26.557-6.285 35-16.182c8.444 9.896 21.002 16.182 35 16.182s26.556-6.285 35-16.182c8.443 9.896 21.002 16.182 35 16.182s26.556-6.285 35-16.182c8.443 9.896 21.002 16.182 35 16.182s26.556-6.285 35-16.182c8.443 9.896 21.002 16.182 35 16.182 8.788 0 17.009-2.478 24-6.771zm-70-229.001c0 13.233-10.767 24-24 24s-24-10.767-24-24v-44h48zm-70 0c0 13.233-10.767 24-24 24s-24-10.767-24-24v-44h48zm-70 0c0 13.233-10.767 24-24 24s-24-10.767-24-24v-44h48zm-70 0c0 13.233-10.767 24-24 24s-24-10.767-24-24v-44h48zm-70 0c0 13.233-10.767 24-24 24s-24-10.767-24-24v-44h48zm350-35v35c0 13.233-10.767 24-24 24s-24-10.767-24-24v-44h39c4.963 0 9 4.038 9 9zm-468 0c0-4.962 4.037-9 9-9h39v44c0 13.233-10.767 24-24 24s-24-10.767-24-24zm280.497 389.004h-92.993l11.89-58.003h69.213zm178.503-80.003h-450c-4.963 0-9-4.038-9-9v-14h468v14c0 4.962-4.037 9-9 9z"/><g fill="#0496FF"><path d="m216.67 183.498c-18.196 0-33 14.804-33 33v66c0 6.075 4.925 11 11 11s11-4.925 11-11v-22.001h22v22.001c0 6.075 4.925 11 11 11s11-4.925 11-11v-66c0-18.196-14.804-33-33-33zm11 54.999h-22v-21.999c0-6.066 4.935-11 11-11s11 4.935 11 11z"/><path d="m390.671 271.498h-27.501v-22h16.087c6.075 0 11-4.925 11-11s-4.925-11-11-11h-16.087v-22h27.501c6.075 0 11-4.925 11-11s-4.925-11-11-11h-38.501c-6.075 0-11 4.925-11 11v88c0 6.075 4.925 11 11 11h38.501c6.075 0 11-4.925 11-11s-4.925-11-11-11z"/><path d="m317.17 271.498h-27.5v-77c0-6.075-4.925-11-11-11s-11 4.925-11 11v88c0 6.075 4.925 11 11 11h38.5c6.075 0 11-4.925 11-11s-4.925-11-11-11z"/><path d="m150.572 230.758-11.698-4.845c-2.598-1.076-4.629-3.12-5.721-5.755s-1.1-5.517-.023-8.116c1.075-2.597 3.119-4.629 5.754-5.72 2.636-1.091 5.518-1.1 8.116-.024l5.849 2.422c5.608 2.326 12.047-.34 14.372-5.954 2.324-5.612-.341-12.047-5.954-14.372l-5.849-2.423c-8.028-3.324-16.89-3.314-24.953.024-8.064 3.34-14.337 9.601-17.66 17.627-3.325 8.027-3.317 16.889.023 24.953s9.6 14.336 17.627 17.662l11.698 4.845c2.597 1.076 4.629 3.12 5.72 5.754 1.092 2.635 1.1 5.517.023 8.116-1.075 2.597-3.119 4.629-5.754 5.72-2.636 1.092-5.519 1.1-8.114.024l-5.849-2.423c-5.612-2.325-12.048.339-14.372 5.953-2.325 5.613.34 12.047 5.952 14.373l5.85 2.423c4.004 1.658 8.214 2.487 12.431 2.487 4.237 0 8.479-.837 12.521-2.511 8.064-3.341 14.337-9.601 17.661-17.628s3.316-16.888-.024-24.953c-3.34-8.062-9.599-14.334-17.626-17.659z"/></g></g><g/><g/><g/><g/><g/><g/><g/><g/><g/><g/><g/><g/><g/><g/><g/></svg>