<svg id="Capa_1" enable-background="new 0 0 512 512" viewBox="0 0 512 512" xmlns="http://www.w3.org/2000/svg" fill="#E6ECF2"><g><g><g><path d="m296 282h-189.999c-6.075 0-11-4.925-11-11s4.925-11 11-11h189.999c6.075 0 11 4.925 11 11s-4.925 11-11 11z" fill="#0496FF"/></g><g><path d="m296 327h-189.999c-6.075 0-11-4.925-11-11s4.925-11 11-11h189.999c6.075 0 11 4.925 11 11s-4.925 11-11 11z" fill="#0496FF"/></g><g><path d="m296 371.999h-189.999c-6.075 0-11-4.925-11-11s4.925-11 11-11h189.999c6.075 0 11 4.925 11 11s-4.925 11-11 11z" fill="#0496FF"/></g><g><path d="m296 416.999h-189.999c-6.075 0-11-4.925-11-11s4.925-11 11-11h189.999c6.075 0 11 4.925 11 11s-4.925 11-11 11z" fill="#0496FF"/></g></g><path d="m501 180h-29v-23h29c3.513 0 6.813-1.678 8.885-4.515s2.662-6.492 1.592-9.838l-40-125c-1.458-4.555-5.694-7.647-10.477-7.647h-410c-4.783 0-9.019 3.092-10.477 7.647l-40 125c-1.07 3.346-.479 7.001 1.592 9.838s5.372 4.515 8.885 4.515h29v283h-29c-6.075 0-11 4.925-11 11s4.925 11 11 11h279v29c0 6.075 4.925 11 11 11h200c6.075 0 11-4.925 11-11v-300c0-6.075-4.925-11-11-11zm-11 150h-178v-128h53v54c0 3.963 2.132 7.62 5.58 9.572 3.447 1.953 7.681 1.899 11.079-.14l19.341-11.604 19.341 11.604c1.74 1.044 3.699 1.567 5.659 1.567 1.868 0 3.737-.476 5.42-1.428 3.448-1.952 5.58-5.609 5.58-9.572v-54h53zm-103 22h28v34.572l-8.341-5.005c-3.482-2.09-7.836-2.09-11.318 0l-8.341 5.005zm0-150h28v34.572l-8.341-5.005c-3.482-2.09-7.836-2.09-11.318 0l-8.341 5.005zm-327.971-170h393.941l32.96 103h-459.861zm2.971 125h388v23h-149c-6.075 0-11 4.925-11 11v24h-188.999c-6.075 0-11 4.925-11 11v214h-28.001zm50.001 283v-203h177.999v203zm377.999 40h-178v-128h53v54c0 3.963 2.132 7.62 5.58 9.572 3.447 1.953 7.681 1.899 11.079-.14l19.341-11.604 19.341 11.604c1.74 1.044 3.699 1.567 5.659 1.567 1.868 0 3.737-.476 5.42-1.428 3.448-1.952 5.58-5.609 5.58-9.572v-54h53z"/></g><g/><g/><g/><g/><g/><g/><g/><g/><g/><g/><g/><g/><g/><g/><g/></svg>