<svg id="Capa_1" enable-background="new 0 0 512 512" viewBox="0 0 512 512" xmlns="http://www.w3.org/2000/svg" fill="#052438"><g><g><path d="m22 256c0-129.028 104.972-234 234-234 52.656 0 103.119 17.509 144.172 49.677l-1.76.114c-6.062.393-10.658 5.626-10.265 11.688.377 5.821 5.215 10.29 10.966 10.289.239 0 .48-.008.723-.023l28.174-1.827c2.911-.189 5.628-1.526 7.554-3.719 1.925-2.192 2.9-5.059 2.711-7.97l-1.827-28.173c-.393-6.062-5.623-10.66-11.688-10.265-6.062.393-10.658 5.626-10.265 11.689l.101 1.55c-45.069-35.627-100.617-55.03-158.596-55.03-68.38 0-132.667 26.628-181.019 74.98s-74.981 112.64-74.981 181.02c0 44.875 11.859 89.137 34.297 128 2.037 3.529 5.734 5.502 9.537 5.502 1.865 0 3.757-.476 5.489-1.476 5.261-3.038 7.063-9.765 4.026-15.026-20.508-35.524-31.349-75.982-31.349-117z"/><path d="m477.703 128c-3.037-5.261-9.766-7.064-15.026-4.026s-7.063 9.765-4.026 15.026c20.508 35.523 31.349 75.981 31.349 117 0 129.028-104.972 234-234 234-52.657 0-103.12-17.509-144.173-49.677l1.76-.114c6.062-.393 10.658-5.626 10.265-11.689-.393-6.062-5.62-10.655-11.688-10.265l-28.173 1.827c-6.062.393-10.658 5.626-10.265 11.688l1.826 28.174c.377 5.82 5.215 10.288 10.966 10.288.239 0 .48-.008.723-.023 6.062-.393 10.658-5.626 10.265-11.688l-.101-1.55c45.067 35.626 100.616 55.029 158.595 55.029 68.38 0 132.667-26.629 181.019-74.98 48.352-48.353 74.981-112.64 74.981-181.02 0-44.875-11.86-89.137-34.297-128z"/><path d="m256 447c105.317 0 191-85.682 191-191s-85.682-191-191-191-191 85.682-191 191 85.683 191 191 191zm0-360c93.187 0 169 75.813 169 169s-75.813 169-169 169-169-75.813-169-169 75.814-169 169-169z"/><path d="m246.892 296.471 9.798 4.058c3.559 1.474 5.32 5.727 3.846 9.286-.719 1.735-2.087 3.094-3.854 3.825-1.766.732-3.697.739-5.432.021l-4.899-2.029c-5.607-2.325-12.048.339-14.372 5.953-2.324 5.613.341 12.047 5.954 14.372l4.899 2.03c.716.296 1.438.563 2.168.8v3.552c0 6.075 4.925 11 11 11s11-4.925 11-11v-5.239c6.28-3.131 11.16-8.346 13.861-14.867 6.141-14.828-.926-31.887-15.754-38.029l-9.798-4.058c-3.559-1.474-5.319-5.726-3.845-9.286.719-1.735 2.087-3.094 3.854-3.825 1.768-.733 3.697-.739 5.432-.021l4.899 2.029c5.605 2.323 12.046-.34 14.372-5.953 2.324-5.613-.341-12.047-5.954-14.372l-4.899-2.03c-.716-.296-1.438-.563-2.168-.8v-3.551c0-6.075-4.925-11-11-11s-11 4.925-11 11v5.237c-6.28 3.131-11.16 8.346-13.861 14.867-6.14 14.83.926 31.89 15.753 38.03z"/></g><path d="m352.02 246.119c-8.583-22.731-21.753-42.709-37.069-56.598 7.765-9.116 11.992-19.238 11.877-28.941-.104-8.808-3.782-16.432-10.356-21.467-9.783-7.493-19.322-6.687-25.634-6.155-1.858.156-3.938.333-5.009.151-.743-.638-2.124-2.345-3.066-3.51-4.521-5.588-12.088-14.94-26.763-14.94-14.676 0-22.243 9.353-26.764 14.941-.942 1.165-2.323 2.871-3.066 3.509-1.068.183-3.15.005-5.008-.151-6.313-.533-15.852-1.339-25.634 6.154-6.575 5.036-10.254 12.66-10.357 21.468-.114 9.703 4.112 19.825 11.877 28.941-15.316 13.889-28.486 33.867-37.069 56.598-11.08 29.345-13.027 58.937-5.482 83.324 7.151 23.117 29.847 61.897 101.503 61.897 71.655 0 94.352-38.781 101.503-61.898 7.544-24.387 5.597-53.979-5.483-83.323zm-144.851-85.28c.035-2.958 1.315-3.938 1.736-4.261 2.909-2.228 5.294-2.129 10.406-1.698 3.932.332 8.825.744 13.957-.915 6.169-1.997 9.996-6.727 13.071-10.527 4.062-5.021 5.826-6.778 9.66-6.778s5.597 1.757 9.659 6.778c3.075 3.801 6.902 8.531 13.072 10.528 5.131 1.659 10.022 1.247 13.957.915 5.115-.431 7.498-.528 10.405 1.698.421.322 1.701 1.303 1.736 4.261.053 4.553-2.996 11.893-11.542 19.376l-.294.068c-15.005 3.469-21.853 5.052-36.994 5.052-15.143 0-21.991-1.583-36.997-5.052l-.292-.067c-8.544-7.485-11.593-14.825-11.54-19.378zm129.317 162.102c-9.391 30.355-37.222 46.4-80.485 46.4s-71.096-16.045-80.485-46.399c-12.858-41.565 10.805-97.271 40.597-120.748 14.396 3.321 23.026 5.141 39.889 5.141 16.861 0 25.492-1.821 39.888-5.141 29.79 23.475 53.454 79.182 40.596 120.747z" fill="#0496FF"/></g><g/><g/><g/><g/><g/><g/><g/><g/><g/><g/><g/><g/><g/><g/><g/></svg>