<svg id="Capa_1" enable-background="new 0 0 512 512" viewBox="0 0 512 512" xmlns="http://www.w3.org/2000/svg" fill="#052438"><g><g><g><path d="m496 357h-270c-6.075 0-11-4.925-11-11s4.925-11 11-11h270c6.075 0 11 4.925 11 11s-4.925 11-11 11z" fill="#0496FF"/></g><g><path d="m496 402h-270c-6.075 0-11-4.925-11-11s4.925-11 11-11h270c6.075 0 11 4.925 11 11s-4.925 11-11 11z" fill="#0496FF"/></g><g><path d="m221 222.001h-160c-6.075 0-11-4.925-11-11v-45c0-6.075 4.925-11 11-11h160c6.075 0 11 4.925 11 11v45c0 6.075-4.925 11-11 11zm-149-22h138v-23h-138z" fill="#0496FF"/></g></g><g><path d="m271 177.001h139.995c6.075 0 11-4.925 11-11s-4.925-11-11-11h-139.995c-6.075 0-11 4.925-11 11s4.925 11 11 11z"/><path d="m271 222h139.995c6.075 0 11-4.925 11-11s-4.925-11-11-11h-139.995c-6.075 0-11 4.925-11 11s4.925 11 11 11z"/><path d="m145.999 245h-84.999c-6.075 0-11 4.925-11 11s4.925 11 11 11h84.999c6.075 0 11-4.925 11-11s-4.925-11-11-11z"/><path d="m145.999 290h-84.999c-6.075 0-11 4.925-11 11s4.925 11 11 11h84.999c6.075 0 11-4.925 11-11s-4.925-11-11-11z"/><path d="m145.999 335h-84.999c-6.075 0-11 4.925-11 11s4.925 11 11 11h84.999c6.075 0 11-4.925 11-11s-4.925-11-11-11z"/><path d="m56.008 87c6.075 0 11-4.925 11-11s-4.925-11-11-11h-.008c-6.075 0-10.996 4.925-10.996 11s4.929 11 11.004 11z"/><path d="m101.007 87c6.075 0 11-4.925 11-11s-4.925-11-11-11h-.007c-6.075 0-10.996 4.925-10.996 11s4.928 11 11.003 11z"/><path d="m146.007 87c6.075 0 11-4.925 11-11s-4.925-11-11-11h-.008c-6.075 0-10.996 4.925-10.996 11s4.929 11 11.004 11z"/><path d="m481 290h-9v-259c0-6.075-4.925-11-11-11h-450c-6.075 0-11 4.925-11 11v360c0 6.075 4.925 11 11 11h199v59c0 17.094 13.906 31 31 31h240c17.094 0 31-13.906 31-31v-140c0-17.094-13.906-31-31-31zm-31-248v23h-244.001c-3.395 0-6.599 1.567-8.683 4.247l-31.696 40.753h-143.62v-68zm-428 338v-248h149c3.395 0 6.599-1.567 8.683-4.247l31.696-40.753h238.621v203h-209c-17.094 0-31 13.906-31 31v59zm468 81c0 4.963-4.037 9-9 9h-240c-4.963 0-9-4.037-9-9v-140c0-4.963 4.037-9 9-9h240c4.963 0 9 4.037 9 9z"/><path d="m313.5 425h-47.5c-6.075 0-11 4.925-11 11s4.925 11 11 11h47.5c6.075 0 11-4.925 11-11s-4.925-11-11-11z"/></g></g><g/><g/><g/><g/><g/><g/><g/><g/><g/><g/><g/><g/><g/><g/><g/></svg>