<svg id="Capa_1" enable-background="new 0 0 512 512" viewBox="0 0 512 512" xmlns="http://www.w3.org/2000/svg" fill="#E6ECF2"><g><g><g><path d="m226.988 141.878c-4.214 0-8.235-2.436-10.058-6.535l-16.723-37.625c-2.468-5.552.032-12.052 5.584-14.52 5.549-2.468 12.051.031 14.52 5.584l16.723 37.625c2.468 5.552-.032 12.052-5.584 14.52-1.452.645-2.969.951-4.462.951z" fill="#0496FF"/></g><g><path d="m285.011 141.878c-1.493 0-3.01-.306-4.462-.951-5.552-2.467-8.052-8.968-5.584-14.52l16.723-37.625c2.468-5.552 8.97-8.05 14.52-5.584 5.552 2.467 8.052 8.968 5.584 14.52l-16.723 37.625c-1.822 4.099-5.844 6.535-10.058 6.535z" fill="#0496FF"/></g><g><path d="m256.001 450.908c-61.206 0-111-49.794-111-111s49.794-111 111-111c61.205 0 110.999 49.794 110.999 111s-49.794 111-110.999 111zm0-200c-49.075 0-89 39.925-89 89 0 49.074 39.925 89 89 89 49.074 0 88.999-39.925 88.999-89s-39.925-89-88.999-89z" fill="#0496FF"/></g></g><g><path d="m454.539 267.004c-17.275-35.292-42.939-66.269-71.98-87.362 9.098-8.723 13.746-21.736 11.208-35.012-1.93-10.087-7.672-18.82-16.17-24.589-1.719-1.167-3.51-2.185-5.356-3.05 17.029-22.998 18.287-41.866 17.16-52.058-1.466-13.254-8.121-24.544-18.261-30.974-13.641-8.649-28.255-5.776-40-3.468-6.957 1.368-13.526 2.658-18.294 1.383-3.473-.931-7.038-4.79-11.166-9.258-8.817-9.544-20.893-22.616-45.68-22.616s-36.863 13.072-45.681 22.618c-4.128 4.468-7.692 8.327-11.165 9.257-4.766 1.278-11.337-.015-18.295-1.383-11.742-2.308-26.358-5.181-39.999 3.468-10.14 6.43-16.796 17.719-18.262 30.974-1.128 10.192.13 29.06 17.16 52.058-1.846.865-3.637 1.883-5.356 3.05-8.498 5.769-14.24 14.502-16.17 24.59-2.538 13.277 2.112 26.293 11.204 35.014-29.039 21.093-54.701 52.069-71.976 87.359-21.701 44.336-27.894 90.249-17.436 129.28 9.288 34.663 31.8 63.306 65.101 82.832 37.215 21.819 87.976 32.883 150.875 32.883s113.66-11.063 150.874-32.884c33.301-19.526 55.812-48.168 65.101-82.832 10.457-39.031 4.265-84.944-17.436-129.28zm-310.074-199.652c.729-6.58 3.708-11.979 8.177-14.812 5.811-3.683 12.934-2.631 23.975-.461 8.689 1.709 18.538 3.644 28.231 1.046 9.62-2.578 16.001-9.485 21.631-15.579 7.705-8.342 14.361-15.546 29.521-15.546s21.815 7.204 29.521 15.546c5.63 6.094 12.011 13.001 21.632 15.579 9.693 2.598 19.543.662 28.23-1.046 11.041-2.17 18.164-3.223 23.976.461 4.468 2.833 7.448 8.232 8.176 14.812 1.527 13.805-6.518 30.945-22.149 47.382-29.626 5.548-58.905 8.248-89.386 8.248-30.471 0-59.74-2.698-89.386-8.249-15.631-16.437-23.676-33.576-22.149-47.381zm-4.624 81.411c.826-4.315 3.282-8.052 6.919-10.521 2.762-1.875 5.952-2.848 9.205-2.848 1.013 0 2.034.095 3.048.286.041.008.082.016.122.023 32.149 6.243 63.835 9.278 96.865 9.278 33.034 0 64.722-3.035 96.872-9.279.033-.006.067-.012.101-.019 4.297-.804 8.65.103 12.267 2.559 3.637 2.469 6.093 6.205 6.919 10.521 1.703 8.91-4.159 17.545-13.102 19.255-33.536 6.518-69.173 9.963-103.058 9.963-33.866 0-69.481-3.441-103.033-9.959-.027-.005-.055-.011-.082-.016-8.895-1.715-14.745-10.341-13.043-19.243zm310.882 241.827c-7.87 29.373-26.367 52.772-54.978 69.548-33.793 19.815-80.811 29.862-139.745 29.862s-105.952-10.047-139.746-29.862c-28.61-16.775-47.107-40.175-54.978-69.548-19.772-73.787 31.912-163.49 91.613-200.188 33.679 6.272 69.233 9.58 103.111 9.58 33.888 0 69.452-3.31 103.111-9.58 59.7 36.698 111.384 126.401 91.612 200.188z"/><path d="m286.342 285.292c-5.312-2.95-12.008-1.037-14.957 4.273l-50 90c-2.951 5.311-1.037 12.008 4.273 14.958 1.692.94 3.524 1.386 5.332 1.386 3.865 0 7.615-2.042 9.625-5.66l50-90c2.951-5.31 1.037-12.006-4.273-14.957z"/><path d="m231.007 305.909c6.075 0 11-4.925 11-11s-4.925-11-11-11h-.007c-6.075 0-10.996 4.925-10.996 11s4.927 11 11.003 11z"/><path d="m281 373.908h-.007c-6.075 0-10.997 4.925-10.997 11s4.929 11 11.004 11 11-4.925 11-11-4.925-11-11-11z"/></g></g><g/><g/><g/><g/><g/><g/><g/><g/><g/><g/><g/><g/><g/><g/><g/></svg>