<svg id="Capa_1" enable-background="new 0 0 512.003 512.003" viewBox="0 0 512.003 512.003" xmlns="http://www.w3.org/2000/svg" fill="#052438"><g><g><path d="m309.834 441.039c-2.815 0-5.63-1.074-7.778-3.222l-190.919-190.918c-2.063-2.063-3.222-4.861-3.222-7.778s1.159-5.715 3.222-7.778l120.207-120.206c4.296-4.295 11.261-4.295 15.556 0l26.896 26.896c4.296 4.296 4.296 11.261 0 15.557-4.297 4.294-11.262 4.294-15.557 0l-19.118-19.117-104.65 104.649 175.363 175.361 104.65-104.649-18.68-18.68c-4.295-4.296-4.296-11.261 0-15.557 4.295-4.296 11.26-4.295 15.557 0l26.458 26.458c2.062 2.062 3.222 4.861 3.222 7.778s-1.159 5.715-3.222 7.778l-120.206 120.206c-2.148 2.148-4.964 3.222-7.779 3.222z" fill="#0496FF"/></g><g><path d="m508.781 309.377-60.689-60.688c.008-.382-.004-.766-.037-1.153l-1.985-23.462 13.451-19.327c2.628-3.776 2.628-8.79 0-12.567l-13.45-19.325 1.985-23.463c.388-4.585-2.119-8.928-6.284-10.884l-21.312-10.012-10.012-21.312c-1.957-4.164-6.3-6.66-10.884-6.283l-23.461 1.985-19.327-13.45c-3.776-2.629-8.791-2.629-12.567 0l-19.327 13.45-23.462-1.985c-.386-.033-.77-.044-1.152-.037l-60.689-60.69c-2.063-2.062-4.861-3.222-7.778-3.222l-144.452-.001c-2.917 0-5.715 1.159-7.778 3.222l-9.756 9.756c-4.653-3.657-9.284-7.101-13.777-10.442-15.234-11.328-28.39-21.11-35.408-33.806-2.94-5.318-9.633-7.246-14.949-4.305-5.317 2.939-7.244 9.632-4.305 14.949 9.322 16.864 24.969 28.498 41.535 40.816 3.737 2.778 7.499 5.576 11.23 8.462l-13.967 13.966c-2.063 2.063-3.222 4.861-3.222 7.778l.001 144.451c0 2.917 1.159 5.715 3.222 7.778l269.202 269.204c2.063 2.062 4.861 3.222 7.778 3.222s5.715-1.159 7.778-3.222l183.847-183.848c2.063-2.063 3.222-4.861 3.222-7.778s-1.158-5.715-3.221-7.777zm-181.801-184.235c2.557.216 5.106-.467 7.211-1.933l16.3-11.344 16.3 11.344c2.105 1.466 4.657 2.154 7.211 1.933l19.788-1.675 8.444 17.975c1.09 2.32 2.958 4.188 5.279 5.278l17.974 8.444-1.674 19.788c-.216 2.556.467 5.106 1.933 7.212l11.344 16.299-11.344 16.301c-1.465 2.104-2.148 4.655-1.932 7.211l1.674 19.788-17.975 8.444c-2.321 1.091-4.188 2.958-5.278 5.278l-8.444 17.974-19.789-1.674c-2.559-.221-5.106.467-7.211 1.933l-16.299 11.344-16.3-11.344c-1.85-1.288-4.044-1.972-6.284-1.972-.308 0-.618.013-.927.039l-19.789 1.674-8.444-17.975c-1.09-2.32-2.958-4.188-5.279-5.278l-17.974-8.444 1.674-19.787c.216-2.556-.467-5.106-1.932-7.211l-11.344-16.301 11.344-16.299c1.465-2.105 2.149-4.656 1.933-7.212l-1.674-19.788 17.974-8.444c2.321-1.091 4.188-2.958 5.279-5.279l8.444-17.974zm-9.824 360.304-258.202-258.204-.001-135.338 12.042-12.042c7.384 7.015 14.238 14.9 20.028 24.306-3.146 5.419-4.823 11.596-4.823 18.03 0 9.615 3.745 18.656 10.544 25.456 6.799 6.799 15.84 10.544 25.456 10.544s18.657-3.745 25.456-10.544c6.799-6.8 10.544-15.841 10.544-25.456 0-9.616-3.745-18.657-10.544-25.455-6.799-6.801-15.839-10.546-25.456-10.546-5.109 0-10.055 1.057-14.589 3.067-6.334-9.616-13.531-17.767-21.057-24.961l5.352-5.352 135.338.001 58.478 58.479-5.198 11.065-21.312 10.012c-4.165 1.956-6.671 6.299-6.284 10.884l1.985 23.463-13.45 19.325c-2.629 3.777-2.629 8.791 0 12.567l13.451 19.327-1.985 23.462c-.388 4.585 2.119 8.928 6.284 10.884l21.312 10.012 10.012 21.312c1.957 4.164 6.298 6.676 10.883 6.283l23.463-1.985 19.326 13.45c1.889 1.314 4.086 1.972 6.284 1.972s4.395-.657 6.284-1.972l19.326-13.45 23.463 1.985c4.578.385 8.926-2.119 10.883-6.283l10.012-21.312 11.065-5.198 53.922 53.921zm-204.857-373.147c.001 0 .001 0 0 0 2.645-2.645 6.16-4.102 9.899-4.102 3.74 0 7.255 1.457 9.9 4.102 2.644 2.645 4.1 6.159 4.1 9.899 0 3.739-1.456 7.255-4.101 9.899-5.459 5.458-14.34 5.459-19.798 0-2.645-2.645-4.101-6.16-4.101-9.899.001-3.74 1.457-7.255 4.101-9.899z"/><path d="m350.491 249.464c28.122 0 51-22.879 51-51 0-28.122-22.879-51.001-51-51.001s-51 22.879-51 51.001c0 28.121 22.879 51 51 51zm0-80.001c15.991 0 29 13.01 29 29.001 0 15.99-13.01 29-29 29s-29-13.01-29-29c0-15.991 13.009-29.001 29-29.001z"/></g></g><g/><g/><g/><g/><g/><g/><g/><g/><g/><g/><g/><g/><g/><g/><g/></svg>