<svg id="Capa_1" enable-background="new 0 0 512 512" viewBox="0 0 512 512" xmlns="http://www.w3.org/2000/svg" fill="#E6ECF2"><g><g><path d="m256 292c-61.205 0-110.999-49.794-110.999-111s49.794-111 110.999-111c61.206 0 111 49.794 111 111 0 11.598-1.807 23.074-5.371 34.111-1.867 5.782-8.074 8.951-13.848 7.087-5.781-1.867-8.955-8.067-7.088-13.848 2.858-8.849 4.307-18.051 4.307-27.35 0-49.075-39.925-89-89-89-49.074 0-88.999 39.925-88.999 89 0 49.074 39.925 89 88.999 89 16.6 0 32.829-4.626 46.933-13.379 5.165-3.205 11.944-1.615 15.147 3.546 3.203 5.162 1.615 11.943-3.546 15.146-17.591 10.916-37.831 16.687-58.534 16.687z" fill="#0496FF"/></g><g><path d="m512 66c0-22.607-18.393-41-41-41h-430c-22.607 0-41 18.393-41 41v230c0 22.607 18.393 41 41 41h259.667v27.653c-13.37-8.302-31.204-6.653-42.8 4.943-13.516 13.516-13.516 35.509 0 49.026l42.8 42.799v14.579c0 6.075 4.925 11 11 11s11-4.925 11-11v-19.136c0-2.917-1.159-5.715-3.222-7.778l-46.021-46.02c-4.938-4.939-4.938-12.975-.001-17.913 4.94-4.939 12.976-4.939 17.914 0l12.552 12.551c3.146 3.146 7.878 4.086 11.988 2.384 4.11-1.703 6.79-5.713 6.79-10.163v-156.377c0-6.984 5.682-12.667 12.666-12.667s12.667 5.683 12.667 12.667v95.048c0 6.075 4.925 11 11 11s11-4.925 11-11v-13.255c0-6.984 5.682-12.667 12.666-12.667s12.667 5.682 12.667 12.666v13.256c0 6.075 4.925 11 11 11s11-4.925 11-11v-6.628c0-6.984 5.682-12.666 12.666-12.666 6.985 0 12.668 5.682 12.668 12.667v6.627c0 6.075 4.925 11 11 11s11-4.925 11-11c0-6.984 5.682-12.666 12.666-12.666s12.667 5.683 12.667 12.667v147.403c0 6.075 4.925 11 11 11s11-4.925 11-11v-147.403c0-5.605-1.338-10.903-3.71-15.593 2.438-5.319 3.71-11.108 3.71-17.004zm-490 62.761 23.001 7.667v89.144l-23.001 7.666zm435.146 171.669c-6.356-7.995-16.163-13.127-27.146-13.127-7.525 0-14.498 2.411-20.188 6.5-6.356-7.995-16.162-13.127-27.146-13.127-4.467 0-8.741.85-12.666 2.396v-49.522c0-19.115-15.552-34.667-34.667-34.667s-34.666 15.551-34.666 34.667v81.45h-259.667c-10.477 0-19-8.523-19-19v-39.572l37.479-12.493c4.491-1.497 7.521-5.701 7.521-10.436v-105c0-4.735-3.03-8.938-7.521-10.436l-37.479-12.492v-39.571c0-10.477 8.523-19 19-19h430c10.477 0 19 8.523 19 19v230c0 .109-.001.217-.003.326-3.925-1.546-8.197-2.395-12.664-2.395-7.525 0-14.499 2.41-20.187 6.499z"/><path d="m456 160c-6.075 0-11 4.925-11 11v20c0 6.075 4.925 11 11 11s11-4.925 11-11v-20c0-6.075-4.925-11-11-11z"/><path d="m265.107 172.866-9.798-4.058c-1.734-.719-3.093-2.087-3.824-3.854-.732-1.767-.739-3.695-.02-5.432.719-1.735 2.087-3.094 3.854-3.825 1.766-.732 3.695-.739 5.431-.021l4.899 2.029c5.606 2.322 12.046-.34 14.372-5.953 2.324-5.613-.341-12.047-5.954-14.372l-4.899-2.03c-.716-.296-1.438-.563-2.168-.8v-3.55c0-6.075-4.925-11-11-11s-11 4.925-11 11v5.237c-6.28 3.132-11.159 8.347-13.859 14.867-2.969 7.165-2.962 15.073.019 22.269 2.98 7.196 8.567 12.793 15.732 15.761l9.798 4.058c3.559 1.474 5.32 5.727 3.846 9.286-.719 1.735-2.087 3.094-3.854 3.825-1.766.732-3.695.739-5.431.021l-4.898-2.029c-5.612-2.325-12.047.339-14.372 5.953-2.325 5.612.34 12.047 5.952 14.373l4.899 2.03c.716.296 1.438.563 2.168.8v3.549c0 6.075 4.925 11 11 11s11-4.925 11-11v-5.238c6.28-3.131 11.16-8.346 13.861-14.867 6.141-14.828-.925-31.887-15.754-38.029z"/></g></g><g/><g/><g/><g/><g/><g/><g/><g/><g/><g/><g/><g/><g/><g/><g/></svg>