<svg id="Capa_1" enable-background="new 0 0 512 512" viewBox="0 0 512 512" xmlns="http://www.w3.org/2000/svg" fill="#E6ECF2"><g><g fill="#0496FF"><path d="m47.612 178.158c-4.297-4.297-11.261-4.296-15.557 0-4.295 4.296-4.295 11.261 0 15.557l80.664 80.664c2.148 2.148 4.963 3.222 7.778 3.222s5.63-1.074 7.778-3.222c4.295-4.296 4.295-11.261 0-15.557z"/><path d="m253.178 383.726c-4.297-4.296-11.261-4.296-15.557 0s-4.295 11.261 0 15.557l80.663 80.664c2.148 2.147 4.963 3.222 7.778 3.222 2.814 0 5.631-1.074 7.778-3.222 4.296-4.296 4.296-11.261 0-15.557z"/><path d="m343.716 184h-26.023c7.082-10.218 17.395-21.636 23.952-28.896l2.212-2.452c10.673-11.861 13.325-26.2 7.094-38.358-6.229-12.153-20.09-19.599-33.721-18.105-13.624 1.494-24.15 11.557-28.157 26.916-1.534 5.878 1.988 11.887 7.867 13.42 5.874 1.536 11.887-1.988 13.42-7.867 1.175-4.5 3.735-9.992 9.269-10.6 4.529-.502 9.687 2.258 11.744 6.271 2.512 4.901-.718 10.104-3.868 13.606l-2.187 2.423c-16.742 18.538-32.111 36.448-36.227 51.792-.886 3.304-.185 6.831 1.897 9.545s5.308 4.305 8.728 4.305h44c6.075 0 11-4.925 11-11s-4.925-11-11-11z"/><path d="m422.284 96.001c-6.075 0-11 4.925-11 11v38.496h-20.713l4.139-37.282c.671-6.038-3.681-11.477-9.719-12.146-6.03-.666-11.477 3.681-12.146 9.719l-5.495 49.496c-.346 3.109.649 6.219 2.736 8.551 2.087 2.331 5.067 3.663 8.196 3.663h33.002v27.502c0 6.075 4.925 11 11 11s11-4.925 11-11v-87.999c0-6.075-4.925-11-11-11z"/></g><g><path d="m285.277 349.739c-2.063-2.062-4.861-3.222-7.778-3.222s-5.716 1.159-7.778 3.222l-33.042 33.043c-4.404 4.404-10.294 6.829-16.587 6.829s-12.184-2.425-16.587-6.829l-74.285-74.285c-9.146-9.146-9.146-24.028 0-33.175l33.042-33.042c2.063-2.062 3.222-4.861 3.222-7.778s-1.159-5.715-3.222-7.778l-83.502-83.502c-2.064-2.063-4.862-3.222-7.78-3.222s-5.715 1.159-7.778 3.222l-19.384 19.385c-28.256 28.255-43.818 65.968-43.818 106.191 0 40.222 15.562 77.935 43.817 106.191l93.194 93.193c28.257 28.256 65.97 43.818 106.192 43.818 40.223 0 77.936-15.562 106.191-43.817l19.385-19.384c2.062-2.062 3.222-4.86 3.222-7.778 0-2.917-1.159-5.715-3.222-7.778zm48.561 102.887c-24.101 24.102-56.288 37.374-90.635 37.374-34.346 0-66.534-13.272-90.635-37.374l-93.194-93.193c-24.101-24.101-37.374-56.289-37.374-90.635 0-34.347 13.273-66.534 37.374-90.635l11.606-11.606 67.946 67.945-25.264 25.264c-17.724 17.724-17.724 46.563 0 64.288l74.285 74.285c8.559 8.559 19.975 13.272 32.144 13.272s23.584-4.714 32.144-13.272l25.264-25.265 67.945 67.946z"/><path d="m361 0c-83.262 0-151 67.738-151 151 0 27.749 7.539 54.698 21.849 78.26l-13.696 51.116c-1.017 3.796.068 7.846 2.847 10.625s6.829 3.863 10.625 2.847l51.115-13.696c23.565 14.309 50.514 21.848 78.26 21.848 83.262 0 151-67.738 151-151s-67.739-151-151-151zm0 280c-25.133 0-49.493-7.236-70.448-20.927-1.807-1.18-3.9-1.791-6.017-1.791-.952 0-1.91.124-2.847.375l-37.354 10.009 10.009-37.354c.81-3.021.294-6.245-1.417-8.863-13.69-20.953-20.926-45.313-20.926-70.449 0-71.131 57.869-129 129-129s129 57.869 129 129-57.869 129-129 129z"/></g></g><g/><g/><g/><g/><g/><g/><g/><g/><g/><g/><g/><g/><g/><g/><g/></svg>