<svg id="Capa_1" enable-background="new 0 0 512 512" viewBox="0 0 512 512" xmlns="http://www.w3.org/2000/svg" fill="#E6ECF2"><g><g><g><path d="m256 201.407c-2.815 0-5.63-1.074-7.778-3.222l-20-20c-4.295-4.296-4.295-11.261 0-15.557 4.296-4.295 11.261-4.295 15.557 0l1.222 1.222v-147.85c0-6.075 4.925-11 11-11s11 4.925 11 11v147.851l1.222-1.222c4.296-4.295 11.261-4.295 15.557 0 4.295 4.296 4.295 11.261 0 15.557l-20 20c-2.15 2.147-4.965 3.221-7.78 3.221z" fill="#0496FF"/></g><g><path d="m181 126.473c-2.917 0-5.715-1.159-7.778-3.222l-20-20.001c-4.296-4.296-4.295-11.261 0-15.557s11.26-4.295 15.556 0l1.222 1.222v-22.886l-21.779-21.777c-2.063-2.062-3.222-4.86-3.222-7.778v-20.473c0-6.075 4.925-11 11-11s11 4.925 11 11v15.916l21.779 21.777c2.063 2.062 3.222 4.86 3.222 7.778v27.442l1.222-1.222c4.296-4.295 11.26-4.295 15.556 0 4.296 4.296 4.296 11.261 0 15.557l-20 20.001c-2.063 2.063-4.861 3.223-7.778 3.223z" fill="#0496FF"/></g><g><path d="m331 126.473c-2.917 0-5.715-1.159-7.778-3.222l-20-20.001c-4.296-4.296-4.295-11.261 0-15.557s11.26-4.295 15.556 0l1.222 1.222v-27.442c0-2.918 1.159-5.716 3.222-7.778l21.779-21.777v-15.917c0-6.075 4.925-11 11-11s11 4.925 11 11v20.473c0 2.918-1.159 5.716-3.222 7.778l-21.779 21.777v22.886l1.222-1.222c4.296-4.295 11.26-4.295 15.556 0 4.296 4.296 4.296 11.261 0 15.557l-20 20.001c-2.062 2.062-4.86 3.222-7.778 3.222z" fill="#0496FF"/></g></g><g><path d="m256 300c-58.449 0-106 47.552-106 106s47.551 106 106 106 106-47.552 106-106-47.551-106-106-106zm0 190c-46.318 0-84-37.683-84-84s37.682-84 84-84 84 37.683 84 84-37.682 84-84 84z"/><path d="m450.999 0h-389.998c-6.075 0-11 4.925-11 11v60.001c0 2.917 1.159 5.715 3.222 7.778l131.777 131.778v55.443c0 6.075 4.925 11 11 11h120c6.075 0 11-4.925 11-11v-55.443l131.777-131.778c2.063-2.063 3.222-4.861 3.222-7.778v-60.001c0-6.075-4.925-11-11-11zm-11 66.444-131.777 131.778c-2.063 2.063-3.222 4.861-3.222 7.778v49h-98v-49c0-2.917-1.159-5.715-3.222-7.778l-131.777-131.778v-44.444h367.998z"/><path d="m256 367c3.865 0 7.787 1.492 11.343 4.314 4.759 3.776 11.678 2.981 15.455-1.776 3.777-4.758 2.982-11.677-1.776-15.454-7.486-5.942-16.139-9.084-25.022-9.084-13.132 0-25.747 6.989-34.609 19.175-2.793 3.842-5.161 8.092-7.069 12.644h-3.776c-6.075 0-11 4.925-11 11 0 5.539 4.094 10.122 9.421 10.888-.219 2.404-.331 4.839-.331 7.294s.111 4.891.331 7.295c-5.328.766-9.421 5.349-9.421 10.888 0 6.075 4.925 11 11 11h3.776c1.908 4.552 4.275 8.802 7.069 12.643 8.862 12.184 21.477 19.173 34.609 19.173 8.884 0 17.536-3.141 25.021-9.083 4.758-3.777 5.553-10.696 1.776-15.454-3.776-4.759-10.695-5.554-15.455-1.776-3.554 2.822-7.476 4.313-11.342 4.313-6.29 0-12.133-3.738-16.622-9.817h3.251c6.075 0 11-4.925 11-11s-4.925-11-11-11h-11.542c-.296-2.335-.452-4.737-.452-7.183s.155-4.847.452-7.182h11.542c6.075 0 11-4.925 11-11s-4.925-11-11-11h-3.252c4.49-6.081 10.333-9.818 16.623-9.818z"/></g></g><g/><g/><g/><g/><g/><g/><g/><g/><g/><g/><g/><g/><g/><g/><g/></svg>