<svg id="Capa_1" enable-background="new 0 0 512 512" viewBox="0 0 512 512" xmlns="http://www.w3.org/2000/svg" fill="#052438"><g><g><path d="m286.342 126.384c-5.309-2.948-12.006-1.037-14.958 4.273l-50 90c-2.95 5.311-1.037 12.008 4.273 14.958 1.692.94 3.524 1.386 5.333 1.386 3.865 0 7.615-2.042 9.625-5.66l50-90c2.951-5.31 1.038-12.007-4.273-14.957z"/><path d="m231.007 147c6.075 0 11-4.925 11-11s-4.925-11-11-11h-.007c-6.075 0-10.996 4.925-10.996 11s4.928 11 11.003 11z"/><path d="m281 214.999h-.007c-6.075 0-10.996 4.925-10.996 11s4.928 11 11.003 11 11-4.925 11-11-4.925-11-11-11z"/><path d="m435.028 174.716-24.452-35.135 3.609-42.655c.388-4.585-2.119-8.927-6.284-10.883l-38.743-18.201-18.203-38.744c-1.957-4.166-6.3-6.672-10.884-6.284l-42.653 3.609-35.134-24.452c-3.777-2.628-8.791-2.628-12.567 0l-35.135 24.453-42.655-3.609c-4.587-.39-8.927 2.119-10.883 6.284l-18.201 38.744-38.744 18.202c-4.165 1.957-6.671 6.298-6.284 10.883l3.609 42.654-24.452 35.136c-2.628 3.776-2.628 8.79 0 12.567l24.452 35.134-3.609 42.655c-.388 4.585 2.119 8.927 6.284 10.883l38.744 18.202 17.157 36.52v170.321c0 3.598 1.76 6.969 4.712 9.025s6.723 2.54 10.099 1.293l81.189-29.98 81.189 29.98c1.237.457 2.526.681 3.81.681 2.219 0 4.419-.671 6.289-1.975 2.952-2.055 4.712-5.426 4.712-9.024v-170.321l17.158-36.521 38.744-18.202c4.165-1.957 6.671-6.298 6.284-10.883l-3.609-42.654 24.452-35.135c2.628-3.777 2.628-8.791-.001-12.568zm-175.217 284.577c-2.459-.908-5.162-.908-7.621 0l-70.19 25.919v-146.879l32.581-2.757 35.136 24.452c1.888 1.314 4.085 1.971 6.283 1.971s4.395-.657 6.284-1.971l35.135-24.452 32.581 2.757v146.879zm130.441-246.185c-1.465 2.105-2.148 4.656-1.932 7.211l3.298 38.979-35.406 16.634c-2.321 1.09-4.188 2.958-5.279 5.279l-16.633 35.406-38.98-3.298c-2.558-.22-5.106.467-7.211 1.932l-32.109 22.346-32.109-22.346c-1.85-1.288-4.044-1.971-6.284-1.971-.308 0-.618.013-.927.039l-38.979 3.298-16.634-35.406c-1.09-2.321-2.958-4.188-5.279-5.279l-35.406-16.633 3.298-38.98c.216-2.555-.467-5.106-1.932-7.211l-22.346-32.108 22.346-32.109c1.465-2.105 2.148-4.656 1.932-7.211l-3.298-38.979 35.407-16.634c2.321-1.09 4.188-2.958 5.279-5.279l16.632-35.406 38.98 3.298c2.559.217 5.106-.468 7.211-1.932l32.109-22.346 32.108 22.346c2.105 1.465 4.657 2.146 7.211 1.932l38.979-3.298 16.634 35.407c1.09 2.321 2.958 4.188 5.279 5.279l35.406 16.633-3.298 38.98c-.216 2.555.467 5.106 1.932 7.211l22.347 32.108z"/></g><g><path d="m256 291.999c-61.206 0-111-49.794-111-111s49.794-111 111-111 111 49.794 111 111-49.794 111-111 111zm0-200c-49.075 0-89 39.925-89 89s39.925 89 89 89c49.074 0 89-39.925 89-89 0-49.074-39.926-89-89-89z" fill="#0496FF"/></g></g><g/><g/><g/><g/><g/><g/><g/><g/><g/><g/><g/><g/><g/><g/><g/></svg>