<svg id="Capa_1" enable-background="new 0 0 512 512" viewBox="0 0 512 512" xmlns="http://www.w3.org/2000/svg" fill="#052438"><g><g fill="#0496FF"><path d="m406 437c-6.075 0-11 4.925-11 11v42h-203.001v-51.833c0-6.075-4.925-11-11-11s-11 4.925-11 11v62.833c0 6.075 4.925 11 11 11h225.001c6.075 0 11-4.925 11-11v-53c0-6.076-4.925-11-11-11z"/><path d="m438.778 53.221-25-25c-4.297-4.296-11.26-4.296-15.557 0l-25 25c-4.296 4.296-4.296 11.261 0 15.557 4.297 4.296 11.26 4.296 15.557 0l6.222-6.222v186.944c0 6.075 4.925 11 11 11s11-4.925 11-11v-186.944l6.222 6.222c4.297 4.296 11.26 4.296 15.557 0 4.295-4.296 4.295-11.261-.001-15.557z"/></g><g><path d="m361.998 180.167v-60c0-6.075-4.925-11-11-11h-9.292c-2.113-21.547-15.484-39.84-34.135-48.903 5.853-6.404 9.428-14.924 9.428-24.264 0-19.85-16.149-36-36-36s-36 16.149-36 36c0 9.339 3.575 17.859 9.428 24.264-9.409 4.572-17.474 11.493-23.428 19.996-5.954-8.503-14.019-15.424-23.428-19.996 5.853-6.404 9.428-14.924 9.428-24.264 0-19.85-16.149-36-36-36s-36 16.149-36 36c0 9.339 3.575 17.859 9.428 24.264-9.409 4.572-17.474 11.493-23.428 19.996-5.954-8.503-14.019-15.424-23.428-19.996 5.853-6.404 9.428-14.924 9.428-24.264 0-19.85-16.149-36-36-36s-36 16.149-36 36c0 9.339 3.575 17.859 9.428 24.264-18.652 9.064-32.022 27.357-34.135 48.903h-9.292c-6.075 0-11 4.925-11 11v60c0 2.917 1.159 5.715 3.222 7.778l131.777 131.777v135.444c0 3.921 2.087 7.546 5.479 9.514 1.707.99 3.614 1.486 5.521 1.486 1.883 0 3.767-.483 5.458-1.449l70-40c3.427-1.958 5.542-5.604 5.542-9.551v-95.444l131.777-131.777c2.063-2.063 3.222-4.861 3.222-7.778zm-339.998-11v-38h317.998v38zm258.999-147.167c7.72 0 14 6.28 14 14s-6.28 14-14 14-14-6.28-14-14 6.28-14 14-14zm0 54.166c19.465 0 35.644 14.334 38.539 33h-77.078c2.895-18.666 19.074-33 38.539-33zm-100-54.166c7.72 0 14 6.28 14 14s-6.28 14-14 14-14-6.28-14-14 6.28-14 14-14zm0 54.166c19.465 0 35.644 14.334 38.539 33h-77.078c2.895-18.666 19.074-33 38.539-33zm-100-54.166c7.72 0 14 6.28 14 14s-6.28 14-14 14-14-6.28-14-14 6.28-14 14-14zm0 54.166c19.465 0 35.644 14.334 38.539 33h-77.078c2.895-18.666 19.074-33 38.539-33zm127.222 231.222c-2.062 2.063-3.222 4.861-3.222 7.778v93.617l-48 27.429v-121.046c0-2.917-1.159-5.715-3.222-7.778l-116.221-116.221h286.886l-23 23h-45.443c-6.075 0-11 4.925-11 11s4.925 11 11 11h23.443l-23 23h-45.443c-6.075 0-11 4.925-11 11s4.925 11 11 11h23.443z"/><path d="m406 244c-58.448 0-106 47.551-106 106s47.552 106 106 106 106-47.551 106-106-47.552-106-106-106zm0 190c-46.317 0-84-37.682-84-84s37.683-84 84-84 84 37.682 84 84-37.683 84-84 84z"/><path d="m406 311c3.864 0 7.787 1.492 11.343 4.314 4.758 3.777 11.676 2.982 15.454-1.776 3.777-4.758 2.982-11.677-1.776-15.455-7.486-5.942-16.138-9.083-25.021-9.083-13.133 0-25.747 6.989-34.609 19.175-2.794 3.841-5.161 8.091-7.069 12.643h-3.776c-6.075 0-11 4.925-11 11 0 5.539 4.095 10.122 9.422 10.888-.22 2.404-.331 4.839-.331 7.294s.111 4.891.331 7.295c-5.328.766-9.422 5.348-9.422 10.888 0 6.075 4.925 11 11 11h3.776c1.908 4.552 4.275 8.801 7.069 12.643 8.862 12.185 21.476 19.174 34.609 19.174 8.883 0 17.535-3.141 25.021-9.083 4.759-3.777 5.554-10.696 1.776-15.455s-10.697-5.553-15.454-1.776c-3.556 2.822-7.478 4.314-11.343 4.314-6.29 0-12.133-3.738-16.622-9.817h3.251c6.075 0 11-4.925 11-11s-4.925-11-11-11h-11.541c-.297-2.335-.452-4.737-.452-7.183s.155-4.847.451-7.182h11.542c6.075 0 11-4.925 11-11s-4.925-11-11-11h-3.251c4.488-6.08 10.332-9.818 16.622-9.818z"/></g></g><g/><g/><g/><g/><g/><g/><g/><g/><g/><g/><g/><g/><g/><g/><g/></svg>