<svg id="Capa_1" enable-background="new 0 0 512 512" viewBox="0 0 512 512" xmlns="http://www.w3.org/2000/svg" fill="#E6ECF2"><g><path d="m437.019 74.98c-48.352-48.351-112.639-74.98-181.019-74.98s-132.667 26.629-181.019 74.98c-48.353 48.353-74.981 112.64-74.981 181.02 0 101.994 60.446 194.159 153.993 234.799 1.428.62 2.915.914 4.378.914 4.248 0 8.294-2.476 10.094-6.62 2.421-5.572-.134-12.051-5.706-14.472-67.523-29.335-116.179-88.038-133.659-157.343h33.803c19.282 0 34.968-15.687 34.968-34.968 0-7.151 5.818-12.969 12.969-12.969 19.282 0 34.969-15.687 34.969-34.968 0-7.151 5.818-12.97 12.969-12.971h49.452c32.498 0 58.937-26.439 58.937-58.938s-26.439-58.938-58.937-58.938h-126.077c42.862-47.572 104.922-77.526 173.847-77.526 83.174 0 156.353 43.62 197.86 109.186h-46.287c-17.812.003-32.302 14.496-32.302 32.307 0 5.682-4.623 10.304-10.304 10.304-25.238 0-45.771 20.533-45.771 45.771s20.533 45.771 45.771 45.771h37.706c7.151 0 12.969 5.817 12.969 12.969 0 19.28 15.686 34.968 34.969 34.971h32.29c-17.478 69.291-66.12 127.987-133.622 157.327-5.572 2.421-8.125 8.901-5.704 14.473 2.422 5.572 8.904 8.126 14.473 5.703 93.522-40.649 153.952-132.806 153.952-234.782 0-68.38-26.628-132.667-74.981-181.02zm-228.79 46.548c20.367 0 36.937 16.57 36.937 36.938s-16.57 36.938-36.937 36.938h-49.453c-19.281.003-34.967 15.69-34.967 34.971 0 7.15-5.818 12.968-12.969 12.968-19.282 0-34.969 15.687-34.969 34.969 0 7.15-5.817 12.968-12.968 12.968h-38.24c-1.757-11.561-2.663-23.347-2.663-35.28 0-50.008 15.768-96.402 42.594-134.472zm242.382 169.75c-7.152-.001-12.97-5.819-12.97-12.971 0-19.282-15.687-34.969-34.969-34.969h-37.706c-13.107 0-23.771-10.664-23.771-23.771s10.664-23.771 23.771-23.771c17.812 0 32.304-14.491 32.304-32.304 0-5.683 4.623-10.306 10.304-10.307h58.606c15.251 31.05 23.82 65.951 23.82 102.815 0 11.933-.906 23.719-2.664 35.278z"/><path d="m367.546 393.267c-5.956-1.192-11.752 2.672-12.943 8.629l-7.621 38.104h-44.482v-33.603c0-6.075-4.925-11-11-11s-11 4.925-11 11v33.603h-49v-33.603c0-6.075-4.925-11-11-11s-11 4.925-11 11v33.603h-44.482l-7.621-38.104c-1.191-5.957-6.984-9.819-12.943-8.629-5.957 1.191-9.821 6.986-8.629 12.943l19.39 96.947c1.028 5.142 5.542 8.843 10.785 8.843h180c5.244 0 9.758-3.701 10.787-8.843l19.39-96.947c1.19-5.957-2.674-11.752-8.631-12.943zm-87.046 68.733v28h-49v-28zm-111.082 0h40.082v28h-34.482zm133.082 28v-28h40.082l-5.6 28z" fill="#0496FF"/><g><g><path d="m386 412h-260c-6.075 0-11-4.925-11-11v-45.001c0-6.075 4.925-11 11-11h260c6.075 0 11 4.925 11 11v45.001c0 6.075-4.925 11-11 11zm-249-22h238v-23.001h-238z"/></g><g><path d="m291.49 409.794c-1.744 0-3.512-.415-5.159-1.292-5.362-2.854-7.396-9.516-4.541-14.879l49.394-92.792c2.855-5.362 9.516-7.397 14.879-4.541 5.362 2.854 7.396 9.516 4.541 14.879l-49.394 92.792c-1.979 3.716-5.785 5.833-9.72 5.833z"/></g><g><path d="m220.51 409.794c-3.935 0-7.741-2.117-9.719-5.833l-49.395-92.792c-2.854-5.363-.821-12.024 4.541-14.879 5.361-2.854 12.023-.821 14.879 4.541l49.395 92.792c2.854 5.363.821 12.024-4.541 14.879-1.647.876-3.417 1.292-5.16 1.292z"/></g></g></g><g/><g/><g/><g/><g/><g/><g/><g/><g/><g/><g/><g/><g/><g/><g/></svg>