<svg id="Capa_1" enable-background="new 0 0 512 512" viewBox="0 0 512 512" xmlns="http://www.w3.org/2000/svg" fill="#052438"><g><g fill="#0496FF"><path d="m277.757 105.256h95.376v33h22v-44c0-6.075-4.925-11-11-11h-111.242c-3.1 0-6.055 1.308-8.14 3.601l-39.999 44 16.278 14.799z"/><path d="m501 154.658h-26.867c-6.075 0-11 4.925-11 11s4.925 11 11 11h26.867c6.075 0 11-4.925 11-11s-4.925-11-11-11z"/><path d="m211.658 353.706c-7.428 18.855-25.323 31.039-45.589 31.039h-54.2v22h54.2c29.365 0 55.294-17.653 66.058-44.974l39.349-99.874-20.469-8.064z"/><path d="m268.969 174.478c-2.063-2.063-4.861-3.222-7.778-3.222h-112.257v22h107.701l28.386 28.386c2.063 2.063 4.861 3.222 7.778 3.222h179.334v-22h-174.778z"/><path d="m71.641 216.838 48.804-48.804-15.557-15.557-45.581 45.583h-48.307v22h52.863c2.917 0 5.715-1.159 7.778-3.222z"/><path d="m97.3 255.188-24.044 95.861h-26.927c-3.767 0-7.271 1.927-9.289 5.108l-35.329 55.695 18.578 11.784 32.089-50.588h29.46c5.044 0 9.442-3.431 10.669-8.324l26.132-104.185z"/><path d="m374.025 171.748c-3.85 8.824 5.536 18.207 14.36 14.36 7.103-2.676 9.089-12.733 3.569-17.93-5.198-5.514-15.256-3.535-17.929 3.57z"/><path d="m432.385 186.108c7.103-2.676 9.089-12.733 3.569-17.93-5.198-5.514-15.257-3.535-17.93 3.57-3.849 8.825 5.537 18.207 14.361 14.36z"/><path d="m330.025 171.748c-3.85 8.824 5.536 18.207 14.36 14.36 7.103-2.676 9.089-12.733 3.569-17.93-5.198-5.514-15.256-3.535-17.929 3.57z"/></g><path d="m472.133 127.256h-312.163c-5.044 0-9.442 3.431-10.669 8.324l-3.43 13.676h-102.008c-2.017 0-3.996.555-5.719 1.604l-32.863 20c-3.28 1.995-5.281 5.557-5.281 9.396v77.608c0 6.075 4.925 11 11 11h23.994l-34.263 89.241c-.483 1.259-.731 2.596-.731 3.943v55.696c0 6.075 4.925 11 11 11h100.869c5.044 0 9.442-3.431 10.669-8.324l22.638-90.257 48.559-17.985c4.315-1.599 7.18-5.714 7.18-10.315v-33h251.218c4.313 0 8.229-2.521 10.014-6.448l20-44c.65-1.43.986-2.981.986-4.552v-75.608c0-6.074-4.925-10.999-11-10.999zm-450.133 59.182 24.947-15.183h93.405l-18.964 75.608h-99.388zm81.287 220.306h-81.287v-42.657l36.56-95.224h79.31zm75.628-112.536-27.251 10.093 8.888-35.437h18.363zm282.218-82.727-16.083 35.383h-300.98l24.482-97.608h292.582v62.225z"/></g><g/><g/><g/><g/><g/><g/><g/><g/><g/><g/><g/><g/><g/><g/><g/></svg>