<svg id="Capa_1" enable-background="new 0 0 512 512" viewBox="0 0 512 512" xmlns="http://www.w3.org/2000/svg" fill="#E6ECF2"><g><g fill="#0496FF"><path d="m80.186 344.736c0-4.471-2.706-8.497-6.846-10.186l-24.518-10-8.309 20.371 17.672 7.208v34.167c0 4.624 2.892 8.754 7.236 10.336l31.061 11.311 7.528-20.672-23.825-8.676v-33.859z"/><path d="m156.443 328.937-48.949 9.856 4.343 21.567 57.778-11.634c5.135-1.034 8.829-5.545 8.829-10.784v-44h-22v34.995z"/><path d="m456.51 210.235h-29.166v-19.724c0-6.075-4.925-11-11-11s-11 4.925-11 11v19.724h-22v-37.42c0-6.075-4.925-11-11-11s-11 4.925-11 11v37.42h-29.166v22h29.166v37.42c0 6.075 4.925 11 11 11s11-4.925 11-11v-37.42h22v19.724c0 6.075 4.925 11 11 11s11-4.925 11-11v-19.724h29.166z"/><path d="m145.179 221.235c0 18.196 14.804 33 33 33h66v-22h-33v-22h33v-22h-66c-18.196 0-33 14.804-33 33zm44 11h-11c-6.065 0-11-4.935-11-11s4.935-11 11-11h11z"/><path d="m110.03 232.02c7.379 1.718 14.657-5.542 12.93-12.93-1.799-9.523-14.627-12.057-19.93-3.96-4.385 6.183-.482 15.634 7 16.89z"/></g><g><path d="m302.179 135.392h-5.673c-5.056-11.75-16.745-20-30.327-20-14.34 0-26.567 9.197-31.108 22h-20.464l-1.928-2.121c-5.181-5.699-8.787-12.532-10.597-19.879h13.115c6.075 0 11-4.925 11-11v-44c0-6.075-4.925-11-11-11h-15.954c-40.883 0-80.103 17.35-107.604 47.601-2.929 3.222-3.682 7.868-1.92 11.85 1.761 3.982 5.706 6.55 10.06 6.55h13.621c-1.81 7.347-5.416 14.18-10.598 19.879l-3.397 3.737c-43.812 6.95-81.279 36.036-98.577 78.038-1.105 2.684-1.105 5.694 0 8.378 9.945 24.147 26.556 44.028 47.205 57.89l-32.89 114.175c-4.477 15.54-1.467 31.864 8.258 44.785s24.577 20.333 40.75 20.333h38.008c18.738 0 33.982-15.245 33.982-33.983 0-10.353-4.628-20.008-12.699-26.492l-10.965-8.809 19.746-88.245h102.849c4.541 12.803 16.768 22 31.108 22 13.582 0 25.271-8.25 30.327-20h5.673c22.607 0 41-18.393 41-41v-89.687c-.001-22.607-18.393-41-41.001-41zm-102.936-64h4.954v22h-75.262c20.484-14.179 45.022-22 70.308-22zm-19.591 44c1.265 7.736 3.841 15.175 7.641 22h-59.103c3.799-6.826 6.375-14.264 7.641-22zm-156.651 105.843c17.426-37.718 54.927-61.843 96.779-61.843h113.4v123.687h-113.4c-41.852 0-79.353-24.126-96.779-61.844zm91.14 207.39c0 6.607-5.375 11.983-11.982 11.983h-38.009c-9.196 0-17.642-4.214-23.171-11.562s-7.241-16.629-4.695-25.466l31.516-109.405c13.089 5.762 27.239 9.383 41.965 10.515l-20.254 90.516c-.916 4.093.575 8.351 3.845 10.977l16.306 13.1c2.846 2.287 4.479 5.692 4.479 9.342zm152.038-123.546c-6.065 0-11-4.935-11-11v-145.687c0-6.065 4.935-11 11-11s11 4.935 11 11v145.687c0 6.065-4.934 11-11 11zm55-39c0 10.477-8.523 19-19 19h-3v-127.687h3c10.477 0 19 8.523 19 19z"/><path d="m479 188.235c-18.196 0-33 14.804-33 33s14.804 33 33 33 33-14.804 33-33-14.804-33-33-33zm0 44c-6.065 0-11-4.935-11-11s4.935-11 11-11 11 4.935 11 11-4.934 11-11 11z"/></g></g><g/><g/><g/><g/><g/><g/><g/><g/><g/><g/><g/><g/><g/><g/><g/></svg>