<svg id="Capa_1" enable-background="new 0 0 512 512" viewBox="0 0 512 512" xmlns="http://www.w3.org/2000/svg" fill="#E6ECF2"><g><g fill="#0496FF"><path d="m195.14 17.407h22v137.59h-22z"/><path d="m281.395 209.997h67.304c2.917 0 5.715-1.159 7.778-3.222l42.572-42.571-15.557-15.557-39.351 39.35h-73.747c-6.075 0-11 4.925-11 11v44h22v-33z"/><path d="m111.781 345.31h409.655v22h-409.655z" transform="matrix(.833 -.553 .553 .833 -144.253 234.639)"/><path d="m173.52 236.64c7.088 4.924 17.248-.523 17.11-9.14.124-8.625-10.002-14.059-17.11-9.15-6.433 4.02-6.442 14.276 0 18.29z"/><path d="m408.66 203.2c2.672 7.103 12.733 9.092 17.93 3.58 7.634-7.597.644-20.7-9.92-18.569-6.609 1.144-10.769 8.85-8.01 14.989z"/><path d="m142.51 362.07c6.435-4.022 6.448-14.274 0-18.29-8-5.45-18.872 1.823-16.89 11.29 1.259 7.479 10.703 11.394 16.89 7z"/><path d="m102.56 348.71c-2.684-7.095-12.729-9.075-17.93-3.57-6.896 6.792-1.917 18.853 7.77 18.78 7.588.227 13.285-8.287 10.16-15.21z"/></g><path d="m477.078 385.142c22.86-39.065 34.922-83.611 34.922-129.142 0-68.38-26.629-132.667-74.98-181.019-48.353-48.353-112.64-74.981-181.02-74.981-45.53 0-90.076 12.062-129.142 34.922l-27.626-7.488c-3.803-1.031-7.87.051-10.656 2.838l-58.304 58.304c-2.787 2.787-3.87 6.852-2.838 10.656l7.488 27.626c-22.86 39.066-34.922 83.612-34.922 129.142 0 68.38 26.628 132.667 74.981 181.019 48.352 48.353 112.639 74.981 181.019 74.981 45.53 0 90.076-12.062 129.143-34.922l27.625 7.488c3.807 1.033 7.869-.051 10.656-2.838l58.304-58.303c2.787-2.787 3.87-6.852 2.839-10.656zm-448.598-74.142h118.38c2.165 0 4.282-.639 6.085-1.836l83.072-55.167h114.774l-212.094 140.848h-71.109c-18.629-25.169-31.855-53.598-39.108-83.845zm204.218-79.003c-2.165 0-4.282.639-6.085 1.836l-83.072 55.167h-119.232c-1.019-7.259-1.709-14.597-2.049-22h94.601c6.075 0 11-4.925 11-11s-4.925-11-11-11h-94.597c.345-7.382 1.036-14.722 2.068-22h95.97c2.165 0 4.282-.639 6.085-1.836l83.072-55.167h262.672c8.708 20.909 14.334 43.096 16.653 66zm-85.558-183.171c30.202-15.889 63.595-24.961 97.86-26.563v32.737c0 2.917 1.159 5.715 3.222 7.778l52.038 52.037v29.182h-94.12c-2.165 0-4.282.639-6.085 1.836l-52.915 35.14zm276.597 44.041h-50.888c-6.075 0-11 4.925-11 11s4.925 11 11 11h69.831c7.046 9.279 13.349 19.012 18.88 29.13h-139.3v-33.738c0-2.917-1.159-5.715-3.222-7.778l-52.038-52.037v-28.184c34.698 1.595 68.022 10.728 98.085 26.608h-37.236c-6.075 0-11 4.925-11 11s4.925 11 11 11h71.315c7.775 6.038 15.226 12.596 22.3 19.67.768.768 1.516 1.552 2.273 2.329zm-366.359 32.746-7.043-25.986 49.292-49.292 25.513 6.915v138.333l-8.158 5.417h-88.451c5.662-23.484 14.942-46.02 27.618-66.776 1.576-2.579 2.02-5.694 1.229-8.611zm28.672 291.232h55.967c2.165 0 4.282-.639 6.085-1.836l242.456-161.011h99.417c.006.668.024 1.334.024 2.003 0 13.725-1.204 27.351-3.559 40.731l-282.37 187.517c-42.672-9.621-81.847-31.098-113.533-62.785-1.521-1.522-3.013-3.064-4.487-4.619zm326.323 44.82-25.985-7.043c-2.916-.791-6.031-.347-8.611 1.229-36.583 22.34-78.692 34.149-121.777 34.149-6.576 0-13.108-.286-19.589-.819l242.148-160.806c-5.595 17.235-13.193 33.821-22.708 49.402-1.575 2.58-2.02 5.694-1.229 8.611l7.044 25.986z"/></g><g/><g/><g/><g/><g/><g/><g/><g/><g/><g/><g/><g/><g/><g/><g/></svg>