<svg id="Capa_1" enable-background="new 0 0 512 512" viewBox="0 0 512 512" xmlns="http://www.w3.org/2000/svg" fill="#052438"><g><g><g><path d="m221.025 149.248h-56.525c-10.521 0-20.109-6.205-24.426-15.809l-15.849-35.259c-2.491-5.541-.018-12.052 5.523-14.543 5.541-2.489 12.052-.017 14.543 5.523l15.849 35.259c.772 1.718 2.483 2.828 4.36 2.828h56.525c6.075 0 11 4.925 11 11s-4.924 11.001-11 11.001z" fill="#0496FF"/></g><g><path d="m222.249 232.528h-143.389c-6.075 0-11-4.925-11-11s4.925-11 11-11h143.389c6.075 0 11 4.925 11 11s-4.925 11-11 11z" fill="#0496FF"/></g><g><path d="m125.718 356.812c-1.508 0-3.039-.312-4.503-.97-5.541-2.491-8.014-9.002-5.523-14.543l15.122-33.641c4.317-9.604 13.905-15.809 24.426-15.809h67.009c6.075 0 11 4.925 11 11s-4.925 11-11 11h-67.009c-1.876 0-3.588 1.11-4.36 2.829l-15.121 33.641c-1.834 4.077-5.843 6.493-10.041 6.493z" fill="#0496FF"/></g></g><g><path d="m338.604 146.887c2.388-6.838 3.622-14.062 3.622-21.391 0-35.788-29.115-64.903-64.903-64.903s-64.903 29.115-64.903 64.903v192.062c0 35.787 29.115 64.902 64.903 64.902 42.105.621 74.212-41.649 62.625-82.013 13.077-5.229 24.763-13.805 33.682-24.867 11.741-14.562 18.208-32.902 18.208-51.641-.001-34.645-21.709-65.14-53.234-77.052zm-9.082 133.988c-3.951-4.341-8.472-8.065-13.457-11.1 5.988-10.056 7.714-22.391 4.281-33.891-1.736-5.821-7.864-9.131-13.687-7.394-5.821 1.738-9.132 7.866-7.394 13.687 2.232 7.479-.059 15.697-5.838 20.937-5.777 5.24-14.181 6.714-21.405 3.763-5.624-2.298-12.046.398-14.344 6.022s.398 12.045 6.021 14.343c11.39 4.666 24.376 4.041 35.291-1.504 6.839 2.806 12.692 7.397 17.065 13.41 13.811 27.467-7.92 61.997-38.734 61.313-23.657 0-42.903-19.246-42.903-42.902v-192.062c0-23.657 19.246-42.903 42.903-42.903s42.903 19.246 42.903 42.903c0 7.921-2.187 15.652-6.313 22.381-5.288 7.434-13.026 12.87-21.818 15.312-5.854 1.626-9.28 7.689-7.654 13.542 1.607 5.904 7.847 9.285 13.543 7.655 11.303-3.14 21.482-9.469 29.313-18.114 24.992 7.701 42.54 30.999 42.54 57.667.002 26.018-16.275 48.553-40.313 56.935z"/><path d="m500.87 322.217-45.645-72.75c-3.646-5.811-5.301-12.772-4.658-19.604 1.642-17.489.578-35.061-3.162-52.226l-2.64-12.111c-9.483-46.091-34.805-88.054-71.305-118.163-37.017-30.536-83.872-47.357-131.936-47.363-.011 0-.018 0-.029 0-34.688 0-68.867 8.73-99.155 25.241-4.953-2.138-10.406-3.328-16.133-3.328-22.54 0-40.877 18.357-40.877 40.921 0 2.501.237 4.946.669 7.325-27.7 31.356-45.438 70.813-50.501 112.182-16.824 5.07-29.116 20.715-29.116 39.187 0 20.494 15.128 37.514 34.791 40.465 4.344 16.032 10.615 31.497 18.685 46.062.029.052.058.104.087.155l16.222 28.189c2.891 4.971 5.598 10.102 8.082 15.312-5.134 6.84-8.18 15.336-8.18 24.53 0 17.632 11.198 32.695 26.848 38.438 1.218 9.189 1.844 18.495 1.844 27.746v58.575c0 6.075 4.925 11 11 11h207.661c3.267 0 6.364-1.452 8.454-3.962 2.09-2.511 2.956-5.82 2.363-9.032-1.387-7.522-2.334-15.158-2.832-22.81h44.453c35.528 0 64.434-28.94 64.434-64.512v-38.945c0-1.593 1.294-2.891 2.885-2.895l31.465-.073c17.079-.039 30.975-13.968 30.975-31.05-.001-5.844-1.642-11.551-4.749-16.504zm-374.662-278.304c10.409 0 18.877 8.488 18.877 18.921s-8.468 18.921-18.877 18.921-18.877-8.488-18.877-18.921 8.467-18.921 18.877-18.921zm-97.826 177.614c0-10.433 8.468-18.921 18.877-18.921s18.877 8.488 18.877 18.921-8.468 18.921-18.877 18.921-18.877-8.488-18.877-18.921zm88.565 135.793c10.409 0 18.877 8.488 18.877 18.921s-8.468 18.921-18.877 18.921-18.877-8.488-18.877-18.921 8.468-18.921 18.877-18.921zm357.646-9.549-31.466.073c-13.692.032-24.833 11.2-24.833 24.895v38.945c0 23.441-19.036 42.512-42.434 42.512h-55.86c-2.934 0-5.745 1.205-7.811 3.288-2.065 2.083-3.213 4.938-3.188 7.872.07 8.216.611 16.463 1.612 24.645h-183.852v-47.576c0-8.701-.504-17.446-1.482-26.119 18.557-3.863 32.545-20.358 32.545-40.064 0-22.564-18.337-40.921-40.877-40.921-5.244 0-10.254 1.004-14.865 2.813-2.171-4.333-4.459-8.604-6.872-12.752l-16.151-28.067c-6.695-12.095-11.975-24.891-15.801-38.133 14.612-6.245 24.879-20.771 24.879-37.654 0-18.944-12.928-34.918-30.415-39.557 4.582-33.399 17.976-64.376 39.184-90.646 7.433 7.659 17.818 12.43 29.302 12.43 22.54 0 40.877-18.357 40.877-40.921 0-8.191-2.426-15.822-6.583-22.228 25.113-12.199 52.864-18.606 80.994-18.606h.025c42.968.006 84.854 15.041 117.939 42.334 32.656 26.938 55.303 64.472 63.768 105.686.009.043.019.086.027.129l2.653 12.173c3.258 14.95 4.185 30.253 2.754 45.484-1.092 11.622 1.724 23.467 7.927 33.354l45.644 72.748c.906 1.445 1.385 3.109 1.385 4.813 0 4.979-4.049 9.039-9.025 9.05z"/></g></g><g/><g/><g/><g/><g/><g/><g/><g/><g/><g/><g/><g/><g/><g/><g/></svg>