<svg id="Capa_1" enable-background="new 0 0 511.984 511.984" viewBox="0 0 511.984 511.984" xmlns="http://www.w3.org/2000/svg" fill="#E6ECF2"><g><g fill="#0496FF"><path d="m160.497 62.87c8.786 10.47 13.58 23.559 13.58 37.39v6.183h22v-6.183c0-19.661-7.037-38.231-19.89-52.873 5.953-12.296 3.842-27.546-6.349-37.737-12.868-12.866-33.802-12.867-46.669 0-12.866 12.867-12.866 33.802 0 46.669 6.434 6.433 14.884 9.65 23.334 9.65 4.788 0 9.574-1.035 13.994-3.099zm-24.993-29.886c0-2.938 1.144-5.701 3.222-7.778 2.145-2.145 4.961-3.217 7.778-3.217 2.816 0 5.633 1.072 7.778 3.217 2.078 2.077 3.222 4.84 3.222 7.778s-1.144 5.701-3.222 7.778c-4.289 4.29-11.267 4.289-15.556 0-2.078-2.077-3.222-4.84-3.222-7.778z"/><path d="m388.815 9.65c-12.867-12.866-33.802-12.866-46.669 0-10.191 10.191-12.302 25.441-6.349 37.737-12.852 14.642-19.89 33.212-19.89 52.873v6.183h22v-6.183c0-13.831 4.794-26.92 13.58-37.39 4.42 2.064 9.207 3.099 13.994 3.099 8.45 0 16.901-3.217 23.334-9.65 12.867-12.867 12.867-33.802 0-46.669zm-15.556 31.112c-4.289 4.289-11.267 4.29-15.556 0-2.078-2.077-3.222-4.84-3.222-7.778s1.144-5.701 3.222-7.778c2.145-2.145 4.961-3.217 7.778-3.217s5.634 1.072 7.778 3.217c2.078 2.077 3.222 4.84 3.222 7.778s-1.145 5.701-3.222 7.778z"/><path d="m158.796 182.505c-6.075 0-11 4.925-11 11v18.936c0 27.898 22.697 50.596 50.596 50.596h18.936c6.075 0 11-4.925 11-11v-18.936c0-28.494-31.987-50.596-59.505-50.596zm11 22.016c16.227.531 36.532 14.141 36.532 28.58v7.936h-7.936c-15.768 0-28.596-12.828-28.596-28.596z"/><path d="m294.656 263.037h18.532c28.122 0 51-22.878 51-51v-18.532c0-6.075-4.925-11-11-11h-18.532c-28.122 0-51 22.878-51 51v18.532c0 6.075 4.925 11 11 11zm11-29.532c0-15.991 13.009-29 29-29h7.532v7.532c0 15.991-13.009 29-29 29h-7.532z"/><path d="m321.387 417.661-65.395 21.876-65.395-21.876c-1.125-.376-2.304-.568-3.49-.568h-62.247v22h60.456l67.186 22.475 3.49-10.432 3.49 10.432 67.186-22.475h60.456v-22h-62.247c-1.186 0-2.365.192-3.49.568z"/></g><g><path d="m225.302 290.585c2.698 7.1 12.732 9.1 17.94 3.57 6.201-5.991 2.853-17.018-5.631-18.56-8.423-1.827-15.748 7.081-12.309 14.99z"/><path d="m266.362 290.585c2.689 7.111 12.735 9.088 17.94 3.57 6.186-5.999 2.855-17.011-5.631-18.56-8.42-1.833-15.76 7.082-12.309 14.99z"/><path d="m221.354 331.517c9.687 8.108 21.989 12.574 34.638 12.574s24.951-4.466 34.638-12.574c4.659-3.899 5.274-10.837 1.375-15.496-3.899-4.658-10.836-5.274-15.496-1.375-5.735 4.801-13.021 7.444-20.517 7.444s-14.782-2.644-20.517-7.444c-4.659-3.899-11.595-3.284-15.496 1.375-3.899 4.659-3.284 11.596 1.375 15.496z"/><path d="m423.871 498.818-6.948-34.579c-2.683-13.35-9.287-25.371-18.904-34.719.062-.471.104-.946.104-1.426v-89.025c0-4.449-2.68-8.46-6.791-10.163-4.111-1.704-8.842-.762-11.988 2.384l-55.118 55.119h-21.733l-2.123-8.442c16.77-10.256 29.871-26.276 36.348-45.924l6.012-18.235c38.051-9.628 65.012-43.814 65.012-83.696v-12.064c0-77.023-62.664-139.687-139.687-139.687h-24.129c-77.023 0-139.687 62.664-139.687 139.687v12.064c0 39.882 26.961 74.068 65.012 83.696l6.012 18.235c6.477 19.647 19.579 35.667 36.348 45.923l-2.123 8.442h-21.733l-55.118-55.119c-3.146-3.146-7.877-4.088-11.988-2.384-4.11 1.703-6.791 5.713-6.791 10.163v89.025c0 .48.043.955.104 1.427-9.617 9.348-16.221 21.369-18.904 34.719l-6.948 34.579c-.649 3.233.186 6.586 2.275 9.137s5.212 4.03 8.51 4.03h314.188c3.297 0 6.42-1.479 8.51-4.03s2.928-5.905 2.278-9.137zm-95.087-90.41c2.917 0 5.715-1.159 7.778-3.222l39.562-39.562v58.151l-44.493 47.949c-1.888 2.034-2.937 4.707-2.937 7.482v10.778h-61.703v-35.357l32.625-46.219zm-132.626-83.253-7.987-24.229c-1.272-3.861-4.571-6.705-8.577-7.396-30.915-5.333-53.353-32.004-53.353-63.418v-12.064c0-64.893 52.794-117.687 117.687-117.687h24.129c64.893 0 117.687 52.794 117.687 117.687v12.064c0 31.414-22.438 58.085-53.353 63.418-4.006.691-7.304 3.535-8.577 7.396l-7.987 24.229c-8.534 25.885-32.58 43.276-59.834 43.276s-51.301-17.392-59.835-43.276zm59.834 65.275c8.272 0 16.32-1.197 23.965-3.435l2.061 8.196-26.026 36.87-26.026-36.87 2.061-8.196c7.645 2.238 15.694 3.435 23.965 3.435zm-120.132-24.806 39.562 39.562c2.063 2.063 4.861 3.222 7.778 3.222h29.166l32.625 46.219v35.357h-61.701v-10.778c0-2.775-1.049-5.448-2.937-7.482l-44.493-47.949zm-19.23 102.948c1.628-8.099 5.41-15.467 10.889-21.443l33.771 36.395v6.46h-48.961zm234.065 21.412v-6.46l33.771-36.395c5.479 5.976 9.261 13.344 10.888 21.443l4.302 21.412z"/></g></g><g/><g/><g/><g/><g/><g/><g/><g/><g/><g/><g/><g/><g/><g/><g/></svg>