<svg id="Capa_1" enable-background="new 0 0 512 512" viewBox="0 0 512 512" xmlns="http://www.w3.org/2000/svg" fill="#052438"><g><g fill="#0496FF"><path d="m300.142 21.556c-1.048-4.411-3.155-8.555-6.215-12.034-5.321-6.052-12.993-9.522-21.051-9.522h-33.752c-8.058 0-15.73 3.47-21.051 9.521-3.212 3.653-5.374 8.039-6.362 12.698-26.234 8.964-49.704 25.907-66.515 48.136-18.486 24.442-28.257 53.602-28.257 84.325v23.311c0 6.075 4.925 11 11 11s11-4.925 11-11v-23.311c0-25.894 8.231-50.464 23.804-71.054 12.939-17.108 30.551-30.487 50.331-38.438l14.29 110.806c.715 5.548 5.447 9.594 10.896 9.594.469 0 .943-.03 1.42-.091 6.025-.777 10.28-6.292 9.503-12.316l-16.04-124.38c-.304-2.354.779-3.988 1.452-4.753s2.156-2.048 4.529-2.048h33.752c2.374 0 3.856 1.283 4.529 2.048.672.765 1.755 2.399 1.452 4.753l-16.008 124.132c-.777 6.025 3.478 11.54 9.503 12.316 6.022.778 11.54-3.478 12.316-9.503l14.347-111.251c45.179 17.238 75.881 61.059 75.881 110.185v23.311c0 6.075 4.925 11 11 11s11-4.925 11-11v-23.311c.001-60.689-39.488-114.577-96.754-133.124z"/><path d="m221.832 254.159c19.163 0 34.752-15.59 34.752-34.752s-15.59-34.752-34.752-34.752c-15.318 0-28.344 9.967-32.957 23.752h-29.581c-6.075 0-11 4.925-11 11s4.925 11 11 11h29.581c4.613 13.786 17.639 23.752 32.957 23.752zm0-47.504c7.032 0 12.752 5.721 12.752 12.752s-5.721 12.752-12.752 12.752-12.752-5.721-12.752-12.752 5.72-12.752 12.752-12.752z"/><path d="m316.971 442.707c-39.331-15-82.649-14.996-121.978.014-5.676 2.166-8.521 8.523-6.354 14.199 1.674 4.385 5.849 7.081 10.279 7.081 1.304 0 2.63-.233 3.92-.726 34.271-13.079 72.021-13.083 106.293-.012 5.676 2.165 12.033-.681 14.198-6.358s-.681-12.033-6.358-14.198z"/></g><g><path d="m224.864 306.843c9.458 6.007 20.297 9.011 31.136 9.011s21.679-3.003 31.136-9.011c5.128-3.257 6.645-10.055 3.387-15.183-3.257-5.128-10.055-6.644-15.183-3.387-11.749 7.463-26.932 7.463-38.681 0-5.127-3.257-11.925-1.74-15.183 3.387-3.257 5.128-1.74 11.925 3.388 15.183z"/><path d="m445.312 498.742-9.097-43.372c-2.858-13.629-9.394-26.033-18.963-36.073-.472-4.136-1.696-8.207-3.681-11.999-5.229-9.99-15.033-16.764-26.227-18.12l-43.807-5.305c-3.673-.443-7.326.988-9.718 3.812l-.512.605c-9.998-4.612-17.47-13.365-20.423-24.253l-2.583-9.258c15.736-9.001 28.995-21.767 38.566-37.236 8.618-13.928 13.947-29.547 15.67-45.721h6.291c28.93 0 52.466-23.514 52.466-52.416s-23.536-52.416-52.466-52.416h-6.979c-2.674-10.936-9.367-20.584-19.021-26.937-12.727-8.375-28.68-9.779-42.673-3.753l-14.06 6.055c-20.397 8.785-43.796 8.786-64.195 0l-14.012-6.035c-14.002-6.03-29.96-4.624-42.69 3.764-9.642 6.352-16.327 15.989-19.002 26.905h-7.028c-28.93 0-52.466 23.514-52.466 52.416s23.536 52.416 52.466 52.416h6.282c1.702 16.144 6.992 31.738 15.568 45.659 9.44 15.323 22.485 28.007 37.98 37.021l-2.66 9.613c-2.881 10.625-10.142 19.24-19.871 23.914l-.291-.344c-2.392-2.824-6.045-4.252-9.718-3.812l-43.806 5.305c-11.194 1.356-20.999 8.129-26.227 18.12-1.9 3.63-3.098 7.517-3.611 11.47-9.963 10.277-16.695 23.064-19.526 37.149l-8.623 42.917c-.649 3.233.186 6.586 2.275 9.137s5.212 4.03 8.51 4.03h357.093c3.313 0 6.451-1.494 8.539-4.066 2.092-2.572 2.91-5.949 2.23-9.192zm-44.016-279.335c0 16.771-13.667 30.416-30.466 30.416h-5.674v-60.831h5.674c16.799 0 30.466 13.644 30.466 30.415zm-290.591 0c0-16.771 13.667-30.416 30.466-30.416h5.716l-.035 60.831h-5.681c-16.799.001-30.466-13.644-30.466-30.415zm273.995 191.612c4.063.492 7.482 2.854 9.38 6.48s1.89 7.782-.021 11.401l-32.274 61.1h-36.864v-57.754l21.86-25.82zm-215.854-150.996.047-82.219c-.007-7.931 3.787-14.983 10.411-19.346 3.892-2.564 8.251-3.864 12.662-3.864 3.096 0 6.218.641 9.223 1.935l14.012 6.035c25.929 11.166 55.671 11.166 81.6 0l14.06-6.055c7.281-3.134 15.254-2.434 21.876 1.924s10.419 11.404 10.419 19.331v82.516c0 33.131-18.433 62.919-48.109 77.741l-.23.115c-24.379 12.176-53.487 12.176-77.866 0-29.801-14.886-48.234-44.802-48.105-78.113zm50.714 109.905 1.733-6.261c11.194 3.721 22.89 5.587 34.589 5.587 11.529 0 23.06-1.808 34.107-5.421l1.686 6.041c4.123 15.206 13.898 27.817 27.094 35.592l-13.242 15.641c-1.682 1.987-2.604 4.505-2.604 7.108v61.785h-93.843v-61.785c0-2.603-.923-5.121-2.604-7.108l-13.488-15.931c12.941-7.796 22.513-20.276 26.572-35.248zm-101.64 47.571c1.898-3.626 5.317-5.989 9.38-6.48l37.92-4.592 21.86 25.82v57.753h-36.865l-32.274-61.1c-1.911-3.619-1.919-7.775-.021-11.401zm-21.059 42.751c1.019-5.074 2.765-9.906 5.159-14.389l23.314 44.139h-34.451zm289.804 29.75 23.112-43.755c2.241 4.267 3.901 8.844 4.906 13.64l6.317 30.115z"/></g><g><g><path d="m404.524 278.96c-3.547 0-7.028-1.712-9.15-4.88l-16.184-24.166c-3.38-5.047-2.029-11.88 3.019-15.26 5.048-3.381 11.88-2.028 15.26 3.019l16.184 24.166c3.38 5.047 2.029 11.88-3.019 15.26-1.879 1.258-4.007 1.861-6.11 1.861z" fill="#0496FF"/></g></g></g><g/><g/><g/><g/><g/><g/><g/><g/><g/><g/><g/><g/><g/><g/><g/></svg>