<svg id="Capa_1" enable-background="new 0 0 512 512" viewBox="0 0 512 512" xmlns="http://www.w3.org/2000/svg" fill="#052438"><g><g fill="#0496FF"><path d="m124.619 177.345c4.809-4.476 11.078-6.941 17.654-6.941 14.291 0 25.918 11.623 25.918 25.91s-11.627 25.91-25.918 25.91c-6.075 0-11 4.925-11 11s4.925 11 11 11c26.422 0 47.918-21.492 47.918-47.91s-21.496-47.91-47.918-47.91c-12.157 0-23.751 4.56-32.645 12.838-4.446 4.139-4.695 11.1-.557 15.546 4.142 4.448 11.102 4.696 15.548.557z"/><path d="m357.059 215.443c11.642 0 23.133-1.738 34.154-5.165 5.801-1.804 9.041-7.969 7.237-13.771-1.804-5.8-7.964-9.042-13.771-7.237-8.903 2.769-18.196 4.173-27.621 4.173-51.21 0-92.873-41.653-92.873-92.852 0-28.875 13.096-55.612 35.929-73.357 4.797-3.728 5.663-10.639 1.936-15.436-3.729-4.796-10.637-5.664-15.436-1.936-28.235 21.943-44.429 55.012-44.429 90.728.001 63.33 51.533 114.853 114.874 114.853z"/><path d="m468.185 318.244h-94.486c-34.38 0-66.701 13.409-91.01 37.758-11.371 11.389-20.35 24.535-26.688 38.826-6.338-14.291-15.318-27.436-26.688-38.826-24.31-24.348-56.631-37.757-91.01-37.757h-94.488c-6.075 0-11 4.925-11 11v32.584c0 6.075 4.925 11 11 11s11-4.925 11-11v-21.584h83.486c28.496 0 55.288 11.117 75.441 31.302 20.157 20.188 31.258 47.033 31.258 75.588v6.184c0 6.075 4.925 11 11 11s11-4.925 11-11v-6.184c0-28.555 11.101-55.4 31.257-75.59 20.153-20.185 46.945-31.301 75.441-31.301h83.486v21.584c0 6.075 4.925 11 11 11s11-4.925 11-11v-32.584c.001-6.076-4.924-11-10.999-11z"/><circle cx="172.09" cy="116.532" r="11"/><circle cx="217.025" cy="233.002" r="11"/><circle cx="262.43" cy="244.23" r="11"/></g><g><path d="m507.301 342.121c-2.944-2.057-6.708-2.549-10.082-1.313l-178.096 65.192c-16.13 5.904-27.436 20.576-29.31 37.413h-67.627c-1.874-16.837-13.18-31.508-29.31-37.413l-178.095-65.192c-3.371-1.235-7.138-.745-10.082 1.313-2.945 2.058-4.699 5.424-4.699 9.016v41.644c0 9.322 5.864 17.773 14.592 21.029l139.372 51.984c.609 25.583 21.584 46.206 47.279 46.206h109.514c25.695 0 46.669-20.622 47.278-46.206l139.373-51.985c8.728-3.255 14.592-11.706 14.592-21.028v-41.644c0-3.592-1.754-6.958-4.699-9.016zm-17.301 50.66c0 .186-.113.353-.28.416l-142.586 53.183c-6.631 2.474-11.085 8.892-11.085 15.971v2.297c0 13.979-11.346 25.352-25.292 25.352h-109.514c-13.946 0-25.293-11.373-25.293-25.352v-2.297c0-7.08-4.454-13.498-11.084-15.972l-142.585-53.182c-.168-.063-.281-.23-.281-.416v-25.903l163.314 59.782c9.06 3.316 15.146 12.041 15.146 21.708 0 9.399 7.642 17.045 17.035 17.045h77.008c9.394 0 17.035-7.646 17.035-17.045 0-9.668 6.087-18.392 15.146-21.708l163.316-59.783z"/><path d="m38.357 108.068c14.873 13.298 37.293 28.403 64.997 43.823-.454 84.41 68.225 153.388 152.646 153.363 45.967 0 87.251-20.419 115.261-52.66 30.135 6.462 56.321 9.862 76.094 9.861.6 0 1.197-.003 1.785-.009 26.389-.281 41.594-6.743 46.486-19.754 7.178-19.088-12.027-42.823-58.71-72.559-8.719-5.554-18.18-11.165-28.271-16.783.001-.241.009-.481.009-.722.001-84.16-68.479-152.628-152.654-152.628-45.961 0-87.242 20.415-115.252 52.649-11.32-2.426-22.159-4.44-32.4-6.007-54.71-8.373-84.797-3.166-91.975 15.921-4.894 13.018 2.296 27.903 21.984 45.505zm217.643 175.186c-72.044 0-130.655-58.599-130.655-130.627 0-28.098 8.92-54.152 24.077-75.481 36.893 8.676 78.422 21.506 120.875 37.462 42.473 15.963 82.189 33.671 115.673 51.45-6.748 65.742-62.461 117.196-129.97 117.196zm169.098-94.566c44.654 28.445 50.807 43.948 49.938 46.261-.972 2.584-20.553 11.767-89.384-1.843 10.392-16.674 17.655-35.486 20.968-55.615 6.479 3.751 12.655 7.488 18.478 11.197zm-169.098-166.688c68.245 0 124.428 52.585 130.163 119.355-32.097-16.439-69.008-32.638-108.127-47.341-39.092-14.692-77.508-26.809-112.468-35.578 23.491-22.553 55.369-36.436 90.432-36.436zm-219.035 48.306c.869-2.313 15.713-9.927 68.055-1.917 6.84 1.047 13.966 2.306 21.331 3.757-10.392 16.674-17.656 35.486-20.969 55.615-60.706-35.075-69.389-54.872-68.417-57.455z"/></g></g><g/><g/><g/><g/><g/><g/><g/><g/><g/><g/><g/><g/><g/><g/><g/></svg>