<svg id="Capa_1" enable-background="new 0 0 512 512" viewBox="0 0 512 512" xmlns="http://www.w3.org/2000/svg" fill="#052438"><g><g fill="#0496FF"><path d="m393.978 402.918c-1.866-5.78-8.062-8.956-13.848-7.087-9.088 2.935-41.113 13.82-71.646 30.681-24.969 13.788-42.708 28.156-53.107 42.961-10.399-14.805-28.137-29.173-53.106-42.961-30.535-16.862-62.559-27.746-71.647-30.681-5.781-1.866-11.98 1.307-13.848 7.088-1.867 5.781 1.307 11.981 7.088 13.848 41.544 13.415 120.197 48.304 120.514 84.33h21.997c.317-36.025 78.97-70.915 120.515-84.33 5.781-1.867 8.955-8.067 7.088-13.849z"/><path d="m244.375 116.179v35.664c0 6.075 4.925 11 11 11s11-4.925 11-11v-35.664c39.222-3.396 74.199-24.848 95.032-58.844 3.175-5.18 1.549-11.952-3.631-15.126-5.181-3.174-11.952-1.548-15.127 3.631-18.715 30.538-51.301 48.791-87.167 48.826-.035 0-.069 0-.104 0-35.829 0-68.405-18.179-87.157-48.644-3.185-5.174-9.961-6.785-15.134-3.602-5.174 3.185-6.786 9.96-3.602 15.134 20.852 33.877 55.761 55.237 94.89 58.625z"/></g><g><path d="m442.472 453.609c-6.477-30.88-30.744-54.457-61.824-60.064l-35.406-6.388c-14.918-2.691-27.116-13.871-31.1-28.559l-2.178-7.804c21.266-12.175 38.224-31.388 48.109-55.788l18.104-44.686c2.281-5.63-.435-12.044-6.064-14.325-5.633-2.283-12.044.435-14.326 6.064l-18.104 44.686c-14.196 35.039-46.5 56.806-84.306 56.806s-70.11-21.767-84.306-56.806l-18.193-44.905c-2.282-5.63-8.694-8.345-14.326-6.065-5.631 2.281-8.346 8.695-6.065 14.326l18.193 44.905c9.778 24.134 26.48 43.185 47.422 55.379l-2.294 8.291c-3.961 14.61-16.16 25.79-31.078 28.481l-35.005 6.316c-31.364 5.659-55.683 29.485-61.955 60.702l-8.973 44.659c-.649 3.233.186 6.586 2.275 9.137s5.212 4.03 8.51 4.03h371.59c3.313 0 6.45-1.494 8.539-4.066s2.907-5.949 2.227-9.192zm-68.309 36.391v-22.482c0-6.075-4.925-11-11-11s-11 4.925-11 11v22.482h-193.573v-22.482c0-6.075-4.925-11-11-11s-11 4.925-11 11v22.482h-53.578l6.328-31.492c4.482-22.31 21.868-39.339 44.292-43.385l35.005-6.316c23.232-4.191 42.233-21.609 48.39-44.319l1.358-4.906c11.592 3.899 24.03 5.97 36.993 5.97 12.693 0 24.88-1.992 36.265-5.735l1.288 4.617c6.173 22.765 25.173 40.183 48.405 44.375l35.406 6.388c22.221 4.009 39.57 20.86 44.199 42.93l6.685 31.873z"/><path d="m255.376 308.068c10.839 0 21.679-3.003 31.136-9.011 5.129-3.257 6.646-10.055 3.388-15.183-3.256-5.127-10.055-6.645-15.183-3.387-11.75 7.463-26.933 7.463-38.682 0-5.128-3.257-11.925-1.741-15.183 3.387-3.257 5.128-1.741 11.926 3.387 15.183 9.459 6.008 20.298 9.011 31.137 9.011z"/><path d="m435.994 0c-20.992 0-38.07 17.079-38.07 38.071 0 6.747 1.772 13.084 4.863 18.585l-17.193 17.827c-5.177-8.787-11.256-17.115-18.207-24.821-28.891-32.025-68.669-49.662-112.011-49.662-43.397 0-83.212 17.677-112.109 49.773-6.699 7.441-12.584 15.461-17.631 23.911l-16.423-17.028c3.091-5.501 4.863-11.839 4.863-18.586.001-20.991-17.078-38.07-38.07-38.07-20.993 0-38.071 17.079-38.071 38.071 0 20.993 17.079 38.071 38.071 38.071 6.257 0 12.16-1.527 17.373-4.212l21.853 22.658c-9.183 22.653-12.845 47.346-10.258 71.932.594 5.651 5.368 9.85 10.926 9.85.384 0 .773-.02 1.164-.062 6.042-.636 10.424-6.049 9.789-12.09-3.792-36.036 8.151-72.384 32.765-99.724 24.67-27.403 58.678-42.494 95.759-42.494 37.032 0 71.009 15.057 95.673 42.398 24.61 27.282 36.593 63.575 32.877 99.572-.624 6.043 3.769 11.448 9.812 12.072 6.036.625 11.447-3.769 12.071-9.812 2.495-24.16-1.044-48.417-9.921-70.73l22.733-23.571c5.213 2.686 11.116 4.212 17.373 4.212 20.992 0 38.071-17.079 38.071-38.071-.001-20.991-17.08-38.07-38.072-38.07zm-376.059 38.071c0-8.862 7.209-16.071 16.071-16.071 8.861 0 16.071 7.209 16.071 16.071s-7.209 16.071-16.071 16.071-16.071-7.209-16.071-16.071zm376.059 16.071c-8.861 0-16.07-7.209-16.07-16.071 0-8.861 7.209-16.071 16.07-16.071s16.071 7.209 16.071 16.071-7.21 16.071-16.071 16.071z"/></g><g><g><path d="m341.14 261.241c-14.115 0-28.249-3.677-40.996-11.063-3.102-1.797-5.133-4.992-5.444-8.563-2.654-30.486 11.741-59.614 37.569-76.016s58.312-17.045 84.776-1.679c3.1 1.8 5.128 4.998 5.436 8.569 2.626 30.483-11.774 59.599-37.581 75.987-13.381 8.498-28.56 12.765-43.76 12.765zm-24.748-27.403c18.279 8.342 39.524 6.983 56.715-3.934 17.189-10.916 27.452-29.567 27.676-49.658-18.271-8.356-39.517-7.001-56.719 3.924-17.205 10.926-27.465 29.58-27.672 49.668z" fill="#0496FF"/></g><g><path d="m169.613 261.241c-15.202 0-30.377-4.267-43.76-12.765-25.807-16.388-40.207-45.505-37.581-75.987.308-3.571 2.336-6.769 5.436-8.569 26.463-15.367 58.948-14.723 84.776 1.679s40.224 45.53 37.569 76.016c-.311 3.571-2.342 6.766-5.444 8.563-12.744 7.385-26.881 11.063-40.996 11.063zm-31.966-31.336c17.19 10.916 38.435 12.275 56.714 3.933-.207-20.088-10.467-38.742-27.671-49.667-17.203-10.924-38.45-12.28-56.719-3.924.223 20.09 10.486 38.741 27.676 49.658z" fill="#0496FF"/></g></g></g><g/><g/><g/><g/><g/><g/><g/><g/><g/><g/><g/><g/><g/><g/><g/></svg>