<svg id="Capa_1" enable-background="new 0 0 512.038 512.038" viewBox="0 0 512.038 512.038" xmlns="http://www.w3.org/2000/svg" fill="#052438"><g><g><g><path d="m85.595 401.423c-6.075 0-11-4.925-11-11v-5.875c0-31.77 25.881-57.617 57.694-57.617 16.694 0 30.276-13.551 30.276-30.208s-13.582-30.207-30.276-30.207h-21.036c-18.702 0-33.917-15.198-33.917-33.879 0-6.55-5.346-11.878-11.917-11.878h-25.712c-6.075 0-11-4.925-11-11s4.925-11 11-11h25.713c18.702 0 33.917 15.198 33.917 33.878 0 6.55 5.346 11.879 11.917 11.879h21.036c28.825 0 52.276 23.42 52.276 52.207s-23.451 52.208-52.276 52.208c-19.682 0-35.694 15.978-35.694 35.617v5.875c-.001 6.075-4.926 11-11.001 11z" fill="#0496FF"/></g><g><path d="m163.6 437.764c-6.075 0-11-4.925-11-11v-12.674c0-23.335 19.008-42.32 42.373-42.32 11.233 0 20.373-9.116 20.373-20.32v-.337c0-23.335 19.008-42.32 42.372-42.32h30.455c6.075 0 11 4.925 11 11s-4.925 11-11 11h-30.455c-11.233 0-20.372 9.116-20.372 20.32v.337c0 23.335-19.008 42.32-42.373 42.32-11.233 0-20.373 9.116-20.373 20.32v12.674c0 6.075-4.925 11-11 11z" fill="#0496FF"/></g></g><g><g><path d="m365.345 443.759c-4.305 0-8.608-1.138-12.522-3.414-7.76-4.51-12.393-12.559-12.393-21.532v-66.098c0-8.973 4.633-17.022 12.393-21.532 7.765-4.513 17.06-4.554 24.863-.108l58.014 33.049c7.878 4.488 12.58 12.578 12.58 21.641 0 9.062-4.703 17.152-12.58 21.639l-58.015 33.049c-3.87 2.204-8.106 3.306-12.34 3.306zm.005-93.973c-.589 0-1.093.197-1.473.418-.66.384-1.447 1.131-1.447 2.512v66.098c0 1.38.787 2.127 1.447 2.511.665.385 1.709.702 2.918.012l58.015-33.049c1.215-.692 1.47-1.754 1.47-2.523s-.255-1.832-1.47-2.524l-58.014-33.048c-.519-.296-1.006-.407-1.446-.407z" fill="#0496FF"/></g><g fill="#0496FF"><circle cx="281.618" cy="101.321" r="11"/><circle cx="249.758" cy="133.339" r="11"/></g></g><path d="m385.592 259.51c-4.639 0-9.218.258-13.729.747-1.083-33.41-11.366-65.54-30.134-93.323-1.49-9.409-5.806-18.101-12.523-25.08l18.917-18.885c19.384-19.351 30.964-45.053 32.609-72.373l2.322-38.578c.189-3.228-1.013-6.391-3.299-8.678-2.287-2.287-5.44-3.487-8.695-3.301l-38.627 2.317c-27.354 1.642-53.092 13.2-72.47 32.547l-18.943 18.912c-18.38-17.647-47.702-17.444-65.811.636l-46.74 46.662c-28.591 10.096-53.617 29.717-72.949 53.101-29.918 36.9-43.656 83.225-38.683 130.44 2.437 23.135 9.232 45.12 19.866 65.05-5.837 8.667-11.099 17.031-15.691 25-22.733 39.446-26.971 64.965-12.955 78.015 4.903 4.565 11.468 6.85 19.629 6.85 6.521 0 14.062-1.459 22.585-4.378 16.28-5.576 36.442-16.426 59.924-32.239 25.986 13.817 54.818 20.87 83.809 20.87 24.624 0 49.36-5.099 72.56-15.441 17.546 48.711 64.275 83.64 119.027 83.64 69.723 0 126.446-56.637 126.446-126.254s-56.722-126.257-126.445-126.257zm-65.271-85.14c0 6.664-2.6 12.929-7.321 17.643l-34.555 34.497-3.997-29.988 39.189-39.124c4.314 4.628 6.684 10.617 6.684 16.972zm13.431-150.053 26.618-1.597-1.599 26.554c-.613 10.186-2.967 20.083-6.849 29.329-20.535-10.468-37.059-26.957-47.549-47.451 9.262-3.874 19.176-6.223 29.379-6.835zm-58.245 26.155c3.051-3.046 6.305-5.843 9.72-8.396 12.459 23.906 31.795 43.214 55.737 55.656-2.55 3.396-5.343 6.632-8.384 9.667l-73.909 73.786c-29.909-3.659-53.39-27.088-57.063-56.937zm-84.754 19.548c9.531-9.515 24.895-9.73 34.697-.661l-39.172 39.107-30.039-3.99zm-147.609 364.356c-13.495 4.622-19.081 3.184-20.094 2.241-1.694-1.578-3.771-14.845 17.025-50.928 2.863-4.967 6.037-10.137 9.472-15.463 9.119 12.556 19.95 23.998 32.35 34.018 2.535 2.048 5.119 4.009 7.741 5.901-18.149 11.66-34.092 19.983-46.494 24.231zm52.579-47.244c-13.009-10.512-24.053-22.806-32.901-36.43 26.871-37.669 64.62-81.177 106.563-122.383 4.333-4.257 4.396-11.222.138-15.556-4.256-4.333-11.222-4.396-15.556-.138-40.215 39.507-75.856 80.052-102.786 116.575-6.497-14.677-10.735-30.434-12.464-46.853-4.356-41.364 7.68-81.95 33.893-114.28 15.72-19.388 35.975-34.79 58.707-44.711l48.877 6.492c.416 2.656.95 5.271 1.597 7.84l-4.192 8.739 6.967 11.386 5.485.797c7.953 14.366 19.827 26.219 34.217 34.156l-.766 7.453 13.448 4.214 8.265-3.428c2.572.645 5.19 1.177 7.849 1.592l6.512 48.858c.553 4.147 3.409 7.621 7.371 8.964 3.919 1.337 8.337.337 11.304-2.633l50.292-50.208c2.489-2.484 4.652-5.205 6.494-8.1 9.618 20.278 14.703 42.385 14.91 65.145-52.421 15.404-90.802 63.877-90.802 121.139 0 7.155.609 14.169 1.759 21.003-54.097 25.637-118.434 18.141-165.181-19.633zm289.869 102.886c-57.592 0-104.446-46.768-104.446-104.254s46.854-104.254 104.446-104.254 104.446 46.769 104.446 104.254-46.854 104.254-104.446 104.254z"/><g><path d="m245.218 200.998c-7.04 12.12-19.23 20.45-33.55 22.47l-46.53 6.57c-.51.07-1.03.11-1.54.11-2.9 0-5.7-1.15-7.78-3.23-2.44-2.44-3.59-5.89-3.11-9.31l6.58-46.46c1.99-14.08 10.48-26.4 22.51-33.46 1.86 7.4 4.66 14.42 8.26 20.92-4.8 3.82-8.11 9.4-8.99 15.62l-4.53 31.98 32.06-4.52c6.32-.9 11.86-4.13 15.67-8.92 6.51 3.591 13.54 6.38 20.95 8.23z" fill="#0496FF"/></g></g><g/><g/><g/><g/><g/><g/><g/><g/><g/><g/><g/><g/><g/><g/><g/></svg>