<svg id="Capa_1" enable-background="new 0 0 512 512" viewBox="0 0 512 512" xmlns="http://www.w3.org/2000/svg" fill="#052438"><g><path d="m446.412 236.89h-15.362v-9.112c0-28.883-23.498-52.381-52.382-52.381-4.513 0-8.894.574-13.075 1.652v-58.375c0-4.29-2.493-8.188-6.388-9.986-3.894-1.799-8.478-1.169-11.744 1.612l-158.962 135.378v-22.939c20.83-10.825 35.946-31.171 39.519-55.245h11.242c6.075 0 11-4.925 11-11s-4.925-11-11-11h-11.242c-5.335-35.949-36.396-63.622-73.805-63.622s-68.47 27.673-73.805 63.622h-14.683c-6.075 0-11 4.925-11 11s4.925 11 11 11h14.683c3.573 24.074 18.689 44.42 39.519 55.245v39.115l-42.505-26.69c-3.39-2.129-7.669-2.249-11.172-.311-3.503 1.937-5.678 5.624-5.678 9.626v98.265c0 6.075 4.925 11 11 11s11-4.925 11-11v-78.369l137.665 86.443c5.145 3.229 11.935 1.679 15.166-3.466 3.23-5.145 1.679-11.935-3.466-15.166l-43.437-27.275v-30.336l56.5-48.118v112.472c0 6.075 4.925 11 11 11s11-4.925 11-11v-131.208l76.593-65.23v46.421c-10.62 9.593-17.306 23.462-17.306 38.866v9.112h-15.362c-6.075 0-11 4.925-11 11v4.439c0 19.536 10.61 36.63 26.362 45.854v44.562c0 6.075 4.925 11 11 11s11-4.925 11-11v-37.529c1.566.139 3.147.223 4.748.223h51.267c1.601 0 3.182-.084 4.748-.223v37.529c0 6.075 4.925 11 11 11s11-4.925 11-11v-44.562c15.752-9.225 26.362-26.319 26.362-45.854v-4.439c0-6.076-4.925-11-11-11zm-292.199-133.018c25.244 0 46.384 17.87 51.457 41.622h-102.914c5.073-23.752 26.213-41.622 51.457-41.622zm-51.457 63.622h102.914c-5.073 23.752-26.213 41.622-51.457 41.622s-46.384-17.87-51.457-41.622zm39.17 108.174v-45.582c4 .666 8.101 1.029 12.287 1.029s8.286-.364 12.286-1.029v61.012zm206.361-47.89c0-16.752 13.629-30.381 30.382-30.381 16.752 0 30.381 13.629 30.381 30.381v9.112h-60.763zm56.015 55.661h-51.267c-14.904 0-27.395-10.535-30.414-24.55h112.095c-3.02 14.015-15.51 24.55-30.414 24.55z" fill="#0496FF"/><path d="m477.611 35.972h-443.222c-18.962 0-34.389 15.427-34.389 34.389v308.216c0 18.962 15.427 34.389 34.389 34.389h184.571l-19.795 41.062h-32.399c-6.075 0-11 4.925-11 11s4.925 11 11 11h178.468c6.075 0 11-4.925 11-11s-4.925-11-11-11h-32.399l-19.795-41.062h184.571c18.962 0 34.389-15.427 34.389-34.389v-308.216c0-18.962-15.427-34.389-34.389-34.389zm-443.222 22h443.223c6.831 0 12.389 5.558 12.389 12.389v263.038h-468.001v-263.038c0-6.831 5.558-12.389 12.389-12.389zm254.023 396.056h-64.823l19.795-41.062h25.234zm189.199-63.063h-443.222c-6.831 0-12.389-5.558-12.389-12.389v-23.178h468v23.178c0 6.832-5.558 12.389-12.389 12.389z"/></g><g/><g/><g/><g/><g/><g/><g/><g/><g/><g/><g/><g/><g/><g/><g/></svg>