<svg id="Capa_1" enable-background="new 0 0 512 512" viewBox="0 0 512 512" xmlns="http://www.w3.org/2000/svg" fill="#E6ECF2"><g><g fill="#0496FF"><path d="m337.754 198.363v-2.853c0-43.859-35.683-79.542-79.542-79.542-.001 0 0 0-.001 0-21.169 0-41.125 8.295-56.186 23.356-15.062 15.061-23.356 35.015-23.356 56.186v3.006c0 6.075 4.925 11 11 11s11-4.925 11-11v-3.006c0-15.294 6.006-29.724 16.913-40.63s25.336-16.912 40.63-16.912c31.729 0 57.542 25.813 57.542 57.542v2.853c0 6.075 4.925 11 11 11s11-4.925 11-11z"/><path d="m421.545 1.937c-6.075 0-11 4.925-11 11v67.033c0 6.075 4.925 11 11 11s11-4.925 11-11v-67.033c0-6.076-4.924-11-11-11z"/><path d="m339.878 1.937c-6.075 0-11 4.925-11 11v67.033c0 6.075 4.925 11 11 11s11-4.925 11-11v-67.033c0-6.076-4.924-11-11-11z"/><path d="m258.211 90.97c6.075 0 11-4.925 11-11v-67.033c0-6.075-4.925-11-11-11s-11 4.925-11 11v67.033c0 6.075 4.925 11 11 11z"/><path d="m176.544 90.97c6.075 0 11-4.925 11-11v-67.033c0-6.075-4.925-11-11-11s-11 4.925-11 11v67.033c0 6.075 4.925 11 11 11z"/><path d="m94.877 1.937c-6.075 0-11 4.925-11 11v67.033c0 6.075 4.925 11 11 11s11-4.925 11-11v-67.033c0-6.076-4.925-11-11-11z"/><path d="m421.545 421.096c-6.075 0-11 4.925-11 11v66.955c0 6.075 4.925 11 11 11s11-4.925 11-11v-66.955c0-6.075-4.924-11-11-11z"/><path d="m339.878 421.096c-6.075 0-11 4.925-11 11v66.955c0 6.075 4.925 11 11 11s11-4.925 11-11v-66.955c0-6.075-4.924-11-11-11z"/><path d="m258.211 421.096c-6.075 0-11 4.925-11 11v66.955c0 6.075 4.925 11 11 11s11-4.925 11-11v-66.955c0-6.075-4.924-11-11-11z"/><path d="m176.544 421.096c-6.075 0-11 4.925-11 11v66.955c0 6.075 4.925 11 11 11s11-4.925 11-11v-66.955c0-6.075-4.925-11-11-11z"/><path d="m94.877 421.096c-6.075 0-11 4.925-11 11v66.955c0 6.075 4.925 11 11 11s11-4.925 11-11v-66.955c0-6.075-4.925-11-11-11z"/><g><circle cx="178.815" cy="292.232" r="11"/><circle cx="231.745" cy="292.232" r="11"/><circle cx="284.674" cy="292.232" r="11"/><circle cx="337.604" cy="292.232" r="11"/></g></g><g><path d="m450.547 0h-389.094c-28.758 0-52.155 23.396-52.155 52.154v407.691c0 28.759 23.397 52.155 52.155 52.155h389.095c28.758 0 52.154-23.396 52.154-52.154v-407.692c0-28.758-23.397-52.154-52.155-52.154zm-419.249 92.386h449.403v327.228h-449.403zm30.155-70.386h389.095c16.627 0 30.154 13.527 30.154 30.154v18.232h-449.404v-18.232c0-16.627 13.528-30.154 30.155-30.154zm389.094 468h-389.094c-16.627 0-30.154-13.527-30.154-30.154v-18.232h449.403v18.232c0 16.627-13.528 30.154-30.155 30.154z"/><path d="m440.252 269.835c-24.326-12.445-50.223-21.789-76.868-27.841v-22.168c0-17.31-14.082-31.392-31.392-31.392h-147.563c-17.31 0-31.392 14.082-31.392 31.392v21.26c-28.098 6.006-55.418 15.661-81 28.748-8.451 4.323-13.701 12.906-13.701 22.398 0 9.493 5.25 18.075 13.701 22.398 38.586 19.739 81.123 31.68 124.328 35.044 7.88 27.268 32.772 46.356 61.846 46.356 15.509 0 30.496-5.591 42.198-15.744 9.495-8.237 16.33-19.029 19.744-30.966 41.749-3.795 82.773-15.595 120.099-34.69 8.451-4.323 13.701-12.906 13.701-22.398 0-9.491-5.249-18.073-13.701-22.397zm-265.214-50.008c0-5.179 4.213-9.392 9.392-9.392h147.564c5.179 0 9.392 4.213 9.392 9.392v17.954c-16.759-2.63-33.717-3.977-50.682-3.977h-69.115c-15.572 0-31.138 1.136-46.55 3.355v-17.332zm83.173 154.205c-16.494 0-30.943-9.324-37.948-23.378.441.002.882.01 1.324.01h69.115c1.806 0 3.612-.019 5.418-.049-7.063 13.947-21.636 23.417-37.909 23.417zm172.022-78.986c-42.992 21.993-91.241 33.618-139.53 33.618h-69.115c-48.29 0-96.539-11.625-139.53-33.618-1.422-.728-1.72-1.931-1.72-2.812s.298-2.084 1.72-2.812c42.992-21.993 91.241-33.618 139.53-33.618h69.115c48.29 0 96.539 11.625 139.53 33.618 1.422.728 1.72 1.931 1.72 2.812s-.298 2.084-1.72 2.812z"/></g></g><g/><g/><g/><g/><g/><g/><g/><g/><g/><g/><g/><g/><g/><g/><g/></svg>