<svg id="Capa_1" enable-background="new 0 0 512 512" viewBox="0 0 512 512" xmlns="http://www.w3.org/2000/svg" fill="#052438"><g><g><path d="m468 92.75v-61.75c0-17.093-13.907-31-31-31h-362c-17.093 0-31 13.907-31 31v61.75c-24.822 3.422-44 24.774-44 50.521v251.729c0 28.122 22.878 51 51 51h127.985l-20 44h-58.14c-6.075 0-11 4.925-11 11s4.925 11 11 11h310.311c6.075 0 11-4.925 11-11s-4.925-11-11-11h-58.14l-20-44h127.984c28.122 0 51-22.878 51-51v-251.729c0-25.747-19.178-47.099-44-50.521zm-402-16.75h380v223.271c0 4.962-4.038 9-9 9h-362c-4.962 0-9-4.038-9-9zm108-22v-32h32v32zm-22 0h-32v-32h32zm294-23v23h-218v-32h209c4.962 0 9 4.038 9 9zm-371-9h23v32h-32v-23c0-4.962 4.038-9 9-9zm-31 93.126v184.145c0 17.093 13.907 31 31 31h362c17.093 0 31-13.907 31-31v-184.145c12.62 3.14 22 14.568 22 28.145v209h-468v-209c0-13.578 9.38-25.006 22-28.145zm284.849 374.874h-145.698l20-44h105.698zm132.151-66h-410c-15.991 0-29-13.009-29-29v-20.729h468v20.729c0 15.991-13.009 29-29 29z"/><path d="m349 120h64c6.075 0 11-4.925 11-11s-4.925-11-11-11h-64c-6.075 0-11 4.925-11 11s4.925 11 11 11z"/><path d="m99 120h64c6.075 0 11-4.925 11-11s-4.925-11-11-11h-64c-6.075 0-11 4.925-11 11s4.925 11 11 11z"/><path d="m99 164h32c6.075 0 11-4.925 11-11s-4.925-11-11-11h-32c-6.075 0-11 4.925-11 11s4.925 11 11 11z"/></g><g fill="#0496FF"><path d="m330.491 148.79c-11.855-30.366-39.326-49.812-71.698-50.75-1.855-.053-3.726-.053-5.593 0-32.366.938-59.837 20.384-71.692 50.75-12.054 30.878-4.874 64.379 18.739 87.43l48.068 46.922c2.136 2.085 4.91 3.128 7.684 3.128s5.547-1.043 7.684-3.128l48.068-46.922c23.614-23.052 30.794-56.553 18.74-87.43zm-34.107 71.686-40.384 39.422-40.384-39.422c-20.541-20.051-20.5-46.045-13.613-63.686 8.587-21.997 28.449-36.083 51.829-36.759.721-.021 1.443-.031 2.168-.031s1.448.011 2.163.031c23.385.677 43.248 14.762 51.834 36.759 6.887 17.641 6.928 43.635-13.613 63.686z"/><path d="m256 149.127c-18.402 0-33.373 14.971-33.373 33.373s14.971 33.373 33.373 33.373 33.373-14.971 33.373-33.373-14.971-33.373-33.373-33.373zm0 44.746c-6.271 0-11.373-5.102-11.373-11.373s5.102-11.373 11.373-11.373 11.373 5.102 11.373 11.373-5.102 11.373-11.373 11.373z"/></g></g><g/><g/><g/><g/><g/><g/><g/><g/><g/><g/><g/><g/><g/><g/><g/></svg>