<svg id="Capa_1" enable-background="new 0 0 512 512" viewBox="0 0 512 512" xmlns="http://www.w3.org/2000/svg" fill="#E6ECF2"><g><g fill="#0496FF"><path d="m182.369 230.622c-6.075 0-11 4.925-11 11v33h-22v-33c0-6.075-4.925-11-11-11s-11 4.925-11 11v44c0 6.075 4.925 11 11 11h33v33c0 6.075 4.925 11 11 11s11-4.925 11-11v-88c0-6.076-4.925-11-11-11z"/><path d="m248.369 230.622c-18.196 0-33 14.804-33 33v44c0 18.196 14.804 33 33 33s33-14.804 33-33v-44c0-18.197-14.804-33-33-33zm11 77c0 6.065-4.935 11-11 11s-11-4.935-11-11v-44c0-6.065 4.935-11 11-11s11 4.935 11 11z"/><path d="m358.369 230.622c-6.075 0-11 4.925-11 11v33h-22v-33c0-6.075-4.925-11-11-11s-11 4.925-11 11v44c0 6.075 4.925 11 11 11h33v33c0 6.075 4.925 11 11 11s11-4.925 11-11v-88c0-6.076-4.925-11-11-11z"/></g><g><path d="m481 30.72h-450c-17.093 0-31 13.907-31 31v388.56c0 17.093 13.907 31 31 31h450c17.093 0 31-13.907 31-31v-388.56c0-17.094-13.907-31-31-31zm9 31v28.244h-290.27v-37.244h281.27c4.962 0 9 4.037 9 9zm-408.756 28.243v-37.243h37.244v37.244h-37.244zm59.243-37.243h37.243v37.244h-37.243zm-109.487 0h28.244v37.244h-37.244v-28.244c0-4.963 4.038-9 9-9zm450 406.56h-450c-4.962 0-9-4.038-9-9v-338.317h468v338.317c0 4.963-4.038 9-9 9z"/><path d="m402.369 186.622h-308c-6.075 0-11 4.925-11 11v176c0 6.075 4.925 11 11 11h308c6.075 0 11-4.925 11-11v-176c0-6.076-4.925-11-11-11zm-11 176h-286v-154h286z"/></g></g><g/><g/><g/><g/><g/><g/><g/><g/><g/><g/><g/><g/><g/><g/><g/></svg>