<svg id="Capa_1" enable-background="new 0 0 511.984 511.984" viewBox="0 0 511.984 511.984" xmlns="http://www.w3.org/2000/svg" fill="#052438"><g><path d="m443.924 0h-375.864c-15.641 0-28.365 12.725-28.365 28.365v317.368c0 15.64 12.725 28.365 28.365 28.365h77.491c4.531 12.218 11.143 23.83 19.832 34.289l-13.035 13.035-8.933-8.933c-4.296-4.296-11.261-4.296-15.557 0l-40.24 40.24c-13.537 13.538-13.537 35.564 0 49.102 6.769 6.769 15.66 10.153 24.551 10.153s17.782-3.384 24.551-10.153l40.24-40.24c4.295-4.296 4.295-11.261 0-15.557l-9.056-9.056 13.035-13.036c21.859 18.158 48.761 27.245 75.667 27.245 30.351 0 60.703-11.553 83.809-34.659 12.424-12.424 21.502-26.945 27.246-42.432h76.262c15.641 0 28.365-12.725 28.365-28.365v-317.366c.001-15.64-12.723-28.365-28.364-28.365zm-322.76 486.274c-2.402 2.403-5.597 3.726-8.994 3.726s-6.592-1.323-8.994-3.726c-2.403-2.402-3.726-5.597-3.726-8.994s1.323-6.592 3.726-8.994l32.461-32.462 17.989 17.989zm-53.104-464.274h375.864c3.51 0 6.365 2.855 6.365 6.365v53.87h-388.594v-53.87c0-3.51 2.855-6.365 6.365-6.365zm256.799 378.973c-37.635 37.634-98.871 37.635-136.505 0s-37.635-98.871 0-136.505c18.817-18.817 43.535-28.226 68.252-28.226 24.718 0 49.436 9.409 68.253 28.226 37.635 37.634 37.635 98.87 0 136.505zm-.334-165.397c-40.619-28.428-95.218-28.428-135.838 0h-43.433c-16.202 0-29.383-13.181-29.383-29.383s13.181-29.383 29.383-29.383h222.564c16.202 0 29.383 13.181 29.383 29.383s-13.181 29.383-29.383 29.383zm119.399 116.522h-70.435c5.394-32.813-3.013-67.472-25.222-94.522h19.552c28.333 0 51.383-23.05 51.383-51.383s-23.05-51.383-51.383-51.383h-222.564c-28.333 0-51.383 23.05-51.383 51.383s23.05 51.383 51.383 51.383h19.691c-22.21 27.05-30.617 61.709-25.222 94.522h-71.664c-3.51 0-6.365-2.855-6.365-6.365v-241.498h388.595v241.498c-.001 3.51-2.856 6.365-6.366 6.365z"/><g fill="#0496FF"><path d="m278.213 375.207h-11.221v-46.964c0-6.075-4.925-11-11-11h-22.221c-6.075 0-11 4.925-11 11s4.925 11 11 11h11.221v35.964h-11.221c-6.075 0-11 4.925-11 11s4.925 11 11 11h44.441c6.075 0 11-4.925 11-11s-4.924-11-10.999-11z"/><path d="m255.992 300.376c6.075 0 11-4.925 11-11v-10.143c0-6.075-4.925-11-11-11s-11 4.925-11 11v10.143c0 6.075 4.925 11 11 11z"/><g><circle cx="342.582" cy="53.331" r="11"/><circle cx="381.772" cy="53.331" r="11"/><circle cx="420.962" cy="53.331" r="11"/></g></g></g><g/><g/><g/><g/><g/><g/><g/><g/><g/><g/><g/><g/><g/><g/><g/></svg>