<svg id="Capa_1" enable-background="new 0 0 512 512" viewBox="0 0 512 512" xmlns="http://www.w3.org/2000/svg" fill="#052438"><g><g><path d="m447.921 64.09c-41.322-41.322-96.263-64.079-154.701-64.079-58.439 0-113.38 22.757-154.702 64.079s-64.079 96.263-64.079 154.702c0 54.757 19.981 106.442 56.492 146.732l-22.385 22.386-17.801-17.801c-4.296-4.295-11.261-4.296-15.557 0l-61.37 61.37c-8.911 8.909-13.818 20.756-13.818 33.357s4.907 24.448 13.817 33.358c9.197 9.197 21.277 13.795 33.357 13.795 12.081 0 24.161-4.598 33.358-13.795l61.37-61.37c4.296-4.296 4.296-11.261 0-15.557l-17.802-17.802 22.385-22.386c40.289 36.511 91.974 56.493 146.732 56.493 58.438 0 113.379-22.757 154.701-64.079 41.325-41.322 64.082-96.263 64.082-154.701s-22.757-113.38-64.079-154.702zm-382.944 418.547c-4.755 4.755-11.076 7.374-17.801 7.374s-13.047-2.619-17.802-7.374c-4.756-4.755-7.374-11.077-7.374-17.801s2.618-13.046 7.374-17.801l53.592-53.592 35.603 35.603zm367.387-124.7c-76.726 76.725-201.566 76.724-278.29 0-37.167-37.167-57.636-86.583-57.636-139.145s20.469-101.978 57.636-139.145c38.362-38.362 88.754-57.543 139.146-57.543 50.391 0 100.782 19.181 139.145 57.543 76.724 76.724 76.724 201.565-.001 278.29z"/><path d="m414.576 97.434c-32.416-32.415-75.514-50.267-121.356-50.267-45.843 0-88.941 17.852-121.357 50.268s-50.268 75.515-50.268 121.357 17.852 88.941 50.268 121.357 75.515 50.268 121.357 50.268 88.94-17.852 121.356-50.268c32.412-32.415 50.269-75.518 50.269-121.357 0-45.843-17.853-88.942-50.269-121.358zm-15.556 227.159c-28.26 28.26-65.834 43.824-105.8 43.824-39.967 0-77.541-15.564-105.801-43.824-28.261-28.26-43.824-65.834-43.824-105.801s15.563-77.541 43.824-105.801c28.26-28.26 65.834-43.824 105.801-43.824 39.966 0 77.54 15.564 105.8 43.824 28.261 28.26 43.825 65.834 43.825 105.801s-15.565 77.54-43.825 105.801z"/></g><path d="m408.816 207.792h-27.436c-4.988-40.21-36.95-72.173-77.161-77.161v-27.437c0-6.075-4.925-11-11-11s-11 4.925-11 11v27.437c-40.21 4.988-72.172 36.95-77.16 77.161h-27.437c-6.075 0-11 4.925-11 11s4.925 11 11 11h27.437c4.988 40.21 36.95 72.173 77.16 77.161v27.437c0 6.075 4.925 11 11 11s11-4.925 11-11v-27.437c40.211-4.988 72.173-36.95 77.161-77.161h27.437c6.075 0 11-4.925 11-11s-4.925-11-11.001-11zm-49.676 0h-54.921v-54.92c28.058 4.667 50.253 26.862 54.921 54.92zm-76.921-54.921v54.92h-54.92c4.667-28.057 26.862-50.252 54.92-54.92zm-54.92 76.921h54.92v54.92c-28.058-4.667-50.253-26.862-54.92-54.92zm76.92 54.92v-54.92h54.921c-4.668 28.058-26.863 50.253-54.921 54.92z" fill="#0496FF"/></g><g/><g/><g/><g/><g/><g/><g/><g/><g/><g/><g/><g/><g/><g/><g/></svg>