<svg id="Capa_1" enable-background="new 0 0 512 512" viewBox="0 0 512 512" xmlns="http://www.w3.org/2000/svg" fill="#E6ECF2"><g><g><path d="m481.001 69.996h-14.001v-58.996c0-6.075-4.925-11-11-11h-399.999c-6.075 0-11 4.925-11 11v58.995h-14.001c-17.094 0-31 13.906-31 31v300.001c0 17.094 13.906 31 31 31h167.935l-11.89 58.004h-11.045c-6.075 0-11 4.925-11 11s4.925 11 11 11h160c6.075 0 11-4.925 11-11s-4.925-11-11-11h-11.045l-11.89-58.003h167.936c17.093 0 30.999-13.906 30.999-31v-300.001c0-17.094-13.906-31-30.999-31zm0 22c4.962 0 8.999 4.037 8.999 9v264.001h-23v-273.001zm-414 20.004h143.999c3.395 0 6.599-1.567 8.683-4.246l31.697-40.754h193.62v297.996h-377.999zm377.999-90v23h-199c-3.395 0-6.599 1.567-8.683 4.246l-31.697 40.754h-138.619v-68zm-414 69.996h14.001v273.001h-23.001v-264.001c0-4.963 4.037-9 9-9zm271.497 398.004h-92.993l11.89-58.003h69.214zm178.504-80.003h-450.001c-4.963 0-9-4.037-9-9v-14h468v14c0 4.962-4.037 9-8.999 9z"/><path d="m101.008 67c6.075 0 11-4.925 11-11s-4.925-11-11-11h-.008c-6.075 0-10.996 4.925-10.996 11s4.929 11 11.004 11z"/><path d="m146.008 67c6.075 0 11-4.925 11-11s-4.925-11-11-11h-.008c-6.075 0-10.996 4.925-10.996 11s4.929 11 11.004 11z"/><path d="m191.007 67c6.075 0 11-4.925 11-11s-4.925-11-11-11h-.007c-6.075 0-10.996 4.925-10.996 11s4.928 11 11.003 11z"/></g><g fill="#0496FF"><path d="m203.959 222.392c6.075 0 11-4.925 11-11s-4.925-11-11-11h-3.431v-49.395c0-6.075-4.925-11-11-11h-14.431c-6.075 0-11 4.925-11 11s4.925 11 11 11h3.431v38.395h-3.432c-6.075 0-11 4.925-11 11s4.925 11 11 11z"/><path d="m125.242 139.998c-16.676 0-30.242 13.566-30.242 30.242v21.91c0 16.676 13.566 30.242 30.242 30.242s30.242-13.566 30.242-30.242v-21.91c0-16.676-13.566-30.242-30.242-30.242zm8.242 52.152c0 4.545-3.697 8.242-8.242 8.242s-8.242-3.697-8.242-8.242v-21.91c0-4.545 3.697-8.242 8.242-8.242s8.242 3.697 8.242 8.242z"/><path d="m284.056 192.15v-21.91c0-16.676-13.566-30.242-30.242-30.242-16.675 0-30.241 13.566-30.241 30.242v21.91c0 16.676 13.566 30.242 30.241 30.242s30.242-13.566 30.242-30.242zm-38.484 0v-21.91c0-4.545 3.697-8.242 8.241-8.242 4.545 0 8.242 3.697 8.242 8.242v21.91c0 4.545-3.697 8.242-8.242 8.242-4.543 0-8.241-3.697-8.241-8.242z"/><path d="m357.524 170.24c0-16.676-13.566-30.242-30.241-30.242-16.676 0-30.242 13.566-30.242 30.242v21.91c0 16.676 13.566 30.242 30.242 30.242 16.675 0 30.241-13.566 30.241-30.242zm-22 21.91c0 4.545-3.697 8.242-8.241 8.242-4.545 0-8.242-3.697-8.242-8.242v-21.91c0-4.545 3.697-8.242 8.242-8.242 4.544 0 8.241 3.697 8.241 8.242z"/><path d="m377.137 200.392c-6.075 0-11 4.925-11 11s4.925 11 11 11h28.863c6.075 0 11-4.925 11-11s-4.925-11-11-11h-3.431v-49.395c0-6.075-4.925-11-11-11h-14.432c-6.075 0-11 4.925-11 11s4.925 11 11 11h3.432v38.395z"/><path d="m125.242 248.002c-16.676 0-30.242 13.566-30.242 30.241v21.911c0 16.676 13.566 30.242 30.242 30.242s30.242-13.566 30.242-30.242v-21.911c0-16.674-13.566-30.241-30.242-30.241zm8.242 52.153c0 4.545-3.697 8.242-8.242 8.242s-8.242-3.697-8.242-8.242v-21.911c0-4.544 3.697-8.241 8.242-8.241s8.242 3.697 8.242 8.241z"/><path d="m198.711 248.002c-16.675 0-30.241 13.566-30.241 30.241v21.911c0 16.676 13.566 30.242 30.241 30.242 16.676 0 30.242-13.566 30.242-30.242v-21.911c0-16.674-13.566-30.241-30.242-30.241zm8.242 52.153c0 4.545-3.697 8.242-8.242 8.242-4.544 0-8.241-3.697-8.241-8.242v-21.911c0-4.544 3.697-8.241 8.241-8.241 4.545 0 8.242 3.697 8.242 8.241z"/><path d="m277.429 308.396h-3.432v-49.395c0-6.075-4.925-11-11-11h-14.431c-6.075 0-11 4.925-11 11s4.925 11 11 11h3.431v38.395h-3.432c-6.075 0-11 4.925-11 11s4.925 11 11 11h28.863c6.075 0 11-4.925 11-11s-4.924-11-10.999-11z"/><path d="m336.904 308.396h-3.432v-49.395c0-6.075-4.925-11-11-11h-14.431c-6.075 0-11 4.925-11 11s4.925 11 11 11h3.431v38.395h-3.432c-6.075 0-11 4.925-11 11s4.925 11 11 11h28.863c6.075 0 11-4.925 11-11s-4.924-11-10.999-11z"/><path d="m386.758 248.002c-16.675 0-30.241 13.566-30.241 30.241v21.911c0 16.676 13.566 30.242 30.241 30.242 16.676 0 30.242-13.566 30.242-30.242v-21.911c0-16.674-13.566-30.241-30.242-30.241zm8.242 52.153c0 4.545-3.697 8.242-8.242 8.242-4.544 0-8.241-3.697-8.241-8.242v-21.911c0-4.544 3.697-8.241 8.241-8.241 4.545 0 8.242 3.697 8.242 8.241z"/></g></g><g/><g/><g/><g/><g/><g/><g/><g/><g/><g/><g/><g/><g/><g/><g/></svg>