<svg id="Capa_1" enable-background="new 0 0 512 512" viewBox="0 0 512 512" xmlns="http://www.w3.org/2000/svg" fill="#E6ECF2"><g><g fill="#0496FF"><path d="m429.649 355.972h-37.609c-24.752 0-46.551-12.854-59.093-32.233h27.185c5.697 0 11.101-1.265 15.96-3.515 4.855 2.249 10.255 3.515 15.948 3.515h37.609c21.018 0 38.117-17.099 38.117-38.117s-17.1-38.117-38.117-38.117h-37.609c-5.694 0-11.093 1.266-15.948 3.515-4.859-2.25-10.263-3.515-15.96-3.515h-27.185c12.542-19.379 34.341-32.234 59.093-32.234h37.609c25.82 0 49.526 14.11 61.866 36.825l19.332-10.502c-16.193-29.807-47.307-48.323-81.198-48.323h-37.609c-37.336 0-69.556 22.278-84.097 54.234h-19.896c-6.075 0-11 4.925-11 11v8.347l-9.775 11.728c-3.44 4.129-3.395 10.14.109 14.215l9.666 11.24v8.705c0 6.075 4.925 11 11 11h19.896c14.541 31.955 46.761 54.233 84.097 54.233h37.609c33.716 0 64.752-18.375 80.995-47.953l-19.283-10.59c-12.379 22.54-36.025 36.542-61.712 36.542zm16.118-70.35c0 8.887-7.23 16.117-16.117 16.117h-34.987c2.296-4.899 3.586-10.359 3.586-16.117s-1.291-11.218-3.586-16.117h34.987c8.886 0 16.117 7.23 16.117 16.117zm-149.379 7.161-6.254-7.272 6.363-7.634c1.647-1.977 2.55-4.469 2.55-7.043v-1.33h61.085c8.887 0 16.117 7.23 16.117 16.117s-7.23 16.117-16.117 16.117h-61.085v-1.784c0-2.631-.943-5.175-2.659-7.171z"/><path d="m223.953 247.505h-19.896c-14.541-31.956-46.761-54.234-84.097-54.234h-37.609c-33.715 0-64.75 18.373-80.994 47.95l19.283 10.591c12.379-22.539 36.025-36.541 61.711-36.541h37.609c24.752 0 46.551 12.854 59.093 32.234h-27.185c-5.697 0-11.101 1.265-15.96 3.515-4.855-2.249-10.255-3.515-15.948-3.515h-37.609c-21.018 0-38.117 17.099-38.117 38.117s17.1 38.117 38.117 38.117h37.609c5.694 0 11.093-1.266 15.948-3.515 4.859 2.25 10.263 3.515 15.96 3.515h27.185c-12.542 19.379-34.341 32.233-59.093 32.233h-37.609c-25.821 0-49.526-14.11-61.866-36.825l-19.333 10.502c16.192 29.807 47.306 48.323 81.198 48.323h37.609c37.336 0 69.556-22.278 84.097-54.233h19.896c6.075 0 11-4.925 11-11v-12.784c0-2.632-.943-5.177-2.66-7.172l-6.253-7.271 6.362-7.634c1.648-1.977 2.551-4.469 2.551-7.043v-12.33c.001-6.075-4.924-11-10.999-11zm-157.72 38.117c0-8.887 7.23-16.117 16.117-16.117h34.987c-2.296 4.899-3.586 10.359-3.586 16.117s1.291 11.218 3.586 16.117h-34.986c-8.887 0-16.118-7.23-16.118-16.117zm85.635 16.117c-8.887 0-16.117-7.23-16.117-16.117s7.23-16.117 16.117-16.117h58.873l-7.563 9.074c-3.441 4.129-3.396 10.14.109 14.215l7.691 8.944h-59.11z"/><path d="m256 355.555c-6.075 0-11 4.925-11 11v56.781c0 6.075 4.925 11 11 11s11-4.925 11-11v-56.781c0-6.076-4.925-11-11-11z"/><path d="m301.478 353.467c-2.673-5.456-9.258-7.711-14.718-5.041-5.455 2.672-7.712 9.261-5.04 14.717l24.976 50.993c1.91 3.899 5.819 6.164 9.887 6.164 1.624 0 3.273-.361 4.831-1.124 5.455-2.672 7.712-9.261 5.04-14.717z"/><path d="m225.24 348.426c-5.455-2.672-12.044-.417-14.718 5.041l-24.976 50.993c-2.672 5.456-.415 12.045 5.04 14.717 1.558.763 3.206 1.124 4.831 1.124 4.066 0 7.977-2.265 9.887-6.164l24.976-50.993c2.672-5.456.415-12.045-5.04-14.718z"/><path d="m256 215.689c6.075 0 11-4.925 11-11v-56.781c0-6.075-4.925-11-11-11s-11 4.925-11 11v56.781c0 6.075 4.925 11 11 11z"/><path d="m286.76 222.817c1.558.763 3.206 1.124 4.831 1.124 4.066 0 7.977-2.265 9.887-6.164l24.976-50.993c2.672-5.456.415-12.045-5.04-14.717-5.456-2.671-12.044-.417-14.718 5.041l-24.976 50.992c-2.672 5.456-.415 12.045 5.04 14.717z"/><path d="m210.522 217.777c1.91 3.899 5.819 6.164 9.887 6.164 1.624 0 3.273-.361 4.831-1.124 5.455-2.672 7.712-9.261 5.04-14.717l-24.976-50.993c-2.672-5.456-9.259-7.711-14.718-5.041-5.455 2.672-7.712 9.261-5.04 14.717z"/></g><path d="m481 30.72h-450c-17.094 0-31 13.907-31 31v388.56c0 17.093 13.906 31 31 31h450c17.094 0 31-13.907 31-31v-388.56c0-17.094-13.906-31-31-31zm9 31v28.244h-290.27v-37.244h281.27c4.963 0 9 4.037 9 9zm-408.757 28.243v-37.243h37.244v37.244h-37.244zm59.244-37.243h37.243v37.244h-37.243zm-109.487 0h28.243v37.244h-37.243v-28.244c0-4.963 4.037-9 9-9zm450 406.56h-450c-4.963 0-9-4.038-9-9v-338.317h468v338.317c0 4.963-4.037 9-9 9z"/></g><g/><g/><g/><g/><g/><g/><g/><g/><g/><g/><g/><g/><g/><g/><g/></svg>