<svg id="Capa_1" enable-background="new 0 0 512 512" viewBox="0 0 512 512" xmlns="http://www.w3.org/2000/svg" fill="#052438"><g><g><path d="m501 0h-490c-6.075 0-11 4.925-11 11v400c0 6.075 4.925 11 11 11h170c6.075 0 11-4.925 11-11s-4.925-11-11-11h-159v-288h144c3.395 0 6.599-1.567 8.683-4.247l31.696-40.753h283.621v333h-159c-6.075 0-11 4.925-11 11s4.925 11 11 11h170c6.075 0 11-4.925 11-11v-400c0-6.075-4.925-11-11-11zm-300.001 45c-3.395 0-6.599 1.567-8.683 4.247l-31.696 40.753h-138.62v-68h468v23z"/><path d="m56.008 45h-.008c-6.075 0-10.997 4.925-10.997 11s4.929 11 11.004 11 11-4.925 11-11-4.924-11-10.999-11z"/><path d="m101.007 45h-.007c-6.075 0-10.996 4.925-10.996 11s4.928 11 11.003 11 11-4.925 11-11-4.925-11-11-11z"/><path d="m146.007 45h-.007c-6.075 0-10.996 4.925-10.996 11s4.928 11 11.003 11 11-4.925 11-11-4.925-11-11-11z"/><path d="m198.23 280h-137.23c-6.075 0-11 4.925-11 11s4.925 11 11 11h137.23c6.075 0 11-4.925 11-11s-4.925-11-11-11z"/><path d="m61 325c-6.075 0-11 4.925-11 11s4.925 11 11 11h76.5c6.075 0 11-4.925 11-11s-4.925-11-11-11z"/><path d="m451 325h-76.5c-6.075 0-11 4.925-11 11s4.925 11 11 11h76.5c6.075 0 11-4.925 11-11s-4.925-11-11-11z"/><path d="m462 291c0-6.075-4.925-11-11-11h-137.23c-6.075 0-11 4.925-11 11s4.925 11 11 11h137.23c6.075 0 11-4.924 11-11z"/></g><g fill="#0496FF"><path d="m353.469 377.82-20-34.641c-2.802-4.855-8.808-6.826-13.941-4.575l-15.819 6.931c-4.648-3.398-9.62-6.273-14.871-8.6l-1.906-17.15c-.619-5.571-5.328-9.785-10.933-9.785h-40c-5.605 0-10.314 4.214-10.933 9.785l-1.906 17.15c-5.25 2.327-10.221 5.201-14.871 8.601l-15.819-6.931c-5.134-2.25-11.139-.278-13.941 4.575l-20 34.641c-2.802 4.854-1.507 11.039 3.008 14.36l13.914 10.236c-.301 2.85-.453 5.719-.453 8.583 0 2.862.152 5.731.454 8.583l-13.915 10.236c-4.515 3.322-5.81 9.507-3.008 14.361l20 34.641c2.802 4.854 8.806 6.824 13.941 4.575l15.818-6.93c4.648 3.398 9.62 6.273 14.872 8.6l1.906 17.15c.619 5.571 5.328 9.785 10.933 9.785h40.001c5.605 0 10.313-4.214 10.933-9.785l1.906-17.15c5.25-2.327 10.221-5.201 14.871-8.601l15.82 6.931c5.134 2.25 11.139.279 13.941-4.575l20-34.641c2.802-4.854 1.507-11.039-3.008-14.361l-13.914-10.236c.301-2.85.453-5.719.453-8.583s-.152-5.733-.453-8.583l13.914-10.236c4.513-3.322 5.808-9.507 3.006-14.361zm-39.572 21.774c.732 3.739 1.103 7.577 1.103 11.406s-.371 7.666-1.103 11.406c-.817 4.177.849 8.451 4.277 10.973l11.32 8.327-10.154 17.588-12.884-5.645c-3.903-1.711-8.443-1.012-11.652 1.792-5.822 5.087-12.457 8.924-19.72 11.405-4.032 1.377-6.906 4.96-7.377 9.195l-1.552 13.959h-20.309l-1.551-13.959c-.471-4.235-3.344-7.817-7.376-9.194-7.268-2.483-13.903-6.32-19.721-11.405-3.209-2.805-7.75-3.504-11.653-1.793l-12.883 5.645-10.154-17.588 11.321-8.329c3.428-2.521 5.094-6.795 4.277-10.972-.734-3.747-1.106-7.584-1.106-11.405 0-3.829.371-7.666 1.103-11.405.817-4.177-.849-8.451-4.277-10.974l-11.32-8.327 10.154-17.588 12.884 5.645c3.904 1.711 8.443 1.012 11.653-1.792 5.821-5.086 12.455-8.923 19.719-11.404 4.033-1.377 6.907-4.96 7.377-9.195l1.551-13.96h20.309l1.551 13.96c.47 4.235 3.345 7.817 7.377 9.195 7.267 2.482 13.901 6.319 19.719 11.404 3.209 2.805 7.748 3.504 11.654 1.793l12.884-5.645 10.154 17.588-11.32 8.327c-3.426 2.521-5.092 6.795-4.275 10.972z"/><path d="m256 375c-19.851 0-36 16.149-36 36s16.149 36 36 36 36-16.149 36-36-16.149-36-36-36zm0 50c-7.72 0-14-6.28-14-14 0-7.719 6.28-14 14-14s14 6.28 14 14c0 7.719-6.28 14-14 14z"/><path d="m189.501 172h8.25v59c0 6.075 4.925 11 11 11s11-4.925 11-11v-59h8.25c6.075 0 11-4.925 11-11s-4.925-11-11-11h-38.5c-6.075 0-11 4.925-11 11s4.925 11 11 11z"/><path d="m160.501 231v-70c0-6.075-4.925-11-11-11s-11 4.925-11 11v24h-22.001v-24c0-6.075-4.925-11-11-11s-11 4.925-11 11v70c0 6.075 4.925 11 11 11s11-4.925 11-11v-24h22.001v24c0 6.075 4.925 11 11 11s11-4.925 11-11z"/><path d="m406.502 220h-27.5v-59c0-6.075-4.925-11-11-11s-11 4.925-11 11v70c0 6.075 4.925 11 11 11h38.5c6.075 0 11-4.925 11-11s-4.925-11-11-11z"/><path d="m268.001 241.999c6.075 0 11-4.925 11-11v-44.293l8.905 8.5c4.25 4.057 10.939 4.057 15.19 0l8.905-8.5v44.293c0 6.075 4.925 11 11 11s11-4.925 11-11v-70c0-4.402-2.625-8.381-6.672-10.113-4.047-1.733-8.738-.884-11.923 2.156l-19.905 19-19.905-19c-3.185-3.04-7.875-3.888-11.923-2.156-4.047 1.732-6.672 5.711-6.672 10.113v70c0 6.075 4.925 11 11 11z"/></g></g><g/><g/><g/><g/><g/><g/><g/><g/><g/><g/><g/><g/><g/><g/><g/></svg>