<svg id="Capa_1" enable-background="new 0 0 511.983 511.983" viewBox="0 0 511.983 511.983" xmlns="http://www.w3.org/2000/svg" fill="#E6ECF2"><g><g><path d="m162.078 138.069h-67.952c-6.075 0-11 4.925-11 11v67.951c0 6.075 4.925 11 11 11h67.951c6.075 0 11-4.925 11-11v-67.951c.001-6.075-4.924-11-10.999-11zm-11 67.951h-45.951v-45.951h45.951z"/><path d="m417.643 138.069h-67.951c-6.075 0-11 4.925-11 11v67.951c0 6.075 4.925 11 11 11h67.951c6.075 0 11-4.925 11-11v-67.951c0-6.075-4.925-11-11-11zm-11 67.951h-45.951v-45.951h45.951z"/><path d="m449.459 20.445h-386.935c-16.547 0-30.008 13.462-30.008 30.008v312.017c0 16.546 13.461 30.008 30.008 30.008h89.621c2.673 4.092 5.6 8.04 8.776 11.828l-14.272 14.272-9.675-9.675c-2.063-2.062-4.861-3.222-7.778-3.222s-5.715 1.159-7.778 3.222l-42.029 42.027c-13.948 13.948-13.948 36.644 0 50.592 6.975 6.974 16.136 10.461 25.296 10.461 9.161 0 18.322-3.487 25.297-10.461l42.027-42.028c4.296-4.296 4.296-11.261 0-15.557l-9.804-9.804 14.277-14.277c22.801 19.08 50.927 28.629 79.058 28.629 31.575 0 63.149-12.019 87.188-36.056 6.192-6.192 11.581-12.888 16.178-19.952h90.554c16.547 0 30.008-13.461 30.008-30.008v-312.016c-.001-16.546-13.462-30.008-30.009-30.008zm-335.034 465.521c-5.369 5.37-14.108 5.372-19.479 0-5.37-5.37-5.37-14.109 0-19.479l34.25-34.25 19.479 19.479zm-51.901-443.521h386.936c4.416 0 8.008 3.592 8.008 8.008v39.362h-402.952v-39.362c0-4.416 3.592-8.008 8.008-8.008zm42.71 279.78v-45.951h37.082c-6.214 14.359-9.658 29.896-10.041 45.951zm221.937 74.649c-39.498 39.498-103.764 39.498-143.262 0-19.134-19.133-29.671-44.572-29.671-71.631s10.537-52.498 29.671-71.631c19.749-19.749 45.689-29.623 71.631-29.623s51.882 9.874 71.631 29.623c39.498 39.497 39.498 103.764 0 143.262zm-48.311-192.666c-15.165-2.898-30.772-2.937-45.95-.124v-44.014h45.95zm99.887 118.017c-.38-15.685-3.73-31.31-10.045-45.951h38.047v45.951zm70.712 48.253h-79.226c3.343-8.511 5.704-17.32 7.085-26.253h40.431c6.075 0 11-4.925 11-11v-67.951c0-6.075-4.925-11-11-11h-61.372c-4.013-5.696-8.558-11.128-13.649-16.219-12.315-12.315-26.61-21.466-41.868-27.472v-61.513c0-6.075-4.925-11-11-11h-67.95c-6.075 0-11 4.925-11 11v61.244c-15.516 6-30.057 15.241-42.557 27.741-5.063 5.063-9.63 10.489-13.679 16.219h-60.44c-6.075 0-11 4.925-11 11v67.951c0 6.075 4.925 11 11 11h39.454c1.389 9.042 3.768 17.835 7.084 26.253h-78.248c-4.416 0-8.008-3.592-8.008-8.008v-250.655h402.951v250.655c0 4.416-3.592 8.008-8.008 8.008z"/></g><g fill="#0496FF"><path d="m94.518 0c-6.075 0-11 4.925-11 11v40.89c0 6.075 4.925 11 11 11s11-4.925 11-11v-40.89c0-6.075-4.925-11-11-11z"/><path d="m139.352 0c-6.075 0-11 4.925-11 11v40.89c0 6.075 4.925 11 11 11s11-4.925 11-11v-40.89c0-6.075-4.925-11-11-11z"/><path d="m372.631 0c-6.075 0-11 4.925-11 11v40.89c0 6.075 4.925 11 11 11s11-4.925 11-11v-40.89c0-6.075-4.924-11-11-11z"/><path d="m417.465 0c-6.075 0-11 4.925-11 11v40.89c0 6.075 4.925 11 11 11s11-4.925 11-11v-40.89c0-6.075-4.924-11-11-11z"/><path d="m300.311 289.276-52.857 58.285-23.952-25.228c-4.185-4.406-11.146-4.587-15.552-.403-4.405 4.183-4.586 11.145-.403 15.551l32.114 33.825c2.078 2.189 4.963 3.426 7.978 3.426h.126c3.06-.035 5.967-1.343 8.022-3.61l60.821-67.066c4.081-4.5 3.741-11.457-.759-15.538-4.499-4.081-11.456-3.743-15.538.758z"/></g></g><g/><g/><g/><g/><g/><g/><g/><g/><g/><g/><g/><g/><g/><g/><g/></svg>