<svg id="Capa_1" enable-background="new 0 0 512.013 512.013" viewBox="0 0 512.013 512.013" xmlns="http://www.w3.org/2000/svg" fill="#052438"><g><g><path d="m461.006 0h-450c-6.075 0-11 4.925-11 11v420c0 6.075 4.925 11 11 11h161.271c6.075 0 11-4.925 11-11s-4.925-11-11-11h-150.271v-308h144c3.395 0 6.599-1.567 8.683-4.247l31.696-40.753h243.621v101.315c0 6.075 4.925 11 11 11s11-4.925 11-11v-157.315c0-6.075-4.925-11-11-11zm-260.001 45c-3.395 0-6.599 1.567-8.683 4.247l-31.696 40.753h-138.62v-68h428v23z"/><path d="m461.006 342.685c-6.075 0-11 4.925-11 11v66.315h-200.52c-6.075 0-11 4.925-11 11s4.925 11 11 11h211.52c6.075 0 11-4.925 11-11v-77.315c0-6.075-4.925-11-11-11z"/><path d="m56.014 45h-.008c-6.075 0-10.996 4.925-10.996 11s4.929 11 11.004 11 11-4.925 11-11-4.925-11-11-11z"/><path d="m101.013 45h-.007c-6.075 0-10.996 4.925-10.996 11s4.928 11 11.003 11 11-4.925 11-11-4.925-11-11-11z"/><path d="m146.013 45h-.007c-6.075 0-10.996 4.925-10.996 11s4.928 11 11.003 11 11-4.925 11-11-4.925-11-11-11z"/><path d="m61.006 182.001h110c6.075 0 11-4.925 11-11s-4.925-11-11-11h-110c-6.075 0-11 4.925-11 11s4.925 11 11 11z"/><path d="m275.738 306c0-6.075-4.925-11-11-11h-192.732v-68h192.731c6.075 0 11-4.925 11-11s-4.925-11-11-11h-203.731c-6.075 0-11 4.925-11 11v90c0 6.075 4.925 11 11 11h203.731c6.076 0 11.001-4.925 11.001-11z"/><path d="m61.006 340c-6.075 0-11 4.925-11 11s4.925 11 11 11h110c6.075 0 11-4.925 11-11s-4.925-11-11-11z"/><path d="m256.596 250h-145.59c-6.075 0-11 4.925-11 11s4.925 11 11 11h145.59c6.075 0 11-4.925 11-11s-4.925-11-11-11z"/><path d="m392.007 205.245c0-6.075-4.925-11-11-11h-.01c-6.075 0-10.995 4.925-10.995 11s4.93 11 11.005 11 11-4.925 11-11z"/><path d="m357.978 254.655c1.419 5.408 6.619 8.813 12.029 8.12v42.98h-1.391c-6.075 0-11 4.925-11 11s4.925 11 11 11h24.78c6.075 0 11-4.925 11-11s-4.925-11-11-11h-1.39v-57.145c0-3.41-1.581-6.627-4.281-8.71-2.701-2.083-6.217-2.795-9.512-1.93l-12.39 3.252c-5.875 1.543-9.387 7.557-7.845 13.433z"/></g><path d="m381.006 130c-72.233 0-131 58.767-131 131 0 32.165 11.653 61.661 30.958 84.485l-19.529 19.529-9.899-9.899c-2.063-2.063-4.861-3.222-7.778-3.222s-5.715 1.159-7.778 3.222l-95.458 95.459c-6.781 6.78-10.516 15.82-10.516 25.456 0 9.635 3.734 18.676 10.515 25.456 7.02 7.019 16.235 10.527 25.456 10.527 9.217 0 18.438-3.51 25.455-10.527l95.46-95.459c2.062-2.063 3.222-4.861 3.222-7.778s-1.159-5.715-3.222-7.778l-9.899-9.899 19.529-19.529c22.824 19.305 52.319 30.957 84.484 30.957 72.234 0 131.001-58.767 131.001-131s-58.767-131-131.001-131zm-205.131 355.93c-5.459 5.459-14.341 5.458-19.798 0-2.625-2.625-4.071-6.141-4.071-9.899s1.445-7.274 4.071-9.899l87.681-87.682 19.799 19.799zm205.131-115.93c-60.103 0-109-48.897-109-109s48.897-109 109-109c60.104 0 109.001 48.897 109.001 109s-48.897 109-109.001 109z" fill="#0496FF"/></g><g/><g/><g/><g/><g/><g/><g/><g/><g/><g/><g/><g/><g/><g/><g/></svg>