<svg id="Capa_1" enable-background="new 0 0 512 512" viewBox="0 0 512 512" xmlns="http://www.w3.org/2000/svg" fill="#E6ECF2"><g><g fill="#0496FF"><path d="m77 355.178h22c6.075 0 11-4.925 11-11s-4.925-11-11-11h-22c-18.196 0-33 14.804-33 33s14.804 33 33 33c6.065 0 11 4.935 11 11s-4.935 11-11 11h-22c-6.075 0-11 4.925-11 11s4.925 11 11 11h22c18.196 0 33-14.804 33-33s-14.804-33-33-33c-6.065 0-11-4.935-11-11s4.935-11 11-11z"/><path d="m187 355.178c6.075 0 11-4.925 11-11s-4.925-11-11-11h-44c-6.075 0-11 4.925-11 11v88c0 6.075 4.925 11 11 11h44c6.075 0 11-4.925 11-11s-4.925-11-11-11h-33v-22h13c6.075 0 11-4.925 11-11s-4.925-11-11-11h-13v-22z"/><path d="m253 333.178c-18.196 0-33 14.804-33 33v44c0 18.196 14.804 33 33 33s33-14.804 33-33v-44c0-18.197-14.804-33-33-33zm11 77c0 6.065-4.935 11-11 11s-11-4.935-11-11v-44c0-6.065 4.935-11 11-11s11 4.935 11 11z"/><path d="m423.398 141.591h-44c-6.075 0-11 4.925-11 11s4.925 11 11 11h17.444l-31.397 31.397-38.771-38.771c-4.296-4.296-11.261-4.296-15.557 0l-39.375 39.375-14.394-14.394c-2.063-2.062-4.861-3.222-7.778-3.222s-5.715 1.159-7.778 3.222l-67.201 67.201 15.557 15.557 59.422-59.423 14.394 14.394c2.063 2.062 4.861 3.222 7.778 3.222s5.715-1.159 7.778-3.222l39.375-39.375 38.771 38.771c4.296 4.296 11.261 4.296 15.557 0l39.175-39.175v17.443c0 6.075 4.925 11 11 11s11-4.925 11-11v-44c0-6.075-4.925-11-11-11z"/></g><g><path d="m481 24.822h-322.631c-17.093 0-31 13.907-31 31v233.355h-116.369c-6.075 0-11 4.925-11 11v176c0 6.075 4.925 11 11 11h308c6.075 0 11-4.925 11-11v-76.999h151c17.093 0 31-13.907 31-31v-312.356c0-17.093-13.907-31-31-31zm9 31v23h-178.631v-32h169.631c4.962 0 9 4.038 9 9zm-286.631 23v-32h32v32zm54-32h32v32h-32zm-99 0h23v32h-32v-23c0-4.962 4.038-9 9-9zm149.631 418.356h-286v-154h286zm173-87.999h-151v-77.001c0-6.075-4.925-11-11-11h-169.631v-188.356h340.631v267.356c0 4.963-4.038 9.001-9 9.001z"/><path d="m457 245.178h-263.631v-111.356c0-6.075-4.925-11-11-11s-11 4.925-11 11v122.355c0 6.075 4.925 11 11 11h274.631c6.075 0 11-4.925 11-11s-4.925-10.999-11-10.999z"/></g></g><g/><g/><g/><g/><g/><g/><g/><g/><g/><g/><g/><g/><g/><g/><g/></svg>