<svg id="Capa_1" enable-background="new 0 0 512 512" viewBox="0 0 512 512" xmlns="http://www.w3.org/2000/svg" fill="#E6ECF2"><g><g><g><path d="m106.001 189.5c-6.075 0-11-4.925-11-11v-40c0-5.377 3.888-9.966 9.191-10.85l26.329-4.388c2.527-8.416 5.898-16.547 10.072-24.296l-15.521-21.729c-3.125-4.375-2.629-10.37 1.173-14.172l31.819-31.819c3.803-3.803 9.797-4.299 14.172-1.173l21.734 15.524c7.748-4.174 15.875-7.543 24.288-10.069l4.39-26.336c.886-5.304 5.475-9.192 10.852-9.192h45c5.377 0 9.967 3.888 10.851 9.192l4.388 26.328c8.416 2.527 16.547 5.898 24.295 10.073l21.729-15.521c4.376-3.126 10.37-2.628 14.172 1.173l31.819 31.819c3.802 3.802 4.298 9.796 1.173 14.172l-15.524 21.734c4.174 7.748 7.542 15.875 10.068 24.289l26.337 4.39c5.304.884 9.191 5.473 9.191 10.85v40c0 6.075-4.925 11-11 11s-11-4.925-11-11v-30.681l-24.112-4.019c-4.358-.726-7.859-3.991-8.889-8.288-2.658-11.097-7.042-21.672-13.029-31.432-2.311-3.767-2.144-8.55.425-12.146l14.215-19.901-18.642-18.641-19.897 14.212c-3.597 2.569-8.381 2.736-12.147.424-9.759-5.989-20.335-10.374-31.437-13.033-4.297-1.029-7.562-4.53-8.288-8.889l-4.016-24.105h-26.363l-4.019 24.112c-.727 4.359-3.991 7.86-8.289 8.889-11.097 2.657-21.672 7.041-31.431 13.029-3.767 2.312-8.55 2.145-12.146-.425l-19.9-14.214-18.642 18.641 14.212 19.896c2.568 3.596 2.735 8.381.424 12.147-5.989 9.759-10.374 20.335-13.033 31.437-1.029 4.297-4.53 7.562-8.889 8.288l-24.104 4.018v30.682c-.001 6.075-4.926 11-11.001 11z" fill="#0496FF"/></g><g><path d="m313.382 189.544c-1.065 0-2.148-.156-3.22-.483-5.81-1.776-9.08-7.926-7.304-13.736 1.421-4.647 2.142-9.467 2.142-14.325 0-27.019-21.981-49-49-49s-49 21.981-49 49c0 4.858.721 9.678 2.142 14.326 1.776 5.81-1.494 11.959-7.304 13.736-5.806 1.776-11.958-1.494-13.735-7.303-2.059-6.735-3.103-13.719-3.103-20.759 0-39.15 31.851-71 71-71s71 31.851 71 71c0 7.04-1.044 14.024-3.103 20.758-1.448 4.738-5.806 7.786-10.515 7.786z" fill="#0496FF"/></g></g><path d="m436 172.5h-360c-6.075 0-11 4.925-11 11v60c0 2.984 1.213 5.84 3.359 7.914l141.641 136.755v112.831c0 3.921 2.087 7.546 5.479 9.514 1.707.99 3.614 1.486 5.521 1.486 1.883 0 3.767-.483 5.458-1.449l70-40c3.427-1.958 5.542-5.604 5.542-9.551v-72.831l141.641-136.756c2.146-2.073 3.359-4.929 3.359-7.914v-60c0-6.075-4.925-10.999-11-10.999zm-11 22v38h-338v-38zm-141.641 181.086c-2.146 2.073-3.359 4.929-3.359 7.914v71.117l-48 27.429v-98.546c0-2.984-1.213-5.84-3.359-7.914l-125.412-121.086h305.541z"/></g><g/><g/><g/><g/><g/><g/><g/><g/><g/><g/><g/><g/><g/><g/><g/></svg>