<svg id="Capa_1" enable-background="new 0 0 512 512" viewBox="0 0 512 512" xmlns="http://www.w3.org/2000/svg" fill="#052438"><g><g><path d="m481 30.72h-450c-17.094 0-31 13.907-31 31v388.56c0 17.093 13.906 31 31 31h450c17.094 0 31-13.907 31-31v-388.56c0-17.094-13.906-31-31-31zm9 31v28.244h-290.27v-37.244h281.27c4.963 0 9 4.037 9 9zm-408.757 28.243v-37.243h37.244v37.244h-37.244zm59.244-37.243h37.243v37.244h-37.243zm-109.487 0h28.243v37.244h-37.243v-28.244c0-4.963 4.037-9 9-9zm450 406.56h-450c-4.963 0-9-4.038-9-9v-338.317h468v338.317c0 4.963-4.037 9-9 9z"/><path d="m365.5 318.622h-219c-6.075 0-11 4.925-11 11s4.925 11 11 11h219c6.075 0 11-4.925 11-11s-4.925-11-11-11z"/><path d="m321.5 362.622h-131c-6.075 0-11 4.925-11 11s4.925 11 11 11h131c6.075 0 11-4.925 11-11s-4.925-11-11-11z"/></g><g fill="#0496FF"><path d="m277.5 186.622c-6.075 0-11 4.925-11 11v54.399l-2.13-2.904c-2.071-2.826-5.366-4.495-8.87-4.495s-6.799 1.669-8.87 4.495l-2.13 2.904v-54.399c0-6.075-4.925-11-11-11s-11 4.925-11 11v88c0 4.756 3.058 8.974 7.578 10.454 4.521 1.479 9.48-.114 12.292-3.949l13.13-17.904 13.13 17.904c2.111 2.88 5.434 4.496 8.872 4.496 1.141 0 2.294-.178 3.42-.547 4.521-1.48 7.578-5.698 7.578-10.454v-88c0-6.076-4.925-11-11-11z"/><path d="m190.5 186.622c-6.075 0-11 4.925-11 11v54.399l-2.13-2.904c-2.071-2.826-5.366-4.495-8.87-4.495s-6.799 1.669-8.87 4.495l-2.13 2.904v-54.399c0-6.075-4.925-11-11-11s-11 4.925-11 11v88c0 4.756 3.058 8.974 7.578 10.454 4.52 1.479 9.48-.114 12.292-3.949l13.13-17.904 13.13 17.904c2.111 2.88 5.434 4.496 8.872 4.496 1.141 0 2.294-.178 3.42-.547 4.521-1.48 7.578-5.698 7.578-10.454v-88c0-6.076-4.925-11-11-11z"/><path d="m365.5 186.622c-6.075 0-11 4.925-11 11v54.399l-2.13-2.904c-2.071-2.826-5.366-4.495-8.87-4.495s-6.799 1.669-8.87 4.495l-2.13 2.904v-54.399c0-6.075-4.925-11-11-11s-11 4.925-11 11v88c0 4.756 3.058 8.974 7.578 10.454 4.52 1.479 9.48-.114 12.292-3.949l13.13-17.904 13.13 17.904c2.111 2.88 5.434 4.496 8.872 4.496 1.141 0 2.294-.178 3.42-.547 4.521-1.48 7.578-5.698 7.578-10.454v-88c0-6.076-4.925-11-11-11z"/><path d="m448.391 233.843-31.112-31.112c-4.297-4.296-11.26-4.296-15.557 0-4.296 4.296-4.296 11.261 0 15.557l23.334 23.334-23.334 23.334c-4.296 4.296-4.296 11.261 0 15.557 2.148 2.148 4.963 3.222 7.778 3.222s5.631-1.074 7.778-3.222l31.112-31.113c4.297-4.296 4.297-11.261.001-15.557z"/><path d="m110.278 202.731c-4.297-4.296-11.26-4.296-15.557 0l-31.112 31.112c-4.296 4.296-4.296 11.261 0 15.557l31.112 31.113c2.148 2.148 4.963 3.222 7.778 3.222 2.814 0 5.631-1.074 7.778-3.222 4.296-4.296 4.296-11.261 0-15.557l-23.334-23.334 23.334-23.334c4.297-4.296 4.297-11.261.001-15.557z"/></g></g><g/><g/><g/><g/><g/><g/><g/><g/><g/><g/><g/><g/><g/><g/><g/></svg>