<svg id="Capa_1" enable-background="new 0 0 512 512" viewBox="0 0 512 512" xmlns="http://www.w3.org/2000/svg" fill="#052438"><g><g fill="#0496FF"><path d="m301.266 177.064-22.322-7.613-14.139-18.877c-2.077-2.773-5.34-4.406-8.805-4.406s-6.728 1.632-8.805 4.406l-14.139 18.877-22.322 7.613c-3.279 1.119-5.84 3.717-6.911 7.012-1.07 3.295-.526 6.902 1.47 9.735l13.584 19.28.343 23.583c.051 3.464 1.73 6.703 4.533 8.739 2.804 2.037 6.402 2.634 9.713 1.61l22.534-6.96 22.534 6.961c1.064.329 2.158.49 3.246.49 2.296 0 4.564-.719 6.467-2.101 2.803-2.037 4.482-5.275 4.533-8.739l.343-23.583 13.584-19.28c1.996-2.833 2.54-6.439 1.47-9.735-1.072-3.295-3.632-5.893-6.911-7.012zm-28.084 26.134c-1.275 1.81-1.975 3.962-2.007 6.175l-.179 12.296-11.749-3.629c-1.058-.327-2.152-.49-3.247-.49s-2.189.164-3.247.49l-11.749 3.629-.179-12.296c-.032-2.213-.731-4.366-2.007-6.175l-7.082-10.052 11.639-3.97c2.096-.715 3.927-2.045 5.254-3.817l7.371-9.842 7.371 9.842c1.327 1.772 3.158 3.102 5.254 3.817l11.639 3.97z"/><path d="m158.382 217.602-22.322-7.613-14.139-18.877c-2.077-2.773-5.34-4.406-8.805-4.406s-6.728 1.632-8.804 4.405l-14.14 18.878-22.322 7.613c-3.279 1.119-5.84 3.717-6.911 7.012-1.07 3.295-.526 6.902 1.47 9.735l13.584 19.28.343 23.583c.051 3.464 1.73 6.703 4.533 8.739 2.804 2.036 6.402 2.634 9.713 1.61l22.534-6.961 22.534 6.961c1.064.329 2.158.49 3.246.49 2.296 0 4.564-.719 6.467-2.101 2.803-2.037 4.482-5.275 4.533-8.739l.342-23.583 13.585-19.28c1.996-2.833 2.54-6.44 1.47-9.735-1.071-3.295-3.632-5.893-6.911-7.011zm-28.085 26.133c-1.275 1.81-1.975 3.962-2.007 6.176l-.179 12.295-11.748-3.629c-2.115-.653-4.379-.653-6.494 0l-11.749 3.629-.179-12.296c-.032-2.213-.731-4.366-2.007-6.175l-7.082-10.053 11.638-3.969c2.096-.715 3.926-2.045 5.253-3.816l7.373-9.843 7.371 9.842c1.327 1.772 3.158 3.102 5.254 3.817l11.639 3.969z"/><path d="m451.061 224.613c-1.071-3.295-3.632-5.893-6.911-7.012l-22.322-7.613-14.14-18.878c-2.077-2.773-5.339-4.405-8.804-4.405s-6.728 1.632-8.805 4.406l-14.139 18.877-22.322 7.613c-3.279 1.119-5.84 3.717-6.911 7.012-1.07 3.295-.526 6.902 1.47 9.735l13.585 19.28.342 23.583c.051 3.464 1.73 6.703 4.533 8.739 1.902 1.382 4.17 2.101 6.467 2.101 1.087 0 2.182-.161 3.246-.49l22.534-6.961 22.534 6.961c3.312 1.024 6.909.426 9.713-1.61 2.803-2.037 4.482-5.275 4.533-8.739l.343-23.583 13.584-19.28c1.996-2.833 2.54-6.44 1.47-9.736zm-34.996 19.122c-1.275 1.81-1.975 3.962-2.007 6.175l-.179 12.296-11.749-3.629c-1.058-.327-2.152-.49-3.247-.49s-2.189.164-3.247.49l-11.748 3.629-.179-12.295c-.032-2.214-.731-4.366-2.007-6.176l-7.083-10.052 11.639-3.969c2.096-.715 3.927-2.045 5.254-3.817l7.371-9.842 7.373 9.843c1.327 1.771 3.157 3.102 5.253 3.816l11.638 3.969z"/></g><g><path d="m146 315.076c-6.075 0-11 4.925-11 11v33h-22v-33c0-6.075-4.925-11-11-11s-11 4.925-11 11v88c0 6.075 4.925 11 11 11s11-4.925 11-11v-33h22v33c0 6.075 4.925 11 11 11s11-4.925 11-11v-88c0-6.076-4.925-11-11-11z"/><path d="m410 403.076h-33v-77c0-6.075-4.925-11-11-11s-11 4.925-11 11v88c0 6.075 4.925 11 11 11h44c6.075 0 11-4.925 11-11s-4.925-11-11-11z"/><path d="m234 315.076h-44c-6.075 0-11 4.925-11 11s4.925 11 11 11h11v77c0 6.075 4.925 11 11 11s11-4.925 11-11v-77h11c6.075 0 11-4.925 11-11s-4.925-11-11-11z"/><path d="m325.422 315.622c-4.521-1.481-9.48.114-12.292 3.949l-13.13 17.904-13.13-17.904c-2.811-3.835-7.771-5.429-12.292-3.949s-7.578 5.698-7.578 10.454v88c0 6.075 4.925 11 11 11s11-4.925 11-11v-54.399l2.13 2.904c2.071 2.826 5.366 4.495 8.87 4.495s6.799-1.669 8.87-4.495l2.13-2.904v54.399c0 6.075 4.925 11 11 11s11-4.925 11-11v-88c0-4.757-3.058-8.974-7.578-10.454z"/><path d="m481 30.72h-450c-17.094 0-31 13.907-31 31v388.56c0 17.093 13.906 31 31 31h450c17.094 0 31-13.907 31-31v-388.56c0-17.094-13.906-31-31-31zm9 31v28.244h-290.27v-37.244h281.27c4.963 0 9 4.037 9 9zm-408.757 28.243v-37.243h37.244v37.244h-37.244zm59.244-37.243h37.243v37.244h-37.243zm-109.487 0h28.243v37.244h-37.243v-28.244c0-4.963 4.037-9 9-9zm450 406.56h-450c-4.963 0-9-4.038-9-9v-338.317h468v338.317c0 4.963-4.037 9-9 9z"/></g></g><g/><g/><g/><g/><g/><g/><g/><g/><g/><g/><g/><g/><g/><g/><g/></svg>