<svg id="Capa_1" enable-background="new 0 0 512 512" viewBox="0 0 512 512" xmlns="http://www.w3.org/2000/svg" fill="#052438"><g><g><path d="m501 0h-490c-6.075 0-11 4.925-11 11v394.999c0 6.075 4.925 11 11 11h290c6.075 0 11-4.925 11-11s-4.925-11-11-11h-279v-283h144c3.395 0 6.599-1.567 8.683-4.247l31.696-40.752h283.621v327.999h-49c-6.075 0-11 4.925-11 11s4.925 11 11 11h60c6.075 0 11-4.925 11-11v-394.999c0-6.075-4.925-11-11-11zm-300.001 45c-3.395 0-6.599 1.567-8.683 4.247l-31.696 40.752h-138.62v-67.999h468v23z"/><path d="m56.007 44.999h-.007c-6.075 0-10.996 4.925-10.996 11s4.928 11 11.003 11 11-4.925 11-11-4.924-11-11-11z"/><path d="m101.007 44.999h-.007c-6.075 0-10.997 4.925-10.997 11s4.929 11 11.004 11 11-4.925 11-11-4.925-11-11-11z"/><path d="m146.007 44.999h-.007c-6.075 0-10.997 4.925-10.997 11s4.929 11 11.004 11 11-4.925 11-11-4.925-11-11-11z"/><path d="m111 216.999h95c6.075 0 11-4.925 11-11s-4.925-11-11-11h-95c-6.075 0-11 4.925-11 11s4.925 11 11 11z"/><path d="m267 300.999c0-6.075-4.925-11-11-11h-195c-6.075 0-11 4.925-11 11s4.925 11 11 11h195c6.075 0 11-4.925 11-11z"/><path d="m61 334.998c-6.075 0-11 4.925-11 11s4.925 11 11 11h97.5c6.075 0 11-4.925 11-11s-4.925-11-11-11z"/><path d="m267 160.999c0-6.075-4.925-11-11-11h-195c-6.075 0-11 4.925-11 11v90c0 6.075 4.925 11 11 11h195c6.075 0 11-4.925 11-11zm-22 79h-173v-68h173z"/><path d="m462 160.999c0-6.075-4.925-11-11-11h-109.999c-6.075 0-11 4.925-11 11s4.925 11 11 11h109.999c6.075 0 11-4.925 11-11z"/><path d="m451 126.999c6.075 0 11-4.925 11-11s-4.925-11-11-11h-72.498c-6.075 0-11 4.925-11 11s4.925 11 11 11z"/></g><path d="m481 445h-21.814l-57.647-192.162c-1.396-4.652-5.678-7.839-10.536-7.839h-40c-4.858 0-9.14 3.187-10.536 7.839l-57.651 192.162h-21.816c-6.075 0-11 4.925-11 11v45c0 6.075 4.925 11 11 11h220c6.075 0 11-4.925 11-11v-45c0-6.075-4.925-11-11-11zm-151.815-78.001h83.631l8.4 28h-100.431zm15-50h53.632l8.4 28h-70.431zm15-50h23.632l8.4 28h-40.432zm-45 150h113.631l8.4 28.001h-130.431zm155.815 73.001h-198v-23h198z" fill="#0496FF"/></g><g/><g/><g/><g/><g/><g/><g/><g/><g/><g/><g/><g/><g/><g/><g/></svg>