<svg id="Capa_1" enable-background="new 0 0 512 512" height="512" viewBox="0 0 512 512" width="512" xmlns="http://www.w3.org/2000/svg" fill="#E6ECF2"><g><path d="m372.909 0h-233.818c-22.882 0-41.497 18.616-41.497 41.498v429.005c0 22.882 18.615 41.498 41.497 41.498h233.818c22.882 0 41.497-18.616 41.497-41.498v-429.005c0-22.882-18.615-41.498-41.497-41.498zm-233.818 22h233.818c10.751 0 19.497 8.747 19.497 19.498v326.51h-272.812v-326.51c0-10.751 8.746-19.498 19.497-19.498zm233.818 468h-233.818c-10.751 0-19.497-8.747-19.497-19.498v-80.495h272.812v80.495c0 10.751-8.746 19.498-19.497 19.498z"/><path d="m287.735 451.003h-63.471c-6.075 0-11-4.925-11-11s4.925-11 11-11h63.471c6.075 0 11 4.925 11 11 0 6.076-4.925 11-11 11z"/><g fill="#0496FF"><path d="m308.681 164.706v-43.913c0-29.048-23.633-52.681-52.681-52.681s-52.681 23.632-52.681 52.681v43.913c-14.088.443-25.415 12.034-25.415 26.228v104.714c0 14.474 11.775 26.249 26.249 26.249h103.693c14.474 0 26.249-11.775 26.249-26.249v-104.714c.001-14.194-11.326-25.785-25.414-26.228zm-52.681-74.594c16.917 0 30.681 13.763 30.681 30.681v43.892h-61.361v-43.892c-.001-16.917 13.763-30.681 30.68-30.681zm56.096 205.535c0 2.303-1.945 4.249-4.249 4.249h-103.694c-2.304 0-4.249-1.946-4.249-4.249v-104.713c0-2.303 1.945-4.249 4.249-4.249h103.693c2.304 0 4.249 1.946 4.249 4.249v104.713z"/><path d="m257.017 260.901c-6.075 0-11-4.925-11-11v-13.216c0-6.075 4.925-11 11-11s11 4.925 11 11v13.216c0 6.075-4.925 11-11 11z"/></g></g></svg>