<svg id="Capa_1" enable-background="new 0 0 512 512" height="512" viewBox="0 0 512 512" width="512" xmlns="http://www.w3.org/2000/svg" fill="#052438"><g><g fill="#0496FF"><path d="m11 86.046c-6.075 0-11-4.925-11-11v-64.046c0-6.075 4.925-11 11-11h64.042c6.075 0 11 4.925 11 11s-4.925 11-11 11h-53.042v53.046c0 6.076-4.925 11-11 11z"/><path d="m501 86.046c-6.075 0-11-4.925-11-11v-53.046h-53.042c-6.075 0-11-4.925-11-11s4.925-11 11-11h64.042c6.075 0 11 4.925 11 11v64.046c0 6.076-4.925 11-11 11z"/><path d="m75.042 512h-64.042c-6.075 0-11-4.925-11-11v-64.046c0-6.075 4.925-11 11-11s11 4.925 11 11v53.046h53.042c6.075 0 11 4.925 11 11s-4.925 11-11 11z"/><path d="m501 512h-64.042c-6.075 0-11-4.925-11-11s4.925-11 11-11h53.042v-53.046c0-6.075 4.925-11 11-11s11 4.925 11 11v64.046c0 6.075-4.925 11-11 11z"/></g><path d="m416.665 451.008c-6.075 0-11-4.925-11-11v-26.513c0-6.075 4.925-11 11-11s11 4.925 11 11v26.513c0 6.075-4.925 11-11 11zm0-84.459c-6.075 0-11-4.925-11-11v-12.544c0-6.075 4.925-11 11-11s11 4.925 11 11v12.544c0 6.075-4.925 11-11 11zm0-70.08c-6.075 0-11-4.925-11-11v-54.884c0-34.443-12.086-68.111-34.031-94.8-3.859-4.692-3.183-11.624 1.51-15.483 4.691-3.857 11.625-3.184 15.482 1.51 25.175 30.616 39.039 69.246 39.039 108.773v54.884c0 6.075-4.925 11-11 11zm-319.364-79.358c-.557 0-1.121-.042-1.688-.13-6.004-.924-10.122-6.542-9.197-12.546 5.026-32.634 19.38-63.012 41.511-87.85 4.041-4.536 10.994-4.936 15.531-.895 4.536 4.042 4.937 10.995.895 15.531-19.299 21.66-31.815 48.135-36.193 76.563-.838 5.437-5.523 9.327-10.859 9.327zm87.43-119.375c-4.04 0-7.928-2.234-9.853-6.095-2.71-5.437-.501-12.042 4.937-14.752 15.671-7.812 32.39-13.148 49.691-15.859 6.003-.941 11.63 3.163 12.57 9.165s-3.163 11.63-9.165 12.57c-15.069 2.361-29.631 7.008-43.281 13.813-1.575.786-3.25 1.158-4.899 1.158zm136.693-2.807c-1.504 0-3.033-.311-4.495-.966-3.707-1.663-7.521-3.188-11.337-4.535-5.728-2.022-8.733-8.305-6.712-14.034 2.022-5.729 8.305-8.734 14.034-6.712 4.383 1.547 8.763 3.299 13.018 5.208 5.543 2.486 8.021 8.996 5.534 14.538-1.829 4.081-5.841 6.501-10.042 6.501z"/><path d="m156.415 379.849c-6.075 0-11-4.925-11-11v-137.325c0-6.075 4.925-11 11-11s11 4.925 11 11v137.324c0 6.076-4.925 11.001-11 11.001zm199.254-89.545c-6.075 0-11-4.925-11-11v-48.719c0-38.904-26.109-73.843-63.494-84.965-5.823-1.732-9.139-7.857-7.406-13.68 1.732-5.823 7.854-9.137 13.68-7.407 22.343 6.647 42.471 20.582 56.677 39.238 14.748 19.37 22.544 42.473 22.544 66.814v48.719c-.001 6.075-4.926 11-11.001 11zm-186.487-97.421c-1.83 0-3.684-.457-5.391-1.419-5.292-2.983-7.164-9.691-4.181-14.984 14.727-26.129 39.729-45.432 68.593-52.959 5.882-1.535 11.887 1.99 13.42 7.868 1.533 5.879-1.99 11.887-7.868 13.42-23.126 6.03-43.165 21.512-54.98 42.474-2.021 3.584-5.752 5.6-9.593 5.6z"/><path d="m217.411 451.005c-6.075 0-11-4.925-11-11v-84.965c0-6.075 4.925-11 11-11s11 4.925 11 11v84.965c0 6.076-4.925 11-11 11zm77.262-108.855c-6.075 0-11-4.925-11-11v-100.565c0-15.236-12.395-27.631-27.63-27.631-15.236 0-27.631 12.395-27.631 27.631v63.459c0 6.075-4.925 11-11 11s-11-4.925-11-11v-63.459c0-27.367 22.265-49.631 49.631-49.631s49.63 22.264 49.63 49.631v100.565c0 6.075-4.925 11-11 11z"/><path d="m125.966 430.502c-10.262 0-20.271-3.835-27.947-10.811-8.642-7.854-13.599-19.038-13.599-30.684v-129.958c0-6.075 4.925-11 11-11s11 4.925 11 11v129.958c0 5.54 2.271 10.655 6.396 14.403 4.132 3.756 9.449 5.532 14.972 5.005 6.05-.579 11.419 3.854 11.999 9.901.579 6.048-3.854 11.419-9.902 11.999-1.308.125-2.616.187-3.919.187z"/><path d="m325.171 454.395c-22.882 0-41.498-18.616-41.498-41.497v-18.131c0-6.075 4.925-11 11-11s11 4.925 11 11v18.131c0 10.751 8.747 19.497 19.498 19.497s19.498-8.747 19.498-19.497v-66.42c0-6.075 4.925-11 11-11s11 4.925 11 11v66.42c0 22.881-18.616 41.497-41.498 41.497z"/><path d="m485.243 267h-458.486c-6.075 0-11-4.925-11-11s4.925-11 11-11h458.486c6.075 0 11 4.925 11 11s-4.925 11-11 11z" fill="#0496FF"/></g></svg>