<svg id="Capa_1" enable-background="new 0 0 511.998 511.998" height="512" viewBox="0 0 511.998 511.998" width="512" xmlns="http://www.w3.org/2000/svg" fill="#052438"><g><g><path d="m255.999 511.998c-56.515 0-102.494-45.98-102.494-102.499.001-20.995 8.776-42.473 27.615-67.591 26.667-35.557 13.639-81.303 13.504-81.761-1.143-3.885-.062-8.099 2.819-10.944 2.881-2.848 7.09-3.891 10.96-2.702.177.055 20.071 7.95 39.934 29.019 14.541 15.424 31.151 40.524 34.956 76.927 10.078-12.969 16.031-32.781 17.835-41.688.852-4.213 4.083-7.55 8.268-8.532 4.184-.985 8.56.556 11.199 3.949 1.547 1.989 37.897 49.347 37.897 103.329.001 56.515-45.978 102.493-102.493 102.493zm-36.245-232.88c1.259 20.398-1.446 49.872-21.034 75.99-15.62 20.827-23.214 38.618-23.215 54.392 0 44.387 36.109 80.498 80.494 80.498s80.494-36.109 80.494-80.494c0-27.351-11.489-53.58-20.965-70.561-6.742 17.155-18.826 38.265-38.876 45.352-3.436 1.216-7.254.649-10.19-1.515-2.935-2.162-4.609-5.639-4.468-9.282 1.255-32.428-8.512-60.087-29.031-82.21-4.474-4.824-9.009-8.861-13.209-12.17z" fill="#0496FF"/><path d="m255.999 511.998c-106.965 0-193.988-87.027-193.988-193.999.003-39.489 16.854-80.346 53.03-128.58 23.711-31.615 35.797-70.555 35.921-115.735.094-34.235-7.107-59.345-7.18-59.595-1.186-4.066.068-8.459 3.225-11.282 3.157-2.824 7.651-3.591 11.563-1.963.364.152 37.996 16.901 74.154 55.782 21.076 22.663 37.58 48.329 49.056 76.286 12.123 29.533 18.608 61.65 19.348 95.693 39.951-28.754 55.74-105.055 55.912-105.911.848-4.217 4.077-7.556 8.263-8.541 4.188-.983 8.564.556 11.205 3.951.753.969 18.667 24.148 36.737 60.288 16.762 33.522 36.742 84.957 36.742 139.618 0 106.966-87.023 193.988-193.988 193.988zm-123.358-309.38c-32.72 43.627-48.627 81.369-48.63 115.382 0 94.84 77.153 171.998 171.988 171.998s171.988-77.153 171.988-171.987c0-69.824-35.646-135.68-55.642-167.127-10.216 33.114-33.929 90.508-78.707 106.336-3.437 1.216-7.254.648-10.19-1.515-2.935-2.162-4.609-5.639-4.468-9.282 2.644-68.291-18.125-126.875-61.729-174.127-17.038-18.463-34.452-31.525-47.307-39.841 1.628 10.864 3.02 24.768 3.02 40.556 0 49.618-13.943 94.435-40.323 129.607z"/></g></g></svg>