<svg id="Capa_1" enable-background="new 0 0 512 512" height="512" viewBox="0 0 512 512" width="512" xmlns="http://www.w3.org/2000/svg" fill="#E6ECF2"><g><path d="m256 512c-68.38 0-132.667-26.629-181.019-74.98-48.353-48.353-74.981-112.64-74.981-181.02s26.628-132.667 74.981-181.02c48.352-48.351 112.639-74.98 181.019-74.98s132.667 26.629 181.019 74.98c48.353 48.353 74.981 112.64 74.981 181.02s-26.628 132.667-74.981 181.02c-48.352 48.351-112.639 74.98-181.019 74.98zm0-490c-129.028 0-234 104.972-234 234s104.972 234 234 234 234-104.972 234-234-104.972-234-234-234z"/><path d="m219.253 331.194c-2.802 0-5.604-1.063-7.749-3.192l-79.467-78.875c-4.312-4.28-4.338-11.245-.058-15.557 4.279-4.311 11.243-4.338 15.556-.059l71.689 71.155 135.74-135.74c4.296-4.295 11.261-4.295 15.557 0 4.295 4.296 4.295 11.261 0 15.557l-143.489 143.49c-2.148 2.147-4.963 3.221-7.779 3.221z" fill="#0496FF"/></g></svg>