<svg id="Capa_1" enable-background="new 0 0 511.998 511.998" height="512" viewBox="0 0 511.998 511.998" width="512" xmlns="http://www.w3.org/2000/svg" fill="#052438"><g><path d="m454.542 234.831h-187.543v-223.596h-22v223.596h-187.543v22h187.543v244.167h22v-244.167h187.543z" fill="#0496FF"/><path d="m256.093 511.998c-2.335 0-4.671-.742-6.633-2.225l-139.296-105.296c-22.458-16.976-39.241-39.767-49.884-67.74-9.172-24.107-13.822-52.177-13.822-83.433v-179.546c0-3.905 2.07-7.517 5.439-9.491 70.162-41.11 138.747-62.706 203.853-64.185 70.35-1.596 139.297 20.125 204.957 64.566 3.023 2.046 4.834 5.459 4.834 9.109v179.601c0 31.238-4.645 59.292-13.805 83.385-10.63 27.96-27.396 50.744-49.831 67.72l-139.175 105.307c-1.963 1.486-4.3 2.228-6.637 2.228zm-187.636-431.899v173.205c0 61.092 18.496 106.05 54.973 133.624l132.66 100.28 132.541-100.288c36.436-27.569 54.911-72.505 54.911-133.561v-173.717c-117.092-77.018-239.915-76.867-375.085.457z"/></g></svg>