<svg id="Capa_1" enable-background="new 0 0 512 512" height="512" viewBox="0 0 512 512" width="512" xmlns="http://www.w3.org/2000/svg" fill="#052438"><g><path d="m97.15 162.61c-.71 0-1.44-.07-2.15-.21-.7-.14-1.39-.36-2.05-.63-.67-.28-1.31-.62-1.9-1.01-.61-.4-1.17-.86-1.68-1.37-.5-.51-.96-1.07-1.36-1.67s-.74-1.24-1.01-1.9c-.28-.66-.49-1.36-.63-2.06-.14-.71-.22-1.43-.22-2.15 0-.71.08-1.44.22-2.15.14-.7.35-1.39.63-2.06.27-.66.61-1.3 1.01-1.89.4-.61.86-1.17 1.36-1.68.51-.5 1.07-.96 1.68-1.36.59-.4 1.23-.74 1.9-1.02.66-.27 1.35-.48 2.05-.62 3.58-.72 7.38.45 9.93 3 .51.51.97 1.07 1.37 1.68.4.59.74 1.23 1.01 1.89.28.67.49 1.36.63 2.06.14.71.21 1.44.21 2.15 0 .72-.07 1.44-.21 2.15-.14.7-.35 1.4-.63 2.06-.27.66-.61 1.3-1.01 1.9s-.86 1.16-1.37 1.67c-2.05 2.05-4.88 3.22-7.78 3.22z"/><g><g fill="#0496FF"><path d="m153.514 141.608h98.36v22h-98.36z" transform="matrix(.312 -.95 .95 .312 -5.511 297.608)"/><path d="m281.685 141.603h98.34v22h-98.34z" transform="matrix(.312 -.95 .95 .312 82.74 419.421)"/><path d="m409.644 141.589h98.48v22h-98.48z" transform="matrix(.315 -.949 .949 .315 169.573 540.09)"/></g><path d="m501 94.883h-333.724c-5.901-33.224-34.972-58.539-69.865-58.539-39.138 0-70.979 31.841-70.979 70.979v281.272h-15.432c-6.075 0-11 4.925-11 11v65.062c0 6.075 4.925 11 11 11h172.822c6.075 0 11-4.925 11-11v-65.062c0-6.075-4.925-11-11-11h-15.432v-178.27h332.61c6.075 0 11-4.925 11-11v-93.442c0-6.075-4.925-11-11-11zm-105.875 22-23.621 71.442h-104.87l23.447-71.442zm-222.303 336.774h-150.822v-43.062h150.822zm-124.39-65.062v-281.272c0-27.007 21.972-48.979 48.979-48.979s48.979 21.972 48.979 48.979v92.002 189.27zm119.958-271.712h98.538l-23.448 71.442h-75.09zm321.61 71.442h-95.324l23.621-71.442h71.703z"/></g></g></svg>