<svg id="Capa_1" enable-background="new 0 0 504 504" height="512" viewBox="0 0 504 504" width="512" xmlns="http://www.w3.org/2000/svg" fill="#052438"><g id="_Bicycle_Parking"><path d="m330.125 210.092-7.125-49.875v-89.217c0-6.075-4.925-11-11-11h-45c-6.075 0-11 4.925-11 11s4.925 11 11 11h34v70.411l-98 24.5v-34.911h19c6.075 0 11-4.925 11-11s-4.925-11-11-11h-60c-6.075 0-11 4.925-11 11s4.925 11 11 11h19v47.912l-4.018 20.088c-30.87.01-55.982 25.128-55.982 56 0 30.878 25.122 56 56 56s56-25.122 56-56c0-23.244-14.237-43.22-34.447-51.68l2.867-14.336 101.414-25.354 5.511 38.577c-21.732 7.702-37.345 28.454-37.345 52.793 0 30.878 25.121 56 56 56s56-25.122 56-56c0-29.829-23.445-54.281-52.875-55.908zm-119.125 55.908c0 18.748-15.252 34-34 34s-34-15.252-34-34 15.252-34 34-34 34 15.252 34 34zm116 34c-18.748 0-34-15.252-34-34s15.252-34 34-34 34 15.252 34 34-15.252 34-34 34z" fill="#0496FF"/><path d="m402 0h-300c-22.607 0-41 18.393-41 41v300c0 22.607 18.393 41 41 41h109v111c0 6.075 4.925 11 11 11h60c6.075 0 11-4.925 11-11v-111h109c22.607 0 41-18.393 41-41v-300c0-22.607-18.393-41-41-41zm-131 482h-38v-100h38zm150-141c0 10.477-8.523 19-19 19h-300c-10.477 0-19-8.523-19-19v-300c0-10.477 8.523-19 19-19h300c10.477 0 19 8.523 19 19z"/></g></svg>