<svg id="Capa_1" enable-background="new 0 0 504 504" height="512" viewBox="0 0 504 504" width="512" xmlns="http://www.w3.org/2000/svg" fill="#052438"><g id="Railway"><path d="m342 240h-19v-68h19c6.075 0 11-4.925 11-11s-4.925-11-11-11h-19v-19c0-6.075-4.925-11-11-11s-11 4.925-11 11v19h-38v-19c0-6.075-4.925-11-11-11s-11 4.925-11 11v19h-38v-19c0-6.075-4.925-11-11-11s-11 4.925-11 11v19h-19c-6.075 0-11 4.925-11 11s4.925 11 11 11h19v68h-19c-6.075 0-11 4.925-11 11s4.925 11 11 11h19v19c0 6.075 4.925 11 11 11s11-4.925 11-11v-19h38v19c0 6.075 4.925 11 11 11s11-4.925 11-11v-19h38v19c0 6.075 4.925 11 11 11s11-4.925 11-11v-19h19c6.075 0 11-4.925 11-11s-4.925-11-11-11zm-139 0v-68h38v68zm60 0v-68h38v68z" fill="#0496FF"/><path d="m458 206c0-10.951-4.265-21.247-12.008-28.992l-165.001-165c-7.744-7.743-18.04-12.008-28.991-12.008s-21.247 4.265-28.992 12.008l-165 165v.001c-7.743 7.744-12.008 18.04-12.008 28.991s4.265 21.247 12.008 28.992l152.992 152.991v105.017c0 6.075 4.925 11 11 11h60c6.075 0 11-4.925 11-11v-105.017l152.992-152.992c7.743-7.744 12.008-18.04 12.008-28.991zm-225 276v-74.653c5.794 3.037 12.272 4.653 19 4.653s13.206-1.616 19-4.653v74.653zm197.435-262.565-165 165c-3.588 3.588-8.36 5.565-13.435 5.565s-9.847-1.977-13.435-5.565l-165-165c-3.588-3.588-5.565-8.36-5.565-13.435s1.977-9.847 5.565-13.436l165-165c3.588-3.587 8.36-5.564 13.435-5.564s9.847 1.977 13.435 5.565l165 165c3.588 3.589 5.565 8.36 5.565 13.436s-1.977 9.846-5.565 13.434z"/></g></svg>