<svg id="Capa_1" enable-background="new 0 0 512 512" height="512" viewBox="0 0 512 512" width="512" xmlns="http://www.w3.org/2000/svg" fill="#052438"><g id="_High_Voltage"><path d="m396.098 173.68c-19.962-35.263-44.806-79.149-77.311-136.938-12.748-22.663-36.807-36.742-62.787-36.742s-50.038 14.079-62.787 36.742c-32.776 58.269-57.74 102.359-77.798 137.786-68.789 121.493-68.789 121.493-68.66 139.553.004.604.009 1.234.009 1.898 0 39.699 32.297 71.996 71.996 71.996h95.743v113.025c0 6.075 4.925 11 11 11h60.996c6.075 0 11-4.925 11-11v-113.025h95.742c39.699 0 71.996-32.297 71.996-71.996 0-.671.005-1.306.009-1.916.133-18.001.133-18.001-69.148-140.383zm-120.6 316.32h-38.996v-102.025h38.996zm167.748-176.099c-.005.661-.01 1.351-.01 2.078 0 27.568-22.428 49.996-49.996 49.996h-274.481c-27.568 0-49.996-22.428-49.996-49.996 0-.719-.005-1.401-.009-2.055-.084-11.723-.087-12.18 65.805-128.557 20.065-35.439 45.037-79.543 77.829-137.839 8.857-15.746 25.568-25.528 43.612-25.528s34.755 9.782 43.612 25.528c32.521 57.815 57.372 101.715 77.341 136.99 66.383 117.264 66.379 117.719 66.293 129.383z"/><path d="m233.633 326.98c-1.081 0-2.174-.16-3.247-.491-4.609-1.424-7.752-5.686-7.752-10.51v-49.996h-58.128c-3.812 0-7.353-1.974-9.357-5.217s-2.186-7.292-.482-10.703l60.996-121.992c1.863-3.727 5.672-6.081 9.839-6.081h60.996c3.608 0 6.986 1.769 9.041 4.734s2.525 6.75 1.259 10.128l-17.301 46.134h37.499c4.079 0 7.824 2.257 9.728 5.865 1.904 3.607 1.656 7.973-.646 11.341l-83.361 121.992c-2.089 3.058-5.519 4.796-9.084 4.796zm-51.329-82.997h51.33c6.075 0 11 4.925 11 11v25.402l51.522-75.398h-32.532c-3.608 0-6.986-1.769-9.041-4.734s-2.525-6.75-1.259-10.128l17.3-46.134h-38.324z" fill="#0496FF"/></g></svg>