<svg id="Capa_1" enable-background="new 0 0 504 504" height="512" viewBox="0 0 504 504" width="512" xmlns="http://www.w3.org/2000/svg" fill="#E6ECF2"><g id="_No_Smoking"><path d="m282 504h-60c-6.075 0-11-4.925-11-11v-124.5h22v113.5h38v-113.5h22v124.5c0 6.075-4.925 11-11 11z"/><path d="m383 161c0-22.607-18.393-41-41-41h-60c-10.477 0-19-8.523-19-19 0-6.075-4.925-11-11-11s-11 4.925-11 11c0 22.607 18.393 41 41 41h60c10.477 0 19 8.523 19 19v19h-229c-6.075 0-11 4.925-11 11v60c0 6.075 4.925 11 11 11h240c6.075 0 11-4.925 11-11zm-240 41h53v38h-53zm218 38h-143v-38h143z"/><path d="m387.142 325.842c34.498-34.573 55.858-82.259 55.858-134.842 0-105.318-85.682-191-191-191-52.583 0-100.27 21.361-134.843 55.858-.051.05-.107.092-.157.142s-.093.106-.142.157c-34.497 34.573-55.858 82.26-55.858 134.843 0 105.318 85.682 191 191 191 52.583 0 100.269-21.36 134.842-55.858.051-.049.107-.092.158-.142.051-.051.093-.106.142-.158zm33.858-134.842c0 42.643-15.883 81.642-42.035 111.409l-238.374-238.374c29.767-26.152 68.766-42.035 111.409-42.035 93.187 0 169 75.813 169 169zm-338 0c0-42.643 15.883-81.642 42.035-111.409l238.374 238.374c-29.767 26.152-68.766 42.035-111.409 42.035-93.187 0-169-75.813-169-169z" fill="#0496FF"/></g></svg>