<svg id="Capa_1" enable-background="new 0 0 512 512" viewBox="0 0 512 512" xmlns="http://www.w3.org/2000/svg" fill="#052438"><g><path d="m471 94.438h-430c-22.607 0-41 18.393-41 41v241.125c0 22.607 18.393 41 41 41h430c22.607 0 41-18.393 41-41v-241.125c0-22.608-18.393-41-41-41zm-55 22v279.125h-32v-279.125zm-394 260.124v-241.124c0-10.477 8.523-19 19-19h321v279.125h-321c-10.477-.001-19-8.524-19-19.001zm468 0c0 10.477-8.523 19-19 19h-33v-279.124h33c10.477 0 19 8.523 19 19z"/><g fill="#0496FF"><path d="m183.16 272.76c-2.694-7.1-12.726-9.075-17.94-3.57-6.889 6.808-1.91 18.848 7.781 18.779 7.588.219 13.27-8.279 10.159-15.209z"/><path d="m109.16 272.76c-2.76-7.139-12.668-9.052-17.94-3.57-6.89 6.798-1.911 18.856 7.781 18.779 7.585.223 13.277-8.285 10.159-15.209z"/><path d="m197 147.971h-122c-17.093 0-31 13.907-31 31v122c0 17.093 13.907 31 31 31h.172l-9.505 15.236c-3.215 5.154-1.644 11.939 3.511 15.155 1.812 1.13 3.823 1.668 5.812 1.668 3.669 0 7.257-1.836 9.343-5.179l16.77-26.881h69.794l16.77 26.881c2.086 3.343 5.673 5.179 9.343 5.179 1.988 0 4.001-.539 5.812-1.668 5.154-3.216 6.726-10.001 3.511-15.155l-9.505-15.236h.172c17.093 0 31-13.907 31-31v-122c0-17.094-13.907-31-31-31zm9 31v43h-59v-52h50c4.962 0 9 4.037 9 9zm-131-9h50v52h-59v-43c0-4.963 4.038-9 9-9zm122 140h-122c-4.962 0-9-4.038-9-9v-57h140v57c0 4.962-4.038 9-9 9z"/></g></g><g/><g/><g/><g/><g/><g/><g/><g/><g/><g/><g/><g/><g/><g/><g/></svg>