<svg id="Capa_1" enable-background="new 0 0 512 512" viewBox="0 0 512 512" xmlns="http://www.w3.org/2000/svg" fill="#E6ECF2"><g><g fill="#0496FF"><path d="m128.84 310.978h254.32v22h-254.32z"/><path d="m128.84 355.985h254.32v22h-254.32z"/><path d="m128.84 400.993h254.32v22h-254.32z"/><path d="m234.193 88.39c-4.296 4.296-4.296 11.261 0 15.556 4.297 4.296 11.262 4.295 15.557 0 1.669-1.669 3.889-2.588 6.25-2.588s4.581.919 6.25 2.588c2.148 2.148 4.963 3.222 7.778 3.222 2.814 0 5.63-1.074 7.778-3.222 4.296-4.295 4.296-11.26 0-15.556-5.824-5.825-13.568-9.033-21.807-9.033s-15.981 3.208-21.806 9.033z"/><path d="m298.086 79.111c2.815 0 5.63-1.074 7.778-3.222 4.296-4.296 4.296-11.261 0-15.557-27.496-27.495-72.232-27.495-99.729 0-4.296 4.296-4.296 11.261 0 15.557 4.297 4.296 11.26 4.296 15.557 0 18.918-18.918 49.697-18.918 68.615 0 2.149 2.148 4.964 3.222 7.779 3.222z"/><path d="m193.636 47.833c16.658-16.659 38.805-25.833 62.364-25.833s45.706 9.174 62.364 25.833c2.148 2.148 4.963 3.222 7.778 3.222 2.814 0 5.631-1.074 7.778-3.222 4.296-4.296 4.296-11.261 0-15.557-20.813-20.814-48.485-32.276-77.92-32.276s-57.107 11.462-77.921 32.276c-4.296 4.296-4.296 11.261 0 15.557 4.297 4.295 11.26 4.295 15.557 0z"/></g><path d="m501 446h-24.932v-245.991c5.83-.276 10.475-5.076 10.475-10.974v-44c0-6.075-4.925-11-11-11h-439.086c-6.075 0-11 4.925-11 11v44c0 5.898 4.645 10.698 10.475 10.974v245.991h-24.932c-6.075 0-11 4.925-11 11v44c0 6.075 4.925 11 11 11h490c6.075 0 11-4.925 11-11v-44c0-6.075-4.925-11-11-11zm-453.543-289.964h417.086v22h-417.086zm10.475 44h396.137v245.964h-59.909v-158.029c6.075 0 11-4.925 11-11v-44c0-6.075-4.925-11-11-11h-276.32c-6.075 0-11 4.925-11 11v44c0 6.075 4.925 11 11 11v158.029h-59.908zm325.228 65.935h-254.32v-22h254.32zm-11 22v158.029h-232.32v-158.029zm117.84 202.029h-468v-22h468z"/></g><g/><g/><g/><g/><g/><g/><g/><g/><g/><g/><g/><g/><g/><g/><g/></svg>