<svg id="Capa_1" enable-background="new 0 0 512 512" viewBox="0 0 512 512" xmlns="http://www.w3.org/2000/svg" fill="#052438"><g><path d="m371.278 149.871v-19.662c0-6.075-4.925-11-11-11h-52.276v-29.659c0-6.075-4.925-11-11-11h-26.264v-11.858c0-16.256-13.225-29.481-29.481-29.481h-86.635c-16.256 0-29.481 13.225-29.481 29.481v11.858h-26.264c-6.075 0-11 4.925-11 11v29.659h-52.276c-6.075 0-11 4.925-11 11v19.662c0 37.219 27.519 68.125 63.276 73.457v19.478h-52.276c-6.075 0-11 4.925-11 11v19.662c0 37.219 27.519 68.125 63.276 73.457v19.478h-52.276c-6.075 0-11 4.925-11 11v19.662c0 37.219 27.519 68.125 63.276 73.457v30.478c0 6.075 4.925 11 11 11h198.125c6.075 0 11-4.925 11-11v-30.478c35.758-5.332 63.276-36.238 63.276-73.457v-19.662c0-6.075-4.925-11-11-11h-52.276v-19.478c35.758-5.332 63.276-36.238 63.276-73.457v-19.662c0-6.075-4.925-11-11-11h-52.276v-19.478c35.758-5.333 63.276-36.239 63.276-73.457zm-324.677 0v-8.662h41.276v59.764c-23.56-5.067-41.276-26.051-41.276-51.102zm0 123.597v-8.662h41.276v59.764c-23.56-5.067-41.276-26.05-41.276-51.102zm0 123.597v-8.662h41.276v59.764c-23.56-5.067-41.276-26.05-41.276-51.102zm100.54-330.373c0-4.125 3.356-7.481 7.481-7.481h86.635c4.125 0 7.481 3.356 7.481 7.481v11.858h-101.597zm138.861 423.308h-176.125v-389.45h176.125zm63.276-348.792v8.662c0 25.052-17.717 46.035-41.276 51.102v-59.764zm0 247.195v8.662c0 25.052-17.717 46.035-41.276 51.102v-59.764zm0-123.597v8.662c0 25.052-17.717 46.035-41.276 51.102v-59.764z"/><g fill="#0496FF"><path d="m197.939 122.55c-27.704 0-50.242 22.538-50.242 50.242s22.538 50.242 50.242 50.242 50.242-22.538 50.242-50.242-22.538-50.242-50.242-50.242zm0 78.483c-15.573 0-28.242-12.669-28.242-28.242s12.669-28.242 28.242-28.242 28.242 12.669 28.242 28.242-12.669 28.242-28.242 28.242z"/><path d="m197.939 367.517c-27.704 0-50.242 22.538-50.242 50.242s22.539 50.241 50.242 50.241 50.242-22.538 50.242-50.242-22.538-50.241-50.242-50.241zm0 78.483c-15.573 0-28.242-12.669-28.242-28.242s12.669-28.242 28.242-28.242 28.242 12.669 28.242 28.242-12.669 28.242-28.242 28.242z"/><path d="m377.203 79.357c-6.075 0-11 4.925-11 11s4.925 11 11 11c4.874 0 8.839 3.965 8.839 8.839 0 6.075 4.925 11 11 11s11-4.925 11-11c0-17.005-13.835-30.839-30.839-30.839z"/><path d="m377.203 39.679c-6.075 0-11 4.925-11 11s4.925 11 11 11c26.752 0 48.518 21.765 48.518 48.518 0 6.075 4.925 11 11 11s11-4.925 11-11c0-38.884-31.635-70.518-70.518-70.518z"/><path d="m377.203 0c-6.075 0-11 4.925-11 11s4.925 11 11 11c48.632 0 88.196 39.564 88.196 88.196 0 6.075 4.925 11 11 11s11-4.925 11-11c0-60.762-49.434-110.196-110.196-110.196z"/><path d="m197.939 245.033c-27.704 0-50.242 22.538-50.242 50.242s22.538 50.242 50.242 50.242 50.242-22.538 50.242-50.242-22.538-50.242-50.242-50.242zm0 78.484c-15.573 0-28.242-12.669-28.242-28.242s12.669-28.242 28.242-28.242 28.242 12.669 28.242 28.242-12.669 28.242-28.242 28.242z"/></g></g><g/><g/><g/><g/><g/><g/><g/><g/><g/><g/><g/><g/><g/><g/><g/></svg>