<svg id="Capa_1" enable-background="new 0 0 512 512" viewBox="0 0 512 512" xmlns="http://www.w3.org/2000/svg" fill="#E6ECF2"><g><g fill="#0496FF"><path d="m154.691 182.13c-6.075 0-11 4.925-11 11v72.124c0 6.075 4.925 11 11 11s11-4.925 11-11v-72.124c0-6.075-4.924-11-11-11z"/><path d="m206.382 182.13c-6.075 0-11 4.925-11 11v72.124c0 6.075 4.925 11 11 11s11-4.925 11-11v-72.124c0-6.075-4.925-11-11-11z"/><path d="m258.073 182.13c-6.075 0-11 4.925-11 11v72.124c0 6.075 4.925 11 11 11s11-4.925 11-11v-72.124c0-6.075-4.925-11-11-11z"/><path d="m377.984 180.13c-18.196 0-33 14.804-33 33v22h22v-22c0-6.065 4.935-11 11-11s11 4.935 11 11v22h22v-22c0-18.196-14.803-33-33-33z"/><path d="m256 122.79c-8.238 0-15.982 3.208-21.807 9.033-4.296 4.296-4.296 11.261 0 15.556 4.297 4.296 11.262 4.295 15.557 0 1.669-1.669 3.889-2.588 6.25-2.588s4.581.919 6.25 2.588c2.148 2.148 4.963 3.222 7.778 3.222 2.814 0 5.63-1.074 7.778-3.222 4.296-4.295 4.296-11.26 0-15.556-5.824-5.825-13.568-9.033-21.806-9.033z"/><path d="m206.136 103.765c-4.296 4.296-4.296 11.261 0 15.557 4.297 4.296 11.26 4.296 15.557 0 18.918-18.918 49.697-18.918 68.615 0 2.148 2.148 4.963 3.222 7.778 3.222s5.63-1.074 7.778-3.222c4.296-4.296 4.296-11.261 0-15.557-27.496-27.495-72.232-27.495-99.728 0z"/><path d="m178.079 75.708c-4.296 4.296-4.296 11.261 0 15.557 4.297 4.296 11.26 4.296 15.557 0 34.387-34.388 90.342-34.388 124.729 0 2.148 2.148 4.963 3.222 7.778 3.222s5.63-1.074 7.778-3.222c4.296-4.296 4.296-11.261 0-15.557-42.967-42.966-112.875-42.966-155.842 0z"/></g><path d="m507.6 327.824-37.658-28.244-29.671-68.806c-1.738-4.032-5.709-6.644-10.101-6.644h-109.406v-33c0-6.075-4.925-11-11-11h-206.764c-6.075 0-11 4.925-11 11v1h-31c-33.636 0-61 27.365-61 61v93.291c0 6.075 4.925 11 11 11h11v66.547c0 6.075 4.925 11 11 11h34.377c4.91 19.261 22.402 33.548 43.171 33.548s38.26-14.287 43.171-33.548h218.493c4.91 19.261 22.402 33.548 43.171 33.548s38.26-14.287 43.171-33.548h42.446c6.075 0 11-4.925 11-11v-87.345c0-3.462-1.63-6.722-4.4-8.799zm-63.322-32.2h-55.293v-49.494h33.95zm-145.514-93.494v133.291h-184.764v-133.291zm-276.764 133.291v-82.291c0-21.505 17.495-39 39-39h31v121.291zm88.548 111.095c-12.433 0-22.548-10.114-22.548-22.547s10.115-22.547 22.548-22.547 22.548 10.115 22.548 22.547c0 12.433-10.116 22.547-22.548 22.547zm0-67.095c-20.768 0-38.26 14.287-43.171 33.547h-23.377v-55.547h254.764v55.547h-145.045c-4.911-19.26-22.403-33.547-43.171-33.547zm304.834 67.095c-12.433 0-22.548-10.115-22.548-22.548s10.115-22.547 22.548-22.547 22.548 10.115 22.548 22.547c0 12.434-10.116 22.548-22.548 22.548zm43.17-33.547c-4.91-19.261-22.403-33.547-43.171-33.547s-38.26 14.287-43.171 33.547h-51.448v-166.839h46.221v60.494c0 6.075 4.925 11 11 11h79.35l31.9 23.926h-27.102c-6.075 0-11 4.925-11 11s4.925 11 11 11h27.869v49.419z"/></g><g/><g/><g/><g/><g/><g/><g/><g/><g/><g/><g/><g/><g/><g/><g/></svg>