<svg id="Capa_1" enable-background="new 0 0 512 512" viewBox="0 0 512 512" xmlns="http://www.w3.org/2000/svg" fill="#052438"><g><g fill="#0496FF"><path d="m389.481 245.869h-122.481v-33h-22v33h-122.481c-6.075 0-11 4.925-11 11v41.933h22v-30.933h244.963v33h22v-44c-.001-6.076-4.925-11-11.001-11z"/><path d="m207.503 92.043h96.994v22h-96.994z"/><path d="m207.503 146.956h96.994v22h-96.994z"/></g><g><path d="m140.167 223.869h231.666c6.075 0 11-4.925 11-11v-128.337c0-6.075-4.925-11-11-11h-56.336v-25.401c0-6.075-4.925-11-11-11h-37.497v-26.131c0-6.075-4.925-11-11-11s-11 4.925-11 11v26.131h-37.497c-6.075 0-11 4.925-11 11v13.593l-59.138 15.578c-4.831 1.272-8.198 5.641-8.198 10.637v124.93c0 6.075 4.925 11 11 11zm220.666-128.337v106.336h-45.336v-106.336zm-67.336-36.401v142.738h-74.994v-142.738zm-142.33 37.285 45.336-11.942v117.395h-45.336z"/><path d="m214.037 289.868h-183.037c-17.094 0-31 13.907-31 31v116.132c0 17.093 13.906 31 31 31h51.227l-6.288 22h-26.059c-6.075 0-11 4.925-11 11s4.925 11 11 11h145.277c6.075 0 11-4.925 11-11s-4.925-11-11-11h-26.059l-6.288-22h51.227c17.094 0 31-13.907 31-31v-116.132c0-17.093-13.906-31-31-31zm-192.037 31c0-4.962 4.037-9 9-9h183.037c4.963 0 9 4.038 9 9v81.132h-201.037zm124.218 169.132h-47.398l6.288-22h34.822zm67.819-44h-183.037c-4.963 0-9-4.038-9-9v-13h201.037v13c0 4.962-4.037 9-9 9z"/><path d="m481 289.868h-183.037c-17.094 0-31 13.907-31 31v116.132c0 17.093 13.906 31 31 31h51.227l-6.288 22h-26.059c-6.075 0-11 4.925-11 11s4.925 11 11 11h145.277c6.075 0 11-4.925 11-11s-4.925-11-11-11h-26.059l-6.288-22h51.227c17.094 0 31-13.907 31-31v-116.132c0-17.093-13.906-31-31-31zm-192.037 31c0-4.962 4.037-9 9-9h183.037c4.963 0 9 4.038 9 9v81.132h-201.037zm124.217 169.132h-47.398l6.288-22h34.822zm67.82-44h-183.037c-4.963 0-9-4.038-9-9v-13h201.037v13c0 4.962-4.037 9-9 9z"/></g></g><g/><g/><g/><g/><g/><g/><g/><g/><g/><g/><g/><g/><g/><g/><g/></svg>