<svg id="Capa_1" enable-background="new 0 0 511.998 511.998" viewBox="0 0 511.998 511.998" xmlns="http://www.w3.org/2000/svg" fill="#E6ECF2"><g><g><path d="m478.999 0h-446c-6.075 0-11 4.925-11 11v489.998c0 6.075 4.925 11 11 11h446c6.075 0 11-4.925 11-11v-489.998c0-6.075-4.925-11-11-11zm-11 22v66h-424v-66zm-424 467.998v-379.998h424v379.998z"/><path d="m349.151 404h-88.713c-6.075 0-11 4.925-11 11s4.925 11 11 11h88.713c6.075 0 11-4.925 11-11s-4.925-11-11-11z"/><path d="m422.999 356h-162.561c-6.075 0-11 4.925-11 11s4.925 11 11 11h162.561c6.075 0 11-4.925 11-11s-4.925-11-11-11z"/><path d="m422.999 404h-29.848c-6.075 0-11 4.925-11 11s4.925 11 11 11h29.848c6.075 0 11-4.925 11-11s-4.925-11-11-11z"/><path d="m379.829 287v-140c0-6.075-4.925-11-11-11h-225.66c-6.075 0-11 4.925-11 11v140c0 6.075 4.925 11 11 11h225.66c6.075 0 11-4.925 11-11zm-22-129v84.084l-58.862-58.862c-4.296-4.295-11.261-4.296-15.557 0l-40.168 40.167-18.167-18.167c-4.297-4.296-11.26-4.296-15.557 0l-55.35 55.35v-102.572zm-93.089 118h-94.887l47.443-47.444zm31.113 0-37.054-37.054 32.389-32.389 66.641 66.641v2.802z"/></g><g fill="#0496FF"><path d="m204.438 357.11h-11.102l3.473-10.721c1.872-5.779-1.296-11.982-7.075-13.854-5.783-1.874-11.983 1.296-13.854 7.075l-5.669 17.5h-25.03l3.473-10.721c1.872-5.779-1.296-11.982-7.075-13.854-5.785-1.874-11.983 1.296-13.854 7.075l-5.669 17.5h-18.529c-6.075 0-11 4.925-11 11s4.925 11 11 11h11.402l-7.738 23.888h-18.192c-6.075 0-11 4.925-11 11s4.925 11 11 11h11.066l-3.438 10.612c-1.872 5.779 1.296 11.982 7.075 13.854 1.127.365 2.269.538 3.392.538 4.641 0 8.956-2.96 10.463-7.613l5.633-17.391h25.03l-3.438 10.612c-1.872 5.779 1.296 11.982 7.075 13.854 1.127.365 2.269.538 3.392.538 4.641 0 8.956-2.96 10.463-7.613l5.633-17.391h18.563c6.075 0 11-4.925 11-11s-4.925-11-11-11h-11.437l7.738-23.888h18.228c6.075 0 11-4.925 11-11s-4.924-11-10.999-11zm-49.091 45.889h-25.03l7.738-23.888h25.03z"/><path d="m422.999 44h-176.297c-6.075 0-11 4.925-11 11s4.925 11 11 11h176.297c6.075 0 11-4.925 11-11s-4.925-11-11-11z"/><circle cx="189.089" cy="55.001" r="11"/><circle cx="139.044" cy="55.001" r="11"/><circle cx="88.999" cy="55.001" r="11"/></g></g><g/><g/><g/><g/><g/><g/><g/><g/><g/><g/><g/><g/><g/><g/><g/></svg>