<svg id="Capa_1" enable-background="new 0 0 512 512" viewBox="0 0 512 512" xmlns="http://www.w3.org/2000/svg" fill="#E6ECF2"><g><path d="m276.747 330.475c2.174 2.469 5.208 3.729 8.259 3.729 2.582 0 5.176-.904 7.266-2.746 4.559-4.016 5-10.966.984-15.525l-72.089-81.842 82.375-93.12 90.212 100.454c4.058 4.52 11.014 4.894 15.534.835s4.894-11.014.835-15.534l-98.458-109.636c-2.087-2.324-5.062-3.65-8.184-3.65-.014 0-.027 0-.041 0-3.137.012-6.12 1.362-8.198 3.712l-88.744 100.32-88.695-100.318c-2.083-2.356-5.075-3.708-8.22-3.714-.007 0-.014 0-.021 0-3.137 0-6.126 1.34-8.213 3.683l-97.681 109.636c-4.042 4.536-3.641 11.489.896 15.53 2.097 1.869 4.71 2.787 7.313 2.787 3.028 0 6.044-1.244 8.217-3.683l89.436-100.382z" fill="#0496FF"/><path d="m506.793 350.322c-10.845-30.702-38.572-50.955-70.561-51.595-7.99-.209-15.825.805-23.293 2.907v-290.634c0-6.075-4.925-11-11-11h-390.058c-6.075 0-11 4.925-11 11v312.507c0 6.075 4.925 11 11 11h256.317c-3.055 4.877-5.622 10.161-7.615 15.8-10.177 28.8-2.078 58.82 21.087 78.304l94.888 80.766c2.055 1.749 4.592 2.624 7.13 2.624 2.535 0 5.071-.873 7.125-2.62l94.59-80.42c.076-.064.15-.129.224-.194l.002.002c23.243-19.544 31.353-49.602 21.164-78.447zm-483.912-328.322h368.058v289.795c-2.51 1.685-4.939 3.507-7.251 5.493-14.461-12.423-33.054-19.095-52.476-18.562-15.577.311-30.124 5.262-42.215 13.781h-266.116zm448.59 389.929c-.022.018-.043.037-.065.055-1.152.98-65.85 55.985-87.714 74.574l-87.811-74.742c-16.266-13.682-21.707-33.936-14.554-54.179 7.764-21.97 27.517-36.46 50.404-36.918 16.491-.33 32.715 6.548 43.607 19.25 2.09 2.436 5.14 3.839 8.35 3.839s6.26-1.402 8.35-3.839c10.786-12.576 27.155-19.695 43.677-19.248 22.814.457 42.571 14.952 50.334 36.929 7.166 20.288 1.717 40.578-14.578 54.279z"/></g><g/><g/><g/><g/><g/><g/><g/><g/><g/><g/><g/><g/><g/><g/><g/></svg>