<svg id="Capa_1" enable-background="new 0 0 512 512" viewBox="0 0 512 512" xmlns="http://www.w3.org/2000/svg" fill="#E6ECF2"><g><g><g><path d="m429.674 233.655h-98.406c-6.075 0-11-4.925-11-11s4.925-11 11-11h98.406c6.075 0 11 4.925 11 11s-4.925 11-11 11z" fill="#0496FF"/></g><g><path d="m380.471 191.303h-49.203c-6.075 0-11-4.925-11-11s4.925-11 11-11h49.203c6.075 0 11 4.925 11 11s-4.925 11-11 11z" fill="#0496FF"/></g><g><path d="m380.471 315.854h-49.203c-6.075 0-11-4.925-11-11s4.925-11 11-11h49.203c6.075 0 11 4.925 11 11s-4.925 11-11 11z" fill="#0496FF"/></g><g><g><path d="m314.961 483.159c-6.075 0-11-4.925-11-11v-33.83c0-6.075 4.925-11 11-11s11 4.925 11 11v33.83c0 6.075-4.925 11-11 11z"/></g><g><path d="m466.038 22.866h-420.076c-25.343 0-45.962 20.619-45.962 45.963v327.568c0 25.344 20.619 45.962 45.962 45.962h140.078v24.774h-81.147c-6.075 0-11 4.925-11 11s4.925 11 11 11h302.216c6.075 0 11-4.925 11-11s-4.925-11-11-11h-199.069v-24.774h257.999c25.344 0 45.962-20.619 45.962-45.962v-327.568c-.001-25.344-20.619-45.963-45.963-45.963zm-420.076 22h420.076c13.213 0 23.962 10.75 23.962 23.962v269.982h-202.869v-58.998c0-6.075-4.925-11-11-11h-193.805c-6.075 0-11 4.925-11 11v58.998h-49.326v-269.981c0-13.213 10.75-23.963 23.962-23.963zm219.169 293.945h-171.805v-47.998h171.805zm200.907 81.548h-420.076c-13.212 0-23.962-10.749-23.962-23.962v-35.586h468v35.586c0 13.213-10.749 23.962-23.962 23.962z"/><path d="m270.409 379.585h-28.818c-6.075 0-11 4.925-11 11s4.925 11 11 11h28.818c6.075 0 11-4.925 11-11s-4.925-11-11-11z"/><path d="m138.39 129.13c1.755 4.355 6.384 7.166 11.054 6.758 4.705-.411 8.736-3.852 9.81-8.465 1.025-4.404-.83-9.135-4.602-11.638-3.506-2.326-8.141-2.458-11.755-.292-4.595 2.753-6.608 8.68-4.507 13.637z"/><path d="m82.326 233.655h193.805c6.075 0 11-4.925 11-11v-141.373c0-6.075-4.925-11-11-11h-193.805c-6.075 0-11 4.925-11 11v141.373c0 6.075 4.924 11 11 11zm26.399-22 33.63-29.491 23.294 10.53c3.939 1.78 8.557 1.089 11.802-1.769l31.82-28.026 43.619 48.756zm156.406-119.373v100.059l-46.741-52.246c-4.028-4.502-10.935-4.913-15.469-.92l-34.682 30.547-23.279-10.523c-3.932-1.777-8.54-1.092-11.784 1.753l-39.851 34.946v-103.616z"/></g></g></g></g><g/><g/><g/><g/><g/><g/><g/><g/><g/><g/><g/><g/><g/><g/><g/></svg>