<svg id="Capa_1" enable-background="new 0 0 512 512" viewBox="0 0 512 512" xmlns="http://www.w3.org/2000/svg" fill="#E6ECF2"><g><g><path d="m254.74 362.894-45.684-4.83c-6.975-.694-12.233-6.501-12.233-13.51v-4.202c23.994-13.905 40.18-39.85 40.18-69.521v-34.355c4.319-1.485 7.427-5.572 7.427-10.395v-19.732c0-48.378-39.359-87.737-87.738-87.737s-87.737 39.359-87.737 87.737v19.732c0 4.822 3.108 8.909 7.426 10.395v34.355c0 29.925 16.463 56.061 40.797 69.876v3.847c0 7.008-5.259 12.816-12.3 13.517l-45.617 4.823c-33.785 3.572-59.261 31.883-59.261 65.855v72.251c0 2.921 1.162 5.722 3.229 7.786 2.063 2.058 4.858 3.214 7.771 3.214h.021 292c6.067-.011 10.979-4.933 10.979-11v-72.251c0-33.972-25.476-62.284-59.26-65.855zm-163.786-156.545c0-36.248 29.489-65.737 65.737-65.737s65.738 29.49 65.738 65.737v8.732h-14.812c-10.082 0-18.284-8.202-18.284-18.284 0-6.075-4.925-11-11-11s-11 4.925-11 11c0 10.082-8.202 18.284-18.283 18.284h-58.096zm7.426 64.482v-33.75h50.67c11.523 0 21.934-4.865 29.283-12.648 7.35 7.783 17.76 12.648 29.284 12.648h7.386v33.75c0 32.153-26.158 58.312-58.312 58.312s-58.311-26.159-58.311-58.312zm58.311 80.312c6.336 0 12.495-.761 18.412-2.154 1.204 9.768 6.33 18.331 13.838 23.993l-31.941 33.38-31.948-33.387c7.481-5.636 12.593-14.142 13.828-23.848 5.733 1.304 11.689 2.016 17.811 2.016zm135.309 138.878-270-.041v-61.231c0-22.686 17.013-41.591 39.572-43.977l40.247-4.256 47.233 49.362c2.075 2.168 4.946 3.395 7.947 3.395s5.872-1.227 7.947-3.395l47.233-49.362 40.247 4.256c22.56 2.385 39.572 21.291 39.572 43.977v61.272z"/><path d="m455.383 0h-137.524c-31.219 0-56.617 25.398-56.617 56.618v113.206c0 31.219 25.398 56.618 56.617 56.618h40.193v35.61c0 4.363 2.579 8.314 6.573 10.07 1.423.625 2.929.931 4.425.93 2.702 0 5.369-.996 7.439-2.895l47.638-43.715h31.255c31.219 0 56.617-25.398 56.617-56.618v-113.206c.001-31.22-25.397-56.618-56.616-56.618zm34.617 169.824c0 19.088-15.529 34.618-34.617 34.618h-35.537c-2.754 0-5.408 1.033-7.438 2.896l-32.355 29.691v-21.586c0-6.075-4.925-11-11-11h-51.193c-19.088 0-34.617-15.529-34.617-34.618v-113.207c0-19.088 15.529-34.618 34.617-34.618h137.523c19.088 0 34.617 15.529 34.617 34.618z"/></g><g fill="#0496FF"><path d="m456.191 74.443h-16.67l5.2-16.052c1.872-5.779-1.296-11.982-7.075-13.854-5.785-1.872-11.983 1.296-13.854 7.075l-7.396 22.832h-35.253l5.2-16.052c1.872-5.779-1.296-11.982-7.075-13.854-5.784-1.872-11.983 1.296-13.854 7.075l-7.396 22.832h-24.161c-6.075 0-11 4.925-11 11s4.925 11 11 11h17.035l-10.894 33.631h-23.754c-6.075 0-11 4.925-11 11s4.925 11 11 11h16.627l-5.157 15.92c-1.872 5.779 1.296 11.982 7.075 13.854 1.127.365 2.269.538 3.392.538 4.641 0 8.956-2.96 10.463-7.613l7.353-22.699h35.253l-5.157 15.92c-1.872 5.779 1.296 11.982 7.075 13.854 1.127.365 2.269.538 3.392.538 4.641 0 8.956-2.96 10.463-7.613l7.353-22.699h24.204c6.075 0 11-4.925 11-11s-4.925-11-11-11h-17.077l10.894-33.631h23.797c6.075 0 11-4.925 11-11s-4.927-11.002-11.003-11.002zm-57.816 55.631h-35.253l10.894-33.631h35.253z"/><path d="m162.397 273.606c-2.887 2.887-7.584 2.887-10.471 0-4.297-4.296-11.26-4.296-15.557 0-4.296 4.296-4.296 11.261 0 15.557 5.732 5.732 13.263 8.598 20.792 8.598s15.06-2.866 20.792-8.598c4.296-4.296 4.296-11.261 0-15.557s-11.259-4.296-15.556 0z"/></g></g><g/><g/><g/><g/><g/><g/><g/><g/><g/><g/><g/><g/><g/><g/><g/></svg>