<svg id="Capa_1" enable-background="new 0 0 512 512" viewBox="0 0 512 512" xmlns="http://www.w3.org/2000/svg" fill="#052438"><g><path d="m297.079 226.827h56.815c6.075 0 11-4.925 11-11 0 0 0-204.733 0-204.827 0-2.901-1.222-5.795-3.285-7.829-2.026-1.998-4.866-3.171-7.714-3.171h-321.594c-.019 0-.037.003-.056.003-3.332.021-6.534 1.592-8.591 4.211-1.5 1.91-2.353 4.342-2.353 6.786v204.827c0 6.075 4.925 11 11 11h203.568v-22h-192.568v-170.81l142.888 115.349c2.016 1.627 4.462 2.441 6.909 2.441s4.893-.813 6.909-2.441l142.888-115.349v170.81h-45.815v22zm-103.981-100.158-129.659-104.669h259.318z" fill="#0496FF"/><path d="m449.1 285.004c-9.778 0-18.92 3.477-26.127 9.312-2.969-4.529-6.828-8.46-11.436-11.518-6.822-4.53-14.772-6.924-22.987-6.924-9.327 0-18.411 3.605-25.755 9.551-3.059-5.056-7.195-9.432-12.219-12.769-6.824-4.532-14.775-6.927-22.993-6.927-6.981 0-13.638 1.75-19.504 4.849v-78.845c0-22.938-18.661-41.599-41.599-41.599s-41.599 18.661-41.599 41.593l-.07 135.383-14.737-.048c-.052 0-.102 0-.153 0-12.371 0-24.004 4.807-32.77 13.544-8.802 8.774-13.649 20.45-13.649 32.878v44.207c0 52.003 42.308 94.311 94.312 94.311h138.574c52.004 0 94.311-42.308 94.311-94.311v-91.086c0-22.94-18.661-41.601-41.599-41.601zm-163.021 49.453c0 6.075 4.925 11 11 11s11-4.925 11-11v-30.591c0-8.871 9.917-16.138 19.504-16.138 10.868 0 19.276 8.996 19.276 19.688v27.042c0 6.075 4.925 11 11 11s11-4.925 11-11v-20.115c0-8.723 11.1-16.469 19.69-16.469 10.82 0 19.274 8.928 19.275 19.684v16.9c0 6.075 4.925 11 11 11s11-4.925 11-11v-11.328c0-9.118 9.821-16.125 19.274-16.125 10.808 0 19.6 8.792 19.6 19.599v91.086c0 39.872-32.438 72.311-72.311 72.311h-138.573c-39.873 0-72.312-32.439-72.312-72.311v-44.207c0-6.538 2.55-12.681 7.181-17.297 4.612-4.597 10.731-7.125 17.24-7.125h.081l14.797.048-.03 57.602c-.003 6.075 4.919 11.003 11 11.006 6.072 0 10.997-4.921 11-10.994l.111-214.99c0-10.807 8.792-19.599 19.599-19.599s19.599 8.792 19.599 19.599v142.724z"/></g><g/><g/><g/><g/><g/><g/><g/><g/><g/><g/><g/><g/><g/><g/><g/></svg>