<svg id="Layer_1" enable-background="new 0 0 512 512" viewBox="0 0 512 512" xmlns="http://www.w3.org/2000/svg" fill="#052438"><g><path d="m512 256c0-23.809-17.835-43.518-40.843-46.503-6.184-28.654-18.227-56.118-35.155-80.161 9.848-14.936 8.205-35.276-4.928-48.409-7.271-7.272-16.939-11.277-27.224-11.277-7.647 0-14.951 2.218-21.185 6.343-24.039-16.926-51.509-28.961-80.162-35.146-2.983-23.011-22.693-40.847-46.503-40.847s-43.519 17.836-46.503 40.846c-28.653 6.185-56.123 18.22-80.162 35.146-6.234-4.125-13.538-6.343-21.184-6.343-20.695-.428-38.927 17.806-38.5 38.5 0 7.649 2.219 14.955 6.346 21.19-16.923 24.038-28.979 51.51-35.161 80.158-23.005 2.99-40.836 22.697-40.836 46.503 0 23.813 17.84 43.524 40.854 46.504 6.187 28.653 18.218 56.118 35.143 80.155-4.128 6.235-6.347 13.542-6.347 21.191-.428 20.695 17.806 38.927 38.5 38.5 7.647 0 14.952-2.218 21.187-6.344 24.039 16.924 51.515 28.975 80.161 35.157 2.988 23.006 22.695 40.837 46.502 40.837s43.514-17.831 46.502-40.837c28.648-6.182 56.124-18.233 80.161-35.156 6.234 4.126 13.539 6.344 21.187 6.344 10.284 0 19.952-4.005 27.224-11.276 13.133-13.133 14.776-33.472 4.929-48.408 16.925-24.036 28.97-51.515 35.153-80.163 23.009-2.986 40.844-22.695 40.844-46.504zm-135.374 120.626c-11.45 11.451-14.156 28.375-8.137 42.424-20.639 14.246-44.006 24.527-68.377 30.089-5.319-14.664-17.755-25.936-33.112-29.641v-105.82c0-6.075-4.925-11-11-11s-11 4.925-11 11v105.82c-15.356 3.706-27.792 14.977-33.112 29.641-24.37-5.562-47.738-15.843-68.378-30.09 6.018-14.049 3.313-30.974-8.137-42.424-11.452-11.451-28.379-14.156-42.429-8.135-14.248-20.639-24.52-44.003-30.085-68.38 14.664-5.319 25.936-17.755 29.642-33.112h35.178c6.075 0 11-4.925 11-11s-4.925-11-11-11h-35.178c-3.706-15.357-14.978-27.793-29.642-33.112 5.562-24.371 15.845-47.737 30.091-68.377 4.84 2.073 10.018 3.12 15.199 3.12 9.859 0 19.718-3.753 27.224-11.258 11.45-11.451 14.156-28.376 8.137-42.425 20.641-14.248 44.003-24.524 68.378-30.088 5.319 14.664 17.755 25.935 33.111 29.64v89.728c0 6.075 4.925 11 11 11s11-4.925 11-11v-89.725c15.356-3.706 27.792-14.977 33.111-29.64 24.375 5.564 47.736 15.84 68.378 30.088-6.019 14.049-3.313 30.974 8.138 42.425 7.506 7.505 17.364 11.258 27.224 11.258 5.182 0 10.359-1.047 15.199-3.12 14.249 20.643 24.526 44.002 30.089 68.378-14.663 5.32-25.935 17.755-29.64 33.111h-30.902c-6.075 0-11 4.925-11 11s4.925 11 11 11h30.902c3.706 15.356 14.977 27.792 29.64 33.111-5.562 24.37-15.84 47.741-30.086 68.379-14.048-6.02-30.974-3.315-42.426 8.135zm113.374-120.626c0 13.734-11.174 24.908-24.908 24.908s-24.908-11.174-24.908-24.908 11.174-24.908 24.908-24.908 24.908 11.174 24.908 24.908zm-74.482-159.517c6.434 6.433 6.434 16.901 0 23.334-6.434 6.434-16.901 6.434-23.335 0-6.434-6.433-6.434-16.901 0-23.334 3.116-3.117 7.261-4.833 11.668-4.833s8.55 1.716 11.667 4.833zm-159.518-74.483c13.734 0 24.908 11.174 24.908 24.908s-11.174 24.908-24.908 24.908-24.908-11.174-24.908-24.908 11.174-24.908 24.908-24.908zm-159.517 74.482c3.116-3.116 7.26-4.833 11.667-4.833s8.551 1.716 11.667 4.833c6.434 6.433 6.434 16.901 0 23.334-6.432 6.433-16.9 6.434-23.334 0-3.116-3.116-4.833-7.26-4.833-11.667s1.716-8.55 4.833-11.667zm-74.483 159.518c0-13.734 11.174-24.908 24.908-24.908s24.908 11.174 24.908 24.908-11.174 24.908-24.908 24.908-24.908-11.174-24.908-24.908zm74.482 159.517c-3.116-3.116-4.833-7.26-4.833-11.667s1.716-8.551 4.833-11.667c3.216-3.217 7.442-4.825 11.667-4.825s8.451 1.608 11.667 4.825c6.434 6.433 6.434 16.901 0 23.334-3.116 3.116-7.26 4.833-11.667 4.833s-8.55-1.716-11.667-4.833zm159.518 74.483c-13.734 0-24.908-11.174-24.908-24.908s11.174-24.908 24.908-24.908 24.908 11.174 24.908 24.908-11.174 24.908-24.908 24.908zm159.518-74.482c-3.116 3.116-7.26 4.833-11.667 4.833s-8.552-1.716-11.668-4.833c-6.433-6.433-6.433-16.901-.001-23.334 6.434-6.432 16.902-6.434 23.336 0 6.433 6.432 6.433 16.9 0 23.334z"/><path d="m397.914 247.893c0-26.743-20.454-48.794-46.538-51.344v-27.451c0-17.722-14.418-32.141-32.141-32.141-15.019 0-27.661 10.356-31.169 24.301l-96.807 35.04h-43.065c-15.364 0-27.864 12.5-27.864 27.864v47.461c0 12.128 7.791 22.465 18.629 26.284l14.623 68.435c1.084 5.075 5.568 8.701 10.757 8.701h28.849c6.075 0 11-4.925 11-11v-59.877l83.877 30.36c3.509 13.945 16.151 24.302 31.17 24.302 17.723 0 32.141-14.418 32.141-32.141v-27.451c26.084-2.55 46.538-24.601 46.538-51.343zm-193.726-32.878 82.906-30.008v125.772l-82.906-30.008zm-61.858 9.147c0-3.233 2.631-5.864 5.864-5.864h33.994v59.189h-33.994c-3.233 0-5.864-2.631-5.864-5.864zm30.907 128.881-11.444-53.556h20.395v53.557h-8.951zm156.139-26.355c0 5.592-4.549 10.141-10.141 10.141s-10.141-4.549-10.141-10.141v-157.59c0-5.591 4.549-10.141 10.141-10.141s10.141 4.549 10.141 10.141zm22-49.642v-58.307c13.917 2.407 24.538 14.56 24.538 29.154s-10.621 26.745-24.538 29.153z" fill="#0496FF"/></g><g/><g/><g/><g/><g/><g/><g/><g/><g/><g/><g/><g/><g/><g/><g/></svg>