<svg id="Capa_1" enable-background="new 0 0 512 512" viewBox="0 0 512 512" xmlns="http://www.w3.org/2000/svg" fill="#052438"><g><g><path d="m273.886 223.86c-2.878 0-5.77-.678-8.448-2.051l-9.438-4.84-9.438 4.839c-6.236 3.197-13.63 2.625-19.3-1.493-5.67-4.119-8.502-10.977-7.389-17.897l1.685-10.479-7.52-7.485c-4.967-4.944-6.707-12.156-4.541-18.821 2.166-6.664 7.812-11.475 14.735-12.554l10.479-1.634 4.792-9.466c3.166-6.253 9.486-10.138 16.495-10.138s13.329 3.885 16.495 10.138l4.792 9.466 10.479 1.634c6.923 1.08 12.569 5.89 14.735 12.554 2.166 6.665.426 13.877-4.54 18.821l-7.52 7.485 1.685 10.479c1.113 6.921-1.719 13.778-7.389 17.897-3.232 2.35-7.027 3.545-10.849 3.545zm-17.886-30.253c1.722 0 3.444.404 5.019 1.212l8.286 4.249-1.48-9.201c-.562-3.494.592-7.045 3.1-9.542l6.606-6.576-9.206-1.436c-3.498-.545-6.52-2.741-8.119-5.9l-4.206-8.309-4.207 8.309c-1.599 3.159-4.621 5.354-8.119 5.9l-9.206 1.436 6.606 6.576c2.508 2.497 3.662 6.048 3.1 9.542l-1.48 9.201 8.286-4.249c1.576-.808 3.298-1.212 5.02-1.212zm28.377-18.791h.01z" fill="#0496FF"/></g><g><g><path d="m357.491 297h-58.509c-6.075 0-11 4.925-11 11v66.812c0 3.676 1.836 7.11 4.895 9.15 1.834 1.224 3.963 1.85 6.106 1.85 1.429 0 2.864-.278 4.222-.843l25.032-10.407 25.031 10.407c3.396 1.412 7.271 1.034 10.328-1.007 3.059-2.041 4.895-5.474 4.895-9.15v-66.812c0-6.075-4.925-11-11-11zm-11 61.327-14.031-5.834c-2.703-1.124-5.742-1.123-8.446 0l-14.032 5.834v-39.327h36.509z"/><path d="m362.842 0h-213.684c-28.214 0-51.168 22.954-51.168 51.168v409.663c0 28.214 22.954 51.168 51.168 51.168h213.685c28.214 0 51.168-22.954 51.168-51.168v-409.663c0-28.214-22.954-51.168-51.169-51.168zm-242.853 67.665h272.021v340.054h-272.021zm29.169-45.665h213.685c14.202 0 26.067 10.203 28.648 23.665h-270.981c2.581-13.462 14.445-23.665 28.648-23.665zm213.684 468h-213.684c-16.083 0-29.168-13.085-29.168-29.168v-31.113h272.021v31.113c0 16.083-13.085 29.168-29.169 29.168z"/><path d="m274.303 448.859h-36.605c-6.075 0-11 4.925-11 11s4.925 11 11 11h36.605c6.075 0 11-4.925 11-11s-4.925-11-11-11z"/><path d="m357.491 91.245h-202.982c-6.075 0-11 4.925-11 11v153.205c0 6.075 4.925 11 11 11h202.981c6.075 0 11-4.925 11-11v-153.205c.001-6.076-4.924-11-10.999-11zm-11 153.204h-180.982v-131.204h180.981v131.204z"/></g><g><path d="m212.021 338.919h-57.511c-6.075 0-11-4.925-11-11s4.925-11 11-11h57.511c6.075 0 11 4.925 11 11s-4.925 11-11 11z" fill="#0496FF"/></g><g><path d="m255.259 385.813h-100.75c-6.075 0-11-4.925-11-11s4.925-11 11-11h100.75c6.075 0 11 4.925 11 11s-4.925 11-11 11z" fill="#0496FF"/></g></g></g><g/><g/><g/><g/><g/><g/><g/><g/><g/><g/><g/><g/><g/><g/><g/></svg>