<svg id="Capa_1" enable-background="new 0 0 511.985 511.985" viewBox="0 0 511.985 511.985" xmlns="http://www.w3.org/2000/svg" fill="#052438"><g><g><g><g><g><g><path d="m214.077 474.52c-2.822 0-5.644-1.079-7.792-3.236-4.288-4.304-4.275-11.269.029-15.557l11.461-11.419c4.303-4.287 11.268-4.275 15.556.029s4.275 11.269-.029 15.557l-11.461 11.419c-2.147 2.138-4.955 3.207-7.764 3.207z" fill="#0496FF"/></g><g><path d="m278.615 501.152c-6.075 0-11-4.925-11-11v-16.149c0-6.075 4.925-11 11-11s11 4.925 11 11v16.149c0 6.076-4.925 11-11 11z" fill="#0496FF"/></g><g><path d="m203.554 410.222h-16.209c-6.075 0-11-4.925-11-11s4.925-11 11-11h16.209c6.075 0 11 4.925 11 11s-4.925 11-11 11z" fill="#0496FF"/></g></g></g></g><g><path d="m454.685 0h-397.385c-16.216 0-29.408 13.189-29.408 29.402v188.881c0 16.213 13.192 29.402 29.408 29.402h185.287l-1.781 151.535c-.117 9.89 4.927 18.745 13.493 23.688 8.563 4.943 18.753 4.879 27.258-.168l32.638-19.378 57.126 95.505c5.043 8.432 14.018 13.118 23.21 13.118 4.679 0 9.415-1.215 13.717-3.768l40.746-24.192c6.211-3.688 10.608-9.575 12.381-16.578 1.773-7.002.708-14.273-3.001-20.473l-57.034-95.352 32.436-19.257c8.527-5.062 13.461-14.004 13.197-23.918-.263-9.913-5.664-18.579-14.448-23.182l-71.71-37.581h93.868c16.216 0 29.408-13.189 29.408-29.402v-188.88c.002-16.213-13.19-29.402-29.406-29.402zm-32.37 304.753c2.253 1.181 2.638 3.188 2.667 4.279.029 1.092-.249 3.118-2.437 4.416l-41.925 24.892c-2.514 1.493-4.33 3.925-5.048 6.759-.717 2.834-.277 5.838 1.224 8.347l62.699 104.822c.924 1.545.744 3.031.554 3.78s-.739 2.143-2.286 3.061l-40.745 24.191c-2.354 1.397-5.412.622-6.817-1.726l-62.754-104.914c-2.06-3.444-5.708-5.355-9.45-5.355-1.91 0-3.845.498-5.605 1.543l-42.065 24.975c-2.18 1.296-4.088.575-5.031.031s-2.521-1.836-2.491-4.374l1.987-169.105c.029-2.427 1.533-3.685 2.428-4.219.894-.534 2.714-1.26 4.864-.135zm39.778-86.47c0 4.082-3.323 7.402-7.408 7.402h-135.847l-36.543-19.151c-8.378-4.391-18.23-4.118-26.352.73-6.831 4.078-11.394 10.769-12.738 18.421h-185.905c-4.085 0-7.408-3.32-7.408-7.402v-188.881c0-4.082 3.323-7.402 7.408-7.402h397.385c4.085 0 7.408 3.32 7.408 7.402z"/><path d="m321.969 114.123c-9.241-3.396-17.861-7.09-20.745-8.345-1.353-1.177-1.376-2.717-1.252-3.583.156-1.091.972-3.764 5.17-5.023 10.269-3.085 19.907 4.571 20.003 4.648l.44.254c4.881 2.82 11.104 1.478 14.389-3.102 3.698-5.155 2.256-12.344-3.124-15.705-9.387-5.864-22.757-11.749-38.032-7.167-11.172 3.354-19.075 12.158-20.624 22.978-1.457 10.174 2.971 19.958 11.556 25.533.485.314.994.591 1.523.826.448.199 11.107 4.927 23.108 9.337 2.381.875 10.083 4.102 9.232 8.886-.65 3.654-5.474 7.598-12.134 7.598-7.294 0-14.298-2.912-18.735-7.791-4.193-4.607-11.404-4.837-15.88-.411-4.34 4.292-4.062 11.334.124 15.776 8.65 9.177 21.174 14.426 34.491 14.426 16.927 0 31.139-10.826 33.793-25.743 2.004-11.267-3.064-25.954-23.303-33.392z"/><path d="m407.551 74.429h-42.587c-6.075 0-11 4.925-11 11s4.925 11 11 11h10.208v65.828c0 6.075 4.925 11 11 11s11-4.925 11-11v-65.828h10.379c6.075 0 11-4.925 11-11s-4.925-11-11-11z"/><path d="m125.906 74.429h-21.472c-.092 0-.184.001-.276.003-.072.002-.144.005-.216.008-.019.001-.038.001-.057.002-2.825.139-5.37 1.343-7.241 3.219l-.001.001c-.004.004-.008.009-.013.013-.059.059-.117.119-.174.18-.01.011-.021.022-.031.033-.051.054-.102.109-.152.164-.013.014-.025.028-.038.042-.048.054-.096.108-.143.162-.01.011-.019.023-.029.034-.05.058-.099.117-.148.177-.005.006-.011.013-.016.02-.053.065-.105.13-.156.197 0 .001-.001.001-.002.002-1.294 1.666-2.12 3.714-2.28 5.947-.002.021-.003.043-.004.065-.004.066-.009.132-.012.198-.002.044-.003.087-.005.131-.002.046-.004.092-.005.138-.001.057-.002.115-.002.172 0 .03-.001.061-.001.091v76.828c0 6.075 4.925 11 11 11s11-4.925 11-11v-22.431c3.928-.019 8.007-.036 10.472-.036 18.3 0 33.188-14.66 33.188-32.681s-14.886-32.679-33.186-32.679zm0 43.361c-2.448 0-6.477.016-10.382.035-.02-4.028-.036-8.211-.036-10.716 0-2.136-.01-6.454-.021-10.681h10.439c6.064 0 11.188 4.892 11.188 10.681s-5.124 10.681-11.188 10.681z"/><path d="m217.22 74.429c-27.326 0-49.557 22.167-49.557 49.414s22.231 49.414 49.557 49.414 49.557-22.167 49.557-49.414-22.232-49.414-49.557-49.414zm0 76.828c-15.195 0-27.557-12.298-27.557-27.414s12.362-27.414 27.557-27.414 27.557 12.298 27.557 27.414-12.362 27.414-27.557 27.414z"/></g></g></g><g/><g/><g/><g/><g/><g/><g/><g/><g/><g/><g/><g/><g/><g/><g/></svg>