<svg id="Capa_1" enable-background="new 0 0 512 512" viewBox="0 0 512 512" xmlns="http://www.w3.org/2000/svg" fill="#052438"><g><g><g><path d="m109.95 348.235c-3.077 0-6.014-1.289-8.097-3.554l-51.376-55.864h-39.477c-6.075 0-11-4.925-11-11v-183.596c0-6.075 4.925-11 11-11h337.967c6.075 0 11 4.925 11 11v142.363h-22v-131.363h-315.967v161.596h33.306c3.077 0 6.014 1.289 8.097 3.554l46.548 50.614 46.547-50.614c2.083-2.265 5.02-3.554 8.097-3.554h148.545v22h-143.718l-51.375 55.864c-2.083 2.265-5.02 3.554-8.097 3.554z" fill="#0496FF"/></g><g><g><path d="m287.949 227.606h-215.931c-6.075 0-11-4.925-11-11s4.925-11 11-11h215.932c6.075 0 11 4.925 11 11-.001 6.075-4.926 11-11.001 11z"/></g><g><path d="m287.949 166.589h-215.931c-6.075 0-11-4.925-11-11s4.925-11 11-11h215.932c6.075 0 11 4.925 11 11-.001 6.075-4.926 11-11.001 11z"/></g></g></g><path d="m479.966 241.847c-20.657-20.657-48.162-32.034-77.448-32.034-29.287 0-56.792 11.377-77.449 32.034-20.657 20.658-32.034 48.163-32.034 77.449s11.377 56.791 32.034 77.449c20.657 20.655 48.164 32.034 77.449 32.034 29.286 0 56.791-11.377 77.448-32.034 20.657-20.658 32.034-48.163 32.034-77.449s-11.377-56.791-32.034-77.449zm-164.932 77.449c0-47.564 40.05-87.483 87.483-87.483 19.689 0 38.353 6.452 53.612 18.314l-122.781 122.781c-11.862-15.258-18.314-33.922-18.314-53.612zm149.375 61.892c-16.502 16.502-38.482 25.591-61.892 25.591-19.69 0-38.355-6.452-53.613-18.314l122.781-122.781c11.864 15.258 18.315 33.922 18.315 53.612 0 23.409-9.088 45.39-25.591 61.892z"/></g><g/><g/><g/><g/><g/><g/><g/><g/><g/><g/><g/><g/><g/><g/><g/></svg>