<svg id="Layer_1" enable-background="new 0 0 512 512" viewBox="0 0 512 512" xmlns="http://www.w3.org/2000/svg" fill="#E6ECF2"><g><path d="m267.281 0c-111.126 0-201.532 90.407-201.532 201.532 0 45.632 14.875 88.672 43.019 124.467 3.755 4.775 10.671 5.603 15.446 1.849 4.776-3.755 5.604-10.67 1.849-15.446-22.792-28.988-35.81-63.317-37.984-99.869h63.895c.977 31.905 6.179 62.95 15.217 90.393 1.899 5.77 8.118 8.91 13.889 7.007 5.771-1.9 8.907-8.119 7.007-13.889-8.323-25.272-13.143-53.941-14.106-83.511h82.302v36.192c0 6.075 4.925 11 11 11s11-4.925 11-11v-36.192h82.303c-1.568 47.847-13.305 92.852-32.755 124.831-3.157 5.19-1.509 11.958 3.682 15.114 1.786 1.086 3.758 1.604 5.706 1.604 3.713 0 7.337-1.881 9.408-5.285 21.458-35.279 34.363-84.44 35.971-136.263h63.875c-4.103 67.342-45.651 126.996-108.201 153.954-5.579 2.404-8.153 8.876-5.748 14.455 1.793 4.161 5.847 6.649 10.107 6.649 1.453 0 2.93-.29 4.348-.901 74.012-31.897 121.834-104.576 121.834-185.157 0-111.127-90.407-201.534-201.532-201.534zm179.185 190.532h-63.866c-1.466-48.598-12.619-94.061-31.789-129.016-5.682-10.36-11.907-19.492-18.571-27.35 63.728 24.82 109.892 85.035 114.226 156.366zm-244.145-156.366c-6.664 7.857-12.889 16.99-18.571 27.35-19.17 34.955-30.323 80.418-31.789 129.016h-63.866c4.334-71.331 50.498-131.546 114.226-156.366zm-28.349 156.366c1.433-44.913 11.622-86.627 29.067-118.438 14.956-27.272 33.546-44.199 53.241-48.811v167.249zm104.309-167.248c19.695 4.612 38.285 21.539 53.241 48.811 17.445 31.81 27.634 73.524 29.067 118.438h-82.308z"/><path d="m352.728 367.054c0-30.483-23.719-55.514-53.668-57.649v-36.819c0-17.523-14.256-31.779-31.779-31.779-16.187 0-29.577 12.168-31.526 27.836l-112.161 40.597h-49.959c-16.789 0-30.448 13.659-30.448 30.447v54.732c0 13.727 9.133 25.357 21.641 29.144l21.306 80.258c1.28 4.821 5.644 8.178 10.632 8.178h28.757c2.917 0 5.715-1.159 7.778-3.222s3.222-4.861 3.222-7.778v-71.452l99.232 35.918c1.949 15.667 15.339 27.835 31.526 27.835 17.523 0 31.779-14.256 31.779-31.779v-36.819c29.949-2.134 53.668-27.165 53.668-57.648zm-216.205-39.097 98.979-35.826v149.846l-98.979-35.826zm-71.335 11.731c0-4.658 3.79-8.447 8.448-8.447h40.888v71.627h-40.889c-4.658 0-8.448-3.79-8.448-8.448v-54.732zm40.039 150.312-17.29-65.132h26.586v65.132zm171.833-28.479c0 5.393-4.387 9.779-9.779 9.779s-9.779-4.387-9.779-9.779v-188.935c0-5.392 4.387-9.779 9.779-9.779s9.779 4.387 9.779 9.779zm22-58.901v-71.133c17.801 2.063 31.668 17.221 31.668 35.566s-13.867 33.505-31.668 35.567z" fill="#0496FF"/></g><g/><g/><g/><g/><g/><g/><g/><g/><g/><g/><g/><g/><g/><g/><g/></svg>