<svg id="Capa_1" enable-background="new 0 0 512 512" viewBox="0 0 512 512" xmlns="http://www.w3.org/2000/svg" fill="#E6ECF2"><g><g fill="#0496FF"><path d="m234.119 158.141-33.951-22.522c-9.172-6.084-20.893-6.631-30.589-1.427-9.688 5.199-15.707 15.256-15.707 26.246v45.046c0 10.989 6.019 21.047 15.706 26.246 4.426 2.375 9.272 3.553 14.107 3.553 5.757 0 11.497-1.671 16.482-4.979l33.951-22.523c8.342-5.534 13.322-14.812 13.322-24.82.001-10.008-4.979-19.286-13.321-24.82zm-12.162 31.307-33.95 22.522c-3.521 2.336-6.785 1.039-8.025.374-1.235-.663-4.109-2.659-4.109-6.861v-45.046c0-4.202 2.874-6.197 4.109-6.86.707-.38 2.071-.964 3.765-.964 1.279 0 2.746.333 4.26 1.337l33.951 22.522c3.146 2.087 3.484 5.232 3.484 6.487-.001 1.257-.339 4.402-3.485 6.489z"/><path d="m192.798 79.146c-57.295 0-103.908 46.571-103.908 103.814s46.613 103.813 103.908 103.813 103.907-46.57 103.907-103.813-46.612-103.814-103.907-103.814zm0 185.628c-45.164 0-81.908-36.701-81.908-81.813s36.744-81.814 81.908-81.814 81.907 36.702 81.907 81.814-36.743 81.813-81.907 81.813z"/></g><g><path d="m385.595 240.741v-185.429c0-21.49-17.491-38.975-38.99-38.975h-307.615c-21.499 0-38.99 17.484-38.99 38.975v255.297c0 21.49 17.491 38.975 38.99 38.975h219.31c-.894 6.078-1.357 12.294-1.357 18.616 0 70.284 57.209 127.464 127.528 127.464s127.529-57.181 127.529-127.465c0-69.909-56.601-126.853-126.405-127.458zm-346.605 86.842c-9.368 0-16.99-7.615-16.99-16.975v-255.296c0-9.359 7.622-16.975 16.99-16.975h307.614c9.368 0 16.99 7.615 16.99 16.975v187.131c-46.848 7.743-85.163 41.097-100.014 85.14zm345.482 146.08c-58.188 0-105.528-47.311-105.528-105.464s47.34-105.464 105.528-105.464 105.528 47.311 105.528 105.464-47.34 105.464-105.528 105.464z"/><path d="m416.083 359.198c19.471 0 35.311-15.834 35.311-35.297 0-19.462-15.84-35.296-35.311-35.296-19.47 0-35.31 15.834-35.31 35.296 0 3.187.425 6.276 1.221 9.215l-18.794 12.112c-6.481-7.541-16.085-12.326-26.787-12.326-19.471 0-35.311 15.834-35.311 35.297s15.84 35.297 35.311 35.297c10.702 0 20.307-4.784 26.787-12.326l18.794 12.112c-.796 2.939-1.221 6.028-1.221 9.215 0 19.462 15.84 35.296 35.31 35.296 19.471 0 35.311-15.834 35.311-35.296 0-19.463-15.84-35.297-35.311-35.297-8.309 0-15.957 2.884-21.994 7.703l-22.437-14.459c.047-.742.071-1.491.071-2.245s-.024-1.503-.071-2.245l22.437-14.459c6.037 4.819 13.685 7.703 21.994 7.703zm0 40.002c7.34 0 13.311 5.965 13.311 13.297 0 7.331-5.971 13.296-13.311 13.296-7.339 0-13.31-5.965-13.31-13.296 0-7.332 5.971-13.297 13.31-13.297zm-79.67-17.704c-7.34 0-13.311-5.965-13.311-13.297s5.971-13.297 13.311-13.297c7.339 0 13.31 5.965 13.31 13.297s-5.971 13.297-13.31 13.297zm79.67-70.891c7.34 0 13.311 5.965 13.311 13.296 0 7.332-5.971 13.297-13.311 13.297-7.339 0-13.31-5.965-13.31-13.297 0-7.331 5.971-13.296 13.31-13.296z"/></g></g><g/><g/><g/><g/><g/><g/><g/><g/><g/><g/><g/><g/><g/><g/><g/></svg>