<svg id="Capa_1" enable-background="new 0 0 512.02 512.02" viewBox="0 0 512.02 512.02" xmlns="http://www.w3.org/2000/svg" fill="#E6ECF2"><g><g><path d="m268.28 313.303c14.112-2.676 27.147-9.887 36.929-20.713 10.942-12.111 16.969-27.862 16.969-44.353s-6.026-32.243-16.969-44.353c-12.57-13.912-30.506-21.891-49.208-21.891-18.701 0-36.636 7.979-49.205 21.891-10.943 12.11-16.969 27.862-16.969 44.353s6.026 32.243 16.969 44.353c9.781 10.825 22.816 18.036 36.928 20.713-47.225 6.047-83.843 46.497-83.843 95.34v92.082c0 6.075 4.925 11 11 11h170.242c6.075 0 11-4.925 11-11v-92.082c0-48.842-36.618-89.292-83.843-95.34zm-45.16-35.462c-14.999-16.601-14.999-42.608.001-59.208 8.529-9.44 20.207-14.64 32.881-14.64 12.675 0 24.353 5.199 32.883 14.64 14.999 16.6 14.999 42.607 0 59.208-8.529 9.439-20.208 14.639-32.882 14.639-12.675.001-24.353-5.198-32.883-14.639zm107.003 211.884h-148.241v-81.082c0-40.87 33.251-74.121 74.121-74.121s74.121 33.25 74.121 74.121v81.082z" fill="#0496FF"/><g><g><path d="m83.721 276.377c-2.538 0-5.075-.874-7.13-2.623l-59.258-50.439c-15.797-13.288-21.328-33.774-14.385-53.423 7.353-20.807 26.162-34.532 47.92-34.966 11.989-.324 23.489 3.396 32.854 10.425 9.368-7.029 20.894-10.751 32.925-10.424 21.686.434 40.498 14.163 47.849 34.975 6.95 19.677 1.412 40.187-14.454 53.527l-.012-.014c-.194.181-.396.361-.607.54l-58.577 49.802c-2.053 1.747-4.589 2.62-7.125 2.62zm-31.482-119.469c-.284 0-.567.004-.852.012-15.275.305-24.453 11.127-27.695 20.302-3.871 10.954-.935 21.906 7.853 29.298l52.181 44.415c15.604-13.266 51.445-43.738 52.1-44.294.02-.017.039-.034.059-.051 8.806-7.404 11.747-18.379 7.868-29.361-3.242-9.178-12.421-20.004-27.622-20.308-9.345-.265-18.078 3.605-24.059 10.58-2.09 2.437-5.14 3.839-8.35 3.839s-6.26-1.402-8.35-3.839c-5.8-6.762-14.191-10.593-23.133-10.593z"/></g><g><path d="m377.552 287.926c-1.899 0-3.798-.491-5.5-1.474-3.403-1.965-5.5-5.597-5.5-9.526v-142.568c0-3.93 2.097-7.562 5.5-9.526 3.404-1.965 7.596-1.965 11 0l123.468 71.284c3.403 1.965 5.5 5.597 5.5 9.526 0 3.93-2.097 7.562-5.5 9.526l-123.468 71.284c-1.702.983-3.601 1.474-5.5 1.474zm11-134.515v104.462l90.468-52.232z"/></g><g><path d="m316.203 143.11h-120.815c-6.075 0-11-4.925-11-11v-120.815c0-6.075 4.925-11 11-11h120.815c6.075 0 11 4.925 11 11v120.815c0 6.076-4.924 11-11 11zm-109.815-22h98.815v-98.815h-98.815z"/></g></g></g><g><path d="m256 82.7c-8.658.097-14.044-9.961-9.14-17.1 4.691-7.247 16.093-6.156 19.3 1.89 3.096 6.99-2.526 15.385-10.16 15.21z"/></g></g><g/><g/><g/><g/><g/><g/><g/><g/><g/><g/><g/><g/><g/><g/><g/></svg>