<svg id="Capa_1" enable-background="new 0 0 512 512" viewBox="0 0 512 512" xmlns="http://www.w3.org/2000/svg" fill="#052438"><g><g><g><path d="m260.978 158.634h-86.556c-6.075 0-11-4.925-11-11s4.925-11 11-11h86.556c6.075 0 11 4.925 11 11s-4.925 11-11 11z" fill="#0496FF"/></g><g><path d="m337.578 203.387h-163.156c-6.075 0-11-4.925-11-11s4.925-11 11-11h163.156c6.075 0 11 4.925 11 11s-4.925 11-11 11z" fill="#0496FF"/></g><g><path d="m274.303 448.859h-36.605c-6.075 0-11 4.925-11 11s4.925 11 11 11h36.605c6.075 0 11-4.925 11-11s-4.925-11-11-11z"/><path d="m362.842 0h-213.684c-28.214 0-51.168 22.954-51.168 51.168v409.663c0 28.214 22.954 51.168 51.168 51.168h213.685c28.214 0 51.168-22.954 51.168-51.168v-409.663c0-28.214-22.954-51.168-51.169-51.168zm-242.853 67.665h43.433v36.148c0 6.075 4.925 11 11 11h163.156c6.075 0 11-4.925 11-11v-36.148h43.433v340.054h-272.022zm65.433 0h141.156v25.148h-141.156zm-36.264-45.665h213.685c14.202 0 26.067 10.203 28.648 23.665h-270.981c2.581-13.462 14.445-23.665 28.648-23.665zm213.684 468h-213.684c-16.083 0-29.168-13.085-29.168-29.168v-31.113h272.021v31.113c0 16.083-13.085 29.168-29.169 29.168z"/><path d="m337.578 228.175h-163.156c-6.075 0-11 4.925-11 11v90.969c0 6.075 4.925 11 11 11h163.156c6.075 0 11-4.925 11-11v-90.969c0-6.075-4.925-11-11-11zm-11 90.969h-141.156v-68.969h141.156z"/></g><g><path d="m260.978 384.965h-86.556c-6.075 0-11-4.925-11-11s4.925-11 11-11h86.556c6.075 0 11 4.925 11 11s-4.925 11-11 11z" fill="#0496FF"/></g></g></g><g/><g/><g/><g/><g/><g/><g/><g/><g/><g/><g/><g/><g/><g/><g/></svg>