<svg id="Capa_1" enable-background="new 0 0 511.986 511.986" viewBox="0 0 511.986 511.986" xmlns="http://www.w3.org/2000/svg" fill="#E6ECF2"><g><path d="m90.037 189.336c4.673-2.312 8.992-5.387 12.786-9.182 9.14-9.139 14.173-21.29 14.173-34.215 0-26.101-22.404-48.388-48.387-48.388-26.357 0-48.388 22.043-48.388 48.388 0 12.925 5.033 25.076 14.172 34.216 3.794 3.794 8.114 6.869 12.786 9.181-27.365 9.023-47.179 34.815-47.179 65.163v68.228c0 6.075 4.925 11 11 11h115.217c6.075 0 11-4.925 11-11v-68.228c0-30.348-19.814-56.14-47.18-65.163zm-39.885-61.857c4.822-4.83 11.399-7.928 18.457-7.928 14.371 0 26.388 12.029 26.388 26.387 0 14.306-12.13 26.388-26.388 26.388-14.384 0-26.387-12.008-26.388-26.387 0-6.979 3.076-13.597 7.931-18.46zm65.065 184.248h-93.217v-57.228c0-25.7 20.908-46.608 46.608-46.608s46.608 20.908 46.608 46.608v57.228z" fill="#0496FF"/><path d="m197.38 465.022c0 6.075 4.925 11 11 11h77.52c.399.044.803.07 1.214.07h132.806c25.452 0 48.938-14.862 59.835-37.863l27.296-57.62c7.502-15.837 6.398-34.139-2.954-48.959-5.512-8.733-13.358-15.38-22.45-19.393v-265.363c0-6.075-4.925-11-11-11h-262.267c-6.075 0-11 4.925-11 11v87.928l-43.851 47.331c-3.908 4.218-3.908 10.734 0 14.952l43.851 47.33zm-20.785-275.393 39.855-43.018c1.884-2.034 2.931-4.704 2.931-7.476v-81.241h240.267v250.014l-36.388-.11 6.491-27.971c2.948-12.705.704-25.753-6.319-36.743-7.022-10.99-17.921-18.508-30.688-21.17-.739-.154-1.491-.231-2.246-.231h-11.517c-4.251 0-8.121 2.449-9.941 6.291l-21.856 46.138c-5.729 12.095-14.604 22.469-25.66 29.996l-37.797 25.703h-64.347v-89.688c0-2.773-1.047-5.442-2.931-7.476zm42.785 162.181h56.733v102.211h-56.733zm267.789 19.38-27.296 57.62c-7.276 15.358-22.958 25.282-39.953 25.282h-121.806v-107.46l35.788-24.336c14.294-9.732 25.763-23.138 33.165-38.767l19.153-40.636 3.045.789c6.486 1.617 12.007 5.581 15.628 11.248 3.808 5.959 5.025 13.035 3.426 19.924l-9.61 41.415c-.757 3.262.013 6.691 2.092 9.316s5.241 4.16 8.59 4.17l51.728.157c9.951.025 19.061 5.064 24.372 13.478 5.311 8.416 5.938 18.808 1.678 27.8z"/></g><g/><g/><g/><g/><g/><g/><g/><g/><g/><g/><g/><g/><g/><g/><g/></svg>