<svg id="Capa_1" enable-background="new 0 0 512 512" viewBox="0 0 512 512" xmlns="http://www.w3.org/2000/svg" fill="#E6ECF2"><g><path d="m216.122 182.932h-18.755l5.846-18.047c1.872-5.779-1.296-11.982-7.075-13.854-5.785-1.873-11.983 1.296-13.854 7.075l-8.042 24.827h-39.079l5.846-18.047c1.872-5.779-1.296-11.982-7.075-13.854-5.785-1.873-11.983 1.296-13.854 7.075l-8.042 24.827h-26.27c-6.075 0-11 4.925-11 11s4.925 11 11 11h19.142l-12.075 37.277h-25.835c-6.075 0-11 4.925-11 11s4.925 11 11 11h18.709l-5.8 17.907c-1.872 5.779 1.296 11.982 7.075 13.854 1.127.365 2.269.538 3.392.538 4.641 0 8.956-2.96 10.463-7.613l7.996-24.686h39.079l-5.8 17.907c-1.872 5.779 1.296 11.982 7.075 13.854 1.127.365 2.269.538 3.392.538 4.641 0 8.956-2.96 10.463-7.613l7.996-24.686h26.315c6.075 0 11-4.925 11-11s-4.925-11-11-11h-19.189l12.075-37.277h25.881c6.075 0 11-4.925 11-11s-4.925-11.002-11-11.002zm-61.082 59.277h-39.079l12.075-37.277h39.079z" fill="#0496FF"/><g><path d="m445 164.5h-172.878c-6.075 0-11 4.925-11 11s4.925 11 11 11h172.878c6.075 0 11-4.925 11-11s-4.925-11-11-11z"/><path d="m349 260.5h-76.878c-6.075 0-11 4.925-11 11s4.925 11 11 11h76.878c6.075 0 11-4.925 11-11s-4.925-11-11-11z"/><path d="m445 212.5h-172.878c-6.075 0-11 4.925-11 11s4.925 11 11 11h172.878c6.075 0 11-4.925 11-11s-4.925-11-11-11z"/><path d="m457 88.5h-402c-30.327 0-55 24.673-55 55v160c0 30.327 24.673 55 55 55h154.623l37.024 59.791c2.006 3.239 5.544 5.209 9.353 5.209s7.347-1.97 9.353-5.209l37.024-59.791h154.623c30.327 0 55-24.673 55-55v-160c0-30.327-24.673-55-55-55zm33 215c0 18.196-14.804 33-33 33h-160.75c-3.809 0-7.347 1.97-9.353 5.209l-30.897 49.897-30.897-49.897c-2.006-3.239-5.544-5.209-9.353-5.209h-160.75c-18.196 0-33-14.804-33-33v-160c0-18.196 14.804-33 33-33h402c18.196 0 33 14.804 33 33z"/><circle cx="397" cy="271.501" r="11"/><circle cx="445" cy="271.501" r="11"/></g></g><g/><g/><g/><g/><g/><g/><g/><g/><g/><g/><g/><g/><g/><g/><g/></svg>