<svg id="Capa_1" enable-background="new 0 0 512.01 512.01" viewBox="0 0 512.01 512.01" xmlns="http://www.w3.org/2000/svg" fill="#E6ECF2"><g><g><g><path d="m393.185 370.121c-65.52 0-118.824-53.305-118.824-118.825s53.305-118.824 118.824-118.824c65.521 0 118.825 53.304 118.825 118.824s-53.304 118.825-118.825 118.825zm0-215.649c-53.389 0-96.824 43.435-96.824 96.824s43.436 96.825 96.824 96.825c53.39 0 96.825-43.435 96.825-96.825 0-53.389-43.435-96.824-96.825-96.824z"/></g><g><path d="m393.185 296.973c-25.186 0-45.677-20.491-45.677-45.677 0-6.075 4.925-11 11-11s11 4.925 11 11c0 13.056 10.621 23.677 23.677 23.677s23.678-10.622 23.678-23.677c0-6.075 4.925-11 11-11s11 4.925 11 11c0 25.187-20.491 45.677-45.678 45.677z"/></g></g><g><path d="m133.578 223.656c-2.538 0-5.075-.875-7.13-2.624l-99.903-85.035c-24.202-20.356-32.662-51.718-22.029-81.806 11.338-32.085 40.317-53.25 73.824-53.919 20.45-.556 40.065 6.533 55.237 19.73 15.169-13.192 34.765-20.279 55.305-19.729 33.439.669 62.421 21.841 73.758 53.935 10.645 30.135 2.173 61.537-22.108 81.953l-.02-.023c-.411.389-.779.702-1.056.937l-98.754 83.961c-2.053 1.747-4.589 2.62-7.124 2.62zm-53.076-201.413c-.547 0-1.094.007-1.643.022-24.337.486-45.345 15.894-53.6 39.255-7.616 21.551-1.823 43.115 15.496 57.682l92.826 79.011c22.756-19.346 92.2-78.389 92.736-78.845.019-.016.037-.031.056-.047 17.349-14.586 23.151-36.189 15.523-57.787-8.255-23.369-29.268-38.783-53.531-39.269-17.986-.477-34.868 6.977-46.438 20.468-2.09 2.437-5.14 3.839-8.35 3.839s-6.26-1.402-8.35-3.839c-11.218-13.078-27.443-20.49-44.725-20.49z" fill="#0496FF"/></g><path d="m206.202 511.769c24.665 0 47.427-14.403 57.986-36.694l26.287-55.486c7.284-15.377 6.212-33.148-2.869-47.538-9.08-14.39-24.66-23.006-41.67-23.048l-36.006-.109 6.135-26.437c2.864-12.341.685-25.018-6.138-35.693-6.822-10.676-17.409-17.98-29.812-20.566-.738-.154-1.49-.232-2.245-.232h-11.09c-4.251 0-8.121 2.449-9.941 6.291l-21.045 44.429c-5.487 11.581-13.985 21.515-24.577 28.727l-36.242 24.677h-63.664c-6.075 0-11 4.925-11 11v119.611c0 6.075 4.925 11 11 11zm-183.891-119.679h45.003v97.611h-45.003zm248.282 18.081-26.286 55.486c-6.941 14.648-21.898 24.113-38.105 24.113h-116.888v-102.827l34.285-23.345c13.823-9.413 24.915-22.378 32.076-37.494l18.275-38.863 2.682.725c6.123 1.54 11.336 5.29 14.757 10.644 3.607 5.645 4.76 12.349 3.246 18.874l-9.255 39.881c-.758 3.262.013 6.691 2.092 9.316s5.241 4.16 8.59 4.17l49.813.151c9.583.024 18.012 4.685 23.126 12.789 5.114 8.106 5.694 17.72 1.592 26.38z"/></g><g/><g/><g/><g/><g/><g/><g/><g/><g/><g/><g/><g/><g/><g/><g/></svg>