<svg id="Capa_1" enable-background="new 0 0 512 512" viewBox="0 0 512 512" xmlns="http://www.w3.org/2000/svg" fill="#052438"><g><g fill="#0496FF"><path d="m247.272 449.495c1.66 3.708 2.502 7.655 2.502 11.731 0 15.866-12.908 28.774-28.774 28.774s-28.774-12.908-28.774-28.774c0-4.076.842-8.023 2.501-11.732l-20.08-8.987c-2.934 6.554-4.421 13.525-4.421 20.719 0 27.997 22.777 50.774 50.774 50.774s50.774-22.777 50.774-50.774c0-7.195-1.488-14.166-4.422-20.72z"/><path d="m421.773 131.899h-12.489l3.903-12.05c1.872-5.779-1.296-11.982-7.075-13.854-5.785-1.871-11.981 1.296-13.854 7.075l-6.099 18.829h-27.578l3.903-12.05c1.872-5.779-1.296-11.982-7.075-13.854-5.785-1.871-11.982 1.296-13.854 7.075l-6.099 18.829h-19.932c-6.075 0-11 4.925-11 11s4.925 11 11 11h12.806l-8.524 26.316h-19.578c-6.075 0-11 4.925-11 11s4.925 11 11 11h12.452l-3.866 11.935c-1.872 5.779 1.296 11.982 7.075 13.854 1.127.365 2.269.538 3.392.538 4.641 0 8.955-2.96 10.463-7.613l6.062-18.714h27.578l-3.866 11.935c-1.872 5.779 1.296 11.982 7.075 13.854 1.127.365 2.269.538 3.392.538 4.641 0 8.955-2.96 10.463-7.613l6.062-18.714h19.969c6.075 0 11-4.925 11-11s-4.925-11-11-11h-12.843l8.524-26.316h19.615c6.075 0 11-4.925 11-11s-4.926-11-11.002-11zm-51.265 48.317h-27.578l8.524-26.316h27.577z"/></g><path d="m448.002 254.002c23.226-23.225 36.01-54.11 35.998-86.966-.023-67.818-55.218-123.012-123.036-123.036-.016 0-.029 0-.045 0-29.322 0-57.069 10.201-79.203 28.911-8.201-3.363-16.604-6.021-25.179-7.963l3.401-17.937c2.205-11.635-.862-23.54-8.417-32.66-7.554-9.12-18.678-14.351-30.521-14.351s-22.967 5.231-30.521 14.351c-7.554 9.121-10.622 21.025-8.417 32.661l3.405 17.96c-71.428 16.212-124.914 80.212-124.914 156.475v149.843c-18.678 4.68-32.553 21.602-32.553 41.71 0 23.71 19.29 43 43 43h300c23.71 0 43-19.29 43-43 0-20.108-13.876-37.03-32.553-41.71v-82.966c25.093-4.158 48.214-15.981 66.555-34.322zm-87.083-188.002h.037c55.696.02 101.024 45.348 101.044 101.043.01 26.977-10.486 52.334-29.555 71.402-19.059 19.06-44.401 29.555-71.364 29.555-.012 0-.025 0-.037 0-55.696-.02-101.024-45.348-101.044-101.043-.01-26.977 10.486-52.334 29.554-71.402 19.06-19.06 44.401-29.555 71.365-29.555zm-157.241-23.085c-.981-5.177.383-10.473 3.744-14.53 3.361-4.058 8.309-6.385 13.578-6.385s10.217 2.327 13.578 6.384c3.361 4.058 4.726 9.354 3.744 14.53l-3.54 18.672c-4.558-.386-9.153-.586-13.782-.586-4.643 0-9.236.21-13.78.598zm17.322 40.085c15.127 0 29.846 2.391 43.933 7.116-17.459 21.736-26.943 48.559-26.933 76.848.024 67.287 54.359 122.136 121.447 123.015v80.021h-276.894v-148.553c0-76.34 62.107-138.447 138.447-138.447zm171 330c0 11.58-9.421 21-21 21h-300c-11.58 0-21-9.42-21-21s9.42-21 21-21h300c11.579 0 21 9.42 21 21z"/></g><g/><g/><g/><g/><g/><g/><g/><g/><g/><g/><g/><g/><g/><g/><g/></svg>