<svg id="Capa_1" enable-background="new 0 0 511.998 511.998" viewBox="0 0 511.998 511.998" xmlns="http://www.w3.org/2000/svg" fill="#E6ECF2"><g><g><g><path d="m133.973 273.872-29.285-24.926c-24.697-20.772-38.596-51.583-37.181-82.426 2.567-56.798 41.735-90.118 77.534-102.361 36.274-12.406 88.237-10.129 125.278 33.472 2.089 2.46 5.154 3.877 8.381 3.878h.002c3.227 0 6.291-1.416 8.38-3.874 37.12-43.659 89.124-45.896 125.416-33.431 35.819 12.302 74.964 45.715 77.411 102.604 1.341 30.853-12.579 61.638-37.285 82.394l-173.917 147.863-75.095-63.919-14.26 16.753 82.22 69.984c2.055 1.749 4.592 2.624 7.13 2.624 2.535 0 5.071-.873 7.125-2.62l180.998-153.884c29.854-25.079 46.7-62.519 45.064-100.146-2.444-56.834-37.79-103.757-92.244-122.461-25.591-8.789-52.677-10.181-78.328-4.024-23.67 5.681-45.1 17.687-62.612 34.977-17.477-17.263-38.87-29.26-62.508-34.951-25.623-6.168-52.691-4.804-78.275 3.945-54.425 18.613-89.828 65.432-92.392 122.176-1.727 37.63 15.095 75.112 44.948 100.221l29.235 24.884z"/></g></g><g><g><g><g><path d="m159.25 476.402c-4.485 0-8.543-2.732-10.215-6.927l-40.537-101.71-101.424-38.755c-4.373-1.671-7.209-5.926-7.069-10.604s3.226-8.756 7.69-10.163l212.439-66.911c3.885-1.226 8.131-.2 11.031 2.663 2.9 2.862 3.981 7.093 2.808 10.995l-64.186 213.578c-1.347 4.48-5.38 7.619-10.055 7.824-.16.007-.321.01-.482.01zm-114.812-156.666 76.419 29.2c2.872 1.097 5.154 3.347 6.292 6.203l30.646 76.895 49.129-163.475z" fill="#0496FF"/></g></g></g></g></g><g/><g/><g/><g/><g/><g/><g/><g/><g/><g/><g/><g/><g/><g/><g/></svg>