<svg id="Capa_1" enable-background="new 0 0 512 512" viewBox="0 0 512 512" xmlns="http://www.w3.org/2000/svg" fill="#052438"><g><g><g><g><path d="m84.717 281.983c-2.813 0-5.625-1.072-7.773-3.217-4.298-4.293-4.303-11.258-.01-15.557l11.272-11.287c4.294-4.298 11.258-4.303 15.557-.01 4.298 4.293 4.303 11.258.01 15.557l-11.273 11.288c-2.148 2.151-4.965 3.226-7.783 3.226z" fill="#0496FF"/></g><g><path d="m148.19 308.306c-6.075 0-11-4.925-11-11v-15.961c0-6.075 4.925-11 11-11s11 4.925 11 11v15.961c0 6.075-4.924 11-11 11z" fill="#0496FF"/></g><g><path d="m74.368 218.434h-15.942c-6.075 0-11-4.925-11-11s4.925-11 11-11h15.942c6.075 0 11 4.925 11 11s-4.925 11-11 11z" fill="#0496FF"/></g></g><g><path d="m225.823 100.931c-.038-.102-.078-.202-.119-.302-1.932-4.701-6.461-7.735-11.542-7.735h-.016c-5.086.006-9.615 3.054-11.538 7.763-.033.082-.066.164-.097.246l-24.51 64.43c-2.16 5.678.692 12.032 6.37 14.192 5.68 2.161 12.033-.691 14.192-6.37l2.029-5.333h26.933l1.998 5.301c1.661 4.407 5.848 7.124 10.295 7.123 1.289 0 2.6-.229 3.878-.71 5.685-2.143 8.556-8.488 6.413-14.173zm-16.862 44.891 5.159-13.562 5.112 13.562z"/><path d="m186.051 103.893c0-6.075-4.925-11-11-11h-36.047c-6.075 0-11 4.925-11 11s4.925 11 11 11h6.951v54.35c0 6.075 4.925 11 11 11s11-4.925 11-11v-54.35h7.096c6.075 0 11-4.925 11-11z"/><path d="m314.837 122.335c0-16.234-13.359-29.442-29.781-29.442h-18.174c-.092 0-.184.001-.276.003-.072.002-.144.005-.216.008-.019.001-.038.001-.057.002-2.825.139-5.37 1.343-7.241 3.22l-.001.001c-.004.004-.008.009-.013.013-.059.059-.117.119-.174.18-.01.011-.021.022-.031.034-.051.054-.102.109-.152.164-.013.014-.025.028-.038.042-.048.054-.096.108-.143.162-.01.011-.019.023-.029.034-.05.058-.099.117-.148.177-.005.007-.011.013-.016.02-.053.065-.105.13-.156.197 0 .001-.001.001-.002.002-1.294 1.666-2.12 3.715-2.28 5.948-.001.021-.003.042-.004.063-.004.066-.009.133-.012.2-.002.043-.003.087-.005.13-.002.046-.004.092-.005.139-.001.057-.002.115-.002.172 0 .03-.001.06-.001.091v65.35c0 6.075 4.925 11 11 11s11-4.925 11-11v-17.444c2.763-.013 5.441-.022 7.174-.022 16.424-.002 29.783-13.21 29.783-29.444zm-29.781 7.442c-1.721 0-4.365.009-7.106.022-.013-2.879-.023-5.674-.023-7.464 0-1.54-.006-4.413-.014-7.442h7.143c4.218 0 7.781 3.408 7.781 7.442s-3.563 7.442-7.781 7.442z"/><path d="m464.539 272.503c-.82-15.7-13.574-28.34-29.042-28.776-6.854-.193-13.224 1.924-18.377 5.653-5.551-5.142-12.717-7.96-20.309-7.96-.001 0 0 0-.001 0-7.109 0-13.703 2.536-18.879 6.769-5.198-4.234-11.819-6.769-18.961-6.769-2.758 0-5.439.378-7.99 1.085 0-.983.008-54.397-.016-54.853-.103-2.012-.404-3.974-.881-5.867.218-.439.409-.897.571-1.375 4.768-14.088 7.186-28.839 7.186-43.844-.002-75.302-61.199-136.566-136.42-136.566s-136.417 61.264-136.417 136.568 61.197 136.568 136.417 136.568c13.186 0 26.058-1.84 38.367-5.433-2.181 4.563-3.403 9.671-3.403 15.059v62.231c0 19.788 10.754 38.004 28.065 47.54l24.793 13.656v2.307c-5.795.313-10.397 5.11-10.397 10.983v81.521c0 6.075 4.925 11 11 11h114.299c6.075 0 11-4.925 11-11v-81.521c0-6.075-4.925-11-11-11h-.582v-2.597l14.908-9.044c16.105-9.77 26.107-27.554 26.104-46.411-.011-77.474-.011-77.483-.035-77.924zm-243.119-21.367c-63.09 0-114.417-51.395-114.417-114.568s51.328-114.568 114.417-114.568 114.417 51.395 114.417 114.568c0 8.438-.909 16.777-2.71 24.912-3.473-1.572-7.284-2.492-11.276-2.605-16.248-.473-29.957 12.281-30.729 28.481-.021.285-.031.575-.031.869l.032 39.204c-20.125 15.512-44.212 23.707-69.703 23.707zm191.724 238.864h-92.299v-59.521h92.299zm13.915-111.971-20.203 12.256c-3.287 1.994-5.294 5.56-5.294 9.405v8.79h-70.319v-8.79c0-4.009-2.181-7.701-5.693-9.635l-30.486-16.791c-10.288-5.667-16.679-16.5-16.679-28.27v-62.231c0-7.119 5.727-12.917 12.791-12.983v30.787c0 6.075 4.925 11 11 11s11-4.925 11-11l-.083-112.021.001-.041c.155-4.335 3.83-7.744 8.134-7.637 4 .113 7.437 3.555 7.751 7.716.008 3.052-.005 81.586.012 81.935.291 5.805 5.048 10.382 10.86 10.449 5.781.082 10.672-4.4 11.097-10.197.301-4.121 3.824-7.349 8.02-7.349 4.191 0 7.71 3.228 8.011 7.348.42 5.749 5.207 10.198 10.97 10.198 5.763 0 10.55-4.449 10.971-10.198.301-4.121 3.766-7.349 7.889-7.349 2.108 0 4.098.829 5.581 2.312 1.334 1.342 2.15 3.104 2.302 4.968l.126 2.191c.333 5.788 5.101 10.324 10.898 10.368h.085c5.76 0 10.551-4.448 10.97-10.203.308-4.232 3.874-7.439 8.112-7.34 4.012.113 7.341 3.479 7.672 7.729.009 4.096.015 49.506.019 76.984.002 11.217-5.943 21.792-15.515 27.599z"/><path d="m375.67 464.45c1.677 3.957 5.525 6.657 9.838 6.785 4.635.138 8.985-2.779 10.612-7.122 1.629-4.35.297-9.432-3.312-12.38-3.621-2.957-8.809-3.267-12.784-.835-4.566 2.795-6.333 8.641-4.354 13.552z"/></g></g></g><g/><g/><g/><g/><g/><g/><g/><g/><g/><g/><g/><g/><g/><g/><g/></svg>