<svg id="Capa_1" enable-background="new 0 0 511.989 511.989" viewBox="0 0 511.989 511.989" xmlns="http://www.w3.org/2000/svg" fill="#052438"><g><g><g><g><g><g><path d="m417.327 284.277c-2.823 0-5.646-1.08-7.795-3.239-4.286-4.305-4.271-11.27.035-15.557l10.581-10.534c4.304-4.285 11.27-4.271 15.556.035 4.286 4.305 4.271 11.27-.035 15.557l-10.581 10.534c-2.146 2.137-4.954 3.204-7.761 3.204z" fill="#0496FF"/></g><g><path d="m368.328 264.073c-6.075 0-11-4.925-11-11v-14.896c0-6.075 4.925-11 11-11s11 4.925 11 11v14.896c0 6.075-4.925 11-11 11z" fill="#0496FF"/></g><g><path d="m452.588 333.055h-14.964c-6.075 0-11-4.925-11-11s4.925-11 11-11h14.964c6.075 0 11 4.925 11 11s-4.925 11-11 11z" fill="#0496FF"/></g></g></g></g><g><path d="m137.369 256.166h65.405v5.034c0 6.075 4.925 11 11 11s11-4.925 11-11v-5.034h65.405c18.898 0 34.272-15.375 34.272-34.272v-20.412c0-6.075-4.925-11-11-11h-11.331v-52.503c0-38.064-24.222-70.579-58.07-82.957 3.532-5.55 5.579-12.131 5.579-19.181.001-19.763-16.084-35.841-35.854-35.841s-35.854 16.078-35.854 35.84c0 7.05 2.048 13.631 5.579 19.181-33.848 12.378-58.07 44.894-58.07 82.958v52.503h-11.333c-6.075 0-11 4.925-11 11v20.412c0 18.897 15.374 34.272 34.272 34.272zm62.551-220.326c0-7.631 6.215-13.84 13.854-13.84 7.64 0 13.855 6.209 13.855 13.84s-6.215 13.84-13.855 13.84c-7.639 0-13.854-6.209-13.854-13.84zm-52.491 102.139c0-36.558 29.762-66.299 66.345-66.299s66.345 29.741 66.345 66.299v52.503h-132.69zm-22.332 74.502h177.355v9.412c0 6.767-5.505 12.272-12.272 12.272h-152.811c-6.767 0-12.272-5.506-12.272-12.272z"/><path d="m321.16 374.6c2.326-4.072 3.657-8.783 3.657-13.799 0-15.393-12.527-27.916-27.926-27.916h-21.367c-6.075 0-11 4.925-11 11v73.514c0 2.926 1.166 5.731 3.239 7.795 2.062 2.054 4.852 3.205 7.761 3.205h.049s19.637-.087 25.049-.087c16.983 0 30.8-13.812 30.8-30.788 0-9.096-3.967-17.283-10.262-22.924zm-24.269-19.715c3.268 0 5.926 2.654 5.926 5.916s-2.658 5.915-5.926 5.915c-1.602 0-4.646.009-7.946.021h-2.421v-11.852zm3.732 51.427c-2.634 0-8.625.021-14.098.042v-17.608c.839-.003 1.68-.006 2.505-.009h11.593c4.852 0 8.8 3.941 8.8 8.787s-3.948 8.788-8.8 8.788z"/><path d="m142.952 370.9c-8.721-3.215-16.862-6.71-19.681-7.939-1.072-.981-1.087-2.252-.984-2.974.137-.953.857-3.293 4.583-4.414 9.512-2.86 18.504 4.282 18.594 4.355l.575.358c5.539 3.448 12.844 1.343 15.699-4.524 2.442-5.018.756-11.091-3.96-14.075-8.838-5.593-22.065-11.752-37.25-7.181-10.837 3.263-18.508 11.829-20.018 22.356-1.423 9.919 2.881 19.461 11.233 24.902.485.316.995.594 1.524.829.428.191 10.611 4.722 22.075 8.948 4.498 1.657 9.09 4.627 8.49 7.987-.494 2.77-4.355 6.868-11.073 6.868-6.756 0-13.242-2.679-17.384-7.175-3.134-3.401-7.997-4.815-12.256-3.012-7.545 3.194-9.08 12.235-4.141 17.68 8.361 9.22 20.674 14.507 33.782 14.507 16.38 0 30.146-10.516 32.73-25.003 1.958-10.969-2.934-25.266-22.538-32.493z"/><path d="m240.12 332.885c-6.075 0-11 4.925-11 11v50.532c0 3.188-.928 6.914-7.809 10.378-2.144 1.079-4.486 1.604-7.163 1.604h-.029c-2.893-.004-5.396-.706-7.653-2.146-5.378-3.434-6.459-6.289-6.459-9.781v-50.586c0-6.075-4.925-11-11-11s-11 4.925-11 11v50.586c0 11.753 5.592 21.283 16.62 28.324 5.811 3.71 12.359 5.595 19.462 5.604h.06c6.105 0 11.843-1.33 17.053-3.953 12.844-6.464 19.918-17.129 19.918-30.028v-50.532c0-6.077-4.925-11.002-11-11.002z"/><path d="m474.632 467.415-16.363-26.287 14.424-8.557c6.285-3.729 10.068-10.582 9.875-17.885s-4.336-13.945-10.81-17.336l-73.624-38.552v-54.228c0-6.075-4.925-11-11-11h-346.72c-6.075 0-11 4.925-11 11v152.144c0 6.075 4.925 11 11 11h314.353c.211 6.956 4.016 13.358 10.078 16.858 6.311 3.644 14.124 3.598 20.393-.12l14.907-8.843 16.6 26.671c3.784 6.243 10.462 9.71 17.302 9.709 3.499 0 7.041-.908 10.257-2.815l23.41-13.887c4.648-2.758 7.938-7.161 9.265-12.399 1.326-5.237.528-10.674-2.247-15.31-.033-.055-.066-.109-.1-.163zm-108.9-114.711c-6.072 3.626-9.748 10.013-9.831 17.083l-.893 75.927h-303.594v-130.144h324.721v34.26c-3.593-.011-7.18.95-10.403 2.874zm68.876 136.642-21.476-34.504c-2.082-3.344-5.67-5.189-9.349-5.189-1.91 0-3.844.498-5.603 1.542l-21.386 12.687 1.069-90.863 80.788 42.304-21.271 12.618c-2.544 1.51-4.373 3.979-5.074 6.854s-.215 5.909 1.348 8.42l21.229 34.105z"/></g></g></g><g/><g/><g/><g/><g/><g/><g/><g/><g/><g/><g/><g/><g/><g/><g/></svg>