<svg id="Capa_1" enable-background="new 0 0 512 512" viewBox="0 0 512 512" xmlns="http://www.w3.org/2000/svg" fill="#E6ECF2"><g><g><g><g><g><g><g><g><path d="m312.075 45.279c-2.817 0-5.634-1.075-7.782-3.226-12.918-12.931-30.111-20.053-48.412-20.053-18.231 0-35.34 7.076-48.174 19.924-4.294 4.299-11.257 4.302-15.557.008-4.298-4.294-4.302-11.259-.008-15.557 16.991-17.008 39.627-26.375 63.739-26.375 24.182 0 46.902 9.413 63.977 26.505 4.294 4.298 4.29 11.263-.008 15.557-2.148 2.145-4.961 3.217-7.775 3.217z" fill="#0496FF"/></g><g><path d="m276.104 77.354c-2.817 0-5.634-1.075-7.782-3.226-3.296-3.3-7.672-5.116-12.322-5.116-4.625 0-8.972 1.8-12.237 5.069-4.294 4.299-11.259 4.302-15.557.008s-4.301-11.259-.008-15.557c7.422-7.429 17.296-11.521 27.802-11.521h.001c10.531 0 20.435 4.108 27.886 11.567 4.294 4.299 4.29 11.263-.008 15.557-2.149 2.146-4.962 3.219-7.775 3.219z" fill="#0496FF"/></g></g></g></g></g></g></g><g><path d="m217.505 213.883-2.146 13.355c-1.194 7.425 1.843 14.782 7.927 19.201 3.468 2.518 7.536 3.799 11.633 3.799 3.087 0 6.189-.728 9.062-2.201l12.019-6.166 12.02 6.166c6.685 3.429 14.616 2.816 20.695-1.598 6.084-4.419 9.121-11.776 7.927-19.199l-2.146-13.357 9.581-9.542c5.325-5.305 7.189-13.041 4.865-20.19-2.323-7.146-8.378-12.305-15.8-13.462l-13.347-2.082-6.106-12.065.001.001c-3.395-6.709-10.173-10.876-17.689-10.876s-14.295 4.167-17.688 10.875l-6.106 12.065-13.347 2.082c-7.422 1.157-13.477 6.315-15.8 13.462-2.324 7.149-.46 14.886 4.866 20.19zm23.664-24.409c3.499-.545 6.521-2.742 8.119-5.901l6.712-13.263 6.712 13.263c1.599 3.159 4.62 5.356 8.119 5.901l14.694 2.293-10.547 10.504c-2.507 2.496-3.66 6.046-3.099 9.539l2.361 14.693-13.221-6.782c-1.575-.809-3.298-1.213-5.021-1.213s-3.445.404-5.021 1.213l-13.221 6.782 2.361-14.693c.562-3.493-.592-7.043-3.099-9.539l-10.547-10.504z"/><path d="m341.549 213.882-2.147 13.358c-1.193 7.425 1.845 14.781 7.929 19.199 3.467 2.519 7.535 3.799 11.632 3.799 3.087 0 6.189-.728 9.062-2.201l12.021-6.166 12.019 6.166c6.686 3.429 14.614 2.816 20.694-1.598 6.084-4.418 9.122-11.774 7.929-19.2l-2.147-13.357 9.58-9.54c5.326-5.305 7.191-13.041 4.867-20.19-2.323-7.147-8.378-12.306-15.8-13.463l-13.348-2.082-6.104-12.065c-.001 0-.001 0-.001-.001-3.395-6.707-10.173-10.874-17.688-10.874-7.517 0-14.295 4.167-17.69 10.875l-6.104 12.065-13.348 2.082c-7.422 1.157-13.477 6.315-15.8 13.463-2.324 7.149-.459 14.886 4.867 20.189zm23.664-24.408c3.499-.545 6.521-2.742 8.12-5.901l6.711-13.263 6.71 13.263c1.6 3.159 4.621 5.356 8.12 5.901l14.694 2.292-10.547 10.505c-2.508 2.496-3.66 6.047-3.099 9.54l2.362 14.692-13.22-6.782c-3.152-1.617-6.892-1.617-10.042 0l-13.222 6.782 2.362-14.692c.562-3.493-.591-7.044-3.099-9.54l-10.547-10.505z"/><path d="m93.462 213.882-2.147 13.358c-1.193 7.425 1.845 14.781 7.929 19.199 3.467 2.519 7.535 3.799 11.632 3.799 3.087 0 6.189-.728 9.062-2.201l12.019-6.166 12.02 6.166c6.686 3.429 14.614 2.816 20.694-1.598 6.084-4.418 9.122-11.774 7.929-19.2l-2.147-13.357 9.58-9.54c5.326-5.305 7.191-13.041 4.867-20.19-2.323-7.147-8.378-12.306-15.8-13.463l-13.348-2.082-6.104-12.065c-.001 0-.001 0-.001-.001-3.395-6.707-10.173-10.874-17.689-10.874s-14.294 4.167-17.689 10.875l-6.104 12.065-13.348 2.082c-7.422 1.157-13.477 6.315-15.8 13.463-2.324 7.149-.459 14.886 4.867 20.189zm23.664-24.408c3.499-.545 6.521-2.742 8.12-5.901l6.711-13.263 6.71 13.263c1.6 3.159 4.621 5.356 8.12 5.901l14.694 2.292-10.547 10.505c-2.508 2.496-3.66 6.047-3.099 9.54l2.362 14.692-13.222-6.782c-1.575-.809-3.298-1.213-5.021-1.213s-3.445.404-5.021 1.213l-13.22 6.782 2.362-14.692c.562-3.493-.591-7.044-3.099-9.54l-10.547-10.505z"/><path d="m462.26 98.303h-412.52c-6.075 0-11 4.925-11 11v177.301c0 6.075 4.925 11 11 11h238.76l.034 39.16c-18.88.18-34.184 15.622-34.184 34.578v61.182c0 19.522 10.613 37.494 27.698 46.901l24.289 13.374v8.201c0 6.075 4.925 11 11 11h90.801c6.075 0 11-4.925 11-11v-8.509l14.572-8.837c15.896-9.638 25.768-27.183 25.766-45.788-.012-76.167-.012-76.176-.035-76.621-.812-15.53-13.433-28.034-28.74-28.467-6.737-.174-12.987 1.872-18.066 5.507-5.478-5.023-12.525-7.774-19.989-7.774-6.984 0-13.464 2.471-18.569 6.604-5.126-4.134-11.634-6.604-18.648-6.604-2.646 0-5.222.352-7.678 1.012 0-.403.005-26.793.006-33.919h114.503c6.075 0 11-4.925 11-11v-177.301c0-6.075-4.925-11-11-11zm-106.833 254.208c4.027 0 7.409 3.099 7.698 7.054.421 5.748 5.207 10.197 10.971 10.197s10.55-4.449 10.971-10.197c.289-3.955 3.618-7.054 7.578-7.054 2.026 0 3.938.796 5.362 2.22 1.281 1.289 2.064 2.979 2.211 4.768l.124 2.151c.333 5.788 5.102 10.323 10.898 10.367h.085c5.759 0 10.551-4.448 10.969-10.202.295-4.062 3.756-7.155 7.793-7.044 3.856.108 7.056 3.347 7.369 7.413.009 3.955.015 46.935.02 75.686.001 10.963-5.812 21.298-15.173 26.974l-19.869 12.05c-3.288 1.994-5.296 5.56-5.296 9.405v3.701h-68.801v-3.702c0-4.01-2.182-7.702-5.694-9.636l-29.983-16.509c-10.061-5.539-16.31-16.127-16.31-27.63v-61.182c0-6.835 5.454-12.415 12.218-12.576v30.079c0 6.075 4.925 11 11 11s11-4.925 11-11l-.081-106.191c.001-.014.001-.026.002-.04.146-4.087 3.53-7.332 7.596-7.332.072 0 .146.001.218.004 3.839.107 7.14 3.409 7.448 7.412.008 2.957-.006 76.273.013 76.626.297 5.803 5.055 10.374 10.864 10.438.041.001.082.001.123.001 5.755 0 10.548-4.443 10.969-10.197.288-3.956 3.674-7.054 7.707-7.054zm95.833-76.907h-104.49c-3.333-12.556-14.582-21.936-27.844-22.31-.284-.009-.566-.013-.849-.013-13.694 0-25.41 9.462-28.684 22.322h-228.653v-155.3h390.52z"/></g></g><g/><g/><g/><g/><g/><g/><g/><g/><g/><g/><g/><g/><g/><g/><g/></svg>