<svg id="Capa_1" enable-background="new 0 0 512 512" viewBox="0 0 512 512" xmlns="http://www.w3.org/2000/svg" fill="#E6ECF2"><g><path d="m245.908 303.154c-1.726 0-3.451-.405-5.029-1.217-4.309-2.215-42.415-22.174-53.31-40.697-5.627-9.568-7.922-17.723-7.922-28.148 0-24.925 17.669-43.016 42.013-43.016 11.064 0 18.874 3.644 24.256 8.003 5.39-4.358 13.21-8.003 24.292-8.003 24.357 0 42.036 18.091 42.036 43.016 0 10.44-2.292 18.596-7.91 28.147-10.975 18.662-49.111 38.51-53.424 40.712-1.571.802-3.287 1.203-5.002 1.203zm-24.248-91.078c-9.232 0-20.013 5.504-20.013 21.016 0 6.496 1.233 10.784 4.885 16.995 4.924 8.372 24.49 21.394 39.389 29.608 14.269-7.823 34.252-20.772 39.449-29.608 3.644-6.195 4.874-10.483 4.874-16.995 0-15.512-10.793-21.016-20.036-21.016-8.889 0-12.638 4.311-14.217 7.927-1.75 4.007-5.708 6.597-10.081 6.597-.001 0-.001 0-.002 0-4.374-.001-8.331-2.593-10.08-6.602-1.577-3.614-5.314-7.922-14.168-7.922z" fill="#0496FF"/><path d="m486.984 18.032h-104.21c-13.793 0-25.016 11.252-25.016 25.083v15.601h-290.969c-25.673 0-46.56 20.983-46.56 46.776v292.539h-9.229c-6.075 0-11 4.925-11 11v73.937c0 6.075 4.925 11 11 11h480.212c6.075 0 11-4.925 11-11v-73.937c0-6.075-4.925-11-11-11h-9.229v-193.43c6.113 1.267 12.519.192 18.032-3.181 7.505-4.592 11.985-12.597 11.985-21.411v-136.894c0-13.831-11.222-25.083-25.016-25.083zm-129.226 314.942h-222.433v-172.717h222.433zm122.454 138.994h-458.212v-51.937h176.319v8.293c0 6.075 4.925 11 11 11h83.574c6.075 0 11-4.925 11-11v-8.293h176.319zm-187.318-73.937c-6.075 0-11 4.925-11 11v8.293h-61.574v-8.293c0-6.075-4.925-11-11-11h-167.091v-292.539c0-13.662 11.018-24.776 24.56-24.776h290.97v57.541h-233.434c-6.075 0-11 4.925-11 11v194.717c0 6.075 4.925 11 11 11h244.433c6.075 0 11-4.925 11-11v-139.042c.996.123 1.998.184 3.001.184 3.877 0 7.768-.916 11.374-2.76l39.396-20.134c.844-.434 1.853-.433 2.697-.001l23.757 12.142v203.668zm197.106-218.022c0 1.521-.919 2.311-1.468 2.646-.647.394-1.675.735-2.896.111l-39.398-20.136c-3.556-1.816-7.457-2.725-11.358-2.725-3.902 0-7.804.908-11.36 2.726l-39.397 20.135c-1.221.627-2.248.284-2.896-.111-.548-.336-1.468-1.126-1.468-2.646v-136.894c0-1.7 1.353-3.083 3.016-3.083h104.21c1.663 0 3.016 1.383 3.016 3.083v136.894z"/></g><g/><g/><g/><g/><g/><g/><g/><g/><g/><g/><g/><g/><g/><g/><g/></svg>