<svg id="Capa_1" enable-background="new 0 0 511.987 511.987" viewBox="0 0 511.987 511.987" xmlns="http://www.w3.org/2000/svg" fill="#E6ECF2"><g><g><g><g><path d="m110 358.389c-3.077 0-6.014-1.289-8.097-3.554l-51.403-55.893h-39.5c-6.075 0-11-4.925-11-11v-183.69c0-6.075 4.925-11 11-11h338.139c6.075 0 11 4.925 11 11v141.918c0 6.075-4.925 11-11 11s-11-4.925-11-11v-130.918h-316.139v161.689h33.328c3.077 0 6.014 1.289 8.097 3.554l46.575 50.644 46.575-50.644c2.083-2.265 5.02-3.554 8.097-3.554h63.012c6.075 0 11 4.925 11 11s-4.925 11-11 11h-58.184l-51.403 55.894c-2.083 2.265-5.02 3.554-8.097 3.554z" fill="#0496FF"/></g><g><g><path d="m288.09 237.7h-216.041c-6.075 0-11-4.925-11-11s4.925-11 11-11h216.041c6.075 0 11 4.925 11 11s-4.925 11-11 11z"/></g><g><path d="m288.09 176.651h-216.041c-6.075 0-11-4.925-11-11s4.925-11 11-11h216.041c6.075 0 11 4.925 11 11s-4.925 11-11 11z"/></g></g></g></g><path d="m422.823 418.735c24.691 0 47.477-14.418 58.047-36.733l26.319-55.556c7.293-15.392 6.22-33.181-2.87-47.585s-24.686-23.029-41.712-23.071l-36.069-.109 6.147-26.487c2.867-12.354.685-25.042-6.144-35.729-6.828-10.686-17.426-17.998-29.841-20.586-.738-.154-1.49-.232-2.245-.232h-11.105c-4.251 0-8.121 2.449-9.941 6.291l-21.073 44.486c-5.493 11.598-14.004 21.546-24.611 28.769l-36.291 24.71h-63.75c-6.075 0-11 4.925-11 11v119.764c0 6.075 4.925 11 11 11zm-184.139-119.832h45.088v97.764h-45.088zm248.625 18.124-26.32 55.556c-6.95 14.672-21.931 24.152-38.165 24.152h-117.052v-102.979l34.335-23.378c13.841-9.424 24.944-22.404 32.112-37.536l18.25-39.012 2.749.818c6.135 1.542 11.357 5.299 14.785 10.664 3.614 5.656 4.769 12.372 3.252 18.91l-9.267 39.932c-.758 3.262.013 6.691 2.092 9.316s5.241 4.16 8.59 4.17l49.877.151c9.6.024 18.044 4.693 23.167 12.811s5.704 17.749 1.595 26.425z"/></g><g/><g/><g/><g/><g/><g/><g/><g/><g/><g/><g/><g/><g/><g/><g/></svg>