<svg id="Capa_1" enable-background="new 0 0 512 512" viewBox="0 0 512 512" xmlns="http://www.w3.org/2000/svg" fill="#052438"><g><path d="m366.719 189.391h-.022l-51.712.021v-33.882c0-19.629-15.719-36.028-35.04-36.559-9.805-.267-19.103 3.351-26.136 10.193-7.038 6.848-10.914 16.026-10.914 25.845v53.733h-17.285c-.235-5.868-5.065-10.553-10.99-10.553h-102.987c-6.075 0-11 4.925-11 11v120.984c0 6.075 4.925 11 11 11h102.988c6.075 0 11-4.925 11-11v-.818h3.636l10.273 16.214c10.949 17.281 29.69 27.597 50.142 27.596h.007l71.622-.009c23.634-.003 43.21-18.493 44.566-42.096l5.425-94.453c.702-12.221-3.716-24.333-12.122-33.231-8.398-8.889-20.224-13.985-32.451-13.985zm-163.098 129.784h-80.988v-98.985h80.988zm185.708-83.828-5.425 94.453c-.688 11.975-10.617 21.356-22.604 21.357l-71.623.009h-.004c-12.869 0-24.666-6.493-31.557-17.37l-13.513-21.327c-2.017-3.183-5.523-5.112-9.292-5.112h-9.688v-76.613h28.275c6.075 0 11-4.925 11-11v-64.734c0-3.828 1.511-7.406 4.255-10.076 2.74-2.665 6.344-4.079 10.192-3.97 7.522.206 13.643 6.74 13.643 14.566v33.914h-6.426c-6.075 0-11 4.925-11 11s4.925 11 11 11l80.148-.054h.012c6.292 0 12.137 2.52 16.459 7.095 4.325 4.581 6.509 10.57 6.148 16.862z"/><path d="m152.97 291.67c1.767 4.224 6.099 7.028 10.696 6.784 4.597-.245 8.636-3.39 9.982-7.795 1.318-4.314-.227-9.181-3.824-11.919-3.716-2.828-8.911-3.009-12.803-.42-4.33 2.879-6.011 8.558-4.051 13.35z"/><path d="m476.496 196.91 2.652-63.002c.18-4.262-2.121-8.243-5.903-10.216l-55.849-29.129-29.119-55.862c-1.972-3.783-5.97-6.097-10.217-5.905l-62.984 2.651-53.184-33.736c-3.597-2.281-8.188-2.281-11.784 0l-53.185 33.735-62.983-2.65c-4.26-.189-8.245 2.121-10.217 5.905l-29.119 55.862-55.848 29.127c-3.782 1.973-6.083 5.953-5.904 10.216l2.651 63.004-33.728 53.2c-2.28 3.596-2.28 8.184 0 11.779l33.728 53.2-2.652 63.002c-.18 4.262 2.121 8.243 5.903 10.216l55.849 29.129 29.119 55.862c1.972 3.783 5.956 6.087 10.217 5.905l62.984-2.651 53.185 33.736c1.798 1.142 3.845 1.712 5.892 1.712s4.094-.57 5.892-1.711l53.185-33.735 62.983 2.65c4.255.192 8.244-2.122 10.217-5.905l29.119-55.862 55.848-29.127c3.782-1.973 6.083-5.953 5.904-10.216l-2.651-63.004 33.728-53.2c2.28-3.596 2.28-8.184 0-11.779zm-20.426 109.311c-1.201 1.895-1.794 4.111-1.7 6.353l2.502 59.462-52.719 27.495c-1.998 1.041-3.627 2.671-4.668 4.668l-27.485 52.731-59.441-2.502c-2.239-.104-4.459.5-6.354 1.701l-50.205 31.845-50.203-31.845c-1.765-1.119-3.809-1.711-5.892-1.711-.154 0-.308.003-.462.01l-59.443 2.502-27.487-52.731c-1.041-1.997-2.67-3.627-4.667-4.668l-52.719-27.496 2.503-59.461c.094-2.241-.499-4.458-1.7-6.353l-31.84-50.221 31.839-50.221c1.201-1.895 1.794-4.111 1.7-6.353l-2.502-59.462 52.719-27.495c1.998-1.041 3.627-2.671 4.668-4.668l27.486-52.731 59.441 2.502c2.238.097 4.459-.499 6.354-1.701l50.205-31.845 50.203 31.845c1.895 1.201 4.11 1.809 6.354 1.701l59.443-2.502 27.487 52.731c1.041 1.997 2.67 3.627 4.667 4.668l52.719 27.496-2.503 59.461c-.094 2.241.499 4.458 1.7 6.353l31.84 50.221z"/><g><path d="m298.706 107.608c-2.083 0-4.127-.592-5.892-1.711l-36.814-23.352-36.814 23.353c-1.896 1.202-4.107 1.796-6.355 1.701l-50.529-2.128c-6.07-.256-10.783-5.384-10.527-11.453s5.4-10.773 11.453-10.527l47.085 1.982 39.795-25.243c3.597-2.281 8.188-2.281 11.784 0l39.795 25.243 47.085-1.982c6.075-.257 11.197 4.457 11.453 10.527.256 6.069-4.458 11.197-10.527 11.453l-50.53 2.128c-.153.006-.308.009-.462.009z" fill="#0496FF"/></g><g><path d="m256 453.481c-2.047 0-4.094-.57-5.892-1.711l-39.795-25.243-47.085 1.982c-6.073.273-11.198-4.458-11.453-10.527-.256-6.069 4.458-11.197 10.527-11.453l50.53-2.128c2.24-.103 4.459.5 6.355 1.701l36.813 23.353 36.814-23.353c1.896-1.201 4.114-1.803 6.355-1.701l50.529 2.128c6.07.256 10.783 5.384 10.527 11.453-.256 6.071-5.393 10.784-11.453 10.527l-47.085-1.982-39.795 25.243c-1.798 1.141-3.845 1.711-5.892 1.711z" fill="#0496FF"/></g></g><g/><g/><g/><g/><g/><g/><g/><g/><g/><g/><g/><g/><g/><g/><g/></svg>