<svg id="Layer_1" enable-background="new 0 0 512.002 512.002" viewBox="0 0 512.002 512.002" xmlns="http://www.w3.org/2000/svg" fill="#052438"><g><g><path d="m418.87 128.807c19.367 0 35.123-15.756 35.123-35.123s-15.756-35.123-35.123-35.123-35.123 15.756-35.123 35.123 15.756 35.123 35.123 35.123zm0-48.245c7.236 0 13.123 5.887 13.123 13.123s-5.887 13.123-13.123 13.123-13.123-5.887-13.123-13.123 5.887-13.123 13.123-13.123z"/><path d="m326.114 113.951c-.755 2.818-.36 5.821 1.099 8.347l21.049 36.458c1.459 2.526 3.861 4.37 6.68 5.125 2.818.755 5.821.36 8.347-1.099l7.791-4.498c4.884 3.608 10.186 6.672 15.743 9.098v8.987c0 6.075 4.925 11 11 11h42.097c6.075 0 11-4.925 11-11v-8.987c5.558-2.426 10.859-5.489 15.743-9.098l7.79 4.498c2.525 1.458 5.528 1.854 8.347 1.099 2.818-.755 5.221-2.599 6.68-5.125l21.049-36.458c3.038-5.261 1.235-11.989-4.026-15.026l-7.788-4.497c.345-3.025.519-6.063.519-9.09s-.174-6.065-.519-9.09l7.788-4.497c5.261-3.038 7.064-9.765 4.026-15.026l-21.049-36.457c-3.038-5.262-9.766-7.063-15.026-4.026l-7.79 4.498c-4.884-3.608-10.186-6.671-15.743-9.097v-8.987c0-6.075-4.925-11-11-11h-42.097c-6.075 0-11 4.925-11 11v8.987c-5.557 2.426-10.859 5.49-15.743 9.098l-7.791-4.498c-5.261-3.037-11.989-1.235-15.026 4.026l-21.049 36.457c-1.458 2.526-1.854 5.529-1.099 8.347s2.599 5.221 5.125 6.679l7.789 4.497c-.346 3.025-.52 6.063-.52 9.09s.174 6.065.52 9.09l-7.789 4.497c-2.529 1.457-4.372 3.86-5.127 6.678zm35.744-7.79c-.896-4.117-1.351-8.315-1.351-12.476s.455-8.359 1.351-12.476c1.018-4.676-1.104-9.474-5.248-11.866l-4.845-2.797 10.049-17.404 4.845 2.797c4.148 2.395 9.369 1.83 12.91-1.396 6.27-5.715 13.533-9.912 21.587-12.475 4.564-1.453 7.665-5.692 7.665-10.482v-5.583h20.097v5.583c0 4.791 3.1 9.03 7.665 10.482 8.054 2.563 15.317 6.759 21.586 12.474 3.54 3.228 8.763 3.792 12.91 1.397l4.845-2.797 10.049 17.404-4.845 2.797c-4.145 2.393-6.266 7.19-5.248 11.866.896 4.116 1.35 8.313 1.35 12.476s-.454 8.36-1.35 12.476c-1.018 4.676 1.104 9.473 5.248 11.866l4.845 2.797-10.049 17.405-4.845-2.798c-4.147-2.395-9.369-1.831-12.911 1.397-6.269 5.714-13.531 9.912-21.586 12.474-4.565 1.453-7.665 5.692-7.665 10.482v5.583h-20.097v-5.583c0-4.79-3.1-9.03-7.665-10.482-8.055-2.563-15.317-6.76-21.587-12.475-3.54-3.227-8.761-3.792-12.91-1.397l-4.845 2.798-10.049-17.405 4.845-2.797c4.145-2.392 6.267-7.19 5.249-11.865z"/><path d="m360.697 339.442v-52.271c0-36.806-26.237-67.596-60.99-74.658 8.277-9.894 13.27-22.624 13.27-36.503 0-31.417-25.56-56.977-56.977-56.977s-56.977 25.56-56.977 56.977c0 13.878 4.993 26.609 13.27 36.503-34.753 7.062-60.99 37.852-60.99 74.658v52.271c0 6.075 4.925 11 11 11h187.394c6.075 0 11-4.924 11-11zm-104.697-198.409c19.287 0 34.977 15.69 34.977 34.977s-15.69 34.978-34.977 34.978-34.977-15.691-34.977-34.978 15.69-34.977 34.977-34.977zm82.697 187.409h-24.259v-24.454c0-6.075-4.925-11-11-11s-11 4.925-11 11v24.454h-72.875v-24.454c0-6.075-4.925-11-11-11s-11 4.925-11 11v24.454h-24.259v-41.271c0-29.876 24.307-54.183 54.183-54.183h57.027c29.876 0 54.183 24.307 54.183 54.183z"/><path d="m113.82 360.735c-10.786.468-21.097 4.29-29.543 10.772-8.446-6.482-18.758-10.305-29.542-10.772-14.238-.617-27.795 4.513-38.171 14.45-10.419 9.977-16.395 23.974-16.395 38.402 0 22.752 10.292 43.823 28.236 57.81l49.11 38.28c1.988 1.549 4.375 2.324 6.763 2.324s4.774-.775 6.763-2.324l49.11-38.28c17.944-13.987 28.235-35.058 28.235-57.81 0-14.429-5.976-28.426-16.395-38.402-10.377-9.936-23.941-15.066-38.171-14.45zm12.805 93.31-42.348 33.009-42.348-33.009c-12.559-9.789-19.761-24.535-19.761-40.458 0-8.458 3.503-16.664 9.61-22.512 5.679-5.438 12.981-8.389 20.688-8.389.437 0 .875.01 1.315.029 8.531.37 16.555 4.374 22.014 10.985 2.09 2.531 5.201 3.996 8.482 3.996 3.282 0 6.393-1.466 8.482-3.997 5.458-6.611 13.482-10.615 22.014-10.985 8.174-.354 16 2.614 22.001 8.36 6.107 5.849 9.61 14.054 9.61 22.513.001 15.923-7.201 30.669-19.759 40.458z"/><path d="m74.542 183.805c6.037 6.036 13.966 9.054 21.895 9.054s15.859-3.018 21.896-9.054l65.472-65.472c5.848-5.849 9.069-13.625 9.069-21.896s-3.221-16.047-9.069-21.895l-7.755-7.755c4.001-6.551 5.887-14.302 5.203-22.174-1.502-17.305-15.684-31.487-32.989-32.991-7.873-.683-15.625 1.202-22.176 5.204l-7.755-7.755c-12.073-12.073-31.718-12.073-43.791 0l-14.885 14.884c-2.18 2.181-3.345 5.176-3.211 8.256.134 3.081 1.555 5.964 3.917 7.946 3.658 3.072 5.507 7.58 5.071 12.37-.613 6.745-6.162 12.293-12.907 12.907-4.787.436-9.298-1.413-12.37-5.071-1.982-2.361-4.865-3.782-7.946-3.917-3.068-.127-6.075 1.031-8.256 3.211l-14.886 14.885c-5.848 5.849-9.069 13.624-9.069 21.895s3.221 16.047 9.069 21.896zm-49.916-93.706 7.805-7.806c6.548 3.929 14.27 5.759 22.088 5.05 17.434-1.586 31.238-15.39 32.823-32.823.711-7.818-1.12-15.539-5.05-22.088l7.805-7.805c3.495-3.495 9.182-3.495 12.678 0l14.9 14.9c2.195 2.195 5.217 3.364 8.314 3.208 3.1-.151 5.992-1.605 7.962-4.003 3.056-3.719 7.575-5.61 12.407-5.193 6.806.591 12.384 6.17 12.975 12.977.419 4.828-1.473 9.35-5.192 12.406-2.398 1.97-3.852 4.862-4.003 7.962s1.014 6.12 3.208 8.314l14.9 14.901c1.693 1.693 2.625 3.944 2.625 6.339s-.933 4.646-2.626 6.339l-65.472 65.472c-3.495 3.495-9.183 3.496-12.678 0l-65.472-65.472c-1.69-1.694-2.623-3.945-2.623-6.34s.933-4.645 2.626-6.338z"/><path d="m427.64 343.281c-46.517 0-84.36 37.844-84.36 84.36s37.844 84.36 84.36 84.36 84.36-37.844 84.36-84.36c0-46.517-37.844-84.36-84.36-84.36zm0 146.72c-34.386 0-62.36-27.975-62.36-62.36 0-34.386 27.975-62.36 62.36-62.36s62.36 27.975 62.36 62.36-27.975 62.36-62.36 62.36z"/><path d="m441.198 416.641h-2.558v-18.36c0-6.075-4.925-11-11-11s-11 4.925-11 11v29.36c0 6.075 4.925 11 11 11h13.558c6.075 0 11-4.925 11-11s-4.925-11-11-11z"/></g><g><path d="m490.436 338.358c-1.06 0-2.137-.154-3.203-.479-5.813-1.767-9.092-7.911-7.325-13.724 6.697-22.03 10.093-44.961 10.093-68.155 0-19.628-2.439-39.145-7.249-58.005-1.501-5.887 2.054-11.876 7.94-13.377 5.892-1.502 11.876 2.054 13.377 7.94 5.263 20.636 7.931 41.98 7.931 63.441 0 25.364-3.716 50.447-11.044 74.554-1.443 4.748-5.804 7.805-10.52 7.805z" fill="#0496FF"/></g><g><path d="m22.995 342.886c-4.635 0-8.945-2.953-10.458-7.599-8.319-25.56-12.537-52.236-12.537-79.286 0-26.986 4.199-53.602 12.48-79.109 1.877-5.778 8.082-8.938 13.859-7.065 5.778 1.876 8.941 8.081 7.065 13.859-7.567 23.309-11.404 47.639-11.404 72.315 0 24.734 3.855 49.119 11.458 72.478 1.88 5.777-1.279 11.984-7.056 13.864-1.131.368-2.278.543-3.407.543z" fill="#0496FF"/></g><g><path d="m256 512.001c-29.53 0-58.507-5.003-86.128-14.87-5.721-2.043-8.703-8.338-6.659-14.059s8.338-8.703 14.059-6.659c25.24 9.017 51.728 13.588 78.728 13.588 23.194 0 46.125-3.396 68.155-10.093 5.812-1.767 11.957 1.513 13.724 7.325s-1.513 11.957-7.325 13.724c-24.107 7.328-49.19 11.044-74.554 11.044z" fill="#0496FF"/></g><g><path d="m315.329 29.251c-.879 0-1.771-.106-2.663-.328-18.468-4.593-37.533-6.922-56.666-6.922-15.492 0-31.013 1.533-46.134 4.556-5.956 1.19-11.752-2.672-12.943-8.63s2.673-11.752 8.63-12.943c16.537-3.306 33.51-4.983 50.447-4.983 20.92 0 41.772 2.548 61.975 7.573 5.896 1.466 9.486 7.434 8.02 13.33-1.245 5.003-5.733 8.347-10.666 8.347z" fill="#0496FF"/></g></g><g/><g/><g/><g/><g/><g/><g/><g/><g/><g/><g/><g/><g/><g/><g/></svg>