<svg id="Capa_1" enable-background="new 0 0 512.002 512.002" viewBox="0 0 512.002 512.002" xmlns="http://www.w3.org/2000/svg" fill="#E6ECF2"><g><g><g><path d="m402.769 163.095c-29.772 0-53.994-24.222-53.994-53.995s24.222-53.995 53.994-53.995c29.773 0 53.995 24.222 53.995 53.995s-24.222 53.995-53.995 53.995zm0-85.99c-17.642 0-31.994 14.353-31.994 31.995s14.353 31.995 31.994 31.995c17.643 0 31.995-14.353 31.995-31.995s-14.353-31.995-31.995-31.995z" fill="#0496FF"/></g></g><g><g><path d="m506.5 125.612-8.169-4.716c.48-3.913.723-7.858.723-11.795s-.242-7.882-.723-11.796l8.169-4.716c2.526-1.458 4.37-3.861 5.125-6.679s.36-5.821-1.099-8.347l-26.566-46.014c-1.459-2.526-3.861-4.37-6.68-5.125-2.817-.754-5.82-.36-8.347 1.099l-8.173 4.719c-6.313-4.777-13.144-8.724-20.426-11.803v-9.428c0-6.075-4.925-11-11-11h-53.132c-6.075 0-11 4.925-11 11v9.428c-7.282 3.079-14.113 7.026-20.426 11.803l-8.174-4.719c-5.261-3.037-11.989-1.234-15.026 4.026l-26.565 46.014c-3.037 5.261-1.234 11.989 4.026 15.026l8.169 4.716c-.48 3.914-.723 7.858-.723 11.796 0 3.045.149 6.094.437 9.13h-222.89c-22.99 0-41.694 18.704-41.694 41.694v19.699h22v-19.699c0-10.859 8.834-19.694 19.694-19.694h210.773c.071.136.132.274.209.408l26.565 46.013c3.036 5.26 9.763 7.065 15.026 4.026l8.174-4.719c6.312 4.777 13.144 8.724 20.426 11.803v9.428c0 6.075 4.925 11 11 11h42.133v137.437h-173.336v22h173.336v10.967c0 10.859-8.834 19.694-19.693 19.694h-314.613c-10.859 0-19.694-8.834-19.694-19.694v-19.574h-22v19.574c0 22.99 18.704 41.694 41.694 41.694h107.08v35.068c0 13.584-11.052 24.636-24.636 24.636h-15.269c-6.075 0-11 4.925-11 11s4.925 11 11 11h180.261c6.075 0 11-4.925 11-11s-4.925-11-11-11h-15.27c-13.584 0-24.636-11.052-24.636-24.636v-35.068h107.081c22.99 0 41.693-18.704 41.693-41.694l-.001-190.832c7.282-3.079 14.112-7.025 20.425-11.803l8.174 4.719c2.526 1.458 5.529 1.854 8.347 1.099s5.221-2.598 6.68-5.125l26.566-46.013c3.038-5.262 1.237-11.989-4.025-15.027zm-229.875 364.379h-70.579c4.47-7.154 7.064-15.596 7.064-24.636v-35.068h56.451v35.068c.001 9.04 2.594 17.482 7.064 24.636zm198.853-396.162c1.046 5.01 1.576 10.148 1.576 15.271s-.53 10.261-1.576 15.271c-.971 4.65 1.153 9.399 5.268 11.774l5.229 3.019-15.566 26.961-5.247-3.03c-4.119-2.378-9.3-1.839-12.842 1.335-7.711 6.911-16.596 12.045-26.408 15.26-4.52 1.48-7.575 5.698-7.575 10.453v6.046h-31.132v-6.046c0-4.755-3.056-8.973-7.575-10.453-9.812-3.215-18.698-8.349-26.408-15.26-3.541-3.173-8.72-3.714-12.842-1.335l-5.248 3.03-15.565-26.96 5.229-3.019c4.114-2.375 6.238-7.124 5.268-11.774-1.046-5.01-1.576-10.148-1.576-15.271s.53-10.261 1.576-15.271c.972-4.65-1.153-9.399-5.268-11.774l-5.229-3.019 15.565-26.961 5.248 3.03c4.12 2.378 9.3 1.839 12.842-1.335 7.71-6.911 16.596-12.044 26.408-15.26 4.52-1.48 7.575-5.698 7.575-10.453v-6.046h31.132v6.046c0 4.755 3.056 8.973 7.575 10.453 9.812 3.215 18.697 8.349 26.408 15.26 3.542 3.175 8.724 3.713 12.842 1.335l5.247-3.03 15.566 26.961-5.229 3.019c-4.115 2.374-6.239 7.123-5.268 11.773z"/><path d="m290.336 319.898h93.664c6.075 0 11-4.925 11-11s-4.925-11-11-11h-93.664c-6.075 0-11 4.925-11 11s4.925 11 11 11z"/><path d="m290.336 275.898h93.664c6.075 0 11-4.925 11-11s-4.925-11-11-11h-93.664c-6.075 0-11 4.925-11 11s4.925 11 11 11z"/></g><g><path d="m245 377.646h-234c-6.075 0-11-4.925-11-11v-184.735c0-6.075 4.925-11 11-11h83.159c4.013 0 7.708 2.186 9.641 5.703l13.479 24.529h127.721c6.075 0 11 4.925 11 11v154.503c0 6.075-4.925 11-11 11zm-223-22h212v-132.503h-123.229c-4.013 0-7.708-2.186-9.641-5.703l-13.479-24.529h-65.651z" fill="#0496FF"/></g><g><g><g><path d="m177.183 324.558c-2.71 0-5.424-.995-7.55-3.002-4.417-4.171-4.617-11.133-.446-15.55l15.685-16.611-15.685-16.611c-4.171-4.417-3.971-11.379.446-15.55 4.418-4.17 11.379-3.971 15.55.446l22.815 24.163c4.002 4.239 4.002 10.865 0 15.104l-22.815 24.163c-2.164 2.291-5.079 3.448-8 3.448z" fill="#0496FF"/></g><g><path d="m78.817 324.558c-2.921 0-5.836-1.156-8-3.448l-22.815-24.163c-4.002-4.239-4.002-10.865 0-15.104l22.815-24.163c4.171-4.418 11.132-4.618 15.55-.446 4.417 4.171 4.617 11.133.446 15.55l-15.685 16.611 15.685 16.611c4.171 4.417 3.971 11.379-.446 15.55-2.125 2.006-4.84 3.002-7.55 3.002z" fill="#0496FF"/></g><g id="XMLID_610_"><path d="m122.828 328.529c-.662 0-1.333-.06-2.006-.184-5.975-1.101-9.925-6.837-8.824-12.812l10.369-56.266c1.102-5.975 6.838-9.923 12.812-8.824 5.975 1.101 9.925 6.837 8.824 12.812l-10.369 56.266c-.978 5.301-5.603 9.008-10.806 9.008z" fill="#0496FF"/></g></g></g></g></g><g/><g/><g/><g/><g/><g/><g/><g/><g/><g/><g/><g/><g/><g/><g/></svg>