<svg id="Capa_1" enable-background="new 0 0 512.095 512.095" viewBox="0 0 512.095 512.095" xmlns="http://www.w3.org/2000/svg" fill="#E6ECF2"><g><g><path d="m151.344 241.405c20.67 0 37.486-16.816 37.486-37.486 0-6.075-4.925-11-11-11s-11 4.925-11 11c0 8.539-6.947 15.486-15.486 15.486s-15.486-6.947-15.486-15.486c0-6.075-4.925-11-11-11s-11 4.925-11 11c-.001 20.67 16.816 37.486 37.486 37.486z"/><path d="m447.964 282.877h-102.195c-15.142 0-27.647 11.479-29.286 26.19l-24.576 42.366c-7.189-15.236-17.762-28.851-30.961-39.614-17.634-14.38-39.326-23.098-61.927-25.03v-17.405c19.385-14.068 32.352-36.467 33.582-61.898 12.854-4.513 22.096-16.772 22.096-31.149 0-14.341-9.195-26.575-22-31.115v-12.606c10.979-8.488 18.068-21.776 18.068-36.695 0-25.57-20.803-46.374-46.373-46.374h-52.832c-8.379 0-16.035 3.154-21.844 8.337-5.809-5.183-13.466-8.337-21.845-8.337h-5.035c-18.11 0-32.845 14.734-32.845 32.844v62.83c-12.805 4.54-22 16.774-22 31.115 0 14.377 9.241 26.636 22.096 31.149 1.23 25.431 14.197 47.83 33.583 61.899v17.397c-57.982 4.883-103.67 53.636-103.67 112.86v51.906c0 6.075 4.925 11 11 11h297.979c3.922 0 7.547-2.088 9.515-5.48l61.848-106.62h22.055c31.192 0 56.568-25.377 56.568-56.569-.001-6.076-4.926-11.001-11.001-11.001zm-355.973-200.485c0-5.979 4.865-10.844 10.845-10.844h5.035c5.979 0 10.845 4.865 10.845 10.844 0 6.075 4.925 11 11 11s11-4.925 11-11c0-5.979 4.864-10.844 10.844-10.844h52.832c13.439 0 24.373 10.934 24.373 24.374s-10.934 24.373-24.373 24.373h-33.496c-5.615 0-11.237-1.328-16.261-3.839-8.062-4.031-17.086-6.161-26.1-6.161h-36.544zm0 121.117v-5.171c0-6.075-4.925-11-11-11-6.065 0-11-4.935-11-11s4.935-11 11-11c6.075 0 11-4.925 11-11v-22.043h36.544c5.615 0 11.238 1.328 16.262 3.839 8.062 4.031 17.086 6.161 26.099 6.161h33.496c2.139 0 4.241-.158 6.305-.44v12.483c0 6.075 4.925 11 11 11 6.065 0 11 4.935 11 11s-4.935 11-11 11c-6.075 0-11 4.925-11 11v5.171c0 32.727-26.625 59.353-59.353 59.353s-59.353-26.626-59.353-59.353zm59.353 81.352c8.971 0 17.598-1.48 25.675-4.174v17.334c0 14.157-11.518 25.674-25.675 25.674-14.156 0-25.674-11.518-25.674-25.674v-17.334c8.077 2.694 16.703 4.174 25.674 4.174zm151.299 155.686h-53.954v-40.906c0-6.075-4.925-11-11-11s-11 4.925-11 11v40.906h-150.686v-40.906c0-6.075-4.925-11-11-11s-11 4.925-11 11v40.906h-32.003v-40.906c0-47.505 36.486-86.642 82.906-90.875 4.887 21.128 23.846 36.93 46.438 36.93 22.589 0 41.546-15.797 46.437-36.921 17.983 1.663 35.222 8.645 49.261 20.094 15.982 13.034 27.186 31.24 31.544 51.263.966 4.436 4.558 7.823 9.043 8.527 4.481.7 8.942-1.42 11.22-5.348l32.441-55.925 27.681 16.057zm99.753-112.101h-25.432l-36.607-21.235c1.363-1.434 3.282-2.334 5.412-2.334h89.401c-4.605 13.686-17.558 23.569-32.774 23.569z"/><path d="m360.016 215.87c0-17.399 14.156-31.555 31.556-31.555s31.555 14.155 31.555 31.555v1.952h22v-1.952c0-19.278-10.242-36.205-25.567-45.638 4.335-5.814 6.904-13.018 6.904-20.812 0-19.24-15.652-34.892-34.892-34.892s-34.893 15.652-34.893 34.892c0 7.794 2.57 14.998 6.905 20.812-15.325 9.433-25.568 26.359-25.568 45.637v1.952h22zm31.555-79.342c7.108 0 12.892 5.783 12.892 12.892s-5.783 12.892-12.892 12.892-12.893-5.783-12.893-12.892 5.784-12.892 12.893-12.892z"/></g><path d="m507.337 101.382c-10.499-28.329-35.688-46.347-65.737-47.024-.662-.015-1.325-.022-1.992-.022-17.106 0-33.869 5.097-48.036 14.488-14.168-9.391-30.932-14.488-48.037-14.488-.667 0-1.33.007-1.99.022-30.05.677-55.24 18.695-65.738 47.024-10.632 28.689-3.155 59.172 19.514 79.554l88.897 79.929c2.091 1.88 4.723 2.82 7.354 2.82s5.264-.94 7.354-2.82l88.896-79.929c22.669-20.382 30.147-50.866 19.515-79.554zm-34.224 63.195-81.542 73.316-81.543-73.316c-18.902-16.996-19.416-39.839-13.594-55.549 5.718-15.429 20.7-32.114 45.607-32.675.496-.011.993-.017 1.492-.017 14.939 0 29.525 5.204 41.07 14.652 4.052 3.315 9.88 3.317 13.934 0 11.931-9.764 27.152-14.977 42.563-14.635 24.905.561 39.889 17.247 45.606 32.675 5.824 15.709 5.31 38.552-13.593 55.549z" fill="#0496FF"/></g><g/><g/><g/><g/><g/><g/><g/><g/><g/><g/><g/><g/><g/><g/><g/></svg>