<svg id="Capa_1" enable-background="new 0 0 512 512" viewBox="0 0 512 512" xmlns="http://www.w3.org/2000/svg" fill="#052438"><g><g><g><path d="m256 452.117c-27.133 0-49.207-22.074-49.207-49.207s22.074-49.207 49.207-49.207 49.207 22.074 49.207 49.207-22.074 49.207-49.207 49.207zm0-76.413c-15.002 0-27.207 12.205-27.207 27.207s12.205 27.207 27.207 27.207 27.207-12.205 27.207-27.207-12.205-27.207-27.207-27.207z" fill="#0496FF"/></g></g><g><g id="XMLID_2674_"><path d="m133.194 158h-78.194c-6.075 0-11-4.925-11-11s4.925-11 11-11h78.194c6.075 0 11 4.925 11 11s-4.924 11-11 11z" fill="#0496FF"/></g><g id="XMLID_713_"><path d="m133.194 210.607h-78.194c-6.075 0-11-4.925-11-11s4.925-11 11-11h78.194c6.075 0 11 4.925 11 11s-4.924 11-11 11z" fill="#0496FF"/></g><g id="XMLID_714_"><path d="m133.194 263.214h-78.194c-6.075 0-11-4.925-11-11s4.925-11 11-11h78.194c6.075 0 11 4.925 11 11s-4.924 11-11 11z" fill="#0496FF"/></g><g id="XMLID_715_"><path d="m133.194 315.821h-78.194c-6.075 0-11-4.925-11-11s4.925-11 11-11h78.194c6.075 0 11 4.925 11 11s-4.924 11-11 11z" fill="#0496FF"/></g><g id="XMLID_721_"><path d="m456.987 158h-235.793c-6.075 0-11-4.925-11-11s4.925-11 11-11h235.793c6.075 0 11 4.925 11 11s-4.925 11-11 11z" fill="#0496FF"/></g><g id="XMLID_720_"><path d="m456.987 210.607h-235.793c-6.075 0-11-4.925-11-11s4.925-11 11-11h235.793c6.075 0 11 4.925 11 11s-4.925 11-11 11z" fill="#0496FF"/></g><g id="XMLID_719_"><path d="m456.987 263.214h-235.793c-6.075 0-11-4.925-11-11s4.925-11 11-11h235.793c6.075 0 11 4.925 11 11s-4.925 11-11 11z" fill="#0496FF"/></g><g id="XMLID_718_"><path d="m456.987 315.821h-86.438c-6.075 0-11-4.925-11-11s4.925-11 11-11h86.438c6.075 0 11 4.925 11 11s-4.925 11-11 11z" fill="#0496FF"/></g><g><path d="m501 0h-490c-6.075 0-11 4.925-11 11v417.948c0 6.075 4.925 11 11 11h140.418l23.391 40.514c3.037 5.26 9.763 7.064 15.026 4.026l8.174-4.719c6.312 4.777 13.143 8.724 20.425 11.802v9.429c0 6.075 4.925 11 11 11h53.133c6.075 0 11-4.925 11-11v-9.429c7.281-3.078 14.113-7.026 20.425-11.802l8.174 4.719c2.526 1.458 5.529 1.854 8.347 1.099s5.221-2.599 6.68-5.125l23.391-40.514h140.416c6.075 0 11-4.925 11-11v-417.948c0-6.075-4.925-11-11-11zm-11 22v66h-468v-66zm-161.292 365.639c1.047 5.014 1.577 10.152 1.577 15.271s-.53 10.257-1.577 15.271c-.972 4.651 1.153 9.399 5.268 11.774l5.229 3.019-15.566 26.961-5.247-3.03c-4.119-2.378-9.3-1.839-12.841 1.334-7.712 6.911-16.598 12.045-26.409 15.26-4.52 1.481-7.575 5.698-7.575 10.453v6.048h-31.133v-6.046c0-4.755-3.056-8.972-7.575-10.453-9.812-3.215-18.697-8.349-26.407-15.26-3.541-3.174-8.721-3.714-12.842-1.335l-5.248 3.03-15.566-26.961 5.229-3.019c4.114-2.375 6.239-7.124 5.268-11.774-1.047-5.014-1.577-10.151-1.577-15.271s.53-10.258 1.577-15.271c.972-4.651-1.153-9.399-5.268-11.774l-5.229-3.019 15.566-26.961 5.248 3.03c4.121 2.378 9.301 1.839 12.842-1.335 7.711-6.911 16.596-12.045 26.407-15.26 4.52-1.48 7.575-5.698 7.575-10.453v-6.046h31.133v6.046c0 4.755 3.056 8.973 7.575 10.453 9.812 3.214 18.696 8.349 26.409 15.26 3.541 3.173 8.723 3.714 12.841 1.334l5.247-3.03 15.566 26.961-5.229 3.019c-4.115 2.375-6.24 7.123-5.268 11.774zm28.471 30.309-5.616-3.243c.48-3.914.723-7.858.723-11.795s-.242-7.881-.723-11.795l8.169-4.716c2.526-1.458 4.37-3.861 5.125-6.679s.36-5.821-1.099-8.347l-26.566-46.014c-1.459-2.526-3.861-4.37-6.68-5.125-2.817-.754-5.82-.36-8.347 1.099l-8.174 4.719c-6.312-4.777-13.144-8.724-20.425-11.803v-9.428c0-6.075-4.925-11-11-11h-53.133c-6.075 0-11 4.925-11 11v9.428c-7.281 3.078-14.112 7.026-20.425 11.803l-8.174-4.719c-5.261-3.036-11.989-1.234-15.026 4.026l-26.566 46.014c-1.459 2.526-1.854 5.529-1.099 8.347s2.599 5.221 5.125 6.679l8.169 4.716c-.48 3.914-.723 7.859-.723 11.795s.242 7.881.723 11.795l-5.616 3.243h-132.821v-307.948h468v307.948z"/><path d="m49.89 59.21c2.697 7.097 12.731 9.084 17.94 3.57 6.195-5.914 2.826-17.1-5.63-18.56-8.367-1.892-15.782 7.15-12.31 14.99z"/><path d="m93.89 59.21c3.09 7.998 14.722 9.14 19.311 1.9 4.382-6.19.495-15.636-7-16.89-8.431-1.842-15.748 7.075-12.311 14.99z"/><path d="m137.89 59.21c2.693 7.1 12.734 9.082 17.94 3.57 7.633-7.597.629-20.709-9.931-18.56-6.627 1.14-10.733 8.842-8.009 14.99z"/><path d="m214.228 66h237.721c6.075 0 11-4.925 11-11s-4.925-11-11-11h-237.721c-6.075 0-11 4.925-11 11s4.924 11 11 11z"/><path d="m177.194 136c-6.075 0-11 4.925-11 11v105.214c0 6.075 4.925 11 11 11s11-4.925 11-11v-105.214c0-6.075-4.924-11-11-11z"/></g></g></g><g/><g/><g/><g/><g/><g/><g/><g/><g/><g/><g/><g/><g/><g/><g/></svg>