<svg id="Capa_1" enable-background="new 0 0 512 512" viewBox="0 0 512 512" xmlns="http://www.w3.org/2000/svg" fill="#E6ECF2"><g><g><path d="m360.546 381.778c-4.127 0-8.253-1.086-12.016-3.258-7.524-4.344-12.017-12.125-12.017-20.813v-73.331c0-8.688 4.492-16.469 12.016-20.813s16.508-4.344 24.033 0l63.506 36.666c7.524 4.344 12.017 12.125 12.017 20.813s-4.492 16.469-12.017 20.813l-63.506 36.666c-3.761 2.17-7.888 3.257-12.016 3.257zm.001-99.455c-.34 0-.679.097-1.017.292-.674.389-1.016.981-1.016 1.76v73.331c0 .779.342 1.371 1.017 1.761.674.389 1.358.389 2.032 0l63.507-36.666c.674-.389 1.017-.981 1.017-1.76s-.342-1.371-1.017-1.76l-63.506-36.666c-.338-.195-.678-.292-1.017-.292z" fill="#0496FF"/></g><g><g><g><path d="m221.678 133.846c-2.71 0-5.424-.995-7.55-3.002-4.417-4.171-4.617-11.133-.446-15.55l18.979-20.1-18.979-20.1c-4.171-4.417-3.971-11.379.446-15.55 4.417-4.17 11.379-3.971 15.55.446l26.109 27.651c4.002 4.239 4.002 10.865 0 15.104l-26.109 27.651c-2.163 2.293-5.079 3.45-8 3.45z" fill="#0496FF"/></g><g><path d="m109.111 133.846c-2.921 0-5.836-1.156-8-3.448l-26.109-27.651c-4.002-4.24-4.002-10.866 0-15.104l26.109-27.651c4.17-4.417 11.133-4.618 15.55-.446 4.417 4.171 4.617 11.133.446 15.55l-18.979 20.1 18.979 20.1c4.171 4.417 3.971 11.379-.446 15.55-2.125 2.005-4.84 3-7.55 3z" fill="#0496FF"/></g><g id="XMLID_627_"><path d="m159.474 138.391c-.662 0-1.333-.06-2.006-.184-5.975-1.101-9.925-6.837-8.824-12.812l11.866-64.389c1.102-5.975 6.838-9.926 12.812-8.824 5.975 1.101 9.925 6.837 8.824 12.812l-11.866 64.389c-.978 5.3-5.603 9.008-10.806 9.008z" fill="#0496FF"/></g></g><g><g id="XMLID_686_"><path d="m160.604 228.923h-77.604c-6.075 0-11-4.925-11-11s4.925-11 11-11h77.604c6.075 0 11 4.925 11 11s-4.924 11-11 11z" fill="#0496FF"/></g><g id="XMLID_662_"><path d="m98.286 183.923h-15.286c-6.075 0-11-4.925-11-11s4.925-11 11-11h15.286c6.075 0 11 4.925 11 11s-4.925 11-11 11z" fill="#0496FF"/></g><g><path d="m492 135.886v-84.886c0-28.122-22.878-51-51-51h-370c-28.122 0-51 22.878-51 51v251h-9c-6.075 0-11 4.925-11 11v44c0 30.327 24.673 55 55 55h203v59c0 22.607 18.393 41 41 41h172c22.607 0 41-18.393 41-41v-299.918c0-14.936-8.032-28.028-20-35.196zm-437 254.114c-18.196 0-33-14.804-33-33v-33h236v66zm203-218.918v130.918h-216v-251c0-15.991 13.009-29 29-29h370c15.991 0 29 13.009 29 29v79.082h-171c-22.607 0-41 18.393-41 41zm82-19h90v23h-90zm150 318.918c0 10.477-8.523 19-19 19h-172c-10.477 0-19-8.523-19-19v-299.918c0-10.477 8.523-19 19-19h19v23.681c0 11.755 9.563 21.319 21.319 21.319h91.362c11.755 0 21.319-9.563 21.319-21.319v-23.681h19c10.477 0 19 8.523 19 19z"/><path d="m225 206.923h-20.396c-6.075 0-11 4.925-11 11s4.925 11 11 11h20.396c6.075 0 11-4.925 11-11s-4.925-11-11-11z"/><path d="m225 251.923h-142c-6.075 0-11 4.925-11 11s4.925 11 11 11h142c6.075 0 11-4.925 11-11s-4.925-11-11-11z"/><path d="m225 161.923h-82.714c-6.075 0-11 4.925-11 11s4.925 11 11 11h82.714c6.075 0 11-4.925 11-11s-4.925-11-11-11z"/></g></g></g></g><g/><g/><g/><g/><g/><g/><g/><g/><g/><g/><g/><g/><g/><g/><g/></svg>