<svg id="Layer_1" enable-background="new 0 0 512.085 512.085" viewBox="0 0 512.085 512.085" xmlns="http://www.w3.org/2000/svg" fill="#052438"><g><g><g><path d="m297.479 151.376c7.958-9.436 12.768-21.61 12.768-34.891 0-29.888-24.315-54.203-54.203-54.203s-54.203 24.315-54.203 54.203c0 13.182 4.735 25.276 12.586 34.682-34.942 8.873-60.869 40.588-60.869 78.251v82.594c0 18.472 15.028 33.5 33.5 33.5 4.038 0 7.912-.718 11.5-2.034v157.608c0 6.075 4.925 11 11 11h92c6.075 0 11-4.925 11-11v-157.609c3.588 1.316 7.462 2.034 11.5 2.034 18.472 0 33.5-15.028 33.5-33.5v-82.594c0-37.377-25.538-68.893-60.079-78.041zm-41.435-67.094c17.757 0 32.203 14.446 32.203 32.203s-14.446 32.203-32.203 32.203-32.203-14.446-32.203-32.203 14.446-32.203 32.203-32.203zm34.514 405.803h-23.51v-143.774c0-6.075-4.925-11-11-11s-11 4.925-11 11v143.774h-24.491v-190.606h70v190.606zm45-178.074c0 6.341-5.159 11.5-11.5 11.5s-11.5-5.159-11.5-11.5v-84.209c0-6.075-4.925-11-11-11s-11 4.925-11 11v49.677h-70v-49.677c0-6.075-4.925-11-11-11s-11 4.925-11 11v84.209c0 6.341-5.159 11.5-11.5 11.5s-11.5-5.159-11.5-11.5v-82.594c0-32.384 26.346-58.729 58.73-58.729h42.541c32.384 0 58.729 26.346 58.729 58.729z"/><path d="m391.424 110.416 41.33 32.216c1.988 1.55 4.375 2.324 6.763 2.324 2.387 0 4.774-.775 6.763-2.324l41.331-32.216c15.528-12.104 24.434-30.338 24.434-50.026 0-12.615-5.225-24.854-14.335-33.577-9.079-8.694-20.943-13.192-33.405-12.643-8.99.39-17.603 3.443-24.787 8.635-7.185-5.192-15.797-8.245-24.787-8.635-12.464-.546-24.327 3.95-33.405 12.643-9.11 8.723-14.335 20.962-14.335 33.577-.002 19.687 8.904 37.921 24.433 50.026zm5.116-67.714c4.452-4.263 10.173-6.576 16.208-6.576.341 0 .685.007 1.028.022 6.688.29 12.978 3.43 17.258 8.614 2.09 2.531 5.2 3.996 8.482 3.996s6.393-1.465 8.482-3.996c4.28-5.184 10.57-8.324 17.258-8.614 6.41-.287 12.532 2.049 17.236 6.554 4.869 4.662 7.551 10.943 7.551 17.687 0 12.859-5.816 24.769-15.959 32.675l-34.568 26.945-34.567-26.945c-10.143-7.906-15.96-19.815-15.96-32.675 0-6.743 2.682-13.025 7.551-17.687z"/><path d="m439.516 296.558c-39.992 0-72.527 32.535-72.527 72.527s32.535 72.527 72.527 72.527 72.527-32.536 72.527-72.527-32.534-72.527-72.527-72.527zm0 123.054c-27.861 0-50.527-22.667-50.527-50.527s22.666-50.527 50.527-50.527 50.527 22.667 50.527 50.527c.001 27.861-22.665 50.527-50.527 50.527z"/><path d="m112.482 307.366h-101.438c-6.075 0-11 4.925-11 11v101.438c0 6.075 4.925 11 11 11h101.438c6.075 0 11-4.925 11-11v-101.438c0-6.075-4.925-11-11-11zm-11 101.438h-79.438v-79.438h79.438z"/><path d="m138.535 54.792-36.332-8.415-19.23-31.953c-1.99-3.306-5.566-5.328-9.425-5.328s-7.435 2.022-9.425 5.328l-19.23 31.953-36.331 8.415c-3.759.871-6.787 3.647-7.979 7.317s-.375 7.696 2.155 10.61l24.447 28.163-3.224 37.153c-.333 3.844 1.372 7.583 4.494 9.851 3.122 2.267 7.203 2.734 10.756 1.229l34.339-14.548 34.339 14.548c1.379.584 2.838.872 4.29.872 2.288 0 4.557-.713 6.467-2.101 3.122-2.268 4.827-6.006 4.493-9.851l-3.225-37.154 24.447-28.163c2.53-2.914 3.347-6.94 2.155-10.61-1.193-3.669-4.221-6.446-7.981-7.316zm-38.29 35.187c-1.953 2.25-2.91 5.194-2.652 8.162l2.047 23.586-21.8-9.235c-2.743-1.162-5.839-1.162-8.582 0l-21.8 9.235 2.047-23.586c.257-2.968-.7-5.913-2.652-8.162l-15.521-17.879 23.065-5.342c2.902-.672 5.407-2.492 6.943-5.044l12.208-20.285 12.208 20.285c1.536 2.552 4.041 4.373 6.943 5.044l23.065 5.342z"/></g><g><path d="m345.28 495.307c-4.399 0-8.554-2.657-10.25-7.003-2.209-5.659.588-12.038 6.247-14.247 14.633-5.712 28.73-12.939 41.901-21.481 5.098-3.306 11.91-1.853 15.215 3.244 3.306 5.097 1.853 11.909-3.244 15.214-14.419 9.351-29.853 17.263-45.872 23.517-1.313.513-2.667.756-3.997.756z" fill="#0496FF"/></g><g><path d="m499.632 293.397c-.393 0-.789-.021-1.188-.064-6.04-.648-10.411-6.071-9.763-12.111 4.364-40.635-1.942-81.795-18.236-119.03-2.436-5.566.102-12.052 5.667-14.487 5.566-2.436 12.052.101 14.487 5.667 17.828 40.739 24.728 85.761 19.957 130.199-.607 5.641-5.377 9.826-10.924 9.826z" fill="#0496FF"/></g><g><path d="m11.718 285.367c-5.705 0-10.528-4.403-10.958-10.185-2.459-33.071 1.4-65.806 11.473-97.295 1.851-5.786 8.042-8.978 13.828-7.126 5.787 1.851 8.977 8.042 7.126 13.828-9.208 28.789-12.737 58.719-10.487 88.961.451 6.059-4.095 11.335-10.154 11.786-.278.021-.554.031-.828.031z" fill="#0496FF"/></g><g><path d="m161.842 40.873c-4.311 0-8.402-2.55-10.161-6.778-2.333-5.609.322-12.048 5.931-14.381 60.104-25.003 126.824-26.263 187.867-3.55 5.694 2.119 8.592 8.452 6.474 14.146-2.119 5.694-8.45 8.59-14.146 6.474-55.807-20.766-116.8-19.614-171.745 3.243-1.381.574-2.812.846-4.22.846z" fill="#0496FF"/></g><g><path d="m165.807 494.915c-1.346 0-2.714-.249-4.042-.774-15.306-6.053-30.095-13.639-43.956-22.548-5.11-3.285-6.59-10.09-3.306-15.201 3.285-5.11 10.089-6.591 15.201-3.306 12.662 8.139 26.171 15.068 40.151 20.597 5.649 2.234 8.418 8.625 6.184 14.274-1.709 4.322-5.851 6.958-10.232 6.958z" fill="#0496FF"/></g></g></g><g/><g/><g/><g/><g/><g/><g/><g/><g/><g/><g/><g/><g/><g/><g/></svg>