<svg id="Capa_1" enable-background="new 0 0 512 512" viewBox="0 0 512 512" xmlns="http://www.w3.org/2000/svg" fill="#052438"><g><path d="m470.553 79.801 17.533-35.008c1.708-3.41 1.527-7.461-.477-10.706s-5.545-5.22-9.359-5.22h-100.597c-6.075 0-11 4.925-11 11v126.312h22v-35.445h89.599c3.813 0 7.355-1.975 9.359-5.22s2.185-7.296.477-10.706zm-22.137 4.926 12.024 24.008h-71.787v-57.868h71.787l-12.024 24.008c-1.553 3.1-1.553 6.751 0 9.852z" fill="#0496FF"/><path d="m400.322 412.732c8.806-8.76 14.266-20.879 14.266-34.251 0-26.652-21.684-48.336-48.336-48.336-4.702 0-9.244.687-13.544 1.945v-59.09h13.544c6.075 0 11-4.925 11-11s-4.925-11-11-11h-7.787l39.675-39.675c12.866-12.867 12.866-33.802 0-46.669-12.867-12.866-33.803-12.866-46.669 0l-21.484 21.485c-17.77-29.403-46.747-37.688-62.767-40.008v-20.259c.107-.104.219-.201.325-.306 9.34-9.22 14.484-21.524 14.484-34.647v-29.413c2.74-4.879 4.317-10.494 4.317-16.436 0-24.853-20.219-45.072-45.071-45.072h-15.856c-24.853 0-45.072 20.219-45.072 45.072 0 5.942 1.577 11.557 4.317 16.436v28.85c0 13.767 5.693 26.28 14.81 35.252v20.326c-42.626 5.422-75.689 41.92-75.689 85.995v19.069h-23.535c-6.075 0-11 4.925-11 11s4.925 11 11 11h13.544v59.09c-4.301-1.258-8.843-1.945-13.544-1.945-26.652 0-48.336 21.684-48.336 48.336 0 13.372 5.46 25.492 14.266 34.251-25.698 12.632-43.431 39.075-43.431 69.591v18.677c0 6.075 4.925 11 11 11h399.005c6.075 0 11-4.925 11-11v-18.677c0-30.516-17.734-56.959-43.432-69.591zm-167.071-7.915c-14.521 0-26.336-11.814-26.336-26.336s11.814-26.336 26.336-26.336 26.336 11.814 26.336 26.336-11.814 26.336-26.336 26.336zm0-74.672c-26.652 0-48.336 21.684-48.336 48.336 0 13.372 5.46 25.492 14.266 34.251-13.469 6.621-24.746 17.034-32.431 29.844-7.685-12.81-18.962-23.223-32.431-29.844 8.806-8.76 14.266-20.879 14.266-34.251 0-12.608-4.857-24.099-12.792-32.713v-72.768h194.914v72.768c-7.935 8.615-12.792 20.106-12.792 32.713 0 13.372 5.46 25.492 14.266 34.251-13.469 6.621-24.746 17.034-32.431 29.844-7.685-12.81-18.962-23.223-32.431-29.844 8.806-8.76 14.266-20.879 14.266-34.251.002-26.652-21.681-48.336-48.334-48.336zm159.338 48.336c0 14.521-11.814 26.336-26.336 26.336s-26.336-11.814-26.336-26.336 11.814-26.336 26.336-26.336 26.336 11.814 26.336 26.336zm-185.926-288.123v-12.471c1.874.399 3.801.643 5.771.697 3.709.097 7.4-.427 10.913-1.543 3.227 1.024 6.611 1.555 9.999 1.555s6.772-.531 9.999-1.555c3.513 1.116 7.21 1.636 10.914 1.543 1.971-.054 3.897-.298 5.771-.697v13.033c0 7.193-2.819 13.937-7.939 18.991-5.119 5.052-11.921 7.787-19.102 7.69-14.516-.189-26.326-12.41-26.326-27.243zm18.755-68.358h15.856c12.722 0 23.072 10.35 23.072 23.072 0 6.191-4.795 11.359-10.688 11.52-1.867.054-3.652-.351-5.303-1.195-1.573-.804-3.291-1.207-5.009-1.207s-3.436.402-5.008 1.207c-3.114 1.592-6.868 1.592-9.984 0-3.146-1.608-6.872-1.608-10.017 0-1.65.844-3.431 1.253-5.302 1.195-5.894-.161-10.689-5.329-10.689-11.52 0-12.722 10.351-23.072 23.072-23.072zm7.286 117.599c.218.003.434.004.651.004 4.053 0 8.031-.494 11.865-1.45v13.599l-11.874 11.874-11.874-11.874v-13.654c3.606.924 7.364 1.451 11.232 1.501zm-86.92 92.331c0-34.171 26.637-62.22 60.235-64.518l19.549 19.55c2.063 2.062 4.861 3.222 7.778 3.222s5.715-1.159 7.778-3.222l19.5-19.5c11.941 1.06 42.867 7.133 55.988 41.286 1.336 3.477 4.34 6.042 7.983 6.815 3.645.775 7.431-.348 10.064-2.981l32.369-32.369c4.289-4.29 11.268-4.289 15.556 0 4.289 4.289 4.289 11.268 0 15.557l-55.231 55.23h-28.444v-17.729c0-6.075-4.925-11-11-11s-11 4.925-11 11v17.729h-87.125v-17.729c0-6.075-4.925-11-11-11s-11 4.925-11 11v17.729h-22zm-45.534 120.215c14.521 0 26.336 11.814 26.336 26.336s-11.814 26.336-26.336 26.336-26.336-11.814-26.336-26.336 11.814-26.336 26.336-26.336zm-55.501 130.178c0-30.604 24.897-55.501 55.501-55.501 30.603 0 55.5 24.897 55.5 55.501v7.677h-111.001zm133.001 0c0-30.604 24.897-55.501 55.501-55.501s55.501 24.897 55.501 55.501v7.677h-111.002zm244.004 7.677h-111.002v-7.677c0-30.604 24.897-55.501 55.5-55.501 30.604 0 55.501 24.897 55.501 55.501v7.677z"/></g><g/><g/><g/><g/><g/><g/><g/><g/><g/><g/><g/><g/><g/><g/><g/></svg>