<svg id="Capa_1" enable-background="new 0 0 512 512" viewBox="0 0 512 512" xmlns="http://www.w3.org/2000/svg" fill="#E6ECF2"><g><g><path d="m361.048 426.25h-22v-47.811c0-4.202 2.394-8.037 6.169-9.883 17.559-8.583 28.467-26.034 28.467-45.543 0-14.936-6.715-28.93-17.684-38.41v20.513c0 3.247-1.435 6.329-3.921 8.419l-22 18.499c-4.092 3.441-10.066 3.441-14.158 0l-22-18.499c-2.486-2.09-3.921-5.172-3.921-8.419v-20.513c-10.969 9.48-17.684 23.475-17.684 38.41 0 19.509 10.908 36.96 28.467 45.543 3.775 1.846 6.169 5.681 6.169 9.883v47.811h-22v-41.312c-21.528-13.168-34.636-36.309-34.636-61.925 0-29.927 18.791-57.212 46.758-67.896 3.385-1.292 7.184-.837 10.163 1.215 2.981 2.053 4.763 5.44 4.763 9.061v34.601l11 9.249 11-9.249v-34.601c0-3.62 1.781-7.008 4.763-9.061 2.98-2.052 6.78-2.509 10.163-1.215 27.967 10.684 46.758 37.969 46.758 67.896 0 25.616-13.107 48.757-34.636 61.925z" fill="#0496FF"/></g><g><g><path d="m49.899 59.21c6.063 13.255 25.393 5.237 20.311-8.42-2.412-6.266-10.758-8.803-16.271-4.94-4.285 2.792-6.091 8.664-4.04 13.36z"/><path d="m93.89 59.21c2.422 6.275 10.766 8.8 16.271 4.939 4.297-2.785 6.083-8.658 4.05-13.359-5.98-13.214-25.484-5.2-20.321 8.42z"/><path d="m137.89 59.21c6.002 13.216 25.483 5.205 20.32-8.42-2.142-5.499-8.965-8.322-14.37-5.95-5.502 2.154-8.313 8.961-5.95 14.37z"/><path d="m214.228 66h182.369c6.075 0 11-4.925 11-11s-4.925-11-11-11h-182.369c-6.075 0-11 4.925-11 11s4.924 11 11 11z"/><path d="m501 282.774h-20.306c-3.827-15.094-9.772-29.44-17.747-42.833l14.362-14.362c4.296-4.296 4.296-11.261 0-15.557l-20.661-20.661v-178.361c0-6.075-4.925-11-11-11h-434.648c-6.075 0-11 4.925-11 11v396.458c0 6.075 4.925 11 11 11h159.653l-1.963 1.963c-4.296 4.296-4.296 11.261 0 15.557l41.332 41.332c4.297 4.295 11.26 4.295 15.557 0l14.362-14.362c13.393 7.975 27.739 13.919 42.832 17.747v20.305c0 6.075 4.925 11 11 11h58.453c6.075 0 11-4.925 11-11v-20.306c15.093-3.827 29.438-9.772 42.832-17.747l14.362 14.362c4.297 4.295 11.26 4.295 15.557 0l41.332-41.332c4.296-4.296 4.296-11.261 0-15.557l-14.362-14.362c7.975-13.393 13.92-27.739 17.747-42.833h20.306c6.075 0 11-4.925 11-11v-58.451c0-6.075-4.925-11-11-11zm-66.352-260.774v66h-412.648v-66zm-412.648 88h412.648v57.573c-4.302-3.124-10.348-2.76-14.228 1.118l-14.362 14.362c-13.394-7.975-27.739-13.92-42.832-17.747v-20.306c0-6.075-4.925-11-11-11h-58.453c-6.075 0-11 4.925-11 11v20.306c-15.093 3.828-29.439 9.772-42.832 17.747l-14.362-14.362c-4.297-4.295-11.26-4.295-15.557 0l-41.332 41.332c-4.296 4.296-4.296 11.261 0 15.557l14.362 14.362c-7.975 13.393-13.92 27.739-17.747 42.833h-20.305c-6.075 0-11 4.925-11 11v58.451c0 6.075 4.925 11 11 11h20.306c2.928 11.547 7.105 22.652 12.473 33.232h-155.779zm468 231.226h-18.108c-5.263 0-9.788 3.728-10.796 8.893-3.602 18.452-10.76 35.729-21.276 51.352-2.938 4.365-2.374 10.2 1.347 13.921l12.809 12.809-25.775 25.775-12.809-12.809c-3.723-3.722-9.557-4.285-13.921-1.347-15.622 10.517-32.899 17.675-51.351 21.276-5.165 1.008-8.893 5.533-8.893 10.796v18.108h-36.453v-18.108c0-5.263-3.728-9.788-8.893-10.796-18.452-3.602-35.729-10.761-51.351-21.276-4.365-2.94-10.2-2.373-13.921 1.347l-12.809 12.809-25.775-25.775 12.809-12.809c3.721-3.721 4.285-9.556 1.347-13.921-10.517-15.622-17.675-32.899-21.276-51.352-1.008-5.165-5.533-8.893-10.796-8.893h-18.109v-36.451h18.108c5.263 0 9.788-3.728 10.796-8.893 3.602-18.452 10.76-35.729 21.276-51.352 2.938-4.365 2.374-10.2-1.347-13.921l-12.809-12.809 25.775-25.775 12.809 12.809c3.721 3.721 9.555 4.284 13.921 1.347 15.622-10.516 32.898-17.675 51.351-21.276 5.165-1.008 8.893-5.533 8.893-10.796v-18.109h36.453v18.108c0 5.263 3.728 9.788 8.893 10.796 18.451 3.602 35.729 10.76 51.351 21.276 4.365 2.94 10.199 2.372 13.921-1.347l12.809-12.809 25.775 25.775-12.809 12.809c-3.721 3.721-4.285 9.556-1.347 13.921 10.517 15.622 17.675 32.899 21.276 51.352 1.008 5.165 5.533 8.893 10.796 8.893h18.109z"/><path d="m323 205.287c-64.907 0-117.713 52.806-117.713 117.713s52.806 117.713 117.713 117.713 117.713-52.806 117.713-117.713-52.806-117.713-117.713-117.713zm0 213.426c-52.776 0-95.713-42.937-95.713-95.713s42.937-95.713 95.713-95.713 95.713 42.937 95.713 95.713-42.937 95.713-95.713 95.713z"/></g><g><g id="XMLID_770_"><path d="m165.472 162.221h-110.472c-6.075 0-11-4.925-11-11s4.925-11 11-11h110.472c6.075 0 11 4.925 11 11s-4.925 11-11 11z" fill="#0496FF"/></g><g id="XMLID_766_"><path d="m128 210.221h-73c-6.075 0-11-4.925-11-11s4.925-11 11-11h73c6.075 0 11 4.925 11 11s-4.925 11-11 11z" fill="#0496FF"/></g><g id="XMLID_765_"><path d="m128 258.221h-73c-6.075 0-11-4.925-11-11s4.925-11 11-11h73c6.075 0 11 4.925 11 11s-4.925 11-11 11z" fill="#0496FF"/></g></g></g></g><g/><g/><g/><g/><g/><g/><g/><g/><g/><g/><g/><g/><g/><g/><g/></svg>