<svg id="Capa_1" enable-background="new 0 0 512 512" viewBox="0 0 512 512" xmlns="http://www.w3.org/2000/svg" fill="#052438"><g><g><g><g><g><g><g><g><g><g><g><path d="m422 338.673h-332c-6.075 0-11-4.925-11-11v-178c0-6.075 4.925-11 11-11h332c6.075 0 11 4.925 11 11v178c0 6.075-4.925 11-11 11zm-321-22h310v-156h-310z" fill="#0496FF"/></g></g></g></g></g></g></g></g></g></g><g><g><g><g><path d="m261.351 293.63c-8.274 0-16.511-1.895-23.819-5.479-5.454-2.676-7.707-9.266-5.032-14.72 2.676-5.455 9.268-7.707 14.72-5.032 4.31 2.114 9.196 3.231 14.13 3.231 8.504 0 14.494-5.087 15.373-10.006 1.168-6.541-7.68-10.558-11.538-11.98-13.648-5.034-25.767-10.429-26.276-10.655-.53-.236-1.04-.515-1.526-.831-9.279-6.05-14.06-16.658-12.477-27.688 1.687-11.754 10.282-21.33 22.43-24.99 24.04-7.242 43.832 9.078 44.663 9.776 4.65 3.908 5.251 10.848 1.342 15.498-3.894 4.631-10.792 5.247-15.441 1.39-.322-.258-11.818-9.334-24.218-5.6-5.648 1.702-6.776 5.498-7 7.052-.161 1.118-.241 3.801 2.154 5.727 3.089 1.352 13.152 5.693 23.961 9.681 22.203 8.189 27.772 24.219 25.582 36.488-2.91 16.304-18.483 28.138-37.028 28.138z" fill="#0496FF"/></g></g><g><path d="m178.716 293.63c-30.327 0-55-24.673-55-55s24.673-55 55-55c7.539 0 14.853 1.505 21.739 4.474 5.579 2.405 8.152 8.877 5.747 14.456-2.405 5.58-8.878 8.152-14.456 5.747-4.12-1.776-8.504-2.677-13.03-2.677-18.196 0-33 14.804-33 33s14.804 33 33 33c4.591 0 8.723-.945 12.282-2.809 5.38-2.817 12.029-.739 14.848 4.643 2.818 5.382.739 12.029-4.643 14.848-6.74 3.529-14.306 5.318-22.487 5.318z" fill="#0496FF"/></g><g><g><path d="m350.805 293.63c-8.274 0-16.511-1.895-23.819-5.479-5.454-2.676-7.707-9.266-5.032-14.72 2.676-5.455 9.267-7.707 14.72-5.032 4.31 2.114 9.196 3.231 14.13 3.231 8.504 0 14.494-5.087 15.373-10.006 1.168-6.541-7.68-10.558-11.538-11.98-13.648-5.034-25.767-10.429-26.276-10.655-.529-.236-1.04-.515-1.525-.831-9.279-6.049-14.06-16.658-12.477-27.688 1.687-11.754 10.282-21.33 22.431-24.99 24.041-7.242 43.832 9.078 44.663 9.776 4.65 3.908 5.251 10.848 1.342 15.498-3.893 4.631-10.791 5.247-15.441 1.39-.322-.258-11.817-9.334-24.218-5.6-5.648 1.702-6.777 5.498-7 7.052-.16 1.118-.241 3.801 2.154 5.727 3.089 1.352 13.152 5.693 23.96 9.681 22.203 8.189 27.773 24.219 25.582 36.488-2.911 16.304-18.484 28.138-37.029 28.138z" fill="#0496FF"/></g></g></g><g><g><g><path d="m211.183 441.642c-2.71 0-5.424-.995-7.55-3.002-4.417-4.171-4.617-11.133-.446-15.55l15.685-16.611-15.685-16.611c-4.171-4.417-3.971-11.379.446-15.55 4.418-4.171 11.379-3.971 15.55.446l22.815 24.163c4.002 4.239 4.002 10.864 0 15.104l-22.815 24.163c-2.164 2.291-5.079 3.448-8 3.448z" fill="#0496FF"/></g><g><path d="m112.817 441.642c-2.921 0-5.836-1.156-8-3.448l-22.815-24.164c-4.002-4.239-4.002-10.864 0-15.104l22.815-24.163c4.17-4.419 11.133-4.616 15.55-.446 4.417 4.171 4.617 11.133.446 15.55l-15.685 16.611 15.685 16.611c4.171 4.417 3.971 11.379-.446 15.55-2.125 2.007-4.84 3.003-7.55 3.003z" fill="#0496FF"/></g><g id="XMLID_825_"><path d="m156.828 445.613c-.662 0-1.333-.06-2.006-.185-5.975-1.101-9.925-6.837-8.824-12.811l10.369-56.266c1.102-5.975 6.838-9.93 12.812-8.824 5.975 1.101 9.925 6.837 8.824 12.811l-10.369 56.266c-.978 5.301-5.603 9.009-10.806 9.009z" fill="#0496FF"/></g></g></g><g id="XMLID_839_"><path d="m422 441.642h-26.824c-6.075 0-11-4.925-11-11s4.925-11 11-11h26.824c6.075 0 11 4.925 11 11s-4.925 11-11 11z" fill="#0496FF"/></g><g><g id="XMLID_838_"><path d="m422 393.315h-140.706c-6.075 0-11-4.925-11-11s4.925-11 11-11h140.706c6.075 0 11 4.925 11 11s-4.925 11-11 11z" fill="#0496FF"/></g></g></g><g><path d="m473 0h-434c-6.075 0-11 4.925-11 11v490c0 6.075 4.925 11 11 11h434c6.075 0 11-4.925 11-11v-490c0-6.075-4.925-11-11-11zm-11 22v66h-412v-66zm-412 468v-380h412v380z"/><path d="m77.89 59.21c2.421 6.278 10.766 8.799 16.27 4.939 7.25-4.663 6.13-16.156-1.9-19.309-8.916-3.786-18.148 5.457-14.37 14.37z"/><path d="m121.89 59.21c2.418 6.276 10.768 8.799 16.27 4.939 4.297-2.781 6.083-8.661 4.05-13.359-5.985-13.22-25.478-5.21-20.32 8.42z"/><path d="m165.9 59.21c2.128 5.502 8.959 8.312 14.36 5.95 13.256-6.104 5.261-25.382-8.42-20.32-5.493 2.148-8.329 8.973-5.94 14.37z"/><path d="m242.227 66h181.721c6.075 0 11-4.925 11-11s-4.925-11-11-11h-181.721c-6.075 0-11 4.925-11 11s4.925 11 11 11z"/><path d="m351.176 419.642h-69.881c-6.075 0-11 4.925-11 11s4.925 11 11 11h69.881c6.075 0 11-4.925 11-11s-4.925-11-11-11z"/></g></g><g/><g/><g/><g/><g/><g/><g/><g/><g/><g/><g/><g/><g/><g/><g/></svg>