<svg id="Capa_1" enable-background="new 0 0 512.002 512.002" viewBox="0 0 512.002 512.002" xmlns="http://www.w3.org/2000/svg" fill="#052438"><g><g><g><g><path d="m106.814 156.261c-27.162 0-49.259-22.098-49.259-49.26s22.098-49.26 49.259-49.26 49.259 22.098 49.259 49.26-22.097 49.26-49.259 49.26zm0-76.52c-15.031 0-27.259 12.229-27.259 27.26s12.229 27.26 27.259 27.26c15.031 0 27.259-12.229 27.259-27.26s-12.228-27.26-27.259-27.26z" fill="#0496FF"/></g></g><g><g><path d="m452.076 468.001h-174.148c-6.075 0-11-4.925-11-11v-78c0-6.075 4.925-11 11-11h174.148c6.075 0 11 4.925 11 11v78c0 6.075-4.925 11-11 11zm-163.148-22h152.148v-56h-152.148z" fill="#0496FF"/></g></g></g><g><g><g id="XMLID_639_"><path d="m184.547 325.313h-24.947c-6.075 0-11-4.925-11-11s4.925-11 11-11h24.947c6.075 0 11 4.925 11 11s-4.925 11-11 11z" fill="#0496FF"/></g><g id="XMLID_638_"><path d="m80.646 275.522h-24.226c-6.075 0-11-4.925-11-11s4.925-11 11-11h24.226c6.075 0 11 4.925 11 11s-4.925 11-11 11z" fill="#0496FF"/></g></g><g><path d="m56.42 325.313h59.18c6.075 0 11-4.925 11-11s-4.925-11-11-11h-59.18c-6.075 0-11 4.925-11 11s4.925 11 11 11z"/><path d="m124.646 275.522h59.901c6.075 0 11-4.925 11-11s-4.925-11-11-11h-59.901c-6.075 0-11 4.925-11 11s4.925 11 11 11z"/><path d="m501.002 236.001h-106v-57.844c0-28.513-23.197-51.709-51.709-51.709h-131.155c-.913-1.391-2.146-2.602-3.685-3.49l-7.86-4.538c.458-3.789.69-7.607.69-11.419s-.231-7.63-.69-11.419l7.86-4.538c5.261-3.038 7.064-9.766 4.026-15.026l-26-45.033c-3.038-5.262-9.766-7.063-15.026-4.026l-7.866 4.541c-6.118-4.614-12.729-8.435-19.773-11.426v-9.072c0-6.075-4.925-11-11-11h-52c-6.075 0-11 4.925-11 11v9.072c-7.043 2.991-13.656 6.812-19.773 11.426l-7.866-4.541c-2.536-1.463-5.548-1.855-8.375-1.091-2.826.766-5.23 2.626-6.68 5.169l-25.674 45.032c-2.976 5.221-1.213 11.864 3.961 14.919l7.639 4.513c-.465 3.816-.7 7.662-.7 11.5s.235 7.684.7 11.5l-7.639 4.513c-5.174 3.056-6.938 9.698-3.961 14.919l6.888 12.082c-5.408 8.333-8.332 18.1-8.332 28.143v206.325c0 28.513 23.196 51.709 51.709 51.709h97.798v31.745c0 12.166-9.898 22.064-22.065 22.064h-14.167c-6.075 0-11 4.925-11 11s4.925 11 11 11h387.726c6.075 0 11-4.925 11-11v-254c-.001-6.075-4.926-11-11.001-11zm-11 88h-250v-66h250zm-454.117-202.104c-1.021-4.889-1.539-9.9-1.539-14.896s.518-10.008 1.539-14.896c.963-4.611-1.117-9.324-5.173-11.72l-4.789-2.829 14.832-26.016 4.881 2.818c4.118 2.378 9.299 1.84 12.841-1.335 7.522-6.741 16.19-11.749 25.762-14.886 4.519-1.48 7.575-5.697 7.575-10.453v-5.684h30v5.684c0 4.756 3.056 8.973 7.575 10.453 9.573 3.137 18.241 8.145 25.763 14.886 3.542 3.176 8.723 3.714 12.841 1.335l4.934-2.848 15 25.98-4.915 2.838c-4.115 2.376-6.239 7.124-5.268 11.775 1.021 4.887 1.538 9.899 1.538 14.896s-.518 10.01-1.538 14.896c-.971 4.651 1.153 9.399 5.268 11.775l4.915 2.838-15 25.98-4.934-2.848c-4.119-2.378-9.299-1.839-12.841 1.335-7.522 6.741-16.19 11.749-25.763 14.886-4.519 1.48-7.575 5.697-7.575 10.453v5.684h-30v-5.684c0-4.756-3.056-8.973-7.575-10.453-9.572-3.137-18.24-8.145-25.762-14.886-3.541-3.175-8.723-3.713-12.841-1.335l-4.881 2.818-14.832-26.016 4.789-2.829c4.055-2.391 6.135-7.104 5.173-11.716zm-8.765 61.069c1.45 2.543 3.854 4.403 6.68 5.169 2.827.767 5.841.372 8.375-1.091l7.866-4.541c6.117 4.613 12.73 8.435 19.773 11.426v9.072c0 6.075 4.925 11 11 11h52c6.075 0 11-4.925 11-11v-9.072c7.044-2.991 13.656-6.812 19.773-11.426l7.866 4.541c5.262 3.038 11.988 1.234 15.026-4.026l19.959-34.569h136.855c16.381 0 29.709 13.327 29.709 29.709v57.844h-144c-6.075 0-11 4.925-11 11v118.472h-196v-187.317c0-1.259.084-2.509.241-3.746zm-4.968 204.507h195.85v26.719h-166.291c-15.372-.001-28.054-11.737-29.559-26.719zm149.357 80.463v-31.745h46.493v53.81h-52.44c3.774-6.494 5.947-14.028 5.947-22.065zm68.493 22.065v-144h250v144z"/><path d="m271.822 300.15c2.407 1.597 5.422 2.217 8.26 1.641 6.621-1.171 10.734-8.849 8-15-2.394-6.274-10.776-8.804-16.26-4.94-6.456 4.099-6.447 14.205 0 18.299z"/><path d="m318.712 300.15c2.388 1.597 5.43 2.217 8.25 1.641 6.626-1.159 10.743-8.847 8.01-15-2.745-7.137-12.671-9.073-17.94-3.57-4.855 4.65-4.02 13.346 1.68 16.929z"/><path d="m389.538 302.001h59.951c6.075 0 11-4.925 11-11s-4.925-11-11-11h-59.951c-6.075 0-11 4.925-11 11s4.925 11 11 11z"/></g></g></g><g/><g/><g/><g/><g/><g/><g/><g/><g/><g/><g/><g/><g/><g/><g/></svg>