<svg id="Layer_1" enable-background="new 0 0 512 512" viewBox="0 0 512 512" xmlns="http://www.w3.org/2000/svg" fill="#052438"><g><g><g><g><path d="m293.979 138.888c-1.452 0-2.91-.287-4.29-.872l-33.689-14.272-33.688 14.272c-3.552 1.506-7.635 1.039-10.757-1.229-3.121-2.268-4.826-6.006-4.493-9.851l3.164-36.45-23.983-27.628c-2.529-2.914-3.348-6.94-2.155-10.61 1.192-3.67 4.221-6.447 7.979-7.317l35.644-8.255 18.865-31.348c1.988-3.306 5.566-5.328 9.424-5.328s7.436 2.022 9.425 5.328l18.865 31.348 35.644 8.255c3.759.871 6.787 3.647 7.979 7.317 1.192 3.669.374 7.696-2.155 10.61l-23.983 27.628 3.164 36.45c.333 3.844-1.372 7.583-4.493 9.851-1.911 1.388-4.18 2.101-6.467 2.101zm-37.979-38.09c1.46 0 2.92.291 4.291.872l21.149 8.96-1.986-22.883c-.258-2.968.699-5.913 2.652-8.162l15.056-17.345-22.376-5.183c-2.901-.672-5.406-2.492-6.942-5.044l-11.844-19.68-11.844 19.68c-1.536 2.552-4.041 4.373-6.942 5.044l-22.376 5.183 15.056 17.345c1.953 2.25 2.91 5.194 2.652 8.162l-1.986 22.883 21.149-8.96c1.371-.582 2.831-.872 4.291-.872z" fill="#0496FF"/></g></g><g><path d="m80.641 169.481c-33.901 0-61.482-27.581-61.482-61.481 0-33.901 27.581-61.482 61.482-61.482s61.481 27.581 61.481 61.482-27.58 61.481-61.481 61.481zm0-100.963c-21.771 0-39.482 17.711-39.482 39.482 0 21.77 17.712 39.481 39.482 39.481s39.481-17.711 39.481-39.481c0-21.771-17.711-39.482-39.481-39.482z" fill="#0496FF"/></g><path d="m343.294 377.245-41.323-2.896.014-22.362c20.127-14.39 33.284-37.932 33.284-64.505v-48.989c0-43.708-35.56-79.268-79.269-79.268s-79.269 35.56-79.269 79.268v48.989c0 26.591 13.174 50.147 33.324 64.534l-.014 22.332-41.336 2.897c-41.791 2.929-74.527 38.04-74.527 79.934v43.821c0 6.075 4.925 11 11 11h301.643c6.075 0 11-4.925 11-11v-43.821c0-41.894-32.736-77.005-74.527-79.934zm-144.563-138.752c0-31.578 25.69-57.268 57.269-57.268s57.269 25.69 57.269 57.268v1.648h-41.314c2.957-5.652 4.639-12.071 4.639-18.879 0-6.075-4.925-11-11-11s-11 4.925-11 11c0 10.41-8.47 18.879-18.88 18.879h-36.981v-1.648zm0 48.989v-25.341h114.537v25.341c0 31.578-25.69 57.268-57.269 57.268s-57.268-25.69-57.268-57.268zm81.247 75.552-.01 16.353-23.968 19.594-23.961-19.589.01-16.349c7.561 2.402 15.605 3.707 23.951 3.707 8.356 0 16.409-1.309 23.978-3.716zm115.843 126.966h-42.747v-33.766c0-6.075-4.925-11-11-11s-11 4.925-11 11v33.766h-150.148v-33.766c0-6.075-4.925-11-11-11s-11 4.925-11 11v33.766h-42.747v-32.821c0-30.392 23.749-55.863 54.066-57.988l47.207-3.309 31.586 25.823c2.025 1.656 4.493 2.484 6.962 2.484s4.937-.828 6.962-2.484l31.586-25.823 47.208 3.309c30.316 2.125 54.065 27.596 54.065 57.988z"/><g><path d="m427.265 167.268c-2.388 0-4.774-.775-6.763-2.324l-36.661-28.577c-14.078-10.974-22.153-27.505-22.153-45.355 0-11.527 4.774-22.71 13.099-30.681 8.3-7.948 19.139-12.056 30.545-11.56 7.918.344 15.516 2.946 21.934 7.38 6.418-4.434 14.015-7.036 21.933-7.38 11.413-.485 22.244 3.611 30.546 11.56 8.324 7.971 13.099 19.154 13.099 30.681 0 17.85-8.075 34.381-22.153 45.355l-36.661 28.577c-1.991 1.549-4.378 2.324-6.765 2.324zm-23.744-96.536c-5.031 0-9.803 1.93-13.519 5.488-4.072 3.899-6.314 9.152-6.314 14.792 0 11.021 4.985 21.228 13.679 28.003l29.898 23.306 29.898-23.306c8.693-6.775 13.679-16.982 13.679-28.003 0-5.64-2.242-10.893-6.314-14.792-3.925-3.759-9.038-5.705-14.376-5.47-5.581.242-10.832 2.863-14.404 7.19-2.09 2.531-5.2 3.997-8.482 3.997s-6.393-1.466-8.482-3.997c-3.572-4.327-8.823-6.948-14.405-7.19-.288-.012-.573-.018-.858-.018z" fill="#0496FF"/></g></g></g><g/><g/><g/><g/><g/><g/><g/><g/><g/><g/><g/><g/><g/><g/><g/></svg>