<svg id="Layer_1" enable-background="new 0 0 512 512" viewBox="0 0 512 512" xmlns="http://www.w3.org/2000/svg" fill="#052438"><g><g><g><path d="m297.193 389.399c14.776-12.007 24.24-30.311 24.24-50.791 0-36.08-29.353-65.433-65.433-65.433s-65.433 29.353-65.433 65.433c0 20.479 9.464 38.783 24.24 50.791-45.351 16.794-77.763 60.481-77.763 111.599 0 6.075 4.925 11 11 11h215.913c6.075 0 11-4.925 11-11 0-51.118-32.413-94.805-77.764-111.599zm-84.626-50.791c0-23.949 19.484-43.433 43.433-43.433s43.433 19.484 43.433 43.433-19.484 43.434-43.433 43.434-43.433-19.484-43.433-43.434zm-52.903 151.39c5.48-48.301 46.594-85.957 96.336-85.957s90.856 37.656 96.336 85.957z"/><path d="m153.097 135.261c0-10.772-4.461-21.222-12.241-28.671-7.76-7.431-17.896-11.265-28.558-10.806-7.176.311-14.07 2.607-19.952 6.523-5.881-3.916-12.776-6.212-19.951-6.523-10.656-.465-20.799 3.375-28.559 10.806-7.779 7.449-12.241 17.899-12.241 28.671 0 16.573 7.497 31.922 20.568 42.111l33.42 26.05c1.988 1.549 4.375 2.324 6.763 2.324s4.775-.775 6.763-2.324l33.419-26.05c13.072-10.187 20.569-25.537 20.569-42.111zm-34.094 24.76-26.657 20.779-26.657-20.779c-7.686-5.991-12.094-15.016-12.094-24.76 0-4.873 1.938-9.412 5.456-12.781 3.204-3.068 7.317-4.733 11.653-4.733.245 0 .491.005.737.016 4.813.208 9.341 2.469 12.422 6.202 2.089 2.531 5.2 3.997 8.482 3.997 3.282 0 6.393-1.465 8.482-3.996 3.083-3.733 7.61-5.994 12.424-6.202 4.602-.193 9.004 1.475 12.389 4.716 3.519 3.369 5.456 7.909 5.456 12.782.001 9.744-4.407 18.769-12.093 24.759z"/><path d="m457.871 198.274c1.379.584 2.838.872 4.29.872 2.287 0 4.557-.713 6.467-2.101 3.122-2.268 4.827-6.006 4.493-9.85l-2.587-29.809 19.614-22.596c2.53-2.914 3.347-6.94 2.155-10.61-1.192-3.669-4.22-6.446-7.979-7.317l-29.15-6.751-15.429-25.637c-1.99-3.306-5.566-5.328-9.425-5.328s-7.435 2.022-9.425 5.328l-15.429 25.637-29.15 6.751c-3.759.871-6.787 3.647-7.979 7.317s-.375 7.696 2.154 10.61l19.615 22.596-2.587 29.81c-.333 3.844 1.372 7.583 4.493 9.851 3.121 2.267 7.203 2.734 10.757 1.229l27.551-11.672zm-46.854-27.387 1.41-16.242c.257-2.968-.7-5.913-2.652-8.162l-10.688-12.312 15.883-3.679c2.902-.672 5.407-2.492 6.943-5.044l8.407-13.969 8.407 13.969c1.536 2.552 4.041 4.373 6.943 5.044l15.883 3.679-10.688 12.312c-1.953 2.25-2.91 5.194-2.652 8.162l1.41 16.243-15.012-6.36c-1.372-.581-2.831-.872-4.291-.872s-2.919.291-4.291.872z"/><path d="m256 110.002c30.327 0 55-24.673 55-55s-24.673-55-55-55-55 24.673-55 55 24.673 55 55 55zm0-88c18.196 0 33 14.804 33 33s-14.804 33-33 33-33-14.804-33-33 14.804-33 33-33z"/><path d="m91 277.175h-80c-6.075 0-11 4.925-11 11v80c0 6.075 4.925 11 11 11h80c6.075 0 11-4.925 11-11v-80c0-6.075-4.925-11-11-11zm-11 80h-58v-58h58z"/><path d="m478.497 287.608h-34.993c-18.474 0-33.503 15.029-33.503 33.503v34.994c0 18.474 15.03 33.503 33.503 33.503h34.993c18.474 0 33.503-15.03 33.503-33.503v-34.994c0-18.473-15.03-33.503-33.503-33.503zm11.503 68.497c0 6.343-5.161 11.503-11.503 11.503h-34.993c-6.343 0-11.503-5.161-11.503-11.503v-34.994c0-6.343 5.161-11.503 11.503-11.503h34.993c6.343 0 11.503 5.16 11.503 11.503z"/></g><g><path d="m256 250.72c-6.075 0-11-4.925-11-11v-96.718c0-6.075 4.925-11 11-11s11 4.925 11 11v96.718c0 6.075-4.925 11-11 11z" fill="#0496FF"/></g><g><path d="m320.74 275.528c-2.659 0-5.324-.958-7.437-2.897-4.475-4.109-4.771-11.067-.663-15.542l43.214-47.063c4.11-4.475 11.068-4.771 15.542-.663s4.771 11.067.663 15.542l-43.214 47.063c-2.169 2.362-5.133 3.56-8.105 3.56z" fill="#0496FF"/></g><g><path d="m377 349.608h-22.567c-6.075 0-11-4.925-11-11s4.925-11 11-11h22.567c6.075 0 11 4.925 11 11s-4.925 11-11 11z" fill="#0496FF"/></g><g><path d="m190.33 275.528c-2.973 0-5.936-1.198-8.105-3.56l-43.214-47.063c-4.109-4.475-3.812-11.434.663-15.542 4.476-4.108 11.434-3.812 15.542.663l43.214 47.063c4.109 4.475 3.812 11.434-.663 15.542-2.113 1.939-4.779 2.897-7.437 2.897z" fill="#0496FF"/></g><g><path d="m156.636 349.608h-22.567c-6.075 0-11-4.925-11-11s4.925-11 11-11h22.567c6.075 0 11 4.925 11 11s-4.925 11-11 11z" fill="#0496FF"/></g></g></g><g/><g/><g/><g/><g/><g/><g/><g/><g/><g/><g/><g/><g/><g/><g/></svg>