<svg id="Capa_1" enable-background="new 0 0 512 512" viewBox="0 0 512 512" xmlns="http://www.w3.org/2000/svg" fill="#052438"><g><g><path d="m378.499 437.03c-32.273 0-58.53-26.256-58.53-58.53s26.256-58.53 58.53-58.53c32.273 0 58.529 26.256 58.529 58.53s-26.256 58.53-58.529 58.53zm0-95.06c-20.143 0-36.53 16.387-36.53 36.53s16.387 36.53 36.53 36.53c20.142 0 36.529-16.387 36.529-36.53s-16.387-36.53-36.529-36.53z" fill="#0496FF"/></g><g><g id="XMLID_648_"><path d="m210.168 475.657c-.97 0-1.94-.128-2.884-.385-30.063-8.169-58.328-21.142-84.008-38.56-25.051-16.991-47.094-37.824-65.517-61.92-18.422-24.097-32.747-50.831-42.574-79.46-10.075-29.35-15.183-60.027-15.183-91.18v-144.064c0-6.075 4.925-11 11-11 67.834 0 134.925-16.532 194.021-47.81 3.218-1.704 7.072-1.704 10.292 0 59.095 31.278 126.186 47.81 194.02 47.81 6.075 0 11 4.925 11 11v144.063c0 21.141-2.382 42.263-7.081 62.78l-21.445-4.911c4.331-18.908 6.526-38.378 6.526-57.869v-133.201c-65.687-1.645-130.402-17.986-188.166-47.55-57.766 29.565-122.481 45.906-188.168 47.55v133.201c0 57.34 18.408 111.726 53.235 157.278 34.22 44.76 80.824 76.458 134.931 91.811 25.09-7.126 48.828-17.922 70.601-32.114l12.013 18.431c-24.531 15.989-51.355 28.005-79.729 35.715-.944.257-1.914.385-2.884.385z" fill="#0496FF"/></g><g><g id="XMLID_650_"><g id="XMLID_653_"><path d="m141.78 250.713c-2.815 0-5.63-1.074-7.778-3.222l-37.198-37.198c-4.295-4.296-4.295-11.261 0-15.557l37.198-37.198c4.296-4.296 11.261-4.296 15.557 0 4.295 4.296 4.295 11.261 0 15.557l-29.42 29.419 29.42 29.42c4.295 4.296 4.295 11.261 0 15.557-2.148 2.147-4.964 3.221-7.779 3.222z" fill="#0496FF"/></g><g id="XMLID_652_"><path d="m275.811 250.713c-2.815 0-5.63-1.074-7.778-3.222-4.295-4.296-4.295-11.261 0-15.557l29.42-29.42-29.42-29.419c-4.295-4.296-4.295-11.261 0-15.557 4.296-4.296 11.261-4.296 15.557 0l37.198 37.198c4.295 4.296 4.295 11.261 0 15.557l-37.198 37.198c-2.148 2.148-4.964 3.222-7.779 3.222z" fill="#0496FF"/></g><g id="XMLID_651_"><path d="m187.342 260.705c-1.522 0-3.068-.318-4.544-.989-5.531-2.514-7.977-9.035-5.463-14.565l42.893-94.375c2.514-5.531 9.036-7.976 14.565-5.463 5.531 2.514 7.977 9.035 5.463 14.565l-42.893 94.375c-1.842 4.055-5.839 6.452-10.021 6.452z" fill="#0496FF"/></g></g></g><path d="m500.999 343.5h-12.393c-1.98-6.235-4.489-12.286-7.507-18.103l8.769-8.769c4.295-4.296 4.295-11.261 0-15.557l-33.941-33.941c-2.063-2.062-4.861-3.222-7.778-3.222s-5.715 1.159-7.778 3.222l-8.769 8.77c-5.818-3.019-11.867-5.527-18.103-7.507v-12.393c0-6.075-4.925-11-11-11h-30.674c2.326-13.407 3.51-27.096 3.51-40.849v-101.204c0-5.671-4.311-10.413-9.957-10.95-52.567-5.009-103.226-18.716-150.57-40.74-2.941-1.368-6.338-1.368-9.279 0-47.344 22.024-98.003 35.731-150.57 40.74-5.646.538-9.957 5.279-9.957 10.95v101.205c0 52.247 16.773 101.803 48.506 143.309 28.978 37.901 68.127 65.797 113.215 80.671 1.119.369 2.283.554 3.446.554s2.328-.185 3.447-.554c12.874-4.248 25.34-9.595 37.209-15.927 1.543.824 3.303 1.295 5.175 1.295h12.393c1.98 6.235 4.489 12.286 7.507 18.103l-8.769 8.769c-2.063 2.063-3.222 4.861-3.222 7.778s1.159 5.715 3.222 7.778l33.941 33.941c2.063 2.063 4.861 3.222 7.778 3.222s5.715-1.159 7.778-3.222l8.769-8.769c5.818 3.019 11.867 5.527 18.103 7.507v12.393c0 6.075 4.925 11 11 11h48c6.075 0 11-4.925 11-11v-12.393c6.235-1.979 12.285-4.488 18.103-7.507l8.769 8.77c2.063 2.063 4.861 3.222 7.778 3.222s5.715-1.159 7.778-3.222l33.941-33.941c4.295-4.296 4.295-11.261 0-15.557l-8.769-8.769c3.018-5.817 5.527-11.868 7.507-18.103h12.393c6.075 0 11-4.925 11-11v-48c-.001-6.075-4.926-11-11.001-11zm-290.83 62.57c-39.415-13.746-73.648-38.572-99.184-71.972-28.774-37.636-43.983-82.571-43.983-129.947v-91.305c49.8-5.766 97.896-19.039 143.167-39.515 45.271 20.476 93.366 33.749 143.167 39.515v91.305c0 14.252-1.392 28.421-4.135 42.21-3.397 1.872-5.7 5.485-5.7 9.638v12.306c-6.19 1.984-12.244 4.519-18.112 7.584l-8.759-8.759c-2.063-2.063-4.861-3.222-7.778-3.222s-5.715 1.159-7.778 3.222l-33.941 33.941c-2.063 2.063-3.222 4.861-3.222 7.778s1.159 5.715 3.222 7.778l8.769 8.769c-3.019 5.818-5.527 11.867-7.507 18.103h-12.393c-6.075 0-11 4.925-11 11v35.818c-11.054 6.249-22.733 11.533-34.833 15.753zm279.83-14.57h-9.762c-5.105 0-9.54 3.513-10.708 8.483-2.3 9.788-6.162 19.102-11.479 27.685-2.689 4.34-2.038 9.961 1.573 13.571l6.911 6.911-18.385 18.385-6.911-6.911c-3.61-3.61-9.231-4.261-13.572-1.573-8.583 5.317-17.896 9.18-27.683 11.479-4.971 1.168-8.484 5.603-8.484 10.708v9.762h-26v-9.762c0-5.106-3.513-9.541-8.484-10.708-9.787-2.299-19.101-6.162-27.684-11.479-4.339-2.688-9.961-2.037-13.571 1.573l-6.911 6.911-18.385-18.385 6.911-6.911c3.611-3.61 4.262-9.231 1.573-13.572-5.317-8.582-9.179-17.896-11.479-27.684-1.168-4.971-5.603-8.484-10.708-8.484h-9.762v-26h9.762c5.106 0 9.541-3.513 10.708-8.484 2.299-9.787 6.162-19.101 11.479-27.684 2.689-4.34 2.038-9.961-1.573-13.571l-6.911-6.911 18.385-18.385 6.911 6.911c3.611 3.61 9.229 4.263 13.571 1.573 8.756-5.424 18.07-9.32 27.684-11.579 4.971-1.168 8.484-5.603 8.484-10.708v-9.661h26v9.762c0 5.106 3.513 9.541 8.484 10.708 9.787 2.299 19.101 6.162 27.683 11.479 4.34 2.688 9.961 2.038 13.572-1.573l6.911-6.911 18.385 18.385-6.911 6.911c-3.61 3.61-4.262 9.231-1.573 13.571 5.317 8.583 9.179 17.897 11.479 27.685 1.168 4.97 5.603 8.483 10.708 8.483h9.762z"/></g></g><g/><g/><g/><g/><g/><g/><g/><g/><g/><g/><g/><g/><g/><g/><g/></svg>