<svg id="Capa_1" enable-background="new 0 0 512 512" viewBox="0 0 512 512" xmlns="http://www.w3.org/2000/svg" fill="#052438"><g><g><path d="m373.563 437.03c-32.273 0-58.53-26.256-58.53-58.53s26.256-58.53 58.53-58.53 58.53 26.256 58.53 58.53-26.256 58.53-58.53 58.53zm0-95.06c-20.143 0-36.53 16.387-36.53 36.53s16.387 36.53 36.53 36.53 36.53-16.387 36.53-36.53-16.387-36.53-36.53-36.53z" fill="#0496FF"/></g><g><g id="XMLID_145_"><g id="XMLID_181_"><path d="m98.134 205.393c-2.815 0-5.63-1.074-7.778-3.222l-37.198-37.198c-4.295-4.296-4.295-11.261 0-15.557l37.198-37.198c4.296-4.296 11.261-4.296 15.557 0 4.295 4.296 4.295 11.261 0 15.557l-29.42 29.419 29.42 29.419c4.295 4.296 4.295 11.261 0 15.557-2.148 2.149-4.964 3.223-7.779 3.223z" fill="#0496FF"/></g><g id="XMLID_169_"><path d="m232.165 205.393c-2.815 0-5.63-1.074-7.778-3.222-4.295-4.296-4.295-11.261 0-15.557l29.42-29.419-29.42-29.419c-4.295-4.296-4.295-11.261 0-15.557 4.296-4.296 11.261-4.296 15.557 0l37.198 37.198c2.062 2.063 3.222 4.861 3.222 7.778s-1.159 5.715-3.222 7.778l-37.198 37.198c-2.149 2.148-4.965 3.222-7.779 3.222z" fill="#0496FF"/></g><g id="XMLID_157_"><path d="m143.696 215.385c-1.522 0-3.068-.318-4.544-.989-5.531-2.514-7.977-9.035-5.463-14.565l42.893-94.374c2.514-5.532 9.037-7.976 14.565-5.463 5.531 2.514 7.977 9.035 5.463 14.565l-42.893 94.374c-1.842 4.055-5.84 6.452-10.021 6.452z" fill="#0496FF"/></g></g><g><g id="XMLID_133_"><path d="m84.258 267.382h-23.321c-6.075 0-11-4.925-11-11s4.925-11 11-11h23.322c6.075 0 11 4.925 11 11s-4.926 11-11.001 11z" fill="#0496FF"/></g><g id="XMLID_608_"><path d="m84.258 379.377h-23.321c-6.075 0-11-4.925-11-11s4.925-11 11-11h23.322c6.075 0 11 4.925 11 11s-4.926 11-11.001 11z" fill="#0496FF"/></g><g><path d="m496.063 343.5h-12.393c-1.98-6.235-4.489-12.286-7.507-18.103l8.769-8.769c2.063-2.063 3.222-4.861 3.222-7.778s-1.159-5.715-3.222-7.778l-33.941-33.941c-4.296-4.296-11.261-4.296-15.557 0l-8.769 8.77c-5.818-3.019-11.867-5.527-18.103-7.507v-12.394c0-6.075-4.925-11-11-11h-13v-152.037c0-2.917-1.159-5.716-3.222-7.779l-81.972-81.963c-2.063-2.062-4.861-3.221-7.778-3.221h-275.653c-6.075 0-11 4.925-11 11v456.385c0 6.075 4.925 11 11 11h268.714l11.484 11.484c2.063 2.063 4.861 3.222 7.778 3.222s5.715-1.159 7.778-3.222l8.769-8.769c5.818 3.019 11.867 5.527 18.103 7.507v12.393c0 6.075 4.925 11 11 11h48c6.075 0 11-4.925 11-11v-12.393c6.235-1.979 12.285-4.488 18.103-7.507l8.769 8.77c4.296 4.296 11.261 4.296 15.557 0l33.941-33.941c2.063-2.063 3.222-4.861 3.222-7.778s-1.159-5.715-3.222-7.778l-8.769-8.769c3.018-5.817 5.527-11.868 7.507-18.103h12.393c6.075 0 11-4.925 11-11v-48c-.001-6.076-4.925-11.001-11.001-11.001zm-144.814-257.293h-52.903v-52.896zm-324.312 370.178v-434.385h249.409v75.207c0 6.075 4.925 11 11 11h75.218v136.793h-13c-6.075 0-11 4.925-11 11v12.393c-6.235 1.979-12.285 4.488-18.103 7.507l-8.769-8.769c-2.063-2.063-4.861-3.222-7.778-3.222s-5.715 1.159-7.778 3.222l-33.941 33.941c-2.063 2.063-3.222 4.861-3.222 7.778s1.159 5.715 3.222 7.778l8.769 8.769c-3.019 5.818-5.527 11.867-7.507 18.103h-12.393c-6.075 0-11 4.925-11 11v48c0 6.075 4.925 11 11 11h12.393c1.979 6.235 4.488 12.285 7.507 18.103l-8.769 8.769c-2.063 2.063-3.222 4.861-3.222 7.778s1.159 5.715 3.222 7.778l.457.457zm458.126-64.885h-9.762c-5.105 0-9.54 3.513-10.708 8.483-2.3 9.788-6.162 19.102-11.479 27.685-2.689 4.34-2.038 9.961 1.573 13.571l6.911 6.911-18.385 18.385-6.911-6.912c-3.611-3.61-9.23-4.261-13.572-1.573-8.583 5.317-17.896 9.18-27.683 11.479-4.971 1.168-8.484 5.603-8.484 10.708v9.763h-26v-9.762c0-5.106-3.513-9.541-8.484-10.708-9.787-2.299-19.101-6.162-27.684-11.479-4.339-2.688-9.961-2.037-13.571 1.573l-6.911 6.911-18.385-18.385 6.911-6.911c3.611-3.61 4.262-9.231 1.573-13.571-5.317-8.583-9.18-17.897-11.479-27.684-1.168-4.971-5.603-8.484-10.708-8.484h-9.762v-26h9.762c5.106 0 9.541-3.513 10.708-8.484 2.299-9.787 6.162-19.101 11.479-27.684 2.689-4.34 2.038-9.961-1.573-13.571l-6.911-6.911 18.385-18.385 6.911 6.911c3.61 3.61 9.23 4.263 13.571 1.573 8.583-5.317 17.897-9.18 27.684-11.479 4.971-1.168 8.484-5.603 8.484-10.708v-9.762h26v9.762c0 5.106 3.513 9.541 8.484 10.708 9.787 2.299 19.101 6.162 27.683 11.479 4.341 2.689 9.961 2.038 13.572-1.573l6.911-6.912 18.385 18.385-6.911 6.911c-3.611 3.61-4.262 9.231-1.573 13.571 5.317 8.583 9.179 17.897 11.479 27.685 1.168 4.97 5.603 8.483 10.708 8.483h9.762z"/><path d="m131.314 267.382h116.378c6.075 0 11-4.925 11-11s-4.925-11-11-11h-116.378c-6.075 0-11 4.925-11 11s4.925 11 11 11z"/><path d="m206.063 357.377h-71.558c-6.075 0-11 4.925-11 11s4.925 11 11 11h71.558c6.075 0 11-4.925 11-11s-4.924-11-11-11z"/><path d="m155.823 312.38c0-6.075-4.925-11-11-11h-83.886c-6.075 0-11 4.925-11 11s4.925 11 11 11h83.887c6.074 0 10.999-4.925 10.999-11z"/></g><g id="XMLID_1999_"><path d="m220.279 323.38h-30.456c-6.075 0-11-4.925-11-11s4.925-11 11-11h30.456c6.075 0 11 4.925 11 11s-4.925 11-11 11z" fill="#0496FF"/></g></g></g></g><g/><g/><g/><g/><g/><g/><g/><g/><g/><g/><g/><g/><g/><g/><g/></svg>