<svg id="Layer_1" enable-background="new 0 0 512 512" viewBox="0 0 512 512" xmlns="http://www.w3.org/2000/svg" fill="#E6ECF2"><g><g><path d="m390.025 408.386c-4.621-4.956-9.669-9.401-15.063-13.307v-136.895c0-65.596-53.366-118.962-118.962-118.962s-118.962 53.366-118.962 118.962v136.894c-5.393 3.906-10.442 8.351-15.062 13.307-17.925 19.225-27.796 44.289-27.796 70.574v22.041c0 6.075 4.925 11 11 11h301.642c6.075 0 11-4.925 11-11v-22.041c0-26.285-9.873-51.348-27.797-70.573zm-230.987-150.202c0-53.465 43.497-96.962 96.962-96.962s96.962 43.497 96.962 96.962v124.747c-9.921-3.986-20.492-6.444-31.396-7.208l-19.596-1.374.015-24.251c15.873-13.214 25.997-33.11 25.997-55.33v-39.702c0-6.075-4.925-11-11-11h-121.964c-6.075 0-11 4.925-11 11v39.702c0 22.24 10.142 42.152 26.039 55.366l-.015 24.214-19.608 1.374c-10.903.764-21.474 3.222-31.396 7.209zm120.93 121.203-23.968 19.595-23.961-19.589.01-16.755c7.498 2.654 15.555 4.113 23.951 4.113 8.406 0 16.473-1.462 23.978-4.122zm-23.968-34.637c-27.56 0-49.982-22.422-49.982-49.982v-28.702h99.964v28.702c.001 27.561-22.421 49.982-49.982 49.982zm139.822 145.25h-42.747v-33.766c0-6.075-4.925-11-11-11s-11 4.925-11 11v33.766h-150.149v-33.766c0-6.075-4.925-11-11-11s-11 4.925-11 11v33.766h-42.747v-11.041c0-42.604 33.292-78.312 75.792-81.291l25.48-1.786 31.586 25.823c2.026 1.656 4.494 2.484 6.962 2.484s4.938-.828 6.962-2.484l31.586-25.823 25.48 1.786c42.501 2.979 75.793 38.686 75.793 81.291v11.041z"/><g><path d="m256.127 115.222c-2.388 0-4.774-.774-6.763-2.324l-35.403-27.596c-13.688-10.669-21.538-26.742-21.538-44.096 0-11.234 4.653-22.132 12.766-29.901 8.091-7.748 18.667-11.742 29.773-11.267 7.629.331 14.954 2.815 21.164 7.046 6.21-4.231 13.535-6.715 21.164-7.046 11.082-.479 21.682 3.519 29.773 11.267 8.112 7.769 12.766 18.667 12.766 29.901 0 17.354-7.85 33.426-21.537 44.096l-35.403 27.596c-1.987 1.549-4.375 2.324-6.762 2.324zm-22.928-93.222c-4.761 0-9.277 1.827-12.794 5.195-3.857 3.693-5.981 8.669-5.981 14.011 0 10.525 4.761 20.273 13.063 26.744l28.64 22.325 28.641-22.325c8.302-6.471 13.063-16.219 13.063-26.744 0-5.342-2.124-10.317-5.981-14.011-3.715-3.558-8.531-5.396-13.604-5.178-5.282.229-10.252 2.71-13.635 6.807-2.09 2.531-5.2 3.996-8.482 3.996s-6.393-1.465-8.482-3.996c-3.382-4.097-8.352-6.578-13.635-6.807-.273-.011-.543-.017-.813-.017z" fill="#0496FF"/></g><g><g><path d="m458.368 177.444c-1.452 0-2.91-.287-4.29-.872l-33.688-14.272-33.688 14.272c-3.552 1.504-7.634 1.039-10.757-1.229-3.121-2.268-4.826-6.006-4.493-9.85l3.164-36.45-23.983-27.629c-2.529-2.914-3.348-6.94-2.155-10.61 1.192-3.669 4.221-6.446 7.979-7.317l35.644-8.255 18.865-31.348c1.989-3.306 5.566-5.328 9.425-5.328s7.436 2.022 9.425 5.328l18.865 31.348 35.644 8.255c3.759.871 6.787 3.647 7.979 7.317s.374 7.696-2.155 10.61l-23.983 27.629 3.164 36.45c.333 3.844-1.372 7.582-4.493 9.85-1.912 1.388-4.181 2.101-6.469 2.101zm-37.978-38.09c1.46 0 2.92.291 4.291.872l21.149 8.959-1.986-22.882c-.258-2.967.699-5.913 2.652-8.162l15.057-17.345-22.377-5.183c-2.901-.672-5.406-2.492-6.942-5.044l-11.844-19.68-11.844 19.68c-1.536 2.552-4.041 4.373-6.942 5.044l-22.377 5.183 15.057 17.345c1.953 2.25 2.91 5.195 2.652 8.162l-1.986 22.882 21.149-8.959c1.371-.581 2.831-.872 4.291-.872z" fill="#0496FF"/></g></g><g><path d="m80.64 169.482c-33.901 0-61.481-27.581-61.481-61.481 0-33.901 27.581-61.482 61.481-61.482 33.901 0 61.482 27.581 61.482 61.482 0 33.9-27.58 61.481-61.482 61.481zm0-100.964c-21.77 0-39.481 17.711-39.481 39.482 0 21.77 17.711 39.481 39.481 39.481 21.771 0 39.482-17.711 39.482-39.481s-17.711-39.482-39.482-39.482z" fill="#0496FF"/></g></g></g><g/><g/><g/><g/><g/><g/><g/><g/><g/><g/><g/><g/><g/><g/><g/></svg>