<svg id="Capa_1" enable-background="new 0 0 512 512" viewBox="0 0 512 512" xmlns="http://www.w3.org/2000/svg" fill="#052438"><g><g fill="#0496FF"><path d="m55 100.205h80v22h-80z"/><path d="m55 144.205h80v22h-80z"/><path d="m55 188.205h80v22h-80z"/><path d="m55 232.205h80v22h-80z"/><path d="m285.434 136.111v-34.895c0-6.075-4.925-11-11-11h-95.434c-6.075 0-11 4.925-11 11v95.435c0 6.075 4.925 11 11 11h34.894c5.203 28.702 30.36 50.544 60.54 50.544 33.936 0 61.544-27.608 61.544-61.544.001-30.18-21.842-55.338-50.544-60.54zm-95.434-23.895h73.434v23.895c-25.13 4.555-44.984 24.409-49.54 49.54h-23.894zm73.434 46.459v26.976h-26.976c3.765-12.974 14.003-23.212 26.976-26.976zm11 77.519c-17.987 0-33.198-12.076-37.976-28.544h37.976c6.075 0 11-4.925 11-11v-37.976c16.468 4.778 28.544 19.988 28.544 37.976.001 21.805-17.739 39.544-39.544 39.544z"/></g><g><path d="m373 156.205h84c6.075 0 11-4.925 11-11v-84c0-6.075-4.925-11-11-11h-84c-6.075 0-11 4.925-11 11v84c0 6.075 4.925 11 11 11zm11-84h62v62h-62z"/><path d="m373 298.205h84c6.075 0 11-4.925 11-11v-84c0-6.075-4.925-11-11-11h-84c-6.075 0-11 4.925-11 11v84c0 6.075 4.925 11 11 11zm11-84h62v62h-62z"/><path d="m461 6.205h-410c-28.122 0-51 22.879-51 51v298c0 28.121 22.878 51 51 51h145.403v45.153c0 17.886-14.551 32.437-32.437 32.437h-18.611c-6.075 0-11 4.925-11 11s4.925 11 11 11h221.29c6.075 0 11-4.925 11-11s-4.925-11-11-11h-18.611c-17.886 0-32.437-14.551-32.437-32.437v-45.153h145.403c28.122 0 51-22.879 51-51v-298c0-28.121-22.878-51-51-51zm-410 22h410c15.991 0 29 13.01 29 29v263h-468v-263c0-15.99 13.009-29 29-29zm253.345 455.59h-96.691c6.748-9.065 10.748-20.292 10.748-32.437v-45.153h75.194v45.153c.001 12.145 4.001 23.371 10.749 32.437zm156.655-99.59h-410c-15.991 0-29-13.01-29-29v-13h468v13c0 15.99-13.009 29-29 29z"/><path d="m55 298.205h80c6.075 0 11-4.925 11-11v-226c0-6.075-4.925-11-11-11h-80c-6.075 0-11 4.925-11 11v226c0 6.075 4.925 11 11 11zm11-226h58v204h-58z"/></g></g><g/><g/><g/><g/><g/><g/><g/><g/><g/><g/><g/><g/><g/><g/><g/></svg>