<svg id="Capa_1" enable-background="new 0 0 512 512" viewBox="0 0 512 512" xmlns="http://www.w3.org/2000/svg" fill="#052438"><g><g><path d="m102 242.559c18.196 0 33-14.804 33-33 0-6.075-4.925-11-11-11s-11 4.925-11 11c0 6.065-4.935 11-11 11s-11-4.935-11-11v-44c0-6.065 4.935-11 11-11s11 4.935 11 11c0 6.075 4.925 11 11 11s11-4.925 11-11c0-18.196-14.804-33-33-33s-33 14.804-33 33v44c0 18.196 14.804 33 33 33z"/><path d="m311 347.769c0 18.196 14.804 33 33 33s33-14.804 33-33c0-6.075-4.925-11-11-11s-11 4.925-11 11c0 6.065-4.935 11-11 11s-11-4.935-11-11v-44c0-6.065 4.935-11 11-11s11 4.935 11 11c0 6.075 4.925 11 11 11s11-4.925 11-11c0-18.196-14.804-33-33-33s-33 14.804-33 33z"/><path d="m190 242.559c18.196 0 33-14.804 33-33v-44c0-18.196-14.804-33-33-33s-33 14.804-33 33v44c0 18.196 14.804 33 33 33zm-11-77c0-6.065 4.935-11 11-11s11 4.935 11 11v44c0 6.065-4.935 11-11 11s-11-4.935-11-11z"/><path d="m58 380.769h4c28.122 0 51-22.878 51-51v-8c0-28.122-22.878-51-51-51h-4c-6.075 0-11 4.925-11 11v88c0 6.075 4.925 11 11 11zm11-87.146c12.62 3.14 22 14.568 22 28.146v8c0 13.578-9.38 25.006-22 28.146z"/><path d="m501 88.559h-490c-6.075 0-11 4.925-11 11v312.883c0 6.075 4.925 11 11 11h490c6.075 0 11-4.925 11-11v-312.883c0-6.076-4.925-11-11-11zm-11 312.882h-468v-290.882h468z"/><path d="m256 242.559c6.075 0 11-4.925 11-11v-41.403l23.161 46.323c1.894 3.788 5.743 6.082 9.836 6.082.838 0 1.686-.096 2.53-.295 4.965-1.172 8.473-5.604 8.473-10.706v-88c0-6.075-4.925-11-11-11s-11 4.925-11 11v41.403l-23.161-46.323c-2.282-4.563-7.401-6.959-12.366-5.786-4.965 1.172-8.473 5.604-8.473 10.706v88c0 6.074 4.925 10.999 11 10.999z"/><path d="m223 369.769c0 6.075 4.925 11 11 11s11-4.925 11-11v-41.403l23.161 46.323c1.894 3.788 5.743 6.082 9.836 6.082.838 0 1.686-.096 2.53-.295 4.965-1.172 8.473-5.604 8.473-10.706v-88c0-6.075-4.925-11-11-11s-11 4.925-11 11v41.403l-23.161-46.323c-2.282-4.562-7.398-6.959-12.366-5.786-4.965 1.172-8.473 5.604-8.473 10.706z"/><path d="m344 242.559c6.075 0 11-4.925 11-11v-33h23c6.075 0 11-4.925 11-11s-4.925-11-11-11h-23v-22h33c6.075 0 11-4.925 11-11s-4.925-11-11-11h-44c-6.075 0-11 4.925-11 11v88c0 6.075 4.925 11 11 11z"/><path d="m135 369.769c0 6.075 4.925 11 11 11h44c6.075 0 11-4.925 11-11s-4.925-11-11-11h-33v-22h23c6.075 0 11-4.925 11-11s-4.925-11-11-11h-23v-22h33c6.075 0 11-4.925 11-11s-4.925-11-11-11h-44c-6.075 0-11 4.925-11 11z"/><path d="m399 369.769c0 6.075 4.925 11 11 11h44c6.075 0 11-4.925 11-11s-4.925-11-11-11h-33v-22h23c6.075 0 11-4.925 11-11s-4.925-11-11-11h-23v-22h33c6.075 0 11-4.925 11-11s-4.925-11-11-11h-44c-6.075 0-11 4.925-11 11z"/><path d="m432 242.559c6.075 0 11-4.925 11-11v-88c0-6.075-4.925-11-11-11s-11 4.925-11 11v88c0 6.075 4.925 11 11 11z"/></g><g fill="#0496FF"><path d="m256 0c-6.075 0-11 4.925-11 11v28.599c0 6.075 4.925 11 11 11s11-4.925 11-11v-28.599c0-6.075-4.925-11-11-11z"/><path d="m287.79 63.585c1.997 1.532 4.352 2.273 6.688 2.273 3.303 0 6.569-1.482 8.735-4.305l16.769-21.857c3.698-4.82 2.788-11.725-2.032-15.423-4.819-3.697-11.725-2.788-15.423 2.032l-16.769 21.857c-3.697 4.82-2.788 11.725 2.032 15.423z"/><path d="m209.473 26.304c-3.698-4.82-10.604-5.729-15.423-2.032-4.82 3.698-5.729 10.603-2.032 15.423l16.769 21.857c2.166 2.823 5.432 4.305 8.735 4.305 2.336 0 4.691-.741 6.688-2.273 4.82-3.698 5.729-10.603 2.032-15.423z"/><path d="m256 461.401c-6.075 0-11 4.925-11 11v28.599c0 6.075 4.925 11 11 11s11-4.925 11-11v-28.599c0-6.075-4.925-11-11-11z"/><path d="m224.21 448.415c-4.82-3.696-11.724-2.788-15.423 2.032l-16.769 21.857c-3.698 4.82-2.788 11.725 2.032 15.423 1.997 1.532 4.352 2.273 6.688 2.273 3.303 0 6.569-1.482 8.735-4.305l16.769-21.857c3.697-4.82 2.788-11.725-2.032-15.423z"/><path d="m303.213 450.447c-3.698-4.82-10.604-5.729-15.423-2.032-4.82 3.698-5.729 10.603-2.032 15.423l16.769 21.857c2.166 2.823 5.432 4.305 8.735 4.305 2.336 0 4.691-.741 6.688-2.273 4.82-3.698 5.729-10.603 2.032-15.423z"/></g></g><g/><g/><g/><g/><g/><g/><g/><g/><g/><g/><g/><g/><g/><g/><g/></svg>