<svg id="Capa_1" enable-background="new 0 0 512 512" viewBox="0 0 512 512" xmlns="http://www.w3.org/2000/svg" fill="#E6ECF2"><g><path d="m144.428 326.694 136.307-136.379 74.87 74.87c4.297 4.296 11.26 4.296 15.557 0l73.951-73.951v2.85c0 6.075 4.925 11 11 11s11-4.925 11-11v-29.406c0-6.075-4.925-11-11-11h-29.406c-6.075 0-11 4.925-11 11s4.925 11 11 11h2.85l-66.173 66.173-74.872-74.872c-2.063-2.063-4.862-3.222-7.779-3.222-2.918 0-5.717 1.16-7.779 3.224l-135.523 135.594-62.591-75.93-16.977 13.994 70.296 85.277z"/><path d="m371.393 151.306h-29.406c-6.075 0-11 4.925-11 11s4.925 11 11 11h3.623l-66.361 66.361-76.306-94.338c-1.962-2.425-4.859-3.903-7.974-4.067-3.093-.16-6.151 1.001-8.357 3.207l-58.625 58.625-53.754-55.208-15.762 15.348 61.53 63.195c2.053 2.108 4.864 3.306 7.808 3.326h.073c2.916 0 5.715-1.158 7.778-3.222l57.864-57.865 76.306 94.339c1.962 2.424 4.859 3.903 7.974 4.067.194.01.387.015.58.015 2.908 0 5.709-1.154 7.777-3.222l74.231-74.231v2.077c0 6.075 4.925 11 11 11s11-4.925 11-11v-29.407c.001-6.075-4.924-11-10.999-11z" fill="#0496FF"/><g><path d="m107.62 47.22c-6.888 6.803-1.909 18.843 7.779 18.78 9.695.065 14.676-11.973 7.78-18.78-4.088-4.251-11.469-4.245-15.559 0z"/><path d="m149.25 50.79c-3.138 6.921 2.573 15.423 10.149 15.21 7.585.217 13.282-8.283 10.16-15.21-3.54-8.953-16.776-8.957-20.309 0z"/><path d="m194.26 48.89c-4.923 7.098.515 17.241 9.139 17.11 7.587.224 13.284-8.288 10.16-15.21-3.126-7.999-14.657-9.151-19.299-1.9z"/><path d="m451.948 44h-182.369c-6.075 0-11 4.925-11 11s4.925 11 11 11h182.369c6.075 0 11-4.925 11-11s-4.925-11-11-11z"/><path d="m501 0h-434.648c-6.075 0-11 4.925-11 11v307.918h22v-208.918h412.648v286.458h-291.765v22h302.765c6.075 0 11-4.925 11-11v-396.458c0-6.075-4.925-11-11-11zm-423.648 88v-66h412.648v66z"/></g><path d="m104.617 302.765c-57.686 0-104.617 46.931-104.617 104.617s46.931 104.618 104.617 104.618 104.618-46.931 104.618-104.618-46.931-104.617-104.618-104.617zm81.864 93.618h-70.864v-70.864c36.77 4.916 65.948 34.094 70.864 70.864zm-164.481 10.999c0-41.824 31.246-76.465 71.617-81.863v81.864c0 1.622.358 3.224 1.051 4.691l34.923 74.059c-7.883 2.506-16.271 3.867-24.973 3.867-45.556 0-82.618-37.062-82.618-82.618zm127.47 69.328-27.504-58.327h64.515c-3.265 24.417-17.225 45.482-37.011 58.327z" fill="#0496FF"/><g><path d="m456.112 366.458h-114.126c-6.075 0-11-4.925-11-11s4.925-11 11-11h114.126c6.075 0 11 4.925 11 11s-4.924 11-11 11z"/></g><g><path d="m456.112 318.458h-114.126c-6.075 0-11-4.925-11-11s4.925-11 11-11h114.126c6.075 0 11 4.925 11 11s-4.924 11-11 11z"/></g></g><g/><g/><g/><g/><g/><g/><g/><g/><g/><g/><g/><g/><g/><g/><g/></svg>