<svg id="Capa_1" enable-background="new 0 0 512 512" height="512" viewBox="0 0 512 512" width="512" xmlns="http://www.w3.org/2000/svg" fill="#E6ECF2"><g><g><path d="m400.77 446.007h-289.539c-6.075 0-11-4.925-11-11v-176.837c0-6.075 4.925-11 11-11h289.539c6.075 0 11 4.925 11 11v176.837c0 6.075-4.925 11-11 11zm-278.539-22h267.539v-154.837h-267.539z" fill="#0496FF"/></g><g><path d="m362.031 200.762h-212.062c-27.426 0-49.738-22.312-49.738-49.738v-59.493c0-6.075 4.925-11 11-11h289.539c6.075 0 11 4.925 11 11v59.493c0 27.426-22.313 49.738-49.739 49.738zm-239.8-98.231v48.493c0 15.295 12.443 27.738 27.738 27.738h212.062c15.295 0 27.738-12.443 27.738-27.738v-48.493z" fill="#0496FF"/></g><path d="m436.266 80.531h-75.455v-69.531c0-6.075-4.925-11-11-11h-187.622c-6.075 0-11 4.925-11 11v69.531h-75.455c-18.384 0-33.34 14.957-33.34 33.341v364.787c0 18.384 14.957 33.341 33.34 33.341h360.532c18.384 0 33.341-14.957 33.341-33.341v-364.787c-.001-18.384-14.958-33.341-33.341-33.341zm-263.077-58.531h165.621v58.531h-165.621zm274.417 456.659c0 6.253-5.088 11.341-11.341 11.341h-360.531c-6.253 0-11.34-5.087-11.34-11.341v-364.787c0-6.253 5.087-11.341 11.34-11.341h86.456 187.621 86.455c6.253 0 11.341 5.088 11.341 11.341v364.787z"/><g><path d="m280.106 151.647h-48.213c-6.075 0-11-4.925-11-11s4.925-11 11-11h48.213c6.075 0 11 4.925 11 11s-4.924 11-11 11z"/></g><g><g><g><path d="m225.308 384.721c-3.803-.435-13.642 1.976-13.484-4.5.448-3.809-2.006-13.756 4.5-13.596 3.803.435 13.642-1.977 13.484 4.5-.448 3.809 2.006 13.756-4.5 13.596zm0-33.24c-3.803-.435-13.642 1.976-13.484-4.5.448-3.809-2.006-13.756 4.5-13.596 3.803.434 13.642-1.977 13.484 4.5-.448 3.809 2.006 13.757-4.5 13.596z"/></g></g><path d="m289.596 308.456h-40.014c-2.485 0-4.5 2.015-4.5 4.5v67.266c0 2.485 2.015 4.5 4.5 4.5h40.014c2.485 0 4.5-2.015 4.5-4.5v-67.266c0-2.486-2.015-4.5-4.5-4.5zm-13.597 18.095v40.074h-12.933v-40.074z"/><g><path d="m192.05 308.456h-33.914c-2.485 0-4.5 2.015-4.5 4.5v9.095c0 2.485 2.015 4.5 4.5 4.5h20.317v3.024 50.646c0 2.485 2.015 4.5 4.5 4.5h9.096c2.485 0 4.5-2.015 4.5-4.5v-49.86-.787-16.619c.001-2.485-2.014-4.499-4.499-4.499z"/></g><path d="m353.864 308.456h-40.014c-2.485 0-4.5 2.015-4.5 4.5v67.266c0 2.485 2.015 4.5 4.5 4.5h40.014c2.485 0 4.5-2.015 4.5-4.5v-67.266c0-2.486-2.014-4.5-4.5-4.5zm-13.596 18.095v40.074h-12.933v-40.074z"/></g></g></svg>