<svg id="Capa_1" enable-background="new 0 0 511.999 511.999" height="512" viewBox="0 0 511.999 511.999" width="512" xmlns="http://www.w3.org/2000/svg" fill="#E6ECF2"><g><path d="m427.392 166.834-163.614-163.613c-4.296-4.295-11.261-4.295-15.557 0l-163.613 163.613c-4.295 4.296-4.295 11.261 0 15.557 4.296 4.295 11.261 4.295 15.557 0l21.215-21.215v162.613h-9.077c-6.075 0-11 4.925-11 11s4.925 11 11 11h9.077 71.859v49.293c-13.64 4.584-23.497 17.482-23.497 32.647v73.272c0 6.075 4.925 11 11 11h46.993c6.075 0 11-4.925 11-11v-73.272c0-15.165-9.857-28.063-23.496-32.647v-49.292h81.521v28.861c-13.64 4.584-23.496 17.482-23.496 32.647v73.271c0 6.075 4.925 11 11 11h46.993c6.075 0 11-4.925 11-11v-73.271c0-15.165-9.857-28.062-23.497-32.647v-28.861h71.859 9.077c6.075 0 11-4.925 11-11s-4.925-11-11-11h-9.077v-162.614l21.215 21.215c2.148 2.148 4.963 3.222 7.778 3.222s5.63-1.074 7.778-3.222c4.297-4.296 4.297-11.261.002-15.557zm-210.656 323.165h-24.993v-62.272c0-6.859 5.58-12.439 12.439-12.439h.115c6.859 0 12.439 5.58 12.439 12.439zm103.521-20.431h-24.993v-62.271c0-6.859 5.58-12.44 12.439-12.44h.115c6.859 0 12.439 5.58 12.439 12.44zm48.363-145.779h-225.24v-184.613l112.62-112.62 112.62 112.62z"/><g><g><path d="m256 297.525c-46.815 0-84.901-38.086-84.901-84.9s38.086-84.901 84.901-84.901 84.901 38.087 84.901 84.901-38.087 84.9-84.901 84.9zm0-147.802c-34.684 0-62.901 28.218-62.901 62.901s28.217 62.9 62.901 62.9 62.901-28.217 62.901-62.9-28.218-62.901-62.901-62.901z" fill="#0496FF"/></g><g><path d="m273.413 223.988h-17.413c-6.075 0-11-4.925-11-11v-23.513c0-6.075 4.925-11 11-11s11 4.925 11 11v12.513h6.414c6.075 0 11 4.925 11 11s-4.925 11-11.001 11z"/></g></g><g><path d="m266.323 101.203h-20.646c-6.075 0-11-4.925-11-11s4.925-11 11-11h20.646c6.075 0 11 4.925 11 11s-4.925 11-11 11z"/></g></g></svg>