<svg id="Capa_1" enable-background="new 0 0 502.498 502.498" viewBox="0 0 502.498 502.498" xmlns="http://www.w3.org/2000/svg" fill="#E6ECF2"><g><g><path d="m425.272 72.083c-46.483-46.483-108.286-72.083-174.023-72.083s-127.54 25.6-174.023 72.083-72.082 108.285-72.082 174.022 25.6 127.54 72.083 174.023 108.286 72.083 174.023 72.083c42.85 0 84.788-11.11 121.771-32.198l56.079 40.41c1.909 1.375 4.164 2.076 6.432 2.076 1.712 0 3.431-.399 5.012-1.208 3.675-1.882 5.987-5.663 5.987-9.792v-95.61c33.265-43.267 50.826-94.97 50.826-149.782-.003-65.739-25.602-127.541-72.085-174.024zm1.639 313.182c-1.542 1.945-2.382 4.354-2.382 6.836v77.912l-44.479-32.051c-3.591-2.588-8.384-2.771-12.165-.463-35.038 21.4-75.37 32.712-116.637 32.712-59.861 0-116.139-23.311-158.466-65.639-42.328-42.328-65.639-98.606-65.639-158.467s23.312-116.138 65.64-158.466c42.327-42.328 98.605-65.639 158.466-65.639s116.139 23.311 158.466 65.639c42.328 42.328 65.639 98.605 65.639 158.466 0 51.091-16.751 99.212-48.443 139.16z"/><path d="m196.722 231.928c6.075 0 11-4.925 11-11v-19.146c0-6.075-4.925-11-11-11s-11 4.925-11 11v19.146c0 6.075 4.925 11 11 11z"/><path d="m305.776 190.782c-6.075 0-11 4.925-11 11v19.146c0 6.075 4.925 11 11 11s11-4.925 11-11v-19.146c0-6.075-4.925-11-11-11z"/><path d="m305.776 262.11h-109.054c-6.075 0-11 4.925-11 11 0 36.132 29.395 65.527 65.527 65.527s65.527-29.395 65.527-65.527c0-6.075-4.925-11-11-11zm-54.527 54.527c-20.202 0-37.234-13.834-42.119-32.527h84.238c-4.885 18.693-21.917 32.527-42.119 32.527z"/></g><path d="m251.249 73.605c-95.117 0-172.5 77.383-172.5 172.5s77.383 172.5 172.5 172.5 172.5-77.383 172.5-172.5-77.383-172.5-172.5-172.5zm0 323c-82.986 0-150.5-67.514-150.5-150.5s67.514-150.5 150.5-150.5 150.5 67.514 150.5 150.5-67.514 150.5-150.5 150.5z" fill="#0496FF"/></g><g/><g/><g/><g/><g/><g/><g/><g/><g/><g/><g/><g/><g/><g/><g/></svg>