<svg id="Capa_1" enable-background="new 0 0 512 512" height="512" viewBox="0 0 512 512" width="512" xmlns="http://www.w3.org/2000/svg" fill="#E6ECF2"><g><g><path d="m319.39 155.307h-51.265c-2.485 0-4.5 2.015-4.5 4.5v86.18c0 2.485 2.015 4.5 4.5 4.5h51.265c2.485 0 4.5-2.015 4.5-4.5v-86.18c0-2.485-2.015-4.5-4.5-4.5zm-35.255 74.526v-53.873h19.101v53.873z"/><path d="m236.061 155.307h-43.45c-2.485 0-4.5 2.015-4.5 4.5v11.653c0 2.485 2.015 4.5 4.5 4.5h27.296v70.027c0 2.485 2.015 4.5 4.5 4.5h11.654c2.485 0 4.5-2.015 4.5-4.5v-86.18c0-2.485-2.015-4.5-4.5-4.5z"/></g><g><path d="m453.524 475.124h-395.048c-4.124 0-7.901-2.307-9.785-5.976l-47.476-92.464c-.799-1.555-1.215-3.277-1.215-5.024v-231.32c0-1.747.416-3.47 1.215-5.024l47.475-92.464c1.884-3.669 5.661-5.976 9.785-5.976h395.049c4.124 0 7.901 2.307 9.785 5.976l47.476 92.464c.799 1.555 1.215 3.277 1.215 5.024v231.32c0 1.747-.416 3.47-1.215 5.024l-47.476 92.464c-1.883 3.669-5.661 5.976-9.785 5.976zm-388.332-22h381.615l43.193-84.123v-226.002l-43.192-84.123h-381.616l-43.192 84.123v226.002z"/></g><g><path d="m440.005 310.986h-368.01c-6.075 0-11-4.925-11-11v-144.901c0-1.748.416-3.47 1.215-5.024l23.729-46.213c1.884-3.669 5.661-5.976 9.785-5.976h320.553c4.124 0 7.901 2.307 9.785 5.976l23.729 46.213c.799 1.555 1.215 3.277 1.215 5.024v144.902c-.001 6.074-4.926 10.999-11.001 10.999zm-357.01-22h346.01v-131.242l-19.445-37.872h-307.12l-19.445 37.872z" fill="#0496FF"/></g><g><g><path d="m415.036 420.252h-75.197c-6.075 0-11-4.925-11-11v-54.395c0-6.075 4.925-11 11-11h75.197c6.075 0 11 4.925 11 11v54.395c0 6.076-4.925 11-11 11zm-64.197-22h53.197v-32.395h-53.197z"/></g><g><path d="m172.161 420.252h-75.197c-6.075 0-11-4.925-11-11v-54.395c0-6.075 4.925-11 11-11h75.197c6.075 0 11 4.925 11 11v54.395c0 6.076-4.925 11-11 11zm-64.197-22h53.197v-32.395h-53.197z"/></g></g><g><path d="m256 422.031c-22.043 0-39.977-17.933-39.977-39.976s17.934-39.977 39.977-39.977 39.977 17.934 39.977 39.977-17.934 39.976-39.977 39.976zm0-57.952c-9.912 0-17.977 8.064-17.977 17.977 0 9.912 8.064 17.976 17.977 17.976 9.912 0 17.977-8.064 17.977-17.976 0-9.913-8.065-17.977-17.977-17.977z" fill="#0496FF"/></g></g></svg>