<svg id="Capa_1" enable-background="new 0 0 512 512" height="512" viewBox="0 0 512 512" width="512" xmlns="http://www.w3.org/2000/svg" fill="#052438"><g><path d="m416.585 124.312c-11.574-11.574-24.185-21.73-37.61-30.413l15.281-26.468 10.514 6.07c1.733 1 3.623 1.476 5.489 1.476 3.802 0 7.5-1.973 9.537-5.502 3.037-5.261 1.235-11.988-4.026-15.026l-40.079-23.141c-5.261-3.035-11.989-1.235-15.026 4.026s-1.235 11.988 4.026 15.026l10.513 6.07-15.264 26.439c-28.577-14.742-60.12-23.255-92.94-24.809v-36.06h12.14c6.075 0 11-4.925 11-11s-4.925-11-11-11h-46.279c-6.075 0-11 4.925-11 11s4.925 11 11 11h12.139v36.06c-32.819 1.555-64.363 10.067-92.94 24.81l-15.264-26.438 10.513-6.07c5.261-3.038 7.064-9.766 4.026-15.026-3.038-5.262-9.766-7.062-15.026-4.026l-40.078 23.139c-5.261 3.038-7.064 9.766-4.026 15.026 2.038 3.529 5.735 5.502 9.537 5.502 1.866 0 3.758-.476 5.49-1.476l10.513-6.07 15.28 26.469c-13.426 8.682-26.037 18.839-37.611 30.413-42.894 42.895-66.517 99.925-66.517 160.586s23.623 117.691 66.517 160.585c42.895 42.893 99.925 66.516 160.586 66.516s117.691-23.623 160.585-66.517c42.893-42.894 66.517-99.924 66.517-160.585s-23.623-117.691-66.517-160.586zm-160.585 365.688c-113.094 0-205.102-92.008-205.102-205.102s92.009-205.102 205.102-205.102 205.102 92.009 205.102 205.103-92.008 205.101-205.102 205.101z"/><g><path d="m411.107 295.898h-155.107c-6.075 0-11-4.925-11-11v-155.106c0-6.075 4.925-11 11-11 91.591 0 166.106 74.515 166.106 166.106 0 2.917-1.159 5.715-3.222 7.778-2.061 2.063-4.86 3.222-7.777 3.222zm-144.107-22h132.69c-5.362-70.71-61.98-127.328-132.69-132.69z" fill="#0496FF"/></g><g><path d="m256 451.004c-91.591 0-166.106-74.515-166.106-166.105 0-66.836 39.84-126.902 101.498-153.026 5.591-2.372 12.049.242 14.42 5.837 2.37 5.594-.243 12.05-5.837 14.419-53.507 22.671-88.081 74.786-88.081 132.771 0 79.46 64.646 144.105 144.106 144.105 58.411 0 110.673-34.924 133.144-88.972 2.333-5.611 8.778-8.265 14.38-5.935 5.609 2.332 8.267 8.771 5.935 14.38-12.453 29.953-33.263 55.475-60.18 73.804-27.593 18.79-59.849 28.722-93.279 28.722z"/></g></g></svg>