<svg id="Capa_1" enable-background="new 0 0 512 512" height="512" viewBox="0 0 512 512" width="512" xmlns="http://www.w3.org/2000/svg" fill="#E6ECF2"><g><g><path d="m256 95.551c-6.075 0-11-4.925-11-11v-13.021c0-6.075 4.925-11 11-11s11 4.925 11 11v13.021c0 6.075-4.925 11-11 11z"/></g><g><path d="m190.394 108.604c-4.316 0-8.411-2.557-10.166-6.793l-4.983-12.029c-2.325-5.612.34-12.047 5.952-14.372 5.608-2.324 12.046.338 14.372 5.952l4.983 12.029c2.325 5.612-.34 12.047-5.952 14.372-1.376.571-2.803.841-4.206.841z"/></g><g><path d="m134.768 145.768c-2.815 0-5.63-1.074-7.778-3.222l-9.207-9.207c-4.296-4.296-4.296-11.261 0-15.557 4.297-4.295 11.26-4.295 15.557 0l9.207 9.207c4.296 4.296 4.296 11.261 0 15.557-2.149 2.147-4.964 3.222-7.779 3.222z"/></g><g><path d="m97.598 201.393c-1.403 0-2.829-.27-4.206-.841l-12.029-4.983c-5.612-2.325-8.277-8.76-5.952-14.372 2.325-5.614 8.761-8.277 14.372-5.952l12.029 4.983c5.612 2.325 8.277 8.76 5.952 14.372-1.755 4.236-5.851 6.793-10.166 6.793z"/></g><g><path d="m84.551 267h-13.021c-6.075 0-11-4.925-11-11s4.925-11 11-11h13.021c6.075 0 11 4.925 11 11s-4.925 11-11 11z"/></g><g><path d="m85.576 337.597c-4.316 0-8.411-2.557-10.166-6.793-2.325-5.612.34-12.047 5.952-14.372l12.029-4.983c5.607-2.325 12.047.339 14.372 5.952 2.325 5.612-.34 12.047-5.952 14.372l-12.029 4.983c-1.376.57-2.803.841-4.206.841z"/></g><g><path d="m125.561 397.44c-2.815 0-5.63-1.074-7.778-3.222-4.296-4.296-4.296-11.261 0-15.557l9.207-9.207c4.297-4.295 11.26-4.295 15.557 0 4.296 4.296 4.296 11.261 0 15.557l-9.207 9.207c-2.15 2.147-4.964 3.222-7.779 3.222z"/></g><g><path d="m185.402 437.431c-1.403 0-2.829-.271-4.206-.841-5.612-2.325-8.277-8.76-5.952-14.372l4.983-12.029c2.325-5.614 8.759-8.277 14.372-5.952 5.612 2.325 8.277 8.76 5.952 14.372l-4.983 12.029c-1.754 4.236-5.85 6.793-10.166 6.793z"/></g><g><path d="m256 451.47c-6.075 0-11-4.925-11-11v-13.021c0-6.075 4.925-11 11-11s11 4.925 11 11v13.021c0 6.075-4.925 11-11 11z"/></g><g><path d="m326.598 437.431c-4.316 0-8.411-2.557-10.166-6.793l-4.983-12.029c-2.325-5.612.34-12.047 5.952-14.372 5.607-2.324 12.047.338 14.372 5.952l4.983 12.029c2.325 5.612-.34 12.047-5.952 14.372-1.376.57-2.803.841-4.206.841z"/></g><g><path d="m386.44 397.44c-2.816 0-5.63-1.074-7.778-3.222l-9.207-9.207c-4.296-4.296-4.296-11.261 0-15.557 4.297-4.295 11.26-4.295 15.557 0l9.207 9.207c4.296 4.296 4.296 11.261 0 15.557-2.15 2.147-4.964 3.222-7.779 3.222z"/></g><g><path d="m426.424 337.597c-1.403 0-2.829-.271-4.206-.841l-12.029-4.983c-5.612-2.325-8.277-8.76-5.952-14.372 2.325-5.614 8.761-8.276 14.372-5.952l12.029 4.983c5.612 2.325 8.277 8.76 5.952 14.372-1.755 4.236-5.851 6.793-10.166 6.793z"/></g><g><path d="m440.47 267h-13.021c-6.075 0-11-4.925-11-11s4.925-11 11-11h13.021c6.075 0 11 4.925 11 11s-4.925 11-11 11z"/></g><g><path d="m414.402 201.393c-4.316 0-8.411-2.557-10.166-6.793-2.325-5.612.34-12.047 5.952-14.372l12.029-4.983c5.607-2.326 12.046.338 14.372 5.952 2.325 5.612-.34 12.047-5.952 14.372l-12.029 4.983c-1.376.57-2.802.841-4.206.841z"/></g><g><path d="m377.232 145.768c-2.815 0-5.63-1.074-7.778-3.222-4.296-4.296-4.296-11.261 0-15.557l9.207-9.207c4.297-4.295 11.26-4.295 15.557 0 4.296 4.296 4.296 11.261 0 15.557l-9.207 9.207c-2.149 2.147-4.963 3.222-7.779 3.222z"/></g><g><path d="m321.606 108.604c-1.403 0-2.829-.271-4.206-.841-5.612-2.325-8.277-8.76-5.952-14.372l4.983-12.029c2.325-5.614 8.761-8.277 14.372-5.952 5.612 2.325 8.277 8.76 5.952 14.372l-4.983 12.029c-1.754 4.237-5.85 6.793-10.166 6.793z"/></g><g><path d="m170.22 220.429h-7.277c-2.485 0-4.5 2.015-4.5 4.5v2.232h-3.248c-2.485 0-4.5 2.015-4.5 4.5v7.368c0 2.485 2.015 4.5 4.5 4.5h3.248v43.542c0 2.485 2.015 4.5 4.5 4.5h7.277c2.485 0 4.5-2.015 4.5-4.5v-62.143c0-2.485-2.015-4.499-4.5-4.499z"/><path d="m218.55 220.429h-7.277c-2.485 0-4.5 2.015-4.5 4.5v2.232h-3.248c-2.485 0-4.5 2.015-4.5 4.5v7.368c0 2.485 2.015 4.5 4.5 4.5h3.248v43.542c0 2.485 2.015 4.5 4.5 4.5h7.277c2.485 0 4.5-2.015 4.5-4.5v-62.143c0-2.485-2.015-4.499-4.5-4.499z"/><g><path d="m260.147 240.624c-3.697.213-11.899-1.469-11.777 4.5.225 3.703-1.5 11.992 4.5 11.869 3.696-.212 11.899 1.47 11.777-4.5-.224-3.703 1.5-11.992-4.5-11.869z"/><path d="m260.147 275.202c-3.697.213-11.899-1.469-11.777 4.5.225 3.703-1.5 11.992 4.5 11.869 3.696-.212 11.899 1.47 11.777-4.5-.224-3.703 1.5-11.992-4.5-11.869z"/></g><path d="m308.476 220.429h-7.277c-2.485 0-4.5 2.015-4.5 4.5v2.232h-3.248c-2.485 0-4.5 2.015-4.5 4.5v7.368c0 2.485 2.015 4.5 4.5 4.5h3.248v43.542c0 2.485 2.015 4.5 4.5 4.5h7.277c2.485 0 4.5-2.015 4.5-4.5v-62.143c0-2.485-2.015-4.499-4.5-4.499z"/><path d="m356.806 220.429h-7.277c-2.485 0-4.5 2.015-4.5 4.5v2.232h-3.248c-2.485 0-4.5 2.015-4.5 4.5v7.368c0 2.485 2.015 4.5 4.5 4.5h3.248v43.542c0 2.485 2.015 4.5 4.5 4.5h7.277c2.485 0 4.5-2.015 4.5-4.5v-62.143c0-2.485-2.015-4.499-4.5-4.499z"/></g><g><path d="m256 512c-68.38 0-132.667-26.629-181.02-74.98-48.351-48.353-74.98-112.64-74.98-181.02s26.629-132.667 74.98-181.02c48.353-48.351 112.64-74.98 181.02-74.98s132.667 26.629 181.02 74.98c48.351 48.353 74.98 112.64 74.98 181.02s-26.629 132.667-74.98 181.02c-48.353 48.351-112.64 74.98-181.02 74.98zm0-490c-129.028 0-234 104.972-234 234s104.972 234 234 234 234-104.972 234-234-104.972-234-234-234z" fill="#0496FF"/></g></g></svg>