<svg id="Capa_1" enable-background="new 0 0 512 512" height="512" viewBox="0 0 512 512" width="512" xmlns="http://www.w3.org/2000/svg" fill="#052438"><g><g><g><path d="m402.963 393.006h-293.926c-6.075 0-11-4.925-11-11v-282.723c0-6.075 4.925-11 11-11h293.926c6.075 0 11 4.925 11 11v282.723c0 6.076-4.925 11-11 11zm-282.926-22h271.926v-260.723h-271.926z" fill="#0496FF"/></g><g><path d="m371.409 512h-230.818c-23.464 0-42.554-19.09-42.554-42.554v-426.892c0-23.464 19.09-42.554 42.554-42.554h230.818c23.464 0 42.554 19.09 42.554 42.554v426.892c0 23.464-19.09 42.554-42.554 42.554zm-230.818-490c-11.334 0-20.554 9.221-20.554 20.554v426.892c0 11.333 9.221 20.554 20.554 20.554h230.818c11.333 0 20.554-9.221 20.554-20.554v-426.892c0-11.333-9.221-20.554-20.554-20.554z"/></g><g><path d="m274.793 66.258h-37.586c-6.075 0-11-4.925-11-11s4.925-11 11-11h37.586c6.075 0 11 4.925 11 11s-4.925 11-11 11z"/></g><g><path d="m194.385 198.974h-7.277c-2.485 0-4.5 2.015-4.5 4.5v2.232h-3.248c-2.485 0-4.5 2.015-4.5 4.5v7.369c0 2.485 2.015 4.5 4.5 4.5h3.248v43.542c0 2.485 2.015 4.5 4.5 4.5h7.277c2.485 0 4.5-2.015 4.5-4.5v-62.142c0-2.486-2.015-4.501-4.5-4.501z"/><g><path d="m235.983 235.538c-3.697-.212-11.899 1.469-11.777-4.5.225-3.703-1.499-11.992 4.5-11.868 3.696.212 11.899-1.47 11.777 4.5-.225 3.702 1.499 11.991-4.5 11.868z"/></g><g><path d="m235.983 270.116c-3.697-.213-11.899 1.469-11.777-4.5.225-3.703-1.5-11.992 4.5-11.868 3.696.212 11.899-1.47 11.777 4.5-.225 3.702 1.499 11.992-4.5 11.868z"/></g><path d="m284.311 198.974h-7.277c-2.485 0-4.5 2.015-4.5 4.5v2.232h-3.248c-2.485 0-4.5 2.015-4.5 4.5v7.369c0 2.485 2.015 4.5 4.5 4.5h3.248v43.542c0 2.485 2.015 4.5 4.5 4.5h7.277c2.485 0 4.5-2.015 4.5-4.5v-62.142c0-2.486-2.014-4.501-4.5-4.501z"/><path d="m332.641 198.974h-7.277c-2.485 0-4.5 2.015-4.5 4.5v2.232h-3.248c-2.485 0-4.5 2.015-4.5 4.5v7.369c0 2.485 2.015 4.5 4.5 4.5h3.248v43.542c0 2.485 2.015 4.5 4.5 4.5h7.277c2.485 0 4.5-2.015 4.5-4.5v-62.142c0-2.486-2.015-4.501-4.5-4.501z"/></g></g><g><path d="" fill="none"/></g></g></svg>