<svg id="Capa_1" enable-background="new 0 0 512 512" height="512" viewBox="0 0 512 512" width="512" xmlns="http://www.w3.org/2000/svg" fill="#052438"><g><g><path d="m465.775 512h-419.55c-25.489 0-46.225-20.736-46.225-46.225v-419.55c0-25.489 20.736-46.225 46.225-46.225h419.551c25.488 0 46.224 20.736 46.224 46.225v419.551c0 25.488-20.736 46.224-46.225 46.224zm-419.55-490c-13.358 0-24.225 10.867-24.225 24.225v419.551c0 13.357 10.867 24.224 24.225 24.224h419.551c13.357 0 24.224-10.867 24.224-24.225v-419.55c0-13.358-10.867-24.225-24.225-24.225z"/></g><g><path d="m338.138 301.027c-1.403 0-2.829-.27-4.206-.84l-82.142-34.024c-4.11-1.703-6.79-5.714-6.79-10.163v-68.823c0-6.075 4.925-11 11-11s11 4.925 11 11v61.474l75.352 31.211c5.612 2.325 8.277 8.76 5.953 14.373-1.755 4.235-5.852 6.792-10.167 6.792z"/></g><path d="m391.247 389.191c33.788-34.305 54.673-81.352 54.673-133.191s-20.885-98.886-54.673-133.191c-.293-.382-.603-.754-.953-1.104-.349-.349-.721-.659-1.102-.951-34.304-33.789-81.352-54.675-133.192-54.675s-98.888 20.886-133.193 54.675c-.381.292-.753.602-1.102.951-.35.35-.66.722-.952 1.104-33.788 34.305-54.674 81.352-54.674 133.191s20.885 98.886 54.674 133.191c.293.382.603.754.952 1.104.349.349.721.659 1.103.952 34.305 33.789 81.352 54.674 133.192 54.674s98.887-20.886 133.192-54.674c.382-.292.754-.602 1.103-.952s.66-.722.952-1.104zm-27.367-40.868c-4.297-4.295-11.26-4.295-15.557 0-4.296 4.296-4.296 11.261 0 15.557l18.321 18.321c-26.989 23.691-61.609 38.878-99.645 41.35v-46.319c0-6.075-4.925-11-11-11s-11 4.925-11 11v46.319c-38.035-2.472-72.656-17.659-99.645-41.35l18.321-18.321c4.296-4.296 4.296-11.261 0-15.557-4.297-4.295-11.26-4.295-15.557 0l-18.321 18.321c-23.691-26.989-38.878-61.609-41.35-99.645h46.319c6.075 0 11-4.925 11-11s-4.925-11-11-11h-46.317c2.472-38.035 17.659-72.656 41.35-99.645l18.321 18.321c2.148 2.147 4.963 3.222 7.778 3.222s5.63-1.074 7.778-3.222c4.296-4.296 4.296-11.261 0-15.557l-18.321-18.321c26.989-23.691 61.609-38.878 99.645-41.35v46.319c0 6.075 4.925 11 11 11s11-4.925 11-11v-46.317c38.035 2.472 72.656 17.659 99.645 41.35l-18.321 18.321c-4.296 4.296-4.296 11.261 0 15.557 2.148 2.147 4.963 3.222 7.778 3.222s5.63-1.074 7.778-3.222l18.321-18.321c23.691 26.989 38.878 61.609 41.35 99.645h-46.319c-6.075 0-11 4.925-11 11s4.925 11 11 11h46.319c-2.472 38.035-17.659 72.656-41.35 99.645z" fill="#0496FF"/></g></svg>