<svg id="Capa_1" enable-background="new 0 0 512 512" height="512" viewBox="0 0 512 512" width="512" xmlns="http://www.w3.org/2000/svg" fill="#052438"><g><g><path d="m10.995 149.469h490.003v22h-490.003z" fill="#0496FF"/></g><g><path d="" style="fill:none;stroke:#052438;stroke-width:22;stroke-linecap:round;stroke-linejoin:round;stroke-miterlimit:10"/></g><g><path d="" style="fill:none;stroke:#052438;stroke-width:22;stroke-linecap:round;stroke-linejoin:round;stroke-miterlimit:10"/></g><g><g><path d="m256 421.324c-56.794 0-102.998-46.205-102.998-102.998 0-56.794 46.204-102.998 102.998-102.998s102.998 46.205 102.998 102.998-46.205 102.998-102.998 102.998zm0-183.996c-44.663 0-80.998 36.336-80.998 80.998s36.335 80.998 80.998 80.998 80.998-36.335 80.998-80.998-36.335-80.998-80.998-80.998z" fill="#0496FF"/></g><g><path d="m291.242 329.326h-35.242c-6.075 0-11-4.925-11-11v-35.242c0-6.075 4.925-11 11-11s11 4.925 11 11v24.242h24.242c6.075 0 11 4.925 11 11s-4.925 11-11 11z"/></g></g><path d="m501 49.271h-96.759v-12.714c0-6.075-4.925-11-11-11s-11 4.925-11 11v12.713h-115.241v-12.713c0-6.075-4.925-11-11-11s-11 4.925-11 11v12.713h-115.241v-12.713c0-6.075-4.925-11-11-11s-11 4.925-11 11v12.713h-96.759c-6.075 0-11 4.925-11 11v415.912c0 6.075 4.925 11 11 11h490c6.075 0 11-4.925 11-11v-415.911c0-6.076-4.925-11-11-11zm-11 415.912h-468v-393.912h85.759v12.713c0 6.075 4.925 11 11 11s11-4.925 11-11v-12.713h115.241v12.713c0 6.075 4.925 11 11 11s11-4.925 11-11v-12.713h115.241v12.713c0 6.075 4.925 11 11 11s11-4.925 11-11v-12.713h85.759z"/></g></svg>