<svg id="Capa_1" enable-background="new 0 0 512 512" height="512" viewBox="0 0 512 512" width="512" xmlns="http://www.w3.org/2000/svg" fill="#052438"><g><g><path d="m256 512c-68.38 0-132.667-26.628-181.019-74.981-48.353-48.352-74.981-112.639-74.981-181.019s26.628-132.667 74.981-181.019c48.352-48.353 112.639-74.981 181.019-74.981s132.667 26.628 181.019 74.981c48.353 48.352 74.981 112.639 74.981 181.019s-26.628 132.667-74.981 181.019c-48.352 48.353-112.639 74.981-181.019 74.981zm0-490c-129.028 0-234 104.972-234 234s104.972 234 234 234 234-104.972 234-234-104.972-234-234-234z"/></g><g><path d="m444.07 267h-376.14c-6.075 0-11-4.925-11-11 0-109.768 89.303-199.071 199.07-199.071s199.07 89.303 199.07 199.071c0 6.075-4.925 11-11 11zm-364.802-22h353.465c-5.7-92.532-82.79-166.071-176.732-166.071s-171.034 73.539-176.733 166.071z" fill="#0496FF"/></g><g><path d="m319.39 122.324h-51.265c-2.485 0-4.5 2.015-4.5 4.5v86.18c0 2.485 2.015 4.5 4.5 4.5h51.265c2.485 0 4.5-2.015 4.5-4.5v-86.18c0-2.485-2.015-4.5-4.5-4.5zm-35.255 74.526v-53.873h19.101v53.873z"/><path d="m236.06 122.324h-43.45c-2.485 0-4.5 2.015-4.5 4.5v11.653c0 2.485 2.015 4.5 4.5 4.5h27.296v70.027c0 2.485 2.015 4.5 4.5 4.5h11.654c2.485 0 4.5-2.015 4.5-4.5v-86.18c0-2.485-2.014-4.5-4.5-4.5z"/></g><g><g><path d="m143.877 375.026h-19.737c-19.962 0-36.202-16.24-36.202-36.202s16.24-36.203 36.202-36.203h19.737c19.962 0 36.202 16.24 36.202 36.202 0 19.963-16.24 36.203-36.202 36.203zm-19.737-50.405c-7.831 0-14.202 6.371-14.202 14.202 0 7.832 6.371 14.203 14.202 14.203h19.737c7.831 0 14.202-6.371 14.202-14.202 0-7.832-6.371-14.203-14.202-14.203z"/></g><g><path d="m265.869 375.026h-19.737c-19.962 0-36.202-16.24-36.202-36.202s16.24-36.203 36.202-36.203h19.737c19.962 0 36.202 16.24 36.202 36.202 0 19.963-16.24 36.203-36.202 36.203zm-19.738-50.405c-7.831 0-14.202 6.371-14.202 14.202 0 7.832 6.371 14.203 14.202 14.203h19.737c7.831 0 14.202-6.371 14.202-14.202 0-7.832-6.371-14.203-14.202-14.203z" fill="#0496FF"/></g><g><path d="m387.86 375.026h-19.737c-19.962 0-36.202-16.24-36.202-36.202s16.24-36.203 36.202-36.203h19.737c19.962 0 36.202 16.24 36.202 36.202 0 19.963-16.24 36.203-36.202 36.203zm-19.737-50.405c-7.831 0-14.202 6.371-14.202 14.202 0 7.832 6.371 14.203 14.202 14.203h19.737c7.831 0 14.202-6.371 14.202-14.202 0-7.832-6.371-14.203-14.202-14.203z"/></g></g><g><path d="m303.015 433.9h-94.029c-6.075 0-11-4.925-11-11s4.925-11 11-11h94.029c6.075 0 11 4.925 11 11s-4.925 11-11 11z"/></g></g></svg>