<svg id="Capa_1" enable-background="new 0 0 512 512" viewBox="0 0 512 512" xmlns="http://www.w3.org/2000/svg" fill="#052438"><g><g fill="#0496FF"><path d="m293 408c0 18.196-14.804 33-33 33h-155.556c-2.9 0-5.684 1.146-7.743 3.187l-30.701 30.425v-22.612c0-6.075-4.925-11-11-11-18.196 0-33-14.804-33-33v-156c0-18.196 14.804-33 33-33h148.774v-22h-148.774c-30.327 0-55 24.673-55 55v156c0 26.56 18.927 48.784 44 53.895v39.105c0 4.44 2.669 8.445 6.768 10.153 1.368.57 2.805.847 4.23.847 2.845 0 5.644-1.105 7.745-3.188l46.228-45.812h151.029c30.327 0 55-24.673 55-55v-99.774h-22z"/><path d="m409.313 114.323-33.068-33.068c-3.146-3.146-7.876-4.085-11.988-2.384-4.11 1.703-6.79 5.713-6.79 10.163v72.163c-7.247-4.572-15.816-7.229-25-7.229-25.916 0-47 21.084-47 47s21.084 47 47 47 47-21.084 47-47v-85.377l14.29 14.29c4.297 4.296 11.26 4.296 15.557 0 4.295-4.298 4.295-11.262-.001-15.558zm-76.847 111.644c-13.785 0-25-11.215-25-25s11.215-25 25-25 25 11.215 25 25-11.215 25-25 25z"/></g><g><path d="m215.197 303.316-73.822-42.622c-9.646-5.569-21.165-5.57-30.812 0-9.646 5.57-15.406 15.545-15.406 26.684v85.243c0 11.139 5.76 21.114 15.406 26.684 4.824 2.785 10.114 4.178 15.406 4.177 5.291 0 10.583-1.393 15.406-4.177l73.822-42.622c9.646-5.569 15.406-15.545 15.406-26.684s-5.76-21.114-15.406-26.683zm-11 34.315-73.822 42.622c-3.978 2.297-7.488.765-8.812 0-1.325-.765-4.406-3.04-4.406-7.632v-85.243c0-4.592 3.081-6.867 4.406-7.632.806-.465 2.417-1.212 4.451-1.212 1.312 0 2.802.312 4.361 1.212l73.822 42.622c3.977 2.296 4.406 6.102 4.406 7.631s-.43 5.336-4.406 7.632z"/><path d="m349 0c-89.879 0-163 73.122-163 163s73.121 163 163 163c19.455 0 38.404-3.373 56.433-10.036l37.824 37.484c2.102 2.083 4.899 3.188 7.745 3.188 1.426 0 2.863-.277 4.23-.847 4.099-1.708 6.768-5.713 6.768-10.153v-65.166c31.835-30.651 50-73.182 50-117.469 0-89.879-73.121-163.001-163-163.001zm94.616 267.539c-2.303 2.085-3.616 5.047-3.616 8.153v43.555l-24.185-23.967c-2.102-2.083-4.9-3.188-7.746-3.188-1.441 0-2.895.284-4.275.867-17.353 7.326-35.789 11.041-54.794 11.041-77.748 0-141-63.252-141-141s63.252-141 141-141 141 63.252 141 141c0 39.738-16.906 77.841-46.384 104.539z"/></g></g><g/><g/><g/><g/><g/><g/><g/><g/><g/><g/><g/><g/><g/><g/><g/></svg>