<svg id="Capa_1" enable-background="new 0 0 512 512" height="512" viewBox="0 0 512 512" width="512" xmlns="http://www.w3.org/2000/svg" fill="#052438"><g><g><path d="m501 454.625h-490c-6.075 0-11-4.925-11-11v-375.249c0-6.075 4.925-11 11-11h490c6.075 0 11 4.925 11 11v375.249c0 6.075-4.925 11-11 11zm-479-22h468v-353.249h-468z"/></g><path d="m127.755 165.248h-8.987c-2.485 0-4.5 2.015-4.5 4.5v3.813h-3.813c-2.485 0-4.5 2.015-4.5 4.5v9.1c0 2.485 2.015 4.5 4.5 4.5h3.813v45.379c0 2.485 2.015 4.5 4.5 4.5h8.987c2.485 0 4.5-2.015 4.5-4.5v-67.292c0-2.485-2.014-4.5-4.5-4.5z"/><path d="m174.468 165.248h-8.987c-2.485 0-4.5 2.015-4.5 4.5v3.813h-3.813c-2.485 0-4.5 2.015-4.5 4.5v9.1c0 2.485 2.015 4.5 4.5 4.5h3.813v45.379c0 2.485 2.015 4.5 4.5 4.5h8.987c2.485 0 4.5-2.015 4.5-4.5v-67.292c0-2.485-2.014-4.5-4.5-4.5z"/><path d="m244.007 165.106h-40.198c-2.485 0-4.5 2.015-4.5 4.5v67.576c0 2.485 2.015 4.5 4.5 4.5h40.198c2.485 0 4.5-2.015 4.5-4.5v-67.576c0-2.485-2.015-4.5-4.5-4.5zm-26.672 58.438v-40.3h13.034v40.3z"/><g><path d="m290.437 294.245h-222.327c-6.075 0-11-4.925-11-11v-159.702c0-6.075 4.925-11 11-11h222.327c6.075 0 11 4.925 11 11v159.702c0 6.075-4.925 11-11 11zm-211.327-22h200.327v-137.702h-200.327z" fill="#0496FF"/></g><g><g><path d="m345.185 260.363c-6.075 0-11-4.925-11-11v-91.938c0-6.075 4.925-11 11-11s11 4.925 11 11v91.938c0 6.075-4.925 11-11 11z"/></g><g><path d="m395.718 260.363c-6.075 0-11-4.925-11-11v-91.938c0-6.075 4.925-11 11-11s11 4.925 11 11v91.938c0 6.075-4.925 11-11 11z" fill="#0496FF"/></g><g><path d="m446.252 260.363c-6.075 0-11-4.925-11-11v-91.938c0-6.075 4.925-11 11-11s11 4.925 11 11v91.938c0 6.075-4.924 11-11 11z"/></g></g><g><path d="m395.718 399.457c-26.95 0-48.876-21.926-48.876-48.876s21.926-48.876 48.876-48.876 48.876 21.926 48.876 48.876-21.926 48.876-48.876 48.876zm0-75.752c-14.819 0-26.876 12.057-26.876 26.876s12.057 26.876 26.876 26.876 26.876-12.057 26.876-26.876-12.056-26.876-26.876-26.876z"/></g><g><g><path d="m283.362 398.871h-75.41c-6.075 0-11-4.925-11-11v-49.019c0-6.075 4.925-11 11-11h75.41c6.075 0 11 4.925 11 11v49.019c0 6.075-4.925 11-11 11zm-64.41-22h53.41v-27.019h-53.41z"/></g><g><path d="m150.595 398.871h-75.41c-6.075 0-11-4.925-11-11v-49.019c0-6.075 4.925-11 11-11h75.41c6.075 0 11 4.925 11 11v49.019c0 6.075-4.925 11-11 11zm-64.409-22h53.41v-27.019h-53.41z"/></g></g></g></svg>