<svg id="Capa_1" enable-background="new 0 0 512 512" height="512" viewBox="0 0 512 512" width="512" xmlns="http://www.w3.org/2000/svg" fill="#052438"><g><path d="m416.585 124.312c-11.574-11.574-24.184-21.73-37.61-30.413l15.281-26.468 10.514 6.07c1.733 1 3.623 1.476 5.489 1.476 3.802 0 7.5-1.973 9.537-5.502 3.037-5.261 1.235-11.988-4.026-15.026l-40.08-23.14c-5.261-3.035-11.989-1.235-15.026 4.026s-1.235 11.988 4.026 15.026l10.513 6.07-15.263 26.438c-28.577-14.742-60.12-23.255-92.94-24.81v-36.059h12.14c6.075 0 11-4.925 11-11s-4.925-11-11-11h-46.28c-6.075 0-11 4.925-11 11s4.925 11 11 11h12.14v36.06c-32.819 1.555-64.363 10.067-92.94 24.81l-15.264-26.438 10.513-6.07c5.262-3.038 7.063-9.766 4.026-15.026-3.038-5.261-9.766-7.065-15.026-4.026l-40.079 23.139c-5.262 3.038-7.063 9.766-4.026 15.026 2.038 3.529 5.734 5.502 9.537 5.502 1.865 0 3.757-.476 5.489-1.476l10.514-6.07 15.281 26.469c-13.426 8.682-26.037 18.839-37.61 30.413-42.894 42.895-66.517 99.925-66.517 160.586s23.623 117.691 66.517 160.585c42.894 42.893 99.924 66.516 160.585 66.516s117.691-23.623 160.585-66.517c42.893-42.894 66.517-99.924 66.517-160.585s-23.624-117.691-66.517-160.586zm-160.585 365.688c-113.094 0-205.102-92.008-205.102-205.102s92.008-205.102 205.102-205.102 205.102 92.009 205.102 205.103-92.008 205.101-205.102 205.101z"/><g><path d="m256 451.004c-6.075 0-11-4.925-11-11v-310.212c0-6.075 4.925-11 11-11 91.591 0 166.105 74.515 166.106 166.106-.001 91.591-74.515 166.106-166.106 166.106zm11-309.796v287.38c74.341-5.637 133.105-67.93 133.106-143.689-.001-75.76-58.765-138.054-133.106-143.691z" fill="#0496FF"/></g><g><path d="m195.679 438.8c-1.432 0-2.886-.281-4.286-.874-61.658-26.124-101.499-86.19-101.499-153.027 0-66.836 39.841-126.902 101.499-153.026 5.593-2.372 12.05.243 14.419 5.837 2.37 5.594-.243 12.05-5.837 14.419-53.507 22.672-88.081 74.787-88.081 132.771s34.574 110.1 88.081 132.77c5.594 2.37 8.207 8.826 5.837 14.42-1.777 4.191-5.849 6.71-10.133 6.71z"/></g></g></svg>