<svg id="Capa_1" enable-background="new 0 0 512 512" viewBox="0 0 512 512" xmlns="http://www.w3.org/2000/svg" fill="#052438"><g><path d="m507.787 226.269-35.952-28.185 38.292-56.929c2.505-3.723 2.497-8.594-.02-12.309-2.516-3.714-7.039-5.529-11.423-4.584l-64.992 13.996-9.331-41.596c-1.191-5.306-6.089-8.958-11.506-8.565l-39.982 2.815-14.772-36.946c-1.192-2.981-3.627-5.292-6.665-6.328s-6.379-.692-9.143.94l-37.603 22.21-40.14-49.591c-1.999-2.471-4.97-3.956-8.146-4.072-3.158-.116-6.248 1.146-8.423 3.464l-46.456 49.484-34.652-16.083c-5.157-2.394-11.294-.461-14.146 4.46l-18.344 31.633-58.197-33.584c-3.837-2.213-8.627-1.912-12.156.771-3.526 2.682-5.101 7.218-3.992 11.507l17.058 66.035-45.521 3.407c-3.547.266-6.747 2.23-8.589 5.273s-2.099 6.79-.689 10.056l19.188 44.455-37.131 28.158c-2.752 2.087-4.364 5.345-4.354 8.798.011 3.454 1.643 6.701 4.406 8.771l36.891 27.627-18.334 39.923c-1.451 3.159-1.323 6.818.345 9.869s4.68 5.132 8.123 5.615l45.31 6.359-19.965 66.297c-1.292 4.292.149 8.939 3.643 11.747 3.495 2.807 8.341 3.215 12.256 1.028l62.805-35.086 24.35 36.844c2.878 4.354 8.42 6.088 13.267 4.146l41.132-16.475 35.052 27.052c3.998 3.086 9.585 3.052 13.547-.082l33.697-26.667 94.896 89.938c2.099 1.989 4.822 3.017 7.569 3.016 1.947 0 3.907-.516 5.664-1.572 4.234-2.546 6.253-7.603 4.934-12.364l-28.326-102.274 42.486 2.243c6.049.305 11.171-4.266 11.558-10.279l2.781-43.231 41.308-1.669c3.68-.149 7.042-2.13 8.955-5.277s2.124-7.043.562-10.379l-18.153-38.763 36.836-27.586c2.739-2.051 4.368-5.261 4.405-8.683s-1.519-6.666-4.213-8.778zm-57.381 32.803c-4.173 3.125-5.579 8.749-3.368 13.47l14.931 31.88-34.669 1.401c-5.626.228-10.172 4.667-10.533 10.285l-2.719 42.264-46.887-2.475c-3.536-.19-6.941 1.338-9.156 4.097-2.216 2.759-2.969 6.415-2.024 9.824l21.838 78.846-73.08-69.261c-2.111-2.002-4.835-3.016-7.568-3.016-2.404 0-4.816.785-6.824 2.374l-34.431 27.247-33.222-25.64c-3.085-2.38-7.197-2.952-10.811-1.503l-38.644 15.478-25.035-37.882c-3.174-4.803-9.517-6.346-14.542-3.538l-47.979 26.804 15.822-52.543c.925-3.074.462-6.399-1.269-9.103s-4.557-4.517-7.736-4.962l-43.377-6.088 15.873-34.564c2.163-4.709.745-10.289-3.402-13.396l-32.316-24.202 32.369-24.548c4.034-3.059 5.459-8.476 3.453-13.124l-16.486-38.194 43.244-3.236c3.249-.243 6.224-1.914 8.121-4.563s2.522-6.002 1.708-9.158l-13.792-53.389 44.999 25.968c5.25 3.032 11.97 1.239 15.014-4.009l18.813-32.442 32.752 15.201c4.303 1.996 9.403 1.01 12.65-2.449l43.263-46.083 38.175 47.164c3.431 4.239 9.45 5.323 14.144 2.551l34.731-20.512 12.99 32.488c1.775 4.44 6.229 7.226 10.986 6.889l38.553-2.714 9.648 43.009c1.322 5.892 7.152 9.615 13.049 8.346l48.985-10.549-28.774 42.78c-3.218 4.783-2.196 11.239 2.34 14.796l32.703 25.638z"/><g fill="#0496FF"><path d="m379.277 175.676c-6.075 0-11 4.925-11 11v44c0 6.075 4.925 11 11 11s11-4.925 11-11v-44c0-6.075-4.924-11-11-11z"/><path d="m192.082 198.58h-6.465l1.817-12.295c.888-6.01-3.264-11.602-9.273-12.49-6.018-.888-11.603 3.264-12.49 9.274l-2.292 15.511h-22.773l1.817-12.295c.888-6.01-3.264-11.602-9.273-12.49-6.021-.888-11.603 3.264-12.49 9.274l-2.292 15.511h-10.83c-6.075 0-11 4.925-11 11s4.925 11 11 11h7.579l-3.79 25.646h-9.315c-6.075 0-11 4.925-11 11s4.925 11 11 11h6.064l-1.011 6.842c-.888 6.01 3.264 11.602 9.273 12.49.546.081 1.087.12 1.622.12 5.364 0 10.061-3.929 10.868-9.394l1.486-10.058h22.773l-1.011 6.842c-.888 6.01 3.264 11.602 9.273 12.49.546.081 1.087.12 1.622.12 5.364 0 10.061-3.929 10.868-9.394l1.486-10.058h11.23c6.075 0 11-4.925 11-11s-4.925-11-11-11h-7.979l3.79-25.646h9.716c6.075 0 11-4.925 11-11s-4.925-11-11-11zm-35.745 47.646h-22.773l3.79-25.646h22.773z"/><path d="m248.155 221.353h-10.198l6.281-30.461c1.227-5.95-2.602-11.768-8.552-12.995-5.946-1.222-11.768 2.602-12.995 8.552l-9.008 43.683c-.668 3.239.157 6.606 2.246 9.17s5.221 4.052 8.527 4.052h8.007l-10.726 29.566c-2.071 5.711.879 12.02 6.59 14.092 1.238.449 2.505.662 3.75.662 4.498 0 8.719-2.779 10.342-7.252l16.076-44.317c1.223-3.372.726-7.128-1.334-10.065-2.057-2.938-5.419-4.687-9.006-4.687z"/><path d="m334.683 176.743c-5.489-2.61-12.05-.278-14.659 5.208l-42.76 89.89c-2.609 5.486-.277 12.049 5.208 14.659 1.526.726 3.134 1.069 4.718 1.069 4.112 0 8.058-2.317 9.941-6.277l42.76-89.89c2.609-5.486.277-12.049-5.208-14.659z"/><circle cx="379.275" cy="274.676" r="11"/><circle cx="331.535" cy="276.671" r="11"/><circle cx="287.2" cy="188.671" r="11"/></g></g><g/><g/><g/><g/><g/><g/><g/><g/><g/><g/><g/><g/><g/><g/><g/></svg>