<svg id="Capa_1" enable-background="new 0 0 512 512" height="512" viewBox="0 0 512 512" width="512" xmlns="http://www.w3.org/2000/svg" fill="#052438"><g><g><path d="m170.22 220.429h-7.277c-2.485 0-4.5 2.015-4.5 4.5v2.232h-3.248c-2.485 0-4.5 2.015-4.5 4.5v7.369c0 2.485 2.015 4.5 4.5 4.5h3.248v43.541c0 2.485 2.015 4.5 4.5 4.5h7.277c2.485 0 4.5-2.015 4.5-4.5v-62.142c0-2.485-2.015-4.5-4.5-4.5z"/><path d="m218.55 220.429h-7.277c-2.485 0-4.5 2.015-4.5 4.5v2.232h-3.248c-2.485 0-4.5 2.015-4.5 4.5v7.369c0 2.485 2.015 4.5 4.5 4.5h3.248v43.541c0 2.485 2.015 4.5 4.5 4.5h7.277c2.485 0 4.5-2.015 4.5-4.5v-62.142c0-2.485-2.015-4.5-4.5-4.5z"/><g><path d="m260.147 240.624c-3.697.213-11.899-1.469-11.777 4.5.225 3.703-1.499 11.992 4.5 11.868 3.696-.212 11.899 1.47 11.777-4.5-.224-3.702 1.5-11.991-4.5-11.868z"/><path d="m260.147 275.202c-3.697.213-11.899-1.469-11.777 4.5.225 3.703-1.499 11.992 4.5 11.868 3.696-.212 11.899 1.47 11.777-4.5-.224-3.702 1.5-11.991-4.5-11.868z"/></g><path d="m308.476 220.429h-7.277c-2.485 0-4.5 2.015-4.5 4.5v2.232h-3.248c-2.485 0-4.5 2.015-4.5 4.5v7.369c0 2.485 2.015 4.5 4.5 4.5h3.248v43.541c0 2.485 2.015 4.5 4.5 4.5h7.277c2.485 0 4.5-2.015 4.5-4.5v-62.142c0-2.485-2.015-4.5-4.5-4.5z"/><path d="m356.806 220.429h-7.277c-2.485 0-4.5 2.015-4.5 4.5v2.232h-3.248c-2.485 0-4.5 2.015-4.5 4.5v7.369c0 2.485 2.015 4.5 4.5 4.5h3.248v43.541c0 2.485 2.015 4.5 4.5 4.5h7.277c2.485 0 4.5-2.015 4.5-4.5v-62.142c0-2.485-2.015-4.5-4.5-4.5z"/></g><g><path d="m450.865 409.538h-389.73c-33.71 0-61.135-27.425-61.135-61.135v-184.806c0-33.709 27.425-61.134 61.135-61.134h389.73c33.71 0 61.135 27.425 61.135 61.134v184.807c0 33.709-27.425 61.134-61.135 61.134zm-389.73-285.076c-21.579 0-39.135 17.556-39.135 39.135v184.807c0 21.579 17.556 39.134 39.135 39.134h389.73c21.579 0 39.135-17.556 39.135-39.134v-184.807c0-21.579-17.556-39.134-39.135-39.134h-389.73z"/></g><g><path d="m418.936 353.625h-325.873c-20.484 0-37.15-16.666-37.15-37.151v-120.948c0-20.485 16.666-37.151 37.15-37.151h325.873c20.484 0 37.15 16.666 37.15 37.151v120.948c.001 20.485-16.665 37.151-37.15 37.151zm-325.873-173.25c-8.354 0-15.15 6.797-15.15 15.151v120.948c0 8.354 6.797 15.151 15.15 15.151h325.873c8.354 0 15.15-6.797 15.15-15.151v-120.948c0-8.354-6.797-15.151-15.15-15.151z" fill="#0496FF"/></g></g></svg>