<svg id="Capa_1" enable-background="new 0 0 512 512" height="512" viewBox="0 0 512 512" width="512" xmlns="http://www.w3.org/2000/svg" fill="#052438"><g><g><path d="m464.697 460.58h-417.394c-26.083 0-47.303-21.22-47.303-47.303v-314.554c0-26.083 21.22-47.303 47.303-47.303h417.395c26.082 0 47.302 21.22 47.302 47.303v314.555c0 26.082-21.22 47.302-47.303 47.302zm-417.394-387.16c-13.952 0-25.303 11.351-25.303 25.303v314.555c0 13.952 11.351 25.303 25.303 25.303h417.395c13.952 0 25.303-11.351 25.303-25.303v-314.555c0-13.952-11.351-25.303-25.303-25.303z"/></g><g><g><path d="m260.492 220.542c-3.803.435-13.642-1.976-13.484 4.5.448 3.809-2.006 13.757 4.5 13.596 3.803-.435 13.642 1.977 13.484-4.5-.448-3.808 2.006-13.756-4.5-13.596z"/><path d="m260.492 187.303c-3.803.435-13.642-1.976-13.484 4.5.448 3.809-2.006 13.756 4.5 13.595 3.803-.434 13.642 1.977 13.484-4.5-.448-3.809 2.006-13.755-4.5-13.595z"/></g><path d="m324.779 162.373h-40.014c-2.485 0-4.5 2.015-4.5 4.5v67.266c0 2.485 2.015 4.5 4.5 4.5h40.014c2.485 0 4.5-2.015 4.5-4.5v-67.266c0-2.485-2.014-4.5-4.5-4.5zm-26.529 58.169v-40.074h12.934v40.074z"/><path d="m389.048 162.373h-40.014c-2.485 0-4.5 2.015-4.5 4.5v67.266c0 2.485 2.015 4.5 4.5 4.5h40.014c2.485 0 4.5-2.015 4.5-4.5v-67.266c0-2.485-2.015-4.5-4.5-4.5zm-26.529 58.169v-40.074h12.934v40.074z"/><path d="m162.966 162.373h-40.014c-2.485 0-4.5 2.015-4.5 4.5v67.266c0 2.485 2.015 4.5 4.5 4.5h40.014c2.485 0 4.5-2.015 4.5-4.5v-67.266c0-2.485-2.015-4.5-4.5-4.5zm-26.53 58.169v-40.074h12.934v40.074z"/><path d="m227.234 162.373h-40.014c-2.485 0-4.5 2.015-4.5 4.5v67.266c0 2.485 2.015 4.5 4.5 4.5h40.014c2.485 0 4.5-2.015 4.5-4.5v-67.266c0-2.485-2.014-4.5-4.5-4.5zm-26.53 58.169v-40.074h12.934v40.074z"/></g><g><path d="m440.506 289.098h-369.012c-6.075 0-11-4.925-11-11v-155.184c0-6.075 4.925-11 11-11h369.012c6.075 0 11 4.925 11 11v155.184c0 6.075-4.925 11-11 11zm-358.012-22h347.012v-133.184h-347.012z" fill="#0496FF"/></g><g><g><path d="m140.851 405.897c-21.657 0-39.276-17.619-39.276-39.276s17.619-39.276 39.276-39.276 39.276 17.619 39.276 39.276-17.619 39.276-39.276 39.276zm0-56.552c-9.526 0-17.276 7.75-17.276 17.276s7.75 17.276 17.276 17.276 17.276-7.75 17.276-17.276-7.75-17.276-17.276-17.276z"/></g><g><path d="m256 405.897c-21.657 0-39.276-17.619-39.276-39.276s17.619-39.276 39.276-39.276 39.276 17.619 39.276 39.276-17.619 39.276-39.276 39.276zm0-56.552c-9.526 0-17.276 7.75-17.276 17.276s7.75 17.276 17.276 17.276 17.276-7.75 17.276-17.276-7.75-17.276-17.276-17.276z" fill="#0496FF"/></g><g><path d="m371.149 405.897c-21.657 0-39.276-17.619-39.276-39.276s17.619-39.276 39.276-39.276 39.276 17.619 39.276 39.276-17.618 39.276-39.276 39.276zm0-56.552c-9.526 0-17.276 7.75-17.276 17.276s7.75 17.276 17.276 17.276 17.276-7.75 17.276-17.276-7.749-17.276-17.276-17.276z"/></g></g></g></svg>