<svg id="Capa_1" enable-background="new 0 0 512 512" viewBox="0 0 512 512" xmlns="http://www.w3.org/2000/svg" fill="#E6ECF2"><g><g fill="#0496FF"><path d="m208 150c0-19.299-15.701-35-35-35s-35 15.701-35 35 15.701 35 35 35 35-15.701 35-35zm-48 0c0-7.168 5.832-13 13-13s13 5.832 13 13-5.832 13-13 13-13-5.832-13-13z"/><path d="m265 185c19.299 0 35-15.701 35-35s-15.701-35-35-35-35 15.701-35 35 15.701 35 35 35zm0-48c7.168 0 13 5.832 13 13s-5.832 13-13 13-13-5.832-13-13 5.832-13 13-13z"/><path d="m81 115c-19.299 0-35 15.701-35 35s15.701 35 35 35 35-15.701 35-35-15.701-35-35-35zm0 48c-7.168 0-13-5.832-13-13s5.832-13 13-13 13 5.832 13 13-5.831 13-13 13z"/><path d="m460.715 222.757c-32.591-27.963-75.816-43.364-121.714-43.364-3.785 0-7.724.117-11.708.349l1.274 21.963c3.562-.207 7.073-.312 10.434-.312 83.262 0 151 57.42 151 128 0 36.775-18.736 71.828-51.404 96.169-2.786 2.076-4.428 5.346-4.428 8.821v40.061l-24.643-24.643c-3.016-3.015-7.5-4.017-11.512-2.569-18.687 6.743-38.542 10.162-59.014 10.162-83.262 0-151-57.42-151-128 0-12.601 2.164-25.059 6.432-37.029l-20.722-7.389c-5.116 14.348-7.71 29.292-7.71 44.417 0 40.389 18.213 78.259 51.286 106.636 32.591 27.963 75.816 43.364 121.714 43.364 20.611 0 40.694-3.091 59.807-9.198l38.583 38.583c2.104 2.104 4.918 3.222 7.781 3.222 1.417 0 2.846-.274 4.207-.838 4.11-1.703 6.791-5.713 6.791-10.163v-61.21c35.556-28.375 55.831-68.318 55.831-110.395 0-40.389-18.213-78.26-51.285-106.637z"/></g><g><path d="m430.217 318.394h-182.434c-6.075 0-11 4.925-11 11s4.925 11 11 11h182.434c6.075 0 11-4.925 11-11s-4.925-11-11-11z"/><path d="m338.147 366.452h-90.364c-6.075 0-11 4.925-11 11s4.925 11 11 11h90.364c6.075 0 11-4.925 11-11s-4.925-11-11-11z"/><path d="m305.203 281.335c0 6.075 4.925 11 11 11h114.014c6.075 0 11-4.925 11-11s-4.925-11-11-11h-114.014c-6.075 0-11 4.925-11 11z"/><path d="m346 150c0-40.389-18.213-78.259-51.286-106.636-32.59-27.964-75.816-43.364-121.714-43.364s-89.123 15.4-121.714 43.364c-33.072 28.377-51.286 66.247-51.286 106.636 0 42.078 20.275 82.02 55.832 110.396v61.211c0 4.449 2.68 8.46 6.791 10.163 1.361.564 2.79.838 4.207.838 2.863 0 5.676-1.118 7.781-3.222l38.583-38.583c19.112 6.106 39.195 9.197 59.806 9.197 45.898 0 89.124-15.4 121.714-43.364 33.073-28.377 51.286-66.247 51.286-106.636zm-173 128c-20.471 0-40.327-3.419-59.014-10.162-4.011-1.446-8.497-.446-11.512 2.569l-24.642 24.643v-40.061c0-3.475-1.642-6.745-4.428-8.821-32.667-24.34-51.404-59.393-51.404-96.168 0-70.58 67.739-128 151-128s151 57.42 151 128-67.738 128-151 128z"/></g></g><g/><g/><g/><g/><g/><g/><g/><g/><g/><g/><g/><g/><g/><g/><g/></svg>