<svg id="Capa_1" enable-background="new 0 0 512 512" height="512" viewBox="0 0 512 512" width="512" xmlns="http://www.w3.org/2000/svg" fill="#E6ECF2"><g><path d="m413.028 256c0-51.092-24.532-96.556-62.429-125.25l-10.032-120.661c-.473-5.702-5.24-10.089-10.962-10.089h-147.21c-5.726 0-10.493 4.392-10.963 10.098l-9.923 120.569c-37.959 28.689-62.537 74.193-62.537 125.333 0 51.04 24.483 96.465 62.316 125.164l10.145 120.757c.479 5.698 5.243 10.079 10.961 10.079h147.211c5.714 0 10.477-4.375 10.96-10.068l10.279-120.869c37.758-28.705 62.184-74.082 62.184-125.063zm-220.502-234h126.956l7.825 94.117c-21.41-10.958-45.649-17.145-71.307-17.145-25.622 0-49.828 6.17-71.215 17.1zm126.975 468h-126.992l-7.911-94.164c21.433 10.988 45.707 17.193 71.403 17.193 25.74 0 50.053-6.226 71.513-17.25zm-63.501-98.972c-74.455 0-135.028-60.573-135.028-135.028s60.573-135.028 135.028-135.028 135.028 60.573 135.028 135.028-60.573 135.028-135.028 135.028z"/><g><path d="m256 358.998c-56.793 0-102.998-46.205-102.998-102.998s46.205-102.998 102.998-102.998 102.998 46.205 102.998 102.998-46.205 102.998-102.998 102.998zm0-183.996c-44.662 0-80.998 36.336-80.998 80.998s36.336 80.998 80.998 80.998 80.998-36.336 80.998-80.998-36.336-80.998-80.998-80.998z" fill="#0496FF"/></g><g><path d="m291.242 267h-35.242c-6.075 0-11-4.925-11-11v-35.242c0-6.075 4.925-11 11-11s11 4.925 11 11v24.242h24.242c6.075 0 11 4.925 11 11s-4.925 11-11 11z"/></g></g></svg>