<svg id="Capa_1" enable-background="new 0 0 512 512" height="512" viewBox="0 0 512 512" width="512" xmlns="http://www.w3.org/2000/svg" fill="#E6ECF2"><g><g><path d="m281.665 163.47h-25.665c-6.075 0-11-4.925-11-11v-25.283c0-6.075 4.925-11 11-11s11 4.925 11 11v14.283h14.665c6.075 0 11 4.925 11 11s-4.924 11-11 11z"/></g><g><path d="m256 243.879c-49.896 0-90.489-41.006-90.489-91.409s40.593-91.41 90.489-91.41 90.489 41.007 90.489 91.41-40.593 91.409-90.489 91.409zm0-160.819c-37.765 0-68.489 31.138-68.489 69.41 0 38.273 30.724 69.409 68.489 69.409s68.489-31.137 68.489-69.409c0-38.273-30.724-69.41-68.489-69.41z" fill="#0496FF"/></g><path d="m418.114 443.911h-8.85v-273.678c0-93.867-68.754-170.233-153.264-170.233s-153.264 76.366-153.264 170.233v273.678h-8.85c-6.075 0-11 4.925-11 11v46.089c0 6.075 4.925 11 11 11h324.228c6.075 0 11-4.925 11-11v-46.089c0-6.075-4.925-11-11-11zm-293.378-273.678c0-81.736 58.885-148.233 131.264-148.233s131.264 66.497 131.264 148.233v273.678h-262.528zm282.378 319.767h-302.228v-24.089h8.85 284.528 8.85z"/><path d="m344.293 249.926c-3.794-1.838-8.307-1.346-11.614 1.269-21.798 17.223-47.902 26.417-75.552 26.661-.37-.038-.746-.057-1.126-.057s-.756.019-1.126.057c-27.65-.244-53.755-9.439-75.553-26.661-3.309-2.614-7.821-3.108-11.614-1.269-3.795 1.838-6.205 5.683-6.205 9.899v140.431c0 6.075 4.925 11 11 11h166.995c6.075 0 11-4.925 11-11v-140.431c0-4.217-2.411-8.061-6.205-9.899zm-15.795 139.33h-144.996v-108.695c18.832 10.878 39.67 17.283 61.498 18.897v18.479c-9.995 4.275-17 14.195-17 25.754 0 15.464 12.536 28 28 28s28-12.536 28-28c0-11.559-7.005-21.479-17-25.754v-18.479c21.827-1.614 42.665-8.019 61.498-18.897z"/></g></svg>