<svg id="Capa_1" enable-background="new 0 0 512 512" viewBox="0 0 512 512" xmlns="http://www.w3.org/2000/svg" fill="#E6ECF2"><g><g><g><path d="m433.834 290.666h-40.334c-6.075 0-11-4.925-11-11s4.925-11 11-11h40.334c30.97 0 56.166-25.196 56.166-56.166s-25.196-56.167-56.166-56.167c-6.075 0-11-4.925-11-11 0-24.816-11.573-47.321-31.752-61.742-20.295-14.505-45.398-18.216-68.874-10.181-4.446 1.521-9.367.051-12.25-3.659-23.572-30.346-59.094-47.751-97.458-47.751-68.006 0-123.333 55.327-123.333 123.333 0 6.075-4.925 11-11 11-30.97 0-56.167 25.196-56.167 56.167s25.196 56.166 56.167 56.166h40.333c6.075 0 11 4.925 11 11s-4.925 11-11 11h-40.333c-43.101 0-78.167-35.065-78.167-78.166 0-39.492 29.441-72.238 67.526-77.445 5.288-75.363 68.29-135.055 144.974-135.055 42.669 0 82.352 18.266 110.023 50.378 27.818-7.097 57.71-1.58 81.351 15.314 23.207 16.585 37.591 41.457 40.438 69.34 38.165 5.135 67.688 37.918 67.688 77.468 0 43.101-35.066 78.166-78.166 78.166z"/></g></g><g fill="#0496FF"><path d="m342.376 308.666h-24v-69c0-6.075-4.925-11-11-11s-11 4.925-11 11v80c0 6.075 4.925 11 11 11h35c6.075 0 11-4.925 11-11s-4.925-11-11-11z"/><path d="m196.591 271.706-10.635-4.405c-4.406-1.825-6.506-6.896-4.681-11.303 1.825-4.406 6.896-6.506 11.302-4.682l5.317 2.203c5.61 2.325 12.047-.34 14.373-5.953 2.325-5.612-.34-12.047-5.953-14.373l-5.318-2.203c-15.616-6.467-33.58.975-40.046 16.589-6.467 15.614.974 33.579 16.588 40.047l10.634 4.404c4.406 1.825 6.506 6.896 4.681 11.303-1.824 4.407-6.895 6.507-11.302 4.682l-5.317-2.203c-5.612-2.325-12.047.34-14.373 5.953s.34 12.047 5.953 14.373l5.318 2.203c3.824 1.583 7.787 2.333 11.689 2.333 12.033 0 23.475-7.131 28.357-18.921 6.468-15.616-.973-33.58-16.587-40.047z"/><path d="m263.145 271.706-10.635-4.405c-2.114-.876-3.769-2.542-4.659-4.69-.89-2.149-.898-4.497-.021-6.613.875-2.115 2.541-3.769 4.689-4.659 2.149-.89 4.497-.898 6.611-.022l5.317 2.203c5.611 2.323 12.048-.339 14.373-5.953 2.324-5.612-.341-12.047-5.953-14.372l-5.318-2.203c-7.546-3.125-15.871-3.116-23.449.022-7.578 3.139-13.473 9.022-16.596 16.566-3.125 7.543-3.117 15.872.021 23.45 3.139 7.578 9.022 13.472 16.566 16.597l10.634 4.404c2.114.876 3.769 2.542 4.659 4.69.891 2.149.898 4.497.021 6.612-1.824 4.407-6.896 6.507-11.301 4.682l-5.316-2.203c-5.613-2.324-12.047.34-14.373 5.952-2.326 5.613.339 12.047 5.952 14.373l5.318 2.203c3.824 1.583 7.787 2.333 11.689 2.333 12.033 0 23.475-7.131 28.356-18.921 3.126-7.544 3.118-15.872-.021-23.45-3.138-7.577-9.021-13.472-16.564-16.596z"/><path d="m363.5 375.666c19.851 0 36-16.149 36-36v-120c0-19.851-16.149-36-36-36h-215c-19.851 0-36 16.149-36 36v120c0 19.85 16.149 36 36 36h96.5v65.334c0 6.075 4.925 11 11 11s11-4.925 11-11v-65.334zm-229-36v-120c0-7.72 6.28-14 14-14h215c7.72 0 14 6.28 14 14v120c0 7.719-6.28 14-14 14h-215c-7.719 0-14-6.281-14-14z"/><path d="m161 462.5h-75c-6.075 0-11 4.925-11 11s4.925 11 11 11h75c6.075 0 11-4.925 11-11s-4.925-11-11-11z"/><path d="m426 462.5h-75c-6.075 0-11 4.925-11 11s4.925 11 11 11h75c6.075 0 11-4.925 11-11s-4.925-11-11-11z"/></g><g><g><path d="m346 512h-180c-6.075 0-11-4.925-11-11v-55c0-6.075 4.925-11 11-11h180c6.075 0 11 4.925 11 11v55c0 6.075-4.925 11-11 11zm-169-22h158v-33h-158z"/></g><g><path d="m453.501 507c-18.473 0-33.501-15.028-33.501-33.5s15.028-33.5 33.501-33.5c18.471 0 33.499 15.028 33.499 33.5s-15.028 33.5-33.499 33.5zm0-45c-6.342 0-11.501 5.159-11.501 11.5s5.159 11.5 11.501 11.5c6.341 0 11.499-5.159 11.499-11.5s-5.158-11.5-11.499-11.5z"/></g><g><path d="m58.5 507c-18.472 0-33.5-15.028-33.5-33.5s15.028-33.5 33.5-33.5 33.5 15.028 33.5 33.5-15.028 33.5-33.5 33.5zm0-45c-6.341 0-11.5 5.159-11.5 11.5s5.159 11.5 11.5 11.5 11.5-5.159 11.5-11.5-5.158-11.5-11.5-11.5z"/></g></g></g><g/><g/><g/><g/><g/><g/><g/><g/><g/><g/><g/><g/><g/><g/><g/></svg>