<svg id="Capa_1" enable-background="new 0 0 511.999 511.999" viewBox="0 0 511.999 511.999" xmlns="http://www.w3.org/2000/svg" fill="#052438"><g><g><path d="m460.999 25h-449.999c-6.075 0-11 4.924-11 11v360c0 6.075 4.925 11 11 11h45.443l26.778 26.778c2.148 2.148 4.963 3.222 7.778 3.222s5.63-1.074 7.778-3.222l26.778-26.778h105.445c6.075 0 11-4.925 11-11s-4.925-11-11-11h-110c-2.917 0-5.715 1.159-7.778 3.222l-22.222 22.221-22.222-22.222c-2.063-2.062-4.861-3.222-7.778-3.222h-39v-247.999h148.999c3.395 0 6.599-1.567 8.683-4.247l31.697-40.753h238.62v179c0 6.075 4.925 11 11 11s11-4.925 11-11v-235c0-6.076-4.925-11-11-11zm-255 45c-3.395 0-6.599 1.567-8.683 4.247l-31.697 40.753h-143.619v-68h427.999v23z"/><path d="m410.995 160h-139.996c-6.075 0-11 4.925-11 11s4.925 11 11 11h139.996c6.075 0 11-4.925 11-11s-4.925-11-11-11z"/><path d="m410.995 205h-139.996c-6.075 0-11 4.925-11 11s4.925 11 11 11h139.996c6.075 0 11-4.925 11-11s-4.925-11-11-11z"/><path d="m188.5 250h-127.5c-6.075 0-11 4.925-11 11s4.925 11 11 11h127.5c6.075 0 11-4.925 11-11s-4.925-11-11-11z"/><path d="m188.5 294.999h-127.5c-6.075 0-11 4.925-11 11s4.925 11 11 11h127.5c6.075 0 11-4.925 11-11s-4.925-11-11-11z"/><path d="m188.5 339.999h-127.5c-6.075 0-11 4.925-11 11s4.925 11 11 11h127.5c6.075 0 11-4.925 11-11s-4.925-11-11-11z"/><path d="m56.007 69.999h-.007c-6.075 0-10.996 4.925-10.996 11s4.928 11 11.003 11 11-4.925 11-11-4.925-11-11-11z"/><path d="m101.007 69.999h-.007c-6.075 0-10.996 4.925-10.996 11s4.928 11 11.003 11 11-4.925 11-11-4.925-11-11-11z"/><path d="m146.006 69.999h-.007c-6.075 0-10.997 4.925-10.997 11s4.929 11 11.004 11 11-4.925 11-11-4.924-11-11-11z"/></g><g fill="#0496FF"><path d="m454.875 389.999h-24v-69c0-6.075-4.925-11-11-11s-11 4.925-11 11v80c0 6.075 4.925 11 11 11h35c6.075 0 11-4.925 11-11s-4.925-11-11-11z"/><path d="m309.091 353.039-10.635-4.405c-4.406-1.825-6.506-6.896-4.681-11.303s6.899-6.506 11.302-4.682l5.316 2.202c5.609 2.323 12.047-.34 14.373-5.953 2.324-5.613-.341-12.047-5.953-14.372l-5.318-2.203c-15.614-6.467-33.58.975-40.046 16.589-6.467 15.614.974 33.579 16.588 40.047l10.635 4.404c2.114.876 3.77 2.542 4.659 4.69s.897 4.497.021 6.612-2.541 3.77-4.689 4.659c-2.151.89-4.5.897-6.613.021l-5.317-2.202c-5.611-2.321-12.047.341-14.372 5.954-2.324 5.613.342 12.047 5.954 14.372l5.317 2.202c3.763 1.559 7.721 2.338 11.684 2.338 3.981 0 7.968-.787 11.766-2.359 7.578-3.139 13.473-9.022 16.598-16.566 6.466-15.613-.976-33.578-16.589-40.045z"/><path d="m375.645 353.039-10.635-4.405c-4.406-1.825-6.506-6.896-4.681-11.303s6.899-6.506 11.302-4.682l5.316 2.202c5.609 2.323 12.047-.34 14.373-5.953 2.324-5.613-.341-12.047-5.953-14.372l-5.317-2.203c-15.617-6.467-33.581.975-40.047 16.589-6.467 15.614.974 33.579 16.588 40.047l10.634 4.404c4.407 1.825 6.507 6.896 4.682 11.303-.876 2.115-2.541 3.77-4.689 4.659-2.149.89-4.498.898-6.612.022l-5.316-2.202c-5.613-2.324-12.048.339-14.373 5.953-2.324 5.613.341 12.047 5.953 14.372l5.317 2.202c3.763 1.559 7.721 2.338 11.684 2.338 3.981 0 7.968-.787 11.766-2.359 7.578-3.139 13.473-9.022 16.598-16.566 6.464-15.614-.977-33.579-16.59-40.046z"/><path d="m476 264.999h-215c-19.851 0-36 16.149-36 36v120c0 19.851 16.149 36 36 36h121.287l26.778 26.779c2.062 2.062 4.861 3.222 7.778 3.222s5.716-1.159 7.778-3.222l26.778-26.779h24.601c19.85 0 35.999-16.149 35.999-36v-120c0-19.851-16.149-36-35.999-36zm13.999 156c0 7.72-6.28 14-13.999 14h-29.156c-2.917 0-5.716 1.159-7.778 3.222l-22.222 22.222-22.222-22.222c-2.062-2.062-4.861-3.222-7.778-3.222h-125.844c-7.72 0-14-6.28-14-14v-120c0-7.72 6.28-14 14-14h215c7.719 0 13.999 6.28 13.999 14z"/><path d="m154.49 161.474c-5.26-3.036-11.988-1.234-15.026 4.026l-25.98 45c-3.038 5.261-1.235 11.989 4.026 15.026 1.732 1 3.624 1.476 5.49 1.476 3.801 0 7.499-1.973 9.537-5.502l25.98-45c3.037-5.261 1.234-11.989-4.027-15.026z"/><path d="m91.278 163.222c-4.296-4.296-11.261-4.296-15.557 0l-22.5 22.5c-2.062 2.062-3.221 4.86-3.221 7.778s1.159 5.715 3.222 7.778l22.5 22.5c2.147 2.148 4.963 3.222 7.778 3.222s5.63-1.074 7.778-3.222c4.295-4.296 4.295-11.261 0-15.557l-14.722-14.721 14.722-14.721c4.295-4.297 4.296-11.261 0-15.557z"/><path d="m196.278 163.222c-4.296-4.296-11.261-4.296-15.557 0-4.295 4.296-4.295 11.261 0 15.557l14.722 14.721-14.722 14.722c-4.296 4.296-4.295 11.261 0 15.557 2.148 2.148 4.963 3.222 7.778 3.222s5.63-1.074 7.778-3.222l22.5-22.5c4.295-4.296 4.295-11.261 0-15.557z"/></g></g><g/><g/><g/><g/><g/><g/><g/><g/><g/><g/><g/><g/><g/><g/><g/></svg>