<svg id="Capa_1" enable-background="new 0 0 511.999 511.999" viewBox="0 0 511.999 511.999" xmlns="http://www.w3.org/2000/svg" fill="#052438"><g><g><path d="m460.999 65h-39v-39c0-6.075-4.925-11-11-11h-399.999c-6.075 0-11 4.924-11 11v350.244c0 6.075 4.925 11 11 11h39v44.082c0 6.075 4.925 11 11 11h253.958c6.075 0 11-4.925 11-11s-4.925-11-11-11h-242.958v-243.326h148.999c3.395 0 6.599-1.567 8.683-4.247l31.697-40.753h188.62v177.905c0 6.075 4.925 11 11 11s11-4.925 11-11v-233.905c0-6.075-4.925-11-11-11zm-61-28v28h-338.999c-6.075 0-11 4.925-11 11v29h-28v-68zm-377.999 328.243v-238.243h28v238.244h-28zm233.999-255.243c-3.395 0-6.599 1.567-8.683 4.247l-31.697 40.753h-143.619v-68h377.999v23z"/><path d="m106.007 110h-.007c-6.075 0-10.997 4.925-10.997 11s4.929 11 11.004 11 11-4.925 11-11-4.925-11-11-11z"/><path d="m151.007 110h-.008c-6.075 0-10.996 4.925-10.996 11s4.929 11 11.004 11 11-4.925 11-11-4.925-11-11-11z"/><path d="m196.007 110h-.008c-6.075 0-10.996 4.925-10.996 11s4.929 11 11.004 11 11-4.925 11-11-4.925-11-11-11z"/><path d="m261 320.243h-150c-6.075 0-11 4.925-11 11s4.925 11 11 11h150c6.075 0 11-4.925 11-11s-4.925-11-11-11z"/><path d="m261 365.243h-150c-6.075 0-11 4.925-11 11s4.925 11 11 11h150c6.075 0 11-4.925 11-11s-4.925-11-11-11z"/></g><g fill="#0496FF"><path d="m440.999 372.499h-1.5v-11.5c0-18.472-15.028-33.5-33.5-33.5s-33.5 15.028-33.5 33.5v11.5h-1.5c-6.075 0-11 4.925-11 11v50c0 6.075 4.925 11 11 11h70c6.075 0 11-4.925 11-11v-50c0-6.075-4.925-11-11-11zm-46.5-11.5c0-6.341 5.159-11.5 11.5-11.5s11.5 5.159 11.5 11.5v11.5h-23zm35.5 61.5h-48v-28h48z"/><path d="m405.999 285c-58.448 0-106 47.551-106 106s47.552 106 106 106 106-47.551 106-106-47.552-106-106-106zm0 190c-46.317 0-84-37.682-84-84s37.683-84 84-84 84 37.682 84 84-37.683 84-84 84z"/><path d="m204.49 216.595c-5.262-3.037-11.988-1.234-15.026 4.026l-25.98 45c-3.037 5.261-1.234 11.989 4.026 15.026 1.732 1 3.623 1.476 5.489 1.476 3.802 0 7.5-1.973 9.537-5.502l25.98-45c3.038-5.261 1.235-11.988-4.026-15.026z"/><path d="m141.277 218.343c-4.297-4.296-11.262-4.295-15.557 0l-22.499 22.5c-4.296 4.295-4.296 11.26 0 15.556l22.499 22.5c2.148 2.148 4.963 3.222 7.778 3.222 2.814 0 5.631-1.074 7.778-3.222 4.296-4.296 4.296-11.261 0-15.557l-14.722-14.721 14.722-14.722c4.297-4.295 4.297-11.26.001-15.556z"/><path d="m246.278 218.343c-4.297-4.296-11.26-4.296-15.557 0-4.296 4.296-4.296 11.261 0 15.557l14.722 14.722-14.722 14.721c-4.296 4.296-4.296 11.261 0 15.557 2.148 2.148 4.963 3.222 7.778 3.222 2.814 0 5.631-1.074 7.778-3.222l22.5-22.5c2.062-2.063 3.222-4.861 3.222-7.778s-1.159-5.715-3.222-7.778z"/></g></g><g/><g/><g/><g/><g/><g/><g/><g/><g/><g/><g/><g/><g/><g/><g/></svg>