<svg id="Capa_1" enable-background="new 0 0 512.001 512.001" viewBox="0 0 512.001 512.001" xmlns="http://www.w3.org/2000/svg" fill="#E6ECF2"><g><g><g><path d="m342.376 307h-35c-6.075 0-11-4.925-11-11v-79.999c0-6.075 4.925-11 11-11s11 4.925 11 11v68.999h24c6.075 0 11 4.925 11 11s-4.925 11-11 11z" fill="#0496FF"/></g><g><path d="m184.821 307.008c-3.902.001-7.864-.749-11.688-2.332l-5.319-2.204c-5.612-2.325-8.277-8.761-5.951-14.373s8.762-8.274 14.373-5.951l5.317 2.203c4.404 1.823 9.476-.276 11.3-4.682 1.826-4.408-.274-9.479-4.68-11.303l-10.634-4.405c-7.544-3.125-13.427-9.02-16.566-16.597-3.139-7.578-3.146-15.906-.021-23.45 6.465-15.611 24.429-23.056 40.045-16.589l5.319 2.204c5.612 2.326 8.277 8.761 5.951 14.373s-8.76 8.277-14.373 5.951l-5.316-2.203c-4.404-1.823-9.476.276-11.301 4.683-.876 2.115-.869 4.463.021 6.612.89 2.148 2.544 3.813 4.659 4.689l10.636 4.406c15.612 6.467 23.053 24.432 16.586 40.045-4.882 11.791-16.324 18.922-28.358 18.923z" fill="#0496FF"/></g><g><path d="m251.374 307.008c-3.901 0-7.864-.749-11.687-2.332l-5.319-2.204c-5.612-2.325-8.277-8.761-5.951-14.373s8.761-8.274 14.373-5.951l5.317 2.203c4.406 1.823 9.476-.275 11.301-4.683 1.825-4.407-.275-9.478-4.681-11.302l-10.635-4.405c-7.544-3.125-13.427-9.02-16.566-16.597-3.139-7.578-3.146-15.906-.021-23.45 6.464-15.611 24.427-23.056 40.045-16.589l5.319 2.204c5.612 2.325 8.277 8.761 5.951 14.373-2.325 5.612-8.76 8.277-14.373 5.951l-5.317-2.203c-4.408-1.823-9.477.276-11.3 4.682-.876 2.116-.869 4.464.021 6.613.89 2.148 2.544 3.813 4.659 4.689l10.635 4.406c15.612 6.467 23.054 24.431 16.587 40.045-4.883 11.792-16.324 18.923-28.358 18.923z" fill="#0496FF"/></g><g><path d="m96.8 107.8c-2.815 0-5.63-1.074-7.778-3.222l-45.695-45.694c-4.295-4.296-4.295-11.261 0-15.557 4.296-4.295 11.261-4.295 15.557 0l45.694 45.694c4.295 4.296 4.295 11.261 0 15.557-2.148 2.148-4.963 3.222-7.778 3.222z" fill="#0496FF"/></g><g><path d="m415.2 107.8c-2.815 0-5.63-1.074-7.778-3.222-4.295-4.296-4.295-11.261 0-15.557l45.694-45.694c4.296-4.295 11.261-4.295 15.557 0 4.295 4.296 4.295 11.261 0 15.557l-45.694 45.694c-2.148 2.148-4.964 3.222-7.779 3.222z" fill="#0496FF"/></g><g><path d="m51.106 471.896c-2.815 0-5.63-1.074-7.778-3.222-4.295-4.296-4.295-11.261 0-15.557l45.694-45.694c4.296-4.295 11.261-4.295 15.557 0 4.295 4.296 4.295 11.261 0 15.557l-45.694 45.694c-2.149 2.147-4.964 3.222-7.779 3.222z" fill="#0496FF"/></g><g><path d="m460.895 471.896c-2.815 0-5.63-1.074-7.778-3.222l-45.694-45.694c-4.295-4.296-4.295-11.261 0-15.557 4.296-4.295 11.261-4.295 15.557 0l45.694 45.694c4.295 4.296 4.295 11.261 0 15.557-2.149 2.147-4.964 3.222-7.779 3.222z" fill="#0496FF"/></g></g><g><path d="m426.435 362.579c11.928-19.008 20.471-39.611 25.47-61.431l25.896-4.297c5.308-.881 9.2-5.472 9.2-10.852v-59.999c0-5.38-3.892-9.971-9.199-10.852l-25.903-4.299c-4.997-21.813-13.538-42.416-25.465-61.426l15.291-21.374c3.13-4.376 2.636-10.374-1.168-14.179l-42.426-42.427c-3.805-3.805-9.803-4.298-14.179-1.168l-21.375 15.292c-19.007-11.926-39.608-20.466-61.425-25.463l-4.3-25.904c-.88-5.308-5.471-9.199-10.852-9.199h-60c-5.38 0-9.971 3.892-10.852 9.199l-4.298 25.906c-21.819 4.997-42.419 13.535-61.428 25.46l-21.372-15.289c-4.376-3.13-10.375-2.635-14.178 1.168l-42.426 42.427c-3.804 3.805-4.298 9.803-1.168 14.179l15.288 21.371c-11.928 19.007-20.47 39.611-25.469 61.43l-25.897 4.298c-5.308.88-9.2 5.471-9.2 10.851v59.999c0 5.38 3.892 9.971 9.2 10.852l25.907 4.299c4.997 21.819 13.534 42.42 25.459 61.429l-15.288 21.37c-3.13 4.376-2.636 10.374 1.168 14.179l42.426 42.427c3.805 3.805 9.803 4.299 14.179 1.168l21.371-15.289c19.008 11.929 39.612 20.472 61.43 25.47l4.297 25.896c.88 5.307 5.471 9.199 10.851 9.199h60c5.38 0 9.971-3.892 10.852-9.199l4.298-25.906c21.818-4.997 42.421-13.536 61.429-25.46l21.372 15.289c4.377 3.13 10.374 2.635 14.179-1.168l42.426-42.427c3.804-3.805 4.298-9.803 1.168-14.179zm-37.268 55.826-19.908-14.242c-3.752-2.686-8.782-2.742-12.594-.145-20.401 13.901-43.003 23.269-67.179 27.842-4.534.858-8.051 4.455-8.807 9.008l-4.004 24.132h-41.35l-4.002-24.121c-.755-4.552-4.272-8.149-8.806-9.008-24.176-4.575-46.778-13.945-67.179-27.852-3.812-2.599-8.843-2.542-12.595.144l-19.909 14.242-29.238-29.239 14.241-19.906c2.685-3.753 2.742-8.781.144-12.594-13.9-20.402-23.268-43.005-27.841-67.181-.858-4.534-4.455-8.052-9.008-8.807l-24.132-4.003v-41.349l24.122-4.003c4.552-.756 8.149-4.271 9.007-8.806 4.576-24.177 13.947-46.779 27.852-67.179 2.599-3.812 2.542-8.843-.143-12.596l-14.242-19.908 29.238-29.239 19.908 14.241c3.751 2.684 8.78 2.74 12.593.145 20.402-13.9 43.005-23.268 67.18-27.841 4.534-.858 8.051-4.455 8.807-9.008l4.004-24.132h41.35l4.004 24.132c.755 4.553 4.272 8.149 8.807 9.008 24.173 4.573 46.774 13.941 67.174 27.844 3.814 2.599 8.842 2.542 12.595-.144l19.912-14.245 29.238 29.239-14.244 19.91c-2.685 3.753-2.742 8.782-.144 12.595 13.905 20.405 23.274 43.006 27.847 67.176.858 4.534 4.455 8.051 9.007 8.807l24.128 4.004v41.349l-24.121 4.002c-4.553.755-8.149 4.271-9.008 8.806-4.576 24.177-13.947 46.779-27.852 67.18-2.599 3.812-2.542 8.843.143 12.596l14.242 19.908z"/><path d="m256 105c-83.262 0-151 67.738-151 151 0 83.263 67.738 151.001 151 151.001s151-67.738 151-151.001c0-83.262-67.738-151-151-151zm0 280.001c-71.131 0-129-57.869-129-129.001 0-71.131 57.869-129 129-129s129 57.869 129 129c0 71.132-57.869 129.001-129 129.001z"/><path d="m33.501 67c18.472 0 33.5-15.028 33.5-33.5s-15.028-33.5-33.5-33.5-33.5 15.028-33.5 33.5 15.028 33.5 33.5 33.5zm0-45c6.341 0 11.5 5.159 11.5 11.5s-5.159 11.5-11.5 11.5-11.5-5.159-11.5-11.5 5.158-11.5 11.5-11.5z"/><path d="m478.5 67c18.472 0 33.5-15.028 33.5-33.5s-15.028-33.5-33.5-33.5-33.5 15.028-33.5 33.5 15.028 33.5 33.5 33.5zm0-45c6.341 0 11.5 5.159 11.5 11.5s-5.158 11.5-11.5 11.5-11.5-5.159-11.5-11.5 5.159-11.5 11.5-11.5z"/><path d="m33.501 445.001c-18.472 0-33.5 15.028-33.5 33.5s15.028 33.5 33.5 33.5 33.5-15.028 33.5-33.5-15.028-33.5-33.5-33.5zm0 45c-6.341 0-11.5-5.159-11.5-11.5s5.159-11.5 11.5-11.5 11.5 5.159 11.5 11.5-5.159 11.5-11.5 11.5z"/><path d="m478.5 445.001c-18.472 0-33.5 15.028-33.5 33.5s15.028 33.5 33.5 33.5 33.5-15.028 33.5-33.5-15.028-33.5-33.5-33.5zm0 45c-6.341 0-11.5-5.159-11.5-11.5s5.159-11.5 11.5-11.5 11.5 5.159 11.5 11.5-5.158 11.5-11.5 11.5z"/></g></g><g/><g/><g/><g/><g/><g/><g/><g/><g/><g/><g/><g/><g/><g/><g/></svg>