<svg id="Layer_1" enable-background="new 0 0 504 504" viewBox="0 0 504 504" xmlns="http://www.w3.org/2000/svg" fill="#052438"><g id="Pay_Per_Click"><g><path d="m432 0h-360c-6.08 0-11 4.92-11 11v180c0 6.07 4.92 11 11 11h169v38.7c-42.24 5.42-75 41.61-75 85.3v91c0 22.99 8.92 44.74 25.11 61.24 16.31 16.61 37.94 25.76 60.89 25.76 22.94 0 44.57-9.15 60.88-25.76 16.2-16.5 25.12-38.25 25.12-61.24v-91c0-43.69-32.76-79.88-75-85.3v-38.7h169c6.07 0 11-4.93 11-11v-180c0-6.08-4.93-11-11-11zm-116 326v91c0 35.84-28.71 65-64 65s-64-29.16-64-65v-91c0-35.29 28.71-64 64-64s64 28.71 64 64zm105-146h-338v-158h338z"/></g><g><path d="m251.996 141.996c-22.607 0-41-18.393-41-41s18.393-41 41-41 41 18.393 41 41-18.393 41-41 41zm0-60c-10.477 0-19 8.523-19 19s8.523 19 19 19 19-8.523 19-19-8.524-19-19-19z" fill="#0496FF"/></g><g><path d="m251.996 351.996c-6.075 0-11-4.925-11-11v-30c0-6.075 4.925-11 11-11s11 4.925 11 11v30c0 6.076-4.925 11-11 11z"/></g><g><path d="m371.996 111.996h-30c-6.075 0-11-4.925-11-11s4.925-11 11-11h30c6.075 0 11 4.925 11 11s-4.925 11-11 11z" fill="#0496FF"/></g><g><path d="m161.996 111.996h-30c-6.075 0-11-4.925-11-11s4.925-11 11-11h30c6.075 0 11 4.925 11 11s-4.925 11-11 11z" fill="#0496FF"/></g><g><path d="m96.947 378.432c-4.494 0-8.712-2.773-10.338-7.241-2.078-5.709.866-12.021 6.575-14.099l28.191-10.26c5.711-2.08 12.021.866 14.099 6.574 2.078 5.709-.866 12.021-6.574 14.099l-28.191 10.261c-1.242.452-2.513.666-3.762.666z" fill="#0496FF"/></g><g><path d="m378.855 275.826c-4.494 0-8.712-2.773-10.337-7.241-2.078-5.709.866-12.021 6.574-14.099l28.191-10.261c5.709-2.079 12.021.866 14.099 6.575s-.866 12.021-6.575 14.099l-28.191 10.26c-1.241.453-2.512.667-3.761.667z" fill="#0496FF"/></g><g><path d="m125.136 275.826c-1.249 0-2.519-.214-3.761-.667l-28.191-10.259c-5.708-2.078-8.652-8.39-6.575-14.099 2.078-5.709 8.389-8.652 14.099-6.575l28.191 10.261c5.708 2.078 8.652 8.39 6.574 14.099-1.625 4.466-5.843 7.24-10.337 7.24z" fill="#0496FF"/></g><g><path d="m407.044 378.432c-1.249 0-2.519-.214-3.761-.666l-28.191-10.261c-5.708-2.078-8.652-8.39-6.574-14.099 2.077-5.708 8.386-8.653 14.099-6.574l28.191 10.26c5.708 2.078 8.652 8.39 6.575 14.099-1.627 4.467-5.846 7.241-10.339 7.241z" fill="#0496FF"/></g><g><path d="m116.996 321.996h-30c-6.075 0-11-4.925-11-11s4.925-11 11-11h30c6.075 0 11 4.925 11 11s-4.925 11-11 11z" fill="#0496FF"/></g><g><path d="m416.996 321.996h-30c-6.075 0-11-4.925-11-11s4.925-11 11-11h30c6.075 0 11 4.925 11 11s-4.925 11-11 11z" fill="#0496FF"/></g></g><g/><g/><g/><g/><g/><g/><g/><g/><g/><g/><g/><g/><g/><g/><g/></svg>