<svg id="Layer_1" enable-background="new 0 0 504.108 504.108" viewBox="0 0 504.108 504.108" xmlns="http://www.w3.org/2000/svg" fill="#052438"><g id="Magnet"><g><path d="m403.052 202c-26.978 0-52.341-10.506-71.418-29.583-39.379-39.38-39.379-103.456 0-142.836 19.077-19.075 44.44-29.581 71.418-29.581 26.979 0 52.342 10.506 71.418 29.582 19.076 19.077 29.582 44.44 29.582 71.418 0 26.977-10.508 52.342-29.582 71.418-.001.001.001-.001 0 0-19.077 19.076-44.44 29.582-71.418 29.582zm0-180c-21.102 0-40.94 8.217-55.861 23.139-30.802 30.802-30.802 80.921 0 111.723 14.92 14.921 34.759 23.138 55.861 23.138 21.103 0 40.94-8.218 55.861-23.139 14.922-14.921 23.139-34.759 23.139-55.861s-8.218-40.94-23.139-55.861c-14.921-14.922-34.759-23.139-55.861-23.139z" fill="#0496FF"/></g><g><path d="m403.053 141.981c-10.5 0-20.999-3.997-28.992-11.989-7.733-7.734-11.992-18.03-11.992-28.992s4.259-21.258 11.992-28.991c15.987-15.988 41.998-15.985 57.983 0 7.733 7.733 11.992 18.029 11.992 28.991s-4.259 21.258-11.992 28.992c-7.993 7.992-18.492 11.989-28.991 11.989zm-.001-59.972c-4.865 0-9.73 1.852-13.435 5.556-3.578 3.578-5.549 8.349-5.549 13.435s1.971 9.857 5.549 13.435c7.408 7.408 19.462 7.409 26.87 0 3.578-3.578 5.549-8.35 5.549-13.435s-1.971-9.856-5.549-13.435c-3.704-3.704-8.569-5.556-13.435-5.556z" fill="#0496FF"/></g><g><path d="m347.186 326.568-42.42-42.43c-2.07-2.06-4.86-3.22-7.78-3.22s-5.72 1.16-7.78 3.23l-123.56 123.67c-9.24 9.23-21.55 14.32-34.65 14.32-13.11 0-25.41-5.09-34.65-14.32-9.24-9.24-14.33-21.55-14.33-34.65 0-13.11 5.09-25.41 14.33-34.65l123.57-123.68c4.29-4.29 4.29-11.26 0-15.55l-42.43-42.43c-2.06-2.06-4.86-3.22-7.78-3.22s-5.72 1.16-7.78 3.23l-123.56 123.67c-24.71 24.7-38.31 57.6-38.31 92.63s13.6 67.92 38.31 92.63c24.7 24.7 57.6 38.31 92.63 38.31s67.92-13.61 92.63-38.31l123.57-123.68c4.29-4.29 4.29-11.26-.01-15.55zm-177.48-146.37 26.87 26.87-26.86 26.88-26.87-26.87zm38.36 270.04c-20.55 20.55-47.92 31.87-77.07 31.87s-56.52-11.32-77.08-31.87c-20.55-20.55-31.86-47.92-31.86-77.07s11.31-56.53 31.87-77.08l73.38-73.44 26.86 26.86-73.38 73.45c-13.39 13.4-20.77 31.23-20.77 50.21s7.38 36.81 20.77 50.2c27.69 27.68 72.73 27.68 100.42 0l73.37-73.44 26.87 26.86zm88.93-89.01-26.87-26.87 26.86-26.88 26.87 26.87z"/></g><g><path d="m233.346 281.706c-2.815 0-5.63-1.074-7.778-3.222-4.295-4.296-4.295-11.261 0-15.557l63.64-63.64c4.297-4.296 11.26-4.296 15.557 0 4.296 4.296 4.296 11.261 0 15.557l-63.64 63.64c-2.148 2.148-4.964 3.222-7.779 3.222z" fill="#0496FF"/></g><g><path d="m254.559 175.64c-2.815 0-5.63-1.074-7.778-3.222-4.295-4.296-4.296-11.261 0-15.557l21.213-21.213c4.295-4.295 11.26-4.296 15.557 0 4.296 4.296 4.296 11.261 0 15.557l-21.213 21.213c-2.148 2.147-4.963 3.222-7.779 3.222z" fill="#0496FF"/></g><g><path d="m339.412 260.493c-2.815 0-5.63-1.074-7.778-3.222-4.296-4.296-4.296-11.261 0-15.557l21.214-21.213c4.296-4.295 11.261-4.295 15.557 0 4.296 4.296 4.296 11.261 0 15.557l-21.214 21.213c-2.148 2.147-4.965 3.222-7.779 3.222z" fill="#0496FF"/></g><g><path d="m381.839 302.919c-2.815 0-5.63-1.074-7.778-3.222-4.296-4.296-4.296-11.261 0-15.557l42.427-42.426c4.296-4.296 11.261-4.295 15.557 0 4.296 4.296 4.296 11.261 0 15.557l-42.427 42.426c-2.148 2.148-4.965 3.222-7.779 3.222z" fill="#0496FF"/></g><g><path d="m212.133 133.213c-2.815 0-5.63-1.074-7.778-3.222-4.295-4.296-4.295-11.261 0-15.557l42.426-42.426c4.296-4.297 11.26-4.296 15.557 0 4.296 4.296 4.296 11.261 0 15.557l-42.426 42.426c-2.149 2.149-4.964 3.222-7.779 3.222z" fill="#0496FF"/></g></g><g/><g/><g/><g/><g/><g/><g/><g/><g/><g/><g/><g/><g/><g/><g/></svg>