<svg id="Layer_1" enable-background="new 0 0 504.031 504.031" viewBox="0 0 504.031 504.031" xmlns="http://www.w3.org/2000/svg" fill="#052438"><g id="Business_1_"><g><g><path d="m113.031 71.013h-22c0-39.149 31.851-71 71-71s71 31.85 71 71h-22c0-27.019-21.981-49-49-49s-49 21.981-49 49z" fill="#0496FF"/></g><g><path d="m313.027 60.014h-302c-6.07 0-11 4.92-11 11v212c0 6.07 4.93 11 11 11h302c6.08 0 11-4.93 11-11v-212c0-6.08-4.92-11-11-11zm-291 22h280v99h-99v-19c0-6.08-4.92-11-11-11h-60c-6.07 0-11 4.92-11 11v19h-99zm159 91v19c0 10.48-8.52 19-19 19-10.47 0-19-8.52-19-19v-19zm121 99h-280v-69h100.5c4.82 17.29 20.71 30 39.5 30 18.8 0 34.68-12.71 39.5-30h100.5z"/></g></g><g><g><path d="m474.027 222.014v271h-22v-260h-38v260h-22v-139h-38v139h-22v-79h-38v79h-22v-90c0-6.08 4.93-11 11-11h49v-49c0-6.08 4.93-11 11-11h49v-110c0-6.08 4.93-11 11-11h60c6.08 0 11 4.92 11 11z" fill="#0496FF"/></g><g><path d="m493.031 504.013h-240c-6.075 0-11-4.925-11-11s4.925-11 11-11h240c6.075 0 11 4.925 11 11s-4.925 11-11 11z"/></g></g><g><g><path d="m193.031 384.013h-122c-6.075 0-11-4.925-11-11s4.925-11 11-11h122c6.075 0 11 4.925 11 11s-4.925 11-11 11z"/></g><g><path d="m193.031 444.013h-122c-6.075 0-11-4.925-11-11s4.925-11 11-11h122c6.075 0 11 4.925 11 11s-4.925 11-11 11z"/></g><g><path d="m193.031 504.013h-122c-6.075 0-11-4.925-11-11s4.925-11 11-11h122c6.075 0 11 4.925 11 11s-4.925 11-11 11z"/></g><g><path d="m11.027 384.014c-9.635.121-14.689-12.062-7.77-18.78 4.074-4.254 11.47-4.25 15.55 0 6.909 6.729 1.864 18.906-7.78 18.78z"/></g><g><path d="m11.027 444.014c-7.575.212-13.285-8.293-10.15-15.21 3.528-8.957 16.779-8.955 20.31 0 3.127 6.925-2.578 15.426-10.16 15.21z"/></g><g><path d="m11.027 504.014c-7.574.214-13.286-8.297-10.15-15.21 3.527-8.956 16.78-8.953 20.31 0 3.127 6.92-2.578 15.428-10.16 15.21z"/></g></g></g><g/><g/><g/><g/><g/><g/><g/><g/><g/><g/><g/><g/><g/><g/><g/></svg>