<svg id="Layer_1" enable-background="new 0 0 504 504" viewBox="0 0 504 504" xmlns="http://www.w3.org/2000/svg" fill="#052438"><g><g><g><path d="m252 465.718h-128c-6.075 0-11-4.925-11-11v-53.103h-32.309c-23.356 0-42.358-19.001-42.358-42.358v-45.618l-30.282-8.427c-4.759-1.324-8.051-5.657-8.051-10.597v-10.667c0-1.747.416-3.47 1.214-5.024l37.119-72.301v-37.341c0-72.233 58.767-131 131-131h82.667v22h-82.667c-60.103 0-109 48.897-109 109v40c0 1.747-.416 3.469-1.214 5.024l-36.962 71.996 30.125 8.383c4.759 1.324 8.051 5.658 8.051 10.597v53.975c0 11.226 9.133 20.358 20.358 20.358h43.309c6.075 0 11 4.925 11 11v53.103h117z"/></g><g><path d="m141.567 236.356c-6.075 0-11-4.925-11-11 0-7.175-5.838-13.013-13.013-13.013-7.176 0-13.014 5.837-13.014 13.013 0 6.075-4.925 11-11 11s-11-4.925-11-11c0-19.306 15.707-35.013 35.014-35.013 19.306 0 35.013 15.707 35.013 35.013 0 6.075-4.924 11-11 11z"/></g></g><g><g><path d="m380 465.718h-128c-6.075 0-11-4.925-11-11v-99.648h-3.772c-9.96 7.532-22.117 11.637-34.682 11.637-15.783 0-30.506-6.263-41.456-17.634-10.945-11.367-16.645-26.329-16.048-42.13 1.121-29.713 25.27-53.992 54.975-55.273 13.499-.584 26.556 3.508 37.214 11.582h3.769v-76.272c0-6.075 4.925-11 11-11h18.684c2.68 0 5.268.978 7.277 2.751 6.495 5.729 14.838 8.885 23.493 8.885 9.749 0 18.844-3.869 25.608-10.894 6.76-7.02 10.28-16.268 9.911-26.039-.692-18.344-15.6-33.333-33.938-34.124-9.242-.402-18.152 2.745-25.076 8.852-2.01 1.772-4.597 2.75-7.276 2.75h-18.683c-6.075 0-11-4.925-11-11v-67.879c0-6.075 4.925-11 11-11h82.667c72.233 0 131 58.767 131 131v37.341l37.119 72.301c.798 1.554 1.214 3.277 1.214 5.024v10.667c0 4.939-3.292 9.273-8.051 10.597l-30.282 8.427v45.618c0 23.356-19.002 42.358-42.358 42.358h-32.309v53.103c0 6.075-4.925 11-11 11zm-117-22h106v-53.103c0-6.075 4.925-11 11-11h43.309c11.226 0 20.358-9.132 20.358-20.358v-53.975c0-4.939 3.292-9.273 8.051-10.597l30.125-8.383-36.962-71.996c-.798-1.555-1.214-3.277-1.214-5.024v-40c0-60.103-48.897-109-109-109h-71.667v45.879h3.77c10.659-8.074 23.729-12.166 37.214-11.582 29.705 1.281 53.854 25.56 54.975 55.274.597 15.801-5.104 30.763-16.049 42.129-10.95 11.371-25.672 17.633-41.455 17.633-12.564 0-24.723-4.104-34.682-11.636h-3.773v76.272c0 6.075-4.925 11-11 11h-18.684c-2.68 0-5.267-.978-7.276-2.75-6.923-6.106-15.818-9.248-25.076-8.852-18.338.791-33.245 15.779-33.938 34.124-.369 9.772 3.15 19.02 9.911 26.04 6.765 7.025 15.859 10.894 25.608 10.894 8.654 0 16.998-3.156 23.493-8.886 2.01-1.773 4.598-2.751 7.277-2.751h18.685c6.075 0 11 4.925 11 11z" fill="#0496FF"/></g><g><path d="m412.175 236.356c-6.075 0-11-4.925-11-11 0-7.175-5.838-13.013-13.013-13.013-7.176 0-13.014 5.837-13.014 13.013 0 6.075-4.925 11-11 11s-11-4.925-11-11c0-19.306 15.707-35.013 35.014-35.013 19.306 0 35.013 15.707 35.013 35.013 0 6.075-4.925 11-11 11z" fill="#0496FF"/></g></g></g><g/><g/><g/><g/><g/><g/><g/><g/><g/><g/><g/><g/><g/><g/><g/></svg>