<svg id="Capa_1" enable-background="new 0 0 511.971 511.971" viewBox="0 0 511.971 511.971" xmlns="http://www.w3.org/2000/svg" fill="#052438"><g><path d="m362.705 98.193c9.778-32.822 1.645-69.047-21.227-94.54-2.365-2.636-5.856-3.969-9.374-3.59-3.52.382-6.642 2.435-8.386 5.517l-67.706 119.585-67.707-119.585c-1.745-3.082-4.866-5.135-8.387-5.517-3.516-.378-7.009.955-9.373 3.59-22.871 25.493-31.004 61.718-21.226 94.539l42.048 141.148-43.159 76.229 19.145 10.839 167.098-295.132c10.437 18.169 13.244 40.246 7.17 60.636l-45.273 151.976c-7.388 24.797-26.369 44.728-50.777 53.314-22.186 7.805-40.786 23.374-52.373 43.84l19.145 10.839c8.967-15.837 23.36-27.886 40.529-33.926 1.061-.373 2.112-.767 3.156-1.173 1.048.409 2.095.811 3.127 1.174 17.169 6.039 31.562 18.087 40.529 33.925l19.145-10.839c-9.089-16.054-22.506-29.074-38.569-37.717 12.865-9.615 23.394-22.153 30.618-36.603l33.794 59.688 19.145-10.839-43.158-76.229zm-192.301-6.281c-6.074-20.39-3.267-42.466 7.169-60.635l65.799 116.215-36.962 65.284z" fill="#0496FF"/><g><g><g><path d="m427.211 511.971c-29.558 0-58.305-15.465-73.878-42.97l-63.237-111.692c-2.993-5.287-1.134-11.999 4.152-14.992l64.162-36.328c2.54-1.438 5.547-1.808 8.356-1.028 2.812.779 5.198 2.643 6.636 5.181 4.205 7.427 12.819 11.153 21.425 9.271 17.304-3.78 35.811-1.931 52.11 5.208 16.869 7.388 30.594 19.785 39.689 35.85l14.176 25.036c23.019 40.658 8.669 92.462-31.987 115.481-13.151 7.447-27.471 10.983-41.604 10.983zm-112.55-155.929 57.817 102.12c17.043 30.102 55.399 40.725 85.497 23.682 14.582-8.256 25.076-21.696 29.549-37.844 4.474-16.148 2.391-33.072-5.865-47.653l-14.176-25.036c-13.637-24.086-40.948-36.303-67.96-30.404-14.327 3.129-28.722-1.244-38.553-11.085z"/></g><g><g><path d="m427.147 464.604c-3.352 0-6.724-.455-10.044-1.374-9.62-2.665-17.622-8.907-22.53-17.578l-14.176-25.037c-4.909-8.671-6.145-18.744-3.479-28.364s8.907-17.622 17.578-22.53h-.001c8.67-4.909 18.741-6.145 28.363-3.48 9.62 2.665 17.621 8.907 22.53 17.577l14.176 25.037c10.145 17.919 3.82 40.75-14.097 50.894-5.678 3.216-11.96 4.855-18.32 4.855zm-14.299-77.727c-2.611 0-5.187.672-7.514 1.989 0 0 0 0-.001 0-3.557 2.014-6.118 5.302-7.215 9.259-1.096 3.957-.591 8.095 1.423 11.651l14.176 25.037c2.014 3.556 5.302 6.119 9.259 7.214 3.954 1.096 8.095.591 11.651-1.423 7.362-4.168 9.96-13.548 5.792-20.91l-14.176-25.037c-2.014-3.557-5.302-6.119-9.259-7.215-1.366-.377-2.756-.565-4.136-.565z"/></g></g></g><g><g><path d="m84.814 511.971c-14.136.001-28.45-3.535-41.604-10.982-19.696-11.151-33.87-29.304-39.912-51.116s-3.228-44.67 7.923-64.365l14.176-25.037c9.096-16.065 22.82-28.461 39.689-35.85 16.3-7.139 34.807-8.988 52.11-5.208 8.613 1.883 17.22-1.845 21.425-9.271 1.438-2.539 3.824-4.402 6.636-5.181 2.811-.779 5.816-.41 8.356 1.028l64.162 36.328c5.286 2.993 7.146 9.705 4.152 14.992l-63.237 111.692c-15.57 27.503-44.322 42.967-73.876 42.97zm14.139-172.534c-22.239 0-43.061 11.825-54.411 31.873l-14.176 25.037c-17.042 30.101-6.418 68.455 23.683 85.497 30.101 17.041 68.455 6.418 85.498-23.682l57.817-102.12-46.311-26.221c-9.829 9.841-24.223 14.216-38.552 11.085-4.529-.989-9.068-1.469-13.548-1.469z"/></g><g><g><path d="m84.877 464.604c-6.361 0-12.642-1.639-18.32-4.854-17.917-10.145-24.241-32.975-14.097-50.894l14.176-25.038c4.909-8.67 12.91-14.913 22.53-17.577 9.62-2.666 19.693-1.429 28.363 3.48 8.67 4.908 14.912 12.91 17.577 22.53s1.43 19.693-3.479 28.363l-14.176 25.037c-4.908 8.67-12.91 14.913-22.53 17.578-3.319.92-6.693 1.375-10.044 1.375zm14.299-77.727c-1.38 0-2.77.188-4.137.566-3.957 1.096-7.245 3.658-9.259 7.214l-14.176 25.037c-4.168 7.361-1.57 16.742 5.792 20.91 3.558 2.014 7.693 2.519 11.651 1.423 3.957-1.096 7.245-3.658 9.259-7.214l14.176-25.038c2.014-3.556 2.519-7.694 1.423-11.651-1.097-3.957-3.658-7.245-7.215-9.259-2.326-1.316-4.902-1.988-7.514-1.988z"/></g></g></g><circle cx="256.012" cy="244.179" r="11"/></g></g><g/><g/><g/><g/><g/><g/><g/><g/><g/><g/><g/><g/><g/><g/><g/></svg>