<svg id="Capa_1" enable-background="new 0 0 512 512" viewBox="0 0 512 512" xmlns="http://www.w3.org/2000/svg" fill="#052438"><g><path d="m508.778 80.191-76.97-76.97c-2.063-2.062-4.861-3.221-7.778-3.221h-252.03c-6.075 0-11 4.925-11 11v230h22v-219h230.03v65.97c0 6.075 4.925 11 11 11h65.97v309.03h-87v22h98c6.075 0 11-4.925 11-11v-331.03c0-2.918-1.159-5.716-3.222-7.779zm-73.748-42.634 39.414 39.413h-39.414z" fill="#0496FF"/><g><path d="m292.97 98.97h87.061c6.075 0 11-4.925 11-11s-4.925-11-11-11h-87.061c-6.075 0-11 4.925-11 11s4.925 11 11 11z"/><path d="m424.03 120.97h-175.06c-6.075 0-11 4.925-11 11s4.925 11 11 11h175.06c6.075 0 11-4.925 11-11s-4.925-11-11-11z"/><path d="m403 230h-392c-6.075 0-11 4.925-11 11v260c0 6.075 4.925 11 11 11h392c6.075 0 11-4.925 11-11v-260c0-6.075-4.925-11-11-11zm-187.033 151.831c-5.195 4.31-12.738 4.31-17.934 0l-156.539-129.831h331.012zm-65.455-10.831-128.512 106.586v-213.172zm17.231 14.291 16.245 13.473c6.667 5.529 14.84 8.294 23.012 8.294s16.345-2.765 23.012-8.294l16.245-13.473 126.249 104.709h-331.012zm95.745-14.291 128.512-106.586v213.171z"/></g></g><g/><g/><g/><g/><g/><g/><g/><g/><g/><g/><g/><g/><g/><g/><g/></svg>