<svg id="Capa_1" enable-background="new 0 0 512 512" viewBox="0 0 512 512" xmlns="http://www.w3.org/2000/svg" fill="#052438"><g><g fill="#0496FF"><path d="m256 226.137c-33.955 0-64.989 18.724-80.967 48.268l18.461 12.192c11.868-23.476 36.014-38.46 62.506-38.46s50.638 14.984 62.506 38.46l18.461-12.192c-15.977-29.545-47.012-48.268-80.967-48.268z"/><path d="m397.692 274.895s-1.97-1.192-2.325-2.279c-2.321-7.112-5.216-14.103-8.607-20.78-.703-1.383-.444-3.042.642-4.129l7.457-7.456c4.826-4.826 7.484-11.243 7.484-18.069s-2.658-13.243-7.484-18.068l-24.814-24.814c-9.964-9.963-26.175-9.963-36.139 0l-7.456 7.456c-1.086 1.087-2.746 1.345-4.13.643-6.671-3.388-13.662-6.283-20.779-8.606-1.461-.478-2.442-1.83-2.442-3.366v-10.547c0-14.09-11.463-25.553-25.554-25.553h-35.092c-14.09 0-25.553 11.463-25.553 25.553v10.544c0 1.537-.982 2.89-2.443 3.367-7.115 2.321-14.105 5.217-20.779 8.605-1.384.703-3.042.444-4.129-.643l-7.456-7.456c-4.827-4.826-11.244-7.484-18.069-7.484s-13.243 2.658-18.069 7.484l-24.814 24.814c-4.827 4.826-7.484 11.243-7.484 18.068s2.658 13.242 7.484 18.069l7.456 7.455c1.087 1.088 1.346 2.747.644 4.131-3.389 6.673-6.285 13.664-8.606 20.778-.355 1.088-1.225 1.939-2.326 2.28l12.584 11.702 12.421-12.192c1.613-4.301 3.469-8.523 5.542-12.606 5.025-9.895 3.136-21.81-4.701-29.647 0-.001 0-.001-.001-.001l-7.456-7.455c-.905-.906-1.041-1.964-1.041-2.514s.135-1.606 1.041-2.512l24.814-24.815c.905-.905 1.963-1.04 2.512-1.04.55 0 1.607.135 2.513 1.041l7.456 7.455c7.838 7.84 19.753 9.73 29.648 4.702 5.666-2.877 11.601-5.335 17.643-7.307 10.537-3.439 17.617-13.197 17.617-24.281v-10.542c0-1.959 1.594-3.553 3.553-3.553h35.092c1.959 0 3.554 1.594 3.554 3.553v10.544c0 11.085 7.08 20.842 17.616 24.28 6.043 1.973 11.979 4.432 17.643 7.308 9.893 5.024 21.81 3.137 29.649-4.701l7.456-7.456c1.386-1.387 3.641-1.387 5.025 0l24.815 24.815c.905.904 1.04 1.961 1.04 2.511s-.135 1.607-1.041 2.513l-7.458 7.457c-7.837 7.838-9.726 19.752-4.701 29.646 2.074 4.084 3.93 8.308 5.542 12.607l13.238 6.684z"/></g><g><path d="m442.269 413.401c6.56-9.216 10.435-20.47 10.435-32.619 0-31.094-25.296-56.39-56.39-56.39s-56.39 25.296-56.39 56.39c0 12.154 3.878 23.412 10.443 32.63-9.099 4.746-17.407 10.869-24.64 18.168-7.176-7.235-15.494-13.383-24.729-18.179 6.561-9.216 10.436-20.47 10.436-32.619 0-31.094-25.296-56.39-56.39-56.39-31.093 0-56.39 25.296-56.39 56.39 0 12.15 3.876 23.405 10.437 32.622-9.234 4.798-17.554 10.949-24.731 18.188-7.239-7.296-15.563-13.432-24.642-18.175 6.567-9.218 10.446-20.478 10.446-32.634 0-31.094-25.296-56.39-56.39-56.39-31.093 0-56.39 25.296-56.39 56.39 0 12.15 3.876 23.405 10.437 32.622-26.124 13.574-44.945 37.981-51.232 67.15-1.668 7.739.22 15.701 5.18 21.844 4.929 6.101 12.255 9.601 20.101 9.601h426.349c7.847 0 15.173-3.5 20.1-9.603 4.96-6.143 6.848-14.104 5.18-21.844-6.291-29.19-25.103-53.581-51.23-67.152zm-45.954-67.008c18.962 0 34.39 15.427 34.39 34.39s-15.427 34.39-34.39 34.39-34.39-15.427-34.39-34.39 15.427-34.39 34.39-34.39zm-141.27 0c18.963 0 34.39 15.427 34.39 34.39s-15.427 34.39-34.39 34.39c-18.962 0-34.39-15.427-34.39-34.39s15.427-34.39 34.39-34.39zm-141.27 0c18.963 0 34.39 15.427 34.39 34.39s-15.427 34.39-34.39 34.39c-18.962 0-34.39-15.427-34.39-34.39s15.428-34.39 34.39-34.39zm-74.888 142.184c-.448-.556-1.147-1.734-.791-3.389 5.474-25.396 23.159-46.161 47.361-55.674 8.329 4.859 18 7.657 28.318 7.657 10.317 0 19.987-2.798 28.315-7.655 10.815 4.253 20.579 10.94 28.501 19.495-5.936 9.555-10.283 20.188-12.73 31.542-.681 3.159-.76 6.353-.289 9.446h-115.702c-1.595.001-2.553-.891-2.983-1.422zm285.523 1.423h-138.73-2.54c-1.596 0-2.554-.892-2.983-1.424-.448-.555-1.147-1.733-.791-3.388 5.474-25.397 23.159-46.161 47.361-55.673 8.329 4.858 18 7.657 28.317 7.657s19.988-2.798 28.316-7.656c13.268 5.214 24.572 13.801 32.982 24.686.345.555.738 1.085 1.187 1.58 6.314 8.621 10.862 18.588 13.193 29.407.356 1.655-.342 2.833-.791 3.389-.429.531-1.387 1.423-2.983 1.423h-2.538zm146.792-1.424c-.429.532-1.388 1.424-2.983 1.424h-115.701c.471-3.094.392-6.288-.289-9.446-2.449-11.362-6.794-21.999-12.729-31.553 7.912-8.553 17.634-15.213 28.498-19.485 8.328 4.858 17.999 7.656 28.316 7.656s19.987-2.798 28.315-7.655c24.208 9.511 41.885 30.255 47.363 55.672.357 1.654-.341 2.832-.79 3.387z"/><path d="m473.39 0h-434.78c-14.336 0-26 11.663-26 26v23.908c0 12.962 9.535 23.737 21.959 25.685v182.426c0 21.166 17.22 38.386 38.386 38.386h366.089c21.166 0 38.386-17.22 38.386-38.386v-182.426c12.424-1.947 21.959-12.722 21.959-25.685v-23.908c.001-14.337-11.663-26-25.999-26zm-438.78 26c0-2.206 1.794-4 4-4h434.78c2.206 0 4 1.794 4 4v23.908c0 2.206-1.794 4-4 4h-434.78c-2.206 0-4-1.794-4-4zm420.82 232.019c0 9.035-7.351 16.386-16.386 16.386h-366.088c-9.035 0-16.386-7.351-16.386-16.386v-182.111h398.86z"/></g></g><g/><g/><g/><g/><g/><g/><g/><g/><g/><g/><g/><g/><g/><g/><g/></svg>