<svg id="Capa_1" enable-background="new 0 0 512 512" viewBox="0 0 512 512" xmlns="http://www.w3.org/2000/svg" fill="#052438"><g><g fill="#0496FF"><path d="m87.77 64.094h-66.77c-6.075 0-11 4.925-11 11v266.764h22v-255.764h44.77v255.764h22v-266.764c0-6.075-4.925-11-11-11z"/><path d="m198.539 94.094h-66.769c-6.075 0-11 4.925-11 11v236.764h22v-225.764h44.769v225.764h22v-236.764c0-6.075-4.925-11-11-11z"/><path d="m309.308 124.094h-66.77c-6.075 0-11 4.925-11 11v206.764h22v-195.764h44.77v171.959h22v-182.959c0-6.075-4.925-11-11-11z"/><path d="m420.078 154.094h-66.77c-6.075 0-11 4.925-11 11v131.64h22v-120.64h44.77v120.64h22v-131.64c0-6.075-4.925-11-11-11z"/><path d="m381.813 330.858c-18.196 0-33 14.804-33 33s14.804 33 33 33 33-14.804 33-33-14.804-33-33-33zm0 44c-6.065 0-11-4.935-11-11s4.935-11 11-11 11 4.935 11 11-4.935 11-11 11z"/></g><path d="m509.882 357.369c-2.313-3.167-57.469-77.559-128.069-77.559-43.75 0-81.563 28.565-104.552 51.048h-266.261c-6.075 0-11 4.925-11 11v44c0 6.075 4.925 11 11 11h266.261c22.989 22.483 60.802 51.048 104.552 51.048 70.6 0 125.756-74.393 128.069-77.56 2.824-3.864 2.824-9.112 0-12.977zm-66.021 6.489c0 34.213-27.835 62.048-62.048 62.048s-62.048-27.835-62.048-62.048 27.834-62.048 62.048-62.048 62.048 27.835 62.048 62.048zm-421.861-11h235.232c-1.994 2.486-3.188 4.101-3.488 4.511-2.824 3.865-2.824 9.112 0 12.978.3.41 1.495 2.025 3.488 4.511h-235.232zm254.698 10.985c5.11-6.099 13.79-15.74 25.088-25.647-2.602 8.095-4.021 16.714-4.021 25.662 0 8.924 1.411 17.521 3.999 25.596-11.252-9.881-19.943-19.519-25.066-25.611zm185.165 25.61c2.588-8.075 3.999-16.672 3.999-25.595s-1.41-17.52-3.998-25.595c11.24 9.871 19.926 19.501 25.051 25.595-5.126 6.094-13.812 15.724-25.052 25.595z"/></g><g/><g/><g/><g/><g/><g/><g/><g/><g/><g/><g/><g/><g/><g/><g/></svg>