<svg id="Capa_1" enable-background="new 0 0 512 512" viewBox="0 0 512 512" xmlns="http://www.w3.org/2000/svg" fill="#E6ECF2"><g><path d="m73.888 390.715c-6.075 0-11 4.925-11 11v46.146c0 6.075 4.925 11 11 11s11-4.925 11-11v-46.146c0-6.075-4.924-11-11-11z"/><path d="m122.4 390.715c-6.075 0-11 4.925-11 11v46.146c0 6.075 4.925 11 11 11s11-4.925 11-11v-46.146c0-6.075-4.925-11-11-11z"/><path d="m226.791 309.44c-6.075 0-11 4.925-11 11v127.421c0 6.075 4.925 11 11 11s11-4.925 11-11v-127.421c0-6.075-4.925-11-11-11z"/><path d="m275.302 309.44c-6.075 0-11 4.925-11 11v127.421c0 6.075 4.925 11 11 11s11-4.925 11-11v-127.421c0-6.075-4.925-11-11-11z"/><path d="m480.4 130.876-11 11v348.124h-130.903v-349.507l-22.435-8.977.435 130.451c-.303-.012-.606-.023-.912-.023h-129.078c-12.633 0-22.912 10.278-22.912 22.911v58.385c-.303-.012-.606-.023-.912-.023h-129.078c-12.633 0-22.912 10.278-22.912 22.912v124.871c0 11.579 9.42 21 21 21h438.747c11.557 0 20.959-9.402 20.959-20.959v-358.336zm-447.707 235.254c0-.503.409-.912.912-.912h129.079c.503 0 .912.409.912.912v123.87h-130.903zm152.902-81.275c0-.502.409-.911.912-.911h129.079c.502 0 .912.409.912.911v205.145h-130.903z"/><path d="m379.693 458.861c6.075 0 11-4.925 11-11v-258.233c0-6.075-4.925-11-11-11s-11 4.925-11 11v258.233c0 6.076 4.925 11 11 11z"/><path d="m428.204 458.861c6.075 0 11-4.925 11-11v-264.144c0-6.075-4.925-11-11-11s-11 4.925-11 11v264.145c0 6.075 4.925 10.999 11 10.999z"/><path d="m238.564 84.683 1.482-1.482v130.178c0 6.075 4.925 11 11 11s11-4.925 11-11v-130.18l1.483 1.483c2.147 2.147 4.963 3.222 7.778 3.222s5.63-1.074 7.778-3.222c4.296-4.296 4.295-11.261 0-15.557l-20.261-20.261c-4.099-4.25-11.457-4.249-15.557 0l-20.261 20.261c-4.295 4.296-4.295 11.261 0 15.557 4.297 4.296 11.262 4.296 15.558.001z"/><g fill="#0496FF"><path d="m403.948 194.717c-53.684 0-97.358-43.675-97.358-97.358s43.675-97.359 97.358-97.359 97.358 43.675 97.358 97.358-43.674 97.359-97.358 97.359zm0-172.717c-41.553 0-75.358 33.806-75.358 75.358s33.806 75.358 75.358 75.358 75.358-33.806 75.358-75.358-33.805-75.358-75.358-75.358z"/><path d="m414.776 86.216c-5.73-2.025-12.746-4.698-16.369-7.475-.151-.361-.334-1.523.207-2.926.339-.88 1.024-2.015 2.361-2.417 5.583-1.679 9.125 1.029 9.511 1.342-.037-.03.488.274 1.299.748 4.436 2.594 10.078 1.772 13.591-1.978 4.84-5.166 3.612-13.488-2.505-17.052-3.191-1.859-6.306-3.361-8.364-4.021-.029-6.125-5.061-11.068-11.221-10.946-6.049.12-10.777 5.311-10.777 11.361v.237c-8.124 3.266-14.089 10.592-15.79 19.616-1.72 9.128 1.339 18.036 7.982 23.246 6.05 4.746 14.506 8.095 22.742 11.006 1.22.432 4.932 1.743 4.133 6.497-.429 2.551-2.626 6.878-8.141 6.914-6.209.05-7.62-.159-11.963-2.976-5.039-3.268-11.923-2.131-15.323 2.821-3.505 5.105-2.111 12.065 3.043 15.436 5.005 3.274 9.036 5.005 13.319 5.887.03 6.124 5.062 11.066 11.221 10.943 6.048-.12 10.776-5.311 10.776-11.361v-.857c9.651-3.796 16.955-12.404 18.763-23.159 2.313-13.745-5.12-26.159-18.495-30.886z"/></g></g><g/><g/><g/><g/><g/><g/><g/><g/><g/><g/><g/><g/><g/><g/><g/></svg>