<svg id="Capa_1" enable-background="new 0 0 512 512" viewBox="0 0 512 512" xmlns="http://www.w3.org/2000/svg" fill="#E6ECF2"><g><g fill="#0496FF"><path d="m267 411.324h-22v41.142h-109.232v22h240.464v-22h-109.232z"/><path d="m245 163.28h22v-41.142h109.232v-22h-240.464v22h109.232z"/><path d="m193.606 298.302v-22h-105.481v-127.63h-22v214.656h22v-65.026z"/><path d="m423.875 148.672v127.63h-105.475v22h105.475v65.026h22v-214.656z"/><path d="m223.006 239.637c0 18.196 14.804 33 33 33s33-14.804 33-33-14.804-33-33-33-33 14.804-33 33zm44 0c0 6.065-4.935 11-11 11s-11-4.935-11-11 4.935-11 11-11 11 4.935 11 11z"/></g><g><path d="m344.709 240.99c0-23.929-9.384-46.361-26.423-63.165-17.036-16.801-39.604-25.884-63.548-25.536-23.071.322-44.841 9.535-61.301 25.943s-25.742 38.15-26.134 61.219c-.512 30.158 14.24 58.227 38.924 74.964-12.517 4.692-21.451 16.775-21.451 30.91 0 15.224 10.365 28.066 24.407 31.858l16.498 38.477c1.734 4.043 5.71 6.665 10.11 6.665h40.421c4.4 0 8.376-2.622 10.11-6.665l16.498-38.477c14.042-3.792 24.407-16.634 24.407-31.858 0-14.136-8.936-26.22-21.454-30.911 24.187-16.425 38.936-43.905 38.936-73.424zm-155.409-1.166c.606-35.641 30.099-65.041 65.745-65.538 17.999-.27 34.982 6.568 47.793 19.202 12.814 12.637 19.871 29.506 19.871 47.501 0 24.111-13.084 46.424-34.147 58.232-3.472 1.946-5.621 5.616-5.621 9.595v3.507h-53.883v-3.507c0-3.98-2.149-7.649-5.621-9.595-21.474-12.038-34.555-34.798-34.137-59.397zm79.658 160.5h-25.917l-9.433-22h44.782zm25.267-44h-76.449c-6.065 0-11-4.935-11-11s4.935-11 11-11h76.449c6.065 0 11 4.935 11 11s-4.935 11-11 11z"/><path d="m109.335 422.007c6.286-7.385 10.092-16.942 10.092-27.377 0-23.325-18.977-42.302-42.302-42.302s-42.302 18.977-42.302 42.302c0 10.435 3.806 19.992 10.092 27.377-26.483 12.226-44.915 39.018-44.915 70.05v8.943c0 6.075 4.925 11 11 11h132.25c6.075 0 11-4.925 11-11v-8.943c0-31.032-18.433-57.824-44.915-70.05zm-52.512-27.377c0-11.194 9.107-20.302 20.302-20.302s20.302 9.107 20.302 20.302-9.107 20.302-20.302 20.302-20.302-9.108-20.302-20.302zm-34.785 95.37c1.085-29.447 25.379-53.068 55.086-53.068s54.002 23.621 55.087 53.068z"/><path d="m109.335 69.679c6.286-7.385 10.092-16.942 10.092-27.377 0-23.325-18.977-42.302-42.302-42.302-23.326 0-42.302 18.977-42.302 42.302 0 10.435 3.806 19.993 10.092 27.377-26.483 12.226-44.915 39.018-44.915 70.05v8.943c0 6.075 4.925 11 11 11h132.25c6.075 0 11-4.925 11-11v-8.943c0-31.032-18.433-57.824-44.915-70.05zm-52.512-27.377c0-11.195 9.107-20.302 20.302-20.302s20.302 9.107 20.302 20.302-9.107 20.302-20.302 20.302-20.302-9.107-20.302-20.302zm-34.785 95.37c1.085-29.447 25.379-53.068 55.086-53.068s54.002 23.621 55.087 53.068z"/><path d="m467.086 422.007c6.286-7.385 10.092-16.942 10.092-27.377 0-23.325-18.977-42.302-42.302-42.302-23.326 0-42.302 18.977-42.302 42.302 0 10.435 3.806 19.992 10.092 27.377-26.482 12.226-44.914 39.018-44.914 70.05v8.943c0 6.075 4.925 11 11 11h132.248c6.075 0 11-4.925 11-11v-8.943c0-31.032-18.432-57.824-44.914-70.05zm-52.513-27.377c0-11.194 9.107-20.302 20.302-20.302 11.194 0 20.302 9.107 20.302 20.302s-9.107 20.302-20.302 20.302c-11.194 0-20.302-9.108-20.302-20.302zm-34.784 95.37c1.085-29.447 25.379-53.068 55.087-53.068s54.001 23.621 55.086 53.068z"/><path d="m467.086 69.679c6.286-7.385 10.092-16.942 10.092-27.377-.001-23.325-18.977-42.302-42.303-42.302s-42.302 18.977-42.302 42.302c0 10.435 3.806 19.993 10.092 27.377-26.482 12.226-44.914 39.018-44.914 70.049v8.943c0 6.075 4.925 11 11 11h132.249c6.075 0 11-4.925 11-11v-8.943c0-31.031-18.432-57.823-44.914-70.049zm-52.513-27.377c0-11.194 9.107-20.302 20.302-20.302 11.194 0 20.302 9.107 20.302 20.302s-9.107 20.302-20.302 20.302c-11.194 0-20.302-9.107-20.302-20.302zm-34.784 95.37c1.085-29.447 25.379-53.068 55.087-53.068s54.001 23.621 55.086 53.068z"/></g></g><g/><g/><g/><g/><g/><g/><g/><g/><g/><g/><g/><g/><g/><g/><g/></svg>