<svg id="Capa_1" enable-background="new 0 0 512 512" viewBox="0 0 512 512" xmlns="http://www.w3.org/2000/svg" fill="#E6ECF2"><g><g fill="#0496FF"><path d="m259.847 306.548 9.947-9.946c4.296-4.296 4.296-11.261 0-15.557-4.296-4.295-11.261-4.296-15.557 0l-9.947 9.947-9.947-9.947c-4.297-4.296-11.26-4.295-15.557 0-4.296 4.296-4.296 11.261 0 15.557l9.947 9.946-9.947 9.947c-4.296 4.296-4.296 11.261 0 15.557 2.148 2.148 4.963 3.222 7.778 3.222 2.814 0 5.631-1.074 7.778-3.222l9.947-9.947 9.947 9.947c2.148 2.148 4.963 3.222 7.778 3.222s5.63-1.074 7.778-3.222c4.296-4.296 4.296-11.261 0-15.557z"/><path d="m105.672 193.071c2.148 2.148 4.963 3.222 7.778 3.222s5.63-1.074 7.778-3.222c4.296-4.296 4.296-11.261 0-15.557l-9.947-9.946 9.947-9.947c4.296-4.296 4.296-11.261 0-15.557-4.297-4.295-11.262-4.295-15.557 0l-9.947 9.947-9.947-9.947c-4.297-4.296-11.26-4.295-15.557 0-4.296 4.296-4.296 11.261 0 15.557l9.947 9.947-9.947 9.946c-4.296 4.296-4.296 11.261 0 15.557 2.148 2.148 4.963 3.222 7.778 3.222 2.814 0 5.631-1.074 7.778-3.222l9.947-9.947z"/><path d="m135.14 265.128h50.282c25.196 0 45.695-20.499 45.695-45.696 0-25.196-20.499-45.695-45.695-45.695h-13.514c-6.075 0-11 4.925-11 11s4.925 11 11 11h13.514c13.065 0 23.695 10.63 23.695 23.696 0 13.065-10.63 23.695-23.695 23.695h-50.282c-25.196 0-45.695 20.499-45.695 45.695s20.499 45.695 45.695 45.695h30.195c6.075 0 11-4.925 11-11s-4.925-11-11-11h-30.195c-13.065 0-23.695-10.63-23.695-23.695s10.63-23.695 23.695-23.695z"/></g><g><path d="m467.856 194.879h-10.241c-1.355 0-2.55-.866-2.971-2.157-2.262-6.928-5.081-13.734-8.379-20.228-.62-1.221-.393-2.686.566-3.645l7.242-7.243c9.801-9.801 9.801-25.748 0-35.548l-24.103-24.103c-9.802-9.801-25.746-9.801-35.548 0l-7.243 7.243c-.96.959-2.425 1.186-3.646.565-6.497-3.299-13.302-6.117-20.229-8.378-1.289-.42-2.155-1.614-2.155-2.97v-10.241c0-13.86-11.275-25.136-25.136-25.136h-15.008v-12.038c0-28.121-22.879-51-51-51h-200c-28.119 0-50.997 22.878-50.997 51v410c0 28.122 22.878 51 50.999 51h200c28.121 0 51-22.878 51-51v-49.922h15.008c13.86 0 25.136-11.276 25.136-25.136v-10.241c0-1.356.866-2.55 2.156-2.971 6.927-2.261 13.732-5.08 20.229-8.379 1.221-.621 2.688-.392 3.645.566l7.243 7.243c9.801 9.799 25.747 9.801 35.548 0l24.103-24.103c9.801-9.801 9.801-25.748 0-35.548l-7.242-7.244c-.959-.959-1.187-2.423-.566-3.645 3.299-6.495 6.118-13.3 8.379-20.228.421-1.29 1.615-2.156 2.971-2.156h10.241c13.86 0 25.136-11.276 25.136-25.136v-34.086c-.002-13.859-11.278-25.135-25.138-25.135zm-426.848-109.841h257.999v304.04h-257.999zm279.999 104.149c25.483 1.071 45.888 22.129 45.888 47.871s-20.405 46.8-45.888 47.872zm-251-167.187h200c15.99 0 29 13.009 29 29v12.039h-257.999v-12.039c0-15.991 13.009-29 28.999-29zm200 468h-200c-15.99 0-28.999-13.009-28.999-29v-49.922h257.999v49.922c0 15.991-13.009 29-29 29zm200.985-235.898c0 1.729-1.406 3.136-3.136 3.136h-10.241c-10.903 0-20.502 6.965-23.885 17.33-1.91 5.854-4.293 11.604-7.08 17.092-4.943 9.734-3.085 21.454 4.625 29.164l7.242 7.244c1.223 1.223 1.223 3.212 0 4.435l-24.103 24.103c-.759.759-1.625.919-2.217.919-.593 0-1.459-.16-2.218-.919l-7.243-7.243c-7.709-7.709-19.428-9.569-29.163-4.625-5.489 2.788-11.24 5.169-17.092 7.08-10.366 3.382-17.331 12.981-17.331 23.885v10.241c0 1.729-1.406 3.136-3.136 3.136h-15.008v-82.15c37.616-1.084 67.888-31.999 67.888-69.872s-30.271-68.787-67.888-69.871v-82.149h15.008c1.729 0 3.136 1.407 3.136 3.136v10.241c0 10.904 6.965 20.502 17.33 23.885 5.852 1.91 11.603 4.292 17.092 7.079 9.733 4.945 21.454 3.085 29.164-4.624l7.243-7.243c.759-.759 1.625-.919 2.218-.919.592 0 1.458.16 2.217.919l24.103 24.103c1.223 1.223 1.223 3.212 0 4.436l-7.241 7.242c-7.711 7.71-9.57 19.43-4.626 29.165 2.787 5.487 5.169 11.237 7.08 17.091 3.383 10.366 12.981 17.331 23.885 17.331h10.241c1.729 0 3.136 1.407 3.136 3.136z"/><path d="m189.939 439.539h-39.862c-6.075 0-11 4.925-11 11s4.925 11 11 11h39.862c6.075 0 11-4.925 11-11s-4.925-11-11-11z"/></g></g><g/><g/><g/><g/><g/><g/><g/><g/><g/><g/><g/><g/><g/><g/><g/></svg>