<svg id="Capa_1" enable-background="new 0 0 512 512" viewBox="0 0 512 512" xmlns="http://www.w3.org/2000/svg" fill="#052438"><g><g><path d="m170.042 218.427c10.681 0 20.689-4.745 27.458-13.018 3.847-4.702 3.154-11.632-1.548-15.479-4.701-3.847-11.631-3.153-15.479 1.548-2.573 3.145-6.375 4.949-10.43 4.949-4.033 0-7.821-1.788-10.393-4.904-3.867-4.685-10.799-5.35-15.485-1.483s-5.35 10.8-1.483 15.486c6.765 8.199 16.738 12.901 27.36 12.901z"/><path d="m482.269 220h-51.349v22h40.348v248h-180v-248h40.349v-22h-51.349c-6.075 0-11 4.925-11 11v50.262c-15.425-9.924-33.015-15.914-51.518-17.456v-17.401c19.385-14.068 32.352-36.467 33.582-61.898 12.855-4.513 22.097-16.772 22.097-31.149 0-8.353-3.134-15.977-8.269-21.796 9.486-10.885 14.878-24.93 14.878-39.723 0-15.219-5.674-29.761-15.979-40.949-8.932-9.698-20.655-16.148-33.468-18.513-13.436-20.103-36.137-32.377-60.515-32.377s-47.08 12.274-60.515 32.377c-12.812 2.364-24.536 8.814-33.468 18.513-10.304 11.188-15.978 25.73-15.978 40.949 0 14.761 5.397 28.826 14.88 39.72-5.137 5.82-8.272 13.445-8.272 21.799 0 14.377 9.242 26.636 22.096 31.149 1.23 25.431 14.196 47.83 33.582 61.898v17.405c-57.98 4.886-103.67 53.63-103.67 112.852v41.906c0 6.075 4.925 11 11 11h239.537v71.432c0 6.075 4.925 11 11 11h202c6.075 0 11-4.925 11-11v-270c.001-6.075-4.924-11-10.999-11zm-263.159 66.073-12.15 32.304-18.881-12.154 22.848-20.756c2.751.082 5.48.285 8.183.606zm-49.034 6.782-25.674-23.324v-11.823c8.077 2.694 16.704 4.174 25.675 4.174s17.598-1.48 25.674-4.174v11.823zm-52.907-239.335c3.619-.318 6.847-2.403 8.626-5.57 8.993-16.006 25.96-25.95 44.28-25.95s35.287 9.944 44.28 25.95c1.779 3.167 5.008 5.251 8.626 5.57 19.657 1.729 35.055 18.561 35.055 38.319 0 7.8-2.366 15.268-6.609 21.543v-7.032c0-6.075-4.925-11-11-11-10.248 0-20.183-3.694-27.975-10.402-3.633-3.127-8.873-3.542-12.952-1.025-10.459 6.452-22.467 9.247-34.725 8.085-8.652-.821-16.771-3.54-24.13-8.08-4.078-2.517-9.317-2.103-12.951 1.024-7.792 6.706-17.726 10.399-27.972 10.399-6.075 0-11 4.925-11 11v7.029c-4.243-6.281-6.608-13.757-6.608-21.54.001-19.759 15.399-36.59 35.055-38.32zm-6.446 127.01v-5.171c0-6.075-4.925-11-11-11-6.065 0-11-4.935-11-11s4.935-11 11-11c6.075 0 11-4.925 11-11v-14.951c8.958-1.546 17.516-4.965 25.097-10.044 8.404 4.116 17.414 6.648 26.879 7.546 14.494 1.376 28.738-1.227 41.628-7.549 7.582 5.08 16.142 8.501 25.101 10.047v14.951c0 6.075 4.925 11 11 11 6.066 0 11 4.935 11 11s-4.935 11-11 11c-6.075 0-11 4.925-11 11v5.171c0 32.727-26.625 59.353-59.353 59.353s-59.352-26.626-59.352-59.353zm18.479 104.917 22.87 20.776-18.881 12.154-12.155-32.317c2.689-.323 5.412-.53 8.166-.613zm140.067 122.121h-174.538v-30.906c0-6.075-4.925-11-11-11s-11 4.925-11 11v30.906h-32v-30.906c0-38.893 24.458-72.175 58.799-85.29l17.865 47.5c1.17 3.111 3.685 5.526 6.84 6.571 1.128.373 2.294.557 3.455.557 2.088 0 4.158-.594 5.955-1.75l36.43-23.45 36.431 23.45c1.796 1.156 3.867 1.75 5.955 1.75 1.161 0 2.328-.184 3.455-.557 3.156-1.044 5.67-3.459 6.84-6.571l17.874-47.524c10.454 3.974 20.153 9.866 28.638 17.534v98.686z"/></g><g fill="#0496FF"><path d="m431.021 331.832v-9.99c2.071 1.82 4.656 2.742 7.248 2.742 2.815 0 5.63-1.074 7.778-3.222 4.295-4.296 4.295-11.261 0-15.557l-18.248-18.248c-4.296-4.296-11.261-4.296-15.557 0l-18.248 18.248c-4.295 4.296-4.295 11.261 0 15.557 4.125 4.125 10.705 4.277 15.026.48v9.99c0 12.775-10.393 23.168-23.168 23.168h-5.416c-24.906 0-45.168 20.262-45.168 45.168v3.724c-12.803 4.541-22 16.768-22 31.108 0 18.196 14.804 33 33 33s33-14.804 33-33c0-14.34-9.197-26.567-22-31.108v-3.724c0-12.775 10.393-23.168 23.168-23.168h5.416c24.907 0 45.169-20.262 45.169-45.168zm-84.752 114.168c-6.065 0-11-4.935-11-11s4.935-11 11-11 11 4.935 11 11-4.935 11-11 11z"/><path d="m331.617 264h99.303c6.075 0 11-4.925 11-11v-44c0-6.075-4.925-11-11-11h-18.537c-4.54-12.805-16.774-22-31.115-22s-26.575 9.195-31.115 22h-18.536c-6.075 0-11 4.925-11 11v44c0 6.075 4.925 11 11 11zm11-44h16.651c6.075 0 11-4.925 11-11 0-6.065 4.935-11 11-11s11 4.935 11 11c0 6.075 4.925 11 11 11h16.652v22h-77.303z"/><path d="m446.047 430.974c-4.296-4.296-11.261-4.296-15.557 0l-1.345 1.345-1.345-1.345c-4.296-4.296-11.261-4.296-15.557 0-4.295 4.296-4.295 11.261 0 15.557l1.345 1.345-1.345 1.345c-4.295 4.296-4.295 11.261 0 15.557 2.148 2.148 4.963 3.222 7.778 3.222s5.63-1.074 7.778-3.222l1.345-1.345 1.345 1.345c2.148 2.148 4.963 3.222 7.778 3.222s5.63-1.074 7.778-3.222c4.295-4.296 4.295-11.261 0-15.557l-1.345-1.345 1.345-1.345c4.297-4.296 4.297-11.261.002-15.557z"/><path d="m316.49 321.362c2.148 2.148 4.963 3.222 7.778 3.222s5.63-1.074 7.778-3.222l1.346-1.346 1.346 1.346c2.148 2.148 4.963 3.222 7.778 3.222s5.63-1.074 7.778-3.222c4.296-4.295 4.295-11.26 0-15.556l-1.345-1.345 1.345-1.345c4.296-4.296 4.296-11.261 0-15.557s-11.261-4.295-15.557 0l-1.346 1.346-1.346-1.346c-4.296-4.296-11.261-4.295-15.557 0-4.296 4.296-4.295 11.261 0 15.557l1.345 1.345-1.345 1.345c-4.293 4.296-4.294 11.26.002 15.556z"/></g></g><g/><g/><g/><g/><g/><g/><g/><g/><g/><g/><g/><g/><g/><g/><g/></svg>