<svg id="Capa_1" enable-background="new 0 0 512 512" viewBox="0 0 512 512" xmlns="http://www.w3.org/2000/svg" fill="#E6ECF2"><g><g><path d="" style="fill:none;stroke:#E6ECF2;stroke-width:22;stroke-linecap:round;stroke-linejoin:round;stroke-miterlimit:10"/></g><g><g><path d="m254.319 237.226c-.181 0-.363-.004-.545-.013-43.23-2.112-77.094-37.688-77.094-80.991 0-21.159 8.102-41.183 22.813-56.383 14.672-15.16 34.349-23.916 55.403-24.656 6.096-.213 11.167 4.536 11.379 10.607.213 6.071-4.536 11.166-10.607 11.379-31.957 1.123-56.989 27.062-56.989 59.052 0 31.555 24.671 57.479 56.167 59.018 6.068.296 10.747 5.456 10.45 11.524-.286 5.884-5.148 10.463-10.977 10.463z" fill="#0496FF"/></g><g><path d="m257.474 312.443h-25.871c-13.009 0-23.593-10.584-23.593-23.593v-9.123c0-.687-.439-1.291-1.092-1.504-6.227-2.033-12.347-4.568-18.19-7.535-.623-.317-1.369-.203-1.854.282l-6.452 6.452c-4.456 4.456-10.381 6.91-16.683 6.91-6.302 0-12.227-2.454-16.683-6.911l-21.471-21.471c-4.456-4.456-6.91-10.38-6.91-16.682s2.454-12.227 6.911-16.683l6.451-6.452c.486-.486.6-1.231.283-1.854-2.966-5.841-5.501-11.961-7.535-18.19-.213-.654-.818-1.093-1.504-1.093h-9.123c-13.009 0-23.593-10.584-23.593-23.593v-30.365c0-13.009 10.583-23.593 23.593-23.593h9.123c.687 0 1.291-.439 1.504-1.092 2.033-6.229 4.568-12.349 7.535-18.191.317-.624.203-1.369-.282-1.854l-6.452-6.453c-4.456-4.456-6.91-10.38-6.91-16.682s2.454-12.227 6.911-16.683l21.471-21.471c4.456-4.456 10.38-6.91 16.683-6.91s12.227 2.454 16.683 6.91l6.452 6.452c.486.486 1.231.599 1.855.282 5.842-2.967 11.962-5.502 18.189-7.534.654-.213 1.092-.818 1.092-1.505v-9.123c-.002-13.007 10.581-23.591 23.59-23.591h25.943l-4.615 22h-21.328c-.878 0-1.593.715-1.593 1.593v9.123c0 10.234-6.537 19.244-16.267 22.419-5.153 1.682-10.218 3.78-15.054 6.236-9.135 4.64-20.135 2.895-27.373-4.341l-6.452-6.452c-.386-.385-.825-.467-1.126-.467s-.74.081-1.125.466l-21.472 21.471c-.386.386-.467.825-.467 1.126s.081.74.466 1.126l6.452 6.453c7.237 7.236 8.981 18.237 4.341 27.373-2.455 4.834-4.553 9.899-6.236 15.054-3.175 9.729-12.184 16.266-22.418 16.266h-9.123c-.878 0-1.593.715-1.593 1.593v30.365c0 .878.714 1.593 1.593 1.593h9.123c10.234 0 19.244 6.537 22.418 16.267 1.683 5.155 3.781 10.22 6.236 15.054 4.64 9.135 2.896 20.136-4.341 27.373l-6.452 6.452c-.386.386-.467.825-.467 1.126s.081.74.466 1.126l21.472 21.471c.386.386.825.467 1.126.467s.741-.081 1.127-.467l6.451-6.452c7.237-7.237 18.237-8.981 27.373-4.342 4.836 2.456 9.901 4.554 15.055 6.236 9.729 3.175 16.266 12.185 16.266 22.419v9.123c0 .878.714 1.593 1.593 1.593h21.328c6.075 0 11 4.925 11 11s-6.455 11-6.455 11z" fill="#0496FF"/></g><g><path d="m379.532 367.52-39.594-13.936-32.469-25.14c-4.787-3.705-11.667-2.849-15.397 1.919l-36.072 46.098-36.072-46.097c-3.73-4.768-10.611-5.624-15.397-1.919l-32.469 25.14-39.594 13.936c-41.178 14.493-68.844 53.561-68.844 97.215v26.264c0 11.58 9.421 21 21 21h342.752c11.58 0 21-9.421 21-21v-26.265c.001-43.654-27.666-82.722-68.844-97.215zm-76.878-14.98 17.419 13.487-21.719 35.396c-1.857 3.026-4.654 3.908-6.157 4.165-1.504.256-4.435.352-7.189-1.886l-13.688-11.118zm-54.808 90.961-6.476-23.135 14.63-11.883 14.63 11.883-6.476 23.135zm-38.5-90.961 31.334 40.043-13.688 11.119c-2.755 2.239-5.685 2.143-7.189 1.886-1.502-.257-4.3-1.139-6.157-4.165l-21.719-35.396zm-123.723 112.195c0-34.335 21.76-65.063 54.148-76.462l32.891-11.577 22.233 36.233c4.671 7.613 12.4 12.842 21.205 14.345 1.489.254 2.983.375 4.473.411l7.147 25.532-19.627 36.783h-122.47zm160.478.766h19.797l13.073 24.499h-45.942zm180.276 24.499h-122.47l-19.627-36.784 7.147-25.532c1.49-.036 2.985-.157 4.473-.411 8.804-1.503 16.533-6.732 21.205-14.345l22.233-36.233 32.891 11.577c32.388 11.399 54.148 42.127 54.148 76.462z"/><path d="m256.951 312.443h.093c59.912-.503 107.607-43.832 113.055-100.52h1.551c22.6 0 40.985-18.386 40.985-40.985v-2.935c0-22.599-18.386-40.985-40.985-40.985h-1.026v-10.081-5.524c0-61.939-49.89-110.877-113.58-111.411-2.95-.021-5.755 1.123-7.838 3.189s-3.254 4.877-3.254 7.811v77.091 213.352c0 2.933 1.172 5.745 3.254 7.811 2.061 2.041 4.846 3.187 7.745 3.187zm64.994-47.948c-14.541 14.036-33.409 22.799-53.993 25.248v-191.667c6.153-1.079 12.161-3.002 17.754-5.706 15.963-7.715 35.08-5.456 48.704 5.756 8.661 7.127 13.564 13.805 14.214 19.345v20.537.01 62.905.01.118c0 24.304-9.475 46.836-26.679 63.444zm49.705-115.478c10.469 0 18.985 8.517 18.985 18.985v2.935c0 10.468-8.517 18.985-18.985 18.985h-1.026v-1.029-39.876zm-49.706-101.061c8.426 8.136 14.985 17.699 19.498 28.189-19.46-12.206-44.243-13.765-65.309-3.583-2.646 1.279-5.381 2.274-8.181 3.013v-52.874c20.582 2.449 39.45 11.215 53.992 25.255z"/></g></g></g><g/><g/><g/><g/><g/><g/><g/><g/><g/><g/><g/><g/><g/><g/><g/></svg>