<svg id="Capa_1" enable-background="new 0 0 512 512" viewBox="0 0 512 512" xmlns="http://www.w3.org/2000/svg" fill="#E6ECF2"><g><g fill="#0496FF"><path d="m353.791 210.259c-13.41 0-26.097 5.855-34.807 16.064-3.943 4.622-3.393 11.565 1.229 15.508 4.623 3.944 11.566 3.393 15.508-1.229 4.524-5.303 11.11-8.344 18.07-8.344 13.091 0 23.741 10.65 23.741 23.741s-10.65 23.741-23.741 23.741c-6.804 0-13.292-2.928-17.801-8.033-4.022-4.555-10.973-4.986-15.527-.963-4.553 4.022-4.984 10.973-.962 15.526 8.683 9.831 21.181 15.469 34.29 15.469 25.222 0 45.741-20.519 45.741-45.741s-20.519-45.739-45.741-45.739z"/><path d="m191.999 190.583v-44.194l1.222 1.222c2.148 2.148 4.963 3.222 7.778 3.222s5.63-1.074 7.778-3.222c4.296-4.296 4.296-11.261 0-15.556l-20-20c-2.063-2.063-4.861-3.222-7.778-3.222s-5.715 1.159-7.778 3.222l-20 20c-4.296 4.295-4.295 11.26 0 15.556s11.26 4.295 15.556 0l1.222-1.222v44.194c0 26.229 8.935 42.348 16.114 55.301 6.67 12.033 11.489 20.727 9.449 35.299-1.596 11.398-8.048 16.694-19.316 25.073-13.921 10.353-31.247 23.236-31.247 55.328v30.584c0 6.075 4.925 11 11 11s11-4.925 11-11v-30.584c0-21.035 9.874-28.377 22.375-37.674 11.731-8.724 25.027-18.611 27.976-39.677 3.06-21.855-4.594-35.662-11.995-49.014-6.868-12.393-13.356-24.097-13.356-44.636z"/><path d="m138.528 245.221c-4.296-4.296-11.261-4.295-15.557 0l-2.222 2.222-2.222-2.222c-4.296-4.296-11.261-4.296-15.557 0-4.295 4.296-4.296 11.261 0 15.557l2.222 2.222-2.222 2.222c-4.296 4.296-4.295 11.261 0 15.557 2.148 2.148 4.963 3.222 7.778 3.222s5.63-1.074 7.778-3.222l2.222-2.222 2.222 2.222c2.148 2.148 4.963 3.222 7.778 3.222s5.63-1.074 7.778-3.222c4.295-4.296 4.296-11.261 0-15.557l-2.22-2.222 2.222-2.222c4.296-4.296 4.295-11.261 0-15.557z"/><path d="m259.028 172.721c-4.296-4.296-11.261-4.295-15.557 0l-2.222 2.222-2.222-2.222c-4.296-4.296-11.261-4.296-15.557 0-4.295 4.296-4.296 11.261 0 15.557l2.222 2.222-2.222 2.222c-4.296 4.296-4.295 11.261 0 15.557 2.148 2.148 4.963 3.222 7.778 3.222s5.63-1.074 7.778-3.222l2.222-2.222 2.222 2.222c2.148 2.148 4.963 3.222 7.778 3.222s5.63-1.074 7.778-3.222c4.295-4.296 4.296-11.261 0-15.557l-2.222-2.222 2.222-2.222c4.298-4.296 4.297-11.261.002-15.557z"/><path d="m259.028 343.721c-4.296-4.296-11.261-4.295-15.557 0l-2.222 2.222-2.222-2.222c-4.296-4.296-11.261-4.295-15.557 0-4.295 4.296-4.296 11.261 0 15.557l2.222 2.222-2.222 2.222c-4.296 4.296-4.295 11.261 0 15.557 2.148 2.148 4.963 3.222 7.778 3.222s5.63-1.074 7.778-3.222l2.222-2.222 2.222 2.222c2.148 2.148 4.963 3.222 7.778 3.222s5.63-1.074 7.778-3.222c4.295-4.296 4.296-11.261 0-15.557l-2.222-2.222 2.222-2.222c4.298-4.296 4.297-11.261.002-15.557z"/></g><g><path d="m195.999 445h-30c-6.075 0-11 4.925-11 11s4.925 11 11 11h30c6.075 0 11-4.925 11-11s-4.925-11-11-11z"/><path d="m482.518 285.604-21.342-15.701c.591-4.604.89-9.258.89-13.904s-.298-9.299-.89-13.904l21.342-15.7c4.515-3.322 5.811-9.507 3.008-14.361l-27.792-48.138c-2.803-4.855-8.808-6.826-13.941-4.575l-24.271 10.634c-7.419-5.684-15.48-10.346-24.081-13.927l-2.924-26.312c-.619-5.571-5.328-9.785-10.933-9.785h-44.584v-78.931c0-22.607-18.393-41-41-41h-230c-22.607 0-41 18.393-41 41v430c0 22.607 18.393 41 41 41h230c22.607 0 41-18.392 41-41v-78.933h44.584c5.605 0 10.313-4.214 10.933-9.785l2.924-26.312c8.6-3.58 16.661-8.242 24.081-13.927l24.272 10.634c5.134 2.25 11.138.279 13.94-4.575l27.792-48.137c2.802-4.854 1.507-11.039-3.008-14.361zm-249.28-263.604-7.667 23h-89.143l-7.667-23zm81.761 449c0 10.477-8.523 19-19 19h-230c-10.477 0-19-8.523-19-19v-430c0-10.477 8.523-19 19-19h39.572l12.492 37.479c1.497 4.492 5.701 7.521 10.436 7.521h105c4.735 0 8.938-3.03 10.436-7.521l12.493-37.479h39.572c10.477 0 19 8.523 19 19v430zm128.605-142.424-21.419-9.384c-3.902-1.709-8.443-1.012-11.652 1.793-8.51 7.437-18.212 13.048-28.838 16.678-4.032 1.377-6.906 4.959-7.376 9.194l-2.58 23.211h-34.739v-228.136h34.739l2.579 23.211c.47 4.235 3.344 7.817 7.376 9.194 10.629 3.632 20.332 9.243 28.837 16.677 3.21 2.805 7.75 3.503 11.654 1.793l21.418-9.384 17.946 31.085-18.82 13.845c-3.429 2.522-5.095 6.796-4.277 10.974 1.069 5.464 1.612 11.074 1.612 16.672 0 5.599-.542 11.208-1.612 16.672-.818 4.177.848 8.452 4.276 10.974l18.82 13.846z"/></g></g><g/><g/><g/><g/><g/><g/><g/><g/><g/><g/><g/><g/><g/><g/><g/></svg>