<svg id="Capa_1" enable-background="new 0 0 512 512" viewBox="0 0 512 512" xmlns="http://www.w3.org/2000/svg" fill="#E6ECF2"><g><g fill="#0496FF"><path d="m388.249 286.652h-121.249v-54.676h-22v54.676h-121.25c-6.075 0-11 4.925-11 11v65.676h22v-54.676h110.25v54.676h22v-54.676h110.249v54.676h22v-65.676c0-6.075-4.925-11-11-11z"/><path d="m389.582 44h-44c-6.075 0-11 4.925-11 11s4.925 11 11 11h17.444l-83.082 83.083-71.758-49.743c-4.37-3.029-10.284-2.5-14.045 1.262l-79.596 79.596c-4.295 4.296-4.295 11.261 0 15.557 2.148 2.148 4.963 3.222 7.778 3.222s5.63-1.074 7.778-3.222l73.101-73.101 71.758 49.743c4.371 3.029 10.284 2.499 14.045-1.262l89.577-89.578v17.443c0 6.075 4.925 11 11 11s11-4.925 11-11v-44c0-6.075-4.925-11-11-11z"/></g><g><path d="m78.323 242.977h355.354c6.075 0 11-4.925 11-11v-220.977c0-6.075-4.925-11-11-11h-355.354c-6.075 0-11 4.925-11 11v220.977c0 6.075 4.925 11 11 11zm11-220.977h333.354v198.977h-333.354z"/><path d="m420.46 422.007c6.286-7.385 10.092-16.942 10.092-27.377 0-23.325-18.977-42.302-42.302-42.302-23.326 0-42.302 18.977-42.302 42.302 0 10.435 3.806 19.992 10.092 27.377-14.118 6.518-25.948 17.166-33.914 30.403-7.966-13.237-19.797-23.885-33.914-30.403 6.286-7.385 10.092-16.942 10.092-27.377 0-23.325-18.977-42.302-42.302-42.302s-42.302 18.977-42.302 42.302c0 10.435 3.806 19.992 10.092 27.377-14.117 6.518-25.948 17.166-33.914 30.403-7.966-13.237-19.797-23.885-33.914-30.403 6.286-7.385 10.092-16.942 10.092-27.377 0-23.325-18.977-42.302-42.302-42.302s-42.302 18.977-42.302 42.302c0 10.435 3.806 19.992 10.092 27.377-26.482 12.226-44.914 39.018-44.914 70.05v8.943c0 6.075 4.925 11 11 11h396.748c6.075 0 11-4.925 11-11v-8.943c-.004-31.032-18.436-57.824-44.918-70.05zm-52.513-27.377c0-11.194 9.107-20.302 20.302-20.302 11.194 0 20.302 9.107 20.302 20.302s-9.107 20.302-20.302 20.302c-11.194 0-20.302-9.108-20.302-20.302zm-132.249 0c0-11.194 9.107-20.302 20.302-20.302s20.302 9.107 20.302 20.302-9.107 20.302-20.302 20.302-20.302-9.108-20.302-20.302zm-132.249 0c0-11.194 9.107-20.302 20.302-20.302s20.302 9.107 20.302 20.302-9.107 20.302-20.302 20.302-20.302-9.108-20.302-20.302zm-34.785 95.37c1.085-29.447 25.379-53.068 55.086-53.068s54.002 23.621 55.087 53.068zm132.25 0c1.085-29.447 25.379-53.068 55.086-53.068s54.001 23.621 55.086 53.068zm132.249 0c1.085-29.447 25.379-53.068 55.087-53.068s54.001 23.621 55.086 53.068z"/></g></g><g/><g/><g/><g/><g/><g/><g/><g/><g/><g/><g/><g/><g/><g/><g/></svg>