<svg id="Capa_1" enable-background="new 0 0 512 512" viewBox="0 0 512 512" xmlns="http://www.w3.org/2000/svg" fill="#052438"><g><path d="m402.521 32.741h-106.357c-3.832-18.661-20.386-32.741-40.164-32.741s-36.332 14.08-40.164 32.741h-106.357c-28.121 0-51 22.878-51 51v377.259c0 28.122 22.879 51 51 51h293.041c28.121 0 51-22.878 51-51v-377.259c.001-28.121-22.878-51-50.999-51zm-198.279 22h21.758c6.075 0 11-4.925 11-11v-2.741c0-10.477 8.523-19 19-19s19 8.523 19 19v2.741c0 6.075 4.925 11 11 11h21.758v22h-103.516zm183.279 44v347.259h-263.042v-347.259zm44 362.259c0 15.991-13.01 29-29 29h-293.042c-15.99 0-29-13.009-29-29v-377.259c0-15.991 13.01-29 29-29h72.763v22h-68.763c-6.075 0-11 4.925-11 11v369.259c0 6.075 4.925 11 11 11h285.041c6.075 0 11-4.925 11-11v-369.259c0-6.075-4.925-11-11-11h-68.763v-22h72.763c15.99 0 29 13.009 29 29v377.259z"/><g fill="#0496FF"><path d="m166.479 236.711c0 6.075 4.925 11 11 11s11-4.925 11-11v-5.766c11.064-4.393 18.911-15.197 18.911-27.807 0-16.493-13.418-29.912-29.911-29.912-4.362 0-7.912-3.549-7.912-7.912s3.55-7.912 7.912-7.912h20c6.075 0 11-4.925 11-11s-4.925-11-11-11h-9v-3.662c0-6.075-4.925-11-11-11s-11 4.925-11 11v5.766c-11.064 4.393-18.912 15.197-18.912 27.807 0 16.493 13.419 29.912 29.912 29.912 4.362 0 7.911 3.549 7.911 7.912s-3.549 7.912-7.911 7.912h-20c-6.075 0-11 4.925-11 11s4.925 11 11 11h9z"/><path d="m332.521 358c-18.196 0-33 14.804-33 33s14.804 33 33 33 33-14.804 33-33-14.804-33-33-33zm0 44c-6.065 0-11-4.935-11-11s4.935-11 11-11 11 4.935 11 11-4.935 11-11 11z"/><path d="m234.673 287.613h51.654c31.536 0 57.193-25.657 57.193-57.194s-25.657-57.193-57.193-57.193h-50.102c-6.075 0-11 4.925-11 11s4.925 11 11 11h50.102c19.405 0 35.193 15.788 35.193 35.193s-15.788 35.194-35.193 35.194h-51.654c-37.602 0-68.193 30.591-68.193 68.193s30.591 68.194 68.193 68.194h31.848c6.075 0 11-4.925 11-11s-4.925-11-11-11h-31.848c-25.471 0-46.193-20.722-46.193-46.193s20.722-46.194 46.193-46.194z"/></g></g><g/><g/><g/><g/><g/><g/><g/><g/><g/><g/><g/><g/><g/><g/><g/></svg>