<svg id="Capa_1" enable-background="new 0 0 512 512" viewBox="0 0 512 512" xmlns="http://www.w3.org/2000/svg" fill="#052438"><g><g fill="#0496FF"><path d="m225.653 364.896v-107.402c0-2.206 1.794-4 4-4h35.984c2.206 0 4 1.794 4 4v107.401h22v-107.401c0-14.336-11.664-26-26-26h-35.984c-14.336 0-26 11.664-26 26v107.401h22z"/><path d="m106.397 364.896v-67.897c0-2.206 1.794-4 4-4h35.985c2.206 0 4 1.794 4 4v67.897h22v-67.897c0-14.336-11.664-26-26-26h-35.985c-14.336 0-26 11.664-26 26v67.897z"/><path d="m322.909 218.774v146.122h22v-148.606c0-8.919-6.069-16.448-14.296-18.671l36.288-44.285 36.289 44.285c-8.227 2.223-14.296 9.752-14.296 18.671v148.605h22v-146.121c6.444-.87 11.983-4.879 14.832-10.895 3.233-6.83 2.267-14.704-2.523-20.548l-41.331-50.438c-3.691-4.504-9.147-7.087-14.97-7.087s-11.28 2.583-14.97 7.087l-41.331 50.438c-4.79 5.845-5.756 13.718-2.523 20.548 2.848 6.016 8.387 10.025 14.831 10.895z"/></g><g><path d="m491 353.924h-5.907v-236.892c0-28.466-23.159-51.625-51.625-51.625h-354.936c-28.466 0-51.625 23.159-51.625 51.625v236.891h-5.907c-11.58 0-21 9.42-21 21v20.669c0 28.122 22.878 51 51 51h410c28.122 0 51-22.878 51-51v-20.669c0-11.579-9.42-20.999-21-20.999zm-442.093-236.892c0-16.335 13.29-29.625 29.625-29.625h354.936c16.335 0 29.625 13.29 29.625 29.625v236.891h-414.186zm441.093 278.561c0 15.991-13.009 29-29 29h-410c-15.991 0-29-13.009-29-29v-19.669h468z"/><path d="m170.407 127.451h-79.99c-6.075 0-11 4.925-11 11s4.925 11 11 11h79.99c6.075 0 11-4.925 11-11s-4.925-11-11-11z"/><path d="m152.06 175.226h-61.643c-6.075 0-11 4.925-11 11s4.925 11 11 11h61.643c6.075 0 11-4.925 11-11s-4.925-11-11-11z"/></g></g><g/><g/><g/><g/><g/><g/><g/><g/><g/><g/><g/><g/><g/><g/><g/></svg>