<svg id="Capa_1" enable-background="new 0 0 512 512" viewBox="0 0 512 512" xmlns="http://www.w3.org/2000/svg" fill="#052438"><g><path d="m455.758 302.737c11.325-10.063 18.471-24.731 18.471-41.037 0-30.269-24.626-54.895-54.896-54.895-30.269 0-54.895 24.626-54.895 54.895 0 16.306 7.146 30.974 18.47 41.037-26.342 11.303-46.428 34.477-53.491 62.753-9.618-12.472-22.337-22.436-36.993-28.724 11.325-10.063 18.471-24.731 18.471-41.037 0-30.27-24.626-54.896-54.896-54.896s-54.896 24.626-54.896 54.896c0 16.306 7.146 30.974 18.471 41.037-14.655 6.289-27.375 16.252-36.992 28.724-7.063-28.276-27.15-51.449-53.492-62.753 11.325-10.063 18.471-24.731 18.471-41.037 0-30.269-24.626-54.895-54.896-54.895s-54.894 24.626-54.894 54.895c0 16.306 7.146 30.974 18.471 41.037-33.041 14.178-56.242 47.033-56.242 85.206v34.028c0 6.075 4.925 11 11 11h152.334v23.029c0 6.075 4.925 11 11 11h163.333c6.075 0 11-4.925 11-11v-23.028h152.333c6.075 0 11-4.925 11-11v-34.028c0-38.174-23.201-71.029-56.242-85.207zm-36.425-73.932c18.14 0 32.896 14.757 32.896 32.895 0 18.139-14.757 32.896-32.896 32.896-18.138 0-32.895-14.757-32.895-32.896 0-18.138 14.757-32.895 32.895-32.895zm-163.333 34.028c18.139 0 32.896 14.757 32.896 32.896s-14.757 32.895-32.896 32.895-32.896-14.757-32.896-32.896 14.757-32.895 32.896-32.895zm-163.333-34.028c18.139 0 32.896 14.757 32.896 32.895 0 18.139-14.757 32.896-32.896 32.896s-32.896-14.758-32.896-32.896 14.757-32.895 32.896-32.895zm-70.667 159.138c0-38.966 31.701-70.666 70.667-70.666s70.667 31.7 70.667 70.666v23.028h-141.334zm304.667 57.057h-141.333v-23.028c0-38.966 31.7-70.666 70.666-70.666s70.667 31.7 70.667 70.666zm163.333-34.029h-141.333v-23.028c0-38.966 31.7-70.666 70.666-70.666s70.667 31.7 70.667 70.666z"/><g fill="#0496FF"><path d="m315.628 121.699-34-5.63-15.861-30.597c-1.891-3.647-5.657-5.938-9.766-5.938s-7.875 2.29-9.766 5.938l-15.861 30.597-34.001 5.63c-4.054.672-7.396 3.546-8.665 7.453s-.256 8.197 2.629 11.123l24.198 24.54-5.151 34.076c-.614 4.062 1.087 8.129 4.41 10.544 3.325 2.416 7.72 2.774 11.391.937l30.816-15.431 30.816 15.431c1.558.78 3.244 1.164 4.924 1.164 2.282 0 4.552-.71 6.467-2.101 3.324-2.415 5.024-6.481 4.41-10.544l-5.152-34.076 24.198-24.54c2.885-2.926 3.898-7.215 2.629-11.123-1.27-3.907-4.611-6.781-8.665-7.453zm-37.695 31.591c-2.434 2.469-3.562 5.94-3.043 9.368l2.804 18.541-16.768-8.396c-3.1-1.553-6.75-1.553-9.85 0l-16.769 8.396 2.803-18.542c.519-3.428-.609-6.899-3.043-9.368l-13.167-13.352 18.501-3.063c3.42-.566 6.373-2.712 7.969-5.79l8.631-16.647 8.63 16.647c1.596 3.078 4.549 5.224 7.969 5.79l18.5 3.063z"/><path d="m165.997 79.525-26.83-4.442-12.517-24.145c-1.89-3.647-5.657-5.938-9.765-5.938s-7.875 2.29-9.766 5.938l-12.516 24.145-26.831 4.442c-4.054.672-7.396 3.546-8.665 7.453-1.27 3.908-.256 8.197 2.63 11.123l19.095 19.365-4.065 26.89c-.614 4.062 1.086 8.129 4.41 10.544 1.915 1.391 4.185 2.101 6.467 2.101 1.68 0 3.367-.385 4.924-1.164l24.318-12.177 24.317 12.177c3.675 1.841 8.065 1.478 11.391-.937 3.323-2.415 5.024-6.481 4.41-10.544l-4.064-26.89 19.095-19.365c2.885-2.926 3.898-7.216 2.629-11.123s-4.613-6.781-8.667-7.453zm-32.592 26.416c-2.434 2.469-3.562 5.94-3.043 9.368l1.716 11.354-10.269-5.142c-1.55-.776-3.237-1.164-4.925-1.164s-3.375.388-4.925 1.164l-10.27 5.142 1.717-11.354c.519-3.428-.609-6.899-3.043-9.368l-8.063-8.178 11.33-1.876c3.42-.566 6.373-2.712 7.969-5.79l5.286-10.195 5.285 10.195c1.596 3.078 4.548 5.224 7.969 5.79l11.331 1.876z"/><path d="m452.894 86.978c-1.27-3.907-4.611-6.781-8.665-7.453l-26.83-4.442-12.517-24.145c-1.891-3.647-5.657-5.938-9.766-5.938s-7.875 2.29-9.766 5.938l-12.517 24.145-26.83 4.442c-4.054.672-7.396 3.546-8.665 7.453-1.27 3.908-.256 8.197 2.629 11.123l19.095 19.365-4.065 26.89c-.614 4.062 1.086 8.129 4.41 10.544 3.324 2.414 7.719 2.774 11.391.937l24.318-12.177 24.318 12.177c1.558.78 3.244 1.164 4.924 1.164 2.282 0 4.552-.71 6.467-2.101 3.324-2.415 5.024-6.481 4.41-10.544l-4.065-26.89 19.095-19.365c2.884-2.926 3.898-7.216 2.629-11.123zm-41.257 18.963c-2.434 2.469-3.562 5.94-3.043 9.368l1.717 11.354-10.27-5.142c-1.55-.776-3.237-1.164-4.925-1.164s-3.375.388-4.925 1.164l-10.27 5.142 1.717-11.354c.519-3.428-.609-6.899-3.043-9.368l-8.064-8.178 11.33-1.876c3.42-.566 6.373-2.712 7.969-5.79l5.286-10.195 5.285 10.195c1.596 3.078 4.549 5.224 7.969 5.79l11.331 1.876z"/></g></g><g/><g/><g/><g/><g/><g/><g/><g/><g/><g/><g/><g/><g/><g/><g/></svg>