<svg id="Capa_1" enable-background="new 0 0 512 512" viewBox="0 0 512 512" xmlns="http://www.w3.org/2000/svg" fill="#052438"><g><path d="m484.771 273.649c-12.867-12.865-33.803-12.867-46.67 0l-47.415 47.416h-100.812v-13.347c1.621-1.277 3.187-2.641 4.678-4.113 10.529-10.393 16.327-24.264 16.327-39.057v-37.724c0-28.122-22.879-51-51-51h-7.758c-28.121 0-51 22.878-51 51v37.07c0 17.595 8.238 33.376 21.005 43.581v13.59h-100.812l-47.415-47.416c-12.866-12.865-33.802-12.868-46.67 0-12.865 12.866-12.865 33.801 0 46.669l63.524 63.524c2.063 2.063 4.861 3.222 7.778 3.222h68.936v49.179c0 6.075 4.925 11 11 11h155.064c6.075 0 11-4.925 11-11v-49.179h68.936c2.917 0 5.715-1.159 7.778-3.222l63.524-63.525c12.867-12.866 12.867-33.801.002-46.668zm-236.549 89.135c2.148 2.148 4.963 3.222 7.778 3.222s5.63-1.074 7.778-3.222l11.035-11.034-10.972 73.493h-15.682l-10.972-73.493zm-25.101-98.89v-15.08h2.793c8.298 0 16.606-1.961 24.026-5.672l6.06-3.03 6.059 3.029c7.421 3.711 15.729 5.672 24.027 5.672h2.793v15.734c0 8.862-3.474 17.173-9.782 23.399-6.307 6.226-14.646 9.589-23.537 9.477-17.887-.232-32.439-15.273-32.439-33.529zm29-66.07h7.758c15.986 0 28.994 13.004 29 28.99h-2.793c-4.9 0-9.806-1.158-14.188-3.35l-10.979-5.489c-1.548-.774-3.233-1.161-4.919-1.161s-3.371.387-4.919 1.161l-10.979 5.49c-4.382 2.191-9.287 3.349-14.188 3.349h-2.793c.006-15.986 13.014-28.99 29-28.99zm3.153 121.598c.245.003.489.005.733.005 4.041 0 8.011-.449 11.866-1.295v9.444l-11.873 11.874-11.874-11.874v-9.473c3.599.813 7.327 1.269 11.148 1.319zm-212.488-30.216c4.289-4.289 11.268-4.289 15.557 0l7.778 7.778-15.557 15.556-7.778-7.778c-4.288-4.289-4.289-11.268 0-15.556zm135.682 75.858h-75.379l-36.968-36.968 15.556-15.556 27.302 27.303c2.063 2.062 4.861 3.222 7.778 3.222h96.888l12.268 82.179h-36.446v-49.179c.001-6.076-4.924-11.001-10.999-11.001zm230.443 0h-75.379c-6.075 0-11 4.925-11 11v49.179h-36.446l12.268-82.179h96.888c2.917 0 5.715-1.159 7.778-3.222l27.302-27.303 15.556 15.556zm60.303-60.302-7.778 7.778-15.556-15.557 7.778-7.778c4.288-4.289 11.267-4.29 15.557 0 4.288 4.289 4.287 11.268-.001 15.557z"/><g fill="#0496FF"><path d="m173 91.313h-98c-6.075 0-11 4.925-11 11v33h-53c-6.075 0-11 4.925-11 11v67.908c0 6.075 4.925 11 11 11h4.561v10.113c0 4.398 2.619 8.373 6.66 10.108 1.398.6 2.874.893 4.338.893 2.767 0 5.493-1.044 7.578-3.025l19.041-18.088h55.822c6.075 0 11-4.925 11-11v-33h10.822l19.041 18.088c2.086 1.981 4.812 3.025 7.578 3.025 1.464 0 2.939-.292 4.338-.893 4.041-1.735 6.66-5.71 6.66-10.108v-10.113h4.561c6.075 0 11-4.925 11-11v-67.908c0-6.075-4.925-11-11-11zm-75 111.908h-49.214c-2.819 0-5.531 1.083-7.576 3.025l-4.342 4.125c-1.561-4.176-5.587-7.15-10.308-7.15h-4.56v-45.908h76zm64-44h-4.561c-4.721 0-8.747 2.974-10.308 7.15l-4.342-4.125c-2.045-1.942-4.757-3.025-7.576-3.025h-15.213v-12.908c0-6.075-4.925-11-11-11h-23v-22h76z"/><path d="m511.994 131.693c-.001-2.862-1.113-5.675-3.216-7.778l-55.936-55.936c-2.104-2.104-4.916-3.216-7.778-3.217v-.005h-57.45c-6.075 0-11 4.925-11 11v159.577c0 6.075 4.925 11 11 11h113.386c6.075 0 11-4.925 11-11v-103.641zm-55.93-29.38 18.379 18.379h-18.379zm-57.45 122.021v-137.577h35.45v44.936c0 6.075 4.925 11 11 11h44.936v81.641z"/></g></g><g/><g/><g/><g/><g/><g/><g/><g/><g/><g/><g/><g/><g/><g/><g/></svg>