<svg id="Capa_1" enable-background="new 0 0 512 512" viewBox="0 0 512 512" xmlns="http://www.w3.org/2000/svg" fill="#052438"><g><g fill="#0496FF"><path d="m234.965 100.824c-65.779 0-119.295 53.515-119.295 119.294s53.516 119.295 119.295 119.295c19.328 0 37.595-4.625 53.759-12.82l-4.559-22.568c-14.444 8.502-31.261 13.388-49.2 13.388-53.648 0-97.295-43.646-97.295-97.295s43.646-97.294 97.295-97.294 97.295 43.646 97.295 97.294l21.896-4.793c-2.526-63.565-55.018-114.501-119.191-114.501z"/><path d="m448.294 178.608-27.075-11.219c-4.107-14.536-9.914-28.533-17.313-41.737l11.211-27.059c1.703-4.11.763-8.841-2.383-11.988l-44.287-44.299c-3.146-3.147-7.879-4.087-11.987-2.386l-27.1 11.221c-13.209-7.395-27.205-13.194-41.742-17.295l-11.198-27.045c-1.702-4.111-5.713-6.792-10.161-6.792l-62.641-.009c-.001 0-.001 0-.002 0-4.448 0-8.459 2.68-10.162 6.789l-11.219 27.076c-14.536 4.107-28.531 9.913-41.738 17.314l-27.058-11.212c-4.108-1.701-8.841-.763-11.988 2.383l-44.3 44.287c-3.146 3.146-4.088 7.877-2.386 11.987l11.221 27.099c-7.395 13.208-13.193 27.204-17.296 41.742l-27.044 11.199c-4.111 1.702-6.791 5.712-6.792 10.162l-.009 62.64c-.001 4.449 2.679 8.46 6.789 10.164l27.076 11.219c4.106 14.535 9.912 28.53 17.313 41.737l-11.212 27.059c-1.703 4.11-.763 8.841 2.383 11.987l44.287 44.3c3.146 3.148 7.879 4.088 11.987 2.386l27.099-11.221c13.208 7.395 27.204 13.194 41.742 17.295l11.199 27.044c1.702 4.11 5.713 6.791 10.161 6.792l62.64.009h.002c4.448 0 8.459-2.68 10.162-6.789l11.22-27.075c12.472-3.524 24.543-8.308 36.063-14.268l-4.747-7.271-6.429-11.723c-11.353 5.773-23.298 10.262-35.652 13.368-3.375.848-6.148 3.243-7.48 6.457l-10.484 25.3-47.939-.007-10.466-25.273c-1.332-3.217-4.108-5.613-7.485-6.46-16.189-4.063-31.683-10.482-46.047-19.078-2.986-1.787-6.644-2.056-9.856-.724l-25.325 10.486-33.896-33.904 10.479-25.29c1.333-3.217 1.064-6.875-.726-9.863-8.604-14.365-15.029-29.855-19.099-46.041-.849-3.374-3.243-6.148-6.457-7.48l-25.301-10.483.007-47.94 25.273-10.465c3.217-1.332 5.613-4.108 6.461-7.485 4.063-16.19 10.482-31.683 19.078-46.047 1.786-2.986 2.055-6.642.724-9.856l-10.486-25.327 33.904-33.895 25.289 10.479c3.22 1.333 6.877 1.064 9.863-.726 14.364-8.604 29.854-15.03 46.041-19.099 3.375-.848 6.148-3.243 7.48-6.458l10.483-25.3 47.94.007 10.465 25.273c1.332 3.217 4.108 5.614 7.485 6.461 16.188 4.063 31.682 10.482 46.048 19.078 2.985 1.787 6.642 2.056 9.856.724l25.324-10.486 33.895 33.903-10.476 25.292c-1.333 3.217-1.064 6.875.726 9.863 8.603 14.362 15.028 29.852 19.099 46.04.849 3.374 3.243 6.148 6.457 7.48l25.301 10.484-.003 22.057 21.999 4.524.005-33.929c0-4.448-2.68-8.459-6.79-10.163z"/><path d="m434.263 304.78c0-26.794-21.799-48.593-48.593-48.593s-48.593 21.799-48.593 48.593c0 23.01 16.082 42.322 37.593 47.321v60.899h22v-60.899c21.511-4.999 37.593-24.311 37.593-47.321zm-48.593 26.592c-14.663 0-26.593-11.929-26.593-26.592s11.93-26.593 26.593-26.593 26.593 11.93 26.593 26.593-11.93 26.592-26.593 26.592z"/></g><path d="m497.154 306.528c0-30.074-11.794-58.267-33.209-79.386-21.412-21.115-49.808-32.516-79.869-32.094-28.992.404-56.352 11.984-77.04 32.607-20.689 20.624-32.355 47.948-32.848 76.938-.662 38.91 18.886 75.064 51.409 95.873v6.33c-9.516 5.796-15.884 16.271-15.884 28.204 0 17.119 13.104 31.231 29.807 32.843l9.362 35.931c1.263 4.845 5.638 8.227 10.645 8.227h52.271c5.007 0 9.382-3.381 10.645-8.227l9.362-35.931c16.703-1.612 29.807-15.724 29.807-32.843 0-11.934-6.368-22.408-15.884-28.204v-6.332c31.879-20.419 51.426-55.832 51.426-93.936zm-200.969-1.561c.396-23.242 9.765-45.165 26.383-61.73s38.571-25.867 61.815-26.19c24.164-.34 46.928 8.812 64.114 25.761 17.19 16.952 26.657 39.582 26.657 63.722 0 32.345-17.552 62.278-45.806 78.117-3.472 1.946-5.621 5.616-5.621 9.595v7.758h-76.13v-7.76c0-3.979-2.149-7.649-5.621-9.595-28.806-16.149-46.352-46.68-45.791-79.678zm71.843 185.033-5.732-22h46.733l-5.732 22zm60.583-44h-85.897c-6.065 0-11-4.935-11-11s4.935-11 11-11h85.897c6.065 0 11 4.935 11 11s-4.934 11-11 11z"/></g><g/><g/><g/><g/><g/><g/><g/><g/><g/><g/><g/><g/><g/><g/><g/></svg>