<svg id="Capa_1" enable-background="new 0 0 512 512" viewBox="0 0 512 512" xmlns="http://www.w3.org/2000/svg" fill="#E6ECF2"><g><path d="m425 169.878h-11v-30.878c0-6.075-4.925-11-11-11s-11 4.925-11 11v30.878h-22v-50.878c0-6.075-4.925-11-11-11s-11 4.925-11 11v50.878h-22v-40.878c0-6.075-4.925-11-11-11s-11 4.925-11 11v40.878h-22v-70.878c0-6.075-4.925-11-11-11s-11 4.925-11 11v81.878c0 6.075 4.925 11 11 11h154c6.075 0 11-4.925 11-11s-4.925-11-11-11z" fill="#0496FF"/><g><path d="m230.065 317.132h-11v-8.52c0-37.983-28.135-69.519-64.659-74.861v-14.144c1.621-1.277 3.187-2.641 4.678-4.112 10.528-10.394 16.327-24.264 16.327-39.058v-37.724c0-17.701-9.069-33.319-22.801-42.468 1.688-4.127 2.596-8.577 2.596-13.113 0-19.12-15.556-34.676-34.676-34.676s-34.675 15.556-34.675 34.676c0 4.537.909 8.987 2.597 13.114-13.73 9.148-22.798 24.766-22.798 42.466v37.07c0 17.595 8.238 33.376 21.005 43.58v14.388c-36.524 5.343-64.659 36.879-64.659 74.862v8.52h-11c-6.075 0-11 4.925-11 11v44c0 6.075 4.925 11 11 11h11v117.868c0 6.075 4.925 11 11 11h175.065c6.075 0 11-4.925 11-11v-117.868h11c6.075 0 11-4.925 11-11v-44c0-6.075-4.924-11-11-11zm-33-8.52v8.52h-41.275l6.956-58.558c20.056 7.778 34.319 27.268 34.319 50.038zm-89.636 8.52-6.442-54.226 11.766 11.767c2.062 2.063 4.86 3.222 7.778 3.222 2.917 0 5.716-1.159 7.778-3.222l11.767-11.767-6.442 54.226zm-19.775-141.349v-15.08h2.792c8.297 0 16.605-1.961 24.026-5.672l6.06-3.03 6.06 3.03c7.421 3.71 15.729 5.672 24.027 5.672h2.792v15.734c0 8.863-3.475 17.173-9.782 23.4-6.308 6.226-14.691 9.596-23.536 9.476-17.887-.233-32.439-15.274-32.439-33.53zm20.201-92.651c0-6.989 5.687-12.676 12.676-12.676s12.676 5.687 12.676 12.676c0 1.818-.376 3.565-1.089 5.163-2.514-.383-5.088-.582-7.707-.582h-7.757c-2.62 0-5.194.2-7.709.583-.713-1.599-1.09-3.346-1.09-5.164zm8.799 26.58h7.757c15.987 0 28.995 13.003 29 28.99h-2.792c-4.9 0-9.807-1.158-14.189-3.35l-10.979-5.489c-1.548-.774-3.233-1.161-4.919-1.161s-3.371.387-4.919 1.161l-10.979 5.489c-4.383 2.191-9.289 3.35-14.188 3.35h-2.792c.005-15.986 13.013-28.99 29-28.99zm3.154 121.599c.245.003.489.005.734.005 4.041 0 8.01-.449 11.864-1.295v9.444l-11.874 11.874-11.873-11.873v-9.473c3.6.811 7.328 1.268 11.149 1.318zm-75.808 77.301c0-22.77 14.263-42.259 34.319-50.038l6.956 58.558h-41.275zm153.065 181.388h-153.065v-106.868h153.065zm22-128.868h-197.065v-22h197.065z"/><path d="m501 0h-306c-6.075 0-11 4.925-11 11v44c0 6.075 4.925 11 11 11h11v158.878c0 6.075 4.925 11 11 11h120v15.49c-12.803 4.541-22 16.768-22 31.108 0 18.196 14.804 33 33 33s33-14.804 33-33c0-14.34-9.197-26.567-22-31.108v-15.49h120c6.075 0 11-4.925 11-11v-158.878h11c6.075 0 11-4.925 11-11v-44c0-6.075-4.925-11-11-11zm-153 293.477c-6.065 0-11-4.935-11-11s4.935-11 11-11 11 4.935 11 11-4.935 11-11 11zm120-79.599h-240v-147.878h240zm22-169.878h-284v-22h284z"/></g></g><g/><g/><g/><g/><g/><g/><g/><g/><g/><g/><g/><g/><g/><g/><g/></svg>