<svg id="Layer_1" enable-background="new 0 0 512 512" viewBox="0 0 512 512" xmlns="http://www.w3.org/2000/svg" fill="#E6ECF2"><g><g><path d="m440.414 446h-11v-267.91h-22v267.91h-130v-286h111.91v-22h-111.91v-47.91c0-6.075-4.925-11-11-11h-220c-6.075 0-11 4.925-11 11v355.91h-11c-6.075 0-11 4.925-11 11v44c0 6.075 4.925 11 11 11h416c6.075 0 11-4.925 11-11v-44c0-6.075-4.925-11-11-11zm-383-344.91h198v344.91h-58.509v-47.982c0-6.075-4.925-11-11-11h-58.982c-6.075 0-11 4.925-11 11v47.982h-58.509zm117.491 344.91h-36.982v-36.982h36.982zm254.509 44h-394v-22h394z"/><path d="m385.414 281c0-6.075-4.925-11-11-11h-64c-6.075 0-11 4.925-11 11v44c0 6.075 4.925 11 11 11h64c6.075 0 11-4.925 11-11zm-22 33h-42v-22h42z"/><path d="m385.414 193c0-6.075-4.925-11-11-11h-64c-6.075 0-11 4.925-11 11v44c0 6.075 4.925 11 11 11h64c6.075 0 11-4.925 11-11zm-22 33h-42v-22h42z"/><path d="m374.414 358h-64c-6.075 0-11 4.925-11 11v44c0 6.075 4.925 11 11 11h64c6.075 0 11-4.925 11-11v-44c0-6.075-4.925-11-11-11zm-11 44h-42v-22h42z"/></g><g fill="#0496FF"><path d="m134.414 123.09h-44c-6.075 0-11 4.925-11 11v44c0 6.075 4.925 11 11 11h44c6.075 0 11-4.925 11-11v-44c0-6.075-4.925-11-11-11zm-11 44h-22v-22h22z"/><path d="m222.414 123.09h-44c-6.075 0-11 4.925-11 11v44c0 6.075 4.925 11 11 11h44c6.075 0 11-4.925 11-11v-44c0-6.075-4.925-11-11-11zm-11 44h-22v-22h22z"/><path d="m134.414 211.018h-44c-6.075 0-11 4.925-11 11v44c0 6.075 4.925 11 11 11h44c6.075 0 11-4.925 11-11v-44c0-6.076-4.925-11-11-11zm-11 44h-22v-22h22z"/><path d="m222.414 211.018h-44c-6.075 0-11 4.925-11 11v44c0 6.075 4.925 11 11 11h44c6.075 0 11-4.925 11-11v-44c0-6.076-4.925-11-11-11zm-11 44h-22v-22h22z"/><path d="m134.414 299.018h-44c-6.075 0-11 4.925-11 11v44c0 6.075 4.925 11 11 11h44c6.075 0 11-4.925 11-11v-44c0-6.076-4.925-11-11-11zm-11 44h-22v-22h22z"/><path d="m222.414 299.018h-44c-6.075 0-11 4.925-11 11v44c0 6.075 4.925 11 11 11h44c6.075 0 11-4.925 11-11v-44c0-6.076-4.925-11-11-11zm-11 44h-22v-22h22z"/><path d="m394.322 56.12c-13.283 13.284-13.283 34.898 0 48.183 6.643 6.642 15.367 9.963 24.092 9.963s17.449-3.321 24.092-9.963c13.283-13.284 13.283-34.898 0-48.183-13.286-13.284-34.901-13.285-48.184 0zm32.627 32.626c-2.279 2.28-5.311 3.536-8.535 3.536s-6.256-1.255-8.535-3.535c-4.706-4.707-4.706-12.364 0-17.07 2.354-2.354 5.444-3.53 8.535-3.53s6.183 1.177 8.535 3.529c4.706 4.706 4.706 12.364 0 17.07z"/><path d="m475.131 23.493c-15.149-15.148-35.294-23.493-56.717-23.493-21.425 0-41.568 8.343-56.718 23.493-31.273 31.274-31.273 82.161 0 113.436l48.939 48.939c2.063 2.063 4.861 3.222 7.778 3.222s5.715-1.159 7.778-3.222l48.939-48.939c31.275-31.275 31.275-82.162.001-113.436zm-15.556 97.88-41.161 41.161-41.161-41.162c-22.696-22.696-22.696-59.626 0-82.322 10.994-10.995 25.612-17.05 41.161-17.05s30.167 6.055 41.161 17.05c22.696 22.696 22.696 59.626 0 82.323z"/></g></g><g/><g/><g/><g/><g/><g/><g/><g/><g/><g/><g/><g/><g/><g/><g/></svg>