<svg id="Capa_1" enable-background="new 0 0 512 512" viewBox="0 0 512 512" xmlns="http://www.w3.org/2000/svg" fill="#E6ECF2"><g><g><path d="m452.219 96.887c-.001-2.862-1.113-5.675-3.216-7.778l-85.887-85.887c-2.104-2.104-4.917-3.215-7.778-3.216v-.006h-284.563c-6.075 0-11 4.925-11 11v490c0 6.075 4.925 11 11 11h370.451c6.075 0 11-4.925 11-11v-404.113zm-85.881-59.331 48.331 48.331h-48.331zm-284.563 452.444v-468h262.563v74.887c0 6.075 4.925 11 11 11h74.888v382.113z"/><path d="m258.774 42h-144c-6.075 0-11 4.925-11 11v44c0 6.075 4.925 11 11 11h144c6.075 0 11-4.925 11-11v-44c0-6.075-4.925-11-11-11zm-11 44h-122v-22h122z"/></g><path d="m256 169.444c-71.407 0-129.5 58.093-129.5 129.5 0 71.406 58.093 129.5 129.5 129.5 71.406 0 129.5-58.093 129.5-129.5s-58.094-129.5-129.5-129.5zm26.556 140.5h80.385c-2.185 21.404-10.681 40.966-23.584 56.8zm80.385-22h-95.941v-95.941c50.51 5.157 90.784 45.43 95.941 95.941zm-214.441 11c0-55.563 42.372-101.415 96.5-106.941v106.941c0 2.917 1.159 5.715 3.222 7.778l75.578 75.578c-18.51 15.084-42.116 24.143-67.8 24.143-59.276 0-107.5-48.224-107.5-107.499z" fill="#0496FF"/></g><g/><g/><g/><g/><g/><g/><g/><g/><g/><g/><g/><g/><g/><g/><g/></svg>