<svg id="Capa_1" enable-background="new 0 0 512 512" viewBox="0 0 512 512" xmlns="http://www.w3.org/2000/svg" fill="#E6ECF2"><g><path d="m458.224 34.334-31.112-31.112c-2.063-2.063-4.861-3.222-7.779-3.222s-5.715 1.159-7.778 3.222l-31.113 31.113c-4.295 4.296-4.295 11.261 0 15.557 2.148 2.148 4.963 3.222 7.778 3.222s5.63-1.074 7.778-3.222l12.334-12.334v24.442c0 17.254-11.085 32.241-27.584 37.292l-113.748 34.822v-96.558l12.334 12.335c2.148 2.148 4.963 3.222 7.778 3.222s5.63-1.074 7.778-3.222c4.295-4.296 4.295-11.261 0-15.557l-31.112-31.112c-4.1-4.251-11.457-4.251-15.557 0l-31.113 31.113c-4.295 4.296-4.295 11.261 0 15.557 4.296 4.296 11.261 4.296 15.557 0l12.335-12.336v96.557l-113.749-34.821c-16.499-5.05-27.584-20.037-27.584-37.292v-24.443l12.334 12.334c2.148 2.148 4.963 3.222 7.778 3.222s5.63-1.074 7.778-3.222c4.295-4.296 4.295-11.261 0-15.557l-31.112-31.112c-2.063-2.063-4.861-3.222-7.778-3.222s-5.715 1.159-7.778 3.222l-31.113 31.112c-4.295 4.296-4.295 11.261 0 15.557 4.296 4.296 11.261 4.295 15.557 0l12.334-12.334v24.443c0 26.988 17.338 50.428 43.145 58.328l93.61 28.656-93.61 28.656c-25.806 7.899-43.145 31.339-43.145 58.328v51.001c0 6.075 4.925 11 11 11s11-4.925 11-11v-51.001c0-17.255 11.085-32.241 27.584-37.292l113.749-34.82v41.114c0 6.075 4.925 11 11 11s11-4.925 11-11v-41.114l113.75 34.821c16.499 5.051 27.584 20.037 27.584 37.292v51.001c0 6.075 4.925 11 11 11s11-4.925 11-11v-51.001c0-26.988-17.338-50.428-43.145-58.328l-93.61-28.656 93.61-28.656c25.806-7.9 43.145-31.34 43.145-58.328v-24.444l12.334 12.334c4.296 4.295 11.26 4.295 15.557 0 4.295-4.296 4.295-11.261-.001-15.557z" fill="#0496FF"/><g><path d="m128.127 414.346c8.775-8.961 14.198-21.215 14.198-34.718 0-27.382-22.277-49.659-49.659-49.659s-49.659 22.277-49.659 49.659c0 13.503 5.424 25.757 14.198 34.718-33.551 13.95-57.205 47.067-57.205 85.609v1.045c0 6.075 4.925 11 11 11h163.333c6.075 0 11-4.925 11-11v-1.045c0-38.542-23.654-71.659-57.206-85.609zm-63.12-34.717c0-15.251 12.408-27.659 27.659-27.659s27.659 12.408 27.659 27.659-12.408 27.659-27.659 27.659-27.659-12.408-27.659-27.659zm-42.308 110.371c4.851-34.271 34.379-60.712 69.968-60.712s65.117 26.441 69.968 60.712z"/><path d="m174.333 420h163.333c6.075 0 11-4.925 11-11v-1.045c0-38.542-23.654-71.659-57.206-85.608 8.775-8.961 14.198-21.215 14.198-34.718 0-27.382-22.277-49.659-49.659-49.659s-49.659 22.277-49.659 49.659c0 13.503 5.424 25.757 14.198 34.718-33.552 13.949-57.206 47.066-57.206 85.608v1.045c.001 6.075 4.926 11 11.001 11zm54.008-132.371c0-15.251 12.408-27.659 27.659-27.659s27.659 12.408 27.659 27.659-12.408 27.659-27.659 27.659-27.659-12.408-27.659-27.659zm27.659 49.659c35.588 0 65.117 26.441 69.968 60.712h-139.936c4.851-34.271 34.38-60.712 69.968-60.712z"/><path d="m454.794 414.346c8.775-8.961 14.198-21.215 14.198-34.718 0-27.382-22.277-49.659-49.659-49.659s-49.659 22.277-49.659 49.659c0 13.503 5.424 25.757 14.198 34.718-33.552 13.949-57.206 47.066-57.206 85.608v1.046c0 6.075 4.925 11 11 11h163.334c6.075 0 11-4.925 11-11v-1.045c0-38.542-23.654-71.659-57.206-85.609zm-63.12-34.717c0-15.251 12.408-27.659 27.659-27.659s27.659 12.408 27.659 27.659-12.408 27.659-27.659 27.659-27.659-12.408-27.659-27.659zm-42.309 110.371c4.851-34.271 34.379-60.712 69.968-60.712 35.588 0 65.117 26.441 69.968 60.712z"/></g></g><g/><g/><g/><g/><g/><g/><g/><g/><g/><g/><g/><g/><g/><g/><g/></svg>