<svg id="Capa_1" enable-background="new 0 0 511.977 511.977" viewBox="0 0 511.977 511.977" xmlns="http://www.w3.org/2000/svg" fill="#E6ECF2"><g><g><path d="m388.251 146.248c-10.313-38.1-33.439-72.487-65.117-96.828-32.258-24.787-72.189-38.097-112.505-37.5-47.779.717-92.584 19.866-126.161 53.92-33.611 34.09-52.122 79.231-52.122 127.11 0 5.099.216 10.255.641 15.326.031.364-.036.765-.194 1.161l-31.375 78.786c-4.039 10.143.848 21.872 10.893 26.146l28.768 12.242c.912.388 1.553 1.24 1.672 2.225l8.388 69.198c1.807 14.907 14.493 26.148 29.509 26.148h60.366c1.533 0 2.78 1.248 2.78 2.781v55.639c0 9.636 7.84 17.475 17.476 17.475h108.962l-4.358-22h-100.08v-51.114c0-13.664-11.116-24.781-24.78-24.781h-60.366c-3.903 0-7.2-2.921-7.669-6.796l-8.388-69.198c-1.063-8.768-6.771-16.362-14.897-19.821l-27.209-11.579 30.747-77.21c1.413-3.545 1.993-7.398 1.679-11.142-.374-4.461-.564-8.999-.564-13.486 0-42.061 16.261-81.717 45.788-111.664 29.497-29.917 68.855-46.739 110.825-47.369 35.87-.535 70.019 10.854 98.771 32.947 27.88 21.422 48.224 51.656 57.285 85.131 1.588 5.865 7.631 9.331 13.492 7.744 5.863-1.587 9.33-7.628 7.743-13.491z" fill="#0496FF"/></g><path d="m492.493 419.31h-11.457c-28.528-43.067-43.82-92.876-44.377-144.593 12.686-3.45 22.044-15.063 22.044-28.827v-5.117c0-3.198-.511-6.278-1.446-9.169 9.052-3.161 15.566-11.78 15.566-21.896v-45.458c0-12.787-10.403-23.19-23.19-23.19h-139.056c-12.787 0-23.19 10.403-23.19 23.19v45.458c0 10.116 6.514 18.735 15.566 21.896-.935 2.891-1.446 5.971-1.446 9.169v5.117c0 13.763 9.358 25.376 22.043 28.827-.557 51.717-15.849 101.527-44.377 144.593h-11.457c-10.744 0-19.484 8.741-19.484 19.484v41.798c0 10.744 8.74 19.484 19.484 19.484h224.777c10.744 0 19.484-8.741 19.484-19.484v-41.798c0-10.743-8.74-19.484-19.484-19.484zm-183.107-255.061c0-.656.534-1.19 1.19-1.19h31.612v14.94c0 6.075 4.925 11 11 11s11-4.925 11-11v-14.94h31.83v14.94c0 6.075 4.925 11 11 11s11-4.925 11-11v-14.94h31.613c.656 0 1.19.534 1.19 1.19v45.458c0 .656-.534 1.19-1.19 1.19h-139.054c-.656 0-1.19-.534-1.19-1.19v-45.458zm14.121 76.524c0-4.343 3.533-7.875 7.875-7.875h97.445c4.343 0 7.876 3.533 7.876 7.875v5.117c0 4.343-3.533 7.875-7.876 7.875h-3.195-91.055-3.195c-4.342 0-7.875-3.533-7.875-7.875zm22.043 34.993h69.109c.687 50.891 14.564 100.048 40.403 143.544h-149.916c25.839-43.497 39.717-92.654 40.404-143.544zm144.427 202.311h-219.746v-36.767h219.746z"/></g><g/><g/><g/><g/><g/><g/><g/><g/><g/><g/><g/><g/><g/><g/><g/></svg>