<svg id="Capa_1" enable-background="new 0 0 512 512" viewBox="0 0 512 512" xmlns="http://www.w3.org/2000/svg" fill="#E6ECF2"><g><path d="m381 0h-50c-6.075 0-11 4.925-11 11v29h-28v-29c0-6.075-4.925-11-11-11h-50c-6.075 0-11 4.925-11 11v29h-28v-29c0-6.075-4.925-11-11-11h-50c-6.075 0-11 4.925-11 11v90c0 1.708.397 3.392 1.161 4.919l30 60 19.678-9.839-22.041-44.08h214.403l-22.041 44.081 19.678 9.839 30-60c.764-1.527 1.161-3.212 1.161-4.919v-90.001c.001-6.075-4.924-11-10.999-11zm-211 22v29c0 6.075 4.925 11 11 11h50c6.075 0 11-4.925 11-11v-29h28v29c0 6.075 4.925 11 11 11h50c6.075 0 11-4.925 11-11v-29h28v68h-228v-68z" fill="#0496FF"/><path d="m410.285 440.183c2.368-4.549 3.715-9.71 3.715-15.183 0-14.829-9.833-27.403-23.321-31.549l-27.255-179.887c12.055-4.918 20.576-16.761 20.576-30.564 0-18.196-14.804-33-33-33h-190c-18.196 0-33 14.804-33 33 0 13.803 8.521 25.646 20.577 30.564l-27.255 179.887c-13.489 4.146-23.322 16.72-23.322 31.549 0 5.473 1.347 10.634 3.715 15.183-13.597 6.682-22.98 20.672-22.98 36.817v24c0 6.075 4.925 11 11 11h332.531c6.075 0 11-4.925 11-11v-24c0-16.145-9.384-30.135-22.981-36.817zm-68.744-224.183 26.667 176h-224.416l26.667-176zm-180.541-44h190c6.065 0 11 4.935 11 11s-4.935 11-11 11h-190c-6.065 0-11-4.935-11-11s4.935-11 11-11zm-30 242h250c6.065 0 11 4.935 11 11s-4.935 11-11 11h-250c-6.065 0-11-4.935-11-11s4.935-11 11-11zm280.266 76h-310.532v-13c0-10.477 8.523-19 19-19h272.531c10.477 0 19 8.523 19 19v13z"/></g><g/><g/><g/><g/><g/><g/><g/><g/><g/><g/><g/><g/><g/><g/><g/></svg>