<svg id="Capa_1" enable-background="new 0 0 512 512" viewBox="0 0 512 512" xmlns="http://www.w3.org/2000/svg" fill="#E6ECF2"><g><g fill="#0496FF"><path d="m512 85.485c0-47.137-38.348-85.485-85.485-85.485s-85.485 38.348-85.485 85.485 38.348 85.485 85.485 85.485 85.485-38.348 85.485-85.485zm-22 0c0 31.253-22.706 57.285-52.485 62.511v-21.541c9.506-4.23 16.154-13.759 16.154-24.817 0-14.972-12.181-27.153-27.154-27.153-2.841 0-5.153-2.312-5.153-5.154 0-2.841 2.312-5.153 5.153-5.153h17.083c6.075 0 11-4.925 11-11s-4.925-11-11-11h-6.083v-19.204c29.779 5.226 52.485 31.258 52.485 62.511zm-126.969 0c0-31.253 22.706-57.285 52.485-62.511v21.541c-9.506 4.23-16.153 13.759-16.153 24.816 0 14.973 12.181 27.154 27.153 27.154 2.842 0 5.154 2.312 5.154 5.153 0 2.842-2.312 5.154-5.154 5.154h-17.083c-6.075 0-11 4.925-11 11s4.925 11 11 11h6.083v19.204c-29.779-5.226-52.485-31.258-52.485-62.511z"/><path d="m55 446.887h30c6.075 0 11-4.925 11-11s-4.925-11-11-11h-30c-6.075 0-11 4.925-11 11s4.925 11 11 11z"/><path d="m129 380.887h-118c-6.075 0-11 4.925-11 11v88c0 6.075 4.925 11 11 11h21.168l19.041 18.088c2.085 1.981 4.811 3.025 7.579 3.025 1.463 0 2.939-.292 4.337-.893 4.042-1.735 6.661-5.71 6.661-10.108v-10.113h59.214c6.075 0 11-4.925 11-11v-88c0-6.074-4.925-10.999-11-10.999zm-11 88h-59.214c-4.721 0-8.747 2.973-10.307 7.149l-4.342-4.125c-2.044-1.942-4.756-3.025-7.576-3.025h-14.561v-66h96z"/><path d="m55 115.676c6.075 0 11-4.925 11-11v-2.517c0-2.929 2.383-5.312 5.312-5.312 14.57 0 26.424-11.854 26.424-26.424s-11.854-26.423-26.424-26.423h-16.312c-6.075 0-11 4.925-11 11s4.925 11 11 11h16.312c2.439 0 4.424 1.984 4.424 4.424s-1.984 4.424-4.424 4.424c-15.06 0-27.312 12.252-27.312 27.311v2.517c0 6.075 4.925 11 11 11z"/><path d="m44.84 140.69c2.695 7.111 12.718 9.084 17.94 3.58 6.182-6.016 2.864-17.021-5.63-18.57-8.424-1.829-15.749 7.074-12.31 14.99z"/><path d="m130.736 0h-119.736c-6.075 0-11 4.925-11 11v169.486c0 6.075 4.925 11 11 11h119.735c6.075 0 11-4.925 11-11v-169.486c.001-6.075-4.924-11-10.999-11zm-11 169.486h-97.736v-147.486h97.735v147.486z"/><path d="m501 391.753h-118.172c-6.075 0-11 4.925-11 11v98.247c0 6.075 4.925 11 11 11h118.172c6.075 0 11-4.925 11-11v-98.247c0-6.075-4.925-11-11-11zm-11 98.247h-96.172v-76.247h96.172z"/><path d="m419.965 470.821c2.815 0 5.63-1.074 7.778-3.222l7.169-7.169 6.226 6.226c2.063 2.063 4.861 3.222 7.778 3.222s5.715-1.159 7.778-3.222l14.947-14.947c4.295-4.296 4.295-11.261 0-15.557-4.296-4.296-11.261-4.296-15.557 0l-7.169 7.169-6.226-6.226c-2.063-2.063-4.861-3.222-7.778-3.222s-5.715 1.159-7.778 3.222l-14.947 14.947c-4.295 4.296-4.295 11.261 0 15.557 2.148 2.149 4.964 3.222 7.779 3.222z"/></g><g><path d="m445.696 224.226c-6.233-6.233-14.52-9.666-23.334-9.666-8.815 0-17.102 3.433-23.335 9.666l-40.344 40.344h-70.813v-14.957c.368-.342.74-.679 1.099-1.033 9.551-9.428 14.812-22.011 14.812-35.431v-33.344c0-14.501-6.698-27.464-17.157-35.97 2.5-5.013 3.85-10.587 3.85-16.285 0-20.113-16.363-36.476-36.476-36.476s-36.476 16.363-36.476 36.476c0 5.698 1.349 11.272 3.85 16.285-10.459 8.507-17.157 21.469-17.157 35.97v32.766c0 14.464 6.137 27.58 15.91 36.801v15.199h-70.812l-40.344-40.344c-6.233-6.233-14.52-9.666-23.335-9.666-8.814 0-17.102 3.433-23.334 9.666-12.866 12.867-12.866 33.802 0 46.669l56.454 56.454c2.063 2.062 4.861 3.222 7.778 3.222h46.996v39.179h.031c-.114 1.66.143 3.355.806 4.957l4.065 9.818c-.599 1.337-1.16 2.686-1.683 4.042l-9.784 4.052c-4.111 1.702-6.792 5.712-6.792 10.162l-.004 30.803c0 4.449 2.679 8.46 6.789 10.164l9.807 4.063c.523 1.356 1.085 2.705 1.684 4.041l-4.058 9.795c-1.703 4.11-.763 8.841 2.383 11.987l21.777 21.784c3.146 3.146 7.875 4.088 11.988 2.386l9.818-4.065c1.337.598 2.686 1.16 4.042 1.682l4.052 9.785c1.702 4.11 5.712 6.791 10.162 6.792l30.799.001h.001c4.448 0 8.459-2.68 10.162-6.789l4.063-9.807c1.356-.523 2.705-1.085 4.042-1.684l9.794 4.059c4.111 1.702 8.842.763 11.988-2.383l21.784-21.778c3.146-3.146 4.088-7.877 2.386-11.988l-4.065-9.818c.599-1.337 1.16-2.686 1.683-4.042l9.785-4.052c4.11-1.702 6.791-5.712 6.792-10.162l.004-30.803c0-4.449-2.679-8.46-6.789-10.164l-9.807-4.063c-.523-1.357-1.085-2.705-1.684-4.041l4.059-9.795c.662-1.597.92-3.288.809-4.943h.029v-39.177h47.019c2.917 0 5.715-1.159 7.778-3.222l56.454-56.454c12.865-12.866 12.865-33.802-.001-46.668zm-184.555 100.114-14.313-.002-7.196-24.633 6.586 6.586c2.063 2.062 4.861 3.222 7.778 3.222s5.715-1.159 7.778-3.222l6.568-6.568zm-34.928-111.77v-12.052h1.191c7.53 0 15.071-1.78 21.809-5.148l4.784-2.392 4.785 2.393c6.736 3.368 14.277 5.148 21.808 5.148h1.191v12.63c0 7.49-2.936 14.512-8.267 19.774-5.329 5.261-12.368 8.09-19.89 8.007-15.114-.196-27.411-12.918-27.411-28.36zm24.356-57.122h6.856c12.999 0 23.651 10.235 24.322 23.07h-1.157c-4.133 0-8.272-.977-11.97-2.825l-9.704-4.852c-1.548-.774-3.234-1.162-4.919-1.162s-3.371.387-4.919 1.162l-9.703 4.852c-3.698 1.849-7.837 2.826-11.971 2.826h-1.157c.67-12.836 11.323-23.071 24.322-23.071zm-11.048-27.899c0-7.982 6.494-14.476 14.476-14.476s14.476 6.494 14.476 14.476c0 2.443-.604 4.769-1.72 6.842-3.014-.618-6.133-.943-9.327-.943h-6.856c-3.194 0-6.313.325-9.327.943-1.119-2.073-1.722-4.399-1.722-6.842zm13.818 135.379c.223.003.443.004.666.004 4.051 0 8.027-.485 11.866-1.419v9.568l-11.874 11.874-11.874-11.874v-9.622c3.605.903 7.357 1.419 11.216 1.469zm-175.485-23.146c4.29-4.289 11.268-4.289 15.556 0l7.778 7.778-15.556 15.556-7.778-7.778c-4.289-4.289-4.289-11.267 0-15.556zm53.232 68.788-29.897-29.897 15.556-15.556 20.231 20.231c2.063 2.062 4.861 3.222 7.778 3.222h68.122l14.06 48.133-2.581 6.229c-1.356.523-2.705 1.085-4.042 1.684l-9.795-4.059c-4.11-1.703-8.841-.763-11.988 2.383l-3.006 3.006v-24.376c0-6.075-4.925-11-11-11zm194.739 117.635-7.545 3.124c-3.018 1.25-5.325 3.776-6.295 6.896-1.065 3.423-2.481 6.828-4.21 10.121-1.518 2.891-1.673 6.306-.424 9.323l3.142 7.588-11.388 11.385-7.57-3.137c-3.019-1.251-6.438-1.094-9.331.426-3.287 1.729-6.691 3.146-10.117 4.214-3.117.971-5.641 3.276-6.89 6.291l-3.134 7.563-16.103-.002-3.124-7.545c-1.25-3.018-3.776-5.325-6.896-6.295-3.425-1.065-6.83-2.482-10.12-4.21-2.891-1.519-6.307-1.674-9.324-.425l-7.589 3.143-11.384-11.388 3.136-7.57c1.251-3.019 1.095-6.438-.426-9.33-1.729-3.287-3.146-6.691-4.214-10.117-.971-3.117-3.276-5.641-6.291-6.89l-7.563-3.134.002-16.103 7.545-3.125c3.019-1.25 5.326-3.777 6.296-6.897 1.064-3.422 2.48-6.827 4.209-10.119 1.519-2.891 1.674-6.306.425-9.323l-3.142-7.589 11.388-11.385 7.57 3.137c3.021 1.252 6.439 1.095 9.332-.427 3.286-1.729 6.689-3.146 10.116-4.214 3.117-.971 5.641-3.276 6.89-6.291l3.134-7.563 16.103.002 3.125 7.545c1.25 3.019 3.777 5.325 6.896 6.295 3.424 1.065 6.829 2.481 10.119 4.21 2.89 1.519 6.307 1.674 9.323.425l7.589-3.142 11.385 11.388-3.137 7.57c-1.251 3.02-1.095 6.439.427 9.332 1.728 3.284 3.145 6.688 4.214 10.118.971 3.116 3.275 5.64 6.291 6.889l7.563 3.134zm51.083-117.635h-53.462c-6.075 0-11 4.925-11 11v24.349l-2.999-2.999c-3.146-3.146-7.876-4.088-11.987-2.386l-9.818 4.065c-1.337-.598-2.686-1.16-4.042-1.682l-2.57-6.205 14.084-48.142h68.125c2.917 0 5.715-1.159 7.778-3.222l20.231-20.231 15.556 15.556zm53.231-53.232-7.778 7.778-15.556-15.556 7.778-7.778c4.289-4.289 11.267-4.289 15.556 0s4.289 11.267 0 15.556z"/><path d="m253.997 378.896c-21.655 0-39.272 17.617-39.272 39.272s17.618 39.272 39.272 39.272 39.272-17.618 39.272-39.272-17.617-39.272-39.272-39.272zm0 56.544c-9.524 0-17.272-7.749-17.272-17.272s7.749-17.272 17.272-17.272 17.272 7.748 17.272 17.272-7.748 17.272-17.272 17.272z"/></g></g><g/><g/><g/><g/><g/><g/><g/><g/><g/><g/><g/><g/><g/><g/><g/></svg>