<svg id="Capa_1" enable-background="new 0 0 512 512" viewBox="0 0 512 512" xmlns="http://www.w3.org/2000/svg" fill="#E6ECF2"><g><g><path d="m243.675 174.682h-104.145c-12.861 0-23.325 10.463-23.325 23.325v31.337c0 12.861 10.464 23.325 23.325 23.325h104.146c12.861 0 23.324-10.463 23.324-23.325v-31.337c0-12.862-10.463-23.325-23.325-23.325zm1.325 54.662c0 .73-.594 1.325-1.324 1.325h-104.146c-.73 0-1.325-.594-1.325-1.325v-31.337c0-.73.595-1.325 1.325-1.325h104.146c.73 0 1.324.594 1.324 1.325z"/><path d="m427.732 0h-343.464c-17.094 0-31 13.906-31 31v450c0 17.094 13.906 31 31 31h343.464c17.094 0 31-13.906 31-31v-450c0-17.094-13.906-31-31-31zm9 481c0 4.963-4.037 9-9 9h-343.464c-4.963 0-9-4.037-9-9v-450c0-4.963 4.037-9 9-9h343.464c4.963 0 9 4.037 9 9z"/><path d="m127.205 90.52h133.469c6.075 0 11-4.925 11-11s-4.925-11-11-11h-133.469c-6.075 0-11 4.925-11 11s4.924 11 11 11z"/><path d="m384.794 122.5h-257.59c-6.075 0-11 4.925-11 11s4.925 11 11 11h257.59c6.075 0 11-4.925 11-11s-4.924-11-11-11z"/></g><g fill="#0496FF"><path d="m329.014 237.997c2.148 2.148 4.963 3.222 7.778 3.222s5.63-1.074 7.778-3.222l8.765-8.765 8.765 8.765c2.148 2.148 4.963 3.222 7.778 3.222 2.814 0 5.631-1.074 7.778-3.222 4.296-4.296 4.296-11.261 0-15.556l-8.765-8.765 8.765-8.765c4.296-4.296 4.296-11.26 0-15.556-4.297-4.296-11.26-4.296-15.557 0l-8.765 8.765-8.765-8.765c-4.296-4.296-11.261-4.296-15.557 0s-4.296 11.26 0 15.556l8.765 8.765-8.765 8.765c-4.294 4.295-4.294 11.26.002 15.556z"/><path d="m377.657 402.222c-4.297-4.295-11.26-4.296-15.557 0l-8.765 8.765-8.765-8.765c-4.296-4.296-11.261-4.296-15.557 0s-4.296 11.261 0 15.556l2.75 2.75c.002.002.004.005.007.007l6.008 6.008-8.765 8.765c-4.296 4.296-4.296 11.26 0 15.556 2.148 2.148 4.963 3.222 7.778 3.222s5.63-1.074 7.778-3.222l8.765-8.765 8.765 8.765c2.148 2.148 4.963 3.222 7.778 3.222 2.814 0 5.631-1.074 7.778-3.222 4.296-4.296 4.296-11.261 0-15.556l-2.75-2.75c-.002-.002-.004-.005-.007-.007l-6.008-6.008 8.765-8.765c4.298-4.296 4.298-11.26.002-15.556z"/><path d="m286.968 411.431c-48.747-.516-89.073-36.051-97.292-82.399 2.14 2.104 4.923 3.16 7.709 3.16 2.814 0 5.631-1.074 7.778-3.222 4.296-4.296 4.296-11.26 0-15.556l-20.055-20.055c-2.062-2.063-4.86-3.222-7.778-3.222-2.917 0-5.715 1.159-7.778 3.222l-20.056 20.055c-4.296 4.296-4.296 11.26 0 15.556s11.261 4.296 15.557 0l2.057-2.057c7.512 59.446 58.065 105.865 119.626 106.516.04 0 .079.001.119.001 6.021 0 10.933-4.849 10.996-10.884.065-6.074-4.808-11.051-10.883-11.115z"/><path d="m381.169 304.201-20.056-20.055c-4.297-4.295-11.26-4.295-15.557 0l-20.056 20.055c-4.296 4.296-4.296 11.26 0 15.556s11.261 4.296 15.557 0l1.277-1.277v29.813c0 6.075 4.925 11 11 11s11-4.925 11-11v-29.813l1.277 1.277c2.148 2.148 4.963 3.222 7.778 3.222s5.631-1.074 7.778-3.222c4.298-4.295 4.298-11.26.002-15.556z"/></g></g><g/><g/><g/><g/><g/><g/><g/><g/><g/><g/><g/><g/><g/><g/><g/></svg>