<svg id="Layer_1" enable-background="new 0 0 512 512" viewBox="0 0 512 512" xmlns="http://www.w3.org/2000/svg" fill="#052438"><g><path d="m386.938 331.144c-6.075 0-11 4.925-11 11v22.041c0 4.452-3.622 8.073-8.074 8.073h-337.791c-4.451 0-8.073-3.622-8.073-8.073v-22.041c0-4.452 3.622-8.074 8.073-8.074h2.229c6.075 0 11-4.925 11-11s-4.925-11-11-11h-2.229c-16.582 0-30.073 13.492-30.073 30.074v22.041c0 16.583 13.491 30.073 30.073 30.073h30.762l-27.537 68.425c-2.268 5.636.463 12.043 6.099 14.312 1.346.542 2.735.798 4.103.798 4.357 0 8.482-2.606 10.209-6.896l13.588-33.764h263.345l13.897 34.533c1.727 4.29 5.852 6.896 10.209 6.896 1.366 0 2.757-.257 4.103-.798 5.636-2.268 8.366-8.675 6.099-14.312l-27.846-69.194h30.761c16.583 0 30.074-13.491 30.074-30.073v-22.041c-.001-6.075-4.926-11-11.001-11zm-65.151 83.989h-245.637l8.401-20.875h228.835zm-55.324-66.203c-6.075 0-11-4.925-11-11v-70.027c0-6.075 4.925-11 11-11s11 4.925 11 11v70.027c0 6.075-4.925 11-11 11z" fill="#0496FF"/><g><path d="m478.64 413.77-10.94-86.4c-2.08-16.42-12.94-30.4-28.34-36.48l-71.71-28.33c-12.87-5.08-26.41-7.66-40.24-7.66h-94.64c1.47-3.87 2.23-8.01 2.23-12.16v-48.63c29.31-13.4 49.73-42.97 49.73-77.23 0-46.81-38.08-84.89-84.89-84.89-46.8 0-84.88 38.08-84.88 84.89 0 35 21.29 65.11 51.61 78.08v38.6l-31.86 46.18c-7.58-19.03-26.18-32.52-47.89-32.52h-19.92c-28.42 0-51.54 23.12-51.54 51.54s23.12 51.55 51.54 51.55h19.92c13.76 0 26.28-5.44 35.53-14.26 6.11 9.13 17.17 14.97 28.22 14.88 21.01-.01 122.41 0 141.38 0 19.01 0 37.74-5.8 53.43-16.44l52.82 23.63 11.04 99.89h-398.24c-6.08 0-11 4.92-11 11 0 6.07 4.92 11 11 11h490c6.08 0 11-4.93 11-11v-19.83c0-18.85-14.78-34.31-33.36-35.41zm-391.82-85.46h-19.92c-16.29 0-29.54-13.26-29.54-29.55s13.25-29.54 29.54-29.54h19.92c16.29 0 29.55 13.25 29.55 29.54s-13.26 29.55-29.55 29.55zm50.14-211.43c0-34.68 28.21-62.89 62.88-62.89 34.68 0 62.89 28.21 62.89 62.89 0 34.67-28.21 62.88-62.89 62.88-34.67 0-62.88-28.21-62.88-62.88zm16.4 211.73c-.92.21-1.85.32-2.77.32-1.97 0-3.93-.48-5.71-1.42-2.88-1.52-5-4.08-5.96-7.2-.91-2.94-.69-6.05.62-8.82l47.08-68.26c1.27-1.83 1.95-4.01 1.95-6.24v-36c3.69.49 7.45.77 11.27.77 4.48 0 8.87-.35 13.16-1.02v42c0 1.81-.4 3.61-1.18 5.25-.87 1.4-49.69 73-50.42 74.42-1.66 3.13-4.59 5.39-8.04 6.2zm266.01 20.84c-.43-3.88-2.88-7.24-6.44-8.84l-64.4-28.81c-3.73-1.67-8.09-1.13-11.31 1.41-12.83 10.14-28.91 15.72-45.27 15.72h-108.47l35.3-52.03h108.63c11.05 0 21.87 2.06 32.16 6.12l71.71 28.33c7.93 3.13 13.52 10.33 14.59 18.79l4.94 38.98h-29.26zm4.61 41.67h29.61l2.87 22.59h-29.98zm66.02 66.89h-58.62l-2.47-22.3h47.62c7.43 0 13.47 6.04 13.47 13.47z"/><path d="m236.453 116.876c0-20.187-16.423-36.609-36.609-36.609s-36.608 16.423-36.608 36.609 16.423 36.609 36.608 36.609c20.186.001 36.609-16.422 36.609-36.609zm-51.218 0c0-8.056 6.554-14.609 14.608-14.609 8.056 0 14.609 6.554 14.609 14.609s-6.554 14.609-14.609 14.609c-8.054.001-14.608-6.553-14.608-14.609z"/></g></g><g/><g/><g/><g/><g/><g/><g/><g/><g/><g/><g/><g/><g/><g/><g/></svg>