<svg id="Layer_1" enable-background="new 0 0 512 512" viewBox="0 0 512 512" xmlns="http://www.w3.org/2000/svg" fill="#052438"><g><g><path d="m158.342 256.538c-.926 0-1.866-.118-2.804-.364l-32.77-8.616c-2.839-.746-5.262-2.596-6.729-5.138s-1.858-5.565-1.085-8.397l10.194-37.348-27.503-27.248c-2.085-2.066-3.258-4.879-3.258-7.814 0-2.936 1.173-5.749 3.259-7.814l27.502-27.246-10.194-37.35c-.773-2.832-.383-5.854 1.085-8.396s3.891-4.392 6.729-5.139l37.441-9.844 9.845-37.443c.747-2.838 2.597-5.261 5.139-6.729s5.567-1.858 8.396-1.085l37.349 10.195 27.247-27.503c2.066-2.086 4.879-3.259 7.815-3.259s5.749 1.173 7.814 3.258l27.247 27.503 37.349-10.195c2.83-.772 5.853-.383 8.396 1.085 2.542 1.468 4.392 3.891 5.139 6.729l9.844 37.441 37.442 9.845c2.839.746 5.262 2.596 6.729 5.138s1.858 5.565 1.085 8.397l-10.194 37.348 27.503 27.248c2.086 2.066 3.259 4.879 3.259 7.814 0 2.936-1.173 5.749-3.259 7.814l-27.503 27.246 10.194 37.35c.773 2.832.383 5.854-1.085 8.396s-3.891 4.392-6.729 5.138l-32.636 8.581c-5.876 1.546-11.891-1.965-13.436-7.841s1.966-11.891 7.842-13.436l21.896-5.758-8.961-32.831c-1.045-3.827.052-7.919 2.87-10.711l24.176-23.95-24.176-23.951c-2.818-2.792-3.915-6.884-2.87-10.711l8.961-32.829-32.912-8.654c-3.837-1.008-6.833-4.005-7.842-7.841l-8.653-32.912-32.83 8.962c-3.826 1.044-7.92-.053-10.711-2.87l-23.949-24.173-23.951 24.176c-2.792 2.817-6.882 3.916-10.711 2.87l-32.83-8.962-8.653 32.913c-1.009 3.836-4.005 6.833-7.842 7.841l-32.911 8.653 8.961 32.831c1.045 3.827-.052 7.919-2.87 10.711l-24.175 23.95 24.176 23.951c2.817 2.792 3.914 6.885 2.869 10.711l-8.961 32.829 22.03 5.793c5.876 1.544 9.387 7.56 7.842 13.436-1.299 4.938-5.755 8.205-10.632 8.205z" fill="#0496FF"/></g><path d="m369.423 374.555h69.528c19.825 0 35.954-16.129 35.954-35.954s-16.129-35.954-35.954-35.954h-46.578l-10.79-34.352c-5.268-16.773-15.04-27.885-29.874-33.971l-43.632-17.904c-1.651-.677-3.35-1.349-5.116-1.937 11.184-11.684 18.064-27.52 18.064-44.933 0-35.855-29.17-65.025-65.025-65.025-35.854 0-65.024 29.17-65.024 65.025 0 17.413 6.88 33.249 18.064 44.933-1.766.588-3.465 1.26-5.117 1.938l-43.631 17.903c-14.835 6.086-24.607 17.198-29.875 33.971l-10.79 34.352h-46.578c-19.825 0-35.954 16.129-35.954 35.954s16.129 35.954 35.954 35.954h69.528c11.243 0 27.186-2.101 38.383-19.595l1.664 33.667-87.492 38.19c-24.202 10.564-31.335 33.005-27.667 50.56 4.328 20.713 21.813 34.625 43.521 34.624h.02c40.219-.016 78.639-.029 116.729-.03.512.02 1.028.031 1.545.031h27.729c.272 0 .542-.01.809-.03 46.819.002 93.638.01 143.177.029h.02c21.705 0 39.193-13.912 43.521-34.624 3.668-17.554-3.465-39.996-27.667-50.56l-87.492-38.19 1.664-33.667c11.196 17.494 27.139 19.595 38.382 19.595zm83.482-35.954c0 7.694-6.26 13.954-13.954 13.954h-69.528c-6.595 0-11.128-1.023-14.709-3.662l33.177-24.246h51.061c7.694 0 13.953 6.26 13.953 13.954zm-196.905-212.075c23.725 0 43.025 19.301 43.025 43.025s-19.3 43.025-43.025 43.025c-23.724 0-43.024-19.301-43.024-43.025s19.3-43.025 43.024-43.025zm-182.951 226.029c-7.694 0-13.954-6.26-13.954-13.954s6.26-13.954 13.954-13.954h51.061l33.177 24.246c-3.581 2.639-8.114 3.661-14.709 3.661h-69.529zm139.502 120.716c0-9.225 7.504-16.729 16.729-16.729h16.729v33.427c-5.913 0-11.83-.001-17.755 0-8.749-.532-15.703-7.818-15.703-16.698zm195.516-26.292c13.746 6 16.727 17.312 14.933 25.897-1.65 7.901-8.397 17.124-21.985 17.124h-.012c-45.948-.018-89.567-.028-132.994-.029v-33.428h20.258c6.075 0 11-4.925 11-11s-4.925-11-11-11h-58.987c-21.354 0-38.729 17.374-38.729 38.729 0 5.977 1.361 11.642 3.79 16.702-27.225.005-54.837.016-83.344.027h-.012c-13.586-.001-20.335-9.225-21.985-17.125-1.794-8.585 1.187-19.897 14.933-25.897l92.349-40.31h119.437zm-88.644-141.336c-4.775 1.12-8.232 5.267-8.475 10.167l-3.403 68.859h-103.09l-3.403-68.859c-.242-4.899-3.699-9.046-8.475-10.167-4.777-1.119-9.717 1.058-12.111 5.338l-10.962 19.592-28.945-21.154 10.846-34.531c3.276-10.431 8.593-16.664 17.237-20.21l43.632-17.903c2.932-1.203 5.521-2.199 7.521-2.199h72.408c2 0 4.591.996 7.522 2.199l43.632 17.903c8.644 3.546 13.96 9.78 17.236 20.21l10.846 34.531-28.946 21.153-10.961-19.591c-2.394-4.281-7.334-6.457-12.109-5.338z"/></g><g/><g/><g/><g/><g/><g/><g/><g/><g/><g/><g/><g/><g/><g/><g/></svg>