<svg id="Layer_1" enable-background="new 0 0 512 512" viewBox="0 0 512 512" xmlns="http://www.w3.org/2000/svg" fill="#E6ECF2"><g><g fill="#0496FF"><path d="m330.248 72.524h-146.202c-6.075 0-11 4.925-11 11s4.925 11 11 11h146.202c6.075 0 11-4.925 11-11s-4.925-11-11-11z"/><path d="m136.486 72.524h-28.725v-51.054c0-11.839-9.631-21.47-21.47-21.47h-21.94c-11.839 0-21.47 9.631-21.47 21.47v1.411h-21.411c-11.839 0-21.47 9.631-21.47 21.47v78.347c0 11.839 9.631 21.471 21.47 21.471h21.411v1.41c0 11.839 9.631 21.47 21.47 21.47h21.94c11.839 0 21.47-9.631 21.47-21.47v-51.055h28.725c6.075 0 11-4.925 11-11s-4.924-11-11-11zm-114.486 49.644v-77.287h20.881v77.288h-20.881zm63.761 22.881h-20.88v-123.049h20.88z"/><path d="m490.529 22.881h-21.41v-1.411c0-11.839-9.632-21.47-21.471-21.47h-21.939c-11.839 0-21.471 9.631-21.471 21.47v51.054h-28.192c-6.075 0-11 4.925-11 11s4.925 11 11 11h28.192v51.054c0 11.839 9.632 21.47 21.471 21.47h21.939c11.839 0 21.471-9.631 21.471-21.47v-1.41h21.41c11.839 0 21.471-9.632 21.471-21.471v-78.346c0-11.839-9.632-21.47-21.471-21.47zm-43.41 122.168h-20.881v-123.049h20.881zm42.881-22.881h-20.881v-77.287h20.881z"/></g><path d="m385.599 221.277c5.685-9.531 8.262-20.42 7.452-31.491l-7.539-102.978c-1.248-17.029-15.6-30.369-32.675-30.369-18.064 0-32.762 14.697-32.762 32.762v91.973l-6.854 6.081v-4.734c0-31.552-25.669-57.221-57.221-57.221s-57.221 25.669-57.221 57.221v4.7l-6.854-6.059v-91.961c0-18.065-14.697-32.762-32.762-32.762-17.076 0-31.428 13.34-32.675 30.37l-7.539 102.977c-.811 11.069 1.766 21.958 7.452 31.491l43.129 72.311 14.451 116.273-23.752 88.282c-.889 3.304-.19 6.834 1.892 9.55s5.309 4.308 8.73 4.308h170.295c3.422 0 6.648-1.592 8.73-4.308 2.081-2.716 2.781-6.246 1.892-9.55l-23.751-88.282 14.45-116.273zm-47.224-26.928c2.354-2.087 3.7-5.083 3.7-8.229v-96.919c0-5.934 4.828-10.762 10.762-10.762 5.609 0 10.323 4.382 10.733 9.976l7.539 102.976c.479 6.544-1.045 12.981-4.405 18.616l-38.277 64.175c-7.974-6.638-14.336-15.169-18.351-24.777l-9.129-21.851zm-133.495 205.29-12.949-104.19c13.336-9.365 23.936-22.467 30.229-37.538l6.896-16.513c8.035 4.307 17.207 6.758 26.944 6.758 9.719 0 18.875-2.442 26.899-6.735l6.879 16.464c6.305 15.092 16.926 28.207 30.29 37.572l-12.948 104.181h-102.24zm15.899-208.703v-8.414c0-19.421 15.8-35.221 35.221-35.221s35.221 15.8 35.221 35.221v8.414c0 19.421-15.8 35.221-35.221 35.221-19.366.018-35.233-15.814-35.221-35.221zm-79.888.457 7.539-102.977c.41-5.594 5.124-9.976 10.733-9.976 5.934 0 10.762 4.828 10.762 10.762v96.919c0 3.153 1.353 6.154 3.715 8.242l37.408 33.067-9.189 22.005c-4.003 9.587-10.345 18.103-18.293 24.736l-38.27-64.163c-3.361-5.635-4.884-12.072-4.405-18.615zm44.312 298.607 18.392-68.361h104.811l18.391 68.361z"/></g><g/><g/><g/><g/><g/><g/><g/><g/><g/><g/><g/><g/><g/><g/><g/></svg>