<svg id="Layer_1" enable-background="new 0 0 511.985 511.985" viewBox="0 0 511.985 511.985" xmlns="http://www.w3.org/2000/svg" fill="#052438"><g><g fill="#0496FF"><path d="m328.084 110.601c-39.75-39.75-104.43-39.751-144.184 0-4.296 4.296-4.296 11.261 0 15.557 4.296 4.295 11.261 4.296 15.557 0 31.174-31.174 81.896-31.173 113.07 0 2.148 2.148 4.963 3.222 7.778 3.222s5.63-1.074 7.778-3.222c4.297-4.296 4.297-11.261.001-15.557z"/><path d="m255.992 127.109c-14.847 0-28.805 5.782-39.304 16.28-4.296 4.296-4.296 11.261 0 15.557 4.297 4.296 11.26 4.296 15.557 0 13.094-13.095 34.4-13.095 47.494 0 2.148 2.148 4.963 3.222 7.778 3.222s5.63-1.074 7.778-3.222c4.296-4.296 4.296-11.261 0-15.557-10.498-10.498-24.456-16.28-39.303-16.28z"/><circle cx="255.93" cy="182.629" r="10.937"/></g><path d="m511.317 302.057-26.337-135.145c-.319-36.092-16.559-48.468-34.63-58.901l-21.211-12.245c-11.559-6.675-26.299-4.818-35.844 4.518l-19.115 18.701c-9.283 9.08-10.742 23.479-3.468 34.237l15.715 23.235c4.102 6.064 10.595 10.234 17.815 11.441 3.862.646 7.807.421 11.535-.601v67.685c-13.548-4.113-27.678-5.632-41.904-4.472-3.664-8.251-8.836-15.85-15.412-22.425-14.05-14.05-32.729-21.787-52.599-21.787-18.609 0-36.176 6.788-49.871 19.191-13.695-12.404-31.262-19.191-49.871-19.191-19.869 0-38.549 7.737-52.599 21.787-6.575 6.575-11.748 14.174-15.412 22.425-14.228-1.161-28.357.358-41.904 4.471v-67.684c3.729 1.023 7.675 1.248 11.535.601 7.221-1.207 13.714-5.377 17.816-11.441l15.714-23.236c7.274-10.758 5.815-25.157-3.467-34.236l-19.116-18.701c-9.544-9.336-24.284-11.193-35.844-4.519l-21.211 12.245c-18.071 10.433-34.311 22.809-34.63 58.901l-26.334 135.146c-3.631 18.632 7.876 37.121 26.197 42.091l49.608 13.457c16.02 4.346 32.475 6.517 48.933 6.517 17.396.005 34.818-2.44 51.676-7.279l71.132 71.132c2.063 2.063 4.861 3.222 7.778 3.222s5.715-1.159 7.778-3.222l71.132-71.132c16.86 4.839 34.277 7.284 51.676 7.279 16.456 0 32.915-2.172 48.933-6.517l49.608-13.457c18.322-4.97 29.829-23.458 26.198-42.091zm-429.083 34.315-49.608-13.457c-7.247-1.966-11.8-9.28-10.363-16.65l26.535-136.163c.135-.693.203-1.398.203-2.104 0-24.598 7.569-31.66 23.635-40.935l21.211-12.246c3.05-1.761 6.941-1.271 9.459 1.193l19.117 18.702c1.677 1.641 1.94 4.242.627 6.186l-15.714 23.234c-1.016 1.5-2.453 1.94-3.22 2.068-.749.125-2.205.178-3.621-.838l-8.415-6.732c-3.303-2.642-7.824-3.156-11.637-1.325-3.812 1.832-6.235 5.686-6.235 9.915v97.028c-.492.237-6.541 3.633-7.174 3.985-5.304 2.964-7.2 9.666-4.236 14.969 2.981 5.353 9.765 7.172 14.969 4.235 16.497-10.148 35.368-16.159 54.465-15.244-.316 2.801-.495 5.632-.495 8.493 0 19.869 7.737 38.549 21.787 52.599l5.396 5.396c-25.334 5.253-51.623 4.49-76.686-2.309zm173.758 68.268-86.913-86.914c-9.895-9.894-15.344-23.049-15.344-37.042s5.449-27.148 15.344-37.042 23.05-15.344 37.042-15.344c13.993 0 27.148 5.449 37.043 15.344l5.051 5.05c4.295 4.296 11.26 4.296 15.555 0l5.051-5.05h.001c9.894-9.894 23.049-15.343 37.042-15.343 13.992 0 27.147 5.449 37.042 15.344s15.344 23.05 15.344 37.042-5.449 27.148-15.344 37.042zm223.368-81.724-49.608 13.457c-25.065 6.8-51.352 7.563-76.685 2.307l5.396-5.396c14.05-14.049 21.787-32.729 21.787-52.599 0-2.86-.179-5.692-.495-8.492 19.092-.916 37.97 5.095 54.465 15.243 5.204 2.937 11.988 1.117 14.969-4.235 2.964-5.303 1.067-12.005-4.236-14.969-.674-.374-6.644-3.727-7.174-3.985v-97.028c0-4.229-2.424-8.083-6.235-9.915-3.813-1.833-8.335-1.316-11.637 1.325l-8.415 6.732c-1.418 1.016-2.873.962-3.621.838-.767-.128-2.204-.567-3.219-2.068l-15.714-23.234c-1.314-1.944-1.051-4.545.627-6.187l19.116-18.701c2.518-2.464 6.408-2.954 9.459-1.192l21.211 12.245c16.065 9.275 23.635 16.337 23.635 40.935 0 .706.068 1.411.203 2.104l26.535 136.163c1.435 7.372-3.117 14.685-10.364 16.652z"/></g><g/><g/><g/><g/><g/><g/><g/><g/><g/><g/><g/><g/><g/><g/><g/></svg>