<svg id="Layer_1" enable-background="new 0 0 512 512" viewBox="0 0 512 512" xmlns="http://www.w3.org/2000/svg" fill="#052438"><g><path d="m355.699 128.691h-2.769v-12.789c0-13.059-10.624-23.683-23.683-23.683h-18.634c-13.059 0-23.683 10.624-23.683 23.683v12.789h-61.86v-12.789c0-13.059-10.624-23.683-23.683-23.683h-18.634c-13.059 0-23.683 10.624-23.683 23.683v12.789h-2.769c-19.025 0-34.503 15.478-34.503 34.503s15.478 34.503 34.503 34.503h2.769v12.788c0 13.059 10.624 23.683 23.683 23.683h18.634c13.059 0 23.683-10.624 23.683-23.683v-12.788h61.86v12.788c0 13.059 10.624 23.683 23.683 23.683h18.634c13.059 0 23.683-10.624 23.683-23.683v-12.788h2.769c19.025 0 34.503-15.478 34.503-34.503s-15.478-34.503-34.503-34.503zm-199.398 47.007c-6.894 0-12.503-5.609-12.503-12.503s5.609-12.503 12.503-12.503h2.769v25.006zm46.769 34.788c0 .928-.755 1.683-1.683 1.683h-18.634c-.928 0-1.683-.755-1.683-1.683v-94.583c0-.928.755-1.683 1.683-1.683h18.634c.928 0 1.683.755 1.683 1.683zm22-34.788v-25.006h61.86v25.006zm105.86 34.788c0 .928-.755 1.683-1.683 1.683h-18.634c-.928 0-1.683-.755-1.683-1.683v-94.583c0-.928.755-1.683 1.683-1.683h18.634c.928 0 1.683.755 1.683 1.683zm24.769-34.788h-2.769v-25.006h2.769c6.894 0 12.503 5.609 12.503 12.503s-5.609 12.503-12.503 12.503z" fill="#0496FF"/><g><path d="m391.538 0h-271.076c-21.483 0-38.96 17.478-38.96 38.96v434.08c0 21.483 17.478 38.96 38.96 38.96h271.075c21.483 0 38.96-17.478 38.96-38.96v-434.08c.001-21.482-17.476-38.96-38.959-38.96zm16.96 473.04c0 9.352-7.608 16.96-16.96 16.96h-271.076c-9.352 0-16.96-7.608-16.96-16.96v-434.08c0-9.352 7.608-16.96 16.96-16.96h271.075c9.352 0 16.96 7.608 16.96 16.96v434.08z"/><path d="m201.817 66.971h62.999c6.075 0 11-4.925 11-11s-4.925-11-11-11h-62.999c-6.075 0-11 4.925-11 11s4.925 11 11 11z"/><path d="m256 245c-60.92 0-110.481 49.562-110.481 110.481s49.561 110.482 110.481 110.482 110.481-49.562 110.481-110.482-49.561-110.481-110.481-110.481zm46.729 110.481c0 25.767-20.963 46.729-46.729 46.729s-46.729-20.963-46.729-46.729 20.963-46.729 46.729-46.729 46.729 20.963 46.729 46.729zm-46.729 88.482c-48.789 0-88.481-39.693-88.481-88.482 0-45.065 33.864-82.366 77.481-87.798v19.961c-32.685 5.282-57.729 33.685-57.729 67.838 0 37.897 30.832 68.729 68.729 68.729 34.153 0 62.556-25.044 67.838-57.729h19.96c-5.432 43.617-42.733 77.481-87.798 77.481zm67.838-99.482c-4.703-29.102-27.736-52.135-56.838-56.838v-19.961c40.012 4.984 71.815 36.786 76.798 76.798h-19.96z"/><path d="m238.927 366.481h34.146c6.075 0 11-4.925 11-11s-4.925-11-11-11h-34.146c-6.075 0-11 4.925-11 11s4.925 11 11 11z"/><circle cx="310.18" cy="55.972" r="11"/></g></g><g/><g/><g/><g/><g/><g/><g/><g/><g/><g/><g/><g/><g/><g/><g/></svg>