<svg id="Capa_1" enable-background="new 0 0 512.001 512.001" viewBox="0 0 512.001 512.001" xmlns="http://www.w3.org/2000/svg" fill="#E6ECF2"><g><g><path d="m339.419 283.597c-.763-4.818-4.608-8.558-9.446-9.187l-49.016-6.375c-9.732-14.642-22.368-27.286-36.959-36.985l-6.371-48.968c-.629-4.837-4.37-8.682-9.188-9.445l-59.876-9.482c-4.818-.759-9.562 1.738-11.656 6.144l-21.194 44.604c-16.875 4.716-32.801 12.839-46.582 23.756l-48.587-9.081c-4.797-.897-9.607 1.473-11.822 5.818l-27.522 54.006c-2.215 4.347-1.303 9.633 2.242 12.986l35.893 33.951c-.751 17.542 2.044 35.2 8.176 51.644l-23.638 43.37c-2.334 4.284-1.569 9.594 1.881 13.043l42.867 42.859c3.449 3.449 8.758 4.213 13.04 1.88l43.375-23.633c8.214 3.053 16.744 5.289 25.426 6.664 8.683 1.375 17.486 1.884 26.241 1.518l33.947 35.877c2.13 2.251 5.04 3.44 7.994 3.44 1.695 0 3.405-.392 4.989-1.199l54.016-27.518c4.347-2.214 6.716-7.027 5.819-11.823l-9.077-48.551c10.915-13.745 19.03-29.674 23.737-46.591l44.629-21.199c4.407-2.093 6.908-6.839 6.145-11.657zm-55.385 75.062c-3.023 1.436-5.228 4.17-5.991 7.43-4.015 17.155-12.222 33.264-23.734 46.586-2.188 2.533-3.105 5.924-2.49 9.214l8.512 45.528-39.355 20.049-31.828-33.638c-2.086-2.205-4.98-3.439-7.989-3.439-.302 0-.604.012-.908.038-8.764.725-17.628.392-26.35-.989-8.721-1.381-17.255-3.803-25.364-7.2-3.081-1.291-6.581-1.112-9.513.487l-40.668 22.158-31.23-31.226 22.167-40.669c1.602-2.939 1.778-6.448.479-9.533-6.832-16.226-9.659-34.083-8.175-51.638.282-3.335-.97-6.618-3.402-8.917l-33.657-31.84 20.05-39.345 45.557 8.515c3.285.612 6.668-.297 9.199-2.478 13.385-11.527 29.504-19.748 46.615-23.774 3.253-.766 5.981-2.968 7.416-5.986l19.872-41.82 43.625 6.908 5.974 45.912c.431 3.314 2.346 6.252 5.204 7.986 15.029 9.115 27.818 21.914 36.986 37.012 1.733 2.855 4.671 4.768 7.983 5.199l45.958 5.978 6.909 43.613z"/><path d="m117.934 287.789c-29.164 27.978-29.163 78.322 0 106.299 29.311 29.306 77.002 29.305 106.312 0 29.165-27.978 29.164-78.322 0-106.299-29.31-29.306-77.003-29.306-106.312 0zm90.757 90.742c-20.733 20.732-54.468 20.728-75.202 0-20.628-19.789-20.627-55.396 0-75.184 20.733-20.73 54.469-20.73 75.202 0 20.628 19.789 20.627 55.395 0 75.184z"/><path d="m337.849 94.011c-21.981 21.086-21.98 59.03 0 80.116 22.089 22.09 58.034 22.084 80.125 0 21.981-21.086 21.98-59.03 0-80.116-22.091-22.088-58.035-22.087-80.125 0zm64.57 64.558c-13.513 13.51-35.501 13.511-49.015 0-13.444-12.898-13.443-36.104 0-49.001 13.514-13.511 35.501-13.511 49.015 0 13.444 12.898 13.444 36.104 0 49.001z"/><path d="m511.865 137.154-7.51-47.408c-.73-4.608-4.288-8.254-8.876-9.098l-26.416-4.855c-4.204-6.563-9.12-12.671-14.658-18.208-5.539-5.538-11.648-10.453-18.211-14.655l-4.855-26.41c-.844-4.589-4.49-8.146-9.098-8.876l-47.416-7.509c-4.607-.727-9.174 1.526-11.395 5.63l-12.784 23.625c-15.153 3.938-29.297 11.144-41.401 21.095l-26.638-3.546c-4.63-.618-9.134 1.753-11.252 5.909l-21.794 42.767c-2.119 4.158-1.384 9.199 1.833 12.579l18.534 19.47c-.924 15.657 1.554 31.334 7.251 45.888l-11.595 24.215c-2.016 4.208-1.156 9.23 2.144 12.53l33.946 33.94c3.298 3.298 8.319 4.157 12.527 2.143l24.221-11.595c14.558 5.696 30.239 8.174 45.898 7.25l19.474 18.532c2.093 1.992 4.823 3.032 7.586 3.031 1.698 0 3.408-.393 4.99-1.199l42.774-21.791c4.158-2.118 6.526-6.628 5.911-11.253l-3.546-26.631c9.951-12.1 17.16-26.244 21.098-41.393l23.628-12.782c4.103-2.218 6.36-6.786 5.63-11.395zm-44.072 7.179c-2.848 1.541-4.873 4.258-5.534 7.428-3.117 14.937-10.19 28.813-20.455 40.13-2.175 2.398-3.183 5.633-2.756 8.842l3.17 23.809-28.899 14.722-17.407-16.564c-2.056-1.956-4.775-3.031-7.583-3.031-.39 0-.781.021-1.173.062-15.232 1.633-30.632-.799-44.536-7.033-2.95-1.323-6.333-1.281-9.25.115l-21.648 10.363-22.934-22.93 10.363-21.641c1.397-2.917 1.439-6.302.115-9.253-6.235-13.9-8.668-29.297-7.035-44.526.344-3.214-.742-6.416-2.97-8.757l-16.565-17.402 14.724-28.892 23.816 3.17c3.211.425 6.442-.58 8.84-2.755 11.319-10.263 25.199-17.335 40.138-20.452 3.17-.661 5.887-2.686 7.428-5.533l11.43-21.121 32.036 5.073 4.339 23.602c.584 3.18 2.538 5.941 5.342 7.551 6.583 3.78 12.659 8.434 18.06 13.834 5.4 5.398 10.055 11.474 13.836 18.057 1.61 2.803 4.371 4.755 7.55 5.34l23.607 4.339 5.073 32.026z"/></g><g><g><path d="m116.211 134.408c-.18 0-.36-.004-.541-.013-3.641-.179-6.956-2.15-8.853-5.262l-65.793-107.959c-3.261-5.349-2.241-12.268 2.427-16.449 4.669-4.18 11.657-4.435 16.618-.607l48.215 37.225 27.912-36.971c2.194-2.906 5.677-4.54 9.319-4.359 3.636.179 6.948 2.146 8.847 5.252l65.674 107.503c3.261 5.338 2.254 12.251-2.395 16.438s-11.631 4.465-16.599.663l-48.163-36.864-27.882 37.019c-2.084 2.769-5.342 4.384-8.786 4.384zm-31.092-83.155 32.053 52.595 24.803-32.932c1.764-2.342 4.39-3.883 7.295-4.281 2.907-.398 5.849.381 8.177 2.164l18.681 14.299-32.114-52.568-24.873 32.945c-1.77 2.345-4.405 3.884-7.316 4.274-2.914.391-5.859-.4-8.185-2.195z" fill="#0496FF"/></g><g><path d="m236.974 58.21c-6.054 0-10.974-4.895-10.999-10.954l-.15-36.209c-.025-6.075 4.879-11.021 10.954-11.046h.047c6.054 0 10.974 4.895 10.999 10.954l.15 36.209c.025 6.075-4.879 11.021-10.954 11.046-.016 0-.031 0-.047 0z" fill="#0496FF"/></g><g><path d="m74.687 181.232c-6.054 0-10.974-4.895-10.999-10.955-.025-6.075 4.879-11.02 10.955-11.045l36.209-.15h.046c6.054 0 10.974 4.895 10.999 10.955.025 6.075-4.879 11.02-10.955 11.045l-36.209.15c-.015 0-.031 0-.046 0z" fill="#0496FF"/></g><g><path d="m497.128 472.57c-2.321 0-4.66-.621-6.759-1.899l-107.958-65.793c-3.112-1.897-5.083-5.212-5.262-8.853s1.458-7.134 4.369-9.327l37.019-27.881-36.863-48.162c-3.803-4.969-3.525-11.95.662-16.6s11.1-5.657 16.439-2.396l107.503 65.673c3.107 1.898 5.074 5.21 5.252 8.847.179 3.636-1.453 7.125-4.359 9.319l-36.971 27.912 37.225 48.215c3.83 4.96 3.575 11.948-.605 16.616-2.541 2.838-6.094 4.329-9.692 4.329zm-7.13-7.517c.004.006.009.012.014.018 0 0 0 0-.001-.001zm-82.302-70.53 52.595 32.053-14.301-18.522c-1.795-2.325-2.586-5.272-2.195-8.185.391-2.912 1.93-5.546 4.274-7.317l32.946-24.872-52.569-32.114 14.299 18.682c1.782 2.329 2.561 5.272 2.164 8.177s-1.938 5.531-4.281 7.295z" fill="#0496FF"/></g><g><path d="m338.186 448.378c-6.054 0-10.974-4.895-10.999-10.955l-.15-36.209c-.025-6.075 4.879-11.02 10.955-11.045h.046c6.054 0 10.974 4.895 10.999 10.955l.15 36.209c.025 6.075-4.879 11.02-10.955 11.045-.015 0-.031 0-.046 0z" fill="#0496FF"/></g><g><path d="m464.113 289.297c-6.054 0-10.974-4.895-10.999-10.954-.025-6.075 4.879-11.021 10.954-11.046l36.209-.15h.047c6.054 0 10.974 4.895 10.999 10.954.025 6.075-4.879 11.021-10.954 11.046l-36.209.15c-.015 0-.031 0-.047 0z" fill="#0496FF"/></g></g></g><g/><g/><g/><g/><g/><g/><g/><g/><g/><g/><g/><g/><g/><g/><g/></svg>