<svg id="Capa_1" enable-background="new 0 0 512.003 512.003" viewBox="0 0 512.003 512.003" xmlns="http://www.w3.org/2000/svg" fill="#052438"><g><path d="m463.974 151.543h-65.753c-12.059 0-21.868 9.81-21.868 21.868v33.619h-65.62c-12.059 0-21.868 9.81-21.868 21.868v33.619h-65.645c-12.058 0-21.868 9.81-21.868 21.868v33.619h-65.621c-12.058 0-21.868 9.81-21.868 21.868v33.619h-65.621c-12.058 0-21.868 9.81-21.868 21.868v103.644c0 6.075 4.925 11 11 11s11-4.925 11-11v-103.513h65.489v103.511c0 6.075 4.925 11 11 11s11-4.925 11-11v-158.998h65.489v158.998c0 6.075 4.925 11 11 11s11-4.925 11-11v-214.485h65.513v214.485c0 6.075 4.925 11 11 11s11-4.925 11-11v-269.971h65.488v269.971c0 6.075 4.925 11 11 11s11-4.925 11-11v-325.458h65.489v325.458c0 6.075 4.925 11 11 11s11-4.925 11-11v-325.591c0-12.058-9.809-21.867-21.868-21.867z"/><g fill="#0496FF"><path d="m501.003 490.002h-490c-6.075 0-11 4.925-11 11s4.925 11 11 11h490c6.075 0 11-4.925 11-11s-4.925-11-11-11z"/><path d="m10.995 296.361c.896 0 1.808-.11 2.717-.341 61.601-15.655 117.123-38.403 169.736-69.544 43.987-26.035 86.666-58.083 132.902-99.893l-.316 7.116c-.27 6.069 4.433 11.208 10.502 11.477.166.007.331.011.496.011 5.851 0 10.719-4.609 10.98-10.513l1.5-33.825c.129-2.915-.905-5.762-2.875-7.914s-4.714-3.434-7.629-3.562l-33.771-1.492c-6.05-.269-11.207 4.435-11.475 10.504-.269 6.069 4.435 11.207 10.504 11.475l7.415.328c-45.155 40.84-86.721 72.074-129.439 97.358-50.782 30.057-104.411 52.023-163.95 67.154-5.888 1.497-9.448 7.482-7.952 13.371 1.267 4.976 5.742 8.29 10.655 8.29z"/><path d="m385.787 73.95 2.632 26.347c.324 3.25 2.076 6.187 4.781 8.017 1.839 1.245 3.99 1.89 6.165 1.89 1.022 0 2.052-.143 3.055-.433l25.411-7.349 25.845 5.634c3.188.696 6.524-.062 9.102-2.069 2.576-2.006 4.128-5.054 4.235-8.318l.868-26.464 13.344-22.863c1.646-2.819 1.954-6.223.842-9.292-1.111-3.069-3.529-5.485-6.598-6.596l-24.876-9.003-17.6-19.764c-2.173-2.44-5.331-3.799-8.582-3.678-3.265.109-6.312 1.664-8.317 4.243l-16.244 20.896-24.22 10.646c-2.987 1.313-5.238 3.886-6.143 7.022-.904 3.136-.369 6.512 1.46 9.215zm25.465-29.783c1.673-.735 3.136-1.876 4.258-3.319l9.843-12.661 10.663 11.975c1.216 1.365 2.752 2.406 4.472 3.028l15.085 5.46-8.094 13.869c-.921 1.578-1.435 3.359-1.494 5.184l-.526 16.044-15.663-3.415c-1.786-.39-3.644-.328-5.398.181l-15.399 4.454-1.596-15.972c-.182-1.817-.812-3.561-1.836-5.073l-9.003-13.298z"/></g></g><g/><g/><g/><g/><g/><g/><g/><g/><g/><g/><g/><g/><g/><g/><g/></svg>