<svg id="Capa_1" enable-background="new 0 0 512 512" viewBox="0 0 512 512" xmlns="http://www.w3.org/2000/svg" fill="#E6ECF2"><g><g fill="#0496FF"><path d="m348.488 292.521-17.552-116.021c-.909-6.007-6.514-10.139-12.522-9.23-6.007.909-10.14 6.515-9.23 12.521l17.552 116.021c.825 5.449 5.515 9.356 10.863 9.356.547 0 1.102-.041 1.659-.125 6.007-.909 10.139-6.515 9.23-12.522z"/><path d="m315.513 148.088c6.007-.909 10.14-6.515 9.23-12.522l-6.227-41.16c-.909-6.007-6.516-10.136-12.522-9.231-6.007.909-10.14 6.515-9.231 12.522l6.227 41.16c.825 5.449 5.515 9.356 10.863 9.356.548 0 1.102-.041 1.66-.125z"/><path d="m167.527 335.463-43.087-15.318c-5.724-2.036-12.014.955-14.049 6.68-2.035 5.724.955 12.014 6.68 14.049l43.087 15.318c1.218.433 2.461.639 3.685.639 4.523 0 8.763-2.812 10.364-7.318 2.035-5.725-.955-12.015-6.68-14.05z"/><path d="m290.526 142.82c-.914-6.006-6.523-10.133-12.53-9.219-6.006.915-10.133 6.524-9.219 12.53l5.667 37.215c.829 5.445 5.517 9.346 10.861 9.346.55 0 1.109-.042 1.669-.127 6.006-.915 10.133-6.524 9.219-12.53z"/><path d="m239.577 305.156-43.81 14.401c-5.771 1.897-8.912 8.113-7.015 13.885 1.522 4.631 5.825 7.568 10.448 7.568 1.138 0 2.297-.178 3.437-.553l43.81-14.401c5.771-1.897 8.912-8.113 7.015-13.885-1.897-5.771-8.113-8.914-13.885-7.015z"/><path d="m87.915 229-52.962-25.448c-.472-.227-.695-.862-.469-1.334l32.413-67.455c.227-.471.862-.695 1.334-.468l42.343 20.346c5.476 2.63 12.047.325 14.679-5.151 2.631-5.476.325-12.048-5.151-14.679l-32.503-15.617c-3.587-1.729-6.298-4.776-7.633-8.58-1.337-3.812-1.123-7.892.605-11.488l.972-2.021c3.593-7.479 12.599-10.64 20.079-7.045l23.64 11.359c4.621 2.22 7.761 6.624 8.4 11.781.748 6.029 6.237 10.309 12.271 9.562 6.029-.748 10.31-6.242 9.562-12.271-1.566-12.62-9.306-23.425-20.706-28.902l-23.639-11.359c-18.413-8.847-40.589-1.065-49.437 17.346l-.972 2.021c-3.735 7.774-4.621 16.432-2.592 24.739-4.856 2.233-8.747 6.038-11.083 10.9l-32.412 67.454c-2.655 5.525-2.995 11.766-.958 17.572s6.202 10.465 11.728 13.121l52.962 25.448c1.537.738 3.159 1.087 4.756 1.087 4.097 0 8.03-2.299 9.923-6.238 2.632-5.476.326-12.048-5.15-14.68z"/></g><path d="m504.405 101.077c-4.547-2.335-9.927-2.02-14.155.806l-93.265 58.357c-8.773 5.49-15.631 13.391-19.833 22.848l-46.713 105.155-48.622 9.995c-3.382.695-6.241 2.938-7.722 6.057l-12.705 26.756-18.431-50.301c-2.96-8.054-8.769-14.698-16.343-18.702l-58.442-30.984c4.411-14.245 11.201-28.276 19.521-40.184l8.738-12.352 31.18 15.305c8.807 4.323 18.591 5.844 28.296 4.406l63.485-9.424c8.212-1.219 15.458-5.563 20.404-12.232 4.945-6.669 6.997-14.864 5.778-23.078-2.517-16.953-18.36-28.7-35.31-26.181l-56.157 8.336-29.171-17.576c18.767-9.159 30.345-29.728 27.12-51.457l-1.021-6.879c-3.983-26.835-29.053-45.426-55.894-41.444-26.836 3.984-45.428 29.058-41.444 55.894l1.021 6.879c.631 4.249 1.801 8.285 3.412 12.063-5.411 1.297-10.946 3.812-16.576 7.915-28.162 20.526-54.551 63.917-60.393 99.145l-6.122 20.662c-4.784 16.147-1.724 32.823 7.142 45.817l31.202 49.45-28.275 77.781c-3.006 8.27-2.653 16.953.346 24.559l-33.826.005c-12.424.002-23.631 6.888-29.248 17.97l-21.193 41.816c-1.729 3.41-1.562 7.473.438 10.73 2.001 3.258 5.55 5.243 9.373 5.243h490c6.075 0 11-4.925 11-11v-369.714c0-5.268-2.91-10.035-7.595-12.442zm-282.099 187.253 34.507 94.176c2.417 6.575-.966 13.89-7.542 16.307-6.454 2.458-13.978-1.035-16.32-7.58l-31.909-85.805c-1.065-2.866-3.276-5.159-6.101-6.329l-80.329-33.271c-6.676-2.761-11.819-7.426-15.347-13.268-4.4-7.426-5.762-16.573-3.132-25.448l2.392-8.073 117.797 62.453c2.778 1.468 4.904 3.9 5.984 6.838zm-37.881 35.528 23.441 63.035-46.375.054zm13.947-283.792c1.349-.2 2.688-.297 4.012-.297 13.247 0 24.888 9.722 26.89 23.211l1.021 6.879c2.202 14.836-8.077 28.699-22.913 30.901-14.84 2.204-28.7-8.077-30.902-22.913l-1.021-6.879c-2.202-14.837 8.077-28.7 22.913-30.902zm-43.859 78.768c10.368-7.557 19.339-6.406 36.916 4.742.071.045.143.089.215.133l54.496 32.834c2.187 1.317 4.762 1.833 7.292 1.459l60.065-8.917c4.959-.734 9.582 2.697 10.317 7.65.356 2.399-.243 4.794-1.688 6.743s-3.562 3.218-5.962 3.574l-63.485 9.424c-5.272.781-10.588-.045-15.372-2.394l-39.158-19.22-13.534-8.196c-5.194-3.147-11.96-1.486-15.107 3.711-3.147 5.196-1.485 11.96 3.711 15.107l3.845 2.328-7.366 10.412c-8.99 12.866-16.219 27.311-21.273 42.367l-44.197-23.432c6.931-28.529 28.335-62.327 50.285-78.325zm-41.127 298.871c-6.583-2.394-9.993-9.696-7.6-16.28l30.116-82.848c1.162-3.197.78-6.751-1.036-9.628l-9.328-14.784 38.988 16.148c.221 1.937-.003 3.895-.681 5.763l-34.18 94.029c-2.199 6.471-9.901 10.05-16.279 7.6zm376.614 54.528h-461.093l13.098-25.844c1.849-3.647 5.539-5.915 9.628-5.915l66.83-.01c14.124-.239 27.185-9.488 31.877-22.842l3.15-8.665 64.602-.075c8.998 11.18 25.213 15.778 38.769 10.58 17.96-6.602 27.201-26.585 20.604-44.536l-5.468-14.926 19.619-41.316 48.606-9.991 40.509-6.811c4.039-.679 8.094.914 10.59 4.155l31.256 40.571c2.167 2.812 5.426 4.288 8.722 4.287 2.343 0 4.706-.746 6.706-2.287 4.812-3.708 5.708-10.614 2-15.427l-31.255-40.571c-7.467-9.691-19.599-14.452-31.666-12.424l-20.526 3.451 40.699-91.618c2.415-5.435 6.355-9.976 11.397-13.13l81.346-50.898z"/></g><g/><g/><g/><g/><g/><g/><g/><g/><g/><g/><g/><g/><g/><g/><g/></svg>