<svg id="Capa_1" enable-background="new 0 0 512 512" viewBox="0 0 512 512" xmlns="http://www.w3.org/2000/svg" fill="#052438"><g><g><g><path d="m323.492 250.957c-3.975 0-7.812-2.162-9.771-5.934-2.799-5.392-.698-12.032 4.693-14.832l111.983-58.144c5.391-2.799 12.031-.698 14.832 4.694 2.799 5.392.698 12.032-4.693 14.832l-111.983 58.144c-1.62.841-3.354 1.24-5.061 1.24z" fill="#0496FF"/></g><g><path d="m322.494 321.353c-3.613 0-7.15-1.777-9.255-5.039-3.293-5.105-1.824-11.914 3.281-15.207l112.732-72.719c5.106-3.294 11.913-1.823 15.207 3.281 3.293 5.105 1.824 11.914-3.281 15.207l-112.732 72.719c-1.843 1.189-3.91 1.758-5.952 1.758z" fill="#0496FF"/></g><g><path d="m346.869 371.592c-3.564 0-7.062-1.729-9.179-4.923-3.356-5.064-1.973-11.89 3.092-15.246l94.32-62.522c5.062-3.356 11.891-1.973 15.246 3.091 3.356 5.064 1.973 11.89-3.092 15.246l-94.32 62.522c-1.869 1.24-3.98 1.832-6.067 1.832z" fill="#0496FF"/></g></g><path d="m458.078 352.565-10.862-161.983c11.344-1.406 20.156-11.099 20.156-22.818v-20.91c0-12.682-10.317-23-23-23h-1.63l-2.362-35.213c6.06-3.968 10.074-10.815 10.074-18.586v-26.414c0-8.777-5.184-16.746-13.206-20.301l-49.394-21.883c-4.376-1.94-9.396-1.94-13.768-.001l-49.397 21.884c-8.022 3.555-13.206 11.523-13.206 20.301v26.416c0 7.771 4.014 14.617 10.073 18.585l-2.361 35.213h-1.63c-12.683 0-23 10.318-23 23v20.91c0 11.719 8.811 21.411 20.156 22.818l-10.888 162.365c-19.026 6.411-32.771 24.409-32.771 45.57v54.358c0 6.075 4.925 11 11 11s11-4.925 11-11v-54.358c0-14.383 11.701-26.084 26.084-26.084h124.768c14.383 0 26.084 11.701 26.084 26.084v14.992c0 6.075 4.925 8.697 11 8.697s11-4.925 11-11v-12.689c0-21.586-14.298-39.892-33.92-45.953zm-32.899-161.8 10.707 159.669h-109.834l10.707-159.669zm-91.696-147.124c0-.082.047-.155.118-.187l47.368-20.986 47.367 20.986c.071.032.118.105.118.187v26.416c0 .111-.086.202-.192.202h-94.587c-.106 0-.192-.091-.192-.202zm9.881 48.618h75.209l2.119 31.596h-79.446zm-26.798 54.596c0-.523.477-1 1-1h126.806c.523 0 1 .477 1 1v20.91c0 .523-.477 1-1 1h-126.806c-.523 0-1-.477-1-1z"/><g fill="#0496FF"><path d="m11 282.501h125.549c10.762 0 19.517 8.768 19.517 19.545s-8.755 19.545-19.517 19.545c-6.593 0-12.696-3.301-16.326-8.83-3.334-5.079-10.156-6.492-15.232-3.158-5.078 3.334-6.492 10.154-3.158 15.232 7.711 11.744 20.688 18.755 34.717 18.755 22.893 0 41.517-18.637 41.517-41.545s-18.624-41.545-41.517-41.545h-125.55c-6.075 0-11 4.925-11 11s4.925 11.001 11 11.001z"/><path d="m11 184.895h125.549c22.893 0 41.517-18.637 41.517-41.545s-18.624-41.545-41.517-41.545c-14.028 0-27.007 7.011-34.717 18.755-3.334 5.079-1.92 11.898 3.158 15.232 5.076 3.332 11.897 1.92 15.232-3.158 3.63-5.529 9.733-8.83 16.326-8.83 10.762 0 19.517 8.768 19.517 19.545s-8.755 19.545-19.517 19.545h-125.548c-6.075 0-11 4.925-11 11s4.925 11.001 11 11.001z"/><path d="m205.229 184.906c5.077 3.333 11.897 1.921 15.232-3.158 3.63-5.529 9.733-8.83 16.326-8.83 10.762 0 19.517 8.768 19.517 19.545s-8.755 19.545-19.517 19.545h-193.76c-6.075 0-11 4.925-11 11s4.925 11 11 11h193.761c22.893 0 41.517-18.637 41.517-41.545s-18.624-41.545-41.517-41.545c-14.028 0-27.007 7.011-34.717 18.755-3.334 5.08-1.92 11.899 3.158 15.233z"/><path d="m11 322.735h43.744c6.075 0 11-4.925 11-11s-4.925-11-11-11h-43.744c-6.075 0-11 4.925-11 11s4.925 11 11 11z"/><path d="m213.56 260.501c-6.075 0-11 4.925-11 11s4.925 11 11 11h53.745c6.075 0 11-4.925 11-11s-4.925-11-11-11z"/><path d="m11 139.665h26.873c6.075 0 11-4.925 11-11s-4.925-11-11-11h-26.873c-6.075 0-11 4.925-11 11s4.925 11 11 11z"/><path d="m501.181 400.028c-6.667-3.167-14.367-2.238-20.092 2.428l-44.123 35.964c-4.756 3.878-10.879 5.171-16.792 3.545-5.923-1.627-10.531-5.872-12.645-11.647l-8.456-23.11c-2.081-5.687-6.536-10.138-12.224-12.211-5.685-2.072-11.956-1.535-17.206 1.477l-73.497 42.159c-8.1 4.646-17.775 5.475-26.547 2.278-8.782-3.203-15.663-10.079-18.879-18.867l-5.426-14.833c-2.08-5.688-6.536-10.139-12.224-12.213-5.688-2.073-11.957-1.534-17.206 1.477l-73.489 42.157c-8.101 4.646-17.777 5.477-26.549 2.278-8.782-3.203-15.663-10.079-18.878-18.867l-5.425-14.83c-2.08-5.688-6.534-10.14-12.223-12.214-5.685-2.074-11.957-1.536-17.208 1.476l-41.681 23.909c-12.589 7.222-20.411 20.731-20.411 35.254v45.36c0 6.075 4.925 11 11 11h490c6.075 0 11-4.925 11-11v-83.85c0-7.39-4.146-13.95-10.819-17.12zm-11.181 89.971h-468v-34.36c0-6.664 3.587-12.861 9.36-16.173l40.119-23.013 4.81 13.147c5.447 14.893 17.111 26.548 32.001 31.978 14.879 5.426 31.294 4.017 45.033-3.864l71.927-41.261 4.811 13.149c5.448 14.893 17.113 26.548 32.003 31.977 14.879 5.425 31.291 4.017 45.03-3.864l71.936-41.263 7.84 21.426c4.59 12.544 14.604 21.766 27.478 25.302 12.864 3.533 26.176.725 36.52-7.707l39.132-31.898z"/></g></g><g/><g/><g/><g/><g/><g/><g/><g/><g/><g/><g/><g/><g/><g/><g/></svg>