<svg id="Capa_1" enable-background="new 0 0 512 512" viewBox="0 0 512 512" xmlns="http://www.w3.org/2000/svg" fill="#052438"><g><g fill="#0496FF"><path d="m206.528 93.836h9.794v43.825c0 6.075 4.925 11 11 11h57.366c6.075 0 11-4.925 11-11v-43.825h9.783c5.207 0 9.929-2.872 12.323-7.495 2.393-4.621 2.013-10.132-.991-14.382l-45.12-63.84c-3.591-5.084-9.454-8.119-15.683-8.119s-12.092 3.035-15.683 8.119l-45.122 63.841c-3.003 4.25-3.383 9.761-.99 14.382 2.395 4.622 7.116 7.494 12.323 7.494zm49.472-69.79 33.776 47.79h-5.088c-6.075 0-11 4.925-11 11v50.943h-35.366v-50.943c0-6.075-4.925-11-11-11h-5.099z"/><path d="m220.309 191.507c-6.033-.771-11.535 3.494-12.303 9.52-11.119 87.172-33.224 172.776-65.7 254.437l-16.093 40.474c-2.244 5.645.512 12.041 6.157 14.286 1.334.53 2.709.781 4.062.781 4.373 0 8.51-2.627 10.225-6.939l16.093-40.473c33.158-83.375 55.727-170.778 67.079-259.782.769-6.027-3.494-11.536-9.52-12.304z"/><path d="m385.787 495.938-16.093-40.475c-32.544-81.829-54.67-167.621-65.764-254.994-.765-6.027-6.261-10.287-12.298-9.527-6.026.766-10.292 6.271-9.526 12.298 11.327 89.209 33.918 176.804 67.145 260.352l16.093 40.474c1.715 4.312 5.851 6.939 10.225 6.939 1.353 0 2.729-.251 4.062-.781 5.643-2.245 8.4-8.641 6.156-14.286z"/><path d="m256 202.349c-6.075 0-11 4.925-11 11v284.684c0 6.075 4.925 11 11 11s11-4.925 11-11v-284.684c0-6.075-4.925-11-11-11z"/></g><g><path d="m501 490h-18v-330.279c0-16.725-13.606-30.331-30.331-30.331h-393.338c-16.725 0-30.331 13.607-30.331 30.331v330.279h-18c-6.075 0-11 4.925-11 11s4.925 11 11 11h490c6.075 0 11-4.925 11-11s-4.925-11-11-11zm-450-330.279c0-4.594 3.737-8.331 8.331-8.331h393.338c4.594 0 8.331 3.737 8.331 8.331v330.279h-14.8l-43.584-91.426 30.515-37.997c3.23-4.023 3.23-9.752 0-13.775l-32.23-40.134 2.454-51.39c.246-5.153-3.122-9.786-8.101-11.14l-49.731-13.523-28.227-43.058c-2.829-4.315-8.277-6.083-13.101-4.254l-48.195 18.281-48.195-18.281c-4.828-1.831-10.272-.06-13.101 4.254l-28.227 43.057-49.731 13.524c-4.979 1.354-8.347 5.986-8.101 11.14l2.454 51.39-32.23 40.134c-3.23 4.023-3.23 9.752 0 13.775l30.55 38.041-42.761 91.382h-15.658zm79.863 230.465-29.309-36.496 29.309-36.496c1.681-2.094 2.538-4.73 2.41-7.413l-2.231-46.731 45.234-12.301c2.594-.706 4.839-2.336 6.312-4.584l25.672-39.159 43.838 16.628c2.514.953 5.289.953 7.803 0l43.838-16.629 25.672 39.16c1.474 2.248 3.719 3.878 6.312 4.584l45.234 12.301-2.231 46.731c-.128 2.682.729 5.319 2.41 7.413l29.309 36.496-29.309 36.495c-2.644 3.293-3.17 7.809-1.353 11.621l42.045 88.194h-330.881l41.302-88.265c1.778-3.799 1.24-8.279-1.386-11.549z"/><path d="m156.342 53.486c6.075 0 11-4.925 11-11v-31.234c0-6.075-4.925-11-11-11s-11 4.925-11 11v31.234c0 6.076 4.925 11 11 11z"/><path d="m75.473 102.999h31.281c6.075 0 11-4.925 11-11s-4.925-11-11-11h-31.281c-6.075 0-11 4.925-11 11s4.924 11 11 11z"/><path d="m110.042 62.261c2.147 2.144 4.96 3.216 7.772 3.216 2.817 0 5.636-1.076 7.784-3.228 4.292-4.299 4.287-11.264-.012-15.556l-22.12-22.086c-4.298-4.292-11.263-4.287-15.557.012-4.292 4.299-4.287 11.264.012 15.556z"/><path d="m355.658 53.486c6.075 0 11-4.925 11-11v-31.234c0-6.075-4.925-11-11-11s-11 4.925-11 11v31.234c0 6.076 4.925 11 11 11z"/><path d="m394.246 91.999c0 6.075 4.925 11 11 11h31.281c6.075 0 11-4.925 11-11s-4.925-11-11-11h-31.281c-6.075 0-11 4.924-11 11z"/><path d="m394.186 65.477c2.812 0 5.625-1.072 7.772-3.216l22.12-22.086c4.299-4.292 4.304-11.257.012-15.556s-11.257-4.305-15.557-.012l-22.12 22.086c-4.299 4.292-4.304 11.257-.012 15.556 2.149 2.151 4.966 3.228 7.785 3.228z"/></g></g><g/><g/><g/><g/><g/><g/><g/><g/><g/><g/><g/><g/><g/><g/><g/></svg>