<svg id="Capa_1" enable-background="new 0 0 512 512" viewBox="0 0 512 512" xmlns="http://www.w3.org/2000/svg" fill="#E6ECF2"><g><g fill="#0496FF"><path d="m201.971 218.16c0 6.075 4.925 11 11 11h86.063c6.075 0 11-4.925 11-11s-4.925-11-11-11h-86.063c-6.075 0-11 4.925-11 11z"/><path d="m74.425 343.061c-2.826-5.378-9.477-7.446-14.854-4.619-15.989 8.403-33.212 15.572-51.191 21.309-5.788 1.846-8.983 8.035-7.136 13.823 1.492 4.676 5.818 7.66 10.477 7.66 1.108 0 2.234-.168 3.346-.523 19.2-6.125 37.617-13.794 54.74-22.794 5.376-2.827 7.444-9.478 4.618-14.856z"/><path d="m184.546 229.28c-5.31-2.949-12.007-1.035-14.957 4.277-8.789 15.827-24.731 39.687-50.771 63.471-4.486 4.097-4.801 11.055-.704 15.541 2.17 2.376 5.143 3.582 8.125 3.582 2.649 0 5.306-.951 7.416-2.878 28.232-25.787 45.583-51.775 55.167-69.035 2.95-5.312 1.035-12.009-4.276-14.958z"/><path d="m504.34 359.751c-17.933-5.721-35.116-12.869-51.074-21.247-5.379-2.824-12.029-.752-14.853 4.626-2.824 5.379-.753 12.029 4.626 14.853 17.089 8.972 35.464 16.618 54.614 22.727 1.112.355 2.238.523 3.346.523 4.659 0 8.985-2.984 10.477-7.66 1.847-5.787-1.349-11.976-7.136-13.822z"/><path d="m343.129 233.557c-2.95-5.312-9.648-7.227-14.957-4.277-5.312 2.949-7.226 9.646-4.277 14.957 9.485 17.083 26.641 42.821 54.503 68.427 2.113 1.942 4.78 2.901 7.44 2.901 2.971 0 5.933-1.197 8.102-3.557 4.111-4.473 3.817-11.432-.656-15.542-25.695-23.616-41.457-47.245-50.155-62.909z"/><path d="m153.91 237.371c1.213.429 2.45.632 3.667.632 4.531 0 8.593-.904 10.189-5.419l14.545-41.142c2.025-5.728-1.204-10.38-6.931-12.405-5.728-2.024-11.786-.656-13.811 5.072l-14.545 41.142c-2.026 5.727 1.158 10.094 6.886 12.12z"/><path d="m336.853 179.39c-5.728 2.025-9.344 6.323-7.319 12.051l14.545 41.142c1.597 4.516 4.574 4.577 9.106 4.577 1.217 0 2.454-.203 3.667-.632 5.728-2.025 9.995-5.55 7.97-11.278l-14.545-41.142c-2.026-5.728-7.695-6.743-13.424-4.718z"/><path d="m255.108 87.021c6.075 0 11-4.925 11-11l.002-53.901c0-6.075-4.924-11-11-11-6.075 0-11 4.925-11 11l-.002 53.901c.001 6.075 4.925 11 11 11z"/><path d="m307.242 106.159c2.018 1.591 4.419 2.362 6.803 2.362 3.253 0 6.475-1.437 8.646-4.19l25.8-32.723c3.761-4.771 2.943-11.688-1.828-15.449-4.771-3.762-11.687-2.943-15.449 1.828l-25.8 32.723c-3.761 4.77-2.943 11.687 1.828 15.449z"/><path d="m187.527 104.333c2.17 2.753 5.392 4.19 8.646 4.19 2.384 0 4.786-.772 6.803-2.362 4.771-3.761 5.589-10.678 1.828-15.448l-25.797-32.722c-3.761-4.771-10.678-5.59-15.448-1.828-4.771 3.761-5.589 10.678-1.828 15.448z"/><path d="m197.51 413.932-45.088 26.751c-5.225 3.1-4.482 8.11-1.381 13.335 2.055 3.464 3.249 7.127 7.005 7.127 1.909 0 3.842-.497 5.603-1.542l45.088-26.751c5.225-3.1 6.281-9.39 3.181-14.614-3.101-5.225-9.184-7.406-14.408-4.306z"/><path d="m92.906 438.292-45.646-20.315c-5.55-2.471-12.053.026-14.522 5.577-2.47 5.55.027 12.052 5.577 14.522l45.646 20.315c1.454.647 2.972.953 4.466.953 4.212 0 8.233-2.434 10.056-6.53 2.47-5.55-.027-12.052-5.577-14.522z"/><path d="m464.649 417.948-45.689 20.334c-5.55 2.47-8.047 8.972-5.577 14.522 1.824 4.097 5.843 6.53 10.056 6.53 1.494 0 3.013-.307 4.466-.953l45.689-20.334c5.55-2.47 8.047-8.972 5.577-14.522s-8.972-8.048-14.522-5.577z"/><path d="m359.423 440.683-45.088-26.751c-5.223-3.1-9.881.814-12.981 6.039s-3.469 9.781 1.756 12.881l45.088 26.751c1.76 1.045 3.694 1.542 5.603 1.542 3.755 0 3.821-4.726 5.876-8.191 3.099-5.225 4.97-9.171-.254-12.271z"/></g><path d="m227.315 446.236-42.236-82.257c-6.578-12.811-14.764-24.764-24.331-35.526l-39.423-44.351c1.362-28.558 1.511-45.937-.875-61.6 6.411 4.428 13.249 8.439 20.458 11.418l36.31 15.261c9.761 4.103 20.582 3.359 29.689-2.04 9.108-5.398 14.955-14.535 16.041-25.066 1.515-14.685-7.016-28.733-20.745-34.162l-40.099-15.855c-6.097-2.411-11.893-5.565-17.228-9.377l-41.343-29.542c-3.904-2.79-8.033-5.158-12.297-7.083 2.141-2.365 4.084-4.94 5.788-7.72 7.181-11.715 9.37-25.525 6.163-38.887l-1.718-7.16c-6.619-27.583-34.441-44.636-62.026-38.019-27.58 6.62-44.635 34.444-38.017 62.027l1.718 7.158c3.367 14.035 12.225 25.341 23.747 32.193-5.244 5.002-9.535 11.009-12.617 17.809-6.235 13.757-6.808 29.1-1.628 43.265l14.577 53.773-6.776 23.505c-8.323 24.308 3.358 57.72 25.628 73.132 1.21.837 4.895 3.6 9.69 7.233l-33.756 97.037c-7.417 18.168 1.196 39.037 19.33 46.661 17.66 7.79 39.901-1.211 47.008-19.184l29.533-70.255c2.356 3.155 4.599 6.411 6.718 9.771l42.63 67.573c.183.29.378.57.587.842 6.78 8.806 17.464 14.064 28.579 14.064 13.27 0 25.047-6.92 31.506-18.511 6.384-11.453 6.156-24.922-.585-36.127zm-95.228-265.656c6.791 4.853 14.168 8.869 21.928 11.937l40.099 15.855c4.6 1.819 7.458 6.526 6.951 11.446-.364 3.529-2.323 6.59-5.375 8.399s-6.677 2.058-9.947.683l-36.31-15.261c-4.712-1.98-9.255-4.422-13.504-7.257l-27.042-18.041-26.894-19.145c-4.949-3.523-11.818-2.367-15.341 2.582s-2.367 11.817 2.582 15.341l24.138 17.183c5.706 16.962 7.793 28.935 6.51 65.881l-51.88-27.118-14.252-52.578c-3.531-9.095-3.532-19.036.563-27.949 3.885-8.572 10.876-15.118 19.684-18.433 5.021-1.889 10.125-2.386 16.064-1.562 7.141.991 14.293 3.928 20.684 8.494zm-109.269-89.416c-3.788-15.787 5.974-31.712 21.76-35.5 15.251-4.022 32.15 6.298 35.5 21.759l1.718 7.16c3.788 15.786-5.973 31.711-21.76 35.5-15.788 3.786-31.711-5.975-35.5-21.76zm45.248 379.189c-2.754 6.945-11.362 10.469-18.202 7.429-7.067-2.971-10.399-11.137-7.429-18.204.09-.213.173-.43.249-.648l31.491-90.526c9.452 7.389 19.108 13.59 27.529 21.932zm140.618 1.301c-2.519 4.521-7.113 7.22-12.289 7.22-4.188 0-8.22-1.915-10.874-5.142l-42.316-67.075c-12.537-19.873-28.725-36.672-48.114-49.936-4.253-3.268-31.971-24.548-36.496-27.68-14.305-9.95-22.689-33.531-17.089-48.669l3.978-13.8 57.577 30.097 41.244 46.399c8.337 9.379 15.471 19.795 21.203 30.959l42.419 82.614c.134.26.277.515.431.763 2.724 4.402 2.846 9.729.326 14.25z"/><g><path d="m472.4 34.271c-27.579-6.617-55.407 10.436-62.026 38.019l-1.718 7.159c-3.207 13.362-1.018 27.172 6.163 38.887 1.704 2.779 3.647 5.354 5.788 7.72-4.265 1.924-8.393 4.293-12.297 7.083l-41.344 29.542c-5.334 3.812-11.13 6.967-17.227 9.377l-40.099 15.855c-13.729 5.429-22.259 19.477-20.745 34.162 1.086 10.532 6.933 19.668 16.041 25.067 9.107 5.398 19.929 6.142 29.689 2.04l36.31-15.261c7.185-2.97 14.008-6.965 20.399-11.379-2.088 14.219-2.226 31.592-.814 61.559l-39.424 44.352c-9.567 10.762-17.753 22.715-24.331 35.526l-42.236 82.256c-6.74 11.205-6.969 24.674-.587 36.127 6.459 11.591 18.237 18.512 31.507 18.512 11.114 0 21.798-5.257 28.579-14.064.209-.271.405-.552.588-.842l42.63-67.573c2.12-3.36 4.362-6.616 6.718-9.771l29.533 70.255c4.293 10.212 12.886 17.759 23.575 20.705 3.102.854 6.299 1.278 9.496 1.278 4.759 0 9.515-.94 13.938-2.799 18.132-7.623 26.744-28.492 19.329-46.659l-33.756-97.038c4.794-3.633 8.48-6.395 9.69-7.232 22.271-15.412 33.952-48.825 25.628-73.132l-6.777-23.506 14.577-53.773c5.179-14.166 4.606-29.508-1.628-43.265-3.082-6.8-7.373-12.807-12.617-17.809 11.522-6.852 20.381-18.158 23.748-32.191l1.718-7.16c6.619-27.584-10.436-55.408-38.018-62.027zm-96.485 172.111c-4.25 2.835-8.793 5.277-13.504 7.257l-36.31 15.261c-3.271 1.374-6.896 1.125-9.947-.683-3.052-1.809-5.011-4.87-5.375-8.399-.507-4.92 2.351-9.626 6.951-11.445l40.099-15.855c7.76-3.068 15.138-7.084 21.928-11.937l41.344-29.542c6.39-4.566 13.542-7.503 20.684-8.494 5.938-.824 11.042-.327 16.063 1.562 8.809 3.314 15.799 9.861 19.685 18.433 3.885 8.572 4.199 18.144.884 26.953-.123.327-.23.659-.321.996l-14.254 52.579-51.88 27.118c-1.284-36.947.804-48.916 6.51-65.881l24.138-17.183c4.949-3.523 6.105-10.392 2.582-15.341s-10.392-6.105-15.341-2.582l-26.894 19.145zm93.246 252.548c.076.219.159.435.249.648 2.971 7.066-.362 15.232-7.427 18.203-6.843 3.04-15.448-.482-18.204-7.428l-33.637-80.017c8.423-8.344 18.075-14.541 27.529-21.932zm-15.911-129.888c-4.525 3.132-32.243 24.413-36.496 27.68-19.39 13.263-35.577 30.062-48.114 49.935l-42.316 67.075c-2.654 3.228-6.686 5.142-10.874 5.142-5.176 0-9.77-2.699-12.289-7.221-2.519-4.521-2.397-9.848.326-14.249.154-.249.297-.503.431-.763l42.419-82.614c5.733-11.164 12.867-21.58 21.204-30.959l41.244-46.399 57.577-30.097 3.979 13.801c.057.199.121.397.189.593 5.238 14.94-3.159 38.304-17.28 48.076zm35.776-237.879-1.718 7.16c-3.788 15.786-19.707 25.548-35.5 21.759-15.787-3.788-25.548-19.713-21.76-35.5l1.718-7.159c1.835-7.647 6.539-14.123 13.243-18.232 6.705-4.109 14.609-5.362 22.256-3.527 15.788 3.788 25.549 19.713 21.761 35.499z"/></g></g><g/><g/><g/><g/><g/><g/><g/><g/><g/><g/><g/><g/><g/><g/><g/></svg>