<svg id="Capa_1" enable-background="new 0 0 512 512" viewBox="0 0 512 512" xmlns="http://www.w3.org/2000/svg" fill="#052438"><g><g fill="#0496FF"><path d="m154.782 242.731-9.146-3.788c-2.955-1.224-4.418-4.756-3.193-7.711 1.224-2.956 4.753-4.418 7.711-3.193l4.573 1.894c5.609 2.322 12.047-.341 14.372-5.954 2.324-5.613-.341-12.047-5.954-14.372l-4.573-1.894c-.521-.216-1.046-.414-1.572-.596v-2.789c0-6.075-4.925-11-11-11s-11 4.925-11 11v4.435c-5.616 2.923-10.276 7.757-12.883 14.051-5.887 14.214.887 30.567 15.101 36.456l9.146 3.788c2.955 1.224 4.418 4.756 3.193 7.712-.804 1.941-2.351 2.822-3.2 3.174-.852.352-2.567.824-4.51.019l-4.573-1.895c-5.612-2.325-12.048.339-14.372 5.953-2.325 5.613.34 12.047 5.952 14.373l4.574 1.895c.52.215 1.044.414 1.571.597v2.789c0 6.075 4.925 11 11 11s11-4.925 11-11v-4.439c5.826-3.022 10.353-7.936 12.884-14.048 5.887-14.216-.887-30.569-15.101-36.457z"/><path d="m426 302.423c-19.299 0-35 15.701-35 35v19.5c0 19.299 15.701 35 35 35s35-15.701 35-35v-19.5c0-19.299-15.701-35-35-35zm13 54.499c0 7.168-5.832 13-13 13s-13-5.832-13-13v-19.5c0-7.168 5.832-13 13-13s13 5.832 13 13z"/><path d="m415 182.271v78.729c0 6.075 4.925 11 11 11s11-4.925 11-11v-78.729c0-31.389-25.536-56.925-56.925-56.925s-56.925 25.536-56.925 56.925v19.883c0 20.995-17.08 38.075-38.075 38.075h-44.075c-6.075 0-11 4.925-11 11s4.925 11 11 11h44.075c33.126 0 60.075-26.95 60.075-60.075v-19.883c0-19.258 15.667-34.925 34.925-34.925s34.925 15.667 34.925 34.925z"/></g><g><path d="m56.008 82c6.075 0 11-4.925 11-11s-4.925-11-11-11h-.008c-6.075 0-10.996 4.925-10.996 11s4.929 11 11.004 11z"/><path d="m101.007 82c6.075 0 11-4.925 11-11s-4.925-11-11-11h-.007c-6.075 0-10.996 4.925-10.996 11s4.928 11 11.003 11z"/><path d="m146.007 82c6.075 0 11-4.925 11-11s-4.925-11-11-11h-.007c-6.075 0-10.996 4.925-10.996 11s4.928 11 11.003 11z"/><path d="m146 150c-55.691 0-101 45.309-101 101s45.309 101 101 101 101-45.309 101-101-45.309-101-101-101zm0 180c-43.561 0-79-35.439-79-79s35.439-79 79-79 79 35.439 79 79-35.439 79-79 79z"/><path d="m487 280.436v-254.436c0-6.075-4.925-11-11-11h-465c-6.075 0-11 4.925-11 11v360c0 6.075 4.925 11 11 11h329v14c0 47.42 38.579 86 86 86s86-38.58 86-86v-70c0-23.6-9.555-45.009-25-60.564zm-22-243.436v23h-259.001c-3.395 0-6.599 1.567-8.683 4.247l-31.696 40.753h-143.62v-68zm-443 338v-248h149c3.395 0 6.599-1.567 8.683-4.247l31.696-40.753h253.621v182.362c-11.712-5.985-24.969-9.362-39-9.362-47.421 0-86 38.58-86 86v34zm468 36c0 35.29-28.71 64-64 64s-64-28.71-64-64v-70c0-35.29 28.71-64 64-64s64 28.71 64 64z"/></g></g><g/><g/><g/><g/><g/><g/><g/><g/><g/><g/><g/><g/><g/><g/><g/></svg>