<svg id="Capa_1" enable-background="new 0 0 512 512" viewBox="0 0 512 512" xmlns="http://www.w3.org/2000/svg" fill="#E6ECF2"><g><g fill="#0496FF"><path d="m89.661 108.53c6.075 0 11-4.925 11-11s-4.925-11-11-11h-33.661c-6.075 0-11 4.925-11 11v76.94c0 6.075 4.925 11 11 11h33.661c6.075 0 11-4.925 11-11s-4.925-11-11-11h-22.661v-16.47h12.683c6.075 0 11-4.925 11-11s-4.925-11-11-11h-12.683v-16.47z"/><path d="m295.125 86.53c-16.671 0-30.235 13.563-30.235 30.235v38.47c0 16.671 13.563 30.234 30.235 30.234s30.235-13.563 30.235-30.234v-38.47c0-16.672-13.563-30.235-30.235-30.235zm8.235 68.705c0 4.54-3.694 8.234-8.235 8.234s-8.235-3.694-8.235-8.234v-38.47c0-4.541 3.694-8.235 8.235-8.235s8.235 3.694 8.235 8.235z"/><path d="m387.366 163.47h-22.661v-65.94c0-6.075-4.925-11-11-11s-11 4.925-11 11v76.94c0 6.075 4.925 11 11 11h33.661c6.075 0 11-4.925 11-11s-4.925-11-11-11z"/><path d="m163.104 86.53c-6.075 0-11 4.925-11 11v30.343l-17.631-35.262c-2.282-4.563-7.401-6.959-12.366-5.787-4.965 1.173-8.473 5.604-8.473 10.706v76.94c0 6.075 4.925 11 11 11s11-4.925 11-11v-30.343l17.631 35.262c1.894 3.788 5.743 6.082 9.836 6.082.838 0 1.686-.096 2.53-.295 4.965-1.173 8.473-5.604 8.473-10.706v-76.94c0-6.076-4.925-11-11-11z"/><path d="m237.303 142.643c8.753-5.303 14.615-14.919 14.615-25.879 0-16.671-13.563-30.234-30.235-30.234h-19.235c-6.075 0-11 4.925-11 11v76.94c0 6.075 4.925 11 11 11s11-4.925 11-11v-27.471h1.436l16.194 32.39c1.927 3.855 5.812 6.083 9.848 6.083 1.653 0 3.332-.374 4.911-1.163 5.434-2.717 7.636-9.324 4.919-14.758zm-23.855-34.113h8.235c4.541 0 8.235 3.694 8.235 8.234 0 4.496-3.622 8.162-8.101 8.234-.124-.002-.247-.001-.371.002h-7.998z"/><path d="m456 163.47h-22.661v-65.94c0-6.075-4.925-11-11-11s-11 4.925-11 11v76.94c0 6.075 4.925 11 11 11h33.661c6.075 0 11-4.925 11-11s-4.925-11-11-11z"/></g><path d="m481 35h-450c-17.093 0-31 13.906-31 30.999v140.001c0 17.094 13.907 31 31 31h191.534c-.022.497-.034.997-.034 1.499v147.5c0 50.178 40.822 91 91 91h20c50.178 0 91-40.822 91-91v-62.499c0-18.472-15.028-33.5-33.5-33.5-8.652 0-16.549 3.298-22.5 8.701-5.951-5.403-13.848-8.701-22.5-8.701s-16.549 3.298-22.5 8.701c-5.951-5.403-13.848-8.701-22.5-8.701-4.039 0-7.912.718-11.5 2.033v-53.534c0-.502-.012-1.002-.034-1.499h191.534c17.093 0 31-13.906 31-31v-140.001c0-17.093-13.907-30.999-31-30.999zm-180 277c6.341 0 11.5 5.159 11.5 11.5 0 6.075 4.925 11 11 11s11-4.925 11-11c0-6.341 5.159-11.5 11.5-11.5s11.5 5.159 11.5 11.5c0 6.075 4.925 11 11 11s11-4.925 11-11c0-6.341 5.159-11.5 11.5-11.5s11.5 5.159 11.5 11.5v62.499c0 38.047-30.953 69-69 69h-20c-38.046 0-69-30.953-69-69v-147.5c0-6.341 5.159-11.499 11.5-11.499s11.5 5.158 11.5 11.499v85.001c0 6.075 4.925 11 11 11s11-4.925 11-11c0-6.341 5.159-11.5 11.5-11.5zm189-106c0 4.963-4.037 9-9 9h-201.148c-6.079-6.17-14.527-10-23.852-10s-17.773 3.83-23.852 10h-201.148c-4.962 0-9-4.037-9-9v-140.001c0-4.962 4.038-8.999 9-8.999h450c4.962 0 9 4.037 9 8.999z"/></g><g/><g/><g/><g/><g/><g/><g/><g/><g/><g/><g/><g/><g/><g/><g/></svg>