<svg id="Capa_1" enable-background="new 0 0 512.02 512.02" viewBox="0 0 512.02 512.02" xmlns="http://www.w3.org/2000/svg" fill="#052438"><g><path d="m512.019 209.728c0-115.645-94.083-209.728-209.727-209.728s-209.727 94.083-209.727 209.728c0 43.214 13.033 84.531 37.221 119.356l-116.416 106.612c-.119.109-.235.22-.349.334-17.36 17.361-17.36 45.609 0 62.969 8.68 8.68 20.083 13.02 31.484 13.02 11.402 0 22.805-4.34 31.485-13.02.114-.114.225-.23.334-.349l106.608-116.41c32.939 22.876 71.763 35.801 112.6 37.106 13.687 39.57 51.322 68.064 95.488 68.064 55.691 0 101-45.309 101-101 0-21.08-6.492-40.673-17.581-56.884 24.603-35.312 37.58-76.623 37.58-119.798zm-451.74 273.869c-8.795 8.628-22.971 8.577-31.702-.154s-8.783-22.906-.153-31.702l114.889-105.213c2.971 3.445 6.064 6.808 9.277 10.083 4.154 4.233 8.458 8.268 12.9 12.102zm54.286-273.869c0-103.514 84.214-187.728 187.727-187.728s187.727 84.214 187.727 187.728c0 36.753-10.505 71.996-30.476 102.546-5.636-5.214-11.866-9.794-18.576-13.628 17.076-26.559 26.053-57.09 26.053-88.919 0-90.831-73.897-164.727-164.728-164.727s-164.728 73.896-164.728 164.728c0 86.958 67.729 158.395 153.206 164.328-.496 4.05-.752 8.172-.752 12.354 0 3.606.19 7.168.561 10.678-97.781-6.135-176.014-88.526-176.014-187.36zm181.376 142.587c-75.765-3.334-136.376-66.015-136.376-142.587 0-78.7 64.027-142.728 142.728-142.728s142.727 64.027 142.727 142.728c0 28.789-8.476 56.354-24.564 80.056-9.317-2.844-19.201-4.374-29.436-4.374-43.733 0-81.063 27.939-95.079 66.905zm95.079 113.095c-43.562 0-79.001-35.439-79.001-79s35.439-79 79.001-79c43.561 0 79 35.439 79 79s-35.44 79-79 79z"/><g fill="#0496FF"><path d="m223.655 158.728c-17.093 0-31 13.907-31 31v60c0 6.075 4.925 11 11 11s11-4.925 11-11v-19.001h18v19.001c0 6.075 4.925 11 11 11s11-4.925 11-11v-60c0-17.094-13.907-31-31-31zm9 49.999h-18v-18.999c0-4.962 4.038-9 9-9 4.963 0 9 4.038 9 9z"/><path d="m304.565 158.728h-20c-6.075 0-11 4.925-11 11v80c0 6.075 4.925 11 11 11h20c17.093 0 30.999-13.907 30.999-31v-40c0-17.094-13.906-31-30.999-31zm8.999 71c0 4.962-4.037 9-8.999 9h-9v-58h9c4.962 0 8.999 4.037 8.999 9z"/><path d="m370.257 252.396c1.225 4.897 5.624 8.332 10.672 8.332s9.447-3.435 10.672-8.332l20.001-80c1.474-5.894-2.11-11.866-8.004-13.339-5.896-1.477-11.866 2.11-13.34 8.003l-9.329 37.316-9.329-37.316c-1.474-5.894-7.446-9.481-13.34-8.003-5.894 1.473-9.478 7.446-8.004 13.339z"/><path d="m421.019 375.41h-19v-19c0-6.075-4.925-11-11-11s-11 4.925-11 11v19h-19c-6.075 0-11 4.925-11 11s4.925 11 11 11h19v19c0 6.075 4.925 11 11 11s11-4.925 11-11v-19h19c6.075 0 11-4.925 11-11s-4.925-11-11-11z"/></g></g><g/><g/><g/><g/><g/><g/><g/><g/><g/><g/><g/><g/><g/><g/><g/></svg>