<svg id="Capa_1" enable-background="new 0 0 512 512" viewBox="0 0 512 512" xmlns="http://www.w3.org/2000/svg" fill="#E6ECF2"><g><path d="m484.5 225h-47c-6.075 0-11 4.925-11 11v8.472h-340.999v-8.472c0-6.075-4.925-11-11-11h-47.001c-6.075 0-11 4.925-11 11v235c0 6.075 4.925 11 11 11s11-4.925 11-11v-140.057h25.001v140.057c0 6.075 4.925 11 11 11s11-4.925 11-11v-159.529h340.999v159.529c0 6.075 4.925 11 11 11s11-4.925 11-11v-140.057h25v140.057c0 6.075 4.925 11 11 11s11-4.925 11-11v-235c0-6.076-4.925-11-11-11zm-446 83.943v-61.943h25.001v61.943zm47.001-19.472v-23h340.999v23zm362.999 19.472v-61.943h25v61.943z"/><g fill="#0496FF"><path d="m91 465h-80c-6.075 0-11 4.925-11 11s4.925 11 11 11h80c6.075 0 11-4.925 11-11s-4.925-11-11-11z"/><path d="m501 465h-80c-6.075 0-11 4.925-11 11s4.925 11 11 11h80c6.075 0 11-4.925 11-11s-4.925-11-11-11z"/><path d="m302.17 55.98-16.896-2.797-7.862-15.168s0 0 0-.001c-4.162-8.027-12.375-13.014-21.433-13.014-8.987 0-17.146 4.969-21.293 12.967l-7.888 15.216-16.897 2.798c-8.898 1.475-16.16 7.729-18.952 16.322-2.78 8.557-.588 17.848 5.723 24.247l12.04 12.211-2.571 17.009c-1.339 8.854 2.363 17.648 9.662 22.951 7.312 5.315 16.841 6.12 24.867 2.104l15.367-7.693 14.373 7.196c4.102 2.054 8.034 3.068 11.933 3.068 1.127 0 2.25-.085 3.374-.254 6.36-.954 11.967-4.33 15.786-9.505 3.816-5.171 5.39-11.516 4.429-17.867l-2.571-17.009 11.874-12.041c6.403-6.494 8.631-15.915 5.813-24.586-2.76-8.493-9.993-14.683-18.878-16.154zm-2.602 25.293-15.74 15.963c-2.434 2.469-3.562 5.94-3.043 9.368l3.395 22.455c.104.688-.147 1.202-.377 1.513-.231.313-.653.71-1.354.814-.022.007-.576.077-2.189-.73l-19.298-9.662c-1.55-.776-3.237-1.164-4.925-1.164s-3.375.388-4.925 1.164l-20.292 10.159c-.866.435-1.612.113-2.087-.229-.671-.488-.954-1.115-.841-1.864l3.396-22.455c.519-3.428-.609-6.899-3.044-9.368l-15.907-16.132c-.208-.211-.839-.851-.465-2.003.262-.804.809-1.28 1.624-1.415l22.33-3.698c3.421-.566 6.373-2.712 7.969-5.79l10.423-20.105c.155-.298.566-1.092 1.762-1.092.598 0 1.412.197 1.901 1.14l10.396 20.058c1.595 3.078 4.548 5.224 7.969 5.79l22.33 3.697c.598.099 1.249.324 1.549 1.248.131.399.338 1.432-.557 2.338z"/><path d="m159.916 133.985 5.018-13.351c3.001-7.984 1.32-16.88-4.385-23.217-5.595-6.215-14.142-8.759-22.296-6.632l-13.985 3.643-11.266-8.992c-6.612-5.278-15.53-6.417-23.273-2.97-7.686 3.422-12.771 10.775-13.271 19.192l-.858 14.438-12.065 7.957c-7.047 4.648-10.875 12.76-9.991 21.168.881 8.375 6.293 15.484 14.125 18.555l13.475 5.281 3.856 13.998c2.227 8.082 8.739 14.193 16.998 15.949 1.587.337 3.18.502 4.756.502 6.646 0 12.996-2.926 17.307-8.173l9.207-11.207 13.507.612c5.494.259 10.101-.87 14.104-3.426 5.074-3.237 8.582-8.258 9.877-14.136 1.295-5.874.224-11.897-3.015-16.961zm-10.647 24.458c-.029.133-.092.215-.147.266-.15.032-.548.09-1.349.055l-19.013-.862c-3.451-.161-6.798 1.327-8.998 4.006l-12.703 15.463c-.064.078-.156.188-.488.116-.306-.064-.335-.171-.363-.273l-5.319-19.308c-.92-3.342-3.362-6.055-6.59-7.319l-18.602-7.291c-.163-.064-.245-.097-.274-.372-.035-.332.097-.419.225-.503l16.662-10.989c2.894-1.908 4.718-5.069 4.924-8.529l1.186-19.936c.013-.214.018-.294.258-.401.112-.05.204-.068.281-.068.151 0 .245.074.32.134l15.57 12.429c2.71 2.162 6.278 2.923 9.635 2.048l19.314-5.03c.146-.038.229-.042.261-.042h.016c.014.007.476.306.267.86l-6.955 18.507c-1.22 3.245-.838 6.876 1.029 9.796l10.79 16.873c.03.048.107.168.063.37z"/><path d="m427.003 183.082 3.856-13.998 13.278-5.205c7.941-3.112 13.429-10.313 14.32-18.795.874-8.316-2.955-16.366-9.991-21.006l-12.064-7.955-.855-14.39c-.502-8.445-5.623-15.835-13.365-19.282-7.685-3.422-16.554-2.281-23.145 2.98l-11.304 9.022-13.986-3.642c-8.167-2.125-16.76.456-22.416 6.739-5.635 6.258-7.297 15.038-4.338 22.912l5.091 13.547-7.822 12.232c-4.517 7.062-4.7 15.993-.479 23.305 4.23 7.328 12.078 11.637 20.465 11.263l14.488-.657 8.584 10.45c3.487 4.244 7.407 6.923 11.98 8.186 1.995.553 4.022.825 6.038.825 3.844 0 7.642-.994 11.076-2.942 5.232-2.967 8.993-7.794 10.589-13.589zm-15.89-25.152-5.32 19.309c-.016.059-.054.195-.233.298-.12.068-.219.074-.296.068-.125-.092-.437-.35-.943-.967l-12.08-14.706c-2.201-2.679-5.531-4.17-8.999-4.006l-19.99.907c-.103 0-.244.012-.415-.286-.156-.271-.1-.359-.039-.453l10.789-16.872c1.867-2.92 2.249-6.551 1.029-9.795l-7.028-18.703c-.062-.164-.093-.246.093-.452.224-.249.377-.209.524-.169l19.315 5.029c3.356.873 6.924.113 9.634-2.049l15.608-12.458c.166-.134.229-.186.471-.077.333.148.345.346.354.49v.001l1.183 19.888c.206 3.46 2.031 6.621 4.925 8.53l16.663 10.987c.164.108.214.177.215.177.004.016.09.558-.462.774l-18.406 7.215c-3.229 1.265-5.672 3.978-6.592 7.32z"/></g></g><g/><g/><g/><g/><g/><g/><g/><g/><g/><g/><g/><g/><g/><g/><g/></svg>