<svg id="Layer_1" enable-background="new 0 0 512 512" viewBox="0 0 512 512" xmlns="http://www.w3.org/2000/svg" fill="#052438"><g><g fill="#0496FF"><path d="m505.211 209.111-32.568-13.495c-4.867-17.497-11.849-34.327-20.811-50.166l13.487-32.549c1.703-4.11.763-8.842-2.383-11.988l-51.887-51.9c-3.145-3.146-7.875-4.088-11.987-2.386l-32.596 13.497c-15.844-8.955-32.676-15.928-50.172-20.788l-13.47-32.534c-1.702-4.11-5.713-6.791-10.161-6.792l-73.389-.01h-.001c-4.449 0-8.459 2.68-10.162 6.789l-13.495 32.569c-17.494 4.866-34.324 11.848-50.166 20.81l-32.55-13.487c-4.109-1.703-8.842-.762-11.988 2.383l-51.901 51.886c-3.146 3.146-4.088 7.877-2.386 11.988l13.497 32.596c-8.955 15.844-15.928 32.675-20.788 50.171l-32.532 13.471c-4.11 1.702-6.791 5.712-6.792 10.162l-.01 73.388c0 4.449 2.679 8.46 6.789 10.164l32.569 13.495c4.866 17.494 11.848 34.324 20.81 50.166l-13.487 32.549c-1.703 4.11-.763 8.842 2.383 11.988l51.886 51.901c3.146 3.147 7.876 4.088 11.988 2.386l32.595-13.497c15.845 8.955 32.677 15.929 50.172 20.788l13.471 32.533c1.702 4.11 5.712 6.791 10.162 6.792l73.388.01h.002c4.448 0 8.459-2.68 10.162-6.789l13.494-32.568c17.496-4.867 34.325-11.849 50.166-20.811l32.55 13.487c4.109 1.702 8.841.764 11.988-2.383l51.9-51.886c3.146-3.146 4.088-7.877 2.386-11.988l-13.497-32.596c8.955-15.844 15.93-32.676 20.788-50.171l32.532-13.471c4.11-1.702 6.791-5.712 6.792-10.162l.011-73.389c.001-4.449-2.679-8.46-6.789-10.163zm-15.221 76.199-30.774 12.743c-3.217 1.332-5.613 4.108-6.461 7.485-4.805 19.146-12.396 37.468-22.563 54.458-1.786 2.986-2.055 6.642-.724 9.857l12.768 30.835-41.504 41.493-30.794-12.76c-3.219-1.333-6.876-1.063-9.863.726-16.986 10.174-35.306 17.774-54.451 22.588-3.374.848-6.147 3.243-7.479 6.458l-12.765 30.806-58.689-.008-12.743-30.775c-1.332-3.217-4.108-5.613-7.485-6.46-19.145-4.805-37.467-12.396-54.458-22.563-2.986-1.787-6.64-2.056-9.856-.724l-30.835 12.768-41.493-41.504 12.76-30.794c1.333-3.217 1.064-6.876-.726-9.863-10.175-16.987-17.774-35.307-22.587-54.451-.848-3.374-3.243-6.148-6.457-7.48l-30.807-12.765.008-58.688 30.775-12.743c3.217-1.332 5.613-4.108 6.46-7.485 4.806-19.146 12.396-37.469 22.563-54.458 1.787-2.986 2.056-6.641.724-9.856l-12.768-30.835 41.505-41.493 30.794 12.76c3.217 1.332 6.875 1.064 9.863-.726 16.987-10.175 35.307-17.774 54.451-22.587 3.374-.848 6.148-3.243 7.48-6.457l12.765-30.807 58.688.008 12.743 30.775c1.332 3.217 4.108 5.614 7.485 6.461 19.146 4.806 37.469 12.396 54.458 22.563 2.985 1.787 6.642 2.056 9.856.724l30.835-12.768 41.494 41.504-12.76 30.794c-1.333 3.217-1.064 6.876.726 9.864 10.174 16.983 17.773 35.303 22.588 54.451.849 3.374 3.243 6.148 6.457 7.479l30.807 12.765z"/><path d="m256 87.086c-93.14 0-168.914 75.774-168.914 168.914s75.774 168.914 168.914 168.914 168.914-75.774 168.914-168.914-75.774-168.914-168.914-168.914zm0 315.828c-81.009 0-146.914-65.905-146.914-146.914s65.905-146.914 146.914-146.914 146.914 65.905 146.914 146.914-65.905 146.914-146.914 146.914z"/></g><path d="m327.29 271.209c4.434-5.891 7.066-13.211 7.066-21.136 0-19.347-15.682-35.096-35.002-35.214-4.178-5.58-9.355-10.243-15.199-13.802 4.432-5.891 7.063-13.209 7.063-21.132 0-19.42-15.799-35.219-35.219-35.219s-35.219 15.799-35.219 35.219c0 7.919 2.629 15.235 7.057 21.124-5.843 3.559-11.014 8.225-15.191 13.809-19.321.117-35.004 15.866-35.004 35.214 0 7.925 2.633 15.245 7.067 21.136-15.57 9.518-25.985 26.677-25.985 46.224v8.714c0 6.075 4.925 11 11 11h172.551c6.075 0 11-4.925 11-11v-8.714c0-19.547-10.414-36.705-25.985-46.223zm-71.29 13.559c-4.098-5.399-9.181-10.012-14.985-13.559 4.434-5.891 7.067-13.212 7.067-21.136 0-10.964-5.038-20.772-12.918-27.236 5.724-4.877 13.065-7.689 20.836-7.689 7.758 0 15.105 2.814 20.834 7.691-7.879 6.464-12.915 16.271-12.915 27.234 0 7.925 2.632 15.245 7.066 21.136-5.803 3.548-10.886 8.16-14.985 13.559zm56.356-34.695c0 7.289-5.93 13.219-13.219 13.219s-13.219-5.93-13.219-13.219 5.93-13.219 13.219-13.219 13.219 5.93 13.219 13.219zm-56.356-83.367c7.289 0 13.219 5.93 13.219 13.219s-5.93 13.219-13.219 13.219-13.219-5.93-13.219-13.219 5.93-13.219 13.219-13.219zm-43.138 70.148c7.289 0 13.219 5.93 13.219 13.219s-5.93 13.219-13.219 13.219-13.219-5.93-13.219-13.219 5.93-13.219 13.219-13.219zm-32.057 78.292c1.177-16.658 15.105-29.852 32.057-29.852s30.88 13.194 32.057 29.852zm86.275 0c1.178-16.658 15.105-29.852 32.058-29.852s30.88 13.194 32.058 29.852z"/></g><g/><g/><g/><g/><g/><g/><g/><g/><g/><g/><g/><g/><g/><g/><g/></svg>