<svg id="Layer_1" enable-background="new 0 0 512 512" viewBox="0 0 512 512" xmlns="http://www.w3.org/2000/svg" fill="#052438"><g><path d="m323.313 48.906c-1.261-3.878-4.563-6.742-8.582-7.439l-33.247-5.767-15.757-29.837c-1.905-3.607-5.649-5.863-9.727-5.863s-7.822 2.256-9.727 5.863l-15.757 29.837-33.247 5.767c-4.019.697-7.321 3.561-8.582 7.439-1.26 3.879-.271 8.137 2.57 11.063l23.508 24.207-4.789 33.402c-.579 4.037 1.124 8.063 4.423 10.46 3.301 2.397 7.656 2.771 11.315.974l30.286-14.877 30.286 14.876c1.537.755 3.196 1.127 4.849 1.127 2.283 0 4.553-.71 6.467-2.101 3.299-2.397 5.002-6.423 4.423-10.46l-4.789-33.402 23.508-24.207c2.84-2.926 3.829-7.183 2.569-11.062zm-45.625 23.819c-2.374 2.444-3.48 5.851-2.997 9.224l2.6 18.133-16.441-8.076c-1.529-.751-3.189-1.127-4.85-1.127s-3.32.375-4.85 1.127l-16.441 8.076 2.6-18.133c.483-3.373-.623-6.78-2.997-9.224l-12.762-13.141 18.049-3.13c3.357-.583 6.256-2.688 7.847-5.701l8.554-16.198 8.555 16.198c1.591 3.013 4.489 5.119 7.847 5.701l18.049 3.13z" fill="#0496FF"/><g><path d="m500.995 245h-109.865c-6.075 0-11 4.925-11 11 0 68.445-55.685 124.13-124.13 124.13s-124.13-55.685-124.13-124.13c0-6.075-4.925-11-11-11h-109.865c-6.074 0-10.999 4.924-11 10.999l-.005 36.727c-.001 4.449 2.679 8.46 6.789 10.164l32.568 13.495c4.866 17.495 11.848 34.325 20.811 50.166l-13.487 32.549c-1.703 4.11-.763 8.842 2.383 11.988l51.886 51.9c3.146 3.147 7.879 4.088 11.987 2.386l32.597-13.497c15.845 8.955 32.676 15.929 50.171 20.788l13.472 32.533c1.702 4.11 5.713 6.791 10.161 6.792l73.389.01h.002c4.448 0 8.459-2.68 10.162-6.789l13.494-32.568c17.494-4.866 34.324-11.848 50.166-20.81l32.55 13.487c4.111 1.705 8.842.762 11.988-2.383l51.9-51.886c3.146-3.146 4.088-7.877 2.386-11.988l-13.497-32.596c8.955-15.844 15.93-32.676 20.788-50.171l32.533-13.471c4.111-1.702 6.791-5.712 6.792-10.162l.005-36.661c0-2.917-1.158-5.716-3.222-7.779-2.063-2.064-4.861-3.223-7.779-3.223zm-11.004 40.31-30.775 12.744c-3.217 1.332-5.613 4.108-6.461 7.485-4.805 19.146-12.396 37.468-22.563 54.458-1.786 2.986-2.055 6.642-.724 9.857l12.768 30.835-41.504 41.493-30.794-12.759c-3.219-1.333-6.876-1.064-9.863.726-16.987 10.175-35.308 17.774-54.45 22.587-3.375.848-6.148 3.243-7.48 6.458l-12.765 30.806-58.688-.008-12.744-30.775c-1.332-3.217-4.108-5.613-7.485-6.46-19.145-4.805-37.467-12.396-54.457-22.563-2.986-1.787-6.643-2.057-9.856-.724l-30.836 12.768-41.493-41.504 12.76-30.794c1.333-3.217 1.064-6.876-.726-9.864-10.175-16.985-17.774-35.305-22.588-54.45-.849-3.374-3.243-6.148-6.457-7.48l-30.807-12.765v-18.381h88.277c5.64 75.46 68.842 135.13 145.72 135.13s140.08-59.67 145.72-135.13h88.274z"/><path d="m189.979 326.431h132.041c6.075 0 11-4.925 11-11v-18.542c0-30.286-17.578-56.533-43.061-69.107 8.711-8.705 14.107-20.726 14.107-33.984 0-26.503-21.563-48.066-48.066-48.066s-48.066 21.563-48.066 48.066c0 13.258 5.396 25.28 14.107 33.984-25.483 12.574-43.061 38.821-43.061 69.107v18.542c-.001 6.075 4.924 11 10.999 11zm66.021-158.7c14.373 0 26.066 11.693 26.066 26.066s-11.693 26.066-26.066 26.066-26.066-11.693-26.066-26.066 11.693-26.066 26.066-26.066zm-55.021 129.157c0-30.338 24.682-55.02 55.021-55.02s55.021 24.682 55.021 55.02v7.542h-110.042z"/><path d="m11 223h132.04c6.075 0 11-4.925 11-11v-18.542c0-30.286-17.577-56.533-43.06-69.107 8.711-8.705 14.107-20.726 14.107-33.984 0-26.503-21.563-48.066-48.066-48.066s-48.067 21.562-48.067 48.065c0 13.258 5.396 25.28 14.107 33.984-25.483 12.574-43.061 38.822-43.061 69.108v18.542c0 6.075 4.925 11 11 11zm66.021-158.7c14.373 0 26.066 11.693 26.066 26.066s-11.693 26.066-26.066 26.066-26.066-11.693-26.066-26.066c-.001-14.372 11.692-26.066 26.066-26.066zm-55.021 129.158c0-30.338 24.682-55.02 55.021-55.02 30.338 0 55.02 24.682 55.02 55.02v7.542h-110.041z"/><path d="m468.939 124.35c8.711-8.705 14.107-20.726 14.107-33.984 0-26.503-21.563-48.066-48.066-48.066s-48.066 21.563-48.066 48.066c0 13.258 5.396 25.28 14.107 33.984-25.483 12.574-43.06 38.821-43.06 69.107v18.543c0 6.075 4.925 11 11 11h132.039c6.075 0 11-4.925 11-11v-18.542c0-30.286-17.578-56.534-43.061-69.108zm-33.96-60.05c14.373 0 26.066 11.693 26.066 26.066s-11.693 26.066-26.066 26.066-26.066-11.693-26.066-26.066c0-14.372 11.693-26.066 26.066-26.066zm55.021 136.7h-110.04v-7.542c0-30.338 24.682-55.02 55.02-55.02 30.339 0 55.021 24.682 55.021 55.02v7.542z"/></g></g><g/><g/><g/><g/><g/><g/><g/><g/><g/><g/><g/><g/><g/><g/><g/></svg>