<svg id="Layer_1" enable-background="new 0 0 512 512" viewBox="0 0 512 512" xmlns="http://www.w3.org/2000/svg" fill="#E6ECF2"><g><path d="m486.015 356.063c4.434-5.891 7.067-13.211 7.067-21.136 0-8.245-2.855-15.831-7.619-21.838 1.537-10.836 2.317-21.868 2.317-32.868 0-61.911-24.109-120.115-67.887-163.893-36.218-36.218-82.315-58.957-132.212-65.736 2.265-4.648 3.539-9.864 3.539-15.373-.001-19.42-15.8-35.219-35.22-35.219s-35.219 15.799-35.219 35.219c0 5.509 1.274 10.725 3.539 15.373-49.897 6.779-95.994 29.518-132.212 65.736-43.778 43.777-67.887 101.982-67.887 163.893 0 10.999.783 22.028 2.32 32.863-4.766 6.008-7.622 13.596-7.622 21.843 0 7.925 2.633 15.245 7.067 21.136-15.571 9.518-25.986 26.677-25.986 46.224v8.713c0 6.075 4.925 11 11 11h61.646c20.652 26.65 47.184 48.797 77.059 64.241 32.599 16.852 69.355 25.759 106.295 25.759 36.913 0 73.645-8.895 106.226-25.723 29.902-15.445 56.459-37.606 77.127-64.277h61.647c6.075 0 11-4.925 11-11v-8.713c0-19.547-10.415-36.706-25.985-46.224zm-14.933-21.136c0 7.289-5.93 13.219-13.219 13.219s-13.219-5.93-13.219-13.219 5.93-13.219 13.219-13.219 13.219 5.93 13.219 13.219zm-183.025-234.635h-64.114c1.177-16.657 15.105-29.851 32.057-29.851s30.88 13.194 32.057 29.851zm-32.057-78.292c7.289 0 13.219 5.93 13.219 13.219s-5.93 13.219-13.219 13.219-13.219-5.93-13.219-13.219 5.93-13.219 13.219-13.219zm-201.862 326.146c-7.289 0-13.219-5.93-13.219-13.219s5.93-13.219 13.219-13.219 13.219 5.93 13.219 13.219-5.93 13.219-13.219 13.219zm0 22.003c16.952 0 30.88 13.194 32.057 29.851h-64.114c1.176-16.657 15.105-29.851 32.057-29.851zm297.991 96.581c-29.894 15.441-62.236 23.27-96.129 23.27-33.917 0-66.281-7.84-96.192-23.302-22.082-11.415-42.139-26.886-58.941-45.31 4.309-1.49 7.408-5.573 7.408-10.388v-8.713c0-19.547-10.415-36.706-25.985-46.224 4.434-5.891 7.067-13.211 7.067-21.136 0-19.42-15.799-35.219-35.219-35.219-2.378 0-4.7.24-6.947.691-.638-6.696-.97-13.442-.97-20.178 0-99.522 69.663-183.075 162.786-204.469-4.536 7.915-7.144 17.069-7.144 26.827v8.713c0 6.075 4.925 11 11 11h86.275c6.075 0 11-4.925 11-11v-8.713c0-9.758-2.608-18.913-7.144-26.827 93.123 21.394 162.786 104.947 162.786 204.469 0 6.736-.331 13.482-.969 20.178-2.247-.452-4.57-.692-6.948-.692-19.42 0-35.219 15.799-35.219 35.219 0 7.925 2.633 15.245 7.067 21.136-15.57 9.518-25.985 26.677-25.985 46.224v8.714c0 4.816 3.099 8.898 7.408 10.388-16.819 18.441-36.899 33.924-59.005 45.342zm73.676-66.73c1.177-16.657 15.105-29.851 32.057-29.851s30.88 13.194 32.057 29.851z"/><g fill="#0496FF"><path d="m256 165.45c-63.285 0-114.771 51.486-114.771 114.771s51.486 114.771 114.771 114.771 114.771-51.486 114.771-114.771-51.486-114.771-114.771-114.771zm0 207.542c-51.154 0-92.771-41.617-92.771-92.771s41.617-92.771 92.771-92.771 92.771 41.617 92.771 92.771-41.617 92.771-92.771 92.771z"/><path d="m289.585 245.961-45.184 45.185-21.987-21.987c-4.297-4.296-11.261-4.296-15.557 0-4.295 4.296-4.295 11.261 0 15.557l29.765 29.766c2.063 2.063 4.861 3.222 7.778 3.222s5.715-1.159 7.778-3.222l52.962-52.963c4.295-4.296 4.295-11.261 0-15.557-4.294-4.297-11.259-4.297-15.555-.001z"/></g></g><g/><g/><g/><g/><g/><g/><g/><g/><g/><g/><g/><g/><g/><g/><g/></svg>