<svg id="Layer_1" enable-background="new 0 0 512 512" viewBox="0 0 512 512" xmlns="http://www.w3.org/2000/svg" fill="#E6ECF2"><g><path d="m451.551 341.158-7.981-67.865c-.289-2.457-1.397-4.745-3.146-6.494l-12.282-12.282 22.769-83.036 21.713-21.712-15.557-15.557-23.772 23.772c-1.35 1.35-2.325 3.028-2.83 4.87l-20.226 73.76-138.684-138.682 8.099-8.099 67.863-7.983c2.457-.289 4.744-1.397 6.493-3.146l23.772-23.772-15.557-15.557-21.072 21.072-67.863 7.983c-2.457.289-4.744 1.397-6.493 3.146l-12.283 12.283-83.033-22.768-21.711-21.713-15.557 15.557 23.772 23.772c1.35 1.35 3.028 2.325 4.87 2.83l84.311 23.119 32.709 32.709c-3.418 1.597-6.62 3.802-9.438 6.62s-5.024 6.018-6.621 9.435l-13.747-13.747c-6.3-6.3-14.676-9.769-23.585-9.769-8.91 0-17.286 3.469-23.584 9.769-3.214 3.214-5.692 6.969-7.348 11.059-12.511-6.313-28.201-4.253-38.637 6.183-6.3 6.299-9.77 14.675-9.77 23.585 0 5.318 1.236 10.447 3.573 15.057-4.085 1.656-7.835 4.131-11.046 7.342-13.004 13.005-13.004 34.165 0 47.17l49.676 49.676c-3.418 1.597-6.62 3.804-9.438 6.623-2.818 2.818-5.023 6.019-6.619 9.437l-83.458-83.458-7.983-67.863c-.289-2.457-1.397-4.744-3.146-6.493l-23.774-23.773-15.557 15.557 21.072 21.072 7.983 67.863c.289 2.457 1.397 4.744 3.146 6.493l12.281 12.281-22.768 83.033-21.713 21.712 15.557 15.557 23.772-23.772c1.35-1.35 2.325-3.028 2.83-4.87l20.225-73.756 138.682 138.682-8.097 8.097-67.865 7.981c-2.457.289-4.744 1.397-6.494 3.146l-23.773 23.772 15.557 15.557 21.072-21.072 67.865-7.981c2.457-.289 4.745-1.397 6.494-3.146l12.28-12.28 83.036 22.769 21.712 21.713 15.557-15.557-23.772-23.772c-1.35-1.35-3.028-2.325-4.869-2.83l-84.311-23.119-69.366-69.366-.005-.005c-4.422-4.428-4.421-11.627.005-16.052 4.427-4.427 11.629-4.428 16.057 0l49.829 49.825c4.296 4.296 11.26 4.295 15.556 0 4.295-4.295 4.295-11.26 0-15.556l-121.679-121.682c-4.427-4.427-4.427-11.63 0-16.057 2.145-2.145 4.996-3.325 8.028-3.325s5.884 1.181 8.028 3.326l86.273 86.273c4.296 4.296 11.261 4.296 15.557 0 2.148-2.148 3.222-4.963 3.222-7.778s-1.074-5.63-3.222-7.778l-100.644-100.645c-2.145-2.145-3.326-4.996-3.326-8.028s1.181-5.884 3.326-8.028c4.427-4.427 11.63-4.427 16.057 0l100.645 100.645c4.296 4.296 11.261 4.296 15.557 0 2.148-2.148 3.222-4.963 3.222-7.778s-1.074-5.63-3.222-7.778l-86.273-86.273c-2.145-2.145-3.326-4.996-3.326-8.028s1.181-5.884 3.326-8.029 4.996-3.325 8.028-3.325 5.884 1.181 8.028 3.326l86.273 86.273c4.296 4.296 11.261 4.296 15.557 0 2.148-2.148 3.222-4.963 3.222-7.778s-1.074-5.63-3.222-7.778l-50.349-50.349c-4.427-4.427-4.427-11.63 0-16.057 4.427-4.428 11.63-4.427 16.057 0l120.116 120.115 7.981 67.865c.289 2.457 1.397 4.744 3.146 6.494l23.772 23.773 15.557-15.557z"/><g fill="#0496FF"><path d="m477.666 357.188c-4.296-4.296-11.261-4.296-15.557 0l-104.921 104.921c-4.295 4.296-4.295 11.261 0 15.557l31.113 31.113c2.148 2.148 4.963 3.222 7.778 3.222s5.63-1.074 7.778-3.222l104.921-104.921c4.295-4.296 4.295-11.261 0-15.557zm-81.587 128.256-15.557-15.557 89.365-89.365 15.557 15.557z"/><path d="m123.7 3.222c-4.296-4.296-11.261-4.296-15.557 0l-104.921 104.921c-4.295 4.296-4.295 11.261 0 15.557l31.113 31.113c2.148 2.148 4.963 3.222 7.778 3.222s5.63-1.074 7.778-3.222l104.922-104.922c4.295-4.296 4.295-11.261 0-15.557zm-81.587 128.256-15.557-15.557 89.365-89.365 15.557 15.557z"/><path d="m49.891 357.188c-4.296-4.296-11.261-4.296-15.557 0l-31.112 31.113c-4.295 4.296-4.295 11.261 0 15.557l104.921 104.921c2.148 2.148 4.963 3.222 7.778 3.222s5.63-1.074 7.778-3.222l31.113-31.113c4.295-4.296 4.295-11.261 0-15.557zm66.031 128.256-89.365-89.365 15.557-15.557 89.365 89.365z"/><path d="m462.109 154.813c2.148 2.148 4.963 3.222 7.778 3.222s5.63-1.074 7.778-3.222l31.113-31.113c4.295-4.296 4.295-11.261 0-15.557l-104.921-104.921c-4.296-4.296-11.261-4.296-15.557 0l-31.113 31.113c-4.295 4.296-4.295 11.261 0 15.557zm-66.03-128.257 89.365 89.365-15.557 15.557-89.365-89.365z"/></g></g><g/><g/><g/><g/><g/><g/><g/><g/><g/><g/><g/><g/><g/><g/><g/></svg>