<svg id="Capa_1" enable-background="new 0 0 512 512" viewBox="0 0 512 512" xmlns="http://www.w3.org/2000/svg" fill="#E6ECF2"><g><g fill="#0496FF"><path d="m183.862 377c5.239-6.612 8.379-14.959 8.379-24.031 0-21.38-17.394-38.773-38.773-38.773s-38.772 17.394-38.772 38.773c0 9.071 3.14 17.418 8.378 24.03-14.118 7.129-25.56 19.174-31.867 34.511l20.348 8.366c7.018-17.067 23.47-28.096 41.913-28.096s34.896 11.028 41.913 28.096l20.348-8.366c-6.307-15.337-17.748-27.381-31.867-34.51zm-30.394-7.258c-9.248 0-16.772-7.524-16.772-16.773s7.524-16.773 16.772-16.773c9.249 0 16.773 7.524 16.773 16.773s-7.524 16.773-16.773 16.773z"/><path d="m320.679 131.31h124.321c6.075 0 11-4.925 11-11s-4.925-11-11-11h-124.321c-6.075 0-11 4.925-11 11s4.925 11 11 11z"/><path d="m445 205.31h-124.321c-6.075 0-11 4.925-11 11s4.925 11 11 11h124.321c6.075 0 11-4.925 11-11s-4.925-11-11-11z"/><path d="m445 157.31h-124.321c-6.075 0-11 4.925-11 11s4.925 11 11 11h124.321c6.075 0 11-4.925 11-11s-4.925-11-11-11z"/><circle cx="276.68" cy="120.31" r="11"/><circle cx="276.68" cy="168.311" r="11"/><circle cx="276.68" cy="216.313" r="11"/></g><g><path d="m508.778 68.496-65.274-65.274c-2.064-2.063-4.861-3.222-7.778-3.222h-218.288c-6.075 0-11 4.925-11 11v225.825c-4.568-1.993-9.245-3.731-14.018-5.197l-2.753-17.293c-.851-5.34-5.456-9.271-10.863-9.271-.001 0-.003 0-.005 0l-50.78.021c-5.408.002-10.014 3.937-10.859 9.279l-2.731 17.241c-8.025 2.459-15.789 5.674-23.204 9.61l-14.121-10.241c-4.378-3.176-10.415-2.698-14.239 1.129l-35.895 35.919c-3.823 3.826-4.298 9.864-1.118 14.241l10.231 14.083c-3.946 7.43-7.168 15.209-9.63 23.251l-17.182 2.735c-5.342.851-9.272 5.458-9.271 10.868l.021 50.78c.002 5.409 3.937 10.013 9.278 10.859l17.182 2.723c2.469 8.041 5.696 15.818 9.646 23.245l-10.219 14.089c-3.176 4.378-2.697 10.416 1.129 14.239l35.919 35.895c3.826 3.824 9.865 4.297 14.24 1.119l14.116-10.255c7.419 3.931 15.184 7.14 23.21 9.593l2.745 17.242c.851 5.341 5.456 9.271 10.863 9.271h.005l50.78-.021c5.408-.002 10.014-3.937 10.859-9.279l2.74-17.294c7.998-2.462 15.735-5.677 23.127-9.607l14.188 10.292c4.379 3.175 10.415 2.697 14.24-1.129l35.895-35.919c3.823-3.826 4.298-9.864 1.118-14.241l-10.326-14.214c3.91-7.382 7.105-15.108 9.553-23.093l15.669-2.495h205.022c6.075 0 11-4.925 11-11v-307.726c0-2.917-1.159-5.715-3.222-7.778zm-62.052-30.939 27.718 27.718h-27.718zm-176.859 339.323c-4.367.695-7.894 3.938-8.951 8.232-2.651 10.766-6.901 21.04-12.632 30.537-2.283 3.786-2.079 8.571.52 12.148l8.963 12.337-22.618 22.634-12.317-8.935c-3.581-2.598-8.373-2.797-12.157-.504-9.502 5.755-19.784 10.027-30.561 12.696-4.291 1.063-7.528 4.59-8.22 8.956l-2.377 15.001-31.998.013-2.382-14.959c-.696-4.371-3.943-7.899-8.241-8.954-10.803-2.651-21.112-6.911-30.642-12.662-1.753-1.058-3.72-1.583-5.683-1.583-2.276 0-4.545.705-6.466 2.101l-12.24 8.892-22.634-22.619 8.862-12.219c2.599-3.583 2.797-8.374.504-12.159-5.775-9.531-10.058-19.848-12.727-30.665-1.06-4.294-4.589-7.537-8.958-8.229l-14.896-2.36-.014-31.998 14.895-2.371c4.368-.696 7.896-3.94 8.952-8.235 2.661-10.817 6.936-21.138 12.704-30.674 2.291-3.787 2.089-8.578-.513-12.159l-8.873-12.213 22.619-22.634 12.244 8.88c3.578 2.597 8.364 2.798 12.149.509 9.523-5.758 19.829-10.026 30.633-12.686 4.297-1.058 7.542-4.589 8.234-8.96l2.37-14.958 31.998-.013 2.388 15c.695 4.365 3.936 7.89 8.227 8.95 10.78 2.662 21.065 6.926 30.569 12.673 3.786 2.29 8.576 2.087 12.157-.513l12.312-8.944 22.634 22.619-8.952 12.343c-2.596 3.579-2.797 8.364-.51 12.148 5.737 9.494 9.995 19.765 12.654 30.528 1.061 4.293 4.59 7.534 8.957 8.226l15.065 2.387.013 31.998zm37.064-3.88-.016-39.916c-.002-5.409-3.937-10.014-9.278-10.86l-17.354-2.75c-2.452-7.983-5.654-15.707-9.57-23.086l10.314-14.22c3.176-4.378 2.697-10.416-1.129-14.239l-35.919-35.895c-3.826-3.824-9.865-4.298-14.24-1.119l-1.301.945v-209.86h196.288v54.274c0 6.075 4.925 11 11 11h54.274v285.726z"/><path d="m153.468 270.196c-48.709 0-88.336 39.627-88.336 88.336s39.627 88.336 88.336 88.336 88.336-39.627 88.336-88.336-39.627-88.336-88.336-88.336zm0 154.672c-36.578 0-66.336-29.758-66.336-66.336s29.758-66.336 66.336-66.336 66.336 29.758 66.336 66.336-29.758 66.336-66.336 66.336z"/></g></g><g/><g/><g/><g/><g/><g/><g/><g/><g/><g/><g/><g/><g/><g/><g/></svg>