<svg id="Capa_1" enable-background="new 0 0 512 512" viewBox="0 0 512 512" xmlns="http://www.w3.org/2000/svg" fill="#E6ECF2"><g><g fill="#0496FF"><path d="m275.769 140.398 11.178 11.178c2.148 2.148 4.963 3.222 7.778 3.222s5.63-1.074 7.778-3.222l23.572-23.572c4.296-4.296 4.296-11.261 0-15.557-4.297-4.296-11.26-4.296-15.557 0l-15.794 15.794-3.399-3.4c-4.297-4.296-11.26-4.296-15.557 0-4.295 4.296-4.295 11.261.001 15.557z"/><path d="m371.089 143.011h75.919c6.075 0 11-4.925 11-11s-4.925-11-11-11h-75.919c-6.075 0-11 4.925-11 11s4.925 11 11 11z"/><path d="m326.075 173.514c-4.297-4.296-11.26-4.296-15.557 0l-15.794 15.794-3.399-3.399c-4.297-4.296-11.262-4.295-15.557 0-4.296 4.296-4.296 11.261 0 15.556l11.178 11.177c2.148 2.148 4.963 3.222 7.778 3.222s5.63-1.074 7.778-3.222l23.572-23.572c4.297-4.295 4.297-11.26.001-15.556z"/><path d="m371.089 204.079h75.919c6.075 0 11-4.925 11-11s-4.925-11-11-11h-75.919c-6.075 0-11 4.925-11 11s4.925 11 11 11z"/><path d="m286.946 90.508c2.063 2.063 4.861 3.222 7.778 3.222s5.716-1.159 7.778-3.222l23.572-23.573c4.296-4.296 4.296-11.261 0-15.557-4.297-4.296-11.262-4.295-15.557 0l-15.794 15.794-3.399-3.399c-4.297-4.296-11.26-4.296-15.557 0-4.296 4.296-4.296 11.261 0 15.557z"/><path d="m371.089 81.944h75.919c6.075 0 11-4.925 11-11s-4.925-11-11-11h-75.919c-6.075 0-11 4.925-11 11s4.925 11 11 11z"/><path d="m465.353 0h-221.98c-22.479 0-40.766 18.288-40.766 40.766v58.64l22 10.001v-68.641c0-10.348 8.418-18.766 18.766-18.766h221.979c10.348 0 18.766 8.418 18.766 18.766v204.32c0 10.348-8.418 18.766-18.766 18.766h-136.581v22h136.581c22.479 0 40.766-18.288 40.766-40.766v-204.32c0-22.478-18.287-40.766-40.765-40.766z"/></g><g><path d="m127.814 194.149h29.962c6.075 0 11-4.925 11-11s-4.925-11-11-11h-18.962v-48.923c0-6.075-4.925-11-11-11s-11 4.925-11 11v59.923c0 6.076 4.925 11 11 11z"/><path d="m344.147 322.125h-8.854c-.525 0-.987-.335-1.15-.834-1.977-6.06-4.443-12.015-7.331-17.699-.243-.479-.157-1.05.215-1.422l6.261-6.261c4.386-4.386 6.801-10.217 6.801-16.419 0-6.203-2.415-12.034-6.801-16.419l-20.836-20.835c-4.385-4.386-10.216-6.801-16.419-6.801-6.202 0-12.032 2.415-16.419 6.801l-6.261 6.261c-.371.372-.943.458-1.423.214-5.684-2.887-11.638-5.353-17.698-7.332-.5-.163-.835-.625-.835-1.15v-8.853c0-7.35-3.436-13.908-8.782-18.166 3.397-11.33 5.131-23.089 5.131-35.048 0-67.233-54.698-121.932-121.933-121.932s-121.931 54.698-121.931 121.932c0 27.86 9.148 54.088 26.457 75.849 16.648 20.93 39.996 35.972 65.795 42.431l5.728 5.728c.372.372.458.943.215 1.421-2.888 5.685-5.354 11.64-7.331 17.699-.163.5-.625.835-1.15.835h-8.854c-12.804 0-23.22 10.417-23.22 23.22v29.466c0 12.803 10.416 23.22 23.22 23.22h8.854c.525 0 .987.335 1.15.834 1.977 6.058 4.443 12.013 7.331 17.699.243.479.157 1.05-.215 1.422l-6.26 6.26c-4.387 4.386-6.802 10.217-6.802 16.42 0 6.202 2.415 12.034 6.801 16.419l20.835 20.834c4.386 4.386 10.217 6.802 16.42 6.802 6.202 0 12.033-2.416 16.419-6.801l6.261-6.261c.371-.372.943-.458 1.423-.214 5.684 2.887 11.638 5.354 17.698 7.332.499.163.834.625.834 1.15v8.853c0 12.803 10.417 23.22 23.221 23.22h29.466c12.804 0 23.22-10.417 23.22-23.22v-8.853c0-.525.336-.988.836-1.151 6.062-1.979 12.016-4.445 17.697-7.331.482-.243 1.052-.157 1.423.214l6.261 6.261c4.386 4.386 10.217 6.801 16.419 6.801 6.203 0 12.034-2.416 16.419-6.801l20.835-20.835c4.387-4.386 6.802-10.217 6.802-16.419 0-6.203-2.415-12.034-6.801-16.419l-6.261-6.262c-.372-.372-.458-.943-.215-1.421 2.888-5.687 5.354-11.642 7.331-17.699.163-.5.625-.835 1.15-.835h8.854c12.804 0 23.22-10.417 23.22-23.22v-29.466c-.001-12.803-10.417-23.219-23.221-23.219zm-316.265-143.963c0-55.103 44.829-99.932 99.933-99.932s99.933 44.83 99.933 99.932c0 10.257-1.548 20.327-4.587 29.994h-22.448c-12.804 0-23.221 10.417-23.221 23.22v8.853c0 .525-.336.987-.835 1.15-6.062 1.979-12.017 4.445-17.697 7.331-.481.244-1.052.157-1.423-.214l-6.262-6.262c-4.386-4.386-10.216-6.801-16.418-6.801-6.203 0-12.034 2.416-16.419 6.801l-20.835 20.836c-2.445 2.445-4.252 5.348-5.395 8.505-38.419-14.554-64.326-51.378-64.326-93.413zm317.485 196.649c0 .672-.547 1.22-1.22 1.22h-8.854c-10.072 0-18.939 6.434-22.064 16.01-1.627 4.983-3.656 9.883-6.032 14.562-4.566 8.991-2.849 19.817 4.273 26.939l6.262 6.262c.236.237.356.527.356.863 0 .335-.12.625-.357.862l-20.837 20.836c-.473.474-1.249.474-1.724-.001l-6.261-6.261c-7.123-7.122-17.949-8.84-26.94-4.273-4.676 2.375-9.575 4.404-14.562 6.032-9.576 3.125-16.01 11.992-16.01 22.065v8.853c0 .672-.547 1.22-1.22 1.22h-29.466c-.673 0-1.221-.547-1.221-1.22v-8.853c0-10.073-6.434-18.94-16.009-22.064-4.985-1.627-9.885-3.657-14.562-6.032-3.354-1.704-6.964-2.533-10.542-2.533-6.012 0-11.934 2.341-16.398 6.806l-6.261 6.261c-.475.475-1.25.476-1.725 0l-20.837-20.835c-.236-.237-.356-.527-.356-.862s.12-.625.357-.863l6.261-6.261c7.122-7.123 8.84-17.949 4.273-26.94-2.376-4.678-4.405-9.578-6.032-14.562-3.125-9.576-11.992-16.009-22.064-16.009h-8.854c-.673 0-1.22-.547-1.22-1.22v-29.466c0-.673.547-1.22 1.22-1.22h8.854c10.072 0 18.939-6.434 22.064-16.01 1.627-4.985 3.656-9.884 6.032-14.562 4.566-8.991 2.849-19.818-4.273-26.94l-6.261-6.261c-.237-.237-.357-.527-.357-.863 0-.335.12-.625.357-.862l20.836-20.836c.475-.474 1.252-.473 1.725 0l6.261 6.262c7.123 7.122 17.949 8.839 26.941 4.272 4.675-2.374 9.574-4.404 14.562-6.032 9.575-3.125 16.009-11.992 16.009-22.064v-8.853c0-.673.548-1.22 1.221-1.22h29.466c.673 0 1.22.547 1.22 1.22v8.853c0 10.073 6.435 18.941 16.01 22.064 4.985 1.627 9.885 3.657 14.562 6.032 8.993 4.567 19.819 2.85 26.941-4.273l6.26-6.26c.475-.475 1.251-.475 1.726 0l20.837 20.836c.236.237.356.527.356.862s-.12.625-.357.863l-6.261 6.261c-7.122 7.123-8.84 17.949-4.273 26.941 2.376 4.677 4.405 9.576 6.032 14.562 3.125 9.575 11.992 16.009 22.064 16.009h8.854c.673 0 1.22.547 1.22 1.22v29.463z"/><path d="m215.444 298.623c-33.886 0-61.454 27.568-61.454 61.455s27.568 61.455 61.454 61.455c33.887 0 61.455-27.569 61.455-61.455s-27.568-61.455-61.455-61.455zm0 100.91c-21.755 0-39.454-17.699-39.454-39.455 0-21.755 17.699-39.455 39.454-39.455 21.756 0 39.455 17.699 39.455 39.455 0 21.755-17.699 39.455-39.455 39.455z"/></g></g><g/><g/><g/><g/><g/><g/><g/><g/><g/><g/><g/><g/><g/><g/><g/></svg>