<svg id="Capa_1" enable-background="new 0 0 512 512" viewBox="0 0 512 512" xmlns="http://www.w3.org/2000/svg" fill="#052438"><g><path d="m372.727 362.463-25.909-2.634-33.116-15.745v-15.069c21.03-14.728 34.819-39.119 34.819-66.684v-17.13c16.028-15.611 25.129-36.987 25.129-59.433 0-45.922-37.359-83.281-83.28-83.281-19.901 0-38.658 7.09-53.343 19.329-2.519-.277-5.059-.433-7.598-.433-37.954 0-68.832 30.878-68.832 68.833 0 20.586 9.319 40.034 25.167 53.055v19.061c0 27.441 13.666 51.734 34.535 66.482v15.271l-33.116 15.745-25.909 2.634c-39.618 4.027-69.494 37.094-69.494 76.916v61.62c0 6.075 4.925 11 11 11h328.441c6.075 0 11-4.925 11-11v-61.621c0-39.822-29.876-72.889-69.494-76.916zm-66.527 2.415 22.038 10.478-25.255 39.427-20.918-16.93zm-88.367-220.04c-1.386 2.456-2.665 4.992-3.811 7.614-2.432 5.567.109 12.052 5.676 14.484 5.57 2.432 12.053-.11 14.484-5.676 9.76-22.34 31.814-36.774 56.187-36.774 33.79 0 61.28 27.49 61.28 61.281 0 9.98-2.453 19.677-7.003 28.322-3.098-6.123-7.948-11.34-14.198-15-11.567-6.773-25.422-6.916-37.062-.383-.001 0-.001 0-.001 0-16.564 9.298-37.03 9.54-53.417.637-11.479-6.237-25.039-5.977-36.271.702-6.119 3.64-10.882 8.803-13.961 14.858-4.591-7.323-7.14-15.85-7.14-24.688.001-21.822 15.004-40.204 35.237-45.377zm-10.069 117.493v-30.752c0-5.31 2.617-9.911 7.18-12.624 2.365-1.407 4.926-2.111 7.494-2.111 2.387 0 4.78.609 7.027 1.83 22.97 12.481 51.59 12.181 74.688-.781 4.754-2.667 10.43-2.599 15.18.183 2.161 1.266 7.188 5.002 7.188 12.351v31.905c0 32.741-26.638 59.378-59.379 59.378s-59.378-26.638-59.378-59.379zm59.378 81.378c8.557 0 16.806-1.336 24.56-3.796v7.526l-24.702 33.749-24.701-33.749v-7.622c7.836 2.518 16.18 3.892 24.843 3.892zm-39.342 21.169 24.135 32.975-20.918 16.93-25.255-39.427zm192.421 125.122h-306.442v-50.621c0-28.49 21.374-52.147 49.719-55.029l20.559-2.09 35.064 54.739c1.688 2.635 4.418 4.426 7.507 4.926.585.094 1.172.141 1.756.141 2.501 0 4.948-.854 6.92-2.449l31.696-25.654 31.696 25.652c1.972 1.596 4.418 2.449 6.92 2.449.584 0 1.172-.047 1.756-.141 3.089-.5 5.819-2.291 7.507-4.926l35.064-54.739 20.559 2.09c28.345 2.882 49.719 26.539 49.719 55.029z"/><g><g fill="#0496FF"><path d="m481.439 153.057-39.183-10.498c-5.871-1.573-11.899 1.91-13.472 7.778l-16.77 62.586c-1.572 5.868 1.91 11.899 7.778 13.472l11.747 3.148-6.632 24.751-11.748-3.147c-5.871-1.573-11.899 1.911-13.472 7.778l-16.77 62.586c-1.572 5.868 1.91 11.899 7.778 13.472l39.181 10.499c3.561.954 7.139 1.41 10.661 1.409 18.198 0 34.896-12.162 39.826-30.558l30.222-112.79c5.886-21.955-7.19-44.604-29.146-50.486zm7.899 44.793-30.222 112.789c-2.744 10.239-13.305 16.331-23.543 13.593l-28.557-7.652 11.076-41.336 11.748 3.147c5.872 1.574 11.9-1.909 13.472-7.778l12.326-46.001c1.572-5.868-1.91-11.899-7.778-13.472l-11.748-3.148 11.076-41.336 28.557 7.651c10.238 2.743 16.335 13.304 13.593 23.543z"/><path d="m152.284 0h-141.284c-6.075 0-11 4.925-11 11v100.424c0 6.075 4.925 11 11 11h141.284c6.075 0 11-4.925 11-11v-100.424c0-6.075-4.925-11-11-11zm-20.995 22-49.646 26.72-49.647-26.72zm-109.289 78.424v-58.82l54.43 29.294c1.627.876 3.42 1.313 5.213 1.313s3.586-.438 5.213-1.313l54.429-29.294v58.819h-119.285z"/><path d="m89.267 260.45-19.398 19.397-6.613-6.613c-4.297-4.295-11.26-4.295-15.557 0-4.296 4.296-4.296 11.261 0 15.557l14.392 14.392c2.148 2.148 4.963 3.222 7.778 3.222 2.814 0 5.631-1.074 7.778-3.222l27.177-27.176c4.296-4.296 4.296-11.261 0-15.557-4.298-4.294-11.262-4.296-15.557 0z"/></g><path d="m77.94 201.638c-42.976 0-77.94 34.964-77.94 77.939 0 42.977 34.964 77.94 77.94 77.94s77.939-34.964 77.939-77.94c.001-42.975-34.963-77.939-77.939-77.939zm0 133.88c-30.846 0-55.94-25.095-55.94-55.94s25.095-55.939 55.94-55.939 55.939 25.095 55.939 55.939c.001 30.845-25.094 55.94-55.939 55.94z"/><path d="m501 0h-134.104c-2.758 0-5.415 1.036-7.445 2.902l-26.103 24c-2.266 2.083-3.555 5.021-3.555 8.098s1.289 6.015 3.555 8.098l26.103 24c2.03 1.866 4.688 2.902 7.445 2.902h134.104c6.075 0 11-4.925 11-11v-48c0-6.075-4.925-11-11-11zm-143.954 35 14.139-13h70.815v26h-70.815zm132.954 13h-26v-26h26z"/></g></g><g/><g/><g/><g/><g/><g/><g/><g/><g/><g/><g/><g/><g/><g/><g/></svg>