<svg id="Capa_1" enable-background="new 0 0 512 512" viewBox="0 0 512 512" xmlns="http://www.w3.org/2000/svg" fill="#E6ECF2"><g><g><path d="m353.842 127.28h-98.197c-18.412 0-33.392-14.979-33.392-33.391s14.979-33.392 33.392-33.392h98.197c18.412 0 33.392 14.979 33.392 33.392s-14.98 33.391-33.392 33.391zm-98.197-44.783c-6.281 0-11.392 5.11-11.392 11.392s5.11 11.391 11.392 11.391h98.197c6.281 0 11.392-5.11 11.392-11.391s-5.11-11.392-11.392-11.392z" fill="#0496FF"/></g><g><path d="m162.641 216.239c-18.412 0-33.391-14.979-33.391-33.391s14.979-33.391 33.391-33.391 33.392 14.979 33.392 33.391-14.98 33.391-33.392 33.391zm0-44.782c-6.281 0-11.391 5.11-11.391 11.391s5.109 11.391 11.391 11.391 11.392-5.11 11.392-11.391-5.111-11.391-11.392-11.391z" fill="#0496FF"/></g><g><path d="m353.842 216.239h-98.197c-18.412 0-33.392-14.979-33.392-33.391s14.979-33.391 33.392-33.391h98.197c18.412 0 33.392 14.979 33.392 33.391s-14.98 33.391-33.392 33.391zm-98.197-44.782c-6.281 0-11.392 5.11-11.392 11.391s5.11 11.391 11.392 11.391h98.197c6.281 0 11.392-5.11 11.392-11.391s-5.11-11.391-11.392-11.391z" fill="#0496FF"/></g><g><path d="m162.641 305.199c-18.412 0-33.391-14.979-33.391-33.391s14.979-33.392 33.391-33.392 33.392 14.979 33.392 33.392-14.98 33.391-33.392 33.391zm0-44.782c-6.281 0-11.391 5.11-11.391 11.392s5.109 11.391 11.391 11.391 11.392-5.11 11.392-11.391-5.111-11.392-11.392-11.392z" fill="#0496FF"/></g><g><path d="m353.842 305.199h-98.197c-18.412 0-33.392-14.979-33.392-33.391s14.979-33.392 33.392-33.392h98.197c18.412 0 33.392 14.979 33.392 33.392s-14.98 33.391-33.392 33.391zm-98.197-44.782c-6.281 0-11.392 5.11-11.392 11.392s5.11 11.391 11.392 11.391h98.197c6.281 0 11.392-5.11 11.392-11.391s-5.11-11.392-11.392-11.392z" fill="#0496FF"/></g><g><path d="m162.641 127.28c-18.412 0-33.391-14.979-33.391-33.391s14.979-33.392 33.391-33.392 33.392 14.979 33.392 33.392-14.98 33.391-33.392 33.391zm0-44.783c-6.281 0-11.391 5.11-11.391 11.392s5.109 11.391 11.391 11.391 11.392-5.11 11.392-11.391-5.111-11.392-11.392-11.392z" fill="#0496FF"/></g><path d="m456.184 68.623h-22.229v-20.148c0-22.607-18.393-41-41-41h-273.909c-22.607 0-41 18.393-41 41v20.148h-22.229c-30.778 0-55.817 25.04-55.817 55.817v253.674c0 30.777 25.039 55.817 55.817 55.817h112.666l-6.445 48.595h-15.509c-6.075 0-11 4.925-11 11s4.925 11 11 11h218.942c6.075 0 11-4.925 11-11s-4.925-11-11-11h-15.509l-6.445-48.595h112.666c30.777 0 55.816-25.04 55.816-55.817v-253.674c.001-30.777-25.038-55.817-55.815-55.817zm0 22c18.646 0 33.816 15.17 33.816 33.817v212.691h-56.045v-246.508zm-356.138-42.148c0-10.477 8.523-19 19-19h273.909c10.477 0 19 8.523 19 19v288.656h-311.909zm-44.229 42.148h22.229v246.508h-56.046v-212.691c0-18.647 15.171-33.817 33.817-33.817zm271.954 391.902h-143.541l6.445-48.595h130.649zm128.413-70.594h-400.367c-18.646 0-33.817-15.171-33.817-33.817v-18.983h468v18.983c0 18.646-15.17 33.817-33.816 33.817z"/></g><g/><g/><g/><g/><g/><g/><g/><g/><g/><g/><g/><g/><g/><g/><g/></svg>