<svg id="Capa_1" enable-background="new 0 0 512 512" viewBox="0 0 512 512" xmlns="http://www.w3.org/2000/svg" fill="#E6ECF2"><g><g><path d="m187.164 64.896c-47.966 0-86.99 39.023-86.99 86.99s39.023 86.99 86.99 86.99 86.99-39.023 86.99-86.99-39.024-86.99-86.99-86.99zm0 151.98c-35.835 0-64.99-29.154-64.99-64.99s29.154-64.99 64.99-64.99 64.99 29.154 64.99 64.99-29.155 64.99-64.99 64.99z"/><path d="m339.029 126.72c-.002-5.409-3.937-10.013-9.278-10.859l-17.085-2.707c-2.418-7.853-5.568-15.451-9.416-22.712l10.155-14.001c3.176-4.378 2.697-10.416-1.129-14.239l-35.521-35.496c-3.825-3.824-9.865-4.297-14.24-1.119l-13.964 10.144c-7.276-3.857-14.891-7.014-22.76-9.435l-2.71-17.026c-.85-5.34-5.455-9.27-10.863-9.27-.001 0-.003 0-.004 0l-50.216.021c-5.409.002-10.014 3.937-10.86 9.279l-2.689 16.974c-7.894 2.423-15.531 5.586-22.829 9.455l-13.902-10.083c-4.378-3.176-10.416-2.698-14.239 1.129l-35.497 35.52c-3.824 3.826-4.298 9.864-1.119 14.241l10.073 13.865c-3.877 7.311-7.046 14.964-9.474 22.875l-16.916 2.693c-5.342.851-9.273 5.458-9.271 10.868l.021 50.216c.002 5.409 3.937 10.014 9.278 10.86l16.916 2.681c2.433 7.91 5.608 15.559 9.491 22.868l-10.061 13.871c-3.176 4.378-2.697 10.416 1.129 14.239l35.52 35.496c3.826 3.824 9.865 4.298 14.24 1.119l13.898-10.096c7.3 3.862 14.938 7.02 22.833 9.437l2.703 16.976c.851 5.341 5.456 9.271 10.863 9.271h.004l50.216-.021c5.409-.002 10.014-3.937 10.86-9.279l2.698-17.027c7.866-2.426 15.479-5.589 22.751-9.451l13.969 10.133c4.378 3.175 10.415 2.697 14.239-1.129l35.497-35.521c3.824-3.826 4.299-9.864 1.119-14.241l-10.167-13.996c3.842-7.265 6.985-14.865 9.397-22.718l17.086-2.72c5.342-.851 9.272-5.458 9.271-10.868zm-36.777 43.19c-4.367.695-7.894 3.938-8.951 8.233-2.618 10.631-6.816 20.78-12.478 30.164-2.283 3.786-2.079 8.57.52 12.147l8.803 12.117-22.221 22.235-12.097-8.774c-3.582-2.598-8.372-2.797-12.157-.504-9.386 5.685-19.542 9.904-30.187 12.541-4.29 1.062-7.528 4.59-8.219 8.956l-2.334 14.732-31.435.013-2.339-14.69c-.696-4.371-3.943-7.899-8.242-8.954-10.671-2.619-20.854-6.827-30.267-12.507-1.753-1.058-3.72-1.582-5.683-1.582-2.276 0-4.545.705-6.466 2.1l-12.02 8.732-22.235-22.22 8.703-11.999c2.599-3.583 2.797-8.374.503-12.159-5.705-9.414-9.934-19.605-12.572-30.291-1.06-4.294-4.589-7.536-8.958-8.228l-14.627-2.318-.013-31.435 14.626-2.329c4.368-.695 7.895-3.94 8.952-8.235 2.63-10.687 6.852-20.881 12.55-30.3 2.291-3.787 2.089-8.578-.513-12.159l-8.713-11.993 22.22-22.235 12.023 8.72c3.58 2.596 8.364 2.796 12.149.509 9.408-5.688 19.589-9.904 30.26-12.531 4.297-1.058 7.542-4.589 8.234-8.96l2.328-14.689 31.435-.013 2.345 14.73c.695 4.365 3.935 7.89 8.226 8.95 10.647 2.629 20.807 6.841 30.197 12.519 3.787 2.289 8.577 2.086 12.157-.513l12.091-8.784 22.235 22.22-8.792 12.122c-2.596 3.579-2.797 8.365-.51 12.148 5.667 9.376 9.873 19.522 12.501 30.155 1.061 4.293 4.59 7.533 8.957 8.225l14.794 2.344.014 31.435z"/><path d="m99.243 313.515c-54.723 0-99.243 44.52-99.243 99.242s44.52 99.243 99.243 99.243 99.243-44.52 99.243-99.243-44.521-99.242-99.243-99.242zm0 176.485c-42.592 0-77.243-34.651-77.243-77.243s34.651-77.243 77.243-77.243 77.243 34.651 77.243 77.243-34.652 77.243-77.243 77.243z" fill="#0496FF"/><path d="m121.447 401.757h-11.205v-33.2c0-6.075-4.925-11-11-11s-11 4.925-11 11v44.2c0 6.075 4.925 11 11 11h22.205c6.075 0 11-4.925 11-11s-4.925-11-11-11z"/></g><path d="m440.162 378.53c11.717-12.252 18.937-28.839 18.937-47.089v-42.684c0-33.312-27.102-60.414-60.414-60.414h-15.576c-33.312 0-60.413 27.102-60.413 60.414v42.684c0 18.251 7.22 34.837 18.937 47.09-40.571 5.9-71.838 40.904-71.838 83.085v39.384c0 6.075 4.925 11 11 11h220.205c6.075 0 11-4.925 11-11v-39.385c0-42.181-31.266-77.185-71.838-83.085zm-95.467-47.09v-12.669h33.155c6.286 0 12.138-1.885 17.031-5.11 4.977 3.289 10.873 5.11 17.093 5.11h25.124v12.669c0 25.476-20.727 46.201-46.202 46.201s-46.201-20.725-46.201-46.201zm38.413-81.097h15.576c21.182 0 38.414 17.232 38.414 38.414v8.015h-25.124c-1.479 0-2.89-.365-4.149-1.017.684-2.557 1.054-5.242 1.054-8.012 0-6.075-4.925-11-11-11s-11 4.925-11 11c0 4.979-4.051 9.029-9.029 9.029h-33.155v-8.015c0-21.182 17.233-38.414 38.413-38.414zm106.892 239.657h-198.206v-28.385c0-34.172 27.801-61.974 61.974-61.974h26.129v37.623c0 6.075 4.925 11 11 11s11-4.925 11-11v-37.623h26.13c34.173 0 61.974 27.801 61.974 61.974v28.385z" fill="#0496FF"/></g><g/><g/><g/><g/><g/><g/><g/><g/><g/><g/><g/><g/><g/><g/><g/></svg>