<svg id="Capa_1" enable-background="new 0 0 512 512" viewBox="0 0 512 512" xmlns="http://www.w3.org/2000/svg" fill="#052438"><g><g><g fill="#0496FF"><path d="m125.348 202.09h261.305v33h22v-44c0-6.075-4.925-11-11-11h-130.653v-33h-22v33h-130.652c-6.075 0-11 4.925-11 11v44h22z"/><path d="m193.694 397.762h-68.347v-33h-22v33h-68.347c-6.075 0-11 4.925-11 11v44h22v-33h136.694v33h22v-44c0-6.075-4.924-11-11-11z"/><path d="m477 397.762h-68.348v-33h-22v33h-68.347c-6.075 0-11 4.925-11 11v44h22v-33h136.695v33h22v-44c0-6.075-4.925-11-11-11z"/></g><g><path d="m186.208 157.581h139.838c6.075 0 11-4.925 11-11 0-32.891-19.736-61.24-47.978-73.882 6.771-7.718 10.89-17.818 10.89-28.867 0-24.169-19.662-43.832-43.831-43.832s-43.831 19.663-43.831 43.831c0 11.05 4.119 21.15 10.89 28.867-28.242 12.642-47.978 40.992-47.978 73.883 0 2.917 1.159 5.715 3.222 7.778s4.861 3.222 7.778 3.222zm48.088-113.75c0-12.038 9.793-21.831 21.831-21.831s21.831 9.793 21.831 21.831-9.793 21.831-21.831 21.831-21.831-9.793-21.831-21.831zm21.831 43.831c28.73 0 52.724 20.668 57.89 47.919h-115.779c5.165-27.25 29.158-47.919 57.889-47.919z"/><path d="m59 442h-48c-6.075 0-11 4.925-11 11v48c0 6.075 4.925 11 11 11h48c6.075 0 11-4.925 11-11v-48c0-6.075-4.925-11-11-11zm-11 48h-26v-26h26z"/><path d="m217.694 442h-48c-6.075 0-11 4.925-11 11v48c0 6.075 4.925 11 11 11h48c6.075 0 11-4.925 11-11v-48c0-6.075-4.924-11-11-11zm-11 48h-26v-26h26z"/><path d="m342.306 442h-48c-6.075 0-11 4.925-11 11v48c0 6.075 4.925 11 11 11h48c6.075 0 11-4.925 11-11v-48c0-6.075-4.925-11-11-11zm-11 48h-26v-26h26z"/><path d="m501 442h-48c-6.075 0-11 4.925-11 11v48c0 6.075 4.925 11 11 11h48c6.075 0 11-4.925 11-11v-48c0-6.075-4.925-11-11-11zm-11 48h-26v-26h26z"/><path d="m52.4 375.762h125.199c6.075 0 11-4.925 11-11 0-28.849-16.693-53.861-40.919-65.92 7.352-7.945 11.856-18.562 11.856-30.215 0-24.557-19.979-44.536-44.536-44.536s-44.536 19.979-44.536 44.536c0 11.653 4.504 22.269 11.856 30.215-24.227 12.059-40.92 37.071-40.92 65.92 0 2.917 1.159 5.715 3.222 7.778 2.064 2.064 4.861 3.222 7.778 3.222zm40.064-107.136c0-12.426 10.109-22.536 22.536-22.536s22.536 10.11 22.536 22.536-10.109 22.536-22.536 22.536-22.536-10.109-22.536-22.536zm22.536 44.536c24.679 0 45.366 17.414 50.42 40.6h-100.84c5.054-23.186 25.741-40.6 50.42-40.6z"/><path d="m324.053 364.762c0 2.917 1.159 5.715 3.222 7.778s4.861 3.222 7.778 3.222h125.2c6.075 0 11-4.925 11-11 0-28.849-16.693-53.861-40.92-65.921 7.352-7.945 11.855-18.562 11.855-30.215 0-24.557-19.979-44.536-44.536-44.536s-44.535 19.979-44.535 44.536c0 11.653 4.504 22.269 11.855 30.215-24.226 12.06-40.919 37.072-40.919 65.921zm51.064-96.136c0-12.426 10.109-22.536 22.535-22.536 12.427 0 22.536 10.11 22.536 22.536s-10.109 22.536-22.536 22.536c-12.425 0-22.535-10.109-22.535-22.536zm22.535 44.536c24.679 0 45.367 17.414 50.421 40.6h-100.841c5.054-23.186 25.742-40.6 50.42-40.6z"/></g></g></g><g/><g/><g/><g/><g/><g/><g/><g/><g/><g/><g/><g/><g/><g/><g/></svg>