<svg id="Capa_1" enable-background="new 0 0 512 512" viewBox="0 0 512 512" xmlns="http://www.w3.org/2000/svg" fill="#E6ECF2"><g><g fill="#0496FF"><path d="m123.665 276.211h-32.412c-13.905 0-25.218 11.313-25.218 25.218v32.411c0 13.906 11.313 25.218 25.218 25.218h32.411c13.905 0 25.218-11.313 25.218-25.218v-32.41c.001-13.906-11.312-25.219-25.217-25.219zm3.218 57.63c0 1.775-1.444 3.218-3.218 3.218h-32.412c-1.774 0-3.218-1.444-3.218-3.218v-32.411c0-1.775 1.444-3.218 3.218-3.218h32.411c1.774 0 3.218 1.444 3.218 3.218v32.411z"/><path d="m243.249 276.211h-32.411c-13.905 0-25.218 11.313-25.218 25.218v32.411c0 13.906 11.313 25.218 25.218 25.218h32.411c13.905 0 25.218-11.313 25.218-25.218v-32.41c0-13.906-11.313-25.219-25.218-25.219zm3.218 57.63c0 1.775-1.444 3.218-3.218 3.218h-32.411c-1.774 0-3.218-1.444-3.218-3.218v-32.411c0-1.775 1.444-3.218 3.218-3.218h32.411c1.774 0 3.218 1.444 3.218 3.218z"/><path d="m123.665 381.154h-32.412c-13.905 0-25.218 11.313-25.218 25.218v32.411c0 13.906 11.313 25.218 25.218 25.218h32.411c13.905 0 25.218-11.313 25.218-25.218v-32.411c.001-13.906-11.312-25.218-25.217-25.218zm3.218 57.629c0 1.775-1.444 3.218-3.218 3.218h-32.412c-1.774 0-3.218-1.444-3.218-3.218v-32.411c0-1.775 1.444-3.218 3.218-3.218h32.411c1.774 0 3.218 1.444 3.218 3.218v32.411z"/><path d="m243.249 381.154h-32.411c-13.905 0-25.218 11.313-25.218 25.218v32.411c0 13.906 11.313 25.218 25.218 25.218h32.411c13.905 0 25.218-11.313 25.218-25.218v-32.411c0-13.906-11.313-25.218-25.218-25.218zm3.218 57.629c0 1.775-1.444 3.218-3.218 3.218h-32.411c-1.774 0-3.218-1.444-3.218-3.218v-32.411c0-1.775 1.444-3.218 3.218-3.218h32.411c1.774 0 3.218 1.444 3.218 3.218z"/><path d="m123.665 168.656h-32.412c-13.905 0-25.218 11.313-25.218 25.218v32.411c0 13.906 11.313 25.218 25.218 25.218h32.411c13.905 0 25.218-11.313 25.218-25.218v-32.411c.001-13.905-11.312-25.218-25.217-25.218zm3.218 57.629c0 1.775-1.444 3.218-3.218 3.218h-32.412c-1.774 0-3.218-1.444-3.218-3.218v-32.411c0-1.775 1.444-3.218 3.218-3.218h32.411c1.774 0 3.218 1.444 3.218 3.218v32.411z"/><path d="m243.249 168.656h-32.411c-13.905 0-25.218 11.313-25.218 25.218v32.411c0 13.906 11.313 25.218 25.218 25.218h32.411c13.905 0 25.218-11.313 25.218-25.218v-32.411c0-13.905-11.313-25.218-25.218-25.218zm3.218 57.629c0 1.775-1.444 3.218-3.218 3.218h-32.411c-1.774 0-3.218-1.444-3.218-3.218v-32.411c0-1.775 1.444-3.218 3.218-3.218h32.411c1.774 0 3.218 1.444 3.218 3.218z"/><path d="m362.834 168.656h-32.412c-13.905 0-25.218 11.313-25.218 25.218v32.411c0 13.906 11.312 25.218 25.218 25.218h32.412c13.905 0 25.218-11.313 25.218-25.218v-32.411c0-13.905-11.313-25.218-25.218-25.218zm3.218 57.629c0 1.775-1.444 3.218-3.218 3.218h-32.412c-1.774 0-3.218-1.444-3.218-3.218v-32.411c0-1.775 1.443-3.218 3.218-3.218h32.412c1.774 0 3.218 1.444 3.218 3.218z"/></g><g><path d="m512 398.826c0-41.745-23.474-78.107-57.913-96.592v-206.707c0-28.032-22.806-50.837-50.837-50.837h-6.594v-8.897c0-17.737-14.43-32.167-32.167-32.167h-.141c-17.737 0-32.167 14.43-32.167 32.167v8.897h-210.275v-8.897c0-17.737-14.43-32.167-32.167-32.167h-.141c-17.737 0-32.167 14.43-32.167 32.167v8.897h-6.594c-28.031-.001-50.837 22.805-50.837 50.837v362.01c0 28.032 22.806 50.837 50.837 50.837 0 0 355.713-.042 356.18-.102 58.296-2.403 104.983-50.571 104.983-109.446zm-157.818-363.033c0-5.606 4.561-10.167 10.167-10.167h.141c5.606 0 10.167 4.561 10.167 10.167v36.862c0 5.606-4.561 10.167-10.167 10.167h-.141c-5.606 0-10.167-4.561-10.167-10.167zm-274.75 0c0-5.606 4.561-10.167 10.167-10.167h.141c5.606 0 10.167 4.561 10.167 10.167v36.862c0 5.606-4.561 10.167-10.167 10.167h-.141c-5.606 0-10.167-4.561-10.167-10.167zm-57.432 59.734c0-15.901 12.937-28.837 28.837-28.837h6.594v5.965c0 17.737 14.43 32.167 32.167 32.167h.141c17.737 0 32.167-14.43 32.167-32.167v-5.965h210.276v5.965c0 17.737 14.43 32.167 32.167 32.167h.141c17.737 0 32.167-14.43 32.167-32.167v-5.965h6.594c15.901 0 28.837 12.936 28.837 28.837v28.757h-410.088zm28.837 390.847c-15.9 0-28.837-12.937-28.837-28.838v-311.253h410.087v147.07c-9.43-2.653-19.369-4.076-29.636-4.076-60.405 0-109.548 49.143-109.548 109.548 0 35.743 17.209 67.54 43.774 87.548h-285.84zm351.615 0c-48.274 0-87.548-39.274-87.548-87.548s39.274-87.548 87.548-87.548 87.548 39.273 87.548 87.548c0 48.274-39.274 87.548-87.548 87.548z"/><path d="m429.068 392.257h-15.617v-42.234c0-6.075-4.925-11-11-11s-11 4.925-11 11v53.234c0 6.075 4.925 11 11 11h26.617c6.075 0 11-4.925 11-11s-4.924-11-11-11z"/></g></g><g/><g/><g/><g/><g/><g/><g/><g/><g/><g/><g/><g/><g/><g/><g/></svg>