<svg id="Capa_1" enable-background="new 0 0 512 512" viewBox="0 0 512 512" xmlns="http://www.w3.org/2000/svg" fill="#E6ECF2"><g><g><path d="m157.679 136.644c10.036-11.15 16.156-25.892 16.156-42.039v-38.738c0-30.793-25.052-55.845-55.845-55.845h-14.136c-30.792 0-55.844 25.052-55.844 55.845v38.737c0 16.147 6.12 30.889 16.156 42.039-36.382 6.227-64.166 37.97-64.166 76.1v36.96c0 6.075 4.925 11 11 11h101.899v-22h-90.899v-25.96c0-30.452 24.774-55.227 55.227-55.227h67.393c30.452 0 55.227 24.774 55.227 55.227v25.96h-37.011v22h48.011c6.075 0 11-4.925 11-11v-36.96c-.001-38.13-27.786-69.873-64.168-76.099zm-87.668-42.04v-10.48h29.072c5.601 0 10.904-1.636 15.417-4.468 4.568 2.879 9.918 4.468 15.551 4.468h21.783v10.48c0 22.559-18.354 40.912-40.912 40.912s-40.911-18.353-40.911-40.912zm33.843-72.582h14.136c18.662 0 33.845 15.183 33.845 33.845v6.257h-21.783c-.898 0-1.765-.17-2.572-.479.183-.774.34-1.56.459-2.357.899-6.009-3.243-11.607-9.251-12.507-6.004-.899-11.607 3.243-12.507 9.251-.52 3.473-3.571 6.092-7.098 6.092h-29.072v-6.257c0-18.662 15.182-33.845 33.843-33.845z" fill="#0496FF"/><g><path d="m451.077 166.705c9.33-10.564 15.009-24.424 15.009-39.593v-24.312c0-33.024-26.868-59.892-59.893-59.892s-59.892 26.867-59.892 59.892v24.312c0 15.169 5.679 29.029 15.009 39.594-34.765 7.415-60.923 38.354-60.923 75.299v31.903c0 6.075 4.925 11 11 11h189.613c6.075 0 11-4.925 11-11v-31.903c0-36.946-26.158-67.885-60.923-75.3zm-44.884-101.798c15.179 0 28.295 8.976 34.339 21.895-7.255.646-14.227 3.236-20.347 7.599-4.099 2.922-8.937 4.467-13.991 4.467s-9.892-1.545-13.991-4.467c-6.12-4.363-13.092-6.954-20.347-7.599 6.042-12.919 19.158-21.895 34.337-21.895zm-37.891 43.731c3.918.009 7.766 1.279 11.13 3.677 7.85 5.596 17.104 8.553 26.762 8.553 9.659 0 18.913-2.957 26.762-8.553 3.365-2.398 7.212-3.668 11.131-3.677v18.473c0 20.894-16.999 37.893-37.893 37.893s-37.892-16.999-37.892-37.893zm121.698 154.269h-167.612v-20.903c0-30.327 24.673-55 55-55h57.612c30.327 0 55 24.673 55 55z"/><path d="m272.491 309.526c-4.254 0-8.322.805-12.07 2.257-2.848-15.613-16.54-27.489-32.963-27.489-7.144 0-13.768 2.254-19.212 6.078-6.153-7.43-15.443-12.171-25.821-12.171-4.044 0-7.924.72-11.517 2.039v-56.458c0-18.481-15.035-33.517-33.517-33.517s-33.517 15.035-33.517 33.517v89.666c-10.541-11.646-27.702-15.662-42.696-8.952-17.643 7.895-26.324 28.322-19.762 46.504l29.17 80.841c17.297 47.933 63.154 80.137 114.11 80.137 66.892 0 121.312-54.421 121.312-121.312v-47.622c.001-18.482-15.035-33.518-33.517-33.518zm11.518 81.139c0 54.761-44.552 99.312-99.312 99.312-41.715 0-79.257-26.364-93.417-65.604l-29.17-80.842c-2.675-7.411.863-15.737 8.057-18.956 7.354-3.292 15.994-.251 19.663 6.927l15.252 29.83c2.313 4.525 7.429 6.876 12.369 5.687 4.942-1.19 8.425-5.611 8.425-10.694v-132.544c0-6.351 5.166-11.517 11.517-11.517s11.517 5.166 11.517 11.517v139.102c0 6.075 4.925 11 11 11s11-4.925 11-11v-51.165c0-6.351 5.166-11.517 11.517-11.517s11.517 5.166 11.517 11.517v51.165c0 6.075 4.925 11 11 11s11-4.925 11-11v-45.071c0-6.351 5.166-11.517 11.517-11.517s11.517 5.166 11.517 11.517v45.071c0 6.075 4.925 11 11 11s11-4.925 11-11v-19.84c0-6.351 5.167-11.517 11.518-11.517s11.517 5.166 11.517 11.517v47.622z"/></g></g></g><g/><g/><g/><g/><g/><g/><g/><g/><g/><g/><g/><g/><g/><g/><g/></svg>