<svg id="Capa_1" enable-background="new 0 0 512 512" viewBox="0 0 512 512" xmlns="http://www.w3.org/2000/svg" fill="#E6ECF2"><g><path d="m266.435 323.08h-.851v-3.225c0-42.756-34.784-77.54-77.54-77.54s-77.54 34.784-77.54 77.54v3.225h-.85c-6.075 0-11 4.925-11 11s4.925 11 11 11h1.831l8.744 93.444c1.599 17.086 15.746 29.971 32.906 29.971h69.816c17.16 0 31.308-12.885 32.906-29.971l8.745-93.444h1.831c6.075 0 11-4.925 11-11s-4.923-11-10.998-11zm-133.931-3.225c0-30.625 24.915-55.54 55.54-55.54s55.54 24.915 55.54 55.54v3.225h-111.08zm101.451 116.619c-.534 5.713-5.265 10.021-11.002 10.021h-69.816c-5.737 0-10.468-4.308-11.002-10.021l-8.553-91.395h108.927z" fill="#0496FF"/><g><path d="m162.511 151.417c2.062 2.063 4.86 3.222 7.778 3.222 2.917 0 5.715-1.159 7.778-3.222l23.648-23.648c4.296-4.296 4.296-11.26 0-15.556-4.297-4.295-11.262-4.296-15.557 0l-15.87 15.87-3.435-3.435c-4.296-4.296-11.259-4.296-15.557 0-4.296 4.296-4.296 11.26 0 15.556z"/><path d="m246.898 142.815h106.025c6.075 0 11-4.925 11-11s-4.925-11-11-11h-106.025c-6.075 0-11 4.925-11 11s4.925 11 11 11z"/><path d="m162.511 94.964c2.062 2.063 4.86 3.222 7.778 3.222 2.917 0 5.715-1.159 7.778-3.222l23.648-23.648c4.296-4.296 4.296-11.26 0-15.556-4.297-4.296-11.262-4.296-15.557 0l-15.87 15.87-3.435-3.435c-4.296-4.296-11.259-4.296-15.557 0-4.296 4.296-4.296 11.26 0 15.556z"/><path d="m246.898 86.362h106.025c6.075 0 11-4.925 11-11s-4.925-11-11-11h-106.025c-6.075 0-11 4.925-11 11s4.925 11 11 11z"/><path d="m434.183 218.596v-187.689c0-17.042-13.865-30.907-30.907-30.907h-294.552c-17.042 0-30.907 13.865-30.907 30.907v149.407c-15.102.976-27.092 13.566-27.092 28.91v261.915c0 22.531 18.33 40.861 40.86 40.861h328.828c22.531 0 40.861-18.33 40.861-40.861v-214.075c.001-17.701-11.315-32.804-27.091-38.468zm-325.459-196.596h294.552c4.911 0 8.907 3.996 8.907 8.907v185.296h-138.458c-3.848 0-6.979-3.131-6.979-6.979 0-15.979-13-28.979-28.979-28.979h-137.95v-149.338c0-4.911 3.996-8.907 8.907-8.907zm330.551 449.139c0 10.4-8.461 18.861-18.861 18.861h-328.829c-10.399 0-18.86-8.461-18.86-18.861v-261.915c0-3.848 3.131-6.979 6.979-6.979h158.064c3.848 0 6.979 3.131 6.979 6.979 0 15.979 13 28.979 28.979 28.979h146.688c10.4 0 18.861 8.461 18.861 18.861z"/><path d="m392.997 379.761h-84.541c-6.075 0-11 4.925-11 11s4.925 11 11 11h84.541c6.075 0 11-4.925 11-11s-4.925-11-11-11z"/><path d="m392.997 427.772h-84.541c-6.075 0-11 4.925-11 11s4.925 11 11 11h84.541c6.075 0 11-4.925 11-11s-4.925-11-11-11z"/></g></g><g/><g/><g/><g/><g/><g/><g/><g/><g/><g/><g/><g/><g/><g/><g/></svg>