<svg id="Capa_1" enable-background="new 0 0 512 512" viewBox="0 0 512 512" xmlns="http://www.w3.org/2000/svg" fill="#E6ECF2"><g><g fill="#0496FF"><path d="m91.222 143.17c-4.296 4.296-4.296 11.261 0 15.557l18.822 18.822c2.148 2.148 4.963 3.222 7.778 3.222s5.63-1.074 7.778-3.222l35.541-35.541c4.296-4.296 4.296-11.261 0-15.557-4.297-4.296-11.26-4.296-15.557 0l-27.763 27.763-11.044-11.044c-4.296-4.296-11.258-4.296-15.555 0z"/><path d="m161.142 240.451c-4.297-4.296-11.26-4.296-15.557 0l-27.763 27.763-11.044-11.044c-4.297-4.296-11.26-4.296-15.557 0-4.296 4.296-4.296 11.261 0 15.557l18.822 18.822c2.148 2.148 4.963 3.222 7.778 3.222s5.63-1.074 7.778-3.222l35.541-35.541c4.298-4.296 4.298-11.261.002-15.557z"/><path d="m145.585 354.451-27.763 27.763-11.044-11.044c-4.297-4.296-11.26-4.296-15.557 0-4.296 4.296-4.296 11.261 0 15.557l18.822 18.822c2.148 2.148 4.963 3.222 7.778 3.222s5.63-1.074 7.778-3.222l35.541-35.541c4.296-4.296 4.296-11.261 0-15.557-4.295-4.296-11.258-4.296-15.555 0z"/></g><g><path d="m501 79.569h-56c-6.075 0-11 4.925-11 11v295.796c0 2.494.848 4.915 2.404 6.864l28 35.065c2.087 2.614 5.251 4.136 8.596 4.136s6.509-1.522 8.596-4.136l28-35.065c1.557-1.949 2.404-4.37 2.404-6.864v-295.796c0-6.075-4.925-11-11-11zm-11 22v34h-34v-34zm-17 302.233-17-21.29v-224.943h34v224.943z" fill="#0496FF"/><g><path d="m401 20h-95v-9c0-6.075-4.925-11-11-11h-178c-6.075 0-11 4.925-11 11v9h-95c-6.075 0-11 4.925-11 11v470c0 6.075 4.925 11 11 11h390c6.075 0 11-4.925 11-11v-470c0-6.075-4.925-11-11-11zm-273 2h156v42h-156zm218 64v360h-280v-360zm44 404h-368v-448h84v22h-51c-6.075 0-11 4.925-11 11v382c0 6.075 4.925 11 11 11h302c6.075 0 11-4.925 11-11v-382c0-6.075-4.925-11-11-11h-51v-22h84z"/><path d="m197.363 185h115.637c6.075 0 11-4.925 11-11v-44c0-6.075-4.925-11-11-11h-115.637c-6.075 0-11 4.925-11 11v44c0 6.075 4.925 11 11 11zm11-44h93.637v22h-93.637z"/><path d="m197.363 299h115.637c6.075 0 11-4.925 11-11v-44c0-6.075-4.925-11-11-11h-115.637c-6.075 0-11 4.925-11 11v44c0 6.075 4.925 11 11 11zm11-44h93.637v22h-93.637z"/><path d="m197.363 413h115.637c6.075 0 11-4.925 11-11v-44c0-6.075-4.925-11-11-11h-115.637c-6.075 0-11 4.925-11 11v44c0 6.075 4.925 11 11 11zm11-44h93.637v22h-93.637z"/></g></g></g><g/><g/><g/><g/><g/><g/><g/><g/><g/><g/><g/><g/><g/><g/><g/></svg>