<svg id="Capa_1" enable-background="new 0 0 512 512" viewBox="0 0 512 512" xmlns="http://www.w3.org/2000/svg" fill="#E6ECF2"><g><path d="m441.458 173.499c0-74.786-55.146-138.476-128.745-149.342-4.048-13.937-16.922-24.157-32.146-24.157h-49.133c-15.204 0-28.064 10.192-32.129 24.154-73.608 10.859-128.763 74.556-128.763 149.345s0 64.318 0 64.318c0 7.298 3.849 13.631 11.774 19.157.013.186.016.371.039.559l25.258 208.71c3.158 26.086 25.354 45.757 51.629 45.757h193.515c26.276 0 48.472-19.671 51.629-45.757l25.015-206.698c.098-.811.099-1.611.023-2.392 8.099-5.569 12.033-11.96 12.033-19.336.001-.001.001-64.318.001-64.318zm-22 63.452c-2.244 2.836-14.393 10.378-49.065 16.766-31.381 5.781-72.006 8.965-114.392 8.965s-83.011-3.184-114.393-8.965c-34.67-6.387-46.821-13.93-49.065-16.766v-38.013c9.432 4.405 21.969 8.247 37.804 11.624 33.681 7.183 78.306 11.138 125.653 11.138s91.972-3.955 125.654-11.138c15.835-3.377 28.372-7.219 37.803-11.624v38.013zm-326.384-63.452c3.098-3.262 15.503-10.531 48.084-16.809 31.435-6.057 72.219-9.392 114.842-9.392 42.622 0 83.407 3.335 114.841 9.392 32.581 6.278 44.986 13.546 48.084 16.809-3.098 3.262-15.503 10.531-48.084 16.809-31.434 6.057-72.219 9.392-114.841 9.392-42.623 0-83.407-3.335-114.842-9.392-32.581-6.278-44.986-13.547-48.084-16.809zm138.359-151.499h49.133c6.328 0 11.476 5.148 11.476 11.572 0 6.328-5.148 11.476-11.476 11.476h-49.133c-6.327 0-11.475-5.148-11.475-11.572 0-6.328 5.148-11.476 11.475-11.476zm-30.977 24.242c5.005 12.194 17.002 20.806 30.978 20.806h49.133c13.961 0 25.948-8.594 30.963-20.808 52.912 8.677 94.292 49.401 105.137 100.57-9.07-3.886-20.693-7.32-35.012-10.373-33.682-7.182-78.307-11.138-125.654-11.138-47.348 0-91.973 3.955-125.654 11.138-14.319 3.053-25.942 6.487-35.012 10.373 10.843-51.163 52.217-91.886 105.121-100.568zm182.09 417.357c-1.822 15.051-14.628 26.401-29.788 26.401h-193.516c-15.161 0-27.967-11.35-29.788-26.4l-23.712-195.935c7.107 2.271 15.314 4.361 24.682 6.287 33.658 6.919 78.254 10.73 125.576 10.73 47.321 0 91.917-3.811 125.575-10.73 9.369-1.926 17.576-4.017 24.683-6.287z"/><g><path d="m179.728 464.709c-2.815 0-5.63-1.074-7.778-3.222l-11.29-11.29c-4.295-4.296-4.295-11.26 0-15.556 4.296-4.296 11.261-4.296 15.557 0l3.512 3.512 16.031-16.031c4.296-4.296 11.261-4.296 15.557 0 4.295 4.296 4.295 11.26 0 15.556l-23.809 23.809c-2.15 2.148-4.965 3.222-7.78 3.222z" fill="#0496FF"/></g><g><path d="m343.562 452.804h-86.704c-6.075 0-11-4.925-11-11s4.925-11 11-11h86.704c6.075 0 11 4.925 11 11s-4.925 11-11 11z" fill="#0496FF"/></g><g><path d="m179.728 407.872c-2.815 0-5.63-1.074-7.778-3.222l-11.29-11.29c-4.295-4.296-4.295-11.26 0-15.556 4.296-4.296 11.261-4.296 15.557 0l3.512 3.512 16.031-16.031c4.296-4.296 11.261-4.296 15.557 0 4.295 4.296 4.295 11.26 0 15.556l-23.809 23.809c-2.15 2.148-4.965 3.222-7.78 3.222z" fill="#0496FF"/></g><g><path d="m343.562 395.967h-86.704c-6.075 0-11-4.925-11-11s4.925-11 11-11h86.704c6.075 0 11 4.925 11 11s-4.925 11-11 11z" fill="#0496FF"/></g><g><path d="m179.728 351.035c-2.815 0-5.63-1.074-7.778-3.222l-11.29-11.29c-4.295-4.296-4.295-11.26 0-15.556 4.296-4.296 11.261-4.296 15.557 0l3.512 3.512 16.031-16.031c4.296-4.296 11.261-4.296 15.557 0 4.295 4.296 4.295 11.26 0 15.556l-23.809 23.809c-2.15 2.148-4.965 3.222-7.78 3.222z" fill="#0496FF"/></g><g><path d="m343.562 339.13h-86.704c-6.075 0-11-4.925-11-11s4.925-11 11-11h86.704c6.075 0 11 4.925 11 11s-4.925 11-11 11z" fill="#0496FF"/></g></g><g/><g/><g/><g/><g/><g/><g/><g/><g/><g/><g/><g/><g/><g/><g/></svg>