<svg id="Capa_1" enable-background="new 0 0 512.018 512.018" viewBox="0 0 512.018 512.018" xmlns="http://www.w3.org/2000/svg" fill="#E6ECF2"><g><g><path d="m300.75 320.073v-150.677c0-69.134-56.245-125.378-125.379-125.378s-125.378 56.245-125.378 125.378v150.628c-28.744 4.717-49.983 29.412-49.983 58.923v122.071c0 6.075 4.925 11 11 11h328.44c6.075 0 11-4.925 11-11v-122.072c-.001-29.413-21.101-54.04-49.7-58.873zm-125.379-254.055c57.003 0 103.378 46.375 103.378 103.378v148.291l-23.706-2.41-33.113-15.744v-15.069c21.03-14.728 34.819-39.119 34.819-66.684v-31.716c0-20.225-16.454-36.679-36.679-36.679h-89.4c-20.225 0-36.679 16.454-36.679 36.679v31.715c0 27.441 13.666 51.735 34.535 66.483v15.271l-33.113 15.745-23.422 2.381v-148.263c.001-57.003 46.377-103.378 103.38-103.378zm-.142 270.617-24.702-33.749v-7.621c7.836 2.518 16.181 3.892 24.844 3.892 8.557 0 16.806-1.336 24.56-3.796v7.524zm.142-59.477c-32.741 0-59.378-26.637-59.378-59.379v-31.715c0-8.094 6.585-14.679 14.679-14.679h89.4c8.094 0 14.679 6.585 14.679 14.679v31.716c-.001 32.741-26.639 59.378-59.38 59.378zm-39.343 43.168 24.136 32.976-20.918 16.93-25.255-39.427zm78.402 0 22.038 10.479-25.255 39.427-20.918-16.93zm114.019 169.692h-38.075v-64.774c0-6.075-4.925-11-11-11s-11 4.925-11 11v64.774h-186.291v-64.774c0-6.075-4.925-11-11-11s-11 4.925-11 11v64.774h-38.074v-111.072c0-19.437 14.582-35.576 33.919-37.542l36.359-3.696 35.064 54.738c1.688 2.635 4.418 4.426 7.506 4.926.585.095 1.172.141 1.756.141 2.501 0 4.949-.854 6.92-2.45l31.696-25.652 31.696 25.652c1.972 1.596 4.419 2.45 6.92 2.45.584 0 1.171-.046 1.756-.141 3.088-.5 5.818-2.291 7.506-4.926l35.064-54.738 36.358 3.696c19.337 1.966 33.919 18.106 33.919 37.542v111.072z"/><g fill="#0496FF"><path d="m342.605 58.549c2.148 2.148 4.963 3.222 7.778 3.222s5.63-1.074 7.778-3.222l31.409-31.409c4.295-4.296 4.295-11.261 0-15.557-4.296-4.296-11.261-4.296-15.557 0l-23.63 23.631-8.855-8.856c-4.296-4.296-11.261-4.296-15.557 0-4.295 4.296-4.295 11.261 0 15.557z"/><path d="m425.792 22h75.217c6.075 0 11-4.925 11-11s-4.925-11-11-11h-75.217c-6.075 0-11 4.925-11 11s4.925 11 11 11z"/><path d="m425.792 66h40.598c6.075 0 11-4.925 11-11s-4.925-11-11-11h-40.598c-6.075 0-11 4.925-11 11s4.925 11 11 11z"/><path d="m342.605 166.566c2.148 2.148 4.963 3.222 7.778 3.222s5.63-1.074 7.778-3.222l31.409-31.409c4.295-4.296 4.295-11.261 0-15.557-4.296-4.296-11.261-4.296-15.557 0l-23.63 23.631-8.855-8.856c-4.296-4.296-11.261-4.296-15.557 0-4.295 4.296-4.295 11.261 0 15.557z"/><path d="m501.009 108.018h-75.217c-6.075 0-11 4.925-11 11s4.925 11 11 11h75.217c6.075 0 11-4.925 11-11s-4.925-11-11-11z"/><path d="m425.792 174.018h40.598c6.075 0 11-4.925 11-11s-4.925-11-11-11h-40.598c-6.075 0-11 4.925-11 11s4.925 11 11 11z"/><path d="m374.014 227.438-23.63 23.63-8.855-8.856c-4.296-4.296-11.261-4.296-15.557 0-4.295 4.296-4.295 11.261 0 15.557l16.634 16.634c2.148 2.148 4.963 3.222 7.778 3.222s5.63-1.074 7.778-3.222l31.409-31.408c4.295-4.296 4.296-11.261 0-15.557-4.298-4.296-11.261-4.296-15.557 0z"/><path d="m501.009 215.854h-75.217c-6.075 0-11 4.925-11 11s4.925 11 11 11h75.217c6.075 0 11-4.925 11-11s-4.925-11-11-11z"/><path d="m466.39 259.854h-40.598c-6.075 0-11 4.925-11 11s4.925 11 11 11h40.598c6.075 0 11-4.925 11-11s-4.925-11-11-11z"/></g></g></g><g/><g/><g/><g/><g/><g/><g/><g/><g/><g/><g/><g/><g/><g/><g/></svg>