<svg id="Capa_1" enable-background="new 0 0 512.002 512.002" viewBox="0 0 512.002 512.002" xmlns="http://www.w3.org/2000/svg" fill="#E6ECF2"><g><g><g fill="#0496FF"><path d="m296.158 305.54c13.609-11.462 22.277-28.612 22.277-47.755 0-34.426-28.008-62.434-62.434-62.434s-62.434 28.008-62.434 62.434c0 19.143 8.668 36.293 22.277 47.755-22.515 8.523-41.995 24.169-55.37 45.283l18.584 11.773c16.811-26.536 45.574-42.378 76.942-42.378 31.372 0 60.138 15.847 76.948 42.389l18.586-11.771c-13.374-21.121-32.856-36.772-55.376-45.296zm-80.59-47.756c0-22.295 18.138-40.434 40.434-40.434s40.434 18.139 40.434 40.434-18.138 40.434-40.434 40.434-40.434-18.139-40.434-40.434z"/><path d="m75.343 150.442c-37.009 0-67.118 30.109-67.118 67.119 0 21.227 9.916 40.169 25.346 52.478v51.49c0 6.075 4.925 11 11 11h61.544c6.075 0 11-4.925 11-11v-51.49c15.43-12.308 25.346-31.251 25.346-52.477 0-37.01-30.108-67.12-67.118-67.12zm19.773 160.087h-39.545v-28.825c6.253 1.932 12.893 2.976 19.772 2.976s13.519-1.044 19.772-2.976v28.825zm-8.773-49.212v-24.017c0-6.075-4.925-11-11-11s-11 4.925-11 11v24.017c-19.578-4.924-34.118-22.671-34.118-43.756 0-24.879 20.24-45.119 45.118-45.119s45.118 20.24 45.118 45.119c0 21.085-14.539 38.833-34.118 43.756z"/><path d="m501.002 134.566h-134c-6.075 0-11 4.925-11 11v160c0 6.075 4.925 11 11 11h134c6.075 0 11-4.925 11-11v-160c0-6.075-4.925-11-11-11zm-11 160h-112v-138h112z"/></g><g><path d="m372.319 346.218h-232.634c-6.075 0-11 4.925-11 11v143.783c0 6.075 4.925 11 11 11h232.634c6.075 0 11-4.925 11-11v-143.783c0-6.075-4.925-11-11-11zm-11 143.783h-210.634v-121.783h210.634z"/><path d="m191.661 113.468h128.683c6.075 0 11-4.925 11-11v-91.467c0-6.075-4.925-11-11-11h-128.683c-6.075 0-11 4.925-11 11v91.467c0 6.075 4.924 11 11 11zm11-22v-50.95l48.128 25.903c1.627.876 3.42 1.313 5.213 1.313s3.586-.438 5.213-1.313l48.128-25.903v50.95zm12.017-69.467h82.649l-41.324 22.241z"/><path d="m75.343 77.878c-6.075 0-11 4.925-11 11v24.716c0 6.075 4.925 11 11 11s11-4.925 11-11v-24.716c0-6.075-4.925-11-11-11z"/><path d="m20.528 100.619c-3.038-5.262-9.767-7.064-15.026-4.026-5.261 3.038-7.064 9.766-4.026 15.026l12.357 21.403c2.038 3.529 5.735 5.502 9.537 5.502 1.866 0 3.758-.476 5.49-1.476 5.261-3.038 7.064-9.766 4.026-15.026z"/><path d="m136.854 133.022 12.357-21.403c3.038-5.261 1.235-11.988-4.026-15.026-5.261-3.036-11.988-1.235-15.026 4.026l-12.357 21.403c-3.038 5.261-1.235 11.988 4.026 15.026 1.732 1 3.624 1.476 5.49 1.476 3.801 0 7.498-1.972 9.536-5.502z"/><path d="m412.002 212.566h44c6.075 0 11-4.925 11-11s-4.925-11-11-11h-44c-6.075 0-11 4.925-11 11s4.925 11 11 11z"/><path d="m456.002 238.566h-44c-6.075 0-11 4.925-11 11s4.925 11 11 11h44c6.075 0 11-4.925 11-11s-4.925-11-11-11z"/></g></g></g><g/><g/><g/><g/><g/><g/><g/><g/><g/><g/><g/><g/><g/><g/><g/></svg>