<svg id="Capa_1" enable-background="new 0 0 512.003 512.003" viewBox="0 0 512.003 512.003" xmlns="http://www.w3.org/2000/svg" fill="#052438"><g><g><path d="m110 55.001c0-6.075-4.925-11-11-11h-44c-6.075 0-11 4.925-11 11v44c0 6.075 4.925 11 11 11h44c6.075 0 11-4.925 11-11zm-22 33h-22v-22h22z"/><path d="m198 55.001c0-6.075-4.925-11-11-11h-44c-6.075 0-11 4.925-11 11v44c0 6.075 4.925 11 11 11h44c6.075 0 11-4.925 11-11zm-22 33h-22v-22h22z"/><path d="m275 44.001h-44c-6.075 0-11 4.925-11 11v44c0 6.075 4.925 11 11 11h44c6.075 0 11-4.925 11-11v-44c0-6.075-4.925-11-11-11zm-11 44h-22v-22h22z"/><path d="m110 143.001c0-6.075-4.925-11-11-11h-44c-6.075 0-11 4.925-11 11v44c0 6.075 4.925 11 11 11h44c6.075 0 11-4.925 11-11zm-22 33h-22v-22h22z"/><path d="m198 143.001c0-6.075-4.925-11-11-11h-44c-6.075 0-11 4.925-11 11v44c0 6.075 4.925 11 11 11h44c6.075 0 11-4.925 11-11zm-22 33h-22v-22h22z"/><path d="m275 132.001h-44c-6.075 0-11 4.925-11 11v44c0 6.075 4.925 11 11 11h44c6.075 0 11-4.925 11-11v-44c0-6.075-4.925-11-11-11zm-11 44h-22v-22h22z"/><path d="m99 224.236h-44c-6.075 0-11 4.925-11 11v44c0 6.075 4.925 11 11 11h44c6.075 0 11-4.925 11-11v-44c0-6.076-4.925-11-11-11zm-11 44h-22v-22h22z"/><path d="m187 224.236h-44c-6.075 0-11 4.925-11 11v44c0 6.075 4.925 11 11 11h44c6.075 0 11-4.925 11-11v-44c0-6.076-4.925-11-11-11zm-11 44h-22v-22h22z"/><path d="m275 224.236h-44c-6.075 0-11 4.925-11 11v44h22v-33h22v33h22v-44c0-6.076-4.925-11-11-11z"/><path d="m319.001.001h-308.001c-6.075 0-11 4.925-11 11v490c0 6.075 4.925 11 11 11h261.018v-22h-167.526v-152.248h125.508v-22h-136.508c-6.075 0-11 4.925-11 11v163.248h-60.492v-468h286.001v217.119h22v-228.119c0-6.075-4.925-11-11-11z"/></g><path d="m511.895 386.967c-1.483-22.004-19.133-40.237-41.054-42.414-2.357-.233-4.721-.284-7.075-.16v-65.157c0-6.075-4.925-11-11-11h-65.157c.126-2.351.074-4.718-.159-7.075-2.178-21.92-20.411-39.568-42.413-41.053-12.836-.879-25.061 3.478-34.423 12.23-9.231 8.631-14.526 20.826-14.526 33.459 0 .815.021 1.629.063 2.438h-65.151c-6.075 0-11 4.925-11 11v180.748c0 28.683 23.335 52.018 52.018 52.018h180.748c6.075 0 11-4.925 11-11v-65.15c.81.042 1.623.063 2.438.063 12.633 0 24.828-5.295 33.458-14.526 8.753-9.361 13.097-21.585 12.233-34.421zm-225.604 103.034v-14.097c0-23.303 18.959-42.262 42.262-42.262h26.661c23.303 0 42.262 18.959 42.262 42.262v14.097zm55.592-78.358c-13.605 0-24.674-11.068-24.674-24.674s11.068-24.675 24.674-24.675 24.675 11.069 24.675 24.675-11.07 24.674-24.675 24.674zm141.709-5.279c-4.552 4.869-10.727 7.551-17.388 7.551-3.186 0-6.277-.618-9.188-1.838-3.396-1.423-7.279-1.052-10.344.987s-4.907 5.477-4.907 9.158v67.779h-22.29v-14.097c0-27.26-17.071-50.594-41.076-59.917 6.35-7.974 10.158-18.057 10.158-29.019 0-25.736-20.938-46.675-46.675-46.675s-46.674 20.938-46.674 46.675c0 10.962 3.808 21.046 10.158 29.02-24.006 9.322-41.076 32.656-41.076 59.916v13.083c-12.818-3.417-22.29-15.122-22.29-29.003v-169.748h67.779c3.682 0 7.119-1.842 9.158-4.907 2.04-3.065 2.41-6.948.987-10.344-1.22-2.91-1.838-6.002-1.838-9.188 0-6.661 2.682-12.836 7.551-17.388 4.863-4.548 11.232-6.798 17.918-6.353 11.414.771 20.873 9.918 22.001 21.276.402 4.056-.175 7.976-1.716 11.651-1.423 3.396-1.053 7.278.986 10.344 2.04 3.065 5.478 4.907 9.159 4.907h67.779v67.779c0 3.682 1.842 7.119 4.907 9.158 3.064 2.039 6.947 2.409 10.344.987 3.677-1.541 7.593-2.118 11.648-1.715h.002c11.36 1.128 20.508 10.586 21.276 22.001.454 6.693-1.802 13.056-6.349 17.92z" fill="#0496FF"/></g><g/><g/><g/><g/><g/><g/><g/><g/><g/><g/><g/><g/><g/><g/><g/></svg>