<svg id="Capa_1" enable-background="new 0 0 512 512" viewBox="0 0 512 512" xmlns="http://www.w3.org/2000/svg" fill="#052438"><g><g><g fill="#0496FF"><path d="m330.005 269.104-23.631 23.63-8.855-8.855c-4.297-4.295-11.26-4.295-15.557 0-4.296 4.296-4.296 11.261 0 15.557l16.634 16.634c2.148 2.148 4.963 3.222 7.778 3.222 2.814 0 5.631-1.074 7.778-3.222l31.409-31.408c4.296-4.296 4.296-11.261 0-15.557-4.295-4.295-11.26-4.297-15.556-.001z"/><path d="m330.005 377.121-23.631 23.63-8.855-8.855c-4.297-4.295-11.26-4.295-15.557 0-4.296 4.296-4.296 11.261 0 15.557l16.634 16.634c2.148 2.148 4.963 3.222 7.778 3.222 2.814 0 5.631-1.074 7.778-3.222l31.409-31.408c4.296-4.296 4.296-11.261 0-15.557-4.295-4.295-11.26-4.297-15.556-.001z"/><path d="m407.535 136.935h-117.093c-4.093-29.86-10.482-56.86-18.758-78.687-12.04-31.756-25.723-46.925-38.016-53.567l-17.423 17.423-17.447-17.448c-13.55 7.294-28.626 24.866-41.365 63.084-6.725 20.174-11.917 43.661-15.409 69.194h-117.068v22h114.531c-1.75 18.463-2.657 37.74-2.657 57.415s.908 38.952 2.657 57.415h-114.531v22h117.069c3.492 25.533 8.684 49.021 15.409 69.194 18.634 55.902 42.268 67.637 58.812 67.637v-22c-18.123 0-41.651-42.235-52.059-114.831h76.946v-22h-79.593c-1.735-17.696-2.71-36.877-2.71-57.415s.975-39.719 2.71-57.415h109.353c.96 9.7 1.68 19.657 2.143 29.798l21.977-1.004c-.446-9.768-1.126-19.385-2.023-28.794h114.545zm-243.348 0c10.408-72.596 33.936-114.831 52.059-114.831 11.399 0 24.435 16.428 34.867 43.944 7.442 19.626 13.265 43.899 17.128 70.887z"/></g><g><path d="m381.783 279.521h75.217c6.075 0 11-4.925 11-11s-4.925-11-11-11h-75.217c-6.075 0-11 4.925-11 11s4.925 11 11 11z"/><path d="m381.783 323.521h40.598c6.075 0 11-4.925 11-11s-4.925-11-11-11h-40.598c-6.075 0-11 4.925-11 11s4.925 11 11 11z"/><path d="m381.783 387.538h75.217c6.075 0 11-4.925 11-11s-4.925-11-11-11h-75.217c-6.075 0-11 4.925-11 11s4.925 11 11 11z"/><path d="m381.783 431.538h40.598c6.075 0 11-4.925 11-11s-4.925-11-11-11h-40.598c-6.075 0-11 4.925-11 11s4.925 11 11 11z"/><path d="m501 180.935h-71.409c-17.07-103.67-107.324-180.831-213.345-180.831-57.762 0-112.065 22.493-152.909 63.337s-63.337 95.147-63.337 152.909 22.493 112.065 63.337 152.909 95.147 63.337 152.909 63.337c6.163 0 12.35-.264 18.494-.784v69.084c0 6.075 4.925 11 11 11h255.26c6.075 0 11-4.925 11-11v-308.961c0-6.076-4.925-11-11-11zm-284.754 229.661c-107.107 0-194.246-87.139-194.246-194.246s87.139-194.246 194.246-194.246c94.012 0 174.221 67.532 191.015 158.831h-161.521c-6.075 0-11 4.925-11 11v217.784c-6.135.578-12.327.877-18.494.877zm273.754 79.3h-233.26v-286.961h233.26z"/></g></g></g><g/><g/><g/><g/><g/><g/><g/><g/><g/><g/><g/><g/><g/><g/><g/></svg>