<svg id="Capa_1" enable-background="new 0 0 512 512" viewBox="0 0 512 512" xmlns="http://www.w3.org/2000/svg" fill="#E6ECF2"><g><g fill="#0496FF"><path d="m397.878 152.973c2.148 2.148 4.963 3.221 7.778 3.221s5.63-1.074 7.778-3.222l18.561-18.561c4.296-4.296 4.296-11.26 0-15.556-4.297-4.296-11.26-4.296-15.557 0l-10.782 10.783-1.023-1.024c-4.297-4.295-11.262-4.295-15.557.001-4.296 4.296-4.296 11.261 0 15.556z"/><path d="m117.951 133.169h-30.167c-6.075 0-11 4.925-11 11s4.925 11 11 11h30.167c6.075 0 11-4.925 11-11s-4.925-11-11-11z"/><path d="m347.21 133.169h-180.453c-6.075 0-11 4.925-11 11s4.925 11 11 11h180.453c6.075 0 11-4.925 11-11s-4.925-11-11-11z"/><path d="m416.438 182.145-10.782 10.783-1.023-1.024c-4.297-4.295-11.262-4.295-15.557.001-4.296 4.296-4.296 11.261 0 15.556l8.802 8.801c2.148 2.148 4.963 3.221 7.778 3.221s5.63-1.074 7.778-3.222l18.561-18.561c4.296-4.296 4.296-11.26 0-15.556-4.297-4.295-11.26-4.295-15.557.001z"/><path d="m117.951 196.458h-30.167c-6.075 0-11 4.925-11 11s4.925 11 11 11h30.167c6.075 0 11-4.925 11-11s-4.925-11-11-11z"/><path d="m347.21 196.458h-180.453c-6.075 0-11 4.925-11 11s4.925 11 11 11h180.453c6.075 0 11-4.925 11-11s-4.925-11-11-11z"/><path d="m416.438 245.434-10.782 10.783-1.023-1.024c-4.297-4.295-11.262-4.295-15.557.001-4.296 4.296-4.296 11.261 0 15.556l8.802 8.801c2.148 2.148 4.963 3.221 7.778 3.221s5.63-1.074 7.778-3.222l18.561-18.561c4.296-4.296 4.296-11.26 0-15.556-4.297-4.295-11.26-4.295-15.557.001z"/><path d="m117.951 259.747h-30.167c-6.075 0-11 4.925-11 11s4.925 11 11 11h30.167c6.075 0 11-4.925 11-11s-4.925-11-11-11z"/><path d="m347.21 259.747h-180.453c-6.075 0-11 4.925-11 11s4.925 11 11 11h180.453c6.075 0 11-4.925 11-11s-4.925-11-11-11z"/></g><path d="m495.716 374.005v-285.529c0-17.049-13.87-30.919-30.919-30.919h-417.593c-17.049 0-30.919 13.87-30.919 30.919v285.529c-9.537 3.856-16.285 13.207-16.285 24.11v35.329c0 11.579 9.421 21 21 21h470c11.579 0 21-9.421 21-21v-35.329c0-10.903-6.748-20.253-16.284-24.11zm-448.512-294.448h417.593c4.918 0 8.919 4.001 8.919 8.919v283.639h-35.371v-33.087c0-11.194-9.106-20.301-20.301-20.301h-110.357c-11.194 0-20.301 9.107-20.301 20.301v33.087h-249.101v-283.639c0-4.918 4.001-8.919 8.919-8.919zm262.182 292.558v-31.388h106.959v31.388zm180.614 60.328h-468v-34.329c0-2.206 1.794-4 4-4h460c2.206 0 4 1.794 4 4z"/></g><g/><g/><g/><g/><g/><g/><g/><g/><g/><g/><g/><g/><g/><g/><g/></svg>