<svg id="Capa_1" enable-background="new 0 0 512 512" viewBox="0 0 512 512" xmlns="http://www.w3.org/2000/svg" fill="#E6ECF2"><g><g><path d="m412.974 0h-401.974c-6.075 0-11 4.925-11 11v412.82c0 6.075 4.925 11 11 11h307.156v-22h-296.156v-302.82h379.973v189.435h22v-288.435c.001-6.075-4.924-11-10.999-11zm-11 88h-379.974v-66h379.973v66z"/><path d="m214.299 66h149.721c6.075 0 11-4.925 11-11s-4.925-11-11-11h-149.721c-6.075 0-11 4.925-11 11s4.925 11 11 11z"/><path d="m222.331 132h-75.217c-6.075 0-11 4.925-11 11s4.925 11 11 11h75.217c6.075 0 11-4.925 11-11s-4.924-11-11-11z"/><path d="m147.114 198h21.628c6.075 0 11-4.925 11-11s-4.925-11-11-11h-21.628c-6.075 0-11 4.925-11 11s4.925 11 11 11z"/><path d="m147.114 242h45.958c6.075 0 11-4.925 11-11s-4.925-11-11-11h-45.958c-6.075 0-11 4.925-11 11s4.925 11 11 11z"/><path d="m147.114 286h21.628c6.075 0 11-4.925 11-11s-4.925-11-11-11h-21.628c-6.075 0-11 4.925-11 11s4.925 11 11 11z"/><path d="m233.331 319c0-6.075-4.925-11-11-11h-75.217c-6.075 0-11 4.925-11 11s4.925 11 11 11h75.217c6.076 0 11-4.925 11-11z"/><path d="m147.114 352c-6.075 0-11 4.925-11 11s4.925 11 11 11h22.979c6.075 0 11-4.925 11-11s-4.925-11-11-11z"/><circle cx="60.12" cy="55.001" r="11"/><circle cx="104.12" cy="55.001" r="11"/><circle cx="148.12" cy="55.001" r="11"/></g><g fill="#0496FF"><path d="m405.207 351.936c-27.055 0-49.065 22.01-49.065 49.064s22.01 49.064 49.065 49.064c27.054 0 49.064-22.01 49.064-49.064s-22.01-49.064-49.064-49.064zm0 76.128c-14.924 0-27.065-12.141-27.065-27.064s12.141-27.064 27.065-27.064c14.923 0 27.064 12.141 27.064 27.064s-12.141 27.064-27.064 27.064z"/><path d="m498.811 415.568c.745-4.814 1.121-9.694 1.121-14.568s-.376-9.754-1.121-14.568l10.541-12.299c3.038-3.544 3.508-8.619 1.173-12.66l-18.389-31.834c-2.334-4.041-6.962-6.165-11.548-5.311l-15.868 2.969c-7.661-6.204-16.14-11.113-25.312-14.654l-5.373-15.257c-1.549-4.397-5.701-7.341-10.363-7.346l-36.695-.04c-.004 0-.008 0-.012 0-4.666 0-8.825 2.944-10.375 7.346l-5.356 15.208c-9.245 3.541-17.787 8.47-25.503 14.714l-15.877-2.972c-4.58-.855-9.207 1.267-11.543 5.301l-18.358 31.704c-2.341 4.042-1.873 9.123 1.167 12.67l10.513 12.268c-.765 4.877-1.151 9.821-1.151 14.762s.386 9.885 1.151 14.762l-10.513 12.268c-3.04 3.547-3.508 8.628-1.167 12.67l18.358 31.704c2.336 4.035 6.961 6.152 11.543 5.301l15.877-2.972c7.716 6.244 16.259 11.173 25.503 14.714l5.356 15.208c1.55 4.401 5.709 7.346 10.375 7.346h36.695c4.669 0 8.83-2.947 10.377-7.353l5.375-15.291c9.171-3.542 17.647-8.449 25.308-14.653l15.868 2.969c4.583.858 9.214-1.27 11.548-5.311l18.389-31.834c2.335-4.041 1.865-9.116-1.173-12.66zm-22.521-29.988c1.089 5.05 1.642 10.238 1.642 15.42s-.553 10.37-1.642 15.42c-.725 3.361.163 6.868 2.4 9.479l8.888 10.37-10.598 18.347-13.397-2.507c-3.387-.635-6.879.357-9.429 2.679-7.773 7.078-16.767 12.286-26.732 15.479-3.28 1.052-5.878 3.578-7.021 6.828l-4.535 12.905h-21.113l-4.522-12.841c-1.147-3.257-3.757-5.786-7.048-6.83-10.028-3.183-19.077-8.402-26.895-15.515-2.549-2.319-6.038-3.307-9.426-2.676l-13.411 2.51-10.553-18.225 8.864-10.343c2.243-2.617 3.13-6.135 2.395-9.503-1.113-5.101-1.677-10.342-1.677-15.578s.564-10.478 1.677-15.578c.735-3.368-.152-6.886-2.395-9.503l-8.864-10.343 10.553-18.225 13.411 2.51c3.39.634 6.876-.357 9.426-2.676 7.818-7.112 16.866-12.332 26.895-15.515 3.291-1.044 5.901-3.573 7.048-6.83l4.519-12.832 21.118.022 4.536 12.881c1.144 3.246 3.741 5.771 7.019 6.821 9.965 3.193 18.958 8.401 26.732 15.479 2.549 2.321 6.039 3.315 9.429 2.679l13.397-2.507 10.598 18.347-8.888 10.37c-2.238 2.613-3.126 6.12-2.401 9.481z"/><path d="m95.336 143.584-23.63 23.63-8.855-8.855c-4.296-4.295-11.261-4.295-15.557 0-4.295 4.296-4.295 11.261 0 15.557l16.634 16.634c2.148 2.148 4.963 3.222 7.778 3.222s5.63-1.074 7.778-3.222l31.409-31.408c4.295-4.296 4.296-11.261 0-15.557-4.297-4.296-11.261-4.297-15.557-.001z"/><path d="m95.336 231.584-23.63 23.63-8.855-8.855c-4.296-4.295-11.261-4.295-15.557 0-4.295 4.296-4.295 11.261 0 15.557l16.634 16.634c2.148 2.148 4.963 3.222 7.778 3.222s5.63-1.074 7.778-3.222l31.409-31.408c4.295-4.296 4.296-11.261 0-15.557-4.297-4.296-11.261-4.297-15.557-.001z"/><path d="m95.336 319.584-23.63 23.63-8.855-8.855c-4.296-4.295-11.261-4.295-15.557 0-4.295 4.296-4.295 11.261 0 15.557l16.634 16.634c2.148 2.148 4.963 3.222 7.778 3.222s5.63-1.074 7.778-3.222l31.409-31.408c4.295-4.296 4.296-11.261 0-15.557-4.297-4.297-11.261-4.297-15.557-.001z"/><path d="m369.072 267.127c6.075 0 11-4.925 11-11v-95.126c0-6.075-4.925-11-11-11h-44c-6.075 0-11 4.925-11 11v16.498h-33c-6.075 0-11 4.925-11 11v12.628h-33c-6.075 0-11 4.925-11 11v44c0 6.075 4.925 11 11 11zm-33-95.126h22v73.126h-22zm-88 51.126h22v22h-22zm44-23.628h22v45.628h-22z"/></g></g><g/><g/><g/><g/><g/><g/><g/><g/><g/><g/><g/><g/><g/><g/><g/></svg>