<svg id="Capa_1" enable-background="new 0 0 512 512" viewBox="0 0 512 512" xmlns="http://www.w3.org/2000/svg" fill="#E6ECF2"><g><g><path d="m82.235 167.411 19.55 19.55c2.063 2.063 4.861 3.222 7.778 3.222s5.715-1.159 7.778-3.222l19.5-19.5c11.941 1.06 42.867 7.133 55.988 41.286 1.336 3.477 4.34 6.042 7.983 6.815.76.162 1.525.24 2.286.24 2.887 0 5.694-1.137 7.778-3.222l32.368-32.369c4.29-4.289 11.269-4.288 15.556-.001.984.985 1.762 2.12 2.309 3.373l20.162-8.802c-1.65-3.782-3.977-7.189-6.913-10.126-12.867-12.866-33.802-12.866-46.669 0l-21.484 21.485c-17.77-29.403-46.747-37.688-62.767-40.008v-20.259c.107-.104.219-.201.326-.306 9.34-9.22 14.484-21.524 14.484-34.647v-34.266c6.223-7.191 10-16.553 10-26.787v-18.867c0-6.075-4.925-11-11-11h-55.442c-22.568 0-40.926 18.358-40.926 40.924v49.434c0 13.767 5.693 26.279 14.809 35.251v20.326c-42.626 5.422-75.689 41.92-75.689 85.995v84.07c0 18.196 14.804 33 33 33 3.856 0 7.557-.671 11-1.892v153.892c0 6.075 4.925 11 11 11h109.125c6.075 0 11-4.925 11-11v-228h33c2.917 0 5.715-1.159 7.778-3.222l58.455-58.455c2.786-2.787 5.027-6.005 6.662-9.565l-19.994-9.179c-.542 1.181-1.291 2.254-2.226 3.188l-55.231 55.233h-28.444v-17.729c0-6.075-4.925-11-11-11s-11 4.925-11 11v61.729h-87.125v-61.729c0-6.075-4.925-11-11-11s-11 4.925-11 11v82.729c0 6.065-4.935 11-11 11s-11-4.935-11-11v-84.07c0-34.171 26.637-62.221 60.235-64.519zm39.202-15.659-11.874 11.874-11.874-11.874v-13.654c3.605.924 7.363 1.451 11.231 1.501.218.003.434.004.651.004 4.054 0 8.031-.494 11.866-1.45zm6.87-41.841c-5.119 5.053-11.932 7.766-19.102 7.69-14.516-.188-26.325-12.409-26.325-27.243v-19.491h44.366c3.093 0 6.102-.355 9-1.008v21.061c0 7.192-2.819 13.937-7.939 18.991zm-45.427-68.987c0-10.435 8.489-18.924 18.924-18.924h44.442v7.867c0 10.477-8.523 19-19 19h-44.366zm37.683 276.076h32.562v173h-32.562zm-54.563 0h32.563v173h-32.563z"/><path d="m501 315.883h-11v-10.469c0-25.91-14.62-48.461-36.038-59.863 6.916-7.616 11.136-17.723 11.136-28.797v-28.685c0-23.643-19.234-42.877-42.877-42.877s-42.878 19.235-42.878 42.877v28.685c0 11.074 4.22 21.181 11.137 28.797-21.418 11.402-36.038 33.953-36.038 59.863v10.469h-11c-6.075 0-11 4.925-11 11s4.925 11 11 11h1.38v163.117c0 6.075 4.925 11 11 11s11-4.925 11-11v-109.117h110.799v109.117c0 6.075 4.925 11 11 11s11-4.925 11-11v-163.117h1.379c6.075 0 11-4.925 11-11s-4.925-11-11-11zm-78.778-148.692c10.188 0 18.693 7.334 20.516 17h-41.032c1.821-9.666 10.328-17 20.516-17zm-20.878 39h41.755v10.562c0 11.512-9.365 20.878-20.877 20.878s-20.878-9.366-20.878-20.878zm-24.902 99.223c0-25.243 20.536-45.779 45.779-45.779 25.242 0 45.778 20.536 45.778 45.779v10.469h-91.558v-10.469zm101.179 64.469h-110.799v-32h110.799z"/></g><path d="m329.725 168.183h-58.702c-6.075 0-11 4.925-11 11v88.053c0 6.075 4.925 11 11 11h58.702c6.075 0 11-4.925 11-11v-88.053c0-6.076-4.925-11-11-11zm-11 88.052h-36.702v-66.053h36.702z" fill="#0496FF"/></g><g/><g/><g/><g/><g/><g/><g/><g/><g/><g/><g/><g/><g/><g/><g/></svg>