<svg id="Capa_1" enable-background="new 0 0 512 512" viewBox="0 0 512 512" xmlns="http://www.w3.org/2000/svg" fill="#052438"><g><g><path d="m501 315.883h-11v-10.469c0-25.91-14.62-48.461-36.038-59.863 6.916-7.616 11.136-17.723 11.136-28.797v-28.685c0-23.643-19.234-42.877-42.877-42.877s-42.878 19.235-42.878 42.877v28.685c0 11.074 4.22 21.181 11.137 28.797-21.418 11.402-36.038 33.953-36.038 59.863v10.469h-11c-6.075 0-11 4.925-11 11s4.925 11 11 11h1.38v163.117c0 6.075 4.925 11 11 11s11-4.925 11-11v-109.117h110.799v109.117c0 6.075 4.925 11 11 11s11-4.925 11-11v-163.117h1.379c6.075 0 11-4.925 11-11s-4.925-11-11-11zm-99.656-109.692h41.755v10.562c0 11.512-9.365 20.878-20.877 20.878s-20.878-9.366-20.878-20.878zm20.878-39c10.188 0 18.693 7.334 20.516 17h-41.032c1.821-9.666 10.328-17 20.516-17zm0 92.444c25.242 0 45.778 20.536 45.778 45.779v10.469h-91.558v-10.469c0-25.243 20.537-45.779 45.78-45.779zm55.399 110.248h-110.799v-32h110.799z"/><path d="m143.437 145.936v-20.062c.107-.104.219-.201.326-.306 9.34-9.22 14.484-21.524 14.484-34.647v-42.238c-.001-26.844-21.84-48.683-48.685-48.683h-21.682c-39.149 0-71 31.851-71 71 0 9.142-1.886 18.011-5.605 26.362l-3.443 7.731c-.627 1.408-.952 2.933-.952 4.475v1.13c0 12.958 10.542 23.501 23.501 23.501h45.308v11.736c-42.626 5.422-75.689 41.92-75.689 85.995v84.07c0 18.196 14.804 33 33 33 1.353 0 2.685-.091 3.996-.251l-12.587 44.85c-.93 3.314-.255 6.874 1.825 9.617 2.08 2.744 5.324 4.355 8.766 4.355h9v93.429c0 6.075 4.925 11 11 11h109.125c6.075 0 11-4.925 11-11v-93.429h9c3.442 0 6.687-1.612 8.766-4.355 2.08-2.743 2.755-6.302 1.825-9.617l-12.587-44.85c1.311.159 2.643.251 3.996.251 18.196 0 33-14.804 33-33v-84.07c0-44.075-33.063-80.573-75.688-85.994zm9.688 179.373c0 1.005.138 2.005.409 2.972l16.079 57.291h-120.101l16.079-57.291c.271-.967.409-1.967.409-2.972v-154.655c3.767-1.275 7.685-2.215 11.725-2.778 4.738 12.999 17.221 22.307 31.838 22.307s27.1-9.307 31.838-22.307c4.04.563 7.958 1.502 11.725 2.778v154.655zm-31.688-169c0 6.547-5.327 11.874-11.874 11.874s-11.874-5.327-11.874-11.874v-18.211c3.605.924 7.363 1.451 11.231 1.501.218.003.434.004.651.004 4.054 0 8.031-.494 11.866-1.45zm6.87-46.398c-5.118 5.052-11.887 7.774-19.102 7.69-14.516-.188-26.325-12.409-26.325-27.243v-19.491h53.366v20.053c0 7.192-2.819 13.937-7.939 18.991zm-18.744-87.911c14.713 0 26.683 11.97 26.683 26.683v.184h-53.366v-.184c0-14.713 11.97-26.683 26.683-26.683zm-80.48 89.452 2.289-5.139c4.982-11.187 7.508-23.067 7.508-35.313 0-19.105 10.998-35.68 26.989-43.757-3.189 6.473-4.989 13.75-4.989 21.44v41.675c0 7.826 1.848 15.244 5.108 21.842h-35.607c-.553 0-1.038-.302-1.298-.748zm-7.083 204.548v-84.07c0-19.321 8.526-36.679 22-48.543v132.613c0 6.065-4.935 11-11 11s-11-4.935-11-11zm44 91.571h32.563v82.429h-32.563zm87.125 82.429h-32.562v-82.429h32.562zm44-174c0 6.065-4.935 11-11 11s-11-4.935-11-11v-132.613c13.474 11.864 22 29.222 22 48.543z"/></g><path d="m376.951 43.222c-2.063-2.063-4.861-3.222-7.778-3.222h-59.001v-29c0-6.075-4.925-11-11-11h-106.506c-6.075 0-11 4.925-11 11v89.358c0 6.075 4.925 11 11 11h18.221l17.891 17.891c2.148 2.148 4.963 3.222 7.778 3.222s5.63-1.074 7.778-3.222l7.333-7.332v18.441c0 6.075 4.925 11 11 11h36.947l17.892 17.891c2.148 2.148 4.963 3.222 7.778 3.222s5.63-1.074 7.778-3.222l17.891-17.891h18.22c6.075 0 11-4.925 11-11v-89.358c0-2.917-1.159-5.715-3.222-7.778zm-140.396 62.693-13.334-13.335c-2.063-2.063-4.861-3.222-7.778-3.222h-11.777v-67.358h84.506v67.358h-30.504c-2.917 0-5.715 1.159-7.778 3.222zm121.617 23.443h-11.776c-2.917 0-5.715 1.159-7.778 3.222l-13.334 13.334-13.335-13.335c-2.063-2.063-4.861-3.222-7.778-3.222h-30.504v-18h25.506c6.075 0 11-4.925 11-11v-38.357h48.001z" fill="#0496FF"/></g><g/><g/><g/><g/><g/><g/><g/><g/><g/><g/><g/><g/><g/><g/><g/></svg>