<svg id="Capa_1" enable-background="new 0 0 512 512" viewBox="0 0 512 512" xmlns="http://www.w3.org/2000/svg" fill="#052438"><g><path d="m304.41 311.995h-96.82c-6.075 0-11 4.925-11 11v54.851h22v-43.851h74.819v45.254h22v-56.254c.001-6.076-4.924-11-10.999-11z" fill="#0496FF"/><g><path d="m256 178.818c20.67 0 37.486-16.816 37.486-37.486 0-6.075-4.925-11-11-11s-11 4.925-11 11c0 8.539-6.947 15.486-15.486 15.486s-15.486-6.947-15.486-15.486c0-6.075-4.925-11-11-11s-11 4.925-11 11c0 20.669 16.816 37.486 37.486 37.486z"/><path d="m501 420.845h-22-42.823c.845-1.049 1.666-2.121 2.444-3.234 11.036-15.801 13.664-36.038 7.029-54.134l-16.733-45.64c-10.282-28.045-28.661-51.91-53.15-69.014-21.466-14.994-46.195-23.788-72.092-25.731v-16.295c19.385-14.068 32.352-36.467 33.582-61.898 11.78-4.136 20.504-14.784 21.883-27.599l7.906-12.364c10.808-16.901 12.044-37.773 3.308-55.833-8.736-18.059-25.868-30.045-45.828-32.062l-21.768-2.2c-13.24-9.335-29.364-14.841-46.758-14.841s-33.518 5.506-46.757 14.84l-21.768 2.2c-19.96 2.017-37.092 14.003-45.829 32.062s-7.5 38.931 3.308 55.833l7.906 12.364c1.38 12.815 10.103 23.464 21.883 27.599 1.23 25.431 14.197 47.83 33.582 61.898v16.295c-25.897 1.943-50.625 10.737-72.092 25.731-24.489 17.104-42.868 40.969-53.15 69.014l-16.733 45.64c-6.635 18.096-4.007 38.333 7.029 54.134.777 1.113 1.598 2.186 2.444 3.234h-64.823c-6.075 0-11 4.925-11 11s4.925 11 11 11h11v58.156c0 6.075 4.925 11 11 11h446c6.075 0 11-4.925 11-11v-58.155h11c6.075 0 11-4.925 11-11s-4.925-11-11-11zm-297.17-175.162c3.438-.44 6.908-.747 10.409-.893l18.716 18.716-29.125 4.61zm93.932-.894c3.5.146 6.97.453 10.409.893v22.433l-29.125-4.611zm52.787-186.105c4.974 10.282 4.69 22.041-.635 31.984-3.487-3.559-7.771-6.335-12.561-8.033v-1.282c0-15.316-4.26-29.653-11.649-41.899 10.827 2.147 19.965 9.142 24.845 19.23zm-189.098 0c4.88-10.088 14.018-17.082 24.845-19.23-7.389 12.246-11.648 26.583-11.648 41.899v1.282c-4.79 1.698-9.074 4.474-12.561 8.033-5.325-9.944-5.61-21.702-.636-31.984zm35.196 82.238v-5.172c0-6.075-4.925-11-11-11-6.065 0-11-4.935-11-11s4.935-11 11-11c6.075 0 11-4.925 11-11v-10.397c0-32.728 26.626-59.353 59.353-59.353s59.353 26.625 59.353 59.353v10.397c0 6.075 4.925 11 11 11 6.065 0 11 4.935 11 11s-4.935 11-11 11c-6.075 0-11 4.925-11 11v5.171c0 32.727-26.625 59.353-59.353 59.353s-59.353-26.625-59.353-59.352zm59.353 81.352c8.971 0 17.598-1.48 25.674-4.174v11.664l-25.674 25.674-25.674-25.674v-11.664c8.076 2.694 16.703 4.174 25.674 4.174zm-164.584 182.739c-7.027-10.062-8.635-22.44-4.41-33.963l16.733-45.64c13.25-36.139 42.601-63.398 78.09-74.831v30.415c0 3.218 1.409 6.274 3.856 8.364 2.005 1.713 4.543 2.636 7.144 2.636.572 0 1.147-.044 1.72-.135l61.451-9.727 61.451 9.728c.573.091 1.148.135 1.72.135 2.6 0 5.138-.923 7.144-2.636 2.447-2.09 3.856-5.146 3.856-8.364v-30.415c35.489 11.432 64.84 38.692 78.09 74.83l16.733 45.64c4.225 11.522 2.617 23.901-4.41 33.963s-18.097 15.832-30.369 15.832h-53.215v-32h35.341c6.075 0 11-4.925 11-11s-4.925-11-11-11h-69.341c-20.953 0-38 17.047-38 38 0 5.714 1.276 11.133 3.545 16h-25.089c2.269-4.867 3.545-10.286 3.545-16 0-20.953-17.047-38-38-38h-69.341c-6.075 0-11 4.925-11 11s4.925 11 11 11h35.34v32h-53.215c-12.272 0-23.342-5.77-30.369-15.832zm211.584 15.832c-8.822 0-16-7.178-16-16s7.178-16 16-16h12v32zm-106-32h12c8.822 0 16 7.178 16 16s-7.178 16-16 16h-12zm271 101.155h-424v-47.155h424z"/></g></g><g/><g/><g/><g/><g/><g/><g/><g/><g/><g/><g/><g/><g/><g/><g/></svg>