<svg id="Layer_1" enable-background="new 0 0 512 512" viewBox="0 0 512 512" xmlns="http://www.w3.org/2000/svg" fill="#052438"><g><path d="m430.797 152.078-167.478-149.289c-4.171-3.719-10.468-3.719-14.639 0l-167.477 149.289c-3.407 3.037-4.585 7.862-2.96 12.127 1.625 4.266 5.715 7.084 10.279 7.084h33.978v34.503c0 6.075 4.925 11 11 11s11-4.925 11-11v-45.503c0-6.075-4.925-11-11-11h-16.106l138.606-123.553 138.606 123.553h-16.106c-6.075 0-11 4.925-11 11v45.503c0 6.075 4.925 11 11 11s11-4.925 11-11v-34.503h33.979c4.564 0 8.654-2.818 10.279-7.084 1.624-4.265.447-9.09-2.961-12.127z" fill="#0496FF"/><path d="m471.64 418.676c7.378-7.842 11.904-18.395 11.904-29.985 0-20.351-13.953-37.504-32.794-42.396v-7.898c0-28.4-16.471-53.024-40.361-64.824 7.378-7.842 11.905-18.395 11.905-29.986 0-24.148-19.646-43.794-43.794-43.794s-43.794 19.646-43.794 43.794c0 11.591 4.527 22.145 11.905 29.986-12.07 5.962-22.246 15.197-29.361 26.538-7.115-11.342-17.291-20.577-29.361-26.538 7.378-7.842 11.905-18.395 11.905-29.986 0-24.148-19.646-43.794-43.794-43.794s-43.794 19.646-43.794 43.794c0 11.591 4.527 22.145 11.905 29.986-12.07 5.962-22.246 15.197-29.36 26.538-7.115-11.342-17.291-20.577-29.361-26.539 7.378-7.842 11.905-18.395 11.905-29.986 0-24.148-19.646-43.794-43.794-43.794s-43.794 19.646-43.794 43.794c0 11.591 4.527 22.144 11.905 29.986-23.89 11.8-40.361 36.425-40.361 64.824v7.898c-18.842 4.892-32.794 22.045-32.794 42.396 0 11.591 4.527 22.144 11.905 29.986-23.892 11.8-40.362 36.425-40.362 64.824v17.5c0 6.075 4.925 11 11 11h490c6.075 0 11-4.925 11-11v-17.5c0-28.399-16.47-53.024-40.36-64.824zm-10.096-29.986c0 12.018-9.777 21.794-21.794 21.794-12.018 0-21.794-9.776-21.794-21.794s9.777-21.795 21.794-21.795c12.017.001 21.794 9.778 21.794 21.795zm-83.044-166.898c12.017 0 21.794 9.776 21.794 21.794s-9.777 21.795-21.794 21.795-21.794-9.777-21.794-21.795 9.776-21.794 21.794-21.794zm0 66.354c27.708 0 50.25 22.542 50.25 50.25v7.898c-18.841 4.892-32.794 22.045-32.794 42.396 0 11.591 4.527 22.144 11.905 29.986-12.07 5.962-22.245 15.197-29.36 26.538-7.115-11.342-17.291-20.577-29.361-26.539 7.378-7.842 11.904-18.394 11.904-29.985 0-20.35-13.952-37.503-32.793-42.396v-7.898c0-.017 0-.034 0-.052.027-27.683 22.558-50.198 50.249-50.198zm-61.25 78.75c12.017 0 21.794 9.777 21.794 21.795s-9.777 21.794-21.794 21.794-21.794-9.776-21.794-21.794 9.776-21.795 21.794-21.795zm-61.25-145.104c12.017 0 21.794 9.776 21.794 21.794s-9.777 21.795-21.794 21.795-21.794-9.777-21.794-21.795 9.776-21.794 21.794-21.794zm0 66.354c27.691 0 50.222 22.514 50.25 50.198v.052 7.898c-18.841 4.892-32.794 22.045-32.794 42.396 0 11.591 4.527 22.144 11.905 29.986-12.07 5.962-22.245 15.197-29.36 26.538-7.115-11.342-17.291-20.577-29.36-26.538 7.378-7.842 11.904-18.395 11.904-29.985 0-20.351-13.953-37.504-32.794-42.396v-7.898c-.001-27.709 22.541-50.251 50.249-50.251zm-61.25 78.75c12.017 0 21.794 9.777 21.794 21.795s-9.777 21.794-21.794 21.794c-12.018 0-21.794-9.776-21.794-21.794s9.776-21.795 21.794-21.795zm-61.25-145.104c12.017 0 21.794 9.776 21.794 21.794s-9.777 21.795-21.794 21.795-21.794-9.777-21.794-21.795 9.777-21.794 21.794-21.794zm0 66.354c27.708 0 50.25 22.542 50.25 50.25v7.898c-18.842 4.892-32.794 22.045-32.794 42.396 0 11.591 4.527 22.144 11.905 29.986-12.07 5.962-22.245 15.197-29.36 26.538-7.115-11.342-17.291-20.577-29.36-26.538 7.378-7.842 11.904-18.395 11.904-29.985 0-20.351-13.953-37.504-32.794-42.396v-7.898c-.001-27.709 22.541-50.251 50.249-50.251zm-61.25 78.75c12.017 0 21.794 9.777 21.794 21.795s-9.777 21.794-21.794 21.794c-12.018 0-21.794-9.776-21.794-21.794s9.776-21.795 21.794-21.795zm-50.25 116.604c0-27.708 22.542-50.25 50.25-50.25s50.25 22.542 50.25 50.25v6.5h-100.5zm122.5 0c0-27.708 22.542-50.25 50.25-50.25s50.25 22.542 50.25 50.25v6.5h-100.5zm122.5 0c0-27.708 22.542-50.25 50.25-50.25s50.25 22.542 50.25 50.25v6.5h-100.5zm223 6.5h-100.5v-6.5c0-27.708 22.542-50.25 50.25-50.25s50.25 22.542 50.25 50.25z"/></g><g/><g/><g/><g/><g/><g/><g/><g/><g/><g/><g/><g/><g/><g/><g/></svg>