<svg id="Capa_1" enable-background="new 0 0 512 512" viewBox="0 0 512 512" xmlns="http://www.w3.org/2000/svg" fill="#052438"><g><g><g><path d="m287.583 457.438c-1.007 0-2.031-.14-3.048-.432-21.197-6.103-36.002-25.784-36.002-47.861 0-11.64 4.103-22.964 11.554-31.887 10.801-12.938 16.75-28.776 16.75-44.595v-29.842c0-57.032 46.398-103.43 103.43-103.43s103.43 46.398 103.43 103.43v29.842c0 15.82 5.948 31.658 16.75 44.595 7.45 8.922 11.554 20.246 11.554 31.886 0 22.124-14.219 41.284-35.381 47.677-5.817 1.759-11.955-1.534-13.712-7.349s1.533-11.954 7.349-13.711c11.624-3.51 19.743-14.456 19.743-26.616 0-6.496-2.287-12.812-6.44-17.786-14.099-16.886-21.863-37.731-21.863-58.695v-29.842c0-44.901-36.529-81.43-81.43-81.43s-81.43 36.529-81.43 81.43v29.842c0 20.962-7.765 41.807-21.862 58.694-4.154 4.975-6.441 11.292-6.441 17.787 0 12.327 8.261 23.314 20.088 26.719 5.838 1.681 9.208 7.776 7.527 13.614-1.388 4.822-5.786 7.96-10.566 7.96z" fill="#0496FF"/></g><g><path d="m69.585 310.683c-.229 0-.458-.007-.688-.021-23.671-1.461-42.213-21.18-42.213-44.893 0-36.265 29.503-65.769 65.768-65.769 15.57 0 30.704 4.046 44.121 11.75 19.413-8.589 42.299-5.932 59.112 7.066 14.171 10.918 22.632 28.118 22.632 46.008v.945c0 23.27-17.448 42.509-40.585 44.751-6.044.582-11.423-3.841-12.01-9.888-.586-6.047 3.841-11.424 9.888-12.01 11.805-1.144 20.708-10.969 20.708-22.854v-.945c0-11.113-5.256-21.798-14.059-28.581-10.141-7.814-23.804-9.662-35.656-4.824l-6.895 2.814c-3.38 1.379-7.223.992-10.259-1.032-10.993-7.326-23.786-11.2-36.997-11.2-24.134 0-43.768 19.634-43.768 43.768 0 12.114 9.474 22.188 21.568 22.935 6.063.374 10.676 5.593 10.301 11.657-.359 5.832-5.203 10.323-10.968 10.323z" fill="#0496FF"/></g></g><g><path d="m502.517 498.67-7.635-35.22c-3.528-16.273-16.396-28.701-32.781-31.661l-16.474-2.976c-3.318-8.446-10.104-15.087-18.813-18.175l-8.273-2.933-3.676-16.307c17.874-11.446 29.755-31.465 29.755-54.219v-27.464c0-6.075-4.982-11-11.058-11-16.513-.001-32.251-7.916-42.1-21.17l-2.367-3.187c-2.075-2.793-5.35-4.44-8.83-4.44-3.479 0-6.754 1.646-8.83 4.439l-2.367 3.187c-9.85 13.258-25.588 21.171-42.104 21.171-.001 0-.004 0-.005 0h-.001c-6.067 0-10.989 4.913-11 10.981l-.047 27.347c-.036 17.216 6.641 33.408 18.801 45.594 3.351 3.358 7.015 6.283 10.914 8.784l-3.624 16.19-8.363 2.99c-8.696 3.109-15.465 9.766-18.762 18.218l-16.446 2.971c-16.385 2.96-29.252 15.388-32.78 31.661l-7.635 35.22c-.705 3.251.1 6.646 2.188 9.236s5.236 4.095 8.562 4.095h223c3.326 0 6.475-1.505 8.562-4.095s2.894-5.986 2.189-9.237zm-76.946-60.51c.364 1.519.864 5.418-2.362 8.819l-9.613 10.136-16.886-15.434 14.736-13.151 8.018 2.843c4.417 1.568 5.742 5.269 6.107 6.787zm-87.629-118.268c16.036-2.416 30.977-10.054 42.325-21.659 11.349 11.604 26.289 19.241 42.354 21.658v17.289c0 23.354-19 42.354-42.354 42.354-11.33 0-21.978-4.417-29.98-12.437-8.004-8.021-12.398-18.677-12.374-30.012zm42.325 81.642c4.803 0 9.478-.546 13.984-1.548l2.703 11.992-16.702 14.905-16.72-14.734 2.72-12.155c4.551 1.005 9.24 1.54 14.015 1.54zm-45.307 36.573c.361-1.517 1.679-5.214 6.086-6.79l7.798-2.788 14.985 13.205-16.828 15.382-9.676-10.202c-3.221-3.397-2.727-7.291-2.365-8.807zm-47.808 30.004c1.636-7.541 7.599-13.3 15.191-14.672l12.295-2.221c1.46 3.965 3.714 7.66 6.725 10.835l17.107 18.037c2.161 2.278 5.068 3.43 7.983 3.43 2.652 0 5.312-.954 7.419-2.88l15.426-14.099v23.459h-86.892zm104.146 21.889v-23.46l15.426 14.099c2.108 1.927 4.767 2.88 7.419 2.88 2.915 0 5.822-1.152 7.983-3.43l17.045-17.971c3.027-3.192 5.289-6.909 6.748-10.897l12.271 2.217c7.594 1.372 13.557 7.131 15.192 14.672l4.745 21.89z"/><path d="m237.115 463.45c-3.528-16.272-16.395-28.7-32.781-31.661l-16.461-2.973c-3.317-8.447-10.103-15.089-18.812-18.177l-8.248-2.925-3.637-16.582c11.69-7.704 20.673-19.18 25.219-32.684h6.676c19.221 0 34.858-15.637 34.858-34.858s-15.637-34.858-34.858-34.858h-3.906c-3.07-18.681-19.323-32.982-38.859-32.982h-3.893c-4.293 0-8.193 2.497-9.99 6.396-7.438 16.141-23.729 26.57-41.5 26.57h-20.618c-.108 0-.212.013-.319.016h-13.97c-19.221 0-34.858 15.637-34.858 34.858s15.637 34.858 34.858 34.858h6.588c4.546 13.504 13.529 24.98 25.22 32.684l-3.618 16.494-8.32 2.975c-8.695 3.109-15.464 9.765-18.761 18.215l-16.459 2.973c-16.386 2.96-29.253 15.388-32.781 31.661l-7.635 35.22c-.705 3.251.1 6.646 2.188 9.236 2.088 2.589 5.236 4.094 8.562 4.094h223c3.327 0 6.475-1.505 8.562-4.095 2.088-2.589 2.893-5.985 2.188-9.236zm-69.298-25.29c.364 1.519.864 5.417-2.362 8.819l-9.614 10.136-16.885-15.434 14.736-13.151 8.017 2.843c4.418 1.568 5.743 5.269 6.108 6.787zm34.113-114.571c0 7.09-5.768 12.858-12.858 12.858h-3.377v-25.717h3.377c7.09.001 12.858 5.769 12.858 12.859zm-158.772 0c0-7.09 5.768-12.858 12.858-12.858h3.289v25.717h-3.289c-7.09 0-12.858-5.768-12.858-12.859zm38.147-12.874h9.618c23.823 0 45.848-12.649 57.988-32.771 8.357 1.26 14.784 8.491 14.784 17.194v43.201c0 22.715-18.48 41.195-41.195 41.195s-41.195-18.48-41.195-41.195zm41.195 90.819c4.842 0 9.551-.566 14.083-1.602l2.638 12.026-16.723 14.924-16.754-14.763 2.673-12.186c4.532 1.035 9.242 1.601 14.083 1.601zm-45.294 36.573c.362-1.517 1.679-5.214 6.087-6.79l7.797-2.788 14.986 13.206-16.828 15.381-9.677-10.202c-3.221-3.397-2.727-7.291-2.365-8.807zm-47.82 30.004c1.635-7.541 7.598-13.3 15.191-14.672l12.306-2.223c1.46 3.966 3.714 7.662 6.726 10.837l17.108 18.037c2.161 2.278 5.068 3.43 7.983 3.43 2.652 0 5.311-.954 7.419-2.88l15.425-14.099v23.459h-86.904zm104.158 21.889v-23.459l15.425 14.099c2.108 1.927 4.767 2.88 7.419 2.88 2.916 0 5.823-1.152 7.983-3.43l17.045-17.971c3.027-3.192 5.289-6.908 6.748-10.895l12.26 2.215c7.593 1.372 13.556 7.131 15.191 14.672l4.745 21.889z"/><path d="m284.25 209.009c18.069 0 33.326-12.272 37.872-28.921 21.343-2.416 37.984-20.581 37.984-42.559 0-12.738-5.595-24.188-14.45-32.04 7.432-7.21 12.063-17.292 12.063-28.44 0-20.032-14.937-36.631-34.256-39.272-.777-20.961-18.063-37.777-39.213-37.777-11.086 0-21.105 4.628-28.25 12.043-7.144-7.415-17.164-12.043-28.25-12.043-21.149 0-38.435 16.816-39.213 37.778-19.319 2.64-34.256 19.239-34.256 39.272 0 11.148 4.631 21.229 12.063 28.439-8.855 7.853-14.451 19.303-14.451 32.041 0 21.979 16.64 40.145 37.985 42.559 4.545 16.648 19.802 28.921 37.871 28.921 11.086 0 21.106-4.627 28.25-12.043 7.146 7.415 17.165 12.042 28.251 12.042zm-56.5-22c-8.227 0-15.116-5.793-16.83-13.512l10.682-10.683c4.296-4.295 4.295-11.26 0-15.556s-11.26-4.295-15.556 0l-11.102 11.102h-.219c-11.486 0-20.832-9.345-20.832-20.831s9.345-20.832 20.832-20.832h5.065c2.696 0 5.298-.99 7.312-2.782l15.203-13.528c4.539-4.039 4.944-10.992.905-15.53-4.039-4.539-10.992-4.944-15.53-.905l-12.076 10.746c-.484-.011-1.2.023-1.676 0-9.731 0-17.648-7.917-17.648-17.648s7.917-17.648 17.648-17.648h21.605c6.075 0 11-4.925 11-11s-4.925-11-11-11h-4.932c.927-8.645 8.262-15.402 17.149-15.402 9.512 0 17.25 7.739 17.25 17.25v130.508c0 9.513-7.739 17.251-17.25 17.251zm39.25-147.758c0-9.512 7.738-17.25 17.25-17.25 8.888 0 16.223 6.757 17.148 15.402h-4.002c-6.075 0-11 4.925-11 11s4.925 11 11 11h20.675c9.731 0 17.648 7.917 17.648 17.648s-7.917 17.648-17.648 17.648c-.473.023-1.195-.011-1.676 0l-12.075-10.747c-4.539-4.038-11.492-3.632-15.53.905-4.038 4.539-3.633 11.492.905 15.53l15.203 13.528c2.015 1.792 4.616 2.782 7.312 2.782h5.065c11.486 0 20.831 9.345 20.831 20.832s-9.345 20.831-20.831 20.831h-.218l-11.103-11.103c-4.297-4.296-11.26-4.296-15.557 0-4.296 4.296-4.296 11.261 0 15.557l10.683 10.683c-1.714 7.719-8.604 13.512-16.831 13.512-9.512 0-17.25-7.738-17.25-17.25v-130.508z"/></g></g><g/><g/><g/><g/><g/><g/><g/><g/><g/><g/><g/><g/><g/><g/><g/></svg>