<svg id="Capa_1" enable-background="new 0 0 512 512" viewBox="0 0 512 512" xmlns="http://www.w3.org/2000/svg" fill="#052438"><g><g fill="#0496FF"><path d="m338.514 440.296c-13.6 6.099-27.854 10.651-42.464 13.592-6.161-16.126-21.785-27.614-40.049-27.614-18.265 0-33.888 11.488-40.049 27.614-14.613-2.942-28.87-7.495-42.473-13.596-5.543-2.486-12.053-.008-14.539 5.535-2.485 5.543-.008 12.052 5.535 14.538 15.736 7.058 32.259 12.258 49.197 15.501 3.237 20.449 20.983 36.134 42.328 36.134s39.091-15.685 42.33-36.132c16.934-3.244 33.454-8.442 49.186-15.497 5.543-2.486 8.021-8.995 5.536-14.538-2.488-5.544-8.999-8.021-14.538-5.537zm-82.514 49.704c-11.504 0-20.862-9.359-20.862-20.862 0-11.504 9.358-20.863 20.862-20.863s20.862 9.359 20.862 20.863c0 11.503-9.358 20.862-20.862 20.862z"/><path d="m171.135 71.723c1.465 0 2.955-.295 4.384-.917 12.979-5.649 26.551-9.895 40.434-12.69 6.162 16.124 21.784 27.61 40.048 27.61 18.263 0 33.886-11.486 40.048-27.61 13.883 2.795 27.453 7.041 40.433 12.69 1.43.623 2.918.917 4.384.917 4.245 0 8.29-2.472 10.092-6.613 2.425-5.571-.126-12.052-5.696-14.476-15.046-6.549-30.805-11.41-46.929-14.498-3.241-20.45-20.987-36.136-42.333-36.136s-39.093 15.686-42.33 36.135c-16.125 3.088-31.885 7.95-46.93 14.499-5.57 2.424-8.121 8.905-5.696 14.476 1.801 4.14 5.845 6.613 10.091 6.613zm84.865-49.723c11.504 0 20.862 9.359 20.862 20.862 0 11.504-9.358 20.863-20.862 20.863s-20.862-9.359-20.862-20.863c0-11.503 9.358-20.862 20.862-20.862z"/><path d="m58.111 215.951c2.86-14.208 7.245-28.086 13.094-41.342 2.452-5.559-.066-12.052-5.625-14.504-5.555-2.452-12.052.066-14.504 5.625-6.773 15.353-11.777 31.454-14.935 47.94-20.452 3.234-36.141 20.982-36.141 42.33s15.689 39.096 36.142 42.331c3.177 16.584 8.221 32.776 15.054 48.211 1.818 4.108 5.844 6.55 10.064 6.55 1.487 0 3-.304 4.447-.944 5.555-2.459 8.064-8.957 5.605-14.511-5.902-13.331-10.323-27.291-13.201-41.587 16.126-6.161 27.613-21.785 27.613-40.049s-11.487-33.889-27.613-40.05zm-15.249 60.911c-11.504 0-20.862-9.359-20.862-20.862s9.358-20.862 20.862-20.862 20.863 9.359 20.863 20.862-9.359 20.862-20.863 20.862z"/><path d="m512 256c0-21.348-15.689-39.096-36.141-42.331-3.158-16.483-8.161-32.583-14.932-47.933-2.45-5.559-8.94-8.077-14.504-5.625-5.559 2.452-8.077 8.945-5.625 14.503 5.847 13.256 10.23 27.132 13.091 41.338-16.126 6.161-27.613 21.785-27.613 40.049 0 18.261 11.483 33.883 27.605 40.046-2.882 14.315-7.299 28.29-13.214 41.639-2.461 5.554.046 12.052 5.601 14.513 1.449.642 2.961.946 4.45.946 4.219 0 8.244-2.441 10.062-6.547 6.849-15.456 11.914-31.661 15.095-48.268 20.444-3.243 36.125-20.988 36.125-42.33zm-42.862 20.862c-11.504 0-20.862-9.359-20.862-20.862s9.358-20.862 20.862-20.862 20.862 9.359 20.862 20.862-9.358 20.862-20.862 20.862z"/></g><path d="m419.863 327.727c-21.447 0-41.205 7.366-56.879 19.701l-17.873-17.873c16.537-20 26.486-45.637 26.486-73.554s-9.949-53.555-26.486-73.554l17.873-17.873c15.674 12.335 35.432 19.701 56.88 19.701 50.805 0 92.137-41.333 92.137-92.137s-41.333-92.138-92.138-92.138-92.137 41.333-92.137 92.137c0 21.447 7.366 41.205 19.701 56.879l-17.873 17.873c-19.999-16.537-45.636-26.485-73.554-26.485s-53.554 9.948-73.554 26.485l-17.873-17.873c12.335-15.674 19.701-35.433 19.701-56.879-.001-50.804-41.333-92.137-92.137-92.137s-92.137 41.333-92.137 92.137 41.332 92.137 92.137 92.137c21.447 0 41.206-7.366 56.88-19.701l17.873 17.873c-16.537 20-26.486 45.637-26.486 73.554s9.949 53.554 26.486 73.554l-17.873 17.873c-15.674-12.335-35.432-19.701-56.879-19.701-50.806.001-92.138 41.333-92.138 92.137s41.332 92.137 92.137 92.137 92.137-41.333 92.137-92.137c0-21.447-7.366-41.205-19.701-56.88l17.873-17.873c20 16.537 45.637 26.486 73.554 26.486s53.554-9.948 73.554-26.486l17.873 17.873c-12.335 15.674-19.701 35.433-19.701 56.879 0 50.804 41.332 92.137 92.137 92.137s92.137-41.332 92.137-92.136-41.332-92.136-92.137-92.136zm-35.734-175.273c6.531-13.604 20.228-22.394 35.734-22.394s29.203 8.79 35.734 22.394c-10.473 6.228-22.69 9.819-35.734 9.819s-25.261-3.59-35.734-9.819zm15.739-64.389v-9.55c0-11.025 8.97-19.995 19.995-19.995s19.995 8.97 19.995 19.995v9.55c0 11.025-8.97 19.995-19.995 19.995s-19.995-8.969-19.995-19.995zm19.995-66.065c38.674 0 70.137 31.463 70.137 70.137 0 17.544-6.49 33.591-17.176 45.904-5.398-9.084-12.976-16.508-21.94-21.698 6.813-7.468 10.975-17.395 10.975-28.276v-9.55c0-23.156-18.839-41.995-41.995-41.995s-41.995 18.839-41.995 41.995v9.55c0 10.882 4.161 20.809 10.975 28.276-8.964 5.19-16.542 12.615-21.94 21.698-10.686-12.312-17.176-28.359-17.176-45.904-.001-38.674 31.461-70.137 70.135-70.137zm-397.863 70.137c0-38.674 31.463-70.137 70.137-70.137s70.137 31.463 70.137 70.137c0 17.554-6.498 33.61-17.194 45.925-5.407-9.068-12.992-16.493-21.952-21.688 6.831-7.471 11.005-17.411 11.005-28.308v-9.55c0-23.156-18.839-41.995-41.995-41.995s-41.996 18.838-41.996 41.994v9.55c0 10.882 4.161 20.809 10.975 28.276-8.964 5.19-16.542 12.615-21.94 21.698-10.687-12.311-17.177-28.358-17.177-45.902zm50.142-4.072v-9.55c0-11.025 8.97-19.995 19.995-19.995s19.995 8.97 19.995 19.995v9.55c0 11.025-8.97 19.995-19.995 19.995s-19.995-8.969-19.995-19.995zm-15.74 64.389c6.531-13.604 20.228-22.394 35.734-22.394 15.431 0 29.181 8.81 35.728 22.397-10.472 6.226-22.686 9.815-35.728 9.815-13.044.001-25.261-3.589-35.734-9.818zm199.598 9.95c51.609 0 93.597 41.987 93.597 93.596 0 25.053-9.896 47.839-25.983 64.654-5.231-9.942-12.643-18.753-21.646-25.554-3.583-2.707-7.358-5.059-11.279-7.069 9.998-9.31 16.268-22.573 16.268-37.28v-12.311c0-28.098-22.859-50.957-50.957-50.957s-50.957 22.859-50.957 50.957v12.312c0 14.688 6.254 27.936 16.23 37.243-13.946 7.093-25.51 18.408-32.915 32.63-16.07-16.813-25.954-39.586-25.954-64.625-.001-51.609 41.987-93.596 93.596-93.596zm-28.957 88.348v-12.312c0-15.967 12.99-28.957 28.957-28.957s28.957 12.99 28.957 28.957v12.312c0 15.967-12.99 28.957-28.957 28.957s-28.957-12.99-28.957-28.957zm-170.633 229.433c6.55-13.582 20.319-22.397 35.727-22.397s29.176 8.816 35.727 22.397c-10.472 6.226-22.686 9.815-35.727 9.815s-25.256-3.589-35.727-9.815zm15.732-64.393v-9.55c0-11.025 8.97-19.995 19.995-19.995s19.995 8.97 19.995 19.995v9.55c0 11.025-8.97 19.996-19.995 19.996s-19.995-8.971-19.995-19.996zm72.933 50.001c-5.409-9.063-12.998-16.487-21.957-21.683 6.836-7.473 11.014-17.416 11.014-28.318v-9.55c0-23.156-18.839-41.995-41.995-41.995s-41.995 18.839-41.995 41.995v9.55c0 10.902 4.178 20.845 11.014 28.318-8.959 5.196-16.548 12.62-21.957 21.683-10.7-12.316-17.199-28.373-17.199-45.93 0-38.673 31.463-70.137 70.137-70.137s70.137 31.463 70.137 70.137c-.001 17.557-6.5 33.614-17.199 45.93zm60.813-130.776c8.396-20.11 27.951-33.308 50.112-33.308 21.883 0 41.726 13.449 50.101 33.315-14.495 9.223-31.685 14.572-50.101 14.572-18.421 0-35.614-5.352-50.112-14.579zm178.247 145.167c6.557-13.57 20.368-22.396 35.729-22.396 15.409 0 29.177 8.816 35.727 22.397-10.472 6.226-22.686 9.815-35.727 9.815-13.043 0-25.258-3.59-35.729-9.816zm15.733-64.392v-9.55c0-11.025 8.97-19.995 19.995-19.995s19.995 8.97 19.995 19.995v9.55c0 11.025-8.97 19.996-19.995 19.996s-19.995-8.971-19.995-19.996zm72.934 50c-5.409-9.063-12.998-16.487-21.957-21.683 6.836-7.473 11.013-17.416 11.013-28.317v-9.55c0-23.156-18.839-41.995-41.995-41.995s-41.995 18.839-41.995 41.995v9.55c0 10.911 4.185 20.861 11.031 28.336-8.956 5.199-16.556 12.619-21.969 21.671-10.702-12.316-17.203-28.376-17.203-45.935 0-38.673 31.463-70.137 70.137-70.137s70.136 31.463 70.136 70.136c0 17.557-6.499 33.614-17.198 45.929z"/></g><g/><g/><g/><g/><g/><g/><g/><g/><g/><g/><g/><g/><g/><g/><g/></svg>