<svg id="Capa_1" enable-background="new 0 0 512 512" viewBox="0 0 512 512" xmlns="http://www.w3.org/2000/svg" fill="#052438"><g><g><g><g><path d="m476.002 454.257c-3.343 0-6.645-1.518-8.806-4.396-3.647-4.858-2.666-11.753 2.192-15.401 3.247-2.437 5.108-6.157 5.108-10.207 0-.504-.034-1.028-.105-1.604-.574-4.627 1.832-9.112 6.003-11.195 5.925-2.958 9.605-8.9 9.605-15.508 0-6.6-3.675-12.539-9.59-15.5-4.132-2.068-6.531-6.499-6.005-11.089.062-.537.092-1.027.092-1.497 0-5.221-3.126-9.861-7.963-11.822-5.631-2.282-8.345-8.696-6.062-14.327 2.282-5.63 8.697-8.345 14.326-6.062 12.144 4.922 20.328 16.04 21.543 28.881 9.801 7.346 15.659 18.852 15.659 31.416 0 12.562-5.852 24.06-15.644 31.405-.884 9.725-5.887 18.792-13.759 24.702-1.978 1.487-4.296 2.204-6.594 2.204z" fill="#0496FF"/></g><g><path d="m302.483 454.504c-2.235 0-4.491-.679-6.44-2.09-8.168-5.912-13.353-15.115-14.25-25.062-9.791-7.346-15.643-18.844-15.643-31.404 0-12.567 5.861-24.075 15.666-31.421 1.17-11.93 8.543-22.666 19.449-27.949 5.47-2.647 12.048-.362 14.694 5.104 2.648 5.468.363 12.047-5.104 14.695-4.442 2.152-7.202 6.552-7.202 11.483 0 .47.03.96.092 1.497.526 4.591-1.873 9.021-6.005 11.089-5.915 2.961-9.59 8.9-9.59 15.5 0 6.608 3.681 12.55 9.605 15.508 4.171 2.083 6.577 6.568 6.003 11.195-.071.575-.105 1.1-.105 1.604 0 4.138 1.928 7.906 5.288 10.338 4.921 3.562 6.023 10.438 2.462 15.36-2.151 2.973-5.511 4.553-8.92 4.553z" fill="#0496FF"/></g><g><path d="m462.811 311.513c-.64 0-1.288-.056-1.939-.172-5.981-1.064-9.968-6.776-8.903-12.757.496-2.789.748-5.647.748-8.497 0-30.783-29.092-55.826-64.85-55.826s-64.849 25.043-64.849 55.826c0 2.796.242 5.6.719 8.335 1.043 5.985-2.963 11.682-8.948 12.725-5.986 1.043-11.682-2.963-12.726-8.948-.693-3.979-1.045-8.054-1.045-12.113 0-42.914 38.96-77.826 86.849-77.826s86.85 34.913 86.85 77.826c0 4.139-.366 8.294-1.088 12.352-.949 5.33-5.588 9.075-10.818 9.075z" fill="#0496FF"/></g></g><g><path d="m198.598 321.715c-6.075 0-11-4.925-11-11v-20.499c0-14.981-10.615-28.123-25.24-31.248-3.672-.785-6.689-3.388-8.005-6.905-4.832-12.924-17.349-21.607-31.146-21.607-13.798 0-26.314 8.683-31.146 21.607-1.315 3.517-4.333 6.12-8.005 6.905-14.625 3.125-25.24 16.267-25.24 31.248v20.499c0 6.075-4.925 11-11 11s-11-4.925-11-11v-20.499c0-23.314 15.24-43.993 36.978-51.221 9.271-18.478 28.453-30.539 49.413-30.539s40.143 12.061 49.414 30.539c21.737 7.228 36.978 27.906 36.978 51.221v20.499c-.001 6.075-4.926 11-11.001 11z" fill="#0496FF"/></g></g><g><path d="m511.325 498.669-7.635-35.22c-3.528-16.272-16.396-28.7-32.781-31.66l-27.389-4.947c-7.181-1.297-13.054-6.687-14.977-13.786l-3.72-13.461c13.693-8.945 23.846-22.864 27.872-39.18h1.699c19.221 0 34.857-15.637 34.857-34.858s-15.637-34.858-34.857-34.858c-4.458 0-13.973 0-18.361 0-1.409 0-2.812-.172-4.181-.483 2.448-5.419.15-11.831-5.236-14.429-5.472-2.641-12.047-.344-14.688 5.127-4.207 8.721-13.178 14.356-22.854 14.356-9.675 0-18.646-5.635-22.854-14.357-2.64-5.472-9.22-7.767-14.688-5.127-5.386 2.599-7.683 9.009-5.237 14.427-1.366.309-2.765.485-4.18.485-4.648 0-16.01 0-20.778 0-19.221 0-34.858 15.637-34.858 34.858s15.638 34.858 34.858 34.858h4.179c4.02 16.294 14.152 30.199 27.818 39.145l-3.744 13.55c-1.908 7.044-7.781 12.434-14.962 13.731l-27.39 4.947c-16.385 2.96-29.252 15.388-32.78 31.661l-7.635 35.22c-.705 3.251.1 6.646 2.188 9.236s5.236 4.095 8.562 4.095h223c3.326 0 6.475-1.505 8.562-4.095s2.895-5.984 2.19-9.235zm-44.073-173.112c0 7.018-5.654 12.732-12.646 12.847v-25.695c6.992.115 12.646 5.829 12.646 12.848zm-158.772 0c0-7.09 5.769-12.858 12.858-12.858h2.221l.037 25.716h-2.258c-7.089 0-12.858-5.768-12.858-12.858zm37.08-13.004c5.426-.46 10.703-2.007 15.51-4.51 8.002 5.864 17.793 9.227 28.006 9.227 10.221 0 20.018-3.369 28.023-9.24 4.812 2.498 10.1 4.062 15.508 4.523v32.18c0 23.986-19.514 43.5-43.5 43.5s-43.5-19.514-43.5-43.516zm43.547 97.679c5.278 0 10.406-.644 15.326-1.829l2.89 10.458c.556 2.055 1.281 4.037 2.136 5.948l-20.385 18.727-20.38-18.724c.847-1.896 1.565-3.862 2.116-5.898l2.909-10.526c4.94 1.195 10.088 1.844 15.388 1.844zm-50.567 38.259c5.88-1.062 11.349-3.4 16.101-6.714l26.991 24.798c2.104 1.933 4.773 2.899 7.442 2.899s5.338-.967 7.441-2.899l26.994-24.799c4.753 3.316 10.221 5.654 16.1 6.715l4.263.77v40.739h-109.595v-40.739zm-42.58 19.62c1.692-7.957 8.288-13.833 16.317-14.876v36.765h-21.062zm169.913 21.889v-36.765c8.03 1.043 14.626 6.92 16.317 14.876l4.746 21.889z"/><path d="m137.375 147.79c-.755 2.818-.36 5.821 1.099 8.347l27.381 47.424c1.459 2.527 3.861 4.37 6.68 5.125 2.816.755 5.821.36 8.347-1.099l10.3-5.947c8.02 6.356 16.972 11.536 26.438 15.297v11.862c0 6.075 4.925 11 11 11h54.761c6.075 0 11-4.925 11-11v-11.862c9.467-3.761 18.419-8.94 26.438-15.297l10.301 5.947c5.263 3.038 11.989 1.235 15.026-4.026l27.381-47.424c1.459-2.526 1.854-5.529 1.099-8.347s-2.599-5.221-5.125-6.679l-10.291-5.941c.753-5.075 1.133-10.185 1.133-15.27s-.38-10.195-1.133-15.27l10.291-5.941c2.526-1.458 4.37-3.861 5.125-6.679s.36-5.821-1.099-8.347l-27.381-47.424c-3.038-5.262-9.764-7.064-15.026-4.026l-10.301 5.947c-8.02-6.357-16.971-11.536-26.438-15.296v-11.864c0-6.075-4.925-11-11-11h-54.761c-6.075 0-11 4.925-11 11v11.862c-9.468 3.761-18.418 8.939-26.438 15.296l-10.301-5.947c-5.26-3.037-11.989-1.236-15.026 4.026l-27.381 47.424c-1.459 2.526-1.854 5.529-1.099 8.347s2.599 5.221 5.125 6.679l10.291 5.941c-.753 5.074-1.133 10.185-1.133 15.27s.38 10.195 1.133 15.27l-10.291 5.942c-2.526 1.459-4.37 3.862-5.125 6.68zm38.385-9.444c-1.395-6.092-2.102-12.298-2.102-18.447s.707-12.355 2.102-18.447c1.077-4.707-1.041-9.566-5.223-11.981l-7.511-4.336 16.381-28.372 7.521 4.342c4.186 2.416 9.458 1.817 12.995-1.475 9.098-8.47 20.136-14.856 31.919-18.467 4.622-1.416 7.777-5.683 7.777-10.517v-8.646h32.761v8.646c0 4.834 3.155 9.101 7.777 10.517 11.783 3.611 22.821 9.997 31.92 18.467 3.538 3.293 8.809 3.892 12.995 1.475l7.521-4.342 16.381 28.372-7.511 4.336c-4.182 2.415-6.3 7.274-5.223 11.981 1.395 6.091 2.102 12.297 2.102 18.447 0 6.149-.707 12.355-2.102 18.447-1.077 4.707 1.041 9.566 5.223 11.981l7.511 4.336-16.381 28.371-7.521-4.342c-4.186-2.417-9.458-1.818-12.995 1.475-9.1 8.471-20.138 14.856-31.92 18.467-4.622 1.416-7.777 5.684-7.777 10.517v8.646h-32.761v-8.646c0-4.833-3.155-9.101-7.777-10.517-11.782-3.611-22.82-9.997-31.92-18.467-3.538-3.293-8.811-3.892-12.995-1.475l-7.52 4.342-16.381-28.371 7.511-4.336c4.182-2.414 6.3-7.274 5.223-11.981z"/><path d="m256 179.804c33.031 0 59.904-26.873 59.904-59.905 0-33.031-26.873-59.904-59.904-59.904s-59.904 26.873-59.904 59.904c0 33.032 26.873 59.905 59.904 59.905zm0-97.809c20.9 0 37.904 17.004 37.904 37.904 0 20.901-17.004 37.905-37.904 37.905s-37.904-17.004-37.904-37.905c0-20.9 17.004-37.904 37.904-37.904z"/><path d="m237.115 463.449c-3.528-16.272-16.396-28.7-32.781-31.66l-16.31-2.946c-3.313-8.46-10.105-15.113-18.824-18.204l-8.723-3.093-2.891-10.676c10.035-6.724 18.039-16.246 22.901-27.438h8.541c19.221 0 34.858-15.637 34.858-34.858s-15.638-34.858-34.858-34.858c-.83 0-15.571 0-15.905 0-7.986 0-14.491-6.498-14.501-14.484-.005-3.745-1.914-7.23-5.067-9.25-3.153-2.021-7.118-2.299-10.521-.734l-8.463 3.884c-7.219 3.313-15.5 3.313-22.719-.004l-8.466-3.889c-3.386-1.555-7.328-1.291-10.475.701s-5.073 5.442-5.116 9.167l-.003.262c-.085 7.911-6.59 14.346-14.5 14.346-1.782 0-15.201 0-17.318 0-19.221 0-34.858 15.637-34.858 34.858s15.638 34.858 34.858 34.858h8.541c4.862 11.193 12.867 20.714 22.902 27.438l-2.896 10.694-8.494 3.037c-8.686 3.106-15.449 9.751-18.75 18.189l-16.61 3c-16.385 2.96-29.252 15.388-32.78 31.661l-7.635 35.22c-.705 3.251.1 6.646 2.188 9.236s5.234 4.094 8.56 4.094h223c3.326 0 6.475-1.505 8.562-4.095s2.893-5.985 2.188-9.236zm-69.16-25.289c.364 1.519.863 5.418-2.361 8.819l-9.615 10.136-16.885-15.434 14.736-13.151 8.018 2.843c4.418 1.567 5.742 5.269 6.107 6.787zm33.931-103.587c0 7.09-5.769 12.858-12.858 12.858h-3.411c.05-1.025.078-2.055.078-3.092v-22.624h3.333c7.089 0 12.858 5.768 12.858 12.858zm-145.913 12.858c-7.09 0-12.858-5.768-12.858-12.858s5.769-12.858 12.858-12.858h3.332v22.624c0 1.037.029 2.067.078 3.092zm25.332-26.61c11.08-2.511 20.307-10.108 25.047-20.186 10.887 3.974 22.808 3.978 33.696.011 4.527 9.66 13.168 17.028 23.646 19.834v23.859c0 22.715-18.479 41.195-41.194 41.195s-41.195-18.48-41.195-41.195zm41.195 86.713c5.065 0 9.985-.616 14.708-1.746l1.764 6.516-16.336 14.579-16.597-14.625 1.752-6.469c4.724 1.129 9.645 1.745 14.709 1.745zm-45.155 30.572c.361-1.517 1.679-5.214 6.086-6.79l7.798-2.788 14.985 13.205-16.828 15.382-9.676-10.202c-3.222-3.396-2.728-7.29-2.365-8.807zm-47.96 30.005c1.636-7.542 7.599-13.301 15.191-14.673l12.437-2.246c1.46 3.975 3.717 7.679 6.734 10.861l17.107 18.037c2.161 2.278 5.068 3.43 7.983 3.43 2.652 0 5.312-.954 7.419-2.88l15.426-14.099v23.459h-87.042zm104.298 21.889v-23.46l15.425 14.099c2.108 1.928 4.766 2.881 7.419 2.881 2.914 0 5.822-1.152 7.982-3.43l17.047-17.971c3.021-3.185 5.279-6.893 6.739-10.871l12.128 2.191c7.594 1.372 13.557 7.131 15.192 14.672l4.745 21.889z"/></g><g><path d="m259.47 144.445c-2.662 0-5.327-.961-7.432-2.892l-15.186-13.92c-4.479-4.105-4.781-11.063-.676-15.542 4.104-4.479 11.062-4.782 15.541-.675l7.561 6.93 37.613-36.288c4.372-4.217 11.336-4.094 15.554.279 4.219 4.372 4.094 11.336-.278 15.554l-45.059 43.47c-2.128 2.054-4.881 3.084-7.638 3.084z" fill="#0496FF"/></g></g><g/><g/><g/><g/><g/><g/><g/><g/><g/><g/><g/><g/><g/><g/><g/></svg>