<svg id="Layer_1" enable-background="new 0 0 512 512" viewBox="0 0 512 512" xmlns="http://www.w3.org/2000/svg" fill="#052438"><g><g fill="#0496FF"><path d="m464.697 20.662c-2.713-2.082-6.24-2.782-9.543-1.898-15.75 4.219-22.841.862-32.652-3.784-12.486-5.914-28.023-13.273-59.738-5.769-5.912 1.399-9.57 7.325-8.172 13.237s7.326 9.566 13.237 8.172c24.204-5.727 34.43-.884 45.256 4.243 8.898 4.214 18.729 8.866 33.916 7.637v50.813c-10.404 1.256-16.561-1.656-24.499-5.417-12.416-5.88-27.866-13.197-59.248-5.884-5.917 1.379-9.595 7.293-8.216 13.21s7.293 9.598 13.21 8.216c23.904-5.571 34.072-.756 44.837 4.341 7.908 3.745 16.55 7.838 29.037 7.838 5.43 0 11.587-.774 18.726-2.687 4.809-1.289 8.153-5.646 8.153-10.625v-72.916c0-3.42-1.59-6.645-4.304-8.727z"/><path d="m253.521 244.858 1.024-1.024c4.295-4.296 4.295-11.261 0-15.557-4.296-4.296-11.261-4.296-15.557 0l-18 18c-2.063 2.063-3.222 4.861-3.222 7.778s1.159 5.715 3.222 7.778l18 18c2.147 2.148 4.963 3.222 7.778 3.222s5.63-1.074 7.778-3.222c3.186-3.185 4.008-7.839 2.468-11.783 23.001 5.449 45.856 18.057 63.333 35.534 2.148 2.148 4.963 3.222 7.778 3.222s5.63-1.074 7.778-3.222c4.296-4.296 4.295-11.261 0-15.557-22.779-22.781-52.46-38.135-82.38-43.169z"/><path d="m280.457 345.36c-4.295-4.296-11.26-4.295-15.556 0s-4.295 11.26 0 15.556l1.024 1.024c-29.92 5.034-59.601 20.388-82.382 43.169-4.295 4.296-4.295 11.261 0 15.557 2.148 2.148 4.963 3.222 7.778 3.222s5.63-1.074 7.778-3.222c17.477-17.477 40.332-30.086 63.333-35.535-1.539 3.945-.717 8.598 2.468 11.784 2.148 2.148 4.963 3.222 7.778 3.222s5.63-1.074 7.778-3.222l18-18c2.063-2.063 3.222-4.861 3.222-7.778s-1.159-5.715-3.222-7.778z"/><path d="m191.321 189.722c2.815 0 5.63-1.074 7.778-3.222 17.477-17.477 40.332-30.085 63.333-35.534-1.54 3.944-.717 8.598 2.468 11.783 2.148 2.148 4.963 3.222 7.778 3.222s5.63-1.074 7.778-3.222l18-18c2.063-2.063 3.222-4.861 3.222-7.778s-1.159-5.715-3.222-7.778l-18-18c-4.296-4.296-11.261-4.296-15.557 0-4.295 4.296-4.295 11.261 0 15.557l1.024 1.024c-29.92 5.034-59.601 20.388-82.382 43.169-4.295 4.296-4.295 11.261 0 15.557 2.149 2.148 4.965 3.222 7.78 3.222z"/></g><g><path d="m114.781 407.385c9.061-8.814 14.698-21.13 14.698-34.739 0-26.732-21.748-48.479-48.479-48.479s-48.479 21.748-48.479 48.479c0 13.609 5.637 25.926 14.698 34.739-27.844 12.828-47.219 41.001-47.219 73.615v20c0 6.075 4.925 11 11 11h140c6.075 0 11-4.925 11-11v-20c0-32.614-19.375-60.787-47.219-73.615zm-33.781-61.219c14.601 0 26.479 11.878 26.479 26.479s-11.878 26.479-26.479 26.479-26.479-11.878-26.479-26.479 11.878-26.479 26.479-26.479zm59 143.834h-118v-9c0-32.533 26.467-59 59-59s59 26.467 59 59z"/><path d="m464.781 327.385c9.061-8.814 14.698-21.13 14.698-34.739 0-26.732-21.748-48.479-48.479-48.479s-48.479 21.748-48.479 48.479c0 13.609 5.637 25.926 14.698 34.739-27.844 12.828-47.219 41.001-47.219 73.615v20c0 6.075 4.925 11 11 11h140c6.075 0 11-4.925 11-11v-20c0-32.614-19.375-60.787-47.219-73.615zm-33.781-61.219c14.601 0 26.479 11.878 26.479 26.479s-11.878 26.479-26.479 26.479c-14.6 0-26.479-11.878-26.479-26.479s11.878-26.479 26.479-26.479zm59 143.834h-118v-9c0-32.533 26.467-59 59-59s59 26.467 59 59z"/><path d="m114.781 173.218c9.061-8.814 14.698-21.13 14.698-34.739 0-26.731-21.748-48.479-48.479-48.479s-48.479 21.748-48.479 48.479c0 13.609 5.637 25.926 14.698 34.739-27.844 12.828-47.219 41.002-47.219 73.615v20c0 6.075 4.925 11 11 11h140c6.075 0 11-4.925 11-11v-20c0-32.613-19.375-60.787-47.219-73.615zm-33.781-61.218c14.601 0 26.479 11.878 26.479 26.479s-11.878 26.479-26.479 26.479-26.479-11.878-26.479-26.479 11.878-26.479 26.479-26.479zm59 143.833h-118v-9c0-32.533 26.467-59 59-59s59 26.467 59 59z"/><path d="m361 187.833c6.075 0 11-4.925 11-11v-165.833c0-6.075-4.925-11-11-11s-11 4.925-11 11v165.833c0 6.076 4.925 11 11 11z"/></g></g><g/><g/><g/><g/><g/><g/><g/><g/><g/><g/><g/><g/><g/><g/><g/></svg>