<svg id="Capa_1" enable-background="new 0 0 512 512" viewBox="0 0 512 512" xmlns="http://www.w3.org/2000/svg" fill="#052438"><g><path d="m470.996 72.931h-155.207c-6.075 0-11 4.925-11 11s4.925 11 11 11h155.207c10.479 0 19.004 8.525 19.004 19.004v133.425h-47.893c-2.744-20.236-14.943-37.499-31.997-47.188 7.385-7.805 11.928-18.325 11.928-29.893v-10.026c0-24.007-19.531-43.539-43.539-43.539s-43.539 19.531-43.539 43.539v10.026c0 11.568 4.543 22.088 11.928 29.893-17.054 9.69-29.253 26.952-31.997 47.188h-47.891v-103.259c0-6.075-4.925-11-11-11s-11 4.925-11 11v103.259h-47.893c-2.744-20.236-14.943-37.499-31.997-47.188 7.385-7.805 11.928-18.325 11.928-29.893v-10.026c0-24.007-19.531-43.539-43.539-43.539s-43.539 19.531-43.539 43.539v10.026c0 11.568 4.543 22.088 11.928 29.893-17.054 9.69-29.253 26.952-31.997 47.188h-47.891v-133.425c0-10.479 8.525-19.004 19.004-19.004h156.987c6.075 0 11-4.925 11-11s-4.925-11-11-11h-156.987c-22.61 0-41.004 18.395-41.004 41.004v288.849c0 22.61 18.394 41.004 41.004 41.004h169.468l-14.28 29.547h-36.09c-6.075 0-11 4.925-11 11s4.925 11 11 11h191.798c6.075 0 11-4.925 11-11s-4.925-11-11-11h-36.09l-14.28-29.547h169.468c22.61 0 41.004-18.394 41.004-41.004v-288.849c-.002-22.609-18.396-41.004-41.006-41.004zm-114.035 97.347v-10.026c0-11.876 9.662-21.539 21.539-21.539s21.539 9.662 21.539 21.539v10.026c0 11.876-9.662 21.539-21.539 21.539s-21.539-9.662-21.539-21.539zm21.539 43.539c20.304 0 37.302 14.412 41.31 33.542h-82.62c4.008-19.13 21.006-33.542 41.31-33.542zm-266.539-43.539v-10.026c0-11.876 9.662-21.539 21.539-21.539s21.539 9.662 21.539 21.539v10.026c0 11.876-9.662 21.539-21.539 21.539s-21.539-9.662-21.539-21.539zm21.539 43.539c20.304 0 37.302 14.412 41.31 33.542h-82.62c4.008-19.13 21.006-33.542 41.31-33.542zm-111.5 188.967v-133.424h223v152.428h-47.893c-2.744-20.236-14.943-37.499-31.996-47.188 7.385-7.805 11.928-18.325 11.928-29.893v-10.026c0-24.007-19.531-43.539-43.539-43.539s-43.539 19.532-43.539 43.539v10.026c0 11.568 4.543 22.088 11.928 29.893-17.054 9.69-29.253 26.952-31.996 47.188h-28.889c-10.479 0-19.004-8.525-19.004-19.004zm89.961-58.077v-10.026c0-11.876 9.662-21.539 21.539-21.539s21.539 9.663 21.539 21.539v10.026c0 11.876-9.662 21.539-21.539 21.539s-21.539-9.663-21.539-21.539zm21.539 43.539c20.304 0 37.301 14.412 41.31 33.542h-82.62c4.009-19.13 21.006-33.542 41.31-33.542zm157.874 85.089h-70.748l14.28-29.547h42.188zm65.587-128.628v-10.026c0-11.876 9.662-21.539 21.539-21.539s21.539 9.663 21.539 21.539v10.026c0 11.876-9.662 21.539-21.539 21.539s-21.539-9.663-21.539-21.539zm21.539 43.539c20.304 0 37.301 14.412 41.31 33.542h-82.62c4.009-19.13 21.006-33.542 41.31-33.542zm92.496 33.542h-28.889c-2.744-20.236-14.943-37.499-31.996-47.188 7.385-7.805 11.928-18.325 11.928-29.893v-10.026c0-24.007-19.531-43.539-43.539-43.539s-43.539 19.532-43.539 43.539v10.026c0 11.568 4.543 22.088 11.928 29.893-17.054 9.69-29.253 26.952-31.996 47.188h-47.893v-152.428h223v133.424c0 10.479-8.525 19.004-19.004 19.004z"/><g fill="#0496FF"><path d="m256 16.665c-37.091 0-67.266 30.175-67.266 67.266s30.175 67.266 67.266 67.266 67.266-30.175 67.266-67.266-30.175-67.266-67.266-67.266zm0 112.532c-24.96 0-45.266-20.306-45.266-45.266s20.306-45.266 45.266-45.266 45.266 20.306 45.266 45.266-20.306 45.266-45.266 45.266z"/><circle cx="256" cy="83.94" r="11"/></g></g><g/><g/><g/><g/><g/><g/><g/><g/><g/><g/><g/><g/><g/><g/><g/></svg>