<svg id="Layer_1" enable-background="new 0 0 512 512" viewBox="0 0 512 512" xmlns="http://www.w3.org/2000/svg" fill="#E6ECF2"><g><g><path d="m432.368 347.203c-7.737-4.445-16.74-5.613-25.354-3.286-8.613 2.326-15.806 7.868-20.24 15.585-4.412 7.642-10.226 14.227-17.012 19.51.328-2.123.498-4.298.498-6.512 0-23.435-19.065-42.5-42.5-42.5s-42.5 19.065-42.5 42.5c0 7.613 2.012 14.764 5.532 20.95h-69.564c3.52-6.187 5.532-13.338 5.532-20.95 0-23.435-19.065-42.5-42.5-42.5s-42.5 19.065-42.5 42.5c0 2.215.171 4.39.499 6.515-6.783-5.279-12.594-11.86-17.002-19.494-4.445-7.735-11.638-13.277-20.251-15.604-8.613-2.328-17.616-1.16-25.353 3.286-7.736 4.445-13.278 11.638-15.604 20.251-2.327 8.613-1.16 17.617 3.297 25.372 12.411 21.497 30.27 38.962 51.914 50.853v57.321c0 6.075 4.925 11 11 11h103c6.075 0 11-4.925 11-11v-40.55h23.5v40.55c0 6.075 4.925 11 11 11h103c6.075 0 11-4.925 11-11v-57.321c21.646-11.891 39.506-29.358 51.927-50.872 9.176-15.969 3.649-36.427-12.319-45.604zm-104.608 4.797c11.304 0 20.5 9.196 20.5 20.5s-9.196 20.5-20.5 20.5-20.5-9.196-20.5-20.5 9.196-20.5 20.5-20.5zm-143.5 0c11.304 0 20.5 9.196 20.5 20.5s-9.196 20.5-20.5 20.5-20.5-9.196-20.5-20.5 9.196-20.5 20.5-20.5zm49 86.45c-6.075 0-11 4.925-11 11v40.55h-81v-53.017c0-4.216-2.409-8.061-6.202-9.898-20.466-9.919-37.292-25.568-48.648-45.24-1.518-2.641-1.916-5.714-1.122-8.654s2.687-5.396 5.328-6.913c5.449-3.132 12.435-1.247 15.578 4.225 16.007 27.725 45.92 44.948 78.066 44.948h95.291c-4.911 6.494-8.418 14.244-10.272 23h-36.019zm192.362-56.624c-11.367 19.689-28.193 35.34-48.66 45.259-3.793 1.838-6.202 5.683-6.202 9.898v53.017h-81v-36.55c0-23.794 14.206-38 38-38 32.146 0 62.06-17.224 78.077-44.967 1.518-2.642 3.974-4.533 6.914-5.327 2.939-.795 6.014-.396 8.654 1.121 5.453 3.133 7.338 10.118 4.217 15.549z"/><path d="m200.01 250.06v33.897c0 2.917 1.159 5.715 3.222 7.778l20 20c2.063 2.063 4.861 3.222 7.778 3.222h50.001c2.917 0 5.716-1.159 7.778-3.222l19.999-20c2.063-2.063 3.222-4.861 3.222-7.778v-33.897c27.91-18.641 45-50.28 45-84.059 0-55.691-45.309-101-101-101s-101 45.309-101 101c0 33.779 17.09 65.417 45 84.059zm90 29.34-13.556 13.557h-40.888l-13.556-13.557v-24.443h68zm-34-192.399c43.561 0 79 35.439 79 79 0 27.159-14.128 52.553-37.057 66.956h-83.885c-22.929-14.403-37.057-39.797-37.057-66.956-.001-43.561 35.438-79 78.999-79z"/></g><g fill="#0496FF"><path d="m278.232 137.201-32.222 32.222-12.222-12.222c-4.297-4.295-11.26-4.295-15.557 0-4.296 4.296-4.296 11.261 0 15.557l20 20c2.148 2.147 4.963 3.222 7.778 3.222s5.63-1.074 7.778-3.222l40-40c4.296-4.296 4.296-11.261 0-15.557-4.296-4.295-11.258-4.295-15.555 0z"/><path d="m256.01 42c6.075 0 11-4.925 11-11v-20c0-6.075-4.925-11-11-11s-11 4.925-11 11v20c0 6.075 4.925 11 11 11z"/><path d="m154.187 48.621c-4.297-4.295-11.262-4.295-15.557 0-4.296 4.296-4.296 11.261 0 15.557l14.143 14.142c2.148 2.147 4.963 3.222 7.778 3.222s5.631-1.074 7.778-3.222c4.296-4.296 4.296-11.261 0-15.557z"/><path d="m121.01 155.001h-20c-6.075 0-11 4.925-11 11s4.925 11 11 11h20c6.075 0 11-4.925 11-11s-4.925-11-11-11z"/><path d="m411.01 155.001h-20c-6.075 0-11 4.925-11 11s4.925 11 11 11h20c6.075 0 11-4.925 11-11s-4.925-11-11-11z"/><path d="m357.833 48.621-14.142 14.142c-4.296 4.296-4.296 11.261 0 15.557 2.148 2.147 4.963 3.222 7.778 3.222s5.63-1.074 7.778-3.222l14.142-14.142c4.296-4.296 4.296-11.261 0-15.557-4.296-4.295-11.259-4.295-15.556 0z"/></g></g><g/><g/><g/><g/><g/><g/><g/><g/><g/><g/><g/><g/><g/><g/><g/></svg>