<svg id="Capa_1" enable-background="new 0 0 512 512" viewBox="0 0 512 512" xmlns="http://www.w3.org/2000/svg" fill="#E6ECF2"><g><g fill="#0496FF"><path d="m180.693 234.548c0-6.075-4.925-11-11-11h-35.686c-3.838-13.721-14.662-24.546-28.384-28.384v-27.54c0-6.075-4.925-11-11-11s-11 4.925-11 11v27.54c-17.224 4.817-29.899 20.643-29.899 39.384s12.675 34.567 29.899 39.385v70.719c0 6.075 4.925 11 11 11s11-4.925 11-11v-70.719c13.721-3.838 24.546-14.663 28.384-28.384h35.686c6.076-.001 11-4.926 11-11.001zm-86.069 18.899c-10.421 0-18.899-8.478-18.899-18.899s8.479-18.899 18.899-18.899 18.898 8.478 18.898 18.899-8.477 18.899-18.898 18.899z"/><path d="m181.33 77.394h35.285c3.838 13.722 14.663 24.547 28.385 28.385v61.845c0 6.075 4.925 11 11 11s11-4.925 11-11v-61.845c13.722-3.838 24.547-14.663 28.385-28.385h36.881c6.075 0 11-4.925 11-11s-4.925-11-11-11h-36.881c-4.818-17.224-20.644-29.899-39.385-29.899s-34.567 12.675-39.385 29.899h-35.285c-6.075 0-11 4.925-11 11s4.925 11 11 11zm74.67-29.899c10.421 0 18.899 8.478 18.899 18.899s-8.479 18.899-18.899 18.899-18.899-8.478-18.899-18.899 8.478-18.899 18.899-18.899z"/><path d="m332.266 391.702h-36.881c-3.838-13.722-14.663-24.547-28.385-28.385v-36.061c0-6.075-4.925-11-11-11s-11 4.925-11 11v36.061c-13.722 3.838-24.547 14.663-28.385 28.385h-35.725c-6.075 0-11 4.925-11 11s4.925 11 11 11h35.726c4.818 17.224 20.644 29.899 39.385 29.899s34.567-12.675 39.385-29.899h36.881c6.075 0 11-4.925 11-11s-4.926-11-11.001-11zm-76.266 29.899c-10.421 0-18.899-8.478-18.899-18.899s8.479-18.899 18.899-18.899 18.899 8.478 18.899 18.899-8.478 18.899-18.899 18.899z"/><path d="m428.376 195.164v-28.861c0-6.075-4.925-11-11-11s-11 4.925-11 11v28.861c-13.721 3.838-24.546 14.662-28.384 28.384h-34.925c-6.075 0-11 4.925-11 11s4.925 11 11 11h34.925c3.838 13.722 14.662 24.547 28.384 28.384v70.719c0 6.075 4.925 11 11 11s11-4.925 11-11v-70.719c17.224-4.818 29.899-20.644 29.899-39.385s-12.675-34.566-29.899-39.383zm-11 58.283c-10.421 0-18.898-8.478-18.898-18.899s8.478-18.899 18.898-18.899 18.899 8.478 18.899 18.899-8.478 18.899-18.899 18.899z"/></g><g><path d="m26.058 132.789h57.566v20.904h-35.345c-6.075 0-11 4.925-11 11s4.925 11 11 11h92.689c6.075 0 11-4.925 11-11s-4.925-11-11-11h-35.345v-20.904h57.566c14.368 0 26.058-11.689 26.058-26.058v-80.673c.001-14.369-11.688-26.058-26.057-26.058h-137.132c-14.369 0-26.058 11.689-26.058 26.058v80.673c0 14.368 11.689 26.058 26.058 26.058zm-4.058-106.731c0-2.238 1.82-4.058 4.058-4.058h137.132c2.237 0 4.058 1.82 4.058 4.058v80.673c0 2.237-1.82 4.058-4.058 4.058h-137.132c-2.237 0-4.058-1.82-4.058-4.058z"/><path d="m485.942 0h-137.132c-14.368 0-26.058 11.689-26.058 26.058v80.673c0 14.368 11.689 26.058 26.058 26.058h57.566v20.904h-35.345c-6.075 0-11 4.925-11 11s4.925 11 11 11h92.689c6.075 0 11-4.925 11-11s-4.925-11-11-11h-35.345v-20.904h57.566c14.368 0 26.058-11.689 26.058-26.058v-80.673c.001-14.369-11.688-26.058-26.057-26.058zm4.058 106.731c0 2.237-1.82 4.058-4.058 4.058h-137.132c-2.237 0-4.058-1.82-4.058-4.058v-80.673c0-2.237 1.82-4.058 4.058-4.058h137.133c2.237 0 4.058 1.82 4.058 4.058v80.673z"/><path d="m302.345 313.903h-35.345v-20.903h57.566c14.368 0 26.058-11.689 26.058-26.058v-80.673c0-14.368-11.689-26.058-26.058-26.058h-137.132c-14.368 0-26.058 11.689-26.058 26.058v80.673c0 14.368 11.689 26.058 26.058 26.058h57.566v20.904h-35.345c-6.075 0-11 4.925-11 11s4.925 11 11 11h92.689c6.075 0 11-4.925 11-11s-4.924-11.001-10.999-11.001zm-118.969-46.961v-80.673c0-2.237 1.82-4.058 4.058-4.058h137.133c2.237 0 4.058 1.82 4.058 4.058v80.673c0 2.237-1.82 4.058-4.058 4.058h-137.133c-2.238 0-4.058-1.821-4.058-4.058z"/><path d="m163.19 336.308h-137.132c-14.369 0-26.058 11.689-26.058 26.057v80.673c0 14.368 11.689 26.058 26.058 26.058h57.566v20.904h-35.345c-6.075 0-11 4.925-11 11s4.925 11 11 11h92.689c6.075 0 11-4.925 11-11s-4.925-11-11-11h-35.345v-20.904h57.566c14.368 0 26.058-11.689 26.058-26.058v-80.673c.001-14.368-11.688-26.057-26.057-26.057zm4.058 106.731c0 2.237-1.82 4.058-4.058 4.058h-137.132c-2.237 0-4.058-1.82-4.058-4.058v-80.673c0-2.237 1.82-4.058 4.058-4.058h137.132c2.237 0 4.058 1.82 4.058 4.058z"/><path d="m485.942 336.308h-137.132c-14.368 0-26.058 11.689-26.058 26.058v80.673c0 14.368 11.689 26.058 26.058 26.058h57.566v20.903h-35.345c-6.075 0-11 4.925-11 11s4.925 11 11 11h92.689c6.075 0 11-4.925 11-11s-4.925-11-11-11h-35.345v-20.904h57.566c14.368 0 26.058-11.689 26.058-26.058v-80.673c.001-14.368-11.688-26.057-26.057-26.057zm4.058 106.731c0 2.237-1.82 4.058-4.058 4.058h-137.132c-2.237 0-4.058-1.82-4.058-4.058v-80.673c0-2.237 1.82-4.058 4.058-4.058h137.133c2.237 0 4.058 1.82 4.058 4.058v80.673z"/></g></g><g/><g/><g/><g/><g/><g/><g/><g/><g/><g/><g/><g/><g/><g/><g/></svg>