<svg id="Capa_1" enable-background="new 0 0 512 512" viewBox="0 0 512 512" xmlns="http://www.w3.org/2000/svg" fill="#052438"><g><g fill="#0496FF"><path d="m173.953 256c0-6.075-4.925-11-11-11h-27.718c-4.803-16.942-20.4-29.395-38.86-29.395-22.273 0-40.395 18.121-40.395 40.395s18.121 40.395 40.395 40.395c18.46 0 34.056-12.452 38.86-29.395h27.718c6.075 0 11-4.925 11-11zm-77.577 18.395c-10.143 0-18.395-8.252-18.395-18.395s8.252-18.395 18.395-18.395 18.395 8.252 18.395 18.395-8.252 18.395-18.395 18.395z"/><path d="m216.043 320.697c-6.075 0-11 4.925-11 11v77.166h-30.77c-6.075 0-11 4.925-11 11s4.925 11 11 11h41.77c6.075 0 11-4.925 11-11v-88.166c0-6.075-4.925-11-11-11z"/><path d="m216.043 81.137h-41.77c-6.075 0-11 4.925-11 11s4.925 11 11 11h30.77v76.634c0 6.075 4.925 11 11 11s11-4.925 11-11v-87.634c0-6.075-4.925-11-11-11z"/><path d="m337.727 408.863h-30.77v-77.166c0-6.075-4.925-11-11-11s-11 4.925-11 11v88.166c0 6.075 4.925 11 11 11h41.77c6.075 0 11-4.925 11-11s-4.925-11-11-11z"/><path d="m295.957 201.009c6.075 0 11-4.925 11-11v-86.873h30.77c6.075 0 11-4.925 11-11s-4.925-11-11-11h-41.77c-6.075 0-11 4.925-11 11v97.873c0 6.075 4.925 11 11 11z"/><path d="m421.455 215.605c-18.46 0-34.056 12.452-38.86 29.395h-33.549c-6.075 0-11 4.925-11 11s4.925 11 11 11h33.549c4.803 16.942 20.4 29.395 38.86 29.395 22.273 0 40.395-18.121 40.395-40.395s-18.121-40.395-40.395-40.395zm0 58.79c-10.143 0-18.395-8.252-18.395-18.395s8.252-18.395 18.395-18.395 18.395 8.252 18.395 18.395-8.252 18.395-18.395 18.395z"/></g><g><path d="m92.137 184.273c50.805 0 92.137-41.333 92.137-92.137s-41.333-92.136-92.137-92.136-92.137 41.333-92.137 92.137 41.332 92.136 92.137 92.136zm-35.719-31.81c6.548-13.443 20.462-22.403 35.719-22.403s29.171 8.96 35.719 22.403c-10.47 6.223-22.681 9.81-35.719 9.81s-25.25-3.587-35.719-9.81zm15.724-64.398v-9.55c0-11.025 8.97-19.995 19.995-19.995s19.995 8.97 19.995 19.995v9.55c0 11.025-8.97 19.995-19.995 19.995s-19.995-8.969-19.995-19.995zm19.995-66.065c38.674 0 70.137 31.463 70.137 70.137 0 17.57-6.509 33.639-17.223 45.958-5.418-8.98-13.049-16.405-22.013-21.627 6.883-7.482 11.094-17.458 11.094-28.402v-9.55c0-23.156-18.839-41.995-41.995-41.995s-41.995 18.838-41.995 41.994v9.55c0 10.944 4.212 20.92 11.094 28.402-8.965 5.222-16.595 12.647-22.013 21.627-10.714-12.319-17.223-28.387-17.223-45.957 0-38.674 31.463-70.137 70.137-70.137z"/><path d="m419.863 184.273c50.805 0 92.137-41.333 92.137-92.137s-41.332-92.136-92.137-92.136-92.137 41.333-92.137 92.137 41.333 92.136 92.137 92.136zm-35.73-31.817c6.536-13.598 20.252-22.396 35.731-22.396 15.258 0 29.172 8.96 35.719 22.402-10.47 6.223-22.681 9.81-35.719 9.81-13.044.001-25.259-3.589-35.731-9.816zm15.735-64.391v-9.55c0-11.025 8.97-19.995 19.995-19.995s19.995 8.97 19.995 19.995v9.55c0 11.025-8.97 19.995-19.995 19.995s-19.995-8.969-19.995-19.995zm19.995-66.065c38.674 0 70.137 31.463 70.137 70.137 0 17.57-6.509 33.639-17.223 45.958-5.418-8.98-13.048-16.405-22.013-21.627 6.883-7.482 11.094-17.458 11.094-28.402v-9.55c0-23.156-18.839-41.995-41.995-41.995s-41.995 18.839-41.995 41.995v9.55c0 10.888 4.166 20.819 10.986 28.289-8.963 5.192-16.543 12.617-21.944 21.695-10.69-12.313-17.183-28.364-17.183-45.912 0-38.675 31.462-70.138 70.136-70.138z"/><path d="m92.137 327.727c-50.805 0-92.137 41.332-92.137 92.136s41.332 92.137 92.137 92.137 92.137-41.333 92.137-92.137-41.333-92.136-92.137-92.136zm-35.73 152.457c6.558-13.568 20.374-22.396 35.729-22.396 15.382 0 29.173 8.822 35.727 22.397-10.471 6.226-22.685 9.815-35.726 9.815-13.043 0-25.258-3.59-35.73-9.816zm15.735-64.392v-9.55c0-11.025 8.97-19.995 19.995-19.995s19.995 8.97 19.995 19.995v9.55c0 11.025-8.97 19.996-19.995 19.996s-19.995-8.971-19.995-19.996zm72.93 50.004c-5.411-9.057-13.006-16.479-21.963-21.677 6.841-7.474 11.023-17.421 11.023-28.327v-9.55c0-23.156-18.839-41.995-41.995-41.995s-41.995 18.839-41.995 41.995v9.55c0 10.912 4.186 20.862 11.032 28.337-8.956 5.199-16.557 12.619-21.971 21.669-10.702-12.316-17.203-28.376-17.203-45.935 0-38.673 31.463-70.137 70.137-70.137s70.137 31.463 70.137 70.137c-.001 17.558-6.501 33.617-17.202 45.933z"/><path d="m419.863 327.727c-50.805 0-92.137 41.333-92.137 92.137s41.333 92.136 92.137 92.136 92.137-41.333 92.137-92.137-41.332-92.136-92.137-92.136zm-35.72 152.462c6.547-13.445 20.454-22.401 35.72-22.401 15.269 0 29.175 8.956 35.721 22.401-10.47 6.223-22.682 9.811-35.721 9.811-13.038 0-25.25-3.588-35.72-9.811zm15.725-64.397v-9.55c0-11.025 8.97-19.995 19.995-19.995s19.995 8.97 19.995 19.995v9.55c0 11.025-8.97 19.996-19.995 19.996s-19.995-8.971-19.995-19.996zm72.909 50.029c-5.417-8.983-13.043-16.41-22.009-21.632 6.88-7.482 11.09-17.456 11.09-28.398v-9.55c0-23.156-18.839-41.995-41.995-41.995s-41.995 18.839-41.995 41.995v9.55c0 10.942 4.21 20.916 11.091 28.398-8.965 5.221-16.592 12.649-22.009 21.631-10.714-12.319-17.224-28.388-17.224-45.958 0-38.673 31.463-70.137 70.137-70.137s70.137 31.465 70.137 70.138c0 17.57-6.509 33.639-17.223 45.958z"/><path d="m152.953 202.187v107.626c0 16.378 13.325 29.703 29.703 29.703h146.688c16.378 0 29.703-13.325 29.703-29.703v-60.569c0-10.813-7.533-19.893-17.625-22.285v-21.294c0-12.63-10.275-22.905-22.905-22.905h-89.686l-3.143-5.071c-2.006-3.236-5.542-5.205-9.35-5.205h-33.682c-16.378 0-29.703 13.325-29.703 29.703zm165.564 2.573c.499 0 .905.406.905.905v20.673h-63.58l-13.375-21.579h76.05zm-78.148 38.374c2.006 3.236 5.542 5.205 9.35 5.205h86.423c.499 0 .905.406.905.906v60.569c0 4.248-3.456 7.703-7.703 7.703h-146.688c-4.247 0-7.703-3.456-7.703-7.703v-107.627c0-4.248 3.456-7.703 7.703-7.703h27.559z"/></g></g><g/><g/><g/><g/><g/><g/><g/><g/><g/><g/><g/><g/><g/><g/><g/></svg>