<svg id="Capa_1" enable-background="new 0 0 512 512" viewBox="0 0 512 512" xmlns="http://www.w3.org/2000/svg" fill="#E6ECF2"><g><path d="m428.271 422.361c10.34-9.484 16.836-23.096 16.836-38.2v-12.585c0-28.587-23.257-51.844-51.844-51.844s-51.844 23.257-51.844 51.844v12.585c0 15.096 6.489 28.702 16.82 38.185-8.574 4.326-16.323 10.23-22.815 17.442-9.769-15.524-23.955-28-40.788-35.642 14.004-11.305 22.985-28.597 22.985-47.955v-15.598c0-33.978-27.643-61.621-61.621-61.621s-61.621 27.643-61.621 61.621v15.598c0 19.358 8.98 36.65 22.985 47.955-16.83 7.641-31.015 20.115-40.784 35.636-6.491-7.214-14.239-13.117-22.813-17.442 10.328-9.483 16.815-23.087 16.815-38.18v-12.585c0-28.587-23.257-51.844-51.844-51.844s-51.844 23.257-51.844 51.844v12.585c0 15.104 6.496 28.716 16.836 38.2-25.351 12.835-42.781 39.128-42.781 69.432v9.208c0 6.075 4.925 11 11 11h408.103c6.075 0 11-4.925 11-11v-9.207c-.001-30.304-17.43-56.597-42.781-69.432zm-64.852-38.2v-12.585c0-16.456 13.388-29.844 29.844-29.844s29.844 13.388 29.844 29.844v12.585c0 16.456-13.388 29.844-29.844 29.844s-29.844-13.388-29.844-29.844zm-147.04-27.969v-15.598c0-21.847 17.774-39.621 39.621-39.621s39.621 17.774 39.621 39.621v15.598c0 21.847-17.774 39.621-39.621 39.621s-39.621-17.774-39.621-39.621zm-127.485 27.969v-12.585c0-16.456 13.388-29.844 29.844-29.844s29.844 13.388 29.844 29.844v12.585c0 16.456-13.388 29.844-29.844 29.844s-29.844-13.388-29.844-29.844zm29.843 51.844c19.405 0 37.339 10.085 47.481 26.495-2.594 8.581-3.995 17.674-3.995 27.09v.41h-99.246c.951-29.934 25.599-53.995 55.76-53.995zm65.487 53.584c0-39.578 32.199-71.776 71.776-71.776s71.776 32.199 71.776 71.776v.411h-143.552zm165.552.411v-.411c0-9.416-1.401-18.509-3.995-27.09 10.142-16.404 28.098-26.494 47.481-26.494 30.161 0 54.809 24.061 55.76 53.995z"/><g fill="#0496FF"><path d="m348.983 134.232c1.892-3.646 1.594-8.042-.771-11.4l-83.218-118.165c-2.061-2.926-5.416-4.667-8.994-4.667s-6.933 1.741-8.994 4.667l-83.219 118.166c-2.365 3.358-2.662 7.754-.771 11.4 1.892 3.646 5.657 5.934 9.764 5.934h31.41v85.179c0 6.075 4.925 11 11 11h81.617c6.075 0 11-4.925 11-11v-85.179h31.41c4.109-.001 7.874-2.289 9.766-5.935zm-52.174-16.066c-6.075 0-11 4.925-11 11v85.179h-59.617v-85.179c0-6.075-4.925-11-11-11h-21.209l62.017-88.062 62.018 88.062z"/><path d="m127.731 139.235c-2.061-2.926-5.416-4.667-8.994-4.667-3.579 0-6.933 1.741-8.994 4.667l-56.182 79.776c-2.365 3.358-2.662 7.754-.771 11.399 1.892 3.646 5.657 5.934 9.764 5.934h17.631v44.618c0 6.075 4.925 11 11 11h55.102c6.075 0 11-4.925 11-11v-44.618h17.632c4.107 0 7.873-2.288 9.764-5.934 1.892-3.646 1.594-8.042-.771-11.399zm18.557 75.11c-6.075 0-11 4.925-11 11v44.618h-33.102v-44.618c0-6.075-4.925-11-11-11h-7.431l34.981-49.672 34.982 49.672z"/><path d="m458.438 219.012-56.182-79.776c-2.061-2.926-5.415-4.667-8.994-4.667-3.578 0-6.933 1.741-8.994 4.667l-56.183 79.776c-2.365 3.358-2.662 7.754-.771 11.399 1.892 3.646 5.657 5.934 9.764 5.934h17.632v44.618c0 6.075 4.925 11 11 11h55.101c6.075 0 11-4.925 11-11v-44.618h17.632c4.107 0 7.873-2.288 9.764-5.934 1.894-3.645 1.596-8.041-.769-11.399zm-37.625-4.667c-6.075 0-11 4.925-11 11v44.618h-33.101v-44.618c0-6.075-4.925-11-11-11h-7.431l34.982-49.672 34.981 49.672z"/></g></g><g/><g/><g/><g/><g/><g/><g/><g/><g/><g/><g/><g/><g/><g/><g/></svg>