<svg id="Layer_1" enable-background="new 0 0 512 512" viewBox="0 0 512 512" xmlns="http://www.w3.org/2000/svg" fill="#E6ECF2"><g><path d="m508.101 209.652-79.98-67.593v-45.416c0-6.075-4.925-11-11-11h-55.757l-98.263-83.044c-4.1-3.465-10.102-3.465-14.201 0l-98.263 83.044h-55.757c-6.075 0-11 4.925-11 11v45.416l-79.98 67.593c-2.473 2.09-3.9 5.164-3.9 8.402v252.946c0 22.607 18.393 41 41 41h430c22.607 0 41-18.393 41-41v-252.946c0-3.238-1.427-6.312-3.899-8.402zm-18.101 31.357v173.491l-118.241-78.442zm-6.293-23.167-55.587 44.684v-91.662zm-227.707-192.439 71.28 60.24h-142.56zm150.12 82.24v172.568l-150.12 120.676-150.12-120.676v-172.568zm-265.879 228.416-118.241 78.442v-173.492zm-56.361-73.533-55.587-44.684 55.587-46.978zm387.12 227.474h-430c-10.477 0-19-8.523-19-19v-30.097l136.234-90.379 90.874 73.05c2.013 1.618 4.452 2.427 6.892 2.427s4.879-.809 6.892-2.427l90.874-73.05 136.234 90.378v30.098c0 10.476-8.523 19-19 19z"/><g fill="#0496FF"><path d="m352.503 207.327-8.794-1.999c-1.359-4.059-3.002-8.02-4.916-11.856l4.808-7.636c2.736-4.346 2.102-10.007-1.53-13.639l-23.557-23.557c-3.631-3.631-9.292-4.267-13.64-1.53l-7.636 4.808c-3.837-1.915-7.797-3.557-11.856-4.917l-1.998-8.792c-1.138-5.008-5.591-8.562-10.727-8.562h-33.314c-5.136 0-9.589 3.554-10.727 8.562l-1.998 8.792c-4.06 1.36-8.02 3.002-11.856 4.917l-7.636-4.808c-4.346-2.736-10.008-2.101-13.64 1.53l-23.557 23.557c-3.632 3.632-4.267 9.293-1.53 13.639l4.808 7.636c-1.914 3.836-3.557 7.797-4.916 11.856l-8.794 1.999c-5.008 1.139-8.562 5.591-8.562 10.727v33.314c0 5.136 3.554 9.588 8.562 10.727l8.793 1.998c1.359 4.059 3.002 8.021 4.916 11.856l-4.808 7.636c-2.736 4.346-2.102 10.007 1.53 13.639l23.557 23.557c3.632 3.631 9.292 4.268 13.64 1.53l7.636-4.808c3.837 1.915 7.797 3.557 11.856 4.917l1.998 8.793c1.138 5.008 5.591 8.562 10.727 8.562h33.314c5.136 0 9.589-3.554 10.727-8.562l1.998-8.793c4.06-1.36 8.02-3.002 11.856-4.917l7.636 4.808c4.347 2.736 10.008 2.101 13.64-1.53l23.557-23.557c3.632-3.632 4.267-9.293 1.53-13.639l-4.808-7.636c1.914-3.836 3.557-7.798 4.916-11.856l8.793-1.998c5.009-1.138 8.562-5.591 8.562-10.727v-33.314c.001-5.136-3.552-9.588-8.56-10.727zm-13.439 35.26-6.518 1.481c-4.031.917-7.209 4.015-8.225 8.022-1.659 6.541-4.258 12.809-7.726 18.63-2.116 3.552-2.062 7.991.142 11.49l3.566 5.666-11.139 11.139-5.665-3.567c-3.5-2.203-7.939-2.257-11.491-.142-5.821 3.468-12.09 6.067-18.629 7.726-4.008 1.016-7.107 4.193-8.023 8.225l-1.481 6.518h-15.752l-1.481-6.518c-.916-4.032-4.016-7.209-8.023-8.225-6.539-1.658-12.808-4.257-18.629-7.726-3.553-2.116-7.99-2.062-11.491.142l-5.665 3.567-11.139-11.139 3.566-5.666c2.203-3.499 2.258-7.938.142-11.49-3.468-5.821-6.066-12.089-7.726-18.63-1.016-4.007-4.193-7.106-8.225-8.022l-6.518-1.481v-15.753l6.519-1.481c4.03-.917 7.208-4.016 8.224-8.022 1.659-6.541 4.259-12.809 7.726-18.63 2.116-3.552 2.062-7.991-.142-11.49l-3.566-5.666 11.139-11.139 5.665 3.567c3.5 2.203 7.939 2.258 11.491.142 5.822-3.468 12.09-6.067 18.628-7.725 4.009-1.016 7.108-4.193 8.024-8.225l1.481-6.518h15.752l1.481 6.518c.916 4.032 4.016 7.209 8.024 8.225 6.538 1.658 12.806 4.257 18.628 7.725 3.553 2.116 7.99 2.062 11.491-.142l5.665-3.567 11.139 11.139-3.566 5.666c-2.203 3.499-2.258 7.938-.142 11.49 3.467 5.821 6.066 12.089 7.726 18.63 1.016 4.007 4.193 7.106 8.224 8.022l6.519 1.481z"/><path d="m256 193.109c-22.939 0-41.602 18.662-41.602 41.601s18.662 41.601 41.602 41.601 41.602-18.662 41.602-41.601-18.663-41.601-41.602-41.601zm0 61.203c-10.809 0-19.602-8.793-19.602-19.601s8.793-19.601 19.602-19.601 19.602 8.793 19.602 19.601-8.793 19.601-19.602 19.601z"/></g></g><g/><g/><g/><g/><g/><g/><g/><g/><g/><g/><g/><g/><g/><g/><g/></svg>