<svg id="Layer_1" enable-background="new 0 0 512 512" viewBox="0 0 512 512" xmlns="http://www.w3.org/2000/svg" fill="#052438"><g><g fill="#0496FF"><path d="m282.085 257.418c-3.388-1.355-7.229-.942-10.252 1.104s-4.833 5.459-4.833 9.109v38.682l-11 5-11-5v-38.682c0-3.65-1.811-7.062-4.833-9.109-3.021-2.046-6.861-2.459-10.252-1.104-27.174 10.871-44.925 37.839-44.171 67.107.598 23.181 12.723 44.477 32.088 57.061v39.018h22v-45.321c0-4.102-2.282-7.862-5.919-9.756-15.696-8.173-25.726-24.101-26.175-41.567-.361-13.986 5.426-27.207 15.264-36.476v25.913c0 4.313 2.521 8.229 6.448 10.014l22 10c2.892 1.314 6.212 1.314 9.104 0l22-10c3.927-1.785 6.448-5.701 6.448-10.014v-26.007c9.596 8.937 15.281 21.573 15.281 35.287 0 18.127-10.024 34.568-26.162 42.907-3.655 1.889-5.95 5.659-5.95 9.772v45.247h22v-38.921c19.967-12.888 32.112-34.922 32.112-59.005-.002-28.903-17.349-54.519-44.198-65.259z"/><path d="m76.127 44h-21.127c-6.075 0-11 4.925-11 11s4.925 11 11 11h21.127c6.075 0 11-4.925 11-11s-4.924-11-11-11z"/><path d="m141.255 44h-21.127c-6.075 0-11 4.925-11 11s4.925 11 11 11h21.127c6.075 0 11-4.925 11-11s-4.925-11-11-11z"/><path d="m467.78 52.85c-1.252-7.494-10.702-11.378-16.89-7-8.088 5.32-5.553 18.113 3.96 19.94 7.389 1.702 14.656-5.545 12.93-12.94z"/></g><g><path d="m471 0h-430c-22.607 0-41 18.393-41 41v251c0 22.607 18.393 41 41 41h25v20.697c0 5.136 3.554 9.588 8.562 10.727l22.282 5.064c3.248 10.896 7.618 21.434 13.045 31.458l-12.184 19.352c-2.736 4.346-2.101 10.007 1.53 13.639l44.827 44.827c3.631 3.631 9.292 4.268 13.639 1.53l19.352-12.184c10.024 5.428 20.562 9.797 31.458 13.045l5.064 22.282c1.138 5.008 5.591 8.562 10.727 8.562h63.395c5.136 0 9.588-3.554 10.727-8.562l5.064-22.282c10.896-3.248 21.434-7.618 31.458-13.045l19.352 12.184c4.345 2.736 10.007 2.101 13.639-1.53l44.827-44.827c3.631-3.632 4.267-9.293 1.53-13.639l-12.184-19.352c5.428-10.024 9.797-20.562 13.045-31.458l22.282-5.064c5.008-1.138 8.562-5.591 8.562-10.727v-20.697h25c22.607 0 41-18.393 41-41v-251c.001-22.607-18.392-41-40.999-41zm-430 22h430c10.477 0 19 8.523 19 19v47h-468v-47c0-10.477 8.523-19 19-19zm383 322.917-20.135 4.576c-4.031.917-7.208 4.016-8.225 8.023-3.391 13.375-8.705 26.19-15.795 38.092-2.116 3.552-2.062 7.992.142 11.491l11.012 17.491-32.409 32.409-17.491-11.012c-3.5-2.203-7.939-2.258-11.491-.142-11.901 7.09-24.717 12.405-38.092 15.795-4.007 1.016-7.106 4.193-8.023 8.225l-4.576 20.135h-45.834l-4.576-20.135c-.917-4.031-4.016-7.208-8.023-8.225-13.375-3.391-26.19-8.705-38.092-15.795-3.553-2.116-7.991-2.062-11.491.142l-17.491 11.012-32.409-32.409 11.012-17.491c2.203-3.499 2.258-7.938.142-11.491-7.09-11.901-12.405-24.717-15.795-38.092-1.016-4.007-4.193-7.106-8.225-8.023l-20.135-4.576v-45.834l20.135-4.576c4.031-.917 7.208-4.016 8.225-8.023 3.391-13.375 8.705-26.19 15.795-38.092 2.116-3.552 2.062-7.992-.142-11.491l-11.012-17.491 32.409-32.409 17.491 11.012c3.499 2.203 7.938 2.258 11.491.142 11.901-7.09 24.717-12.405 38.092-15.795 4.007-1.016 7.106-4.193 8.023-8.225l4.576-20.135h45.834l4.576 20.135c.917 4.031 4.016 7.208 8.023 8.225 13.375 3.391 26.19 8.705 38.092 15.795 3.552 2.116 7.991 2.062 11.491-.142l17.491-11.012 32.409 32.409-11.012 17.491c-2.203 3.499-2.258 7.938-.142 11.491 7.09 11.901 12.405 24.717 15.795 38.092 1.016 4.007 4.193 7.106 8.225 8.023l20.135 4.576zm47-33.917h-25v-20.697c0-5.136-3.554-9.588-8.562-10.727l-22.282-5.064c-3.248-10.896-7.618-21.434-13.045-31.458l12.184-19.352c2.736-4.346 2.101-10.007-1.53-13.639l-44.827-44.827c-3.632-3.631-9.292-4.268-13.639-1.53l-19.352 12.184c-10.024-5.428-20.562-9.797-31.458-13.045l-5.064-22.282c-1.138-5.008-5.591-8.562-10.727-8.562h-63.395c-5.136 0-9.588 3.554-10.727 8.562l-5.064 22.282c-10.896 3.248-21.434 7.618-31.458 13.045l-19.352-12.184c-4.346-2.737-10.008-2.102-13.639 1.53l-44.827 44.827c-3.631 3.632-4.267 9.293-1.53 13.639l12.184 19.352c-5.428 10.024-9.797 20.562-13.045 31.458l-22.282 5.064c-5.009 1.138-8.563 5.591-8.563 10.727v20.697h-25c-10.477 0-19-8.523-19-19v-182h468v182c0 10.477-8.523 19-19 19z"/><path d="m256 208.396c-62.642 0-113.604 50.962-113.604 113.604s50.962 113.604 113.604 113.604 113.604-50.962 113.604-113.604-50.962-113.604-113.604-113.604zm0 205.208c-50.511 0-91.604-41.093-91.604-91.604s41.093-91.604 91.604-91.604 91.604 41.093 91.604 91.604-41.093 91.604-91.604 91.604z"/></g></g><g/><g/><g/><g/><g/><g/><g/><g/><g/><g/><g/><g/><g/><g/><g/></svg>