<svg id="Layer_1" enable-background="new 0 0 512 512" viewBox="0 0 512 512" xmlns="http://www.w3.org/2000/svg" fill="#E6ECF2"><g><g><g><path d="m202.231 457.311c-5.538 0-10.305-4.171-10.921-9.804l-9.603-87.7c-.661-6.039 3.698-11.471 9.737-12.132 6.021-.657 11.471 3.698 12.132 9.737l9.603 87.7c.661 6.039-3.698 11.471-9.737 12.132-.406.045-.81.067-1.211.067z" fill="#0496FF"/></g><g><path d="m131.09 458.946c-.4 0-.804-.022-1.211-.066-6.039-.661-10.398-6.093-9.737-12.132l12.71-116.085c.66-6.04 6.086-10.396 12.132-9.737 6.039.661 10.398 6.093 9.737 12.132l-12.71 116.085c-.616 5.631-5.383 9.803-10.921 9.803z" fill="#0496FF"/></g></g><g><path d="m348.74 255.368c-14.871-27.778-39.525-59.541-69.421-89.437s-61.658-54.55-89.438-69.421c-40.364-21.609-59.417-15.566-68.294-6.692-.036.036-.071.071-.107.107-31.163 31.219-48.324 72.698-48.324 116.814 0 44.167 17.2 85.691 48.431 116.922s72.755 48.43 116.923 48.43c44.167 0 85.69-17.199 116.922-48.43l.025-.025c8.862-8.885 14.874-27.94-6.717-68.268zm-169.241-139.463c25.927 13.88 55.853 37.171 84.264 65.583 28.411 28.411 51.702 58.336 65.582 84.264 13.529 25.272 13.711 39.175 10.531 42.354-3.178 3.179-17.082 2.998-42.354-10.531-25.928-13.88-55.854-37.171-84.265-65.583s-51.702-58.337-65.582-84.264c-13.529-25.271-13.711-39.174-10.531-42.354 1.019-1.019 3.138-1.692 6.381-1.692 6.877 0 18.801 3.03 35.974 12.223zm-42.354 192.2c-27.076-27.076-41.987-63.075-41.987-101.366 0-27.165 7.505-53.176 21.535-75.667 2.323 7.736 6.046 16.686 11.588 27.038 14.871 27.779 39.525 59.542 69.421 89.438s61.659 54.55 89.438 69.421c10.332 5.531 19.266 9.25 26.992 11.574-55.285 34.328-129.036 27.515-176.987-20.438z"/><path d="m238.489 443.144c-2.063-2.063-4.861-3.222-7.778-3.222h-127.922c-2.917 0-5.715 1.159-7.778 3.222l-25.039 25.039c-2.062 2.063-3.222 4.861-3.222 7.778v25.039c0 6.075 4.925 11 11 11h178c6.075 0 11-4.925 11-11v-25.039c0-2.917-1.159-5.715-3.222-7.778zm6.261 46.856h-156v-9.482l18.596-18.595h118.809l18.596 18.595v9.482z"/></g><g fill="#0496FF"><path d="m408.567 36.683c-23.654-23.655-55.104-36.683-88.558-36.683-6.074 0-11 4.925-11 11s4.925 11 11 11c27.577 0 53.503 10.74 73.002 30.239 19.5 19.499 30.239 45.425 30.239 73.002 0 6.075 4.925 11 11 11s11-4.925 11-11c0-33.453-13.027-64.904-36.683-88.558z"/><path d="m320.009 45.697c-6.075 0-11 4.925-11 11s4.925 11 11 11c15.371 0 29.822 5.986 40.69 16.854 10.869 10.869 16.854 25.319 16.854 40.69 0 6.075 4.925 11 11 11s11-4.925 11-11c0-21.247-8.274-41.223-23.298-56.247-15.024-15.023-34.999-23.297-56.246-23.297z"/><path d="m296.074 101.307c-10.475 10.476-12.635 26.166-6.48 38.792l-50.156 50.155c-4.296 4.296-4.296 11.261 0 15.557 2.148 2.148 4.963 3.222 7.778 3.222 2.814 0 5.631-1.074 7.778-3.222l50.156-50.155c4.673 2.278 9.765 3.417 14.858 3.417 8.668 0 17.336-3.299 23.935-9.897 6.393-6.393 9.914-14.894 9.914-23.935s-3.521-17.542-9.914-23.935c-13.197-13.197-34.672-13.196-47.869.001zm32.313 32.312c-4.619 4.62-12.137 4.619-16.756 0-4.619-4.62-4.619-12.137 0-16.756 2.31-2.31 5.344-3.465 8.378-3.465s6.068 1.155 8.378 3.465c4.62 4.62 4.62 12.137 0 16.756z"/></g><g><path d="m239.768 273.209c-2.815 0-5.63-1.073-7.777-3.221-4.296-4.295-4.297-11.26-.002-15.556l2.872-2.873c11.351-11.352 11.351-29.821.001-41.17-5.467-5.467-12.777-8.478-20.585-8.478s-15.118 3.011-20.585 8.478l-2.871 2.872c-4.297 4.297-11.262 4.297-15.557.001-4.296-4.295-4.297-11.26-.002-15.556l2.872-2.873c9.622-9.623 22.459-14.922 36.142-14.922h.001c13.684 0 26.52 5.299 36.142 14.921 19.927 19.927 19.927 52.353 0 72.282l-2.871 2.872c-2.15 2.149-4.965 3.223-7.78 3.223z"/></g></g><g/><g/><g/><g/><g/><g/><g/><g/><g/><g/><g/><g/><g/><g/><g/></svg>