<svg id="Layer_1" enable-background="new 0 0 512 512" viewBox="0 0 512 512" xmlns="http://www.w3.org/2000/svg" fill="#052438"><g><path d="m478.5 120h-327.485l-14.015-14.017v-72.483c0-18.472-15.028-33.5-33.5-33.5s-33.5 15.028-33.5 33.5v72.483l-14.017 14.017h-44.983c-6.075 0-11 4.925-11 11v45c0 6.075 4.925 11 11 11h44.984l14.015 14.016v227.984h-19c-2.917 0-5.715 1.159-7.778 3.222l-20 20c-2.063 2.062-3.221 4.86-3.221 7.778v41c0 6.075 4.925 11 11 11h145c6.075 0 11-4.925 11-11v-41c0-2.917-1.159-5.715-3.222-7.778l-20-20c-2.062-2.063-4.86-3.222-7.778-3.222h-19v-227.984l14.015-14.016h327.485c18.472 0 33.5-15.028 33.5-33.5s-15.028-33.5-33.5-33.5zm-393.404 65-13.096-13.097v-36.808l13.096-13.095h36.807l13.096 13.096v36.808l-13.096 13.096zm18.404-163c6.341 0 11.5 5.159 11.5 11.5v66.5h-23v-66.5c-.001-6.341 5.158-11.5 11.5-11.5zm-81.5 120h28v23h-28zm143 322.556v25.444h-123v-25.444l13.555-13.556h95.888zm-73.001-35.556v-222h23v222zm386.501-264h-321.501v-23h321.501c6.341 0 11.5 5.159 11.5 11.5s-5.159 11.5-11.5 11.5z"/><g fill="#0496FF"><path d="m195.999 76.618c-6.075 0-11 4.925-11 11v131.764c0 6.075 4.925 11 11 11s11-4.925 11-11v-131.764c0-6.076-4.925-11-11-11z"/><path d="m245.999 22.5c-6.075 0-11 4.925-11 11v239.999c0 6.075 4.925 11 11 11s11-4.925 11-11v-239.999c0-6.075-4.925-11-11-11z"/><path d="m295.998 76.618c-6.075 0-11 4.925-11 11v131.764c0 6.075 4.925 11 11 11s11-4.925 11-11v-131.764c0-6.076-4.925-11-11-11z"/><path d="m345.998 22.5c-6.075 0-11 4.925-11 11v239.999c0 6.075 4.925 11 11 11s11-4.925 11-11v-239.999c0-6.075-4.925-11-11-11z"/><path d="m395.998 76.618c-6.075 0-11 4.925-11 11v131.764c0 6.075 4.925 11 11 11s11-4.925 11-11v-131.764c0-6.076-4.925-11-11-11z"/><path d="m445.998 22.5c-6.075 0-11 4.925-11 11v239.999c0 6.075 4.925 11 11 11s11-4.925 11-11v-239.999c0-6.075-4.925-11-11-11z"/><path d="m103.503 142.5h-.007c-6.075 0-10.996 4.925-10.996 11s4.928 11 11.003 11 11-4.925 11-11-4.925-11-11-11z"/></g></g><g/><g/><g/><g/><g/><g/><g/><g/><g/><g/><g/><g/><g/><g/><g/></svg>