<svg id="Layer_1" enable-background="new 0 0 512 512" viewBox="0 0 512 512" xmlns="http://www.w3.org/2000/svg" fill="#052438"><g><g fill="#0496FF"><path d="m376.501 306.5h-27.5v-22h16.087c6.075 0 11-4.925 11-11s-4.925-11-11-11h-16.087v-21.999h27.5c6.075 0 11-4.925 11-11s-4.925-11-11-11h-38.5c-6.075 0-11 4.925-11 11v87.999c0 6.075 4.925 11 11 11h38.5c6.075 0 11-4.925 11-11s-4.925-11-11-11z"/><path d="m213.999 218.501c-6.075 0-11 4.925-11 11v87.999c0 6.075 4.925 11 11 11s11-4.925 11-11v-87.999c0-6.075-4.925-11-11-11z"/><path d="m173.999 306.5h-27.5v-76.999c0-6.075-4.925-11-11-11s-11 4.925-11 11v87.999c0 6.075 4.925 11 11 11h38.5c6.075 0 11-4.925 11-11s-4.925-11-11-11z"/><path d="m300.669 218.829c-5.889-1.47-11.866 2.109-13.34 8.004l-11.329 45.315-11.328-45.314c-1.474-5.894-7.444-9.479-13.34-8.004-5.894 1.474-9.478 7.446-8.004 13.34l22 87.999c1.225 4.896 5.624 8.332 10.672 8.332 5.047 0 9.447-3.436 10.672-8.332l22.001-87.999c1.473-5.894-2.111-11.867-8.004-13.341z"/><path d="m305.335 16.474c-5.261-3.036-11.989-1.233-15.026 4.026l-34.309 59.425-34.309-59.425c-3.036-5.261-9.762-7.065-15.026-4.026-5.261 3.038-7.063 9.765-4.026 15.026l43.835 75.925c1.965 3.403 5.597 5.5 9.526 5.5s7.562-2.097 9.526-5.5l43.835-75.925c3.037-5.261 1.235-11.988-4.026-15.026z"/></g><g><path d="m501 92.501h-490c-6.075 0-11 4.925-11 11v339.999c0 6.075 4.925 11 11 11h50.485l-15.011 26c-3.037 5.262-1.234 11.988 4.026 15.026 1.732 1 3.623 1.476 5.489 1.476 3.802 0 7.5-1.974 9.537-5.502l21.362-37h338.224l21.362 37c2.037 3.529 5.734 5.502 9.537 5.502 1.865 0 3.757-.476 5.489-1.476 5.261-3.038 7.063-9.765 4.026-15.026l-15.011-26h50.485c6.075 0 11-4.925 11-11v-339.999c0-6.075-4.925-11-11-11zm-11 339.999h-468v-317.999h468z"/><path d="m56 409.501h400c6.075 0 11-4.925 11-11v-250.001c0-6.075-4.925-11-11-11h-400c-6.075 0-11 4.925-11 11v250.001c0 6.075 4.925 11 11 11zm11-250.001h378v228.001h-378z"/></g></g><g/><g/><g/><g/><g/><g/><g/><g/><g/><g/><g/><g/><g/><g/><g/></svg>