<svg id="Layer_1" enable-background="new 0 0 512 512" viewBox="0 0 512 512" xmlns="http://www.w3.org/2000/svg" fill="#E6ECF2"><g><g fill="#0496FF"><path d="m246.473 117.425c1.965 3.403 5.597 5.5 9.526 5.5s7.562-2.097 9.526-5.5l43.835-75.924c3.037-5.261 1.235-11.988-4.026-15.026-5.262-3.036-11.989-1.233-15.026 4.026l-34.308 59.424-34.309-59.424c-3.038-5.262-9.766-7.063-15.026-4.026-5.261 3.038-7.064 9.766-4.026 15.026z"/><path d="m319 240.777-57.5-33.197c-3.402-1.965-7.596-1.965-11 0l-57.5 33.197c-3.403 1.965-5.5 5.597-5.5 9.526v66.396c0 3.93 2.097 7.562 5.5 9.526l57.5 33.197c1.702.982 3.601 1.474 5.5 1.474s3.798-.491 5.5-1.474l57.5-33.197c3.403-1.965 5.5-5.597 5.5-9.526v-66.396c0-3.93-2.097-7.562-5.5-9.526zm-63-10.969 35.5 20.495-35.5 20.495-35.5-20.495zm-46.5 39.547 35.5 20.496v40.992l-35.5-20.495zm57.5 61.488v-40.992l35.499-20.495v40.992z"/><path d="m385.445 232.501h-20c-6.075 0-11 4.925-11 11v79.999c0 6.075 4.925 11 11 11h20c17.094 0 31-13.906 31-30.999v-40.001c0-17.093-13.906-30.999-31-30.999zm9 71c0 4.962-4.037 8.999-9 8.999h-9v-57.999h9c4.963 0 9 4.037 9 8.999z"/><path d="m157.067 263.013c0-16.824-13.688-30.512-30.512-30.512s-30.512 13.688-30.512 30.512c0 6.075 4.925 11 11 11s11-4.925 11-11c0-4.693 3.818-8.512 8.512-8.512s8.512 3.818 8.512 8.512c0 3.419-2.034 6.496-5.181 7.838-4.141 1.767-6.787 5.878-6.681 10.379.107 4.5 2.945 8.481 7.165 10.05 4.268 1.587 7.136 5.714 7.136 10.27 0 6.038-4.913 10.951-10.951 10.951s-10.951-4.913-10.951-10.951c0-6.075-4.925-11-11-11s-11 4.925-11 11c0 18.169 14.782 32.951 32.951 32.951s32.951-14.782 32.951-32.951c0-7.922-2.884-15.414-7.799-21.247 3.423-4.982 5.36-10.972 5.36-17.29z"/></g><g><path d="m501 102.501h-490c-6.075 0-11 4.925-11 11v339.999c0 6.075 4.925 11 11 11h172.943l19.278 19.278c2.063 2.062 4.861 3.222 7.778 3.222h90.001c2.917 0 5.715-1.159 7.778-3.222l19.278-19.278h172.944c6.075 0 11-4.925 11-11v-339.999c0-6.075-4.925-11-11-11zm-11 339.999h-166.5c-2.917 0-5.715 1.159-7.778 3.222l-19.278 19.278h-80.888l-19.278-19.278c-2.063-2.062-4.861-3.222-7.778-3.222h-166.5v-317.999h468z"/><path d="m56 419.501h400c6.075 0 11-4.925 11-11v-250.001c0-6.075-4.925-11-11-11h-400c-6.075 0-11 4.925-11 11v250.001c0 6.075 4.925 11 11 11zm11-250.001h378v228.001h-378z"/></g></g><g/><g/><g/><g/><g/><g/><g/><g/><g/><g/><g/><g/><g/><g/><g/></svg>