<svg id="Layer_1" enable-background="new 0 0 512.016 512.016" viewBox="0 0 512.016 512.016" xmlns="http://www.w3.org/2000/svg" fill="#052438"><g><g><g><path d="m501.008 97c-6.075 0-11-4.925-11-11 0-17.095-6.657-33.167-18.745-45.254-12.088-12.089-28.159-18.746-45.255-18.746-6.075 0-11-4.925-11-11s4.925-11 11-11c22.972 0 44.568 8.945 60.812 25.188 16.243 16.243 25.188 37.839 25.188 60.812 0 6.075-4.925 11-11 11z" fill="#0496FF"/></g><g><path d="m456.008 97c-6.075 0-11-4.925-11-11 0-5.076-1.977-9.847-5.564-13.435-3.589-3.589-8.36-5.565-13.436-5.565-6.075 0-11-4.925-11-11s4.925-11 11-11c10.951 0 21.247 4.265 28.992 12.009 7.743 7.744 12.008 18.04 12.008 28.992 0 6.074-4.925 10.999-11 10.999z" fill="#0496FF"/></g><g><path d="m407.48 171.576c-7.938 0-15.877-3.022-21.92-9.065l-36.062-36.063c-5.84-5.84-9.056-13.625-9.056-21.92 0-8.296 3.216-16.082 9.057-21.921l14.804-14.804c4.297-4.296 11.26-4.296 15.557 0 4.296 4.296 4.296 11.261 0 15.557l-14.805 14.805c-1.685 1.685-2.612 3.944-2.612 6.363s.928 4.68 2.612 6.364l36.062 36.063c3.509 3.51 9.219 3.508 12.728 0l14.805-14.805c4.295-4.296 11.26-4.296 15.557 0 4.296 4.296 4.296 11.261 0 15.556l-14.805 14.805c-6.045 6.043-13.984 9.065-21.922 9.065z" fill="#0496FF"/></g><g><path d="m256.979 288.587c-6.075 0-11-4.925-11-11v-11.558h-11.558c-6.075 0-11-4.925-11-11s4.925-11 11-11h22.558c6.075 0 11 4.925 11 11v22.558c0 6.076-4.925 11-11 11z" fill="#0496FF"/></g><g><path d="m189.537 356.029h-22.559c-6.075 0-11-4.925-11-11v-22.558c0-6.075 4.925-11 11-11s11 4.925 11 11v11.558h11.559c6.075 0 11 4.925 11 11s-4.924 11-11 11z" fill="#0496FF"/></g><g><path d="m211.982 311.032c-2.815 0-5.63-1.074-7.778-3.222-4.296-4.296-4.299-11.264-.003-15.56 4.297-4.297 11.259-4.298 15.554-.003l.006.006c4.296 4.296 4.296 11.261 0 15.557-2.149 2.148-4.964 3.222-7.779 3.222z" fill="#0496FF"/></g><g><path d="m166.979 288.587c-6.075 0-11-4.925-11-11v-22.558c0-6.075 4.925-11 11-11h22.559c6.075 0 11 4.925 11 11s-4.925 11-11 11h-11.559v11.558c0 6.076-4.925 11-11 11z" fill="#0496FF"/></g><g><path d="m256.979 356.029h-22.558c-6.075 0-11-4.925-11-11s4.925-11 11-11h11.558v-11.558c0-6.075 4.925-11 11-11s11 4.925 11 11v22.558c0 6.075-4.925 11-11 11z" fill="#0496FF"/></g></g><g><g><path d="m162.26 512.016c-10.416 0-20.831-3.964-28.761-11.894l-121.613-121.613c-7.659-7.659-11.878-17.874-11.878-28.761 0-10.888 4.219-21.102 11.878-28.761l285.192-285.193c15.859-15.858 41.662-15.858 57.521 0l121.614 121.614c15.858 15.858 15.858 41.662 0 57.521l-285.191 285.193c-7.93 7.929-18.346 11.894-28.762 11.894zm163.579-466.126c-4.782 0-9.563 1.82-13.204 5.461l-285.192 285.192c-3.504 3.504-5.435 8.193-5.435 13.205 0 5.011 1.931 9.7 5.435 13.204l121.613 121.614c7.28 7.282 19.129 7.28 26.409 0l285.192-285.192c7.28-7.281 7.281-19.128 0-26.409l-121.614-121.614c-3.64-3.641-8.422-5.461-13.204-5.461z"/></g><g><path d="m272.894 154.663c-2.991 0-5.972-1.213-8.143-3.601-4.086-4.495-3.758-11.455.737-15.542s11.449-3.758 15.537.737l.005.005c4.086 4.495 3.755 11.452-.74 15.539-2.107 1.917-4.756 2.862-7.396 2.862z"/></g><g><path d="m304.713 186.482c-2.991 0-5.972-1.213-8.143-3.601-4.086-4.495-3.758-11.455.738-15.542 4.493-4.087 11.448-3.758 15.536.737l.005.005c4.086 4.495 3.755 11.452-.74 15.539-2.107 1.918-4.755 2.862-7.396 2.862z"/></g><g><path d="m368.292 250.064c-2.815 0-5.63-1.074-7.778-3.222l-31.825-31.825c-4.296-4.296-4.296-11.261 0-15.557 4.297-4.296 11.26-4.296 15.557 0l31.825 31.825c4.296 4.296 4.296 11.261 0 15.557-2.149 2.148-4.963 3.222-7.779 3.222z"/></g><g><path d="m241.074 186.482c-2.991 0-5.972-1.213-8.143-3.601-4.086-4.495-3.758-11.455.738-15.542 4.493-4.087 11.448-3.758 15.536.737l.005.005c4.086 4.495 3.755 11.452-.74 15.539-2.106 1.918-4.755 2.862-7.396 2.862z"/></g><g><path d="m272.894 218.302c-2.991 0-5.972-1.213-8.143-3.601-4.086-4.495-3.758-11.455.737-15.542 4.495-4.086 11.448-3.759 15.537.737l.005.005c4.086 4.495 3.755 11.452-.74 15.539-2.107 1.917-4.756 2.862-7.396 2.862z"/></g><g><path d="m304.713 250.122c-2.991 0-5.972-1.213-8.143-3.601-4.086-4.495-3.758-11.455.738-15.542 4.493-4.087 11.448-3.758 15.536.737l.005.005c4.086 4.495 3.755 11.452-.74 15.539-2.107 1.917-4.755 2.862-7.396 2.862z"/></g><g><path d="m336.533 281.941c-2.991 0-5.972-1.213-8.143-3.601-4.086-4.495-3.758-11.455.738-15.542 4.493-4.087 11.447-3.758 15.536.737l.005.005c4.086 4.495 3.755 11.452-.74 15.539-2.106 1.918-4.755 2.862-7.396 2.862z"/></g><g><path d="m209.255 218.302c-2.991 0-5.972-1.213-8.143-3.601-4.086-4.495-3.758-11.455.737-15.542 4.495-4.086 11.449-3.759 15.537.737l.005.005c4.086 4.495 3.755 11.452-.74 15.539-2.107 1.917-4.755 2.862-7.396 2.862z"/></g><g><path d="m304.713 313.761c-2.991 0-5.972-1.213-8.143-3.601-4.086-4.495-3.758-11.455.738-15.542 4.493-4.086 11.448-3.758 15.536.737l.005.005c4.086 4.495 3.755 11.452-.74 15.539-2.107 1.917-4.755 2.862-7.396 2.862z"/></g><g><path d="m119.255 308.302c-2.991 0-5.972-1.213-8.143-3.601-4.086-4.495-3.758-11.455.737-15.542 4.495-4.086 11.449-3.759 15.537.737l.005.005c4.086 4.495 3.755 11.452-.74 15.539-2.107 1.917-4.755 2.862-7.396 2.862z"/></g><g><path d="m214.711 403.761c-2.815 0-5.63-1.074-7.778-3.222-4.296-4.296-4.298-11.263-.002-15.559 4.296-4.295 11.258-4.297 15.554-.002l.005.005c4.296 4.296 4.296 11.261 0 15.557-2.149 2.147-4.963 3.221-7.779 3.221z"/></g><g><path d="m87.427 340.122c-2.483 0-4.979-.836-7.036-2.55-4.667-3.889-5.301-10.828-1.411-15.495 3.889-4.667 10.823-5.3 15.489-1.411l.006.004c4.667 3.89 5.298 10.826 1.408 15.493-2.175 2.611-5.305 3.959-8.456 3.959z"/></g><g><path d="m119.255 371.941c-2.991 0-5.972-1.213-8.143-3.601-4.086-4.495-3.758-11.455.737-15.542 4.496-4.086 11.449-3.758 15.537.737l.005.005c4.086 4.495 3.755 11.452-.74 15.539-2.107 1.918-4.755 2.862-7.396 2.862z"/></g><g><path d="m151.072 403.761c-2.815 0-5.63-1.074-7.778-3.222-4.296-4.296-4.298-11.263-.002-15.559 4.296-4.295 11.258-4.297 15.554-.002l.005.005c4.296 4.296 4.296 11.261 0 15.557-2.15 2.147-4.964 3.221-7.779 3.221z"/></g><g><path d="m182.889 435.581c-2.655 0-5.318-.956-7.43-2.891-4.479-4.105-4.784-11.066-.679-15.544 4.105-4.479 11.06-4.783 15.538-.679l.006.005c4.479 4.105 4.781 11.063.676 15.542-2.169 2.366-5.135 3.567-8.111 3.567z"/></g></g></g><g/><g/><g/><g/><g/><g/><g/><g/><g/><g/><g/><g/><g/><g/><g/></svg>