<svg id="Capa_1" enable-background="new 0 0 512.005 512.005" viewBox="0 0 512.005 512.005" xmlns="http://www.w3.org/2000/svg" fill="#E6ECF2"><g><g fill="#0496FF"><path d="m288.229 22.003v75.302h-64.459v-75.302h-22v86.302c0 6.075 4.925 11 11 11h86.458c6.075 0 11-4.925 11-11v-86.302z"/><path d="m293.18 186.579h-26.18v-26.18c0-6.075-4.925-11-11-11s-11 4.925-11 11v26.18h-26.18c-6.075 0-11 4.925-11 11s4.925 11 11 11h26.18v26.18c0 6.075 4.925 11 11 11s11-4.925 11-11v-26.18h26.18c6.075 0 11-4.925 11-11s-4.925-11-11-11z"/></g><path d="m503.463 237.38c-13.685-17.724-38.55-21.238-56.609-8.002l-26.141 19.158v-226.533c0-6.075-4.925-11-11-11h-307.427c-6.075 0-11 4.925-11 11v273.532l-18.114 20.567-5.466-5.467c-2.063-2.063-4.861-3.222-7.778-3.222s-5.715 1.159-7.778 3.222l-48.928 48.929c-4.295 4.296-4.295 11.261 0 15.557l122.661 122.661c2.063 2.063 4.861 3.222 7.778 3.222s5.715-1.159 7.778-3.222l48.928-48.929c4.295-4.296 4.295-11.261 0-15.557l-5.981-5.981c6.511-3.78 13.926-5.803 21.655-5.803h92.906c21.183 0 42.086-7.125 58.86-20.062l138.253-106.628c8.663-6.682 14.204-16.337 15.602-27.187 1.399-10.851-1.513-21.595-8.199-30.255zm-104.75-204.377v231.656l-58.241 42.683c-1.834-7.249-5.59-13.897-11.014-19.322-7.934-7.934-18.482-12.303-29.703-12.302l-39.42.002c-11.023 0-21.862-2.976-31.345-8.606-16.024-9.514-34.344-14.543-52.979-14.543-22.83 0-44.826 7.537-62.724 21.115v-240.683zm-265.052 441.443-107.105-107.104 33.372-33.372 107.104 107.104zm356.182-209.623c-.647 5.02-3.21 9.487-7.218 12.578l-138.253 106.628c-12.945 9.984-29.077 15.482-45.425 15.482h-92.906c-13.645 0-26.641 4.177-37.56 11.898l-79.721-79.72 25.887-29.393c15.518-17.62 37.884-27.726 61.364-27.726 14.684 0 29.12 3.963 41.747 11.46 12.88 7.647 27.603 11.689 42.578 11.689l39.42-.002c5.343 0 10.367 2.08 14.145 5.858 3.778 3.779 5.859 8.803 5.859 14.146s-2.081 10.368-5.86 14.146-8.801 5.858-14.144 5.858c-.001 0-.002 0-.003 0l-67.249-.011c-.001 0-.001 0-.002 0-6.074 0-10.999 4.924-11 10.998-.001 6.075 4.923 11.001 10.998 11.002l67.249.011h.007c11.218 0 21.766-4.369 29.699-12.3 3.069-3.068 5.598-6.531 7.554-10.27l122.851-90.034c8.356-6.124 19.859-4.498 26.19 3.703 3.092 4.008 4.44 8.979 3.793 13.999z"/></g><g/><g/><g/><g/><g/><g/><g/><g/><g/><g/><g/><g/><g/><g/><g/></svg>