<svg id="Capa_1" enable-background="new 0 0 512 512" viewBox="0 0 512 512" xmlns="http://www.w3.org/2000/svg" fill="#E6ECF2"><g><g><path d="m284.975 230h-116c-6.075 0-11 4.925-11 11s4.925 11 11 11h116c6.075 0 11-4.925 11-11s-4.925-11-11-11z"/><path d="m284.975 330h-116c-6.075 0-11 4.925-11 11s4.925 11 11 11h116c6.075 0 11-4.925 11-11s-4.925-11-11-11z"/><path d="m176.98 468c7.581.219 13.281-8.296 10.15-15.21-3.596-8.97-16.715-8.97-20.31 0-3.099 6.986 2.52 15.387 10.16 15.21z"/><path d="m339.975 57.454v-6.454c0-28.122-22.878-51-51-51h-224c-28.122 0-51 22.878-51 51v410c0 28.122 22.878 51 51 51h224c28.122 0 51-22.878 51-51v-269.593h-22v210.593h-282v-351c0-15.991 13.009-29 29-29h51v26c0 11.028 8.972 20 20 20h82c11.028 0 20-8.972 20-20v-26h51c15.991 0 29 13.009 29 29v6.454zm-22 366.546v37c0 15.991-13.009 29-29 29h-224c-15.991 0-29-13.009-29-29v-37zm-102-378h-78v-24h78z"/></g><g fill="#0496FF"><path d="m211.975 123h-24v-24c0-6.075-4.925-11-11-11s-11 4.925-11 11v24h-24c-6.075 0-11 4.925-11 11s4.925 11 11 11h24v24c0 6.075 4.925 11 11 11s11-4.925 11-11v-24h24c6.075 0 11-4.925 11-11s-4.925-11-11-11z"/><path d="m124.975 202h-56c-6.075 0-11 4.925-11 11v56c0 6.075 4.925 11 11 11h56c6.075 0 11-4.925 11-11v-56c0-6.075-4.925-11-11-11zm-11 56h-34v-34h34z"/><path d="m124.975 302h-56c-6.075 0-11 4.925-11 11v56c0 6.075 4.925 11 11 11h56c6.075 0 11-4.925 11-11v-56c0-6.075-4.925-11-11-11zm-11 56h-34v-34h34z"/><path d="m487.025 131.574h-.189c5.295-22.686-.87-47.527-18.52-65.177-24.693-24.693-63.466-26.931-90.71-6.714-27.244-20.215-66.017-17.978-90.709 6.714-17.65 17.65-23.814 42.491-18.52 65.177h-1.842c-6.075 0-11 4.925-11 11s4.925 11 11 11h11.204c2.602 4.005 5.648 7.802 9.158 11.312l82.931 82.932c2.063 2.062 4.861 3.222 7.778 3.222s5.715-1.159 7.778-3.222l82.932-82.932c3.509-3.509 6.556-7.307 9.158-11.312h9.551c6.075 0 11-4.925 11-11s-4.924-11-11-11zm-198.526-15.932c0-12.726 4.956-24.689 13.954-33.688 9.288-9.288 21.487-13.932 33.688-13.932 12.2 0 24.399 4.644 33.687 13.932 4.296 4.296 11.261 4.296 15.557 0 18.575-18.575 48.8-18.575 67.375 0 8.999 8.998 13.954 20.962 13.954 33.688 0 5.514-.934 10.884-2.72 15.933h-59.992c-3 0-5.869 1.225-7.944 3.391l-11.89 12.414-20.354-33.696c-2.113-3.499-5.989-5.543-10.071-5.293-4.08.244-7.688 2.729-9.37 6.454l-7.553 16.729h-45.599c-1.788-5.048-2.722-10.418-2.722-15.932zm89.107 108.841-70.908-70.909h37.223c4.324 0 8.247-2.533 10.025-6.474l1.86-4.121 16.955 28.067c1.77 2.93 4.803 4.869 8.206 5.246.404.045.809.067 1.211.067 2.981 0 5.856-1.213 7.943-3.391l18.576-19.394h39.818z"/></g></g><g/><g/><g/><g/><g/><g/><g/><g/><g/><g/><g/><g/><g/><g/><g/></svg>