<svg id="Capa_1" enable-background="new 0 0 512 512" viewBox="0 0 512 512" xmlns="http://www.w3.org/2000/svg" fill="#052438"><g><g fill="#0496FF"><path d="m446.117 194.226c10.003-11.332 16.092-26.196 16.092-42.464v-11.759c0-35.428-28.823-64.251-64.252-64.251-35.428 0-64.251 28.823-64.251 64.251v11.759c0 16.275 6.094 31.146 16.105 42.479-36.686 2.781-65.692 33.498-65.692 70.883v46.099c0 6.075 4.925 11 11 11h72.5v-22h-61.5v-35.099c0-27.08 22.031-49.111 49.111-49.111h85.659c27.079 0 49.11 22.031 49.11 49.111v35.099h-61.5v22h72.501c6.075 0 11-4.925 11-11v-46.099c0-37.45-29.107-68.21-65.883-70.898zm-5.908-42.464c0 23.297-18.954 42.251-42.252 42.251-23.297 0-42.251-18.954-42.251-42.251v-11.759c0-23.297 18.954-42.251 42.251-42.251 23.298 0 42.252 18.954 42.252 42.251z"/><path d="m262.908 390c-14.691 0-28.503 5.721-38.892 16.109-4.296 4.296-4.296 11.261 0 15.556 4.296 4.296 11.261 4.296 15.557 0 6.232-6.233 14.521-9.666 23.335-9.666s17.102 3.433 23.334 9.665c2.148 2.148 4.963 3.222 7.778 3.222 2.814 0 5.631-1.074 7.778-3.222 4.296-4.296 4.296-11.261 0-15.556-10.387-10.387-24.198-16.108-38.89-16.108z"/><path d="m192.904 374.996c-4.296 4.296-4.296 11.261 0 15.557 4.296 4.295 11.261 4.296 15.557 0 30.021-30.021 78.871-30.022 108.894 0 2.148 2.148 4.963 3.222 7.778 3.222s5.63-1.074 7.778-3.222c4.296-4.296 4.296-11.261 0-15.557-38.599-38.6-101.407-38.598-140.007 0z"/><path d="m152.073 106.104h-14v-14c0-6.075-4.925-11-11-11s-11 4.925-11 11v14h-14c-6.075 0-11 4.925-11 11s4.925 11 11 11h14v14c0 6.075 4.925 11 11 11s11-4.925 11-11v-14h14c6.075 0 11-4.925 11-11s-4.925-11-11-11z"/><circle cx="262.908" cy="445" r="11"/></g><path d="m445.06 292.014c0-25.916-21.084-47-47-47s-47 21.084-47 47c0 22.128 15.375 40.721 36 45.687v28.147c0 68.458-55.695 124.152-124.153 124.152-68.457 0-124.151-55.694-124.151-124.152v-13.599c13.946-4.625 24.038-17.782 24.038-33.259v-21.543c20.544-5.841 39.402-16.828 54.998-32.334 24.324-24.185 37.72-56.346 37.72-90.56v-25.054c0-15.978-10.754-29.482-25.401-33.68v-55.384c0-17.911-12.316-32.998-28.923-37.242-4.187-13.422-16.73-23.193-31.513-23.193-18.196 0-33 14.804-33 33s14.804 33 33 33c13.494 0 25.115-8.144 30.224-19.773 4.901 2.848 8.212 8.143 8.212 14.208v56.284c-13.236 5.009-22.675 17.81-22.675 32.779v25.054c0 15.544-6.12 30.132-17.232 41.077-11.108 10.94-25.83 16.83-41.346 16.597-31.31-.478-56.781-26.817-56.781-58.716v-24.012c0-15.479-10.093-28.637-24.041-33.26v-55.803c0-6.065 3.311-11.36 8.212-14.208 5.108 11.629 16.729 19.773 30.223 19.773 18.196 0 33-14.804 33-33s-14.804-33-33-33c-14.783 0-27.327 9.771-31.513 23.193-16.607 4.244-28.923 19.331-28.923 37.242v55.804c-13.944 4.625-24.035 17.782-24.035 33.259v23.77c0 58.75 39.29 108.625 92.718 124.086v21.636c0 15.478 10.092 28.635 24.038 33.259v13.599c0 80.588 65.563 146.152 146.152 146.152 80.588 0 146.151-65.563 146.151-146.152v-28.147c20.626-4.967 36.001-23.56 36.001-45.687zm-275.385-248.014c-6.065 0-11-4.935-11-11s4.935-11 11-11 11 4.935 11 11-4.935 11-11 11zm-85.204-22c6.065 0 11 4.935 11 11s-4.935 11-11 11-11-4.935-11-11 4.934-11 11-11zm-62.471 151.268v-23.77c0-7.189 5.849-13.038 13.038-13.038s13.038 5.849 13.038 13.038v24.012c0 43.846 35.19 80.053 78.445 80.713 21.478.322 41.779-7.812 57.119-22.919 15.345-15.112 23.795-35.267 23.795-56.751v-25.054c0-7.189 5.849-13.038 13.038-13.038s13.038 5.849 13.038 13.038v25.054c0 28.313-11.092 54.935-31.231 74.959-20.137 20.021-46.803 30.972-75.144 30.795-57.972-.334-105.136-48.351-105.136-107.039zm92.718 128.364c4.046.418 8.145.65 12.292.674.253.001.502.002.754.002 4.381 0 8.728-.224 13.03-.659v17.341c0 7.189-5.849 13.038-13.038 13.038s-13.038-5.849-13.038-13.038zm283.342 15.382c-13.785 0-25-11.215-25-25s11.215-25 25-25 25 11.215 25 25-11.215 25-25 25z"/></g><g/><g/><g/><g/><g/><g/><g/><g/><g/><g/><g/><g/><g/><g/><g/></svg>