<svg id="Capa_1" enable-background="new 0 0 512 512" viewBox="0 0 512 512" xmlns="http://www.w3.org/2000/svg" fill="#052438"><g><g><path d="m90.71 51c0-15.991 13.009-29 29-29h42.633c3.053 0 5.991.911 8.497 2.634 3.754 2.581 8.71 2.582 12.465 0 2.582-1.775 5.6-2.695 8.765-2.632 8.143.139 14.768 7.148 14.768 15.625v29.165h22v-29.165c0-20.402-16.325-37.279-36.392-37.622-5.347-.087-10.562.95-15.375 3.042-4.617-2.005-9.609-3.047-14.728-3.047h-42.633c-28.122 0-51 22.878-51 51v15.258h22z"/><path d="m165.268 174.679c-4.986 2.885-10.691 4.411-16.496 4.411-5.804 0-11.507-1.524-16.493-4.409-5.26-3.042-11.988-1.245-15.03 4.013-3.042 5.259-1.245 11.988 4.013 15.03 8.33 4.819 17.842 7.366 27.51 7.366 9.669 0 19.184-2.548 27.515-7.369 5.258-3.042 7.054-9.772 4.012-15.03-3.043-5.259-9.774-7.054-15.031-4.012z"/><path d="m501 270.003h-114.817c-6.924 0-13.45 1.725-19.183 4.757v-29.859l60.007-49.585c2.529-2.089 3.993-5.199 3.993-8.479v-41.548h-22v36.368l-42 34.705v-125.074h-22v125.073l-42-34.705v-36.368h-22v41.548c0 3.281 1.464 6.39 3.993 8.479l60.007 49.586v29.859c-5.733-3.031-12.259-4.757-19.183-4.757h-69.143c-17.379-14.224-38.593-22.821-60.898-24.748v-16.814c20.016-14.568 33.062-38.162 33.062-64.756v-26.168h-22v26.168c0 32.016-26.047 58.063-58.064 58.063s-58.064-26.047-58.064-58.063v-26.168h-22v26.168c0 26.595 13.046 50.188 33.062 64.756v16.814c-56.934 4.893-101.772 52.79-101.772 110.97v19.696c0 6.075 4.925 11 11 11h189v114.079c0 6.075 4.925 11 11 11h290c6.075 0 11-4.925 11-11v-219.997c0-6.075-4.925-11-11-11zm-114.817 22h103.817v153.729h-103.817c-6.922 0-13.451 1.717-19.183 4.747v-139.293c0-10.578 8.605-19.183 19.183-19.183zm-41.183 19.183v139.293c-5.731-3.03-12.261-4.747-19.183-4.747h-103.817v-153.729h103.817c10.578 0 19.183 8.605 19.183 19.183zm-196.226-67.437c8.73 0 17.13-1.424 25.002-4.019v12.075l-25.002 29.531-25.002-29.531v-12.075c7.872 2.594 16.272 4.019 25.002 4.019zm-126.774 121.172v-8.696c0-48.066 38.137-87.387 85.74-89.308l32.639 38.55c2.09 2.468 5.161 3.892 8.395 3.892s6.305-1.424 8.395-3.892l32.637-38.548c6.855.279 13.608 1.337 20.137 3.137-5.579.532-9.943 5.228-9.943 10.947v83.918zm200 102.811h103.817c10.577 0 19.183 8.605 19.183 19.183v3.085h-123zm145 22.268v-3.085c0-10.577 8.605-19.183 19.183-19.183h103.817v22.268z"/></g><g fill="#0496FF"><path d="m207.838 52.576h-118.128c-17.093 0-31 13.907-31 31v36.624c0 17.093 13.907 31 31 31h118.128c17.093 0 31-13.907 31-31v-36.624c0-17.093-13.907-31-31-31zm9 67.624c0 4.962-4.038 9-9 9h-118.128c-4.962 0-9-4.038-9-9v-36.624c0-4.962 4.038-9 9-9h118.128c4.962 0 9 4.038 9 9z"/><path d="m311.732 314.539h-56.465c-6.075 0-11 4.925-11 11s4.925 11 11 11h56.465c6.075 0 11-4.925 11-11s-4.924-11-11-11z"/><path d="m311.732 358.806h-56.465c-6.075 0-11 4.925-11 11s4.925 11 11 11h56.465c6.075 0 11-4.925 11-11s-4.924-11-11-11z"/><path d="m291.732 403.074h-36.465c-6.075 0-11 4.925-11 11s4.925 11 11 11h36.465c6.075 0 11-4.925 11-11s-4.924-11-11-11z"/><path d="m389.268 325.539c0 6.075 4.925 11 11 11h56.465c6.075 0 11-4.925 11-11s-4.925-11-11-11h-56.465c-6.076 0-11 4.924-11 11z"/><path d="m456.732 358.806h-56.465c-6.075 0-11 4.925-11 11s4.925 11 11 11h56.465c6.075 0 11-4.925 11-11s-4.924-11-11-11z"/><path d="m456.732 403.074h-36.465c-6.075 0-11 4.925-11 11s4.925 11 11 11h36.465c6.075 0 11-4.925 11-11s-4.924-11-11-11z"/><path d="m356 36.288c-18.196 0-33 14.804-33 33s14.804 33 33 33 33-14.804 33-33-14.804-33-33-33zm0 44c-6.065 0-11-4.935-11-11s4.935-11 11-11 11 4.935 11 11-4.935 11-11 11z"/><path d="m292 90.288c-18.196 0-33 14.804-33 33s14.804 33 33 33 33-14.804 33-33-14.804-33-33-33zm0 44c-6.065 0-11-4.935-11-11s4.935-11 11-11 11 4.935 11 11-4.935 11-11 11z"/><path d="m420 156.288c18.196 0 33-14.804 33-33s-14.804-33-33-33-33 14.804-33 33 14.804 33 33 33zm0-44c6.065 0 11 4.935 11 11s-4.935 11-11 11-11-4.935-11-11 4.935-11 11-11z"/><path d="m181.69 91.1c-8.493 1.549-11.823 12.565-5.63 18.57 6.82 6.884 18.838 1.912 18.779-7.781.149-6.732-6.559-12.249-13.149-10.789z"/></g></g><g/><g/><g/><g/><g/><g/><g/><g/><g/><g/><g/><g/><g/><g/><g/></svg>