<svg id="Capa_1" enable-background="new 0 0 512 512" viewBox="0 0 512 512" xmlns="http://www.w3.org/2000/svg" fill="#E6ECF2"><g><g fill="#0496FF"><path d="m211.732 147.779h-56.465c-6.075 0-11 4.925-11 11s4.925 11 11 11h56.465c6.075 0 11-4.925 11-11s-4.924-11-11-11z"/><path d="m211.732 192.046h-56.465c-6.075 0-11 4.925-11 11s4.925 11 11 11h56.465c6.075 0 11-4.925 11-11s-4.924-11-11-11z"/><path d="m191.732 236.314h-36.465c-6.075 0-11 4.925-11 11s4.925 11 11 11h36.465c6.075 0 11-4.925 11-11s-4.924-11-11-11z"/><path d="m300.268 169.779h56.465c6.075 0 11-4.925 11-11s-4.925-11-11-11h-56.465c-6.075 0-11 4.925-11 11s4.924 11 11 11z"/><path d="m356.732 192.046h-56.465c-6.075 0-11 4.925-11 11s4.925 11 11 11h56.465c6.075 0 11-4.925 11-11s-4.924-11-11-11z"/><path d="m356.732 236.314h-36.465c-6.075 0-11 4.925-11 11s4.925 11 11 11h36.465c6.075 0 11-4.925 11-11s-4.924-11-11-11z"/><path d="m131.997 408.094-71.497-41.279c-3.402-1.964-7.596-1.965-11 0-3.403 1.965-5.5 5.597-5.5 9.526v82.558c0 3.93 2.097 7.562 5.5 9.526 1.702.982 3.601 1.474 5.5 1.474s3.798-.491 5.5-1.474l71.497-41.279c3.403-1.965 5.5-5.597 5.5-9.526s-2.097-7.561-5.5-9.526zm-65.997 31.752v-44.452l38.497 22.226z"/></g><g><path d="m481 0h-450c-17.093 0-31 13.907-31 31v450c0 17.093 13.907 31 31 31h450c17.094 0 31-13.907 31-31v-450c0-17.093-13.906-31-31-31zm9 31v28.244h-290.27v-37.244h281.27c4.963 0 9 4.038 9 9zm-408.756 28.244v-37.244h37.244v37.244zm59.243-37.244h37.243v37.244h-37.243zm-109.487 0h28.244v37.244h-37.244v-28.244c0-4.962 4.038-9 9-9zm450 468h-450c-4.962 0-9-4.038-9-9v-399.756h468v399.756c0 4.962-4.037 9-9 9z"/><path d="m401 345.24c6.075 0 11-4.925 11-11v-219.996c0-6.075-4.925-11-11-11h-114.817c-11.914 0-22.656 5.09-30.183 13.204-7.527-8.114-18.269-13.204-30.183-13.204h-114.817c-6.075 0-11 4.925-11 11v219.996c0 6.075 4.925 11 11 11zm-134-22v-3.085c0-10.577 8.605-19.183 19.183-19.183h103.817v22.268zm19.183-197.996h103.817v153.729h-103.817c-6.922 0-13.451 1.717-19.183 4.747v-139.294c0-10.577 8.605-19.182 19.183-19.182zm-164.183 0h103.817c10.577 0 19.183 8.605 19.183 19.183v139.293c-5.731-3.03-12.261-4.747-19.183-4.747h-103.817zm0 175.729h103.817c10.577 0 19.183 8.605 19.183 19.183v3.085h-123z"/><path d="m457 384.62h-146.05c-.506-5.606-5.212-10-10.95-10h-44c-5.738 0-10.444 4.394-10.95 10h-74.554c-6.075 0-11 4.925-11 11v44c0 6.075 4.925 11 11 11h74.554c.506 5.606 5.212 10 10.95 10h44c5.738 0 10.444-4.394 10.95-10h146.05c6.075 0 11-4.925 11-11v-44c0-6.075-4.925-11-11-11zm-275.503 22h63.503v22h-63.503zm107.503 32h-22v-42h22zm157-10h-135v-22h135z"/></g></g><g/><g/><g/><g/><g/><g/><g/><g/><g/><g/><g/><g/><g/><g/><g/></svg>