<svg id="Capa_1" enable-background="new 0 0 512 512" viewBox="0 0 512 512" xmlns="http://www.w3.org/2000/svg" fill="#052438"><g><g><path d="m501 82.766h-282.841c-6.656-26.471-30.651-46.13-59.159-46.13h-32c-28.508 0-52.502 19.659-59.159 46.13h-56.841c-6.075 0-11 4.925-11 11v299.834c0 6.075 4.925 11 11 11h184.396l-20.582 48.764h-55.08c-6.075 0-11 4.925-11 11s4.925 11 11 11h272.531c6.075 0 11-4.925 11-11s-4.925-11-11-11h-55.08l-20.583-48.764h184.398c6.075 0 11-4.925 11-11v-299.834c0-6.075-4.925-11-11-11zm-325 203.87h-66v-22h66zm-66 22h66v22h-66zm77-66h-88c-6.075 0-11 4.925-11 11v77h-22v-81c0-15.991 13.01-29 29-29h96c15.99 0 29 13.009 29 29v81h-22v-77c0-6.075-4.925-11-11-11zm33-34.919v-102.951h270v225.87h-248v-81c0-17.354-8.719-32.703-22-41.919zm-61-149.081c4.403 0 8.633.744 12.583 2.095l-14.795 49.905h-27.576l-14.795-49.905c3.951-1.351 8.181-2.095 12.583-2.095zm-63.425 15.937 14.879 50.189c1.384 4.67 5.675 7.874 10.546 7.874h44c4.871 0 9.162-3.204 10.546-7.874l14.879-50.189c4.757 6.465 7.575 14.439 7.575 23.063v101.492c-2.29-.316-4.624-.492-7-.492h-96c-2.376 0-4.71.176-7 .492v-101.492c0-8.624 2.818-16.598 7.575-23.063zm-73.575 30.193h44v102.951c-13.281 9.216-22 24.565-22 41.919v81h-22zm291.307 348.598h-114.614l20.582-48.764h73.45zm-291.307-70.763v-29.965h468v29.965z"/><path d="m115.49 169.27c8.328 4.819 17.841 7.366 27.51 7.366 9.67 0 19.185-2.548 27.516-7.369 5.258-3.043 7.054-9.772 4.011-15.03s-9.769-7.054-15.03-4.012c-4.986 2.886-10.69 4.411-16.496 4.411-5.805 0-11.508-1.524-16.492-4.408-5.258-3.043-11.987-1.246-15.03 4.012s-1.248 11.987 4.011 15.03z"/></g><g fill="#0496FF"><path d="m457 170.766h-86.04c-6.075 0-11 4.925-11 11s4.925 11 11 11h86.04c6.075 0 11-4.925 11-11s-4.925-11-11-11z"/><path d="m337.597 148.766h119.403c6.075 0 11-4.925 11-11s-4.925-11-11-11h-119.403c-6.075 0-11 4.925-11 11s4.924 11 11 11z"/><path d="m457 242.636h-119.403c-6.075 0-11 4.925-11 11v44c0 6.075 4.925 11 11 11h119.403c6.075 0 11-4.925 11-11v-44c0-6.075-4.925-11-11-11zm-11 44h-97.403v-22h97.403z"/></g></g><g/><g/><g/><g/><g/><g/><g/><g/><g/><g/><g/><g/><g/><g/><g/></svg>