<svg id="Capa_1" enable-background="new 0 0 512 512" viewBox="0 0 512 512" xmlns="http://www.w3.org/2000/svg" fill="#E6ECF2"><g><g><path d="m501 462.921h-26.11l-19.845-45.101c33.894-18.409 56.955-54.33 56.955-95.537 0-59.903-48.735-108.638-108.638-108.638-1.772 0-3.533.046-5.284.13v-175.696c0-6.075-4.925-11-11-11h-376.078c-6.075 0-11 4.925-11 11v304.724c0 6.075 4.925 11 11 11h119.61l-18.123 27.304h-52.183c-6.075 0-11 4.925-11 11s4.925 11 11 11h270.548c6.321 5.677 13.305 10.628 20.827 14.713l-19.845 45.101h-26.11c-6.075 0-11 4.925-11 11s4.925 11 11 11h195.276c6.075 0 11-4.925 11-11s-4.925-11-11-11zm-11-140.638c0 47.772-38.866 86.638-86.638 86.638s-86.638-38.866-86.638-86.638 38.866-86.638 86.638-86.638 86.638 38.866 86.638 86.638zm-204.408 58.824-18.123-27.304h31.924c2.961 9.749 7.256 18.922 12.675 27.304zm-263.592-332.028h354.078v168.037c-33.745 8.76-61.169 33.374-73.81 65.382h-59.274c-3.208-38.027-27.853-70.04-61.778-83.883.476-.439.953-.875 1.416-1.332 10.639-10.502 16.498-24.518 16.498-39.465v-30.236c0-30.577-24.876-55.453-55.453-55.453s-55.453 24.876-55.453 55.453v6.7l-8.436 8.436c-21.39 21.391-24.897 54.695-8.723 80.02-14.962 15.918-24.762 36.737-26.704 59.761h-22.361zm67.001 117.326c2.094 12.595 8.372 23.822 17.342 32.127-6.456 2.618-12.58 5.887-18.284 9.737-7.17-13.24-6.673-29.191.942-41.864zm88.129-38.567h-3.366c-4.9 0-9.806-1.158-14.188-3.35l-10.979-5.488c-1.548-.774-3.234-1.161-4.919-1.161s-3.371.387-4.919 1.161l-10.979 5.489c-4.382 2.191-9.289 3.35-14.188 3.35h-3.366v-.257c0-18.446 15.007-33.453 33.453-33.453s33.453 15.007 33.453 33.453v.256zm-63.539 22c8.297 0 16.606-1.961 24.027-5.672l6.059-3.03 6.059 3.03c7.421 3.71 15.73 5.672 24.027 5.672h3.366v7.979c0 9.018-3.535 17.473-9.953 23.809-6.417 6.334-14.919 9.768-23.947 9.641-18.199-.236-33.005-15.539-33.005-34.112v-7.317zm30.087 63.433c39.977 0 72.997 30.355 77.221 69.228h-154.442c4.224-38.873 37.244-69.228 77.221-69.228zm-121.678 91.227h274.188c-.958 5.789-1.464 11.729-1.464 17.785 0 3.208.148 6.381.422 9.52h-273.146zm116.892 76.609 18.123-27.304h84.048l18.123 27.304zm233.093 45.188c9.939 3.004 20.471 4.626 31.377 4.626s21.438-1.622 31.377-4.626l16.116 36.626h-94.986z"/><path d="m403.362 386.921c35.642 0 64.638-28.997 64.638-64.638 0-35.642-28.997-64.638-64.638-64.638s-64.638 28.997-64.638 64.638 28.997 64.638 64.638 64.638zm0-107.276c23.511 0 42.638 19.127 42.638 42.638s-19.127 42.638-42.638 42.638-42.638-19.127-42.638-42.638 19.127-42.638 42.638-42.638z"/></g><g fill="#0496FF"><path d="m414.15 320.13c-1.275-7.475-10.71-11.397-16.89-6.99-8.104 5.29-5.552 18.114 3.951 19.93 7.401 1.7 14.64-5.537 12.939-12.94z"/><path d="m343.078 71.079h-110.723c-6.075 0-11 4.925-11 11s4.925 11 11 11h110.723c6.075 0 11-4.925 11-11s-4.925-11-11-11z"/><path d="m343.078 115.079h-63.388c-6.075 0-11 4.925-11 11s4.925 11 11 11h63.388c6.075 0 11-4.925 11-11s-4.925-11-11-11z"/></g></g><g/><g/><g/><g/><g/><g/><g/><g/><g/><g/><g/><g/><g/><g/><g/></svg>