<svg id="Capa_1" enable-background="new 0 0 512 512" viewBox="0 0 512 512" xmlns="http://www.w3.org/2000/svg" fill="#E6ECF2"><g><g fill="#0496FF"><path d="m130.237 411.432h251.525v22h-251.525z"/><path d="m130.237 78.568h251.525v22h-251.525z"/><path d="m59.619 168.136h22v175.728h-22z"/><path d="m430.381 168.136h22v175.728h-22z"/><path d="m252.556 155.026-7.571-20.656c-26.252 9.622-45.063 54.356-47.242 110.63h-53.216v22h53.217c2.175 56.019 20.873 100.705 46.963 110.527l7.751-20.59c-14.753-5.553-30.589-40.907-32.687-89.937h72.46c-2.097 49.03-17.933 84.383-32.686 89.938l7.751 20.589c26.09-9.822 44.787-54.508 46.962-110.526h53.217v-22h-53.216c-2.179-56.275-20.991-101.008-47.242-110.63l-7.571 20.656c14.801 5.425 30.69 40.764 32.787 89.974h-72.462c2.095-49.211 17.984-84.55 32.785-89.975z"/><path d="m86.237 44h-31.237c-6.075 0-11 4.925-11 11s4.925 11 11 11h31.237c6.075 0 11-4.925 11-11s-4.925-11-11-11z"/><path d="m425.763 66h31.237c6.075 0 11-4.925 11-11s-4.925-11-11-11h-31.237c-6.075 0-11 4.925-11 11s4.925 11 11 11z"/><path d="m86.237 376.864h-31.237c-6.075 0-11 4.925-11 11s4.925 11 11 11h31.237c6.075 0 11-4.925 11-11s-4.925-11-11-11z"/><path d="m457 376.864h-31.237c-6.075 0-11 4.925-11 11s4.925 11 11 11h31.237c6.075 0 11-4.925 11-11s-4.925-11-11-11z"/></g><g><path d="m256 133.526c-67.532 0-122.474 54.942-122.474 122.474s54.942 122.474 122.474 122.474 122.474-54.942 122.474-122.474-54.942-122.474-122.474-122.474zm0 222.948c-55.401 0-100.474-45.073-100.474-100.474s45.073-100.474 100.474-100.474 100.474 45.073 100.474 100.474-45.073 100.474-100.474 100.474z"/><path d="m31 179.136h99.237c6.075 0 11-4.925 11-11v-157.136c0-6.075-4.925-11-11-11h-99.237c-17.093 0-31 13.907-31 31v117.136c0 17.093 13.907 31 31 31zm0-157.136h88.237v91.136h-88.237c-3.129 0-6.15.47-9 1.337v-83.473c0-4.962 4.038-9 9-9zm0 113.136h88.237v22h-88.237c-4.962 0-9-4.038-9-9v-4c0-4.962 4.038-9 9-9z"/><path d="m501 0h-99.237c-17.093 0-31 13.907-31 31v117.136c0 17.093 13.907 31 31 31h99.237c6.075 0 11-4.925 11-11v-157.136c0-6.075-4.925-11-11-11zm-99.237 22h88.237v91.136h-88.237c-3.129 0-6.15.47-9 1.337v-83.473c0-4.962 4.037-9 9-9zm0 135.136c-4.962 0-9-4.038-9-9v-4c0-4.962 4.038-9 9-9h88.237v22z"/><path d="m130.237 332.864h-99.237c-17.093 0-31 13.907-31 31v117.136c0 17.093 13.907 31 31 31h99.237c6.075 0 11-4.925 11-11v-157.136c0-6.075-4.925-11-11-11zm-99.237 22h88.237v91.136h-88.237c-3.129 0-6.15.47-9 1.337v-83.473c0-4.963 4.038-9 9-9zm0 135.136c-4.962 0-9-4.038-9-9v-4c0-4.962 4.038-9 9-9h88.237v22z"/><path d="m501 332.864h-99.237c-17.093 0-31 13.907-31 31v117.136c0 17.093 13.907 31 31 31h99.237c6.075 0 11-4.925 11-11v-157.136c0-6.075-4.925-11-11-11zm-99.237 22h88.237v91.136h-88.237c-3.129 0-6.15.47-9 1.337v-83.473c0-4.963 4.037-9 9-9zm0 135.136c-4.962 0-9-4.038-9-9v-4c0-4.962 4.038-9 9-9h88.237v22z"/></g></g><g/><g/><g/><g/><g/><g/><g/><g/><g/><g/><g/><g/><g/><g/><g/></svg>