<svg id="Capa_1" enable-background="new 0 0 512 512" viewBox="0 0 512 512" xmlns="http://www.w3.org/2000/svg" fill="#052438"><g><g><path d="m351 0h-320c-17.094 0-31 13.907-31 31v283c0 17.093 13.906 31 31 31h177.995v-22h-177.995c-4.963 0-9-4.038-9-9v-232.756h338v127.758h22v-178.002c0-17.093-13.906-31-31-31zm-210.513 22h37.243v37.244h-37.243zm-22 37.244h-37.244v-37.244h37.244zm-96.487-28.244c0-4.962 4.037-9 9-9h28.243v37.244h-37.243zm177.73 28.244v-37.244h151.27c4.963 0 9 4.038 9 9v28.244z"/><path d="m327 103.244h-272c-6.075 0-11 4.925-11 11v44c0 6.075 4.925 11 11 11h272c6.075 0 11-4.925 11-11v-44c0-6.076-4.925-11-11-11zm-11 44h-250v-22h250z"/><path d="m250.623 191.244h-119.246c-6.075 0-11 4.925-11 11s4.925 11 11 11h119.246c6.075 0 11-4.925 11-11s-4.925-11-11-11z"/></g><g fill="#0496FF"><path d="m310.998 299.998c-18.196 0-33 14.804-33 33v66c0 6.075 4.925 11 11 11s11-4.925 11-11v-33h22v33c0 6.075 4.925 11 11 11s11-4.925 11-11v-66c0-18.197-14.804-33-33-33zm-11 44v-11c0-6.065 4.935-11 11-11s11 4.935 11 11v11z"/><path d="m420.998 321.998c6.075 0 11-4.925 11-11s-4.925-11-11-11h-44c-6.075 0-11 4.925-11 11s4.925 11 11 11h11v66h-11c-6.075 0-11 4.925-11 11s4.925 11 11 11h44c6.075 0 11-4.925 11-11s-4.925-11-11-11h-11v-66z"/><path d="m505.211 322.949-17.429-7.222c-2.754-9.327-6.491-18.334-11.155-26.891l7.216-17.415c1.703-4.11.763-8.841-2.383-11.987l-30.92-30.929c-3.146-3.148-7.879-4.088-11.987-2.386l-17.444 7.223c-8.557-4.66-17.564-8.393-26.893-11.144l-7.208-17.405c-1.702-4.11-5.713-6.791-10.162-6.792l-43.732-.006c-.001 0-.002 0-.002 0-4.448 0-8.459 2.679-10.162 6.789l-7.222 17.428c-9.328 2.755-18.335 6.491-26.892 11.155l-17.414-7.216c-4.107-1.701-8.841-.763-11.988 2.383l-30.929 30.92c-3.146 3.146-4.088 7.877-2.386 11.987l7.223 17.444c-4.66 8.558-8.393 17.566-11.144 26.894l-17.405 7.207c-4.11 1.702-6.791 5.712-6.792 10.162l-.006 43.734c-.001 4.449 2.679 8.46 6.789 10.164l17.429 7.222c2.754 9.328 6.49 18.335 11.155 26.891l-7.216 17.415c-1.703 4.11-.763 8.841 2.383 11.987l30.92 30.929c3.146 3.147 7.879 4.087 11.987 2.386l17.444-7.223c8.557 4.66 17.564 8.392 26.894 11.144l7.207 17.405c1.702 4.111 5.713 6.792 10.161 6.792l43.735.006h.002c4.448 0 8.459-2.68 10.162-6.79l7.222-17.428c9.327-2.755 18.334-6.491 26.891-11.155l17.414 7.215c4.108 1.703 8.841.763 11.988-2.383l30.929-30.92c3.146-3.146 4.088-7.877 2.386-11.987l-7.223-17.443c4.66-8.557 8.393-17.565 11.144-26.894l17.405-7.207c4.11-1.702 6.791-5.712 6.792-10.162l.005-43.734c.001-4.449-2.679-8.46-6.789-10.163zm-15.216 46.545-15.596 6.458c-3.217 1.332-5.613 4.108-6.461 7.485-2.758 10.989-7.114 21.503-12.948 31.252-1.787 2.986-2.056 6.641-.725 9.856l6.473 15.632-20.533 20.527-15.607-6.467c-3.22-1.333-6.876-1.063-9.863.726-9.749 5.839-20.263 10.201-31.249 12.963-3.374.849-6.147 3.243-7.479 6.458l-6.47 15.614-29.034-.004-6.458-15.596c-1.332-3.217-4.108-5.613-7.485-6.461-10.988-2.758-21.503-7.114-31.253-12.949-2.985-1.787-6.642-2.057-9.856-.724l-15.632 6.473-20.527-20.533 6.467-15.608c1.333-3.217 1.063-6.875-.726-9.863-5.84-9.749-10.201-20.262-12.963-31.248-.849-3.374-3.243-6.148-6.457-7.48l-15.615-6.471.002-29.032 15.596-6.458c3.217-1.332 5.613-4.108 6.461-7.485 2.757-10.986 7.114-21.501 12.949-31.253 1.786-2.986 2.055-6.641.724-9.856l-6.473-15.632 20.533-20.527 15.607 6.467c3.22 1.333 6.876 1.064 9.863-.726 9.749-5.839 20.263-10.201 31.249-12.963 3.374-.848 6.147-3.243 7.479-6.457l6.471-15.615 29.034.003 6.459 15.596c1.332 3.217 4.108 5.613 7.485 6.46 10.987 2.758 21.502 7.114 31.252 12.949 2.984 1.787 6.641 2.056 9.856.724l15.632-6.473 20.527 20.533-6.467 15.608c-1.333 3.217-1.064 6.875.726 9.863 5.84 9.749 10.201 20.262 12.963 31.248.849 3.374 3.243 6.148 6.457 7.48l15.615 6.47z"/></g></g><g/><g/><g/><g/><g/><g/><g/><g/><g/><g/><g/><g/><g/><g/><g/></svg>