<svg id="Capa_1" enable-background="new 0 0 512 512" viewBox="0 0 512 512" xmlns="http://www.w3.org/2000/svg" fill="#052438"><g><g><path d="m296.395 298.304c1.334-1.117 2.637-2.281 3.89-3.518 12.095-11.939 18.756-27.873 18.756-44.867v-35.397c0-34.761-28.28-63.041-63.041-63.041s-63.041 28.28-63.041 63.041v8.622l-10.425 10.425c-24.763 24.764-28.527 63.514-9.154 92.565-19.922 20.66-32.195 48.743-32.195 79.641v2.986c0 6.075 4.925 11 11 11h207.63c6.075 0 11-4.925 11-11v-2.986c0-49.098-30.982-91.09-74.42-107.471zm-11.565-19.175c-7.873 7.771-18.354 11.971-29.378 11.828-22.328-.29-40.493-19.047-40.493-41.813v-10.443h5.819c9.424 0 18.86-2.228 27.289-6.442l7.933-3.967 7.934 3.967c8.429 4.214 17.864 6.442 27.288 6.442h5.819v11.219c0 11.063-4.337 21.436-12.211 29.209zm-69.871-64.606c0-22.63 18.411-41.041 41.041-41.041s41.041 18.411 41.041 41.041v2.178h-5.819c-6.025 0-12.06-1.424-17.45-4.12l-12.853-6.426c-1.548-.774-3.233-1.161-4.919-1.161s-3.371.387-4.919 1.161l-12.853 6.426c-5.39 2.695-11.424 4.12-17.45 4.12h-5.819zm-21.739 40.247c1.523 17.372 10.012 32.834 22.619 43.445-9.128 3.42-17.708 7.969-25.57 13.478-10.665-17.916-9.361-40.413 2.951-56.923zm-29.692 142.992c4.075-47.441 43.993-84.801 92.472-84.801s88.397 37.359 92.473 84.801z"/><path d="m481 0h-450c-17.093 0-31 13.907-31 31v450c0 17.093 13.907 31 31 31h450c17.094 0 31-13.907 31-31v-450c0-17.093-13.906-31-31-31zm9 31v28.244h-290.27v-37.244h281.27c4.963 0 9 4.038 9 9zm-408.756 28.244v-37.244h37.244v37.244zm59.243-37.244h37.243v37.244h-37.243zm-109.487 0h28.244v37.244h-37.244v-28.244c0-4.962 4.038-9 9-9zm450 468h-450c-4.962 0-9-4.038-9-9v-399.756h468v399.756c0 4.962-4.037 9-9 9z"/></g><g fill="#0496FF"><path d="m462.5 276.095-71.497-41.278c-3.404-1.965-7.596-1.965-11 0-3.403 1.965-5.5 5.597-5.5 9.526v82.557c0 3.93 2.097 7.562 5.5 9.526 1.702.982 3.601 1.474 5.5 1.474s3.798-.491 5.5-1.474l71.497-41.279c3.403-1.965 5.5-5.597 5.5-9.526 0-3.93-2.097-7.561-5.5-9.526zm-65.997 31.753v-44.452l38.497 22.226z"/><path d="m131.997 234.817c-3.402-1.964-7.596-1.965-11 0l-71.497 41.278c-3.403 1.965-5.5 5.596-5.5 9.526s2.097 7.562 5.5 9.526l71.497 41.279c1.702.982 3.601 1.474 5.5 1.474s3.798-.491 5.5-1.474c3.403-1.965 5.5-5.597 5.5-9.526v-82.557c0-3.929-2.097-7.561-5.5-9.526zm-16.5 73.031-38.497-22.226 38.497-22.226z"/></g></g><g/><g/><g/><g/><g/><g/><g/><g/><g/><g/><g/><g/><g/><g/><g/></svg>