<svg id="Capa_1" enable-background="new 0 0 512 512" viewBox="0 0 512 512" xmlns="http://www.w3.org/2000/svg" fill="#E6ECF2"><g><g fill="#0496FF"><path d="m145.969 184.35c-16.906 6.44-35.527 6.436-52.43-.013-.036-.013-.095-.035-.13-.048l-4.161 11.297-3.551 9.307c10.986 4.19 22.529 6.286 34.073 6.286 11.527 0 23.057-2.09 34.028-6.269 16.894-6.435 35.502-6.435 52.397 0l3.828-10.052 4.252-10.409c-.083-.034-.166-.066-.25-.099-21.941-8.358-46.112-8.358-68.056 0z"/><path d="m357 154.272h56c6.075 0 11-4.925 11-11s-4.925-11-11-11h-56c-6.075 0-11 4.925-11 11s4.925 11 11 11z"/><path d="m357 198.272h46c6.075 0 11-4.925 11-11s-4.925-11-11-11h-46c-6.075 0-11 4.925-11 11s4.925 11 11 11z"/><path d="m403 264.272h-46c-6.075 0-11 4.925-11 11s4.925 11 11 11h46c6.075 0 11-4.925 11-11s-4.925-11-11-11z"/><path d="m413 220.272h-56c-6.075 0-11 4.925-11 11s4.925 11 11 11h56c6.075 0 11-4.925 11-11s-4.925-11-11-11z"/></g><path d="m501 104.402h-33v-5.13c0-6.075-4.925-11-11-11h-144c-6.075 0-11 4.925-11 11v5.13h-109.738v-25.294c12.803-4.541 22-16.768 22-31.108 0-18.196-14.804-33-33-33h-62.805c-18.196 0-33 14.804-33 33 0 14.34 9.197 26.567 22 31.108v25.294h-96.457c-6.075 0-11 4.925-11 11v299.834c0 6.075 4.925 11 11 11h184.396l-20.582 48.764h-55.08c-6.075 0-11 4.925-11 11s4.925 11 11 11h272.531c6.075 0 11-4.925 11-11s-4.925-11-11-11h-55.08l-20.583-48.763h184.398c6.075 0 11-4.925 11-11v-299.835c0-6.075-4.925-11-11-11zm-177 5.87h122v198h-122zm-205.543-73.272h62.805c6.065 0 11 4.935 11 11s-4.935 11-11 11h-62.805c-6.065 0-11-4.935-11-11s4.935-11 11-11zm9.526 108.89c.965-1.672 1.474-3.569 1.474-5.5v-59.39h40.805v59.39c0 1.931.508 3.828 1.474 5.5l51.315 88.881c8.857 15.341 8.857 33.659 0 49s-24.721 24.5-42.436 24.5h-61.513c-17.715 0-33.578-9.159-42.436-24.5-8.857-15.341-8.857-33.659 0-49zm70.71 329.11 20.582-48.763h73.45l20.582 48.763zm291.307-70.763h-468v-29.965h468zm0-51.965h-468v-225.87h85.457v11.041l-49.843 86.329c-12.834 22.229-12.834 48.771 0 71s35.82 35.5 61.488 35.5h61.513c25.668 0 48.654-13.271 61.488-35.5s12.834-48.771 0-71l-49.842-86.329v-11.041h109.739v192.87c0 6.075 4.925 11 11 11h144c6.075 0 11-4.925 11-11v-192.87h22z"/></g><g/><g/><g/><g/><g/><g/><g/><g/><g/><g/><g/><g/><g/><g/><g/></svg>