<svg id="Capa_1" enable-background="new 0 0 512 512" viewBox="0 0 512 512" xmlns="http://www.w3.org/2000/svg" fill="#052438"><g><g fill="#0496FF"><path d="m308.902 92.65c-9.525-3.372-14.392-5.369-15.764-6.017-2.748-1.298-2.646-2.679-2.591-3.421.127-1.709 1.369-3.55 2.658-3.939 8.024-2.423 12.118.423 12.702 1.256 3.486 4.977 10.346 6.185 15.321 2.698 4.976-3.485 6.184-10.345 2.698-15.32-3.178-4.537-8.532-8.443-15.425-10.347-1.025-5.014-5.46-8.786-10.777-8.786-5.546 0-10.132 4.104-10.89 9.441-10.092 3.052-17.416 12.441-18.228 23.368-.787 10.604 5.012 20.162 15.136 24.944 2.989 1.411 9.482 3.913 17.815 6.862 5.213 1.846 7.558 5.819 7.18 8.791-.438 3.443-4.873 4.339-7.479 4.567-5.15.448-12.192-1.022-15.102-4.639-3.806-4.734-10.731-5.486-15.465-1.679s-5.486 10.731-1.68 15.465c4.731 5.883 11.333 9.403 18.029 11.251 1.18 4.803 5.515 8.366 10.682 8.366 4.895 0 9.042-3.197 10.469-7.617 12.318-2.744 20.895-11.36 22.369-22.939 1.768-13.879-7.139-27.163-21.658-32.305z"/><path d="m298.681 0c-56.358 0-102.209 45.821-102.209 102.143s45.851 102.143 102.209 102.143 102.21-45.821 102.21-102.143-45.852-102.143-102.21-102.143zm0 182.285c-44.228 0-80.209-35.952-80.209-80.143s35.981-80.142 80.209-80.142 80.21 35.952 80.21 80.143-35.983 80.142-80.21 80.142z"/></g><g><path d="m187.537 255.292c-7.333 0-16.9.392-26.095 3.417-44.002 11.772-74.702 51.797-74.702 97.46 0 53.671 41.784 97.809 95.227 100.725 1.166.154 2.244.192 3.188.192.533 0 1.023-.012 1.462-.023.307-.008.614-.017.92-.017 55.58 0 100.797-45.253 100.797-100.877s-45.217-100.877-100.797-100.877zm0 179.754c-.491 0-.982.011-1.474.023-.422.011-.99.024-1.227.011-.41-.067-.826-.111-1.24-.132-41.976-2.064-74.857-36.669-74.857-78.78 0-35.803 24.122-67.171 58.659-76.28.244-.064.486-.137.725-.218 6.272-2.108 13.668-2.379 19.414-2.379 43.449 0 78.797 35.384 78.797 78.877s-35.348 78.878-78.797 78.878z"/><path d="m336.552 320.863-12.854-5.477c-2.763-9.262-6.471-18.213-11.069-26.726l5.227-12.985c1.646-4.088.692-8.765-2.423-11.882l-35.589-35.62c-3.119-3.122-7.805-4.076-11.895-2.427l-12.962 5.227c-8.501-4.6-17.441-8.309-26.691-11.073l-5.473-12.867c-1.727-4.059-5.711-6.694-10.123-6.694h-50.329c-4.411 0-8.396 2.635-10.123 6.694l-5.473 12.867c-9.248 2.764-18.189 6.473-26.691 11.073l-12.962-5.227c-4.093-1.649-8.775-.694-11.895 2.427l-35.588 35.62c-3.115 3.118-4.068 7.793-2.423 11.882l5.226 12.985c-4.599 8.513-8.307 17.464-11.069 26.726l-12.853 5.477c-4.056 1.729-6.688 5.711-6.688 10.12v50.372c0 4.409 2.632 8.391 6.688 10.12l12.853 5.477c2.762 9.261 6.47 18.213 11.069 26.726l-5.226 12.985c-1.646 4.088-.692 8.764 2.423 11.882l35.588 35.62c3.119 3.122 7.803 4.078 11.895 2.427l12.963-5.226c8.502 4.6 17.443 8.309 26.691 11.073l5.473 12.867c1.727 4.059 5.711 6.694 10.123 6.694h50.329c4.411 0 8.396-2.635 10.123-6.694l5.473-12.867c9.248-2.764 18.188-6.473 26.691-11.073l12.962 5.226c4.093 1.648 8.774.694 11.895-2.427l35.589-35.62c3.115-3.118 4.068-7.794 2.423-11.882l-5.227-12.985c4.6-8.513 8.307-17.464 11.069-26.726l12.854-5.477c4.056-1.729 6.688-5.711 6.688-10.12v-50.372c-.001-4.409-2.633-8.391-6.689-10.12zm-15.312 53.222-11.037 4.703c-3.149 1.342-5.494 4.074-6.344 7.39-2.796 10.917-7.129 21.378-12.877 31.094-1.743 2.945-2.016 6.534-.737 9.709l4.489 11.154-25.308 25.33-11.13-4.487c-3.178-1.281-6.773-1.009-9.721.739-9.708 5.753-20.159 10.088-31.062 12.886-3.317.851-6.048 3.198-7.389 6.349l-4.697 11.048h-35.779l-4.698-11.046c-1.34-3.151-4.072-5.498-7.389-6.349-10.903-2.798-21.354-7.133-31.061-12.886-2.948-1.747-6.543-2.021-9.721-.739l-11.13 4.487-25.308-25.331 4.489-11.155c1.278-3.175 1.005-6.763-.737-9.708-5.749-9.716-10.082-20.178-12.877-31.094-.85-3.316-3.195-6.048-6.344-7.391l-11.037-4.703v-35.832l11.037-4.703c3.149-1.342 5.495-4.074 6.344-7.391 2.795-10.917 7.128-21.378 12.877-31.094 1.742-2.945 2.015-6.534.737-9.708l-4.489-11.155 25.308-25.33 11.13 4.487c3.178 1.281 6.772 1.008 9.722-.739 9.707-5.753 20.157-10.089 31.061-12.887 3.317-.851 6.048-3.198 7.389-6.349l4.698-11.046h35.779l4.698 11.046c1.34 3.151 4.072 5.498 7.388 6.349 10.905 2.798 21.356 7.134 31.062 12.887 2.948 1.748 6.543 2.02 9.722.739l11.129-4.487 25.308 25.33-4.489 11.154c-1.278 3.175-1.006 6.764.737 9.709 5.748 9.715 10.081 20.177 12.877 31.094.85 3.316 3.194 6.048 6.344 7.39l11.037 4.703v35.833z"/><path d="m492.146 277.845-68.721-106.149c-2.027-3.131-5.503-5.022-9.233-5.022s-7.206 1.891-9.233 5.022l-68.721 106.149c-2.19 3.383-2.355 7.693-.43 11.233 1.926 3.541 5.633 5.745 9.663 5.745h25.759v206.177c0 6.075 4.925 11 11 11h63.924c6.075 0 11-4.925 11-11v-206.177h25.759c4.03 0 7.737-2.204 9.663-5.745 1.925-3.54 1.76-7.85-.43-11.233zm-45.992-5.022c-6.075 0-11 4.925-11 11v206.177h-41.924v-206.177c0-6.075-4.925-11-11-11h-16.533l48.495-74.908 48.495 74.908z"/><path d="m50.338 195.136c0 6.075 4.925 11 11 11h56.085c6.075 0 11-4.925 11-11v-54.136h21.25c4.018 0 7.717-2.191 9.647-5.715s1.786-7.82-.377-11.207l-60.292-94.378c-2.021-3.164-5.516-5.078-9.27-5.078s-7.249 1.915-9.27 5.078l-60.293 94.378c-2.163 3.386-2.308 7.683-.377 11.207s5.629 5.715 9.647 5.715h21.25zm-1.17-76.136 40.212-62.946 40.213 62.946h-12.17c-6.075 0-11 4.925-11 11v54.136h-34.085v-54.136c0-6.075-4.925-11-11-11z"/></g></g><g/><g/><g/><g/><g/><g/><g/><g/><g/><g/><g/><g/><g/><g/><g/></svg>