<svg id="Capa_1" enable-background="new 0 0 512 512" viewBox="0 0 512 512" xmlns="http://www.w3.org/2000/svg" fill="#E6ECF2"><g><path d="m456.269 56.409c-1.552-4.057-5.342-6.824-9.679-7.064l-36.898-2.039-2.039-36.899c-.24-4.337-3.006-8.128-7.064-9.679-4.059-1.552-8.648-.572-11.72 2.499l-43.644 43.643c-35.883-23.617-77.489-36.067-120.736-36.067-58.758 0-113.998 22.882-155.546 64.43-41.548 41.549-64.429 96.79-64.429 155.548s22.881 114 64.429 155.548c41.548 41.549 96.788 64.43 155.546 64.43 25.302 0 50.112-4.262 73.741-12.668 5.73-2.038-1.657-22.791-7.382-20.752-21.253 7.561-43.579 11.394-66.359 11.394-109.15 0-197.95-88.801-197.95-197.953s88.799-197.952 197.95-197.952c37.386 0 73.403 10.335 104.797 29.981l-9.315 9.315c-2.065 2.065-3.225 4.867-3.225 7.787v25.887c-25.819-19.109-57.742-30.42-92.257-30.42-36.083 0-71.265 12.696-99.065 35.751-.039.032-.078.065-.116.098l-.593.495c-.045.038-.09.075-.135.112l-.462.393c-34.971 29.651-55.029 72.862-55.029 118.554 0 85.689 69.713 155.402 155.401 155.402 13.024 0 25.975-1.624 38.497-4.827.034-.009.069-.018.105-.027 15.304-3.926 29.58-10.044 42.529-17.967 10.814-6.617 13.102-26.18 21.889-35.088 10.304-10.446 26.693-10.624 33.686-23.547 11.989-22.156 18.696-47.417 18.696-73.948 0-33.749-10.814-65.02-29.159-90.53h26.353c2.92 0 5.721-1.161 7.787-3.225l8.904-8.904c18.784 30.891 28.663 66.169 28.663 102.659 0 22.049-3.596 43.697-10.689 64.345-1.976 5.752 19.262 11.723 20.831 7.156 7.885-22.956 11.884-47.012 11.884-71.501 0-42.349-11.981-83.237-34.706-118.642l44.01-44.011c3.07-3.07 4.049-7.66 2.499-11.717zm-198.628 303.58c-.024.006-.048.012-.068.018-10.753 2.755-21.884 4.151-33.083 4.151-73.543 0-133.376-59.833-133.376-133.377 0-39.209 17.221-76.297 47.315-101.812l.277-.235.082-.069.675-.564c.025-.021.052-.043.077-.065 23.848-19.754 54.015-30.633 84.95-30.633 33.251 0 63.699 12.231 87.082 32.431l-30.233 30.158c-15.573-12.531-35.351-20.039-56.849-20.039-50.083 0-90.827 40.745-90.827 90.827 0 50.083 40.745 90.828 90.827 90.828s90.827-40.745 90.827-90.828c0-20.663-6.936-39.737-18.602-55.015l30.291-30.216c19.261 23.128 30.86 52.85 30.86 85.231-.002 60.931-41.212 114.06-100.225 129.209zm35.649-129.208c0 37.938-30.864 68.802-68.802 68.802s-68.802-30.864-68.802-68.802c0-37.937 30.864-68.802 68.802-68.802 15.411 0 29.656 5.093 41.138 13.685l-47.437 47.319c-4.306 4.296-4.315 11.268-.02 15.575 2.152 2.157 4.974 3.235 7.797 3.235 2.814 0 5.629-1.072 7.778-3.216l47.199-47.082c7.781 11.147 12.347 24.693 12.347 39.286zm79.232-112.555h-33.751v-33.752l48.248-48.249 1.224 22.139c.31 5.604 4.785 10.079 10.388 10.389l22.14 1.224z"/><g fill="#0496FF"><path d="m427.055 409.156-18.05-12.437v-19.803c0-6.082-4.931-11.013-11.013-11.013s-11.013 4.931-11.013 11.013v25.589c0 3.622 1.781 7.013 4.764 9.069l22.815 15.72c1.908 1.315 4.085 1.945 6.239 1.945 3.5 0 6.942-1.665 9.078-4.765 3.451-5.009 2.189-11.867-2.82-15.318z"/><path d="m397.396 291.816c-60.703 0-110.09 49.387-110.09 110.092s49.386 110.092 110.09 110.092 110.091-49.387 110.091-110.092-49.387-110.092-110.091-110.092zm11.013 197.473v-7.239c0-6.082-4.931-11.013-11.013-11.013s-11.013 4.931-11.013 11.013v7.239c-39.456-4.944-70.88-36.095-76.242-75.422h8.061c6.082 0 11.013-4.931 11.013-11.013s-4.931-11.013-11.013-11.013h-8.299c4.597-40.217 36.393-72.291 76.479-77.314v9.133c0 6.082 4.931 11.013 11.013 11.013s11.013-4.931 11.013-11.013v-9.133c40.088 5.023 71.884 37.097 76.48 77.314h-8.299c-6.082 0-11.013 4.931-11.013 11.013s4.931 11.013 11.013 11.013h8.061c-5.361 39.328-36.785 70.478-76.241 75.422z"/></g></g><g/><g/><g/><g/><g/><g/><g/><g/><g/><g/><g/><g/><g/><g/><g/></svg>