<svg id="Capa_1" enable-background="new 0 0 511.999 511.999" viewBox="0 0 511.999 511.999" xmlns="http://www.w3.org/2000/svg" fill="#E6ECF2"><g><g><path d="m461.891 193.024-27.88-2.267c-5.065-22.312-13.792-43.358-26.022-62.76l18.129-21.338c3.71-4.367 3.447-10.85-.604-14.901l-45.272-45.272c-4.052-4.051-10.534-4.315-14.9-.604l-21.342 18.133c-19.41-12.232-40.454-20.958-62.755-26.019l-2.267-27.887c-.466-5.711-5.236-10.109-10.966-10.109h-64.024c-5.729 0-10.5 4.398-10.964 10.108l-2.268 27.887c-22.301 5.062-43.346 13.787-62.755 26.019l-21.342-18.133c-4.366-3.709-10.849-3.447-14.901.604l-45.272 45.274c-4.051 4.052-4.314 10.534-.604 14.901l18.13 21.338c-12.231 19.402-20.958 40.448-26.022 62.76l-27.88 2.267c-5.712.464-10.11 5.234-10.11 10.963v64.024c0 5.729 4.398 10.5 10.108 10.964l27.887 2.268c5.062 22.302 13.787 43.347 26.019 62.755l-18.132 21.342c-3.71 4.366-3.447 10.849.604 14.9l45.271 45.272c4.052 4.051 10.534 4.315 14.9.604l21.339-18.129c19.402 12.231 40.448 20.958 62.76 26.022l2.267 27.88c.464 5.711 5.234 10.109 10.964 10.109h64.024c5.729 0 10.5-4.398 10.964-10.109l2.267-27.885c6.472-1.476 12.889-3.273 19.161-5.37 5.762-1.926 8.871-8.159 6.944-13.92-1.926-5.761-8.157-8.872-13.92-6.944-7.971 2.665-16.203 4.787-24.47 6.308-4.892.899-8.571 4.97-8.974 9.927l-2.113 25.994h-43.74l-2.113-25.994c-.403-4.958-4.083-9.028-8.974-9.927-25.113-4.619-48.542-14.333-69.638-28.873-4.094-2.822-9.574-2.547-13.364.674l-19.897 16.904-30.929-30.929 16.906-19.899c3.22-3.79 3.497-9.268.675-13.363-14.541-21.106-24.254-44.535-28.868-69.635-.899-4.892-4.97-8.572-9.927-8.975l-26.001-2.113v-43.74l25.994-2.113c4.958-.403 9.028-4.083 9.927-8.974 4.619-25.113 14.333-48.542 28.873-69.638 2.822-4.095 2.546-9.574-.674-13.365l-16.905-19.896 30.929-30.929 19.899 16.907c3.791 3.22 9.268 3.497 13.363.676 21.108-14.542 44.536-24.255 69.635-28.869 4.892-.899 8.572-4.97 8.975-9.927l2.114-26.002h43.74l2.114 26c.403 4.958 4.083 9.028 8.975 9.928 25.099 4.614 48.527 14.327 69.635 28.869 4.094 2.82 9.573 2.544 13.363-.676l19.899-16.907 30.929 30.929-16.904 19.896c-3.22 3.791-3.497 9.27-.674 13.365 14.539 21.096 24.253 44.525 28.873 69.638.899 4.892 4.97 8.571 9.927 8.974l25.993 2.114v43.74l-26.001 2.114c-4.958.403-9.028 4.083-9.927 8.975-1.491 8.112-3.563 16.195-6.159 24.024-1.912 5.767 1.214 11.991 6.98 13.902 5.764 1.912 11.99-1.214 13.902-6.98 2.025-6.111 3.768-12.36 5.204-18.662l27.892-2.268c5.71-.464 10.108-5.234 10.108-10.964v-64.024c.001-5.728-4.397-10.498-10.108-10.963z"/><path d="m235.999 81c-85.467 0-155 69.533-155 155s69.533 155 155 155c26.799 0 53.28-6.999 76.58-20.24 5.282-3.001 7.13-9.716 4.129-14.998s-9.718-7.13-14.998-4.129c-16.797 9.545-35.519 15.309-54.711 16.908v-13.959c0-6.075-4.925-11-11-11s-11 4.925-11 11v13.967c-28.421-2.338-54.338-13.65-74.903-31.09l9.831-9.831c4.295-4.296 4.295-11.261 0-15.557-4.296-4.296-11.261-4.296-15.557 0l-9.831 9.831c-17.439-20.564-28.752-46.481-31.089-74.902h13.967c6.075 0 11-4.925 11-11s-4.925-11-11-11h-13.967c2.338-28.421 13.65-54.337 31.089-74.903l9.831 9.831c2.148 2.148 4.963 3.222 7.778 3.222s5.63-1.074 7.778-3.222c4.295-4.296 4.295-11.261 0-15.557l-9.831-9.831c20.566-17.439 46.483-28.752 74.903-31.089v13.966c0 6.075 4.925 11 11 11s11-4.925 11-11v-13.966c28.42 2.338 54.337 13.65 74.903 31.09l-9.831 9.831c-4.295 4.296-4.295 11.261 0 15.557 2.148 2.148 4.963 3.222 7.778 3.222s5.63-1.074 7.778-3.222l9.831-9.831c17.439 20.566 28.752 46.482 31.089 74.903h-13.966c-6.075 0-11 4.925-11 11s4.925 11 11 11h13.959c-1.597 19.165-7.348 37.864-16.869 54.641-2.999 5.284-1.146 11.998 4.138 14.996 5.285 2.999 11.999 1.146 14.996-4.138 13.21-23.28 20.193-49.733 20.193-76.5.002-85.467-69.531-155-154.998-155z"/><path d="m327.628 312.072c-4.296-4.296-11.261-4.296-15.557 0-4.295 4.296-4.295 11.261 0 15.557l8.482 8.482c2.148 2.148 4.963 3.222 7.778 3.222s5.63-1.074 7.778-3.222c4.295-4.296 4.295-11.261 0-15.557z"/><path d="m410.598 393.068-10.779-4.464c-2.18-.903-3.886-2.62-4.803-4.834-.917-2.215-.925-4.635-.021-6.817.903-2.18 2.62-3.886 4.834-4.803s4.636-.926 6.815-.022l5.389 2.232c5.613 2.325 12.047-.34 14.373-5.953 2.325-5.613-.34-12.047-5.953-14.373l-5.391-2.233c-1.008-.418-2.031-.779-3.063-1.086v-4.717c0-6.075-4.925-11-11-11s-11 4.925-11 11v6.45c-6.965 3.289-12.376 8.951-15.33 16.085-3.152 7.609-3.145 16.01.021 23.654 3.167 7.644 9.1 13.589 16.71 16.742l10.778 4.464c4.542 1.881 6.707 7.108 4.825 11.651-1.88 4.542-7.106 6.708-11.65 4.826l-5.389-2.232c-5.611-2.325-12.047.34-14.373 5.953s.34 12.047 5.953 14.373l5.39 2.233c1.013.419 2.035.78 3.063 1.085v4.717c0 6.075 4.925 11 11 11s11-4.925 11-11v-6.441c6.694-3.168 12.281-8.73 15.331-16.094 6.526-15.751-.98-33.872-16.73-40.396z"/></g><g fill="#0496FF"><path d="m400.999 289.999c-61.206 0-111 49.794-111 111s49.794 111 111 111 111-49.794 111-111-49.794-111-111-111zm0 200c-49.075 0-89-39.925-89-89s39.925-89 89-89 89 39.925 89 89-39.925 89-89 89z"/><path d="m235.999 177.031c-6.075 0-11 4.925-11 11v36.969h-19.903c-6.075 0-11 4.925-11 11s4.925 11 11 11h30.903c6.075 0 11-4.925 11-11v-47.97c0-6.074-4.925-10.999-11-10.999z"/></g></g><g/><g/><g/><g/><g/><g/><g/><g/><g/><g/><g/><g/><g/><g/><g/></svg>