<svg id="Capa_1" enable-background="new 0 0 512 512" viewBox="0 0 512 512" xmlns="http://www.w3.org/2000/svg" fill="#052438"><g><g><g><g><path d="m289.646 444.161c-68.637 0-124.477-55.541-124.477-123.81s55.84-123.81 124.477-123.81 124.478 55.541 124.478 123.81-55.841 123.81-124.478 123.81zm0-225.62c-56.506 0-102.477 45.672-102.477 101.81s45.971 101.81 102.477 101.81 102.478-45.672 102.478-101.81-45.972-101.81-102.478-101.81z" fill="#0496FF"/></g><g><path d="m314.959 346.257c-1.896 0-3.816-.491-5.568-1.522l-25.323-14.904c-3.359-1.977-5.421-5.583-5.421-9.48v-52.758c0-6.075 4.925-11 11-11s11 4.925 11 11v46.469l19.902 11.714c5.236 3.082 6.982 9.824 3.9 15.06-2.05 3.481-5.721 5.42-9.49 5.421z" fill="#0496FF"/></g></g><g><path d="m480.197 214.332c-8.622-23.108-42.565-90.274-44.006-93.122-1.716-3.392-5.061-5.657-8.846-5.992-3.795-.334-7.477 1.308-9.761 4.345l-20.62 27.417c-7.584-23.338-24.37-50.622-50.176-81.494-26.341-31.511-52.275-54.967-53.366-55.95-4.186-3.771-10.541-3.771-14.727 0-1.091.983-27.025 24.439-53.366 55.951-25.806 30.871-42.592 58.156-50.175 81.494l-20.62-27.417c-2.283-3.038-5.983-4.68-9.76-4.346-3.786.334-7.131 2.6-8.847 5.991-.924 1.826-20.711 40.974-34.017 69.917l-2.905-6.917c-1.715-4.084-5.712-6.741-10.142-6.741-4.429 0-8.427 2.657-10.142 6.74l-14.794 35.224c-3.467 8.252-9.725 15.163-17.62 19.458l-23.97 13.04c-3.54 1.926-5.744 5.633-5.744 9.663s2.204 7.737 5.744 9.663l23.973 13.039c7.896 4.295 14.153 11.206 17.62 19.458l14.424 34.344c7.1 30.742 23.285 67.019 40.448 90.585 37.317 51.242 101.397 83.168 167.283 83.318 65.836-.15 129.916-32.076 167.233-83.318 44.246-60.753 54.294-140.884 26.879-214.35zm-423.376 50.637-6.207-3.376 6.207-3.376c12.27-6.674 21.997-17.422 27.392-30.265l4.652-11.076 4.651 11.076c5.395 12.843 15.123 23.591 27.393 30.265l6.206 3.376-6.206 3.376c-12.27 6.673-21.998 17.422-27.393 30.265l-4.651 11.076-4.652-11.076c-5.395-12.843-15.122-23.591-27.392-30.265zm378.714 150.761c-33.265 45.676-90.55 74.135-149.45 74.27-58.95-.135-116.235-28.593-149.5-74.27-14.874-20.424-29.485-52.857-36.191-80.057l13.406-31.921c3.467-8.253 9.725-15.163 17.621-19.458l23.972-13.039c3.54-1.926 5.744-5.633 5.744-9.663s-2.204-7.737-5.744-9.663l-23.972-13.039c-7.896-4.295-14.154-11.205-17.621-19.458l-.087-.207c.365-.874 3.905-9.423 4.236-10.17 8.13-18.343 21.28-45.163 29.682-62.07l25.059 33.32c2.843 3.781 7.786 5.321 12.276 3.821 4.488-1.499 7.515-5.701 7.515-10.433 0-42.945 61.902-110.791 93.581-140.975 31.679 30.166 93.577 97.982 93.577 140.976 0 4.732 3.026 8.934 7.515 10.433 4.488 1.5 9.433-.041 12.276-3.821l25.06-33.321c10.777 21.688 29.364 59.674 35.097 75.038 24.824 66.527 15.833 138.941-24.052 193.707z"/><path d="m415.906 30.07c6.075 0 11-4.925 11-11v-8.07c0-6.075-4.925-11-11-11s-11 4.925-11 11v8.07c0 6.075 4.925 11 11 11z"/><path d="m415.906 92.976c6.075 0 11-4.925 11-11v-8.07c0-6.075-4.925-11-11-11s-11 4.925-11 11v8.07c0 6.075 4.925 11 11 11z"/><path d="m443.475 57.488h8.113c6.075 0 11-4.925 11-11s-4.925-11-11-11h-8.113c-6.075 0-11 4.925-11 11s4.925 11 11 11z"/><path d="m380.222 57.488h8.114c6.075 0 11-4.925 11-11s-4.925-11-11-11h-8.114c-6.075 0-11 4.925-11 11s4.925 11 11 11z"/></g></g></g><g/><g/><g/><g/><g/><g/><g/><g/><g/><g/><g/><g/><g/><g/><g/></svg>