<svg id="Capa_1" enable-background="new 0 0 512 512" viewBox="0 0 512 512" xmlns="http://www.w3.org/2000/svg" fill="#E6ECF2"><g><g><g fill="#0496FF"><path d="m255.839 0c-66.39 0-120.401 53.763-120.401 119.847 0 16.5 3.432 32.839 9.994 47.858 1.53 3.501 27.267 4.856 24.306-.449-8.046-14.415-12.299-30.809-12.299-47.409 0-53.953 44.143-97.847 98.401-97.847s98.402 43.894 98.402 97.847c0 16.285-4.101 32.402-11.859 46.611-2.911 5.332 21.874 5.642 23.024 3.129 7.108-15.528 10.835-32.562 10.835-49.74-.001-66.084-54.013-119.847-120.403-119.847z"/><path d="m285.836 124.749-18.997-11.189v-44.619c0-6.075-4.925-11-11-11s-11 4.925-11 11v50.905c0 3.896 2.061 7.501 5.417 9.478l24.414 14.38c1.753 1.033 3.675 1.524 5.573 1.524 3.768 0 7.438-1.938 9.488-5.419 3.083-5.234 1.339-11.976-3.895-15.06z"/></g><g><path d="m408.262 165.028h-304.524c-6.075 0-11 4.925-11 11v52.441c0 6.075 4.925 11 11 11h17.785l18.287 262.296c.402 5.764 5.195 10.235 10.973 10.235h210.435c5.778 0 10.571-4.471 10.973-10.235l18.287-262.296h17.785c6.075 0 11-4.925 11-11v-52.441c-.001-6.075-4.926-11-11.001-11zm-57.304 324.972h-189.916l-17.466-250.531h224.848zm46.304-272.531h-282.524v-30.441h282.523v30.441z"/><path d="m309.524 444.314c.255.017.508.026.76.026 5.734 0 10.567-4.446 10.963-10.252l9.356-137.209c.413-6.061-4.165-11.31-10.226-11.723-6.053-.404-11.31 4.165-11.723 10.226l-9.356 137.209c-.413 6.061 4.165 11.309 10.226 11.723z"/><path d="m190.753 434.088c.396 5.806 5.229 10.252 10.963 10.252.251 0 .505-.009.76-.026 6.061-.414 10.639-5.662 10.226-11.723l-9.356-137.209c-.414-6.061-5.658-10.631-11.723-10.226-6.061.414-10.639 5.662-10.226 11.723z"/><path d="m256 444.339c6.075 0 11-4.925 11-11v-137.209c0-6.075-4.925-11-11-11s-11 4.925-11 11v137.209c0 6.076 4.925 11 11 11z"/></g></g></g><g/><g/><g/><g/><g/><g/><g/><g/><g/><g/><g/><g/><g/><g/><g/></svg>