<svg id="Capa_1" enable-background="new 0 0 512 512" viewBox="0 0 512 512" xmlns="http://www.w3.org/2000/svg" fill="#052438"><g><path d="m370.375 381.064h-.248l-7.206-28.301c-4.388-20.124-7.089-34.527-9.566-54.97-.73-6.031-23.348-9.552-22.618-3.522 2.566 21.191 6.177 42.512 10.729 63.368.027.124.056.246.087.368l5.871 23.057h-259.121l5.87-23.057c.031-.122.06-.244.087-.367 10.399-47.633 15.672-96.508 15.672-145.268 0-59.588 48.417-108.066 107.931-108.066 29.043 0 56.291 11.385 76.722 32.057 4.27 4.321 19.917-11.145 15.646-15.465-12.534-12.682-27.199-22.459-43.196-29l5.458-21.904c4.227-16.962.479-34.587-10.28-48.357-10.743-13.75-26.908-21.637-44.349-21.637s-33.606 7.887-44.351 21.637c-10.76 13.771-14.507 31.396-10.281 48.358l5.476 21.977c-47.345 19.44-80.776 66.086-80.776 120.401 0 47.121-5.09 94.356-15.126 140.392l-7.205 28.3h-.249c-21.438 0-38.88 17.441-38.88 38.914 0 21.439 17.442 38.881 38.88 38.881h105.995c-.268 2.038-.402 4.1-.402 6.181 0 25.894 21.048 46.96 46.919 46.96s46.918-21.066 46.918-46.96c0-2.081-.135-4.143-.402-6.181h105.995c21.439 0 38.881-17.441 38.881-38.914 0-21.44-17.442-38.882-38.881-38.882zm-185.795-316.389c-2.578-10.345-.293-21.095 6.269-29.492 6.546-8.378 16.393-13.183 27.015-13.183 10.623 0 20.469 4.805 27.015 13.183 6.562 8.397 8.847 19.146 6.269 29.492l-5.15 20.667c-9.133-2.006-18.552-3.035-28.134-3.035-9.654 0-19.066 1.06-28.126 3.069zm58.203 400.365c0 13.763-11.179 24.96-24.919 24.96s-24.919-11.197-24.919-24.96c0-2.107.257-4.176.767-6.181h48.304c.509 2.006.767 4.074.767 6.181zm127.592-28.181h-305.023c-9.308 0-16.88-7.572-16.88-16.914 0-9.309 7.573-16.881 16.88-16.881h305.023c9.309 0 16.881 7.572 16.881 16.914 0 9.309-7.572 16.881-16.881 16.881z"/><g fill="#0496FF"><path d="m377.302 90.857c-59.677 0-108.228 48.449-108.228 108.002 0 59.552 48.551 108.001 108.228 108.001s108.227-48.449 108.227-108.001c-.001-59.552-48.55-108.002-108.227-108.002zm0 194.003c-47.546 0-86.228-38.58-86.228-86.001 0-47.422 38.682-86.002 86.228-86.002s86.227 38.58 86.227 86.002c-.001 47.421-38.681 86.001-86.227 86.001z"/><path d="m404.593 202.204-16.291-9.623v-39.088c0-6.075-4.925-11-11-11s-11 4.925-11 11v45.366c0 3.891 2.056 7.492 5.405 9.471l21.696 12.815c1.756 1.038 3.683 1.531 5.584 1.531 3.764 0 7.43-1.933 9.481-5.407 3.091-5.231 1.355-11.976-3.875-15.065z"/></g></g><g/><g/><g/><g/><g/><g/><g/><g/><g/><g/><g/><g/><g/><g/><g/></svg>