<svg id="Capa_1" enable-background="new 0 0 512 512" viewBox="0 0 512 512" xmlns="http://www.w3.org/2000/svg" fill="#E6ECF2"><g><g><path d="m406.822 233.486h-358.972c-6.075 0-6.075-22 0-22h358.972c6.075 0 6.075 22 0 22z"/></g><g><g><path d="m476.785 68.067h-45.251c-5.493 0-10.145 4.053-10.896 9.494l-10.211 73.885h-75.129c-6.075 0-12.854 22-6.779 22h78.867l-26.45 191.392h-303.845l-29.079-191.391h81.37c6.075 0-4.52-22-10.595-22h-83.572c-3.206 0-6.252 1.398-8.342 3.83-2.09 2.431-3.015 5.653-2.533 8.823l32.421 213.392c.816 5.375 5.438 9.348 10.875 9.348h310.26l-4.51 32.636h-297.886c-6.075 0-11 4.925-11 11s4.925 11 11 11h32.932c-4.365 7.058-6.887 15.371-6.887 24.263 0 25.509 20.752 46.263 46.261 46.263s46.261-20.753 46.261-46.263c0-8.891-2.522-17.204-6.887-24.263h91.61c-4.365 7.058-6.887 15.371-6.887 24.263 0 25.509 20.752 46.263 46.261 46.263s46.261-20.753 46.261-46.263c0-8.891-2.522-17.204-6.887-24.263h25.434c5.493 0 10.145-4.053 10.896-9.494l47.251-341.913h35.667c6.075 0 11-4.925 11-11s-4.926-11.002-11.001-11.002zm-304.719 397.67c0 13.378-10.883 24.263-24.261 24.263s-24.261-10.884-24.261-24.263 10.883-24.263 24.261-24.263 24.261 10.885 24.261 24.263zm170.358 0c0 13.378-10.883 24.263-24.261 24.263s-24.261-10.884-24.261-24.263 10.883-24.263 24.261-24.263 24.261 10.885 24.261 24.263z"/><g fill="#0496FF"><path d="m228.717 0c-64.562 0-117.088 52.371-117.088 116.743s52.526 116.743 117.088 116.743 117.088-52.371 117.088-116.743-52.525-116.743-117.088-116.743zm0 211.486c-52.432 0-95.088-42.501-95.088-94.743s42.656-94.743 95.088-94.743 95.088 42.501 95.088 94.743-42.656 94.743-95.088 94.743z"/><path d="m257.982 121.24-18.265-10.778v-43.172c0-6.075-4.925-11-11-11s-11 4.925-11 11v49.454c0 3.893 2.057 7.495 5.41 9.474l23.674 13.971c1.755 1.036 3.68 1.528 5.58 1.528 3.765 0 7.432-1.935 9.484-5.412 3.088-5.233 1.349-11.977-3.883-15.065z"/></g></g></g></g><g/><g/><g/><g/><g/><g/><g/><g/><g/><g/><g/><g/><g/><g/><g/></svg>