<svg id="Capa_1" enable-background="new 0 0 512 512" viewBox="0 0 512 512" xmlns="http://www.w3.org/2000/svg" fill="#E6ECF2"><g><g><g><path d="m444.052 171.484c-4.429 0-8.426-2.657-10.142-6.74l-13.75-32.734c-3.153-7.507-8.847-13.793-16.032-17.701l-22.28-12.117c-3.541-1.925-5.745-5.633-5.745-9.663s2.204-7.738 5.745-9.663l22.28-12.118c7.185-3.908 12.878-10.194 16.032-17.701l13.75-32.734c1.715-4.083 5.712-6.74 10.142-6.74s8.426 2.657 10.142 6.74l13.75 32.735c3.153 7.506 8.847 13.792 16.032 17.7l22.28 12.118c3.541 1.925 5.745 5.633 5.745 9.663s-2.204 7.738-5.745 9.663l-22.28 12.118c-7.185 3.908-12.879 10.194-16.032 17.701l-13.75 32.734c-1.715 4.082-5.713 6.739-10.142 6.739zm-33.924-78.956 4.512 2.454c11.559 6.287 20.723 16.411 25.804 28.508l3.608 8.59 3.608-8.589c5.081-12.097 14.245-22.222 25.804-28.508l4.512-2.454-4.513-2.455c-11.559-6.286-20.723-16.41-25.804-28.507l-3.608-8.589-3.608 8.589c-5.082 12.097-14.246 22.221-25.804 28.507z"/></g></g><g><g fill="#0496FF"><path d="m333.649 223.504-20.538-14.165v-22.62c0-6.075-4.925-11-11-11s-11 4.925-11 11v28.396c0 3.617 1.778 7.002 4.755 9.055l25.293 17.444c1.907 1.315 4.082 1.946 6.235 1.946 3.495 0 6.931-1.662 9.065-4.756 3.449-5.001 2.191-11.851-2.81-15.3z"/><path d="m302.111 94.168c-66.632 0-120.841 54.256-120.841 120.946s54.209 120.947 120.841 120.947c66.631 0 120.84-54.256 120.84-120.947 0-66.689-54.209-120.946-120.84-120.946zm11 219.284v-9.405c0-6.075-4.925-11-11-11s-11 4.925-11 11v9.405c-45.385-5.053-81.594-40.995-87.112-86.287h10.315c6.075 0 11-4.925 11-11s-4.925-11-11-11h-10.548c4.637-46.278 41.26-83.257 87.345-88.388v11.507c0 6.075 4.925 11 11 11s11-4.925 11-11v-11.507c46.085 5.131 82.708 42.11 87.344 88.388h-10.547c-6.075 0-11 4.925-11 11s4.925 11 11 11h10.314c-5.518 45.293-41.726 81.234-87.111 86.287z"/></g><g><path d="m230.846 498.429c-61.662 0-119.632-24.016-163.234-67.625-43.6-43.608-67.612-101.587-67.612-163.258s24.012-119.65 67.612-163.258c43.602-43.608 101.572-67.625 163.234-67.625 16.053 0 32.091 1.659 47.669 4.931 5.224 1.097 8.906 5.787 8.733 11.122s-4.151 9.776-9.436 10.532c-76.703 10.979-134.544 77.8-134.544 155.431 0 86.584 70.428 157.025 156.997 157.025 58.188 0 111.333-31.947 138.693-83.374 2.502-4.705 8.017-6.94 13.089-5.302 5.071 1.636 8.241 6.672 7.521 11.953-7.465 54.82-34.562 105.238-76.3 141.965-42.123 37.069-96.255 57.483-152.422 57.483zm-11.514-439.452c-109.821 6.001-197.332 97.257-197.332 208.569 0 115.178 93.688 208.883 208.846 208.883 85.241 0 160.396-52.145 192.418-127.622-32.717 30.959-76.443 48.898-122.999 48.898-98.699 0-178.997-80.31-178.997-179.025 0-43.346 15.691-85.171 44.183-117.771 15.247-17.445 33.583-31.627 53.881-41.932z"/></g></g></g><g/><g/><g/><g/><g/><g/><g/><g/><g/><g/><g/><g/><g/><g/><g/></svg>