<svg id="Capa_1" enable-background="new 0 0 512 512" viewBox="0 0 512 512" xmlns="http://www.w3.org/2000/svg" fill="#052438"><g><path d="m256 0c-105.88 0-192.019 86.25-192.019 192.267 0 37.767 9.986 74.793 29.681 110.049 15.583 27.895 37.242 54.716 64.375 79.717 8.703 8.02 17.385 15.32 25.755 21.893-22.267 11.502-34.762 27.878-34.762 46.161 0 17.866 12.059 34.102 33.954 45.718 19.686 10.444 45.617 16.195 73.016 16.195s53.33-5.751 73.016-16.194c21.896-11.616 33.954-27.852 33.954-45.718 0-18.285-12.494-34.66-34.762-46.161 8.37-6.573 17.052-13.874 25.755-21.894 27.133-25.001 48.792-51.822 64.375-79.717 19.694-35.256 29.681-72.282 29.681-110.049 0-106.017-86.139-192.267-192.019-192.267zm84.97 450.088c0 18.878-34.896 39.912-84.97 39.912s-84.97-21.034-84.97-39.912c0-11.463 12.654-23.378 33.038-31.129 26.228 18.346 45.872 28.013 47.114 28.618 1.521.741 3.169 1.111 4.817 1.111s3.297-.37 4.817-1.111c1.242-.605 20.885-10.271 47.113-28.617 20.389 7.751 33.041 19.663 33.041 31.128zm-1.49-84.626c-35.172 32.507-70.821 53.018-83.48 59.826-12.665-6.811-48.312-27.321-83.48-59.826-57.423-53.073-86.538-111.344-86.538-173.195-.001-93.886 76.269-170.267 170.018-170.267s170.019 76.381 170.019 170.267c0 61.851-29.116 120.122-86.539 173.195z"/><g fill="#0496FF"><path d="m256 74.392c-64.399 0-116.793 52.166-116.793 116.287s52.394 116.287 116.793 116.287 116.793-52.166 116.793-116.287-52.394-116.287-116.793-116.287zm0 210.574c-52.269 0-94.793-42.297-94.793-94.287s42.524-94.287 94.793-94.287 94.793 42.297 94.793 94.287-42.524 94.287-94.793 94.287z"/><path d="m285.192 195.112-18.192-10.719v-42.954c0-6.075-4.925-11-11-11s-11 4.925-11 11v49.24c0 3.895 2.06 7.5 5.416 9.477l23.608 13.911c1.753 1.033 3.676 1.525 5.573 1.525 3.768 0 7.438-1.937 9.488-5.418 3.085-5.235 1.342-11.978-3.893-15.062z"/></g></g><g/><g/><g/><g/><g/><g/><g/><g/><g/><g/><g/><g/><g/><g/><g/></svg>