<svg id="Capa_1" enable-background="new 0 0 512.002 512.002" viewBox="0 0 512.002 512.002" xmlns="http://www.w3.org/2000/svg" fill="#052438"><g><g><path d="m407.356 389.828-10.778-4.464c-2.181-.903-3.887-2.62-4.804-4.835-.917-2.214-.925-4.635-.021-6.816.902-2.18 2.619-3.886 4.834-4.803 2.216-.919 4.637-.926 6.816-.022l5.389 2.232c5.61 2.323 12.047-.34 14.372-5.953 2.324-5.613-.341-12.047-5.954-14.372l-5.388-2.232c-1.009-.418-2.031-.78-3.064-1.086v-4.717c0-6.075-4.925-11-11-11s-11 4.925-11 11v6.45c-6.965 3.289-12.376 8.951-15.331 16.085-3.151 7.609-3.144 16.01.022 23.654s9.101 13.589 16.71 16.741l10.778 4.464c4.542 1.882 6.707 7.108 4.825 11.65-1.882 4.541-7.106 6.709-11.65 4.827l-5.389-2.232c-5.611-2.325-12.047.339-14.372 5.953-2.325 5.612.34 12.047 5.952 14.373l5.39 2.233c1.013.419 2.036.78 3.064 1.085v4.717c0 6.075 4.925 11 11 11s11-4.925 11-11v-6.441c6.694-3.169 12.281-8.731 15.331-16.095 6.523-15.75-.983-33.871-16.732-40.396z"/><path d="m504.962 76.808-37.38-23.877-7.326-43.747c-.614-3.672-3.046-6.784-6.46-8.27-3.415-1.484-7.35-1.143-10.455.911l-57.745 38.175c-3.053 2.019-4.901 5.422-4.934 9.082l-.195 22.748c-2.416-2.661-4.903-5.273-7.462-7.832-41.268-41.27-96.139-63.998-154.502-63.998s-113.234 22.728-154.503 63.997-63.997 96.139-63.997 154.503 22.728 113.233 63.997 154.502 96.139 63.998 154.503 63.998c26.591 0 52.677-4.784 77.536-14.219 5.68-2.156 8.537-8.508 6.381-14.188-2.155-5.68-8.51-8.538-14.188-6.381-22.356 8.485-45.816 12.788-69.729 12.788-108.351 0-196.5-88.149-196.5-196.5s88.149-196.5 196.5-196.5c64.135 0 121.191 30.885 157.078 78.563l-23.398 15.469c-30.829-40.124-79.286-66.032-133.68-66.032-92.911 0-168.5 75.589-168.5 168.5s75.589 168.5 168.5 168.5c29.856 0 59.261-7.964 85.038-23.032 5.244-3.066 7.011-9.803 3.944-15.048-3.065-5.245-9.801-7.012-15.048-3.945-22.41 13.101-47.976 20.025-73.934 20.025-80.78 0-146.5-65.72-146.5-146.5 0-80.781 65.72-146.5 146.5-146.5 46.741 0 88.439 22.003 115.282 56.196l-23.443 15.498c-21.748-26.65-54.84-43.694-91.839-43.694-65.341 0-118.5 53.159-118.5 118.5s53.158 118.5 118.5 118.5 118.5-53.159 118.5-118.5c0-20.465-5.215-39.734-14.385-56.55l23.421-15.483c12.068 21.283 18.963 45.868 18.963 72.033 0 27.779-7.852 54.869-22.706 78.342-3.249 5.133-1.721 11.929 3.413 15.177 5.134 3.25 11.929 1.72 15.177-3.413 17.085-26.998 26.116-58.156 26.116-90.106 0-30.644-8.223-59.403-22.578-84.188l23.388-15.462c17.272 29.234 27.19 63.305 27.19 99.649 0 24.216-4.409 47.955-13.105 70.558-2.182 5.67.646 12.035 6.316 14.216 5.674 2.181 12.035-.646 14.217-6.317 9.669-25.133 14.572-51.53 14.572-78.457 0-32.549-7.069-64.011-20.48-92.634l20.552 8.543c1.358.564 2.793.843 4.222.843 2.127 0 4.241-.617 6.067-1.824l57.744-38.174c3.106-2.054 4.963-5.539 4.934-9.263-.03-3.722-1.941-7.178-5.079-9.182zm-189.959 141.692c0 53.21-43.29 96.5-96.5 96.5s-96.5-43.29-96.5-96.5 43.29-96.5 96.5-96.5c29.342 0 55.668 13.164 73.381 33.896l-23.596 15.6c-12.497-13.229-30.193-21.496-49.785-21.496-37.771 0-68.5 30.729-68.5 68.501s30.729 68.5 68.5 68.5 68.5-30.729 68.5-68.5c0-10.282-2.278-20.043-6.354-28.804l23.538-15.561c6.909 13.289 10.816 28.379 10.816 44.364zm-105.674 5.159c2.116 3.2 5.617 4.935 9.187 4.935 2.083 0 4.188-.59 6.056-1.825l37.42-24.738c1.946 5.122 3.012 10.673 3.012 16.469 0 25.641-20.86 46.5-46.5 46.5s-46.5-20.86-46.5-46.5 20.86-46.501 46.5-46.501c11.912 0 22.792 4.503 31.028 11.896l-37.092 24.522c-5.069 3.35-6.461 10.174-3.111 15.242zm230.785-111.811-37.853-15.735.351-40.99 38.742-25.612 5.338 31.875c.514 3.069 2.304 5.778 4.927 7.453l27.236 17.397z"/></g><g><path d="m397.757 512.002c-62.994 0-114.243-51.249-114.243-114.243 0-14.575 2.702-28.741 8.038-42.157l-7.941-59.634c-.469-3.515.787-7.041 3.371-9.469s6.181-3.462 9.66-2.775l52.912 10.434c15.125-7.063 31.323-10.642 48.203-10.642 62.993 0 114.242 51.249 114.242 114.243s-51.249 114.243-114.242 114.243zm-90.313-203.724 6.305 47.344c.263 1.967-.013 3.968-.795 5.791-4.937 11.501-7.439 23.73-7.439 36.346 0 50.863 41.38 92.243 92.243 92.243 50.862 0 92.242-41.38 92.242-92.243s-41.38-92.243-92.242-92.243c-14.688 0-28.727 3.349-41.725 9.955-2.193 1.116-4.699 1.462-7.111.986z" fill="#0496FF"/></g></g><g/><g/><g/><g/><g/><g/><g/><g/><g/><g/><g/><g/><g/><g/><g/></svg>