<svg id="Capa_1" enable-background="new 0 0 511.994 511.994" viewBox="0 0 511.994 511.994" xmlns="http://www.w3.org/2000/svg" fill="#E6ECF2"><g><g fill="#0496FF"><path d="m43.982 235.997h183.427v22h-183.427z" transform="matrix(.867 -.499 .499 .867 -105.086 100.555)"/><path d="m154.492 269.903h132.204v22h-132.204z" transform="matrix(.536 -.845 .845 .536 -134.767 316.767)"/></g><path d="m511.994 336.727c0-50.936-36.359-94.593-86.455-103.808l-10.169-1.87c-12.73-2.342-24.827-6.881-35.954-13.492l-132.811-78.901c-18.572-11.033-39.808-16.865-61.41-16.865-6.075 0-11 4.925-11 11v37.476h-36.979c-17.76 0-33.497-10.656-40.09-27.148l-.28-.699c-5.381-13.457-18.306-22.152-32.927-22.152h-1.071c-14.646 0-27.625 8.786-33.066 22.384l-11.842 29.595c-8.456 21.133-12.744 43.389-12.744 66.151v53.706l-4.871 42.865c-1.639 14.42 2.965 28.899 12.63 39.725 9.665 10.825 23.531 17.034 38.043 17.034h419.995c22.607 0 41-18.393 41-41v-14.001zm-257.132-167.576 20.63 12.256-25.642 25.642-20.594-12.292zm40.148 23.852 20.631 12.256-25.712 25.712-20.594-12.293zm40.149 23.852 28.748 17.079c-15.627 10.928-35.518 13.745-53.504 7.677zm-99.815-59.299-25.571 25.571-13.578-8.105v-30.612c13.791 1.556 27.149 6.023 39.149 13.146zm-53.182 34.711 105.335 62.874c13.086 7.811 27.617 11.619 42.049 11.619 20.161 0 40.114-7.451 55.637-21.793 8.416 3.47 17.178 6.058 26.208 7.719l10.169 1.87c21.299 3.918 39.452 15.709 51.703 32.026l-39.145 39.145h-235.745c-16.79 0-32.979-6.109-45.583-17.201l-4.675-4.114c-16.624-14.629-37.974-22.685-60.117-22.685h-60.8v-43.329c0-10.024.951-19.937 2.835-29.669 26.093-.997 50.629-10.766 70.204-27.899 10.614 7.306 23.404 11.437 36.981 11.437zm-156.145 111.46h44.896l-10 22h-37.396zm12.348-123.307 11.842-29.596c2.08-5.198 7.042-8.557 12.641-8.557h1.071c5.572 0 10.479 3.266 12.5 8.322l.28.699c2.033 5.086 4.651 9.797 7.745 14.085-13.764 11.599-30.425 18.776-48.249 20.821.688-1.934 1.405-3.861 2.17-5.774zm451.629 170.307c0 10.477-8.523 19-19 19h-419.995c-8.374 0-16.056-3.44-21.632-9.686-3.22-3.607-5.424-7.808-6.536-12.314h45.166c4.313 0 8.229-2.521 10.014-6.448l16.906-37.193c14.276 1.437 27.802 7.283 38.664 16.842l4.675 4.114c16.625 14.629 37.975 22.686 60.118 22.686h240.302c2.917 0 5.715-1.159 7.778-3.222l37.911-37.911c3.635 9.392 5.63 19.56 5.63 30.133v13.999z"/></g><g/><g/><g/><g/><g/><g/><g/><g/><g/><g/><g/><g/><g/><g/><g/></svg>