<svg id="Capa_1" enable-background="new 0 0 512 512" viewBox="0 0 512 512" xmlns="http://www.w3.org/2000/svg" fill="#052438"><g><g fill="#0496FF"><path d="m93.674 230h104.652v22h-104.652z" transform="matrix(.707 -.707 .707 .707 -127.65 173.825)"/><path d="m313.674 230h104.652v22h-104.652z" transform="matrix(.707 -.707 .707 .707 -63.214 329.388)"/><path d="m105.528 34.298h97.01v22h-97.01z" transform="matrix(.707 -.707 .707 .707 13.085 122.185)"/><path d="m311.782 33.337h94.292v22h-94.292z" transform="matrix(.707 -.707 .707 .707 73.777 266.787)"/></g><path d="m501 193h-52.897v-104.326h28.645c6.075 0 11-4.925 11-11v-66.674c0-6.075-4.925-11-11-11h-441.495c-6.075 0-11 4.925-11 11v66.674c0 6.075 4.925 11 11 11h28.644v104.326h-52.897c-6.075 0-11 4.925-11 11v74c0 6.075 4.925 11 11 11h33v201h-9.735c-6.075 0-11 4.925-11 11s4.925 11 11 11h95.469c6.075 0 11-4.925 11-11s-4.925-11-11-11h-9.734v-201h272v201h-9.734c-6.075 0-11 4.925-11 11s4.925 11 11 11h95.469c6.075 0 11-4.925 11-11s-4.925-11-11-11h-9.735v-201h33c6.075 0 11-4.925 11-11v-74c0-6.075-4.925-11-11-11zm-371.103 0v-104.326h252.205v104.326zm-22-89.722h-22v-23.425c0-6.065 4.935-11 11-11s11 4.935 11 11zm318.206 0h-22v-23.425c0-6.065 4.935-11 11-11s11 4.935 11 11zm-22 22h22v67.722h-22zm-357.85-103.278h419.494v44.674h-20.398c-5.098-11.655-16.733-19.822-30.246-19.822s-25.148 8.167-30.246 19.822h-257.713c-5.098-11.655-16.733-19.822-30.246-19.822s-25.149 8.168-30.247 19.822h-20.398zm39.644 103.278h22v67.722h-22zm12.103 186.722h-32v-29c0-8.822 7.178-16 16-16s16 7.178 16 16zm-32 178v-156h32v156zm380-178h-32v-29c0-8.822 7.178-16 16-16s16 7.178 16 16zm-32 178v-156h32v156zm76-223h-25.545c-6.051-12.979-19.216-22-34.455-22s-28.404 9.021-34.455 22h-279.09c-6.051-12.979-19.216-22-34.455-22s-28.404 9.021-34.455 22h-25.545v-52h468z"/></g><g/><g/><g/><g/><g/><g/><g/><g/><g/><g/><g/><g/><g/><g/><g/></svg>