<svg id="Capa_1" enable-background="new 0 0 512 512" viewBox="0 0 512 512" xmlns="http://www.w3.org/2000/svg" fill="#052438"><g><g fill="#0496FF"><path d="m256 290c-18.196 0-33 14.804-33 33v24c0 18.196 14.804 33 33 33s33-14.804 33-33v-24c0-18.196-14.804-33-33-33zm11 57c0 6.065-4.935 11-11 11s-11-4.935-11-11v-24c0-6.065 4.935-11 11-11s11 4.935 11 11z"/><path d="m344 290c-18.196 0-33 14.804-33 33v24c0 18.196 14.804 33 33 33s33-14.804 33-33v-24c0-18.196-14.804-33-33-33zm11 57c0 6.065-4.935 11-11 11s-11-4.935-11-11v-24c0-6.065 4.935-11 11-11s11 4.935 11 11z"/><path d="m168 290c-18.196 0-33 14.804-33 33v24c0 18.196 14.804 33 33 33s33-14.804 33-33v-24c0-18.196-14.804-33-33-33zm11 57c0 6.065-4.935 11-11 11s-11-4.935-11-11v-24c0-6.065 4.935-11 11-11s11 4.935 11 11z"/></g><g><path d="m461.02 180.057c-35.913-23.014-57.354-62.219-57.354-104.875v-64.182c0-6.075-4.925-11-11-11h-55.669c-2.428 0-4.665.796-6.484 2.128l-.007-.009c-21.774 15.914-47.537 24.326-74.506 24.326s-52.732-8.412-74.505-24.326l-.007.009c-1.819-1.332-4.056-2.128-6.484-2.128h-55.669c-6.075 0-11 4.925-11 11v64.183c0 42.655-21.441 81.86-57.354 104.875-3.156 2.022-5.065 5.513-5.065 9.262v311.68c0 6.075 4.925 11 11 11h398.17c6.075 0 11-4.925 11-11v-311.681c-.001-3.749-1.91-7.239-5.066-9.262zm-135.024-149.15v19.637c0 38.38-31.224 69.779-69.604 69.995-.136.001-.27.001-.404.001-18.619 0-36.13-7.223-49.344-20.363-13.311-13.236-20.641-30.862-20.641-49.633v-19.637c21.435 11.522 45.285 17.538 69.997 17.538s48.562-6.016 69.996-17.538zm118.089 459.093h-376.17v-294.813c39.198-27.44 62.42-71.855 62.42-120.004v-53.183h33.669v28.544c0 24.67 9.634 47.837 27.128 65.233 17.368 17.271 40.38 26.764 64.854 26.763.176 0 .355 0 .531-.001 50.442-.283 91.479-41.552 91.479-91.995v-28.544h33.669v53.183c0 48.149 23.222 92.564 62.42 120.004z"/><path d="m411.085 202h-310.17c-6.075 0-11 4.925-11 11v244c0 6.075 4.925 11 11 11h310.17c6.075 0 11-4.925 11-11v-244c0-6.075-4.925-11-11-11zm-11 22v22h-288.17v-22zm0 44v134h-288.17v-134zm-288.17 178v-22h288.17v22z"/></g></g><g/><g/><g/><g/><g/><g/><g/><g/><g/><g/><g/><g/><g/><g/><g/></svg>