<svg id="Capa_1" enable-background="new 0 0 512 512" viewBox="0 0 512 512" xmlns="http://www.w3.org/2000/svg" fill="#E6ECF2"><g><path d="m314.402 165.333h-116.804c-6.075 0-11 4.925-11 11v159.333c0 6.075 4.925 11 11 11h116.805c6.075 0 11-4.925 11-11v-159.333c-.001-6.075-4.925-11-11.001-11zm-11 22v30.424h-94.805v-30.424zm0 52.424v32.485h-94.805v-32.485zm-94.804 84.91v-30.424h94.805v30.424z" fill="#0496FF"/><path d="m256 0c-114.213 0-207.133 92.919-207.133 207.133v97.734c0 114.214 92.92 207.133 207.133 207.133s207.133-92.919 207.133-207.133v-97.734c0-114.214-92.92-207.133-207.133-207.133zm185.133 256h-22v-48.867c0-41.026-15.228-78.558-40.322-107.255l15.576-15.576c29.063 32.707 46.746 75.739 46.746 122.831zm-44-22h-22v-26.867c0-28.893-10.342-55.414-27.515-76.063l15.603-15.603c21.129 24.679 33.912 56.706 33.912 91.665zm-217.196 162.485c17.998 14.968 40.459 24.739 65.063 27.002v22.086c-30.659-2.375-58.599-14.594-80.665-33.486zm87.063 27.002c24.603-2.263 47.064-12.034 65.062-27.002l15.603 15.603c-22.066 18.892-50.006 31.111-80.665 33.486zm-11-21.487c-53.559 0-97.133-43.574-97.133-97.133v-97.734c0-53.559 43.574-97.133 97.133-97.133s97.133 43.574 97.133 97.133v97.734c0 53.559-43.574 97.133-97.133 97.133zm76.061-286.487c-17.998-14.967-40.458-24.737-65.061-27v-22.087c30.659 2.375 58.598 14.593 80.664 33.485zm-87.061-27c-24.603 2.263-47.063 12.034-65.062 27.001l-15.603-15.603c22.066-18.892 50.005-31.11 80.664-33.485v22.087zm118.254-4.192c-26.11-22.832-59.538-37.485-96.254-39.942v-22.043c42.776 2.519 81.689 19.627 111.83 46.409zm-118.254-39.942c-36.716 2.457-70.144 17.11-96.254 39.942l-15.576-15.576c30.141-26.783 69.054-43.89 111.83-46.409zm-80.618 86.691c-17.172 20.649-27.515 47.17-27.515 76.062v48.868h-22v-48.867c0-34.959 12.783-66.986 33.912-91.665zm-49.515 146.93h22v26.867c0 28.892 10.342 55.413 27.514 76.062l-15.603 15.603c-21.129-24.679-33.911-56.705-33.911-91.664zm33.878 149.678c26.111 22.832 59.538 37.486 96.255 39.943v22.043c-42.777-2.519-81.69-19.627-111.831-46.41zm118.255 39.943c36.717-2.457 70.144-17.11 96.255-39.943l15.576 15.576c-30.141 26.783-69.054 43.891-111.831 46.41zm80.619-86.692c17.172-20.649 27.514-47.169 27.514-76.062v-48.867h22v48.867c0 34.959-12.782 66.985-33.911 91.664zm-230.006-296.627 15.576 15.576c-25.094 28.697-40.322 66.229-40.322 107.255v26.867h-22v-26.867c0-47.092 17.684-90.124 46.746-122.831zm-46.746 171.698h22v48.867c0 41.025 15.228 78.557 40.321 107.254l-15.576 15.576c-29.062-32.707-46.745-75.739-46.745-122.83zm323.521 171.697-15.576-15.576c25.093-28.697 40.321-66.229 40.321-107.254v-26.867h22v26.867c0 47.091-17.683 90.124-46.745 122.83z"/></g><g/><g/><g/><g/><g/><g/><g/><g/><g/><g/><g/><g/><g/><g/><g/></svg>