<svg id="Capa_1" enable-background="new 0 0 512 512" viewBox="0 0 512 512" xmlns="http://www.w3.org/2000/svg" fill="#052438"><g><g><path d="m479.917 275.203v-160.292c0-22.579-18.369-40.948-40.948-40.948h-367.026c-22.579 0-40.948 18.369-40.948 40.948v252.818h-5.367c-14.131 0-25.628 11.496-25.628 25.627v.133c0 32.555 26.485 59.04 59.04 59.04h280.998v22.674c0 20.29 16.507 36.796 36.796 36.796h98.37c20.289.001 36.796-16.506 36.796-36.795v-163.517c0-18.692-14.013-34.161-32.083-36.484zm-426.922-160.292c0-10.448 8.5-18.948 18.948-18.948h367.025c10.448 0 18.948 8.5 18.948 18.948v159.98h-35.811v-102.373c0-6.075-4.925-11-11-11h-60.068c-6.075 0-11 4.925-11 11v29.79h-38.067v-27.975c0-6.075-4.925-11-11-11h-60.068c-6.075 0-11 4.925-11 11v37.978h-49.068c-6.075 0-11 4.925-11 11v32.511h-47.069c-6.075 0-11 4.925-11 11s4.925 11 11 11h47.069v52.438c0 6.075 4.925 11 11 11s11-4.925 11-11v-95.95h38.068v95.949c0 6.075 4.925 11 11 11s11-4.925 11-11v-144.926h38.068v144.927c0 6.075 4.925 11 11 11s11-4.925 11-11v-105.952h38.068v98.512l-1.237 1.745.237 18.3 1 1.955v22.909h-287.043zm347.111 159.98h-23.272c-5.262 0-10.265 1.118-14.796 3.117v-94.49h38.068zm-341.066 155.638c-20.424 0-37.04-16.616-37.04-37.04v-.133c0-2 1.628-3.627 3.628-3.627h314.41v40.801h-280.998zm430.96 44.675c0 8.159-6.638 14.796-14.796 14.796h-98.37c-8.158 0-14.796-6.638-14.796-14.796v-163.517c0-8.159 6.638-14.796 14.796-14.796h98.37c8.158 0 14.796 6.637 14.796 14.796z"/><path d="m449.185 320.865h-47.242c-6.075 0-11 4.925-11 11s4.925 11 11 11h47.242c6.075 0 11-4.925 11-11s-4.925-11-11-11z"/></g><g fill="#0496FF"><path d="m479.92 11v27.69c0 6.07-4.93 11-11 11-6.08 0-11-4.93-11-11v-1.74l-129.74 111.76c-4.23 3.64-10.53 3.54-14.63-.25l-52.89-48.79-138.9 118.71v104.44h218.28v22h-252.66c-6.08 0-11-4.92-11-11 0-6.07 4.92-11 11-11h12.38v-181.45c0-6.07 4.93-11 11-11 6.08 0 11 4.93 11 11v48.07l132.03-112.84c4.24-3.62 10.51-3.5 14.6.28l52.86 48.76 120.32-103.64h-.34c-6.07 0-11-4.92-11-11s4.93-11 11-11h27.69c6.07 0 11 4.92 11 11z"/><path d="m437.081 407.075c-2.508-1.079-4.787-1.979-6.798-2.774-3.734-1.475-6.959-2.749-8.187-3.834-.129-.172-.312-.971.003-1.926.439-1.335 1.334-1.605 1.629-1.694 4.472-1.348 7.284.613 7.835 1.05 4.617 3.917 11.534 3.37 15.475-1.235 3.95-4.616 3.41-11.56-1.205-15.509-1.004-.859-4.201-3.368-9.091-5.083-.386-5.725-5.14-10.253-10.962-10.253-6.048 0-10.953 4.882-10.996 10.92-7.257 3.097-12.508 9.433-14.265 17.423-1.881 8.553.787 17.27 6.964 22.749 4.149 3.678 9.047 5.613 14.717 7.854 1.958.773 3.983 1.574 6.188 2.522 3.572 1.537 3.872 4.08 3.495 5.943-.226 1.115-1.339 4.758-6.177 4.79-5.625.041-6.696-.127-10.646-2.712-5.083-3.328-11.9-1.9-15.228 3.182-3.326 5.084-1.901 11.901 3.183 15.228 4.43 2.899 8.042 4.507 11.806 5.374.419 5.693 5.159 10.185 10.959 10.185 6.075 0 11-4.925 11-11v-.465c8.421-3.484 14.769-10.845 16.666-20.214 2.616-12.921-3.961-25.186-16.365-30.521z"/></g></g><g/><g/><g/><g/><g/><g/><g/><g/><g/><g/><g/><g/><g/><g/><g/></svg>