<svg id="Layer_1" enable-background="new 0 0 512.059 512.059" viewBox="0 0 512.059 512.059" xmlns="http://www.w3.org/2000/svg" fill="#052438"><g><g><g><path d="m413.029 512.059h-92.944c-6.075 0-11-4.925-11-11v-44c0-6.075 4.925-11 11-11h92.944c6.075 0 11 4.925 11 11v44c0 6.075-4.925 11-11 11zm-81.944-22h70.944v-22h-70.944z"/></g><g><path d="m126.474 512.059h-92.945c-6.075 0-11-4.925-11-11v-44c0-6.075 4.925-11 11-11h92.945c6.075 0 11 4.925 11 11v44c0 6.075-4.925 11-11 11zm-81.945-22h70.945v-22h-70.945z"/></g></g><g><g><path d="m122.529 146.122c-6.075 0-11 4.925-11 11v25.904h22v-25.904c0-6.076-4.925-11-11-11z"/><path d="m478.529 77.628c-6.075 0-11 4.925-11 11v52.089h22v-52.089c0-6.075-4.925-11-11-11z"/><path d="m212.029 211.94c-6.075 0-11 4.925-11 11v35.977h22v-35.977c0-6.075-4.925-11-11-11z"/><path d="m111.529 330.005c0 6.075 4.925 11 11 11s11-4.925 11-11v-46.081h-22z"/><path d="m389.529 161.503c-6.075 0-11 4.925-11 11v42.881h22v-42.881c0-6.075-4.925-11-11-11z"/><path d="m378.529 346.559c0 6.075 4.925 11 11 11s11-4.925 11-11v-22.672h-22z"/><path d="m300.529 119.347c-6.075 0-11 4.925-11 11v32.696h22v-32.696c0-6.075-4.925-11-11-11z"/><path d="m289.529 296.683c0 6.075 4.925 11 11 11s11-4.925 11-11v-32.696h-22z"/></g><path d="m501.029 379.559h-456.5v-368.5c0-6.075-4.925-11-11-11s-11 4.925-11 11v30.055h-11.5c-6.075 0-11 4.925-11 11s4.925 11 11 11h11.5v34h-11.5c-6.075 0-11 4.925-11 11s4.925 11 11 11h11.5v34h-11.5c-6.075 0-11 4.925-11 11s4.925 11 11 11h11.5v34h-11.5c-6.075 0-11 4.925-11 11s4.925 11 11 11h11.5v34h-11.5c-6.075 0-11 4.925-11 11s4.925 11 11 11h11.5v34h-11.5c-6.075 0-11 4.925-11 11s4.925 11 11 11h11.5v47.445c0 6.075 4.925 11 11 11h47.445v11.5c0 6.075 4.925 11 11 11s11-4.925 11-11v-11.5h34v11.5c0 6.075 4.925 11 11 11s11-4.925 11-11v-11.5h34v11.5c0 6.075 4.925 11 11 11s11-4.925 11-11v-11.5h34v11.5c0 6.075 4.925 11 11 11s11-4.925 11-11v-11.5h34v11.5c0 6.075 4.925 11 11 11s11-4.925 11-11v-11.5h34v11.5c0 6.075 4.925 11 11 11s11-4.925 11-11v-11.5h34v11.5c0 6.075 4.925 11 11 11s11-4.925 11-11v-11.5h34v11.5c0 6.075 4.925 11 11 11s11-4.925 11-11v-11.5h6.056c6.075 0 11-4.925 11-11s-4.926-11-11.001-11z"/><path d="m486.796 3.743c-2.089-2.379-5.101-3.743-8.267-3.743h-33.628c-6.075 0-11 4.925-11 11s4.925 11 11 11h3.224l-94.502 78.678-58.363-58.363c-4.045-4.044-10.513-4.314-14.879-.623l-100.673 85.094-49.4-49.4c-4.296-4.296-11.261-4.296-15.557 0-4.295 4.296-4.295 11.261 0 15.557l56.553 56.553c2.139 2.139 4.955 3.222 7.781 3.222 2.517 0 5.041-.86 7.099-2.599l100.673-85.094 58.31 58.31c4.022 4.021 10.446 4.315 14.816.675l104.003-86.588-.363 2.782c-.787 6.024 3.459 11.545 9.482 12.332.483.063.964.094 1.438.094 5.441 0 10.17-4.037 10.894-9.577l4-30.628c.41-3.139-.552-6.303-2.641-8.682z" fill="#0496FF"/><g><path d="m501.029 490.059h-44c-6.075 0-11-4.925-11-11s4.925-11 11-11h44c6.075 0 11 4.925 11 11s-4.925 11-11 11z"/></g><g><path d="m214.474 490.059h-44c-6.075 0-11-4.925-11-11s4.925-11 11-11h44c6.075 0 11 4.925 11 11s-4.925 11-11 11z"/></g><g><path d="m145.029 293.925h-45c-6.075 0-11-4.925-11-11v-96.944c0-6.075 4.925-11 11-11h45c6.075 0 11 4.925 11 11v96.944c0 6.075-4.925 11-11 11zm-34-22h23v-74.944h-23z" fill="#0496FF"/></g><g><path d="m234.029 357.559h-45c-6.075 0-11-4.925-11-11v-85.642c0-6.075 4.925-11 11-11h45c6.075 0 11 4.925 11 11v85.642c0 6.075-4.925 11-11 11zm-34-22h23v-63.642h-23z" fill="#0496FF"/></g><g><path d="m323.029 272.987h-45c-6.075 0-11-4.925-11-11v-96.944c0-6.075 4.925-11 11-11h45c6.075 0 11 4.925 11 11v96.944c0 6.076-4.925 11-11 11zm-34-22h23v-74.944h-23z" fill="#0496FF"/></g><g><path d="m412.029 333.886h-45c-6.075 0-11-4.925-11-11v-105.501c0-6.075 4.925-11 11-11h45c6.075 0 11 4.925 11 11v105.501c0 6.075-4.925 11-11 11zm-34-22h23v-83.501h-23z" fill="#0496FF"/></g><g><path d="m501.029 250.267h-45c-6.075 0-11-4.925-11-11v-96.944c0-6.075 4.925-11 11-11h45c6.075 0 11 4.925 11 11v96.944c0 6.075-4.925 11-11 11zm-34-22h23v-74.944h-23z" fill="#0496FF"/></g></g></g><g/><g/><g/><g/><g/><g/><g/><g/><g/><g/><g/><g/><g/><g/><g/></svg>