<svg id="Layer_1" enable-background="new 0 0 512 512" viewBox="0 0 512 512" xmlns="http://www.w3.org/2000/svg" fill="#E6ECF2"><g><g><path d="m220.091 502.219 21.865-2.438-13.607-122.042 12.879-21.188-18.801-11.427-11.613 19.106h-31.025l-11.613-19.106-18.801 11.427 12.879 21.188-13.608 122.042 21.866 2.438 12.932-115.989h23.715z" fill="#0496FF"/><g><path d="m195.46 205.635c-8.448 0-16.391-3.29-22.365-9.264-4.296-4.295-4.296-11.26 0-15.556 4.295-4.296 11.26-4.296 15.557 0 1.818 1.819 4.237 2.82 6.809 2.82s4.99-1.001 6.809-2.82c4.295-4.296 11.26-4.296 15.557 0 4.296 4.295 4.296 11.26 0 15.556-5.975 5.974-13.918 9.264-22.367 9.264z" fill="#0496FF"/></g><path d="m499.739 377.741-49.066-86.657 18.848-58.725c1.26-3.925.22-8.225-2.695-11.14-16.333-16.332-42.908-16.331-59.239 0-3.756 3.756-8.75 5.825-14.063 5.825s-10.307-2.069-14.063-5.825c-16.332-16.331-42.906-16.331-59.238 0-2.923 2.923-3.961 7.239-2.686 11.171l16.628 51.281c-4.472-1.514-9.071-2.665-13.784-3.402l-77.347-12.104v-22.608c25.446-15.914 42.409-44.183 42.409-76.345v-46.146c5.433-.671 9.642-5.293 9.642-10.908v-12.533c.001-54.933-44.691-99.625-99.625-99.625s-99.625 44.692-99.625 99.625v12.534c0 5.614 4.208 10.236 9.641 10.907v46.146c0 32.028 16.822 60.196 42.092 76.146v22.806l-77.346 12.106c-19.552 3.06-37.404 13.025-50.271 28.061-12.865 15.035-19.951 34.214-19.951 54.003v138.666c0 6.075 4.925 11 11 11h425.479c14.796 0 29.261-5.147 40.73-14.494 22.109-18.016 34.79-44.706 34.79-73.225.001-16.279-4.238-32.372-12.26-46.54zm-135.835-140.965c16.333 16.333 42.907 16.332 59.238 0 6.222-6.221 15.576-7.453 23.038-3.687l-15.476 48.222h-74.176l-15.641-48.233c7.46-3.751 16.801-2.518 23.017 3.698zm-209.161 52.534 25.001 25.001-35.258 35.258-25.245-54.703zm81.116 0 35.502 5.556-25.245 54.703-35.259-35.258zm-118.024-189.685c0-42.802 34.822-77.625 77.625-77.625s77.626 34.823 77.626 77.625v1.534h-67.567c7.511-9.642 12.002-21.747 12.002-34.888 0-6.075-4.925-11-11-11s-11 4.925-11 11c0 19.237-15.65 34.888-34.888 34.888h-42.799v-1.534zm9.641 69.588v-46.053h135.969v46.053c0 37.487-30.498 67.984-67.984 67.984s-67.985-30.497-67.985-67.984zm67.984 89.984c8.882 0 17.465-1.3 25.575-3.708v17.532l-25.734 25.734-25.733-25.734v-17.627c8.203 2.47 16.894 3.803 25.892 3.803zm-173.46 103.137c0-30.276 21.71-55.648 51.623-60.329l23.021-3.603 34.478 74.71c1.507 3.266 4.515 5.588 8.056 6.22.644.115 1.29.171 1.932.171 2.892 0 5.697-1.141 7.778-3.222l46.413-46.413 46.414 46.413c2.081 2.081 4.887 3.222 7.778 3.222.642 0 1.288-.056 1.932-.171 3.541-.632 6.549-2.954 8.056-6.22l34.478-74.71 23.022 3.603c4.005.627 7.901 1.65 11.666 3.039l-41.282 72.663c-8.058 14.184-12.317 30.303-12.317 46.615 0 24.766 9.575 48.146 26.605 65.677h-279.653zm441.313 118.118c-7.557 6.157-17.087 9.548-26.834 9.548h-85.912c-9.747 0-19.277-3.391-26.866-9.575-16.939-13.803-26.654-34.252-26.654-56.103 0-12.509 3.267-24.871 9.446-35.748l48.44-85.263h77.381l48.28 85.269c6.153 10.868 9.405 23.213 9.405 35.701.001 21.877-9.726 42.351-26.686 56.171z"/><path d="m406.846 386.091c-8.596-3.039-18.09-6.699-23.332-10.81-1.281-1.004-1.824-3.57-1.321-6.238.265-1.405 1.495-6.098 6.214-7.519 9.61-2.895 15.719 1.969 16.384 2.533 4.456 4.11 11.245 3.701 15.369-.747 4.13-4.455 3.846-11.434-.609-15.564-3.015-2.78-8.489-6.184-15.619-7.942v-2.804c0-6.075-4.925-11-11-11s-11 4.925-11 11v3.504c-10.965 3.358-19.144 12.718-21.358 24.466-2.054 10.897 1.534 21.481 9.364 27.623 7.725 6.058 18.78 10.425 29.577 14.241 8.429 2.979 8.677 9.43 8.076 13.01-1.007 5.99-6.046 12.463-14.731 12.521-9.094.065-11.702-.35-18.574-4.846-5.085-3.326-11.902-1.901-15.227 3.183-3.326 5.084-1.901 11.901 3.183 15.227 7.484 4.896 13.101 7.047 19.691 7.914v3.157c0 6.075 4.925 11 11 11s11-4.925 11-11v-4.3c14.2-4.404 23.283-16.89 25.354-29.21 2.795-16.636-6.222-31.666-22.441-37.399z" fill="#0496FF"/></g></g><g/><g/><g/><g/><g/><g/><g/><g/><g/><g/><g/><g/><g/><g/><g/></svg>