<svg id="Layer_1" enable-background="new 0 0 512 512" viewBox="0 0 512 512" xmlns="http://www.w3.org/2000/svg" fill="#E6ECF2"><g><g><g><path d="m501 239.339h-104.275c-3.931 0-7.562-2.097-9.526-5.501s-1.965-7.598.001-11.001l9.51-16.464-125.243-72.159-26.793 44.872c-3.039 5.091-9.567 6.855-14.76 3.992l-224.229-123.755c-2.556-1.41-4.446-3.779-5.254-6.584-.809-2.805-.469-5.816.943-8.371l21.398-38.684c2.938-5.312 9.623-7.24 14.939-4.307l177.494 97.918 27.281-45.689c3.079-5.159 9.732-6.891 14.936-3.892l172.401 99.328 9.546-16.528c1.966-3.402 5.597-5.498 9.525-5.498h.003c3.931.001 7.562 2.099 9.525 5.503l52.105 90.323c1.963 3.403 1.962 7.596-.003 10.998-1.963 3.403-5.595 5.499-9.524 5.499zm-85.219-22h66.174l-33.066-57.32-5.511 9.541c-3.037 5.256-9.76 7.058-15.017 4.029l-172.538-99.407-27.18 45.518c-3.039 5.091-9.568 6.856-14.758 3.992l-177.18-97.745-10.75 19.435 205.279 113.297 26.895-45.041c3.079-5.159 9.729-6.891 14.936-3.892l144.169 83.062c2.53 1.458 4.376 3.861 5.133 6.681.757 2.819.361 5.824-1.099 8.353z" fill="#0496FF"/></g></g><path d="m463.477 374.486c-3.695-10.746-5.574-21.954-5.586-33.318.307-15.97-5.303-31.463-14.942-42.048 1.907-15.937-5.785-30.854-19.277-35.695-11.324-4.063-24.098-.128-33.058 9.438-15.521-6.27-49.731-20.281-62.471-27.046-24.426-12.973-53.545-13.516-77.895-1.454-16.714 8.278-34.838 12.084-52.432 11.011l-95.369-5.831c-30.567-1.868-59.896 11.589-78.411 36.004-16.425 21.66-23.105 49.426-18.329 76.179 1.247 6.983 3.571 14.189 6.91 21.417 4.621 10.004 7.271 19.561 7.271 26.221 0 13.332-5.759 25.526-15.405 32.62-3.08 2.265-4.764 5.967-4.445 9.777l4.188 50.148c.476 5.7 5.241 10.084 10.962 10.084h48.501c3.422 0 6.648-1.592 8.73-4.308 2.081-2.715 2.78-6.245 1.892-9.55-2.332-8.667 2.311-17.733 10.798-21.087 3.199-1.264 6.593-2.804 10.067-4.664l3.105 29.752c.585 5.603 5.308 9.858 10.94 9.858h47.862c3.161 0 6.169-1.359 8.257-3.732 2.089-2.373 3.056-5.529 2.654-8.664l-2.959-23.125c5.634-6.558 15.317-20.327 20.655-42.139 17.245-.24 31.755-1.155 41.165-1.914 1.402 26.993 3.921 59.106 7.219 71.419 1.289 4.81 5.646 8.154 10.626 8.154h103.49c3.531 0 6.849-1.696 8.917-4.559 2.067-2.863 2.636-6.544 1.526-9.897-7.418-22.414-10.086-49.812-7.32-75.166.005-.047.01-.094.014-.141.923-9.602 5.841-20.125 11.999-26.083l1.422-.278c14.424-2.82 29.032 1.874 38.131 12.25 9.593 10.939 24.939 14.272 38.19 8.293l5.424-2.448c15.081-6.803 22.383-23.776 16.984-39.478zm-309.337 79.674c-4.019 6.546-7.538 9.908-7.931 10.274-2.849 2.406-4.131 5.964-3.657 9.667l2.034 15.893h-25.453l-3.417-32.736c6.491-6.467 12.469-14.545 17.122-24.644 10.278.871 20.405 1.368 30.084 1.605-2.668 8.827-6.042 15.475-8.782 19.941zm179.538 35.834h-24.843c-4.759-18.002-6.269-38.662-4.135-57.885.006-.054.012-.108.017-.162 1.337-13.91 12.165-26.718 24.651-29.16l4.557-.891c-2.324 5.812-3.89 11.992-4.49 18.159-2.515 23.143-.961 47.881 4.243 69.939zm103.766-96.081-5.424 2.448c-4.365 1.969-9.431.867-12.6-2.747-14.245-16.243-36.811-23.651-58.893-19.335l-35.38 6.917c-22.21 4.342-39.995 24.755-42.321 48.558-2.229 20.155-1.034 41.053 3.344 60.239h-32.399c-3.556-23.932-6.303-78.206-6.157-95.525.051-6.075-4.833-11.041-10.908-11.092-.031 0-.063 0-.094 0-6.032 0-10.947 4.864-10.998 10.908-.029 3.588.073 9.227.298 16.12-18.187 1.467-58.601 3.763-99.041-.449-5.062-.532-9.82 2.484-11.513 7.28-6.588 18.665-19.485 31.906-38.334 39.353-14.402 5.692-23.811 18.847-25.152 33.406h-26.564l-2.869-34.361c12.278-11.408 19.45-28.255 19.45-46.269 0-12.658-5.057-26.263-9.299-35.446-2.551-5.522-4.309-10.925-5.225-16.059-3.701-20.727 1.475-42.238 14.199-59.018 14.059-18.538 36.319-28.759 59.54-27.338l95.368 5.831c21.434 1.309 43.39-3.274 63.54-13.256 18.015-8.924 39.629-8.486 57.812 1.17 17.676 9.386 70.277 30.324 72.508 31.21 5.14 2.042 10.994-.047 13.68-4.88 3.073-5.533 8.44-8.801 12.229-7.445 3.844 1.379 6.443 7.995 4.188 15.644-1.255 4.255.169 8.847 3.611 11.646 7.45 6.057 12.103 17.599 11.854 29.405-.002.077-.003.154-.003.232 0 13.84 2.281 27.494 6.781 40.581 1.683 4.892-.564 10.168-5.228 12.272z"/></g><g/><g/><g/><g/><g/><g/><g/><g/><g/><g/><g/><g/><g/><g/><g/></svg>