<svg id="Capa_1" enable-background="new 0 0 512 512" viewBox="0 0 512 512" xmlns="http://www.w3.org/2000/svg" fill="#052438"><g><g><path d="m505.014 321.346c-6.365-9.919-16.209-16.765-27.719-19.274-11.513-2.511-23.311-.383-33.223 5.988l-100.432 64.559c-2.634-17.606-15.837-32.626-34.224-36.636l-121.128-26.413c-25.463-5.552-51.56-.849-73.486 13.246-.294.189-12.328 9.636-12.328 9.636-4.774 3.757-5.6 10.673-1.843 15.447 3.758 4.774 10.674 5.6 15.447 1.843l11.048-8.693c16.89-10.701 36.928-14.247 56.475-9.984l121.127 26.413c11.909 2.597 19.486 14.411 16.891 26.335-1.258 5.776-4.687 10.717-9.655 13.91-4.966 3.191-10.876 4.257-16.64 3l-112.893-24.618c-5.933-1.292-11.797 2.468-13.091 8.404s2.468 11.797 8.404 13.091l112.893 24.618c3.153.688 6.326 1.027 9.478 1.027 8.355 0 16.548-2.389 23.746-7.016 5.422-3.485 9.916-8.017 13.293-13.289l118.815-76.375c4.965-3.192 10.874-4.259 16.64-3 5.767 1.258 10.7 4.688 13.89 9.661 6.59 10.27 3.605 23.991-6.654 30.585l-168.197 108.119c-19.495 12.532-42.721 16.825-65.398 12.091l-134.727-28.12c-5.944-1.239-11.774 2.574-13.016 8.521-1.241 5.947 2.574 11.774 8.521 13.016l134.727 28.12c7.525 1.571 15.094 2.347 22.616 2.346 20.828 0 41.262-5.954 59.173-17.467l168.195-108.118c20.455-13.15 26.41-40.502 13.275-60.973z"/><path d="m150.661 270.382c6.075 0 11-4.925 11-11v-51.774c0-6.075-4.925-11-11-11s-11 4.925-11 11v51.774c0 6.075 4.924 11 11 11z"/><path d="m221.094 270.382c6.075 0 11-4.925 11-11v-87.586c0-6.075-4.925-11-11-11s-11 4.925-11 11v87.586c0 6.075 4.925 11 11 11z"/><path d="m291.528 270.382c6.075 0 11-4.925 11-11v-87.586c0-6.075-4.925-11-11-11s-11 4.925-11 11v87.586c0 6.075 4.925 11 11 11z"/><path d="m363.254 270.382c6.075 0 11-4.925 11-11v-151.863c0-6.075-4.925-11-11-11s-11 4.925-11 11v151.863c0 6.075 4.925 11 11 11z"/><path d="m434.979 270.382c6.075 0 11-4.925 11-11v-164.719c0-6.075-4.925-11-11-11s-11 4.925-11 11v164.719c0 6.075 4.925 11 11 11z"/></g><g fill="#0496FF"><path d="m97.887 299.764h-76.879c-11.58 0-21 9.42-21 21v170.236c0 11.58 9.42 21 21 21h76.878c11.58 0 21-9.42 21-21v-170.236c.001-11.58-9.42-21-20.999-21zm-1 190.236h-74.879v-168.236h74.878v168.236z"/><path d="m122.696 170.292h44.894c2.919 0 5.719-1.161 7.783-3.226l47.637-47.692 27.716 27.749c2.063 2.065 4.863 3.226 7.783 3.226 2.919 0 5.72-1.161 7.783-3.226l91.149-91.253 27.275 27.307c2.063 2.065 4.863 3.226 7.783 3.226s5.719-1.161 7.783-3.226l44.355-44.406v1.719c0 6.075 4.925 11 11 11s11-4.925 11-11v-29.49c0-6.075-4.925-11-11-11h-26.788c-6.075 0-11 4.925-11 11s4.925 11 11 11h1.443l-37.794 37.837-27.274-27.307c-2.063-2.065-4.863-3.226-7.783-3.226s-5.719 1.161-7.783 3.226l-91.149 91.253-27.716-27.748c-2.063-2.066-4.863-3.227-7.783-3.227s-5.719 1.161-7.783 3.226l-52.197 52.257h-40.334c-6.075 0-11 4.925-11 11s4.925 11.001 11 11.001z"/><path d="m457.484 250.382h-334.788c-6.075 0-11 4.925-11 11s4.925 11 11 11h334.788c6.075 0 11-4.925 11-11s-4.925-11-11-11z"/></g></g><g/><g/><g/><g/><g/><g/><g/><g/><g/><g/><g/><g/><g/><g/><g/></svg>