<svg id="Capa_1" enable-background="new 0 0 512 512" height="512" viewBox="0 0 512 512" width="512" xmlns="http://www.w3.org/2000/svg" fill="#E6ECF2"><g id="Printer_6_"><path d="m380.576 138.271c-6.075 0-11-4.925-11-11v-105.271h-227.152v105.271c0 6.075-4.925 11-11 11s-11-4.925-11-11v-116.271c0-6.075 4.925-11 11-11h249.152c6.075 0 11 4.925 11 11v116.271c0 6.076-4.925 11-11 11z" fill="#0496FF"/><path d="m501 345.898h-120.424v-22h109.424v-185.627h-468v185.627h109.424v22h-120.424c-6.075 0-11-4.925-11-11v-207.627c0-6.075 4.925-11 11-11h490c6.075 0 11 4.925 11 11v207.627c0 6.076-4.925 11-11 11z"/><path d="m380.576 512h-249.152c-6.075 0-11-4.925-11-11v-249.152c0-6.075 4.925-11 11-11h249.152c6.075 0 11 4.925 11 11v249.152c0 6.075-4.925 11-11 11zm-238.152-22h227.152v-227.152h-227.152z" fill="#0496FF"/><path d="m297.525 345.898h-83.051c-6.075 0-11-4.925-11-11s4.925-11 11-11h83.051c6.075 0 11 4.925 11 11s-4.924 11-11 11z"/><path d="m297.525 428.949h-83.051c-6.075 0-11-4.925-11-11s4.925-11 11-11h83.051c6.075 0 11 4.925 11 11s-4.924 11-11 11z"/></g></svg>