<svg id="Capa_1" enable-background="new 0 0 512 512" height="512" viewBox="0 0 512 512" width="512" xmlns="http://www.w3.org/2000/svg" fill="#052438"><g><g><path d="m327.986 365.904c-13.862 0-27.654-5.836-38.263-16.991-4.186-4.402-4.012-11.364.39-15.551 4.403-4.187 11.365-4.013 15.552.39 12.29 12.921 27.116 11.554 36.076 6.457 9.061-5.153 17.079-16.583 12.408-33.21-1.081-3.846.009-7.976 2.847-10.788s6.977-3.864 10.814-2.75c16.289 4.736 28.189-3.978 33.893-13.709 5.677-9.686 7.796-25.435-4.916-37.944-2.83-2.785-3.939-6.878-2.903-10.711s4.057-6.81 7.905-7.789c16.792-4.276 22.751-18.718 22.751-29.787s-5.959-25.512-22.751-29.788c-3.848-.98-6.869-3.956-7.905-7.789-1.036-3.832.073-7.926 2.903-10.711 12.712-12.509 10.593-28.258 4.916-37.944-5.704-9.732-17.604-18.443-33.893-13.709-3.837 1.115-7.976.062-10.814-2.75-2.837-2.812-3.927-6.942-2.847-10.788 4.864-17.313-4.656-29.852-14.286-35.329-9.68-5.505-24.228-6.967-36.026 5.438-2.77 2.913-6.909 4.082-10.793 3.051-3.885-1.032-6.898-4.1-7.859-8.003-4.214-17.123-18.3-23.199-29.082-23.199s-24.868 6.076-29.081 23.2c-.961 3.903-3.974 6.972-7.859 8.003-3.884 1.031-8.023-.138-10.794-3.051-11.798-12.405-26.346-10.942-36.026-5.438-9.63 5.476-19.149 18.015-14.286 35.329 1.081 3.846-.009 7.976-2.847 10.788s-6.975 3.864-10.814 2.75c-16.292-4.737-28.189 3.977-33.893 13.709-5.677 9.686-7.795 25.435 4.916 37.944 2.83 2.785 3.939 6.878 2.903 10.711s-4.057 6.81-7.905 7.789c-16.792 4.276-22.751 18.718-22.751 29.788 0 11.069 5.958 25.511 22.751 29.787 3.848.98 6.869 3.956 7.905 7.789s-.073 7.926-2.903 10.711c-12.711 12.509-10.593 28.258-4.916 37.944 5.704 9.732 17.603 18.443 33.893 13.709 3.836-1.115 7.976-.062 10.814 2.75 2.837 2.812 3.927 6.942 2.847 10.788-4.854 17.279 3.056 28.888 11.304 33.579 8.316 4.729 21.414 5.354 33.236-7.077 4.186-4.401 11.148-4.577 15.552-.39 4.402 4.187 4.576 11.149.39 15.551-16.944 17.817-40.516 22.149-60.053 11.039-15.285-8.693-23.934-24.894-23.854-42.922-17.55-.265-33.519-9.543-43.108-25.903-9.806-16.73-9.867-36.285-1.015-52.301-15.296-9.288-24.842-25.95-24.842-45.054s9.546-35.767 24.842-45.055c-8.852-16.016-8.791-35.57 1.015-52.301 9.617-16.409 25.66-25.694 43.273-25.905.268-18.312 9.957-35.165 26.67-44.67 16.424-9.341 34.891-9.258 50.246-.522 9.172-15.442 25.575-25.069 44.39-25.069s35.217 9.628 44.39 25.069c15.354-8.737 33.82-8.82 50.246.522 16.713 9.505 26.402 26.357 26.67 44.67 17.614.21 33.655 9.495 43.272 25.905 9.806 16.73 9.867 36.285 1.015 52.301 15.296 9.288 24.842 25.95 24.842 45.055 0 19.104-9.546 35.767-24.842 45.054 8.851 16.016 8.79 35.57-1.015 52.301-9.598 16.377-25.597 25.657-43.169 25.904-.086 17.724-9.013 33.52-24.896 42.553-7.77 4.418-16.213 6.57-24.63 6.57z" fill="#0496FF"/></g><path d="m446.338 488.596-13.021-54.747c-5.131-21.574-21.436-38.599-42.552-44.432l-52.318-14.452c-11.996-3.313-21.66-12.429-25.853-24.386l-9.559-27.257c36.145-18.797 61.132-58.598 61.132-104.55v-89.252c0-6.075-4.925-11-11-11s-11 4.925-11 11v89.252c0 51.876-38.608 94.08-86.063 94.08-47.456 0-86.064-42.204-86.064-94.08v-55.675c0-6.075-4.925-11-11-11s-11 4.925-11 11v55.675c0 44.335 23.262 82.938 57.36 102.483l-9.588 29.761c-3.828 11.878-13.084 21.196-24.762 24.923l-53.877 17.198c-20.435 6.523-35.984 23.757-40.581 44.976l-11.017 50.859c-1.229 5.672.151 11.509 3.785 16.016 3.595 4.457 8.927 7.013 14.629 7.013h344.021c5.776 0 11.151-2.61 14.747-7.162 3.636-4.603 4.941-10.523 3.581-16.243zm-300.615 1.404h-57.86l10.231-47.23c2.935-13.55 12.81-24.538 25.77-28.675l21.86-6.978v82.883zm196.443 0h-174.443v-37.679h174.443zm0-59.679h-174.443v-30.226l10.017-3.198c18.428-5.882 33.011-20.512 39.012-39.135l8.896-27.612c9.664 3.054 19.884 4.701 30.456 4.701 9.114 0 17.967-1.224 26.427-3.517l9.303 26.525c6.578 18.757 21.814 33.079 40.756 38.311l9.577 2.646v31.505zm22 59.679v-85.106l20.741 5.729c13.383 3.697 23.731 14.547 27.006 28.317l12.145 51.06z"/><g><path d="m193.729 209.651c-3.191 0-6.444-.351-9.724-1.072-20.952-4.604-35.404-22.772-35.962-45.21-.151-6.073 4.65-11.119 10.723-11.27 6.068-.156 11.119 4.65 11.27 10.723.372 14.964 10.3 22.426 18.689 24.269 7.979 1.754 18.628-.691 24.591-12.805 1.78-3.616 5.394-5.969 9.42-6.133 4.021-.168 7.82 1.885 9.889 5.344 7.18 12.002 18.889 13.466 27.452 10.833 8.412-2.585 17.94-10.732 17.112-25.183-.23-4.007 1.741-7.821 5.143-9.952 3.402-2.13 7.693-2.239 11.199-.284 11.601 6.474 24.015 7.053 34.057 1.593 8.426-4.583 14.021-12.9 14.601-21.708.398-6.062 5.633-10.662 11.698-10.254 6.062.398 10.653 5.636 10.254 11.698-1.086 16.513-10.822 31.314-26.043 39.591-12.439 6.765-26.71 8.182-40.716 4.317-4.229 14.737-15.424 26.472-30.843 31.211-15.266 4.692-30.955 1.278-42.556-8.48-8.116 8.227-18.776 12.772-30.254 12.772z" fill="#0496FF"/></g></g></svg>