<svg id="Capa_1" enable-background="new 0 0 512 512" viewBox="0 0 512 512" xmlns="http://www.w3.org/2000/svg" fill="#052438"><g><path d="m481 55.187h-450c-17.094 0-31 13.907-31 31v279.627c0 17.093 13.906 31 31 31h171.337l-8.434 38h-74.168c-6.075 0-11 4.925-11 11s4.925 11 11 11h272.531c6.075 0 11-4.925 11-11s-4.925-11-11-11h-74.168l-8.434-38h171.336c17.094 0 31-13.907 31-31v-279.627c0-17.094-13.906-31-31-31zm-450 22h450c4.963 0 9 4.038 9 9v234.627h-468v-234.627c0-4.963 4.037-9 9-9zm264.562 357.626h-79.125l8.435-38h62.256zm185.438-60h-450c-4.963 0-9-4.038-9-9v-23h468v23c0 4.963-4.037 9-9 9z"/><g fill="#0496FF"><path d="m457 232.813c-6.075 0-11 4.925-11 11v17.443l-42.463-42.463c-4.296-4.295-11.261-4.296-15.557 0s-4.296 11.261 0 15.557l42.463 42.463h-17.443c-6.075 0-11 4.925-11 11s4.925 11 11 11h44c6.075 0 11-4.925 11-11v-44c0-6.075-4.925-11-11-11z"/><path d="m124.02 163.65-42.463-42.463h17.443c6.075 0 11-4.925 11-11s-4.925-11-11-11h-44c-6.075 0-11 4.925-11 11v44c0 6.075 4.925 11 11 11s11-4.925 11-11v-17.443l42.463 42.463c2.148 2.148 4.963 3.222 7.778 3.222 2.814 0 5.631-1.074 7.778-3.222 4.296-4.296 4.296-11.261.001-15.557z"/><path d="m124.02 218.793c-4.297-4.296-11.26-4.296-15.557 0l-42.463 42.464v-17.443c0-6.075-4.925-11-11-11s-11 4.925-11 11v44c0 6.075 4.925 11 11 11h44c6.075 0 11-4.925 11-11s-4.925-11-11-11h-17.443l42.463-42.463c4.295-4.297 4.295-11.262 0-15.558z"/><path d="m457 99.187h-44c-6.075 0-11 4.925-11 11s4.925 11 11 11h17.443l-42.463 42.463c-4.296 4.296-4.296 11.261 0 15.557 2.148 2.148 4.963 3.222 7.778 3.222s5.63-1.074 7.778-3.222l42.464-42.464v17.443c0 6.075 4.925 11 11 11s11-4.925 11-11v-44c0-6.075-4.925-10.999-11-10.999z"/></g></g><g/><g/><g/><g/><g/><g/><g/><g/><g/><g/><g/><g/><g/><g/><g/></svg>