<svg id="Capa_1" enable-background="new 0 0 512 512" height="512" viewBox="0 0 512 512" width="512" xmlns="http://www.w3.org/2000/svg" fill="#052438"><g id="Options"><path d="m89.898 512c-6.075 0-11-4.925-11-11v-328.051c0-6.075 4.925-11 11-11s11 4.925 11 11v328.051c0 6.075-4.924 11-11 11z"/><path d="m89.898 100.898c-6.075 0-11-4.925-11-11v-78.898c0-6.075 4.925-11 11-11s11 4.925 11 11v78.898c0 6.076-4.924 11-11 11z"/><path d="m256 512c-6.075 0-11-4.925-11-11v-78.898c0-6.075 4.925-11 11-11s11 4.925 11 11v78.898c0 6.075-4.925 11-11 11z"/><path d="m256 350.051c-6.075 0-11-4.925-11-11v-328.051c0-6.075 4.925-11 11-11s11 4.925 11 11v328.051c0 6.075-4.925 11-11 11z"/><path d="m422.102 512c-6.075 0-11-4.925-11-11v-245.001c0-6.075 4.925-11 11-11s11 4.925 11 11v245.001c0 6.075-4.925 11-11 11z"/><path d="m422.102 183.949c-6.075 0-11-4.925-11-11v-161.949c0-6.075 4.925-11 11-11s11 4.925 11 11v161.949c0 6.075-4.925 11-11 11z"/><g fill="#0496FF"><path d="m89.898 183.949c-28.963 0-52.526-23.563-52.526-52.525s23.563-52.525 52.526-52.525c28.962 0 52.525 23.563 52.525 52.525s-23.562 52.525-52.525 52.525zm0-83.051c-16.832 0-30.526 13.694-30.526 30.525s13.694 30.525 30.526 30.525 30.525-13.694 30.525-30.525c.001-16.831-13.693-30.525-30.525-30.525z"/><path d="m256 433.102c-28.962 0-52.525-23.563-52.525-52.525s23.563-52.525 52.525-52.525 52.525 23.563 52.525 52.525-23.563 52.525-52.525 52.525zm0-83.051c-16.831 0-30.525 13.694-30.525 30.525 0 16.832 13.694 30.525 30.525 30.525s30.525-13.694 30.525-30.525-13.693-30.525-30.525-30.525z"/><path d="m422.102 267c-28.963 0-52.525-23.563-52.525-52.525s23.562-52.525 52.525-52.525 52.525 23.563 52.525 52.525-23.562 52.525-52.525 52.525zm0-83.051c-16.832 0-30.525 13.694-30.525 30.525 0 16.832 13.693 30.525 30.525 30.525s30.525-13.694 30.525-30.525-13.693-30.525-30.525-30.525z"/></g></g></svg>