<svg id="Capa_1" enable-background="new 0 0 512 512" viewBox="0 0 512 512" xmlns="http://www.w3.org/2000/svg" fill="#052438"><g><g><path d="m438.992 233.657v-132.531c0-17.093-13.906-31-31-31h-376.992c-17.094 0-31 13.907-31 31v249.134c0 17.093 13.906 31 31 31h134.969l-8.571 38.614h-74.168c-6.075 0-11 4.925-11 11s4.925 11 11 11h272.531c6.075 0 11-4.925 11-11s-4.925-11-11-11h-74.168l-8.571-38.614h134.969c17.094 0 31-13.907 31-31v-40.503h-22v40.503c0 4.962-4.037 9-9 9h-376.991c-4.963 0-9-4.038-9-9v-19.764h383.916v-22h-383.916v-207.37c0-4.962 4.037-9 9-9h376.992c4.963 0 9 4.038 9 9v132.531zm-179.933 186.217h-79.125l8.571-38.614h61.984z"/><path d="m55 114.126c-6.075 0-11 4.925-11 11v150.37c0 6.075 4.925 11 11 11h174.37c6.075 0 11-4.925 11-11v-150.37c0-6.075-4.925-11-11-11zm74 79.185c0-7.271 5.915-13.185 13.185-13.185 7.271 0 13.186 5.915 13.186 13.185s-5.915 13.185-13.186 13.185c-7.27 0-13.185-5.914-13.185-13.185zm13.185 35.185c20.726 0 37.828 15.808 39.884 36h-79.766c2.054-20.192 19.157-36 39.882-36zm76.185 36h-14.244c-1.448-22.135-14.54-41.134-33.203-50.923 4.055-5.733 6.447-12.722 6.447-20.262 0-19.401-15.784-35.185-35.186-35.185-19.4 0-35.185 15.784-35.185 35.185 0 7.541 2.393 14.529 6.447 20.262-18.662 9.789-31.755 28.787-33.203 50.923h-14.243v-128.37h152.37z"/><path d="m394.992 219.402v-94.276c0-6.075-4.925-11-11-11h-110.622c-6.075 0-11 4.925-11 11v150.37c0 6.075 4.925 11 11 11h110.622c6.075 0 11-4.925 11-11v-25.222h-22v14.222h-88.622v-128.37h88.622v83.276z"/></g><path d="m508.778 300.1-28.879-28.879 12.876-10.14c3.19-2.513 4.737-6.58 4.022-10.578s-3.574-7.277-7.438-8.529l-113.15-36.657c-3.935-1.276-8.246-.237-11.169 2.686-2.922 2.923-3.96 7.237-2.687 11.168l36.657 113.151c1.252 3.864 4.531 6.724 8.529 7.438 4.001.713 8.064-.833 10.578-4.023l10.139-12.875 28.879 28.879c2.062 2.062 4.861 3.222 7.778 3.222s5.715-1.159 7.778-3.222l36.086-36.086c4.297-4.294 4.297-11.259.001-15.555zm-43.864 28.308-29.858-29.859c-2.069-2.069-4.869-3.222-7.777-3.222-.217 0-.434.006-.651.019-3.139.186-6.047 1.706-7.992 4.176l-5.048 6.411-23.665-73.046 73.047 23.664-6.411 5.049c-2.47 1.945-3.989 4.854-4.175 7.992-.187 3.138.979 6.206 3.202 8.429l29.858 29.858z" fill="#0496FF"/></g><g/><g/><g/><g/><g/><g/><g/><g/><g/><g/><g/><g/><g/><g/><g/></svg>