<svg id="Capa_1" enable-background="new 0 0 512 512" height="512" viewBox="0 0 512 512" width="512" xmlns="http://www.w3.org/2000/svg" fill="#052438"><g><g><path d="m303.538 453.238h-87.519c-39.401 0-76.018-19.828-97.95-53.04l18.358-12.123c17.848 27.027 47.603 43.163 79.592 43.163h87.519c23.861 0 46.737-8.984 64.414-25.299l16.245-14.993 14.921 16.166-16.245 14.993c-21.753 20.076-49.927 31.133-79.335 31.133z" fill="#0496FF"/></g><g><path d="m265.628 501h-22v-96.246l-47.812-24.081 9.896-19.648 53.864 27.129c3.71 1.869 6.052 5.669 6.052 9.824z" fill="#0496FF"/></g><g><path d="m251.699 373.397h65.88v22h-65.88z" fill="#0496FF" transform="matrix(.911 -.412 .412 .911 -133.167 151.547)"/></g><path d="m478.239 488.979-11.017-50.809c-4.597-21.201-20.147-38.421-40.583-44.939-.387-.123-.78-.225-1.178-.305l-84.978-17.053c-11.422-3.836-20.452-13.037-24.218-24.716l-9.569-29.669c25.347-14.484 44.712-39.485 53.01-69.544h18.709c25.485 0 46.219-20.989 46.219-46.789s-20.734-46.789-46.242-46.789l-14.252.03-.001-63.73c0-.003 0-.005 0-.007l-.001-41.857c0-10.803-4.821-20.824-13.227-27.495-8.225-6.529-18.778-8.927-28.972-6.598l-15.385 3.192c-.088.019-.176.037-.264.058-30.248 7.057-61.607-.075-86.033-19.559-2.958-2.361-6.922-3.032-10.493-1.784-29.151 10.2-48.786 25.857-58.361 46.538-10.143 21.91-5.403 42.455-3.39 49.085v62.129h-10.319c-26.692 0-47.601 20.552-47.601 46.789 0 25.8 20.734 46.789 46.219 46.789h16.136c8.444 30.586 28.344 55.941 54.348 70.302l-7.459 28.887c-4.209 11.575-13.582 20.424-25.211 23.805l-83.635 14.339c-.359.061-.716.142-1.068.238-21.116 5.828-37.421 22.84-42.553 44.395l-13.022 54.693c-1.36 5.715-.057 11.632 3.578 16.232 3.596 4.552 8.972 7.163 14.75 7.163h407.65c5.704 0 11.037-2.557 14.631-7.014 3.633-4.504 5.011-10.339 3.782-16.007zm-261.873-186.573 10.074-50.46h59.242l10.104 50.461c-11.887 6.779-25.394 10.62-39.708 10.62-14.316 0-27.824-3.841-39.712-10.621zm162.049-122.038c13.354 0 24.219 11.12 24.219 24.789s-10.865 24.789-24.219 24.789h-14.755c.313-3.588.48-7.221.48-10.895v-38.654zm-206.907-124.269c6.476-13.727 19.942-24.705 40.067-32.685 28.892 20.779 64.822 28.065 99.578 20.003l15.376-3.19c.088-.019.176-.037.264-.058 5.013-1.174 8.696.982 10.444 2.37 3.116 2.474 4.903 6.214 4.903 10.265l.001 36.279c-49.028 36.868-77.593 19.221-79.628 17.87-3.418-2.623-7.799-2.812-11.606-.781-29.701 15.829-71.387-10.713-82.404-18.402-1.332-5.528-3.263-18.385 3.005-31.671zm-35.196 173.847c-13.354 0-24.219-11.12-24.219-24.789 0-13.9 11.246-24.789 25.601-24.789h10.319v38.684c0 3.674.167 7.307.48 10.895h-12.181zm33.701-10.894v-50.074-54.253c20.444 11.608 55.09 26.062 85.671 13.484 5.852 2.741 15.741 6.1 29.066 6.1 15.039-.001 34.459-4.289 57.389-18.557l.001 53.227v50.074c0 26.843-10.363 51.092-26.947 68.233l-9.71-48.497c-1.029-5.141-5.543-8.841-10.786-8.841h-77.279c-5.245 0-9.76 3.703-10.787 8.847l-9.679 48.483c-16.579-17.143-26.939-41.387-26.939-68.226zm-113.882 270.948 12.141-50.993c3.234-13.582 13.369-24.321 26.513-28.143l83.634-14.339c.359-.061.715-.141 1.067-.238 18.942-5.227 34.179-19.536 40.757-38.277.104-.294.194-.592.272-.894l6.784-26.271c9.167 2.721 18.817 4.183 28.78 4.183 10.539 0 20.727-1.634 30.364-4.667l8.885 27.551c6 18.607 20.585 33.224 39.014 39.102.387.123.78.225 1.178.305l84.978 17.053c12.693 4.263 22.333 15.119 25.226 28.463l10.225 47.165z"/></g></svg>