<svg id="Capa_1" enable-background="new 0 0 512 512" height="512" viewBox="0 0 512 512" width="512" xmlns="http://www.w3.org/2000/svg" fill="#E6ECF2"><g id="Video_camera"><path d="m506.033 266.982c-3.663-1.886-8.073-1.564-11.427.83l-98.878 70.627v-103.201c0-6.075-4.925-11-11-11h-373.728c-6.075 0-11 4.925-11 11v249.152c0 6.075 4.925 11 11 11h373.729c6.075 0 11-4.925 11-11v-103.201l98.878 70.627c1.901 1.358 4.142 2.049 6.395 2.049 1.72 0 3.446-.403 5.032-1.219 3.664-1.886 5.967-5.661 5.967-9.781v-166.102c-.001-4.12-2.304-7.895-5.968-9.781zm-132.304 206.408h-351.729v-227.152h351.729zm116.271-51.9-86.346-61.676 86.346-61.676z"/><path d="m301.678 204.712c-51.86 0-94.051-42.191-94.051-94.051s42.191-94.052 94.051-94.052 94.051 42.191 94.051 94.052c0 51.86-42.191 94.051-94.051 94.051zm0-166.102c-39.729 0-72.051 32.322-72.051 72.052 0 39.729 32.322 72.051 72.051 72.051s72.051-32.322 72.051-72.051c0-39.73-32.322-72.052-72.051-72.052z" fill="#0496FF"/><path d="m94.051 204.712c-51.86 0-94.051-42.191-94.051-94.05 0-51.861 42.191-94.052 94.051-94.052s94.051 42.191 94.051 94.052c0 51.859-42.191 94.05-94.051 94.05zm0-166.102c-39.729 0-72.051 32.322-72.051 72.052 0 39.729 32.322 72.051 72.051 72.051s72.051-32.322 72.051-72.051c0-39.73-32.322-72.052-72.051-72.052z" fill="#0496FF"/><path d="m301.704 121.698c-6.075 0-11-4.925-11-11s4.925-11.019 11-11.019 11 4.907 11 10.982v.036c0 6.076-4.925 11.001-11 11.001z"/><path d="m94.077 121.698c-6.075 0-11-4.925-11-11s4.925-11.019 11-11.019 11 4.907 11 10.982v.036c0 6.076-4.925 11.001-11 11.001z"/></g></svg>