<svg id="Capa_1" enable-background="new 0 0 512 512" height="512" viewBox="0 0 512 512" width="512" xmlns="http://www.w3.org/2000/svg" fill="#052438"><g id="Sound"><path d="m297.99 1.016c-3.892-1.799-8.474-1.174-11.741 1.602l-163.02 138.568h-70.704c-28.962.001-52.525 23.563-52.525 52.526v124.576c0 28.963 23.563 52.525 52.525 52.525h70.703l163.02 138.568c2.028 1.724 4.563 2.618 7.126 2.618 1.565 0 3.14-.334 4.615-1.016 3.892-1.8 6.383-5.696 6.383-9.984v-489.999c.001-4.288-2.491-8.185-6.382-9.984zm-181.719 347.798h-63.746c-16.831 0-30.525-13.694-30.525-30.526v-124.576c0-16.832 13.694-30.525 30.525-30.525h63.746zm166.102 128.399-144.102-122.485v-197.456l144.102-122.485z"/><g fill="#0496FF"><path d="m376.424 391.576c-6.075 0-11-4.925-11-11s4.925-11 11-11c62.626 0 113.576-50.95 113.576-113.576s-50.95-113.576-113.576-113.576c-6.075 0-11-4.925-11-11s4.925-11 11-11c74.757 0 135.576 60.819 135.576 135.576s-60.819 135.576-135.576 135.576z"/><path d="m376.424 308.525c-6.075 0-11-4.925-11-11s4.925-11 11-11c16.832 0 30.525-13.693 30.525-30.525s-13.694-30.525-30.525-30.525c-6.075 0-11-4.925-11-11s4.925-11 11-11c28.962 0 52.525 23.562 52.525 52.525s-23.563 52.525-52.525 52.525z"/></g></g></svg>