<svg id="Capa_1" enable-background="new 0 0 512 512" height="512" viewBox="0 0 512 512" width="512" xmlns="http://www.w3.org/2000/svg" fill="#E6ECF2"><g id="Image_6_"><path d="m18.89 450.529-15.78-15.329 141.186-145.34c2.052-2.112 4.866-3.314 7.811-3.335 2.979-.031 5.775 1.139 7.858 3.221l54.51 54.51 158.324-158.324c2.063-2.063 4.862-3.222 7.778-3.222h.093c2.95.025 5.766 1.233 7.816 3.355l120.423 124.576-15.818 15.29-112.647-116.53-158.191 158.19c-4.296 4.296-11.261 4.296-15.557 0l-54.396-54.396z" fill="#0496FF"/><path d="m501 453.864h-490c-6.075 0-11-4.925-11-11v-373.729c0-6.075 4.925-11 11-11h490c6.075 0 11 4.925 11 11v373.729c0 6.075-4.925 11-11 11zm-479-22h468v-351.729h-468z"/><path d="m214.475 246.237c-28.962 0-52.525-23.563-52.525-52.525s23.563-52.525 52.525-52.525 52.525 23.562 52.525 52.524-23.563 52.526-52.525 52.526zm0-83.051c-16.831 0-30.525 13.694-30.525 30.525s13.694 30.525 30.525 30.525c16.832 0 30.525-13.694 30.525-30.525s-13.694-30.525-30.525-30.525z"/></g></svg>