<svg id="Capa_1" enable-background="new 0 0 512 512" height="512" viewBox="0 0 512 512" width="512" xmlns="http://www.w3.org/2000/svg" fill="#E6ECF2"><g id="Microphone_1_"><path d="m256 0c-51.86 0-94.051 42.191-94.051 94.051v161.949c0 51.86 42.191 94.051 94.051 94.051s94.051-42.191 94.051-94.051v-161.949c0-51.86-42.191-94.051-94.051-94.051zm0 328.051c-39.729 0-72.051-32.322-72.051-72.051v-109.424h30.525c6.075 0 11-4.925 11-11s-4.925-11-11-11h-30.525v-30.525c0-39.729 32.322-72.051 72.051-72.051s72.051 32.322 72.051 72.051v30.525h-30.525c-6.075 0-11 4.925-11 11s4.925 11 11 11h30.525v109.424c0 39.729-32.322 72.051-72.051 72.051z" fill="#0496FF"/><path d="m422.102 203.475h-332.204c-6.075 0-11 4.925-11 11v41.525c0 93.959 73.552 171.049 166.102 176.75v57.25h-72.051c-6.075 0-11 4.925-11 11s4.925 11 11 11h166.102c6.075 0 11-4.925 11-11s-4.925-11-11-11h-72.051v-57.25c92.549-5.701 166.102-82.791 166.102-176.75v-41.526c0-6.075-4.925-10.999-11-10.999zm-11 52.525c0 85.523-69.578 155.101-155.102 155.101s-155.102-69.578-155.102-155.101v-30.526h310.203v30.526z"/></g></svg>