<svg id="Capa_1" enable-background="new 0 0 512 512" viewBox="0 0 512 512" xmlns="http://www.w3.org/2000/svg" fill="#E6ECF2"><g><path d="m471 12.525h-326.669c-22.607 0-41 18.393-41 41v174.66c-4.573 2.495-8.819 5.654-12.605 9.44l-47.668 47.667c-1.509 1.509-2.546 3.423-2.985 5.511l-15.933 75.638-20.918 20.918c-4.296 4.296-4.296 11.261 0 15.557l93.338 93.338c2.148 2.148 4.963 3.222 7.778 3.222 2.814 0 5.631-1.074 7.778-3.222l20.106-20.106 59.202-1.295c2.834-.062 5.534-1.215 7.538-3.219l85.516-85.516c6.232-6.233 9.665-14.52 9.665-23.335 0-8.814-3.433-17.102-9.665-23.334-4.213-4.212-9.364-7.146-14.981-8.605 1.986-10.389-1.033-21.554-9.06-29.579-.059-.059-.122-.111-.181-.169h210.744c22.607 0 41-18.393 41-41v-206.571c0-22.607-18.392-41-41-41zm-345.669 41c0-10.477 8.523-19 19-19h3.001v189.895c-5.63-1.909-11.596-2.904-17.716-2.904-1.439 0-2.866.071-4.285.18zm135.813 298.257c2.938 0 5.701 1.144 7.778 3.222 2.078 2.078 3.222 4.84 3.222 7.778s-1.144 5.701-3.222 7.778l-82.393 82.393-59.202 1.295c-2.834.062-5.534 1.215-7.538 3.219l-15.451 15.451-77.781-77.782 15.451-15.451c1.509-1.509 2.546-3.423 2.985-5.511l15.933-75.638 45.356-45.356c6.232-6.232 14.52-9.665 23.334-9.665 5.009 0 9.848 1.108 14.235 3.209l-41.351 41.354c-4.296 4.296-4.296 11.26 0 15.556 4.297 4.296 11.26 4.296 15.557 0l124.683-124.68c2.077-2.078 4.84-3.222 7.777-3.222 2.938 0 5.7 1.145 7.778 3.222s3.222 4.84 3.222 7.778-1.144 5.701-3.222 7.778l-89.836 89.836c-4.296 4.296-4.296 11.261 0 15.557 4.296 4.295 11.261 4.295 15.557 0l21.27-21.269c4.291-4.29 11.269-4.288 15.556 0 2.078 2.078 3.223 4.84 3.223 7.778s-1.145 5.7-3.223 7.778l-21.269 21.27c-4.296 4.296-4.296 11.26 0 15.556 4.297 4.296 11.262 4.295 15.557 0l14.196-14.196c4.289-4.29 11.268-4.289 15.557 0s4.289 11.268 0 15.556l-14.197 14.197c-2.147 2.148-3.222 4.963-3.222 7.778s1.074 5.63 3.222 7.778c4.297 4.296 11.26 4.296 15.557 0l7.142-7.142c2.073-2.067 4.828-3.205 7.759-3.205zm228.856-91.688c0 10.477-8.523 19-19 19h-225.756c-1.357-6.019-4.377-11.547-8.846-16.016-2.727-2.727-5.813-4.875-9.111-6.445l46.565-46.565c6.232-6.233 9.665-14.521 9.665-23.335 0-8.815-3.433-17.102-9.665-23.334-6.233-6.232-14.521-9.666-23.335-9.666s-17.102 3.433-23.334 9.666l-57.851 57.85v-186.724h301.668c10.477 0 19 8.523 19 19z"/><g fill="#0496FF"><path d="m250.517 109.732c-6.075 0-11 4.925-11 11s4.925 11 11 11c30.327 0 55 24.673 55 55 0 6.075 4.925 11 11 11s11-4.925 11-11c0-42.458-34.542-77-77-77z"/><path d="m457 85.064c-6.075 0-11 4.925-11 11v17.444l-10.419-10.418c-15.623-15.623-36.395-24.228-58.488-24.228-22.095 0-42.866 8.604-58.489 24.227-4.296 4.296-4.296 11.261 0 15.557 4.297 4.296 11.26 4.296 15.557 0 11.468-11.468 26.715-17.784 42.933-17.784s31.465 6.316 42.932 17.784l10.419 10.418h-17.445c-6.075 0-11 4.925-11 11s4.925 11 11 11h44c6.075 0 11-4.925 11-11v-44c0-6.075-4.925-11-11-11z"/></g></g><g/><g/><g/><g/><g/><g/><g/><g/><g/><g/><g/><g/><g/><g/><g/></svg>