<svg id="Capa_1" enable-background="new 0 0 512 512" viewBox="0 0 512 512" xmlns="http://www.w3.org/2000/svg" fill="#052438"><g><g><path d="m399.463 68.537c-44.197-44.197-102.959-68.537-165.463-68.537s-121.266 24.34-165.463 68.537c-44.196 44.197-68.537 102.959-68.537 165.463s24.341 121.266 68.537 165.463c44.197 44.197 102.959 68.537 165.463 68.537 31.128 0 61.38-6.027 89.916-17.915l-8.461-20.309c-25.84 10.766-53.246 16.224-81.455 16.224-52.688 0-100.942-19.326-138.062-51.253v-15.413c0-29.105 21.84-53.226 50.803-56.106l33.235-3.305 46.38 48.469c2.075 2.168 4.946 3.395 7.947 3.395s5.872-1.227 7.947-3.395l46.38-48.469 33.235 3.305c11.149 1.109 21.61 5.46 30.251 12.584l13.994-16.975c-12.017-9.908-26.563-15.959-42.067-17.501l-38.567-3.835c-6.756-.672-11.85-6.298-11.85-13.086v-3.645c24.979-13.952 41.917-40.645 41.917-71.232v-50.025c0-44.966-36.58-81.549-81.543-81.549s-81.543 36.58-81.543 81.543v50.032c0 30.836 17.208 57.726 42.522 71.581v3.297c0 6.789-5.094 12.415-11.85 13.086l-38.567 3.835c-38.191 3.798-67.455 34.169-70.367 71.817-32.489-37.265-52.195-85.951-52.195-139.155 0-116.897 95.103-212 212-212s212 95.103 212 212c0 28.209-5.458 55.615-16.224 81.456l20.309 8.46c11.888-28.536 17.915-58.788 17.915-89.916 0-62.504-24.341-121.266-68.537-165.463zm-165.16 276.339-31.106-32.507c7.23-5.517 12.188-13.761 13.458-23.165 5.594 1.217 11.393 1.875 17.346 1.875 6.163 0 12.16-.71 17.935-2.012 1.24 9.459 6.209 17.758 13.474 23.301zm-.303-244.914c31.684 0 57.66 24.881 59.438 56.131h-118.876c1.774-31.249 27.751-56.131 59.438-56.131zm-59.543 109.575v-31.443h119.086v31.443c0 32.832-26.711 59.543-59.543 59.543s-59.543-26.711-59.543-59.543z"/><path d="m437.89 376.998c-4.297-4.296-11.26-4.296-15.557 0l-14.889 14.889-14.889-14.889c-4.297-4.296-11.26-4.296-15.557 0-4.296 4.296-4.296 11.261 0 15.557l14.889 14.889-14.889 14.889c-4.296 4.296-4.296 11.261 0 15.557 2.148 2.148 4.963 3.222 7.778 3.222s5.63-1.074 7.778-3.222l14.89-14.89 14.889 14.889c2.148 2.148 4.963 3.222 7.778 3.222s5.63-1.074 7.778-3.222c4.296-4.296 4.296-11.261 0-15.557l-14.889-14.888 14.889-14.889c4.297-4.296 4.297-11.261.001-15.557z"/></g><g fill="#0496FF"><path d="m239.945 214.339c-1.46 1.46-3.401 2.264-5.466 2.264s-4.007-.804-5.467-2.264c-4.297-4.296-11.26-4.296-15.557 0-4.296 4.295-4.296 11.26 0 15.556 5.615 5.616 13.081 8.708 21.023 8.708 7.941 0 15.407-3.093 21.022-8.708 4.296-4.296 4.296-11.261 0-15.556-4.295-4.296-11.26-4.296-15.555 0z"/><path d="m407.443 302.888c-57.652 0-104.556 46.904-104.556 104.556s46.904 104.556 104.556 104.556 104.557-46.904 104.557-104.556-46.904-104.556-104.557-104.556zm0 187.112c-45.521 0-82.556-37.035-82.556-82.556s37.034-82.556 82.556-82.556 82.557 37.034 82.557 82.556-37.035 82.556-82.557 82.556z"/></g></g><g/><g/><g/><g/><g/><g/><g/><g/><g/><g/><g/><g/><g/><g/><g/></svg>