<svg id="Capa_1" enable-background="new 0 0 512 512" viewBox="0 0 512 512" xmlns="http://www.w3.org/2000/svg" fill="#052438"><g><g><path d="m481 55.187h-450c-17.093 0-31 13.907-31 31v279.627c0 17.093 13.907 31 31 31h171.336l-8.435 38h-74.167c-6.075 0-11 4.925-11 11s4.925 11 11 11h272.531c6.075 0 11-4.925 11-11s-4.925-11-11-11h-74.167l-8.435-38h171.337c17.093 0 31-13.907 31-31v-279.627c0-17.094-13.907-31-31-31zm-450 22h450c4.962 0 9 4.038 9 9v234.627h-468v-234.627c0-4.963 4.038-9 9-9zm264.562 357.626h-79.125l8.435-38h62.256zm185.438-60h-450c-4.962 0-9-4.038-9-9v-23h468v23c0 4.963-4.038 9-9 9z"/><path d="m435 299c18.196 0 33-14.804 33-33s-14.804-33-33-33-33 14.804-33 33 14.804 33 33 33zm0-44c6.065 0 11 4.935 11 11s-4.935 11-11 11-11-4.935-11-11 4.935-11 11-11z"/><path d="m256 232.093c18.196 0 33-14.804 33-33s-14.804-33-33-33-33 14.804-33 33 14.804 33 33 33zm0-44c6.065 0 11 4.935 11 11s-4.935 11-11 11-11-4.935-11-11 4.935-11 11-11z"/><path d="m77 165.187c18.196 0 33-14.804 33-33s-14.804-33-33-33-33 14.804-33 33 14.804 33 33 33zm0-44c6.065 0 11 4.935 11 11s-4.935 11-11 11-11-4.935-11-11 4.935-11 11-11z"/></g><g fill="#0496FF"><path d="m401.547 121.187h-258.547c-6.075 0-11 4.925-11 11s4.925 11 11 11h258.547c12.381 0 22.453 10.073 22.453 22.454s-10.072 22.453-22.453 22.453h-79.547c-6.075 0-11 4.925-11 11s4.925 11 11 11h79.547c24.512 0 44.453-19.942 44.453-44.454s-19.941-44.453-44.453-44.453z"/><path d="m351.721 233.165c-4.296-4.296-11.261-4.296-15.557 0-4.295 4.296-4.295 11.261 0 15.557l6.279 6.279h-231.99c-12.381-.001-22.453-10.074-22.453-22.455s10.072-22.453 22.453-22.453h79.547c6.075 0 11-4.925 11-11s-4.925-11-11-11h-79.547c-24.512 0-44.453 19.942-44.453 44.454s19.941 44.453 44.453 44.453h231.99l-6.279 6.279c-4.295 4.296-4.295 11.261 0 15.557 2.148 2.148 4.963 3.222 7.778 3.222s5.63-1.074 7.778-3.222l25.057-25.057c4.295-4.296 4.295-11.261 0-15.557z"/></g></g><g/><g/><g/><g/><g/><g/><g/><g/><g/><g/><g/><g/><g/><g/><g/></svg>