<svg id="Capa_1" enable-background="new 0 0 512 512" height="512" viewBox="0 0 512 512" width="512" xmlns="http://www.w3.org/2000/svg" fill="#052438"><g><g><path d="m199.302 512c-55.977 0-112.454-77.033-114.831-80.312l17.81-12.915c14.389 19.811 59.867 71.227 97.021 71.227z" fill="#0496FF"/></g><g><path d="m312.18 511.996v-22c37.153 0 82.632-51.416 97.021-71.227l17.81 12.915c-2.376 3.279-58.854 80.312-114.831 80.312z" fill="#0496FF"/></g><path d="m446.338 488.591-13.021-54.753c-5.132-21.576-21.436-38.603-42.552-44.436l-26.655-7.364c.279-1.331.562-2.668.847-4.015 3.244-15.304 6.598-31.129 6.053-46.629-.824-23.47-13.84-44.958-21.061-55.149 9.042-16.964 14.217-36.599 14.217-57.508v-50.129c0-.423-.01-.845-.014-1.267h5.291c6.075 0 11-4.925 11-11s-4.925-11-11-11h-7.44c-3.568-18.936-11.486-36.566-23.216-51.493l2.212-2.25c4.259-4.332 4.199-11.297-.133-15.556-4.332-4.258-11.296-4.199-15.556.133l-1.717 1.746c-2.104-1.815-4.262-3.538-6.47-5.167v-10.763c0-34.182-27.42-61.991-61.124-61.991s-61.124 27.809-61.124 61.991v11.015c-2.46 1.824-4.848 3.752-7.156 5.783l-2.571-2.616c-4.259-4.332-11.223-4.392-15.556-.134-4.333 4.259-4.393 11.224-.134 15.556l3.232 3.288c-11.19 14.585-19.13 32.144-22.637 51.387h-6.057c-6.075 0-11 4.925-11 11s4.925 11 11 11h4.045c0 .112-.004.224-.004.336v50.129c0 19.165 4.349 37.258 12.037 53.206-7.53 10.464-21.795 33.314-22.634 57.218-.544 15.5 2.81 31.325 6.053 46.629.599 2.828 1.19 5.622 1.748 8.372l-28.071 8.962c-20.436 6.524-35.985 23.759-40.581 44.979l-11.017 50.865c-1.229 5.673.151 11.511 3.786 16.017 3.595 4.456 8.926 7.012 14.627 7.012h344.025c5.776 0 11.151-2.61 14.747-7.162 3.636-4.602 4.941-10.522 3.581-16.242zm-97.314-156.426c.45 12.806-2.62 27.289-5.589 41.296-.192.905-.383 1.807-.573 2.707l-4.415-1.22c-9.882-2.73-18.174-9.405-23.137-18.356-.263-14.74-3.464-28.28-6.016-36.833 10.278-6.27 19.509-14.298 27.339-23.7 5.533 9.148 11.914 22.52 12.391 36.106zm-93.025-310.165c21.003 0 38.187 17.007 39.08 38.255-12.262-5.083-25.424-7.74-38.976-7.74-.016 0-.033 0-.049 0-13.798.007-26.999 2.811-39.141 7.906.813-21.325 18.029-38.421 39.086-38.421zm-82.198 124.271h-1.304c2.936-13.13 8.395-25.19 15.788-35.524l2.248 2.287c2.154 2.191 4.998 3.289 7.845 3.289 2.783 0 5.569-1.05 7.71-3.155 4.333-4.259 4.393-11.224.134-15.556l-3.072-3.125c14.604-12.499 32.978-19.963 52.915-19.972h.038c19.018 0 37.112 6.742 52.01 19.151l-3.878 3.945c-4.259 4.332-4.199 11.297.133 15.556 2.143 2.105 4.927 3.155 7.711 3.155 2.846 0 5.692-1.099 7.845-3.289l3.271-3.327c7.781 10.547 13.324 22.651 16.332 35.633h-3.316c-6.075 0-11 4.925-11 11s4.925 11 11 11h5.927c.005.423.028.843.028 1.267v50.129c0 51.882-38.608 94.092-86.063 94.092-13.058 0-25.443-3.201-36.541-8.915-.861-.719-1.844-1.321-2.941-1.763-.25-.101-.503-.18-.756-.261-27.234-15.816-45.825-47.153-45.825-83.153v-50.129c0-.112.003-.224.004-.336h3.758c6.075 0 11-4.925 11-11s-4.926-10.999-11.001-10.999zm-8.784 224.956c-2.969-14.007-6.038-28.49-5.589-41.296.481-13.685 7.387-27.711 13.339-37.366 7.483 9.731 16.415 18.128 26.432 24.821-2.729 9.114-6.226 23.986-6.068 39.95-4.674 8.811-12.575 15.551-22.083 18.587l-4.727 1.509c-.425-2.054-.862-4.121-1.304-6.205zm-77.155 118.769 10.231-47.237c2.935-13.552 12.809-24.54 25.77-28.678l24.643-7.867c.147 2.706.15 5.297-.05 7.739-.496 6.055 4.01 11.365 10.065 11.861.306.025.609.037.91.037 5.668 0 10.48-4.353 10.951-10.103.436-5.317.235-10.789-.362-16.404l7.719-2.464c7.534-2.405 14.409-6.292 20.334-11.297.29.761.59 1.519.91 2.271 11.49 26.974 8.259 50.734 8.23 50.93-.908 6.007 3.225 11.613 9.232 12.521.558.084 1.111.125 1.659.125 5.348 0 10.038-3.907 10.863-9.357.182-1.205 4.3-29.875-9.743-62.842-2.335-5.483-3.52-11.451-3.948-17.455.533-1.325 1.034-2.666 1.476-4.036l8.896-27.616c9.664 3.055 19.883 4.702 30.456 4.702 9.114 0 17.966-1.224 26.427-3.517l9.303 26.528c.449 1.28.946 2.535 1.474 3.772-.262 6.806-1.432 13.642-4.078 19.856-14.043 32.966-9.925 61.637-9.743 62.842.824 5.445 5.506 9.336 10.853 9.336.535 0 1.078-.039 1.624-.12 5.994-.883 10.142-6.468 9.282-12.465-.034-.237-3.265-23.998 8.225-50.971.677-1.59 1.286-3.201 1.831-4.826 6.228 4.966 13.432 8.721 21.289 10.891l6.29 1.738c-.925 6.912-1.339 13.616-.809 20.09.471 5.75 5.283 10.103 10.951 10.103.301 0 .605-.012.91-.037 6.055-.496 10.562-5.807 10.065-11.861-.312-3.803-.144-7.959.329-12.369l24.581 6.791c13.383 3.697 23.731 14.549 27.007 28.321l12.145 51.067h-336.198z"/></g></svg>