<svg id="Capa_1" enable-background="new 0 0 512 512" height="512" viewBox="0 0 512 512" width="512" xmlns="http://www.w3.org/2000/svg" fill="#E6ECF2"><g id="Upload"><path d="m297.525 345.898h-83.051c-6.075 0-11-4.925-11-11v-188.322h-51.288c-4.268 0-8.151-2.469-9.962-6.334-1.81-3.865-1.221-8.429 1.512-11.708l103.814-124.576c2.09-2.508 5.185-3.958 8.45-3.958s6.36 1.45 8.45 3.958l103.815 124.576c2.732 3.279 3.321 7.843 1.512 11.708-1.811 3.865-5.693 6.334-9.962 6.334h-51.289v188.322c-.001 6.076-4.925 11-11.001 11zm-72.05-22h61.051v-188.322c0-6.075 4.925-11 11-11h38.804l-80.33-96.393-80.328 96.394h38.803c6.075 0 11 4.925 11 11z" fill="#0496FF"/><path d="m459.475 512h-406.95c-28.963 0-52.525-23.562-52.525-52.525v-124.577c0-6.075 4.925-11 11-11h83.052c6.075 0 11 4.925 11 11v72.051h301.897v-72.051c0-6.075 4.925-11 11-11h83.051c6.075 0 11 4.925 11 11v124.576c0 28.964-23.562 52.526-52.525 52.526zm-437.475-166.102v113.576c0 16.833 13.693 30.526 30.525 30.526h406.949c16.833 0 30.526-13.693 30.526-30.525v-113.577h-61.051v72.051c0 6.075-4.925 11-11 11h-323.897c-6.075 0-11-4.925-11-11v-72.051z"/></g></svg>