<svg id="Capa_1" enable-background="new 0 0 512 512" height="512" viewBox="0 0 512 512" width="512" xmlns="http://www.w3.org/2000/svg" fill="#052438"><g><path d="m327.034 370.538c-2.704-5.439-9.309-7.656-14.747-4.952l-60.923 30.29-55.415-28.587c-5.397-2.789-12.033-.667-14.819 4.732-2.785 5.398-.667 12.033 4.733 14.818l54.409 28.068v32.338c0 6.075 4.925 11 11 11s11-4.925 11-11v-32.225l59.809-29.736c5.441-2.703 7.658-9.306 4.953-14.746z" fill="#0496FF"/><g><path d="m358.473 512c-6.075 0-11-4.925-11-11v-109.305c0-6.075 4.925-11 11-11s11 4.925 11 11v109.305c0 6.075-4.925 11-11 11z" fill="#0496FF"/></g><g><path d="m151.577 512c-6.075 0-11-4.925-11-11v-107.509c0-6.075 4.925-11 11-11s11 4.925 11 11v107.509c0 6.075-4.925 11-11 11z" fill="#0496FF"/></g><path d="m446.339 488.581-13.022-54.853c-5.129-21.61-21.433-38.664-42.548-44.508l-52.318-14.48c-11.995-3.319-21.661-12.457-25.856-24.442l-9.569-27.339c12.504-6.513 23.673-15.544 32.934-26.477h74.453c6.075 0 11-4.925 11-11v-117.21c0-92.786-74.158-168.272-165.31-168.272s-165.31 75.486-165.31 168.271v117.21c0 6.075 4.925 11 11 11h74.453c8.319 9.821 18.179 18.101 29.161 24.406l-9.597 29.847c-3.83 11.908-13.087 21.247-24.766 24.981l-53.877 17.232c-20.434 6.536-35.981 23.798-40.576 45.051l-11.017 50.959c-1.228 5.68.155 11.523 3.794 16.033 3.594 4.454 8.923 7.009 14.62 7.009h344.021c5.772 0 11.144-2.609 14.74-7.157 3.641-4.606 4.949-10.532 3.59-16.261zm-333.546-214.1v-106.21c0-80.654 64.288-146.271 143.31-146.271s143.311 65.617 143.311 146.271v106.21h-48.766c8.608-16.683 13.519-35.866 13.519-56.263v-78.931c0-6.075-4.925-11-11-11h-194.128c-6.075 0-11 4.925-11 11v78.931c0 20.397 4.911 39.58 13.519 56.263zm57.246-56.262v-67.931h172.127v67.931c0 51.989-38.608 94.286-86.063 94.286-47.456 0-86.064-42.297-86.064-94.286zm-82.182 271.781 10.237-47.353c2.937-13.585 12.813-24.599 25.775-28.744l53.876-17.232c18.428-5.894 33.01-20.549 39.008-39.202l8.898-27.672c9.663 3.059 19.881 4.708 30.452 4.708 9.113 0 17.964-1.226 26.424-3.522l9.304 26.583c6.577 18.789 21.811 33.136 40.753 38.378l52.318 14.48c13.384 3.704 23.734 14.58 27.011 28.386l12.151 51.19z"/></g></svg>