<svg id="Capa_1" enable-background="new 0 0 512 512" height="512" viewBox="0 0 512 512" width="512" xmlns="http://www.w3.org/2000/svg" fill="#E6ECF2"><g id="Trash_Bin"><path d="m463.627 83.051h-113.576v-30.526c0-28.963-23.563-52.525-52.525-52.525h-83.051c-28.962 0-52.525 23.562-52.525 52.525v30.525h-113.577c-6.075 0-11 4.925-11 11v83.051c0 6.075 4.925 11 11 11h30.525v271.373c0 28.963 23.563 52.525 52.526 52.525h249.152c28.962 0 52.525-23.562 52.525-52.525v-271.372h30.525c6.075 0 11-4.925 11-11v-83.051c.001-6.075-4.924-11-10.999-11zm-279.678-30.526c0-16.832 13.694-30.525 30.525-30.525h83.051c16.832 0 30.525 13.693 30.525 30.525v30.525h-144.101zm227.153 406.95c0 16.832-13.694 30.525-30.525 30.525h-249.153c-16.832 0-30.526-13.693-30.526-30.525v-271.373h310.204zm41.525-293.373h-393.254v-61.051h393.254z"/><path d="m172.949 428.949c-6.075 0-11-4.925-11-11v-157.797c0-6.075 4.925-11 11-11s11 4.925 11 11v157.797c0 6.076-4.924 11-11 11z" fill="#0496FF"/><path d="m256 428.949c-6.075 0-11-4.925-11-11v-157.797c0-6.075 4.925-11 11-11s11 4.925 11 11v157.797c0 6.076-4.925 11-11 11z"/><path d="m339.051 428.949c-6.075 0-11-4.925-11-11v-157.797c0-6.075 4.925-11 11-11s11 4.925 11 11v157.797c0 6.076-4.925 11-11 11z" fill="#0496FF"/></g></svg>