<svg id="Capa_1" enable-background="new 0 0 512 512" height="512" viewBox="0 0 512 512" width="512" xmlns="http://www.w3.org/2000/svg" fill="#052438"><g id="View_6_"><path d="m256 391.576c-74.757 0-135.576-60.819-135.576-135.576s60.819-135.576 135.576-135.576 135.576 60.819 135.576 135.576-60.819 135.576-135.576 135.576zm0-249.152c-62.626 0-113.576 50.95-113.576 113.576s50.95 113.576 113.576 113.576 113.576-50.95 113.576-113.576-50.95-113.576-113.576-113.576z" fill="#0496FF"/><path d="m256 308.525c-28.962 0-52.525-23.563-52.525-52.525s23.563-52.525 52.525-52.525 52.525 23.563 52.525 52.525-23.562 52.525-52.525 52.525zm0-83.05c-16.832 0-30.525 13.694-30.525 30.525 0 16.832 13.694 30.525 30.525 30.525s30.525-13.694 30.525-30.525c.001-16.831-13.693-30.525-30.525-30.525z"/><path d="m256 391.576c-58.55 0-120.949-22.237-180.452-64.306-44.637-31.56-71.747-62.774-72.88-64.087-3.558-4.128-3.558-10.238 0-14.365 1.132-1.313 28.243-32.528 72.88-64.087 59.503-42.07 121.902-64.307 180.452-64.307s120.949 22.237 180.452 64.306c44.637 31.56 71.747 62.775 72.88 64.087 3.558 4.128 3.558 10.238 0 14.365-1.132 1.313-28.243 32.528-72.88 64.087-59.503 42.07-121.902 64.307-180.452 64.307zm-230.012-135.576c10.416 10.833 32.541 32.352 62.721 53.63 38.787 27.347 99.295 59.946 167.292 59.946s128.504-32.599 167.291-59.946c30.18-21.279 52.303-42.796 62.721-53.63-10.417-10.835-32.54-32.352-62.721-53.63-38.787-27.347-99.295-59.946-167.291-59.946s-128.505 32.599-167.292 59.946c-30.181 21.279-52.304 42.796-62.721 53.63z"/></g></svg>