<svg id="Capa_1" enable-background="new 0 0 512 512" height="512" viewBox="0 0 512 512" width="512" xmlns="http://www.w3.org/2000/svg" fill="#052438"><g><g><path d="m382.684 501h-22c0-30.929 11.725-58.513 33.906-79.771 16.609-15.917 33.337-22.718 34.041-23l8.207 20.412c-.139.057-14.04 5.817-27.598 19.023-17.621 17.165-26.556 38.475-26.556 63.336z" fill="#0496FF"/></g><g><path d="m148.175 501h-22c0-24.861-8.935-46.171-26.557-63.335-13.558-13.206-27.459-18.967-27.598-19.023l8.207-20.412c.704.282 17.432 7.083 34.042 23 22.181 21.257 33.906 48.841 33.906 79.77z" fill="#0496FF"/></g><g><g><path d="m257.192 403.338c-23.543 0-47.077-5.572-68.465-16.703l10.156-19.516c35.903 18.686 78.917 18.979 115.062.785l1.699-.855 9.884 19.654-1.695.852c-20.909 10.527-43.778 15.783-66.641 15.783z" fill="#0496FF"/></g><path d="m478.239 488.977-11.017-50.829c-4.597-21.209-20.147-38.434-40.582-44.953-.387-.124-.78-.226-1.178-.306l-84.978-17.061c-11.422-3.837-20.452-13.042-24.219-24.728l-9.57-29.686c25.348-14.49 44.714-39.501 53.012-69.573h14.708c25.485 0 46.219-20.996 46.219-46.804s-20.734-46.804-46.247-46.804l-10.248.025-.004-74.281c0-18.316-5.577-32.794-17.049-44.26-9.022-9.017-21.502-16.049-40.465-22.8l-45.736-16.28c-2.453-.873-5.137-.848-7.573.072l-49.297 18.606c-29.086 10.978-56.001 26.633-56.001 66.505v72.414h-9.319c-26.692 0-47.601 20.559-47.601 46.804 0 11.913 4.425 22.794 11.688 31.064l-8.503 16.372c-2.8 5.392-.7 12.032 4.692 14.832 1.62.842 3.353 1.24 5.061 1.24 3.975 0 7.812-2.161 9.771-5.932l7.17-13.804c5.084 1.953 10.589 3.031 16.341 3.031h15.136c8.444 30.599 28.345 55.964 54.35 70.331l-7.461 28.903c-4.209 11.581-13.582 20.435-25.211 23.817l-83.638 14.346c-.36.061-.716.142-1.068.238-21.116 5.83-37.421 22.847-42.553 44.409l-13.021 54.716c-1.36 5.718-.056 11.636 3.579 16.236 3.596 4.553 8.972 7.163 14.749 7.163h407.65c5.703 0 11.036-2.557 14.63-7.014 3.634-4.505 5.012-10.34 3.783-16.009zm-103.824-308.743c13.355 0 24.219 11.127 24.219 24.804s-10.865 24.804-24.219 24.804h-10.755c.313-3.591.481-7.227.481-10.904v-38.678zm-162.632-140.337 45.523-17.182 41.938 14.93c31.667 11.273 42.892 23.398 42.892 46.334l.001 18.909c-20.445-11.612-55.088-26.068-85.668-13.487-12.456-5.837-43.208-14.462-86.456 12.46v-16.041c0-22.547 10.54-34.135 41.77-45.923zm-74.471 189.945c-4.898 0-9.458-1.501-13.273-4.072-.608-.584-1.297-1.099-2.052-1.542-5.425-4.552-8.894-11.463-8.894-19.19 0-13.908 11.246-24.804 25.601-24.804h9.319v38.703c0 3.678.168 7.313.481 10.904h-11.182zm32.701-10.905v-50.094-40.308c49.029-36.886 77.593-19.23 79.628-17.88 3.419 2.624 7.801 2.813 11.609.781 28.474-15.179 67.97 8.602 80.889 17.368l.002 40.04v50.093c0 51.842-38.608 94.019-86.064 94.019s-86.064-42.177-86.064-94.019zm-113.884 271.063 12.143-51.021c3.234-13.589 13.368-24.333 26.512-28.156l83.635-14.345c.36-.061.716-.142 1.068-.238 18.942-5.23 34.178-19.545 40.756-38.292.103-.294.194-.592.271-.893l6.784-26.283c9.167 2.722 18.816 4.184 28.779 4.184 10.538 0 20.727-1.635 30.363-4.669l8.886 27.564c6 18.614 20.585 33.236 39.013 39.114.387.124.78.226 1.178.306l84.978 17.061c12.693 4.265 22.332 15.126 25.226 28.477l10.229 47.191z"/></g></g></svg>