<svg id="Capa_1" enable-background="new 0 0 512.325 512.325" viewBox="0 0 512.325 512.325" xmlns="http://www.w3.org/2000/svg" fill="#E6ECF2"><g><g><path d="m511.409 73.683c.076-21.727-19.305-41.033-54.59-54.621-59.915-23.963-163.876-24.949-226.576-3.704l6.911 21.229c57.883-19.671 156.449-18.822 211.653 3.314 25.22 9.695 40.276 22.257 40.276 33.603s-15.056 23.909-40.276 33.604c-61.116 25.768-191.769 22.84-242.504-10.417l-11.8 18.952c67.92 41.02 223.274 44.634 294.581-4.829l.001 83.448h-.002c0 11.346-15.056 23.908-40.276 33.604-60.807 25.648-192.791 23.086-242.398-10.4l-11.956 18.854c67.027 41.181 223.663 44.663 294.633-4.75l.001 83.45h-.004c0 11.346-15.056 23.908-40.276 33.604-47.591 18.999-127.806 22.288-182.842 10.739l-4.369 21.894c70.354 13.453 171.188 10.278 227.492-28.93-.021.384.024 86.146-.004 86.494 0 11.348-15.056 23.91-40.276 33.605-29.341 11.279-68.586 17.491-110.508 17.491-20.923 0-42.4-1.694-62.109-4.898-6.085-.993-11.819 3.141-12.81 9.226-.989 6.085 3.142 11.82 9.227 12.809 57.592 9.937 135.576 5.534 184.211-13.79 34.967-13.442 54.329-32.607 54.587-54.007.41-.626-.284-364.978.003-365.574z"/><g><path d="m368.745 447.802c-16.046-.305-13.611-24.962 2.18-22.11 12.926 2.254 10.928 22.412-2.18 22.11z" fill="#0496FF"/></g><g fill="#0496FF"><g><path d="m368.745 327.043c-16.047-.302-13.609-24.959 2.18-22.11 12.924 2.262 10.935 22.411-2.18 22.11z"/><path d="m307.855 327.043c-16.041-.308-13.6-24.961 2.181-22.11 12.926 2.254 10.937 22.412-2.181 22.11z"/></g><g><path d="m368.745 206.282c-16.048-.296-13.607-24.958 2.18-22.11 12.922 2.263 10.932 22.417-2.18 22.11z"/><path d="m307.855 206.282c-16.041-.298-13.6-24.96 2.181-22.11 12.926 2.259 10.937 22.42-2.181 22.11z"/></g></g></g><g><path d="m250.384 512.325h-181.032c-26.761 0-50.483-15.032-61.911-39.23-11.427-24.199-7.964-52.069 9.038-72.735l90.784-110.349v-208.004c-51.654-6.394-48.607-80.162 3.695-82.007h96.916c52.266 1.83 55.381 75.601 3.695 82.007v207.974l91.481 110.129c17.145 20.639 20.713 48.549 9.314 72.838-11.399 24.288-35.149 39.377-61.98 39.377zm-139.426-490c-24.903 1.05-24.874 36.489 0 37.521h7.468c6.165 0 11.163 4.998 11.163 11.163v223.003c0 2.587-.899 5.094-2.543 7.092l-93.326 113.44c-11.631 14.138-13.908 32.463-6.09 49.018 7.817 16.555 23.414 26.438 41.722 26.438h181.032c18.356 0 33.971-9.92 41.77-26.538 7.799-16.617 5.453-34.968-6.277-49.087 0 0-94.057-113.23-94.057-113.23-1.665-2.004-2.576-4.527-2.576-7.133v-223.003c0-6.165 4.998-11.163 11.163-11.163h7.468c24.826-.998 24.945-36.464 0-37.521-.001 0-96.917 0-96.917 0z" fill="#0496FF"/></g></g><g/><g/><g/><g/><g/><g/><g/><g/><g/><g/><g/><g/><g/><g/><g/></svg>