<svg id="Capa_1" enable-background="new 0 0 512.365 512.365" viewBox="0 0 512.365 512.365" xmlns="http://www.w3.org/2000/svg" fill="#E6ECF2"><g><g><path d="m338.38 443.638-115.341-175.637h105.994c6.176 0 11.183-5.007 11.183-11.183s-5.007-11.183-11.183-11.183h-106.098s115.417-177.365 115.417-177.365c3.368-5.177 1.902-12.105-3.273-15.473-5.178-3.368-12.104-1.902-15.473 3.273l-126.663 194.649c-2.432 3.67-2.388 8.725.102 12.355l126.639 192.841c3.412 5.201 10.394 6.572 15.486 3.209 5.163-3.39 6.6-10.323 3.21-15.486z" fill="#0496FF"/><path d="m87.852 354.954v-87.985h54.358c6.176 0 11.183-5.007 11.183-11.183s-5.006-11.183-11.183-11.183h-54.358v-35.665c25.756-5.203 45.209-28.007 45.209-55.274-3.098-74.812-109.697-74.789-112.782 0 0 27.266 19.453 50.071 45.209 55.273v35.665h-54.305c-6.177.002-11.183 5.009-11.183 11.184 0 6.176 5.006 11.183 11.183 11.183h54.304v87.985l-63.662 141.232c-2.538 5.631-.031 12.253 5.599 14.791 5.498 2.516 12.248.089 14.79-5.6 0 0 54.455-120.806 54.455-120.806l54.455 120.806c2.543 5.688 9.293 8.116 14.791 5.6 5.63-2.538 8.137-9.16 5.599-14.791zm-45.208-201.289c0-18.762 15.264-34.026 34.026-34.026 45.14 1.87 45.127 66.19 0 68.053-18.762 0-34.026-15.265-34.026-34.027z"/></g><path d="m445.287 353.597c-2.75-5.53-9.462-7.785-14.992-5.035l-4.059 2.018v-43.78c0-6.176-5.007-11.183-11.183-11.183s-11.183 5.007-11.183 11.183v43.779s-4.057-2.018-4.057-2.018c-13.537-6.075-22.98 12.891-9.959 20.027 0 0 20.219 10.054 20.219 10.054 3.115 1.531 6.843 1.538 9.958 0l20.22-10.054c5.531-2.749 7.785-9.461 5.036-14.991z" fill="#0496FF"/><path d="m445.287 159.874c-2.75-5.53-9.462-7.785-14.992-5.035l-4.059 2.018v-43.671c0-6.176-5.007-11.183-11.183-11.183s-11.183 5.007-11.183 11.183v43.671l-4.058-2.018c-13.538-6.076-22.979 12.893-9.957 20.027 0 0 20.219 10.053 20.219 10.053 3.115 1.532 6.842 1.537 9.957 0l20.22-10.053c5.531-2.749 7.785-9.461 5.036-14.992z" fill="#0496FF"/><g><path d="m415.107 511.973c-54.537 0-97.258-27.319-97.258-62.196 2.943-82.391 191.602-82.356 194.516.001 0 34.876-42.72 62.195-97.258 62.195zm0-102.028c-21.015 0-40.605 4.752-55.163 13.379-26.102 15.189-26.21 37.653 0 52.905 14.557 8.627 34.148 13.379 55.163 13.379s40.605-4.752 55.163-13.379c26.103-15.188 26.209-37.652 0-52.905-14.557-8.627-34.148-13.379-55.163-13.379z"/><path d="m415.107 317.983c-54.537 0-97.258-27.319-97.258-62.196 2.943-82.391 191.602-82.356 194.516.001 0 34.875-42.72 62.195-97.258 62.195zm0-102.029c-21.015 0-40.605 4.752-55.163 13.379-26.102 15.189-26.21 37.653 0 52.905 14.557 8.627 34.148 13.379 55.163 13.379s40.605-4.752 55.163-13.379c26.103-15.188 26.209-37.652 0-52.905-14.557-8.627-34.148-13.379-55.163-13.379z"/><path d="m415.054 124.368c-54.537 0-97.258-27.32-97.258-62.197 2.942-82.39 191.602-82.354 194.516.001 0 34.876-42.721 62.196-97.258 62.196zm0-102.028c-21.015 0-40.605 4.752-55.163 13.379-26.103 15.188-26.209 37.652 0 52.905 14.557 8.627 34.148 13.379 55.163 13.379s40.605-4.752 55.163-13.379c26.102-15.189 26.21-37.653 0-52.905-14.558-8.627-34.149-13.379-55.163-13.379z"/></g></g><g/><g/><g/><g/><g/><g/><g/><g/><g/><g/><g/><g/><g/><g/><g/></svg>