<svg id="Capa_1" enable-background="new 0 0 502.25 502.25" viewBox="0 0 502.25 502.25" xmlns="http://www.w3.org/2000/svg" fill="#052438"><g><path d="m491.309 202.473h-36.667l-192.488-128.442v-33.657c0-6.075-4.925-11-11-11s-11 4.925-11 11v33.656l-192.487 128.443h-36.667c-6.075 0-11 4.925-11 11s4.925 11 11 11h32.159l71.621 207.643-15.378 23.788c-3.298 5.102-1.835 11.912 3.267 15.209 5.029 3.272 11.89 1.876 15.21-3.266 0 0 15.034-23.256 15.034-23.256h236.485l15.034 23.256c3.319 5.142 10.181 6.538 15.21 3.266 5.102-3.298 6.565-10.107 3.267-15.209l-15.378-23.788 71.621-207.643h32.159c14.588-.578 14.586-21.422-.002-22zm-123.766 220.119h-232.777l-70.599-204.681 186.987-124.772 186.987 124.773z"/><path d="m185.344 375.019c-22.607 0-41-18.392-41-41 0-6.075 4.925-11 11-11s11 4.925 11 11c0 10.477 8.523 19 19 19 14.58.573 14.597 21.42 0 22z"/><path d="m281.154 194.125c-6.075 0-11-4.925-11-11 0-10.477-8.523-19-19-19-6.075 0-11-4.925-11-11s4.925-11 11-11c22.607 0 41 18.393 41 41 0 6.076-4.925 11-11 11z"/><path d="m165.344 280.68c-22.607 0-41-18.393-41-41 2.252-54.392 79.756-54.376 82 0 0 22.607-18.393 41-41 41zm0-60c-10.477 0-19 8.523-19 19 1.044 25.206 36.96 25.199 38 0 0-10.477-8.524-19-19-19z" fill="#0496FF"/><path d="m264.522 384.433c-54.353-2.25-54.351-79.703-.001-81.951 15.697 0 28.468-12.771 28.468-28.469 0-22.594 18.382-40.975 40.976-40.975s40.976 18.381 40.976 40.975c-.001 60.886-49.535 110.42-110.419 110.42zm69.443-129.395c-10.463 0-18.976 8.512-18.976 18.975 0 27.829-22.64 50.469-50.468 50.469-10.463 0-18.976 8.512-18.976 18.976 0 10.463 8.512 18.975 18.975 18.975 48.755 0 88.42-39.664 88.42-88.419 0-10.463-8.512-18.976-18.975-18.976z" fill="#0496FF"/><path d="m251.154 262.135c-15.811-.283-13.4-24.604 2.15-21.78 12.737 2.209 10.774 22.101-2.15 21.78z"/></g><g/><g/><g/><g/><g/><g/><g/><g/><g/><g/><g/><g/><g/><g/><g/></svg>