<svg id="Capa_1" enable-background="new 0 0 512.365 512.365" viewBox="0 0 512.365 512.365" xmlns="http://www.w3.org/2000/svg" fill="#E6ECF2"><g><path d="m340.573 198.844h-169.644c-6.176 0-11.183-5.007-11.183-11.183s5.007-11.183 11.183-11.183h169.644c14.786.567 14.874 21.76 0 22.366z" fill="#0496FF"/><path d="m208.76 259.693h-29.295c-14.826-.586-14.836-21.775 0-22.365h29.295c14.826.585 14.836 21.775 0 22.365z" fill="#0496FF"/><path d="m501.183 118.844h-75.692c-12.78-12.271-40.222-40.61-53.427-52.905l-9.864-9.768c-10.956-10.017-25.861 5.041-15.737 15.893 0 0 3.466 3.432 3.466 3.432l-45.874 45.873c-2.081-1.178-4.203-2.28-6.363-3.303v-64.488h4.695c14.809-.577 14.853-21.768 0-22.365-21.086 0-72.181 0-93.27 0-14.808.577-14.853 21.768 0 22.365h4.695v64.489c-2.16 1.022-4.283 2.125-6.363 3.303l-46.073-46.072s4.074-4.074 4.074-4.074c10.07-10.897-4.907-25.888-15.814-15.814-13.197 13.198-42.531 42.53-55.479 55.478-.002.002-.003.003-.005.005l-7.952 7.952h-75.017c-6.176-.001-11.183 5.006-11.183 11.182v268.847c0 6.176 5.007 11.183 11.183 11.183h128.878c6.022.169 11.692 2.555 16.054 6.806 14.708 14.109 6.357 40.525-14.459 41.883h-49.14c-6.176 0-11.183 5.007-11.183 11.183s5.007 11.183 11.183 11.183h45.934c1.238.057 2.476.058 3.71 0h228.047c1.234.058 2.472.057 3.71 0h45.934c6.176 0 11.183-5.007 11.183-11.183s-5.007-11.183-11.183-11.183h-49.119c-12.276-.529-22.147-11.849-21.933-24.099-.272-12.865 10.6-24.464 23.481-24.59h128.903c6.176 0 11.183-5.007 11.183-11.183v-268.847c-.001-6.176-5.008-11.183-11.183-11.183zm-355.623-27.732 52.387 52.387c3.842 3.841 9.888 4.366 14.334 1.244 5.168-3.629 10.776-6.6 16.67-8.829 4.348-1.645 7.225-5.81 7.225-10.459v-71.877h39.15v71.877c0 4.649 2.877 8.813 7.225 10.459 5.892 2.23 11.501 5.2 16.67 8.829 4.447 3.122 10.493 2.599 14.333-1.244l52.266-52.266c1.857 1.845 26.674 26.392 27.804 27.562l-60.959 60.96c-2.71 2.71-3.843 6.618-3.004 10.356 11 46.492-26.045 93.021-73.912 92.432-47.858.587-84.92-45.939-73.91-92.433.839-3.738-.295-7.646-3.004-10.356 0 0-60.959-60.96-60.959-60.96zm187.495 367.633h-153.745c8.851-14.476 8.777-34.365-.226-48.688h154.198c-9.004 14.322-9.077 34.212-.227 48.688zm156.945-71.054c-85.852 0-387.455 0-467.635 0v-246.482h86.297l50.176 50.177c-9.803 58.762 37.271 114.053 96.912 113.522 59.634.533 106.725-54.764 96.912-113.522l50.176-50.177h87.162z"/></g><g/><g/><g/><g/><g/><g/><g/><g/><g/><g/><g/><g/><g/><g/><g/></svg>