<svg id="Capa_1" enable-background="new 0 0 512.257 512.257" viewBox="0 0 512.257 512.257" xmlns="http://www.w3.org/2000/svg" fill="#E6ECF2"><g><path d="m216.794 318.718h-72.003c-14.845-.582-14.878-21.816 0-22.412h72.003c6.188 0 11.206 5.018 11.206 11.206 0 6.189-5.018 11.206-11.206 11.206z" fill="#0496FF"/><path d="m216.794 257.596h-58.712c-14.849-.583-14.875-21.817 0-22.412h58.712c6.188 0 11.206 5.018 11.206 11.206 0 6.189-5.018 11.206-11.206 11.206z" fill="#0496FF"/><path d="m471.071 141.054h-90.306v22.412h79.1v255.138c-106.503 0-300.965 0-407.473 0v-255.138h127.126v-22.412h-138.332c-6.188 0-11.206 5.018-11.206 11.206v277.55c0 6.189 5.017 11.206 11.206 11.206h98.651c6.026.173 11.663 2.574 16.018 6.818 14.767 14.176 6.337 40.683-14.584 41.968h-49.146c-6.188 0-11.206 5.018-11.206 11.206s5.018 11.206 11.206 11.206h46.058c1.23.057 2.459.058 3.685 0h228.522c1.227.058 2.455.057 3.685 0h46.058c6.189 0 11.206-5.018 11.206-11.206s-5.018-11.206-11.206-11.206h-49.148c-12.337-.498-22.263-11.84-22.049-24.147-.279-12.867 10.606-24.495 23.475-24.639h98.661c6.189 0 11.206-5.018 11.206-11.206v-277.55c-.001-6.188-5.018-11.206-11.207-11.206zm-137.912 348.748h-154.06c8.868-14.504 8.795-34.435-.227-48.786h154.514c-9.022 14.351-9.095 34.283-.227 48.786z"/><g><path d="m280.967 196.538h-108.98c-14.835-.577-14.888-21.812 0-22.412h108.979c14.836.576 14.889 21.811.001 22.412z" fill="#0496FF"/><path d="m378.375 302.187s-16.889-74.16-16.889-74.16c-1.374-6.033-7.378-9.813-13.414-8.438-6.034 1.374-9.812 7.38-8.438 13.414.039.168 16.907 74.252 16.945 74.406 2.961 12.14.232 24.739-7.486 34.566-7.719 9.827-19.311 15.463-31.808 15.463h-122.314c-25.661.476-45.85-25.194-39.294-50.029.038-.154 43.554-191.254 43.593-191.422h24.559c6.188 0 11.206-5.018 11.206-11.206s-5.018-11.206-11.206-11.206h-53.873c-14.851.585-14.873 21.818 0 22.412h6.33s-42.404 186.2-42.404 186.2c-4.566 18.839-.32 38.382 11.656 53.63 11.995 15.272 30.013 24.032 49.433 24.032h122.314c39.851.744 71.21-39.095 61.09-77.662z"/></g><path d="m335.534 244.686c-23.682 0-44.021-16.434-49.355-39.021-17.52-12.488-28.208-32.964-28.208-54.621 0-16.778-7.025-34.707-26.745-34.707-24.294 0-44.059-19.765-44.059-44.059-.247-26.836 24.706-47.991 51.123-43.498 16.507-36.203 68.173-38.898 88.325-4.4 40.145-3.817 65.451 43.098 40.355 74.488 24.152 18.799 32.248 55.231 17.725 82.557 8.418 31.404-16.586 63.708-49.161 63.261zm-104.309-194.054c-28.686 1.176-28.74 42.093 0 43.292 29.402 0 49.157 22.955 49.157 57.119 0 15.818 8.116 30.127 21.713 38.275 2.953 1.77 4.929 4.799 5.357 8.215 1.771 14.105 13.844 24.74 28.081 24.74 19.357.355 33.583-20.224 26.539-38.203-1.204-3.228-.855-6.832.946-9.77 4.279-6.983 6.541-15.025 6.541-23.257 0-17.3-10.155-33.185-25.871-40.469-3.789-1.756-6.287-5.474-6.482-9.645-.194-4.171 1.946-8.104 5.555-10.206 7.271-4.234 11.788-12.076 11.788-20.465.259-15.755-16.018-27.571-30.913-22.531-5.789 1.863-12.011-1.238-14.012-6.984-9.461-26.458-47.695-23.645-53.077 3.994-1.157 7.126-9.485 11.319-15.902 8.042-2.946-1.424-6.114-2.147-9.42-2.147z" fill="#0496FF"/></g><g/><g/><g/><g/><g/><g/><g/><g/><g/><g/><g/><g/><g/><g/><g/></svg>