<svg id="Capa_1" enable-background="new 0 0 512.365 512.365" viewBox="0 0 512.365 512.365" xmlns="http://www.w3.org/2000/svg" fill="#052438"><g><path d="m249.604 158.267h-60.884c-14.817-.581-14.844-21.772 0-22.365h60.884c6.176 0 11.183 5.007 11.183 11.183-.001 6.175-5.008 11.182-11.183 11.182z" fill="#0496FF"/><path d="m501.183 124.132h-170.788c-6.176 0-11.183 5.007-11.183 11.183s5.007 11.183 11.183 11.183h159.605v271.897h-467.635v-271.897h155.172v61.739c0 6.176 5.007 11.183 11.183 11.183h60.884c6.176 0 11.183-5.007 11.183-11.183v-75.042c0-6.176-5.007-11.183-11.183-11.183s-11.183 5.007-11.183 11.183v63.859h-38.519v-127.719h38.519v33.81c.584 14.822 21.774 14.84 22.365 0v-44.992c0-6.176-5.007-11.183-11.183-11.183h-19.26v-35.279c0-6.176-5.007-11.183-11.183-11.183s-11.183 5.007-11.183 11.183v35.279h-19.257c-6.176 0-11.183 5.007-11.183 11.183v65.98h-166.354c-6.176-.001-11.183 5.006-11.183 11.182v294.263c0 6.176 5.007 11.183 11.183 11.183h128.957c6.004.171 11.631 2.573 15.975 6.805 14.733 14.143 6.329 40.589-14.543 41.883h-49.057c-6.176 0-11.183 5.007-11.183 11.183s5.007 11.183 11.183 11.183h45.949c1.232.057 2.465.057 3.694 0h228.046c1.23.057 2.463.057 3.697 0h45.949c6.176 0 11.183-5.007 11.183-11.183s-5.007-11.183-11.183-11.183h-49.077c-12.292-.511-22.191-11.83-21.975-24.099-.27-12.843 10.571-24.45 23.435-24.589h128.949c6.176 0 11.183-5.007 11.183-11.183v-294.263c0-6.176-5.007-11.183-11.182-11.183zm-168.127 365.316h-153.747c8.851-14.475 8.778-34.365-.226-48.688h154.199c-9.004 14.323-9.076 34.213-.226 48.688z"/><path d="m262.369 280.703h-88.481c-14.81-.578-14.852-21.769 0-22.365h88.481c6.176 0 11.183 5.007 11.183 11.183s-5.007 11.182-11.183 11.182z" fill="#0496FF"/><path d="m330.395 124.132h-1.742c2.791-26.936-18.924-50.917-46.021-50.761-61.346 2.539-61.334 89.955 0 92.487 15.477 0 29.193-7.651 37.591-19.361h10.171c37.527 0 68.058 30.53 68.058 68.058 0 37.527-30.53 68.058-68.058 68.058h-22.823c-6.176 0-11.183 5.007-11.183 11.183s5.007 11.183 11.183 11.183h22.823c119.959-4.966 119.922-175.9.001-180.847zm-47.763 19.361c-13.167 0-23.879-10.712-23.879-23.879 1.312-31.678 46.451-31.669 47.758 0 0 13.167-10.712 23.879-23.879 23.879z" fill="#0496FF"/><path d="m367.374 357.357h-13.591l-36.323-68.784c-1.936-3.667-5.742-5.961-9.889-5.961h-39.471c-6.176 0-11.183 5.007-11.183 11.183v63.562h-113.527c-6.176 0-11.183 5.007-11.183 11.183s5.007 11.183 11.183 11.183c11.147.008 218.567-.006 223.985 0 14.783-.565 14.875-21.759-.001-22.366zm-88.092-52.379h21.548l27.66 52.379h-49.208z"/></g><g/><g/><g/><g/><g/><g/><g/><g/><g/><g/><g/><g/><g/><g/><g/></svg>