<svg id="Capa_1" enable-background="new 0 0 511.96 511.96" viewBox="0 0 511.96 511.96" xmlns="http://www.w3.org/2000/svg" fill="#052438"><g><g><g fill="#0496FF"><path d="m255.98 266.112c-64.795 0-130.39-18.044-130.39-52.531h22c0 3.245 5.765 11.388 27.583 18.977 21.418 7.45 50.116 11.554 80.807 11.554s59.389-4.104 80.807-11.554c21.818-7.59 27.583-15.732 27.583-18.977h22c-.001 34.487-65.595 52.531-130.39 52.531z"/><path d="m255.98 185.557c-64.795 0-130.39-18.044-130.39-52.532h22c0 3.245 5.765 11.389 27.583 18.979 36.887 13.316 100.1 14.925 141.367 5.581l4.643 21.504c-19.596 4.231-42.143 6.468-65.203 6.468z"/></g></g><path d="m500.96 126.462h-45.011c-14.588.578-14.59 21.422 0 22h34.011v270.206c-131.191 0-336.767 0-467.96 0v-270.206h103.589c.007.384-.016 147.734.004 148.086.485 34.238 65.833 52.151 130.387 52.151 64.542 0 129.877-17.904 130.386-52.13.303-.308-.205-101.067.006-101.426-.001-6.075-4.926-11-11.001-11s-11 4.925-11 11c-.004.314.01 100.735-.002 101.023 0 3.246-5.765 11.39-27.583 18.979-41.875 15.289-119.739 15.289-161.614-.001-21.818-7.589-27.583-15.733-27.583-18.978-.319-.271.225-212.867-.001-213.162 30.792 18.792 94.785 25.278 140.16 20.558l-2.025-21.906c-35.499 3.586-82.326.043-110.551-10.21-21.818-7.588-27.583-15.732-27.583-18.977s5.765-11.388 27.583-18.978c40.514-14.713 113.406-15.188 155.631-1.934l6.328-21.07c-54.274-19.631-210.188-14.021-211.541 41.983-.072.134.051 73.854-.001 73.992h-114.589c-6.075 0-11 4.925-11 11v292.206c0 6.075 4.925 11 11 11h128.782c6.111.168 11.848 2.551 16.265 6.855 14.843 14.246 6.371 40.887-14.653 42.192h-49.068c-6.075 0-11 4.925-11 11s4.925 11 11 11h45.937c1.234.057 2.47.057 3.7 0h228.034c1.231.057 2.466.057 3.7 0h45.937c6.075 0 11-4.925 11-11s-4.925-11-11-11h-49.114c-12.375-.528-22.327-11.932-22.113-24.279-.276-12.995 10.72-24.666 23.725-24.769h128.828c6.075 0 11-4.925 11-11v-292.206c0-6.074-4.925-10.999-11-10.999zm-167.797 363.254h-154.367c9.033-14.545 8.954-34.661-.243-49.048h154.853c-9.197 14.387-9.276 34.503-.243 49.048z"/><g fill="#0496FF"><path d="m375.407 199.667c-55.115 0-99.954-44.839-99.954-99.953 5.49-132.603 194.438-132.564 199.908.001 0 55.113-44.839 99.952-99.954 99.952zm0-177.907c-42.984 0-77.954 34.97-77.954 77.954 4.282 103.416 151.641 103.385 155.908-.001 0-42.984-34.97-77.953-77.954-77.953z"/><path d="m405.003 88.713h-18.596v-18.595c0-6.075-4.925-11-11-11s-11 4.925-11 11v18.595h-18.595c-6.075 0-11 4.925-11 11s4.925 11 11 11h18.595v18.596c0 6.075 4.925 11 11 11s11-4.925 11-11v-18.596h18.596c14.591-.579 14.587-21.423 0-22z"/></g></g><g/><g/><g/><g/><g/><g/><g/><g/><g/><g/><g/><g/><g/><g/><g/></svg>