<svg id="Layer_1" enable-background="new 0 0 512 512" viewBox="0 0 512 512" xmlns="http://www.w3.org/2000/svg" fill="#E6ECF2"><g><g><path d="m453.904 103.116h-395.808c-32.034 0-58.096 26.062-58.096 58.096v189.563c0 32.042 26.068 58.109 58.11 58.109h395.78c32.042 0 58.11-26.067 58.11-58.109v-189.563c0-32.034-26.062-58.096-58.096-58.096zm-431.904 58.096c0-19.903 16.192-36.096 36.096-36.096h395.809c19.903 0 36.096 16.192 36.096 36.096v143.563c0 19.903-16.192 36.096-36.096 36.096h-395.809c-19.904 0-36.096-16.193-36.096-36.096zm431.89 225.672h-395.78c-19.911 0-36.11-16.198-36.11-36.109v-.508c9.92 7.887 22.467 12.605 36.096 12.605h395.809c13.629 0 26.176-4.717 36.096-12.605v.508c-.001 19.911-16.2 36.109-36.111 36.109z"/><path d="m166.565 268.345c.8.138 1.203.207 6.854.207 2.707 0 6.618-.016 12.354-.048 6.075-.034 10.973-4.987 10.938-11.062-.034-6.054-4.952-10.938-10.999-10.938h-.062c-2.058.012-4.19.021-6.219.029v-38.322c0-6.075-4.925-11-11-11s-11 4.925-11 11v49.293c0 5.355 3.857 9.933 9.134 10.841z"/><path d="m209.485 268.345c.8.138 1.203.207 6.854.207 2.707 0 6.618-.016 12.354-.048 6.075-.034 10.973-4.987 10.938-11.062s-4.941-10.974-11.062-10.938c-2.058.012-4.19.021-6.219.029v-38.322c0-6.075-4.925-11-11-11s-11 4.925-11 11v49.293c.001 5.355 3.858 9.933 9.135 10.841z"/><path d="m54.102 268.566c6.075 0 11-4.925 11-11v-14.038h6.559c6.075 0 11-4.925 11-11s-4.925-11-11-11h-6.559v-2.107h8.074c6.075 0 11-4.925 11-11s-4.925-11-11-11h-19.074c-6.075 0-11 4.925-11 11v49.146c0 6.075 4.924 10.999 11 10.999z"/><path d="m315.301 258.94c.104.525.246 1.042.426 1.547 1.716 4.83 6.295 8.059 11.414 8.059h.083c5.151-.035 9.728-3.336 11.386-8.214.033-.095.064-.191.094-.288l4.495-14.517 4.474 14.517c.045.149.095.296.146.443 1.715 4.829 6.296 8.059 11.414 8.059h.078c5.149-.033 9.727-3.33 11.389-8.205.156-.459.282-.927.377-1.402l9.653-48.489c1.187-5.958-2.682-11.75-8.641-12.936-5.958-1.188-11.749 2.683-12.936 8.64l-1.989 9.991-3.443-11.173c-1.788-5.807-7.95-9.062-13.751-7.273-3.875 1.194-6.614 4.334-7.475 8.017l-3.233 10.44-1.994-10.08c-1.18-5.959-6.979-9.835-12.926-8.656-5.96 1.18-9.835 6.967-8.656 12.926z"/><path d="m119.265 268.545c19.671 0 35.675-16 35.675-35.667s-16.004-35.667-35.675-35.667-35.675 16-35.675 35.667 16.004 35.667 35.675 35.667zm0-49.334c7.54 0 13.675 6.131 13.675 13.667s-6.135 13.667-13.675 13.667-13.675-6.131-13.675-13.667 6.135-13.667 13.675-13.667z"/><path d="m270.685 268.545c19.672 0 35.676-16 35.676-35.667s-16.004-35.667-35.676-35.667c-19.671 0-35.675 16-35.675 35.667s16.004 35.667 35.675 35.667zm0-49.334c7.541 0 13.676 6.131 13.676 13.667s-6.135 13.667-13.676 13.667c-7.54 0-13.675-6.131-13.675-13.667s6.135-13.667 13.675-13.667z"/><path d="m441.29 269.182c-3.164 0-6.328-.71-9.291-2.129-7.149 3.427-15.474 2.718-22.135-2.124-6.657-4.838-9.9-12.532-8.852-20.383-5.467-5.737-7.366-13.87-4.822-21.698 2.544-7.831 8.863-13.295 16.659-14.724 3.77-6.97 10.918-11.289 19.149-11.289 8.232 0 15.382 4.319 19.15 11.289 7.796 1.429 14.115 6.894 16.659 14.724 2.543 7.828.643 15.96-4.822 21.697 1.049 7.852-2.194 15.546-8.852 20.384-3.9 2.835-8.371 4.253-12.843 4.253zm-9.291-26.267c2.269 0 4.536.7 6.464 2.1l2.531 1.838-.965-2.969c-1.473-4.533.141-9.498 3.997-12.299l2.521-1.832h-3.12c-4.766 0-8.989-3.068-10.462-7.601l-.965-2.975-.967 2.975c-1.473 4.532-5.696 7.601-10.462 7.601h-3.121l2.521 1.831c3.856 2.801 5.471 7.767 3.998 12.3l-.965 2.969 2.529-1.837c1.928-1.401 4.197-2.101 6.466-2.101z" fill="#0496FF"/></g></g><g/><g/><g/><g/><g/><g/><g/><g/><g/><g/><g/><g/><g/><g/><g/></svg>