<svg id="Layer_1" enable-background="new 0 0 512 512" viewBox="0 0 512 512" xmlns="http://www.w3.org/2000/svg" fill="#052438"><g><g><path d="m453.904 103.116h-395.808c-32.034 0-58.096 26.062-58.096 58.096v189.563c0 32.042 26.068 58.109 58.11 58.109h395.78c32.042 0 58.11-26.067 58.11-58.109v-189.563c0-32.034-26.062-58.096-58.096-58.096zm-431.904 58.096c0-19.903 16.192-36.096 36.096-36.096h395.809c19.903 0 36.096 16.192 36.096 36.096v143.563c0 19.903-16.192 36.096-36.096 36.096h-395.809c-19.904 0-36.096-16.193-36.096-36.096zm431.89 225.672h-395.78c-19.911 0-36.11-16.198-36.11-36.109v-.508c9.92 7.887 22.467 12.605 36.096 12.605h395.809c13.629 0 26.176-4.717 36.096-12.605v.508c-.001 19.911-16.2 36.109-36.111 36.109z"/><path d="m151.733 273.302c5.455 2.078 11.532-.47 13.92-5.707h23.653c1.822 3.997 5.797 6.431 10.006 6.43 1.291 0 2.604-.229 3.883-.712 5.684-2.146 8.552-8.492 6.406-14.176l-20.576-54.508c-.038-.102-.078-.204-.12-.305-1.898-4.61-6.345-7.587-11.33-7.587h-.018c-4.991.007-9.437 2.997-11.325 7.618-.033.081-.065.163-.097.245l-20.766 54.505c-2.162 5.678.687 12.034 6.364 14.197zm29.241-27.707h-6.914l3.473-9.116z"/><path d="m342.738 274.022c6.075 0 11-4.925 11-11v-17.59h16.269v17.59c0 6.075 4.925 11 11 11s11-4.925 11-11v-55.284c0-6.075-4.925-11-11-11s-11 4.925-11 11v15.694h-16.269v-15.694c0-6.075-4.925-11-11-11s-11 4.925-11 11v55.284c0 6.076 4.925 11 11 11z"/><path d="m109.544 274.97h23.089c6.075 0 11-4.925 11-11s-4.925-11-11-11h-12.089v-5.39h10.387c6.075 0 11-4.925 11-11s-4.925-11-11-11h-10.387v-5.39h12.089c6.075 0 11-4.925 11-11s-4.925-11-11-11h-23.089c-6.075 0-11 4.925-11 11v54.779c0 6.076 4.925 11.001 11 11.001z"/><path d="m301.687 274.022c8.634 0 16.411-2.861 22.493-8.275 1.189-1.06 2.318-2.224 3.354-3.458 3.905-4.654 3.297-11.592-1.356-15.497-4.655-3.905-11.594-3.297-15.497 1.357-.354.422-.735.816-1.132 1.168-2.044 1.82-4.615 2.705-7.861 2.705-9.181 0-16.65-7.466-16.65-16.642s7.47-16.642 16.65-16.642c3.339 0 6.556.981 9.304 2.836 5.034 3.4 11.871 2.075 15.272-2.959 3.399-5.035 2.075-11.873-2.96-15.272-6.397-4.321-13.872-6.605-21.616-6.605-21.312 0-38.65 17.335-38.65 38.642-.002 21.308 17.337 38.642 38.649 38.642z"/><path d="m70.278 252.022c-6.465 0-10.147-3.508-11.122-4.583-4.167-4.598-11.336-4.854-15.822-.495-4.381 4.257-4.195 11.345 0 15.785 6.787 7.186 16.566 11.293 26.944 11.293 13.639 0 25.117-8.853 27.295-21.05 1.59-8.91-2.35-21.453-18.688-27.477-5.685-2.096-11.042-4.354-13.689-5.495.175-.269.612-.611 1.441-.86 5.719-1.724 11.425 2.745 11.482 2.791l.003.002c4.895 3.456 11.675 2.198 15.006-2.783 3.149-4.71 2.09-11.094-2.47-14.457-7.73-5.702-18.152-10.297-30.365-6.619-9.175 2.763-15.675 10.056-16.964 19.034-1.223 8.522 2.477 16.723 9.656 21.401.485.317.996.595 1.525.831.325.145 8.061 3.587 16.763 6.796 3.495 1.289 4.558 2.688 4.645 2.942-.028.687-1.844 2.944-5.64 2.944z"/><path d="m222.047 275.223c6.075 0 11-4.925 11-11v-4.82l10.644 12.089c2.174 2.47 5.209 3.731 8.26 3.731 2.582 0 5.175-.904 7.265-2.744 4.56-4.015 5.002-10.965.987-15.525l-10.307-11.707c7.798-4.398 13.052-12.586 13.052-21.94 0-13.988-11.747-25.368-26.186-25.368h-14.714c-6.075 0-11 4.925-11 11v55.284c-.001 6.075 4.924 11 10.999 11zm11-55.285h3.714c2.19 0 4.186 1.605 4.186 3.368s-1.995 3.368-4.186 3.368c-.989 0-2.298.004-3.714.009z"/></g><path d="m462.532 207.163c-12.595-12.59-33.086-12.587-45.677 0-6.103 6.1-9.463 14.209-9.463 22.836 0 4.815 1.048 9.47 3.034 13.704l-11.779 11.774c-4.297 4.295-4.298 11.26-.003 15.556 2.147 2.149 4.964 3.223 7.779 3.223 2.814 0 5.629-1.074 7.776-3.221l11.794-11.79c4.327 2.02 9.013 3.031 13.698 3.031 8.271 0 16.542-3.147 22.838-9.442h.001c6.102-6.1 9.462-14.21 9.462-22.836.002-8.626-3.358-16.736-9.46-22.835zm-15.553 30.113c-4.017 4.015-10.553 4.016-14.569 0-1.945-1.944-3.017-4.529-3.017-7.277 0-2.749 1.071-5.333 3.017-7.277 2.008-2.008 4.646-3.012 7.284-3.012s5.276 1.004 7.285 3.012c1.944 1.944 3.016 4.528 3.016 7.277-.001 2.748-1.072 5.333-3.016 7.277z" fill="#0496FF"/></g><g/><g/><g/><g/><g/><g/><g/><g/><g/><g/><g/><g/><g/><g/><g/></svg>