<svg id="Layer_1" enable-background="new 0 0 512 512" viewBox="0 0 512 512" xmlns="http://www.w3.org/2000/svg" fill="#E6ECF2"><g><g><path d="m437.019 75.012c-48.352-48.343-112.64-74.967-181.019-74.967s-132.667 26.624-181.019 74.967-74.981 112.62-74.981 180.988 26.629 132.645 74.981 180.988 112.639 74.967 181.019 74.967 132.667-26.624 181.019-74.967 74.981-112.62 74.981-180.988-26.629-132.645-74.981-180.988zm-181.019 414.943c-129.028 0-234-104.952-234-233.955s104.972-233.955 234-233.955 234 104.952 234 233.955-104.972 233.955-234 233.955z"/><path d="m256 54.184c-111.301 0-201.852 90.534-201.852 201.816s90.551 201.816 201.852 201.816 201.852-90.534 201.852-201.816-90.551-201.816-201.852-201.816zm0 381.632c-99.17 0-179.852-80.665-179.852-179.816s80.682-179.816 179.852-179.816 179.852 80.665 179.852 179.816-80.682 179.816-179.852 179.816z"/><path d="m313.408 170.988c-30.085 0-54.562 24.474-54.562 54.555s24.477 54.554 54.562 54.554c30.086 0 54.562-24.473 54.562-54.554s-24.476-54.555-54.562-54.555zm0 87.109c-17.955 0-32.562-14.604-32.562-32.554 0-17.951 14.607-32.555 32.562-32.555s32.562 14.604 32.562 32.555c0 17.95-14.607 32.554-32.562 32.554z"/><path d="m235.038 215.165h-25.691c-6.075 0-11 4.925-11 11s4.925 11 11 11h13.375c-2.783 11.137-10.233 20.932-24.752 20.932-17.612 0-31.94-14.324-31.94-31.932s14.328-31.932 31.94-31.932c6.402 0 12.575 1.884 17.851 5.447 5.036 3.401 11.873 2.076 15.272-2.958 3.4-5.034 2.076-11.872-2.958-15.272-8.927-6.029-19.358-9.217-30.165-9.217-29.743 0-53.94 24.193-53.94 53.932s24.197 53.932 53.94 53.932c28.302 0 48.068-22.178 48.068-53.932 0-6.075-4.925-11-11-11z"/></g><path d="m306.778 319.728-22.419-22.422c-4.297-4.297-11.261-4.297-15.557-.001-4.296 4.295-4.296 11.26-.001 15.556l3.644 3.645h-59.445c-6.075 0-11 4.925-11 11s4.925 11 11 11h59.445l-3.644 3.645c-4.295 4.296-4.295 11.261.001 15.556 2.148 2.148 4.963 3.222 7.778 3.222s5.631-1.074 7.779-3.223l22.419-22.422c4.295-4.297 4.295-11.262 0-15.556z" fill="#0496FF"/></g><g/><g/><g/><g/><g/><g/><g/><g/><g/><g/><g/><g/><g/><g/><g/></svg>