<svg id="Layer_1" enable-background="new 0 0 512 512" viewBox="0 0 512 512" xmlns="http://www.w3.org/2000/svg" fill="#E6ECF2"><g><g><path d="m267 155.189v-11.06c0-6.075-4.925-11-11-11s-11 4.925-11 11v11.06c-37.749 5.36-66.872 37.892-66.872 77.098v79.785c0 6.075 4.925 11 11 11s11-4.925 11-11v-79.785c0-30.809 25.064-55.873 55.872-55.873s55.872 25.064 55.872 55.873v79.785c0 6.075 4.925 11 11 11s11-4.925 11-11v-79.785c0-39.206-29.123-71.738-66.872-77.098z"/><path d="m437.019 75.012c-48.352-48.343-112.639-74.967-181.019-74.967s-132.667 26.624-181.019 74.967-74.981 112.62-74.981 180.988 26.629 132.645 74.981 180.988 112.639 74.967 181.019 74.967 132.667-26.624 181.019-74.967 74.981-112.62 74.981-180.988-26.629-132.645-74.981-180.988zm-181.019 414.943c-129.028 0-234-104.952-234-233.955s104.972-233.955 234-233.955 234 104.952 234 233.955-104.972 233.955-234 233.955z"/><path d="m256 54.184c-111.302 0-201.852 90.534-201.852 201.816s90.55 201.816 201.852 201.816 201.852-90.534 201.852-201.816-90.55-201.816-201.852-201.816zm0 381.632c-99.171 0-179.852-80.665-179.852-179.816s80.681-179.816 179.852-179.816 179.852 80.665 179.852 179.816-80.681 179.816-179.852 179.816z"/></g><path d="m338.735 311.072h-165.47c-6.075 0-11 4.925-11 11s4.925 11 11 11h71.735v11.896c0 6.075 4.925 11 11 11s11-4.925 11-11v-11.896h71.735c6.075 0 11-4.925 11-11s-4.924-11-11-11z" fill="#0496FF"/></g><g/><g/><g/><g/><g/><g/><g/><g/><g/><g/><g/><g/><g/><g/><g/></svg>