<svg id="Layer_1" enable-background="new 0 0 512 512" viewBox="0 0 512 512" xmlns="http://www.w3.org/2000/svg" fill="#052438"><g><g><path d="m453.904 93.157h-395.808c-32.034 0-58.096 26.062-58.096 58.096v209.48c0 32.042 26.068 58.109 58.11 58.109h395.78c32.042 0 58.11-26.068 58.11-58.109v-209.48c0-32.034-26.062-58.096-58.096-58.096zm-431.904 58.096c0-19.903 16.192-36.096 36.096-36.096h395.809c19.903 0 36.096 16.192 36.096 36.096v163.48c0 19.903-16.192 36.096-36.096 36.096h-395.809c-19.904 0-36.096-16.192-36.096-36.096zm431.89 245.59h-395.78c-19.911 0-36.11-16.199-36.11-36.109v-.509c9.92 7.887 22.467 12.604 36.096 12.604h395.809c13.629 0 26.176-4.717 36.096-12.604v.509c-.001 19.91-16.2 36.109-36.111 36.109z"/><path d="m229.811 280.577c6.075 0 11-4.925 11-11v-36.652l28.603 41.406c3.154 4.555 8.445 6.483 13.48 4.909 5.121-1.601 8.43-6.346 8.43-12.091 0-.036 0-.071 0-.106l-.673-69.636c-.059-6.075-5.019-10.982-11.106-10.893-6.075.059-10.952 5.031-10.893 11.106l.362 37.425-30.152-43.649c-2.736-3.961-7.729-5.682-12.325-4.25-4.596 1.433-7.726 5.688-7.726 10.501v71.93c0 6.075 4.925 11 11 11z"/><path d="m58.151 279.839c5.982 1.08 11.7-2.893 12.78-8.871l5.644-31.258 9.405 31.871c.039.13.08.26.123.388 1.731 5.156 6.537 8.607 11.97 8.607h.065c5.46-.028 10.262-3.536 11.947-8.729.041-.125.08-.252.116-.379l9.078-31.834 6.011 31.446c1.141 5.967 6.902 9.88 12.87 8.739 5.967-1.141 9.879-6.902 8.739-12.87l-13.419-70.199c-.008-.044-.017-.089-.026-.134-1.146-5.614-5.941-9.761-11.663-10.083-5.727-.324-10.953 3.258-12.722 8.709-.041.126-.08.252-.116.38l-11.033 38.69-11.45-38.799c-.039-.131-.08-.262-.124-.391-1.826-5.434-7.092-8.954-12.816-8.577-5.72.384-10.471 4.583-11.555 10.211-.008.042-.016.083-.023.125l-12.672 70.179c-1.079 5.978 2.892 11.7 8.871 12.779z"/><path d="m167.294 280.577h30.097c6.075 0 11-4.925 11-11s-4.925-11-11-11h-19.097v-13.703h16.878c6.075 0 11-4.925 11-11s-4.925-11-11-11h-16.878v-13.704h19.097c6.075 0 11-4.925 11-11s-4.925-11-11-11h-30.097c-6.075 0-11 4.925-11 11v71.407c0 6.075 4.925 11 11 11z"/><path d="m320.761 275.048c5.729 3.659 12.187 5.519 19.192 5.528h.061c6.015 0 11.671-1.312 16.811-3.899 12.664-6.376 19.639-16.899 19.639-29.629v-49.536c0-6.075-4.925-11-11-11s-11 4.925-11 11v49.536c0 3.06-.895 6.638-7.531 9.979-2.071 1.042-4.333 1.549-6.919 1.549h-.029c-2.792-.004-5.207-.681-7.38-2.069-5.211-3.328-6.23-5.969-6.23-9.407v-49.588c0-6.075-4.925-11-11-11s-11 4.925-11 11v49.588c-.001 11.6 5.512 21.003 16.386 27.948z"/><g fill="#0496FF"><path d="m451.895 208.512h-33.057c-6.075 0-11-4.925-11-11s4.925-11 11-11h33.057c6.075 0 11 4.925 11 11s-4.925 11-11 11z"/><path d="m451.895 244.544h-33.057c-6.075 0-11-4.925-11-11s4.925-11 11-11h33.057c6.075 0 11 4.925 11 11s-4.925 11-11 11z"/><path d="m451.895 280.577h-33.057c-6.075 0-11-4.925-11-11s4.925-11 11-11h33.057c6.075 0 11 4.925 11 11s-4.925 11-11 11z"/></g></g></g><g/><g/><g/><g/><g/><g/><g/><g/><g/><g/><g/><g/><g/><g/><g/></svg>