<svg id="Capa_1" enable-background="new 0 0 512 512" viewBox="0 0 512 512" xmlns="http://www.w3.org/2000/svg" fill="#E6ECF2"><g><g fill="#0496FF"><path d="m322.809 324.411-15.546-15.545c-4.295-4.296-11.26-4.295-15.556 0s-4.295 11.26 0 15.556l7.767 7.767-7.768 7.768c-4.295 4.296-4.295 11.261 0 15.557 2.148 2.148 4.963 3.222 7.778 3.222s5.63-1.074 7.778-3.222l15.546-15.546c2.063-2.063 3.222-4.861 3.222-7.778s-1.158-5.716-3.221-7.779z"/><path d="m220.293 308.866c-4.296-4.297-11.261-4.296-15.556 0l-15.546 15.545c-2.063 2.063-3.222 4.861-3.222 7.778s1.159 5.715 3.222 7.778l15.546 15.546c2.148 2.148 4.963 3.222 7.778 3.222s5.63-1.074 7.778-3.222c4.295-4.296 4.295-11.261 0-15.557l-7.768-7.768 7.767-7.767c4.297-4.295 4.297-11.26.001-15.555z"/><path d="m266.107 300.745c-5.787-1.861-11.98 1.323-13.838 7.106l-13.481 41.944c-1.859 5.784 1.322 11.979 7.106 13.838 1.119.36 2.253.531 3.369.531 4.65 0 8.971-2.972 10.47-7.637l13.481-41.944c1.858-5.784-1.323-11.979-7.107-13.838z"/><path d="m65.16 50.79c-2.757-7.144-12.674-9.065-17.94-3.57-6.89 6.803-1.911 18.846 7.78 18.78 7.579.213 13.275-8.284 10.16-15.21z"/><path d="m109.16 50.79c-2.689-7.101-12.733-9.088-17.94-3.57-6.895 6.809-1.903 18.838 7.78 18.78 7.575.209 13.284-8.281 10.16-15.21z"/><path d="m153.16 50.79c-2.69-7.083-12.726-9.092-17.94-3.57-6.185 6.008-2.862 17.016 5.63 18.56 8.422 1.843 15.751-7.082 12.31-14.99z"/></g><g><path d="m255.963 221.716c-60.915 0-110.473 49.558-110.473 110.473s49.558 110.473 110.473 110.473 110.473-49.558 110.473-110.473-49.558-110.473-110.473-110.473zm0 198.946c-48.784 0-88.473-39.689-88.473-88.473s39.689-88.473 88.473-88.473 88.473 39.688 88.473 88.473-39.688 88.473-88.473 88.473z"/><path d="m471 0h-430c-22.607 0-41 18.393-41 41v291.082c0 22.608 18.393 41 41 41h44.917l19.455 4.421c3.03 10.078 7.072 19.826 12.074 29.114l-11.296 17.94c-2.736 4.346-2.101 10.007 1.53 13.639l42.275 42.275c3.632 3.632 9.294 4.268 13.639 1.53l17.94-11.295c9.289 5.001 19.038 9.044 29.114 12.073l4.695 20.658c1.138 5.008 5.591 8.562 10.727 8.562h59.786c5.136 0 9.588-3.554 10.727-8.562l4.695-20.658c10.076-3.029 19.825-7.072 29.114-12.073l17.94 11.295c4.345 2.736 10.007 2.102 13.639-1.53l42.275-42.275c3.631-3.632 4.267-9.293 1.53-13.639l-11.296-17.94c5.001-9.288 9.044-19.037 12.074-29.114l19.455-4.421h44.991c22.607 0 41-18.393 41-41v-291.082c0-22.607-18.393-41-41-41zm-430 22h430c10.477 0 19 8.523 19 19v47h-468v-47c0-10.477 8.523-19 19-19zm372.774 331.302-18.502 4.205c-4.031.917-7.208 4.016-8.225 8.023-3.183 12.554-8.171 24.584-14.828 35.757-2.116 3.552-2.062 7.992.142 11.491l10.12 16.072-29.858 29.857-16.072-10.119c-3.5-2.204-7.939-2.258-11.49-.142-11.174 6.657-23.205 11.645-35.757 14.827-4.008 1.016-7.107 4.193-8.024 8.225l-4.204 18.502h-42.225l-4.205-18.502c-.917-4.031-4.016-7.209-8.024-8.225-12.553-3.182-24.583-8.171-35.756-14.827-3.553-2.117-7.993-2.062-11.491.142l-16.072 10.119-29.858-29.857 10.12-16.072c2.203-3.499 2.258-7.938.142-11.491-6.656-11.171-11.645-23.202-14.828-35.757-1.016-4.007-4.193-7.106-8.225-8.023l-18.502-4.205v-42.225l18.502-4.205c4.031-.917 7.208-4.016 8.225-8.023 3.183-12.555 8.172-24.585 14.828-35.756 2.116-3.552 2.062-7.992-.142-11.491l-10.12-16.072 29.858-29.858 16.072 10.12c3.499 2.203 7.938 2.258 11.491.142 11.173-6.656 23.204-11.645 35.756-14.827 4.008-1.016 7.107-4.193 8.024-8.225l4.205-18.502h42.225l4.205 18.502c.917 4.032 4.016 7.209 8.024 8.225 12.552 3.182 24.583 8.17 35.757 14.827 3.552 2.116 7.991 2.061 11.49-.142l16.072-10.12 29.858 29.858-10.12 16.072c-2.203 3.499-2.258 7.938-.142 11.491 6.656 11.173 11.645 23.203 14.828 35.756 1.016 4.008 4.193 7.107 8.225 8.023l18.502 4.205v42.225zm57.226-2.219h-35.226v-48.787c0-5.136-3.554-9.588-8.562-10.727l-20.658-4.695c-3.029-10.077-7.072-19.826-12.074-29.114l11.296-17.94c2.736-4.346 2.101-10.007-1.53-13.639l-42.275-42.275c-3.632-3.632-9.295-4.267-13.639-1.53l-17.94 11.296c-9.289-5.001-19.038-9.044-29.114-12.073l-4.695-20.658c-1.138-5.008-5.591-8.562-10.727-8.562h-59.786c-5.136 0-9.588 3.554-10.727 8.562l-4.695 20.658c-10.077 3.029-19.826 7.072-29.114 12.073l-17.94-11.296c-4.346-2.736-10.007-2.101-13.639 1.53l-42.275 42.275c-3.631 3.632-4.267 9.293-1.53 13.639l11.296 17.94c-5.002 9.288-9.044 19.036-12.074 29.114l-20.658 4.695c-5.008 1.138-8.562 5.591-8.562 10.727v48.787h-35.152c-10.477 0-19-8.523-19-19v-222.083h468v222.082c0 10.477-8.523 19.001-19 19.001z"/></g></g><g/><g/><g/><g/><g/><g/><g/><g/><g/><g/><g/><g/><g/><g/><g/></svg>