<svg id="Layer_1" enable-background="new 0 0 512 512" viewBox="0 0 512 512" xmlns="http://www.w3.org/2000/svg" fill="#E6ECF2"><g><g><path d="m278.262 178.312c-12.355-6.906-26.931-6.606-38.988.804l-57.091 35.088c-14.647 9.002-23.393 24.64-23.393 41.831s8.745 32.829 23.393 41.831l57.091 35.088c6.262 3.849 13.202 5.78 20.157 5.78 6.439 0 12.892-1.655 18.831-4.976 12.352-6.907 19.726-19.479 19.726-33.629v-88.189c-.001-14.15-7.375-26.721-19.726-33.628zm-2.275 121.817c0 6.07-3.164 11.463-8.463 14.427-5.303 2.963-11.557 2.835-16.731-.345l-57.091-35.089c-8.085-4.969-12.912-13.6-12.912-23.088s4.827-18.119 12.912-23.088l57.091-35.088c2.688-1.651 5.666-2.479 8.65-2.479 2.764 0 5.532.71 8.081 2.135 5.299 2.964 8.463 8.356 8.463 14.426z"/><path d="m437.019 75.012c-48.352-48.343-112.639-74.967-181.019-74.967-68.379 0-132.667 26.624-181.019 74.967s-74.981 112.62-74.981 180.988 26.629 132.645 74.981 180.988 112.639 74.967 181.019 74.967 132.667-26.624 181.019-74.967 74.981-112.62 74.981-180.988-26.629-132.645-74.981-180.988zm-181.019 414.943c-129.028 0-234-104.952-234-233.955s104.972-233.955 234-233.955 234 104.952 234 233.955-104.972 233.955-234 233.955z"/><path d="m256 54.184c-111.301 0-201.852 90.534-201.852 201.816s90.551 201.816 201.852 201.816c111.302 0 201.852-90.534 201.852-201.816s-90.55-201.816-201.852-201.816zm0 381.632c-99.17 0-179.852-80.665-179.852-179.816s80.682-179.816 179.852-179.816c99.171 0 179.852 80.665 179.852 179.816s-80.681 179.816-179.852 179.816z"/><path d="m332.25 338.702c-6.075 0-11-4.925-11-11v-143.335c0-6.075 4.925-11 11-11s11 4.925 11 11v143.335c0 6.075-4.925 11-11 11z" fill="#0496FF"/></g></g><g/><g/><g/><g/><g/><g/><g/><g/><g/><g/><g/><g/><g/><g/><g/></svg>