<svg id="Layer_1" enable-background="new 0 0 512 512" viewBox="0 0 512 512" xmlns="http://www.w3.org/2000/svg" fill="#E6ECF2"><g><g><path d="m453.904 103.116h-395.808c-32.034 0-58.096 26.062-58.096 58.096v189.563c0 32.042 26.068 58.109 58.11 58.109h395.78c32.042 0 58.11-26.067 58.11-58.109v-189.563c0-32.034-26.062-58.096-58.096-58.096zm-431.904 58.096c0-19.903 16.192-36.096 36.096-36.096h395.809c19.903 0 36.096 16.192 36.096 36.096v143.563c0 19.903-16.192 36.096-36.096 36.096h-395.809c-19.904 0-36.096-16.193-36.096-36.096zm431.89 225.672h-395.78c-19.911 0-36.11-16.198-36.11-36.109v-.508c9.92 7.887 22.467 12.605 36.096 12.605h395.809c13.629 0 26.176-4.717 36.096-12.605v.508c-.001 19.911-16.2 36.109-36.111 36.109z"/><path d="m221 274.954c1.289.491 2.612.724 3.914.724 4.432 0 8.609-2.699 10.281-7.087l.031-.081h28.101l.019.049c2.145 5.683 8.491 8.552 14.176 6.406 5.684-2.146 8.552-8.492 6.406-14.176l-22.961-60.823c-.038-.101-.077-.2-.118-.3-1.92-4.667-6.419-7.682-11.466-7.682h-.011c-5.051.004-9.551 3.028-11.464 7.703-.034.083-.067.167-.099.25l-23.171 60.82c-2.164 5.678.685 12.034 6.362 14.197zm34.021-28.444h-11.414l5.733-15.048z"/><path d="m133.241 274.871c5.982 1.068 11.693-2.918 12.76-8.898l3.696-20.731 6.104 20.686c.039.13.08.261.123.39 1.7 5.059 6.416 8.446 11.748 8.446h.063c5.358-.027 10.07-3.468 11.726-8.563.042-.127.08-.255.117-.383l5.887-20.643 3.947 20.91c.997 5.28 5.613 8.961 10.797 8.961.677 0 1.363-.062 2.053-.193 5.97-1.127 9.896-6.88 8.769-12.85l-11.488-60.853c-.01-.052-.02-.105-.031-.157-1.124-5.51-5.83-9.581-11.445-9.898-5.606-.324-10.75 3.197-12.487 8.546-.041.126-.08.253-.116.381l-7.948 27.871-8.257-27.979c-.039-.131-.08-.262-.124-.392-1.793-5.332-6.967-8.789-12.578-8.417-5.613.377-10.276 4.498-11.34 10.022-.009.05-.019.1-.027.149l-10.846 60.834c-1.068 5.982 2.916 11.695 8.897 12.761z"/><path d="m331.268 275.312c.786.135 1.257.216 8.324.216 3.346 0 8.172-.019 15.208-.058 6.075-.034 10.972-4.986 10.938-11.062-.034-6.054-4.952-10.938-10.999-10.938h-.063c-3.539.02-7.247.036-10.547.044v-51.442c0-6.075-4.925-11-11-11s-11 4.925-11 11v62.398c.001 5.358 3.859 9.935 9.139 10.842z"/><path d="m301.022 275.523c6.075 0 11-4.925 11-11v-62.45c0-6.075-4.925-11-11-11s-11 4.925-11 11v62.45c0 6.076 4.925 11 11 11z"/><path d="m54.871 275.523h25.764c6.075 0 11-4.925 11-11s-4.925-11-11-11h-14.764v-9.324h12.865c6.075 0 11-4.925 11-11s-4.925-11-11-11h-12.865v-8.563h14.764c6.075 0 11-4.925 11-11s-4.925-11-11-11h-25.764c-6.075 0-11 4.925-11 11v61.887c0 6.076 4.925 11 11 11z"/><path d="m105.85 244.83h6.821c6.075 0 11-4.925 11-11s-4.925-11-11-11h-6.821c-6.075 0-11 4.925-11 11s4.925 11 11 11z"/></g><path d="m457.129 188.009h-69.171c-6.075 0-11 4.925-11 11v68.028c0 6.075 4.925 11 11 11h69.171c6.075 0 11-4.925 11-11v-68.028c0-6.075-4.925-11-11-11zm-20.151 22-14.435 12.548-14.435-12.548zm-38.02 46.029v-24.833l16.369 14.229c2.069 1.799 4.643 2.698 7.216 2.698s5.147-.899 7.216-2.698l16.37-14.229v24.833z" fill="#0496FF"/></g><g/><g/><g/><g/><g/><g/><g/><g/><g/><g/><g/><g/><g/><g/><g/></svg>