<svg id="Capa_1" enable-background="new 0 0 512 512" viewBox="0 0 512 512" xmlns="http://www.w3.org/2000/svg" fill="#052438"><g><g><path d="m396.003 242c6.075 0 11-4.925 11-11v-88c0-6.075-4.925-11-11-11h-10.001v-22h10.001c6.075 0 11-4.925 11-11v-88c0-6.075-4.925-11-11-11h-280.006c-6.075 0-11 4.925-11 11v88c0 6.075 4.925 11 11 11h10.001v22h-10.001c-6.075 0-11 4.925-11 11v88c0 6.075 4.925 11 11 11h107.003v165h22v-165h22v165h22v-165zm-269.006-220h258.006v66h-258.006zm21.001 88h216.004v22h-216.004zm-21.001 44h258.006v66h-258.006z"/><path d="m352.002 176h-108c-6.075 0-11 4.925-11 11s4.925 11 11 11h108c6.075 0 11-4.925 11-11s-4.924-11-11-11z"/><path d="m244.003 66h108c6.075 0 11-4.925 11-11s-4.925-11-11-11h-108c-6.075 0-11 4.925-11 11s4.925 11 11 11z"/><path d="m312 479h131.41v22h-131.41z"/><path d="m312 435h131.41v22h-131.41z"/><path d="m69.026 435h130.975v22h-130.975z"/><path d="m69.026 479h130.975v22h-130.975z"/></g><g fill="#0496FF"><path d="m170.16 182.79c-2.694-7.099-12.73-9.078-17.94-3.57-6.891 6.799-1.908 18.858 7.781 18.78 7.58.224 13.279-8.288 10.159-15.21z"/><path d="m170.16 50.79c-2.694-7.099-12.73-9.078-17.94-3.57-6.891 6.804-1.91 18.849 7.781 18.78 7.581.217 13.28-8.284 10.159-15.21z"/><path d="m312 430h-18v-23c0-6.075-4.925-11-11-11h-54c-6.075 0-11 4.925-11 11v23h-18c-6.075 0-11 4.925-11 11v54c0 6.075 4.925 11 11 11h112c6.075 0 11-4.925 11-11v-54c0-6.076-4.925-11-11-11zm-11 54h-90v-32h18c6.075 0 11-4.925 11-11v-23h32v23c0 6.075 4.925 11 11 11h18z"/><path d="m468 424c-24.262 0-44 19.738-44 44s19.738 44 44 44 44-19.738 44-44-19.739-44-44-44zm0 66c-12.131 0-22-9.869-22-22s9.869-22 22-22 22 9.869 22 22-9.87 22-22 22z"/><path d="m44 424c-24.262 0-44 19.738-44 44s19.738 44 44 44 44-19.738 44-44-19.738-44-44-44zm0 66c-12.131 0-22-9.869-22-22s9.869-22 22-22 22 9.869 22 22-9.869 22-22 22z"/></g></g><g/><g/><g/><g/><g/><g/><g/><g/><g/><g/><g/><g/><g/><g/><g/></svg>