<svg id="Capa_1" enable-background="new 0 0 512 512" viewBox="0 0 512 512" xmlns="http://www.w3.org/2000/svg" fill="#E6ECF2"><g><path d="m283.289 288.283c3.601-5.286 5.711-11.667 5.711-18.532 0-18.196-14.804-33-33-33s-33 14.804-33 33c0 6.865 2.109 13.245 5.711 18.532-15.589 9.322-26.054 26.365-26.054 45.812v4.25h22v-4.25c0-17.283 14.061-31.344 31.344-31.344s31.344 14.061 31.344 31.344v4.25h22v-4.25c-.001-19.447-10.466-36.49-26.056-45.812zm-38.289-18.532c0-6.066 4.935-11 11-11s11 4.935 11 11-4.935 11-11 11-11-4.935-11-11z" fill="#0496FF"/><g><path d="m433.42 149.663h-166.42v-72.663h-22v72.663h-166.42c-22.607 0-41 18.393-41 41v224.46c0 22.607 18.393 41 41 41h109.598l-15.398 33.877h-48.136c-6.075 0-11 4.925-11 11s4.925 11 11 11h262.713c6.075 0 11-4.925 11-11s-4.925-11-11-11h-48.137l-15.398-33.876h109.598c22.607 0 41-18.393 41-41v-224.46c0-22.608-18.393-41.001-41-41.001zm-354.84 22h166.42v21.779c-42.66 5.422-75.749 41.946-75.749 86.054 0 47.833 38.915 86.749 86.749 86.749s86.749-38.915 86.749-86.749c0-44.108-33.089-80.632-75.749-86.054v-21.779h166.42c10.477 0 19 8.523 19 19v196.667h-392.84v-196.667c0-10.476 8.524-19 19-19zm177.42 43.085c35.703 0 64.749 29.046 64.749 64.749s-29.046 64.748-64.749 64.748-64.749-29.046-64.749-64.749 29.046-64.748 64.749-64.748zm59.055 275.252h-118.11l15.398-33.876h87.313zm118.365-55.876h-354.84c-10.477 0-19-8.523-19-19v-5.793h392.84v5.793c0 10.476-8.524 19-19 19z"/><path d="m77 33h146v22h-146z"/><path d="m289 33h146v22h-146z"/></g><g fill="#0496FF"><path d="m256 0c-24.262 0-44 19.738-44 44s19.738 44 44 44 44-19.738 44-44-19.738-44-44-44zm0 66c-12.131 0-22-9.869-22-22s9.869-22 22-22 22 9.869 22 22-9.869 22-22 22z"/><path d="m468 0c-24.262 0-44 19.738-44 44s19.738 44 44 44 44-19.738 44-44-19.738-44-44-44zm0 66c-12.131 0-22-9.869-22-22s9.869-22 22-22 22 9.869 22 22-9.869 22-22 22z"/><path d="m44 0c-24.262 0-44 19.738-44 44s19.738 44 44 44 44-19.738 44-44-19.738-44-44-44zm0 66c-12.131 0-22-9.869-22-22s9.869-22 22-22 22 9.869 22 22-9.869 22-22 22z"/></g></g><g/><g/><g/><g/><g/><g/><g/><g/><g/><g/><g/><g/><g/><g/><g/></svg>