<svg id="Layer_1" enable-background="new 0 0 512 512" viewBox="0 0 512 512" xmlns="http://www.w3.org/2000/svg" fill="#E6ECF2"><g><g><path d="m453.904 103.116h-395.808c-32.034 0-58.096 26.062-58.096 58.096v189.563c0 32.042 26.068 58.109 58.11 58.109h395.78c32.042 0 58.11-26.067 58.11-58.109v-189.563c0-32.034-26.062-58.096-58.096-58.096zm-431.904 58.096c0-19.903 16.192-36.096 36.096-36.096h395.809c19.903 0 36.096 16.192 36.096 36.096v143.563c0 19.903-16.192 36.096-36.096 36.096h-395.809c-19.904 0-36.096-16.193-36.096-36.096zm431.89 225.672h-395.78c-19.911 0-36.11-16.198-36.11-36.109v-.508c9.92 7.887 22.467 12.605 36.096 12.605h395.809c13.629 0 26.176-4.717 36.096-12.605v.508c-.001 19.911-16.2 36.109-36.111 36.109z"/><path d="m57.935 268.629c5.094 3.254 10.831 4.908 17.055 4.917h.05c5.328 0 10.342-1.164 14.9-3.46 11.254-5.666 17.451-15.055 17.451-26.439v-41.557c0-6.075-4.925-11-11-11s-11 4.925-11 11v41.557c0 1.533 0 4.099-5.345 6.79-1.483.747-3.121 1.11-5.007 1.11h-.02c-1.997-.003-3.711-.479-5.241-1.457-4.085-2.609-4.409-4.369-4.409-6.398v-41.601c0-6.075-4.925-11-11-11s-11 4.925-11 11v41.601c0 10.373 4.901 18.764 14.566 24.937z"/><path d="m242.793 272.825c4.948 1.886 10.411-.037 13.164-4.321h29.25c2.036 3.167 5.553 5.045 9.25 5.044 1.291 0 2.604-.229 3.883-.712 5.684-2.146 8.552-8.492 6.406-14.176l-22.502-59.607c-.038-.102-.078-.204-.12-.305-1.917-4.654-6.406-7.66-11.438-7.66h-.011c-5.036.004-9.525 3.018-11.437 7.679-.035.085-.068.171-.102.257l-22.706 59.606c-2.163 5.677.686 12.032 6.363 14.195zm33.85-26.321h-12.051l6.053-15.888z"/><path d="m368.985 273.546h25.25c6.075 0 11-4.925 11-11s-4.925-11-11-11h-14.25v-7.952h12.388c6.075 0 11-4.925 11-11s-4.925-11-11-11h-12.388v-7.952h14.25c6.075 0 11-4.925 11-11s-4.925-11-11-11h-25.25c-6.075 0-11 4.925-11 11v59.904c0 6.075 4.925 11 11 11z"/><path d="m177.231 270.347c2.062 2.049 4.85 3.199 7.756 3.199h.041c.522-.002 12.853-.049 17.792-.134 20.231-.351 34.916-17.633 34.916-41.094 0-24.275-14.644-41.229-35.611-41.229h-17.262c-2.921 0-5.723 1.162-7.786 3.23-2.063 2.067-3.22 4.871-3.214 7.792l.124 60.457c.006 2.921 1.173 5.72 3.244 7.779zm24.894-57.258c12.63 0 13.611 14.718 13.611 19.229 0 9.391-4.111 18.938-13.296 19.097-1.564.027-3.957.05-6.476.07l-.079-38.395h6.24z"/><path d="m308.447 213.089h5.631v49.457c0 6.075 4.925 11 11 11s11-4.925 11-11v-49.457h5.767c6.075 0 11-4.925 11-11s-4.925-11-11-11h-33.397c-6.075 0-11 4.925-11 11s4.924 11 10.999 11z"/><path d="m123.755 273.546c6.075 0 11-4.925 11-11v-15.317c2.267-.01 4.402-.017 5.839-.017 15.66 0 28.4-12.588 28.4-28.061s-12.74-28.061-28.4-28.061h-16.839c-6.075 0-11 4.925-11 11v60.457c0 6.074 4.925 10.999 11 10.999zm11-60.457h5.839c3.409 0 6.4 2.832 6.4 6.061s-2.991 6.061-6.4 6.061c-1.438 0-3.571.007-5.839.017z"/><path d="m426.35 256.11c-1.955 0-3.936-.521-5.726-1.616-5.184-3.168-6.817-9.938-3.649-15.122l15.636-25.582c1.998-3.27 5.554-5.264 9.386-5.264 3.832 0 7.388 1.994 9.386 5.264l15.635 25.582c3.168 5.184 1.534 11.954-3.649 15.122-5.184 3.169-11.955 1.533-15.122-3.649l-6.249-10.225-6.25 10.225c-2.075 3.393-5.693 5.265-9.398 5.265z" fill="#0496FF"/></g></g><g/><g/><g/><g/><g/><g/><g/><g/><g/><g/><g/><g/><g/><g/><g/></svg>