<svg id="Capa_1" enable-background="new 0 0 512 512" viewBox="0 0 512 512" xmlns="http://www.w3.org/2000/svg" fill="#052438"><g><g><path d="m77 33h146v22h-146z"/><path d="m289 33h146v22h-146z"/><path d="m422.133 179.432h-155.133v-102.432h-22v102.432h-155.133c-22.607 0-41 18.393-41 41v208.696c0 22.607 18.393 41 41 41h134.648v-22h-134.648c-10.477 0-19-8.523-19-19v-208.696c0-10.477 8.523-19 19-19h58.087l28.826 48.614c1.981 3.341 5.578 5.39 9.462 5.39h254.891v173.693c0 10.477-8.523 19-19 19h-134.648v22h134.648c22.607 0 41-18.393 41-41v-208.697c0-22.608-18.392-41-41-41zm-229.625 54.004-18.977-32.004h248.602c10.477 0 19 8.523 19 19v13.003h-248.625z"/></g><g fill="#0496FF"><path d="m263.778 336.222c-4.296-4.296-11.261-4.296-15.557 0l-71.125 71.125c-3.146 3.146-4.087 7.877-2.384 11.988s5.713 6.791 10.163 6.791h28.64v74.874c0 6.075 4.925 11 11 11h62.971c6.075 0 11-4.925 11-11v-74.875h28.64c4.449 0 8.46-2.68 10.163-6.791s.762-8.842-2.384-11.988zm23.707 67.903c-6.075 0-11 4.925-11 11v74.875h-40.971v-74.875c0-6.075-4.925-11-11-11h-13.083l44.569-44.568 44.569 44.569h-13.084z"/><path d="m256 88c24.262 0 44-19.738 44-44s-19.738-44-44-44-44 19.738-44 44 19.738 44 44 44zm0-66c12.131 0 22 9.869 22 22s-9.869 22-22 22-22-9.869-22-22 9.869-22 22-22z"/><path d="m468 0c-24.262 0-44 19.738-44 44s19.738 44 44 44 44-19.738 44-44-19.738-44-44-44zm0 66c-12.131 0-22-9.869-22-22s9.869-22 22-22 22 9.869 22 22-9.869 22-22 22z"/><path d="m44 0c-24.262 0-44 19.738-44 44s19.738 44 44 44 44-19.738 44-44-19.738-44-44-44zm0 66c-12.131 0-22-9.869-22-22s9.869-22 22-22 22 9.869 22 22-9.869 22-22 22z"/></g></g><g/><g/><g/><g/><g/><g/><g/><g/><g/><g/><g/><g/><g/><g/><g/></svg>