<svg id="Capa_1" enable-background="new 0 0 512 512" viewBox="0 0 512 512" xmlns="http://www.w3.org/2000/svg" fill="#052438"><g><g fill="#0496FF"><path d="m408.584 105.602h-114.999v22h103.999v60.983h22v-71.983c0-6.075-4.925-11-11-11z"/><path d="m397.584 402h-146.581v22h157.581c6.075 0 11-4.925 11-11v-89.585h-22z"/><path d="m65.16 452.79c-2.675-7.091-12.74-9.084-17.931-3.57-6.903 6.796-1.915 18.846 7.771 18.78 7.584.217 13.287-8.285 10.16-15.21z"/><path d="m65.16 364.79c-3.145-8.024-14.649-9.153-19.301-1.9-4.916 7.1.518 17.24 9.141 17.11 7.581.215 13.284-8.287 10.16-15.21z"/><path d="m65.16 50.79c-3.168-8.032-14.634-9.153-19.311-1.9-4.895 7.115.515 17.231 9.151 17.11 7.639.154 13.248-8.21 10.16-15.21z"/></g><g><path d="m119.004 468h87.999c6.075 0 11-4.925 11-11s-4.925-11-11-11h-87.999c-6.075 0-11 4.925-11 11s4.925 11 11 11z"/><path d="m251.003 314h-240.003c-6.075 0-11 4.925-11 11v176c0 6.075 4.925 11 11 11h240.003c6.075 0 11-4.925 11-11v-176c0-6.076-4.925-11-11-11zm-229.003 22h218.003v66h-218.003zm218.003 154h-218.003v-66h218.003z"/><path d="m207.003 358h-87.999c-6.075 0-11 4.925-11 11s4.925 11 11 11h87.999c6.075 0 11-4.925 11-11s-4.925-11-11-11z"/><path d="m263.585 0h-222.585c-22.607 0-41 18.393-41 41v161.205c0 22.607 18.393 41 41 41h222.585c22.607 0 41-18.393 41-41v-161.205c0-22.607-18.393-41-41-41zm-222.585 22h222.585c10.477 0 19 8.523 19 19v47h-260.585v-47c0-10.477 8.523-19 19-19zm222.585 199.205h-222.585c-10.477 0-19-8.523-19-19v-92.205h260.585v92.205c0 10.477-8.523 19-19 19z"/><path d="m464.454 217.037c-8.275-23.269-30.632-39.452-55.87-39.452s-47.595 16.183-55.87 39.452c-27.22 5.479-47.546 29.62-47.546 58.101 0 32.685 26.591 59.276 59.276 59.276h88.279c32.686 0 59.276-26.591 59.276-59.276.001-28.481-20.325-52.622-47.545-58.101zm-11.73 95.378h-88.279c-20.555 0-37.276-16.722-37.276-37.276 0-19.605 15.312-35.94 34.858-37.188 4.938-.315 9.06-3.89 10.068-8.735 3.574-17.168 18.92-29.629 36.489-29.629s32.915 12.461 36.489 29.629c1.009 4.845 5.13 8.42 10.068 8.735 19.547 1.247 34.859 17.582 34.859 37.187 0 20.554-16.722 37.277-37.276 37.277z"/></g></g><g/><g/><g/><g/><g/><g/><g/><g/><g/><g/><g/><g/><g/><g/><g/></svg>