<svg id="Capa_1" enable-background="new 0 0 512 512" viewBox="0 0 512 512" xmlns="http://www.w3.org/2000/svg" fill="#E6ECF2"><g><g><path d="m402.365 329.271c-30.521 0-55.351 24.83-55.351 55.35s24.83 55.35 55.351 55.35c30.52 0 55.35-24.83 55.35-55.35s-24.83-55.35-55.35-55.35zm0 88.7c-18.39 0-33.351-14.961-33.351-33.35s14.961-33.35 33.351-33.35c18.389 0 33.35 14.961 33.35 33.35s-14.961 33.35-33.35 33.35z"/><path d="m503.438 356.428-9.514-2.162c-1.467-4.426-3.257-8.743-5.356-12.917l5.202-8.263c2.736-4.346 2.102-10.007-1.53-13.639l-24.701-24.701c-3.631-3.63-9.293-4.268-13.639-1.53l-8.263 5.202c-4.174-2.1-8.489-3.889-12.916-5.357l-2.163-9.514c-.813-3.577-3.321-6.403-6.557-7.731v-217.071c0-22.608-18.393-41-41-41h-342.001c-22.607 0-41 18.393-41 41v248.271c0 22.607 18.393 41 41 41h272.128c-.845 2.056-1.622 4.139-2.322 6.25l-9.513 2.162c-5.009 1.138-8.562 5.591-8.562 10.727v34.933c0 5.136 3.554 9.588 8.562 10.727l9.514 2.162c1.468 4.428 3.258 8.743 5.356 12.917l-5.202 8.263c-2.736 4.346-2.102 10.007 1.53 13.639l24.701 24.701c3.632 3.631 9.293 4.267 13.64 1.53l8.262-5.202c4.175 2.1 8.489 3.889 12.917 5.356l2.162 9.514c1.139 5.008 5.591 8.562 10.727 8.562h34.933c5.136 0 9.588-3.554 10.727-8.562l2.162-9.515c4.428-1.467 8.743-3.257 12.917-5.356l8.262 5.202c4.346 2.737 10.008 2.101 13.64-1.53l24.701-24.701c3.632-3.632 4.267-9.293 1.53-13.639l-5.202-8.263c2.1-4.174 3.89-8.49 5.356-12.917l9.515-2.162c5.008-1.139 8.562-5.591 8.562-10.727v-34.933c-.003-5.135-3.557-9.588-8.565-10.726zm-462.438-316.684h342.001c10.477 0 19 8.523 19 19v47h-380.001v-47c0-10.476 8.523-19 19-19zm-19 267.272v-179.271h380.001v147.241h-17.103c-5.136 0-9.588 3.554-10.727 8.562l-2.162 9.514c-4.427 1.468-8.743 3.257-12.917 5.357l-8.263-5.202c-4.346-2.738-10.008-2.102-13.639 1.53l-24.701 24.701c-1.82 1.82-2.887 4.15-3.154 6.569h-268.335c-10.477-.001-19-8.524-19-19.001zm468 86.291-7.252 1.648c-4.031.917-7.208 4.016-8.225 8.023-1.75 6.906-4.495 13.526-8.159 19.675-2.116 3.553-2.062 7.992.142 11.491l3.968 6.302-12.284 12.284-6.302-3.968c-3.501-2.204-7.941-2.258-11.491-.141-6.148 3.663-12.768 6.408-19.675 8.159-4.008 1.016-7.106 4.193-8.023 8.224l-1.648 7.252h-17.372l-1.647-7.251c-.916-4.032-4.016-7.209-8.023-8.225-6.907-1.751-13.527-4.496-19.676-8.159-3.552-2.117-7.992-2.062-11.491.141l-6.302 3.968-12.283-12.284 3.968-6.302c2.203-3.499 2.258-7.938.142-11.491-3.662-6.147-6.407-12.767-8.16-19.676-1.016-4.007-4.193-7.106-8.224-8.022l-7.251-1.648v-17.372l7.25-1.648c4.031-.917 7.209-4.015 8.225-8.022 1.753-6.909 4.498-13.529 8.16-19.677 2.116-3.553 2.062-7.992-.142-11.491l-3.968-6.302 12.283-12.283 6.303 3.968c3.499 2.203 7.937 2.257 11.49.142 6.148-3.663 12.769-6.408 19.676-8.16 4.008-1.016 7.107-4.193 8.023-8.225l1.647-7.25h17.372l1.648 7.251c.917 4.031 4.016 7.208 8.022 8.224 6.907 1.751 13.527 4.497 19.676 8.16 3.553 2.116 7.991 2.062 11.49-.142l6.303-3.968 12.283 12.283-3.968 6.302c-2.203 3.499-2.258 7.938-.142 11.491 3.664 6.15 6.409 12.77 8.159 19.675 1.017 4.008 4.193 7.107 8.226 8.024l7.251 1.648v17.372z"/></g><g fill="#0496FF"><path d="m65.16 68.54c-2.686-7.113-12.724-9.086-17.94-3.58-6.886 6.805-1.911 18.856 7.78 18.78 7.573.229 13.287-8.284 10.16-15.2z"/><path d="m92.89 81.89c7.103 4.903 17.252-.518 17.11-9.15.145-8.624-10.022-14.057-17.11-9.14-6.445 4.02-6.421 14.263 0 18.29z"/><path d="m132.84 76.95c2.698 7.096 12.729 9.091 17.94 3.57 6.194-5.992 2.859-17.031-5.63-18.56-8.423-1.845-15.749 7.085-12.31 14.99z"/><path d="m212 171.88c-18.196 0-33 14.804-33 33v44c0 18.196 14.804 33 33 33s33-14.804 33-33v-44c0-18.196-14.803-33-33-33zm11 77.001c0 6.065-4.935 11-11 11s-11-4.935-11-11v-44c0-6.066 4.935-11 11-11s11 4.935 11 11z"/><path d="m146 171.88c-6.075 0-11 4.925-11 11v33h-22v-33c0-6.075-4.925-11-11-11s-11 4.925-11 11v44c0 6.075 4.925 11 11 11h33v33c0 6.075 4.925 11 11 11s11-4.925 11-11v-88c0-6.075-4.924-11-11-11z"/><path d="m322.001 171.88c-6.075 0-11 4.925-11 11v33h-22v-33c0-6.075-4.925-11-11-11s-11 4.925-11 11v44c0 6.075 4.925 11 11 11h33v33c0 6.075 4.925 11 11 11s11-4.925 11-11v-88c0-6.075-4.925-11-11-11z"/></g></g><g/><g/><g/><g/><g/><g/><g/><g/><g/><g/><g/><g/><g/><g/><g/></svg>