<svg id="Capa_1" enable-background="new 0 0 512 512" viewBox="0 0 512 512" xmlns="http://www.w3.org/2000/svg" fill="#052438"><g><g><path d="m471 88h-3v-47c0-22.607-18.393-41-41-41h-342c-22.607 0-41 18.393-41 41v47h-3c-22.607 0-41 18.393-41 41v276c0 22.607 18.393 41 41 41h137.985l-20 44h-58.14c-6.075 0-11 4.925-11 11s4.925 11 11 11h310.311c6.075 0 11-4.925 11-11s-4.925-11-11-11h-58.14l-20-44h137.984c22.607 0 41-18.393 41-41v-276c0-22.607-18.393-41-41-41zm-405 22h380v179.271c0 10.477-8.523 19-19 19h-342c-10.477 0-19-8.523-19-19zm19-88h342c10.477 0 19 8.523 19 19v47h-380v-47c0-10.477 8.523-19 19-19zm-44 88h3v179.271c0 22.607 18.393 41 41 41h342c22.607 0 41-18.393 41-41v-179.271h3c10.477 0 19 8.523 19 19v243.271h-468v-243.271c0-10.476 8.523-19 19-19zm287.849 380h-145.698l20-44h105.698zm142.151-66h-430c-10.477 0-19-8.523-19-19v-10.728h468v10.728c0 10.477-8.523 19-19 19z"/></g><g fill="#0496FF"><path d="m92.89 64.14c6.192 4.402 15.617.496 16.9-6.99 1.957-9.491-8.874-16.731-16.9-11.3-6.425 4.02-6.436 14.277 0 18.29z"/><path d="m132.84 59.21c2.707 7.101 12.72 9.078 17.94 3.57 6.188-6.004 2.863-17.02-5.63-18.569-8.434-1.827-15.746 7.08-12.31 14.999z"/><path d="m180.89 64.14c6.177 4.4 15.639.498 16.89-6.99 1.988-9.483-8.877-16.737-16.89-11.3-6.424 4.02-6.438 14.275 0 18.29z"/><path d="m234.001 147.64h-44c-6.075 0-11 4.925-11 11s4.925 11 11 11h11v77c0 6.075 4.925 11 11 11s11-4.925 11-11v-77h11c6.075 0 11-4.925 11-11s-4.924-11-11-11z"/><path d="m325.424 148.186c-4.523-1.479-9.48.114-12.293 3.949l-13.129 17.905-13.129-17.905c-2.812-3.835-7.771-5.429-12.293-3.949-4.521 1.48-7.578 5.698-7.578 10.454v88c0 6.075 4.925 11 11 11s11-4.925 11-11v-54.397l2.129 2.904c2.072 2.826 5.367 4.495 8.871 4.495s6.798-1.669 8.871-4.495l2.129-2.904v54.397c0 6.075 4.925 11 11 11s11-4.925 11-11v-88c-.001-4.756-3.058-8.974-7.578-10.454z"/><path d="m410.004 235.64h-33.003v-77c0-6.075-4.925-11-11-11s-11 4.925-11 11v88c0 6.075 4.925 11 11 11h44.003c6.075 0 11-4.925 11-11s-4.924-11-11-11z"/><path d="m146.001 147.64c-6.075 0-11 4.925-11 11v33h-22v-33c0-6.075-4.925-11-11-11s-11 4.925-11 11v88c0 6.075 4.925 11 11 11s11-4.925 11-11v-33h22v33c0 6.075 4.925 11 11 11s11-4.925 11-11v-88c0-6.075-4.924-11-11-11z"/></g></g><g/><g/><g/><g/><g/><g/><g/><g/><g/><g/><g/><g/><g/><g/><g/></svg>