<svg id="Layer_1" enable-background="new 0 0 512 512" viewBox="0 0 512 512" xmlns="http://www.w3.org/2000/svg" fill="#052438"><g><g><path d="m453.904 88.177h-395.808c-32.034 0-58.096 26.062-58.096 58.096v219.439c0 32.042 26.068 58.11 58.11 58.11h395.78c32.042 0 58.11-26.068 58.11-58.11v-219.439c0-32.034-26.062-58.096-58.096-58.096zm-431.904 58.096c0-19.903 16.192-36.096 36.096-36.096h395.809c19.903 0 36.096 16.192 36.096 36.096v173.44c0 19.903-16.192 36.096-36.096 36.096h-395.809c-19.904 0-36.096-16.193-36.096-36.096zm431.89 255.55h-395.78c-19.911 0-36.11-16.199-36.11-36.11v-.508c9.92 7.887 22.467 12.604 36.096 12.604h395.809c13.629 0 26.176-4.717 36.096-12.604v.508c-.001 19.911-16.2 36.11-36.111 36.11z"/><path d="m61.205 281.729c5.679 2.163 12.032-.686 14.195-6.363l5.377-14.113h36.913l5.316 14.082c1.662 4.405 5.848 7.119 10.293 7.118 1.291 0 2.604-.229 3.883-.712 5.684-2.146 8.552-8.492 6.406-14.176l-32.13-85.115c-.038-.101-.078-.202-.119-.302-2.007-4.877-6.709-8.026-11.981-8.026h-.016c-5.278.006-9.979 3.167-11.978 8.052-.033.082-.066.165-.098.248l-32.425 85.111c-2.162 5.678.687 12.034 6.364 14.196zm38.113-69.144 10.067 26.668h-20.226z"/><path d="m159.683 279.251c2.062 2.049 4.85 3.199 7.756 3.199h.041c.745-.003 18.319-.07 25.342-.191 26.208-.454 45.23-23.153 45.23-53.972 0-32.397-18.543-54.164-46.143-54.164h-24.646c-2.921 0-5.723 1.162-7.786 3.23-2.063 2.067-3.22 4.871-3.214 7.792l.176 86.327c.005 2.921 1.172 5.72 3.244 7.779zm32.226-83.128c22.401 0 24.143 24.618 24.143 32.164 0 15.712-7.301 31.693-23.611 31.975-3.224.056-8.895.101-14.024.132l-.131-64.271z"/><path d="m254.494 279.251c2.062 2.049 4.85 3.199 7.756 3.199h.041c.745-.003 18.319-.07 25.342-.191 26.208-.454 45.23-23.153 45.23-53.972 0-32.397-18.543-54.164-46.143-54.164h-24.646c-2.921 0-5.723 1.162-7.786 3.23-2.063 2.067-3.22 4.871-3.214 7.792l.176 86.327c.006 2.921 1.173 5.72 3.244 7.779zm32.227-83.128c22.401 0 24.143 24.618 24.143 32.164 0 15.712-7.301 31.693-23.611 31.975-3.224.056-8.895.101-14.024.132l-.131-64.271z"/></g><path d="m446.879 218.836h-22.504v-22.495c0-6.075-4.925-11-11-11s-11 4.925-11 11v22.495h-22.505c-6.075 0-11 4.925-11 11s4.925 11 11 11h22.505v22.495c0 6.075 4.925 11 11 11s11-4.925 11-11v-22.495h22.504c6.075 0 11-4.925 11-11s-4.925-11-11-11z" fill="#0496FF"/></g><g/><g/><g/><g/><g/><g/><g/><g/><g/><g/><g/><g/><g/><g/><g/></svg>