<svg id="Layer_1" enable-background="new 0 0 512 512" viewBox="0 0 512 512" xmlns="http://www.w3.org/2000/svg" fill="#E6ECF2"><g><g><path d="m453.904 93.157h-395.808c-32.034 0-58.096 26.062-58.096 58.096v209.48c0 32.042 26.068 58.109 58.11 58.109h395.78c32.042 0 58.11-26.068 58.11-58.109v-209.48c0-32.034-26.062-58.096-58.096-58.096zm-431.904 58.096c0-19.903 16.192-36.096 36.096-36.096h395.809c19.903 0 36.096 16.192 36.096 36.096v163.48c0 19.903-16.192 36.096-36.096 36.096h-395.809c-19.904 0-36.096-16.192-36.096-36.096zm431.89 245.59h-395.78c-19.911 0-36.11-16.199-36.11-36.109v-.509c9.92 7.887 22.467 12.604 36.096 12.604h395.809c13.629 0 26.176-4.717 36.096-12.604v.509c-.001 19.91-16.2 36.109-36.111 36.109z"/><path d="m211.613 286.232c6.075 0 11-4.925 11-11v-45.067l34.295 49.647c3.197 4.614 8.542 6.57 13.616 4.984 5.171-1.616 8.512-6.435 8.512-12.277 0-.036 0-.071 0-.106l-.752-77.783c-.059-6.076-5.041-10.949-11.106-10.893-6.075.059-10.952 5.031-10.893 11.106l.445 46.002-36.065-52.21c-2.736-3.96-7.729-5.682-12.325-4.25-4.596 1.433-7.726 5.688-7.726 10.501v80.345c-.001 6.077 4.924 11.001 10.999 11.001z"/><path d="m143.42 286.232h33.618c6.075 0 11-4.925 11-11s-4.925-11-11-11h-22.618v-17.88h20.139c6.075 0 11-4.925 11-11s-4.925-11-11-11h-20.139v-17.88h22.618c6.075 0 11-4.925 11-11s-4.925-11-11-11h-33.618c-6.075 0-11 4.925-11 11v79.761c0 6.075 4.925 10.999 11 10.999z"/><path d="m293.987 283.033c2.062 2.049 4.85 3.199 7.755 3.199h.042c.695-.003 17.086-.065 23.639-.179 24.862-.431 42.906-21.909 42.906-51.069 0-30.653-17.589-51.248-43.769-51.248h-22.982c-2.921 0-5.723 1.162-7.786 3.23-2.063 2.067-3.22 4.871-3.214 7.792l.165 80.496c.005 2.922 1.173 5.72 3.244 7.779zm30.573-77.296c20.199 0 21.769 22.386 21.769 29.248 0 14.287-6.582 28.817-21.287 29.072-2.849.049-7.747.089-12.323.119l-.12-58.438h11.961z"/><path d="m89.175 286.232c17.424 0 32.061-11.151 34.803-26.515 2.07-11.597-3.149-26.729-24.005-34.419-9.729-3.588-18.799-7.492-21.75-8.782-1.725-1.462-1.663-3.457-1.542-4.298.178-1.243 1.095-4.284 5.748-5.685 10.846-3.265 20.991 4.705 21.3 4.952 4.652 3.851 11.545 3.234 15.436-1.397 3.908-4.651 3.307-11.589-1.345-15.498-.776-.651-19.264-15.891-41.735-9.122-11.469 3.454-19.585 12.507-21.181 23.625-1.5 10.454 3.033 20.511 11.832 26.245.486.317.996.595 1.526.831.467.208 11.583 5.155 24.1 9.771 2.582.952 10.929 4.48 9.959 9.912-.735 4.119-5.854 8.38-13.146 8.38-7.744 0-15.187-3.11-19.91-8.32-4.08-4.501-11.037-4.842-15.538-.761-4.501 4.08-4.842 11.037-.761 15.538 8.956 9.878 22.154 15.543 36.209 15.543z"/></g><path d="m458.662 227.206-30.142-30.141c-4.296-4.296-11.261-4.295-15.557 0-4.296 4.296-4.295 11.261 0 15.557l11.363 11.363h-25.164c-6.075 0-11 4.925-11 11s4.925 11 11 11h25.164l-11.363 11.363c-4.295 4.296-4.295 11.261 0 15.557 2.148 2.148 4.963 3.222 7.778 3.222s5.63-1.074 7.778-3.222l30.142-30.142c2.063-2.063 3.222-4.861 3.222-7.778s-1.158-5.716-3.221-7.779z" fill="#0496FF"/></g><g/><g/><g/><g/><g/><g/><g/><g/><g/><g/><g/><g/><g/><g/><g/></svg>