<svg id="Capa_1" enable-background="new 0 0 512 512" viewBox="0 0 512 512" xmlns="http://www.w3.org/2000/svg" fill="#E6ECF2"><g><g fill="#0496FF"><path d="m501 72.999h-179.999v22h168.999v150.001h-80.035v22h91.035c6.075 0 11-4.925 11-11v-172.001c0-6.075-4.925-11-11-11z"/><path d="m22 267h79.96v-22h-90.96c-6.075 0-11 4.925-11 11v172.001c0 6.075 4.925 11 11 11h179.999v-22h-168.999z"/><path d="m139.578 123.453c4.519 1.479 9.479-.114 12.293-3.949l13.129-17.906 13.131 17.905c2.111 2.88 5.434 4.496 8.872 4.496 1.141 0 2.294-.178 3.42-.547 4.521-1.48 7.578-5.698 7.578-10.454v-57.998c0-6.075-4.925-11-11-11s-11 4.925-11 11v24.397l-2.131-2.905c-2.071-2.826-5.366-4.495-8.87-4.495s-6.799 1.669-8.871 4.495l-2.129 2.904v-24.396c0-6.075-4.925-11-11-11s-11 4.925-11 11v57.999c0 4.756 3.058 8.974 7.578 10.454z"/><path d="m227.579 123.453c4.521 1.479 9.479-.114 12.293-3.949l13.129-17.905 13.129 17.905c2.112 2.88 5.435 4.496 8.873 4.496 1.141 0 2.294-.178 3.42-.547 4.521-1.48 7.578-5.698 7.578-10.454v-57.999c0-6.075-4.925-11-11-11s-11 4.925-11 11v24.396l-2.129-2.904c-2.072-2.826-5.367-4.495-8.871-4.495s-6.799 1.669-8.871 4.495l-2.129 2.904v-24.396c0-6.075-4.925-11-11-11s-11 4.925-11 11v57.999c0 4.756 3.058 8.974 7.578 10.454z"/><path d="m51.578 123.453c4.521 1.479 9.479-.114 12.293-3.949l13.129-17.905 13.129 17.905c2.112 2.88 5.435 4.496 8.873 4.496 1.141 0 2.294-.178 3.42-.547 4.521-1.48 7.578-5.698 7.578-10.454v-57.999c0-6.075-4.925-11-11-11s-11 4.925-11 11v24.396l-2.129-2.904c-2.072-2.826-5.367-4.495-8.871-4.495s-6.799 1.669-8.871 4.495l-2.129 2.904v-24.396c0-6.075-4.925-11-11-11s-11 4.925-11 11v57.999c0 4.756 3.058 8.974 7.578 10.454z"/><path d="m369 446h-11v-46.999c0-6.075-4.925-11-11-11h-22.001c-6.075 0-11 4.925-11 11s4.925 11 11 11h11.001v35.999h-11.001c-6.075 0-11 4.925-11 11s4.925 11 11 11h44.001c6.075 0 11-4.925 11-11s-4.925-11-11-11z"/><path d="m435 388.001c-18.196 0-33 14.804-33 33v13.999c0 18.196 14.804 33 33 33s33-14.804 33-33v-13.999c0-18.196-14.804-33-33-33zm11 46.999c0 6.065-4.935 11-11 11s-11-4.935-11-11v-13.999c0-6.065 4.935-11 11-11s11 4.935 11 11z"/><path d="m258.999 388.001c-18.196 0-33 14.804-33 33v13.999c0 18.196 14.804 33 33 33s33-14.804 33-33v-13.999c0-18.196-14.804-33-33-33zm11 46.999c0 6.065-4.935 11-11 11s-11-4.935-11-11v-13.999c0-6.065 4.935-11 11-11s11 4.935 11 11z"/><path d="m233.963 311c6.075 0 11-4.925 11-11v-41.403l23.161 46.323c1.894 3.788 5.743 6.082 9.836 6.082.838 0 1.687-.096 2.53-.295 4.965-1.172 8.473-5.604 8.473-10.706v-88c0-6.075-4.925-11-11-11s-11 4.925-11 11v41.403l-23.161-46.323c-2.281-4.563-7.401-6.96-12.366-5.786-4.965 1.172-8.473 5.604-8.473 10.706v88c0 6.074 4.925 10.999 11 10.999z"/><path d="m145.963 201c-6.075 0-11 4.925-11 11v88c0 6.075 4.925 11 11 11 30.327 0 55-24.673 55-55s-24.673-55-55-55zm11 86.115v-62.23c12.805 4.54 22 16.774 22 31.115s-9.195 26.575-22 31.115z"/><path d="m343.963 289h-22c-6.075 0-11 4.925-11 11s4.925 11 11 11h22c18.196 0 33-14.804 33-33s-14.804-33-33-33c-6.065 0-11-4.935-11-11s4.935-11 11-11h22c6.075 0 11-4.925 11-11s-4.925-11-11-11h-22c-18.196 0-33 14.804-33 33s14.804 33 33 33c6.065 0 11 4.935 11 11s-4.935 11-11 11z"/></g><path d="m501 344.001h-80.035v-187.002c0-6.075-4.925-11-11-11h-79.964v-134.999c0-6.075-4.925-11-11-11h-308.001c-6.075 0-11 4.925-11 11v145.999c0 6.075 4.925 11 11 11h80.035v187.003c0 6.075 4.925 11 11 11h79.964v134.998c0 6.075 4.925 11 11 11h308.001c6.075 0 11-4.925 11-11v-145.999c0-6.075-4.925-11-11-11zm-479-322.001h286.001v123.999h-286.001zm91.035 145.999h285.93v176.003h-285.93zm376.965 322.001h-286.001v-123.999h286.001z"/></g><g/><g/><g/><g/><g/><g/><g/><g/><g/><g/><g/><g/><g/><g/><g/></svg>