<svg id="Layer_1" enable-background="new 0 0 512 512" viewBox="0 0 512 512" xmlns="http://www.w3.org/2000/svg" fill="#E6ECF2"><g><g fill="#0496FF"><path d="m62.866 168.786c-5.628-2.285-11.517-2.33-13.802 3.299-10.824 26.664-16.311 54.897-16.311 83.915 0 28.119 5.162 55.537 15.344 81.492 1.701 4.336 7.563 7.201 13.921 4.446 5.575-2.416 8.778-6.824 6.559-12.48-9.173-23.385-13.824-48.1-13.824-73.458 0-26.168 4.944-51.618 14.695-75.641 2.285-5.63-.953-9.288-6.582-11.573z"/><path d="m330.626 442.961c-23.729 9.48-48.837 14.287-74.626 14.287-25.503 0-50.351-4.704-73.852-13.98-5.654-2.23-12.041.542-14.271 6.193s.542 12.04 6.192 14.271c26.085 10.296 53.649 15.516 81.93 15.516 28.598 0 56.451-5.335 82.788-15.857 5.642-2.254 8.388-8.654 6.134-14.296s-8.656-8.387-14.295-6.134z"/><path d="m463.282 172.939c-2.262-5.638-8.661-8.377-14.305-6.115-5.639 2.261-8.376 8.666-6.115 14.304 9.545 23.799 14.385 48.99 14.385 74.871 0 25.85-4.828 51.011-14.35 74.784-2.259 5.64.481 12.042 6.121 14.301 1.341.537 2.725.792 4.086.792 4.364 0 8.493-2.614 10.215-6.913 10.569-26.386 15.928-54.299 15.928-82.964 0-28.699-5.371-56.644-15.965-83.06z"/><path d="m177.849 69.607c1.349 0 2.72-.25 4.05-.776 23.574-9.342 48.506-14.079 74.102-14.079 25.595 0 50.525 4.736 74.102 14.078 5.648 2.238 12.041-.526 14.278-6.174 2.238-5.648-.526-12.041-6.175-14.279-26.167-10.368-53.825-15.625-82.206-15.625-28.383 0-56.041 5.257-82.207 15.625-5.647 2.238-8.412 8.631-6.174 14.279 1.711 4.319 5.851 6.951 10.23 6.951z"/><path d="m379.7 217.867-111.266-53.19c-7.901-3.777-16.966-3.778-24.869 0l-111.265 53.19c-5.83 2.787-9.478 8.761-9.292 15.22.186 6.458 4.169 12.213 10.097 14.64l31.961 13.277v54.137c0 6.075 4.925 11 11 11h159.869c6.075 0 11-4.925 11-11v-54.137l20.064-8.335v27.582c0 6.075 4.925 11 11 11s11-4.925 11-11v-47.511c0-.077-.01-.151-.011-.227-.041-6.237-3.632-11.942-9.288-14.646zm-54.765 86.274h-137.87v-43.096l7.158-2.93c39.838-16.309 83.715-16.309 123.553 0l7.158 2.93v43.096zm10.969-62.378-9.793-4.009c-45.213-18.508-95.011-18.507-140.222 0l-9.794 4.009-22.887-9.507 99.845-47.731c1.873-.895 4.02-.895 5.893 0l99.845 47.731z"/></g><g><g><path d="m97.861 316.278c-53.961 0-97.861 43.901-97.861 97.861s43.9 97.861 97.861 97.861c53.96 0 97.86-43.9 97.86-97.861s-43.9-97.861-97.86-97.861zm-38.261 163.326c2.452-18.623 18.371-32.574 38.262-32.574 19.89 0 35.809 13.951 38.261 32.574-11.243 6.595-24.313 10.396-38.262 10.396s-27.02-3.801-38.261-10.396zm55.345-71.658c0 9.42-7.664 17.084-17.084 17.084s-17.084-7.664-17.084-17.084v-9.401c0-9.42 7.664-17.084 17.084-17.084s17.084 7.664 17.084 17.084zm39.917 56.169c-3-8.205-7.819-15.683-14.26-21.944-3.805-3.699-8.044-6.827-12.597-9.372 5.583-6.76 8.941-15.421 8.941-24.853v-9.401c0-21.551-17.533-39.084-39.084-39.084s-39.084 17.533-39.084 39.084v9.401c0 9.431 3.358 18.093 8.941 24.852-4.554 2.545-8.793 5.673-12.598 9.373-6.441 6.262-11.26 13.74-14.26 21.944-11.728-13.359-18.861-30.845-18.861-49.976 0-41.83 34.031-75.861 75.861-75.861 41.829 0 75.86 34.031 75.86 75.861.001 19.131-7.132 36.617-18.859 49.976z"/><path d="m414.139 316.278c-53.96 0-97.86 43.9-97.86 97.861s43.9 97.861 97.86 97.861c53.961 0 97.861-43.9 97.861-97.861s-43.9-97.861-97.861-97.861zm-38.261 163.326c2.452-18.623 18.371-32.574 38.262-32.574 19.89 0 35.809 13.951 38.261 32.574-11.242 6.595-24.313 10.396-38.262 10.396s-27.019-3.801-38.261-10.396zm21.177-71.658v-9.401c0-9.42 7.664-17.084 17.084-17.084s17.084 7.664 17.084 17.084v9.401c0 9.42-7.664 17.084-17.084 17.084s-17.084-7.664-17.084-17.084zm74.085 56.169c-3-8.205-7.819-15.683-14.26-21.944-3.805-3.699-8.045-6.828-12.598-9.372 5.583-6.76 8.941-15.421 8.941-24.852v-9.401c0-21.551-17.533-39.084-39.084-39.084s-39.084 17.533-39.084 39.084v9.401c0 9.431 3.358 18.093 8.941 24.853-4.553 2.545-8.792 5.673-12.597 9.372-6.441 6.262-11.26 13.74-14.26 21.944-11.727-13.359-18.86-30.845-18.86-49.976 0-41.83 34.031-75.861 75.86-75.861 41.83 0 75.861 34.031 75.861 75.861 0 19.13-7.133 36.616-18.86 49.975z"/><path d="m97.861 0c-53.961 0-97.861 43.9-97.861 97.861s43.9 97.861 97.861 97.861c53.96 0 97.86-43.9 97.86-97.861s-43.9-97.861-97.86-97.861zm-38.261 163.325c2.452-18.623 18.371-32.574 38.262-32.574 19.89 0 35.809 13.951 38.261 32.574-11.242 6.596-24.312 10.396-38.261 10.396-13.95.001-27.021-3.8-38.262-10.396zm55.345-71.658c0 9.42-7.664 17.084-17.084 17.084s-17.084-7.664-17.084-17.084v-9.401c0-9.42 7.664-17.084 17.084-17.084s17.084 7.664 17.084 17.084zm39.917 56.169c-3-8.205-7.819-15.683-14.26-21.944-3.805-3.699-8.044-6.827-12.597-9.372 5.583-6.76 8.941-15.421 8.941-24.853v-9.401c0-21.551-17.533-39.084-39.084-39.084s-39.085 17.533-39.085 39.084v9.401c0 9.431 3.358 18.093 8.941 24.852-4.554 2.545-8.793 5.673-12.598 9.373-6.441 6.262-11.26 13.74-14.26 21.944-11.727-13.358-18.86-30.845-18.86-49.975 0-41.83 34.031-75.861 75.861-75.861 41.829 0 75.86 34.031 75.86 75.861.001 19.13-7.132 36.617-18.859 49.975z"/><path d="m414.139 195.722c53.961 0 97.861-43.9 97.861-97.861s-43.9-97.861-97.861-97.861c-53.96 0-97.86 43.9-97.86 97.861s43.9 97.861 97.86 97.861zm-38.261-32.397c2.452-18.623 18.371-32.574 38.262-32.574 19.89 0 35.809 13.951 38.261 32.574-11.242 6.596-24.313 10.396-38.262 10.396-13.949.001-27.019-3.8-38.261-10.396zm21.177-71.658v-9.401c0-9.42 7.664-17.084 17.084-17.084s17.084 7.664 17.084 17.084v9.401c0 9.42-7.664 17.084-17.084 17.084s-17.084-7.664-17.084-17.084zm17.084-69.667c41.83 0 75.861 34.031 75.861 75.861 0 19.131-7.133 36.617-18.86 49.976-3-8.205-7.819-15.683-14.26-21.944-3.805-3.699-8.045-6.828-12.598-9.372 5.583-6.76 8.941-15.421 8.941-24.852v-9.401c0-21.551-17.533-39.084-39.084-39.084s-39.084 17.533-39.084 39.084v9.401c0 9.431 3.358 18.093 8.941 24.853-4.553 2.545-8.792 5.673-12.597 9.372-6.441 6.262-11.26 13.74-14.26 21.944-11.727-13.359-18.86-30.845-18.86-49.976-.001-41.831 34.031-75.862 75.86-75.862z"/></g></g></g><g/><g/><g/><g/><g/><g/><g/><g/><g/><g/><g/><g/><g/><g/><g/></svg>