<svg id="Layer_1" enable-background="new 0 0 512 512" viewBox="0 0 512 512" xmlns="http://www.w3.org/2000/svg" fill="#E6ECF2"><g><g><path d="m287.918 440.78c7.107-7.728 11.456-18.03 11.456-29.331v-10.839c0-23.917-19.458-43.374-43.374-43.374s-43.374 19.458-43.374 43.374v10.838c0 11.302 4.349 21.604 11.456 29.331-21.549 11.468-36.259 34.154-36.259 60.22 0 6.075 4.925 11 11 11h114.355c6.075 0 11-4.925 11-11 0-26.065-14.711-48.751-36.26-60.219zm-53.292-29.332v-10.838c0-11.786 9.588-21.374 21.374-21.374s21.374 9.588 21.374 21.374v10.838c0 11.786-9.588 21.374-21.374 21.374s-21.374-9.588-21.374-21.374zm-23.48 78.552c4.947-20.17 23.18-35.178 44.854-35.178s39.907 15.008 44.854 35.178z"/><path d="m124.896 440.78c7.107-7.728 11.456-18.03 11.456-29.332v-10.838c0-23.917-19.458-43.374-43.375-43.374s-43.374 19.458-43.374 43.374v10.838c0 11.302 4.349 21.604 11.456 29.331-21.549 11.469-36.26 34.155-36.26 60.221 0 6.075 4.925 11 11 11h114.355c6.075 0 11-4.925 11-11 .001-26.066-14.709-48.752-36.258-60.22zm-53.293-29.332v-10.838c0-11.786 9.588-21.374 21.375-21.374 11.786 0 21.374 9.588 21.374 21.374v10.838c0 11.786-9.588 21.374-21.375 21.374-11.786 0-21.374-9.588-21.374-21.374zm-23.48 78.552c4.947-20.17 23.181-35.178 44.854-35.178s39.907 15.008 44.854 35.178z"/><path d="m450.941 440.78c7.107-7.728 11.456-18.03 11.456-29.332v-10.838c0-23.917-19.458-43.374-43.375-43.374s-43.374 19.458-43.374 43.374v10.838c0 11.302 4.349 21.604 11.456 29.331-21.549 11.468-36.259 34.154-36.259 60.22 0 6.075 4.925 11 11 11h114.355c6.075 0 11-4.925 11-11 .001-26.065-14.71-48.751-36.259-60.219zm-53.293-29.332v-10.838c0-11.786 9.588-21.374 21.375-21.374 11.786 0 21.374 9.588 21.374 21.374v10.838c0 11.786-9.588 21.374-21.374 21.374-11.786 0-21.375-9.588-21.375-21.374zm-23.479 78.552c4.947-20.17 23.18-35.178 44.854-35.178s39.907 15.008 44.854 35.178z"/><path d="m464.12 263.292h-3.787v-232.292c0-17.093-13.907-31-31-31h-346.666c-17.093 0-31 13.907-31 31v232.292h-3.787c-13.352 0-24.214 10.863-24.214 24.215v.13c0 29.996 24.404 54.4 54.4 54.4h355.868c29.996 0 54.4-24.404 54.4-54.4v-.13c0-13.352-10.862-24.215-24.214-24.215zm-58.744 0v-43.823h32.957v43.823zm-298.752-131.646h-32.957v-43.823h32.957zm-32.957 22h32.957v43.823h-32.957zm54.957-131.646h254.752v241.292h-254.752zm276.752 131.646h32.957v43.823h-32.957zm32.957-22h-32.957v-43.823h32.957zm0-100.646v34.823h-32.957v-43.823h23.957c4.962 0 9 4.038 9 9zm-355.666-9h23.957v43.823h-32.957v-34.823c0-4.962 4.038-9 9-9zm-9 197.469h32.957v43.823h-32.957zm392.667 68.168c0 17.865-14.535 32.4-32.4 32.4h-355.868c-17.865 0-32.4-14.535-32.4-32.4v-.13c0-1.221.993-2.215 2.214-2.215h416.24c1.221 0 2.214.994 2.214 2.215z"/></g><path d="m364.214 131.622c.01-6.561-3.823-12.58-9.739-15.398l-89.316-42.698c-5.82-2.782-12.496-2.782-18.316 0l-89.316 42.698c-5.688 2.719-9.416 8.319-9.728 14.616-.313 6.297 2.843 12.239 8.234 15.507.034.021.067.041.101.061l24.854 14.704v42.961c0 6.075 4.925 11 11 11h128.026c6.075 0 11-4.925 11-11v-42.961l11.21-6.632v14.413c0 6.075 4.925 11 11 11s11-4.925 11-11c-.01-.24.017-37.07-.01-37.271zm-55.201 61.449h-106.026v-30.851l4.372-1.79c31.367-12.841 65.916-12.841 97.283 0l4.372 1.79v30.851zm10.106-50.486-6.143-2.515c-36.741-15.041-77.211-15.041-113.953 0l-6.143 2.515-17.65-10.442 80.77-38.611 80.769 38.611z" fill="#0496FF"/></g><g/><g/><g/><g/><g/><g/><g/><g/><g/><g/><g/><g/><g/><g/><g/></svg>