<svg id="Layer_1" enable-background="new 0 0 512 512" viewBox="0 0 512 512" xmlns="http://www.w3.org/2000/svg" fill="#E6ECF2"><g><g><path d="m477.19 177.063c19.194 0 34.81-15.616 34.81-34.81v-51.959c0-19.194-15.616-34.81-34.81-34.81h-93.951c-19.194 0-34.81 15.616-34.81 34.81v19.369h-184.858v-19.369c0-19.194-15.616-34.81-34.81-34.81h-93.951c-19.194 0-34.81 15.616-34.81 34.81v51.958c0 19.194 15.616 34.81 34.81 34.81h11.722v43.576h-11.722c-19.194 0-34.81 15.616-34.81 34.81v51.958c0 19.194 15.616 34.81 34.81 34.81h11.722v40.774c0 16.779 13.651 30.43 30.43 30.43h141.702l-10.035 21.095h-46.28c-6.075 0-11 4.925-11 11s4.925 11 11 11h187.302c6.075 0 11-4.925 11-11s-4.925-11-11-11h-46.28l-10.035-21.095h141.702c16.779 0 30.43-13.651 30.43-30.43v-40.774h11.722c19.194 0 34.81-15.616 34.81-34.81v-51.958c0-19.194-15.616-34.81-34.81-34.81h-11.722v-43.576h11.722zm-106.761-86.769c0-7.063 5.747-12.81 12.81-12.81h93.951c7.063 0 12.81 5.747 12.81 12.81v51.958c0 7.063-5.747 12.81-12.81 12.81h-48.452c-2.947 0-5.771 1.183-7.838 3.282l-15.526 15.769c-.271.275-.647.433-1.033.433-.798 0-1.448-.65-1.448-1.448v-7.035c0-6.075-4.925-11-11-11h-8.654c-7.063 0-12.81-5.747-12.81-12.81zm-348.429 51.958v-51.958c0-7.063 5.747-12.81 12.81-12.81h93.951c7.063 0 12.81 5.747 12.81 12.81v51.958c0 7.063-5.747 12.81-12.81 12.81h-8.654c-6.075 0-11 4.925-11 11v7.035c0 .798-.65 1.448-1.448 1.448-.385 0-.762-.158-1.032-.432l-15.527-15.768c-2.067-2.1-4.891-3.282-7.838-3.282h-48.452c-7.063 0-12.81-5.747-12.81-12.811zm0 165.155v-51.958c0-7.063 5.747-12.81 12.81-12.81h93.951c7.063 0 12.81 5.747 12.81 12.81v51.958c0 7.063-5.747 12.81-12.81 12.81h-8.654c-6.075 0-11 4.925-11 11v11.315c0 .55-.447.997-.997.997-.299 0-.58-.132-.77-.363l-15.585-18.938c-2.089-2.539-5.205-4.01-8.494-4.01h-48.451c-7.063-.001-12.81-5.748-12.81-12.811zm257.008 127.109h-46.017l10.035-21.095h25.948zm210.992-179.067v51.958c0 7.063-5.747 12.81-12.81 12.81h-48.452c-3.289 0-6.404 1.471-8.494 4.01l-15.585 18.938c-.19.231-.471.363-.77.363-.55 0-.997-.447-.997-.997v-11.315c0-6.075-4.925-11-11-11h-8.654c-7.063 0-12.81-5.747-12.81-12.81v-51.958c0-7.063 5.747-12.81 12.81-12.81h93.951c7.064.001 12.811 5.747 12.811 12.811zm-46.532-34.81h-60.229c-19.194 0-34.81 15.616-34.81 34.81v51.958c0 18.406 14.359 33.521 32.464 34.732v.393c0 12.681 10.316 22.997 22.997 22.997 6.9 0 13.372-3.056 17.757-8.384l12.285-14.928h9.537v40.774c0 4.648-3.782 8.43-8.43 8.43h-358.077c-4.648 0-8.43-3.782-8.43-8.43v-40.774h9.537l12.285 14.928c4.385 5.328 10.857 8.384 17.757 8.384 12.681 0 22.997-10.316 22.997-22.997v-.393c18.104-1.211 32.464-16.326 32.464-34.732v-51.958c0-19.194-15.616-34.81-34.81-34.81h-60.23v-43.576h10.124l12.296 12.487c4.378 4.446 10.468 6.996 16.708 6.996 11.599 0 21.258-8.464 23.123-19.542 18.258-1.05 32.79-16.236 32.79-34.752v-10.589h184.857v10.589c0 18.516 14.532 33.702 32.79 34.752 1.865 11.077 11.523 19.542 23.123 19.542 6.239 0 12.329-2.55 16.708-6.997l12.295-12.487h10.124v43.577z"/><path d="m330.504 334.024h-110.38c-6.075 0-11 4.925-11 11s4.925 11 11 11h110.38c6.075 0 11-4.925 11-11s-4.924-11-11-11z"/></g><g fill="#0496FF"><path d="m313.297 206.275-79.013-45.618c-8.009-4.625-17.572-4.624-25.58 0s-12.79 12.905-12.79 22.152v91.236c0 9.248 4.781 17.529 12.79 22.153 4.004 2.312 8.397 3.468 12.79 3.468s8.786-1.156 12.79-3.468l79.013-45.618c8.009-4.624 12.79-12.905 12.79-22.153s-4.781-17.528-12.79-22.152zm-11 25.253-79.013 45.618c-1.558.899-2.912.387-3.58 0-.668-.386-1.79-1.302-1.79-3.1v-91.236c0-1.798 1.121-2.714 1.79-3.1.395-.228 1.028-.5 1.801-.5.537 0 1.141.131 1.779.5l79.013 45.618c1.557.899 1.79 2.328 1.79 3.1s-.233 2.201-1.79 3.1z"/><path d="m217.289 322.097c-6.075 0-11 4.925-11 11v.928h-24.793c-6.075 0-11 4.925-11 11s4.925 11 11 11h24.793v.928c0 6.075 4.925 11 11 11s11-4.925 11-11v-23.855c0-6.077-4.925-11.001-11-11.001z"/></g></g><g/><g/><g/><g/><g/><g/><g/><g/><g/><g/><g/><g/><g/><g/><g/></svg>