<svg id="Layer_1" enable-background="new 0 0 512 512" viewBox="0 0 512 512" xmlns="http://www.w3.org/2000/svg" fill="#052438"><g><g fill="#0496FF"><path d="m451 269.051h-145.25v-34.95c0-6.075-4.925-11-11-11s-11 4.925-11 11v45.95c0 6.075 4.925 11 11 11h145.25v48.521c0 6.075 4.925 11 11 11s11-4.925 11-11v-59.521c0-6.076-4.925-11-11-11z"/><path d="m239.75 223.101c-6.075 0-11 4.925-11 11v34.95h-47.75c-6.075 0-11 4.925-11 11v45.949c0 6.075 4.925 11 11 11s11-4.925 11-11v-34.949h47.75c6.075 0 11-4.925 11-11v-45.95c0-6.075-4.925-11-11-11z"/></g><g><path d="m472.429 333.572h-42.857c-21.819 0-39.571 17.751-39.571 39.571v64.286c0 33.635 27.364 61 61 61s61-27.364 61-61v-64.286c-.001-21.82-17.753-39.571-39.572-39.571zm17.571 39.571v19.357h-28v-36.928h10.429c9.688 0 17.571 7.882 17.571 17.571zm-60.429-17.571h10.429v36.928h-28v-19.357c0-9.689 7.883-17.571 17.571-17.571zm21.429 120.857c-21.505 0-39-17.495-39-39v-22.929h78v22.929c0 21.504-17.495 39-39 39z"/><path d="m331 320h-300c-17.094 0-31 13.907-31 31v130c0 17.093 13.906 31 31 31h300c17.094 0 31-13.906 31-31v-130c0-17.093-13.906-31-31-31zm9 161c0 4.962-4.037 9-9 9h-300c-4.963 0-9-4.037-9-9v-130c0-4.962 4.037-9 9-9h300c4.963 0 9 4.038 9 9z"/><path d="m61 387h14.117c6.075 0 11-4.925 11-11s-4.925-11-11-11h-14.117c-6.075 0-11 4.925-11 11s4.925 11 11 11z"/><path d="m117.471 387h14.117c6.075 0 11-4.925 11-11s-4.925-11-11-11h-14.117c-6.075 0-11 4.925-11 11s4.925 11 11 11z"/><path d="m173.941 387h14.117c6.075 0 11-4.925 11-11s-4.925-11-11-11h-14.117c-6.075 0-11 4.925-11 11s4.925 11 11 11z"/><path d="m230.412 387h14.117c6.075 0 11-4.925 11-11s-4.925-11-11-11h-14.117c-6.075 0-11 4.925-11 11s4.925 11 11 11z"/><path d="m301 365h-14.117c-6.075 0-11 4.925-11 11s4.925 11 11 11h14.117c6.075 0 11-4.925 11-11s-4.925-11-11-11z"/><path d="m114.353 416c0-6.075-4.925-11-11-11h-14.118c-6.075 0-11 4.925-11 11s4.925 11 11 11h14.117c6.076 0 11.001-4.925 11.001-11z"/><path d="m134.706 416c0 6.075 4.925 11 11 11h14.117c6.075 0 11-4.925 11-11s-4.925-11-11-11h-14.117c-6.075 0-11 4.925-11 11z"/><path d="m227.294 416c0-6.075-4.925-11-11-11h-14.117c-6.075 0-11 4.925-11 11s4.925 11 11 11h14.117c6.075 0 11-4.925 11-11z"/><path d="m283.765 416c0-6.075-4.925-11-11-11h-14.117c-6.075 0-11 4.925-11 11s4.925 11 11 11h14.117c6.075 0 11-4.925 11-11z"/><path d="m75.117 445h-14.117c-6.075 0-11 4.925-11 11s4.925 11 11 11h14.117c6.075 0 11-4.925 11-11s-4.925-11-11-11z"/><path d="m188.059 445h-70.589c-6.075 0-11 4.925-11 11s4.925 11 11 11h70.589c6.075 0 11-4.925 11-11s-4.925-11-11-11z"/><path d="m244.529 445h-14.117c-6.075 0-11 4.925-11 11s4.925 11 11 11h14.117c6.075 0 11-4.925 11-11s-4.925-11-11-11z"/><path d="m301 445h-14.117c-6.075 0-11 4.925-11 11s4.925 11 11 11h14.117c6.075 0 11-4.925 11-11s-4.925-11-11-11z"/><path d="m451.237 91.252c4.228-1.644 7.013-5.715 7.013-10.252s-2.785-8.608-7.013-10.252l-180-70c-2.564-.997-5.41-.997-7.975 0l-179.772 69.912c-4.274 1.523-7.276 5.755-7.24 10.34v65c0 6.075 4.925 11 11 11s11-4.925 11-11v-48.92l58 22.556v84.569c0 3.93 2.097 7.562 5.5 9.526 32.034 18.494 68.516 28.269 105.501 28.269 36.984 0 73.466-9.775 105.5-28.268 3.403-1.965 5.5-5.596 5.5-9.526v-84.571zm-183.987-68.449 149.65 58.197-149.65 58.197-121.365-47.197h121.365c6.075 0 11-4.925 11-11s-4.925-11-11-11h-121.365zm89.001 174.93c-27.336 14.585-57.971 22.267-89 22.267-31.03 0-61.665-7.682-89.001-22.269v-69.54l85.013 33.06c2.564.997 5.41.997 7.975 0l85.014-33.061v69.543z"/></g><path d="m87.25 140c-18.472 0-33.5 15.028-33.5 33.5v37.5c0 6.075 4.925 11 11 11h45c6.075 0 11-4.925 11-11v-37.5c0-18.472-15.028-33.5-33.5-33.5zm11.5 60h-23v-26.5c0-6.341 5.159-11.5 11.5-11.5s11.5 5.159 11.5 11.5z" fill="#0496FF"/></g><g/><g/><g/><g/><g/><g/><g/><g/><g/><g/><g/><g/><g/><g/><g/></svg>