<svg id="Layer_1" enable-background="new 0 0 512.002 512.002" viewBox="0 0 512.002 512.002" xmlns="http://www.w3.org/2000/svg" fill="#052438"><g><path d="m507.128 373.127-22.444-15.052v-84.396c0-14.181-8.371-27.072-21.325-32.84l-39.54-17.606v-22.808c0-17.093-13.907-31-31-31h-273.635c-17.093 0-31 13.907-31 31v22.808l-39.54 17.606c-12.955 5.768-21.325 18.659-21.325 32.84v84.396l-22.445 15.052c-5.034 3.376-6.388 10.188-3.029 15.233l52.731 79.182c3.19 4.992 10.415 6.437 15.282 3.039l40.455-27.129h14.611c13.335 0 26.491-4.489 37.046-12.639l53.107-41.011h81.848l53.107 41.011c10.555 8.15 23.711 12.639 37.046 12.639h14.611l40.454 27.129c4.868 3.399 12.093 1.953 15.283-3.039l52.731-79.182c3.359-5.045 2.005-11.857-3.029-15.233zm-396.944-172.702c0-4.962 4.038-9 9-9h273.635c4.962 0 9 4.038 9 9v13.013l-10.195-4.54c-12.607-5.614-27.416-.394-33.716 11.885-5.963 11.623-6.882 24.819-2.586 37.156s13.211 22.109 25.104 27.515l21.394 9.724v63.622c0 4.962-4.038 9-9 9h-273.636c-4.962 0-9-4.038-9-9v-63.622l17.346-7.884v22.54c0 6.075 4.925 11 11 11s11-4.925 11-11v-38.607c3.033-3.959 5.457-8.419 7.152-13.288 4.295-12.337 3.377-25.533-2.587-37.156-6.299-12.278-21.107-17.5-33.716-11.885l-10.195 4.54zm38.34 212.974c-6.724 5.192-15.105 8.052-23.6 8.052h-17.958c-2.182 0-4.314.649-6.127 1.864l-34.068 22.847-40.537-60.871 18.211-12.213c3.005-1.999 4.887-5.526 4.873-9.136v-90.264c0-5.502 3.248-10.504 8.274-12.742l71.736-31.941c1.942-.865 4.224-.06 5.193 1.831 3.191 6.219 3.682 13.278 1.384 19.879s-7.068 11.829-13.431 14.721l-49.214 22.37c-5.531 2.514-7.976 9.035-5.462 14.566 2.513 5.53 9.031 7.976 14.566 5.462l5.82-2.645v53.622c0 17.093 13.907 31 31 31h59.899zm296.707 32.764-34.069-22.847c-1.812-1.215-3.944-1.864-6.126-1.864h-17.958c-8.495 0-16.876-2.859-23.6-8.051l-30.559-23.599h59.9c17.093 0 31-13.907 31-31v-53.622l5.82 2.645c5.53 2.514 12.053.067 14.566-5.462 2.514-5.531.068-12.052-5.462-14.566l-49.214-22.369c-6.363-2.892-11.133-8.12-13.431-14.721s-1.807-13.661 1.384-19.879c.97-1.891 3.25-2.694 5.193-1.831l71.735 31.941c5.026 2.238 8.274 7.24 8.274 12.742v90.264c-.014 3.609 1.868 7.136 4.873 9.136l18.211 12.213z"/><g fill="#0496FF"><path d="m323.836 67.733c-18.163-18.16-42.254-28.161-67.835-28.161s-49.672 10.001-67.835 28.161c-4.296 4.295-4.297 11.26-.001 15.556 4.294 4.296 11.259 4.297 15.556.001 14.008-14.005 32.575-21.718 52.28-21.718s38.272 7.713 52.28 21.718c2.148 2.147 4.962 3.221 7.777 3.221s5.631-1.074 7.779-3.223c4.296-4.294 4.295-11.259-.001-15.555z"/><path d="m306.106 259.456-66.525-38.408c-7.287-4.207-15.988-4.208-23.275 0-7.287 4.207-11.638 11.742-11.638 20.157v76.816c0 8.415 4.351 15.95 11.638 20.157 3.644 2.104 7.64 3.156 11.638 3.156 3.997 0 7.995-1.052 11.638-3.155l66.525-38.408c7.287-4.207 11.638-11.742 11.638-20.157s-4.352-15.95-11.639-20.158zm-11 21.262-66.525 38.408c-.174.102-.639.369-1.275 0-.638-.368-.638-.903-.638-1.104v-76.816c0-.201 0-.736.638-1.104.243-.141.461-.188.647-.188.302 0 .52.126.628.188l66.525 38.408c.175.101.638.369.638 1.104-.001.736-.464 1.003-.638 1.104z"/><path d="m285.907 116.709c2.815 0 5.631-1.074 7.779-3.223 4.295-4.296 4.295-11.261-.001-15.556-10.079-10.077-23.461-15.626-37.684-15.626-14.222 0-27.605 5.549-37.684 15.626-4.296 4.295-4.297 11.26-.001 15.556 4.294 4.296 11.259 4.297 15.556.001 5.924-5.922 13.783-9.184 22.129-9.184s16.205 3.262 22.129 9.184c2.148 2.149 4.962 3.222 7.777 3.222z"/><circle cx="256.001" cy="135.661" r="11"/></g></g><g/><g/><g/><g/><g/><g/><g/><g/><g/><g/><g/><g/><g/><g/><g/></svg>