<svg id="Layer_1" enable-background="new 0 0 512 512" viewBox="0 0 512 512" xmlns="http://www.w3.org/2000/svg" fill="#052438"><g><g><path d="m461 202.999c-6.075 0-11 4.925-11 11v244.001h-428v-288h144c3.395 0 6.599-1.567 8.683-4.247l31.696-40.753h79.62c6.075 0 11-4.925 11-11s-4.925-11-11-11h-85c-3.395 0-6.599 1.567-8.683 4.247l-31.696 40.753h-138.62v-68h263.999c6.075 0 11-4.925 11-11s-4.925-11-11-11h-274.999c-6.075 0-11 4.925-11 11v400c0 6.075 4.925 11 11 11h450c6.075 0 11-4.925 11-11v-255.001c0-6.075-4.925-11-11-11z"/><path d="m56 102.999c-6.075 0-10.997 4.925-10.997 11s4.929 11 11.004 11 11-4.925 11-11-4.925-11-11-11z"/><path d="m101 102.999c-6.075 0-10.996 4.925-10.996 11s4.928 11 11.003 11 11-4.925 11-11-4.925-11-11-11z"/><path d="m145.999 102.999c-6.075 0-10.996 4.925-10.996 11s4.929 11 11.004 11 11-4.925 11-11-4.925-11-11-11z"/><path d="m72 219.999h213.999c6.075 0 11-4.925 11-11s-4.925-11-11-11h-224.999c-6.075 0-11 4.925-11 11v210.001c0 6.075 4.925 11 11 11h350c6.075 0 11-4.925 11-11v-205.001c0-6.075-4.925-11-11-11s-11 4.925-11 11v194.001h-328z"/></g><g fill="#0496FF"><path d="m269.229 291.946-40.164-23.157c-8.279-4.772-18.448-4.833-26.54-.158-7.746 4.475-12.371 12.547-12.371 21.593v47.305c0 9.104 4.745 17.279 12.692 21.869 4.006 2.314 8.393 3.471 12.771 3.471 4.335 0 8.664-1.135 12.601-3.407l40.813-23.549c8.025-4.631 12.817-12.909 12.815-22.144-.002-9.112-4.719-17.27-12.617-21.823zm-11.193 24.91-40.813 23.549c-1.424.822-2.726.315-3.374-.059-.633-.365-1.695-1.218-1.695-2.818v-47.305c0-.814.156-1.839 1.376-2.544.529-.306 1.246-.524 2.061-.524.766 0 1.62.193 2.484.692l40.165 23.158c1.327.765 1.605 1.927 1.605 2.767.001.762-.234 2.176-1.809 3.084z"/><path d="m454.607 81.06h-69.231c-4.979 0-9.336 3.344-10.625 8.153l-7.729 28.848c-1.902-3.445-5.559-5.681-9.629-5.681h-20c-6.075 0-11 4.925-11 11s4.925 11 11 11h11.56l7.611 28.406c1.289 4.81 5.646 8.153 10.625 8.153s9.336-3.344 10.625-8.153l16.003-59.727h60.791c6.075 0 11-4.925 11-11s-4.926-10.999-11.001-10.999z"/><path d="m447.385 129.281c-4.296-4.295-11.261-4.295-15.557 0l-3.662 3.662-3.662-3.662c-4.296-4.295-11.261-4.295-15.557 0-4.295 4.296-4.295 11.261 0 15.557l3.662 3.662-3.662 3.662c-4.295 4.296-4.295 11.261 0 15.557 2.148 2.147 4.963 3.222 7.778 3.222s5.63-1.074 7.778-3.222l3.662-3.662 3.662 3.662c2.148 2.147 4.963 3.222 7.778 3.222s5.63-1.074 7.778-3.222c4.295-4.296 4.295-11.261 0-15.557l-3.662-3.662 3.662-3.662c4.298-4.296 4.298-11.261.002-15.557z"/><path d="m477 32h-162c-19.299 0-35 15.701-35 35v165.999c0 3.93 2.097 7.562 5.5 9.526 1.702.982 3.601 1.474 5.5 1.474s3.798-.491 5.5-1.474l39.016-22.526h141.484c19.299 0 35-15.7 35-34.999v-118c0-19.299-15.701-35-35-35zm13 153c0 7.168-5.832 12.999-13 12.999h-144.432c-1.931 0-3.828.508-5.5 1.474l-25.069 14.474v-146.947c0-7.168 5.832-13 13-13h162c7.168 0 13 5.832 13 13v118z"/></g></g><g/><g/><g/><g/><g/><g/><g/><g/><g/><g/><g/><g/><g/><g/><g/></svg>