<svg id="Layer_1" enable-background="new 0 0 512 512" viewBox="0 0 512 512" xmlns="http://www.w3.org/2000/svg" fill="#052438"><g><path d="m486.372 427.188h-5.367v-258.306c0-18.272-14.866-33.138-33.139-33.138h-78.379c1.192-6.636 1.815-13.468 1.815-20.442.001-63.577-51.724-115.302-115.302-115.302s-115.302 51.725-115.302 115.302c0 6.974.623 13.806 1.815 20.442h-78.379c-18.272 0-33.138 14.866-33.138 33.138v258.306h-5.368c-14.131 0-25.628 11.497-25.628 25.627v.144c0 32.556 26.485 59.041 59.041 59.041h393.919c32.555 0 59.04-26.485 59.04-59.041v-.144c0-14.13-11.497-25.627-25.628-25.627zm-66.2 0v-50.861h38.833v50.861zm0-123.722h38.833v50.861h-38.833zm38.833-22h-38.833v-50.861h38.833zm0-112.584v39.723h-38.833v-50.861h27.694c6.142 0 11.139 4.997 11.139 11.138zm-203.005-146.882c51.447 0 93.303 41.855 93.303 93.302s-41.856 93.303-93.303 93.303-93.302-41.855-93.302-93.303 41.855-93.302 93.302-93.302zm0 208.605c48.599 0 90.269-30.224 107.208-72.861h34.964v269.444h-284.344v-269.444h34.964c16.939 42.637 58.609 72.861 107.208 72.861zm-164.172 50.861h-38.832v-50.861h38.833v50.861zm-38.832 22h38.833v50.861h-38.833zm11.138-145.722h27.694v50.861h-38.832v-39.723c0-6.141 4.996-11.138 11.138-11.138zm-11.138 218.583h38.833v50.861h-38.833zm437.004 76.632c0 20.425-16.616 37.041-37.04 37.041h-393.919c-20.425 0-37.041-16.616-37.041-37.041v-.144c0-2 1.627-3.627 3.627-3.627h460.745c2 0 3.628 1.627 3.628 3.627z"/><g fill="#0496FF"><path d="m325.489 92.325c-18.606-18.603-43.284-28.848-69.489-28.848s-50.883 10.245-69.489 28.848c-4.296 4.295-4.297 11.26-.001 15.556 4.295 4.296 11.26 4.296 15.557.001 14.45-14.448 33.604-22.405 53.934-22.405s39.483 7.957 53.935 22.405c2.147 2.147 4.963 3.221 7.777 3.221 2.815 0 5.631-1.074 7.779-3.223 4.294-4.295 4.293-11.26-.003-15.555z"/><path d="m278.951 138.911c2.148 2.148 4.963 3.222 7.778 3.222s5.631-1.074 7.778-3.222c4.296-4.296 4.296-11.261 0-15.556-10.299-10.298-23.974-15.969-38.508-15.969-14.533 0-28.208 5.671-38.507 15.968-4.296 4.296-4.296 11.26-.001 15.557 4.295 4.295 11.26 4.296 15.557.001 6.144-6.143 14.294-9.526 22.952-9.526s16.809 3.382 22.951 9.525z"/><path d="m179.298 354.888h-16.601v-62.982c0-6.075-4.925-11-11-11s-11 4.925-11 11v73.982c0 6.075 4.925 11 11 11h27.601c6.075 0 11-4.925 11-11s-4.924-11-11-11z"/><path d="m360.303 354.888h-19.121v-14.991h15.753c6.075 0 11-4.925 11-11s-4.925-11-11-11h-15.753v-14.991h19.121c6.075 0 11-4.925 11-11s-4.925-11-11-11h-30.121c-6.075 0-11 4.925-11 11v73.982c0 6.075 4.925 11 11 11h30.121c6.075 0 11-4.925 11-11s-4.925-11-11-11z"/><path d="m216.232 280.905c-6.075 0-11 4.925-11 11v73.982c0 6.075 4.925 11 11 11s11-4.925 11-11v-73.982c0-6.075-4.924-11-11-11z"/><path d="m297.182 281.104c-5.969-1.153-11.733 2.757-12.881 8.723l-10.313 53.589-10.314-53.589c-1.147-5.966-6.912-9.869-12.881-8.723-5.965 1.148-9.871 6.915-8.723 12.881l12.891 66.977c1.805 9.377 9.629 15.927 19.027 15.927 9.397 0 17.222-6.549 19.026-15.927l12.891-66.977c1.148-5.966-2.758-11.734-8.723-12.881z"/><circle cx="256" cy="161.91" r="11"/></g></g><g/><g/><g/><g/><g/><g/><g/><g/><g/><g/><g/><g/><g/><g/><g/></svg>