<svg id="Layer_1" enable-background="new 0 0 512 512" viewBox="0 0 512 512" xmlns="http://www.w3.org/2000/svg" fill="#052438"><g><g><path d="m89.667 326.223h19.572v3.617c0 13.979 11.373 25.352 25.352 25.352 6.623 0 12.89-2.539 17.646-7.148l22.51-21.82h162.508l22.51 21.82c4.756 4.61 11.022 7.148 17.646 7.148 13.979 0 25.352-11.373 25.352-25.352v-3.617h19.572c17.094 0 31-13.907 31-31v-116.129c0-17.094-13.906-31-31-31h-332.668c-17.094 0-31 13.907-31 31v116.129c0 17.093 13.906 31 31 31zm-9-147.129c0-4.963 4.037-9 9-9h332.666c4.963 0 9 4.038 9 9v116.129c0 4.963-4.037 9-9 9h-30.572c-6.075 0-11 4.925-11 11v14.617c0 1.848-1.504 3.352-3.352 3.352-.876 0-1.704-.335-2.333-.945l-25.71-24.922c-2.053-1.989-4.798-3.102-7.656-3.102h-171.42c-2.858 0-5.604 1.112-7.656 3.102l-25.71 24.922c-.629.61-1.457.945-2.333.945-1.848 0-3.352-1.503-3.352-3.352v-14.617c0-6.075-4.925-11-11-11h-30.572c-4.963 0-9-4.037-9-9z"/><path d="m482.116 0h-452.232c-16.478 0-29.884 13.406-29.884 29.884v452.232c0 16.478 13.406 29.884 29.884 29.884h452.232c16.478 0 29.884-13.406 29.884-29.884v-452.232c0-16.478-13.406-29.884-29.884-29.884zm-414.124 490c4.812-17.418 20.755-30.063 39.569-30.063 18.656 0 34.715 12.689 39.563 30.063zm21.091-70.541v-9.869c0-10.189 8.289-18.478 18.478-18.478s18.479 8.289 18.479 18.478v9.869c0 10.189-8.289 18.478-18.479 18.478-10.189.001-18.478-8.289-18.478-18.478zm127.334 70.541c4.78-17.45 20.653-30.063 39.583-30.063 18.638 0 34.713 12.695 39.564 30.063zm21.104-70.541v-9.869c0-10.189 8.289-18.478 18.479-18.478s18.479 8.289 18.479 18.478v9.869c0 10.189-8.289 18.478-18.479 18.478s-18.479-8.289-18.479-18.478zm127.338 70.541c4.786-17.445 20.669-30.063 39.58-30.063 18.637 0 34.712 12.695 39.563 30.063zm21.102-70.541v-9.869c0-10.189 8.289-18.478 18.479-18.478 10.188 0 18.478 8.289 18.478 18.478v9.869c0 10.189-8.289 18.478-18.478 18.478-10.19.001-18.479-8.289-18.479-18.478zm104.039 62.657c0 4.347-3.537 7.884-7.884 7.884h-15.578c-3.365-18.987-15.309-34.997-31.52-44.064 6.159-7.104 9.899-16.359 9.899-26.477v-9.869c0-22.32-18.158-40.478-40.478-40.478s-40.479 18.158-40.479 40.478v9.869c0 10.069 3.704 19.284 9.81 26.374-16.28 9.02-28.104 25.035-31.433 44.167h-24.239c-3.365-18.987-15.309-34.997-31.52-44.064 6.159-7.104 9.899-16.359 9.899-26.477v-9.869c0-22.32-18.158-40.478-40.479-40.478s-40.479 18.158-40.479 40.478v9.869c0 10.066 3.701 19.277 9.804 26.367-16.285 9.018-28.104 25.032-31.429 44.174h-24.239c-3.364-18.996-15.297-35.007-31.512-44.07 6.156-7.103 9.894-16.355 9.894-26.47v-9.869c0-22.32-18.158-40.478-40.479-40.478-22.319 0-40.478 18.158-40.478 40.478v9.869c0 10.087 3.717 19.316 9.843 26.411-16.249 9.036-28.106 25.048-31.452 44.129h-15.587c-4.347 0-7.884-3.537-7.884-7.884v-370.689h468zm0-392.689h-468v-59.543c0-4.347 3.537-7.884 7.884-7.884h452.232c4.347 0 7.884 3.537 7.884 7.884z"/><circle cx="371.91" cy="55.022" r="11"/><circle cx="414.53" cy="55.022" r="11"/><circle cx="457.15" cy="55.022" r="11"/></g><g fill="#0496FF"><path d="m127.563 223.492h253.731c6.075 0 11-4.925 11-11s-4.925-11-11-11h-253.731c-6.075 0-11 4.925-11 11s4.924 11 11 11z"/><path d="m381.294 250.826h-253.731c-6.075 0-11 4.925-11 11s4.925 11 11 11h253.731c6.075 0 11-4.925 11-11s-4.925-11-11-11z"/></g></g><g/><g/><g/><g/><g/><g/><g/><g/><g/><g/><g/><g/><g/><g/><g/></svg>