<svg id="Layer_1" enable-background="new 0 0 512 512" viewBox="0 0 512 512" xmlns="http://www.w3.org/2000/svg" fill="#052438"><g><path d="m501 409.444h-8v-313.999c0-17.093-13.907-31-31-31h-106c-6.075 0-11 4.925-11 11s4.925 11 11 11h106c4.962 0 9 4.038 9 9v268.998h-94v-39.44c0-45.503-26.124-87.285-66.211-107.808 7.418-10.733 11.766-23.742 11.766-37.747v-35.556c0-6.075-4.925-11-11-11s-11 4.925-11 11v35.556c0 24.568-19.987 44.555-44.555 44.555s-44.556-19.987-44.556-44.555v-35.556c0-6.075-4.925-11-11-11s-11 4.925-11 11v35.556c0 14.004 4.348 27.012 11.765 37.745-40.107 20.516-66.209 62.231-66.209 107.81v39.44h-94v-268.998c0-4.962 4.038-9 9-9h106c6.075 0 11-4.925 11-11s-4.925-11-11-11h-106c-17.093 0-31 13.907-31 31v313.999h-8c-6.075 0-11 4.925-11 11v35c0 17.093 13.907 31 31 31h450c17.093 0 31-13.906 31-31v-35c0-6.075-4.925-11-11-11zm-344-84.441c0-39.661 24.179-75.755 60.619-91.209 10.853 7.687 24.099 12.209 38.381 12.209s27.527-4.522 38.38-12.209c36.42 15.453 60.62 51.612 60.62 91.209v39.44h-33v-32.797c0-6.075-4.925-11-11-11s-11 4.925-11 11v32.797h-87.999v-32.797c0-6.075-4.925-11-11-11s-11 4.925-11 11v32.797h-33v-39.44zm-116 61.44h430v23.001h-155c-2.917 0-5.715 1.159-7.778 3.222l-6.778 6.778h-90.887l-6.778-6.778c-2.063-2.063-4.861-3.222-7.778-3.222h-155.001zm449 69.001c0 4.962-4.038 9-9 9h-450c-4.962 0-9-4.037-9-9v-24h169.443l6.778 6.778c2.063 2.063 4.861 3.222 7.778 3.222h100c2.917 0 5.715-1.159 7.778-3.222l6.778-6.778h169.445z"/><path d="m359.986 65.193-99.999-38.889c-2.564-.997-5.409-.997-7.974 0l-99.769 38.799c-4.276 1.521-7.281 5.754-7.245 10.342v42.866c0 6.075 4.925 11 11 11s11-4.925 11-11v-26.786l22.444 8.728v43.638c0 3.93 2.097 7.562 5.5 9.526 18.539 10.703 39.651 16.36 61.056 16.36 21.404 0 42.516-5.657 61.055-16.359 3.404-1.965 5.5-5.596 5.5-9.526v-43.639l37.431-14.557c4.228-1.644 7.013-5.715 7.013-10.252s-2.784-8.607-7.012-10.251zm-59.43 72.123c-13.813 6.861-29.091 10.462-44.555 10.462-15.465 0-30.743-3.602-44.556-10.463v-28.506l40.569 15.777c1.282.499 2.634.748 3.987.748s2.705-.25 3.987-.748l40.568-15.777zm-44.556-34.785-69.65-27.086 69.65-27.086 69.65 27.086z" fill="#0496FF"/></g><g/><g/><g/><g/><g/><g/><g/><g/><g/><g/><g/><g/><g/><g/><g/></svg>