<svg id="Capa_1" enable-background="new 0 0 512 512" viewBox="0 0 512 512" xmlns="http://www.w3.org/2000/svg" fill="#052438"><g><g><g><path d="m309.632 512h-207.662c-6.075 0-11-4.925-11-11v-58.576c0-37.205-9.888-73.868-28.594-106.025l-16.222-28.189c-.03-.051-.059-.103-.087-.155-16.939-30.572-25.894-65.315-25.895-100.474-.001-55.42 21.598-107.542 60.818-146.766 39.213-39.217 91.318-60.815 146.715-60.815h.029c48.063.006 94.919 16.827 131.936 47.363 36.5 30.109 61.821 72.074 71.305 118.165l2.639 12.11c3.74 17.165 4.804 34.736 3.162 52.226-.641 6.831 1.014 13.793 4.659 19.604l45.644 72.749c3.106 4.95 4.749 10.658 4.749 16.504 0 17.082-13.895 31.011-30.975 31.05l-31.464.073c-1.591.004-2.885 1.302-2.885 2.895v38.945c0 35.572-28.905 64.512-64.434 64.512h-44.452c.499 7.664 1.446 15.294 2.832 22.81.592 3.212-.274 6.522-2.364 9.032s-5.188 3.962-8.454 3.962zm-196.662-22h183.853c-1.001-8.18-1.542-16.428-1.613-24.644-.025-2.934 1.123-5.789 3.188-7.872s4.877-3.288 7.811-3.288h55.86c23.398 0 42.434-19.071 42.434-42.512v-38.945c0-13.695 11.141-24.863 24.834-24.895l31.465-.073c4.977-.011 9.025-4.071 9.025-9.05 0-1.705-.479-3.368-1.384-4.811l-45.644-72.75c-6.203-9.887-9.018-21.732-7.927-33.353 1.43-15.233.504-30.537-2.754-45.485l-2.653-12.173c-.009-.043-.019-.086-.027-.129-8.466-41.214-31.112-78.747-63.768-105.686-33.086-27.293-74.971-42.328-117.939-42.334-.006 0-.02 0-.026 0-49.524 0-96.098 19.307-131.158 54.371-35.065 35.069-54.375 81.666-54.374 131.208.001 31.41 7.986 62.437 23.095 89.736l16.151 28.066c20.632 35.468 31.551 75.956 31.551 117.043z"/></g></g><g fill="#0496FF"><path d="m266.443 273.358c-1.449-18.399-17.603-32.198-35.997-30.739-18.398 1.45-32.188 17.598-30.738 35.997 1.386 18.443 17.845 32.251 35.997 30.739 18.398-1.45 32.188-17.598 30.738-35.997zm-44.804 3.53c-.497-6.306 4.229-11.84 10.535-12.337 3.059-.235 6.021.723 8.35 2.713 2.33 1.989 3.746 4.768 3.987 7.822.497 6.306-4.229 11.84-10.535 12.337-6.294.499-11.84-4.229-12.337-10.535z"/><path d="m219.349 101.76c-18.399 1.449-32.189 17.597-30.739 35.997 1.387 18.442 17.845 32.251 35.997 30.738 18.399-1.449 32.189-17.597 30.739-35.997-1.45-18.398-17.596-32.19-35.997-30.738zm11.352 40.817c-1.99 2.33-4.768 3.746-7.822 3.987-6.303.491-11.84-4.229-12.337-10.535s4.229-11.84 10.535-12.337c6.221-.518 11.862 4.215 12.337 10.535.24 3.054-.723 6.02-2.713 8.35z"/><path d="m379.541 205.468c0-83.95-68.298-152.248-152.248-152.248s-152.249 68.298-152.249 152.248 68.298 152.249 152.249 152.249c7.411-.108 14.709-.343 21.951-1.588 73.584-10.674 130.297-74.165 130.297-150.661zm-282.497 0c0-40.162 18.276-76.133 46.944-100.044-4.781 12.099-6.61 25.25-5.193 38.557 2.329 21.882 12.621 41.37 28.978 54.874 16.693 13.781 38.296 20.047 60.829 17.651 34.348-3.659 61.943 18.622 65.602 52.977 3.313 31.119-18.068 59.263-48.329 64.903-6.071.871-12.273 1.331-18.581 1.331-71.821-.001-130.25-58.43-130.25-130.249zm214.004 99.662c4.538-11.719 6.45-24.645 5.031-37.977-4.926-46.271-43.525-77.449-89.807-72.524-16.6 1.769-32.401-2.758-44.494-12.741-11.895-9.819-19.39-24.109-21.107-40.237-1.686-15.836 2.896-31.382 12.902-43.772 12.815-16.45 33.36-23.264 53.719-22.659 71.819 0 130.248 58.429 130.248 130.248.001 39.95-18.085 75.751-46.492 99.662z"/></g></g><g/><g/><g/><g/><g/><g/><g/><g/><g/><g/><g/><g/><g/><g/><g/></svg>