<svg id="Capa_1" enable-background="new 0 0 512 512" viewBox="0 0 512 512" xmlns="http://www.w3.org/2000/svg" fill="#E6ECF2"><g><path d="m487.079 322.217-45.644-72.749c-3.646-5.812-5.3-12.774-4.659-19.604 1.643-17.49.579-35.062-3.162-52.226l-2.639-12.11c-9.484-46.091-34.806-88.055-71.305-118.165-37.017-30.536-83.873-47.357-131.936-47.363-.01 0-.019 0-.029 0-55.397 0-107.502 21.598-146.715 60.815-39.22 39.224-60.819 91.346-60.817 146.765.001 35.159 8.955 69.902 25.895 100.474.029.052.058.104.087.155l16.222 28.189c18.706 32.157 28.594 68.82 28.594 106.025v58.577c0 6.075 4.925 11 11 11h207.662c3.267 0 6.364-1.452 8.454-3.962s2.956-5.82 2.364-9.032c-1.386-7.516-2.333-15.146-2.832-22.81h44.452c35.529 0 64.434-28.94 64.434-64.512v-38.945c0-1.593 1.294-2.891 2.885-2.895l31.464-.073c17.08-.039 30.975-13.968 30.975-31.05-.002-5.846-1.644-11.554-4.75-16.504zm-26.277 25.554-31.465.073c-13.693.032-24.834 11.2-24.834 24.895v38.945c0 23.441-19.036 42.512-42.434 42.512h-55.86c-2.934 0-5.746 1.205-7.811 3.288s-3.213 4.938-3.188 7.872c.07 8.216.611 16.464 1.613 24.644h-183.853v-47.576c0-41.087-10.919-81.575-31.551-117.043l-16.151-28.066c-15.109-27.299-23.094-58.326-23.095-89.736-.001-49.542 19.309-96.14 54.374-131.208 35.06-35.064 81.634-54.371 131.158-54.371h.026c42.968.006 84.853 15.041 117.939 42.334 32.656 26.938 55.302 64.472 63.768 105.686.009.043.018.086.027.129l2.653 12.173c3.258 14.949 4.184 30.252 2.754 45.485-1.091 11.621 1.724 23.466 7.927 33.353l45.644 72.75c.905 1.442 1.384 3.106 1.384 4.811 0 4.979-4.049 9.039-9.025 9.05z"/><g fill="#0496FF"><path d="m333.044 194.437c-5.228-3.141-10.713-5.652-16.356-7.531.307-13.191-2.588-26.24-8.538-38.164-1.757-3.521-5.261-5.835-9.19-6.069-12.022-.718-23.957 1.244-35.035 5.68-7.845-12.893-18.861-23.879-32.319-31.66-3.406-1.97-7.605-1.969-11.013.001-13.454 7.781-24.466 18.767-32.309 31.658-11.078-4.435-23.014-6.398-35.034-5.679-3.929.233-7.433 2.547-9.19 6.069-5.951 11.924-8.846 24.973-8.538 38.164-5.643 1.878-11.128 4.389-16.356 7.53-3.373 2.027-5.407 5.701-5.333 9.635.542 28.901 16.578 55.542 41.85 69.527 12.167 6.733 25.72 10.12 39.298 10.12 10.576 0 21.165-2.061 31.125-6.191 9.958 4.128 20.545 6.188 31.121 6.188 13.58 0 27.138-3.387 39.299-10.117 25.272-13.984 41.308-40.625 41.851-69.526.074-3.934-1.959-7.609-5.333-9.635zm-41.968-29.83c2.161 5.869 3.352 12.016 3.581 18.242-6.041-.257-12.118.166-18.127 1.283-.698-5.359-1.872-10.613-3.484-15.71 5.774-2.197 11.847-3.499 18.03-3.815zm-64.974-25.325c18.153 12.935 29.192 34.053 29.192 56.556s-11.039 43.622-29.192 56.557c-18.148-12.937-29.185-34.055-29.185-56.557s11.036-43.619 29.185-56.556zm-64.967 25.325c6.183.316 12.256 1.618 18.03 3.816-1.611 5.097-2.786 10.351-3.484 15.71-6.009-1.117-12.087-1.54-18.127-1.283.229-6.227 1.419-12.374 3.581-18.243zm5.2 89.743c-16.493-9.127-27.59-25.652-30.016-44.135 12.343-5.688 26.133-6.945 39.255-3.581 2.493 20.787 12.098 40.074 26.929 54.591-12.342 1.574-25.049-.723-36.168-6.875zm119.54 0c-11.114 6.151-23.827 8.449-36.171 6.874 14.833-14.516 24.439-33.802 26.933-54.59 13.122-3.364 26.913-2.107 39.255 3.581-2.427 18.483-13.524 35.008-30.017 44.135z"/><path d="m227.292 53.22c-83.95 0-152.249 68.298-152.249 152.248s68.298 152.249 152.249 152.249c83.95 0 152.248-68.298 152.248-152.249.001-83.95-68.298-152.248-152.248-152.248zm0 282.496c-71.819 0-130.249-58.429-130.249-130.249 0-71.819 58.429-130.248 130.249-130.248 71.819 0 130.248 58.429 130.248 130.248.001 71.82-58.429 130.249-130.248 130.249z"/></g></g><g/><g/><g/><g/><g/><g/><g/><g/><g/><g/><g/><g/><g/><g/><g/></svg>