<svg id="Capa_1" enable-background="new 0 0 512 512" viewBox="0 0 512 512" xmlns="http://www.w3.org/2000/svg" fill="#E6ECF2"><g><g><path d="m164.88 179.953c-5.552 0-10.11-3.563-10.712-9.208-.644-6.041 3.731-11.46 9.771-12.104 15.798-1.685 27.282-15.934 25.599-31.765-.842-7.926-4.41-14.879-10.046-19.579-5.827-4.859-13.312-6.956-21.647-6.07-14 1.491-27.444-2.428-37.859-11.039-10.19-8.425-16.599-20.557-18.044-34.161-2.965-27.89 17.431-51.776 45.287-54.746 6.043-.652 11.315 2.511 11.959 8.551.644 6.041-3.731 11.46-9.771 12.104-15.798 1.685-27.281 15.934-25.598 31.765.834 7.854 4.452 14.79 10.186 19.531 5.812 4.805 13.454 6.978 21.508 6.118 14.188-1.514 27.71 2.411 38.069 11.049 10.05 8.38 16.384 20.508 17.834 34.15 2.965 27.89-17.498 52.369-45.355 55.339-.397.044-.792.065-1.181.065z" fill="#0496FF"/></g><g><g><path d="m477.792 149.594c-18.862 0-34.207 15.372-34.207 34.266v79.209c-3.023-.862-6.181-1.316-9.411-1.316 0 0 0 0-.001 0-9.142 0-17.736 3.568-24.198 10.046l-61.463 61.615c-13.533 13.567-20.986 31.604-20.986 50.787v65.693c0 6.075 4.925 11 11 11s11-4.925 11-11v-65.693c0-13.317 5.172-25.836 14.562-35.25l61.463-61.615c2.305-2.311 5.367-3.583 8.623-3.583 3.255 0 6.316 1.272 8.622 3.583 4.775 4.788 4.775 12.578-.001 17.365l-57.284 57.426c-4.29 4.301-4.281 11.266.02 15.556 4.302 4.291 11.267 4.282 15.557-.019l57.284-57.426c10.167-10.192 12.565-25.259 7.214-37.761v-98.617c0-6.763 5.477-12.266 12.207-12.266 6.731 0 12.208 5.502 12.208 12.266v150.718c0 8.807-3.42 17.084-9.629 23.309l-51.733 51.862c-6.919 6.937-10.729 16.158-10.729 25.964v14.181c0 6.075 4.925 11 11 11s11-4.925 11-11v-14.181c0-3.941 1.529-7.644 4.306-10.427l51.733-51.862c10.35-10.378 16.051-24.174 16.051-38.846v-150.718c0-18.894-15.346-34.266-34.208-34.266z"/><path d="m102.025 271.799c-6.462-6.478-15.056-10.046-24.198-10.046-3.23 0-6.388.454-9.412 1.316v-79.209c0-18.894-15.346-34.266-34.208-34.266s-34.207 15.372-34.207 34.266v150.718c0 14.672 5.701 28.468 16.053 38.846l51.733 51.862c2.777 2.784 4.306 6.487 4.306 10.427v14.181c0 6.075 4.925 11 11 11s11-4.925 11-11v-14.181c0-9.806-3.811-19.027-10.73-25.964l-51.733-51.862c-6.21-6.224-9.629-14.502-9.629-23.309v-150.718c0-6.763 5.476-12.266 12.208-12.266s12.208 5.502 12.208 12.266v98.616c-5.352 12.502-2.954 27.57 7.213 37.762l57.284 57.426c4.29 4.302 11.255 4.309 15.556.019s4.31-11.255.019-15.556l-57.284-57.426c-4.776-4.788-4.776-12.578 0-17.365 2.305-2.311 5.367-3.583 8.623-3.583 3.255 0 6.317 1.272 8.622 3.583l61.462 61.615c9.391 9.414 14.562 21.933 14.562 35.25v65.693c0 6.075 4.925 11 11 11s11-4.925 11-11v-65.693c0-19.184-7.453-37.22-20.987-50.787z"/></g><g><path d="m154.075 181.303c-49.918 0-90.53-40.666-90.53-90.651s40.611-90.652 90.53-90.652 90.53 40.666 90.53 90.651-40.612 90.652-90.53 90.652zm0-159.303c-37.788 0-68.53 30.797-68.53 68.651s30.742 68.651 68.53 68.651 68.53-30.797 68.53-68.651-30.743-68.651-68.53-68.651z"/></g><g><path d="m357.925 181.303c-49.919 0-90.53-40.666-90.53-90.651s40.611-90.652 90.53-90.652 90.53 40.666 90.53 90.651-40.611 90.652-90.53 90.652zm0-159.303c-37.788 0-68.53 30.797-68.53 68.651s30.742 68.651 68.53 68.651 68.53-30.797 68.53-68.651-30.742-68.651-68.53-68.651z"/></g><g><path d="m256 358.129c-49.918 0-90.53-40.666-90.53-90.651s40.612-90.651 90.53-90.651c49.919 0 90.53 40.666 90.53 90.651s-40.611 90.651-90.53 90.651zm0-159.302c-37.788 0-68.53 30.797-68.53 68.651s30.743 68.651 68.53 68.651c37.788 0 68.53-30.797 68.53-68.651s-30.742-68.651-68.53-68.651z"/></g></g><g fill="#0496FF"><path d="m273.364 231.999c-6.312 0-12.326 1.941-17.364 5.544-5.037-3.602-11.051-5.544-17.365-5.544-8.008 0-15.535 3.124-21.196 8.797-11.667 11.694-11.667 30.722 0 42.416l30.774 30.842c2.063 2.068 4.865 3.23 7.787 3.23s5.724-1.162 7.787-3.23l30.773-30.842c11.668-11.694 11.668-30.722-.001-42.417-5.66-5.673-13.187-8.796-21.195-8.796zm5.622 35.674-22.986 23.037-22.987-23.038c-3.119-3.126-3.119-8.212 0-11.338 1.525-1.528 3.469-2.336 5.622-2.336s4.097.808 5.622 2.336l3.957 3.965c2.063 2.068 4.866 3.231 7.788 3.23 2.922 0 5.724-1.163 7.788-3.232l3.952-3.963c1.526-1.529 3.471-2.337 5.623-2.337 2.153 0 4.098.808 5.622 2.335 3.118 3.128 3.118 8.215-.001 11.341z"/><path d="m322.697 101.651h24.228v24.281c0 6.075 4.925 11 11 11s11-4.925 11-11v-24.281h24.229c6.075 0 11-4.925 11-11s-4.925-11-11-11h-24.229v-24.281c0-6.075-4.925-11-11-11s-11 4.925-11 11v24.282h-24.228c-6.075 0-11 4.925-11 11s4.925 10.999 11 10.999z"/><path d="m440.348 441.935h-113.263c-11.579 0-21 9.42-21 21v28.065c0 11.58 9.421 21 21 21h113.263c11.579 0 21-9.42 21-21v-28.065c0-11.58-9.421-21-21-21zm-1 48.065h-111.263v-26.065h111.263z"/><path d="m184.915 441.935h-113.263c-11.58 0-21 9.42-21 21v28.065c0 11.58 9.42 21 21 21h113.263c11.58 0 21-9.42 21-21v-28.065c0-11.58-9.421-21-21-21zm-1 48.065h-111.263v-26.065h111.263z"/><circle cx="154.08" cy="51.082" r="11"/><circle cx="154.08" cy="131" r="11"/></g></g><g/><g/><g/><g/><g/><g/><g/><g/><g/><g/><g/><g/><g/><g/><g/></svg>