<svg id="Capa_1" enable-background="new 0 0 512.031 512.031" viewBox="0 0 512.031 512.031" xmlns="http://www.w3.org/2000/svg" fill="#E6ECF2"><g><g><path d="m327.46 109.137h-21.057c-6.075 0-11 4.925-11 11 0 17.472-11.557 32.291-27.418 37.2v-40.63h2.586c6.075 0 11-4.925 11-11s-4.925-11-11-11h-27.172c-6.075 0-11 4.925-11 11s4.925 11 11 11h2.586v40.891c-16.329-4.614-28.335-19.655-28.335-37.461 0-6.075-4.925-11-11-11h-20.14c-6.075 0-11 4.925-11 11s4.925 11 11 11h10.134c4.562 24.944 24.356 44.621 49.341 49.006v19.231h-5.443c-6.075 0-11 4.925-11 11s4.925 11 11 11h32.887c6.075 0 11-4.925 11-11s-4.925-11-11-11h-5.443v-19.401c24.551-4.7 43.917-24.197 48.424-48.835h11.051c6.075 0 11-4.925 11-11s-4.926-11.001-11.001-11.001z"/><path d="m505.039 324.932c-6.371-9.961-16.229-16.831-27.758-19.342-11.509-2.506-23.301-.37-33.207 6.019l-100.415 64.759c-2.626-17.656-15.83-32.724-34.219-36.746l-121.127-26.5c-23.91-5.229-48.376-1.389-69.427 10.799-.196-11.411-9.524-20.637-20.982-20.637h-76.879c-11.58 0-21 9.42-21 21v166.716c0 11.58 9.42 21 21 21h76.878c11.58 0 21-9.42 21-21v-7.051l122.861 25.727c7.527 1.576 15.1 2.355 22.624 2.355 20.833-.001 41.271-5.975 59.186-17.528l168.196-108.472c20.434-13.178 26.387-40.588 13.269-61.099zm-408.136 165.068h-74.878v-164.718h74.878zm382.943-122.457-168.196 108.472c-19.488 12.568-42.705 16.877-65.377 12.128l-127.37-26.671v-111.39l7.877-5.214c16.963-10.92 37.141-14.563 56.829-10.255l121.128 26.5c11.917 2.607 19.497 14.482 16.896 26.473-1.263 5.823-4.709 10.796-9.703 14.003-4.953 3.18-10.843 4.239-16.583 2.984l-112.893-24.698c-5.936-1.298-11.798 2.459-13.097 8.395-1.299 5.935 2.46 11.798 8.395 13.097l112.893 24.699c3.154.69 6.33 1.031 9.483 1.031 8.333 0 16.506-2.382 23.69-6.996 5.455-3.503 9.974-8.066 13.364-13.378l118.815-76.625c4.954-3.194 10.85-4.265 16.6-3.011 5.772 1.257 10.711 4.702 13.907 9.7 6.608 10.329 3.621 24.127-6.658 30.756z"/></g><g fill="#0496FF"><path d="m405.478 246.24c-.559-6.049-5.914-10.501-11.966-9.94-6.049.559-10.5 5.917-9.94 11.966l2.739 29.621c.527 5.705 5.322 9.988 10.94 9.988.339 0 .681-.016 1.025-.047 6.049-.559 10.5-5.917 9.94-11.966z"/><path d="m465.908 235.983-22.862-19.02c-4.671-3.886-11.606-3.25-15.491 1.421-3.886 4.67-3.25 11.606 1.421 15.491l22.862 19.02c2.056 1.71 4.549 2.544 7.029 2.544 3.155 0 6.287-1.351 8.462-3.965 3.886-4.67 3.25-11.605-1.421-15.491z"/><path d="m490.448 176.879c-.557-6.049-5.911-10.501-11.961-9.946l-29.592 2.722c-6.049.556-10.502 5.912-9.946 11.961.525 5.707 5.32 9.993 10.941 9.993.337 0 .678-.015 1.021-.047l29.592-2.722c6.049-.555 10.502-5.911 9.945-11.961z"/><path d="m118.538 236.3c-6.052-.567-11.407 3.891-11.966 9.94l-2.739 29.621c-.56 6.049 3.891 11.407 9.94 11.966.344.032.687.047 1.025.047 5.618 0 10.413-4.283 10.94-9.988l2.739-29.621c.561-6.049-3.89-11.406-9.939-11.965z"/><path d="m69.004 216.963-22.862 19.02c-4.67 3.885-5.307 10.821-1.421 15.491 2.175 2.615 5.307 3.965 8.462 3.965 2.479 0 4.974-.834 7.029-2.544l22.862-19.02c4.67-3.885 5.307-10.821 1.421-15.491-3.885-4.67-10.821-5.306-15.491-1.421z"/><path d="m62.16 191.61c5.621 0 10.416-4.286 10.941-9.993.557-6.05-3.896-11.405-9.946-11.961l-29.592-2.722c-6.055-.561-11.405 3.896-11.961 9.946-.557 6.05 3.896 11.405 9.946 11.961l29.592 2.722c.343.032.683.047 1.02.047z"/><path d="m401.033 27.863c-17.937-17.967-41.787-27.863-67.158-27.863-25.369 0-49.219 9.895-67.158 27.863l-9.732 9.75-9.732-9.749c-17.938-17.968-41.789-27.864-67.158-27.864-25.371 0-49.221 9.896-67.159 27.864-37.016 37.08-37.016 97.414 0 134.494l136.264 136.499c2.063 2.067 4.864 3.229 7.785 3.229s5.722-1.162 7.785-3.229l136.263-136.498c37.015-37.08 37.015-97.415 0-134.496zm-144.048 247.653-128.48-128.701c-28.46-28.51-28.46-74.898 0-103.408 13.782-13.804 32.103-21.407 51.59-21.407 19.486 0 37.807 7.603 51.588 21.407l17.518 17.548c2.063 2.067 4.864 3.229 7.785 3.229s5.722-1.162 7.785-3.229l17.516-17.549c13.782-13.804 32.102-21.406 51.588-21.406 19.487 0 37.808 7.602 51.587 21.406 28.46 28.51 28.46 74.9.001 103.41z"/></g></g><g/><g/><g/><g/><g/><g/><g/><g/><g/><g/><g/><g/><g/><g/><g/></svg>