<svg id="Capa_1" enable-background="new 0 0 512 512" viewBox="0 0 512 512" xmlns="http://www.w3.org/2000/svg" fill="#E6ECF2"><g><path d="m501 127.091h-153.125c-14.579-.541-14.568-21.464 0-22h153.125c14.579.541 14.568 21.464 0 22z" fill="#0496FF"/><path d="m366.12 105.093h-17.321c-14.579.541-14.568 21.464 0 22h17.321c17.987 0 32.637 14.568 32.769 32.525l-.751 15.744c.254 18.251-14.507 33.31-32.782 33.294h-34.961c-30.2 0-54.77 24.569-54.77 54.77v37.105h-19.625c-6.075 0-11 4.925-11 11v97.593c2.099 55.159 81.171 55.117 83.25 0v-97.593c0-6.075-4.925-11-11-11h-19.625v-37.105c0-18.069 14.7-32.77 32.77-32.77h34.961c30.107 0 54.619-24.42 54.768-54.493l.753-15.776c.34-30.377-24.388-55.312-54.757-55.294zm-59.87 304.032c-.99 26.006-38.27 25.986-39.25 0v-86.593h39.25z"/><path d="m347.875 61.25h-245c-6.075 0-11 4.925-11 11v75.157h-80.875c-14.579.541-14.568 21.464 0 22h80.875v50.25c-.431 31.209 34.708 51.852 61.66 36.479 8.517 50.589 81.382 45.77 82.84-5.854v-80.875h111.5c6.075 0 11-4.925 11-11v-86.157c0-6.075-4.925-11-11-11zm-133.5 189.032c-.99 26.006-38.27 25.986-39.25 0v-30.625c-.542-14.578-21.462-14.571-22 0-.983 25.997-38.269 25.993-39.25 0v-50.25h100.5zm122.5-102.875h-111.5-111.5v-64.157h223z" fill="#0496FF"/><path d="m501 512h-490c-6.075 0-11-4.925-11-11v-490c0-6.075 4.925-11 11-11h490c6.075 0 11 4.925 11 11v490c0 6.075-4.925 11-11 11zm-479-22h468v-468h-468z"/></g><g/><g/><g/><g/><g/><g/><g/><g/><g/><g/><g/><g/><g/><g/><g/></svg>