<svg id="Capa_1" enable-background="new 0 0 512 512" viewBox="0 0 512 512" xmlns="http://www.w3.org/2000/svg" fill="#052438"><g><g><path d="m501 435h-8v-249.877c0-6.075-4.925-11-11-11s-11 4.925-11 11v204.876h-430v-268.998c0-4.962 4.038-9 9-9h226.57c6.075 0 11-4.925 11-11s-4.925-11-11-11h-226.57c-17.093 0-31 13.906-31 31v313.999h-8c-6.075 0-11 4.925-11 11v35c0 17.093 13.907 31 31 31h450c17.093 0 31-13.907 31-31v-35c0-6.075-4.925-11-11-11zm-460-23.001h430v23.001h-155c-2.917 0-5.715 1.159-7.778 3.222l-6.778 6.778h-90.888l-6.778-6.778c-2.062-2.062-4.86-3.222-7.778-3.222h-155zm449 69.001c0 4.962-4.038 9-9 9h-450c-4.962 0-9-4.038-9-9v-24h169.443l6.778 6.778c2.063 2.063 4.861 3.222 7.778 3.222h100c2.917 0 5.715-1.159 7.778-3.222l6.778-6.778h169.445z"/><path d="m147.5 352c43.285 0 78.5-35.215 78.5-78.5s-35.215-78.5-78.5-78.5-78.5 35.215-78.5 78.5 35.215 78.5 78.5 78.5zm-28.407-29.673c6.227-9.433 16.943-15.327 28.407-15.327s22.181 5.893 28.407 15.326c-8.35 4.878-18.058 7.674-28.407 7.674s-20.056-2.796-28.407-7.673zm16.907-48.827c0-6.341 5.159-11.5 11.5-11.5s11.5 5.159 11.5 11.5-5.159 11.5-11.5 11.5-11.5-5.158-11.5-11.5zm11.5-56.5c31.154 0 56.5 25.346 56.5 56.5 0 12.826-4.296 24.667-11.524 34.161-4.671-6.27-10.595-11.463-17.31-15.289 3.68-5.378 5.835-11.878 5.835-18.872 0-18.472-15.028-33.5-33.5-33.5s-33.501 15.028-33.501 33.5c0 6.994 2.155 13.494 5.835 18.872-6.716 3.826-12.64 9.02-17.31 15.289-7.229-9.493-11.525-21.335-11.525-34.161 0-31.154 25.346-56.5 56.5-56.5z"/><path d="m215 172.001c6.075 0 11-4.925 11-11s-4.925-11-11-11h-135c-6.075 0-11 4.925-11 11s4.925 11 11 11z"/><path d="m270 341c0 6.075 4.925 11 11 11h151c6.075 0 11-4.925 11-11s-4.925-11-11-11h-151c-6.075 0-11 4.925-11 11z"/><path d="m270 296c0 6.075 4.925 11 11 11h78.18c6.075 0 11-4.925 11-11s-4.925-11-11-11h-78.18c-6.075 0-11 4.925-11 11z"/></g><g><g><path d="m327.361 113.359c-2.815 0-5.63-1.074-7.778-3.222-4.295-4.296-4.295-11.261 0-15.557 39.381-39.378 103.456-39.379 142.835 0 4.295 4.296 4.295 11.261 0 15.557-4.296 4.296-11.261 4.296-15.557 0-30.802-30.801-80.92-30.802-111.722 0-2.148 2.148-4.963 3.222-7.778 3.222z" fill="#0496FF"/></g><g><path d="m359.18 145.179c-2.815 0-5.63-1.074-7.778-3.222-4.295-4.296-4.295-11.261 0-15.557 10.577-10.577 24.64-16.402 39.598-16.402s29.021 5.825 39.598 16.402c4.296 4.295 4.295 11.26 0 15.556-4.296 4.295-11.261 4.295-15.556 0-6.421-6.421-14.959-9.958-24.042-9.958-9.082 0-17.62 3.537-24.042 9.958-2.147 2.149-4.963 3.223-7.778 3.223z" fill="#0496FF"/></g><g><path d="m390.999 176.998c-2.815 0-5.629-1.073-7.777-3.221-4.296-4.295-4.298-11.258-.003-15.554l.005-.005c4.296-4.296 11.261-4.296 15.557 0 4.295 4.296 4.295 11.261 0 15.557-2.148 2.148-4.966 3.223-7.782 3.223z" fill="#0496FF"/></g><g><path d="m391 242c-66.72 0-121-54.28-121-121s54.28-121 121-121 121 54.281 121 121c0 66.72-54.28 121-121 121zm0-220c-54.589 0-99 44.412-99 99s44.411 99 99 99 99-44.411 99-99c0-54.588-44.411-99-99-99z" fill="#0496FF"/></g></g></g><g/><g/><g/><g/><g/><g/><g/><g/><g/><g/><g/><g/><g/><g/><g/></svg>