<svg id="Capa_1" enable-background="new 0 0 512 512" viewBox="0 0 512 512" xmlns="http://www.w3.org/2000/svg" fill="#E6ECF2"><g><g fill="#0496FF"><path d="m281.858 46.087c27.047 3.332 52.846 11.72 76.68 24.931 1.689.937 3.519 1.381 5.323 1.381 3.869 0 7.622-2.045 9.631-5.669 2.945-5.313 1.025-12.009-4.288-14.954-26.313-14.586-54.796-23.847-84.656-27.525-6.037-.74-11.52 3.544-12.263 9.573-.743 6.03 3.544 11.52 9.573 12.263z"/><path d="m229.947 23.958c-30.758 3.454-60.08 12.813-87.151 27.818-5.313 2.945-7.233 9.641-4.288 14.954 2.009 3.624 5.762 5.669 9.631 5.669 1.804 0 3.634-.445 5.323-1.381 24.52-13.592 51.08-22.069 78.94-25.198 6.037-.678 10.382-6.122 9.704-12.159-.677-6.037-6.122-10.381-12.159-9.703z"/><path d="m256 50c-6.075 0-11 4.925-11 11v125.001c0 6.075 4.925 11 11 11s11-4.925 11-11v-125.001c0-6.075-4.925-11-11-11z"/><path d="m33.824 239.716c.457.056.91.083 1.358.083 5.475 0 10.217-4.083 10.904-9.656 3.332-27.047 11.72-52.846 24.931-76.68 2.945-5.313 1.026-12.009-4.288-14.954-5.315-2.947-12.009-1.026-14.954 4.288-14.585 26.313-23.845 54.796-27.524 84.656-.742 6.03 3.543 11.52 9.573 12.263z"/><path d="m45.82 279.598c-.678-6.037-6.117-10.384-12.159-9.704-6.037.678-10.382 6.122-9.704 12.159 3.454 30.759 12.813 60.081 27.818 87.151 2.009 3.624 5.762 5.669 9.631 5.669 1.804 0 3.634-.445 5.323-1.381 5.313-2.945 7.233-9.64 4.288-14.954-13.591-24.52-22.068-51.079-25.197-78.94z"/><path d="m50 256c0 6.075 4.925 11 11 11h80c6.075 0 11-4.925 11-11s-4.925-11-11-11h-80c-6.076 0-11 4.925-11 11z"/><path d="m230.143 465.914c-27.046-3.332-52.846-11.72-76.681-24.931-5.313-2.945-12.008-1.025-14.954 4.289-2.945 5.313-1.025 12.008 4.289 14.954 26.313 14.585 54.796 23.846 84.656 27.524.457.056.91.083 1.358.083 5.475 0 10.217-4.083 10.904-9.656.743-6.03-3.543-11.521-9.572-12.263z"/><path d="m358.538 440.983c-24.52 13.591-51.079 22.069-78.939 25.197-6.037.678-10.382 6.121-9.704 12.159.632 5.62 5.393 9.773 10.918 9.773.41 0 .824-.023 1.241-.07 30.758-3.454 60.08-12.813 87.15-27.818 5.313-2.945 7.233-9.641 4.288-14.954s-9.641-7.232-14.954-4.287z"/><path d="m256 335c-6.075 0-11 4.925-11 11v105c0 6.075 4.925 11 11 11s11-4.925 11-11v-105c0-6.075-4.925-11-11-11z"/><path d="m478.176 272.285c-6.025-.74-11.52 3.543-12.262 9.572-3.333 27.048-11.721 52.847-24.933 76.681-2.945 5.313-1.025 12.009 4.288 14.954 1.689.937 3.519 1.381 5.323 1.381 3.869 0 7.622-2.045 9.631-5.669 14.585-26.313 23.846-54.796 27.524-84.656.745-6.03-3.54-11.52-9.571-12.263z"/><path d="m466.179 232.402c.631 5.621 5.393 9.774 10.918 9.774.41 0 .824-.023 1.241-.07 6.037-.678 10.382-6.121 9.704-12.158-3.453-30.758-12.812-60.08-27.818-87.151-2.945-5.314-9.641-7.233-14.954-4.288s-7.233 9.64-4.288 14.954c13.593 24.52 22.07 51.079 25.197 78.939z"/><path d="m371 245c-6.075 0-11 4.925-11 11s4.925 11 11 11h80c6.075 0 11-4.925 11-11s-4.925-11-11-11z"/></g><g><path d="m135 171v170c0 6.075 4.925 11 11 11h220c6.075 0 11-4.925 11-11v-147.5c0-6.075-4.925-11-11-11h-130.06l-16.718-18.808c-2.087-2.348-5.08-3.692-8.222-3.692h-65c-6.075 0-11 4.925-11 11zm22 11h49.061l16.718 18.808c2.087 2.348 5.08 3.692 8.222 3.692h123.999v125.5h-198z"/><path d="m433.5 157c43.285 0 78.5-35.215 78.5-78.5s-35.215-78.5-78.5-78.5-78.5 35.215-78.5 78.5 35.215 78.5 78.5 78.5zm-28.407-29.674c6.226-9.433 16.943-15.326 28.407-15.326s22.181 5.893 28.408 15.326c-8.352 4.877-18.06 7.674-28.408 7.674-10.349 0-20.057-2.797-28.407-7.674zm16.907-48.826c0-6.341 5.158-11.5 11.499-11.5 6.342 0 11.501 5.159 11.501 11.5s-5.159 11.5-11.5 11.5-11.5-5.158-11.5-11.5zm11.5-56.5c31.154 0 56.5 25.346 56.5 56.5 0 12.826-4.296 24.667-11.525 34.161-4.671-6.27-10.595-11.463-17.31-15.289 3.681-5.378 5.835-11.878 5.835-18.872 0-18.472-15.028-33.5-33.5-33.5s-33.5 15.028-33.5 33.5c0 6.994 2.155 13.494 5.834 18.871-6.716 3.826-12.64 9.019-17.311 15.289-7.227-9.493-11.523-21.334-11.523-34.16 0-31.154 25.346-56.5 56.5-56.5z"/><path d="m78.5 157c43.285 0 78.5-35.215 78.5-78.5s-35.215-78.5-78.5-78.5-78.5 35.215-78.5 78.5 35.215 78.5 78.5 78.5zm-28.407-29.674c6.227-9.432 16.944-15.326 28.407-15.326 11.464 0 22.181 5.893 28.408 15.326-8.351 4.877-18.059 7.674-28.408 7.674s-20.056-2.797-28.407-7.674zm16.907-48.826c0-6.341 5.159-11.5 11.5-11.5s11.5 5.159 11.5 11.5-5.159 11.5-11.5 11.5-11.5-5.158-11.5-11.5zm11.5-56.5c31.154 0 56.5 25.346 56.5 56.5 0 12.826-4.296 24.667-11.524 34.161-4.671-6.269-10.595-11.463-17.31-15.289 3.68-5.378 5.834-11.878 5.834-18.872 0-18.472-15.028-33.5-33.5-33.5s-33.5 15.028-33.5 33.5c0 6.994 2.155 13.494 5.835 18.872-6.716 3.826-12.64 9.019-17.311 15.289-7.228-9.494-11.524-21.335-11.524-34.161 0-31.154 25.346-56.5 56.5-56.5z"/><path d="m433.5 355c-43.285 0-78.5 35.215-78.5 78.5s35.215 78.5 78.5 78.5 78.5-35.215 78.5-78.5-35.215-78.5-78.5-78.5zm-28.407 127.326c6.226-9.433 16.943-15.326 28.407-15.326s22.181 5.893 28.408 15.326c-8.352 4.877-18.06 7.674-28.408 7.674-10.349 0-20.057-2.797-28.407-7.674zm16.907-48.826c0-6.341 5.158-11.5 11.499-11.5 6.342 0 11.501 5.159 11.501 11.5s-5.159 11.5-11.5 11.5-11.5-5.158-11.5-11.5zm56.476 34.161c-4.671-6.27-10.595-11.463-17.31-15.289 3.68-5.378 5.835-11.878 5.835-18.872 0-18.472-15.028-33.5-33.501-33.5-18.472 0-33.5 15.028-33.5 33.5 0 6.994 2.155 13.494 5.834 18.871-6.716 3.826-12.64 9.019-17.311 15.289-7.227-9.493-11.523-21.334-11.523-34.16 0-31.154 25.346-56.5 56.499-56.5 31.155 0 56.501 25.346 56.501 56.5 0 12.826-4.296 24.667-11.524 34.161z"/><path d="m78.5 355c-43.285 0-78.5 35.215-78.5 78.5s35.215 78.5 78.5 78.5 78.5-35.215 78.5-78.5-35.215-78.5-78.5-78.5zm-28.407 127.326c6.227-9.432 16.944-15.326 28.407-15.326 11.464 0 22.181 5.893 28.408 15.326-8.351 4.877-18.059 7.674-28.408 7.674s-20.056-2.797-28.407-7.674zm16.907-48.826c0-6.341 5.159-11.5 11.5-11.5s11.5 5.159 11.5 11.5-5.159 11.5-11.5 11.5-11.5-5.158-11.5-11.5zm56.476 34.161c-4.671-6.269-10.595-11.463-17.31-15.289 3.68-5.378 5.835-11.878 5.835-18.872 0-18.472-15.028-33.5-33.5-33.5-18.473 0-33.501 15.028-33.501 33.5 0 6.994 2.155 13.494 5.835 18.872-6.716 3.826-12.64 9.019-17.311 15.289-7.228-9.494-11.524-21.335-11.524-34.161 0-31.154 25.346-56.5 56.5-56.5s56.5 25.346 56.5 56.5c0 12.826-4.296 24.667-11.524 34.161z"/><path d="m256 67c18.472 0 33.5-15.028 33.5-33.5s-15.028-33.5-33.5-33.5-33.5 15.028-33.5 33.5 15.028 33.5 33.5 33.5zm0-45c6.341 0 11.5 5.159 11.5 11.5s-5.159 11.5-11.5 11.5-11.5-5.159-11.5-11.5 5.159-11.5 11.5-11.5z"/><path d="m33.5 289.5c18.472 0 33.5-15.028 33.5-33.5s-15.028-33.5-33.5-33.5-33.5 15.028-33.5 33.5 15.028 33.5 33.5 33.5zm0-45c6.341 0 11.5 5.159 11.5 11.5s-5.159 11.5-11.5 11.5-11.5-5.158-11.5-11.5 5.159-11.5 11.5-11.5z"/><path d="m256 445c-18.472 0-33.5 15.028-33.5 33.5s15.028 33.5 33.5 33.5 33.5-15.028 33.5-33.5-15.028-33.5-33.5-33.5zm0 45c-6.341 0-11.5-5.159-11.5-11.5s5.159-11.5 11.5-11.5 11.5 5.159 11.5 11.5-5.159 11.5-11.5 11.5z"/><path d="m478.5 222.5c-18.472 0-33.5 15.028-33.5 33.5s15.028 33.5 33.5 33.5 33.5-15.028 33.5-33.5-15.028-33.5-33.5-33.5zm0 45c-6.341 0-11.5-5.159-11.5-11.5s5.159-11.5 11.5-11.5 11.5 5.159 11.5 11.5-5.159 11.5-11.5 11.5z"/></g></g><g/><g/><g/><g/><g/><g/><g/><g/><g/><g/><g/><g/><g/><g/><g/></svg>