<svg id="Capa_1" enable-background="new 0 0 512.005 512.005" viewBox="0 0 512.005 512.005" xmlns="http://www.w3.org/2000/svg" fill="#052438"><g><path d="m501.002 490.004h-48.583v-239.573l12.474 10.555c4.639 3.924 11.579 3.345 15.503-1.292l29.004-34.277c1.884-2.227 2.807-5.112 2.564-8.019-.242-2.907-1.63-5.599-3.856-7.484l-245-207.307c-4.099-3.469-10.108-3.469-14.21 0l-245 207.307c-2.227 1.885-3.614 4.577-3.856 7.484-.242 2.908.68 5.792 2.565 8.019l29.004 34.277c2.176 2.572 5.278 3.895 8.402 3.895 2.51 0 5.034-.855 7.1-2.603l12.474-10.555v239.573h-48.584c-6.075 0-11 4.925-11 11s4.925 11 11 11h490c6.075 0 11-4.925 11-11s-4.926-11-11.001-11zm-459.703-252.919-14.793-17.482 229.497-194.189 229.497 194.189-14.793 17.482-207.599-175.66c-4.099-3.469-10.108-3.47-14.21 0zm40.287-5.27 174.417-147.583 174.417 147.583v258.188h-348.834z"/><g><path d="m346.003 270.503h-39.578v-14c0-17.093-13.906-31-31-31h-40c-17.093 0-31 13.906-31 31v14h-38.423c-17.093 0-31 13.906-31 31v105c0 17.093 13.907 31 31 31h180.001c17.093 0 30.999-13.906 30.999-31v-105c0-17.093-13.906-31-30.999-31zm-119.577-14c0-4.962 4.037-9 9-9h40c4.963 0 9 4.037 9 9v14h-58zm-60.423 36h180.001c4.962 0 8.999 4.037 8.999 9v14.586l-99 26.526-99-26.527v-14.586c0-4.962 4.037-8.999 9-8.999zm180 123h-180c-4.962 0-9-4.037-9-9v-67.639l96.153 25.764c.933.25 1.89.375 2.847.375s1.915-.125 2.847-.375l96.152-25.764v67.639c0 4.963-4.037 9-8.999 9z"/><g fill="#0496FF"><path d="m511.627 87.707c-5.603-20.912-16.655-40.057-31.964-55.364-15.306-15.308-34.451-26.362-55.363-31.964-5.869-1.572-11.899 1.91-13.472 7.778s1.91 11.899 7.778 13.472c17.187 4.604 32.92 13.688 45.5 26.27 12.582 12.581 21.666 28.315 26.271 45.501 1.316 4.915 5.761 8.156 10.618 8.156.942 0 1.9-.122 2.854-.377 5.868-1.573 9.35-7.604 7.778-13.472z"/><path d="m447.844 64.163c-9.729-9.73-21.898-16.756-35.19-20.317-5.865-1.575-11.899 1.91-13.472 7.778-1.572 5.868 1.91 11.899 7.778 13.472 9.566 2.563 18.324 7.62 25.327 14.624 7.004 7.004 12.061 15.762 14.624 25.328 1.316 4.915 5.761 8.156 10.618 8.156.942 0 1.9-.122 2.854-.377 5.868-1.572 9.351-7.604 7.778-13.472-3.56-13.293-10.587-25.462-20.317-35.192z"/><path d="m93.399 21.629c5.868-1.572 9.351-7.604 7.778-13.472-1.572-5.868-7.605-9.352-13.472-7.778-20.911 5.602-40.055 16.656-55.363 31.963-15.308 15.308-26.361 34.452-31.964 55.364-1.573 5.868 1.91 11.9 7.778 13.472.954.256 1.912.378 2.854.378 4.857 0 9.301-3.242 10.618-8.156 4.605-17.187 13.689-32.921 26.271-45.501 12.58-12.581 28.314-21.665 45.5-26.27z"/><path d="m99.352 43.845c-13.292 3.562-25.461 10.587-35.19 20.317-9.73 9.73-16.756 21.898-20.318 35.191-1.572 5.868 1.911 11.9 7.779 13.472.954.255 1.911.377 2.854.377 4.856 0 9.302-3.242 10.618-8.156 2.563-9.566 7.62-18.325 14.624-25.328 7.003-7.003 15.761-12.06 25.328-14.623 5.868-1.572 9.351-7.604 7.779-13.472-1.574-5.868-7.608-9.35-13.474-7.778z"/></g></g></g><g/><g/><g/><g/><g/><g/><g/><g/><g/><g/><g/><g/><g/><g/><g/></svg>