<svg id="Capa_1" enable-background="new 0 0 512 512" viewBox="0 0 512 512" xmlns="http://www.w3.org/2000/svg" fill="#E6ECF2"><g><path d="m255.222 512c-14.569-.551-14.573-21.463 0-22 310.055-11.787 309.877-456.3-.003-468-6.072 0-10.997-4.924-10.997-11s4.925-11 11-11c68.38 0 132.667 26.628 181.019 74.981 160.638 160.08 45.716 437.43-181.019 437.019z"/><path d="m377.722 389.5c-2.815 0-5.63-1.074-7.778-3.222l-122.5-122.5c-2.062-2.063-3.222-4.861-3.222-7.778v-153.125c.541-14.579 21.464-14.568 22 0v148.569l119.278 119.278c4.296 4.296 4.296 11.261 0 15.557-2.148 2.147-4.963 3.221-7.778 3.221z"/><g fill="#0496FF"><path d="m166.621 38.527c-4.366 0-8.497-2.616-10.218-6.917-2.256-5.64.484-12.04 6.123-14.297.258-.103 6.388-2.55 13.249-4.694 6.598-2.062 14.078-4.177 14.394-4.266 5.846-1.652 11.924 1.75 13.575 7.596 1.651 5.847-1.75 11.924-7.597 13.576-.074.021-7.509 2.123-13.811 4.092-6.015 1.879-11.58 4.098-11.636 4.12-1.337.537-2.719.79-4.079.79z"/><path d="m92.217 84.023c-2.989 0-5.968-1.211-8.138-3.596-4.089-4.492-3.764-11.447.728-15.536.205-.187 5.09-4.626 10.767-9.037 5.457-4.242 11.724-8.842 11.987-9.036 4.898-3.593 11.782-2.537 15.376 2.361 3.595 4.898 2.537 11.782-2.36 15.376-.062.046-6.29 4.619-11.504 8.671-4.975 3.866-9.411 7.893-9.455 7.934-2.109 1.917-4.759 2.863-7.401 2.863z"/><path d="m38.449 152.701c-1.691 0-3.408-.391-5.017-1.217-5.404-2.775-7.535-9.406-4.76-14.81.127-.247 3.147-6.115 6.917-12.233 3.629-5.886 7.886-12.389 8.065-12.663 3.328-5.082 10.146-6.502 15.229-3.174 5.082 3.329 6.503 10.147 3.175 15.229-.043.064-4.274 6.529-7.739 12.15-3.325 5.396-6.049 10.688-6.076 10.74-1.95 3.797-5.802 5.978-9.794 5.978z"/><path d="m12.168 235.849c-.429 0-.861-.025-1.297-.076-6.033-.708-10.35-6.171-9.642-12.204.032-.275.807-6.829 2.195-13.88 1.338-6.784 3.048-14.365 3.12-14.685 1.338-5.925 7.224-9.643 13.152-8.307 5.926 1.338 9.644 7.227 8.307 13.153-.017.075-1.717 7.613-2.994 14.092-1.217 6.181-1.924 12.132-1.931 12.191-.658 5.597-5.41 9.716-10.91 9.716z"/><path d="m16.629 322.947c-4.944 0-9.438-3.357-10.672-8.374-.066-.27-1.637-6.679-2.805-13.771-1.123-6.823-2.177-14.523-2.221-14.847-.822-6.02 3.391-11.565 9.41-12.387 6.024-.821 11.565 3.392 12.387 9.411.011.077 1.059 7.732 2.131 14.248 1.024 6.215 2.447 12.037 2.462 12.095 1.447 5.899-2.16 11.856-8.059 13.306-.881.215-1.764.319-2.633.319z"/><path d="m51.348 402.957c-3.512 0-6.963-1.679-9.093-4.799-.156-.229-3.872-5.684-7.449-11.918-3.441-5.996-7.125-12.84-7.28-13.128-2.878-5.35-.873-12.02 4.477-14.898 5.352-2.879 12.021-.873 14.898 4.477.036.068 3.698 6.872 6.985 12.6 3.137 5.464 6.507 10.418 6.541 10.467 5.046 7.068-.483 17.385-9.079 17.199z"/><path d="m111.854 465.748c-2.19 0-4.401-.652-6.327-2.01-.227-.16-5.617-3.968-11.151-8.554-5.323-4.411-11.171-9.532-11.417-9.748-4.568-4.004-5.026-10.954-1.023-15.522 4.005-4.568 10.953-5.028 15.523-1.023.058.051 5.87 5.141 10.954 9.354 4.851 4.02 9.743 7.479 9.792 7.514 8.767 6.219 4.229 20.015-6.351 19.989z"/><path d="m190.553 503.368c-.923 0-1.86-.117-2.795-.361-.268-.07-6.651-1.75-13.441-4.107-6.531-2.268-13.801-5.017-14.107-5.133-5.682-2.15-8.545-8.499-6.394-14.181 2.15-5.683 8.498-8.544 14.182-6.395.072.027 7.299 2.76 13.537 4.926 5.951 2.067 11.745 3.594 11.803 3.609 12.426 3.554 9.973 21.408-2.785 21.642z"/></g></g><g/><g/><g/><g/><g/><g/><g/><g/><g/><g/><g/><g/><g/><g/><g/></svg>