<svg id="Capa_1" enable-background="new 0 0 512 512" viewBox="0 0 512 512" xmlns="http://www.w3.org/2000/svg" fill="#052438"><g><g fill="#0496FF"><path d="m351 315c-22.607 0-41 18.393-41 41s18.393 41 41 41 41-18.393 41-41-18.393-41-41-41zm0 60c-10.477 0-19-8.523-19-19s8.523-19 19-19 19 8.523 19 19-8.523 19-19 19z"/><path d="m490.566 131.57-71.515-126c-1.953-3.443-5.607-5.57-9.566-5.57s-7.612 2.127-9.566 5.57l-71.516 126c-1.933 3.405-1.91 7.581.061 10.965 1.97 3.383 5.591 5.465 9.506 5.465h26v103c0 6.075 4.925 11 11 11s11-4.925 11-11v-114c0-6.075-4.925-11-11-11h-18.108l52.624-92.715 52.622 92.715h-18.108c-6.075 0-11 4.925-11 11v114c0 6.075 4.925 11 11 11s11-4.925 11-11v-103h26c3.915 0 7.536-2.082 9.506-5.465 1.971-3.384 1.993-7.559.06-10.965z"/></g><path d="m501 444.999h-9v-151.999c0-26.467-21.532-48-48-48h-152v-114c0-72.234-58.767-131-131-131s-130.999 58.766-130.999 131v174.07c-19.167 14.734-30.001 36.139-30.001 60.93v135c0 6.075 4.925 11 11 11h467.5c18.472 0 33.5-15.028 33.5-33.5v-22.5c0-6.076-4.925-11.001-11-11.001zm-31-151.999v152h-238v-152c0-14.336 11.663-26 26-26h186c14.337 0 26 11.663 26 26zm-308.999-58c-35.29 0-64.001-28.711-64.001-64v-29h44c2.917 0 5.715-1.159 7.778-3.222l12.222-12.222 12.223 12.222c2.063 2.063 4.861 3.222 7.778 3.222h43.999v29c0 35.289-28.71 64-63.999 64zm-16.001 41v-20.493c5.186.98 10.535 1.493 16.001 1.493s10.814-.513 15.999-1.492v20.492c0 4.702 2.988 8.883 7.437 10.407l25.563 8.754v11.866c-12.262 14.62-30.033 22.973-49 22.973-23.288 0-44.377-12.547-55.684-32.549l32.247-11.044c4.449-1.524 7.437-5.705 7.437-10.407zm-92.999-145c0-60.103 48.896-109 108.999-109s109 48.897 109 109v114h-12c-19.47 0-36.269 11.652-43.791 28.348l-15.209-5.208v-20c28.414-14.054 48-43.353 48-77.141v-40c0-6.075-4.925-11-11-11h-50.442l-16.779-16.778c-4.297-4.296-11.26-4.296-15.557 0l-16.779 16.779h-50.443c-6.075 0-11 4.925-11 11v40c0 33.787 19.586 63.086 48 77.14v20.001l-65.563 22.453c-1.851.634-3.662 1.31-5.436 2.027zm-30.001 235c0-12.032 4.147-41.437 42.563-54.593l19.671-6.737c14.611 28.957 44.07 47.33 76.766 47.33 17.779 0 34.767-5.443 49-15.382v108.382h-9c-6.075 0-11 4.925-11 11v22.5c0 4.038.718 7.912 2.034 11.5h-102.533v-90.751c0-6.075-4.925-11-11-11s-11 4.925-11 11v90.751h-45.501zm468 112.5c0 6.341-5.159 11.5-11.5 11.5h-255c-6.341 0-11.5-5.159-11.5-11.5v-11.5h278z"/></g><g/><g/><g/><g/><g/><g/><g/><g/><g/><g/><g/><g/><g/><g/><g/></svg>