<svg id="Capa_1" enable-background="new 0 0 512 512" viewBox="0 0 512 512" xmlns="http://www.w3.org/2000/svg" fill="#052438"><g><path d="m256 410.34c-82.861 0-150.274-67.413-150.274-150.274 7.555-199.085 293.023-199.031 300.548.002 0 82.86-67.413 150.272-150.274 150.272zm0-278.548c-70.731 0-128.274 57.543-128.274 128.274 6.449 169.939 250.125 169.893 256.548-.002 0-70.728-57.544-128.272-128.274-128.272z"/><g fill="#0496FF"><path d="m286.625 512h-61.25c-5.38 0-9.971-3.892-10.852-9.199l-5.999-36.141c-24.052-5.49-46.672-15.043-67.429-28.479l-30.282 21.662c-4.376 3.13-10.374 2.636-14.178-1.168l-43.311-43.311c-3.804-3.804-4.298-9.802-1.169-14.178l22.474-31.418c-12.378-20.397-21.1-42.451-26.002-65.747l-39.43-6.544c-5.305-.881-9.197-5.472-9.197-10.852v-61.25c0-5.38 3.892-9.971 9.199-10.852l41.401-6.872c5.56-21.892 14.529-42.566 26.738-61.634l-25.182-35.204c-3.13-4.376-2.636-10.374 1.169-14.178l43.311-43.31c3.805-3.804 9.801-4.298 14.178-1.168l36.36 26.009c18.68-11.208 38.787-19.381 59.947-24.37l7.402-44.597c.881-5.307 5.472-9.199 10.852-9.199h61.25c5.38 0 9.971 3.892 10.852 9.199l7.402 44.597c21.161 4.988 41.268 13.162 59.947 24.37l36.36-26.009c4.375-3.13 10.374-2.635 14.178 1.168l43.31 43.31c3.804 3.804 4.298 9.802 1.169 14.178l-25.182 35.204c12.21 19.069 21.178 39.743 26.738 61.634l41.401 6.872c5.308.881 9.199 5.472 9.199 10.852v61.25c0 5.38-3.892 9.971-9.199 10.852l-39.43 6.544c-4.902 23.295-13.624 45.35-26.002 65.747l22.474 31.418c3.13 4.376 2.636 10.374-1.169 14.178l-43.31 43.311c-3.804 3.804-9.802 4.298-14.178 1.168l-30.282-21.662c-20.757 13.436-43.377 22.989-67.429 28.479l-5.999 36.141c-.879 5.307-5.47 9.199-10.85 9.199zm-51.925-22h42.6l5.704-34.364c.755-4.547 4.264-8.141 8.792-9.004 26.372-5.028 50.93-15.408 72.991-30.85 3.821-2.675 8.914-2.648 12.708.065l28.907 20.677 30.123-30.123-21.352-29.85c-2.643-3.695-2.743-8.635-.25-12.434 14.322-21.828 23.826-45.905 28.246-71.561.795-4.613 4.422-8.217 9.039-8.984l37.792-6.272v-42.6l-39.429-6.544c-4.447-.738-7.994-4.115-8.949-8.522-5.271-24.316-15.151-47.052-29.367-67.577-2.644-3.818-2.606-8.885.096-12.663l24.174-33.795-30.123-30.123-34.759 24.863c-3.679 2.631-8.593 2.743-12.388.28-20.26-13.148-42.513-22.187-66.142-26.866-4.493-.89-7.965-4.471-8.715-8.989l-7.098-42.764h-42.6l-7.098 42.764c-.75 4.519-4.222 8.1-8.715 8.989-23.629 4.679-45.882 13.718-66.142 26.866-3.794 2.463-8.709 2.351-12.388-.28l-34.759-24.863-30.124 30.123 24.174 33.795c2.702 3.778 2.74 8.845.096 12.663-14.216 20.525-24.097 43.261-29.367 67.577-.955 4.406-4.502 7.783-8.949 8.522l-39.428 6.544v42.6l37.791 6.273c4.617.767 8.244 4.371 9.039 8.984 4.42 25.656 13.924 49.733 28.246 71.561 2.493 3.799 2.393 8.739-.25 12.434l-21.352 29.85 30.124 30.123 28.907-20.677c3.795-2.714 8.887-2.739 12.708-.065 22.061 15.442 46.619 25.822 72.991 30.85 4.527.863 8.037 4.457 8.792 9.004zm266.3-203.375h.01z"/><path d="m353.895 252.288c-4.296-4.296-11.261-4.296-15.557 0l-6.065 6.066c-5.863-99.864-148.914-98.346-152.589 1.714 0 42.08 34.235 76.315 76.317 76.315 6.075 0 11-4.925 11-11s-4.925-11-11-11c-29.95 0-54.316-24.366-54.316-54.316 2.571-70.884 103.745-72.43 108.587-1.802l-5.976-5.976c-4.296-4.296-11.261-4.296-15.557 0-4.295 4.296-4.295 11.261 0 15.557l24.8 24.8c4.296 4.296 11.261 4.296 15.557 0l24.8-24.8c4.294-4.297 4.294-11.262-.001-15.558z"/></g></g><g/><g/><g/><g/><g/><g/><g/><g/><g/><g/><g/><g/><g/><g/><g/></svg>