<svg id="Capa_1" enable-background="new 0 0 512 512" viewBox="0 0 512 512" xmlns="http://www.w3.org/2000/svg" fill="#052438"><g><g><path d="m162.478 139.836c4.412-5.975 7.022-13.357 7.022-21.337 0-19.851-16.149-36-36-36s-36 16.15-36 36c0 7.98 2.611 15.362 7.022 21.337-16.878 9.142-29.089 26.045-31.568 46.228-.741 6.03 3.547 11.519 9.577 12.259 6.031.735 11.518-3.547 12.259-9.577 2.397-19.524 19.039-34.247 38.709-34.247s36.312 14.723 38.709 34.247c.685 5.575 5.427 9.661 10.904 9.66.447 0 .9-.027 1.355-.083 6.03-.74 10.318-6.229 9.577-12.259-2.477-20.183-14.688-37.086-31.566-46.228zm-28.978-35.338c7.72 0 14 6.281 14 14s-6.28 14-14 14-14-6.28-14-14c0-7.719 6.28-14 14-14z"/><path d="m439.045 186.064c-2.479-20.183-14.689-37.086-31.568-46.228 4.412-5.975 7.022-13.357 7.022-21.337 0-19.851-16.149-36-36-36s-36 16.15-36 36c0 7.98 2.611 15.362 7.022 21.337-16.878 9.142-29.089 26.045-31.568 46.228-.741 6.03 3.547 11.519 9.577 12.259 6.027.735 11.518-3.547 12.259-9.577 2.397-19.524 19.039-34.247 38.709-34.247s36.312 14.723 38.709 34.247c.685 5.575 5.427 9.661 10.904 9.66.447 0 .9-.027 1.355-.083 6.032-.74 10.32-6.229 9.579-12.259zm-60.545-81.566c7.72 0 14 6.281 14 14s-6.28 14-14 14-14-6.28-14-14c0-7.719 6.28-14 14-14z"/></g><path d="m496 182.499h-229v-131.5c0-6.075-4.925-11-11-11s-11 4.925-11 11v131.5h-229c-6.075 0-11 4.925-11 11s4.925 11 11 11h229v131.5c0 6.075 4.925 11 11 11s11-4.925 11-11v-131.5h229c6.075 0 11-4.925 11-11s-4.924-11-11-11z" fill="#0496FF"/><path d="m481 34.998h-450c-17.093 0-31 13.906-31 31v300.001c0 17.093 13.906 31 31 31h167.936l-11.89 58.003h-11.046c-6.075 0-11 4.925-11 11s4.925 11 11 11h160c6.075 0 11-4.925 11-11s-4.925-11-11-11h-11.045l-11.89-58.003h167.935c17.093 0 31-13.906 31-31v-300.001c0-17.093-13.906-31-31-31zm-450 22h450c4.962 0 9 4.037 9 9v264h-51.499c-3.403-18.601-15.149-34.064-31.023-42.662 4.412-5.975 7.022-13.357 7.022-21.337 0-19.851-16.149-36-36-36s-36 16.15-36 36c0 7.98 2.611 15.362 7.022 21.337-15.875 8.598-27.62 24.061-31.023 42.662h-124.998c-3.403-18.601-15.149-34.064-31.023-42.662 4.412-5.975 7.022-13.357 7.022-21.337 0-19.851-16.149-36-36-36s-36 16.15-36 36c0 7.98 2.611 15.362 7.022 21.337-15.875 8.598-27.62 24.061-31.023 42.662h-51.499v-264c0-4.963 4.037-9 9-9zm347.5 223c-7.72 0-14-6.28-14-14s6.28-14 14-14 14 6.281 14 14c0 7.72-6.28 14-14 14zm0 22.001c17.509 0 32.619 11.666 37.418 28h-74.837c4.8-16.334 19.91-28 37.419-28zm-245-22.001c-7.72 0-14-6.28-14-14s6.28-14 14-14 14 6.281 14 14c0 7.72-6.28 14-14 14zm0 22.001c17.509 0 32.619 11.666 37.418 28h-74.836c4.799-16.334 19.909-28 37.418-28zm168.998 153.003h-92.995l11.89-58.003h69.215zm178.502-80.003h-450c-4.962 0-9-4.037-9-9v-14.001h468v14.001c0 4.963-4.037 9-9 9z"/></g><g/><g/><g/><g/><g/><g/><g/><g/><g/><g/><g/><g/><g/><g/><g/></svg>