<svg id="Capa_1" enable-background="new 0 0 512 512" viewBox="0 0 512 512" xmlns="http://www.w3.org/2000/svg" fill="#E6ECF2"><g><g><path d="m481 69.996h-34v-58.996c0-6.075-4.925-11-11-11h-360c-6.075 0-11 4.925-11 11v58.996h-34c-17.094 0-31 13.906-31 31v300.001c0 17.093 13.906 31 31 31h167.936l-11.891 58.003h-11.045c-6.075 0-11 4.925-11 11s4.925 11 11 11h160c6.075 0 11-4.925 11-11s-4.925-11-11-11h-11.045l-11.89-58.003h167.935c17.093 0 31-13.906 31-31v-300.001c0-17.094-13.906-31-31-31zm0 22c4.962 0 9 4.037 9 9v264.001h-43v-273h34zm-56-69.996v342.996h-338v-342.996zm-394 69.996h34v273h-43v-264c0-4.963 4.038-9 9-9zm271.498 398.004h-92.995l11.891-58.003h69.214zm178.502-80.003h-450c-4.962 0-9-4.037-9-9v-14h468v14c0 4.962-4.037 9-9 9z"/><path d="m126.374 235.998h45c6.075 0 11-4.925 11-11s-4.925-11-11-11h-45c-6.075 0-11 4.925-11 11s4.925 11 11 11z"/><path d="m216.374 235.998h169.252c6.075 0 11-4.925 11-11s-4.925-11-11-11h-169.252c-6.075 0-11 4.925-11 11s4.925 11 11 11z"/><path d="m216.374 282.397h169.252c6.075 0 11-4.925 11-11s-4.925-11-11-11h-169.252c-6.075 0-11 4.925-11 11s4.925 11 11 11z"/><path d="m126.374 282.397h45c6.075 0 11-4.925 11-11s-4.925-11-11-11h-45c-6.075 0-11 4.925-11 11s4.925 11 11 11z"/><path d="m216.374 328.796h84.626c6.075 0 11-4.925 11-11s-4.925-11-11-11h-84.626c-6.075 0-11 4.925-11 11s4.925 11 11 11z"/><path d="m126.374 328.796h45c6.075 0 11-4.925 11-11s-4.925-11-11-11h-45c-6.075 0-11 4.925-11 11s4.925 11 11 11z"/></g><g fill="#0496FF"><path d="m216.874 58.2c-18.196 0-33 14.804-33 33v66c0 6.075 4.925 11 11 11s11-4.925 11-11v-22.001h22v22.001c0 6.075 4.925 11 11 11s11-4.925 11-11v-66c0-18.196-14.804-33-33-33zm11 54.999h-22v-21.999c0-6.065 4.935-11 11-11 6.066 0 11 4.935 11 11z"/><path d="m164.874 58.201h-38.5c-6.075 0-11 4.925-11 11s4.925 11 11 11h8.25v77c0 6.075 4.925 11 11 11s11-4.925 11-11v-77h8.25c6.075 0 11-4.925 11-11s-4.925-11-11-11z"/><path d="m395.926 153.338-18.252-48.675 17.453-29.921c3.061-5.248 1.289-11.983-3.959-15.044-5.247-3.061-11.983-1.289-15.044 3.959l-17.998 30.854v-25.311c0-6.075-4.925-11-11-11s-11 4.925-11 11v88c0 6.075 4.925 11 11 11s11-4.925 11-11v-19.026l5.245-8.992 11.954 31.88c1.656 4.416 5.848 7.141 10.301 7.141 1.283 0 2.588-.226 3.861-.703 5.69-2.133 8.572-8.474 6.439-14.162z"/><path d="m303.045 105.459-11.697-4.844c-5.408-2.24-7.985-8.462-5.745-13.871 1.076-2.598 3.119-4.629 5.754-5.721 2.636-1.091 5.518-1.099 8.116-.024l5.849 2.422c5.615 2.327 12.047-.341 14.372-5.954s-.341-12.047-5.954-14.372l-5.849-2.422c-8.026-3.325-16.889-3.316-24.953.023-8.064 3.34-14.337 9.601-17.661 17.628-6.882 16.615 1.036 35.731 17.651 42.614l11.697 4.844c5.407 2.24 7.984 8.462 5.744 13.871-1.076 2.598-3.119 4.629-5.754 5.72-2.635 1.093-5.517 1.1-8.116.024l-5.849-2.422c-5.614-2.327-12.047.341-14.372 5.954s.341 12.047 5.954 14.372l5.849 2.422c4.003 1.658 8.215 2.487 12.431 2.487 4.237 0 8.479-.837 12.521-2.511 8.065-3.34 14.337-9.601 17.661-17.628 6.884-16.612-1.034-35.729-17.649-42.612z"/></g></g><g/><g/><g/><g/><g/><g/><g/><g/><g/><g/><g/><g/><g/><g/><g/></svg>