<svg width="211" height="48" viewBox="0 0 211 48" fill="none" xmlns="http://www.w3.org/2000/svg">
<path d="M21.6673 41.9036V42.9994H21.6141V43.042H5.0963L5.36229 41.728C5.41017 41.494 5.46336 41.2652 5.51124 41.0471C5.55912 40.8396 5.61764 40.6268 5.67615 40.414L5.70807 40.297L5.73999 40.1853C5.78787 40.0204 5.83575 39.8661 5.88363 39.7065V39.6852C5.92619 39.5576 5.96875 39.4299 6.01662 39.2969C6.0645 39.1533 6.11769 39.0096 6.17089 38.866C6.23472 38.6851 6.30921 38.4989 6.38369 38.3181C6.44752 38.1585 6.51135 38.0095 6.58582 37.8446C6.61242 37.7808 6.63903 37.7116 6.67627 37.6478C6.74542 37.4935 6.80926 37.3552 6.87309 37.2222C6.89969 37.1637 6.92629 37.1051 6.95821 37.052C7.02737 36.9136 7.10185 36.77 7.17632 36.6317C7.20292 36.5785 7.23484 36.5147 7.2774 36.4455C7.2774 36.4455 7.2774 36.4402 7.2774 36.4349V36.4189L7.29336 36.3976C7.38911 36.2168 7.47954 36.0572 7.56998 35.9082C7.6551 35.7646 7.74554 35.6103 7.84662 35.456L7.88384 35.4028C7.91044 35.3603 7.94236 35.3124 7.96896 35.2699L8.0062 35.2113C8.10196 35.0571 8.21367 34.8922 8.32006 34.7379C8.44242 34.5623 8.57009 34.3814 8.71372 34.1899C8.80947 34.0569 8.91056 33.924 9.04356 33.7537L9.05419 33.7431L9.06482 33.7324L9.09143 33.7005C9.12867 33.6473 9.17654 33.5941 9.21378 33.5463C9.32017 33.4133 9.43189 33.2749 9.55425 33.1366C9.58085 33.0994 9.60745 33.0781 9.62341 33.0568C9.74576 32.9132 9.86279 32.7802 9.99578 32.6419C10.033 32.5993 10.0703 32.5568 10.1128 32.5196C10.2405 32.3812 10.3788 32.2376 10.5597 32.0567C11.9268 30.6896 13.4643 29.5511 15.1453 28.668H6.93162C4.78245 30.8438 3.09076 33.3654 1.89913 36.1742C0.643676 39.132 0.00531974 42.276 0 45.521V47.6382V48H26.4976V26.4763V22.5344V6.41559V5.31973H26.5615L27.6573 5.30908H43.0792L42.8133 6.62307C42.0685 10.2884 40.2651 13.6345 37.5999 16.2944C37.036 16.8582 36.4455 17.3796 35.8231 17.8636H42.8452C44.2443 16.1347 45.388 14.2249 46.2551 12.1768C47.5053 9.21907 48.1436 6.07511 48.1543 2.83538V0.351074H21.6513V41.9089L21.6673 41.9036Z" fill="#0496FF"/>
<path d="M4.98456 21.513V5.05908L6.29322 5.31974C9.9798 6.05386 13.3472 7.85725 16.0177 10.5331C16.1986 10.7139 16.3794 10.9055 16.555 11.097V4.5058C15.1027 3.45782 13.5334 2.58006 11.8843 1.88318C8.92649 0.633037 5.78252 0 2.53216 0H0.0159302V25.024H16.555V21.5184H4.97924L4.98456 21.513Z" fill="#0496FF"/>
<path d="M42.8505 25.0134V42.925L41.5418 42.6643C37.8606 41.9355 34.4985 40.1374 31.812 37.4563C31.7535 37.3977 31.7003 37.3445 31.6418 37.286V43.7495C32.9824 44.6752 34.424 45.4678 35.9401 46.1062C38.9032 47.3616 42.0472 47.9947 45.2922 47.9947H47.8085V21.5077H31.6471V25.0134H42.8505Z" fill="#0496FF"/>
<path d="M65.1693 23.85C65.1693 21.8587 65.614 20.08 66.5033 18.514C67.412 16.9287 68.6396 15.701 70.1863 14.831C71.7523 13.9417 73.502 13.497 75.4353 13.497C77.6973 13.497 79.679 14.077 81.3803 15.237C83.0816 16.397 84.2706 18.0017 84.9473 20.051H80.2783C79.8143 19.0843 79.157 18.3593 78.3063 17.876C77.475 17.3927 76.5083 17.151 75.4063 17.151C74.227 17.151 73.1733 17.4313 72.2453 17.992C71.3366 18.5333 70.6213 19.3067 70.0993 20.312C69.5966 21.3173 69.3453 22.4967 69.3453 23.85C69.3453 25.184 69.5966 26.3633 70.0993 27.388C70.6213 28.3933 71.3366 29.1763 72.2453 29.737C73.1733 30.2783 74.227 30.549 75.4063 30.549C76.5083 30.549 77.475 30.3073 78.3063 29.824C79.157 29.3213 79.8143 28.5867 80.2783 27.62H84.9473C84.2706 29.6887 83.0816 31.303 81.3803 32.463C79.6983 33.6037 77.7166 34.174 75.4353 34.174C73.502 34.174 71.7523 33.739 70.1863 32.869C68.6396 31.9797 67.412 30.752 66.5033 29.186C65.614 27.62 65.1693 25.8413 65.1693 23.85ZM95.5491 34.261C94.0024 34.261 92.6104 33.9227 91.3731 33.246C90.1357 32.55 89.1594 31.5737 88.4441 30.317C87.7481 29.0603 87.4001 27.6103 87.4001 25.967C87.4001 24.3237 87.7577 22.8737 88.4731 21.617C89.2077 20.3603 90.2034 19.3937 91.4601 18.717C92.7167 18.021 94.1184 17.673 95.6651 17.673C97.2117 17.673 98.6134 18.021 99.8701 18.717C101.127 19.3937 102.113 20.3603 102.828 21.617C103.563 22.8737 103.93 24.3237 103.93 25.967C103.93 27.6103 103.553 29.0603 102.799 30.317C102.064 31.5737 101.059 32.55 99.7831 33.246C98.5264 33.9227 97.1151 34.261 95.5491 34.261ZM95.5491 30.723C96.2837 30.723 96.9701 30.549 97.6081 30.201C98.2654 29.8337 98.7874 29.2923 99.1741 28.577C99.5607 27.8617 99.7541 26.9917 99.7541 25.967C99.7541 24.4397 99.3481 23.27 98.5361 22.458C97.7434 21.6267 96.7671 21.211 95.6071 21.211C94.4471 21.211 93.4707 21.6267 92.6781 22.458C91.9047 23.27 91.5181 24.4397 91.5181 25.967C91.5181 27.4943 91.8951 28.6737 92.6491 29.505C93.4224 30.317 94.3891 30.723 95.5491 30.723ZM110.968 20.428C111.49 19.5773 112.167 18.9103 112.998 18.427C113.849 17.9437 114.816 17.702 115.898 17.702V21.965H114.825C113.549 21.965 112.583 22.2647 111.925 22.864C111.287 23.4633 110.968 24.5073 110.968 25.996V34H106.908V17.934H110.968V20.428ZM133.568 25.619C133.568 26.199 133.529 26.721 133.452 27.185H121.707C121.804 28.345 122.21 29.2537 122.925 29.911C123.64 30.5683 124.52 30.897 125.564 30.897C127.072 30.897 128.145 30.2493 128.783 28.954H133.162C132.698 30.5007 131.809 31.7767 130.494 32.782C129.179 33.768 127.565 34.261 125.651 34.261C124.104 34.261 122.712 33.9227 121.475 33.246C120.257 32.55 119.3 31.5737 118.604 30.317C117.927 29.0603 117.589 27.6103 117.589 25.967C117.589 24.3043 117.927 22.8447 118.604 21.588C119.281 20.3313 120.228 19.3647 121.446 18.688C122.664 18.0113 124.066 17.673 125.651 17.673C127.178 17.673 128.541 18.0017 129.74 18.659C130.958 19.3163 131.896 20.254 132.553 21.472C133.23 22.6707 133.568 24.053 133.568 25.619ZM129.363 24.459C129.344 23.415 128.967 22.5837 128.232 21.965C127.497 21.327 126.598 21.008 125.535 21.008C124.53 21.008 123.679 21.3173 122.983 21.936C122.306 22.5353 121.891 23.3763 121.736 24.459H129.363ZM143.52 34.203C142.109 34.203 140.833 33.9613 139.692 33.478C138.571 32.9947 137.682 32.2987 137.024 31.39C136.367 30.4813 136.029 29.4083 136.009 28.171H140.359C140.417 29.0023 140.707 29.6597 141.229 30.143C141.771 30.6263 142.505 30.868 143.433 30.868C144.381 30.868 145.125 30.6457 145.666 30.201C146.208 29.737 146.478 29.1377 146.478 28.403C146.478 27.8037 146.295 27.3107 145.927 26.924C145.56 26.5373 145.096 26.2377 144.535 26.025C143.994 25.793 143.24 25.5417 142.273 25.271C140.959 24.8843 139.886 24.5073 139.054 24.14C138.242 23.7533 137.537 23.183 136.937 22.429C136.357 21.6557 136.067 20.631 136.067 19.355C136.067 18.1563 136.367 17.1123 136.966 16.223C137.566 15.3337 138.407 14.657 139.489 14.193C140.572 13.7097 141.809 13.468 143.201 13.468C145.289 13.468 146.981 13.9803 148.276 15.005C149.591 16.0103 150.316 17.4217 150.451 19.239H145.985C145.947 18.543 145.647 17.9727 145.086 17.528C144.545 17.064 143.82 16.832 142.911 16.832C142.119 16.832 141.481 17.035 140.997 17.441C140.533 17.847 140.301 18.4367 140.301 19.21C140.301 19.7513 140.475 20.2057 140.823 20.573C141.191 20.921 141.635 21.211 142.157 21.443C142.699 21.6557 143.453 21.907 144.419 22.197C145.734 22.5837 146.807 22.9703 147.638 23.357C148.47 23.7437 149.185 24.3237 149.784 25.097C150.384 25.8703 150.683 26.8853 150.683 28.142C150.683 29.2247 150.403 30.23 149.842 31.158C149.282 32.086 148.46 32.8303 147.377 33.391C146.295 33.9323 145.009 34.203 143.52 34.203ZM153.159 25.909C153.159 24.285 153.478 22.8447 154.116 21.588C154.773 20.3313 155.653 19.3647 156.755 18.688C157.876 18.0113 159.123 17.673 160.496 17.673C161.695 17.673 162.739 17.9147 163.628 18.398C164.537 18.8813 165.262 19.4903 165.803 20.225V17.934H169.892V34H165.803V31.651C165.281 32.405 164.556 33.0333 163.628 33.536C162.719 34.0193 161.666 34.261 160.467 34.261C159.114 34.261 157.876 33.913 156.755 33.217C155.653 32.521 154.773 31.5447 154.116 30.288C153.478 29.012 153.159 27.5523 153.159 25.909ZM165.803 25.967C165.803 24.981 165.61 24.14 165.223 23.444C164.836 22.7287 164.314 22.1873 163.657 21.82C163 21.4333 162.294 21.24 161.54 21.24C160.786 21.24 160.09 21.4237 159.452 21.791C158.814 22.1583 158.292 22.6997 157.886 23.415C157.499 24.111 157.306 24.9423 157.306 25.909C157.306 26.8757 157.499 27.7263 157.886 28.461C158.292 29.1763 158.814 29.7273 159.452 30.114C160.109 30.5007 160.805 30.694 161.54 30.694C162.294 30.694 163 30.5103 163.657 30.143C164.314 29.7563 164.836 29.215 165.223 28.519C165.61 27.8037 165.803 26.953 165.803 25.967ZM180.15 17.673C181.349 17.673 182.403 17.9147 183.311 18.398C184.22 18.862 184.935 19.471 185.457 20.225V17.934H189.546V34.116C189.546 35.6047 189.247 36.929 188.647 38.089C188.048 39.2683 187.149 40.1963 185.95 40.873C184.752 41.569 183.302 41.917 181.6 41.917C179.319 41.917 177.444 41.3853 175.974 40.322C174.524 39.2587 173.703 37.8087 173.509 35.972H177.54C177.753 36.7067 178.207 37.2867 178.903 37.712C179.619 38.1567 180.479 38.379 181.484 38.379C182.664 38.379 183.621 38.0213 184.355 37.306C185.09 36.61 185.457 35.5467 185.457 34.116V31.622C184.935 32.376 184.21 33.0043 183.282 33.507C182.374 34.0097 181.33 34.261 180.15 34.261C178.797 34.261 177.56 33.913 176.438 33.217C175.317 32.521 174.428 31.5447 173.77 30.288C173.132 29.012 172.813 27.5523 172.813 25.909C172.813 24.285 173.132 22.8447 173.77 21.588C174.428 20.3313 175.307 19.3647 176.409 18.688C177.531 18.0113 178.778 17.673 180.15 17.673ZM185.457 25.967C185.457 24.981 185.264 24.14 184.877 23.444C184.491 22.7287 183.969 22.1873 183.311 21.82C182.654 21.4333 181.948 21.24 181.194 21.24C180.44 21.24 179.744 21.4237 179.106 21.791C178.468 22.1583 177.946 22.6997 177.54 23.415C177.154 24.111 176.96 24.9423 176.96 25.909C176.96 26.8757 177.154 27.7263 177.54 28.461C177.946 29.1763 178.468 29.7273 179.106 30.114C179.764 30.5007 180.46 30.694 181.194 30.694C181.948 30.694 182.654 30.5103 183.311 30.143C183.969 29.7563 184.491 29.215 184.877 28.519C185.264 27.8037 185.457 26.953 185.457 25.967ZM208.447 25.619C208.447 26.199 208.408 26.721 208.331 27.185H196.586C196.682 28.345 197.088 29.2537 197.804 29.911C198.519 30.5683 199.399 30.897 200.443 30.897C201.951 30.897 203.024 30.2493 203.662 28.954H208.041C207.577 30.5007 206.687 31.7767 205.373 32.782C204.058 33.768 202.444 34.261 200.53 34.261C198.983 34.261 197.591 33.9227 196.354 33.246C195.136 32.55 194.179 31.5737 193.483 30.317C192.806 29.0603 192.468 27.6103 192.468 25.967C192.468 24.3043 192.806 22.8447 193.483 21.588C194.159 20.3313 195.107 19.3647 196.325 18.688C197.543 18.0113 198.944 17.673 200.53 17.673C202.057 17.673 203.42 18.0017 204.619 18.659C205.837 19.3163 206.774 20.254 207.432 21.472C208.108 22.6707 208.447 24.053 208.447 25.619ZM204.242 24.459C204.222 23.415 203.845 22.5837 203.111 21.965C202.376 21.327 201.477 21.008 200.414 21.008C199.408 21.008 198.558 21.3173 197.862 21.936C197.185 22.5353 196.769 23.3763 196.615 24.459H204.242Z" fill="#052438"/>
</svg>
