<?xml version="1.0" encoding="UTF-8"?>
<svg id="Layer_1" xmlns="http://www.w3.org/2000/svg" version="1.1" viewBox="0 0 337.8 102.5">
  <!-- Generator: Adobe Illustrator 30.5.1, SVG Export Plug-In . SVG Version: 2.1.4 Build 3)  -->
  <defs>
    <style>
      .st0 {
        fill: #0082ca;
      }
    </style>
  </defs>
  <path class="st0" d="M52.7,71.7c-.4-1.2-1.4-1.9-2.6-1.9-.3,0-.6,0-1,.1-1.7.4-2.7.5-4,.6-2.5.1-2.9-.9-3.1-3.7V28.4c0-.9-.5-1.8-1.2-2.3l-.3-.2c0,0-.2-.1-.3-.2-2.1-1.2-5.6-2.2-8.5-3h-.2c-3.5-.9-7.4-1.4-11.2-1.4s-4.3.2-5.1.3c-1.7.2-6.2.9-7.7,1.4-.4.1-1.9.8-1.9,2.2,0,.7.8,3,.8,3,.5,1.6,1.1,2,2.1,2.2.8,0,2.5-.3,3.7-.5,3-.5,4.9-.8,6.3-.8,1.8,0,4,0,6.7.3,5,.8,7,2.3,7,2.3v14.9h-.4s-10.7.3-10.7.3C6.5,47.5,0,53.1,0,64.6c0,5.2,1.6,9.4,4.7,12.1,2.9,2.5,7.1,3.9,12.2,3.9h0c5.9,0,10.9-1.8,15.8-5.7l.5-.4.2.5c1.2,2.6,3.2,4.3,6,5,1.2.3,2.7.5,4.5.5s.9,0,1.3,0c1.6-.2,3.8-.5,6.2-1.7,1.3-.6,2.3-1.4,2.2-2.8,0-1.2-1-4.3-1-4.3M32.5,68.2h-.2c0,.1-.2.3-.2.3-3.6,2.5-8.9,4.1-13.3,4.1h0c-6.4-.1-8.7-2.4-8.9-8.6.1-7.1,2.5-9.3,10.5-9.8l11-.5h.5s.5,0,.5,0v14.5Z"/>
  <path class="st0" d="M211.2,80.3h-5.2c-.8,0-1.5-.3-1.9-.7-.4-.5-.6-1.2-.6-2.1V28.1c0-.9.2-1.6.7-2.1.4-.4,1-.6,1.9-.6h4.7c.9,0,1.5.2,1.9.6.5.4.7,1.1.7,1.8v1.3c0,0,0,1.1,0,1.1l.7-.8c2.2-2.4,6-5.2,11.5-5.2s2.1.1,3.3.3c1,.2,1.4,1.2,1.3,1.7,0,.3,0,.5,0,.7l-.8,5c0,.9-.8,1.5-1.5,1.5-.6,0-.9,0-1.3-.1-.6,0-1.2-.2-2.3-.2-3.6,0-7.7,2.4-10.4,6.2h0v38.3c0,.8-.2,1.5-.6,2-.4.5-1.1.8-1.9.8"/>
  <path class="st0" d="M167.8,22.1c-13.4,0-23.5,9.3-23.5,30.5s9.1,29,26.3,29,5.9-.3,9-.9c.5,0,1-.2,1.5-.3,1.9-.5,3.9-1.3,4.6-1.7,1.1-.4,1.9-1.2,2-2.3-.3-1.6-.7-3.1-1.1-4.6-.4-1-1.3-1.7-2.3-1.6-.3,0-4.9,1-5.2,1.1-2.6.7-5.5,1.1-8.2,1.1-12.2,0-15.8-5.8-15.8-17.8v-.9h31.9c.9,0,1.7-.8,1.8-1.8,0-.1,0-.3,0-.4.1-2.1.2-4.3.2-6.1,0-14.7-7.2-23.3-21.1-23.3M179,46.9h-24c.3-12.1,4.9-17,12.5-17s11.6,4,11.6,13.5,0,2.6-.1,3.5"/>
  <path class="st0" d="M243.4,102.5h-.3c-1.9,0-3.4-.1-5-.4-.9-.2-1.3-1.4-1.1-3,0,0,.1-1.8.4-3,.2-1.3.9-1.9,1.5-1.9h.7c.3,0,.7.1,1.1.1.9.1,1.9.2,2.6.2,6.2,0,9.6-2.3,12-8.1l2.9-7,.3-.7v-.3c.1,0,0-.3,0-.3l-19.2-50.7c0-.2-.1-.5-.1-.7s0-.6.3-.9c.2-.2.5-.4.9-.4h7.3c1.1,0,1.8.6,2.1,1.4l12.6,36.3.8,2.4.9-2.4,13.1-36.1c.3-1,1.1-1.7,2-1.7h.3s6,0,6,0c.5,0,.9,0,1.1.3.3.2.3.5.3.8,0,.3,0,.6-.2.9l-21.5,57.6c-4.7,12.8-10.6,17.6-21.9,17.6"/>
  <path class="st0" d="M329.9,80.2c-1.2,0-2.3-.6-2.9-1.7l-11.5-17.7-.4-.6-.4.6-11.4,17.7c-.6,1.1-1.6,1.7-2.9,1.7h-.2s-6.1,0-6.1,0c-.5,0-.9-.1-1.2-.3-.3-.2-.5-.7-.5-1.1,0-.5.2-1,.5-1.5l16.6-25.2.2-.3-.2-.3-15.3-23.6c-.3-.4-.4-.8-.4-1.2,0-1,.9-1.6,1.8-1.6h5.8c1.2,0,2.2.5,2.6,1.4l10.8,16.3.4.6.4-.6,10.7-16.2c.5-.9,1.5-1.5,2.6-1.5h5.9c.9,0,1.8.6,1.8,1.6s-.1.7-.4,1.1l-15.3,23.6-.2.3.2.3,16.5,25.1c.4.5.5,1,.5,1.5,0,.4-.2.9-.5,1.1-.3.2-.7.3-1.2.3h-6.3Z"/>
  <path class="st0" d="M81.5,80.3c-2.7,0-5.3-.4-7.6-1.3-2.1-.7-3.7-1.8-4.9-3-3.3-3.6-3.5-8-3.6-13.9V5.8c0-.3.1-.7.4-.9,1.9-2.2,4.4-3.8,7.4-4.8.2,0,.3,0,.5,0,.2,0,.9,0,1.4.5.5.5.7,1.1.7,2v59.9c0,3.1.8,5.6,2.1,7.1,1.2,1.3,3.1,1.9,5.5,1.9s1.2,0,2-.1c1.8-.3,3.4-.7,4.5-1.1.3-.1.6-.2.9-.2,1,0,1.8.7,2.1,1.7,0,0,.9,2.9,1,4.2,0,1.2-1,2-1.9,2.3-1.2.5-5.6,2-10.4,2"/>
  <path class="st0" d="M134.1,71.7c-.3-1-1.1-1.7-2.1-1.7s-.6,0-.9.2c-1.6.5-4.1,1.2-6.3,1.2h-.2c-2.5,0-4.3-.6-5.5-1.9-1.1-1.2-1.9-3.2-2-7v-.2l.3-29.6h12.1c.6,0,1.2,0,1.7-.5.6-.5.7-1.3.7-1.7v-3.7c0-.8-.2-1.4-.7-1.8-.5-.4-1.1-.4-1.6-.4h-12.2V6.2c0-.9-.2-1.5-.7-2-.5-.5-1.2-.6-1.4-.6s-.3,0-.5,0c-.7.3-2.6.9-4.7,2.4-.7.5-1.5,1.2-2.2,1.9-.2.3-.3.6-.3.9l-.3,15.5h-6.3c-.6,0-1.3.2-1.7.7-.5.5-.6,1.2-.6,1.8v3.4c0,.7,0,1.4.5,2,.6.6,1.3.5,2,.6h5.9l-.6,27.9v1.2c0,5.9.3,10.4,3.6,14,2.5,2.7,7.1,4.3,12.5,4.3,4.9,0,8.7-1.3,10.5-2,.9-.4,2-1.2,1.9-2.3,0-1.1-1-4.2-1-4.2"/>
</svg>