<?xml version="1.0" encoding="UTF-8"?>
<svg id="_图层_1" data-name="图层 1" xmlns="http://www.w3.org/2000/svg" viewBox="0 0 120.8 24.99">
  <defs>
    <style>
      .cls-1 {
        fill: #e8762c;
      }

      .cls-2 {
        fill: #eb912c;
      }

      .cls-3 {
        fill: #59879b;
      }

      .cls-4, .cls-5 {
        fill: #1f447e;
      }

      .cls-6 {
        fill: #7099a6;
      }

      .cls-7 {
        fill: #c72035;
      }

      .cls-5 {
        fill-rule: evenodd;
      }

      .cls-8 {
        fill: #5b6591;
      }
    </style>
  </defs>
  <polygon class="cls-1" points="16.84 11.77 13.36 11.77 13.36 7.98 11.99 7.98 11.99 11.77 8.5 11.77 8.5 13.11 11.99 13.11 11.99 16.9 13.36 16.9 13.36 13.11 16.84 13.11 16.84 11.77"/>
  <polygon class="cls-7" points="9.84 17.95 6.71 17.95 6.71 14.56 5.54 14.56 5.54 17.95 2.41 17.95 2.41 18.99 5.54 18.99 5.54 22.38 6.71 22.38 6.71 18.99 9.84 18.99 9.84 17.95"/>
  <polygon class="cls-3" points="22.93 5.82 19.81 5.82 19.81 2.42 18.63 2.42 18.63 5.82 15.51 5.82 15.51 6.86 18.63 6.86 18.63 10.23 19.81 10.23 19.81 6.86 22.93 6.86 22.93 5.82"/>
  <polygon class="cls-8" points="15.32 21.71 13.2 21.71 13.2 19.35 12.19 19.35 12.19 21.71 10.07 21.71 10.07 22.63 12.19 22.63 12.19 24.99 13.2 24.99 13.2 22.63 15.32 22.63 15.32 21.71"/>
  <polygon class="cls-2" points="9.84 5.82 6.68 5.82 6.68 2.42 5.57 2.42 5.57 5.82 2.41 5.82 2.41 6.82 5.57 6.82 5.57 10.23 6.68 10.23 6.68 6.82 9.84 6.82 9.84 5.82"/>
  <polygon class="cls-8" points="25.33 11.99 23.21 11.99 23.21 9.62 22.2 9.62 22.2 11.99 20.09 11.99 20.09 12.9 22.2 12.9 22.2 15.27 23.21 15.27 23.21 12.9 25.33 12.9 25.33 11.99"/>
  <polygon class="cls-5" points="22.93 17.95 19.81 17.95 19.81 14.56 18.63 14.56 18.63 17.95 15.51 17.95 15.51 18.99 18.63 18.99 18.63 22.38 19.81 22.38 19.81 18.99 22.93 18.99 22.93 17.95"/>
  <polygon class="cls-6" points="12.31 0 12.31 2.32 10.22 2.32 10.22 3.02 12.31 3.02 12.31 5.34 13.07 5.34 13.07 3.02 15.16 3.02 15.16 2.32 13.07 2.32 13.07 0 12.31 0"/>
  <polygon class="cls-6" points="2.09 9.8 2.09 12.08 0 12.08 0 12.81 2.09 12.79 2.09 15.08 2.83 15.08 2.83 12.79 4.94 12.78 4.94 12.08 2.83 12.08 2.83 9.8 2.09 9.8"/>
  <g>
    <path class="cls-5" d="M63.9,10.56c.76-.3,1.44-.39,1.87-.39,2.16,0,3.62,1.52,3.62,3.9s-1.53,3.91-4.24,3.91c-.94,0-1.86-.18-2.82-.51l-.05-10.92h1.62v4ZM65.32,16.49c1.51,0,2.38-.86,2.38-2.41s-.87-2.43-2.23-2.43c-.59,0-1.15.2-1.56.39v4.17c.5.18.96.27,1.42.27"/>
    <rect class="cls-4" x="75.59" y="5.02" width="1.6" height="14.33"/>
    <path class="cls-5" d="M85.51,13.22h3.67c-.04-.98-.57-1.49-1.5-1.54-.94-.06-1.86.54-2.17,1.54M87.32,18.01c-2.46-.24-3.67-1.97-3.6-4.03.07-2.22,1.51-3.79,3.7-3.79,2.3,0,3.63,1.7,3.52,4.21h-5.53c.13,1.39.96,2.05,2.1,2.13.95.08,2.29-.14,3.02-.6v1.53c-.96.46-1.95.67-3.21.55"/>
    <path class="cls-5" d="M113.88,16.75c1.02,0,1.7-.52,1.7-1.68v-4.74h1.62v4.94c0,1.65-1.28,2.66-3.32,2.66s-3.32-1.01-3.32-2.66v-4.94h1.62v4.74c0,1.16.69,1.68,1.7,1.68"/>
    <path class="cls-5" d="M51.64,17.98c-2.71,0-4.24-1.44-4.24-3.91s1.46-3.9,3.62-3.9c.73,0,1.33.16,1.87.51v-.55h1.62l-.04,7.34c-.68.3-1.8.51-2.83.51M51.47,16.49c.37,0,.82-.03,1.38-.18l.03-4.13c-.52-.35-1.02-.52-1.56-.52-1.36,0-2.23.91-2.23,2.43s.87,2.43,2.38,2.41"/>
    <path class="cls-5" d="M101.42,17.98c-2.71,0-4.23-1.44-4.23-3.91s1.46-3.9,3.62-3.9c.73,0,1.33.16,1.87.51v-.55h1.62l-.05,7.34c-.68.3-1.8.51-2.82.51M101.26,16.49c.32,0,.81-.03,1.38-.18l.03-4.13c-.52-.35-1.02-.52-1.56-.52-1.36,0-2.23.91-2.23,2.43s.87,2.41,2.38,2.41"/>
    <polygon class="cls-4" points="35.63 7.07 37.23 7.07 37.23 11.62 41.56 11.62 41.56 13.11 37.23 13.11 37.23 18.04 35.63 18.04 35.63 13.11 31.3 13.11 31.3 11.62 35.63 11.62 35.63 7.07"/>
    <path class="cls-4" d="M119.86,10.27c.52,0,.94.43.94.96s-.42.96-.95.96-.95-.42-.95-.96.43-.96.95-.96h0ZM119.85,10.42c-.42,0-.77.36-.77.81s.35.81.77.81c.43,0,.77-.36.77-.81s-.34-.81-.77-.81h0ZM119.67,11.79h-.17v-1.07c.09-.01.18-.03.3-.03.16,0,.27.04.33.08.07.05.1.12.1.22,0,.14-.09.22-.21.26h0c.09.03.16.11.18.27.03.17.05.23.07.27h-.18s-.05-.13-.07-.27c-.03-.14-.1-.19-.23-.19h-.12v.46ZM119.67,11.2h.12c.14,0,.26-.05.26-.18,0-.09-.07-.19-.26-.19-.05,0-.09,0-.12,0v.36Z"/>
  </g>
</svg>