<svg width="251" height="48" viewBox="0 0 251 48" fill="none" xmlns="http://www.w3.org/2000/svg">
<path d="M10.3358 18.7906H11.3348V19.7896V35.2325L15.8717 30.6956V14.2538H0.00487414L0 46.5673L4.53686 42.0304V19.7896V18.7906H5.54071H10.3358Z" fill="#0496FF"/>
<path d="M28.2104 36.6651H29.2142V37.669V42.4593V43.4631H28.2104H8.27941L3.74255 48L33.7462 47.9951V32.1283H19.6142L15.0774 36.6651H28.2104Z" fill="#0496FF"/>
<path d="M43.468 18.05V19.0538H42.469H32.6887L28.1567 23.5858H48V3.74255L43.468 8.27453V18.05Z" fill="#0496FF"/>
<path d="M42.0353 4.53199L46.5673 0H24.4142V22.1482L28.951 17.6163V5.53585V4.53199H29.95H42.0353Z" fill="#0496FF"/>
<path d="M72.99 34.203C71.5787 34.203 70.3027 33.9613 69.162 33.478C68.0407 32.9947 67.1513 32.2987 66.494 31.39C65.8367 30.4813 65.4983 29.4083 65.479 28.171H69.829C69.887 29.0023 70.177 29.6597 70.699 30.143C71.2403 30.6263 71.975 30.868 72.903 30.868C73.8503 30.868 74.5947 30.6457 75.136 30.201C75.6773 29.737 75.948 29.1377 75.948 28.403C75.948 27.8037 75.7643 27.3107 75.397 26.924C75.0297 26.5373 74.5657 26.2377 74.005 26.025C73.4637 25.793 72.7097 25.5417 71.743 25.271C70.4283 24.8843 69.3553 24.5073 68.524 24.14C67.712 23.7533 67.0063 23.183 66.407 22.429C65.827 21.6557 65.537 20.631 65.537 19.355C65.537 18.1563 65.8367 17.1123 66.436 16.223C67.0353 15.3337 67.8763 14.657 68.959 14.193C70.0417 13.7097 71.279 13.468 72.671 13.468C74.759 13.468 76.4507 13.9803 77.746 15.005C79.0607 16.0103 79.7857 17.4217 79.921 19.239H75.455C75.4163 18.543 75.1167 17.9727 74.556 17.528C74.0147 17.064 73.2897 16.832 72.381 16.832C71.5883 16.832 70.9503 17.035 70.467 17.441C70.003 17.847 69.771 18.4367 69.771 19.21C69.771 19.7513 69.945 20.2057 70.293 20.573C70.6603 20.921 71.105 21.211 71.627 21.443C72.1683 21.6557 72.9223 21.907 73.889 22.197C75.2037 22.5837 76.2767 22.9703 77.108 23.357C77.9393 23.7437 78.6547 24.3237 79.254 25.097C79.8533 25.8703 80.153 26.8853 80.153 28.142C80.153 29.2247 79.8727 30.23 79.312 31.158C78.7513 32.086 77.9297 32.8303 76.847 33.391C75.7643 33.9323 74.4787 34.203 72.99 34.203ZM88.3999 21.269V29.041C88.3999 29.5823 88.5255 29.9787 88.7769 30.23C89.0475 30.462 89.4922 30.578 90.1109 30.578H91.9959V34H89.4439C86.0219 34 84.3109 32.3373 84.3109 29.012V21.269H82.3969V17.934H84.3109V13.961H88.3999V17.934H91.9959V21.269H88.3999ZM109.851 25.619C109.851 26.199 109.812 26.721 109.735 27.185H97.99C98.0867 28.345 98.4927 29.2537 99.208 29.911C99.9234 30.5683 100.803 30.897 101.847 30.897C103.355 30.897 104.428 30.2493 105.066 28.954H109.445C108.981 30.5007 108.092 31.7767 106.777 32.782C105.462 33.768 103.848 34.261 101.934 34.261C100.387 34.261 98.9954 33.9227 97.758 33.246C96.54 32.55 95.583 31.5737 94.887 30.317C94.2104 29.0603 93.872 27.6103 93.872 25.967C93.872 24.3043 94.2104 22.8447 94.887 21.588C95.5637 20.3313 96.511 19.3647 97.729 18.688C98.947 18.0113 100.349 17.673 101.934 17.673C103.461 17.673 104.824 18.0017 106.023 18.659C107.241 19.3163 108.179 20.254 108.836 21.472C109.513 22.6707 109.851 24.053 109.851 25.619ZM105.646 24.459C105.627 23.415 105.25 22.5837 104.515 21.965C103.78 21.327 102.881 21.008 101.818 21.008C100.813 21.008 99.962 21.3173 99.266 21.936C98.5894 22.5353 98.1737 23.3763 98.019 24.459H105.646ZM116.874 12.54V34H112.814V12.54H116.874ZM124.946 12.54V34H120.886V12.54H124.946ZM127.913 25.909C127.913 24.285 128.232 22.8447 128.87 21.588C129.527 20.3313 130.407 19.3647 131.509 18.688C132.63 18.0113 133.877 17.673 135.25 17.673C136.449 17.673 137.493 17.9147 138.382 18.398C139.291 18.8813 140.016 19.4903 140.557 20.225V17.934H144.646V34H140.557V31.651C140.035 32.405 139.31 33.0333 138.382 33.536C137.473 34.0193 136.42 34.261 135.221 34.261C133.868 34.261 132.63 33.913 131.509 33.217C130.407 32.521 129.527 31.5447 128.87 30.288C128.232 29.012 127.913 27.5523 127.913 25.909ZM140.557 25.967C140.557 24.981 140.364 24.14 139.977 23.444C139.59 22.7287 139.068 22.1873 138.411 21.82C137.754 21.4333 137.048 21.24 136.294 21.24C135.54 21.24 134.844 21.4237 134.206 21.791C133.568 22.1583 133.046 22.6997 132.64 23.415C132.253 24.111 132.06 24.9423 132.06 25.909C132.06 26.8757 132.253 27.7263 132.64 28.461C133.046 29.1763 133.568 29.7273 134.206 30.114C134.863 30.5007 135.559 30.694 136.294 30.694C137.048 30.694 137.754 30.5103 138.411 30.143C139.068 29.7563 139.59 29.215 139.977 28.519C140.364 27.8037 140.557 26.953 140.557 25.967ZM152.671 20.428C153.193 19.5773 153.87 18.9103 154.701 18.427C155.552 17.9437 156.519 17.702 157.601 17.702V21.965H156.528C155.252 21.965 154.286 22.2647 153.628 22.864C152.99 23.4633 152.671 24.5073 152.671 25.996V34H148.611V17.934H152.671V20.428ZM187.393 13.758L181.738 34H176.953L173.154 19.587L169.181 34L164.425 34.029L158.973 13.758H163.323L166.89 29.476L171.008 13.758H175.532L179.418 29.389L183.014 13.758H187.393ZM197.178 34.261C195.631 34.261 194.239 33.9227 193.002 33.246C191.765 32.55 190.788 31.5737 190.073 30.317C189.377 29.0603 189.029 27.6103 189.029 25.967C189.029 24.3237 189.387 22.8737 190.102 21.617C190.837 20.3603 191.832 19.3937 193.089 18.717C194.346 18.021 195.747 17.673 197.294 17.673C198.841 17.673 200.242 18.021 201.499 18.717C202.756 19.3937 203.742 20.3603 204.457 21.617C205.192 22.8737 205.559 24.3237 205.559 25.967C205.559 27.6103 205.182 29.0603 204.428 30.317C203.693 31.5737 202.688 32.55 201.412 33.246C200.155 33.9227 198.744 34.261 197.178 34.261ZM197.178 30.723C197.913 30.723 198.599 30.549 199.237 30.201C199.894 29.8337 200.416 29.2923 200.803 28.577C201.19 27.8617 201.383 26.9917 201.383 25.967C201.383 24.4397 200.977 23.27 200.165 22.458C199.372 21.6267 198.396 21.211 197.236 21.211C196.076 21.211 195.1 21.6267 194.307 22.458C193.534 23.27 193.147 24.4397 193.147 25.967C193.147 27.4943 193.524 28.6737 194.278 29.505C195.051 30.317 196.018 30.723 197.178 30.723ZM212.597 20.428C213.119 19.5773 213.796 18.9103 214.627 18.427C215.478 17.9437 216.444 17.702 217.527 17.702V21.965H216.454C215.178 21.965 214.211 22.2647 213.554 22.864C212.916 23.4633 212.597 24.5073 212.597 25.996V34H208.537V17.934H212.597V20.428ZM229.774 34L224.322 27.156V34H220.262V12.54H224.322V24.749L229.716 17.934H234.994L227.918 25.996L235.052 34H229.774ZM243.345 34.261C242.031 34.261 240.851 34.029 239.807 33.565C238.763 33.0817 237.932 32.434 237.313 31.622C236.714 30.81 236.385 29.911 236.327 28.925H240.416C240.494 29.5437 240.793 30.056 241.315 30.462C241.857 30.868 242.524 31.071 243.316 31.071C244.09 31.071 244.689 30.9163 245.114 30.607C245.559 30.2977 245.781 29.9013 245.781 29.418C245.781 28.896 245.511 28.5093 244.969 28.258C244.447 27.9873 243.606 27.6973 242.446 27.388C241.248 27.098 240.262 26.7983 239.488 26.489C238.734 26.1797 238.077 25.706 237.516 25.068C236.975 24.43 236.704 23.5697 236.704 22.487C236.704 21.5977 236.956 20.7857 237.458 20.051C237.98 19.3163 238.715 18.7363 239.662 18.311C240.629 17.8857 241.76 17.673 243.055 17.673C244.969 17.673 246.497 18.1563 247.637 19.123C248.778 20.0703 249.406 21.356 249.522 22.98H245.636C245.578 22.342 245.308 21.8393 244.824 21.472C244.36 21.0853 243.732 20.892 242.939 20.892C242.205 20.892 241.634 21.0273 241.228 21.298C240.842 21.5687 240.648 21.9457 240.648 22.429C240.648 22.9703 240.919 23.386 241.46 23.676C242.002 23.9467 242.843 24.227 243.983 24.517C245.143 24.807 246.1 25.1067 246.854 25.416C247.608 25.7253 248.256 26.2087 248.797 26.866C249.358 27.504 249.648 28.3547 249.667 29.418C249.667 30.346 249.406 31.1773 248.884 31.912C248.382 32.6467 247.647 33.2267 246.68 33.652C245.733 34.058 244.621 34.261 243.345 34.261Z" fill="#052438"/>
</svg>
