<svg width="232" height="48" viewBox="0 0 232 48" fill="none" xmlns="http://www.w3.org/2000/svg">
<path d="M10.8031 13.0898C12.4879 20.671 16.9325 25.9996 23.6683 29.5728C21.3452 31.8124 18.6711 33.7353 15.6306 34.8971C14.7245 35.1274 12.4531 36.3729 11.7113 35.864C7.83597 31.8845 3.90327 27.9587 0 24.0081C3.60468 20.3652 7.20697 16.7244 10.8031 13.0898Z" fill="#0496FF"/>
<path d="M37.567 34.0436C35.7923 26.7094 31.3388 21.5637 24.7328 18.1048C27.7564 15.086 31.6611 13.0384 35.7888 12.0004C39.3154 15.1451 42.5919 18.8384 45.9924 22.2043C46.2257 22.612 48.1165 23.8868 47.5409 24.1819C44.1924 27.4495 40.958 30.8199 37.567 34.0436Z" fill="#0496FF"/>
<path d="M18.3603 21.8046C15.596 18.6307 13.8321 14.7525 13.5556 10.5413C13.5261 10.3037 13.6687 10.1879 13.8132 10.0436C17.1395 6.67909 20.4998 3.34148 23.8481 0C27.0404 3.23095 30.2228 6.45177 33.419 9.68658C27.0599 11.6233 21.4722 15.8287 18.3603 21.8046Z" fill="#0496FF"/>
<path d="M23.8865 48C20.7919 44.8479 17.7179 41.7167 14.6546 38.5966C21.6725 36.5591 26.8176 32.2878 30.1837 25.8188C32.7446 28.902 34.9504 33.0408 34.7376 37.1096C31.1237 40.7458 27.4719 44.3355 23.8865 48Z" fill="#0496FF"/>
<path d="M22.7245 20.2991C24.5485 21.2951 26.2005 22.3692 27.8255 23.6318C27.8667 23.6619 27.8953 23.7774 27.871 23.818C27.4272 24.5603 26.9833 25.3026 26.52 26.0327C26.2038 26.3781 25.9582 27.1696 25.4747 27.2172C23.6999 26.2729 22.0309 25.1366 20.5056 23.8342C21.1766 22.6251 21.8041 21.3993 22.7245 20.2991Z" fill="#0496FF"/>
<path d="M82.4414 13.758V34H78.3814V25.387H69.7104V34H65.6504V13.758H69.7104V22.081H78.3814V13.758H82.4414ZM101.373 25.619C101.373 26.199 101.334 26.721 101.257 27.185H89.5115C89.6082 28.345 90.0142 29.2537 90.7295 29.911C91.4449 30.5683 92.3245 30.897 93.3685 30.897C94.8765 30.897 95.9495 30.2493 96.5875 28.954H100.967C100.503 30.5007 99.6132 31.7767 98.2985 32.782C96.9839 33.768 95.3695 34.261 93.4555 34.261C91.9089 34.261 90.5169 33.9227 89.2795 33.246C88.0615 32.55 87.1045 31.5737 86.4085 30.317C85.7319 29.0603 85.3935 27.6103 85.3935 25.967C85.3935 24.3043 85.7319 22.8447 86.4085 21.588C87.0852 20.3313 88.0325 19.3647 89.2505 18.688C90.4685 18.0113 91.8702 17.673 93.4555 17.673C94.9829 17.673 96.3459 18.0017 97.5445 18.659C98.7625 19.3163 99.7002 20.254 100.358 21.472C101.034 22.6707 101.373 24.053 101.373 25.619ZM97.1675 24.459C97.1482 23.415 96.7712 22.5837 96.0365 21.965C95.3019 21.327 94.4029 21.008 93.3395 21.008C92.3342 21.008 91.4835 21.3173 90.7875 21.936C90.1109 22.5353 89.6952 23.3763 89.5405 24.459H97.1675ZM103.292 25.909C103.292 24.285 103.611 22.8447 104.249 21.588C104.906 20.3313 105.786 19.3647 106.888 18.688C108.009 18.0113 109.256 17.673 110.629 17.673C111.828 17.673 112.872 17.9147 113.761 18.398C114.67 18.8813 115.395 19.4903 115.936 20.225V17.934H120.025V34H115.936V31.651C115.414 32.405 114.689 33.0333 113.761 33.536C112.852 34.0193 111.799 34.261 110.6 34.261C109.247 34.261 108.009 33.913 106.888 33.217C105.786 32.521 104.906 31.5447 104.249 30.288C103.611 29.012 103.292 27.5523 103.292 25.909ZM115.936 25.967C115.936 24.981 115.743 24.14 115.356 23.444C114.969 22.7287 114.447 22.1873 113.79 21.82C113.133 21.4333 112.427 21.24 111.673 21.24C110.919 21.24 110.223 21.4237 109.585 21.791C108.947 22.1583 108.425 22.6997 108.019 23.415C107.632 24.111 107.439 24.9423 107.439 25.909C107.439 26.8757 107.632 27.7263 108.019 28.461C108.425 29.1763 108.947 29.7273 109.585 30.114C110.242 30.5007 110.938 30.694 111.673 30.694C112.427 30.694 113.133 30.5103 113.79 30.143C114.447 29.7563 114.969 29.215 115.356 28.519C115.743 27.8037 115.936 26.953 115.936 25.967ZM128.05 12.54V34H123.99V12.54H128.05ZM136.789 21.269V29.041C136.789 29.5823 136.914 29.9787 137.166 30.23C137.436 30.462 137.881 30.578 138.5 30.578H140.385V34H137.833C134.411 34 132.7 32.3373 132.7 29.012V21.269H130.786V17.934H132.7V13.961H136.789V17.934H140.385V21.269H136.789ZM152.353 17.702C153.571 17.702 154.653 17.9727 155.601 18.514C156.548 19.036 157.283 19.819 157.805 20.863C158.346 21.8877 158.617 23.125 158.617 24.575V34H154.557V25.126C154.557 23.85 154.238 22.8737 153.6 22.197C152.962 21.501 152.092 21.153 150.99 21.153C149.868 21.153 148.979 21.501 148.322 22.197C147.684 22.8737 147.365 23.85 147.365 25.126V34H143.305V12.54H147.365V19.935C147.887 19.239 148.583 18.6977 149.453 18.311C150.323 17.905 151.289 17.702 152.353 17.702ZM161.492 23.85C161.492 21.8587 161.936 20.08 162.826 18.514C163.734 16.9287 164.962 15.701 166.509 14.831C168.075 13.9417 169.824 13.497 171.758 13.497C174.02 13.497 176.001 14.077 177.703 15.237C179.404 16.397 180.593 18.0017 181.27 20.051H176.601C176.137 19.0843 175.479 18.3593 174.629 17.876C173.797 17.3927 172.831 17.151 171.729 17.151C170.549 17.151 169.496 17.4313 168.568 17.992C167.659 18.5333 166.944 19.3067 166.422 20.312C165.919 21.3173 165.668 22.4967 165.668 23.85C165.668 25.184 165.919 26.3633 166.422 27.388C166.944 28.3933 167.659 29.1763 168.568 29.737C169.496 30.2783 170.549 30.549 171.729 30.549C172.831 30.549 173.797 30.3073 174.629 29.824C175.479 29.3213 176.137 28.5867 176.601 27.62H181.27C180.593 29.6887 179.404 31.303 177.703 32.463C176.021 33.6037 174.039 34.174 171.758 34.174C169.824 34.174 168.075 33.739 166.509 32.869C164.962 31.9797 163.734 30.752 162.826 29.186C161.936 27.62 161.492 25.8413 161.492 23.85ZM191.871 34.261C190.325 34.261 188.933 33.9227 187.695 33.246C186.458 32.55 185.482 31.5737 184.766 30.317C184.07 29.0603 183.722 27.6103 183.722 25.967C183.722 24.3237 184.08 22.8737 184.795 21.617C185.53 20.3603 186.526 19.3937 187.782 18.717C189.039 18.021 190.441 17.673 191.987 17.673C193.534 17.673 194.936 18.021 196.192 18.717C197.449 19.3937 198.435 20.3603 199.15 21.617C199.885 22.8737 200.252 24.3237 200.252 25.967C200.252 27.6103 199.875 29.0603 199.121 30.317C198.387 31.5737 197.381 32.55 196.105 33.246C194.849 33.9227 193.437 34.261 191.871 34.261ZM191.871 30.723C192.606 30.723 193.292 30.549 193.93 30.201C194.588 29.8337 195.11 29.2923 195.496 28.577C195.883 27.8617 196.076 26.9917 196.076 25.967C196.076 24.4397 195.67 23.27 194.858 22.458C194.066 21.6267 193.089 21.211 191.929 21.211C190.769 21.211 189.793 21.6267 189 22.458C188.227 23.27 187.84 24.4397 187.84 25.967C187.84 27.4943 188.217 28.6737 188.971 29.505C189.745 30.317 190.711 30.723 191.871 30.723ZM207.29 20.428C207.812 19.5773 208.489 18.9103 209.32 18.427C210.171 17.9437 211.138 17.702 212.22 17.702V21.965H211.147C209.871 21.965 208.905 22.2647 208.247 22.864C207.609 23.4633 207.29 24.5073 207.29 25.996V34H203.23V17.934H207.29V20.428ZM229.89 25.619C229.89 26.199 229.851 26.721 229.774 27.185H218.029C218.126 28.345 218.532 29.2537 219.247 29.911C219.962 30.5683 220.842 30.897 221.886 30.897C223.394 30.897 224.467 30.2493 225.105 28.954H229.484C229.02 30.5007 228.131 31.7767 226.816 32.782C225.501 33.768 223.887 34.261 221.973 34.261C220.426 34.261 219.034 33.9227 217.797 33.246C216.579 32.55 215.622 31.5737 214.926 30.317C214.249 29.0603 213.911 27.6103 213.911 25.967C213.911 24.3043 214.249 22.8447 214.926 21.588C215.603 20.3313 216.55 19.3647 217.768 18.688C218.986 18.0113 220.388 17.673 221.973 17.673C223.5 17.673 224.863 18.0017 226.062 18.659C227.28 19.3163 228.218 20.254 228.875 21.472C229.552 22.6707 229.89 24.053 229.89 25.619ZM225.685 24.459C225.666 23.415 225.289 22.5837 224.554 21.965C223.819 21.327 222.92 21.008 221.857 21.008C220.852 21.008 220.001 21.3173 219.305 21.936C218.628 22.5353 218.213 23.3763 218.058 24.459H225.685Z" fill="#052438"/>
</svg>
