<svg width="242" height="48" viewBox="0 0 242 48" fill="none" xmlns="http://www.w3.org/2000/svg">
<path fill-rule="evenodd" clip-rule="evenodd" d="M36.4303 44.5486C39.7592 42.5348 42.5593 39.7348 44.5731 36.4072L39.5046 33.4805C38.053 35.8575 36.0323 37.9311 33.5036 39.4787L36.4303 44.5486Z" fill="#0496FF"/>
<path fill-rule="evenodd" clip-rule="evenodd" d="M24.4882 48C28.5172 47.9221 32.3026 46.8518 35.6106 45.0232L32.6839 39.9532C30.08 41.3686 27.273 42.0797 24.4882 42.1466V48Z" fill="#0496FF"/>
<path fill-rule="evenodd" clip-rule="evenodd" d="M12.4181 45.0232C15.7261 46.8518 19.5115 47.9221 23.5405 48V42.1452C20.6792 42.0644 17.8665 41.3087 15.3518 39.9421L12.4181 45.0232Z" fill="#0496FF"/>
<path fill-rule="evenodd" clip-rule="evenodd" d="M3.45563 36.4072C5.4694 39.7348 8.26948 42.5348 11.597 44.55L14.5307 39.4689C12.1593 38.0146 10.0898 35.9939 8.54782 33.4666L3.45563 36.4072Z" fill="#0496FF"/>
<path fill-rule="evenodd" clip-rule="evenodd" d="M21.6547 0.0896992C9.49968 1.27542 0 11.5238 0 23.9906C0 28.1963 1.08135 32.1501 2.981 35.5875L8.07598 32.6455C3.40825 24.0351 6.42544 13.2231 14.9579 8.2965C18.8741 6.03639 23.2816 5.40178 27.401 6.18391L27.529 6.20757L27.5708 6.21592H27.5735L27.6139 6.22427L27.9089 6.2855L27.941 6.29246L27.9757 6.30081L28.2374 6.36204L28.396 6.40102L28.4127 6.40519L28.5797 6.44833L28.5964 6.45251L28.7356 6.49009L28.7454 6.49286L28.9123 6.53879C32.0798 7.4253 35.0093 9.1677 37.3237 11.6658H37.3112C38.6723 13.1312 39.7661 14.7929 40.5664 16.577L36.0002 21.1432C35.3447 18.3862 33.7443 15.8826 31.3854 14.1193C29.1949 12.4827 26.5785 11.656 23.9524 11.6672L23.7311 11.6699L23.6406 11.6727L23.4374 11.6811L23.3456 11.6853H23.34L23.1229 11.6992H23.109L22.9434 11.7131L22.8738 11.7187C21.3722 11.8564 19.8859 12.2712 18.4928 12.967L18.4552 12.9851L18.316 13.0561L18.1963 13.1187L18.1003 13.1702C14.2746 15.2619 11.6805 19.3242 11.6805 23.9906C11.6805 30.7973 17.1985 36.3154 24.0053 36.3154C26.9501 36.3154 29.6541 35.2814 31.7751 33.5571L31.7778 33.5543C32.5725 32.9071 33.285 32.164 33.896 31.3415L47.1365 17.5192C44.9154 9.55876 38.6945 3.26553 30.7758 0.941413C28.1873 0.18155 24.3671 -0.178891 21.645 0.0869216L21.6547 0.0896992ZM28.1135 29.0355L29.0585 28.0905C29.9686 26.973 30.5142 25.5465 30.5142 23.992C30.5142 20.6171 27.9423 17.8449 24.6538 17.5234H24.0136V17.4914C20.4244 17.4914 17.513 20.4014 17.513 23.992C17.513 27.5811 20.423 30.4925 24.0136 30.4925C25.5681 30.4925 26.9946 29.947 28.1121 29.0368L28.1135 29.0355Z" fill="#0496FF"/>
<path d="M64.1515 23.85C64.1515 21.8587 64.5962 20.08 65.4855 18.514C66.3942 16.9287 67.6219 15.701 69.1685 14.831C70.7345 13.9417 72.4842 13.497 74.4175 13.497C76.6795 13.497 78.6612 14.077 80.3625 15.237C82.0639 16.397 83.2529 18.0017 83.9295 20.051H79.2605C78.7965 19.0843 78.1392 18.3593 77.2885 17.876C76.4572 17.3927 75.4905 17.151 74.3885 17.151C73.2092 17.151 72.1555 17.4313 71.2275 17.992C70.3189 18.5333 69.6035 19.3067 69.0815 20.312C68.5789 21.3173 68.3275 22.4967 68.3275 23.85C68.3275 25.184 68.5789 26.3633 69.0815 27.388C69.6035 28.3933 70.3189 29.1763 71.2275 29.737C72.1555 30.2783 73.2092 30.549 74.3885 30.549C75.4905 30.549 76.4572 30.3073 77.2885 29.824C78.1392 29.3213 78.7965 28.5867 79.2605 27.62H83.9295C83.2529 29.6887 82.0639 31.303 80.3625 32.463C78.6805 33.6037 76.6989 34.174 74.4175 34.174C72.4842 34.174 70.7345 33.739 69.1685 32.869C67.6219 31.9797 66.3942 30.752 65.4855 29.186C64.5962 27.62 64.1515 25.8413 64.1515 23.85ZM86.3533 25.909C86.3533 24.285 86.6723 22.8447 87.3103 21.588C87.9676 20.3313 88.8473 19.3647 89.9493 18.688C91.0706 18.0113 92.3176 17.673 93.6903 17.673C94.889 17.673 95.933 17.9147 96.8223 18.398C97.731 18.8813 98.456 19.4903 98.9973 20.225V17.934H103.086V34H98.9973V31.651C98.4753 32.405 97.7503 33.0333 96.8223 33.536C95.9136 34.0193 94.86 34.261 93.6613 34.261C92.308 34.261 91.0706 33.913 89.9493 33.217C88.8473 32.521 87.9676 31.5447 87.3103 30.288C86.6723 29.012 86.3533 27.5523 86.3533 25.909ZM98.9973 25.967C98.9973 24.981 98.804 24.14 98.4173 23.444C98.0306 22.7287 97.5086 22.1873 96.8513 21.82C96.194 21.4333 95.4883 21.24 94.7343 21.24C93.9803 21.24 93.2843 21.4237 92.6463 21.791C92.0083 22.1583 91.4863 22.6997 91.0803 23.415C90.6936 24.111 90.5003 24.9423 90.5003 25.909C90.5003 26.8757 90.6936 27.7263 91.0803 28.461C91.4863 29.1763 92.0083 29.7273 92.6463 30.114C93.3036 30.5007 93.9996 30.694 94.7343 30.694C95.4883 30.694 96.194 30.5103 96.8513 30.143C97.5086 29.7563 98.0306 29.215 98.4173 28.519C98.804 27.8037 98.9973 26.953 98.9973 25.967ZM111.112 20.254C111.634 19.5193 112.349 18.9103 113.258 18.427C114.186 17.9243 115.239 17.673 116.419 17.673C117.791 17.673 119.029 18.0113 120.131 18.688C121.252 19.3647 122.132 20.3313 122.77 21.588C123.427 22.8253 123.756 24.2657 123.756 25.909C123.756 27.5523 123.427 29.012 122.77 30.288C122.132 31.5447 121.252 32.521 120.131 33.217C119.029 33.913 117.791 34.261 116.419 34.261C115.239 34.261 114.195 34.0193 113.287 33.536C112.397 33.0527 111.672 32.4437 111.112 31.709V41.656H107.052V17.934H111.112V20.254ZM119.609 25.909C119.609 24.9423 119.406 24.111 119 23.415C118.613 22.6997 118.091 22.1583 117.434 21.791C116.796 21.4237 116.1 21.24 115.346 21.24C114.611 21.24 113.915 21.4333 113.258 21.82C112.62 22.1873 112.098 22.7287 111.692 23.444C111.305 24.1593 111.112 25.0003 111.112 25.967C111.112 26.9337 111.305 27.7747 111.692 28.49C112.098 29.2053 112.62 29.7563 113.258 30.143C113.915 30.5103 114.611 30.694 115.346 30.694C116.1 30.694 116.796 30.5007 117.434 30.114C118.091 29.7273 118.613 29.1763 119 28.461C119.406 27.7457 119.609 26.895 119.609 25.909ZM128.765 16.02C128.05 16.02 127.45 15.7977 126.967 15.353C126.503 14.889 126.271 14.3187 126.271 13.642C126.271 12.9653 126.503 12.4047 126.967 11.96C127.45 11.496 128.05 11.264 128.765 11.264C129.48 11.264 130.07 11.496 130.534 11.96C131.017 12.4047 131.259 12.9653 131.259 13.642C131.259 14.3187 131.017 14.889 130.534 15.353C130.07 15.7977 129.48 16.02 128.765 16.02ZM130.766 17.934V34H126.706V17.934H130.766ZM139.504 21.269V29.041C139.504 29.5823 139.63 29.9787 139.881 30.23C140.152 30.462 140.597 30.578 141.215 30.578H143.1V34H140.548C137.126 34 135.415 32.3373 135.415 29.012V21.269H133.501V17.934H135.415V13.961H139.504V17.934H143.1V21.269H139.504ZM144.976 25.909C144.976 24.285 145.295 22.8447 145.933 21.588C146.591 20.3313 147.47 19.3647 148.572 18.688C149.694 18.0113 150.941 17.673 152.313 17.673C153.512 17.673 154.556 17.9147 155.445 18.398C156.354 18.8813 157.079 19.4903 157.62 20.225V17.934H161.709V34H157.62V31.651C157.098 32.405 156.373 33.0333 155.445 33.536C154.537 34.0193 153.483 34.261 152.284 34.261C150.931 34.261 149.694 33.913 148.572 33.217C147.47 32.521 146.591 31.5447 145.933 30.288C145.295 29.012 144.976 27.5523 144.976 25.909ZM157.62 25.967C157.62 24.981 157.427 24.14 157.04 23.444C156.654 22.7287 156.132 22.1873 155.474 21.82C154.817 21.4333 154.111 21.24 153.357 21.24C152.603 21.24 151.907 21.4237 151.269 21.791C150.631 22.1583 150.109 22.6997 149.703 23.415C149.317 24.111 149.123 24.9423 149.123 25.909C149.123 26.8757 149.317 27.7263 149.703 28.461C150.109 29.1763 150.631 29.7273 151.269 30.114C151.927 30.5007 152.623 30.694 153.357 30.694C154.111 30.694 154.817 30.5103 155.474 30.143C156.132 29.7563 156.654 29.215 157.04 28.519C157.427 27.8037 157.62 26.953 157.62 25.967ZM169.735 12.54V34H165.675V12.54H169.735ZM177.806 17.035V22.11H184.621V25.329H177.806V30.694H185.491V34H173.746V13.729H185.491V17.035H177.806ZM188.137 25.909C188.137 24.285 188.456 22.8447 189.094 21.588C189.751 20.3313 190.631 19.3647 191.733 18.688C192.854 18.0113 194.101 17.673 195.474 17.673C196.672 17.673 197.716 17.9147 198.606 18.398C199.514 18.8813 200.239 19.4903 200.781 20.225V17.934H204.87V34H200.781V31.651C200.259 32.405 199.534 33.0333 198.606 33.536C197.697 34.0193 196.643 34.261 195.445 34.261C194.091 34.261 192.854 33.913 191.733 33.217C190.631 32.521 189.751 31.5447 189.094 30.288C188.456 29.012 188.137 27.5523 188.137 25.909ZM200.781 25.967C200.781 24.981 200.587 24.14 200.201 23.444C199.814 22.7287 199.292 22.1873 198.635 21.82C197.977 21.4333 197.272 21.24 196.518 21.24C195.764 21.24 195.068 21.4237 194.43 21.791C193.792 22.1583 193.27 22.6997 192.864 23.415C192.477 24.111 192.284 24.9423 192.284 25.909C192.284 26.8757 192.477 27.7263 192.864 28.461C193.27 29.1763 193.792 29.7273 194.43 30.114C195.087 30.5007 195.783 30.694 196.518 30.694C197.272 30.694 197.977 30.5103 198.635 30.143C199.292 29.7563 199.814 29.215 200.201 28.519C200.587 27.8037 200.781 26.953 200.781 25.967ZM214.983 34.261C213.668 34.261 212.489 34.029 211.445 33.565C210.401 33.0817 209.569 32.434 208.951 31.622C208.351 30.81 208.023 29.911 207.965 28.925H212.054C212.131 29.5437 212.431 30.056 212.953 30.462C213.494 30.868 214.161 31.071 214.954 31.071C215.727 31.071 216.326 30.9163 216.752 30.607C217.196 30.2977 217.419 29.9013 217.419 29.418C217.419 28.896 217.148 28.5093 216.607 28.258C216.085 27.9873 215.244 27.6973 214.084 27.388C212.885 27.098 211.899 26.7983 211.126 26.489C210.372 26.1797 209.714 25.706 209.154 25.068C208.612 24.43 208.342 23.5697 208.342 22.487C208.342 21.5977 208.593 20.7857 209.096 20.051C209.618 19.3163 210.352 18.7363 211.3 18.311C212.266 17.8857 213.397 17.673 214.693 17.673C216.607 17.673 218.134 18.1563 219.275 19.123C220.415 20.0703 221.044 21.356 221.16 22.98H217.274C217.216 22.342 216.945 21.8393 216.462 21.472C215.998 21.0853 215.369 20.892 214.577 20.892C213.842 20.892 213.272 21.0273 212.866 21.298C212.479 21.5687 212.286 21.9457 212.286 22.429C212.286 22.9703 212.556 23.386 213.098 23.676C213.639 23.9467 214.48 24.227 215.621 24.517C216.781 24.807 217.738 25.1067 218.492 25.416C219.246 25.7253 219.893 26.2087 220.435 26.866C220.995 27.504 221.285 28.3547 221.305 29.418C221.305 30.346 221.044 31.1773 220.522 31.912C220.019 32.6467 219.284 33.2267 218.318 33.652C217.37 34.058 216.259 34.261 214.983 34.261ZM239.573 25.619C239.573 26.199 239.534 26.721 239.457 27.185H227.712C227.808 28.345 228.214 29.2537 228.93 29.911C229.645 30.5683 230.525 30.897 231.569 30.897C233.077 30.897 234.15 30.2493 234.788 28.954H239.167C238.703 30.5007 237.813 31.7767 236.499 32.782C235.184 33.768 233.57 34.261 231.656 34.261C230.109 34.261 228.717 33.9227 227.48 33.246C226.262 32.55 225.305 31.5737 224.609 30.317C223.932 29.0603 223.594 27.6103 223.594 25.967C223.594 24.3043 223.932 22.8447 224.609 21.588C225.285 20.3313 226.233 19.3647 227.451 18.688C228.669 18.0113 230.07 17.673 231.656 17.673C233.183 17.673 234.546 18.0017 235.745 18.659C236.963 19.3163 237.9 20.254 238.558 21.472C239.234 22.6707 239.573 24.053 239.573 25.619ZM235.368 24.459C235.348 23.415 234.971 22.5837 234.237 21.965C233.502 21.327 232.603 21.008 231.54 21.008C230.534 21.008 229.684 21.3173 228.988 21.936C228.311 22.5353 227.895 23.3763 227.741 24.459H235.368Z" fill="#E6ECF2"/>
</svg>
