<svg width="196" height="48" viewBox="0 0 196 48" fill="none" xmlns="http://www.w3.org/2000/svg">
<path d="M34.1206 31.2842C37.1205 28.3624 38.6405 24.2711 38.6405 19.1261C38.6405 13.9812 37.1181 9.89691 34.1159 6.99176C31.1255 4.09609 26.7761 2.63049 21.186 2.63049H6.79524V16.247H4.8277V2.36768H2.36768V45.6323H9.25526V23.2009C16.1713 23.5987 22.2088 27.3183 25.7959 32.7876C24.3942 33.0718 22.8576 33.2185 21.186 33.2185H14.8974V35.6786H21.186C23.3359 35.6786 25.301 35.4584 27.0768 35.0227C28.4761 37.8545 29.2669 41.0366 29.2669 44.4035V45.6323H36.1805V44.4035C36.1805 39.9593 35.1435 35.7543 33.3014 32.0134C33.5832 31.7814 33.8578 31.5422 34.1183 31.2889L34.1206 31.2842ZM21.1884 5.09051C26.1179 5.09051 29.892 6.32644 32.4064 8.76041C34.9114 11.1849 36.1805 14.6725 36.1805 19.1261C36.1805 23.5797 34.9091 27.0792 32.4041 29.5226C32.3046 29.6197 32.1981 29.712 32.0963 29.8044C27.3514 22.01 18.9296 16.6922 9.25763 16.2731V5.08815H21.1884V5.09051ZM4.83007 43.1723V18.707H6.79761V43.1723H4.83007ZM9.25763 20.7338V18.7378C18.1056 19.1569 25.7935 24.0722 30.0885 31.2439C29.5202 31.5635 28.9141 31.8453 28.2701 32.0892C24.3042 25.597 17.3054 21.1505 9.25763 20.7361V20.7338ZM33.6921 43.1723H31.6961C31.5328 40.002 30.7443 36.995 29.4492 34.2698C30.079 34.0188 30.678 33.73 31.2486 33.4103C32.6669 36.3936 33.5287 39.6918 33.6921 43.1699V43.1723Z" fill="#0496FF"/>
<path d="M69.4492 34L64.9832 26.112H63.0692V34H59.0092V13.758H66.6072C68.1732 13.758 69.5072 14.0383 70.6092 14.599C71.7112 15.1403 72.5329 15.8847 73.0742 16.832C73.6349 17.76 73.9152 18.804 73.9152 19.964C73.9152 21.298 73.5286 22.5063 72.7552 23.589C71.9819 24.6523 70.8316 25.387 69.3042 25.793L74.1472 34H69.4492ZM63.0692 23.067H66.4622C67.5642 23.067 68.3859 22.806 68.9272 22.284C69.4686 21.7427 69.7392 20.9983 69.7392 20.051C69.7392 19.123 69.4686 18.4077 68.9272 17.905C68.3859 17.383 67.5642 17.122 66.4622 17.122H63.0692V23.067ZM99.8594 17.934L95.1614 34H90.7824L87.8534 22.777L84.9244 34H80.5164L75.7894 17.934H79.9074L82.7494 30.172L85.8234 17.934H90.1154L93.1314 30.143L95.9734 17.934H99.8594ZM104.115 16.02C103.4 16.02 102.8 15.7977 102.317 15.353C101.853 14.889 101.621 14.3187 101.621 13.642C101.621 12.9653 101.853 12.4047 102.317 11.96C102.8 11.496 103.4 11.264 104.115 11.264C104.83 11.264 105.42 11.496 105.884 11.96C106.367 12.4047 106.609 12.9653 106.609 13.642C106.609 14.3187 106.367 14.889 105.884 15.353C105.42 15.7977 104.83 16.02 104.115 16.02ZM106.116 17.934V34H102.056V17.934H106.116ZM117.493 21.269H114.68V34H110.562V21.269H108.735V17.934H110.562V17.122C110.562 15.15 111.123 13.7 112.244 12.772C113.366 11.844 115.057 11.409 117.319 11.467V14.889C116.333 14.8697 115.647 15.034 115.26 15.382C114.874 15.73 114.68 16.3583 114.68 17.267V17.934H117.493V21.269ZM124.851 21.269V29.041C124.851 29.5823 124.977 29.9787 125.228 30.23C125.499 30.462 125.944 30.578 126.562 30.578H128.447V34H125.895C122.473 34 120.762 32.3373 120.762 29.012V21.269H118.848V17.934H120.762V13.961H124.851V17.934H128.447V21.269H124.851ZM148.681 34H144.621L135.428 20.109V34H131.368V13.729H135.428L144.621 27.649V13.729H148.681V34ZM167.628 25.619C167.628 26.199 167.589 26.721 167.512 27.185H155.767C155.864 28.345 156.27 29.2537 156.985 29.911C157.7 30.5683 158.58 30.897 159.624 30.897C161.132 30.897 162.205 30.2493 162.843 28.954H167.222C166.758 30.5007 165.869 31.7767 164.554 32.782C163.239 33.768 161.625 34.261 159.711 34.261C158.164 34.261 156.772 33.9227 155.535 33.246C154.317 32.55 153.36 31.5737 152.664 30.317C151.987 29.0603 151.649 27.6103 151.649 25.967C151.649 24.3043 151.987 22.8447 152.664 21.588C153.341 20.3313 154.288 19.3647 155.506 18.688C156.724 18.0113 158.126 17.673 159.711 17.673C161.238 17.673 162.601 18.0017 163.8 18.659C165.018 19.3163 165.956 20.254 166.613 21.472C167.29 22.6707 167.628 24.053 167.628 25.619ZM163.423 24.459C163.404 23.415 163.027 22.5837 162.292 21.965C161.557 21.327 160.658 21.008 159.595 21.008C158.59 21.008 157.739 21.3173 157.043 21.936C156.366 22.5353 155.951 23.3763 155.796 24.459H163.423ZM176.739 34.261C175.425 34.261 174.245 34.029 173.201 33.565C172.157 33.0817 171.326 32.434 170.707 31.622C170.108 30.81 169.779 29.911 169.721 28.925H173.81C173.888 29.5437 174.187 30.056 174.709 30.462C175.251 30.868 175.918 31.071 176.71 31.071C177.484 31.071 178.083 30.9163 178.508 30.607C178.953 30.2977 179.175 29.9013 179.175 29.418C179.175 28.896 178.905 28.5093 178.363 28.258C177.841 27.9873 177 27.6973 175.84 27.388C174.642 27.098 173.656 26.7983 172.882 26.489C172.128 26.1797 171.471 25.706 170.91 25.068C170.369 24.43 170.098 23.5697 170.098 22.487C170.098 21.5977 170.35 20.7857 170.852 20.051C171.374 19.3163 172.109 18.7363 173.056 18.311C174.023 17.8857 175.154 17.673 176.449 17.673C178.363 17.673 179.891 18.1563 181.031 19.123C182.172 20.0703 182.8 21.356 182.916 22.98H179.03C178.972 22.342 178.702 21.8393 178.218 21.472C177.754 21.0853 177.126 20.892 176.333 20.892C175.599 20.892 175.028 21.0273 174.622 21.298C174.236 21.5687 174.042 21.9457 174.042 22.429C174.042 22.9703 174.313 23.386 174.854 23.676C175.396 23.9467 176.237 24.227 177.377 24.517C178.537 24.807 179.494 25.1067 180.248 25.416C181.002 25.7253 181.65 26.2087 182.191 26.866C182.752 27.504 183.042 28.3547 183.061 29.418C183.061 30.346 182.8 31.1773 182.278 31.912C181.776 32.6467 181.041 33.2267 180.074 33.652C179.127 34.058 178.015 34.261 176.739 34.261ZM191.121 21.269V29.041C191.121 29.5823 191.247 29.9787 191.498 30.23C191.769 30.462 192.213 30.578 192.832 30.578H194.717V34H192.165C188.743 34 187.032 32.3373 187.032 29.012V21.269H185.118V17.934H187.032V13.961H191.121V17.934H194.717V21.269H191.121Z" fill="#052438"/>
</svg>
