<svg width="202" height="48" viewBox="0 0 202 48" fill="none" xmlns="http://www.w3.org/2000/svg">
<path opacity="0.7" d="M11.6673 47.4212L51.9392 6.20337L40.4807 48H11.6673" fill="#0496FF"/>
<path opacity="0.68" d="M40.2719 47.4212L0 6.20337L11.4576 48H40.2719" fill="#0496FF"/>
<path opacity="0.7" d="M32.0135 7.30246C32.5077 4.25773 30.44 1.3889 27.3953 0.894761C24.3505 0.40062 21.4817 2.46828 20.9876 5.51302C20.4934 8.55776 22.5611 11.4266 25.6058 11.9207C28.6506 12.4149 31.5194 10.3472 32.0135 7.30246Z" fill="#0496FF"/>
<path d="M88.1232 13.758L80.6992 34H75.7692L68.3452 13.758H72.6952L78.2632 29.853L83.8022 13.758H88.1232ZM89.5134 25.909C89.5134 24.285 89.8324 22.8447 90.4704 21.588C91.1277 20.3313 92.0074 19.3647 93.1094 18.688C94.2307 18.0113 95.4777 17.673 96.8504 17.673C98.0491 17.673 99.0931 17.9147 99.9824 18.398C100.891 18.8813 101.616 19.4903 102.157 20.225V17.934H106.246V34H102.157V31.651C101.635 32.405 100.91 33.0333 99.9824 33.536C99.0737 34.0193 98.0201 34.261 96.8214 34.261C95.4681 34.261 94.2307 33.913 93.1094 33.217C92.0074 32.521 91.1277 31.5447 90.4704 30.288C89.8324 29.012 89.5134 27.5523 89.5134 25.909ZM102.157 25.967C102.157 24.981 101.964 24.14 101.577 23.444C101.191 22.7287 100.669 22.1873 100.011 21.82C99.3541 21.4333 98.6484 21.24 97.8944 21.24C97.1404 21.24 96.4444 21.4237 95.8064 21.791C95.1684 22.1583 94.6464 22.6997 94.2404 23.415C93.8537 24.111 93.6604 24.9423 93.6604 25.909C93.6604 26.8757 93.8537 27.7263 94.2404 28.461C94.6464 29.1763 95.1684 29.7273 95.8064 30.114C96.4637 30.5007 97.1597 30.694 97.8944 30.694C98.6484 30.694 99.3541 30.5103 100.011 30.143C100.669 29.7563 101.191 29.215 101.577 28.519C101.964 27.8037 102.157 26.953 102.157 25.967ZM125.379 17.934V34H121.29V31.97C120.768 32.666 120.081 33.217 119.231 33.623C118.399 34.0097 117.491 34.203 116.505 34.203C115.248 34.203 114.136 33.942 113.17 33.42C112.203 32.8787 111.439 32.0957 110.879 31.071C110.337 30.027 110.067 28.7897 110.067 27.359V17.934H114.127V26.779C114.127 28.055 114.446 29.041 115.084 29.737C115.722 30.4137 116.592 30.752 117.694 30.752C118.815 30.752 119.695 30.4137 120.333 29.737C120.971 29.041 121.29 28.055 121.29 26.779V17.934H125.379ZM133.445 12.54V34H129.385V12.54H133.445ZM142.183 21.269V29.041C142.183 29.5823 142.309 29.9787 142.56 30.23C142.831 30.462 143.275 30.578 143.894 30.578H145.779V34H143.227C139.805 34 138.094 32.3373 138.094 29.012V21.269H136.18V17.934H138.094V13.961H142.183V17.934H145.779V21.269H142.183ZM163.46 20.022C163.46 21.1047 163.199 22.1197 162.677 23.067C162.174 24.0143 161.372 24.778 160.27 25.358C159.187 25.938 157.815 26.228 156.152 26.228H152.759V34H148.699V13.758H156.152C157.718 13.758 159.052 14.0287 160.154 14.57C161.256 15.1113 162.078 15.8557 162.619 16.803C163.18 17.7503 163.46 18.8233 163.46 20.022ZM155.978 22.951C157.099 22.951 157.931 22.6997 158.472 22.197C159.013 21.675 159.284 20.95 159.284 20.022C159.284 18.05 158.182 17.064 155.978 17.064H152.759V22.951H155.978ZM165.299 25.909C165.299 24.285 165.618 22.8447 166.256 21.588C166.913 20.3313 167.793 19.3647 168.895 18.688C170.016 18.0113 171.263 17.673 172.636 17.673C173.834 17.673 174.878 17.9147 175.768 18.398C176.676 18.8813 177.401 19.4903 177.943 20.225V17.934H182.032V34H177.943V31.651C177.421 32.405 176.696 33.0333 175.768 33.536C174.859 34.0193 173.805 34.261 172.607 34.261C171.253 34.261 170.016 33.913 168.895 33.217C167.793 32.521 166.913 31.5447 166.256 30.288C165.618 29.012 165.299 27.5523 165.299 25.909ZM177.943 25.967C177.943 24.981 177.749 24.14 177.363 23.444C176.976 22.7287 176.454 22.1873 175.797 21.82C175.139 21.4333 174.434 21.24 173.68 21.24C172.926 21.24 172.23 21.4237 171.592 21.791C170.954 22.1583 170.432 22.6997 170.026 23.415C169.639 24.111 169.446 24.9423 169.446 25.909C169.446 26.8757 169.639 27.7263 170.026 28.461C170.432 29.1763 170.954 29.7273 171.592 30.114C172.249 30.5007 172.945 30.694 173.68 30.694C174.434 30.694 175.139 30.5103 175.797 30.143C176.454 29.7563 176.976 29.215 177.363 28.519C177.749 27.8037 177.943 26.953 177.943 25.967ZM201.367 17.934L191.42 41.598H187.099L190.579 33.594L184.141 17.934H188.694L192.841 29.157L197.046 17.934H201.367Z" fill="#E6ECF2"/>
</svg>
