<svg width="219" height="48" viewBox="0 0 219 48" fill="none" xmlns="http://www.w3.org/2000/svg">
<path opacity="0.74" d="M47.9265 9.67157C47.9265 15.0128 38.2549 36.8614 38.2549 36.8614C38.2549 36.8614 28.5833 15.0128 28.5833 9.67157C28.5833 4.3304 32.9128 0 38.2549 0C43.5961 0.000954463 47.9265 4.3304 47.9265 9.67157Z" fill="#0496FF"/>
<path d="M66.3562 48C61.015 48 39.1664 38.3284 39.1664 38.3284C39.1664 38.3284 61.015 28.6569 66.3562 28.6569C71.6974 28.6569 76.0278 32.9863 76.0278 38.3284C76.0278 43.6696 71.6974 48 66.3562 48Z" fill="#0496FF"/>
<path opacity="0.7" d="M9.67157 48C15.0128 48 36.8614 38.3284 36.8614 38.3284C36.8614 38.3284 15.0128 28.6569 9.67157 28.6569C4.3304 28.6569 0 32.9863 0 38.3284C0 43.6696 4.3304 48 9.67157 48Z" fill="#0496FF"/>
<path d="M106.528 13.758V17.035H98.0888V22.226H104.556V25.445H98.0888V34H94.0288V13.758H106.528ZM111.466 16.02C110.75 16.02 110.151 15.7977 109.668 15.353C109.204 14.889 108.972 14.3187 108.972 13.642C108.972 12.9653 109.204 12.4047 109.668 11.96C110.151 11.496 110.75 11.264 111.466 11.264C112.181 11.264 112.771 11.496 113.235 11.96C113.718 12.4047 113.96 12.9653 113.96 13.642C113.96 14.3187 113.718 14.889 113.235 15.353C112.771 15.7977 112.181 16.02 111.466 16.02ZM113.467 17.934V34H109.407V17.934H113.467ZM126.381 17.702C128.295 17.702 129.842 18.311 131.021 19.529C132.2 20.7277 132.79 22.4097 132.79 24.575V34H128.73V25.126C128.73 23.85 128.411 22.8737 127.773 22.197C127.135 21.501 126.265 21.153 125.163 21.153C124.042 21.153 123.152 21.501 122.495 22.197C121.857 22.8737 121.538 23.85 121.538 25.126V34H117.478V17.934H121.538V19.935C122.079 19.239 122.766 18.6977 123.597 18.311C124.448 17.905 125.376 17.702 126.381 17.702ZM150.426 13.758V17.035H145.032V34H140.972V17.035H135.578V13.758H150.426ZM157.448 20.428C157.97 19.5773 158.647 18.9103 159.478 18.427C160.329 17.9437 161.295 17.702 162.378 17.702V21.965H161.305C160.029 21.965 159.062 22.2647 158.405 22.864C157.767 23.4633 157.448 24.5073 157.448 25.996V34H153.388V17.934H157.448V20.428ZM164.069 25.909C164.069 24.285 164.388 22.8447 165.026 21.588C165.683 20.3313 166.563 19.3647 167.665 18.688C168.786 18.0113 170.033 17.673 171.406 17.673C172.604 17.673 173.648 17.9147 174.538 18.398C175.446 18.8813 176.171 19.4903 176.713 20.225V17.934H180.802V34H176.713V31.651C176.191 32.405 175.466 33.0333 174.538 33.536C173.629 34.0193 172.575 34.261 171.377 34.261C170.023 34.261 168.786 33.913 167.665 33.217C166.563 32.521 165.683 31.5447 165.026 30.288C164.388 29.012 164.069 27.5523 164.069 25.909ZM176.713 25.967C176.713 24.981 176.519 24.14 176.133 23.444C175.746 22.7287 175.224 22.1873 174.567 21.82C173.909 21.4333 173.204 21.24 172.45 21.24C171.696 21.24 171 21.4237 170.362 21.791C169.724 22.1583 169.202 22.6997 168.796 23.415C168.409 24.111 168.216 24.9423 168.216 25.909C168.216 26.8757 168.409 27.7263 168.796 28.461C169.202 29.1763 169.724 29.7273 170.362 30.114C171.019 30.5007 171.715 30.694 172.45 30.694C173.204 30.694 173.909 30.5103 174.567 30.143C175.224 29.7563 175.746 29.215 176.133 28.519C176.519 27.8037 176.713 26.953 176.713 25.967ZM183.723 25.967C183.723 24.3043 184.061 22.8543 184.738 21.617C185.415 20.3603 186.352 19.3937 187.551 18.717C188.75 18.021 190.122 17.673 191.669 17.673C193.66 17.673 195.304 18.1757 196.599 19.181C197.914 20.167 198.793 21.559 199.238 23.357H194.859C194.627 22.661 194.231 22.1197 193.67 21.733C193.129 21.327 192.452 21.124 191.64 21.124C190.48 21.124 189.562 21.5493 188.885 22.4C188.208 23.2313 187.87 24.4203 187.87 25.967C187.87 27.4943 188.208 28.6833 188.885 29.534C189.562 30.3653 190.48 30.781 191.64 30.781C193.283 30.781 194.356 30.0463 194.859 28.577H199.238C198.793 30.317 197.914 31.6993 196.599 32.724C195.284 33.7487 193.641 34.261 191.669 34.261C190.122 34.261 188.75 33.9227 187.551 33.246C186.352 32.55 185.415 31.5833 184.738 30.346C184.061 29.0893 183.723 27.6297 183.723 25.967ZM211.724 34L206.272 27.156V34H202.212V12.54H206.272V24.749L211.666 17.934H216.944L209.868 25.996L217.002 34H211.724Z" fill="#E6ECF2"/>
</svg>
