<svg width="228" height="48" viewBox="0 0 228 48" fill="none" xmlns="http://www.w3.org/2000/svg">
<g opacity="0.68">
<path fill-rule="evenodd" clip-rule="evenodd" d="M8.27443 37.737C-1.8618 28.7623 -0.515738 14.1895 9.64586 6.97172C16.7855 1.90498 27.6541 1.27892 34.5743 9.91892C39.4744 16.043 39.8132 24.849 36.7035 30.1626C34.7588 33.4821 30.2845 35.937 27.5478 32.6613C25.0587 29.6867 27.8392 27.044 28.8102 23.5715C32.2888 11.1059 15.0418 2.28143 5.9581 14.265C1.32267 20.3863 1.5798 29.8149 8.27443 37.737Z" fill="#0496FF"/>
</g>
<path opacity="0.7" fill-rule="evenodd" clip-rule="evenodd" d="M40.0628 10.5608C49.9919 19.7699 48.314 34.305 37.9837 41.2883C30.7281 46.1884 19.8534 46.5615 13.1334 37.7686C8.37042 31.5313 8.23602 22.7192 11.4671 17.481C13.4865 14.2088 18.0177 11.854 20.6831 15.1955C23.1003 18.2236 20.26 20.8033 19.2081 24.2511C15.4477 36.6323 32.4849 45.8572 41.8415 34.0801C46.6134 28.0705 46.5764 18.633 40.0628 10.5608Z" fill="#0496FF"/>
<path d="M80.762 20.022C80.762 21.1047 80.501 22.1197 79.979 23.067C79.4763 24.0143 78.674 24.778 77.572 25.358C76.4893 25.938 75.1167 26.228 73.454 26.228H70.061V34H66.001V13.758H73.454C75.02 13.758 76.354 14.0287 77.456 14.57C78.558 15.1113 79.3797 15.8557 79.921 16.803C80.4817 17.7503 80.762 18.8233 80.762 20.022ZM73.28 22.951C74.4013 22.951 75.2327 22.6997 75.774 22.197C76.3153 21.675 76.586 20.95 76.586 20.022C76.586 18.05 75.484 17.064 73.28 17.064H70.061V22.951H73.28ZM82.6006 25.909C82.6006 24.285 82.9196 22.8447 83.5576 21.588C84.2149 20.3313 85.0946 19.3647 86.1966 18.688C87.3179 18.0113 88.5649 17.673 89.9376 17.673C91.1362 17.673 92.1802 17.9147 93.0696 18.398C93.9782 18.8813 94.7032 19.4903 95.2446 20.225V17.934H99.3336V34H95.2446V31.651C94.7226 32.405 93.9976 33.0333 93.0696 33.536C92.1609 34.0193 91.1072 34.261 89.9086 34.261C88.5552 34.261 87.3179 33.913 86.1966 33.217C85.0946 32.521 84.2149 31.5447 83.5576 30.288C82.9196 29.012 82.6006 27.5523 82.6006 25.909ZM95.2446 25.967C95.2446 24.981 95.0512 24.14 94.6646 23.444C94.2779 22.7287 93.7559 22.1873 93.0986 21.82C92.4412 21.4333 91.7356 21.24 90.9816 21.24C90.2276 21.24 89.5316 21.4237 88.8936 21.791C88.2556 22.1583 87.7336 22.6997 87.3276 23.415C86.9409 24.111 86.7476 24.9423 86.7476 25.909C86.7476 26.8757 86.9409 27.7263 87.3276 28.461C87.7336 29.1763 88.2556 29.7273 88.8936 30.114C89.5509 30.5007 90.2469 30.694 90.9816 30.694C91.7356 30.694 92.4412 30.5103 93.0986 30.143C93.7559 29.7563 94.2779 29.215 94.6646 28.519C95.0512 27.8037 95.2446 26.953 95.2446 25.967ZM118.669 17.934L108.722 41.598H104.401L107.881 33.594L101.443 17.934H105.996L110.143 29.157L114.348 17.934H118.669ZM127.846 34.203C126.435 34.203 125.159 33.9613 124.018 33.478C122.897 32.9947 122.008 32.2987 121.35 31.39C120.693 30.4813 120.355 29.4083 120.335 28.171H124.685C124.743 29.0023 125.033 29.6597 125.555 30.143C126.097 30.6263 126.831 30.868 127.759 30.868C128.707 30.868 129.451 30.6457 129.992 30.201C130.534 29.737 130.804 29.1377 130.804 28.403C130.804 27.8037 130.621 27.3107 130.253 26.924C129.886 26.5373 129.422 26.2377 128.861 26.025C128.32 25.793 127.566 25.5417 126.599 25.271C125.285 24.8843 124.212 24.5073 123.38 24.14C122.568 23.7533 121.863 23.183 121.263 22.429C120.683 21.6557 120.393 20.631 120.393 19.355C120.393 18.1563 120.693 17.1123 121.292 16.223C121.892 15.3337 122.733 14.657 123.815 14.193C124.898 13.7097 126.135 13.468 127.527 13.468C129.615 13.468 131.307 13.9803 132.602 15.005C133.917 16.0103 134.642 17.4217 134.777 19.239H130.311C130.273 18.543 129.973 17.9727 129.412 17.528C128.871 17.064 128.146 16.832 127.237 16.832C126.445 16.832 125.807 17.035 125.323 17.441C124.859 17.847 124.627 18.4367 124.627 19.21C124.627 19.7513 124.801 20.2057 125.149 20.573C125.517 20.921 125.961 21.211 126.483 21.443C127.025 21.6557 127.779 21.907 128.745 22.197C130.06 22.5837 131.133 22.9703 131.964 23.357C132.796 23.7437 133.511 24.3237 134.11 25.097C134.71 25.8703 135.009 26.8853 135.009 28.142C135.009 29.2247 134.729 30.23 134.168 31.158C133.608 32.086 132.786 32.8303 131.703 33.391C130.621 33.9323 129.335 34.203 127.846 34.203ZM143.256 21.269V29.041C143.256 29.5823 143.382 29.9787 143.633 30.23C143.904 30.462 144.349 30.578 144.967 30.578H146.852V34H144.3C140.878 34 139.167 32.3373 139.167 29.012V21.269H137.253V17.934H139.167V13.961H143.256V17.934H146.852V21.269H143.256ZM153.832 20.428C154.354 19.5773 155.031 18.9103 155.862 18.427C156.713 17.9437 157.68 17.702 158.762 17.702V21.965H157.689C156.413 21.965 155.447 22.2647 154.789 22.864C154.151 23.4633 153.832 24.5073 153.832 25.996V34H149.772V17.934H153.832V20.428ZM176.432 25.619C176.432 26.199 176.393 26.721 176.316 27.185H164.571C164.668 28.345 165.074 29.2537 165.789 29.911C166.504 30.5683 167.384 30.897 168.428 30.897C169.936 30.897 171.009 30.2493 171.647 28.954H176.026C175.562 30.5007 174.673 31.7767 173.358 32.782C172.043 33.768 170.429 34.261 168.515 34.261C166.968 34.261 165.576 33.9227 164.339 33.246C163.121 32.55 162.164 31.5737 161.468 30.317C160.791 29.0603 160.453 27.6103 160.453 25.967C160.453 24.3043 160.791 22.8447 161.468 21.588C162.145 20.3313 163.092 19.3647 164.31 18.688C165.528 18.0113 166.93 17.673 168.515 17.673C170.042 17.673 171.405 18.0017 172.604 18.659C173.822 19.3163 174.76 20.254 175.417 21.472C176.094 22.6707 176.432 24.053 176.432 25.619ZM172.227 24.459C172.208 23.415 171.831 22.5837 171.096 21.965C170.361 21.327 169.462 21.008 168.399 21.008C167.394 21.008 166.543 21.3173 165.847 21.936C165.17 22.5353 164.755 23.3763 164.6 24.459H172.227ZM178.352 25.909C178.352 24.285 178.671 22.8447 179.309 21.588C179.966 20.3313 180.846 19.3647 181.948 18.688C183.069 18.0113 184.316 17.673 185.689 17.673C186.887 17.673 187.931 17.9147 188.821 18.398C189.729 18.8813 190.454 19.4903 190.996 20.225V17.934H195.085V34H190.996V31.651C190.474 32.405 189.749 33.0333 188.821 33.536C187.912 34.0193 186.858 34.261 185.66 34.261C184.306 34.261 183.069 33.913 181.948 33.217C180.846 32.521 179.966 31.5447 179.309 30.288C178.671 29.012 178.352 27.5523 178.352 25.909ZM190.996 25.967C190.996 24.981 190.802 24.14 190.416 23.444C190.029 22.7287 189.507 22.1873 188.85 21.82C188.192 21.4333 187.487 21.24 186.733 21.24C185.979 21.24 185.283 21.4237 184.645 21.791C184.007 22.1583 183.485 22.6997 183.079 23.415C182.692 24.111 182.499 24.9423 182.499 25.909C182.499 26.8757 182.692 27.7263 183.079 28.461C183.485 29.1763 184.007 29.7273 184.645 30.114C185.302 30.5007 185.998 30.694 186.733 30.694C187.487 30.694 188.192 30.5103 188.85 30.143C189.507 29.7563 190.029 29.215 190.416 28.519C190.802 27.8037 190.996 26.953 190.996 25.967ZM219.002 17.702C220.974 17.702 222.559 18.311 223.758 19.529C224.976 20.7277 225.585 22.4097 225.585 24.575V34H221.525V25.126C221.525 23.8693 221.206 22.9123 220.568 22.255C219.93 21.5783 219.06 21.24 217.958 21.24C216.856 21.24 215.976 21.5783 215.319 22.255C214.681 22.9123 214.362 23.8693 214.362 25.126V34H210.302V25.126C210.302 23.8693 209.983 22.9123 209.345 22.255C208.707 21.5783 207.837 21.24 206.735 21.24C205.613 21.24 204.724 21.5783 204.067 22.255C203.429 22.9123 203.11 23.8693 203.11 25.126V34H199.05V17.934H203.11V19.877C203.632 19.2003 204.299 18.6687 205.111 18.282C205.942 17.8953 206.851 17.702 207.837 17.702C209.093 17.702 210.215 17.9727 211.201 18.514C212.187 19.036 212.95 19.79 213.492 20.776C214.014 19.848 214.768 19.1037 215.754 18.543C216.759 17.9823 217.842 17.702 219.002 17.702Z" fill="#052438"/>
</svg>
