<svg width="239" height="48" viewBox="0 0 239 48" fill="none" xmlns="http://www.w3.org/2000/svg">
<path fill-rule="evenodd" clip-rule="evenodd" d="M28.8096 22.7914H28.7916V22.7515H27.8274C27.727 22.7772 27.6201 22.7914 27.512 22.7914H1.27958C0.576715 22.7914 0 22.216 0 21.5118C0 20.8077 0.575427 20.2322 1.27958 20.2322H28.8006C28.8121 21.1037 28.8122 21.9624 28.8083 22.7914H28.8096Z" fill="#0496FF"/>
<path fill-rule="evenodd" clip-rule="evenodd" d="M30.895 10.0549C32.7101 10.2969 34.4711 10.8942 36.0828 11.8249C38.7694 13.3761 40.8509 15.7435 42.0417 18.5871C42.4909 19.6594 42.9518 21.7023 42.9364 22.7914H32.5762C32.5544 21.9353 32.5144 21.0819 32.4591 20.2322H39.9331C39.0513 17.7104 37.2967 15.4808 34.802 14.0404C33.7477 13.4315 32.6354 13.008 31.5065 12.7582C31.3237 11.8301 31.1203 10.9264 30.8937 10.0536L30.895 10.0549Z" fill="#0496FF"/>
<path fill-rule="evenodd" clip-rule="evenodd" d="M6.39786 15.1153H18.0903C18.7687 14.285 19.5437 13.5306 20.4049 12.8689V12.8664C22.35 11.368 24.6671 10.3961 27.1258 10.0614C27.2365 10.0459 27.3485 10.033 27.4592 10.0202C27.5481 10.2712 27.624 10.499 27.6858 10.6986C27.8647 11.2766 28.0166 11.888 28.1441 12.5252C27.9188 12.5433 27.6935 12.5664 27.4708 12.5973C25.6197 12.8496 23.8394 13.5473 22.301 14.6454V14.648C21.6458 15.1166 21.0369 15.6533 20.4898 16.2519C20.4654 16.279 20.4409 16.306 20.4165 16.333C20.0406 16.7514 19.693 17.1994 19.3789 17.6757H18.6181H16.4258H6.39786C5.695 17.6757 5.11829 17.1003 5.11829 16.3961C5.11829 15.692 5.69371 15.1165 6.39786 15.1165V15.1153Z" fill="#0496FF"/>
<path fill-rule="evenodd" clip-rule="evenodd" d="M28.7504 27.8684H22.238H18.1135H15.499H1.27958C0.576715 27.8684 0 27.293 0 26.5889C0 25.8847 0.575427 25.3093 1.27958 25.3093H28.7916C28.7877 26.1564 28.7761 27.0111 28.7504 27.8684Z" fill="#0496FF"/>
<path fill-rule="evenodd" clip-rule="evenodd" d="M29.0555 4.76543C32.3226 4.76801 35.6335 5.60089 38.6664 7.3516C43.6534 10.23 46.8677 15.0007 47.9259 20.2335C48.4305 22.7257 48.4459 25.3222 47.931 27.8697H39.9369H32.5131C32.5569 27.0214 32.5839 26.1666 32.5942 25.3106H45.7066C45.8199 23.7839 45.7233 22.2456 45.4182 20.7407C44.4631 16.0215 41.5589 11.9768 37.3868 9.56703C35.1173 8.25657 32.6161 7.52924 30.0905 7.36962C29.7738 6.44792 29.4288 5.57643 29.0555 4.76414V4.76543Z" fill="#0496FF"/>
<path fill-rule="evenodd" clip-rule="evenodd" d="M11.242 9.99828H15.8119C16.377 9.46663 16.9705 8.97359 17.5871 8.51918C19.8643 6.84441 22.4723 5.70259 25.2066 5.15034C25.6661 5.91113 26.0871 6.73757 26.4526 7.53569C24.6659 7.81117 22.9203 8.375 21.2893 9.22204H21.2919C19.6223 10.0935 18.1329 11.2225 16.8701 12.5574H15.8042L10.9215 12.5162C9.47198 12.139 9.75005 9.99828 11.242 9.99828Z" fill="#0496FF"/>
<path fill-rule="evenodd" clip-rule="evenodd" d="M27.3537 38.0715C25.4678 37.8475 23.6373 37.2412 21.9651 36.2758C20.4692 35.412 19.1613 34.2959 18.0903 32.9854H6.39786C5.695 32.9854 5.11829 32.41 5.11829 31.7059C5.11829 31.0017 5.69371 30.4263 6.39786 30.4263H16.4271H18.5808H19.3802C20.3379 31.8771 21.6368 33.1322 23.2446 34.0603C24.743 34.9254 26.3534 35.4171 27.9703 35.5639C27.8016 36.4109 27.5982 37.2476 27.3537 38.0715Z" fill="#0496FF"/>
<path fill-rule="evenodd" clip-rule="evenodd" d="M24.2603 42.7405C22.5894 42.3144 20.9481 41.6553 19.3828 40.7504C18.0672 39.9909 16.8751 39.1001 15.8131 38.1037H11.3913C9.89931 38.1037 9.61997 35.9642 11.0707 35.5858L16.2251 35.5446H16.87C17.9693 36.7057 19.2412 37.7149 20.6611 38.5349C22.3822 39.5287 24.2372 40.1865 26.1346 40.5161C25.6133 41.2614 24.9619 42.0377 24.2603 42.7405Z" fill="#0496FF"/>
<path fill-rule="evenodd" clip-rule="evenodd" d="M46.703 31.7882C46.0889 33.1888 45.3127 34.5031 44.3987 35.7068H44.3871C43.2505 37.209 41.9233 38.5053 40.4609 39.5815C37.1744 41.999 33.2019 43.3044 29.1533 43.3352C29.5459 42.5204 29.9025 41.6463 30.2269 40.7208C33.3216 40.4981 36.357 39.4232 38.9445 37.5206C40.1725 36.6169 41.2693 35.5484 42.2065 34.3461H39.5353L38.696 34.3384C36.59 36.3182 33.9163 37.6068 31.0418 38.0226C31.2683 37.146 31.4692 36.2384 31.6455 35.3064C33.9137 34.7773 36.0185 33.5686 37.6301 31.7677L39.5469 31.7857H46.703V31.7882Z" fill="#0496FF"/>
<path fill-rule="evenodd" clip-rule="evenodd" d="M17.8123 41.4996C18.6812 43.7742 19.7664 45.3936 20.8542 45.1014C30.4123 42.541 30.8152 5.3061 20.8542 2.63626C19.8076 2.35563 18.7598 3.86562 17.9114 5.98707C18.7276 -0.0979532 23.7313 -3.13853 27.6369 4.70236C32.4385 14.3403 32.6985 34.0101 27.691 43.455C23.497 51.3667 18.0942 47.7983 17.8136 41.4983L17.8123 41.4996Z" fill="#0496FF"/>
<path d="M80.0868 13.758V17.035H74.6928V34H70.6328V17.035H65.2388V13.758H80.0868ZM87.1091 20.428C87.6311 19.5773 88.3078 18.9103 89.1391 18.427C89.9898 17.9437 90.9564 17.702 92.0391 17.702V21.965H90.9661C89.6901 21.965 88.7234 22.2647 88.0661 22.864C87.4281 23.4633 87.1091 24.5073 87.1091 25.996V34H83.0491V17.934H87.1091V20.428ZM93.7297 25.909C93.7297 24.285 94.0487 22.8447 94.6867 21.588C95.344 20.3313 96.2237 19.3647 97.3257 18.688C98.447 18.0113 99.694 17.673 101.067 17.673C102.265 17.673 103.309 17.9147 104.199 18.398C105.107 18.8813 105.832 19.4903 106.374 20.225V17.934H110.463V34H106.374V31.651C105.852 32.405 105.127 33.0333 104.199 33.536C103.29 34.0193 102.236 34.261 101.038 34.261C99.6844 34.261 98.447 33.913 97.3257 33.217C96.2237 32.521 95.344 31.5447 94.6867 30.288C94.0487 29.012 93.7297 27.5523 93.7297 25.909ZM106.374 25.967C106.374 24.981 106.18 24.14 105.794 23.444C105.407 22.7287 104.885 22.1873 104.228 21.82C103.57 21.4333 102.865 21.24 102.111 21.24C101.357 21.24 100.661 21.4237 100.023 21.791C99.3847 22.1583 98.8627 22.6997 98.4567 23.415C98.07 24.111 97.8767 24.9423 97.8767 25.909C97.8767 26.8757 98.07 27.7263 98.4567 28.461C98.8627 29.1763 99.3847 29.7273 100.023 30.114C100.68 30.5007 101.376 30.694 102.111 30.694C102.865 30.694 103.57 30.5103 104.228 30.143C104.885 29.7563 105.407 29.215 105.794 28.519C106.18 27.8037 106.374 26.953 106.374 25.967ZM113.384 25.909C113.384 24.285 113.703 22.8447 114.341 21.588C114.998 20.3313 115.888 19.3647 117.009 18.688C118.13 18.0113 119.377 17.673 120.75 17.673C121.794 17.673 122.79 17.905 123.737 18.369C124.684 18.8137 125.438 19.413 125.999 20.167V12.54H130.117V34H125.999V31.622C125.496 32.4147 124.791 33.0527 123.882 33.536C122.973 34.0193 121.92 34.261 120.721 34.261C119.368 34.261 118.13 33.913 117.009 33.217C115.888 32.521 114.998 31.5447 114.341 30.288C113.703 29.012 113.384 27.5523 113.384 25.909ZM126.028 25.967C126.028 24.981 125.835 24.14 125.448 23.444C125.061 22.7287 124.539 22.1873 123.882 21.82C123.225 21.4333 122.519 21.24 121.765 21.24C121.011 21.24 120.315 21.4237 119.677 21.791C119.039 22.1583 118.517 22.6997 118.111 23.415C117.724 24.111 117.531 24.9423 117.531 25.909C117.531 26.8757 117.724 27.7263 118.111 28.461C118.517 29.1763 119.039 29.7273 119.677 30.114C120.334 30.5007 121.03 30.694 121.765 30.694C122.519 30.694 123.225 30.5103 123.882 30.143C124.539 29.7563 125.061 29.215 125.448 28.519C125.835 27.8037 126.028 26.953 126.028 25.967ZM149.017 25.619C149.017 26.199 148.979 26.721 148.901 27.185H137.156C137.253 28.345 137.659 29.2537 138.374 29.911C139.09 30.5683 139.969 30.897 141.013 30.897C142.521 30.897 143.594 30.2493 144.232 28.954H148.611C148.147 30.5007 147.258 31.7767 145.943 32.782C144.629 33.768 143.014 34.261 141.1 34.261C139.554 34.261 138.162 33.9227 136.924 33.246C135.706 32.55 134.749 31.5737 134.053 30.317C133.377 29.0603 133.038 27.6103 133.038 25.967C133.038 24.3043 133.377 22.8447 134.053 21.588C134.73 20.3313 135.677 19.3647 136.895 18.688C138.113 18.0113 139.515 17.673 141.1 17.673C142.628 17.673 143.991 18.0017 145.189 18.659C146.407 19.3163 147.345 20.254 148.002 21.472C148.679 22.6707 149.017 24.053 149.017 25.619ZM144.812 24.459C144.793 23.415 144.416 22.5837 143.681 21.965C142.947 21.327 142.048 21.008 140.984 21.008C139.979 21.008 139.128 21.3173 138.432 21.936C137.756 22.5353 137.34 23.3763 137.185 24.459H144.812ZM150.995 23.85C150.995 21.8587 151.439 20.08 152.329 18.514C153.237 16.9287 154.465 15.701 156.012 14.831C157.578 13.9417 159.327 13.497 161.261 13.497C163.523 13.497 165.504 14.077 167.206 15.237C168.907 16.397 170.096 18.0017 170.773 20.051H166.104C165.64 19.0843 164.982 18.3593 164.132 17.876C163.3 17.3927 162.334 17.151 161.232 17.151C160.052 17.151 158.999 17.4313 158.071 17.992C157.162 18.5333 156.447 19.3067 155.925 20.312C155.422 21.3173 155.171 22.4967 155.171 23.85C155.171 25.184 155.422 26.3633 155.925 27.388C156.447 28.3933 157.162 29.1763 158.071 29.737C158.999 30.2783 160.052 30.549 161.232 30.549C162.334 30.549 163.3 30.3073 164.132 29.824C164.982 29.3213 165.64 28.5867 166.104 27.62H170.773C170.096 29.6887 168.907 31.303 167.206 32.463C165.524 33.6037 163.542 34.174 161.261 34.174C159.327 34.174 157.578 33.739 156.012 32.869C154.465 31.9797 153.237 30.752 152.329 29.186C151.439 27.62 150.995 25.8413 150.995 23.85ZM178.301 12.54V34H174.241V12.54H178.301ZM189.446 34.261C187.899 34.261 186.507 33.9227 185.27 33.246C184.032 32.55 183.056 31.5737 182.341 30.317C181.645 29.0603 181.297 27.6103 181.297 25.967C181.297 24.3237 181.654 22.8737 182.37 21.617C183.104 20.3603 184.1 19.3937 185.357 18.717C186.613 18.021 188.015 17.673 189.562 17.673C191.108 17.673 192.51 18.021 193.767 18.717C195.023 19.3937 196.009 20.3603 196.725 21.617C197.459 22.8737 197.827 24.3237 197.827 25.967C197.827 27.6103 197.45 29.0603 196.696 30.317C195.961 31.5737 194.956 32.55 193.68 33.246C192.423 33.9227 191.012 34.261 189.446 34.261ZM189.446 30.723C190.18 30.723 190.867 30.549 191.505 30.201C192.162 29.8337 192.684 29.2923 193.071 28.577C193.457 27.8617 193.651 26.9917 193.651 25.967C193.651 24.4397 193.245 23.27 192.433 22.458C191.64 21.6267 190.664 21.211 189.504 21.211C188.344 21.211 187.367 21.6267 186.575 22.458C185.801 23.27 185.415 24.4397 185.415 25.967C185.415 27.4943 185.792 28.6737 186.546 29.505C187.319 30.317 188.286 30.723 189.446 30.723ZM215.972 17.934V34H211.883V31.97C211.361 32.666 210.675 33.217 209.824 33.623C208.993 34.0097 208.084 34.203 207.098 34.203C205.841 34.203 204.73 33.942 203.763 33.42C202.796 32.8787 202.033 32.0957 201.472 31.071C200.931 30.027 200.66 28.7897 200.66 27.359V17.934H204.72V26.779C204.72 28.055 205.039 29.041 205.677 29.737C206.315 30.4137 207.185 30.752 208.287 30.752C209.408 30.752 210.288 30.4137 210.926 29.737C211.564 29.041 211.883 28.055 211.883 26.779V17.934H215.972ZM218.934 25.909C218.934 24.285 219.253 22.8447 219.891 21.588C220.548 20.3313 221.437 19.3647 222.559 18.688C223.68 18.0113 224.927 17.673 226.3 17.673C227.344 17.673 228.339 17.905 229.287 18.369C230.234 18.8137 230.988 19.413 231.549 20.167V12.54H235.667V34H231.549V31.622C231.046 32.4147 230.34 33.0527 229.432 33.536C228.523 34.0193 227.469 34.261 226.271 34.261C224.917 34.261 223.68 33.913 222.559 33.217C221.437 32.521 220.548 31.5447 219.891 30.288C219.253 29.012 218.934 27.5523 218.934 25.909ZM231.578 25.967C231.578 24.981 231.384 24.14 230.998 23.444C230.611 22.7287 230.089 22.1873 229.432 21.82C228.774 21.4333 228.069 21.24 227.315 21.24C226.561 21.24 225.865 21.4237 225.227 21.791C224.589 22.1583 224.067 22.6997 223.661 23.415C223.274 24.111 223.081 24.9423 223.081 25.909C223.081 26.8757 223.274 27.7263 223.661 28.461C224.067 29.1763 224.589 29.7273 225.227 30.114C225.884 30.5007 226.58 30.694 227.315 30.694C228.069 30.694 228.774 30.5103 229.432 30.143C230.089 29.7563 230.611 29.215 230.998 28.519C231.384 27.8037 231.578 26.953 231.578 25.967Z" fill="#052438"/>
</svg>
